<?xml version="1.0" encoding="UTF-8" standalone="no"?>
<!DOCTYPE svg PUBLIC "-//W3C//DTD SVG 1.1//EN"
"http://www.w3.org/Graphics/SVG/1.1/DTD/svg11.dtd">
<svg viewBox="0 0 999 1376" version="1.1" xmlns="http://www.w3.org/2000/svg" xmlns:xlink="http://www.w3.org/1999/xlink">
<defs>
<clipPath id="c0_71"><path d="M32.1,1344.3V32.1H967.5V1344.3Z"/></clipPath>
<clipPath id="c1_71"><path d="M381.1,798.2v-97h99.3v97Z"/></clipPath>
<clipPath id="c2_71"><path d="M544.7,798.2v-97H644v97Z"/></clipPath>
<clipPath id="c3_71"><path d="M708.4,798.2v-97h99.2v97Z"/></clipPath>
<clipPath id="c4_71"><path d="M453.9,647.3V548.1h99.3v99.2Z"/></clipPath>
<clipPath id="c5_71"><path d="M627.6,551.4V452.1h99.2v99.3Z"/></clipPath>
<clipPath id="c6_71"><path d="M720.9,1082.1v-78.9h89.8v78.9Z"/></clipPath>
<clipPath id="c7_71"><path d="M547.7,1078.5v-75.7h90.9v75.7Z"/></clipPath>
<clipPath id="c8_71"><path d="M378.7,1082.5v-78.9H466v78.9Z"/></clipPath>
<clipPath id="c9_71"><path d="M202.9,1080.7v-78.9h90.8v78.9Z"/></clipPath>
<clipPath id="ca_71"><path d="M199.7,322.5l-6.5,-2.1l-16.4,-14V249.3h72v73.2Z"/></clipPath>
<clipPath id="cb_71"><path d="M199.8,947.5l-6.5,-2.1L176.9,931.5V874.4h71.9v73.1Z"/></clipPath>
<clipPath id="cc_71"><path d="M658.6,177V59h200V177Z"/></clipPath>
<style type="text/css"><![CDATA[
.g0_71{
fill: #FEFCF4;
}
.g1_71{
fill: #FFF;
}
.g2_71{
fill: none;
stroke: #6381B7;
stroke-width: 0.763;
}
.g3_71{
fill: none;
stroke: #949698;
stroke-width: 0.381;
}
.g4_71{
fill: #BC93AB;
}
.g5_71{
fill: none;
stroke: #231F20;
stroke-width: 0.458;
}
.g6_71{
fill: #93BEDA;
}
.g7_71{
fill: #EFE9CC;
}
.g8_71{
fill: #6381B7;
}
.g9_71{
fill: none;
stroke: #6381B7;
stroke-width: 0.381;
stroke-dasharray: 2,1;
}
.ga_71{
fill: none;
stroke: #6381B7;
stroke-width: 0.381;
}
.gb_71{
fill: #FCE8B0;
}
.gc_71{
fill: #25408F;
}
.gd_71{
fill: #00BAF1;
}
.ge_71{
fill: #332D2C;
}
.gf_71{
fill: #D9DFF0;
}
.gg_71{
fill: #F27C85;
}
.gh_71{
fill: #7DD3F6;
}
.gi_71{
fill: #2E6E51;
}
.gj_71{
fill: #BCBEC0;
}
.gk_71{
fill: #EE314A;
}
.gl_71{
fill: none;
stroke: #FFF;
stroke-width: 1.909;
stroke-miterlimit: 10;
}
.gm_71{
fill: none;
stroke: #000;
stroke-width: 0.381;
stroke-miterlimit: 10;
}
]]></style>
</defs>
<path clip-path="url(#c0_71)" d="M-877.3,1344.3H45.1V32.1H-877.3V1344.3Z" class="g0_71"/>
<path d="M45.1,1344.3H967.5V32.1H45.1V1344.3Z" class="g0_71"/>
<path d="M172.1,221c0,0,-18.4,0,-18.4,18.3V847.2c0,0,0,18.3,18.4,18.3H849.2c0,0,18.3,0,18.3,-18.3V221Z" class="g1_71"/>
<path d="M172.1,221c0,0,-18.4,0,-18.4,18.3V847.2c0,0,0,18.3,18.4,18.3H849.2c0,0,18.3,0,18.3,-18.3V221H172.1Z" class="g2_71"/>
<path d="M370.5,798.2H491V699H370.5v99.2Z" class="g1_71"/>
<image clip-path="url(#c1_71)" preserveAspectRatio="none" x="381" y="701" width="99" height="99" xlink:href="img/1.jpg"/>
<path d="M370.5,798.2H491V699H370.5v99.2Z" class="g3_71"/>
<path d="M534.1,798.2H654.6V699H534.1v99.2Z" class="g1_71"/>
<image clip-path="url(#c2_71)" preserveAspectRatio="none" x="545" y="701" width="99" height="99" xlink:href="img/2.jpg"/>
<path d="M534.1,798.2H654.6V699H534.1v99.2Z" class="g3_71"/>
<path d="M697.7,798.2H818.2V699H697.7v99.2Z" class="g1_71"/>
<image clip-path="url(#c3_71)" preserveAspectRatio="none" x="708" y="701" width="100" height="99" xlink:href="img/3.jpg"/>
<path d="M697.7,798.2H818.2V699H697.7v99.2Z" class="g3_71"/>
<path d="M258.3,800.1c38.3,0,69.3,-19.4,69.3,-43.3c0,-23.9,-31,-43.3,-69.3,-43.3C220,713.5,189,732.9,189,756.8c0,23.9,31,43.3,69.3,43.3Z" class="g4_71"/>
<path d="M476,477.6L430.8,423.3m100.6,54.3l45.2,-54.3m-7,67.1h82.3m-275.5,0h82.3m44.8,29.2v35.7" class="g5_71"/>
<path d="M284.8,551.4H405.3V452.1H284.8v99.3Z" class="g1_71"/>
<image preserveAspectRatio="none" x="295" y="452" width="100" height="99" xlink:href="img/4.jpg"/>
<path d="M284.8,551.4H405.3V452.1H284.8v99.3Z" class="g3_71"/>
<path d="M534.1,430.7H654.6V331.5H534.1v99.2Z" class="g1_71"/>
<image preserveAspectRatio="none" x="545" y="331" width="99" height="100" xlink:href="img/5.jpg"/>
<path d="M534.1,430.7H654.6V331.5H534.1v99.2Z" class="g3_71"/>
<path d="M370.5,430.7H491V331.5H370.5v99.2Z" class="g1_71"/>
<image preserveAspectRatio="none" x="381" y="331" width="99" height="100" xlink:href="img/6.jpg"/>
<path d="M370.5,430.7H491V331.5H370.5v99.2Z" class="g3_71"/>
<path d="M443.3,647.3H563.8V548.1H443.3v99.2Z" class="g1_71"/>
<image clip-path="url(#c4_71)" preserveAspectRatio="none" x="454" y="548" width="99" height="99" xlink:href="img/7.jpg"/>
<path d="M443.3,647.3H563.8V548.1H443.3v99.2Z" class="g3_71"/>
<path d="M616.9,551.4H737.4V452.1H616.9v99.3Z" class="g1_71"/>
<image clip-path="url(#c5_71)" preserveAspectRatio="none" x="628" y="452" width="99" height="99" xlink:href="img/8.jpg"/>
<path d="M616.9,551.4H737.4V452.1H616.9v99.3Z" class="g3_71"/>
<path d="M503.5,531.5c38.3,0,69.3,-19.4,69.3,-43.3c0,-23.9,-31,-43.3,-69.3,-43.3c-38.2,0,-69.2,19.4,-69.2,43.3c0,23.9,31,43.3,69.2,43.3Z" class="g4_71"/>
<path d="M166.7,958.6c0,0,-13,0,-13,13v217.5c0,0,0,13,13,13H854.5c0,0,13,0,13,-13V971.6c0,0,0,-13,-13,-13Z" class="g1_71"/>
<path d="M166.7,958.6c0,0,-13,0,-13,13v217.5c0,0,0,13,13,13H854.5c0,0,13,0,13,-13V971.6c0,0,0,-13,-13,-13H166.7Z" class="g2_71"/>
<image clip-path="url(#c6_71)" preserveAspectRatio="none" x="720" y="1002" width="91" height="81" xlink:href="img/9.jpg"/>
<image clip-path="url(#c7_71)" preserveAspectRatio="none" x="547" y="1002" width="92" height="81" xlink:href="img/10.jpg"/>
<image clip-path="url(#c8_71)" preserveAspectRatio="none" x="377" y="1002" width="89" height="81" xlink:href="img/11.jpg"/>
<image clip-path="url(#c9_71)" preserveAspectRatio="none" x="202" y="1000" width="92" height="82" xlink:href="img/12.jpg"/>
<path d="M767.6,1146.2c2,0,3.6,-1.6,3.6,-3.6c0,-2,-1.6,-3.6,-3.6,-3.6c-2,0,-3.6,1.6,-3.6,3.6c0,2,1.6,3.6,3.6,3.6Z" class="g6_71"/>
<path d="M767.6,1100.3c2,0,3.6,-1.6,3.6,-3.6c0,-2,-1.6,-3.6,-3.6,-3.6c-2,0,-3.6,1.6,-3.6,3.6c0,2,1.6,3.6,3.6,3.6Z" class="g6_71"/>
<path d="M594.5,1146.2c2,0,3.6,-1.6,3.6,-3.6c0,-2,-1.6,-3.6,-3.6,-3.6c-2,0,-3.6,1.6,-3.6,3.6c0,2,1.6,3.6,3.6,3.6Z" class="g6_71"/>
<path d="M594.5,1100.3c2,0,3.6,-1.6,3.6,-3.6c0,-2,-1.6,-3.6,-3.6,-3.6c-2,0,-3.6,1.6,-3.6,3.6c0,2,1.6,3.6,3.6,3.6Z" class="g6_71"/>
<path d="M421.5,1146.2c2,0,3.6,-1.6,3.6,-3.6c0,-2,-1.6,-3.6,-3.6,-3.6c-2,0,-3.6,1.6,-3.6,3.6c0,2,1.6,3.6,3.6,3.6Z" class="g6_71"/>
<path d="M421.5,1100.3c2,0,3.6,-1.6,3.6,-3.6c0,-2,-1.6,-3.6,-3.6,-3.6c-2,0,-3.6,1.6,-3.6,3.6c0,2,1.6,3.6,3.6,3.6Z" class="g6_71"/>
<path d="M248.4,1146.2c2,0,3.6,-1.6,3.6,-3.6c0,-2,-1.6,-3.6,-3.6,-3.6c-2,0,-3.6,1.6,-3.6,3.6c0,2,1.6,3.6,3.6,3.6Z" class="g6_71"/>
<path d="M248.4,1100.3c2,0,3.6,-1.6,3.6,-3.6c0,-2,-1.6,-3.6,-3.6,-3.6c-2,0,-3.6,1.6,-3.6,3.6c0,2,1.6,3.6,3.6,3.6Z" class="g6_71"/>
<path d="M199,1157.2c0,0,-8.7,0,-8.7,8.7v15.2c0,0,0,8.6,8.7,8.6h99.6c0,0,8.6,0,8.6,-8.6v-15.2c0,0,0,-8.7,-8.6,-8.7Z" class="g7_71"/>
<path d="M369.7,1157.2c0,0,-8.6,0,-8.6,8.7v15.2c0,0,0,8.6,8.6,8.6h99.6c0,0,8.7,0,8.7,-8.6v-15.2c0,0,0,-8.7,-8.7,-8.7Z" class="g7_71"/>
<path d="M540.5,1157.2c0,0,-8.7,0,-8.7,8.7v15.2c0,0,0,8.6,8.7,8.6h99.6c0,0,8.7,0,8.7,-8.6v-15.2c0,0,0,-8.7,-8.7,-8.7Z" class="g7_71"/>
<path d="M711.3,1157.2c0,0,-8.7,0,-8.7,8.7v15.2c0,0,0,8.6,8.7,8.6h99.6c0,0,8.7,0,8.7,-8.6v-15.2c0,0,0,-8.7,-8.7,-8.7Z" class="g7_71"/>
<path d="M660.9,1216.2c0,0,-4.4,0,-4.4,4.3v10.8c0,0,0,4.4,4.4,4.4h30.3c0,0,4.3,0,4.3,-4.4v-10.8c0,0,0,-4.3,-4.3,-4.3Z" class="g8_71"/>
<path d="M647.7,1208.7v34.9m1.3,.9H867.2m1,-1.3v-34.9m-1.4,-1H648.6" class="g9_71"/>
<path d="M647.7,1243.9v.6h.6m219.3,0h.6v-.6m0,-36v-.6h-.6m-219.3,0h-.6v.6" class="ga_71"/>
<path d="M232.3,277.5c0,0,-13,0,-13,13v21.6c0,0,0,13,13,13h602c0,0,13,0,13,-13V290.5c0,0,0,-13,-13,-13Z" class="gb_71"/>
<image clip-path="url(#ca_71)" preserveAspectRatio="none" x="175" y="248" width="75" height="76" xlink:href="img/13.png"/>
<path d="M227.1,317.8c0,0,-26.9,11.3,-51.1,-12.8c0,0,15.1,25.3,49.3,24c0,0,24.7,.3,20.2,-10.1c0,0,1.2,-4.5,-18.4,-1.1Z" class="gb_71"/>
<path d="M232.4,902.6c0,0,-13,0,-13,12.9v21.7c0,0,0,13,13,13H854.9c0,0,13,0,13,-13V915.5c0,0,0,-12.9,-13,-12.9Z" class="gb_71"/>
<image clip-path="url(#cb_71)" preserveAspectRatio="none" x="175" y="873" width="75" height="76" xlink:href="img/14.png"/>
<path d="M227.2,942.8c0,0,-26.9,11.3,-51.1,-12.7c0,0,15.1,25.3,49.3,23.9c0,0,24.7,.4,20.2,-10.1c0,0,1.2,-4.4,-18.4,-1.1Z" class="gb_71"/>
<path d="M153.3,213.7v22.2L165,246.2V224Z" class="gc_71"/>
<path d="M153.3,196.9v39H851.1c0,0,16.8,0,16.8,-16.8v-5.4c0,0,0,-16.8,-16.8,-16.8Z" class="g8_71"/>
<path d="M211.3,208.3l-6.5,-6.5L183.6,223l6.5,6.5Z" class="gd_71"/>
<path d="M190.1,230.1c.1,0,.3,-.1,.4,-.2l21.2,-21.2c.1,-.1,.1,-.2,.1,-.4c0,-.1,0,-.3,-.1,-.3l-6.5,-6.5c-.2,-.2,-.6,-.2,-.8,0l-21.2,21.2c-.1,.1,-.1,.2,-.1,.3c0,.2,0,.3,.1,.4l6.5,6.5c.1,.1,.3,.2,.4,.2m20.5,-21.8l-20.5,20.5L184.3,223l20.5,-20.4Z" class="ge_71"/>
<path d="M211.3,208.3l-6.5,-6.5l2.1,-2.1l6.5,6.5Z" class="gf_71"/>
<path d="M211.3,208.8c.1,0,.3,0,.4,-.1l2.1,-2.1c.1,-.1,.2,-.3,.2,-.4c0,-.2,-.1,-.3,-.2,-.4l-6.5,-6.5c-.2,-.2,-.5,-.2,-.7,0l-2.2,2.2c-.1,.1,-.1,.2,-.1,.3c0,.2,0,.3,.1,.4l6.5,6.5c.1,.1,.3,.1,.4,.1m1.4,-2.6l-1.4,1.4l-5.7,-5.8l1.3,-1.4Z" class="ge_71"/>
<path d="M217,202.6l-6.4,-6.5l-3.7,3.6l6.5,6.5Z" class="gg_71"/>
<path d="M213.4,206.7c.2,0,.3,0,.4,-.1l3.6,-3.7c.2,-.2,.2,-.5,0,-.7l-6.5,-6.5c-.2,-.2,-.5,-.2,-.7,0l-3.6,3.6c-.2,.2,-.2,.6,0,.8l6.5,6.5c.1,.1,.2,.1,.3,.1m2.9,-4.1l-2.9,2.8l-5.7,-5.7l2.9,-2.9Z" class="ge_71"/>
<path d="M179,234.2L183.6,223l6.5,6.5Z" class="g1_71"/>
<path d="M179,234.7c0,0,.1,0,.2,-.1L190.3,230c.2,0,.3,-.2,.3,-.4c0,-.1,0,-.3,-.1,-.4L184,222.7c-.1,-.2,-.3,-.2,-.5,-.2c-.2,.1,-.3,.2,-.4,.3L178.5,234c-.1,.2,0,.4,.1,.5c.1,.1,.2,.2,.4,.2m10.2,-5.4l-9.3,3.9l3.9,-9.2Z" class="ge_71"/>
<path d="M179,234.2l2.2,-5.4l3.1,3.1Z" class="ge_71"/>
<path d="M179,234.7c0,0,.1,0,.2,-.1l5.3,-2.2c.2,-.1,.3,-.2,.4,-.4c0,-.1,-.1,-.3,-.2,-.4l-3.1,-3.2c-.1,-.1,-.3,-.2,-.5,-.1c-.2,0,-.3,.1,-.4,.3l-2.2,5.4c-.1,.2,0,.4,.1,.5c.1,.1,.2,.2,.4,.2m4.4,-3l-3.5,1.5l1.5,-3.5Z" class="ge_71"/>
<path d="M209.5,206.6l-2.9,-3l-21.2,21.2l2.9,3Z" class="gh_71"/>
<path d="M188.3,228.3c.2,0,.3,-.1,.4,-.2l21.2,-21.2c.1,-.1,.2,-.2,.2,-.3c0,-.2,-.1,-.3,-.2,-.4l-3,-3c-.2,-.2,-.5,-.2,-.7,0L185,224.4c-.1,.1,-.2,.3,-.2,.4c0,.1,.1,.3,.2,.4l3,2.9c.1,.1,.2,.2,.3,.2m20.5,-21.7L188.3,227l-2.2,-2.2l20.5,-20.5Z" class="ge_71"/>
<path d="M32.1,179.3H967.5V32.1H32.1V179.3Z" class="gi_71"/>
<g clip-path="url(#c0_71)">
<path d="M967.5,177.2H-877.3v-5.4h736.6c43.1,0,53.1,-37.9,115.3,-37.9H967.5Z" class="gj_71"/>
<path d="M967.5,183.7H-877.3v-9.8h736.6c43.1,0,53.1,-33.6,115.3,-33.6H967.5Z" class="gk_71"/>
</g>
<image clip-path="url(#cc_71)" preserveAspectRatio="none" x="659" y="59" width="200" height="118" xlink:href="img/15.png"/>
<path d="M32.1,45.1H9.2m958.3,0h22.9M32.1,1331.3H9.2m958.3,0h22.9M45.1,32.1V9.2m0,1335.1v22.9M954.5,32.1V9.2m0,1335.1v22.9" class="gl_71"/>
<path d="M32.1,45.1H9.2m958.3,0h22.9M32.1,1331.3H9.2m958.3,0h22.9M45.1,32.1V9.2m0,1335.1v22.9M954.5,32.1V9.2m0,1335.1v22.9" class="gm_71"/>
<path d="M27.5,32.1H0m972.1,0h27.5M27.5,1344.3H0m972.1,0h27.5M32.1,27.5V0m0,1348.9v27.5M967.5,27.5V0m0,1348.9v27.5" class="gl_71"/>
<path d="M27.5,32.1H0m972.1,0h27.5M27.5,1344.3H0m972.1,0h27.5M32.1,27.5V0m0,1348.9v27.5M967.5,27.5V0m0,1348.9v27.5" class="gm_71"/>
</svg>