<?xml version="1.0" encoding="UTF-8" standalone="no"?>
<!DOCTYPE svg PUBLIC "-//W3C//DTD SVG 1.1//EN"
"http://www.w3.org/Graphics/SVG/1.1/DTD/svg11.dtd">
<svg viewBox="0 0 999 1376" version="1.1" xmlns="http://www.w3.org/2000/svg" xmlns:xlink="http://www.w3.org/1999/xlink">
<defs>
<clipPath id="c0_337"><path d="M198.2,261.6l-6.5,-2.2L175.3,245.5V188.4h72v73.2Z"/></clipPath>
<clipPath id="c1_337"><path d="M198.2,998.1L191.7,996L175.3,982.1V925h72v73.1Z"/></clipPath>
<clipPath id="c2_337"><path d="M125.1,628.1V547.8h143v80.3Z"/></clipPath>
<clipPath id="c3_337"><path d="M123.3,633.4V543.7H268.5v89.7Z"/></clipPath>
<clipPath id="c4_337"><path d="M123,633.1V543.4H268.2v89.7Z"/></clipPath>
<clipPath id="c5_337"><path d="M185.2,562.5c-.3,-.1,3.5,-8.2,3.5,-8.2l.8,.5c0,0,-4,7.7,-4.3,7.7Z"/></clipPath>
<clipPath id="c6_337"><path d="M192.7,554.8c0,0,-6.9,-1.1,-7.6,-5.2c-.7,-3.7,1.5,-3.9,2.1,-3.9c0,0,.1,0,.1,0L195.6,533l-1.5,-3.1c0,0,-.6,-1.1,.2,-2.1c0,0,.1,-.1,.3,-.1c2.1,0,12.9,5.6,12.9,5.6l.1,.1c-.4,.5,-.7,1.2,-1.4,1.7c-.6,.5,-5.1,1.1,-5.1,1.1l-8.4,18.6Z"/></clipPath>
<clipPath id="c7_337"><path d="M192.3,554.4c.2,-.4,.2,-1.8,0,-2.2v-1.4c-1.6,-.5,-2.9,-1.3,-3.7,-2.5c-1.1,.6,-2.1,1.2,-3.1,1.9c1.5,2.1,3.8,3.5,6.8,4.2Zm0,-3.9c2.2,-4.5,3.9,-9.5,6.1,-14c-.9,-.4,-1.8,-1.4,-2.6,-1.4c-2.3,4.3,-4.6,8.6,-7.1,12.8c.8,1.3,2.1,2,3.6,2.6ZM185,562.6c1,-2.9,2.4,-5.5,3.5,-8.3c-2,-1.5,-3.9,-3.1,-4.4,-6.2v-1.5c0,-2.7,1.9,-3.4,4.5,-3.4c.1,0,.2,0,.3,0c1.9,-3.3,4.2,-6.3,6.1,-9.6c-.5,-.9,-1.1,-2.4,-.9,-3.7c.6,1.3,1.7,1.9,2.4,2.9c-.1,.6,-.3,1.2,-.3,1.8c.5,.6,1.3,1.2,2.3,1.3c.5,-.4,.6,-1.2,1.2,-1.5c.9,.4,1.8,.8,3.1,.8c.1,.1,.5,.2,.8,.2c.4,0,.7,-.1,.9,-.2c.1,0,.2,0,.3,0c.2,0,.4,0,.6,-.1c.2,-.1,.3,-.1,.5,-.1c.1,0,.2,0,.3,.1c-1.3,.6,-2.2,1.7,-4.2,1.7c-.1,0,-.2,0,-.3,0c-.9,3.8,-1.9,7.4,-2.7,11.2c.6,1.1,1.5,1.7,1.3,3.2c-.5,2.7,-3.9,4.3,-7.2,4.3c-1.3,0,-2.5,-.2,-3.6,-.7c-1,2.1,-2.1,4.1,-3.3,6c0,-.3,.3,-.4,.3,-.7c.9,-1.8,1.9,-3.6,2.6,-5.7c-1,1.7,-1.8,3.7,-2.7,5.6c-.3,.4,-.5,.8,-.7,1.2c-.3,.4,-.3,1.1,-.7,1.4Z"/></clipPath>
<clipPath id="c8_337"><path d="M202.7,534.8c-4.8,0,-13.1,-7.3,-5.5,-8.8h1.2c.2,.1,.3,.1,.5,.1c.1,0,.2,0,.2,0q.1,0,.2,0c.2,0,.5,0,.9,0c3.1,.7,8.2,3.9,7.5,7.1c-.2,1.1,-1.5,1.6,-3.1,1.6h-1.8c0,0,-.1,0,-.1,0Z"/></clipPath>
<clipPath id="c9_337"><path d="M765.9,680V592H921v88Z"/></clipPath>
<clipPath id="ca_337"><path d="M765.8,683.5V588.9H922v94.6Z"/></clipPath>
<clipPath id="cb_337"><path d="M765.5,683.2V588.6H921.7v94.6Z"/></clipPath>
<clipPath id="cc_337"><path d="M840.8,608.2c-.2,-.1,3.6,-8.2,3.6,-8.2l.8,.5c0,0,-4.1,7.7,-4.4,7.7Z"/></clipPath>
<clipPath id="cd_337"><path d="M848.3,600.4c0,0,-6.8,-1.1,-7.5,-5.2c-.7,-3.6,1.5,-3.8,2,-3.8c.1,0,.2,0,.2,0l8.3,-12.7l-1.5,-3.1c0,0,-.6,-1.1,.2,-2.1c0,-.1,.1,-.1,.3,-.1c2.1,0,12.9,5.5,12.9,5.5l.1,.2c-.4,.5,-.8,1.1,-1.4,1.6c-.7,.5,-5.1,1.2,-5.1,1.2l-8.5,18.5Z"/></clipPath>
<clipPath id="ce_337"><path d="M847.9,600.1c.2,-.5,.2,-1.8,0,-2.3v-1.4c-1.5,-.5,-2.8,-1.2,-3.6,-2.5c-1.1,.6,-2.1,1.3,-3.2,1.9c1.6,2.1,3.9,3.6,6.8,4.3Zm0,-3.9c2.2,-4.6,4,-9.5,6.2,-14.1c-.9,-.4,-1.9,-1.3,-2.7,-1.4c-2.2,4.4,-4.6,8.7,-7,12.9c.7,1.3,2.1,2,3.5,2.6Zm-7.3,12.1c1.1,-2.9,2.4,-5.5,3.6,-8.3c-2,-1.6,-4,-3.1,-4.4,-6.2v-1.5c-.1,-2.7,1.9,-3.4,4.6,-3.4c0,0,.1,0,.1,0c2,-3.3,4.3,-6.3,6.2,-9.7c-.6,-.8,-1.2,-2.3,-.9,-3.6c.5,1.2,1.6,1.9,2.4,2.9c-.1,.6,-.3,1.1,-.4,1.7c.6,.7,1.4,1.2,2.4,1.4c.5,-.4,.5,-1.2,1.1,-1.5c1,.4,1.9,.8,3.2,.8c.1,.1,.5,.1,.8,.1c.3,0,.7,0,.8,-.1c.1,0,.2,0,.3,0c.2,0,.5,-.1,.6,-.1c.2,-.1,.4,-.2,.6,-.2c.1,0,.2,.1,.3,.1c-1.3,.7,-2.2,1.8,-4.2,1.8c-.1,0,-.2,0,-.3,0c-.9,3.7,-1.9,7.4,-2.7,11.2c.6,1,1.5,1.7,1.3,3.1c-.5,2.8,-3.9,4.4,-7.2,4.4c-1.3,0,-2.6,-.2,-3.6,-.7c-1,2.1,-2.1,4.1,-3.3,6c0,-.4,.3,-.4,.2,-.8c1,-1.8,2,-3.5,2.7,-5.6c-1.1,1.7,-1.8,3.7,-2.8,5.5c-.2,.4,-.4,.9,-.6,1.3c-.3,.4,-.3,1.1,-.8,1.4Z"/></clipPath>
<clipPath id="cf_337"><path d="M858.4,580.5c-4.8,0,-13.1,-7.3,-5.6,-8.8h1.3c.2,0,.4,0,.7,0c0,0,.1,0,.1,0c.3,0,.6,0,.9,.1c3.1,.7,8.3,3.8,7.6,7c-.3,1.2,-1.6,1.6,-3.2,1.7h-1.7q-.1,0,-.1,0Z"/></clipPath>
<clipPath id="cg_337"><path d="M786.5,132.5V120.1H801v12.4Z"/></clipPath>
<style type="text/css"><![CDATA[
.g0_337{
fill: #FEFCF4;
}
.g1_337{
fill: #FFF;
}
.g2_337{
fill: none;
stroke: #6381B7;
stroke-width: 0.763;
}
.g3_337{
fill: #6381B7;
}
.g4_337{
fill: none;
stroke: #6381B7;
stroke-width: 0.381;
stroke-dasharray: 2,1;
}
.g5_337{
fill: none;
stroke: #6381B7;
stroke-width: 0.381;
}
.g6_337{
fill: #FCE8B0;
}
.g7_337{
fill: none;
stroke: #949698;
stroke-width: 0.305;
stroke-dasharray: 4,4;
}
.g8_337{
fill: none;
stroke: #949698;
stroke-width: 0.305;
}
.g9_337{
fill: #F7C2D9;
}
.ga_337{
fill: #FDF4F3;
}
.gb_337{
fill: #EC008C;
}
.gc_337{
fill: #6D6F71;
}
.gd_337{
fill: #25408F;
}
.ge_337{
fill: #A8AAAD;
}
.gf_337{
fill: none;
stroke: #949698;
stroke-width: 0.549;
}
.gg_337{
fill: none;
stroke: #BCBEC0;
stroke-width: 2.566;
}
.gh_337{
fill: #231F20;
}
.gi_337{
fill: #363637;
}
.gj_337{
fill: #5CC4BE;
}
.gk_337{
fill: #F0D73F;
}
.gl_337{
fill: none;
stroke: #FFF;
stroke-width: 1.909;
stroke-miterlimit: 10;
}
.gm_337{
fill: none;
stroke: #000;
stroke-width: 0.381;
stroke-miterlimit: 10;
}
]]></style>
</defs>
<path d="M45.1,1344.3H967.5V32.1H45.1V1344.3Z" class="g0_337"/>
<path d="M171.6,138.6c0,0,-18.3,0,-18.3,18.4V864.4c0,0,0,18.3,18.3,18.3H848.7c0,0,18.4,0,18.4,-18.3V138.6Z" class="g1_337"/>
<path d="M171.6,138.6c0,0,-18.3,0,-18.3,18.4V864.4c0,0,0,18.3,18.3,18.3H848.7c0,0,18.4,0,18.4,-18.3V138.6H171.6Z" class="g2_337"/>
<path d="M166.7,902.9c0,0,-13,0,-13,13v181.2c0,0,0,12.9,13,12.9H854.5c0,0,13,0,13,-12.9V915.9c0,0,0,-13,-13,-13Z" class="g1_337"/>
<path d="M166.7,902.9c0,0,-13,0,-13,13v181.2c0,0,0,12.9,13,12.9H854.5c0,0,13,0,13,-12.9V915.9c0,0,0,-13,-13,-13H166.7Z" class="g2_337"/>
<path d="M491.6,1128.1c0,0,-4.3,0,-4.3,4.4v10.8c0,0,0,4.3,4.3,4.3h30.3c0,0,4.4,0,4.4,-4.3v-10.8c0,0,0,-4.4,-4.4,-4.4Z" class="g3_337"/>
<path d="M478.5,1120.6v54.9m1.3,1h387m.9,-1.4v-54.9m-1.3,-.9h-387" class="g4_337"/>
<path d="M478.5,1175.9v.6h.5m388.1,0h.6v-.6m0,-56v-.6h-.6m-388.1,0h-.5v.6" class="g5_337"/>
<path d="M230.8,190.6c0,0,-13,0,-13,13v47.6c0,0,0,13,13,13h602c0,0,13,0,13,-13V203.6c0,0,0,-13,-13,-13Z" class="g6_337"/>
<image clip-path="url(#c0_337)" preserveAspectRatio="none" x="174" y="187" width="75" height="76" xlink:href="img/1.png"/>
<path d="M225.6,256.8c0,0,-26.8,11.3,-51.1,-12.7c0,0,15.2,25.3,49.3,24c0,0,24.8,.3,20.3,-10.2c0,0,1.2,-4.4,-18.5,-1.1Z" class="g6_337"/>
<path d="M230.8,927.1c0,0,-13,0,-13,13v47.7c0,0,0,13,13,13h602c0,0,13,0,13,-13V940.1c0,0,0,-13,-13,-13Z" class="g6_337"/>
<image clip-path="url(#c1_337)" preserveAspectRatio="none" x="174" y="923" width="75" height="77" xlink:href="img/2.png"/>
<path d="M225.6,993.4c0,0,-26.8,11.3,-51.1,-12.8c0,0,15.2,25.4,49.3,24c0,0,24.8,.3,20.3,-10.1c0,0,1.2,-4.5,-18.5,-1.1Z" class="g6_337"/>
<path d="M645.3,684.5c25.4,-.6,45.9,-6.5,50.2,-14.2m-.9,-7.1c-5.8,-7.1,-26.2,-12.5,-50.8,-12.9m-7.7,0c-25.4,.7,-45.9,6.6,-50.2,14.2m.9,7.1c5.8,7.1,26.2,12.5,50.8,12.9" class="g7_337"/>
<path d="M696,668.9c.2,-.5,.3,-1,.3,-1.5c0,-.5,-.1,-1,-.3,-1.5M642.2,650.3c-.5,0,-1,0,-1.5,0c-.5,0,-1,0,-1.5,0m-53.9,15.6c-.1,.5,-.2,1,-.2,1.5c0,.5,.1,1,.2,1.5m53.9,15.6c.5,0,1,.1,1.5,.1c.5,0,1,-.1,1.5,-.1" class="g8_337"/>
<image clip-path="url(#c2_337)" preserveAspectRatio="none" x="125" y="548" width="142" height="81" xlink:href="img/3.png"/>
<path d="M129.8,554.8l1.9,67.2l130,-.2L260.1,553Z" class="g9_337"/>
<image clip-path="url(#c3_337)" preserveAspectRatio="none" x="123" y="544" width="145" height="90" xlink:href="img/4.png"/>
<image clip-path="url(#c4_337)" preserveAspectRatio="none" x="122" y="544" width="146" height="89" xlink:href="img/5.png"/>
<path d="M127.8,560.1l6.3,66.9l106.7,-9.6l21.1,-21.2l-4.3,-48.1Z" class="ga_337"/>
<path d="M240.9,617.4L262,596.2l-16.8,-5Z" class="gb_337"/>
<path d="M588.2,662.1c0,0,-90.1,-95.2,-350,-95.2" class="g7_337"/>
<path d="M239.7,561.8l-.2,8.8l-11.2,-4.7Z" class="gc_337"/>
<image clip-path="url(#c5_337)" x="184" y="554" width="6" height="9" xlink:href="shade/1.png"/>
<image clip-path="url(#c6_337)" x="184" y="527" width="24" height="28" xlink:href="shade/2.png"/>
<image clip-path="url(#c7_337)" x="184" y="529" width="23" height="34" xlink:href="shade/3.png"/>
<image clip-path="url(#c8_337)" x="189" y="526" width="20" height="9" xlink:href="shade/4.png"/>
<image clip-path="url(#c9_337)" preserveAspectRatio="none" x="765" y="593" width="155" height="87" xlink:href="img/6.png"/>
<path d="M771.2,598.1l.6,75.6l143.1,.1l-1.1,-76.5Z" class="g9_337"/>
<image clip-path="url(#ca_337)" preserveAspectRatio="none" x="765" y="590" width="156" height="94" xlink:href="img/7.png"/>
<image clip-path="url(#cb_337)" preserveAspectRatio="none" x="765" y="589" width="156" height="95" xlink:href="img/8.png"/>
<path d="M770.2,603.3l5.9,73.6l117.6,-8.3l21.8,-20.5l-4.6,-54.8Z" class="ga_337"/>
<path d="M893.7,668.6l21.9,-20.4l-14.9,-4.5Z" class="gb_337"/>
<image clip-path="url(#cc_337)" x="840" y="599" width="6" height="10" xlink:href="shade/5.png"/>
<image clip-path="url(#cd_337)" x="840" y="573" width="24" height="28" xlink:href="shade/6.png"/>
<image clip-path="url(#ce_337)" x="839" y="575" width="23" height="34" xlink:href="shade/7.png"/>
<image clip-path="url(#cf_337)" x="845" y="571" width="20" height="10" xlink:href="shade/8.png"/>
<path d="M465.4,684.3c9.9,-1.2,17.6,-6.4,19.6,-12.8m-.6,-8c-2.8,-6,-10.8,-10.5,-20.6,-11.3m-8.2,.1c-9.8,1.3,-17.6,6.4,-19.6,12.8m.6,7.9c2.8,6,10.8,10.6,20.6,11.4" class="g7_337"/>
<path d="M485.3,669.9c.1,-.5,.2,-1.1,.2,-1.6c0,-.6,-.1,-1.1,-.2,-1.6M462.1,652.1c-.5,-.1,-1.1,-.1,-1.6,-.1c-.5,0,-1.1,0,-1.6,.1m-23.2,14.6c-.1,.5,-.2,1,-.2,1.6c0,.5,.1,1.1,.2,1.6m23.2,14.6c.5,0,1.1,.1,1.6,.1c.5,0,1.1,-.1,1.6,-.1" class="g8_337"/>
<path d="M476.8,683.2c19.5,4.8,101.1,23.5,183.4,20.8m8.1,-1c5.4,-2.2,5.2,-7.2,1.6,-9.1m-7.5,.6c-3.8,2.7,-3.5,8.7,7.1,9.6m7.7,.2c21.8,0,78.5,-1.6,104.2,-40.8" class="g7_337"/>
<path d="M472.4,682c0,0,.5,.2,1.5,.4M661.7,704l1.5,-.1c.7,0,1.2,-.1,1.8,-.1m3.3,-10.5c-.5,-.1,-1.1,-.1,-1.7,-.1c-.5,0,-1,0,-1.5,.1m5.9,10.9c.5,.1,1,.1,1.5,.1h1.6M782.2,662.2c.3,-.4,.6,-.9,.8,-1.3" class="g8_337"/>
<path d="M777,660.8l6.6,5.9l4.2,-11.4Z" class="gc_337"/>
<path d="M153.3,111.9v39L165,161.2V117Z" class="gd_337"/>
<path d="M153.3,111.9v39H851.1c0,0,16.8,0,16.8,-16.8v-5.3c0,0,0,-16.9,-16.8,-16.9Z" class="g3_337"/>
<path d="M802.6,145.6c8.2,0,14.9,-6.5,14.9,-14.5c0,-8.1,-6.7,-14.5,-14.9,-14.5c-8.2,0,-14.9,6.4,-14.9,14.5c0,8,6.7,14.5,14.9,14.5Z" class="ge_337"/>
<path d="M802.6,145.6c8.2,0,14.9,-6.5,14.9,-14.5c0,-8.1,-6.7,-14.5,-14.9,-14.5c-8.2,0,-14.9,6.4,-14.9,14.5c0,8,6.7,14.5,14.9,14.5Z" class="gf_337"/>
<path d="M802.6,136.4c3,0,5.5,-2.4,5.5,-5.3c0,-3,-2.5,-5.4,-5.5,-5.4c-3,0,-5.5,2.4,-5.5,5.4c0,2.9,2.5,5.3,5.5,5.3Z" class="g1_337"/>
<path d="M802.6,136.4c3,0,5.5,-2.4,5.5,-5.3c0,-3,-2.5,-5.4,-5.5,-5.4c-3,0,-5.5,2.4,-5.5,5.4c0,2.9,2.5,5.3,5.5,5.3Z" class="gg_337"/>
<g clip-path="url(#cg_337)" opacity="0.3">
<path d="M788,130.3c0,0,0,-4.8,3.7,-8.7l7.7,6.8c0,0,-1,.9,-1,2.6Z" class="g1_337"/>
</g>
<path d="M807.2,131c0,0,-3.5,0,-3.5,3.4v8.7c0,0,0,3.5,3.5,3.5h43.5c0,0,3.5,0,3.5,-3.5v-8.7c0,0,0,-3.4,-3.5,-3.4Z" class="gh_337"/>
<path d="M191.2,122c0,-8.3,-6.8,-15,-15.1,-15c-8.3,0,-15,6.7,-15,15c0,8.3,6.7,15.1,15,15.1c.8,0,1.7,-.1,2.4,-.2l4.5,5.2v-6.7c4.9,-2.5,8.2,-7.6,8.2,-13.4Z" class="g1_337"/>
<path d="M183.5,143.3l-5.1,-5.9c-.8,.1,-1.5,.1,-2.3,.1c-8.5,0,-15.5,-6.9,-15.5,-15.5c0,-8.5,7,-15.5,15.5,-15.5c8.6,0,15.5,7,15.5,15.5c0,5.7,-3.1,11,-8.1,13.7Zm-4.8,-6.9l3.9,4.5v-5.8l.2,-.1c4.9,-2.5,7.9,-7.5,7.9,-13c0,-8,-6.5,-14.6,-14.6,-14.6c-8,0,-14.6,6.6,-14.6,14.6c0,8.1,6.6,14.6,14.6,14.6c.8,0,1.6,-.1,2.4,-.2Z" class="gi_337"/>
<path d="M169.1,121.6c.8,0,1.4,.6,1.4,1.4c0,.8,-.6,1.5,-1.4,1.5c-.8,0,-1.4,-.7,-1.4,-1.5c0,-.8,.6,-1.4,1.4,-1.4Z" class="gj_337"/>
<path d="M169.1,124.9c-1,0,-1.9,-.8,-1.9,-1.9c0,-1,.9,-1.9,1.9,-1.9c1,0,1.9,.9,1.9,1.9c0,1.1,-.9,1.9,-1.9,1.9m0,-2.9c-.5,0,-1,.5,-1,1c0,.6,.5,1,1,1c.5,0,1,-.4,1,-1c0,-.5,-.5,-1,-1,-1Z" class="gi_337"/>
<path d="M176.1,121.6c.8,0,1.5,.6,1.5,1.4c0,.8,-.7,1.5,-1.5,1.5c-.8,0,-1.4,-.7,-1.4,-1.5c0,-.8,.6,-1.4,1.4,-1.4Z" class="gj_337"/>
<path d="M176.1,124.9c-1,0,-1.9,-.8,-1.9,-1.9c0,-1,.9,-1.9,1.9,-1.9c1.1,0,1.9,.9,1.9,1.9c0,1.1,-.8,1.9,-1.9,1.9m0,-2.9c-.5,0,-1,.5,-1,1c0,.6,.5,1,1,1c.6,0,1,-.4,1,-1c0,-.5,-.4,-1,-1,-1Z" class="gi_337"/>
<path d="M183.1,121.6c.8,0,1.5,.6,1.5,1.4c0,.8,-.7,1.5,-1.5,1.5c-.8,0,-1.4,-.7,-1.4,-1.5c0,-.8,.6,-1.4,1.4,-1.4Z" class="gj_337"/>
<path d="M183.1,124.9c-1,0,-1.9,-.8,-1.9,-1.9c0,-1,.9,-1.9,1.9,-1.9c1.1,0,1.9,.9,1.9,1.9c0,1.1,-.8,1.9,-1.9,1.9m0,-2.9c-.5,0,-1,.5,-1,1c0,.6,.5,1,1,1c.6,0,1,-.4,1,-1c0,-.5,-.4,-1,-1,-1Z" class="gi_337"/>
<path d="M185.1,136.3c0,-9.8,7.8,-17.7,17.6,-17.7c9.7,0,17.6,7.9,17.6,17.7c0,9.7,-7.9,17.6,-17.6,17.6c-1,0,-1.9,-.1,-2.9,-.3l-5.2,6.1v-7.8c-5.7,-2.9,-9.5,-8.8,-9.5,-15.6Z" class="gk_337"/>
<path d="M194.6,160.2q-.1,0,-.2,0c-.2,-.1,-.3,-.3,-.3,-.5v-7.5c-5.9,-3.2,-9.5,-9.2,-9.5,-15.9c0,-10,8.1,-18.1,18.1,-18.1c9.9,0,18,8.1,18,18.1c0,9.9,-8.1,18,-18,18c-.9,0,-1.8,0,-2.7,-.2l-5.1,5.9c-.1,.1,-.2,.2,-.3,.2m8.1,-41.1c-9.5,0,-17.2,7.7,-17.2,17.2c0,6.4,3.6,12.2,9.3,15.2c.1,.1,.2,.2,.2,.4v6.6l4.5,-5.2c.1,-.1,.3,-.1,.4,-.1c1,.1,1.9,.2,2.8,.2c9.4,0,17.1,-7.7,17.1,-17.1c0,-9.5,-7.7,-17.2,-17.1,-17.2Z" class="gi_337"/>
<path d="M210.9,135.8c.9,0,1.6,.7,1.6,1.6c0,1,-.7,1.7,-1.6,1.7c-1,0,-1.7,-.7,-1.7,-1.7c0,-.9,.7,-1.6,1.7,-1.6Z" class="g1_337"/>
<path d="M210.9,139.6c-1.2,0,-2.2,-1,-2.2,-2.2c0,-1.1,1,-2.1,2.2,-2.1c1.1,0,2.1,1,2.1,2.1c0,1.2,-1,2.2,-2.1,2.2m0,-3.4c-.7,0,-1.3,.6,-1.3,1.2c0,.7,.6,1.3,1.3,1.3c.6,0,1.2,-.6,1.2,-1.3c0,-.6,-.6,-1.2,-1.2,-1.2Z" class="gi_337"/>
<path d="M202.7,135.8c.9,0,1.6,.7,1.6,1.6c0,1,-.7,1.7,-1.6,1.7c-1,0,-1.7,-.7,-1.7,-1.7c0,-.9,.7,-1.6,1.7,-1.6Z" class="g1_337"/>
<path d="M202.7,139.6c-1.2,0,-2.2,-1,-2.2,-2.2c0,-1.1,1,-2.1,2.2,-2.1c1.1,0,2.1,1,2.1,2.1c0,1.2,-1,2.2,-2.1,2.2m0,-3.4c-.7,0,-1.3,.6,-1.3,1.2c0,.7,.6,1.3,1.3,1.3c.6,0,1.2,-.6,1.2,-1.3c0,-.6,-.6,-1.2,-1.2,-1.2Z" class="gi_337"/>
<path d="M194.5,135.8c.9,0,1.6,.7,1.6,1.6c0,1,-.7,1.7,-1.6,1.7c-1,0,-1.7,-.7,-1.7,-1.7c0,-.9,.7,-1.6,1.7,-1.6Z" class="g1_337"/>
<path d="M194.5,139.6c-1.2,0,-2.2,-1,-2.2,-2.2c0,-1.1,1,-2.1,2.2,-2.1c1.1,0,2.1,1,2.1,2.1c0,1.2,-1,2.2,-2.1,2.2m0,-3.4c-.7,0,-1.2,.6,-1.2,1.2c0,.7,.5,1.3,1.2,1.3c.6,0,1.2,-.6,1.2,-1.3c0,-.6,-.6,-1.2,-1.2,-1.2Z" class="gi_337"/>
<path d="M32.1,45.1H9.2m958.3,0h22.9M32.1,1331.3H9.2m958.3,0h22.9M45.1,32.1V9.2m0,1335.1v22.9M954.5,32.1V9.2m0,1335.1v22.9" class="gl_337"/>
<path d="M32.1,45.1H9.2m958.3,0h22.9M32.1,1331.3H9.2m958.3,0h22.9M45.1,32.1V9.2m0,1335.1v22.9M954.5,32.1V9.2m0,1335.1v22.9" class="gm_337"/>
<path d="M27.5,32.1H0m972.1,0h27.5M27.5,1344.3H0m972.1,0h27.5M32.1,27.5V0m0,1348.9v27.5M967.5,27.5V0m0,1348.9v27.5" class="gl_337"/>
<path d="M27.5,32.1H0m972.1,0h27.5M27.5,1344.3H0m972.1,0h27.5M32.1,27.5V0m0,1348.9v27.5M967.5,27.5V0m0,1348.9v27.5" class="gm_337"/>
</svg>