<?xml version="1.0" encoding="UTF-8" standalone="no"?>
<!DOCTYPE svg PUBLIC "-//W3C//DTD SVG 1.1//EN"
"http://www.w3.org/Graphics/SVG/1.1/DTD/svg11.dtd">
<svg viewBox="0 0 999 1376" version="1.1" xmlns="http://www.w3.org/2000/svg" xmlns:xlink="http://www.w3.org/1999/xlink">
<defs>
<clipPath id="c0_72"><path d="M32.1,1344.3V32.1H967.5V1344.3Z"/></clipPath>
<clipPath id="c1_72"><path d="M176.3,469.7l-6.5,-2.1L153.4,453.7V396.6h72v73.1Z"/></clipPath>
<clipPath id="c2_72"><path d="M176.2,884.3l-6.5,-2.1L153.3,868.3V811.2h72v73.1Z"/></clipPath>
<clipPath id="c3_72"><path d="M178.4,137.2c.1,-1.3,.7,-2.5,1.6,-3.4c1,-1,2.4,-1.6,3.9,-1.6h19.2v5Z"/></clipPath>
<clipPath id="c4_72"><path d="M177.9,137.7v-6h25.7v6Z"/></clipPath>
<style type="text/css"><![CDATA[
.g0_72{
fill: #FEFCF4;
}
.g1_72{
fill: #FFF;
}
.g2_72{
fill: none;
stroke: #6381B7;
stroke-width: 0.763;
}
.g3_72{
fill: #F0E8F3;
}
.g4_72{
fill: none;
stroke: #231F20;
stroke-width: 0.305;
stroke-miterlimit: 10;
}
.g5_72{
fill: #DAF0F6;
}
.g6_72{
fill: #6381B7;
}
.g7_72{
fill: none;
stroke: #6381B7;
stroke-width: 0.381;
stroke-dasharray: 2,1;
}
.g8_72{
fill: none;
stroke: #6381B7;
stroke-width: 0.381;
}
.g9_72{
fill: #FCE8B0;
}
.ga_72{
fill: none;
stroke: #231F20;
stroke-width: 0.458;
stroke-miterlimit: 10;
}
.gb_72{
fill: #25408F;
}
.gc_72{
fill: none;
stroke: #231F20;
stroke-width: 1.527;
}
.gd_72{
fill: #39B4D1;
stroke: #2D2A4A;
stroke-width: 1.038;
stroke-linecap: round;
stroke-linejoin: round;
}
.ge_72{
fill: #2D2A4A;
}
.gf_72{
fill: none;
stroke: #2D2A4A;
stroke-width: 1.038;
stroke-linecap: round;
stroke-linejoin: round;
}
.gg_72{
fill: #DEDAD3;
}
.gh_72{
fill: #29263F;
}
.gi_72{
fill: #E15F46;
stroke: #2D2A4A;
stroke-width: 1.038;
stroke-linecap: round;
stroke-linejoin: round;
}
.gj_72{
fill: #F0F5FA;
}
.gk_72{
fill: none;
stroke: #7CA7D8;
stroke-width: 1.527;
stroke-linecap: round;
stroke-linejoin: round;
stroke-dasharray: 0,5;
}
.gl_72{
fill: none;
stroke: #7CA7D8;
stroke-width: 1.527;
stroke-linecap: round;
stroke-linejoin: round;
}
.gm_72{
fill: #7CA7D8;
}
.gn_72{
fill: #BFD62F;
}
.go_72{
fill: #3D3B39;
}
.gp_72{
fill: #F5CA58;
}
.gq_72{
fill: none;
stroke: #FFF;
stroke-width: 1.909;
stroke-miterlimit: 10;
}
.gr_72{
fill: none;
stroke: #000;
stroke-width: 0.381;
stroke-miterlimit: 10;
}
]]></style>
</defs>
<path clip-path="url(#c0_72)" d="M954.5,1344.3H1877V32.1H954.5V1344.3Z" class="g0_72"/>
<path d="M144,486.4c0,0,-13,0,-13,13V732.5c0,0,0,13,13,13H833.7c0,0,13,0,13,-13V499.4c0,0,0,-13,-13,-13Z" class="g1_72"/>
<path d="M144,486.4c0,0,-13,0,-13,13V732.5c0,0,0,13,13,13H833.7c0,0,13,0,13,-13V499.4c0,0,0,-13,-13,-13H144Z" class="g2_72"/>
<path d="M183.7,522.8c0,0,-4.3,0,-4.3,4.3v56.3c0,0,0,4.4,4.3,4.4H781.4c0,0,4.3,0,4.3,-4.4V527.1c0,0,0,-4.3,-4.3,-4.3Z" class="g3_72"/>
<path d="M315.4,574.3H507.9" class="g4_72"/>
<path d="M182.5,638.4c0,0,-4.3,0,-4.3,4.4v56.3c0,0,0,4.3,4.3,4.3H780.1c0,0,4.4,0,4.4,-4.3V642.8c0,0,0,-4.4,-4.4,-4.4Z" class="g3_72"/>
<path d="M287.8,689.9H480.3" class="g4_72"/>
<path d="M149.4,168.5c0,0,-17.3,0,-17.3,17.3V357.6c0,0,0,17.4,17.3,17.4H829.3c0,0,17.3,0,17.3,-17.4V185.8c0,0,0,-17.3,-17.3,-17.3Z" class="g5_72"/>
<path d="M726.4,759.7c0,0,-4.4,0,-4.4,4.4v10.8c0,0,0,4.3,4.4,4.3h30.3c0,0,4.3,0,4.3,-4.3V764.1c0,0,0,-4.4,-4.3,-4.4Z" class="g6_72"/>
<path d="M713.2,752.3v34.8m1.3,1H846.1m1,-1.4V751.9m-1.4,-1H714.1" class="g7_72"/>
<path d="M713.2,787.5v.6h.6m132.7,0h.6v-.6m0,-36v-.6h-.6m-132.7,0h-.6v.6" class="g8_72"/>
<path d="M208.9,398.7c0,0,-13,0,-13,13v47.7c0,0,0,13,13,13H833.3c0,0,13,0,13,-13V411.7c0,0,0,-13,-13,-13Z" class="g9_72"/>
<image clip-path="url(#c1_72)" preserveAspectRatio="none" x="152" y="395" width="75" height="76" xlink:href="img/1.png"/>
<path d="M203.7,465c0,0,-26.8,11.3,-51.1,-12.8c0,0,15.2,25.3,49.3,24c0,0,24.8,.3,20.3,-10.1c0,0,1.2,-4.5,-18.5,-1.1Z" class="g9_72"/>
<path d="M145.1,799c0,0,-13,0,-13,13v199.3c0,0,0,13,13,13H832.9c0,0,13,0,13,-13V812c0,0,0,-13,-13,-13Z" class="g0_72"/>
<path d="M145.1,799c0,0,-13,0,-13,13v199.3c0,0,0,13,13,13H832.9c0,0,13,0,13,-13V812c0,0,0,-13,-13,-13H145.1Z" class="g2_72"/>
<path d="M314.4,947h164m143.9,0H781.8m-467.4,57.6h164m130.5,0H781.7" class="ga_72"/>
<path d="M475.1,1039.9c0,0,-4.4,0,-4.4,4.3V1055c0,0,0,4.4,4.4,4.4h30.3c0,0,4.3,0,4.3,-4.4v-10.8c0,0,0,-4.3,-4.3,-4.3Z" class="g6_72"/>
<path d="M461.9,1032.4v34.8m1.3,1H845.7m1,-1.4V1032m-1.4,-1H462.8" class="g7_72"/>
<path d="M461.9,1067.6v.6h.6m383.6,0h.6v-.6m0,-36v-.6h-.6m-383.6,0h-.6v.6" class="g8_72"/>
<path d="M208.8,839.3c0,0,-13,0,-13,13V874c0,0,0,13,13,13h602c0,0,13,0,13,-13V852.3c0,0,0,-13,-13,-13Z" class="g9_72"/>
<image clip-path="url(#c2_72)" preserveAspectRatio="none" x="152" y="810" width="75" height="76" xlink:href="img/2.png"/>
<path d="M203.6,879.6c0,0,-26.9,11.3,-51.1,-12.8c0,0,15.2,25.4,49.3,24c0,0,24.7,.4,20.2,-10.1c0,0,1.3,-4.5,-18.4,-1.1Z" class="g9_72"/>
<path d="M131.7,109.5v39l11.7,10.2V136.5Z" class="gb_72"/>
<path d="M131.7,109.5v39H829.5c0,0,16.8,0,16.8,-16.8v-5.4c0,0,0,-16.8,-16.8,-16.8Z" class="g6_72"/>
<path d="M768.8,131c0,0,-.5,-10,8.6,-9.4c0,0,6.7,-.3,6.6,9.5m-15.3,-1.5v6.5c0,0,-3.3,.3,-3.9,-3c0,0,-.1,-3.8,3.9,-3.5Zm15.4,0v6.5c0,0,3.3,.3,3.9,-3c0,0,.1,-3.8,-3.9,-3.5Z" class="gc_72"/>
<path d="M147.4,140.8h61v-32h-61v32Z" class="gd_72"/>
<path d="M147.4,143.1h61v-2.3h-61v2.3Z" class="gd_72"/>
<path d="M171.8,106.2H152.1v31.5h25.8V112.3c0,-3.4,-2.7,-6.1,-6.1,-6.1Z" class="g1_72"/>
<path d="M171.8,106.2v-.5H152.1c-.1,0,-.3,.1,-.4,.2c-.1,.1,-.1,.2,-.1,.3v31.5c0,.1,0,.3,.1,.4c.1,.1,.3,.1,.4,.1h25.8c.1,0,.2,0,.3,-.1c.1,-.1,.2,-.3,.2,-.4V112.3c0,-3.7,-2.9,-6.6,-6.6,-6.6v1c1.6,0,2.9,.7,3.9,1.7c1,1,1.6,2.3,1.6,3.9v24.9H152.6V106.7h19.2Z" class="ge_72"/>
<path d="M152.1,131.7v6h25.8c0,-3.3,-2.7,-6,-6.1,-6Z" class="g1_72"/>
<path d="M152.1,131.7h-.5v6c0,.1,0,.3,.1,.4c.1,.1,.3,.1,.4,.1h25.8c.1,0,.2,0,.3,-.1c.1,-.1,.2,-.3,.2,-.4c0,-3.6,-3,-6.6,-6.6,-6.6H152.1c-.1,0,-.3,.1,-.4,.2c-.1,.1,-.1,.2,-.1,.4h.5v.5h19.7c1.6,0,2.9,.6,3.9,1.6c1,1,1.6,2.4,1.6,3.9h.6v-.5H152.6v-5.5h-.5v.5Z" class="ge_72"/>
<path d="M155.6,110.9h17.2m-17.2,2.8h17.2m-17.2,2.9h17.2m-17.2,2.9h17.2m-17.2,2.8h17.2m-17.2,2.9h17.2M155.6,128h17.2" class="gf_72"/>
<path d="M171.8,132.2H152.6v5h24.7c-.1,-1.3,-.7,-2.5,-1.6,-3.4c-1,-1,-2.3,-1.6,-3.9,-1.6Z" class="gg_72"/>
<path d="M152.6,132.2h19.2c1.6,0,2.9,.6,3.9,1.6c.9,.9,1.5,2.1,1.6,3.4H152.6Zm19.2,-.5H152.1v6h25.2v-2.5c-.9,-2.1,-3,-3.5,-5.5,-3.5Z" class="gh_72"/>
<path d="M183.9,106.2h19.7v31.5H177.9V112.3c0,-3.4,2.7,-6.1,6,-6.1Z" class="g1_72"/>
<path d="M183.9,106.2v.5h19.2v30.5H178.4V112.3c0,-1.6,.6,-2.9,1.6,-3.9c1,-1,2.4,-1.7,3.9,-1.7v-1c-3.6,0,-6.6,2.9,-6.6,6.6v25.4c0,.1,.1,.3,.2,.4c.1,.1,.2,.1,.4,.1h25.7c.2,0,.3,0,.4,-.1c.1,-.1,.1,-.3,.1,-.4V106.2c0,-.1,0,-.2,-.1,-.3c-.1,-.1,-.2,-.2,-.4,-.2H183.9Z" class="ge_72"/>
<path d="M203.6,131.7v6H177.9c0,-3.3,2.7,-6,6,-6Z" class="g1_72"/>
<path d="M203.6,131.7h-.5v5.5H177.9v.5h.5c0,-1.5,.6,-2.9,1.6,-3.9c1,-1,2.4,-1.6,3.9,-1.6h19.7v-.5h-.5h.5v-.6H183.9c-3.6,0,-6.6,3,-6.6,6.6c0,.1,.1,.3,.2,.4c.1,.1,.2,.1,.4,.1h25.7c.2,0,.3,0,.4,-.1c.1,-.1,.1,-.3,.1,-.4v-6c0,-.2,0,-.3,-.1,-.4c-.1,-.1,-.2,-.2,-.4,-.2Z" class="ge_72"/>
<path d="M200.1,110.9H182.9m17.2,2.8H182.9m17.2,2.9H182.9m17.2,2.9H182.9m17.2,2.8H182.9m17.2,2.9H182.9m17.2,2.8H182.9" class="gf_72"/>
<path clip-path="url(#c3_72)" d="M178.4,137.2h24.7v-5H178.4v5Z" class="gg_72"/>
<path clip-path="url(#c4_72)" d="M178.4,137.2c.1,-1.3,.7,-2.5,1.6,-3.4c1,-1,2.4,-1.6,3.9,-1.6h19.2v5Zm25.2,-5.5H183.9c-3.3,0,-6,2.7,-6,6h25.7v-6h-.5h.5Z" class="gh_72"/>
<path d="M177.9,108.8v34.3" class="gf_72"/>
<path d="M195.5,145.5h3.3V134.7h-3.3v10.8Z" class="gi_72"/>
<path d="M132.5,1242.8h713V1119.9h-713v122.9Z" class="gj_72"/>
<path d="M132.5,1124.4v116.1m4.5,2.3H843.2m2.3,-4.6V1122.1m-4.6,-2.2H134.7" class="gk_72"/>
<path d="M132.5,1242.8v0m713,0v0m0,-122.9v0m-713,0v0" class="gl_72"/>
<path d="M131.7,1123.1v-28.6c0,0,0,-8.7,8.6,-8.7H837.6c0,0,8.7,0,8.7,8.7v29.2Z" class="gm_72"/>
<path d="M173.8,1089.9c3.4,0,6.1,-2.7,6.1,-6.1c0,-3.4,-2.7,-6.1,-6.1,-6.1c-3.3,0,-6,2.7,-6,6.1c0,3.4,2.7,6.1,6,6.1Z" class="gn_72"/>
<path d="M173.8,1091.8c4.5,0,8.1,-3.6,8.1,-8c0,-4.4,-3.6,-8,-8.1,-8c-4.4,0,-8,3.6,-8,8c0,4.4,3.6,8,8,8m0,-14.1c3.4,0,6.1,2.7,6.1,6.1c0,3.4,-2.7,6.1,-6.1,6.1c-3.3,0,-6,-2.7,-6,-6.1c0,-3.4,2.7,-6.1,6,-6.1Z" class="go_72"/>
<path d="M159.2,1105.9h29.3v-3.8c0,-4.4,-3.6,-7.9,-8,-7.9H167.2c-4.4,0,-8,3.5,-8,7.9Z" class="gn_72"/>
<path d="M150.9,1111.3h45.9v-3.5H150.9v3.5Z" class="g1_72"/>
<path d="M197.7,1105.9h-2.6v-11.5c0,-.3,-.1,-.5,-.3,-.7l-2.6,-2.6c.3,-.5,.5,-1.1,.5,-1.8c0,-2,-1.6,-3.6,-3.6,-3.6c-2,0,-3.7,1.6,-3.7,3.6c0,2,1.7,3.6,3.7,3.6c.6,0,1.2,-.1,1.7,-.4l2.4,2.3v11.1h-2.8v-3.8c0,-5.4,-4.4,-9.8,-9.9,-9.8H167.2c-5.5,0,-9.9,4.4,-9.9,9.8v3.8H150c-.6,0,-1,.4,-1,1v5.3c0,.6,.4,1,1,1h2.6v11.3c0,.5,.5,.9,1,.9h40.5c.5,0,1,-.4,1,-.9v-11.3h2.6c.6,0,1,-.4,1,-1v-5.3c0,-.6,-.4,-1,-1,-1M189.1,1091c-1,0,-1.7,-.7,-1.7,-1.7c0,-.9,.7,-1.6,1.7,-1.6c.9,0,1.6,.7,1.6,1.6c0,1,-.7,1.7,-1.6,1.7m7.7,20.3H150.9v-3.5h45.9Zm-3.7,12.2H154.6v-10.3h38.5v10.3Zm-25.9,-29.3h13.3c4.4,0,8,3.5,8,7.9v3.8H159.2v-3.8c0,-4.4,3.6,-7.9,8,-7.9Z" class="go_72"/>
<path d="M154.6,1123.5h38.5v-10.3H154.6v10.3Zm2.8,-7.5c0,-.3,.2,-.5,.4,-.5h32.1c.2,0,.4,.2,.4,.5v4.7c0,.3,-.2,.5,-.4,.5H157.8c-.2,0,-.4,-.2,-.4,-.5Z" class="g1_72"/>
<path d="M158.3,1120.2h31.1v-3.7H158.3v3.7Z" class="gp_72"/>
<path d="M157.8,1121.2h32.1c.2,0,.4,-.2,.4,-.5V1116c0,-.3,-.2,-.5,-.4,-.5H157.8c-.2,0,-.4,.2,-.4,.5v4.7c0,.3,.2,.5,.4,.5m.5,-4.7h31.1v3.7H158.3Z" class="go_72"/>
<path d="M190.7,1089.3c0,-.9,-.7,-1.6,-1.6,-1.6c-1,0,-1.7,.7,-1.7,1.6c0,1,.7,1.7,1.7,1.7c.9,0,1.6,-.7,1.6,-1.7Z" class="g1_72"/>
<path d="M32.1,45.1H9.2m958.3,0h22.9M32.1,1331.3H9.2m958.3,0h22.9M45.1,32.1V9.2m0,1335.1v22.9M954.5,32.1V9.2m0,1335.1v22.9" class="gq_72"/>
<path d="M32.1,45.1H9.2m958.3,0h22.9M32.1,1331.3H9.2m958.3,0h22.9M45.1,32.1V9.2m0,1335.1v22.9M954.5,32.1V9.2m0,1335.1v22.9" class="gr_72"/>
<path d="M27.5,32.1H0m972.1,0h27.5M27.5,1344.3H0m972.1,0h27.5M32.1,27.5V0m0,1348.9v27.5M967.5,27.5V0m0,1348.9v27.5" class="gq_72"/>
<path d="M27.5,32.1H0m972.1,0h27.5M27.5,1344.3H0m972.1,0h27.5M32.1,27.5V0m0,1348.9v27.5M967.5,27.5V0m0,1348.9v27.5" class="gr_72"/>
</svg>