<?xml version="1.0" encoding="UTF-8" standalone="no"?>
<!DOCTYPE svg PUBLIC "-//W3C//DTD SVG 1.1//EN"
"http://www.w3.org/Graphics/SVG/1.1/DTD/svg11.dtd">
<svg viewBox="0 0 999 1376" version="1.1" xmlns="http://www.w3.org/2000/svg" xmlns:xlink="http://www.w3.org/1999/xlink">
<defs>
<clipPath id="c0_384"><path d="M32.1,1344.3V32.1H967.5V1344.3Z"/></clipPath>
<style type="text/css"><![CDATA[
.g0_384{
fill: #D7E6A3;
}
.g1_384{
fill: #2E6E51;
}
.g2_384{
fill: #D2D3D5;
}
.g3_384{
fill: #F8EAD7;
}
.g4_384{
fill: #F3DABB;
}
.g5_384{
fill: none;
stroke: #FFF;
stroke-width: 1.451;
stroke-miterlimit: 10;
}
.g6_384{
fill: none;
stroke: #FFF;
stroke-width: 1.909;
stroke-miterlimit: 10;
}
.g7_384{
fill: none;
stroke: #000;
stroke-width: 0.381;
stroke-miterlimit: 10;
}
]]></style>
</defs>
<path clip-path="url(#c0_384)" d="M296.3,32.1c0,0,-13,0,-13,13v81c0,0,0,12.9,13,12.9H1764.4c0,0,13,0,13,-12.9v-81c0,0,0,-13,-13,-13Z" class="g0_384"/>
<path d="M140.3,32.3c0,0,-8.6,0,-8.6,8.7v89.4c0,0,0,8.6,8.6,8.6H341.7c0,0,8.7,0,8.7,-8.6V41c0,0,0,-8.7,-8.7,-8.7Z" class="g1_384"/>
<path d="M772.3,194.5H874v34.6H772.3V194.5Zm-101.8,0H772.3v34.6H670.5V194.5Zm-101.8,0H670.5v34.6H568.7V194.5Zm-101.7,0H568.7v34.6H467V194.5Zm-101.8,0H467v34.6H365.2V194.5Zm-147.3,0H365.2v34.6H217.9V194.5Zm-64.9,0h64.9v34.6H153V194.5Z" class="g2_384"/>
<path d="M772.3,870.1H874v56.3H772.3V870.1Zm-101.8,0H772.3v56.3H670.5V870.1Zm-101.8,0H670.5v56.3H568.7V870.1Zm-101.7,0H568.7v56.3H467V870.1Zm-101.8,0H467v56.3H365.2V870.1Zm-212.2,0h64.9v56.3H153V870.1Zm619.3,-78H874v78H772.3v-78Zm-101.8,0H772.3v78H670.5v-78Zm-101.8,0H670.5v78H568.7v-78Zm-101.7,0H568.7v78H467v-78Zm-101.8,0H467v78H365.2v-78Zm-212.2,0h64.9v78H153v-78ZM772.3,735.8H874v56.3H772.3V735.8Zm-101.8,0H772.3v56.3H670.5V735.8Zm-101.8,0H670.5v56.3H568.7V735.8Zm-101.7,0H568.7v56.3H467V735.8Zm-101.8,0H467v56.3H365.2V735.8Zm-212.2,0h64.9v56.3H153V735.8ZM772.3,679.5H874v56.3H772.3V679.5Zm-101.8,0H772.3v56.3H670.5V679.5Zm-101.8,0H670.5v56.3H568.7V679.5Zm-101.7,0H568.7v56.3H467V679.5Zm-101.8,0H467v56.3H365.2V679.5Zm-212.2,0h64.9v56.3H153V679.5ZM772.3,623.2H874v56.3H772.3V623.2Zm-101.8,0H772.3v56.3H670.5V623.2Zm-101.8,0H670.5v56.3H568.7V623.2Zm-101.7,0H568.7v56.3H467V623.2Zm-101.8,0H467v56.3H365.2V623.2Zm-212.2,0h64.9v56.3H153V623.2ZM772.3,566.9H874v56.3H772.3V566.9Zm-101.8,0H772.3v56.3H670.5V566.9Zm-101.8,0H670.5v56.3H568.7V566.9Zm-101.7,0H568.7v56.3H467V566.9Zm-101.8,0H467v56.3H365.2V566.9Zm-212.2,0h64.9v56.3H153V566.9ZM772.3,510.6H874v56.3H772.3V510.6Zm-101.8,0H772.3v56.3H670.5V510.6Zm-101.8,0H670.5v56.3H568.7V510.6Zm-101.7,0H568.7v56.3H467V510.6Zm-101.8,0H467v56.3H365.2V510.6Zm-212.2,0h64.9v56.3H153V510.6ZM772.3,454.3H874v56.3H772.3V454.3Zm-101.8,0H772.3v56.3H670.5V454.3Zm-101.8,0H670.5v56.3H568.7V454.3Zm-101.7,0H568.7v56.3H467V454.3Zm-101.8,0H467v56.3H365.2V454.3Zm-212.2,0h64.9v56.3H153V454.3ZM772.3,398.1H874v56.2H772.3V398.1Zm-101.8,0H772.3v56.2H670.5V398.1Zm-101.8,0H670.5v56.2H568.7V398.1Zm-101.7,0H568.7v56.2H467V398.1Zm-101.8,0H467v56.2H365.2V398.1Zm-212.2,0h64.9v56.2H153V398.1ZM772.3,341.7H874V398H772.3V341.7Zm-101.8,0H772.3V398H670.5V341.7Zm-101.8,0H670.5V398H568.7V341.7Zm-101.7,0H568.7V398H467V341.7Zm-101.8,0H467V398H365.2V341.7Zm-212.2,0h64.9V398H153V341.7ZM772.3,285.4H874v56.3H772.3V285.4Zm-101.8,0H772.3v56.3H670.5V285.4Zm-101.8,0H670.5v56.3H568.7V285.4Zm-101.7,0H568.7v56.3H467V285.4Zm-101.8,0H467v56.3H365.2V285.4Zm-212.2,0h64.9v56.3H153V285.4ZM772.3,229.1H874v56.3H772.3V229.1Zm-101.8,0H772.3v56.3H670.5V229.1Zm-101.8,0H670.5v56.3H568.7V229.1Zm-101.7,0H568.7v56.3H467V229.1Zm-101.8,0H467v56.3H365.2V229.1Zm-212.2,0h64.9v56.3H153V229.1Z" class="g3_384"/>
<path d="M217.9,870.1H365.2v56.3H217.9V870.1Zm0,-78H365.2v78H217.9v-78Zm0,-56.3H365.2v56.3H217.9V735.8Zm0,-56.3H365.2v56.3H217.9V679.5Zm0,-56.3H365.2v56.3H217.9V623.2Zm0,-56.3H365.2v56.3H217.9V566.9Zm0,-56.3H365.2v56.3H217.9V510.6Zm0,-56.3H365.2v56.3H217.9V454.3Zm0,-56.2H365.2v56.2H217.9V398.1Zm0,-56.4H365.2V398H217.9V341.7Zm0,-56.3H365.2v56.3H217.9V285.4Zm0,-56.3H365.2v56.3H217.9V229.1Z" class="g4_384"/>
<path d="M152.3,194.5h65.6M153,228.4V195.2m64.9,-.7H365.2M217.9,228.4V195.2m147.3,-.7H467M365.2,228.4V195.2M467,194.5H568.7M467,228.4V195.2m101.7,-.7H670.5M568.7,228.4V195.2m101.8,-.7H772.3M670.5,228.4V195.2m101.8,-.7H874.8M772.3,228.4V195.2M874,228.4V195.2M152.3,229.1h65.6M153,284.7V229.9m64.9,-.8H365.2M217.9,284.7V229.9m147.3,-.8H467M365.2,284.7V229.9M467,229.1H568.7M467,284.7V229.9m101.7,-.8H670.5M568.7,284.7V229.9m101.8,-.8H772.3M670.5,284.7V229.9m101.8,-.8H874.8M772.3,284.7V229.9M874,284.7V229.9M152.3,285.4h65.6M153,341V286.2m64.9,-.8H365.2M217.9,341V286.2m147.3,-.8H467M365.2,341V286.2M467,285.4H568.7M467,341V286.2m101.7,-.8H670.5M568.7,341V286.2m101.8,-.8H772.3M670.5,341V286.2m101.8,-.8H874.8M772.3,341V286.2M874,341V286.2M152.3,341.7h65.6M153,397.3V342.5m64.9,-.8H365.2M217.9,397.3V342.5m147.3,-.8H467M365.2,397.3V342.5M467,341.7H568.7M467,397.3V342.5m101.7,-.8H670.5M568.7,397.3V342.5m101.8,-.8H772.3M670.5,397.3V342.5m101.8,-.8H874.8M772.3,397.3V342.5M874,397.3V342.5M152.3,398.1h65.6M153,453.6V398.8m64.9,-.7H365.2M217.9,453.6V398.8m147.3,-.7H467M365.2,453.6V398.8M467,398.1H568.7M467,453.6V398.8m101.7,-.7H670.5M568.7,453.6V398.8m101.8,-.7H772.3M670.5,453.6V398.8m101.8,-.7H874.8M772.3,453.6V398.8M874,453.6V398.8M152.3,454.3h65.6M153,509.9V455.1m64.9,-.8H365.2M217.9,509.9V455.1m147.3,-.8H467M365.2,509.9V455.1M467,454.3H568.7M467,509.9V455.1m101.7,-.8H670.5M568.7,509.9V455.1m101.8,-.8H772.3M670.5,509.9V455.1m101.8,-.8H874.8M772.3,509.9V455.1M874,509.9V455.1M152.3,510.6h65.6M153,566.2V511.4m64.9,-.8H365.2M217.9,566.2V511.4m147.3,-.8H467M365.2,566.2V511.4M467,510.6H568.7M467,566.2V511.4m101.7,-.8H670.5M568.7,566.2V511.4m101.8,-.8H772.3M670.5,566.2V511.4m101.8,-.8H874.8M772.3,566.2V511.4M874,566.2V511.4M152.3,566.9h65.6M153,622.5V567.7m64.9,-.8H365.2M217.9,622.5V567.7m147.3,-.8H467M365.2,622.5V567.7M467,566.9H568.7M467,622.5V567.7m101.7,-.8H670.5M568.7,622.5V567.7m101.8,-.8H772.3M670.5,622.5V567.7m101.8,-.8H874.8M772.3,622.5V567.7M874,622.5V567.7M152.3,623.2h65.6M153,678.8V624m64.9,-.8H365.2M217.9,678.8V624m147.3,-.8H467M365.2,678.8V624M467,623.2H568.7M467,678.8V624m101.7,-.8H670.5M568.7,678.8V624m101.8,-.8H772.3M670.5,678.8V624m101.8,-.8H874.8M772.3,678.8V624M874,678.8V624M152.3,679.5h65.6M153,735.1V680.3m64.9,-.8H365.2M217.9,735.1V680.3m147.3,-.8H467M365.2,735.1V680.3M467,679.5H568.7M467,735.1V680.3m101.7,-.8H670.5M568.7,735.1V680.3m101.8,-.8H772.3M670.5,735.1V680.3m101.8,-.8H874.8M772.3,735.1V680.3M874,735.1V680.3M152.3,735.8h65.6M153,791.4V736.6m64.9,-.8H365.2M217.9,791.4V736.6m147.3,-.8H467M365.2,791.4V736.6M467,735.8H568.7M467,791.4V736.6m101.7,-.8H670.5M568.7,791.4V736.6m101.8,-.8H772.3M670.5,791.4V736.6m101.8,-.8H874.8M772.3,791.4V736.6M874,791.4V736.6M152.3,792.1h65.6M153,869.4V792.9m64.9,-.8H365.2M217.9,869.4V792.9m147.3,-.8H467M365.2,869.4V792.9M467,792.1H568.7M467,869.4V792.9m101.7,-.8H670.5M568.7,869.4V792.9m101.8,-.8H772.3M670.5,869.4V792.9m101.8,-.8H874.8M772.3,869.4V792.9M874,869.4V792.9M152.3,870.1h65.6M153,925.7V870.8m64.9,-.7H365.2M217.9,925.7V870.8m147.3,-.7H467M365.2,925.7V870.8M467,870.1H568.7M467,925.7V870.8m101.7,-.7H670.5M568.7,925.7V870.8m101.8,-.7H772.3M670.5,925.7V870.8m101.8,-.7H874.8M772.3,925.7V870.8M874,925.7V870.8M152.3,926.4h65.6m0,0H365.2m0,0H467m0,0H568.7m0,0H670.5m0,0H772.3m0,0H874.8" class="g5_384"/>
<path d="M32.1,45.1H9.2m958.3,0h22.9M32.1,1331.3H9.2m958.3,0h22.9M45.1,32.1V9.2m0,1335.1v22.9M954.5,32.1V9.2m0,1335.1v22.9" class="g6_384"/>
<path d="M32.1,45.1H9.2m958.3,0h22.9M32.1,1331.3H9.2m958.3,0h22.9M45.1,32.1V9.2m0,1335.1v22.9M954.5,32.1V9.2m0,1335.1v22.9" class="g7_384"/>
<path d="M27.5,32.1H0m972.1,0h27.5M27.5,1344.3H0m972.1,0h27.5M32.1,27.5V0m0,1348.9v27.5M967.5,27.5V0m0,1348.9v27.5" class="g6_384"/>
<path d="M27.5,32.1H0m972.1,0h27.5M27.5,1344.3H0m972.1,0h27.5M32.1,27.5V0m0,1348.9v27.5M967.5,27.5V0m0,1348.9v27.5" class="g7_384"/>
</svg>