<?xml version="1.0" encoding="UTF-8" standalone="no"?>
<!DOCTYPE svg PUBLIC "-//W3C//DTD SVG 1.1//EN"
"http://www.w3.org/Graphics/SVG/1.1/DTD/svg11.dtd">
<svg viewBox="0 0 999 1376" version="1.1" xmlns="http://www.w3.org/2000/svg" xmlns:xlink="http://www.w3.org/1999/xlink">
<defs>
<clipPath id="c0_220"><path d="M170.7,252.9V250H811.8v2.9Z"/></clipPath>
<clipPath id="c1_220"><path d="M169.1,829.4v-4.1H810.2v4.1Z"/></clipPath>
<clipPath id="c2_220"><path d="M163.7,822.5V261.9h6.1V822.5Z"/></clipPath>
<clipPath id="c3_220"><path d="M173.5,822.2c-.8,0,-1.5,-.7,-1.5,-1.5V264.8c0,-.8,.7,-1.5,1.5,-1.5H806.6c.8,0,1.5,.7,1.5,1.5V820.7c0,.8,-.7,1.5,-1.5,1.5Z"/></clipPath>
<clipPath id="c4_220"><path d="M169.1,260.4v-4.2H810.2v4.2Z"/></clipPath>
<clipPath id="c5_220"><path d="M810.2,823.9V263.2h6.1V823.9Z"/></clipPath>
<clipPath id="c6_220"><path d="M334.2,334.9V324.7h6.7v10.2Z"/></clipPath>
<clipPath id="c7_220"><path d="M332.3,578.9V568.7H339v10.2Z"/></clipPath>
<clipPath id="c8_220"><path d="M650,348.6V338.5h7.1v10.1Z"/></clipPath>
<clipPath id="c9_220"><path d="M654.3,339V328.8H661V339Z"/></clipPath>
<clipPath id="ca_220"><path d="M654,578.9V568.7h6.7v10.2Z"/></clipPath>
<clipPath id="cb_220"><path d="M160.5,840.5V247.1H819.6V840.5Z"/></clipPath>
<clipPath id="cc_220"><path d="M186.2,572.7V333.5H490.4V572.7Z"/></clipPath>
<clipPath id="cd_220"><path d="M186.2,813.8V574.6H490.4V813.8Z"/></clipPath>
<clipPath id="ce_220"><path d="M498.3,572.7V333.5H802.5V572.7Z"/></clipPath>
<clipPath id="cf_220"><path d="M498.3,813.8V574.6H802.5V813.8Z"/></clipPath>
<clipPath id="cg_220"><path d="M329.3,362.2c-.3,0,-.6,0,-1.2,-.2c-.9,-.4,-1.2,-.8,-1.2,-.8L332.2,348l2.6,1l-5.2,13.2c0,0,-.1,0,-.3,0Z"/></clipPath>
<clipPath id="ch_220"><path d="M337.1,355c-.7,0,-1.3,0,-2,-.1c-.9,-.2,-1.8,-.4,-2.7,-.8c-3,-1.1,-5.2,-3.1,-6.4,-5.3c-.6,-1.2,-.9,-2.5,-.8,-3.8c.2,-2.4,2,-4.3,4.3,-5.1c1.1,-.4,2.3,-.6,3.5,-.6c2.6,0,5.1,.8,7.2,2.2c1.7,1.1,3.1,2.5,3.9,4c.9,1.7,1.1,3.6,.5,5.3c-.2,.5,-.5,1,-.8,1.4c-.7,1,-1.8,1.8,-3.2,2.2c-1,.4,-2.2,.6,-3.5,.6Z"/></clipPath>
<clipPath id="ci_220"><path d="M337.7,350.3c-.9,0,-1.8,-.2,-2.6,-.4c-2.3,-.7,-5.9,-2.9,-5.3,-5.9c1.5,-3.2,3,-6.4,4.5,-9.6c1.2,-2.4,2.3,-4.8,3.4,-7.2c1.9,.8,3.8,1.5,5.7,2.2c1.3,.5,2.6,1,3.8,1.5c-.8,2.5,-1.7,5.1,-2.5,7.7c-1.1,3.4,-2.3,6.9,-3.4,10.3c-.9,1,-2.3,1.4,-3.6,1.4Z"/></clipPath>
<clipPath id="cj_220"><path d="M329.9,344.5v-10H337v10Z"/></clipPath>
<clipPath id="ck_220"><path d="M343.4,338c-1.1,0,-2.1,-.2,-3.2,-.5c-2.8,-.8,-5.5,-2.5,-6.8,-5.2c-.6,-1.1,-.9,-2.3,-.8,-3.4c.2,-2.2,1.8,-3.9,3.9,-4.7c1,-.3,2.1,-.5,3.2,-.5c1.8,0,3.7,.5,5.3,1.3c1.3,.6,2.4,1.4,3.2,2.3v9.3c-.5,.3,-1,.6,-1.6,.8c-1,.4,-2.1,.6,-3.2,.6Z"/></clipPath>
<clipPath id="cl_220"><path d="M327.4,606.2c-.3,0,-.6,-.1,-1.1,-.2c-1,-.4,-1.2,-.9,-1.2,-.9l5.2,-13.2l2.6,1l-5.2,13.3c0,0,-.1,0,-.3,0Z"/></clipPath>
<clipPath id="cm_220"><path d="M335.2,599c-.6,0,-1.3,0,-2,-.2c-.9,-.1,-1.8,-.3,-2.7,-.7c-2.9,-1.1,-5.2,-3.1,-6.4,-5.3c-.6,-1.2,-.9,-2.6,-.8,-3.8c.2,-2.5,2,-4.3,4.3,-5.1c1.1,-.5,2.3,-.7,3.6,-.7c2.5,0,5.1,.9,7.2,2.2c1.7,1.1,3,2.5,3.8,4.1c.9,1.7,1.1,3.6,.5,5.3c-.2,.5,-.5,.9,-.8,1.3c-.7,1,-1.8,1.8,-3.1,2.3c-1.1,.4,-2.3,.6,-3.6,.6Z"/></clipPath>
<clipPath id="cn_220"><path d="M335.8,594.2c-.9,0,-1.8,-.1,-2.5,-.3c-2.4,-.7,-6,-3,-5.4,-5.9c1.5,-3.2,3.1,-6.4,4.6,-9.6c1.1,-2.4,2.2,-4.8,3.3,-7.2c2,.7,3.9,1.5,5.8,2.2c1.2,.5,2.5,1,3.7,1.4c-.8,2.6,-1.6,5.2,-2.5,7.7c-1.1,3.5,-2.3,6.9,-3.4,10.4c-.9,1,-2.2,1.3,-3.6,1.3Z"/></clipPath>
<clipPath id="co_220"><path d="M328,588.5V578.4h7.2v10.1Z"/></clipPath>
<clipPath id="cp_220"><path d="M341.5,581.9c-1,0,-2.1,-.1,-3.2,-.4c-2.8,-.8,-5.5,-2.6,-6.8,-5.2c-.6,-1.1,-.9,-2.3,-.8,-3.5c.2,-2.2,1.9,-3.8,3.9,-4.6c1,-.4,2.1,-.6,3.2,-.6c1.9,0,3.7,.5,5.3,1.3c2.2,1.1,3.8,2.7,4.7,4.4c.2,.3,.3,.6,.4,.8v4.2c-.1,.4,-.3,.7,-.6,1c-.7,1,-1.7,1.7,-2.9,2.1c-.9,.4,-2,.5,-3.2,.5Z"/></clipPath>
<clipPath id="cq_220"><path d="M649.4,366.3c-.3,0,-.7,-.1,-1.2,-.3c-.9,-.3,-1.2,-.8,-1.2,-.8L652.3,352l2.6,1l-5.2,13.3c0,0,-.1,0,-.3,0Z"/></clipPath>
<clipPath id="cr_220"><path d="M657.2,359.1c-.7,0,-1.4,0,-2,-.2c-.9,-.1,-1.8,-.3,-2.7,-.7c-3,-1.1,-5.2,-3.1,-6.4,-5.3c-.6,-1.3,-.9,-2.6,-.8,-3.8c.2,-2.5,2,-4.3,4.2,-5.2c1.2,-.4,2.4,-.6,3.6,-.6c2.6,0,5.1,.9,7.2,2.2c1.7,1.1,3.1,2.5,3.9,4.1c.9,1.7,1.1,3.6,.5,5.3c-.2,.5,-.5,.9,-.8,1.3c-.7,1,-1.8,1.8,-3.2,2.3c-1,.4,-2.3,.6,-3.5,.6Z"/></clipPath>
<clipPath id="cs_220"><path d="M657.8,354.3c-.9,0,-1.8,-.1,-2.6,-.3c-2.3,-.7,-5.9,-3,-5.3,-5.9c1.5,-3.2,3,-6.4,4.5,-9.7c1.2,-2.3,2.3,-4.7,3.4,-7.1c1.9,.7,3.8,1.4,5.7,2.2c1.3,.5,2.6,1,3.8,1.4c-.8,2.6,-1.7,5.2,-2.5,7.7c-1.1,3.5,-2.3,6.9,-3.4,10.4c-.9,1,-2.3,1.3,-3.6,1.3Z"/></clipPath>
<clipPath id="ct_220"><path d="M663.5,342c-1.1,0,-2.1,-.1,-3.2,-.4c-2.8,-.8,-5.5,-2.6,-6.8,-5.2c-.6,-1.1,-.9,-2.3,-.8,-3.5c.2,-2.2,1.8,-3.9,3.9,-4.6c1,-.4,2.1,-.6,3.2,-.6c1.8,0,3.7,.5,5.3,1.3c2.2,1.1,3.8,2.7,4.7,4.4c.9,1.6,1.1,3.3,.5,4.8c-.2,.5,-.4,.9,-.7,1.2c-.7,1,-1.7,1.7,-2.9,2.1c-1,.4,-2.1,.5,-3.2,.5Z"/></clipPath>
<clipPath id="cu_220"><path d="M649.1,606.2c-.3,0,-.7,-.1,-1.2,-.2c-.9,-.4,-1.1,-.9,-1.1,-.9L652,591.9l2.6,1l-5.2,13.3c0,0,-.1,0,-.3,0Z"/></clipPath>
<clipPath id="cv_220"><path d="M656.9,599c-.6,0,-1.3,0,-2,-.2c-.9,-.1,-1.8,-.3,-2.7,-.7c-3,-1.1,-5.2,-3.1,-6.4,-5.3c-.6,-1.2,-.9,-2.6,-.8,-3.8c.2,-2.5,2,-4.3,4.3,-5.1c1.1,-.5,2.3,-.7,3.5,-.7c2.6,0,5.2,.9,7.2,2.2c1.8,1.1,3.1,2.5,3.9,4.1c.9,1.7,1.1,3.6,.5,5.3c-.2,.5,-.5,.9,-.8,1.3c-.7,1,-1.8,1.8,-3.1,2.3c-1.1,.4,-2.3,.6,-3.6,.6Z"/></clipPath>
<clipPath id="cw_220"><path d="M657.5,594.2c-.9,0,-1.8,-.1,-2.5,-.3c-2.4,-.7,-6,-3,-5.4,-5.9c1.5,-3.2,3,-6.4,4.6,-9.6c1.1,-2.4,2.2,-4.8,3.3,-7.2c1.9,.7,3.8,1.5,5.8,2.2c1.2,.5,2.5,1,3.7,1.4c-.8,2.6,-1.6,5.2,-2.5,7.7c-1.1,3.5,-2.3,6.9,-3.4,10.4c-.9,1,-2.2,1.3,-3.6,1.3Z"/></clipPath>
<clipPath id="cx_220"><path d="M649.7,588.5V578.4h7.1v10.1Z"/></clipPath>
<clipPath id="cy_220"><path d="M663.2,581.9c-1,0,-2.1,-.1,-3.2,-.4c-2.8,-.8,-5.5,-2.6,-6.8,-5.2c-.6,-1.1,-.9,-2.3,-.8,-3.5c.2,-2.2,1.9,-3.8,3.9,-4.6c1,-.4,2.1,-.6,3.2,-.6c1.8,0,3.7,.5,5.3,1.3c2.2,1.1,3.8,2.7,4.7,4.4c.9,1.6,1.1,3.3,.5,4.8c-.2,.5,-.4,.9,-.7,1.2c-.7,1,-1.7,1.7,-2.9,2.1c-.9,.4,-2,.5,-3.2,.5Z"/></clipPath>
<clipPath id="cz_220"><path d="M691.1,1161.4v-95.2h95.2v95.2Z"/></clipPath>
<clipPath id="c10_220"><path d="M542.1,1160.9v-95.3h95.2v95.3Z"/></clipPath>
<clipPath id="c11_220"><path d="M393.1,1159.4v-95.2h95.2v95.2Z"/></clipPath>
<clipPath id="c12_220"><path d="M246,1154.1v-73.4h95.5v73.4Z"/></clipPath>
<style type="text/css"><![CDATA[
.g0_220{
fill: #A29A91;
}
.g1_220{
fill: #574B46;
}
.g2_220{
fill: #7A6F6A;
}
.g3_220{
fill: #5F8B75;
}
.g4_220{
fill: #FFF;
}
.g5_220{
fill: #2A4E3C;
}
.g6_220{
fill: #422E43;
}
.g7_220{
fill: none;
stroke: #6381B7;
stroke-width: 0.763;
}
.g8_220{
fill: #D5BFDC;
}
.g9_220{
fill: #A3DCEC;
}
.ga_220{
fill: #FDCFA4;
}
.gb_220{
fill: #DEEBBF;
}
.gc_220{
fill: #F498BE;
}
.gd_220{
fill: #F396C0;
}
.ge_220{
fill: #62CDF1;
}
.gf_220{
fill: #60CDF5;
}
.gg_220{
fill: #FCB841;
}
.gh_220{
fill: #F9A21C;
}
.gi_220{
fill: #6DCBD4;
}
.gj_220{
fill: #93BEDA;
}
.gk_220{
fill: #EFE9CC;
}
.gl_220{
fill: #6381B7;
}
.gm_220{
fill: none;
stroke: #6381B7;
stroke-width: 0.381;
stroke-dasharray: 2,1;
}
.gn_220{
fill: none;
stroke: #6381B7;
stroke-width: 0.381;
}
.go_220{
fill: #25408F;
}
.gp_220{
fill: #F37553;
}
.gq_220{
fill: #363637;
}
.gr_220{
fill: #EAD646;
}
.gs_220{
fill: #506CB4;
}
.gt_220{
fill: #5CC4BE;
}
.gu_220{
fill: none;
stroke: #FFF;
stroke-width: 1.909;
stroke-miterlimit: 10;
}
.gv_220{
fill: none;
stroke: #000;
stroke-width: 0.381;
stroke-miterlimit: 10;
}
]]></style>
</defs>
<path d="M145.1,167c0,0,-13,0,-13,13V1181.5c0,0,0,13,13,13H832.9c0,0,13,0,13,-13V180c0,0,0,-13,-13,-13H145.1Z" class="g7_220"/>
<g clip-path="url(#cb_220)" opacity="0.89">
<path d="M812.3,250.5c-1.7,-1.6,-2.8,-1.7,-3.7,-1.7H171.5c-.9,0,-2,.1,-3.7,1.7l-5.1,4.2c0,.9,2.1,10.6,3,10.6H814.4c.9,0,3,-9.7,3,-10.6Z" class="g0_220"/>
<path d="M163,254.8c.1,1.6,2,9.9,2.7,10.3H814.4c.7,-.5,2.7,-8.7,2.7,-10.3l-5,-4.1c-1.6,-1.6,-2.8,-1.6,-3.5,-1.6H171.5c-.7,0,-1.9,0,-3.5,1.5Zm651.4,10.7H165.7c-1.3,0,-3.2,-10.7,-3.2,-10.8c0,0,0,-.1,.1,-.1l5.1,-4.3c1.6,-1.6,2.8,-1.7,3.8,-1.7H808.6c1,0,2.2,.1,3.8,1.7l5.1,4.3c.1,0,.1,.1,.1,.1c0,.1,-1.9,10.8,-3.2,10.8Z" class="g1_220"/>
<path d="M805.2,812.3c0,.8,-.7,1.5,-1.5,1.5H176.4c-.8,0,-1.5,-.7,-1.5,-1.5v-551c0,-.8,.7,-1.5,1.5,-1.5H803.7c.8,0,1.5,.7,1.5,1.5Z" class="g2_220"/>
<path d="M805.2,818.3c0,.8,-.7,1.4,-1.5,1.4H176.4c-.8,0,-1.5,-.6,-1.5,-1.4v-551c0,-.8,.7,-1.5,1.5,-1.5H803.7c.8,0,1.5,.7,1.5,1.5Zm11.1,-564H163.9c-.9,0,-1.7,.7,-1.7,1.6V829.6c0,.9,.8,1.7,1.7,1.7H816.3c.8,0,1.6,-.8,1.6,-1.7V255.9c0,-.9,-.8,-1.6,-1.6,-1.6m0,0H163.9c-.9,0,-1.7,.7,-1.7,1.6V829.6c0,.9,.8,1.7,1.7,1.7H816.3c.8,0,1.6,-.8,1.6,-1.7V255.9c0,-.9,-.8,-1.6,-1.6,-1.6Z" class="g2_220"/>
<path d="M162.5,829.6c0,.8,.6,1.4,1.4,1.4H816.3c.7,0,1.4,-.6,1.4,-1.4V255.9c0,-.8,-.7,-1.4,-1.4,-1.4H163.9c-.8,0,-1.4,.6,-1.4,1.4Zm653.8,1.9H163.9c-1.1,0,-1.9,-.8,-1.9,-1.9V255.9c0,-1,.8,-1.8,1.9,-1.8H816.3c1,0,1.8,.8,1.8,1.8V829.6c0,1.1,-.8,1.9,-1.8,1.9Z" class="g1_220"/>
<path d="M817.5,830.9c0,0,-.1,-.1,-.1,-.1L805.5,820.3c-.1,-.1,-.1,-.2,0,-.3c.1,-.1,.2,-.1,.3,0l11.9,10.5c.1,0,.1,.2,0,.3c0,0,-.1,.1,-.2,.1Z" class="g1_220"/>
<path d="M174.7,266c0,0,-.1,0,-.1,0l-12,-11.1c-.1,-.1,-.1,-.2,0,-.3c.1,-.1,.2,-.1,.3,0l12,11c.1,.1,.1,.2,0,.3q-.1,.1,-.2,.1Z" class="g1_220"/>
<path d="M162.6,830.9c0,0,-.1,-.1,-.2,-.1c0,-.1,0,-.3,.1,-.3L174.4,820c.1,-.1,.2,0,.3,.1c.1,.1,.1,.2,0,.3l-11.9,10.4c-.1,0,-.1,.1,-.2,.1Z" class="g1_220"/>
<path d="M803.9,267.3c-.1,0,-.2,0,-.2,-.1c-.1,-.1,-.1,-.2,0,-.3l13.7,-12.1c.1,-.1,.2,-.1,.3,0c.1,.1,.1,.2,0,.3L804,267.3c0,0,-.1,0,-.1,0Z" class="g1_220"/>
<path d="M808.1,820.7c0,.8,-.7,1.5,-1.5,1.5H173.5c-.8,0,-1.5,-.7,-1.5,-1.5V264.8c0,-.8,.7,-1.5,1.5,-1.5H806.6c.8,0,1.5,.7,1.5,1.5Z" class="g3_220"/>
<image clip-path="url(#c3_220)" x="172" y="263" width="637" height="560" xlink:href="shade/1.png"/>
<path d="M173.5,263.6c-.7,0,-1.3,.5,-1.3,1.3V820.7c0,.7,.6,1.3,1.3,1.3H806.6c.7,0,1.3,-.6,1.3,-1.3V264.9c0,-.8,-.6,-1.3,-1.3,-1.3ZM806.6,822.4H173.5c-.9,0,-1.7,-.8,-1.7,-1.7V264.9c0,-1,.8,-1.8,1.7,-1.8H806.6c.9,0,1.7,.8,1.7,1.8V820.7c0,.9,-.8,1.7,-1.7,1.7Z" class="g5_220"/>
<g clip-path="url(#c0_220)" opacity="0.4">
<path d="M170.7,251.1H593.8v-.4H170.7v.4Z" class="g4_220"/>
<g clip-path="url(#c0_220)">
<path d="M246,252.9H811.8v-.5H246v.5Z" class="g4_220"/>
<path d="M755.9,250.5h53.2V250H755.9v.5Z" class="g4_220"/>
</g>
<path d="M614.8,251.6H794.9v-.5H614.8v.5Z" class="g4_220"/>
</g>
<g clip-path="url(#c4_220)" opacity="0.4">
<path d="M354.6,258.5H810.2V258H354.6v.5Z" class="g6_220"/>
<path d="M169.1,256.7H628.3v-.5H169.1v.5Z" class="g6_220"/>
<path d="M171.8,259.1H225v-.4H171.8v.4Z" class="g6_220"/>
<path d="M583.5,260.4H778.6v-.5H583.5v.5Z" class="g6_220"/>
<path d="M185.9,258h73.6v-.4H185.9v.4Z" class="g6_220"/>
</g>
<g clip-path="url(#c1_220)" opacity="0.4">
<path d="M169.1,827.5H592.2V827H169.1v.5Z" class="g6_220"/>
<path clip-path="url(#c1_220)" d="M244.4,825.7H810.2v-.4H244.4v.4Z" class="g6_220"/>
<path d="M754.3,828.2h53.2v-.5H754.3v.5Z" class="g6_220"/>
<path d="M200.7,829.4H363.2v-.5H200.7v.5Z" class="g6_220"/>
<path d="M613.2,827H793.3v-.4H613.2v.4Z" class="g6_220"/>
</g>
<g clip-path="url(#c5_220)" opacity="0.4">
<path d="M812.9,823.9h.4V338.4h-.4V823.9Z" class="g6_220"/>
<path d="M810.2,773h.4V263.2h-.4V773Z" class="g6_220"/>
<path d="M813.9,301h.5V265h-.5v36Z" class="g6_220"/>
<path d="M815.8,802.5h.4V540.2h-.4V802.5Z" class="g6_220"/>
<path d="M812.2,324.3h.4V274.6h-.4v49.7Z" class="g6_220"/>
</g>
<g clip-path="url(#c2_220)" opacity="0.4">
<path d="M166.6,822.5h.5V337.1h-.5V822.5Z" class="g6_220"/>
<path clip-path="url(#c2_220)" d="M169.3,771.7h.5V261.9h-.5V771.7Z" class="g6_220"/>
<path d="M165.5,299.6h.5V263.7h-.5v35.9Z" class="g6_220"/>
<path clip-path="url(#c2_220)" d="M163.7,801.2h.4V538.8h-.4V801.2Z" class="g6_220"/>
<path d="M167.3,322.9h.4V273.2h-.4v49.7Z" class="g6_220"/>
</g>
</g>
<image clip-path="url(#cc_220)" preserveAspectRatio="none" x="186" y="334" width="304" height="239" xlink:href="img/1.png"/>
<path d="M192.3,560.4H477.9V339.6H192.3V560.4Z" class="g8_220"/>
<image clip-path="url(#cd_220)" preserveAspectRatio="none" x="186" y="575" width="304" height="239" xlink:href="img/2.png"/>
<path d="M192.3,801.5H477.9V580.6H192.3V801.5Z" class="g9_220"/>
<image clip-path="url(#ce_220)" preserveAspectRatio="none" x="498" y="334" width="304" height="239" xlink:href="img/3.png"/>
<path d="M504.4,560.4H790V339.6H504.4V560.4Z" class="ga_220"/>
<image clip-path="url(#cf_220)" preserveAspectRatio="none" x="498" y="575" width="304" height="239" xlink:href="img/4.png"/>
<path d="M504.4,801.5H790V580.6H504.4V801.5Z" class="gb_220"/>
<image clip-path="url(#cg_220)" x="326" y="347" width="9" height="16" xlink:href="shade/2.png"/>
<image clip-path="url(#ch_220)" x="325" y="339" width="21" height="17" xlink:href="shade/3.png"/>
<image clip-path="url(#ci_220)" x="329" y="327" width="19" height="24" xlink:href="shade/4.png"/>
<g clip-path="url(#cj_220)" opacity="0.18">
<path d="M329.9,344.5l7.1,-8.4l-2.3,-1.6Z" class="gc_220"/>
</g>
<image clip-path="url(#ck_220)" x="332" y="323" width="17" height="16" xlink:href="shade/5.png"/>
<g clip-path="url(#c6_220)" opacity="0.32">
<path clip-path="url(#c6_220)" d="M339.2,334.9c-1.4,-3,-1.4,-7.6,1.7,-9.9c-6.6,-2.1,-9.3,7.1,-3.6,9.8Z" class="gd_220"/>
</g>
<image clip-path="url(#cl_220)" x="325" y="591" width="8" height="16" xlink:href="shade/6.png"/>
<image clip-path="url(#cm_220)" x="323" y="583" width="21" height="17" xlink:href="shade/7.png"/>
<image clip-path="url(#cn_220)" x="327" y="571" width="19" height="24" xlink:href="shade/8.png"/>
<g clip-path="url(#co_220)" opacity="0.18">
<path d="M332.8,578.5l-4.8,10l7.2,-8.4Z" class="ge_220"/>
</g>
<image clip-path="url(#cp_220)" x="330" y="567" width="19" height="16" xlink:href="shade/9.png"/>
<g clip-path="url(#c7_220)" opacity="0.32">
<path clip-path="url(#c7_220)" d="M337.3,578.9c-1.4,-3,-1.4,-7.6,1.7,-9.9c-6.6,-2.1,-9.3,7,-3.5,9.8Z" class="gf_220"/>
</g>
<image clip-path="url(#cq_220)" x="647" y="352" width="8" height="15" xlink:href="shade/10.png"/>
<image clip-path="url(#cr_220)" x="645" y="343" width="21" height="17" xlink:href="shade/11.png"/>
<image clip-path="url(#cs_220)" x="649" y="331" width="19" height="24" xlink:href="shade/12.png"/>
<g clip-path="url(#c8_220)" opacity="0.18">
<path clip-path="url(#c8_220)" d="M650,348.6l7.1,-8.4l-2.3,-1.7Z" class="gg_220"/>
</g>
<image clip-path="url(#ct_220)" x="652" y="327" width="19" height="16" xlink:href="shade/13.png"/>
<g clip-path="url(#c9_220)" opacity="0.32">
<path clip-path="url(#c9_220)" d="M659.3,339c-1.4,-3,-1.4,-7.6,1.7,-9.9c-6.6,-2.1,-9.3,7,-3.6,9.8Z" class="gh_220"/>
</g>
<image clip-path="url(#cu_220)" x="646" y="591" width="9" height="16" xlink:href="shade/14.png"/>
<image clip-path="url(#cv_220)" x="644" y="583" width="22" height="17" xlink:href="shade/15.png"/>
<image clip-path="url(#cw_220)" x="649" y="571" width="19" height="24" xlink:href="shade/16.png"/>
<g clip-path="url(#cx_220)" opacity="0.18">
<path d="M654.5,578.5l-4.8,10l7.1,-8.4Z" class="gi_220"/>
</g>
<image clip-path="url(#cy_220)" x="652" y="567" width="19" height="16" xlink:href="shade/17.png"/>
<g clip-path="url(#ca_220)" opacity="0.32">
<path clip-path="url(#ca_220)" d="M659,578.9c-1.4,-3,-1.4,-7.6,1.7,-9.9c-6.6,-2.1,-9.3,7,-3.6,9.8Z" class="gi_220"/>
</g>
<image clip-path="url(#cz_220)" preserveAspectRatio="none" x="691" y="1066" width="95" height="95" xlink:href="img/5.jpg"/>
<image clip-path="url(#c10_220)" preserveAspectRatio="none" x="542" y="1066" width="95" height="95" xlink:href="img/6.jpg"/>
<image clip-path="url(#c11_220)" preserveAspectRatio="none" x="393" y="1064" width="95" height="95" xlink:href="img/7.jpg"/>
<image clip-path="url(#c12_220)" preserveAspectRatio="none" x="246" y="1065" width="95" height="96" xlink:href="img/8.jpg"/>
<path d="M589.3,975.6c2,0,3.6,-1.6,3.6,-3.6c0,-2,-1.6,-3.6,-3.6,-3.6c-2,0,-3.6,1.6,-3.6,3.6c0,2,1.6,3.6,3.6,3.6Z" class="gj_220"/>
<path d="M440.6,975.6c2,0,3.6,-1.6,3.6,-3.6c0,-2,-1.6,-3.6,-3.6,-3.6c-2,0,-3.6,1.6,-3.6,3.6c0,2,1.6,3.6,3.6,3.6Z" class="gj_220"/>
<path d="M738,975.6c2,0,3.6,-1.6,3.6,-3.6c0,-2,-1.6,-3.6,-3.6,-3.6c-2,0,-3.6,1.6,-3.6,3.6c0,2,1.6,3.6,3.6,3.6Z" class="gj_220"/>
<path d="M291.9,975.6c2,0,3.6,-1.6,3.6,-3.6c0,-2,-1.6,-3.6,-3.6,-3.6c-2,0,-3.6,1.6,-3.6,3.6c0,2,1.6,3.6,3.6,3.6Z" class="gj_220"/>
<path d="M589.3,1054.4c2,0,3.6,-1.6,3.6,-3.6c0,-2,-1.6,-3.6,-3.6,-3.6c-2,0,-3.6,1.6,-3.6,3.6c0,2,1.6,3.6,3.6,3.6Z" class="gj_220"/>
<path d="M440.6,1054.4c2,0,3.6,-1.6,3.6,-3.6c0,-2,-1.6,-3.6,-3.6,-3.6c-2,0,-3.6,1.6,-3.6,3.6c0,2,1.6,3.6,3.6,3.6Z" class="gj_220"/>
<path d="M738,1054.4c2,0,3.6,-1.6,3.6,-3.6c0,-2,-1.6,-3.6,-3.6,-3.6c-2,0,-3.6,1.6,-3.6,3.6c0,2,1.6,3.6,3.6,3.6Z" class="gj_220"/>
<path d="M291.9,1054.4c2,0,3.6,-1.6,3.6,-3.6c0,-2,-1.6,-3.6,-3.6,-3.6c-2,0,-3.6,1.6,-3.6,3.6c0,2,1.6,3.6,3.6,3.6Z" class="gj_220"/>
<path d="M242.1,917.1c0,0,-8.6,0,-8.6,8.6v21.7c0,0,0,8.6,8.6,8.6h86.6c0,0,8.7,0,8.7,-8.6V925.7c0,0,0,-8.6,-8.7,-8.6Z" class="gk_220"/>
<path d="M393.5,917.1c0,0,-8.6,0,-8.6,8.6v21.7c0,0,0,8.6,8.6,8.6h86.6c0,0,8.7,0,8.7,-8.6V925.7c0,0,0,-8.6,-8.7,-8.6Z" class="gk_220"/>
<path d="M541.8,917.1c0,0,-8.6,0,-8.6,8.6v21.7c0,0,0,8.6,8.6,8.6h86.7c0,0,8.6,0,8.6,-8.6V925.7c0,0,0,-8.6,-8.6,-8.6Z" class="gk_220"/>
<path d="M690.7,917.1c0,0,-8.6,0,-8.6,8.6v21.7c0,0,0,8.6,8.6,8.6h86.6c0,0,8.7,0,8.7,-8.6V925.7c0,0,0,-8.6,-8.7,-8.6Z" class="gk_220"/>
<path d="M210.4,1118.4H240v-23.1H210.4v23.1Z" class="g4_220"/>
<path d="M659,1122.7h29.5v-23.1H659v23.1Z" class="g4_220"/>
<path d="M361.8,1120.5h23.1v-23.1H361.8v23.1Z" class="g4_220"/>
<path d="M510.1,1122.7h30.8v-23.1H510.1v23.1Z" class="g4_220"/>
<path d="M644.1,1216.5c0,0,-4.3,0,-4.3,4.4v10.8c0,0,0,4.3,4.3,4.3h30.3c0,0,4.4,0,4.4,-4.3v-10.8c0,0,0,-4.4,-4.4,-4.4Z" class="gl_220"/>
<path d="M630.9,1209.1v34.8m1.4,1H845.1m1,-1.4v-34.8m-1.4,-1H631.9" class="gm_220"/>
<path d="M630.9,1244.3v.6h.6m214,0h.6v-.6m0,-36v-.6h-.6m-214,0h-.6v.6" class="gn_220"/>
<path d="M132.2,126.3v22.2l11.7,10.2V136.5Z" class="go_220"/>
<path d="M132.2,109.5v39H829.9c0,0,16.9,0,16.9,-16.8v-5.4c0,0,0,-16.8,-16.9,-16.8Z" class="gl_220"/>
<path d="M166,111.6c.7,-.6,1.7,-.8,2.5,-.6l1.3,-1.3l-6.2,-6.1l-6.1,6.1l-1.3,-1.3c.2,-.8,0,-1.8,-.6,-2.4c-1,-1,-2.6,-1,-3.6,0c-1,1,-1,2.6,0,3.6c.6,.6,1.6,.9,2.4,.6l1.3,1.3l-6.1,6.1l6.1,6.2l-1.3,1.3c-.8,-.3,-1.8,-.1,-2.4,.6c-1,1,-1,2.6,0,3.6c1,1,2.6,1,3.6,0c.6,-.7,.9,-1.6,.6,-2.4l1.3,-1.3l6.1,6.1l6.2,-6.1l-1.3,-1.3c-.9,.2,-1.8,0,-2.5,-.7c-1,-1,-1,-2.6,0,-3.6c1,-1,2.6,-1,3.6,0c.7,.7,.9,1.6,.7,2.5l1.3,1.3l6.1,-6.2l-6.1,-6.1l-1.3,1.3c.2,.8,0,1.8,-.7,2.4c-1,1,-2.6,1,-3.6,0c-1,-.9,-1,-2.6,0,-3.6Z" class="gp_220"/>
<path d="M163.6,132.3l-6.1,-6.2l-.8,.9c.1,.9,-.2,1.9,-.8,2.6c-1.2,1.1,-3.1,1.1,-4.2,0c-1.2,-1.2,-1.2,-3,0,-4.2c.7,-.7,1.6,-1,2.6,-.8l.8,-.8L149,117.6l6.1,-6.1l-.8,-.8c-1,.1,-1.9,-.2,-2.6,-.8c-.6,-.6,-.9,-1.3,-.9,-2.1c0,-.8,.3,-1.5,.9,-2.1c1.1,-1.1,3,-1.1,4.1,0c.7,.7,1,1.7,.9,2.6l.8,.8l6.1,-6.1l6.7,6.7l-1.7,1.7h-.2c-.7,-.2,-1.5,0,-2.1,.5c-.8,.9,-.8,2.2,0,3.1c.9,.8,2.2,.8,3.1,0c.5,-.6,.7,-1.4,.5,-2.1v-.2l1.7,-1.7l6.7,6.6l-6.7,6.7l-1.8,-1.7l.1,-.2c.2,-.8,0,-1.5,-.6,-2.1c-.4,-.4,-.9,-.6,-1.5,-.6c-.5,0,-1.1,.2,-1.5,.6c-.8,.8,-.8,2.2,0,3c.5,.6,1.3,.8,2.1,.6l.2,-.1l1.7,1.8ZM157.5,125l6.1,6.1l5.6,-5.5l-.8,-.9c-1,.2,-2,-.1,-2.7,-.8c-.5,-.5,-.8,-1.3,-.8,-2.1c0,-.7,.3,-1.5,.8,-2c.6,-.6,1.3,-.9,2.1,-.9c.8,0,1.6,.3,2.1,.9c.7,.6,1,1.6,.8,2.6l.9,.8l5.5,-5.6l-5.5,-5.5l-.9,.8c.2,1,-.1,1.9,-.8,2.6c-1.1,1.2,-3,1.2,-4.1,0c-1.2,-1.1,-1.2,-3,0,-4.1c.6,-.7,1.6,-1,2.6,-.8l.8,-.9l-5.6,-5.6l-6.1,6.2l-1.7,-1.7v-.3c.2,-.7,0,-1.5,-.5,-2c-.9,-.9,-2.2,-.9,-3.1,0c-.4,.4,-.6,.9,-.6,1.5c0,.6,.2,1.1,.6,1.5c.6,.5,1.4,.8,2.1,.6l.2,-.1l1.8,1.7l-6.2,6.1l6.2,6.2l-1.8,1.7l-.2,-.1c-.7,-.2,-1.5,.1,-2,.6c-.9,.8,-.9,2.2,0,3c.8,.9,2.2,.9,3,0c.5,-.5,.7,-1.3,.5,-2v-.3Z" class="gq_220"/>
<path d="M196.6,122.1c.9,0,1.8,.5,2.2,1.3h1.8v-8.7h-8.7v-1.8c.8,-.4,1.3,-1.2,1.3,-2.2c0,-1.4,-1.1,-2.5,-2.5,-2.5c-1.5,0,-2.6,1.1,-2.6,2.5c0,1,.5,1.8,1.3,2.2v1.8h-8.7v8.7h-1.8c-.4,-.8,-1.2,-1.3,-2.2,-1.3c-1.4,0,-2.5,1.2,-2.5,2.6c0,1.4,1.1,2.5,2.5,2.5c1,0,1.8,-.5,2.2,-1.2h1.8v8.6h8.7v-1.8c-.8,-.4,-1.3,-1.2,-1.3,-2.2c0,-1.4,1.2,-2.5,2.6,-2.5c1.4,0,2.5,1.1,2.5,2.5c0,1,-.5,1.8,-1.3,2.2v1.8h8.7V126h-1.8c-.4,.7,-1.2,1.2,-2.2,1.2c-1.4,0,-2.5,-1.1,-2.5,-2.5c0,-1.4,1.1,-2.6,2.5,-2.6Z" class="gr_220"/>
<path d="M201,135h-9.5v-2.4l.2,-.1c.7,-.4,1.1,-1.1,1.1,-1.9c0,-1.2,-1,-2.1,-2.1,-2.1c-1.2,0,-2.2,.9,-2.2,2.1c0,.8,.4,1.5,1.1,1.9l.2,.1V135h-9.5v-8.6h-1.2c-.5,.7,-1.4,1.2,-2.4,1.2c-1.6,0,-2.9,-1.3,-2.9,-2.9c0,-1.6,1.3,-3,2.9,-3c1,0,1.9,.5,2.4,1.3h1.2v-8.7H189v-1.1c-.8,-.6,-1.3,-1.5,-1.3,-2.5c0,-1.6,1.3,-2.9,3,-2.9c1.6,0,2.9,1.3,2.9,2.9c0,1,-.5,1.9,-1.3,2.5v1.1H201v9.5h-2.4l-.1,-.2c-.4,-.6,-1.1,-1.1,-1.9,-1.1c-.6,0,-1.1,.3,-1.5,.7c-.4,.4,-.6,.9,-.6,1.5c0,1.2,.9,2.1,2.1,2.1c.8,0,1.5,-.4,1.9,-1l.1,-.2H201Zm-8.7,-.8h7.9v-7.8H199c-.5,.7,-1.4,1.2,-2.4,1.2c-1.6,0,-2.9,-1.3,-2.9,-2.9c0,-.8,.3,-1.5,.8,-2.1c.6,-.5,1.3,-.9,2.1,-.9c1,0,1.9,.5,2.4,1.3h1.2v-7.9h-8.7v-2.4l.2,-.1c.7,-.4,1.1,-1.1,1.1,-1.9c0,-1.2,-1,-2.1,-2.1,-2.1c-1.2,0,-2.2,.9,-2.2,2.1c0,.8,.4,1.5,1.1,1.9l.2,.1v2.4h-8.7v8.7h-2.4l-.1,-.2c-.4,-.6,-1.1,-1.1,-1.9,-1.1c-1.2,0,-2.1,1,-2.1,2.2c0,1.2,.9,2.1,2.1,2.1c.8,0,1.5,-.4,1.9,-1l.1,-.2h2.4v8.6H189V133c-.8,-.5,-1.3,-1.4,-1.3,-2.4c0,-1.6,1.3,-2.9,3,-2.9c1.6,0,2.9,1.3,2.9,2.9c0,1,-.5,1.9,-1.3,2.4Z" class="gq_220"/>
<path d="M176.7,142c1,0,1.8,.5,2.2,1.3h1.8v-8.7H172v-1.8c.8,-.4,1.3,-1.2,1.3,-2.2c0,-1.4,-1.1,-2.5,-2.5,-2.5c-1.4,0,-2.6,1.1,-2.6,2.5c0,1,.5,1.8,1.3,2.2v1.8h-8.7v8.7H159c-.4,-.8,-1.2,-1.3,-2.2,-1.3c-1.4,0,-2.5,1.2,-2.5,2.6c0,1.4,1.1,2.5,2.5,2.5c1,0,1.8,-.5,2.2,-1.2h1.8v8.6h8.7v-1.8c-.8,-.4,-1.3,-1.2,-1.3,-2.2c0,-1.4,1.2,-2.5,2.6,-2.5c1.4,0,2.5,1.1,2.5,2.5c0,1,-.5,1.8,-1.3,2.2v1.8h8.7v-8.7h-1.8c-.4,.8,-1.2,1.3,-2.2,1.3c-1.4,0,-2.5,-1.1,-2.5,-2.5c0,-1.4,1.1,-2.6,2.5,-2.6Z" class="gs_220"/>
<path d="M181.1,154.9h-9.5v-2.4l.2,-.1c.7,-.4,1.1,-1.1,1.1,-1.9c0,-1.2,-1,-2.1,-2.1,-2.1c-1.2,0,-2.2,.9,-2.2,2.1c0,.8,.4,1.5,1.1,1.9l.2,.1v2.4h-9.5v-8.6h-1.2c-.5,.7,-1.4,1.2,-2.4,1.2c-1.6,0,-2.9,-1.3,-2.9,-2.9c0,-1.6,1.3,-3,2.9,-3c1,0,1.9,.5,2.4,1.3h1.2v-8.7h8.7V133c-.8,-.5,-1.3,-1.4,-1.3,-2.4c0,-1.6,1.3,-2.9,3,-2.9c1.6,0,2.9,1.3,2.9,2.9c0,1,-.5,1.9,-1.3,2.4v1.2h8.7v9.5h-2.4l-.1,-.2c-.4,-.7,-1.1,-1.1,-1.9,-1.1c-1.2,0,-2.1,1,-2.1,2.2c0,1.1,.9,2.1,2.1,2.1c.8,0,1.5,-.4,1.9,-1.1l.1,-.2h2.4Zm-8.7,-.8h7.9v-7.9h-1.2c-.5,.8,-1.4,1.3,-2.4,1.3c-1.6,0,-2.9,-1.3,-2.9,-2.9c0,-1.6,1.3,-3,2.9,-3c1,0,1.9,.5,2.4,1.3h1.2V135h-8.7v-2.4l.2,-.1c.7,-.4,1.1,-1.1,1.1,-1.9c0,-1.2,-1,-2.1,-2.1,-2.1c-1.2,0,-2.2,.9,-2.2,2.1c0,.8,.4,1.5,1.1,1.9l.2,.1V135h-8.7v8.7h-2.4l-.1,-.2c-.4,-.7,-1.1,-1.1,-1.9,-1.1c-1.2,0,-2.1,1,-2.1,2.2c0,1.2,.9,2.1,2.1,2.1c.8,0,1.5,-.4,1.9,-1l.1,-.2h2.4v8.6h7.9v-1.2c-.8,-.5,-1.3,-1.4,-1.3,-2.4c0,-1.6,1.3,-2.9,3,-2.9c1.6,0,2.9,1.3,2.9,2.9c0,1,-.5,1.9,-1.3,2.4Z" class="gq_220"/>
<path d="M196.6,142c.9,0,1.8,.5,2.2,1.3h1.8v-8.7h-8.7v-1.8c.8,-.4,1.3,-1.2,1.3,-2.2c0,-1.4,-1.1,-2.5,-2.5,-2.5c-1.5,0,-2.6,1.1,-2.6,2.5c0,1,.5,1.8,1.3,2.2v1.8h-8.7v8.7h-1.8c-.4,-.8,-1.2,-1.3,-2.2,-1.3c-1.4,0,-2.5,1.2,-2.5,2.6c0,1.4,1.1,2.5,2.5,2.5c1,0,1.8,-.5,2.2,-1.2h1.8v8.6h8.7v-1.8c-.8,-.4,-1.3,-1.2,-1.3,-2.2c0,-1.4,1.2,-2.5,2.6,-2.5c1.4,0,2.5,1.1,2.5,2.5c0,1,-.5,1.8,-1.3,2.2v1.8h8.7v-8.7h-1.8c-.4,.8,-1.2,1.3,-2.2,1.3c-1.4,0,-2.5,-1.1,-2.5,-2.5c0,-1.4,1.1,-2.6,2.5,-2.6Z" class="gt_220"/>
<path d="M201,154.9h-9.5v-2.4l.2,-.1c.7,-.4,1.1,-1.1,1.1,-1.9c0,-1.2,-1,-2.1,-2.1,-2.1c-1.2,0,-2.2,.9,-2.2,2.1c0,.8,.4,1.5,1.1,1.9l.2,.1v2.4h-9.5v-8.6h-1.2c-.5,.7,-1.4,1.2,-2.4,1.2c-1.6,0,-2.9,-1.3,-2.9,-2.9c0,-1.6,1.3,-3,2.9,-3c1,0,1.9,.5,2.4,1.3h1.2v-8.7H189V133c-.8,-.5,-1.3,-1.4,-1.3,-2.4c0,-1.6,1.3,-2.9,3,-2.9c1.6,0,2.9,1.3,2.9,2.9c0,1,-.5,1.9,-1.3,2.4v1.2H201v9.5h-2.4l-.1,-.2c-.4,-.7,-1.1,-1.1,-1.9,-1.1c-.6,0,-1.1,.3,-1.5,.7c-.4,.4,-.6,.9,-.6,1.5c0,1.1,.9,2.1,2.1,2.1c.8,0,1.5,-.4,1.9,-1.1l.1,-.2H201Zm-8.7,-.8h7.9v-7.9H199c-.5,.8,-1.4,1.3,-2.4,1.3c-1.6,0,-2.9,-1.3,-2.9,-2.9c0,-.8,.3,-1.5,.8,-2.1c.6,-.6,1.3,-.9,2.1,-.9c1,0,1.9,.5,2.4,1.3h1.2V135h-8.7v-2.4l.2,-.1c.7,-.4,1.1,-1.1,1.1,-1.9c0,-1.2,-1,-2.1,-2.1,-2.1c-1.2,0,-2.2,.9,-2.2,2.1c0,.8,.4,1.5,1.1,1.9l.2,.1V135h-8.7v8.7h-2.4l-.1,-.2c-.4,-.7,-1.1,-1.1,-1.9,-1.1c-1.2,0,-2.1,1,-2.1,2.2c0,1.2,.9,2.1,2.1,2.1c.8,0,1.5,-.4,1.9,-1l.1,-.2h2.4v8.6H189v-1.2c-.8,-.5,-1.3,-1.4,-1.3,-2.4c0,-1.6,1.3,-2.9,3,-2.9c1.6,0,2.9,1.3,2.9,2.9c0,1,-.5,1.9,-1.3,2.4Z" class="gq_220"/>
<path d="M32.1,45.1H9.2m958.3,0h22.9M32.1,1331.3H9.2m958.3,0h22.9M45.1,32.1V9.2m0,1335.1v22.9M954.5,32.1V9.2m0,1335.1v22.9" class="gu_220"/>
<path d="M32.1,45.1H9.2m958.3,0h22.9M32.1,1331.3H9.2m958.3,0h22.9M45.1,32.1V9.2m0,1335.1v22.9M954.5,32.1V9.2m0,1335.1v22.9" class="gv_220"/>
<path d="M27.5,32.1H0m972.1,0h27.5M27.5,1344.3H0m972.1,0h27.5M32.1,27.5V0m0,1348.9v27.5M967.5,27.5V0m0,1348.9v27.5" class="gu_220"/>
<path d="M27.5,32.1H0m972.1,0h27.5M27.5,1344.3H0m972.1,0h27.5M32.1,27.5V0m0,1348.9v27.5M967.5,27.5V0m0,1348.9v27.5" class="gv_220"/>
</svg>