<?xml version="1.0" encoding="UTF-8" standalone="no"?>
<!DOCTYPE svg PUBLIC "-//W3C//DTD SVG 1.1//EN"
"http://www.w3.org/Graphics/SVG/1.1/DTD/svg11.dtd">
<svg viewBox="0 0 999 1376" version="1.1" xmlns="http://www.w3.org/2000/svg" xmlns:xlink="http://www.w3.org/1999/xlink">
<defs>
<clipPath id="c0_277"><path d="M198.7,241.9l-6.5,-2.2L175.8,225.8V168.7h72v73.2Z"/></clipPath>
<clipPath id="c1_277"><path d="M198.7,1057.5l-6.5,-2.2l-16.4,-13.9V984.3h72v73.2Z"/></clipPath>
<clipPath id="c2_277"><path d="M124.3,456.6V388.4H249.7v68.2Z"/></clipPath>
<clipPath id="c3_277"><path d="M125.1,460.3V385.5H252.2v74.8Z"/></clipPath>
<clipPath id="c4_277"><path d="M124.8,460V385.2H251.9V460Z"/></clipPath>
<clipPath id="c5_277"><path d="M180,400.9c-.3,0,3.5,-8.2,3.5,-8.2l.8,.5c0,0,-4,7.7,-4.3,7.7Z"/></clipPath>
<clipPath id="c6_277"><path d="M187.5,393.2c0,0,-6.9,-1.1,-7.6,-5.2c-.7,-3.6,1.5,-3.8,2.1,-3.8c0,0,.1,0,.1,0l8.3,-12.8l-1.5,-3c0,0,-.5,-1.2,.2,-2.1c0,-.1,.1,-.1,.3,-.1c2.1,0,12.9,5.5,12.9,5.5l.1,.2c-.4,.5,-.7,1.1,-1.4,1.6c-.6,.5,-5.1,1.2,-5.1,1.2l-8.4,18.5Z"/></clipPath>
<clipPath id="c7_277"><path d="M187.1,392.8c.2,-.4,.2,-1.7,0,-2.2v-1.4c-1.6,-.5,-2.9,-1.2,-3.7,-2.5c-1.1,.6,-2.1,1.2,-3.1,1.9c1.5,2.1,3.8,3.5,6.8,4.2Zm0,-3.8c2.2,-4.6,4,-9.5,6.1,-14.1c-.9,-.4,-1.8,-1.3,-2.6,-1.4c-2.3,4.3,-4.6,8.6,-7.1,12.8c.8,1.3,2.1,2,3.6,2.7Zm-7.3,12c1,-2.9,2.4,-5.5,3.5,-8.3c-2,-1.5,-3.9,-3.1,-4.4,-6.1v-1.5c0,-2.7,1.9,-3.4,4.6,-3.4q.1,0,.2,0c1.9,-3.4,4.2,-6.4,6.1,-9.7c-.5,-.9,-1.1,-2.4,-.9,-3.6c.6,1.2,1.7,1.8,2.4,2.8c-.1,.6,-.2,1.2,-.3,1.8c.6,.7,1.3,1.2,2.3,1.4c.5,-.4,.6,-1.3,1.2,-1.5c.9,.3,1.8,.7,3.1,.7c.1,.1,.5,.2,.8,.2c.4,0,.7,-.1,.9,-.2c.1,.1,.2,.1,.3,.1c.2,0,.4,-.1,.6,-.2c.2,0,.3,-.1,.5,-.1c.1,0,.2,0,.3,.1c-1.3,.7,-2.2,1.8,-4.2,1.8c-.1,0,-.2,0,-.3,0c-.9,3.7,-1.9,7.3,-2.7,11.1c.6,1.1,1.6,1.7,1.3,3.2c-.5,2.7,-3.8,4.4,-7.2,4.4c-1.3,0,-2.5,-.3,-3.6,-.8c-1,2.1,-2.1,4.2,-3.3,6.1c0,-.4,.3,-.4,.3,-.8c.9,-1.8,1.9,-3.6,2.6,-5.7c-1,1.8,-1.8,3.8,-2.7,5.6c-.3,.4,-.5,.8,-.7,1.2c-.3,.5,-.3,1.2,-.7,1.4Z"/></clipPath>
<clipPath id="c8_277"><path d="M197.5,373.2c-4.8,0,-13.1,-7.3,-5.5,-8.8h1.2c.2,.1,.4,.1,.7,.1q.1,0,.2,0c.2,0,.5,0,.9,.1c3.1,.6,8.2,3.8,7.5,7c-.2,1.2,-1.5,1.6,-3.1,1.6h-1.8c0,0,-.1,0,-.1,0Z"/></clipPath>
<clipPath id="c9_277"><path d="M126.4,682.7V614.5H251.8v68.2Z"/></clipPath>
<clipPath id="ca_277"><path d="M125.1,686.5V611.7H252.2v74.8Z"/></clipPath>
<clipPath id="cb_277"><path d="M124.8,686.2V611.4H251.9v74.8Z"/></clipPath>
<clipPath id="cc_277"><path d="M178.4,630.5c-.3,-.1,3.5,-8.2,3.5,-8.2l.8,.5c0,0,-4,7.7,-4.3,7.7Z"/></clipPath>
<clipPath id="cd_277"><path d="M185.9,622.8c0,0,-6.9,-1.1,-7.6,-5.3c-.7,-3.6,1.5,-3.8,2.1,-3.8c0,0,.1,0,.1,0L188.8,601l-1.5,-3.1c0,0,-.5,-1.1,.2,-2.1c0,0,.1,-.1,.3,-.1c2.1,0,12.9,5.6,12.9,5.6l.1,.1c-.4,.5,-.7,1.2,-1.4,1.7c-.6,.5,-5.1,1.1,-5.1,1.1l-8.4,18.6Z"/></clipPath>
<clipPath id="ce_277"><path d="M185.5,622.4c.2,-.4,.2,-1.8,0,-2.2v-1.4c-1.6,-.6,-2.9,-1.3,-3.7,-2.5c-1.1,.5,-2.1,1.2,-3.1,1.8c1.5,2.2,3.8,3.6,6.8,4.3Zm0,-3.9c2.2,-4.5,3.9,-9.5,6.1,-14.1c-.9,-.3,-1.8,-1.3,-2.6,-1.3c-2.3,4.3,-4.6,8.6,-7.1,12.8c.8,1.3,2.1,2,3.6,2.6Zm-7.3,12.1c1,-2.9,2.4,-5.5,3.5,-8.3c-2,-1.6,-3.9,-3.1,-4.4,-6.2v-1.5c-.1,-2.7,1.9,-3.4,4.6,-3.4q.1,0,.2,0c1.9,-3.3,4.2,-6.3,6.1,-9.6c-.5,-.9,-1.1,-2.4,-.9,-3.7c.6,1.3,1.7,1.9,2.4,2.9c-.1,.6,-.2,1.1,-.3,1.8c.5,.6,1.3,1.1,2.3,1.3c.5,-.4,.6,-1.2,1.2,-1.5c.9,.4,1.8,.8,3.1,.8c.1,.1,.5,.1,.8,.1c.4,0,.7,0,.9,-.1c.1,0,.2,0,.3,0c.2,0,.4,0,.6,-.1c.2,-.1,.3,-.1,.5,-.1c.1,0,.2,0,.3,.1c-1.3,.6,-2.2,1.7,-4.2,1.7c-.1,0,-.2,0,-.3,0c-.9,3.8,-1.9,7.4,-2.7,11.2c.6,1.1,1.6,1.7,1.3,3.1c-.5,2.8,-3.9,4.4,-7.2,4.4c-1.3,0,-2.5,-.2,-3.6,-.7c-1,2.1,-2.1,4.1,-3.3,6c0,-.3,.3,-.4,.3,-.7c.9,-1.8,1.9,-3.6,2.6,-5.7c-1,1.7,-1.8,3.7,-2.7,5.5c-.3,.5,-.5,.9,-.7,1.3c-.3,.4,-.3,1.1,-.7,1.4Z"/></clipPath>
<clipPath id="cf_277"><path d="M195.9,602.8c-4.8,0,-13.1,-7.3,-5.5,-8.8h1.2c.2,.1,.4,.1,.7,.1c.1,0,.2,0,.2,0c.3,0,.6,0,.9,0c3.1,.7,8.2,3.8,7.5,7.1c-.2,1.1,-1.5,1.6,-3.1,1.6H196c0,0,-.1,0,-.1,0Z"/></clipPath>
<clipPath id="cg_277"><path d="M108.6,938.8V870.6H236.2v68.2Z"/></clipPath>
<clipPath id="ch_277"><path d="M105.7,941.1V866.3H236.1v74.8Z"/></clipPath>
<clipPath id="ci_277"><path d="M105.4,940.8V866H235.8v74.8Z"/></clipPath>
<clipPath id="cj_277"><path d="M154.4,881.4c-.2,0,3.6,-8.2,3.6,-8.2l.7,.5c0,0,-4,7.7,-4.3,7.7Z"/></clipPath>
<clipPath id="ck_277"><path d="M161.9,873.7c0,0,-6.8,-1.1,-7.6,-5.2c-.6,-3.6,1.6,-3.8,2.1,-3.8q.1,0,.1,0l8.4,-12.8l-1.5,-3c0,0,-.6,-1.2,.1,-2.1c.1,-.1,.2,-.1,.4,-.1c2.1,0,12.9,5.5,12.9,5.5l.1,.2c-.4,.5,-.8,1.1,-1.4,1.6c-.7,.5,-5.1,1.2,-5.1,1.2l-8.5,18.5Z"/></clipPath>
<clipPath id="cl_277"><path d="M161.5,873.4c.2,-.5,.2,-1.8,0,-2.3v-1.4c-1.5,-.5,-2.9,-1.2,-3.6,-2.5c-1.1,.6,-2.2,1.2,-3.2,1.9c1.6,2.1,3.8,3.5,6.8,4.3Zm0,-3.9c2.2,-4.6,4,-9.5,6.2,-14.1c-.9,-.4,-1.9,-1.3,-2.7,-1.4c-2.3,4.3,-4.6,8.6,-7,12.8c.7,1.4,2.1,2,3.5,2.7Zm-7.3,12c1.1,-2.9,2.4,-5.4,3.5,-8.3c-1.9,-1.5,-3.9,-3.1,-4.4,-6.1v-1.5c0,-2.7,2,-3.4,4.6,-3.4c.1,0,.2,0,.2,0c2,-3.4,4.2,-6.4,6.2,-9.7c-.6,-.9,-1.2,-2.4,-.9,-3.6c.5,1.2,1.6,1.8,2.4,2.8c-.1,.6,-.3,1.2,-.4,1.8c.6,.7,1.3,1.2,2.4,1.4c.5,-.4,.5,-1.3,1.1,-1.5c1,.3,1.9,.7,3.2,.7c.1,.1,.4,.2,.8,.2c.3,0,.7,-.1,.8,-.2c.1,.1,.2,.1,.3,.1c.2,0,.4,-.1,.6,-.2c.2,0,.4,-.1,.5,-.1c.2,0,.3,0,.4,.1c-1.4,.7,-2.2,1.8,-4.2,1.8c-.1,0,-.2,0,-.4,0c-.8,3.7,-1.8,7.3,-2.6,11.2c.5,1,1.5,1.6,1.3,3.1c-.5,2.7,-3.9,4.4,-7.2,4.4c-1.3,0,-2.6,-.3,-3.7,-.8c-1,2.1,-2,4.2,-3.2,6.1c-.1,-.4,.3,-.4,.2,-.8c1,-1.8,2,-3.6,2.7,-5.6c-1.1,1.7,-1.9,3.7,-2.8,5.5c-.2,.4,-.4,.8,-.6,1.2c-.3,.5,-.3,1.2,-.8,1.4Z"/></clipPath>
<clipPath id="cm_277"><path d="M172,853.8c-4.8,0,-13.1,-7.4,-5.6,-8.8h1.3c.2,0,.4,0,.6,0h.1c0,0,.1,0,.1,0c.3,0,.6,0,.9,.1c3.1,.6,8.3,3.8,7.6,7c-.3,1.2,-1.6,1.6,-3.2,1.7h-1.7q-.1,0,-.1,0Z"/></clipPath>
<clipPath id="cn_277"><path d="M692.3,608V479.9H879.9V608Z"/></clipPath>
<clipPath id="co_277"><path d="M689.8,613.9V474.8H881.2V613.9Z"/></clipPath>
<clipPath id="cp_277"><path d="M689.5,613.6V474.5H880.9V613.6Z"/></clipPath>
<clipPath id="cq_277"><path d="M779.3,492.7c-.2,-.1,3.6,-8.2,3.6,-8.2l.8,.5c0,0,-4.1,7.7,-4.4,7.7Z"/></clipPath>
<clipPath id="cr_277"><path d="M786.8,485c0,0,-6.8,-1.1,-7.5,-5.2c-.7,-3.6,1.5,-3.9,2,-3.9c.1,0,.2,.1,.2,.1l8.3,-12.8l-1.5,-3.1c0,0,-.6,-1.1,.2,-2c0,-.1,.1,-.1,.3,-.1c2.1,0,12.9,5.5,12.9,5.5l.1,.2c-.4,.5,-.8,1.1,-1.4,1.6c-.7,.5,-5.1,1.2,-5.1,1.2L786.8,485Z"/></clipPath>
<clipPath id="cs_277"><path d="M786.4,484.7c.2,-.5,.2,-1.8,0,-2.3V481c-1.5,-.5,-2.8,-1.2,-3.6,-2.5c-1.1,.6,-2.1,1.2,-3.2,1.9c1.6,2.1,3.9,3.5,6.8,4.3Zm0,-3.9c2.2,-4.6,4,-9.5,6.2,-14.1c-.9,-.4,-1.9,-1.3,-2.6,-1.4c-2.3,4.3,-4.7,8.6,-7.1,12.8c.7,1.3,2.1,2,3.5,2.7Zm-7.3,12c1.1,-2.9,2.4,-5.5,3.6,-8.3c-2,-1.5,-4,-3.1,-4.4,-6.1v-1.5c-.1,-2.7,1.9,-3.4,4.5,-3.4c.1,0,.2,0,.2,0c2,-3.4,4.3,-6.4,6.2,-9.7c-.6,-.9,-1.2,-2.4,-.9,-3.7c.5,1.3,1.6,1.9,2.4,2.9c-.1,.6,-.3,1.2,-.4,1.8c.6,.7,1.4,1.2,2.4,1.4c.5,-.4,.5,-1.3,1.1,-1.5c1,.3,1.9,.7,3.2,.7c.1,.1,.5,.2,.8,.2c.3,0,.7,-.1,.8,-.2c.1,.1,.2,.1,.3,.1c.3,0,.5,-.1,.6,-.2c.2,0,.4,-.1,.6,-.1c.1,0,.2,0,.3,.1c-1.3,.7,-2.2,1.8,-4.2,1.8c-.1,0,-.2,0,-.3,0c-.9,3.7,-1.9,7.3,-2.7,11.1c.6,1.1,1.5,1.7,1.3,3.2c-.5,2.7,-3.9,4.4,-7.2,4.4c-1.3,0,-2.5,-.3,-3.6,-.8c-1,2.1,-2.1,4.2,-3.3,6.1c0,-.4,.3,-.4,.3,-.8c.9,-1.8,1.9,-3.6,2.6,-5.6c-1.1,1.7,-1.8,3.7,-2.8,5.5c-.2,.4,-.4,.8,-.6,1.2c-.3,.4,-.3,1.2,-.8,1.4Z"/></clipPath>
<clipPath id="ct_277"><path d="M796.9,465c-4.8,0,-13.1,-7.3,-5.6,-8.7h1.3c.2,0,.4,0,.7,0c.3,0,.7,0,1.1,.1c3,.6,8.2,3.8,7.5,7c-.3,1.2,-1.6,1.6,-3.2,1.6H797c0,0,-.1,0,-.1,0Z"/></clipPath>
<clipPath id="cu_277"><path d="M776.6,798.8V711.3H932.2v87.5Z"/></clipPath>
<clipPath id="cv_277"><path d="M779.2,797.8V716.9H931.6v80.9Z"/></clipPath>
<clipPath id="cw_277"><path d="M778.9,797.5V716.6H931.3v80.9Z"/></clipPath>
<clipPath id="cx_277"><path d="M847.5,706.7c-.3,-.1,3.5,-8.2,3.5,-8.2l.8,.5c0,0,-4,7.7,-4.3,7.7Z"/></clipPath>
<clipPath id="cy_277"><path d="M855,699c0,0,-6.9,-1.1,-7.6,-5.3c-.7,-3.6,1.5,-3.8,2.1,-3.8c0,0,.1,0,.1,0l8.3,-12.7l-1.5,-3.1c0,0,-.6,-1.1,.2,-2.1c0,0,.1,-.1,.3,-.1c2.1,0,12.9,5.6,12.9,5.6l.1,.1c-.4,.5,-.7,1.2,-1.4,1.7c-.7,.5,-5.1,1.1,-5.1,1.1L855,699Z"/></clipPath>
<clipPath id="cz_277"><path d="M854.6,698.6c.2,-.5,.2,-1.8,0,-2.3V695c-1.6,-.6,-2.9,-1.3,-3.7,-2.5c-1.1,.5,-2.1,1.2,-3.1,1.8c1.5,2.2,3.8,3.6,6.8,4.3Zm0,-3.9c2.1,-4.5,3.9,-9.5,6.1,-14.1c-.9,-.4,-1.8,-1.3,-2.6,-1.3c-2.3,4.3,-4.6,8.6,-7.1,12.8c.8,1.3,2.1,2,3.6,2.6Zm-7.3,12.1c1,-2.9,2.4,-5.5,3.5,-8.3c-2,-1.6,-3.9,-3.1,-4.4,-6.2v-1.5c-.1,-2.7,1.9,-3.4,4.6,-3.4c0,0,.1,0,.2,0c1.9,-3.3,4.2,-6.3,6.1,-9.7c-.5,-.8,-1.1,-2.3,-.9,-3.6c.6,1.2,1.7,1.9,2.4,2.9c-.1,.6,-.3,1.1,-.3,1.8c.5,.6,1.3,1.1,2.3,1.3c.5,-.4,.6,-1.2,1.2,-1.5c.9,.4,1.8,.8,3.1,.8c.1,.1,.5,.1,.8,.1c.4,0,.7,0,.8,-.1c.2,0,.3,0,.4,0c.2,0,.4,0,.6,-.1c.2,-.1,.3,-.1,.5,-.1c.1,0,.2,0,.3,.1c-1.3,.6,-2.2,1.7,-4.2,1.7c-.1,0,-.2,0,-.3,0c-.9,3.8,-1.9,7.4,-2.7,11.2c.6,1.1,1.5,1.7,1.3,3.1c-.5,2.8,-3.9,4.4,-7.2,4.4c-1.3,0,-2.5,-.2,-3.6,-.7c-1,2.1,-2.1,4.1,-3.3,6c0,-.4,.3,-.4,.3,-.7c.9,-1.8,1.9,-3.6,2.6,-5.7c-1,1.7,-1.8,3.7,-2.8,5.5c-.2,.5,-.4,.9,-.6,1.3c-.3,.4,-.3,1.1,-.7,1.4Z"/></clipPath>
<clipPath id="c10_277"><path d="M865,679c-4.8,0,-13.1,-7.3,-5.5,-8.8h1.2c.2,0,.3,.1,.5,.1q.1,0,.2,0q.1,0,.2,0c.2,0,.5,0,.9,0c3.1,.7,8.2,3.8,7.5,7.1c-.2,1.1,-1.5,1.6,-3.1,1.6h-1.8c0,0,-.1,0,-.1,0Z"/></clipPath>
<clipPath id="c11_277"><path d="M786.5,132.5V120.1H801v12.4Z"/></clipPath>
<style type="text/css"><![CDATA[
.g0_277{
fill: #FEFCF4;
}
.g1_277{
fill: #FFF;
}
.g2_277{
fill: none;
stroke: #6381B7;
stroke-width: 0.763;
}
.g3_277{
fill: #6381B7;
}
.g4_277{
fill: none;
stroke: #6381B7;
stroke-width: 0.381;
stroke-dasharray: 2,1;
}
.g5_277{
fill: none;
stroke: #6381B7;
stroke-width: 0.381;
}
.g6_277{
fill: #FCE8B0;
}
.g7_277{
fill: #F7C2D9;
}
.g8_277{
fill: none;
stroke: #949698;
stroke-width: 0.305;
stroke-dasharray: 4,4;
}
.g9_277{
fill: none;
stroke: #949698;
stroke-width: 0.305;
}
.ga_277{
fill: #FDF4F3;
}
.gb_277{
fill: #EC008C;
}
.gc_277{
fill: #6D6F71;
}
.gd_277{
fill: #F499C2;
}
.ge_277{
fill: #25408F;
}
.gf_277{
fill: #A8AAAD;
}
.gg_277{
fill: none;
stroke: #949698;
stroke-width: 0.549;
}
.gh_277{
fill: none;
stroke: #BCBEC0;
stroke-width: 2.566;
}
.gi_277{
fill: #231F20;
}
.gj_277{
fill: #363637;
}
.gk_277{
fill: #5CC4BE;
}
.gl_277{
fill: #F0D73F;
}
.gm_277{
fill: none;
stroke: #FFF;
stroke-width: 1.909;
stroke-miterlimit: 10;
}
.gn_277{
fill: none;
stroke: #000;
stroke-width: 0.381;
stroke-miterlimit: 10;
}
]]></style>
</defs>
<path d="M45.1,1344.3H967.5V32.1H45.1V1344.3Z" class="g0_277"/>
<path d="M171.6,138.6c0,0,-18.3,0,-18.3,18.4V900.6c0,0,0,18.4,18.3,18.4H848.7c0,0,18.4,0,18.4,-18.4v-762Z" class="g1_277"/>
<path d="M171.6,138.6c0,0,-18.3,0,-18.3,18.4V900.6c0,0,0,18.4,18.3,18.4H848.7c0,0,18.4,0,18.4,-18.4v-762H171.6Z" class="g2_277"/>
<path d="M166.7,967c0,0,-13,0,-13,13v159.4c0,0,0,13,13,13H854.5c0,0,13,0,13,-13V980c0,0,0,-13,-13,-13Z" class="g1_277"/>
<path d="M166.7,967c0,0,-13,0,-13,13v159.4c0,0,0,13,13,13H854.5c0,0,13,0,13,-13V980c0,0,0,-13,-13,-13H166.7Z" class="g2_277"/>
<path d="M511.4,1170.5c0,0,-4.3,0,-4.3,4.3v10.9c0,0,0,4.3,4.3,4.3h30.3c0,0,4.3,0,4.3,-4.3v-10.9c0,0,0,-4.3,-4.3,-4.3Z" class="g3_277"/>
<path d="M498.2,1163v34.9m1.3,.9H866.3m1,-1.3v-34.9m-1.4,-1H499.2" class="g4_277"/>
<path d="M498.2,1198.3v.5h.6m367.9,0h.6v-.5m0,-36.1v-.6h-.6m-367.9,0h-.6v.6" class="g5_277"/>
<path d="M231.3,170.9c0,0,-13,0,-13,13v47.6c0,0,0,13,13,13h602c0,0,13,0,13,-13V183.9c0,0,0,-13,-13,-13Z" class="g6_277"/>
<image clip-path="url(#c0_277)" preserveAspectRatio="none" x="174" y="167" width="75" height="76" xlink:href="img/1.png"/>
<path d="M226.1,237.1c0,0,-26.9,11.3,-51.1,-12.7c0,0,15.2,25.3,49.3,23.9c0,0,24.7,.4,20.2,-10.1c0,0,1.3,-4.4,-18.4,-1.1Z" class="g6_277"/>
<path d="M231.3,986.5c0,0,-13,0,-13,13v47.6c0,0,0,13,13,13h602c0,0,13,0,13,-13V999.5c0,0,0,-13,-13,-13Z" class="g6_277"/>
<image clip-path="url(#c1_277)" preserveAspectRatio="none" x="174" y="983" width="75" height="76" xlink:href="img/2.png"/>
<path d="M226.1,1052.7c0,0,-26.9,11.3,-51.1,-12.7c0,0,15.2,25.3,49.3,23.9c0,0,24.7,.4,20.2,-10.1c0,0,1.3,-4.4,-18.4,-1.1Z" class="g6_277"/>
<image clip-path="url(#c2_277)" preserveAspectRatio="none" x="124" y="389" width="125" height="68" xlink:href="img/3.png"/>
<path d="M129.5,393.7l.1,56.3l112.6,.4l1.3,-56.7Z" class="g7_277"/>
<path d="M395.4,381.5c29.2,-.6,52.9,-6.5,57.8,-14.1m-.9,-7.2c-6.7,-7.1,-30.1,-12.5,-58.5,-12.9m-7.8,0c-29.3,.6,-53,6.5,-57.9,14.2m.9,7.1c6.7,7.2,30.2,12.6,58.5,12.9" class="g8_277"/>
<path d="M453.9,366c.2,-.6,.3,-1.1,.3,-1.6c0,-.5,-.1,-1,-.3,-1.5M392.2,347.3c-.5,0,-1,0,-1.5,0c-.6,0,-1.1,0,-1.6,0m-61.7,15.6c-.2,.5,-.2,1,-.2,1.5c0,.5,0,1,.2,1.6m61.7,15.5c.5,0,1,0,1.6,0c.5,0,1,0,1.5,0" class="g9_277"/>
<image clip-path="url(#c3_277)" preserveAspectRatio="none" x="125" y="386" width="127" height="74" xlink:href="img/4.png"/>
<image clip-path="url(#c4_277)" preserveAspectRatio="none" x="125" y="386" width="126" height="74" xlink:href="img/5.png"/>
<path d="M129.5,397.9l4,56.2L224,448l21.9,-20.6L243.2,390Z" class="ga_277"/>
<path d="M224.1,447.8l21.8,-20.4L226,427.2Z" class="gb_277"/>
<path d="M340.4,377.4c0,0,-31.2,36.4,-117.8,33.8" class="g8_277"/>
<path d="M228.3,406.5l-.2,8.8l-11.2,-4.8Z" class="gc_277"/>
<image clip-path="url(#c5_277)" x="179" y="392" width="6" height="10" xlink:href="shade/1.png"/>
<image clip-path="url(#c6_277)" x="179" y="366" width="24" height="28" xlink:href="shade/2.png"/>
<image clip-path="url(#c7_277)" x="178" y="368" width="24" height="34" xlink:href="shade/3.png"/>
<image clip-path="url(#c8_277)" x="184" y="364" width="20" height="10" xlink:href="shade/4.png"/>
<image clip-path="url(#c9_277)" preserveAspectRatio="none" x="126" y="615" width="125" height="68" xlink:href="img/6.png"/>
<path d="M131.7,619.8v56.3l112.6,.5l1.3,-56.7Z" class="g7_277"/>
<path d="M329.3,672.8c9.9,-1.4,17.7,-6.7,19.6,-13.5m-.6,-8.2C345.6,644.8,337.5,639.9,327.7,639m-8.4,.2c-9.8,1.4,-17.6,6.7,-19.5,13.5m.5,8.2c2.8,6.4,10.8,11.2,20.7,12.1" class="g8_277"/>
<path d="M349.3,657.7c0,-.6,.1,-1.1,.1,-1.7c0,-.5,-.1,-1.1,-.1,-1.7M326,638.9c-.5,0,-1.1,0,-1.7,0c-.5,0,-1.1,0,-1.6,0m-23.3,15.4c-.1,.6,-.1,1.2,-.1,1.7c0,.6,0,1.1,.1,1.7m23.3,15.4c.5,0,1.1,0,1.6,0c.6,0,1.2,0,1.7,0" class="g9_277"/>
<image clip-path="url(#ca_277)" preserveAspectRatio="none" x="125" y="612" width="127" height="75" xlink:href="img/7.png"/>
<image clip-path="url(#cb_277)" preserveAspectRatio="none" x="125" y="612" width="126" height="75" xlink:href="img/8.png"/>
<path d="M129.5,624.1l4,56.2L224,674.2l21.9,-20.6l-2.7,-37.4Z" class="ga_277"/>
<path d="M224.1,674l21.8,-20.4L226,653.4Z" class="gb_277"/>
<path d="M313,640.5c0,0,-59.6,-13.2,-97,-4.6" class="g8_277"/>
<path d="M223.4,638.9l-3.3,-8.2l-8.8,8.3Z" class="gc_277"/>
<image clip-path="url(#cc_277)" x="178" y="622" width="5" height="9" xlink:href="shade/5.png"/>
<image clip-path="url(#cd_277)" x="177" y="595" width="24" height="28" xlink:href="shade/6.png"/>
<image clip-path="url(#ce_277)" x="177" y="597" width="23" height="34" xlink:href="shade/7.png"/>
<image clip-path="url(#cf_277)" x="182" y="594" width="20" height="9" xlink:href="shade/8.png"/>
<image clip-path="url(#cg_277)" preserveAspectRatio="none" x="108" y="871" width="128" height="68" xlink:href="img/9.png"/>
<path d="M113.8,875.8l.1,56.4l114.6,.4l1.3,-56.7Z" class="gd_277"/>
<image clip-path="url(#ch_277)" preserveAspectRatio="none" x="105" y="867" width="131" height="75" xlink:href="img/10.png"/>
<image clip-path="url(#ci_277)" preserveAspectRatio="none" x="105" y="866" width="130" height="75" xlink:href="img/11.png"/>
<path d="M110.1,878.3l4,56.2l96.4,-5.9l19.2,-20.5l-2.6,-37.3Z" class="ga_277"/>
<path d="M210.3,929l19.5,-20.8l-18,-.4Z" class="gb_277"/>
<path d="M363.3,865.9c29.2,-.5,52.5,-6.8,57.1,-14.8m-.9,-7.1c-6.4,-7.6,-29.7,-13.2,-57.8,-13.6m-7.7,0c-29,.6,-52.5,6.8,-57.2,14.8m.9,7.2c6.4,7.5,29.7,13.1,57.8,13.5" class="g8_277"/>
<path d="M421,849.7c.2,-.5,.3,-1,.3,-1.5c0,-.5,-.1,-1.1,-.3,-1.6M360.2,830.4c-.5,0,-1.1,0,-1.6,0c-.5,0,-1,0,-1.5,0m-60.9,16.2c-.1,.5,-.2,1.1,-.2,1.6c0,.5,.1,1,.2,1.5m60.9,16.2c.5,0,1,0,1.5,0c.5,.1,1.1,.1,1.6,.1" class="g9_277"/>
<path d="M304.9,853.2c0,0,-30.7,30.7,-100.3,40.3" class="g8_277"/>
<path d="M209.5,887.9l1.1,8.8l-11.8,-3Z" class="gc_277"/>
<image clip-path="url(#cj_277)" x="154" y="873" width="5" height="9" xlink:href="shade/9.png"/>
<image clip-path="url(#ck_277)" x="153" y="846" width="24" height="28" xlink:href="shade/10.png"/>
<image clip-path="url(#cl_277)" x="153" y="848" width="23" height="34" xlink:href="shade/11.png"/>
<image clip-path="url(#cm_277)" x="158" y="844" width="20" height="10" xlink:href="shade/12.png"/>
<path d="M451.2,593c9.8,-1.4,17.6,-6.8,19.5,-13.5m-.5,-8.2c-2.8,-6.4,-10.8,-11.2,-20.7,-12.1m-8.3,.2c-9.9,1.4,-17.7,6.7,-19.6,13.5m.6,8.1c2.7,6.4,10.8,11.3,20.6,12.2" class="g8_277"/>
<path d="M471.1,577.8c.1,-.5,.1,-1.1,.1,-1.6c0,-.6,0,-1.1,-.1,-1.7M447.8,559.1c-.5,-.1,-1.1,-.1,-1.6,-.1c-.6,0,-1.1,0,-1.7,.1m-23.3,15.4c0,.6,-.1,1.1,-.1,1.7c0,.5,.1,1.1,.1,1.6m23.3,15.5c.6,0,1.1,0,1.7,0c.5,0,1.1,0,1.6,0" class="g9_277"/>
<image clip-path="url(#cn_277)" preserveAspectRatio="none" x="692" y="480" width="187" height="129" xlink:href="img/12.png"/>
<path d="M698.9,486.7l-1.4,115l175.8,-1.8l-.6,-114.7Z" class="g7_277"/>
<image clip-path="url(#co_277)" preserveAspectRatio="none" x="690" y="475" width="191" height="139" xlink:href="img/13.png"/>
<image clip-path="url(#cp_277)" preserveAspectRatio="none" x="689" y="475" width="192" height="139" xlink:href="img/14.png"/>
<path d="M694.2,491.3l8.3,116L852.9,597l21.9,-18.6l-7.2,-99.2Z" class="ga_277"/>
<path d="M852.6,597l21.9,-18.7l-14.4,-8.1Z" class="gb_277"/>
<path d="M469.5,568.4c0,0,199.4,-14,232.1,-28.6" class="g8_277"/>
<path d="M703,544.4l-4.1,-7.9L711,535.3Z" class="gc_277"/>
<image clip-path="url(#cq_277)" x="779" y="484" width="5" height="9" xlink:href="shade/13.png"/>
<image clip-path="url(#cr_277)" x="778" y="457" width="24" height="28" xlink:href="shade/14.png"/>
<image clip-path="url(#cs_277)" x="778" y="460" width="23" height="33" xlink:href="shade/15.png"/>
<image clip-path="url(#ct_277)" x="783" y="456" width="20" height="10" xlink:href="shade/16.png"/>
<path d="M504.5,674.4c29.1,-.5,52.4,-6.8,57.1,-14.8m-.9,-7.1C554.3,645,531,639.3,502.9,638.9m-7.7,0c-29,.6,-52.5,6.8,-57.2,14.8m.9,7.2c6.4,7.5,29.7,13.1,57.8,13.5" class="g8_277"/>
<path d="M562.2,658.2c.2,-.5,.2,-1,.2,-1.5c0,-.5,0,-1.1,-.2,-1.6M501.4,638.9c-.6,0,-1.1,0,-1.6,0c-.5,0,-1,0,-1.6,0m-60.8,16.2c-.2,.5,-.2,1.1,-.2,1.6c0,.5,0,1,.2,1.5m60.8,16.2c.6,.1,1.1,.1,1.6,.1c.5,0,1,0,1.6,0" class="g9_277"/>
<image clip-path="url(#cu_277)" preserveAspectRatio="none" x="776" y="712" width="156" height="87" xlink:href="img/15.png"/>
<path d="M781.5,734.6l7.6,58.2L926.4,775l-6.3,-58.9Z" class="g7_277"/>
<image clip-path="url(#cv_277)" preserveAspectRatio="none" x="779" y="717" width="152" height="81" xlink:href="img/16.png"/>
<image clip-path="url(#cw_277)" preserveAspectRatio="none" x="778" y="717" width="153" height="81" xlink:href="img/17.png"/>
<path d="M783.6,731.1l4.3,60.1l115.7,-7.8l21.8,-20.7l-2.9,-41.3Z" class="ga_277"/>
<path d="M903.6,783.1l21.9,-20.3l-13.9,-3.4Z" class="gb_277"/>
<image clip-path="url(#cx_277)" x="847" y="698" width="5" height="9" xlink:href="shade/17.png"/>
<image clip-path="url(#cy_277)" x="846" y="671" width="24" height="28" xlink:href="shade/18.png"/>
<image clip-path="url(#cz_277)" x="846" y="674" width="23" height="33" xlink:href="shade/19.png"/>
<image clip-path="url(#c10_277)" x="851" y="670" width="20" height="10" xlink:href="shade/20.png"/>
<path d="M528.4,672.8c0,0,155,-5.2,259.8,33.8" class="g8_277"/>
<path d="M783.1,708.5l5.8,-6.6l5.5,10.9Z" class="gc_277"/>
<path d="M153.3,111.9v39L165,161.2V117Z" class="ge_277"/>
<path d="M153.3,111.9v39H851.1c0,0,16.8,0,16.8,-16.8v-5.3c0,0,0,-16.9,-16.8,-16.9Z" class="g3_277"/>
<path d="M802.6,145.6c8.2,0,14.9,-6.5,14.9,-14.5c0,-8.1,-6.7,-14.5,-14.9,-14.5c-8.2,0,-14.9,6.4,-14.9,14.5c0,8,6.7,14.5,14.9,14.5Z" class="gf_277"/>
<path d="M802.6,145.6c8.2,0,14.9,-6.5,14.9,-14.5c0,-8.1,-6.7,-14.5,-14.9,-14.5c-8.2,0,-14.9,6.4,-14.9,14.5c0,8,6.7,14.5,14.9,14.5Z" class="gg_277"/>
<path d="M802.6,136.4c3,0,5.5,-2.4,5.5,-5.3c0,-3,-2.5,-5.4,-5.5,-5.4c-3,0,-5.5,2.4,-5.5,5.4c0,2.9,2.5,5.3,5.5,5.3Z" class="g1_277"/>
<path d="M802.6,136.4c3,0,5.5,-2.4,5.5,-5.3c0,-3,-2.5,-5.4,-5.5,-5.4c-3,0,-5.5,2.4,-5.5,5.4c0,2.9,2.5,5.3,5.5,5.3Z" class="gh_277"/>
<g clip-path="url(#c11_277)" opacity="0.3">
<path d="M788,130.3c0,0,0,-4.8,3.7,-8.7l7.7,6.8c0,0,-1,.9,-1,2.6Z" class="g1_277"/>
</g>
<path d="M807.2,131c0,0,-3.5,0,-3.5,3.4v8.7c0,0,0,3.5,3.5,3.5h43.5c0,0,3.5,0,3.5,-3.5v-8.7c0,0,0,-3.4,-3.5,-3.4Z" class="gi_277"/>
<path d="M191.2,122c0,-8.3,-6.8,-15,-15.1,-15c-8.3,0,-15,6.7,-15,15c0,8.3,6.7,15.1,15,15.1c.8,0,1.7,-.1,2.4,-.2l4.5,5.2v-6.7c4.9,-2.5,8.2,-7.6,8.2,-13.4Z" class="g1_277"/>
<path d="M183.5,143.3l-5.1,-5.9c-.8,.1,-1.5,.1,-2.3,.1c-8.5,0,-15.5,-6.9,-15.5,-15.5c0,-8.5,7,-15.5,15.5,-15.5c8.6,0,15.5,7,15.5,15.5c0,5.7,-3.1,11,-8.1,13.7Zm-4.8,-6.9l3.9,4.5v-5.8l.2,-.1c4.9,-2.5,7.9,-7.5,7.9,-13c0,-8,-6.5,-14.6,-14.6,-14.6c-8,0,-14.6,6.6,-14.6,14.6c0,8.1,6.6,14.6,14.6,14.6c.8,0,1.6,-.1,2.4,-.2Z" class="gj_277"/>
<path d="M169.1,121.6c.8,0,1.4,.6,1.4,1.4c0,.8,-.6,1.5,-1.4,1.5c-.8,0,-1.4,-.7,-1.4,-1.5c0,-.8,.6,-1.4,1.4,-1.4Z" class="gk_277"/>
<path d="M169.1,124.9c-1,0,-1.9,-.8,-1.9,-1.9c0,-1,.9,-1.9,1.9,-1.9c1,0,1.9,.9,1.9,1.9c0,1.1,-.9,1.9,-1.9,1.9m0,-2.9c-.5,0,-1,.5,-1,1c0,.6,.5,1,1,1c.5,0,1,-.4,1,-1c0,-.5,-.5,-1,-1,-1Z" class="gj_277"/>
<path d="M176.1,121.6c.8,0,1.5,.6,1.5,1.4c0,.8,-.7,1.5,-1.5,1.5c-.8,0,-1.4,-.7,-1.4,-1.5c0,-.8,.6,-1.4,1.4,-1.4Z" class="gk_277"/>
<path d="M176.1,124.9c-1,0,-1.9,-.8,-1.9,-1.9c0,-1,.9,-1.9,1.9,-1.9c1.1,0,1.9,.9,1.9,1.9c0,1.1,-.8,1.9,-1.9,1.9m0,-2.9c-.5,0,-1,.5,-1,1c0,.6,.5,1,1,1c.6,0,1,-.4,1,-1c0,-.5,-.4,-1,-1,-1Z" class="gj_277"/>
<path d="M183.1,121.6c.8,0,1.5,.6,1.5,1.4c0,.8,-.7,1.5,-1.5,1.5c-.8,0,-1.4,-.7,-1.4,-1.5c0,-.8,.6,-1.4,1.4,-1.4Z" class="gk_277"/>
<path d="M183.1,124.9c-1,0,-1.9,-.8,-1.9,-1.9c0,-1,.9,-1.9,1.9,-1.9c1.1,0,1.9,.9,1.9,1.9c0,1.1,-.8,1.9,-1.9,1.9m0,-2.9c-.5,0,-1,.5,-1,1c0,.6,.5,1,1,1c.6,0,1,-.4,1,-1c0,-.5,-.4,-1,-1,-1Z" class="gj_277"/>
<path d="M185.1,136.3c0,-9.8,7.8,-17.7,17.6,-17.7c9.7,0,17.6,7.9,17.6,17.7c0,9.7,-7.9,17.6,-17.6,17.6c-1,0,-1.9,-.1,-2.9,-.3l-5.2,6.1v-7.8c-5.7,-2.9,-9.5,-8.8,-9.5,-15.6Z" class="gl_277"/>
<path d="M194.6,160.2q-.1,0,-.2,0c-.2,-.1,-.3,-.3,-.3,-.5v-7.5c-5.9,-3.2,-9.5,-9.2,-9.5,-15.9c0,-10,8.1,-18.1,18.1,-18.1c9.9,0,18,8.1,18,18.1c0,9.9,-8.1,18,-18,18c-.9,0,-1.8,0,-2.7,-.2l-5.1,5.9c-.1,.1,-.2,.2,-.3,.2m8.1,-41.1c-9.5,0,-17.2,7.7,-17.2,17.2c0,6.4,3.6,12.2,9.3,15.2c.1,.1,.2,.2,.2,.4v6.6l4.5,-5.2c.1,-.1,.3,-.1,.4,-.1c1,.1,1.9,.2,2.8,.2c9.4,0,17.1,-7.7,17.1,-17.1c0,-9.5,-7.7,-17.2,-17.1,-17.2Z" class="gj_277"/>
<path d="M210.9,135.8c.9,0,1.6,.7,1.6,1.6c0,1,-.7,1.7,-1.6,1.7c-1,0,-1.7,-.7,-1.7,-1.7c0,-.9,.7,-1.6,1.7,-1.6Z" class="g1_277"/>
<path d="M210.9,139.6c-1.2,0,-2.2,-1,-2.2,-2.2c0,-1.1,1,-2.1,2.2,-2.1c1.1,0,2.1,1,2.1,2.1c0,1.2,-1,2.2,-2.1,2.2m0,-3.4c-.7,0,-1.3,.6,-1.3,1.2c0,.7,.6,1.3,1.3,1.3c.6,0,1.2,-.6,1.2,-1.3c0,-.6,-.6,-1.2,-1.2,-1.2Z" class="gj_277"/>
<path d="M202.7,135.8c.9,0,1.6,.7,1.6,1.6c0,1,-.7,1.7,-1.6,1.7c-1,0,-1.7,-.7,-1.7,-1.7c0,-.9,.7,-1.6,1.7,-1.6Z" class="g1_277"/>
<path d="M202.7,139.6c-1.2,0,-2.2,-1,-2.2,-2.2c0,-1.1,1,-2.1,2.2,-2.1c1.1,0,2.1,1,2.1,2.1c0,1.2,-1,2.2,-2.1,2.2m0,-3.4c-.7,0,-1.3,.6,-1.3,1.2c0,.7,.6,1.3,1.3,1.3c.6,0,1.2,-.6,1.2,-1.3c0,-.6,-.6,-1.2,-1.2,-1.2Z" class="gj_277"/>
<path d="M194.5,135.8c.9,0,1.6,.7,1.6,1.6c0,1,-.7,1.7,-1.6,1.7c-1,0,-1.7,-.7,-1.7,-1.7c0,-.9,.7,-1.6,1.7,-1.6Z" class="g1_277"/>
<path d="M194.5,139.6c-1.2,0,-2.2,-1,-2.2,-2.2c0,-1.1,1,-2.1,2.2,-2.1c1.1,0,2.1,1,2.1,2.1c0,1.2,-1,2.2,-2.1,2.2m0,-3.4c-.7,0,-1.2,.6,-1.2,1.2c0,.7,.5,1.3,1.2,1.3c.6,0,1.2,-.6,1.2,-1.3c0,-.6,-.6,-1.2,-1.2,-1.2Z" class="gj_277"/>
<path d="M32.1,45.1H9.2m958.3,0h22.9M32.1,1331.3H9.2m958.3,0h22.9M45.1,32.1V9.2m0,1335.1v22.9M954.5,32.1V9.2m0,1335.1v22.9" class="gm_277"/>
<path d="M32.1,45.1H9.2m958.3,0h22.9M32.1,1331.3H9.2m958.3,0h22.9M45.1,32.1V9.2m0,1335.1v22.9M954.5,32.1V9.2m0,1335.1v22.9" class="gn_277"/>
<path d="M27.5,32.1H0m972.1,0h27.5M27.5,1344.3H0m972.1,0h27.5M32.1,27.5V0m0,1348.9v27.5M967.5,27.5V0m0,1348.9v27.5" class="gm_277"/>
<path d="M27.5,32.1H0m972.1,0h27.5M27.5,1344.3H0m972.1,0h27.5M32.1,27.5V0m0,1348.9v27.5M967.5,27.5V0m0,1348.9v27.5" class="gn_277"/>
</svg>