<?xml version="1.0" encoding="UTF-8" standalone="no"?>
<!DOCTYPE svg PUBLIC "-//W3C//DTD SVG 1.1//EN"
"http://www.w3.org/Graphics/SVG/1.1/DTD/svg11.dtd">
<svg viewBox="0 0 999 1376" version="1.1" xmlns="http://www.w3.org/2000/svg" xmlns:xlink="http://www.w3.org/1999/xlink">
<defs>
<clipPath id="c0_38"><path d="M724.1,1190.4v-62.3h64.3v62.3Z"/></clipPath>
<clipPath id="c1_38"><path d="M551.8,1182.7v-53h71.9v53Z"/></clipPath>
<clipPath id="c2_38"><path d="M381.6,1180.7V1130h65.8v50.7Z"/></clipPath>
<clipPath id="c3_38"><path d="M222.6,1182.3V1130h66.6v52.3Z"/></clipPath>
<clipPath id="c4_38"><path d="M719.7,1076.2v-62.6H797v62.6Z"/></clipPath>
<clipPath id="c5_38"><path d="M549.2,1074.5v-61.4h77.2v61.4Z"/></clipPath>
<clipPath id="c6_38"><path d="M380.8,1076v-62.7h77.3V1076Z"/></clipPath>
<clipPath id="c7_38"><path d="M218.9,1072.3v-62.6h77.3v62.6Z"/></clipPath>
<clipPath id="c8_38"><path d="M177.5,882.9L171,880.8l-16.4,-14v-57h72v73.1Z"/></clipPath>
<clipPath id="c9_38"><path d="M183.1,338.6V252.4H303.6v86.2Z"/></clipPath>
<clipPath id="ca_38"><path d="M510.3,338.6V252.4H630.8v86.2Z"/></clipPath>
<clipPath id="cb_38"><path d="M346.7,338.6V252.4H467.2v86.2Z"/></clipPath>
<clipPath id="cc_38"><path d="M183.1,475V388.8H303.6V475Z"/></clipPath>
<clipPath id="cd_38"><path d="M510.3,475V388.8H630.8V475Z"/></clipPath>
<clipPath id="ce_38"><path d="M346.7,475V388.8H467.2V475Z"/></clipPath>
<clipPath id="cf_38"><path d="M673.9,475V388.8H794.4V475Z"/></clipPath>
<clipPath id="cg_38"><path d="M183.1,611.4V525.2H291v86.2Z"/></clipPath>
<clipPath id="ch_38"><path d="M308.9,611.4V525.2H416.8v86.2Z"/></clipPath>
<clipPath id="ci_38"><path d="M434.8,611.4V525.2H542.7v86.2Z"/></clipPath>
<clipPath id="cj_38"><path d="M560.7,611.4V525.2H668.5v86.2Z"/></clipPath>
<clipPath id="ck_38"><path d="M686.5,611.4V525.2H794.4v86.2Z"/></clipPath>
<clipPath id="cl_38"><path d="M176.6,233.9l-6.5,-2.1l-16.4,-14V160.7h72v73.2Z"/></clipPath>
<style type="text/css"><![CDATA[
.g0_38{
fill: #FEFCF4;
}
.g1_38{
fill: #FFF;
}
.g2_38{
fill: none;
stroke: #6381B7;
stroke-width: 0.763;
}
.g3_38{
fill: #93BEDA;
}
.g4_38{
fill: #6381B7;
}
.g5_38{
fill: none;
stroke: #6381B7;
stroke-width: 0.381;
stroke-dasharray: 2,1;
}
.g6_38{
fill: none;
stroke: #6381B7;
stroke-width: 0.381;
}
.g7_38{
fill: #FCE8B0;
}
.g8_38{
fill: none;
stroke: #949698;
stroke-width: 0.381;
}
.g9_38{
fill: #25408F;
}
.ga_38{
fill: #00BAF1;
}
.gb_38{
fill: #332D2C;
}
.gc_38{
fill: #D9DFF0;
}
.gd_38{
fill: #F27C85;
}
.ge_38{
fill: #7DD3F6;
}
.gf_38{
fill: none;
stroke: #FFF;
stroke-width: 1.909;
stroke-miterlimit: 10;
}
.gg_38{
fill: none;
stroke: #000;
stroke-width: 0.381;
stroke-miterlimit: 10;
}
]]></style>
</defs>
<path d="M32.1,1344.3H954.5V32.1H32.1V1344.3Z" class="g0_38"/>
<path d="M145.3,895.9c0,0,-13,0,-13,12.9V1188c0,0,0,13,13,13H833.1c0,0,13,0,13,-13V908.8c0,0,0,-12.9,-13,-12.9Z" class="g1_38"/>
<path d="M145.3,895.9c0,0,-13,0,-13,12.9V1188c0,0,0,13,13,13H833.1c0,0,13,0,13,-13V908.8c0,0,0,-12.9,-13,-12.9H145.3Z" class="g2_38"/>
<image clip-path="url(#c0_38)" preserveAspectRatio="none" x="722" y="1128" width="67" height="63" xlink:href="img/1.jpg"/>
<image clip-path="url(#c1_38)" preserveAspectRatio="none" x="551" y="1122" width="73" height="63" xlink:href="img/2.jpg"/>
<image clip-path="url(#c2_38)" preserveAspectRatio="none" x="381" y="1129" width="67" height="63" xlink:href="img/3.jpg"/>
<image clip-path="url(#c3_38)" preserveAspectRatio="none" x="220" y="1122" width="69" height="63" xlink:href="img/4.jpg"/>
<image clip-path="url(#c4_38)" preserveAspectRatio="none" x="719" y="1013" width="79" height="64" xlink:href="img/5.jpg"/>
<image clip-path="url(#c5_38)" preserveAspectRatio="none" x="548" y="1013" width="80" height="62" xlink:href="img/6.jpg"/>
<image clip-path="url(#c6_38)" preserveAspectRatio="none" x="380" y="1012" width="79" height="65" xlink:href="img/7.jpg"/>
<image clip-path="url(#c7_38)" preserveAspectRatio="none" x="218" y="1009" width="79" height="64" xlink:href="img/8.jpg"/>
<path d="M411.5,974.9c1.9,0,3.6,-1.6,3.6,-3.6c0,-2,-1.7,-3.6,-3.6,-3.6c-2,0,-3.7,1.6,-3.7,3.6c0,2,1.7,3.6,3.7,3.6Z" class="g3_38"/>
<path d="M411.5,1003.5c1.9,0,3.6,-1.6,3.6,-3.6c0,-2,-1.7,-3.6,-3.6,-3.6c-2,0,-3.7,1.6,-3.7,3.6c0,2,1.7,3.6,3.7,3.6Z" class="g3_38"/>
<path d="M411.5,1092.4c1.9,0,3.6,-1.7,3.6,-3.7c0,-1.9,-1.7,-3.6,-3.6,-3.6c-2,0,-3.7,1.7,-3.7,3.6c0,2,1.7,3.7,3.7,3.7Z" class="g3_38"/>
<path d="M411.5,1121c1.9,0,3.6,-1.6,3.6,-3.6c0,-2,-1.7,-3.6,-3.6,-3.6c-2,0,-3.7,1.6,-3.7,3.6c0,2,1.7,3.6,3.7,3.6Z" class="g3_38"/>
<path d="M579.8,974.9c2,0,3.6,-1.6,3.6,-3.6c0,-2,-1.6,-3.6,-3.6,-3.6c-2,0,-3.6,1.6,-3.6,3.6c0,2,1.6,3.6,3.6,3.6Z" class="g3_38"/>
<path d="M579.8,1003.5c2,0,3.6,-1.6,3.6,-3.6c0,-2,-1.6,-3.6,-3.6,-3.6c-2,0,-3.6,1.6,-3.6,3.6c0,2,1.6,3.6,3.6,3.6Z" class="g3_38"/>
<path d="M579.8,1092.4c2,0,3.6,-1.7,3.6,-3.7c0,-1.9,-1.6,-3.6,-3.6,-3.6c-2,0,-3.6,1.7,-3.6,3.6c0,2,1.6,3.7,3.6,3.7Z" class="g3_38"/>
<path d="M579.8,1121c2,0,3.6,-1.6,3.6,-3.6c0,-2,-1.6,-3.6,-3.6,-3.6c-2,0,-3.6,1.6,-3.6,3.6c0,2,1.6,3.6,3.6,3.6Z" class="g3_38"/>
<path d="M750.4,974.9c2,0,3.6,-1.6,3.6,-3.6c0,-2,-1.6,-3.6,-3.6,-3.6c-2,0,-3.6,1.6,-3.6,3.6c0,2,1.6,3.6,3.6,3.6Z" class="g3_38"/>
<path d="M750.4,1003.5c2,0,3.6,-1.6,3.6,-3.6c0,-2,-1.6,-3.6,-3.6,-3.6c-2,0,-3.6,1.6,-3.6,3.6c0,2,1.6,3.6,3.6,3.6Z" class="g3_38"/>
<path d="M750.4,1092.4c2,0,3.6,-1.7,3.6,-3.7c0,-1.9,-1.6,-3.6,-3.6,-3.6c-2,0,-3.6,1.7,-3.6,3.6c0,2,1.6,3.7,3.6,3.7Z" class="g3_38"/>
<path d="M750.4,1121c2,0,3.6,-1.6,3.6,-3.6c0,-2,-1.6,-3.6,-3.6,-3.6c-2,0,-3.6,1.6,-3.6,3.6c0,2,1.6,3.6,3.6,3.6Z" class="g3_38"/>
<path d="M249.6,974.9c2,0,3.6,-1.6,3.6,-3.6c0,-2,-1.6,-3.6,-3.6,-3.6c-2,0,-3.6,1.6,-3.6,3.6c0,2,1.6,3.6,3.6,3.6Z" class="g3_38"/>
<path d="M249.6,1003.5c2,0,3.6,-1.6,3.6,-3.6c0,-2,-1.6,-3.6,-3.6,-3.6c-2,0,-3.6,1.6,-3.6,3.6c0,2,1.6,3.6,3.6,3.6Z" class="g3_38"/>
<path d="M249.6,1092.4c2,0,3.6,-1.7,3.6,-3.7c0,-1.9,-1.6,-3.6,-3.6,-3.6c-2,0,-3.6,1.7,-3.6,3.6c0,2,1.6,3.7,3.6,3.7Z" class="g3_38"/>
<path d="M249.6,1121c2,0,3.6,-1.6,3.6,-3.6c0,-2,-1.6,-3.6,-3.6,-3.6c-2,0,-3.6,1.6,-3.6,3.6c0,2,1.6,3.6,3.6,3.6Z" class="g3_38"/>
<path d="M583,1216.5c0,0,-4.3,0,-4.3,4.3v10.9c0,0,0,4.3,4.3,4.3h30.3c0,0,4.3,0,4.3,-4.3v-10.9c0,0,0,-4.3,-4.3,-4.3Z" class="g4_38"/>
<path d="M569.8,1209v34.9m1.4,.9H845.6m1,-1.3v-34.9m-1.4,-.9H570.8" class="g5_38"/>
<path d="M569.8,1244.3v.6h.6m275.6,0h.6v-.6m0,-36.1v-.5H846m-275.6,0h-.6v.5" class="g6_38"/>
<path d="M210.1,837.9c0,0,-12.9,0,-12.9,13v21.6c0,0,0,13,12.9,13H833.5c0,0,13,0,13,-13V850.9c0,0,0,-13,-13,-13Z" class="g7_38"/>
<image clip-path="url(#c8_38)" preserveAspectRatio="none" x="153" y="808" width="75" height="76" xlink:href="img/9.png"/>
<path d="M204.9,878.2c0,0,-26.8,11.3,-51.1,-12.8c0,0,15.2,25.3,49.3,24c0,0,24.8,.3,20.3,-10.1c0,0,1.2,-4.5,-18.5,-1.1Z" class="g7_38"/>
<path d="M150.4,133.6c0,0,-18.3,0,-18.3,18.4V785.8c0,0,0,18.3,18.3,18.3H827.5c0,0,18.4,0,18.4,-18.3V133.6Z" class="g1_38"/>
<path d="M150.4,133.6c0,0,-18.3,0,-18.3,18.4V785.8c0,0,0,18.3,18.3,18.3H827.5c0,0,18.4,0,18.4,-18.3V133.6H150.4Z" class="g2_38"/>
<path d="M183.1,338.6H303.6V252.4H183.1v86.2Z" class="g1_38"/>
<image clip-path="url(#c9_38)" preserveAspectRatio="none" x="181" y="251" width="124" height="89" xlink:href="img/10.png"/>
<path d="M183.1,338.6H303.6V252.4H183.1v86.2Z" class="g8_38"/>
<path d="M510.3,338.6H630.8V252.4H510.3v86.2Z" class="g1_38"/>
<image clip-path="url(#ca_38)" preserveAspectRatio="none" x="509" y="251" width="124" height="89" xlink:href="img/11.png"/>
<path d="M510.3,338.6H630.8V252.4H510.3v86.2Z" class="g8_38"/>
<path d="M346.7,338.6H467.2V252.4H346.7v86.2Z" class="g1_38"/>
<image clip-path="url(#cb_38)" preserveAspectRatio="none" x="345" y="251" width="124" height="89" xlink:href="img/12.png"/>
<path d="M346.7,338.6H467.2V252.4H346.7v86.2Z" class="g8_38"/>
<path d="M183.1,475H303.6V388.8H183.1V475Z" class="g1_38"/>
<image clip-path="url(#cc_38)" preserveAspectRatio="none" x="181" y="387" width="124" height="90" xlink:href="img/13.jpg"/>
<path d="M183.1,475H303.6V388.8H183.1V475Z" class="g8_38"/>
<path d="M510.3,475H630.8V388.8H510.3V475Z" class="g1_38"/>
<image clip-path="url(#cd_38)" preserveAspectRatio="none" x="509" y="387" width="123" height="90" xlink:href="img/14.png"/>
<path d="M510.3,475H630.8V388.8H510.3V475Z" class="g8_38"/>
<path d="M346.7,475H467.2V388.8H346.7V475Z" class="g1_38"/>
<image clip-path="url(#ce_38)" preserveAspectRatio="none" x="345" y="387" width="124" height="90" xlink:href="img/15.png"/>
<path d="M346.7,475H467.2V388.8H346.7V475Z" class="g8_38"/>
<path d="M673.9,475H794.4V388.8H673.9V475Z" class="g1_38"/>
<image clip-path="url(#cf_38)" preserveAspectRatio="none" x="672" y="387" width="124" height="90" xlink:href="img/16.png"/>
<path d="M673.9,475H794.4V388.8H673.9V475Z" class="g8_38"/>
<path d="M183.1,611.4H291V525.2H183.1v86.2Z" class="g1_38"/>
<image clip-path="url(#cg_38)" preserveAspectRatio="none" x="181" y="524" width="112" height="89" xlink:href="img/17.png"/>
<path d="M183.1,611.4H291V525.2H183.1v86.2Z" class="g8_38"/>
<path d="M308.9,611.4H416.8V525.2H308.9v86.2Z" class="g1_38"/>
<image clip-path="url(#ch_38)" preserveAspectRatio="none" x="307" y="524" width="112" height="89" xlink:href="img/18.png"/>
<path d="M308.9,611.4H416.8V525.2H308.9v86.2Z" class="g8_38"/>
<path d="M434.8,611.4H542.7V525.2H434.8v86.2Z" class="g1_38"/>
<image clip-path="url(#ci_38)" preserveAspectRatio="none" x="433" y="523" width="111" height="90" xlink:href="img/19.png"/>
<path d="M434.8,611.4H542.7V525.2H434.8v86.2Z" class="g8_38"/>
<path d="M560.7,611.4H668.5V525.2H560.7v86.2Z" class="g1_38"/>
<image clip-path="url(#cj_38)" preserveAspectRatio="none" x="559" y="523" width="111" height="90" xlink:href="img/20.png"/>
<path d="M560.7,611.4H668.5V525.2H560.7v86.2Z" class="g8_38"/>
<path d="M686.5,611.4H794.4V525.2H686.5v86.2Z" class="g1_38"/>
<image clip-path="url(#ck_38)" preserveAspectRatio="none" x="685" y="524" width="111" height="89" xlink:href="img/21.png"/>
<path d="M686.5,611.4H794.4V525.2H686.5v86.2Z" class="g8_38"/>
<path d="M183.1,747.8H291V661.6H183.1v86.2Z" class="g1_38"/>
<image preserveAspectRatio="none" x="194" y="662" width="86" height="86" xlink:href="img/22.png"/>
<path d="M183.1,747.8H291V661.6H183.1v86.2Z" class="g8_38"/>
<path d="M308.9,747.8H416.8V661.6H308.9v86.2Z" class="g1_38"/>
<image preserveAspectRatio="none" x="320" y="662" width="86" height="86" xlink:href="img/23.png"/>
<path d="M308.9,747.8H416.8V661.6H308.9v86.2Z" class="g8_38"/>
<path d="M434.8,747.8H542.7V661.6H434.8v86.2Z" class="g1_38"/>
<image preserveAspectRatio="none" x="446" y="662" width="86" height="86" xlink:href="img/24.png"/>
<path d="M434.8,747.8H542.7V661.6H434.8v86.2Z" class="g8_38"/>
<path d="M560.7,747.8H668.5V661.6H560.7v86.2Z" class="g1_38"/>
<image preserveAspectRatio="none" x="571" y="662" width="87" height="86" xlink:href="img/25.png"/>
<path d="M560.7,747.8H668.5V661.6H560.7v86.2Z" class="g8_38"/>
<path d="M686.5,747.8H794.4V661.6H686.5v86.2Z" class="g1_38"/>
<image preserveAspectRatio="none" x="697" y="662" width="87" height="86" xlink:href="img/26.png"/>
<path d="M686.5,747.8H794.4V661.6H686.5v86.2Z" class="g8_38"/>
<path d="M209.2,188.9c0,0,-13,0,-13,13v21.6c0,0,0,13,13,13h602c0,0,13,0,13,-13V201.9c0,0,0,-13,-13,-13Z" class="g7_38"/>
<image clip-path="url(#cl_38)" preserveAspectRatio="none" x="152" y="159" width="75" height="76" xlink:href="img/27.png"/>
<path d="M204,229.2c0,0,-26.8,11.3,-51.1,-12.8c0,0,15.2,25.3,49.3,24c0,0,24.8,.3,20.3,-10.2c0,0,1.2,-4.4,-18.5,-1Z" class="g7_38"/>
<path d="M131.7,126.7v22.2l11.7,10.3V137Z" class="g9_38"/>
<path d="M131.7,109.9v39H829.4c0,0,16.9,0,16.9,-16.8v-5.4c0,0,0,-16.8,-16.9,-16.8Z" class="g4_38"/>
<path d="M189.6,121.3l-6.4,-6.5L162,136l6.4,6.5Z" class="ga_38"/>
<path d="M168.4,143c.2,0,.3,0,.4,-.1L190,121.7c.1,-.1,.2,-.3,.2,-.4c0,-.1,-.1,-.3,-.2,-.4l-6.5,-6.4c-.2,-.2,-.5,-.2,-.7,0l-21.2,21.2c-.1,.1,-.2,.2,-.2,.3c0,.2,.1,.3,.2,.4l6.5,6.5c.1,.1,.2,.1,.3,.1m20.5,-21.7l-20.5,20.5L162.7,136l20.5,-20.4Z" class="gb_38"/>
<path d="M189.6,121.3l-6.4,-6.5l2.1,-2.1l6.5,6.5Z" class="gc_38"/>
<path d="M189.6,121.8c.2,0,.3,0,.4,-.1l2.1,-2.1c.1,-.1,.2,-.3,.2,-.4c0,-.2,-.1,-.3,-.2,-.4l-6.4,-6.5c-.2,-.2,-.6,-.2,-.8,0l-2.1,2.2c-.1,0,-.2,.2,-.2,.3c0,.2,.1,.3,.2,.4l6.5,6.5c.1,.1,.2,.1,.3,.1m1.4,-2.6l-1.4,1.4l-5.7,-5.8l1.4,-1.4Z" class="gb_38"/>
<path d="M195.4,115.6l-6.5,-6.5l-3.6,3.6l6.5,6.5Z" class="gd_38"/>
<path d="M191.8,119.7c.1,0,.2,0,.3,-.1l3.7,-3.7c.2,-.2,.2,-.5,0,-.7l-6.5,-6.5c-.2,-.2,-.6,-.2,-.8,0l-3.6,3.6c-.2,.2,-.2,.6,0,.8l6.5,6.5c.1,.1,.2,.1,.4,.1m2.8,-4.1l-2.8,2.8L186,112.7l2.9,-2.9Z" class="gb_38"/>
<path d="M157.3,147.2L162,136l6.4,6.5Z" class="g1_38"/>
<path d="M157.3,147.7c.1,0,.2,0,.2,-.1L168.6,143c.2,-.1,.3,-.2,.4,-.4c0,-.2,-.1,-.3,-.2,-.5l-6.5,-6.4c-.1,-.2,-.3,-.2,-.5,-.2c-.1,.1,-.3,.2,-.3,.3l-4.7,11.1c0,.2,0,.5,.1,.6c.1,.1,.3,.2,.4,.2m10.2,-5.4l-9.2,3.9l3.8,-9.2Z" class="gb_38"/>
<path d="M157.3,147.2l2.3,-5.4l3.1,3.1Z" class="gb_38"/>
<path d="M157.3,147.7c.1,0,.2,0,.2,-.1l5.4,-2.2c.1,-.1,.3,-.2,.3,-.4c0,-.2,0,-.3,-.1,-.5l-3.2,-3.1c-.1,-.1,-.3,-.2,-.4,-.1c-.2,0,-.4,.1,-.4,.3l-2.3,5.3c0,.2,0,.5,.1,.6c.1,.1,.3,.2,.4,.2m4.5,-3l-3.5,1.5l1.4,-3.5Z" class="gb_38"/>
<path d="M187.9,119.5l-3,-2.9l-21.2,21.2l3,3Z" class="ge_38"/>
<path d="M166.7,141.3c.1,0,.2,-.1,.3,-.2l21.3,-21.2c.1,-.1,.1,-.2,.1,-.4c0,-.1,0,-.2,-.1,-.3l-3,-3c-.2,-.2,-.5,-.2,-.8,0l-21.2,21.2c-.1,.1,-.1,.3,-.1,.4c0,.1,0,.3,.1,.4l3,2.9c.1,.1,.2,.2,.4,.2m20.4,-21.8L166.7,140l-2.2,-2.2l20.4,-20.5Z" class="gb_38"/>
<path d="M32.1,45.1H9.2m958.3,0h22.9M32.1,1331.3H9.2m958.3,0h22.9M45.1,32.1V9.2m0,1335.1v22.9M954.5,32.1V9.2m0,1335.1v22.9" class="gf_38"/>
<path d="M32.1,45.1H9.2m958.3,0h22.9M32.1,1331.3H9.2m958.3,0h22.9M45.1,32.1V9.2m0,1335.1v22.9M954.5,32.1V9.2m0,1335.1v22.9" class="gg_38"/>
<path d="M27.5,32.1H0m972.1,0h27.5M27.5,1344.3H0m972.1,0h27.5M32.1,27.5V0m0,1348.9v27.5M967.5,27.5V0m0,1348.9v27.5" class="gf_38"/>
<path d="M27.5,32.1H0m972.1,0h27.5M27.5,1344.3H0m972.1,0h27.5M32.1,27.5V0m0,1348.9v27.5M967.5,27.5V0m0,1348.9v27.5" class="gg_38"/>
</svg>