<?xml version="1.0" encoding="UTF-8" standalone="no"?>
<!DOCTYPE svg PUBLIC "-//W3C//DTD SVG 1.1//EN"
"http://www.w3.org/Graphics/SVG/1.1/DTD/svg11.dtd">
<svg viewBox="0 0 999 1376" version="1.1" xmlns="http://www.w3.org/2000/svg" xmlns:xlink="http://www.w3.org/1999/xlink">
<defs>
<clipPath id="c0_244"><path d="M233.3,568V456.1H362.7V568Z"/></clipPath>
<clipPath id="c1_244"><path d="M671.9,582.8V509.7h87.8v73.1Z"/></clipPath>
<clipPath id="c2_244"><path d="M671.9,760.4V687.3h87.8v73.1Z"/></clipPath>
<clipPath id="c3_244"><path d="M671.9,935.1V862h87.8v73.1Z"/></clipPath>
<clipPath id="c4_244"><path d="M674.7,1110v-73h87.9v73Z"/></clipPath>
<clipPath id="c5_244"><path d="M234,742.6v-113H367v113Z"/></clipPath>
<clipPath id="c6_244"><path d="M244.1,925.9V808.2H361.7V925.9Z"/></clipPath>
<clipPath id="c7_244"><path d="M252.6,1105.9V1000.1h113v105.8Z"/></clipPath>
<clipPath id="c8_244"><path d="M673.5,413.5L651.2,401.7H274.6V249.5H774.2v164Z"/></clipPath>
<style type="text/css"><![CDATA[
.g0_244{
fill: none;
stroke: #6381B7;
stroke-width: 0.763;
}
.g1_244{
fill: #48484A;
}
.g2_244{
fill: #F0E8F3;
}
.g3_244{
fill: #FFF;
}
.g4_244{
fill: none;
stroke: #949698;
stroke-width: 0.702;
}
.g5_244{
fill: #6381B7;
}
.g6_244{
fill: none;
stroke: #6381B7;
stroke-width: 0.381;
stroke-dasharray: 2,1;
}
.g7_244{
fill: none;
stroke: #6381B7;
stroke-width: 0.381;
}
.g8_244{
fill: #766FA6;
}
.g9_244{
fill: #25408F;
}
.ga_244{
fill: #F37553;
}
.gb_244{
fill: #363637;
}
.gc_244{
fill: #EAD646;
}
.gd_244{
fill: #506CB4;
}
.ge_244{
fill: #5CC4BE;
}
.gf_244{
fill: none;
stroke: #FFF;
stroke-width: 1.909;
stroke-miterlimit: 10;
}
.gg_244{
fill: none;
stroke: #000;
stroke-width: 0.381;
stroke-miterlimit: 10;
}
]]></style>
</defs>
<path d="M145.1,167c0,0,-13,0,-13,13v980.6c0,0,0,13,13,13H832.9c0,0,13,0,13,-13V180c0,0,0,-13,-13,-13H145.1Z" class="g0_244"/>
<path d="M170.7,247c0,0,-4.4,0,-4.4,4.3v14.4c0,0,0,4.4,4.1,5.8l52.5,18.2c0,0,4.1,1.5,4.1,-2.9V251.3c0,0,0,-4.3,-4.4,-4.3Z" class="g1_244"/>
<path d="M191.8,234.2c0,0,-13,0,-13,13V430.3c0,0,0,13,13,13H789.4c0,0,13,0,13,-13V247.2c0,0,0,-13,-13,-13Z" class="g2_244"/>
<path d="M231.1,568H384.5V456.1H231.1V568Z" class="g3_244"/>
<image clip-path="url(#c0_244)" preserveAspectRatio="none" x="233" y="455" width="130" height="113" xlink:href="img/1.jpg"/>
<image clip-path="url(#c1_244)" preserveAspectRatio="none" x="670" y="508" width="91" height="75" xlink:href="img/2.jpg"/>
<image clip-path="url(#c2_244)" preserveAspectRatio="none" x="670" y="686" width="91" height="74" xlink:href="img/3.jpg"/>
<image clip-path="url(#c3_244)" preserveAspectRatio="none" x="670" y="860" width="91" height="75" xlink:href="img/4.jpg"/>
<image clip-path="url(#c4_244)" preserveAspectRatio="none" x="673" y="1035" width="91" height="75" xlink:href="img/5.jpg"/>
<path d="M474.1,508.9c0,-24.6,48.9,-44.6,109.2,-44.6c60.3,0,109.2,20,109.2,44.6c0,15.8,-20,29.6,-50.1,37.5c5.4,4.4,13.9,10.7,20.2,12.9c0,0,-25.3,-2,-40.1,-8.8c-12.1,2,-25.4,3,-39.2,3C523,553.5,474.1,533.6,474.1,508.9Z" class="g3_244"/>
<path d="M474.1,508.9c0,-24.6,48.9,-44.6,109.2,-44.6c60.3,0,109.2,20,109.2,44.6c0,15.8,-20,29.6,-50.1,37.5c5.4,4.4,13.9,10.7,20.2,12.9c0,0,-25.3,-2,-40.1,-8.8c-12.1,2,-25.4,3,-39.2,3C523,553.5,474.1,533.6,474.1,508.9Z" class="g4_244"/>
<path d="M211.5,742.6H387.1v-113H211.5v113Z" class="g3_244"/>
<image clip-path="url(#c5_244)" preserveAspectRatio="none" x="234" y="628" width="133" height="115" xlink:href="img/6.jpg"/>
<path d="M474.7,684.6c0,-24.7,48.9,-44.6,109.2,-44.6c60.3,0,109.2,19.9,109.2,44.6c0,15.7,-20,29.5,-50.1,37.5c5.4,4.3,13.9,10.6,20.2,12.8c0,0,-25.3,-1.9,-40,-8.7c-12.2,1.9,-25.5,3,-39.3,3c-60.3,0,-109.2,-20,-109.2,-44.6Z" class="g3_244"/>
<path d="M474.7,684.6c0,-24.7,48.9,-44.6,109.2,-44.6c60.3,0,109.2,19.9,109.2,44.6c0,15.7,-20,29.5,-50.1,37.5c5.4,4.3,13.9,10.6,20.2,12.8c0,0,-25.3,-1.9,-40,-8.7c-12.2,1.9,-25.5,3,-39.3,3c-60.3,0,-109.2,-20,-109.2,-44.6Z" class="g4_244"/>
<path d="M226.1,925.9H381.5V808.2H226.1V925.9Z" class="g3_244"/>
<image clip-path="url(#c6_244)" preserveAspectRatio="none" x="244" y="808" width="118" height="118" xlink:href="img/7.jpg"/>
<path d="M474.4,864c0,-24.6,48.9,-44.6,109.2,-44.6c60.3,0,109.2,20,109.2,44.6c0,15.7,-20,29.6,-50.1,37.5c5.4,4.4,13.9,10.6,20.2,12.8c0,0,-25.3,-1.9,-40.1,-8.7c-12.1,1.9,-25.4,3,-39.2,3c-60.3,0,-109.2,-20,-109.2,-44.6Z" class="g3_244"/>
<path d="M474.4,864c0,-24.6,48.9,-44.6,109.2,-44.6c60.3,0,109.2,20,109.2,44.6c0,15.7,-20,29.6,-50.1,37.5c5.4,4.4,13.9,10.6,20.2,12.8c0,0,-25.3,-1.9,-40.1,-8.7c-12.1,1.9,-25.4,3,-39.2,3c-60.3,0,-109.2,-20,-109.2,-44.6Z" class="g4_244"/>
<path d="M243.4,1105.9H365.6V1000.1H243.4v105.8Z" class="g3_244"/>
<image clip-path="url(#c7_244)" preserveAspectRatio="none" x="253" y="999" width="114" height="108" xlink:href="img/8.jpg"/>
<path d="M475,1039.6C475,1015,523.9,995,584.2,995c60.3,0,109.2,20,109.2,44.6c0,15.8,-19.9,29.6,-50.1,37.5c5.5,4.4,13.9,10.7,20.2,12.9c0,0,-25.3,-2,-40,-8.7c-12.2,1.9,-25.4,2.9,-39.3,2.9c-60.3,0,-109.2,-19.9,-109.2,-44.6Z" class="g3_244"/>
<path d="M475,1039.6C475,1015,523.9,995,584.2,995c60.3,0,109.2,20,109.2,44.6c0,15.8,-19.9,29.6,-50.1,37.5c5.5,4.4,13.9,10.7,20.2,12.9c0,0,-25.3,-2,-40,-8.7c-12.2,1.9,-25.4,2.9,-39.3,2.9c-60.3,0,-109.2,-19.9,-109.2,-44.6Z" class="g4_244"/>
<image clip-path="url(#c8_244)" preserveAspectRatio="none" x="273" y="248" width="503" height="167" xlink:href="img/9.jpg"/>
<path d="M483.3,352.6H673.9v-52H483.3v52Z" class="g3_244"/>
<path d="M153.7,1188.7c0,0,-4.3,0,-4.3,4.3v10.8c0,0,0,4.4,4.3,4.4H184c0,0,4.4,0,4.4,-4.4V1193c0,0,0,-4.3,-4.4,-4.3Z" class="g5_244"/>
<path d="M140.5,1181.1V1236m1.4,1H845.1m1,-1.3v-54.9m-1.4,-1H141.5" class="g6_244"/>
<path d="M140.5,1236.4v.6h.6m704.4,0h.6v-.6m0,-56v-.6h-.6m-704.4,0h-.6v.6" class="g7_244"/>
<path d="M189.9,626.1H418.2V576H189.9v50.1Z" class="g3_244"/>
<path d="M189.9,982.1H418.2V932H189.9v50.1Z" class="g3_244"/>
<path d="M180.6,1158.4H427.5v-50.1H180.6v50.1Z" class="g3_244"/>
<path d="M189.9,794.3H418.2V751H189.9v43.3Z" class="g3_244"/>
<path d="M712.4,323.3c0,-32.9,-63,-59.5,-140.7,-59.5C494,263.8,431,290.4,431,323.3c0,32.9,63,59.6,140.7,59.6c26.1,0,50.4,-3,71.4,-8.3c5.2,4.4,16.8,9.7,41.6,7.9c0,0,-14.7,-4.8,-19.8,-14.6C694,357,712.4,341.1,712.4,323.3Z" class="g3_244"/>
<path d="M170.6,244.9c0,0,-4.3,0,-4.3,4.3v16.9c0,0,0,4.4,4.3,4.4h34.8c0,0,4.2,0,4.2,-4.4V249.2c0,0,0,-4.3,-4.2,-4.3Z" class="g8_244"/>
<path d="M132.2,126.3v22.2l11.7,10.2V136.5Z" class="g9_244"/>
<path d="M132.2,109.5v39H829.9c0,0,16.9,0,16.9,-16.8v-5.4c0,0,0,-16.8,-16.9,-16.8Z" class="g5_244"/>
<path d="M166,111.6c.7,-.6,1.7,-.8,2.5,-.6l1.3,-1.3l-6.2,-6.1l-6.1,6.1l-1.3,-1.3c.2,-.8,0,-1.8,-.6,-2.4c-1,-1,-2.6,-1,-3.6,0c-1,1,-1,2.6,0,3.6c.6,.6,1.6,.9,2.4,.6l1.3,1.3l-6.1,6.1l6.1,6.2l-1.3,1.3c-.8,-.3,-1.8,-.1,-2.4,.6c-1,1,-1,2.6,0,3.6c1,1,2.6,1,3.6,0c.6,-.7,.9,-1.6,.6,-2.4l1.3,-1.3l6.1,6.1l6.2,-6.1l-1.3,-1.3c-.9,.2,-1.8,0,-2.5,-.7c-1,-1,-1,-2.6,0,-3.6c1,-1,2.6,-1,3.6,0c.7,.7,.9,1.6,.7,2.5l1.3,1.3l6.1,-6.2l-6.1,-6.1l-1.3,1.3c.2,.8,0,1.8,-.7,2.4c-1,1,-2.6,1,-3.6,0c-1,-.9,-1,-2.6,0,-3.6Z" class="ga_244"/>
<path d="M163.6,132.3l-6.1,-6.2l-.8,.9c.1,.9,-.2,1.9,-.8,2.6c-1.2,1.1,-3.1,1.1,-4.2,0c-1.2,-1.2,-1.2,-3,0,-4.2c.7,-.7,1.6,-1,2.6,-.8l.8,-.8L149,117.6l6.1,-6.1l-.8,-.8c-1,.1,-1.9,-.2,-2.6,-.8c-.6,-.6,-.9,-1.3,-.9,-2.1c0,-.8,.3,-1.5,.9,-2.1c1.1,-1.1,3,-1.1,4.1,0c.7,.7,1,1.7,.9,2.6l.8,.8l6.1,-6.1l6.7,6.7l-1.7,1.7h-.2c-.7,-.2,-1.5,0,-2.1,.5c-.8,.9,-.8,2.2,0,3.1c.9,.8,2.2,.8,3.1,0c.5,-.6,.7,-1.4,.5,-2.1v-.2l1.7,-1.7l6.7,6.6l-6.7,6.7l-1.8,-1.7l.1,-.2c.2,-.8,0,-1.5,-.6,-2.1c-.4,-.4,-.9,-.6,-1.5,-.6c-.5,0,-1.1,.2,-1.5,.6c-.8,.8,-.8,2.2,0,3c.5,.6,1.3,.8,2.1,.6l.2,-.1l1.7,1.8ZM157.5,125l6.1,6.1l5.6,-5.5l-.8,-.9c-1,.2,-2,-.1,-2.7,-.8c-.5,-.5,-.8,-1.3,-.8,-2.1c0,-.7,.3,-1.5,.8,-2c.6,-.6,1.3,-.9,2.1,-.9c.8,0,1.6,.3,2.1,.9c.7,.6,1,1.6,.8,2.6l.9,.8l5.5,-5.6l-5.5,-5.5l-.9,.8c.2,1,-.1,1.9,-.8,2.6c-1.1,1.2,-3,1.2,-4.1,0c-1.2,-1.1,-1.2,-3,0,-4.1c.6,-.7,1.6,-1,2.6,-.8l.8,-.9l-5.6,-5.6l-6.1,6.2l-1.7,-1.7v-.3c.2,-.7,0,-1.5,-.5,-2c-.9,-.9,-2.2,-.9,-3.1,0c-.4,.4,-.6,.9,-.6,1.5c0,.6,.2,1.1,.6,1.5c.6,.5,1.4,.8,2.1,.6l.2,-.1l1.8,1.7l-6.2,6.1l6.2,6.2l-1.8,1.7l-.2,-.1c-.7,-.2,-1.5,.1,-2,.6c-.9,.8,-.9,2.2,0,3c.8,.9,2.2,.9,3,0c.5,-.5,.7,-1.3,.5,-2v-.3Z" class="gb_244"/>
<path d="M196.6,122.1c.9,0,1.8,.5,2.2,1.3h1.8v-8.7h-8.7v-1.8c.8,-.4,1.3,-1.2,1.3,-2.2c0,-1.4,-1.1,-2.5,-2.5,-2.5c-1.5,0,-2.6,1.1,-2.6,2.5c0,1,.5,1.8,1.3,2.2v1.8h-8.7v8.7h-1.8c-.4,-.8,-1.2,-1.3,-2.2,-1.3c-1.4,0,-2.5,1.2,-2.5,2.6c0,1.4,1.1,2.5,2.5,2.5c1,0,1.8,-.5,2.2,-1.2h1.8v8.6h8.7v-1.8c-.8,-.4,-1.3,-1.2,-1.3,-2.2c0,-1.4,1.2,-2.5,2.6,-2.5c1.4,0,2.5,1.1,2.5,2.5c0,1,-.5,1.8,-1.3,2.2v1.8h8.7V126h-1.8c-.4,.7,-1.2,1.2,-2.2,1.2c-1.4,0,-2.5,-1.1,-2.5,-2.5c0,-1.4,1.1,-2.6,2.5,-2.6Z" class="gc_244"/>
<path d="M201,135h-9.5v-2.4l.2,-.1c.7,-.4,1.1,-1.1,1.1,-1.9c0,-1.2,-1,-2.1,-2.1,-2.1c-1.2,0,-2.2,.9,-2.2,2.1c0,.8,.4,1.5,1.1,1.9l.2,.1V135h-9.5v-8.6h-1.2c-.5,.7,-1.4,1.2,-2.4,1.2c-1.6,0,-2.9,-1.3,-2.9,-2.9c0,-1.6,1.3,-3,2.9,-3c1,0,1.9,.5,2.4,1.3h1.2v-8.7H189v-1.1c-.8,-.6,-1.3,-1.5,-1.3,-2.5c0,-1.6,1.3,-2.9,3,-2.9c1.6,0,2.9,1.3,2.9,2.9c0,1,-.5,1.9,-1.3,2.5v1.1H201v9.5h-2.4l-.1,-.2c-.4,-.6,-1.1,-1.1,-1.9,-1.1c-.6,0,-1.1,.3,-1.5,.7c-.4,.4,-.6,.9,-.6,1.5c0,1.2,.9,2.1,2.1,2.1c.8,0,1.5,-.4,1.9,-1l.1,-.2H201Zm-8.7,-.8h7.9v-7.8H199c-.5,.7,-1.4,1.2,-2.4,1.2c-1.6,0,-2.9,-1.3,-2.9,-2.9c0,-.8,.3,-1.5,.8,-2.1c.6,-.5,1.3,-.9,2.1,-.9c1,0,1.9,.5,2.4,1.3h1.2v-7.9h-8.7v-2.4l.2,-.1c.7,-.4,1.1,-1.1,1.1,-1.9c0,-1.2,-1,-2.1,-2.1,-2.1c-1.2,0,-2.2,.9,-2.2,2.1c0,.8,.4,1.5,1.1,1.9l.2,.1v2.4h-8.7v8.7h-2.4l-.1,-.2c-.4,-.6,-1.1,-1.1,-1.9,-1.1c-1.2,0,-2.1,1,-2.1,2.2c0,1.2,.9,2.1,2.1,2.1c.8,0,1.5,-.4,1.9,-1l.1,-.2h2.4v8.6H189V133c-.8,-.5,-1.3,-1.4,-1.3,-2.4c0,-1.6,1.3,-2.9,3,-2.9c1.6,0,2.9,1.3,2.9,2.9c0,1,-.5,1.9,-1.3,2.4Z" class="gb_244"/>
<path d="M176.7,142c1,0,1.8,.5,2.2,1.3h1.8v-8.7H172v-1.8c.8,-.4,1.3,-1.2,1.3,-2.2c0,-1.4,-1.1,-2.5,-2.5,-2.5c-1.4,0,-2.6,1.1,-2.6,2.5c0,1,.5,1.8,1.3,2.2v1.8h-8.7v8.7H159c-.4,-.8,-1.2,-1.3,-2.2,-1.3c-1.4,0,-2.5,1.2,-2.5,2.6c0,1.4,1.1,2.5,2.5,2.5c1,0,1.8,-.5,2.2,-1.2h1.8v8.6h8.7v-1.8c-.8,-.4,-1.3,-1.2,-1.3,-2.2c0,-1.4,1.2,-2.5,2.6,-2.5c1.4,0,2.5,1.1,2.5,2.5c0,1,-.5,1.8,-1.3,2.2v1.8h8.7v-8.7h-1.8c-.4,.8,-1.2,1.3,-2.2,1.3c-1.4,0,-2.5,-1.1,-2.5,-2.5c0,-1.4,1.1,-2.6,2.5,-2.6Z" class="gd_244"/>
<path d="M181.1,154.9h-9.5v-2.4l.2,-.1c.7,-.4,1.1,-1.1,1.1,-1.9c0,-1.2,-1,-2.1,-2.1,-2.1c-1.2,0,-2.2,.9,-2.2,2.1c0,.8,.4,1.5,1.1,1.9l.2,.1v2.4h-9.5v-8.6h-1.2c-.5,.7,-1.4,1.2,-2.4,1.2c-1.6,0,-2.9,-1.3,-2.9,-2.9c0,-1.6,1.3,-3,2.9,-3c1,0,1.9,.5,2.4,1.3h1.2v-8.7h8.7V133c-.8,-.5,-1.3,-1.4,-1.3,-2.4c0,-1.6,1.3,-2.9,3,-2.9c1.6,0,2.9,1.3,2.9,2.9c0,1,-.5,1.9,-1.3,2.4v1.2h8.7v9.5h-2.4l-.1,-.2c-.4,-.7,-1.1,-1.1,-1.9,-1.1c-1.2,0,-2.1,1,-2.1,2.2c0,1.1,.9,2.1,2.1,2.1c.8,0,1.5,-.4,1.9,-1.1l.1,-.2h2.4Zm-8.7,-.8h7.9v-7.9h-1.2c-.5,.8,-1.4,1.3,-2.4,1.3c-1.6,0,-2.9,-1.3,-2.9,-2.9c0,-1.6,1.3,-3,2.9,-3c1,0,1.9,.5,2.4,1.3h1.2V135h-8.7v-2.4l.2,-.1c.7,-.4,1.1,-1.1,1.1,-1.9c0,-1.2,-1,-2.1,-2.1,-2.1c-1.2,0,-2.2,.9,-2.2,2.1c0,.8,.4,1.5,1.1,1.9l.2,.1V135h-8.7v8.7h-2.4l-.1,-.2c-.4,-.7,-1.1,-1.1,-1.9,-1.1c-1.2,0,-2.1,1,-2.1,2.2c0,1.2,.9,2.1,2.1,2.1c.8,0,1.5,-.4,1.9,-1l.1,-.2h2.4v8.6h7.9v-1.2c-.8,-.5,-1.3,-1.4,-1.3,-2.4c0,-1.6,1.3,-2.9,3,-2.9c1.6,0,2.9,1.3,2.9,2.9c0,1,-.5,1.9,-1.3,2.4Z" class="gb_244"/>
<path d="M196.6,142c.9,0,1.8,.5,2.2,1.3h1.8v-8.7h-8.7v-1.8c.8,-.4,1.3,-1.2,1.3,-2.2c0,-1.4,-1.1,-2.5,-2.5,-2.5c-1.5,0,-2.6,1.1,-2.6,2.5c0,1,.5,1.8,1.3,2.2v1.8h-8.7v8.7h-1.8c-.4,-.8,-1.2,-1.3,-2.2,-1.3c-1.4,0,-2.5,1.2,-2.5,2.6c0,1.4,1.1,2.5,2.5,2.5c1,0,1.8,-.5,2.2,-1.2h1.8v8.6h8.7v-1.8c-.8,-.4,-1.3,-1.2,-1.3,-2.2c0,-1.4,1.2,-2.5,2.6,-2.5c1.4,0,2.5,1.1,2.5,2.5c0,1,-.5,1.8,-1.3,2.2v1.8h8.7v-8.7h-1.8c-.4,.8,-1.2,1.3,-2.2,1.3c-1.4,0,-2.5,-1.1,-2.5,-2.5c0,-1.4,1.1,-2.6,2.5,-2.6Z" class="ge_244"/>
<path d="M201,154.9h-9.5v-2.4l.2,-.1c.7,-.4,1.1,-1.1,1.1,-1.9c0,-1.2,-1,-2.1,-2.1,-2.1c-1.2,0,-2.2,.9,-2.2,2.1c0,.8,.4,1.5,1.1,1.9l.2,.1v2.4h-9.5v-8.6h-1.2c-.5,.7,-1.4,1.2,-2.4,1.2c-1.6,0,-2.9,-1.3,-2.9,-2.9c0,-1.6,1.3,-3,2.9,-3c1,0,1.9,.5,2.4,1.3h1.2v-8.7H189V133c-.8,-.5,-1.3,-1.4,-1.3,-2.4c0,-1.6,1.3,-2.9,3,-2.9c1.6,0,2.9,1.3,2.9,2.9c0,1,-.5,1.9,-1.3,2.4v1.2H201v9.5h-2.4l-.1,-.2c-.4,-.7,-1.1,-1.1,-1.9,-1.1c-.6,0,-1.1,.3,-1.5,.7c-.4,.4,-.6,.9,-.6,1.5c0,1.1,.9,2.1,2.1,2.1c.8,0,1.5,-.4,1.9,-1.1l.1,-.2H201Zm-8.7,-.8h7.9v-7.9H199c-.5,.8,-1.4,1.3,-2.4,1.3c-1.6,0,-2.9,-1.3,-2.9,-2.9c0,-.8,.3,-1.5,.8,-2.1c.6,-.6,1.3,-.9,2.1,-.9c1,0,1.9,.5,2.4,1.3h1.2V135h-8.7v-2.4l.2,-.1c.7,-.4,1.1,-1.1,1.1,-1.9c0,-1.2,-1,-2.1,-2.1,-2.1c-1.2,0,-2.2,.9,-2.2,2.1c0,.8,.4,1.5,1.1,1.9l.2,.1V135h-8.7v8.7h-2.4l-.1,-.2c-.4,-.7,-1.1,-1.1,-1.9,-1.1c-1.2,0,-2.1,1,-2.1,2.2c0,1.2,.9,2.1,2.1,2.1c.8,0,1.5,-.4,1.9,-1l.1,-.2h2.4v8.6H189v-1.2c-.8,-.5,-1.3,-1.4,-1.3,-2.4c0,-1.6,1.3,-2.9,3,-2.9c1.6,0,2.9,1.3,2.9,2.9c0,1,-.5,1.9,-1.3,2.4Z" class="gb_244"/>
<path d="M32.1,45.1H9.2m958.3,0h22.9M32.1,1331.3H9.2m958.3,0h22.9M45.1,32.1V9.2m0,1335.1v22.9M954.5,32.1V9.2m0,1335.1v22.9" class="gf_244"/>
<path d="M32.1,45.1H9.2m958.3,0h22.9M32.1,1331.3H9.2m958.3,0h22.9M45.1,32.1V9.2m0,1335.1v22.9M954.5,32.1V9.2m0,1335.1v22.9" class="gg_244"/>
<path d="M27.5,32.1H0m972.1,0h27.5M27.5,1344.3H0m972.1,0h27.5M32.1,27.5V0m0,1348.9v27.5M967.5,27.5V0m0,1348.9v27.5" class="gf_244"/>
<path d="M27.5,32.1H0m972.1,0h27.5M27.5,1344.3H0m972.1,0h27.5M32.1,27.5V0m0,1348.9v27.5M967.5,27.5V0m0,1348.9v27.5" class="gg_244"/>
</svg>