<?xml version="1.0" encoding="UTF-8" standalone="no"?>
<!DOCTYPE svg PUBLIC "-//W3C//DTD SVG 1.1//EN"
"http://www.w3.org/Graphics/SVG/1.1/DTD/svg11.dtd">
<svg viewBox="0 0 999 1376" version="1.1" xmlns="http://www.w3.org/2000/svg" xmlns:xlink="http://www.w3.org/1999/xlink">
<defs>
<clipPath id="c0_34"><path d="M32.1,1344.3V32.1H967.5V1344.3Z"/></clipPath>
<clipPath id="c1_34"><path d="M176.6,524.7l-6.5,-2.1L153.7,508.7V451.6h72v73.1Z"/></clipPath>
<clipPath id="c2_34"><path d="M176.6,1145l-6.5,-2.1L153.7,1129v-57.1h72V1145Z"/></clipPath>
<clipPath id="c3_34"><path d="M764.8,417.6V405.1h14.5v12.5Z"/></clipPath>
<clipPath id="c4_34"><path d="M63.5,972.8V696.7H286.2V972.8Z"/></clipPath>
<clipPath id="c5_34"><path d="M59.2,974.1v-281H287.5v281Z"/></clipPath>
<clipPath id="c6_34"><path d="M58.9,973.8V692.7H287.2V973.8Z"/></clipPath>
<clipPath id="c7_34"><path d="M171.1,711.7c-.3,-.1,3.5,-8.2,3.5,-8.2l.8,.5c0,0,-4,7.7,-4.3,7.7Z"/></clipPath>
<clipPath id="c8_34"><path d="M178.6,703.9c0,0,-6.9,-1.1,-7.6,-5.2c-.7,-3.6,1.5,-3.8,2.1,-3.8c0,0,.1,0,.1,0l8.3,-12.7L180,679.1c0,0,-.6,-1.1,.2,-2.1c0,-.1,.1,-.1,.3,-.1c2.1,0,12.9,5.6,12.9,5.6l.1,.1c-.4,.5,-.7,1.1,-1.4,1.6c-.7,.5,-5.1,1.2,-5.1,1.2l-8.4,18.5Z"/></clipPath>
<clipPath id="c9_34"><path d="M178.2,703.6c.2,-.5,.2,-1.8,0,-2.3V700c-1.6,-.6,-2.9,-1.3,-3.7,-2.6c-1.1,.6,-2.1,1.3,-3.1,1.9c1.5,2.2,3.8,3.6,6.8,4.3Zm0,-3.9c2.2,-4.6,3.9,-9.5,6.1,-14.1c-.9,-.4,-1.8,-1.3,-2.6,-1.4c-2.3,4.4,-4.6,8.7,-7.1,12.9c.8,1.3,2.1,2,3.6,2.6Zm-7.3,12.1c1,-2.9,2.4,-5.5,3.5,-8.3c-2,-1.6,-3.9,-3.1,-4.4,-6.2v-1.5c-.1,-2.7,1.9,-3.4,4.6,-3.4c0,0,.1,0,.2,0c1.9,-3.3,4.2,-6.3,6.1,-9.7c-.5,-.8,-1.1,-2.3,-.9,-3.6c.6,1.2,1.7,1.9,2.4,2.9c-.1,.6,-.3,1.1,-.3,1.7c.5,.7,1.3,1.2,2.3,1.4c.5,-.4,.6,-1.2,1.2,-1.5c.9,.4,1.8,.8,3.1,.8c.1,.1,.5,.1,.8,.1c.4,0,.7,0,.8,-.1c.2,0,.3,0,.4,0c.2,0,.4,-.1,.6,-.1c.2,-.1,.3,-.2,.5,-.2c.1,0,.2,.1,.3,.1c-1.3,.7,-2.2,1.8,-4.2,1.8c-.1,0,-.2,0,-.3,0c-.9,3.7,-1.9,7.4,-2.7,11.2c.6,1,1.5,1.7,1.3,3.1c-.5,2.8,-3.9,4.4,-7.2,4.4c-1.3,0,-2.5,-.2,-3.6,-.7c-1,2.1,-2.1,4.1,-3.3,6c0,-.4,.3,-.4,.3,-.8c.9,-1.8,1.9,-3.5,2.6,-5.6c-1,1.7,-1.8,3.7,-2.7,5.5c-.3,.4,-.5,.9,-.7,1.3c-.3,.4,-.3,1.1,-.7,1.4Z"/></clipPath>
<clipPath id="ca_34"><path d="M188.6,684c-4.8,0,-13.1,-7.3,-5.5,-8.8h1.2c.2,0,.4,0,.6,0q.1,0,.1,0q.1,0,.2,0c.2,0,.5,.1,.9,.1c3.1,.7,8.2,3.8,7.5,7.1c-.2,1.1,-1.5,1.6,-3.1,1.6h-1.8c0,0,-.1,0,-.1,0Z"/></clipPath>
<clipPath id="cb_34"><path d="M701.2,1031.1V617.5H938.8v413.6Z"/></clipPath>
<clipPath id="cc_34"><path d="M705.9,1027V619.5h226V1027Z"/></clipPath>
<clipPath id="cd_34"><path d="M705.6,1026.7V619.2h226v407.5Z"/></clipPath>
<clipPath id="ce_34"><path d="M815.6,636.1c-.3,-.1,3.5,-8.2,3.5,-8.2l.8,.5c0,0,-4,7.7,-4.3,7.7Z"/></clipPath>
<clipPath id="cf_34"><path d="M823.1,628.4c0,0,-6.9,-1.1,-7.6,-5.2c-.6,-3.6,1.5,-3.9,2.1,-3.9q.1,0,.1,0L826,606.6l-1.4,-3.1c0,0,-.6,-1.1,.1,-2c.1,-.1,.2,-.1,.3,-.1c2.1,0,13,5.5,13,5.5v.2c-.3,.5,-.7,1.1,-1.4,1.6c-.6,.5,-5,1.2,-5,1.2l-8.5,18.5Z"/></clipPath>
<clipPath id="cg_34"><path d="M822.7,628.1c.2,-.5,.2,-1.8,0,-2.3v-1.4c-1.5,-.5,-2.9,-1.2,-3.7,-2.5c-1,.6,-2.1,1.2,-3.1,1.9c1.6,2.1,3.8,3.5,6.8,4.3Zm0,-3.9c2.2,-4.6,4,-9.6,6.2,-14.1c-.9,-.4,-1.9,-1.3,-2.7,-1.4c-2.3,4.3,-4.6,8.6,-7,12.8c.7,1.3,2.1,2,3.5,2.7Zm-7.3,12c1,-2.9,2.4,-5.5,3.5,-8.3c-2,-1.5,-3.9,-3.1,-4.4,-6.1v-1.5c0,-2.7,1.9,-3.4,4.6,-3.4q.1,0,.2,0c1.9,-3.4,4.2,-6.4,6.2,-9.7c-.6,-.9,-1.2,-2.4,-.9,-3.7c.5,1.3,1.6,1.9,2.4,2.9c-.2,.6,-.3,1.2,-.4,1.8c.6,.7,1.3,1.2,2.4,1.4c.4,-.4,.5,-1.3,1.1,-1.5c.9,.3,1.9,.7,3.1,.7c.2,.1,.5,.2,.9,.2c.3,0,.6,-.1,.8,-.2c.1,.1,.2,.1,.3,.1c.2,0,.4,-.1,.6,-.2c.2,0,.4,-.1,.5,-.1c.1,0,.2,0,.3,.1c-1.3,.7,-2.2,1.8,-4.1,1.8c-.1,0,-.3,0,-.4,0c-.9,3.7,-1.8,7.3,-2.6,11.1c.5,1.1,1.5,1.7,1.2,3.2c-.4,2.7,-3.8,4.4,-7.2,4.4c-1.2,0,-2.5,-.3,-3.6,-.8c-1,2.1,-2,4.2,-3.2,6.1c-.1,-.4,.2,-.4,.2,-.8c1,-1.8,2,-3.6,2.6,-5.6c-1,1.7,-1.8,3.7,-2.7,5.5c-.2,.4,-.4,.8,-.6,1.2c-.3,.4,-.3,1.2,-.8,1.4Z"/></clipPath>
<clipPath id="ch_34"><path d="M833.1,608.4c-4.8,0,-13,-7.3,-5.5,-8.8h1.3c.1,.1,.3,.1,.5,.1c0,0,.1,0,.1,0q.1,0,.2,0c.3,0,.6,0,.9,.1c3.1,.6,8.2,3.8,7.5,7c-.2,1.2,-1.5,1.6,-3.1,1.6h-1.9Z"/></clipPath>
<clipPath id="ci_34"><path d="M125.5,386.7V205.8H858.6V386.7Z"/></clipPath>
<style type="text/css"><![CDATA[
.g0_34{
fill: #FEFCF4;
}
.g1_34{
fill: #FFF;
}
.g2_34{
fill: none;
stroke: #6381B7;
stroke-width: 0.763;
}
.g3_34{
fill: #FCE8B0;
}
.g4_34{
fill: #6381B7;
}
.g5_34{
fill: none;
stroke: #6381B7;
stroke-width: 0.381;
stroke-dasharray: 2,1;
}
.g6_34{
fill: none;
stroke: #6381B7;
stroke-width: 0.381;
}
.g7_34{
fill: #25408F;
}
.g8_34{
fill: #A8AAAD;
}
.g9_34{
fill: none;
stroke: #949698;
stroke-width: 0.549;
}
.ga_34{
fill: none;
stroke: #BCBEC0;
stroke-width: 2.566;
}
.gb_34{
fill: #231F20;
}
.gc_34{
fill: #363637;
}
.gd_34{
fill: #5CC4BE;
}
.ge_34{
fill: #EAD646;
}
.gf_34{
fill: #F7C2D9;
}
.gg_34{
fill: #FDF4F3;
}
.gh_34{
fill: #EC008C;
}
.gi_34{
fill: none;
stroke: #818385;
stroke-width: 0.305;
stroke-dasharray: 3,3;
}
.gj_34{
fill: none;
stroke: #818385;
stroke-width: 0.305;
}
.gk_34{
fill: none;
stroke: #949698;
stroke-width: 0.305;
stroke-dasharray: 4,4;
}
.gl_34{
fill: none;
stroke: #949698;
stroke-width: 0.305;
stroke-dasharray: 3,3;
}
.gm_34{
fill: none;
stroke: #949698;
stroke-width: 0.305;
}
.gn_34{
fill: #6D6F71;
}
.go_34{
fill: #2E6E51;
}
.gp_34{
fill: none;
stroke: #FFF;
stroke-width: 0.152;
stroke-miterlimit: 1;
}
.gq_34{
fill: #BCBEC0;
}
.gr_34{
fill: #EE314A;
}
.gs_34{
fill: #CEEDFB;
}
.gt_34{
fill: #27639D;
}
.gu_34{
fill: none;
stroke: #C3E7F1;
stroke-width: 1.527;
}
.gv_34{
fill: none;
stroke: #FFF;
stroke-width: 1.909;
stroke-miterlimit: 10;
}
.gw_34{
fill: none;
stroke: #000;
stroke-width: 0.381;
stroke-miterlimit: 10;
}
]]></style>
</defs>
<path d="M32.1,1344.3H954.5V32.1H32.1V1344.3Z" class="g0_34"/>
<path clip-path="url(#c0_34)" d="M954.5,1344.3H1877V32.1H954.5V1344.3Z" class="g0_34"/>
<path d="M150.4,423.1c0,0,-18.3,0,-18.3,18.4V1032c0,0,0,18.3,18.3,18.3H827.5c0,0,18.4,0,18.4,-18.3V423.1Z" class="g1_34"/>
<path d="M150.4,423.1c0,0,-18.3,0,-18.3,18.4V1032c0,0,0,18.3,18.3,18.3H827.5c0,0,18.4,0,18.4,-18.3V423.1H150.4Z" class="g2_34"/>
<path d="M209.2,479.7c0,0,-13,0,-13,13v21.7c0,0,0,12.9,13,12.9h602c0,0,13,0,13,-12.9V492.7c0,0,0,-13,-13,-13Z" class="g3_34"/>
<image clip-path="url(#c1_34)" preserveAspectRatio="none" x="152" y="450" width="75" height="76" xlink:href="img/1.png"/>
<path d="M204,520c0,0,-26.8,11.3,-51.1,-12.8c0,0,15.2,25.3,49.3,24c0,0,24.8,.3,20.3,-10.1c0,0,1.2,-4.5,-18.5,-1.1Z" class="g3_34"/>
<path d="M145.1,1061.5c0,0,-13,0,-13,13v131.2c0,0,0,13,13,13H832.9c0,0,13,0,13,-13V1074.5c0,0,0,-13,-13,-13Z" class="g1_34"/>
<path d="M145.1,1061.5c0,0,-13,0,-13,13v131.2c0,0,0,13,13,13H832.9c0,0,13,0,13,-13V1074.5c0,0,0,-13,-13,-13H145.1Z" class="g2_34"/>
<path d="M595.5,1232.7c0,0,-4.4,0,-4.4,4.3v10.8c0,0,0,4.4,4.4,4.4h30.3c0,0,4.3,0,4.3,-4.4V1237c0,0,0,-4.3,-4.3,-4.3Z" class="g4_34"/>
<path d="M582.3,1225.2v34.9m1.3,.9H845.1m1,-1.3v-34.9m-1.4,-1H583.2" class="g5_34"/>
<path d="M582.3,1260.4v.6h.5m262.7,0h.6v-.6m0,-36v-.6h-.6m-262.7,0h-.5v.6" class="g6_34"/>
<path d="M209.2,1100c0,0,-13,0,-13,13v21.7c0,0,0,13,13,13h602c0,0,13,0,13,-13V1113c0,0,0,-13,-13,-13Z" class="g3_34"/>
<image clip-path="url(#c2_34)" preserveAspectRatio="none" x="152" y="1070" width="75" height="77" xlink:href="img/2.png"/>
<path d="M204,1140.3c0,0,-26.8,11.3,-51.1,-12.7c0,0,15.2,25.3,49.3,23.9c0,0,24.8,.4,20.3,-10.1c0,0,1.2,-4.5,-18.5,-1.1Z" class="g3_34"/>
<path d="M131.7,397v38.9l11.7,10.3V402Z" class="g7_34"/>
<path d="M131.7,397v38.9H829.5c0,0,16.8,0,16.8,-16.8v-5.3c0,0,0,-16.8,-16.8,-16.8Z" class="g4_34"/>
<path d="M781,430.6c8.2,0,14.8,-6.5,14.8,-14.5c0,-8,-6.6,-14.5,-14.8,-14.5c-8.3,0,-14.9,6.5,-14.9,14.5c0,8,6.6,14.5,14.9,14.5Z" class="g8_34"/>
<path d="M781,430.6c8.2,0,14.8,-6.5,14.8,-14.5c0,-8,-6.6,-14.5,-14.8,-14.5c-8.3,0,-14.9,6.5,-14.9,14.5c0,8,6.6,14.5,14.9,14.5Z" class="g9_34"/>
<path d="M781,421.4c3,0,5.4,-2.4,5.4,-5.3c0,-3,-2.4,-5.4,-5.4,-5.4c-3.1,0,-5.5,2.4,-5.5,5.4c0,2.9,2.4,5.3,5.5,5.3Z" class="g1_34"/>
<path d="M781,421.4c3,0,5.4,-2.4,5.4,-5.3c0,-3,-2.4,-5.4,-5.4,-5.4c-3.1,0,-5.5,2.4,-5.5,5.4c0,2.9,2.4,5.3,5.5,5.3Z" class="ga_34"/>
<g clip-path="url(#c3_34)" opacity="0.3">
<path d="M766.4,415.3c0,0,-.1,-4.8,3.6,-8.6l7.8,6.7c0,0,-1,.9,-1.1,2.6Z" class="g1_34"/>
</g>
<path d="M785.6,416c0,0,-3.5,0,-3.5,3.4v8.7c0,0,0,3.5,3.5,3.5H829c0,0,3.5,0,3.5,-3.5v-8.7c0,0,0,-3.4,-3.5,-3.4Z" class="gb_34"/>
<path d="M169.5,407c0,-8.3,-6.7,-15,-15,-15c-8.4,0,-15.1,6.7,-15.1,15c0,8.4,6.8,15.1,15.1,15.1c.8,0,1.6,-.1,2.4,-.2l4.5,5.2v-6.7c4.8,-2.5,8.1,-7.5,8.1,-13.4Z" class="g1_34"/>
<path d="M161.8,428.4l-5.1,-6c-.7,.1,-1.5,.2,-2.2,.2c-8.6,0,-15.6,-7,-15.6,-15.6c0,-8.5,7,-15.5,15.6,-15.5c8.5,0,15.5,7,15.5,15.5c0,5.8,-3.1,11,-8.2,13.7Zm-4.7,-7l3.8,4.5v-5.8l.3,-.1c4.8,-2.5,7.9,-7.5,7.9,-13c0,-8,-6.6,-14.5,-14.6,-14.5c-8.1,0,-14.6,6.5,-14.6,14.5c0,8.1,6.5,14.6,14.6,14.6c.7,0,1.5,0,2.3,-.2Z" class="gc_34"/>
<path d="M147.4,406.6c.8,0,1.5,.7,1.5,1.5c0,.7,-.7,1.4,-1.5,1.4c-.7,0,-1.4,-.7,-1.4,-1.4c0,-.8,.7,-1.5,1.4,-1.5Z" class="gd_34"/>
<path d="M147.4,409.9c-1,0,-1.8,-.8,-1.8,-1.8c0,-1.1,.8,-2,1.8,-2c1.1,0,1.9,.9,1.9,2c0,1,-.8,1.8,-1.9,1.8m0,-2.8c-.5,0,-.9,.4,-.9,1c0,.5,.4,.9,.9,.9c.6,0,1,-.4,1,-.9c0,-.6,-.4,-1,-1,-1Z" class="gc_34"/>
<path d="M154.5,406.6c.8,0,1.4,.7,1.4,1.5c0,.7,-.6,1.4,-1.4,1.4c-.8,0,-1.5,-.7,-1.5,-1.4c0,-.8,.7,-1.5,1.5,-1.5Z" class="gd_34"/>
<path d="M154.5,409.9c-1.1,0,-1.9,-.8,-1.9,-1.8c0,-1.1,.8,-2,1.9,-2c1,0,1.9,.9,1.9,2c0,1,-.9,1.8,-1.9,1.8m0,-2.8c-.6,0,-1,.4,-1,1c0,.5,.4,.9,1,.9c.5,0,.9,-.4,.9,-.9c0,-.6,-.4,-1,-.9,-1Z" class="gc_34"/>
<path d="M161.5,406.6c.8,0,1.4,.7,1.4,1.5c0,.7,-.6,1.4,-1.4,1.4c-.8,0,-1.5,-.7,-1.5,-1.4c0,-.8,.7,-1.5,1.5,-1.5Z" class="gd_34"/>
<path d="M161.5,409.9c-1.1,0,-1.9,-.8,-1.9,-1.8c0,-1.1,.8,-2,1.9,-2c1,0,1.9,.9,1.9,2c0,1,-.9,1.8,-1.9,1.8m0,-2.8c-.6,0,-1,.4,-1,1c0,.5,.4,.9,1,.9c.5,0,1,-.4,1,-.9c0,-.6,-.5,-1,-1,-1Z" class="gc_34"/>
<path d="M163.4,421.3c0,-9.7,7.9,-17.6,17.6,-17.6c9.7,0,17.6,7.9,17.6,17.6c0,9.7,-7.9,17.6,-17.6,17.6c-.9,0,-1.9,-.1,-2.8,-.2l-5.3,6.1v-7.9c-5.6,-2.9,-9.5,-8.8,-9.5,-15.6Z" class="ge_34"/>
<path d="M172.9,445.2c0,0,-.1,0,-.1,0c-.2,-.1,-.3,-.2,-.3,-.4v-7.6c-5.9,-3.1,-9.6,-9.2,-9.6,-15.9c0,-10,8.2,-18.1,18.1,-18.1c10,0,18.1,8.1,18.1,18.1c0,9.9,-8.1,18.1,-18.1,18.1c-.8,0,-1.7,-.1,-2.6,-.2l-5.1,5.9c-.1,.1,-.2,.1,-.4,.1M181,404.1c-9.4,0,-17.1,7.7,-17.1,17.2c0,6.4,3.5,12.3,9.2,15.2c.2,.1,.3,.3,.3,.4v6.6l4.4,-5.1c.1,-.1,.3,-.2,.5,-.2c.9,.2,1.8,.2,2.7,.2c9.5,0,17.2,-7.7,17.2,-17.1c0,-9.5,-7.7,-17.2,-17.2,-17.2Z" class="gc_34"/>
<path d="M189.2,420.8c.9,0,1.7,.7,1.7,1.7c0,.9,-.8,1.6,-1.7,1.6c-.9,0,-1.7,-.7,-1.7,-1.6c0,-1,.8,-1.7,1.7,-1.7Z" class="g1_34"/>
<path d="M189.2,424.6c-1.2,0,-2.1,-1,-2.1,-2.1c0,-1.2,.9,-2.2,2.1,-2.2c1.2,0,2.1,1,2.1,2.2c0,1.1,-.9,2.1,-2.1,2.1m0,-3.3c-.7,0,-1.2,.5,-1.2,1.2c0,.6,.5,1.2,1.2,1.2c.7,0,1.2,-.6,1.2,-1.2c0,-.7,-.5,-1.2,-1.2,-1.2Z" class="gc_34"/>
<path d="M181,420.8c.9,0,1.7,.7,1.7,1.7c0,.9,-.8,1.6,-1.7,1.6c-.9,0,-1.7,-.7,-1.7,-1.6c0,-1,.8,-1.7,1.7,-1.7Z" class="g1_34"/>
<path d="M181,424.6c-1.2,0,-2.1,-1,-2.1,-2.1c0,-1.2,.9,-2.2,2.1,-2.2c1.2,0,2.1,1,2.1,2.2c0,1.1,-.9,2.1,-2.1,2.1m0,-3.3c-.7,0,-1.2,.5,-1.2,1.2c0,.6,.5,1.2,1.2,1.2c.7,0,1.2,-.6,1.2,-1.2c0,-.7,-.5,-1.2,-1.2,-1.2Z" class="gc_34"/>
<path d="M172.8,420.8c.9,0,1.7,.7,1.7,1.7c0,.9,-.8,1.6,-1.7,1.6c-.9,0,-1.7,-.7,-1.7,-1.6c0,-1,.8,-1.7,1.7,-1.7Z" class="g1_34"/>
<path d="M172.8,424.6c-1.2,0,-2.1,-1,-2.1,-2.1c0,-1.2,.9,-2.2,2.1,-2.2c1.2,0,2.1,1,2.1,2.2c0,1.1,-.9,2.1,-2.1,2.1m0,-3.3c-.7,0,-1.2,.5,-1.2,1.2c0,.6,.5,1.2,1.2,1.2c.7,0,1.2,-.6,1.2,-1.2c0,-.7,-.5,-1.2,-1.2,-1.2Z" class="gc_34"/>
<image clip-path="url(#c4_34)" preserveAspectRatio="none" x="63" y="697" width="223" height="276" xlink:href="img/3.png"/>
<path d="M68.6,705.6L72,966.8l207.9,-3.7L275.7,702Z" class="gf_34"/>
<image clip-path="url(#c5_34)" preserveAspectRatio="none" x="59" y="693" width="228" height="282" xlink:href="img/4.png"/>
<image clip-path="url(#c6_34)" preserveAspectRatio="none" x="59" y="693" width="227" height="281" xlink:href="img/5.png"/>
<path d="M73.7,697.6L64.1,961.5l176.1,6.2l32.3,-23.6l8.7,-239.2Z" class="gg_34"/>
<path d="M240.3,967.7l32.1,-23.6l-21.6,-5.6Z" class="gh_34"/>
<path d="M353.6,875.1c8,-1.3,14.3,-6.3,15.8,-12.5m-.4,-7.1c-2.1,-5.9,-8.7,-10.4,-16.8,-11.3m-7.1,.2c-8.1,1.3,-14.4,6.3,-15.9,12.5m.4,7c2.2,6,8.7,10.5,16.9,11.4" class="gi_34"/>
<path d="M369.6,861.2c.1,-.5,.1,-1,.1,-1.5c0,-.4,0,-.9,-.1,-1.4M350.7,844.1c-.4,-.1,-.9,-.1,-1.4,-.1c-.5,0,-.9,0,-1.4,.1M329,858.3c-.1,.5,-.1,1,-.1,1.4c0,.5,0,1,.1,1.5m18.9,14.2c.5,0,.9,0,1.4,0c.5,0,1,0,1.4,0" class="gj_34"/>
<path d="M354.4,841.5C351.5,825.9,340.7,774.9,321,767m-6.9,.8c-1.1,3.1,2.1,9,4.8,8.6" class="gk_34"/>
<path d="M321.9,769.9c1.3,-18,-9,-76.8,-84.2,-63.9" class="gl_34"/>
<path d="M355.2,846c0,0,-.1,-.5,-.3,-1.5m-35.4,-78c-.5,-.2,-1,-.3,-1.5,-.4c-.6,-.1,-1.1,-.1,-1.5,0m3.7,9.5c.3,-.3,.6,-.8,.8,-1.3c.2,-.4,.3,-.9,.5,-1.5M236.3,706.3c-.5,0,-1,.1,-1.5,.2" class="gm_34"/>
<path d="M238.6,709.8l-3.1,-8.2l-9,8.2Z" class="gn_34"/>
<image clip-path="url(#c7_34)" x="170" y="703" width="6" height="9" xlink:href="shade/1.png"/>
<image clip-path="url(#c8_34)" x="170" y="676" width="24" height="28" xlink:href="shade/2.png"/>
<image clip-path="url(#c9_34)" x="169" y="679" width="24" height="33" xlink:href="shade/3.png"/>
<image clip-path="url(#ca_34)" x="175" y="675" width="20" height="10" xlink:href="shade/4.png"/>
<image clip-path="url(#cb_34)" preserveAspectRatio="none" x="700" y="618" width="238" height="414" xlink:href="img/6.png"/>
<path d="M706.3,630.8l18.6,393.9l207.9,-8.6L913.5,622.3Z" class="gf_34"/>
<image clip-path="url(#cc_34)" preserveAspectRatio="none" x="706" y="620" width="225" height="407" xlink:href="img/7.png"/>
<image clip-path="url(#cd_34)" preserveAspectRatio="none" x="705" y="619" width="226" height="408" xlink:href="img/8.png"/>
<path d="M713.5,624.5l-3.1,394.1l181.1,1.7l31,-29.7l2.8,-364.2Z" class="gg_34"/>
<path d="M891.3,1020.4l31.6,-29.9l-18.2,-7.4Z" class="gh_34"/>
<path d="M371.8,986c18,-.7,32.5,-6,35.7,-12.8m-.7,-6.9C402.4,960,387.9,955.2,370.3,954.7m-7.2,.1c-18,.7,-32.5,6,-35.7,12.8m.7,6.8c4.4,6.4,18.9,11.2,36.4,11.6" class="gi_34"/>
<path d="M408,971.8c.1,-.5,.1,-.9,.1,-1.4c0,-.5,0,-1,-.1,-1.5M368.9,954.7c-.5,0,-1,0,-1.5,0c-.5,0,-.9,0,-1.4,0m-39.1,14.2c-.1,.5,-.2,1,-.2,1.5c0,.5,.1,.9,.2,1.4M366,986.1c.5,0,.9,0,1.4,0c.5,0,1,0,1.5,0" class="gj_34"/>
<path d="M402.5,959C421.1,944.9,508,880.7,554.7,882m7.2,.8c9.8,2.2,4,7.5,-1.4,8.5" class="gl_34"/>
<path d="M554.3,888.3c-3.3,-6,-4.2,-19.2,1.9,-29.6m5,-6.1C581.6,834.9,655.8,818.2,710,822.7" class="gk_34"/>
<path d="M398.9,961.8c0,0,.4,-.3,1.2,-.9M556.2,882.1c.5,0,1,.1,1.5,.1c.5,.1,1,.1,1.4,.2m0,9.1c-.5,0,-.9,0,-1.4,-.1c-.5,-.1,-1,-.3,-1.4,-.6m.8,-33.5c.3,-.5,.6,-.9,.9,-1.3c.3,-.4,.6,-.8,1,-1.2m152.6,-32c.5,.1,1,.1,1.5,.2" class="gm_34"/>
<path d="M710.5,818.8l1.6,8.6l10.3,-6.5Z" class="gn_34"/>
<image clip-path="url(#ce_34)" x="815" y="627" width="5" height="10" xlink:href="shade/5.png"/>
<image clip-path="url(#cf_34)" x="814" y="601" width="25" height="28" xlink:href="shade/6.png"/>
<image clip-path="url(#cg_34)" x="814" y="603" width="23" height="34" xlink:href="shade/7.png"/>
<image clip-path="url(#ch_34)" x="819" y="599" width="20" height="10" xlink:href="shade/8.png"/>
<path d="M32.1,179.3H967.5V32.1H32.1V179.3Z" class="go_34"/>
<path d="M260.6,134c-.2,0,-.3,0,-.4,0c-.7,0,-1.1,-.4,-1,-1.3c0,-.1,0,-.2,0,-.3l-.7,-.7c0,.5,0,1,.1,1.5c0,.6,0,1.2,0,1.9l.2,3.5c-.5,-1.6,-1.1,-2.6,-1.5,-3.2c-.8,-.8,-1.7,-1.3,-3,-1.3c-.5,0,-1,.1,-1.5,.2c-.4,.2,-.9,.4,-1.3,.7c-.9,.6,-1.4,1.4,-1.4,2.4c0,.4,.2,.8,.4,1.1c.4,.4,.7,.6,1,.6c.1,0,.3,0,.5,-.1c.2,-.1,.5,-.2,.7,-.4c.6,-.3,1,-.5,1.2,-.5c.5,0,.7,.2,.7,.6c-.2,.4,-.6,.9,-1.3,1.5c-.6,.6,-1.1,1,-1.3,1.1l1.4,1.6c.8,-.9,1.4,-1.6,1.8,-2.1c.5,-.6,.7,-1.1,.7,-1.6c0,-.3,-.1,-.6,-.2,-.9c-.1,-.3,-.3,-.5,-.5,-.7c-.2,-.1,-.5,-.3,-.8,-.4c-.3,-.1,-.6,-.1,-.9,-.1c-.5,0,-1,.1,-1.6,.4c.5,-1.3,1.5,-1.9,2.9,-1.9c.9,0,1.7,.5,2.5,1.5c.3,.5,.6,.9,.8,1.4c.1,.5,.2,1,.2,1.5c0,.4,0,.9,0,1.6c0,.9,0,2.2,-.1,4c-.3,-.4,-.6,-.8,-1,-1c-.4,-.3,-.9,-.5,-1.4,-.6c-.2,-.1,-.6,-.1,-1.2,-.2c-.6,-.1,-1.3,-.1,-2.2,-.1c-.4,0,-.7,-.1,-1.1,-.2c-.3,-.1,-.6,-.3,-.8,-.5c-.3,-.2,-.5,-.5,-.7,-.8c-.1,-.3,-.2,-.6,-.2,-1.1c0,-.1,0,-.3,.1,-.5l-.7,-.7c0,-.1,0,.6,-.1,2v.1c0,.3,.1,.6,.2,.9c.1,.3,.2,.7,.4,1c.2,.2,.3,.4,.5,.6c.2,.2,.4,.4,.7,.5c.2,.2,.5,.3,.8,.4c.4,.1,.8,.2,1.2,.2c.5,0,1,-.1,1.5,-.1c.5,0,.8,0,1,0c1.3,0,2.2,.3,2.8,.9l1.6,1.6V135.2h2.2L260.6,134Zm5.9,1.2L265.3,134h-1.2c-1.1,-4.2,-3.7,-6.3,-7.5,-6.3c-.5,0,-1,0,-1.5,.1c-.4,.1,-.9,.3,-1.3,.4c-.6,.3,-1,.6,-1.3,.9c-.3,.3,-.4,.6,-.4,1c0,.4,.1,.8,.4,1.1c.3,.3,.8,.6,1.3,.8c.2,0,.5,0,1.1,.1c.5,.1,1.3,.2,2.2,.3c1.2,.1,1.8,.4,1.8,.9c0,.3,-.2,.6,-.5,.8h1.2c0,-.4,.1,-.7,.1,-.7c0,-.6,-.2,-1.1,-.5,-1.4c-.3,-.4,-.8,-.7,-1.4,-.9c-.6,-.1,-1.7,-.2,-3.3,-.3c-1.2,-.1,-1.8,-.3,-1.8,-.7c0,-.4,.4,-.7,1.4,-.9c.3,-.1,.7,-.2,1,-.2c.3,-.1,.7,-.1,1,-.1c4,0,6.3,1.7,6.9,5.1h-3.1l1.3,1.2H263v11.3l1.1,1.2V135.2h2.4Zm5.8,-1.2h-8l1.2,1.2h4c-1.7,2,-2.6,4,-2.6,6.1c0,1.5,.4,2.8,1,3.9c.7,1.4,1.8,2.1,3.2,2.1c.3,0,.6,0,.8,-.1c.3,-.1,.5,-.2,.7,-.4c.2,-.2,.4,-.4,.5,-.7c.1,-.2,.2,-.5,.2,-.8c0,-.4,-.2,-.9,-.5,-1.2c-.3,-.3,-.6,-.5,-1,-.5c-.4,0,-.7,.2,-1,.4c-.3,.3,-.5,.6,-.5,1c0,.2,.1,.4,.2,.7c.1,.2,.3,.4,.6,.6c-.7,.2,-1.5,-.2,-2.2,-1.3c-.5,-.7,-.7,-1.5,-.7,-2.3c0,-1,.1,-1.9,.3,-2.7c.2,-.7,.5,-1.4,.9,-2.1c.5,-.7,1,-1.3,1.7,-1.7c.7,-.5,1.4,-.8,2.3,-1L272.3,134Zm5.9,6c.5,-.2,.9,-.4,1.3,-.7c.3,.2,.5,.4,.7,.6c.1,.2,.3,.4,.4,.5c.1,.2,.1,.4,.2,.5c0,.1,.1,.2,.1,.2c-.7,0,-1.2,.1,-1.6,.4c-.3,.3,-.5,.6,-.6,1c0,.3,0,.6,0,.8c.1,.3,.2,.5,.4,.7c.1,.2,.3,.4,.5,.5c.3,.1,.5,.2,.8,.2c.6,0,1,-.2,1.3,-.5c.2,-.3,.4,-.6,.5,-1c.1,.1,.3,.2,.5,.4c.1,.2,.3,.4,.5,.7c.2,.2,.3,.5,.5,.8c.1,.3,.3,.6,.4,.9l.4,.7l.6,.5v-12h1.7L285.6,134h-14l1.2,1.2h3.1c-.5,.4,-.9,.8,-1.1,1.2c-.3,.5,-.4,.9,-.4,1.3c0,.7,.2,1.3,.7,1.8c.5,.5,1.1,.8,1.8,.8c.4,0,.8,-.1,1.3,-.3Zm3.8,1.3c-.2,-.4,-.4,-.9,-.6,-1.4c-.3,-.5,-.6,-.9,-1.1,-1.3c.2,-.3,.5,-.6,.6,-.9c.2,-.3,.3,-.7,.3,-1c0,-.3,-.1,-.6,-.2,-.9c-.1,-.2,-.2,-.4,-.4,-.6H284v8.5h-.1c-.2,-.5,-.4,-.9,-.8,-1.4c-.3,-.4,-.7,-.7,-1.1,-1Zm-1.9,-4.9c0,.3,0,.5,-.1,.8c-.2,.2,-.4,.5,-.6,.7l-2.4,-2c.2,-.2,.4,-.4,.8,-.5c.2,-.1,.6,-.2,.9,-.2c.2,0,.4,0,.6,.1c.2,.1,.4,.2,.5,.3c.2,.2,.3,.5,.3,.8Zm-4.6,1.5c0,-.5,.3,-1,.8,-1.4l2.4,2c-.2,.2,-.5,.3,-.8,.4c-.3,.2,-.6,.2,-.9,.2c-.2,0,-.4,0,-.6,-.1c-.2,0,-.4,-.1,-.5,-.3c-.3,-.2,-.4,-.5,-.4,-.8Zm22.8,-2.7L297.1,134H285.4l1.1,1.2h8.2v.9c-2.5,.8,-4.9,2.1,-7.3,3.7l1.6,2.3h-.1c1.7,.1,3.1,.7,4.1,1.6c.3,.3,.6,.6,.9,1c.4,.4,.6,.8,.8,1c.1,.3,.3,.7,.5,1.3l.7,.8V135.2h2.4Zm-3.6,9.4c-1,-1.8,-2.6,-3.2,-4.8,-4.1c.9,-.6,1.7,-1.1,2.5,-1.5c.8,-.4,1.6,-.7,2.3,-1v6.6Zm-4.7,1.7c.3,.3,.6,.4,.9,.4c.3,0,.6,-.1,.9,-.4c.2,-.2,.3,-.5,.3,-.8c0,-.4,-.1,-.7,-.3,-.9c-.3,-.3,-.6,-.4,-.9,-.4c-.3,0,-.6,.1,-.9,.4c-.2,.2,-.3,.5,-.3,.9c0,.3,.1,.6,.3,.8Zm28.6,-11.1L317.4,134H304.5c.4,.4,.7,.7,.9,.9c.2,.2,.4,.4,.5,.5c.4,.2,.7,.4,1,.6c.2,.1,.5,.2,.8,.3c.5,.1,.9,.2,1.3,.3c.3,.1,.6,.2,.8,.4c.2,.2,.4,.4,.5,.7c.1,.4,.2,.8,.3,1.4c-.4,.5,-.7,.9,-1,1.3c-.3,.3,-.5,.5,-.6,.7c-.2,.2,-.3,.3,-.4,.4c-.1,0,-.2,0,-.3,0c-.2,0,-.3,0,-.4,-.1c-.2,-.1,-.3,-.3,-.4,-.4c-.1,-.2,-.2,-.4,-.2,-.6c-.1,-.2,-.2,-.3,-.2,-.5l-.8,.8c.1,.2,.3,.5,.5,.8c.1,.3,.3,.6,.6,.9c.2,.3,.5,.5,.8,.7c.2,.1,.6,.2,.9,.2c.2,0,.3,0,.5,-.1c.1,0,.3,-.1,.5,-.3c.2,-.2,.5,-.5,.8,-.9c.3,-.4,.6,-.9,1,-1.6c.5,-.6,.9,-1,1.3,-1.1c.4,0,.8,.1,1.1,.4c.3,.4,.5,.9,.7,1.6c.2,.7,.3,1.6,.3,2.5v.4c0,.1,0,.3,0,.5c0,.1,0,.4,-.1,.7c0,.3,0,.6,0,1.1c.2,.2,.4,.4,.6,.6c.2,.3,.4,.5,.6,.7V135.2h2.2Zm-3.4,4.1c-.3,-.4,-.7,-.8,-1,-1.1c-.3,-.4,-.6,-.6,-.9,-.7c-.3,-.1,-.6,-.1,-.9,.1c-.3,.1,-.7,.4,-1.1,.8c0,-.6,-.2,-1.1,-.4,-1.6c-.3,-.5,-.7,-1,-1.3,-1.6h5.6v4.1Zm14.7,-4.1L328.7,134H316.9l1.1,1.2h8.2v.9c-2.5,.8,-4.9,2.1,-7.3,3.7l1.5,2.3c1.7,.1,3.1,.7,4.1,1.6c.3,.3,.6,.6,.9,1c.4,.4,.6,.8,.8,1.2c.2,.3,.3,.5,.4,.7c0,.1,.1,.2,.1,.4l.7,.8V135.2h2.5Zm-3.7,9.4c-1,-1.8,-2.6,-3.2,-4.8,-4.1c.9,-.6,1.7,-1.1,2.5,-1.5c.8,-.4,1.6,-.7,2.3,-1v6.6ZM335.6,134h-7.9l1.2,1.2h4c-1.7,2,-2.6,4,-2.6,6.1c0,1.5,.3,2.8,1,3.9c.7,1.4,1.8,2.1,3.2,2.1c.3,0,.5,0,.8,-.1c.3,-.1,.5,-.2,.7,-.4c.2,-.2,.3,-.4,.5,-.7c.1,-.2,.1,-.5,.1,-.8c0,-.4,-.1,-.9,-.4,-1.2c-.3,-.3,-.6,-.5,-1,-.5c-.4,0,-.7,.2,-1,.4c-.3,.3,-.5,.6,-.5,1c0,.2,.1,.4,.2,.7c.1,.2,.3,.4,.6,.6c-.8,.2,-1.5,-.2,-2.3,-1.3c-.4,-.7,-.6,-1.5,-.7,-2.3c0,-1,.2,-1.9,.4,-2.7c.2,-.7,.5,-1.4,.9,-2.1c.5,-.7,1,-1.3,1.7,-1.7c.6,-.5,1.4,-.8,2.3,-1L335.6,134Zm9.7,0H335l1.2,1.2H338v9.1c0,.4,.2,.9,.7,1.5c.4,.5,.9,.7,1.3,.7c1.2,0,2.4,-.7,3.5,-2.2c1.1,-1.4,1.7,-2.7,1.7,-3.9c0,-1,-1,-1.8,-3,-2.5c-2.1,-.6,-3.1,-1.5,-3.1,-2.7h7.4L345.3,134Zm-1.9,6.8c0,.7,-.5,1.5,-1.4,2.6c-.8,1,-1.6,1.5,-2.3,1.5c-.3,0,-.5,-.2,-.5,-.7v-7c.8,1.5,2.2,2.5,4.1,3.1c0,0,.1,.2,.1,.5Zm9.2,-6.8h-7.9l1.2,1.2h3.9c-1.6,2,-2.5,4,-2.5,6.1c0,1.5,.3,2.8,.9,3.9c.8,1.4,1.9,2.1,3.3,2.1c.2,0,.5,0,.8,-.1c.2,-.1,.5,-.2,.7,-.4c.2,-.2,.3,-.4,.4,-.7c.2,-.2,.2,-.5,.2,-.8c0,-.4,-.1,-.9,-.4,-1.2c-.3,-.3,-.6,-.5,-1,-.5c-.4,0,-.7,.2,-1.1,.4c-.3,.3,-.4,.6,-.4,1c0,.2,0,.4,.2,.7c.1,.2,.3,.4,.6,.6c-.8,.2,-1.5,-.2,-2.3,-1.3c-.4,-.7,-.7,-1.5,-.7,-2.3c0,-1,.1,-1.9,.3,-2.7c.3,-.7,.6,-1.4,1,-2.1c.4,-.7,1,-1.3,1.7,-1.7c.6,-.5,1.4,-.8,2.3,-1L352.6,134Zm11.7,1.2L363.1,134H352c.6,1,1.7,1.7,3.3,2.2c.7,.2,1.2,.4,1.7,.6c.4,.2,.6,.4,.8,.6c-.5,.4,-1.1,.8,-1.7,1.4c-.7,.5,-1.3,1.1,-1.9,1.7l1.6,2.1c1.4,.1,2.6,.5,3.5,1.2c.6,.5,1.2,1.2,1.8,2.3c.5,1,1,1.6,1.3,1.8V135.2h1.9Zm-3.1,9.5c-1.1,-1.7,-2.6,-2.9,-4.5,-3.6c.5,-.5,1,-1.1,1.5,-1.6c.4,-.5,.9,-.9,1.4,-1.4c-.6,-.7,-1.2,-1.3,-1.7,-1.8c-.5,-.5,-.9,-.9,-1.3,-1.1h4.6v9.5Zm-4.6,2c.2,.2,.5,.3,.8,.3c.4,0,.7,-.1,.9,-.3c.2,-.3,.4,-.6,.4,-.9c0,-.3,-.2,-.6,-.4,-.9c-.2,-.2,-.5,-.3,-.9,-.3c-.3,0,-.6,.1,-.8,.3c-.3,.3,-.4,.6,-.4,.9c0,.3,.1,.6,.4,.9ZM383,134c-.1,0,-.2,0,-.3,0c-.8,0,-1.1,-.4,-1.1,-1.3c0,-.1,0,-.2,.1,-.3l-.7,-.7c0,.5,0,1,0,1.5c0,.6,0,1.2,.1,1.9l.2,3.5c-.6,-1.6,-1.1,-2.6,-1.6,-3.2c-.7,-.8,-1.7,-1.3,-3,-1.3c-.5,0,-1,.1,-1.4,.2c-.5,.2,-.9,.4,-1.3,.7c-1,.6,-1.4,1.4,-1.4,2.4c0,.4,.1,.8,.4,1.1c.3,.4,.6,.6,.9,.6c.2,0,.3,0,.5,-.1c.3,-.1,.5,-.2,.8,-.4c.6,-.3,1,-.5,1.1,-.5c.5,0,.8,.2,.8,.6c0,.1,-.1,.3,-.3,.6c-.2,.2,-.5,.5,-.8,.9c-.3,.3,-.6,.6,-.8,.9c-.3,.2,-.5,.4,-.7,.6l1.4,1.5c.8,-.8,1.4,-1.6,1.8,-2.3c.4,-.7,.6,-1.2,.6,-1.7c0,-.3,0,-.6,-.2,-.9c-.1,-.3,-.3,-.5,-.5,-.7c-.2,-.1,-.5,-.3,-.7,-.4c-.3,-.1,-.7,-.1,-1,-.1c-.4,0,-1,.1,-1.6,.4c.6,-1.3,1.5,-1.9,2.9,-1.9c.9,0,1.8,.5,2.5,1.5c.4,.5,.6,.9,.8,1.4c.2,.5,.3,1,.3,1.5c0,.4,0,.9,0,1.6c-.1,1,-.1,2.6,-.1,4.8L382,148V135.2h2.2L383,134Zm12.4,1.2L394.2,134H382.4l1.2,1.2h8.1v.9c-2.5,.8,-4.9,2.1,-7.3,3.7l1.6,2.3c1.7,.1,3,.7,4,1.6c.3,.3,.6,.6,1,1c.3,.4,.5,.8,.7,1c.1,.3,.3,.7,.5,1.3l.7,.8V135.2h2.5Zm-3.7,9.4c-1,-1.8,-2.6,-3.2,-4.8,-4.1c.9,-.6,1.7,-1.1,2.5,-1.5c.8,-.4,1.6,-.7,2.3,-1v6.6Zm-4.7,1.7c.3,.3,.6,.4,.9,.4c.4,0,.7,-.1,.9,-.4c.2,-.2,.4,-.5,.4,-.8c0,-.4,-.2,-.7,-.4,-.9c-.2,-.3,-.5,-.4,-.9,-.4c-.3,0,-.6,.1,-.9,.4c-.2,.2,-.3,.5,-.3,.9c0,.3,.1,.6,.3,.8ZM405.5,134h-12l1.2,1.2c.5,.6,.8,1,1.1,1.2c.2,.2,.5,.3,.8,.4c.3,.2,.7,.3,1.1,.4c.8,.3,1.4,.5,1.6,.8c.5,.4,.7,1.1,.7,2.2c-.2,-.2,-.5,-.3,-.9,-.3c-.8,0,-1.3,.2,-1.8,.5c-.5,.4,-.7,1,-.7,1.6c0,.6,.2,1.1,.6,1.5c.4,.4,.8,.5,1.4,.5c.3,0,.7,0,1,-.2c.4,-.1,.8,-.5,1.1,-.9c1.6,.5,2.7,2,3.4,4.4l.4,.5V135.2h2.2L405.5,134Zm-2.1,9.8c-.3,-.4,-.6,-.8,-.9,-1.2c-.4,-.4,-.8,-.8,-1.2,-1.2c0,-.1,0,-.2,0,-.3v-.3c0,-1.1,-.4,-2.1,-1.1,-3.1c-.5,-.7,-1.4,-1.5,-2.6,-2.5h5.8v8.6Zm23.1,-11.9c-2.3,-2.4,-4.7,-3.6,-7.2,-3.6c-1,0,-2,.4,-3.1,1.2c-1.1,.9,-1.6,1.8,-1.6,2.7c0,.4,.1,.7,.4,1l.9,.8h-3.2l1.2,1.2h1.8v11.3l1.2,1.2V135.2H419L417.8,134h-1.3l-.5,-1.1c.1,-.9,.6,-1.6,1.7,-2.3c.9,-.7,1.8,-1,2.7,-1c.6,0,1.2,.1,1.8,.2c.6,.2,1.1,.4,1.7,.7c.6,.4,1.1,.7,1.6,1c.5,.4,.9,.7,1.3,1l-.3,-.6Zm4,3.3L429.3,134H417.5l1.2,1.2h1.2v7.1l1.7,1.7c.5,-1.1,1.2,-2.1,2.1,-2.9c.8,-.9,1.8,-1.5,2.9,-1.9c-.3,1,-.4,2.1,-.4,3.1c0,.6,0,1.3,.1,2.2c.2,.8,.3,1.8,.6,3l.8,.4c-.3,-1.6,-.4,-2.8,-.4,-3.7c0,-.9,.1,-1.8,.4,-2.8c.3,-1,.7,-2,1.2,-3L427,136.9c-.4,.1,-.9,.3,-1.4,.6c-.5,.2,-1,.5,-1.5,.8c-.5,.4,-1,.7,-1.5,1.2c-.5,.4,-.9,.8,-1.4,1.3v-5.6h9.3Zm11.1,0L440.4,134H428.7l1.2,1.2h8.4v6.6c-1.3,-2.6,-2.8,-4,-4.5,-4c-.8,0,-1.5,.3,-2.1,.9c-.5,.5,-.8,1.2,-.8,2c0,1.5,.7,2.2,2.3,2.2c.5,0,.9,-.2,1.2,-.5c.3,-.4,.4,-.8,.4,-1.3c0,-.3,-.2,-.8,-.8,-1.5c.1,-.1,.2,-.1,.4,-.1c1.2,0,2.4,.8,3.3,2.5c.7,1.4,1,2.9,1,4.2l-.1,1.3l.9,.6V135.2h2.1Zm12,-3.3c-2.3,-2.4,-4.7,-3.6,-7.2,-3.6c-1,0,-2,.4,-3.1,1.2c-1.1,.9,-1.6,1.8,-1.6,2.7c0,.4,.2,.7,.5,1l.8,.8h-3.2l1.2,1.2h1.8v11.3l1.2,1.2V135.2h2.1L444.9,134h-1.3l-.5,-1.1c.1,-.9,.6,-1.6,1.7,-2.3c.9,-.7,1.8,-1,2.7,-1c.6,0,1.2,.1,1.8,.2c.6,.2,1.2,.4,1.7,.7c.6,.4,1.1,.7,1.6,1c.5,.4,.9,.7,1.3,1l-.3,-.6Zm2.9,3.3L455.3,134h-.6c0,-1.1,-.2,-2,-.7,-2.6c-.5,-.6,-1.3,-.9,-2.4,-.9c-.3,0,-.8,.1,-1.5,.1c-.3,.1,-.6,.1,-.8,.1c-.3,0,-.5,0,-.7,0c-.5,0,-.9,-.1,-1.3,-.3c-.4,-.2,-.6,-.6,-.6,-1.1c0,-.2,.1,-.4,.3,-.6c0,-.1,0,-.2,0,-.2c0,-.1,0,-.2,0,-.2c-.6,0,-.9,.5,-.9,1.4c0,.9,.4,1.6,1.2,2c.8,.5,1.7,.7,2.6,.7c.1,0,.2,0,.4,0c.2,-.1,.4,-.1,.6,-.1c.5,-.1,.9,-.1,1.1,-.1c1.1,0,1.6,.3,1.5,1c0,.2,0,.3,0,.4c0,.2,0,.3,0,.4h-9.1l1.1,1.2h1.9v8c.2,.9,.5,1.6,.9,2c.5,.5,1.1,.7,1.9,.7c1.1,0,2.2,-.6,3.2,-1.8c1,-1.2,1.5,-2.3,1.5,-3.5c0,-.4,-.1,-.7,-.2,-1.1c0,-.3,-.2,-.6,-.3,-.9c-.5,-.7,-1,-1,-1.7,-1c-.5,0,-.8,.2,-1.1,.5c-.3,.3,-.4,.7,-.4,1.1c0,.4,.1,.8,.4,1c.4,.3,.7,.4,1.1,.4h.4c-.1,.8,-.5,1.6,-1.1,2.5c-.8,.8,-1.5,1.3,-2.2,1.3c-.5,0,-.9,-.3,-1.2,-.8v-8.4h7.9Zm6.2,-1.2h-7.9l1.2,1.2h3.9c-1.7,2,-2.5,4,-2.5,6.1c0,1.5,.3,2.8,.9,3.9c.8,1.4,1.8,2.1,3.2,2.1c.3,0,.6,0,.9,-.1c.2,-.1,.5,-.2,.7,-.4c.2,-.2,.3,-.4,.4,-.7c.1,-.2,.2,-.5,.2,-.8c0,-.4,-.1,-.9,-.4,-1.2c-.3,-.3,-.7,-.5,-1.1,-.5c-.3,0,-.7,.2,-1,.4c-.3,.3,-.4,.6,-.4,1c0,.2,0,.4,.2,.7c.1,.2,.3,.4,.5,.6c-.7,.2,-1.4,-.2,-2.2,-1.3c-.4,-.7,-.7,-1.5,-.7,-2.3c0,-1,.1,-1.9,.3,-2.7c.2,-.7,.6,-1.4,1,-2.1c.4,-.7,1,-1.3,1.6,-1.7c.7,-.5,1.5,-.8,2.4,-1L462.7,134Zm13.5,0H461.9l1.3,1.2h14.3L476.2,134Zm-.5,5.6c-.3,-.6,-.6,-1.2,-1,-1.7c-.4,-.5,-.9,-.9,-1.5,-1.1c-.5,-.3,-1.1,-.5,-1.8,-.5c-.8,0,-1.4,.3,-2,.7c-.6,.5,-.9,1.1,-.9,1.9c0,.6,.2,1.2,.6,1.6c.3,.5,.8,.7,1.5,.7c1.2,0,1.9,-.6,1.9,-1.7c0,-.5,-.2,-1,-.5,-1.4c.4,-.1,.7,-.2,.9,-.2c.6,0,1.1,.3,1.5,.9c.4,.6,.6,1.1,.6,1.8c0,.8,-.4,1.6,-1.1,2.3c-.8,.6,-1.6,1,-2.4,1c-1.8,0,-3.3,-.9,-4.5,-2.8c-.3,-.3,-.6,-1,-1,-1.8c-.5,-.9,-.9,-1.9,-1.4,-3.1l-.7,-.2c1.8,6.5,4.3,9.8,7.5,9.8c1.2,0,2.2,-.5,3.2,-1.3c.4,-.4,.8,-.8,1,-1.4c.3,-.5,.4,-1,.4,-1.6c0,-.7,-.1,-1.3,-.3,-1.9Zm22.2,-4.4L496.7,134H483.8c.4,.4,.7,.7,.9,.9c.2,.2,.4,.4,.5,.5c.4,.2,.7,.4,.9,.6c.3,.1,.6,.2,.9,.3c.5,.1,.9,.2,1.3,.3c.3,.1,.6,.2,.8,.4c.2,.2,.4,.4,.5,.7c.1,.4,.2,.8,.3,1.4c-.4,.5,-.7,.9,-1,1.3c-.3,.3,-.5,.5,-.6,.7c-.2,.2,-.3,.3,-.4,.4c-.1,0,-.2,0,-.3,0c-.2,0,-.3,0,-.4,-.1c-.2,-.1,-.3,-.3,-.4,-.4c-.1,-.2,-.2,-.4,-.2,-.6c-.1,-.2,-.2,-.3,-.2,-.5l-.8,.8c.1,.2,.3,.5,.5,.8c.1,.3,.3,.6,.6,.9c.2,.3,.5,.5,.8,.7c.2,.1,.6,.2,.9,.2c.2,0,.3,0,.5,-.1c.1,0,.3,-.1,.5,-.3c.2,-.2,.5,-.5,.8,-.9c.3,-.4,.6,-.9,1,-1.6c.4,-.6,.9,-1,1.3,-1.1c.4,0,.8,.1,1.1,.4c.3,.4,.5,.9,.7,1.6c.2,.7,.3,1.6,.3,2.5v.4c0,.1,0,.3,0,.5c0,.1,0,.4,-.1,.7c0,.3,0,.6,0,1.1c.2,.2,.4,.4,.6,.6c.2,.3,.4,.5,.6,.7V135.2h2.2Zm-3.4,4.1c-.3,-.4,-.7,-.8,-1,-1.1c-.3,-.4,-.6,-.6,-.9,-.7c-.3,-.1,-.6,-.1,-.9,.1c-.3,.1,-.7,.4,-1.1,.8c0,-.6,-.2,-1.1,-.4,-1.6c-.3,-.5,-.7,-1,-1.3,-1.6h5.6v4.1Zm8,-4.1L501.3,134h-1.1c-.3,-.4,-.6,-1,-.7,-1.9l-.5,-.3c0,.2,0,.5,.1,.9c0,.3,0,.7,0,1.2c.1,.5,.1,.9,.1,1.3c0,.3,0,.6,0,.9c-.2,-.8,-.5,-1.3,-.9,-1.6c-.4,-.3,-1,-.5,-1.7,-.5h-1.4l1.2,1.2c.3,0,.7,.1,1,.2c.3,.1,.6,.3,.9,.5c.2,.2,.4,.4,.5,.7c.2,.3,.3,.7,.3,1v8.9l1.1,1.2V135.2h2.3ZM512.6,134h-12l1.3,1.2c.4,.6,.8,1,1.1,1.2c.2,.2,.4,.3,.7,.4c.3,.2,.7,.3,1.1,.4c.8,.3,1.4,.5,1.7,.8c.4,.4,.6,1.1,.6,2.2c-.2,-.2,-.5,-.3,-.9,-.3c-.7,0,-1.3,.2,-1.7,.5c-.5,.4,-.8,1,-.8,1.6c0,.6,.2,1.1,.6,1.5c.4,.4,.9,.5,1.5,.5c.3,0,.6,0,1,-.2c.4,-.1,.7,-.5,1.1,-.9c1.6,.5,2.7,2,3.3,4.4l.5,.5V135.2h2.1L512.6,134Zm-2.1,9.8c-.2,-.4,-.5,-.8,-.9,-1.2c-.3,-.4,-.7,-.8,-1.2,-1.2c0,-.1,0,-.2,0,-.3v-.3c0,-1.1,-.4,-2.1,-1.1,-3.1c-.5,-.7,-1.3,-1.5,-2.6,-2.5h5.8v8.6Zm15.4,-11.9c-2.3,-2.4,-4.8,-3.6,-7.3,-3.6c-1,0,-2,.4,-3.1,1.2c-1,.9,-1.6,1.8,-1.6,2.7c0,.4,.2,.7,.5,1l.8,.8H512l1.2,1.2H515v11.3l1.3,1.2V135.2h2L517.1,134h-1.3l-.4,-1.1c0,-.9,.6,-1.6,1.6,-2.3c.9,-.7,1.9,-1,2.8,-1c.6,0,1.2,.1,1.7,.2c.6,.2,1.2,.4,1.7,.7c.6,.4,1.2,.7,1.6,1c.5,.4,.9,.7,1.3,1l-.2,-.6ZM529,134c-.1,0,-.2,0,-.3,0c-.7,0,-1.1,-.4,-1.1,-1.3c0,-.1,0,-.2,.1,-.3l-.7,-.7c0,.5,0,1,0,1.5c0,.6,.1,1.2,.1,1.9l.2,3.5c-.6,-1.6,-1.1,-2.6,-1.6,-3.2c-.7,-.8,-1.7,-1.3,-2.9,-1.3c-.6,0,-1,.1,-1.5,.2c-.5,.2,-.9,.4,-1.3,.7c-.9,.6,-1.4,1.4,-1.4,2.4c0,.4,.1,.8,.4,1.1c.3,.4,.6,.6,1,.6c.1,0,.3,0,.5,-.1c.2,-.1,.4,-.2,.7,-.4c.6,-.3,1,-.5,1.2,-.5c.4,0,.7,.2,.7,.6c0,.1,-.1,.3,-.3,.6c-.2,.2,-.5,.5,-.8,.9c-.3,.3,-.6,.6,-.8,.9c-.3,.2,-.5,.4,-.7,.6l1.4,1.5c.8,-.8,1.4,-1.6,1.8,-2.3c.4,-.7,.7,-1.2,.7,-1.7c0,-.3,-.1,-.6,-.2,-.9c-.2,-.3,-.3,-.5,-.6,-.7c-.2,-.1,-.4,-.3,-.7,-.4c-.3,-.1,-.6,-.1,-1,-.1c-.4,0,-.9,.1,-1.5,.4c.5,-1.3,1.4,-1.9,2.8,-1.9c.9,0,1.8,.5,2.5,1.5c.4,.5,.6,.9,.8,1.4c.2,.5,.3,1,.3,1.5c0,.4,0,.9,0,1.6c-.1,1,-.1,2.6,-.1,4.8l1.4,1.6V135.2h2.1L529,134Zm7.2,0h-7.9l1.2,1.2h3.9c-1.6,2,-2.5,4,-2.5,6.1c0,1.5,.3,2.8,.9,3.9c.8,1.4,1.9,2.1,3.3,2.1c.2,0,.5,0,.8,-.1c.2,-.1,.5,-.2,.7,-.4c.2,-.2,.3,-.4,.4,-.7c.2,-.2,.2,-.5,.2,-.8c0,-.4,-.1,-.9,-.4,-1.2c-.3,-.3,-.6,-.5,-1,-.5c-.4,0,-.7,.2,-1.1,.4c-.3,.3,-.4,.6,-.4,1c0,.2,0,.4,.2,.7c.1,.2,.3,.4,.6,.6c-.8,.2,-1.5,-.2,-2.3,-1.3c-.4,-.7,-.7,-1.5,-.7,-2.3c0,-1,.1,-1.9,.3,-2.7c.3,-.7,.6,-1.4,1,-2.1c.4,-.7,1,-1.3,1.7,-1.7c.6,-.5,1.4,-.8,2.3,-1L536.2,134Zm11.7,1.2L546.7,134H535.6c.6,1,1.7,1.7,3.3,2.2c.7,.2,1.2,.4,1.6,.6c.5,.2,.7,.4,.9,.6c-.5,.4,-1.1,.8,-1.7,1.4c-.7,.5,-1.3,1.1,-1.9,1.7l1.6,2.1c1.4,.1,2.6,.5,3.5,1.2c.6,.5,1.2,1.2,1.8,2.3c.5,1,1,1.6,1.3,1.8V135.2h1.9Zm-3.1,9.5c-1.1,-1.7,-2.6,-2.9,-4.5,-3.6c.5,-.5,1,-1.1,1.4,-1.6c.5,-.5,1,-.9,1.5,-1.4c-.6,-.7,-1.2,-1.3,-1.7,-1.8c-.5,-.5,-.9,-.9,-1.3,-1.1h4.6v9.5Zm-4.6,2c.2,.2,.5,.3,.8,.3c.4,0,.7,-.1,.9,-.3c.2,-.3,.4,-.6,.4,-.9c0,-.3,-.2,-.6,-.4,-.9c-.2,-.2,-.5,-.3,-.9,-.3c-.3,0,-.6,.1,-.8,.3c-.3,.3,-.4,.6,-.4,.9c0,.3,.1,.6,.4,.9ZM558.7,134h-.9c-.1,-.1,-.2,-.2,-.3,-.3c0,-.2,-.1,-.3,-.1,-.4l-.1,-.8l-.6,-.7v13.1h-.1c-.2,-.4,-.4,-.7,-.7,-1c-.3,-.4,-.7,-.7,-1.1,-1c-.2,-.2,-.5,-.4,-.9,-.7c-.4,-.2,-.9,-.5,-1.4,-.8c1.9,-1.2,2.9,-2.6,2.9,-4.1c0,-.9,-.3,-1.6,-.9,-2.3c-.6,-.7,-1.3,-1,-2.2,-1c-1,0,-1.9,.3,-2.8,.8c-.9,.7,-1.4,1.5,-1.4,2.4c0,.5,.2,.9,.5,1.2c.3,.3,.6,.5,1.1,.5c.2,0,.4,0,.6,-.1c.1,-.1,.3,-.2,.5,-.3c.1,-.1,.2,-.2,.3,-.4c.1,-.1,.1,-.3,.1,-.5c0,-.3,-.2,-.7,-.6,-1.2c.1,-.2,.4,-.5,.9,-.8c.5,-.2,.9,-.4,1.2,-.4c.4,0,.8,.2,1.1,.5c.3,.3,.5,.6,.5,1.1c0,.4,-.2,.8,-.5,1.2c-.3,.4,-.8,.8,-1.4,1.2c-.5,.3,-1.1,.6,-1.6,.7c-.5,.2,-.9,.3,-1.2,.3c-.3,0,-.6,0,-.9,0l1.9,2.5c.8,0,1.5,.1,2.3,.4c.8,.2,1.5,.6,2,1.1c.3,.2,.6,.6,1.1,1.2c.5,.6,1.1,1.4,1.8,2.4V135.2h2.1L558.7,134Zm5.8,1.2L563.3,134h-1c-.4,-.4,-.6,-1,-.8,-1.9l-.4,-.3c0,.2,0,.5,0,.9c0,.3,0,.7,.1,1.2c0,.5,0,.9,.1,1.3c0,.3,0,.6,0,.9c-.3,-.8,-.6,-1.3,-1,-1.6c-.4,-.3,-.9,-.5,-1.7,-.5h-1.3l1.2,1.2c.3,0,.6,.1,.9,.2c.4,.1,.7,.3,.9,.5c.3,.2,.4,.4,.6,.7c.1,.3,.2,.7,.2,1v8.9l1.2,1.2V135.2h2.2Zm5,-.1c-.5,-.6,-1.1,-.8,-1.9,-.8c-.7,0,-1.3,.2,-1.9,.8c-.2,.3,-.4,.6,-.6,.9c-.1,.4,-.2,.7,-.2,1.1c0,.7,.3,1.4,.9,2c.5,.5,1.2,.8,2,.8c.7,0,1.3,-.3,1.8,-.8c.5,-.6,.7,-1.3,.7,-2c0,-.7,-.2,-1.4,-.8,-2Zm-1,3c-.5,.4,-1,.6,-1.6,.6c-.5,0,-.7,-.3,-.7,-.9c0,-.3,0,-.6,.2,-.8c.1,-.3,.2,-.6,.4,-.8c.5,-.5,1,-.7,1.5,-.7c.6,0,.9,.3,.9,1c0,.6,-.3,1.1,-.7,1.6Zm2.7,8.7c-.7,-1,-1.6,-2.1,-2.8,-3.3c-1.2,-1.3,-2.2,-2.3,-3.2,-3v2.7c.5,.3,1,.6,1.5,.9c.5,.4,1,.7,1.5,1.1c.6,.4,1.1,.8,1.6,1.3c.5,.4,1,.9,1.4,1.3v-1ZM590.1,134c-.5,-.1,-.8,-.2,-1,-.6c0,-.1,0,-.2,0,-.5c-.1,-.2,-.1,-.5,-.1,-.7l-.6,-.4v12.3h-.1c-.8,-1.4,-2,-2.5,-3.8,-3.4c.8,-.2,1.4,-.6,1.9,-1.2c.6,-.6,.9,-1.3,.9,-2c0,-.7,-.3,-1.3,-.9,-1.9c0,-.1,-.2,-.2,-.5,-.5c-.3,-.3,-.7,-.6,-1.1,-1c-.3,.3,-.5,.5,-.8,.8c-.2,.2,-.3,.3,-.4,.4c-.2,.2,-.5,.3,-.7,.5c-.3,.1,-.5,.2,-.8,.2c0,-.7,-.4,-1.1,-1.1,-1.1c-.4,0,-.7,.2,-.9,.4c-.3,.3,-.4,.6,-.4,.9c0,.5,.2,.9,.5,1.2c.4,.3,.8,.5,1.3,.5c1.3,0,2.6,-.7,3.9,-2c.4,.4,.6,.8,.6,1.3c0,.4,-.1,.7,-.4,1c-.3,.2,-.8,.5,-1.3,.8c-.5,.2,-.9,.3,-1.4,.4c-.4,.1,-.8,.2,-1.2,.2c-.2,0,-.4,0,-.5,-.1c-.2,0,-.4,0,-.5,0l2,2.5c1.2,.1,2.2,.4,3.2,1c.5,.3,.9,.6,1.3,1c.4,.4,.8,.9,1.1,1.3c0,.1,.1,.3,.2,.5c.1,.2,.2,.5,.3,.8c.1,.2,.2,.3,.3,.5c.1,.2,.3,.4,.4,.5V135.2h1.9L590.1,134Zm5.8,1.2L594.8,134h-1.1c-.4,-.4,-.6,-1,-.7,-1.9l-.5,-.3c0,.2,0,.5,0,.9c.1,.3,.1,.7,.1,1.2c.1,.5,.1,.9,.1,1.3c0,.3,0,.6,0,.9c-.2,-.8,-.5,-1.3,-.9,-1.6c-.4,-.3,-1,-.5,-1.7,-.5h-1.4l1.2,1.2c.3,0,.7,.1,1,.2c.3,.1,.6,.3,.8,.5c.3,.2,.5,.4,.6,.7c.2,.3,.2,.7,.2,1v8.9l1.2,1.2V135.2h2.2Zm10.7,0L605.4,134H594.3c.6,1,1.7,1.7,3.3,2.2c.7,.2,1.2,.4,1.7,.6c.4,.2,.7,.4,.8,.6c-.5,.4,-1.1,.8,-1.7,1.4c-.6,.5,-1.3,1.1,-1.9,1.7l1.6,2.1c1.4,.1,2.6,.5,3.5,1.2c.6,.5,1.2,1.2,1.8,2.3c.5,1,1,1.6,1.3,1.8V135.2h1.9Zm-3.1,9.5C602.4,143,601,141.8,599,141.1c.5,-.5,1,-1.1,1.5,-1.6c.4,-.5,.9,-.9,1.4,-1.4c-.6,-.7,-1.1,-1.3,-1.7,-1.8c-.5,-.5,-.9,-.9,-1.3,-1.1h4.6v9.5Zm-4.6,2c.2,.2,.5,.3,.8,.3c.4,0,.7,-.1,.9,-.3c.3,-.3,.4,-.6,.4,-.9c0,-.3,-.1,-.6,-.4,-.9c-.2,-.2,-.5,-.3,-.9,-.3c-.3,0,-.6,.1,-.8,.3c-.3,.3,-.4,.6,-.4,.9c0,.3,.1,.6,.4,.9Z" class="gp_34"/>
<g clip-path="url(#c0_34)">
<path d="M1877,177.2H32.1v-5.4H768.7c43.1,0,53,-37.9,115.3,-37.9h993Z" class="gq_34"/>
<path d="M1877,183.7H32.1v-9.8H768.7c43.1,0,53,-33.6,115.3,-33.6h993Z" class="gr_34"/>
</g>
<image clip-path="url(#ci_34)" preserveAspectRatio="none" x="125" y="206" width="734" height="181" xlink:href="img/9.png"/>
<path d="M144.6,231.3c0,0,-13,0,-13,13v117c0,0,0,13,13,13H833.1c0,0,13,0,13,-13v-130Z" class="gs_34"/>
<path d="M147.7,294.1l54.1,40.8l54.1,-40.8V230h8.7V211.9H155.8c-6.5,.4,-7.7,3.9,-8.2,8.4Z" class="gt_34"/>
<path d="M274,220.3c-.3,-4.7,-4.2,-8.4,-9,-8.4c-4.8,0,-8.7,3.7,-9,8.4h-.1V230h18.2v-9.7Z" class="gb_34"/>
<path d="M255.9,230.6H846.1" class="gu_34"/>
<path d="M32.1,45.1H9.2m958.3,0h22.9M32.1,1331.3H9.2m958.3,0h22.9M45.1,32.1V9.2m0,1335.1v22.9M954.5,32.1V9.2m0,1335.1v22.9" class="gv_34"/>
<path d="M32.1,45.1H9.2m958.3,0h22.9M32.1,1331.3H9.2m958.3,0h22.9M45.1,32.1V9.2m0,1335.1v22.9M954.5,32.1V9.2m0,1335.1v22.9" class="gw_34"/>
<path d="M27.5,32.1H0m972.1,0h27.5M27.5,1344.3H0m972.1,0h27.5M32.1,27.5V0m0,1348.9v27.5M967.5,27.5V0m0,1348.9v27.5" class="gv_34"/>
<path d="M27.5,32.1H0m972.1,0h27.5M27.5,1344.3H0m972.1,0h27.5M32.1,27.5V0m0,1348.9v27.5M967.5,27.5V0m0,1348.9v27.5" class="gw_34"/>
</svg>