<?xml version="1.0" encoding="UTF-8" standalone="no"?>
<!DOCTYPE svg PUBLIC "-//W3C//DTD SVG 1.1//EN"
"http://www.w3.org/Graphics/SVG/1.1/DTD/svg11.dtd">
<svg viewBox="0 0 999 1376" version="1.1" xmlns="http://www.w3.org/2000/svg" xmlns:xlink="http://www.w3.org/1999/xlink">
<defs>
<clipPath id="c0_37"><path d="M706.7,577.3v-270H926.1v270Z"/></clipPath>
<clipPath id="c1_37"><path d="M707.2,575.9V307.5H929.4V575.9Z"/></clipPath>
<clipPath id="c2_37"><path d="M706.9,575.6V307.2H929.1V575.6Z"/></clipPath>
<clipPath id="c3_37"><path d="M199.2,252l-6.5,-2.1L176.3,236V178.9h72V252Z"/></clipPath>
<clipPath id="c4_37"><path d="M199.2,1049.2l-6.5,-2.1l-16.4,-13.9V976.1h72v73.1Z"/></clipPath>
<clipPath id="c5_37"><path d="M786.5,132.5V120.1H801v12.4Z"/></clipPath>
<clipPath id="c6_37"><path d="M824.8,326.2c-.3,0,3.6,-8.2,3.6,-8.2l.7,.5c0,0,-4,7.7,-4.3,7.7Z"/></clipPath>
<clipPath id="c7_37"><path d="M832.3,318.5c0,0,-6.8,-1.1,-7.6,-5.2c-.6,-3.6,1.6,-3.8,2.1,-3.8q.1,0,.1,0l8.4,-12.8l-1.5,-3c0,0,-.6,-1.2,.1,-2.1c.1,-.1,.2,-.1,.4,-.1c2.1,0,12.9,5.5,12.9,5.5l.1,.2c-.4,.5,-.8,1.1,-1.4,1.6c-.7,.5,-5.1,1.2,-5.1,1.2l-8.5,18.5Z"/></clipPath>
<clipPath id="c8_37"><path d="M831.9,318.2c.2,-.5,.2,-1.8,0,-2.3v-1.4c-1.5,-.5,-2.9,-1.2,-3.6,-2.5c-1.1,.6,-2.2,1.2,-3.2,1.9c1.6,2.1,3.8,3.5,6.8,4.3Zm0,-3.9c2.2,-4.6,4,-9.5,6.2,-14.1c-.9,-.4,-1.9,-1.3,-2.7,-1.4c-2.3,4.3,-4.6,8.6,-7,12.8c.7,1.4,2.1,2,3.5,2.7Zm-7.3,12c1.1,-2.9,2.4,-5.4,3.5,-8.3c-1.9,-1.5,-3.9,-3.1,-4.4,-6.1v-1.5c0,-2.7,2,-3.4,4.6,-3.4c.1,0,.2,0,.2,0c2,-3.4,4.2,-6.4,6.2,-9.7c-.6,-.9,-1.2,-2.4,-.9,-3.6c.5,1.2,1.6,1.9,2.4,2.8c-.1,.6,-.3,1.2,-.4,1.8c.6,.7,1.3,1.2,2.4,1.4c.5,-.4,.5,-1.3,1.1,-1.5c1,.3,1.9,.7,3.2,.7c.1,.1,.4,.2,.8,.2c.3,0,.7,-.1,.8,-.2c.1,.1,.2,.1,.3,.1c.2,0,.4,-.1,.6,-.2c.2,0,.4,-.1,.5,-.1c.2,0,.3,0,.4,.1c-1.4,.7,-2.2,1.8,-4.2,1.8c-.1,0,-.2,0,-.4,0c-.8,3.7,-1.8,7.3,-2.6,11.2c.5,1,1.5,1.6,1.2,3.1c-.4,2.7,-3.8,4.4,-7.1,4.4c-1.3,0,-2.6,-.3,-3.7,-.8c-1,2.1,-2,4.2,-3.2,6.1c-.1,-.4,.3,-.4,.2,-.8c1,-1.8,2,-3.6,2.7,-5.6c-1.1,1.7,-1.9,3.7,-2.8,5.5c-.2,.4,-.4,.8,-.6,1.2c-.3,.5,-.3,1.2,-.8,1.4Z"/></clipPath>
<clipPath id="c9_37"><path d="M842.3,298.6c-4.7,0,-13,-7.4,-5.5,-8.8h1.3c.1,0,.3,0,.5,0c0,0,.1,0,.2,0c0,0,.1,0,.1,0c.3,0,.6,0,.9,.1c3.1,.6,8.3,3.8,7.6,7c-.3,1.2,-1.6,1.6,-3.2,1.7h-1.7q-.1,0,-.2,0Z"/></clipPath>
<clipPath id="ca_37"><path d="M79.8,802.6V550.7H300.3V802.6Z"/></clipPath>
<clipPath id="cb_37"><path d="M84.6,796.2V557H296.9V796.2Z"/></clipPath>
<clipPath id="cc_37"><path d="M84.3,795.9V556.7H296.6V795.9Z"/></clipPath>
<clipPath id="cd_37"><path d="M191.8,573v-.3c.3,-1.6,2.4,-7.8,2.4,-7.8l.6,.5c0,0,-2.6,6.9,-3,7.6Z"/></clipPath>
<clipPath id="ce_37"><path d="M197,565.4c0,0,-4.8,-1.1,-5.4,-5.3c-.4,-3.6,1.1,-3.8,1.5,-3.8q.1,0,.1,0l5.9,-12.7l-1,-3.1c0,0,-.4,-1.1,.1,-2.1c0,0,.1,-.1,.2,-.1c1.5,0,9.2,5.6,9.2,5.6l.1,.1c-.3,.5,-.6,1.2,-1,1.7c-.5,.5,-3.6,1.1,-3.6,1.1L197,565.4Z"/></clipPath>
<clipPath id="cf_37"><path d="M196.7,565c.2,-.5,.2,-1.8,0,-2.3v-1.3c-1,-.6,-2,-1.3,-2.5,-2.5c-.8,.5,-1.6,1.2,-2.3,1.8c1.1,2.2,2.7,3.6,4.8,4.3Zm0,-3.9c1.6,-4.5,2.9,-9.5,4.4,-14.1c-.6,-.3,-1.3,-1.3,-1.9,-1.3c-1.6,4.3,-3.2,8.6,-5,12.8c.6,1.3,1.5,2,2.5,2.6Zm-5.1,12.1c.7,-2.9,1.7,-5.5,2.5,-8.3c-1.4,-1.6,-2.8,-3.1,-3.2,-6.2v-1.5c0,-2.7,1.4,-3.4,3.3,-3.4q.1,0,.1,0c1.4,-3.3,3,-6.3,4.4,-9.6c-.4,-.9,-.8,-2.4,-.6,-3.7c.3,1.3,1.1,1.9,1.7,2.9c-.1,.6,-.2,1.1,-.3,1.8c.4,.6,1,1.1,1.7,1.3c.3,-.4,.4,-1.2,.8,-1.5c.7,.4,1.3,.8,2.2,.8c.1,.1,.4,.1,.6,.1c.3,0,.5,0,.6,-.1c.1,0,.2,0,.2,0c.2,0,.3,0,.5,-.1c.1,-.1,.2,-.1,.3,-.1c.1,0,.2,0,.3,.1c-1,.6,-1.6,1.7,-3,1.7c-.1,0,-.2,0,-.3,0c-.6,3.8,-1.3,7.4,-1.8,11.2c.4,1.1,1,1.7,.9,3.1c-.4,2.8,-2.8,4.4,-5.2,4.4c-.9,0,-1.7,-.2,-2.5,-.7c-.7,2.1,-1.5,4.1,-2.3,6c-.1,-.3,.2,-.4,.1,-.7c.7,-1.8,1.4,-3.6,1.9,-5.7c-.7,1.7,-1.3,3.7,-2,5.5c-.1,.5,-.2,.9,-.4,1.3c-.2,.4,-.2,1.1,-.5,1.4Z"/></clipPath>
<clipPath id="cg_37"><path d="M204.2,545.4c-3.4,0,-9.3,-7.3,-4,-8.8h.9c.1,.1,.3,.1,.4,.1c0,0,.1,0,.1,0q.1,0,.2,0c.2,0,.4,0,.6,0c2.2,.7,5.8,3.8,5.3,7.1c-.1,1.1,-1.1,1.6,-2.2,1.6h-1.3Z"/></clipPath>
<style type="text/css"><![CDATA[
.g0_37{
fill: #FEFCF4;
}
.g1_37{
fill: #FFF;
}
.g2_37{
fill: none;
stroke: #6381B7;
stroke-width: 0.763;
}
.g3_37{
fill: #F7C2D9;
}
.g4_37{
fill: #FDF4F3;
}
.g5_37{
fill: #EC008C;
}
.g6_37{
fill: none;
stroke: #949698;
stroke-width: 0.305;
stroke-dasharray: 4,4;
}
.g7_37{
fill: none;
stroke: #949698;
stroke-width: 0.305;
}
.g8_37{
fill: #6381B7;
}
.g9_37{
fill: none;
stroke: #6381B7;
stroke-width: 0.381;
stroke-dasharray: 2,1;
}
.ga_37{
fill: none;
stroke: #6381B7;
stroke-width: 0.381;
}
.gb_37{
fill: #FCE8B0;
}
.gc_37{
fill: #25408F;
}
.gd_37{
fill: #A8AAAD;
}
.ge_37{
fill: none;
stroke: #949698;
stroke-width: 0.549;
}
.gf_37{
fill: none;
stroke: #BCBEC0;
stroke-width: 2.566;
}
.gg_37{
fill: #231F20;
}
.gh_37{
fill: #363637;
}
.gi_37{
fill: #5CC4BE;
}
.gj_37{
fill: #F0D73F;
}
.gk_37{
fill: none;
stroke: #949698;
stroke-width: 0.305;
stroke-dasharray: 3,3;
}
.gl_37{
fill: #6D6F71;
}
.gm_37{
fill: none;
stroke: #FFF;
stroke-width: 1.909;
stroke-miterlimit: 10;
}
.gn_37{
fill: none;
stroke: #000;
stroke-width: 0.381;
stroke-miterlimit: 10;
}
]]></style>
</defs>
<path d="M45.1,1344.3H967.5V32.1H45.1V1344.3Z" class="g0_37"/>
<path d="M172.1,138.6c0,0,-18.4,0,-18.4,18.4V903.8c0,0,0,18.3,18.4,18.3H849.2c0,0,18.3,0,18.3,-18.3V138.6Z" class="g1_37"/>
<path d="M172.1,138.6c0,0,-18.4,0,-18.4,18.4V903.8c0,0,0,18.3,18.4,18.3H849.2c0,0,18.3,0,18.3,-18.3V138.6H172.1Z" class="g2_37"/>
<image clip-path="url(#c0_37)" preserveAspectRatio="none" x="707" y="308" width="219" height="269" xlink:href="img/1.png"/>
<path d="M711.7,319L718,571.1l201.8,-6.6L913.1,312Z" class="g3_37"/>
<image clip-path="url(#c1_37)" preserveAspectRatio="none" x="707" y="308" width="222" height="269" xlink:href="img/2.png"/>
<image clip-path="url(#c2_37)" preserveAspectRatio="none" x="707" y="308" width="222" height="268" xlink:href="img/3.png"/>
<path d="M721.1,311.9l-9.5,251.6l171.3,6l31.3,-22.1l8.7,-228.5Z" class="g4_37"/>
<path d="M883.1,569.7l31.2,-22L900,539.9Z" class="g5_37"/>
<path d="M573.9,400.2c16,-1,28.7,-7.4,31.3,-15.5m-.6,-7.8C600.9,369.2,588,363.4,572.3,362.7m-8,.1c-16,1.1,-28.7,7.5,-31.4,15.6m.6,7.8c3.8,7.6,16.7,13.4,32.4,14.1" class="g6_37"/>
<path d="M605.6,383.1c.1,-.5,.1,-1,.1,-1.6c0,-.5,0,-1,-.1,-1.6M570.7,362.7c-.5,0,-1.1,0,-1.6,0c-.5,0,-1.1,0,-1.6,0m-34.9,17.2c-.1,.6,-.2,1.1,-.2,1.6c0,.6,.1,1.1,.2,1.6m34.9,17.3c.5,0,1.1,0,1.6,0c.5,0,1.1,0,1.6,0" class="g7_37"/>
<path d="M166.7,957.5c0,0,-13,0,-13,13v177.7c0,0,0,12.9,13,12.9H854.5c0,0,13,0,13,-12.9V970.5c0,0,0,-13,-13,-13Z" class="g1_37"/>
<path d="M166.7,957.5c0,0,-13,0,-13,13v177.7c0,0,0,12.9,13,12.9H854.5c0,0,13,0,13,-12.9V970.5c0,0,0,-13,-13,-13H166.7Z" class="g2_37"/>
<path d="M618.4,1178.9c0,0,-4.3,0,-4.3,4.3V1194c0,0,0,4.3,4.3,4.3h30.3c0,0,4.4,0,4.4,-4.3v-10.8c0,0,0,-4.3,-4.4,-4.3Z" class="g8_37"/>
<path d="M605.2,1171.4v34.8m1.4,1H866.8m.9,-1.4V1171m-1.3,-1H606.2" class="g9_37"/>
<path d="M605.2,1206.6v.6h.6m261.3,0h.6v-.6m0,-36v-.6h-.6m-261.3,0h-.6v.6" class="ga_37"/>
<path d="M231.8,207c0,0,-13,0,-13,13v21.7c0,0,0,13,13,13h602c0,0,13,0,13,-13V220c0,0,0,-13,-13,-13Z" class="gb_37"/>
<image clip-path="url(#c3_37)" preserveAspectRatio="none" x="175" y="177" width="75" height="77" xlink:href="img/4.png"/>
<path d="M226.6,247.3c0,0,-26.9,11.3,-51.1,-12.7c0,0,15.1,25.3,49.3,23.9c0,0,24.7,.4,20.2,-10.1c0,0,1.2,-4.5,-18.4,-1.1Z" class="gb_37"/>
<path d="M231.8,978.2c0,0,-13,0,-13,13v47.7c0,0,0,13,13,13h602c0,0,13,0,13,-13V991.2c0,0,0,-13,-13,-13Z" class="gb_37"/>
<image clip-path="url(#c4_37)" preserveAspectRatio="none" x="175" y="974" width="75" height="77" xlink:href="img/5.png"/>
<path d="M226.6,1044.5c0,0,-26.9,11.3,-51.1,-12.8c0,0,15.1,25.4,49.3,24c0,0,24.7,.3,20.2,-10.1c0,0,1.2,-4.5,-18.4,-1.1Z" class="gb_37"/>
<path d="M153.3,111.9v39L165,161.2V117Z" class="gc_37"/>
<path d="M153.3,111.9v39H851.1c0,0,16.8,0,16.8,-16.8v-5.3c0,0,0,-16.9,-16.8,-16.9Z" class="g8_37"/>
<path d="M802.6,145.6c8.2,0,14.9,-6.5,14.9,-14.5c0,-8.1,-6.7,-14.5,-14.9,-14.5c-8.2,0,-14.9,6.4,-14.9,14.5c0,8,6.7,14.5,14.9,14.5Z" class="gd_37"/>
<path d="M802.6,145.6c8.2,0,14.9,-6.5,14.9,-14.5c0,-8.1,-6.7,-14.5,-14.9,-14.5c-8.2,0,-14.9,6.4,-14.9,14.5c0,8,6.7,14.5,14.9,14.5Z" class="ge_37"/>
<path d="M802.6,136.4c3,0,5.5,-2.4,5.5,-5.3c0,-3,-2.5,-5.4,-5.5,-5.4c-3,0,-5.5,2.4,-5.5,5.4c0,2.9,2.5,5.3,5.5,5.3Z" class="g1_37"/>
<path d="M802.6,136.4c3,0,5.5,-2.4,5.5,-5.3c0,-3,-2.5,-5.4,-5.5,-5.4c-3,0,-5.5,2.4,-5.5,5.4c0,2.9,2.5,5.3,5.5,5.3Z" class="gf_37"/>
<g clip-path="url(#c5_37)" opacity="0.3">
<path d="M788,130.3c0,0,0,-4.8,3.7,-8.7l7.7,6.8c0,0,-1,.9,-1,2.6Z" class="g1_37"/>
</g>
<path d="M807.2,131c0,0,-3.5,0,-3.5,3.4v8.7c0,0,0,3.5,3.5,3.5h43.5c0,0,3.5,0,3.5,-3.5v-8.7c0,0,0,-3.4,-3.5,-3.4Z" class="gg_37"/>
<path d="M191.2,122c0,-8.3,-6.8,-15,-15.1,-15c-8.3,0,-15,6.7,-15,15c0,8.3,6.7,15.1,15,15.1c.8,0,1.7,-.1,2.4,-.2l4.5,5.2v-6.7c4.9,-2.5,8.2,-7.6,8.2,-13.4Z" class="g1_37"/>
<path d="M183.5,143.3l-5.1,-5.9c-.8,.1,-1.5,.1,-2.3,.1c-8.5,0,-15.5,-6.9,-15.5,-15.5c0,-8.5,7,-15.5,15.5,-15.5c8.6,0,15.5,7,15.5,15.5c0,5.7,-3.1,11,-8.1,13.7Zm-4.8,-6.9l3.9,4.5v-5.8l.2,-.1c4.9,-2.5,7.9,-7.5,7.9,-13c0,-8,-6.5,-14.6,-14.6,-14.6c-8,0,-14.6,6.6,-14.6,14.6c0,8.1,6.6,14.6,14.6,14.6c.8,0,1.6,-.1,2.4,-.2Z" class="gh_37"/>
<path d="M169.1,121.6c.8,0,1.4,.6,1.4,1.4c0,.8,-.6,1.5,-1.4,1.5c-.8,0,-1.4,-.7,-1.4,-1.5c0,-.8,.6,-1.4,1.4,-1.4Z" class="gi_37"/>
<path d="M169.1,124.9c-1,0,-1.9,-.8,-1.9,-1.9c0,-1,.9,-1.9,1.9,-1.9c1,0,1.9,.9,1.9,1.9c0,1.1,-.9,1.9,-1.9,1.9m0,-2.9c-.5,0,-1,.5,-1,1c0,.6,.5,1,1,1c.5,0,1,-.4,1,-1c0,-.5,-.5,-1,-1,-1Z" class="gh_37"/>
<path d="M176.1,121.6c.8,0,1.5,.6,1.5,1.4c0,.8,-.7,1.5,-1.5,1.5c-.8,0,-1.4,-.7,-1.4,-1.5c0,-.8,.6,-1.4,1.4,-1.4Z" class="gi_37"/>
<path d="M176.1,124.9c-1,0,-1.9,-.8,-1.9,-1.9c0,-1,.9,-1.9,1.9,-1.9c1.1,0,1.9,.9,1.9,1.9c0,1.1,-.8,1.9,-1.9,1.9m0,-2.9c-.5,0,-1,.5,-1,1c0,.6,.5,1,1,1c.6,0,1,-.4,1,-1c0,-.5,-.4,-1,-1,-1Z" class="gh_37"/>
<path d="M183.1,121.6c.8,0,1.5,.6,1.5,1.4c0,.8,-.7,1.5,-1.5,1.5c-.8,0,-1.4,-.7,-1.4,-1.5c0,-.8,.6,-1.4,1.4,-1.4Z" class="gi_37"/>
<path d="M183.1,124.9c-1,0,-1.9,-.8,-1.9,-1.9c0,-1,.9,-1.9,1.9,-1.9c1.1,0,1.9,.9,1.9,1.9c0,1.1,-.8,1.9,-1.9,1.9m0,-2.9c-.5,0,-1,.5,-1,1c0,.6,.5,1,1,1c.6,0,1,-.4,1,-1c0,-.5,-.4,-1,-1,-1Z" class="gh_37"/>
<path d="M185.1,136.3c0,-9.8,7.8,-17.7,17.6,-17.7c9.7,0,17.6,7.9,17.6,17.7c0,9.7,-7.9,17.6,-17.6,17.6c-1,0,-1.9,-.1,-2.9,-.3l-5.2,6.1v-7.8c-5.7,-2.9,-9.5,-8.8,-9.5,-15.6Z" class="gj_37"/>
<path d="M194.6,160.2q-.1,0,-.2,0c-.2,-.1,-.3,-.3,-.3,-.5v-7.5c-5.9,-3.2,-9.5,-9.2,-9.5,-15.9c0,-10,8.1,-18.1,18.1,-18.1c9.9,0,18,8.1,18,18.1c0,9.9,-8.1,18,-18,18c-.9,0,-1.8,0,-2.7,-.2l-5.1,5.9c-.1,.1,-.2,.2,-.3,.2m8.1,-41.1c-9.5,0,-17.2,7.7,-17.2,17.2c0,6.4,3.6,12.2,9.3,15.2c.1,.1,.2,.2,.2,.4v6.6l4.5,-5.2c.1,-.1,.3,-.1,.4,-.1c1,.1,1.9,.2,2.8,.2c9.4,0,17.1,-7.7,17.1,-17.1c0,-9.5,-7.7,-17.2,-17.1,-17.2Z" class="gh_37"/>
<path d="M210.9,135.8c.9,0,1.6,.7,1.6,1.6c0,1,-.7,1.7,-1.6,1.7c-1,0,-1.7,-.7,-1.7,-1.7c0,-.9,.7,-1.6,1.7,-1.6Z" class="g1_37"/>
<path d="M210.9,139.6c-1.2,0,-2.2,-1,-2.2,-2.2c0,-1.1,1,-2.1,2.2,-2.1c1.1,0,2.1,1,2.1,2.1c0,1.2,-1,2.2,-2.1,2.2m0,-3.4c-.7,0,-1.3,.6,-1.3,1.2c0,.7,.6,1.3,1.3,1.3c.6,0,1.2,-.6,1.2,-1.3c0,-.6,-.6,-1.2,-1.2,-1.2Z" class="gh_37"/>
<path d="M202.7,135.8c.9,0,1.6,.7,1.6,1.6c0,1,-.7,1.7,-1.6,1.7c-1,0,-1.7,-.7,-1.7,-1.7c0,-.9,.7,-1.6,1.7,-1.6Z" class="g1_37"/>
<path d="M202.7,139.6c-1.2,0,-2.2,-1,-2.2,-2.2c0,-1.1,1,-2.1,2.2,-2.1c1.1,0,2.1,1,2.1,2.1c0,1.2,-1,2.2,-2.1,2.2m0,-3.4c-.7,0,-1.3,.6,-1.3,1.2c0,.7,.6,1.3,1.3,1.3c.6,0,1.2,-.6,1.2,-1.3c0,-.6,-.6,-1.2,-1.2,-1.2Z" class="gh_37"/>
<path d="M194.5,135.8c.9,0,1.6,.7,1.6,1.6c0,1,-.7,1.7,-1.6,1.7c-1,0,-1.7,-.7,-1.7,-1.7c0,-.9,.7,-1.6,1.7,-1.6Z" class="g1_37"/>
<path d="M194.5,139.6c-1.2,0,-2.2,-1,-2.2,-2.2c0,-1.1,1,-2.1,2.2,-2.1c1.1,0,2.1,1,2.1,2.1c0,1.2,-1,2.2,-2.1,2.2m0,-3.4c-.7,0,-1.2,.6,-1.2,1.2c0,.7,.5,1.3,1.2,1.3c.6,0,1.2,-.6,1.2,-1.3c0,-.6,-.6,-1.2,-1.2,-1.2Z" class="gh_37"/>
<image clip-path="url(#c6_37)" x="824" y="318" width="6" height="9" xlink:href="shade/1.png"/>
<image clip-path="url(#c7_37)" x="823" y="291" width="25" height="28" xlink:href="shade/2.png"/>
<image clip-path="url(#c8_37)" x="823" y="293" width="23" height="34" xlink:href="shade/3.png"/>
<image clip-path="url(#c9_37)" x="829" y="289" width="20" height="10" xlink:href="shade/4.png"/>
<image clip-path="url(#ca_37)" preserveAspectRatio="none" x="79" y="551" width="221" height="252" xlink:href="img/6.png"/>
<path d="M84.9,567.5L95.2,796.2L294.1,785.1L282.8,555.4Z" class="g3_37"/>
<image clip-path="url(#cb_37)" preserveAspectRatio="none" x="84" y="557" width="212" height="240" xlink:href="img/7.png"/>
<image clip-path="url(#cc_37)" preserveAspectRatio="none" x="84" y="557" width="212" height="240" xlink:href="img/8.png"/>
<path d="M91.4,561.9L89.6,789.4h169l30.1,-25.8l1.8,-201.7Z" class="g4_37"/>
<path d="M258.3,790l30.5,-25l-24.1,-.5Z" class="g5_37"/>
<image clip-path="url(#cd_37)" x="191" y="564" width="4" height="10" xlink:href="shade/5.png"/>
<image clip-path="url(#ce_37)" x="191" y="538" width="17" height="28" xlink:href="shade/6.png"/>
<image clip-path="url(#cf_37)" x="190" y="540" width="17" height="34" xlink:href="shade/7.png"/>
<image clip-path="url(#cg_37)" x="194" y="536" width="15" height="10" xlink:href="shade/8.png"/>
<path d="M657.2,713.1c10.4,-1.4,18.6,-7.8,20.2,-15.8m-.4,-7.1c-2.3,-7.6,-10.8,-13.5,-21.2,-14.5m-7.1,.2c-10.4,1.4,-18.6,7.7,-20.2,15.7m.4,7.1c2.3,7.7,10.7,13.6,21.2,14.5" class="gk_37"/>
<path d="M677.6,695.9c0,-.5,0,-.9,0,-1.4c0,-.5,0,-1,0,-1.5M654.4,675.6c-.5,0,-1,0,-1.5,0c-.4,0,-.9,0,-1.4,0M628.3,693c0,.5,0,1,0,1.5c0,.5,0,.9,0,1.4m23.2,17.4c.5,0,1,0,1.4,0c.5,0,1,0,1.5,0" class="g7_37"/>
<path d="M638.4,679.4c0,0,-262.2,-39.9,-381.5,42.4" class="g6_37"/>
<path d="M258.6,716.7l5.5,6.9l-11.6,3.6Z" class="gl_37"/>
<path d="M585.5,365.5c0,0,49.4,-43.3,131.7,-25.1" class="g6_37"/>
<path d="M713.6,335.2l-2.3,8.5l12.1,-1.4Z" class="gl_37"/>
<path d="M32.1,45.1H9.2m958.3,0h22.9M32.1,1331.3H9.2m958.3,0h22.9M45.1,32.1V9.2m0,1335.1v22.9M954.5,32.1V9.2m0,1335.1v22.9" class="gm_37"/>
<path d="M32.1,45.1H9.2m958.3,0h22.9M32.1,1331.3H9.2m958.3,0h22.9M45.1,32.1V9.2m0,1335.1v22.9M954.5,32.1V9.2m0,1335.1v22.9" class="gn_37"/>
<path d="M27.5,32.1H0m972.1,0h27.5M27.5,1344.3H0m972.1,0h27.5M32.1,27.5V0m0,1348.9v27.5M967.5,27.5V0m0,1348.9v27.5" class="gm_37"/>
<path d="M27.5,32.1H0m972.1,0h27.5M27.5,1344.3H0m972.1,0h27.5M32.1,27.5V0m0,1348.9v27.5M967.5,27.5V0m0,1348.9v27.5" class="gn_37"/>
</svg>