<?xml version="1.0" encoding="UTF-8" standalone="no"?>
<!DOCTYPE svg PUBLIC "-//W3C//DTD SVG 1.1//EN"
"http://www.w3.org/Graphics/SVG/1.1/DTD/svg11.dtd">
<svg viewBox="0 0 999 1376" version="1.1" xmlns="http://www.w3.org/2000/svg" xmlns:xlink="http://www.w3.org/1999/xlink">
<defs>
<clipPath id="c0_117"><path d="M32.1,1344.3V32.1H967.5V1344.3Z"/></clipPath>
<clipPath id="c1_117"><path d="M700.2,193.8V68.1H847.6V193.8Z"/></clipPath>
<clipPath id="c2_117"><path d="M215,463.5V341.4H854.2V463.5Z"/></clipPath>
<clipPath id="c3_117"><path d="M215,643.3V538.8H854.2V643.3Z"/></clipPath>
<clipPath id="c4_117"><path d="M215,845.6V723.5H854.2V845.6Z"/></clipPath>
<style type="text/css"><![CDATA[
.g0_117{
fill: #FEFCF4;
}
.g1_117{
fill: #F16865;
}
.g2_117{
fill: #6381B7;
}
.g3_117{
fill: none;
stroke: #6381B7;
stroke-width: 0.381;
stroke-dasharray: 2,1;
}
.g4_117{
fill: none;
stroke: #6381B7;
stroke-width: 0.381;
}
.g5_117{
fill: #FEF9F9;
}
.g6_117{
fill: none;
stroke: #A164A9;
stroke-width: 1.527;
stroke-linecap: round;
stroke-linejoin: round;
stroke-dasharray: 0,5;
}
.g7_117{
fill: none;
stroke: #A164A9;
stroke-width: 1.527;
stroke-linecap: round;
stroke-linejoin: round;
}
.g8_117{
fill: #A164A9;
}
.g9_117{
fill: #FFF;
}
.ga_117{
fill: none;
stroke: #231F20;
stroke-width: 0.305;
stroke-miterlimit: 10;
}
.gb_117{
fill: none;
stroke: #8CC63E;
stroke-width: 1.527;
stroke-linecap: round;
stroke-linejoin: round;
stroke-dasharray: 0,5;
}
.gc_117{
fill: none;
stroke: #8CC63E;
stroke-width: 1.527;
stroke-linecap: round;
stroke-linejoin: round;
}
.gd_117{
fill: #8CC63E;
}
.ge_117{
fill: #6CCFF6;
}
.gf_117{
fill: none;
stroke: #231F20;
stroke-width: 1.375;
stroke-miterlimit: 10;
}
.gg_117{
fill: #485E75;
}
.gh_117{
fill: #EAD646;
}
.gi_117{
fill: none;
stroke: #231F20;
stroke-width: 1.527;
}
.gj_117{
fill: none;
stroke: #FFF;
stroke-width: 1.909;
stroke-miterlimit: 10;
}
.gk_117{
fill: none;
stroke: #000;
stroke-width: 0.381;
stroke-miterlimit: 10;
}
]]></style>
</defs>
<path clip-path="url(#c0_117)" d="M-877.3,1344.3H45.1V32.1H-877.3V1344.3Z" class="g0_117"/>
<path d="M45.1,1344.3H967.5V32.1H45.1V1344.3Z" class="g0_117"/>
<path clip-path="url(#c0_117)" d="M867.9,166.7c0,0,30.3,0,30.3,-30.3v-4.3c0,0,0,-30.3,-30.3,-30.3H-735.4c0,0,-30.4,0,-30.4,30.3v4.3c0,0,0,30.3,30.4,30.3Z" class="g1_117"/>
<path d="M705.5,924.6c0,0,-4.4,0,-4.4,4.3v10.8c0,0,0,4.4,4.4,4.4h30.3c0,0,4.3,0,4.3,-4.4V928.9c0,0,0,-4.3,-4.3,-4.3Z" class="g2_117"/>
<path d="M692.3,917.1V952m1.3,.9H866.8m.9,-1.3V916.7m-1.3,-1H693.2" class="g3_117"/>
<path d="M692.3,952.3v.6h.5m174.4,0h.5v-.6m0,-36v-.6h-.5m-174.4,0h-.5v.6" class="g4_117"/>
<image clip-path="url(#c1_117)" preserveAspectRatio="none" x="700" y="68" width="148" height="126" xlink:href="img/1.png"/>
<path d="M154.1,909.6h713V251h-713V909.6Z" class="g5_117"/>
<path d="M154.1,255.5V907.3m4.6,2.3H864.9m2.2,-4.6V253.3M862.6,251H156.4" class="g6_117"/>
<path d="M154.1,909.6v0m713.1,0v0m0,-658.6v0m-713.1,0v0" class="g7_117"/>
<path d="M153.3,265.3V227c0,0,0,-8.7,8.7,-8.7H859.3c0,0,8.6,0,8.6,8.7v38.9Z" class="g8_117"/>
<image clip-path="url(#c2_117)" preserveAspectRatio="none" x="215" y="342" width="639" height="122" xlink:href="img/2.png"/>
<path d="M218.3,457.2H848.1V344.6H218.3V457.2Z" class="g9_117"/>
<path d="M451.4,374.4h64.1" class="ga_117"/>
<image clip-path="url(#c3_117)" preserveAspectRatio="none" x="215" y="539" width="639" height="105" xlink:href="img/3.png"/>
<path d="M218.3,637.4H848.1V542.1H218.3v95.3Z" class="g9_117"/>
<path d="M538.7,571.9h62.6" class="ga_117"/>
<image clip-path="url(#c4_117)" preserveAspectRatio="none" x="215" y="724" width="639" height="122" xlink:href="img/4.png"/>
<path d="M218.3,839.4H848.1V726.8H218.3V839.4Z" class="g9_117"/>
<path d="M337.2,756.6h65" class="ga_117"/>
<path d="M154.1,1243.9h713V1015.1h-713v228.8Z" class="g9_117"/>
<path d="M154.1,1019.7v221.9m4.6,2.3H864.9m2.2,-4.6V1017.4m-4.5,-2.3H156.4" class="gb_117"/>
<path d="M154.1,1243.9v0m713.1,0v0m0,-228.8v0m-713.1,0v0" class="gc_117"/>
<path d="M153.3,1019.7V991.1c0,0,0,-8.7,8.7,-8.7H859.3c0,0,8.6,0,8.6,8.7v29.1Z" class="gd_117"/>
<path d="M187.2,996.2v-6.4c0,-4.8,-3.9,-8.7,-8.7,-8.7c-4.8,0,-8.6,3.9,-8.6,8.7v6.4Z" class="ge_117"/>
<path d="M187.2,996.2v-6.4c0,-4.8,-3.9,-8.7,-8.7,-8.7c-4.8,0,-8.6,3.9,-8.6,8.7v6.4h17.3Z" class="gf_117"/>
<path d="M169.9,998v5.3c0,4.8,3.8,8.7,8.6,8.7c4.8,0,8.7,-3.9,8.7,-8.7V998Z" class="ge_117"/>
<path d="M169.9,998v5.3c0,4.8,3.8,8.7,8.6,8.7c4.8,0,8.7,-3.9,8.7,-8.7V998H169.9Z" class="gf_117"/>
<path d="M178.4,1016.9c-7.1,0,-13,-6,-13,-13.3h2.4c0,6,4.8,10.8,10.6,10.8c5.8,0,10.6,-4.8,10.6,-10.8h2.4c0,7.3,-5.8,13.3,-13,13.3Z" class="gg_117"/>
<path d="M178.4,1016.9c-7.1,0,-13,-6,-13,-13.3h2.4c0,6,4.8,10.8,10.6,10.8c5.8,0,10.6,-4.8,10.6,-10.8h2.4c0,7.3,-5.8,13.3,-13,13.3Z" class="gf_117"/>
<path d="M177.5,1024h2.4v-8h-2.4v8Z" class="gg_117"/>
<path d="M177.5,1024h2.4v-8h-2.4v8Z" class="gf_117"/>
<path d="M178.6,1020.4c-3.6,0,-6.6,2.2,-6.7,4.9h13.4c-.1,-2.7,-3.1,-4.9,-6.7,-4.9Z" class="gg_117"/>
<path d="M178.6,1020.4c-3.6,0,-6.6,2.2,-6.7,4.9h13.4c-.1,-2.7,-3.1,-4.9,-6.7,-4.9Z" class="gf_117"/>
<path d="M201.3,975.9c-6.5,0,-11.9,5.3,-11.9,11.9c0,2.7,.9,5.2,2.4,7.2l-1.5,5.3l5.5,-1.9c1.7,.9,3.5,1.4,5.5,1.4c6.6,0,12,-5.4,12,-12c0,-6.6,-5.4,-11.9,-12,-11.9Z" class="gh_117"/>
<path d="M201.3,975.9c-6.5,0,-11.9,5.3,-11.9,11.9c0,2.7,.9,5.2,2.4,7.2l-1.5,5.3l5.5,-1.9c1.7,.9,3.5,1.4,5.5,1.4c6.6,0,12,-5.4,12,-12c0,-6.6,-5.4,-11.9,-12,-11.9Z" class="gf_117"/>
<path d="M196.9,987.6c0,.8,-.7,1.4,-1.4,1.4c-.8,0,-1.4,-.6,-1.4,-1.4c0,-.7,.6,-1.3,1.4,-1.3c.7,0,1.4,.6,1.4,1.3Z" class="g9_117"/>
<path d="M196.9,987.6c0,.8,-.7,1.4,-1.4,1.4c-.8,0,-1.4,-.6,-1.4,-1.4c0,-.7,.6,-1.3,1.4,-1.3c.7,0,1.4,.6,1.4,1.3Z" class="gf_117"/>
<path d="M203,987.7c0,.8,-.6,1.4,-1.4,1.4c-.8,0,-1.4,-.6,-1.4,-1.4c0,-.8,.6,-1.4,1.4,-1.4c.8,0,1.4,.6,1.4,1.4Z" class="g9_117"/>
<path d="M203,987.7c0,.8,-.6,1.4,-1.4,1.4c-.8,0,-1.4,-.6,-1.4,-1.4c0,-.8,.6,-1.4,1.4,-1.4c.8,0,1.4,.6,1.4,1.4Z" class="gf_117"/>
<path d="M209.1,987.7c0,.8,-.6,1.4,-1.4,1.4c-.8,0,-1.4,-.6,-1.4,-1.4c0,-.8,.6,-1.4,1.4,-1.4c.8,0,1.4,.6,1.4,1.4Z" class="g9_117"/>
<path d="M209.1,987.7c0,.8,-.6,1.4,-1.4,1.4c-.8,0,-1.4,-.6,-1.4,-1.4c0,-.8,.6,-1.4,1.4,-1.4c.8,0,1.4,.6,1.4,1.4Z" class="gf_117"/>
<path d="M785.7,1002.1c0,0,-.5,-9.9,8.6,-9.3c0,0,6.8,-.4,6.7,9.5m-15.3,-1.6v6.6c0,0,-3.4,.3,-4,-3c0,0,0,-3.8,4,-3.6Zm15.3,0v6.6c0,0,3.4,.3,3.9,-3c0,0,.1,-3.8,-3.9,-3.6Z" class="gi_117"/>
<path d="M32.1,45.1H9.2m958.3,0h22.9M32.1,1331.3H9.2m958.3,0h22.9M45.1,32.1V9.2m0,1335.1v22.9M954.5,32.1V9.2m0,1335.1v22.9" class="gj_117"/>
<path d="M32.1,45.1H9.2m958.3,0h22.9M32.1,1331.3H9.2m958.3,0h22.9M45.1,32.1V9.2m0,1335.1v22.9M954.5,32.1V9.2m0,1335.1v22.9" class="gk_117"/>
<path d="M27.5,32.1H0m972.1,0h27.5M27.5,1344.3H0m972.1,0h27.5M32.1,27.5V0m0,1348.9v27.5M967.5,27.5V0m0,1348.9v27.5" class="gj_117"/>
<path d="M27.5,32.1H0m972.1,0h27.5M27.5,1344.3H0m972.1,0h27.5M32.1,27.5V0m0,1348.9v27.5M967.5,27.5V0m0,1348.9v27.5" class="gk_117"/>
</svg>