<?xml version="1.0" encoding="UTF-8" standalone="no"?>
<!DOCTYPE svg PUBLIC "-//W3C//DTD SVG 1.1//EN"
"http://www.w3.org/Graphics/SVG/1.1/DTD/svg11.dtd">
<svg viewBox="0 0 999 1376" version="1.1" xmlns="http://www.w3.org/2000/svg" xmlns:xlink="http://www.w3.org/1999/xlink">
<defs>
<clipPath id="c0_143"><path d="M32.1,1344.3V32.1H967.5V1344.3Z"/></clipPath>
<clipPath id="c1_143"><path d="M515.1,417V352.6h93.4V417Z"/></clipPath>
<clipPath id="c2_143"><path d="M616.7,723.3V680.1h94.8v43.2Z"/></clipPath>
<clipPath id="c3_143"><path d="M743.8,1011.2l-3.2,-9.9V961.8l34.2,-11.1h37.1l4.5,13.7v31.3l-41.6,13.5l-6,2Z"/></clipPath>
<clipPath id="c4_143"><path d="M607.5,999.9V960.8l14.6,-7.5h59.8l.4,.9v34.4l-6.8,3.5l-14.6,7.4l-.6,.4Z"/></clipPath>
<clipPath id="c5_143"><path d="M482.8,1015.1V959.3h75.6v55.8Z"/></clipPath>
<clipPath id="c6_143"><path d="M348.3,990.6V962.3h72.6v28.3Z"/></clipPath>
<clipPath id="c7_143"><path d="M226.5,997.4L224,993.6l-1.8,-2.7l-3.4,-5.2v-2.6l.3,-.2l22.8,-17.8l6.3,-4.9h41.3l5.7,8.6l-36.7,28.6Z"/></clipPath>
<clipPath id="c8_143"><path d="M199.2,323.9l-6.5,-2.1L176.3,307.9V250.8h72v73.1Z"/></clipPath>
<clipPath id="c9_143"><path d="M199.2,892.2L192.7,890L176.3,876.1V819h72v73.2Z"/></clipPath>
<clipPath id="ca_143"><path d="M719.4,556.6v-45h94.1v45Z"/></clipPath>
<clipPath id="cb_143"><path d="M658.6,177V59h200V177Z"/></clipPath>
<style type="text/css"><![CDATA[
.g0_143{
fill: #FEFCF4;
}
.g1_143{
fill: #FFF;
}
.g2_143{
fill: none;
stroke: #6381B7;
stroke-width: 0.763;
}
.g3_143{
fill: none;
stroke: #949698;
stroke-width: 0.363;
}
.g4_143{
fill: #93BEDA;
}
.g5_143{
fill: #EFE9CC;
}
.g6_143{
fill: #6381B7;
}
.g7_143{
fill: none;
stroke: #6381B7;
stroke-width: 0.381;
stroke-dasharray: 2,1;
}
.g8_143{
fill: none;
stroke: #6381B7;
stroke-width: 0.381;
}
.g9_143{
fill: #FCE8B0;
}
.ga_143{
fill: #25408F;
}
.gb_143{
fill: #00BAF1;
}
.gc_143{
fill: #332D2C;
}
.gd_143{
fill: #D9DFF0;
}
.ge_143{
fill: #F27C85;
}
.gf_143{
fill: #7DD3F6;
}
.gg_143{
fill: #2E6E51;
}
.gh_143{
fill: #BCBEC0;
}
.gi_143{
fill: #EE314A;
}
.gj_143{
fill: none;
stroke: #FFF;
stroke-width: 1.909;
stroke-miterlimit: 10;
}
.gk_143{
fill: none;
stroke: #000;
stroke-width: 0.381;
stroke-miterlimit: 10;
}
]]></style>
</defs>
<path clip-path="url(#c0_143)" d="M-877.3,1344.3H45.1V32.1H-877.3V1344.3Z" class="g0_143"/>
<path d="M45.1,1344.3H967.5V32.1H45.1V1344.3Z" class="g0_143"/>
<path d="M172.6,222.5c0,0,-18.4,0,-18.4,18.3V795.1c0,0,0,18.3,18.4,18.3H849.7c0,0,18.3,0,18.3,-18.3V222.5Z" class="g1_143"/>
<path d="M172.6,222.5c0,0,-18.4,0,-18.4,18.3V795.1c0,0,0,18.3,18.4,18.3H849.7c0,0,18.3,0,18.3,-18.3V222.5H172.6Z" class="g2_143"/>
<path d="M205.7,431.9H304V337.6H205.7v94.3Z" class="g1_143"/>
<image preserveAspectRatio="none" x="209" y="345" width="92" height="79" xlink:href="img/1.jpg"/>
<path d="M205.7,431.9H304V337.6H205.7v94.3Z" class="g3_143"/>
<path d="M308,431.9h98.3V337.6H308v94.3Z" class="g1_143"/>
<image preserveAspectRatio="none" x="311" y="342" width="92" height="85" xlink:href="img/2.jpg"/>
<path d="M308,431.9h98.3V337.6H308v94.3Z" class="g3_143"/>
<path d="M410.3,431.9h98.4V337.6H410.3v94.3Z" class="g1_143"/>
<image preserveAspectRatio="none" x="413" y="360" width="93" height="49" xlink:href="img/3.jpg"/>
<path d="M410.3,431.9h98.4V337.6H410.3v94.3Z" class="g3_143"/>
<path d="M512.6,431.9H611V337.6H512.6v94.3Z" class="g1_143"/>
<image clip-path="url(#c1_143)" preserveAspectRatio="none" x="515" y="353" width="93" height="64" xlink:href="img/4.jpg"/>
<path d="M512.6,431.9H611V337.6H512.6v94.3Z" class="g3_143"/>
<path d="M614.9,431.9h98.4V337.6H614.9v94.3Z" class="g1_143"/>
<image preserveAspectRatio="none" x="617" y="338" width="94" height="94" xlink:href="img/5.jpg"/>
<path d="M614.9,431.9h98.4V337.6H614.9v94.3Z" class="g3_143"/>
<path d="M717.2,431.9h98.4V337.6H717.2v94.3Z" class="g1_143"/>
<image preserveAspectRatio="none" x="719" y="338" width="95" height="94" xlink:href="img/6.jpg"/>
<path d="M717.2,431.9h98.4V337.6H717.2v94.3Z" class="g3_143"/>
<path d="M205.7,748.9H304V654.6H205.7v94.3Z" class="g1_143"/>
<image preserveAspectRatio="none" x="208" y="655" width="94" height="94" xlink:href="img/7.jpg"/>
<path d="M205.7,748.9H304V654.6H205.7v94.3Z" class="g3_143"/>
<path d="M308,748.9h98.3V654.6H308v94.3Z" class="g1_143"/>
<image preserveAspectRatio="none" x="310" y="655" width="94" height="94" xlink:href="img/8.jpg"/>
<path d="M308,748.9h98.3V654.6H308v94.3Z" class="g3_143"/>
<path d="M410.3,748.9h98.4V654.6H410.3v94.3Z" class="g1_143"/>
<image preserveAspectRatio="none" x="412" y="655" width="95" height="94" xlink:href="img/9.jpg"/>
<path d="M410.3,748.9h98.4V654.6H410.3v94.3Z" class="g3_143"/>
<path d="M512.6,748.9H611V654.6H512.6v94.3Z" class="g1_143"/>
<image preserveAspectRatio="none" x="515" y="655" width="94" height="94" xlink:href="img/10.jpg"/>
<path d="M512.6,748.9H611V654.6H512.6v94.3Z" class="g3_143"/>
<path d="M614.9,748.9h98.4V654.6H614.9v94.3Z" class="g1_143"/>
<image clip-path="url(#c2_143)" preserveAspectRatio="none" x="617" y="680" width="94" height="43" xlink:href="img/11.jpg"/>
<path d="M614.9,748.9h98.4V654.6H614.9v94.3Z" class="g3_143"/>
<path d="M717.2,748.9h98.4V654.6H717.2v94.3Z" class="g1_143"/>
<image preserveAspectRatio="none" x="719" y="655" width="95" height="94" xlink:href="img/12.jpg"/>
<path d="M717.2,748.9h98.4V654.6H717.2v94.3Z" class="g3_143"/>
<path d="M166.8,905.1c0,0,-13,0,-13,13v268.7c0,0,0,13,13,13H854.7c0,0,12.9,0,12.9,-13V918.1c0,0,0,-13,-12.9,-13Z" class="g1_143"/>
<path d="M166.8,905.1c0,0,-13,0,-13,13v268.7c0,0,0,13,13,13H854.7c0,0,12.9,0,12.9,-13V918.1c0,0,0,-13,-12.9,-13H166.8Z" class="g2_143"/>
<path d="M650.2,1056.6c2,0,3.6,-1.6,3.6,-3.6c0,-2,-1.6,-3.6,-3.6,-3.6c-2,0,-3.6,1.6,-3.6,3.6c0,2,1.6,3.6,3.6,3.6Z" class="g4_143"/>
<path d="M650.2,1144.9c2,0,3.6,-1.6,3.6,-3.6c0,-2,-1.6,-3.6,-3.6,-3.6c-2,0,-3.6,1.6,-3.6,3.6c0,2,1.6,3.6,3.6,3.6Z" class="g4_143"/>
<path d="M650.2,1113.3c2,0,3.6,-1.6,3.6,-3.6c0,-2,-1.6,-3.6,-3.6,-3.6c-2,0,-3.6,1.6,-3.6,3.6c0,2,1.6,3.6,3.6,3.6Z" class="g4_143"/>
<path d="M519.4,1056.6c2,0,3.6,-1.6,3.6,-3.6c0,-2,-1.6,-3.6,-3.6,-3.6c-2,0,-3.6,1.6,-3.6,3.6c0,2,1.6,3.6,3.6,3.6Z" class="g4_143"/>
<path d="M519.4,1144.9c2,0,3.6,-1.6,3.6,-3.6c0,-2,-1.6,-3.6,-3.6,-3.6c-2,0,-3.6,1.6,-3.6,3.6c0,2,1.6,3.6,3.6,3.6Z" class="g4_143"/>
<path d="M519.4,1113.3c2,0,3.6,-1.6,3.6,-3.6c0,-2,-1.6,-3.6,-3.6,-3.6c-2,0,-3.6,1.6,-3.6,3.6c0,2,1.6,3.6,3.6,3.6Z" class="g4_143"/>
<path d="M388.7,1056.6c2,0,3.6,-1.6,3.6,-3.6c0,-2,-1.6,-3.6,-3.6,-3.6c-2,0,-3.6,1.6,-3.6,3.6c0,2,1.6,3.6,3.6,3.6Z" class="g4_143"/>
<path d="M388.7,1144.9c2,0,3.6,-1.6,3.6,-3.6c0,-2,-1.6,-3.6,-3.6,-3.6c-2,0,-3.6,1.6,-3.6,3.6c0,2,1.6,3.6,3.6,3.6Z" class="g4_143"/>
<path d="M388.7,1113.3c2,0,3.6,-1.6,3.6,-3.6c0,-2,-1.6,-3.6,-3.6,-3.6c-2,0,-3.6,1.6,-3.6,3.6c0,2,1.6,3.6,3.6,3.6Z" class="g4_143"/>
<path d="M780.9,1056.6c2,0,3.6,-1.6,3.6,-3.6c0,-2,-1.6,-3.6,-3.6,-3.6c-2,0,-3.6,1.6,-3.6,3.6c0,2,1.6,3.6,3.6,3.6Z" class="g4_143"/>
<path d="M780.9,1144.9c2,0,3.6,-1.6,3.6,-3.6c0,-2,-1.6,-3.6,-3.6,-3.6c-2,0,-3.6,1.6,-3.6,3.6c0,2,1.6,3.6,3.6,3.6Z" class="g4_143"/>
<path d="M780.9,1113.3c2,0,3.6,-1.6,3.6,-3.6c0,-2,-1.6,-3.6,-3.6,-3.6c-2,0,-3.6,1.6,-3.6,3.6c0,2,1.6,3.6,3.6,3.6Z" class="g4_143"/>
<path d="M258,1056.6c2,0,3.6,-1.6,3.6,-3.6c0,-2,-1.6,-3.6,-3.6,-3.6c-2,0,-3.6,1.6,-3.6,3.6c0,2,1.6,3.6,3.6,3.6Z" class="g4_143"/>
<path d="M258,1144.9c2,0,3.6,-1.6,3.6,-3.6c0,-2,-1.6,-3.6,-3.6,-3.6c-2,0,-3.6,1.6,-3.6,3.6c0,2,1.6,3.6,3.6,3.6Z" class="g4_143"/>
<path d="M258,1113.3c2,0,3.6,-1.6,3.6,-3.6c0,-2,-1.6,-3.6,-3.6,-3.6c-2,0,-3.6,1.6,-3.6,3.6c0,2,1.6,3.6,3.6,3.6Z" class="g4_143"/>
<path d="M216.3,1065.5c0,0,-8.7,0,-8.7,8.6v15.2c0,0,0,8.6,8.7,8.6h82.3c0,0,8.6,0,8.6,-8.6v-15.2c0,0,0,-8.6,-8.6,-8.6Z" class="g5_143"/>
<path d="M216.3,1153.7c0,0,-8.7,0,-8.7,8.7v15.2c0,0,0,8.6,8.7,8.6h82.3c0,0,8.6,0,8.6,-8.6v-15.2c0,0,0,-8.7,-8.6,-8.7Z" class="g5_143"/>
<path d="M346.6,1065.5c0,0,-8.7,0,-8.7,8.6v15.2c0,0,0,8.6,8.7,8.6h82.2c0,0,8.7,0,8.7,-8.6v-15.2c0,0,0,-8.6,-8.7,-8.6Z" class="g5_143"/>
<path d="M346.6,1153.7c0,0,-8.7,0,-8.7,8.7v15.2c0,0,0,8.6,8.7,8.6h82.2c0,0,8.7,0,8.7,-8.6v-15.2c0,0,0,-8.7,-8.7,-8.7Z" class="g5_143"/>
<path d="M476.8,1065.5c0,0,-8.6,0,-8.6,8.6v15.2c0,0,0,8.6,8.6,8.6h82.3c0,0,8.7,0,8.7,-8.6v-15.2c0,0,0,-8.6,-8.7,-8.6Z" class="g5_143"/>
<path d="M476.8,1153.7c0,0,-8.6,0,-8.6,8.7v15.2c0,0,0,8.6,8.6,8.6h82.3c0,0,8.7,0,8.7,-8.6v-15.2c0,0,0,-8.7,-8.7,-8.7Z" class="g5_143"/>
<path d="M607.1,1065.5c0,0,-8.6,0,-8.6,8.6v15.2c0,0,0,8.6,8.6,8.6h82.3c0,0,8.7,0,8.7,-8.6v-15.2c0,0,0,-8.6,-8.7,-8.6Z" class="g5_143"/>
<path d="M607.1,1153.7c0,0,-8.6,0,-8.6,8.7v15.2c0,0,0,8.6,8.6,8.6h82.3c0,0,8.7,0,8.7,-8.6v-15.2c0,0,0,-8.7,-8.7,-8.7Z" class="g5_143"/>
<path d="M737.4,1065.5c0,0,-8.6,0,-8.6,8.6v15.2c0,0,0,8.6,8.6,8.6h82.3c0,0,8.7,0,8.7,-8.6v-15.2c0,0,0,-8.6,-8.7,-8.6Z" class="g5_143"/>
<path d="M737.4,1153.7c0,0,-8.6,0,-8.6,8.7v15.2c0,0,0,8.6,8.6,8.6h82.3c0,0,8.7,0,8.7,-8.6v-15.2c0,0,0,-8.7,-8.7,-8.7Z" class="g5_143"/>
<path d="M650.2,1025c2,0,3.6,-1.6,3.6,-3.6c0,-2,-1.6,-3.6,-3.6,-3.6c-2,0,-3.6,1.6,-3.6,3.6c0,2,1.6,3.6,3.6,3.6Z" class="g4_143"/>
<path d="M519.4,1025c2,0,3.6,-1.6,3.6,-3.6c0,-2,-1.6,-3.6,-3.6,-3.6c-2,0,-3.6,1.6,-3.6,3.6c0,2,1.6,3.6,3.6,3.6Z" class="g4_143"/>
<path d="M388.7,1025c2,0,3.6,-1.6,3.6,-3.6c0,-2,-1.6,-3.6,-3.6,-3.6c-2,0,-3.6,1.6,-3.6,3.6c0,2,1.6,3.6,3.6,3.6Z" class="g4_143"/>
<path d="M780.9,1025c2,0,3.6,-1.6,3.6,-3.6c0,-2,-1.6,-3.6,-3.6,-3.6c-2,0,-3.6,1.6,-3.6,3.6c0,2,1.6,3.6,3.6,3.6Z" class="g4_143"/>
<path d="M258,1025c2,0,3.6,-1.6,3.6,-3.6c0,-2,-1.6,-3.6,-3.6,-3.6c-2,0,-3.6,1.6,-3.6,3.6c0,2,1.6,3.6,3.6,3.6Z" class="g4_143"/>
<image clip-path="url(#c3_143)" preserveAspectRatio="none" x="729" y="940" width="97" height="79" xlink:href="img/13.png"/>
<image clip-path="url(#c4_143)" preserveAspectRatio="none" x="591" y="929" width="105" height="93" xlink:href="img/14.png"/>
<image clip-path="url(#c5_143)" preserveAspectRatio="none" x="482" y="960" width="76" height="55" xlink:href="img/15.jpg"/>
<image clip-path="url(#c6_143)" preserveAspectRatio="none" x="344" y="951" width="78" height="44" xlink:href="img/16.jpg"/>
<image clip-path="url(#c7_143)" preserveAspectRatio="none" x="218" y="939" width="77" height="75" xlink:href="img/17.png"/>
<path d="M521.7,1216.2c0,0,-4.3,0,-4.3,4.3v10.8c0,0,0,4.3,4.3,4.3h30.4c0,0,4.3,0,4.3,-4.3v-10.8c0,0,0,-4.3,-4.3,-4.3Z" class="g6_143"/>
<path d="M508.6,1208.7v34.8m1.3,1H866.7m.9,-1.4v-34.8m-1.3,-1H509.5" class="g7_143"/>
<path d="M508.6,1243.9v.6h.5m358,0h.5v-.6m0,-36v-.6h-.5m-358,0h-.5v.6" class="g8_143"/>
<path d="M231.8,278.9c0,0,-13,0,-13,13v21.7c0,0,0,13,13,13h602c0,0,13,0,13,-13V291.9c0,0,0,-13,-13,-13Z" class="g9_143"/>
<image clip-path="url(#c8_143)" preserveAspectRatio="none" x="175" y="249" width="75" height="77" xlink:href="img/18.png"/>
<path d="M226.6,319.2c0,0,-26.9,11.3,-51.1,-12.8c0,0,15.1,25.4,49.3,24c0,0,24.7,.4,20.2,-10.1c0,0,1.2,-4.5,-18.4,-1.1Z" class="g9_143"/>
<path d="M231.8,847.2c0,0,-13,0,-13,13v21.6c0,0,0,13,13,13H855.4c0,0,13,0,13,-13V860.2c0,0,0,-13,-13,-13Z" class="g9_143"/>
<image clip-path="url(#c9_143)" preserveAspectRatio="none" x="175" y="817" width="75" height="77" xlink:href="img/19.png"/>
<path d="M226.6,887.4c0,0,-26.9,11.3,-51.1,-12.7c0,0,15.1,25.3,49.3,23.9c0,0,24.7,.4,20.2,-10.1c0,0,1.2,-4.4,-18.4,-1.1Z" class="g9_143"/>
<path d="M153.3,217.5v22.2L165,250V227.8Z" class="ga_143"/>
<path d="M153.3,200.7v39H851.1c0,0,16.8,0,16.8,-16.8v-5.4c0,0,0,-16.8,-16.8,-16.8Z" class="g6_143"/>
<path d="M211.3,212.1l-6.5,-6.4l-21.2,21.2l6.5,6.4Z" class="gb_143"/>
<path d="M190.1,233.9c.1,0,.3,-.1,.4,-.2l21.2,-21.2c.1,-.1,.1,-.2,.1,-.4c0,-.1,0,-.2,-.1,-.3l-6.5,-6.5c-.2,-.2,-.6,-.2,-.8,0l-21.2,21.2c-.1,.1,-.1,.2,-.1,.4c0,.1,0,.2,.1,.3l6.5,6.5c.1,.1,.3,.2,.4,.2m20.5,-21.8l-20.5,20.5l-5.8,-5.7l20.5,-20.5Z" class="gc_143"/>
<path d="M211.3,212.1l-6.5,-6.4l2.1,-2.2l6.5,6.5Z" class="gd_143"/>
<path d="M211.3,212.7c.1,0,.3,-.1,.4,-.2l2.1,-2.1c.1,-.1,.2,-.2,.2,-.4c0,-.1,-.1,-.3,-.2,-.4l-6.5,-6.4c-.2,-.3,-.5,-.3,-.7,0l-2.2,2.1c-.1,.1,-.1,.2,-.1,.4c0,.1,0,.2,.1,.3l6.5,6.5c.1,.1,.3,.2,.4,.2m1.4,-2.7l-1.4,1.4l-5.7,-5.7l1.3,-1.4Z" class="gc_143"/>
<path d="M217,206.4l-6.4,-6.5l-3.7,3.6l6.5,6.5Z" class="ge_143"/>
<path d="M213.4,210.5c.2,0,.3,0,.4,-.1l3.6,-3.6c.2,-.2,.2,-.6,0,-.8l-6.5,-6.5c-.2,-.2,-.5,-.2,-.7,0l-3.6,3.7c-.2,.2,-.2,.5,0,.7l6.5,6.5c.1,.1,.2,.1,.3,.1m2.9,-4.1l-2.9,2.9l-5.7,-5.8l2.9,-2.8Z" class="gc_143"/>
<path d="M179,238l4.6,-11.1l6.5,6.4Z" class="g1_143"/>
<path d="M179,238.5c0,0,.1,0,.2,0l11.1,-4.7c.2,0,.3,-.2,.3,-.4c0,-.1,0,-.3,-.1,-.4L184,226.5c-.1,-.1,-.3,-.2,-.5,-.1c-.2,0,-.3,.1,-.4,.3l-4.6,11.1c-.1,.2,0,.4,.1,.6c.1,.1,.2,.1,.4,.1m10.2,-5.3l-9.3,3.8l3.9,-9.2Z" class="gc_143"/>
<path d="M179,238l2.2,-5.4l3.1,3.1Z" class="gc_143"/>
<path d="M179,238.5c0,0,.1,0,.2,0l5.3,-2.3c.2,0,.3,-.2,.4,-.4c0,-.1,-.1,-.3,-.2,-.4l-3.1,-3.2c-.1,-.1,-.3,-.1,-.5,-.1c-.2,0,-.3,.2,-.4,.3l-2.2,5.4c-.1,.2,0,.4,.1,.6c.1,.1,.2,.1,.4,.1m4.4,-2.9l-3.5,1.4l1.5,-3.5Z" class="gc_143"/>
<path d="M209.5,210.4l-2.9,-3l-21.2,21.2l2.9,3Z" class="gf_143"/>
<path d="M188.3,232.1c.2,0,.3,0,.4,-.1l21.2,-21.2c.1,-.1,.2,-.3,.2,-.4c0,-.2,-.1,-.3,-.2,-.4l-3,-3c-.2,-.2,-.5,-.2,-.7,0L185,228.3c-.1,.1,-.2,.2,-.2,.3c0,.2,.1,.3,.2,.4l3,3c.1,.1,.2,.1,.3,.1m20.5,-21.7l-20.5,20.4l-2.2,-2.2l20.5,-20.4Z" class="gc_143"/>
<path d="M205.7,581.2H304V486.9H205.7v94.3Z" class="g1_143"/>
<image preserveAspectRatio="none" x="208" y="487" width="94" height="94" xlink:href="img/20.jpg"/>
<path d="M205.7,581.2H304V486.9H205.7v94.3Z" class="g3_143"/>
<path d="M308,581.2h98.3V486.9H308v94.3Z" class="g1_143"/>
<image preserveAspectRatio="none" x="310" y="487" width="94" height="94" xlink:href="img/21.jpg"/>
<path d="M308,581.2h98.3V486.9H308v94.3Z" class="g3_143"/>
<path d="M410.3,581.2h98.4V486.9H410.3v94.3Z" class="g1_143"/>
<image preserveAspectRatio="none" x="412" y="507" width="95" height="54" xlink:href="img/22.jpg"/>
<path d="M410.3,581.2h98.4V486.9H410.3v94.3Z" class="g3_143"/>
<path d="M512.6,581.2H611V486.9H512.6v94.3Z" class="g1_143"/>
<image preserveAspectRatio="none" x="514" y="513" width="95" height="42" xlink:href="img/23.jpg"/>
<path d="M512.6,581.2H611V486.9H512.6v94.3Z" class="g3_143"/>
<path d="M614.9,581.2h98.4V486.9H614.9v94.3Z" class="g1_143"/>
<image preserveAspectRatio="none" x="617" y="500" width="94" height="68" xlink:href="img/24.jpg"/>
<path d="M614.9,581.2h98.4V486.9H614.9v94.3Z" class="g3_143"/>
<path d="M717.2,581.2h98.4V486.9H717.2v94.3Z" class="g1_143"/>
<image clip-path="url(#ca_143)" preserveAspectRatio="none" x="719" y="512" width="94" height="45" xlink:href="img/25.jpg"/>
<path d="M717.2,581.2h98.4V486.9H717.2v94.3Z" class="g3_143"/>
<path d="M32.1,179.3H967.5V32.1H32.1V179.3Z" class="gg_143"/>
<g clip-path="url(#c0_143)">
<path d="M967.5,177.2H-877.3v-5.4h736.6c43.1,0,53.1,-37.9,115.3,-37.9H967.5Z" class="gh_143"/>
<path d="M967.5,183.7H-877.3v-9.8h736.6c43.1,0,53.1,-33.6,115.3,-33.6H967.5Z" class="gi_143"/>
</g>
<image clip-path="url(#cb_143)" preserveAspectRatio="none" x="659" y="59" width="200" height="118" xlink:href="img/26.png"/>
<path d="M32.1,45.1H9.2m958.3,0h22.9M32.1,1331.3H9.2m958.3,0h22.9M45.1,32.1V9.2m0,1335.1v22.9M954.5,32.1V9.2m0,1335.1v22.9" class="gj_143"/>
<path d="M32.1,45.1H9.2m958.3,0h22.9M32.1,1331.3H9.2m958.3,0h22.9M45.1,32.1V9.2m0,1335.1v22.9M954.5,32.1V9.2m0,1335.1v22.9" class="gk_143"/>
<path d="M27.5,32.1H0m972.1,0h27.5M27.5,1344.3H0m972.1,0h27.5M32.1,27.5V0m0,1348.9v27.5M967.5,27.5V0m0,1348.9v27.5" class="gj_143"/>
<path d="M27.5,32.1H0m972.1,0h27.5M27.5,1344.3H0m972.1,0h27.5M32.1,27.5V0m0,1348.9v27.5M967.5,27.5V0m0,1348.9v27.5" class="gk_143"/>
</svg>