<?xml version="1.0" encoding="UTF-8" standalone="no"?>
<!DOCTYPE svg PUBLIC "-//W3C//DTD SVG 1.1//EN"
"http://www.w3.org/Graphics/SVG/1.1/DTD/svg11.dtd">
<svg viewBox="0 0 999 1376" version="1.1" xmlns="http://www.w3.org/2000/svg" xmlns:xlink="http://www.w3.org/1999/xlink">
<defs>
<clipPath id="c0_154"><path d="M32.1,1344.3V32.1H967.5V1344.3Z"/></clipPath>
<clipPath id="c1_154"><path d="M176.6,514.7l-6.5,-2.1L153.7,498.7V441.6h72v73.1Z"/></clipPath>
<clipPath id="c2_154"><path d="M176.6,1109.2l-6.5,-2.1l-16.4,-13.9v-57.1h72v73.1Z"/></clipPath>
<clipPath id="c3_154"><path d="M764.8,414.5V402.1h14.5v12.4Z"/></clipPath>
<clipPath id="c4_154"><path d="M72.6,813.8V585.5H266.2V813.8Z"/></clipPath>
<clipPath id="c5_154"><path d="M70.8,818.2V582.8H271V818.2Z"/></clipPath>
<clipPath id="c6_154"><path d="M70.5,817.9V582.5H270.6V817.9Z"/></clipPath>
<clipPath id="c7_154"><path d="M158.9,600.3c-.2,-.1,3.6,-8.2,3.6,-8.2l.8,.5c0,0,-4.1,7.7,-4.4,7.7Z"/></clipPath>
<clipPath id="c8_154"><path d="M166.4,592.6c0,0,-6.8,-1.1,-7.6,-5.2c-.6,-3.6,1.6,-3.9,2.1,-3.9c.1,0,.2,0,.2,0l8.3,-12.7l-1.5,-3.1c0,0,-.6,-1.1,.1,-2c.1,-.1,.2,-.1,.4,-.1c2.1,0,12.9,5.5,12.9,5.5l.1,.1c-.4,.6,-.8,1.2,-1.4,1.7c-.7,.5,-5.1,1.1,-5.1,1.1l-8.5,18.6Z"/></clipPath>
<clipPath id="c9_154"><path d="M166,592.2c.2,-.4,.2,-1.8,0,-2.2v-1.4c-1.5,-.5,-2.9,-1.2,-3.6,-2.5c-1.1,.6,-2.2,1.2,-3.2,1.9c1.6,2.1,3.9,3.5,6.8,4.2Zm0,-3.9c2.2,-4.5,4,-9.5,6.2,-14c-.9,-.4,-1.9,-1.3,-2.7,-1.4c-2.3,4.3,-4.6,8.6,-7,12.8c.7,1.3,2.1,2,3.5,2.6Zm-7.3,12.1c1.1,-2.9,2.4,-5.5,3.6,-8.3c-2,-1.5,-4,-3.1,-4.4,-6.1v-1.6c-.1,-2.7,1.9,-3.3,4.6,-3.3c0,0,.1,0,.1,0c2,-3.4,4.3,-6.4,6.2,-9.7c-.6,-.9,-1.2,-2.4,-.9,-3.7c.5,1.3,1.6,1.9,2.4,2.9c-.1,.6,-.3,1.2,-.4,1.8c.6,.7,1.4,1.2,2.4,1.4c.5,-.5,.5,-1.3,1.1,-1.5c1,.3,1.9,.7,3.2,.7c.1,.1,.5,.2,.8,.2c.3,0,.7,-.1,.8,-.2c.1,0,.2,.1,.3,.1c.2,0,.4,-.1,.6,-.2c.2,0,.4,-.1,.6,-.1c.1,0,.2,0,.3,.1c-1.3,.6,-2.2,1.8,-4.2,1.8c-.1,0,-.2,0,-.4,-.1c-.8,3.8,-1.8,7.4,-2.6,11.2c.6,1.1,1.5,1.7,1.3,3.2c-.5,2.7,-3.9,4.4,-7.2,4.4c-1.3,0,-2.6,-.3,-3.6,-.8c-1,2.1,-2.1,4.2,-3.3,6c0,-.3,.3,-.3,.2,-.7c1,-1.8,2,-3.6,2.7,-5.7c-1.1,1.8,-1.8,3.7,-2.8,5.6c-.2,.4,-.4,.8,-.6,1.2c-.3,.4,-.3,1.2,-.8,1.4Z"/></clipPath>
<clipPath id="ca_154"><path d="M176.5,572.6c-4.8,0,-13.1,-7.3,-5.6,-8.8h1.3c.2,.1,.4,.1,.7,.1c0,0,.1,0,.2,0c.3,0,.5,0,.8,.1c3.1,.6,8.3,3.8,7.6,7c-.3,1.2,-1.6,1.6,-3.2,1.6h-1.7q-.1,0,-.1,0Z"/></clipPath>
<clipPath id="cb_154"><path d="M723.9,925.9V627.8H926.3V925.9Z"/></clipPath>
<clipPath id="cc_154"><path d="M731.7,919.8V632.7H920.3V919.8Z"/></clipPath>
<clipPath id="cd_154"><path d="M731.4,919.4V632.3H920V919.4Z"/></clipPath>
<clipPath id="ce_154"><path d="M835.2,647.6c-.3,-.1,3.6,-8.2,3.6,-8.2l.7,.5c0,0,-4,7.7,-4.3,7.7Z"/></clipPath>
<clipPath id="cf_154"><path d="M842.7,639.9c0,0,-6.8,-1.1,-7.6,-5.3c-.6,-3.6,1.6,-3.8,2.1,-3.8q.1,0,.1,0l8.3,-12.7L844.2,615c0,0,-.6,-1.1,.1,-2.1c.1,-.1,.2,-.1,.3,-.1c2.1,0,13,5.6,13,5.6v.1c-.3,.5,-.7,1.2,-1.3,1.6c-.7,.5,-5.1,1.2,-5.1,1.2l-8.5,18.6Z"/></clipPath>
<clipPath id="cg_154"><path d="M842.3,639.5c.2,-.5,.2,-1.8,0,-2.3v-1.3c-1.5,-.6,-2.9,-1.3,-3.6,-2.6c-1.1,.6,-2.2,1.3,-3.2,1.9c1.6,2.2,3.8,3.6,6.8,4.3Zm0,-3.9c2.2,-4.5,4,-9.5,6.2,-14.1c-.9,-.4,-1.9,-1.3,-2.7,-1.4c-2.3,4.4,-4.6,8.7,-7,12.9c.7,1.3,2.1,2,3.5,2.6ZM835,647.7c1.1,-2.9,2.4,-5.5,3.5,-8.3c-1.9,-1.6,-3.9,-3.1,-4.4,-6.2v-1.5c0,-2.7,2,-3.4,4.6,-3.4q.1,0,.2,0c2,-3.3,4.2,-6.3,6.2,-9.7c-.6,-.8,-1.2,-2.3,-.9,-3.6c.5,1.2,1.6,1.9,2.4,2.9c-.1,.6,-.3,1.1,-.4,1.7c.6,.7,1.3,1.2,2.4,1.4c.4,-.4,.5,-1.2,1.1,-1.5c1,.4,1.9,.8,3.2,.8c.1,.1,.4,.1,.8,.1c.3,0,.7,0,.8,-.1c.1,0,.2,0,.3,0c.2,0,.4,-.1,.6,-.1c.2,-.1,.4,-.2,.5,-.2c.1,0,.2,.1,.4,.1c-1.4,.7,-2.2,1.8,-4.2,1.8c-.1,0,-.3,0,-.4,0c-.8,3.7,-1.8,7.4,-2.6,11.2c.5,1,1.5,1.7,1.2,3.1c-.4,2.8,-3.8,4.4,-7.2,4.4c-1.2,0,-2.5,-.2,-3.6,-.7c-1,2.1,-2,4.1,-3.2,6c-.1,-.4,.3,-.4,.2,-.7c1,-1.9,2,-3.6,2.7,-5.7c-1.1,1.7,-1.9,3.7,-2.8,5.5c-.2,.4,-.4,.9,-.6,1.3c-.3,.4,-.3,1.1,-.8,1.4Z"/></clipPath>
<clipPath id="ch_154"><path d="M852.7,619.9c-4.8,0,-13,-7.3,-5.5,-8.8h1.3c.1,0,.3,0,.5,0c0,0,.1,0,.2,0c.3,0,.6,0,1,.1c3.1,.7,8.2,3.8,7.6,7.1c-.3,1.1,-1.6,1.6,-3.2,1.6h-1.7q-.1,0,-.2,0Z"/></clipPath>
<clipPath id="ci_154"><path d="M125.5,386.7V205.8H858.6V386.7Z"/></clipPath>
<style type="text/css"><![CDATA[
.g0_154{
fill: #FEFCF4;
}
.g1_154{
fill: #FFF;
}
.g2_154{
fill: none;
stroke: #6381B7;
stroke-width: 0.763;
}
.g3_154{
fill: #6381B7;
}
.g4_154{
fill: none;
stroke: #6381B7;
stroke-width: 0.381;
stroke-dasharray: 2,1;
}
.g5_154{
fill: none;
stroke: #6381B7;
stroke-width: 0.381;
}
.g6_154{
fill: #FCE8B0;
}
.g7_154{
fill: #25408F;
}
.g8_154{
fill: #A8AAAD;
}
.g9_154{
fill: none;
stroke: #949698;
stroke-width: 0.549;
}
.ga_154{
fill: none;
stroke: #BCBEC0;
stroke-width: 2.566;
}
.gb_154{
fill: #231F20;
}
.gc_154{
fill: #363637;
}
.gd_154{
fill: #5CC4BE;
}
.ge_154{
fill: #EAD646;
}
.gf_154{
fill: #F7C2D9;
}
.gg_154{
fill: #FDF4F3;
}
.gh_154{
fill: #EC008C;
}
.gi_154{
fill: none;
stroke: #818385;
stroke-width: 0.305;
stroke-dasharray: 4,4;
}
.gj_154{
fill: none;
stroke: #818385;
stroke-width: 0.305;
}
.gk_154{
fill: none;
stroke: #949698;
stroke-width: 0.305;
stroke-dasharray: 4,4;
}
.gl_154{
fill: none;
stroke: #949698;
stroke-width: 0.305;
stroke-dasharray: 3,3;
}
.gm_154{
fill: none;
stroke: #949698;
stroke-width: 0.305;
}
.gn_154{
fill: #6D6F71;
}
.go_154{
fill: #2E6E51;
}
.gp_154{
fill: none;
stroke: #FFF;
stroke-width: 0.152;
stroke-miterlimit: 1;
}
.gq_154{
fill: #BCBEC0;
}
.gr_154{
fill: #EE314A;
}
.gs_154{
fill: #CEEDFB;
}
.gt_154{
fill: #27639D;
}
.gu_154{
fill: none;
stroke: #C3E7F1;
stroke-width: 1.527;
}
.gv_154{
fill: none;
stroke: #FFF;
stroke-width: 1.909;
stroke-miterlimit: 10;
}
.gw_154{
fill: none;
stroke: #000;
stroke-width: 0.381;
stroke-miterlimit: 10;
}
]]></style>
</defs>
<path d="M32.1,1344.3H954.5V32.1H32.1V1344.3Z" class="g0_154"/>
<path clip-path="url(#c0_154)" d="M954.5,1344.3H1877V32.1H954.5V1344.3Z" class="g0_154"/>
<path d="M150.4,419.9c0,0,-18.3,0,-18.3,18.3V997.7c0,0,0,18.4,18.3,18.4H827.5c0,0,18.4,0,18.4,-18.4V419.9Z" class="g1_154"/>
<path d="M150.4,419.9c0,0,-18.3,0,-18.3,18.3V997.7c0,0,0,18.4,18.3,18.4H827.5c0,0,18.4,0,18.4,-18.4V419.9H150.4Z" class="g2_154"/>
<path d="M145.1,1022.9c0,0,-13,0,-13,13v153.5c0,0,0,13,13,13H832.9c0,0,13,0,13,-13V1035.9c0,0,0,-13,-13,-13Z" class="g1_154"/>
<path d="M145.1,1022.9c0,0,-13,0,-13,13v153.5c0,0,0,13,13,13H832.9c0,0,13,0,13,-13V1035.9c0,0,0,-13,-13,-13H145.1Z" class="g2_154"/>
<path d="M462.5,1216.2c0,0,-4.4,0,-4.4,4.3v10.8c0,0,0,4.3,4.4,4.3h30.3c0,0,4.3,0,4.3,-4.3v-10.8c0,0,0,-4.3,-4.3,-4.3Z" class="g3_154"/>
<path d="M449.3,1208.7v34.8m1.3,1H845.1m1,-1.4v-34.8m-1.4,-1H450.2" class="g4_154"/>
<path d="M449.3,1243.9v.6h.6m395.6,0h.6v-.6m0,-36v-.6h-.6m-395.6,0h-.6v.6" class="g5_154"/>
<path d="M209.2,469.8c0,0,-13,0,-13,12.9v21.7c0,0,0,13,13,13h602c0,0,13,0,13,-13V482.7c0,0,0,-12.9,-13,-12.9Z" class="g6_154"/>
<image clip-path="url(#c1_154)" preserveAspectRatio="none" x="152" y="440" width="75" height="76" xlink:href="img/1.png"/>
<path d="M204,510c0,0,-26.8,11.3,-51.1,-12.7c0,0,15.2,25.3,49.3,23.9c0,0,24.8,.4,20.3,-10.1c0,0,1.2,-4.4,-18.5,-1.1Z" class="g6_154"/>
<path d="M209.2,1064.2c0,0,-13,0,-13,13v21.7c0,0,0,13,13,13h602c0,0,13,0,13,-13v-21.7c0,0,0,-13,-13,-13Z" class="g6_154"/>
<image clip-path="url(#c2_154)" preserveAspectRatio="none" x="152" y="1034" width="75" height="77" xlink:href="img/2.png"/>
<path d="M204,1104.5c0,0,-26.8,11.3,-51.1,-12.7c0,0,15.2,25.3,49.3,23.9c0,0,24.8,.4,20.3,-10.1c0,0,1.2,-4.5,-18.5,-1.1Z" class="g6_154"/>
<path d="M131.7,393.9v39l11.7,10.3V399Z" class="g7_154"/>
<path d="M131.7,393.9v39H829.5c0,0,16.8,0,16.8,-16.8v-5.4c0,0,0,-16.8,-16.8,-16.8Z" class="g3_154"/>
<path d="M781,427.6c8.2,0,14.8,-6.5,14.8,-14.6c0,-8,-6.6,-14.5,-14.8,-14.5c-8.3,0,-14.9,6.5,-14.9,14.5c0,8.1,6.6,14.6,14.9,14.6Z" class="g8_154"/>
<path d="M781,427.6c8.2,0,14.8,-6.5,14.8,-14.6c0,-8,-6.6,-14.5,-14.8,-14.5c-8.3,0,-14.9,6.5,-14.9,14.5c0,8.1,6.6,14.6,14.9,14.6Z" class="g9_154"/>
<path d="M781,418.4c3,0,5.4,-2.4,5.4,-5.3c0,-3,-2.4,-5.4,-5.4,-5.4c-3.1,0,-5.5,2.4,-5.5,5.4c0,2.9,2.4,5.3,5.5,5.3Z" class="g1_154"/>
<path d="M781,418.4c3,0,5.4,-2.4,5.4,-5.3c0,-3,-2.4,-5.4,-5.4,-5.4c-3.1,0,-5.5,2.4,-5.5,5.4c0,2.9,2.4,5.3,5.5,5.3Z" class="ga_154"/>
<g clip-path="url(#c3_154)" opacity="0.3">
<path d="M766.4,412.3c0,0,-.1,-4.9,3.6,-8.7l7.8,6.8c0,0,-1,.9,-1.1,2.6Z" class="g1_154"/>
</g>
<path d="M785.6,412.9c0,0,-3.5,0,-3.5,3.5v8.7c0,0,0,3.5,3.5,3.5H829c0,0,3.5,0,3.5,-3.5v-8.7c0,0,0,-3.5,-3.5,-3.5Z" class="gb_154"/>
<path d="M169.5,404c0,-8.3,-6.7,-15,-15,-15c-8.4,0,-15.1,6.7,-15.1,15c0,8.3,6.8,15.1,15.1,15.1c.8,0,1.6,-.1,2.4,-.2l4.5,5.2v-6.7c4.8,-2.5,8.1,-7.6,8.1,-13.4Z" class="g1_154"/>
<path d="M161.8,425.3l-5.1,-5.9c-.7,.1,-1.5,.1,-2.2,.1c-8.6,0,-15.6,-6.9,-15.6,-15.5c0,-8.5,7,-15.5,15.6,-15.5c8.5,0,15.5,7,15.5,15.5c0,5.7,-3.1,10.9,-8.2,13.7Zm-4.7,-6.9l3.8,4.5v-5.8l.3,-.1c4.8,-2.5,7.9,-7.5,7.9,-13c0,-8,-6.6,-14.6,-14.6,-14.6c-8.1,0,-14.6,6.6,-14.6,14.6c0,8.1,6.5,14.6,14.6,14.6c.7,0,1.5,-.1,2.3,-.2Z" class="gc_154"/>
<path d="M147.4,403.6c.8,0,1.5,.6,1.5,1.4c0,.8,-.7,1.5,-1.5,1.5c-.7,0,-1.4,-.7,-1.4,-1.5c0,-.8,.7,-1.4,1.4,-1.4Z" class="gd_154"/>
<path d="M147.4,406.9c-1,0,-1.8,-.8,-1.8,-1.9c0,-1,.8,-1.9,1.8,-1.9c1.1,0,1.9,.9,1.9,1.9c0,1.1,-.8,1.9,-1.9,1.9m0,-2.9c-.5,0,-.9,.5,-.9,1c0,.6,.4,1,.9,1c.6,0,1,-.4,1,-1c0,-.5,-.4,-1,-1,-1Z" class="gc_154"/>
<path d="M154.5,403.6c.8,0,1.4,.6,1.4,1.4c0,.8,-.6,1.5,-1.4,1.5c-.8,0,-1.5,-.7,-1.5,-1.5c0,-.8,.7,-1.4,1.5,-1.4Z" class="gd_154"/>
<path d="M154.5,406.9c-1.1,0,-1.9,-.8,-1.9,-1.9c0,-1,.8,-1.9,1.9,-1.9c1,0,1.9,.9,1.9,1.9c0,1.1,-.9,1.9,-1.9,1.9m0,-2.9c-.6,0,-1,.5,-1,1c0,.6,.4,1,1,1c.5,0,.9,-.4,.9,-1c0,-.5,-.4,-1,-.9,-1Z" class="gc_154"/>
<path d="M161.5,403.6c.8,0,1.4,.6,1.4,1.4c0,.8,-.6,1.5,-1.4,1.5c-.8,0,-1.5,-.7,-1.5,-1.5c0,-.8,.7,-1.4,1.5,-1.4Z" class="gd_154"/>
<path d="M161.5,406.9c-1.1,0,-1.9,-.8,-1.9,-1.9c0,-1,.8,-1.9,1.9,-1.9c1,0,1.9,.9,1.9,1.9c0,1.1,-.9,1.9,-1.9,1.9m0,-2.9c-.6,0,-1,.5,-1,1c0,.6,.4,1,1,1c.5,0,1,-.4,1,-1c0,-.5,-.5,-1,-1,-1Z" class="gc_154"/>
<path d="M163.4,418.2c0,-9.7,7.9,-17.6,17.6,-17.6c9.7,0,17.6,7.9,17.6,17.6c0,9.8,-7.9,17.7,-17.6,17.7c-.9,0,-1.9,-.1,-2.8,-.3l-5.3,6.1v-7.8c-5.6,-2.9,-9.5,-8.8,-9.5,-15.7Z" class="ge_154"/>
<path d="M172.9,442.2c0,0,-.1,0,-.1,0c-.2,-.1,-.3,-.3,-.3,-.5v-7.5c-5.9,-3.2,-9.6,-9.3,-9.6,-16c0,-9.9,8.2,-18,18.1,-18c10,0,18.1,8.1,18.1,18c0,10,-8.1,18.1,-18.1,18.1c-.8,0,-1.7,0,-2.6,-.2l-5.1,5.9c-.1,.1,-.2,.2,-.4,.2M181,401.1c-9.4,0,-17.1,7.7,-17.1,17.1c0,6.5,3.5,12.3,9.2,15.3c.2,.1,.3,.2,.3,.4v6.6l4.4,-5.2c.1,-.1,.3,-.1,.5,-.1c.9,.1,1.8,.2,2.7,.2c9.5,0,17.2,-7.7,17.2,-17.2c0,-9.4,-7.7,-17.1,-17.2,-17.1Z" class="gc_154"/>
<path d="M189.2,417.8c.9,0,1.7,.7,1.7,1.6c0,.9,-.8,1.7,-1.7,1.7c-.9,0,-1.7,-.8,-1.7,-1.7c0,-.9,.8,-1.6,1.7,-1.6Z" class="g1_154"/>
<path d="M189.2,421.6c-1.2,0,-2.1,-1,-2.1,-2.2c0,-1.2,.9,-2.1,2.1,-2.1c1.2,0,2.1,.9,2.1,2.1c0,1.2,-.9,2.2,-2.1,2.2m0,-3.4c-.7,0,-1.2,.6,-1.2,1.2c0,.7,.5,1.2,1.2,1.2c.7,0,1.2,-.5,1.2,-1.2c0,-.6,-.5,-1.2,-1.2,-1.2Z" class="gc_154"/>
<path d="M181,417.8c.9,0,1.7,.7,1.7,1.6c0,.9,-.8,1.7,-1.7,1.7c-.9,0,-1.7,-.8,-1.7,-1.7c0,-.9,.8,-1.6,1.7,-1.6Z" class="g1_154"/>
<path d="M181,421.6c-1.2,0,-2.1,-1,-2.1,-2.2c0,-1.2,.9,-2.1,2.1,-2.1c1.2,0,2.1,.9,2.1,2.1c0,1.2,-.9,2.2,-2.1,2.2m0,-3.4c-.7,0,-1.2,.6,-1.2,1.2c0,.7,.5,1.2,1.2,1.2c.7,0,1.2,-.5,1.2,-1.2c0,-.6,-.5,-1.2,-1.2,-1.2Z" class="gc_154"/>
<path d="M172.8,417.8c.9,0,1.7,.7,1.7,1.6c0,.9,-.8,1.7,-1.7,1.7c-.9,0,-1.7,-.8,-1.7,-1.7c0,-.9,.8,-1.6,1.7,-1.6Z" class="g1_154"/>
<path d="M172.8,421.6c-1.2,0,-2.1,-1,-2.1,-2.2c0,-1.2,.9,-2.1,2.1,-2.1c1.2,0,2.1,.9,2.1,2.1c0,1.2,-.9,2.2,-2.1,2.2m0,-3.4c-.7,0,-1.2,.6,-1.2,1.2c0,.7,.5,1.2,1.2,1.2c.7,0,1.2,-.5,1.2,-1.2c0,-.6,-.5,-1.2,-1.2,-1.2Z" class="gc_154"/>
<image clip-path="url(#c4_154)" preserveAspectRatio="none" x="72" y="586" width="194" height="228" xlink:href="img/3.png"/>
<path d="M79.9,590.5L77.8,805l181,2.3l-.7,-27.7l1.8,-187.8Z" class="gf_154"/>
<image clip-path="url(#c5_154)" preserveAspectRatio="none" x="70" y="583" width="200" height="236" xlink:href="img/4.png"/>
<image clip-path="url(#c6_154)" preserveAspectRatio="none" x="70" y="583" width="200" height="235" xlink:href="img/5.png"/>
<path d="M75.4,596.8L85.9,811.5l146.7,-7.9l31.7,-27.7L255.2,587.2Z" class="gg_154"/>
<path d="M232.6,803.6l32,-28.2L243.2,770Z" class="gh_154"/>
<path d="M370,630.8c6.8,-1.4,12.1,-5.5,13.7,-10.6m-.6,-8.1c-2.3,-4.8,-7.9,-8.4,-14.7,-9.3m-8.2,.3c-6.8,1.3,-12.2,5.4,-13.7,10.6m.6,8c2.2,4.8,7.8,8.4,14.7,9.3" class="gi_154"/>
<path d="M384.1,618.6c.1,-.6,.1,-1.1,.1,-1.7c0,-.5,0,-1.1,-.1,-1.6M366.7,602.7c-.5,-.1,-1.1,-.1,-1.6,-.1c-.6,0,-1.1,0,-1.7,.1m-17.3,12.6c-.1,.5,-.1,1.1,-.1,1.6c0,.6,0,1.1,.1,1.7m17.3,12.6c.6,0,1.1,0,1.7,0c.5,0,1.1,0,1.6,0" class="gj_154"/>
<path d="M355.4,600.5c-13.7,-9.7,-62.8,-41.1,-110,-31.8" class="gk_154"/>
<path d="M238.5,570.9c-2.1,1.7,3.7,3.2,7.7,2.8" class="gl_154"/>
<path d="M246.5,569.7c-3.7,-1.6,-10.5,-2.9,-17.8,-2.9" class="gk_154"/>
<path d="M221,567.4c-17.8,2.9,-62.4,15.7,-84.3,25.5" class="gl_154"/>
<path d="M359.2,603.2c0,0,-.4,-.3,-1.2,-.9M243.9,569.1c-.5,.1,-1,.2,-1.5,.3c-.5,.1,-1,.2,-1.4,.4m6.5,3.7c.5,-.2,1,-.3,1.3,-.6c.6,-.4,.7,-.9,.4,-1.4m-22.1,-4.7c-.6,0,-1.1,0,-1.7,.1c-.4,0,-.9,0,-1.5,.1m-88.5,26.5c-.5,.2,-.9,.4,-1.4,.7" class="gm_154"/>
<path d="M140.1,596.2l-4.4,-7.6l-7.6,9.5Z" class="gn_154"/>
<image clip-path="url(#c7_154)" x="158" y="592" width="6" height="9" xlink:href="shade/1.png"/>
<image clip-path="url(#c8_154)" x="158" y="565" width="24" height="28" xlink:href="shade/2.png"/>
<image clip-path="url(#c9_154)" x="157" y="567" width="23" height="34" xlink:href="shade/3.png"/>
<image clip-path="url(#ca_154)" x="163" y="563" width="20" height="10" xlink:href="shade/4.png"/>
<image clip-path="url(#cb_154)" preserveAspectRatio="none" x="723" y="629" width="203" height="297" xlink:href="img/6.png"/>
<path d="M751.6,632.4L729,905.8l169.3,14.1l2,-25.3L920.5,648.2Z" class="gf_154"/>
<image clip-path="url(#cc_154)" preserveAspectRatio="none" x="731" y="633" width="189" height="287" xlink:href="img/7.png"/>
<image clip-path="url(#cd_154)" preserveAspectRatio="none" x="731" y="632" width="189" height="288" xlink:href="img/8.png"/>
<path d="M744.4,637.5l-8,271.6l136.4,4.1l33.9,-25.8l7.2,-244.7Z" class="gg_154"/>
<path d="M872.8,913.7l33.9,-26.5L890.9,876.8Z" class="gh_154"/>
<path d="M726.1,703.5c-25.4,.6,-46,5.6,-50.6,12.2m1,6.8c6.2,6.1,26.6,10.6,51.1,11" class="gi_154"/>
<path d="M730.6,703.5c-.5,0,-1,0,-1.5,0M674.8,717c-.2,.5,-.3,1,-.3,1.5c0,.5,.1,1,.3,1.5m54.3,13.5c.5,0,1,0,1.5,0" class="gj_154"/>
<path d="M331.4,759.5c44.8,-.4,81.5,-5.6,89.1,-12.4m-1.3,-6.2c-9.8,-6.4,-45.9,-11.2,-89.3,-11.4" class="gi_154"/>
<path d="M326.8,759.5c.5,0,1,0,1.5,0m93.2,-13.6c.3,-.4,.4,-.9,.4,-1.4c0,-.5,-.1,-1,-.4,-1.5M328.3,729.5c-.5,0,-1,0,-1.5,0" class="gj_154"/>
<path d="M710.7,704.2c0,0,-3.8,-38.2,29.6,-46.3" class="gk_154"/>
<path d="M739.5,653.1l.4,8.8l11.1,-5Z" class="gn_154"/>
<image clip-path="url(#ce_154)" x="834" y="639" width="6" height="9" xlink:href="shade/5.png"/>
<image clip-path="url(#cf_154)" x="834" y="612" width="24" height="28" xlink:href="shade/6.png"/>
<image clip-path="url(#cg_154)" x="834" y="614" width="23" height="34" xlink:href="shade/7.png"/>
<image clip-path="url(#ch_154)" x="839" y="611" width="20" height="10" xlink:href="shade/8.png"/>
<path d="M32.1,179.3H967.5V32.1H32.1V179.3Z" class="go_154"/>
<path d="M260.9,147.8v-12c0,-.4,-.3,-.8,-.8,-1.2c-.5,-.5,-1,-.7,-1.4,-.7c-.6,0,-1.2,.1,-1.8,.5c-.6,.3,-1.2,.7,-1.7,1.2c-1.1,1.2,-1.6,2.4,-1.6,3.7c0,.6,.2,1.1,.5,1.5c.4,.4,.9,.6,1.5,.6c.5,0,.9,-.2,1.2,-.4c.3,-.3,.5,-.6,.5,-1.1c0,-.9,-.3,-1.3,-.9,-1.3c-.3,0,-.5,0,-.9,0c.1,-.4,.3,-.8,.5,-1.1c.2,-.4,.4,-.8,.7,-1.2c.4,-.4,.7,-.7,1.1,-.9c.3,-.2,.7,-.3,1,-.3c.6,0,.9,.1,.9,.3v9.1c-1.2,-.9,-2.3,-1.4,-3.6,-1.4H255c-.2,0,-.5,0,-.7,0h-.5c-.5,0,-.9,0,-1.3,-.1c-.4,-.1,-.7,-.2,-1,-.3c-.3,-.2,-.5,-.5,-.7,-.9c-.2,-.4,-.3,-.8,-.3,-1.3c0,-.6,.1,-1.1,.2,-1.5c.1,-.4,.3,-.8,.5,-1.2l-.4,-.4c-.4,.4,-.6,.8,-.8,1.3c-.2,.6,-.3,1.2,-.3,1.8c0,3,1.5,4.5,4.4,4.5c.2,0,.5,0,.8,0c.3,0,.6,-.1,1.1,-.1c.8,-.1,1.4,-.2,1.8,-.2c.7,0,1.3,.3,1.8,.8c.1,.2,.2,.4,.3,.6c.1,.3,.2,.6,.4,.9c.1,.4,.2,.7,.4,.8h.2ZM273.4,134h-1c.1,-1.1,-.3,-2,-1.1,-2.5c-.7,-.6,-1.9,-.9,-3.4,-.9c-.8,.1,-1.5,.1,-2,.2c-.6,0,-.9,0,-1.1,0c-.4,0,-.8,-.1,-1.1,-.3c-.5,-.3,-.7,-.6,-.7,-1c0,-.4,.2,-.8,.5,-1c0,0,-.1,0,-.1,0c-.1,0,-.2,0,-.2,0c-.2,-.1,-.4,.1,-.6,.5c-.2,.3,-.2,.6,-.2,.8c0,.8,.4,1.5,1.3,2c.7,.4,1.5,.7,2.4,.7c.2,0,.5,-.1,.8,-.1c.3,0,.6,0,1,0c.4,-.1,.8,-.1,1,-.1c.3,0,.6,0,.8,0c.2,0,.4,0,.6,0c.1,0,.3,.1,.5,.1c.5,.2,.7,.4,.7,.7c0,.3,-.2,.5,-.6,.7c-.2,.1,-.4,.1,-.5,.1c-.2,.1,-.4,.1,-.6,.1h-8.1l1.2,1.2h3.9c.5,.4,.8,.7,.8,1c-.8,0,-1.4,.3,-2,.8c-.5,.5,-.8,1.1,-.8,1.8c0,.4,.1,.7,.4,.9c.3,.2,.6,.3,1,.3c.6,0,1.1,-.2,1.6,-.7c.5,-.5,.7,-1,.7,-1.6c.1,0,.2,0,.3,-.1c.1,0,.2,0,.3,0c.3,0,.5,.1,.7,.2c.2,.1,.4,.2,.5,.4c.2,.2,.3,.4,.4,.7c.1,.2,.1,.5,.1,.7c0,.8,-.4,1.5,-1.4,2c-.7,.3,-1.5,.5,-2.5,.4c-1.2,-.1,-2.3,-.4,-3.3,-1l1.4,3c.9,.2,1.7,.5,2.6,.9c.9,.3,1.7,.7,2.5,1.2c.9,.5,1.7,1,2.3,1.5c.7,.6,1.4,1.2,1.9,1.9l-.2,-1.3c-1.1,-1.1,-2.1,-2,-3,-2.8c-1,-.8,-1.8,-1.4,-2.6,-1.9c1.2,-.3,2.1,-.7,2.6,-1.2c.8,-.6,1.2,-1.5,1.2,-2.4c0,-1,-.3,-1.8,-.9,-2.5c-.5,-.5,-1.3,-.9,-2.5,-1.3c-.1,-.2,-.2,-.3,-.3,-.5c-.1,-.1,-.2,-.2,-.3,-.4h6.3L273.4,134Zm14.7,0c-.5,0,-1,.2,-1.5,.4c-.5,.3,-.9,.5,-1.3,.8c-.7,.8,-1.3,1.8,-1.8,2.8c-.4,1,-.6,2.1,-.7,3.3c0,1.5,.3,2.8,1,3.9c.7,1.4,1.8,2.1,3.1,2.1c.3,0,.6,0,.9,-.1c.3,-.1,.5,-.2,.7,-.4c.2,-.2,.3,-.4,.5,-.7c.1,-.2,.1,-.5,.1,-.8c0,-.4,-.1,-.9,-.4,-1.2c-.3,-.3,-.6,-.5,-1,-.5c-.2,0,-.4,.1,-.6,.1c-.1,.1,-.3,.2,-.4,.3c-.2,.2,-.3,.3,-.4,.4c-.1,.2,-.1,.4,-.1,.6c0,.2,.1,.4,.2,.7c.1,.2,.3,.4,.5,.6c0,0,-.1,.1,-.2,.1h-.1c-.7,0,-1.4,-.5,-1.9,-1.4c-.4,-.7,-.7,-1.5,-.7,-2.3c0,-1,.1,-1.9,.4,-2.7c.2,-.7,.5,-1.4,.9,-2.1c.5,-.7,1,-1.3,1.7,-1.7c.6,-.5,1.4,-.8,2.3,-1L288.1,134Zm11.4,0H287.4l1.3,1.2c.4,.6,.8,1,1.1,1.2c.2,.2,.5,.3,.8,.4c.3,.2,.6,.3,1.1,.4c.8,.3,1.3,.5,1.6,.8c.5,.4,.7,1.1,.7,2.2c-.3,-.2,-.6,-.3,-1,-.3c-.7,0,-1.3,.2,-1.7,.5c-.5,.4,-.7,1,-.7,1.6c0,.6,.2,1.1,.5,1.5c.4,.4,.9,.5,1.5,.5c.3,0,.7,0,1,-.2c.4,-.1,.8,-.5,1.1,-.9c1.6,.5,2.7,2,3.3,4.4l.5,.5V135.2h2.2L299.5,134Zm-2.2,9.8c-.2,-.4,-.5,-.8,-.8,-1.2c-.4,-.4,-.8,-.8,-1.3,-1.2c.1,-.1,.1,-.2,.1,-.3v-.3c0,-1.1,-.4,-2.1,-1.2,-3.1c-.4,-.7,-1.3,-1.5,-2.5,-2.5h5.8v8.6h-.1Zm15.4,-11.9c-2.3,-2.4,-4.7,-3.6,-7.3,-3.6c-.9,0,-2,.4,-3,1.2c-1.1,.9,-1.6,1.8,-1.6,2.7c0,.4,.1,.7,.4,1l.9,.8h-3.2l1.2,1.2h1.8v11.3l1.2,1.2V135.2h2.1L304,134h-1.3l-.5,-1.1c.1,-.9,.6,-1.6,1.6,-2.3c1,-.7,1.9,-1,2.8,-1c.6,0,1.2,.1,1.8,.2c.6,.2,1.1,.4,1.7,.7c.6,.4,1.1,.7,1.6,1c.4,.4,.9,.7,1.3,1l-.3,-.6Zm5.2,3.3L316.7,134c-.7,-.1,-1.1,-.6,-1.2,-1.5l-.7,-.6l.2,5.3h-.1c-.1,-.5,-.5,-1.2,-1.2,-2C313,134.4,312.4,134,312,134c-1.3,0,-2.3,.8,-3,2.4c-.2,-.7,-.5,-1.2,-1.1,-1.7c-.5,-.5,-1.1,-.7,-1.7,-.7h-2.6l1.2,1.2c.1,0,.6,0,1.4,0c.7,0,1.4,.5,2,1.5c-.3,.1,-.6,.2,-.8,.4c-.3,.2,-.5,.4,-.7,.7c-.2,.2,-.4,.5,-.5,.8c-.1,.2,-.1,.5,-.1,.8c0,.4,.1,.8,.4,1.2c.3,.3,.6,.5,1,.5c1,0,1.6,-.5,2,-1.5c.2,.5,.4,.8,.7,1.1c.4,.2,.8,.4,1.2,.4c.5,-.1,.9,-.3,1.1,-.7c.3,-.3,.5,-.7,.5,-1.2c0,-.6,-.7,-1.3,-1.9,-2.2c0,-.3,.1,-.6,.4,-.7c.3,-.2,.6,-.3,.9,-.3c.5,0,1,.3,1.6,1c.5,.8,.8,1.4,.8,1.9l-.1,7.7l1.2,1.2V135.2h2Zm11.4,0L328,134H316.4l1.2,1.2H326v6.6h-.1c-1.2,-2.6,-2.7,-4,-4.4,-4c-.8,0,-1.5,.3,-2.1,.9c-.6,.5,-.9,1.2,-.9,2c0,1.5,.8,2.2,2.3,2.2c.5,0,.9,-.2,1.2,-.5c.3,-.4,.5,-.8,.5,-1.3c0,-.3,-.3,-.8,-.8,-1.5c.1,-.1,.2,-.1,.3,-.1c1.3,0,2.4,.8,3.4,2.5c.6,1.4,.9,2.9,.9,4.2l-.1,1.3l1,.6V135.2h2.1Zm10.5,0L338.6,134h-.7c0,-1.1,-.2,-2,-.6,-2.6c-.6,-.6,-1.4,-.9,-2.4,-.9c-.4,0,-.9,.1,-1.5,.1c-.3,.1,-.6,.1,-.9,.1c-.2,0,-.4,0,-.6,0c-.5,0,-1,-.1,-1.3,-.3c-.5,-.2,-.7,-.6,-.7,-1.1c0,-.2,.1,-.4,.3,-.6c0,-.1,0,-.2,0,-.2c0,-.1,0,-.2,0,-.2c-.6,0,-.9,.5,-.9,1.4c0,.9,.4,1.6,1.3,2c.7,.5,1.6,.7,2.5,.7c.1,0,.3,0,.5,0c.1,-.1,.3,-.1,.6,-.1c.5,-.1,.9,-.1,1.1,-.1c1,0,1.5,.3,1.5,1c0,.2,0,.3,0,.4c0,.2,0,.3,0,.4h-9.1l1.1,1.2h1.9v8c.1,.9,.4,1.6,.9,2c.4,.5,1,.7,1.8,.7c1.2,0,2.3,-.6,3.3,-1.8c.9,-1.2,1.4,-2.3,1.4,-3.5c0,-.4,0,-.7,-.1,-1.1c-.1,-.3,-.2,-.6,-.4,-.9c-.4,-.7,-1,-1,-1.7,-1c-.4,0,-.8,.2,-1.1,.5c-.3,.3,-.4,.7,-.4,1.1c0,.4,.2,.8,.5,1c.3,.3,.7,.4,1,.4h.5c-.1,.8,-.5,1.6,-1.2,2.5c-.8,.8,-1.5,1.3,-2.2,1.3c-.5,0,-.9,-.3,-1.2,-.8v-8.4h8Zm4.6,0L343.2,134h-1c-.4,-.4,-.6,-1,-.8,-1.9l-.4,-.3c0,.2,0,.5,0,.9c0,.3,.1,.7,.1,1.2c0,.5,.1,.9,.1,1.3c0,.3,0,.6,0,.9c-.3,-.8,-.6,-1.3,-1,-1.6c-.4,-.3,-.9,-.5,-1.7,-.5h-1.3l1.2,1.2c.3,0,.6,.1,1,.2c.3,.1,.6,.3,.8,.5c.3,.2,.5,.4,.6,.7c.1,.3,.2,.7,.2,1v8.9l1.2,1.2V135.2h2.2Zm19.7,-3.3c-2.3,-2.4,-4.8,-3.6,-7.3,-3.6c-1,0,-2,.4,-3.1,1.2c-1,.9,-1.6,1.8,-1.6,2.7c0,.4,.2,.7,.5,1l.8,.8h-3.2l1.2,1.2h1.8v11.3l1.3,1.2V135.2h2L355.3,134H354l-.4,-1.1c0,-.9,.6,-1.6,1.6,-2.3c.9,-.7,1.9,-1,2.8,-1c.6,0,1.2,.1,1.7,.2c.6,.2,1.2,.4,1.7,.7c.6,.4,1.2,.7,1.6,1c.5,.4,.9,.7,1.3,1l-.2,-.6Zm6.9,3.3L369.8,134H354.6l1.3,1.2h7.7v1c-2.5,.8,-4.9,2.1,-6.9,3.7l1.7,2.1c1.3,.1,2.5,.7,3.6,1.8c.5,.5,.9,1,1.3,1.6c.4,.7,.7,1.3,1,2q.1,.1,.2,.2c.1,0,.2,.1,.3,.1v-10c1.2,0,2.1,.3,2.7,1c.7,.7,1,1.4,1,2.2l-.1,.3c-.1,-.2,-.3,-.3,-.5,-.4c-.2,-.2,-.4,-.2,-.7,-.2c-.4,0,-.7,.1,-1,.4c-.2,.2,-.4,.5,-.4,.9c0,.2,.1,.4,.2,.6c.1,.2,.2,.3,.3,.5c.2,.1,.3,.2,.5,.3c.2,.1,.4,.1,.6,.1c.3,0,.6,-.1,.8,-.2c.2,-.1,.5,-.3,.6,-.5c.2,-.2,.3,-.4,.4,-.7c.1,-.3,.2,-.5,.2,-.8c0,-1.3,-.4,-2.4,-1.2,-3.4c-.9,-1.2,-2,-1.7,-3.4,-1.7v-.9H371Zm-7.4,9.1h-.1c-.9,-1.8,-2.4,-3.1,-4.4,-4c.8,-.5,1.6,-1,2.3,-1.4c.7,-.4,1.5,-.8,2.2,-1.1v6.5Zm20.5,-9.1L382.9,134H369.5l1.2,1.2h13.4Zm-1.7,2.9c-.3,-.5,-.6,-.9,-.9,-1.1c-.3,-.3,-.6,-.5,-.9,-.5c-.1,.3,-.3,.6,-.5,.9c-.2,.3,-.4,.6,-.6,.8c-.6,.7,-1.2,1,-1.8,.9c.4,-.4,.6,-.9,.6,-1.2c0,-.4,-.2,-.8,-.5,-1.1c-.3,-.2,-.7,-.4,-1.1,-.4c-1.3,0,-1.9,.7,-1.9,1.9c0,.8,.3,1.4,.8,1.9c.6,.4,1.2,.6,1.9,.6c1.5,0,2.8,-.6,3.9,-1.9c.4,0,.6,.6,.6,1.7c0,.9,-.4,1.7,-1,2.3c-.6,.7,-1.4,1,-2.3,1c-.9,0,-1.7,-.2,-2.5,-.7c-.7,-.4,-1.4,-1,-2.1,-1.7c-.4,-.6,-.8,-1.4,-1.2,-2.2c-.4,-.8,-.8,-1.7,-1.1,-2.7l-.7,-.2c.5,1.4,.9,2.7,1.3,3.7c.4,1,.8,1.8,1.1,2.3c1.3,2.3,3,3.5,5,3.5c1.4,0,2.5,-.6,3.4,-1.6c.4,-.5,.7,-1.1,.9,-1.7c.2,-.6,.3,-1.3,.3,-2c0,-.7,-.2,-1.5,-.7,-2.5Zm6.4,-2.9L387.6,134h-1c-.4,-.4,-.7,-1,-.8,-1.9l-.4,-.3c0,.2,0,.5,0,.9c0,.3,0,.7,.1,1.2c0,.5,0,.9,0,1.3c.1,.3,.1,.6,.1,.9c-.3,-.8,-.6,-1.3,-1,-1.6c-.4,-.3,-1,-.5,-1.7,-.5h-1.4l1.2,1.2c.4,0,.7,.1,1,.2c.4,.1,.6,.3,.9,.5c.2,.2,.4,.4,.6,.7c.1,.3,.2,.7,.2,1v8.9l1.2,1.2V135.2h2.2Zm5.9,-1.2h-7.9l1.2,1.2h4c-1.7,2,-2.6,4,-2.6,6.1c0,1.5,.4,2.8,1,3.9c.7,1.4,1.8,2.1,3.2,2.1c.3,0,.5,0,.8,-.1c.3,-.1,.5,-.2,.7,-.4c.2,-.2,.4,-.4,.5,-.7c.1,-.2,.2,-.5,.2,-.8c0,-.4,-.2,-.9,-.5,-1.2c-.3,-.3,-.6,-.5,-1,-.5c-.4,0,-.7,.2,-1,.4c-.3,.3,-.5,.6,-.5,1c0,.2,.1,.4,.2,.7c.1,.2,.3,.4,.6,.6c-.7,.2,-1.5,-.2,-2.3,-1.3c-.4,-.7,-.6,-1.5,-.6,-2.3c0,-1,.1,-1.9,.3,-2.7c.2,-.7,.5,-1.4,.9,-2.1c.5,-.7,1,-1.3,1.7,-1.7c.6,-.5,1.4,-.8,2.3,-1L394.7,134Zm12.2,1.2L405.7,134H393.9l1.2,1.2h8.2v.9c-2.5,.8,-5,2.1,-7.4,3.7l1.6,2.3c1.7,.1,3,.7,4.1,1.6c.3,.3,.6,.6,.9,1c.3,.4,.6,.8,.7,1.2c.2,.3,.3,.5,.4,.7c.1,.1,.1,.2,.2,.4l.6,.8V135.2h2.5Zm-3.6,9.4c-1.1,-1.8,-2.7,-3.2,-4.9,-4.1c.9,-.6,1.7,-1.1,2.5,-1.5c.8,-.4,1.6,-.7,2.4,-1v6.6ZM423.1,134H412.8l1.2,1.2h1.9v9.1c0,.4,.2,.9,.6,1.5c.5,.5,.9,.7,1.4,.7c1.1,0,2.3,-.7,3.5,-2.2c1.1,-1.4,1.6,-2.7,1.6,-3.9c.1,-1,-.9,-1.8,-3,-2.5c-2.1,-.6,-3.1,-1.5,-3,-2.7h7.4L423.1,134Zm-1.9,6.8c0,.7,-.4,1.5,-1.3,2.6c-.9,1,-1.7,1.5,-2.3,1.5c-.4,0,-.6,-.2,-.6,-.7v-7c.9,1.5,2.2,2.5,4.1,3.1c.1,0,.1,.2,.1,.5Zm7.7,-5.6L427.8,134h-1.1c-.4,-.4,-.6,-1,-.7,-1.9l-.5,-.3c0,.2,0,.5,0,.9c.1,.3,.1,.7,.1,1.2c.1,.5,.1,.9,.1,1.3c0,.3,0,.6,0,.9c-.2,-.8,-.5,-1.3,-.9,-1.6c-.4,-.3,-1,-.5,-1.7,-.5h-1.4l1.2,1.2c.3,0,.7,.1,1,.2c.3,.1,.6,.3,.8,.5c.3,.2,.5,.4,.6,.7c.2,.3,.2,.7,.2,1v8.9l1.2,1.2V135.2h2.2Zm12.6,0L440.3,134H427.1l1.2,1.2h9.8v3.3c-.5,-1.3,-1.2,-2,-2.2,-2c-.4,0,-.7,.2,-1,.5c-.3,.3,-.5,.6,-.5,1c-.8,-1,-1.7,-1.6,-2.8,-1.6c-.8,0,-1.4,.4,-1.9,1.2c-.5,.7,-.7,1.4,-.7,2.3c0,.5,.1,1,.2,1.4c.2,.4,.5,.8,.8,1.1c.3,.3,.6,.5,1.1,.7c.4,.1,.9,.2,1.4,.2c.6,-.1,1.1,-.2,1.4,-.5c.3,-.3,.5,-.7,.5,-1.2c0,-1.1,-.5,-1.7,-1.6,-1.7c-.4,0,-.7,.1,-1,.3c-.2,.3,-.4,.6,-.4,1c0,.2,.2,.6,.4,1c-1.1,-.2,-1.7,-.8,-1.7,-1.7c0,-.3,0,-.6,.2,-.9c.1,-.3,.2,-.5,.5,-.7c.2,-.2,.4,-.4,.7,-.5c.2,-.1,.5,-.2,.8,-.2c.7,0,1.3,.2,1.8,.6c.5,.4,.9,1,1,1.6l.5,-.2c-.1,-.3,-.1,-.5,-.1,-.7c0,-.9,.3,-1.3,1,-1.3c.4,0,.8,.2,1.1,.5c.3,.3,.5,.7,.5,1.1v6.9l1.2,1.1V135.2h2.2Zm4.4,0L444.8,134h-1.1c-.4,-.4,-.6,-1,-.7,-1.9l-.5,-.3c0,.2,0,.5,0,.9c.1,.3,.1,.7,.1,1.2c.1,.5,.1,.9,.1,1.3c0,.3,0,.6,0,.9c-.2,-.8,-.5,-1.3,-.9,-1.6c-.4,-.3,-1,-.5,-1.7,-.5h-1.4l1.2,1.2c.3,0,.7,.1,1,.2c.3,.1,.6,.3,.8,.5c.3,.2,.5,.4,.6,.7c.2,.3,.2,.7,.2,1v8.9l1.2,1.2V135.2h2.2Zm10.7,0L455.4,134H444.3c.6,1,1.7,1.7,3.3,2.2c.7,.2,1.3,.4,1.7,.6c.4,.2,.7,.4,.8,.6c-.5,.4,-1.1,.8,-1.7,1.4c-.6,.5,-1.3,1.1,-1.9,1.7l1.6,2.1c1.4,.1,2.6,.5,3.5,1.2c.6,.5,1.2,1.2,1.8,2.3c.5,1,1,1.6,1.3,1.8V135.2h1.9Zm-3.1,9.5c-1,-1.7,-2.5,-2.9,-4.5,-3.6c.5,-.5,1,-1.1,1.5,-1.6c.4,-.5,.9,-.9,1.4,-1.4c-.6,-.7,-1.1,-1.3,-1.7,-1.8c-.5,-.5,-.9,-.9,-1.3,-1.1h4.6v9.5Zm-4.6,2c.2,.2,.5,.3,.8,.3c.4,0,.7,-.1,.9,-.3c.3,-.3,.4,-.6,.4,-.9c0,-.3,-.1,-.6,-.4,-.9c-.2,-.2,-.5,-.3,-.9,-.3c-.3,0,-.6,.1,-.8,.3c-.3,.3,-.4,.6,-.4,.9c0,.3,.1,.6,.4,.9ZM478.1,134H462.8l1.2,1.2h5.2c-.4,.3,-.8,.8,-1.2,1.5c-.4,.6,-.6,1.2,-.6,1.7c0,.8,.3,1.5,.8,2.1c.6,.7,1.2,1,2,1c.4,0,.8,-.1,1.3,-.3c.6,-.2,.9,-.3,1,-.3c.2,0,.4,.1,.5,.4c.1,.2,.2,.4,.2,.6c0,.6,-.4,1,-1.2,1.3c-.6,.3,-1.2,.5,-1.8,.5c-.6,0,-1.3,-.2,-1.8,-.6c-.6,-.4,-1,-1,-1.5,-1.7c-.6,-.9,-.9,-2.1,-1.1,-3.5c0,-.5,0,-.9,0,-1.3l-.6,-.3c0,1.2,.1,2.3,.2,3.3c.2,1,.5,1.9,.8,2.7c.9,2.2,2.4,3.4,4.5,3.4c.9,0,1.6,-.4,2.3,-1c.7,-.7,1,-1.5,1,-2.4c0,-.3,0,-.6,-.2,-.9c-.1,-.4,-.2,-.7,-.4,-1.1c-.4,-.7,-.9,-1.2,-1.4,-1.4l-1.3,.7c-.3,.1,-.6,.2,-.8,.3c-.2,.1,-.4,.1,-.6,.1c-.6,0,-.9,-.3,-.9,-.9c0,-.4,.2,-1,.7,-1.7c.2,-.4,.5,-.7,.7,-.9c.2,-.2,.4,-.3,.6,-.3l.1,.1c.7,.9,1.5,1.6,2.4,1.9c.7,.3,1.8,.5,3,.5c-.5,1.2,-.7,2.5,-.7,3.6c0,.9,.1,1.8,.2,2.6c.2,.8,.4,1.6,.7,2.4l1.2,.3c-.6,-1.3,-.9,-2.5,-.9,-3.4c0,-1.2,.2,-2.3,.5,-3.3c.3,-.9,.8,-1.7,1.5,-2.3l-1.8,-1.9c-.4,.2,-.8,.3,-1.3,.4c-.5,.1,-1.1,.1,-1.8,.1c-.1,0,-.3,0,-.5,-.1c-.2,-.1,-.5,-.1,-.7,-.3c-.2,-.1,-.4,-.2,-.6,-.3c-.2,-.2,-.2,-.3,-.2,-.5c0,-.2,.1,-.4,.3,-.5c.2,-.2,.4,-.3,.6,-.3h6.9L478.1,134Zm5.7,1.2L482.7,134h-1.1c-.4,-.4,-.6,-1,-.8,-1.9l-.4,-.3c0,.2,0,.5,0,.9c0,.3,.1,.7,.1,1.2c0,.5,.1,.9,.1,1.3c0,.3,0,.6,0,.9c-.2,-.8,-.6,-1.3,-1,-1.6c-.4,-.3,-.9,-.5,-1.7,-.5h-1.3l1.2,1.2c.3,0,.6,.1,1,.2c.3,.1,.6,.3,.8,.5c.3,.2,.5,.4,.6,.7c.2,.3,.2,.7,.2,1v8.9l1.2,1.2V135.2h2.2Zm6,-1.2h-8l1.2,1.2h4c-1.7,2,-2.5,4,-2.5,6.1c0,1.5,.3,2.8,.9,3.9c.8,1.4,1.8,2.1,3.2,2.1c.3,0,.6,0,.8,-.1c.3,-.1,.5,-.2,.7,-.4c.2,-.2,.4,-.4,.5,-.7c.1,-.2,.2,-.5,.2,-.8c0,-.4,-.2,-.9,-.4,-1.2c-.3,-.3,-.7,-.5,-1.1,-.5c-.3,0,-.7,.2,-1,.4c-.3,.3,-.4,.6,-.4,1c0,.2,0,.4,.1,.7c.2,.2,.3,.4,.6,.6c-.7,.2,-1.5,-.2,-2.2,-1.3c-.5,-.7,-.7,-1.5,-.7,-2.3c0,-1,.1,-1.9,.3,-2.7c.2,-.7,.5,-1.4,.9,-2.1c.5,-.7,1.1,-1.3,1.7,-1.7c.7,-.5,1.5,-.8,2.4,-1L489.8,134Zm12.1,1.2L500.7,134H489l1.2,1.2h8.4v6.6c-1.3,-2.6,-2.8,-4,-4.4,-4c-.8,0,-1.5,.3,-2.1,.9c-.6,.5,-.9,1.2,-.9,2c0,1.5,.8,2.2,2.3,2.2c.5,0,.9,-.2,1.2,-.5c.3,-.4,.5,-.8,.5,-1.3c0,-.3,-.3,-.8,-.8,-1.5c0,-.1,.2,-.1,.3,-.1c1.3,0,2.4,.8,3.4,2.5c.6,1.4,.9,2.9,.9,4.2l-.1,1.3l.9,.6V135.2h2.1Zm11.4,0L512,134H500.4l1.1,1.2H510v6.6h-.1c-1.3,-2.6,-2.7,-4,-4.4,-4c-.8,0,-1.5,.3,-2.1,.9c-.6,.5,-.9,1.2,-.9,2c0,1.5,.8,2.2,2.3,2.2c.5,0,.9,-.2,1.2,-.5c.3,-.4,.5,-.8,.5,-1.3c0,-.3,-.3,-.8,-.8,-1.5c.1,-.1,.2,-.1,.3,-.1c1.3,0,2.4,.8,3.4,2.5c.6,1.4,.9,2.9,.9,4.2l-.1,1.3l1,.6V135.2h2.1Zm7.3,-.5c-.5,-.6,-1.3,-.9,-2.4,-.9c-.5,0,-1.1,.1,-1.6,.3c-.6,.1,-1,.4,-1.4,.7c-.4,.3,-.8,.6,-1,1.1c-.2,.4,-.4,.8,-.4,1.3v.2q0,.1,.1,.2l.2,.3c.3,0,.6,-.1,.9,-.2c.2,0,.4,-.1,.7,-.2c-.1,-.1,-.1,-.2,-.1,-.3c0,-.1,-.1,-.2,-.1,-.3c0,-.3,.1,-.5,.2,-.8c.1,-.3,.2,-.5,.4,-.7c.2,-.2,.4,-.3,.6,-.4c.2,-.1,.5,-.2,.7,-.2c.8,0,1.3,.3,1.7,.7c.4,.5,.6,1.2,.6,2.1c0,.3,-.1,.6,-.2,.9c-.2,.2,-.3,.5,-.6,.7c-.2,.3,-.4,.5,-.6,.8c-.3,.2,-.5,.5,-.7,.8c-.2,.2,-.4,.5,-.5,.8c-.1,.3,-.2,.7,-.2,1.1l.1,1.2l.3,.2c.1,0,.3,-.1,.3,-.2c0,0,.1,-.1,.2,-.2l.1,-1c0,-.5,.1,-.9,.3,-1.2c.2,-.4,.5,-.6,.7,-.9c.3,-.2,.6,-.4,.8,-.6c.3,-.2,.6,-.5,.9,-.7c.2,-.3,.4,-.6,.6,-.9c.1,-.3,.2,-.8,.2,-1.3c0,-1,-.2,-1.8,-.8,-2.4Zm-3,10.6c-.4,0,-.7,.2,-1,.5c-.3,.3,-.5,.7,-.5,1.2c0,.4,.1,.7,.3,.9c.2,.2,.4,.3,.8,.3c.4,0,.7,-.2,1,-.5c.3,-.3,.4,-.7,.4,-1.2c0,-.8,-.3,-1.2,-1,-1.2Z" class="gp_154"/>
<g clip-path="url(#c0_154)">
<path d="M1877,177.2H32.1v-5.4H768.7c43.1,0,53,-37.9,115.3,-37.9h993Z" class="gq_154"/>
<path d="M1877,183.7H32.1v-9.8H768.7c43.1,0,53,-33.6,115.3,-33.6h993Z" class="gr_154"/>
</g>
<image clip-path="url(#ci_154)" preserveAspectRatio="none" x="125" y="206" width="734" height="181" xlink:href="img/9.png"/>
<path d="M144.6,231.3c0,0,-13,0,-13,13v117c0,0,0,13,13,13H833.1c0,0,13,0,13,-13v-130Z" class="gs_154"/>
<path d="M147.7,294.1l54.1,40.8l54.1,-40.8V230h8.7V211.9H155.8c-6.5,.4,-7.7,3.9,-8.2,8.4Z" class="gt_154"/>
<path d="M274,220.3c-.3,-4.7,-4.2,-8.4,-9,-8.4c-4.8,0,-8.7,3.7,-9,8.4h-.1V230h18.2v-9.7Z" class="gb_154"/>
<path d="M255.9,230.6H846.1" class="gu_154"/>
<path d="M32.1,45.1H9.2m958.3,0h22.9M32.1,1331.3H9.2m958.3,0h22.9M45.1,32.1V9.2m0,1335.1v22.9M954.5,32.1V9.2m0,1335.1v22.9" class="gv_154"/>
<path d="M32.1,45.1H9.2m958.3,0h22.9M32.1,1331.3H9.2m958.3,0h22.9M45.1,32.1V9.2m0,1335.1v22.9M954.5,32.1V9.2m0,1335.1v22.9" class="gw_154"/>
<path d="M27.5,32.1H0m972.1,0h27.5M27.5,1344.3H0m972.1,0h27.5M32.1,27.5V0m0,1348.9v27.5M967.5,27.5V0m0,1348.9v27.5" class="gv_154"/>
<path d="M27.5,32.1H0m972.1,0h27.5M27.5,1344.3H0m972.1,0h27.5M32.1,27.5V0m0,1348.9v27.5M967.5,27.5V0m0,1348.9v27.5" class="gw_154"/>
</svg>