<?xml version="1.0" encoding="UTF-8" standalone="no"?>
<!DOCTYPE svg PUBLIC "-//W3C//DTD SVG 1.1//EN"
"http://www.w3.org/Graphics/SVG/1.1/DTD/svg11.dtd">
<svg viewBox="0 0 999 1376" version="1.1" xmlns="http://www.w3.org/2000/svg" xmlns:xlink="http://www.w3.org/1999/xlink">
<defs>
<clipPath id="c0_370"><path d="M32.1,1344.3V32.1H967.5V1344.3Z"/></clipPath>
<style type="text/css"><![CDATA[
.g0_370{
fill: #FEFCF4;
}
.g1_370{
fill: #FFF;
}
.g2_370{
fill: none;
stroke: #6381B7;
stroke-width: 0.763;
}
.g3_370{
fill: #BC93AB;
}
.g4_370{
fill: none;
stroke: #D1B8D8;
stroke-width: 1.222;
}
.g5_370{
fill: #FFF;
stroke: #D1B8D8;
stroke-width: 1.222;
}
.g6_370{
fill: none;
stroke: #FFF;
stroke-width: 1.909;
stroke-miterlimit: 10;
}
.g7_370{
fill: none;
stroke: #000;
stroke-width: 0.381;
stroke-miterlimit: 10;
}
]]></style>
</defs>
<path d="M32.1,1343.2H954.5V32.1H32.1V1343.2Z" class="g0_370"/>
<path clip-path="url(#c0_370)" d="M954.5,1344.3H1877V32.1H954.5V1344.3Z" class="g0_370"/>
<path d="M145.1,131.7c0,0,-13,0,-13,13V1227.4c0,0,0,13,13,13H832.9c0,0,13,0,13,-13V144.7c0,0,0,-13,-13,-13Z" class="g1_370"/>
<path d="M145.1,131.7c0,0,-13,0,-13,13V1227.4c0,0,0,13,13,13H832.9c0,0,13,0,13,-13V144.7c0,0,0,-13,-13,-13H145.1Z" class="g2_370"/>
<path d="M168.5,162c0,0,-6.5,0,-6.5,6.5v17.3c0,0,0,6.5,6.5,6.5H393.7c0,0,6.5,0,6.5,-6.5V168.5c0,0,0,-6.5,-6.5,-6.5Z" class="g3_370"/>
<image preserveAspectRatio="none" x="231" y="378" width="508" height="644" xlink:href="img/1.jpg"/>
<path d="M149.2,315.5c0,0,-10.4,0,-10.4,10.4v63.5c0,0,0,10.4,10.4,10.4H294.7c0,0,10.4,0,10.4,-10.4V325.9c0,0,0,-10.4,-10.4,-10.4Z" class="g1_370"/>
<path d="M149.2,315.5c0,0,-10.4,0,-10.4,10.4v63.5c0,0,0,10.4,10.4,10.4H294.7c0,0,10.4,0,10.4,-10.4V325.9c0,0,0,-10.4,-10.4,-10.4H149.2Z" class="g4_370"/>
<path d="M262.8,397c0,0,4.5,17,22.9,17.7c0,0,-7.6,-8.7,-6.6,-17.7" class="g5_370"/>
<path d="M150,392.7H298.9V322.6H150v70.1Z" class="g1_370"/>
<path d="M363.6,270c0,0,-10.4,0,-10.4,10.4V391.5c0,0,0,10.4,10.4,10.4H540.8c0,0,10.4,0,10.4,-10.4V280.4c0,0,0,-10.4,-10.4,-10.4Z" class="g1_370"/>
<path d="M363.6,270c0,0,-10.4,0,-10.4,10.4V391.5c0,0,0,10.4,10.4,10.4H540.8c0,0,10.4,0,10.4,-10.4V280.4c0,0,0,-10.4,-10.4,-10.4H363.6Z" class="g4_370"/>
<path d="M401.3,397c0,0,-4.5,17,-22.9,17.7c0,0,7.6,-8.7,6.6,-17.7" class="g5_370"/>
<path d="M636.4,293c0,0,-10.4,0,-10.4,10.4v68.7c0,0,0,10.4,10.4,10.4H798c0,0,10.4,0,10.4,-10.4V303.4c0,0,0,-10.4,-10.4,-10.4Z" class="g1_370"/>
<path d="M636.4,293c0,0,-10.4,0,-10.4,10.4v68.7c0,0,0,10.4,10.4,10.4H798c0,0,10.4,0,10.4,-10.4V303.4c0,0,0,-10.4,-10.4,-10.4H636.4Z" class="g4_370"/>
<path d="M683.8,379.7c0,0,-4.5,17,-22.9,17.7c0,0,7.6,-8.7,6.6,-17.7" class="g5_370"/>
<path d="M634.9,375.9h168V294.1h-168v81.8Z" class="g1_370"/>
<path d="M652.5,578.4c0,0,-10.4,0,-10.4,10.4V649c0,0,0,10.4,10.4,10.4h136c0,0,10.4,0,10.4,-10.4V588.8c0,0,0,-10.4,-10.4,-10.4Z" class="g1_370"/>
<path d="M652.5,578.4c0,0,-10.4,0,-10.4,10.4V649c0,0,0,10.4,10.4,10.4h136c0,0,10.4,0,10.4,-10.4V588.8c0,0,0,-10.4,-10.4,-10.4h-136Z" class="g4_370"/>
<path d="M683.8,656.7c0,0,-4.5,16.9,-22.9,17.6c0,0,7.6,-8.6,6.6,-17.6" class="g5_370"/>
<path d="M653.5,648.6H791.9V586.4H653.5v62.2Z" class="g1_370"/>
<path d="M652.5,799.8c0,0,-10.4,0,-10.4,10.4v43c0,0,0,10.4,10.4,10.4H798c0,0,10.4,0,10.4,-10.4v-43c0,0,0,-10.4,-10.4,-10.4Z" class="g1_370"/>
<path d="M652.5,799.8c0,0,-10.4,0,-10.4,10.4v43c0,0,0,10.4,10.4,10.4H798c0,0,10.4,0,10.4,-10.4v-43c0,0,0,-10.4,-10.4,-10.4H652.5Z" class="g4_370"/>
<path d="M683.8,860.8c0,0,-4.5,17,-22.9,17.7c0,0,7.6,-8.7,6.6,-17.7" class="g5_370"/>
<path d="M649,854.6H804.9V808.7H649v45.9Z" class="g1_370"/>
<path d="M638.2,1002.8c0,0,-10.4,0,-10.4,10.4v86.2c0,0,0,10.4,10.4,10.4H811c0,0,10.4,0,10.4,-10.4v-86.2c0,0,0,-10.4,-10.4,-10.4Z" class="g1_370"/>
<path d="M638.2,1002.8c0,0,-10.4,0,-10.4,10.4v86.2c0,0,0,10.4,10.4,10.4H811c0,0,10.4,0,10.4,-10.4v-86.2c0,0,0,-10.4,-10.4,-10.4H638.2Z" class="g4_370"/>
<path d="M669.4,1007.7c0,0,-4.5,-16.9,-22.9,-17.6c0,0,7.7,8.6,6.6,17.6" class="g5_370"/>
<path d="M636.8,1097.5H814.2v-81.1H636.8v81.1Z" class="g1_370"/>
<path d="M199,1002.8c0,0,-10.4,0,-10.4,10.4v42.9c0,0,0,10.4,10.4,10.4H377.9c0,0,10.4,0,10.4,-10.4v-42.9c0,0,0,-10.4,-10.4,-10.4Z" class="g1_370"/>
<path d="M199,1002.8c0,0,-10.4,0,-10.4,10.4v42.9c0,0,0,10.4,10.4,10.4H377.9c0,0,10.4,0,10.4,-10.4v-42.9c0,0,0,-10.4,-10.4,-10.4H199Z" class="g4_370"/>
<path d="M309.9,1007.7c0,0,4.5,-16.9,22.9,-17.6c0,0,-7.7,8.6,-6.6,17.6" class="g5_370"/>
<path d="M202.7,1059.7H370.2v-45.8H202.7v45.8Z" class="g1_370"/>
<path d="M427,1002.8c0,0,-10.3,0,-10.3,9.2v72.6c0,0,0,9.2,10.3,9.2H572.6c0,0,10.3,0,10.3,-9.2V1012c0,0,0,-9.2,-10.3,-9.2Z" class="g1_370"/>
<path d="M427,1002.8c0,0,-10.3,0,-10.3,9.2v72.6c0,0,0,9.2,10.3,9.2H572.6c0,0,10.3,0,10.3,-9.2V1012c0,0,0,-9.2,-10.3,-9.2H427Z" class="g4_370"/>
<path d="M529.3,1007.7c0,0,4.5,-16.9,22.8,-17.6c0,0,-7.6,8.6,-6.5,17.6" class="g5_370"/>
<path d="M425.7,1084.2H575.2v-70.3H425.7v70.3Z" class="g1_370"/>
<path d="M173,640.3c0,0,-10.4,0,-10.4,10.4v87.4c0,0,0,10.4,10.4,10.4H318.5c0,0,10.4,0,10.4,-10.4V650.7c0,0,0,-10.4,-10.4,-10.4Z" class="g1_370"/>
<path d="M173,640.3c0,0,-10.4,0,-10.4,10.4v87.4c0,0,0,10.4,10.4,10.4H318.5c0,0,10.4,0,10.4,-10.4V650.7c0,0,0,-10.4,-10.4,-10.4H173Z" class="g4_370"/>
<path d="M286.6,742.7c0,0,4.5,17,22.9,17.7c0,0,-7.6,-8.6,-6.6,-17.7" class="g5_370"/>
<path d="M172.4,742.6H323.5V646.2H172.4v96.4Z" class="g1_370"/>
<path d="M168.6,829c0,0,-10.4,0,-10.4,10.3v64.6c0,0,0,10.4,10.4,10.4H324.2c0,0,10.4,0,10.4,-10.4V839.3c0,0,0,-10.3,-10.4,-10.3Z" class="g1_370"/>
<path d="M168.6,829c0,0,-10.4,0,-10.4,10.3v64.6c0,0,0,10.4,10.4,10.4H324.2c0,0,10.4,0,10.4,-10.4V839.3c0,0,0,-10.3,-10.4,-10.3H168.6Z" class="g4_370"/>
<path d="M292.3,911.6c0,0,4.5,16.9,22.9,17.6c0,0,-7.6,-8.6,-6.6,-17.6" class="g5_370"/>
<path d="M166.5,907.4H331V833.8H166.5v73.6Z" class="g1_370"/>
<path d="M32.1,45.1H9.2m958.3,0h22.9M32.1,1331.3H9.2m958.3,0h22.9M45.1,32.1V9.2m0,1335.1v22.9M954.5,32.1V9.2m0,1335.1v22.9" class="g6_370"/>
<path d="M32.1,45.1H9.2m958.3,0h22.9M32.1,1331.3H9.2m958.3,0h22.9M45.1,32.1V9.2m0,1335.1v22.9M954.5,32.1V9.2m0,1335.1v22.9" class="g7_370"/>
<path d="M27.5,32.1H0m972.1,0h27.5M27.5,1344.3H0m972.1,0h27.5M32.1,27.5V0m0,1348.9v27.5M967.5,27.5V0m0,1348.9v27.5" class="g6_370"/>
<path d="M27.5,32.1H0m972.1,0h27.5M27.5,1344.3H0m972.1,0h27.5M32.1,27.5V0m0,1348.9v27.5M967.5,27.5V0m0,1348.9v27.5" class="g7_370"/>
</svg>