<?xml version="1.0" encoding="UTF-8" standalone="no"?>
<!DOCTYPE svg PUBLIC "-//W3C//DTD SVG 1.1//EN"
"http://www.w3.org/Graphics/SVG/1.1/DTD/svg11.dtd">
<svg viewBox="0 0 999 1376" version="1.1" xmlns="http://www.w3.org/2000/svg" xmlns:xlink="http://www.w3.org/1999/xlink">
<defs>
<clipPath id="c0_242"><path d="M592.8,1015.8V945.5h74.8v70.3Z"/></clipPath>
<clipPath id="c1_242"><path d="M462.2,1014.3V950.1h75.6v64.2Z"/></clipPath>
<clipPath id="c2_242"><path d="M333.1,1016.6V943.2h74.8v73.4Z"/></clipPath>
<clipPath id="c3_242"><path d="M722.7,1016.2V944.4h74.6v71.8Z"/></clipPath>
<clipPath id="c4_242"><path d="M204.6,1016.7V942.1h74.5v74.6Z"/></clipPath>
<clipPath id="c5_242"><path d="M177,234.5l-6.5,-2.1L154.1,218.5V161.4h72v73.1Z"/></clipPath>
<clipPath id="c6_242"><path d="M177.5,879.8L171,877.7l-16.4,-14V806.6h72v73.2Z"/></clipPath>
<style type="text/css"><![CDATA[
.g0_242{
fill: #FEFCF4;
}
.g1_242{
fill: #FFF;
}
.g2_242{
fill: none;
stroke: #6381B7;
stroke-width: 0.763;
}
.g3_242{
fill: none;
stroke: #949698;
stroke-width: 0.381;
}
.g4_242{
fill: #93BEDA;
}
.g5_242{
fill: #F0E8F3;
}
.g6_242{
fill: #6381B7;
}
.g7_242{
fill: none;
stroke: #6381B7;
stroke-width: 0.381;
stroke-dasharray: 2,1;
}
.g8_242{
fill: none;
stroke: #6381B7;
stroke-width: 0.381;
}
.g9_242{
fill: #FCE8B0;
}
.ga_242{
fill: #25408F;
}
.gb_242{
fill: #00BAF1;
}
.gc_242{
fill: #332D2C;
}
.gd_242{
fill: #D9DFF0;
}
.ge_242{
fill: #F27C85;
}
.gf_242{
fill: #7DD3F6;
}
.gg_242{
fill: none;
stroke: #FFF;
stroke-width: 1.909;
stroke-miterlimit: 10;
}
.gh_242{
fill: none;
stroke: #000;
stroke-width: 0.381;
stroke-miterlimit: 10;
}
]]></style>
</defs>
<path d="M32.1,1344.3H954.5V32.1H32.1V1344.3Z" class="g0_242"/>
<path d="M150.9,132.8c0,0,-18.3,0,-18.3,18.3v631c0,0,0,18.3,18.3,18.3H828c0,0,18.4,0,18.4,-18.3V132.8Z" class="g1_242"/>
<path d="M150.9,132.8c0,0,-18.3,0,-18.3,18.3v631c0,0,0,18.3,18.3,18.3H828c0,0,18.4,0,18.4,-18.3V132.8H150.9Z" class="g2_242"/>
<path d="M190.3,358.1H310.8V258.9H190.3v99.2Z" class="g1_242"/>
<image preserveAspectRatio="none" x="201" y="259" width="99" height="99" xlink:href="img/1.jpg"/>
<path d="M190.3,358.1H310.8V258.9H190.3v99.2Z" class="g3_242"/>
<path d="M517.6,358.1H638V258.9H517.6v99.2Z" class="g1_242"/>
<image preserveAspectRatio="none" x="528" y="259" width="99" height="99" xlink:href="img/2.png"/>
<path d="M517.6,358.1H638V258.9H517.6v99.2Z" class="g3_242"/>
<path d="M353.9,358.1H474.4V258.9H353.9v99.2Z" class="g1_242"/>
<image preserveAspectRatio="none" x="365" y="259" width="99" height="99" xlink:href="img/3.jpg"/>
<path d="M353.9,358.1H474.4V258.9H353.9v99.2Z" class="g3_242"/>
<path d="M681.2,358.1H801.7V258.9H681.2v99.2Z" class="g1_242"/>
<image preserveAspectRatio="none" x="692" y="259" width="99" height="99" xlink:href="img/4.jpg"/>
<path d="M681.2,358.1H801.7V258.9H681.2v99.2Z" class="g3_242"/>
<path d="M190.3,531.8H310.8V432.5H190.3v99.3Z" class="g1_242"/>
<image preserveAspectRatio="none" x="201" y="433" width="99" height="99" xlink:href="img/5.jpg"/>
<path d="M190.3,531.8H310.8V432.5H190.3v99.3Z" class="g3_242"/>
<path d="M517.6,531.8H638V432.5H517.6v99.3Z" class="g1_242"/>
<image preserveAspectRatio="none" x="528" y="433" width="99" height="99" xlink:href="img/6.jpg"/>
<path d="M517.6,531.8H638V432.5H517.6v99.3Z" class="g3_242"/>
<path d="M353.9,531.8H474.4V432.5H353.9v99.3Z" class="g1_242"/>
<image preserveAspectRatio="none" x="365" y="433" width="99" height="99" xlink:href="img/7.jpg"/>
<path d="M353.9,531.8H474.4V432.5H353.9v99.3Z" class="g3_242"/>
<path d="M681.2,531.8H801.7V432.5H681.2v99.3Z" class="g1_242"/>
<image preserveAspectRatio="none" x="692" y="433" width="99" height="99" xlink:href="img/8.jpg"/>
<path d="M681.2,531.8H801.7V432.5H681.2v99.3Z" class="g3_242"/>
<path d="M190.3,707.5H310.8V608.3H190.3v99.2Z" class="g1_242"/>
<image preserveAspectRatio="none" x="201" y="608" width="99" height="99" xlink:href="img/9.jpg"/>
<path d="M190.3,707.5H310.8V608.3H190.3v99.2Z" class="g3_242"/>
<path d="M353.9,707.5H474.4V608.3H353.9v99.2Z" class="g1_242"/>
<image preserveAspectRatio="none" x="365" y="608" width="99" height="99" xlink:href="img/10.jpg"/>
<path d="M353.9,707.5H474.4V608.3H353.9v99.2Z" class="g3_242"/>
<path d="M517.6,707.5H638V608.3H517.6v99.2Z" class="g1_242"/>
<image preserveAspectRatio="none" x="528" y="608" width="99" height="99" xlink:href="img/11.jpg"/>
<path d="M517.6,707.5H638V608.3H517.6v99.2Z" class="g3_242"/>
<path d="M681.2,707.5H801.7V608.3H681.2v99.2Z" class="g1_242"/>
<image preserveAspectRatio="none" x="692" y="608" width="99" height="99" xlink:href="img/12.jpg"/>
<path d="M681.2,707.5H801.7V608.3H681.2v99.2Z" class="g3_242"/>
<path d="M144.6,894.4c0,0,-13,0,-13,13v276.9c0,0,0,13,13,13H832.9c0,0,13,0,13,-13V907.4c0,0,0,-13,-13,-13Z" class="g1_242"/>
<path d="M144.6,894.4c0,0,-13,0,-13,13v276.9c0,0,0,13,13,13H832.9c0,0,13,0,13,-13V907.4c0,0,0,-13,-13,-13H144.6Z" class="g2_242"/>
<image clip-path="url(#c0_242)" preserveAspectRatio="none" x="593" y="941" width="74" height="75" xlink:href="img/13.jpg"/>
<image clip-path="url(#c1_242)" preserveAspectRatio="none" x="463" y="943" width="74" height="74" xlink:href="img/14.jpg"/>
<image clip-path="url(#c2_242)" preserveAspectRatio="none" x="333" y="943" width="75" height="75" xlink:href="img/15.jpg"/>
<image clip-path="url(#c3_242)" preserveAspectRatio="none" x="722" y="941" width="76" height="75" xlink:href="img/16.jpg"/>
<image clip-path="url(#c4_242)" preserveAspectRatio="none" x="205" y="942" width="74" height="75" xlink:href="img/17.jpg"/>
<path d="M626.3,1139.2c2,0,3.7,-1.6,3.7,-3.6c0,-2,-1.7,-3.6,-3.7,-3.6c-1.9,0,-3.6,1.6,-3.6,3.6c0,2,1.7,3.6,3.6,3.6Z" class="g4_242"/>
<path d="M495.6,1139.2c2,0,3.6,-1.6,3.6,-3.6c0,-2,-1.6,-3.6,-3.6,-3.6c-2,0,-3.6,1.6,-3.6,3.6c0,2,1.6,3.6,3.6,3.6Z" class="g4_242"/>
<path d="M364.9,1139.2c2,0,3.6,-1.6,3.6,-3.6c0,-2,-1.6,-3.6,-3.6,-3.6c-2,0,-3.6,1.6,-3.6,3.6c0,2,1.6,3.6,3.6,3.6Z" class="g4_242"/>
<path d="M757.1,1139.2c2,0,3.6,-1.6,3.6,-3.6c0,-2,-1.6,-3.6,-3.6,-3.6c-2,0,-3.6,1.6,-3.6,3.6c0,2,1.6,3.6,3.6,3.6Z" class="g4_242"/>
<path d="M234.1,1139.2c2,0,3.7,-1.6,3.7,-3.6c0,-2,-1.7,-3.6,-3.7,-3.6c-1.9,0,-3.6,1.6,-3.6,3.6c0,2,1.7,3.6,3.6,3.6Z" class="g4_242"/>
<path d="M192.5,1150.3c0,0,-8.7,0,-8.7,8.6v15.2c0,0,0,8.7,8.7,8.7h82.2c0,0,8.7,0,8.7,-8.7v-15.2c0,0,0,-8.6,-8.7,-8.6Z" class="g5_242"/>
<path d="M322.7,1150.3c0,0,-8.6,0,-8.6,8.6v15.2c0,0,0,8.7,8.6,8.7H405c0,0,8.7,0,8.7,-8.7v-15.2c0,0,0,-8.6,-8.7,-8.6Z" class="g5_242"/>
<path d="M453,1150.3c0,0,-8.6,0,-8.6,8.6v15.2c0,0,0,8.7,8.6,8.7h82.3c0,0,8.7,0,8.7,-8.7v-15.2c0,0,0,-8.6,-8.7,-8.6Z" class="g5_242"/>
<path d="M583.3,1150.3c0,0,-8.6,0,-8.6,8.6v15.2c0,0,0,8.7,8.6,8.7h82.3c0,0,8.7,0,8.7,-8.7v-15.2c0,0,0,-8.6,-8.7,-8.6Z" class="g5_242"/>
<path d="M713.6,1150.3c0,0,-8.7,0,-8.7,8.6v15.2c0,0,0,8.7,8.7,8.7h82.3c0,0,8.6,0,8.6,-8.7v-15.2c0,0,0,-8.6,-8.6,-8.6Z" class="g5_242"/>
<path d="M626.3,1022.4c2,0,3.7,-1.6,3.7,-3.6c0,-2,-1.7,-3.6,-3.7,-3.6c-1.9,0,-3.6,1.6,-3.6,3.6c0,2,1.7,3.6,3.6,3.6Z" class="g4_242"/>
<path d="M495.6,1022.4c2,0,3.6,-1.6,3.6,-3.6c0,-2,-1.6,-3.6,-3.6,-3.6c-2,0,-3.6,1.6,-3.6,3.6c0,2,1.6,3.6,3.6,3.6Z" class="g4_242"/>
<path d="M364.9,1022.4c2,0,3.6,-1.6,3.6,-3.6c0,-2,-1.6,-3.6,-3.6,-3.6c-2,0,-3.6,1.6,-3.6,3.6c0,2,1.6,3.6,3.6,3.6Z" class="g4_242"/>
<path d="M757.1,1022.4c2,0,3.6,-1.6,3.6,-3.6c0,-2,-1.6,-3.6,-3.6,-3.6c-2,0,-3.6,1.6,-3.6,3.6c0,2,1.6,3.6,3.6,3.6Z" class="g4_242"/>
<path d="M234.1,1022.4c2,0,3.7,-1.6,3.7,-3.6c0,-2,-1.7,-3.6,-3.7,-3.6c-1.9,0,-3.6,1.6,-3.6,3.6c0,2,1.7,3.6,3.6,3.6Z" class="g4_242"/>
<path d="M599.7,1216.2c0,0,-4.3,0,-4.3,4.3v10.8c0,0,0,4.3,4.3,4.3h30.4c0,0,4.3,0,4.3,-4.3v-10.8c0,0,0,-4.3,-4.3,-4.3Z" class="g6_242"/>
<path d="M586.6,1208.7v34.8m1.3,1H844.3m1,-1.4v-34.8m-1.3,-1H587.5" class="g7_242"/>
<path d="M586.6,1243.9v.6h.5m257.6,0h.6v-.6m0,-36v-.6h-.6m-257.6,0h-.5v.6" class="g8_242"/>
<path d="M209.6,189.6c0,0,-12.9,0,-12.9,12.9v21.7c0,0,0,13,12.9,13h602c0,0,13,0,13,-13V202.5c0,0,0,-12.9,-13,-12.9Z" class="g9_242"/>
<image clip-path="url(#c5_242)" preserveAspectRatio="none" x="153" y="160" width="75" height="76" xlink:href="img/18.png"/>
<path d="M204.4,229.8c0,0,-26.8,11.3,-51.1,-12.7c0,0,15.2,25.3,49.3,23.9c0,0,24.8,.4,20.3,-10.1c0,0,1.2,-4.4,-18.5,-1.1Z" class="g9_242"/>
<path d="M210.1,834.8c0,0,-13,0,-13,13v21.6c0,0,0,13,13,13H833.8c0,0,13,0,13,-13V847.8c0,0,0,-13,-13,-13Z" class="g9_242"/>
<image clip-path="url(#c6_242)" preserveAspectRatio="none" x="153" y="805" width="75" height="76" xlink:href="img/19.png"/>
<path d="M204.9,875.1c0,0,-26.8,11.3,-51.1,-12.8c0,0,15.2,25.3,49.3,24c0,0,24.8,.3,20.3,-10.1c0,0,1.2,-4.5,-18.5,-1.1Z" class="g9_242"/>
<path d="M131.7,126.7v22.2l11.7,10.3V137Z" class="ga_242"/>
<path d="M131.7,109.9v39H829.4c0,0,16.9,0,16.9,-16.8v-5.4c0,0,0,-16.8,-16.9,-16.8Z" class="g6_242"/>
<path d="M189.6,121.3l-6.4,-6.5L162,136l6.4,6.5Z" class="gb_242"/>
<path d="M168.4,143c.2,0,.3,0,.4,-.1L190,121.7c.1,-.1,.2,-.3,.2,-.4c0,-.1,-.1,-.3,-.2,-.4l-6.5,-6.4c-.2,-.2,-.5,-.2,-.7,0l-21.2,21.2c-.1,.1,-.2,.2,-.2,.3c0,.2,.1,.3,.2,.4l6.5,6.5c.1,.1,.2,.1,.3,.1m20.5,-21.7l-20.5,20.5L162.7,136l20.5,-20.4Z" class="gc_242"/>
<path d="M189.6,121.3l-6.4,-6.5l2.1,-2.1l6.5,6.5Z" class="gd_242"/>
<path d="M189.6,121.8c.2,0,.3,0,.4,-.1l2.1,-2.1c.1,-.1,.2,-.3,.2,-.4c0,-.2,-.1,-.3,-.2,-.4l-6.4,-6.5c-.2,-.2,-.6,-.2,-.8,0l-2.1,2.2c-.1,0,-.2,.2,-.2,.3c0,.2,.1,.3,.2,.4l6.5,6.5c.1,.1,.2,.1,.3,.1m1.4,-2.6l-1.4,1.4l-5.7,-5.8l1.4,-1.4Z" class="gc_242"/>
<path d="M195.4,115.6l-6.5,-6.5l-3.6,3.6l6.5,6.5Z" class="ge_242"/>
<path d="M191.8,119.7c.1,0,.2,0,.3,-.1l3.7,-3.7c.2,-.2,.2,-.5,0,-.7l-6.5,-6.5c-.2,-.2,-.6,-.2,-.8,0l-3.6,3.6c-.2,.2,-.2,.6,0,.8l6.5,6.5c.1,.1,.2,.1,.4,.1m2.8,-4.1l-2.8,2.8L186,112.7l2.9,-2.9Z" class="gc_242"/>
<path d="M157.3,147.2L162,136l6.4,6.5Z" class="g1_242"/>
<path d="M157.3,147.7c.1,0,.2,0,.2,-.1L168.6,143c.2,-.1,.3,-.2,.4,-.4c0,-.2,-.1,-.3,-.2,-.5l-6.5,-6.4c-.1,-.2,-.3,-.2,-.5,-.2c-.1,.1,-.3,.2,-.3,.3l-4.7,11.1c0,.2,0,.5,.1,.6c.1,.1,.3,.2,.4,.2m10.2,-5.4l-9.2,3.9l3.8,-9.2Z" class="gc_242"/>
<path d="M157.3,147.2l2.3,-5.4l3.1,3.1Z" class="gc_242"/>
<path d="M157.3,147.7c.1,0,.2,0,.2,-.1l5.4,-2.2c.1,-.1,.3,-.2,.3,-.4c0,-.2,0,-.3,-.1,-.5l-3.2,-3.1c-.1,-.1,-.3,-.2,-.4,-.1c-.2,0,-.4,.1,-.4,.3l-2.3,5.3c0,.2,0,.5,.1,.6c.1,.1,.3,.2,.4,.2m4.5,-3l-3.5,1.5l1.4,-3.5Z" class="gc_242"/>
<path d="M187.9,119.5l-3,-2.9l-21.2,21.2l3,3Z" class="gf_242"/>
<path d="M166.7,141.3c.1,0,.2,-.1,.3,-.2l21.3,-21.2c.1,-.1,.1,-.2,.1,-.4c0,-.1,0,-.2,-.1,-.3l-3,-3c-.2,-.2,-.5,-.2,-.8,0l-21.2,21.2c-.1,.1,-.1,.3,-.1,.4c0,.1,0,.3,.1,.4l3,2.9c.1,.1,.2,.2,.4,.2m20.4,-21.8L166.7,140l-2.2,-2.2l20.4,-20.5Z" class="gc_242"/>
<path d="M32.1,45.1H9.2m958.3,0h22.9M32.1,1331.3H9.2m958.3,0h22.9M45.1,32.1V9.2m0,1335.1v22.9M954.5,32.1V9.2m0,1335.1v22.9" class="gg_242"/>
<path d="M32.1,45.1H9.2m958.3,0h22.9M32.1,1331.3H9.2m958.3,0h22.9M45.1,32.1V9.2m0,1335.1v22.9M954.5,32.1V9.2m0,1335.1v22.9" class="gh_242"/>
<path d="M27.5,32.1H0m972.1,0h27.5M27.5,1344.3H0m972.1,0h27.5M32.1,27.5V0m0,1348.9v27.5M967.5,27.5V0m0,1348.9v27.5" class="gg_242"/>
<path d="M27.5,32.1H0m972.1,0h27.5M27.5,1344.3H0m972.1,0h27.5M32.1,27.5V0m0,1348.9v27.5M967.5,27.5V0m0,1348.9v27.5" class="gh_242"/>
</svg>