<?xml version="1.0" encoding="UTF-8" standalone="no"?>
<!DOCTYPE svg PUBLIC "-//W3C//DTD SVG 1.1//EN"
"http://www.w3.org/Graphics/SVG/1.1/DTD/svg11.dtd">
<svg viewBox="0 0 999 1376" version="1.1" xmlns="http://www.w3.org/2000/svg" xmlns:xlink="http://www.w3.org/1999/xlink">
<defs>
<clipPath id="c0_232"><path d="M211.2,589.9V487.1H314V589.9Z"/></clipPath>
<clipPath id="c1_232"><path d="M210.7,754.5V651.7H313.5V754.5Z"/></clipPath>
<clipPath id="c2_232"><path d="M210.7,919.2V816.4H313.5V919.2Z"/></clipPath>
<clipPath id="c3_232"><path d="M211.2,1084.4V981.6H314v102.8Z"/></clipPath>
<clipPath id="c4_232"><path d="M348.5,591.2V488.5H451.3V591.2Z"/></clipPath>
<clipPath id="c5_232"><path d="M349,755.8V653H451.8V755.8Z"/></clipPath>
<clipPath id="c6_232"><path d="M350,920.5V817.8H452.7V920.5Z"/></clipPath>
<clipPath id="c7_232"><path d="M349.5,1085.7V982.9H452.2v102.8Z"/></clipPath>
<clipPath id="c8_232"><path d="M708.5,635.1V551.7h85.2v83.4Z"/></clipPath>
<clipPath id="c9_232"><path d="M708.5,806.4V723.1h85.2v83.3Z"/></clipPath>
<clipPath id="ca_232"><path d="M712.6,986.7V903.3h85.2v83.4Z"/></clipPath>
<clipPath id="cb_232"><path d="M712.6,1118.4v-72h85.2v72Z"/></clipPath>
<clipPath id="cc_232"><path d="M231.3,439.2V285.4l554.3,6.5l9.7,147.3Z"/></clipPath>
<style type="text/css"><![CDATA[
.g0_232{
fill: none;
stroke: #6381B7;
stroke-width: 0.763;
}
.g1_232{
fill: #48484A;
}
.g2_232{
fill: #F0E8F3;
}
.g3_232{
fill: #FFF;
}
.g4_232{
fill: none;
stroke: #949698;
stroke-width: 0.681;
}
.g5_232{
fill: #6381B7;
}
.g6_232{
fill: none;
stroke: #6381B7;
stroke-width: 0.381;
stroke-dasharray: 2,1;
}
.g7_232{
fill: none;
stroke: #6381B7;
stroke-width: 0.381;
}
.g8_232{
fill: #766FA6;
}
.g9_232{
fill: #25408F;
}
.ga_232{
fill: #F37553;
}
.gb_232{
fill: #363637;
}
.gc_232{
fill: #EAD646;
}
.gd_232{
fill: #506CB4;
}
.ge_232{
fill: #5CC4BE;
}
.gf_232{
fill: none;
stroke: #FFF;
stroke-width: 1.909;
stroke-miterlimit: 10;
}
.gg_232{
fill: none;
stroke: #000;
stroke-width: 0.381;
stroke-miterlimit: 10;
}
]]></style>
</defs>
<path d="M144.6,167c0,0,-13,0,-13,13v943c0,0,0,13,13,13H832.4c0,0,13,0,13,-13V180c0,0,0,-13,-13,-13H144.6Z" class="g0_232"/>
<path d="M170.2,279.5c0,0,-4.3,0,-4.3,4.3v14.4c0,0,0,4.3,4.1,5.8l52.4,18.2c0,0,4.1,1.4,4.1,-2.9V283.8c0,0,0,-4.3,-4.3,-4.3Z" class="g1_232"/>
<path d="M191.4,266.7c0,0,-13,0,-13,13V447.8c0,0,0,13,13,13H798.6c0,0,13,0,13,-13V279.7c0,0,0,-13,-13,-13Z" class="g2_232"/>
<path d="M211.2,589.9H334.6V487.1H211.2V589.9Z" class="g3_232"/>
<image clip-path="url(#c0_232)" preserveAspectRatio="none" x="211" y="487" width="103" height="103" xlink:href="img/1.jpg"/>
<path d="M210.7,754.5H334.1V651.7H210.7V754.5Z" class="g3_232"/>
<image clip-path="url(#c1_232)" preserveAspectRatio="none" x="211" y="652" width="103" height="102" xlink:href="img/2.jpg"/>
<path d="M210.7,919.2H334.1V816.4H210.7V919.2Z" class="g3_232"/>
<image clip-path="url(#c2_232)" preserveAspectRatio="none" x="211" y="816" width="103" height="103" xlink:href="img/3.jpg"/>
<path d="M211.2,1084.4H334.6V981.6H211.2v102.8Z" class="g3_232"/>
<image clip-path="url(#c3_232)" preserveAspectRatio="none" x="211" y="982" width="103" height="102" xlink:href="img/4.jpg"/>
<path d="M348.5,591.2H471.9V488.4H348.5V591.2Z" class="g3_232"/>
<image clip-path="url(#c4_232)" preserveAspectRatio="none" x="348" y="488" width="103" height="103" xlink:href="img/5.jpg"/>
<path d="M349,755.8H472.3V653H349V755.8Z" class="g3_232"/>
<image clip-path="url(#c5_232)" preserveAspectRatio="none" x="349" y="653" width="103" height="103" xlink:href="img/6.jpg"/>
<path d="M350,920.5H473.3V817.8H350V920.5Z" class="g3_232"/>
<image clip-path="url(#c6_232)" preserveAspectRatio="none" x="350" y="818" width="103" height="103" xlink:href="img/7.jpg"/>
<path d="M349.5,1085.7H472.8V982.9H349.5v102.8Z" class="g3_232"/>
<image clip-path="url(#c7_232)" preserveAspectRatio="none" x="349" y="983" width="103" height="103" xlink:href="img/8.jpg"/>
<image clip-path="url(#c8_232)" preserveAspectRatio="none" x="708" y="551" width="86" height="85" xlink:href="img/9.jpg"/>
<image clip-path="url(#c9_232)" preserveAspectRatio="none" x="708" y="722" width="86" height="85" xlink:href="img/10.jpg"/>
<image clip-path="url(#ca_232)" preserveAspectRatio="none" x="712" y="903" width="86" height="84" xlink:href="img/11.jpg"/>
<image clip-path="url(#cb_232)" preserveAspectRatio="none" x="712" y="1046" width="86" height="84" xlink:href="img/12.jpg"/>
<path d="M513.5,521.7c0,-25.9,50.1,-46.9,111.8,-46.9c61.8,0,111.8,21,111.8,46.9c0,16.6,-20.4,31.1,-51.3,39.4c5.6,4.6,14.3,11.2,20.7,13.5c0,0,-25.9,-2,-41,-9.1c-12.4,2,-26,3.1,-40.2,3.1c-61.7,0,-111.8,-21,-111.8,-46.9Z" class="g3_232"/>
<path d="M513.5,521.7c0,-25.9,50.1,-46.9,111.8,-46.9c61.8,0,111.8,21,111.8,46.9c0,16.6,-20.4,31.1,-51.3,39.4c5.6,4.6,14.3,11.2,20.7,13.5c0,0,-25.9,-2,-41,-9.1c-12.4,2,-26,3.1,-40.2,3.1c-61.7,0,-111.8,-21,-111.8,-46.9Z" class="g4_232"/>
<path d="M513.5,692.1c0,-25.9,50.1,-46.9,111.8,-46.9c61.8,0,111.8,21,111.8,46.9c0,16.5,-20.4,31.1,-51.3,39.4c5.6,4.6,14.3,11.2,20.7,13.5c0,0,-25.9,-2,-41,-9.1c-12.4,2,-26,3.1,-40.2,3.1C563.6,739,513.5,718,513.5,692.1Z" class="g3_232"/>
<path d="M513.5,692.1c0,-25.9,50.1,-46.9,111.8,-46.9c61.8,0,111.8,21,111.8,46.9c0,16.5,-20.4,31.1,-51.3,39.4c5.6,4.6,14.3,11.2,20.7,13.5c0,0,-25.9,-2,-41,-9.1c-12.4,2,-26,3.1,-40.2,3.1C563.6,739,513.5,718,513.5,692.1Z" class="g4_232"/>
<path d="M517.7,872.3c0,-25.9,50,-46.9,111.8,-46.9c61.7,0,111.8,21,111.8,46.9c0,16.6,-20.5,31.1,-51.3,39.5c5.5,4.5,14.2,11.2,20.7,13.4c0,0,-26,-2,-41,-9.1c-12.5,2,-26.1,3.1,-40.2,3.1c-61.8,0,-111.8,-21,-111.8,-46.9Z" class="g3_232"/>
<path d="M517.7,872.3c0,-25.9,50,-46.9,111.8,-46.9c61.7,0,111.8,21,111.8,46.9c0,16.6,-20.5,31.1,-51.3,39.5c5.5,4.5,14.2,11.2,20.7,13.4c0,0,-26,-2,-41,-9.1c-12.5,2,-26.1,3.1,-40.2,3.1c-61.8,0,-111.8,-21,-111.8,-46.9Z" class="g4_232"/>
<path d="M517.7,1015.4c0,-25.9,50,-46.9,111.8,-46.9c61.7,0,111.8,21,111.8,46.9c0,16.5,-20.5,31.1,-51.3,39.4c5.5,4.6,14.2,11.2,20.7,13.5c0,0,-26,-2,-41,-9.1c-12.5,2,-26.1,3.1,-40.2,3.1c-61.8,0,-111.8,-21,-111.8,-46.9Z" class="g3_232"/>
<path d="M517.7,1015.4c0,-25.9,50,-46.9,111.8,-46.9c61.7,0,111.8,21,111.8,46.9c0,16.5,-20.5,31.1,-51.3,39.4c5.5,4.6,14.2,11.2,20.7,13.5c0,0,-26,-2,-41,-9.1c-12.5,2,-26.1,3.1,-40.2,3.1c-61.8,0,-111.8,-21,-111.8,-46.9Z" class="g4_232"/>
<image clip-path="url(#cc_232)" preserveAspectRatio="none" x="230" y="284" width="567" height="157" xlink:href="img/13.jpg"/>
<path d="M483.3,365.5H704.2V313.6H483.3v51.9Z" class="g3_232"/>
<path d="M447.1,1153.4c0,0,-4.3,0,-4.3,4.3v10.8c0,0,0,4.4,4.3,4.4h30.3c0,0,4.4,0,4.4,-4.4v-10.8c0,0,0,-4.3,-4.4,-4.3Z" class="g5_232"/>
<path d="M433.9,1145.9v97.6m1.4,1H845.1m1,-1.4v-97.6m-1.4,-1H434.9" class="g6_232"/>
<path d="M433.9,1243.9v.6h.6m411,0h.6v-.6m0,-98.8v-.6h-.6m-411,0h-.6v.6" class="g7_232"/>
<path d="M731.9,339.6c0,-33,-63.2,-59.8,-141.2,-59.8c-77.9,0,-141.1,26.8,-141.1,59.8c0,33,63.2,59.7,141.1,59.7c26.2,0,50.7,-3,71.7,-8.2c5.3,4.3,16.9,9.7,41.8,7.9c0,0,-14.8,-4.8,-19.9,-14.7c29.2,-11,47.6,-26.9,47.6,-44.7Z" class="g3_232"/>
<path d="M170.2,277.4c0,0,-4.3,0,-4.3,4.3v16.9c0,0,0,4.3,4.3,4.3h34.2c0,0,4.4,0,4.4,-4.3V281.7c0,0,0,-4.3,-4.4,-4.3Z" class="g8_232"/>
<path d="M132.2,126.3v22.2l11.7,10.2V136.5Z" class="g9_232"/>
<path d="M132.2,109.5v39H829.9c0,0,16.9,0,16.9,-16.8v-5.4c0,0,0,-16.8,-16.9,-16.8Z" class="g5_232"/>
<path d="M166,111.6c.7,-.6,1.7,-.8,2.5,-.6l1.3,-1.3l-6.2,-6.1l-6.1,6.1l-1.3,-1.3c.2,-.8,0,-1.8,-.6,-2.4c-1,-1,-2.6,-1,-3.6,0c-1,1,-1,2.6,0,3.6c.6,.6,1.6,.9,2.4,.6l1.3,1.3l-6.1,6.1l6.1,6.2l-1.3,1.3c-.8,-.3,-1.8,-.1,-2.4,.6c-1,1,-1,2.6,0,3.6c1,1,2.6,1,3.6,0c.6,-.7,.9,-1.6,.6,-2.4l1.3,-1.3l6.1,6.1l6.2,-6.1l-1.3,-1.3c-.9,.2,-1.8,0,-2.5,-.7c-1,-1,-1,-2.6,0,-3.6c1,-1,2.6,-1,3.6,0c.7,.7,.9,1.6,.7,2.5l1.3,1.3l6.1,-6.2l-6.1,-6.1l-1.3,1.3c.2,.8,0,1.8,-.7,2.4c-1,1,-2.6,1,-3.6,0c-1,-.9,-1,-2.6,0,-3.6Z" class="ga_232"/>
<path d="M163.6,132.3l-6.1,-6.2l-.8,.9c.1,.9,-.2,1.9,-.8,2.6c-1.2,1.1,-3.1,1.1,-4.2,0c-1.2,-1.2,-1.2,-3,0,-4.2c.7,-.7,1.6,-1,2.6,-.8l.8,-.8L149,117.6l6.1,-6.1l-.8,-.8c-1,.1,-1.9,-.2,-2.6,-.8c-.6,-.6,-.9,-1.3,-.9,-2.1c0,-.8,.3,-1.5,.9,-2.1c1.1,-1.1,3,-1.1,4.1,0c.7,.7,1,1.7,.9,2.6l.8,.8l6.1,-6.1l6.7,6.7l-1.7,1.7h-.2c-.7,-.2,-1.5,0,-2.1,.5c-.8,.9,-.8,2.2,0,3.1c.9,.8,2.2,.8,3.1,0c.5,-.6,.7,-1.4,.5,-2.1v-.2l1.7,-1.7l6.7,6.6l-6.7,6.7l-1.8,-1.7l.1,-.2c.2,-.8,0,-1.5,-.6,-2.1c-.4,-.4,-.9,-.6,-1.5,-.6c-.5,0,-1.1,.2,-1.5,.6c-.8,.8,-.8,2.2,0,3c.5,.6,1.3,.8,2.1,.6l.2,-.1l1.7,1.8ZM157.5,125l6.1,6.1l5.6,-5.5l-.8,-.9c-1,.2,-2,-.1,-2.7,-.8c-.5,-.5,-.8,-1.3,-.8,-2.1c0,-.7,.3,-1.5,.8,-2c.6,-.6,1.3,-.9,2.1,-.9c.8,0,1.6,.3,2.1,.9c.7,.6,1,1.6,.8,2.6l.9,.8l5.5,-5.6l-5.5,-5.5l-.9,.8c.2,1,-.1,1.9,-.8,2.6c-1.1,1.2,-3,1.2,-4.1,0c-1.2,-1.1,-1.2,-3,0,-4.1c.6,-.7,1.6,-1,2.6,-.8l.8,-.9l-5.6,-5.6l-6.1,6.2l-1.7,-1.7v-.3c.2,-.7,0,-1.5,-.5,-2c-.9,-.9,-2.2,-.9,-3.1,0c-.4,.4,-.6,.9,-.6,1.5c0,.6,.2,1.1,.6,1.5c.6,.5,1.4,.8,2.1,.6l.2,-.1l1.8,1.7l-6.2,6.1l6.2,6.2l-1.8,1.7l-.2,-.1c-.7,-.2,-1.5,.1,-2,.6c-.9,.8,-.9,2.2,0,3c.8,.9,2.2,.9,3,0c.5,-.5,.7,-1.3,.5,-2v-.3Z" class="gb_232"/>
<path d="M196.6,122.1c.9,0,1.8,.5,2.2,1.3h1.8v-8.7h-8.7v-1.8c.8,-.4,1.3,-1.2,1.3,-2.2c0,-1.4,-1.1,-2.5,-2.5,-2.5c-1.5,0,-2.6,1.1,-2.6,2.5c0,1,.5,1.8,1.3,2.2v1.8h-8.7v8.7h-1.8c-.4,-.8,-1.2,-1.3,-2.2,-1.3c-1.4,0,-2.5,1.2,-2.5,2.6c0,1.4,1.1,2.5,2.5,2.5c1,0,1.8,-.5,2.2,-1.2h1.8v8.6h8.7v-1.8c-.8,-.4,-1.3,-1.2,-1.3,-2.2c0,-1.4,1.2,-2.5,2.6,-2.5c1.4,0,2.5,1.1,2.5,2.5c0,1,-.5,1.8,-1.3,2.2v1.8h8.7V126h-1.8c-.4,.7,-1.2,1.2,-2.2,1.2c-1.4,0,-2.5,-1.1,-2.5,-2.5c0,-1.4,1.1,-2.6,2.5,-2.6Z" class="gc_232"/>
<path d="M201,135h-9.5v-2.4l.2,-.1c.7,-.4,1.1,-1.1,1.1,-1.9c0,-1.2,-1,-2.1,-2.1,-2.1c-1.2,0,-2.2,.9,-2.2,2.1c0,.8,.4,1.5,1.1,1.9l.2,.1V135h-9.5v-8.6h-1.2c-.5,.7,-1.4,1.2,-2.4,1.2c-1.6,0,-2.9,-1.3,-2.9,-2.9c0,-1.6,1.3,-3,2.9,-3c1,0,1.9,.5,2.4,1.3h1.2v-8.7H189v-1.1c-.8,-.6,-1.3,-1.5,-1.3,-2.5c0,-1.6,1.3,-2.9,3,-2.9c1.6,0,2.9,1.3,2.9,2.9c0,1,-.5,1.9,-1.3,2.5v1.1H201v9.5h-2.4l-.1,-.2c-.4,-.6,-1.1,-1.1,-1.9,-1.1c-.6,0,-1.1,.3,-1.5,.7c-.4,.4,-.6,.9,-.6,1.5c0,1.2,.9,2.1,2.1,2.1c.8,0,1.5,-.4,1.9,-1l.1,-.2H201Zm-8.7,-.8h7.9v-7.8H199c-.5,.7,-1.4,1.2,-2.4,1.2c-1.6,0,-2.9,-1.3,-2.9,-2.9c0,-.8,.3,-1.5,.8,-2.1c.6,-.5,1.3,-.9,2.1,-.9c1,0,1.9,.5,2.4,1.3h1.2v-7.9h-8.7v-2.4l.2,-.1c.7,-.4,1.1,-1.1,1.1,-1.9c0,-1.2,-1,-2.1,-2.1,-2.1c-1.2,0,-2.2,.9,-2.2,2.1c0,.8,.4,1.5,1.1,1.9l.2,.1v2.4h-8.7v8.7h-2.4l-.1,-.2c-.4,-.6,-1.1,-1.1,-1.9,-1.1c-1.2,0,-2.1,1,-2.1,2.2c0,1.2,.9,2.1,2.1,2.1c.8,0,1.5,-.4,1.9,-1l.1,-.2h2.4v8.6H189V133c-.8,-.5,-1.3,-1.4,-1.3,-2.4c0,-1.6,1.3,-2.9,3,-2.9c1.6,0,2.9,1.3,2.9,2.9c0,1,-.5,1.9,-1.3,2.4Z" class="gb_232"/>
<path d="M176.7,142c1,0,1.8,.5,2.2,1.3h1.8v-8.7H172v-1.8c.8,-.4,1.3,-1.2,1.3,-2.2c0,-1.4,-1.1,-2.5,-2.5,-2.5c-1.4,0,-2.6,1.1,-2.6,2.5c0,1,.5,1.8,1.3,2.2v1.8h-8.7v8.7H159c-.4,-.8,-1.2,-1.3,-2.2,-1.3c-1.4,0,-2.5,1.2,-2.5,2.6c0,1.4,1.1,2.5,2.5,2.5c1,0,1.8,-.5,2.2,-1.2h1.8v8.6h8.7v-1.8c-.8,-.4,-1.3,-1.2,-1.3,-2.2c0,-1.4,1.2,-2.5,2.6,-2.5c1.4,0,2.5,1.1,2.5,2.5c0,1,-.5,1.8,-1.3,2.2v1.8h8.7v-8.7h-1.8c-.4,.8,-1.2,1.3,-2.2,1.3c-1.4,0,-2.5,-1.1,-2.5,-2.5c0,-1.4,1.1,-2.6,2.5,-2.6Z" class="gd_232"/>
<path d="M181.1,154.9h-9.5v-2.4l.2,-.1c.7,-.4,1.1,-1.1,1.1,-1.9c0,-1.2,-1,-2.1,-2.1,-2.1c-1.2,0,-2.2,.9,-2.2,2.1c0,.8,.4,1.5,1.1,1.9l.2,.1v2.4h-9.5v-8.6h-1.2c-.5,.7,-1.4,1.2,-2.4,1.2c-1.6,0,-2.9,-1.3,-2.9,-2.9c0,-1.6,1.3,-3,2.9,-3c1,0,1.9,.5,2.4,1.3h1.2v-8.7h8.7V133c-.8,-.5,-1.3,-1.4,-1.3,-2.4c0,-1.6,1.3,-2.9,3,-2.9c1.6,0,2.9,1.3,2.9,2.9c0,1,-.5,1.9,-1.3,2.4v1.2h8.7v9.5h-2.4l-.1,-.2c-.4,-.7,-1.1,-1.1,-1.9,-1.1c-1.2,0,-2.1,1,-2.1,2.2c0,1.1,.9,2.1,2.1,2.1c.8,0,1.5,-.4,1.9,-1.1l.1,-.2h2.4Zm-8.7,-.8h7.9v-7.9h-1.2c-.5,.8,-1.4,1.3,-2.4,1.3c-1.6,0,-2.9,-1.3,-2.9,-2.9c0,-1.6,1.3,-3,2.9,-3c1,0,1.9,.5,2.4,1.3h1.2V135h-8.7v-2.4l.2,-.1c.7,-.4,1.1,-1.1,1.1,-1.9c0,-1.2,-1,-2.1,-2.1,-2.1c-1.2,0,-2.2,.9,-2.2,2.1c0,.8,.4,1.5,1.1,1.9l.2,.1V135h-8.7v8.7h-2.4l-.1,-.2c-.4,-.7,-1.1,-1.1,-1.9,-1.1c-1.2,0,-2.1,1,-2.1,2.2c0,1.2,.9,2.1,2.1,2.1c.8,0,1.5,-.4,1.9,-1l.1,-.2h2.4v8.6h7.9v-1.2c-.8,-.5,-1.3,-1.4,-1.3,-2.4c0,-1.6,1.3,-2.9,3,-2.9c1.6,0,2.9,1.3,2.9,2.9c0,1,-.5,1.9,-1.3,2.4Z" class="gb_232"/>
<path d="M196.6,142c.9,0,1.8,.5,2.2,1.3h1.8v-8.7h-8.7v-1.8c.8,-.4,1.3,-1.2,1.3,-2.2c0,-1.4,-1.1,-2.5,-2.5,-2.5c-1.5,0,-2.6,1.1,-2.6,2.5c0,1,.5,1.8,1.3,2.2v1.8h-8.7v8.7h-1.8c-.4,-.8,-1.2,-1.3,-2.2,-1.3c-1.4,0,-2.5,1.2,-2.5,2.6c0,1.4,1.1,2.5,2.5,2.5c1,0,1.8,-.5,2.2,-1.2h1.8v8.6h8.7v-1.8c-.8,-.4,-1.3,-1.2,-1.3,-2.2c0,-1.4,1.2,-2.5,2.6,-2.5c1.4,0,2.5,1.1,2.5,2.5c0,1,-.5,1.8,-1.3,2.2v1.8h8.7v-8.7h-1.8c-.4,.8,-1.2,1.3,-2.2,1.3c-1.4,0,-2.5,-1.1,-2.5,-2.5c0,-1.4,1.1,-2.6,2.5,-2.6Z" class="ge_232"/>
<path d="M201,154.9h-9.5v-2.4l.2,-.1c.7,-.4,1.1,-1.1,1.1,-1.9c0,-1.2,-1,-2.1,-2.1,-2.1c-1.2,0,-2.2,.9,-2.2,2.1c0,.8,.4,1.5,1.1,1.9l.2,.1v2.4h-9.5v-8.6h-1.2c-.5,.7,-1.4,1.2,-2.4,1.2c-1.6,0,-2.9,-1.3,-2.9,-2.9c0,-1.6,1.3,-3,2.9,-3c1,0,1.9,.5,2.4,1.3h1.2v-8.7H189V133c-.8,-.5,-1.3,-1.4,-1.3,-2.4c0,-1.6,1.3,-2.9,3,-2.9c1.6,0,2.9,1.3,2.9,2.9c0,1,-.5,1.9,-1.3,2.4v1.2H201v9.5h-2.4l-.1,-.2c-.4,-.7,-1.1,-1.1,-1.9,-1.1c-.6,0,-1.1,.3,-1.5,.7c-.4,.4,-.6,.9,-.6,1.5c0,1.1,.9,2.1,2.1,2.1c.8,0,1.5,-.4,1.9,-1.1l.1,-.2H201Zm-8.7,-.8h7.9v-7.9H199c-.5,.8,-1.4,1.3,-2.4,1.3c-1.6,0,-2.9,-1.3,-2.9,-2.9c0,-.8,.3,-1.5,.8,-2.1c.6,-.6,1.3,-.9,2.1,-.9c1,0,1.9,.5,2.4,1.3h1.2V135h-8.7v-2.4l.2,-.1c.7,-.4,1.1,-1.1,1.1,-1.9c0,-1.2,-1,-2.1,-2.1,-2.1c-1.2,0,-2.2,.9,-2.2,2.1c0,.8,.4,1.5,1.1,1.9l.2,.1V135h-8.7v8.7h-2.4l-.1,-.2c-.4,-.7,-1.1,-1.1,-1.9,-1.1c-1.2,0,-2.1,1,-2.1,2.2c0,1.2,.9,2.1,2.1,2.1c.8,0,1.5,-.4,1.9,-1l.1,-.2h2.4v8.6H189v-1.2c-.8,-.5,-1.3,-1.4,-1.3,-2.4c0,-1.6,1.3,-2.9,3,-2.9c1.6,0,2.9,1.3,2.9,2.9c0,1,-.5,1.9,-1.3,2.4Z" class="gb_232"/>
<path d="M32.1,45.1H9.2m958.3,0h22.9M32.1,1331.3H9.2m958.3,0h22.9M45.1,32.1V9.2m0,1335.1v22.9M954.5,32.1V9.2m0,1335.1v22.9" class="gf_232"/>
<path d="M32.1,45.1H9.2m958.3,0h22.9M32.1,1331.3H9.2m958.3,0h22.9M45.1,32.1V9.2m0,1335.1v22.9M954.5,32.1V9.2m0,1335.1v22.9" class="gg_232"/>
<path d="M27.5,32.1H0m972.1,0h27.5M27.5,1344.3H0m972.1,0h27.5M32.1,27.5V0m0,1348.9v27.5M967.5,27.5V0m0,1348.9v27.5" class="gf_232"/>
<path d="M27.5,32.1H0m972.1,0h27.5M27.5,1344.3H0m972.1,0h27.5M32.1,27.5V0m0,1348.9v27.5M967.5,27.5V0m0,1348.9v27.5" class="gg_232"/>
</svg>