<?xml version="1.0" encoding="UTF-8" standalone="no"?>
<!DOCTYPE svg PUBLIC "-//W3C//DTD SVG 1.1//EN"
"http://www.w3.org/Graphics/SVG/1.1/DTD/svg11.dtd">
<svg viewBox="0 0 999 1376" version="1.1" xmlns="http://www.w3.org/2000/svg" xmlns:xlink="http://www.w3.org/1999/xlink">
<defs>
<clipPath id="c0_169"><path d="M78.3,607.6V365H291.7V607.6Z"/></clipPath>
<clipPath id="c1_169"><path d="M84,602V367.7H284.2V602Z"/></clipPath>
<clipPath id="c2_169"><path d="M83.7,601.7V367.4H283.9V601.7Z"/></clipPath>
<clipPath id="c3_169"><path d="M719.9,756.3V494.5H928.4V756.3Z"/></clipPath>
<clipPath id="c4_169"><path d="M716,760.3v-270H932.2v270Z"/></clipPath>
<clipPath id="c5_169"><path d="M715.7,760V490H931.8V760Z"/></clipPath>
<clipPath id="c6_169"><path d="M199.2,242.1L192.7,240L176.3,226V168.9h72v73.2Z"/></clipPath>
<clipPath id="c7_169"><path d="M198.6,1072.2l-6.5,-2.1l-16.4,-13.9V999.1h72v73.1Z"/></clipPath>
<clipPath id="c8_169"><path d="M786.5,132.5V120.1H801v12.4Z"/></clipPath>
<style type="text/css"><![CDATA[
.g0_169{
fill: #FEFCF4;
}
.g1_169{
fill: #FFF;
}
.g2_169{
fill: none;
stroke: #6381B7;
stroke-width: 0.763;
}
.g3_169{
fill: #F7C2D9;
}
.g4_169{
fill: #FDF4F3;
}
.g5_169{
fill: #EC008C;
}
.g6_169{
fill: #818385;
}
.g7_169{
fill: none;
stroke: #949698;
stroke-width: 0.305;
stroke-dasharray: 4,4;
}
.g8_169{
fill: none;
stroke: #949698;
stroke-width: 0.305;
}
.g9_169{
fill: none;
stroke: #949698;
stroke-width: 0.305;
stroke-dasharray: 3,3;
}
.ga_169{
fill: #6D6F71;
}
.gb_169{
fill: #FCE8B0;
}
.gc_169{
fill: #6381B7;
}
.gd_169{
fill: none;
stroke: #6381B7;
stroke-width: 0.381;
stroke-dasharray: 2,1;
}
.ge_169{
fill: none;
stroke: #6381B7;
stroke-width: 0.381;
}
.gf_169{
fill: #25408F;
}
.gg_169{
fill: #A8AAAD;
}
.gh_169{
fill: none;
stroke: #949698;
stroke-width: 0.549;
}
.gi_169{
fill: none;
stroke: #BCBEC0;
stroke-width: 2.566;
}
.gj_169{
fill: #231F20;
}
.gk_169{
fill: #363637;
}
.gl_169{
fill: #5CC4BE;
}
.gm_169{
fill: #F0D73F;
}
.gn_169{
fill: none;
stroke: #FFF;
stroke-width: 1.909;
stroke-miterlimit: 10;
}
.go_169{
fill: none;
stroke: #000;
stroke-width: 0.381;
stroke-miterlimit: 10;
}
]]></style>
</defs>
<path d="M45.1,1344.3H967.5V32.1H45.1V1344.3Z" class="g0_169"/>
<path d="M172.1,138.6c0,0,-18.4,0,-18.4,18.4V942.4c0,0,0,18.3,18.4,18.3H849.2c0,0,18.3,0,18.3,-18.3V138.6Z" class="g1_169"/>
<path d="M172.1,138.6c0,0,-18.4,0,-18.4,18.4V942.4c0,0,0,18.3,18.4,18.3H849.2c0,0,18.3,0,18.3,-18.3V138.6H172.1Z" class="g2_169"/>
<image clip-path="url(#c0_169)" preserveAspectRatio="none" x="78" y="366" width="213" height="242" xlink:href="img/1.png"/>
<path d="M83.2,385.2L99.1,601.6L285.4,586.8l-16.8,-217Z" class="g3_169"/>
<image clip-path="url(#c1_169)" preserveAspectRatio="none" x="83" y="368" width="200" height="235" xlink:href="img/2.png"/>
<image clip-path="url(#c2_169)" preserveAspectRatio="none" x="83" y="368" width="200" height="234" xlink:href="img/3.png"/>
<path d="M88.4,378.8l6.5,216.8l150.5,-5.7L277.8,562L272.1,372.1Z" class="g4_169"/>
<path d="M245.5,589.8l32.4,-27.7l-18,-6.4Z" class="g5_169"/>
<path d="M128.7,377.5l-7.2,-5l-2.8,11.8Z" class="g6_169"/>
<path d="M650.2,427.8c9.1,-1.3,16.2,-6.4,17.9,-12.9m-.5,-7.6c-2.5,-6.1,-9.9,-10.7,-19,-11.6m-7.7,.2c-9.1,1.3,-16.2,6.4,-18,12.9m.5,7.6c2.5,6.1,9.9,10.7,19,11.6" class="g7_169"/>
<path d="M668.4,413.4c.1,-.5,.1,-1,.1,-1.6c0,-.5,0,-1,-.1,-1.5M647.1,395.6c-.5,0,-1.1,0,-1.6,0c-.5,0,-1,0,-1.5,0m-21.4,14.7c-.1,.5,-.1,1,-.1,1.5c0,.6,0,1.1,.1,1.6M644,428.1c.5,0,1,0,1.5,0c.5,0,1.1,0,1.6,0" class="g8_169"/>
<path d="M627.1,397.3C595.8,387.9,403.2,332.2,264.4,337.2" class="g7_169"/>
<path d="M257.1,337.8c-5.9,1.3,-2.2,4.7,1.4,5.9" class="g9_169"/>
<path d="M264.4,340.9c.7,-3.2,-1.6,-7.8,-12.4,-9m-7.8,-.2c-22.6,.8,-95.8,9.7,-118.8,42" class="g7_169"/>
<path d="M631.5,398.6c0,0,-.5,-.2,-1.5,-.5M262.9,337.3c-.5,0,-1,0,-1.5,0c-.5,.1,-1,.1,-1.5,.1m0,6.7c.6,.1,1.1,.1,1.5,0c.5,0,1,-.2,1.4,-.6M250.4,331.8c-.5,0,-1,-.1,-1.6,-.1c-.4,0,-.9,0,-1.5,0M124.5,375c-.3,.5,-.5,.9,-.8,1.3" class="g8_169"/>
<image clip-path="url(#c3_169)" preserveAspectRatio="none" x="720" y="495" width="208" height="262" xlink:href="img/4.png"/>
<path d="M736.3,499.3L724.6,742.2l186.8,8.1L922.1,506.7Z" class="g3_169"/>
<image clip-path="url(#c4_169)" preserveAspectRatio="none" x="716" y="491" width="216" height="270" xlink:href="img/5.png"/>
<image clip-path="url(#c5_169)" preserveAspectRatio="none" x="715" y="490" width="216" height="271" xlink:href="img/6.png"/>
<path d="M742.5,494.6L720.4,740.9l150.1,12.8L905.7,734L925.5,510.6Z" class="g4_169"/>
<path d="M870.1,754.2l35.7,-20.4L877.4,729Z" class="g5_169"/>
<path d="M644.9,584.2c0,0,27.3,-40,86.6,-35.2" class="g7_169"/>
<path d="M727.2,544.6l.7,8.8l10.9,-5.5Z" class="ga_169"/>
<path d="M638.8,617.1c9.3,-1.4,16.7,-6.5,18.5,-13.1" class="g7_169"/>
<path d="M657,596.9c-.4,-1.3,-1.1,-2.5,-1.9,-3.6" class="g9_169"/>
<path d="M649.1,588.1c-3.3,-1.8,-7.2,-3.1,-11.6,-3.6m-8.2,.2c-9.3,1.3,-16.7,6.5,-18.5,13m.5,7.8c2.6,6.2,10.2,10.9,19.6,11.7" class="g7_169"/>
<path d="M657.6,602.5c.1,-.6,.1,-1.1,.1,-1.6c0,-.5,0,-.9,-.1,-1.4m-3.4,-7.3c-.3,-.3,-.6,-.7,-.9,-1c-.4,-.4,-.9,-.8,-1.3,-1.1m-16.2,-5.7c-.6,0,-1.2,0,-1.7,0c-.6,0,-1.1,0,-1.6,0m-22,14.9c-.1,.5,-.1,1,-.1,1.6c0,.5,0,1,.1,1.6m22,14.9c.5,0,1,0,1.6,0c.5,0,1,0,1.5,0" class="g8_169"/>
<path d="M231.8,171.1c0,0,-13,0,-13,13v47.6c0,0,0,13,13,13h602c0,0,13,0,13,-13V184.1c0,0,0,-13,-13,-13Z" class="gb_169"/>
<image clip-path="url(#c6_169)" preserveAspectRatio="none" x="175" y="167" width="75" height="77" xlink:href="img/7.png"/>
<path d="M226.6,237.4c0,0,-26.9,11.3,-51.1,-12.8c0,0,15.1,25.3,49.3,24c0,0,24.7,.3,20.2,-10.2c0,0,1.2,-4.4,-18.4,-1Z" class="gb_169"/>
<path d="M166.7,981.4c0,0,-13,0,-13,13V1158c0,0,0,12.9,13,12.9H854.5c0,0,13,0,13,-12.9V994.4c0,0,0,-13,-13,-13Z" class="g1_169"/>
<path d="M166.7,981.4c0,0,-13,0,-13,13V1158c0,0,0,12.9,13,12.9H854.5c0,0,13,0,13,-12.9V994.4c0,0,0,-13,-13,-13H166.7Z" class="g2_169"/>
<path d="M495.4,1187.2c0,0,-4.3,0,-4.3,4.3v10.9c0,0,0,4.3,4.3,4.3h30.3c0,0,4.3,0,4.3,-4.3v-10.9c0,0,0,-4.3,-4.3,-4.3Z" class="gc_169"/>
<path d="M482.2,1178.4v37.5m1.3,1H866.3m1,-1.3V1178m-1.4,-1H483.2" class="gd_169"/>
<path d="M482.2,1216.3v.6h.6m383.9,0h.6v-.6m0,-38.7v-.6h-.6m-383.9,0h-.6v.6" class="ge_169"/>
<path d="M231.2,1027.3c0,0,-12.9,0,-12.9,12.9v21.7c0,0,0,13,12.9,13H833.3c0,0,13,0,13,-13v-21.7c0,0,0,-12.9,-13,-12.9Z" class="gb_169"/>
<image clip-path="url(#c7_169)" preserveAspectRatio="none" x="174" y="998" width="75" height="76" xlink:href="img/8.png"/>
<path d="M226,1067.5c0,0,-26.8,11.3,-51.1,-12.7c0,0,15.2,25.3,49.3,23.9c0,0,24.8,.4,20.3,-10.1c0,0,1.2,-4.4,-18.5,-1.1Z" class="gb_169"/>
<path d="M153.3,111.9v39L165,161.2V117Z" class="gf_169"/>
<path d="M153.3,111.9v39H851.1c0,0,16.8,0,16.8,-16.8v-5.3c0,0,0,-16.9,-16.8,-16.9Z" class="gc_169"/>
<path d="M802.6,145.6c8.2,0,14.9,-6.5,14.9,-14.5c0,-8.1,-6.7,-14.5,-14.9,-14.5c-8.2,0,-14.9,6.4,-14.9,14.5c0,8,6.7,14.5,14.9,14.5Z" class="gg_169"/>
<path d="M802.6,145.6c8.2,0,14.9,-6.5,14.9,-14.5c0,-8.1,-6.7,-14.5,-14.9,-14.5c-8.2,0,-14.9,6.4,-14.9,14.5c0,8,6.7,14.5,14.9,14.5Z" class="gh_169"/>
<path d="M802.6,136.4c3,0,5.5,-2.4,5.5,-5.3c0,-3,-2.5,-5.4,-5.5,-5.4c-3,0,-5.5,2.4,-5.5,5.4c0,2.9,2.5,5.3,5.5,5.3Z" class="g1_169"/>
<path d="M802.6,136.4c3,0,5.5,-2.4,5.5,-5.3c0,-3,-2.5,-5.4,-5.5,-5.4c-3,0,-5.5,2.4,-5.5,5.4c0,2.9,2.5,5.3,5.5,5.3Z" class="gi_169"/>
<g clip-path="url(#c8_169)" opacity="0.3">
<path d="M788,130.3c0,0,0,-4.8,3.7,-8.7l7.7,6.8c0,0,-1,.9,-1,2.6Z" class="g1_169"/>
</g>
<path d="M807.2,131c0,0,-3.5,0,-3.5,3.4v8.7c0,0,0,3.5,3.5,3.5h43.5c0,0,3.5,0,3.5,-3.5v-8.7c0,0,0,-3.4,-3.5,-3.4Z" class="gj_169"/>
<path d="M191.2,122c0,-8.3,-6.8,-15,-15.1,-15c-8.3,0,-15,6.7,-15,15c0,8.3,6.7,15.1,15,15.1c.8,0,1.7,-.1,2.4,-.2l4.5,5.2v-6.7c4.9,-2.5,8.2,-7.6,8.2,-13.4Z" class="g1_169"/>
<path d="M183.5,143.3l-5.1,-5.9c-.8,.1,-1.5,.1,-2.3,.1c-8.5,0,-15.5,-6.9,-15.5,-15.5c0,-8.5,7,-15.5,15.5,-15.5c8.6,0,15.5,7,15.5,15.5c0,5.7,-3.1,11,-8.1,13.7Zm-4.8,-6.9l3.9,4.5v-5.8l.2,-.1c4.9,-2.5,7.9,-7.5,7.9,-13c0,-8,-6.5,-14.6,-14.6,-14.6c-8,0,-14.6,6.6,-14.6,14.6c0,8.1,6.6,14.6,14.6,14.6c.8,0,1.6,-.1,2.4,-.2Z" class="gk_169"/>
<path d="M169.1,121.6c.8,0,1.4,.6,1.4,1.4c0,.8,-.6,1.5,-1.4,1.5c-.8,0,-1.4,-.7,-1.4,-1.5c0,-.8,.6,-1.4,1.4,-1.4Z" class="gl_169"/>
<path d="M169.1,124.9c-1,0,-1.9,-.8,-1.9,-1.9c0,-1,.9,-1.9,1.9,-1.9c1,0,1.9,.9,1.9,1.9c0,1.1,-.9,1.9,-1.9,1.9m0,-2.9c-.5,0,-1,.5,-1,1c0,.6,.5,1,1,1c.5,0,1,-.4,1,-1c0,-.5,-.5,-1,-1,-1Z" class="gk_169"/>
<path d="M176.1,121.6c.8,0,1.5,.6,1.5,1.4c0,.8,-.7,1.5,-1.5,1.5c-.8,0,-1.4,-.7,-1.4,-1.5c0,-.8,.6,-1.4,1.4,-1.4Z" class="gl_169"/>
<path d="M176.1,124.9c-1,0,-1.9,-.8,-1.9,-1.9c0,-1,.9,-1.9,1.9,-1.9c1.1,0,1.9,.9,1.9,1.9c0,1.1,-.8,1.9,-1.9,1.9m0,-2.9c-.5,0,-1,.5,-1,1c0,.6,.5,1,1,1c.6,0,1,-.4,1,-1c0,-.5,-.4,-1,-1,-1Z" class="gk_169"/>
<path d="M183.1,121.6c.8,0,1.5,.6,1.5,1.4c0,.8,-.7,1.5,-1.5,1.5c-.8,0,-1.4,-.7,-1.4,-1.5c0,-.8,.6,-1.4,1.4,-1.4Z" class="gl_169"/>
<path d="M183.1,124.9c-1,0,-1.9,-.8,-1.9,-1.9c0,-1,.9,-1.9,1.9,-1.9c1.1,0,1.9,.9,1.9,1.9c0,1.1,-.8,1.9,-1.9,1.9m0,-2.9c-.5,0,-1,.5,-1,1c0,.6,.5,1,1,1c.6,0,1,-.4,1,-1c0,-.5,-.4,-1,-1,-1Z" class="gk_169"/>
<path d="M185.1,136.3c0,-9.8,7.8,-17.7,17.6,-17.7c9.7,0,17.6,7.9,17.6,17.7c0,9.7,-7.9,17.6,-17.6,17.6c-1,0,-1.9,-.1,-2.9,-.3l-5.2,6.1v-7.8c-5.7,-2.9,-9.5,-8.8,-9.5,-15.6Z" class="gm_169"/>
<path d="M194.6,160.2q-.1,0,-.2,0c-.2,-.1,-.3,-.3,-.3,-.5v-7.5c-5.9,-3.2,-9.5,-9.2,-9.5,-15.9c0,-10,8.1,-18.1,18.1,-18.1c9.9,0,18,8.1,18,18.1c0,9.9,-8.1,18,-18,18c-.9,0,-1.8,0,-2.7,-.2l-5.1,5.9c-.1,.1,-.2,.2,-.3,.2m8.1,-41.1c-9.5,0,-17.2,7.7,-17.2,17.2c0,6.4,3.6,12.2,9.3,15.2c.1,.1,.2,.2,.2,.4v6.6l4.5,-5.2c.1,-.1,.3,-.1,.4,-.1c1,.1,1.9,.2,2.8,.2c9.4,0,17.1,-7.7,17.1,-17.1c0,-9.5,-7.7,-17.2,-17.1,-17.2Z" class="gk_169"/>
<path d="M210.9,135.8c.9,0,1.6,.7,1.6,1.6c0,1,-.7,1.7,-1.6,1.7c-1,0,-1.7,-.7,-1.7,-1.7c0,-.9,.7,-1.6,1.7,-1.6Z" class="g1_169"/>
<path d="M210.9,139.6c-1.2,0,-2.2,-1,-2.2,-2.2c0,-1.1,1,-2.1,2.2,-2.1c1.1,0,2.1,1,2.1,2.1c0,1.2,-1,2.2,-2.1,2.2m0,-3.4c-.7,0,-1.3,.6,-1.3,1.2c0,.7,.6,1.3,1.3,1.3c.6,0,1.2,-.6,1.2,-1.3c0,-.6,-.6,-1.2,-1.2,-1.2Z" class="gk_169"/>
<path d="M202.7,135.8c.9,0,1.6,.7,1.6,1.6c0,1,-.7,1.7,-1.6,1.7c-1,0,-1.7,-.7,-1.7,-1.7c0,-.9,.7,-1.6,1.7,-1.6Z" class="g1_169"/>
<path d="M202.7,139.6c-1.2,0,-2.2,-1,-2.2,-2.2c0,-1.1,1,-2.1,2.2,-2.1c1.1,0,2.1,1,2.1,2.1c0,1.2,-1,2.2,-2.1,2.2m0,-3.4c-.7,0,-1.3,.6,-1.3,1.2c0,.7,.6,1.3,1.3,1.3c.6,0,1.2,-.6,1.2,-1.3c0,-.6,-.6,-1.2,-1.2,-1.2Z" class="gk_169"/>
<path d="M194.5,135.8c.9,0,1.6,.7,1.6,1.6c0,1,-.7,1.7,-1.6,1.7c-1,0,-1.7,-.7,-1.7,-1.7c0,-.9,.7,-1.6,1.7,-1.6Z" class="g1_169"/>
<path d="M194.5,139.6c-1.2,0,-2.2,-1,-2.2,-2.2c0,-1.1,1,-2.1,2.2,-2.1c1.1,0,2.1,1,2.1,2.1c0,1.2,-1,2.2,-2.1,2.2m0,-3.4c-.7,0,-1.2,.6,-1.2,1.2c0,.7,.5,1.3,1.2,1.3c.6,0,1.2,-.6,1.2,-1.3c0,-.6,-.6,-1.2,-1.2,-1.2Z" class="gk_169"/>
<path d="M32.1,45.1H9.2m958.3,0h22.9M32.1,1331.3H9.2m958.3,0h22.9M45.1,32.1V9.2m0,1335.1v22.9M954.5,32.1V9.2m0,1335.1v22.9" class="gn_169"/>
<path d="M32.1,45.1H9.2m958.3,0h22.9M32.1,1331.3H9.2m958.3,0h22.9M45.1,32.1V9.2m0,1335.1v22.9M954.5,32.1V9.2m0,1335.1v22.9" class="go_169"/>
<path d="M27.5,32.1H0m972.1,0h27.5M27.5,1344.3H0m972.1,0h27.5M32.1,27.5V0m0,1348.9v27.5M967.5,27.5V0m0,1348.9v27.5" class="gn_169"/>
<path d="M27.5,32.1H0m972.1,0h27.5M27.5,1344.3H0m972.1,0h27.5M32.1,27.5V0m0,1348.9v27.5M967.5,27.5V0m0,1348.9v27.5" class="go_169"/>
</svg>