<?xml version="1.0" encoding="UTF-8" standalone="no"?>
<!DOCTYPE svg PUBLIC "-//W3C//DTD SVG 1.1//EN"
"http://www.w3.org/Graphics/SVG/1.1/DTD/svg11.dtd">
<svg viewBox="0 0 999 1376" version="1.1" xmlns="http://www.w3.org/2000/svg" xmlns:xlink="http://www.w3.org/1999/xlink">
<defs>
<style type="text/css"><![CDATA[
.g0_268{
fill: none;
stroke: #6381B7;
stroke-width: 0.763;
}
.g1_268{
fill: none;
stroke: #231F20;
stroke-width: 0.763;
stroke-miterlimit: 10;
}
.g2_268{
fill: #FFF;
}
.g3_268{
fill: none;
stroke: #EE1D23;
stroke-width: 0.458;
}
.g4_268{
fill: none;
stroke: #015AAA;
stroke-width: 3.055;
stroke-miterlimit: 10;
}
.g5_268{
fill: #25408F;
}
.g6_268{
fill: #6381B7;
}
.g7_268{
fill: #F37553;
}
.g8_268{
fill: #363637;
}
.g9_268{
fill: #F0D73F;
}
.ga_268{
fill: #506CB4;
}
.gb_268{
fill: #5CC4BE;
}
.gc_268{
fill: none;
stroke: #FFF;
stroke-width: 1.909;
stroke-miterlimit: 10;
}
.gd_268{
fill: none;
stroke: #000;
stroke-width: 0.381;
stroke-miterlimit: 10;
}
]]></style>
</defs>
<path d="M145.1,168.6c0,0,-13,0,-13,13v934.9c0,0,0,13,13,13H832.9c0,0,13,0,13,-13V181.6c0,0,0,-13,-13,-13H145.1Z" class="g0_268"/>
<path d="M162,266.3H292.3m-129.9,51V266.7m129.9,-.4H825.4M292.3,316.9V266.7M825,316.9V266.7M162.4,368.2V317.3m129.5,0H825.4M292.3,367.8V317.6M825,367.8V317.6M162.4,418.7V368.2m129.5,0H825.4M292.3,418.7V368.6M825,418.7V368.6M162,419.1H292.3m0,0H825.4" class="g1_268"/>
<path d="M312,306.2h27.7V278.5H312v27.7Z" class="g2_268"/>
<path d="M312,306.2h27.7V278.5H312v27.7Z" class="g3_268"/>
<path d="M342.5,306.2h27.6V278.5H342.5v27.7Z" class="g2_268"/>
<path d="M342.5,306.2h27.6V278.5H342.5v27.7Z" class="g3_268"/>
<path d="M372.9,306.2h27.7V278.5H372.9v27.7Z" class="g2_268"/>
<path d="M372.9,306.2h27.7V278.5H372.9v27.7Z" class="g3_268"/>
<path d="M403.3,306.2H431V278.5H403.3v27.7Z" class="g2_268"/>
<path d="M403.3,306.2H431V278.5H403.3v27.7Z" class="g3_268"/>
<path d="M433.8,306.2h27.6V278.5H433.8v27.7Z" class="g2_268"/>
<path d="M433.8,306.2h27.6V278.5H433.8v27.7Z" class="g3_268"/>
<path d="M464.2,306.2h27.7V278.5H464.2v27.7Z" class="g2_268"/>
<path d="M464.2,306.2h27.7V278.5H464.2v27.7Z" class="g3_268"/>
<path d="M494.6,306.2h27.7V278.5H494.6v27.7Z" class="g2_268"/>
<path d="M494.6,306.2h27.7V278.5H494.6v27.7Z" class="g3_268"/>
<path d="M525,306.2h27.7V278.5H525v27.7Z" class="g2_268"/>
<path d="M525,306.2h27.7V278.5H525v27.7Z" class="g3_268"/>
<path d="M555.5,306.2h27.7V278.5H555.5v27.7Z" class="g2_268"/>
<path d="M555.5,306.2h27.7V278.5H555.5v27.7Z" class="g3_268"/>
<path d="M585.9,306.2h27.7V278.5H585.9v27.7Z" class="g2_268"/>
<path d="M585.9,306.2h27.7V278.5H585.9v27.7Z" class="g3_268"/>
<path d="M616.3,306.2H644V278.5H616.3v27.7Z" class="g2_268"/>
<path d="M616.3,306.2H644V278.5H616.3v27.7Z" class="g3_268"/>
<path d="M646.8,306.2h27.7V278.5H646.8v27.7Z" class="g2_268"/>
<path d="M646.8,306.2h27.7V278.5H646.8v27.7Z" class="g3_268"/>
<path d="M677.2,306.2h27.7V278.5H677.2v27.7Z" class="g2_268"/>
<path d="M677.2,306.2h27.7V278.5H677.2v27.7Z" class="g3_268"/>
<path d="M707.6,306.2h27.7V278.5H707.6v27.7Z" class="g2_268"/>
<path d="M707.6,306.2h27.7V278.5H707.6v27.7Z" class="g3_268"/>
<path d="M738.1,306.2h27.7V278.5H738.1v27.7Z" class="g2_268"/>
<path d="M738.1,306.2h27.7V278.5H738.1v27.7Z" class="g3_268"/>
<path d="M768.5,306.2h27.7V278.5H768.5v27.7Z" class="g2_268"/>
<path d="M768.5,306.2h27.7V278.5H768.5v27.7Z" class="g3_268"/>
<path d="M312,357.1h27.7V329.4H312v27.7Z" class="g2_268"/>
<path d="M312,357.1h27.7V329.4H312v27.7Z" class="g3_268"/>
<path d="M342.5,357.1h27.6V329.4H342.5v27.7Z" class="g2_268"/>
<path d="M342.5,357.1h27.6V329.4H342.5v27.7Z" class="g3_268"/>
<path d="M372.9,357.1h27.7V329.4H372.9v27.7Z" class="g2_268"/>
<path d="M372.9,357.1h27.7V329.4H372.9v27.7Z" class="g3_268"/>
<path d="M403.3,357.1H431V329.4H403.3v27.7Z" class="g2_268"/>
<path d="M403.3,357.1H431V329.4H403.3v27.7Z" class="g3_268"/>
<path d="M433.8,357.1h27.6V329.4H433.8v27.7Z" class="g2_268"/>
<path d="M433.8,357.1h27.6V329.4H433.8v27.7Z" class="g3_268"/>
<path d="M464.2,357.1h27.7V329.4H464.2v27.7Z" class="g2_268"/>
<path d="M464.2,357.1h27.7V329.4H464.2v27.7Z" class="g3_268"/>
<path d="M494.6,357.1h27.7V329.4H494.6v27.7Z" class="g2_268"/>
<path d="M494.6,357.1h27.7V329.4H494.6v27.7Z" class="g3_268"/>
<path d="M525,357.1h27.7V329.4H525v27.7Z" class="g2_268"/>
<path d="M525,357.1h27.7V329.4H525v27.7Z" class="g3_268"/>
<path d="M555.5,357.1h27.7V329.4H555.5v27.7Z" class="g2_268"/>
<path d="M555.5,357.1h27.7V329.4H555.5v27.7Z" class="g3_268"/>
<path d="M585.9,357.1h27.7V329.4H585.9v27.7Z" class="g2_268"/>
<path d="M585.9,357.1h27.7V329.4H585.9v27.7Z" class="g3_268"/>
<path d="M616.3,357.1H644V329.4H616.3v27.7Z" class="g2_268"/>
<path d="M616.3,357.1H644V329.4H616.3v27.7Z" class="g3_268"/>
<path d="M646.8,357.1h27.7V329.4H646.8v27.7Z" class="g2_268"/>
<path d="M646.8,357.1h27.7V329.4H646.8v27.7Z" class="g3_268"/>
<path d="M677.2,357.1h27.7V329.4H677.2v27.7Z" class="g2_268"/>
<path d="M677.2,357.1h27.7V329.4H677.2v27.7Z" class="g3_268"/>
<path d="M707.6,357.1h27.7V329.4H707.6v27.7Z" class="g2_268"/>
<path d="M707.6,357.1h27.7V329.4H707.6v27.7Z" class="g3_268"/>
<path d="M738.1,357.1h27.7V329.4H738.1v27.7Z" class="g2_268"/>
<path d="M738.1,357.1h27.7V329.4H738.1v27.7Z" class="g3_268"/>
<path d="M768.5,357.1h27.7V329.4H768.5v27.7Z" class="g2_268"/>
<path d="M768.5,357.1h27.7V329.4H768.5v27.7Z" class="g3_268"/>
<path d="M312,408.1h27.7V380.4H312v27.7Z" class="g2_268"/>
<path d="M312,408.1h27.7V380.4H312v27.7Z" class="g3_268"/>
<path d="M342.5,408.1h27.6V380.4H342.5v27.7Z" class="g2_268"/>
<path d="M342.5,408.1h27.6V380.4H342.5v27.7Z" class="g3_268"/>
<path d="M372.9,408.1h27.7V380.4H372.9v27.7Z" class="g2_268"/>
<path d="M372.9,408.1h27.7V380.4H372.9v27.7Z" class="g3_268"/>
<path d="M403.3,408.1H431V380.4H403.3v27.7Z" class="g2_268"/>
<path d="M403.3,408.1H431V380.4H403.3v27.7Z" class="g3_268"/>
<path d="M433.8,408.1h27.6V380.4H433.8v27.7Z" class="g2_268"/>
<path d="M433.8,408.1h27.6V380.4H433.8v27.7Z" class="g3_268"/>
<path d="M464.2,408.1h27.7V380.4H464.2v27.7Z" class="g2_268"/>
<path d="M464.2,408.1h27.7V380.4H464.2v27.7Z" class="g3_268"/>
<path d="M494.6,408.1h27.7V380.4H494.6v27.7Z" class="g2_268"/>
<path d="M494.6,408.1h27.7V380.4H494.6v27.7Z" class="g3_268"/>
<path d="M525,408.1h27.7V380.4H525v27.7Z" class="g2_268"/>
<path d="M525,408.1h27.7V380.4H525v27.7Z" class="g3_268"/>
<path d="M555.5,408.1h27.7V380.4H555.5v27.7Z" class="g2_268"/>
<path d="M555.5,408.1h27.7V380.4H555.5v27.7Z" class="g3_268"/>
<path d="M585.9,408.1h27.7V380.4H585.9v27.7Z" class="g2_268"/>
<path d="M585.9,408.1h27.7V380.4H585.9v27.7Z" class="g3_268"/>
<path d="M616.3,408.1H644V380.4H616.3v27.7Z" class="g2_268"/>
<path d="M616.3,408.1H644V380.4H616.3v27.7Z" class="g3_268"/>
<path d="M646.8,408.1h27.7V380.4H646.8v27.7Z" class="g2_268"/>
<path d="M646.8,408.1h27.7V380.4H646.8v27.7Z" class="g3_268"/>
<path d="M677.2,408.1h27.7V380.4H677.2v27.7Z" class="g2_268"/>
<path d="M677.2,408.1h27.7V380.4H677.2v27.7Z" class="g3_268"/>
<path d="M707.6,408.1h27.7V380.4H707.6v27.7Z" class="g2_268"/>
<path d="M707.6,408.1h27.7V380.4H707.6v27.7Z" class="g3_268"/>
<path d="M738.1,408.1h27.7V380.4H738.1v27.7Z" class="g2_268"/>
<path d="M738.1,408.1h27.7V380.4H738.1v27.7Z" class="g3_268"/>
<path d="M768.5,408.1h27.7V380.4H768.5v27.7Z" class="g2_268"/>
<path d="M768.5,408.1h27.7V380.4H768.5v27.7Z" class="g3_268"/>
<path d="M162,437.2H292.3M162.4,540.7V437.6m129.9,-.4H638.2M292.3,540.7V437.6m345.9,-.4h86.9M638.2,540.7V437.6m86.9,-.4H825.4M725.1,540.7V437.6M825,540.7V437.6M162,541.1H292.3m0,0H638.2m0,0h86.9m0,0H825.4" class="g1_268"/>
<path d="M312,494.6h27.7V466.9H312v27.7Z" class="g2_268"/>
<path d="M312,494.6h27.7V466.9H312v27.7Z" class="g3_268"/>
<path d="M342.5,494.6h27.6V466.9H342.5v27.7Z" class="g2_268"/>
<path d="M342.5,494.6h27.6V466.9H342.5v27.7Z" class="g3_268"/>
<path d="M394.4,494.6h27.7V466.9H394.4v27.7Z" class="g2_268"/>
<path d="M394.4,494.6h27.7V466.9H394.4v27.7Z" class="g3_268"/>
<path d="M424.8,494.6h27.7V466.9H424.8v27.7Z" class="g2_268"/>
<path d="M424.8,494.6h27.7V466.9H424.8v27.7Z" class="g3_268"/>
<path d="M476.4,494.6h27.7V466.9H476.4v27.7Z" class="g2_268"/>
<path d="M476.4,494.6H504V466.9H476.4v27.7Z" class="g3_268"/>
<path d="M506.8,494.6h27.7V466.9H506.8v27.7Z" class="g2_268"/>
<path d="M506.8,494.6h27.7V466.9H506.8v27.7Z" class="g3_268"/>
<path d="M537.2,494.6h27.7V466.9H537.2v27.7Z" class="g2_268"/>
<path d="M537.2,494.6h27.7V466.9H537.2v27.7Z" class="g3_268"/>
<path d="M567.7,494.6h27.6V466.9H567.7v27.7Z" class="g2_268"/>
<path d="M567.7,494.6h27.6V466.9H567.7v27.7Z" class="g3_268"/>
<path d="M162,559.1H292.5M162.4,680V559.5m130.1,-.4h99.8M292.5,680V559.5m99.8,-.4H825.5M392.3,680V559.5M825.1,680V559.5M162,680.4H292.5m0,0h99.8m0,0H825.5" class="g1_268"/>
<path d="M412.1,634.2h27.7V606.5H412.1v27.7Z" class="g2_268"/>
<path d="M412.1,634.2h27.7V606.5H412.1v27.7Z" class="g3_268"/>
<path d="M442.5,634.2h27.7V606.5H442.5v27.7Z" class="g2_268"/>
<path d="M442.5,634.2h27.7V606.5H442.5v27.7Z" class="g3_268"/>
<path d="M472.9,634.2h27.7V606.5H472.9v27.7Z" class="g2_268"/>
<path d="M472.9,634.2h27.7V606.5H472.9v27.7Z" class="g3_268"/>
<path d="M503.4,634.2H531V606.5H503.4v27.7Z" class="g2_268"/>
<path d="M503.4,634.2H531V606.5H503.4v27.7Z" class="g3_268"/>
<path d="M533.8,634.2h27.7V606.5H533.8v27.7Z" class="g2_268"/>
<path d="M533.8,634.2h27.7V606.5H533.8v27.7Z" class="g3_268"/>
<path d="M564.2,634.2h27.7V606.5H564.2v27.7Z" class="g2_268"/>
<path d="M564.2,634.2h27.7V606.5H564.2v27.7Z" class="g3_268"/>
<path d="M594.7,634.2h27.6V606.5H594.7v27.7Z" class="g2_268"/>
<path d="M594.7,634.2h27.6V606.5H594.7v27.7Z" class="g3_268"/>
<path d="M625.1,634.2h27.7V606.5H625.1v27.7Z" class="g2_268"/>
<path d="M625.1,634.2h27.7V606.5H625.1v27.7Z" class="g3_268"/>
<path d="M655.5,634.2h27.7V606.5H655.5v27.7Z" class="g2_268"/>
<path d="M655.5,634.2h27.7V606.5H655.5v27.7Z" class="g3_268"/>
<path d="M685.9,634.2h27.7V606.5H685.9v27.7Z" class="g2_268"/>
<path d="M685.9,634.2h27.7V606.5H685.9v27.7Z" class="g3_268"/>
<path d="M716.4,634.2h27.7V606.5H716.4v27.7Z" class="g2_268"/>
<path d="M716.4,634.2h27.7V606.5H716.4v27.7Z" class="g3_268"/>
<path d="M746.8,634.2h27.7V606.5H746.8v27.7Z" class="g2_268"/>
<path d="M746.8,634.2h27.7V606.5H746.8v27.7Z" class="g3_268"/>
<path d="M777.2,634.2h27.7V606.5H777.2v27.7Z" class="g2_268"/>
<path d="M777.2,634.2h27.7V606.5H777.2v27.7Z" class="g3_268"/>
<path d="M162,698.5H293M162.4,749.4V698.9M293,698.5H431.6M293,749V698.9m138.6,-.4H561.5M431.6,749V698.9m129.9,-.4H828.2M561.5,749V698.9M827.8,749V698.9M162.4,800V749.4m130.2,0h139M293,800V749.8m138.6,-.4H561.5M431.6,800V749.8m129.9,-.4H828.2m-.4,50.6V749.8M162,800.4H293m0,0H431.6m0,0H561.5m0,0H828.2m-665.1,18H293.5m-130,58.1V818.8m130,-.4H664M293.5,876.5V818.8M664,818.4H826.5M664,876.5V818.8M826.1,878V818.8M293.5,937.3V879.6m532.6,58V878m-661,59.6H293.5m0,0h369m-369,97.8V938m532.6,98.6v-99M665.5,1037h161" class="g1_268"/>
<path d="M162,878H293.5m-130,59.6v-58m130,-1.6h372M664,937.6v-58M163.5,1035.4V937.6M664,1035.4V937.6M162,1037H293.5m0,0h372" class="g4_268"/>
<path d="M302.3,864.4H330V836.7H302.3v27.7Z" class="g2_268"/>
<path d="M302.3,864.4H330V836.7H302.3v27.7Z" class="g3_268"/>
<path d="M332.4,864.4h27.7V836.7H332.4v27.7Z" class="g2_268"/>
<path d="M332.4,864.4h27.7V836.7H332.4v27.7Z" class="g3_268"/>
<path d="M362.6,864.4h27.6V836.7H362.6v27.7Z" class="g2_268"/>
<path d="M362.6,864.4h27.6V836.7H362.6v27.7Z" class="g3_268"/>
<path d="M392.7,864.4h27.7V836.7H392.7v27.7Z" class="g2_268"/>
<path d="M392.7,864.4h27.7V836.7H392.7v27.7Z" class="g3_268"/>
<path d="M422.8,864.4h27.7V836.7H422.8v27.7Z" class="g2_268"/>
<path d="M422.8,864.4h27.7V836.7H422.8v27.7Z" class="g3_268"/>
<path d="M452.9,864.4h27.7V836.7H452.9v27.7Z" class="g2_268"/>
<path d="M452.9,864.4h27.7V836.7H452.9v27.7Z" class="g3_268"/>
<path d="M483,864.4h27.7V836.7H483v27.7Z" class="g2_268"/>
<path d="M483,864.4h27.7V836.7H483v27.7Z" class="g3_268"/>
<path d="M513.1,864.4h27.7V836.7H513.1v27.7Z" class="g2_268"/>
<path d="M513.1,864.4h27.7V836.7H513.1v27.7Z" class="g3_268"/>
<path d="M543.2,864.4h27.7V836.7H543.2v27.7Z" class="g2_268"/>
<path d="M543.2,864.4h27.7V836.7H543.2v27.7Z" class="g3_268"/>
<path d="M573.3,864.4H601V836.7H573.3v27.7Z" class="g2_268"/>
<path d="M573.3,864.4H601V836.7H573.3v27.7Z" class="g3_268"/>
<path d="M603.4,864.4h27.7V836.7H603.4v27.7Z" class="g2_268"/>
<path d="M603.4,864.4h27.7V836.7H603.4v27.7Z" class="g3_268"/>
<path d="M633.5,864.4h27.7V836.7H633.5v27.7Z" class="g2_268"/>
<path d="M633.5,864.4h27.7V836.7H633.5v27.7Z" class="g3_268"/>
<path d="M669.5,830.3H821.8M669.9,1024.8V830.6m151.5,194.2V830.6M669.5,1025.1H821.8" class="g1_268"/>
<path d="M132.2,126.3v22.2l11.7,10.2V136.5Z" class="g5_268"/>
<path d="M132.2,109.5v39H829.9c0,0,16.9,0,16.9,-16.8v-5.4c0,0,0,-16.8,-16.9,-16.8Z" class="g6_268"/>
<path d="M166,111.6c.7,-.6,1.7,-.8,2.5,-.6l1.3,-1.3l-6.2,-6.1l-6.1,6.1l-1.3,-1.3c.2,-.8,0,-1.8,-.6,-2.4c-1,-1,-2.6,-1,-3.6,0c-1,1,-1,2.6,0,3.6c.6,.6,1.6,.9,2.4,.6l1.3,1.3l-6.1,6.1l6.1,6.2l-1.3,1.3c-.8,-.3,-1.8,-.1,-2.4,.6c-1,1,-1,2.6,0,3.6c1,1,2.6,1,3.6,0c.6,-.7,.9,-1.6,.6,-2.4l1.3,-1.3l6.1,6.1l6.2,-6.1l-1.3,-1.3c-.9,.2,-1.8,0,-2.5,-.7c-1,-1,-1,-2.6,0,-3.6c1,-1,2.6,-1,3.6,0c.7,.7,.9,1.6,.7,2.5l1.3,1.3l6.1,-6.2l-6.1,-6.1l-1.3,1.3c.2,.8,0,1.8,-.7,2.4c-1,1,-2.6,1,-3.6,0c-1,-.9,-1,-2.6,0,-3.6Z" class="g7_268"/>
<path d="M163.6,132.3l-6.1,-6.2l-.8,.9c.1,.9,-.2,1.9,-.8,2.6c-1.2,1.1,-3.1,1.1,-4.2,0c-1.2,-1.2,-1.2,-3,0,-4.2c.7,-.7,1.6,-1,2.6,-.8l.8,-.8L149,117.6l6.1,-6.1l-.8,-.8c-1,.1,-1.9,-.2,-2.6,-.8c-.6,-.6,-.9,-1.3,-.9,-2.1c0,-.8,.3,-1.5,.9,-2.1c1.1,-1.1,3,-1.1,4.1,0c.7,.7,1,1.7,.9,2.6l.8,.8l6.1,-6.1l6.7,6.7l-1.7,1.7h-.2c-.7,-.2,-1.5,0,-2.1,.5c-.8,.9,-.8,2.2,0,3.1c.9,.8,2.2,.8,3.1,0c.5,-.6,.7,-1.4,.5,-2.1v-.2l1.7,-1.7l6.7,6.6l-6.7,6.7l-1.8,-1.7l.1,-.2c.2,-.8,0,-1.5,-.6,-2.1c-.4,-.4,-.9,-.6,-1.5,-.6c-.5,0,-1.1,.2,-1.5,.6c-.8,.8,-.8,2.2,0,3c.5,.6,1.3,.8,2.1,.6l.2,-.1l1.7,1.8ZM157.5,125l6.1,6.1l5.6,-5.5l-.8,-.9c-1,.2,-2,-.1,-2.7,-.8c-.5,-.5,-.8,-1.3,-.8,-2.1c0,-.7,.3,-1.5,.8,-2c.6,-.6,1.3,-.9,2.1,-.9c.8,0,1.6,.3,2.1,.9c.7,.6,1,1.6,.8,2.6l.9,.8l5.5,-5.6l-5.5,-5.5l-.9,.8c.2,1,-.1,1.9,-.8,2.6c-1.1,1.2,-3,1.2,-4.1,0c-1.2,-1.1,-1.2,-3,0,-4.1c.6,-.7,1.6,-1,2.6,-.8l.8,-.9l-5.6,-5.6l-6.1,6.2l-1.7,-1.7v-.3c.2,-.7,0,-1.5,-.5,-2c-.9,-.9,-2.2,-.9,-3.1,0c-.4,.4,-.6,.9,-.6,1.5c0,.6,.2,1.1,.6,1.5c.6,.5,1.4,.8,2.1,.6l.2,-.1l1.8,1.7l-6.2,6.1l6.2,6.2l-1.8,1.7l-.2,-.1c-.7,-.2,-1.5,.1,-2,.6c-.9,.8,-.9,2.2,0,3c.8,.9,2.2,.9,3,0c.5,-.5,.7,-1.3,.5,-2v-.3Z" class="g8_268"/>
<path d="M196.6,122.1c.9,0,1.8,.5,2.2,1.3h1.8v-8.7h-8.7v-1.8c.8,-.4,1.3,-1.2,1.3,-2.2c0,-1.4,-1.1,-2.5,-2.5,-2.5c-1.5,0,-2.6,1.1,-2.6,2.5c0,1,.5,1.8,1.3,2.2v1.8h-8.7v8.7h-1.8c-.4,-.8,-1.2,-1.3,-2.2,-1.3c-1.4,0,-2.5,1.2,-2.5,2.6c0,1.4,1.1,2.5,2.5,2.5c1,0,1.8,-.5,2.2,-1.2h1.8v8.6h8.7v-1.8c-.8,-.4,-1.3,-1.2,-1.3,-2.2c0,-1.4,1.2,-2.5,2.6,-2.5c1.4,0,2.5,1.1,2.5,2.5c0,1,-.5,1.8,-1.3,2.2v1.8h8.7V126h-1.8c-.4,.7,-1.2,1.2,-2.2,1.2c-1.4,0,-2.5,-1.1,-2.5,-2.5c0,-1.4,1.1,-2.6,2.5,-2.6Z" class="g9_268"/>
<path d="M201,135h-9.5v-2.4l.2,-.1c.7,-.4,1.1,-1.1,1.1,-1.9c0,-1.2,-1,-2.1,-2.1,-2.1c-1.2,0,-2.2,.9,-2.2,2.1c0,.8,.4,1.5,1.1,1.9l.2,.1V135h-9.5v-8.6h-1.2c-.5,.7,-1.4,1.2,-2.4,1.2c-1.6,0,-2.9,-1.3,-2.9,-2.9c0,-1.6,1.3,-3,2.9,-3c1,0,1.9,.5,2.4,1.3h1.2v-8.7H189v-1.1c-.8,-.6,-1.3,-1.5,-1.3,-2.5c0,-1.6,1.3,-2.9,3,-2.9c1.6,0,2.9,1.3,2.9,2.9c0,1,-.5,1.9,-1.3,2.5v1.1H201v9.5h-2.4l-.1,-.2c-.4,-.6,-1.1,-1.1,-1.9,-1.1c-.6,0,-1.1,.3,-1.5,.7c-.4,.4,-.6,.9,-.6,1.5c0,1.2,.9,2.1,2.1,2.1c.8,0,1.5,-.4,1.9,-1l.1,-.2H201Zm-8.7,-.8h7.9v-7.8H199c-.5,.7,-1.4,1.2,-2.4,1.2c-1.6,0,-2.9,-1.3,-2.9,-2.9c0,-.8,.3,-1.5,.8,-2.1c.6,-.5,1.3,-.9,2.1,-.9c1,0,1.9,.5,2.4,1.3h1.2v-7.9h-8.7v-2.4l.2,-.1c.7,-.4,1.1,-1.1,1.1,-1.9c0,-1.2,-1,-2.1,-2.1,-2.1c-1.2,0,-2.2,.9,-2.2,2.1c0,.8,.4,1.5,1.1,1.9l.2,.1v2.4h-8.7v8.7h-2.4l-.1,-.2c-.4,-.6,-1.1,-1.1,-1.9,-1.1c-1.2,0,-2.1,1,-2.1,2.2c0,1.2,.9,2.1,2.1,2.1c.8,0,1.5,-.4,1.9,-1l.1,-.2h2.4v8.6H189V133c-.8,-.5,-1.3,-1.4,-1.3,-2.4c0,-1.6,1.3,-2.9,3,-2.9c1.6,0,2.9,1.3,2.9,2.9c0,1,-.5,1.9,-1.3,2.4Z" class="g8_268"/>
<path d="M176.7,142c1,0,1.8,.5,2.2,1.3h1.8v-8.7H172v-1.8c.8,-.4,1.3,-1.2,1.3,-2.2c0,-1.4,-1.1,-2.5,-2.5,-2.5c-1.4,0,-2.6,1.1,-2.6,2.5c0,1,.5,1.8,1.3,2.2v1.8h-8.7v8.7H159c-.4,-.8,-1.2,-1.3,-2.2,-1.3c-1.4,0,-2.5,1.2,-2.5,2.6c0,1.4,1.1,2.5,2.5,2.5c1,0,1.8,-.5,2.2,-1.2h1.8v8.6h8.7v-1.8c-.8,-.4,-1.3,-1.2,-1.3,-2.2c0,-1.4,1.2,-2.5,2.6,-2.5c1.4,0,2.5,1.1,2.5,2.5c0,1,-.5,1.8,-1.3,2.2v1.8h8.7v-8.7h-1.8c-.4,.8,-1.2,1.3,-2.2,1.3c-1.4,0,-2.5,-1.1,-2.5,-2.5c0,-1.4,1.1,-2.6,2.5,-2.6Z" class="ga_268"/>
<path d="M181.1,154.9h-9.5v-2.4l.2,-.1c.7,-.4,1.1,-1.1,1.1,-1.9c0,-1.2,-1,-2.1,-2.1,-2.1c-1.2,0,-2.2,.9,-2.2,2.1c0,.8,.4,1.5,1.1,1.9l.2,.1v2.4h-9.5v-8.6h-1.2c-.5,.7,-1.4,1.2,-2.4,1.2c-1.6,0,-2.9,-1.3,-2.9,-2.9c0,-1.6,1.3,-3,2.9,-3c1,0,1.9,.5,2.4,1.3h1.2v-8.7h8.7V133c-.8,-.5,-1.3,-1.4,-1.3,-2.4c0,-1.6,1.3,-2.9,3,-2.9c1.6,0,2.9,1.3,2.9,2.9c0,1,-.5,1.9,-1.3,2.4v1.2h8.7v9.5h-2.4l-.1,-.2c-.4,-.7,-1.1,-1.1,-1.9,-1.1c-1.2,0,-2.1,1,-2.1,2.2c0,1.1,.9,2.1,2.1,2.1c.8,0,1.5,-.4,1.9,-1.1l.1,-.2h2.4Zm-8.7,-.8h7.9v-7.9h-1.2c-.5,.8,-1.4,1.3,-2.4,1.3c-1.6,0,-2.9,-1.3,-2.9,-2.9c0,-1.6,1.3,-3,2.9,-3c1,0,1.9,.5,2.4,1.3h1.2V135h-8.7v-2.4l.2,-.1c.7,-.4,1.1,-1.1,1.1,-1.9c0,-1.2,-1,-2.1,-2.1,-2.1c-1.2,0,-2.2,.9,-2.2,2.1c0,.8,.4,1.5,1.1,1.9l.2,.1V135h-8.7v8.7h-2.4l-.1,-.2c-.4,-.7,-1.1,-1.1,-1.9,-1.1c-1.2,0,-2.1,1,-2.1,2.2c0,1.2,.9,2.1,2.1,2.1c.8,0,1.5,-.4,1.9,-1l.1,-.2h2.4v8.6h7.9v-1.2c-.8,-.5,-1.3,-1.4,-1.3,-2.4c0,-1.6,1.3,-2.9,3,-2.9c1.6,0,2.9,1.3,2.9,2.9c0,1,-.5,1.9,-1.3,2.4Z" class="g8_268"/>
<path d="M196.6,142c.9,0,1.8,.5,2.2,1.3h1.8v-8.7h-8.7v-1.8c.8,-.4,1.3,-1.2,1.3,-2.2c0,-1.4,-1.1,-2.5,-2.5,-2.5c-1.5,0,-2.6,1.1,-2.6,2.5c0,1,.5,1.8,1.3,2.2v1.8h-8.7v8.7h-1.8c-.4,-.8,-1.2,-1.3,-2.2,-1.3c-1.4,0,-2.5,1.2,-2.5,2.6c0,1.4,1.1,2.5,2.5,2.5c1,0,1.8,-.5,2.2,-1.2h1.8v8.6h8.7v-1.8c-.8,-.4,-1.3,-1.2,-1.3,-2.2c0,-1.4,1.2,-2.5,2.6,-2.5c1.4,0,2.5,1.1,2.5,2.5c0,1,-.5,1.8,-1.3,2.2v1.8h8.7v-8.7h-1.8c-.4,.8,-1.2,1.3,-2.2,1.3c-1.4,0,-2.5,-1.1,-2.5,-2.5c0,-1.4,1.1,-2.6,2.5,-2.6Z" class="gb_268"/>
<path d="M201,154.9h-9.5v-2.4l.2,-.1c.7,-.4,1.1,-1.1,1.1,-1.9c0,-1.2,-1,-2.1,-2.1,-2.1c-1.2,0,-2.2,.9,-2.2,2.1c0,.8,.4,1.5,1.1,1.9l.2,.1v2.4h-9.5v-8.6h-1.2c-.5,.7,-1.4,1.2,-2.4,1.2c-1.6,0,-2.9,-1.3,-2.9,-2.9c0,-1.6,1.3,-3,2.9,-3c1,0,1.9,.5,2.4,1.3h1.2v-8.7H189V133c-.8,-.5,-1.3,-1.4,-1.3,-2.4c0,-1.6,1.3,-2.9,3,-2.9c1.6,0,2.9,1.3,2.9,2.9c0,1,-.5,1.9,-1.3,2.4v1.2H201v9.5h-2.4l-.1,-.2c-.4,-.7,-1.1,-1.1,-1.9,-1.1c-.6,0,-1.1,.3,-1.5,.7c-.4,.4,-.6,.9,-.6,1.5c0,1.1,.9,2.1,2.1,2.1c.8,0,1.5,-.4,1.9,-1.1l.1,-.2H201Zm-8.7,-.8h7.9v-7.9H199c-.5,.8,-1.4,1.3,-2.4,1.3c-1.6,0,-2.9,-1.3,-2.9,-2.9c0,-.8,.3,-1.5,.8,-2.1c.6,-.6,1.3,-.9,2.1,-.9c1,0,1.9,.5,2.4,1.3h1.2V135h-8.7v-2.4l.2,-.1c.7,-.4,1.1,-1.1,1.1,-1.9c0,-1.2,-1,-2.1,-2.1,-2.1c-1.2,0,-2.2,.9,-2.2,2.1c0,.8,.4,1.5,1.1,1.9l.2,.1V135h-8.7v8.7h-2.4l-.1,-.2c-.4,-.7,-1.1,-1.1,-1.9,-1.1c-1.2,0,-2.1,1,-2.1,2.2c0,1.2,.9,2.1,2.1,2.1c.8,0,1.5,-.4,1.9,-1l.1,-.2h2.4v8.6H189v-1.2c-.8,-.5,-1.3,-1.4,-1.3,-2.4c0,-1.6,1.3,-2.9,3,-2.9c1.6,0,2.9,1.3,2.9,2.9c0,1,-.5,1.9,-1.3,2.4Z" class="g8_268"/>
<path d="M32.1,45.1H9.2m958.3,0h22.9M32.1,1331.3H9.2m958.3,0h22.9M45.1,32.1V9.2m0,1335.1v22.9M954.5,32.1V9.2m0,1335.1v22.9" class="gc_268"/>
<path d="M32.1,45.1H9.2m958.3,0h22.9M32.1,1331.3H9.2m958.3,0h22.9M45.1,32.1V9.2m0,1335.1v22.9M954.5,32.1V9.2m0,1335.1v22.9" class="gd_268"/>
<path d="M27.5,32.1H0m972.1,0h27.5M27.5,1344.3H0m972.1,0h27.5M32.1,27.5V0m0,1348.9v27.5M967.5,27.5V0m0,1348.9v27.5" class="gc_268"/>
<path d="M27.5,32.1H0m972.1,0h27.5M27.5,1344.3H0m972.1,0h27.5M32.1,27.5V0m0,1348.9v27.5M967.5,27.5V0m0,1348.9v27.5" class="gd_268"/>
</svg>