<?xml version="1.0" encoding="UTF-8" standalone="no"?>
<!DOCTYPE svg PUBLIC "-//W3C//DTD SVG 1.1//EN"
"http://www.w3.org/Graphics/SVG/1.1/DTD/svg11.dtd">
<svg viewBox="0 0 999 1376" version="1.1" xmlns="http://www.w3.org/2000/svg" xmlns:xlink="http://www.w3.org/1999/xlink">
<defs>
<clipPath id="c0_253"><path d="M708.2,700.2V462.6h192V700.2Z"/></clipPath>
<clipPath id="c1_253"><path d="M705.4,701.1V463H901.2V701.1Z"/></clipPath>
<clipPath id="c2_253"><path d="M705.1,700.8V462.7H900.9V700.8Z"/></clipPath>
<clipPath id="c3_253"><path d="M198.7,239.5l-6.5,-2.1l-16.4,-14V166.3h72v73.2Z"/></clipPath>
<clipPath id="c4_253"><path d="M198.2,1076.7l-6.5,-2.1l-16.4,-13.9v-57.1h72v73.1Z"/></clipPath>
<clipPath id="c5_253"><path d="M786.5,132.5V120.1H801v12.4Z"/></clipPath>
<clipPath id="c6_253"><path d="M795.8,478.1c-.3,-.1,3.5,-8.3,3.5,-8.3l.8,.6c0,0,-4,7.7,-4.3,7.7Z"/></clipPath>
<clipPath id="c7_253"><path d="M803.3,470.3c0,0,-6.9,-1.1,-7.6,-5.2c-.6,-3.6,1.5,-3.8,2.1,-3.8q.1,0,.1,0l8.3,-12.8l-1.4,-3c0,0,-.6,-1.2,.1,-2.1c.1,-.1,.2,-.1,.3,-.1c2.1,0,13,5.5,13,5.5v.2c-.3,.5,-.7,1.1,-1.4,1.6c-.6,.5,-5,1.2,-5,1.2l-8.5,18.5Z"/></clipPath>
<clipPath id="c8_253"><path d="M802.9,470c.2,-.5,.2,-1.8,0,-2.3v-1.4c-1.5,-.5,-2.9,-1.2,-3.7,-2.5c-1,.6,-2.1,1.2,-3.1,1.9c1.6,2.1,3.8,3.6,6.8,4.3Zm0,-3.9c2.2,-4.6,4,-9.5,6.2,-14.1c-.9,-.4,-1.9,-1.3,-2.7,-1.4c-2.3,4.3,-4.6,8.7,-7,12.8c.7,1.4,2.1,2,3.5,2.7Zm-7.3,12c1,-2.8,2.4,-5.4,3.5,-8.2c-2,-1.6,-3.9,-3.2,-4.4,-6.2v-1.5c0,-2.7,1.9,-3.4,4.6,-3.4q.1,0,.2,0c1.9,-3.3,4.2,-6.3,6.2,-9.7c-.6,-.8,-1.2,-2.3,-.9,-3.6c.5,1.2,1.6,1.9,2.4,2.9c-.2,.6,-.3,1.1,-.4,1.7c.6,.7,1.3,1.2,2.4,1.4c.4,-.4,.5,-1.2,1.1,-1.5c1,.4,1.9,.7,3.2,.8c.1,.1,.4,.1,.8,.1c.3,0,.7,0,.8,-.1c.1,0,.2,0,.3,0c.2,0,.4,-.1,.6,-.1c.2,-.1,.4,-.2,.5,-.2c.1,0,.2,0,.3,.1c-1.3,.7,-2.1,1.8,-4.1,1.8c-.1,0,-.3,0,-.4,0c-.9,3.7,-1.8,7.3,-2.6,11.2c.5,1,1.5,1.7,1.2,3.1c-.4,2.7,-3.8,4.4,-7.2,4.4c-1.2,0,-2.5,-.2,-3.6,-.7c-1,2.1,-2,4.1,-3.2,6c-.1,-.4,.2,-.4,.2,-.8c1,-1.8,2,-3.6,2.6,-5.6c-1,1.7,-1.8,3.7,-2.7,5.5c-.2,.4,-.4,.8,-.6,1.3c-.3,.4,-.3,1.1,-.8,1.3Z"/></clipPath>
<clipPath id="c9_253"><path d="M813.3,450.4c-4.8,0,-13.1,-7.3,-5.5,-8.8h1.3c.1,0,.3,0,.5,0c0,0,.1,0,.1,0q.1,0,.2,0c.3,0,.6,0,.9,.1c3.1,.6,8.2,3.8,7.5,7c-.2,1.2,-1.5,1.6,-3.1,1.7h-1.7q-.1,0,-.2,0Z"/></clipPath>
<style type="text/css"><![CDATA[
.g0_253{
fill: #FEFCF4;
}
.g1_253{
fill: #FFF;
}
.g2_253{
fill: none;
stroke: #6381B7;
stroke-width: 0.763;
}
.g3_253{
fill: none;
stroke: #949698;
stroke-width: 0.305;
stroke-dasharray: 3,3;
}
.g4_253{
fill: none;
stroke: #949698;
stroke-width: 0.305;
}
.g5_253{
fill: #F7C2D9;
}
.g6_253{
fill: #FDF4F3;
}
.g7_253{
fill: #EC008C;
}
.g8_253{
fill: none;
stroke: #949698;
stroke-width: 0.305;
stroke-dasharray: 4,4;
}
.g9_253{
fill: #6D6F71;
}
.ga_253{
fill: #6381B7;
}
.gb_253{
fill: none;
stroke: #6381B7;
stroke-width: 0.381;
stroke-dasharray: 2,1;
}
.gc_253{
fill: none;
stroke: #6381B7;
stroke-width: 0.381;
}
.gd_253{
fill: #FCE8B0;
}
.ge_253{
fill: #25408F;
}
.gf_253{
fill: #A8AAAD;
}
.gg_253{
fill: none;
stroke: #949698;
stroke-width: 0.549;
}
.gh_253{
fill: none;
stroke: #BCBEC0;
stroke-width: 2.566;
}
.gi_253{
fill: #231F20;
}
.gj_253{
fill: #363637;
}
.gk_253{
fill: #5CC4BE;
}
.gl_253{
fill: #F0D73F;
}
.gm_253{
fill: none;
stroke: #FFF;
stroke-width: 1.909;
stroke-miterlimit: 10;
}
.gn_253{
fill: none;
stroke: #000;
stroke-width: 0.381;
stroke-miterlimit: 10;
}
]]></style>
</defs>
<path d="M45.1,1344.3H967.5V32.1H45.1V1344.3Z" class="g0_253"/>
<path d="M171.6,137.3c0,0,-18.3,0,-18.3,18.4V918.5c0,0,0,18.3,18.3,18.3H848.7c0,0,18.4,0,18.4,-18.3V137.3Z" class="g1_253"/>
<path d="M171.6,137.3c0,0,-18.3,0,-18.3,18.4V918.5c0,0,0,18.3,18.3,18.3H848.7c0,0,18.4,0,18.4,-18.3V137.3H171.6Z" class="g2_253"/>
<path d="M666.5,495.4c14.1,-1,25.4,-7.1,27.6,-14.8m-.5,-7.1C690.4,466.2,679,460.6,665.1,459.9m-7.2,.1c-14.2,1,-25.4,7.1,-27.6,14.9m.5,7c3.2,7.4,14.6,13,28.5,13.6" class="g3_253"/>
<path d="M694.4,479.1c.1,-.4,.1,-.9,.1,-1.4c0,-.5,0,-.9,-.1,-1.4M663.6,459.8c-.5,0,-.9,0,-1.4,0c-.5,0,-1,0,-1.5,0M630,476.3c-.1,.5,-.1,.9,-.1,1.4c0,.5,0,1,.1,1.4m30.7,16.5c.5,0,1,0,1.5,0c.5,0,.9,0,1.4,0" class="g4_253"/>
<image clip-path="url(#c0_253)" preserveAspectRatio="none" x="708" y="463" width="192" height="237" xlink:href="img/1.png"/>
<path d="M714.3,467.9l-1,226.1l180.4,-2.3l-2.2,-223Z" class="g5_253"/>
<image clip-path="url(#c1_253)" preserveAspectRatio="none" x="705" y="464" width="196" height="238" xlink:href="img/2.png"/>
<image clip-path="url(#c2_253)" preserveAspectRatio="none" x="705" y="463" width="196" height="238" xlink:href="img/3.png"/>
<path d="M709.9,474.3l8.7,220.6l143.6,-5.7L894.5,666L886.6,467.4Z" class="g6_253"/>
<path d="M861.4,690.4l33.4,-24.8l-15.3,-7.7Z" class="g7_253"/>
<path d="M643.1,461.5c8,-6.7,32,-22.4,83.6,-23.6" class="g3_253"/>
<path d="M734.2,438.8c1.4,1.6,-3.7,4.6,-8.7,4.7" class="g8_253"/>
<path d="M722.7,439.7c2.1,-1.7,6.8,-3.5,15.1,-3.8" class="g3_253"/>
<path d="M745.3,436c48.6,1.3,69.6,14.2,98.1,26.2" class="g8_253"/>
<path d="M639.8,464.6c0,0,.3,-.3,1,-1m87.4,-25.7c.5,0,1,0,1.5,0c.6,0,1.1,0,1.5,0m-7.3,5.5c-.5,-.1,-1,-.2,-1.5,-.3c-.6,-.2,-.9,-.5,-1,-1m17.8,-6.2c.5,0,1,0,1.5,0c.5,0,1,0,1.5,0m102.6,26.9c.5,.2,.9,.4,1.4,.6" class="g4_253"/>
<path d="M844.9,469.1l5.7,-6.8l5.8,10.8Z" class="g9_253"/>
<path d="M519.7,1172.9c0,0,-4.4,0,-4.4,4.3V1188c0,0,0,4.4,4.4,4.4H550c0,0,4.3,0,4.3,-4.4v-10.8c0,0,0,-4.3,-4.3,-4.3Z" class="ga_253"/>
<path d="M506.5,1165.4v34.8m1.3,1H866.3m1,-1.3V1165m-1.4,-1H507.4" class="gb_253"/>
<path d="M506.5,1200.6v.6h.6m359.6,0h.6v-.6m0,-36v-.6h-.6m-359.6,0h-.6v.6" class="gc_253"/>
<path d="M166.3,989.6c0,0,-13,0,-13,12.9v138.2c0,0,0,13,13,13H854.1c0,0,13,0,13,-13V1002.5c0,0,0,-12.9,-13,-12.9Z" class="g1_253"/>
<path d="M166.3,989.6c0,0,-13,0,-13,12.9v138.2c0,0,0,13,13,13H854.1c0,0,13,0,13,-13V1002.5c0,0,0,-12.9,-13,-12.9H166.3Z" class="g2_253"/>
<path d="M231.3,194.5c0,0,-13,0,-13,13v21.6c0,0,0,13,13,13h602c0,0,13,0,13,-13V207.5c0,0,0,-13,-13,-13Z" class="gd_253"/>
<image clip-path="url(#c3_253)" preserveAspectRatio="none" x="174" y="165" width="75" height="76" xlink:href="img/4.png"/>
<path d="M226.1,234.8c0,0,-26.9,11.3,-51.1,-12.8c0,0,15.2,25.3,49.3,24c0,0,24.7,.3,20.2,-10.2c0,0,1.3,-4.4,-18.4,-1Z" class="gd_253"/>
<path d="M230.8,1031.8c0,0,-13,0,-13,12.9v21.7c0,0,0,13,13,13h602c0,0,13,0,13,-13v-21.7c0,0,0,-12.9,-13,-12.9Z" class="gd_253"/>
<image clip-path="url(#c4_253)" preserveAspectRatio="none" x="174" y="1002" width="75" height="76" xlink:href="img/5.png"/>
<path d="M225.6,1072c0,0,-26.8,11.3,-51.1,-12.7c0,0,15.2,25.3,49.3,23.9c0,0,24.8,.4,20.3,-10.1c0,0,1.2,-4.4,-18.5,-1.1Z" class="gd_253"/>
<path d="M153.3,111.9v39L165,161.2V117Z" class="ge_253"/>
<path d="M153.3,111.9v39H851.1c0,0,16.8,0,16.8,-16.8v-5.3c0,0,0,-16.9,-16.8,-16.9Z" class="ga_253"/>
<path d="M802.6,145.6c8.2,0,14.9,-6.5,14.9,-14.5c0,-8.1,-6.7,-14.5,-14.9,-14.5c-8.2,0,-14.9,6.4,-14.9,14.5c0,8,6.7,14.5,14.9,14.5Z" class="gf_253"/>
<path d="M802.6,145.6c8.2,0,14.9,-6.5,14.9,-14.5c0,-8.1,-6.7,-14.5,-14.9,-14.5c-8.2,0,-14.9,6.4,-14.9,14.5c0,8,6.7,14.5,14.9,14.5Z" class="gg_253"/>
<path d="M802.6,136.4c3,0,5.5,-2.4,5.5,-5.3c0,-3,-2.5,-5.4,-5.5,-5.4c-3,0,-5.5,2.4,-5.5,5.4c0,2.9,2.5,5.3,5.5,5.3Z" class="g1_253"/>
<path d="M802.6,136.4c3,0,5.5,-2.4,5.5,-5.3c0,-3,-2.5,-5.4,-5.5,-5.4c-3,0,-5.5,2.4,-5.5,5.4c0,2.9,2.5,5.3,5.5,5.3Z" class="gh_253"/>
<g clip-path="url(#c5_253)" opacity="0.3">
<path d="M788,130.3c0,0,0,-4.8,3.7,-8.7l7.7,6.8c0,0,-1,.9,-1,2.6Z" class="g1_253"/>
</g>
<path d="M807.2,131c0,0,-3.5,0,-3.5,3.4v8.7c0,0,0,3.5,3.5,3.5h43.5c0,0,3.5,0,3.5,-3.5v-8.7c0,0,0,-3.4,-3.5,-3.4Z" class="gi_253"/>
<path d="M191.2,122c0,-8.3,-6.8,-15,-15.1,-15c-8.3,0,-15,6.7,-15,15c0,8.3,6.7,15.1,15,15.1c.8,0,1.7,-.1,2.4,-.2l4.5,5.2v-6.7c4.9,-2.5,8.2,-7.6,8.2,-13.4Z" class="g1_253"/>
<path d="M183.5,143.3l-5.1,-5.9c-.8,.1,-1.5,.1,-2.3,.1c-8.5,0,-15.5,-6.9,-15.5,-15.5c0,-8.5,7,-15.5,15.5,-15.5c8.6,0,15.5,7,15.5,15.5c0,5.7,-3.1,11,-8.1,13.7Zm-4.8,-6.9l3.9,4.5v-5.8l.2,-.1c4.9,-2.5,7.9,-7.5,7.9,-13c0,-8,-6.5,-14.6,-14.6,-14.6c-8,0,-14.6,6.6,-14.6,14.6c0,8.1,6.6,14.6,14.6,14.6c.8,0,1.6,-.1,2.4,-.2Z" class="gj_253"/>
<path d="M169.1,121.6c.8,0,1.4,.6,1.4,1.4c0,.8,-.6,1.5,-1.4,1.5c-.8,0,-1.4,-.7,-1.4,-1.5c0,-.8,.6,-1.4,1.4,-1.4Z" class="gk_253"/>
<path d="M169.1,124.9c-1,0,-1.9,-.8,-1.9,-1.9c0,-1,.9,-1.9,1.9,-1.9c1,0,1.9,.9,1.9,1.9c0,1.1,-.9,1.9,-1.9,1.9m0,-2.9c-.5,0,-1,.5,-1,1c0,.6,.5,1,1,1c.5,0,1,-.4,1,-1c0,-.5,-.5,-1,-1,-1Z" class="gj_253"/>
<path d="M176.1,121.6c.8,0,1.5,.6,1.5,1.4c0,.8,-.7,1.5,-1.5,1.5c-.8,0,-1.4,-.7,-1.4,-1.5c0,-.8,.6,-1.4,1.4,-1.4Z" class="gk_253"/>
<path d="M176.1,124.9c-1,0,-1.9,-.8,-1.9,-1.9c0,-1,.9,-1.9,1.9,-1.9c1.1,0,1.9,.9,1.9,1.9c0,1.1,-.8,1.9,-1.9,1.9m0,-2.9c-.5,0,-1,.5,-1,1c0,.6,.5,1,1,1c.6,0,1,-.4,1,-1c0,-.5,-.4,-1,-1,-1Z" class="gj_253"/>
<path d="M183.1,121.6c.8,0,1.5,.6,1.5,1.4c0,.8,-.7,1.5,-1.5,1.5c-.8,0,-1.4,-.7,-1.4,-1.5c0,-.8,.6,-1.4,1.4,-1.4Z" class="gk_253"/>
<path d="M183.1,124.9c-1,0,-1.9,-.8,-1.9,-1.9c0,-1,.9,-1.9,1.9,-1.9c1.1,0,1.9,.9,1.9,1.9c0,1.1,-.8,1.9,-1.9,1.9m0,-2.9c-.5,0,-1,.5,-1,1c0,.6,.5,1,1,1c.6,0,1,-.4,1,-1c0,-.5,-.4,-1,-1,-1Z" class="gj_253"/>
<path d="M185.1,136.3c0,-9.8,7.8,-17.7,17.6,-17.7c9.7,0,17.6,7.9,17.6,17.7c0,9.7,-7.9,17.6,-17.6,17.6c-1,0,-1.9,-.1,-2.9,-.3l-5.2,6.1v-7.8c-5.7,-2.9,-9.5,-8.8,-9.5,-15.6Z" class="gl_253"/>
<path d="M194.6,160.2q-.1,0,-.2,0c-.2,-.1,-.3,-.3,-.3,-.5v-7.5c-5.9,-3.2,-9.5,-9.2,-9.5,-15.9c0,-10,8.1,-18.1,18.1,-18.1c9.9,0,18,8.1,18,18.1c0,9.9,-8.1,18,-18,18c-.9,0,-1.8,0,-2.7,-.2l-5.1,5.9c-.1,.1,-.2,.2,-.3,.2m8.1,-41.1c-9.5,0,-17.2,7.7,-17.2,17.2c0,6.4,3.6,12.2,9.3,15.2c.1,.1,.2,.2,.2,.4v6.6l4.5,-5.2c.1,-.1,.3,-.1,.4,-.1c1,.1,1.9,.2,2.8,.2c9.4,0,17.1,-7.7,17.1,-17.1c0,-9.5,-7.7,-17.2,-17.1,-17.2Z" class="gj_253"/>
<path d="M210.9,135.8c.9,0,1.6,.7,1.6,1.6c0,1,-.7,1.7,-1.6,1.7c-1,0,-1.7,-.7,-1.7,-1.7c0,-.9,.7,-1.6,1.7,-1.6Z" class="g1_253"/>
<path d="M210.9,139.6c-1.2,0,-2.2,-1,-2.2,-2.2c0,-1.1,1,-2.1,2.2,-2.1c1.1,0,2.1,1,2.1,2.1c0,1.2,-1,2.2,-2.1,2.2m0,-3.4c-.7,0,-1.3,.6,-1.3,1.2c0,.7,.6,1.3,1.3,1.3c.6,0,1.2,-.6,1.2,-1.3c0,-.6,-.6,-1.2,-1.2,-1.2Z" class="gj_253"/>
<path d="M202.7,135.8c.9,0,1.6,.7,1.6,1.6c0,1,-.7,1.7,-1.6,1.7c-1,0,-1.7,-.7,-1.7,-1.7c0,-.9,.7,-1.6,1.7,-1.6Z" class="g1_253"/>
<path d="M202.7,139.6c-1.2,0,-2.2,-1,-2.2,-2.2c0,-1.1,1,-2.1,2.2,-2.1c1.1,0,2.1,1,2.1,2.1c0,1.2,-1,2.2,-2.1,2.2m0,-3.4c-.7,0,-1.3,.6,-1.3,1.2c0,.7,.6,1.3,1.3,1.3c.6,0,1.2,-.6,1.2,-1.3c0,-.6,-.6,-1.2,-1.2,-1.2Z" class="gj_253"/>
<path d="M194.5,135.8c.9,0,1.6,.7,1.6,1.6c0,1,-.7,1.7,-1.6,1.7c-1,0,-1.7,-.7,-1.7,-1.7c0,-.9,.7,-1.6,1.7,-1.6Z" class="g1_253"/>
<path d="M194.5,139.6c-1.2,0,-2.2,-1,-2.2,-2.2c0,-1.1,1,-2.1,2.2,-2.1c1.1,0,2.1,1,2.1,2.1c0,1.2,-1,2.2,-2.1,2.2m0,-3.4c-.7,0,-1.2,.6,-1.2,1.2c0,.7,.5,1.3,1.2,1.3c.6,0,1.2,-.6,1.2,-1.3c0,-.6,-.6,-1.2,-1.2,-1.2Z" class="gj_253"/>
<image clip-path="url(#c6_253)" x="795" y="469" width="6" height="10" xlink:href="shade/1.png"/>
<image clip-path="url(#c7_253)" x="794" y="443" width="25" height="28" xlink:href="shade/2.png"/>
<image clip-path="url(#c8_253)" x="794" y="445" width="23" height="34" xlink:href="shade/3.png"/>
<image clip-path="url(#c9_253)" x="800" y="441" width="20" height="10" xlink:href="shade/4.png"/>
<path d="M32.1,45.1H9.2m958.3,0h22.9M32.1,1331.3H9.2m958.3,0h22.9M45.1,32.1V9.2m0,1335.1v22.9M954.5,32.1V9.2m0,1335.1v22.9" class="gm_253"/>
<path d="M32.1,45.1H9.2m958.3,0h22.9M32.1,1331.3H9.2m958.3,0h22.9M45.1,32.1V9.2m0,1335.1v22.9M954.5,32.1V9.2m0,1335.1v22.9" class="gn_253"/>
<path d="M27.5,32.1H0m972.1,0h27.5M27.5,1344.3H0m972.1,0h27.5M32.1,27.5V0m0,1348.9v27.5M967.5,27.5V0m0,1348.9v27.5" class="gm_253"/>
<path d="M27.5,32.1H0m972.1,0h27.5M27.5,1344.3H0m972.1,0h27.5M32.1,27.5V0m0,1348.9v27.5M967.5,27.5V0m0,1348.9v27.5" class="gn_253"/>
</svg>