<?xml version="1.0" encoding="UTF-8" standalone="no"?>
<!DOCTYPE svg PUBLIC "-//W3C//DTD SVG 1.1//EN"
"http://www.w3.org/Graphics/SVG/1.1/DTD/svg11.dtd">
<svg viewBox="0 0 999 1376" version="1.1" xmlns="http://www.w3.org/2000/svg" xmlns:xlink="http://www.w3.org/1999/xlink">
<defs>
<clipPath id="c0_329"><path d="M153.3,1244.7V134.2H867.9V1244.7Z"/></clipPath>
<style type="text/css"><![CDATA[
.g0_329{
fill: #FFF;
}
.g1_329{
fill: none;
stroke: #231F20;
stroke-width: 0.756;
stroke-miterlimit: 3;
}
.g2_329{
fill: #B6C1DE;
}
.g3_329{
fill: none;
stroke: #6381B7;
stroke-width: 0.381;
stroke-miterlimit: 10;
}
.g4_329{
fill: #25408F;
}
.g5_329{
fill: #6381B7;
}
.g6_329{
fill: #FFDE2C;
}
.g7_329{
fill: none;
stroke: #231F20;
stroke-width: 1.451;
stroke-miterlimit: 10;
}
.g8_329{
fill: #D2D3D5;
}
.g9_329{
fill: #A8AAAD;
}
.ga_329{
fill: none;
stroke: #231F20;
stroke-width: 0.828;
stroke-miterlimit: 10;
}
.gb_329{
fill: #6CCFF6;
}
.gc_329{
fill: none;
stroke: #231F20;
stroke-width: 0.828;
stroke-linecap: round;
stroke-linejoin: round;
}
.gd_329{
fill: none;
stroke: #231F20;
stroke-width: 1.451;
stroke-linecap: round;
stroke-linejoin: round;
}
.ge_329{
fill: none;
stroke: #FFF;
stroke-width: 1.909;
stroke-miterlimit: 10;
}
.gf_329{
fill: none;
stroke: #000;
stroke-width: 0.381;
stroke-miterlimit: 10;
}
]]></style>
</defs>
<path d="M153.3,1244.7H867.9V134.1H153.3V1244.7Z" class="g0_329"/>
<image clip-path="url(#c0_329)" preserveAspectRatio="none" x="151" y="132" width="719" height="1115" xlink:href="img/1.jpg"/>
<path d="M356.6,182.9c-.4,.6,-.8,1.2,-1.4,1.6c-.6,.5,-1.2,.8,-2,1.1c-.8,.2,-1.6,.3,-2.5,.3c-.9,0,-1.7,-.1,-2.5,-.3c-.7,-.3,-1.4,-.6,-1.9,-1.1c-.6,-.4,-1.1,-1,-1.4,-1.7c-.3,-.6,-.5,-1.3,-.5,-2.2c0,-.7,.2,-1.3,.4,-1.9c.3,-.6,.6,-1.1,1.1,-1.6h-3.6v-1.8h6.9c.2,-.4,.3,-.7,.3,-.9c.1,-.3,.1,-.5,.1,-.8c0,-.2,0,-.4,-.1,-.7c-.1,-.2,-.1,-.5,-.2,-.8l2.3,-.6c.1,.2,.1,.4,.2,.7c0,.3,.1,.5,.1,.8c0,.4,-.1,.8,-.2,1.2c-.1,.4,-.2,.7,-.4,1.1h7.9v1.8h-3.6c.5,.5,.8,1,1.1,1.6c.3,.6,.4,1.2,.4,1.9c0,.9,-.2,1.6,-.5,2.3Zm-10.8,13.9V190h-5.5v-1.9h21.3V190H356v6.8h-2.3V190H348v6.8h-2.2Zm8,-18.6c-.6,-.7,-1.7,-1,-3.1,-1c-1.5,0,-2.5,.3,-3.1,1c-.6,.7,-.9,1.5,-.9,2.4c0,1,.3,1.8,.9,2.5c.6,.7,1.7,1,3.1,1c1.4,0,2.5,-.3,3.1,-1c.7,-.7,1,-1.5,1,-2.5c0,-.9,-.3,-1.7,-1,-2.4Zm32.4,5.7h-4.3v12h-2.3V173.4h2.3V182h4.3v1.9Zm-22.4,5.8c2.8,-1.8,5,-3.8,6.5,-6c1.6,-2.2,2.6,-4.5,2.8,-6.7c0,-.3,0,-.6,-.2,-.7c-.1,-.1,-.3,-.1,-.5,-.1h-8.8v-1.9h9.7c.9,0,1.4,.3,1.7,.7c.3,.5,.4,1.1,.3,1.8c-.2,2.6,-1.2,5.1,-2.9,7.6c-1.7,2.6,-4.1,4.9,-7.3,7.1l-1.3,-1.8Zm39.3,5.6V182.9h-3.4c-.2,1.9,-.8,3.4,-1.7,4.5c-1,1.2,-2.3,1.8,-3.9,1.8c-1.8,0,-3.2,-.7,-4.2,-2.1c-1,-1.3,-1.5,-3.1,-1.5,-5.2c0,-2.2,.5,-3.9,1.5,-5.3c1,-1.4,2.4,-2,4.2,-2c1.6,0,2.9,.5,3.9,1.7c1,1.2,1.5,2.7,1.7,4.6h3.4v-7.5h2.2v21.9h-2.2Zm-5.7,-15.5c-.1,-.6,-.3,-1.2,-.6,-1.7c-.3,-.5,-.7,-.9,-1.1,-1.2c-.5,-.3,-1,-.5,-1.6,-.5c-.7,0,-1.2,.2,-1.7,.5c-.4,.3,-.8,.7,-1.1,1.2c-.3,.5,-.5,1.1,-.6,1.7c-.1,.7,-.1,1.4,-.1,2.1c0,.7,0,1.3,.1,2c.1,.6,.3,1.2,.6,1.7c.3,.5,.7,.9,1.1,1.2c.5,.3,1,.5,1.7,.5c.6,0,1.1,-.2,1.6,-.5c.4,-.3,.8,-.7,1.1,-1.2c.3,-.5,.5,-1.1,.6,-1.7c.1,-.7,.2,-1.3,.2,-2c0,-.7,-.1,-1.4,-.2,-2.1Zm10.9,-6.4h2.2v22.5h-2.2V173.4ZM434,195.3v-6.8c-.6,.2,-1.2,.5,-1.8,.7c-.7,.1,-1.3,.3,-2,.5c-.6,.1,-1.3,.2,-1.9,.3c-.6,0,-1.2,.1,-1.7,.1h-2.4c-.8,0,-1.5,-.2,-2,-.6c-.6,-.4,-.8,-1.1,-.8,-2V174.3h9.8v1.9h-7.6v11.2c0,.3,.1,.6,.2,.7c.2,.1,.4,.1,.7,.1h2.1c1.2,0,2.4,-.1,3.7,-.4c1.3,-.2,2.5,-.7,3.7,-1.4v-13h2.2v8.2h4v-8.2h2.2v22.5h-2.2V183.6h-4v11.7H434ZM457.6,185c-.3,.6,-.8,1.1,-1.3,1.6c-.5,.4,-1.1,.8,-1.9,1c-.7,.2,-1.4,.4,-2.2,.4c-.8,0,-1.5,-.2,-2.2,-.4c-.8,-.2,-1.4,-.5,-1.9,-1c-.5,-.4,-1,-.9,-1.3,-1.5c-.3,-.6,-.4,-1.3,-.4,-2.1c0,-.7,.1,-1.4,.4,-1.9c.3,-.6,.7,-1.2,1.3,-1.6c.5,-.4,1.1,-.8,1.8,-1c.7,-.3,1.5,-.4,2.3,-.4c.8,0,1.6,.1,2.3,.4c.7,.2,1.4,.6,1.9,1c.5,.4,.9,1,1.2,1.6c.3,.5,.5,1.2,.5,1.9c0,.8,-.2,1.4,-.5,2Zm11.5,-2.4h-4.3v7.9h-2.3V173.1h2.3v7.6h4.3v1.9Zm-17,14.9c-.9,0,-1.5,-.2,-1.9,-.6c-.4,-.3,-.5,-.9,-.5,-1.6v-5.2h2.2v4.8c0,.3,.1,.5,.2,.6c.1,.1,.3,.2,.7,.2h7.1c1,0,2,-.1,2.8,-.2c.9,-.1,1.8,-.3,2.7,-.7l.5,1.8c-1.1,.3,-2.1,.5,-3,.7c-.9,.1,-1.9,.2,-3,.2h-7.8Zm2.6,-16.8c-.7,-.5,-1.5,-.8,-2.5,-.8c-1,0,-1.8,.3,-2.5,.8c-.7,.6,-1.1,1.3,-1.1,2.3c0,1.1,.4,1.9,1.1,2.4c.7,.5,1.5,.8,2.5,.8c1,0,1.8,-.3,2.5,-.8c.8,-.5,1.1,-1.3,1.1,-2.4c0,-1,-.3,-1.7,-1.1,-2.3Zm4.8,-3.5H445v-1.7h5.4c.3,-.4,.4,-.8,.5,-1.1c.1,-.3,.1,-.6,.1,-1c0,-.1,0,-.2,0,-.3c0,-.1,-.1,-.3,-.1,-.3c0,-.1,0,-.2,-.1,-.3c0,-.1,0,-.2,0,-.3l2.1,-.7c.1,.3,.2,.6,.2,.9c.1,.3,.1,.6,.1,.9c0,.4,-.1,.8,-.2,1.1c-.1,.4,-.2,.8,-.4,1.1h6.9v1.7Zm38.9,8.3H477.1v-1.8h15c.1,-.6,.2,-1.2,.4,-1.9c.1,-.7,.2,-1.4,.2,-2.1c.1,-.6,.2,-1.3,.2,-2c0,-.7,.1,-1.3,.1,-1.9c0,-.2,-.1,-.4,-.2,-.5c-.1,-.1,-.3,-.2,-.6,-.2H479.9v-1.8h12.9c.8,0,1.4,.2,1.8,.5c.4,.3,.6,.8,.6,1.5c0,.6,0,1.2,-.1,1.9c0,.7,-.1,1.4,-.2,2.2c-.1,.7,-.2,1.4,-.3,2.2c-.1,.7,-.2,1.4,-.4,2.1h4.2v1.8Zm-16.3,12c-.8,0,-1.4,-.2,-1.8,-.6c-.4,-.3,-.6,-.9,-.6,-1.6v-6.4H482v6c0,.3,0,.5,.1,.6c.2,.1,.4,.2,.7,.2H490c1,0,2,-.1,2.8,-.2c.9,-.1,1.8,-.3,2.7,-.7l.5,1.8c-1.1,.3,-2.1,.5,-3,.7c-.9,.1,-1.9,.2,-3,.2h-7.9ZM505,184.1c0,.3,.1,.5,.2,.7c.2,.1,.4,.2,.6,.2h5.5c1.1,0,2.3,0,3.4,-.1c1.2,-.1,2.4,-.3,3.7,-.7l.4,1.8c-.7,.2,-1.3,.3,-1.9,.4c-.6,.1,-1.2,.2,-1.7,.3c-.6,0,-1.2,.1,-1.7,.1c-.6,0,-1.2,0,-1.9,0v4.3h9.7v1.8H500v-1.8h9.4v-4.3h-3.7c-1,0,-1.7,-.2,-2.2,-.6c-.5,-.4,-.7,-1,-.7,-1.8v-4.9h12.8v-3.6H502.8v-1.8h15v6.6c-.6,.2,-1.2,.4,-1.8,.5c-.6,.1,-1.2,.1,-1.9,.1H505v2.8Zm25.8,5.6c2.7,-1.8,4.9,-3.8,6.5,-6c1.5,-2.2,2.5,-4.5,2.7,-6.7c.1,-.3,0,-.6,-.1,-.7c-.2,-.1,-.4,-.1,-.6,-.1h-8.7v-1.9h9.6c.9,0,1.4,.3,1.7,.7c.3,.5,.4,1.1,.4,1.8c-.3,2.6,-1.3,5.1,-3,7.6c-1.7,2.6,-4.1,4.9,-7.3,7.1l-1.2,-1.8Zm16.4,-16.3h2.2v22.5h-2.2V173.4ZM569.2,173.3c.3,0,.6,.1,.8,.2c.2,.2,.3,.3,.3,.6c.1,.1,.1,.4,.1,.6c-.1,.2,-.2,.4,-.3,.5c-.5,.6,-1,1.2,-1.6,1.8c-.6,.6,-1.3,1.1,-2,1.6c.5,.1,1,.2,1.4,.3c.4,.2,.8,.4,1.1,.5c.4,.3,1,.6,1.6,1c.6,.4,1.2,.8,1.8,1.2l-1.2,1.7c-.5,-.4,-1.1,-.8,-1.7,-1.2c-.6,-.4,-1.2,-.8,-1.8,-1.2c-.3,-.1,-.8,-.3,-1.3,-.5c-.5,-.2,-1.1,-.3,-2,-.4c-1.3,.7,-2.7,1.4,-4.2,1.9c-1.6,.6,-3.1,1,-4.8,1.4l-.4,-2c1.4,-.3,2.7,-.7,3.9,-1c1.1,-.4,2.2,-.9,3.2,-1.3c.9,-.5,1.9,-1.1,2.7,-1.7c.9,-.6,1.8,-1.4,2.7,-2.2h-11v-1.8h12.7Zm-6.3,18.8V187h-9.8v-1.8h21.3V187h-9.2v5.1h-2.3Zm-4.4,5.4c-.8,0,-1.4,-.2,-1.8,-.6c-.4,-.3,-.6,-.9,-.6,-1.6v-5.5h2.3v5.1c0,.3,0,.5,.1,.6c.2,.1,.4,.2,.7,.2h7.2c1,0,2,-.1,2.8,-.2c.9,-.1,1.8,-.3,2.7,-.7l.5,1.8c-1.1,.3,-2.1,.5,-3,.7c-.9,.1,-1.9,.2,-3,.2h-7.9Zm27.4,-12.8c-1.1,.3,-2.2,.4,-3.1,.4h-3c-.9,0,-1.5,-.1,-2,-.5c-.4,-.4,-.6,-1,-.6,-1.7v-9.4h2.2v3.9h7.2v-3.9h2.2V178h5.3v-4.9h2.3v13.2h-2.3v-6.5h-5.3v3.6c-.8,.5,-1.8,.9,-2.9,1.3Zm10.5,3V197c0,.3,-.1,.5,-.2,.6c-.1,.1,-.3,.2,-.5,.2h-12c-.9,0,-1.6,-.2,-2,-.5c-.5,-.3,-.7,-1,-.7,-1.9v-7.7h2.2V191h11v-3.3h2.2Zm-2.2,8.3v-3.3h-11v2.6c0,.3,.1,.4,.2,.5c.1,.1,.3,.2,.5,.2h10.3ZM579.4,182.6c0,.3,.1,.5,.2,.6c.1,.1,.3,.1,.6,.1h2.6c.6,0,1.2,0,1.9,-.2c.7,-.1,1.3,-.3,1.9,-.7v-3.2h-7.2v3.4Zm34.1,-.2c-.4,.8,-.8,1.5,-1.4,2c-.6,.6,-1.3,1,-2.1,1.3c-.8,.3,-1.7,.4,-2.6,.4c-1,0,-1.9,-.1,-2.7,-.4c-.8,-.3,-1.5,-.7,-2.1,-1.3c-.6,-.5,-1,-1.2,-1.3,-2c-.3,-.7,-.5,-1.6,-.5,-2.5c0,-1,.2,-1.8,.5,-2.6c.3,-.7,.8,-1.4,1.4,-1.9c.5,-.6,1.2,-1,2,-1.3c.8,-.3,1.7,-.5,2.7,-.5c.9,0,1.8,.2,2.6,.5c.8,.3,1.5,.7,2.1,1.3c.6,.5,1,1.2,1.4,1.9c.3,.8,.4,1.6,.4,2.6c0,.9,-.1,1.8,-.4,2.5Zm6.4,13.5h-2.3v-5.6c-1.1,.7,-2.3,1.2,-3.6,1.5c-1.3,.3,-2.7,.4,-4.4,.4h-9.8v-1.8h9.7c1.5,0,2.9,-.2,4.2,-.5c1.3,-.3,2.6,-.9,3.9,-1.7V173.4h2.3v22.5Zm-9.4,-19.3c-.8,-.7,-1.9,-1.2,-3.1,-1.2c-1.3,0,-2.3,.5,-3.1,1.2c-.8,.8,-1.2,1.9,-1.2,3.3c0,1.4,.4,2.5,1.2,3.3c.8,.7,1.8,1.1,3.1,1.1c1.2,0,2.3,-.4,3.1,-1.1c.8,-.8,1.2,-1.9,1.2,-3.3c0,-1.4,-.4,-2.5,-1.2,-3.3Zm40.2,19.3h-2.3V173.4h2.3v22.5Zm-7.1,-11.2c-.3,.9,-.7,1.7,-1.3,2.3c-.6,.7,-1.3,1.2,-2.2,1.6c-.8,.3,-1.8,.5,-2.8,.5c-1.1,0,-2,-.2,-2.9,-.5c-.8,-.4,-1.5,-.9,-2.1,-1.6c-.6,-.6,-1,-1.4,-1.3,-2.3c-.4,-.9,-.5,-1.8,-.5,-2.8c0,-1,.1,-2,.5,-2.9c.3,-.9,.7,-1.6,1.3,-2.3c.6,-.6,1.3,-1.2,2.1,-1.5c.9,-.4,1.8,-.6,2.9,-.6c1,0,2,.2,2.8,.6c.9,.3,1.6,.9,2.2,1.5c.6,.7,1,1.4,1.3,2.3c.3,.9,.5,1.9,.5,2.9c0,1,-.2,1.9,-.5,2.8Zm-2.1,-4.9c-.2,-.6,-.5,-1.2,-.9,-1.7c-.3,-.5,-.8,-.9,-1.4,-1.2c-.6,-.3,-1.2,-.4,-1.9,-.4c-.8,0,-1.4,.1,-2,.4c-.5,.3,-1,.7,-1.4,1.2c-.3,.5,-.6,1.1,-.8,1.7c-.2,.7,-.3,1.4,-.3,2.1c0,.7,.1,1.4,.3,2c.2,.7,.5,1.2,.8,1.7c.4,.5,.9,.9,1.4,1.2c.6,.3,1.2,.4,2,.4c.7,0,1.3,-.1,1.9,-.4c.6,-.3,1.1,-.7,1.4,-1.2c.4,-.5,.7,-1,.9,-1.7c.2,-.6,.3,-1.3,.3,-2c0,-.7,-.1,-1.4,-.3,-2.1Zm23.2,7.8c-.2,.7,-.6,1.3,-1.1,1.8c-.5,.6,-1.1,1,-1.8,1.3c-.7,.3,-1.5,.4,-2.3,.4c-.9,0,-1.7,-.2,-2.4,-.5c-.7,-.2,-1.3,-.7,-1.8,-1.2c-.5,-.5,-.9,-1.1,-1.2,-1.8c-.2,-.7,-.3,-1.5,-.3,-2.3c0,-.8,.1,-1.5,.3,-2.3c.3,-.7,.7,-1.3,1.2,-1.8c.4,-.5,1,-.9,1.7,-1.3c.7,-.3,1.6,-.4,2.5,-.4c.9,0,1.7,.1,2.4,.4c.7,.4,1.3,.8,1.8,1.3c.5,.5,.8,1.2,1.1,1.9c.2,.7,.4,1.4,.4,2.2c0,.8,-.2,1.6,-.5,2.3Zm3,7.7V173.4h2.2v9.3h3.4v-9.3h2.2v22.5h-2.2V184.6h-3.4v10.7h-2.2Zm-4.9,-11.5c-.1,-.4,-.3,-.9,-.6,-1.2c-.3,-.4,-.7,-.7,-1.1,-.9c-.5,-.2,-1,-.4,-1.6,-.4c-1.3,0,-2.2,.4,-2.8,1.3c-.5,.8,-.8,1.7,-.8,2.7c0,1,.3,2,.8,2.8c.6,.8,1.5,1.2,2.8,1.2c1.2,0,2.2,-.4,2.7,-1.2c.6,-.8,.8,-1.8,.8,-2.8c0,-.5,0,-1,-.2,-1.5ZM658,176.4c.2,-.3,.3,-.6,.4,-.9c.1,-.3,.1,-.6,.1,-.9c0,-.4,0,-.7,-.1,-.9c0,-.3,-.1,-.5,-.2,-.8l2.2,-.7c.2,.3,.2,.7,.3,1c0,.3,0,.5,0,.7c0,.5,0,.9,-.2,1.3c-.1,.5,-.3,.8,-.5,1.2h6v1.8H652.9v-1.8H658Z" class="g1_329"/>
<path d="M198.2,624.2H328.1v44.6H198.2V624.2Zm129.9,0H592.3v44.6H328.1V624.2Zm264.2,0H842.8v44.6H592.3V624.2Z" class="g2_329"/>
<path d="M198,624.2H328.1M198.2,668.6V624.4m129.9,-.2H592.3M328.1,668.6V624.4m264.2,-.2H843M592.3,668.6V624.4m250.5,44.2V624.4M198,668.8H328.1M198.2,736.2V669m129.9,-.2H592.3M328.1,736.2V669m264.2,-.2H843M592.3,736.2V669m250.5,67.2V669M198,736.4H328.1M198.2,795.1V736.6m129.9,-.2H592.3M328.1,795.1V736.6m264.2,-.2H843M592.3,795.1V736.6m250.5,58.5V736.6M198,795.3H328.1m0,0H592.3m0,0H843" class="g3_329"/>
<path d="M153.3,126.3v22.2L165,158.7V136.5Z" class="g4_329"/>
<path d="M153.3,109.5v39H851.1c0,0,16.8,0,16.8,-16.8v-5.4c0,0,0,-16.8,-16.8,-16.8Z" class="g5_329"/>
<path d="M207.2,115.7c0,-9.1,-7.9,-16.6,-17.7,-16.6c-9.8,0,-17.7,7.5,-17.7,16.6c0,2.7,.6,5.2,1.8,7.4c1.2,2.4,2.9,4.6,5,6.2c1.2,1,1.6,1.7,1.7,4.3v.6c0,3.3,2.7,5.9,5.9,5.9h6.6c3.2,0,5.8,-2.6,5.8,-5.9v-.6c.2,-2.6,.6,-3.3,1.8,-4.3c2.1,-1.6,3.8,-3.8,5,-6.2c1.2,-2.2,1.8,-4.7,1.8,-7.4Z" class="g6_329"/>
<path d="M207.2,115.7c0,-9.1,-7.9,-16.6,-17.7,-16.6c-9.8,0,-17.7,7.5,-17.7,16.6c0,2.7,.6,5.2,1.8,7.4c1.2,2.4,2.9,4.6,5,6.2c1.2,1,1.6,1.7,1.7,4.3v.6c0,3.3,2.7,5.9,5.9,5.9h6.6c3.2,0,5.8,-2.6,5.8,-5.9v-.6c.2,-2.6,.6,-3.3,1.8,-4.3c2.1,-1.6,3.8,-3.8,5,-6.2c1.2,-2.2,1.8,-4.7,1.8,-7.4Z" class="g7_329"/>
<path d="M194.6,147.4c0,2.8,-2.3,5.1,-5.1,5.1c-2.8,0,-5.1,-2.3,-5.1,-5.1c0,-2.8,2.3,-5.1,5.1,-5.1c2.8,0,5.1,2.3,5.1,5.1Z" class="g0_329"/>
<path d="M194.6,147.4c0,2.8,-2.3,5.1,-5.1,5.1c-2.8,0,-5.1,-2.3,-5.1,-5.1c0,-2.8,2.3,-5.1,5.1,-5.1c2.8,0,5.1,2.3,5.1,5.1Z" class="g7_329"/>
<path d="M182.1,140.2c0,1,.8,1.8,1.8,1.8h11.2c1,0,1.8,-.8,1.8,-1.8v-1.3H182.1Z" class="g0_329"/>
<path d="M182.1,140.2c0,1,.8,1.8,1.8,1.8h11.2c1,0,1.8,-.8,1.8,-1.8v-1.3H182.1v1.3Z" class="g7_329"/>
<path d="M196.9,143.2c0,.8,-.6,1.3,-1.3,1.3H183.4c-.8,0,-1.3,-.5,-1.3,-1.3c0,-.7,.5,-1.3,1.3,-1.3h12.2c.7,0,1.3,.6,1.3,1.3Z" class="g0_329"/>
<path d="M196.9,143.2c0,.8,-.6,1.3,-1.3,1.3H183.4c-.8,0,-1.3,-.5,-1.3,-1.3c0,-.7,.5,-1.3,1.3,-1.3h12.2c.7,0,1.3,.6,1.3,1.3Z" class="g7_329"/>
<path d="M196.9,145.8c0,.7,-.6,1.3,-1.3,1.3H183.4c-.8,0,-1.3,-.6,-1.3,-1.3c0,-.7,.5,-1.3,1.3,-1.3h12.2c.7,0,1.3,.6,1.3,1.3Z" class="g0_329"/>
<path d="M196.9,145.8c0,.7,-.6,1.3,-1.3,1.3H183.4c-.8,0,-1.3,-.6,-1.3,-1.3c0,-.7,.5,-1.3,1.3,-1.3h12.2c.7,0,1.3,.6,1.3,1.3Z" class="g7_329"/>
<path d="M215.5,128.7l8.3,10.4c.6,.7,1.8,.6,2.7,-.2c.9,-.7,1.2,-1.9,.7,-2.6l-8.9,-10.2Z" class="g8_329"/>
<path d="M215.5,128.7l8.3,10.4c.6,.7,1.8,.6,2.7,-.2c.9,-.7,1.2,-1.9,.7,-2.6l-8.9,-10.2l-2.8,2.6Z" class="g7_329"/>
<path d="M217.5,125.1c.5,.6,.3,1.8,-.7,2.6c-.9,.7,-2.1,.8,-2.6,.2c-.6,-.7,-.3,-1.9,.6,-2.6c.9,-.8,2.1,-.9,2.7,-.2Z" class="g9_329"/>
<path d="M217.5,125.1c.5,.6,.3,1.8,-.7,2.6c-.9,.7,-2.1,.8,-2.6,.2c-.6,-.7,-.3,-1.9,.6,-2.6c.9,-.8,2.1,-.9,2.7,-.2Z" class="g7_329"/>
<path d="M212.7,124.7l1.7,2c.3,.3,1,.3,1.5,-.1c.5,-.5,.7,-1.1,.4,-1.5l-1.7,-2Z" class="g0_329"/>
<path d="M212.7,124.7l1.7,2c.3,.3,1,.3,1.5,-.1c.5,-.5,.7,-1.1,.4,-1.5l-1.7,-2l-1.9,1.6Z" class="ga_329"/>
<path d="M214.8,122.9c.4,.5,.2,1.3,-.5,1.8c-.6,.5,-1.4,.6,-1.8,.1c-.4,-.4,-.2,-1.2,.5,-1.7c.6,-.6,1.4,-.6,1.8,-.2Z" class="g0_329"/>
<path d="M214.8,122.9c.4,.5,.2,1.3,-.5,1.8c-.6,.5,-1.4,.6,-1.8,.1c-.4,-.4,-.2,-1.2,.5,-1.7c.6,-.6,1.4,-.6,1.8,-.2Z" class="ga_329"/>
<path d="M216.4,105.4c4.8,5.7,4.1,14.2,-1.7,19c-5.7,4.8,-14.2,4,-19,-1.7c-4.8,-5.7,-4,-14.2,1.7,-19c5.7,-4.8,14.2,-4.1,19,1.7Z" class="g0_329"/>
<path d="M216.4,105.4c4.8,5.7,4.1,14.2,-1.7,19c-5.7,4.8,-14.2,4,-19,-1.7c-4.8,-5.7,-4,-14.2,1.7,-19c5.7,-4.8,14.2,-4.1,19,1.7Z" class="g7_329"/>
<path d="M214,107.4c3.5,4.2,3,10.5,-1.3,14.1c-4.2,3.5,-10.5,2.9,-14,-1.3c-3.5,-4.2,-3,-10.5,1.2,-14c4.2,-3.6,10.5,-3,14.1,1.2Z" class="gb_329"/>
<path d="M214,107.4c3.5,4.2,3,10.5,-1.3,14.1c-4.2,3.5,-10.5,2.9,-14,-1.3c-3.5,-4.2,-3,-10.5,1.2,-14c4.2,-3.6,10.5,-3,14.1,1.2Z" class="g7_329"/>
<path d="M213,110.6l-3.1,3m3.1,-.4l-3.1,3" class="gc_329"/>
<path d="M172.1,99l3.1,3.3m1.1,-5.9l1.2,3.9m-8.1,3l3.7,1.2" class="gd_329"/>
<path d="M185.8,106.1c1.2,1.2,.2,4.3,-2.2,6.7c-2.5,2.5,-5.5,3.5,-6.8,2.3c-1.2,-1.3,-.3,-4.3,2.2,-6.8c2.5,-2.5,5.5,-3.5,6.8,-2.2Z" class="g0_329"/>
<path d="M203.7,107.6c.6,.6,.1,1.9,-.9,3c-1.1,1,-2.4,1.5,-3,.9c-.5,-.5,-.1,-1.8,1,-2.9c1.1,-1.1,2.4,-1.5,2.9,-1Z" class="g0_329"/>
<path d="M32.1,45.1H9.2m958.3,0h22.9M32.1,1331.3H9.2m958.3,0h22.9M45.1,32.1V9.2m0,1335.1v22.9M954.5,32.1V9.2m0,1335.1v22.9" class="ge_329"/>
<path d="M32.1,45.1H9.2m958.3,0h22.9M32.1,1331.3H9.2m958.3,0h22.9M45.1,32.1V9.2m0,1335.1v22.9M954.5,32.1V9.2m0,1335.1v22.9" class="gf_329"/>
<path d="M27.5,32.1H0m972.1,0h27.5M27.5,1344.3H0m972.1,0h27.5M32.1,27.5V0m0,1348.9v27.5M967.5,27.5V0m0,1348.9v27.5" class="ge_329"/>
<path d="M27.5,32.1H0m972.1,0h27.5M27.5,1344.3H0m972.1,0h27.5M32.1,27.5V0m0,1348.9v27.5M967.5,27.5V0m0,1348.9v27.5" class="gf_329"/>
</svg>