<?xml version="1.0" encoding="UTF-8" standalone="no"?>
<!DOCTYPE svg PUBLIC "-//W3C//DTD SVG 1.1//EN"
"http://www.w3.org/Graphics/SVG/1.1/DTD/svg11.dtd">
<svg viewBox="0 0 999 1376" version="1.1" xmlns="http://www.w3.org/2000/svg" xmlns:xlink="http://www.w3.org/1999/xlink">
<defs>
<clipPath id="c0_4"><path d="M32.1,1344.3V32.1H967.5V1344.3Z"/></clipPath>
<clipPath id="c1_4"><path d="M651,1090.6V798H861.7v292.6Z"/></clipPath>
<clipPath id="c2_4"><path d="M662.1,1083.9c-5.8,-.6,-5.9,-6.6,-5.9,-6.8v-267c0,-5.6,4.5,-6.6,6.2,-6.9H848.8c5.9,.7,5.9,6.9,5.9,6.9v267c0,5.5,-4.5,6.6,-6.2,6.8Z"/></clipPath>
<clipPath id="c3_4"><path d="M139.7,562.2V269.6H350.4V562.2Z"/></clipPath>
<clipPath id="c4_4"><path d="M150.8,555.6c-5.8,-.7,-5.9,-6.6,-5.9,-6.8V281.7c0,-5.5,4.5,-6.6,6.2,-6.8H337.5c5.9,.6,5.9,6.8,5.9,6.8V548.8c0,5.5,-4.5,6.6,-6.2,6.8Z"/></clipPath>
<clipPath id="c5_4"><path d="M150.8,555.6c-5.8,-.7,-5.9,-6.7,-5.9,-6.8V281.7c0,-5.5,4.5,-6.6,6.2,-6.8H337.5c5.9,.6,5.9,6.8,5.9,6.8V548.8c0,5.5,-4.5,6.6,-6.2,6.8Z"/></clipPath>
<clipPath id="c6_4"><path d="M181.3,501.9V483.5h18.9v18.4Z"/></clipPath>
<clipPath id="c7_4"><path d="M181.7,501.1V486.6h16.7v14.5Z"/></clipPath>
<clipPath id="c8_4"><path d="M257.6,500.1V485.6h14.5v14.5Z"/></clipPath>
<clipPath id="c9_4"><path d="M256.7,515.5V501.7h13.7v13.8Z"/></clipPath>
<clipPath id="ca_4"><path d="M192.2,479.9v-16h22.7v16Z"/></clipPath>
<clipPath id="cb_4"><path d="M185.6,518.5V503.2H194v15.3Z"/></clipPath>
<clipPath id="cc_4"><path d="M173.6,441.6l-1.4,-.5l-3.6,-3V425.6h15.7v16Z"/></clipPath>
<clipPath id="cd_4"><path d="M174,295c0,-.3,.2,-.6,.4,-.7c.2,-.3,.5,-.4,.8,-.4h4.2V295Z"/></clipPath>
<clipPath id="ce_4"><path d="M173.9,295.1v-1.3h5.6v1.3Z"/></clipPath>
<style type="text/css"><![CDATA[
.g0_4{
fill: #E0EDE2;
}
.g1_4{
fill: #FFF;
}
.g2_4{
fill: #2E6E51;
}
.g3_4{
fill: #FCD6CD;
}
.g4_4{
fill: none;
stroke: #6381B7;
stroke-width: 0.166;
}
.g5_4{
fill: #D1E2EE;
}
.g6_4{
fill: #E9EAEB;
}
.g7_4{
fill: none;
stroke: #93BEDA;
stroke-width: 0.152;
stroke-miterlimit: 10;
}
.g8_4{
fill: #766FA6;
}
.g9_4{
fill: #48484A;
}
.ga_4{
fill: #F0E8F3;
}
.gb_4{
fill: #6381B7;
}
.gc_4{
fill: none;
stroke: #6381B7;
stroke-width: 0.152;
stroke-dasharray: 1,1;
}
.gd_4{
fill: none;
stroke: #6381B7;
stroke-width: 0.152;
}
.ge_4{
fill: #FCFBEC;
}
.gf_4{
fill: none;
stroke: #EAD646;
stroke-width: 0.333;
stroke-linecap: round;
stroke-linejoin: round;
stroke-dasharray: 0,2;
}
.gg_4{
fill: none;
stroke: #EAD646;
stroke-width: 0.333;
stroke-linecap: round;
stroke-linejoin: round;
stroke-dasharray: 0,1;
}
.gh_4{
fill: #EAD646;
}
.gi_4{
fill: #61C7CB;
}
.gj_4{
fill: #F5CA58;
}
.gk_4{
fill: #3D3B39;
}
.gl_4{
fill: #231F20;
}
.gm_4{
fill: none;
stroke: #949698;
stroke-width: 0.152;
}
.gn_4{
fill: #25408F;
}
.go_4{
fill: #F37553;
}
.gp_4{
fill: #363637;
}
.gq_4{
fill: #F0D73F;
}
.gr_4{
fill: #506CB4;
}
.gs_4{
fill: #5CC4BE;
}
.gt_4{
fill: none;
stroke: #6D6F71;
stroke-width: 0.484;
}
.gu_4{
fill: #DEF1F3;
}
.gv_4{
fill: #9BD1EA;
}
.gw_4{
fill: none;
stroke: #58595B;
stroke-width: 0.152;
stroke-miterlimit: 10;
}
.gx_4{
fill: none;
stroke: #FCE8B0;
stroke-width: 0.152;
}
.gy_4{
fill: #E7D6B2;
}
.gz_4{
fill: none;
stroke: #231F20;
stroke-width: 0.152;
stroke-miterlimit: 10;
}
.g10_4{
fill: #FCE8B0;
}
.g11_4{
fill: none;
stroke: #231F20;
stroke-width: 0.333;
}
.g12_4{
fill: #39B4D1;
}
.g13_4{
fill: none;
stroke: #2D2A4A;
stroke-width: 0.226;
stroke-linecap: round;
stroke-linejoin: round;
}
.g14_4{
fill: #2D2A4A;
}
.g15_4{
fill: #DEDAD3;
}
.g16_4{
fill: #29263F;
}
.g17_4{
fill: #E15F46;
}
.g18_4{
fill: #FDF9EC;
}
.g19_4{
fill: none;
stroke: #F89C47;
stroke-width: 0.333;
stroke-linecap: round;
stroke-linejoin: round;
stroke-dasharray: 0,1;
}
.g1a_4{
fill: none;
stroke: #F89C47;
stroke-width: 1.666;
stroke-linecap: round;
stroke-linejoin: round;
}
.g1b_4{
fill: none;
stroke: #FFF;
stroke-width: 1.909;
stroke-miterlimit: 10;
}
.g1c_4{
fill: none;
stroke: #000;
stroke-width: 0.381;
stroke-miterlimit: 10;
}
]]></style>
</defs>
<path d="M32.1,1344.3H967.5V32.1H32.1V1344.3Z" class="g0_4"/>
<path clip-path="url(#c0_4)" d="M128.4,112.6c0,0,-18.4,0,-18.4,18.3V1232.8c0,0,0,18.4,18.4,18.4H1785c0,0,18.3,0,18.3,-18.4V130.9c0,0,0,-18.3,-18.3,-18.3Z" class="g1_4"/>
<path d="M114.4,105.7c0,0,-4.4,0,-4.4,4.3v24.7c0,0,0,4.4,4.4,4.4H291.2c0,0,4.3,0,4.3,-4.4V110c0,0,0,-4.3,-4.3,-4.3Z" class="g2_4"/>
<path clip-path="url(#c0_4)" d="M285,105.7v33.4H1789.6c0,0,13.7,0,13.7,-13.8v-5.8c0,0,0,-13.8,-13.7,-13.8Z" class="g3_4"/>
<image clip-path="url(#c1_4)" preserveAspectRatio="none" x="651" y="798" width="211" height="293" xlink:href="img/1.png"/>
<path d="M663.1,803.2c0,0,-6.9,0,-6.9,6.9v267c0,0,0,6.9,6.9,6.9H847.8c0,0,6.9,0,6.9,-6.9v-267c0,0,0,-6.9,-6.9,-6.9Z" class="g1_4"/>
<g clip-path="url(#c2_4)">
<path d="M678.1,831.3c0,0,-2.8,0,-2.8,2.9v171c0,0,0,2.8,2.8,2.8H828.2c0,0,2.9,0,2.9,-2.8v-171c0,0,0,-2.9,-2.9,-2.9H678.1Z" class="g4_4"/>
<path d="M769.4,880.8h52v13.9h-52V880.8Zm-44.4,0h44.4v13.9H725V880.8Zm-26.5,0H725v13.9H698.5V880.8Zm-14.1,0h14.1v13.9H684.4V880.8Z" class="g5_4"/>
<path d="M684.4,984.5h14.1v17.9H684.4V984.5Zm0,-18h14.1v18H684.4v-18Zm0,-18h14.1v18H684.4v-18Zm0,-17.9h14.1v17.9H684.4V930.6Zm0,-18h14.1v18H684.4v-18Zm0,-17.9h14.1v17.9H684.4V894.7Z" class="g6_4"/>
<path d="M684.4,880.8h14.1m0,13.8V880.8m0,0H725m0,0h44.4M725,894.6V880.8m44.4,13.8V880.8m0,0h52m-137,13.9h14.1m-14.1,17.9h14.1m0,0V894.7m0,35.8V912.7m0,-18H725m0,0h44.4M725,912.6V894.7m0,35.8V912.7m-26.5,-.1H725m0,0h44.4m0,0V894.7m0,35.8V912.7m0,-18h52m-52,17.9h52m-137,18h14.1m0,17.9V930.6m0,0H725m0,0h44.4M725,948.5V930.6m44.4,17.9V930.6m0,0h52m-137,17.9h14.1m0,18V948.6m0,-.1H725m0,0h44.4m-44.4,18V948.6m44.4,17.9V948.6m0,-.1h52m-137,18h14.1m-14.1,18h14.1m-14.1,17.9h14.1m0,-18V966.5m0,35.9V984.5m0,-18H725m0,0h44.4M725,984.4V966.5m0,35.9V984.5m-26.5,0H725m0,0h44.4m-70.9,17.9H725m0,0h44.4m0,-18V966.5m0,35.9V984.5m0,-18h52m-52,18h52m-52,17.9h52" class="g7_4"/>
<path d="M687.7,901.3c0,0,-1,0,-1,.9v2.9c0,0,0,.9,1,.9h7.5c0,0,1,0,1,-.9v-2.9c0,0,0,-.9,-1,-.9Z" class="g8_4"/>
<path d="M683.7,849c0,0,-.9,0,-.9,1v3.1c0,0,0,1,.9,1.3l11.4,4c0,0,.9,.3,.9,-.7V850c0,0,0,-1,-.9,-1Z" class="g9_4"/>
<path d="M688.3,846.2c0,0,-2.8,0,-2.8,2.9v24.5c0,0,0,2.9,2.8,2.9H818.8c0,0,2.8,0,2.8,-2.9V849.1c0,0,0,-2.9,-2.8,-2.9Z" class="ga_4"/>
<path d="M683.7,848.6c0,0,-.9,0,-.9,.9v3.7c0,0,0,1,.9,1h7.1c0,0,1,0,1,-1v-3.7c0,0,0,-.9,-1,-.9Z" class="g8_4"/>
<path d="M807,1058.5c0,0,-.9,0,-.9,.9v2.4c0,0,0,.9,.9,.9h6.6c0,0,1,0,1,-.9v-2.4c0,0,0,-.9,-1,-.9Z" class="gb_4"/>
<path d="M804.2,1056.6v8.2m.3,.2h26.4m.2,-.3v-8.2m-.3,-.2H804.4" class="gc_4"/>
<path d="M804.2,1064.8v.2h.1m26.7,0h.1v-.2m0,-8.4v-.1H831m-26.7,0h-.1v.1" class="gd_4"/>
<path d="M675.3,1054.9H830.9v-32.5H675.3v32.5Z" class="ge_4"/>
<path d="M675.3,1023.4v31" class="gf_4"/>
<path d="M676.3,1054.9H830.4" class="gg_4"/>
<path d="M830.9,1053.9v-31" class="gf_4"/>
<path d="M829.9,1022.4H675.8" class="gg_4"/>
<path d="M675.1,1023.1v-6.2c0,0,0,-1.9,1.9,-1.9H829.2c0,0,1.9,0,1.9,1.9v6.4Z" class="gh_4"/>
<path d="M681.4,1020.7h-1.2c0,.6,.2,1.2,.6,1.7h.9c-.2,-.5,-.3,-1.1,-.3,-1.7Z" class="gi_4"/>
<path d="M681.4,1020.5c0,-.7,.1,-1.3,.3,-1.8h-.9c-.4,.5,-.6,1.1,-.6,1.8Z" class="gi_4"/>
<path d="M683.6,1018.4v.1H685c0,-.1,0,-.2,-.1,-.3c-.4,.1,-.8,.2,-1.3,.2Z" class="gi_4"/>
<path d="M685.1,1018.2c.1,.1,.1,.2,.2,.3h.5c0,-.1,0,-.2,.1,-.3c-.1,0,-.2,-.1,-.2,-.2c0,.1,-.1,.1,-.1,.1c-.1,0,-.3,0,-.5,.1Z" class="gi_4"/>
<path d="M685.7,1020.7c-.1,.6,-.2,1.2,-.4,1.7h.9c.4,-.5,.6,-1.1,.6,-1.7Z" class="gi_4"/>
<path d="M685.5,1020.5c-.1,-.7,-.2,-1.3,-.4,-1.8h-1.5v1.8Z" class="gi_4"/>
<path d="M683.4,1022.6H682c.2,.6,.6,1,1,1.2c.1,0,.3,.1,.4,.1Z" class="gi_4"/>
<path d="M685.7,1019.4v-.7h-.4c.2,.5,.3,1.1,.3,1.8h1.2c0,-.2,0,-.4,0,-.6c-.1,.1,-.3,.1,-.4,.1c-.4,0,-.7,-.2,-.7,-.6Z" class="gi_4"/>
<path d="M683.6,1022.6v1.3c.2,0,.3,-.1,.5,-.1c.4,-.2,.7,-.6,.9,-1.2Z" class="gi_4"/>
<path d="M685.3,1022.6c-.2,.5,-.5,.8,-.7,1.1c.6,-.2,1.1,-.6,1.5,-1.1Z" class="gi_4"/>
<path d="M683.6,1020.7v1.7h1.5c.2,-.5,.3,-1.1,.4,-1.7Z" class="gi_4"/>
<path d="M681.8,1018.5c0,-.1,.1,-.2,.1,-.3c-.2,-.1,-.3,-.1,-.5,-.1v-.1c-.2,.2,-.3,.3,-.5,.5Z" class="gi_4"/>
<path d="M683.4,1018.4c-.4,0,-.9,-.1,-1.3,-.2c0,.1,-.1,.2,-.1,.3h1.4Z" class="gi_4"/>
<path d="M682.5,1023.7c-.3,-.3,-.5,-.6,-.7,-1.1h-.9c.4,.5,1,.9,1.6,1.1Z" class="gi_4"/>
<path d="M683.4,1020.5v-1.8h-1.5c-.2,.5,-.3,1.1,-.3,1.8Z" class="gi_4"/>
<path d="M683.4,1020.7h-1.8c0,.6,.1,1.2,.3,1.7h1.5Z" class="gi_4"/>
<path d="M681.7,1017.7c.1,0,.2,.1,.3,.1c.5,.1,1,.2,1.5,.2c.5,0,1,-.1,1.5,-.2c.1,0,.3,-.1,.4,-.1v-1.1l-1.8,.7c0,.1,-.1,.1,-.1,.1l-.1,-.1l-1.7,-.7Z" class="g1_4"/>
<path d="M683.5,1016.9l3,-1.2l-3,-1.3l-3,1.3Z" class="gj_4"/>
<path d="M686.1,1019.4c0,.1,.1,.2,.3,.2c.1,0,.2,-.1,.2,-.2v-.1h-.5Z" class="g1_4"/>
<path d="M686.4,1018.4c-.2,0,-.3,.1,-.3,.2v.5h.5v-.5c0,-.1,-.1,-.2,-.2,-.2Z" class="g1_4"/>
<path d="M687,1018.6c0,-.2,-.2,-.5,-.4,-.6v-1.9l.5,-.3c.1,0,.1,-.1,.1,-.1c0,-.1,0,-.2,-.1,-.2l-3.5,-1.5q-.1,-.1,-.2,0l-3.5,1.5c0,0,-.1,.1,-.1,.2c0,0,.1,.1,.1,.1l1.4,.6v1.2c-.9,.7,-1.5,1.8,-1.5,3c0,2,1.7,3.7,3.7,3.7c2.1,0,3.7,-1.7,3.7,-3.7c0,-.5,-.1,-1,-.2,-1.4Zm-3.5,-4.2l3,1.3l-3,1.2l-3,-1.2Zm3.3,6.1h-1.1c-.1,-.7,-.2,-1.3,-.4,-1.8h.4v.7c0,.4,.3,.6,.7,.6c.1,0,.3,0,.4,-.1c0,.2,0,.4,0,.6m-.6,1.9h-.9c.2,-.5,.3,-1.1,.4,-1.7h1.1c0,.6,-.2,1.2,-.6,1.7m-2.1,1.4c-.2,0,-.3,.1,-.5,.1v-1.3H685c-.2,.6,-.5,1,-.9,1.2m-2.1,-1.2h1.4v1.3c-.1,0,-.3,-.1,-.4,-.1c-.4,-.2,-.8,-.6,-1,-1.2m-1.8,-1.9h1.2c0,.6,.1,1.2,.3,1.7h-.9c-.4,-.5,-.6,-1.1,-.6,-1.7m.6,-2h.9c-.2,.5,-.3,1.1,-.3,1.8h-1.2c0,-.7,.2,-1.3,.6,-1.8m5.1,-.5c-.1,.1,-.1,.2,-.1,.3h-.5c-.1,-.1,-.1,-.2,-.2,-.3c.2,-.1,.4,-.1,.5,-.1c0,0,.1,0,.1,-.1c0,.1,.1,.2,.2,.2m.7,1.1v.1c0,.1,-.1,.2,-.2,.2c-.2,0,-.3,-.1,-.3,-.2v-.1Zm-3,-.8v-.1c.5,0,.9,-.1,1.3,-.2c.1,.1,.1,.2,.1,.3Zm1.5,.2c.2,.5,.3,1.1,.4,1.8h-1.9v-1.8Zm-3,-.5c.4,.1,.9,.2,1.3,.2v.1H682c0,-.1,.1,-.2,.1,-.3m1.3,.5v1.8h-1.8c0,-.7,.1,-1.3,.3,-1.8Zm-1.8,2h1.8v1.7h-1.5c-.2,-.5,-.3,-1.1,-.3,-1.7m2,1.7v-1.7h1.9c-.1,.6,-.2,1.2,-.4,1.7Zm3,-3.3h-.5v-.5c0,-.1,.1,-.2,.3,-.2c.1,0,.2,.1,.2,.2Zm-3.2,-1.8q.1,.1,.1,.1c0,0,.1,0,.1,-.1l1.8,-.7v1.1c-.1,0,-.3,.1,-.4,.1c-.5,.1,-1,.2,-1.5,.2c-.5,0,-1,-.1,-1.5,-.2c-.1,0,-.2,-.1,-.3,-.1v-1.1Zm-2,.7q0,.1,0,.1c.2,0,.3,0,.5,.1c0,.1,-.1,.2,-.1,.3h-.9c.2,-.2,.3,-.3,.5,-.5m.4,4.6c.2,.5,.4,.8,.7,1.1c-.6,-.2,-1.2,-.6,-1.6,-1.1Zm2.8,1.1c.2,-.3,.5,-.6,.7,-1.1h.8c-.4,.5,-.9,.9,-1.5,1.1m1.6,-5.8c-.2,-.1,-.3,-.2,-.4,-.3v-1.2l.4,-.2Z" class="gk_4"/>
<path d="M712.7,1046.2h-2.1v-1.4h2.1v-.8l1.5,1.5l-1.5,1.5Z" class="gl_4"/>
<path d="M745.8,1046.2h-2.1v-1.4h2.1v-.8l1.5,1.5l-1.5,1.5Z" class="gl_4"/>
<path d="M779,1046.2h-2.1v-1.4H779v-.8l1.5,1.5L779,1047Z" class="gl_4"/>
<path d="M685.9,1041c0,0,-.9,0,-.9,.9v7.2c0,0,0,1,.9,1h20c0,0,.9,0,.9,-1v-7.2c0,0,0,-.9,-.9,-.9Z" class="g1_4"/>
<path d="M685.9,1041c0,0,-.9,0,-.9,.9v7.2c0,0,0,1,.9,1h20c0,0,.9,0,.9,-1v-7.2c0,0,0,-.9,-.9,-.9h-20Z" class="gm_4"/>
<path d="M719,1041c0,0,-.9,0,-.9,.9v7.2c0,0,0,1,.9,1h19.9c0,0,1,0,1,-1v-7.2c0,0,0,-.9,-1,-.9Z" class="g1_4"/>
<path d="M719,1041c0,0,-.9,0,-.9,.9v7.2c0,0,0,1,.9,1h19.9c0,0,1,0,1,-1v-7.2c0,0,0,-.9,-1,-.9H719Z" class="gm_4"/>
<path d="M752.1,1040.9c0,0,-.9,0,-.9,.9v7.3c0,0,0,.9,.9,.9h20c0,0,.9,0,.9,-.9v-7.3c0,0,0,-.9,-.9,-.9Z" class="g1_4"/>
<path d="M752.1,1040.9c0,0,-.9,0,-.9,.9v7.3c0,0,0,.9,.9,.9h20c0,0,.9,0,.9,-.9v-7.3c0,0,0,-.9,-.9,-.9h-20Z" class="gm_4"/>
<path d="M785.3,1041c0,0,-1,0,-1,.9v7.2c0,0,0,1,1,1h19.9c0,0,1,0,1,-1v-7.2c0,0,0,-.9,-1,-.9Z" class="g1_4"/>
<path d="M785.3,1041c0,0,-1,0,-1,.9v7.2c0,0,0,1,1,1h19.9c0,0,1,0,1,-1v-7.2c0,0,0,-.9,-1,-.9H785.3Z" class="gm_4"/>
<path d="M675.2,821v4.8l2.6,2.2v-4.8Z" class="gn_4"/>
<path d="M675.2,817.3v8.5H827.5c0,0,3.7,0,3.7,-3.7V821c0,0,0,-3.7,-3.7,-3.7Z" class="gb_4"/>
<path d="M682.6,817.8c.2,-.2,.4,-.2,.6,-.2l.2,-.3L682.1,816l-1.3,1.3l-.3,-.2c0,-.2,0,-.4,-.2,-.6c-.2,-.2,-.5,-.2,-.7,0c-.3,.2,-.3,.6,0,.8c.1,.2,.3,.2,.5,.2l.3,.2l-1.4,1.4l1.4,1.3l-.3,.3c-.2,-.1,-.4,0,-.5,.1c-.3,.3,-.3,.6,0,.8c.2,.2,.5,.2,.7,0c.2,-.1,.2,-.3,.2,-.5l.3,-.3l1.3,1.3l1.3,-1.3l-.2,-.3c-.2,.1,-.4,0,-.6,-.1c-.2,-.2,-.2,-.6,0,-.8c.2,-.2,.6,-.2,.8,0c.1,.1,.2,.4,.1,.5l.3,.3l1.4,-1.3l-1.4,-1.4l-.3,.3c.1,.2,0,.4,-.1,.6c-.2,.2,-.6,.2,-.8,0c-.2,-.3,-.2,-.6,0,-.8Z" class="go_4"/>
<path d="M682.1,822.3l-1.3,-1.4l-.2,.2c0,.2,-.1,.4,-.2,.6c-.3,.2,-.7,.2,-.9,0c-.3,-.3,-.3,-.7,0,-.9c.1,-.2,.4,-.2,.6,-.2l.1,-.2l-1.3,-1.3l1.3,-1.4l-.1,-.1c-.2,0,-.5,-.1,-.6,-.2c-.1,-.1,-.2,-.3,-.2,-.5c0,-.1,.1,-.3,.2,-.4c.2,-.3,.6,-.3,.9,0c.1,.1,.2,.3,.2,.5l.2,.2l1.3,-1.3l1.5,1.4l-.4,.4h-.1c-.1,0,-.3,0,-.4,.1c-.2,.2,-.2,.5,0,.7c.2,.2,.5,.2,.6,0c.2,-.1,.2,-.3,.2,-.5l.3,-.4l1.5,1.5l-1.5,1.4l-.3,-.3v-.1c0,-.1,0,-.3,-.2,-.4c0,-.1,-.2,-.2,-.3,-.2c-.1,0,-.2,.1,-.3,.2c-.2,.1,-.2,.4,0,.6c.1,.1,.3,.2,.4,.1h.1l.4,.4Zm-1.3,-1.6l1.3,1.3l1.2,-1.2l-.2,-.2c-.2,.1,-.4,0,-.5,-.2c-.2,-.1,-.2,-.2,-.2,-.4c0,-.2,0,-.3,.2,-.5c.1,-.1,.2,-.1,.4,-.1c.2,0,.3,0,.5,.1c.1,.2,.2,.4,.1,.6l.2,.2l1.2,-1.2l-1.2,-1.2l-.2,.1c.1,.3,0,.5,-.1,.6c-.3,.3,-.7,.3,-.9,0c-.3,-.2,-.3,-.6,0,-.9c.1,-.1,.3,-.2,.5,-.2l.2,-.2l-1.2,-1.2l-1.3,1.4l-.4,-.4V817c0,-.1,0,-.3,-.1,-.4c-.2,-.2,-.5,-.2,-.7,0c-.1,.1,-.1,.2,-.1,.3c0,.2,0,.3,.1,.4c.1,.1,.3,.1,.5,.1l.4,.3l-1.3,1.4l1.3,1.3l-.4,.4c-.2,-.1,-.4,0,-.5,.1c-.2,.2,-.2,.5,0,.7c.2,.1,.5,.1,.7,0c.1,-.2,.1,-.3,.1,-.5Z" class="gp_4"/>
<path d="M689.3,820.1c.2,0,.4,.1,.5,.2h.4v-1.9h-1.9V818c.1,0,.2,-.2,.2,-.4c0,-.3,-.2,-.6,-.5,-.6c-.3,0,-.6,.3,-.6,.6c0,.2,.1,.4,.3,.4v.4h-1.9v1.9h-.4c-.1,-.1,-.2,-.2,-.5,-.2c-.3,0,-.5,.2,-.5,.5c0,.3,.2,.6,.5,.6c.3,0,.4,-.1,.5,-.3h.4v1.9h1.9v-.4c-.2,-.1,-.3,-.3,-.3,-.5c0,-.3,.3,-.5,.6,-.5c.3,0,.5,.2,.5,.5c0,.2,-.1,.4,-.2,.5v.4h1.9v-1.9h-.4c-.1,.2,-.3,.3,-.5,.3c-.3,0,-.6,-.3,-.6,-.6c0,-.3,.3,-.5,.6,-.5Z" class="gq_4"/>
<path d="M690.3,822.9h-2.1v-.6c.2,-.1,.3,-.2,.3,-.4c0,-.2,-.2,-.5,-.5,-.5c-.3,0,-.5,.3,-.5,.5c0,.2,.1,.3,.3,.4v.6h-2.1V821h-.2c-.1,.2,-.3,.3,-.6,.3c-.3,0,-.6,-.3,-.6,-.7c0,-.3,.3,-.6,.6,-.6c.3,0,.5,.1,.6,.2h.2v-1.8h1.9v-.3c-.1,-.1,-.3,-.3,-.3,-.5c0,-.4,.3,-.7,.7,-.7c.3,0,.6,.3,.6,.7c0,.2,-.1,.4,-.2,.5v.3h1.8v2h-.5c-.1,-.2,-.2,-.3,-.4,-.3c-.1,0,-.3,.1,-.3,.2c-.1,.1,-.2,.2,-.2,.3c0,.3,.2,.5,.5,.5c.2,0,.3,-.1,.4,-.2v-.1h.6Zm-1.9,-.2h1.7V821h-.3c-.1,.2,-.3,.3,-.5,.3c-.4,0,-.7,-.3,-.7,-.7c0,-.2,.1,-.3,.2,-.4c.2,-.2,.3,-.2,.5,-.2c.2,0,.4,.1,.5,.2h.3v-1.7h-1.9V818c.2,-.1,.3,-.3,.3,-.4c0,-.3,-.3,-.5,-.5,-.5c-.3,0,-.5,.2,-.5,.5c0,.1,.1,.3,.3,.4v.5h-1.9v1.9h-.5c-.1,-.2,-.3,-.3,-.5,-.3c-.2,0,-.4,.3,-.4,.5c0,.3,.2,.5,.4,.5c.2,0,.4,-.1,.5,-.2v-.1h.5v1.9h1.7v-.3c-.1,-.1,-.2,-.3,-.2,-.5c0,-.3,.2,-.6,.6,-.6c.3,0,.6,.3,.6,.6c0,.2,-.1,.4,-.2,.5Z" class="gp_4"/>
<path d="M684.9,824.4c.3,0,.4,.1,.5,.3h.4v-1.9h-1.9v-.4c.2,-.1,.3,-.3,.3,-.5c0,-.3,-.2,-.5,-.5,-.5c-.4,0,-.6,.2,-.6,.5c0,.2,.1,.4,.3,.5v.4h-1.9v1.9h-.4c-.1,-.2,-.3,-.3,-.5,-.3c-.3,0,-.6,.2,-.6,.6c0,.3,.3,.5,.6,.5c.2,0,.4,-.1,.5,-.3h.4v1.9h1.9v-.4c-.2,-.1,-.3,-.2,-.3,-.4c0,-.4,.2,-.6,.6,-.6c.3,0,.5,.2,.5,.6c0,.2,-.1,.3,-.3,.4v.4h1.9v-1.9h-.4c-.1,.2,-.2,.3,-.5,.3c-.3,0,-.5,-.2,-.5,-.5c0,-.4,.2,-.6,.5,-.6Z" class="gr_4"/>
<path d="M685.9,827.2h-2.1v-.5h.1c.1,-.1,.2,-.3,.2,-.5c0,-.2,-.2,-.4,-.4,-.4c-.3,0,-.5,.2,-.5,.4c0,.2,.1,.4,.2,.5h.1v.5h-2.1v-1.9h-.3c-.1,.2,-.3,.3,-.5,.3c-.3,0,-.6,-.3,-.6,-.6c0,-.4,.3,-.7,.6,-.7c.2,0,.4,.1,.5,.3h.3v-1.9h1.9v-.3c-.2,-.1,-.3,-.3,-.3,-.5c0,-.3,.3,-.6,.7,-.6c.3,0,.6,.3,.6,.6c0,.2,-.1,.4,-.3,.5v.3h1.9v2.1h-.5v-.1c-.1,-.1,-.3,-.2,-.5,-.2c-.2,0,-.4,.2,-.4,.5c0,.2,.2,.4,.4,.4c.2,0,.4,-.1,.5,-.2v-.1h.5ZM684,827h1.7v-1.7h-.2c-.1,.2,-.3,.3,-.6,.3c-.3,0,-.6,-.3,-.6,-.6c0,-.4,.3,-.7,.6,-.7c.3,0,.5,.1,.6,.3h.2v-1.7h-1.9v-.6h.1c.1,-.1,.2,-.2,.2,-.4c0,-.2,-.2,-.5,-.4,-.5c-.3,0,-.5,.3,-.5,.5c0,.2,.1,.3,.2,.4h.1v.6h-1.9v1.9H681v-.1c-.1,-.1,-.2,-.2,-.4,-.2c-.3,0,-.5,.2,-.5,.5c0,.2,.2,.4,.5,.4c.2,0,.3,-.1,.4,-.2v-.1h.6V827h1.7v-.2c-.2,-.1,-.3,-.3,-.3,-.6c0,-.3,.3,-.6,.7,-.6c.3,0,.6,.3,.6,.6c0,.3,-.1,.5,-.3,.6Z" class="gp_4"/>
<path d="M689.3,824.4c.2,0,.4,.1,.5,.3h.4v-1.9h-1.9v-.4c.1,-.1,.2,-.3,.2,-.5c0,-.3,-.2,-.5,-.5,-.5c-.3,0,-.6,.2,-.6,.5c0,.2,.1,.4,.3,.5v.4h-1.9v1.9h-.4c-.1,-.2,-.2,-.3,-.5,-.3c-.3,0,-.5,.2,-.5,.6c0,.3,.2,.5,.5,.5c.3,0,.4,-.1,.5,-.3h.4v1.9h1.9v-.4c-.2,-.1,-.3,-.2,-.3,-.4c0,-.4,.3,-.6,.6,-.6c.3,0,.5,.2,.5,.6c0,.2,-.1,.3,-.2,.4v.4h1.9v-1.9h-.4c-.1,.2,-.3,.3,-.5,.3c-.3,0,-.6,-.2,-.6,-.5c0,-.4,.3,-.6,.6,-.6Z" class="gs_4"/>
<path d="M690.3,827.2h-2.1v-.5c.2,-.1,.3,-.3,.3,-.5c0,-.2,-.2,-.4,-.5,-.4c-.3,0,-.5,.2,-.5,.4c0,.2,.1,.4,.3,.5v.5h-2.1v-1.9h-.2c-.1,.2,-.3,.3,-.6,.3c-.3,0,-.6,-.3,-.6,-.6c0,-.4,.3,-.7,.6,-.7c.3,0,.5,.1,.6,.3h.2v-1.9h1.9v-.3c-.1,-.1,-.3,-.3,-.3,-.5c0,-.3,.3,-.6,.7,-.6c.3,0,.6,.3,.6,.6c0,.2,-.1,.4,-.2,.5v.3h1.8v2.1h-.5v-.1c-.1,-.1,-.2,-.2,-.4,-.2c-.1,0,-.3,0,-.3,.1c-.1,.1,-.2,.2,-.2,.4c0,.2,.2,.4,.5,.4c.2,0,.3,-.1,.4,-.2v-.1h.6Zm-1.9,-.2h1.7v-1.7h-.3c-.1,.2,-.3,.3,-.5,.3c-.4,0,-.7,-.3,-.7,-.6c0,-.2,.1,-.4,.2,-.5c.2,-.1,.3,-.2,.5,-.2c.2,0,.4,.1,.5,.3h.3v-1.7h-1.9v-.6c.2,-.1,.3,-.2,.3,-.4c0,-.2,-.3,-.5,-.5,-.5c-.3,0,-.5,.3,-.5,.5c0,.2,.1,.3,.3,.4v.6h-1.9v1.9h-.5v-.1c-.1,-.1,-.3,-.2,-.5,-.2c-.2,0,-.4,.2,-.4,.5c0,.2,.2,.4,.4,.4c.2,0,.4,-.1,.5,-.2v-.1h.5V827h1.7v-.2c-.1,-.1,-.2,-.3,-.2,-.6c0,-.3,.2,-.6,.6,-.6c.3,0,.6,.3,.6,.6c0,.3,-.1,.5,-.2,.6Z" class="gp_4"/>
</g>
<path d="M663.1,803.2c0,0,-6.9,0,-6.9,6.9v267c0,0,0,6.9,6.9,6.9H847.8c0,0,6.9,0,6.9,-6.9v-267c0,0,0,-6.9,-6.9,-6.9H663.1Z" class="gt_4"/>
<image clip-path="url(#c3_4)" preserveAspectRatio="none" x="139" y="270" width="211" height="293" xlink:href="img/2.png"/>
<path d="M151.8,274.8c0,0,-6.9,0,-6.9,6.9V548.8c0,0,0,6.8,6.9,6.8H336.5c0,0,6.9,0,6.9,-6.8V281.7c0,0,0,-6.9,-6.9,-6.9Z" class="g1_4"/>
<g clip-path="url(#c4_4)">
<path d="M167.6,301.4c0,0,-3.8,0,-3.8,3.7v58.6c0,0,0,3.8,3.8,3.8H316c0,0,3.8,0,3.8,-3.8V305.1c0,0,0,-3.7,-3.8,-3.7Z" class="gu_4"/>
<path d="M172.8,322.3H220V328H172.8v-5.7Zm47.2,0h53V328H220v-5.7Zm53,0h37.8V328H273v-5.7Z" class="gv_4"/>
<path d="M172.8,328H220v11.7H172.8V328Zm47.2,0h53v11.7H220V328Zm53,0h37.8v11.7H273V328Z" class="g1_4"/>
<path d="M172.8,322.3H220m0,0h53m-53,5.6v-5.5m53,-.1h37.8M273,327.9v-5.5M172.8,328H220m0,0h53m-53,11.6V328m53,0h37.8M273,339.6V328M172.8,339.7H220m0,0h53m0,0h37.8" class="gw_4"/>
<path d="M166.7,444.7c0,0,-2.8,0,-2.8,2.8v71.4c0,0,0,2.8,2.8,2.8H317.2c0,0,2.8,0,2.8,-2.8V447.5c0,0,0,-2.8,-2.8,-2.8Z" class="g1_4"/>
<path d="M166.7,444.7c0,0,-2.8,0,-2.8,2.8v71.4c0,0,0,2.8,2.8,2.8H317.2c0,0,2.8,0,2.8,-2.8V447.5c0,0,0,-2.8,-2.8,-2.8H166.7Z" class="g4_4"/>
<path d="M173,464.5c0,0,-1,0,-1,1v3.2c0,0,0,1,.9,1.3l11.5,4c0,0,.8,.3,.8,-.6v-7.9c0,0,0,-1,-.9,-1Z" class="g9_4"/>
<path d="M173,464.5c0,0,-1,0,-1,1v3.2c0,0,0,1,.9,1.3l11.5,4c0,0,.8,.3,.8,-.6v-7.9c0,0,0,-1,-.9,-1H173Z" class="gx_4"/>
<path d="M177.6,461.7c0,0,-2.9,0,-2.9,2.8v14.2c0,0,0,2.8,2.9,2.8H309.7c0,0,2.8,0,2.8,-2.8V464.5c0,0,0,-2.8,-2.8,-2.8Z" class="ga_4"/>
<path d="M177.6,461.7c0,0,-2.9,0,-2.9,2.8v14.2c0,0,0,2.8,2.9,2.8H309.7c0,0,2.8,0,2.8,-2.8V464.5c0,0,0,-2.8,-2.8,-2.8H177.6Z" class="gx_4"/>
<path d="M173,463.9c0,0,-1,0,-1,.9v3.8c0,0,0,1,1,1h8.1c0,0,.9,0,.9,-1v-3.8c0,0,0,-.9,-.9,-.9Z" class="g8_4"/>
<path d="M173,463.9c0,0,-1,0,-1,.9v3.8c0,0,0,1,1,1h8.1c0,0,.9,0,.9,-1v-3.8c0,0,0,-.9,-.9,-.9H173Z" class="gx_4"/>
</g>
<path clip-path="url(#c5_4)" d="M181.3,501.9h18.9V483.5H181.3v18.4Z" class="g1_4"/>
<path clip-path="url(#c6_4)" d="M179.3,465.4c0,0,-1.1,0,-1.1,1.2v15.7c0,0,0,1.1,1.1,1.1H291.2c0,0,1.1,0,1.1,-1.1V466.6c0,0,0,-1.2,-1.1,-1.2H179.3Z" class="gy_4"/>
<image clip-path="url(#c7_4)" preserveAspectRatio="none" x="182" y="486" width="16" height="15" xlink:href="img/3.jpg"/>
<path clip-path="url(#c5_4)" d="M256.9,500.2h15.9V485.5H256.9v14.7Z" class="g1_4"/>
<image clip-path="url(#c8_4)" preserveAspectRatio="none" x="258" y="486" width="14" height="14" xlink:href="img/4.jpg"/>
<path clip-path="url(#c5_4)" d="M256.9,515.4h13.7V501.9H256.9v13.5Z" class="g1_4"/>
<image clip-path="url(#c9_4)" preserveAspectRatio="none" x="256" y="502" width="14" height="15" xlink:href="img/5.jpg"/>
<g clip-path="url(#c5_4)">
<path d="M173.7,459.1H315.5v-5.5H173.7v5.5Z" class="g1_4"/>
<path d="M232.6,473.4h2.9m-19.3,21.7H246m-33,16.8h29.8m43.3,-16.8h26.6m-29.8,16.8h29.7" class="gz_4"/>
</g>
<image clip-path="url(#ca_4)" preserveAspectRatio="none" x="192" y="463" width="23" height="17" xlink:href="img/6.jpg"/>
<path clip-path="url(#c4_4)" d="M226.4,526.7c0,0,-.9,0,-.9,.9V530c0,0,0,.9,.9,.9h6.7c0,0,.9,0,.9,-.9v-2.4c0,0,0,-.9,-.9,-.9Z" class="gb_4"/>
<g clip-path="url(#c5_4)">
<path d="M223.6,524.5v8.6m.1,0h96m0,0v-8.6m-.1,-.1h-96" class="gc_4"/>
<path d="M319.7,524.5v-.1m-96.1,0v.1" class="gd_4"/>
<path d="M186,518.9h7.9V502.8H186v16.1Z" class="g1_4"/>
</g>
<image clip-path="url(#cb_4)" preserveAspectRatio="none" x="182" y="503" width="17" height="15" xlink:href="img/7.jpg"/>
<path clip-path="url(#c4_4)" d="M180.7,431.8c0,0,-2.8,0,-2.8,2.8v4.7c0,0,0,2.9,2.8,2.9H316.4c0,0,2.8,0,2.8,-2.9v-4.7c0,0,0,-2.8,-2.8,-2.8Z" class="g10_4"/>
<image clip-path="url(#cc_4)" preserveAspectRatio="none" x="168" y="425" width="17" height="17" xlink:href="img/8.png"/>
<path clip-path="url(#c4_4)" d="M179.6,440.6c0,0,-5.8,2.4,-11.1,-2.8c0,0,3.3,5.5,10.7,5.2c0,0,5.4,.1,4.4,-2.2c0,0,.3,-1,-4,-.2Z" class="g10_4"/>
<path clip-path="url(#c5_4)" d="M163.8,289v8.5l2.6,2.2v-4.8Z" class="gn_4"/>
<g clip-path="url(#c4_4)">
<path d="M163.8,289v8.5H316.1c0,0,3.7,0,3.7,-3.7v-1.2c0,0,0,-3.6,-3.7,-3.6Z" class="gb_4"/>
<path d="M302.8,293.6c0,0,-.1,-2.1,1.9,-2c0,0,1.5,-.1,1.5,2.1m-3.4,-.4v1.5c0,0,-.7,0,-.8,-.7c0,0,0,-.8,.8,-.8Zm3.4,0v1.5c0,0,.7,0,.8,-.7c0,0,0,-.8,-.8,-.8Z" class="g11_4"/>
</g>
<g clip-path="url(#c5_4)">
<path d="M167.2,295.8h13.4v-7H167.2v7Z" class="g12_4"/>
<path d="M167.2,295.8h13.4v-7H167.2v7Z" class="g13_4"/>
<path d="M167.2,296.3h13.4v-.5H167.2v.5Z" class="g12_4"/>
<path d="M167.2,296.3h13.4v-.5H167.2v.5Z" class="g13_4"/>
</g>
<g clip-path="url(#c4_4)">
<path d="M172.6,288.2h-4.3v6.9h5.6v-5.5c0,-.8,-.6,-1.4,-1.3,-1.4Z" class="g1_4"/>
<path d="M172.6,288.2v-.1h-4.3q-.1,0,-.1,.1v6.9c0,0,0,.1,0,.1h5.7c0,0,.1,0,.1,0c0,0,0,-.1,0,-.1v-5.5c0,-.8,-.6,-1.5,-1.4,-1.5v.2c.3,0,.6,.2,.8,.4c.3,.2,.4,.5,.4,.9V295h-5.4v-6.7h4.2Z" class="g14_4"/>
<path d="M168.3,293.8v1.3h5.6c0,-.7,-.6,-1.3,-1.3,-1.3Z" class="g1_4"/>
<path d="M168.3,293.8h-.1v1.3c0,0,0,.1,0,.1h5.7c0,0,.1,0,.1,0c0,0,0,-.1,0,-.1c0,-.8,-.6,-1.4,-1.4,-1.4h-4.3q-.1,0,-.1,0c0,0,0,.1,0,.1h.1v.1h4.3c.3,0,.6,.1,.8,.4c.3,.2,.4,.5,.4,.8h.1V295h-5.5v-1.2h-.1v.1Z" class="g14_4"/>
</g>
<path clip-path="url(#c5_4)" d="M169,289.3h3.8m-3.8,.6h3.8m-3.8,.6h3.8m-3.8,.6h3.8m-3.8,.6h3.8m-3.8,.7h3.8M169,293h3.8" class="g13_4"/>
<g clip-path="url(#c4_4)">
<path d="M172.6,293.9h-4.2V295h5.4c0,-.3,-.2,-.5,-.4,-.7c-.2,-.3,-.5,-.4,-.8,-.4Z" class="g15_4"/>
<path d="M168.4,293.9h4.2c.3,0,.6,.1,.8,.4c.2,.2,.4,.4,.4,.7h-5.4Zm4.2,-.1h-4.3v1.3h5.5v-.5c-.2,-.5,-.7,-.8,-1.2,-.8Z" class="g16_4"/>
<path d="M175.2,288.2h4.3v6.9h-5.6v-5.5c0,-.8,.6,-1.4,1.3,-1.4Z" class="g1_4"/>
<path d="M175.2,288.2v.1h4.2V295H174v-5.4c0,-.4,.1,-.7,.4,-.9c.2,-.2,.5,-.4,.8,-.4v-.2c-.8,0,-1.4,.7,-1.4,1.5v5.5c0,0,0,.1,0,.1c0,0,.1,0,.1,0h5.6c0,0,.1,0,.1,0c0,0,0,-.1,0,-.1v-6.9c0,-.1,-.1,-.1,-.1,-.1h-4.3Z" class="g14_4"/>
<path d="M179.5,293.8v1.3h-5.6c0,-.7,.6,-1.3,1.3,-1.3Z" class="g1_4"/>
<path d="M179.5,293.8h-.1V295h-5.5v.1h.1c0,-.3,.1,-.6,.4,-.8c.2,-.3,.5,-.4,.8,-.4h4.3v-.1h-.1h.1v-.1h-4.3c-.8,0,-1.4,.6,-1.4,1.4c0,0,0,.1,0,.1c0,0,.1,0,.1,0h5.6c0,0,.1,0,.1,0c0,0,0,-.1,0,-.1v-1.3c0,0,0,-.1,0,-.1c0,0,-.1,0,-.1,0Z" class="g14_4"/>
</g>
<path clip-path="url(#c5_4)" d="M178.8,289.3H175m3.8,.6H175m3.8,.6H175m3.8,.6H175m3.8,.6H175m3.8,.7H175m3.8,.6H175" class="g13_4"/>
<path clip-path="url(#cd_4)" d="M174,295h5.4v-1.1H174V295Z" class="g15_4"/>
<path clip-path="url(#ce_4)" d="M174,295c0,-.3,.2,-.5,.4,-.7c.2,-.3,.5,-.4,.8,-.4h4.2V295Zm5.5,-1.2h-4.3c-.7,0,-1.3,.6,-1.3,1.3h5.6v-1.3h-.1h.1Z" class="g16_4"/>
<g clip-path="url(#c5_4)">
<path d="M173.9,288.8v7.5" class="g13_4"/>
<path d="M177.8,296.8h.7v-2.4h-.7v2.4Z" class="g17_4"/>
<path d="M177.8,296.8h.7v-2.4h-.7v2.4Z" class="g13_4"/>
</g>
<g clip-path="url(#c4_4)">
<path d="M167.8,369.1c0,0,-3.8,0,-3.8,3.8v41.3c0,0,0,3.8,3.8,3.8h148c0,0,3.8,0,3.8,-3.8V372.9c0,0,0,-3.8,-3.8,-3.8Z" class="g18_4"/>
<path d="M166.8,369.3c-1.1,.2,-2.6,1,-2.8,3.1m0,1.5v39.8m.1,1.5c.3,1,1,2.6,3.2,2.8m1.5,0H315.3m1.5,-.1c1,-.3,2.6,-1.1,2.8,-3.2m0,-1.5V373.4m-.2,-1.5c-.2,-1,-1,-2.5,-3.1,-2.8m-1.5,0H168.3" class="g19_4"/>
</g>
<path clip-path="url(#c5_4)" d="M171.4,366.4v4.1m2.7,-4.1v4.1m135.3,-4.1v4.1m2.7,-4.1v4.1" class="g1a_4"/>
<path d="M151.8,274.8c0,0,-6.9,0,-6.9,6.9V548.8c0,0,0,6.8,6.9,6.8H336.5c0,0,6.9,0,6.9,-6.8V281.7c0,0,0,-6.9,-6.9,-6.9H151.8Z" class="gt_4"/>
<path d="M32.1,45.1H9.2m958.3,0h22.9M32.1,1331.3H9.2m958.3,0h22.9M45.1,32.1V9.2m0,1335.1v22.9M954.5,32.1V9.2m0,1335.1v22.9" class="g1b_4"/>
<path d="M32.1,45.1H9.2m958.3,0h22.9M32.1,1331.3H9.2m958.3,0h22.9M45.1,32.1V9.2m0,1335.1v22.9M954.5,32.1V9.2m0,1335.1v22.9" class="g1c_4"/>
<path d="M27.5,32.1H0m972.1,0h27.5M27.5,1344.3H0m972.1,0h27.5M32.1,27.5V0m0,1348.9v27.5M967.5,27.5V0m0,1348.9v27.5" class="g1b_4"/>
<path d="M27.5,32.1H0m972.1,0h27.5M27.5,1344.3H0m972.1,0h27.5M32.1,27.5V0m0,1348.9v27.5M967.5,27.5V0m0,1348.9v27.5" class="g1c_4"/>
</svg>