<?xml version="1.0" encoding="UTF-8" standalone="no"?>
<!DOCTYPE svg PUBLIC "-//W3C//DTD SVG 1.1//EN"
"http://www.w3.org/Graphics/SVG/1.1/DTD/svg11.dtd">
<svg viewBox="0 0 999 1376" version="1.1" xmlns="http://www.w3.org/2000/svg" xmlns:xlink="http://www.w3.org/1999/xlink">
<defs>
<clipPath id="c0_386"><path d="M32.1,1344.3V32.1H967.5V1344.3Z"/></clipPath>
<style type="text/css"><![CDATA[
.g0_386{
fill: #D7E6A3;
}
.g1_386{
fill: #2E6E51;
}
.g2_386{
fill: #D2D3D5;
}
.g3_386{
fill: #F9E9F2;
}
.g4_386{
fill: #F5D9E8;
}
.g5_386{
fill: #F9CCDF;
}
.g6_386{
fill: #F4A3C8;
}
.g7_386{
fill: none;
stroke: #FFF;
stroke-width: 1.451;
stroke-miterlimit: 10;
}
.g8_386{
fill: none;
stroke: #FFF;
stroke-width: 1.909;
stroke-miterlimit: 10;
}
.g9_386{
fill: none;
stroke: #000;
stroke-width: 0.381;
stroke-miterlimit: 10;
}
]]></style>
</defs>
<path clip-path="url(#c0_386)" d="M296.3,32.1c0,0,-13,0,-13,13v81c0,0,0,12.9,13,12.9H1764.4c0,0,13,0,13,-12.9v-81c0,0,0,-13,-13,-13Z" class="g0_386"/>
<path d="M140.3,32.3c0,0,-8.6,0,-8.6,8.7v89.4c0,0,0,8.6,8.6,8.6H341.7c0,0,8.7,0,8.7,-8.6V41c0,0,0,-8.7,-8.7,-8.7Z" class="g1_386"/>
<path d="M772.3,198.8H874v34.7H772.3V198.8Zm-101.8,0H772.3v34.7H670.5V198.8Zm-101.8,0H670.5v34.7H568.7V198.8Zm-101.7,0H568.7v34.7H467V198.8Zm-101.8,0H467v34.7H365.2V198.8Zm-147.3,0H365.2v34.7H217.9V198.8Zm-64.9,0h64.9v34.7H153V198.8Z" class="g2_386"/>
<path d="M772.3,1078.5H874v37.7H772.3v-37.7Zm-101.8,0H772.3v37.7H670.5v-37.7Zm-101.8,0H670.5v37.7H568.7v-37.7Zm-101.7,0H568.7v37.7H467v-37.7Zm-101.8,0H467v37.7H365.2v-37.7Zm-212.2,0h64.9v37.7H153v-37.7Zm619.3,-37.8H874v37.8H772.3v-37.8Zm-101.8,0H772.3v37.8H670.5v-37.8Zm-101.8,0H670.5v37.8H568.7v-37.8Zm-101.7,0H568.7v37.8H467v-37.8Zm-101.8,0H467v37.8H365.2v-37.8Zm-212.2,0h64.9v37.8H153v-37.8ZM772.3,1003H874v37.7H772.3V1003Zm-101.8,0H772.3v37.7H670.5V1003Zm-101.8,0H670.5v37.7H568.7V1003ZM467,1003H568.7v37.7H467V1003Zm-101.8,0H467v37.7H365.2V1003ZM153,1003h64.9v37.7H153V1003ZM772.3,965.2H874V1003H772.3V965.2Zm-101.8,0H772.3V1003H670.5V965.2Zm-101.8,0H670.5V1003H568.7V965.2Zm-101.7,0H568.7V1003H467V965.2Zm-101.8,0H467V1003H365.2V965.2Zm-212.2,0h64.9V1003H153V965.2ZM772.3,927.4H874v37.8H772.3V927.4Zm-101.8,0H772.3v37.8H670.5V927.4Zm-101.8,0H670.5v37.8H568.7V927.4Zm-101.7,0H568.7v37.8H467V927.4Zm-101.8,0H467v37.8H365.2V927.4Zm-212.2,0h64.9v37.8H153V927.4ZM772.3,889.7H874v37.7H772.3V889.7Zm-101.8,0H772.3v37.7H670.5V889.7Zm-101.8,0H670.5v37.7H568.7V889.7Zm-101.7,0H568.7v37.7H467V889.7Zm-101.8,0H467v37.7H365.2V889.7Zm-212.2,0h64.9v37.7H153V889.7ZM772.3,851.9H874v37.8H772.3V851.9Zm-101.8,0H772.3v37.8H670.5V851.9Zm-101.8,0H670.5v37.8H568.7V851.9Zm-101.7,0H568.7v37.8H467V851.9Zm-101.8,0H467v37.8H365.2V851.9Zm-212.2,0h64.9v37.8H153V851.9ZM772.3,814.1H874v37.8H772.3V814.1Zm-101.8,0H772.3v37.8H670.5V814.1Zm-101.8,0H670.5v37.8H568.7V814.1Zm-101.7,0H568.7v37.8H467V814.1Zm-101.8,0H467v37.8H365.2V814.1Zm-212.2,0h64.9v37.8H153V814.1ZM772.3,776.4H874v37.7H772.3V776.4Zm-101.8,0H772.3v37.7H670.5V776.4Zm-101.8,0H670.5v37.7H568.7V776.4Zm-101.7,0H568.7v37.7H467V776.4Zm-101.8,0H467v37.7H365.2V776.4Zm-212.2,0h64.9v37.7H153V776.4ZM772.3,738.6H874v37.8H772.3V738.6Zm-101.8,0H772.3v37.8H670.5V738.6Zm-101.8,0H670.5v37.8H568.7V738.6Zm-101.7,0H568.7v37.8H467V738.6Zm-101.8,0H467v37.8H365.2V738.6Zm-212.2,0h64.9v37.8H153V738.6ZM772.3,700.8H874v37.8H772.3V700.8Zm-101.8,0H772.3v37.8H670.5V700.8Zm-101.8,0H670.5v37.8H568.7V700.8Zm-101.7,0H568.7v37.8H467V700.8Zm-101.8,0H467v37.8H365.2V700.8Zm-212.2,0h64.9v37.8H153V700.8ZM772.3,663.1H874v37.7H772.3V663.1Zm-101.8,0H772.3v37.7H670.5V663.1Zm-101.8,0H670.5v37.7H568.7V663.1Zm-101.7,0H568.7v37.7H467V663.1Zm-101.8,0H467v37.7H365.2V663.1Zm-212.2,0h64.9v37.7H153V663.1ZM772.3,625.3H874v37.8H772.3V625.3Zm-101.8,0H772.3v37.8H670.5V625.3Zm-101.8,0H670.5v37.8H568.7V625.3Zm-101.7,0H568.7v37.8H467V625.3Zm-101.8,0H467v37.8H365.2V625.3Zm-212.2,0h64.9v37.8H153V625.3ZM772.3,587.6H874v37.7H772.3V587.6Zm-101.8,0H772.3v37.7H670.5V587.6Zm-101.8,0H670.5v37.7H568.7V587.6Zm-101.7,0H568.7v37.7H467V587.6Zm-101.8,0H467v37.7H365.2V587.6Zm-212.2,0h64.9v37.7H153V587.6Zm619.3,-52H874v52H772.3v-52Zm-101.8,0H772.3v52H670.5v-52Zm-101.8,0H670.5v52H568.7v-52Zm-101.7,0H568.7v52H467v-52Zm-101.8,0H467v52H365.2v-52Zm-212.2,0h64.9v52H153v-52ZM772.3,497.8H874v37.8H772.3V497.8Zm-101.8,0H772.3v37.8H670.5V497.8Zm-101.8,0H670.5v37.8H568.7V497.8Zm-101.7,0H568.7v37.8H467V497.8Zm-101.8,0H467v37.8H365.2V497.8Zm-212.2,0h64.9v37.8H153V497.8ZM772.3,460.1H874v37.7H772.3V460.1Zm-101.8,0H772.3v37.7H670.5V460.1Zm-101.8,0H670.5v37.7H568.7V460.1Zm-101.7,0H568.7v37.7H467V460.1Zm-101.8,0H467v37.7H365.2V460.1Zm-212.2,0h64.9v37.7H153V460.1ZM772.3,422.3H874v37.8H772.3V422.3Zm-101.8,0H772.3v37.8H670.5V422.3Zm-101.8,0H670.5v37.8H568.7V422.3Zm-101.7,0H568.7v37.8H467V422.3Zm-101.8,0H467v37.8H365.2V422.3Zm-212.2,0h64.9v37.8H153V422.3ZM772.3,384.5H874v37.8H772.3V384.5Zm-101.8,0H772.3v37.8H670.5V384.5Zm-101.8,0H670.5v37.8H568.7V384.5Zm-101.7,0H568.7v37.8H467V384.5Zm-101.8,0H467v37.8H365.2V384.5Zm-212.2,0h64.9v37.8H153V384.5ZM772.3,346.8H874v37.7H772.3V346.8Zm-101.8,0H772.3v37.7H670.5V346.8Zm-101.8,0H670.5v37.7H568.7V346.8Zm-101.7,0H568.7v37.7H467V346.8Zm-101.8,0H467v37.7H365.2V346.8Zm-212.2,0h64.9v37.7H153V346.8ZM772.3,309H874v37.8H772.3V309Zm-101.8,0H772.3v37.8H670.5V309Zm-101.8,0H670.5v37.8H568.7V309ZM467,309H568.7v37.8H467V309Zm-101.8,0H467v37.8H365.2V309ZM153,309h64.9v37.8H153V309ZM772.3,271.2H874V309H772.3V271.2Zm-101.8,0H772.3V309H670.5V271.2Zm-101.8,0H670.5V309H568.7V271.2Zm-101.7,0H568.7V309H467V271.2Zm-101.8,0H467V309H365.2V271.2Zm-212.2,0h64.9V309H153V271.2ZM772.3,233.5H874v37.7H772.3V233.5Zm-101.8,0H772.3v37.7H670.5V233.5Zm-101.8,0H670.5v37.7H568.7V233.5Zm-101.7,0H568.7v37.7H467V233.5Zm-101.8,0H467v37.7H365.2V233.5Zm-212.2,0h64.9v37.7H153V233.5Z" class="g3_386"/>
<path d="M217.9,1078.5H365.2v37.7H217.9v-37.7Zm0,-37.8H365.2v37.8H217.9v-37.8Zm0,-37.7H365.2v37.7H217.9V1003Zm0,-37.8H365.2V1003H217.9V965.2Zm0,-37.8H365.2v37.8H217.9V927.4Zm0,-37.7H365.2v37.7H217.9V889.7Zm0,-37.8H365.2v37.8H217.9V851.9Zm0,-37.8H365.2v37.8H217.9V814.1Zm0,-37.7H365.2v37.7H217.9V776.4Zm0,-37.8H365.2v37.8H217.9V738.6Zm0,-37.8H365.2v37.8H217.9V700.8Zm0,-37.7H365.2v37.7H217.9V663.1Zm0,-37.8H365.2v37.8H217.9V625.3Zm0,-37.7H365.2v37.7H217.9V587.6Zm0,-52H365.2v52H217.9v-52Zm0,-37.8H365.2v37.8H217.9V497.8Zm0,-37.7H365.2v37.7H217.9V460.1Zm0,-37.8H365.2v37.8H217.9V422.3Zm0,-37.8H365.2v37.8H217.9V384.5Zm0,-37.7H365.2v37.7H217.9V346.8Zm0,-37.8H365.2v37.8H217.9V309Zm0,-37.8H365.2V309H217.9V271.2Zm0,-37.7H365.2v37.7H217.9V233.5Z" class="g4_386"/>
<path d="M772.3,1154H874v37.8H772.3V1154Zm-101.8,0H772.3v37.8H670.5V1154Zm-101.8,0H670.5v37.8H568.7V1154ZM467,1154H568.7v37.8H467V1154Zm-101.8,0H467v37.8H365.2V1154ZM153,1154h64.9v37.8H153V1154Zm619.3,-37.7H874V1154H772.3v-37.7Zm-101.8,0H772.3V1154H670.5v-37.7Zm-101.8,0H670.5V1154H568.7v-37.7Zm-101.7,0H568.7V1154H467v-37.7Zm-101.8,0H467V1154H365.2v-37.7Zm-212.2,0h64.9V1154H153v-37.7Z" class="g5_386"/>
<path d="M217.9,1154H365.2v37.8H217.9V1154Zm0,-37.7H365.2V1154H217.9v-37.7Z" class="g6_386"/>
<path d="M152.3,198.8h65.6m-64.9,34V199.6m64.9,-.8H365.2m-147.3,34V199.6m147.3,-.8H467m-101.8,34V199.6M467,198.8H568.7M467,232.8V199.6m101.7,-.8H670.5m-101.8,34V199.6m101.8,-.8H772.3m-101.8,34V199.6m101.8,-.8H874.8m-102.5,34V199.6M874,232.8V199.6M152.3,233.5h65.6m-64.9,37V234.2m64.9,-.7H365.2m-147.3,37V234.2m147.3,-.7H467m-101.8,37V234.2M467,233.5H568.7M467,270.5V234.2m101.7,-.7H670.5m-101.8,37V234.2m101.8,-.7H772.3m-101.8,37V234.2m101.8,-.7H874.8m-102.5,37V234.2M874,270.5V234.2m-721.7,37h65.6M153,308.3V272m64.9,-.8H365.2M217.9,308.3V272m147.3,-.8H467M365.2,308.3V272M467,271.2H568.7M467,308.3V272m101.7,-.8H670.5M568.7,308.3V272m101.8,-.8H772.3M670.5,308.3V272m101.8,-.8H874.8M772.3,308.3V272M874,308.3V272M152.3,309h65.6M153,346V309.7m64.9,-.7H365.2M217.9,346V309.7M365.2,309H467M365.2,346V309.7M467,309H568.7M467,346V309.7M568.7,309H670.5M568.7,346V309.7M670.5,309H772.3M670.5,346V309.7M772.3,309H874.8M772.3,346V309.7M874,346V309.7M152.3,346.8h65.6m-64.9,37V347.5m64.9,-.7H365.2m-147.3,37V347.5m147.3,-.7H467m-101.8,37V347.5M467,346.8H568.7M467,383.8V347.5m101.7,-.7H670.5m-101.8,37V347.5m101.8,-.7H772.3m-101.8,37V347.5m101.8,-.7H874.8m-102.5,37V347.5M874,383.8V347.5m-721.7,37h65.6M153,421.6V385.3m64.9,-.8H365.2M217.9,421.6V385.3m147.3,-.8H467M365.2,421.6V385.3M467,384.5H568.7M467,421.6V385.3m101.7,-.8H670.5M568.7,421.6V385.3m101.8,-.8H772.3M670.5,421.6V385.3m101.8,-.8H874.8M772.3,421.6V385.3M874,421.6V385.3m-721.7,37h65.6m-64.9,37V423m64.9,-.7H365.2m-147.3,37V423m147.3,-.7H467m-101.8,37V423M467,422.3H568.7M467,459.3V423m101.7,-.7H670.5m-101.8,37V423m101.8,-.7H772.3m-101.8,37V423m101.8,-.7H874.8m-102.5,37V423M874,459.3V423M152.3,460.1h65.6m-64.9,37V460.8m64.9,-.7H365.2m-147.3,37V460.8m147.3,-.7H467m-101.8,37V460.8M467,460.1H568.7M467,497.1V460.8m101.7,-.7H670.5m-101.8,37V460.8m101.8,-.7H772.3m-101.8,37V460.8m101.8,-.7H874.8m-102.5,37V460.8M874,497.1V460.8m-721.7,37h65.6M153,534.9V498.6m64.9,-.8H365.2M217.9,534.9V498.6m147.3,-.8H467M365.2,534.9V498.6M467,497.8H568.7M467,534.9V498.6m101.7,-.8H670.5M568.7,534.9V498.6m101.8,-.8H772.3M670.5,534.9V498.6m101.8,-.8H874.8M772.3,534.9V498.6M874,534.9V498.6m-721.7,37h65.6M153,586.8V536.3m64.9,-.7H365.2M217.9,586.8V536.3m147.3,-.7H467M365.2,586.8V536.3M467,535.6H568.7M467,586.8V536.3m101.7,-.7H670.5M568.7,586.8V536.3m101.8,-.7H772.3M670.5,586.8V536.3m101.8,-.7H874.8M772.3,586.8V536.3M874,586.8V536.3M152.3,587.6h65.6m-64.9,37V588.3m64.9,-.7H365.2m-147.3,37V588.3m147.3,-.7H467m-101.8,37V588.3M467,587.6H568.7M467,624.6V588.3m101.7,-.7H670.5m-101.8,37V588.3m101.8,-.7H772.3m-101.8,37V588.3m101.8,-.7H874.8m-102.5,37V588.3M874,624.6V588.3m-721.7,37h65.6M153,662.4V626m64.9,-.7H365.2M217.9,662.4V626m147.3,-.7H467M365.2,662.4V626M467,625.3H568.7M467,662.4V626m101.7,-.7H670.5M568.7,662.4V626m101.8,-.7H772.3M670.5,662.4V626m101.8,-.7H874.8M772.3,662.4V626M874,662.4V626M152.3,663.1h65.6m-64.9,37V663.8m64.9,-.7H365.2m-147.3,37V663.8m147.3,-.7H467m-101.8,37V663.8M467,663.1H568.7M467,700.1V663.8m101.7,-.7H670.5m-101.8,37V663.8m101.8,-.7H772.3m-101.8,37V663.8m101.8,-.7H874.8m-102.5,37V663.8M874,700.1V663.8m-721.7,37h65.6M153,737.9V701.6m64.9,-.8H365.2M217.9,737.9V701.6m147.3,-.8H467M365.2,737.9V701.6M467,700.8H568.7M467,737.9V701.6m101.7,-.8H670.5M568.7,737.9V701.6m101.8,-.8H772.3M670.5,737.9V701.6m101.8,-.8H874.8M772.3,737.9V701.6M874,737.9V701.6m-721.7,37h65.6M153,775.7V739.3m64.9,-.7H365.2M217.9,775.7V739.3m147.3,-.7H467M365.2,775.7V739.3M467,738.6H568.7M467,775.7V739.3m101.7,-.7H670.5M568.7,775.7V739.3m101.8,-.7H772.3M670.5,775.7V739.3m101.8,-.7H874.8M772.3,775.7V739.3M874,775.7V739.3M152.3,776.4h65.6m-64.9,37V777.1m64.9,-.7H365.2m-147.3,37V777.1m147.3,-.7H467m-101.8,37V777.1M467,776.4H568.7M467,813.4V777.1m101.7,-.7H670.5m-101.8,37V777.1m101.8,-.7H772.3m-101.8,37V777.1m101.8,-.7H874.8m-102.5,37V777.1M874,813.4V777.1m-721.7,37h65.6M153,851.2V814.9m64.9,-.8H365.2M217.9,851.2V814.9m147.3,-.8H467M365.2,851.2V814.9M467,814.1H568.7M467,851.2V814.9m101.7,-.8H670.5M568.7,851.2V814.9m101.8,-.8H772.3M670.5,851.2V814.9m101.8,-.8H874.8M772.3,851.2V814.9M874,851.2V814.9m-721.7,37h65.6m-64.9,37V852.6m64.9,-.7H365.2m-147.3,37V852.6m147.3,-.7H467m-101.8,37V852.6M467,851.9H568.7M467,888.9V852.6m101.7,-.7H670.5m-101.8,37V852.6m101.8,-.7H772.3m-101.8,37V852.6m101.8,-.7H874.8m-102.5,37V852.6M874,888.9V852.6M152.3,889.7h65.6m-64.9,37V890.4m64.9,-.7H365.2m-147.3,37V890.4m147.3,-.7H467m-101.8,37V890.4M467,889.7H568.7M467,926.7V890.4m101.7,-.7H670.5m-101.8,37V890.4m101.8,-.7H772.3m-101.8,37V890.4m101.8,-.7H874.8m-102.5,37V890.4M874,926.7V890.4m-721.7,37h65.6M153,964.5V928.2m64.9,-.8H365.2M217.9,964.5V928.2m147.3,-.8H467M365.2,964.5V928.2M467,927.4H568.7M467,964.5V928.2m101.7,-.8H670.5M568.7,964.5V928.2m101.8,-.8H772.3M670.5,964.5V928.2m101.8,-.8H874.8M772.3,964.5V928.2M874,964.5V928.2m-721.7,37h65.6m-64.9,37V965.9m64.9,-.7H365.2m-147.3,37V965.9m147.3,-.7H467m-101.8,37V965.9M467,965.2H568.7m-101.7,37V965.9m101.7,-.7H670.5m-101.8,37V965.9m101.8,-.7H772.3m-101.8,37V965.9m101.8,-.7H874.8m-102.5,37V965.9M874,1002.2V965.9M152.3,1003h65.6M153,1040v-36.3m64.9,-.7H365.2m-147.3,37v-36.3m147.3,-.7H467m-101.8,37v-36.3M467,1003H568.7M467,1040v-36.3m101.7,-.7H670.5m-101.8,37v-36.3m101.8,-.7H772.3m-101.8,37v-36.3m101.8,-.7H874.8m-102.5,37v-36.3M874,1040v-36.3m-721.7,37h65.6M153,1077.8v-36.3m64.9,-.8H365.2m-147.3,37.1v-36.3m147.3,-.8H467m-101.8,37.1v-36.3m101.8,-.8H568.7M467,1077.8v-36.3m101.7,-.8H670.5m-101.8,37.1v-36.3m101.8,-.8H772.3m-101.8,37.1v-36.3m101.8,-.8H874.8m-102.5,37.1v-36.3M874,1077.8v-36.3m-721.7,37h65.6m-64.9,37v-36.3m64.9,-.7H365.2m-147.3,37v-36.3m147.3,-.7H467m-101.8,37v-36.3m101.8,-.7H568.7m-101.7,37v-36.3m101.7,-.7H670.5m-101.8,37v-36.3m101.8,-.7H772.3m-101.8,37v-36.3m101.8,-.7H874.8m-102.5,37v-36.3M874,1115.5v-36.3m-721.7,37.1h65.6m-64.9,37V1117m64.9,-.7H365.2m-147.3,37V1117m147.3,-.7H467m-101.8,37V1117m101.8,-.7H568.7m-101.7,37V1117m101.7,-.7H670.5m-101.8,37V1117m101.8,-.7H772.3m-101.8,37V1117m101.8,-.7H874.8m-102.5,37V1117M874,1153.3V1117m-721.7,37h65.6M153,1191.1v-36.4m64.9,-.7H365.2m-147.3,37.1v-36.4m147.3,-.7H467m-101.8,37.1v-36.4M467,1154H568.7M467,1191.1v-36.4m101.7,-.7H670.5m-101.8,37.1v-36.4m101.8,-.7H772.3m-101.8,37.1v-36.4m101.8,-.7H874.8m-102.5,37.1v-36.4M874,1191.1v-36.4m-721.7,37.1h65.6m0,0H365.2m0,0H467m0,0H568.7m0,0H670.5m0,0H772.3m0,0H874.8" class="g7_386"/>
<path d="M32.1,45.1H9.2m958.3,0h22.9M32.1,1331.3H9.2m958.3,0h22.9M45.1,32.1V9.2m0,1335.1v22.9M954.5,32.1V9.2m0,1335.1v22.9" class="g8_386"/>
<path d="M32.1,45.1H9.2m958.3,0h22.9M32.1,1331.3H9.2m958.3,0h22.9M45.1,32.1V9.2m0,1335.1v22.9M954.5,32.1V9.2m0,1335.1v22.9" class="g9_386"/>
<path d="M27.5,32.1H0m972.1,0h27.5M27.5,1344.3H0m972.1,0h27.5M32.1,27.5V0m0,1348.9v27.5M967.5,27.5V0m0,1348.9v27.5" class="g8_386"/>
<path d="M27.5,32.1H0m972.1,0h27.5M27.5,1344.3H0m972.1,0h27.5M32.1,27.5V0m0,1348.9v27.5M967.5,27.5V0m0,1348.9v27.5" class="g9_386"/>
</svg>