<?xml version="1.0" encoding="UTF-8" standalone="no"?>
<!DOCTYPE svg PUBLIC "-//W3C//DTD SVG 1.1//EN"
"http://www.w3.org/Graphics/SVG/1.1/DTD/svg11.dtd">
<svg viewBox="0 0 999 1376" version="1.1" xmlns="http://www.w3.org/2000/svg" xmlns:xlink="http://www.w3.org/1999/xlink">
<defs>
<clipPath id="c0_12"><path d="M32.1,1344.3V32.1H967.5V1344.3Z"/></clipPath>
<style type="text/css"><![CDATA[
.g0_12{
fill: #F69E93;
}
.g1_12{
fill: #2E6E51;
}
.g2_12{
fill: #F7B736;
}
.g3_12{
fill: #D2D3D5;
}
.g4_12{
fill: #F0D2AD;
}
.g5_12{
fill: #F6E3C8;
}
.g6_12{
fill: #B1D4B7;
}
.g7_12{
fill: #CCE1CF;
}
.g8_12{
fill: #B4E2F8;
}
.g9_12{
fill: #CFECFA;
}
.ga_12{
fill: none;
stroke: #FFF;
stroke-width: 1.451;
stroke-miterlimit: 10;
}
.gb_12{
fill: none;
stroke: #FFF;
stroke-width: 1.909;
stroke-miterlimit: 10;
}
.gc_12{
fill: none;
stroke: #000;
stroke-width: 0.381;
stroke-miterlimit: 10;
}
]]></style>
</defs>
<path clip-path="url(#c0_12)" d="M270.8,32.1V139H1760c0,0,26,0,26,-25.9V50.4c0,0,0,-18.3,-18.3,-18.3Z" class="g0_12"/>
<path d="M128.4,32.1c0,0,-8.6,0,-8.6,8.6v89.7c0,0,0,8.6,8.6,8.6H275.8c0,0,8.7,0,8.7,-8.6V40.7c0,0,0,-8.6,-8.7,-8.6Z" class="g1_12"/>
<path d="M125,129.1c10.1,0,18.2,-8.1,18.2,-18.2c0,-10,-8.1,-18.2,-18.2,-18.2c-10.1,0,-18.2,8.2,-18.2,18.2c0,10.1,8.1,18.2,18.2,18.2Z" class="g2_12"/>
<path d="M732.2,175.7H879.5v33.8H732.2V175.7Zm-77.9,0h77.9v33.8H654.3V175.7Zm-147.3,0H654.3v33.8H507V175.7Zm-147.2,0H507v33.8H359.8V175.7Zm-147.3,0H359.8v33.8H212.5V175.7Zm-34.6,0h34.6v33.8H177.9V175.7Zm-56.3,0h56.3v33.8H121.6V175.7Z" class="g3_12"/>
<path d="M212.5,539.3H359.8v99.6H212.5V539.3ZM121.6,209.5h56.3V638.9H121.6V209.5ZM212.5,470H359.8v69.3H212.5V470Zm0,-82.3H359.8V470H212.5V387.7Zm0,-101.2H359.8V387.7H212.5V286.5Zm0,-77H359.8v77H212.5v-77Z" class="g4_12"/>
<path d="M732.2,539.3H879.5v99.6H732.2V539.3Zm-77.9,0h77.9v99.6H654.3V539.3Zm-147.3,0H654.3v99.6H507V539.3Zm-147.2,0H507v99.6H359.8V539.3Zm-181.9,0h34.6v99.6H177.9V539.3ZM732.2,470H879.5v69.3H732.2V470Zm-77.9,0h77.9v69.3H654.3V470ZM507,470H654.3v69.3H507V470Zm-147.2,0H507v69.3H359.8V470Zm-181.9,0h34.6v69.3H177.9V470ZM732.2,387.7H879.5V470H732.2V387.7Zm-77.9,0h77.9V470H654.3V387.7Zm-147.3,0H654.3V470H507V387.7Zm-147.2,0H507V470H359.8V387.7Zm-181.9,0h34.6V470H177.9V387.7ZM732.2,286.5H879.5V387.7H732.2V286.5Zm-77.9,0h77.9V387.7H654.3V286.5Zm-147.3,0H654.3V387.7H507V286.5Zm-147.2,0H507V387.7H359.8V286.5Zm-181.9,0h34.6V387.7H177.9V286.5Zm554.3,-77H879.5v77H732.2v-77Zm-77.9,0h77.9v77H654.3v-77Zm-147.3,0H654.3v77H507v-77Zm-147.2,0H507v77H359.8v-77Zm-181.9,0h34.6v77H177.9v-77Z" class="g5_12"/>
<path d="M212.5,970.4H359.8v108.9H212.5V970.4ZM121.6,638.9h56.3v440.4H121.6V638.9Zm90.9,244.8H359.8v86.7H212.5V883.7Zm0,-106.2H359.8V883.7H212.5V777.5Zm0,-69.3H359.8v69.3H212.5V708.2Zm0,-69.3H359.8v69.3H212.5V638.9Z" class="g6_12"/>
<path d="M732.2,970.4H879.5v108.9H732.2V970.4Zm-225.2,0H654.3v108.9H507V970.4Zm-147.2,0H507v108.9H359.8V970.4Zm-181.9,0h34.6v108.9H177.9V970.4ZM732.2,883.7H879.5v86.7H732.2V883.7Zm-225.2,0H654.3v86.7H507V883.7Zm-147.2,0H507v86.7H359.8V883.7Zm-181.9,0h34.6v86.7H177.9V883.7ZM732.2,777.5H879.5V883.7H732.2V777.5Zm-225.2,0H654.3V883.7H507V777.5Zm-147.2,0H507V883.7H359.8V777.5Zm-181.9,0h34.6V883.7H177.9V777.5ZM732.2,708.2H879.5v69.3H732.2V708.2Zm-225.2,0H654.3v69.3H507V708.2Zm-147.2,0H507v69.3H359.8V708.2Zm-181.9,0h34.6v69.3H177.9V708.2ZM732.2,638.9H879.5v69.3H732.2V638.9Zm-225.2,0H654.3v69.3H507V638.9Zm-147.2,0H507v69.3H359.8V638.9Zm-181.9,0h34.6v69.3H177.9V638.9Z" class="g7_12"/>
<path d="M654.3,970.4h77.9v108.9H654.3V970.4Zm0,-86.7h77.9v86.7H654.3V883.7Zm0,-106.2h77.9V883.7H654.3V777.5Zm0,-69.3h77.9v69.3H654.3V708.2Zm0,-69.3h77.9v69.3H654.3V638.9Z" class="g7_12"/>
<path d="M212.5,1169.2H359.8v86.6H212.5v-86.6Zm-90.9,-89.9h56.3v176.5H121.6V1079.3Zm90.9,0H359.8v89.9H212.5v-89.9Z" class="g8_12"/>
<path d="M732.2,1169.2H879.5v86.6H732.2v-86.6Zm-225.2,0H654.3v86.6H507v-86.6Zm-147.2,0H507v86.6H359.8v-86.6Zm-181.9,0h34.6v86.6H177.9v-86.6Zm554.3,-89.9H879.5v89.9H732.2v-89.9Zm-225.2,0H654.3v89.9H507v-89.9Zm-147.2,0H507v89.9H359.8v-89.9Zm-181.9,0h34.6v89.9H177.9v-89.9Z" class="g9_12"/>
<path d="M654.3,1169.2h77.9v86.6H654.3v-86.6Zm0,-89.9h77.9v89.9H654.3v-89.9Z" class="g9_12"/>
<path d="M120.9,175.7h57m-56.3,33.1V176.4m56.3,-.7h34.6m-34.6,33.1V176.4m34.6,-.7H359.8M212.5,208.8V176.4m147.3,-.7H507M359.8,208.8V176.4M507,175.7H654.3M507,208.8V176.4m147.3,-.7h77.9m-77.9,33.1V176.4m77.9,-.7h148m-148,33.1V176.4m147.3,32.4V176.4M120.9,209.5h57m-56.3,77V210.2m56.3,-.7h34.6m-34.6,76.3V210.2m34.6,-.7H359.8M212.5,285.8V210.2m147.3,-.7H507M359.8,285.8V210.2M507,209.5H654.3M507,285.8V210.2m147.3,-.7h77.9m-77.9,76.3V210.2m77.9,-.7h148m-148,76.3V210.2m147.3,75.6V210.2M121.6,387.7V286.5m55.6,0h35.3M177.9,387V287.2m34.6,-.7H359.8M212.5,387V287.2m147.3,-.7H507M359.8,387V287.2M507,286.5H654.3M507,387V287.2m147.3,-.7h77.9M654.3,387V287.2m77.9,-.7h148M732.2,387V287.2M879.5,387V287.2M121.6,470V387.7m55.6,0h35.3m-34.6,81.6V388.5m34.6,-.8H359.8M212.5,469.3V388.5m147.3,-.8H507M359.8,469.3V388.5M507,387.7H654.3M507,469.3V388.5m147.3,-.8h77.9m-77.9,81.6V388.5m77.9,-.8h148m-148,81.6V388.5m147.3,80.8V388.5M121.6,539.3V470m55.6,0h35.3m-34.6,68.6V470.8m34.6,-.8H359.8M212.5,538.6V470.8M359.8,470H507M359.8,538.6V470.8M507,470H654.3M507,538.6V470.8M654.3,470h77.9m-77.9,68.6V470.8m77.9,-.8h148m-148,68.6V470.8m147.3,67.8V470.8M121.6,638.2V539.3m55.6,0h35.3m-34.6,98.9V540m34.6,-.7H359.8M212.5,638.2V540m147.3,-.7H507M359.8,638.2V540M507,539.3H654.3M507,638.2V540m147.3,-.7h77.9m-77.9,98.9V540m77.9,-.7h148m-148,98.9V540m147.3,98.2V540M120.9,638.9h57m-56.3,69.3V639.7m56.3,-.8h34.6m-34.6,68.6V639.7m34.6,-.8H359.8M212.5,707.5V639.7m147.3,-.8H507M359.8,707.5V639.7M507,638.9H654.3M507,707.5V639.7m147.3,-.8h77.9m-77.9,68.6V639.7m77.9,-.8h148m-148,68.6V639.7m147.3,67.8V639.7M121.6,777.5V708.2m55.6,0h35.3m-34.6,68.6V708.9m34.6,-.7H359.8M212.5,776.8V708.9m147.3,-.7H507M359.8,776.8V708.9M507,708.2H654.3M507,776.8V708.9m147.3,-.7h77.9m-77.9,68.6V708.9m77.9,-.7h148m-148,68.6V708.9m147.3,67.9V708.9M121.6,883.7V777.5m55.6,0h35.3M177.9,883V778.2m34.6,-.7H359.8M212.5,883V778.2M507,777.5H654.3m0,0h77.9M654.3,883V778.2m77.9,-.7h148M732.2,883V778.2M879.5,883V778.2M121.6,970.4V883.7m55.6,0h35.3m-34.6,85.9V884.5m34.6,-.8h148m-148,85.9V884.5m147.3,85.1V884.5m146.5,-.8h148M507,969.6V884.5m147.3,-.8h77.9m-77.9,85.9V884.5m77.9,-.8h148m-148,85.9V884.5m147.3,85.1V884.5M121.6,1078.6V970.4m55.6,0h35.3m-34.6,108.2V971.1m34.6,-.7H359.8M212.5,1078.6V971.1m147.3,-.7H507M359.8,1078.6V971.1M507,970.4H654.3M507,1078.6V971.1m147.3,-.7h77.9m-77.9,108.2V971.1m77.9,-.7h148m-148,108.2V971.1m147.3,107.5V971.1M120.9,1079.3h57m-56.3,89.9V1080m56.3,-.7h34.6m-34.6,89.2V1080m34.6,-.7H359.8m-147.3,89.2V1080m147.3,-.7H507m-147.2,89.2V1080m147.2,-.7H654.3M507,1168.5V1080m147.3,-.7h77.9m-77.9,89.2V1080m77.9,-.7h148m-148,89.2V1080m147.3,88.5V1080M121.6,1255.1v-85.9m55.6,0h35.3m-34.6,85.9v-85.2m34.6,-.7H359.8m-147.3,85.9v-85.2m147.3,-.7H507m-147.2,85.9v-85.2m147.2,-.7H654.3M507,1255.1v-85.2m147.3,-.7h77.9m-77.9,85.9v-85.2m77.9,-.7h148m-148,85.9v-85.2m147.3,85.2v-85.2m-758.6,85.9h57m0,0h34.6m0,0H359.8m0,0H507m0,0H654.3m0,0h77.9m0,0h148M359.8,883V778.2m0,-.7H507M507,883V778.2" class="ga_12"/>
<path d="M32.1,45.1H9.2m958.3,0h22.9M32.1,1331.3H9.2m958.3,0h22.9M45.1,32.1V9.2m0,1335.1v22.9M954.5,32.1V9.2m0,1335.1v22.9" class="gb_12"/>
<path d="M32.1,45.1H9.2m958.3,0h22.9M32.1,1331.3H9.2m958.3,0h22.9M45.1,32.1V9.2m0,1335.1v22.9M954.5,32.1V9.2m0,1335.1v22.9" class="gc_12"/>
<path d="M27.5,32.1H0m972.1,0h27.5M27.5,1344.3H0m972.1,0h27.5M32.1,27.5V0m0,1348.9v27.5M967.5,27.5V0m0,1348.9v27.5" class="gb_12"/>
<path d="M27.5,32.1H0m972.1,0h27.5M27.5,1344.3H0m972.1,0h27.5M32.1,27.5V0m0,1348.9v27.5M967.5,27.5V0m0,1348.9v27.5" class="gc_12"/>
</svg>