<?xml version="1.0" encoding="UTF-8" standalone="no"?>
<!DOCTYPE svg PUBLIC "-//W3C//DTD SVG 1.1//EN"
"http://www.w3.org/Graphics/SVG/1.1/DTD/svg11.dtd">
<svg viewBox="0 0 999 1376" version="1.1" xmlns="http://www.w3.org/2000/svg" xmlns:xlink="http://www.w3.org/1999/xlink">
<defs>
<clipPath id="c0_196"><path d="M191.5,1156.3V474.2L159.8,461.8v-1H843.4v695.5Z"/></clipPath>
<clipPath id="c1_196"><path d="M198.6,588.3V470.5H353.1V588.3Z"/></clipPath>
<clipPath id="c2_196"><path d="M606,592.4V532.2h87.9v60.2Z"/></clipPath>
<clipPath id="c3_196"><path d="M199.2,764.1V646.3H354.7V764.1Z"/></clipPath>
<clipPath id="c4_196"><path d="M606.6,768.2V708h87.9v60.2Z"/></clipPath>
<clipPath id="c5_196"><path d="M198.9,943.8V826H354.4V943.8Z"/></clipPath>
<clipPath id="c6_196"><path d="M606.3,947.8V887.7h87.9v60.1Z"/></clipPath>
<clipPath id="c7_196"><path d="M199.5,1119.6V1001.8H355.1v117.8Z"/></clipPath>
<clipPath id="c8_196"><path d="M606.9,1123.7v-60.2h87.9v60.2Z"/></clipPath>
<clipPath id="c9_196"><path d="M265.9,434.8V274.6H772.6V434.8Z"/></clipPath>
<style type="text/css"><![CDATA[
.g0_196{
fill: none;
stroke: #6381B7;
stroke-width: 0.763;
}
.g1_196{
fill: #48484A;
}
.g2_196{
fill: #F0E8F3;
}
.g3_196{
fill: #FFF;
}
.g4_196{
fill: none;
stroke: #949698;
stroke-width: 0.704;
}
.g5_196{
fill: #6381B7;
}
.g6_196{
fill: none;
stroke: #6381B7;
stroke-width: 0.381;
stroke-dasharray: 2,1;
}
.g7_196{
fill: none;
stroke: #6381B7;
stroke-width: 0.381;
}
.g8_196{
fill: #766FA6;
}
.g9_196{
fill: #25408F;
}
.ga_196{
fill: #F37553;
}
.gb_196{
fill: #363637;
}
.gc_196{
fill: #EAD646;
}
.gd_196{
fill: #506CB4;
}
.ge_196{
fill: #5CC4BE;
}
.gf_196{
fill: none;
stroke: #FFF;
stroke-width: 1.909;
stroke-miterlimit: 10;
}
.gg_196{
fill: none;
stroke: #000;
stroke-width: 0.381;
stroke-miterlimit: 10;
}
]]></style>
</defs>
<path d="M145.1,168.6c0,0,-13,0,-13,13V1162c0,0,0,13,13,13H832.9c0,0,13,0,13,-13V181.6c0,0,0,-13,-13,-13H145.1Z" class="g0_196"/>
<path d="M175,276.8c0,0,-4.3,0,-4.3,4.3v14.4c0,0,0,4.3,4.1,5.7l52.4,18.3c0,0,4.1,1.4,4.1,-2.9V281.1c0,0,0,-4.3,-4.3,-4.3Z" class="g1_196"/>
<path d="M196.1,264c0,0,-12.9,0,-12.9,12.9V440c0,0,0,13,12.9,13H793.8c0,0,13,0,13,-13V276.9c0,0,0,-12.9,-13,-12.9Z" class="g2_196"/>
<path clip-path="url(#c0_196)" d="M198.6,588.3H354.1V470.5H198.6V588.3Z" class="g3_196"/>
<image clip-path="url(#c1_196)" preserveAspectRatio="none" x="197" y="469" width="156" height="120" xlink:href="img/1.jpg"/>
<image clip-path="url(#c2_196)" preserveAspectRatio="none" x="604" y="530" width="91" height="62" xlink:href="img/2.jpg"/>
<g clip-path="url(#c0_196)">
<path d="M410.9,522.4c0,-24.6,48.9,-44.6,109.3,-44.6c60.4,0,109.3,20,109.3,44.6c0,15.8,-19.9,29.6,-50.1,37.6c5.4,4.3,13.9,10.6,20.2,12.8c0,0,-25.3,-1.9,-40.1,-8.7c-12.2,1.9,-25.4,3,-39.3,3c-60.4,0,-109.3,-20,-109.3,-44.7Z" class="g3_196"/>
<path d="M410.9,522.4c0,-24.6,48.9,-44.6,109.3,-44.6c60.4,0,109.3,20,109.3,44.6c0,15.8,-19.9,29.6,-50.1,37.6c5.4,4.3,13.9,10.6,20.2,12.8c0,0,-25.3,-1.9,-40.1,-8.7c-12.2,1.9,-25.4,3,-39.3,3c-60.4,0,-109.3,-20,-109.3,-44.7Z" class="g4_196"/>
<path d="M199.2,764.1H354.7V646.3H199.2V764.1Z" class="g3_196"/>
</g>
<image clip-path="url(#c3_196)" preserveAspectRatio="none" x="199" y="645" width="156" height="120" xlink:href="img/3.jpg"/>
<image clip-path="url(#c4_196)" preserveAspectRatio="none" x="605" y="706" width="91" height="62" xlink:href="img/4.jpg"/>
<g clip-path="url(#c0_196)">
<path d="M411.5,698.3c0,-24.7,48.9,-44.7,109.3,-44.7c60.4,0,109.4,20,109.4,44.7c0,15.7,-20,29.5,-50.2,37.5c5.4,4.4,13.9,10.7,20.2,12.8c0,0,-25.3,-1.9,-40.1,-8.7c-12.2,1.9,-25.4,3,-39.3,3c-60.4,0,-109.3,-20,-109.3,-44.6Z" class="g3_196"/>
<path d="M411.5,698.3c0,-24.7,48.9,-44.7,109.3,-44.7c60.4,0,109.4,20,109.4,44.7c0,15.7,-20,29.5,-50.2,37.5c5.4,4.4,13.9,10.7,20.2,12.8c0,0,-25.3,-1.9,-40.1,-8.7c-12.2,1.9,-25.4,3,-39.3,3c-60.4,0,-109.3,-20,-109.3,-44.6Z" class="g4_196"/>
<path d="M198.9,943.8H354.4V826H198.9V943.8Z" class="g3_196"/>
</g>
<image clip-path="url(#c5_196)" preserveAspectRatio="none" x="199" y="825" width="155" height="120" xlink:href="img/5.jpg"/>
<image clip-path="url(#c6_196)" preserveAspectRatio="none" x="605" y="886" width="90" height="62" xlink:href="img/6.jpg"/>
<g clip-path="url(#c0_196)">
<path d="M411.2,877.9c0,-24.7,48.9,-44.6,109.3,-44.6c60.4,0,109.4,19.9,109.4,44.6c0,15.8,-20,29.6,-50.2,37.5c5.4,4.4,13.9,10.7,20.2,12.9c0,0,-25.3,-2,-40.1,-8.7c-12.2,1.9,-25.4,2.9,-39.3,2.9c-60.4,0,-109.3,-19.9,-109.3,-44.6Z" class="g3_196"/>
<path d="M411.2,877.9c0,-24.7,48.9,-44.6,109.3,-44.6c60.4,0,109.4,19.9,109.4,44.6c0,15.8,-20,29.6,-50.2,37.5c5.4,4.4,13.9,10.7,20.2,12.9c0,0,-25.3,-2,-40.1,-8.7c-12.2,1.9,-25.4,2.9,-39.3,2.9c-60.4,0,-109.3,-19.9,-109.3,-44.6Z" class="g4_196"/>
<path d="M199.5,1119.6H355.1V1001.8H199.5v117.8Z" class="g3_196"/>
</g>
<image clip-path="url(#c7_196)" preserveAspectRatio="none" x="199" y="1000" width="156" height="121" xlink:href="img/7.jpg"/>
<image clip-path="url(#c8_196)" preserveAspectRatio="none" x="605" y="1062" width="91" height="62" xlink:href="img/8.jpg"/>
<g clip-path="url(#c0_196)">
<path d="M411.8,1053.7c0,-24.6,49,-44.6,109.3,-44.6c60.4,0,109.4,20,109.4,44.6c0,15.8,-20,29.6,-50.2,37.6c5.5,4.3,14,10.6,20.2,12.8c0,0,-25.3,-1.9,-40.1,-8.7c-12.2,1.9,-25.4,3,-39.3,3c-60.3,0,-109.3,-20,-109.3,-44.7Z" class="g3_196"/>
<path d="M411.8,1053.7c0,-24.6,49,-44.6,109.3,-44.6c60.4,0,109.4,20,109.4,44.6c0,15.8,-20,29.6,-50.2,37.6c5.5,4.3,14,10.6,20.2,12.8c0,0,-25.3,-1.9,-40.1,-8.7c-12.2,1.9,-25.4,3,-39.3,3c-60.3,0,-109.3,-20,-109.3,-44.7Z" class="g4_196"/>
</g>
<path d="M202.3,620.2H349.5v-26H202.3v26Z" class="g3_196"/>
<path d="M202.3,795.2H349.5v-26H202.3v26Z" class="g3_196"/>
<path d="M202.3,974.4H349.5V948.5H202.3v25.9Z" class="g3_196"/>
<path d="M202.3,1150.7H349.5v-26H202.3v26Z" class="g3_196"/>
<image clip-path="url(#c9_196)" preserveAspectRatio="none" x="264" y="273" width="510" height="164" xlink:href="img/9.jpg"/>
<path d="M482.5,359H660V311.4H482.5V359Z" class="g3_196"/>
<path d="M272.8,1190.3c0,0,-4.3,0,-4.3,4.3v10.9c0,0,0,4.3,4.3,4.3h30.3c0,0,4.4,0,4.4,-4.3v-10.9c0,0,0,-4.3,-4.4,-4.3Z" class="g5_196"/>
<path d="M259.6,1182.8v54.9m1.4,.9H845.1m1,-1.3v-54.9m-1.4,-1H260.6" class="g6_196"/>
<path d="M259.6,1238.1v.5h.6m585.3,0h.6v-.5m0,-56.1v-.6h-.6m-585.3,0h-.6v.6" class="g7_196"/>
<path d="M175,274.6c0,0,-4.3,0,-4.3,4.3v17c0,0,0,4.3,4.3,4.3h29.7c0,0,4.3,0,4.3,-4.3v-17c0,0,0,-4.3,-4.3,-4.3Z" class="g8_196"/>
<path d="M132.2,126.3v22.2l11.7,10.2V136.5Z" class="g9_196"/>
<path d="M132.2,109.5v39H829.9c0,0,16.9,0,16.9,-16.8v-5.4c0,0,0,-16.8,-16.9,-16.8Z" class="g5_196"/>
<path d="M166,111.6c.7,-.6,1.7,-.8,2.5,-.6l1.3,-1.3l-6.2,-6.1l-6.1,6.1l-1.3,-1.3c.2,-.8,0,-1.8,-.6,-2.4c-1,-1,-2.6,-1,-3.6,0c-1,1,-1,2.6,0,3.6c.6,.6,1.6,.9,2.4,.6l1.3,1.3l-6.1,6.1l6.1,6.2l-1.3,1.3c-.8,-.3,-1.8,-.1,-2.4,.6c-1,1,-1,2.6,0,3.6c1,1,2.6,1,3.6,0c.6,-.7,.9,-1.6,.6,-2.4l1.3,-1.3l6.1,6.1l6.2,-6.1l-1.3,-1.3c-.9,.2,-1.8,0,-2.5,-.7c-1,-1,-1,-2.6,0,-3.6c1,-1,2.6,-1,3.6,0c.7,.7,.9,1.6,.7,2.5l1.3,1.3l6.1,-6.2l-6.1,-6.1l-1.3,1.3c.2,.8,0,1.8,-.7,2.4c-1,1,-2.6,1,-3.6,0c-1,-.9,-1,-2.6,0,-3.6Z" class="ga_196"/>
<path d="M163.6,132.3l-6.1,-6.2l-.8,.9c.1,.9,-.2,1.9,-.8,2.6c-1.2,1.1,-3.1,1.1,-4.2,0c-1.2,-1.2,-1.2,-3,0,-4.2c.7,-.7,1.6,-1,2.6,-.8l.8,-.8L149,117.6l6.1,-6.1l-.8,-.8c-1,.1,-1.9,-.2,-2.6,-.8c-.6,-.6,-.9,-1.3,-.9,-2.1c0,-.8,.3,-1.5,.9,-2.1c1.1,-1.1,3,-1.1,4.1,0c.7,.7,1,1.7,.9,2.6l.8,.8l6.1,-6.1l6.7,6.7l-1.7,1.7h-.2c-.7,-.2,-1.5,0,-2.1,.5c-.8,.9,-.8,2.2,0,3.1c.9,.8,2.2,.8,3.1,0c.5,-.6,.7,-1.4,.5,-2.1v-.2l1.7,-1.7l6.7,6.6l-6.7,6.7l-1.8,-1.7l.1,-.2c.2,-.8,0,-1.5,-.6,-2.1c-.4,-.4,-.9,-.6,-1.5,-.6c-.5,0,-1.1,.2,-1.5,.6c-.8,.8,-.8,2.2,0,3c.5,.6,1.3,.8,2.1,.6l.2,-.1l1.7,1.8ZM157.5,125l6.1,6.1l5.6,-5.5l-.8,-.9c-1,.2,-2,-.1,-2.7,-.8c-.5,-.5,-.8,-1.3,-.8,-2.1c0,-.7,.3,-1.5,.8,-2c.6,-.6,1.3,-.9,2.1,-.9c.8,0,1.6,.3,2.1,.9c.7,.6,1,1.6,.8,2.6l.9,.8l5.5,-5.6l-5.5,-5.5l-.9,.8c.2,1,-.1,1.9,-.8,2.6c-1.1,1.2,-3,1.2,-4.1,0c-1.2,-1.1,-1.2,-3,0,-4.1c.6,-.7,1.6,-1,2.6,-.8l.8,-.9l-5.6,-5.6l-6.1,6.2l-1.7,-1.7v-.3c.2,-.7,0,-1.5,-.5,-2c-.9,-.9,-2.2,-.9,-3.1,0c-.4,.4,-.6,.9,-.6,1.5c0,.6,.2,1.1,.6,1.5c.6,.5,1.4,.8,2.1,.6l.2,-.1l1.8,1.7l-6.2,6.1l6.2,6.2l-1.8,1.7l-.2,-.1c-.7,-.2,-1.5,.1,-2,.6c-.9,.8,-.9,2.2,0,3c.8,.9,2.2,.9,3,0c.5,-.5,.7,-1.3,.5,-2v-.3Z" class="gb_196"/>
<path d="M196.6,122.1c.9,0,1.8,.5,2.2,1.3h1.8v-8.7h-8.7v-1.8c.8,-.4,1.3,-1.2,1.3,-2.2c0,-1.4,-1.1,-2.5,-2.5,-2.5c-1.5,0,-2.6,1.1,-2.6,2.5c0,1,.5,1.8,1.3,2.2v1.8h-8.7v8.7h-1.8c-.4,-.8,-1.2,-1.3,-2.2,-1.3c-1.4,0,-2.5,1.2,-2.5,2.6c0,1.4,1.1,2.5,2.5,2.5c1,0,1.8,-.5,2.2,-1.2h1.8v8.6h8.7v-1.8c-.8,-.4,-1.3,-1.2,-1.3,-2.2c0,-1.4,1.2,-2.5,2.6,-2.5c1.4,0,2.5,1.1,2.5,2.5c0,1,-.5,1.8,-1.3,2.2v1.8h8.7V126h-1.8c-.4,.7,-1.2,1.2,-2.2,1.2c-1.4,0,-2.5,-1.1,-2.5,-2.5c0,-1.4,1.1,-2.6,2.5,-2.6Z" class="gc_196"/>
<path d="M201,135h-9.5v-2.4l.2,-.1c.7,-.4,1.1,-1.1,1.1,-1.9c0,-1.2,-1,-2.1,-2.1,-2.1c-1.2,0,-2.2,.9,-2.2,2.1c0,.8,.4,1.5,1.1,1.9l.2,.1V135h-9.5v-8.6h-1.2c-.5,.7,-1.4,1.2,-2.4,1.2c-1.6,0,-2.9,-1.3,-2.9,-2.9c0,-1.6,1.3,-3,2.9,-3c1,0,1.9,.5,2.4,1.3h1.2v-8.7H189v-1.1c-.8,-.6,-1.3,-1.5,-1.3,-2.5c0,-1.6,1.3,-2.9,3,-2.9c1.6,0,2.9,1.3,2.9,2.9c0,1,-.5,1.9,-1.3,2.5v1.1H201v9.5h-2.4l-.1,-.2c-.4,-.6,-1.1,-1.1,-1.9,-1.1c-.6,0,-1.1,.3,-1.5,.7c-.4,.4,-.6,.9,-.6,1.5c0,1.2,.9,2.1,2.1,2.1c.8,0,1.5,-.4,1.9,-1l.1,-.2H201Zm-8.7,-.8h7.9v-7.8H199c-.5,.7,-1.4,1.2,-2.4,1.2c-1.6,0,-2.9,-1.3,-2.9,-2.9c0,-.8,.3,-1.5,.8,-2.1c.6,-.5,1.3,-.9,2.1,-.9c1,0,1.9,.5,2.4,1.3h1.2v-7.9h-8.7v-2.4l.2,-.1c.7,-.4,1.1,-1.1,1.1,-1.9c0,-1.2,-1,-2.1,-2.1,-2.1c-1.2,0,-2.2,.9,-2.2,2.1c0,.8,.4,1.5,1.1,1.9l.2,.1v2.4h-8.7v8.7h-2.4l-.1,-.2c-.4,-.6,-1.1,-1.1,-1.9,-1.1c-1.2,0,-2.1,1,-2.1,2.2c0,1.2,.9,2.1,2.1,2.1c.8,0,1.5,-.4,1.9,-1l.1,-.2h2.4v8.6H189V133c-.8,-.5,-1.3,-1.4,-1.3,-2.4c0,-1.6,1.3,-2.9,3,-2.9c1.6,0,2.9,1.3,2.9,2.9c0,1,-.5,1.9,-1.3,2.4Z" class="gb_196"/>
<path d="M176.7,142c1,0,1.8,.5,2.2,1.3h1.8v-8.7H172v-1.8c.8,-.4,1.3,-1.2,1.3,-2.2c0,-1.4,-1.1,-2.5,-2.5,-2.5c-1.4,0,-2.6,1.1,-2.6,2.5c0,1,.5,1.8,1.3,2.2v1.8h-8.7v8.7H159c-.4,-.8,-1.2,-1.3,-2.2,-1.3c-1.4,0,-2.5,1.2,-2.5,2.6c0,1.4,1.1,2.5,2.5,2.5c1,0,1.8,-.5,2.2,-1.2h1.8v8.6h8.7v-1.8c-.8,-.4,-1.3,-1.2,-1.3,-2.2c0,-1.4,1.2,-2.5,2.6,-2.5c1.4,0,2.5,1.1,2.5,2.5c0,1,-.5,1.8,-1.3,2.2v1.8h8.7v-8.7h-1.8c-.4,.8,-1.2,1.3,-2.2,1.3c-1.4,0,-2.5,-1.1,-2.5,-2.5c0,-1.4,1.1,-2.6,2.5,-2.6Z" class="gd_196"/>
<path d="M181.1,154.9h-9.5v-2.4l.2,-.1c.7,-.4,1.1,-1.1,1.1,-1.9c0,-1.2,-1,-2.1,-2.1,-2.1c-1.2,0,-2.2,.9,-2.2,2.1c0,.8,.4,1.5,1.1,1.9l.2,.1v2.4h-9.5v-8.6h-1.2c-.5,.7,-1.4,1.2,-2.4,1.2c-1.6,0,-2.9,-1.3,-2.9,-2.9c0,-1.6,1.3,-3,2.9,-3c1,0,1.9,.5,2.4,1.3h1.2v-8.7h8.7V133c-.8,-.5,-1.3,-1.4,-1.3,-2.4c0,-1.6,1.3,-2.9,3,-2.9c1.6,0,2.9,1.3,2.9,2.9c0,1,-.5,1.9,-1.3,2.4v1.2h8.7v9.5h-2.4l-.1,-.2c-.4,-.7,-1.1,-1.1,-1.9,-1.1c-1.2,0,-2.1,1,-2.1,2.2c0,1.1,.9,2.1,2.1,2.1c.8,0,1.5,-.4,1.9,-1.1l.1,-.2h2.4Zm-8.7,-.8h7.9v-7.9h-1.2c-.5,.8,-1.4,1.3,-2.4,1.3c-1.6,0,-2.9,-1.3,-2.9,-2.9c0,-1.6,1.3,-3,2.9,-3c1,0,1.9,.5,2.4,1.3h1.2V135h-8.7v-2.4l.2,-.1c.7,-.4,1.1,-1.1,1.1,-1.9c0,-1.2,-1,-2.1,-2.1,-2.1c-1.2,0,-2.2,.9,-2.2,2.1c0,.8,.4,1.5,1.1,1.9l.2,.1V135h-8.7v8.7h-2.4l-.1,-.2c-.4,-.7,-1.1,-1.1,-1.9,-1.1c-1.2,0,-2.1,1,-2.1,2.2c0,1.2,.9,2.1,2.1,2.1c.8,0,1.5,-.4,1.9,-1l.1,-.2h2.4v8.6h7.9v-1.2c-.8,-.5,-1.3,-1.4,-1.3,-2.4c0,-1.6,1.3,-2.9,3,-2.9c1.6,0,2.9,1.3,2.9,2.9c0,1,-.5,1.9,-1.3,2.4Z" class="gb_196"/>
<path d="M196.6,142c.9,0,1.8,.5,2.2,1.3h1.8v-8.7h-8.7v-1.8c.8,-.4,1.3,-1.2,1.3,-2.2c0,-1.4,-1.1,-2.5,-2.5,-2.5c-1.5,0,-2.6,1.1,-2.6,2.5c0,1,.5,1.8,1.3,2.2v1.8h-8.7v8.7h-1.8c-.4,-.8,-1.2,-1.3,-2.2,-1.3c-1.4,0,-2.5,1.2,-2.5,2.6c0,1.4,1.1,2.5,2.5,2.5c1,0,1.8,-.5,2.2,-1.2h1.8v8.6h8.7v-1.8c-.8,-.4,-1.3,-1.2,-1.3,-2.2c0,-1.4,1.2,-2.5,2.6,-2.5c1.4,0,2.5,1.1,2.5,2.5c0,1,-.5,1.8,-1.3,2.2v1.8h8.7v-8.7h-1.8c-.4,.8,-1.2,1.3,-2.2,1.3c-1.4,0,-2.5,-1.1,-2.5,-2.5c0,-1.4,1.1,-2.6,2.5,-2.6Z" class="ge_196"/>
<path d="M201,154.9h-9.5v-2.4l.2,-.1c.7,-.4,1.1,-1.1,1.1,-1.9c0,-1.2,-1,-2.1,-2.1,-2.1c-1.2,0,-2.2,.9,-2.2,2.1c0,.8,.4,1.5,1.1,1.9l.2,.1v2.4h-9.5v-8.6h-1.2c-.5,.7,-1.4,1.2,-2.4,1.2c-1.6,0,-2.9,-1.3,-2.9,-2.9c0,-1.6,1.3,-3,2.9,-3c1,0,1.9,.5,2.4,1.3h1.2v-8.7H189V133c-.8,-.5,-1.3,-1.4,-1.3,-2.4c0,-1.6,1.3,-2.9,3,-2.9c1.6,0,2.9,1.3,2.9,2.9c0,1,-.5,1.9,-1.3,2.4v1.2H201v9.5h-2.4l-.1,-.2c-.4,-.7,-1.1,-1.1,-1.9,-1.1c-.6,0,-1.1,.3,-1.5,.7c-.4,.4,-.6,.9,-.6,1.5c0,1.1,.9,2.1,2.1,2.1c.8,0,1.5,-.4,1.9,-1.1l.1,-.2H201Zm-8.7,-.8h7.9v-7.9H199c-.5,.8,-1.4,1.3,-2.4,1.3c-1.6,0,-2.9,-1.3,-2.9,-2.9c0,-.8,.3,-1.5,.8,-2.1c.6,-.6,1.3,-.9,2.1,-.9c1,0,1.9,.5,2.4,1.3h1.2V135h-8.7v-2.4l.2,-.1c.7,-.4,1.1,-1.1,1.1,-1.9c0,-1.2,-1,-2.1,-2.1,-2.1c-1.2,0,-2.2,.9,-2.2,2.1c0,.8,.4,1.5,1.1,1.9l.2,.1V135h-8.7v8.7h-2.4l-.1,-.2c-.4,-.7,-1.1,-1.1,-1.9,-1.1c-1.2,0,-2.1,1,-2.1,2.2c0,1.2,.9,2.1,2.1,2.1c.8,0,1.5,-.4,1.9,-1l.1,-.2h2.4v8.6H189v-1.2c-.8,-.5,-1.3,-1.4,-1.3,-2.4c0,-1.6,1.3,-2.9,3,-2.9c1.6,0,2.9,1.3,2.9,2.9c0,1,-.5,1.9,-1.3,2.4Z" class="gb_196"/>
<path d="M32.1,45.1H9.2m958.3,0h22.9M32.1,1331.3H9.2m958.3,0h22.9M45.1,32.1V9.2m0,1335.1v22.9M954.5,32.1V9.2m0,1335.1v22.9" class="gf_196"/>
<path d="M32.1,45.1H9.2m958.3,0h22.9M32.1,1331.3H9.2m958.3,0h22.9M45.1,32.1V9.2m0,1335.1v22.9M954.5,32.1V9.2m0,1335.1v22.9" class="gg_196"/>
<path d="M27.5,32.1H0m972.1,0h27.5M27.5,1344.3H0m972.1,0h27.5M32.1,27.5V0m0,1348.9v27.5M967.5,27.5V0m0,1348.9v27.5" class="gf_196"/>
<path d="M27.5,32.1H0m972.1,0h27.5M27.5,1344.3H0m972.1,0h27.5M32.1,27.5V0m0,1348.9v27.5M967.5,27.5V0m0,1348.9v27.5" class="gg_196"/>
</svg>