<?xml version="1.0" encoding="UTF-8" standalone="no"?>
<!DOCTYPE svg PUBLIC "-//W3C//DTD SVG 1.1//EN"
"http://www.w3.org/Graphics/SVG/1.1/DTD/svg11.dtd">
<svg viewBox="0 0 999 1376" version="1.1" xmlns="http://www.w3.org/2000/svg" xmlns:xlink="http://www.w3.org/1999/xlink">
<defs>
<clipPath id="c0_240"><path d="M32.1,1344.3V32.1H967.5V1344.3Z"/></clipPath>
<clipPath id="c1_240"><path d="M177.7,805.9l-6.5,-2.1L154.9,789.9V732.8h71.9v73.1Z"/></clipPath>
<clipPath id="c2_240"><path d="M207.5,919.4V914h27.6v5.4Zm0,-19.4V889.7h27.6V900Z"/></clipPath>
<clipPath id="c3_240"><path d="M235,919.4V914h31.6v5.4ZM235,900V889.7h31.6V900Z"/></clipPath>
<clipPath id="c4_240"><path d="M266.5,919.4V914h26.7v5.4Zm0,-19.4V889.7h26.7V900Z"/></clipPath>
<clipPath id="c5_240"><path d="M207.5,953.7V942.2h27.6v11.5Zm0,-24.4v-10h27.6v10Z"/></clipPath>
<clipPath id="c6_240"><path d="M235,953.7V942.2h31.6v11.5Zm0,-24.4v-10h31.6v10Z"/></clipPath>
<clipPath id="c7_240"><path d="M266.5,953.7V942.2h26.7v11.5Zm0,-24.4v-10h26.7v10Z"/></clipPath>
<clipPath id="c8_240"><path d="M207.5,914V900h27.6v14Z"/></clipPath>
<clipPath id="c9_240"><path d="M235,914V900h31.6v14Z"/></clipPath>
<clipPath id="ca_240"><path d="M266.5,914V900h26.7v14Z"/></clipPath>
<clipPath id="cb_240"><path d="M207.5,942.2V929.3h59.1v12.9Z"/></clipPath>
<clipPath id="cc_240"><path d="M266.5,942.2V929.3h26.7v12.9Z"/></clipPath>
<clipPath id="cd_240"><path d="M227.4,1048V987.8h51.2V1048Z"/></clipPath>
<clipPath id="ce_240"><path d="M207,1144.9v-55h78.7v55Z"/></clipPath>
<clipPath id="cf_240"><path d="M178.4,137.2c.1,-1.3,.7,-2.5,1.6,-3.4c1,-1,2.4,-1.6,3.9,-1.6h19.2v5Z"/></clipPath>
<clipPath id="cg_240"><path d="M177.9,137.7v-6h25.7v6Z"/></clipPath>
<style type="text/css"><![CDATA[
.g0_240{
fill: #FEFCF4;
}
.g1_240{
fill: #FCE8B0;
}
.g2_240{
fill: #DCE9F3;
}
.g3_240{
fill: #9BD1EA;
}
.g4_240{
fill: #FFF;
}
.g5_240{
fill: none;
stroke: #58595B;
stroke-width: 0.381;
stroke-miterlimit: 10;
}
.g6_240{
fill: none;
stroke: #6381B7;
stroke-width: 0.763;
}
.g7_240{
fill: none;
stroke: #231F20;
stroke-width: 0.305;
stroke-miterlimit: 10;
}
.g8_240{
fill: #6381B7;
}
.g9_240{
fill: none;
stroke: #6381B7;
stroke-width: 0.381;
stroke-dasharray: 2,1;
}
.ga_240{
fill: none;
stroke: #6381B7;
stroke-width: 0.381;
}
.gb_240{
fill: #25408F;
}
.gc_240{
fill: none;
stroke: #231F20;
stroke-width: 1.527;
}
.gd_240{
fill: #39B4D1;
stroke: #2D2A4A;
stroke-width: 1.038;
stroke-linecap: round;
stroke-linejoin: round;
}
.ge_240{
fill: #2D2A4A;
}
.gf_240{
fill: none;
stroke: #2D2A4A;
stroke-width: 1.038;
stroke-linecap: round;
stroke-linejoin: round;
}
.gg_240{
fill: #DEDAD3;
}
.gh_240{
fill: #29263F;
}
.gi_240{
fill: #E15F46;
stroke: #2D2A4A;
stroke-width: 1.038;
stroke-linecap: round;
stroke-linejoin: round;
}
.gj_240{
fill: none;
stroke: #FFF;
stroke-width: 1.909;
stroke-miterlimit: 10;
}
.gk_240{
fill: none;
stroke: #000;
stroke-width: 0.381;
stroke-miterlimit: 10;
}
]]></style>
</defs>
<path clip-path="url(#c0_240)" d="M954.5,1344.3H1877V32.1H954.5V1344.3Z" class="g0_240"/>
<path d="M210.4,760.9c0,0,-13,0,-13,13v21.7c0,0,0,13,13,13H834c0,0,13,0,13,-13V773.9c0,0,0,-13,-13,-13Z" class="g1_240"/>
<image clip-path="url(#c1_240)" preserveAspectRatio="none" x="153" y="731" width="75" height="77" xlink:href="img/1.png"/>
<path d="M205.2,801.2c0,0,-26.9,11.3,-51.1,-12.7c0,0,15.1,25.3,49.3,23.9c0,0,24.7,.4,20.2,-10.1c0,0,1.2,-4.5,-18.4,-1.1Z" class="g1_240"/>
<path d="M149,165.5c0,0,-17.3,0,-17.3,17.3V616.7c0,0,0,17.4,17.3,17.4H828.9c0,0,17.4,0,17.4,-17.4V182.8c0,0,0,-17.3,-17.4,-17.3Z" class="g2_240"/>
<path d="M212.2,238.9h225V269h-225V238.9Zm225,0H765.7V269H437.2V238.9Z" class="g3_240"/>
<path d="M212.2,269h225v53.5h-225V269Zm225,0H765.7v53.5H437.2V269Z" class="g4_240"/>
<path d="M212.2,238.9h225m0,0H765.7M437.2,268.8V239.1M212.2,269h225m0,0H765.7M437.2,322.3V269.2m-225,53.3h225m0,0H765.7" class="g5_240"/>
<path d="M145.1,822.4c0,0,-13,0,-13,13v336.5c0,0,0,13,13,13h688c0,0,13,0,13,-13V835.4c0,0,0,-13,-13,-13Z" class="g4_240"/>
<path d="M145.1,822.4c0,0,-13,0,-13,13v336.5c0,0,0,13,13,13h688c0,0,13,0,13,-13V835.4c0,0,0,-13,-13,-13h-688Z" class="g6_240"/>
<image clip-path="url(#c2_240)" preserveAspectRatio="none" x="203" y="885" width="32" height="34" xlink:href="img/2.jpg"/>
<image clip-path="url(#c3_240)" preserveAspectRatio="none" x="235" y="885" width="32" height="34" xlink:href="img/3.jpg"/>
<image clip-path="url(#c4_240)" preserveAspectRatio="none" x="266" y="885" width="32" height="34" xlink:href="img/4.jpg"/>
<image clip-path="url(#c5_240)" preserveAspectRatio="none" x="203" y="919" width="32" height="35" xlink:href="img/5.jpg"/>
<image clip-path="url(#c6_240)" preserveAspectRatio="none" x="235" y="919" width="32" height="35" xlink:href="img/6.jpg"/>
<image clip-path="url(#c7_240)" preserveAspectRatio="none" x="266" y="919" width="32" height="35" xlink:href="img/7.jpg"/>
<image clip-path="url(#c8_240)" preserveAspectRatio="none" x="203" y="900" width="32" height="14" xlink:href="img/8.jpg"/>
<image clip-path="url(#c9_240)" preserveAspectRatio="none" x="235" y="900" width="32" height="14" xlink:href="img/9.jpg"/>
<image clip-path="url(#ca_240)" preserveAspectRatio="none" x="266" y="900" width="32" height="14" xlink:href="img/10.jpg"/>
<image clip-path="url(#cb_240)" preserveAspectRatio="none" x="203" y="929" width="64" height="13" xlink:href="img/11.jpg"/>
<image clip-path="url(#cc_240)" preserveAspectRatio="none" x="266" y="929" width="32" height="13" xlink:href="img/12.jpg"/>
<image clip-path="url(#cd_240)" preserveAspectRatio="none" x="227" y="987" width="52" height="62" xlink:href="img/13.jpg"/>
<image clip-path="url(#ce_240)" preserveAspectRatio="none" x="205" y="1089" width="80" height="56" xlink:href="img/14.jpg"/>
<path d="M179.3,875.9H836V859.7H179.3v16.2Z" class="g4_240"/>
<path d="M461.4,939.7H637.6m-163.3,97.5H650.5M474.3,1138.6H650.5" class="g7_240"/>
<path d="M190.2,967.7h119V946h-119v21.7Z" class="g4_240"/>
<path d="M190.2,1071.6h119V1050h-119v21.6Z" class="g4_240"/>
<path d="M190.2,1169.1h119v-21.7h-119v21.7Z" class="g4_240"/>
<path d="M396.2,1202.8c0,0,-4.3,0,-4.3,4.4V1218c0,0,0,4.3,4.3,4.3h30.4c0,0,4.3,0,4.3,-4.3v-10.8c0,0,0,-4.4,-4.3,-4.4Z" class="g8_240"/>
<path d="M383.1,1195.3v34.9m1.3,1H845.1m1,-1.4V1195m-1.4,-1H384" class="g9_240"/>
<path d="M383.1,1230.6v.6h.5m461.9,0h.6v-.6m0,-36v-.6h-.6m-461.9,0h-.5v.6" class="ga_240"/>
<path d="M131.7,109.5v39l11.7,10.2V136.5Z" class="gb_240"/>
<path d="M131.7,109.5v39H829.5c0,0,16.8,0,16.8,-16.8v-5.4c0,0,0,-16.8,-16.8,-16.8Z" class="g8_240"/>
<path d="M768.8,131c0,0,-.5,-10,8.6,-9.4c0,0,6.7,-.3,6.6,9.5m-15.3,-1.5v6.5c0,0,-3.3,.3,-3.9,-3c0,0,-.1,-3.8,3.9,-3.5Zm15.4,0v6.5c0,0,3.3,.3,3.9,-3c0,0,.1,-3.8,-3.9,-3.5Z" class="gc_240"/>
<path d="M147.4,140.8h61v-32h-61v32Z" class="gd_240"/>
<path d="M147.4,143.1h61v-2.3h-61v2.3Z" class="gd_240"/>
<path d="M171.8,106.2H152.1v31.5h25.8V112.3c0,-3.4,-2.7,-6.1,-6.1,-6.1Z" class="g4_240"/>
<path d="M171.8,106.2v-.5H152.1c-.1,0,-.3,.1,-.4,.2c-.1,.1,-.1,.2,-.1,.3v31.5c0,.1,0,.3,.1,.4c.1,.1,.3,.1,.4,.1h25.8c.1,0,.2,0,.3,-.1c.1,-.1,.2,-.3,.2,-.4V112.3c0,-3.7,-2.9,-6.6,-6.6,-6.6v1c1.6,0,2.9,.7,3.9,1.7c1,1,1.6,2.3,1.6,3.9v24.9H152.6V106.7h19.2Z" class="ge_240"/>
<path d="M152.1,131.7v6h25.8c0,-3.3,-2.7,-6,-6.1,-6Z" class="g4_240"/>
<path d="M152.1,131.7h-.5v6c0,.1,0,.3,.1,.4c.1,.1,.3,.1,.4,.1h25.8c.1,0,.2,0,.3,-.1c.1,-.1,.2,-.3,.2,-.4c0,-3.6,-3,-6.6,-6.6,-6.6H152.1c-.1,0,-.3,.1,-.4,.2c-.1,.1,-.1,.2,-.1,.4h.5v.5h19.7c1.6,0,2.9,.6,3.9,1.6c1,1,1.6,2.4,1.6,3.9h.6v-.5H152.6v-5.5h-.5v.5Z" class="ge_240"/>
<path d="M155.6,110.9h17.2m-17.2,2.8h17.2m-17.2,2.9h17.2m-17.2,2.9h17.2m-17.2,2.8h17.2m-17.2,2.9h17.2M155.6,128h17.2" class="gf_240"/>
<path d="M171.8,132.2H152.6v5h24.7c-.1,-1.3,-.7,-2.5,-1.6,-3.4c-1,-1,-2.3,-1.6,-3.9,-1.6Z" class="gg_240"/>
<path d="M152.6,132.2h19.2c1.6,0,2.9,.6,3.9,1.6c.9,.9,1.5,2.1,1.6,3.4H152.6Zm19.2,-.5H152.1v6h25.2v-2.5c-.9,-2.1,-3,-3.5,-5.5,-3.5Z" class="gh_240"/>
<path d="M183.9,106.2h19.7v31.5H177.9V112.3c0,-3.4,2.7,-6.1,6,-6.1Z" class="g4_240"/>
<path d="M183.9,106.2v.5h19.2v30.5H178.4V112.3c0,-1.6,.6,-2.9,1.6,-3.9c1,-1,2.4,-1.7,3.9,-1.7v-1c-3.6,0,-6.6,2.9,-6.6,6.6v25.4c0,.1,.1,.3,.2,.4c.1,.1,.2,.1,.4,.1h25.7c.2,0,.3,0,.4,-.1c.1,-.1,.1,-.3,.1,-.4V106.2c0,-.1,0,-.2,-.1,-.3c-.1,-.1,-.2,-.2,-.4,-.2H183.9Z" class="ge_240"/>
<path d="M203.6,131.7v6H177.9c0,-3.3,2.7,-6,6,-6Z" class="g4_240"/>
<path d="M203.6,131.7h-.5v5.5H177.9v.5h.5c0,-1.5,.6,-2.9,1.6,-3.9c1,-1,2.4,-1.6,3.9,-1.6h19.7v-.5h-.5h.5v-.6H183.9c-3.6,0,-6.6,3,-6.6,6.6c0,.1,.1,.3,.2,.4c.1,.1,.2,.1,.4,.1h25.7c.2,0,.3,0,.4,-.1c.1,-.1,.1,-.3,.1,-.4v-6c0,-.2,0,-.3,-.1,-.4c-.1,-.1,-.2,-.2,-.4,-.2Z" class="ge_240"/>
<path d="M200.1,110.9H182.9m17.2,2.8H182.9m17.2,2.9H182.9m17.2,2.9H182.9m17.2,2.8H182.9m17.2,2.9H182.9m17.2,2.8H182.9" class="gf_240"/>
<path clip-path="url(#cf_240)" d="M178.4,137.2h24.7v-5H178.4v5Z" class="gg_240"/>
<path clip-path="url(#cg_240)" d="M178.4,137.2c.1,-1.3,.7,-2.5,1.6,-3.4c1,-1,2.4,-1.6,3.9,-1.6h19.2v5Zm25.2,-5.5H183.9c-3.3,0,-6,2.7,-6,6h25.7v-6h-.5h.5Z" class="gh_240"/>
<path d="M177.9,108.8v34.3" class="gf_240"/>
<path d="M195.5,145.5h3.3V134.7h-3.3v10.8Z" class="gi_240"/>
<path d="M32.1,45.1H9.2m958.3,0h22.9M32.1,1331.3H9.2m958.3,0h22.9M45.1,32.1V9.2m0,1335.1v22.9M954.5,32.1V9.2m0,1335.1v22.9" class="gj_240"/>
<path d="M32.1,45.1H9.2m958.3,0h22.9M32.1,1331.3H9.2m958.3,0h22.9M45.1,32.1V9.2m0,1335.1v22.9M954.5,32.1V9.2m0,1335.1v22.9" class="gk_240"/>
<path d="M27.5,32.1H0m972.1,0h27.5M27.5,1344.3H0m972.1,0h27.5M32.1,27.5V0m0,1348.9v27.5M967.5,27.5V0m0,1348.9v27.5" class="gj_240"/>
<path d="M27.5,32.1H0m972.1,0h27.5M27.5,1344.3H0m972.1,0h27.5M32.1,27.5V0m0,1348.9v27.5M967.5,27.5V0m0,1348.9v27.5" class="gk_240"/>
</svg>