<?xml version="1.0" encoding="UTF-8" standalone="no"?>
<!DOCTYPE svg PUBLIC "-//W3C//DTD SVG 1.1//EN"
"http://www.w3.org/Graphics/SVG/1.1/DTD/svg11.dtd">
<svg viewBox="0 0 999 1376" version="1.1" xmlns="http://www.w3.org/2000/svg" xmlns:xlink="http://www.w3.org/1999/xlink">
<defs>
<clipPath id="c0_299"><path d="M32.1,1344.3V32.1H967.5V1344.3Z"/></clipPath>
<clipPath id="c1_299"><path d="M214.8,801.5V702.2H317.2v99.3Z"/></clipPath>
<clipPath id="c2_299"><path d="M204.7,801.5V702.2H325.2v99.3Z"/></clipPath>
<clipPath id="c3_299"><path d="M198.2,326.4l-6.5,-2.2L175.3,310.3V253.2h72v73.2Z"/></clipPath>
<clipPath id="c4_299"><path d="M658.6,177V59h200V177Z"/></clipPath>
<style type="text/css"><![CDATA[
.g0_299{
fill: #FEFCF4;
}
.g1_299{
fill: #FFF;
}
.g2_299{
fill: none;
stroke: #6381B7;
stroke-width: 0.763;
}
.g3_299{
fill: none;
stroke: #949698;
stroke-width: 0.381;
}
.g4_299{
fill: none;
stroke: #949698;
stroke-width: 1.26;
}
.g5_299{
fill: #FCE8B0;
}
.g6_299{
fill: none;
stroke: #00ABE5;
stroke-width: 2.291;
}
.g7_299{
fill: #3D3B39;
}
.g8_299{
fill: #E5E9B7;
}
.g9_299{
fill: #61C7CB;
}
.ga_299{
fill: none;
stroke: #00ABE5;
stroke-width: 1.527;
stroke-linecap: round;
stroke-linejoin: round;
stroke-dasharray: 0,5;
}
.gb_299{
fill: none;
stroke: #00ABE5;
stroke-width: 1.527;
stroke-linecap: round;
stroke-linejoin: round;
}
.gc_299{
fill: #2E6E51;
}
.gd_299{
fill: #BCBEC0;
}
.ge_299{
fill: #EE314A;
}
.gf_299{
fill: #25408F;
}
.gg_299{
fill: #6381B7;
}
.gh_299{
fill: #00BAF1;
}
.gi_299{
fill: #332D2C;
}
.gj_299{
fill: #D9DFF0;
}
.gk_299{
fill: #F27C85;
}
.gl_299{
fill: #7DD3F6;
}
.gm_299{
fill: none;
stroke: #FFF;
stroke-width: 1.909;
stroke-miterlimit: 10;
}
.gn_299{
fill: none;
stroke: #000;
stroke-width: 0.381;
stroke-miterlimit: 10;
}
]]></style>
</defs>
<path clip-path="url(#c0_299)" d="M-877.3,1343.2H45.1V32.1H-877.3V1343.2Z" class="g0_299"/>
<path d="M45.1,1344.3H967.5V32.1H45.1V1344.3Z" class="g0_299"/>
<path d="M172.1,224.6c0,0,-18.4,0,-18.4,18.4V856.6c0,0,0,18.3,18.4,18.3H849.2c0,0,18.3,0,18.3,-18.3v-632Z" class="g1_299"/>
<path d="M172.1,224.6c0,0,-18.4,0,-18.4,18.4V856.6c0,0,0,18.3,18.4,18.3H849.2c0,0,18.3,0,18.3,-18.3v-632H172.1Z" class="g2_299"/>
<path d="M204.7,446.3H325.2V347.1H204.7v99.2Z" class="g1_299"/>
<image preserveAspectRatio="none" x="215" y="347" width="100" height="99" xlink:href="img/1.jpg"/>
<path d="M204.7,446.3H325.2V347.1H204.7v99.2Z" class="g3_299"/>
<path d="M531.9,446.3H652.4V347.1H531.9v99.2Z" class="g1_299"/>
<image preserveAspectRatio="none" x="543" y="347" width="99" height="99" xlink:href="img/2.jpg"/>
<path d="M531.9,446.3H652.4V347.1H531.9v99.2Z" class="g3_299"/>
<path d="M368.3,446.3H488.8V347.1H368.3v99.2Z" class="g1_299"/>
<image preserveAspectRatio="none" x="379" y="347" width="99" height="99" xlink:href="img/3.jpg"/>
<path d="M368.3,446.3H488.8V347.1H368.3v99.2Z" class="g3_299"/>
<path d="M695.6,446.3H816V347.1H695.6v99.2Z" class="g1_299"/>
<image preserveAspectRatio="none" x="706" y="347" width="99" height="99" xlink:href="img/4.jpg"/>
<path d="M695.6,446.3H816V347.1H695.6v99.2Z" class="g3_299"/>
<path d="M204.7,640.1H325.2V540.8H204.7v99.3Z" class="g1_299"/>
<image preserveAspectRatio="none" x="215" y="541" width="100" height="99" xlink:href="img/5.jpg"/>
<path d="M204.7,640.1H325.2V540.8H204.7v99.3Z" class="g3_299"/>
<path d="M368.3,640.1H488.8V540.8H368.3v99.3Z" class="g1_299"/>
<image preserveAspectRatio="none" x="379" y="541" width="99" height="99" xlink:href="img/6.jpg"/>
<path d="M368.3,640.1H488.8V540.8H368.3v99.3Z" class="g3_299"/>
<path d="M531.9,640.1H652.4V540.8H531.9v99.3Z" class="g1_299"/>
<image preserveAspectRatio="none" x="543" y="541" width="99" height="99" xlink:href="img/7.jpg"/>
<path d="M531.9,640.1H652.4V540.8H531.9v99.3Z" class="g3_299"/>
<path d="M695.6,640.1H816V540.8H695.6v99.3Z" class="g1_299"/>
<image preserveAspectRatio="none" x="706" y="541" width="99" height="99" xlink:href="img/8.jpg"/>
<path d="M695.6,640.1H816V540.8H695.6v99.3Z" class="g3_299"/>
<path d="M204.7,801.5H325.2V702.2H204.7v99.3Z" class="g1_299"/>
<image clip-path="url(#c1_299)" preserveAspectRatio="none" x="215" y="699" width="102" height="105" xlink:href="img/9.jpg"/>
<path clip-path="url(#c2_299)" d="M195.7,804.9H335V699H195.7V804.9Z" class="g4_299"/>
<path d="M204.7,801.5H325.2V702.2H204.7v99.3Z" class="g3_299"/>
<path d="M368.3,801.5H488.8V702.2H368.3v99.3Z" class="g1_299"/>
<image preserveAspectRatio="none" x="379" y="702" width="99" height="99" xlink:href="img/10.jpg"/>
<path d="M368.3,801.5H488.8V702.2H368.3v99.3Z" class="g3_299"/>
<path d="M531.9,801.5H652.4V702.2H531.9v99.3Z" class="g1_299"/>
<image preserveAspectRatio="none" x="543" y="702" width="99" height="99" xlink:href="img/11.jpg"/>
<path d="M531.9,801.5H652.4V702.2H531.9v99.3Z" class="g3_299"/>
<path d="M695.6,801.5H816V702.2H695.6v99.3Z" class="g1_299"/>
<image preserveAspectRatio="none" x="706" y="702" width="99" height="99" xlink:href="img/12.jpg"/>
<path d="M695.6,801.5H816V702.2H695.6v99.3Z" class="g3_299"/>
<path d="M230.8,281.4c0,0,-13,0,-13,13V316c0,0,0,13,13,13h602c0,0,13,0,13,-13V294.4c0,0,0,-13,-13,-13Z" class="g5_299"/>
<image clip-path="url(#c3_299)" preserveAspectRatio="none" x="174" y="252" width="75" height="76" xlink:href="img/13.png"/>
<path d="M225.6,321.6c0,0,-26.9,11.3,-51.1,-12.7c0,0,15.2,25.3,49.3,23.9c0,0,24.7,.4,20.2,-10.1c0,0,1.3,-4.4,-18.4,-1.1Z" class="g5_299"/>
<path d="M154.5,1053.7V1025c0,0,0,-4.4,4.3,-4.4H862.4c0,0,4.4,0,4.4,4.4v29.1" class="g6_299"/>
<path d="M200.1,1021.2c2.6,0,4.8,-2.2,4.8,-4.8c0,-2.7,-2.2,-4.8,-4.8,-4.8c-2.7,0,-4.8,2.1,-4.8,4.8c0,2.6,2.1,4.8,4.8,4.8Z" class="g1_299"/>
<path d="M200.1,1023.1c3.6,0,6.6,-3,6.6,-6.7c0,-3.7,-3,-6.7,-6.6,-6.7c-3.7,0,-6.7,3,-6.7,6.7c0,3.7,3,6.7,6.7,6.7m0,-11.5c2.6,0,4.8,2.1,4.8,4.8c0,2.6,-2.2,4.8,-4.8,4.8c-2.7,0,-4.8,-2.2,-4.8,-4.8c0,-2.7,2.1,-4.8,4.8,-4.8Z" class="g7_299"/>
<path d="M205.5,1025H194.6c-.1,0,-.3,0,-.4,0c2.7,1.1,4.9,3.3,5.9,6.2c1.3,-.5,2.7,-.8,4.2,-.8c2.9,0,5.5,1,7.5,2.6v-1.7c0,-3.5,-2.8,-6.3,-6.3,-6.3Z" class="g1_299"/>
<path d="M184,1022c3.4,0,6.1,-2.7,6.1,-6.1c0,-3.4,-2.7,-6.2,-6.1,-6.2c-3.4,0,-6.1,2.8,-6.1,6.2c0,3.4,2.7,6.1,6.1,6.1Z" class="g8_299"/>
<path d="M184,1023.9c4.4,0,8,-3.6,8,-8c0,-4.5,-3.6,-8.1,-8,-8.1c-4.4,0,-8,3.6,-8,8.1c0,4.4,3.6,8,8,8m0,-14.2c3.4,0,6.1,2.8,6.1,6.2c0,3.4,-2.7,6.1,-6.1,6.1c-3.4,0,-6.1,-2.7,-6.1,-6.1c0,-3.4,2.7,-6.2,6.1,-6.2Z" class="g7_299"/>
<path d="M198.4,1032c-1,-3.3,-4.1,-5.7,-7.7,-5.7H177.3c-4.4,0,-8,3.5,-8,8v4.3h23.8c.9,-2.8,2.8,-5.1,5.3,-6.6Z" class="g8_299"/>
<path d="M204.3,1032.3c-5.5,0,-9.9,4.5,-9.9,10c0,5.5,4.4,9.9,9.9,9.9c5.5,0,10,-4.4,10,-9.9c0,-5.5,-4.5,-10,-10,-10m6.7,11.6c0,.3,-.2,.5,-.5,.5h-4v4.1c0,.2,-.2,.4,-.5,.4h-3.3c-.3,0,-.5,-.2,-.5,-.4v-4.1h-4.1c-.2,0,-.4,-.2,-.4,-.5v-3.3c0,-.3,.2,-.5,.4,-.5h4.1v-4c0,-.3,.2,-.5,.5,-.5H206c.3,0,.5,.2,.5,.5v4h4c.3,0,.5,.2,.5,.5Z" class="g9_299"/>
<path d="M213.7,1035v-3.7c0,-4.5,-3.7,-8.2,-8.2,-8.2H194.6c-1.6,0,-3.1,.5,-4.3,1.3h-13c-5.4,0,-9.9,4.4,-9.9,9.9v5.2c0,.5,.4,1,1,1h24.2c-.1,.5,-.1,1.1,-.1,1.8c0,6.5,5.3,11.8,11.8,11.8c6.6,0,11.9,-5.3,11.9,-11.8c0,-2.8,-.9,-5.3,-2.5,-7.3m-9.4,17.2c-5.5,0,-9.9,-4.4,-9.9,-9.9c0,-5.5,4.4,-10,9.9,-10c5.5,0,10,4.5,10,10c0,5.5,-4.5,9.9,-10,9.9m-35,-17.9c0,-4.5,3.6,-8.1,8,-8.1h13.4c3.6,0,6.7,2.5,7.7,5.8c-2.5,1.5,-4.4,3.8,-5.3,6.6H169.3Zm42.5,-1.3c-2,-1.6,-4.6,-2.6,-7.5,-2.6c-1.5,0,-2.9,.3,-4.2,.8c-1,-2.9,-3.2,-5.1,-5.9,-6.2c.1,0,.3,0,.4,0h10.9c3.5,0,6.3,2.8,6.3,6.3Z" class="g7_299"/>
<path d="M205.5,1040.6v-4.1h-2.4v4.1c0,.2,-.2,.5,-.4,.5h-4.1v2.4h4.1c.2,0,.4,.2,.4,.4v4.1h2.4v-4.1c0,-.2,.3,-.4,.5,-.4h4.1v-2.4H206c-.2,0,-.5,-.3,-.5,-.5Z" class="g1_299"/>
<path d="M210.5,1040.1h-4v-4c0,-.3,-.2,-.5,-.5,-.5h-3.3c-.3,0,-.5,.2,-.5,.5v4h-4.1c-.2,0,-.4,.2,-.4,.5v3.3c0,.3,.2,.5,.4,.5h4.1v4.1c0,.2,.2,.4,.5,.4H206c.3,0,.5,-.2,.5,-.4v-4.1h4c.3,0,.5,-.2,.5,-.5v-3.3c0,-.3,-.2,-.5,-.5,-.5m-.4,3.4H206c-.2,0,-.5,.2,-.5,.4v4.1h-2.4v-4.1c0,-.2,-.2,-.4,-.4,-.4h-4.1v-2.4h4.1c.2,0,.4,-.3,.4,-.5v-4.1h2.4v4.1c0,.2,.3,.5,.5,.5h4.1Z" class="g7_299"/>
<path d="M154.1,1063.8v177.8m4.6,2.3H864.9m2.2,-4.6V1061.5m-4.5,-2.3H156.4" class="ga_299"/>
<path d="M154.1,1243.9v0m713.1,0v0m0,-184.7v0m-713.1,0v0" class="gb_299"/>
<path d="M32.1,179.3H967.5V32.1H32.1V179.3Z" class="gc_299"/>
<g clip-path="url(#c0_299)">
<path d="M967.5,177.2H-877.3v-5.4h736.6c43.1,0,53.1,-37.9,115.3,-37.9H967.5Z" class="gd_299"/>
<path d="M967.5,183.7H-877.3v-9.8h736.6c43.1,0,53.1,-33.6,115.3,-33.6H967.5Z" class="ge_299"/>
</g>
<image clip-path="url(#c4_299)" preserveAspectRatio="none" x="659" y="59" width="200" height="118" xlink:href="img/14.png"/>
<path d="M153.3,217.5v22.2L165,250V227.8Z" class="gf_299"/>
<path d="M153.3,200.7v39H851.1c0,0,16.8,0,16.8,-16.8v-5.4c0,0,0,-16.8,-16.8,-16.8Z" class="gg_299"/>
<path d="M211.3,212.1l-6.5,-6.4l-21.2,21.2l6.5,6.4Z" class="gh_299"/>
<path d="M190.1,233.9c.1,0,.3,-.1,.4,-.2l21.2,-21.2c.1,-.1,.1,-.2,.1,-.4c0,-.1,0,-.2,-.1,-.3l-6.5,-6.5c-.2,-.2,-.6,-.2,-.8,0l-21.2,21.2c-.1,.1,-.1,.2,-.1,.4c0,.1,0,.2,.1,.3l6.5,6.5c.1,.1,.3,.2,.4,.2m20.5,-21.8l-20.5,20.5l-5.8,-5.7l20.5,-20.5Z" class="gi_299"/>
<path d="M211.3,212.1l-6.5,-6.4l2.1,-2.2l6.5,6.5Z" class="gj_299"/>
<path d="M211.3,212.7c.1,0,.3,-.1,.4,-.2l2.1,-2.1c.1,-.1,.2,-.2,.2,-.4c0,-.1,-.1,-.3,-.2,-.4l-6.5,-6.4c-.2,-.3,-.5,-.3,-.7,0l-2.2,2.1c-.1,.1,-.1,.2,-.1,.4c0,.1,0,.2,.1,.3l6.5,6.5c.1,.1,.3,.2,.4,.2m1.4,-2.7l-1.4,1.4l-5.7,-5.7l1.3,-1.4Z" class="gi_299"/>
<path d="M217,206.4l-6.4,-6.5l-3.7,3.6l6.5,6.5Z" class="gk_299"/>
<path d="M213.4,210.5c.2,0,.3,0,.4,-.1l3.6,-3.6c.2,-.2,.2,-.6,0,-.8l-6.5,-6.5c-.2,-.2,-.5,-.2,-.7,0l-3.6,3.7c-.2,.2,-.2,.5,0,.7l6.5,6.5c.1,.1,.2,.1,.3,.1m2.9,-4.1l-2.9,2.9l-5.7,-5.8l2.9,-2.8Z" class="gi_299"/>
<path d="M179,238l4.6,-11.1l6.5,6.4Z" class="g1_299"/>
<path d="M179,238.5c0,0,.1,0,.2,0l11.1,-4.7c.2,0,.3,-.2,.3,-.4c0,-.1,0,-.3,-.1,-.4L184,226.5c-.1,-.1,-.3,-.2,-.5,-.1c-.2,0,-.3,.1,-.4,.3l-4.6,11.1c-.1,.2,0,.4,.1,.6c.1,.1,.2,.1,.4,.1m10.2,-5.3l-9.3,3.8l3.9,-9.2Z" class="gi_299"/>
<path d="M179,238l2.2,-5.4l3.1,3.1Z" class="gi_299"/>
<path d="M179,238.5c0,0,.1,0,.2,0l5.3,-2.3c.2,0,.3,-.2,.4,-.4c0,-.1,-.1,-.3,-.2,-.4l-3.1,-3.2c-.1,-.1,-.3,-.1,-.5,-.1c-.2,0,-.3,.2,-.4,.3l-2.2,5.4c-.1,.2,0,.4,.1,.6c.1,.1,.2,.1,.4,.1m4.4,-2.9l-3.5,1.4l1.5,-3.5Z" class="gi_299"/>
<path d="M209.5,210.4l-2.9,-3l-21.2,21.2l2.9,3Z" class="gl_299"/>
<path d="M188.3,232.1c.2,0,.3,0,.4,-.1l21.2,-21.2c.1,-.1,.2,-.3,.2,-.4c0,-.2,-.1,-.3,-.2,-.4l-3,-3c-.2,-.2,-.5,-.2,-.7,0L185,228.3c-.1,.1,-.2,.2,-.2,.3c0,.2,.1,.3,.2,.4l3,3c.1,.1,.2,.1,.3,.1m20.5,-21.7l-20.5,20.4l-2.2,-2.2l20.5,-20.4Z" class="gi_299"/>
<path d="M32.1,45.1H9.2m958.3,0h22.9M32.1,1331.3H9.2m958.3,0h22.9M45.1,32.1V9.2m0,1335.1v22.9M954.5,32.1V9.2m0,1335.1v22.9" class="gm_299"/>
<path d="M32.1,45.1H9.2m958.3,0h22.9M32.1,1331.3H9.2m958.3,0h22.9M45.1,32.1V9.2m0,1335.1v22.9M954.5,32.1V9.2m0,1335.1v22.9" class="gn_299"/>
<path d="M27.5,32.1H0m972.1,0h27.5M27.5,1344.3H0m972.1,0h27.5M32.1,27.5V0m0,1348.9v27.5M967.5,27.5V0m0,1348.9v27.5" class="gm_299"/>
<path d="M27.5,32.1H0m972.1,0h27.5M27.5,1344.3H0m972.1,0h27.5M32.1,27.5V0m0,1348.9v27.5M967.5,27.5V0m0,1348.9v27.5" class="gn_299"/>
</svg>