<?xml version="1.0" encoding="UTF-8" standalone="no"?>
<!DOCTYPE svg PUBLIC "-//W3C//DTD SVG 1.1//EN"
"http://www.w3.org/Graphics/SVG/1.1/DTD/svg11.dtd">
<svg viewBox="0 0 999 1376" version="1.1" xmlns="http://www.w3.org/2000/svg" xmlns:xlink="http://www.w3.org/1999/xlink">
<defs>
<clipPath id="c0_193"><path d="M198.7,242.7l-6.5,-2.1L175.8,226.7V169.6h72v73.1Z"/></clipPath>
<clipPath id="c1_193"><path d="M204.5,903.7L198,901.6L181.6,887.7V830.6h72v73.1Z"/></clipPath>
<clipPath id="c2_193"><path d="M786.5,132.5V120.1H801v12.4Z"/></clipPath>
<clipPath id="c3_193"><path d="M184.7,1197.3v-86.6h93.2v86.6Z"/></clipPath>
<clipPath id="c4_193"><path d="M360,1197.3v-86.6h93.1v86.6Z"/></clipPath>
<clipPath id="c5_193"><path d="M530.9,1197.3v-86.6H624v86.6Z"/></clipPath>
<clipPath id="c6_193"><path d="M701.8,1197.3v-86.6h93.1v86.6Z"/></clipPath>
<clipPath id="c7_193"><path d="M85.8,545.7V374.1H256.9V545.7Z"/></clipPath>
<clipPath id="c8_193"><path d="M84.4,555.4V373.3H258.8V555.4Z"/></clipPath>
<clipPath id="c9_193"><path d="M84.1,555.1V373H257.9V555.1Z"/></clipPath>
<clipPath id="ca_193"><path d="M149.1,389c-.3,0,3.5,-8.2,3.5,-8.2l.8,.5c0,0,-4,7.7,-4.3,7.7Z"/></clipPath>
<clipPath id="cb_193"><path d="M156.6,381.3c0,0,-6.9,-1.1,-7.6,-5.2c-.7,-3.6,1.5,-3.8,2.1,-3.8c0,0,.1,0,.1,0l8.3,-12.8l-1.5,-3c0,0,-.5,-1.2,.2,-2.1c0,-.1,.1,-.1,.3,-.1c2.1,0,12.9,5.5,12.9,5.5l.1,.2c-.4,.5,-.7,1.1,-1.4,1.6c-.6,.5,-5.1,1.2,-5.1,1.2l-8.4,18.5Z"/></clipPath>
<clipPath id="cc_193"><path d="M156.2,381c.2,-.5,.2,-1.8,0,-2.3v-1.4c-1.6,-.5,-2.9,-1.2,-3.7,-2.5c-1.1,.6,-2.1,1.2,-3.1,1.9c1.5,2.1,3.8,3.5,6.8,4.3Zm0,-3.9c2.2,-4.6,4,-9.5,6.1,-14.1c-.9,-.4,-1.8,-1.3,-2.6,-1.4c-2.3,4.3,-4.6,8.6,-7.1,12.8c.8,1.3,2.1,2,3.6,2.7Zm-7.3,12v0c1,-2.9,2.4,-5.4,3.5,-8.3c-2,-1.5,-3.9,-3.1,-4.4,-6.1v-1.5c0,-2.7,1.9,-3.4,4.6,-3.4c0,0,.1,0,.2,0c1.9,-3.4,4.2,-6.4,6.1,-9.7c-.5,-.9,-1.1,-2.4,-.9,-3.6c.6,1.2,1.7,1.8,2.4,2.8c-.1,.6,-.2,1.2,-.3,1.8c.5,.7,1.3,1.2,2.3,1.4c.5,-.4,.6,-1.3,1.2,-1.5c.9,.3,1.8,.7,3.1,.7c.2,.1,.5,.2,.8,.2c.4,0,.7,-.1,.9,-.2c.1,.1,.2,.1,.3,.1c.2,0,.4,-.1,.6,-.2c.2,0,.3,-.1,.5,-.1c.1,0,.2,0,.3,.1c-1.3,.7,-2.2,1.8,-4.2,1.8c-.1,0,-.2,0,-.3,0c-.9,3.7,-1.9,7.3,-2.7,11.1c.6,1.1,1.6,1.7,1.3,3.2c-.5,2.7,-3.8,4.4,-7.2,4.4c-1.3,0,-2.5,-.3,-3.6,-.8c-1,2.1,-2.1,4.2,-3.3,6.1c0,-.4,.3,-.4,.3,-.8c.9,-1.8,1.9,-3.6,2.6,-5.6c-1,1.7,-1.8,3.7,-2.7,5.5c-.2,.4,-.5,.8,-.7,1.2c-.3,.5,-.3,1.2,-.7,1.4Z"/></clipPath>
<clipPath id="cd_193"><path d="M166.6,361.4c-4.8,0,-13.1,-7.4,-5.5,-8.8h1.2c.2,0,.5,0,.7,0c.1,0,.2,0,.2,0c.3,0,.6,0,.9,.1c3.1,.6,8.2,3.8,7.5,7c-.2,1.2,-1.5,1.6,-3.1,1.7h-1.8c0,0,-.1,0,-.1,0Z"/></clipPath>
<clipPath id="ce_193"><path d="M706.6,644.4V448H894.7V644.4Z"/></clipPath>
<clipPath id="cf_193"><path d="M703.7,643.5V441.7H900V643.5Z"/></clipPath>
<clipPath id="cg_193"><path d="M703.4,643.2V441.4H899.7V643.2Z"/></clipPath>
<clipPath id="ch_193"><path d="M801.9,458.7c-.3,-.1,3.6,-8.2,3.6,-8.2l.7,.5c0,0,-4,7.7,-4.3,7.7Z"/></clipPath>
<clipPath id="ci_193"><path d="M809.4,451c0,0,-6.8,-1.1,-7.6,-5.3c-.6,-3.6,1.6,-3.8,2.1,-3.8q.1,0,.1,0l8.4,-12.7l-1.5,-3.1c0,0,-.6,-1.1,.1,-2.1c.1,-.1,.2,-.1,.3,-.1c2.2,0,13,5.6,13,5.6l.1,.1c-.4,.5,-.8,1.2,-1.4,1.7c-.7,.4,-5.1,1.1,-5.1,1.1L809.4,451Z"/></clipPath>
<clipPath id="cj_193"><path d="M809,450.6c.2,-.5,.2,-1.8,0,-2.3V447c-1.5,-.6,-2.9,-1.3,-3.6,-2.6c-1.1,.6,-2.2,1.3,-3.2,1.9c1.6,2.2,3.8,3.6,6.8,4.3Zm0,-3.9c2.2,-4.5,4,-9.5,6.2,-14.1c-.9,-.4,-1.9,-1.3,-2.7,-1.3c-2.3,4.3,-4.6,8.6,-7,12.8c.7,1.3,2.1,2,3.5,2.6Zm-7.3,12.1v0c1.1,-2.9,2.4,-5.5,3.5,-8.3c-1.9,-1.6,-3.9,-3.1,-4.4,-6.2v-1.5c0,-2.7,1.9,-3.4,4.6,-3.4q.1,0,.2,0c2,-3.3,4.2,-6.3,6.2,-9.7c-.6,-.8,-1.2,-2.3,-.9,-3.6c.5,1.2,1.6,1.9,2.4,2.9c-.1,.6,-.3,1.1,-.4,1.7c.6,.7,1.3,1.2,2.4,1.4c.4,-.4,.5,-1.2,1.1,-1.5c1,.4,1.9,.8,3.2,.8c.1,.1,.4,.1,.8,.1c.3,0,.7,0,.8,-.1c.1,0,.2,0,.3,0c.2,0,.4,-.1,.6,-.1c.2,-.1,.4,-.2,.5,-.2c.1,0,.2,.1,.4,.2c-1.4,.6,-2.2,1.7,-4.2,1.7c-.1,0,-.3,0,-.4,0c-.8,3.8,-1.8,7.4,-2.6,11.2c.5,1.1,1.5,1.7,1.2,3.1c-.4,2.8,-3.8,4.4,-7.1,4.4c-1.3,0,-2.6,-.2,-3.7,-.7c-1,2.1,-2,4.1,-3.2,6c-.1,-.4,.3,-.4,.2,-.7c1,-1.9,2,-3.6,2.7,-5.7c-1.1,1.7,-1.9,3.7,-2.8,5.5c-.2,.5,-.4,.9,-.6,1.3c-.3,.4,-.3,1.1,-.8,1.4Z"/></clipPath>
<clipPath id="ck_193"><path d="M819.5,431c-4.8,0,-13.1,-7.3,-5.6,-8.8h1.3c.1,0,.3,0,.5,0c0,0,.1,0,.2,0c.3,0,.6,0,1,.1c3.1,.7,8.3,3.8,7.6,7.1c-.3,1.1,-1.6,1.6,-3.2,1.6h-1.7q-.1,0,-.1,0Z"/></clipPath>
<style type="text/css"><![CDATA[
.g0_193{
fill: #FEFCF4;
}
.g1_193{
fill: #FFF;
}
.g2_193{
fill: none;
stroke: #6381B7;
stroke-width: 0.763;
}
.g3_193{
fill: #6381B7;
}
.g4_193{
fill: none;
stroke: #6381B7;
stroke-width: 0.381;
stroke-dasharray: 2,1;
}
.g5_193{
fill: none;
stroke: #6381B7;
stroke-width: 0.381;
}
.g6_193{
fill: #FCE8B0;
}
.g7_193{
fill: #25408F;
}
.g8_193{
fill: #A8AAAD;
}
.g9_193{
fill: none;
stroke: #949698;
stroke-width: 0.549;
}
.ga_193{
fill: none;
stroke: #BCBEC0;
stroke-width: 2.566;
}
.gb_193{
fill: #231F20;
}
.gc_193{
fill: #363637;
}
.gd_193{
fill: #5CC4BE;
}
.ge_193{
fill: #F0D73F;
}
.gf_193{
fill: none;
stroke: #00ABE5;
stroke-width: 1.527;
stroke-linecap: round;
stroke-linejoin: round;
stroke-dasharray: 0,5;
}
.gg_193{
fill: none;
stroke: #00ABE5;
stroke-width: 1.527;
stroke-linecap: round;
stroke-linejoin: round;
}
.gh_193{
fill: none;
stroke: #00ABE5;
stroke-width: 2.291;
}
.gi_193{
fill: #3D3B39;
}
.gj_193{
fill: #E5E9B7;
}
.gk_193{
fill: #61C7CB;
}
.gl_193{
fill: #F7C2D9;
}
.gm_193{
fill: none;
stroke: #949698;
stroke-width: 0.305;
stroke-dasharray: 4,4;
}
.gn_193{
fill: none;
stroke: #949698;
stroke-width: 0.305;
}
.go_193{
fill: #FDF4F3;
}
.gp_193{
fill: #EC008C;
}
.gq_193{
fill: #6D6F71;
}
.gr_193{
fill: none;
stroke: #949698;
stroke-width: 0.305;
stroke-dasharray: 3,3;
}
.gs_193{
fill: none;
stroke: #FFF;
stroke-width: 1.909;
stroke-miterlimit: 10;
}
.gt_193{
fill: none;
stroke: #000;
stroke-width: 0.381;
stroke-miterlimit: 10;
}
]]></style>
</defs>
<path d="M45.1,1344.3H967.5V32.1H45.1V1344.3Z" class="g0_193"/>
<path d="M172.1,138.4c0,0,-18.4,0,-18.4,18.3V782.5c0,0,0,18.3,18.4,18.3H849.2c0,0,18.3,0,18.3,-18.3V138.4Z" class="g1_193"/>
<path d="M172.1,138.4c0,0,-18.4,0,-18.4,18.3V782.5c0,0,0,18.3,18.4,18.3H849.2c0,0,18.3,0,18.3,-18.3V138.4H172.1Z" class="g2_193"/>
<path d="M535.9,996.9c0,0,-4.3,0,-4.3,4.3V1012c0,0,0,4.4,4.3,4.4h30.3c0,0,4.4,0,4.4,-4.4v-10.8c0,0,0,-4.3,-4.4,-4.3Z" class="g3_193"/>
<path d="M522.7,989.4v34.8m1.4,1H866.5m1,-1.4V989m-1.3,-1H523.7" class="g4_193"/>
<path d="M522.7,1024.6v.6h.6m343.6,0h.6v-.6m0,-36V988h-.6m-343.6,0h-.6v.6" class="g5_193"/>
<path d="M166.7,812c0,0,-13,0,-13,13V969.5c0,0,0,13,13,13H854.5c0,0,13,0,13,-13V825c0,0,0,-13,-13,-13Z" class="g1_193"/>
<path d="M166.7,812c0,0,-13,0,-13,13V969.5c0,0,0,13,13,13H854.5c0,0,13,0,13,-13V825c0,0,0,-13,-13,-13H166.7Z" class="g2_193"/>
<path d="M231.3,171.7c0,0,-13,0,-13,13v47.7c0,0,0,13,13,13h602c0,0,13,0,13,-13V184.7c0,0,0,-13,-13,-13Z" class="g6_193"/>
<image clip-path="url(#c0_193)" preserveAspectRatio="none" x="174" y="168" width="75" height="76" xlink:href="img/1.png"/>
<path d="M226.1,238c0,0,-26.9,11.3,-51.1,-12.8c0,0,15.2,25.4,49.3,24c0,0,24.7,.4,20.2,-10.1c0,0,1.3,-4.5,-18.4,-1.1Z" class="g6_193"/>
<path d="M237.1,858.7c0,0,-12.9,0,-12.9,13v21.7c0,0,0,13,12.9,13h602c0,0,13,0,13,-13V871.7c0,0,0,-13,-13,-13Z" class="g6_193"/>
<image clip-path="url(#c1_193)" preserveAspectRatio="none" x="180" y="829" width="75" height="76" xlink:href="img/2.png"/>
<path d="M231.9,899c0,0,-26.8,11.3,-51.1,-12.8c0,0,15.2,25.4,49.3,24c0,0,24.8,.3,20.3,-10.1c0,0,1.2,-4.5,-18.5,-1.1Z" class="g6_193"/>
<path d="M153.3,111.9v39L165,161.2V117Z" class="g7_193"/>
<path d="M153.3,111.9v39H851.1c0,0,16.8,0,16.8,-16.8v-5.3c0,0,0,-16.9,-16.8,-16.9Z" class="g3_193"/>
<path d="M802.6,145.6c8.2,0,14.9,-6.5,14.9,-14.5c0,-8.1,-6.7,-14.5,-14.9,-14.5c-8.2,0,-14.9,6.4,-14.9,14.5c0,8,6.7,14.5,14.9,14.5Z" class="g8_193"/>
<path d="M802.6,145.6c8.2,0,14.9,-6.5,14.9,-14.5c0,-8.1,-6.7,-14.5,-14.9,-14.5c-8.2,0,-14.9,6.4,-14.9,14.5c0,8,6.7,14.5,14.9,14.5Z" class="g9_193"/>
<path d="M802.6,136.4c3,0,5.5,-2.4,5.5,-5.3c0,-3,-2.5,-5.4,-5.5,-5.4c-3,0,-5.5,2.4,-5.5,5.4c0,2.9,2.5,5.3,5.5,5.3Z" class="g1_193"/>
<path d="M802.6,136.4c3,0,5.5,-2.4,5.5,-5.3c0,-3,-2.5,-5.4,-5.5,-5.4c-3,0,-5.5,2.4,-5.5,5.4c0,2.9,2.5,5.3,5.5,5.3Z" class="ga_193"/>
<g clip-path="url(#c2_193)" opacity="0.3">
<path d="M788,130.3c0,0,0,-4.8,3.7,-8.7l7.7,6.8c0,0,-1,.9,-1,2.6Z" class="g1_193"/>
</g>
<path d="M807.2,131c0,0,-3.5,0,-3.5,3.4v8.7c0,0,0,3.5,3.5,3.5h43.5c0,0,3.5,0,3.5,-3.5v-8.7c0,0,0,-3.4,-3.5,-3.4Z" class="gb_193"/>
<path d="M191.2,122c0,-8.3,-6.8,-15,-15.1,-15c-8.3,0,-15,6.7,-15,15c0,8.3,6.7,15.1,15,15.1c.8,0,1.7,-.1,2.4,-.2l4.5,5.2v-6.7c4.9,-2.5,8.2,-7.6,8.2,-13.4Z" class="g1_193"/>
<path d="M183.5,143.3l-5.1,-5.9c-.8,.1,-1.5,.1,-2.3,.1c-8.5,0,-15.5,-6.9,-15.5,-15.5c0,-8.5,7,-15.5,15.5,-15.5c8.6,0,15.5,7,15.5,15.5c0,5.7,-3.1,11,-8.1,13.7Zm-4.8,-6.9l3.9,4.5v-5.8l.2,-.1c4.9,-2.5,7.9,-7.5,7.9,-13c0,-8,-6.5,-14.6,-14.6,-14.6c-8,0,-14.6,6.6,-14.6,14.6c0,8.1,6.6,14.6,14.6,14.6c.8,0,1.6,-.1,2.4,-.2Z" class="gc_193"/>
<path d="M169.1,121.6c.8,0,1.4,.6,1.4,1.4c0,.8,-.6,1.5,-1.4,1.5c-.8,0,-1.4,-.7,-1.4,-1.5c0,-.8,.6,-1.4,1.4,-1.4Z" class="gd_193"/>
<path d="M169.1,124.9c-1,0,-1.9,-.8,-1.9,-1.9c0,-1,.9,-1.9,1.9,-1.9c1,0,1.9,.9,1.9,1.9c0,1.1,-.9,1.9,-1.9,1.9m0,-2.9c-.5,0,-1,.5,-1,1c0,.6,.5,1,1,1c.5,0,1,-.4,1,-1c0,-.5,-.5,-1,-1,-1Z" class="gc_193"/>
<path d="M176.1,121.6c.8,0,1.5,.6,1.5,1.4c0,.8,-.7,1.5,-1.5,1.5c-.8,0,-1.4,-.7,-1.4,-1.5c0,-.8,.6,-1.4,1.4,-1.4Z" class="gd_193"/>
<path d="M176.1,124.9c-1,0,-1.9,-.8,-1.9,-1.9c0,-1,.9,-1.9,1.9,-1.9c1.1,0,1.9,.9,1.9,1.9c0,1.1,-.8,1.9,-1.9,1.9m0,-2.9c-.5,0,-1,.5,-1,1c0,.6,.5,1,1,1c.6,0,1,-.4,1,-1c0,-.5,-.4,-1,-1,-1Z" class="gc_193"/>
<path d="M183.1,121.6c.8,0,1.5,.6,1.5,1.4c0,.8,-.7,1.5,-1.5,1.5c-.8,0,-1.4,-.7,-1.4,-1.5c0,-.8,.6,-1.4,1.4,-1.4Z" class="gd_193"/>
<path d="M183.1,124.9c-1,0,-1.9,-.8,-1.9,-1.9c0,-1,.9,-1.9,1.9,-1.9c1.1,0,1.9,.9,1.9,1.9c0,1.1,-.8,1.9,-1.9,1.9m0,-2.9c-.5,0,-1,.5,-1,1c0,.6,.5,1,1,1c.6,0,1,-.4,1,-1c0,-.5,-.4,-1,-1,-1Z" class="gc_193"/>
<path d="M185.1,136.3c0,-9.8,7.8,-17.7,17.6,-17.7c9.7,0,17.6,7.9,17.6,17.7c0,9.7,-7.9,17.6,-17.6,17.6c-1,0,-1.9,-.1,-2.9,-.3l-5.2,6.1v-7.8c-5.7,-2.9,-9.5,-8.8,-9.5,-15.6Z" class="ge_193"/>
<path d="M194.6,160.2q-.1,0,-.2,0c-.2,-.1,-.3,-.3,-.3,-.5v-7.5c-5.9,-3.2,-9.5,-9.2,-9.5,-15.9c0,-10,8.1,-18.1,18.1,-18.1c9.9,0,18,8.1,18,18.1c0,9.9,-8.1,18,-18,18c-.9,0,-1.8,0,-2.7,-.2l-5.1,5.9c-.1,.1,-.2,.2,-.3,.2m8.1,-41.1c-9.5,0,-17.2,7.7,-17.2,17.2c0,6.4,3.6,12.2,9.3,15.2c.1,.1,.2,.2,.2,.4v6.6l4.5,-5.2c.1,-.1,.3,-.1,.4,-.1c1,.1,1.9,.2,2.8,.2c9.4,0,17.1,-7.7,17.1,-17.1c0,-9.5,-7.7,-17.2,-17.1,-17.2Z" class="gc_193"/>
<path d="M210.9,135.8c.9,0,1.6,.7,1.6,1.6c0,1,-.7,1.7,-1.6,1.7c-1,0,-1.7,-.7,-1.7,-1.7c0,-.9,.7,-1.6,1.7,-1.6Z" class="g1_193"/>
<path d="M210.9,139.6c-1.2,0,-2.2,-1,-2.2,-2.2c0,-1.1,1,-2.1,2.2,-2.1c1.1,0,2.1,1,2.1,2.1c0,1.2,-1,2.2,-2.1,2.2m0,-3.4c-.7,0,-1.3,.6,-1.3,1.2c0,.7,.6,1.3,1.3,1.3c.6,0,1.2,-.6,1.2,-1.3c0,-.6,-.6,-1.2,-1.2,-1.2Z" class="gc_193"/>
<path d="M202.7,135.8c.9,0,1.6,.7,1.6,1.6c0,1,-.7,1.7,-1.6,1.7c-1,0,-1.7,-.7,-1.7,-1.7c0,-.9,.7,-1.6,1.7,-1.6Z" class="g1_193"/>
<path d="M202.7,139.6c-1.2,0,-2.2,-1,-2.2,-2.2c0,-1.1,1,-2.1,2.2,-2.1c1.1,0,2.1,1,2.1,2.1c0,1.2,-1,2.2,-2.1,2.2m0,-3.4c-.7,0,-1.3,.6,-1.3,1.2c0,.7,.6,1.3,1.3,1.3c.6,0,1.2,-.6,1.2,-1.3c0,-.6,-.6,-1.2,-1.2,-1.2Z" class="gc_193"/>
<path d="M194.5,135.8c.9,0,1.6,.7,1.6,1.6c0,1,-.7,1.7,-1.6,1.7c-1,0,-1.7,-.7,-1.7,-1.7c0,-.9,.7,-1.6,1.7,-1.6Z" class="g1_193"/>
<path d="M194.5,139.6c-1.2,0,-2.2,-1,-2.2,-2.2c0,-1.1,1,-2.1,2.2,-2.1c1.1,0,2.1,1,2.1,2.1c0,1.2,-1,2.2,-2.1,2.2m0,-3.4c-.7,0,-1.2,.6,-1.2,1.2c0,.7,.5,1.3,1.2,1.3c.6,0,1.2,-.6,1.2,-1.3c0,-.6,-.6,-1.2,-1.2,-1.2Z" class="gc_193"/>
<path d="M154.1,1094.4v147.3m4.6,2.2H864.9m2.2,-4.5V1092.1m-4.5,-2.3H156.4" class="gf_193"/>
<path d="M154.1,1243.9v0m713.1,0v0m0,-154.1v0m-713.1,0v0" class="gg_193"/>
<image clip-path="url(#c3_193)" preserveAspectRatio="none" x="183" y="1109" width="96" height="90" xlink:href="img/3.jpg"/>
<image clip-path="url(#c4_193)" preserveAspectRatio="none" x="360" y="1109" width="93" height="90" xlink:href="img/4.jpg"/>
<image clip-path="url(#c5_193)" preserveAspectRatio="none" x="529" y="1109" width="97" height="90" xlink:href="img/5.jpg"/>
<image clip-path="url(#c6_193)" preserveAspectRatio="none" x="701" y="1109" width="95" height="90" xlink:href="img/6.jpg"/>
<path d="M154.5,1084.3v-28.7c0,0,0,-4.4,4.3,-4.4H862.4c0,0,4.4,0,4.4,4.4v29.1" class="gh_193"/>
<path d="M200.1,1051.8c2.6,0,4.8,-2.2,4.8,-4.8c0,-2.7,-2.2,-4.8,-4.8,-4.8c-2.7,0,-4.8,2.1,-4.8,4.8c0,2.6,2.1,4.8,4.8,4.8Z" class="g1_193"/>
<path d="M200.1,1053.7c3.6,0,6.6,-3,6.6,-6.7c0,-3.7,-3,-6.7,-6.6,-6.7c-3.7,0,-6.7,3,-6.7,6.7c0,3.7,3,6.7,6.7,6.7m0,-11.5c2.6,0,4.8,2.1,4.8,4.8c0,2.6,-2.2,4.8,-4.8,4.8c-2.7,0,-4.8,-2.2,-4.8,-4.8c0,-2.7,2.1,-4.8,4.8,-4.8Z" class="gi_193"/>
<path d="M205.5,1055.6H194.6c-.1,0,-.3,0,-.4,0c2.7,1.1,4.9,3.3,5.9,6.2c1.3,-.5,2.7,-.8,4.2,-.8c2.9,0,5.5,1,7.5,2.7v-1.8c0,-3.5,-2.8,-6.3,-6.3,-6.3Z" class="g1_193"/>
<path d="M184,1052.6c3.4,0,6.1,-2.7,6.1,-6.1c0,-3.4,-2.7,-6.2,-6.1,-6.2c-3.4,0,-6.1,2.8,-6.1,6.2c0,3.4,2.7,6.1,6.1,6.1Z" class="gj_193"/>
<path d="M184,1054.5c4.4,0,8,-3.6,8,-8c0,-4.4,-3.6,-8.1,-8,-8.1c-4.4,0,-8,3.7,-8,8.1c0,4.4,3.6,8,8,8m0,-14.2c3.4,0,6.1,2.8,6.1,6.2c0,3.4,-2.7,6.1,-6.1,6.1c-3.4,0,-6.1,-2.7,-6.1,-6.1c0,-3.4,2.7,-6.2,6.1,-6.2Z" class="gi_193"/>
<path d="M198.4,1062.6c-1,-3.3,-4.1,-5.7,-7.7,-5.7H177.3c-4.4,0,-8,3.5,-8,8v4.3h23.8c.9,-2.8,2.8,-5.1,5.3,-6.6Z" class="gj_193"/>
<path d="M204.3,1062.9c-5.5,0,-9.9,4.5,-9.9,10c0,5.5,4.4,9.9,9.9,9.9c5.5,0,10,-4.4,10,-9.9c0,-5.5,-4.5,-10,-10,-10m6.7,11.6c0,.3,-.2,.5,-.5,.5h-4v4.1c0,.2,-.2,.4,-.5,.4h-3.3c-.3,0,-.5,-.2,-.5,-.4V1075h-4.1c-.2,0,-.4,-.2,-.4,-.5v-3.3c0,-.3,.2,-.5,.4,-.5h4.1v-4c0,-.3,.2,-.5,.5,-.5H206c.3,0,.5,.2,.5,.5v4h4c.3,0,.5,.2,.5,.5Z" class="gk_193"/>
<path d="M213.7,1065.6v-3.7c0,-4.5,-3.7,-8.2,-8.2,-8.2H194.6c-1.6,0,-3.1,.5,-4.3,1.3h-13c-5.4,0,-9.9,4.4,-9.9,9.9v5.2c0,.5,.4,1,1,1h24.2c-.1,.6,-.1,1.2,-.1,1.8c0,6.5,5.3,11.8,11.8,11.8c6.6,0,11.9,-5.3,11.9,-11.8c0,-2.8,-.9,-5.3,-2.5,-7.3m-9.4,17.2c-5.5,0,-9.9,-4.4,-9.9,-9.9c0,-5.5,4.4,-10,9.9,-10c5.5,0,10,4.5,10,10c0,5.5,-4.5,9.9,-10,9.9m-35,-17.9c0,-4.5,3.6,-8,8,-8h13.4c3.6,0,6.7,2.4,7.7,5.7c-2.5,1.5,-4.4,3.8,-5.3,6.6H169.3Zm42.5,-1.2c-2,-1.7,-4.6,-2.7,-7.5,-2.7c-1.5,0,-2.9,.3,-4.2,.8c-1,-2.9,-3.2,-5.1,-5.9,-6.2c.1,0,.3,0,.4,0h10.9c3.5,0,6.3,2.8,6.3,6.3Z" class="gi_193"/>
<path d="M205.5,1071.2v-4.1h-2.4v4.1c0,.2,-.2,.5,-.4,.5h-4.1v2.4h4.1c.2,0,.4,.2,.4,.4v4.1h2.4v-4.1c0,-.2,.3,-.4,.5,-.4h4.1v-2.4H206c-.2,0,-.5,-.3,-.5,-.5Z" class="g1_193"/>
<path d="M210.5,1070.7h-4v-4c0,-.3,-.2,-.5,-.5,-.5h-3.3c-.3,0,-.5,.2,-.5,.5v4h-4.1c-.2,0,-.4,.2,-.4,.5v3.3c0,.3,.2,.5,.4,.5h4.1v4.1c0,.2,.2,.4,.5,.4H206c.3,0,.5,-.2,.5,-.4V1075h4c.3,0,.5,-.2,.5,-.5v-3.3c0,-.3,-.2,-.5,-.5,-.5m-.4,3.4H206c-.2,0,-.5,.2,-.5,.4v4.1h-2.4v-4.1c0,-.2,-.2,-.4,-.4,-.4h-4.1v-2.4h4.1c.2,0,.4,-.3,.4,-.5v-4.1h2.4v4.1c0,.2,.3,.5,.5,.5h4.1Z" class="gi_193"/>
<image clip-path="url(#c7_193)" preserveAspectRatio="none" x="86" y="374" width="171" height="172" xlink:href="img/7.png"/>
<path d="M94.2,379.1L90.7,538.5l157.7,1l2.4,-157.8Z" class="gl_193"/>
<path d="M398.4,443.8c9.6,-1.3,17.3,-6.3,19.2,-12.7m-.6,-7.9c-2.7,-6,-10.6,-10.5,-20.3,-11.3m-8,.2c-9.7,1.2,-17.3,6.2,-19.3,12.6m.6,7.9c2.8,6,10.6,10.5,20.3,11.3" class="gm_193"/>
<path d="M418,429.5c0,-.5,.1,-1.1,.1,-1.6c0,-.5,-.1,-1.1,-.1,-1.6M395.1,411.8c-.5,0,-1,-.1,-1.6,-.1c-.5,0,-1.1,.1,-1.6,.1m-22.8,14.5c-.1,.5,-.2,1.1,-.2,1.6c0,.5,.1,1.1,.2,1.6M391.9,444c.5,.1,1.1,.1,1.6,.1c.6,0,1.1,0,1.6,-.1" class="gn_193"/>
<image clip-path="url(#c8_193)" preserveAspectRatio="none" x="84" y="373" width="174" height="183" xlink:href="img/8.png"/>
<image clip-path="url(#c9_193)" preserveAspectRatio="none" x="84" y="373" width="173" height="182" xlink:href="img/9.png"/>
<path d="M88.9,384.8l6.8,163.9l123.5,-5.8l32.7,-23.4L245.5,377.8Z" class="go_193"/>
<path d="M219.4,542.8L253,518.9l-15.2,-7Z" class="gp_193"/>
<path d="M381.9,407.5C370.5,395.6,329.5,356.3,288.4,360.1m-7.5,1.3c-4.6,1.8,1.1,4.2,5.4,5m4.7,-3.3c-1,-2.6,-5.1,-5.8,-14.9,-6.6m-7.8,-.4c-19.6,-.5,-55.4,-.2,-86.9,23" class="gm_193"/>
<path d="M385,410.9c0,0,-.3,-.4,-1,-1.2M286.9,360.2c-.5,.1,-1,.2,-1.5,.2c-.6,.1,-1.1,.2,-1.5,.3m3.9,6c.6,0,1.1,0,1.5,0c.6,-.1,1,-.3,1.4,-.7m-16.2,-9.6c-.5,-.1,-1,-.1,-1.5,-.1c-.5,0,-1,0,-1.6,-.1M180.1,380c-.4,.4,-.8,.7,-1.2,1" class="gn_193"/>
<path d="M182.8,383l-7.2,-5l-2.8,11.8Z" class="gq_193"/>
<image clip-path="url(#ca_193)" x="148" y="380" width="6" height="10" xlink:href="shade/1.png"/>
<image clip-path="url(#cb_193)" x="148" y="354" width="24" height="28" xlink:href="shade/2.png"/>
<image clip-path="url(#cc_193)" x="147" y="356" width="24" height="34" xlink:href="shade/3.png"/>
<image clip-path="url(#cd_193)" x="153" y="352" width="20" height="10" xlink:href="shade/4.png"/>
<image clip-path="url(#ce_193)" preserveAspectRatio="none" x="706" y="448" width="189" height="197" xlink:href="img/10.png"/>
<path d="M712.4,453.2L711.8,636l175.4,2.1l1.2,-184.3Z" class="gl_193"/>
<image clip-path="url(#cf_193)" preserveAspectRatio="none" x="704" y="442" width="196" height="202" xlink:href="img/11.png"/>
<image clip-path="url(#cg_193)" preserveAspectRatio="none" x="703" y="441" width="196" height="203" xlink:href="img/12.png"/>
<path d="M717.9,446.1l-9.7,181.5l142.5,9.7l34.4,-23.7l8.4,-156.1Z" class="go_193"/>
<path d="M849.8,637.8l35.6,-23.9l-15.3,-7.1Z" class="gp_193"/>
<path d="M524.1,534.9c0,0,67.1,-59.8,189.2,-55" class="gm_193"/>
<path d="M711.4,474.9l-1,8.8l11.7,-3.1Z" class="gq_193"/>
<path d="M521.2,557.6c3.4,-1.5,6.1,-4.5,7.1,-8.3" class="gm_193"/>
<path d="M523.3,535.8c-1.2,-.8,-2.5,-1.4,-4,-1.7" class="gr_193"/>
<path d="M511.8,534.7c-3.5,1.5,-6.1,4.5,-7.1,8.3m.5,7.9c1.4,3.5,4.4,6.2,8.1,7.2" class="gm_193"/>
<path d="M528.6,547.7c0,-.5,.1,-1,.1,-1.6c0,-.6,-.1,-1.3,-.2,-1.9m-1.1,-3.7c-.3,-.5,-.7,-1.1,-1,-1.6c-.3,-.4,-.6,-.8,-.9,-1.1m-7.6,-4c-.5,0,-.9,-.1,-1.4,-.1c-.6,0,-1.1,.1,-1.6,.1m-10.5,10.7c-.1,.6,-.1,1.1,-.1,1.6c0,.6,0,1.1,.1,1.6m10.5,10.7c.5,.1,1,.1,1.6,.1c.5,0,1.1,0,1.6,-.1" class="gn_193"/>
<image clip-path="url(#ch_193)" x="801" y="450" width="6" height="9" xlink:href="shade/5.png"/>
<image clip-path="url(#ci_193)" x="801" y="423" width="24" height="28" xlink:href="shade/6.png"/>
<image clip-path="url(#cj_193)" x="800" y="426" width="23" height="33" xlink:href="shade/7.png"/>
<image clip-path="url(#ck_193)" x="806" y="422" width="20" height="10" xlink:href="shade/8.png"/>
<path d="M32.1,45.1H9.2m958.3,0h22.9M32.1,1331.3H9.2m958.3,0h22.9M45.1,32.1V9.2m0,1335.1v22.9M954.5,32.1V9.2m0,1335.1v22.9" class="gs_193"/>
<path d="M32.1,45.1H9.2m958.3,0h22.9M32.1,1331.3H9.2m958.3,0h22.9M45.1,32.1V9.2m0,1335.1v22.9M954.5,32.1V9.2m0,1335.1v22.9" class="gt_193"/>
<path d="M27.5,32.1H0m972.1,0h27.5M27.5,1344.3H0m972.1,0h27.5M32.1,27.5V0m0,1348.9v27.5M967.5,27.5V0m0,1348.9v27.5" class="gs_193"/>
<path d="M27.5,32.1H0m972.1,0h27.5M27.5,1344.3H0m972.1,0h27.5M32.1,27.5V0m0,1348.9v27.5M967.5,27.5V0m0,1348.9v27.5" class="gt_193"/>
</svg>