<?xml version="1.0" encoding="UTF-8" standalone="no"?>
<!DOCTYPE svg PUBLIC "-//W3C//DTD SVG 1.1//EN"
"http://www.w3.org/Graphics/SVG/1.1/DTD/svg11.dtd">
<svg viewBox="0 0 999 1376" version="1.1" xmlns="http://www.w3.org/2000/svg" xmlns:xlink="http://www.w3.org/1999/xlink">
<defs>
<clipPath id="c0_298"><path d="M32.1,1344.3V32.1H967.5V1344.3Z"/></clipPath>
<clipPath id="c1_298"><path d="M176.9,1089.9l-6.5,-2.2L154,1073.8v-57.1h72v73.2Z"/></clipPath>
<clipPath id="c2_298"><path d="M177,509.6l-6.5,-2.1l-16.4,-14V436.4h72v73.2Z"/></clipPath>
<clipPath id="c3_298"><path d="M83.7,876.6V786.9H208v89.7Z"/></clipPath>
<clipPath id="c4_298"><path d="M82.8,876.4V784H207.7v92.4Z"/></clipPath>
<clipPath id="c5_298"><path d="M82.5,876.1V783.7H207.4v92.4Z"/></clipPath>
<clipPath id="c6_298"><path d="M137.1,798.5c-.3,-.1,3.5,-8.2,3.5,-8.2l.8,.5c0,0,-4,7.7,-4.3,7.7Z"/></clipPath>
<clipPath id="c7_298"><path d="M144.6,790.8c0,0,-6.9,-1.1,-7.6,-5.2c-.6,-3.6,1.5,-3.9,2.1,-3.9c.1,0,.1,.1,.1,.1L147.5,769l-1.4,-3.1c0,0,-.6,-1.1,.1,-2c.1,-.1,.2,-.1,.3,-.1c2.1,0,13,5.5,13,5.5v.2c-.3,.5,-.7,1.1,-1.4,1.6c-.6,.5,-5,1.2,-5,1.2l-8.5,18.5Z"/></clipPath>
<clipPath id="c8_298"><path d="M144.2,790.5c.2,-.5,.2,-1.8,0,-2.3v-1.4c-1.5,-.5,-2.9,-1.2,-3.7,-2.5c-1,.6,-2.1,1.2,-3.1,1.9c1.6,2.1,3.8,3.5,6.8,4.3Zm0,-3.9c2.2,-4.6,4,-9.5,6.1,-14.1c-.8,-.4,-1.8,-1.3,-2.6,-1.4c-2.3,4.3,-4.6,8.6,-7,12.8c.7,1.3,2.1,2,3.5,2.7Zm-7.3,12c1,-2.9,2.4,-5.5,3.5,-8.3c-2,-1.5,-3.9,-3.1,-4.4,-6.1v-1.5c0,-2.7,1.9,-3.4,4.6,-3.4q.1,0,.2,0c1.9,-3.4,4.2,-6.4,6.2,-9.7c-.6,-.9,-1.2,-2.4,-.9,-3.7c.5,1.3,1.6,1.9,2.4,2.9c-.2,.6,-.3,1.2,-.4,1.8c.6,.7,1.3,1.2,2.4,1.4c.4,-.4,.5,-1.3,1.1,-1.5c.9,.3,1.8,.7,3.1,.7c.2,.1,.5,.2,.9,.2c.3,0,.7,-.1,.8,-.2c.1,.1,.2,.1,.3,.1c.2,0,.4,-.1,.6,-.2c.2,0,.4,-.1,.5,-.1c.1,0,.2,0,.3,.1c-1.3,.7,-2.2,1.8,-4.1,1.8c-.1,0,-.3,0,-.4,0c-.8,3.7,-1.8,7.3,-2.6,11.1c.5,1.1,1.5,1.7,1.2,3.2c-.4,2.7,-3.8,4.4,-7.2,4.4c-1.2,0,-2.5,-.3,-3.6,-.8c-1,2.1,-2,4.2,-3.2,6.1c-.1,-.4,.2,-.4,.2,-.8c1,-1.8,1.9,-3.6,2.6,-5.6c-1,1.7,-1.8,3.7,-2.7,5.5c-.2,.4,-.4,.8,-.6,1.2c-.3,.5,-.3,1.2,-.8,1.4Z"/></clipPath>
<clipPath id="c9_298"><path d="M154.6,770.8c-4.8,0,-13.1,-7.3,-5.5,-8.7h1.2c.2,0,.4,0,.7,0q.1,0,.2,0c.3,0,.6,0,.9,.1c3.1,.6,8.2,3.8,7.5,7c-.2,1.2,-1.5,1.6,-3.1,1.6h-1.9Z"/></clipPath>
<clipPath id="ca_298"><path d="M764.8,408.9V396.5h14.5v12.4Z"/></clipPath>
<clipPath id="cb_298"><path d="M125.5,386.7V205.8H858.6V386.7Z"/></clipPath>
<style type="text/css"><![CDATA[
.g0_298{
fill: #FEFCF4;
}
.g1_298{
fill: #FFF;
}
.g2_298{
fill: none;
stroke: #6381B7;
stroke-width: 0.763;
}
.g3_298{
fill: #6381B7;
}
.g4_298{
fill: none;
stroke: #6381B7;
stroke-width: 0.381;
stroke-dasharray: 2,1;
}
.g5_298{
fill: none;
stroke: #6381B7;
stroke-width: 0.381;
}
.g6_298{
fill: #FCE8B0;
}
.g7_298{
fill: #F7C2D9;
}
.g8_298{
fill: #FDF4F3;
}
.g9_298{
fill: #EC008C;
}
.ga_298{
fill: none;
stroke: #818385;
stroke-width: 0.305;
stroke-dasharray: 3,3;
}
.gb_298{
fill: none;
stroke: #818385;
stroke-width: 0.305;
}
.gc_298{
fill: none;
stroke: #949698;
stroke-width: 0.305;
stroke-dasharray: 4,4;
}
.gd_298{
fill: none;
stroke: #949698;
stroke-width: 0.305;
stroke-dasharray: 3,3;
}
.ge_298{
fill: none;
stroke: #949698;
stroke-width: 0.305;
}
.gf_298{
fill: #6D6F71;
}
.gg_298{
fill: #2E6E51;
}
.gh_298{
fill: none;
stroke: #FFF;
stroke-width: 0.152;
stroke-miterlimit: 1;
}
.gi_298{
fill: #BCBEC0;
}
.gj_298{
fill: #EE314A;
}
.gk_298{
fill: #25408F;
}
.gl_298{
fill: #A8AAAD;
}
.gm_298{
fill: none;
stroke: #949698;
stroke-width: 0.549;
}
.gn_298{
fill: none;
stroke: #BCBEC0;
stroke-width: 2.566;
}
.go_298{
fill: #231F20;
}
.gp_298{
fill: #363637;
}
.gq_298{
fill: #5CC4BE;
}
.gr_298{
fill: #EAD646;
}
.gs_298{
fill: #CEEDFB;
}
.gt_298{
fill: #27639D;
}
.gu_298{
fill: none;
stroke: #C3E7F1;
stroke-width: 1.527;
}
.gv_298{
fill: none;
stroke: #FFF;
stroke-width: 1.909;
stroke-miterlimit: 10;
}
.gw_298{
fill: none;
stroke: #000;
stroke-width: 0.381;
stroke-miterlimit: 10;
}
]]></style>
</defs>
<path d="M32.1,1343.2H954.5V32.1H32.1V1343.2Z" class="g0_298"/>
<path clip-path="url(#c0_298)" d="M954.5,1344.3H1877V32.1H954.5V1344.3Z" class="g0_298"/>
<path d="M150.5,415.6c0,0,-18.4,0,-18.4,18.3V971.2c0,0,0,18.3,18.4,18.3H827.6c0,0,18.4,0,18.4,-18.3V415.6Z" class="g1_298"/>
<path d="M150.5,415.6c0,0,-18.4,0,-18.4,18.3V971.2c0,0,0,18.3,18.4,18.3H827.6c0,0,18.4,0,18.4,-18.3V415.6H150.5Z" class="g2_298"/>
<path d="M145.1,1007.6c0,0,-13,0,-13,13v170.3c0,0,0,13,13,13H832.9c0,0,13,0,13,-13V1020.6c0,0,0,-13,-13,-13Z" class="g1_298"/>
<path d="M145.1,1007.6c0,0,-13,0,-13,13v170.3c0,0,0,13,13,13H832.9c0,0,13,0,13,-13V1020.6c0,0,0,-13,-13,-13H145.1Z" class="g2_298"/>
<path d="M448.3,1216.2c0,0,-4.3,0,-4.3,4.3v10.8c0,0,0,4.3,4.3,4.3h30.3c0,0,4.3,0,4.3,-4.3v-10.8c0,0,0,-4.3,-4.3,-4.3Z" class="g3_298"/>
<path d="M435.1,1208.7v34.8m1.3,1H845.2m.9,-1.4v-34.8m-1.3,-1H436.1" class="g4_298"/>
<path d="M435.1,1243.9v.6h.6m409.9,0h.5v-.6m0,-36v-.6h-.5m-409.9,0h-.6v.6" class="g5_298"/>
<path d="M209.5,1044.9c0,0,-13,0,-13,13v21.6c0,0,0,13,13,13h602c0,0,13,0,13,-13v-21.6c0,0,0,-13,-13,-13Z" class="g6_298"/>
<image clip-path="url(#c1_298)" preserveAspectRatio="none" x="152" y="1015" width="75" height="76" xlink:href="img/1.png"/>
<path d="M204.3,1085.1c0,0,-26.8,11.3,-51.1,-12.7c0,0,15.2,25.3,49.3,24c0,0,24.8,.3,20.2,-10.2c0,0,1.3,-4.4,-18.4,-1.1Z" class="g6_298"/>
<path d="M209.6,438.6c0,0,-12.9,0,-12.9,13v47.6c0,0,0,13,12.9,13h602c0,0,13,0,13,-13V451.6c0,0,0,-13,-13,-13Z" class="g6_298"/>
<image clip-path="url(#c2_298)" preserveAspectRatio="none" x="153" y="435" width="75" height="76" xlink:href="img/2.png"/>
<path d="M204.4,504.9c0,0,-26.8,11.3,-51.1,-12.8c0,0,15.2,25.3,49.3,24c0,0,24.8,.3,20.3,-10.2c0,0,1.2,-4.4,-18.5,-1Z" class="g6_298"/>
<image clip-path="url(#c3_298)" preserveAspectRatio="none" x="83" y="787" width="125" height="90" xlink:href="img/3.png"/>
<path d="M90.4,791.6L89,867.4l111.4,2.7l1.1,-75.3Z" class="g7_298"/>
<image clip-path="url(#c4_298)" preserveAspectRatio="none" x="83" y="784" width="124" height="93" xlink:href="img/4.png"/>
<image clip-path="url(#c5_298)" preserveAspectRatio="none" x="83" y="784" width="124" height="93" xlink:href="img/5.png"/>
<path d="M87.5,795.5l4.9,74.4l86.9,-5.2l21.8,-20.4l-3.6,-55.6Z" class="g8_298"/>
<path d="M179.3,864.7l21.8,-20.4L181.2,844Z" class="g9_298"/>
<path d="M371,950c24.3,-.7,43.9,-6.6,47.8,-14.3m-.8,-6.8c-5.4,-7.3,-24.8,-12.7,-48.4,-13.1m-7.4,0c-24.2,.7,-43.8,6.6,-47.8,14.3m.8,6.9c5.4,7.2,24.9,12.6,48.5,13" class="ga_298"/>
<path d="M419.3,934.4c.2,-.5,.2,-1,.2,-1.5c0,-.5,0,-1,-.2,-1.4M368.1,915.8c-.5,0,-1,0,-1.5,0c-.5,0,-.9,0,-1.4,0m-51.3,15.7c-.1,.4,-.2,.9,-.2,1.4c0,.5,.1,1,.2,1.5M365.2,950c.5,0,.9,0,1.4,0c.5,0,1,0,1.5,0" class="gb_298"/>
<path d="M369.2,912.3C337.6,872.5,306.7,860.8,297.1,857.9m-7.7,-1.1c-15.3,-1.4,-62.9,-6.7,-60.6,-20.7" class="gc_298"/>
<path d="M236.6,837.5c-1.3,.9,-3.8,.7,-9.1,-2.7" class="gd_298"/>
<path d="M221.8,829.9c-4.9,-4.3,-14.5,-11.5,-26.4,-14.3" class="gc_298"/>
<path d="M372,915.9c-.3,-.4,-.6,-.8,-.9,-1.2M295.6,857.5c-1,-.2,-1.5,-.3,-1.5,-.3c0,0,-.6,-.1,-1.6,-.2M229.3,834.6c.1,-.4,.4,-.9,.7,-1.4c0,0,.6,-.9,1.6,-1.5m4.3,.4c.5,.4,1.1,.9,1.6,1.6c0,0,.2,.6,.1,1.4M226.4,834c-.4,-.3,-.8,-.5,-1.2,-.8c0,0,-.4,-.4,-1.1,-1.2M193.9,815.3c-.5,-.1,-1.1,-.2,-1.6,-.3" class="ge_298"/>
<path d="M194.9,809.8l.1,8.9l-11.3,-4.5Z" class="gf_298"/>
<image clip-path="url(#c6_298)" x="136" y="790" width="6" height="9" xlink:href="shade/1.png"/>
<image clip-path="url(#c7_298)" x="136" y="763" width="24" height="28" xlink:href="shade/2.png"/>
<image clip-path="url(#c8_298)" x="135" y="765" width="24" height="34" xlink:href="shade/3.png"/>
<image clip-path="url(#c9_298)" x="141" y="762" width="20" height="9" xlink:href="shade/4.png"/>
<path d="M32.1,179.3H967.5V32.1H32.1V179.3Z" class="gg_298"/>
<path d="M260.2,135.2L259,134H247.2l1.2,1.2h8.2v.9c-2.6,.8,-5,2.1,-7.4,3.7l1.6,2.3c1.7,.1,3,.7,4,1.6c.3,.3,.6,.6,1,1c.3,.4,.5,.8,.7,1.2c.2,.3,.3,.5,.4,.7c.1,.1,.1,.2,.1,.4l.7,.8V135.2h2.5Zm-3.6,9.4c-1.1,-1.8,-2.7,-3.2,-4.9,-4.1c.9,-.6,1.7,-1.1,2.5,-1.5c.8,-.4,1.6,-.7,2.4,-1v6.6Zm8,-9.4L263.4,134h-1.1c-1.2,-4.2,-3.7,-6.3,-7.6,-6.3c-.5,0,-.9,0,-1.4,.1c-.5,.1,-1,.3,-1.4,.4c-.5,.3,-1,.6,-1.2,.9c-.3,.3,-.5,.6,-.5,1c0,.4,.2,.8,.5,1.1c.3,.3,.7,.6,1.3,.8c.1,0,.5,0,1,.1c.6,.1,1.3,.2,2.2,.3c1.2,.1,1.8,.4,1.8,.9c0,.3,-.1,.6,-.5,.8h1.2c.1,-.4,.1,-.7,.1,-.7c0,-.6,-.1,-1.1,-.5,-1.4c-.3,-.4,-.7,-.7,-1.4,-.9c-.5,-.1,-1.6,-.2,-3.3,-.3c-1.2,-.1,-1.8,-.3,-1.8,-.7c0,-.4,.5,-.7,1.5,-.9c.3,-.1,.6,-.2,.9,-.2c.4,-.1,.7,-.1,1,-.1c4,0,6.3,1.7,6.9,5.1H258l1.3,1.2h1.8v11.3l1.2,1.2V135.2h2.3Zm10,-1.2h-12l1.2,1.2c.5,.6,.9,1,1.2,1.2c.2,.2,.4,.3,.7,.4c.3,.2,.7,.3,1.1,.4c.8,.3,1.4,.5,1.7,.8c.4,.4,.6,1.1,.6,2.2c-.2,-.2,-.5,-.3,-.9,-.3c-.7,0,-1.3,.2,-1.7,.5c-.5,.4,-.8,1,-.8,1.6c0,.6,.2,1.1,.6,1.5c.4,.4,.9,.5,1.4,.5c.4,0,.7,0,1.1,-.2c.3,-.1,.7,-.5,1.1,-.9c1.5,.5,2.7,2,3.3,4.4l.5,.5V135.2h2.1L274.6,134Zm-2.1,9.8c-.3,-.4,-.5,-.8,-.9,-1.2c-.3,-.4,-.8,-.8,-1.2,-1.2c0,-.1,0,-.2,0,-.3v-.3c0,-1.1,-.4,-2.1,-1.1,-3.1c-.5,-.7,-1.3,-1.5,-2.6,-2.5h5.8v8.6Zm7.9,-8.6L279.2,134h-1c-.4,-.4,-.6,-1,-.8,-1.9l-.4,-.3c0,.2,0,.5,0,.9c0,.3,.1,.7,.1,1.2c0,.5,.1,.9,.1,1.3c0,.3,0,.6,0,.9c-.2,-.8,-.6,-1.3,-1,-1.6c-.4,-.3,-.9,-.5,-1.7,-.5h-1.3l1.2,1.2c.3,0,.6,.1,1,.2c.3,.1,.6,.3,.8,.5c.3,.2,.5,.4,.6,.7c.2,.3,.2,.7,.2,1v8.9l1.2,1.2V135.2h2.2Zm11.1,0L290.3,134H278.6l1.1,1.2h8.2v.9c-2.5,.8,-4.9,2.1,-7.3,3.7l1.6,2.3h-.1c1.7,.1,3.1,.7,4.1,1.6c.3,.3,.6,.6,.9,1c.4,.4,.6,.8,.8,1c.1,.3,.3,.7,.5,1.3l.7,.8V135.2h2.4Zm-3.6,9.4c-1,-1.8,-2.7,-3.2,-4.8,-4.1c.9,-.6,1.7,-1.1,2.5,-1.5c.8,-.4,1.6,-.7,2.3,-1v6.6Zm-4.7,1.7c.3,.3,.6,.4,.9,.4c.3,0,.6,-.1,.9,-.4c.2,-.2,.3,-.5,.3,-.8c0,-.4,-.1,-.7,-.3,-.9c-.3,-.3,-.6,-.4,-.9,-.4c-.3,0,-.6,.1,-.9,.4c-.2,.2,-.3,.5,-.3,.9c0,.3,.1,.6,.3,.8Zm26.4,-11.1L308.4,134h-.6c0,-1.1,-.3,-2,-.7,-2.6c-.5,-.6,-1.3,-.9,-2.4,-.9c-.3,0,-.8,.1,-1.5,.1c-.3,.1,-.6,.1,-.8,.1c-.3,0,-.5,0,-.7,0c-.5,0,-.9,-.1,-1.3,-.3c-.4,-.2,-.6,-.6,-.6,-1.1c0,-.2,.1,-.4,.3,-.6c0,-.1,0,-.2,0,-.2c-.1,-.1,-.1,-.2,-.1,-.2c-.5,0,-.8,.5,-.8,1.4c0,.9,.4,1.6,1.2,2c.8,.5,1.6,.7,2.5,.7c.2,0,.3,0,.5,0c.2,-.1,.4,-.1,.6,-.1c.5,-.1,.9,-.1,1.1,-.1c1,0,1.5,.3,1.5,1c0,.2,0,.3,0,.4c0,.2,0,.3,0,.4h-9.1l1.1,1.2h1.9v8c.2,.9,.5,1.6,.9,2c.5,.5,1.1,.7,1.8,.7c1.2,0,2.3,-.6,3.3,-1.8c1,-1.2,1.5,-2.3,1.5,-3.5c0,-.4,-.1,-.7,-.2,-1.1c-.1,-.3,-.2,-.6,-.3,-.9c-.5,-.7,-1,-1,-1.7,-1c-.5,0,-.9,.2,-1.1,.5c-.3,.3,-.4,.7,-.4,1.1c0,.4,.1,.8,.4,1c.4,.3,.7,.4,1.1,.4h.4c-.1,.8,-.5,1.6,-1.2,2.5c-.7,.8,-1.4,1.3,-2.2,1.3c-.5,0,-.8,-.3,-1.1,-.8v-8.4h7.9Zm4.7,0L313.1,134H312c-.3,-.4,-.6,-1,-.7,-1.9l-.5,-.3c0,.2,0,.5,.1,.9c0,.3,0,.7,0,1.2c.1,.5,.1,.9,.1,1.3c0,.3,0,.6,0,.9c-.2,-.8,-.5,-1.3,-.9,-1.6c-.4,-.3,-1,-.5,-1.7,-.5H307l1.2,1.2c.3,0,.7,.1,1,.2c.3,.1,.6,.3,.9,.5c.2,.2,.4,.4,.5,.7c.2,.3,.3,.7,.3,1v8.9l1.1,1.2V135.2h2.3Zm14.4,0L327.4,134H312.3l1.2,1.2h7.8v1c-2.6,.8,-4.9,2.1,-7,3.7L316,142c1.4,.1,2.6,.7,3.6,1.8c.5,.5,.9,1,1.3,1.6c.4,.7,.8,1.3,1.1,2q0,.1,.1,.2c.1,0,.2,.1,.3,.1v-10c1.2,0,2.1,.3,2.8,1c.6,.7,1,1.4,1,2.2l-.2,.3c-.1,-.2,-.3,-.3,-.5,-.4c-.2,-.2,-.4,-.2,-.6,-.2c-.4,0,-.8,.1,-1,.4c-.3,.2,-.4,.5,-.4,.9c0,.2,0,.4,.1,.6c.1,.2,.2,.3,.4,.5c.1,.1,.3,.2,.5,.3c.1,.1,.3,.1,.5,.1c.3,0,.6,-.1,.8,-.2c.3,-.1,.5,-.3,.7,-.5c.1,-.2,.3,-.4,.4,-.7c.1,-.3,.1,-.5,.1,-.8c0,-1.3,-.4,-2.4,-1.2,-3.4c-.9,-1.2,-2,-1.7,-3.4,-1.7v-.9h6.3Zm-7.5,9.1c-1,-1.8,-2.5,-3.1,-4.5,-4c.8,-.5,1.6,-1,2.3,-1.4c.8,-.4,1.5,-.8,2.2,-1.1v6.5Zm12.1,-9.1L332.1,134H331c-.3,-.4,-.6,-1,-.7,-1.9l-.4,-.3c0,.2,0,.5,0,.9c0,.3,0,.7,0,1.2c.1,.5,.1,.9,.1,1.3c0,.3,0,.6,0,.9c-.2,-.8,-.5,-1.3,-.9,-1.6c-.4,-.3,-1,-.5,-1.7,-.5H326l1.2,1.2c.4,0,.7,.1,1,.2c.3,.1,.6,.3,.9,.5c.2,.2,.4,.4,.6,.7c.1,.3,.2,.7,.2,1v8.9l1.1,1.2V135.2h2.3Zm11.1,0L343.2,134H331.4l1.2,1.2h8.2v.9c-2.5,.8,-5,2.1,-7.4,3.7l1.6,2.3c1.7,.1,3,.7,4.1,1.6c.3,.3,.6,.6,.9,1c.3,.4,.6,.8,.7,1c.2,.3,.3,.7,.6,1.3l.6,.8V135.2h2.5Zm-3.6,9.4c-1.1,-1.8,-2.7,-3.2,-4.9,-4.1c.9,-.6,1.7,-1.1,2.5,-1.5c.8,-.4,1.6,-.7,2.4,-1v6.6Zm-4.7,1.7c.2,.3,.5,.4,.9,.4c.3,0,.6,-.1,.8,-.4c.3,-.2,.4,-.5,.4,-.8c0,-.4,-.1,-.7,-.4,-.9c-.2,-.3,-.5,-.4,-.8,-.4c-.4,0,-.7,.1,-.9,.4c-.3,.2,-.4,.5,-.4,.9c0,.3,.1,.6,.4,.8ZM365.4,134H350.2l1.2,1.2h11.8v8.2L361.6,142c.2,-.6,.3,-1.3,.3,-1.9c0,-.8,-.2,-1.6,-.6,-2.2c-.3,-.5,-.6,-.9,-1,-1.2c-.5,-.3,-.9,-.6,-1.4,-.7c-.3,-.1,-.6,-.2,-.9,-.2c-.7,0,-1.3,.2,-2,.7c-.3,.2,-.5,.5,-.7,.8c-.1,.3,-.2,.6,-.2,.9c0,.4,0,.7,.2,.9c.3,.5,.7,.7,1.2,.8c.6,.1,1.1,0,1.5,-.3c.2,-.2,.4,-.4,.6,-.6c.1,-.3,.2,-.5,.2,-.8c0,-.3,-.1,-.6,-.4,-1c.2,-.1,.5,-.1,.7,0c.2,0,.5,.1,.8,.3c.1,.2,.3,.4,.5,.7c.2,.3,.3,.6,.4,.9c.1,.3,.1,.5,.1,.7c0,.6,-.2,1.1,-.5,1.7c-.5,.8,-1.4,1.3,-2.8,1.3c-.6,0,-1.1,-.2,-1.7,-.5c-.5,-.3,-1,-.8,-1.4,-1.4c-.5,-.5,-.9,-1.2,-1.2,-2c-.4,-.8,-.7,-1.7,-.9,-2.7l-.7,-.3c.1,1,.3,2,.5,2.9c.3,.9,.6,1.7,1,2.3c.3,.5,.7,1,1,1.5c.4,.4,.8,.8,1.2,1.1c.4,.3,.8,.6,1.2,.7c.4,.2,.9,.3,1.2,.3c.8,0,1.4,-.2,2,-.4c.5,-.3,.9,-.7,1.3,-1.2c1.4,.9,2.3,2.4,2.9,4.5v-.1l.4,.3V135.2h2.2L365.4,134Zm5.5,1.2L369.8,134h-1.1c-.4,-.4,-.6,-1,-.8,-1.9l-.4,-.3c0,.2,0,.5,0,.9c.1,.3,.1,.7,.1,1.2c0,.5,.1,.9,.1,1.3c0,.3,0,.6,0,.9c-.2,-.8,-.6,-1.3,-1,-1.6c-.4,-.3,-.9,-.5,-1.6,-.5h-1.4l1.2,1.2c.3,0,.7,.1,1,.2c.3,.1,.6,.3,.8,.5c.3,.2,.5,.4,.6,.7c.2,.3,.2,.7,.2,1v8.9l1.2,1.2V135.2h2.2Zm6.2,-1.2h-7.9l1.2,1.2h3.9c-1.7,2,-2.5,4,-2.5,6.1c0,1.5,.3,2.8,.9,3.9c.8,1.4,1.8,2.1,3.2,2.1c.3,0,.6,0,.9,-.1c.2,-.1,.5,-.2,.7,-.4c.2,-.2,.3,-.4,.4,-.7c.1,-.2,.2,-.5,.2,-.8c0,-.4,-.1,-.9,-.4,-1.2c-.3,-.3,-.7,-.5,-1,-.5c-.4,0,-.8,.2,-1.1,.4c-.3,.3,-.4,.6,-.4,1c0,.2,0,.4,.2,.7c.1,.2,.3,.4,.5,.6c-.7,.2,-1.4,-.2,-2.2,-1.3c-.4,-.7,-.7,-1.5,-.7,-2.3c0,-1,.1,-1.9,.3,-2.7c.2,-.7,.6,-1.4,1,-2.1c.4,-.7,1,-1.3,1.6,-1.7c.7,-.5,1.5,-.8,2.4,-1L377.1,134Zm12.1,1.2L388.1,134H376.3l1.1,1.2h8.2v.9c-2.5,.8,-4.9,2.1,-7.3,3.7l1.5,2.3c1.7,.1,3.1,.7,4.1,1.6c.3,.3,.6,.6,.9,1c.4,.4,.6,.8,.8,1.2c.2,.3,.3,.5,.4,.7c0,.1,.1,.2,.1,.4l.7,.8V135.2h2.4Zm-3.6,9.4c-1,-1.8,-2.6,-3.2,-4.8,-4.1c.9,-.6,1.7,-1.1,2.5,-1.5c.8,-.4,1.6,-.7,2.3,-1v6.6Zm14.9,-9.4L399.3,134H387.5l1.2,1.2h1.2v7.1l1.7,1.7c.5,-1.1,1.2,-2.1,2,-2.9c.9,-.9,1.9,-1.5,3,-1.9c-.3,1,-.4,2.1,-.4,3.1c0,.6,0,1.3,.1,2.2c.2,.8,.3,1.8,.6,3l.8,.4c-.3,-1.6,-.5,-2.8,-.5,-3.7c0,-.9,.2,-1.8,.5,-2.8c.3,-1,.7,-2,1.2,-3l-2,-1.5c-.4,.1,-.8,.3,-1.3,.6c-.5,.2,-1,.5,-1.5,.8c-.5,.4,-1,.7,-1.5,1.2c-.5,.4,-.9,.8,-1.4,1.3v-5.6h9.3Zm11.1,0L410.4,134H398.7l1.2,1.2h8.4v6.6c-1.3,-2.6,-2.8,-4,-4.5,-4c-.8,0,-1.5,.3,-2.1,.9c-.6,.5,-.8,1.2,-.8,2c0,1.5,.7,2.2,2.3,2.2c.5,0,.9,-.2,1.2,-.5c.3,-.4,.4,-.8,.4,-1.3c0,-.3,-.2,-.8,-.8,-1.5c.1,-.1,.2,-.1,.4,-.1c1.2,0,2.4,.8,3.3,2.5c.6,1.4,1,2.9,.9,4.2v1.3l.9,.6V135.2h2.1Zm22.4,0L432.7,134H417.6l1.2,1.2h7.8v1c-2.6,.8,-4.9,2.1,-7,3.7l1.7,2.1c1.3,.1,2.6,.7,3.6,1.8c.5,.5,.9,1,1.3,1.6c.4,.7,.8,1.3,1.1,2q0,.1,.1,.2c.1,0,.2,.1,.3,.1v-10c1.2,0,2.1,.3,2.8,1c.6,.7,.9,1.4,.9,2.2l-.1,.3c-.1,-.2,-.3,-.3,-.5,-.4c-.2,-.2,-.4,-.2,-.6,-.2c-.4,0,-.8,.1,-1,.4c-.3,.2,-.4,.5,-.4,.9c0,.2,0,.4,.1,.6c.1,.2,.2,.3,.4,.5c.1,.1,.3,.2,.5,.3c.1,.1,.3,.1,.5,.1c.3,0,.6,-.1,.8,-.2c.3,-.1,.5,-.3,.6,-.5c.2,-.2,.4,-.4,.5,-.7c.1,-.3,.1,-.5,.1,-.8c0,-1.3,-.4,-2.4,-1.2,-3.4c-.9,-1.2,-2,-1.7,-3.4,-1.7v-.9H434Zm-7.5,9.1c-1,-1.8,-2.5,-3.1,-4.5,-4c.8,-.5,1.6,-1,2.3,-1.4c.8,-.4,1.5,-.8,2.2,-1.1v6.5Zm18.8,-9.1L444.1,134H432.3l1.2,1.2h8.1v.9c-2.5,.8,-4.9,2.1,-7.3,3.7l1.6,2.3c1.7,.1,3,.7,4,1.6c.3,.3,.6,.6,1,1c.3,.4,.5,.8,.7,1c.1,.3,.3,.7,.5,1.3l.7,.8V135.2h2.5Zm-3.7,9.4c-1,-1.8,-2.6,-3.2,-4.8,-4.1c.9,-.6,1.7,-1.1,2.5,-1.5c.8,-.4,1.6,-.7,2.3,-1v6.6Zm-4.7,1.7c.3,.3,.6,.4,.9,.4c.4,0,.7,-.1,.9,-.4c.2,-.2,.4,-.5,.4,-.8c0,-.4,-.2,-.7,-.4,-.9c-.2,-.3,-.5,-.4,-.9,-.4c-.3,0,-.6,.1,-.9,.4c-.2,.2,-.3,.5,-.3,.9c0,.3,.1,.6,.3,.8ZM451.2,134h-8l1.2,1.2h4c-1.7,2,-2.5,4,-2.5,6.1c0,1.5,.3,2.8,.9,3.9c.7,1.4,1.8,2.1,3.2,2.1c.3,0,.6,0,.8,-.1c.3,-.1,.5,-.2,.7,-.4c.2,-.2,.4,-.4,.5,-.7c.1,-.2,.2,-.5,.2,-.8c0,-.4,-.2,-.9,-.5,-1.2c-.2,-.3,-.6,-.5,-1,-.5c-.4,0,-.7,.2,-1,.4c-.3,.3,-.5,.6,-.5,1c0,.2,.1,.4,.2,.7c.1,.2,.3,.4,.6,.6c-.7,.2,-1.5,-.2,-2.2,-1.3c-.5,-.7,-.7,-1.5,-.7,-2.3c0,-1,.1,-1.9,.3,-2.7c.2,-.7,.5,-1.4,.9,-2.1c.5,-.7,1.1,-1.3,1.7,-1.7c.7,-.5,1.4,-.8,2.3,-1L451.2,134Zm13.5,0H450.4l1.3,1.2h14.2L464.7,134Zm-.6,5.6c-.2,-.6,-.5,-1.2,-.9,-1.7c-.5,-.5,-1,-.9,-1.5,-1.1c-.6,-.3,-1.2,-.5,-1.8,-.5c-.8,0,-1.5,.3,-2,.7c-.6,.5,-.9,1.1,-.9,1.9c0,.6,.2,1.2,.5,1.6c.4,.5,.9,.7,1.5,.7c1.3,0,1.9,-.6,1.9,-1.7c0,-.5,-.1,-1,-.4,-1.4c.3,-.1,.6,-.2,.8,-.2c.6,0,1.1,.3,1.6,.9c.4,.6,.5,1.1,.5,1.8c0,.8,-.3,1.6,-1,2.3c-.8,.6,-1.6,1,-2.5,1c-1.7,0,-3.2,-.9,-4.4,-2.8c-.3,-.3,-.6,-1,-1.1,-1.8c-.4,-.9,-.9,-1.9,-1.4,-3.1l-.6,-.2c1.8,6.5,4.3,9.8,7.5,9.8c1.2,0,2.2,-.5,3.2,-1.3c.4,-.4,.7,-.8,1,-1.4c.2,-.5,.4,-1,.4,-1.6c0,-.7,-.2,-1.3,-.4,-1.9ZM482.5,134H472.2l1.2,1.2h1.8v9.1c0,.4,.2,.9,.7,1.5c.4,.5,.9,.7,1.3,.7c1.2,0,2.4,-.7,3.5,-2.2c1.1,-1.4,1.7,-2.7,1.7,-3.9c.1,-1,-1,-1.8,-3,-2.5c-2.1,-.6,-3.1,-1.5,-3.1,-2.7h7.4L482.5,134Zm-1.9,6.8c0,.7,-.5,1.5,-1.4,2.6c-.8,1,-1.6,1.5,-2.3,1.5c-.3,0,-.5,-.2,-.5,-.7v-7c.8,1.5,2.2,2.5,4.1,3.1c0,0,.1,.2,.1,.5Zm7.7,-5.6L487.1,134h-1c-.4,-.4,-.7,-1,-.8,-1.9l-.4,-.3c0,.2,0,.5,0,.9c0,.3,0,.7,.1,1.2c0,.5,0,.9,0,1.3c.1,.3,.1,.6,.1,.9c-.3,-.8,-.6,-1.3,-1,-1.6c-.4,-.3,-1,-.5,-1.7,-.5H481l1.2,1.2c.4,0,.7,.1,1,.2c.4,.1,.6,.3,.9,.5c.2,.2,.4,.4,.6,.7c.1,.3,.2,.7,.2,1v8.9l1.2,1.2V135.2h2.2Zm11.9,-3.3c-2.3,-2.4,-4.8,-3.6,-7.3,-3.6c-1,0,-2,.4,-3.1,1.2c-1,.9,-1.6,1.8,-1.6,2.7c0,.4,.2,.7,.5,1l.8,.8h-3.2l1.2,1.2h1.8v11.3l1.2,1.2V135.2h2.1L491.4,134h-1.3l-.5,-1.1c.1,-.9,.7,-1.6,1.7,-2.3c.9,-.7,1.9,-1,2.8,-1c.6,0,1.2,.1,1.7,.2c.6,.2,1.2,.4,1.7,.7c.6,.4,1.1,.7,1.6,1c.5,.4,.9,.7,1.3,1l-.2,-.6Zm10.1,16.8c-.4,-.5,-.9,-1,-1.3,-1.4c-.4,-.4,-.8,-.8,-1.1,-1c-.6,-.5,-1.6,-1,-3,-1.8c1.1,-.6,2,-1.1,2.5,-1.6c.9,-.7,1.3,-1.5,1.3,-2.5c.1,-.9,-.1,-1.7,-.7,-2.4c-.6,-.7,-1.4,-1.1,-2.5,-1.1c-.1,0,-.2,0,-.3,0c-.2,0,-.3,.1,-.5,.1c-.1,0,-.2,0,-.4,.1c-.2,0,-.3,0,-.3,0c-1.4,0,-2.4,-.7,-3,-1.9h8.8L508.6,134H491.1l1.2,1.2h1.8v8.2c0,.4,.2,.8,.6,1.4c.4,.6,.9,.9,1.4,.9c.7,0,1.4,-.3,2.3,-1c.8,-.7,1.6,-1.7,2.3,-3c.2,.1,.4,.2,.6,.2c.1,.1,.3,.1,.5,.1c.4,0,.7,-.1,1.2,-.3c.4,-.2,.8,-.4,1.2,-.7c.9,-.8,1.3,-1.5,1.4,-2.2l-.1,-.4l.3,-.1c1.2,0,1.7,.4,1.7,1.3c0,.6,-.1,1.2,-.5,1.6c-.3,.5,-.8,.9,-1.5,1.3c-.5,.2,-1.1,.4,-1.7,.6c-.6,.1,-1.2,.2,-1.9,.2c-.3,0,-.5,-.1,-.8,-.1c-.3,-.1,-.6,-.1,-1,-.2l1.2,2.2c1.8,.2,3.5,.6,5,1.3c1.5,.8,2.9,1.8,4.2,3.1l-.2,-.9ZM499,140.5c0,.1,0,.2,0,.3c0,.2,0,.4,-.1,.6c-.1,.2,-.2,.4,-.3,.6c-.6,.6,-1.2,1.2,-1.6,1.5c-.5,.4,-.9,.6,-1.2,.6c-.4,0,-.5,-.3,-.5,-.7v-6.2c.2,.5,.5,.8,.8,1.2c.3,.3,.8,.7,1.4,1c.2,.1,.3,.2,.3,.3c.1,0,.2,0,.3,.1c.4,.2,.7,.4,.8,.5q.1,.1,.1,.2Zm1,-1.7c-.1,0,-.2,0,-.2,0c0,-.1,-.1,-.1,-.1,-.1l-.8,-.3c-.4,-.2,-.8,-.4,-1.2,-.6c-.5,-.2,-.8,-.3,-.9,-.4c-.3,-.2,-.5,-.4,-.7,-.6c-.2,-.2,-.4,-.3,-.5,-.5c-.1,-.1,-.1,-.2,-.2,-.4c-.1,-.3,-.1,-.5,-.1,-.7H500v3.6Zm3.9,-.4c0,.3,0,.5,-.2,.8c-.1,.3,-.3,.6,-.6,.8c-.2,.3,-.5,.5,-.7,.7c-.3,.1,-.6,.2,-.8,.2c-.3,0,-.5,-.2,-.5,-.7v-3.6c.7,.9,1.7,1.5,2.8,1.8Zm18.7,-3.2L521.4,134H508.1l1.3,1.2h9.8v3.3c-.5,-1.3,-1.3,-2,-2.3,-2c-.3,0,-.6,.2,-.9,.5c-.4,.3,-.5,.6,-.5,1c-.9,-1,-1.8,-1.6,-2.8,-1.6c-.8,0,-1.5,.4,-2,1.2c-.4,.7,-.6,1.4,-.6,2.3c0,.5,0,1,.2,1.4c.2,.4,.4,.8,.7,1.1c.3,.3,.7,.5,1.1,.7c.5,.1,.9,.2,1.4,.2c.7,-.1,1.1,-.2,1.5,-.5c.3,-.3,.5,-.7,.5,-1.2c0,-1.1,-.6,-1.7,-1.7,-1.7c-.3,0,-.6,.1,-.9,.3c-.3,.3,-.4,.6,-.4,1c0,.2,.1,.6,.4,1c-1.2,-.2,-1.8,-.8,-1.8,-1.7c0,-.3,.1,-.6,.2,-.9c.1,-.3,.3,-.5,.5,-.7c.2,-.2,.5,-.4,.7,-.5c.3,-.1,.6,-.2,.9,-.2c.7,0,1.3,.2,1.8,.6c.5,.4,.8,1,.9,1.6l.5,-.2c0,-.3,-.1,-.5,-.1,-.7c0,-.9,.4,-1.3,1.1,-1.3c.4,0,.8,.2,1.1,.5c.3,.3,.4,.7,.4,1.1v6.9l1.3,1.1V135.2h2.2Zm4.4,0L525.8,134h-1c-.4,-.4,-.6,-1,-.8,-1.9l-.4,-.3c0,.2,0,.5,0,.9c0,.3,0,.7,.1,1.2c0,.5,0,.9,.1,1.3c0,.3,0,.6,0,.9c-.3,-.8,-.6,-1.3,-1,-1.6c-.4,-.3,-.9,-.5,-1.7,-.5h-1.3l1.2,1.2c.3,0,.6,.1,1,.2c.3,.1,.6,.3,.8,.5c.3,.2,.5,.4,.6,.7c.1,.3,.2,.7,.2,1v8.9l1.2,1.2V135.2H527ZM537.2,134H525.1l1.3,1.2c.5,.6,.8,1,1.1,1.2c.2,.2,.5,.3,.8,.4c.3,.2,.7,.3,1.1,.4c.8,.3,1.3,.5,1.6,.8c.5,.4,.7,1.1,.7,2.2c-.2,-.2,-.6,-.3,-.9,-.3c-.8,0,-1.4,.2,-1.8,.5c-.5,.4,-.7,1,-.7,1.6c0,.6,.2,1.1,.6,1.5c.4,.4,.8,.5,1.4,.5c.3,0,.7,0,1,-.2c.4,-.1,.8,-.5,1.1,-.9c1.6,.5,2.7,2,3.4,4.4l.4,.5V135.2h2.2L537.2,134Zm-2.1,9.8c-.3,-.4,-.6,-.8,-.9,-1.2c-.4,-.4,-.8,-.8,-1.2,-1.2c0,-.1,0,-.2,0,-.3v-.3c0,-1.1,-.4,-2.1,-1.2,-3.1c-.4,-.7,-1.3,-1.5,-2.5,-2.5h5.8v8.6Z" class="gh_298"/>
<g clip-path="url(#c0_298)">
<path d="M1877,177.2H32.1v-5.4H768.7c43.1,0,53,-37.9,115.3,-37.9h993Z" class="gi_298"/>
<path d="M1877,183.7H32.1v-9.8H768.7c43.1,0,53,-33.6,115.3,-33.6h993Z" class="gj_298"/>
</g>
<path d="M131.7,388.3v39l11.7,10.3V393.4Z" class="gk_298"/>
<path d="M131.7,388.3v39H829.5c0,0,16.8,0,16.8,-16.8v-5.4c0,0,0,-16.8,-16.8,-16.8Z" class="g3_298"/>
<path d="M781,421.9c8.2,0,14.8,-6.5,14.8,-14.5c0,-8,-6.6,-14.5,-14.8,-14.5c-8.3,0,-14.9,6.5,-14.9,14.5c0,8,6.6,14.5,14.9,14.5Z" class="gl_298"/>
<path d="M781,421.9c8.2,0,14.8,-6.5,14.8,-14.5c0,-8,-6.6,-14.5,-14.8,-14.5c-8.3,0,-14.9,6.5,-14.9,14.5c0,8,6.6,14.5,14.9,14.5Z" class="gm_298"/>
<path d="M781,412.8c3,0,5.4,-2.4,5.4,-5.4c0,-2.9,-2.4,-5.3,-5.4,-5.3c-3.1,0,-5.5,2.4,-5.5,5.3c0,3,2.4,5.4,5.5,5.4Z" class="g1_298"/>
<path d="M781,412.8c3,0,5.4,-2.4,5.4,-5.4c0,-2.9,-2.4,-5.3,-5.4,-5.3c-3.1,0,-5.5,2.4,-5.5,5.3c0,3,2.4,5.4,5.5,5.4Z" class="gn_298"/>
<g clip-path="url(#ca_298)" opacity="0.3">
<path d="M766.4,406.7c0,0,-.1,-4.9,3.6,-8.7l7.8,6.7c0,0,-1,1,-1.1,2.7Z" class="g1_298"/>
</g>
<path d="M785.6,407.3c0,0,-3.5,0,-3.5,3.5v8.7c0,0,0,3.5,3.5,3.5H829c0,0,3.5,0,3.5,-3.5v-8.7c0,0,0,-3.5,-3.5,-3.5Z" class="go_298"/>
<path d="M169.5,398.4c0,-8.3,-6.7,-15.1,-15,-15.1c-8.4,0,-15.1,6.8,-15.1,15.1c0,8.3,6.8,15,15.1,15c.8,0,1.6,0,2.4,-.2l4.5,5.3v-6.7c4.8,-2.5,8.1,-7.6,8.1,-13.4Z" class="g1_298"/>
<path d="M161.8,419.7l-5.1,-6c-.7,.1,-1.5,.2,-2.2,.2c-8.6,0,-15.6,-7,-15.6,-15.5c0,-8.6,7,-15.5,15.6,-15.5c8.5,0,15.5,6.9,15.5,15.5c0,5.7,-3.1,10.9,-8.2,13.6Zm-4.7,-7l3.8,4.5v-5.7l.3,-.2c4.8,-2.5,7.9,-7.4,7.9,-12.9c0,-8.1,-6.6,-14.6,-14.6,-14.6c-8.1,0,-14.6,6.5,-14.6,14.6c0,8,6.5,14.6,14.6,14.6c.7,0,1.5,-.1,2.3,-.2Z" class="gp_298"/>
<path d="M147.4,398c.8,0,1.5,.6,1.5,1.4c0,.8,-.7,1.4,-1.5,1.4c-.7,0,-1.4,-.6,-1.4,-1.4c0,-.8,.7,-1.4,1.4,-1.4Z" class="gq_298"/>
<path d="M147.4,401.3c-1,0,-1.8,-.9,-1.8,-1.9c0,-1.1,.8,-1.9,1.8,-1.9c1.1,0,1.9,.8,1.9,1.9c0,1,-.8,1.9,-1.9,1.9m0,-2.9c-.5,0,-.9,.4,-.9,1c0,.5,.4,1,.9,1c.6,0,1,-.5,1,-1c0,-.6,-.4,-1,-1,-1Z" class="gp_298"/>
<path d="M154.5,398c.8,0,1.4,.6,1.4,1.4c0,.8,-.6,1.4,-1.4,1.4c-.8,0,-1.5,-.6,-1.5,-1.4c0,-.8,.7,-1.4,1.5,-1.4Z" class="gq_298"/>
<path d="M154.5,401.3c-1.1,0,-1.9,-.9,-1.9,-1.9c0,-1.1,.8,-1.9,1.9,-1.9c1,0,1.9,.8,1.9,1.9c0,1,-.9,1.9,-1.9,1.9m0,-2.9c-.6,0,-1,.4,-1,1c0,.5,.4,1,1,1c.5,0,.9,-.5,.9,-1c0,-.6,-.4,-1,-.9,-1Z" class="gp_298"/>
<path d="M161.5,398c.8,0,1.4,.6,1.4,1.4c0,.8,-.6,1.4,-1.4,1.4c-.8,0,-1.5,-.6,-1.5,-1.4c0,-.8,.7,-1.4,1.5,-1.4Z" class="gq_298"/>
<path d="M161.5,401.3c-1.1,0,-1.9,-.9,-1.9,-1.9c0,-1.1,.8,-1.9,1.9,-1.9c1,0,1.9,.8,1.9,1.9c0,1,-.9,1.9,-1.9,1.9m0,-2.9c-.6,0,-1,.4,-1,1c0,.5,.4,1,1,1c.5,0,1,-.5,1,-1c0,-.6,-.5,-1,-1,-1Z" class="gp_298"/>
<path d="M163.4,412.6c0,-9.7,7.9,-17.6,17.6,-17.6c9.7,0,17.6,7.9,17.6,17.6c0,9.7,-7.9,17.6,-17.6,17.6c-.9,0,-1.9,0,-2.8,-.2l-5.3,6.1v-7.8c-5.6,-3,-9.5,-8.9,-9.5,-15.7Z" class="gr_298"/>
<path d="M172.9,436.6c0,0,-.1,0,-.1,-.1c-.2,0,-.3,-.2,-.3,-.4v-7.6c-5.9,-3.1,-9.6,-9.2,-9.6,-15.9c0,-9.9,8.2,-18.1,18.1,-18.1c10,0,18.1,8.2,18.1,18.1c0,10,-8.1,18.1,-18.1,18.1c-.8,0,-1.7,-.1,-2.6,-.2l-5.1,5.9c-.1,.1,-.2,.2,-.4,.2M181,395.5c-9.4,0,-17.1,7.7,-17.1,17.1c0,6.5,3.5,12.3,9.2,15.3c.2,0,.3,.2,.3,.4v6.6l4.4,-5.2c.1,-.1,.3,-.2,.5,-.1c.9,.1,1.8,.2,2.7,.2c9.5,0,17.2,-7.7,17.2,-17.2c0,-9.4,-7.7,-17.1,-17.2,-17.1Z" class="gp_298"/>
<path d="M189.2,412.1c.9,0,1.7,.8,1.7,1.7c0,.9,-.8,1.7,-1.7,1.7c-.9,0,-1.7,-.8,-1.7,-1.7c0,-.9,.8,-1.7,1.7,-1.7Z" class="g1_298"/>
<path d="M189.2,415.9c-1.2,0,-2.1,-.9,-2.1,-2.1c0,-1.2,.9,-2.1,2.1,-2.1c1.2,0,2.1,.9,2.1,2.1c0,1.2,-.9,2.1,-2.1,2.1m0,-3.3c-.7,0,-1.2,.5,-1.2,1.2c0,.7,.5,1.2,1.2,1.2c.7,0,1.2,-.5,1.2,-1.2c0,-.7,-.5,-1.2,-1.2,-1.2Z" class="gp_298"/>
<path d="M181,412.1c.9,0,1.7,.8,1.7,1.7c0,.9,-.8,1.7,-1.7,1.7c-.9,0,-1.7,-.8,-1.7,-1.7c0,-.9,.8,-1.7,1.7,-1.7Z" class="g1_298"/>
<path d="M181,415.9c-1.2,0,-2.1,-.9,-2.1,-2.1c0,-1.2,.9,-2.1,2.1,-2.1c1.2,0,2.1,.9,2.1,2.1c0,1.2,-.9,2.1,-2.1,2.1m0,-3.3c-.7,0,-1.2,.5,-1.2,1.2c0,.7,.5,1.2,1.2,1.2c.7,0,1.2,-.5,1.2,-1.2c0,-.7,-.5,-1.2,-1.2,-1.2Z" class="gp_298"/>
<path d="M172.8,412.1c.9,0,1.7,.8,1.7,1.7c0,.9,-.8,1.7,-1.7,1.7c-.9,0,-1.7,-.8,-1.7,-1.7c0,-.9,.8,-1.7,1.7,-1.7Z" class="g1_298"/>
<path d="M172.8,415.9c-1.2,0,-2.1,-.9,-2.1,-2.1c0,-1.2,.9,-2.1,2.1,-2.1c1.2,0,2.1,.9,2.1,2.1c0,1.2,-.9,2.1,-2.1,2.1m0,-3.3c-.7,0,-1.2,.5,-1.2,1.2c0,.7,.5,1.2,1.2,1.2c.7,0,1.2,-.5,1.2,-1.2c0,-.7,-.5,-1.2,-1.2,-1.2Z" class="gp_298"/>
<image clip-path="url(#cb_298)" preserveAspectRatio="none" x="125" y="206" width="734" height="181" xlink:href="img/6.png"/>
<path d="M144.6,231.3c0,0,-13,0,-13,13v117c0,0,0,13,13,13H833.1c0,0,13,0,13,-13v-130Z" class="gs_298"/>
<path d="M147.7,294.1l54.1,40.8l54.1,-40.8V230h8.7V211.9H155.8c-6.5,.4,-7.7,3.9,-8.2,8.4Z" class="gt_298"/>
<path d="M274,220.3c-.3,-4.7,-4.2,-8.4,-9,-8.4c-4.8,0,-8.7,3.7,-9,8.4h-.1V230h18.2v-9.7Z" class="go_298"/>
<path d="M255.9,230.6H846.1" class="gu_298"/>
<path d="M32.1,45.1H9.2m958.3,0h22.9M32.1,1331.3H9.2m958.3,0h22.9M45.1,32.1V9.2m0,1335.1v22.9M954.5,32.1V9.2m0,1335.1v22.9" class="gv_298"/>
<path d="M32.1,45.1H9.2m958.3,0h22.9M32.1,1331.3H9.2m958.3,0h22.9M45.1,32.1V9.2m0,1335.1v22.9M954.5,32.1V9.2m0,1335.1v22.9" class="gw_298"/>
<path d="M27.5,32.1H0m972.1,0h27.5M27.5,1344.3H0m972.1,0h27.5M32.1,27.5V0m0,1348.9v27.5M967.5,27.5V0m0,1348.9v27.5" class="gv_298"/>
<path d="M27.5,32.1H0m972.1,0h27.5M27.5,1344.3H0m972.1,0h27.5M32.1,27.5V0m0,1348.9v27.5M967.5,27.5V0m0,1348.9v27.5" class="gw_298"/>
</svg>