<?xml version="1.0" encoding="UTF-8" standalone="no"?>
<!DOCTYPE svg PUBLIC "-//W3C//DTD SVG 1.1//EN"
"http://www.w3.org/Graphics/SVG/1.1/DTD/svg11.dtd">
<svg viewBox="0 0 999 1376" version="1.1" xmlns="http://www.w3.org/2000/svg" xmlns:xlink="http://www.w3.org/1999/xlink">
<defs>
<clipPath id="c0_188"><path d="M32.1,1344.3V32.1H967.5V1344.3Z"/></clipPath>
<clipPath id="c1_188"><path d="M186.2,291.4l-6.5,-2.1L163.3,275.4V218.3h72v73.1Z"/></clipPath>
<clipPath id="c2_188"><path d="M186.2,678.9l-6.5,-2.1l-16.4,-14V605.7h72v73.2Z"/></clipPath>
<clipPath id="c3_188"><path d="M210.1,458.2V359.6H312.4v98.6Z"/></clipPath>
<clipPath id="c4_188"><path d="M210.5,564.7V492.8H330.6v71.9Z"/></clipPath>
<style type="text/css"><![CDATA[
.g0_188{
fill: #FEFCF4;
}
.g1_188{
fill: #F16865;
}
.g2_188{
fill: #FAC3B8;
}
.g3_188{
fill: #EE314A;
}
.g4_188{
fill: #26292E;
}
.g5_188{
fill: #C5CACC;
}
.g6_188{
fill: #FFF;
}
.g7_188{
fill: #F1EBEB;
}
.g8_188{
fill: #F7943B;
}
.g9_188{
fill: #ACB5B9;
}
.ga_188{
fill: #CFD3D5;
}
.gb_188{
fill: #FCE8B0;
}
.gc_188{
fill: none;
stroke: #6381B7;
stroke-width: 0.763;
}
.gd_188{
fill: #E3E7F2;
}
.ge_188{
fill: none;
stroke: #231F20;
stroke-width: 0.458;
stroke-miterlimit: 10;
}
.gf_188{
fill: #6381B7;
}
.gg_188{
fill: none;
stroke: #6381B7;
stroke-width: 0.381;
stroke-dasharray: 2,1;
}
.gh_188{
fill: none;
stroke: #6381B7;
stroke-width: 0.381;
}
.gi_188{
fill: none;
stroke: #FFF;
stroke-width: 1.909;
stroke-miterlimit: 10;
}
.gj_188{
fill: none;
stroke: #000;
stroke-width: 0.381;
stroke-miterlimit: 10;
}
]]></style>
</defs>
<path d="M32.1,1344.3H954.5V32.1H32.1V1344.3Z" class="g0_188"/>
<g clip-path="url(#c0_188)">
<path d="M954.5,1344.3H1877V32.1H954.5V1344.3Z" class="g0_188"/>
<path d="M1777.4,166.7c0,0,30.3,0,30.3,-30.3v-4.3c0,0,0,-30.3,-30.3,-30.3H173.9c0,0,-30.3,0,-30.3,30.3v4.3c0,0,0,30.3,30.3,30.3Z" class="g1_188"/>
</g>
<path d="M186.5,132.1c0,27.1,-22,49,-49.1,49c-27,0,-49,-21.9,-49,-49c0,-27.1,22,-49.1,49,-49.1c27.1,0,49.1,22,49.1,49.1Z" class="g2_188"/>
<path d="M178.1,104.6c15.2,22.5,9.2,53,-13.2,68.1c-22.5,15.2,-53,9.3,-68.1,-13.2Z" class="g3_188"/>
<path d="M96.8,159.5h81.3V104.7H96.8v54.8Z" class="g4_188"/>
<path d="M137.7,156.8h16.8V136.6H137.7v20.2Z" class="g5_188"/>
<path d="M143.1,156.8h33.7V102.6H143.1v54.2Z" class="g5_188"/>
<path d="M141.6,103v50c.5,-.3,1,-.4,1.5,-.4h33.7v-50H143.1c-.5,0,-1,.2,-1.5,.4Z" class="g6_188"/>
<path d="M137.7,109v47.8c0,0,2.5,-3.1,3.9,-3.8V103c-2.2,1.1,-3.9,4.3,-3.9,6Z" class="g7_188"/>
<path d="M143.5,112.3h29.1v-1.4H143.5v1.4Z" class="g5_188"/>
<path d="M143.5,115.5h29.1v-1.4H143.5v1.4Z" class="g5_188"/>
<path d="M143.5,118.8h29.1v-1.5H143.5v1.5Z" class="g5_188"/>
<path d="M143.5,122h29.1v-1.5H143.5V122Z" class="g5_188"/>
<path d="M143.5,125.2h29.1v-1.5H143.5v1.5Z" class="g5_188"/>
<path d="M143.5,128.4h29.1v-1.5H143.5v1.5Z" class="g5_188"/>
<path d="M143.5,131.6h29.1v-1.5H143.5v1.5Z" class="g5_188"/>
<path d="M143.5,134.8h29.1v-1.5H143.5v1.5Z" class="g5_188"/>
<path d="M143.5,138h29.1v-1.4H143.5V138Z" class="g5_188"/>
<path d="M143.5,141.2h29.1v-1.4H143.5v1.4Z" class="g5_188"/>
<path d="M143.5,144.4h29.1V143H143.5v1.4Z" class="g5_188"/>
<path d="M143.5,147.6h29.1v-1.4H143.5v1.4Z" class="g5_188"/>
<path d="M159.7,150.9l1,-.9l1,.9v-49h-2Z" class="g8_188"/>
<path d="M120.9,156.8h16.8V136.6H120.9v20.2Z" class="g9_188"/>
<path d="M98.6,156.8h33.6V102.6H98.6v54.2Z" class="g9_188"/>
<path d="M98.6,102.6v50h33.6c.6,0,1.1,.1,1.6,.4V103c-.5,-.2,-1,-.4,-1.6,-.4Z" class="g6_188"/>
<path d="M133.8,103v50c1.4,.7,3.9,3.8,3.9,3.8V109c0,-1.7,-1.7,-4.9,-3.9,-6Z" class="ga_188"/>
<path d="M109.7,112.3h14.5v-1.4H109.7v1.4Z" class="g5_188"/>
<path d="M102.8,118.8h29.1v-1.5H102.8v1.5Z" class="g5_188"/>
<path d="M102.8,122h29.1v-1.5H102.8V122Z" class="g5_188"/>
<path d="M102.8,125.2h29.1v-1.5H102.8v1.5Z" class="g5_188"/>
<path d="M102.8,128.4h29.1v-1.5H102.8v1.5Z" class="g5_188"/>
<path d="M102.8,131.6h29.1v-1.5H102.8v1.5Z" class="g5_188"/>
<path d="M102.8,134.8h29.1v-1.5H102.8v1.5Z" class="g5_188"/>
<path d="M102.8,138h29.1v-1.4H102.8V138Z" class="g5_188"/>
<path d="M102.8,141.2h29.1v-1.4H102.8v1.4Z" class="g5_188"/>
<path d="M102.8,144.4h29.1V143H102.8v1.4Z" class="g5_188"/>
<path d="M102.8,147.6h29.1v-1.4H102.8v1.4Z" class="g5_188"/>
<path d="M218.8,220.5c0,0,-13,0,-13,13v47.6c0,0,0,13,13,13H833.5c0,0,13,0,13,-13V233.5c0,0,0,-13,-13,-13Z" class="gb_188"/>
<image clip-path="url(#c1_188)" preserveAspectRatio="none" x="162" y="217" width="75" height="76" xlink:href="img/1.png"/>
<path d="M213.6,286.7c0,0,-26.8,11.3,-51.1,-12.7c0,0,15.2,25.3,49.3,23.9c0,0,24.7,.4,20.2,-10.1c0,0,1.3,-4.4,-18.4,-1.1Z" class="gb_188"/>
<path d="M218.8,607.9c0,0,-13,0,-13,13v47.6c0,0,0,13,13,13H833.5c0,0,13,0,13,-13V620.9c0,0,0,-13,-13,-13Z" class="gb_188"/>
<image clip-path="url(#c2_188)" preserveAspectRatio="none" x="162" y="604" width="75" height="76" xlink:href="img/2.png"/>
<path d="M213.6,674.2c0,0,-26.8,11.3,-51.1,-12.8c0,0,15.2,25.3,49.3,24c0,0,24.7,.3,20.2,-10.1c0,0,1.3,-4.5,-18.4,-1.1Z" class="gb_188"/>
<path d="M145.1,302.5c0,0,-13,0,-13,13V577.2c0,0,0,13,13,13h688c0,0,13,0,13,-13V315.5c0,0,0,-13,-13,-13Z" class="g6_188"/>
<path d="M145.1,302.5c0,0,-13,0,-13,13V577.2c0,0,0,13,13,13h688c0,0,13,0,13,-13V315.5c0,0,0,-13,-13,-13h-688Z" class="gc_188"/>
<image clip-path="url(#c3_188)" preserveAspectRatio="none" x="210" y="356" width="102" height="102" xlink:href="img/3.jpg"/>
<image clip-path="url(#c4_188)" preserveAspectRatio="none" x="210" y="493" width="121" height="72" xlink:href="img/4.jpg"/>
<path d="M145.1,694.2c0,0,-13,0,-13,13v475.6c0,0,0,13,13,13h688c0,0,13,0,13,-13V707.2c0,0,0,-13,-13,-13Z" class="g6_188"/>
<path d="M145.1,694.2c0,0,-13,0,-13,13v475.6c0,0,0,13,13,13h688c0,0,13,0,13,-13V707.2c0,0,0,-13,-13,-13h-688Z" class="gc_188"/>
<path d="M192.3,827.2H798.6v-65H192.3v65Z" class="gd_188"/>
<path d="M319.8,816.8H421.7" class="ge_188"/>
<path d="M192.3,951.5H798.6V886.6H192.3v64.9Z" class="gd_188"/>
<path d="M343.4,915.7h75.3" class="ge_188"/>
<path d="M192.3,1140.6H798.6V1032.3H192.3v108.3Z" class="gd_188"/>
<path d="M520.6,1059.2h66.5" class="ge_188"/>
<path d="M608.2,1209.7c0,0,-4.4,0,-4.4,4.3v10.8c0,0,0,4.3,4.4,4.3h30.3c0,0,4.3,0,4.3,-4.3V1214c0,0,0,-4.3,-4.3,-4.3Z" class="gf_188"/>
<path d="M595,1202.2V1237m1.3,1H844.8m1,-1.4v-34.8m-1.4,-1H595.9" class="gg_188"/>
<path d="M595,1237.4v.6h.6m249.6,0h.6v-.6m0,-36v-.6h-.6m-249.6,0H595v.6" class="gh_188"/>
<path d="M32.1,45.1H9.2m958.3,0h22.9M32.1,1331.3H9.2m958.3,0h22.9M45.1,32.1V9.2m0,1335.1v22.9M954.5,32.1V9.2m0,1335.1v22.9" class="gi_188"/>
<path d="M32.1,45.1H9.2m958.3,0h22.9M32.1,1331.3H9.2m958.3,0h22.9M45.1,32.1V9.2m0,1335.1v22.9M954.5,32.1V9.2m0,1335.1v22.9" class="gj_188"/>
<path d="M27.5,32.1H0m972.1,0h27.5M27.5,1344.3H0m972.1,0h27.5M32.1,27.5V0m0,1348.9v27.5M967.5,27.5V0m0,1348.9v27.5" class="gi_188"/>
<path d="M27.5,32.1H0m972.1,0h27.5M27.5,1344.3H0m972.1,0h27.5M32.1,27.5V0m0,1348.9v27.5M967.5,27.5V0m0,1348.9v27.5" class="gj_188"/>
</svg>