<?xml version="1.0" encoding="UTF-8" standalone="no"?>
<!DOCTYPE svg PUBLIC "-//W3C//DTD SVG 1.1//EN"
"http://www.w3.org/Graphics/SVG/1.1/DTD/svg11.dtd">
<svg viewBox="0 0 999 1376" version="1.1" xmlns="http://www.w3.org/2000/svg" xmlns:xlink="http://www.w3.org/1999/xlink">
<defs>
<clipPath id="c0_122"><path d="M198.1,354V254.8h99.2V354Z"/></clipPath>
<clipPath id="c1_122"><path d="M198.1,509.6V410.3h99.2v99.3Z"/></clipPath>
<clipPath id="c2_122"><path d="M514.6,509.6V414.8H635.1v94.8Z"/></clipPath>
<clipPath id="c3_122"><path d="M198.2,951.2v-66H306v66Z"/></clipPath>
<clipPath id="c4_122"><path d="M195.9,1047.4v-66H305.5v66Z"/></clipPath>
<clipPath id="c5_122"><path d="M195.9,1159.9v-80H306v80Z"/></clipPath>
<clipPath id="c6_122"><path d="M177.5,235.1L171,233L154.6,219.1V162h72v73.1Z"/></clipPath>
<clipPath id="c7_122"><path d="M176.3,811.3l-6.5,-2.1L153.4,795.3V738.2h71.9v73.1Z"/></clipPath>
<style type="text/css"><![CDATA[
.g0_122{
fill: #FEFCF4;
}
.g1_122{
fill: #FFF;
}
.g2_122{
fill: none;
stroke: #6381B7;
stroke-width: 0.763;
}
.g3_122{
fill: none;
stroke: #949698;
stroke-width: 0.381;
}
.g4_122{
fill: none;
stroke: #231F20;
stroke-width: 1.527;
}
.g5_122{
fill: none;
stroke: #231F20;
stroke-width: 0.305;
stroke-miterlimit: 10;
}
.g6_122{
fill: #6381B7;
}
.g7_122{
fill: none;
stroke: #6381B7;
stroke-width: 0.381;
stroke-dasharray: 2,1;
}
.g8_122{
fill: none;
stroke: #6381B7;
stroke-width: 0.381;
}
.g9_122{
fill: #FCE8B0;
}
.ga_122{
fill: #25408F;
}
.gb_122{
fill: #00BAF1;
}
.gc_122{
fill: #332D2C;
}
.gd_122{
fill: #D9DFF0;
}
.ge_122{
fill: #F27C85;
}
.gf_122{
fill: #7DD3F6;
}
.gg_122{
fill: none;
stroke: #FFF;
stroke-width: 1.909;
stroke-miterlimit: 10;
}
.gh_122{
fill: none;
stroke: #000;
stroke-width: 0.381;
stroke-miterlimit: 10;
}
]]></style>
</defs>
<path d="M32.1,1344.3H954.5V32.1H32.1V1344.3Z" class="g0_122"/>
<path d="M150.4,134.1c0,0,-18.3,0,-18.3,18.3V682.5c0,0,0,18.3,18.3,18.3H827.5c0,0,18.4,0,18.4,-18.3V134.1Z" class="g1_122"/>
<path d="M150.4,134.1c0,0,-18.3,0,-18.3,18.3V682.5c0,0,0,18.3,18.3,18.3H827.5c0,0,18.4,0,18.4,-18.3V134.1H150.4Z" class="g2_122"/>
<path d="M187.4,354H307.9V254.8H187.4V354Z" class="g1_122"/>
<image clip-path="url(#c0_122)" preserveAspectRatio="none" x="198" y="255" width="99" height="99" xlink:href="img/1.jpg"/>
<path d="M187.4,354H307.9V254.8H187.4V354Z" class="g3_122"/>
<path d="M514.6,354H635.1V254.8H514.6V354Z" class="g1_122"/>
<image preserveAspectRatio="none" x="525" y="255" width="99" height="85" xlink:href="img/2.jpg"/>
<path d="M514.6,354H635.1V254.8H514.6V354Z" class="g3_122"/>
<path d="M351,354H471.5V254.8H351V354Z" class="g1_122"/>
<image preserveAspectRatio="none" x="362" y="255" width="99" height="99" xlink:href="img/3.jpg"/>
<path d="M351,354H471.5V254.8H351V354Z" class="g3_122"/>
<path d="M678.2,354H798.7V254.8H678.2V354Z" class="g1_122"/>
<image preserveAspectRatio="none" x="689" y="255" width="99" height="99" xlink:href="img/4.jpg"/>
<path d="M678.2,354H798.7V254.8H678.2V354Z" class="g3_122"/>
<path d="M187.4,509.6H307.9V410.3H187.4v99.3Z" class="g1_122"/>
<image clip-path="url(#c1_122)" preserveAspectRatio="none" x="198" y="410" width="99" height="100" xlink:href="img/5.jpg"/>
<path d="M187.4,509.6H307.9V410.3H187.4v99.3Z" class="g3_122"/>
<path d="M351,509.6H471.5V410.3H351v99.3Z" class="g1_122"/>
<image preserveAspectRatio="none" x="362" y="410" width="99" height="100" xlink:href="img/6.jpg"/>
<path d="M351,509.6H471.5V410.3H351v99.3Z" class="g3_122"/>
<path d="M514.6,509.6H635.1V410.3H514.6v99.3Z" class="g1_122"/>
<image clip-path="url(#c2_122)" preserveAspectRatio="none" x="515" y="415" width="120" height="96" xlink:href="img/7.jpg"/>
<path d="M514.6,509.6H635.1V410.3H514.6v99.3Z" class="g3_122"/>
<path d="M678.2,509.6H798.7V410.3H678.2v99.3Z" class="g1_122"/>
<image preserveAspectRatio="none" x="689" y="410" width="99" height="100" xlink:href="img/8.jpg"/>
<path d="M678.2,509.6H798.7V410.3H678.2v99.3Z" class="g3_122"/>
<path d="M174.9,591.9c-.3,0,-.6,.1,-.9,.3c-.2,.3,-.3,.6,-.3,.9c0,.3,.1,.6,.3,.9c.3,.2,.6,.3,.9,.3c.3,0,.6,-.1,.9,-.3c.2,-.3,.3,-.6,.3,-.9c0,-.3,-.1,-.6,-.3,-.9c-.3,-.2,-.6,-.3,-.9,-.3Zm0,27.5c-.3,0,-.6,.1,-.9,.3c-.2,.3,-.3,.6,-.3,.9c0,.3,.1,.6,.3,.9c.3,.2,.6,.3,.9,.3c.3,0,.6,-.1,.9,-.3c.2,-.3,.3,-.6,.3,-.9c0,-.3,-.1,-.6,-.3,-.9c-.3,-.2,-.6,-.3,-.9,-.3Zm0,27.5c-.3,0,-.6,.1,-.9,.3c-.2,.3,-.3,.6,-.3,.9c0,.3,.1,.6,.3,.9c.3,.2,.6,.3,.9,.3c.3,0,.6,-.1,.9,-.3c.2,-.3,.3,-.6,.3,-.9c0,-.3,-.1,-.6,-.3,-.9c-.3,-.2,-.6,-.3,-.9,-.3Zm0,27.5c-.3,0,-.6,.1,-.9,.3c-.2,.3,-.3,.6,-.3,.9c0,.3,.1,.6,.3,.9c.3,.2,.6,.3,.9,.3c.3,0,.6,-.1,.9,-.3c.2,-.3,.3,-.6,.3,-.9c0,-.3,-.1,-.6,-.3,-.9c-.3,-.2,-.6,-.3,-.9,-.3Z" class="g4_122"/>
<path d="M145.1,825.7c0,0,-13,0,-13,12.9v339c0,0,0,13,13,13H832.9c0,0,13,0,13,-13v-339c0,0,0,-12.9,-13,-12.9Z" class="g1_122"/>
<path d="M145.1,825.7c0,0,-13,0,-13,12.9v339c0,0,0,13,13,13H832.9c0,0,13,0,13,-13v-339c0,0,0,-12.9,-13,-12.9H145.1Z" class="g2_122"/>
<image clip-path="url(#c3_122)" preserveAspectRatio="none" x="198" y="885" width="109" height="66" xlink:href="img/9.jpg"/>
<image clip-path="url(#c4_122)" preserveAspectRatio="none" x="195" y="981" width="111" height="66" xlink:href="img/10.jpg"/>
<image clip-path="url(#c5_122)" preserveAspectRatio="none" x="195" y="1080" width="112" height="80" xlink:href="img/11.jpg"/>
<path d="M429.1,898.5H545.2M476.5,1023h116m69.2,117.2h73" class="g5_122"/>
<path d="M606.8,1207.4c0,0,-4.3,0,-4.3,4.3v10.9c0,0,0,4.3,4.3,4.3h30.3c0,0,4.3,0,4.3,-4.3v-10.9c0,0,0,-4.3,-4.3,-4.3Z" class="g6_122"/>
<path d="M593.6,1199.9v34.9m1.3,.9H844.3m1,-1.3v-34.9m-1.3,-.9H594.6" class="g7_122"/>
<path d="M593.6,1235.2v.5h.6m250.5,0h.6v-.5m0,-36.1v-.5h-.6m-250.5,0h-.6v.5" class="g8_122"/>
<path d="M210.1,190.2c0,0,-13,0,-13,12.9v21.7c0,0,0,13,13,13h602c0,0,13,0,13,-13V203.1c0,0,0,-12.9,-13,-12.9Z" class="g9_122"/>
<image clip-path="url(#c6_122)" preserveAspectRatio="none" x="153" y="160" width="75" height="77" xlink:href="img/12.png"/>
<path d="M204.9,230.4c0,0,-26.8,11.3,-51.1,-12.7c0,0,15.2,25.3,49.3,23.9c0,0,24.8,.4,20.3,-10.1c0,0,1.2,-4.4,-18.5,-1.1Z" class="g9_122"/>
<path d="M208.9,766.3c0,0,-13,0,-13,13V801c0,0,0,12.9,13,12.9H833.3c0,0,13,0,13,-12.9V779.3c0,0,0,-13,-13,-13Z" class="g9_122"/>
<image clip-path="url(#c7_122)" preserveAspectRatio="none" x="152" y="737" width="75" height="76" xlink:href="img/13.png"/>
<path d="M203.7,806.6c0,0,-26.9,11.3,-51.1,-12.8c0,0,15.1,25.3,49.3,24c0,0,24.7,.3,20.2,-10.1c0,0,1.2,-4.5,-18.4,-1.1Z" class="g9_122"/>
<path d="M131.7,126.7v22.2l11.7,10.3V137Z" class="ga_122"/>
<path d="M131.7,109.9v39H829.4c0,0,16.9,0,16.9,-16.8v-5.4c0,0,0,-16.8,-16.9,-16.8Z" class="g6_122"/>
<path d="M189.6,121.3l-6.4,-6.5L162,136l6.4,6.5Z" class="gb_122"/>
<path d="M168.4,143c.2,0,.3,0,.4,-.1L190,121.7c.1,-.1,.2,-.3,.2,-.4c0,-.1,-.1,-.3,-.2,-.4l-6.5,-6.4c-.2,-.2,-.5,-.2,-.7,0l-21.2,21.2c-.1,.1,-.2,.2,-.2,.3c0,.2,.1,.3,.2,.4l6.5,6.5c.1,.1,.2,.1,.3,.1m20.5,-21.7l-20.5,20.5L162.7,136l20.5,-20.4Z" class="gc_122"/>
<path d="M189.6,121.3l-6.4,-6.5l2.1,-2.1l6.5,6.5Z" class="gd_122"/>
<path d="M189.6,121.8c.2,0,.3,0,.4,-.1l2.1,-2.1c.1,-.1,.2,-.3,.2,-.4c0,-.2,-.1,-.3,-.2,-.4l-6.4,-6.5c-.2,-.2,-.6,-.2,-.8,0l-2.1,2.2c-.1,0,-.2,.2,-.2,.3c0,.2,.1,.3,.2,.4l6.5,6.5c.1,.1,.2,.1,.3,.1m1.4,-2.6l-1.4,1.4l-5.7,-5.8l1.4,-1.4Z" class="gc_122"/>
<path d="M195.4,115.6l-6.5,-6.5l-3.6,3.6l6.5,6.5Z" class="ge_122"/>
<path d="M191.8,119.7c.1,0,.2,0,.3,-.1l3.7,-3.7c.2,-.2,.2,-.5,0,-.7l-6.5,-6.5c-.2,-.2,-.6,-.2,-.8,0l-3.6,3.6c-.2,.2,-.2,.6,0,.8l6.5,6.5c.1,.1,.2,.1,.4,.1m2.8,-4.1l-2.8,2.8L186,112.7l2.9,-2.9Z" class="gc_122"/>
<path d="M157.3,147.2L162,136l6.4,6.5Z" class="g1_122"/>
<path d="M157.3,147.7c.1,0,.2,0,.2,-.1L168.6,143c.2,-.1,.3,-.2,.4,-.4c0,-.2,-.1,-.3,-.2,-.5l-6.5,-6.4c-.1,-.2,-.3,-.2,-.5,-.2c-.1,.1,-.3,.2,-.3,.3l-4.7,11.1c0,.2,0,.5,.1,.6c.1,.1,.3,.2,.4,.2m10.2,-5.4l-9.2,3.9l3.8,-9.2Z" class="gc_122"/>
<path d="M157.3,147.2l2.3,-5.4l3.1,3.1Z" class="gc_122"/>
<path d="M157.3,147.7c.1,0,.2,0,.2,-.1l5.4,-2.2c.1,-.1,.3,-.2,.3,-.4c0,-.2,0,-.3,-.1,-.5l-3.2,-3.1c-.1,-.1,-.3,-.2,-.4,-.1c-.2,0,-.4,.1,-.4,.3l-2.3,5.3c0,.2,0,.5,.1,.6c.1,.1,.3,.2,.4,.2m4.5,-3l-3.5,1.5l1.4,-3.5Z" class="gc_122"/>
<path d="M187.9,119.5l-3,-2.9l-21.2,21.2l3,3Z" class="gf_122"/>
<path d="M166.7,141.3c.1,0,.2,-.1,.3,-.2l21.3,-21.2c.1,-.1,.1,-.2,.1,-.4c0,-.1,0,-.2,-.1,-.3l-3,-3c-.2,-.2,-.5,-.2,-.8,0l-21.2,21.2c-.1,.1,-.1,.3,-.1,.4c0,.1,0,.3,.1,.4l3,2.9c.1,.1,.2,.2,.4,.2m20.4,-21.8L166.7,140l-2.2,-2.2l20.4,-20.5Z" class="gc_122"/>
<path d="M32.1,45.1H9.2m958.3,0h22.9M32.1,1331.3H9.2m958.3,0h22.9M45.1,32.1V9.2m0,1335.1v22.9M954.5,32.1V9.2m0,1335.1v22.9" class="gg_122"/>
<path d="M32.1,45.1H9.2m958.3,0h22.9M32.1,1331.3H9.2m958.3,0h22.9M45.1,32.1V9.2m0,1335.1v22.9M954.5,32.1V9.2m0,1335.1v22.9" class="gh_122"/>
<path d="M27.5,32.1H0m972.1,0h27.5M27.5,1344.3H0m972.1,0h27.5M32.1,27.5V0m0,1348.9v27.5M967.5,27.5V0m0,1348.9v27.5" class="gg_122"/>
<path d="M27.5,32.1H0m972.1,0h27.5M27.5,1344.3H0m972.1,0h27.5M32.1,27.5V0m0,1348.9v27.5M967.5,27.5V0m0,1348.9v27.5" class="gh_122"/>
</svg>