<?xml version="1.0" encoding="UTF-8" standalone="no"?>
<!DOCTYPE svg PUBLIC "-//W3C//DTD SVG 1.1//EN"
"http://www.w3.org/Graphics/SVG/1.1/DTD/svg11.dtd">
<svg viewBox="0 0 999 1376" version="1.1" xmlns="http://www.w3.org/2000/svg" xmlns:xlink="http://www.w3.org/1999/xlink">
<defs>
<clipPath id="c0_51"><path d="M32.1,1344.3V32.1H967.5V1344.3Z"/></clipPath>
<clipPath id="c1_51"><path d="M201.9,475.5l-6.5,-2.1L179,459.5V402.4h72v73.1Z"/></clipPath>
<clipPath id="c2_51"><path d="M192.3,892.1L185.8,890L169.4,876.1V819h72v73.1Z"/></clipPath>
<clipPath id="c3_51"><path d="M200.1,137.2c.1,-1.3,.7,-2.5,1.6,-3.4c1,-1,2.3,-1.6,3.9,-1.6h19.2v5Z"/></clipPath>
<clipPath id="c4_51"><path d="M199.5,137.7v-6h25.8v6Z"/></clipPath>
<style type="text/css"><![CDATA[
.g0_51{
fill: #FEFCF4;
}
.g1_51{
fill: #DEF1F3;
}
.g2_51{
fill: #6381B7;
}
.g3_51{
fill: none;
stroke: #6381B7;
stroke-width: 0.381;
stroke-dasharray: 2,1;
}
.g4_51{
fill: none;
stroke: #6381B7;
stroke-width: 0.381;
}
.g5_51{
fill: none;
stroke: #6381B7;
stroke-width: 0.763;
}
.g6_51{
fill: none;
stroke: #231F20;
stroke-width: 0.458;
stroke-miterlimit: 10;
}
.g7_51{
fill: #FFF;
}
.g8_51{
fill: none;
stroke: #231F20;
stroke-width: 0.305;
stroke-miterlimit: 10;
}
.g9_51{
fill: #48484A;
}
.ga_51{
fill: #F0E8F3;
}
.gb_51{
fill: #766FA6;
}
.gc_51{
fill: #FCE8B0;
}
.gd_51{
fill: #25408F;
}
.ge_51{
fill: none;
stroke: #231F20;
stroke-width: 1.527;
}
.gf_51{
fill: #39B4D1;
stroke: #2D2A4A;
stroke-width: 1.038;
stroke-linecap: round;
stroke-linejoin: round;
}
.gg_51{
fill: #2D2A4A;
}
.gh_51{
fill: none;
stroke: #2D2A4A;
stroke-width: 1.038;
stroke-linecap: round;
stroke-linejoin: round;
}
.gi_51{
fill: #DEDAD3;
}
.gj_51{
fill: #29263F;
}
.gk_51{
fill: #E15F46;
stroke: #2D2A4A;
stroke-width: 1.038;
stroke-linecap: round;
stroke-linejoin: round;
}
.gl_51{
fill: #F0F5FA;
}
.gm_51{
fill: none;
stroke: #7CA7D8;
stroke-width: 1.527;
stroke-linecap: round;
stroke-linejoin: round;
stroke-dasharray: 0,5;
}
.gn_51{
fill: none;
stroke: #7CA7D8;
stroke-width: 1.527;
stroke-linecap: round;
stroke-linejoin: round;
}
.go_51{
fill: #7CA7D8;
}
.gp_51{
fill: #BFD62F;
}
.gq_51{
fill: #3D3B39;
}
.gr_51{
fill: #F5CA58;
}
.gs_51{
fill: none;
stroke: #FFF;
stroke-width: 1.909;
stroke-miterlimit: 10;
}
.gt_51{
fill: none;
stroke: #000;
stroke-width: 0.381;
stroke-miterlimit: 10;
}
]]></style>
</defs>
<path clip-path="url(#c0_51)" d="M-877.3,1344.3H45.1V32.1H-877.3V1344.3Z" class="g0_51"/>
<path d="M170.7,166.3c0,0,-17.4,0,-17.4,17.4V381.2c0,0,0,17.3,17.4,17.3H850.6c0,0,17.3,0,17.3,-17.3V183.7c0,0,0,-17.4,-17.3,-17.4Z" class="g1_51"/>
<path d="M544.3,1028.1c0,0,-4.3,0,-4.3,4.3v10.9c0,0,0,4.3,4.3,4.3h30.3c0,0,4.3,0,4.3,-4.3v-10.9c0,0,0,-4.3,-4.3,-4.3Z" class="g2_51"/>
<path d="M531.1,1020.6v54.9m1.3,.9h333m1,-1.3v-54.9m-1.4,-1H532.1" class="g3_51"/>
<path d="M531.1,1075.9v.5h.6m334.1,0h.6v-.5m0,-56.1v-.6h-.6m-334.1,0h-.6v.6" class="g4_51"/>
<path d="M166.7,806.4c0,0,-13,0,-13,13v181.1c0,0,0,13,13,13H854.5c0,0,13,0,13,-13V819.4c0,0,0,-13,-13,-13Z" class="g0_51"/>
<path d="M166.7,806.4c0,0,-13,0,-13,13v181.1c0,0,0,13,13,13H854.5c0,0,13,0,13,-13V819.4c0,0,0,-13,-13,-13H166.7Z" class="g5_51"/>
<path d="M273.4,946.4H601.2M273.4,998.3H601.2" class="g6_51"/>
<path d="M166.7,488.5c0,0,-13,0,-13,13V778.7c0,0,0,13,13,13H854.5c0,0,13,0,13,-13V501.5c0,0,0,-13,-13,-13Z" class="g7_51"/>
<path d="M166.7,488.5c0,0,-13,0,-13,13V778.7c0,0,0,13,13,13H854.5c0,0,13,0,13,-13V501.5c0,0,0,-13,-13,-13H166.7Z" class="g5_51"/>
<path d="M405,577.2h98.9M340.4,677.8h98.9M305.8,754h98.9" class="g8_51"/>
<path d="M705.1,605.5c0,0,-4.4,0,-4.4,4.3v14.4c0,0,0,4.3,4.1,5.8l43.8,16c0,0,4.1,1.5,4.1,-2.9V609.8c0,0,0,-4.3,-4.3,-4.3Z" class="g9_51"/>
<path d="M726.2,592.7c0,0,-13,0,-13,13v97.6c0,0,0,13,13,13h89.7c0,0,13,0,13,-13V605.7c0,0,0,-13,-13,-13Z" class="ga_51"/>
<path d="M705.1,603.3c0,0,-4.4,0,-4.4,4.4v16.9c0,0,0,4.3,4.4,4.3h37.3c0,0,4.3,0,4.3,-4.3V607.7c0,0,0,-4.4,-4.3,-4.4Z" class="gb_51"/>
<path d="M621.9,742.7c0,0,-4.3,0,-4.3,4.3v10.9c0,0,0,4.3,4.3,4.3h30.3c0,0,4.4,0,4.4,-4.3V747c0,0,0,-4.3,-4.4,-4.3Z" class="g2_51"/>
<path d="M608.7,735.2v34.9m1.4,.9H851.5m.9,-1.3V734.8m-1.3,-1H609.7" class="g3_51"/>
<path d="M608.7,770.5v.5h.6m242.6,0h.5v-.5m0,-36.1v-.6h-.5m-242.6,0h-.6v.6" class="g4_51"/>
<path d="M234.5,404.5c0,0,-12.9,0,-12.9,13v47.7c0,0,0,12.9,12.9,12.9H854.9c0,0,13,0,13,-12.9V417.5c0,0,0,-13,-13,-13Z" class="gc_51"/>
<image clip-path="url(#c1_51)" preserveAspectRatio="none" x="177" y="401" width="75" height="76" xlink:href="img/1.png"/>
<path d="M229.3,470.8c0,0,-26.8,11.3,-51.1,-12.8c0,0,15.2,25.3,49.3,24c0,0,24.8,.3,20.3,-10.1c0,0,1.2,-4.5,-18.5,-1.1Z" class="gc_51"/>
<path d="M224.9,847.1c0,0,-12.9,0,-12.9,13v21.7c0,0,0,13,12.9,13H839.6c0,0,13,0,13,-13V860.1c0,0,0,-13,-13,-13Z" class="gc_51"/>
<image clip-path="url(#c2_51)" preserveAspectRatio="none" x="168" y="817" width="75" height="77" xlink:href="img/2.png"/>
<path d="M219.7,887.4c0,0,-26.8,11.3,-51.1,-12.8c0,0,15.2,25.4,49.3,24c0,0,24.8,.3,20.3,-10.1c0,0,1.2,-4.5,-18.5,-1.1Z" class="gc_51"/>
<path d="M153.3,109.5v39L165,158.7V136.5Z" class="gd_51"/>
<path d="M153.3,109.5v39H851.1c0,0,16.8,0,16.8,-16.8v-5.4c0,0,0,-16.8,-16.8,-16.8Z" class="g2_51"/>
<path d="M790.4,131c0,0,-.5,-10,8.6,-9.4c0,0,6.8,-.3,6.7,9.5m-15.3,-1.5v6.5c0,0,-3.4,.3,-3.9,-3c0,0,-.1,-3.8,3.9,-3.5Zm15.3,0v6.5c0,0,3.4,.3,4,-3c0,0,0,-3.8,-4,-3.5Z" class="ge_51"/>
<path d="M169,140.8h61v-32H169v32Z" class="gf_51"/>
<path d="M169,143.1h61v-2.3H169v2.3Z" class="gf_51"/>
<path d="M193.5,106.2H173.8v31.5h25.7V112.3c0,-3.4,-2.7,-6.1,-6,-6.1Z" class="g7_51"/>
<path d="M193.5,106.2v-.5H173.8c-.2,0,-.3,.1,-.4,.2c-.1,.1,-.2,.2,-.2,.3v31.5c0,.1,.1,.3,.2,.4c.1,.1,.2,.1,.4,.1h25.7c.2,0,.3,0,.4,-.1c.1,-.1,.1,-.3,.1,-.4V112.3c0,-3.7,-2.9,-6.6,-6.5,-6.6v1c1.5,0,2.9,.7,3.9,1.7c1,1,1.6,2.3,1.6,3.9v24.9H174.3V106.7h19.2Z" class="gg_51"/>
<path d="M173.8,131.7v6h25.7c0,-3.3,-2.7,-6,-6,-6Z" class="g7_51"/>
<path d="M173.8,131.7h-.6v6c0,.1,.1,.3,.2,.4c.1,.1,.2,.1,.4,.1h25.7c.2,0,.3,0,.4,-.1c.1,-.1,.1,-.3,.1,-.4c0,-3.6,-2.9,-6.6,-6.5,-6.6H173.8c-.2,0,-.3,.1,-.4,.2c-.1,.1,-.2,.2,-.2,.4h.6v.5h19.7c1.5,0,2.9,.6,3.9,1.6c1,1,1.6,2.4,1.6,3.9h.5v-.5H174.3v-5.5h-.5v.5Z" class="gg_51"/>
<path d="M177.3,110.9h17.2m-17.2,2.8h17.2m-17.2,2.9h17.2m-17.2,2.9h17.2m-17.2,2.8h17.2m-17.2,2.9h17.2M177.3,128h17.2" class="gh_51"/>
<path d="M193.5,132.2H174.3v5H199c-.1,-1.3,-.7,-2.5,-1.6,-3.4c-1,-1,-2.4,-1.6,-3.9,-1.6Z" class="gi_51"/>
<path d="M174.3,132.2h19.2c1.5,0,2.9,.6,3.9,1.6c.9,.9,1.5,2.1,1.6,3.4H174.3Zm19.2,-.5H173.8v6H199v-2.5c-.9,-2.1,-3.1,-3.5,-5.5,-3.5Z" class="gj_51"/>
<path d="M205.6,106.2h19.7v31.5H199.5V112.3c0,-3.4,2.7,-6.1,6.1,-6.1Z" class="g7_51"/>
<path d="M205.6,106.2v.5h19.2v30.5H200V112.3c0,-1.6,.7,-2.9,1.7,-3.9c1,-1,2.3,-1.7,3.9,-1.7v-1c-3.7,0,-6.6,2.9,-6.6,6.6v25.4c0,.1,.1,.3,.2,.4c0,.1,.2,.1,.3,.1h25.8c.1,0,.2,0,.3,-.1c.1,-.1,.2,-.3,.2,-.4V106.2c0,-.1,-.1,-.2,-.2,-.3c-.1,-.1,-.2,-.2,-.3,-.2H205.6Z" class="gg_51"/>
<path d="M225.3,131.7v6H199.5c0,-3.3,2.7,-6,6.1,-6Z" class="g7_51"/>
<path d="M225.3,131.7h-.5v5.5H199.5v.5h.5c0,-1.5,.7,-2.9,1.7,-3.9c1,-1,2.3,-1.6,3.9,-1.6h19.7v-.5h-.5h.5v-.6H205.6c-3.7,0,-6.6,3,-6.6,6.6c0,.1,.1,.3,.2,.4c0,.1,.2,.1,.3,.1h25.8c.1,0,.2,0,.3,-.1c.1,-.1,.2,-.3,.2,-.4v-6c0,-.2,-.1,-.3,-.2,-.4c-.1,-.1,-.2,-.2,-.3,-.2Z" class="gg_51"/>
<path d="M221.8,110.9H204.6m17.2,2.8H204.6m17.2,2.9H204.6m17.2,2.9H204.6m17.2,2.8H204.6m17.2,2.9H204.6m17.2,2.8H204.6" class="gh_51"/>
<path clip-path="url(#c3_51)" d="M200.1,137.2h24.7v-5H200.1v5Z" class="gi_51"/>
<path clip-path="url(#c4_51)" d="M200.1,137.2c.1,-1.3,.7,-2.5,1.6,-3.4c1,-1,2.3,-1.6,3.9,-1.6h19.2v5Zm25.2,-5.5H205.6c-3.4,0,-6.1,2.7,-6.1,6h25.8v-6h-.5h.5Z" class="gj_51"/>
<path d="M199.5,108.8v34.3" class="gh_51"/>
<path d="M217.2,145.5h3.3V134.7h-3.3v10.8Z" class="gk_51"/>
<path d="M154.1,1243.9h713V1121h-713v122.9Z" class="gl_51"/>
<path d="M154.1,1125.6v116m4.6,2.3H864.9m2.2,-4.5V1123.3m-4.5,-2.3H156.4" class="gm_51"/>
<path d="M154.1,1243.9v0m713.1,0v0m0,-122.9v0m-713.1,0v0" class="gn_51"/>
<path d="M153.3,1124.3v-28.7c0,0,0,-8.6,8.7,-8.6H859.3c0,0,8.6,0,8.6,8.6v29.2Z" class="go_51"/>
<path d="M195.5,1091.1c3.4,0,6.1,-2.8,6.1,-6.1c0,-3.4,-2.7,-6.1,-6.1,-6.1c-3.4,0,-6.1,2.7,-6.1,6.1c0,3.3,2.7,6.1,6.1,6.1Z" class="gp_51"/>
<path d="M195.5,1093c4.4,0,8,-3.6,8,-8c0,-4.5,-3.6,-8.1,-8,-8.1c-4.4,0,-8,3.6,-8,8.1c0,4.4,3.6,8,8,8m0,-14.1c3.4,0,6.1,2.7,6.1,6.1c0,3.3,-2.7,6.1,-6.1,6.1c-3.4,0,-6.1,-2.8,-6.1,-6.1c0,-3.4,2.7,-6.1,6.1,-6.1Z" class="gq_51"/>
<path d="M180.9,1107.1h29.2v-3.8c0,-4.4,-3.5,-8,-7.9,-8H188.8c-4.3,0,-7.9,3.6,-7.9,8Z" class="gp_51"/>
<path d="M172.6,1112.4h45.8V1109H172.6v3.4Z" class="g7_51"/>
<path d="M219.4,1107.1h-2.7v-11.6c0,-.2,-.1,-.5,-.3,-.6l-2.6,-2.6c.3,-.6,.5,-1.2,.5,-1.8c0,-2,-1.6,-3.6,-3.6,-3.6c-2,0,-3.6,1.6,-3.6,3.6c0,2,1.6,3.6,3.6,3.6c.7,0,1.3,-.2,1.8,-.5l2.3,2.3v11.2H212v-3.8c0,-5.5,-4.4,-9.9,-9.8,-9.9H188.8c-5.4,0,-9.8,4.4,-9.8,9.9v3.8h-7.4c-.5,0,-.9,.4,-.9,.9v5.4c0,.5,.4,.9,.9,.9h2.7v11.3c0,.6,.4,1,.9,1h40.6c.5,0,.9,-.4,.9,-1v-11.3h2.7c.5,0,.9,-.4,.9,-.9V1108c0,-.5,-.4,-.9,-.9,-.9m-8.7,-14.9c-.9,0,-1.7,-.8,-1.7,-1.7c0,-.9,.8,-1.7,1.7,-1.7c.9,0,1.7,.8,1.7,1.7c0,.9,-.8,1.7,-1.7,1.7m7.7,20.2H172.6V1109h45.8Zm-3.6,12.3H176.2v-10.4h38.6v10.4Zm-26,-29.4h13.4c4.4,0,7.9,3.6,7.9,8v3.8H180.9v-3.8c0,-4.4,3.6,-8,7.9,-8Z" class="gq_51"/>
<path d="M176.2,1124.7h38.6v-10.4H176.2v10.4Zm2.8,-7.6c0,-.2,.2,-.4,.5,-.4h32c.3,0,.5,.2,.5,.4v4.8c0,.2,-.2,.4,-.5,.4h-32c-.3,0,-.5,-.2,-.5,-.4Z" class="g7_51"/>
<path d="M180,1121.4h31v-3.8H180v3.8Z" class="gr_51"/>
<path d="M179.5,1122.3h32c.3,0,.5,-.2,.5,-.4v-4.8c0,-.2,-.2,-.4,-.5,-.4h-32c-.3,0,-.5,.2,-.5,.4v4.8c0,.2,.2,.4,.5,.4m.5,-4.7h31v3.8H180Z" class="gq_51"/>
<path d="M212.4,1090.5c0,-.9,-.8,-1.7,-1.7,-1.7c-.9,0,-1.7,.8,-1.7,1.7c0,.9,.8,1.7,1.7,1.7c.9,0,1.7,-.8,1.7,-1.7Z" class="g7_51"/>
<path d="M32.1,45.1H9.2m958.3,0h22.9M32.1,1331.3H9.2m958.3,0h22.9M45.1,32.1V9.2m0,1335.1v22.9M954.5,32.1V9.2m0,1335.1v22.9" class="gs_51"/>
<path d="M32.1,45.1H9.2m958.3,0h22.9M32.1,1331.3H9.2m958.3,0h22.9M45.1,32.1V9.2m0,1335.1v22.9M954.5,32.1V9.2m0,1335.1v22.9" class="gt_51"/>
<path d="M27.5,32.1H0m972.1,0h27.5M27.5,1344.3H0m972.1,0h27.5M32.1,27.5V0m0,1348.9v27.5M967.5,27.5V0m0,1348.9v27.5" class="gs_51"/>
<path d="M27.5,32.1H0m972.1,0h27.5M27.5,1344.3H0m972.1,0h27.5M32.1,27.5V0m0,1348.9v27.5M967.5,27.5V0m0,1348.9v27.5" class="gt_51"/>
</svg>