<?xml version="1.0" encoding="UTF-8" standalone="no"?>
<!DOCTYPE svg PUBLIC "-//W3C//DTD SVG 1.1//EN"
"http://www.w3.org/Graphics/SVG/1.1/DTD/svg11.dtd">
<svg viewBox="0 0 999 1376" version="1.1" xmlns="http://www.w3.org/2000/svg" xmlns:xlink="http://www.w3.org/1999/xlink">
<defs>
<clipPath id="c0_221"><path d="M153.3,1243.8V130.8H867.9v1113Z"/></clipPath>
<style type="text/css"><![CDATA[
.g0_221{
fill: #FFF;
}
.g1_221{
fill: none;
stroke: #231F20;
stroke-width: 0.756;
stroke-miterlimit: 3;
}
.g2_221{
fill: #93BEDA;
}
.g3_221{
fill: #F7C2D9;
}
.g4_221{
fill: #CBB84F;
}
.g5_221{
fill: #A164A9;
}
.g6_221{
fill: none;
stroke: #231F20;
stroke-width: 0.432;
}
.g7_221{
fill: #231F20;
}
.g8_221{
fill: #25408F;
}
.g9_221{
fill: #6381B7;
}
.ga_221{
fill: #FFDE2C;
}
.gb_221{
fill: none;
stroke: #231F20;
stroke-width: 1.451;
stroke-miterlimit: 10;
}
.gc_221{
fill: #D2D3D5;
}
.gd_221{
fill: #A8AAAD;
}
.ge_221{
fill: none;
stroke: #231F20;
stroke-width: 0.828;
stroke-miterlimit: 10;
}
.gf_221{
fill: #6CCFF6;
}
.gg_221{
fill: none;
stroke: #231F20;
stroke-width: 0.828;
stroke-linecap: round;
stroke-linejoin: round;
}
.gh_221{
fill: none;
stroke: #231F20;
stroke-width: 1.451;
stroke-linecap: round;
stroke-linejoin: round;
}
.gi_221{
fill: none;
stroke: #FFF;
stroke-width: 1.909;
stroke-miterlimit: 10;
}
.gj_221{
fill: none;
stroke: #000;
stroke-width: 0.381;
stroke-miterlimit: 10;
}
]]></style>
</defs>
<path d="M153.3,1243.8H867.9V130.8H153.3v1113Z" class="g0_221"/>
<image clip-path="url(#c0_221)" preserveAspectRatio="none" x="151" y="129" width="719" height="1117" xlink:href="img/1.jpg"/>
<path d="M402.8,167v11.7c0,1,-.2,1.7,-.6,2.3c-.3,.5,-.7,1,-1.1,1.3c.5,.1,.9,.3,1.1,.7c.2,.3,.3,.8,.3,1.3l-.2,7.4h-2.1v-6.9c0,-.2,0,-.4,-.1,-.6c-.1,-.1,-.3,-.2,-.6,-.2H386.8v-1.8h12.4c.4,-.4,.7,-.9,.9,-1.5c.3,-.6,.4,-1.2,.4,-1.8V167h2.3Zm-18.9,.4h8.6c.4,0,.7,.1,1,.2c.2,.2,.4,.4,.4,.6c.1,.2,.2,.4,.2,.6c0,.3,0,.5,0,.7c-.2,.8,-.5,1.5,-.9,2.2c-.4,.8,-.8,1.5,-1.4,2.2c.6,.1,1.2,.3,1.6,.6c.3,.3,.7,.6,1,.9c.4,.4,.8,.9,1.3,1.5c.4,.5,.9,1,1.2,1.5l-1.4,1.4c-.3,-.3,-.5,-.6,-.7,-.8c-.2,-.3,-.4,-.5,-.6,-.8c-.2,-.2,-.4,-.5,-.6,-.7c-.2,-.2,-.4,-.5,-.7,-.8c-.3,-.3,-.6,-.6,-1,-.8c-.3,-.3,-.8,-.5,-1.3,-.6c-.9,.9,-1.9,1.7,-3,2.4c-1.1,.8,-2.3,1.5,-3.6,2l-.9,-1.8c2.3,-1,4.1,-2.2,5.5,-3.6c1.3,-1.3,2.4,-2.7,3.1,-4.3c.1,-.3,.1,-.5,0,-.6c-.1,-.2,-.3,-.2,-.6,-.2h-7.2v-1.8Zm41.4,-.4v6.1h4.3v1.7h-4.3v3c0,1,-.1,1.9,-.4,2.7c-.3,.8,-.9,1.5,-1.7,2.2c.5,.5,.9,1.1,1.2,1.8c.2,.6,.4,1.3,.4,2.1c0,.8,-.2,1.6,-.5,2.3c-.4,.7,-.9,1.3,-1.4,1.8c-.6,.5,-1.3,.9,-2.1,1.2c-.7,.3,-1.6,.4,-2.4,.4c-.9,0,-1.7,-.1,-2.5,-.4c-.8,-.3,-1.5,-.7,-2,-1.2c-.6,-.5,-1.1,-1.1,-1.4,-1.8c-.4,-.7,-.5,-1.5,-.5,-2.3c0,-.9,.1,-1.6,.5,-2.4c.3,-.7,.8,-1.3,1.4,-1.8c.5,-.5,1.2,-.9,2,-1.2c.8,-.3,1.6,-.4,2.5,-.4c.6,0,1.2,0,1.8,.2c.5,.2,1.1,.4,1.6,.6c.5,-.6,.9,-1.2,1,-1.8c.2,-.7,.3,-1.4,.3,-2.1V167h2.2Zm-18.1,.4h8.5c.4,0,.7,.1,1,.2c.2,.2,.4,.4,.5,.6c.1,.2,.1,.4,.1,.6c0,.3,0,.5,0,.7c-.2,.8,-.4,1.5,-.8,2.2c-.3,.7,-.7,1.4,-1.1,2c.5,.2,1,.4,1.3,.6c.3,.2,.6,.5,.9,.8c.4,.5,.9,1,1.3,1.5c.5,.6,.9,1.1,1.3,1.6l-1.5,1.3c-.3,-.3,-.5,-.5,-.7,-.8c-.2,-.2,-.4,-.5,-.6,-.7c-.2,-.3,-.4,-.5,-.6,-.8c-.2,-.2,-.4,-.5,-.6,-.7c-.3,-.3,-.6,-.6,-.9,-.8c-.3,-.2,-.7,-.4,-1.1,-.5c-.9,.9,-1.9,1.9,-3.1,2.7c-1.2,.8,-2.5,1.6,-3.8,2.2l-1,-1.8c2.3,-1,4.1,-2.2,5.5,-3.6c1.4,-1.4,2.4,-3,3.1,-4.7c.1,-.3,.1,-.5,0,-.6c-.1,-.2,-.3,-.2,-.6,-.2h-7.1v-1.8Zm14.2,16.3c-.8,-.8,-1.8,-1.2,-3,-1.2c-1.2,0,-2.2,.4,-3,1.2c-.8,.7,-1.2,1.7,-1.2,2.9c0,1.1,.4,2.1,1.2,2.8c.8,.8,1.8,1.1,3,1.1c1.2,0,2.2,-.3,3,-1.1c.8,-.7,1.1,-1.7,1.1,-2.8c0,-1.2,-.3,-2.2,-1.1,-2.9Zm24.4,5.6V176.8h-3.4c-.2,1.9,-.8,3.4,-1.8,4.6c-.9,1.1,-2.2,1.7,-3.9,1.7c-1.8,0,-3.2,-.7,-4.1,-2c-1,-1.4,-1.5,-3.1,-1.5,-5.3c0,-2.1,.5,-3.9,1.5,-5.3c1,-1.3,2.4,-2,4.1,-2c1.7,0,3,.6,4,1.8c.9,1.1,1.5,2.7,1.7,4.6h3.4v-7.6H448v22h-2.2Zm-5.7,-15.5c-.2,-.7,-.4,-1.2,-.6,-1.7c-.3,-.5,-.7,-1,-1.1,-1.3c-.5,-.3,-1,-.4,-1.7,-.4c-.6,0,-1.2,.1,-1.6,.4c-.5,.3,-.8,.8,-1.1,1.3c-.3,.5,-.5,1,-.6,1.7c-.1,.6,-.2,1.3,-.2,2c0,.7,.1,1.4,.2,2c.1,.7,.3,1.2,.6,1.7c.3,.5,.6,1,1.1,1.2c.4,.3,1,.5,1.6,.5c.7,0,1.2,-.2,1.7,-.5c.4,-.2,.8,-.7,1.1,-1.2c.2,-.5,.4,-1,.6,-1.7c.1,-.6,.2,-1.3,.2,-2c0,-.7,-.1,-1.4,-.2,-2Zm10.8,-6.5h2.2v22.6h-2.2V167.3ZM468.4,174.3H474v-7h2.3v22.5H474V176.3h-5.6v-2Zm-4.8,-6.5c.2,.7,.4,1.4,.5,2.2c.2,.8,.3,1.6,.3,2.4c0,.7,-.1,1.4,-.2,2c-.1,.7,-.2,1.3,-.4,1.9c.6,.2,1.2,.4,1.7,.7c.5,.3,.8,.6,1.1,1c.6,.8,1.1,1.6,1.8,2.6c.7,1,1.3,2.1,2.1,3.2l-1.8,1.3c-.3,-.5,-.6,-1,-1,-1.6c-.3,-.5,-.7,-1.1,-1,-1.6c-.3,-.5,-.7,-1,-1,-1.5c-.3,-.4,-.5,-.8,-.8,-1.1c-.2,-.2,-.4,-.4,-.7,-.7c-.3,-.2,-.7,-.3,-1.2,-.5c-.6,1.3,-1.4,2.5,-2.4,3.6c-1,1.2,-2.3,2.3,-3.7,3.4l-1.3,-1.8c2.3,-1.6,3.9,-3.3,4.9,-5.2c1,-1.8,1.5,-3.7,1.5,-5.6c0,-.6,0,-1.3,-.1,-2c-.2,-.7,-.3,-1.3,-.6,-1.9l2.3,-.8Zm29.7,8.6c-.4,.8,-.8,1.4,-1.4,1.9c-.6,.6,-1.3,1,-2.1,1.3c-.8,.3,-1.6,.4,-2.6,.4c-1,0,-1.8,-.1,-2.7,-.4c-.8,-.3,-1.5,-.7,-2,-1.3c-.6,-.5,-1.1,-1.1,-1.4,-1.9c-.3,-.8,-.5,-1.7,-.5,-2.6c0,-.9,.2,-1.8,.5,-2.5c.3,-.8,.8,-1.5,1.4,-2c.6,-.6,1.3,-1,2.1,-1.3c.8,-.3,1.6,-.4,2.6,-.4c1,0,1.8,.1,2.6,.4c.8,.3,1.5,.7,2.1,1.3c.6,.5,1,1.2,1.4,2c.3,.7,.5,1.6,.5,2.5c0,.9,-.2,1.8,-.5,2.6Zm6.4,13.4h-2.2v-5.5c-1.2,.6,-2.4,1.1,-3.7,1.4c-1.2,.3,-2.7,.5,-4.4,.5h-9.8v-1.9h9.8c1.4,0,2.8,-.1,4.1,-.4c1.3,-.3,2.6,-.9,4,-1.8V167.3h2.2v22.5Zm-9.4,-19.2c-.8,-.8,-1.8,-1.2,-3.1,-1.2c-1.2,0,-2.3,.4,-3.1,1.2c-.8,.8,-1.2,1.8,-1.2,3.2c0,1.5,.4,2.6,1.2,3.3c.8,.7,1.9,1.1,3.1,1.1c1.3,0,2.3,-.4,3.1,-1.1c.8,-.7,1.2,-1.8,1.2,-3.3c0,-1.4,-.4,-2.4,-1.2,-3.2ZM529.9,167v11.1c0,.8,-.1,1.6,-.3,2.5c-.3,.8,-.8,1.6,-1.6,2.3c.4,.5,.8,1.1,1.1,1.7c.2,.6,.4,1.3,.4,2.1c0,.8,-.2,1.6,-.5,2.3c-.4,.7,-.9,1.3,-1.4,1.8c-.6,.5,-1.3,.8,-2.1,1.1c-.7,.3,-1.6,.4,-2.4,.4c-.9,0,-1.7,-.1,-2.5,-.4c-.8,-.3,-1.5,-.6,-2,-1.1c-.6,-.5,-1.1,-1.1,-1.4,-1.8c-.4,-.7,-.5,-1.5,-.5,-2.3c0,-.8,.1,-1.6,.5,-2.3c.3,-.7,.8,-1.3,1.4,-1.8c.5,-.5,1.2,-.9,2,-1.2c.8,-.3,1.6,-.4,2.5,-.4c.6,0,1.2,.1,1.8,.2c.6,.2,1.1,.4,1.6,.6c.3,-.3,.5,-.6,.7,-.9c.1,-.3,.2,-.7,.3,-1c.1,-.3,.1,-.7,.1,-1c0,-.3,0,-.6,0,-1V167h2.3Zm-18.8,1.6h3.8c.2,-.4,.4,-.7,.5,-1c0,-.3,.1,-.6,.1,-.9c0,-.3,-.1,-.6,-.1,-.8c-.1,-.2,-.1,-.4,-.2,-.6l2.1,-.5c.2,.3,.2,.5,.3,.8c0,.3,0,.6,0,1c0,.3,0,.7,-.2,1c-.1,.3,-.2,.7,-.4,1h3.1c.7,0,1.2,.2,1.4,.6c.3,.4,.3,.8,.2,1.4c-.1,.7,-.4,1.4,-.7,2.1c-.4,.6,-.7,1.2,-1.2,1.9c.6,.1,1,.2,1.3,.5c.4,.2,.7,.5,1,.8c.4,.4,.7,.8,1.1,1.3c.4,.4,.8,.9,1.3,1.4l-1.5,1.3c-.3,-.3,-.5,-.5,-.7,-.8c-.2,-.2,-.4,-.4,-.5,-.6c-.2,-.2,-.4,-.4,-.5,-.6c-.2,-.2,-.4,-.4,-.5,-.6c-.2,-.1,-.3,-.3,-.4,-.4c-.1,-.1,-.3,-.2,-.4,-.3c-.2,-.2,-.4,-.3,-.6,-.4c-.2,-.1,-.4,-.2,-.7,-.3c-1,1,-2,1.9,-3.2,2.7c-1.3,.8,-2.6,1.5,-4.1,2.1l-.9,-2c2.4,-.9,4.3,-2,5.8,-3.4c1.5,-1.3,2.6,-2.7,3.1,-4.3c.1,-.3,.1,-.4,0,-.5c-.1,-.1,-.2,-.2,-.5,-.2h-7.8v-1.7Zm15,15.3c-.8,-.8,-1.8,-1.1,-3,-1.1c-1.2,0,-2.2,.3,-3,1.1c-.8,.7,-1.2,1.6,-1.2,2.8c0,1.2,.4,2.1,1.2,2.8c.8,.7,1.8,1,3,1c1.2,0,2.2,-.3,3,-1c.8,-.7,1.1,-1.6,1.1,-2.8c0,-1.2,-.3,-2.1,-1.1,-2.8Zm8.2,-15h3.9c.2,-.4,.3,-.8,.4,-1.2c.1,-.3,.1,-.7,.1,-1c0,-.1,0,-.3,-.1,-.5c0,-.2,0,-.4,-.1,-.5l2.2,-.6c.1,.2,.1,.4,.1,.5c.1,.2,.1,.3,.1,.4c0,.1,0,.2,0,.4v.3c0,.4,-.1,.8,-.2,1.1c-.1,.4,-.2,.8,-.4,1.1h3.2c.8,0,1.2,.2,1.4,.6c.1,.4,.2,.9,.1,1.3c-.2,.8,-.4,1.5,-.8,2.3c-.3,.7,-.8,1.4,-1.3,2.1c.6,.1,1.1,.3,1.6,.6c.4,.2,.8,.6,1.1,1c.3,.3,.5,.5,.6,.7c.2,.3,.4,.5,.6,.7c.2,.2,.3,.5,.5,.7c.2,.3,.4,.5,.6,.8l-1.5,1.3c-.2,-.2,-.4,-.5,-.6,-.8c-.2,-.2,-.4,-.5,-.6,-.7c-.2,-.2,-.3,-.4,-.5,-.7c-.2,-.2,-.4,-.4,-.6,-.6c-.3,-.4,-.6,-.7,-1,-1c-.3,-.2,-.8,-.5,-1.4,-.6c-.9,.9,-1.9,1.8,-3.1,2.6c-1.2,.8,-2.5,1.5,-4,2.1l-.9,-1.9c1.1,-.4,2.2,-1,3.2,-1.6c1,-.7,1.9,-1.3,2.7,-2.1c.7,-.7,1.4,-1.4,1.9,-2.2c.5,-.8,.9,-1.6,1.1,-2.3c.1,-.2,.1,-.4,0,-.4c-.1,-.1,-.2,-.2,-.4,-.2h-7.9v-1.7Zm22.7,7.2h-4.2v7.8h-2.3V167h2.3v7.2H557v1.9Zm-17,15.3c-.8,0,-1.4,-.2,-1.8,-.5c-.4,-.4,-.6,-.9,-.6,-1.6v-6.7h2.3v6.2c0,.3,0,.5,.1,.6c.1,.2,.4,.2,.7,.2h7.1c1.1,0,2,0,2.9,-.2c.8,-.1,1.7,-.3,2.6,-.6l.5,1.7c-1,.3,-2,.6,-3,.7c-.9,.2,-1.9,.2,-2.9,.2H540ZM569.9,168v9c0,.3,.1,.5,.2,.6c.2,.2,.4,.3,.7,.3h5.8c1.1,0,2.2,-.1,3.3,-.2c1.1,-.2,2.2,-.4,3.3,-.7l.4,1.8c-1.1,.3,-2.2,.5,-3.4,.7c-1.2,.1,-2.4,.2,-3.5,.2h-.1V185h9.7v1.9H565V185h9.3v-5.3h-3.9c-.9,0,-1.5,-.3,-2,-.7c-.5,-.4,-.7,-1,-.7,-1.8V168h2.2ZM601,181.9c-.3,.7,-.8,1.4,-1.3,1.9c-.6,.6,-1.3,1,-2,1.3c-.8,.2,-1.7,.4,-2.6,.4c-.9,0,-1.7,-.2,-2.5,-.4c-.8,-.3,-1.4,-.7,-2,-1.3c-.6,-.5,-1,-1.2,-1.3,-1.9c-.3,-.7,-.5,-1.5,-.5,-2.4c0,-.9,.2,-1.7,.5,-2.5c.3,-.7,.8,-1.3,1.4,-1.9c.5,-.5,1.2,-.9,2,-1.2c.7,-.3,1.6,-.4,2.4,-.4c1,0,1.9,.1,2.6,.5c.8,.3,1.5,.7,2,1.3c.6,.5,1,1.2,1.3,1.9c.3,.7,.5,1.5,.5,2.3c0,.9,-.2,1.7,-.5,2.4Zm11,-3.4h-4.3v11.3h-2.3V167.3h2.3v9.4H612v1.8Zm-13.9,-2c-.7,-.8,-1.7,-1.2,-3,-1.2c-1.2,0,-2.2,.4,-2.9,1.2c-.7,.8,-1.1,1.8,-1.1,3c0,1.2,.4,2.2,1.1,3c.7,.7,1.7,1.1,2.9,1.1c1.3,0,2.3,-.4,3,-1.1c.7,-.8,1,-1.8,1,-3c0,-1.2,-.3,-2.2,-1,-3Zm-4.7,-6.2c.2,-.4,.4,-.7,.5,-1c0,-.4,.1,-.7,.1,-1.1c0,-.2,0,-.4,-.1,-.8c0,-.2,-.1,-.6,-.2,-.9l2.3,-.7c.1,.4,.2,.7,.2,1c.1,.2,.1,.5,.1,.8c0,.7,-.1,1.2,-.2,1.6c-.1,.4,-.3,.8,-.5,1.1h6.9v1.8H587.7v-1.8h5.7Zm35.4,6.8c-1.4,1,-3.1,1.6,-5.4,1.6c-2.3,0,-4,-.6,-5.3,-1.6c-1.4,-1.1,-2,-2.5,-2,-4.3c0,-1.8,.6,-3.2,2,-4.3c1.3,-1,3,-1.6,5.3,-1.6c2.3,0,4,.6,5.4,1.6c1.3,1.1,1.9,2.5,1.9,4.3c0,1.8,-.6,3.2,-1.9,4.3ZM627,169.8c-1,-.7,-2.2,-1,-3.6,-1c-1.4,0,-2.6,.3,-3.6,1c-.9,.7,-1.4,1.7,-1.4,3c0,1.3,.5,2.3,1.4,3c1,.7,2.2,1,3.6,1c1.4,0,2.6,-.3,3.6,-1c1,-.7,1.5,-1.7,1.5,-3c0,-1.3,-.5,-2.3,-1.5,-3Zm-4.7,20.9v-7.4h-9.4v-1.8h21.3v1.8h-9.6v7.4h-2.3Z" class="g1_221"/>
<path d="M506.3,1071.9c104,0,188.4,-84.4,188.4,-188.4c0,-104,-84.4,-188.4,-188.4,-188.4c-104,0,-188.4,84.4,-188.4,188.4c0,104,84.4,188.4,188.4,188.4Z" class="g2_221"/>
<path d="M506.3,695.1c-104,0,-188.4,84.4,-188.4,188.4c0,104,84.4,188.4,188.4,188.4c15.2,0,30,-1.8,44.2,-5.2L506.3,883.5Z" class="g3_221"/>
<path d="M506.3,883.5V695.1c-104,0,-188.4,84.4,-188.4,188.4c0,12.2,1.2,24.2,3.4,35.7Z" class="g4_221"/>
<path d="M506.3,883.5V695.1c-17.3,0,-34,2.3,-49.9,6.7Z" class="g5_221"/>
<path d="M486.4,703.3V664.4H595.7" class="g6_221"/>
<path d="M602.4,664.4L593.2,661c0,0,2.5,3.4,0,6.7l9.2,-3.3Z" class="g7_221"/>
<path d="M654.4,800.4h70.2v6" class="g6_221"/>
<path d="M724.6,813.2l3.3,-9.2c0,0,-3.3,2.4,-6.7,0l3.4,9.2Z" class="g7_221"/>
<path d="M424,726.7H315.7V739" class="g6_221"/>
<path d="M315.7,745.8l3.4,-9.2c0,0,-3.4,2.4,-6.7,0l3.3,9.2Z" class="g7_221"/>
<path d="M387.4,973.6H333.6" class="g6_221"/>
<path d="M326.8,973.6l9.2,3.3c0,0,-2.4,-3.3,0,-6.7l-9.2,3.4Z" class="g7_221"/>
<path d="M153.3,126.3v22.2L165,158.7V136.5Z" class="g8_221"/>
<path d="M153.3,109.5v39H851.1c0,0,16.8,0,16.8,-16.8v-5.4c0,0,0,-16.8,-16.8,-16.8Z" class="g9_221"/>
<path d="M207.2,115.7c0,-9.1,-7.9,-16.6,-17.7,-16.6c-9.8,0,-17.7,7.5,-17.7,16.6c0,2.7,.6,5.2,1.8,7.4c1.2,2.4,2.9,4.6,5,6.2c1.2,1,1.6,1.7,1.7,4.3v.6c0,3.3,2.7,5.9,5.9,5.9h6.6c3.2,0,5.8,-2.6,5.8,-5.9v-.6c.2,-2.6,.6,-3.3,1.8,-4.3c2.1,-1.6,3.8,-3.8,5,-6.2c1.2,-2.2,1.8,-4.7,1.8,-7.4Z" class="ga_221"/>
<path d="M207.2,115.7c0,-9.1,-7.9,-16.6,-17.7,-16.6c-9.8,0,-17.7,7.5,-17.7,16.6c0,2.7,.6,5.2,1.8,7.4c1.2,2.4,2.9,4.6,5,6.2c1.2,1,1.6,1.7,1.7,4.3v.6c0,3.3,2.7,5.9,5.9,5.9h6.6c3.2,0,5.8,-2.6,5.8,-5.9v-.6c.2,-2.6,.6,-3.3,1.8,-4.3c2.1,-1.6,3.8,-3.8,5,-6.2c1.2,-2.2,1.8,-4.7,1.8,-7.4Z" class="gb_221"/>
<path d="M194.6,147.4c0,2.8,-2.3,5.1,-5.1,5.1c-2.8,0,-5.1,-2.3,-5.1,-5.1c0,-2.8,2.3,-5.1,5.1,-5.1c2.8,0,5.1,2.3,5.1,5.1Z" class="g0_221"/>
<path d="M194.6,147.4c0,2.8,-2.3,5.1,-5.1,5.1c-2.8,0,-5.1,-2.3,-5.1,-5.1c0,-2.8,2.3,-5.1,5.1,-5.1c2.8,0,5.1,2.3,5.1,5.1Z" class="gb_221"/>
<path d="M182.1,140.2c0,1,.8,1.8,1.8,1.8h11.2c1,0,1.8,-.8,1.8,-1.8v-1.3H182.1Z" class="g0_221"/>
<path d="M182.1,140.2c0,1,.8,1.8,1.8,1.8h11.2c1,0,1.8,-.8,1.8,-1.8v-1.3H182.1v1.3Z" class="gb_221"/>
<path d="M196.9,143.2c0,.8,-.6,1.3,-1.3,1.3H183.4c-.8,0,-1.3,-.5,-1.3,-1.3c0,-.7,.5,-1.3,1.3,-1.3h12.2c.7,0,1.3,.6,1.3,1.3Z" class="g0_221"/>
<path d="M196.9,143.2c0,.8,-.6,1.3,-1.3,1.3H183.4c-.8,0,-1.3,-.5,-1.3,-1.3c0,-.7,.5,-1.3,1.3,-1.3h12.2c.7,0,1.3,.6,1.3,1.3Z" class="gb_221"/>
<path d="M196.9,145.8c0,.7,-.6,1.3,-1.3,1.3H183.4c-.8,0,-1.3,-.6,-1.3,-1.3c0,-.7,.5,-1.3,1.3,-1.3h12.2c.7,0,1.3,.6,1.3,1.3Z" class="g0_221"/>
<path d="M196.9,145.8c0,.7,-.6,1.3,-1.3,1.3H183.4c-.8,0,-1.3,-.6,-1.3,-1.3c0,-.7,.5,-1.3,1.3,-1.3h12.2c.7,0,1.3,.6,1.3,1.3Z" class="gb_221"/>
<path d="M215.5,128.7l8.3,10.4c.6,.7,1.8,.6,2.7,-.2c.9,-.7,1.2,-1.9,.7,-2.6l-8.9,-10.2Z" class="gc_221"/>
<path d="M215.5,128.7l8.3,10.4c.6,.7,1.8,.6,2.7,-.2c.9,-.7,1.2,-1.9,.7,-2.6l-8.9,-10.2l-2.8,2.6Z" class="gb_221"/>
<path d="M217.5,125.1c.5,.6,.3,1.8,-.7,2.6c-.9,.7,-2.1,.8,-2.6,.2c-.6,-.7,-.3,-1.9,.6,-2.6c.9,-.8,2.1,-.9,2.7,-.2Z" class="gd_221"/>
<path d="M217.5,125.1c.5,.6,.3,1.8,-.7,2.6c-.9,.7,-2.1,.8,-2.6,.2c-.6,-.7,-.3,-1.9,.6,-2.6c.9,-.8,2.1,-.9,2.7,-.2Z" class="gb_221"/>
<path d="M212.7,124.7l1.7,2c.3,.3,1,.3,1.5,-.1c.5,-.5,.7,-1.1,.4,-1.5l-1.7,-2Z" class="g0_221"/>
<path d="M212.7,124.7l1.7,2c.3,.3,1,.3,1.5,-.1c.5,-.5,.7,-1.1,.4,-1.5l-1.7,-2l-1.9,1.6Z" class="ge_221"/>
<path d="M214.8,122.9c.4,.5,.2,1.3,-.5,1.8c-.6,.5,-1.4,.6,-1.8,.1c-.4,-.4,-.2,-1.2,.5,-1.7c.6,-.6,1.4,-.6,1.8,-.2Z" class="g0_221"/>
<path d="M214.8,122.9c.4,.5,.2,1.3,-.5,1.8c-.6,.5,-1.4,.6,-1.8,.1c-.4,-.4,-.2,-1.2,.5,-1.7c.6,-.6,1.4,-.6,1.8,-.2Z" class="ge_221"/>
<path d="M216.4,105.4c4.8,5.7,4.1,14.2,-1.7,19c-5.7,4.8,-14.2,4,-19,-1.7c-4.8,-5.7,-4,-14.2,1.7,-19c5.7,-4.8,14.2,-4.1,19,1.7Z" class="g0_221"/>
<path d="M216.4,105.4c4.8,5.7,4.1,14.2,-1.7,19c-5.7,4.8,-14.2,4,-19,-1.7c-4.8,-5.7,-4,-14.2,1.7,-19c5.7,-4.8,14.2,-4.1,19,1.7Z" class="gb_221"/>
<path d="M214,107.4c3.5,4.2,3,10.5,-1.3,14.1c-4.2,3.5,-10.5,2.9,-14,-1.3c-3.5,-4.2,-3,-10.5,1.2,-14c4.2,-3.6,10.5,-3,14.1,1.2Z" class="gf_221"/>
<path d="M214,107.4c3.5,4.2,3,10.5,-1.3,14.1c-4.2,3.5,-10.5,2.9,-14,-1.3c-3.5,-4.2,-3,-10.5,1.2,-14c4.2,-3.6,10.5,-3,14.1,1.2Z" class="gb_221"/>
<path d="M213,110.6l-3.1,3m3.1,-.4l-3.1,3" class="gg_221"/>
<path d="M172.1,99l3.1,3.3m1.1,-5.9l1.2,3.9m-8.1,3l3.7,1.2" class="gh_221"/>
<path d="M185.8,106.1c1.2,1.2,.2,4.3,-2.2,6.7c-2.5,2.5,-5.5,3.5,-6.8,2.3c-1.2,-1.3,-.3,-4.3,2.2,-6.8c2.5,-2.5,5.5,-3.5,6.8,-2.2Z" class="g0_221"/>
<path d="M203.7,107.6c.6,.6,.1,1.9,-.9,3c-1.1,1,-2.4,1.5,-3,.9c-.5,-.5,-.1,-1.8,1,-2.9c1.1,-1.1,2.4,-1.5,2.9,-1Z" class="g0_221"/>
<path d="M32.1,45.1H9.2m958.3,0h22.9M32.1,1331.3H9.2m958.3,0h22.9M45.1,32.1V9.2m0,1335.1v22.9M954.5,32.1V9.2m0,1335.1v22.9" class="gi_221"/>
<path d="M32.1,45.1H9.2m958.3,0h22.9M32.1,1331.3H9.2m958.3,0h22.9M45.1,32.1V9.2m0,1335.1v22.9M954.5,32.1V9.2m0,1335.1v22.9" class="gj_221"/>
<path d="M27.5,32.1H0m972.1,0h27.5M27.5,1344.3H0m972.1,0h27.5M32.1,27.5V0m0,1348.9v27.5M967.5,27.5V0m0,1348.9v27.5" class="gi_221"/>
<path d="M27.5,32.1H0m972.1,0h27.5M27.5,1344.3H0m972.1,0h27.5M32.1,27.5V0m0,1348.9v27.5M967.5,27.5V0m0,1348.9v27.5" class="gj_221"/>
</svg>