<?xml version="1.0" encoding="UTF-8" standalone="no"?>
<!DOCTYPE svg PUBLIC "-//W3C//DTD SVG 1.1//EN"
"http://www.w3.org/Graphics/SVG/1.1/DTD/svg11.dtd">
<svg viewBox="0 0 999 1376" version="1.1" xmlns="http://www.w3.org/2000/svg" xmlns:xlink="http://www.w3.org/1999/xlink">
<defs>
<clipPath id="c0_339"><path d="M32.1,1344.3V32.1H967.5V1344.3Z"/></clipPath>
<clipPath id="c1_339"><path d="M201.7,197.4l-6.5,-2.1L178.8,181.4V124.3h72v73.1Z"/></clipPath>
<clipPath id="c2_339"><path d="M236.7,365.7V281.1h82.2v84.6Z"/></clipPath>
<clipPath id="c3_339"><path d="M368.8,367.3V276.9h90.4v90.4Z"/></clipPath>
<clipPath id="c4_339"><path d="M509,365V280.4h84.6V365Z"/></clipPath>
<clipPath id="c5_339"><path d="M646.2,365V280.4h84.6V365Z"/></clipPath>
<style type="text/css"><![CDATA[
.g0_339{
fill: #FEFCF4;
}
.g1_339{
fill: #FCE8B0;
}
.g2_339{
fill: #FFF;
}
.g3_339{
fill: none;
stroke: #6381B7;
stroke-width: 0.763;
}
.g4_339{
fill: #F0E8F3;
}
.g5_339{
fill: none;
stroke: #231F20;
stroke-width: 0.381;
stroke-miterlimit: 10;
}
.g6_339{
fill: #48484A;
}
.g7_339{
fill: #766FA6;
}
.g8_339{
fill: none;
stroke: #231F20;
stroke-width: 0.611;
}
.g9_339{
fill: #6381B7;
}
.ga_339{
fill: none;
stroke: #6381B7;
stroke-width: 0.381;
stroke-dasharray: 2,1;
}
.gb_339{
fill: none;
stroke: #6381B7;
stroke-width: 0.381;
}
.gc_339{
fill: none;
stroke: #FFF;
stroke-width: 1.909;
stroke-miterlimit: 10;
}
.gd_339{
fill: none;
stroke: #000;
stroke-width: 0.381;
stroke-miterlimit: 10;
}
]]></style>
</defs>
<path clip-path="url(#c0_339)" d="M-877.3,1343.2H45.1V32.1H-877.3V1343.2Z" class="g0_339"/>
<path d="M234.3,152.4c0,0,-13,0,-13,13v21.7c0,0,0,13,13,13H858c0,0,12.9,0,12.9,-13V165.4c0,0,0,-13,-12.9,-13Z" class="g1_339"/>
<image clip-path="url(#c1_339)" preserveAspectRatio="none" x="177" y="123" width="75" height="76" xlink:href="img/1.png"/>
<path d="M229.1,192.7c0,0,-26.8,11.3,-51.1,-12.7c0,0,15.2,25.3,49.3,23.9c0,0,24.8,.4,20.3,-10.1c0,0,1.2,-4.5,-18.5,-1.1Z" class="g1_339"/>
<path d="M166.7,208.9c0,0,-13,0,-13,13v928.4c0,0,0,13,13,13H854.5c0,0,13,0,13,-13V221.9c0,0,0,-13,-13,-13Z" class="g2_339"/>
<path d="M166.7,208.9c0,0,-13,0,-13,13v928.4c0,0,0,13,13,13H854.5c0,0,13,0,13,-13V221.9c0,0,0,-13,-13,-13H166.7Z" class="g3_339"/>
<path d="M232.7,565.3c0,0,-13,0,-13,13v77.9c0,0,0,13,13,13h563c0,0,13,0,13,-13V578.3c0,0,0,-13,-13,-13Z" class="g4_339"/>
<path d="M392.7,639.3H483" class="g5_339"/>
<path d="M232.7,850.9c0,0,-13,0,-13,13v60.6c0,0,0,13,13,13h563c0,0,13,0,13,-13V863.9c0,0,0,-13,-13,-13Z" class="g4_339"/>
<path d="M332.3,905.5h85.9" class="g5_339"/>
<path d="M232.7,1001.1c0,0,-13,0,-13,13v78c0,0,0,13,13,13h563c0,0,13,0,13,-13v-78c0,0,0,-13,-13,-13Z" class="g4_339"/>
<path d="M461.5,1075.1h90.2" class="g5_339"/>
<path d="M232.7,721.5c0,0,-13,0,-13,13v60.6c0,0,0,13,13,13h563c0,0,13,0,13,-13V734.5c0,0,0,-13,-13,-13Z" class="g4_339"/>
<path d="M401.2,776.2h90.3" class="g5_339"/>
<path d="M196.9,427.7c0,0,-4.3,0,-4.3,4.3v14.4c0,0,0,4.4,4.1,5.8l52.4,18.2c0,0,4.1,1.5,4.1,-2.9V432c0,0,0,-4.3,-4.3,-4.3Z" class="g6_339"/>
<path d="M218.1,414c0,0,-13,0,-13,13v34.7c0,0,0,13,13,13H795.7c0,0,13,0,13,-13V427c0,0,0,-13,-13,-13Z" class="g4_339"/>
<path d="M196.9,425.6c0,0,-4.3,0,-4.3,4.3v16.9c0,0,0,4.4,4.3,4.4h37.3c0,0,4.3,0,4.3,-4.4V429.9c0,0,0,-4.3,-4.3,-4.3Z" class="g7_339"/>
<image clip-path="url(#c2_339)" preserveAspectRatio="none" x="237" y="281" width="83" height="85" xlink:href="img/2.jpg"/>
<image clip-path="url(#c3_339)" preserveAspectRatio="none" x="369" y="277" width="90" height="90" xlink:href="img/3.jpg"/>
<image clip-path="url(#c4_339)" preserveAspectRatio="none" x="509" y="280" width="85" height="85" xlink:href="img/4.jpg"/>
<image clip-path="url(#c5_339)" preserveAspectRatio="none" x="646" y="280" width="85" height="85" xlink:href="img/5.jpg"/>
<path d="M207.5,262.6H822.4V248.2H207.5v14.4Z" class="g2_339"/>
<path d="M233.9,403.5h90.3V369.4H233.9v34.1Z" class="g2_339"/>
<path d="M233.9,403.5h90.3V369.4H233.9v34.1Z" class="g8_339"/>
<path d="M370.7,403.5h90.4V369.4H370.7v34.1Z" class="g2_339"/>
<path d="M370.7,403.5h90.4V369.4H370.7v34.1Z" class="g8_339"/>
<path d="M507.3,403.5h90.4V369.4H507.3v34.1Z" class="g2_339"/>
<path d="M507.3,403.5h90.4V369.4H507.3v34.1Z" class="g8_339"/>
<path d="M645.9,403.5h90.4V369.4H645.9v34.1Z" class="g2_339"/>
<path d="M645.9,403.5h90.4V369.4H645.9v34.1Z" class="g8_339"/>
<path d="M192.7,1178.6c0,0,-4.3,0,-4.3,4.3v10.8c0,0,0,4.4,4.3,4.4H223c0,0,4.3,0,4.3,-4.4v-10.8c0,0,0,-4.3,-4.3,-4.3Z" class="g9_339"/>
<path d="M179.5,1171.1v34.8m1.3,1h686m.9,-1.4v-34.8m-1.3,-1H180.5" class="ga_339"/>
<path d="M179.5,1206.3v.6h.6m687.1,0h.5v-.6m0,-36v-.6h-.5m-687.1,0h-.6v.6" class="gb_339"/>
<path d="M32.1,45.1H9.2m958.3,0h22.9M32.1,1331.3H9.2m958.3,0h22.9M45.1,32.1V9.2m0,1335.1v22.9M954.5,32.1V9.2m0,1335.1v22.9" class="gc_339"/>
<path d="M32.1,45.1H9.2m958.3,0h22.9M32.1,1331.3H9.2m958.3,0h22.9M45.1,32.1V9.2m0,1335.1v22.9M954.5,32.1V9.2m0,1335.1v22.9" class="gd_339"/>
<path d="M27.5,32.1H0m972.1,0h27.5M27.5,1344.3H0m972.1,0h27.5M32.1,27.5V0m0,1348.9v27.5M967.5,27.5V0m0,1348.9v27.5" class="gc_339"/>
<path d="M27.5,32.1H0m972.1,0h27.5M27.5,1344.3H0m972.1,0h27.5M32.1,27.5V0m0,1348.9v27.5M967.5,27.5V0m0,1348.9v27.5" class="gd_339"/>
</svg>