<?xml version="1.0" encoding="UTF-8" standalone="no"?>
<!DOCTYPE svg PUBLIC "-//W3C//DTD SVG 1.1//EN"
"http://www.w3.org/Graphics/SVG/1.1/DTD/svg11.dtd">
<svg viewBox="0 0 999 1376" version="1.1" xmlns="http://www.w3.org/2000/svg" xmlns:xlink="http://www.w3.org/1999/xlink">
<defs>
<clipPath id="c0_248"><path d="M32.1,1344.3V32.1H967.5V1344.3Z"/></clipPath>
<clipPath id="c1_248"><path d="M186.8,291.4l-6.5,-2.1L163.9,275.4V218.3h72v73.1Z"/></clipPath>
<clipPath id="c2_248"><path d="M186.8,621.1l-6.5,-2.2L163.9,605V547.9h72v73.2Z"/></clipPath>
<clipPath id="c3_248"><path d="M226.9,1219v-77.1H304V1219Z"/></clipPath>
<clipPath id="c4_248"><path d="M379.9,1218.3v-66.1l1.5,-9.6h79.7v75.7Z"/></clipPath>
<clipPath id="c5_248"><path d="M538.2,1218.3v-75.7h81.7v75.7Z"/></clipPath>
<clipPath id="c6_248"><path d="M696.4,1218.3v-75.7h80.9v75.7Z"/></clipPath>
<clipPath id="c7_248"><path d="M228.1,427.9v-10h94.6v10Zm0,-24.2v-13h94.6v13Zm0,-26.9V364h94.6v12.8Z"/></clipPath>
<clipPath id="c8_248"><path d="M228.1,390.7V376.8h94.6v13.9Z"/></clipPath>
<clipPath id="c9_248"><path d="M228.1,417.9V403.7h94.6v14.2Z"/></clipPath>
<clipPath id="ca_248"><path d="M230.1,529.8V433.5h96.3v96.3Z"/></clipPath>
<style type="text/css"><![CDATA[
.g0_248{
fill: #FEFCF4;
}
.g1_248{
fill: #F16865;
}
.g2_248{
fill: #FAC3B8;
}
.g3_248{
fill: #EE314A;
}
.g4_248{
fill: #26292E;
}
.g5_248{
fill: #C5CACC;
}
.g6_248{
fill: #FFF;
}
.g7_248{
fill: #F1EBEB;
}
.g8_248{
fill: #F7943B;
}
.g9_248{
fill: #ACB5B9;
}
.ga_248{
fill: #CFD3D5;
}
.gb_248{
fill: #FCE8B0;
}
.gc_248{
fill: none;
stroke: #6381B7;
stroke-width: 0.763;
}
.gd_248{
fill: #E3E7F2;
}
.ge_248{
fill: none;
stroke: #231F20;
stroke-width: 0.458;
stroke-miterlimit: 10;
}
.gf_248{
fill: #6381B7;
}
.gg_248{
fill: none;
stroke: #6381B7;
stroke-width: 0.381;
stroke-dasharray: 2,1;
}
.gh_248{
fill: none;
stroke: #6381B7;
stroke-width: 0.381;
}
.gi_248{
fill: none;
stroke: #FFF;
stroke-width: 1.909;
stroke-miterlimit: 10;
}
.gj_248{
fill: none;
stroke: #000;
stroke-width: 0.381;
stroke-miterlimit: 10;
}
]]></style>
</defs>
<path d="M32.1,1344.3H954.5V32.1H32.1V1344.3Z" class="g0_248"/>
<g clip-path="url(#c0_248)">
<path d="M954.5,1344.3H1877V32.1H954.5V1344.3Z" class="g0_248"/>
<path d="M1777.4,166.7c0,0,30.3,0,30.3,-30.3v-4.3c0,0,0,-30.3,-30.3,-30.3H173.9c0,0,-30.3,0,-30.3,30.3v4.3c0,0,0,30.3,30.3,30.3Z" class="g1_248"/>
</g>
<path d="M186.5,132.1c0,27.1,-22,49,-49.1,49c-27,0,-49,-21.9,-49,-49c0,-27.1,22,-49.1,49,-49.1c27.1,0,49.1,22,49.1,49.1Z" class="g2_248"/>
<path d="M178.1,104.6c15.2,22.5,9.2,53,-13.2,68.1c-22.5,15.2,-53,9.3,-68.1,-13.2Z" class="g3_248"/>
<path d="M96.8,159.5h81.3V104.7H96.8v54.8Z" class="g4_248"/>
<path d="M137.7,156.8h16.8V136.6H137.7v20.2Z" class="g5_248"/>
<path d="M143.1,156.8h33.7V102.6H143.1v54.2Z" class="g5_248"/>
<path d="M141.6,103v50c.5,-.3,1,-.4,1.5,-.4h33.7v-50H143.1c-.5,0,-1,.2,-1.5,.4Z" class="g6_248"/>
<path d="M137.7,109v47.8c0,0,2.5,-3.1,3.9,-3.8V103c-2.2,1.1,-3.9,4.3,-3.9,6Z" class="g7_248"/>
<path d="M143.5,112.3h29.1v-1.4H143.5v1.4Z" class="g5_248"/>
<path d="M143.5,115.5h29.1v-1.4H143.5v1.4Z" class="g5_248"/>
<path d="M143.5,118.8h29.1v-1.5H143.5v1.5Z" class="g5_248"/>
<path d="M143.5,122h29.1v-1.5H143.5V122Z" class="g5_248"/>
<path d="M143.5,125.2h29.1v-1.5H143.5v1.5Z" class="g5_248"/>
<path d="M143.5,128.4h29.1v-1.5H143.5v1.5Z" class="g5_248"/>
<path d="M143.5,131.6h29.1v-1.5H143.5v1.5Z" class="g5_248"/>
<path d="M143.5,134.8h29.1v-1.5H143.5v1.5Z" class="g5_248"/>
<path d="M143.5,138h29.1v-1.4H143.5V138Z" class="g5_248"/>
<path d="M143.5,141.2h29.1v-1.4H143.5v1.4Z" class="g5_248"/>
<path d="M143.5,144.4h29.1V143H143.5v1.4Z" class="g5_248"/>
<path d="M143.5,147.6h29.1v-1.4H143.5v1.4Z" class="g5_248"/>
<path d="M159.7,150.9l1,-.9l1,.9v-49h-2Z" class="g8_248"/>
<path d="M120.9,156.8h16.8V136.6H120.9v20.2Z" class="g9_248"/>
<path d="M98.6,156.8h33.6V102.6H98.6v54.2Z" class="g9_248"/>
<path d="M98.6,102.6v50h33.6c.6,0,1.1,.1,1.6,.4V103c-.5,-.2,-1,-.4,-1.6,-.4Z" class="g6_248"/>
<path d="M133.8,103v50c1.4,.7,3.9,3.8,3.9,3.8V109c0,-1.7,-1.7,-4.9,-3.9,-6Z" class="ga_248"/>
<path d="M109.7,112.3h14.5v-1.4H109.7v1.4Z" class="g5_248"/>
<path d="M102.8,118.8h29.1v-1.5H102.8v1.5Z" class="g5_248"/>
<path d="M102.8,122h29.1v-1.5H102.8V122Z" class="g5_248"/>
<path d="M102.8,125.2h29.1v-1.5H102.8v1.5Z" class="g5_248"/>
<path d="M102.8,128.4h29.1v-1.5H102.8v1.5Z" class="g5_248"/>
<path d="M102.8,131.6h29.1v-1.5H102.8v1.5Z" class="g5_248"/>
<path d="M102.8,134.8h29.1v-1.5H102.8v1.5Z" class="g5_248"/>
<path d="M102.8,138h29.1v-1.4H102.8V138Z" class="g5_248"/>
<path d="M102.8,141.2h29.1v-1.4H102.8v1.4Z" class="g5_248"/>
<path d="M102.8,144.4h29.1V143H102.8v1.4Z" class="g5_248"/>
<path d="M102.8,147.6h29.1v-1.4H102.8v1.4Z" class="g5_248"/>
<path d="M219.5,220.5c0,0,-13,0,-13,13v47.6c0,0,0,13,13,13H834.1c0,0,13,0,13,-13V233.5c0,0,0,-13,-13,-13Z" class="gb_248"/>
<image clip-path="url(#c1_248)" preserveAspectRatio="none" x="162" y="217" width="75" height="76" xlink:href="img/1.png"/>
<path d="M214.3,286.7c0,0,-26.9,11.3,-51.2,-12.7c0,0,15.2,25.3,49.3,23.9c0,0,24.8,.4,20.3,-10.1c0,0,1.2,-4.4,-18.4,-1.1Z" class="gb_248"/>
<path d="M219.5,550.1c0,0,-13,0,-13,13v47.6c0,0,0,13,13,13H834.1c0,0,13,0,13,-13V563.1c0,0,0,-13,-13,-13Z" class="gb_248"/>
<image clip-path="url(#c2_248)" preserveAspectRatio="none" x="162" y="546" width="75" height="77" xlink:href="img/2.png"/>
<path d="M214.3,616.3c0,0,-26.9,11.3,-51.2,-12.7c0,0,15.2,25.3,49.3,23.9c0,0,24.8,.4,20.3,-10.1c0,0,1.2,-4.4,-18.4,-1.1Z" class="gb_248"/>
<path d="M145.1,632.3c0,0,-13,0,-13,13v572.2c0,0,0,12.9,13,12.9h688c0,0,13,0,13,-12.9V645.3c0,0,0,-13,-13,-13Z" class="g6_248"/>
<path d="M145.1,632.3c0,0,-13,0,-13,13v572.2c0,0,0,12.9,13,12.9h688c0,0,13,0,13,-12.9V645.3c0,0,0,-13,-13,-13h-688Z" class="gc_248"/>
<path d="M196.7,730H802.9V673.7H196.7V730Z" class="gd_248"/>
<path d="M418.4,697.7h84.2" class="ge_248"/>
<path d="M196.7,867.4H802.9V772.1H196.7v95.3Z" class="gd_248"/>
<path d="M671.8,796h84.6" class="ge_248"/>
<image clip-path="url(#c3_248)" preserveAspectRatio="none" x="220" y="1141" width="83" height="79" xlink:href="img/3.jpg"/>
<image clip-path="url(#c4_248)" preserveAspectRatio="none" x="378" y="1141" width="83" height="78" xlink:href="img/4.jpg"/>
<image clip-path="url(#c5_248)" preserveAspectRatio="none" x="537" y="1142" width="83" height="78" xlink:href="img/5.jpg"/>
<image clip-path="url(#c6_248)" preserveAspectRatio="none" x="695" y="1141" width="82" height="77" xlink:href="img/6.jpg"/>
<path d="M179.3,1110h628V942.2h-628V1110Z" class="gd_248"/>
<path d="M263.6,1132.1h25.9" class="ge_248"/>
<path d="M608.4,1245.1c0,0,-4.3,0,-4.3,4.3v10.8c0,0,0,4.4,4.3,4.4h30.4c0,0,4.3,0,4.3,-4.4v-10.8c0,0,0,-4.3,-4.3,-4.3Z" class="gf_248"/>
<path d="M595.3,1237.6v34.8m1.3,1H845.1m1,-1.4v-34.8m-1.4,-1H596.2" class="gg_248"/>
<path d="M595.3,1272.8v.6h.5m249.7,0h.6v-.6m0,-36v-.6h-.6m-249.7,0h-.5v.6" class="gh_248"/>
<path d="M145.1,309.6c0,0,-13,0,-13,13V525.4c0,0,0,13,13,13H833.3c0,0,13,0,13,-13V322.6c0,0,0,-13,-13,-13Z" class="g6_248"/>
<path d="M145.1,309.6c0,0,-13,0,-13,13V525.4c0,0,0,13,13,13H833.3c0,0,13,0,13,-13V322.6c0,0,0,-13,-13,-13H145.1Z" class="gc_248"/>
<image clip-path="url(#c7_248)" preserveAspectRatio="none" x="228" y="356" width="99" height="81" xlink:href="img/7.jpg"/>
<image clip-path="url(#c8_248)" preserveAspectRatio="none" x="228" y="377" width="99" height="14" xlink:href="img/8.jpg"/>
<image clip-path="url(#c9_248)" preserveAspectRatio="none" x="228" y="403" width="99" height="15" xlink:href="img/9.jpg"/>
<image clip-path="url(#ca_248)" preserveAspectRatio="none" x="230" y="433" width="96" height="97" xlink:href="img/10.jpg"/>
<path d="M32.1,45.1H9.2m958.3,0h22.9M32.1,1331.3H9.2m958.3,0h22.9M45.1,32.1V9.2m0,1335.1v22.9M954.5,32.1V9.2m0,1335.1v22.9" class="gi_248"/>
<path d="M32.1,45.1H9.2m958.3,0h22.9M32.1,1331.3H9.2m958.3,0h22.9M45.1,32.1V9.2m0,1335.1v22.9M954.5,32.1V9.2m0,1335.1v22.9" class="gj_248"/>
<path d="M27.5,32.1H0m972.1,0h27.5M27.5,1344.3H0m972.1,0h27.5M32.1,27.5V0m0,1348.9v27.5M967.5,27.5V0m0,1348.9v27.5" class="gi_248"/>
<path d="M27.5,32.1H0m972.1,0h27.5M27.5,1344.3H0m972.1,0h27.5M32.1,27.5V0m0,1348.9v27.5M967.5,27.5V0m0,1348.9v27.5" class="gj_248"/>
</svg>