<?xml version="1.0" encoding="UTF-8" standalone="no"?>
<!DOCTYPE svg PUBLIC "-//W3C//DTD SVG 1.1//EN"
"http://www.w3.org/Graphics/SVG/1.1/DTD/svg11.dtd">
<svg viewBox="0 0 999 1376" version="1.1" xmlns="http://www.w3.org/2000/svg" xmlns:xlink="http://www.w3.org/1999/xlink">
<defs>
<clipPath id="c0_114"><path d="M32.1,1344.3V32.1H967.5V1344.3Z"/></clipPath>
<clipPath id="c1_114"><path d="M197.8,1211.4v-120h120v120Z"/></clipPath>
<clipPath id="c2_114"><path d="M365.3,1210.9V1091.5H484.7v119.4Z"/></clipPath>
<clipPath id="c3_114"><path d="M529.2,1210.9v-99.6H648.5v99.6Zm0,-113.8v-5.6H648.5v5.6Z"/></clipPath>
<clipPath id="c4_114"><path d="M529.2,1111.3v-14.2H648.5v14.2Z"/></clipPath>
<clipPath id="c5_114"><path d="M694.9,1210.9V1091.5H814.3v119.4Z"/></clipPath>
<clipPath id="c6_114"><path d="M765.2,349.3V336.9h14.5v12.4Z"/></clipPath>
<clipPath id="c7_114"><path d="M195.6,491.8V378H316.3V491.8Z"/></clipPath>
<clipPath id="c8_114"><path d="M195.6,636.9v-123H316.3v123Z"/></clipPath>
<clipPath id="c9_114"><path d="M184.8,294.7l-6.5,-2.1l-16.4,-14V221.5h72v73.2Z"/></clipPath>
<clipPath id="ca_114"><path d="M184.8,762.2l-6.5,-2.1L161.9,746.2V689.1h72v73.1Z"/></clipPath>
<style type="text/css"><![CDATA[
.g0_114{
fill: #FEFCF4;
}
.g1_114{
fill: #59816A;
}
.g2_114{
fill: #2E6E51;
}
.g3_114{
fill: #92A696;
}
.g4_114{
fill: #F9F6DB;
}
.g5_114{
fill: #DE524C;
}
.g6_114{
fill: #030303;
}
.g7_114{
fill: #FFF;
}
.g8_114{
fill: none;
stroke: #6381B7;
stroke-width: 0.763;
}
.g9_114{
fill: #A8AAAD;
}
.ga_114{
fill: none;
stroke: #949698;
stroke-width: 0.549;
}
.gb_114{
fill: none;
stroke: #BCBEC0;
stroke-width: 2.566;
}
.gc_114{
fill: #231F20;
}
.gd_114{
fill: #FCE8B0;
}
.ge_114{
fill: none;
stroke: #FFF;
stroke-width: 1.909;
stroke-miterlimit: 10;
}
.gf_114{
fill: none;
stroke: #000;
stroke-width: 0.381;
stroke-miterlimit: 10;
}
]]></style>
</defs>
<path d="M32.1,1344.3H954.5V32.1H32.1V1344.3Z" class="g0_114"/>
<g clip-path="url(#c0_114)">
<path d="M954.5,1344.3H1877V32.1H954.5V1344.3Z" class="g0_114"/>
<path d="M1777.4,163c0,0,30.3,0,30.3,-30.3v-4.4c0,0,0,-30.3,-30.3,-30.3H162.8c0,0,-30.3,0,-30.3,30.3v4.4c0,0,0,30.3,30.3,30.3Z" class="g1_114"/>
</g>
<path d="M183.7,130.5c0,26.3,-21.4,47.6,-47.7,47.6c-26.3,0,-47.6,-21.3,-47.6,-47.6c0,-26.3,21.3,-47.7,47.6,-47.7c26.3,0,47.7,21.4,47.7,47.7Z" class="g2_114"/>
<path d="M158.3,88.4c0,0,26.2,12.3,25.3,44.1c0,0,.4,18,-14.5,32.2c0,0,-12.5,13.6,-33.8,13.4L119.8,142.5L146.3,109Z" class="g3_114"/>
<path d="M138.2,95.4l-35.3,40.3c-2.2,9.2,5.7,10.6,5.7,10.6L162,135.2Z" class="g4_114"/>
<path d="M163.8,131.9c1,1.6,.6,3.7,-1,4.7c-1.6,1,-3.7,.4,-4.7,-1.2L135.8,98.9c-1,-1.6,-.5,-3.7,1.1,-4.7c1.6,-1,3.7,-.4,4.7,1.2Z" class="g5_114"/>
<path d="M112,121.2l-8.5,5.9c-7.2,4.1,-9.8,13,-5.8,19.8c4,6.9,11.5,9.1,18.7,4.9l17.1,25.4c.8,1.9,5,.3,7,-.6c1.9,-1,4.4,-3.3,3.5,-5.2L127.5,145.3l.7,-.8c.7,-.3,-15,-24,-16.2,-23.3Z" class="g6_114"/>
<path d="M168.7,102.2c.4,.5,0,1.4,-.7,1.9l-9.2,6.7c-.7,.5,-1.6,.6,-2,0c-.3,-.5,0,-1.3,.7,-1.8l9.2,-6.7c.8,-.6,1.7,-.6,2,-.1Z" class="g7_114"/>
<path d="M158.4,88.4c.5,.4,.6,1.3,.1,2.1l-5.9,9.8c-.5,.8,-1.3,1.2,-1.9,.9c-.5,-.4,-.5,-1.2,0,-2.1l5.9,-9.8c.5,-.8,1.3,-1.2,1.8,-.9Z" class="g7_114"/>
<path d="M176.2,121.9c.1,-.6,-.6,-1.2,-1.5,-1.3l-11.2,-1.4c-.9,-.1,-1.7,.4,-1.8,1c-.1,.6,.6,1.2,1.5,1.3l11.2,1.3c.9,.2,1.7,-.3,1.8,-.9Z" class="g7_114"/>
<path d="M145.1,778.5c0,0,-13,0,-13,12.9v431.2c0,0,0,13,13,13H832.9c0,0,13,0,13,-13V791.4c0,0,0,-12.9,-13,-12.9Z" class="g7_114"/>
<path d="M145.1,778.5c0,0,-13,0,-13,12.9v431.2c0,0,0,13,13,13H832.9c0,0,13,0,13,-13V791.4c0,0,0,-12.9,-13,-12.9H145.1Z" class="g8_114"/>
<path d="M176.7,1031.7h563v-20.2h-563v20.2Z" class="g7_114"/>
<image clip-path="url(#c1_114)" preserveAspectRatio="none" x="198" y="1091" width="119" height="120" xlink:href="img/1.jpg"/>
<image clip-path="url(#c2_114)" preserveAspectRatio="none" x="365" y="1091" width="120" height="120" xlink:href="img/2.jpg"/>
<image clip-path="url(#c3_114)" preserveAspectRatio="none" x="529" y="1091" width="120" height="120" xlink:href="img/3.jpg"/>
<image clip-path="url(#c4_114)" preserveAspectRatio="none" x="529" y="1097" width="120" height="15" xlink:href="img/4.jpg"/>
<image clip-path="url(#c5_114)" preserveAspectRatio="none" x="695" y="1091" width="119" height="120" xlink:href="img/5.jpg"/>
<path d="M145.1,311.2c0,0,-13,0,-13,13V642.3c0,0,0,13,13,13H832.9c0,0,13,0,13,-13V324.2c0,0,0,-13,-13,-13Z" class="g7_114"/>
<path d="M145.1,311.2c0,0,-13,0,-13,13V642.3c0,0,0,13,13,13H832.9c0,0,13,0,13,-13V324.2c0,0,0,-13,-13,-13H145.1Z" class="g8_114"/>
<path d="M781.3,362.3c8.2,0,14.9,-6.5,14.9,-14.5c0,-8,-6.7,-14.5,-14.9,-14.5c-8.2,0,-14.9,6.5,-14.9,14.5c0,8,6.7,14.5,14.9,14.5Z" class="g9_114"/>
<path d="M781.3,362.3c8.2,0,14.9,-6.5,14.9,-14.5c0,-8,-6.7,-14.5,-14.9,-14.5c-8.2,0,-14.9,6.5,-14.9,14.5c0,8,6.7,14.5,14.9,14.5Z" class="ga_114"/>
<path d="M781.3,353.1c3,0,5.5,-2.3,5.5,-5.3c0,-2.9,-2.5,-5.3,-5.5,-5.3c-3,0,-5.5,2.4,-5.5,5.3c0,3,2.5,5.3,5.5,5.3Z" class="g7_114"/>
<path d="M781.3,353.1c3,0,5.5,-2.3,5.5,-5.3c0,-2.9,-2.5,-5.3,-5.5,-5.3c-3,0,-5.5,2.4,-5.5,5.3c0,3,2.5,5.3,5.5,5.3Z" class="gb_114"/>
<g clip-path="url(#c6_114)" opacity="0.3">
<path d="M766.7,347v0c0,0,0,-4.8,3.7,-8.6l7.7,6.7c0,0,-1,.9,-1,2.7Z" class="g7_114"/>
</g>
<path d="M785.9,347.7c0,0,-3.5,0,-3.5,3.5v8.6c0,0,0,3.5,3.5,3.5h43.5c0,0,3.5,0,3.5,-3.5v-8.6c0,0,0,-3.5,-3.5,-3.5Z" class="gc_114"/>
<image clip-path="url(#c7_114)" preserveAspectRatio="none" x="193" y="373" width="124" height="119" xlink:href="img/6.jpg"/>
<image clip-path="url(#c8_114)" preserveAspectRatio="none" x="193" y="515" width="123" height="122" xlink:href="img/7.jpg"/>
<path d="M192.3,364.5h563V348.2h-563v16.3Z" class="g7_114"/>
<path d="M217.4,223.7c0,0,-12.9,0,-12.9,13v47.6c0,0,0,13,12.9,13h602c0,0,13,0,13,-13V236.7c0,0,0,-13,-13,-13Z" class="gd_114"/>
<image clip-path="url(#c9_114)" preserveAspectRatio="none" x="160" y="220" width="75" height="76" xlink:href="img/8.png"/>
<path d="M212.2,290c0,0,-26.8,11.3,-51.1,-12.8c0,0,15.2,25.3,49.3,24c0,0,24.8,.3,20.3,-10.1c0,0,1.2,-4.5,-18.5,-1.1Z" class="gd_114"/>
<path d="M217.4,691.2c0,0,-12.9,0,-12.9,13v47.7c0,0,0,13,12.9,13H833.3c0,0,13,0,13,-13V704.2c0,0,0,-13,-13,-13Z" class="gd_114"/>
<image clip-path="url(#ca_114)" preserveAspectRatio="none" x="160" y="687" width="75" height="77" xlink:href="img/9.png"/>
<path d="M212.2,757.5c0,0,-26.8,11.3,-51.1,-12.8c0,0,15.2,25.4,49.3,24c0,0,24.8,.4,20.3,-10.1c0,0,1.2,-4.5,-18.5,-1.1Z" class="gd_114"/>
<path d="M32.1,45.1H9.2m958.3,0h22.9M32.1,1331.3H9.2m958.3,0h22.9M45.1,32.1V9.2m0,1335.1v22.9M954.5,32.1V9.2m0,1335.1v22.9" class="ge_114"/>
<path d="M32.1,45.1H9.2m958.3,0h22.9M32.1,1331.3H9.2m958.3,0h22.9M45.1,32.1V9.2m0,1335.1v22.9M954.5,32.1V9.2m0,1335.1v22.9" class="gf_114"/>
<path d="M27.5,32.1H0m972.1,0h27.5M27.5,1344.3H0m972.1,0h27.5M32.1,27.5V0m0,1348.9v27.5M967.5,27.5V0m0,1348.9v27.5" class="ge_114"/>
<path d="M27.5,32.1H0m972.1,0h27.5M27.5,1344.3H0m972.1,0h27.5M32.1,27.5V0m0,1348.9v27.5M967.5,27.5V0m0,1348.9v27.5" class="gf_114"/>
</svg>