<?xml version="1.0" encoding="UTF-8" standalone="no"?>
<!DOCTYPE svg PUBLIC "-//W3C//DTD SVG 1.1//EN"
"http://www.w3.org/Graphics/SVG/1.1/DTD/svg11.dtd">
<svg viewBox="0 0 999 1376" version="1.1" xmlns="http://www.w3.org/2000/svg" xmlns:xlink="http://www.w3.org/1999/xlink">
<defs>
<clipPath id="c0_269"><path d="M153.3,1246V133H867.9V1246Z"/></clipPath>
<clipPath id="c1_269"><path d="M32.1,1344.3V32.1H967.5V1344.3Z"/></clipPath>
<style type="text/css"><![CDATA[
.g0_269{
fill: #FFF;
}
.g1_269{
fill: none;
stroke: #231F20;
stroke-width: 0.756;
stroke-miterlimit: 3;
}
.g2_269{
fill: #949698;
}
.g3_269{
fill: none;
stroke: #949698;
stroke-width: 0.948;
}
.g4_269{
fill: #F0E8F3;
}
.g5_269{
fill: #6381B7;
}
.g6_269{
fill: #B6C1DE;
}
.g7_269{
fill: #CFD1D3;
}
.g8_269{
fill: none;
stroke: #6381B7;
stroke-width: 0.458;
stroke-miterlimit: 10;
}
.g9_269{
fill: #25408F;
}
.ga_269{
fill: #FFDE2C;
}
.gb_269{
fill: none;
stroke: #231F20;
stroke-width: 1.451;
stroke-miterlimit: 10;
}
.gc_269{
fill: #D2D3D5;
}
.gd_269{
fill: #A8AAAD;
}
.ge_269{
fill: none;
stroke: #231F20;
stroke-width: 0.828;
stroke-miterlimit: 10;
}
.gf_269{
fill: #6CCFF6;
}
.gg_269{
fill: none;
stroke: #231F20;
stroke-width: 0.828;
stroke-linecap: round;
stroke-linejoin: round;
}
.gh_269{
fill: none;
stroke: #231F20;
stroke-width: 1.451;
stroke-linecap: round;
stroke-linejoin: round;
}
.gi_269{
fill: none;
stroke: #FFF;
stroke-width: 1.909;
stroke-miterlimit: 10;
}
.gj_269{
fill: none;
stroke: #000;
stroke-width: 0.381;
stroke-miterlimit: 10;
}
]]></style>
</defs>
<path d="M153.3,1246H867.9V133H153.3V1246Z" class="g0_269"/>
<image clip-path="url(#c0_269)" preserveAspectRatio="none" x="151" y="131" width="719" height="1117" xlink:href="img/1.jpg"/>
<path d="M407.9,175.5v7.9h11.5v1.9H398.1v-1.9h7.5v-7.9h2.3Zm4.9,4.8c.4,-1.5,.7,-3.2,.9,-5c.3,-1.8,.4,-3.8,.4,-5.9c0,-.4,-.1,-.6,-.2,-.8c-.2,-.1,-.4,-.2,-.8,-.2H400.5v-1.8h13.3c.9,0,1.6,.2,2,.6c.3,.5,.5,1.1,.5,1.9c0,1.9,-.2,3.9,-.4,6c-.3,2,-.6,3.9,-1,5.6l-2.1,-.4Zm29.5,-1.7H421v-1.8h5.1v-4.2c-.4,-.4,-.7,-.9,-.9,-1.4c-.2,-.5,-.3,-1.1,-.3,-1.7c0,-.8,.1,-1.4,.5,-2.1c.3,-.6,.7,-1.1,1.3,-1.5c.6,-.4,1.3,-.8,2.1,-1c.8,-.2,1.7,-.4,2.7,-.4c1.8,0,3.4,.5,4.6,1.4c1.3,.9,1.9,2.1,1.9,3.6c0,.6,-.1,1.2,-.3,1.7c-.3,.5,-.5,.9,-.9,1.3v4.3h5.5v1.8Zm-4.6,9.1c-.4,.7,-.8,1.2,-1.4,1.7c-.6,.4,-1.3,.7,-2.1,1c-.8,.2,-1.7,.3,-2.6,.3c-1,0,-1.8,-.1,-2.6,-.3c-.9,-.3,-1.6,-.6,-2.1,-1c-.6,-.5,-1.1,-1,-1.4,-1.7c-.4,-.6,-.5,-1.3,-.5,-2.1c0,-.9,.1,-1.6,.5,-2.2c.3,-.6,.8,-1.2,1.4,-1.6c.5,-.4,1.2,-.8,2.1,-1c.8,-.2,1.6,-.3,2.6,-.3c1.9,0,3.5,.4,4.7,1.3c1.3,.9,1.9,2.1,1.9,3.8c0,.8,-.2,1.5,-.5,2.1Zm-3,-4.6c-.8,-.6,-1.8,-.9,-3.1,-.9c-1.3,0,-2.3,.3,-3.2,.9c-.8,.6,-1.2,1.4,-1.2,2.5c0,1,.4,1.9,1.2,2.5c.9,.6,1.9,.9,3.2,.9c1.3,0,2.3,-.3,3.1,-.9c.8,-.6,1.3,-1.5,1.3,-2.5c0,-1.1,-.5,-1.9,-1.3,-2.5Zm-.2,-15.9c-.8,-.6,-1.8,-.9,-3,-.9c-1.3,0,-2.3,.3,-3.1,.9c-.8,.5,-1.2,1.3,-1.2,2.3c0,1,.4,1.8,1.2,2.4c.8,.5,1.8,.8,3.1,.8c1.2,0,2.2,-.3,3,-.8c.8,-.6,1.2,-1.4,1.2,-2.4c0,-1,-.4,-1.8,-1.2,-2.3Zm-4.7,7.2c-.5,-.1,-1,-.2,-1.4,-.4v2.8h6.2v-2.9c-.5,.2,-1,.4,-1.5,.4c-.5,.1,-1.1,.2,-1.6,.2c-.6,0,-1.2,-.1,-1.7,-.1Zm32.9,13.9v-10H458c-.1,.8,-.3,1.6,-.6,2.3c-.3,.7,-.8,1.3,-1.3,1.7c-.6,.5,-1.2,.9,-2,1.2c-.7,.3,-1.5,.4,-2.4,.4c-.9,0,-1.7,-.1,-2.5,-.4c-.8,-.3,-1.4,-.7,-2,-1.3c-.5,-.5,-1,-1.2,-1.3,-1.9c-.3,-.7,-.4,-1.5,-.4,-2.4c0,-.9,.1,-1.7,.5,-2.5c.3,-.7,.7,-1.3,1.3,-1.9c.6,-.5,1.2,-.9,2,-1.2c.8,-.3,1.6,-.4,2.4,-.4c1.6,0,3,.4,4,1.3c1.1,.9,1.8,1.9,2.1,3.2h4.9V165.7h2.2v22.6h-2.2Zm-8,-13.4c-.7,-.8,-1.7,-1.2,-3,-1.2c-1.2,0,-2.2,.4,-2.9,1.2c-.7,.8,-1.1,1.8,-1.1,3c0,1.2,.4,2.2,1.1,3c.7,.7,1.7,1.1,2.9,1.1c1.3,0,2.3,-.4,3,-1.1c.7,-.8,1,-1.8,1,-3c0,-1.2,-.3,-2.2,-1,-3ZM450,168.7c.3,-.3,.4,-.7,.5,-1c.1,-.4,.1,-.7,.1,-1.1c0,-.2,0,-.4,-.1,-.7c0,-.3,-.1,-.7,-.2,-1l2.3,-.7c.1,.4,.2,.8,.2,1c.1,.2,.1,.5,.1,.8c0,.7,-.1,1.2,-.2,1.6c-.1,.5,-.3,.8,-.5,1.1h6.9v1.8H444.3v-1.8H450Zm40.1,7.5h-4.3v12.1h-2.3V165.7h2.3v8.7h4.3v1.8ZM467.8,182c2.7,-1.8,4.9,-3.8,6.5,-6c1.6,-2.2,2.5,-4.4,2.7,-6.6c.1,-.4,0,-.6,-.1,-.7c-.2,-.1,-.4,-.2,-.6,-.2h-8.7v-1.8h9.7c.8,0,1.3,.2,1.6,.7c.3,.4,.4,1,.4,1.8c-.3,2.5,-1.3,5.1,-3,7.6c-1.7,2.5,-4.1,4.9,-7.3,7.1L467.8,182Zm24.3,-.3c2.3,-1.9,4.2,-4,5.5,-6.1c1.3,-2.2,2.2,-4.3,2.5,-6.4c.1,-.3,0,-.5,-.1,-.6c-.2,0,-.3,-.1,-.6,-.1H493v-1.8h7.4c.7,0,1.2,.1,1.5,.5c.4,.3,.5,.8,.5,1.6c-.2,1.2,-.5,2.5,-.9,3.7c-.5,1.2,-1,2.3,-1.7,3.5c.6,.2,1.1,.4,1.5,.7c.3,.4,.6,.7,.9,1c.5,.7,.9,1.4,1.4,2.1c.4,.7,.9,1.5,1.5,2.4l-1.7,1.2c-.6,-.9,-1.1,-1.8,-1.5,-2.5c-.5,-.7,-.9,-1.4,-1.3,-1.9c-.2,-.3,-.4,-.5,-.7,-.8c-.3,-.2,-.7,-.4,-1.2,-.6c-.7,1,-1.5,2.1,-2.4,3c-.9,1,-1.8,1.9,-2.8,2.8l-1.4,-1.7Zm14.7,6V175.6h-4.1v-1.9h4.1v-8H509v22h-2.2Zm5.4,-22h2.2v22.6h-2.2V165.7ZM544.8,188.2h-2.3V165.7h2.3v22.5Zm-7.1,-11.1c-.3,.8,-.8,1.6,-1.4,2.3c-.6,.6,-1.3,1.1,-2.1,1.5c-.9,.4,-1.8,.6,-2.9,.6c-1,0,-2,-.2,-2.8,-.6c-.9,-.4,-1.6,-.9,-2.2,-1.5c-.5,-.7,-1,-1.5,-1.3,-2.3c-.3,-.9,-.5,-1.9,-.5,-2.9c0,-1,.2,-1.9,.5,-2.8c.3,-.9,.8,-1.7,1.3,-2.4c.6,-.6,1.3,-1.1,2.2,-1.5c.8,-.4,1.8,-.6,2.8,-.6c1.1,0,2,.2,2.9,.6c.8,.4,1.5,.9,2.1,1.5c.6,.7,1.1,1.5,1.4,2.4c.3,.9,.5,1.8,.5,2.8c0,1,-.2,2,-.5,2.9Zm-2.1,-4.9c-.2,-.7,-.5,-1.3,-.9,-1.8c-.4,-.5,-.9,-.8,-1.4,-1.1c-.6,-.3,-1.3,-.5,-2,-.5c-.7,0,-1.3,.2,-1.9,.5c-.6,.3,-1,.6,-1.4,1.1c-.4,.5,-.7,1.1,-.9,1.8c-.2,.6,-.3,1.3,-.3,2c0,.7,.1,1.4,.3,2.1c.2,.6,.5,1.2,.9,1.7c.4,.5,.8,.8,1.4,1.1c.6,.3,1.2,.4,1.9,.4c.7,0,1.4,-.1,2,-.4c.5,-.3,1,-.6,1.4,-1.1c.4,-.5,.7,-1.1,.9,-1.7c.2,-.7,.3,-1.4,.3,-2.1c0,-.7,-.1,-1.4,-.3,-2Zm23.2,7.7c-.3,.7,-.7,1.4,-1.1,1.9c-.5,.5,-1.1,.9,-1.8,1.2c-.7,.3,-1.5,.4,-2.4,.4c-.9,0,-1.7,-.1,-2.4,-.4c-.7,-.3,-1.3,-.7,-1.8,-1.2c-.5,-.6,-.8,-1.2,-1.1,-1.9c-.3,-.7,-.4,-1.5,-.4,-2.3c0,-.8,.1,-1.5,.4,-2.2c.3,-.7,.6,-1.3,1.1,-1.9c.5,-.5,1.1,-.9,1.8,-1.2c.7,-.3,1.5,-.5,2.4,-.5c.9,0,1.7,.2,2.4,.5c.7,.3,1.3,.7,1.8,1.3c.5,.5,.9,1.1,1.1,1.8c.3,.7,.4,1.5,.4,2.2c0,.9,-.1,1.6,-.4,2.3Zm2.9,7.8v-22h2.2V175h3.4v-9.3h2.2v22.6h-2.2V177h-3.4v10.7h-2.2Zm-4.8,-11.5c-.2,-.5,-.4,-.9,-.7,-1.3c-.3,-.4,-.6,-.7,-1.1,-.9c-.4,-.2,-.9,-.3,-1.6,-.3c-1.3,0,-2.2,.4,-2.7,1.2c-.6,.8,-.9,1.7,-.9,2.7c0,1.1,.3,2,.9,2.8c.5,.8,1.4,1.2,2.7,1.2c1.3,0,2.2,-.4,2.8,-1.2c.5,-.8,.8,-1.7,.8,-2.8c0,-.5,-.1,-1,-.2,-1.4ZM552,168.7c.2,-.3,.4,-.6,.5,-.9c0,-.2,.1,-.5,.1,-.9c0,-.4,0,-.7,-.1,-.9c-.1,-.2,-.1,-.5,-.2,-.8l2.2,-.7c.1,.4,.2,.7,.2,1c.1,.4,.1,.6,.1,.7c0,.5,-.1,1,-.2,1.4c-.1,.4,-.3,.8,-.5,1.1h6v1.8H547v-1.8h5Zm33.3,11.6c-.3,.7,-.7,1.4,-1.3,1.9c-.6,.6,-1.2,1,-2,1.3c-.8,.3,-1.6,.4,-2.5,.4c-.9,0,-1.8,-.1,-2.6,-.4c-.7,-.3,-1.4,-.7,-2,-1.3c-.5,-.5,-1,-1.2,-1.3,-1.9c-.3,-.7,-.5,-1.5,-.5,-2.4c0,-.9,.2,-1.7,.5,-2.5c.4,-.7,.8,-1.3,1.4,-1.9c.6,-.5,1.2,-.9,2,-1.2c.8,-.3,1.6,-.4,2.5,-.4c.9,0,1.8,.1,2.6,.5c.7,.3,1.4,.7,1.9,1.3c.6,.5,1,1.2,1.3,1.9c.3,.7,.5,1.5,.5,2.3c0,.9,-.2,1.7,-.5,2.4Zm11.1,-3.4H592v11.4h-2.2V165.7H592v9.4h4.4v1.8Zm-14,-2c-.7,-.8,-1.7,-1.2,-2.9,-1.2c-1.3,0,-2.3,.4,-3,1.2c-.7,.8,-1,1.8,-1,3c0,1.2,.3,2.2,1,3c.7,.7,1.7,1.1,3,1.1c1.3,0,2.2,-.4,2.9,-1.1c.7,-.8,1.1,-1.8,1.1,-3c0,-1.2,-.4,-2.2,-1.1,-3Zm-4.7,-6.2c.3,-.3,.4,-.7,.5,-1c.1,-.4,.1,-.7,.1,-1.1c0,-.2,0,-.4,-.1,-.7c0,-.3,-.1,-.7,-.2,-1l2.3,-.7c.1,.4,.2,.8,.2,1c.1,.2,.1,.5,.1,.8c0,.7,-.1,1.2,-.2,1.6c-.1,.5,-.3,.8,-.5,1.1h6.9v1.8H572v-1.8h5.7ZM598.1,182c2.7,-1.8,4.9,-3.8,6.5,-6c1.6,-2.2,2.5,-4.4,2.8,-6.6c0,-.4,-.1,-.6,-.2,-.7c-.1,-.1,-.3,-.2,-.6,-.2h-8.7v-1.8h9.7c.8,0,1.4,.2,1.7,.7c.3,.4,.4,1,.3,1.8c-.3,2.5,-1.3,5.1,-3,7.6c-1.7,2.5,-4.1,4.9,-7.2,7.1L598.1,182Zm16.4,-16.3h2.3v22.6h-2.3V165.7Z" class="g1_269"/>
<path d="M277.5,477.6V473h10.8v-2.8l6.4,5.1l-6.4,5.1v-2.8Zm-.5,-5.1v5.6h10.7v3.4l7.8,-6.2l-7.8,-6.2v3.4Z" class="g2_269"/>
<path d="M509.2,477.6V473h10.7v-2.8l6.5,5.1l-6.5,5.1v-2.8Zm-.6,-5.1v5.6h10.8v3.4l7.8,-6.2l-7.8,-6.2v3.4Z" class="g2_269"/>
<path d="M740.8,477.6V473h10.8v-2.8l6.4,5.1l-6.4,5.1v-2.8Zm-.5,-5.1v5.6H751v3.4l7.8,-6.2L751,469.1v3.4Z" class="g2_269"/>
<path d="M393.4,477.6V473h10.7v-2.8l6.4,5.1l-6.4,5.1v-2.8Zm-.6,-5.1v5.6h10.7v3.4l7.9,-6.2l-7.9,-6.2v3.4Z" class="g2_269"/>
<path d="M625,477.6V473h10.7v-2.8l6.5,5.1l-6.5,5.1v-2.8Zm-.6,-5.1v5.6h10.8v3.4l7.8,-6.2l-7.8,-6.2v3.4Z" class="g2_269"/>
<path d="M303.9,420.3c0,0,-3.4,0,-3.4,3.4v96.1c0,0,0,3.4,3.4,3.4h81.4c0,0,3.4,0,3.4,-3.4V423.7c0,0,0,-3.4,-3.4,-3.4Z" class="g0_269"/>
<path d="M303.9,420.3c0,0,-3.4,0,-3.4,3.4v96.1c0,0,0,3.4,3.4,3.4h81.4c0,0,3.4,0,3.4,-3.4V423.7c0,0,0,-3.4,-3.4,-3.4H303.9Z" class="g3_269"/>
<path d="M307.3,422.1c0,0,-4.4,0,-4.4,4.3v41.5c0,0,0,4.4,4.4,4.4h74.6c0,0,4.3,0,4.3,-4.4V426.4c0,0,0,-4.3,-4.3,-4.3Z" class="g4_269"/>
<path d="M650.6,420.3c0,0,-3.5,0,-3.5,3.4v96.1c0,0,0,3.4,3.5,3.4h81.3c0,0,3.5,0,3.5,-3.4V423.7c0,0,0,-3.4,-3.5,-3.4Z" class="g0_269"/>
<path d="M650.6,420.3c0,0,-3.5,0,-3.5,3.4v96.1c0,0,0,3.4,3.5,3.4h81.3c0,0,3.5,0,3.5,-3.4V423.7c0,0,0,-3.4,-3.5,-3.4H650.6Z" class="g3_269"/>
<path d="M653.9,422.1c0,0,-4.3,0,-4.3,4.3v41.5c0,0,0,4.4,4.3,4.4h74.6c0,0,4.4,0,4.4,-4.4V426.4c0,0,0,-4.3,-4.4,-4.3Z" class="g4_269"/>
<path d="M419.5,420.3c0,0,-3.5,0,-3.5,3.4v96.1c0,0,0,3.4,3.5,3.4h81.3c0,0,3.5,0,3.5,-3.4V423.7c0,0,0,-3.4,-3.5,-3.4Z" class="g0_269"/>
<path d="M419.5,420.3c0,0,-3.5,0,-3.5,3.4v96.1c0,0,0,3.4,3.5,3.4h81.3c0,0,3.5,0,3.5,-3.4V423.7c0,0,0,-3.4,-3.5,-3.4H419.5Z" class="g3_269"/>
<path d="M422.8,422.1c0,0,-4.3,0,-4.3,4.3v41.5c0,0,0,4.4,4.3,4.4h74.7c0,0,4.3,0,4.3,-4.4V426.4c0,0,0,-4.3,-4.3,-4.3Z" class="g4_269"/>
<path d="M766.1,420.3c0,0,-3.5,0,-3.5,3.4v96.1c0,0,0,3.4,3.5,3.4h81.3c0,0,3.5,0,3.5,-3.4V423.7c0,0,0,-3.4,-3.5,-3.4Z" class="g0_269"/>
<path d="M766.1,420.3c0,0,-3.5,0,-3.5,3.4v96.1c0,0,0,3.4,3.5,3.4h81.3c0,0,3.5,0,3.5,-3.4V423.7c0,0,0,-3.4,-3.5,-3.4H766.1Z" class="g3_269"/>
<path d="M769.4,422.1c0,0,-4.3,0,-4.3,4.3v41.5c0,0,0,4.4,4.3,4.4h74.7c0,0,4.3,0,4.3,-4.4V426.4c0,0,0,-4.3,-4.3,-4.3Z" class="g4_269"/>
<path d="M188.4,420.3c0,0,-3.5,0,-3.5,3.4v96.1c0,0,0,3.4,3.5,3.4h81.3c0,0,3.5,0,3.5,-3.4V423.7c0,0,0,-3.4,-3.5,-3.4Z" class="g0_269"/>
<path d="M188.4,420.3c0,0,-3.5,0,-3.5,3.4v96.1c0,0,0,3.4,3.5,3.4h81.3c0,0,3.5,0,3.5,-3.4V423.7c0,0,0,-3.4,-3.5,-3.4H188.4Z" class="g3_269"/>
<path d="M191.7,422.1c0,0,-4.3,0,-4.3,4.3v41.5c0,0,0,4.4,4.3,4.4h74.7c0,0,4.3,0,4.3,-4.4V426.4c0,0,0,-4.3,-4.3,-4.3Z" class="g4_269"/>
<path d="M535,420.3c0,0,-3.5,0,-3.5,3.4v96.1c0,0,0,3.4,3.5,3.4h81.3c0,0,3.5,0,3.5,-3.4V423.7c0,0,0,-3.4,-3.5,-3.4Z" class="g0_269"/>
<path d="M535,420.3c0,0,-3.5,0,-3.5,3.4v96.1c0,0,0,3.4,3.5,3.4h81.3c0,0,3.5,0,3.5,-3.4V423.7c0,0,0,-3.4,-3.5,-3.4H535Z" class="g3_269"/>
<path d="M538.4,422.1c0,0,-4.4,0,-4.4,4.3v41.5c0,0,0,4.4,4.4,4.4H613c0,0,4.3,0,4.3,-4.4V426.4c0,0,0,-4.3,-4.3,-4.3Z" class="g4_269"/>
<path d="M184.4,580.2h48.8V561.9H184.4v18.3Z" class="g5_269"/>
<path d="M184.4,588.3H353.3v36.2H184.4V588.3Zm168.9,0H427v36.2H353.3V588.3Zm73.7,0h73.6v36.2H427V588.3Zm73.6,0h73.6v36.2H500.6V588.3Zm73.6,0h73.6v36.2H574.2V588.3Zm73.6,0H773.4v36.2H647.8V588.3Zm125.6,0H847v36.2H773.4V588.3Z" class="g6_269"/>
<path d="M184.4,624.5H353.3v52H184.4v-52Zm168.9,0H427v52H353.3v-52Zm73.7,0h73.6v52H427v-52Zm73.6,0h73.6v52H500.6v-52Zm73.6,0h73.6v52H574.2v-52Zm73.6,0H773.4v52H647.8v-52Zm125.6,0H847v52H773.4v-52Zm-589,52H353.3v60.6H184.4V676.5Zm168.9,0H427v60.6H353.3V676.5Zm73.7,0h73.6v60.6H427V676.5Zm73.6,0h73.6v60.6H500.6V676.5Zm73.6,0h73.6v60.6H574.2V676.5Zm73.6,0H773.4v60.6H647.8V676.5Zm125.6,0H847v60.6H773.4V676.5Zm-589,60.6H353.3v52H184.4v-52Zm168.9,0H427v52H353.3v-52Zm73.7,0h73.6v52H427v-52Zm73.6,0h73.6v52H500.6v-52Zm73.6,0h73.6v52H574.2v-52Zm73.6,0H773.4v52H647.8v-52Zm125.6,0H847v52H773.4v-52Z" class="g0_269"/>
<path d="M184.4,789.1H353.3v21.6H184.4V789.1Zm168.9,0H427v21.6H353.3V789.1Zm73.7,0h73.6v21.6H427V789.1Zm73.6,0h73.6v21.6H500.6V789.1Zm73.6,0h73.6v21.6H574.2V789.1Zm73.6,0H773.4v21.6H647.8V789.1Zm125.6,0H847v21.6H773.4V789.1Z" class="g7_269"/>
<path d="M184.4,588.3H353.3m0,0H427m-73.7,36V588.6m73.7,-.3h73.6m-73.6,36V588.6m73.6,-.3h73.6m-73.6,36V588.6m73.6,-.3h73.6m-73.6,36V588.6m73.6,-.3H773.4m-125.6,36V588.6m125.6,-.3H847m-73.6,36V588.6m-589,35.9H353.3m0,0H427m-73.7,51.7V624.7m73.7,-.2h73.6M427,676.2V624.7m73.6,-.2h73.6m-73.6,51.7V624.7m73.6,-.2h73.6m-73.6,51.7V624.7m73.6,-.2H773.4M647.8,676.2V624.7m125.6,-.2H847m-73.6,51.7V624.7m-589,51.8H353.3m0,0H427m-73.7,60.4V676.7m73.7,-.2h73.6M427,736.9V676.7m73.6,-.2h73.6m-73.6,60.4V676.7m73.6,-.2h73.6m-73.6,60.4V676.7m73.6,-.2H773.4M647.8,736.9V676.7m125.6,-.2H847m-73.6,60.4V676.7m-589,60.4H353.3m0,0H427m-73.7,51.7V737.3m73.7,-.2h73.6M427,788.8V737.3m73.6,-.2h73.6m-73.6,51.7V737.3m73.6,-.2h73.6m-73.6,51.7V737.3m73.6,-.2H773.4M647.8,788.8V737.3m125.6,-.2H847m-73.6,51.7V737.3m-589,51.8H353.3m0,0H427m-73.7,21.4V789.3m73.7,-.2h73.6M427,810.5V789.3m73.6,-.2h73.6m-73.6,21.4V789.3m73.6,-.2h73.6m-73.6,21.4V789.3m73.6,-.2H773.4M647.8,810.5V789.3m125.6,-.2H847m-73.6,21.4V789.3m-589,21.4H353.3m0,0H427m0,0h73.6m0,0h73.6m0,0h73.6m0,0H773.4m0,0H847" class="g8_269"/>
<path clip-path="url(#c1_269)" d="M971.5,340.9c0,0,-3.5,0,-3.5,3.5V462.1c0,0,0,3.4,3.5,3.4h77.8c0,0,3.5,0,3.5,-3.4V344.4c0,0,0,-3.5,-3.5,-3.5H971.5Zm0,175c0,0,-3.5,0,-3.5,3.4V637c0,0,0,3.5,3.5,3.5h77.8c0,0,3.5,0,3.5,-3.5V519.3c0,0,0,-3.4,-3.5,-3.4H971.5Z" class="g3_269"/>
<path d="M153.3,126.3v22.2L165,158.7V136.5Z" class="g9_269"/>
<path d="M153.3,109.5v39H851.1c0,0,16.8,0,16.8,-16.8v-5.4c0,0,0,-16.8,-16.8,-16.8Z" class="g5_269"/>
<path d="M207.2,115.7c0,-9.1,-7.9,-16.6,-17.7,-16.6c-9.8,0,-17.7,7.5,-17.7,16.6c0,2.7,.6,5.2,1.8,7.4c1.2,2.4,2.9,4.6,5,6.2c1.2,1,1.6,1.7,1.7,4.3v.6c0,3.3,2.7,5.9,5.9,5.9h6.6c3.2,0,5.8,-2.6,5.8,-5.9v-.6c.2,-2.6,.6,-3.3,1.8,-4.3c2.1,-1.6,3.8,-3.8,5,-6.2c1.2,-2.2,1.8,-4.7,1.8,-7.4Z" class="ga_269"/>
<path d="M207.2,115.7c0,-9.1,-7.9,-16.6,-17.7,-16.6c-9.8,0,-17.7,7.5,-17.7,16.6c0,2.7,.6,5.2,1.8,7.4c1.2,2.4,2.9,4.6,5,6.2c1.2,1,1.6,1.7,1.7,4.3v.6c0,3.3,2.7,5.9,5.9,5.9h6.6c3.2,0,5.8,-2.6,5.8,-5.9v-.6c.2,-2.6,.6,-3.3,1.8,-4.3c2.1,-1.6,3.8,-3.8,5,-6.2c1.2,-2.2,1.8,-4.7,1.8,-7.4Z" class="gb_269"/>
<path d="M194.6,147.4c0,2.8,-2.3,5.1,-5.1,5.1c-2.8,0,-5.1,-2.3,-5.1,-5.1c0,-2.8,2.3,-5.1,5.1,-5.1c2.8,0,5.1,2.3,5.1,5.1Z" class="g0_269"/>
<path d="M194.6,147.4c0,2.8,-2.3,5.1,-5.1,5.1c-2.8,0,-5.1,-2.3,-5.1,-5.1c0,-2.8,2.3,-5.1,5.1,-5.1c2.8,0,5.1,2.3,5.1,5.1Z" class="gb_269"/>
<path d="M182.1,140.2c0,1,.8,1.8,1.8,1.8h11.2c1,0,1.8,-.8,1.8,-1.8v-1.3H182.1Z" class="g0_269"/>
<path d="M182.1,140.2c0,1,.8,1.8,1.8,1.8h11.2c1,0,1.8,-.8,1.8,-1.8v-1.3H182.1v1.3Z" class="gb_269"/>
<path d="M196.9,143.2c0,.8,-.6,1.3,-1.3,1.3H183.4c-.8,0,-1.3,-.5,-1.3,-1.3c0,-.7,.5,-1.3,1.3,-1.3h12.2c.7,0,1.3,.6,1.3,1.3Z" class="g0_269"/>
<path d="M196.9,143.2c0,.8,-.6,1.3,-1.3,1.3H183.4c-.8,0,-1.3,-.5,-1.3,-1.3c0,-.7,.5,-1.3,1.3,-1.3h12.2c.7,0,1.3,.6,1.3,1.3Z" class="gb_269"/>
<path d="M196.9,145.8c0,.7,-.6,1.3,-1.3,1.3H183.4c-.8,0,-1.3,-.6,-1.3,-1.3c0,-.7,.5,-1.3,1.3,-1.3h12.2c.7,0,1.3,.6,1.3,1.3Z" class="g0_269"/>
<path d="M196.9,145.8c0,.7,-.6,1.3,-1.3,1.3H183.4c-.8,0,-1.3,-.6,-1.3,-1.3c0,-.7,.5,-1.3,1.3,-1.3h12.2c.7,0,1.3,.6,1.3,1.3Z" class="gb_269"/>
<path d="M215.5,128.7l8.3,10.4c.6,.7,1.8,.6,2.7,-.2c.9,-.7,1.2,-1.9,.7,-2.6l-8.9,-10.2Z" class="gc_269"/>
<path d="M215.5,128.7l8.3,10.4c.6,.7,1.8,.6,2.7,-.2c.9,-.7,1.2,-1.9,.7,-2.6l-8.9,-10.2l-2.8,2.6Z" class="gb_269"/>
<path d="M217.5,125.1c.5,.6,.3,1.8,-.7,2.6c-.9,.7,-2.1,.8,-2.6,.2c-.6,-.7,-.3,-1.9,.6,-2.6c.9,-.8,2.1,-.9,2.7,-.2Z" class="gd_269"/>
<path d="M217.5,125.1c.5,.6,.3,1.8,-.7,2.6c-.9,.7,-2.1,.8,-2.6,.2c-.6,-.7,-.3,-1.9,.6,-2.6c.9,-.8,2.1,-.9,2.7,-.2Z" class="gb_269"/>
<path d="M212.7,124.7l1.7,2c.3,.3,1,.3,1.5,-.1c.5,-.5,.7,-1.1,.4,-1.5l-1.7,-2Z" class="g0_269"/>
<path d="M212.7,124.7l1.7,2c.3,.3,1,.3,1.5,-.1c.5,-.5,.7,-1.1,.4,-1.5l-1.7,-2l-1.9,1.6Z" class="ge_269"/>
<path d="M214.8,122.9c.4,.5,.2,1.3,-.5,1.8c-.6,.5,-1.4,.6,-1.8,.1c-.4,-.4,-.2,-1.2,.5,-1.7c.6,-.6,1.4,-.6,1.8,-.2Z" class="g0_269"/>
<path d="M214.8,122.9c.4,.5,.2,1.3,-.5,1.8c-.6,.5,-1.4,.6,-1.8,.1c-.4,-.4,-.2,-1.2,.5,-1.7c.6,-.6,1.4,-.6,1.8,-.2Z" class="ge_269"/>
<path d="M216.4,105.4c4.8,5.7,4.1,14.2,-1.7,19c-5.7,4.8,-14.2,4,-19,-1.7c-4.8,-5.7,-4,-14.2,1.7,-19c5.7,-4.8,14.2,-4.1,19,1.7Z" class="g0_269"/>
<path d="M216.4,105.4c4.8,5.7,4.1,14.2,-1.7,19c-5.7,4.8,-14.2,4,-19,-1.7c-4.8,-5.7,-4,-14.2,1.7,-19c5.7,-4.8,14.2,-4.1,19,1.7Z" class="gb_269"/>
<path d="M214,107.4c3.5,4.2,3,10.5,-1.3,14.1c-4.2,3.5,-10.5,2.9,-14,-1.3c-3.5,-4.2,-3,-10.5,1.2,-14c4.2,-3.6,10.5,-3,14.1,1.2Z" class="gf_269"/>
<path d="M214,107.4c3.5,4.2,3,10.5,-1.3,14.1c-4.2,3.5,-10.5,2.9,-14,-1.3c-3.5,-4.2,-3,-10.5,1.2,-14c4.2,-3.6,10.5,-3,14.1,1.2Z" class="gb_269"/>
<path d="M213,110.6l-3.1,3m3.1,-.4l-3.1,3" class="gg_269"/>
<path d="M172.1,99l3.1,3.3m1.1,-5.9l1.2,3.9m-8.1,3l3.7,1.2" class="gh_269"/>
<path d="M185.8,106.1c1.2,1.2,.2,4.3,-2.2,6.7c-2.5,2.5,-5.5,3.5,-6.8,2.3c-1.2,-1.3,-.3,-4.3,2.2,-6.8c2.5,-2.5,5.5,-3.5,6.8,-2.2Z" class="g0_269"/>
<path d="M203.7,107.6c.6,.6,.1,1.9,-.9,3c-1.1,1,-2.4,1.5,-3,.9c-.5,-.5,-.1,-1.8,1,-2.9c1.1,-1.1,2.4,-1.5,2.9,-1Z" class="g0_269"/>
<path d="M32.1,45.1H9.2m958.3,0h22.9M32.1,1331.3H9.2m958.3,0h22.9M45.1,32.1V9.2m0,1335.1v22.9M954.5,32.1V9.2m0,1335.1v22.9" class="gi_269"/>
<path d="M32.1,45.1H9.2m958.3,0h22.9M32.1,1331.3H9.2m958.3,0h22.9M45.1,32.1V9.2m0,1335.1v22.9M954.5,32.1V9.2m0,1335.1v22.9" class="gj_269"/>
<path d="M27.5,32.1H0m972.1,0h27.5M27.5,1344.3H0m972.1,0h27.5M32.1,27.5V0m0,1348.9v27.5M967.5,27.5V0m0,1348.9v27.5" class="gi_269"/>
<path d="M27.5,32.1H0m972.1,0h27.5M27.5,1344.3H0m972.1,0h27.5M32.1,27.5V0m0,1348.9v27.5M967.5,27.5V0m0,1348.9v27.5" class="gj_269"/>
</svg>