<?xml version="1.0" encoding="UTF-8" standalone="no"?>
<!DOCTYPE svg PUBLIC "-//W3C//DTD SVG 1.1//EN"
"http://www.w3.org/Graphics/SVG/1.1/DTD/svg11.dtd">
<svg viewBox="0 0 999 1376" version="1.1" xmlns="http://www.w3.org/2000/svg" xmlns:xlink="http://www.w3.org/1999/xlink">
<defs>
<clipPath id="c0_322"><path d="M32.1,1344.3V32.1H967.5V1344.3Z"/></clipPath>
<clipPath id="c1_322"><path d="M176.9,546.1L170.4,544L154,530V472.9h72v73.2Z"/></clipPath>
<clipPath id="c2_322"><path d="M177.5,546.1L171,544L154.6,530V472.9h72v73.2Z"/></clipPath>
<clipPath id="c3_322"><path d="M176.9,1118.6l-6.5,-2.2L154,1102.5v-57.1h72v73.2Z"/></clipPath>
<clipPath id="c4_322"><path d="M68,764.9V653.3H225.8V764.9Z"/></clipPath>
<clipPath id="c5_322"><path d="M66.8,769.4V650.5H224.7V769.4Z"/></clipPath>
<clipPath id="c6_322"><path d="M66.5,769V650.2H224.4V769Z"/></clipPath>
<clipPath id="c7_322"><path d="M138.2,672.7c-.3,-.1,3.5,-8.2,3.5,-8.2l.8,.5c0,0,-4,7.7,-4.3,7.7Z"/></clipPath>
<clipPath id="c8_322"><path d="M145.7,665c0,0,-6.9,-1.1,-7.6,-5.3c-.7,-3.6,1.5,-3.8,2.1,-3.8q.1,0,.1,0l8.3,-12.7l-1.4,-3.1c0,0,-.6,-1.1,.1,-2.1c0,0,.2,-.1,.3,-.1c2.1,0,13,5.6,13,5.6v.1c-.3,.5,-.7,1.2,-1.4,1.7c-.6,.5,-5.1,1.1,-5.1,1.1L145.7,665Z"/></clipPath>
<clipPath id="c9_322"><path d="M145.3,664.6c.2,-.4,.2,-1.8,0,-2.2V661c-1.6,-.6,-2.9,-1.3,-3.7,-2.5c-1.1,.5,-2.1,1.2,-3.1,1.8c1.5,2.2,3.8,3.6,6.8,4.3Zm0,-3.9c2.2,-4.5,4,-9.5,6.1,-14.1c-.9,-.3,-1.8,-1.3,-2.6,-1.3c-2.3,4.3,-4.6,8.6,-7,12.8c.7,1.3,2.1,2,3.5,2.6ZM138,672.8c1,-2.9,2.4,-5.5,3.5,-8.3c-2,-1.5,-3.9,-3.1,-4.4,-6.2v-1.5c0,-2.7,1.9,-3.4,4.6,-3.4c0,0,.1,0,.2,0c1.9,-3.3,4.2,-6.3,6.1,-9.6c-.5,-.9,-1.1,-2.4,-.8,-3.7c.5,1.3,1.6,1.9,2.3,2.9c-.1,.6,-.2,1.1,-.3,1.8c.6,.6,1.3,1.1,2.4,1.3c.4,-.4,.5,-1.2,1.1,-1.5c.9,.4,1.8,.8,3.1,.8c.2,.1,.5,.1,.8,.1c.4,0,.7,0,.9,-.1c.1,0,.2,0,.3,0c.2,0,.4,0,.6,-.1c.2,-.1,.3,-.1,.5,-.1c.1,0,.2,0,.3,.1c-1.3,.6,-2.2,1.7,-4.1,1.7c-.2,0,-.3,0,-.4,0c-.9,3.8,-1.9,7.4,-2.6,11.2c.5,1.1,1.5,1.7,1.2,3.2c-.4,2.7,-3.8,4.3,-7.2,4.3c-1.2,0,-2.5,-.2,-3.6,-.7c-1,2.1,-2.1,4.1,-3.3,6c0,-.3,.3,-.4,.3,-.7c.9,-1.8,1.9,-3.6,2.6,-5.7c-1,1.7,-1.8,3.7,-2.7,5.5c-.2,.5,-.5,.9,-.7,1.3c-.3,.4,-.3,1.1,-.7,1.4Z"/></clipPath>
<clipPath id="ca_322"><path d="M155.7,645c-4.8,0,-13.1,-7.3,-5.5,-8.8h1.2c.2,.1,.4,.1,.5,.1c.1,0,.2,0,.2,0q.1,0,.2,0c.3,0,.6,0,.9,0c3.1,.7,8.2,3.8,7.5,7.1c-.2,1.1,-1.5,1.6,-3.1,1.6h-1.9Z"/></clipPath>
<clipPath id="cb_322"><path d="M64.7,1024.4V935.9H206v88.5Z"/></clipPath>
<clipPath id="cc_322"><path d="M67,1019.9V942.3H203.4v77.6Z"/></clipPath>
<clipPath id="cd_322"><path d="M66.7,1019.6V942H203.1v77.6Z"/></clipPath>
<clipPath id="ce_322"><path d="M120.9,958.5c-.2,-.1,3.6,-8.2,3.6,-8.2l.8,.5c0,0,-4.1,7.7,-4.4,7.7Z"/></clipPath>
<clipPath id="cf_322"><path d="M128.4,950.8c0,0,-6.8,-1.1,-7.6,-5.2c-.6,-3.6,1.6,-3.9,2.1,-3.9q.1,0,.1,0L131.4,929l-1.5,-3.1c0,0,-.6,-1.1,.1,-2c.1,-.1,.2,-.1,.4,-.1c2.1,0,12.9,5.5,12.9,5.5l.1,.2c-.4,.5,-.8,1.1,-1.4,1.6c-.7,.5,-5.1,1.2,-5.1,1.2l-8.5,18.5Z"/></clipPath>
<clipPath id="cg_322"><path d="M128,950.4c.2,-.4,.2,-1.8,0,-2.2v-1.4c-1.5,-.5,-2.9,-1.2,-3.6,-2.5c-1.1,.6,-2.2,1.2,-3.2,1.9c1.6,2.1,3.9,3.5,6.8,4.2Zm0,-3.8c2.2,-4.6,4,-9.6,6.2,-14.1c-.9,-.4,-1.9,-1.3,-2.7,-1.4c-2.3,4.3,-4.6,8.6,-7,12.8c.7,1.3,2.1,2,3.5,2.7Zm-7.3,12c1.1,-2.9,2.4,-5.5,3.5,-8.3c-1.9,-1.5,-3.9,-3.1,-4.4,-6.1v-1.5c0,-2.7,2,-3.4,4.6,-3.4c.1,0,.2,0,.2,0c2,-3.4,4.2,-6.4,6.2,-9.7c-.6,-.9,-1.2,-2.4,-.9,-3.7c.5,1.3,1.6,1.9,2.4,2.9c-.1,.6,-.3,1.2,-.4,1.8c.6,.7,1.3,1.2,2.4,1.4c.5,-.4,.5,-1.3,1.1,-1.5c1,.3,1.9,.7,3.2,.7c.1,.1,.4,.2,.8,.2c.3,0,.7,-.1,.8,-.2c.1,0,.2,.1,.3,.1c.2,0,.4,-.1,.6,-.2c.2,0,.4,-.1,.5,-.1c.2,0,.3,0,.4,.1c-1.4,.7,-2.2,1.8,-4.2,1.8c-.1,0,-.2,0,-.4,0c-.8,3.7,-1.8,7.3,-2.6,11.1c.5,1.1,1.5,1.7,1.3,3.2c-.5,2.7,-3.9,4.4,-7.2,4.4c-1.3,0,-2.6,-.3,-3.6,-.8c-1.1,2.1,-2.1,4.2,-3.3,6.1c0,-.4,.3,-.4,.2,-.8c1,-1.8,2,-3.6,2.7,-5.7c-1.1,1.8,-1.9,3.7,-2.8,5.6c-.2,.4,-.4,.8,-.6,1.2c-.3,.4,-.3,1.2,-.8,1.4Z"/></clipPath>
<clipPath id="ch_322"><path d="M138.5,930.8c-4.8,0,-13.1,-7.3,-5.6,-8.8h1.3c.2,.1,.4,.1,.6,.1h.1c0,0,.1,0,.2,0c.2,0,.5,0,.8,.1c3.1,.6,8.3,3.8,7.6,7c-.3,1.2,-1.6,1.6,-3.2,1.6h-1.7q-.1,0,-.1,0Z"/></clipPath>
<clipPath id="ci_322"><path d="M764.8,428.1V415.7h14.5v12.4Z"/></clipPath>
<clipPath id="cj_322"><path d="M125.5,386.7V205.8H858.6V386.7Z"/></clipPath>
<style type="text/css"><![CDATA[
.g0_322{
fill: #FEFCF4;
}
.g1_322{
fill: #FFF;
}
.g2_322{
fill: none;
stroke: #6381B7;
stroke-width: 0.763;
}
.g3_322{
fill: #6381B7;
}
.g4_322{
fill: none;
stroke: #6381B7;
stroke-width: 0.381;
stroke-dasharray: 2,1;
}
.g5_322{
fill: none;
stroke: #6381B7;
stroke-width: 0.381;
}
.g6_322{
fill: #FCE8B0;
}
.g7_322{
fill: none;
stroke: #818385;
stroke-width: 0.305;
stroke-dasharray: 3,3;
}
.g8_322{
fill: none;
stroke: #818385;
stroke-width: 0.305;
}
.g9_322{
fill: #F7C2D9;
}
.ga_322{
fill: #FDF4F3;
}
.gb_322{
fill: #EC008C;
}
.gc_322{
fill: none;
stroke: #949698;
stroke-width: 0.305;
stroke-dasharray: 4,4;
}
.gd_322{
fill: none;
stroke: #949698;
stroke-width: 0.305;
stroke-dasharray: 3,3;
}
.ge_322{
fill: none;
stroke: #949698;
stroke-width: 0.305;
}
.gf_322{
fill: #6D6F71;
}
.gg_322{
fill: none;
stroke: #818385;
stroke-width: 0.305;
stroke-dasharray: 4,4;
}
.gh_322{
fill: #2E6E51;
}
.gi_322{
fill: none;
stroke: #FFF;
stroke-width: 0.152;
stroke-miterlimit: 1;
}
.gj_322{
fill: #BCBEC0;
}
.gk_322{
fill: #EE314A;
}
.gl_322{
fill: #25408F;
}
.gm_322{
fill: #A8AAAD;
}
.gn_322{
fill: none;
stroke: #949698;
stroke-width: 0.549;
}
.go_322{
fill: none;
stroke: #BCBEC0;
stroke-width: 2.566;
}
.gp_322{
fill: #231F20;
}
.gq_322{
fill: #363637;
}
.gr_322{
fill: #5CC4BE;
}
.gs_322{
fill: #EAD646;
}
.gt_322{
fill: #CEEDFB;
}
.gu_322{
fill: #27639D;
}
.gv_322{
fill: none;
stroke: #C3E7F1;
stroke-width: 1.527;
}
.gw_322{
fill: none;
stroke: #FFF;
stroke-width: 1.909;
stroke-miterlimit: 10;
}
.gx_322{
fill: none;
stroke: #000;
stroke-width: 0.381;
stroke-miterlimit: 10;
}
]]></style>
</defs>
<path d="M32.1,1343.2H954.5V32.1H32.1V1343.2Z" class="g0_322"/>
<path clip-path="url(#c0_322)" d="M954.5,1344.3H1877V32.1H954.5V1344.3Z" class="g0_322"/>
<path d="M150.4,417.4c0,0,-18.3,0,-18.3,18.3V988.6c0,0,0,18.3,18.3,18.3H827.5c0,0,18.4,0,18.4,-18.3V417.4Z" class="g1_322"/>
<path d="M150.4,417.4c0,0,-18.3,0,-18.3,18.3V988.6c0,0,0,18.3,18.3,18.3H827.5c0,0,18.4,0,18.4,-18.3V417.4H150.4Z" class="g2_322"/>
<path d="M390.4,1216.2c0,0,-4.3,0,-4.3,4.3v10.8c0,0,0,4.3,4.3,4.3h30.4c0,0,4.3,0,4.3,-4.3v-10.8c0,0,0,-4.3,-4.3,-4.3Z" class="g3_322"/>
<path d="M377.3,1208.7v34.8m1.3,1H845.1m1,-1.4v-34.8m-1.4,-1H378.2" class="g4_322"/>
<path d="M377.3,1243.9v.6h.5m467.7,0h.6v-.6m0,-36v-.6h-.6m-467.7,0h-.5v.6" class="g5_322"/>
<path d="M145.1,1029.4c0,0,-13,0,-13,13v144.8c0,0,0,13,13,13H832.9c0,0,13,0,13,-13V1042.4c0,0,0,-13,-13,-13Z" class="g1_322"/>
<path d="M145.1,1029.4c0,0,-13,0,-13,13v144.8c0,0,0,13,13,13H832.9c0,0,13,0,13,-13V1042.4c0,0,0,-13,-13,-13H145.1Z" class="g2_322"/>
<path d="M209.5,475.1c0,0,-13,0,-13,13v47.6c0,0,0,13,13,13h602c0,0,13,0,13,-13V488.1c0,0,0,-13,-13,-13Z" class="g6_322"/>
<image clip-path="url(#c1_322)" preserveAspectRatio="none" x="152" y="471" width="75" height="77" xlink:href="img/1.png"/>
<path d="M204.3,541.4c0,0,-26.8,11.3,-51.1,-12.8c0,0,15.2,25.3,49.3,24c0,0,24.8,.3,20.2,-10.2c0,0,1.3,-4.4,-18.4,-1Z" class="g6_322"/>
<path d="M210.1,475.1c0,0,-13,0,-13,13v47.6c0,0,0,13,13,13h602c0,0,13,0,13,-13V488.1c0,0,0,-13,-13,-13Z" class="g6_322"/>
<image clip-path="url(#c2_322)" preserveAspectRatio="none" x="153" y="471" width="75" height="77" xlink:href="img/2.png"/>
<path d="M204.9,541.4c0,0,-26.8,11.3,-51.1,-12.8c0,0,15.2,25.3,49.3,24c0,0,24.7,.3,20.2,-10.2c0,0,1.3,-4.4,-18.4,-1Z" class="g6_322"/>
<path d="M209.5,1073.6c0,0,-13,0,-13,13v21.6c0,0,0,13,13,13h602c0,0,13,0,13,-13v-21.6c0,0,0,-13,-13,-13Z" class="g6_322"/>
<image clip-path="url(#c3_322)" preserveAspectRatio="none" x="152" y="1044" width="75" height="76" xlink:href="img/3.png"/>
<path d="M204.3,1113.9c0,0,-26.8,11.3,-51.1,-12.8c0,0,15.2,25.3,49.3,24c0,0,24.8,.3,20.2,-10.2c0,0,1.3,-4.4,-18.4,-1Z" class="g6_322"/>
<path d="M342.4,678c24.5,-.5,44.3,-5.8,48.6,-12.6m-.9,-6.7C384.3,652.3,364.7,647.6,341,647.2m-7.3,0c-24.5,.6,-44.3,5.9,-48.6,12.7m.9,6.7c5.8,6.3,25.4,11.1,49.1,11.4" class="g7_322"/>
<path d="M391.6,664.1c.1,-.5,.2,-1,.2,-1.5c0,-.4,-.1,-.9,-.2,-1.4m-52.1,-14c-.5,0,-1,0,-1.5,0c-.4,0,-.9,0,-1.4,0m-52.1,14c-.1,.5,-.2,1,-.2,1.4c0,.5,.1,1,.2,1.5m52.1,14c.5,0,1,0,1.4,0c.5,0,1,0,1.5,0" class="g8_322"/>
<image clip-path="url(#c4_322)" preserveAspectRatio="none" x="67" y="654" width="158" height="111" xlink:href="img/4.png"/>
<path d="M72.7,670.5l8.6,88.3L219.9,746.5l-9.3,-88.4Z" class="g9_322"/>
<image clip-path="url(#c5_322)" preserveAspectRatio="none" x="66" y="651" width="159" height="119" xlink:href="img/5.png"/>
<image clip-path="url(#c6_322)" preserveAspectRatio="none" x="66" y="651" width="158" height="118" xlink:href="img/6.png"/>
<path d="M71,677.2l13.4,85.7L198.5,744.3L218.4,722L208,655Z" class="ga_322"/>
<path d="M198.5,744.3l19.9,-22.2l-19.8,1.4Z" class="gb_322"/>
<path d="M279.6,660.1c-9.7,-3.4,-33.6,-10.6,-55.1,-8m-7.8,1.7c-5.4,2.3,1.2,5,5.3,4.9" class="gc_322"/>
<path d="M223.3,654c-1.9,-1.1,-5.2,-1.7,-9.2,-1.7" class="gd_322"/>
<path d="M206.9,653c-9.1,1.5,-24.4,6.4,-35.9,17.8" class="gc_322"/>
<path d="M284.1,661.8c0,0,-.5,-.2,-1.5,-.6m-59.7,-8.8c-.5,0,-1,.1,-1.5,.2c-.6,.1,-1.1,.2,-1.6,.3m3.8,5.5c.6,-.2,1,-.5,1.2,-1c.2,-.4,.2,-.9,.1,-1.3m-12.2,-3.7c-.4,0,-.9,0,-1.3,0c-.5,.1,-1,.1,-1.5,.2M170,671.9c-.4,.4,-.7,.8,-1.1,1.1" class="ge_322"/>
<path d="M169.2,665.1l7.3,5l-10.2,6.7Z" class="gf_322"/>
<image clip-path="url(#c7_322)" x="137" y="664" width="6" height="9" xlink:href="shade/1.png"/>
<image clip-path="url(#c8_322)" x="137" y="637" width="24" height="28" xlink:href="shade/2.png"/>
<image clip-path="url(#c9_322)" x="137" y="640" width="23" height="33" xlink:href="shade/3.png"/>
<image clip-path="url(#ca_322)" x="142" y="636" width="20" height="10" xlink:href="shade/4.png"/>
<path d="M339.7,955c22.9,-.6,41.6,-5.5,45.9,-12m-1,-7c-5.9,-6,-24.3,-10.5,-46.5,-10.9m-7.8,0c-22.9,.6,-41.5,5.6,-45.9,12.1m1,7c5.9,6,24.3,10.5,46.5,10.9" class="gg_322"/>
<path d="M386.3,941.6c.2,-.5,.3,-1,.3,-1.5c0,-.5,-.1,-1,-.3,-1.5M336.6,925.1c-.5,0,-1.1,0,-1.6,0c-.5,0,-1,0,-1.5,0m-49.8,13.5c-.2,.5,-.3,1,-.3,1.5c0,.5,.1,1,.3,1.5m49.8,13.5c.5,0,1,0,1.5,0c.5,0,1.1,0,1.6,0" class="g8_322"/>
<image clip-path="url(#cb_322)" preserveAspectRatio="none" x="64" y="936" width="141" height="89" xlink:href="img/7.png"/>
<path d="M69.4,959.4l11.2,59.1L200,999.3L188,940.5Z" class="g9_322"/>
<image clip-path="url(#cc_322)" preserveAspectRatio="none" x="66" y="942" width="137" height="78" xlink:href="img/8.png"/>
<image clip-path="url(#cd_322)" preserveAspectRatio="none" x="66" y="942" width="136" height="78" xlink:href="img/9.png"/>
<path d="M71.6,955.5l3.9,57.9l102.1,-8l19.3,-15.8L194,946.7Z" class="ga_322"/>
<path d="M176.6,1005.9l20.3,-16.2H178.5Z" class="gb_322"/>
<path d="M283,935.5c-13.6,-.8,-53.8,-2.3,-71.8,4.8" class="gc_322"/>
<path d="M204.8,943.7c-10.8,7.5,3.3,11.1,8.1,7.5m.7,-6.4c-2.2,-3,-8.1,-3.4,-14.9,-2" class="gd_322"/>
<path d="M191.3,944.9c-7.7,2.5,-15.4,6.4,-25.5,15.9" class="gc_322"/>
<path d="M287.6,935.8c0,0,-.5,0,-1.5,-.1m-76.3,5.2c-.5,.2,-1,.5,-1.4,.7c-.4,.2,-.8,.4,-1.2,.7m6.6,7.9c.3,-.3,.5,-.8,.5,-1.2c.1,-.5,.1,-1,.1,-1.5m-17.1,-4.4c-.4,.2,-.9,.3,-1.4,.4c-.5,.2,-1,.3,-1.5,.4M164.7,962c-.4,.3,-.8,.7,-1.1,1.1" class="ge_322"/>
<path d="M163.4,956.7l7.8,4.1l-9.2,7.9Z" class="gf_322"/>
<image clip-path="url(#ce_322)" x="120" y="950" width="6" height="9" xlink:href="shade/5.png"/>
<image clip-path="url(#cf_322)" x="120" y="923" width="24" height="28" xlink:href="shade/6.png"/>
<image clip-path="url(#cg_322)" x="119" y="925" width="23" height="34" xlink:href="shade/7.png"/>
<image clip-path="url(#ch_322)" x="125" y="922" width="20" height="9" xlink:href="shade/8.png"/>
<path d="M32.1,179.3H967.5V32.1H32.1V179.3Z" class="gh_322"/>
<path d="M260.9,147.8v-12c0,-.4,-.3,-.8,-.8,-1.2c-.5,-.5,-1,-.7,-1.4,-.7c-.6,0,-1.2,.1,-1.8,.5c-.6,.3,-1.2,.7,-1.7,1.2c-1.1,1.2,-1.6,2.4,-1.6,3.7c0,.6,.2,1.1,.5,1.5c.4,.4,.9,.6,1.5,.6c.5,0,.9,-.2,1.2,-.4c.3,-.3,.5,-.6,.5,-1.1c0,-.9,-.3,-1.3,-.9,-1.3c-.3,0,-.5,0,-.9,0c.1,-.4,.3,-.8,.5,-1.1c.2,-.4,.4,-.8,.7,-1.2c.4,-.4,.7,-.7,1.1,-.9c.3,-.2,.7,-.3,1,-.3c.6,0,.9,.1,.9,.3v9.1c-1.2,-.9,-2.3,-1.4,-3.6,-1.4H255c-.2,0,-.5,0,-.7,0h-.5c-.5,0,-.9,0,-1.3,-.1c-.4,-.1,-.7,-.2,-1,-.3c-.3,-.2,-.5,-.5,-.7,-.9c-.2,-.4,-.3,-.8,-.3,-1.3c0,-.6,.1,-1.1,.2,-1.5c.1,-.4,.3,-.8,.5,-1.2l-.4,-.4c-.4,.4,-.6,.8,-.8,1.3c-.2,.6,-.3,1.2,-.3,1.8c0,3,1.5,4.5,4.4,4.5c.2,0,.5,0,.8,0c.3,0,.6,-.1,1.1,-.1c.8,-.1,1.4,-.2,1.8,-.2c.7,0,1.3,.3,1.8,.8c.1,.2,.2,.4,.3,.6c.1,.3,.2,.6,.4,.9c.1,.4,.2,.7,.4,.8h.2Zm13.6,-12.6L273.3,134H261.5l1.2,1.2h8.2v.9c-2.5,.8,-5,2.1,-7.4,3.7l1.6,2.3c1.7,.1,3,.7,4.1,1.6c.3,.3,.6,.6,.9,1c.3,.4,.6,.8,.8,1.2c.1,.3,.3,.5,.3,.7c.1,.1,.1,.2,.2,.4l.6,.8V135.2h2.5Zm-3.6,9.4c-1.1,-1.8,-2.7,-3.2,-4.8,-4.1c.8,-.6,1.7,-1.1,2.4,-1.5c.8,-.4,1.6,-.7,2.4,-1v6.6Zm7.9,-9.4L277.6,134h-1.1c-.3,-.4,-.6,-1,-.7,-1.9l-.5,-.3c0,.2,0,.5,.1,.9c0,.3,0,.7,0,1.2c.1,.5,.1,.9,.1,1.3c0,.3,0,.6,0,.9c-.2,-.8,-.5,-1.3,-.9,-1.6c-.4,-.3,-1,-.5,-1.7,-.5h-1.4l1.2,1.2c.3,0,.7,.1,1,.2c.3,.1,.6,.3,.9,.5c.2,.2,.4,.4,.5,.7c.2,.3,.3,.7,.3,1v8.9l1.1,1.2V135.2h2.3Zm5.9,-1.2h-7.9l1.2,1.2h3.9c-1.7,2,-2.5,4,-2.5,6.1c0,1.5,.3,2.8,.9,3.9c.8,1.4,1.8,2.1,3.2,2.1c.3,0,.6,0,.9,-.1c.2,-.1,.5,-.2,.7,-.4c.2,-.2,.3,-.4,.4,-.7c.1,-.2,.2,-.5,.2,-.8c0,-.4,-.1,-.9,-.4,-1.2c-.3,-.3,-.6,-.5,-1,-.5c-.4,0,-.8,.2,-1.1,.4c-.3,.3,-.4,.6,-.4,1c0,.2,0,.4,.2,.7c.1,.2,.3,.4,.5,.6c-.7,.2,-1.4,-.2,-2.2,-1.3c-.4,-.7,-.7,-1.5,-.7,-2.3c0,-1,.1,-1.9,.3,-2.7c.3,-.7,.6,-1.4,1,-2.1c.4,-.7,1,-1.3,1.6,-1.7c.7,-.5,1.5,-.8,2.4,-1L284.7,134Zm12.2,1.2L295.7,134H283.9l1.1,1.2h8.2v.9c-2.5,.8,-4.9,2.1,-7.3,3.7l1.6,2.3h-.1c1.7,.1,3.1,.7,4.1,1.6c.3,.3,.6,.6,.9,1c.4,.4,.6,.8,.8,1c.1,.3,.3,.7,.5,1.3l.7,.8V135.2h2.5Zm-3.7,9.4c-1,-1.8,-2.6,-3.2,-4.8,-4.1c.9,-.6,1.7,-1.1,2.5,-1.5c.8,-.4,1.6,-.7,2.3,-1v6.6Zm-4.7,1.7c.3,.3,.6,.4,.9,.4c.3,0,.6,-.1,.9,-.4c.2,-.2,.3,-.5,.3,-.8c0,-.4,-.1,-.7,-.3,-.9c-.3,-.3,-.6,-.4,-.9,-.4c-.3,0,-.6,.1,-.9,.4c-.2,.2,-.3,.5,-.3,.9c0,.3,.1,.6,.3,.8Zm19.4,-11.1L306.7,134H294.9l1.2,1.2h8.2v.9c-2.5,.8,-4.9,2.1,-7.3,3.7l1.5,2.3c1.7,.1,3.1,.7,4.1,1.6c.3,.3,.6,.6,.9,1c.4,.4,.6,.8,.7,1c.2,.3,.4,.7,.6,1.3l.7,.8V135.2h2.4Zm-3.6,9.4c-1.1,-1.8,-2.7,-3.2,-4.8,-4.1c.8,-.6,1.7,-1.1,2.5,-1.5c.8,-.4,1.5,-.7,2.3,-1v6.6Zm-4.7,1.7c.3,.3,.5,.4,.9,.4c.3,0,.6,-.1,.9,-.4c.2,-.2,.3,-.5,.3,-.8c0,-.4,-.1,-.7,-.3,-.9c-.3,-.3,-.6,-.4,-.9,-.4c-.4,0,-.6,.1,-.9,.4c-.2,.2,-.4,.5,-.4,.9c0,.3,.2,.6,.4,.8ZM327.2,134c-.1,0,-.3,0,-.3,0c-.8,0,-1.1,-.4,-1.1,-1.3c0,-.1,0,-.2,0,-.3l-.7,-.7c0,.5,.1,1,.1,1.5c0,.6,0,1.2,.1,1.9l.1,3.5c-.5,-1.6,-1,-2.6,-1.5,-3.2c-.7,-.8,-1.7,-1.3,-3,-1.3c-.5,0,-1,.1,-1.5,.2c-.4,.2,-.9,.4,-1.3,.7c-.9,.6,-1.3,1.4,-1.3,2.4c0,.4,.1,.8,.4,1.1c.3,.4,.6,.6,.9,.6c.1,0,.3,0,.5,-.1c.2,-.1,.5,-.2,.8,-.4c.6,-.3,1,-.5,1.1,-.5c.5,0,.7,.2,.7,.6c-.2,.4,-.6,.9,-1.2,1.5c-.7,.6,-1.1,1,-1.3,1.1l1.4,1.6c.7,-.9,1.3,-1.6,1.8,-2.1c.4,-.6,.6,-1.1,.6,-1.6c0,-.3,0,-.6,-.2,-.9c-.1,-.3,-.3,-.5,-.5,-.7c-.2,-.1,-.5,-.3,-.8,-.4c-.3,-.1,-.6,-.1,-.9,-.1c-.5,0,-1,.1,-1.6,.4c.5,-1.3,1.5,-1.9,2.9,-1.9c.9,0,1.7,.5,2.5,1.5c.3,.5,.6,.9,.8,1.4c.2,.5,.3,1,.3,1.5c0,.4,-.1,.9,-.1,1.6c0,.9,0,2.2,-.1,4c-.2,-.4,-.6,-.8,-1,-1c-.4,-.3,-.9,-.5,-1.4,-.6c-.2,-.1,-.6,-.1,-1.2,-.2c-.6,-.1,-1.3,-.1,-2.2,-.1c-.3,0,-.7,-.1,-1,-.2c-.4,-.1,-.7,-.3,-.9,-.5c-.3,-.2,-.5,-.5,-.6,-.8c-.2,-.3,-.3,-.6,-.3,-1.1c0,-.1,.1,-.3,.1,-.5l-.6,-.7c-.1,-.1,-.1,.6,-.1,2v.1c0,.3,0,.6,.1,.9c.1,.3,.2,.7,.5,1c.1,.2,.2,.4,.4,.6c.2,.2,.4,.4,.7,.5c.2,.2,.5,.3,.9,.4c.3,.1,.7,.2,1.1,.2c.5,0,1,-.1,1.5,-.1c.5,0,.8,0,1.1,0c1.2,0,2.2,.3,2.7,.9l1.6,1.6V135.2h2.2L327.2,134Zm5.9,1.2L331.9,134h-1.1c-1.2,-4.2,-3.7,-6.3,-7.6,-6.3c-.5,0,-.9,0,-1.4,.1c-.5,.1,-1,.3,-1.4,.4c-.5,.3,-1,.6,-1.3,.9c-.3,.3,-.4,.6,-.4,1c0,.4,.1,.8,.5,1.1c.3,.3,.7,.6,1.2,.8c.2,0,.6,0,1.1,.1c.5,.1,1.3,.2,2.2,.3c1.2,.1,1.8,.4,1.8,.9c0,.3,-.1,.6,-.5,.8h1.2c.1,-.4,.1,-.7,.1,-.7c0,-.6,-.2,-1.1,-.5,-1.4c-.3,-.4,-.8,-.7,-1.4,-.9c-.5,-.1,-1.6,-.2,-3.3,-.3c-1.2,-.1,-1.8,-.3,-1.8,-.7c0,-.4,.5,-.7,1.4,-.9c.4,-.1,.7,-.2,1,-.2c.4,-.1,.7,-.1,1,-.1c4,0,6.3,1.7,6.9,5.1h-3.1l1.3,1.2h1.8v11.3l1.2,1.2V135.2h2.3Zm5.8,-1.2h-8l1.2,1.2h4c-1.7,2,-2.5,4,-2.5,6.1c0,1.5,.3,2.8,.9,3.9c.8,1.4,1.8,2.1,3.2,2.1c.3,0,.6,0,.8,-.1c.3,-.1,.5,-.2,.7,-.4c.2,-.2,.4,-.4,.5,-.7c.1,-.2,.2,-.5,.2,-.8c0,-.4,-.2,-.9,-.4,-1.2c-.3,-.3,-.7,-.5,-1.1,-.5c-.3,0,-.7,.2,-1,.4c-.3,.3,-.4,.6,-.4,1c0,.2,0,.4,.1,.7c.2,.2,.4,.4,.6,.6c-.7,.2,-1.5,-.2,-2.2,-1.3c-.5,-.7,-.7,-1.5,-.7,-2.3c0,-1,.1,-1.9,.3,-2.7c.2,-.7,.5,-1.4,1,-2.1c.4,-.7,1,-1.3,1.6,-1.7c.7,-.5,1.5,-.8,2.4,-1L338.9,134Zm5.9,6c.5,-.2,.9,-.4,1.4,-.7c.2,.2,.4,.4,.6,.6c.1,.2,.3,.4,.4,.5c.1,.2,.2,.4,.2,.5c.1,.1,.1,.2,.1,.2c-.7,0,-1.2,.1,-1.5,.4c-.4,.3,-.6,.6,-.7,1c0,.3,0,.6,.1,.8c0,.3,.1,.5,.3,.7c.1,.2,.3,.4,.6,.5c.2,.1,.5,.2,.8,.2c.5,0,.9,-.2,1.2,-.5c.3,-.3,.4,-.6,.5,-1c.2,.1,.3,.2,.5,.4c.2,.2,.3,.4,.5,.7c.2,.2,.3,.5,.5,.8c.2,.3,.3,.6,.5,.9l.3,.7l.7,.5v-12h1.6L352.2,134h-14l1.3,1.2h3c-.5,.4,-.9,.8,-1.1,1.2c-.2,.5,-.4,.9,-.4,1.3c0,.7,.3,1.3,.7,1.8c.5,.5,1.1,.8,1.8,.8c.4,0,.8,-.1,1.3,-.3Zm3.8,1.3c-.2,-.4,-.3,-.9,-.6,-1.4c-.2,-.5,-.6,-.9,-1.1,-1.3c.3,-.3,.5,-.6,.6,-.9c.2,-.3,.3,-.7,.3,-1c0,-.3,-.1,-.6,-.2,-.9c-.1,-.2,-.2,-.4,-.4,-.6h3.4v8.5h-.1c-.1,-.5,-.4,-.9,-.8,-1.4c-.3,-.4,-.7,-.7,-1.1,-1Zm-1.8,-4.9c0,.3,-.1,.5,-.2,.8c-.1,.2,-.3,.5,-.6,.7l-2.4,-2c.2,-.2,.5,-.4,.8,-.5c.3,-.1,.6,-.2,.9,-.2c.2,0,.4,0,.6,.1c.2,.1,.4,.2,.5,.3c.3,.2,.4,.5,.4,.8Zm-4.6,1.5c0,-.5,.2,-1,.7,-1.4l2.4,2c-.2,.2,-.4,.3,-.7,.4c-.3,.2,-.6,.2,-1,.2c-.2,0,-.4,0,-.6,-.1c-.2,0,-.4,-.1,-.5,-.3c-.2,-.2,-.3,-.5,-.3,-.8ZM365,135.2L363.8,134H352l1.2,1.2h8.2v.9c-2.6,.8,-5,2.1,-7.4,3.7l1.6,2.3c1.7,.1,3,.7,4,1.6c.3,.3,.6,.6,1,1c.3,.4,.5,.8,.7,1c.1,.3,.3,.7,.6,1.3l.6,.8V135.2H365Zm-3.6,9.4c-1.1,-1.8,-2.7,-3.2,-4.9,-4.1c.9,-.6,1.7,-1.1,2.5,-1.5c.8,-.4,1.6,-.7,2.4,-1v6.6Zm-4.7,1.7c.2,.3,.5,.4,.8,.4c.4,0,.7,-.1,.9,-.4c.2,-.2,.4,-.5,.4,-.8c0,-.4,-.2,-.7,-.4,-.9c-.2,-.3,-.5,-.4,-.9,-.4c-.3,0,-.6,.1,-.8,.4c-.3,.2,-.4,.5,-.4,.9c0,.3,.1,.6,.4,.8ZM386,134H370.8l1.2,1.2h11.8v8.2L382.2,142c.2,-.6,.3,-1.3,.3,-1.9c0,-.8,-.2,-1.6,-.6,-2.2c-.3,-.5,-.6,-.9,-1.1,-1.2c-.4,-.3,-.8,-.6,-1.3,-.7c-.3,-.1,-.6,-.2,-.9,-.2c-.7,0,-1.4,.2,-2.1,.7c-.2,.2,-.4,.5,-.6,.8c-.2,.3,-.3,.6,-.3,.9c0,.4,.1,.7,.3,.9c.3,.5,.7,.7,1.2,.8c.6,.1,1,0,1.4,-.3c.3,-.2,.5,-.4,.6,-.6c.2,-.3,.3,-.5,.3,-.8c0,-.3,-.2,-.6,-.4,-1c.2,-.1,.5,-.1,.7,0c.2,0,.5,.1,.7,.3c.2,.2,.4,.4,.6,.7c.2,.3,.3,.6,.4,.9c0,.3,.1,.5,.1,.7c0,.6,-.2,1.1,-.5,1.7c-.5,.8,-1.4,1.3,-2.8,1.3c-.6,0,-1.1,-.2,-1.7,-.5c-.5,-.3,-1,-.8,-1.5,-1.4c-.4,-.5,-.8,-1.2,-1.2,-2c-.3,-.8,-.6,-1.7,-.8,-2.7l-.7,-.3c.1,1,.3,2,.5,2.9c.3,.9,.6,1.7,1,2.3c.3,.5,.6,1,1,1.5c.4,.4,.8,.8,1.2,1.1c.4,.3,.8,.6,1.2,.7c.4,.2,.8,.3,1.2,.3c.8,0,1.4,-.2,1.9,-.4c.6,-.3,1,-.7,1.3,-1.2c1.4,.9,2.4,2.4,3,4.5v-.1l.4,.3V135.2h2.2L386,134Zm12.5,1.2L397.3,134H385.5l1.2,1.2h8.2v.9c-2.6,.8,-5,2.1,-7.4,3.7l1.6,2.3c1.7,.1,3,.7,4,1.6c.3,.3,.6,.6,1,1c.3,.4,.5,.8,.7,1.2c.2,.3,.3,.5,.4,.7c0,.1,.1,.2,.1,.4l.7,.8V135.2h2.5Zm-3.6,9.4c-1.1,-1.8,-2.7,-3.2,-4.9,-4.1c.9,-.6,1.7,-1.1,2.5,-1.5c.8,-.4,1.6,-.7,2.4,-1v6.6Zm17.8,-9.4L411.4,134H396.3l1.2,1.2h7.8v1c-2.6,.8,-4.9,2.1,-6.9,3.7l1.7,2.1c1.3,.1,2.5,.7,3.6,1.8c.5,.5,.9,1,1.3,1.6c.4,.7,.7,1.3,1,2c0,.1,.1,.1,.2,.2c.1,0,.1,.1,.2,.1v-10c1.2,0,2.2,.3,2.8,1c.7,.7,1,1.4,1,2.2l-.1,.3c-.2,-.2,-.4,-.3,-.5,-.4c-.2,-.2,-.5,-.2,-.7,-.2c-.4,0,-.7,.1,-1,.4c-.3,.2,-.4,.5,-.4,.9c0,.2,0,.4,.1,.6c.1,.2,.2,.3,.4,.5c.1,.1,.3,.2,.5,.3c.2,.1,.4,.1,.6,.1c.3,0,.5,-.1,.8,-.2c.2,-.1,.4,-.3,.6,-.5c.2,-.2,.3,-.4,.4,-.7c.1,-.3,.1,-.5,.1,-.8c0,-1.3,-.4,-2.4,-1.2,-3.4c-.8,-1.2,-2,-1.7,-3.4,-1.7v-.9h6.3Zm-7.5,9.1c-1,-1.8,-2.4,-3.1,-4.4,-4c.8,-.5,1.5,-1,2.3,-1.4c.7,-.4,1.4,-.8,2.1,-1.1v6.5Zm12.1,-9.1L416.1,134h-1c-.4,-.4,-.6,-1,-.8,-1.9l-.4,-.3c0,.2,0,.5,0,.9c0,.3,0,.7,.1,1.2c0,.5,0,.9,.1,1.3c0,.3,0,.6,0,.9c-.3,-.8,-.6,-1.3,-1,-1.6c-.4,-.3,-.9,-.5,-1.7,-.5h-1.3l1.2,1.2c.3,0,.6,.1,1,.2c.3,.1,.6,.3,.8,.5c.3,.2,.5,.4,.6,.7c.1,.3,.2,.7,.2,1v8.9l1.2,1.2V135.2h2.2Zm6,-1.2h-8l1.2,1.2h4c-1.7,2,-2.5,4,-2.5,6.1c0,1.5,.3,2.8,.9,3.9c.7,1.4,1.8,2.1,3.2,2.1c.3,0,.6,0,.8,-.1c.3,-.1,.5,-.2,.7,-.4c.2,-.2,.4,-.4,.5,-.7c.1,-.2,.2,-.5,.2,-.8c0,-.4,-.2,-.9,-.5,-1.2c-.3,-.3,-.6,-.5,-1,-.5c-.4,0,-.7,.2,-1,.4c-.3,.3,-.5,.6,-.5,1c0,.2,.1,.4,.2,.7c.1,.2,.3,.4,.6,.6c-.7,.2,-1.5,-.2,-2.2,-1.3c-.5,-.7,-.7,-1.5,-.7,-2.3c0,-1,.1,-1.9,.3,-2.7c.2,-.7,.5,-1.4,.9,-2.1c.5,-.7,1,-1.3,1.7,-1.7c.7,-.5,1.4,-.8,2.3,-1L423.3,134Zm13.6,1.2L435.7,134c-.6,-.1,-1.1,-.6,-1.2,-1.5l-.7,-.6l.2,5.3h-.1c-.1,-.5,-.5,-1.2,-1.2,-2C432,134.4,431.4,134,431,134c-1.3,0,-2.3,.8,-3,2.4c-.2,-.7,-.5,-1.2,-1.1,-1.7c-.5,-.5,-1.1,-.7,-1.7,-.7h-2.6l1.2,1.2c.1,0,.6,0,1.4,0c.7,0,1.4,.5,2,1.5c-.3,.1,-.6,.2,-.8,.4c-.3,.2,-.5,.4,-.7,.7c-.2,.2,-.4,.5,-.5,.8c-.1,.2,-.1,.5,-.1,.8c0,.4,.1,.8,.4,1.2c.3,.3,.6,.5,1,.5c1,0,1.6,-.5,2,-1.5c.2,.5,.4,.8,.8,1.1c.3,.2,.7,.4,1.1,.4c.5,-.1,.9,-.3,1.1,-.7c.3,-.3,.5,-.7,.5,-1.2c0,-.6,-.7,-1.3,-1.9,-2.2c0,-.3,.1,-.6,.4,-.7c.3,-.2,.6,-.3,.9,-.3c.5,0,1,.3,1.6,1c.5,.8,.8,1.4,.8,1.9l-.1,7.7l1.2,1.2V135.2h2Zm11.4,0L447.1,134H435.3l1.2,1.2h8.1v.9c-2.5,.8,-4.9,2.1,-7.3,3.7l1.6,2.3h-.1c1.7,.1,3.1,.7,4.1,1.6c.3,.3,.6,.6,1,1c.3,.4,.5,.8,.7,1c.1,.3,.3,.7,.5,1.3l.7,.8V135.2h2.5Zm-3.7,9.4c-1,-1.8,-2.6,-3.2,-4.8,-4.1c.9,-.6,1.7,-1.1,2.5,-1.5c.8,-.4,1.6,-.7,2.3,-1v6.6Zm-4.7,1.7c.3,.3,.6,.4,.9,.4c.4,0,.6,-.1,.9,-.4c.2,-.2,.4,-.5,.4,-.8c0,-.4,-.2,-.7,-.4,-.9c-.3,-.3,-.5,-.4,-.9,-.4c-.3,0,-.6,.1,-.9,.4c-.2,.2,-.3,.5,-.3,.9c0,.3,.1,.6,.3,.8ZM469,135.2L467.8,134c-.2,0,-.3,0,-.4,0c-.5,0,-.8,-.2,-.9,-.6c-.1,-.2,-.2,-.6,-.2,-1.2l-.6,-.5c.1,1.1,.1,2.2,.2,3.2c0,1.1,.1,2.1,.1,3.2c-1.5,-2.6,-3.2,-3.9,-4.9,-3.9c-.5,0,-.9,.1,-1.5,.3c-.5,.1,-1,.4,-1.5,.7c-.6,.4,-1,.8,-1.3,1.2c-.3,.4,-.5,.9,-.5,1.3c0,.2,.1,.5,.3,.7c.2,.2,.4,.3,.7,.3c.2,0,.5,-.1,.8,-.3c.2,-.1,.4,-.1,.5,-.2c.2,0,.3,0,.4,0c.5,0,.7,.4,.7,1.2c0,.5,-.4,1.1,-1.2,1.9l1.7,.6l4.2,-4.2c.1,.1,.3,.2,.5,.4c.1,.2,.3,.4,.4,.6c.2,.3,.3,.5,.4,.7c.1,.3,.1,.5,.1,.6l-.2,6.4l1.3,1.3V135.2H469Zm-8.6,4.2c.1,-.7,0,-1.2,-.3,-1.6c-.3,-.5,-.8,-.7,-1.4,-.7c.5,-1.1,1.5,-1.6,2.8,-1.6c.7,0,1.3,.3,1.9,.9l-3,3ZM481,131.9c-2.3,-2.4,-4.8,-3.6,-7.3,-3.6c-1,0,-2,.4,-3.1,1.2c-1,.9,-1.6,1.8,-1.6,2.7c0,.4,.2,.7,.5,1l.8,.8h-3.2l1.2,1.2h1.8v11.3l1.2,1.2V135.2h2.1L472.2,134h-1.3l-.5,-1.1c.1,-.9,.6,-1.6,1.7,-2.3c.9,-.7,1.8,-1,2.7,-1c.7,0,1.3,.1,1.8,.2c.6,.2,1.2,.4,1.7,.7c.6,.4,1.1,.7,1.6,1c.5,.4,.9,.7,1.3,1l-.2,-.6Zm3.6,3.3L483.4,134H471.7l1.1,1.2H481v.9c-2.5,.8,-4.9,2.1,-7.3,3.7l1.6,2.3h-.1c1.7,.1,3.1,.7,4.1,1.6c.3,.3,.6,.6,.9,1c.4,.4,.6,.8,.8,1c.1,.3,.3,.7,.5,1.3l.7,.8V135.2h2.4Zm-3.6,9.4c-1,-1.8,-2.7,-3.2,-4.8,-4.1c.9,-.6,1.7,-1.1,2.5,-1.5c.8,-.4,1.6,-.7,2.3,-1v6.6Zm-4.7,1.7c.3,.3,.6,.4,.9,.4c.3,0,.6,-.1,.9,-.4c.2,-.2,.3,-.5,.3,-.8c0,-.4,-.1,-.7,-.3,-.9c-.3,-.3,-.6,-.4,-.9,-.4c-.3,0,-.6,.1,-.9,.4c-.2,.2,-.3,.5,-.3,.9c0,.3,.1,.6,.3,.8ZM499,135.2L497.8,134H482.6l1.2,1.2h7.8v1c-2.6,.8,-4.9,2.1,-6.9,3.7l1.7,2.1c1.3,.1,2.5,.7,3.6,1.8c.5,.5,.9,1,1.3,1.6c.4,.7,.7,1.3,1,2c0,.1,.1,.1,.2,.2c.1,0,.1,.1,.2,.1v-10c1.2,0,2.2,.3,2.8,1c.7,.7,1,1.4,1,2.2l-.1,.3c-.2,-.2,-.3,-.3,-.5,-.4c-.2,-.2,-.4,-.2,-.7,-.2c-.4,0,-.7,.1,-1,.4c-.3,.2,-.4,.5,-.4,.9c0,.2,0,.4,.1,.6c.1,.2,.2,.3,.4,.5c.1,.1,.3,.2,.5,.3c.2,.1,.4,.1,.6,.1c.3,0,.5,-.1,.8,-.2c.2,-.1,.4,-.3,.6,-.5c.2,-.2,.3,-.4,.4,-.7c.1,-.3,.1,-.5,.1,-.8c0,-1.3,-.4,-2.4,-1.2,-3.4c-.8,-1.2,-2,-1.7,-3.4,-1.7v-.9H499Zm-7.4,9.1h-.1c-1,-1.8,-2.4,-3.1,-4.4,-4c.8,-.5,1.5,-1,2.3,-1.4c.7,-.4,1.4,-.8,2.2,-1.1v6.5Zm19,-10.3H497.4l1.2,1.2h10v2c-.3,-.5,-.5,-.8,-.7,-1c-.3,-.2,-.6,-.3,-1.1,-.3c-.2,0,-.6,.2,-.9,.5c-.4,.4,-.6,.7,-.6,1c-.8,-1,-1.7,-1.6,-2.8,-1.6c-.7,0,-1.4,.4,-1.9,1.2c-.4,.7,-.7,1.5,-.7,2.3c0,.6,.2,1.2,.4,1.7c.3,.6,.7,1,1.3,1.3c-.3,.2,-.7,.5,-1,1c-.2,.3,-.4,.6,-.5,.8c-.1,.2,-.1,.4,-.1,.5c0,.2,.1,.4,.3,.6c.2,.3,.4,.4,.6,.4c.2,0,.5,-.1,.9,-.3c.3,-.1,.6,-.2,.8,-.2c.5,0,.8,.4,.8,1.2c0,.3,-.2,.6,-.4,.9c-.2,.3,-.5,.6,-.7,.8l-.2,.2l1.7,.6l4.2,-4.2c.2,.1,.4,.3,.5,.5c.2,.3,.3,.7,.4,1.2c.1,.5,.2,1.1,.2,1.7c.1,.6,.1,1.1,.1,1.6c.1,0,.2,.1,.3,.1c.1,.1,.2,.2,.3,.2V135.2h2L510.6,134Zm-2,9.9c-.1,-.3,-.3,-.7,-.5,-1c-.2,-.3,-.5,-.6,-.8,-.9c-.4,-.3,-.8,-.5,-1.1,-.7c-.4,-.1,-.8,-.2,-1.1,-.3c0,-.5,-.1,-.9,-.3,-1.2c-.3,-.4,-.6,-.5,-1.1,-.5c-.3,0,-.7,.1,-.9,.4c-.3,.2,-.4,.5,-.4,.9c0,.1,0,.3,0,.4c.1,.2,.2,.4,.4,.6c-1.2,-.2,-1.8,-.8,-1.8,-1.7c0,-.7,.2,-1.2,.7,-1.7c.4,-.4,1,-.6,1.6,-.6c1.4,0,2.3,.7,2.7,2.2c.1,0,.2,0,.2,-.1c.1,0,.2,0,.3,-.1c-.1,-.2,-.1,-.5,-.1,-.7c0,-.9,.4,-1.3,1.1,-1.3c.4,0,.6,.2,.8,.5c.2,.3,.3,.7,.3,1v1c0,.4,0,.9,0,1.4c0,.5,0,1,0,1.4v1Zm-4.6,2.4c.1,-.1,.1,-.2,.1,-.3v-.1c0,-.3,-.1,-.5,-.1,-.7c-.1,-.3,-.2,-.5,-.4,-.6c-.1,-.2,-.3,-.3,-.5,-.4c-.2,-.1,-.4,-.2,-.6,-.2h-.2c.6,-1.1,1.5,-1.6,2.8,-1.6c.7,0,1.3,.3,1.9,.9l-3,3Zm19.2,-11.1L522,134H510.3l1.2,1.2h8.4v6.6c-1.3,-2.6,-2.8,-4,-4.5,-4c-.7,0,-1.4,.3,-2.1,.9c-.5,.5,-.8,1.2,-.8,2c0,1.5,.8,2.2,2.3,2.2c.5,0,.9,-.2,1.2,-.5c.3,-.4,.4,-.8,.4,-1.3c0,-.3,-.2,-.8,-.7,-1.5c0,-.1,.1,-.1,.3,-.1c1.3,0,2.4,.8,3.3,2.5c.7,1.4,1,2.9,1,4.2l-.1,1.3l.9,.6V135.2h2.1Zm4.6,0L526.6,134h-1c-.4,-.4,-.6,-1,-.8,-1.9l-.4,-.3c0,.2,0,.5,0,.9c0,.3,.1,.7,.1,1.2c0,.5,.1,.9,.1,1.3c0,.3,0,.6,0,.9c-.2,-.8,-.6,-1.3,-1,-1.6c-.4,-.3,-.9,-.5,-1.7,-.5h-1.3l1.2,1.2c.3,0,.6,.1,1,.2c.3,.1,.6,.3,.8,.5c.3,.2,.5,.4,.6,.7c.2,.3,.2,.7,.2,1v8.9l1.2,1.2V135.2h2.2Zm22.2,0L548.8,134H533.6l1.2,1.2h7.8v1c-2.6,.8,-4.9,2.1,-6.9,3.7l1.7,2.1c1.3,.1,2.5,.7,3.6,1.8c.5,.5,.9,1,1.3,1.6c.4,.7,.7,1.3,1,2c0,.1,.1,.1,.2,.2c.1,0,.2,.1,.2,.1v-10c1.2,0,2.2,.3,2.8,1c.7,.7,1,1.4,1,2.2l-.1,.3c-.2,-.2,-.3,-.3,-.5,-.4c-.2,-.2,-.4,-.2,-.7,-.2c-.4,0,-.7,.1,-1,.4c-.3,.2,-.4,.5,-.4,.9c0,.2,.1,.4,.1,.6c.1,.2,.3,.3,.4,.5c.2,.1,.3,.2,.5,.3c.2,.1,.4,.1,.6,.1c.3,0,.5,-.1,.8,-.2c.2,-.1,.4,-.3,.6,-.5c.2,-.2,.3,-.4,.4,-.7c.1,-.3,.2,-.5,.2,-.8c0,-1.3,-.4,-2.4,-1.3,-3.4c-.8,-1.2,-1.9,-1.7,-3.3,-1.7v-.9H550Zm-7.4,9.1h-.1c-1,-1.8,-2.4,-3.1,-4.4,-4c.8,-.5,1.6,-1,2.3,-1.4c.7,-.4,1.4,-.8,2.2,-1.1v6.5ZM556.1,134h-7.9l1.2,1.2h4c-1.7,2,-2.6,4,-2.6,6.1c0,1.5,.4,2.8,1,3.9c.7,1.4,1.8,2.1,3.2,2.1c.3,0,.5,0,.8,-.1c.3,-.1,.5,-.2,.7,-.4c.2,-.2,.4,-.4,.5,-.7c.1,-.2,.1,-.5,.1,-.8c0,-.4,-.1,-.9,-.4,-1.2c-.3,-.3,-.6,-.5,-1,-.5c-.4,0,-.7,.2,-1,.4c-.3,.3,-.5,.6,-.5,1c0,.2,.1,.4,.2,.7c.1,.2,.3,.4,.6,.6c-.7,.2,-1.5,-.2,-2.3,-1.3c-.4,-.7,-.6,-1.5,-.6,-2.3c0,-1,.1,-1.9,.3,-2.7c.2,-.7,.5,-1.4,.9,-2.1c.5,-.7,1,-1.3,1.7,-1.7c.6,-.5,1.4,-.8,2.3,-1L556.1,134Zm12.2,1.2L567.1,134H555.3l1.2,1.2h8.2v.9c-2.5,.8,-5,2.1,-7.4,3.7l1.6,2.3c1.7,.1,3,.7,4.1,1.6c.3,.3,.6,.6,.9,1c.3,.4,.6,.8,.7,1c.2,.3,.3,.7,.6,1.3l.6,.8V135.2h2.5Zm-3.6,9.4c-1.1,-1.8,-2.7,-3.2,-4.9,-4.1c.9,-.6,1.7,-1.1,2.5,-1.5c.8,-.4,1.6,-.7,2.4,-1v6.6Zm-4.7,1.7c.2,.3,.5,.4,.8,.4c.4,0,.7,-.1,.9,-.4c.3,-.2,.4,-.5,.4,-.8c0,-.4,-.1,-.7,-.4,-.9c-.2,-.3,-.5,-.4,-.9,-.4c-.3,0,-.6,.1,-.8,.4c-.3,.2,-.4,.5,-.4,.9c0,.3,.1,.6,.4,.8Zm20.1,-14.4c-2.3,-2.4,-4.7,-3.6,-7.3,-3.6c-.9,0,-2,.4,-3,1.2c-1.1,.9,-1.6,1.8,-1.6,2.7c0,.4,.1,.7,.4,1l.9,.8h-3.2l1.2,1.2h1.8v11.3l1.2,1.2V135.2h2.1L571.4,134h-1.3l-.5,-1.1c.1,-.9,.6,-1.6,1.6,-2.3c1,-.7,1.9,-1,2.8,-1c.6,0,1.2,.1,1.8,.2c.6,.2,1.1,.4,1.7,.7c.6,.4,1.1,.7,1.6,1c.4,.4,.9,.7,1.3,1l-.3,-.6Zm4,16.8c-.5,-.5,-.9,-1,-1.3,-1.4c-.5,-.4,-.8,-.8,-1.2,-1c-.2,-.2,-.6,-.5,-1.1,-.8c-.5,-.3,-1.1,-.6,-1.8,-1c.6,-.3,1.1,-.6,1.5,-.8c.4,-.3,.7,-.5,1,-.8c.9,-.7,1.3,-1.5,1.3,-2.5c0,-.9,-.2,-1.7,-.7,-2.4c-.6,-.7,-1.4,-1.1,-2.5,-1.1c-.2,0,-.5,0,-.8,.1c-.2,0,-.5,.1,-.8,.1c-1.3,0,-2.3,-.7,-2.9,-1.9h8.8L582.4,134H570.9l1.2,1.2h1.6v5.2c0,.2,.1,.5,.2,.6c.1,.2,.2,.4,.4,.5c.2,.2,.4,.3,.6,.4c.2,.1,.4,.1,.7,.1c.3,0,.7,-.1,1.1,-.3c.5,-.2,.9,-.4,1.3,-.7c1,-.8,1.4,-1.7,1.3,-2.6c1.3,-.2,1.9,.2,2,1.2c0,1.2,-.7,2.2,-2,2.9c-.5,.2,-1.1,.4,-1.7,.6c-.6,.1,-1.2,.2,-1.9,.2c-.3,0,-.6,-.1,-.8,-.1c-.3,-.1,-.6,-.1,-1,-.2l1.2,2.2c1.8,.2,3.5,.6,5,1.3c1.5,.8,2.9,1.8,4.1,3.1l-.1,-.9Zm-6.6,-9.5c-.1,.3,-.3,.6,-.6,.8c-.2,.3,-.5,.5,-.8,.7c-.2,.1,-.5,.2,-.8,.2c-.3,0,-.4,-.2,-.4,-.7v-3.6c.7,.9,1.6,1.5,2.8,1.8c0,.3,-.1,.5,-.2,.8Zm18.9,-4L595.2,134H582.3c.4,.4,.7,.7,.9,.9c.3,.2,.5,.4,.6,.5c.3,.2,.6,.4,.9,.6c.3,.1,.6,.2,.9,.3c.5,.1,.9,.2,1.2,.3c.3,.1,.6,.2,.8,.4c.3,.2,.4,.4,.5,.7c.2,.4,.3,.8,.3,1.4c-.4,.5,-.7,.9,-1,1.3c-.2,.3,-.4,.5,-.6,.7c-.2,.2,-.3,.3,-.4,.4c-.1,0,-.2,0,-.2,0c-.2,0,-.4,0,-.5,-.1c-.1,-.1,-.3,-.3,-.4,-.4c-.1,-.2,-.1,-.4,-.2,-.6c-.1,-.2,-.1,-.3,-.2,-.5l-.8,.8c.2,.2,.3,.5,.5,.8c.2,.3,.4,.6,.6,.9c.2,.3,.5,.5,.8,.7c.3,.1,.6,.2,1,.2c.1,0,.3,0,.4,-.1c.2,0,.3,-.1,.5,-.3c.3,-.2,.5,-.5,.8,-.9c.3,-.4,.6,-.9,1,-1.6c.5,-.6,.9,-1,1.3,-1.1c.4,0,.8,.1,1.1,.4c.3,.4,.6,.9,.7,1.6c.2,.7,.3,1.6,.3,2.5v.4c0,.1,0,.3,0,.5c0,.1,0,.4,0,.7c0,.3,0,.6,-.1,1.1c.2,.2,.4,.4,.6,.6c.2,.3,.4,.5,.6,.7V135.2h2.2Zm-3.4,4.1c-.3,-.4,-.6,-.8,-.9,-1.1c-.3,-.4,-.6,-.6,-.9,-.7c-.3,-.1,-.6,-.1,-1,.1c-.3,.1,-.7,.4,-1.1,.8c0,-.6,-.1,-1.1,-.4,-1.6c-.2,-.5,-.7,-1,-1.3,-1.6H593v4.1Zm10.7,-4.6c-.5,-.6,-1.3,-.9,-2.3,-.9c-.6,0,-1.2,.1,-1.7,.3c-.5,.1,-1,.4,-1.4,.7c-.4,.3,-.7,.6,-1,1.1c-.2,.4,-.3,.8,-.3,1.3v.2q0,.1,0,.2l.3,.3c.3,0,.6,-.1,.8,-.2c.2,0,.5,-.1,.7,-.2c0,-.1,0,-.2,-.1,-.3c0,-.1,0,-.2,0,-.3c0,-.3,0,-.5,.1,-.8c.1,-.3,.3,-.5,.4,-.7c.2,-.2,.4,-.3,.6,-.4c.3,-.1,.5,-.2,.8,-.2c.7,0,1.3,.3,1.6,.7c.4,.5,.6,1.2,.6,2.1c0,.3,0,.6,-.2,.9c-.1,.2,-.3,.5,-.5,.7c-.2,.3,-.5,.5,-.7,.8c-.3,.2,-.5,.5,-.7,.8c-.2,.2,-.3,.5,-.5,.8c-.1,.3,-.2,.7,-.1,1.1v1.2l.3,.2c.2,0,.3,-.1,.3,-.2c.1,0,.1,-.1,.3,-.2v-1c.1,-.5,.2,-.9,.4,-1.2c.2,-.4,.4,-.6,.7,-.9c.2,-.2,.5,-.4,.8,-.6c.3,-.2,.6,-.5,.8,-.7c.2,-.3,.5,-.6,.6,-.9c.2,-.3,.3,-.8,.3,-1.3c0,-1,-.3,-1.8,-.9,-2.4Zm-3,10.6c-.4,0,-.7,.2,-1,.5c-.3,.3,-.4,.7,-.4,1.2c0,.4,.1,.7,.2,.9c.2,.2,.5,.3,.8,.3c.4,0,.8,-.2,1.1,-.5c.2,-.3,.4,-.7,.4,-1.2c0,-.8,-.4,-1.2,-1.1,-1.2Z" class="gi_322"/>
<g clip-path="url(#c0_322)">
<path d="M1877,177.2H32.1v-5.4H768.7c43.1,0,53,-37.9,115.3,-37.9h993Z" class="gj_322"/>
<path d="M1877,183.7H32.1v-9.8H768.7c43.1,0,53,-33.6,115.3,-33.6h993Z" class="gk_322"/>
</g>
<path d="M131.7,407.5v39l11.7,10.3V412.6Z" class="gl_322"/>
<path d="M131.7,407.5v39H829.5c0,0,16.8,0,16.8,-16.8v-5.4c0,0,0,-16.8,-16.8,-16.8Z" class="g3_322"/>
<path d="M781,441.1c8.2,0,14.8,-6.5,14.8,-14.5c0,-8,-6.6,-14.5,-14.8,-14.5c-8.3,0,-14.9,6.5,-14.9,14.5c0,8,6.6,14.5,14.9,14.5Z" class="gm_322"/>
<path d="M781,441.1c8.2,0,14.8,-6.5,14.8,-14.5c0,-8,-6.6,-14.5,-14.8,-14.5c-8.3,0,-14.9,6.5,-14.9,14.5c0,8,6.6,14.5,14.9,14.5Z" class="gn_322"/>
<path d="M781,432c3,0,5.4,-2.4,5.4,-5.4c0,-2.9,-2.4,-5.3,-5.4,-5.3c-3.1,0,-5.5,2.4,-5.5,5.3c0,3,2.4,5.4,5.5,5.4Z" class="g1_322"/>
<path d="M781,432c3,0,5.4,-2.4,5.4,-5.4c0,-2.9,-2.4,-5.3,-5.4,-5.3c-3.1,0,-5.5,2.4,-5.5,5.3c0,3,2.4,5.4,5.5,5.4Z" class="go_322"/>
<g clip-path="url(#ci_322)" opacity="0.3">
<path d="M766.4,425.8c0,0,-.1,-4.8,3.6,-8.6l7.8,6.7c0,0,-1,.9,-1.1,2.7Z" class="g1_322"/>
</g>
<path d="M785.6,426.5c0,0,-3.5,0,-3.5,3.5v8.7c0,0,0,3.5,3.5,3.5H829c0,0,3.5,0,3.5,-3.5V430c0,0,0,-3.5,-3.5,-3.5Z" class="gp_322"/>
<path d="M169.5,417.6c0,-8.3,-6.7,-15.1,-15,-15.1c-8.4,0,-15.1,6.8,-15.1,15.1c0,8.3,6.8,15,15.1,15c.8,0,1.6,0,2.4,-.2l4.5,5.3V431c4.8,-2.5,8.1,-7.6,8.1,-13.4Z" class="g1_322"/>
<path d="M161.8,438.9l-5.1,-6c-.7,.1,-1.5,.2,-2.2,.2c-8.6,0,-15.6,-7,-15.6,-15.5c0,-8.6,7,-15.5,15.6,-15.5c8.5,0,15.5,6.9,15.5,15.5c0,5.7,-3.1,10.9,-8.2,13.6Zm-4.7,-7l3.8,4.5v-5.7l.3,-.2c4.8,-2.5,7.9,-7.4,7.9,-12.9c0,-8.1,-6.6,-14.6,-14.6,-14.6c-8.1,0,-14.6,6.5,-14.6,14.6c0,8,6.5,14.6,14.6,14.6c.7,0,1.5,-.1,2.3,-.2Z" class="gq_322"/>
<path d="M147.4,417.1c.8,0,1.5,.7,1.5,1.5c0,.8,-.7,1.4,-1.5,1.4c-.7,0,-1.4,-.6,-1.4,-1.4c0,-.8,.7,-1.5,1.4,-1.5Z" class="gr_322"/>
<path d="M147.4,420.5c-1,0,-1.8,-.9,-1.8,-1.9c0,-1.1,.8,-1.9,1.8,-1.9c1.1,0,1.9,.8,1.9,1.9c0,1,-.8,1.9,-1.9,1.9m0,-2.9c-.5,0,-.9,.4,-.9,1c0,.5,.4,1,.9,1c.6,0,1,-.5,1,-1c0,-.6,-.4,-1,-1,-1Z" class="gq_322"/>
<path d="M154.5,417.1c.8,0,1.4,.7,1.4,1.5c0,.8,-.6,1.4,-1.4,1.4c-.8,0,-1.5,-.6,-1.5,-1.4c0,-.8,.7,-1.5,1.5,-1.5Z" class="gr_322"/>
<path d="M154.5,420.5c-1.1,0,-1.9,-.9,-1.9,-1.9c0,-1.1,.8,-1.9,1.9,-1.9c1,0,1.9,.8,1.9,1.9c0,1,-.9,1.9,-1.9,1.9m0,-2.9c-.6,0,-1,.4,-1,1c0,.5,.4,1,1,1c.5,0,.9,-.5,.9,-1c0,-.6,-.4,-1,-.9,-1Z" class="gq_322"/>
<path d="M161.5,417.1c.8,0,1.4,.7,1.4,1.5c0,.8,-.6,1.4,-1.4,1.4c-.8,0,-1.5,-.6,-1.5,-1.4c0,-.8,.7,-1.5,1.5,-1.5Z" class="gr_322"/>
<path d="M161.5,420.5c-1.1,0,-1.9,-.9,-1.9,-1.9c0,-1.1,.8,-1.9,1.9,-1.9c1,0,1.9,.8,1.9,1.9c0,1,-.9,1.9,-1.9,1.9m0,-2.9c-.6,0,-1,.4,-1,1c0,.5,.4,1,1,1c.5,0,1,-.5,1,-1c0,-.6,-.5,-1,-1,-1Z" class="gq_322"/>
<path d="M163.4,431.8c0,-9.7,7.9,-17.6,17.6,-17.6c9.7,0,17.6,7.9,17.6,17.6c0,9.7,-7.9,17.6,-17.6,17.6c-.9,0,-1.9,-.1,-2.8,-.2l-5.3,6.1v-7.8c-5.6,-3,-9.5,-8.9,-9.5,-15.7Z" class="gs_322"/>
<path d="M172.9,455.8c0,0,-.1,0,-.1,-.1c-.2,0,-.3,-.2,-.3,-.4v-7.6c-5.9,-3.1,-9.6,-9.2,-9.6,-15.9c0,-9.9,8.2,-18.1,18.1,-18.1c10,0,18.1,8.2,18.1,18.1c0,10,-8.1,18.1,-18.1,18.1c-.8,0,-1.7,-.1,-2.6,-.2l-5.1,5.9c-.1,.1,-.2,.2,-.4,.2M181,414.7c-9.4,0,-17.1,7.7,-17.1,17.1c0,6.5,3.5,12.3,9.2,15.3c.2,0,.3,.2,.3,.4v6.6l4.4,-5.2c.1,-.1,.3,-.2,.5,-.1c.9,.1,1.8,.2,2.7,.2c9.5,0,17.2,-7.7,17.2,-17.2c0,-9.4,-7.7,-17.1,-17.2,-17.1Z" class="gq_322"/>
<path d="M189.2,431.3c.9,0,1.7,.8,1.7,1.7c0,.9,-.8,1.7,-1.7,1.7c-.9,0,-1.7,-.8,-1.7,-1.7c0,-.9,.8,-1.7,1.7,-1.7Z" class="g1_322"/>
<path d="M189.2,435.1c-1.2,0,-2.1,-.9,-2.1,-2.1c0,-1.2,.9,-2.1,2.1,-2.1c1.2,0,2.1,.9,2.1,2.1c0,1.2,-.9,2.1,-2.1,2.1m0,-3.3c-.7,0,-1.2,.5,-1.2,1.2c0,.7,.5,1.2,1.2,1.2c.7,0,1.2,-.5,1.2,-1.2c0,-.7,-.5,-1.2,-1.2,-1.2Z" class="gq_322"/>
<path d="M181,431.3c.9,0,1.7,.8,1.7,1.7c0,.9,-.8,1.7,-1.7,1.7c-.9,0,-1.7,-.8,-1.7,-1.7c0,-.9,.8,-1.7,1.7,-1.7Z" class="g1_322"/>
<path d="M181,435.1c-1.2,0,-2.1,-.9,-2.1,-2.1c0,-1.2,.9,-2.1,2.1,-2.1c1.2,0,2.1,.9,2.1,2.1c0,1.2,-.9,2.1,-2.1,2.1m0,-3.3c-.7,0,-1.2,.5,-1.2,1.2c0,.7,.5,1.2,1.2,1.2c.7,0,1.2,-.5,1.2,-1.2c0,-.7,-.5,-1.2,-1.2,-1.2Z" class="gq_322"/>
<path d="M172.8,431.3c.9,0,1.7,.8,1.7,1.7c0,.9,-.8,1.7,-1.7,1.7c-.9,0,-1.7,-.8,-1.7,-1.7c0,-.9,.8,-1.7,1.7,-1.7Z" class="g1_322"/>
<path d="M172.8,435.1c-1.2,0,-2.1,-.9,-2.1,-2.1c0,-1.2,.9,-2.1,2.1,-2.1c1.2,0,2.1,.9,2.1,2.1c0,1.2,-.9,2.1,-2.1,2.1m0,-3.3c-.7,0,-1.2,.5,-1.2,1.2c0,.7,.5,1.2,1.2,1.2c.7,0,1.2,-.5,1.2,-1.2c0,-.7,-.5,-1.2,-1.2,-1.2Z" class="gq_322"/>
<image clip-path="url(#cj_322)" preserveAspectRatio="none" x="125" y="206" width="734" height="181" xlink:href="img/10.png"/>
<path d="M144.6,231.3c0,0,-13,0,-13,13v117c0,0,0,13,13,13H833.1c0,0,13,0,13,-13v-130Z" class="gt_322"/>
<path d="M147.7,294.1l54.1,40.8l54.1,-40.8V230h8.7V211.9H155.8c-6.5,.4,-7.7,3.9,-8.2,8.4Z" class="gu_322"/>
<path d="M274,220.3c-.3,-4.7,-4.2,-8.4,-9,-8.4c-4.8,0,-8.7,3.7,-9,8.4h-.1V230h18.2v-9.7Z" class="gp_322"/>
<path d="M255.9,230.6H846.1" class="gv_322"/>
<path d="M32.1,45.1H9.2m958.3,0h22.9M32.1,1331.3H9.2m958.3,0h22.9M45.1,32.1V9.2m0,1335.1v22.9M954.5,32.1V9.2m0,1335.1v22.9" class="gw_322"/>
<path d="M32.1,45.1H9.2m958.3,0h22.9M32.1,1331.3H9.2m958.3,0h22.9M45.1,32.1V9.2m0,1335.1v22.9M954.5,32.1V9.2m0,1335.1v22.9" class="gx_322"/>
<path d="M27.5,32.1H0m972.1,0h27.5M27.5,1344.3H0m972.1,0h27.5M32.1,27.5V0m0,1348.9v27.5M967.5,27.5V0m0,1348.9v27.5" class="gw_322"/>
<path d="M27.5,32.1H0m972.1,0h27.5M27.5,1344.3H0m972.1,0h27.5M32.1,27.5V0m0,1348.9v27.5M967.5,27.5V0m0,1348.9v27.5" class="gx_322"/>
</svg>