<?xml version="1.0" encoding="UTF-8" standalone="no"?>
<!DOCTYPE svg PUBLIC "-//W3C//DTD SVG 1.1//EN"
"http://www.w3.org/Graphics/SVG/1.1/DTD/svg11.dtd">
<svg viewBox="0 0 999 1376" version="1.1" xmlns="http://www.w3.org/2000/svg" xmlns:xlink="http://www.w3.org/1999/xlink">
<defs>
<clipPath id="c0_325"><path d="M122.1,574.8V504.9H271.7v69.9Z"/></clipPath>
<clipPath id="c1_325"><path d="M122.9,578.9v-77H272v77Z"/></clipPath>
<clipPath id="c2_325"><path d="M122.6,578.6v-77H271.7v77Z"/></clipPath>
<clipPath id="c3_325"><path d="M113.2,767.5V697.6H294.1v69.9Z"/></clipPath>
<clipPath id="c4_325"><path d="M116,771V692.4H293.1V771Z"/></clipPath>
<clipPath id="c5_325"><path d="M115.7,770.7V692H292.8v78.7Z"/></clipPath>
<clipPath id="c6_325"><path d="M198.7,1048.4l-6.5,-2.1l-16.4,-13.9V975.3h72v73.1Z"/></clipPath>
<clipPath id="c7_325"><path d="M198.7,269.8l-6.5,-2.1l-16.4,-14v-57h72v73.1Z"/></clipPath>
<clipPath id="c8_325"><path d="M757.3,797.3v-88H912.4v88Z"/></clipPath>
<clipPath id="c9_325"><path d="M757.1,800.8V706.2H913.3v94.6Z"/></clipPath>
<clipPath id="ca_325"><path d="M756.8,800.5V705.9H913v94.6Z"/></clipPath>
<clipPath id="cb_325"><path d="M828.3,724.7c-.3,-.1,3.5,-8.3,3.5,-8.3l.8,.6c0,0,-4,7.7,-4.3,7.7Z"/></clipPath>
<clipPath id="cc_325"><path d="M835.8,716.9c0,0,-6.9,-1.1,-7.6,-5.2c-.7,-3.6,1.5,-3.8,2.1,-3.8q.1,0,.1,0l8.3,-12.7l-1.4,-3.1c0,0,-.6,-1.1,.1,-2.1c0,-.1,.2,-.1,.3,-.1c2.1,0,12.9,5.5,12.9,5.5l.1,.2c-.3,.5,-.7,1.1,-1.4,1.6c-.6,.5,-5.1,1.2,-5.1,1.2l-8.4,18.5Z"/></clipPath>
<clipPath id="cd_325"><path d="M835.4,716.6c.2,-.5,.2,-1.8,0,-2.3v-1.4c-1.6,-.5,-2.9,-1.2,-3.7,-2.5c-1.1,.6,-2.1,1.3,-3.1,1.9c1.5,2.1,3.8,3.6,6.8,4.3Zm0,-3.9c2.2,-4.6,4,-9.5,6.1,-14.1c-.9,-.4,-1.8,-1.3,-2.6,-1.4c-2.3,4.4,-4.6,8.7,-7,12.9c.7,1.3,2,2,3.5,2.6Zm-7.3,12.1c1,-2.9,2.4,-5.5,3.5,-8.3c-2,-1.6,-3.9,-3.2,-4.4,-6.2v-1.5c0,-2.7,1.9,-3.4,4.6,-3.4c0,0,.1,0,.2,0c1.9,-3.3,4.2,-6.3,6.1,-9.7c-.5,-.8,-1.1,-2.3,-.8,-3.6c.5,1.2,1.6,1.9,2.3,2.9c-.1,.6,-.2,1.1,-.3,1.7c.6,.7,1.3,1.2,2.4,1.4c.4,-.4,.5,-1.2,1.1,-1.5c.9,.4,1.8,.8,3.1,.8c.2,.1,.5,.1,.8,.1c.4,0,.7,0,.9,-.1c.1,0,.2,0,.3,0c.2,0,.4,-.1,.6,-.1c.2,-.1,.3,-.2,.5,-.2c.1,0,.2,.1,.3,.1c-1.3,.7,-2.2,1.8,-4.2,1.8c-.1,0,-.2,0,-.3,0c-.9,3.7,-1.9,7.4,-2.6,11.2c.5,1,1.5,1.7,1.2,3.1c-.4,2.7,-3.8,4.4,-7.2,4.4c-1.2,0,-2.5,-.2,-3.6,-.7c-1,2.1,-2.1,4.1,-3.3,6c0,-.4,.3,-.4,.3,-.8c.9,-1.8,1.9,-3.5,2.6,-5.6c-1,1.7,-1.8,3.7,-2.7,5.5c-.2,.4,-.5,.9,-.7,1.3c-.3,.4,-.3,1.1,-.7,1.4Z"/></clipPath>
<clipPath id="ce_325"><path d="M845.8,697c-4.8,0,-13.1,-7.3,-5.5,-8.8h1.2c.2,0,.4,0,.6,0c0,0,.1,0,.1,0c0,0,.1,0,.1,0c.3,0,.6,0,1,.1c3.1,.7,8.2,3.8,7.5,7c-.2,1.2,-1.5,1.6,-3.1,1.7h-1.8c0,0,-.1,0,-.1,0Z"/></clipPath>
<clipPath id="cf_325"><path d="M190.8,519.8c-.3,-.1,3.5,-8.2,3.5,-8.2l.8,.5c0,0,-4,7.7,-4.3,7.7Z"/></clipPath>
<clipPath id="cg_325"><path d="M198.3,512.1c0,0,-6.9,-1.1,-7.6,-5.2c-.6,-3.6,1.5,-3.9,2.1,-3.9q.1,0,.1,0l8.3,-12.7l-1.4,-3.1c0,0,-.6,-1.1,.1,-2c.1,-.1,.2,-.1,.3,-.1c2.1,0,13,5.5,13,5.5v.1c-.3,.6,-.7,1.2,-1.4,1.7c-.6,.5,-5,1.1,-5,1.1l-8.5,18.6Z"/></clipPath>
<clipPath id="ch_325"><path d="M197.9,511.7c.2,-.4,.2,-1.8,0,-2.2v-1.4c-1.5,-.5,-2.9,-1.2,-3.7,-2.5c-1,.6,-2.1,1.2,-3.1,1.9c1.6,2.1,3.8,3.5,6.8,4.2Zm0,-3.9c2.2,-4.5,4,-9.5,6.1,-14c-.8,-.4,-1.8,-1.3,-2.6,-1.4c-2.3,4.3,-4.6,8.6,-7,12.8c.7,1.3,2.1,2,3.5,2.6Zm-7.3,12.1c1,-2.9,2.4,-5.5,3.5,-8.3c-2,-1.5,-3.9,-3.1,-4.4,-6.1V504c0,-2.8,2,-3.4,4.6,-3.4q.1,0,.2,0c1.9,-3.4,4.2,-6.4,6.2,-9.7c-.6,-.9,-1.2,-2.4,-.9,-3.7c.5,1.3,1.6,1.9,2.4,2.9c-.2,.6,-.3,1.2,-.4,1.8c.6,.7,1.3,1.2,2.4,1.4c.4,-.4,.5,-1.3,1.1,-1.5c.9,.3,1.9,.7,3.1,.7c.2,.1,.5,.2,.9,.2c.3,0,.7,-.1,.8,-.2c.1,0,.2,.1,.3,.1c.2,0,.4,-.1,.6,-.2c.2,0,.4,-.1,.5,-.1c.1,0,.2,0,.3,.1c-1.3,.6,-2.2,1.8,-4.1,1.8c-.1,0,-.3,0,-.4,-.1c-.8,3.8,-1.8,7.4,-2.6,11.2c.5,1.1,1.5,1.7,1.2,3.2c-.4,2.7,-3.8,4.4,-7.2,4.4c-1.2,0,-2.5,-.3,-3.6,-.8c-1,2.1,-2,4.2,-3.2,6.1c-.1,-.4,.2,-.4,.2,-.8c1,-1.8,1.9,-3.6,2.6,-5.7c-1,1.8,-1.8,3.7,-2.7,5.6c-.2,.4,-.4,.8,-.6,1.2c-.3,.4,-.3,1.2,-.8,1.4Z"/></clipPath>
<clipPath id="ci_325"><path d="M208.3,492.1c-4.8,0,-13.1,-7.3,-5.5,-8.8H204c.2,.1,.4,.1,.6,.1c0,0,.1,0,.1,0c.1,0,.2,0,.3,0c.2,0,.5,0,.8,.1c3.1,.6,8.2,3.8,7.5,7c-.2,1.2,-1.5,1.6,-3.1,1.6h-1.9Z"/></clipPath>
<clipPath id="cj_325"><path d="M195.1,713.8c-.2,0,3.6,-8.2,3.6,-8.2l.8,.5c0,0,-4.1,7.7,-4.4,7.7Z"/></clipPath>
<clipPath id="ck_325"><path d="M202.6,706.1c0,0,-6.8,-1.1,-7.6,-5.2c-.6,-3.6,1.6,-3.8,2.1,-3.8c.1,0,.2,0,.2,0l8.3,-12.8l-1.5,-3c0,0,-.6,-1.2,.1,-2.1c.1,-.1,.2,-.1,.4,-.1c2.1,0,12.9,5.5,12.9,5.5l.1,.2c-.4,.5,-.8,1.1,-1.4,1.6c-.7,.5,-5.1,1.2,-5.1,1.2l-8.5,18.5Z"/></clipPath>
<clipPath id="cl_325"><path d="M202.2,705.8c.2,-.5,.2,-1.8,0,-2.3v-1.4c-1.5,-.5,-2.9,-1.2,-3.6,-2.5c-1.1,.6,-2.2,1.2,-3.2,1.9c1.6,2.1,3.9,3.5,6.8,4.3Zm0,-3.9c2.2,-4.6,4,-9.5,6.2,-14.1c-.9,-.4,-1.9,-1.3,-2.7,-1.4c-2.3,4.3,-4.6,8.6,-7,12.8c.7,1.4,2.1,2,3.5,2.7Zm-7.3,12c1.1,-2.9,2.4,-5.4,3.5,-8.3c-1.9,-1.5,-3.9,-3.1,-4.3,-6.1V698c-.1,-2.7,1.9,-3.4,4.5,-3.4c.1,0,.2,0,.2,0c2,-3.4,4.2,-6.4,6.2,-9.7c-.6,-.9,-1.2,-2.4,-.9,-3.6c.5,1.2,1.6,1.8,2.4,2.8c-.1,.6,-.3,1.2,-.4,1.8c.6,.7,1.3,1.2,2.4,1.4c.5,-.4,.5,-1.3,1.1,-1.5c1,.3,1.9,.7,3.2,.7c.1,.1,.5,.2,.8,.2c.3,0,.7,-.1,.8,-.2c.1,.1,.2,.1,.3,.1c.2,0,.4,-.1,.6,-.2c.2,0,.4,-.1,.6,-.1c.1,0,.2,0,.3,.1c-1.4,.7,-2.2,1.8,-4.2,1.8c-.1,0,-.2,0,-.4,0c-.8,3.7,-1.8,7.3,-2.6,11.2c.5,1,1.5,1.6,1.3,3.1c-.5,2.7,-3.9,4.4,-7.2,4.4c-1.3,0,-2.6,-.3,-3.6,-.8c-1,2.1,-2.1,4.2,-3.3,6.1c0,-.4,.3,-.4,.2,-.8c1,-1.8,2,-3.6,2.7,-5.6c-1.1,1.7,-1.8,3.7,-2.8,5.5c-.2,.4,-.4,.8,-.6,1.2c-.3,.5,-.3,1.2,-.8,1.4Z"/></clipPath>
<clipPath id="cm_325"><path d="M212.7,686.2c-4.8,0,-13.1,-7.4,-5.6,-8.8h1.3c.2,0,.4,0,.6,0h.1c0,0,.1,0,.2,0c.2,0,.5,0,.8,.1c3.1,.6,8.3,3.8,7.6,7c-.3,1.2,-1.6,1.6,-3.2,1.7h-1.7q-.1,0,-.1,0Z"/></clipPath>
<clipPath id="cn_325"><path d="M786.5,132.5V120.1H801v12.4Z"/></clipPath>
<style type="text/css"><![CDATA[
.g0_325{
fill: #FEFCF4;
}
.g1_325{
fill: #FFF;
}
.g2_325{
fill: none;
stroke: #6381B7;
stroke-width: 0.763;
}
.g3_325{
fill: #F7C2D9;
}
.g4_325{
fill: none;
stroke: #949698;
stroke-width: 0.305;
stroke-dasharray: 4,4;
}
.g5_325{
fill: none;
stroke: #949698;
stroke-width: 0.305;
}
.g6_325{
fill: #FDF4F3;
}
.g7_325{
fill: #EC008C;
}
.g8_325{
fill: #6D6F71;
}
.g9_325{
fill: none;
stroke: #949698;
stroke-width: 0.305;
stroke-dasharray: 3,3;
}
.ga_325{
fill: #6381B7;
}
.gb_325{
fill: none;
stroke: #6381B7;
stroke-width: 0.381;
stroke-dasharray: 2,1;
}
.gc_325{
fill: none;
stroke: #6381B7;
stroke-width: 0.381;
}
.gd_325{
fill: #FCE8B0;
}
.ge_325{
fill: #25408F;
}
.gf_325{
fill: #A8AAAD;
}
.gg_325{
fill: none;
stroke: #949698;
stroke-width: 0.549;
}
.gh_325{
fill: none;
stroke: #BCBEC0;
stroke-width: 2.566;
}
.gi_325{
fill: #231F20;
}
.gj_325{
fill: #363637;
}
.gk_325{
fill: #5CC4BE;
}
.gl_325{
fill: #F0D73F;
}
.gm_325{
fill: none;
stroke: #FFF;
stroke-width: 1.909;
stroke-miterlimit: 10;
}
.gn_325{
fill: none;
stroke: #000;
stroke-width: 0.381;
stroke-miterlimit: 10;
}
]]></style>
</defs>
<path d="M45.1,1344.3H967.5V32.1H45.1V1344.3Z" class="g0_325"/>
<path d="M172.1,138.6c0,0,-18.4,0,-18.4,18.4V923.9c0,0,0,18.3,18.4,18.3H849.2c0,0,18.3,0,18.3,-18.3V138.6Z" class="g1_325"/>
<path d="M172.1,138.6c0,0,-18.4,0,-18.4,18.4V923.9c0,0,0,18.3,18.4,18.3H849.2c0,0,18.3,0,18.3,-18.3V138.6H172.1Z" class="g2_325"/>
<image clip-path="url(#c0_325)" preserveAspectRatio="none" x="121" y="506" width="150" height="69" xlink:href="img/1.png"/>
<path d="M127.4,511.9l.5,56.4l137.4,-1.6l-2.1,-56.5Z" class="g3_325"/>
<path d="M482.7,607.4c9.5,-1.5,16.9,-7.2,18.7,-14.3m-.5,-8.2C498.4,578.1,490.6,573,481,572m-8.3,.2c-9.5,1.5,-16.9,7.2,-18.7,14.3m.5,8.2c2.6,6.8,10.3,11.9,19.9,12.9" class="g4_325"/>
<path d="M501.7,591.5c.1,-.6,.1,-1.1,.1,-1.7c0,-.6,0,-1.1,-.1,-1.7M479.4,571.9c-.6,0,-1.1,-.1,-1.7,-.1c-.5,0,-1.1,.1,-1.6,.1m-22.4,16.2c-.1,.6,-.1,1.1,-.1,1.7c0,.6,0,1.1,.1,1.7m22.4,16.2c.5,.1,1.1,.1,1.6,.1c.6,0,1.1,0,1.7,-.1" class="g5_325"/>
<image clip-path="url(#c1_325)" preserveAspectRatio="none" x="122" y="502" width="150" height="78" xlink:href="img/2.png"/>
<image clip-path="url(#c2_325)" preserveAspectRatio="none" x="122" y="502" width="149" height="77" xlink:href="img/3.png"/>
<path d="M127.4,516.3l3.9,56.3l112.4,-8.5l21.8,-20.4l-2.6,-37.4Z" class="g6_325"/>
<path d="M243.8,564.1l21.8,-20.4l-13.9,-4.5Z" class="g7_325"/>
<path d="M456.4,603.7C436.7,613.8,347,654.3,239,621.3m-5.3,-5.4c-.7,-2.7,.3,-5.4,8.6,-3.8m1.6,9.1c-5.4,1,-16.1,.7,-33.7,-8.6m-6.9,-4c-7.5,-4.8,-24,-16.4,-37,-33.1" class="g4_325"/>
<path d="M460.4,601.6c0,0,-.5,.2,-1.3,.7M237.6,620.8c-.5,-.1,-1,-.3,-1.5,-.4c0,0,-.4,-.6,-.9,-1.4m8.8,-6.6c.5,.2,1,.3,1.6,.4c0,0,.9,.5,1.8,1.3m2,3.8c-.1,.6,-.5,1.2,-1.2,1.8c0,0,-.4,.4,-1.4,.7m-38,-8.6c-.4,-.2,-.9,-.4,-1.3,-.7c0,0,-.5,-.3,-1.4,-.8M165.3,574.2c-.4,-.4,-.7,-.8,-1,-1.3" class="g5_325"/>
<path d="M169.5,571.6l-7.5,4.7l-2.2,-12Z" class="g8_325"/>
<image clip-path="url(#c3_325)" preserveAspectRatio="none" x="113" y="698" width="181" height="70" xlink:href="img/4.png"/>
<path d="M118.4,704.9l.6,56.4l168.5,-1.9l-.2,-56.5Z" class="g3_325"/>
<path d="M346.5,683.1c17.4,-.9,31.3,-7.2,34,-15.3m-.5,-7c-3.8,-7.7,-17.9,-13.4,-34.9,-14m-7.3,0c-17.4,.9,-31.3,7.2,-34,15.3m.6,7c3.8,7.7,17.8,13.5,34.9,14.1" class="g9_325"/>
<path d="M380.9,666.4c0,-.5,.1,-1,.1,-1.4c0,-.5,-.1,-1,-.1,-1.5M343.6,646.7c-.5,0,-1,0,-1.4,0c-.5,0,-1,0,-1.5,0m-37.2,16.8c-.1,.5,-.2,1,-.2,1.5c0,.4,.1,.9,.2,1.4m37.2,16.8c.5,0,1,0,1.5,0c.4,0,.9,0,1.4,0" class="g5_325"/>
<image clip-path="url(#c4_325)" preserveAspectRatio="none" x="115" y="693" width="178" height="78" xlink:href="img/5.png"/>
<image clip-path="url(#c5_325)" preserveAspectRatio="none" x="115" y="693" width="178" height="78" xlink:href="img/6.png"/>
<path d="M120.4,708.2l4,56.2l140.2,-9.8l21.8,-20.4l-2.6,-37.4Z" class="g6_325"/>
<path d="M264.7,754.6l21.8,-20.4l-14.1,-4.9Z" class="g7_325"/>
<path d="M317.9,650c0,0,-128.4,-30.9,-162.2,61.3" class="g4_325"/>
<path d="M154.2,704.4l7.8,4.1l-9.3,7.9Z" class="g8_325"/>
<path d="M166.7,959.2c0,0,-13,0,-13,13v194.1c0,0,0,13,13,13H854.5c0,0,13,0,13,-13V972.2c0,0,0,-13,-13,-13Z" class="g1_325"/>
<path d="M166.7,959.2c0,0,-13,0,-13,13v194.1c0,0,0,13,13,13H854.5c0,0,13,0,13,-13V972.2c0,0,0,-13,-13,-13H166.7Z" class="g2_325"/>
<path d="M591.1,1196.2c0,0,-4.3,0,-4.3,4.3v10.8c0,0,0,4.4,4.3,4.4h30.3c0,0,4.4,0,4.4,-4.4v-10.8c0,0,0,-4.3,-4.4,-4.3Z" class="ga_325"/>
<path d="M577.9,1188.7v54.8m1.4,1H866.8m.9,-1.3v-54.9m-1.3,-1H578.9" class="gb_325"/>
<path d="M577.9,1243.9v.6h.6m288.7,0h.5v-.6m0,-56v-.6h-.5m-288.7,0h-.6v.6" class="gc_325"/>
<path d="M231.3,1003.5c0,0,-13,0,-13,12.9v21.7c0,0,0,13,13,13h602c0,0,13,0,13,-13v-21.7c0,0,0,-12.9,-13,-12.9Z" class="gd_325"/>
<image clip-path="url(#c6_325)" preserveAspectRatio="none" x="174" y="974" width="75" height="76" xlink:href="img/7.png"/>
<path d="M226.1,1043.7c0,0,-26.9,11.3,-51.1,-12.7c0,0,15.2,25.3,49.3,23.9c0,0,24.7,.4,20.2,-10.1c0,0,1.3,-4.4,-18.4,-1.1Z" class="gd_325"/>
<path d="M231.3,198.8c0,0,-13,0,-13,13v47.6c0,0,0,13,13,13h602c0,0,13,0,13,-13V211.8c0,0,0,-13,-13,-13Z" class="gd_325"/>
<image clip-path="url(#c7_325)" preserveAspectRatio="none" x="174" y="195" width="75" height="76" xlink:href="img/8.png"/>
<path d="M226.1,265.1c0,0,-26.9,11.3,-51.1,-12.8c0,0,15.2,25.3,49.3,24c0,0,24.7,.3,20.2,-10.1c0,0,1.3,-4.5,-18.4,-1.1Z" class="gd_325"/>
<path d="M605.7,832.4c26.3,-.6,47.3,-6.8,51.6,-14.8m-.8,-7.3c-6,-7.4,-27,-13,-52.4,-13.4m-7.9,0c-26.2,.7,-47.3,6.8,-51.7,14.7m.9,7.3c6,7.5,27,13,52.4,13.5" class="g4_325"/>
<path d="M657.9,816.2c.2,-.5,.2,-1.1,.2,-1.6c0,-.5,0,-1,-.2,-1.5M602.5,796.8c-.5,0,-1.1,0,-1.6,0c-.5,0,-1,0,-1.6,0m-55.4,16.3c-.1,.5,-.2,1,-.2,1.5c0,.5,.1,1.1,.2,1.6m55.4,16.2c.6,0,1.1,0,1.6,0c.5,0,1.1,0,1.6,0" class="g5_325"/>
<image clip-path="url(#c8_325)" preserveAspectRatio="none" x="757" y="709" width="155" height="88" xlink:href="img/9.png"/>
<path d="M762.6,715.4l.7,75.6l143,.1l-1.1,-76.6Z" class="g3_325"/>
<image clip-path="url(#c9_325)" preserveAspectRatio="none" x="757" y="706" width="156" height="95" xlink:href="img/10.png"/>
<image clip-path="url(#ca_325)" preserveAspectRatio="none" x="756" y="706" width="157" height="95" xlink:href="img/11.png"/>
<path d="M761.7,720.6l5.9,73.6l117.6,-8.3L907,765.4l-4.6,-54.8Z" class="g6_325"/>
<path d="M885.2,785.8L907,765.5l-14.8,-4.6Z" class="g7_325"/>
<path d="M841,793.4l8.2,3.3l.1,-12.2Z" class="g8_325"/>
<path d="M578.9,833.6c11.5,7.4,53,27.6,167,28.8m7.8,-.2c14.1,-1.4,17.3,-9.6,16.2,-13.6m-6.5,-1.3c-1.4,.8,-2.3,2.1,-2.6,3.8m4.1,5.1c13.7,2.9,59.4,-2.2,79.7,-60.6" class="g4_325"/>
<path d="M575.2,830.8c0,0,.3,.4,1.1,1m171.1,30.6c.5,0,1,0,1.6,0c.5,0,1,0,1.5,0m18.7,-15.2c-.4,-.5,-.8,-.8,-1.3,-.8c-.6,-.1,-1.1,-.1,-1.6,0m-5.6,6.2c0,.5,.1,1.1,.2,1.6c.1,.3,.5,.7,1.1,1m83.1,-61.1c.2,-.4,.3,-.9,.5,-1.4" class="g5_325"/>
<image clip-path="url(#cb_325)" x="828" y="716" width="5" height="9" xlink:href="shade/1.png"/>
<image clip-path="url(#cc_325)" x="827" y="689" width="24" height="28" xlink:href="shade/2.png"/>
<image clip-path="url(#cd_325)" x="827" y="692" width="23" height="33" xlink:href="shade/3.png"/>
<image clip-path="url(#ce_325)" x="832" y="688" width="20" height="10" xlink:href="shade/4.png"/>
<image clip-path="url(#cf_325)" x="190" y="511" width="6" height="9" xlink:href="shade/5.png"/>
<image clip-path="url(#cg_325)" x="189" y="485" width="25" height="28" xlink:href="shade/6.png"/>
<image clip-path="url(#ch_325)" x="189" y="487" width="23" height="33" xlink:href="shade/7.png"/>
<image clip-path="url(#ci_325)" x="195" y="483" width="20" height="10" xlink:href="shade/8.png"/>
<image clip-path="url(#cj_325)" x="194" y="705" width="6" height="9" xlink:href="shade/9.png"/>
<image clip-path="url(#ck_325)" x="194" y="679" width="24" height="28" xlink:href="shade/10.png"/>
<image clip-path="url(#cl_325)" x="194" y="681" width="23" height="33" xlink:href="shade/11.png"/>
<image clip-path="url(#cm_325)" x="199" y="677" width="20" height="10" xlink:href="shade/12.png"/>
<path d="M153.3,111.9v39L165,161.2V117Z" class="ge_325"/>
<path d="M153.3,111.9v39H851.1c0,0,16.8,0,16.8,-16.8v-5.3c0,0,0,-16.9,-16.8,-16.9Z" class="ga_325"/>
<path d="M802.6,145.6c8.2,0,14.9,-6.5,14.9,-14.5c0,-8.1,-6.7,-14.5,-14.9,-14.5c-8.2,0,-14.9,6.4,-14.9,14.5c0,8,6.7,14.5,14.9,14.5Z" class="gf_325"/>
<path d="M802.6,145.6c8.2,0,14.9,-6.5,14.9,-14.5c0,-8.1,-6.7,-14.5,-14.9,-14.5c-8.2,0,-14.9,6.4,-14.9,14.5c0,8,6.7,14.5,14.9,14.5Z" class="gg_325"/>
<path d="M802.6,136.4c3,0,5.5,-2.4,5.5,-5.3c0,-3,-2.5,-5.4,-5.5,-5.4c-3,0,-5.5,2.4,-5.5,5.4c0,2.9,2.5,5.3,5.5,5.3Z" class="g1_325"/>
<path d="M802.6,136.4c3,0,5.5,-2.4,5.5,-5.3c0,-3,-2.5,-5.4,-5.5,-5.4c-3,0,-5.5,2.4,-5.5,5.4c0,2.9,2.5,5.3,5.5,5.3Z" class="gh_325"/>
<g clip-path="url(#cn_325)" opacity="0.3">
<path d="M788,130.3c0,0,0,-4.8,3.7,-8.7l7.7,6.8c0,0,-1,.9,-1,2.6Z" class="g1_325"/>
</g>
<path d="M807.2,131c0,0,-3.5,0,-3.5,3.4v8.7c0,0,0,3.5,3.5,3.5h43.5c0,0,3.5,0,3.5,-3.5v-8.7c0,0,0,-3.4,-3.5,-3.4Z" class="gi_325"/>
<path d="M191.2,122c0,-8.3,-6.8,-15,-15.1,-15c-8.3,0,-15,6.7,-15,15c0,8.3,6.7,15.1,15,15.1c.8,0,1.7,-.1,2.4,-.2l4.5,5.2v-6.7c4.9,-2.5,8.2,-7.6,8.2,-13.4Z" class="g1_325"/>
<path d="M183.5,143.3l-5.1,-5.9c-.8,.1,-1.5,.1,-2.3,.1c-8.5,0,-15.5,-6.9,-15.5,-15.5c0,-8.5,7,-15.5,15.5,-15.5c8.6,0,15.5,7,15.5,15.5c0,5.7,-3.1,11,-8.1,13.7Zm-4.8,-6.9l3.9,4.5v-5.8l.2,-.1c4.9,-2.5,7.9,-7.5,7.9,-13c0,-8,-6.5,-14.6,-14.6,-14.6c-8,0,-14.6,6.6,-14.6,14.6c0,8.1,6.6,14.6,14.6,14.6c.8,0,1.6,-.1,2.4,-.2Z" class="gj_325"/>
<path d="M169.1,121.6c.8,0,1.4,.6,1.4,1.4c0,.8,-.6,1.5,-1.4,1.5c-.8,0,-1.4,-.7,-1.4,-1.5c0,-.8,.6,-1.4,1.4,-1.4Z" class="gk_325"/>
<path d="M169.1,124.9c-1,0,-1.9,-.8,-1.9,-1.9c0,-1,.9,-1.9,1.9,-1.9c1,0,1.9,.9,1.9,1.9c0,1.1,-.9,1.9,-1.9,1.9m0,-2.9c-.5,0,-1,.5,-1,1c0,.6,.5,1,1,1c.5,0,1,-.4,1,-1c0,-.5,-.5,-1,-1,-1Z" class="gj_325"/>
<path d="M176.1,121.6c.8,0,1.5,.6,1.5,1.4c0,.8,-.7,1.5,-1.5,1.5c-.8,0,-1.4,-.7,-1.4,-1.5c0,-.8,.6,-1.4,1.4,-1.4Z" class="gk_325"/>
<path d="M176.1,124.9c-1,0,-1.9,-.8,-1.9,-1.9c0,-1,.9,-1.9,1.9,-1.9c1.1,0,1.9,.9,1.9,1.9c0,1.1,-.8,1.9,-1.9,1.9m0,-2.9c-.5,0,-1,.5,-1,1c0,.6,.5,1,1,1c.6,0,1,-.4,1,-1c0,-.5,-.4,-1,-1,-1Z" class="gj_325"/>
<path d="M183.1,121.6c.8,0,1.5,.6,1.5,1.4c0,.8,-.7,1.5,-1.5,1.5c-.8,0,-1.4,-.7,-1.4,-1.5c0,-.8,.6,-1.4,1.4,-1.4Z" class="gk_325"/>
<path d="M183.1,124.9c-1,0,-1.9,-.8,-1.9,-1.9c0,-1,.9,-1.9,1.9,-1.9c1.1,0,1.9,.9,1.9,1.9c0,1.1,-.8,1.9,-1.9,1.9m0,-2.9c-.5,0,-1,.5,-1,1c0,.6,.5,1,1,1c.6,0,1,-.4,1,-1c0,-.5,-.4,-1,-1,-1Z" class="gj_325"/>
<path d="M185.1,136.3c0,-9.8,7.8,-17.7,17.6,-17.7c9.7,0,17.6,7.9,17.6,17.7c0,9.7,-7.9,17.6,-17.6,17.6c-1,0,-1.9,-.1,-2.9,-.3l-5.2,6.1v-7.8c-5.7,-2.9,-9.5,-8.8,-9.5,-15.6Z" class="gl_325"/>
<path d="M194.6,160.2q-.1,0,-.2,0c-.2,-.1,-.3,-.3,-.3,-.5v-7.5c-5.9,-3.2,-9.5,-9.2,-9.5,-15.9c0,-10,8.1,-18.1,18.1,-18.1c9.9,0,18,8.1,18,18.1c0,9.9,-8.1,18,-18,18c-.9,0,-1.8,0,-2.7,-.2l-5.1,5.9c-.1,.1,-.2,.2,-.3,.2m8.1,-41.1c-9.5,0,-17.2,7.7,-17.2,17.2c0,6.4,3.6,12.2,9.3,15.2c.1,.1,.2,.2,.2,.4v6.6l4.5,-5.2c.1,-.1,.3,-.1,.4,-.1c1,.1,1.9,.2,2.8,.2c9.4,0,17.1,-7.7,17.1,-17.1c0,-9.5,-7.7,-17.2,-17.1,-17.2Z" class="gj_325"/>
<path d="M210.9,135.8c.9,0,1.6,.7,1.6,1.6c0,1,-.7,1.7,-1.6,1.7c-1,0,-1.7,-.7,-1.7,-1.7c0,-.9,.7,-1.6,1.7,-1.6Z" class="g1_325"/>
<path d="M210.9,139.6c-1.2,0,-2.2,-1,-2.2,-2.2c0,-1.1,1,-2.1,2.2,-2.1c1.1,0,2.1,1,2.1,2.1c0,1.2,-1,2.2,-2.1,2.2m0,-3.4c-.7,0,-1.3,.6,-1.3,1.2c0,.7,.6,1.3,1.3,1.3c.6,0,1.2,-.6,1.2,-1.3c0,-.6,-.6,-1.2,-1.2,-1.2Z" class="gj_325"/>
<path d="M202.7,135.8c.9,0,1.6,.7,1.6,1.6c0,1,-.7,1.7,-1.6,1.7c-1,0,-1.7,-.7,-1.7,-1.7c0,-.9,.7,-1.6,1.7,-1.6Z" class="g1_325"/>
<path d="M202.7,139.6c-1.2,0,-2.2,-1,-2.2,-2.2c0,-1.1,1,-2.1,2.2,-2.1c1.1,0,2.1,1,2.1,2.1c0,1.2,-1,2.2,-2.1,2.2m0,-3.4c-.7,0,-1.3,.6,-1.3,1.2c0,.7,.6,1.3,1.3,1.3c.6,0,1.2,-.6,1.2,-1.3c0,-.6,-.6,-1.2,-1.2,-1.2Z" class="gj_325"/>
<path d="M194.5,135.8c.9,0,1.6,.7,1.6,1.6c0,1,-.7,1.7,-1.6,1.7c-1,0,-1.7,-.7,-1.7,-1.7c0,-.9,.7,-1.6,1.7,-1.6Z" class="g1_325"/>
<path d="M194.5,139.6c-1.2,0,-2.2,-1,-2.2,-2.2c0,-1.1,1,-2.1,2.2,-2.1c1.1,0,2.1,1,2.1,2.1c0,1.2,-1,2.2,-2.1,2.2m0,-3.4c-.7,0,-1.2,.6,-1.2,1.2c0,.7,.5,1.3,1.2,1.3c.6,0,1.2,-.6,1.2,-1.3c0,-.6,-.6,-1.2,-1.2,-1.2Z" class="gj_325"/>
<path d="M32.1,45.1H9.2m958.3,0h22.9M32.1,1331.3H9.2m958.3,0h22.9M45.1,32.1V9.2m0,1335.1v22.9M954.5,32.1V9.2m0,1335.1v22.9" class="gm_325"/>
<path d="M32.1,45.1H9.2m958.3,0h22.9M32.1,1331.3H9.2m958.3,0h22.9M45.1,32.1V9.2m0,1335.1v22.9M954.5,32.1V9.2m0,1335.1v22.9" class="gn_325"/>
<path d="M27.5,32.1H0m972.1,0h27.5M27.5,1344.3H0m972.1,0h27.5M32.1,27.5V0m0,1348.9v27.5M967.5,27.5V0m0,1348.9v27.5" class="gm_325"/>
<path d="M27.5,32.1H0m972.1,0h27.5M27.5,1344.3H0m972.1,0h27.5M32.1,27.5V0m0,1348.9v27.5M967.5,27.5V0m0,1348.9v27.5" class="gn_325"/>
</svg>