<?xml version="1.0" encoding="UTF-8" standalone="no"?>
<!DOCTYPE svg PUBLIC "-//W3C//DTD SVG 1.1//EN"
"http://www.w3.org/Graphics/SVG/1.1/DTD/svg11.dtd">
<svg viewBox="0 0 999 1376" version="1.1" xmlns="http://www.w3.org/2000/svg" xmlns:xlink="http://www.w3.org/1999/xlink">
<defs>
<clipPath id="c0_74"><path d="M179.7,935.1V840.6H285.4v94.5Z"/></clipPath>
<clipPath id="c1_74"><path d="M241,980.8V888.4H343.8v92.4Z"/></clipPath>
<clipPath id="c2_74"><path d="M396,922.6V841.4h94.6v81.2Z"/></clipPath>
<clipPath id="c3_74"><path d="M468.5,969.9V896.6h87.4v73.3Z"/></clipPath>
<clipPath id="c4_74"><path d="M574.4,923.4V840.1h2.3v83.3Z"/></clipPath>
<clipPath id="c5_74"><path d="M630,923.1v-83h92.7v83Z"/></clipPath>
<clipPath id="c6_74"><path d="M695.8,961.1v-73H798v73Z"/></clipPath>
<clipPath id="c7_74"><path d="M198.1,355.5V256.3H307.9v99.2Z"/></clipPath>
<clipPath id="c8_74"><path d="M516.3,355.5V256.3H635.1v99.2Z"/></clipPath>
<clipPath id="c9_74"><path d="M361.7,355.5V256.3H471.2v99.2Z"/></clipPath>
<clipPath id="ca_74"><path d="M678.2,355.5V256.3H798.7v99.2Z"/></clipPath>
<clipPath id="cb_74"><path d="M523.3,515.5V418.8H628v96.7Z"/></clipPath>
<clipPath id="cc_74"><path d="M177,237.3l-6.5,-2.1L154.1,221.3V164.2h72v73.1Z"/></clipPath>
<clipPath id="cd_74"><path d="M175.9,722.7l-6.5,-2.1L153.1,706.7V649.6H225v73.1Z"/></clipPath>
<style type="text/css"><![CDATA[
.g0_74{
fill: #FEFCF4;
}
.g1_74{
fill: #FFF;
}
.g2_74{
fill: none;
stroke: #6381B7;
stroke-width: 0.763;
}
.g3_74{
fill: none;
stroke: #949698;
stroke-width: 0.549;
}
.g4_74{
fill: none;
stroke: #949698;
stroke-width: 1.1;
}
.g5_74{
fill: #48484A;
}
.g6_74{
fill: #F0E8F3;
}
.g7_74{
fill: #766FA6;
}
.g8_74{
fill: none;
stroke: #949698;
stroke-width: 0.381;
}
.g9_74{
fill: none;
stroke: #231F20;
stroke-width: 0.611;
}
.ga_74{
fill: #6381B7;
}
.gb_74{
fill: none;
stroke: #6381B7;
stroke-width: 0.381;
stroke-dasharray: 2,1;
}
.gc_74{
fill: none;
stroke: #6381B7;
stroke-width: 0.381;
}
.gd_74{
fill: #FCE8B0;
}
.ge_74{
fill: #25408F;
}
.gf_74{
fill: #00BAF1;
}
.gg_74{
fill: #332D2C;
}
.gh_74{
fill: #D9DFF0;
}
.gi_74{
fill: #F27C85;
}
.gj_74{
fill: #7DD3F6;
}
.gk_74{
fill: none;
stroke: #FFF;
stroke-width: 1.909;
stroke-miterlimit: 10;
}
.gl_74{
fill: none;
stroke: #000;
stroke-width: 0.381;
stroke-miterlimit: 10;
}
]]></style>
</defs>
<path d="M32.1,1344.3H954.5V32.1H32.1V1344.3Z" class="g0_74"/>
<path d="M145.1,738.2c0,0,-13,0,-13,13v359.1c0,0,0,13,13,13H832.9c0,0,13,0,13,-13V751.2c0,0,0,-13,-13,-13Z" class="g1_74"/>
<path d="M145.1,738.2c0,0,-13,0,-13,13v359.1c0,0,0,13,13,13H832.9c0,0,13,0,13,-13V751.2c0,0,0,-13,-13,-13H145.1Z" class="g2_74"/>
<path d="M181.2,836.2H289.7V805.5H181.2v30.7Z" class="g3_74"/>
<image clip-path="url(#c0_74)" preserveAspectRatio="none" x="180" y="839" width="105" height="96" xlink:href="img/1.jpg"/>
<image clip-path="url(#c1_74)" preserveAspectRatio="none" x="241" y="887" width="103" height="95" xlink:href="img/2.jpg"/>
<path d="M335.8,848.4L192.3,952.8" class="g4_74"/>
<path d="M219.6,1006.3H328.2V975.7H219.6v30.6ZM408.8,836.2H517.4V805.5H408.8v30.7Z" class="g3_74"/>
<image clip-path="url(#c2_74)" preserveAspectRatio="none" x="395" y="840" width="96" height="83" xlink:href="img/3.jpg"/>
<image clip-path="url(#c3_74)" preserveAspectRatio="none" x="467" y="895" width="90" height="76" xlink:href="img/4.jpg"/>
<path d="M556.1,848.4L412.7,952.8" class="g4_74"/>
<image clip-path="url(#c4_74)" preserveAspectRatio="none" x="575" y="840" width="93" height="84" xlink:href="img/5.jpg"/>
<path d="M447.2,1006.3H555.8V975.7H447.2v30.6ZM647.2,836.2H755.8V805.5H647.2v30.7Z" class="g3_74"/>
<image clip-path="url(#c5_74)" preserveAspectRatio="none" x="630" y="840" width="93" height="84" xlink:href="img/6.jpg"/>
<image clip-path="url(#c6_74)" preserveAspectRatio="none" x="695" y="887" width="103" height="74" xlink:href="img/7.jpg"/>
<path d="M787.3,848.4L643.8,952.8" class="g4_74"/>
<path d="M685.7,1006.3H794.3V975.7H685.7v30.6Z" class="g3_74"/>
<path d="M175,1058.3c0,0,-4.3,0,-4.3,4.3V1077c0,0,0,4.3,4.1,5.7l52.4,18.3c0,0,4.1,1.4,4.1,-2.9v-35.5c0,0,0,-4.3,-4.3,-4.3Z" class="g5_74"/>
<path d="M196.1,1045.5c0,0,-12.9,0,-12.9,13v30.9c0,0,0,13,12.9,13H793.8c0,0,13,0,13,-13v-30.9c0,0,0,-13,-13,-13Z" class="g6_74"/>
<path d="M175,1056.1c0,0,-4.3,0,-4.3,4.4v16.9c0,0,0,4.3,4.3,4.3h35.1c0,0,4.3,0,4.3,-4.3v-16.9c0,0,0,-4.4,-4.3,-4.4Z" class="g7_74"/>
<path d="M150.4,135.8c0,0,-18.3,0,-18.3,18.4V575.8c0,0,0,18.3,18.3,18.3H827.5c0,0,18.4,0,18.4,-18.3v-440Z" class="g1_74"/>
<path d="M150.4,135.8c0,0,-18.3,0,-18.3,18.4V575.8c0,0,0,18.3,18.3,18.3H827.5c0,0,18.4,0,18.4,-18.3v-440H150.4Z" class="g2_74"/>
<path d="M187.4,355.5H307.9V256.3H187.4v99.2Z" class="g1_74"/>
<image clip-path="url(#c7_74)" preserveAspectRatio="none" x="198" y="254" width="112" height="101" xlink:href="img/8.jpg"/>
<path d="M187.4,355.5H307.9V256.3H187.4v99.2Z" class="g8_74"/>
<path d="M514.6,355.5H635.1V256.3H514.6v99.2Z" class="g1_74"/>
<image clip-path="url(#c8_74)" preserveAspectRatio="none" x="516" y="255" width="121" height="102" xlink:href="img/9.jpg"/>
<path d="M514.6,355.5H635.1V256.3H514.6v99.2Z" class="g8_74"/>
<path d="M351,355.5H471.5V256.3H351v99.2Z" class="g1_74"/>
<image clip-path="url(#c9_74)" preserveAspectRatio="none" x="362" y="255" width="109" height="100" xlink:href="img/10.jpg"/>
<path d="M351,355.5H471.5V256.3H351v99.2Z" class="g8_74"/>
<path d="M678.2,355.5H798.7V256.3H678.2v99.2Z" class="g1_74"/>
<image clip-path="url(#ca_74)" preserveAspectRatio="none" x="678" y="255" width="121" height="102" xlink:href="img/11.jpg"/>
<path d="M678.2,355.5H798.7V256.3H678.2v99.2Z" class="g8_74"/>
<path d="M187.4,518H307.9V418.8H187.4V518Z" class="g1_74"/>
<image preserveAspectRatio="none" x="198" y="419" width="99" height="99" xlink:href="img/12.jpg"/>
<path d="M187.4,518H307.9V418.8H187.4V518Z" class="g8_74"/>
<path d="M351,518H471.5V418.8H351V518Z" class="g1_74"/>
<image preserveAspectRatio="none" x="362" y="419" width="99" height="99" xlink:href="img/13.jpg"/>
<path d="M351,518H471.5V418.8H351V518Z" class="g8_74"/>
<path d="M514.6,518H635.1V418.8H514.6V518Z" class="g1_74"/>
<image clip-path="url(#cb_74)" preserveAspectRatio="none" x="523" y="417" width="105" height="99" xlink:href="img/14.jpg"/>
<path d="M514.6,518H635.1V418.8H514.6V518Z" class="g8_74"/>
<path d="M678.2,518H798.7V418.8H678.2V518Z" class="g1_74"/>
<image preserveAspectRatio="none" x="689" y="419" width="99" height="99" xlink:href="img/15.jpg"/>
<path d="M678.2,518H798.7V418.8H678.2V518Z" class="g8_74"/>
<path d="M178.8,839.5H298.5V805.4H178.8v34.1Z" class="g1_74"/>
<path d="M178.8,839.5H298.5V805.4H178.8v34.1Z" class="g9_74"/>
<path d="M218.6,1008.4H338.4V974.3H218.6v34.1Z" class="g1_74"/>
<path d="M218.6,1008.4H338.4V974.3H218.6v34.1Z" class="g9_74"/>
<path d="M405.7,839.5H525.5V805.4H405.7v34.1Z" class="g1_74"/>
<path d="M405.7,839.5H525.5V805.4H405.7v34.1Z" class="g9_74"/>
<path d="M445.5,1008.4H565.3V974.3H445.5v34.1Z" class="g1_74"/>
<path d="M445.5,1008.4H565.3V974.3H445.5v34.1Z" class="g9_74"/>
<path d="M645.2,839.5H765V805.4H645.2v34.1Z" class="g1_74"/>
<path d="M645.2,839.5H765V805.4H645.2v34.1Z" class="g9_74"/>
<path d="M685,1008.4H804.8V974.3H685v34.1Z" class="g1_74"/>
<path d="M685,1008.4H804.8V974.3H685v34.1Z" class="g9_74"/>
<path d="M401.7,1140.3c0,0,-4.4,0,-4.4,4.3v10.8c0,0,0,4.4,4.4,4.4H432c0,0,4.3,0,4.3,-4.4v-10.8c0,0,0,-4.3,-4.3,-4.3Z" class="ga_74"/>
<path d="M388.5,1131.4V1169m1.3,1H845.1m1,-1.4v-37.5m-1.4,-1H389.4" class="gb_74"/>
<path d="M388.5,1169.4v.6h.5m456.5,0h.6v-.6m0,-38.7v-.6h-.6m-456.5,0h-.5v.6" class="gc_74"/>
<path d="M209.6,192.3c0,0,-12.9,0,-12.9,13V227c0,0,0,12.9,12.9,12.9h602c0,0,13,0,13,-12.9V205.3c0,0,0,-13,-13,-13Z" class="gd_74"/>
<image clip-path="url(#cc_74)" preserveAspectRatio="none" x="153" y="163" width="75" height="76" xlink:href="img/16.png"/>
<path d="M204.4,232.6c0,0,-26.8,11.3,-51.1,-12.8c0,0,15.2,25.4,49.3,24c0,0,24.8,.3,20.3,-10.1c0,0,1.2,-4.5,-18.5,-1.1Z" class="gd_74"/>
<path d="M208.6,677.7c0,0,-13,0,-13,13v21.7c0,0,0,13,13,13H833.3c0,0,13,0,13,-13V690.7c0,0,0,-13,-13,-13Z" class="gd_74"/>
<image clip-path="url(#cd_74)" preserveAspectRatio="none" x="151" y="648" width="75" height="76" xlink:href="img/17.png"/>
<path d="M203.4,718c0,0,-26.9,11.3,-51.1,-12.7c0,0,15.1,25.3,49.2,23.9c0,0,24.8,.4,20.3,-10.1c0,0,1.2,-4.4,-18.4,-1.1Z" class="gd_74"/>
<path d="M131.7,126.7v22.2l11.7,10.3V137Z" class="ge_74"/>
<path d="M131.7,109.9v39H829.4c0,0,16.9,0,16.9,-16.8v-5.4c0,0,0,-16.8,-16.9,-16.8Z" class="ga_74"/>
<path d="M189.6,121.3l-6.4,-6.5L162,136l6.4,6.5Z" class="gf_74"/>
<path d="M168.4,143c.2,0,.3,0,.4,-.1L190,121.7c.1,-.1,.2,-.3,.2,-.4c0,-.1,-.1,-.3,-.2,-.4l-6.5,-6.4c-.2,-.2,-.5,-.2,-.7,0l-21.2,21.2c-.1,.1,-.2,.2,-.2,.3c0,.2,.1,.3,.2,.4l6.5,6.5c.1,.1,.2,.1,.3,.1m20.5,-21.7l-20.5,20.5L162.7,136l20.5,-20.4Z" class="gg_74"/>
<path d="M189.6,121.3l-6.4,-6.5l2.1,-2.1l6.5,6.5Z" class="gh_74"/>
<path d="M189.6,121.8c.2,0,.3,0,.4,-.1l2.1,-2.1c.1,-.1,.2,-.3,.2,-.4c0,-.2,-.1,-.3,-.2,-.4l-6.4,-6.5c-.2,-.2,-.6,-.2,-.8,0l-2.1,2.2c-.1,0,-.2,.2,-.2,.3c0,.2,.1,.3,.2,.4l6.5,6.5c.1,.1,.2,.1,.3,.1m1.4,-2.6l-1.4,1.4l-5.7,-5.8l1.4,-1.4Z" class="gg_74"/>
<path d="M195.4,115.6l-6.5,-6.5l-3.6,3.6l6.5,6.5Z" class="gi_74"/>
<path d="M191.8,119.7c.1,0,.2,0,.3,-.1l3.7,-3.7c.2,-.2,.2,-.5,0,-.7l-6.5,-6.5c-.2,-.2,-.6,-.2,-.8,0l-3.6,3.6c-.2,.2,-.2,.6,0,.8l6.5,6.5c.1,.1,.2,.1,.4,.1m2.8,-4.1l-2.8,2.8L186,112.7l2.9,-2.9Z" class="gg_74"/>
<path d="M157.3,147.2L162,136l6.4,6.5Z" class="g1_74"/>
<path d="M157.3,147.7c.1,0,.2,0,.2,-.1L168.6,143c.2,-.1,.3,-.2,.4,-.4c0,-.2,-.1,-.3,-.2,-.5l-6.5,-6.4c-.1,-.2,-.3,-.2,-.5,-.2c-.1,.1,-.3,.2,-.3,.3l-4.7,11.1c0,.2,0,.5,.1,.6c.1,.1,.3,.2,.4,.2m10.2,-5.4l-9.2,3.9l3.8,-9.2Z" class="gg_74"/>
<path d="M157.3,147.2l2.3,-5.4l3.1,3.1Z" class="gg_74"/>
<path d="M157.3,147.7c.1,0,.2,0,.2,-.1l5.4,-2.2c.1,-.1,.3,-.2,.3,-.4c0,-.2,0,-.3,-.1,-.5l-3.2,-3.1c-.1,-.1,-.3,-.2,-.4,-.1c-.2,0,-.4,.1,-.4,.3l-2.3,5.3c0,.2,0,.5,.1,.6c.1,.1,.3,.2,.4,.2m4.5,-3l-3.5,1.5l1.4,-3.5Z" class="gg_74"/>
<path d="M187.9,119.5l-3,-2.9l-21.2,21.2l3,3Z" class="gj_74"/>
<path d="M166.7,141.3c.1,0,.2,-.1,.3,-.2l21.3,-21.2c.1,-.1,.1,-.2,.1,-.4c0,-.1,0,-.2,-.1,-.3l-3,-3c-.2,-.2,-.5,-.2,-.8,0l-21.2,21.2c-.1,.1,-.1,.3,-.1,.4c0,.1,0,.3,.1,.4l3,2.9c.1,.1,.2,.2,.4,.2m20.4,-21.8L166.7,140l-2.2,-2.2l20.4,-20.5Z" class="gg_74"/>
<path d="M32.1,45.1H9.2m958.3,0h22.9M32.1,1331.3H9.2m958.3,0h22.9M45.1,32.1V9.2m0,1335.1v22.9M954.5,32.1V9.2m0,1335.1v22.9" class="gk_74"/>
<path d="M32.1,45.1H9.2m958.3,0h22.9M32.1,1331.3H9.2m958.3,0h22.9M45.1,32.1V9.2m0,1335.1v22.9M954.5,32.1V9.2m0,1335.1v22.9" class="gl_74"/>
<path d="M27.5,32.1H0m972.1,0h27.5M27.5,1344.3H0m972.1,0h27.5M32.1,27.5V0m0,1348.9v27.5M967.5,27.5V0m0,1348.9v27.5" class="gk_74"/>
<path d="M27.5,32.1H0m972.1,0h27.5M27.5,1344.3H0m972.1,0h27.5M32.1,27.5V0m0,1348.9v27.5M967.5,27.5V0m0,1348.9v27.5" class="gl_74"/>
</svg>