<?xml version="1.0" encoding="UTF-8" standalone="no"?>
<!DOCTYPE svg PUBLIC "-//W3C//DTD SVG 1.1//EN"
"http://www.w3.org/Graphics/SVG/1.1/DTD/svg11.dtd">
<svg viewBox="0 0 999 1376" version="1.1" xmlns="http://www.w3.org/2000/svg" xmlns:xlink="http://www.w3.org/1999/xlink">
<defs>
<clipPath id="c0_233"><path d="M152.6,1243.8V130.8H867.2v1113Z"/></clipPath>
<clipPath id="c1_233"><path d="M193.4,376.2V267.1H302.6V376.2Z"/></clipPath>
<clipPath id="c2_233"><path d="M172.4,775.5V666.4h74.4V775.5Z"/></clipPath>
<clipPath id="c3_233"><path d="M395.9,775.5V666.4h86.6V775.5Z"/></clipPath>
<clipPath id="c4_233"><path d="M634.5,775.5V666.4h86.7V775.5Z"/></clipPath>
<clipPath id="c5_233"><path d="M534.9,376V266.9H644.1V376Z"/></clipPath>
<clipPath id="c6_233"><path d="M705.3,376V266.9H815.2V376Z"/></clipPath>
<clipPath id="c7_233"><path d="M193.4,553.1V443.9H302.6V553.1Z"/></clipPath>
<clipPath id="c8_233"><path d="M534.9,552.9V443.7H644.1V552.9Z"/></clipPath>
<clipPath id="c9_233"><path d="M705.3,552.9V443.7H815.2V552.9Z"/></clipPath>
<clipPath id="ca_233"><path d="M240.3,1062.5c-19.4,0,-35.1,-15.7,-35.1,-35.1c0,-19.3,15.7,-35,35.1,-35c19.4,0,35.1,15.7,35.1,35c0,19.4,-15.7,35.1,-35.1,35.1Z"/></clipPath>
<clipPath id="cb_233"><path d="M240.3,1182.9c-19.4,0,-35.1,-15.7,-35.1,-35.1c0,-19.4,15.7,-35.1,35.1,-35.1c19.4,0,35.1,15.7,35.1,35.1c0,19.4,-15.7,35.1,-35.1,35.1Z"/></clipPath>
<clipPath id="cc_233"><path d="M240.3,942.1c-19.4,0,-35.1,-15.7,-35.1,-35c0,-19.4,15.7,-35.1,35.1,-35.1c19.4,0,35.1,15.7,35.1,35.1c0,19.3,-15.7,35,-35.1,35Z"/></clipPath>
<clipPath id="cd_233"><path d="M485.9,884.2V851.1H590.7v33.1Z"/></clipPath>
<clipPath id="ce_233"><path d="M485.9,1006.8V972.5H590.7v34.3Z"/></clipPath>
<clipPath id="cf_233"><path d="M485.9,1145.8V1111H590.7v34.8Z"/></clipPath>
<clipPath id="cg_233"><path d="M666.7,883.6V851.1H797.9v32.5Z"/></clipPath>
<clipPath id="ch_233"><path d="M666.7,1006.5V971.9H797.9v34.6Z"/></clipPath>
<clipPath id="ci_233"><path d="M666.7,1145.8v-35.4H797.9v35.4Z"/></clipPath>
<style type="text/css"><![CDATA[
.g0_233{
fill: #FFF;
}
.g1_233{
fill: none;
stroke: #231F20;
stroke-width: 0.756;
stroke-miterlimit: 3;
}
.g2_233{
fill: none;
stroke: #949698;
stroke-width: 0.42;
}
.g3_233{
fill: none;
stroke: #72B787;
stroke-width: 1.65;
}
.g4_233{
fill: none;
stroke: #231F20;
stroke-width: 0.458;
stroke-dasharray: 2,1;
}
.g5_233{
fill: #25408F;
}
.g6_233{
fill: #6381B7;
}
.g7_233{
fill: #FFDE2C;
}
.g8_233{
fill: none;
stroke: #231F20;
stroke-width: 1.451;
stroke-miterlimit: 10;
}
.g9_233{
fill: #D2D3D5;
}
.ga_233{
fill: #A8AAAD;
}
.gb_233{
fill: none;
stroke: #231F20;
stroke-width: 0.828;
stroke-miterlimit: 10;
}
.gc_233{
fill: #6CCFF6;
}
.gd_233{
fill: none;
stroke: #231F20;
stroke-width: 0.828;
stroke-linecap: round;
stroke-linejoin: round;
}
.ge_233{
fill: none;
stroke: #231F20;
stroke-width: 1.451;
stroke-linecap: round;
stroke-linejoin: round;
}
.gf_233{
fill: none;
stroke: #FFF;
stroke-width: 1.909;
stroke-miterlimit: 10;
}
.gg_233{
fill: none;
stroke: #000;
stroke-width: 0.381;
stroke-miterlimit: 10;
}
]]></style>
</defs>
<path d="M152.6,1243.8H867.2V130.8H152.6v1113Z" class="g0_233"/>
<image clip-path="url(#c0_233)" preserveAspectRatio="none" x="150" y="129" width="719" height="1117" xlink:href="img/1.jpg"/>
<path d="M461.7,167.6h2.2v6h4.3v1.8h-4.3v3.9c0,.9,-.2,1.7,-.5,2.2c-.4,.6,-.7,1,-1.1,1.4c.5,.1,.9,.3,1.1,.6c.2,.4,.3,.8,.3,1.4l-.3,7.4h-2v-6.9c0,-.2,0,-.4,-.1,-.6c-.1,-.1,-.3,-.2,-.6,-.2H448v-1.8h12.4c.4,-.4,.7,-.9,.9,-1.5c.2,-.6,.4,-1.2,.4,-1.8V167.6Zm-15.9,.4h8.5c.4,0,.7,.1,1,.2c.2,.2,.4,.3,.5,.5c.1,.3,.1,.5,.1,.7c0,.3,0,.5,0,.7c-.2,.7,-.5,1.5,-.9,2.2c-.3,.7,-.8,1.5,-1.4,2.2c.7,.1,1.2,.3,1.6,.6c.4,.2,.7,.5,1,.8c.4,.5,.9,1,1.3,1.5c.5,.6,.9,1.1,1.3,1.6l-1.5,1.4c-.2,-.3,-.5,-.6,-.7,-.8c-.2,-.3,-.4,-.5,-.6,-.8c-.2,-.2,-.4,-.5,-.6,-.7c-.2,-.3,-.4,-.5,-.6,-.8c-.4,-.3,-.7,-.6,-1,-.9c-.4,-.2,-.9,-.4,-1.4,-.5c-.9,.9,-1.9,1.7,-3,2.4c-1.1,.8,-2.3,1.4,-3.5,2l-1,-1.8c2.3,-1.1,4.1,-2.2,5.5,-3.6c1.4,-1.3,2.4,-2.8,3.1,-4.4c.1,-.2,.1,-.4,0,-.6c-.1,-.1,-.3,-.1,-.6,-.1h-7.1V168Zm44,12.8h-2.2v-6.3h-5.2c-.2,1.5,-.9,2.6,-2,3.5c-1.2,.8,-2.5,1.2,-4.2,1.2c-.8,0,-1.6,-.1,-2.4,-.3c-.7,-.3,-1.4,-.6,-2,-1.1c-.6,-.5,-1,-1.2,-1.3,-1.9c-.4,-.7,-.5,-1.6,-.5,-2.5c0,-.9,.1,-1.7,.4,-2.5c.4,-.7,.8,-1.3,1.4,-1.8c.5,-.5,1.2,-.9,2,-1.2c.7,-.2,1.5,-.4,2.4,-.4c1.7,0,3.1,.5,4.3,1.4c1.1,.9,1.8,2.2,2,3.8h5.1v-5.1h2.2v13.2Zm0,1.4v9.3c0,.3,0,.5,-.1,.6c-.1,.1,-.3,.2,-.5,.2h-12c-1,0,-1.6,-.2,-2.1,-.5c-.4,-.3,-.6,-1,-.6,-1.9v-7.7h2.2v3.3h10.9v-3.3h2.2ZM479.2,170.5c-.7,-.8,-1.7,-1.2,-3,-1.2c-1.3,0,-2.3,.4,-3,1.2c-.7,.9,-1,1.8,-1,2.9c0,1.1,.3,2,1,2.8c.7,.8,1.7,1.2,3,1.2c1.3,0,2.3,-.4,3,-1.2c.7,-.8,1.1,-1.7,1.1,-2.8c0,-1.1,-.4,-2,-1.1,-2.9Zm8.4,20v-3.3H476.7v2.6c0,.3,0,.4,.1,.6c.1,.1,.3,.1,.6,.1h10.2Zm24.5,-22.9v6h4.3v1.8h-4.3v3c0,1,-.1,1.8,-.4,2.6c-.3,.8,-.9,1.6,-1.7,2.3c.5,.5,.9,1.1,1.1,1.7c.3,.7,.5,1.4,.5,2.1c0,.9,-.2,1.7,-.6,2.4c-.3,.7,-.8,1.3,-1.4,1.8c-.5,.5,-1.2,.9,-2,1.2c-.8,.2,-1.6,.4,-2.4,.4c-.9,0,-1.7,-.2,-2.5,-.4c-.8,-.3,-1.5,-.7,-2.1,-1.2c-.5,-.5,-1,-1.1,-1.3,-1.8c-.4,-.7,-.5,-1.5,-.5,-2.4c0,-.8,.1,-1.6,.5,-2.3c.3,-.7,.8,-1.3,1.3,-1.8c.6,-.5,1.3,-.9,2.1,-1.2c.8,-.3,1.6,-.5,2.5,-.5c.6,0,1.2,.1,1.8,.3c.5,.1,1.1,.3,1.6,.6c.5,-.6,.8,-1.2,1,-1.8c.2,-.7,.3,-1.4,.3,-2.1V167.6h2.2Zm-18.2,.4h8.6c.4,0,.7,.1,1,.2c.2,.2,.4,.3,.5,.5c.1,.3,.1,.5,.1,.7c0,.3,0,.5,0,.7c-.2,.7,-.4,1.5,-.8,2.2c-.3,.7,-.7,1.4,-1.1,2c.5,.1,.9,.3,1.3,.6c.3,.2,.6,.5,.9,.8c.4,.4,.9,.9,1.3,1.5c.4,.5,.9,1,1.2,1.5l-1.4,1.4c-.3,-.3,-.5,-.5,-.7,-.8c-.2,-.2,-.4,-.5,-.6,-.8c-.2,-.2,-.4,-.4,-.6,-.7c-.2,-.2,-.4,-.5,-.7,-.8c-.2,-.2,-.5,-.5,-.8,-.7c-.3,-.2,-.7,-.4,-1.1,-.6c-.9,1,-1.9,1.9,-3.1,2.8c-1.2,.8,-2.5,1.5,-3.8,2.2l-1,-1.8c2.3,-1,4.1,-2.3,5.5,-3.7c1.3,-1.3,2.4,-2.9,3.1,-4.7c.1,-.2,.1,-.4,0,-.6c-.1,-.1,-.3,-.1,-.6,-.1h-7.2V168Zm14.3,16.3c-.8,-.8,-1.8,-1.2,-3,-1.2c-1.2,0,-2.2,.4,-3,1.2c-.8,.7,-1.2,1.7,-1.2,2.8c0,1.2,.4,2.2,1.2,2.9c.8,.7,1.8,1.1,3,1.1c1.2,0,2.2,-.4,3,-1.1c.7,-.7,1.1,-1.7,1.1,-2.9c0,-1.1,-.4,-2.1,-1.1,-2.8Zm24.1,-16c.2,.5,.3,1.1,.4,1.6c.1,.5,.2,1.2,.2,1.9c0,.9,0,1.9,-.1,2.7c-.1,.8,-.3,1.6,-.5,2.3c.7,.2,1.3,.4,1.8,.7c.4,.3,.9,.7,1.2,1.1c.4,.5,.9,1.3,1.5,2.2c.6,.9,1.3,2,2,3.1l-1.6,1.3c-.7,-1,-1.3,-2,-1.9,-2.9c-.6,-.9,-1.1,-1.7,-1.6,-2.3c-.2,-.3,-.5,-.6,-.8,-.8c-.3,-.3,-.7,-.5,-1.2,-.7c-.1,.3,-.3,.6,-.4,.9c-.2,.2,-.3,.5,-.5,.8c-.7,.9,-1.4,1.9,-2.3,2.7c-.8,.9,-1.8,1.8,-2.8,2.6l-1.3,-1.7c.9,-.8,1.8,-1.5,2.6,-2.3c.8,-.8,1.4,-1.6,2,-2.4c.7,-1,1.1,-2.1,1.3,-3.4c.2,-1.2,.3,-2.5,.3,-3.8c0,-.6,0,-1.1,-.1,-1.6c-.2,-.5,-.3,-.9,-.4,-1.2l2.2,-.8Zm16.2,10.3h-4.4v11.8h-2.2V167.9h2.2v8.9h4.4v1.8Zm10.9,-1v8h11.5v1.8H549.6v-1.8h7.5v-8h2.3Zm5,4.9c.3,-1.5,.6,-3.2,.9,-5c.2,-1.8,.3,-3.8,.3,-6c0,-.3,-.1,-.6,-.2,-.7c-.2,-.2,-.4,-.2,-.8,-.2H552v-1.9h13.3c1,0,1.6,.3,2,.7c.3,.4,.5,1.1,.5,1.8c0,2,-.2,4,-.4,6c-.3,2.1,-.6,4,-1,5.7l-2,-.4Z" class="g1_233"/>
<path d="M176.7,376.2H319.2V267.1H176.7V376.2Z" class="g0_233"/>
<image clip-path="url(#c1_233)" preserveAspectRatio="none" x="193" y="267" width="110" height="109" xlink:href="img/2.jpg"/>
<path d="M176.7,376.2H319.2V267.1H176.7V376.2Z" class="g2_233"/>
<image clip-path="url(#c2_233)" preserveAspectRatio="none" x="171" y="666" width="77" height="110" xlink:href="img/3.png"/>
<image clip-path="url(#c3_233)" preserveAspectRatio="none" x="394" y="666" width="90" height="110" xlink:href="img/4.png"/>
<image clip-path="url(#c4_233)" preserveAspectRatio="none" x="633" y="666" width="90" height="110" xlink:href="img/5.png"/>
<path d="M347.5,376H490V266.9H347.5V376Z" class="g0_233"/>
<image preserveAspectRatio="none" x="364" y="267" width="109" height="109" xlink:href="img/6.jpg"/>
<path d="M347.5,376H490V266.9H347.5V376Z" class="g2_233"/>
<path d="M518.3,376H660.8V266.9H518.3V376Z" class="g0_233"/>
<image clip-path="url(#c5_233)" preserveAspectRatio="none" x="535" y="267" width="109" height="109" xlink:href="img/7.jpg"/>
<path d="M518.3,376H660.8V266.9H518.3V376Z" class="g2_233"/>
<path d="M689,376H831.5V266.9H689V376Z" class="g0_233"/>
<image clip-path="url(#c6_233)" preserveAspectRatio="none" x="705" y="267" width="110" height="109" xlink:href="img/8.jpg"/>
<path d="M689,376H831.5V266.9H689V376Z" class="g2_233"/>
<path d="M176.7,553.1H319.2V443.9H176.7V553.1Z" class="g0_233"/>
<image clip-path="url(#c7_233)" preserveAspectRatio="none" x="193" y="444" width="110" height="109" xlink:href="img/9.jpg"/>
<path d="M176.7,553.1H319.2V443.9H176.7V553.1Z" class="g2_233"/>
<path d="M347.5,552.9H490V443.7H347.5V552.9Z" class="g0_233"/>
<image preserveAspectRatio="none" x="364" y="444" width="109" height="109" xlink:href="img/10.jpg"/>
<path d="M347.5,552.9H490V443.7H347.5V552.9Z" class="g2_233"/>
<path d="M518.3,552.9H660.8V443.7H518.3V552.9Z" class="g0_233"/>
<image clip-path="url(#c8_233)" preserveAspectRatio="none" x="535" y="444" width="109" height="109" xlink:href="img/11.jpg"/>
<path d="M518.3,552.9H660.8V443.7H518.3V552.9Z" class="g2_233"/>
<path d="M689,552.9H831.5V443.7H689V552.9Z" class="g0_233"/>
<image clip-path="url(#c9_233)" preserveAspectRatio="none" x="705" y="444" width="110" height="109" xlink:href="img/12.jpg"/>
<path d="M689,552.9H831.5V443.7H689V552.9Z" class="g2_233"/>
<image clip-path="url(#ca_233)" preserveAspectRatio="none" x="203" y="991" width="74" height="73" xlink:href="img/13.jpg"/>
<path d="M240.3,1062.5c19.4,0,35.1,-15.7,35.1,-35.1c0,-19.3,-15.7,-35,-35.1,-35c-19.4,0,-35.1,15.7,-35.1,35c0,19.4,15.7,35.1,35.1,35.1Z" class="g3_233"/>
<image clip-path="url(#cb_233)" preserveAspectRatio="none" x="204" y="1111" width="73" height="73" xlink:href="img/14.jpg"/>
<path d="M240.3,1182.9c19.4,0,35.1,-15.7,35.1,-35.1c0,-19.4,-15.7,-35.1,-35.1,-35.1c-19.4,0,-35.1,15.7,-35.1,35.1c0,19.4,15.7,35.1,35.1,35.1Z" class="g3_233"/>
<image clip-path="url(#cc_233)" preserveAspectRatio="none" x="204" y="870" width="73" height="74" xlink:href="img/15.jpg"/>
<path d="M240.3,942.1c19.4,0,35.1,-15.7,35.1,-35C275.4,887.7,259.7,872,240.3,872c-19.4,0,-35.1,15.7,-35.1,35.1c0,19.3,15.7,35,35.1,35Z" class="g3_233"/>
<image clip-path="url(#cd_233)" preserveAspectRatio="none" x="484" y="849" width="109" height="37" xlink:href="img/16.png"/>
<image clip-path="url(#ce_233)" preserveAspectRatio="none" x="484" y="971" width="109" height="38" xlink:href="img/17.png"/>
<image clip-path="url(#cf_233)" preserveAspectRatio="none" x="484" y="1109" width="109" height="38" xlink:href="img/18.png"/>
<image clip-path="url(#cg_233)" preserveAspectRatio="none" x="665" y="849" width="135" height="36" xlink:href="img/19.png"/>
<image clip-path="url(#ch_233)" preserveAspectRatio="none" x="665" y="970" width="135" height="38" xlink:href="img/20.png"/>
<image clip-path="url(#ci_233)" preserveAspectRatio="none" x="665" y="1109" width="135" height="38" xlink:href="img/21.png"/>
<path d="M437.9,852.1v355.1" class="g4_233"/>
<path d="M153.3,126.3v22.2L165,158.7V136.5Z" class="g5_233"/>
<path d="M153.3,109.5v39H851.1c0,0,16.8,0,16.8,-16.8v-5.4c0,0,0,-16.8,-16.8,-16.8Z" class="g6_233"/>
<path d="M207.2,115.7c0,-9.1,-7.9,-16.6,-17.7,-16.6c-9.8,0,-17.7,7.5,-17.7,16.6c0,2.7,.6,5.2,1.8,7.4c1.2,2.4,2.9,4.6,5,6.2c1.2,1,1.6,1.7,1.7,4.3v.6c0,3.3,2.7,5.9,5.9,5.9h6.6c3.2,0,5.8,-2.6,5.8,-5.9v-.6c.2,-2.6,.6,-3.3,1.8,-4.3c2.1,-1.6,3.8,-3.8,5,-6.2c1.2,-2.2,1.8,-4.7,1.8,-7.4Z" class="g7_233"/>
<path d="M207.2,115.7c0,-9.1,-7.9,-16.6,-17.7,-16.6c-9.8,0,-17.7,7.5,-17.7,16.6c0,2.7,.6,5.2,1.8,7.4c1.2,2.4,2.9,4.6,5,6.2c1.2,1,1.6,1.7,1.7,4.3v.6c0,3.3,2.7,5.9,5.9,5.9h6.6c3.2,0,5.8,-2.6,5.8,-5.9v-.6c.2,-2.6,.6,-3.3,1.8,-4.3c2.1,-1.6,3.8,-3.8,5,-6.2c1.2,-2.2,1.8,-4.7,1.8,-7.4Z" class="g8_233"/>
<path d="M194.6,147.4c0,2.8,-2.3,5.1,-5.1,5.1c-2.8,0,-5.1,-2.3,-5.1,-5.1c0,-2.8,2.3,-5.1,5.1,-5.1c2.8,0,5.1,2.3,5.1,5.1Z" class="g0_233"/>
<path d="M194.6,147.4c0,2.8,-2.3,5.1,-5.1,5.1c-2.8,0,-5.1,-2.3,-5.1,-5.1c0,-2.8,2.3,-5.1,5.1,-5.1c2.8,0,5.1,2.3,5.1,5.1Z" class="g8_233"/>
<path d="M182.1,140.2c0,1,.8,1.8,1.8,1.8h11.2c1,0,1.8,-.8,1.8,-1.8v-1.3H182.1Z" class="g0_233"/>
<path d="M182.1,140.2c0,1,.8,1.8,1.8,1.8h11.2c1,0,1.8,-.8,1.8,-1.8v-1.3H182.1v1.3Z" class="g8_233"/>
<path d="M196.9,143.2c0,.8,-.6,1.3,-1.3,1.3H183.4c-.8,0,-1.3,-.5,-1.3,-1.3c0,-.7,.5,-1.3,1.3,-1.3h12.2c.7,0,1.3,.6,1.3,1.3Z" class="g0_233"/>
<path d="M196.9,143.2c0,.8,-.6,1.3,-1.3,1.3H183.4c-.8,0,-1.3,-.5,-1.3,-1.3c0,-.7,.5,-1.3,1.3,-1.3h12.2c.7,0,1.3,.6,1.3,1.3Z" class="g8_233"/>
<path d="M196.9,145.8c0,.7,-.6,1.3,-1.3,1.3H183.4c-.8,0,-1.3,-.6,-1.3,-1.3c0,-.7,.5,-1.3,1.3,-1.3h12.2c.7,0,1.3,.6,1.3,1.3Z" class="g0_233"/>
<path d="M196.9,145.8c0,.7,-.6,1.3,-1.3,1.3H183.4c-.8,0,-1.3,-.6,-1.3,-1.3c0,-.7,.5,-1.3,1.3,-1.3h12.2c.7,0,1.3,.6,1.3,1.3Z" class="g8_233"/>
<path d="M215.5,128.7l8.3,10.4c.6,.7,1.8,.6,2.7,-.2c.9,-.7,1.2,-1.9,.7,-2.6l-8.9,-10.2Z" class="g9_233"/>
<path d="M215.5,128.7l8.3,10.4c.6,.7,1.8,.6,2.7,-.2c.9,-.7,1.2,-1.9,.7,-2.6l-8.9,-10.2l-2.8,2.6Z" class="g8_233"/>
<path d="M217.5,125.1c.5,.6,.3,1.8,-.7,2.6c-.9,.7,-2.1,.8,-2.6,.2c-.6,-.7,-.3,-1.9,.6,-2.6c.9,-.8,2.1,-.9,2.7,-.2Z" class="ga_233"/>
<path d="M217.5,125.1c.5,.6,.3,1.8,-.7,2.6c-.9,.7,-2.1,.8,-2.6,.2c-.6,-.7,-.3,-1.9,.6,-2.6c.9,-.8,2.1,-.9,2.7,-.2Z" class="g8_233"/>
<path d="M212.7,124.7l1.7,2c.3,.3,1,.3,1.5,-.1c.5,-.5,.7,-1.1,.4,-1.5l-1.7,-2Z" class="g0_233"/>
<path d="M212.7,124.7l1.7,2c.3,.3,1,.3,1.5,-.1c.5,-.5,.7,-1.1,.4,-1.5l-1.7,-2l-1.9,1.6Z" class="gb_233"/>
<path d="M214.8,122.9c.4,.5,.2,1.3,-.5,1.8c-.6,.5,-1.4,.6,-1.8,.1c-.4,-.4,-.2,-1.2,.5,-1.7c.6,-.6,1.4,-.6,1.8,-.2Z" class="g0_233"/>
<path d="M214.8,122.9c.4,.5,.2,1.3,-.5,1.8c-.6,.5,-1.4,.6,-1.8,.1c-.4,-.4,-.2,-1.2,.5,-1.7c.6,-.6,1.4,-.6,1.8,-.2Z" class="gb_233"/>
<path d="M216.4,105.4c4.8,5.7,4.1,14.2,-1.7,19c-5.7,4.8,-14.2,4,-19,-1.7c-4.8,-5.7,-4,-14.2,1.7,-19c5.7,-4.8,14.2,-4.1,19,1.7Z" class="g0_233"/>
<path d="M216.4,105.4c4.8,5.7,4.1,14.2,-1.7,19c-5.7,4.8,-14.2,4,-19,-1.7c-4.8,-5.7,-4,-14.2,1.7,-19c5.7,-4.8,14.2,-4.1,19,1.7Z" class="g8_233"/>
<path d="M214,107.4c3.5,4.2,3,10.5,-1.3,14.1c-4.2,3.5,-10.5,2.9,-14,-1.3c-3.5,-4.2,-3,-10.5,1.2,-14c4.2,-3.6,10.5,-3,14.1,1.2Z" class="gc_233"/>
<path d="M214,107.4c3.5,4.2,3,10.5,-1.3,14.1c-4.2,3.5,-10.5,2.9,-14,-1.3c-3.5,-4.2,-3,-10.5,1.2,-14c4.2,-3.6,10.5,-3,14.1,1.2Z" class="g8_233"/>
<path d="M213,110.6l-3.1,3m3.1,-.4l-3.1,3" class="gd_233"/>
<path d="M172.1,99l3.1,3.3m1.1,-5.9l1.2,3.9m-8.1,3l3.7,1.2" class="ge_233"/>
<path d="M185.8,106.1c1.2,1.2,.2,4.3,-2.2,6.7c-2.5,2.5,-5.5,3.5,-6.8,2.3c-1.2,-1.3,-.3,-4.3,2.2,-6.8c2.5,-2.5,5.5,-3.5,6.8,-2.2Z" class="g0_233"/>
<path d="M203.7,107.6c.6,.6,.1,1.9,-.9,3c-1.1,1,-2.4,1.5,-3,.9c-.5,-.5,-.1,-1.8,1,-2.9c1.1,-1.1,2.4,-1.5,2.9,-1Z" class="g0_233"/>
<path d="M32.1,45.1H9.2m958.3,0h22.9M32.1,1331.3H9.2m958.3,0h22.9M45.1,32.1V9.2m0,1335.1v22.9M954.5,32.1V9.2m0,1335.1v22.9" class="gf_233"/>
<path d="M32.1,45.1H9.2m958.3,0h22.9M32.1,1331.3H9.2m958.3,0h22.9M45.1,32.1V9.2m0,1335.1v22.9M954.5,32.1V9.2m0,1335.1v22.9" class="gg_233"/>
<path d="M27.5,32.1H0m972.1,0h27.5M27.5,1344.3H0m972.1,0h27.5M32.1,27.5V0m0,1348.9v27.5M967.5,27.5V0m0,1348.9v27.5" class="gf_233"/>
<path d="M27.5,32.1H0m972.1,0h27.5M27.5,1344.3H0m972.1,0h27.5M32.1,27.5V0m0,1348.9v27.5M967.5,27.5V0m0,1348.9v27.5" class="gg_233"/>
</svg>