<?xml version="1.0" encoding="UTF-8" standalone="no"?>
<!DOCTYPE svg PUBLIC "-//W3C//DTD SVG 1.1//EN"
"http://www.w3.org/Graphics/SVG/1.1/DTD/svg11.dtd">
<svg viewBox="0 0 999 1376" version="1.1" xmlns="http://www.w3.org/2000/svg" xmlns:xlink="http://www.w3.org/1999/xlink">
<defs>
<clipPath id="c0_148"><path d="M214,878V456.5H338.7l5.6,344.3H550.5L555,456.5H712V878Z"/></clipPath>
<clipPath id="c1_148"><path d="M234.6,604.5V495.9h79V604.5Z"/></clipPath>
<clipPath id="c2_148"><path d="M234.6,495.9v-9.8h79v9.8Z"/></clipPath>
<clipPath id="c3_148"><path d="M213.9,810.3V696.5H333.8V810.3Z"/></clipPath>
<clipPath id="c4_148"><path d="M561.1,597.9V483.4H679.5V597.9Z"/></clipPath>
<clipPath id="c5_148"><path d="M557.6,807.3V717.9H712.7v89.4Z"/></clipPath>
<clipPath id="c6_148"><path d="M390.1,370.4V323.7H488v46.7Z"/></clipPath>
<clipPath id="c7_148"><path d="M256.4,397.3V282H377.6V397.3Z"/></clipPath>
<clipPath id="c8_148"><path d="M354.6,575.5V528.7h97.9v46.8Z"/></clipPath>
<clipPath id="c9_148"><path d="M354.6,785.1V738.3h97.9v46.8Z"/></clipPath>
<clipPath id="ca_148"><path d="M717.5,575.5V528.7h97.9v46.8Z"/></clipPath>
<clipPath id="cb_148"><path d="M717.5,785.1V738.3h97.9v46.8Z"/></clipPath>
<style type="text/css"><![CDATA[
.g0_148{
fill: none;
stroke: #6381B7;
stroke-width: 0.763;
}
.g1_148{
fill: #F1E6CF;
}
.g2_148{
fill: #48484A;
}
.g3_148{
fill: #F0E8F3;
}
.g4_148{
fill: #F2E9D4;
}
.g5_148{
fill: #FFF;
}
.g6_148{
fill: #6381B7;
}
.g7_148{
fill: none;
stroke: #6381B7;
stroke-width: 0.381;
stroke-dasharray: 2,1;
}
.g8_148{
fill: none;
stroke: #6381B7;
stroke-width: 0.381;
}
.g9_148{
fill: #766FA6;
}
.ga_148{
fill: #25408F;
}
.gb_148{
fill: #F37553;
}
.gc_148{
fill: #363637;
}
.gd_148{
fill: #EAD646;
}
.ge_148{
fill: #506CB4;
}
.gf_148{
fill: #5CC4BE;
}
.gg_148{
fill: none;
stroke: #FFF;
stroke-width: 1.909;
stroke-miterlimit: 10;
}
.gh_148{
fill: none;
stroke: #000;
stroke-width: 0.381;
stroke-miterlimit: 10;
}
]]></style>
</defs>
<path d="M145.1,169.2c0,0,-13,0,-13,13V864.6c0,0,0,13,13,13H832.9c0,0,13,0,13,-13V182.2c0,0,0,-13,-13,-13H145.1Z" class="g0_148"/>
<g clip-path="url(#c0_148)">
<path d="M361.7,531.8c0,0,-5.9,0,-5.9,5.9v27.7c0,0,0,5.9,5.9,5.9h79c0,0,5.9,0,5.9,-5.9V537.7c0,0,0,-5.9,-5.9,-5.9h-79Z" class="g1_148"/>
<path d="M361.7,741.3c0,0,-5.9,0,-5.9,6v27.6c0,0,0,5.9,5.9,5.9h79c0,0,5.9,0,5.9,-5.9V747.3c0,0,0,-6,-5.9,-6h-79Z" class="g1_148"/>
</g>
<image clip-path="url(#c1_148)" preserveAspectRatio="none" x="234" y="496" width="80" height="109" xlink:href="img/1.jpg"/>
<image clip-path="url(#c2_148)" preserveAspectRatio="none" x="234" y="486" width="80" height="10" xlink:href="img/2.jpg"/>
<image clip-path="url(#c3_148)" preserveAspectRatio="none" x="204" y="697" width="130" height="113" xlink:href="img/3.jpg"/>
<image clip-path="url(#c4_148)" preserveAspectRatio="none" x="561" y="483" width="119" height="115" xlink:href="img/4.jpg"/>
<image clip-path="url(#c5_148)" preserveAspectRatio="none" x="557" y="718" width="158" height="89" xlink:href="img/5.jpg"/>
<path d="M175,275.3c0,0,-4.3,0,-4.3,4.3V294c0,0,0,4.3,4.1,5.7L227.2,318c0,0,4.1,1.4,4.1,-2.9V279.6c0,0,0,-4.3,-4.3,-4.3Z" class="g2_148"/>
<path d="M196.1,262.5c0,0,-12.9,0,-12.9,13v152c0,0,0,13,12.9,13H801.5c0,0,13,0,13,-13v-152c0,0,0,-13,-13,-13Z" class="g3_148"/>
<image clip-path="url(#c6_148)" preserveAspectRatio="none" x="390" y="324" width="97" height="47" xlink:href="img/6.png"/>
<path d="M397.1,324.2c0,0,-6.5,0,-6.5,6.5v29.8c0,0,0,6.5,6.5,6.5h81.2c0,0,6.5,0,6.5,-6.5V330.7c0,0,0,-6.5,-6.5,-6.5Z" class="g4_148"/>
<image clip-path="url(#c7_148)" preserveAspectRatio="none" x="255" y="280" width="124" height="119" xlink:href="img/7.jpg"/>
<image clip-path="url(#c8_148)" preserveAspectRatio="none" x="354" y="529" width="98" height="47" xlink:href="img/8.png"/>
<path d="M361.7,529.2c0,0,-6.5,0,-6.5,6.5v29.8c0,0,0,6.5,6.5,6.5h81.2c0,0,6.4,0,6.4,-6.5V535.7c0,0,0,-6.5,-6.4,-6.5Z" class="g4_148"/>
<image clip-path="url(#c9_148)" preserveAspectRatio="none" x="354" y="739" width="98" height="46" xlink:href="img/9.png"/>
<path d="M361.7,738.9c0,0,-6.5,0,-6.5,6.5v29.7c0,0,0,6.5,6.5,6.5h81.2c0,0,6.4,0,6.4,-6.5V745.4c0,0,0,-6.5,-6.4,-6.5Z" class="g4_148"/>
<image clip-path="url(#ca_148)" preserveAspectRatio="none" x="717" y="529" width="98" height="47" xlink:href="img/10.png"/>
<path d="M724.6,529.2c0,0,-6.5,0,-6.5,6.5v29.8c0,0,0,6.5,6.5,6.5h81.2c0,0,6.5,0,6.5,-6.5V535.7c0,0,0,-6.5,-6.5,-6.5Z" class="g4_148"/>
<image clip-path="url(#cb_148)" preserveAspectRatio="none" x="717" y="739" width="98" height="46" xlink:href="img/11.png"/>
<path d="M724.6,738.9c0,0,-6.5,0,-6.5,6.5v29.7c0,0,0,6.5,6.5,6.5h81.2c0,0,6.5,0,6.5,-6.5V745.4c0,0,0,-6.5,-6.5,-6.5Z" class="g4_148"/>
<path d="M226.4,643.1h104V617.2h-104v25.9Z" class="g5_148"/>
<path d="M226.4,854.9h104v-26h-104v26Z" class="g5_148"/>
<path d="M589.9,643.1H693.8V617.2H589.9v25.9Z" class="g5_148"/>
<path d="M589.9,854.9H693.8v-26H589.9v26Z" class="g5_148"/>
<path d="M570.9,914.8c0,0,-4.4,0,-4.4,4.4V930c0,0,0,4.3,4.4,4.3h30.3c0,0,4.3,0,4.3,-4.3V919.2c0,0,0,-4.4,-4.3,-4.4Z" class="g6_148"/>
<path d="M557.7,907.3v183.2m1.3,1H845.1m1,-1.3V907m-1.4,-1H558.6" class="g7_148"/>
<path d="M557.7,1090.9v.6h.6m287.2,0h.6v-.6m0,-184.3V906h-.6m-287.2,0h-.6v.6" class="g8_148"/>
<path d="M175.5,273.1c0,0,-4.8,0,-4.8,4.4v16.9c0,0,0,4.3,4.8,4.3h33.7c0,0,4.8,0,4.8,-4.3V277.5c0,0,0,-4.4,-4.8,-4.4Z" class="g9_148"/>
<path d="M132.2,126.3v22.2l11.7,10.2V136.5Z" class="ga_148"/>
<path d="M132.2,109.5v39H829.9c0,0,16.9,0,16.9,-16.8v-5.4c0,0,0,-16.8,-16.9,-16.8Z" class="g6_148"/>
<path d="M166,111.6c.7,-.6,1.7,-.8,2.5,-.6l1.3,-1.3l-6.2,-6.1l-6.1,6.1l-1.3,-1.3c.2,-.8,0,-1.8,-.6,-2.4c-1,-1,-2.6,-1,-3.6,0c-1,1,-1,2.6,0,3.6c.6,.6,1.6,.9,2.4,.6l1.3,1.3l-6.1,6.1l6.1,6.2l-1.3,1.3c-.8,-.3,-1.8,-.1,-2.4,.6c-1,1,-1,2.6,0,3.6c1,1,2.6,1,3.6,0c.6,-.7,.9,-1.6,.6,-2.4l1.3,-1.3l6.1,6.1l6.2,-6.1l-1.3,-1.3c-.9,.2,-1.8,0,-2.5,-.7c-1,-1,-1,-2.6,0,-3.6c1,-1,2.6,-1,3.6,0c.7,.7,.9,1.6,.7,2.5l1.3,1.3l6.1,-6.2l-6.1,-6.1l-1.3,1.3c.2,.8,0,1.8,-.7,2.4c-1,1,-2.6,1,-3.6,0c-1,-.9,-1,-2.6,0,-3.6Z" class="gb_148"/>
<path d="M163.6,132.3l-6.1,-6.2l-.8,.9c.1,.9,-.2,1.9,-.8,2.6c-1.2,1.1,-3.1,1.1,-4.2,0c-1.2,-1.2,-1.2,-3,0,-4.2c.7,-.7,1.6,-1,2.6,-.8l.8,-.8L149,117.6l6.1,-6.1l-.8,-.8c-1,.1,-1.9,-.2,-2.6,-.8c-.6,-.6,-.9,-1.3,-.9,-2.1c0,-.8,.3,-1.5,.9,-2.1c1.1,-1.1,3,-1.1,4.1,0c.7,.7,1,1.7,.9,2.6l.8,.8l6.1,-6.1l6.7,6.7l-1.7,1.7h-.2c-.7,-.2,-1.5,0,-2.1,.5c-.8,.9,-.8,2.2,0,3.1c.9,.8,2.2,.8,3.1,0c.5,-.6,.7,-1.4,.5,-2.1v-.2l1.7,-1.7l6.7,6.6l-6.7,6.7l-1.8,-1.7l.1,-.2c.2,-.8,0,-1.5,-.6,-2.1c-.4,-.4,-.9,-.6,-1.5,-.6c-.5,0,-1.1,.2,-1.5,.6c-.8,.8,-.8,2.2,0,3c.5,.6,1.3,.8,2.1,.6l.2,-.1l1.7,1.8ZM157.5,125l6.1,6.1l5.6,-5.5l-.8,-.9c-1,.2,-2,-.1,-2.7,-.8c-.5,-.5,-.8,-1.3,-.8,-2.1c0,-.7,.3,-1.5,.8,-2c.6,-.6,1.3,-.9,2.1,-.9c.8,0,1.6,.3,2.1,.9c.7,.6,1,1.6,.8,2.6l.9,.8l5.5,-5.6l-5.5,-5.5l-.9,.8c.2,1,-.1,1.9,-.8,2.6c-1.1,1.2,-3,1.2,-4.1,0c-1.2,-1.1,-1.2,-3,0,-4.1c.6,-.7,1.6,-1,2.6,-.8l.8,-.9l-5.6,-5.6l-6.1,6.2l-1.7,-1.7v-.3c.2,-.7,0,-1.5,-.5,-2c-.9,-.9,-2.2,-.9,-3.1,0c-.4,.4,-.6,.9,-.6,1.5c0,.6,.2,1.1,.6,1.5c.6,.5,1.4,.8,2.1,.6l.2,-.1l1.8,1.7l-6.2,6.1l6.2,6.2l-1.8,1.7l-.2,-.1c-.7,-.2,-1.5,.1,-2,.6c-.9,.8,-.9,2.2,0,3c.8,.9,2.2,.9,3,0c.5,-.5,.7,-1.3,.5,-2v-.3Z" class="gc_148"/>
<path d="M196.6,122.1c.9,0,1.8,.5,2.2,1.3h1.8v-8.7h-8.7v-1.8c.8,-.4,1.3,-1.2,1.3,-2.2c0,-1.4,-1.1,-2.5,-2.5,-2.5c-1.5,0,-2.6,1.1,-2.6,2.5c0,1,.5,1.8,1.3,2.2v1.8h-8.7v8.7h-1.8c-.4,-.8,-1.2,-1.3,-2.2,-1.3c-1.4,0,-2.5,1.2,-2.5,2.6c0,1.4,1.1,2.5,2.5,2.5c1,0,1.8,-.5,2.2,-1.2h1.8v8.6h8.7v-1.8c-.8,-.4,-1.3,-1.2,-1.3,-2.2c0,-1.4,1.2,-2.5,2.6,-2.5c1.4,0,2.5,1.1,2.5,2.5c0,1,-.5,1.8,-1.3,2.2v1.8h8.7V126h-1.8c-.4,.7,-1.2,1.2,-2.2,1.2c-1.4,0,-2.5,-1.1,-2.5,-2.5c0,-1.4,1.1,-2.6,2.5,-2.6Z" class="gd_148"/>
<path d="M201,135h-9.5v-2.4l.2,-.1c.7,-.4,1.1,-1.1,1.1,-1.9c0,-1.2,-1,-2.1,-2.1,-2.1c-1.2,0,-2.2,.9,-2.2,2.1c0,.8,.4,1.5,1.1,1.9l.2,.1V135h-9.5v-8.6h-1.2c-.5,.7,-1.4,1.2,-2.4,1.2c-1.6,0,-2.9,-1.3,-2.9,-2.9c0,-1.6,1.3,-3,2.9,-3c1,0,1.9,.5,2.4,1.3h1.2v-8.7H189v-1.1c-.8,-.6,-1.3,-1.5,-1.3,-2.5c0,-1.6,1.3,-2.9,3,-2.9c1.6,0,2.9,1.3,2.9,2.9c0,1,-.5,1.9,-1.3,2.5v1.1H201v9.5h-2.4l-.1,-.2c-.4,-.6,-1.1,-1.1,-1.9,-1.1c-.6,0,-1.1,.3,-1.5,.7c-.4,.4,-.6,.9,-.6,1.5c0,1.2,.9,2.1,2.1,2.1c.8,0,1.5,-.4,1.9,-1l.1,-.2H201Zm-8.7,-.8h7.9v-7.8H199c-.5,.7,-1.4,1.2,-2.4,1.2c-1.6,0,-2.9,-1.3,-2.9,-2.9c0,-.8,.3,-1.5,.8,-2.1c.6,-.5,1.3,-.9,2.1,-.9c1,0,1.9,.5,2.4,1.3h1.2v-7.9h-8.7v-2.4l.2,-.1c.7,-.4,1.1,-1.1,1.1,-1.9c0,-1.2,-1,-2.1,-2.1,-2.1c-1.2,0,-2.2,.9,-2.2,2.1c0,.8,.4,1.5,1.1,1.9l.2,.1v2.4h-8.7v8.7h-2.4l-.1,-.2c-.4,-.6,-1.1,-1.1,-1.9,-1.1c-1.2,0,-2.1,1,-2.1,2.2c0,1.2,.9,2.1,2.1,2.1c.8,0,1.5,-.4,1.9,-1l.1,-.2h2.4v8.6H189V133c-.8,-.5,-1.3,-1.4,-1.3,-2.4c0,-1.6,1.3,-2.9,3,-2.9c1.6,0,2.9,1.3,2.9,2.9c0,1,-.5,1.9,-1.3,2.4Z" class="gc_148"/>
<path d="M176.7,142c1,0,1.8,.5,2.2,1.3h1.8v-8.7H172v-1.8c.8,-.4,1.3,-1.2,1.3,-2.2c0,-1.4,-1.1,-2.5,-2.5,-2.5c-1.4,0,-2.6,1.1,-2.6,2.5c0,1,.5,1.8,1.3,2.2v1.8h-8.7v8.7H159c-.4,-.8,-1.2,-1.3,-2.2,-1.3c-1.4,0,-2.5,1.2,-2.5,2.6c0,1.4,1.1,2.5,2.5,2.5c1,0,1.8,-.5,2.2,-1.2h1.8v8.6h8.7v-1.8c-.8,-.4,-1.3,-1.2,-1.3,-2.2c0,-1.4,1.2,-2.5,2.6,-2.5c1.4,0,2.5,1.1,2.5,2.5c0,1,-.5,1.8,-1.3,2.2v1.8h8.7v-8.7h-1.8c-.4,.8,-1.2,1.3,-2.2,1.3c-1.4,0,-2.5,-1.1,-2.5,-2.5c0,-1.4,1.1,-2.6,2.5,-2.6Z" class="ge_148"/>
<path d="M181.1,154.9h-9.5v-2.4l.2,-.1c.7,-.4,1.1,-1.1,1.1,-1.9c0,-1.2,-1,-2.1,-2.1,-2.1c-1.2,0,-2.2,.9,-2.2,2.1c0,.8,.4,1.5,1.1,1.9l.2,.1v2.4h-9.5v-8.6h-1.2c-.5,.7,-1.4,1.2,-2.4,1.2c-1.6,0,-2.9,-1.3,-2.9,-2.9c0,-1.6,1.3,-3,2.9,-3c1,0,1.9,.5,2.4,1.3h1.2v-8.7h8.7V133c-.8,-.5,-1.3,-1.4,-1.3,-2.4c0,-1.6,1.3,-2.9,3,-2.9c1.6,0,2.9,1.3,2.9,2.9c0,1,-.5,1.9,-1.3,2.4v1.2h8.7v9.5h-2.4l-.1,-.2c-.4,-.7,-1.1,-1.1,-1.9,-1.1c-1.2,0,-2.1,1,-2.1,2.2c0,1.1,.9,2.1,2.1,2.1c.8,0,1.5,-.4,1.9,-1.1l.1,-.2h2.4Zm-8.7,-.8h7.9v-7.9h-1.2c-.5,.8,-1.4,1.3,-2.4,1.3c-1.6,0,-2.9,-1.3,-2.9,-2.9c0,-1.6,1.3,-3,2.9,-3c1,0,1.9,.5,2.4,1.3h1.2V135h-8.7v-2.4l.2,-.1c.7,-.4,1.1,-1.1,1.1,-1.9c0,-1.2,-1,-2.1,-2.1,-2.1c-1.2,0,-2.2,.9,-2.2,2.1c0,.8,.4,1.5,1.1,1.9l.2,.1V135h-8.7v8.7h-2.4l-.1,-.2c-.4,-.7,-1.1,-1.1,-1.9,-1.1c-1.2,0,-2.1,1,-2.1,2.2c0,1.2,.9,2.1,2.1,2.1c.8,0,1.5,-.4,1.9,-1l.1,-.2h2.4v8.6h7.9v-1.2c-.8,-.5,-1.3,-1.4,-1.3,-2.4c0,-1.6,1.3,-2.9,3,-2.9c1.6,0,2.9,1.3,2.9,2.9c0,1,-.5,1.9,-1.3,2.4Z" class="gc_148"/>
<path d="M196.6,142c.9,0,1.8,.5,2.2,1.3h1.8v-8.7h-8.7v-1.8c.8,-.4,1.3,-1.2,1.3,-2.2c0,-1.4,-1.1,-2.5,-2.5,-2.5c-1.5,0,-2.6,1.1,-2.6,2.5c0,1,.5,1.8,1.3,2.2v1.8h-8.7v8.7h-1.8c-.4,-.8,-1.2,-1.3,-2.2,-1.3c-1.4,0,-2.5,1.2,-2.5,2.6c0,1.4,1.1,2.5,2.5,2.5c1,0,1.8,-.5,2.2,-1.2h1.8v8.6h8.7v-1.8c-.8,-.4,-1.3,-1.2,-1.3,-2.2c0,-1.4,1.2,-2.5,2.6,-2.5c1.4,0,2.5,1.1,2.5,2.5c0,1,-.5,1.8,-1.3,2.2v1.8h8.7v-8.7h-1.8c-.4,.8,-1.2,1.3,-2.2,1.3c-1.4,0,-2.5,-1.1,-2.5,-2.5c0,-1.4,1.1,-2.6,2.5,-2.6Z" class="gf_148"/>
<path d="M201,154.9h-9.5v-2.4l.2,-.1c.7,-.4,1.1,-1.1,1.1,-1.9c0,-1.2,-1,-2.1,-2.1,-2.1c-1.2,0,-2.2,.9,-2.2,2.1c0,.8,.4,1.5,1.1,1.9l.2,.1v2.4h-9.5v-8.6h-1.2c-.5,.7,-1.4,1.2,-2.4,1.2c-1.6,0,-2.9,-1.3,-2.9,-2.9c0,-1.6,1.3,-3,2.9,-3c1,0,1.9,.5,2.4,1.3h1.2v-8.7H189V133c-.8,-.5,-1.3,-1.4,-1.3,-2.4c0,-1.6,1.3,-2.9,3,-2.9c1.6,0,2.9,1.3,2.9,2.9c0,1,-.5,1.9,-1.3,2.4v1.2H201v9.5h-2.4l-.1,-.2c-.4,-.7,-1.1,-1.1,-1.9,-1.1c-.6,0,-1.1,.3,-1.5,.7c-.4,.4,-.6,.9,-.6,1.5c0,1.1,.9,2.1,2.1,2.1c.8,0,1.5,-.4,1.9,-1.1l.1,-.2H201Zm-8.7,-.8h7.9v-7.9H199c-.5,.8,-1.4,1.3,-2.4,1.3c-1.6,0,-2.9,-1.3,-2.9,-2.9c0,-.8,.3,-1.5,.8,-2.1c.6,-.6,1.3,-.9,2.1,-.9c1,0,1.9,.5,2.4,1.3h1.2V135h-8.7v-2.4l.2,-.1c.7,-.4,1.1,-1.1,1.1,-1.9c0,-1.2,-1,-2.1,-2.1,-2.1c-1.2,0,-2.2,.9,-2.2,2.1c0,.8,.4,1.5,1.1,1.9l.2,.1V135h-8.7v8.7h-2.4l-.1,-.2c-.4,-.7,-1.1,-1.1,-1.9,-1.1c-1.2,0,-2.1,1,-2.1,2.2c0,1.2,.9,2.1,2.1,2.1c.8,0,1.5,-.4,1.9,-1l.1,-.2h2.4v8.6H189v-1.2c-.8,-.5,-1.3,-1.4,-1.3,-2.4c0,-1.6,1.3,-2.9,3,-2.9c1.6,0,2.9,1.3,2.9,2.9c0,1,-.5,1.9,-1.3,2.4Z" class="gc_148"/>
<path d="M32.1,45.1H9.2m958.3,0h22.9M32.1,1331.3H9.2m958.3,0h22.9M45.1,32.1V9.2m0,1335.1v22.9M954.5,32.1V9.2m0,1335.1v22.9" class="gg_148"/>
<path d="M32.1,45.1H9.2m958.3,0h22.9M32.1,1331.3H9.2m958.3,0h22.9M45.1,32.1V9.2m0,1335.1v22.9M954.5,32.1V9.2m0,1335.1v22.9" class="gh_148"/>
<path d="M27.5,32.1H0m972.1,0h27.5M27.5,1344.3H0m972.1,0h27.5M32.1,27.5V0m0,1348.9v27.5M967.5,27.5V0m0,1348.9v27.5" class="gg_148"/>
<path d="M27.5,32.1H0m972.1,0h27.5M27.5,1344.3H0m972.1,0h27.5M32.1,27.5V0m0,1348.9v27.5M967.5,27.5V0m0,1348.9v27.5" class="gh_148"/>
</svg>