<?xml version="1.0" encoding="UTF-8" standalone="no"?>
<!DOCTYPE svg PUBLIC "-//W3C//DTD SVG 1.1//EN"
"http://www.w3.org/Graphics/SVG/1.1/DTD/svg11.dtd">
<svg viewBox="0 0 999 1376" version="1.1" xmlns="http://www.w3.org/2000/svg" xmlns:xlink="http://www.w3.org/1999/xlink">
<defs>
<clipPath id="c0_367"><path d="M32.1,1344.3V32.1H967.5V1344.3Z"/></clipPath>
<clipPath id="c1_367"><path d="M230.9,1040.5V390.8h508v649.7Z"/></clipPath>
<clipPath id="c2_367"><path d="M658.6,177V59h200V177Z"/></clipPath>
<style type="text/css"><![CDATA[
.g0_367{
fill: #FEFCF4;
}
.g1_367{
fill: #FFF;
}
.g2_367{
fill: none;
stroke: #6381B7;
stroke-width: 0.763;
}
.g3_367{
fill: #BC93AB;
}
.g4_367{
fill: none;
stroke: #D1B8D8;
stroke-width: 1.222;
}
.g5_367{
fill: #FFF;
stroke: #D1B8D8;
stroke-width: 1.222;
}
.g6_367{
fill: #2E6E51;
}
.g7_367{
fill: #BCBEC0;
}
.g8_367{
fill: #EE314A;
}
.g9_367{
fill: none;
stroke: #FFF;
stroke-width: 1.909;
stroke-miterlimit: 10;
}
.ga_367{
fill: none;
stroke: #000;
stroke-width: 0.381;
stroke-miterlimit: 10;
}
]]></style>
</defs>
<path clip-path="url(#c0_367)" d="M-877.3,1343.2H45.1V32.1H-877.3V1343.2Z" class="g0_367"/>
<path d="M45.1,1344.3H967.5V32.1H45.1V1344.3Z" class="g0_367"/>
<path d="M166.7,209.6c0,0,-13,0,-13,13V1231.3c0,0,0,13,13,13H854.5c0,0,13,0,13,-13V222.6c0,0,0,-13,-13,-13Z" class="g1_367"/>
<path d="M166.7,209.6c0,0,-13,0,-13,13V1231.3c0,0,0,13,13,13H854.5c0,0,13,0,13,-13V222.6c0,0,0,-13,-13,-13H166.7Z" class="g2_367"/>
<path d="M190.2,240c0,0,-6.5,0,-6.5,6.5v17.3c0,0,0,6.5,6.5,6.5H437c0,0,6.5,0,6.5,-6.5V246.5c0,0,0,-6.5,-6.5,-6.5Z" class="g3_367"/>
<image clip-path="url(#c1_367)" preserveAspectRatio="none" x="231" y="391" width="508" height="650" xlink:href="img/1.jpg"/>
<path d="M293.5,309.9c0,0,-10.4,0,-10.4,10.4v97c0,0,0,10.4,10.4,10.4H459.3c0,0,10.4,0,10.4,-10.4v-97c0,0,0,-10.4,-10.4,-10.4Z" class="g1_367"/>
<path d="M293.5,309.9c0,0,-10.4,0,-10.4,10.4v97c0,0,0,10.4,10.4,10.4H459.3c0,0,10.4,0,10.4,-10.4v-97c0,0,0,-10.4,-10.4,-10.4H293.5Z" class="g4_367"/>
<path d="M407.1,425c0,0,4.5,16.9,22.9,17.6c0,0,-7.6,-8.6,-6.6,-17.6" class="g5_367"/>
<path d="M298.6,421.2H460V316.4H298.6V421.2Z" class="g1_367"/>
<path d="M520.4,336.3c0,0,-10.4,0,-10.4,10.4v70.6c0,0,0,10.4,10.4,10.4H680.2c0,0,10.4,0,10.4,-10.4V346.7c0,0,0,-10.4,-10.4,-10.4Z" class="g1_367"/>
<path d="M520.4,336.3c0,0,-10.4,0,-10.4,10.4v70.6c0,0,0,10.4,10.4,10.4H680.2c0,0,10.4,0,10.4,-10.4V346.7c0,0,0,-10.4,-10.4,-10.4H520.4Z" class="g4_367"/>
<path d="M551.6,425c0,0,-4.5,16.9,-22.8,17.6c0,0,7.6,-8.6,6.5,-17.6" class="g5_367"/>
<path d="M517.1,421.8H680.8V341H517.1v80.8Z" class="g1_367"/>
<path d="M659,446.3c0,0,-10.4,0,-10.4,10.4V527c0,0,0,10.4,10.4,10.4H804.5c0,0,10.4,0,10.4,-10.4V456.7c0,0,0,-10.4,-10.4,-10.4Z" class="g1_367"/>
<path d="M659,446.3c0,0,-10.4,0,-10.4,10.4V527c0,0,0,10.4,10.4,10.4H804.5c0,0,10.4,0,10.4,-10.4V456.7c0,0,0,-10.4,-10.4,-10.4H659Z" class="g4_367"/>
<path d="M690.3,534.6c0,0,-4.5,17,-22.9,17.7c0,0,7.6,-8.7,6.6,-17.7" class="g5_367"/>
<path d="M657.4,530.1H813.3V452.2H657.4v77.9Z" class="g1_367"/>
<path d="M553.5,958.5c0,0,-10.4,0,-10.4,10.4v199.9c0,0,0,10.4,10.4,10.4H769.7c0,0,10.4,0,10.4,-10.4V968.9c0,0,0,-10.4,-10.4,-10.4Z" class="g1_367"/>
<path d="M553.5,958.5c0,0,-10.4,0,-10.4,10.4v199.9c0,0,0,10.4,10.4,10.4H769.7c0,0,10.4,0,10.4,-10.4V968.9c0,0,0,-10.4,-10.4,-10.4H553.5Z" class="g4_367"/>
<path d="M589.1,963.4c0,0,-4.5,-16.9,-22.9,-17.6c0,0,7.6,8.6,6.6,17.6" class="g5_367"/>
<path d="M556.1,1166.2H774.4V971.5H556.1v194.7Z" class="g1_367"/>
<path d="M183,1032.1c0,0,-10.4,0,-10.4,10.4v46.1c0,0,0,10.4,10.4,10.4H328.5c0,0,10.4,0,10.4,-10.4v-46.1c0,0,0,-10.4,-10.4,-10.4Z" class="g1_367"/>
<path d="M183,1032.1c0,0,-10.4,0,-10.4,10.4v46.1c0,0,0,10.4,10.4,10.4H328.5c0,0,10.4,0,10.4,-10.4v-46.1c0,0,0,-10.4,-10.4,-10.4H183Z" class="g4_367"/>
<path d="M285.2,1037.1c0,0,4.5,-17,22.9,-17.7c0,0,-7.6,8.6,-6.6,17.7" class="g5_367"/>
<path d="M179.5,1088.5H335.4v-45.9H179.5v45.9Z" class="g1_367"/>
<path d="M365.7,1032.1c0,0,-10.4,0,-10.4,10.4v83.9c0,0,0,10.4,10.4,10.4H521.3c0,0,10.4,0,10.4,-10.4v-83.9c0,0,0,-10.4,-10.4,-10.4Z" class="g1_367"/>
<path d="M365.7,1032.1c0,0,-10.4,0,-10.4,10.4v83.9c0,0,0,10.4,10.4,10.4H521.3c0,0,10.4,0,10.4,-10.4v-83.9c0,0,0,-10.4,-10.4,-10.4H365.7Z" class="g4_367"/>
<path d="M473,1037.1c0,0,4.5,-17,22.8,-17.7c0,0,-7.6,8.6,-6.5,17.7" class="g5_367"/>
<path d="M173,432.7c0,0,-10.4,0,-10.4,10.4v69c0,0,0,10.3,10.4,10.3H318.5c0,0,10.4,0,10.4,-10.3v-69c0,0,0,-10.4,-10.4,-10.4Z" class="g1_367"/>
<path d="M173,432.7c0,0,-10.4,0,-10.4,10.4v69c0,0,0,10.3,10.4,10.3H318.5c0,0,10.4,0,10.4,-10.3v-69c0,0,0,-10.4,-10.4,-10.4H173Z" class="g4_367"/>
<path d="M286.6,519.7c0,0,4.5,17,22.9,17.6c0,0,-7.6,-8.6,-6.6,-17.6" class="g5_367"/>
<path d="M169.4,516.1H325.3v-78H169.4v78Z" class="g1_367"/>
<path d="M173,772.4c0,0,-10.4,0,-10.4,10.4v68.9c0,0,0,10.4,10.4,10.4H328.5c0,0,10.4,0,10.4,-10.4V782.8c0,0,0,-10.4,-10.4,-10.4Z" class="g1_367"/>
<path d="M173,772.4c0,0,-10.4,0,-10.4,10.4v68.9c0,0,0,10.4,10.4,10.4H328.5c0,0,10.4,0,10.4,-10.4V782.8c0,0,0,-10.4,-10.4,-10.4H173Z" class="g4_367"/>
<path d="M296.6,859.3c0,0,4.5,17,22.9,17.7c0,0,-7.6,-8.7,-6.6,-17.7" class="g5_367"/>
<path d="M170.8,852.4H335.4V782.1H170.8v70.3Z" class="g1_367"/>
<path d="M32.1,179.3H967.5V32.1H32.1V179.3Z" class="g6_367"/>
<g clip-path="url(#c0_367)">
<path d="M967.5,177.2H-877.3v-5.4h736.6c43.1,0,53.1,-37.9,115.3,-37.9H967.5Z" class="g7_367"/>
<path d="M967.5,183.7H-877.3v-9.8h736.6c43.1,0,53.1,-33.6,115.3,-33.6H967.5Z" class="g8_367"/>
</g>
<image clip-path="url(#c2_367)" preserveAspectRatio="none" x="659" y="59" width="200" height="118" xlink:href="img/2.png"/>
<path d="M32.1,45.1H9.2m958.3,0h22.9M32.1,1331.3H9.2m958.3,0h22.9M45.1,32.1V9.2m0,1335.1v22.9M954.5,32.1V9.2m0,1335.1v22.9" class="g9_367"/>
<path d="M32.1,45.1H9.2m958.3,0h22.9M32.1,1331.3H9.2m958.3,0h22.9M45.1,32.1V9.2m0,1335.1v22.9M954.5,32.1V9.2m0,1335.1v22.9" class="ga_367"/>
<path d="M27.5,32.1H0m972.1,0h27.5M27.5,1344.3H0m972.1,0h27.5M32.1,27.5V0m0,1348.9v27.5M967.5,27.5V0m0,1348.9v27.5" class="g9_367"/>
<path d="M27.5,32.1H0m972.1,0h27.5M27.5,1344.3H0m972.1,0h27.5M32.1,27.5V0m0,1348.9v27.5M967.5,27.5V0m0,1348.9v27.5" class="ga_367"/>
</svg>