<?xml version="1.0" encoding="UTF-8" standalone="no"?>
<!DOCTYPE svg PUBLIC "-//W3C//DTD SVG 1.1//EN"
"http://www.w3.org/Graphics/SVG/1.1/DTD/svg11.dtd">
<svg viewBox="0 0 999 1376" version="1.1" xmlns="http://www.w3.org/2000/svg" xmlns:xlink="http://www.w3.org/1999/xlink">
<defs>
<clipPath id="c0_301"><path d="M198.7,242.1L192.2,240L175.8,226V168.9h72v73.2Z"/></clipPath>
<clipPath id="c1_301"><path d="M198.7,1062.5l-6.5,-2.1l-16.4,-13.9V989.4h72v73.1Z"/></clipPath>
<clipPath id="c2_301"><path d="M787.4,395.2v-88H935.9v88Z"/></clipPath>
<clipPath id="c3_301"><path d="M786.2,398.8V302.6H936.4v96.2Z"/></clipPath>
<clipPath id="c4_301"><path d="M785.9,398.5V302.3H936.1v96.2Z"/></clipPath>
<clipPath id="c5_301"><path d="M856,317.8c-.3,-.1,3.5,-8.2,3.5,-8.2l.8,.5c0,0,-4,7.7,-4.3,7.7Z"/></clipPath>
<clipPath id="c6_301"><path d="M863.5,310.1c0,0,-6.9,-1.1,-7.6,-5.2c-.6,-3.6,1.5,-3.9,2.1,-3.9q.1,0,.1,0l8.3,-12.7L865,285.2c0,0,-.6,-1.1,.1,-2.1c.1,0,.2,0,.3,0c2.1,0,13,5.5,13,5.5v.1c-.3,.6,-.7,1.2,-1.4,1.7c-.6,.5,-5,1.1,-5,1.1l-8.5,18.6Z"/></clipPath>
<clipPath id="c7_301"><path d="M863.1,309.7c.2,-.4,.2,-1.8,0,-2.2v-1.4c-1.5,-.5,-2.9,-1.2,-3.7,-2.5c-1,.6,-2.1,1.2,-3.1,1.9c1.6,2.1,3.8,3.5,6.8,4.2Zm0,-3.9c2.2,-4.5,4,-9.5,6.2,-14c-.9,-.4,-1.9,-1.3,-2.7,-1.4c-2.3,4.3,-4.6,8.6,-7,12.8c.7,1.3,2.1,2,3.5,2.6Zm-7.3,12.1c1,-2.9,2.4,-5.5,3.5,-8.3c-2,-1.5,-3.9,-3.1,-4.4,-6.1v-1.6c0,-2.7,1.9,-3.3,4.6,-3.3q.1,0,.2,0c1.9,-3.4,4.2,-6.4,6.2,-9.7c-.6,-.9,-1.2,-2.4,-.9,-3.7c.5,1.3,1.6,1.9,2.4,2.9c-.2,.6,-.3,1.2,-.4,1.8c.6,.6,1.3,1.2,2.4,1.4c.4,-.5,.5,-1.3,1.1,-1.5c.9,.3,1.8,.7,3.1,.7c.2,.1,.5,.2,.9,.2c.3,0,.6,-.1,.8,-.2c.1,0,.2,.1,.3,.1c.2,0,.4,-.1,.6,-.2c.2,0,.4,-.1,.5,-.1c.1,0,.2,0,.3,.1c-1.3,.7,-2.1,1.8,-4.1,1.8c-.1,0,-.3,0,-.4,-.1c-.8,3.8,-1.8,7.4,-2.6,11.2c.5,1.1,1.5,1.7,1.2,3.2c-.4,2.7,-3.8,4.4,-7.2,4.4c-1.2,0,-2.5,-.3,-3.6,-.8c-1,2.1,-2,4.2,-3.2,6c-.1,-.3,.2,-.3,.2,-.7c1,-1.8,2,-3.6,2.6,-5.7c-1,1.8,-1.8,3.7,-2.7,5.6c-.2,.4,-.4,.8,-.6,1.2c-.3,.4,-.3,1.2,-.8,1.4Z"/></clipPath>
<clipPath id="c8_301"><path d="M873.5,290.1c-4.8,0,-13.1,-7.3,-5.5,-8.8h1.3c.1,.1,.4,.1,.6,.1c.1,0,.2,0,.3,0c.2,0,.5,0,.8,.1c3.1,.6,8.2,3.8,7.5,7c-.2,1.2,-1.5,1.6,-3.1,1.6h-1.9Z"/></clipPath>
<clipPath id="c9_301"><path d="M786.5,132.5V120.1H801v12.4Z"/></clipPath>
<style type="text/css"><![CDATA[
.g0_301{
fill: #FEFCF4;
}
.g1_301{
fill: #FFF;
}
.g2_301{
fill: none;
stroke: #6381B7;
stroke-width: 0.763;
}
.g3_301{
fill: #6381B7;
}
.g4_301{
fill: none;
stroke: #6381B7;
stroke-width: 0.381;
stroke-dasharray: 2,1;
}
.g5_301{
fill: none;
stroke: #6381B7;
stroke-width: 0.381;
}
.g6_301{
fill: #FCE8B0;
}
.g7_301{
fill: none;
stroke: #949698;
stroke-width: 0.305;
stroke-dasharray: 4,4;
}
.g8_301{
fill: none;
stroke: #949698;
stroke-width: 0.305;
}
.g9_301{
fill: #F7C2D9;
}
.ga_301{
fill: #FDF4F3;
}
.gb_301{
fill: #EC008C;
}
.gc_301{
fill: none;
stroke: #949698;
stroke-width: 0.305;
stroke-dasharray: 3,3;
}
.gd_301{
fill: #6D6F71;
}
.ge_301{
fill: #25408F;
}
.gf_301{
fill: #A8AAAD;
}
.gg_301{
fill: none;
stroke: #949698;
stroke-width: 0.549;
}
.gh_301{
fill: none;
stroke: #BCBEC0;
stroke-width: 2.566;
}
.gi_301{
fill: #231F20;
}
.gj_301{
fill: #363637;
}
.gk_301{
fill: #5CC4BE;
}
.gl_301{
fill: #F0D73F;
}
.gm_301{
fill: none;
stroke: #FFF;
stroke-width: 1.909;
stroke-miterlimit: 10;
}
.gn_301{
fill: none;
stroke: #000;
stroke-width: 0.381;
stroke-miterlimit: 10;
}
]]></style>
</defs>
<path d="M45.1,1344.3H967.5V32.1H45.1V1344.3Z" class="g0_301"/>
<path d="M172.1,140.8c0,0,-18.4,0,-18.4,18.3V914.2c0,0,0,18.3,18.4,18.3H849.2c0,0,18.3,0,18.3,-18.3V140.8Z" class="g1_301"/>
<path d="M172.1,140.8c0,0,-18.4,0,-18.4,18.3V914.2c0,0,0,18.3,18.4,18.3H849.2c0,0,18.3,0,18.3,-18.3V140.8H172.1Z" class="g2_301"/>
<path d="M166.7,967.9c0,0,-13,0,-13,13v162.3c0,0,0,13,13,13H854.5c0,0,13,0,13,-13V980.9c0,0,0,-13,-13,-13Z" class="g1_301"/>
<path d="M166.7,967.9c0,0,-13,0,-13,13v162.3c0,0,0,13,13,13H854.5c0,0,13,0,13,-13V980.9c0,0,0,-13,-13,-13H166.7Z" class="g2_301"/>
<path d="M300.1,1171.8c0,0,-4.4,0,-4.4,4.3v10.8c0,0,0,4.4,4.4,4.4h30.3c0,0,4.3,0,4.3,-4.4v-10.8c0,0,0,-4.3,-4.3,-4.3Z" class="g3_301"/>
<path d="M286.9,1164.3v34.8m1.3,1H866.8m.9,-1.4v-34.8m-1.3,-1H287.8" class="g4_301"/>
<path d="M286.9,1199.5v.6h.6m579.6,0h.6v-.6m0,-36v-.6h-.6m-579.6,0h-.6v.6" class="g5_301"/>
<path d="M231.3,197.1c0,0,-13,0,-13,13v21.6c0,0,0,13,13,13h602c0,0,13,0,13,-13V210.1c0,0,0,-13,-13,-13Z" class="g6_301"/>
<image clip-path="url(#c0_301)" preserveAspectRatio="none" x="174" y="167" width="75" height="77" xlink:href="img/1.png"/>
<path d="M226.1,237.4c0,0,-26.9,11.3,-51.1,-12.8c0,0,15.2,25.3,49.3,24c0,0,24.7,.3,20.2,-10.2c0,0,1.3,-4.4,-18.4,-1Z" class="g6_301"/>
<path d="M231.3,991.5c0,0,-13,0,-13,13v47.7c0,0,0,13,13,13h602c0,0,13,0,13,-13v-47.7c0,0,0,-13,-13,-13Z" class="g6_301"/>
<image clip-path="url(#c1_301)" preserveAspectRatio="none" x="174" y="988" width="75" height="76" xlink:href="img/2.png"/>
<path d="M226.1,1057.8c0,0,-26.9,11.3,-51.1,-12.8c0,0,15.2,25.4,49.3,24c0,0,24.7,.3,20.2,-10.1c0,0,1.3,-4.5,-18.4,-1.1Z" class="g6_301"/>
<path d="M443.3,534.4c37.9,-.3,68.3,-6.8,74,-15m-1,-6.7c-7.8,-7.7,-38,-13.5,-74.6,-13.8m-7.5,0c-37.6,.5,-68.2,6.8,-74,14.9m1,6.8c7.8,7.7,38,13.5,74.5,13.8" class="g7_301"/>
<path d="M518,518.1c.2,-.5,.3,-1,.3,-1.5c0,-.5,-.1,-.9,-.3,-1.4M440.2,498.9c-.5,0,-1,0,-1.5,0c-.5,0,-1,0,-1.5,0m-77.7,16.3c-.2,.5,-.3,.9,-.3,1.4c0,.5,.1,1,.3,1.5m77.7,16.3c.5,0,1,0,1.5,0c.5,0,1,0,1.5,0" class="g8_301"/>
<image clip-path="url(#c2_301)" preserveAspectRatio="none" x="787" y="308" width="149" height="88" xlink:href="img/3.png"/>
<path d="M792.7,313.1V389l137,-1.3L928,312.4Z" class="g9_301"/>
<image clip-path="url(#c3_301)" preserveAspectRatio="none" x="786" y="303" width="150" height="96" xlink:href="img/4.png"/>
<image clip-path="url(#c4_301)" preserveAspectRatio="none" x="785" y="302" width="151" height="97" xlink:href="img/5.png"/>
<path d="M790.6,316.8l5.5,75.8L908,384.4l21.8,-20.5L925.6,307Z" class="ga_301"/>
<path d="M908,384.4L929.8,364l-12.6,-4.4Z" class="gb_301"/>
<path d="M517.1,507c26.9,-.5,165.8,-4.2,198.5,-33.9" class="g7_301"/>
<path d="M719.8,467.4c2.1,-4.2,3.8,-10.4,-6,-8.8m-5.1,4.3c-.7,1.4,-1.4,2.9,-1.3,4.1m6,3.1c11,3.1,40.7,8.7,72.6,-25.9m4.3,-6c2.7,-4.9,7.5,-15.5,14.2,-37.4" class="gc_301"/>
<path d="M512.6,507.1c0,0,.5,-.1,1.5,-.1M716.7,472.1c.3,-.4,.7,-.7,1,-1.1c0,0,.3,-.5,.8,-1.2m-6.1,-10.9c-.4,.1,-.9,.2,-1.3,.3c0,0,-.4,.5,-.9,1.2m-2.4,7.9c.3,.3,.7,.5,1.3,.6c.3,0,.8,.2,1.5,.4M787,443.1c.3,-.4,.6,-.7,1,-1.1c0,0,.2,-.3,.8,-1.2M805,399.4c.1,-.5,.2,-1,.4,-1.5" class="g8_301"/>
<path d="M800.6,397.9l8.2,3.3V389Z" class="gd_301"/>
<image clip-path="url(#c5_301)" x="855" y="309" width="6" height="9" xlink:href="shade/1.png"/>
<image clip-path="url(#c6_301)" x="855" y="283" width="24" height="28" xlink:href="shade/2.png"/>
<image clip-path="url(#c7_301)" x="854" y="285" width="24" height="33" xlink:href="shade/3.png"/>
<image clip-path="url(#c8_301)" x="860" y="281" width="20" height="10" xlink:href="shade/4.png"/>
<path d="M153.3,111.9v39L165,161.2V117Z" class="ge_301"/>
<path d="M153.3,111.9v39H851.1c0,0,16.8,0,16.8,-16.8v-5.3c0,0,0,-16.9,-16.8,-16.9Z" class="g3_301"/>
<path d="M802.6,145.6c8.2,0,14.9,-6.5,14.9,-14.5c0,-8.1,-6.7,-14.5,-14.9,-14.5c-8.2,0,-14.9,6.4,-14.9,14.5c0,8,6.7,14.5,14.9,14.5Z" class="gf_301"/>
<path d="M802.6,145.6c8.2,0,14.9,-6.5,14.9,-14.5c0,-8.1,-6.7,-14.5,-14.9,-14.5c-8.2,0,-14.9,6.4,-14.9,14.5c0,8,6.7,14.5,14.9,14.5Z" class="gg_301"/>
<path d="M802.6,136.4c3,0,5.5,-2.4,5.5,-5.3c0,-3,-2.5,-5.4,-5.5,-5.4c-3,0,-5.5,2.4,-5.5,5.4c0,2.9,2.5,5.3,5.5,5.3Z" class="g1_301"/>
<path d="M802.6,136.4c3,0,5.5,-2.4,5.5,-5.3c0,-3,-2.5,-5.4,-5.5,-5.4c-3,0,-5.5,2.4,-5.5,5.4c0,2.9,2.5,5.3,5.5,5.3Z" class="gh_301"/>
<g clip-path="url(#c9_301)" opacity="0.3">
<path d="M788,130.3c0,0,0,-4.8,3.7,-8.7l7.7,6.8c0,0,-1,.9,-1,2.6Z" class="g1_301"/>
</g>
<path d="M807.2,131c0,0,-3.5,0,-3.5,3.4v8.7c0,0,0,3.5,3.5,3.5h43.5c0,0,3.5,0,3.5,-3.5v-8.7c0,0,0,-3.4,-3.5,-3.4Z" class="gi_301"/>
<path d="M191.2,122c0,-8.3,-6.8,-15,-15.1,-15c-8.3,0,-15,6.7,-15,15c0,8.3,6.7,15.1,15,15.1c.8,0,1.7,-.1,2.4,-.2l4.5,5.2v-6.7c4.9,-2.5,8.2,-7.6,8.2,-13.4Z" class="g1_301"/>
<path d="M183.5,143.3l-5.1,-5.9c-.8,.1,-1.5,.1,-2.3,.1c-8.5,0,-15.5,-6.9,-15.5,-15.5c0,-8.5,7,-15.5,15.5,-15.5c8.6,0,15.5,7,15.5,15.5c0,5.7,-3.1,11,-8.1,13.7Zm-4.8,-6.9l3.9,4.5v-5.8l.2,-.1c4.9,-2.5,7.9,-7.5,7.9,-13c0,-8,-6.5,-14.6,-14.6,-14.6c-8,0,-14.6,6.6,-14.6,14.6c0,8.1,6.6,14.6,14.6,14.6c.8,0,1.6,-.1,2.4,-.2Z" class="gj_301"/>
<path d="M169.1,121.6c.8,0,1.4,.6,1.4,1.4c0,.8,-.6,1.5,-1.4,1.5c-.8,0,-1.4,-.7,-1.4,-1.5c0,-.8,.6,-1.4,1.4,-1.4Z" class="gk_301"/>
<path d="M169.1,124.9c-1,0,-1.9,-.8,-1.9,-1.9c0,-1,.9,-1.9,1.9,-1.9c1,0,1.9,.9,1.9,1.9c0,1.1,-.9,1.9,-1.9,1.9m0,-2.9c-.5,0,-1,.5,-1,1c0,.6,.5,1,1,1c.5,0,1,-.4,1,-1c0,-.5,-.5,-1,-1,-1Z" class="gj_301"/>
<path d="M176.1,121.6c.8,0,1.5,.6,1.5,1.4c0,.8,-.7,1.5,-1.5,1.5c-.8,0,-1.4,-.7,-1.4,-1.5c0,-.8,.6,-1.4,1.4,-1.4Z" class="gk_301"/>
<path d="M176.1,124.9c-1,0,-1.9,-.8,-1.9,-1.9c0,-1,.9,-1.9,1.9,-1.9c1.1,0,1.9,.9,1.9,1.9c0,1.1,-.8,1.9,-1.9,1.9m0,-2.9c-.5,0,-1,.5,-1,1c0,.6,.5,1,1,1c.6,0,1,-.4,1,-1c0,-.5,-.4,-1,-1,-1Z" class="gj_301"/>
<path d="M183.1,121.6c.8,0,1.5,.6,1.5,1.4c0,.8,-.7,1.5,-1.5,1.5c-.8,0,-1.4,-.7,-1.4,-1.5c0,-.8,.6,-1.4,1.4,-1.4Z" class="gk_301"/>
<path d="M183.1,124.9c-1,0,-1.9,-.8,-1.9,-1.9c0,-1,.9,-1.9,1.9,-1.9c1.1,0,1.9,.9,1.9,1.9c0,1.1,-.8,1.9,-1.9,1.9m0,-2.9c-.5,0,-1,.5,-1,1c0,.6,.5,1,1,1c.6,0,1,-.4,1,-1c0,-.5,-.4,-1,-1,-1Z" class="gj_301"/>
<path d="M185.1,136.3c0,-9.8,7.8,-17.7,17.6,-17.7c9.7,0,17.6,7.9,17.6,17.7c0,9.7,-7.9,17.6,-17.6,17.6c-1,0,-1.9,-.1,-2.9,-.3l-5.2,6.1v-7.8c-5.7,-2.9,-9.5,-8.8,-9.5,-15.6Z" class="gl_301"/>
<path d="M194.6,160.2q-.1,0,-.2,0c-.2,-.1,-.3,-.3,-.3,-.5v-7.5c-5.9,-3.2,-9.5,-9.2,-9.5,-15.9c0,-10,8.1,-18.1,18.1,-18.1c9.9,0,18,8.1,18,18.1c0,9.9,-8.1,18,-18,18c-.9,0,-1.8,0,-2.7,-.2l-5.1,5.9c-.1,.1,-.2,.2,-.3,.2m8.1,-41.1c-9.5,0,-17.2,7.7,-17.2,17.2c0,6.4,3.6,12.2,9.3,15.2c.1,.1,.2,.2,.2,.4v6.6l4.5,-5.2c.1,-.1,.3,-.1,.4,-.1c1,.1,1.9,.2,2.8,.2c9.4,0,17.1,-7.7,17.1,-17.1c0,-9.5,-7.7,-17.2,-17.1,-17.2Z" class="gj_301"/>
<path d="M210.9,135.8c.9,0,1.6,.7,1.6,1.6c0,1,-.7,1.7,-1.6,1.7c-1,0,-1.7,-.7,-1.7,-1.7c0,-.9,.7,-1.6,1.7,-1.6Z" class="g1_301"/>
<path d="M210.9,139.6c-1.2,0,-2.2,-1,-2.2,-2.2c0,-1.1,1,-2.1,2.2,-2.1c1.1,0,2.1,1,2.1,2.1c0,1.2,-1,2.2,-2.1,2.2m0,-3.4c-.7,0,-1.3,.6,-1.3,1.2c0,.7,.6,1.3,1.3,1.3c.6,0,1.2,-.6,1.2,-1.3c0,-.6,-.6,-1.2,-1.2,-1.2Z" class="gj_301"/>
<path d="M202.7,135.8c.9,0,1.6,.7,1.6,1.6c0,1,-.7,1.7,-1.6,1.7c-1,0,-1.7,-.7,-1.7,-1.7c0,-.9,.7,-1.6,1.7,-1.6Z" class="g1_301"/>
<path d="M202.7,139.6c-1.2,0,-2.2,-1,-2.2,-2.2c0,-1.1,1,-2.1,2.2,-2.1c1.1,0,2.1,1,2.1,2.1c0,1.2,-1,2.2,-2.1,2.2m0,-3.4c-.7,0,-1.3,.6,-1.3,1.2c0,.7,.6,1.3,1.3,1.3c.6,0,1.2,-.6,1.2,-1.3c0,-.6,-.6,-1.2,-1.2,-1.2Z" class="gj_301"/>
<path d="M194.5,135.8c.9,0,1.6,.7,1.6,1.6c0,1,-.7,1.7,-1.6,1.7c-1,0,-1.7,-.7,-1.7,-1.7c0,-.9,.7,-1.6,1.7,-1.6Z" class="g1_301"/>
<path d="M194.5,139.6c-1.2,0,-2.2,-1,-2.2,-2.2c0,-1.1,1,-2.1,2.2,-2.1c1.1,0,2.1,1,2.1,2.1c0,1.2,-1,2.2,-2.1,2.2m0,-3.4c-.7,0,-1.2,.6,-1.2,1.2c0,.7,.5,1.3,1.2,1.3c.6,0,1.2,-.6,1.2,-1.3c0,-.6,-.6,-1.2,-1.2,-1.2Z" class="gj_301"/>
<path d="M32.1,45.1H9.2m958.3,0h22.9M32.1,1331.3H9.2m958.3,0h22.9M45.1,32.1V9.2m0,1335.1v22.9M954.5,32.1V9.2m0,1335.1v22.9" class="gm_301"/>
<path d="M32.1,45.1H9.2m958.3,0h22.9M32.1,1331.3H9.2m958.3,0h22.9M45.1,32.1V9.2m0,1335.1v22.9M954.5,32.1V9.2m0,1335.1v22.9" class="gn_301"/>
<path d="M27.5,32.1H0m972.1,0h27.5M27.5,1344.3H0m972.1,0h27.5M32.1,27.5V0m0,1348.9v27.5M967.5,27.5V0m0,1348.9v27.5" class="gm_301"/>
<path d="M27.5,32.1H0m972.1,0h27.5M27.5,1344.3H0m972.1,0h27.5M32.1,27.5V0m0,1348.9v27.5M967.5,27.5V0m0,1348.9v27.5" class="gn_301"/>
</svg>