<?xml version="1.0" encoding="UTF-8" standalone="no"?>
<!DOCTYPE svg PUBLIC "-//W3C//DTD SVG 1.1//EN"
"http://www.w3.org/Graphics/SVG/1.1/DTD/svg11.dtd">
<svg viewBox="0 0 999 1376" version="1.1" xmlns="http://www.w3.org/2000/svg" xmlns:xlink="http://www.w3.org/1999/xlink">
<defs>
<clipPath id="c0_357"><path d="M32.1,1344.3V32.1H967.5V1344.3Z"/></clipPath>
<clipPath id="c1_357"><path d="M215,410.1V331.5H854.2v78.6Z"/></clipPath>
<clipPath id="c2_357"><path d="M215,590.4V485.9H854.2V590.4Z"/></clipPath>
<clipPath id="c3_357"><path d="M215,788.3V666.2H854.2V788.3Z"/></clipPath>
<clipPath id="c4_357"><path d="M215,986V863.9H854.2V986Z"/></clipPath>
<style type="text/css"><![CDATA[
.g0_357{
fill: #FEFCF4;
}
.g1_357{
fill: #F16865;
}
.g2_357{
fill: #6381B7;
}
.g3_357{
fill: none;
stroke: #6381B7;
stroke-width: 0.381;
stroke-dasharray: 2,1;
}
.g4_357{
fill: none;
stroke: #6381B7;
stroke-width: 0.381;
}
.g5_357{
fill: #FEF8F8;
}
.g6_357{
fill: none;
stroke: #A164A9;
stroke-width: 1.527;
stroke-linecap: round;
stroke-linejoin: round;
stroke-dasharray: 0,5;
}
.g7_357{
fill: none;
stroke: #A164A9;
stroke-width: 1.527;
stroke-linecap: round;
stroke-linejoin: round;
}
.g8_357{
fill: #A164A9;
}
.g9_357{
fill: #FFF;
}
.ga_357{
fill: none;
stroke: #231F20;
stroke-width: 0.305;
stroke-miterlimit: 10;
}
.gb_357{
fill: none;
stroke: #FFF;
stroke-width: 1.909;
stroke-miterlimit: 10;
}
.gc_357{
fill: none;
stroke: #000;
stroke-width: 0.381;
stroke-miterlimit: 10;
}
]]></style>
</defs>
<path clip-path="url(#c0_357)" d="M-877.3,1343.2H45.1V32.1H-877.3V1343.2Z" class="g0_357"/>
<path d="M45.1,1344.3H967.5V32.1H45.1V1344.3Z" class="g0_357"/>
<path clip-path="url(#c0_357)" d="M867.9,166.7c0,0,30.3,0,30.3,-30.3v-4.3c0,0,0,-30.3,-30.3,-30.3H-735.4c0,0,-30.4,0,-30.4,30.3v4.3c0,0,0,30.3,30.4,30.3Z" class="g1_357"/>
<path d="M666.9,1071.8c0,0,-4.3,0,-4.3,4.4V1087c0,0,0,4.3,4.3,4.3h30.3c0,0,4.4,0,4.4,-4.3v-10.8c0,0,0,-4.4,-4.4,-4.4Z" class="g2_357"/>
<path d="M653.7,1064.4v34.8m1.4,1H866.8m.9,-1.4V1064m-1.3,-1H654.7" class="g3_357"/>
<path d="M653.7,1099.6v.6h.6m212.8,0h.6v-.6m0,-36v-.6h-.6m-212.8,0h-.6v.6" class="g4_357"/>
<image preserveAspectRatio="none" x="714" y="55" width="120" height="139" xlink:href="img/1.png"/>
<path d="M154.1,1053.4h713V251h-713v802.4Z" class="g5_357"/>
<path d="M154.1,255.6v795.5m4.6,2.3H864.9m2.2,-4.6V253.3M862.6,251H156.4" class="g6_357"/>
<path d="M154.1,1053.4v0m713.1,0v0m0,-802.4v0m-713.1,0v0" class="g7_357"/>
<path d="M153.3,265.3V227c0,0,0,-8.7,8.7,-8.7H859.3c0,0,8.6,0,8.6,8.7v38.9Z" class="g8_357"/>
<image clip-path="url(#c1_357)" preserveAspectRatio="none" x="215" y="332" width="639" height="79" xlink:href="img/2.png"/>
<path d="M218.3,404H848.1V334.7H218.3V404Z" class="g9_357"/>
<path d="M614.3,364.5h59.4" class="ga_357"/>
<image clip-path="url(#c2_357)" preserveAspectRatio="none" x="215" y="486" width="639" height="105" xlink:href="img/3.png"/>
<path d="M218.3,584.4H848.1V489.1H218.3v95.3Z" class="g9_357"/>
<path d="M311.2,518.9h63" class="ga_357"/>
<image clip-path="url(#c3_357)" preserveAspectRatio="none" x="215" y="667" width="639" height="122" xlink:href="img/4.png"/>
<path d="M218.3,782.1H848.1V669.5H218.3V782.1Z" class="g9_357"/>
<path d="M231.3,725.3H340.8" class="ga_357"/>
<image clip-path="url(#c4_357)" preserveAspectRatio="none" x="215" y="865" width="639" height="122" xlink:href="img/5.png"/>
<path d="M218.3,979.8H848.1V867.2H218.3V979.8Z" class="g9_357"/>
<path d="M469.5,923h146" class="ga_357"/>
<path d="M32.1,45.1H9.2m958.3,0h22.9M32.1,1331.3H9.2m958.3,0h22.9M45.1,32.1V9.2m0,1335.1v22.9M954.5,32.1V9.2m0,1335.1v22.9" class="gb_357"/>
<path d="M32.1,45.1H9.2m958.3,0h22.9M32.1,1331.3H9.2m958.3,0h22.9M45.1,32.1V9.2m0,1335.1v22.9M954.5,32.1V9.2m0,1335.1v22.9" class="gc_357"/>
<path d="M27.5,32.1H0m972.1,0h27.5M27.5,1344.3H0m972.1,0h27.5M32.1,27.5V0m0,1348.9v27.5M967.5,27.5V0m0,1348.9v27.5" class="gb_357"/>
<path d="M27.5,32.1H0m972.1,0h27.5M27.5,1344.3H0m972.1,0h27.5M32.1,27.5V0m0,1348.9v27.5M967.5,27.5V0m0,1348.9v27.5" class="gc_357"/>
</svg>