<?xml version="1.0" encoding="UTF-8" standalone="no"?>
<!DOCTYPE svg PUBLIC "-//W3C//DTD SVG 1.1//EN"
"http://www.w3.org/Graphics/SVG/1.1/DTD/svg11.dtd">
<svg viewBox="0 0 999 1376" version="1.1" xmlns="http://www.w3.org/2000/svg" xmlns:xlink="http://www.w3.org/1999/xlink">
<defs>
<clipPath id="c0_293"><path d="M153.3,1246.8V133.9H867.9V1246.8Z"/></clipPath>
<style type="text/css"><![CDATA[
.g0_293{
fill: #FFF;
}
.g1_293{
fill: none;
stroke: #231F20;
stroke-width: 0.756;
stroke-miterlimit: 3;
}
.g2_293{
fill: #25408F;
}
.g3_293{
fill: #6381B7;
}
.g4_293{
fill: #FFDE2C;
}
.g5_293{
fill: none;
stroke: #231F20;
stroke-width: 1.451;
stroke-miterlimit: 10;
}
.g6_293{
fill: #D2D3D5;
}
.g7_293{
fill: #A8AAAD;
}
.g8_293{
fill: none;
stroke: #231F20;
stroke-width: 0.828;
stroke-miterlimit: 10;
}
.g9_293{
fill: #6CCFF6;
}
.ga_293{
fill: none;
stroke: #231F20;
stroke-width: 0.828;
stroke-linecap: round;
stroke-linejoin: round;
}
.gb_293{
fill: none;
stroke: #231F20;
stroke-width: 1.451;
stroke-linecap: round;
stroke-linejoin: round;
}
.gc_293{
fill: none;
stroke: #FFF;
stroke-width: 1.909;
stroke-miterlimit: 10;
}
.gd_293{
fill: none;
stroke: #000;
stroke-width: 0.381;
stroke-miterlimit: 10;
}
]]></style>
</defs>
<path d="M153.3,1246.8H867.9V133.9H153.3V1246.8Z" class="g0_293"/>
<image clip-path="url(#c0_293)" preserveAspectRatio="none" x="151" y="132" width="719" height="1117" xlink:href="img/1.jpg"/>
<path d="M468.8,191.3h-2.3v-5.7c-1.1,.6,-2.3,1.1,-3.6,1.5c-1.2,.3,-2.7,.5,-4.4,.5h-9.8v-1.9h6.6v-4.3c-1.6,-.1,-3,-.8,-4,-1.9c-1,-1.1,-1.5,-2.5,-1.5,-4.3c0,-.9,.1,-1.7,.4,-2.5c.4,-.8,.8,-1.4,1.4,-2c.6,-.5,1.3,-1,2.1,-1.3c.8,-.3,1.7,-.4,2.7,-.4c.9,0,1.8,.1,2.6,.4c.8,.3,1.5,.8,2.1,1.3c.5,.6,1,1.2,1.3,2c.4,.8,.5,1.6,.5,2.5c0,1.7,-.5,3.1,-1.4,4.2c-1,1.1,-2.3,1.8,-3.9,2v4.3h.8c1.5,0,2.9,-.1,4.2,-.4c1.3,-.3,2.6,-.8,3.9,-1.7V168.7h2.3v22.6ZM459.4,172c-.8,-.8,-1.8,-1.2,-3,-1.2c-1.3,0,-2.3,.4,-3.1,1.2c-.9,.8,-1.3,1.9,-1.3,3.2c0,1.5,.4,2.6,1.3,3.3c.8,.8,1.8,1.1,3.1,1.1c1.2,0,2.2,-.3,3,-1.1c.9,-.7,1.3,-1.8,1.3,-3.3c0,-1.3,-.4,-2.4,-1.3,-3.2Zm33.6,7.8H482.9V184h4.9c.8,0,1.4,.2,1.7,.6c.3,.4,.4,1,.4,1.7l-.3,6.8h-2v-6.5c0,-.3,0,-.5,-.2,-.6c-.1,-.1,-.3,-.2,-.5,-.2H474.1V184h6.5v-4.2h-8.9V178h15.1c.3,-1.1,.5,-2.3,.6,-3.6c.1,-1.2,.2,-2.4,.2,-3.5c0,-.3,-.1,-.4,-.2,-.6c-.1,-.1,-.3,-.1,-.6,-.1H474.5v-1.8h12.9c.9,0,1.5,.1,1.8,.4c.4,.4,.6,.9,.6,1.6c0,1.1,0,2.3,-.2,3.7c-.2,1.4,-.4,2.6,-.6,3.9h4v1.8Zm21.7,5.5h-2.3V168.4h2.3v16.9Zm-12.9,7.6c-.9,0,-1.5,-.2,-1.9,-.6c-.4,-.4,-.6,-.9,-.6,-1.6v-6.6h2.3v6.2c0,.2,.1,.4,.2,.6c.1,.1,.3,.2,.7,.2h7.1c1,0,2,-.1,2.8,-.2c.9,-.1,1.8,-.4,2.7,-.7l.5,1.8c-1.1,.3,-2.1,.5,-3,.6c-.9,.2,-1.9,.3,-3,.3h-7.8Zm5.4,-15.7c-.3,.7,-.7,1.4,-1.3,1.9c-.6,.6,-1.3,1,-2.1,1.3c-.7,.3,-1.6,.5,-2.4,.5c-1,0,-1.9,-.2,-2.6,-.5c-.8,-.4,-1.5,-.8,-2.1,-1.4c-.5,-.5,-1,-1.1,-1.3,-1.9c-.3,-.7,-.4,-1.5,-.4,-2.3c0,-.9,.2,-1.7,.5,-2.4c.3,-.7,.7,-1.4,1.3,-1.9c.6,-.6,1.2,-1,2,-1.3c.8,-.3,1.6,-.5,2.6,-.5c.9,0,1.7,.2,2.5,.5c.8,.3,1.5,.8,2,1.3c.6,.6,1,1.2,1.4,2c.3,.7,.4,1.5,.4,2.3c0,.8,-.1,1.6,-.5,2.4Zm-2.8,-5.4c-.8,-.8,-1.8,-1.3,-3,-1.3c-1.3,0,-2.3,.5,-3.1,1.3c-.7,.8,-1,1.8,-1,3c0,1.1,.3,2.1,1,3c.8,.8,1.8,1.2,3.1,1.2c1.2,0,2.2,-.4,3,-1.2c.7,-.9,1.1,-1.9,1.1,-3c0,-1.2,-.4,-2.2,-1.1,-3Zm25.7,2.2c0,.2,0,.5,.1,.6c.2,.1,.4,.1,.6,.1h5.4c1.2,0,2.3,0,3.4,-.1c1.1,-.2,2.2,-.4,3.3,-.7l.5,1.7c-1.2,.4,-2.4,.6,-3.7,.7c-1.2,.2,-2.4,.2,-3.6,.2h-5.6c-.9,0,-1.6,-.2,-2,-.6c-.5,-.4,-.7,-1,-.7,-1.8v-5.7h14.9v1.8H530.1V174Zm16,6.9H524.8v-1.8h21.3v1.8Zm-4.6,9.7c-.4,.7,-.8,1.3,-1.4,1.7c-.6,.5,-1.3,.8,-2.1,1.1c-.8,.2,-1.7,.4,-2.6,.4c-.9,0,-1.8,-.2,-2.6,-.4c-.9,-.3,-1.6,-.6,-2.1,-1.1c-.6,-.4,-1.1,-1,-1.4,-1.7c-.4,-.6,-.5,-1.3,-.5,-2.2c0,-.8,.1,-1.5,.5,-2.1c.3,-.7,.8,-1.2,1.4,-1.7c.5,-.4,1.2,-.8,2.1,-1c.8,-.3,1.7,-.4,2.6,-.4c.9,0,1.8,.1,2.6,.4c.8,.2,1.5,.6,2.1,1c.6,.5,1,1,1.4,1.7c.3,.6,.5,1.3,.5,2.1c0,.9,-.2,1.6,-.5,2.2Zm-3,-4.7c-.8,-.6,-1.8,-.9,-3.1,-.9c-1.3,0,-2.3,.3,-3.2,.9c-.8,.6,-1.2,1.5,-1.2,2.5c0,1.1,.4,2,1.2,2.6c.9,.7,1.9,1,3.2,1c1.3,0,2.3,-.3,3.1,-1c.8,-.6,1.3,-1.5,1.3,-2.6c0,-1,-.5,-1.9,-1.3,-2.5ZM569,182.7H547.7v-1.8H557v-2.5h-3.5c-.9,0,-1.6,-.2,-2,-.5c-.5,-.3,-.7,-.9,-.7,-1.8v-3.7h12.6V170H550.8v-1.8h14.8v5.3c-.4,.2,-1,.4,-1.7,.5c-.7,.1,-1.4,.2,-2.1,.2H553v1.7c0,.3,0,.5,.2,.6c.1,.1,.3,.1,.6,.1h5.1c1.2,0,2.4,0,3.6,-.1c1.2,-.1,2.5,-.3,3.7,-.6l.3,1.6c-1.2,.3,-2.4,.5,-3.5,.7c-1.2,.1,-2.4,.2,-3.7,.2v2.5H569v1.8Zm-3.1,10.4H564v-5.4c0,-.3,-.1,-.5,-.2,-.6c-.2,0,-.3,-.1,-.6,-.1h-13v-1.8h13.9c.8,0,1.4,.2,1.7,.6c.3,.3,.4,.8,.4,1.3l-.3,6Z" class="g1_293"/>
<path d="M153.3,126.3v22.2L165,158.7V136.5Z" class="g2_293"/>
<path d="M153.3,109.5v39H851.1c0,0,16.8,0,16.8,-16.8v-5.4c0,0,0,-16.8,-16.8,-16.8Z" class="g3_293"/>
<path d="M207.2,115.7c0,-9.1,-7.9,-16.6,-17.7,-16.6c-9.8,0,-17.7,7.5,-17.7,16.6c0,2.7,.6,5.2,1.8,7.4c1.2,2.4,2.9,4.6,5,6.2c1.2,1,1.6,1.7,1.7,4.3v.6c0,3.3,2.7,5.9,5.9,5.9h6.6c3.2,0,5.8,-2.6,5.8,-5.9v-.6c.2,-2.6,.6,-3.3,1.8,-4.3c2.1,-1.6,3.8,-3.8,5,-6.2c1.2,-2.2,1.8,-4.7,1.8,-7.4Z" class="g4_293"/>
<path d="M207.2,115.7c0,-9.1,-7.9,-16.6,-17.7,-16.6c-9.8,0,-17.7,7.5,-17.7,16.6c0,2.7,.6,5.2,1.8,7.4c1.2,2.4,2.9,4.6,5,6.2c1.2,1,1.6,1.7,1.7,4.3v.6c0,3.3,2.7,5.9,5.9,5.9h6.6c3.2,0,5.8,-2.6,5.8,-5.9v-.6c.2,-2.6,.6,-3.3,1.8,-4.3c2.1,-1.6,3.8,-3.8,5,-6.2c1.2,-2.2,1.8,-4.7,1.8,-7.4Z" class="g5_293"/>
<path d="M194.6,147.4c0,2.8,-2.3,5.1,-5.1,5.1c-2.8,0,-5.1,-2.3,-5.1,-5.1c0,-2.8,2.3,-5.1,5.1,-5.1c2.8,0,5.1,2.3,5.1,5.1Z" class="g0_293"/>
<path d="M194.6,147.4c0,2.8,-2.3,5.1,-5.1,5.1c-2.8,0,-5.1,-2.3,-5.1,-5.1c0,-2.8,2.3,-5.1,5.1,-5.1c2.8,0,5.1,2.3,5.1,5.1Z" class="g5_293"/>
<path d="M182.1,140.2c0,1,.8,1.8,1.8,1.8h11.2c1,0,1.8,-.8,1.8,-1.8v-1.3H182.1Z" class="g0_293"/>
<path d="M182.1,140.2c0,1,.8,1.8,1.8,1.8h11.2c1,0,1.8,-.8,1.8,-1.8v-1.3H182.1v1.3Z" class="g5_293"/>
<path d="M196.9,143.2c0,.8,-.6,1.3,-1.3,1.3H183.4c-.8,0,-1.3,-.5,-1.3,-1.3c0,-.7,.5,-1.3,1.3,-1.3h12.2c.7,0,1.3,.6,1.3,1.3Z" class="g0_293"/>
<path d="M196.9,143.2c0,.8,-.6,1.3,-1.3,1.3H183.4c-.8,0,-1.3,-.5,-1.3,-1.3c0,-.7,.5,-1.3,1.3,-1.3h12.2c.7,0,1.3,.6,1.3,1.3Z" class="g5_293"/>
<path d="M196.9,145.8c0,.7,-.6,1.3,-1.3,1.3H183.4c-.8,0,-1.3,-.6,-1.3,-1.3c0,-.7,.5,-1.3,1.3,-1.3h12.2c.7,0,1.3,.6,1.3,1.3Z" class="g0_293"/>
<path d="M196.9,145.8c0,.7,-.6,1.3,-1.3,1.3H183.4c-.8,0,-1.3,-.6,-1.3,-1.3c0,-.7,.5,-1.3,1.3,-1.3h12.2c.7,0,1.3,.6,1.3,1.3Z" class="g5_293"/>
<path d="M215.5,128.7l8.3,10.4c.6,.7,1.8,.6,2.7,-.2c.9,-.7,1.2,-1.9,.7,-2.6l-8.9,-10.2Z" class="g6_293"/>
<path d="M215.5,128.7l8.3,10.4c.6,.7,1.8,.6,2.7,-.2c.9,-.7,1.2,-1.9,.7,-2.6l-8.9,-10.2l-2.8,2.6Z" class="g5_293"/>
<path d="M217.5,125.1c.5,.6,.3,1.8,-.7,2.6c-.9,.7,-2.1,.8,-2.6,.2c-.6,-.7,-.3,-1.9,.6,-2.6c.9,-.8,2.1,-.9,2.7,-.2Z" class="g7_293"/>
<path d="M217.5,125.1c.5,.6,.3,1.8,-.7,2.6c-.9,.7,-2.1,.8,-2.6,.2c-.6,-.7,-.3,-1.9,.6,-2.6c.9,-.8,2.1,-.9,2.7,-.2Z" class="g5_293"/>
<path d="M212.7,124.7l1.7,2c.3,.3,1,.3,1.5,-.1c.5,-.5,.7,-1.1,.4,-1.5l-1.7,-2Z" class="g0_293"/>
<path d="M212.7,124.7l1.7,2c.3,.3,1,.3,1.5,-.1c.5,-.5,.7,-1.1,.4,-1.5l-1.7,-2l-1.9,1.6Z" class="g8_293"/>
<path d="M214.8,122.9c.4,.5,.2,1.3,-.5,1.8c-.6,.5,-1.4,.6,-1.8,.1c-.4,-.4,-.2,-1.2,.5,-1.7c.6,-.6,1.4,-.6,1.8,-.2Z" class="g0_293"/>
<path d="M214.8,122.9c.4,.5,.2,1.3,-.5,1.8c-.6,.5,-1.4,.6,-1.8,.1c-.4,-.4,-.2,-1.2,.5,-1.7c.6,-.6,1.4,-.6,1.8,-.2Z" class="g8_293"/>
<path d="M216.4,105.4c4.8,5.7,4.1,14.2,-1.7,19c-5.7,4.8,-14.2,4,-19,-1.7c-4.8,-5.7,-4,-14.2,1.7,-19c5.7,-4.8,14.2,-4.1,19,1.7Z" class="g0_293"/>
<path d="M216.4,105.4c4.8,5.7,4.1,14.2,-1.7,19c-5.7,4.8,-14.2,4,-19,-1.7c-4.8,-5.7,-4,-14.2,1.7,-19c5.7,-4.8,14.2,-4.1,19,1.7Z" class="g5_293"/>
<path d="M214,107.4c3.5,4.2,3,10.5,-1.3,14.1c-4.2,3.5,-10.5,2.9,-14,-1.3c-3.5,-4.2,-3,-10.5,1.2,-14c4.2,-3.6,10.5,-3,14.1,1.2Z" class="g9_293"/>
<path d="M214,107.4c3.5,4.2,3,10.5,-1.3,14.1c-4.2,3.5,-10.5,2.9,-14,-1.3c-3.5,-4.2,-3,-10.5,1.2,-14c4.2,-3.6,10.5,-3,14.1,1.2Z" class="g5_293"/>
<path d="M213,110.6l-3.1,3m3.1,-.4l-3.1,3" class="ga_293"/>
<path d="M172.1,99l3.1,3.3m1.1,-5.9l1.2,3.9m-8.1,3l3.7,1.2" class="gb_293"/>
<path d="M185.8,106.1c1.2,1.2,.2,4.3,-2.2,6.7c-2.5,2.5,-5.5,3.5,-6.8,2.3c-1.2,-1.3,-.3,-4.3,2.2,-6.8c2.5,-2.5,5.5,-3.5,6.8,-2.2Z" class="g0_293"/>
<path d="M203.7,107.6c.6,.6,.1,1.9,-.9,3c-1.1,1,-2.4,1.5,-3,.9c-.5,-.5,-.1,-1.8,1,-2.9c1.1,-1.1,2.4,-1.5,2.9,-1Z" class="g0_293"/>
<path d="M32.1,45.1H9.2m958.3,0h22.9M32.1,1331.3H9.2m958.3,0h22.9M45.1,32.1V9.2m0,1335.1v22.9M954.5,32.1V9.2m0,1335.1v22.9" class="gc_293"/>
<path d="M32.1,45.1H9.2m958.3,0h22.9M32.1,1331.3H9.2m958.3,0h22.9M45.1,32.1V9.2m0,1335.1v22.9M954.5,32.1V9.2m0,1335.1v22.9" class="gd_293"/>
<path d="M27.5,32.1H0m972.1,0h27.5M27.5,1344.3H0m972.1,0h27.5M32.1,27.5V0m0,1348.9v27.5M967.5,27.5V0m0,1348.9v27.5" class="gc_293"/>
<path d="M27.5,32.1H0m972.1,0h27.5M27.5,1344.3H0m972.1,0h27.5M32.1,27.5V0m0,1348.9v27.5M967.5,27.5V0m0,1348.9v27.5" class="gd_293"/>
</svg>