<?xml version="1.0" encoding="UTF-8" standalone="no"?>
<!DOCTYPE svg PUBLIC "-//W3C//DTD SVG 1.1//EN"
"http://www.w3.org/Graphics/SVG/1.1/DTD/svg11.dtd">
<svg viewBox="0 0 999 1376" version="1.1" xmlns="http://www.w3.org/2000/svg" xmlns:xlink="http://www.w3.org/1999/xlink">
<defs>
<clipPath id="c0_157"><path d="M97.4,783.2V524.7h198V783.2Z"/></clipPath>
<clipPath id="c1_157"><path d="M94.4,782.6V520.8H297.9V782.6Z"/></clipPath>
<clipPath id="c2_157"><path d="M94.1,782.3V520.5H297.6V782.3Z"/></clipPath>
<clipPath id="c3_157"><path d="M732.5,874.8V611.4H944.8V874.8Z"/></clipPath>
<clipPath id="c4_157"><path d="M735.1,872.8V612.1H941.9V872.8Z"/></clipPath>
<clipPath id="c5_157"><path d="M734.8,872.5V611.8H941.6V872.5Z"/></clipPath>
<clipPath id="c6_157"><path d="M199.2,265.9l-6.5,-2.1l-16.4,-14v-57h72v73.1Z"/></clipPath>
<clipPath id="c7_157"><path d="M198.6,1054.2l-6.5,-2.1l-16.4,-13.9V981.1h72v73.1Z"/></clipPath>
<clipPath id="c8_157"><path d="M786.5,132.5V120.1H801v12.4Z"/></clipPath>
<clipPath id="c9_157"><path d="M185.2,536.7c-.3,-.1,3.5,-8.2,3.5,-8.2l.8,.5c0,0,-4,7.7,-4.3,7.7Z"/></clipPath>
<clipPath id="ca_157"><path d="M192.7,529c0,0,-6.9,-1.1,-7.6,-5.2c-.7,-3.6,1.5,-3.9,2.1,-3.9c0,0,.1,0,.1,0l8.3,-12.7l-1.5,-3.1c0,0,-.6,-1.1,.2,-2.1c0,0,.1,-.1,.3,-.1c2.1,0,12.9,5.6,12.9,5.6l.1,.1c-.4,.6,-.7,1.2,-1.4,1.7c-.6,.5,-5.1,1.1,-5.1,1.1L192.7,529Z"/></clipPath>
<clipPath id="cb_157"><path d="M192.3,528.6c.2,-.4,.2,-1.8,0,-2.2V525c-1.6,-.5,-2.9,-1.2,-3.7,-2.5c-1.1,.6,-2.1,1.2,-3.1,1.9c1.5,2.1,3.8,3.5,6.8,4.2Zm0,-3.9c2.2,-4.5,3.9,-9.5,6.1,-14c-.9,-.4,-1.8,-1.4,-2.6,-1.4c-2.3,4.3,-4.6,8.6,-7.1,12.8c.8,1.3,2.1,2,3.6,2.6ZM185,536.8c1,-2.9,2.4,-5.5,3.5,-8.3c-2,-1.5,-3.9,-3.1,-4.4,-6.1v-1.6c0,-2.7,1.9,-3.4,4.6,-3.4c0,0,.1,0,.2,0c1.9,-3.3,4.2,-6.3,6.1,-9.6c-.5,-.9,-1.1,-2.4,-.9,-3.7c.6,1.3,1.7,1.9,2.4,2.9c-.1,.6,-.3,1.2,-.3,1.8c.5,.6,1.3,1.2,2.3,1.4c.5,-.5,.6,-1.3,1.2,-1.6c.9,.4,1.8,.8,3.1,.8c.1,.1,.5,.2,.8,.2c.4,0,.7,-.1,.9,-.2c.1,0,.2,.1,.3,.1c.2,0,.4,-.1,.6,-.2c.2,-.1,.3,-.1,.5,-.1c.1,0,.2,0,.3,.1c-1.3,.6,-2.2,1.8,-4.2,1.8c-.1,0,-.2,-.1,-.3,-.1c-.9,3.8,-1.9,7.4,-2.7,11.2c.6,1.1,1.5,1.7,1.3,3.2c-.5,2.7,-3.9,4.4,-7.2,4.4c-1.3,0,-2.5,-.3,-3.6,-.8c-1,2.1,-2.1,4.1,-3.3,6c0,-.3,.3,-.3,.3,-.7c.9,-1.8,1.9,-3.6,2.6,-5.7c-1,1.7,-1.8,3.7,-2.7,5.6c-.3,.4,-.5,.8,-.7,1.2c-.3,.4,-.3,1.2,-.7,1.4Z"/></clipPath>
<clipPath id="cc_157"><path d="M202.7,509c-4.8,0,-13.1,-7.3,-5.5,-8.8h1.2c.2,.1,.4,.1,.7,.1q.1,0,.2,0c.2,0,.5,0,.9,.1c3.1,.6,8.2,3.8,7.5,7c-.2,1.1,-1.5,1.6,-3.1,1.6h-1.8c0,0,-.1,0,-.1,0Z"/></clipPath>
<clipPath id="cd_157"><path d="M835.2,628.1c-.3,-.1,3.6,-8.2,3.6,-8.2l.7,.5c0,0,-4,7.7,-4.3,7.7Z"/></clipPath>
<clipPath id="ce_157"><path d="M842.7,620.4c0,0,-6.8,-1.1,-7.6,-5.3c-.6,-3.6,1.5,-3.8,2.1,-3.8q.1,0,.1,0l8.3,-12.7l-1.4,-3.1c0,0,-.6,-1.1,.1,-2.1c.1,0,.2,-.1,.3,-.1c2.1,0,13,5.6,13,5.6v.1c-.3,.5,-.7,1.2,-1.3,1.7c-.7,.5,-5.1,1.1,-5.1,1.1l-8.5,18.6Z"/></clipPath>
<clipPath id="cf_157"><path d="M842.3,620c.2,-.5,.2,-1.8,0,-2.2v-1.4c-1.5,-.6,-2.9,-1.3,-3.6,-2.5c-1.1,.5,-2.2,1.2,-3.2,1.8c1.6,2.2,3.8,3.6,6.8,4.3Zm0,-3.9c2.2,-4.5,4,-9.5,6.2,-14.1c-.9,-.3,-1.9,-1.3,-2.7,-1.3c-2.3,4.3,-4.6,8.6,-7,12.8c.7,1.3,2.1,2,3.5,2.6ZM835,628.2c1.1,-2.9,2.4,-5.5,3.5,-8.3c-1.9,-1.6,-3.9,-3.1,-4.4,-6.2v-1.5c0,-2.7,2,-3.4,4.6,-3.4c.1,0,.2,0,.2,0c2,-3.3,4.2,-6.3,6.2,-9.6c-.6,-.9,-1.2,-2.4,-.9,-3.7c.5,1.3,1.6,1.9,2.4,2.9c-.1,.6,-.3,1.1,-.4,1.8c.6,.6,1.3,1.1,2.4,1.3c.4,-.4,.5,-1.2,1.1,-1.5c1,.4,1.9,.8,3.2,.8c.1,.1,.4,.1,.8,.1c.3,0,.7,0,.8,-.1c.1,0,.2,0,.3,0c.2,0,.4,0,.6,-.1c.2,-.1,.4,-.1,.5,-.1c.1,0,.2,0,.4,.1c-1.4,.6,-2.2,1.7,-4.2,1.7c-.1,0,-.3,0,-.4,0c-.8,3.8,-1.8,7.4,-2.6,11.2c.5,1.1,1.5,1.7,1.2,3.1c-.4,2.8,-3.8,4.4,-7.2,4.4c-1.2,0,-2.5,-.2,-3.6,-.7c-1,2.1,-2,4.1,-3.2,6c-.1,-.3,.3,-.4,.2,-.7c1,-1.8,2,-3.6,2.7,-5.7c-1.1,1.7,-1.9,3.7,-2.8,5.5c-.2,.5,-.4,.9,-.6,1.3c-.3,.4,-.3,1.1,-.8,1.4Z"/></clipPath>
<clipPath id="cg_157"><path d="M852.7,600.4c-4.7,0,-13,-7.3,-5.5,-8.8h1.3c.1,.1,.3,.1,.5,.1c0,0,.1,0,.2,0c0,0,.1,0,.2,0c.2,0,.5,0,.8,0c3.1,.7,8.2,3.8,7.6,7.1c-.3,1.1,-1.6,1.6,-3.2,1.6h-1.7q-.1,0,-.2,0Z"/></clipPath>
<style type="text/css"><![CDATA[
.g0_157{
fill: #FEFCF4;
}
.g1_157{
fill: #FFF;
}
.g2_157{
fill: none;
stroke: #6381B7;
stroke-width: 0.763;
}
.g3_157{
fill: #F7C2D9;
}
.g4_157{
fill: #FDF4F3;
}
.g5_157{
fill: #EC008C;
}
.g6_157{
fill: none;
stroke: #949698;
stroke-width: 0.305;
stroke-dasharray: 4,4;
}
.g7_157{
fill: none;
stroke: #949698;
stroke-width: 0.305;
stroke-dasharray: 3,3;
}
.g8_157{
fill: none;
stroke: #949698;
stroke-width: 0.305;
}
.g9_157{
fill: #818385;
}
.ga_157{
fill: #6D6F71;
}
.gb_157{
fill: #6381B7;
}
.gc_157{
fill: none;
stroke: #6381B7;
stroke-width: 0.381;
stroke-dasharray: 2,1;
}
.gd_157{
fill: none;
stroke: #6381B7;
stroke-width: 0.381;
}
.ge_157{
fill: #FCE8B0;
}
.gf_157{
fill: #25408F;
}
.gg_157{
fill: #A8AAAD;
}
.gh_157{
fill: none;
stroke: #949698;
stroke-width: 0.549;
}
.gi_157{
fill: none;
stroke: #BCBEC0;
stroke-width: 2.566;
}
.gj_157{
fill: #231F20;
}
.gk_157{
fill: #363637;
}
.gl_157{
fill: #5CC4BE;
}
.gm_157{
fill: #F0D73F;
}
.gn_157{
fill: none;
stroke: #FFF;
stroke-width: 1.909;
stroke-miterlimit: 10;
}
.go_157{
fill: none;
stroke: #000;
stroke-width: 0.381;
stroke-miterlimit: 10;
}
]]></style>
</defs>
<path d="M45.1,1344.3H967.5V32.1H45.1V1344.3Z" class="g0_157"/>
<path d="M171.6,138.6c0,0,-18.3,0,-18.3,18.4V870.9c0,0,0,18.3,18.3,18.3H848.7c0,0,18.4,0,18.4,-18.3V138.6Z" class="g1_157"/>
<path d="M171.6,138.6c0,0,-18.3,0,-18.3,18.4V870.9c0,0,0,18.3,18.3,18.3H848.7c0,0,18.4,0,18.4,-18.3V138.6H171.6Z" class="g2_157"/>
<image clip-path="url(#c0_157)" preserveAspectRatio="none" x="97" y="525" width="198" height="259" xlink:href="img/1.png"/>
<path d="M103.6,529.9l-1.3,244.9l186.8,1.9L288,531.9Z" class="g3_157"/>
<image clip-path="url(#c1_157)" preserveAspectRatio="none" x="94" y="521" width="203" height="262" xlink:href="img/2.png"/>
<image clip-path="url(#c2_157)" preserveAspectRatio="none" x="94" y="521" width="203" height="262" xlink:href="img/3.png"/>
<path d="M98.9,532.8l9.3,243.4l151.2,-6.4l32.2,-27.1L283.2,525.2Z" class="g4_157"/>
<path d="M258.6,770.4l32.9,-27.2l-29.1,-1.3Z" class="g5_157"/>
<path d="M461.6,609.2C448.8,587.4,381.2,484.5,247.6,488.6" class="g6_157"/>
<path d="M240.2,489.2c-5.9,1.3,-2.1,4.7,1.5,5.9" class="g7_157"/>
<path d="M247.5,492.3c.7,-3.3,-1.6,-7.8,-12.4,-9m-7.8,-.1c-19.1,1.6,-67.7,14.8,-89.2,47.1" class="g6_157"/>
<path d="M463.9,613.2c0,0,-.3,-.4,-.8,-1.3M246,488.7c-.5,0,-1,0,-1.5,0c-.5,0,-1,.1,-1.4,.1m0,6.6c.5,.1,1,.2,1.4,.1c.5,0,1,-.3,1.4,-.6M233.5,483.2c-.5,-.1,-1,-.1,-1.6,-.1c-.4,0,-.9,0,-1.5,0m-93.1,48.5c-.3,.5,-.6,.9,-.8,1.3" class="g8_157"/>
<path d="M146,526.7l-7.2,-5L136,533.5Z" class="g9_157"/>
<path d="M555.3,642.4c48.3,-.4,87.8,-7.2,94.8,-16" class="g6_157"/>
<path d="M649.3,619.9c-2.5,-2.4,-7.4,-4.6,-14.2,-6.6" class="g7_157"/>
<path d="M627.7,611.5c-17.8,-4,-44.2,-6.6,-73.9,-6.8m-7.7,0c-48.4,.4,-87.8,7.3,-94.8,16.1m1,6.7c9.5,8.4,48.3,14.7,95.3,14.9" class="g6_157"/>
<path d="M650.9,625.1c.2,-.5,.3,-1,.3,-1.5c0,-.5,-.1,-1,-.3,-1.4m-17.2,-9.3c-.5,-.1,-.9,-.2,-1.4,-.3c-.5,-.2,-1,-.3,-1.5,-.4m-78.5,-7.5c-.6,0,-1.1,0,-1.6,0c-.5,0,-1,0,-1.6,0m-98.6,17.4c-.2,.5,-.3,1,-.3,1.5c0,.5,.1,1,.3,1.5m98.6,17.3c.6,0,1.1,0,1.6,0c.5,0,1,0,1.5,0" class="g8_157"/>
<image clip-path="url(#c3_157)" preserveAspectRatio="none" x="732" y="612" width="212" height="263" xlink:href="img/4.png"/>
<path d="M737.3,623l11.2,245.8l190.3,-5L927,616.5Z" class="g3_157"/>
<image clip-path="url(#c4_157)" preserveAspectRatio="none" x="735" y="612" width="207" height="261" xlink:href="img/5.png"/>
<image clip-path="url(#c5_157)" preserveAspectRatio="none" x="734" y="612" width="207" height="261" xlink:href="img/6.png"/>
<path d="M744.4,616.8l-4.3,245.3l157.8,4.3l33.3,-26l3.9,-218.8Z" class="g4_157"/>
<path d="M898.2,866.8l33.6,-26.3l-28.3,-2.9Z" class="g5_157"/>
<path d="M588.9,736.8c0,0,43.5,-88.7,148.5,-88.7" class="g6_157"/>
<path d="M567.8,771.3c21.1,-.8,38,-7.4,41.2,-15.9" class="g7_157"/>
<path d="M607.8,747.4c-1,-1.4,-2.3,-2.7,-3.9,-3.9m-7.4,-4.1c-7.7,-3.3,-18.2,-5.4,-29.9,-5.7" class="g6_157"/>
<path d="M558.9,733.7c-21,.9,-37.9,7.5,-41.1,15.9m.6,7.2c4.5,7.9,21.4,14,42,14.5" class="g7_157"/>
<path d="M609.4,754c.1,-.5,.1,-1,.1,-1.5c0,-.6,-.1,-1.2,-.2,-1.8m-6.9,-8.3c-.5,-.3,-1,-.6,-1.6,-.9c-.4,-.3,-.9,-.5,-1.4,-.8m-34.4,-7c-.5,0,-1.1,-.1,-1.6,-.1c-.5,0,-1,.1,-1.5,.1M517.4,751c-.1,.5,-.1,1,-.1,1.5c0,.5,0,1,.1,1.5m44.5,17.4c.5,0,1,0,1.5,0c.5,0,1,0,1.5,0" class="g8_157"/>
<path d="M731.5,643.5l.8,8.8l10.9,-5.5Z" class="ga_157"/>
<path d="M166.7,967.9c0,0,-13,0,-13,13v143.2c0,0,0,13,13,13H854.5c0,0,13,0,13,-13V980.9c0,0,0,-13,-13,-13Z" class="g1_157"/>
<path d="M166.7,967.9c0,0,-13,0,-13,13v143.2c0,0,0,13,13,13H854.5c0,0,13,0,13,-13V980.9c0,0,0,-13,-13,-13H166.7Z" class="g2_157"/>
<path d="M516.1,1154.1c0,0,-4.3,0,-4.3,4.3v10.8c0,0,0,4.3,4.3,4.3h30.3c0,0,4.4,0,4.4,-4.3v-10.8c0,0,0,-4.3,-4.4,-4.3Z" class="gb_157"/>
<path d="M502.9,1146.6v34.8m1.4,1H866.8m.9,-1.4v-34.8m-1.3,-1H503.9" class="gc_157"/>
<path d="M502.9,1181.8v.6h.6m363.6,0h.6v-.6m0,-36v-.6h-.6m-363.6,0h-.6v.6" class="gd_157"/>
<path d="M231.8,220.9c0,0,-13,0,-13,13v21.6c0,0,0,13,13,13h602c0,0,13,0,13,-13V233.9c0,0,0,-13,-13,-13Z" class="ge_157"/>
<image clip-path="url(#c6_157)" preserveAspectRatio="none" x="175" y="191" width="75" height="76" xlink:href="img/7.png"/>
<path d="M226.6,261.2c0,0,-26.9,11.3,-51.1,-12.8c0,0,15.1,25.3,49.3,24c0,0,24.7,.3,20.2,-10.1c0,0,1.2,-4.5,-18.4,-1.1Z" class="ge_157"/>
<path d="M231.2,1009.2c0,0,-12.9,0,-12.9,13v21.7c0,0,0,13,12.9,13H833.3c0,0,13,0,13,-13v-21.7c0,0,0,-13,-13,-13Z" class="ge_157"/>
<image clip-path="url(#c7_157)" preserveAspectRatio="none" x="174" y="979" width="75" height="77" xlink:href="img/8.png"/>
<path d="M226,1049.5c0,0,-26.8,11.3,-51.1,-12.7c0,0,15.2,25.3,49.3,23.9c0,0,24.8,.4,20.3,-10.1c0,0,1.2,-4.5,-18.5,-1.1Z" class="ge_157"/>
<path d="M153.3,111.9v39L165,161.2V117Z" class="gf_157"/>
<path d="M153.3,111.9v39H851.1c0,0,16.8,0,16.8,-16.8v-5.3c0,0,0,-16.9,-16.8,-16.9Z" class="gb_157"/>
<path d="M802.6,145.6c8.2,0,14.9,-6.5,14.9,-14.5c0,-8.1,-6.7,-14.5,-14.9,-14.5c-8.2,0,-14.9,6.4,-14.9,14.5c0,8,6.7,14.5,14.9,14.5Z" class="gg_157"/>
<path d="M802.6,145.6c8.2,0,14.9,-6.5,14.9,-14.5c0,-8.1,-6.7,-14.5,-14.9,-14.5c-8.2,0,-14.9,6.4,-14.9,14.5c0,8,6.7,14.5,14.9,14.5Z" class="gh_157"/>
<path d="M802.6,136.4c3,0,5.5,-2.4,5.5,-5.3c0,-3,-2.5,-5.4,-5.5,-5.4c-3,0,-5.5,2.4,-5.5,5.4c0,2.9,2.5,5.3,5.5,5.3Z" class="g1_157"/>
<path d="M802.6,136.4c3,0,5.5,-2.4,5.5,-5.3c0,-3,-2.5,-5.4,-5.5,-5.4c-3,0,-5.5,2.4,-5.5,5.4c0,2.9,2.5,5.3,5.5,5.3Z" class="gi_157"/>
<g clip-path="url(#c8_157)" opacity="0.3">
<path d="M788,130.3c0,0,0,-4.8,3.7,-8.7l7.7,6.8c0,0,-1,.9,-1,2.6Z" class="g1_157"/>
</g>
<path d="M807.2,131c0,0,-3.5,0,-3.5,3.4v8.7c0,0,0,3.5,3.5,3.5h43.5c0,0,3.5,0,3.5,-3.5v-8.7c0,0,0,-3.4,-3.5,-3.4Z" class="gj_157"/>
<path d="M191.2,122c0,-8.3,-6.8,-15,-15.1,-15c-8.3,0,-15,6.7,-15,15c0,8.3,6.7,15.1,15,15.1c.8,0,1.7,-.1,2.4,-.2l4.5,5.2v-6.7c4.9,-2.5,8.2,-7.6,8.2,-13.4Z" class="g1_157"/>
<path d="M183.5,143.3l-5.1,-5.9c-.8,.1,-1.5,.1,-2.3,.1c-8.5,0,-15.5,-6.9,-15.5,-15.5c0,-8.5,7,-15.5,15.5,-15.5c8.6,0,15.5,7,15.5,15.5c0,5.7,-3.1,11,-8.1,13.7Zm-4.8,-6.9l3.9,4.5v-5.8l.2,-.1c4.9,-2.5,7.9,-7.5,7.9,-13c0,-8,-6.5,-14.6,-14.6,-14.6c-8,0,-14.6,6.6,-14.6,14.6c0,8.1,6.6,14.6,14.6,14.6c.8,0,1.6,-.1,2.4,-.2Z" class="gk_157"/>
<path d="M169.1,121.6c.8,0,1.4,.6,1.4,1.4c0,.8,-.6,1.5,-1.4,1.5c-.8,0,-1.4,-.7,-1.4,-1.5c0,-.8,.6,-1.4,1.4,-1.4Z" class="gl_157"/>
<path d="M169.1,124.9c-1,0,-1.9,-.8,-1.9,-1.9c0,-1,.9,-1.9,1.9,-1.9c1,0,1.9,.9,1.9,1.9c0,1.1,-.9,1.9,-1.9,1.9m0,-2.9c-.5,0,-1,.5,-1,1c0,.6,.5,1,1,1c.5,0,1,-.4,1,-1c0,-.5,-.5,-1,-1,-1Z" class="gk_157"/>
<path d="M176.1,121.6c.8,0,1.5,.6,1.5,1.4c0,.8,-.7,1.5,-1.5,1.5c-.8,0,-1.4,-.7,-1.4,-1.5c0,-.8,.6,-1.4,1.4,-1.4Z" class="gl_157"/>
<path d="M176.1,124.9c-1,0,-1.9,-.8,-1.9,-1.9c0,-1,.9,-1.9,1.9,-1.9c1.1,0,1.9,.9,1.9,1.9c0,1.1,-.8,1.9,-1.9,1.9m0,-2.9c-.5,0,-1,.5,-1,1c0,.6,.5,1,1,1c.6,0,1,-.4,1,-1c0,-.5,-.4,-1,-1,-1Z" class="gk_157"/>
<path d="M183.1,121.6c.8,0,1.5,.6,1.5,1.4c0,.8,-.7,1.5,-1.5,1.5c-.8,0,-1.4,-.7,-1.4,-1.5c0,-.8,.6,-1.4,1.4,-1.4Z" class="gl_157"/>
<path d="M183.1,124.9c-1,0,-1.9,-.8,-1.9,-1.9c0,-1,.9,-1.9,1.9,-1.9c1.1,0,1.9,.9,1.9,1.9c0,1.1,-.8,1.9,-1.9,1.9m0,-2.9c-.5,0,-1,.5,-1,1c0,.6,.5,1,1,1c.6,0,1,-.4,1,-1c0,-.5,-.4,-1,-1,-1Z" class="gk_157"/>
<path d="M185.1,136.3c0,-9.8,7.8,-17.7,17.6,-17.7c9.7,0,17.6,7.9,17.6,17.7c0,9.7,-7.9,17.6,-17.6,17.6c-1,0,-1.9,-.1,-2.9,-.3l-5.2,6.1v-7.8c-5.7,-2.9,-9.5,-8.8,-9.5,-15.6Z" class="gm_157"/>
<path d="M194.6,160.2q-.1,0,-.2,0c-.2,-.1,-.3,-.3,-.3,-.5v-7.5c-5.9,-3.2,-9.5,-9.2,-9.5,-15.9c0,-10,8.1,-18.1,18.1,-18.1c9.9,0,18,8.1,18,18.1c0,9.9,-8.1,18,-18,18c-.9,0,-1.8,0,-2.7,-.2l-5.1,5.9c-.1,.1,-.2,.2,-.3,.2m8.1,-41.1c-9.5,0,-17.2,7.7,-17.2,17.2c0,6.4,3.6,12.2,9.3,15.2c.1,.1,.2,.2,.2,.4v6.6l4.5,-5.2c.1,-.1,.3,-.1,.4,-.1c1,.1,1.9,.2,2.8,.2c9.4,0,17.1,-7.7,17.1,-17.1c0,-9.5,-7.7,-17.2,-17.1,-17.2Z" class="gk_157"/>
<path d="M210.9,135.8c.9,0,1.6,.7,1.6,1.6c0,1,-.7,1.7,-1.6,1.7c-1,0,-1.7,-.7,-1.7,-1.7c0,-.9,.7,-1.6,1.7,-1.6Z" class="g1_157"/>
<path d="M210.9,139.6c-1.2,0,-2.2,-1,-2.2,-2.2c0,-1.1,1,-2.1,2.2,-2.1c1.1,0,2.1,1,2.1,2.1c0,1.2,-1,2.2,-2.1,2.2m0,-3.4c-.7,0,-1.3,.6,-1.3,1.2c0,.7,.6,1.3,1.3,1.3c.6,0,1.2,-.6,1.2,-1.3c0,-.6,-.6,-1.2,-1.2,-1.2Z" class="gk_157"/>
<path d="M202.7,135.8c.9,0,1.6,.7,1.6,1.6c0,1,-.7,1.7,-1.6,1.7c-1,0,-1.7,-.7,-1.7,-1.7c0,-.9,.7,-1.6,1.7,-1.6Z" class="g1_157"/>
<path d="M202.7,139.6c-1.2,0,-2.2,-1,-2.2,-2.2c0,-1.1,1,-2.1,2.2,-2.1c1.1,0,2.1,1,2.1,2.1c0,1.2,-1,2.2,-2.1,2.2m0,-3.4c-.7,0,-1.3,.6,-1.3,1.2c0,.7,.6,1.3,1.3,1.3c.6,0,1.2,-.6,1.2,-1.3c0,-.6,-.6,-1.2,-1.2,-1.2Z" class="gk_157"/>
<path d="M194.5,135.8c.9,0,1.6,.7,1.6,1.6c0,1,-.7,1.7,-1.6,1.7c-1,0,-1.7,-.7,-1.7,-1.7c0,-.9,.7,-1.6,1.7,-1.6Z" class="g1_157"/>
<path d="M194.5,139.6c-1.2,0,-2.2,-1,-2.2,-2.2c0,-1.1,1,-2.1,2.2,-2.1c1.1,0,2.1,1,2.1,2.1c0,1.2,-1,2.2,-2.1,2.2m0,-3.4c-.7,0,-1.2,.6,-1.2,1.2c0,.7,.5,1.3,1.2,1.3c.6,0,1.2,-.6,1.2,-1.3c0,-.6,-.6,-1.2,-1.2,-1.2Z" class="gk_157"/>
<image clip-path="url(#c9_157)" x="184" y="528" width="6" height="9" xlink:href="shade/1.png"/>
<image clip-path="url(#ca_157)" x="184" y="501" width="24" height="28" xlink:href="shade/2.png"/>
<image clip-path="url(#cb_157)" x="184" y="504" width="23" height="33" xlink:href="shade/3.png"/>
<image clip-path="url(#cc_157)" x="189" y="500" width="20" height="10" xlink:href="shade/4.png"/>
<image clip-path="url(#cd_157)" x="834" y="619" width="6" height="10" xlink:href="shade/5.png"/>
<image clip-path="url(#ce_157)" x="834" y="593" width="24" height="28" xlink:href="shade/6.png"/>
<image clip-path="url(#cf_157)" x="834" y="595" width="23" height="34" xlink:href="shade/7.png"/>
<image clip-path="url(#cg_157)" x="839" y="591" width="20" height="10" xlink:href="shade/8.png"/>
<path d="M32.1,45.1H9.2m958.3,0h22.9M32.1,1331.3H9.2m958.3,0h22.9M45.1,32.1V9.2m0,1335.1v22.9M954.5,32.1V9.2m0,1335.1v22.9" class="gn_157"/>
<path d="M32.1,45.1H9.2m958.3,0h22.9M32.1,1331.3H9.2m958.3,0h22.9M45.1,32.1V9.2m0,1335.1v22.9M954.5,32.1V9.2m0,1335.1v22.9" class="go_157"/>
<path d="M27.5,32.1H0m972.1,0h27.5M27.5,1344.3H0m972.1,0h27.5M32.1,27.5V0m0,1348.9v27.5M967.5,27.5V0m0,1348.9v27.5" class="gn_157"/>
<path d="M27.5,32.1H0m972.1,0h27.5M27.5,1344.3H0m972.1,0h27.5M32.1,27.5V0m0,1348.9v27.5M967.5,27.5V0m0,1348.9v27.5" class="go_157"/>
</svg>