<?xml version="1.0" encoding="UTF-8" standalone="no"?>
<!DOCTYPE svg PUBLIC "-//W3C//DTD SVG 1.1//EN"
"http://www.w3.org/Graphics/SVG/1.1/DTD/svg11.dtd">
<svg viewBox="0 0 999 1376" version="1.1" xmlns="http://www.w3.org/2000/svg" xmlns:xlink="http://www.w3.org/1999/xlink">
<defs>
<clipPath id="c0_373"><path d="M32.1,1344.3V32.1H967.5V1344.3Z"/></clipPath>
<clipPath id="c1_373"><path d="M154.8,1245.3V132.3H869.3v1113Z"/></clipPath>
<clipPath id="c2_373"><path d="M248.8,584.6V246.9H769.6V584.6Z"/></clipPath>
<clipPath id="c3_373"><path d="M255.1,572.2v-319H757.5v319Z"/></clipPath>
<style type="text/css"><![CDATA[
.g0_373{
fill: #FEFCF4;
}
.g1_373{
fill: #FFF;
}
.g2_373{
fill: none;
stroke: #231F20;
stroke-width: 0.756;
stroke-miterlimit: 3;
}
.g3_373{
fill: none;
stroke: #FFF;
stroke-width: 9.166;
}
.g4_373{
fill: #25408F;
}
.g5_373{
fill: #6381B7;
}
.g6_373{
fill: #FFDE2C;
}
.g7_373{
fill: none;
stroke: #231F20;
stroke-width: 1.451;
stroke-miterlimit: 10;
}
.g8_373{
fill: #D2D3D5;
}
.g9_373{
fill: #A8AAAD;
}
.ga_373{
fill: none;
stroke: #231F20;
stroke-width: 0.828;
stroke-miterlimit: 10;
}
.gb_373{
fill: #6CCFF6;
}
.gc_373{
fill: none;
stroke: #231F20;
stroke-width: 0.828;
stroke-linecap: round;
stroke-linejoin: round;
}
.gd_373{
fill: none;
stroke: #231F20;
stroke-width: 1.451;
stroke-linecap: round;
stroke-linejoin: round;
}
.ge_373{
fill: none;
stroke: #FFF;
stroke-width: 1.909;
stroke-miterlimit: 10;
}
.gf_373{
fill: none;
stroke: #000;
stroke-width: 0.381;
stroke-miterlimit: 10;
}
]]></style>
</defs>
<path clip-path="url(#c0_373)" d="M-877.3,1343.2H45.1V32.1H-877.3V1343.2Z" class="g0_373"/>
<path d="M45.1,1344.3H967.5V32.1H45.1V1344.3Z" class="g0_373"/>
<path d="M154.8,1245.3H869.3V132.3H154.8v1113Z" class="g1_373"/>
<image clip-path="url(#c1_373)" preserveAspectRatio="none" x="152" y="130" width="719" height="1118" xlink:href="img/1.jpg"/>
<path d="M467.5,169v11.8c0,.9,-.2,1.6,-.5,2.2c-.4,.5,-.8,1,-1.2,1.3c.6,.1,.9,.4,1.1,.7c.2,.3,.3,.8,.3,1.4l-.2,7.3h-2v-6.8c0,-.3,-.1,-.5,-.2,-.6c-.1,-.2,-.3,-.2,-.6,-.2H451.6v-1.8h12.3c.4,-.4,.7,-.9,1,-1.5c.2,-.6,.3,-1.2,.3,-1.9V169h2.3Zm-18.9,.5h8.6c.4,0,.7,0,1,.2c.2,.1,.4,.3,.5,.5c.1,.2,.1,.4,.1,.7c0,.2,0,.5,0,.6c-.2,.8,-.5,1.5,-.9,2.3c-.4,.7,-.8,1.4,-1.4,2.2c.7,.1,1.2,.3,1.6,.5c.4,.3,.7,.6,1,.9c.4,.5,.9,1,1.3,1.5c.4,.6,.9,1.1,1.3,1.6l-1.5,1.3c-.3,-.2,-.5,-.5,-.7,-.8c-.2,-.2,-.4,-.5,-.6,-.7c-.2,-.3,-.4,-.5,-.6,-.8c-.2,-.2,-.4,-.5,-.7,-.7c-.3,-.4,-.6,-.6,-1,-.9c-.3,-.3,-.8,-.4,-1.3,-.6c-.9,.9,-1.9,1.7,-3,2.5c-1.1,.7,-2.3,1.4,-3.5,2l-1,-1.8c2.3,-1.1,4.1,-2.3,5.5,-3.6c1.3,-1.3,2.4,-2.8,3.1,-4.4c.1,-.3,.1,-.5,0,-.6c-.1,-.1,-.3,-.2,-.6,-.2h-7.2v-1.7ZM491,182.3h-2.3v-6.4h-5.1c-.3,1.5,-1,2.7,-2.1,3.5c-1.1,.9,-2.5,1.3,-4.1,1.3c-.9,0,-1.7,-.1,-2.4,-.4c-.8,-.2,-1.4,-.6,-2,-1.1c-.6,-.5,-1.1,-1.1,-1.4,-1.8c-.3,-.7,-.5,-1.6,-.5,-2.6c0,-.9,.2,-1.7,.5,-2.4c.3,-.7,.8,-1.3,1.3,-1.8c.6,-.5,1.2,-.9,2,-1.2c.8,-.3,1.6,-.4,2.5,-.4c1.7,0,3.1,.5,4.2,1.4c1.2,.9,1.9,2.2,2,3.7h5.1V169H491v13.3Zm0,1.4V193c0,.3,-.1,.4,-.2,.6c-.1,.1,-.2,.1,-.5,.1h-12c-.9,0,-1.6,-.1,-2,-.4c-.5,-.3,-.7,-1,-.7,-1.9v-7.7h2.3v3.2h10.9v-3.2H491ZM480.4,172c-.7,-.8,-1.7,-1.2,-3,-1.2c-1.3,0,-2.3,.4,-3,1.2c-.7,.8,-1.1,1.8,-1.1,2.8c0,1.1,.4,2.1,1.1,2.9c.7,.8,1.7,1.2,3,1.2c1.3,0,2.3,-.4,3,-1.2c.7,-.8,1.1,-1.8,1.1,-2.9c0,-1,-.4,-2,-1.1,-2.8Zm8.4,20v-3.3H477.9v2.6c0,.2,0,.4,.1,.5c.1,.1,.3,.2,.5,.2h10.3Zm24.9,-9.5c-.3,.8,-.9,1.6,-1.7,2.3c.4,.5,.8,1.1,1.1,1.7c.3,.7,.4,1.4,.4,2.1c0,.9,-.2,1.6,-.5,2.3c-.4,.7,-.8,1.3,-1.4,1.9c-.6,.5,-1.3,.9,-2.1,1.1c-.7,.3,-1.5,.5,-2.4,.5c-.9,0,-1.7,-.2,-2.5,-.5c-.8,-.2,-1.4,-.6,-2,-1.1c-.6,-.5,-1.1,-1.1,-1.4,-1.9c-.3,-.7,-.5,-1.4,-.5,-2.3c0,-.8,.2,-1.6,.5,-2.3c.3,-.7,.8,-1.3,1.4,-1.8c.6,-.6,1.2,-1,2,-1.3c.8,-.3,1.6,-.4,2.5,-.4c.6,0,1.2,.1,1.8,.2c.6,.2,1.1,.4,1.6,.7c.6,-.6,1,-1.2,1.2,-1.9c.2,-.6,.3,-1.3,.3,-2v-1.3h-5.4v.9c-.8,.5,-1.7,.9,-2.9,1.2c-1.1,.4,-2.1,.5,-3.1,.5h-3c-.9,0,-1.5,-.2,-1.9,-.5c-.5,-.4,-.7,-1,-.7,-1.7v-9.4h2.2v3.8h7.2v-3.8h2.2v2.4H512V169h2.2v10.9c0,.9,-.1,1.8,-.5,2.6Zm-3.6,3.2c-.8,-.7,-1.8,-1.1,-3,-1.1c-1.2,0,-2.2,.4,-3,1.1c-.8,.8,-1.2,1.7,-1.2,2.9c0,1.2,.4,2.1,1.2,2.9c.8,.7,1.8,1.1,3,1.1c1.2,0,2.2,-.4,3,-1.1c.8,-.8,1.2,-1.7,1.2,-2.9c0,-1.2,-.4,-2.1,-1.2,-2.9Zm-12.9,-7.1c0,.2,.1,.4,.2,.5c.2,.2,.3,.2,.6,.2h2.6c.6,0,1.3,0,1.9,-.2c.7,-.1,1.3,-.4,1.9,-.7v-3.3h-7.2v3.5Zm9.4,-1.8H512v-3.2h-5.4v3.2ZM539,191.3v-8.7h-4.6c-.5,.8,-1.1,1.4,-1.9,1.9c-.7,.4,-1.6,.6,-2.6,.6c-1.8,0,-3.2,-.6,-4.2,-2c-.9,-1.3,-1.4,-3.1,-1.4,-5.3c0,-2.1,.5,-3.9,1.4,-5.2c1,-1.4,2.4,-2.1,4.2,-2.1c1,0,1.9,.3,2.7,.8c.8,.4,1.4,1.1,1.9,2H539v-4h2.2v22H539Zm-5.8,-15.5c-.1,-.6,-.3,-1.2,-.6,-1.7c-.3,-.5,-.6,-.9,-1.1,-1.2c-.4,-.3,-1,-.5,-1.6,-.5c-.7,0,-1.2,.2,-1.7,.5c-.4,.3,-.8,.7,-1.1,1.2c-.2,.5,-.4,1.1,-.5,1.7c-.2,.7,-.2,1.3,-.2,2c0,.7,0,1.4,.2,2.1c.1,.6,.3,1.2,.5,1.7c.3,.5,.7,.9,1.1,1.2c.5,.3,1,.4,1.7,.4c.6,0,1.2,-.1,1.6,-.4c.5,-.3,.8,-.7,1.1,-1.2c.3,-.5,.5,-1.1,.6,-1.7c.2,-.7,.2,-1.4,.2,-2.1c0,-.7,0,-1.3,-.2,-2Zm10.9,-6.5h2.2v22.6h-2.2V169.3Zm-8.6,10.1c-.1,.5,-.2,1,-.3,1.4H539v-5.7h-3.8c.1,.4,.2,.9,.3,1.3c0,.5,.1,1,.1,1.4c0,.6,-.1,1.1,-.1,1.6ZM568.7,169v6.1H573v1.8h-4.3v3c0,.9,-.2,1.8,-.5,2.6c-.3,.8,-.9,1.6,-1.8,2.3c.5,.5,.9,1.1,1.2,1.7c.2,.7,.4,1.4,.4,2.1c0,.9,-.2,1.6,-.5,2.3c-.4,.7,-.9,1.3,-1.4,1.9c-.6,.5,-1.3,.9,-2.1,1.1c-.7,.3,-1.6,.5,-2.4,.5c-.9,0,-1.7,-.2,-2.5,-.5c-.8,-.2,-1.5,-.6,-2,-1.1c-.6,-.5,-1.1,-1.1,-1.4,-1.9c-.4,-.7,-.5,-1.4,-.5,-2.3c0,-.8,.1,-1.6,.5,-2.3c.3,-.7,.8,-1.3,1.4,-1.8c.5,-.6,1.2,-1,2,-1.3c.8,-.3,1.6,-.4,2.5,-.4c.6,0,1.2,.1,1.8,.2c.6,.2,1.1,.4,1.6,.7c.6,-.6,1,-1.2,1.2,-1.9c.2,-.6,.2,-1.3,.2,-2V169h2.3Zm-10.1,11.3c-1.2,.3,-2.2,.5,-3.2,.5h-3c-.8,0,-1.5,-.2,-1.9,-.6c-.4,-.3,-.7,-.9,-.7,-1.7v-9h2.3v3.6h7.1v-3.6h2.3v9.6c-.8,.5,-1.8,.9,-2.9,1.2Zm6,5.4c-.8,-.7,-1.8,-1.1,-3,-1.1c-1.2,0,-2.2,.4,-3,1.1c-.8,.8,-1.2,1.7,-1.2,2.9c0,1.2,.4,2.1,1.2,2.9c.8,.7,1.8,1.1,3,1.1c1.2,0,2.2,-.4,3,-1.1c.8,-.8,1.1,-1.7,1.1,-2.9c0,-1.2,-.3,-2.1,-1.1,-2.9Zm-12.5,-7.4c0,.2,0,.4,.2,.5c.1,.1,.3,.2,.5,.2h2.7c.6,0,1.2,-.1,1.9,-.2c.6,-.2,1.3,-.4,1.8,-.7v-3.2h-7.1v3.4Z" class="g2_373"/>
<image clip-path="url(#c2_373)" preserveAspectRatio="none" x="248" y="247" width="521" height="338" xlink:href="img/2.png"/>
<image clip-path="url(#c3_373)" preserveAspectRatio="none" x="255" y="251" width="502" height="323" xlink:href="img/3.jpg"/>
<path d="M255.1,572.2H757.5v-319H255.1v319Z" class="g3_373"/>
<path d="M153.3,126.3v22.2L165,158.7V136.5Z" class="g4_373"/>
<path d="M153.3,109.5v39H851.1c0,0,16.8,0,16.8,-16.8v-5.4c0,0,0,-16.8,-16.8,-16.8Z" class="g5_373"/>
<path d="M207.2,115.7c0,-9.1,-7.9,-16.6,-17.7,-16.6c-9.8,0,-17.7,7.5,-17.7,16.6c0,2.7,.6,5.2,1.8,7.4c1.2,2.4,2.9,4.6,5,6.2c1.2,1,1.6,1.7,1.7,4.3v.6c0,3.3,2.7,5.9,5.9,5.9h6.6c3.2,0,5.8,-2.6,5.8,-5.9v-.6c.2,-2.6,.6,-3.3,1.8,-4.3c2.1,-1.6,3.8,-3.8,5,-6.2c1.2,-2.2,1.8,-4.7,1.8,-7.4Z" class="g6_373"/>
<path d="M207.2,115.7c0,-9.1,-7.9,-16.6,-17.7,-16.6c-9.8,0,-17.7,7.5,-17.7,16.6c0,2.7,.6,5.2,1.8,7.4c1.2,2.4,2.9,4.6,5,6.2c1.2,1,1.6,1.7,1.7,4.3v.6c0,3.3,2.7,5.9,5.9,5.9h6.6c3.2,0,5.8,-2.6,5.8,-5.9v-.6c.2,-2.6,.6,-3.3,1.8,-4.3c2.1,-1.6,3.8,-3.8,5,-6.2c1.2,-2.2,1.8,-4.7,1.8,-7.4Z" class="g7_373"/>
<path d="M194.6,147.4c0,2.8,-2.3,5.1,-5.1,5.1c-2.8,0,-5.1,-2.3,-5.1,-5.1c0,-2.8,2.3,-5.1,5.1,-5.1c2.8,0,5.1,2.3,5.1,5.1Z" class="g1_373"/>
<path d="M194.6,147.4c0,2.8,-2.3,5.1,-5.1,5.1c-2.8,0,-5.1,-2.3,-5.1,-5.1c0,-2.8,2.3,-5.1,5.1,-5.1c2.8,0,5.1,2.3,5.1,5.1Z" class="g7_373"/>
<path d="M182.1,140.2c0,1,.8,1.8,1.8,1.8h11.2c1,0,1.8,-.8,1.8,-1.8v-1.3H182.1Z" class="g1_373"/>
<path d="M182.1,140.2c0,1,.8,1.8,1.8,1.8h11.2c1,0,1.8,-.8,1.8,-1.8v-1.3H182.1v1.3Z" class="g7_373"/>
<path d="M196.9,143.2c0,.8,-.6,1.3,-1.3,1.3H183.4c-.8,0,-1.3,-.5,-1.3,-1.3c0,-.7,.5,-1.3,1.3,-1.3h12.2c.7,0,1.3,.6,1.3,1.3Z" class="g1_373"/>
<path d="M196.9,143.2c0,.8,-.6,1.3,-1.3,1.3H183.4c-.8,0,-1.3,-.5,-1.3,-1.3c0,-.7,.5,-1.3,1.3,-1.3h12.2c.7,0,1.3,.6,1.3,1.3Z" class="g7_373"/>
<path d="M196.9,145.8c0,.7,-.6,1.3,-1.3,1.3H183.4c-.8,0,-1.3,-.6,-1.3,-1.3c0,-.7,.5,-1.3,1.3,-1.3h12.2c.7,0,1.3,.6,1.3,1.3Z" class="g1_373"/>
<path d="M196.9,145.8c0,.7,-.6,1.3,-1.3,1.3H183.4c-.8,0,-1.3,-.6,-1.3,-1.3c0,-.7,.5,-1.3,1.3,-1.3h12.2c.7,0,1.3,.6,1.3,1.3Z" class="g7_373"/>
<path d="M215.5,128.7l8.3,10.4c.6,.7,1.8,.6,2.7,-.2c.9,-.7,1.2,-1.9,.7,-2.6l-8.9,-10.2Z" class="g8_373"/>
<path d="M215.5,128.7l8.3,10.4c.6,.7,1.8,.6,2.7,-.2c.9,-.7,1.2,-1.9,.7,-2.6l-8.9,-10.2l-2.8,2.6Z" class="g7_373"/>
<path d="M217.5,125.1c.5,.6,.3,1.8,-.7,2.6c-.9,.7,-2.1,.8,-2.6,.2c-.6,-.7,-.3,-1.9,.6,-2.6c.9,-.8,2.1,-.9,2.7,-.2Z" class="g9_373"/>
<path d="M217.5,125.1c.5,.6,.3,1.8,-.7,2.6c-.9,.7,-2.1,.8,-2.6,.2c-.6,-.7,-.3,-1.9,.6,-2.6c.9,-.8,2.1,-.9,2.7,-.2Z" class="g7_373"/>
<path d="M212.7,124.7l1.7,2c.3,.3,1,.3,1.5,-.1c.5,-.5,.7,-1.1,.4,-1.5l-1.7,-2Z" class="g1_373"/>
<path d="M212.7,124.7l1.7,2c.3,.3,1,.3,1.5,-.1c.5,-.5,.7,-1.1,.4,-1.5l-1.7,-2l-1.9,1.6Z" class="ga_373"/>
<path d="M214.8,122.9c.4,.5,.2,1.3,-.5,1.8c-.6,.5,-1.4,.6,-1.8,.1c-.4,-.4,-.2,-1.2,.5,-1.7c.6,-.6,1.4,-.6,1.8,-.2Z" class="g1_373"/>
<path d="M214.8,122.9c.4,.5,.2,1.3,-.5,1.8c-.6,.5,-1.4,.6,-1.8,.1c-.4,-.4,-.2,-1.2,.5,-1.7c.6,-.6,1.4,-.6,1.8,-.2Z" class="ga_373"/>
<path d="M216.4,105.4c4.8,5.7,4.1,14.2,-1.7,19c-5.7,4.8,-14.2,4,-19,-1.7c-4.8,-5.7,-4,-14.2,1.7,-19c5.7,-4.8,14.2,-4.1,19,1.7Z" class="g1_373"/>
<path d="M216.4,105.4c4.8,5.7,4.1,14.2,-1.7,19c-5.7,4.8,-14.2,4,-19,-1.7c-4.8,-5.7,-4,-14.2,1.7,-19c5.7,-4.8,14.2,-4.1,19,1.7Z" class="g7_373"/>
<path d="M214,107.4c3.5,4.2,3,10.5,-1.3,14.1c-4.2,3.5,-10.5,2.9,-14,-1.3c-3.5,-4.2,-3,-10.5,1.2,-14c4.2,-3.6,10.5,-3,14.1,1.2Z" class="gb_373"/>
<path d="M214,107.4c3.5,4.2,3,10.5,-1.3,14.1c-4.2,3.5,-10.5,2.9,-14,-1.3c-3.5,-4.2,-3,-10.5,1.2,-14c4.2,-3.6,10.5,-3,14.1,1.2Z" class="g7_373"/>
<path d="M213,110.6l-3.1,3m3.1,-.4l-3.1,3" class="gc_373"/>
<path d="M172.1,99l3.1,3.3m1.1,-5.9l1.2,3.9m-8.1,3l3.7,1.2" class="gd_373"/>
<path d="M185.8,106.1c1.2,1.2,.2,4.3,-2.2,6.7c-2.5,2.5,-5.5,3.5,-6.8,2.3c-1.2,-1.3,-.3,-4.3,2.2,-6.8c2.5,-2.5,5.5,-3.5,6.8,-2.2Z" class="g1_373"/>
<path d="M203.7,107.6c.6,.6,.1,1.9,-.9,3c-1.1,1,-2.4,1.5,-3,.9c-.5,-.5,-.1,-1.8,1,-2.9c1.1,-1.1,2.4,-1.5,2.9,-1Z" class="g1_373"/>
<path d="M32.1,45.1H9.2m958.3,0h22.9M32.1,1331.3H9.2m958.3,0h22.9M45.1,32.1V9.2m0,1335.1v22.9M954.5,32.1V9.2m0,1335.1v22.9" class="ge_373"/>
<path d="M32.1,45.1H9.2m958.3,0h22.9M32.1,1331.3H9.2m958.3,0h22.9M45.1,32.1V9.2m0,1335.1v22.9M954.5,32.1V9.2m0,1335.1v22.9" class="gf_373"/>
<path d="M27.5,32.1H0m972.1,0h27.5M27.5,1344.3H0m972.1,0h27.5M32.1,27.5V0m0,1348.9v27.5M967.5,27.5V0m0,1348.9v27.5" class="ge_373"/>
<path d="M27.5,32.1H0m972.1,0h27.5M27.5,1344.3H0m972.1,0h27.5M32.1,27.5V0m0,1348.9v27.5M967.5,27.5V0m0,1348.9v27.5" class="gf_373"/>
</svg>