<?xml version="1.0" encoding="UTF-8" standalone="no"?>
<!DOCTYPE svg PUBLIC "-//W3C//DTD SVG 1.1//EN"
"http://www.w3.org/Graphics/SVG/1.1/DTD/svg11.dtd">
<svg viewBox="0 0 999 1376" version="1.1" xmlns="http://www.w3.org/2000/svg" xmlns:xlink="http://www.w3.org/1999/xlink">
<defs>
<clipPath id="c0_23"><path d="M32.1,1344.3V32.1H967.5V1344.3Z"/></clipPath>
<clipPath id="c1_23"><path d="M215.6,775V682.3h99.2V775Z"/></clipPath>
<clipPath id="c2_23"><path d="M379.2,781.5V682.3h99.2v99.2Z"/></clipPath>
<clipPath id="c3_23"><path d="M542.8,781.5V682.3H642v99.2Z"/></clipPath>
<clipPath id="c4_23"><path d="M706.4,781.5V682.3h99.2v99.2Z"/></clipPath>
<clipPath id="c5_23"><path d="M216.2,1042.6V984.5h83.2v58.1Z"/></clipPath>
<clipPath id="c6_23"><path d="M755.5,1051.7V976.9h67.2v74.8Z"/></clipPath>
<clipPath id="c7_23"><path d="M354.4,1051V976.1h71.9V1051Z"/></clipPath>
<clipPath id="c8_23"><path d="M478.2,1043.3V986h83.3v57.3Z"/></clipPath>
<clipPath id="c9_23"><path d="M624.1,1049.4V977.6h60.3v71.8Z"/></clipPath>
<clipPath id="ca_23"><path d="M199.2,328.4l-6.5,-2.2L176.3,312.3V255.2h72v73.2Z"/></clipPath>
<clipPath id="cb_23"><path d="M208.1,917.4l-6.5,-2.1L185.2,901.4V844.3h72v73.1Z"/></clipPath>
<clipPath id="cc_23"><path d="M658.6,177V59h200V177Z"/></clipPath>
<style type="text/css"><![CDATA[
.g0_23{
fill: #FEFCF4;
}
.g1_23{
fill: #FFF;
}
.g2_23{
fill: none;
stroke: #6381B7;
stroke-width: 0.763;
}
.g3_23{
fill: none;
stroke: #949698;
stroke-width: 0.381;
}
.g4_23{
fill: #93BEDA;
}
.g5_23{
fill: #EFE9CC;
}
.g6_23{
fill: #6381B7;
}
.g7_23{
fill: none;
stroke: #6381B7;
stroke-width: 0.381;
stroke-dasharray: 2,1;
}
.g8_23{
fill: none;
stroke: #6381B7;
stroke-width: 0.381;
}
.g9_23{
fill: #FCE8B0;
}
.ga_23{
fill: #25408F;
}
.gb_23{
fill: #00BAF1;
}
.gc_23{
fill: #332D2C;
}
.gd_23{
fill: #D9DFF0;
}
.ge_23{
fill: #F27C85;
}
.gf_23{
fill: #7DD3F6;
}
.gg_23{
fill: #2E6E51;
}
.gh_23{
fill: #BCBEC0;
}
.gi_23{
fill: #EE314A;
}
.gj_23{
fill: none;
stroke: #FFF;
stroke-width: 1.909;
stroke-miterlimit: 10;
}
.gk_23{
fill: none;
stroke: #000;
stroke-width: 0.381;
stroke-miterlimit: 10;
}
]]></style>
</defs>
<path clip-path="url(#c0_23)" d="M-877.3,1344.3H45.1V32.1H-877.3V1344.3Z" class="g0_23"/>
<path d="M45.1,1344.3H967.5V32.1H45.1V1344.3Z" class="g0_23"/>
<path d="M172.1,225.1c0,0,-18.4,0,-18.4,18.4V817.9c0,0,0,18.3,18.4,18.3H849.2c0,0,18.3,0,18.3,-18.3V225.1Z" class="g1_23"/>
<path d="M172.1,225.1c0,0,-18.4,0,-18.4,18.4V817.9c0,0,0,18.3,18.4,18.3H849.2c0,0,18.3,0,18.3,-18.3V225.1H172.1Z" class="g2_23"/>
<path d="M205,449.1H325.5V349.9H205v99.2Z" class="g1_23"/>
<image preserveAspectRatio="none" x="216" y="350" width="99" height="99" xlink:href="img/1.jpg"/>
<path d="M205,449.1H325.5V349.9H205v99.2Z" class="g3_23"/>
<path d="M532.2,449.1H652.7V349.9H532.2v99.2Z" class="g1_23"/>
<image preserveAspectRatio="none" x="543" y="350" width="99" height="99" xlink:href="img/2.jpg"/>
<path d="M532.2,449.1H652.7V349.9H532.2v99.2Z" class="g3_23"/>
<path d="M368.6,449.1H489.1V349.9H368.6v99.2Z" class="g1_23"/>
<image preserveAspectRatio="none" x="379" y="350" width="99" height="99" xlink:href="img/3.jpg"/>
<path d="M368.6,449.1H489.1V349.9H368.6v99.2Z" class="g3_23"/>
<path d="M695.8,449.1H816.3V349.9H695.8v99.2Z" class="g1_23"/>
<image preserveAspectRatio="none" x="706" y="350" width="100" height="99" xlink:href="img/4.jpg"/>
<path d="M695.8,449.1H816.3V349.9H695.8v99.2Z" class="g3_23"/>
<path d="M205,625.2H325.5V526H205v99.2Z" class="g1_23"/>
<image preserveAspectRatio="none" x="216" y="526" width="99" height="99" xlink:href="img/5.jpg"/>
<path d="M205,625.2H325.5V526H205v99.2Z" class="g3_23"/>
<path d="M368.6,625.2H489.1V526H368.6v99.2Z" class="g1_23"/>
<image preserveAspectRatio="none" x="379" y="526" width="99" height="99" xlink:href="img/6.jpg"/>
<path d="M368.6,625.2H489.1V526H368.6v99.2Z" class="g3_23"/>
<path d="M532.2,625.2H652.7V526H532.2v99.2Z" class="g1_23"/>
<image preserveAspectRatio="none" x="543" y="526" width="99" height="99" xlink:href="img/7.jpg"/>
<path d="M532.2,625.2H652.7V526H532.2v99.2Z" class="g3_23"/>
<path d="M695.8,625.2H816.3V526H695.8v99.2Z" class="g1_23"/>
<image preserveAspectRatio="none" x="706" y="526" width="100" height="99" xlink:href="img/8.jpg"/>
<path d="M695.8,625.2H816.3V526H695.8v99.2Z" class="g3_23"/>
<path d="M205,781.5H325.5V682.3H205v99.2Z" class="g1_23"/>
<image clip-path="url(#c1_23)" preserveAspectRatio="none" x="216" y="681" width="99" height="94" xlink:href="img/9.jpg"/>
<path d="M205,781.5H325.5V682.3H205v99.2Z" class="g3_23"/>
<path d="M368.6,781.5H489.1V682.3H368.6v99.2Z" class="g1_23"/>
<image clip-path="url(#c2_23)" preserveAspectRatio="none" x="379" y="682" width="99" height="100" xlink:href="img/10.jpg"/>
<path d="M368.6,781.5H489.1V682.3H368.6v99.2Z" class="g3_23"/>
<path d="M532.2,781.5H652.7V682.3H532.2v99.2Z" class="g1_23"/>
<image clip-path="url(#c3_23)" preserveAspectRatio="none" x="543" y="682" width="99" height="100" xlink:href="img/11.jpg"/>
<path d="M532.2,781.5H652.7V682.3H532.2v99.2Z" class="g3_23"/>
<path d="M695.8,781.5H816.3V682.3H695.8v99.2Z" class="g1_23"/>
<image clip-path="url(#c4_23)" preserveAspectRatio="none" x="706" y="682" width="100" height="100" xlink:href="img/12.jpg"/>
<path d="M695.8,781.5H816.3V682.3H695.8v99.2Z" class="g3_23"/>
<path d="M166.7,932.2c0,0,-13,0,-13,13v233.1c0,0,0,12.9,13,12.9H854.5c0,0,13,0,13,-12.9V945.2c0,0,0,-13,-13,-13Z" class="g1_23"/>
<path d="M166.7,932.2c0,0,-13,0,-13,13v233.1c0,0,0,12.9,13,12.9H854.5c0,0,13,0,13,-12.9V945.2c0,0,0,-13,-13,-13H166.7Z" class="g2_23"/>
<path d="M652.2,1130.4c2,0,3.6,-1.6,3.6,-3.6c0,-2,-1.6,-3.6,-3.6,-3.6c-2,0,-3.6,1.6,-3.6,3.6c0,2,1.6,3.6,3.6,3.6Z" class="g4_23"/>
<path d="M521.5,1130.4c2,0,3.6,-1.6,3.6,-3.6c0,-2,-1.6,-3.6,-3.6,-3.6c-2,0,-3.6,1.6,-3.6,3.6c0,2,1.6,3.6,3.6,3.6Z" class="g4_23"/>
<path d="M390.8,1130.4c2,0,3.6,-1.6,3.6,-3.6c0,-2,-1.6,-3.6,-3.6,-3.6c-2,0,-3.6,1.6,-3.6,3.6c0,2,1.6,3.6,3.6,3.6Z" class="g4_23"/>
<path d="M783,1130.4c2,0,3.6,-1.6,3.6,-3.6c0,-2,-1.6,-3.6,-3.6,-3.6c-2,0,-3.6,1.6,-3.6,3.6c0,2,1.6,3.6,3.6,3.6Z" class="g4_23"/>
<path d="M260,1130.4c2,0,3.6,-1.6,3.6,-3.6c0,-2,-1.6,-3.6,-3.6,-3.6c-2,0,-3.6,1.6,-3.6,3.6c0,2,1.6,3.6,3.6,3.6Z" class="g4_23"/>
<path d="M218.3,1141.4c0,0,-8.6,0,-8.6,8.7v15.1c0,0,0,8.7,8.6,8.7h82.3c0,0,8.7,0,8.7,-8.7v-15.1c0,0,0,-8.7,-8.7,-8.7Z" class="g5_23"/>
<path d="M348.6,1141.4c0,0,-8.6,0,-8.6,8.7v15.1c0,0,0,8.7,8.6,8.7h82.3c0,0,8.7,0,8.7,-8.7v-15.1c0,0,0,-8.7,-8.7,-8.7Z" class="g5_23"/>
<path d="M478.9,1141.4c0,0,-8.6,0,-8.6,8.7v15.1c0,0,0,8.7,8.6,8.7h82.3c0,0,8.7,0,8.7,-8.7v-15.1c0,0,0,-8.7,-8.7,-8.7Z" class="g5_23"/>
<path d="M609.2,1141.4c0,0,-8.7,0,-8.7,8.7v15.1c0,0,0,8.7,8.7,8.7h82.3c0,0,8.6,0,8.6,-8.7v-15.1c0,0,0,-8.7,-8.6,-8.7Z" class="g5_23"/>
<path d="M739.5,1141.4c0,0,-8.7,0,-8.7,8.7v15.1c0,0,0,8.7,8.7,8.7h82.3c0,0,8.6,0,8.6,-8.7v-15.1c0,0,0,-8.7,-8.6,-8.7Z" class="g5_23"/>
<path d="M652.2,1063.3c2,0,3.6,-1.6,3.6,-3.6c0,-2,-1.6,-3.6,-3.6,-3.6c-2,0,-3.6,1.6,-3.6,3.6c0,2,1.6,3.6,3.6,3.6Z" class="g4_23"/>
<path d="M521.5,1063.3c2,0,3.6,-1.6,3.6,-3.6c0,-2,-1.6,-3.6,-3.6,-3.6c-2,0,-3.6,1.6,-3.6,3.6c0,2,1.6,3.6,3.6,3.6Z" class="g4_23"/>
<path d="M390.8,1063.3c2,0,3.6,-1.6,3.6,-3.6c0,-2,-1.6,-3.6,-3.6,-3.6c-2,0,-3.6,1.6,-3.6,3.6c0,2,1.6,3.6,3.6,3.6Z" class="g4_23"/>
<path d="M783,1063.3c2,0,3.6,-1.6,3.6,-3.6c0,-2,-1.6,-3.6,-3.6,-3.6c-2,0,-3.6,1.6,-3.6,3.6c0,2,1.6,3.6,3.6,3.6Z" class="g4_23"/>
<path d="M260,1063.3c2,0,3.6,-1.6,3.6,-3.6c0,-2,-1.6,-3.6,-3.6,-3.6c-2,0,-3.6,1.6,-3.6,3.6c0,2,1.6,3.6,3.6,3.6Z" class="g4_23"/>
<image clip-path="url(#c5_23)" preserveAspectRatio="none" x="216" y="974" width="83" height="69" xlink:href="img/13.jpg"/>
<image clip-path="url(#c6_23)" preserveAspectRatio="none" x="747" y="977" width="75" height="75" xlink:href="img/14.jpg"/>
<image clip-path="url(#c7_23)" preserveAspectRatio="none" x="348" y="974" width="78" height="77" xlink:href="img/15.jpg"/>
<image clip-path="url(#c8_23)" preserveAspectRatio="none" x="479" y="974" width="82" height="71" xlink:href="img/16.jpg"/>
<image clip-path="url(#c9_23)" preserveAspectRatio="none" x="612" y="976" width="72" height="73" xlink:href="img/17.jpg"/>
<path d="M622.4,1206.9c0,0,-4.3,0,-4.3,4.3v10.9c0,0,0,4.3,4.3,4.3h30.3c0,0,4.4,0,4.4,-4.3v-10.9c0,0,0,-4.3,-4.4,-4.3Z" class="g6_23"/>
<path d="M609.3,1199.4v34.9m1.3,1H867.8m.9,-1.4V1199m-1.3,-.9H610.2" class="g7_23"/>
<path d="M609.3,1234.7v.6h.5m258.3,0h.6v-.6m0,-36.1v-.5h-.6m-258.3,0h-.5v.5" class="g8_23"/>
<path d="M231.8,283.4c0,0,-13,0,-13,13V318c0,0,0,13,13,13h602c0,0,13,0,13,-13V296.4c0,0,0,-13,-13,-13Z" class="g9_23"/>
<image clip-path="url(#ca_23)" preserveAspectRatio="none" x="175" y="254" width="75" height="76" xlink:href="img/18.png"/>
<path d="M226.6,323.6c0,0,-26.9,11.4,-51.1,-12.7c0,0,15.1,25.3,49.3,24c0,0,24.7,.3,20.2,-10.2c0,0,1.2,-4.4,-18.4,-1.1Z" class="g9_23"/>
<path d="M240.7,872.5c0,0,-13,0,-13,12.9v21.7c0,0,0,13,13,13H854.2c0,0,12.9,0,12.9,-13V885.4c0,0,0,-12.9,-12.9,-12.9Z" class="g9_23"/>
<image clip-path="url(#cb_23)" preserveAspectRatio="none" x="184" y="843" width="75" height="76" xlink:href="img/19.png"/>
<path d="M235.5,912.7c0,0,-26.8,11.3,-51.1,-12.7c0,0,15.2,25.3,49.3,23.9c0,0,24.8,.4,20.3,-10.1c0,0,1.2,-4.4,-18.5,-1.1Z" class="g9_23"/>
<path d="M153.3,213.7v22.2L165,246.2V224Z" class="ga_23"/>
<path d="M153.3,196.9v39H851.1c0,0,16.8,0,16.8,-16.8v-5.4c0,0,0,-16.8,-16.8,-16.8Z" class="g6_23"/>
<path d="M211.3,208.3l-6.5,-6.5L183.6,223l6.5,6.5Z" class="gb_23"/>
<path d="M190.1,230.1c.1,0,.3,-.1,.4,-.2l21.2,-21.2c.1,-.1,.1,-.2,.1,-.4c0,-.1,0,-.3,-.1,-.3l-6.5,-6.5c-.2,-.2,-.6,-.2,-.8,0l-21.2,21.2c-.1,.1,-.1,.2,-.1,.3c0,.2,0,.3,.1,.4l6.5,6.5c.1,.1,.3,.2,.4,.2m20.5,-21.8l-20.5,20.5L184.3,223l20.5,-20.4Z" class="gc_23"/>
<path d="M211.3,208.3l-6.5,-6.5l2.1,-2.1l6.5,6.5Z" class="gd_23"/>
<path d="M211.3,208.8c.1,0,.3,0,.4,-.1l2.1,-2.1c.1,-.1,.2,-.3,.2,-.4c0,-.2,-.1,-.3,-.2,-.4l-6.5,-6.5c-.2,-.2,-.5,-.2,-.7,0l-2.2,2.2c-.1,.1,-.1,.2,-.1,.3c0,.2,0,.3,.1,.4l6.5,6.5c.1,.1,.3,.1,.4,.1m1.4,-2.6l-1.4,1.4l-5.7,-5.8l1.3,-1.4Z" class="gc_23"/>
<path d="M217,202.6l-6.4,-6.5l-3.7,3.6l6.5,6.5Z" class="ge_23"/>
<path d="M213.4,206.7c.2,0,.3,0,.4,-.1l3.6,-3.7c.2,-.2,.2,-.5,0,-.7l-6.5,-6.5c-.2,-.2,-.5,-.2,-.7,0l-3.6,3.6c-.2,.2,-.2,.6,0,.8l6.5,6.5c.1,.1,.2,.1,.3,.1m2.9,-4.1l-2.9,2.8l-5.7,-5.7l2.9,-2.9Z" class="gc_23"/>
<path d="M179,234.2L183.6,223l6.5,6.5Z" class="g1_23"/>
<path d="M179,234.7c0,0,.1,0,.2,-.1L190.3,230c.2,0,.3,-.2,.3,-.4c0,-.1,0,-.3,-.1,-.4L184,222.7c-.1,-.2,-.3,-.2,-.5,-.2c-.2,.1,-.3,.2,-.4,.3L178.5,234c-.1,.2,0,.4,.1,.5c.1,.1,.2,.2,.4,.2m10.2,-5.4l-9.3,3.9l3.9,-9.2Z" class="gc_23"/>
<path d="M179,234.2l2.2,-5.4l3.1,3.1Z" class="gc_23"/>
<path d="M179,234.7c0,0,.1,0,.2,-.1l5.3,-2.2c.2,-.1,.3,-.2,.4,-.4c0,-.1,-.1,-.3,-.2,-.4l-3.1,-3.2c-.1,-.1,-.3,-.2,-.5,-.1c-.2,0,-.3,.1,-.4,.3l-2.2,5.4c-.1,.2,0,.4,.1,.5c.1,.1,.2,.2,.4,.2m4.4,-3l-3.5,1.5l1.5,-3.5Z" class="gc_23"/>
<path d="M209.5,206.6l-2.9,-3l-21.2,21.2l2.9,3Z" class="gf_23"/>
<path d="M188.3,228.3c.2,0,.3,-.1,.4,-.2l21.2,-21.2c.1,-.1,.2,-.2,.2,-.3c0,-.2,-.1,-.3,-.2,-.4l-3,-3c-.2,-.2,-.5,-.2,-.7,0L185,224.4c-.1,.1,-.2,.3,-.2,.4c0,.1,.1,.3,.2,.4l3,2.9c.1,.1,.2,.2,.3,.2m20.5,-21.7L188.3,227l-2.2,-2.2l20.5,-20.5Z" class="gc_23"/>
<path d="M32.1,179.3H967.5V32.1H32.1V179.3Z" class="gg_23"/>
<g clip-path="url(#c0_23)">
<path d="M967.5,177.2H-877.3v-5.4h736.6c43.1,0,53.1,-37.9,115.3,-37.9H967.5Z" class="gh_23"/>
<path d="M967.5,183.7H-877.3v-9.8h736.6c43.1,0,53.1,-33.6,115.3,-33.6H967.5Z" class="gi_23"/>
</g>
<image clip-path="url(#cc_23)" preserveAspectRatio="none" x="659" y="59" width="200" height="118" xlink:href="img/20.png"/>
<path d="M32.1,45.1H9.2m958.3,0h22.9M32.1,1331.3H9.2m958.3,0h22.9M45.1,32.1V9.2m0,1335.1v22.9M954.5,32.1V9.2m0,1335.1v22.9" class="gj_23"/>
<path d="M32.1,45.1H9.2m958.3,0h22.9M32.1,1331.3H9.2m958.3,0h22.9M45.1,32.1V9.2m0,1335.1v22.9M954.5,32.1V9.2m0,1335.1v22.9" class="gk_23"/>
<path d="M27.5,32.1H0m972.1,0h27.5M27.5,1344.3H0m972.1,0h27.5M32.1,27.5V0m0,1348.9v27.5M967.5,27.5V0m0,1348.9v27.5" class="gj_23"/>
<path d="M27.5,32.1H0m972.1,0h27.5M27.5,1344.3H0m972.1,0h27.5M32.1,27.5V0m0,1348.9v27.5M967.5,27.5V0m0,1348.9v27.5" class="gk_23"/>
</svg>