<?xml version="1.0" encoding="UTF-8" standalone="no"?>
<!DOCTYPE svg PUBLIC "-//W3C//DTD SVG 1.1//EN"
"http://www.w3.org/Graphics/SVG/1.1/DTD/svg11.dtd">
<svg viewBox="0 0 999 1376" version="1.1" xmlns="http://www.w3.org/2000/svg" xmlns:xlink="http://www.w3.org/1999/xlink">
<defs>
<clipPath id="c0_190"><path d="M32.1,1344.3V32.1H967.5V1344.3Z"/></clipPath>
<clipPath id="c1_190"><path d="M677,762.2V523H896.5V762.2Z"/></clipPath>
<clipPath id="c2_190"><path d="M671.3,772.2V517h231V772.2Z"/></clipPath>
<clipPath id="c3_190"><path d="M671,771.9V516.7H902V771.9Z"/></clipPath>
<clipPath id="c4_190"><path d="M676.5,1008.1V797.4H889.3v210.7Z"/></clipPath>
<clipPath id="c5_190"><path d="M670.2,1014.8V791.5H894.6v223.3Z"/></clipPath>
<clipPath id="c6_190"><path d="M669.9,1014.5V791.2H894.3v223.3Z"/></clipPath>
<clipPath id="c7_190"><path d="M173.1,523.8l-6.5,-2.1L150.3,507.8V450.7h71.9v73.1Z"/></clipPath>
<clipPath id="c8_190"><path d="M179.1,1103.8l-6.5,-2.1l-16.4,-13.9v-57.1h71.9v73.1Z"/></clipPath>
<clipPath id="c9_190"><path d="M764.8,418V405.6h14.5V418Z"/></clipPath>
<clipPath id="ca_190"><path d="M774.6,539.7c-.3,-.1,3.5,-8.3,3.5,-8.3l.8,.5c0,0,-4,7.8,-4.3,7.8Z"/></clipPath>
<clipPath id="cb_190"><path d="M782.1,531.9c0,0,-6.9,-1.1,-7.6,-5.2c-.6,-3.6,1.5,-3.8,2.1,-3.8q.1,0,.1,0L785,510.1l-1.4,-3c0,0,-.6,-1.2,.1,-2.1c0,-.1,.2,-.1,.3,-.1c2.1,0,12.9,5.5,12.9,5.5l.1,.2c-.3,.5,-.7,1.1,-1.4,1.6c-.6,.5,-5.1,1.2,-5.1,1.2l-8.4,18.5Z"/></clipPath>
<clipPath id="cc_190"><path d="M781.7,531.6c.2,-.5,.2,-1.8,0,-2.3v-1.4c-1.6,-.5,-2.9,-1.2,-3.7,-2.5c-1.1,.6,-2.1,1.2,-3.1,1.9c1.5,2.1,3.8,3.5,6.8,4.3Zm0,-3.9c2.2,-4.6,4,-9.5,6.1,-14.1c-.9,-.4,-1.8,-1.3,-2.6,-1.4c-2.3,4.3,-4.6,8.7,-7,12.8c.7,1.4,2.1,2,3.5,2.7Zm-7.3,12c1,-2.9,2.4,-5.4,3.5,-8.3c-2,-1.5,-3.9,-3.1,-4.4,-6.1v-1.5c0,-2.7,1.9,-3.4,4.6,-3.4c0,0,.1,0,.2,0c1.9,-3.3,4.2,-6.4,6.1,-9.7c-.5,-.8,-1.1,-2.4,-.8,-3.6c.5,1.2,1.6,1.9,2.3,2.9c-.1,.5,-.2,1.1,-.3,1.7c.6,.7,1.3,1.2,2.4,1.4c.4,-.4,.5,-1.2,1.1,-1.5c.9,.3,1.8,.7,3.1,.7c.2,.1,.5,.2,.8,.2c.4,0,.7,-.1,.9,-.2c.1,.1,.2,.1,.3,.1c.2,0,.4,-.1,.6,-.1c.2,-.1,.3,-.2,.5,-.2c.1,0,.2,0,.3,.1c-1.3,.7,-2.2,1.8,-4.2,1.8c-.1,0,-.2,0,-.3,0c-.9,3.7,-1.9,7.3,-2.6,11.2c.5,1,1.5,1.7,1.2,3.1c-.5,2.7,-3.8,4.4,-7.2,4.4c-1.3,0,-2.5,-.2,-3.6,-.8c-1,2.1,-2.1,4.2,-3.3,6.1c0,-.4,.3,-.4,.3,-.8c.9,-1.8,1.9,-3.6,2.6,-5.6c-1,1.7,-1.8,3.7,-2.7,5.5c-.2,.4,-.5,.8,-.7,1.3c-.3,.4,-.3,1.1,-.7,1.3Z"/></clipPath>
<clipPath id="cd_190"><path d="M792.1,512c-4.8,0,-13.1,-7.3,-5.5,-8.8h1.2c.2,0,.5,0,.7,0c.3,0,.7,0,1.1,.1c3.1,.6,8.2,3.8,7.5,7c-.2,1.2,-1.5,1.6,-3.1,1.7h-1.9Z"/></clipPath>
<clipPath id="ce_190"><path d="M774.6,793.7c-.3,-.1,3.5,-8.2,3.5,-8.2l.8,.5c0,0,-4,7.7,-4.3,7.7Z"/></clipPath>
<clipPath id="cf_190"><path d="M782.1,785.9c0,0,-6.9,-1.1,-7.6,-5.2c-.6,-3.6,1.5,-3.8,2.1,-3.8q.1,0,.1,0L785,764.2l-1.4,-3.1c0,0,-.6,-1.1,.1,-2.1c0,-.1,.2,-.1,.3,-.1c2.1,0,12.9,5.5,12.9,5.5l.1,.2c-.3,.5,-.7,1.1,-1.4,1.6c-.6,.5,-5.1,1.2,-5.1,1.2l-8.4,18.5Z"/></clipPath>
<clipPath id="cg_190"><path d="M781.7,785.6c.2,-.5,.2,-1.8,0,-2.3v-1.4c-1.6,-.5,-2.9,-1.2,-3.7,-2.5c-1.1,.6,-2.1,1.3,-3.1,1.9c1.5,2.1,3.8,3.6,6.8,4.3Zm0,-3.9c2.2,-4.6,4,-9.5,6.1,-14.1c-.9,-.4,-1.8,-1.3,-2.6,-1.4c-2.3,4.4,-4.6,8.7,-7,12.9c.7,1.3,2.1,2,3.5,2.6Zm-7.3,12.1c1,-2.9,2.4,-5.5,3.5,-8.3c-2,-1.6,-3.9,-3.2,-4.4,-6.2v-1.5c0,-2.7,1.9,-3.4,4.6,-3.4q.1,0,.2,0c1.9,-3.3,4.2,-6.3,6.1,-9.7c-.5,-.8,-1.1,-2.3,-.8,-3.6c.5,1.2,1.6,1.9,2.3,2.9c-.1,.6,-.2,1.1,-.3,1.7c.6,.7,1.3,1.2,2.4,1.4c.4,-.4,.5,-1.2,1.1,-1.5c.9,.4,1.8,.8,3.1,.8c.2,.1,.5,.1,.8,.1c.4,0,.7,0,.9,-.1c.1,0,.2,0,.3,0c.2,0,.4,-.1,.6,-.1c.2,-.1,.3,-.2,.5,-.2c.1,0,.2,.1,.3,.1c-1.3,.7,-2.2,1.8,-4.1,1.8c-.2,0,-.3,0,-.4,0c-.9,3.7,-1.9,7.4,-2.6,11.2c.5,1,1.5,1.7,1.2,3.1c-.5,2.8,-3.8,4.4,-7.2,4.4c-1.2,0,-2.5,-.2,-3.6,-.7c-1,2.1,-2.1,4.1,-3.3,6c0,-.4,.3,-.4,.3,-.8c.9,-1.8,1.9,-3.5,2.6,-5.6c-1,1.7,-1.8,3.7,-2.7,5.5c-.2,.4,-.5,.9,-.7,1.3c-.3,.4,-.3,1.1,-.7,1.4Z"/></clipPath>
<clipPath id="ch_190"><path d="M792.1,766c-4.8,0,-13.1,-7.3,-5.5,-8.8h1.2c.2,0,.4,0,.6,0c0,0,.1,0,.1,0q.1,0,.2,0c.3,0,.6,0,.9,.1c3.1,.7,8.2,3.8,7.5,7.1c-.2,1.1,-1.5,1.5,-3.1,1.6h-1.9Z"/></clipPath>
<clipPath id="ci_190"><path d="M125.5,386.7V205.8H858.6V386.7Z"/></clipPath>
<style type="text/css"><![CDATA[
.g0_190{
fill: #FEFCF4;
}
.g1_190{
fill: #FFF;
}
.g2_190{
fill: none;
stroke: #6381B7;
stroke-width: 0.763;
}
.g3_190{
fill: #F7C2D9;
}
.g4_190{
fill: #FDF4F3;
}
.g5_190{
fill: #EC008C;
}
.g6_190{
fill: none;
stroke: #818385;
stroke-width: 0.305;
stroke-dasharray: 4,4;
}
.g7_190{
fill: none;
stroke: #818385;
stroke-width: 0.305;
stroke-dasharray: 3,3;
}
.g8_190{
fill: none;
stroke: #818385;
stroke-width: 0.305;
}
.g9_190{
fill: none;
stroke: #949698;
stroke-width: 0.305;
stroke-dasharray: 4,4;
}
.ga_190{
fill: #6D6F71;
}
.gb_190{
fill: #6381B7;
}
.gc_190{
fill: none;
stroke: #6381B7;
stroke-width: 0.381;
stroke-dasharray: 2,1;
}
.gd_190{
fill: none;
stroke: #6381B7;
stroke-width: 0.381;
}
.ge_190{
fill: #FCE8B0;
}
.gf_190{
fill: #25408F;
}
.gg_190{
fill: #A8AAAD;
}
.gh_190{
fill: none;
stroke: #949698;
stroke-width: 0.549;
}
.gi_190{
fill: none;
stroke: #BCBEC0;
stroke-width: 2.566;
}
.gj_190{
fill: #231F20;
}
.gk_190{
fill: #363637;
}
.gl_190{
fill: #5CC4BE;
}
.gm_190{
fill: #EAD646;
}
.gn_190{
fill: #2E6E51;
}
.go_190{
fill: none;
stroke: #FFF;
stroke-width: 0.152;
stroke-miterlimit: 1;
}
.gp_190{
fill: #BCBEC0;
}
.gq_190{
fill: #EE314A;
}
.gr_190{
fill: #CEEDFB;
}
.gs_190{
fill: #27639D;
}
.gt_190{
fill: none;
stroke: #C3E7F1;
stroke-width: 1.527;
}
.gu_190{
fill: none;
stroke: #FFF;
stroke-width: 1.909;
stroke-miterlimit: 10;
}
.gv_190{
fill: none;
stroke: #000;
stroke-width: 0.381;
stroke-miterlimit: 10;
}
]]></style>
</defs>
<path d="M32.1,1344.3H954.5V32.1H32.1V1344.3Z" class="g0_190"/>
<path clip-path="url(#c0_190)" d="M954.5,1344.3H1877V32.1H954.5V1344.3Z" class="g0_190"/>
<path d="M150.4,423.1c0,0,-18.3,0,-18.3,18.4V984.4c0,0,0,18.3,18.3,18.3H827.5c0,0,18.4,0,18.4,-18.3V423.1Z" class="g1_190"/>
<path d="M150.4,423.1c0,0,-18.3,0,-18.3,18.4V984.4c0,0,0,18.3,18.3,18.3H827.5c0,0,18.4,0,18.4,-18.3V423.1H150.4Z" class="g2_190"/>
<image clip-path="url(#c1_190)" preserveAspectRatio="none" x="677" y="523" width="219" height="240" xlink:href="img/1.png"/>
<path d="M682.1,530.2l3.4,225.5l204.8,-.9l-1.9,-227Z" class="g3_190"/>
<image clip-path="url(#c2_190)" preserveAspectRatio="none" x="671" y="517" width="231" height="256" xlink:href="img/2.png"/>
<image clip-path="url(#c3_190)" preserveAspectRatio="none" x="671" y="517" width="230" height="255" xlink:href="img/3.png"/>
<path d="M675.7,536.2l17.7,229.7L865.3,753.4l30.4,-27.8l-15,-204.1Z" class="g4_190"/>
<path d="M865.1,754.6l31.2,-29.1l-28.5,-.4Z" class="g5_190"/>
<path d="M442.3,577.5c18.9,-.7,34.2,-5.6,37.8,-12m-.9,-7c-4.9,-6,-20.1,-10.4,-38.4,-10.9m-7.6,.1c-18.9,.7,-34.2,5.6,-37.8,12" class="g6_190"/>
<path d="M396.4,566.6c6.2,6.4,26.3,10.3,38.3,10.9" class="g7_190"/>
<path d="M480.7,564.1c.1,-.5,.2,-1,.2,-1.5c0,-.5,-.1,-1,-.2,-1.5M439.2,547.6c-.5,0,-1,0,-1.5,0c-.5,0,-1,0,-1.5,0m-41.4,13.5c-.2,.5,-.2,1,-.2,1.5c0,.5,.1,1,.2,1.5m41.4,13.5c.5,0,1,0,1.5,0c.5,0,1,0,1.5,0" class="g8_190"/>
<path d="M459.6,547.4c0,0,99.2,-20,223.7,-1.6" class="g9_190"/>
<path d="M677.3,540.9l-.8,8.8l11.7,-3.4Z" class="ga_190"/>
<image clip-path="url(#c4_190)" preserveAspectRatio="none" x="676" y="798" width="213" height="210" xlink:href="img/4.png"/>
<path d="M681.7,803.3l.8,198.2l200.7,-.3l-.4,-198.5Z" class="g3_190"/>
<image clip-path="url(#c5_190)" preserveAspectRatio="none" x="670" y="792" width="225" height="223" xlink:href="img/5.png"/>
<image clip-path="url(#c6_190)" preserveAspectRatio="none" x="669" y="791" width="225" height="224" xlink:href="img/6.png"/>
<path d="M674.6,810.6l14.6,197.7L856.7,996L888,969L875.1,796Z" class="g4_190"/>
<path d="M856,996.4L888.2,969l-28.4,-1.4Z" class="g5_190"/>
<path d="M531.7,949.5c9.1,-1.2,16.2,-6,18,-12.1m-.6,-7.4c-2.5,-5.6,-9.9,-9.9,-18.9,-10.7m-7.6,.1c-9,1.2,-16.1,6,-17.9,12.1m.5,7.4c2.6,5.7,10,10,19,10.7" class="g6_190"/>
<path d="M550,936c0,-.5,.1,-1,.1,-1.5c0,-.6,-.1,-1.1,-.1,-1.6M528.7,919.2c-.5,-.1,-1,-.1,-1.5,-.1c-.5,0,-1,0,-1.5,.1m-21.3,13.7c-.1,.5,-.1,1,-.1,1.6c0,.5,0,1,.1,1.5m21.3,13.7c.5,.1,1,.1,1.5,.1c.5,0,1,0,1.5,-.1" class="g8_190"/>
<path d="M549.5,928.9c0,0,84.9,6,127.3,-77.1" class="g9_190"/>
<path d="M671.8,851.2l7.6,4.4l1.9,-12Z" class="ga_190"/>
<path d="M145.1,1018.6c0,0,-13,0,-13,13v142.7c0,0,0,13,13,13H832.9c0,0,13,0,13,-13V1031.6c0,0,0,-13,-13,-13Z" class="g1_190"/>
<path d="M145.1,1018.6c0,0,-13,0,-13,13v142.7c0,0,0,13,13,13H832.9c0,0,13,0,13,-13V1031.6c0,0,0,-13,-13,-13H145.1Z" class="g2_190"/>
<path d="M418.5,1204.5c0,0,-4.4,0,-4.4,4.3v10.9c0,0,0,4.3,4.4,4.3h30.3c0,0,4.3,0,4.3,-4.3v-10.9c0,0,0,-4.3,-4.3,-4.3Z" class="gb_190"/>
<path d="M405.3,1197v34.9m1.3,1H845.1m1,-1.4v-34.9m-1.4,-.9H406.2" class="gc_190"/>
<path d="M405.3,1232.3v.6h.5m439.7,0h.6v-.6m0,-36.1v-.5h-.6m-439.7,0h-.5v.5" class="gd_190"/>
<path d="M205.8,452.8c0,0,-13,0,-13,13v47.7c0,0,0,12.9,13,12.9H807.7c0,0,13,0,13,-12.9V465.8c0,0,0,-13,-13,-13Z" class="ge_190"/>
<image clip-path="url(#c7_190)" preserveAspectRatio="none" x="149" y="449" width="75" height="76" xlink:href="img/7.png"/>
<path d="M200.6,519.1c0,0,-26.9,11.3,-51.1,-12.8c0,0,15.1,25.3,49.3,24c0,0,24.7,.3,20.2,-10.1c0,0,1.2,-4.5,-18.4,-1.1Z" class="ge_190"/>
<path d="M211.7,1058.8c0,0,-13,0,-13,13v21.7c0,0,0,13,13,13H813.6c0,0,13,0,13,-13v-21.7c0,0,0,-13,-13,-13Z" class="ge_190"/>
<image clip-path="url(#c8_190)" preserveAspectRatio="none" x="155" y="1029" width="75" height="76" xlink:href="img/8.png"/>
<path d="M206.5,1099.1c0,0,-26.9,11.3,-51.1,-12.7c0,0,15.1,25.3,49.3,23.9c0,0,24.7,.4,20.2,-10.1c0,0,1.2,-4.5,-18.4,-1.1Z" class="ge_190"/>
<path d="M131.7,397.4v39l11.7,10.3V402.5Z" class="gf_190"/>
<path d="M131.7,397.4v39H829.5c0,0,16.8,0,16.8,-16.8v-5.4c0,0,0,-16.8,-16.8,-16.8Z" class="gb_190"/>
<path d="M781,431c8.2,0,14.8,-6.5,14.8,-14.5c0,-8,-6.6,-14.5,-14.8,-14.5c-8.3,0,-14.9,6.5,-14.9,14.5c0,8,6.6,14.5,14.9,14.5Z" class="gg_190"/>
<path d="M781,431c8.2,0,14.8,-6.5,14.8,-14.5c0,-8,-6.6,-14.5,-14.8,-14.5c-8.3,0,-14.9,6.5,-14.9,14.5c0,8,6.6,14.5,14.9,14.5Z" class="gh_190"/>
<path d="M781,421.9c3,0,5.4,-2.4,5.4,-5.4c0,-2.9,-2.4,-5.3,-5.4,-5.3c-3.1,0,-5.5,2.4,-5.5,5.3c0,3,2.4,5.4,5.5,5.4Z" class="g1_190"/>
<path d="M781,421.9c3,0,5.4,-2.4,5.4,-5.4c0,-2.9,-2.4,-5.3,-5.4,-5.3c-3.1,0,-5.5,2.4,-5.5,5.3c0,3,2.4,5.4,5.5,5.4Z" class="gi_190"/>
<g clip-path="url(#c9_190)" opacity="0.3">
<path d="M766.4,415.8c0,0,-.1,-4.9,3.6,-8.7l7.8,6.7c0,0,-1,1,-1.1,2.7Z" class="g1_190"/>
</g>
<path d="M785.6,416.4c0,0,-3.5,0,-3.5,3.5v8.7c0,0,0,3.4,3.5,3.4H829c0,0,3.5,0,3.5,-3.4v-8.7c0,0,0,-3.5,-3.5,-3.5Z" class="gj_190"/>
<path d="M169.5,407.5c0,-8.3,-6.7,-15.1,-15,-15.1c-8.4,0,-15.1,6.8,-15.1,15.1c0,8.3,6.8,15,15.1,15c.8,0,1.6,0,2.4,-.2l4.5,5.3v-6.8c4.8,-2.5,8.1,-7.5,8.1,-13.3Z" class="g1_190"/>
<path d="M161.8,428.8l-5.1,-6c-.7,.1,-1.5,.2,-2.2,.2c-8.6,0,-15.6,-7,-15.6,-15.5c0,-8.6,7,-15.5,15.6,-15.5c8.5,0,15.5,6.9,15.5,15.5c0,5.7,-3.1,10.9,-8.2,13.6Zm-4.7,-7l3.8,4.5v-5.7l.3,-.2c4.8,-2.5,7.9,-7.4,7.9,-12.9c0,-8.1,-6.6,-14.6,-14.6,-14.6c-8.1,0,-14.6,6.5,-14.6,14.6c0,8,6.5,14.6,14.6,14.6c.7,0,1.5,-.1,2.3,-.2Z" class="gk_190"/>
<path d="M147.4,407c.8,0,1.5,.7,1.5,1.5c0,.8,-.7,1.4,-1.5,1.4c-.7,0,-1.4,-.6,-1.4,-1.4c0,-.8,.7,-1.5,1.4,-1.5Z" class="gl_190"/>
<path d="M147.4,410.4c-1,0,-1.8,-.9,-1.8,-1.9c0,-1.1,.8,-1.9,1.8,-1.9c1.1,0,1.9,.8,1.9,1.9c0,1,-.8,1.9,-1.9,1.9m0,-2.9c-.5,0,-.9,.4,-.9,1c0,.5,.4,1,.9,1c.6,0,1,-.5,1,-1c0,-.6,-.4,-1,-1,-1Z" class="gk_190"/>
<path d="M154.5,407c.8,0,1.4,.7,1.4,1.5c0,.8,-.6,1.4,-1.4,1.4c-.8,0,-1.5,-.6,-1.5,-1.4c0,-.8,.7,-1.5,1.5,-1.5Z" class="gl_190"/>
<path d="M154.5,410.4c-1.1,0,-1.9,-.9,-1.9,-1.9c0,-1.1,.8,-1.9,1.9,-1.9c1,0,1.9,.8,1.9,1.9c0,1,-.9,1.9,-1.9,1.9m0,-2.9c-.6,0,-1,.4,-1,1c0,.5,.4,1,1,1c.5,0,.9,-.5,.9,-1c0,-.6,-.4,-1,-.9,-1Z" class="gk_190"/>
<path d="M161.5,407c.8,0,1.4,.7,1.4,1.5c0,.8,-.6,1.4,-1.4,1.4c-.8,0,-1.5,-.6,-1.5,-1.4c0,-.8,.7,-1.5,1.5,-1.5Z" class="gl_190"/>
<path d="M161.5,410.4c-1.1,0,-1.9,-.9,-1.9,-1.9c0,-1.1,.8,-1.9,1.9,-1.9c1,0,1.9,.8,1.9,1.9c0,1,-.9,1.9,-1.9,1.9m0,-2.9c-.6,0,-1,.4,-1,1c0,.5,.4,1,1,1c.5,0,1,-.5,1,-1c0,-.6,-.5,-1,-1,-1Z" class="gk_190"/>
<path d="M163.4,421.7c0,-9.7,7.9,-17.6,17.6,-17.6c9.7,0,17.6,7.9,17.6,17.6c0,9.7,-7.9,17.6,-17.6,17.6c-.9,0,-1.9,-.1,-2.8,-.2l-5.3,6.1v-7.8c-5.6,-3,-9.5,-8.9,-9.5,-15.7Z" class="gm_190"/>
<path d="M172.9,445.7c0,0,-.1,0,-.1,-.1c-.2,0,-.3,-.2,-.3,-.4v-7.6c-5.9,-3.1,-9.6,-9.2,-9.6,-15.9c0,-10,8.2,-18.1,18.1,-18.1c10,0,18.1,8.1,18.1,18.1c0,10,-8.1,18.1,-18.1,18.1c-.8,0,-1.7,-.1,-2.6,-.2l-5.1,5.9c-.1,.1,-.2,.2,-.4,.2M181,404.6c-9.4,0,-17.1,7.7,-17.1,17.1c0,6.5,3.5,12.3,9.2,15.3c.2,0,.3,.2,.3,.4V444l4.4,-5.2c.1,-.1,.3,-.2,.5,-.1c.9,.1,1.8,.2,2.7,.2c9.5,0,17.2,-7.7,17.2,-17.2c0,-9.4,-7.7,-17.1,-17.2,-17.1Z" class="gk_190"/>
<path d="M189.2,421.2c.9,0,1.7,.8,1.7,1.7c0,.9,-.8,1.7,-1.7,1.7c-.9,0,-1.7,-.8,-1.7,-1.7c0,-.9,.8,-1.7,1.7,-1.7Z" class="g1_190"/>
<path d="M189.2,425c-1.2,0,-2.1,-.9,-2.1,-2.1c0,-1.2,.9,-2.1,2.1,-2.1c1.2,0,2.1,.9,2.1,2.1c0,1.2,-.9,2.1,-2.1,2.1m0,-3.3c-.7,0,-1.2,.5,-1.2,1.2c0,.7,.5,1.2,1.2,1.2c.7,0,1.2,-.5,1.2,-1.2c0,-.7,-.5,-1.2,-1.2,-1.2Z" class="gk_190"/>
<path d="M181,421.2c.9,0,1.7,.8,1.7,1.7c0,.9,-.8,1.7,-1.7,1.7c-.9,0,-1.7,-.8,-1.7,-1.7c0,-.9,.8,-1.7,1.7,-1.7Z" class="g1_190"/>
<path d="M181,425c-1.2,0,-2.1,-.9,-2.1,-2.1c0,-1.2,.9,-2.1,2.1,-2.1c1.2,0,2.1,.9,2.1,2.1c0,1.2,-.9,2.1,-2.1,2.1m0,-3.3c-.7,0,-1.2,.5,-1.2,1.2c0,.7,.5,1.2,1.2,1.2c.7,0,1.2,-.5,1.2,-1.2c0,-.7,-.5,-1.2,-1.2,-1.2Z" class="gk_190"/>
<path d="M172.8,421.2c.9,0,1.7,.8,1.7,1.7c0,.9,-.8,1.7,-1.7,1.7c-.9,0,-1.7,-.8,-1.7,-1.7c0,-.9,.8,-1.7,1.7,-1.7Z" class="g1_190"/>
<path d="M172.8,425c-1.2,0,-2.1,-.9,-2.1,-2.1c0,-1.2,.9,-2.1,2.1,-2.1c1.2,0,2.1,.9,2.1,2.1c0,1.2,-.9,2.1,-2.1,2.1m0,-3.3c-.7,0,-1.2,.5,-1.2,1.2c0,.7,.5,1.2,1.2,1.2c.7,0,1.2,-.5,1.2,-1.2c0,-.7,-.5,-1.2,-1.2,-1.2Z" class="gk_190"/>
<path d="M32.1,179.3H967.5V32.1H32.1V179.3Z" class="gn_190"/>
<path d="M262.3,134H247.1l1.2,1.2h11.8v8.2L258.5,142c.2,-.6,.3,-1.3,.3,-1.9c0,-.8,-.2,-1.6,-.6,-2.2c-.3,-.5,-.6,-.9,-1,-1.2c-.5,-.3,-.9,-.6,-1.4,-.7c-.3,-.1,-.6,-.2,-.9,-.2c-.7,0,-1.3,.2,-2,.7c-.3,.2,-.5,.5,-.7,.8c-.1,.3,-.2,.6,-.2,.9c0,.4,0,.7,.2,.9c.3,.5,.7,.7,1.2,.8c.6,.1,1.1,0,1.5,-.3c.2,-.2,.4,-.4,.6,-.6c.1,-.3,.2,-.5,.2,-.8c0,-.3,-.1,-.6,-.4,-1c.3,-.1,.5,-.1,.7,0c.2,0,.5,.1,.8,.3c.1,.2,.3,.4,.5,.7c.2,.3,.3,.6,.4,.9c.1,.3,.1,.5,.1,.7c0,.6,-.2,1.1,-.5,1.7c-.4,.8,-1.4,1.3,-2.8,1.3c-.5,0,-1.1,-.2,-1.6,-.5c-.6,-.3,-1.1,-.8,-1.5,-1.4c-.5,-.5,-.9,-1.2,-1.2,-2c-.4,-.8,-.7,-1.7,-.9,-2.7l-.7,-.3c.1,1,.3,2,.6,2.9c.2,.9,.5,1.7,.9,2.3c.3,.5,.7,1,1,1.5c.4,.4,.8,.8,1.2,1.1c.4,.3,.8,.6,1.2,.7c.5,.2,.9,.3,1.3,.3c.7,0,1.3,-.2,1.9,-.4c.5,-.3,1,-.7,1.3,-1.2c1.4,.9,2.4,2.4,2.9,4.5v-.1l.4,.3V135.2h2.2L262.3,134Zm5.5,1.2L266.7,134h-1.1c-.4,-.4,-.6,-1,-.7,-1.9l-.5,-.3c0,.2,0,.5,0,.9c.1,.3,.1,.7,.1,1.2c.1,.5,.1,.9,.1,1.3c0,.3,0,.6,0,.9c-.2,-.8,-.5,-1.3,-.9,-1.6c-.4,-.3,-1,-.5,-1.7,-.5h-1.4l1.2,1.2c.3,0,.7,.1,1,.2c.3,.1,.6,.3,.8,.5c.3,.2,.5,.4,.6,.7c.2,.3,.2,.7,.2,1v8.9l1.2,1.2V135.2h2.2Zm12.1,-3.3c-2.3,-2.4,-4.7,-3.6,-7.2,-3.6c-1,0,-2,.4,-3.1,1.2c-1.1,.9,-1.6,1.8,-1.6,2.7c0,.4,.1,.7,.4,1l.9,.8h-3.2l1.2,1.2h1.8v11.3l1.2,1.2V135.2h2.1L271.2,134h-1.3l-.5,-1.1c.1,-.9,.6,-1.6,1.7,-2.3c.9,-.7,1.8,-1,2.7,-1c.6,0,1.2,.1,1.8,.2c.6,.2,1.1,.4,1.7,.7c.6,.4,1.1,.7,1.6,1c.5,.4,.9,.7,1.3,1l-.3,-.6Zm2.8,2.1H270.6l1.3,1.2c.4,.6,.8,1,1.1,1.2c.2,.2,.5,.3,.8,.4c.3,.2,.6,.3,1.1,.4c.8,.3,1.3,.5,1.6,.8c.5,.4,.7,1.1,.7,2.2c-.3,-.2,-.6,-.3,-1,-.3c-.7,0,-1.3,.2,-1.7,.5c-.5,.4,-.8,1,-.8,1.6c0,.6,.2,1.1,.6,1.5c.4,.4,.9,.5,1.5,.5c.3,0,.6,0,1,-.2c.4,-.1,.7,-.5,1.1,-.9c1.6,.5,2.7,2,3.3,4.4l.5,.5V135.2h2.2L282.7,134Zm-2.2,9.8c-.2,-.4,-.5,-.8,-.9,-1.2c-.3,-.4,-.7,-.8,-1.2,-1.2c0,-.1,.1,-.2,.1,-.3v-.3c0,-1.1,-.4,-2.1,-1.2,-3.1c-.4,-.7,-1.3,-1.5,-2.5,-2.5h5.8v8.6h-.1ZM297.3,134c-.5,0,-1.1,.2,-1.5,.4c-.5,.3,-.9,.5,-1.3,.8c-.8,.8,-1.4,1.8,-1.8,2.8c-.4,1,-.7,2.1,-.7,3.3c0,1.5,.3,2.8,.9,3.9c.8,1.4,1.8,2.1,3.2,2.1c.3,0,.6,0,.8,-.1c.3,-.1,.5,-.2,.7,-.4c.2,-.2,.4,-.4,.5,-.7c.1,-.2,.2,-.5,.2,-.8c0,-.4,-.2,-.9,-.4,-1.2c-.3,-.3,-.7,-.5,-1.1,-.5c-.2,0,-.3,.1,-.5,.1c-.2,.1,-.4,.2,-.5,.3c-.1,.2,-.2,.3,-.3,.4c-.1,.2,-.1,.4,-.1,.6c0,.2,0,.4,.1,.7c.2,.2,.3,.4,.6,.6c0,0,-.1,.1,-.2,.1h-.1c-.8,0,-1.4,-.5,-1.9,-1.4c-.5,-.7,-.7,-1.5,-.7,-2.3c0,-1,.1,-1.9,.3,-2.7c.2,-.7,.5,-1.4,1,-2.1c.4,-.7,1,-1.3,1.6,-1.7c.7,-.5,1.5,-.8,2.4,-1L297.3,134Zm12.6,14.7c-.5,-.5,-.9,-1,-1.4,-1.4c-.4,-.4,-.8,-.8,-1.1,-1c-.3,-.2,-.7,-.5,-1.2,-.8c-.5,-.3,-1.1,-.6,-1.8,-1c.6,-.3,1.1,-.6,1.6,-.8c.4,-.3,.7,-.5,1,-.8c.9,-.7,1.3,-1.5,1.3,-2.5c0,-.9,-.3,-1.7,-.8,-2.4c-.5,-.7,-1.3,-1.1,-2.4,-1.1c-.3,0,-.5,0,-.8,.1c-.3,0,-.5,.1,-.8,.1c-1.4,0,-2.3,-.7,-2.9,-1.9h8.7L308.2,134H296.7l1.2,1.2h1.6v5.2c0,.2,.1,.5,.2,.6c.1,.2,.2,.4,.4,.5c.2,.2,.3,.3,.6,.4c.2,.1,.4,.1,.6,.1c.4,0,.8,-.1,1.2,-.3c.4,-.2,.8,-.4,1.3,-.7c1,-.8,1.4,-1.7,1.3,-2.6c1.3,-.2,1.9,.2,2,1.2c0,1.2,-.7,2.2,-2,2.9c-.6,.2,-1.1,.4,-1.7,.6c-.6,.1,-1.2,.2,-1.9,.2c-.3,0,-.6,-.1,-.9,-.1c-.2,-.1,-.6,-.1,-.9,-.2l1.2,2.2c1.8,.2,3.4,.6,5,1.3c1.5,.8,2.9,1.8,4.1,3.1l-.1,-.9Zm-6.6,-9.5c-.2,.3,-.4,.6,-.6,.8c-.3,.3,-.5,.5,-.8,.7c-.3,.1,-.5,.2,-.8,.2c-.3,0,-.4,-.2,-.4,-.7v-3.6c.7,.9,1.6,1.5,2.8,1.8c0,.3,-.1,.5,-.2,.8Zm10.8,-4L313,134h-1.1c-.4,-.4,-.6,-1,-.8,-1.9l-.4,-.3c0,.2,0,.5,0,.9c0,.3,.1,.7,.1,1.2c0,.5,.1,.9,.1,1.3c0,.3,0,.6,0,.9c-.2,-.8,-.6,-1.3,-1,-1.6c-.4,-.3,-.9,-.5,-1.7,-.5h-1.3l1.2,1.2c.3,0,.7,.1,1,.2c.3,.1,.6,.3,.8,.5c.3,.2,.5,.4,.6,.7c.2,.3,.2,.7,.2,1v8.9l1.2,1.2V135.2h2.2Zm10.4,0L323.3,134h-.7c0,-1.1,-.2,-2,-.6,-2.6c-.6,-.6,-1.4,-.9,-2.5,-.9c-.3,0,-.8,.1,-1.4,.1c-.4,.1,-.7,.1,-.9,.1c-.2,0,-.5,0,-.6,0c-.5,0,-1,-.1,-1.4,-.3c-.4,-.2,-.6,-.6,-.6,-1.1c0,-.2,.1,-.4,.3,-.6c0,-.1,0,-.2,0,-.2c0,-.1,0,-.2,0,-.2c-.6,0,-.9,.5,-.9,1.4c0,.9,.4,1.6,1.3,2c.7,.5,1.6,.7,2.5,.7c.1,0,.3,0,.4,0c.2,-.1,.4,-.1,.7,-.1c.5,-.1,.8,-.1,1.1,-.1c1,0,1.5,.3,1.5,1c0,.2,0,.3,0,.4c0,.2,-.1,.3,-.1,.4h-9l1,1.2h2v8c.1,.9,.4,1.6,.9,2c.4,.5,1,.7,1.8,.7c1.2,0,2.2,-.6,3.2,-1.8c1,-1.2,1.5,-2.3,1.5,-3.5c0,-.4,0,-.7,-.1,-1.1c-.1,-.3,-.2,-.6,-.4,-.9c-.4,-.7,-1,-1,-1.7,-1c-.4,0,-.8,.2,-1.1,.5c-.3,.3,-.4,.7,-.4,1.1c0,.4,.2,.8,.5,1c.3,.3,.6,.4,1,.4h.4c0,.8,-.4,1.6,-1.1,2.5c-.8,.8,-1.5,1.3,-2.2,1.3c-.5,0,-.9,-.3,-1.2,-.8v-8.4h8ZM337.9,134c-.5,0,-1,.2,-1.5,.4c-.5,.3,-.9,.5,-1.3,.8c-.8,.8,-1.4,1.8,-1.8,2.8c-.4,1,-.6,2.1,-.7,3.3c0,1.5,.3,2.8,1,3.9c.7,1.4,1.8,2.1,3.1,2.1c.3,0,.6,0,.9,-.1c.2,-.1,.5,-.2,.7,-.4c.2,-.2,.3,-.4,.4,-.7c.2,-.2,.2,-.5,.2,-.8c0,-.4,-.1,-.9,-.4,-1.2c-.3,-.3,-.6,-.5,-1,-.5c-.2,0,-.4,.1,-.6,.1c-.2,.1,-.3,.2,-.4,.3c-.2,.2,-.3,.3,-.4,.4c-.1,.2,-.1,.4,-.1,.6c0,.2,.1,.4,.2,.7c.1,.2,.3,.4,.5,.6c0,0,-.1,.1,-.2,.1h-.1c-.7,0,-1.4,-.5,-1.9,-1.4c-.4,-.7,-.7,-1.5,-.7,-2.3c0,-1,.1,-1.9,.4,-2.7c.2,-.7,.5,-1.4,.9,-2.1c.5,-.7,1,-1.3,1.7,-1.7c.6,-.5,1.4,-.8,2.3,-1L337.9,134Zm15.6,1.2L352.2,134H337.1l1.2,1.2h7.8v1c-2.6,.8,-4.9,2.1,-6.9,3.7l1.6,2.1c1.4,.1,2.6,.7,3.7,1.8c.5,.5,.9,1,1.3,1.6c.4,.7,.7,1.3,1,2c0,.1,.1,.1,.2,.2c.1,0,.1,.1,.2,.1v-10c1.2,0,2.2,.3,2.8,1c.7,.7,1,1.4,1,2.2l-.1,.3c-.2,-.2,-.4,-.3,-.5,-.4c-.2,-.2,-.5,-.2,-.7,-.2c-.4,0,-.7,.1,-1,.4c-.3,.2,-.4,.5,-.4,.9c0,.2,0,.4,.1,.6c.1,.2,.2,.3,.4,.5c.1,.1,.3,.2,.5,.3c.2,.1,.4,.1,.6,.1c.3,0,.5,-.1,.8,-.2c.2,-.1,.4,-.3,.6,-.5c.2,-.2,.3,-.4,.4,-.7c.1,-.3,.1,-.5,.1,-.8c0,-1.3,-.4,-2.4,-1.2,-3.4c-.8,-1.2,-2,-1.7,-3.4,-1.7v-.9h6.3Zm-7.5,9.1c-1,-1.8,-2.5,-3.1,-4.4,-4c.8,-.5,1.5,-1,2.3,-1.4c.7,-.4,1.4,-.8,2.1,-1.1v6.5Zm12.1,-9.1L356.9,134h-1c-.4,-.4,-.6,-1,-.8,-1.9l-.4,-.3c0,.2,0,.5,0,.9c0,.3,0,.7,.1,1.2c0,.5,0,.9,.1,1.3c0,.3,0,.6,0,.9c-.3,-.8,-.6,-1.3,-1,-1.6c-.4,-.3,-.9,-.5,-1.7,-.5h-1.3l1.2,1.2c.3,0,.6,.1,.9,.2c.4,.1,.7,.3,.9,.5c.3,.2,.4,.4,.6,.7c.1,.3,.2,.7,.2,1v8.9l1.2,1.2V135.2h2.2Zm11.4,0L368.3,134H356.5l1.2,1.2H359v7.1l1.6,1.7c.5,-1.1,1.2,-2.1,2.1,-2.9c.9,-.9,1.8,-1.5,2.9,-1.9c-.3,1,-.4,2.1,-.4,3.1c0,.6,0,1.3,.2,2.2c.1,.8,.3,1.8,.5,3l.8,.4c-.3,-1.6,-.4,-2.8,-.4,-3.7c0,-.9,.1,-1.8,.4,-2.8c.3,-1,.7,-2,1.2,-3L366,136.9c-.4,.1,-.9,.3,-1.3,.6c-.5,.2,-1,.5,-1.5,.8c-.6,.4,-1.1,.7,-1.6,1.2c-.4,.4,-.9,.8,-1.3,1.3v-5.6h9.2Zm4.4,0L372.7,134h-1c-.4,-.4,-.6,-1,-.8,-1.9l-.4,-.3c0,.2,0,.5,0,.9c0,.3,0,.7,.1,1.2c0,.5,0,.9,.1,1.3c0,.3,0,.6,0,.9c-.3,-.8,-.6,-1.3,-1,-1.6c-.4,-.3,-.9,-.5,-1.7,-.5h-1.3l1.2,1.2c.3,0,.6,.1,1,.2c.3,.1,.6,.3,.8,.5c.3,.2,.5,.4,.6,.7c.1,.3,.2,.7,.2,1v8.9l1.2,1.2V135.2h2.2Zm12.6,0L385.3,134H372l1.3,1.2h9.8v3.3c-.5,-1.3,-1.3,-2,-2.3,-2c-.3,0,-.6,.2,-.9,.5c-.4,.3,-.5,.6,-.5,1c-.8,-1,-1.8,-1.6,-2.8,-1.6c-.8,0,-1.4,.4,-2,1.2c-.4,.7,-.6,1.4,-.6,2.3c0,.5,0,1,.2,1.4c.2,.4,.4,.8,.7,1.1c.3,.3,.7,.5,1.1,.7c.5,.1,.9,.2,1.4,.2c.7,-.1,1.1,-.2,1.5,-.5c.3,-.3,.5,-.7,.5,-1.2c0,-1.1,-.6,-1.7,-1.7,-1.7c-.3,0,-.6,.1,-.9,.3c-.3,.3,-.4,.6,-.4,1c0,.2,.1,.6,.4,1c-1.2,-.2,-1.8,-.8,-1.8,-1.7c0,-.3,.1,-.6,.2,-.9c.1,-.3,.3,-.5,.5,-.7c.2,-.2,.5,-.4,.7,-.5c.3,-.1,.6,-.2,.9,-.2c.7,0,1.3,.2,1.8,.6c.5,.4,.8,1,.9,1.6l.5,-.2c0,-.3,-.1,-.5,-.1,-.7c0,-.9,.4,-1.3,1.1,-1.3c.4,0,.8,.2,1.1,.5c.3,.3,.4,.7,.4,1.1v6.9l1.3,1.1V135.2h2.2Zm19.6,-3.3c-2.3,-2.4,-4.7,-3.6,-7.2,-3.6c-1,0,-2,.4,-3.1,1.2c-1.1,.9,-1.6,1.8,-1.6,2.7c0,.4,.1,.7,.5,1l.8,.8h-3.2l1.2,1.2h1.8v11.3l1.2,1.2V135.2h2.1L397.4,134h-1.3l-.5,-1.1c.1,-.9,.6,-1.6,1.7,-2.3c.9,-.7,1.8,-1,2.7,-1c.6,0,1.2,.1,1.8,.2c.6,.2,1.2,.4,1.7,.7c.6,.4,1.1,.7,1.6,1c.5,.4,.9,.7,1.3,1l-.3,-.6Zm3.7,3.3L408.6,134H396.9l1.2,1.2h8.5v6.6h-.1c-1.3,-2.6,-2.8,-4,-4.4,-4c-.8,0,-1.5,.3,-2.1,.9c-.6,.5,-.9,1.2,-.9,2c0,1.5,.8,2.2,2.3,2.2c.5,0,.9,-.2,1.2,-.5c.3,-.4,.5,-.8,.5,-1.3c0,-.3,-.3,-.8,-.8,-1.5c0,-.1,.2,-.1,.3,-.1c1.3,0,2.4,.8,3.4,2.5c.6,1.4,.9,2.9,.9,4.2l-.1,1.3l.9,.6V135.2h2.1ZM416,134h-8l1.2,1.2h4c-1.7,2,-2.5,4,-2.5,6.1c0,1.5,.3,2.8,.9,3.9c.7,1.4,1.8,2.1,3.2,2.1c.3,0,.6,0,.8,-.1c.3,-.1,.5,-.2,.7,-.4c.2,-.2,.4,-.4,.5,-.7c.1,-.2,.2,-.5,.2,-.8c0,-.4,-.2,-.9,-.5,-1.2c-.2,-.3,-.6,-.5,-1,-.5c-.4,0,-.7,.2,-1,.4c-.3,.3,-.5,.6,-.5,1c0,.2,.1,.4,.2,.7c.1,.2,.3,.4,.6,.6c-.7,.2,-1.5,-.2,-2.2,-1.3c-.5,-.7,-.7,-1.5,-.7,-2.3c0,-1,.1,-1.9,.3,-2.7c.2,-.7,.5,-1.4,.9,-2.1c.5,-.7,1.1,-1.3,1.7,-1.7c.7,-.5,1.4,-.8,2.3,-1L416,134Zm11.7,1.2L426.4,134H415.3c.6,1,1.7,1.7,3.4,2.2c.6,.2,1.2,.4,1.6,.6c.4,.2,.7,.4,.8,.6c-.5,.4,-1.1,.8,-1.7,1.4c-.6,.5,-1.2,1.1,-1.9,1.7l1.6,2.1c1.5,.1,2.7,.5,3.6,1.2c.5,.5,1.1,1.2,1.7,2.3c.6,1,1,1.6,1.3,1.8V135.2h2Zm-3.1,9.5h-.1c-1,-1.7,-2.5,-2.9,-4.5,-3.6c.5,-.5,1,-1.1,1.5,-1.6c.5,-.5,1,-.9,1.5,-1.4c-.6,-.7,-1.2,-1.3,-1.7,-1.8c-.5,-.5,-1,-.9,-1.3,-1.1h4.6v9.5Zm-4.7,2c.3,.2,.5,.3,.9,.3c.3,0,.6,-.1,.9,-.3c.2,-.3,.3,-.6,.3,-.9c0,-.3,-.1,-.6,-.3,-.9c-.3,-.2,-.6,-.3,-.9,-.3c-.4,0,-.6,.1,-.9,.3c-.2,.3,-.3,.6,-.3,.9c0,.3,.1,.6,.3,.9Zm20,-14.8c-2.4,-2.4,-4.8,-3.6,-7.3,-3.6c-1,0,-2,.4,-3.1,1.2c-1.1,.9,-1.6,1.8,-1.6,2.7c0,.4,.2,.7,.5,1l.8,.8H426l1.2,1.2H429v11.3l1.2,1.2V135.2h2.1L431.1,134h-1.3l-.5,-1.1c.1,-.9,.6,-1.6,1.7,-2.3c.9,-.7,1.8,-1,2.7,-1c.6,0,1.2,.1,1.8,.2c.6,.2,1.2,.4,1.7,.7c.6,.4,1.1,.7,1.6,1c.5,.4,.9,.7,1.3,1l-.2,-.6Zm3.9,16.8c-.4,-.5,-.9,-1,-1.3,-1.4c-.4,-.4,-.8,-.8,-1.1,-1c-.3,-.2,-.7,-.5,-1.2,-.8c-.5,-.3,-1.1,-.6,-1.8,-1c.6,-.3,1.1,-.6,1.5,-.8c.4,-.3,.8,-.5,1,-.8c.9,-.7,1.3,-1.5,1.3,-2.5c0,-.9,-.2,-1.7,-.7,-2.4c-.6,-.7,-1.4,-1.1,-2.4,-1.1c-.3,0,-.6,0,-.8,.1c-.3,0,-.6,.1,-.8,.1c-1.4,0,-2.4,-.7,-2.9,-1.9h8.7L442.1,134H430.7l1.2,1.2h1.6v5.2c0,.2,0,.5,.1,.6c.1,.2,.3,.4,.4,.5c.2,.2,.4,.3,.6,.4c.2,.1,.5,.1,.7,.1c.4,0,.7,-.1,1.2,-.3c.4,-.2,.8,-.4,1.2,-.7c1,-.8,1.5,-1.7,1.3,-2.6c1.3,-.2,2,.2,2.1,1.2c0,1.2,-.7,2.2,-2.1,2.9c-.5,.2,-1.1,.4,-1.7,.6c-.6,.1,-1.2,.2,-1.9,.2c-.2,0,-.5,-.1,-.8,-.1c-.3,-.1,-.6,-.1,-.9,-.2l1.1,2.2c1.8,.2,3.5,.6,5,1.3c1.5,.8,2.9,1.8,4.2,3.1l-.2,-.9Zm-6.6,-9.5c-.1,.3,-.3,.6,-.6,.8c-.2,.3,-.5,.5,-.7,.7c-.3,.1,-.6,.2,-.8,.2c-.3,0,-.5,-.2,-.5,-.7v-3.6c.7,.9,1.7,1.5,2.8,1.8c0,.3,0,.5,-.2,.8Z" class="go_190"/>
<g clip-path="url(#c0_190)">
<path d="M1877,177.2H32.1v-5.4H768.7c43.1,0,53,-37.9,115.3,-37.9h993Z" class="gp_190"/>
<path d="M1877,183.7H32.1v-9.8H768.7c43.1,0,53,-33.6,115.3,-33.6h993Z" class="gq_190"/>
</g>
<image clip-path="url(#ca_190)" x="774" y="531" width="5" height="9" xlink:href="shade/1.png"/>
<image clip-path="url(#cb_190)" x="773" y="504" width="25" height="28" xlink:href="shade/2.png"/>
<image clip-path="url(#cc_190)" x="773" y="507" width="23" height="33" xlink:href="shade/3.png"/>
<image clip-path="url(#cd_190)" x="778" y="503" width="20" height="10" xlink:href="shade/4.png"/>
<image clip-path="url(#ce_190)" x="774" y="785" width="5" height="9" xlink:href="shade/5.png"/>
<image clip-path="url(#cf_190)" x="773" y="758" width="25" height="28" xlink:href="shade/6.png"/>
<image clip-path="url(#cg_190)" x="773" y="761" width="23" height="33" xlink:href="shade/7.png"/>
<image clip-path="url(#ch_190)" x="778" y="757" width="20" height="10" xlink:href="shade/8.png"/>
<image clip-path="url(#ci_190)" preserveAspectRatio="none" x="125" y="206" width="734" height="181" xlink:href="img/9.png"/>
<path d="M144.6,231.3c0,0,-13,0,-13,13v117c0,0,0,13,13,13H833.1c0,0,13,0,13,-13v-130Z" class="gr_190"/>
<path d="M147.7,294.1l54.1,40.8l54.1,-40.8V230h8.7V211.9H155.8c-6.5,.4,-7.7,3.9,-8.2,8.4Z" class="gs_190"/>
<path d="M274,220.3c-.3,-4.7,-4.2,-8.4,-9,-8.4c-4.8,0,-8.7,3.7,-9,8.4h-.1V230h18.2v-9.7Z" class="gj_190"/>
<path d="M255.9,230.6H846.1" class="gt_190"/>
<path d="M32.1,45.1H9.2m958.3,0h22.9M32.1,1331.3H9.2m958.3,0h22.9M45.1,32.1V9.2m0,1335.1v22.9M954.5,32.1V9.2m0,1335.1v22.9" class="gu_190"/>
<path d="M32.1,45.1H9.2m958.3,0h22.9M32.1,1331.3H9.2m958.3,0h22.9M45.1,32.1V9.2m0,1335.1v22.9M954.5,32.1V9.2m0,1335.1v22.9" class="gv_190"/>
<path d="M27.5,32.1H0m972.1,0h27.5M27.5,1344.3H0m972.1,0h27.5M32.1,27.5V0m0,1348.9v27.5M967.5,27.5V0m0,1348.9v27.5" class="gu_190"/>
<path d="M27.5,32.1H0m972.1,0h27.5M27.5,1344.3H0m972.1,0h27.5M32.1,27.5V0m0,1348.9v27.5M967.5,27.5V0m0,1348.9v27.5" class="gv_190"/>
</svg>