<?xml version="1.0" encoding="UTF-8" standalone="no"?>
<!DOCTYPE svg PUBLIC "-//W3C//DTD SVG 1.1//EN"
"http://www.w3.org/Graphics/SVG/1.1/DTD/svg11.dtd">
<svg viewBox="0 0 999 1376" version="1.1" xmlns="http://www.w3.org/2000/svg" xmlns:xlink="http://www.w3.org/1999/xlink">
<defs>
<clipPath id="c0_19"><path d="M32.1,1344.3V32.1H967.5V1344.3Z"/></clipPath>
<clipPath id="c1_19"><path d="M644.2,307.5V269.4H786.3v38.1Z"/></clipPath>
<clipPath id="c2_19"><path d="M644.2,364.3V310.8H786.3v53.5Z"/></clipPath>
<clipPath id="c3_19"><path d="M644.2,571.6V522.7h220v48.9Z"/></clipPath>
<clipPath id="c4_19"><path d="M644.2,630.3V576.8H862.7v53.5Z"/></clipPath>
<clipPath id="c5_19"><path d="M644.2,685.9V632.5H862.7v53.4Z"/></clipPath>
<clipPath id="c6_19"><path d="M728.6,204.7V102.2H853V204.7Z"/></clipPath>
<style type="text/css"><![CDATA[
.g0_19{
fill: #FFFEF5;
}
.g1_19{
fill: #94D6DA;
}
.g2_19{
fill: #E9EC9A;
}
.g3_19{
fill: none;
stroke: #CADCEA;
stroke-width: 0.33;
}
.g4_19{
fill: #FFF;
}
.g5_19{
fill: none;
stroke: #888A8D;
stroke-width: 0.412;
}
.g6_19{
fill: #6D6F71;
}
.g7_19{
fill: none;
stroke: #FFF;
stroke-width: 1.909;
stroke-miterlimit: 10;
}
.g8_19{
fill: none;
stroke: #000;
stroke-width: 0.381;
stroke-miterlimit: 10;
}
]]></style>
</defs>
<path d="M32.1,1343.4H967.5V174.1H32.1V1343.4Z" class="g0_19"/>
<path d="M45.1,187.1H967.5V32.1H45.1v155Z" class="g1_19"/>
<path d="M32.1,187.1h13V32.1h-13v155Z" class="g1_19"/>
<path clip-path="url(#c0_19)" d="M-421,179.3c0,0,-1.5,0,-1.5,1.6v5.6c0,0,0,1.5,1.5,1.5H866.4c0,0,1.5,0,1.5,-1.5v-5.6c0,0,0,-1.6,-1.5,-1.6Z" class="g2_19"/>
<path d="M307.6,269.7c0,0,-3.7,0,-3.7,3.8v29.9c0,0,0,3.7,3.7,3.7H440.1c0,0,3.8,0,3.8,-3.7V273.5c0,0,0,-3.8,-3.8,-3.8Z" class="g2_19"/>
<path d="M307.6,269.7c0,0,-3.7,0,-3.7,3.8v29.9c0,0,0,3.7,3.7,3.7H440.1c0,0,3.8,0,3.8,-3.7V273.5c0,0,0,-3.8,-3.8,-3.8H307.6Z" class="g3_19"/>
<path d="M477.2,269.7c0,0,-3.8,0,-3.8,3.8v29.9c0,0,0,3.7,3.8,3.7H609.7c0,0,3.7,0,3.7,-3.7V273.5c0,0,0,-3.8,-3.7,-3.8Z" class="g2_19"/>
<path d="M477.2,269.7c0,0,-3.8,0,-3.8,3.8v29.9c0,0,0,3.7,3.8,3.7H609.7c0,0,3.7,0,3.7,-3.7V273.5c0,0,0,-3.8,-3.7,-3.8H477.2Z" class="g3_19"/>
<image clip-path="url(#c1_19)" preserveAspectRatio="none" x="644" y="269" width="142" height="39" xlink:href="img/1.png"/>
<image clip-path="url(#c2_19)" preserveAspectRatio="none" x="644" y="312" width="142" height="53" xlink:href="img/2.png"/>
<path d="M215.4,269.9c0,0,-3.8,0,-3.8,3.7v28.8c0,0,0,3.7,3.8,3.7h78.7c0,0,3.7,0,3.7,-3.7V273.6c0,0,0,-3.7,-3.7,-3.7Z" class="g4_19"/>
<path d="M215.4,269.9c0,0,-3.8,0,-3.8,3.7v28.8c0,0,0,3.7,3.8,3.7h78.7c0,0,3.7,0,3.7,-3.7V273.6c0,0,0,-3.7,-3.7,-3.7H215.4Z" class="g5_19"/>
<path d="M305.3,311.2c0,0,-1.4,0,-1.4,5.2v41.3c0,0,0,5.1,1.4,5.1H442.4c0,0,1.5,0,1.5,-5.1V316.4c0,0,0,-5.2,-1.5,-5.2Z" class="g2_19"/>
<path d="M305.3,311.2c0,0,-1.4,0,-1.4,5.2v41.3c0,0,0,5.1,1.4,5.1H442.4c0,0,1.5,0,1.5,-5.1V316.4c0,0,0,-5.2,-1.5,-5.2H305.3Z" class="g3_19"/>
<path d="M474.9,311.2c0,0,-1.5,0,-1.5,5.2v41.3c0,0,0,5.1,1.5,5.1H612c0,0,1.4,0,1.4,-5.1V316.4c0,0,0,-5.2,-1.4,-5.2Z" class="g2_19"/>
<path d="M474.9,311.2c0,0,-1.5,0,-1.5,5.2v41.3c0,0,0,5.1,1.5,5.1H612c0,0,1.4,0,1.4,-5.1V316.4c0,0,0,-5.2,-1.4,-5.2H474.9Z" class="g3_19"/>
<path d="M215.4,311.2c0,0,-3.8,0,-3.8,3.8v44c0,0,0,3.8,3.8,3.8h78.7c0,0,3.7,0,3.7,-3.8V315c0,0,0,-3.8,-3.7,-3.8Z" class="g4_19"/>
<path d="M215.4,311.2c0,0,-3.8,0,-3.8,3.8v44c0,0,0,3.8,3.8,3.8h78.7c0,0,3.7,0,3.7,-3.8V315c0,0,0,-3.8,-3.7,-3.8H215.4Z" class="g5_19"/>
<path d="M456.8,296.7h2.8V280.1h-2.8v16.6Z" class="g6_19"/>
<path d="M449.9,289.8h16.6V287H449.9v2.8Z" class="g6_19"/>
<path d="M628.1,283.7l.3,9.5l7.5,-5Z" class="g6_19"/>
<path d="M619.4,291.6h11.7V287H619.4v4.6Z" class="g6_19"/>
<path d="M628.1,332.2l.3,9.6l7.5,-5.1Z" class="g6_19"/>
<path d="M619.4,338.4h11.7v-2.8H619.4v2.8Z" class="g6_19"/>
<path d="M456.8,345.3h2.8V328.7h-2.8v16.6Z" class="g6_19"/>
<path d="M449.9,338.4h16.6v-2.8H449.9v2.8Z" class="g6_19"/>
<path d="M307.6,523.1c0,0,-3.7,0,-3.7,3.7v39.8c0,0,0,3.8,3.7,3.8H440.1c0,0,3.8,0,3.8,-3.8V526.8c0,0,0,-3.7,-3.8,-3.7Z" class="g2_19"/>
<path d="M307.6,523.1c0,0,-3.7,0,-3.7,3.7v39.8c0,0,0,3.8,3.7,3.8H440.1c0,0,3.8,0,3.8,-3.8V526.8c0,0,0,-3.7,-3.8,-3.7H307.6Z" class="g3_19"/>
<path d="M477.2,523.1c0,0,-3.8,0,-3.8,3.7v39.8c0,0,0,3.8,3.8,3.8H609.7c0,0,3.7,0,3.7,-3.8V526.8c0,0,0,-3.7,-3.7,-3.7Z" class="g2_19"/>
<path d="M477.2,523.1c0,0,-3.8,0,-3.8,3.7v39.8c0,0,0,3.8,3.8,3.8H609.7c0,0,3.7,0,3.7,-3.8V526.8c0,0,0,-3.7,-3.7,-3.7H477.2Z" class="g3_19"/>
<image clip-path="url(#c3_19)" preserveAspectRatio="none" x="644" y="523" width="220" height="49" xlink:href="img/3.png"/>
<path d="M215.4,523.1c0,0,-3.8,0,-3.8,3.8v39.7c0,0,0,3.7,3.8,3.7h78.7c0,0,3.7,0,3.7,-3.7V526.9c0,0,0,-3.8,-3.7,-3.8Z" class="g4_19"/>
<path d="M215.4,523.1c0,0,-3.8,0,-3.8,3.8v39.7c0,0,0,3.7,3.8,3.7h78.7c0,0,3.7,0,3.7,-3.7V526.9c0,0,0,-3.8,-3.7,-3.8H215.4Z" class="g5_19"/>
<path d="M456.8,555h2.8V538.4h-2.8V555Z" class="g6_19"/>
<path d="M449.9,548.1h16.6v-2.8H449.9v2.8Z" class="g6_19"/>
<path d="M628.1,541.9l.3,9.6l7.5,-5.1Z" class="g6_19"/>
<path d="M619.4,548.1h11.7v-2.8H619.4v2.8Z" class="g6_19"/>
<image clip-path="url(#c4_19)" preserveAspectRatio="none" x="644" y="577" width="218" height="54" xlink:href="img/4.png"/>
<path d="M305.3,577.2c0,0,-1.4,0,-1.4,5.2v41.3c0,0,0,5.2,1.4,5.2H442.4c0,0,1.5,0,1.5,-5.2V582.4c0,0,0,-5.2,-1.5,-5.2Z" class="g2_19"/>
<path d="M305.3,577.2c0,0,-1.4,0,-1.4,5.2v41.3c0,0,0,5.2,1.4,5.2H442.4c0,0,1.5,0,1.5,-5.2V582.4c0,0,0,-5.2,-1.5,-5.2H305.3Z" class="g3_19"/>
<path d="M474.9,577.2c0,0,-1.5,0,-1.5,5.2v41.3c0,0,0,5.2,1.5,5.2H612c0,0,1.4,0,1.4,-5.2V582.4c0,0,0,-5.2,-1.4,-5.2Z" class="g2_19"/>
<path d="M474.9,577.2c0,0,-1.5,0,-1.5,5.2v41.3c0,0,0,5.2,1.5,5.2H612c0,0,1.4,0,1.4,-5.2V582.4c0,0,0,-5.2,-1.4,-5.2H474.9Z" class="g3_19"/>
<path d="M215.4,577.3c0,0,-3.8,0,-3.8,3.7v99.7c0,0,0,3.7,3.8,3.7h78.7c0,0,3.7,0,3.7,-3.7V581c0,0,0,-3.7,-3.7,-3.7Z" class="g4_19"/>
<path d="M215.4,577.3c0,0,-3.8,0,-3.8,3.7v99.7c0,0,0,3.7,3.8,3.7h78.7c0,0,3.7,0,3.7,-3.7V581c0,0,0,-3.7,-3.7,-3.7H215.4Z" class="g5_19"/>
<path d="M628.1,598.3l.3,9.5l7.5,-5Z" class="g6_19"/>
<path d="M619.4,604.4h11.7v-2.8H619.4v2.8Z" class="g6_19"/>
<path d="M456.8,611.3h2.8V594.7h-2.8v16.6Z" class="g6_19"/>
<path d="M449.9,604.4h16.6v-2.8H449.9v2.8Z" class="g6_19"/>
<image clip-path="url(#c5_19)" preserveAspectRatio="none" x="644" y="633" width="218" height="54" xlink:href="img/5.png"/>
<path d="M305.3,632.8c0,0,-1.4,0,-1.4,5.2v41.3c0,0,0,5.2,1.4,5.2H442.4c0,0,1.5,0,1.5,-5.2V638c0,0,0,-5.2,-1.5,-5.2Z" class="g2_19"/>
<path d="M305.3,632.8c0,0,-1.4,0,-1.4,5.2v41.3c0,0,0,5.2,1.4,5.2H442.4c0,0,1.5,0,1.5,-5.2V638c0,0,0,-5.2,-1.5,-5.2H305.3Z" class="g3_19"/>
<path d="M474.9,632.8c0,0,-1.5,0,-1.5,5.2v41.3c0,0,0,5.2,1.5,5.2H612c0,0,1.4,0,1.4,-5.2V638c0,0,0,-5.2,-1.4,-5.2Z" class="g2_19"/>
<path d="M474.9,632.8c0,0,-1.5,0,-1.5,5.2v41.3c0,0,0,5.2,1.5,5.2H612c0,0,1.4,0,1.4,-5.2V638c0,0,0,-5.2,-1.4,-5.2H474.9Z" class="g3_19"/>
<path d="M628.1,653.9l.3,9.5l7.5,-5Z" class="g6_19"/>
<path d="M619.4,660.1h11.7v-2.8H619.4v2.8Z" class="g6_19"/>
<path d="M456.8,667h2.8V650.4h-2.8V667Z" class="g6_19"/>
<path d="M449.9,660.1h16.6v-2.8H449.9v2.8Z" class="g6_19"/>
<path d="M330.1,890.7c0,0,-3.7,0,-3.7,3.8v52.8c0,0,0,3.7,3.7,3.7H755.4c0,0,3.7,0,3.7,-3.7V894.5c0,0,0,-3.8,-3.7,-3.8Z" class="g2_19"/>
<path d="M330.1,890.7c0,0,-3.7,0,-3.7,3.8v52.8c0,0,0,3.7,3.7,3.7H755.4c0,0,3.7,0,3.7,-3.7V894.5c0,0,0,-3.8,-3.7,-3.8H330.1Z" class="g3_19"/>
<path d="M215.4,890.7c0,0,-3.8,0,-3.8,3.8v52.7c0,0,0,3.7,3.8,3.7H315.8c0,0,3.7,0,3.7,-3.7V894.5c0,0,0,-3.8,-3.7,-3.8Z" class="g4_19"/>
<path d="M215.4,890.7c0,0,-3.8,0,-3.8,3.8v52.7c0,0,0,3.7,3.8,3.7H315.8c0,0,3.7,0,3.7,-3.7V894.5c0,0,0,-3.8,-3.7,-3.8H215.4Z" class="g5_19"/>
<path d="M330.1,961.6c0,0,-3.7,0,-3.7,3.8v52.8c0,0,0,3.7,3.7,3.7H755.4c0,0,3.7,0,3.7,-3.7V965.4c0,0,0,-3.8,-3.7,-3.8Z" class="g2_19"/>
<path d="M330.1,961.6c0,0,-3.7,0,-3.7,3.8v52.8c0,0,0,3.7,3.7,3.7H755.4c0,0,3.7,0,3.7,-3.7V965.4c0,0,0,-3.8,-3.7,-3.8H330.1Z" class="g3_19"/>
<path d="M215.4,961.6c0,0,-3.8,0,-3.8,3.8v52.7c0,0,0,3.7,3.8,3.7H315.8c0,0,3.7,0,3.7,-3.7V965.4c0,0,0,-3.8,-3.7,-3.8Z" class="g4_19"/>
<path d="M215.4,961.6c0,0,-3.8,0,-3.8,3.8v52.7c0,0,0,3.7,3.8,3.7H315.8c0,0,3.7,0,3.7,-3.7V965.4c0,0,0,-3.8,-3.7,-3.8H215.4Z" class="g5_19"/>
<path d="M330.1,1032.5c0,0,-3.7,0,-3.7,3.8v52.8c0,0,0,3.7,3.7,3.7H755.4c0,0,3.7,0,3.7,-3.7v-52.8c0,0,0,-3.8,-3.7,-3.8Z" class="g2_19"/>
<path d="M330.1,1032.5c0,0,-3.7,0,-3.7,3.8v52.8c0,0,0,3.7,3.7,3.7H755.4c0,0,3.7,0,3.7,-3.7v-52.8c0,0,0,-3.8,-3.7,-3.8H330.1Z" class="g3_19"/>
<path d="M215.4,1032.5c0,0,-3.8,0,-3.8,3.8V1089c0,0,0,3.8,3.8,3.8H315.8c0,0,3.7,0,3.7,-3.8v-52.7c0,0,0,-3.8,-3.7,-3.8Z" class="g4_19"/>
<path d="M215.4,1032.5c0,0,-3.8,0,-3.8,3.8V1089c0,0,0,3.8,3.8,3.8H315.8c0,0,3.7,0,3.7,-3.8v-52.7c0,0,0,-3.8,-3.7,-3.8H215.4Z" class="g5_19"/>
<path d="M330.1,1103.5c0,0,-3.7,0,-3.7,3.7V1160c0,0,0,3.8,3.7,3.8H755.4c0,0,3.7,0,3.7,-3.8v-52.8c0,0,0,-3.7,-3.7,-3.7Z" class="g2_19"/>
<path d="M330.1,1103.5c0,0,-3.7,0,-3.7,3.7V1160c0,0,0,3.8,3.7,3.8H755.4c0,0,3.7,0,3.7,-3.8v-52.8c0,0,0,-3.7,-3.7,-3.7H330.1Z" class="g3_19"/>
<path d="M215.4,1103.5c0,0,-3.8,0,-3.8,3.7v52.7c0,0,0,3.8,3.8,3.8H315.8c0,0,3.7,0,3.7,-3.8v-52.7c0,0,0,-3.7,-3.7,-3.7Z" class="g4_19"/>
<path d="M215.4,1103.5c0,0,-3.8,0,-3.8,3.7v52.7c0,0,0,3.8,3.8,3.8H315.8c0,0,3.7,0,3.7,-3.8v-52.7c0,0,0,-3.7,-3.7,-3.7H215.4Z" class="g5_19"/>
<image clip-path="url(#c6_19)" preserveAspectRatio="none" x="729" y="102" width="124" height="103" xlink:href="img/6.png"/>
<path d="M32.1,45.1H9.2m958.3,0h22.9M32.1,1331.3H9.2m958.3,0h22.9M45.1,32.1V9.2m0,1335.1v22.9M954.5,32.1V9.2m0,1335.1v22.9" class="g7_19"/>
<path d="M32.1,45.1H9.2m958.3,0h22.9M32.1,1331.3H9.2m958.3,0h22.9M45.1,32.1V9.2m0,1335.1v22.9M954.5,32.1V9.2m0,1335.1v22.9" class="g8_19"/>
<path d="M27.5,32.1H0m972.1,0h27.5M27.5,1344.3H0m972.1,0h27.5M32.1,27.5V0m0,1348.9v27.5M967.5,27.5V0m0,1348.9v27.5" class="g7_19"/>
<path d="M27.5,32.1H0m972.1,0h27.5M27.5,1344.3H0m972.1,0h27.5M32.1,27.5V0m0,1348.9v27.5M967.5,27.5V0m0,1348.9v27.5" class="g8_19"/>
</svg>