<?xml version="1.0" encoding="UTF-8" standalone="no"?>
<!DOCTYPE svg PUBLIC "-//W3C//DTD SVG 1.1//EN"
"http://www.w3.org/Graphics/SVG/1.1/DTD/svg11.dtd">
<svg viewBox="0 0 999 1376" version="1.1" xmlns="http://www.w3.org/2000/svg" xmlns:xlink="http://www.w3.org/1999/xlink">
<defs>
<clipPath id="c0_202"><path d="M32.1,1344.3V32.1H967.5V1344.3Z"/></clipPath>
<clipPath id="c1_202"><path d="M728.7,987V730.1H931.1V987Z"/></clipPath>
<clipPath id="c2_202"><path d="M735.6,983V733.8H925.3V983Z"/></clipPath>
<clipPath id="c3_202"><path d="M735.3,982.7V733.5H925V982.7Z"/></clipPath>
<clipPath id="c4_202"><path d="M57.5,804V597.2H245V804Z"/></clipPath>
<clipPath id="c5_202"><path d="M55,805.6V592.7H248.1V805.6Z"/></clipPath>
<clipPath id="c6_202"><path d="M54.7,805.3V592.4H247.8V805.3Z"/></clipPath>
<clipPath id="c7_202"><path d="M177,527.5l-6.5,-2.2L154.1,511.4V454.3h72v73.2Z"/></clipPath>
<clipPath id="c8_202"><path d="M176.9,1123.1l-6.5,-2.1L154,1107.1V1050h72v73.1Z"/></clipPath>
<clipPath id="c9_202"><path d="M764.8,429.2V416.8h14.5v12.4Z"/></clipPath>
<clipPath id="ca_202"><path d="M141.6,609q-.1,0,-.1,0c-.2,0,3.6,-8.2,3.6,-8.2l.8,.5c0,0,-4.1,7.7,-4.3,7.7Z"/></clipPath>
<clipPath id="cb_202"><path d="M149.1,601.3c0,0,-6.9,-1.1,-7.6,-5.2c-.7,-3.6,1.5,-3.8,2.1,-3.8c0,0,.1,0,.1,0L152,579.5l-1.5,-3c0,0,-.6,-1.2,.2,-2.1c0,-.1,.1,-.1,.3,-.1c2.1,0,12.9,5.5,12.9,5.5l.1,.2c-.4,.5,-.7,1.1,-1.4,1.6c-.7,.5,-5.1,1.2,-5.1,1.2l-8.4,18.5Z"/></clipPath>
<clipPath id="cc_202"><path d="M148.6,601c.3,-.5,.3,-1.8,0,-2.3v-1.4c-1.5,-.5,-2.8,-1.2,-3.6,-2.5c-1.1,.6,-2.1,1.2,-3.1,1.9c1.5,2.1,3.8,3.5,6.7,4.3Zm0,-3.9c2.2,-4.6,4,-9.5,6.2,-14.1c-.9,-.4,-1.8,-1.3,-2.6,-1.4c-2.3,4.3,-4.6,8.6,-7.1,12.8c.8,1.4,2.1,2,3.5,2.7Zm-7.2,12c1,-2.9,2.4,-5.4,3.5,-8.3c-2,-1.5,-3.9,-3.1,-4.4,-6.1v-1.5c-.1,-2.7,1.9,-3.4,4.6,-3.4c0,0,.1,0,.2,0c1.9,-3.4,4.2,-6.4,6.1,-9.7c-.6,-.9,-1.1,-2.4,-.9,-3.6c.5,1.2,1.7,1.8,2.4,2.8c-.1,.6,-.3,1.2,-.4,1.8c.6,.7,1.4,1.2,2.4,1.4c.5,-.4,.5,-1.3,1.2,-1.5c.9,.3,1.8,.7,3.1,.7c.1,.1,.5,.2,.8,.2c.4,0,.7,-.1,.8,-.2c.1,.1,.2,.1,.3,.1c.3,0,.5,-.1,.7,-.2c.1,0,.3,-.1,.5,-.1c.1,0,.2,0,.3,.1c-1.3,.7,-2.2,1.8,-4.2,1.8c-.1,0,-.2,0,-.3,0c-.9,3.7,-1.9,7.3,-2.7,11.1c.6,1.1,1.5,1.7,1.3,3.2c-.5,2.7,-3.9,4.4,-7.2,4.4c-1.3,0,-2.5,-.3,-3.6,-.8c-1,2.1,-2.1,4.2,-3.3,6.1c0,-.4,.3,-.4,.3,-.8c.9,-1.8,1.9,-3.6,2.6,-5.6c-1.1,1.7,-1.8,3.7,-2.8,5.5c-.2,.4,-.4,.8,-.6,1.2c-.3,.5,-.3,1.2,-.7,1.4Z"/></clipPath>
<clipPath id="cd_202"><path d="M159.1,581.4c-4.8,0,-13.1,-7.4,-5.5,-8.8h1.2c.2,0,.4,0,.7,0c.1,0,.2,0,.2,0c.3,0,.6,0,.9,.1c3,.6,8.2,3.8,7.5,7c-.2,1.2,-1.5,1.6,-3.1,1.7h-1.8c0,0,-.1,0,-.1,0Z"/></clipPath>
<clipPath id="ce_202"><path d="M832.2,747.5c-.3,-.1,3.5,-8.2,3.5,-8.2l.8,.5c0,0,-4,7.7,-4.3,7.7Z"/></clipPath>
<clipPath id="cf_202"><path d="M839.7,739.8c0,0,-6.9,-1.1,-7.6,-5.2c-.7,-3.6,1.5,-3.9,2.1,-3.9q.1,0,.1,0L842.6,718l-1.4,-3.1c0,0,-.6,-1.1,.1,-2c0,-.1,.2,-.1,.3,-.1c2.1,0,12.9,5.5,12.9,5.5l.1,.2c-.4,.5,-.7,1.1,-1.4,1.6c-.6,.5,-5.1,1.1,-5.1,1.1l-8.4,18.6Z"/></clipPath>
<clipPath id="cg_202"><path d="M839.3,739.4c.2,-.4,.2,-1.8,0,-2.2v-1.4c-1.6,-.5,-2.9,-1.2,-3.7,-2.5c-1.1,.6,-2.1,1.2,-3.1,1.9c1.5,2.1,3.8,3.5,6.8,4.2Zm0,-3.9c2.2,-4.5,4,-9.5,6.1,-14c-.9,-.4,-1.8,-1.3,-2.6,-1.4c-2.3,4.3,-4.6,8.6,-7.1,12.8c.8,1.3,2.1,2,3.6,2.6ZM832,747.6c1,-2.9,2.4,-5.5,3.5,-8.3c-2,-1.5,-3.9,-3.1,-4.4,-6.1v-1.5c0,-2.8,1.9,-3.4,4.6,-3.4q.1,0,.2,0c1.9,-3.4,4.2,-6.4,6.1,-9.7c-.5,-.9,-1.1,-2.4,-.8,-3.7c.5,1.3,1.6,1.9,2.3,2.9c-.1,.6,-.2,1.2,-.3,1.8c.6,.7,1.3,1.2,2.4,1.4c.4,-.5,.5,-1.3,1.1,-1.5c.9,.3,1.8,.7,3.1,.7c.2,.1,.5,.2,.8,.2c.4,0,.7,-.1,.9,-.2c.1,0,.2,.1,.3,.1c.2,0,.4,-.1,.6,-.2c.2,0,.3,-.1,.5,-.1c.1,0,.2,0,.3,.1c-1.3,.7,-2.2,1.8,-4.2,1.8c-.1,0,-.2,0,-.3,0c-.9,3.7,-1.9,7.3,-2.6,11.1c.5,1.1,1.5,1.7,1.2,3.2c-.4,2.7,-3.8,4.4,-7.2,4.4c-1.3,0,-2.5,-.3,-3.6,-.8c-1,2.1,-2.1,4.2,-3.3,6.1c0,-.4,.3,-.4,.3,-.8c.9,-1.8,1.9,-3.6,2.6,-5.7c-1,1.8,-1.8,3.7,-2.7,5.6c-.2,.4,-.5,.8,-.7,1.2c-.3,.4,-.3,1.2,-.7,1.4Z"/></clipPath>
<clipPath id="ch_202"><path d="M849.7,719.8c-4.8,0,-13.1,-7.3,-5.5,-8.8h1.2c.2,.1,.3,.1,.5,.1c.1,0,.2,0,.2,0q.1,0,.2,0c.3,0,.6,0,.9,.1c3.1,.6,8.2,3.8,7.5,7c-.2,1.2,-1.5,1.6,-3.1,1.6h-1.9Z"/></clipPath>
<clipPath id="ci_202"><path d="M125.5,386.7V205.8H858.6V386.7Z"/></clipPath>
<style type="text/css"><![CDATA[
.g0_202{
fill: #FEFCF4;
}
.g1_202{
fill: #FFF;
}
.g2_202{
fill: none;
stroke: #6381B7;
stroke-width: 0.763;
}
.g3_202{
fill: #F7C2D9;
}
.g4_202{
fill: #FDF4F3;
}
.g5_202{
fill: #EC008C;
}
.g6_202{
fill: none;
stroke: #818385;
stroke-width: 0.305;
stroke-dasharray: 3,3;
}
.g7_202{
fill: none;
stroke: #818385;
stroke-width: 0.305;
}
.g8_202{
fill: none;
stroke: #949698;
stroke-width: 0.305;
stroke-dasharray: 4,4;
}
.g9_202{
fill: none;
stroke: #949698;
stroke-width: 0.305;
stroke-dasharray: 3,3;
}
.ga_202{
fill: none;
stroke: #949698;
stroke-width: 0.305;
}
.gb_202{
fill: #6D6F71;
}
.gc_202{
fill: #FCE8B0;
}
.gd_202{
fill: #6381B7;
}
.ge_202{
fill: none;
stroke: #6381B7;
stroke-width: 0.381;
stroke-dasharray: 2,1;
}
.gf_202{
fill: none;
stroke: #6381B7;
stroke-width: 0.381;
}
.gg_202{
fill: #25408F;
}
.gh_202{
fill: #A8AAAD;
}
.gi_202{
fill: none;
stroke: #949698;
stroke-width: 0.549;
}
.gj_202{
fill: none;
stroke: #BCBEC0;
stroke-width: 2.566;
}
.gk_202{
fill: #231F20;
}
.gl_202{
fill: #363637;
}
.gm_202{
fill: #5CC4BE;
}
.gn_202{
fill: #EAD646;
}
.go_202{
fill: #2E6E51;
}
.gp_202{
fill: none;
stroke: #FFF;
stroke-width: 0.152;
stroke-miterlimit: 1;
}
.gq_202{
fill: #BCBEC0;
}
.gr_202{
fill: #EE314A;
}
.gs_202{
fill: #CEEDFB;
}
.gt_202{
fill: #27639D;
}
.gu_202{
fill: none;
stroke: #C3E7F1;
stroke-width: 1.527;
}
.gv_202{
fill: none;
stroke: #FFF;
stroke-width: 1.909;
stroke-miterlimit: 10;
}
.gw_202{
fill: none;
stroke: #000;
stroke-width: 0.381;
stroke-miterlimit: 10;
}
]]></style>
</defs>
<path d="M32.1,1344.3H954.5V32.1H32.1V1344.3Z" class="g0_202"/>
<path clip-path="url(#c0_202)" d="M954.5,1344.3H1877V32.1H954.5V1344.3Z" class="g0_202"/>
<path d="M150.4,428.7c0,0,-18.3,0,-18.3,18.4v564.5c0,0,0,18.3,18.3,18.3H827.5c0,0,18.4,0,18.4,-18.3V428.7Z" class="g1_202"/>
<path d="M150.4,428.7c0,0,-18.3,0,-18.3,18.4v564.5c0,0,0,18.3,18.3,18.3H827.5c0,0,18.4,0,18.4,-18.3V428.7H150.4Z" class="g2_202"/>
<image clip-path="url(#c1_202)" preserveAspectRatio="none" x="728" y="730" width="202" height="258" xlink:href="img/1.png"/>
<path d="M748.8,735L733.9,967.8l175.5,12.9L925.2,746.4Z" class="g3_202"/>
<image clip-path="url(#c2_202)" preserveAspectRatio="none" x="735" y="734" width="190" height="250" xlink:href="img/2.png"/>
<image clip-path="url(#c3_202)" preserveAspectRatio="none" x="735" y="734" width="189" height="249" xlink:href="img/3.png"/>
<path d="M742.1,738.8l-1.8,234.3l142.8,3.4L917,954.9l1.8,-212.1Z" class="g4_202"/>
<path d="M883.5,976.4l33.8,-21.2L898.2,948Z" class="g5_202"/>
<path d="M541.7,958.3c21.7,-.7,39.2,-6.1,42.9,-13.2m-.8,-6.9c-5.2,-6.6,-22.5,-11.5,-43.6,-11.9m-7.4,0c-21.6,.7,-39.1,6.1,-42.9,13.1m.8,7c5.2,6.6,22.6,11.5,43.6,11.9" class="g6_202"/>
<path d="M585.2,943.8c.1,-.5,.2,-1,.2,-1.5c0,-.5,-.1,-1,-.2,-1.5M538.8,926.2c-.5,0,-1,0,-1.5,0c-.5,0,-1,0,-1.5,0m-46.5,14.6c-.1,.5,-.2,1,-.2,1.5c0,.5,.1,1,.2,1.5m46.5,14.5c.5,0,1,0,1.5,0c.5,0,1,0,1.5,0" class="g7_202"/>
<path d="M511.5,926.8C522.7,913.8,566.9,871,658,879.3m7.5,2.4c.6,1.4,-.2,3.3,-1.3,4.8m-5.2,-.4c-1.1,-4.3,-.1,-12.4,10.5,-19.3" class="g8_202"/>
<path d="M676.2,863.2c19,-8.3,53.9,-10.9,74.4,-4.4" class="g9_202"/>
<path d="M508.6,930.4c0,0,.3,-.4,.9,-1.2m150,-49.8c.5,.1,1,.1,1.5,.2c.7,0,1.2,.1,1.7,.3m.4,7.9c-.4,.5,-.9,.9,-1.2,1.3c-.4,.3,-.9,.2,-1.4,-.3M670.8,866c.5,-.3,.9,-.6,1.4,-.8c.4,-.3,.9,-.5,1.3,-.7M752,859.2c.4,.2,.9,.4,1.3,.6" class="ga_202"/>
<path d="M751.2,855.8l-4.5,7.5l11.9,2.1Z" class="gb_202"/>
<image clip-path="url(#c4_202)" preserveAspectRatio="none" x="57" y="598" width="187" height="206" xlink:href="img/4.png"/>
<path d="M65.6,602.5l-3.2,193l174.8,2l1.3,-193.1Z" class="g3_202"/>
<image clip-path="url(#c5_202)" preserveAspectRatio="none" x="55" y="593" width="193" height="213" xlink:href="img/5.png"/>
<image clip-path="url(#c6_202)" preserveAspectRatio="none" x="54" y="593" width="193" height="213" xlink:href="img/6.png"/>
<path d="M59.4,607.3L70.2,799.1l140.2,-8.4l31.3,-24.3L232,597.2Z" class="g4_202"/>
<path d="M209.8,790.7l31.9,-24.3L227,754Z" class="g5_202"/>
<path d="M460.8,594.4c8.6,-1.3,15.3,-6.3,16.9,-12.7m-.4,-7.4c-2.3,-6,-9.4,-10.6,-18,-11.5m-7.4,.2c-8.6,1.3,-15.4,6.4,-17,12.7m.5,7.4c2.3,6,9.3,10.6,17.9,11.5" class="g6_202"/>
<path d="M478,580.2c.1,-.5,.1,-1,.1,-1.5c0,-.5,0,-1,-.1,-1.5M457.8,562.7c-.5,0,-1,0,-1.5,0c-.5,0,-1,0,-1.5,0m-20.2,14.5c0,.5,0,1,0,1.5c0,.5,0,1,0,1.5m20.2,14.5c.5,.1,1,.1,1.5,.1c.5,0,1,0,1.5,-.1" class="g7_202"/>
<path d="M436.3,567.8c-18.7,-2,-89.8,-8.4,-134.1,4m-7.7,2.6c-11.7,5.1,-5,10.9,.7,10.5m5.7,-4.5c-1.2,-3.7,-17.7,-4.7,-34.1,-4.8m-7.7,.2c-20.4,1.8,-46,14.8,-78.9,32.4" class="g8_202"/>
<path d="M440.9,568.3c0,0,-.5,-.1,-1.5,-.2m-138.7,4.1c-.5,.1,-1,.3,-1.5,.4c-.6,.2,-1.1,.4,-1.6,.5m-.7,11.5c.5,-.2,1.1,-.4,1.5,-.7c.5,-.4,.9,-.7,1.2,-.9m-34.3,-7.4c-.5,0,-1,0,-1.5,0c-.5,0,-1.1,0,-1.6,.1m-83.4,33.2c-.4,.3,-.9,.5,-1.3,.8" class="ga_202"/>
<path d="M185.1,609.5l-5.5,-6.9l-6,10.6Z" class="gb_202"/>
<path d="M209.6,456.5c0,0,-12.9,0,-12.9,13v47.6c0,0,0,13,12.9,13h602c0,0,13,0,13,-13V469.5c0,0,0,-13,-13,-13Z" class="gc_202"/>
<image clip-path="url(#c7_202)" preserveAspectRatio="none" x="153" y="453" width="75" height="76" xlink:href="img/7.png"/>
<path d="M204.4,522.7c0,0,-26.8,11.4,-51.1,-12.7c0,0,15.2,25.3,49.3,24c0,0,24.8,.3,20.3,-10.2c0,0,1.2,-4.4,-18.5,-1.1Z" class="gc_202"/>
<path d="M145.1,1037.9c0,0,-13,0,-13,13v137.5c0,0,0,13,13,13H832.9c0,0,13,0,13,-13V1050.9c0,0,0,-13,-13,-13Z" class="g1_202"/>
<path d="M145.1,1037.9c0,0,-13,0,-13,13v137.5c0,0,0,13,13,13H832.9c0,0,13,0,13,-13V1050.9c0,0,0,-13,-13,-13H145.1Z" class="g2_202"/>
<path d="M314.4,1216.1c0,0,-4.3,0,-4.3,4.4v10.8c0,0,0,4.3,4.3,4.3h30.3c0,0,4.4,0,4.4,-4.3v-10.8c0,0,0,-4.4,-4.4,-4.4Z" class="gd_202"/>
<path d="M301.2,1208.7v34.8m1.4,1H845.1m1,-1.4v-34.8m-1.4,-1H302.2" class="ge_202"/>
<path d="M301.2,1243.9v.6h.6m543.7,0h.6v-.6m0,-36v-.6h-.6m-543.7,0h-.6v.6" class="gf_202"/>
<path d="M209.5,1078.1c0,0,-13,0,-13,13v21.7c0,0,0,13,13,13h602c0,0,13,0,13,-13v-21.7c0,0,0,-13,-13,-13Z" class="gc_202"/>
<image clip-path="url(#c8_202)" preserveAspectRatio="none" x="152" y="1048" width="75" height="77" xlink:href="img/8.png"/>
<path d="M204.3,1118.4c0,0,-26.8,11.3,-51.1,-12.7c0,0,15.2,25.3,49.3,23.9c0,0,24.8,.4,20.2,-10.1c0,0,1.3,-4.4,-18.4,-1.1Z" class="gc_202"/>
<path d="M131.7,408.7v38.9l11.7,10.3V413.7Z" class="gg_202"/>
<path d="M131.7,408.7v38.9H829.5c0,0,16.8,0,16.8,-16.8v-5.3c0,0,0,-16.8,-16.8,-16.8Z" class="gd_202"/>
<path d="M781,442.3c8.2,0,14.8,-6.5,14.8,-14.5c0,-8,-6.6,-14.5,-14.8,-14.5c-8.3,0,-14.9,6.5,-14.9,14.5c0,8,6.6,14.5,14.9,14.5Z" class="gh_202"/>
<path d="M781,442.3c8.2,0,14.8,-6.5,14.8,-14.5c0,-8,-6.6,-14.5,-14.8,-14.5c-8.3,0,-14.9,6.5,-14.9,14.5c0,8,6.6,14.5,14.9,14.5Z" class="gi_202"/>
<path d="M781,433.1c3,0,5.4,-2.4,5.4,-5.3c0,-3,-2.4,-5.4,-5.4,-5.4c-3.1,0,-5.5,2.4,-5.5,5.4c0,2.9,2.4,5.3,5.5,5.3Z" class="g1_202"/>
<path d="M781,433.1c3,0,5.4,-2.4,5.4,-5.3c0,-3,-2.4,-5.4,-5.4,-5.4c-3.1,0,-5.5,2.4,-5.5,5.4c0,2.9,2.4,5.3,5.5,5.3Z" class="gj_202"/>
<g clip-path="url(#c9_202)" opacity="0.3">
<path d="M766.4,427c0,0,-.1,-4.8,3.6,-8.6l7.8,6.7c0,0,-1,.9,-1.1,2.6Z" class="g1_202"/>
</g>
<path d="M785.6,427.7c0,0,-3.5,0,-3.5,3.4v8.7c0,0,0,3.5,3.5,3.5H829c0,0,3.5,0,3.5,-3.5v-8.7c0,0,0,-3.4,-3.5,-3.4Z" class="gk_202"/>
<path d="M169.5,418.7c0,-8.3,-6.7,-15,-15,-15c-8.4,0,-15.1,6.7,-15.1,15c0,8.4,6.8,15.1,15.1,15.1c.8,0,1.6,-.1,2.4,-.2l4.5,5.2v-6.7c4.8,-2.5,8.1,-7.5,8.1,-13.4Z" class="g1_202"/>
<path d="M161.8,440.1l-5.1,-6c-.7,.1,-1.5,.2,-2.2,.2c-8.6,0,-15.6,-7,-15.6,-15.6c0,-8.5,7,-15.5,15.6,-15.5c8.5,0,15.5,7,15.5,15.5c0,5.8,-3.1,11,-8.2,13.7Zm-4.7,-7l3.8,4.5v-5.8l.3,-.1c4.8,-2.5,7.9,-7.5,7.9,-13c0,-8,-6.6,-14.6,-14.6,-14.6c-8.1,0,-14.6,6.6,-14.6,14.6c0,8.1,6.5,14.6,14.6,14.6c.7,0,1.5,0,2.3,-.2Z" class="gl_202"/>
<path d="M147.4,418.3c.8,0,1.5,.6,1.5,1.4c0,.8,-.7,1.5,-1.5,1.5c-.7,0,-1.4,-.7,-1.4,-1.5c0,-.8,.7,-1.4,1.4,-1.4Z" class="gm_202"/>
<path d="M147.4,421.6c-1,0,-1.8,-.8,-1.8,-1.9c0,-1,.8,-1.9,1.8,-1.9c1.1,0,1.9,.9,1.9,1.9c0,1.1,-.8,1.9,-1.9,1.9m0,-2.8c-.5,0,-.9,.4,-.9,.9c0,.6,.4,1,.9,1c.6,0,1,-.4,1,-1c0,-.5,-.4,-.9,-1,-.9Z" class="gl_202"/>
<path d="M154.5,418.3c.8,0,1.4,.6,1.4,1.4c0,.8,-.6,1.5,-1.4,1.5c-.8,0,-1.5,-.7,-1.5,-1.5c0,-.8,.7,-1.4,1.5,-1.4Z" class="gm_202"/>
<path d="M154.5,421.6c-1.1,0,-1.9,-.8,-1.9,-1.9c0,-1,.8,-1.9,1.9,-1.9c1,0,1.9,.9,1.9,1.9c0,1.1,-.9,1.9,-1.9,1.9m0,-2.8c-.6,0,-1,.4,-1,.9c0,.6,.4,1,1,1c.5,0,.9,-.4,.9,-1c0,-.5,-.4,-.9,-.9,-.9Z" class="gl_202"/>
<path d="M161.5,418.3c.8,0,1.4,.6,1.4,1.4c0,.8,-.6,1.5,-1.4,1.5c-.8,0,-1.5,-.7,-1.5,-1.5c0,-.8,.7,-1.4,1.5,-1.4Z" class="gm_202"/>
<path d="M161.5,421.6c-1.1,0,-1.9,-.8,-1.9,-1.9c0,-1,.8,-1.9,1.9,-1.9c1,0,1.9,.9,1.9,1.9c0,1.1,-.9,1.9,-1.9,1.9m0,-2.8c-.6,0,-1,.4,-1,.9c0,.6,.4,1,1,1c.5,0,1,-.4,1,-1c0,-.5,-.5,-.9,-1,-.9Z" class="gl_202"/>
<path d="M163.4,433c0,-9.8,7.9,-17.6,17.6,-17.6c9.7,0,17.6,7.8,17.6,17.6c0,9.7,-7.9,17.6,-17.6,17.6c-.9,0,-1.9,-.1,-2.8,-.2l-5.3,6.1v-7.9c-5.6,-2.9,-9.5,-8.8,-9.5,-15.6Z" class="gn_202"/>
<path d="M172.9,456.9c0,0,-.1,0,-.1,0c-.2,-.1,-.3,-.2,-.3,-.4v-7.6c-5.9,-3.2,-9.6,-9.2,-9.6,-15.9c0,-10,8.2,-18.1,18.1,-18.1c10,0,18.1,8.1,18.1,18.1c0,9.9,-8.1,18,-18.1,18c-.8,0,-1.7,0,-2.6,-.1l-5.1,5.9c-.1,.1,-.2,.1,-.4,.1M181,415.8c-9.4,0,-17.1,7.7,-17.1,17.2c0,6.4,3.5,12.3,9.2,15.2c.2,.1,.3,.3,.3,.4v6.6l4.4,-5.1c.1,-.2,.3,-.2,.5,-.2c.9,.2,1.8,.2,2.7,.2c9.5,0,17.2,-7.7,17.2,-17.1c0,-9.5,-7.7,-17.2,-17.2,-17.2Z" class="gl_202"/>
<path d="M189.2,432.5c.9,0,1.7,.7,1.7,1.7c0,.9,-.8,1.6,-1.7,1.6c-.9,0,-1.7,-.7,-1.7,-1.6c0,-1,.8,-1.7,1.7,-1.7Z" class="g1_202"/>
<path d="M189.2,436.3c-1.2,0,-2.1,-1,-2.1,-2.1c0,-1.2,.9,-2.2,2.1,-2.2c1.2,0,2.1,1,2.1,2.2c0,1.1,-.9,2.1,-2.1,2.1m0,-3.4c-.7,0,-1.2,.6,-1.2,1.3c0,.6,.5,1.2,1.2,1.2c.7,0,1.2,-.6,1.2,-1.2c0,-.7,-.5,-1.3,-1.2,-1.3Z" class="gl_202"/>
<path d="M181,432.5c.9,0,1.7,.7,1.7,1.7c0,.9,-.8,1.6,-1.7,1.6c-.9,0,-1.7,-.7,-1.7,-1.6c0,-1,.8,-1.7,1.7,-1.7Z" class="g1_202"/>
<path d="M181,436.3c-1.2,0,-2.1,-1,-2.1,-2.1c0,-1.2,.9,-2.2,2.1,-2.2c1.2,0,2.1,1,2.1,2.2c0,1.1,-.9,2.1,-2.1,2.1m0,-3.4c-.7,0,-1.2,.6,-1.2,1.3c0,.6,.5,1.2,1.2,1.2c.7,0,1.2,-.6,1.2,-1.2c0,-.7,-.5,-1.3,-1.2,-1.3Z" class="gl_202"/>
<path d="M172.8,432.5c.9,0,1.7,.7,1.7,1.7c0,.9,-.8,1.6,-1.7,1.6c-.9,0,-1.7,-.7,-1.7,-1.6c0,-1,.8,-1.7,1.7,-1.7Z" class="g1_202"/>
<path d="M172.8,436.3c-1.2,0,-2.1,-1,-2.1,-2.1c0,-1.2,.9,-2.2,2.1,-2.2c1.2,0,2.1,1,2.1,2.2c0,1.1,-.9,2.1,-2.1,2.1m0,-3.4c-.7,0,-1.2,.6,-1.2,1.3c0,.6,.5,1.2,1.2,1.2c.7,0,1.2,-.6,1.2,-1.2c0,-.7,-.5,-1.3,-1.2,-1.3Z" class="gl_202"/>
<path d="M32.1,179.3H967.5V32.1H32.1V179.3Z" class="go_202"/>
<path d="M262.3,134H247.1l1.2,1.2h11.8v8.2L258.5,142c.2,-.6,.3,-1.3,.3,-1.9c0,-.8,-.2,-1.6,-.6,-2.2c-.3,-.5,-.6,-.9,-1,-1.2c-.5,-.3,-.9,-.6,-1.4,-.7c-.3,-.1,-.6,-.2,-.9,-.2c-.7,0,-1.3,.2,-2,.7c-.3,.2,-.5,.5,-.7,.8c-.1,.3,-.2,.6,-.2,.9c0,.4,0,.7,.2,.9c.3,.5,.7,.7,1.2,.8c.6,.1,1.1,0,1.5,-.3c.2,-.2,.4,-.4,.6,-.6c.1,-.3,.2,-.5,.2,-.8c0,-.3,-.1,-.6,-.4,-1c.3,-.1,.5,-.1,.7,0c.2,0,.5,.1,.8,.3c.1,.2,.3,.4,.5,.7c.2,.3,.3,.6,.4,.9c.1,.3,.1,.5,.1,.7c0,.6,-.2,1.1,-.5,1.7c-.4,.8,-1.4,1.3,-2.8,1.3c-.5,0,-1.1,-.2,-1.6,-.5c-.6,-.3,-1.1,-.8,-1.5,-1.4c-.5,-.5,-.9,-1.2,-1.2,-2c-.4,-.8,-.7,-1.7,-.9,-2.7l-.7,-.3c.1,1,.3,2,.6,2.9c.2,.9,.5,1.7,.9,2.3c.3,.5,.7,1,1,1.5c.4,.4,.8,.8,1.2,1.1c.4,.3,.8,.6,1.2,.7c.5,.2,.9,.3,1.3,.3c.7,0,1.3,-.2,1.9,-.4c.5,-.3,1,-.7,1.3,-1.2c1.4,.9,2.4,2.4,2.9,4.5v-.1l.4,.3V135.2h2.2L262.3,134Zm5.5,1.2L266.7,134h-1.1c-.4,-.4,-.6,-1,-.7,-1.9l-.5,-.3c0,.2,0,.5,0,.9c.1,.3,.1,.7,.1,1.2c.1,.5,.1,.9,.1,1.3c0,.3,0,.6,0,.9c-.2,-.8,-.5,-1.3,-.9,-1.6c-.4,-.3,-1,-.5,-1.7,-.5h-1.4l1.2,1.2c.3,0,.7,.1,1,.2c.3,.1,.6,.3,.8,.5c.3,.2,.5,.4,.6,.7c.2,.3,.2,.7,.2,1v8.9l1.2,1.2V135.2h2.2Zm12.7,0L279.4,134H266.5c.3,.4,.6,.7,.9,.9c.2,.2,.4,.4,.5,.5c.3,.2,.6,.4,.9,.6c.3,.1,.6,.2,.9,.3c.5,.1,.9,.2,1.2,.3c.4,.1,.7,.2,.9,.4c.2,.2,.4,.4,.5,.7c.1,.4,.2,.8,.3,1.4c-.4,.5,-.8,.9,-1,1.3c-.3,.3,-.5,.5,-.7,.7c-.1,.2,-.3,.3,-.4,.4q-.1,0,-.2,0c-.2,0,-.3,0,-.5,-.1c-.1,-.1,-.2,-.3,-.3,-.4c-.1,-.2,-.2,-.4,-.3,-.6c0,-.2,-.1,-.3,-.1,-.5l-.8,.8c.1,.2,.3,.5,.4,.8c.2,.3,.4,.6,.6,.9c.3,.3,.5,.5,.8,.7c.3,.1,.6,.2,1,.2c.1,0,.3,0,.4,-.1c.2,0,.4,-.1,.6,-.3c.2,-.2,.5,-.5,.7,-.9c.3,-.4,.7,-.9,1.1,-1.6c.4,-.6,.8,-1,1.3,-1.1c.4,0,.7,.1,1,.4c.3,.4,.6,.9,.8,1.6c.2,.7,.3,1.6,.3,2.5v.4c0,.1,0,.3,-.1,.5c0,.1,0,.4,0,.7c0,.3,0,.6,0,1.1c.2,.2,.3,.4,.5,.6c.2,.3,.4,.5,.6,.7V135.2h2.2Zm-3.3,4.1c-.4,-.4,-.7,-.8,-1,-1.1c-.3,-.4,-.6,-.6,-.9,-.7c-.3,-.1,-.6,-.1,-.9,.1c-.4,.1,-.7,.4,-1.1,.8c-.1,-.6,-.2,-1.1,-.4,-1.6c-.3,-.5,-.7,-1,-1.4,-1.6h5.7v4.1Zm3.9,13c-.1,-.1,-.2,-.3,-.3,-.5c-.1,-.1,-.3,-.3,-.5,-.6c-.3,-.4,-.6,-.7,-1,-1c-.3,-.4,-.6,-.7,-.9,-.9c0,-.4,0,-.8,0,-1.2c0,-.5,-.1,-.9,-.3,-1.2l-1,-.7c.1,.5,.2,1,.2,1.4c0,.5,0,.8,-.1,1c-.7,-.4,-1.3,-.6,-1.8,-.6c-.3,0,-.5,0,-.8,.1c-.3,.1,-.5,.2,-.7,.4c-.2,.2,-.4,.4,-.5,.6c-.1,.3,-.2,.5,-.2,.8c0,.6,.3,1,.7,1.4c.5,.3,1,.4,1.6,.4c1,0,1.9,-.5,2.5,-1.4c.2,.2,.5,.3,.8,.6c.2,.2,.5,.4,.8,.7c.3,.3,.5,.5,.8,.8c.3,.3,.5,.6,.7,.9v-1Zm-4.8,-3c.2,.1,.3,.2,.5,.4c-.1,.2,-.4,.4,-.7,.6c-.4,.2,-.7,.3,-1.1,.2c-.4,-.1,-.6,-.3,-.6,-.7c.1,-.4,.5,-.7,1.3,-.7c.2,.1,.4,.1,.6,.2Zm15.5,-14.1L290.6,134H278.9l1.2,1.2h8.4v6.6c-1.3,-2.6,-2.8,-4,-4.4,-4c-.8,0,-1.5,.3,-2.1,.9c-.6,.5,-.9,1.2,-.9,2c0,1.5,.8,2.2,2.3,2.2c.5,0,.9,-.2,1.2,-.5c.3,-.4,.5,-.8,.5,-1.3c0,-.3,-.3,-.8,-.8,-1.5c0,-.1,.2,-.1,.3,-.1c1.3,0,2.4,.8,3.4,2.5c.6,1.4,.9,2.9,.9,4.2l-.1,1.3l.9,.6V135.2h2.1ZM313.1,134H297.9l1.2,1.2h11.8v8.2L309.3,142c.2,-.6,.3,-1.3,.3,-1.9c0,-.8,-.2,-1.6,-.6,-2.2c-.3,-.5,-.7,-.9,-1.1,-1.2c-.4,-.3,-.8,-.6,-1.3,-.7c-.3,-.1,-.6,-.2,-1,-.2c-.6,0,-1.3,.2,-2,.7c-.2,.2,-.4,.5,-.6,.8c-.2,.3,-.3,.6,-.3,.9c0,.4,.1,.7,.2,.9c.3,.5,.8,.7,1.3,.8c.5,.1,1,0,1.4,-.3c.3,-.2,.5,-.4,.6,-.6c.2,-.3,.3,-.5,.3,-.8c0,-.3,-.2,-.6,-.4,-1c.2,-.1,.4,-.1,.7,0c.2,0,.5,.1,.7,.3c.2,.2,.4,.4,.5,.7c.2,.3,.4,.6,.5,.9c0,.3,0,.5,0,.7c0,.6,-.1,1.1,-.4,1.7c-.5,.8,-1.4,1.3,-2.8,1.3c-.6,0,-1.1,-.2,-1.7,-.5c-.5,-.3,-1,-.8,-1.5,-1.4c-.4,-.5,-.8,-1.2,-1.2,-2c-.3,-.8,-.6,-1.7,-.8,-2.7l-.7,-.3c.1,1,.3,2,.5,2.9c.3,.9,.6,1.7,.9,2.3c.4,.5,.7,1,1.1,1.5c.4,.4,.8,.8,1.2,1.1c.4,.3,.8,.6,1.2,.7c.4,.2,.8,.3,1.2,.3c.7,0,1.4,-.2,1.9,-.4c.6,-.3,1,-.7,1.3,-1.2c1.4,.9,2.4,2.4,3,4.5v-.1l.4,.3V135.2h2.2L313.1,134Zm5.5,1.2L317.4,134h-1c-.4,-.4,-.7,-1,-.8,-1.9l-.4,-.3c0,.2,0,.5,0,.9c0,.3,0,.7,.1,1.2c0,.5,0,.9,.1,1.3c0,.3,0,.6,0,.9c-.3,-.8,-.6,-1.3,-1,-1.6c-.4,-.3,-1,-.5,-1.7,-.5h-1.3l1.1,1.2c.4,0,.7,.1,1,.2c.4,.1,.6,.3,.9,.5c.2,.2,.4,.4,.6,.7c.1,.3,.2,.7,.2,1v8.9l1.2,1.2V135.2h2.2Zm6.2,-1.2h-8l1.2,1.2h4c-1.7,2,-2.5,4,-2.5,6.1c0,1.5,.3,2.8,.9,3.9c.7,1.4,1.8,2.1,3.2,2.1c.3,0,.6,0,.8,-.1c.3,-.1,.5,-.2,.7,-.4c.2,-.2,.4,-.4,.5,-.7c.1,-.2,.2,-.5,.2,-.8c0,-.4,-.2,-.9,-.5,-1.2c-.2,-.3,-.6,-.5,-1,-.5c-.4,0,-.7,.2,-1,.4c-.3,.3,-.5,.6,-.5,1c0,.2,.1,.4,.2,.7c.1,.2,.3,.4,.6,.6c-.7,.2,-1.5,-.2,-2.2,-1.3c-.5,-.7,-.7,-1.5,-.7,-2.3c0,-1,.1,-1.9,.3,-2.7c.2,-.7,.5,-1.4,.9,-2.1c.5,-.7,1.1,-1.3,1.7,-1.7c.7,-.5,1.4,-.8,2.3,-1L324.8,134Zm12.1,1.2L335.7,134H323.9l1.2,1.2h8.2v.9c-2.5,.8,-5,2.1,-7.4,3.7l1.6,2.3c1.7,.1,3.1,.7,4.1,1.6c.3,.3,.6,.6,.9,1c.3,.4,.6,.8,.7,1c.2,.3,.4,.7,.6,1.3l.7,.8V135.2h2.4Zm-3.6,9.4c-1.1,-1.8,-2.7,-3.2,-4.8,-4.1c.8,-.6,1.7,-1.1,2.5,-1.5c.7,-.4,1.5,-.7,2.3,-1v6.6Zm-4.7,1.7c.2,.3,.5,.4,.9,.4c.3,0,.6,-.1,.8,-.4c.3,-.2,.4,-.5,.4,-.8c0,-.4,-.1,-.7,-.4,-.9c-.2,-.3,-.5,-.4,-.8,-.4c-.4,0,-.7,.1,-.9,.4c-.3,.2,-.4,.5,-.4,.9c0,.3,.1,.6,.4,.8Zm12.7,-11.1L340.1,134h-1c-.4,-.4,-.7,-1,-.8,-1.9l-.4,-.3c0,.2,0,.5,0,.9c0,.3,0,.7,.1,1.2c0,.5,0,.9,0,1.3c.1,.3,.1,.6,.1,.9c-.3,-.8,-.6,-1.3,-1,-1.6c-.4,-.3,-1,-.5,-1.7,-.5H334l1.2,1.2c.4,0,.7,.1,1,.2c.4,.1,.6,.3,.9,.5c.2,.2,.4,.4,.6,.7c.1,.3,.2,.7,.2,1v8.9l1.2,1.2V135.2h2.2Zm18.4,0L358.5,134H347.4c.4,.4,.8,.7,1.1,.9c.3,.3,.5,.5,.7,.7c.3,.2,.7,.4,1,.5c.4,.2,.8,.4,1.2,.5c.8,.4,1.5,.7,1.8,1c-.6,.4,-1.3,.9,-1.9,1.4c-.7,.5,-1.2,1.1,-1.8,1.6l1.7,2c1.7,.1,2.9,.5,3.8,1.2c.5,.4,1,.9,1.3,1.5c.3,.6,.5,1.1,.7,1.6l.8,.9V135.2h1.9Zm-3.1,9.4c-1.1,-1.7,-2.6,-2.9,-4.5,-3.6c.5,-.5,1,-1.1,1.5,-1.6c.5,-.5,1,-.9,1.4,-1.3c-1.3,-1.5,-2.3,-2.5,-3.1,-2.9h4.7v9.4Zm13.2,.5v5h-.1c-.2,-.9,-.7,-1.7,-1.5,-2.4c-.8,-.7,-1.7,-1.1,-2.6,-1.1c-.9,0,-1.6,.3,-2.1,.7c-.6,.5,-.9,1.2,-.9,2.1c0,.6,.2,1,.6,1.4c.4,.4,.9,.5,1.5,.5c.5,0,.8,-.1,1.1,-.4c.2,-.3,.4,-.7,.4,-1.2c0,-.6,-.4,-1.2,-1,-1.7c.2,-.1,.4,-.1,.6,-.1c2.2,0,3.8,1.7,4.6,5l.5,.5v-9.3l-1.1,1ZM372.4,134H358.1l1.3,1.2h14.2L372.4,134Zm-.6,5.6c-.2,-.6,-.5,-1.2,-.9,-1.7c-.5,-.5,-1,-.9,-1.5,-1.1c-.6,-.3,-1.2,-.5,-1.8,-.5c-.8,0,-1.5,.3,-2,.7c-.6,.5,-.9,1.1,-.9,1.9c0,.6,.2,1.2,.5,1.6c.4,.5,.9,.7,1.5,.7c1.3,0,1.9,-.6,1.9,-1.7c0,-.5,-.1,-1,-.5,-1.4c.4,-.1,.7,-.2,.9,-.2c.6,0,1.1,.3,1.6,.9c.3,.6,.5,1.1,.5,1.8c0,.8,-.3,1.6,-1.1,2.2c-.7,.6,-1.5,.9,-2.4,.9c-1.7,0,-3.2,-.8,-4.4,-2.6c-.3,-.3,-.7,-1,-1.1,-1.8c-.4,-.9,-.9,-1.9,-1.4,-3.1l-.6,-.2c1.8,6.5,4.3,9.8,7.5,9.8c1.1,0,2.2,-.5,3.1,-1.3c.5,-.4,.8,-.8,1.1,-1.4c.2,-.5,.3,-1,.3,-1.6c0,-.7,-.1,-1.3,-.3,-1.9Zm13.3,-4.4L383.9,134H372.1l1.1,1.2h8.2v.9c-2.5,.8,-4.9,2.1,-7.3,3.7l1.5,2.3c1.7,.1,3.1,.7,4.1,1.6c.3,.3,.6,.6,.9,1c.4,.4,.6,.8,.8,1.2c.2,.3,.3,.5,.4,.7c0,.1,.1,.2,.1,.4l.7,.8V135.2h2.5Zm-3.7,9.4c-1,-1.8,-2.6,-3.2,-4.8,-4.1c.9,-.6,1.7,-1.1,2.5,-1.5c.8,-.4,1.6,-.7,2.3,-1v6.6Zm7.9,-9.4L388.1,134h-1c-.4,-.4,-.6,-1,-.8,-1.9l-.4,-.3c0,.2,0,.5,0,.9c0,.3,0,.7,.1,1.2c0,.5,0,.9,.1,1.3c0,.3,0,.6,0,.9c-.3,-.8,-.6,-1.3,-1,-1.6c-.4,-.3,-.9,-.5,-1.7,-.5h-1.3l1.2,1.2c.3,0,.6,.1,1,.2c.3,.1,.6,.3,.8,.5c.3,.2,.5,.4,.6,.7c.1,.3,.2,.7,.2,1v8.9l1.2,1.2V135.2h2.2Zm11.2,0L399.2,134H387.6l1.1,1.2h8.5v6.6h-.1c-1.3,-2.6,-2.7,-4,-4.4,-4c-.8,0,-1.5,.3,-2.1,.9c-.6,.5,-.9,1.2,-.9,2c0,1.5,.8,2.2,2.3,2.2c.5,0,.9,-.2,1.2,-.5c.3,-.4,.5,-.8,.5,-1.3c0,-.3,-.3,-.8,-.8,-1.5c.1,-.1,.2,-.1,.3,-.1c1.3,0,2.4,.8,3.4,2.5c.6,1.4,.9,2.9,.9,4.2l-.1,1.3l1,.6V135.2h2.1ZM418.4,134H406.3l1.2,1.2h4.3c.5,.4,.8,.7,.8,1c-.7,0,-1.4,.3,-1.9,.8c-.6,.5,-.9,1.1,-.9,1.8c0,.4,.2,.7,.5,.9c.3,.2,.6,.3,.9,.3c.6,0,1.1,-.2,1.6,-.7c.5,-.5,.7,-1,.7,-1.6c.2,0,.3,-.1,.4,-.1c.1,0,.3,0,.4,0c.2,0,.4,.1,.6,.2c.2,.1,.3,.2,.5,.4c.1,.2,.2,.4,.3,.7c.1,.2,.1,.5,.1,.7c.1,.8,-.4,1.5,-1.4,2c-.7,.3,-1.5,.5,-2.4,.4c-1.3,-.1,-2.4,-.4,-3.4,-1l1.4,3c.9,.2,1.8,.5,2.6,.9c.9,.3,1.8,.7,2.6,1.2c.8,.5,1.6,1,2.3,1.5c.7,.6,1.3,1.2,1.9,1.9l-.3,-1.3c-1.1,-1.1,-2.1,-2,-3,-2.8c-.9,-.8,-1.8,-1.4,-2.6,-1.9c1.2,-.3,2.1,-.7,2.7,-1.2c.8,-.6,1.2,-1.4,1.2,-2.4c0,-1,-.4,-1.8,-1,-2.5c-.4,-.5,-1.2,-.9,-2.4,-1.3c-.1,-.2,-.3,-.3,-.4,-.5c-.1,-.1,-.2,-.2,-.3,-.4h6.3L418.4,134Zm10.8,0h-1c.1,-1.1,-.3,-2,-1.1,-2.5c-.7,-.6,-1.9,-.9,-3.4,-.9c-.8,.1,-1.5,.1,-2,.2c-.5,0,-.9,0,-1.1,0c-.4,0,-.8,-.1,-1.1,-.3c-.5,-.3,-.7,-.6,-.7,-1c0,-.4,.2,-.8,.5,-1c0,0,-.1,0,-.1,0q-.1,0,-.2,0c-.1,-.1,-.3,.1,-.5,.5c-.2,.3,-.3,.6,-.3,.8c0,.8,.4,1.5,1.3,2c.7,.4,1.6,.7,2.5,.7c.2,0,.4,-.1,.7,-.1c.3,0,.6,0,1,0c.4,-.1,.8,-.1,1.1,-.1c.3,0,.5,0,.7,0c.2,0,.4,0,.6,0c.2,0,.3,.1,.5,.1c.5,.2,.7,.4,.7,.7c0,.3,-.2,.5,-.6,.7c-.2,.1,-.3,.1,-.5,.1c-.2,.1,-.4,.1,-.5,.1h-8.2l1.2,1.2h3.9c.5,.4,.8,.7,.8,1c-.8,0,-1.4,.3,-2,.8c-.5,.5,-.8,1.1,-.8,1.8c0,.4,.1,.7,.4,.9c.3,.2,.7,.3,1,.3c.6,0,1.1,-.2,1.6,-.7c.5,-.5,.7,-1,.7,-1.6c.1,0,.2,0,.3,-.1c.1,0,.2,0,.3,0c.3,0,.5,.1,.7,.2c.2,.1,.4,.2,.6,.4c.1,.2,.2,.4,.3,.7c.1,.2,.1,.5,.1,.7c.1,.8,-.4,1.5,-1.4,2c-.7,.3,-1.5,.5,-2.5,.4c-1.2,-.1,-2.3,-.4,-3.3,-1l1.4,3c.9,.2,1.8,.5,2.6,.9c.9,.3,1.7,.7,2.6,1.2c.8,.5,1.6,1,2.3,1.5c.6,.6,1.3,1.2,1.8,1.9l-.2,-1.3c-1.1,-1.1,-2.1,-2,-3,-2.8c-.9,-.8,-1.8,-1.4,-2.6,-1.9c1.2,-.3,2.1,-.7,2.7,-1.2c.7,-.6,1.1,-1.5,1.1,-2.4c0,-1,-.3,-1.8,-.9,-2.5c-.4,-.5,-1.3,-.9,-2.5,-1.3c-.1,-.2,-.2,-.3,-.3,-.5c-.1,-.1,-.2,-.2,-.3,-.4h6.3L429.2,134Z" class="gp_202"/>
<g clip-path="url(#c0_202)">
<path d="M1877,177.2H32.1v-5.4H768.7c43.1,0,53,-37.9,115.3,-37.9h993Z" class="gq_202"/>
<path d="M1877,183.7H32.1v-9.8H768.7c43.1,0,53,-33.6,115.3,-33.6h993Z" class="gr_202"/>
</g>
<image clip-path="url(#ca_202)" x="141" y="600" width="5" height="10" xlink:href="shade/1.png"/>
<image clip-path="url(#cb_202)" x="140" y="574" width="24" height="28" xlink:href="shade/2.png"/>
<image clip-path="url(#cc_202)" x="140" y="576" width="23" height="34" xlink:href="shade/3.png"/>
<image clip-path="url(#cd_202)" x="145" y="572" width="20" height="10" xlink:href="shade/4.png"/>
<image clip-path="url(#ce_202)" x="831" y="739" width="6" height="9" xlink:href="shade/5.png"/>
<image clip-path="url(#cf_202)" x="831" y="712" width="24" height="28" xlink:href="shade/6.png"/>
<image clip-path="url(#cg_202)" x="831" y="714" width="23" height="34" xlink:href="shade/7.png"/>
<image clip-path="url(#ch_202)" x="836" y="711" width="20" height="9" xlink:href="shade/8.png"/>
<image clip-path="url(#ci_202)" preserveAspectRatio="none" x="125" y="206" width="734" height="181" xlink:href="img/9.png"/>
<path d="M144.6,231.3c0,0,-13,0,-13,13v117c0,0,0,13,13,13H833.1c0,0,13,0,13,-13v-130Z" class="gs_202"/>
<path d="M147.7,294.1l54.1,40.8l54.1,-40.8V230h8.7V211.9H155.8c-6.5,.4,-7.7,3.9,-8.2,8.4Z" class="gt_202"/>
<path d="M274,220.3c-.3,-4.7,-4.2,-8.4,-9,-8.4c-4.8,0,-8.7,3.7,-9,8.4h-.1V230h18.2v-9.7Z" class="gk_202"/>
<path d="M255.9,230.6H846.1" class="gu_202"/>
<path d="M32.1,45.1H9.2m958.3,0h22.9M32.1,1331.3H9.2m958.3,0h22.9M45.1,32.1V9.2m0,1335.1v22.9M954.5,32.1V9.2m0,1335.1v22.9" class="gv_202"/>
<path d="M32.1,45.1H9.2m958.3,0h22.9M32.1,1331.3H9.2m958.3,0h22.9M45.1,32.1V9.2m0,1335.1v22.9M954.5,32.1V9.2m0,1335.1v22.9" class="gw_202"/>
<path d="M27.5,32.1H0m972.1,0h27.5M27.5,1344.3H0m972.1,0h27.5M32.1,27.5V0m0,1348.9v27.5M967.5,27.5V0m0,1348.9v27.5" class="gv_202"/>
<path d="M27.5,32.1H0m972.1,0h27.5M27.5,1344.3H0m972.1,0h27.5M32.1,27.5V0m0,1348.9v27.5M967.5,27.5V0m0,1348.9v27.5" class="gw_202"/>
</svg>