<?xml version="1.0" encoding="UTF-8" standalone="no"?>
<!DOCTYPE svg PUBLIC "-//W3C//DTD SVG 1.1//EN"
"http://www.w3.org/Graphics/SVG/1.1/DTD/svg11.dtd">
<svg viewBox="0 0 999 1376" version="1.1" xmlns="http://www.w3.org/2000/svg" xmlns:xlink="http://www.w3.org/1999/xlink">
<defs>
<clipPath id="c0_179"><path d="M32.1,1344.3V32.1H967.5V1344.3Z"/></clipPath>
<clipPath id="c1_179"><path d="M198.7,835.9l-6.5,-2.1l-16.4,-14V762.7h72v73.2Z"/></clipPath>
<clipPath id="c2_179"><path d="M234.4,432.7V344.1H342v88.6Z"/></clipPath>
<clipPath id="c3_179"><path d="M526.8,432.7V344.1H634.5v88.6Z"/></clipPath>
<clipPath id="c4_179"><path d="M380.6,432.7V344.1H488.3v88.6Z"/></clipPath>
<clipPath id="c5_179"><path d="M673,432.7V344.1H780.7v88.6Z"/></clipPath>
<clipPath id="c6_179"><path d="M234.4,569.9V481.3H365.6v88.6Z"/></clipPath>
<clipPath id="c7_179"><path d="M441.9,569.9V481.3H573.2v88.6Z"/></clipPath>
<clipPath id="c8_179"><path d="M649.5,569.9V481.3H780.7v88.6Z"/></clipPath>
<clipPath id="c9_179"><path d="M243.9,706.7V618h88.6v88.7Z"/></clipPath>
<clipPath id="ca_179"><path d="M390.1,706.7V618h88.7v88.7Z"/></clipPath>
<clipPath id="cb_179"><path d="M536.3,706.7V618H625v88.7Z"/></clipPath>
<clipPath id="cc_179"><path d="M682.5,706.7V618h88.7v88.7Z"/></clipPath>
<clipPath id="cd_179"><path d="M221.4,1102.2V907.8H641v194.4Z"/></clipPath>
<clipPath id="ce_179"><path d="M198.8,324.2l-6.5,-2.1l-16.4,-14V251h72v73.2Z"/></clipPath>
<clipPath id="cf_179"><path d="M658.6,177V59h200V177Z"/></clipPath>
<style type="text/css"><![CDATA[
.g0_179{
fill: #FEFCF4;
}
.g1_179{
fill: #FCE8B0;
}
.g2_179{
fill: #FFF;
}
.g3_179{
fill: none;
stroke: #6381B7;
stroke-width: 0.763;
}
.g4_179{
fill: none;
stroke: #949698;
stroke-width: 0.34;
}
.g5_179{
fill: none;
stroke: #231F20;
stroke-width: 0.305;
stroke-miterlimit: 10;
}
.g6_179{
fill: #6381B7;
}
.g7_179{
fill: none;
stroke: #6381B7;
stroke-width: 0.381;
stroke-dasharray: 2,1;
}
.g8_179{
fill: none;
stroke: #6381B7;
stroke-width: 0.381;
}
.g9_179{
fill: #48484A;
}
.ga_179{
fill: #F0E8F3;
}
.gb_179{
fill: #766FA6;
}
.gc_179{
fill: #25408F;
}
.gd_179{
fill: #00BAF1;
}
.ge_179{
fill: #332D2C;
}
.gf_179{
fill: #D9DFF0;
}
.gg_179{
fill: #F27C85;
}
.gh_179{
fill: #7DD3F6;
}
.gi_179{
fill: #2E6E51;
}
.gj_179{
fill: #BCBEC0;
}
.gk_179{
fill: #EE314A;
}
.gl_179{
fill: none;
stroke: #FFF;
stroke-width: 1.909;
stroke-miterlimit: 10;
}
.gm_179{
fill: none;
stroke: #000;
stroke-width: 0.381;
stroke-miterlimit: 10;
}
]]></style>
</defs>
<path clip-path="url(#c0_179)" d="M-877.3,1344.3H45.1V32.1H-877.3V1344.3Z" class="g0_179"/>
<path d="M45.1,1344.3H967.5V32.1H45.1V1344.3Z" class="g0_179"/>
<path d="M231.3,790.9c0,0,-13,0,-13,13v21.6c0,0,0,13,13,13H854.9c0,0,13,0,13,-13V803.9c0,0,0,-13,-13,-13Z" class="g1_179"/>
<image clip-path="url(#c1_179)" preserveAspectRatio="none" x="174" y="761" width="75" height="76" xlink:href="img/1.png"/>
<path d="M226.1,831.2c0,0,-26.9,11.3,-51.1,-12.8c0,0,15.1,25.3,49.3,24c0,0,24.7,.3,20.2,-10.2c0,0,1.3,-4.4,-18.4,-1Z" class="g1_179"/>
<path d="M172.7,223.7c0,0,-18.4,0,-18.4,18.4V736.3c0,0,0,18.3,18.4,18.3H849.8c0,0,18.3,0,18.3,-18.3V223.7Z" class="g2_179"/>
<path d="M172.7,223.7c0,0,-18.4,0,-18.4,18.4V736.3c0,0,0,18.3,18.4,18.3H849.8c0,0,18.3,0,18.3,-18.3V223.7H172.7Z" class="g3_179"/>
<path d="M234.4,432.7H342V344.1H234.4v88.6Z" class="g2_179"/>
<image clip-path="url(#c2_179)" preserveAspectRatio="none" x="233" y="343" width="111" height="91" xlink:href="img/2.jpg"/>
<path d="M234.4,432.7H342V344.1H234.4v88.6Z" class="g4_179"/>
<path d="M526.8,432.7H634.5V344.1H526.8v88.6Z" class="g2_179"/>
<image clip-path="url(#c3_179)" preserveAspectRatio="none" x="525" y="343" width="111" height="91" xlink:href="img/3.jpg"/>
<path d="M526.8,432.7H634.5V344.1H526.8v88.6Z" class="g4_179"/>
<path d="M380.6,432.7H488.3V344.1H380.6v88.6Z" class="g2_179"/>
<image clip-path="url(#c4_179)" preserveAspectRatio="none" x="379" y="343" width="111" height="91" xlink:href="img/4.jpg"/>
<path d="M380.6,432.7H488.3V344.1H380.6v88.6Z" class="g4_179"/>
<path d="M673,432.7H780.7V344.1H673v88.6Z" class="g2_179"/>
<image clip-path="url(#c5_179)" preserveAspectRatio="none" x="671" y="343" width="111" height="91" xlink:href="img/5.jpg"/>
<path d="M673,432.7H780.7V344.1H673v88.6Z" class="g4_179"/>
<path d="M234.4,569.9H365.6V481.3H234.4v88.6Z" class="g2_179"/>
<image clip-path="url(#c6_179)" preserveAspectRatio="none" x="233" y="480" width="134" height="91" xlink:href="img/6.jpg"/>
<path d="M234.4,569.9H365.6V481.3H234.4v88.6Z" class="g4_179"/>
<path d="M441.9,569.9H573.2V481.3H441.9v88.6Z" class="g2_179"/>
<image clip-path="url(#c7_179)" preserveAspectRatio="none" x="440" y="480" width="135" height="91" xlink:href="img/7.jpg"/>
<path d="M441.9,569.9H573.2V481.3H441.9v88.6Z" class="g4_179"/>
<path d="M649.5,569.9H780.7V481.3H649.5v88.6Z" class="g2_179"/>
<image clip-path="url(#c8_179)" preserveAspectRatio="none" x="648" y="480" width="134" height="91" xlink:href="img/8.jpg"/>
<path d="M649.5,569.9H780.7V481.3H649.5v88.6Z" class="g4_179"/>
<path d="M234.4,706.7H342V618H234.4v88.7Z" class="g2_179"/>
<image clip-path="url(#c9_179)" preserveAspectRatio="none" x="244" y="618" width="89" height="89" xlink:href="img/9.jpg"/>
<path d="M234.4,706.7H342V618H234.4v88.7Z" class="g4_179"/>
<path d="M380.6,706.7H488.3V618H380.6v88.7Z" class="g2_179"/>
<image clip-path="url(#ca_179)" preserveAspectRatio="none" x="390" y="618" width="89" height="89" xlink:href="img/10.jpg"/>
<path d="M380.6,706.7H488.3V618H380.6v88.7Z" class="g4_179"/>
<path d="M526.8,706.7H634.5V618H526.8v88.7Z" class="g2_179"/>
<image clip-path="url(#cb_179)" preserveAspectRatio="none" x="536" y="618" width="89" height="89" xlink:href="img/11.jpg"/>
<path d="M526.8,706.7H634.5V618H526.8v88.7Z" class="g4_179"/>
<path d="M673,706.7H780.7V618H673v88.7Z" class="g2_179"/>
<image clip-path="url(#cc_179)" preserveAspectRatio="none" x="683" y="618" width="88" height="89" xlink:href="img/12.jpg"/>
<path d="M673,706.7H780.7V618H673v88.7Z" class="g4_179"/>
<path d="M166.5,847.1c0,0,-13,0,-13,13v328.1c0,0,0,13,13,13h688c0,0,13,0,13,-13V860.1c0,0,0,-13,-13,-13Z" class="g2_179"/>
<path d="M166.5,847.1c0,0,-13,0,-13,13v328.1c0,0,0,13,13,13h688c0,0,13,0,13,-13V860.1c0,0,0,-13,-13,-13h-688Z" class="g3_179"/>
<image clip-path="url(#cd_179)" preserveAspectRatio="none" x="221" y="908" width="420" height="194" xlink:href="img/13.jpg"/>
<path d="M274.7,1012.8c5.8,0,10.5,-4.7,10.5,-10.5c0,-5.7,-4.7,-10.4,-10.5,-10.4c-5.8,0,-10.5,4.7,-10.5,10.4c0,5.8,4.7,10.5,10.5,10.5Z" class="g2_179"/>
<path d="M417.2,1068.4c5.8,0,10.4,-4.7,10.4,-10.5c0,-5.7,-4.6,-10.4,-10.4,-10.4c-5.8,0,-10.5,4.7,-10.5,10.4c0,5.8,4.7,10.5,10.5,10.5Z" class="g2_179"/>
<path d="M591.9,1088.7c5.8,0,10.5,-4.7,10.5,-10.5c0,-5.8,-4.7,-10.5,-10.5,-10.5c-5.8,0,-10.5,4.7,-10.5,10.5c0,5.8,4.7,10.5,10.5,10.5Z" class="g2_179"/>
<path d="M355.1,1077.8c5.8,0,10.5,-4.7,10.5,-10.5c0,-5.8,-4.7,-10.4,-10.5,-10.4c-5.8,0,-10.5,4.6,-10.5,10.4c0,5.8,4.7,10.5,10.5,10.5Z" class="g2_179"/>
<path d="M200.4,900.9H798.1V883.6H200.4v17.3Z" class="g2_179"/>
<path d="M272,1140.9H426.7m163.5,0H744.9m-455.6,40.7H426.8m163.4,0H744.9" class="g5_179"/>
<path d="M566.9,1216.2c0,0,-4.4,0,-4.4,4.3v10.8c0,0,0,4.3,4.4,4.3h30.3c0,0,4.3,0,4.3,-4.3v-10.8c0,0,0,-4.3,-4.3,-4.3Z" class="g6_179"/>
<path d="M553.7,1208.7v34.8m1.3,1H866.8m.9,-1.4v-34.8m-1.3,-1H554.6" class="g7_179"/>
<path d="M553.7,1243.9v.6h.6m312.8,0h.6v-.6m0,-36v-.6h-.6m-312.8,0h-.6v.6" class="g8_179"/>
<path d="M720.1,920.6c0,0,-4.3,0,-4.3,4.3v14.8c0,0,0,4.3,4.1,5.7L772.3,964c0,0,4.1,1.4,4.1,-2.9V924.9c0,0,0,-4.3,-4.3,-4.3Z" class="g9_179"/>
<path d="M741.3,907.6c0,0,-13,0,-13,13v144.9c0,0,0,13,13,13h67.1c0,0,13,0,13,-13V920.6c0,0,0,-13,-13,-13Z" class="ga_179"/>
<path d="M720.1,918.4c0,0,-4.3,0,-4.3,4.4v17.3c0,0,0,4.3,4.3,4.3h37.3c0,0,4.3,0,4.3,-4.3V922.8c0,0,0,-4.4,-4.3,-4.4Z" class="gb_179"/>
<path d="M231.4,279.2c0,0,-13,0,-13,13v21.6c0,0,0,13,13,13h602c0,0,13,0,13,-13V292.2c0,0,0,-13,-13,-13Z" class="g1_179"/>
<image clip-path="url(#ce_179)" preserveAspectRatio="none" x="174" y="249" width="75" height="77" xlink:href="img/14.png"/>
<path d="M226.2,319.5c0,0,-26.8,11.3,-51.1,-12.8c0,0,15.2,25.3,49.3,24c0,0,24.8,.3,20.3,-10.1c0,0,1.2,-4.5,-18.5,-1.1Z" class="g1_179"/>
<path d="M153.3,214.8V237L165,247.2V225.1Z" class="gc_179"/>
<path d="M153.3,198v39H851.1c0,0,16.8,0,16.8,-16.8v-5.4c0,0,0,-16.8,-16.8,-16.8Z" class="g6_179"/>
<path d="M211.3,209.4l-6.5,-6.5l-21.2,21.2l6.5,6.5Z" class="gd_179"/>
<path d="M190.1,231.1c.1,0,.3,0,.4,-.1l21.2,-21.2c.1,-.1,.1,-.3,.1,-.4c0,-.1,0,-.3,-.1,-.4l-6.5,-6.5c-.2,-.2,-.6,-.2,-.8,0l-21.2,21.3c-.1,.1,-.1,.2,-.1,.3c0,.2,0,.3,.1,.4l6.5,6.5c.1,.1,.3,.1,.4,.1m20.5,-21.7l-20.5,20.5l-5.8,-5.8l20.5,-20.4Z" class="ge_179"/>
<path d="M211.3,209.4l-6.5,-6.5l2.1,-2.1l6.5,6.5Z" class="gf_179"/>
<path d="M211.3,209.9c.1,0,.3,0,.4,-.1l2.1,-2.2c.1,-.1,.2,-.2,.2,-.3c0,-.2,-.1,-.3,-.2,-.4l-6.5,-6.5c-.2,-.2,-.5,-.2,-.7,0l-2.2,2.1c-.1,.1,-.1,.3,-.1,.4c0,.2,0,.3,.1,.4l6.5,6.5c.1,.1,.3,.1,.4,.1m1.4,-2.6l-1.4,1.4l-5.7,-5.8l1.3,-1.4Z" class="ge_179"/>
<path d="M217,203.7l-6.4,-6.5l-3.7,3.6l6.5,6.5Z" class="gg_179"/>
<path d="M213.4,207.8c.2,0,.3,-.1,.4,-.2l3.6,-3.6c.2,-.2,.2,-.5,0,-.7l-6.5,-6.5c-.2,-.2,-.5,-.2,-.7,0l-3.6,3.6c-.2,.2,-.2,.6,0,.8l6.5,6.4c.1,.1,.2,.2,.3,.2m2.9,-4.1l-2.9,2.8l-5.7,-5.7l2.9,-2.9Z" class="ge_179"/>
<path d="M179,235.2l4.6,-11.1l6.5,6.5Z" class="g2_179"/>
<path d="M179,235.8c0,0,.1,0,.2,-.1l11.1,-4.6c.2,-.1,.3,-.2,.3,-.4c0,-.2,0,-.3,-.1,-.5L184,223.8c-.1,-.2,-.3,-.2,-.5,-.2c-.2,0,-.3,.2,-.4,.3L178.5,235c-.1,.2,0,.5,.1,.6c.1,.1,.2,.2,.4,.2m10.2,-5.4l-9.3,3.9l3.9,-9.2Z" class="ge_179"/>
<path d="M179,235.2l2.2,-5.3l3.1,3.1Z" class="ge_179"/>
<path d="M179,235.8c0,0,.1,0,.2,-.1l5.3,-2.2c.2,-.1,.3,-.2,.4,-.4c0,-.2,-.1,-.3,-.2,-.5l-3.1,-3.1c-.1,-.1,-.3,-.2,-.5,-.1c-.2,0,-.3,.1,-.4,.3l-2.2,5.3c-.1,.2,0,.5,.1,.6c.1,.1,.2,.2,.4,.2m4.4,-3l-3.5,1.5l1.5,-3.5Z" class="ge_179"/>
<path d="M209.5,207.6l-2.9,-2.9l-21.2,21.2l2.9,3Z" class="gh_179"/>
<path d="M188.3,229.4c.2,0,.3,-.1,.4,-.2L209.9,208c.1,-.1,.2,-.2,.2,-.4c0,-.1,-.1,-.2,-.2,-.3l-3,-3c-.2,-.2,-.5,-.2,-.7,0L185,225.5c-.1,.1,-.2,.2,-.2,.4c0,.1,.1,.3,.2,.4l3,2.9c.1,.1,.2,.2,.3,.2m20.5,-21.8l-20.5,20.5l-2.2,-2.2l20.5,-20.5Z" class="ge_179"/>
<path d="M32.1,179.3H967.5V32.1H32.1V179.3Z" class="gi_179"/>
<g clip-path="url(#c0_179)">
<path d="M967.5,177.2H-877.3v-5.4h736.6c43.1,0,53.1,-37.9,115.3,-37.9H967.5Z" class="gj_179"/>
<path d="M967.5,183.7H-877.3v-9.8h736.6c43.1,0,53.1,-33.6,115.3,-33.6H967.5Z" class="gk_179"/>
</g>
<image clip-path="url(#cf_179)" preserveAspectRatio="none" x="659" y="59" width="200" height="118" xlink:href="img/15.png"/>
<path d="M32.1,45.1H9.2m958.3,0h22.9M32.1,1331.3H9.2m958.3,0h22.9M45.1,32.1V9.2m0,1335.1v22.9M954.5,32.1V9.2m0,1335.1v22.9" class="gl_179"/>
<path d="M32.1,45.1H9.2m958.3,0h22.9M32.1,1331.3H9.2m958.3,0h22.9M45.1,32.1V9.2m0,1335.1v22.9M954.5,32.1V9.2m0,1335.1v22.9" class="gm_179"/>
<path d="M27.5,32.1H0m972.1,0h27.5M27.5,1344.3H0m972.1,0h27.5M32.1,27.5V0m0,1348.9v27.5M967.5,27.5V0m0,1348.9v27.5" class="gl_179"/>
<path d="M27.5,32.1H0m972.1,0h27.5M27.5,1344.3H0m972.1,0h27.5M32.1,27.5V0m0,1348.9v27.5M967.5,27.5V0m0,1348.9v27.5" class="gm_179"/>
</svg>