<?xml version="1.0" encoding="UTF-8" standalone="no"?>
<!DOCTYPE svg PUBLIC "-//W3C//DTD SVG 1.1//EN"
"http://www.w3.org/Graphics/SVG/1.1/DTD/svg11.dtd">
<svg viewBox="0 0 999 1376" version="1.1" xmlns="http://www.w3.org/2000/svg" xmlns:xlink="http://www.w3.org/1999/xlink">
<defs>
<clipPath id="c0_156"><path d="M32.1,1344.3V32.1H967.5V1344.3Z"/></clipPath>
<clipPath id="c1_156"><path d="M176.6,478.5l-6.5,-2.1L153.7,462.5V405.4h72v73.1Z"/></clipPath>
<clipPath id="c2_156"><path d="M176.6,1006l-6.5,-2.1L153.7,990V932.9h72V1006Z"/></clipPath>
<clipPath id="c3_156"><path d="M178.4,137.2c.1,-1.3,.7,-2.5,1.6,-3.4c1,-1,2.4,-1.6,3.9,-1.6h19.2v5Z"/></clipPath>
<clipPath id="c4_156"><path d="M177.9,137.7v-6h25.7v6Z"/></clipPath>
<style type="text/css"><![CDATA[
.g0_156{
fill: #FEFCF4;
}
.g1_156{
fill: #DCE9F3;
}
.g2_156{
fill: none;
stroke: #6381B7;
stroke-width: 0.763;
}
.g3_156{
fill: none;
stroke: #231F20;
stroke-width: 0.458;
stroke-miterlimit: 10;
}
.g4_156{
fill: none;
stroke: #FFF;
stroke-width: 0.152;
}
.g5_156{
fill: #6381B7;
}
.g6_156{
fill: none;
stroke: #6381B7;
stroke-width: 0.381;
stroke-dasharray: 2,1;
}
.g7_156{
fill: none;
stroke: #6381B7;
stroke-width: 0.381;
}
.g8_156{
fill: #FFF;
}
.g9_156{
fill: none;
stroke: #231F20;
stroke-width: 0.305;
stroke-miterlimit: 10;
}
.ga_156{
fill: #FCE8B0;
}
.gb_156{
fill: #25408F;
}
.gc_156{
fill: none;
stroke: #231F20;
stroke-width: 1.527;
}
.gd_156{
fill: #39B4D1;
stroke: #2D2A4A;
stroke-width: 1.038;
stroke-linecap: round;
stroke-linejoin: round;
}
.ge_156{
fill: #2D2A4A;
}
.gf_156{
fill: none;
stroke: #2D2A4A;
stroke-width: 1.038;
stroke-linecap: round;
stroke-linejoin: round;
}
.gg_156{
fill: #DEDAD3;
}
.gh_156{
fill: #29263F;
}
.gi_156{
fill: #E15F46;
stroke: #2D2A4A;
stroke-width: 1.038;
stroke-linecap: round;
stroke-linejoin: round;
}
.gj_156{
fill: none;
stroke: #FFF;
stroke-width: 1.909;
stroke-miterlimit: 10;
}
.gk_156{
fill: none;
stroke: #000;
stroke-width: 0.381;
stroke-miterlimit: 10;
}
]]></style>
</defs>
<path clip-path="url(#c0_156)" d="M954.5,1344.3H1877V32.1H954.5V1344.3Z" class="g0_156"/>
<path d="M149,165.5c0,0,-17.3,0,-17.3,17.3V332c0,0,0,17.4,17.3,17.4H828.9c0,0,17.4,0,17.4,-17.4V182.8c0,0,0,-17.3,-17.4,-17.3Z" class="g1_156"/>
<path d="M145.1,913c0,0,-13,0,-13,13v224.4c0,0,0,13,13,13H832.9c0,0,13,0,13,-13V926c0,0,0,-13,-13,-13Z" class="g0_156"/>
<path d="M145.1,913c0,0,-13,0,-13,13v224.4c0,0,0,13,13,13H832.9c0,0,13,0,13,-13V926c0,0,0,-13,-13,-13H145.1Z" class="g2_156"/>
<path d="M302.8,1045.3H416.2M317,1110.8H430.4" class="g3_156"/>
<path d="M169.6,1030.1c-.3,.5,-.8,.8,-1.2,1.2c-.4,.3,-.9,.6,-1.3,.8v1.1c.4,-.2,.9,-.5,1.3,-.7c.4,-.3,.8,-.7,1.3,-1.2v11.2h1v-12q0,-.2,-.1,-.3c0,0,-.1,-.1,-.2,-.1h-.8Zm6.3,12.6h1.4v-1.5h-1.4v1.5Zm9.6,-12.5v.9h5.1c-.2,2,-.8,3.8,-1.8,5.3c-1,1.5,-2.4,2.8,-4.3,3.8l1,.7c1.9,-1.3,3.4,-2.7,4.5,-4.5c1,-1.7,1.6,-3.7,1.7,-5.9c0,-.1,0,-.2,0,-.2c-.1,-.1,-.2,-.1,-.3,-.1h-5.9Zm9.1,14h1.1v-7.8H198v-.9h-2.3v-6.2h-1.1v14.9Zm6.9,-12h-1.4v1.5h1.4v-1.5Zm0,7.4h-1.4v1.5h1.4v-1.5Zm11,-7.3c0,.9,-.1,1.8,-.4,2.6c-.2,.9,-.5,1.6,-.9,2.3c-.3,.6,-.8,1.2,-1.3,1.8c-.5,.5,-1.1,1,-1.7,1.4l1,.7c.4,-.3,.8,-.7,1.2,-1.1c.5,-.5,.8,-.9,1.2,-1.4c.3,-.5,.6,-1,.8,-1.5c.3,-.5,.5,-1,.6,-1.5c.4,1.2,.9,2.2,1.6,3c.7,.8,1.5,1.5,2.3,2.1l.8,-.8c-1.3,-.8,-2.3,-1.8,-3.1,-3c-.7,-1.2,-1.1,-2.6,-1.1,-4.3v-2.7h-1v2.4Zm6.9,11.9h1.1v-14.9h-1.1v14.9Zm5.1,-3.9c.1,0,.3,0,.5,0c.2,0,.5,0,.8,0c.3,0,.6,0,.9,-.1c.3,0,.6,0,.9,0c.4,0,.7,-.1,1,-.1c.3,0,.6,0,.8,-.1c.3,0,.5,0,.6,-.1v-.9c-.1,0,-.3,0,-.6,.1c-.3,0,-.6,0,-.9,.1c-.3,0,-.6,0,-.9,0c-.3,.1,-.5,.1,-.7,.1H225V1030h-1v10c0,.1,0,.2,0,.2q.1,.1,.3,.1c0,0,.1,0,.2,0Zm6.1,3.2h1.1v-7.6h2.1v8.3h1v-14.9h-1v5.6h-2.1v-5.4h-1.1v14Zm7.6,-12.4c-.5,1,-.8,2.4,-.8,4.2c0,1.9,.3,3.3,.8,4.3c.6,.9,1.4,1.4,2.3,1.4c.8,0,1.5,-.5,2.1,-1.3c.5,-.9,.9,-2.2,.9,-3.9h1.9v7.7h1v-14h-1v5.3h-1.9c0,-1.7,-.4,-3,-.9,-3.8c-.6,-.8,-1.3,-1.3,-2.1,-1.3c-.9,0,-1.7,.5,-2.3,1.4Zm3.7,.8c.4,.9,.6,2,.6,3.4c0,1.5,-.2,2.6,-.6,3.5c-.4,.8,-.9,1.2,-1.5,1.2c-.6,0,-1,-.4,-1.4,-1.2c-.4,-.9,-.6,-2,-.6,-3.5c0,-1.4,.2,-2.5,.6,-3.4c.4,-.8,.8,-1.2,1.4,-1.2c.6,0,1.1,.4,1.5,1.2Zm6.2,12.3h1v-14.9h-1v14.9Zm9.5,-13.1c-.6,.9,-.9,2.3,-.9,4.2c0,1.9,.3,3.3,.9,4.2c.7,1,1.5,1.4,2.5,1.4c1,0,1.8,-.4,2.4,-1.3c.7,-.9,1,-2.2,1,-4h3.3v8.6h1v-14.9h-1v5.4h-3.3c-.1,-1.7,-.4,-3,-1,-3.8c-.7,-.8,-1.4,-1.3,-2.4,-1.3c-1,0,-1.8,.5,-2.5,1.5Zm4.3,.8c.4,.8,.6,2,.6,3.4c0,1.4,-.2,2.6,-.6,3.4c-.4,.9,-1,1.3,-1.8,1.3c-.7,0,-1.3,-.4,-1.8,-1.3c-.4,-.8,-.6,-2,-.6,-3.4c0,-1.4,.2,-2.6,.6,-3.4c.5,-.9,1.1,-1.3,1.8,-1.3c.8,0,1.3,.4,1.8,1.3Zm10.6,4c.5,0,1,0,1.5,-.1c.4,0,.8,-.1,1.1,-.1v-.9c-.2,0,-.5,0,-.7,.1c-.3,0,-.6,0,-.9,0c-.1,0,-.2,0,-.3,0c-.2,.1,-.3,.1,-.4,.1c-.2,0,-.3,0,-.4,0h-.2v-4.1h2.7v-.9h-3.4c-.1,0,-.2,0,-.3,.1q0,.1,0,.2v5.3c0,.1,0,.2,0,.2c.1,.1,.2,.1,.3,.1h1Zm4.2,0c.4,0,.9,-.1,1.4,-.1c.4,0,.7,0,1.1,-.1c.5,0,.8,-.1,1.1,-.1v-.9c-.3,0,-.6,.1,-1,.1c-.4,.1,-.7,.1,-1,.1c-.4,.1,-.8,.1,-1.1,.1c-.4,0,-.6,0,-.8,0v-4.1h3v-.9h-3.7c-.1,0,-.2,0,-.2,.1c0,.1,-.1,.1,-.1,.2v5.3c0,.1,.1,.2,.1,.2c0,.1,.1,.1,.2,.1c.3,0,.6,0,1,0Zm4.6,-3.7h-2.6v.9h2.6v4.3h1v-8.1h-1v2.9Zm-6.4,5.7h4.9v-.9h-4.9v.9Zm-2.7,2h10.4v-.9H272.2v.9Zm2,1.2c-.8,.3,-1.2,.8,-1.2,1.4c0,.7,.4,1.2,1.1,1.5c.8,.3,1.9,.5,3.2,.5c1.3,0,2.4,-.2,3.2,-.5c.8,-.3,1.2,-.8,1.2,-1.5c0,-.6,-.4,-1.1,-1.2,-1.4c-.8,-.3,-1.9,-.5,-3.2,-.5c-1.3,0,-2.3,.2,-3.1,.5Zm4.4,.4c.4,0,.7,.1,1,.2c.3,.1,.5,.2,.7,.3c.2,.2,.2,.3,.2,.5c0,.4,-.3,.7,-.9,.9c-.6,.2,-1.4,.2,-2.3,.2c-.9,0,-1.6,0,-2.3,-.2c-.6,-.2,-.9,-.5,-.9,-.9c0,-.2,.1,-.3,.3,-.5c.1,-.1,.3,-.2,.6,-.3c.3,-.1,.7,-.2,1.1,-.2c.3,-.1,.8,-.1,1.2,-.1c.5,0,.9,0,1.3,.1Zm6.6,-11.2v.9h4.2c-.1,1.9,-.5,3.6,-1.4,5.1c-.8,1.5,-2.1,2.8,-3.7,3.9l.9,.6c1.7,-1.2,3,-2.7,3.9,-4.4c.8,-1.7,1.3,-3.6,1.3,-5.8q0,-.1,-.1,-.2c0,-.1,-.1,-.1,-.2,-.1h-4.9Zm10.2,13.9h1v-14.9h-1v14.9Zm-2.7,-9.4h-2.5v1h2.5v7.7h1v-14h-1v5.3ZM424,1029.7c-.5,.2,-.8,.5,-1.2,.8c-.3,.3,-.5,.7,-.7,1.1c-.1,.4,-.2,.9,-.2,1.4c0,.5,.1,1,.2,1.4c.2,.4,.4,.8,.7,1.1c.3,.3,.7,.6,1.2,.8c.4,.1,.9,.2,1.5,.2c1,0,1.9,-.3,2.6,-1c.6,-.6,1,-1.5,1,-2.5c0,-.5,-.1,-1,-.3,-1.4c-.2,-.4,-.4,-.8,-.7,-1.1c-.3,-.3,-.7,-.6,-1.1,-.8c-.5,-.1,-1,-.2,-1.5,-.2c-.6,0,-1.1,.1,-1.5,.2Zm3.4,1.4c.4,.5,.6,1.1,.6,1.9c0,.7,-.2,1.3,-.6,1.9c-.5,.5,-1.1,.7,-1.9,.7c-.9,0,-1.5,-.2,-1.9,-.7c-.5,-.6,-.7,-1.2,-.7,-1.9c0,-.8,.2,-1.4,.7,-1.9c.4,-.5,1,-.7,1.9,-.7c.8,0,1.4,.2,1.9,.7Zm4.5,5.9h1v-3.8H435v-.9h-2.1v-3h-1v7.7Zm-8,.8v.9h8v1.8h-7.7c-.1,0,-.2,0,-.2,0c-.1,.1,-.1,.2,-.1,.3v2.9c0,.1,0,.2,.1,.2c0,.1,.1,.1,.2,.1h9.1v-.9H425v-1.7h7.6c.1,0,.2,0,.2,-.1c.1,0,.1,-.1,.1,-.2v-3q0,-.1,-.1,-.2c0,0,-.1,-.1,-.2,-.1h-8.7Zm13.2,-6.7c-.6,.9,-.9,2.3,-.9,4.2c0,1.9,.3,3.3,.9,4.2c.7,1,1.5,1.4,2.5,1.4c1,0,1.8,-.4,2.5,-1.4c.6,-.9,.9,-2.3,.9,-4.2c0,-1.9,-.3,-3.3,-.9,-4.2c-.7,-1,-1.5,-1.5,-2.5,-1.5c-1,0,-1.8,.5,-2.5,1.5Zm4.3,.8c.4,.8,.6,2,.6,3.4c0,1.4,-.2,2.6,-.6,3.4c-.5,.9,-1,1.3,-1.8,1.3c-.7,0,-1.3,-.4,-1.8,-1.3c-.4,-.8,-.6,-2,-.6,-3.4c0,-1.4,.2,-2.6,.6,-3.4c.5,-.9,1.1,-1.3,1.8,-1.3c.8,0,1.3,.4,1.8,1.3Zm4.4,12.3h1.1v-8.6h2.3v-1h-2.3v-5.3h-1.1v14.9Zm8.6,-14.3c-.6,.2,-1.2,.4,-1.6,.8c-.4,.3,-.8,.7,-1,1.2c-.3,.5,-.4,1.1,-.4,1.7c0,.6,.1,1.2,.4,1.7c.2,.5,.6,.9,1,1.3c.4,.3,1,.6,1.6,.7c.6,.2,1.3,.3,2.1,.3c.7,0,1.4,-.1,2,-.3c.6,-.1,1.2,-.4,1.6,-.7c.4,-.4,.8,-.8,1,-1.3c.3,-.5,.4,-1.1,.4,-1.7c0,-.6,-.1,-1.2,-.4,-1.7c-.2,-.5,-.6,-.9,-1,-1.2c-.4,-.4,-1,-.6,-1.6,-.8c-.6,-.2,-1.3,-.3,-2,-.3c-.8,0,-1.5,.1,-2.1,.3Zm3.6,.8c.5,.1,.9,.3,1.3,.6c.4,.3,.6,.6,.8,1c.2,.4,.3,.8,.3,1.3c0,.5,-.1,.9,-.3,1.3c-.2,.4,-.4,.7,-.8,1c-.4,.3,-.8,.5,-1.3,.6c-.4,.2,-1,.3,-1.5,.3c-.6,0,-1.2,-.1,-1.6,-.3c-.5,-.1,-.9,-.3,-1.3,-.6c-.3,-.3,-.6,-.6,-.8,-1c-.2,-.4,-.3,-.8,-.3,-1.3c0,-.5,.1,-.9,.3,-1.3c.2,-.4,.5,-.7,.8,-1c.4,-.3,.8,-.5,1.3,-.6c.4,-.2,1,-.2,1.6,-.2c.5,0,1.1,0,1.5,.2Zm-4.9,10.5h-3.3v.9h13.3v-.9h-3.3V1038h-1v3.2h-4.7V1038h-1v3.2Zm13.3,1.6h1.4v-1.4h-1.4v1.4Zm-.6,-13c-.5,.2,-.9,.6,-1.2,.9l.4,.7c.3,-.3,.7,-.5,1.1,-.7c.3,-.3,.8,-.4,1.2,-.4c.7,0,1.2,.2,1.6,.6c.4,.4,.6,1,.6,1.7c0,.5,-.2,1,-.5,1.5c-.3,.5,-.7,.9,-1.1,1.3c-.4,.4,-.8,.7,-1,1.1c-.3,.4,-.4,.9,-.4,1.5c0,.3,0,.5,0,.8c0,.2,0,.4,0,.6h1v-1c0,-.6,.1,-1.1,.4,-1.5c.2,-.3,.5,-.7,.9,-1.1c.4,-.3,.8,-.8,1.2,-1.4c.4,-.6,.6,-1.2,.6,-1.9c0,-.5,-.1,-.9,-.2,-1.3c-.2,-.3,-.4,-.7,-.7,-.9c-.2,-.3,-.5,-.5,-.9,-.7c-.4,-.1,-.8,-.2,-1.2,-.2c-.7,0,-1.3,.1,-1.8,.4ZM185,1070.7c0,.1,.1,.1,.3,.1c0,0,.1,0,.3,0c.2,0,.5,0,.8,0c.3,0,.7,0,1.1,0c.5,0,.9,0,1.4,0c.4,-.1,.8,-.1,1.3,-.1c.4,-.1,.8,-.1,1.3,-.2c.4,-.1,.8,-.1,1.1,-.2c.4,0,.7,-.1,.9,-.2v-.9c-.2,0,-.5,.1,-.9,.1c-.4,.1,-.8,.2,-1.2,.2c-.4,.1,-.8,.1,-1.3,.2c-.4,0,-.8,.1,-1.1,.1h-3v-9.3h-1.1v10c0,.1,.1,.2,.1,.2Zm9.2,4.1h1v-8.4h2.3v-1h-2.3v-5.6h-1v15Zm6.8,-12.1h-1.4v1.5H201v-1.5Zm0,7.4h-1.4v1.5H201v-1.5Zm8.8,.8c.1,0,.3,0,.5,0c.2,0,.5,0,.7,-.1c.3,0,.6,0,1,0c.3,0,.6,0,.9,0c.3,-.1,.6,-.1,.9,-.1c.3,-.1,.6,-.1,.9,-.1c.2,0,.4,-.1,.6,-.1v-1c-.2,.1,-.4,.1,-.7,.1c-.2,.1,-.5,.1,-.8,.1c-.3,0,-.6,.1,-.9,.1c-.3,0,-.6,0,-.8,0l-1.8,.1v-9.3h-1v9.9c0,.1,0,.2,0,.3c.1,0,.2,.1,.3,.1c0,0,.1,0,.2,0Zm9.3,3.9h1.1v-15h-1.1v15Zm-2.9,-10H213v.9h3.2v8.3h1v-13.9h-1v4.7Zm8.7,7.3c0,-.1,-.1,-.2,-.1,-.3c0,0,-.1,0,-.2,0h-1.3v1.5h.7c.1,.4,0,.7,-.1,1c-.1,.3,-.3,.5,-.5,.5v.4c.3,0,.7,-.2,1,-.6c.3,-.4,.5,-.9,.5,-1.6v-.9Zm7.4,.9c0,.1,.1,.1,.2,.1h7v-1h-6.2c.5,-.5,1.1,-1.1,1.7,-1.8c.7,-.6,1.4,-1.3,2,-2.1c.6,-.7,1.1,-1.5,1.6,-2.3c.4,-.8,.6,-1.5,.6,-2.3c0,-1,-.3,-1.8,-1,-2.4c-.6,-.5,-1.5,-.8,-2.4,-.8c-.5,0,-1,.1,-1.4,.3c-.4,.1,-.8,.4,-1.1,.7c-.3,.3,-.6,.6,-.7,1c-.2,.5,-.3,.9,-.3,1.4h1.1c0,-.3,0,-.6,.1,-.9c.2,-.3,.3,-.6,.5,-.8c.2,-.3,.5,-.5,.8,-.6c.3,-.1,.6,-.2,.9,-.2c.7,0,1.3,.2,1.7,.6c.5,.5,.8,1.1,.8,1.8c0,.3,-.1,.6,-.2,1c-.2,.3,-.4,.7,-.6,1c-.2,.4,-.4,.8,-.7,1.2c-.3,.4,-.6,.8,-.9,1.2c-.4,.4,-.7,.8,-1,1.2c-.4,.4,-.7,.7,-1,1.1c-.3,.3,-.6,.6,-.9,.9c-.3,.3,-.5,.5,-.7,.7v.8c0,.1,0,.2,.1,.2Zm14.3,-11.2c.4,.4,.7,.9,.9,1.5c.2,.6,.3,1.2,.4,1.8c0,.7,.1,1.2,.1,1.7c0,.5,-.1,1.1,-.1,1.7c-.1,.7,-.2,1.3,-.4,1.9c-.2,.5,-.5,1,-.9,1.4c-.3,.4,-.8,.6,-1.4,.6c-.7,0,-1.2,-.2,-1.5,-.6c-.4,-.4,-.6,-.9,-.8,-1.4c-.2,-.6,-.3,-1.2,-.4,-1.9c0,-.6,0,-1.2,0,-1.7c0,-.5,0,-1,0,-1.7c.1,-.6,.2,-1.2,.4,-1.8c.2,-.6,.4,-1.1,.8,-1.5c.3,-.5,.8,-.7,1.5,-.7c.6,0,1.1,.2,1.4,.7Zm-3.4,-1c-.5,.4,-.9,.9,-1.1,1.5c-.3,.6,-.5,1.3,-.6,2.1c-.1,.8,-.1,1.6,-.1,2.4c0,.8,0,1.6,.1,2.4c.1,.8,.3,1.5,.6,2.1c.2,.7,.6,1.2,1.1,1.5c.5,.4,1.2,.6,2,.6c.8,0,1.4,-.2,1.9,-.6c.5,-.3,.9,-.8,1.2,-1.5c.3,-.6,.5,-1.3,.6,-2.1c.1,-.8,.2,-1.6,.2,-2.4c0,-.8,-.1,-1.6,-.2,-2.4c-.1,-.8,-.3,-1.5,-.6,-2.1c-.3,-.6,-.7,-1.1,-1.2,-1.5c-.5,-.4,-1.1,-.6,-1.9,-.6c-.8,0,-1.5,.2,-2,.6Zm7.8,6.7c0,.1,0,.2,.1,.2c0,.1,.1,.1,.2,.1h.5c.1,0,.2,0,.2,0c0,0,.1,-.1,.1,-.2c.2,-.5,.5,-.9,.9,-1.2c.4,-.3,.9,-.5,1.5,-.5c.7,0,1.4,.3,1.8,.8c.5,.6,.8,1.4,.8,2.5c0,1,-.3,1.8,-.8,2.4c-.5,.6,-1.1,.9,-1.8,.9c-.7,0,-1.4,-.2,-1.8,-.6c-.5,-.4,-.8,-.9,-.9,-1.7h-1c0,1,.4,1.8,1.1,2.4c.7,.5,1.5,.8,2.5,.8c.6,0,1.1,-.1,1.6,-.3c.4,-.2,.8,-.5,1.1,-.9c.4,-.4,.6,-.8,.8,-1.3c.2,-.5,.2,-1.1,.2,-1.7c0,-.7,0,-1.4,-.2,-1.9c-.2,-.5,-.4,-.9,-.7,-1.3c-.3,-.3,-.7,-.6,-1.1,-.8c-.4,-.1,-.9,-.2,-1.3,-.2c-.6,0,-1.1,.1,-1.6,.3c-.5,.2,-.9,.5,-1.2,1l.2,-4.7h5.3v-.9h-6c-.1,0,-.2,0,-.2,.1c-.1,0,-.1,.1,-.1,.2l-.2,6.5Zm15,-.5h-4.5v-2.9H266v2.9Zm-5.4,.9c0,0,.1,0,.3,0h5.8c.1,0,.2,0,.2,0c.1,-.1,.1,-.2,.1,-.3v-3.1h3.3v6.4h1.1v-11.1h-1.1v3.8H267v-3.2h-1v2.9h-4.5v-2.9h-.9v7.2c0,.1,0,.2,0,.3Zm11.2,6.5v-.9h-8.6v-3.8h-1v4.4c0,.1,0,.2,0,.3c.1,0,.2,0,.3,0h9.3Zm13.3,-4.4h-4.6v-4.5h4.6v4.5Zm1,-4h3.1v8.8h1v-15h-1v5.3h-3.1v-4.5h-1v4h-4.6v-4h-1v10c0,.1,0,.2,.1,.3c0,0,.1,0,.2,0h6c.1,0,.2,0,.3,0c0,-.1,0,-.2,0,-.3V1066Zm12.5,-4.3c0,.6,-.1,1.3,-.5,1.9c-.3,.7,-.7,1.2,-1.2,1.8c-.6,.5,-1.2,1,-1.8,1.4c-.7,.4,-1.4,.7,-2,.9l.8,.9c.6,-.3,1.2,-.6,1.8,-.9c.5,-.4,1,-.7,1.5,-1.2c.4,-.4,.8,-.8,1.2,-1.3c.3,-.5,.6,-1,.8,-1.5c.2,.6,.4,1.1,.8,1.6c.4,.5,.8,.9,1.2,1.3c.5,.4,1,.8,1.5,1.1c.6,.4,1.1,.6,1.7,.9l.8,-.9c-.6,-.2,-1.3,-.5,-1.9,-.9c-.7,-.4,-1.3,-.8,-1.8,-1.4c-.6,-.5,-1,-1.1,-1.3,-1.7c-.4,-.7,-.5,-1.3,-.5,-2v-1.2h-1.1v1.2Zm-6.1,10.9h13.3v-1H292.5v1Zm16.1,-12.4v.8H317v1.4h-8.1c-.1,0,-.2,0,-.3,.1q0,.1,0,.2v2.5c0,.1,0,.2,0,.2c.1,.1,.2,.1,.3,.1h9.5v-.8h-8.8v-1.4h8.1c.1,0,.2,-.1,.3,-.1q0,-.1,0,-.3v-2.4c0,-.1,0,-.2,0,-.2c-.1,-.1,-.2,-.1,-.3,-.1h-9.1Zm-1.9,7.5H320v-.9H306.7v.9Zm11.4,4.5c0,-.1,.1,-.2,.1,-.3v-2.5c0,-.1,-.1,-.2,-.1,-.3q-.1,0,-.2,0h-9.3v.8h8.5v1.5h-8.2c-.1,0,-.2,0,-.3,.1c0,0,0,.1,0,.2v2.6c0,.1,0,.2,0,.2c.1,0,.2,.1,.3,.1h9.6v-.9h-8.9v-1.5h8.3q.1,0,.2,0Zm8.6,-11.5q0,.1,0,.2v9.8c0,.1,0,.2,0,.2c.1,.1,.2,.1,.3,.1c0,0,.2,0,.4,0c.3,0,.6,0,1,0c.4,0,.8,0,1.2,0c.5,0,.9,0,1.4,-.1c.3,0,.7,0,1.1,-.1c.4,0,.8,0,1.2,-.1c.4,0,.7,-.1,1.1,-.1c.4,-.1,.7,-.2,.9,-.2v-.9c-.7,.1,-1.4,.3,-2.2,.3c-.8,.1,-1.4,.2,-2.1,.2c-.3,0,-.7,0,-1.1,0c-.4,.1,-.7,.1,-1.1,.1h-1.1v-4h5.5v-.9h-5.5v-3.7h5.8v-.9H327c-.1,0,-.2,0,-.3,.1Zm9.2,14.1H337v-8.6h2.2v-1H337v-5.4h-1.1v15Zm7.3,-12.2c0,1.9,-.3,3.6,-.8,4.9c-.6,1.4,-1.6,2.5,-2.9,3.5l1,.7c.8,-.7,1.5,-1.5,2.1,-2.3c.5,-.9,.9,-1.8,1.1,-2.8c.2,.9,.6,1.7,1.1,2.5c.5,.7,1.1,1.4,1.9,1.9l.8,-.8c-1.1,-.6,-1.9,-1.5,-2.4,-2.7c-.5,-1.1,-.8,-2.7,-.8,-4.5v-2.4h-1.1v2Zm8.1,12.2h1v-15h-1v15Zm-2.8,-10.2h-2.7v.9h2.7v8.5h1v-13.9h-1v4.5Zm10.2,-4.2c-.6,.2,-1.2,.5,-1.6,.8c-.4,.4,-.8,.8,-1,1.3c-.3,.5,-.4,1.1,-.4,1.7c0,.6,.1,1.2,.4,1.7c.2,.5,.6,.9,1,1.2c.4,.4,1,.6,1.6,.8c.6,.2,1.3,.3,2,.3c.8,0,1.5,-.1,2.1,-.3c.6,-.2,1.2,-.4,1.6,-.8c.4,-.3,.8,-.7,1,-1.2c.3,-.5,.4,-1.1,.4,-1.7c0,-.6,-.1,-1.2,-.4,-1.7c-.2,-.5,-.6,-.9,-1,-1.3c-.4,-.3,-1,-.6,-1.6,-.8c-.6,-.1,-1.3,-.2,-2.1,-.2c-.7,0,-1.4,.1,-2,.2Zm3.6,.8c.5,.2,.9,.4,1.3,.7c.3,.2,.6,.6,.8,1c.2,.4,.3,.8,.3,1.3c0,.5,-.1,.9,-.3,1.3c-.2,.4,-.5,.7,-.8,1c-.4,.2,-.8,.5,-1.3,.6c-.4,.1,-1,.2,-1.6,.2c-.5,0,-1.1,-.1,-1.6,-.2c-.4,-.1,-.9,-.4,-1.2,-.6c-.3,-.3,-.6,-.6,-.8,-1c-.2,-.4,-.3,-.8,-.3,-1.3c0,-.5,.1,-.9,.3,-1.3c.2,-.4,.5,-.8,.8,-1c.3,-.3,.8,-.5,1.2,-.7c.5,-.1,1.1,-.2,1.6,-.2c.6,0,1.2,.1,1.6,.2Zm-4.9,10.6h-3.3v.9h13.3v-.9h-3.3v-3.2h-1v3.2h-4.7v-3.2h-1v3.2Zm12.1,1.5h1.4v-1.5h-1.4v1.5ZM166,1107.9c.1,0,.1,.1,.3,.1h6.9v-1H167c.5,-.5,1.1,-1.1,1.8,-1.8c.7,-.7,1.3,-1.4,1.9,-2.1c.6,-.8,1.2,-1.5,1.6,-2.3c.4,-.8,.6,-1.5,.6,-2.3c0,-1,-.3,-1.9,-.9,-2.4c-.7,-.5,-1.5,-.8,-2.5,-.8c-.5,0,-1,.1,-1.4,.2c-.4,.2,-.8,.4,-1.1,.7c-.3,.3,-.5,.7,-.7,1.1c-.2,.4,-.2,.9,-.2,1.4h1c0,-.3,.1,-.6,.2,-1c.1,-.3,.3,-.5,.5,-.7c.2,-.3,.4,-.5,.7,-.6c.3,-.1,.6,-.2,.9,-.2c.7,0,1.3,.2,1.8,.6c.5,.4,.7,1,.7,1.8c0,.3,-.1,.6,-.2,.9c-.1,.4,-.3,.7,-.5,1.1c-.2,.4,-.5,.8,-.8,1.2c-.3,.4,-.6,.8,-.9,1.2c-.3,.4,-.7,.8,-1,1.2c-.3,.4,-.7,.7,-1,1.1c-.3,.3,-.6,.6,-.9,.9c-.2,.2,-.5,.5,-.6,.7v.8c0,.1,0,.2,0,.2Zm9.9,.3h1.4v-1.5h-1.4v1.5Zm9.6,-12.6v.9h5.1c-.2,2.1,-.8,3.8,-1.8,5.3c-1,1.6,-2.4,2.8,-4.3,3.8l1,.7c1.9,-1.2,3.4,-2.7,4.5,-4.4c1,-1.7,1.6,-3.7,1.7,-5.9c0,-.1,0,-.2,0,-.3c-.1,0,-.2,-.1,-.3,-.1h-5.9Zm9.1,14.1h1.1v-7.8H198v-1h-2.3v-6.2h-1.1v15Zm6.9,-12.1h-1.4v1.5h1.4v-1.5Zm0,7.4h-1.4v1.5h1.4V1105Zm11.5,-9.9c-.6,.2,-1.2,.4,-1.6,.7c-.5,.3,-.8,.6,-1,1c-.3,.4,-.4,.9,-.4,1.4c0,.6,.1,1,.4,1.4c.2,.5,.5,.8,1,1.1c.4,.3,1,.5,1.6,.7c.6,.1,1.3,.2,2.1,.2c.7,0,1.4,-.1,2.1,-.2c.6,-.2,1.1,-.4,1.6,-.7c.4,-.3,.7,-.6,1,-1.1c.2,-.4,.4,-.8,.4,-1.4c0,-.5,-.2,-1,-.4,-1.4c-.3,-.4,-.6,-.7,-1,-1c-.5,-.3,-1,-.5,-1.6,-.7c-.7,-.2,-1.4,-.2,-2.1,-.2c-.8,0,-1.5,0,-2.1,.2Zm3.7,.8c.5,.1,.9,.3,1.3,.5c.3,.2,.6,.5,.8,.8c.2,.3,.3,.7,.3,1.1c0,.3,-.1,.7,-.3,1c-.2,.3,-.5,.6,-.8,.8c-.4,.2,-.8,.4,-1.3,.5c-.5,.1,-1,.2,-1.6,.2c-.6,0,-1.1,-.1,-1.6,-.2c-.5,-.1,-.9,-.3,-1.3,-.5c-.4,-.2,-.6,-.5,-.8,-.8c-.2,-.3,-.3,-.7,-.3,-1c0,-.4,.1,-.8,.3,-1.1c.2,-.3,.4,-.6,.8,-.8c.4,-.2,.8,-.4,1.3,-.5c.5,-.1,1,-.2,1.6,-.2c.6,0,1.1,.1,1.6,.2Zm-8.2,8.3h6.1v5.4h1v-5.4h6.1v-.9H208.5v.9Zm16.3,-8.1h3.7v-.9h-3.7v.9Zm-1.3,2.8h2.6v.9c0,.7,-.1,1.3,-.3,2c-.2,.6,-.4,1.1,-.8,1.7c-.3,.5,-.7,1,-1.1,1.4c-.4,.5,-.9,.8,-1.3,1.1l1,.7c.8,-.6,1.4,-1.4,1.9,-2.2c.5,-.7,.9,-1.6,1.2,-2.4c.3,.8,.7,1.5,1.2,2.2c.4,.7,1,1.3,1.7,1.8l.8,-.7c-.4,-.3,-.8,-.6,-1.2,-1c-.4,-.4,-.7,-.9,-1,-1.3c-.3,-.5,-.5,-1,-.7,-1.6c-.2,-.5,-.3,-1.1,-.3,-1.7v-.9h2.7v-.9h-6.4v.9Zm10.7,10.7h1.1v-14.9h-1.1v14.9Zm-2.7,-8.9H229v1h2.5v7.2h1V1095h-1v5.7Zm7,-5.5v.9h9c0,.3,0,.7,-.1,1.1c0,.4,-.1,.8,-.1,1.2c-.1,.4,-.1,.8,-.2,1.2c0,.4,-.1,.8,-.2,1.1h-10v.9h5.9v3h-4.3v.9h8.8v4.2h1v-4.8c0,-.1,0,-.2,0,-.2c-.1,-.1,-.2,-.1,-.3,-.1h-4.2v-3h6.4v-.9h-2.3c.1,-.4,.2,-.8,.2,-1.3c.1,-.5,.2,-.9,.2,-1.4c.1,-.4,.1,-.9,.1,-1.3c.1,-.5,.1,-.9,.2,-1.2c0,-.1,-.1,-.2,-.1,-.2q-.1,-.1,-.3,-.1h-9.7Zm14.4,1.3c-.6,.9,-1,2.4,-1,4.2c0,1.9,.4,3.3,1,4.3c.7,.9,1.5,1.4,2.5,1.4c1,0,1.9,-.5,2.5,-1.4c.7,-1,1,-2.4,1,-4.3c0,-1.8,-.3,-3.3,-1,-4.2c-.6,-.9,-1.5,-1.4,-2.5,-1.4c-1,0,-1.8,.5,-2.5,1.4Zm4.3,.8c.4,.9,.7,2,.7,3.4c0,1.5,-.2,2.6,-.7,3.5c-.4,.8,-1,1.3,-1.8,1.3c-.7,0,-1.3,-.5,-1.8,-1.3c-.4,-.9,-.6,-2,-.6,-3.5c0,-1.4,.2,-2.5,.6,-3.4c.5,-.9,1.1,-1.3,1.8,-1.3c.8,0,1.4,.4,1.8,1.3Zm4.8,12.3h1.1v-14.9H262v14.9Zm9.8,-13.1c-.6,.9,-.9,2.4,-.9,4.2c0,1.9,.3,3.3,.9,4.3c.7,.9,1.5,1.4,2.5,1.4c1,0,1.8,-.5,2.4,-1.3c.7,-.9,1,-2.3,1,-4.1H281v8.6h1v-14.9h-1v5.4h-3.3c-.1,-1.7,-.4,-2.9,-1,-3.8c-.6,-.8,-1.4,-1.2,-2.4,-1.2c-1,0,-1.8,.5,-2.5,1.4Zm4.3,.8c.4,.9,.6,2,.6,3.4c0,1.5,-.2,2.6,-.6,3.5c-.4,.8,-1,1.3,-1.8,1.3c-.7,0,-1.3,-.5,-1.7,-1.3c-.5,-.9,-.7,-2,-.7,-3.5c0,-1.4,.2,-2.5,.7,-3.4c.4,-.9,1,-1.3,1.7,-1.3c.8,0,1.4,.4,1.8,1.3Zm9.6,-1.6c-.1,.1,-.1,.2,-.1,.3v9.4c0,.1,0,.2,.1,.2c0,.1,.1,.1,.2,.1h3c.4,0,.9,0,1.4,-.1c.5,0,1,-.1,1.5,-.1c.5,-.1,1,-.2,1.4,-.2c.5,-.1,.9,-.2,1.3,-.3v-.9c-.2,0,-.5,.1,-.9,.1c-.4,.1,-.9,.2,-1.4,.2c-.5,.1,-1.1,.2,-1.7,.2c-.6,.1,-1.2,.1,-1.7,.1h-2.1v-8.1h5.7v-1h-6.5c-.1,0,-.2,.1,-.2,.1Zm9.4,13.9h1v-14.9h-1v14.9Zm4.7,-13c-.5,.9,-.8,2.3,-.8,4.2c0,1.9,.3,3.3,.8,4.2c.6,.9,1.3,1.4,2.2,1.4c.9,0,1.6,-.4,2.2,-1.3c.5,-.8,.8,-2.1,.9,-3.8h1.8v7.6H308V1095h-1.1v5.3h-1.8c-.1,-1.7,-.4,-3,-.9,-3.9c-.6,-.8,-1.3,-1.2,-2.2,-1.2c-.9,0,-1.6,.4,-2.2,1.4Zm3.7,.8c.4,.8,.6,1.9,.6,3.4c0,1.4,-.2,2.6,-.6,3.4c-.4,.9,-.9,1.3,-1.5,1.3c-.6,0,-1.1,-.4,-1.4,-1.3c-.4,-.8,-.6,-2,-.6,-3.4c0,-1.5,.2,-2.6,.6,-3.4c.3,-.9,.8,-1.3,1.4,-1.3c.6,0,1.1,.4,1.5,1.3Zm6.2,12.2h1v-14.9h-1v14.9Zm128.5,-14.4c-.4,.2,-.8,.4,-1.1,.7c-.3,.3,-.6,.7,-.7,1.1c-.2,.5,-.3,.9,-.3,1.4c0,.5,.1,1,.2,1.4c.2,.5,.4,.8,.8,1.2c.3,.3,.6,.5,1.1,.7c.4,.2,.9,.3,1.5,.3c1.1,0,1.9,-.4,2.6,-1c.7,-.7,1,-1.5,1,-2.6c0,-.5,-.1,-.9,-.3,-1.4c-.1,-.4,-.4,-.8,-.7,-1.1c-.3,-.3,-.7,-.5,-1.1,-.7c-.5,-.2,-1,-.3,-1.5,-.3c-.6,0,-1.1,.1,-1.5,.3Zm3.4,1.4c.4,.5,.6,1.1,.6,1.8c0,.8,-.2,1.4,-.6,1.9c-.5,.5,-1.1,.8,-1.9,.8c-.9,0,-1.5,-.3,-1.9,-.8c-.4,-.5,-.7,-1.1,-.7,-1.9c0,-.7,.3,-1.3,.7,-1.8c.4,-.5,1,-.8,1.9,-.8c.8,0,1.4,.3,1.9,.8Zm4.5,5.9h1v-3.8h2.1v-1h-2.1v-3h-1v7.8Zm-8,.8v.9h8v1.7h-7.7c-.1,0,-.2,0,-.2,.1c0,0,-.1,.1,-.1,.2v2.9c0,.2,.1,.2,.1,.3c0,0,.1,.1,.2,.1h9.1v-.9h-8.3v-1.8h7.6c.1,0,.2,0,.3,-.1c0,0,0,-.1,0,-.2v-2.9c0,-.1,0,-.2,0,-.3c-.1,0,-.2,0,-.3,0h-8.7Zm13.2,-6.8c-.6,.9,-.9,2.4,-.9,4.2c0,1.9,.3,3.3,.9,4.3c.7,.9,1.5,1.4,2.5,1.4c1,0,1.9,-.5,2.5,-1.4c.6,-1,1,-2.4,1,-4.3c0,-1.8,-.4,-3.3,-1,-4.2c-.6,-.9,-1.5,-1.4,-2.5,-1.4c-1,0,-1.8,.5,-2.5,1.4Zm4.3,.8c.4,.9,.6,2,.6,3.4c0,1.5,-.2,2.6,-.6,3.5c-.4,.8,-1,1.3,-1.8,1.3c-.7,0,-1.3,-.5,-1.8,-1.3c-.4,-.9,-.6,-2,-.6,-3.5c0,-1.4,.2,-2.5,.6,-3.4c.5,-.9,1.1,-1.3,1.8,-1.3c.8,0,1.4,.4,1.8,1.3Zm4.4,12.4h1.1V1101h2.3v-.9h-2.3v-5.4H460v15Zm8.6,-14.4c-.6,.2,-1.1,.5,-1.6,.8c-.4,.4,-.8,.8,-1,1.3c-.2,.5,-.4,1,-.4,1.7c0,.6,.2,1.1,.4,1.6c.2,.5,.6,1,1,1.3c.5,.3,1,.6,1.6,.8c.6,.2,1.3,.3,2.1,.3c.7,0,1.4,-.1,2,-.3c.6,-.2,1.2,-.5,1.6,-.8c.5,-.3,.8,-.8,1,-1.3c.3,-.5,.4,-1,.4,-1.6c0,-.7,-.1,-1.2,-.4,-1.7c-.2,-.5,-.5,-.9,-1,-1.3c-.4,-.3,-1,-.6,-1.6,-.8c-.6,-.2,-1.3,-.2,-2,-.2c-.8,0,-1.5,0,-2.1,.2Zm3.7,.8c.4,.2,.9,.4,1.2,.6c.4,.3,.6,.7,.8,1c.2,.4,.3,.9,.3,1.4c0,.4,-.1,.9,-.3,1.3c-.2,.4,-.4,.7,-.8,1c-.3,.2,-.8,.4,-1.2,.6c-.5,.1,-1,.2,-1.6,.2c-.6,0,-1.1,-.1,-1.6,-.2c-.5,-.2,-.9,-.4,-1.3,-.6c-.3,-.3,-.6,-.6,-.8,-1c-.2,-.4,-.3,-.9,-.3,-1.3c0,-.5,.1,-1,.3,-1.4c.2,-.3,.5,-.7,.8,-1c.4,-.2,.8,-.4,1.3,-.6c.5,-.1,1,-.2,1.6,-.2c.6,0,1.1,.1,1.6,.2Zm-5,10.6H464v.9h13.3v-.9H474v-3.3h-1v3.3h-4.7v-3.3h-1v3.3Zm13.4,1.6H482v-1.4h-1.3v1.4Zm-.7,-13.1c-.5,.3,-.9,.6,-1.2,1l.4,.7c.4,-.3,.7,-.6,1.1,-.8c.4,-.2,.8,-.3,1.3,-.3c.6,0,1.1,.2,1.5,.6c.4,.4,.6,.9,.6,1.6c0,.6,-.2,1.1,-.5,1.6c-.3,.4,-.7,.9,-1.1,1.2c-.4,.4,-.7,.8,-1,1.2c-.3,.4,-.4,.9,-.4,1.5c0,.2,0,.5,0,.7c0,.2,0,.5,.1,.7h1v-1.1c0,-.6,.1,-1.1,.3,-1.4c.2,-.4,.5,-.8,.9,-1.1c.4,-.4,.8,-.9,1.2,-1.4c.4,-.6,.6,-1.3,.6,-2c0,-.4,-.1,-.8,-.2,-1.2c-.2,-.4,-.4,-.7,-.6,-1c-.3,-.3,-.6,-.5,-1,-.6c-.4,-.2,-.8,-.3,-1.2,-.3c-.7,0,-1.3,.2,-1.8,.4Zm-295,41c0,0,.1,0,.3,0c0,0,.1,0,.3,.1c.2,0,.5,0,.8,-.1c.3,0,.7,0,1.1,0c.5,0,.9,0,1.4,0c.4,0,.8,0,1.3,-.1c.4,0,.8,-.1,1.3,-.2c.4,0,.8,-.1,1.1,-.1c.4,-.1,.7,-.2,.9,-.2v-1c-.2,.1,-.5,.1,-.9,.2c-.4,.1,-.8,.1,-1.2,.2c-.4,0,-.8,.1,-1.3,.1c-.4,.1,-.8,.1,-1.1,.1l-3,.1v-9.4h-1.1v10c0,.1,.1,.2,.1,.3Zm9.2,4h1v-8.4h2.3v-1h-2.3v-5.5h-1v14.9Zm6.8,-12h-1.4v1.5H201v-1.5Zm0,7.4h-1.4v1.5H201v-1.5Zm11.6,-10.2c-.7,.2,-1.2,.4,-1.6,.6c-.5,.3,-.8,.7,-1,1c-.3,.4,-.4,.9,-.4,1.3c0,.5,.1,.9,.4,1.3c.2,.4,.5,.8,1,1c.4,.3,.9,.5,1.6,.7c.6,.1,1.3,.2,2,.2c.8,0,1.4,-.1,2,-.2c.7,-.2,1.2,-.4,1.6,-.7c.4,-.2,.8,-.6,1,-1c.3,-.4,.4,-.8,.4,-1.3c0,-.4,-.1,-.9,-.4,-1.3c-.2,-.3,-.6,-.7,-1,-1c-.4,-.2,-.9,-.4,-1.6,-.6c-.6,-.2,-1.2,-.2,-2,-.2c-.7,0,-1.4,0,-2,.2Zm3.6,.8c.5,.1,.9,.3,1.2,.5c.4,.2,.7,.5,.9,.8c.2,.2,.3,.6,.3,.9c0,.3,-.1,.6,-.3,.9c-.2,.3,-.5,.5,-.9,.7c-.3,.2,-.7,.4,-1.2,.5c-.5,.1,-1,.2,-1.6,.2c-.6,0,-1.1,-.1,-1.6,-.2c-.5,-.1,-.9,-.3,-1.2,-.5c-.4,-.2,-.7,-.4,-.8,-.7c-.2,-.3,-.3,-.6,-.3,-.9c0,-.3,.1,-.7,.3,-.9c.1,-.3,.4,-.6,.8,-.8c.3,-.2,.7,-.4,1.2,-.5c.5,-.1,1,-.2,1.6,-.2c.6,0,1.1,.1,1.6,.2ZM208,1134h13.3v-.9H208v.9Zm12,5.9v-.9h-9.2v-3.6h-1v4.2c0,.1,.1,.2,.1,.2c0,.1,.1,.1,.2,.1H220Zm4.4,-13.5h3.5v-.9h-3.5v.9Zm-1.6,2.1h6.7v-.9h-6.7v.9Zm1.2,1.4c-.6,.5,-.8,1.1,-.8,1.8c0,.7,.2,1.3,.7,1.8c.6,.4,1.3,.6,2.3,.6c.9,0,1.6,-.2,2.1,-.6c.6,-.5,.9,-1.1,.9,-1.8c0,-.7,-.3,-1.3,-.9,-1.8c-.5,-.4,-1.2,-.6,-2.1,-.6c-1,0,-1.7,.2,-2.2,.6Zm3.6,.7c.4,.3,.6,.7,.6,1.1c0,.4,-.2,.8,-.6,1.1c-.3,.3,-.8,.5,-1.4,.5c-.7,0,-1.2,-.2,-1.5,-.5c-.4,-.3,-.6,-.7,-.6,-1.1c0,-.4,.2,-.8,.6,-1.1c.3,-.3,.8,-.5,1.5,-.5c.6,0,1.1,.2,1.4,.5Zm3,3.8h1.1v-4h1.9v4.6h1.1v-9.7h-1.1v4.2h-1.9v-4h-1.1v8.9Zm-4.5,1.4c-.9,.5,-1.4,1.2,-1.4,1.9c0,.8,.5,1.5,1.4,2c.9,.5,2.1,.8,3.7,.8c1.5,0,2.8,-.3,3.7,-.8c.9,-.5,1.3,-1.2,1.3,-2c0,-.7,-.4,-1.4,-1.3,-1.9c-.9,-.5,-2.2,-.8,-3.7,-.8c-1.6,0,-2.8,.3,-3.7,.8Zm5.2,.2c.5,.1,.9,.2,1.3,.4c.3,.1,.6,.3,.8,.6c.2,.2,.3,.5,.3,.8c0,.3,-.1,.5,-.3,.8c-.2,.2,-.5,.4,-.9,.5c-.3,.2,-.7,.3,-1.2,.4c-.5,.1,-1,.1,-1.5,.1c-.6,0,-1.1,0,-1.6,-.1c-.5,-.1,-.9,-.2,-1.2,-.4c-.4,-.1,-.7,-.3,-.9,-.5c-.2,-.3,-.3,-.5,-.3,-.8c0,-.3,.1,-.6,.3,-.8c.2,-.3,.5,-.5,.9,-.6c.3,-.2,.7,-.3,1.2,-.4c.5,0,1,-.1,1.6,-.1c.5,0,1,.1,1.5,.1ZM244,1125.8c-.4,.1,-.8,.4,-1.2,.8c-.3,.3,-.6,.7,-.7,1.1c-.2,.5,-.3,1,-.3,1.5c0,.5,.1,.9,.3,1.4c.1,.4,.4,.8,.7,1.2c.4,.3,.7,.6,1.2,.8c.5,.2,1,.3,1.5,.3c.7,0,1.3,-.2,1.8,-.5c.5,-.3,1,-.7,1.3,-1.1h3.5v2.4h1.1v-8.4h-1.1v1.7h-3.5c-.3,-.4,-.8,-.8,-1.3,-1.1c-.5,-.3,-1.1,-.4,-1.8,-.4c-.5,0,-1,.1,-1.5,.3Zm8.1,2.1v2.5H249c.1,-.2,.1,-.4,.1,-.6c.1,-.2,.1,-.4,.1,-.6c0,-.2,0,-.5,-.1,-.7c0,-.2,0,-.4,-.1,-.6h3.1Zm-5.5,-1.3c.4,.2,.6,.4,.8,.6c.3,.3,.4,.6,.6,.9c.1,.3,.1,.7,.1,1.1c0,.3,0,.7,-.1,1c-.2,.4,-.3,.7,-.6,.9c-.2,.3,-.4,.5,-.8,.6c-.3,.2,-.7,.2,-1.1,.2c-.4,0,-.8,0,-1.1,-.2c-.3,-.1,-.6,-.3,-.9,-.6c-.2,-.2,-.4,-.5,-.5,-.9c-.1,-.3,-.2,-.7,-.2,-1c0,-.4,.1,-.8,.2,-1.1c.1,-.3,.3,-.6,.5,-.9c.3,-.2,.6,-.4,.9,-.6c.3,-.2,.7,-.2,1.1,-.2c.4,0,.8,0,1.1,.2Zm4,8.7v3.8h-4.1l-.1,-3.8h4.2Zm-7,0h1.8l.1,3.8h-2v.9h10.1v-.9h-2.1l.1,-3.8h1.8v-.9h-9.8v.9Zm13.1,-8.2c-.5,1,-.8,2.4,-.8,4.2c0,1.9,.3,3.3,.8,4.3c.6,.9,1.3,1.4,2.2,1.4c.9,0,1.6,-.5,2.2,-1.3c.5,-.9,.8,-2.2,.9,-3.9h1.8v7.7h1.1v-14h-1.1v5.3H262c-.1,-1.7,-.4,-3,-.9,-3.8c-.6,-.8,-1.3,-1.3,-2.2,-1.3c-.9,0,-1.6,.5,-2.2,1.4Zm3.7,.8c.4,.9,.6,2,.6,3.4c0,1.5,-.2,2.6,-.6,3.5c-.4,.8,-.9,1.2,-1.5,1.2c-.6,0,-1.1,-.4,-1.4,-1.2c-.4,-.9,-.6,-2,-.6,-3.5c0,-1.4,.2,-2.5,.6,-3.4c.3,-.8,.8,-1.3,1.4,-1.3c.6,0,1.1,.5,1.5,1.3Zm6.2,12.3h1v-14.9h-1v14.9Zm10.5,-14.4c-.4,.1,-.8,.4,-1.1,.8c-.4,.3,-.6,.7,-.8,1.1c-.2,.5,-.2,1,-.2,1.5c0,.5,0,1,.2,1.4c.2,.5,.4,.9,.8,1.2c.3,.4,.7,.6,1.1,.8c.5,.2,1,.3,1.5,.3c.6,0,1.1,-.1,1.5,-.2c.5,-.2,.9,-.5,1.2,-.8c.3,-.4,.6,-.8,.8,-1.2c.2,-.5,.2,-1,.2,-1.5c0,-.5,0,-1,-.2,-1.5c-.2,-.4,-.5,-.8,-.8,-1.1c-.3,-.4,-.7,-.7,-1.1,-.8c-.5,-.2,-1,-.3,-1.5,-.3c-.6,0,-1.1,.1,-1.6,.3Zm3.5,1.4c.5,.6,.7,1.2,.7,2c0,.4,-.1,.7,-.2,1.1c-.1,.3,-.3,.6,-.5,.9c-.2,.2,-.5,.5,-.8,.6c-.4,.2,-.7,.2,-1.2,.2c-.4,0,-.8,0,-1.1,-.2c-.3,-.1,-.6,-.4,-.8,-.6c-.2,-.3,-.4,-.6,-.5,-.9c-.1,-.4,-.2,-.7,-.2,-1.1c0,-.8,.3,-1.4,.7,-2c.4,-.5,1.1,-.8,1.9,-.8c.9,0,1.5,.3,2,.8Zm4.7,6.8h1v-8.7h-1v8.7Zm-6.6,1.2c0,.4,-.1,.9,-.2,1.3c-.2,.5,-.5,.9,-.8,1.3c-.3,.3,-.6,.7,-1,1c-.3,.3,-.7,.6,-1.1,.8l.8,.7c.6,-.4,1.2,-.9,1.6,-1.4c.5,-.5,.9,-1.1,1.2,-1.7c.3,.5,.6,1,1,1.5c.4,.5,1,1,1.6,1.5c.5,-.4,1,-.9,1.4,-1.4c.4,-.4,.8,-1,1.1,-1.6c.3,.7,.7,1.2,1.2,1.7c.4,.6,1,1,1.6,1.4l.8,-.7c-.4,-.2,-.8,-.5,-1.1,-.8c-.4,-.3,-.8,-.6,-1.1,-1c-.3,-.4,-.5,-.8,-.7,-1.3c-.2,-.4,-.3,-.8,-.3,-1.3v-.6h-1v.5c0,.8,-.2,1.5,-.6,2.2c-.4,.7,-.8,1.2,-1.3,1.6c-.6,-.5,-1.1,-1,-1.5,-1.7c-.4,-.6,-.6,-1.3,-.6,-1.9v-.7h-1v.6Zm11.6,-8.1c-.6,.9,-.9,2.3,-.9,4.2c0,1.9,.3,3.3,.9,4.2c.7,1,1.5,1.4,2.5,1.4c1,0,1.8,-.4,2.4,-1.3c.6,-.9,1,-2.2,1,-4h3.3v8.6h1v-14.9h-1v5.4h-3.3c-.1,-1.7,-.4,-3,-1,-3.8c-.7,-.8,-1.4,-1.3,-2.4,-1.3c-1,0,-1.8,.5,-2.5,1.5Zm4.3,.8c.4,.8,.6,2,.6,3.4c0,1.4,-.2,2.6,-.6,3.4c-.5,.9,-1,1.3,-1.8,1.3c-.7,0,-1.3,-.4,-1.8,-1.3c-.4,-.8,-.6,-2,-.6,-3.4c0,-1.4,.2,-2.6,.6,-3.4c.5,-.9,1.1,-1.3,1.8,-1.3c.8,0,1.3,.4,1.8,1.3Zm12.7,-2c-.6,.2,-1.1,.4,-1.6,.8c-.4,.3,-.8,.7,-1,1.2c-.2,.5,-.3,1.1,-.3,1.7c0,.6,.1,1.2,.3,1.7c.2,.5,.6,.9,1,1.2c.5,.4,1,.7,1.6,.8c.6,.2,1.3,.3,2.1,.3c.7,0,1.4,-.1,2,-.3c.7,-.1,1.2,-.4,1.6,-.8c.5,-.3,.8,-.7,1.1,-1.2c.2,-.5,.3,-1.1,.3,-1.7c0,-.6,-.1,-1.2,-.3,-1.7c-.3,-.5,-.6,-.9,-1.1,-1.2c-.4,-.4,-.9,-.6,-1.6,-.8c-.6,-.2,-1.3,-.3,-2,-.3c-.8,0,-1.5,.1,-2.1,.3Zm3.7,.8c.5,.1,.9,.3,1.2,.6c.4,.3,.7,.6,.9,1c.1,.4,.2,.8,.2,1.3c0,.5,-.1,.9,-.2,1.3c-.2,.4,-.5,.7,-.9,1c-.3,.3,-.7,.5,-1.2,.6c-.5,.2,-1,.3,-1.6,.3c-.6,0,-1.1,-.1,-1.6,-.3c-.5,-.1,-.9,-.3,-1.3,-.6c-.3,-.3,-.6,-.6,-.8,-1c-.2,-.4,-.3,-.8,-.3,-1.3c0,-.5,.1,-.9,.3,-1.3c.2,-.4,.5,-.7,.8,-1c.4,-.3,.8,-.5,1.3,-.6c.5,-.2,1,-.2,1.6,-.2c.6,0,1.1,0,1.6,.2Zm-5,10.5h-3.3v.9H316v-.9h-3.2V1134h-1.1v3.2H307V1134h-1v3.2Zm12.1,1.5h1.4v-1.5h-1.4v1.5Z" class="g4_156"/>
<path d="M682.1,1181.5c0,0,-4.4,0,-4.4,4.3v10.9c0,0,0,4.3,4.4,4.3h30.3c0,0,4.3,0,4.3,-4.3v-10.9c0,0,0,-4.3,-4.3,-4.3Z" class="g5_156"/>
<path d="M668.9,1174v34.9m1.3,.9H845.1m1,-1.3v-34.9m-1.4,-.9H669.8" class="g6_156"/>
<path d="M668.9,1209.3v.5h.6m176,0h.6v-.5m0,-36.1v-.5h-.6m-176,0h-.6v.5" class="g7_156"/>
<path d="M145.1,500.5c0,0,-13,0,-13,13V799.1c0,0,0,13,13,13H832.9c0,0,13,0,13,-13V513.5c0,0,0,-13,-13,-13Z" class="g8_156"/>
<path d="M145.1,500.5c0,0,-13,0,-13,13V799.1c0,0,0,13,13,13H832.9c0,0,13,0,13,-13V513.5c0,0,0,-13,-13,-13H145.1Z" class="g2_156"/>
<path d="M310.8,588.2H555.7M267.9,708.4H512.8M328.1,744.3h245" class="g9_156"/>
<path d="M413.6,828.3c0,0,-4.4,0,-4.4,4.3v10.9c0,0,0,4.3,4.4,4.3h30.3c0,0,4.3,0,4.3,-4.3V832.6c0,0,0,-4.3,-4.3,-4.3Z" class="g5_156"/>
<path d="M400.4,820.8v34.9m1.3,.9H845.1m1,-1.3V820.4m-1.4,-.9H401.3" class="g6_156"/>
<path d="M400.4,856.1v.5h.6m444.5,0h.6v-.5m0,-36.1v-.5h-.6m-444.5,0h-.6v.5" class="g7_156"/>
<path d="M209.2,407.6c0,0,-13,0,-13,12.9v47.7c0,0,0,13,13,13H830.8c0,0,13,0,13,-13V420.5c0,0,0,-12.9,-13,-12.9Z" class="ga_156"/>
<image clip-path="url(#c1_156)" preserveAspectRatio="none" x="152" y="404" width="75" height="76" xlink:href="img/1.png"/>
<path d="M204,473.8c0,0,-26.8,11.3,-51.1,-12.7c0,0,15.2,25.3,49.3,23.9c0,0,24.8,.4,20.3,-10.1c0,0,1.2,-4.5,-18.5,-1.1Z" class="ga_156"/>
<path d="M209.2,961c0,0,-13,0,-13,13v21.7c0,0,0,13,13,13h602c0,0,13,0,13,-13V974c0,0,0,-13,-13,-13Z" class="ga_156"/>
<image clip-path="url(#c2_156)" preserveAspectRatio="none" x="152" y="931" width="75" height="77" xlink:href="img/2.png"/>
<path d="M204,1001.3c0,0,-26.8,11.3,-51.1,-12.7c0,0,15.2,25.3,49.3,23.9c0,0,24.8,.4,20.3,-10.1c0,0,1.2,-4.5,-18.5,-1.1Z" class="ga_156"/>
<path d="M131.7,109.5v39l11.7,10.2V136.5Z" class="gb_156"/>
<path d="M131.7,109.5v39H829.5c0,0,16.8,0,16.8,-16.8v-5.4c0,0,0,-16.8,-16.8,-16.8Z" class="g5_156"/>
<path d="M768.8,131c0,0,-.5,-10,8.6,-9.4c0,0,6.7,-.3,6.6,9.5m-15.3,-1.5v6.5c0,0,-3.3,.3,-3.9,-3c0,0,-.1,-3.8,3.9,-3.5Zm15.4,0v6.5c0,0,3.3,.3,3.9,-3c0,0,.1,-3.8,-3.9,-3.5Z" class="gc_156"/>
<path d="M147.4,140.8h61v-32h-61v32Z" class="gd_156"/>
<path d="M147.4,143.1h61v-2.3h-61v2.3Z" class="gd_156"/>
<path d="M171.8,106.2H152.1v31.5h25.8V112.3c0,-3.4,-2.7,-6.1,-6.1,-6.1Z" class="g8_156"/>
<path d="M171.8,106.2v-.5H152.1c-.1,0,-.3,.1,-.4,.2c-.1,.1,-.1,.2,-.1,.3v31.5c0,.1,0,.3,.1,.4c.1,.1,.3,.1,.4,.1h25.8c.1,0,.2,0,.3,-.1c.1,-.1,.2,-.3,.2,-.4V112.3c0,-3.7,-2.9,-6.6,-6.6,-6.6v1c1.6,0,2.9,.7,3.9,1.7c1,1,1.6,2.3,1.6,3.9v24.9H152.6V106.7h19.2Z" class="ge_156"/>
<path d="M152.1,131.7v6h25.8c0,-3.3,-2.7,-6,-6.1,-6Z" class="g8_156"/>
<path d="M152.1,131.7h-.5v6c0,.1,0,.3,.1,.4c.1,.1,.3,.1,.4,.1h25.8c.1,0,.2,0,.3,-.1c.1,-.1,.2,-.3,.2,-.4c0,-3.6,-3,-6.6,-6.6,-6.6H152.1c-.1,0,-.3,.1,-.4,.2c-.1,.1,-.1,.2,-.1,.4h.5v.5h19.7c1.6,0,2.9,.6,3.9,1.6c1,1,1.6,2.4,1.6,3.9h.6v-.5H152.6v-5.5h-.5v.5Z" class="ge_156"/>
<path d="M155.6,110.9h17.2m-17.2,2.8h17.2m-17.2,2.9h17.2m-17.2,2.9h17.2m-17.2,2.8h17.2m-17.2,2.9h17.2M155.6,128h17.2" class="gf_156"/>
<path d="M171.8,132.2H152.6v5h24.7c-.1,-1.3,-.7,-2.5,-1.6,-3.4c-1,-1,-2.3,-1.6,-3.9,-1.6Z" class="gg_156"/>
<path d="M152.6,132.2h19.2c1.6,0,2.9,.6,3.9,1.6c.9,.9,1.5,2.1,1.6,3.4H152.6Zm19.2,-.5H152.1v6h25.2v-2.5c-.9,-2.1,-3,-3.5,-5.5,-3.5Z" class="gh_156"/>
<path d="M183.9,106.2h19.7v31.5H177.9V112.3c0,-3.4,2.7,-6.1,6,-6.1Z" class="g8_156"/>
<path d="M183.9,106.2v.5h19.2v30.5H178.4V112.3c0,-1.6,.6,-2.9,1.6,-3.9c1,-1,2.4,-1.7,3.9,-1.7v-1c-3.6,0,-6.6,2.9,-6.6,6.6v25.4c0,.1,.1,.3,.2,.4c.1,.1,.2,.1,.4,.1h25.7c.2,0,.3,0,.4,-.1c.1,-.1,.1,-.3,.1,-.4V106.2c0,-.1,0,-.2,-.1,-.3c-.1,-.1,-.2,-.2,-.4,-.2H183.9Z" class="ge_156"/>
<path d="M203.6,131.7v6H177.9c0,-3.3,2.7,-6,6,-6Z" class="g8_156"/>
<path d="M203.6,131.7h-.5v5.5H177.9v.5h.5c0,-1.5,.6,-2.9,1.6,-3.9c1,-1,2.4,-1.6,3.9,-1.6h19.7v-.5h-.5h.5v-.6H183.9c-3.6,0,-6.6,3,-6.6,6.6c0,.1,.1,.3,.2,.4c.1,.1,.2,.1,.4,.1h25.7c.2,0,.3,0,.4,-.1c.1,-.1,.1,-.3,.1,-.4v-6c0,-.2,0,-.3,-.1,-.4c-.1,-.1,-.2,-.2,-.4,-.2Z" class="ge_156"/>
<path d="M200.1,110.9H182.9m17.2,2.8H182.9m17.2,2.9H182.9m17.2,2.9H182.9m17.2,2.8H182.9m17.2,2.9H182.9m17.2,2.8H182.9" class="gf_156"/>
<path clip-path="url(#c3_156)" d="M178.4,137.2h24.7v-5H178.4v5Z" class="gg_156"/>
<path clip-path="url(#c4_156)" d="M178.4,137.2c.1,-1.3,.7,-2.5,1.6,-3.4c1,-1,2.4,-1.6,3.9,-1.6h19.2v5Zm25.2,-5.5H183.9c-3.3,0,-6,2.7,-6,6h25.7v-6h-.5h.5Z" class="gh_156"/>
<path d="M177.9,108.8v34.3" class="gf_156"/>
<path d="M195.5,145.5h3.3V134.7h-3.3v10.8Z" class="gi_156"/>
<path d="M32.1,45.1H9.2m958.3,0h22.9M32.1,1331.3H9.2m958.3,0h22.9M45.1,32.1V9.2m0,1335.1v22.9M954.5,32.1V9.2m0,1335.1v22.9" class="gj_156"/>
<path d="M32.1,45.1H9.2m958.3,0h22.9M32.1,1331.3H9.2m958.3,0h22.9M45.1,32.1V9.2m0,1335.1v22.9M954.5,32.1V9.2m0,1335.1v22.9" class="gk_156"/>
<path d="M27.5,32.1H0m972.1,0h27.5M27.5,1344.3H0m972.1,0h27.5M32.1,27.5V0m0,1348.9v27.5M967.5,27.5V0m0,1348.9v27.5" class="gj_156"/>
<path d="M27.5,32.1H0m972.1,0h27.5M27.5,1344.3H0m972.1,0h27.5M32.1,27.5V0m0,1348.9v27.5M967.5,27.5V0m0,1348.9v27.5" class="gk_156"/>
</svg>