<?xml version="1.0" encoding="UTF-8" standalone="no"?>
<!DOCTYPE svg PUBLIC "-//W3C//DTD SVG 1.1//EN"
"http://www.w3.org/Graphics/SVG/1.1/DTD/svg11.dtd">
<svg viewBox="0 0 999 1376" version="1.1" xmlns="http://www.w3.org/2000/svg" xmlns:xlink="http://www.w3.org/1999/xlink">
<defs>
<clipPath id="c0_264"><path d="M32.1,1344.3V32.1H967.5V1344.3Z"/></clipPath>
<clipPath id="c1_264"><path d="M648.8,464.6V365H818.4v99.6Z"/></clipPath>
<clipPath id="c2_264"><path d="M648.8,575.1V475.5H818.4v99.6Z"/></clipPath>
<clipPath id="c3_264"><path d="M648.8,684.8V597.9H764v86.9Z"/></clipPath>
<clipPath id="c4_264"><path d="M611.5,333.3c-21.6,0,-21.6,-21.7,-21.6,-21.7V263.1c0,-21.6,21.6,-21.6,21.6,-21.6H744.1c21.6,0,21.6,21.6,21.6,21.6v48.5c0,21.7,-21.6,21.7,-21.6,21.7Z"/></clipPath>
<style type="text/css"><![CDATA[
.g0_264{
fill: #FEFCF4;
}
.g1_264{
fill: #FFF;
}
.g2_264{
fill: none;
stroke: #6381B7;
stroke-width: 0.763;
}
.g3_264{
fill: #48484A;
}
.g4_264{
fill: #F0E8F3;
}
.g5_264{
fill: #766FA6;
}
.g6_264{
fill: none;
stroke: #231F20;
stroke-width: 0.458;
stroke-miterlimit: 10;
}
.g7_264{
fill: none;
stroke: #231F20;
stroke-width: 0.343;
stroke-miterlimit: 10;
}
.g8_264{
fill: #6381B7;
}
.g9_264{
fill: none;
stroke: #6381B7;
stroke-width: 0.381;
stroke-dasharray: 2,1;
}
.ga_264{
fill: none;
stroke: #6381B7;
stroke-width: 0.381;
}
.gb_264{
fill: none;
stroke: #FFF;
stroke-width: 1.909;
stroke-miterlimit: 10;
}
.gc_264{
fill: none;
stroke: #000;
stroke-width: 0.381;
stroke-miterlimit: 10;
}
]]></style>
</defs>
<path clip-path="url(#c0_264)" d="M954.5,1344.3H1877V32.1H954.5V1344.3Z" class="g0_264"/>
<path d="M144.8,153.7c0,0,-13,0,-13,13V831.2c0,0,0,13,13,13H833.1c0,0,13,0,13,-13V166.7c0,0,0,-13,-13,-13Z" class="g1_264"/>
<path d="M144.8,153.7c0,0,-13,0,-13,13V831.2c0,0,0,13,13,13H833.1c0,0,13,0,13,-13V166.7c0,0,0,-13,-13,-13H144.8Z" class="g2_264"/>
<path d="M175,241.4c0,0,-4.3,0,-4.3,4.3v14.4c0,0,0,4.3,4.1,5.7l52.4,18.3c0,0,4.1,1.4,4.1,-2.9V245.7c0,0,0,-4.3,-4.3,-4.3Z" class="g3_264"/>
<path d="M196.1,228.6c0,0,-12.9,0,-12.9,13v94.1c0,0,0,13,12.9,13H787.7c0,0,13,0,13,-13V241.6c0,0,0,-13,-13,-13Z" class="g4_264"/>
<path d="M175,239.2c0,0,-4.3,0,-4.3,4.4v16.9c0,0,0,4.3,4.3,4.3h37.3c0,0,4.3,0,4.3,-4.3V243.6c0,0,0,-4.4,-4.3,-4.4Z" class="g5_264"/>
<image clip-path="url(#c1_264)" preserveAspectRatio="none" x="647" y="363" width="173" height="103" xlink:href="img/1.png"/>
<path d="M250.8,367.1c0,0,-13,0,-13,13v69.3c0,0,0,13,13,13H614.6c0,0,13,0,13,-13V380.1c0,0,0,-13,-13,-13Z" class="g4_264"/>
<path d="M268.4,447.5H478.9" class="g6_264"/>
<image clip-path="url(#c2_264)" preserveAspectRatio="none" x="647" y="474" width="173" height="103" xlink:href="img/2.png"/>
<path d="M250.8,478.7c0,0,-13,0,-13,13V561c0,0,0,13,13,13H614.6c0,0,13,0,13,-13V491.7c0,0,0,-13,-13,-13Z" class="g4_264"/>
<path d="M268.4,559.8H478.9" class="g6_264"/>
<image clip-path="url(#c3_264)" preserveAspectRatio="none" x="647" y="596" width="119" height="91" xlink:href="img/3.png"/>
<path d="M250.8,596.8c0,0,-13,0,-13,13v64.9c0,0,0,13,13,13H614.6c0,0,13,0,13,-13V609.8c0,0,0,-13,-13,-13Z" class="g4_264"/>
<path d="M268.4,675.7H478.9" class="g6_264"/>
<path d="M190.2,215.5H720.7V199.4H190.2v16.1Z" class="g1_264"/>
<path d="M297,317.4H475.3" class="g7_264"/>
<image clip-path="url(#c4_264)" preserveAspectRatio="none" x="588" y="240" width="179" height="95" xlink:href="img/4.jpg"/>
<path d="M192.3,708.8c0,0,-13,0,-13,13v86.6c0,0,0,13,13,13H673c0,0,13,0,13,-13V721.8c0,0,0,-13,-13,-13Z" class="g4_264"/>
<path d="M440.4,873.4c0,0,-4.4,0,-4.4,4.3v10.9c0,0,0,4.3,4.4,4.3h30.3c0,0,4.3,0,4.3,-4.3V877.7c0,0,0,-4.3,-4.3,-4.3Z" class="g8_264"/>
<path d="M427.2,865.9v204.6m1.3,1H845.3m1,-1.4V865.5m-1.3,-.9H428.1" class="g9_264"/>
<path d="M427.2,1070.9v.6h.6m417.9,0h.6v-.6m0,-205.8v-.5h-.6m-417.9,0h-.6v.5" class="ga_264"/>
<path d="M32.1,45.1H9.2m958.3,0h22.9M32.1,1331.3H9.2m958.3,0h22.9M45.1,32.1V9.2m0,1335.1v22.9M954.5,32.1V9.2m0,1335.1v22.9" class="gb_264"/>
<path d="M32.1,45.1H9.2m958.3,0h22.9M32.1,1331.3H9.2m958.3,0h22.9M45.1,32.1V9.2m0,1335.1v22.9M954.5,32.1V9.2m0,1335.1v22.9" class="gc_264"/>
<path d="M27.5,32.1H0m972.1,0h27.5M27.5,1344.3H0m972.1,0h27.5M32.1,27.5V0m0,1348.9v27.5M967.5,27.5V0m0,1348.9v27.5" class="gb_264"/>
<path d="M27.5,32.1H0m972.1,0h27.5M27.5,1344.3H0m972.1,0h27.5M32.1,27.5V0m0,1348.9v27.5M967.5,27.5V0m0,1348.9v27.5" class="gc_264"/>
</svg>