<?xml version="1.0" encoding="UTF-8" standalone="no"?>
<!DOCTYPE svg PUBLIC "-//W3C//DTD SVG 1.1//EN"
"http://www.w3.org/Graphics/SVG/1.1/DTD/svg11.dtd">
<svg viewBox="0 0 999 1376" version="1.1" xmlns="http://www.w3.org/2000/svg" xmlns:xlink="http://www.w3.org/1999/xlink">
<defs>
<clipPath id="c0_252"><path d="M32.1,1344.3V32.1H967.5V1344.3Z"/></clipPath>
<clipPath id="c1_252"><path d="M186.2,704.7l-6.5,-2.1l-16.3,-14v-57h71.9v73.1Z"/></clipPath>
<clipPath id="c2_252"><path d="M213.1,991.3V896h70.2v95.3Z"/></clipPath>
<clipPath id="c3_252"><path d="M217.7,991.4V902h65.7v89.4Z"/></clipPath>
<clipPath id="c4_252"><path d="M204.4,872.7V788.3h89.3v84.4Z"/></clipPath>
<clipPath id="c5_252"><path d="M206.3,869.9V788.2h86.3v81.7Z"/></clipPath>
<clipPath id="c6_252"><path d="M178.4,137.2c.1,-1.3,.7,-2.5,1.6,-3.4c1,-1,2.4,-1.6,3.9,-1.6h19.2v5Z"/></clipPath>
<clipPath id="c7_252"><path d="M177.9,137.7v-6h25.7v6Z"/></clipPath>
<style type="text/css"><![CDATA[
.g0_252{
fill: #FEFCF4;
}
.g1_252{
fill: #FCE8B0;
}
.g2_252{
fill: #DCE9F3;
}
.g3_252{
fill: #9BD1EA;
}
.g4_252{
fill: #FFF;
}
.g5_252{
fill: none;
stroke: #58595B;
stroke-width: 0.381;
stroke-miterlimit: 10;
}
.g6_252{
fill: none;
stroke: #6381B7;
stroke-width: 0.763;
}
.g7_252{
fill: none;
stroke: #231F20;
stroke-width: 0.305;
stroke-miterlimit: 10;
}
.g8_252{
fill: #6381B7;
}
.g9_252{
fill: none;
stroke: #6381B7;
stroke-width: 0.381;
stroke-dasharray: 2,1;
}
.ga_252{
fill: none;
stroke: #6381B7;
stroke-width: 0.381;
}
.gb_252{
fill: #25408F;
}
.gc_252{
fill: none;
stroke: #231F20;
stroke-width: 1.527;
}
.gd_252{
fill: #39B4D1;
stroke: #2D2A4A;
stroke-width: 1.038;
stroke-linecap: round;
stroke-linejoin: round;
}
.ge_252{
fill: #2D2A4A;
}
.gf_252{
fill: none;
stroke: #2D2A4A;
stroke-width: 1.038;
stroke-linecap: round;
stroke-linejoin: round;
}
.gg_252{
fill: #DEDAD3;
}
.gh_252{
fill: #29263F;
}
.gi_252{
fill: #E15F46;
stroke: #2D2A4A;
stroke-width: 1.038;
stroke-linecap: round;
stroke-linejoin: round;
}
.gj_252{
fill: none;
stroke: #FFF;
stroke-width: 1.909;
stroke-miterlimit: 10;
}
.gk_252{
fill: none;
stroke: #000;
stroke-width: 0.381;
stroke-miterlimit: 10;
}
]]></style>
</defs>
<path clip-path="url(#c0_252)" d="M954.5,1344.3H1877V32.1H954.5V1344.3Z" class="g0_252"/>
<path d="M218.9,633.7c0,0,-13,0,-13,13v47.6c0,0,0,13,13,13H833.6c0,0,12.9,0,12.9,-13V646.7c0,0,0,-13,-12.9,-13Z" class="g1_252"/>
<image clip-path="url(#c1_252)" preserveAspectRatio="none" x="162" y="630" width="75" height="76" xlink:href="img/1.png"/>
<path d="M213.7,700c0,0,-26.9,11.3,-51.1,-12.8c0,0,15.1,25.3,49.3,24c0,0,24.7,.3,20.2,-10.1c0,0,1.2,-4.5,-18.4,-1.1Z" class="g1_252"/>
<path d="M149,166.3c0,0,-17.3,0,-17.3,17.4V554c0,0,0,17.3,17.3,17.3H828.9c0,0,17.4,0,17.4,-17.3V183.7c0,0,0,-17.4,-17.4,-17.4Z" class="g2_252"/>
<path d="M212.5,215.3h216v30.1h-216V215.3Zm216,0H765.4v30.1H428.5V215.3Z" class="g3_252"/>
<path d="M212.5,245.4h216v53.5h-216V245.4Zm216,0H765.4v53.5H428.5V245.4Z" class="g4_252"/>
<path d="M212.5,215.3h216m0,0H765.4M428.5,245.2V215.5m-216,29.9h216m0,0H765.4M428.5,298.7V245.6m-216,53.3h216m0,0H765.4" class="g5_252"/>
<path d="M145.1,725.4c0,0,-13,0,-13,13v277.5c0,0,0,12.9,13,12.9H832.9c0,0,13,0,13,-12.9V738.4c0,0,0,-13,-13,-13Z" class="g4_252"/>
<path d="M145.1,725.4c0,0,-13,0,-13,13v277.5c0,0,0,12.9,13,12.9H832.9c0,0,13,0,13,-12.9V738.4c0,0,0,-13,-13,-13H145.1Z" class="g6_252"/>
<path clip-path="url(#c2_252)" d="M217.8,991.9h70.9V901.8H217.8v90.1Z" class="g4_252"/>
<image clip-path="url(#c3_252)" preserveAspectRatio="none" x="217" y="902" width="73" height="91" xlink:href="img/2.jpg"/>
<path clip-path="url(#c4_252)" d="M206.5,869.6h85.7V787H206.5v82.6Z" class="g4_252"/>
<image clip-path="url(#c5_252)" preserveAspectRatio="none" x="205" y="786" width="88" height="85" xlink:href="img/3.jpg"/>
<path d="M183.6,781.3H840.4V765.1H183.6v16.2Z" class="g4_252"/>
<path d="M443.3,875.1H568M396,976.4H520.6" class="g7_252"/>
<path d="M537.8,1044c0,0,-4.3,0,-4.3,4.3v10.9c0,0,0,4.3,4.3,4.3h30.4c0,0,4.3,0,4.3,-4.3v-10.9c0,0,0,-4.3,-4.3,-4.3Z" class="g8_252"/>
<path d="M524.7,1036.5v34.9m1.3,.9H845.1m1,-1.3v-34.9m-1.4,-.9H525.6" class="g9_252"/>
<path d="M524.7,1071.8v.5h.5m320.3,0h.6v-.5m0,-36.1v-.5h-.6m-320.3,0h-.5v.5" class="ga_252"/>
<path d="M131.7,109.5v39l11.7,10.2V136.5Z" class="gb_252"/>
<path d="M131.7,109.5v39H829.5c0,0,16.8,0,16.8,-16.8v-5.4c0,0,0,-16.8,-16.8,-16.8Z" class="g8_252"/>
<path d="M768.8,131c0,0,-.5,-10,8.6,-9.4c0,0,6.7,-.3,6.6,9.5m-15.3,-1.5v6.5c0,0,-3.3,.3,-3.9,-3c0,0,-.1,-3.8,3.9,-3.5Zm15.4,0v6.5c0,0,3.3,.3,3.9,-3c0,0,.1,-3.8,-3.9,-3.5Z" class="gc_252"/>
<path d="M147.4,140.8h61v-32h-61v32Z" class="gd_252"/>
<path d="M147.4,143.1h61v-2.3h-61v2.3Z" class="gd_252"/>
<path d="M171.8,106.2H152.1v31.5h25.8V112.3c0,-3.4,-2.7,-6.1,-6.1,-6.1Z" class="g4_252"/>
<path d="M171.8,106.2v-.5H152.1c-.1,0,-.3,.1,-.4,.2c-.1,.1,-.1,.2,-.1,.3v31.5c0,.1,0,.3,.1,.4c.1,.1,.3,.1,.4,.1h25.8c.1,0,.2,0,.3,-.1c.1,-.1,.2,-.3,.2,-.4V112.3c0,-3.7,-2.9,-6.6,-6.6,-6.6v1c1.6,0,2.9,.7,3.9,1.7c1,1,1.6,2.3,1.6,3.9v24.9H152.6V106.7h19.2Z" class="ge_252"/>
<path d="M152.1,131.7v6h25.8c0,-3.3,-2.7,-6,-6.1,-6Z" class="g4_252"/>
<path d="M152.1,131.7h-.5v6c0,.1,0,.3,.1,.4c.1,.1,.3,.1,.4,.1h25.8c.1,0,.2,0,.3,-.1c.1,-.1,.2,-.3,.2,-.4c0,-3.6,-3,-6.6,-6.6,-6.6H152.1c-.1,0,-.3,.1,-.4,.2c-.1,.1,-.1,.2,-.1,.4h.5v.5h19.7c1.6,0,2.9,.6,3.9,1.6c1,1,1.6,2.4,1.6,3.9h.6v-.5H152.6v-5.5h-.5v.5Z" class="ge_252"/>
<path d="M155.6,110.9h17.2m-17.2,2.8h17.2m-17.2,2.9h17.2m-17.2,2.9h17.2m-17.2,2.8h17.2m-17.2,2.9h17.2M155.6,128h17.2" class="gf_252"/>
<path d="M171.8,132.2H152.6v5h24.7c-.1,-1.3,-.7,-2.5,-1.6,-3.4c-1,-1,-2.3,-1.6,-3.9,-1.6Z" class="gg_252"/>
<path d="M152.6,132.2h19.2c1.6,0,2.9,.6,3.9,1.6c.9,.9,1.5,2.1,1.6,3.4H152.6Zm19.2,-.5H152.1v6h25.2v-2.5c-.9,-2.1,-3,-3.5,-5.5,-3.5Z" class="gh_252"/>
<path d="M183.9,106.2h19.7v31.5H177.9V112.3c0,-3.4,2.7,-6.1,6,-6.1Z" class="g4_252"/>
<path d="M183.9,106.2v.5h19.2v30.5H178.4V112.3c0,-1.6,.6,-2.9,1.6,-3.9c1,-1,2.4,-1.7,3.9,-1.7v-1c-3.6,0,-6.6,2.9,-6.6,6.6v25.4c0,.1,.1,.3,.2,.4c.1,.1,.2,.1,.4,.1h25.7c.2,0,.3,0,.4,-.1c.1,-.1,.1,-.3,.1,-.4V106.2c0,-.1,0,-.2,-.1,-.3c-.1,-.1,-.2,-.2,-.4,-.2H183.9Z" class="ge_252"/>
<path d="M203.6,131.7v6H177.9c0,-3.3,2.7,-6,6,-6Z" class="g4_252"/>
<path d="M203.6,131.7h-.5v5.5H177.9v.5h.5c0,-1.5,.6,-2.9,1.6,-3.9c1,-1,2.4,-1.6,3.9,-1.6h19.7v-.5h-.5h.5v-.6H183.9c-3.6,0,-6.6,3,-6.6,6.6c0,.1,.1,.3,.2,.4c.1,.1,.2,.1,.4,.1h25.7c.2,0,.3,0,.4,-.1c.1,-.1,.1,-.3,.1,-.4v-6c0,-.2,0,-.3,-.1,-.4c-.1,-.1,-.2,-.2,-.4,-.2Z" class="ge_252"/>
<path d="M200.1,110.9H182.9m17.2,2.8H182.9m17.2,2.9H182.9m17.2,2.9H182.9m17.2,2.8H182.9m17.2,2.9H182.9m17.2,2.8H182.9" class="gf_252"/>
<path clip-path="url(#c6_252)" d="M178.4,137.2h24.7v-5H178.4v5Z" class="gg_252"/>
<path clip-path="url(#c7_252)" d="M178.4,137.2c.1,-1.3,.7,-2.5,1.6,-3.4c1,-1,2.4,-1.6,3.9,-1.6h19.2v5Zm25.2,-5.5H183.9c-3.3,0,-6,2.7,-6,6h25.7v-6h-.5h.5Z" class="gh_252"/>
<path d="M177.9,108.8v34.3" class="gf_252"/>
<path d="M195.5,145.5h3.3V134.7h-3.3v10.8Z" class="gi_252"/>
<path d="M32.1,45.1H9.2m958.3,0h22.9M32.1,1331.3H9.2m958.3,0h22.9M45.1,32.1V9.2m0,1335.1v22.9M954.5,32.1V9.2m0,1335.1v22.9" class="gj_252"/>
<path d="M32.1,45.1H9.2m958.3,0h22.9M32.1,1331.3H9.2m958.3,0h22.9M45.1,32.1V9.2m0,1335.1v22.9M954.5,32.1V9.2m0,1335.1v22.9" class="gk_252"/>
<path d="M27.5,32.1H0m972.1,0h27.5M27.5,1344.3H0m972.1,0h27.5M32.1,27.5V0m0,1348.9v27.5M967.5,27.5V0m0,1348.9v27.5" class="gj_252"/>
<path d="M27.5,32.1H0m972.1,0h27.5M27.5,1344.3H0m972.1,0h27.5M32.1,27.5V0m0,1348.9v27.5M967.5,27.5V0m0,1348.9v27.5" class="gk_252"/>
</svg>