<?xml version="1.0" encoding="UTF-8" standalone="no"?>
<!DOCTYPE svg PUBLIC "-//W3C//DTD SVG 1.1//EN"
"http://www.w3.org/Graphics/SVG/1.1/DTD/svg11.dtd">
<svg viewBox="0 0 999 1376" version="1.1" xmlns="http://www.w3.org/2000/svg" xmlns:xlink="http://www.w3.org/1999/xlink">
<defs>
<clipPath id="c0_39"><path d="M32.1,1344.3V32.1H967.5V1344.3Z"/></clipPath>
<clipPath id="c1_39"><path d="M207.6,948.9V936.8h77.9v12.1Zm0,-22.2V914.8h77.9v11.9Zm0,-22.7V882.3h77.9V904Z"/></clipPath>
<clipPath id="c2_39"><path d="M207.6,914.8V904h77.9v10.8Z"/></clipPath>
<clipPath id="c3_39"><path d="M207.6,936.8V926.7h77.9v10.1Z"/></clipPath>
<clipPath id="c4_39"><path d="M210.6,1027.7v-14H286v14Zm0,-24v-12H286v12Zm0,-22.8V958.4H286v22.5Z"/></clipPath>
<clipPath id="c5_39"><path d="M210.6,991.7V980.9H286v10.8Z"/></clipPath>
<clipPath id="c6_39"><path d="M210.6,1013.7v-10H286v10Z"/></clipPath>
<clipPath id="c7_39"><path d="M198.2,810.3l-6.5,-2.1L175.4,794.3V737.2h71.9v73.1Z"/></clipPath>
<clipPath id="c8_39"><path d="M200.1,137.2c.1,-1.3,.7,-2.5,1.6,-3.4c1,-1,2.3,-1.6,3.9,-1.6h19.2v5Z"/></clipPath>
<clipPath id="c9_39"><path d="M199.5,137.7v-6h25.8v6Z"/></clipPath>
<style type="text/css"><![CDATA[
.g0_39{
fill: #FEFCF4;
}
.g1_39{
fill: #D8F1FB;
}
.g2_39{
fill: #8FD5E3;
}
.g3_39{
fill: #FFF;
}
.g4_39{
fill: none;
stroke: #231F20;
stroke-width: 0.381;
stroke-miterlimit: 10;
}
.g5_39{
fill: none;
stroke: #6381B7;
stroke-width: 0.763;
}
.g6_39{
fill: none;
stroke: #231F20;
stroke-width: 0.305;
stroke-miterlimit: 10;
}
.g7_39{
fill: #6381B7;
}
.g8_39{
fill: none;
stroke: #6381B7;
stroke-width: 0.381;
stroke-dasharray: 2,1;
}
.g9_39{
fill: none;
stroke: #6381B7;
stroke-width: 0.381;
}
.ga_39{
fill: #FCE8B0;
}
.gb_39{
fill: #25408F;
}
.gc_39{
fill: none;
stroke: #231F20;
stroke-width: 1.527;
}
.gd_39{
fill: #39B4D1;
stroke: #2D2A4A;
stroke-width: 1.038;
stroke-linecap: round;
stroke-linejoin: round;
}
.ge_39{
fill: #2D2A4A;
}
.gf_39{
fill: none;
stroke: #2D2A4A;
stroke-width: 1.038;
stroke-linecap: round;
stroke-linejoin: round;
}
.gg_39{
fill: #DEDAD3;
}
.gh_39{
fill: #29263F;
}
.gi_39{
fill: #E15F46;
stroke: #2D2A4A;
stroke-width: 1.038;
stroke-linecap: round;
stroke-linejoin: round;
}
.gj_39{
fill: #F7F8E9;
}
.gk_39{
fill: none;
stroke: #BFD62F;
stroke-width: 1.527;
stroke-linecap: round;
stroke-linejoin: round;
stroke-dasharray: 0,5;
}
.gl_39{
fill: none;
stroke: #BFD62F;
stroke-width: 1.527;
stroke-linecap: round;
stroke-linejoin: round;
}
.gm_39{
fill: #BFD62F;
}
.gn_39{
fill: #D1232A;
}
.go_39{
fill: #233D4A;
}
.gp_39{
fill: #FFE293;
}
.gq_39{
fill: #F89C47;
}
.gr_39{
fill: #F0F5FA;
}
.gs_39{
fill: none;
stroke: #7CA7D8;
stroke-width: 1.527;
stroke-linecap: round;
stroke-linejoin: round;
stroke-dasharray: 0,5;
}
.gt_39{
fill: none;
stroke: #7CA7D8;
stroke-width: 1.527;
stroke-linecap: round;
stroke-linejoin: round;
}
.gu_39{
fill: #7CA7D8;
}
.gv_39{
fill: #3D3B39;
}
.gw_39{
fill: #F5CA58;
}
.gx_39{
fill: none;
stroke: #FFF;
stroke-width: 1.909;
stroke-miterlimit: 10;
}
.gy_39{
fill: none;
stroke: #000;
stroke-width: 0.381;
stroke-miterlimit: 10;
}
]]></style>
</defs>
<path clip-path="url(#c0_39)" d="M-877.3,1344.3H45.1V32.1H-877.3V1344.3Z" class="g0_39"/>
<path d="M170.7,168.5c0,0,-17.4,0,-17.4,17.3V420.4c0,0,0,17.3,17.4,17.3H850.2c0,0,17.3,0,17.3,-17.3V185.8c0,0,0,-17.3,-17.3,-17.3Z" class="g1_39"/>
<path d="M228.5,239.7H384.4v26H228.5v-26Zm155.9,0H618.2v26H384.4v-26Zm233.8,0H791.5v26H618.2v-26Z" class="g2_39"/>
<path d="M228.5,265.7H384.4v52H228.5v-52Zm155.9,0H618.2v52H384.4v-52Zm233.8,0H791.5v52H618.2v-52Z" class="g3_39"/>
<path d="M228.3,239.7H384.4M228.5,265.5V239.9m155.9,-.2H618.2M384.4,265.5V239.9m233.8,-.2H791.6M618.2,265.5V239.9m173.3,25.6V239.9M228.3,265.7H384.4M228.5,317.5V265.9m-.2,51.8H384.4m0,-52H618.2M384.4,317.5V265.9m0,51.8H618.2m0,-52H791.6M618.2,317.5V265.9m173.3,51.6V265.9M618.2,317.7H791.6" class="g4_39"/>
<path d="M166.3,825.2c0,0,-13,0,-13,13v185.4c0,0,0,13,13,13H854.1c0,0,13,0,13,-13V838.2c0,0,0,-13,-13,-13Z" class="g3_39"/>
<path d="M166.3,825.2c0,0,-13,0,-13,13v185.4c0,0,0,13,13,13H854.1c0,0,13,0,13,-13V838.2c0,0,0,-13,-13,-13H166.3Z" class="g5_39"/>
<image clip-path="url(#c1_39)" preserveAspectRatio="none" x="206" y="882" width="80" height="75" xlink:href="img/1.jpg"/>
<image clip-path="url(#c2_39)" preserveAspectRatio="none" x="206" y="904" width="80" height="11" xlink:href="img/2.jpg"/>
<image clip-path="url(#c3_39)" preserveAspectRatio="none" x="206" y="927" width="80" height="10" xlink:href="img/3.jpg"/>
<path d="M316.1,939.7H436.4" class="g6_39"/>
<image clip-path="url(#c4_39)" preserveAspectRatio="none" x="209" y="958" width="79" height="75" xlink:href="img/4.jpg"/>
<image clip-path="url(#c5_39)" preserveAspectRatio="none" x="209" y="980" width="79" height="12" xlink:href="img/5.jpg"/>
<image clip-path="url(#c6_39)" preserveAspectRatio="none" x="209" y="1003" width="79" height="11" xlink:href="img/6.jpg"/>
<path d="M311.3,1013.3H431.7" class="g6_39"/>
<path d="M707.1,1050.6c0,0,-4.3,0,-4.3,4.3v10.8c0,0,0,4.4,4.3,4.4h30.3c0,0,4.4,0,4.4,-4.4v-10.8c0,0,0,-4.3,-4.4,-4.3Z" class="g7_39"/>
<path d="M693.9,1043.1v34.8m1.4,1h171m1,-1.4v-34.8m-1.3,-1H694.9" class="g8_39"/>
<path d="M693.9,1078.3v.6h.6m172.2,0h.6v-.6m0,-36v-.6h-.6m-172.2,0h-.6v.6" class="g9_39"/>
<path d="M230.9,739.3c0,0,-13,0,-13,13V800c0,0,0,13,13,13H854.2c0,0,13,0,13,-13V752.3c0,0,0,-13,-13,-13Z" class="ga_39"/>
<image clip-path="url(#c7_39)" preserveAspectRatio="none" x="174" y="736" width="75" height="76" xlink:href="img/7.png"/>
<path d="M225.7,805.6c0,0,-26.9,11.3,-51.1,-12.8c0,0,15.1,25.3,49.3,24c0,0,24.7,.3,20.2,-10.1c0,0,1.2,-4.5,-18.4,-1.1Z" class="ga_39"/>
<path d="M153.3,109.5v39L165,158.7V136.5Z" class="gb_39"/>
<path d="M153.3,109.5v39H851.1c0,0,16.8,0,16.8,-16.8v-5.4c0,0,0,-16.8,-16.8,-16.8Z" class="g7_39"/>
<path d="M790.4,131c0,0,-.5,-10,8.6,-9.4c0,0,6.8,-.3,6.7,9.5m-15.3,-1.5v6.5c0,0,-3.4,.3,-3.9,-3c0,0,-.1,-3.8,3.9,-3.5Zm15.3,0v6.5c0,0,3.4,.3,4,-3c0,0,0,-3.8,-4,-3.5Z" class="gc_39"/>
<path d="M169,140.8h61v-32H169v32Z" class="gd_39"/>
<path d="M169,143.1h61v-2.3H169v2.3Z" class="gd_39"/>
<path d="M193.5,106.2H173.8v31.5h25.7V112.3c0,-3.4,-2.7,-6.1,-6,-6.1Z" class="g3_39"/>
<path d="M193.5,106.2v-.5H173.8c-.2,0,-.3,.1,-.4,.2c-.1,.1,-.2,.2,-.2,.3v31.5c0,.1,.1,.3,.2,.4c.1,.1,.2,.1,.4,.1h25.7c.2,0,.3,0,.4,-.1c.1,-.1,.1,-.3,.1,-.4V112.3c0,-3.7,-2.9,-6.6,-6.5,-6.6v1c1.5,0,2.9,.7,3.9,1.7c1,1,1.6,2.3,1.6,3.9v24.9H174.3V106.7h19.2Z" class="ge_39"/>
<path d="M173.8,131.7v6h25.7c0,-3.3,-2.7,-6,-6,-6Z" class="g3_39"/>
<path d="M173.8,131.7h-.6v6c0,.1,.1,.3,.2,.4c.1,.1,.2,.1,.4,.1h25.7c.2,0,.3,0,.4,-.1c.1,-.1,.1,-.3,.1,-.4c0,-3.6,-2.9,-6.6,-6.5,-6.6H173.8c-.2,0,-.3,.1,-.4,.2c-.1,.1,-.2,.2,-.2,.4h.6v.5h19.7c1.5,0,2.9,.6,3.9,1.6c1,1,1.6,2.4,1.6,3.9h.5v-.5H174.3v-5.5h-.5v.5Z" class="ge_39"/>
<path d="M177.3,110.9h17.2m-17.2,2.8h17.2m-17.2,2.9h17.2m-17.2,2.9h17.2m-17.2,2.8h17.2m-17.2,2.9h17.2M177.3,128h17.2" class="gf_39"/>
<path d="M193.5,132.2H174.3v5H199c-.1,-1.3,-.7,-2.5,-1.6,-3.4c-1,-1,-2.4,-1.6,-3.9,-1.6Z" class="gg_39"/>
<path d="M174.3,132.2h19.2c1.5,0,2.9,.6,3.9,1.6c.9,.9,1.5,2.1,1.6,3.4H174.3Zm19.2,-.5H173.8v6H199v-2.5c-.9,-2.1,-3.1,-3.5,-5.5,-3.5Z" class="gh_39"/>
<path d="M205.6,106.2h19.7v31.5H199.5V112.3c0,-3.4,2.7,-6.1,6.1,-6.1Z" class="g3_39"/>
<path d="M205.6,106.2v.5h19.2v30.5H200V112.3c0,-1.6,.7,-2.9,1.7,-3.9c1,-1,2.3,-1.7,3.9,-1.7v-1c-3.7,0,-6.6,2.9,-6.6,6.6v25.4c0,.1,.1,.3,.2,.4c0,.1,.2,.1,.3,.1h25.8c.1,0,.2,0,.3,-.1c.1,-.1,.2,-.3,.2,-.4V106.2c0,-.1,-.1,-.2,-.2,-.3c-.1,-.1,-.2,-.2,-.3,-.2H205.6Z" class="ge_39"/>
<path d="M225.3,131.7v6H199.5c0,-3.3,2.7,-6,6.1,-6Z" class="g3_39"/>
<path d="M225.3,131.7h-.5v5.5H199.5v.5h.5c0,-1.5,.7,-2.9,1.7,-3.9c1,-1,2.3,-1.6,3.9,-1.6h19.7v-.5h-.5h.5v-.6H205.6c-3.7,0,-6.6,3,-6.6,6.6c0,.1,.1,.3,.2,.4c0,.1,.2,.1,.3,.1h25.8c.1,0,.2,0,.3,-.1c.1,-.1,.2,-.3,.2,-.4v-6c0,-.2,-.1,-.3,-.2,-.4c-.1,-.1,-.2,-.2,-.3,-.2Z" class="ge_39"/>
<path d="M221.8,110.9H204.6m17.2,2.8H204.6m17.2,2.9H204.6m17.2,2.9H204.6m17.2,2.8H204.6m17.2,2.9H204.6m17.2,2.8H204.6" class="gf_39"/>
<path clip-path="url(#c8_39)" d="M200.1,137.2h24.7v-5H200.1v5Z" class="gg_39"/>
<path clip-path="url(#c9_39)" d="M200.1,137.2c.1,-1.3,.7,-2.5,1.6,-3.4c1,-1,2.3,-1.6,3.9,-1.6h19.2v5Zm25.2,-5.5H205.6c-3.4,0,-6.1,2.7,-6.1,6h25.8v-6h-.5h.5Z" class="gh_39"/>
<path d="M199.5,108.8v34.3" class="gf_39"/>
<path d="M217.2,145.5h3.3V134.7h-3.3v10.8Z" class="gi_39"/>
<path d="M154.1,725.5h713v-241h-713v241Z" class="gj_39"/>
<path d="M154.1,489.1V723.3m4.6,2.2H864.9m2.2,-4.5V486.8m-4.5,-2.3H156.4" class="gk_39"/>
<path d="M154.1,725.5v0m713.1,0v0m0,-241v0m-713.1,0v0" class="gl_39"/>
<path d="M153.3,487.8V459.2c0,0,0,-8.7,8.7,-8.7H859.3c0,0,8.6,0,8.6,8.7v29.1Z" class="gm_39"/>
<path d="M175,511.2c0,0,4.8,5.6,6.1,12.4c0,0,6.6,-11.4,11.7,-14c0,0,-9.3,5,-11.2,8.2c0,0,-1.8,-4.3,-6.6,-6.6Z" class="gn_39"/>
<path d="M183.4,479.4l3,3l8.1,-8.2l-2.9,-2.9Z" class="g3_39"/>
<path d="M186.4,483.3v0c.3,0,.5,-.1,.7,-.2l8.1,-8.2c.2,-.2,.3,-.4,.3,-.7c0,-.2,-.1,-.5,-.3,-.7l-2.9,-2.9c-.4,-.4,-1,-.4,-1.4,0l-8.2,8.1c-.4,.4,-.4,1,0,1.4l3,3c.2,.1,.4,.2,.7,.2m6.7,-9.1l-6.7,6.8l-1.6,-1.6l6.8,-6.7Z" class="go_39"/>
<path d="M190,452.4c-6.5,6.6,-6.5,17.2,0,23.7c6.5,6.5,17.1,6.5,23.7,0c6.5,-6.5,6.5,-17.1,0,-23.7c-6.6,-6.5,-17.2,-6.5,-23.7,0Z" class="gp_39"/>
<path d="M201.8,482c4.8,0,9.2,-1.9,12.6,-5.2c6.9,-6.9,6.9,-18.2,0,-25.1c-3.4,-3.3,-7.8,-5.2,-12.6,-5.2c-4.7,0,-9.2,1.9,-12.5,5.2c-6.9,6.9,-6.9,18.2,0,25.1c3.3,3.3,7.8,5.2,12.5,5.2m0,-33.5c4.2,0,8.2,1.6,11.2,4.6c6.1,6.2,6.1,16.2,0,22.3c-3,3,-7,4.6,-11.2,4.6c-4.2,0,-8.1,-1.6,-11.1,-4.6c-6.2,-6.1,-6.2,-16.1,0,-22.3c3,-3,6.9,-4.6,11.1,-4.6Z" class="go_39"/>
<path d="M176,484.6l5.2,5.2l8.2,-8.2l-5.2,-5.2Z" class="gq_39"/>
<path d="M181.2,490.8c.3,0,.5,-.1,.7,-.3l8.2,-8.2c.2,-.2,.3,-.4,.3,-.7c0,-.2,-.1,-.5,-.3,-.7l-5.2,-5.2c-.4,-.4,-1,-.4,-1.4,0l-8.2,8.2c-.4,.4,-.4,1,0,1.4l5.2,5.2c.2,.2,.5,.3,.7,.3m6.8,-9.2l-6.8,6.8l-3.8,-3.8l6.8,-6.8Z" class="go_39"/>
<path d="M189.8,464.4c0,6.6,5.3,11.9,11.9,11.9c6.6,0,12,-5.3,12,-11.9c0,-6.6,-5.4,-12,-12,-12c-6.6,0,-11.9,5.4,-11.9,12Z" class="g3_39"/>
<path d="M201.7,477.1c7,0,12.8,-5.7,12.8,-12.7c0,-7.1,-5.8,-12.8,-12.8,-12.8c-7,0,-12.7,5.7,-12.7,12.8c0,7,5.7,12.7,12.7,12.7m0,-23.9c6.2,0,11.2,5,11.2,11.2c0,6.1,-5,11.1,-11.2,11.1c-6.1,0,-11.1,-5,-11.1,-11.1c0,-6.2,5,-11.2,11.1,-11.2Z" class="go_39"/>
<path d="M154.1,1243.8h713V1120.9h-713v122.9Z" class="gr_39"/>
<path d="M154.1,1125.4v116.1m4.6,2.3H864.9m2.2,-4.6V1123.1m-4.5,-2.2H156.4" class="gs_39"/>
<path d="M154.1,1243.8v0m713.1,0v0m0,-122.9v0m-713.1,0v0" class="gt_39"/>
<path d="M153.3,1124.1v-28.6c0,0,0,-8.7,8.7,-8.7H859.3c0,0,8.6,0,8.6,8.7v29.1Z" class="gu_39"/>
<path d="M195.5,1090.9c3.4,0,6.1,-2.7,6.1,-6.1c0,-3.4,-2.7,-6.1,-6.1,-6.1c-3.4,0,-6.1,2.7,-6.1,6.1c0,3.4,2.7,6.1,6.1,6.1Z" class="gm_39"/>
<path d="M195.5,1092.8c4.4,0,8,-3.6,8,-8c0,-4.4,-3.6,-8,-8,-8c-4.4,0,-8,3.6,-8,8c0,4.4,3.6,8,8,8m0,-14.1c3.4,0,6.1,2.7,6.1,6.1c0,3.4,-2.7,6.1,-6.1,6.1c-3.4,0,-6.1,-2.7,-6.1,-6.1c0,-3.4,2.7,-6.1,6.1,-6.1Z" class="gv_39"/>
<path d="M180.9,1106.9h29.2v-3.8c0,-4.4,-3.5,-7.9,-7.9,-7.9H188.8c-4.3,0,-7.9,3.5,-7.9,7.9Z" class="gm_39"/>
<path d="M172.6,1112.2h45.8v-3.4H172.6v3.4Z" class="g3_39"/>
<path d="M219.4,1106.9h-2.7v-11.5c0,-.3,-.1,-.5,-.3,-.7l-2.6,-2.6c.3,-.5,.5,-1.1,.5,-1.8c0,-2,-1.6,-3.6,-3.6,-3.6c-2,0,-3.6,1.6,-3.6,3.6c0,2,1.6,3.6,3.6,3.6c.7,0,1.3,-.1,1.8,-.4l2.3,2.3v11.1H212v-3.8c0,-5.4,-4.4,-9.9,-9.8,-9.9H188.8c-5.4,0,-9.8,4.5,-9.8,9.9v3.8h-7.4c-.5,0,-.9,.4,-.9,1v5.3c0,.5,.4,1,.9,1h2.7v11.3c0,.5,.4,.9,.9,.9h40.6c.5,0,.9,-.4,.9,-.9v-11.3h2.7c.5,0,.9,-.5,.9,-1v-5.3c0,-.6,-.4,-1,-.9,-1M210.7,1092c-.9,0,-1.7,-.7,-1.7,-1.7c0,-.9,.8,-1.7,1.7,-1.7c.9,0,1.7,.8,1.7,1.7c0,1,-.8,1.7,-1.7,1.7m7.7,20.2H172.6v-3.4h45.8Zm-3.6,12.3H176.2v-10.3h38.6v10.3Zm-26,-29.3h13.4c4.4,0,7.9,3.5,7.9,7.9v3.8H180.9v-3.8c0,-4.4,3.6,-7.9,7.9,-7.9Z" class="gv_39"/>
<path d="M176.2,1124.5h38.6v-10.3H176.2v10.3ZM179,1117c0,-.3,.2,-.5,.5,-.5h32c.3,0,.5,.2,.5,.5v4.7c0,.3,-.2,.5,-.5,.5h-32c-.3,0,-.5,-.2,-.5,-.5Z" class="g3_39"/>
<path d="M180,1121.2h31v-3.7H180v3.7Z" class="gw_39"/>
<path d="M179.5,1122.2h32c.3,0,.5,-.2,.5,-.5V1117c0,-.3,-.2,-.5,-.5,-.5h-32c-.3,0,-.5,.2,-.5,.5v4.7c0,.3,.2,.5,.5,.5m.5,-4.7h31v3.7H180Z" class="gv_39"/>
<path d="M212.4,1090.3c0,-.9,-.8,-1.7,-1.7,-1.7c-.9,0,-1.7,.8,-1.7,1.7c0,1,.8,1.7,1.7,1.7c.9,0,1.7,-.7,1.7,-1.7Z" class="g3_39"/>
<path d="M32.1,45.1H9.2m958.3,0h22.9M32.1,1331.3H9.2m958.3,0h22.9M45.1,32.1V9.2m0,1335.1v22.9M954.5,32.1V9.2m0,1335.1v22.9" class="gx_39"/>
<path d="M32.1,45.1H9.2m958.3,0h22.9M32.1,1331.3H9.2m958.3,0h22.9M45.1,32.1V9.2m0,1335.1v22.9M954.5,32.1V9.2m0,1335.1v22.9" class="gy_39"/>
<path d="M27.5,32.1H0m972.1,0h27.5M27.5,1344.3H0m972.1,0h27.5M32.1,27.5V0m0,1348.9v27.5M967.5,27.5V0m0,1348.9v27.5" class="gx_39"/>
<path d="M27.5,32.1H0m972.1,0h27.5M27.5,1344.3H0m972.1,0h27.5M32.1,27.5V0m0,1348.9v27.5M967.5,27.5V0m0,1348.9v27.5" class="gy_39"/>
</svg>