<?xml version="1.0" encoding="UTF-8" standalone="no"?>
<!DOCTYPE svg PUBLIC "-//W3C//DTD SVG 1.1//EN"
"http://www.w3.org/Graphics/SVG/1.1/DTD/svg11.dtd">
<svg viewBox="0 0 999 1376" version="1.1" xmlns="http://www.w3.org/2000/svg" xmlns:xlink="http://www.w3.org/1999/xlink">
<defs>
<clipPath id="c0_214"><path d="M32.1,1344.3V32.1H967.5V1344.3Z"/></clipPath>
<clipPath id="c1_214"><path d="M52.8,953V571.9H278.3V953Z"/></clipPath>
<clipPath id="c2_214"><path d="M57,948.1V576.3H272.6V948.1Z"/></clipPath>
<clipPath id="c3_214"><path d="M56.7,947.8V576H272.3V947.8Z"/></clipPath>
<clipPath id="c4_214"><path d="M729.7,1002.5V720.9H934.3v281.6Z"/></clipPath>
<clipPath id="c5_214"><path d="M736.4,996.9V724.7h192V996.9Z"/></clipPath>
<clipPath id="c6_214"><path d="M736.1,996.6V724.4h192V996.6Z"/></clipPath>
<clipPath id="c7_214"><path d="M177,518.2l-6.5,-2.1L154.1,502.2V445.1h72v73.1Z"/></clipPath>
<clipPath id="c8_214"><path d="M175.2,1123.7l-6.5,-2.2l-16.4,-13.9v-57.1h72v73.2Z"/></clipPath>
<clipPath id="c9_214"><path d="M764.8,413.7V401.2h14.5v12.5Z"/></clipPath>
<clipPath id="ca_214"><path d="M148,593c-.2,-.1,3.6,-8.2,3.6,-8.2l.8,.5c0,0,-4.1,7.7,-4.4,7.7Z"/></clipPath>
<clipPath id="cb_214"><path d="M155.5,585.3c0,0,-6.8,-1.1,-7.5,-5.2c-.7,-3.6,1.5,-3.9,2,-3.9c.1,0,.2,0,.2,0l8.3,-12.7L157,560.4c0,0,-.6,-1.1,.2,-2.1c0,0,.1,-.1,.3,-.1c2.1,0,12.9,5.6,12.9,5.6l.1,.1c-.4,.6,-.7,1.2,-1.4,1.7c-.7,.5,-5.1,1.1,-5.1,1.1l-8.5,18.6Z"/></clipPath>
<clipPath id="cc_214"><path d="M155.1,584.9c.3,-.4,.3,-1.8,0,-2.2v-1.4c-1.5,-.5,-2.8,-1.2,-3.6,-2.5c-1.1,.6,-2.1,1.2,-3.1,1.9c1.5,2.1,3.8,3.5,6.7,4.2Zm0,-3.9c2.2,-4.5,4,-9.5,6.2,-14c-.9,-.4,-1.8,-1.4,-2.6,-1.4c-2.3,4.3,-4.6,8.6,-7.1,12.8c.8,1.3,2.1,2,3.5,2.6Zm-7.2,12.1c1,-2.9,2.4,-5.5,3.5,-8.3c-2,-1.5,-3.9,-3.1,-4.4,-6.1v-1.6c-.1,-2.7,1.9,-3.4,4.6,-3.4c0,0,.1,0,.2,0c1.9,-3.3,4.2,-6.3,6.1,-9.6c-.6,-.9,-1.2,-2.4,-.9,-3.7c.5,1.3,1.7,1.9,2.4,2.9c-.1,.6,-.3,1.2,-.4,1.8c.6,.6,1.4,1.2,2.4,1.4c.5,-.5,.5,-1.3,1.2,-1.5c.9,.3,1.8,.7,3.1,.7c.1,.1,.5,.2,.8,.2c.4,0,.7,-.1,.8,-.2c.1,0,.2,.1,.3,.1c.3,0,.5,-.1,.7,-.2c.1,-.1,.3,-.1,.5,-.1c.1,0,.2,0,.3,.1c-1.3,.6,-2.2,1.7,-4.2,1.7c-.1,0,-.2,0,-.3,0c-.9,3.8,-1.9,7.4,-2.7,11.2c.6,1.1,1.5,1.7,1.3,3.2c-.5,2.7,-3.9,4.4,-7.2,4.4c-1.3,0,-2.5,-.3,-3.6,-.8c-1,2.1,-2.1,4.1,-3.3,6c0,-.3,.3,-.3,.3,-.7c.9,-1.8,1.9,-3.6,2.6,-5.7c-1,1.7,-1.8,3.7,-2.8,5.6c-.2,.4,-.4,.8,-.6,1.2c-.3,.4,-.3,1.2,-.7,1.4Z"/></clipPath>
<clipPath id="cd_214"><path d="M165.6,565.3c-4.8,0,-13.1,-7.3,-5.6,-8.8h1.3c.2,.1,.4,.1,.7,.1c0,0,.1,0,.1,0c.3,0,.6,0,1,.1c3,.6,8.2,3.8,7.5,7c-.2,1.1,-1.5,1.6,-3.1,1.6h-1.8c0,0,-.1,0,-.1,0Z"/></clipPath>
<clipPath id="ce_214"><path d="M828,737.7c-.3,-.1,3.5,-8.3,3.5,-8.3l.8,.6c0,0,-4,7.7,-4.3,7.7Z"/></clipPath>
<clipPath id="cf_214"><path d="M835.5,729.9c0,0,-6.9,-1.1,-7.6,-5.2c-.7,-3.6,1.5,-3.8,2.1,-3.8q.1,0,.1,0l8.3,-12.8l-1.4,-3c0,0,-.6,-1.2,.1,-2.1c0,-.1,.2,-.1,.3,-.1c2.1,0,12.9,5.5,12.9,5.5l.1,.2c-.4,.5,-.7,1.1,-1.4,1.6c-.6,.5,-5.1,1.2,-5.1,1.2l-8.4,18.5Z"/></clipPath>
<clipPath id="cg_214"><path d="M835.1,729.6c.2,-.5,.2,-1.8,0,-2.3v-1.4c-1.6,-.5,-2.9,-1.2,-3.7,-2.5c-1.1,.6,-2.1,1.2,-3.1,1.9c1.5,2.1,3.8,3.6,6.8,4.3Zm0,-3.9c2.2,-4.6,4,-9.5,6.1,-14.1c-.9,-.4,-1.8,-1.3,-2.6,-1.4c-2.3,4.3,-4.6,8.7,-7.1,12.8c.8,1.4,2.1,2.1,3.6,2.7Zm-7.3,12c1,-2.8,2.4,-5.4,3.5,-8.2c-2,-1.6,-3.9,-3.2,-4.4,-6.2v-1.5c0,-2.7,1.9,-3.4,4.6,-3.4c0,0,.1,0,.2,0c1.9,-3.3,4.2,-6.3,6.1,-9.7c-.5,-.8,-1.1,-2.3,-.8,-3.6c.5,1.2,1.6,1.9,2.3,2.9c-.1,.6,-.2,1.1,-.3,1.7c.6,.7,1.3,1.2,2.4,1.4c.4,-.4,.5,-1.2,1.1,-1.5c.9,.4,1.8,.8,3.1,.8c.2,.1,.5,.1,.8,.1c.4,0,.7,0,.9,-.1c.1,0,.2,0,.3,0c.2,0,.4,-.1,.6,-.1c.2,-.1,.3,-.2,.5,-.2c.1,0,.2,.1,.3,.1c-1.3,.7,-2.2,1.8,-4.2,1.8c-.1,0,-.2,0,-.3,0c-.9,3.7,-1.9,7.3,-2.6,11.2c.5,1,1.5,1.7,1.2,3.1c-.4,2.7,-3.8,4.4,-7.2,4.4c-1.2,0,-2.5,-.2,-3.6,-.7c-1,2.1,-2.1,4.1,-3.3,6c0,-.4,.3,-.4,.3,-.8c.9,-1.8,1.9,-3.6,2.6,-5.6c-1,1.7,-1.8,3.7,-2.7,5.5c-.2,.4,-.5,.8,-.7,1.3c-.3,.4,-.3,1.1,-.7,1.3Z"/></clipPath>
<clipPath id="ch_214"><path d="M845.5,710c-4.8,0,-13.1,-7.3,-5.5,-8.8h1.2c.2,0,.4,0,.6,0q.1,0,.1,0q.1,0,.2,0c.3,0,.6,0,.9,.1c3.1,.6,8.2,3.8,7.5,7c-.2,1.2,-1.5,1.6,-3.1,1.7h-1.9Z"/></clipPath>
<clipPath id="ci_214"><path d="M125.5,386.7V205.8H858.6V386.7Z"/></clipPath>
<style type="text/css"><![CDATA[
.g0_214{
fill: #FEFCF4;
}
.g1_214{
fill: #FFF;
}
.g2_214{
fill: none;
stroke: #6381B7;
stroke-width: 0.763;
}
.g3_214{
fill: #6381B7;
}
.g4_214{
fill: none;
stroke: #6381B7;
stroke-width: 0.381;
stroke-dasharray: 2,1;
}
.g5_214{
fill: none;
stroke: #6381B7;
stroke-width: 0.381;
}
.g6_214{
fill: #F7C2D9;
}
.g7_214{
fill: #FDF4F3;
}
.g8_214{
fill: #EC008C;
}
.g9_214{
fill: none;
stroke: #949698;
stroke-width: 0.305;
stroke-dasharray: 4,4;
}
.ga_214{
fill: none;
stroke: #949698;
stroke-width: 0.305;
}
.gb_214{
fill: none;
stroke: #818385;
stroke-width: 0.305;
stroke-dasharray: 3,3;
}
.gc_214{
fill: none;
stroke: #818385;
stroke-width: 0.305;
}
.gd_214{
fill: #6D6F71;
}
.ge_214{
fill: #FCE8B0;
}
.gf_214{
fill: #25408F;
}
.gg_214{
fill: #A8AAAD;
}
.gh_214{
fill: none;
stroke: #949698;
stroke-width: 0.549;
}
.gi_214{
fill: none;
stroke: #BCBEC0;
stroke-width: 2.566;
}
.gj_214{
fill: #231F20;
}
.gk_214{
fill: #363637;
}
.gl_214{
fill: #5CC4BE;
}
.gm_214{
fill: #EAD646;
}
.gn_214{
fill: #2E6E51;
}
.go_214{
fill: none;
stroke: #FFF;
stroke-width: 0.152;
stroke-miterlimit: 1;
}
.gp_214{
fill: #BCBEC0;
}
.gq_214{
fill: #EE314A;
}
.gr_214{
fill: #CEEDFB;
}
.gs_214{
fill: #27639D;
}
.gt_214{
fill: none;
stroke: #C3E7F1;
stroke-width: 1.527;
}
.gu_214{
fill: none;
stroke: #FFF;
stroke-width: 1.909;
stroke-miterlimit: 10;
}
.gv_214{
fill: none;
stroke: #000;
stroke-width: 0.381;
stroke-miterlimit: 10;
}
]]></style>
</defs>
<path d="M32.1,1344.3H954.5V32.1H32.1V1344.3Z" class="g0_214"/>
<path clip-path="url(#c0_214)" d="M954.5,1344.3H1877V32.1H954.5V1344.3Z" class="g0_214"/>
<path d="M150.3,412.3c0,0,-18.3,0,-18.3,18.3v579.3c0,0,0,18.3,18.3,18.3H827.4c0,0,18.4,0,18.4,-18.3V412.3Z" class="g1_214"/>
<path d="M150.3,412.3c0,0,-18.3,0,-18.3,18.3v579.3c0,0,0,18.3,18.3,18.3H827.4c0,0,18.4,0,18.4,-18.3V412.3H150.3Z" class="g2_214"/>
<path d="M145.1,1036.6c0,0,-13,0,-13,13v137.6c0,0,0,13,13,13H832.9c0,0,13,0,13,-13V1049.6c0,0,0,-13,-13,-13Z" class="g1_214"/>
<path d="M145.1,1036.6c0,0,-13,0,-13,13v137.6c0,0,0,13,13,13H832.9c0,0,13,0,13,-13V1049.6c0,0,0,-13,-13,-13H145.1Z" class="g2_214"/>
<path d="M357.2,1216.2c0,0,-4.4,0,-4.4,4.3v10.8c0,0,0,4.3,4.4,4.3h30.3c0,0,4.3,0,4.3,-4.3v-10.8c0,0,0,-4.3,-4.3,-4.3Z" class="g3_214"/>
<path d="M344,1208.7v34.8m1.3,1H845m1,-1.4v-34.8m-1.4,-1H344.9" class="g4_214"/>
<path d="M344,1243.9v.6h.6m500.8,0h.6v-.6m0,-36v-.6h-.6m-500.8,0H344v.6" class="g5_214"/>
<image clip-path="url(#c1_214)" preserveAspectRatio="none" x="53" y="572" width="225" height="381" xlink:href="img/1.png"/>
<path d="M58,586.4L73.1,947l199,-12.1l-13,-358.1Z" class="g6_214"/>
<image clip-path="url(#c2_214)" preserveAspectRatio="none" x="57" y="577" width="215" height="372" xlink:href="img/2.png"/>
<image clip-path="url(#c3_214)" preserveAspectRatio="none" x="57" y="577" width="215" height="371" xlink:href="img/3.png"/>
<path d="M62,582l1.5,359.4l170.3,-.1l32.1,-21.1l-2.6,-339Z" class="g7_214"/>
<path d="M234.6,942.3l32.2,-22.1L249.4,909.8Z" class="g8_214"/>
<path d="M531.9,615.2C514.2,604.1,436,561.1,293.7,571.9m-8,1.8c-7,3.5,-12,11.9,-.2,8m2.3,-4c-3.8,-1.5,-12.4,-2.9,-22.7,-3.2m-7.6,-.1c-38.7,-.2,-52.9,2,-74.6,16.8" class="g9_214"/>
<path d="M535.7,617.7c0,0,-.4,-.3,-1.2,-.8M292.1,572c-.5,.1,-1,.1,-1.5,.2c-.6,0,-1.1,.1,-1.7,.2m-1.8,8.7c.5,-.2,1,-.4,1.6,-.6c.7,-.3,1.1,-.6,1.2,-.9m-26.3,-5.1c-.5,-.1,-1,-.1,-1.6,-.1c-.5,0,-1,0,-1.5,0m-78.8,17.7c-.5,.3,-.9,.6,-1.3,.9" class="ga_214"/>
<path d="M556.7,643.5c15.8,-.7,28.5,-5.1,31.8,-10.8m-.9,-6.9c-4.4,-5.3,-17.1,-9.1,-32.4,-9.6m-7.5,.1c-15.8,.7,-28.5,5,-31.8,10.7m.9,6.9c4.4,5.3,17.1,9.2,32.4,9.6" class="gb_214"/>
<path d="M589.1,631.3c.1,-.4,.2,-.9,.2,-1.4c0,-.5,-.1,-1,-.2,-1.5M553.7,616.2c-.5,0,-1,0,-1.5,0c-.5,0,-1,0,-1.5,0m-35.4,12.2c-.1,.5,-.2,1,-.2,1.5c0,.5,.1,1,.2,1.4m35.4,12.3c.5,0,1,0,1.5,0c.5,0,1,0,1.5,0" class="gc_214"/>
<path d="M187.6,593.6l-6.7,-5.7L177,599.4Z" class="gd_214"/>
<image clip-path="url(#c4_214)" preserveAspectRatio="none" x="730" y="721" width="204" height="282" xlink:href="img/4.png"/>
<path d="M751.8,725.8l-17,256l175.3,14.7L928,738.8Z" class="g6_214"/>
<image clip-path="url(#c5_214)" preserveAspectRatio="none" x="736" y="725" width="192" height="272" xlink:href="img/5.png"/>
<image clip-path="url(#c6_214)" preserveAspectRatio="none" x="736" y="725" width="191" height="272" xlink:href="img/6.png"/>
<path d="M745.4,729.5l-4.2,257.6L884,990.4l34,-24.1l4.1,-233Z" class="g7_214"/>
<path d="M884.4,990.5l33.9,-24.4L890.1,965Z" class="g8_214"/>
<path d="M580.1,969c14.5,-.9,26.1,-6.3,28.6,-13.1m-.6,-6.9c-3.5,-6.5,-15.2,-11.4,-29.4,-12m-7.2,.1c-14.5,.9,-26.1,6.3,-28.6,13.2m.6,6.9c3.5,6.4,15.2,11.3,29.4,11.9" class="gb_214"/>
<path d="M609.1,954.5c.1,-.5,.1,-1,.1,-1.4c0,-.5,0,-1,-.1,-1.5M577.2,937c-.4,0,-.9,0,-1.4,0c-.5,0,-1,0,-1.4,0m-31.9,14.6c-.1,.5,-.1,1,-.1,1.5c0,.4,0,.9,.1,1.4m31.9,14.6c.4,0,.9,0,1.4,0c.5,0,1,0,1.4,0" class="gc_214"/>
<path d="M575.4,935.4c0,0,31.4,-121.6,169.9,-145.5" class="g9_214"/>
<path d="M738.2,786.5l1.7,8.7l10.2,-6.7Z" class="gd_214"/>
<path d="M209.6,447.3c0,0,-12.9,0,-12.9,13v47.6c0,0,0,13,12.9,13h602c0,0,13,0,13,-13V460.3c0,0,0,-13,-13,-13Z" class="ge_214"/>
<image clip-path="url(#c7_214)" preserveAspectRatio="none" x="153" y="444" width="75" height="76" xlink:href="img/7.png"/>
<path d="M204.4,513.5c0,0,-26.8,11.3,-51.1,-12.7c0,0,15.2,25.3,49.3,23.9c0,0,24.8,.4,20.3,-10.1c0,0,1.2,-4.4,-18.5,-1.1Z" class="ge_214"/>
<path d="M207.8,1078.7c0,0,-12.9,0,-12.9,13v21.6c0,0,0,13,12.9,13h602c0,0,13,0,13,-13v-21.6c0,0,0,-13,-13,-13Z" class="ge_214"/>
<image clip-path="url(#c8_214)" preserveAspectRatio="none" x="151" y="1049" width="75" height="76" xlink:href="img/8.png"/>
<path d="M202.6,1118.9c0,0,-26.8,11.3,-51.1,-12.7c0,0,15.2,25.3,49.3,23.9c0,0,24.8,.4,20.3,-10.1c0,0,1.2,-4.4,-18.5,-1.1Z" class="ge_214"/>
<path d="M131.7,393.1V432l11.7,10.3V398.1Z" class="gf_214"/>
<path d="M131.7,393.1V432H829.5c0,0,16.8,0,16.8,-16.8v-5.3c0,0,0,-16.8,-16.8,-16.8Z" class="g3_214"/>
<path d="M781,426.7c8.2,0,14.8,-6.5,14.8,-14.5c0,-8,-6.6,-14.5,-14.8,-14.5c-8.3,0,-14.9,6.5,-14.9,14.5c0,8,6.6,14.5,14.9,14.5Z" class="gg_214"/>
<path d="M781,426.7c8.2,0,14.8,-6.5,14.8,-14.5c0,-8,-6.6,-14.5,-14.8,-14.5c-8.3,0,-14.9,6.5,-14.9,14.5c0,8,6.6,14.5,14.9,14.5Z" class="gh_214"/>
<path d="M781,417.5c3,0,5.4,-2.4,5.4,-5.3c0,-3,-2.4,-5.4,-5.4,-5.4c-3.1,0,-5.5,2.4,-5.5,5.4c0,2.9,2.4,5.3,5.5,5.3Z" class="g1_214"/>
<path d="M781,417.5c3,0,5.4,-2.4,5.4,-5.3c0,-3,-2.4,-5.4,-5.4,-5.4c-3.1,0,-5.5,2.4,-5.5,5.4c0,2.9,2.4,5.3,5.5,5.3Z" class="gi_214"/>
<g clip-path="url(#c9_214)" opacity="0.3">
<path d="M766.4,411.4c0,0,-.1,-4.8,3.6,-8.6l7.8,6.7c0,0,-1,.9,-1.1,2.6Z" class="g1_214"/>
</g>
<path d="M785.6,412.1c0,0,-3.5,0,-3.5,3.4v8.8c0,0,0,3.4,3.5,3.4H829c0,0,3.5,0,3.5,-3.4v-8.8c0,0,0,-3.4,-3.5,-3.4Z" class="gj_214"/>
<path d="M169.5,403.1c0,-8.3,-6.7,-15,-15,-15c-8.4,0,-15.1,6.7,-15.1,15c0,8.4,6.8,15.1,15.1,15.1c.8,0,1.6,-.1,2.4,-.2l4.5,5.2v-6.7c4.8,-2.5,8.1,-7.5,8.1,-13.4Z" class="g1_214"/>
<path d="M161.8,424.5l-5.1,-6c-.7,.1,-1.5,.2,-2.2,.2c-8.6,0,-15.6,-7,-15.6,-15.6c0,-8.5,7,-15.5,15.6,-15.5c8.5,0,15.5,7,15.5,15.5c0,5.8,-3.1,11,-8.2,13.7Zm-4.7,-7l3.8,4.5v-5.8l.3,-.1c4.8,-2.5,7.9,-7.5,7.9,-13c0,-8,-6.6,-14.6,-14.6,-14.6c-8.1,0,-14.6,6.6,-14.6,14.6c0,8.1,6.5,14.6,14.6,14.6c.7,0,1.5,0,2.3,-.2Z" class="gk_214"/>
<path d="M147.4,402.7c.8,0,1.5,.7,1.5,1.5c0,.7,-.7,1.4,-1.5,1.4c-.7,0,-1.4,-.7,-1.4,-1.4c0,-.8,.7,-1.5,1.4,-1.5Z" class="gl_214"/>
<path d="M147.4,406c-1,0,-1.8,-.8,-1.8,-1.8c0,-1.1,.8,-1.9,1.8,-1.9c1.1,0,1.9,.8,1.9,1.9c0,1,-.8,1.8,-1.9,1.8m0,-2.8c-.5,0,-.9,.4,-.9,1c0,.5,.4,.9,.9,.9c.6,0,1,-.4,1,-.9c0,-.6,-.4,-1,-1,-1Z" class="gk_214"/>
<path d="M154.5,402.7c.8,0,1.4,.7,1.4,1.5c0,.7,-.6,1.4,-1.4,1.4c-.8,0,-1.5,-.7,-1.5,-1.4c0,-.8,.7,-1.5,1.5,-1.5Z" class="gl_214"/>
<path d="M154.5,406c-1.1,0,-1.9,-.8,-1.9,-1.8c0,-1.1,.8,-1.9,1.9,-1.9c1,0,1.9,.8,1.9,1.9c0,1,-.9,1.8,-1.9,1.8m0,-2.8c-.6,0,-1,.4,-1,1c0,.5,.4,.9,1,.9c.5,0,.9,-.4,.9,-.9c0,-.6,-.4,-1,-.9,-1Z" class="gk_214"/>
<path d="M161.5,402.7c.8,0,1.4,.7,1.4,1.5c0,.7,-.6,1.4,-1.4,1.4c-.8,0,-1.5,-.7,-1.5,-1.4c0,-.8,.7,-1.5,1.5,-1.5Z" class="gl_214"/>
<path d="M161.5,406c-1.1,0,-1.9,-.8,-1.9,-1.8c0,-1.1,.8,-1.9,1.9,-1.9c1,0,1.9,.8,1.9,1.9c0,1,-.9,1.8,-1.9,1.8m0,-2.8c-.6,0,-1,.4,-1,1c0,.5,.4,.9,1,.9c.5,0,1,-.4,1,-.9c0,-.6,-.5,-1,-1,-1Z" class="gk_214"/>
<path d="M163.4,417.4c0,-9.7,7.9,-17.6,17.6,-17.6c9.7,0,17.6,7.9,17.6,17.6c0,9.7,-7.9,17.6,-17.6,17.6c-.9,0,-1.9,-.1,-2.8,-.2l-5.3,6.1V433c-5.6,-2.9,-9.5,-8.8,-9.5,-15.6Z" class="gm_214"/>
<path d="M172.9,441.3c0,0,-.1,0,-.1,0c-.2,-.1,-.3,-.2,-.3,-.4v-7.6c-5.9,-3.1,-9.6,-9.2,-9.6,-15.9c0,-10,8.2,-18.1,18.1,-18.1c10,0,18.1,8.1,18.1,18.1c0,9.9,-8.1,18.1,-18.1,18.1c-.8,0,-1.7,-.1,-2.6,-.2l-5.1,5.9c-.1,.1,-.2,.1,-.4,.1M181,400.2c-9.4,0,-17.1,7.7,-17.1,17.2c0,6.4,3.5,12.3,9.2,15.2c.2,.1,.3,.3,.3,.4v6.6l4.4,-5.1c.1,-.1,.3,-.2,.5,-.2c.9,.2,1.8,.2,2.7,.2c9.5,0,17.2,-7.7,17.2,-17.1c0,-9.5,-7.7,-17.2,-17.2,-17.2Z" class="gk_214"/>
<path d="M189.2,416.9c.9,0,1.7,.7,1.7,1.7c0,.9,-.8,1.6,-1.7,1.6c-.9,0,-1.7,-.7,-1.7,-1.6c0,-1,.8,-1.7,1.7,-1.7Z" class="g1_214"/>
<path d="M189.2,420.7c-1.2,0,-2.1,-1,-2.1,-2.1c0,-1.2,.9,-2.2,2.1,-2.2c1.2,0,2.1,1,2.1,2.2c0,1.1,-.9,2.1,-2.1,2.1m0,-3.4c-.7,0,-1.2,.6,-1.2,1.3c0,.6,.5,1.2,1.2,1.2c.7,0,1.2,-.6,1.2,-1.2c0,-.7,-.5,-1.3,-1.2,-1.3Z" class="gk_214"/>
<path d="M181,416.9c.9,0,1.7,.7,1.7,1.7c0,.9,-.8,1.6,-1.7,1.6c-.9,0,-1.7,-.7,-1.7,-1.6c0,-1,.8,-1.7,1.7,-1.7Z" class="g1_214"/>
<path d="M181,420.7c-1.2,0,-2.1,-1,-2.1,-2.1c0,-1.2,.9,-2.2,2.1,-2.2c1.2,0,2.1,1,2.1,2.2c0,1.1,-.9,2.1,-2.1,2.1m0,-3.4c-.7,0,-1.2,.6,-1.2,1.3c0,.6,.5,1.2,1.2,1.2c.7,0,1.2,-.6,1.2,-1.2c0,-.7,-.5,-1.3,-1.2,-1.3Z" class="gk_214"/>
<path d="M172.8,416.9c.9,0,1.7,.7,1.7,1.7c0,.9,-.8,1.6,-1.7,1.6c-.9,0,-1.7,-.7,-1.7,-1.6c0,-1,.8,-1.7,1.7,-1.7Z" class="g1_214"/>
<path d="M172.8,420.7c-1.2,0,-2.1,-1,-2.1,-2.1c0,-1.2,.9,-2.2,2.1,-2.2c1.2,0,2.1,1,2.1,2.2c0,1.1,-.9,2.1,-2.1,2.1m0,-3.4c-.7,0,-1.2,.6,-1.2,1.3c0,.6,.5,1.2,1.2,1.2c.7,0,1.2,-.6,1.2,-1.2c0,-.7,-.5,-1.3,-1.2,-1.3Z" class="gk_214"/>
<image clip-path="url(#ca_214)" x="147" y="584" width="6" height="10" xlink:href="shade/1.png"/>
<image clip-path="url(#cb_214)" x="147" y="558" width="24" height="28" xlink:href="shade/2.png"/>
<image clip-path="url(#cc_214)" x="146" y="560" width="24" height="34" xlink:href="shade/3.png"/>
<image clip-path="url(#cd_214)" x="152" y="556" width="20" height="10" xlink:href="shade/4.png"/>
<image clip-path="url(#ce_214)" x="827" y="729" width="6" height="9" xlink:href="shade/5.png"/>
<image clip-path="url(#cf_214)" x="827" y="702" width="24" height="28" xlink:href="shade/6.png"/>
<image clip-path="url(#cg_214)" x="826" y="705" width="24" height="33" xlink:href="shade/7.png"/>
<image clip-path="url(#ch_214)" x="832" y="701" width="20" height="10" xlink:href="shade/8.png"/>
<path d="M32.1,179.3H967.5V32.1H32.1V179.3Z" class="gn_214"/>
<path d="M259.2,134h-12l1.2,1.2c.5,.6,.9,1,1.2,1.2c.2,.2,.4,.3,.7,.4c.3,.2,.7,.3,1.1,.4c.8,.3,1.4,.5,1.7,.8c.4,.4,.6,1.1,.6,2.2c-.2,-.2,-.5,-.3,-.9,-.3c-.7,0,-1.3,.2,-1.7,.5c-.5,.4,-.8,1,-.8,1.6c0,.6,.2,1.1,.6,1.5c.4,.4,.9,.5,1.4,.5c.4,0,.7,0,1.1,-.2c.3,-.1,.7,-.5,1.1,-.9c1.5,.5,2.7,2,3.3,4.4l.5,.5V135.2h2.1L259.2,134Zm-2.1,9.8c-.3,-.4,-.5,-.8,-.9,-1.2c-.3,-.4,-.8,-.8,-1.2,-1.2c0,-.1,0,-.2,0,-.3v-.3c0,-1.1,-.4,-2.1,-1.1,-3.1c-.5,-.7,-1.3,-1.5,-2.6,-2.5h5.8v8.6ZM274,134H258.7l1.1,1.2h5.3c-.4,.3,-.9,.8,-1.3,1.5c-.3,.6,-.5,1.2,-.5,1.7c0,.8,.3,1.5,.8,2.1c.5,.7,1.2,1,2,1c.3,0,.8,-.1,1.3,-.3c.5,-.2,.9,-.3,.9,-.3c.3,0,.4,.1,.6,.4c.1,.2,.1,.4,.1,.6c0,.6,-.3,1,-1.1,1.3c-.6,.3,-1.2,.5,-1.8,.5c-.7,0,-1.3,-.2,-1.8,-.6c-.6,-.4,-1.1,-1,-1.5,-1.7c-.6,-.9,-1,-2.1,-1.1,-3.5c-.1,-.5,-.1,-.9,0,-1.3l-.6,-.3c0,1.2,0,2.3,.2,3.3c.2,1,.4,1.9,.7,2.7c1,2.2,2.5,3.4,4.5,3.4c.9,0,1.7,-.4,2.4,-1c.6,-.7,1,-1.5,1,-2.4c0,-.3,-.1,-.6,-.2,-.9c-.1,-.4,-.3,-.7,-.5,-1.1c-.4,-.7,-.8,-1.2,-1.3,-1.4l-1.4,.7c-.2,.1,-.5,.2,-.7,.3c-.3,.1,-.4,.1,-.6,.1c-.6,0,-.9,-.3,-.9,-.9c0,-.4,.2,-1,.7,-1.7c.2,-.4,.4,-.7,.6,-.9c.3,-.2,.5,-.3,.7,-.3l.1,.1c.7,.9,1.5,1.6,2.3,1.9c.8,.3,1.8,.5,3.1,.5c-.5,1.2,-.8,2.5,-.8,3.6c0,.9,.1,1.8,.3,2.6c.2,.8,.4,1.6,.7,2.4l1.2,.3c-.6,-1.3,-.9,-2.5,-.9,-3.4c0,-1.2,.1,-2.3,.5,-3.3c.3,-.9,.8,-1.7,1.5,-2.3l-1.9,-1.9c-.3,.2,-.7,.3,-1.2,.4c-.6,.1,-1.1,.1,-1.8,.1c-.1,0,-.3,0,-.5,-.1c-.3,-.1,-.5,-.1,-.7,-.3c-.3,-.1,-.5,-.2,-.6,-.3c-.2,-.2,-.3,-.3,-.3,-.5c.1,-.2,.2,-.4,.4,-.5c.2,-.2,.4,-.3,.6,-.3h6.8L274,134Zm1.4,17.3c-.1,-.2,-.2,-.4,-.4,-.5c-.1,-.2,-.2,-.4,-.5,-.7c-.3,-.3,-.6,-.7,-.9,-1c-.3,-.3,-.7,-.6,-1,-.9c0,-.3,0,-.7,0,-1.2c0,-.5,-.1,-.9,-.2,-1.2l-1,-.7c.1,.6,.1,1,.1,1.5c.1,.4,0,.7,-.1,.9c-.7,-.4,-1.3,-.6,-1.7,-.6c-.3,0,-.6,.1,-.9,.2c-.2,0,-.5,.2,-.7,.3c-.2,.2,-.3,.4,-.4,.7c-.2,.2,-.2,.5,-.2,.7c0,.6,.2,1,.7,1.4c.4,.3,1,.5,1.6,.5c1,-.1,1.8,-.6,2.4,-1.5c.3,.2,.5,.4,.8,.6c.3,.2,.6,.4,.8,.7c.3,.3,.6,.6,.8,.9c.3,.2,.5,.5,.8,.8v-.9Zm-4.9,-3.1c.2,.1,.4,.2,.5,.4c-.1,.2,-.3,.4,-.6,.6c-.4,.2,-.8,.3,-1.1,.2c-.4,0,-.6,-.3,-.6,-.6c0,-.5,.4,-.7,1.2,-.8c.2,.1,.5,.1,.6,.2ZM281.2,134h-7.9l1.2,1.2h4c-1.7,2,-2.6,4,-2.6,6.1c0,1.5,.3,2.8,1,3.9c.7,1.4,1.8,2.1,3.2,2.1c.2,0,.5,0,.8,-.1c.2,-.1,.5,-.2,.7,-.4c.2,-.2,.3,-.4,.4,-.7c.2,-.2,.2,-.5,.2,-.8c0,-.4,-.1,-.9,-.4,-1.2c-.3,-.3,-.6,-.5,-1,-.5c-.4,0,-.7,.2,-1,.4c-.4,.3,-.5,.6,-.5,1c0,.2,.1,.4,.2,.7c.1,.2,.3,.4,.6,.6c-.8,.2,-1.5,-.2,-2.3,-1.3c-.4,-.7,-.7,-1.5,-.7,-2.3c0,-1,.1,-1.9,.3,-2.7c.3,-.7,.6,-1.4,1,-2.1c.4,-.7,1,-1.3,1.7,-1.7c.6,-.5,1.4,-.8,2.3,-1L281.2,134Zm12.4,1.2L292.4,134H280.6l1.2,1.2h1.3v7.1l1.6,1.7c.5,-1.1,1.2,-2.1,2.1,-2.9c.9,-.9,1.9,-1.5,2.9,-1.9c-.2,1,-.4,2.1,-.4,3.1c0,.6,.1,1.3,.2,2.2c.1,.8,.3,1.8,.5,3l.9,.4c-.3,-1.6,-.5,-2.8,-.5,-3.7c0,-.9,.2,-1.8,.4,-2.8c.3,-1,.7,-2,1.3,-3l-2,-1.5c-.4,.1,-.8,.3,-1.3,.6c-.5,.2,-1,.5,-1.5,.8c-.5,.4,-1,.7,-1.5,1.2c-.5,.4,-1,.8,-1.4,1.3v-5.6h9.2Zm11.1,0L303.5,134H291.8l1.1,1.2h8.2v.9c-2.5,.8,-4.9,2.1,-7.3,3.7l1.6,2.3h-.1c1.7,.1,3.1,.7,4.1,1.6c.3,.3,.6,.6,.9,1c.4,.4,.6,.8,.8,1c.1,.3,.3,.7,.5,1.3l.7,.8V135.2h2.4Zm-3.6,9.4c-1,-1.8,-2.7,-3.2,-4.8,-4.1c.9,-.6,1.7,-1.1,2.5,-1.5c.8,-.4,1.6,-.7,2.3,-1v6.6Zm-4.7,1.7c.3,.3,.6,.4,.9,.4c.3,0,.6,-.1,.9,-.4c.2,-.2,.3,-.5,.3,-.8c0,-.4,-.1,-.7,-.3,-.9c-.3,-.3,-.6,-.4,-.9,-.4c-.3,0,-.6,.1,-.9,.4c-.2,.2,-.3,.5,-.3,.9c0,.3,.1,.6,.3,.8Zm29,-11.1L324.3,134c-.2,0,-.3,0,-.4,0c-.5,0,-.8,-.2,-1,-.6c0,-.2,-.1,-.6,-.1,-1.2l-.6,-.5c.1,1.1,.1,2.2,.2,3.2c0,1.1,.1,2.1,.1,3.2c-1.5,-2.6,-3.2,-3.9,-4.9,-3.9c-.5,0,-1,.1,-1.5,.3c-.5,.1,-1,.4,-1.5,.7c-.6,.4,-1,.8,-1.3,1.2c-.3,.4,-.5,.9,-.5,1.3c0,.2,.1,.5,.3,.7c.2,.2,.4,.3,.7,.3c.2,0,.5,-.1,.8,-.3c.2,-.1,.4,-.1,.5,-.2c.1,0,.3,0,.4,0c.5,0,.7,.4,.7,1.2c0,.5,-.4,1.1,-1.2,1.9l1.7,.6l4.2,-4.2c.1,.1,.3,.2,.4,.4c.2,.2,.4,.4,.5,.6c.2,.3,.3,.5,.4,.7c.1,.3,.1,.5,.1,.6l-.2,6.4l1.3,1.3V135.2h2Zm-8.5,4.2c.1,-.7,0,-1.2,-.3,-1.6c-.3,-.5,-.8,-.7,-1.4,-.7c.5,-1.1,1.5,-1.6,2.8,-1.6c.7,0,1.3,.3,1.9,.9l-3,3Zm20.5,-7.5c-2.3,-2.4,-4.7,-3.6,-7.2,-3.6c-1,0,-2,.4,-3.1,1.2c-1.1,.9,-1.6,1.8,-1.6,2.7c0,.4,.1,.7,.5,1l.8,.8h-3.2l1.2,1.2h1.8v11.3l1.2,1.2V135.2h2.1L328.7,134h-1.3l-.5,-1.1c.1,-.9,.6,-1.6,1.7,-2.3c.9,-.7,1.8,-1,2.7,-1c.6,0,1.2,.1,1.8,.2c.6,.2,1.2,.4,1.7,.7c.6,.4,1.1,.7,1.6,1c.5,.4,.9,.7,1.3,1l-.3,-.6Zm3.7,3.3L339.9,134H328.1l1.2,1.2h8.2v.9c-2.5,.8,-5,2.1,-7.3,3.7l1.5,2.3c1.7,.1,3.1,.7,4.1,1.6c.3,.3,.6,.6,.9,1c.3,.4,.6,.8,.7,1c.2,.3,.4,.7,.6,1.3l.7,.8V135.2h2.4Zm-3.6,9.4c-1.1,-1.8,-2.7,-3.2,-4.8,-4.1c.8,-.6,1.7,-1.1,2.5,-1.5c.8,-.4,1.5,-.7,2.3,-1v6.6Zm-4.7,1.7c.2,.3,.5,.4,.9,.4c.3,0,.6,-.1,.9,-.4c.2,-.2,.3,-.5,.3,-.8c0,-.4,-.1,-.7,-.3,-.9c-.3,-.3,-.6,-.4,-.9,-.4c-.4,0,-.7,.1,-.9,.4c-.2,.2,-.4,.5,-.4,.9c0,.3,.2,.6,.4,.8ZM351.3,134H339.2l1.3,1.2c.4,.6,.8,1,1.1,1.2c.2,.2,.4,.3,.8,.4c.3,.2,.6,.3,1.1,.4c.8,.3,1.3,.5,1.6,.8c.4,.4,.7,1.1,.7,2.2c-.3,-.2,-.6,-.3,-1,-.3c-.7,0,-1.3,.2,-1.7,.5c-.5,.4,-.8,1,-.8,1.6c0,.6,.2,1.1,.6,1.5c.4,.4,.9,.5,1.5,.5c.3,0,.6,0,1,-.2c.4,-.1,.7,-.5,1.1,-.9c1.6,.5,2.7,2,3.3,4.4l.5,.5V135.2h2.2L351.3,134Zm-2.2,9.8c-.2,-.4,-.5,-.8,-.9,-1.2c-.3,-.4,-.7,-.8,-1.2,-1.2c0,-.1,.1,-.2,.1,-.3v-.3c0,-1.1,-.4,-2.1,-1.2,-3.1c-.5,-.7,-1.3,-1.5,-2.5,-2.5h5.8v8.6h-.1Zm8,-8.6L355.9,134h-1.1c-.3,-.4,-.6,-1,-.7,-1.9l-.5,-.3c0,.2,0,.5,.1,.9c0,.3,0,.7,0,1.2c.1,.5,.1,.9,.1,1.3c0,.3,0,.6,0,.9c-.2,-.8,-.5,-1.3,-.9,-1.6c-.4,-.3,-1,-.5,-1.7,-.5h-1.4l1.2,1.2c.3,0,.7,.1,1,.2c.3,.1,.6,.3,.9,.5c.2,.2,.4,.4,.5,.7c.2,.3,.3,.7,.3,1v8.9l1.1,1.2V135.2h2.3Zm11.1,0L367,134H355.3l1.2,1.2h8.4v6.6c-1.3,-2.6,-2.8,-4,-4.5,-4c-.8,0,-1.5,.3,-2.1,.9c-.5,.5,-.8,1.2,-.8,2c0,1.5,.7,2.2,2.3,2.2c.5,0,.9,-.2,1.2,-.5c.3,-.4,.4,-.8,.4,-1.3c0,-.3,-.2,-.8,-.8,-1.5c.1,-.1,.2,-.1,.4,-.1c1.2,0,2.4,.8,3.3,2.5c.7,1.4,1,2.9,.9,4.2v1.3l.9,.6V135.2h2.1ZM389.5,134H374.2l1.2,1.2h5.3c-.5,.3,-.9,.8,-1.3,1.5c-.4,.6,-.5,1.2,-.5,1.7c0,.8,.2,1.5,.8,2.1c.5,.7,1.2,1,2,1c.3,0,.7,-.1,1.2,-.3c.6,-.2,.9,-.3,1,-.3c.2,0,.4,.1,.5,.4c.1,.2,.2,.4,.2,.6c0,.6,-.4,1,-1.1,1.3c-.6,.3,-1.2,.5,-1.8,.5c-.7,0,-1.3,-.2,-1.9,-.6c-.5,-.4,-1,-1,-1.4,-1.7c-.6,-.9,-1,-2.1,-1.1,-3.5c-.1,-.5,-.1,-.9,0,-1.3l-.7,-.3c0,1.2,.1,2.3,.3,3.3c.1,1,.4,1.9,.7,2.7c.9,2.2,2.4,3.4,4.5,3.4c.9,0,1.7,-.4,2.3,-1c.7,-.7,1,-1.5,1,-2.4c0,-.3,0,-.6,-.1,-.9c-.1,-.4,-.3,-.7,-.5,-1.1c-.4,-.7,-.9,-1.2,-1.4,-1.4l-1.3,.7c-.3,.1,-.5,.2,-.8,.3c-.2,.1,-.4,.1,-.5,.1c-.6,0,-1,-.3,-1,-.9c0,-.4,.3,-1,.7,-1.7c.3,-.4,.5,-.7,.7,-.9c.2,-.2,.4,-.3,.6,-.3l.1,.1c.8,.9,1.6,1.6,2.4,1.9c.8,.3,1.8,.5,3.1,.5c-.5,1.2,-.8,2.5,-.8,3.6c0,.9,.1,1.8,.3,2.6c.1,.8,.4,1.6,.7,2.4l1.1,.3c-.6,-1.3,-.9,-2.5,-.9,-3.4c0,-1.2,.2,-2.3,.5,-3.3c.4,-.9,.9,-1.7,1.5,-2.3L388,136.7c-.3,.2,-.8,.3,-1.3,.4c-.5,.1,-1.1,.1,-1.7,.1c-.2,0,-.3,0,-.6,-.1c-.2,-.1,-.4,-.1,-.7,-.3c-.2,-.1,-.4,-.2,-.6,-.3c-.1,-.2,-.2,-.3,-.2,-.5c0,-.2,.1,-.4,.3,-.5c.3,-.2,.5,-.3,.7,-.3h6.8L389.5,134Zm5.8,1.2L394.1,134H393c-.3,-.4,-.6,-1,-.7,-1.9l-.5,-.3c0,.2,0,.5,.1,.9c0,.3,0,.7,0,1.2c.1,.5,.1,.9,.1,1.3c0,.3,0,.6,0,.9c-.2,-.8,-.5,-1.3,-.9,-1.6c-.4,-.3,-1,-.5,-1.7,-.5H388l1.2,1.2c.3,0,.7,.1,1,.2c.3,.1,.6,.3,.9,.5c.2,.2,.4,.4,.5,.7c.2,.3,.3,.7,.3,1v8.9l1.1,1.2V135.2h2.3Zm11.1,0L405.2,134H393.5l1.2,1.2h8.4v6.6c-1.3,-2.6,-2.8,-4,-4.5,-4c-.8,0,-1.5,.3,-2.1,.9c-.5,.5,-.8,1.2,-.8,2c0,1.5,.7,2.2,2.3,2.2c.5,0,.9,-.2,1.2,-.5c.3,-.4,.4,-.8,.4,-1.3c0,-.3,-.2,-.8,-.8,-1.5c.1,-.1,.2,-.1,.4,-.1c1.2,0,2.4,.8,3.3,2.5c.7,1.4,1,2.9,.9,4.2v1.3l.9,.6V135.2h2.1Zm4.6,0L409.8,134h-1c-.4,-.4,-.7,-1,-.8,-1.9l-.4,-.3c0,.2,0,.5,0,.9c0,.3,0,.7,.1,1.2c0,.5,0,.9,0,1.3c.1,.3,.1,.6,.1,.9c-.3,-.8,-.6,-1.3,-1,-1.6c-.4,-.3,-1,-.5,-1.7,-.5h-1.4l1.2,1.2c.4,0,.7,.1,1,.2c.4,.1,.6,.3,.9,.5c.2,.2,.4,.4,.6,.7c.1,.3,.2,.7,.2,1v8.9l1.2,1.2V135.2H411Zm10.3,0L420.1,134h-.6c0,-1.1,-.2,-2,-.7,-2.6c-.5,-.6,-1.3,-.9,-2.4,-.9c-.3,0,-.8,.1,-1.5,.1c-.3,.1,-.6,.1,-.8,.1c-.3,0,-.5,0,-.7,0c-.5,0,-.9,-.1,-1.3,-.3c-.4,-.2,-.6,-.6,-.6,-1.1c0,-.2,.1,-.4,.3,-.6c0,-.1,0,-.2,0,-.2c0,-.1,-.1,-.2,-.1,-.2c-.5,0,-.8,.5,-.8,1.4c0,.9,.4,1.6,1.2,2c.8,.5,1.6,.7,2.6,.7c.1,0,.2,0,.4,0c.2,-.1,.4,-.1,.6,-.1c.5,-.1,.9,-.1,1.1,-.1c1.1,0,1.6,.3,1.5,1c0,.2,0,.3,0,.4c0,.2,0,.3,0,.4h-9.1l1.1,1.2h1.9v8c.2,.9,.5,1.6,.9,2c.5,.5,1.1,.7,1.9,.7c1.1,0,2.2,-.6,3.2,-1.8c1,-1.2,1.5,-2.3,1.5,-3.5c0,-.4,-.1,-.7,-.2,-1.1c0,-.3,-.2,-.6,-.3,-.9c-.5,-.7,-1,-1,-1.7,-1c-.5,0,-.8,.2,-1.1,.5c-.3,.3,-.4,.7,-.4,1.1c0,.4,.1,.8,.4,1c.4,.3,.7,.4,1.1,.4h.4c-.1,.8,-.5,1.6,-1.1,2.5c-.8,.8,-1.5,1.3,-2.2,1.3c-.5,0,-.9,-.3,-1.2,-.8v-8.4h7.9Zm4.7,0L424.8,134h-1.1c-.3,-.4,-.6,-1,-.7,-1.9l-.5,-.3c0,.2,.1,.5,.1,.9c0,.3,0,.7,0,1.2c.1,.5,.1,.9,.1,1.3c0,.3,0,.6,0,.9c-.2,-.8,-.5,-1.3,-.9,-1.6c-.4,-.3,-1,-.5,-1.7,-.5h-1.4l1.2,1.2c.4,0,.7,.1,1,.2c.3,.1,.6,.3,.9,.5c.2,.2,.4,.4,.6,.7c.1,.3,.2,.7,.2,1v8.9l1.1,1.2V135.2H426ZM442.9,134l-.9,2.7c-.1,-.3,-.3,-.6,-.5,-.9c-.2,-.3,-.5,-.6,-.7,-.8c-.3,-.2,-.6,-.4,-1,-.5c-.3,-.1,-.6,-.1,-1,-.1c-.6,0,-1.3,.3,-1.9,.8c-.6,.6,-.9,1.3,-.9,1.9c0,.7,.3,1.1,.9,1.1c.2,0,.4,-.1,.5,-.1c.2,-.1,.4,-.1,.6,-.2c.2,-.1,.4,-.1,.6,-.2c.2,0,.3,-.1,.4,-.1c.3,0,.4,.1,.4,.3c-.1,.4,-.5,.8,-1,1.3c-.1,.1,-.3,.2,-.5,.4c-.2,.2,-.5,.3,-.8,.5l1.5,1.3c1.4,-1.2,2.1,-2.2,2.1,-3.1c0,-.4,-.2,-.8,-.7,-1.2c-.4,-.3,-.8,-.4,-1.3,-.4c-.3,0,-.6,.1,-1,.2c.4,-.7,1,-1,1.9,-1c.7,0,1.2,.3,1.6,.8c.4,.5,.7,1.2,.8,2.1l1.3,-1.9c.3,.1,.6,.6,.9,1.2c.3,.7,.4,1.2,.4,1.6c0,.3,-.2,.5,-.6,.8c0,0,-.1,0,-.1,-.1c-.1,0,-.3,-.1,-.4,-.2c-.2,0,-.5,0,-.7,0c-.5,0,-.8,.1,-1.1,.4c-.2,.3,-.3,.6,-.3,1c0,.4,.2,.7,.5,1.1c.3,.3,.7,.4,1.1,.4c.3,0,.7,-.1,1,-.3c0,0,0,.1,0,.2v.2c0,.2,0,.4,-.2,.6c-.1,.2,-.2,.4,-.4,.5c-.3,.1,-.5,.2,-.7,.2c-.3,.1,-.6,.1,-.8,.1c-2,0,-3.7,-1,-5,-3c-.4,-.8,-.8,-1.6,-1.2,-2.6c-.4,-1,-.7,-2.1,-.9,-3.2l-.9,-.5c.2,1.3,.5,2.6,.8,3.8c.4,1.2,.9,2.3,1.4,3.3c.7,1.3,1.6,2.3,2.5,3c1,.8,2,1.1,3.1,1.1c1,0,1.7,-.2,2.3,-.7c.6,-.5,.8,-1.2,.8,-2.1c0,-.6,-.2,-1.2,-.6,-1.8c.9,-.6,1.4,-1.2,1.4,-1.7c0,-.9,-.9,-3,-2.7,-6.2Zm15.1,1.2L456.8,134H445l1.2,1.2h8.2v.9c-2.6,.8,-5,2.1,-7.4,3.7l1.6,2.3c1.7,.1,3,.7,4,1.6c.3,.3,.6,.6,1,1c.3,.4,.5,.8,.7,1c.1,.3,.3,.7,.5,1.3l.7,.8V135.2H458Zm-3.6,9.4c-1.1,-1.8,-2.7,-3.2,-4.9,-4.1c.9,-.6,1.7,-1.1,2.5,-1.5c.8,-.4,1.6,-.7,2.4,-1v6.6Zm-4.7,1.7c.2,.3,.5,.4,.8,.4c.4,0,.7,-.1,.9,-.4c.2,-.2,.4,-.5,.4,-.8c0,-.4,-.2,-.7,-.4,-.9c-.2,-.3,-.5,-.4,-.9,-.4c-.3,0,-.6,.1,-.8,.4c-.3,.2,-.4,.5,-.4,.9c0,.3,.1,.6,.4,.8ZM461.5,134h-5.2l1.2,1.2h5.2L461.5,134Zm-1,4.4c-.5,-.6,-1.1,-.9,-1.8,-.9c-.4,0,-.8,.1,-1.2,.4c-.4,.3,-.7,.7,-.7,1.2c0,.2,.1,.5,.3,.7c.2,.3,.4,.5,.7,.5c.3,0,.6,-.1,1,-.3c.3,-.2,.4,-.5,.4,-.8c0,-.2,0,-.4,-.1,-.7c.6,.4,.9,.9,.9,1.5c0,.4,-.2,.7,-.4,1.1c-.3,.3,-.7,.5,-1.1,.5c-1,0,-2.1,-.9,-3.2,-2.5v1.1c.8,.9,1.5,1.5,2.1,1.9c.7,.4,1.2,.7,1.6,.7c.4,0,.6,-.1,.9,-.2c.3,-.2,.5,-.3,.7,-.6c.2,-.2,.3,-.5,.4,-.7c.1,-.3,.2,-.6,.2,-1c0,-.7,-.3,-1.3,-.7,-1.9Zm11.9,5.5c0,-.1,-.1,-.3,-.4,-.7c-.2,-.2,-.5,-.4,-.6,-.5c-.7,.4,-1.5,.9,-2.3,1.4c-.8,.6,-1.6,1.1,-2.4,1.7l1.1,1.4c.5,0,.9,.1,1.3,.2c.4,.1,.8,.2,1,.4c.3,.3,.7,.7,1.1,1.3c.4,.6,.8,1,1.2,1.2v-6.4Zm-1.1,4.3c-.8,-1.1,-1.7,-1.8,-2.8,-2c.6,-.4,1.2,-.7,1.6,-1.1c.5,-.3,.9,-.5,1.2,-.7v3.8ZM474.1,134H460.9l1.1,1.2h13.3L474.1,134Zm-.3,5.2c-.2,-.5,-.5,-1.1,-.8,-1.5c-.5,-.6,-1,-1,-1.6,-1.2c-.5,-.3,-1.1,-.4,-1.8,-.4c-.7,0,-1.3,.2,-1.9,.6c-.6,.6,-.8,1.1,-.8,1.8c0,.3,0,.6,.1,.8c.1,.3,.2,.6,.4,.8c.2,.2,.4,.4,.7,.5c.2,.1,.5,.2,.8,.2c1.1,0,1.8,-.6,1.8,-1.7c0,-.5,-.2,-.9,-.6,-1.1c.4,-.1,.7,-.2,.9,-.2c.6,0,1,.2,1.4,.7c.3,.4,.5,1,.5,1.6c0,.9,-.4,1.7,-1,2.2c-.7,.5,-1.4,.7,-2.2,.7c-1.5,0,-2.9,-.8,-4,-2.4c-.2,-.4,-.5,-1,-.9,-1.7c-.4,-.8,-.8,-1.7,-1.3,-2.8l-.8,-.3c.8,2.9,1.8,5.1,3,6.7c1.2,1.6,2.5,2.4,3.9,2.4c1.1,0,2.1,-.4,3,-1.2c.8,-.7,1.3,-1.6,1.4,-2.8c0,-.6,0,-1.1,-.2,-1.7Zm14.8,-4L487.4,134c-.1,0,-.3,0,-.4,0c-.4,0,-.7,-.2,-.9,-.6c-.1,-.2,-.1,-.6,-.2,-1.2l-.5,-.5c0,1.1,.1,2.2,.1,3.2c.1,1.1,.1,2.1,.2,3.2h-.1c-1.5,-2.6,-3.1,-3.9,-4.9,-3.9c-.4,0,-.9,.1,-1.4,.3c-.5,.1,-1.1,.4,-1.6,.7c-.5,.4,-1,.8,-1.3,1.2c-.3,.4,-.4,.9,-.4,1.3c0,.2,.1,.5,.3,.7c.2,.2,.4,.3,.6,.3c.2,0,.5,-.1,.9,-.3c.2,-.1,.3,-.1,.5,-.2c.1,0,.2,0,.3,0c.5,0,.8,.4,.8,1.2c0,.5,-.5,1.1,-1.3,1.9l1.7,.6l4.2,-4.2c.2,.1,.3,.2,.5,.4c.1,.2,.3,.4,.5,.6c.1,.3,.2,.5,.3,.7c.1,.3,.2,.5,.2,.6l-.2,6.4l1.3,1.3V135.2h2Zm-8.5,4.2c0,-.7,-.1,-1.2,-.4,-1.6c-.3,-.5,-.7,-.7,-1.4,-.7c.6,-1.1,1.5,-1.6,2.8,-1.6c.7,0,1.4,.3,1.9,.9l-2.9,3Zm10.5,12.8l-3.5,-3.1c-.5,.4,-.9,.6,-1.3,.7c-.4,.1,-.7,.1,-1,.1c-.3,0,-.6,-.1,-.7,-.2c-.2,-.2,-.2,-.3,-.3,-.5c0,-.5,.2,-.8,.7,-1.1c.3,-.1,.5,-.1,.6,-.2c.2,0,.4,0,.7,0c.2,0,.4,.1,.6,.2c.2,-.8,.2,-1.3,.2,-1.5c-.1,-.1,-.3,-.3,-.4,-.5c-.1,-.2,-.3,-.4,-.4,-.5l-.1,1.4c-.2,0,-.5,-.1,-.7,-.1c-.7,0,-1.2,.2,-1.7,.6c-.2,.2,-.4,.4,-.6,.7c-.1,.3,-.1,.5,-.1,.9c0,.6,.2,1.1,.6,1.5c.5,.5,1,.7,1.6,.7c.8,0,1.6,-.3,2.4,-.8l3.4,2.9v-1.2Zm8.9,-17L498.3,134c-.5,0,-.8,-.1,-1.1,-.4c-.2,-.3,-.3,-.8,-.3,-1.4l-.6,-.5v5.5h-.1c-.2,-.9,-.6,-1.6,-1.2,-2.2c-.7,-.7,-1.4,-1.1,-2.3,-1.1c-1.1,0,-2,.5,-2.8,1.3c-.3,.4,-.6,.8,-.8,1.3c-.1,.5,-.2,1,-.2,1.6c0,.9,.3,1.8,.9,2.5c.7,.6,1.4,1,2.4,1c.2,0,.5,-.1,.8,-.1c.2,-.1,.4,-.2,.6,-.4c.2,-.1,.4,-.3,.5,-.5c.1,-.2,.2,-.5,.2,-.7c0,-.4,-.2,-.7,-.4,-1c-.3,-.3,-.6,-.5,-1,-.5c-.8,.1,-1.1,.4,-1.2,1c0,.1,0,.3,.1,.3c0,.1,0,.2,0,.3q.1,.1,.1,.2q-.1,0,-.2,0c-.4,0,-.7,-.3,-.9,-.8c-.1,-.2,-.2,-.4,-.2,-.6c-.1,-.2,-.1,-.5,-.1,-.7c0,-.7,.2,-1.2,.7,-1.7c.4,-.5,1,-.7,1.6,-.7c1,0,1.8,.4,2.4,1.2c.6,.8,.9,1.6,.9,2.6v6.8l1.3,1.4V135.2h2.1Zm2,-7.3h-1l-7,5h2.9l5.1,-5Z" class="go_214"/>
<g clip-path="url(#c0_214)">
<path d="M1877,177.2H32.1v-5.4H768.7c43.1,0,53,-37.9,115.3,-37.9h993Z" class="gp_214"/>
<path d="M1877,183.7H32.1v-9.8H768.7c43.1,0,53,-33.6,115.3,-33.6h993Z" class="gq_214"/>
</g>
<image clip-path="url(#ci_214)" preserveAspectRatio="none" x="125" y="206" width="734" height="181" xlink:href="img/9.png"/>
<path d="M144.6,231.3c0,0,-13,0,-13,13v117c0,0,0,13,13,13H833.1c0,0,13,0,13,-13v-130Z" class="gr_214"/>
<path d="M147.7,294.1l54.1,40.8l54.1,-40.8V230h8.7V211.9H155.8c-6.5,.4,-7.7,3.9,-8.2,8.4Z" class="gs_214"/>
<path d="M274,220.3c-.3,-4.7,-4.2,-8.4,-9,-8.4c-4.8,0,-8.7,3.7,-9,8.4h-.1V230h18.2v-9.7Z" class="gj_214"/>
<path d="M255.9,230.6H846.1" class="gt_214"/>
<path d="M32.1,45.1H9.2m958.3,0h22.9M32.1,1331.3H9.2m958.3,0h22.9M45.1,32.1V9.2m0,1335.1v22.9M954.5,32.1V9.2m0,1335.1v22.9" class="gu_214"/>
<path d="M32.1,45.1H9.2m958.3,0h22.9M32.1,1331.3H9.2m958.3,0h22.9M45.1,32.1V9.2m0,1335.1v22.9M954.5,32.1V9.2m0,1335.1v22.9" class="gv_214"/>
<path d="M27.5,32.1H0m972.1,0h27.5M27.5,1344.3H0m972.1,0h27.5M32.1,27.5V0m0,1348.9v27.5M967.5,27.5V0m0,1348.9v27.5" class="gu_214"/>
<path d="M27.5,32.1H0m972.1,0h27.5M27.5,1344.3H0m972.1,0h27.5M32.1,27.5V0m0,1348.9v27.5M967.5,27.5V0m0,1348.9v27.5" class="gv_214"/>
</svg>