<?xml version="1.0" encoding="UTF-8" standalone="no"?>
<!DOCTYPE svg PUBLIC "-//W3C//DTD SVG 1.1//EN"
"http://www.w3.org/Graphics/SVG/1.1/DTD/svg11.dtd">
<svg viewBox="0 0 999 1376" version="1.1" xmlns="http://www.w3.org/2000/svg" xmlns:xlink="http://www.w3.org/1999/xlink">
<defs>
<clipPath id="c0_260"><path d="M32.1,1344.3V32.1H967.5V1344.3Z"/></clipPath>
<clipPath id="c1_260"><path d="M186.7,756.3l-6.5,-2.1l-16.4,-14V683.1h72v73.2Z"/></clipPath>
<clipPath id="c2_260"><path d="M183.4,291.5l-6.5,-2.1l-16.4,-14V218.3h71.9v73.2Z"/></clipPath>
<clipPath id="c3_260"><path d="M560.7,950.1V821h82.5V950.1Z"/></clipPath>
<clipPath id="c4_260"><path d="M213.9,942.5V821.8h76.4V942.5Z"/></clipPath>
<style type="text/css"><![CDATA[
.g0_260{
fill: #FEFCF4;
}
.g1_260{
fill: #F16865;
}
.g2_260{
fill: #FAC3B8;
}
.g3_260{
fill: #EE314A;
}
.g4_260{
fill: #26292E;
}
.g5_260{
fill: #C5CACC;
}
.g6_260{
fill: #FFF;
}
.g7_260{
fill: #F1EBEB;
}
.g8_260{
fill: #F7943B;
}
.g9_260{
fill: #ACB5B9;
}
.ga_260{
fill: #CFD3D5;
}
.gb_260{
fill: #FCE8B0;
}
.gc_260{
fill: none;
stroke: #6381B7;
stroke-width: 0.763;
}
.gd_260{
fill: #E3E7F2;
}
.ge_260{
fill: none;
stroke: #231F20;
stroke-width: 0.458;
stroke-miterlimit: 10;
}
.gf_260{
fill: #ECE2EF;
}
.gg_260{
fill: none;
stroke: #A164A9;
stroke-width: 1.527;
}
.gh_260{
fill: none;
stroke: #231F20;
stroke-width: 0.305;
stroke-miterlimit: 10;
}
.gi_260{
fill: #6381B7;
}
.gj_260{
fill: none;
stroke: #6381B7;
stroke-width: 0.381;
stroke-dasharray: 2,1;
}
.gk_260{
fill: none;
stroke: #6381B7;
stroke-width: 0.381;
}
.gl_260{
fill: none;
stroke: #FFF;
stroke-width: 1.909;
stroke-miterlimit: 10;
}
.gm_260{
fill: none;
stroke: #000;
stroke-width: 0.381;
stroke-miterlimit: 10;
}
]]></style>
</defs>
<path d="M32.1,1344.3H954.5V32.1H32.1V1344.3Z" class="g0_260"/>
<g clip-path="url(#c0_260)">
<path d="M954.5,1344.3H1877V32.1H954.5V1344.3Z" class="g0_260"/>
<path d="M1777.4,166.7c0,0,30.3,0,30.3,-30.3v-4.3c0,0,0,-30.3,-30.3,-30.3H173.9c0,0,-30.3,0,-30.3,30.3v4.3c0,0,0,30.3,30.3,30.3Z" class="g1_260"/>
</g>
<path d="M186.5,132.1c0,27.1,-22,49,-49.1,49c-27,0,-49,-21.9,-49,-49c0,-27.1,22,-49.1,49,-49.1c27.1,0,49.1,22,49.1,49.1Z" class="g2_260"/>
<path d="M178.1,104.6c15.2,22.5,9.2,53,-13.2,68.1c-22.5,15.2,-53,9.3,-68.1,-13.2Z" class="g3_260"/>
<path d="M96.8,159.5h81.3V104.7H96.8v54.8Z" class="g4_260"/>
<path d="M137.7,156.8h16.8V136.6H137.7v20.2Z" class="g5_260"/>
<path d="M143.1,156.8h33.7V102.6H143.1v54.2Z" class="g5_260"/>
<path d="M141.6,103v50c.5,-.3,1,-.4,1.5,-.4h33.7v-50H143.1c-.5,0,-1,.2,-1.5,.4Z" class="g6_260"/>
<path d="M137.7,109v47.8c0,0,2.5,-3.1,3.9,-3.8V103c-2.2,1.1,-3.9,4.3,-3.9,6Z" class="g7_260"/>
<path d="M143.5,112.3h29.1v-1.4H143.5v1.4Z" class="g5_260"/>
<path d="M143.5,115.5h29.1v-1.4H143.5v1.4Z" class="g5_260"/>
<path d="M143.5,118.8h29.1v-1.5H143.5v1.5Z" class="g5_260"/>
<path d="M143.5,122h29.1v-1.5H143.5V122Z" class="g5_260"/>
<path d="M143.5,125.2h29.1v-1.5H143.5v1.5Z" class="g5_260"/>
<path d="M143.5,128.4h29.1v-1.5H143.5v1.5Z" class="g5_260"/>
<path d="M143.5,131.6h29.1v-1.5H143.5v1.5Z" class="g5_260"/>
<path d="M143.5,134.8h29.1v-1.5H143.5v1.5Z" class="g5_260"/>
<path d="M143.5,138h29.1v-1.4H143.5V138Z" class="g5_260"/>
<path d="M143.5,141.2h29.1v-1.4H143.5v1.4Z" class="g5_260"/>
<path d="M143.5,144.4h29.1V143H143.5v1.4Z" class="g5_260"/>
<path d="M143.5,147.6h29.1v-1.4H143.5v1.4Z" class="g5_260"/>
<path d="M159.7,150.9l1,-.9l1,.9v-49h-2Z" class="g8_260"/>
<path d="M120.9,156.8h16.8V136.6H120.9v20.2Z" class="g9_260"/>
<path d="M98.6,156.8h33.6V102.6H98.6v54.2Z" class="g9_260"/>
<path d="M98.6,102.6v50h33.6c.6,0,1.1,.1,1.6,.4V103c-.5,-.2,-1,-.4,-1.6,-.4Z" class="g6_260"/>
<path d="M133.8,103v50c1.4,.7,3.9,3.8,3.9,3.8V109c0,-1.7,-1.7,-4.9,-3.9,-6Z" class="ga_260"/>
<path d="M109.7,112.3h14.5v-1.4H109.7v1.4Z" class="g5_260"/>
<path d="M102.8,118.8h29.1v-1.5H102.8v1.5Z" class="g5_260"/>
<path d="M102.8,122h29.1v-1.5H102.8V122Z" class="g5_260"/>
<path d="M102.8,125.2h29.1v-1.5H102.8v1.5Z" class="g5_260"/>
<path d="M102.8,128.4h29.1v-1.5H102.8v1.5Z" class="g5_260"/>
<path d="M102.8,131.6h29.1v-1.5H102.8v1.5Z" class="g5_260"/>
<path d="M102.8,134.8h29.1v-1.5H102.8v1.5Z" class="g5_260"/>
<path d="M102.8,138h29.1v-1.4H102.8V138Z" class="g5_260"/>
<path d="M102.8,141.2h29.1v-1.4H102.8v1.4Z" class="g5_260"/>
<path d="M102.8,144.4h29.1V143H102.8v1.4Z" class="g5_260"/>
<path d="M102.8,147.6h29.1v-1.4H102.8v1.4Z" class="g5_260"/>
<path d="M219.3,685.3c0,0,-13,0,-13,13v47.6c0,0,0,13,13,13H834c0,0,13,0,13,-13V698.3c0,0,0,-13,-13,-13Z" class="gb_260"/>
<image clip-path="url(#c1_260)" preserveAspectRatio="none" x="162" y="682" width="75" height="76" xlink:href="img/1.png"/>
<path d="M214.1,751.6c0,0,-26.8,11.3,-51.1,-12.8c0,0,15.2,25.3,49.3,24c0,0,24.7,.3,20.2,-10.2c0,0,1.3,-4.4,-18.4,-1Z" class="gb_260"/>
<path d="M216,220.5c0,0,-13,0,-13,13v47.6c0,0,0,13,13,13H830.7c0,0,13,0,13,-13V233.5c0,0,0,-13,-13,-13Z" class="gb_260"/>
<image clip-path="url(#c2_260)" preserveAspectRatio="none" x="159" y="217" width="75" height="76" xlink:href="img/2.png"/>
<path d="M210.8,286.8c0,0,-26.9,11.3,-51.1,-12.8c0,0,15.1,25.3,49.3,24c0,0,24.7,.3,20.2,-10.1c0,0,1.2,-4.5,-18.4,-1.1Z" class="gb_260"/>
<path d="M144.8,309.8c0,0,-13,0,-13,13V604.2c0,0,0,13,13,13H833.1c0,0,13,0,13,-13V322.8c0,0,0,-13,-13,-13Z" class="g6_260"/>
<path d="M144.8,309.8c0,0,-13,0,-13,13V604.2c0,0,0,13,13,13H833.1c0,0,13,0,13,-13V322.8c0,0,0,-13,-13,-13H144.8Z" class="gc_260"/>
<path d="M198.8,427H805.1V366.4H198.8V427Z" class="gd_260"/>
<path d="M442.8,388.8h97.5" class="ge_260"/>
<path d="M198.8,547.1H805.1V486.4H198.8v60.7Z" class="gd_260"/>
<path d="M447.2,512.2h88.6" class="ge_260"/>
<path d="M140.5,769c0,0,-8.7,0,-8.7,7.3v414.5c0,0,0,7.3,8.7,7.3h697c0,0,8.6,0,8.6,-7.3V776.3c0,0,0,-7.3,-8.6,-7.3Z" class="g6_260"/>
<path d="M140.5,769c0,0,-8.7,0,-8.7,7.3v414.5c0,0,0,7.3,8.7,7.3h697c0,0,8.6,0,8.6,-7.3V776.3c0,0,0,-7.3,-8.6,-7.3h-697Z" class="gc_260"/>
<image clip-path="url(#c3_260)" preserveAspectRatio="none" x="549" y="821" width="95" height="132" xlink:href="img/3.jpg"/>
<image clip-path="url(#c4_260)" preserveAspectRatio="none" x="213" y="819" width="92" height="123" xlink:href="img/4.jpg"/>
<path d="M198.4,1019.4c0,0,-8.7,0,-8.7,8.6v140.7c0,0,0,8.6,8.7,8.6H446.3c0,0,8.7,0,8.7,-8.6V1028c0,0,0,-8.6,-8.7,-8.6Z" class="gf_260"/>
<path d="M198.4,1019.4c0,0,-8.7,0,-8.7,8.6v140.7c0,0,0,8.6,8.7,8.6H446.3c0,0,8.7,0,8.7,-8.6V1028c0,0,0,-8.6,-8.7,-8.6H198.4Z" class="gg_260"/>
<path d="M345.8,997.2h28.4" class="gh_260"/>
<path d="M608,1216.2c0,0,-4.3,0,-4.3,4.3v10.8c0,0,0,4.3,4.3,4.3h30.3c0,0,4.4,0,4.4,-4.3v-10.8c0,0,0,-4.3,-4.4,-4.3Z" class="gi_260"/>
<path d="M594.8,1208.7v34.8m1.4,1H844.7m.9,-1.4v-34.8m-1.3,-1H595.8" class="gj_260"/>
<path d="M594.8,1243.9v.6h.6m249.7,0h.5v-.6m0,-36v-.6h-.5m-249.7,0h-.6v.6" class="gk_260"/>
<path d="M32.1,45.1H9.2m958.3,0h22.9M32.1,1331.3H9.2m958.3,0h22.9M45.1,32.1V9.2m0,1335.1v22.9M954.5,32.1V9.2m0,1335.1v22.9" class="gl_260"/>
<path d="M32.1,45.1H9.2m958.3,0h22.9M32.1,1331.3H9.2m958.3,0h22.9M45.1,32.1V9.2m0,1335.1v22.9M954.5,32.1V9.2m0,1335.1v22.9" class="gm_260"/>
<path d="M27.5,32.1H0m972.1,0h27.5M27.5,1344.3H0m972.1,0h27.5M32.1,27.5V0m0,1348.9v27.5M967.5,27.5V0m0,1348.9v27.5" class="gl_260"/>
<path d="M27.5,32.1H0m972.1,0h27.5M27.5,1344.3H0m972.1,0h27.5M32.1,27.5V0m0,1348.9v27.5M967.5,27.5V0m0,1348.9v27.5" class="gm_260"/>
</svg>