<?xml version="1.0" encoding="UTF-8" standalone="no"?>
<!DOCTYPE svg PUBLIC "-//W3C//DTD SVG 1.1//EN"
"http://www.w3.org/Graphics/SVG/1.1/DTD/svg11.dtd">
<svg viewBox="0 0 999 1376" version="1.1" xmlns="http://www.w3.org/2000/svg" xmlns:xlink="http://www.w3.org/1999/xlink">
<defs>
<clipPath id="c0_97"><path d="M715.6,875.7V569.9H924V875.7Z"/></clipPath>
<clipPath id="c1_97"><path d="M709.3,877.5V565.1H931V877.5Z"/></clipPath>
<clipPath id="c2_97"><path d="M709,877.2V564.8H930.7V877.2Z"/></clipPath>
<clipPath id="c3_97"><path d="M73.5,887.7V625.3H291.3V887.7Z"/></clipPath>
<clipPath id="c4_97"><path d="M73.4,885.7V624.4H292.3V885.7Z"/></clipPath>
<clipPath id="c5_97"><path d="M73.1,885.4V624.1H292V885.4Z"/></clipPath>
<clipPath id="c6_97"><path d="M198.7,242.1L192.2,240L175.8,226V168.9h72v73.2Z"/></clipPath>
<clipPath id="c7_97"><path d="M199.2,1058.2l-6.5,-2.1l-16.4,-14v-57h72v73.1Z"/></clipPath>
<clipPath id="c8_97"><path d="M786.5,132.5V120.1H801v12.4Z"/></clipPath>
<clipPath id="c9_97"><path d="M176.6,640.2c-.3,-.1,3.5,-8.2,3.5,-8.2l.8,.5c0,0,-4,7.7,-4.3,7.7Z"/></clipPath>
<clipPath id="ca_97"><path d="M184.1,632.5c0,0,-6.9,-1.1,-7.6,-5.2c-.6,-3.6,1.5,-3.9,2.1,-3.9q.1,0,.1,0L187,610.7l-1.4,-3.1c0,0,-.6,-1.1,.1,-2.1c.1,0,.2,-.1,.3,-.1c2.1,0,13,5.6,13,5.6v.1c-.3,.6,-.7,1.2,-1.4,1.7c-.6,.5,-5.1,1.1,-5.1,1.1l-8.4,18.6Z"/></clipPath>
<clipPath id="cb_97"><path d="M183.7,632.1c.2,-.4,.2,-1.8,0,-2.2v-1.4c-1.6,-.5,-2.9,-1.2,-3.7,-2.5c-1.1,.6,-2.1,1.2,-3.1,1.9c1.5,2.1,3.8,3.5,6.8,4.2Zm0,-3.9c2.2,-4.5,4,-9.5,6.1,-14c-.8,-.4,-1.8,-1.4,-2.6,-1.4c-2.3,4.3,-4.6,8.6,-7,12.8c.7,1.3,2.1,2,3.5,2.6Zm-7.3,12.1c1,-2.9,2.4,-5.5,3.5,-8.3c-2,-1.5,-3.9,-3.1,-4.4,-6.1v-1.6c0,-2.7,1.9,-3.3,4.6,-3.3c0,0,.1,0,.2,0c1.9,-3.4,4.2,-6.4,6.1,-9.7c-.5,-.9,-1.1,-2.4,-.8,-3.7c.5,1.3,1.6,1.9,2.3,2.9c-.1,.6,-.2,1.2,-.3,1.8c.6,.6,1.3,1.2,2.4,1.4c.4,-.5,.5,-1.3,1.1,-1.5c.9,.3,1.8,.7,3.1,.7c.2,.1,.5,.2,.8,.2c.4,0,.7,-.1,.9,-.2c.1,0,.2,.1,.3,.1c.2,0,.4,-.1,.6,-.2c.2,0,.3,-.1,.5,-.1c.1,0,.2,0,.3,.1c-1.3,.6,-2.2,1.8,-4.1,1.8c-.2,0,-.3,0,-.4,-.1c-.9,3.8,-1.9,7.4,-2.6,11.2c.5,1.1,1.5,1.7,1.2,3.2c-.4,2.7,-3.8,4.4,-7.2,4.4c-1.2,0,-2.5,-.3,-3.6,-.8c-1,2.1,-2.1,4.1,-3.3,6c0,-.3,.3,-.3,.3,-.7c1,-1.8,1.9,-3.6,2.6,-5.7c-1,1.7,-1.8,3.7,-2.7,5.6c-.2,.4,-.5,.8,-.7,1.2c-.3,.4,-.3,1.2,-.7,1.4Z"/></clipPath>
<clipPath id="cc_97"><path d="M194.1,612.5c-4.8,0,-13.1,-7.3,-5.5,-8.8h1.2c.2,.1,.3,.1,.5,.1c.1,0,.2,0,.2,0c.3,0,.7,0,1.1,.1c3.1,.6,8.2,3.8,7.5,7c-.2,1.1,-1.5,1.6,-3.1,1.6h-1.9Z"/></clipPath>
<clipPath id="cd_97"><path d="M835,581.2c-.3,-.1,3.5,-8.2,3.5,-8.2l.8,.5c0,0,-4,7.7,-4.3,7.7Z"/></clipPath>
<clipPath id="ce_97"><path d="M842.5,573.5c0,0,-6.9,-1.1,-7.6,-5.2c-.6,-3.6,1.5,-3.9,2.1,-3.9q.1,0,.1,0l8.3,-12.7L844,548.6c0,0,-.6,-1.1,.1,-2.1c.1,0,.2,-.1,.3,-.1c2.1,0,13,5.6,13,5.6v.1c-.3,.6,-.7,1.2,-1.4,1.7c-.6,.5,-5.1,1.1,-5.1,1.1l-8.4,18.6Z"/></clipPath>
<clipPath id="cf_97"><path d="M842.1,573.1c.2,-.4,.2,-1.8,0,-2.2v-1.4c-1.5,-.5,-2.9,-1.2,-3.7,-2.5c-1.1,.6,-2.1,1.2,-3.1,1.9c1.5,2.1,3.8,3.5,6.8,4.2Zm0,-3.9c2.2,-4.5,4,-9.5,6.1,-14c-.8,-.4,-1.8,-1.4,-2.6,-1.4c-2.3,4.3,-4.6,8.6,-7,12.8c.7,1.3,2.1,2,3.5,2.6Zm-7.3,12.1c1,-2.9,2.4,-5.5,3.5,-8.3c-2,-1.5,-3.9,-3.1,-4.4,-6.2v-1.5c0,-2.7,1.9,-3.4,4.6,-3.4q.1,0,.2,0c1.9,-3.3,4.2,-6.3,6.1,-9.6c-.5,-.9,-1.1,-2.4,-.8,-3.7c.5,1.3,1.6,1.9,2.4,2.9c-.2,.6,-.3,1.2,-.4,1.8c.6,.6,1.3,1.2,2.4,1.4c.4,-.5,.5,-1.3,1.1,-1.5c.9,.3,1.8,.7,3.1,.7c.2,.1,.5,.2,.9,.2c.3,0,.6,-.1,.8,-.2c.1,0,.2,0,.3,0c.2,0,.4,0,.6,-.1c.2,-.1,.4,-.1,.5,-.1c.1,0,.2,0,.3,.1c-1.3,.6,-2.2,1.7,-4.1,1.7c-.1,0,-.3,0,-.4,0c-.9,3.8,-1.8,7.4,-2.6,11.2c.5,1.1,1.5,1.7,1.2,3.2c-.4,2.7,-3.8,4.4,-7.2,4.4c-1.2,0,-2.5,-.3,-3.6,-.8c-1,2.1,-2,4.1,-3.3,6c0,-.3,.3,-.3,.3,-.7c1,-1.8,1.9,-3.6,2.6,-5.7c-1,1.7,-1.8,3.7,-2.7,5.6c-.2,.4,-.5,.8,-.7,1.2c-.2,.4,-.2,1.1,-.7,1.4Z"/></clipPath>
<clipPath id="cg_97"><path d="M852.5,553.5c-4.8,0,-13.1,-7.3,-5.5,-8.8h1.2c.2,.1,.5,.1,.7,.1q.1,0,.2,0c.2,0,.6,0,.9,.1c3.1,.6,8.2,3.8,7.5,7c-.2,1.1,-1.5,1.6,-3.1,1.6h-1.9Z"/></clipPath>
<style type="text/css"><![CDATA[
.g0_97{
fill: #FEFCF4;
}
.g1_97{
fill: #FFF;
}
.g2_97{
fill: none;
stroke: #6381B7;
stroke-width: 0.763;
}
.g3_97{
fill: none;
stroke: #949698;
stroke-width: 0.305;
stroke-dasharray: 4,4;
}
.g4_97{
fill: #F7C2D9;
}
.g5_97{
fill: none;
stroke: #949698;
stroke-width: 0.305;
stroke-dasharray: 3,3;
}
.g6_97{
fill: none;
stroke: #949698;
stroke-width: 0.305;
}
.g7_97{
fill: #FDF4F3;
}
.g8_97{
fill: #EC008C;
}
.g9_97{
fill: #6D6F71;
}
.ga_97{
fill: #6381B7;
}
.gb_97{
fill: none;
stroke: #6381B7;
stroke-width: 0.381;
stroke-dasharray: 2,1;
}
.gc_97{
fill: none;
stroke: #6381B7;
stroke-width: 0.381;
}
.gd_97{
fill: #818385;
}
.ge_97{
fill: #FCE8B0;
}
.gf_97{
fill: #25408F;
}
.gg_97{
fill: #A8AAAD;
}
.gh_97{
fill: none;
stroke: #949698;
stroke-width: 0.549;
}
.gi_97{
fill: none;
stroke: #BCBEC0;
stroke-width: 2.566;
}
.gj_97{
fill: #231F20;
}
.gk_97{
fill: #363637;
}
.gl_97{
fill: #5CC4BE;
}
.gm_97{
fill: #F0D73F;
}
.gn_97{
fill: none;
stroke: #FFF;
stroke-width: 1.909;
stroke-miterlimit: 10;
}
.go_97{
fill: none;
stroke: #000;
stroke-width: 0.381;
stroke-miterlimit: 10;
}
]]></style>
</defs>
<path d="M45.1,1344.3H967.5V32.1H45.1V1344.3Z" class="g0_97"/>
<path d="M172.1,138.6c0,0,-18.4,0,-18.4,18.4V899.1c0,0,0,18.3,18.4,18.3H849.2c0,0,18.3,0,18.3,-18.3V138.6Z" class="g1_97"/>
<path d="M172.1,138.6c0,0,-18.4,0,-18.4,18.4V899.1c0,0,0,18.3,18.4,18.3H849.2c0,0,18.3,0,18.3,-18.3V138.6H172.1Z" class="g2_97"/>
<path d="M592.9,785.8c0,0,34.7,-142,131.7,-142" class="g3_97"/>
<image clip-path="url(#c0_97)" preserveAspectRatio="none" x="715" y="570" width="209" height="306" xlink:href="img/1.png"/>
<path d="M720.9,576.7l1.4,292.6l195.6,-1.5L916.2,574.9Z" class="g4_97"/>
<path d="M541.7,810.8c27.9,-.6,50.5,-7.3,54.7,-15.9m-.6,-6.8c-1.4,-2.1,-4,-4.1,-7.5,-5.9" class="g5_97"/>
<path d="M581.5,779.3c-10.3,-3.5,-24.9,-5.9,-41.2,-6.1" class="g3_97"/>
<path d="M532.6,773.2c-27.9,.7,-50.5,7.3,-54.7,15.9m.8,7.1c5.8,8.1,28.3,14.2,55.4,14.7" class="g5_97"/>
<path d="M596.9,793.5c.1,-.5,.2,-1,.2,-1.5c0,-.4,-.1,-.9,-.2,-1.4m-9.8,-9c-.4,-.2,-.9,-.4,-1.3,-.6c-.5,-.2,-.9,-.4,-1.4,-.6m-45.7,-7.2c-.5,0,-1,0,-1.5,0c-.6,0,-1.1,0,-1.6,0m-58.2,17.3c-.1,.5,-.2,1,-.2,1.5c0,.5,.1,1,.2,1.5m58.2,17.4c.5,0,1,0,1.6,0c.5,0,1,0,1.5,0" class="g6_97"/>
<image clip-path="url(#c1_97)" preserveAspectRatio="none" x="709" y="566" width="221" height="312" xlink:href="img/2.png"/>
<image clip-path="url(#c2_97)" preserveAspectRatio="none" x="709" y="565" width="221" height="313" xlink:href="img/3.png"/>
<path d="M728.5,569.8L713.9,862.2L875.7,871l34.5,-23.1L924.4,579.6Z" class="g7_97"/>
<path d="M875.7,871l34.5,-23L890,841.6Z" class="g8_97"/>
<path d="M718.7,637.8l.8,8.8l10.9,-5.5Z" class="g9_97"/>
<path d="M476.1,1202.4c0,0,-4.3,0,-4.3,4.4v10.8c0,0,0,4.3,4.3,4.3h30.3c0,0,4.4,0,4.4,-4.3v-10.8c0,0,0,-4.4,-4.4,-4.4Z" class="ga_97"/>
<path d="M462.9,1195v34.8m1.4,1H866.8m.9,-1.4v-34.8m-1.3,-1H463.9" class="gb_97"/>
<path d="M462.9,1230.2v.6h.6m403.6,0h.6v-.6m0,-36v-.6h-.6m-403.6,0h-.6v.6" class="gc_97"/>
<path d="M166.7,968.8c0,0,-13,0,-13,13v192.4c0,0,0,13,13,13H854.5c0,0,13,0,13,-13V981.8c0,0,0,-13,-13,-13Z" class="g1_97"/>
<path d="M166.7,968.8c0,0,-13,0,-13,13v192.4c0,0,0,13,13,13H854.5c0,0,13,0,13,-13V981.8c0,0,0,-13,-13,-13H166.7Z" class="g2_97"/>
<path d="M539.6,783.8c27.9,-.7,50.4,-7.3,54.6,-15.9m-.7,-7.1c-5.9,-8.1,-28.2,-14.2,-55.4,-14.7m-7.5,.1c-27.8,.6,-50.4,7.3,-54.5,15.9m.7,7.1c5.8,8.1,28.2,14.2,55.3,14.6" class="g5_97"/>
<path d="M594.7,766.5c.2,-.5,.2,-1,.2,-1.5c0,-.5,0,-1,-.2,-1.5M536.6,746.1c-.5,0,-1,0,-1.5,0c-.5,0,-1,0,-1.5,0m-58.1,17.4c-.1,.5,-.1,1,-.1,1.5c0,.5,0,1,.1,1.5m58.1,17.3c.5,.1,1,.1,1.5,.1c.5,0,1,0,1.5,-.1" class="g6_97"/>
<image clip-path="url(#c3_97)" preserveAspectRatio="none" x="73" y="625" width="218" height="263" xlink:href="img/4.png"/>
<path d="M85.6,630.5L78.3,876.1l198.8,5.5l8.2,-245.3Z" class="g4_97"/>
<image clip-path="url(#c4_97)" preserveAspectRatio="none" x="73" y="625" width="219" height="261" xlink:href="img/5.png"/>
<image clip-path="url(#c5_97)" preserveAspectRatio="none" x="73" y="625" width="219" height="261" xlink:href="img/6.png"/>
<path d="M77.9,636.1l9.4,242.8l166.5,-6.1L286,844.7L277.5,628.9Z" class="g7_97"/>
<path d="M254.2,872.4l32.2,-28l-20.5,-2.5Z" class="g8_97"/>
<path d="M143.2,636.2l-6.4,-4.3L134.3,642Z" class="gd_97"/>
<path d="M497.6,747.5c-13.5,-24.4,-89.3,-150.7,-209,-148" class="g3_97"/>
<path d="M281.7,600c-5.3,1.1,-1.9,4,1.3,5m5.2,-2.4c.6,-2.7,-1.4,-6.6,-11.1,-7.6" class="g5_97"/>
<path d="M269.8,594.9c-25.4,1,-108.8,13.6,-131,39.9" class="g3_97"/>
<path d="M499.8,751.5c0,0,-.2,-.4,-.7,-1.3M287.1,599.6c-.6,0,-1.1,0,-1.6,0c-.4,0,-.9,0,-1.3,.1m.1,5.6c.4,.1,.9,.1,1.2,.1c.5,-.1,.9,-.3,1.3,-.5m-11,-10c-.5,0,-.9,-.1,-1.4,-.1c-.5,0,-1,0,-1.5,0M137.8,635.9c-.3,.5,-.6,.9,-.9,1.3" class="g6_97"/>
<path d="M231.3,171.1c0,0,-13,0,-13,13v47.6c0,0,0,13,13,13h602c0,0,13,0,13,-13V184.1c0,0,0,-13,-13,-13Z" class="ge_97"/>
<image clip-path="url(#c6_97)" preserveAspectRatio="none" x="174" y="167" width="75" height="77" xlink:href="img/7.png"/>
<path d="M226.1,237.4c0,0,-26.9,11.3,-51.1,-12.8c0,0,15.2,25.3,49.3,24c0,0,24.7,.3,20.2,-10.2c0,0,1.3,-4.4,-18.4,-1Z" class="ge_97"/>
<path d="M231.8,987.2c0,0,-13,0,-13,13v47.6c0,0,0,13,13,13h602c0,0,13,0,13,-13v-47.6c0,0,0,-13,-13,-13Z" class="ge_97"/>
<image clip-path="url(#c7_97)" preserveAspectRatio="none" x="175" y="983" width="75" height="77" xlink:href="img/8.png"/>
<path d="M226.6,1053.5c0,0,-26.8,11.3,-51.1,-12.8c0,0,15.2,25.3,49.3,24c0,0,24.7,.3,20.2,-10.1c0,0,1.3,-4.5,-18.4,-1.1Z" class="ge_97"/>
<path d="M153.3,111.9v39L165,161.2V117Z" class="gf_97"/>
<path d="M153.3,111.9v39H851.1c0,0,16.8,0,16.8,-16.8v-5.3c0,0,0,-16.9,-16.8,-16.9Z" class="ga_97"/>
<path d="M802.6,145.6c8.2,0,14.9,-6.5,14.9,-14.5c0,-8.1,-6.7,-14.5,-14.9,-14.5c-8.2,0,-14.9,6.4,-14.9,14.5c0,8,6.7,14.5,14.9,14.5Z" class="gg_97"/>
<path d="M802.6,145.6c8.2,0,14.9,-6.5,14.9,-14.5c0,-8.1,-6.7,-14.5,-14.9,-14.5c-8.2,0,-14.9,6.4,-14.9,14.5c0,8,6.7,14.5,14.9,14.5Z" class="gh_97"/>
<path d="M802.6,136.4c3,0,5.5,-2.4,5.5,-5.3c0,-3,-2.5,-5.4,-5.5,-5.4c-3,0,-5.5,2.4,-5.5,5.4c0,2.9,2.5,5.3,5.5,5.3Z" class="g1_97"/>
<path d="M802.6,136.4c3,0,5.5,-2.4,5.5,-5.3c0,-3,-2.5,-5.4,-5.5,-5.4c-3,0,-5.5,2.4,-5.5,5.4c0,2.9,2.5,5.3,5.5,5.3Z" class="gi_97"/>
<g clip-path="url(#c8_97)" opacity="0.3">
<path d="M788,130.3c0,0,0,-4.8,3.7,-8.7l7.7,6.8c0,0,-1,.9,-1,2.6Z" class="g1_97"/>
</g>
<path d="M807.2,131c0,0,-3.5,0,-3.5,3.4v8.7c0,0,0,3.5,3.5,3.5h43.5c0,0,3.5,0,3.5,-3.5v-8.7c0,0,0,-3.4,-3.5,-3.4Z" class="gj_97"/>
<path d="M191.2,122c0,-8.3,-6.8,-15,-15.1,-15c-8.3,0,-15,6.7,-15,15c0,8.3,6.7,15.1,15,15.1c.8,0,1.7,-.1,2.4,-.2l4.5,5.2v-6.7c4.9,-2.5,8.2,-7.6,8.2,-13.4Z" class="g1_97"/>
<path d="M183.5,143.3l-5.1,-5.9c-.8,.1,-1.5,.1,-2.3,.1c-8.5,0,-15.5,-6.9,-15.5,-15.5c0,-8.5,7,-15.5,15.5,-15.5c8.6,0,15.5,7,15.5,15.5c0,5.7,-3.1,11,-8.1,13.7Zm-4.8,-6.9l3.9,4.5v-5.8l.2,-.1c4.9,-2.5,7.9,-7.5,7.9,-13c0,-8,-6.5,-14.6,-14.6,-14.6c-8,0,-14.6,6.6,-14.6,14.6c0,8.1,6.6,14.6,14.6,14.6c.8,0,1.6,-.1,2.4,-.2Z" class="gk_97"/>
<path d="M169.1,121.6c.8,0,1.4,.6,1.4,1.4c0,.8,-.6,1.5,-1.4,1.5c-.8,0,-1.4,-.7,-1.4,-1.5c0,-.8,.6,-1.4,1.4,-1.4Z" class="gl_97"/>
<path d="M169.1,124.9c-1,0,-1.9,-.8,-1.9,-1.9c0,-1,.9,-1.9,1.9,-1.9c1,0,1.9,.9,1.9,1.9c0,1.1,-.9,1.9,-1.9,1.9m0,-2.9c-.5,0,-1,.5,-1,1c0,.6,.5,1,1,1c.5,0,1,-.4,1,-1c0,-.5,-.5,-1,-1,-1Z" class="gk_97"/>
<path d="M176.1,121.6c.8,0,1.5,.6,1.5,1.4c0,.8,-.7,1.5,-1.5,1.5c-.8,0,-1.4,-.7,-1.4,-1.5c0,-.8,.6,-1.4,1.4,-1.4Z" class="gl_97"/>
<path d="M176.1,124.9c-1,0,-1.9,-.8,-1.9,-1.9c0,-1,.9,-1.9,1.9,-1.9c1.1,0,1.9,.9,1.9,1.9c0,1.1,-.8,1.9,-1.9,1.9m0,-2.9c-.5,0,-1,.5,-1,1c0,.6,.5,1,1,1c.6,0,1,-.4,1,-1c0,-.5,-.4,-1,-1,-1Z" class="gk_97"/>
<path d="M183.1,121.6c.8,0,1.5,.6,1.5,1.4c0,.8,-.7,1.5,-1.5,1.5c-.8,0,-1.4,-.7,-1.4,-1.5c0,-.8,.6,-1.4,1.4,-1.4Z" class="gl_97"/>
<path d="M183.1,124.9c-1,0,-1.9,-.8,-1.9,-1.9c0,-1,.9,-1.9,1.9,-1.9c1.1,0,1.9,.9,1.9,1.9c0,1.1,-.8,1.9,-1.9,1.9m0,-2.9c-.5,0,-1,.5,-1,1c0,.6,.5,1,1,1c.6,0,1,-.4,1,-1c0,-.5,-.4,-1,-1,-1Z" class="gk_97"/>
<path d="M185.1,136.3c0,-9.8,7.8,-17.7,17.6,-17.7c9.7,0,17.6,7.9,17.6,17.7c0,9.7,-7.9,17.6,-17.6,17.6c-1,0,-1.9,-.1,-2.9,-.3l-5.2,6.1v-7.8c-5.7,-2.9,-9.5,-8.8,-9.5,-15.6Z" class="gm_97"/>
<path d="M194.6,160.2q-.1,0,-.2,0c-.2,-.1,-.3,-.3,-.3,-.5v-7.5c-5.9,-3.2,-9.5,-9.2,-9.5,-15.9c0,-10,8.1,-18.1,18.1,-18.1c9.9,0,18,8.1,18,18.1c0,9.9,-8.1,18,-18,18c-.9,0,-1.8,0,-2.7,-.2l-5.1,5.9c-.1,.1,-.2,.2,-.3,.2m8.1,-41.1c-9.5,0,-17.2,7.7,-17.2,17.2c0,6.4,3.6,12.2,9.3,15.2c.1,.1,.2,.2,.2,.4v6.6l4.5,-5.2c.1,-.1,.3,-.1,.4,-.1c1,.1,1.9,.2,2.8,.2c9.4,0,17.1,-7.7,17.1,-17.1c0,-9.5,-7.7,-17.2,-17.1,-17.2Z" class="gk_97"/>
<path d="M210.9,135.8c.9,0,1.6,.7,1.6,1.6c0,1,-.7,1.7,-1.6,1.7c-1,0,-1.7,-.7,-1.7,-1.7c0,-.9,.7,-1.6,1.7,-1.6Z" class="g1_97"/>
<path d="M210.9,139.6c-1.2,0,-2.2,-1,-2.2,-2.2c0,-1.1,1,-2.1,2.2,-2.1c1.1,0,2.1,1,2.1,2.1c0,1.2,-1,2.2,-2.1,2.2m0,-3.4c-.7,0,-1.3,.6,-1.3,1.2c0,.7,.6,1.3,1.3,1.3c.6,0,1.2,-.6,1.2,-1.3c0,-.6,-.6,-1.2,-1.2,-1.2Z" class="gk_97"/>
<path d="M202.7,135.8c.9,0,1.6,.7,1.6,1.6c0,1,-.7,1.7,-1.6,1.7c-1,0,-1.7,-.7,-1.7,-1.7c0,-.9,.7,-1.6,1.7,-1.6Z" class="g1_97"/>
<path d="M202.7,139.6c-1.2,0,-2.2,-1,-2.2,-2.2c0,-1.1,1,-2.1,2.2,-2.1c1.1,0,2.1,1,2.1,2.1c0,1.2,-1,2.2,-2.1,2.2m0,-3.4c-.7,0,-1.3,.6,-1.3,1.2c0,.7,.6,1.3,1.3,1.3c.6,0,1.2,-.6,1.2,-1.3c0,-.6,-.6,-1.2,-1.2,-1.2Z" class="gk_97"/>
<path d="M194.5,135.8c.9,0,1.6,.7,1.6,1.6c0,1,-.7,1.7,-1.6,1.7c-1,0,-1.7,-.7,-1.7,-1.7c0,-.9,.7,-1.6,1.7,-1.6Z" class="g1_97"/>
<path d="M194.5,139.6c-1.2,0,-2.2,-1,-2.2,-2.2c0,-1.1,1,-2.1,2.2,-2.1c1.1,0,2.1,1,2.1,2.1c0,1.2,-1,2.2,-2.1,2.2m0,-3.4c-.7,0,-1.2,.6,-1.2,1.2c0,.7,.5,1.3,1.2,1.3c.6,0,1.2,-.6,1.2,-1.3c0,-.6,-.6,-1.2,-1.2,-1.2Z" class="gk_97"/>
<image clip-path="url(#c9_97)" x="176" y="631" width="5" height="10" xlink:href="shade/1.png"/>
<image clip-path="url(#ca_97)" x="175" y="605" width="25" height="28" xlink:href="shade/2.png"/>
<image clip-path="url(#cb_97)" x="175" y="607" width="23" height="34" xlink:href="shade/3.png"/>
<image clip-path="url(#cc_97)" x="180" y="603" width="20" height="10" xlink:href="shade/4.png"/>
<image clip-path="url(#cd_97)" x="834" y="572" width="6" height="10" xlink:href="shade/5.png"/>
<image clip-path="url(#ce_97)" x="834" y="546" width="24" height="28" xlink:href="shade/6.png"/>
<image clip-path="url(#cf_97)" x="833" y="548" width="24" height="34" xlink:href="shade/7.png"/>
<image clip-path="url(#cg_97)" x="839" y="544" width="20" height="10" xlink:href="shade/8.png"/>
<path d="M32.1,45.1H9.2m958.3,0h22.9M32.1,1331.3H9.2m958.3,0h22.9M45.1,32.1V9.2m0,1335.1v22.9M954.5,32.1V9.2m0,1335.1v22.9" class="gn_97"/>
<path d="M32.1,45.1H9.2m958.3,0h22.9M32.1,1331.3H9.2m958.3,0h22.9M45.1,32.1V9.2m0,1335.1v22.9M954.5,32.1V9.2m0,1335.1v22.9" class="go_97"/>
<path d="M27.5,32.1H0m972.1,0h27.5M27.5,1344.3H0m972.1,0h27.5M32.1,27.5V0m0,1348.9v27.5M967.5,27.5V0m0,1348.9v27.5" class="gn_97"/>
<path d="M27.5,32.1H0m972.1,0h27.5M27.5,1344.3H0m972.1,0h27.5M32.1,27.5V0m0,1348.9v27.5M967.5,27.5V0m0,1348.9v27.5" class="go_97"/>
</svg>