<?xml version="1.0" encoding="UTF-8" standalone="no"?>
<!DOCTYPE svg PUBLIC "-//W3C//DTD SVG 1.1//EN"
"http://www.w3.org/Graphics/SVG/1.1/DTD/svg11.dtd">
<svg viewBox="0 0 999 1376" version="1.1" xmlns="http://www.w3.org/2000/svg" xmlns:xlink="http://www.w3.org/1999/xlink">
<defs>
<clipPath id="c0_49"><path d="M730.8,756.4V471.5H939.3V756.4Z"/></clipPath>
<clipPath id="c1_49"><path d="M724.8,757.3V468H945.9V757.3Z"/></clipPath>
<clipPath id="c2_49"><path d="M724.5,757V467.7H945.6V757Z"/></clipPath>
<clipPath id="c3_49"><path d="M88.4,571.4V300.3H296.3V571.4Z"/></clipPath>
<clipPath id="c4_49"><path d="M94.8,567.8V306.5H289.5V567.8Z"/></clipPath>
<clipPath id="c5_49"><path d="M94.5,567.5V306.2H289.2V567.5Z"/></clipPath>
<clipPath id="c6_49"><path d="M199.9,255.3l-6.5,-2.1L177,239.3V182.2h72v73.1Z"/></clipPath>
<clipPath id="c7_49"><path d="M199.9,1018.1l-6.5,-2.1L177,1002.1V945h72v73.1Z"/></clipPath>
<clipPath id="c8_49"><path d="M786.5,132.5V120.1H801v12.4Z"/></clipPath>
<style type="text/css"><![CDATA[
.g0_49{
fill: #FEFCF4;
}
.g1_49{
fill: #FFF;
}
.g2_49{
fill: none;
stroke: #6381B7;
stroke-width: 0.763;
}
.g3_49{
fill: #F7C2D9;
}
.g4_49{
fill: #FDF4F3;
}
.g5_49{
fill: #EC008C;
}
.g6_49{
fill: none;
stroke: #949698;
stroke-width: 0.305;
stroke-dasharray: 3,3;
}
.g7_49{
fill: none;
stroke: #949698;
stroke-width: 0.305;
stroke-dasharray: 4,4;
}
.g8_49{
fill: none;
stroke: #949698;
stroke-width: 0.305;
}
.g9_49{
fill: #6D6F71;
}
.ga_49{
fill: #6381B7;
}
.gb_49{
fill: none;
stroke: #6381B7;
stroke-width: 0.381;
stroke-dasharray: 2,1;
}
.gc_49{
fill: none;
stroke: #6381B7;
stroke-width: 0.381;
}
.gd_49{
fill: #FCE8B0;
}
.ge_49{
fill: #25408F;
}
.gf_49{
fill: #A8AAAD;
}
.gg_49{
fill: none;
stroke: #949698;
stroke-width: 0.549;
}
.gh_49{
fill: none;
stroke: #BCBEC0;
stroke-width: 2.566;
}
.gi_49{
fill: #231F20;
}
.gj_49{
fill: #363637;
}
.gk_49{
fill: #5CC4BE;
}
.gl_49{
fill: #EAD646;
}
.gm_49{
fill: none;
stroke: #FFF;
stroke-width: 1.909;
stroke-miterlimit: 10;
}
.gn_49{
fill: none;
stroke: #000;
stroke-width: 0.381;
stroke-miterlimit: 10;
}
]]></style>
</defs>
<path d="M45.1,1344.3H967.5V32.1H45.1V1344.3Z" class="g0_49"/>
<path d="M172.1,137.3c0,0,-18.4,0,-18.4,18.4V881.2c0,0,0,18.4,18.4,18.4H849.2c0,0,18.3,0,18.3,-18.4V137.3Z" class="g1_49"/>
<path d="M172.1,137.3c0,0,-18.4,0,-18.4,18.4V881.2c0,0,0,18.4,18.4,18.4H849.2c0,0,18.3,0,18.3,-18.4V137.3H172.1Z" class="g2_49"/>
<image clip-path="url(#c0_49)" preserveAspectRatio="none" x="730" y="472" width="209" height="285" xlink:href="img/1.png"/>
<path d="M737,476.8l-1.3,272.1l197.1,1.2l-.5,-272.8Z" class="g3_49"/>
<image clip-path="url(#c1_49)" preserveAspectRatio="none" x="724" y="468" width="222" height="290" xlink:href="img/2.png"/>
<image clip-path="url(#c2_49)" preserveAspectRatio="none" x="724" y="468" width="221" height="290" xlink:href="img/3.png"/>
<path d="M744.6,472.5L729.3,740l161.9,10.7l34.3,-22l14,-243.8Z" class="g4_49"/>
<path d="M891.7,751.4l34.4,-23.3l-16.6,-10Z" class="g5_49"/>
<path d="M509.3,575.8c10.4,-1.4,18.5,-7.7,20,-15.7" class="g6_49"/>
<path d="M528.9,552.7c-.5,-1.4,-1.1,-2.8,-2,-4.1" class="g7_49"/>
<path d="M521.9,543.5c-3.8,-2.7,-8.7,-4.5,-14.1,-5m-7,.2c-10.4,1.4,-18.5,7.7,-20.1,15.7m.4,7.1c2.3,7.7,10.7,13.6,21.1,14.5" class="g6_49"/>
<path d="M529.5,558.7c.1,-.5,.1,-1,.1,-1.4c0,-.6,0,-1.1,-.1,-1.6M526,547.4c-.3,-.4,-.7,-.8,-1,-1.2c-.3,-.3,-.6,-.6,-1,-.9m-17.6,-6.9c-.4,0,-.9,0,-1.4,0c-.4,0,-.9,0,-1.4,0m-23.1,17.4c0,.5,0,1,0,1.5c0,.4,0,.9,0,1.4m23.1,17.4c.5,0,1,0,1.4,0c.5,0,1,0,1.5,0" class="g8_49"/>
<path d="M523.7,545.3c0,0,88.5,-24.9,209.5,-24.9" class="g7_49"/>
<path d="M727.4,515.8l.7,8.8L739,519.1Z" class="g9_49"/>
<path d="M537.5,343.8c10.3,-1.4,18.4,-7.7,20,-15.7m-.4,-7.1C554.9,313.3,546.4,307.4,536,306.5m-7.1,.2c-10.3,1.3,-18.4,7.7,-20,15.7m.3,7.1c2.3,7.7,10.7,13.6,21.1,14.5" class="g6_49"/>
<path d="M557.7,326.7c0,-.5,.1,-1,.1,-1.5c0,-.4,-.1,-.9,-.1,-1.4M534.6,306.4c-.5,0,-.9,0,-1.4,0c-.5,0,-1,0,-1.4,0m-23.1,17.4c-.1,.5,-.1,1,-.1,1.4c0,.5,0,1,.1,1.5m23.1,17.4c.4,0,.9,0,1.4,0c.5,0,.9,0,1.4,0" class="g8_49"/>
<image clip-path="url(#c3_49)" preserveAspectRatio="none" x="88" y="301" width="208" height="271" xlink:href="img/4.png"/>
<path d="M93.1,319.9l20,245.4L290.3,549.5L269.5,304.9Z" class="g3_49"/>
<image clip-path="url(#c4_49)" preserveAspectRatio="none" x="95" y="307" width="195" height="261" xlink:href="img/5.png"/>
<image clip-path="url(#c5_49)" preserveAspectRatio="none" x="94" y="307" width="195" height="261" xlink:href="img/6.png"/>
<path d="M99.2,317.9l8.1,243.4l147.3,-5.9l28.6,-31.6l-7,-212.9Z" class="g4_49"/>
<path d="M254.5,555.7l28.9,-31.8l-19.7,-2.7Z" class="g5_49"/>
<path d="M510.5,312.4C493.8,308.2,430.1,294.5,330.7,299.6m-7.6,1.1c-4.8,2.2,-3.4,7.1,1.5,6.7" class="g7_49"/>
<path d="M327.5,302.4c-2.4,-6.3,-10.9,-17.6,-26.1,-18.5" class="g6_49"/>
<path d="M293.7,283.9c-17,.4,-48.4,2.3,-93.3,28.1" class="g7_49"/>
<path d="M514.9,313.6c0,0,-.4,-.2,-1.4,-.4M329.2,299.6c-.5,.1,-1,.1,-1.5,.1c-.6,.1,-1.1,.1,-1.6,.2m.1,7.2c.5,-.2,1,-.3,1.5,-.6c.3,-.1,.5,-.6,.5,-1.3M299.9,283.8c-.5,0,-1,0,-1.5,0c-.5,0,-1,0,-1.5,0m-97.8,29c-.5,.3,-.9,.5,-1.4,.8" class="g8_49"/>
<path d="M201.5,315.4l-7.2,-5.1l-2.8,11.9Z" class="g9_49"/>
<path d="M166.7,926.3c0,0,-13,0,-13,13v195.4c0,0,0,13,13,13H854.5c0,0,13,0,13,-13V939.3c0,0,0,-13,-13,-13Z" class="g1_49"/>
<path d="M166.7,926.3c0,0,-13,0,-13,13v195.4c0,0,0,13,13,13H854.5c0,0,13,0,13,-13V939.3c0,0,0,-13,-13,-13H166.7Z" class="g2_49"/>
<path d="M395.3,1165.7c0,0,-4.3,0,-4.3,4.4v10.8c0,0,0,4.3,4.3,4.3h30.3c0,0,4.4,0,4.4,-4.3v-10.8c0,0,0,-4.4,-4.4,-4.4Z" class="ga_49"/>
<path d="M382.1,1158.3v34.8m1.4,1H866m1,-1.4v-34.8m-1.4,-1H383.1" class="gb_49"/>
<path d="M382.1,1193.5v.6h.6m483.7,0h.6v-.6m0,-36v-.6h-.6m-483.7,0h-.6v.6" class="gc_49"/>
<path d="M232.5,184.4c0,0,-12.9,0,-12.9,13V245c0,0,0,13,12.9,13h602c0,0,13,0,13,-13V197.4c0,0,0,-13,-13,-13Z" class="gd_49"/>
<image clip-path="url(#c6_49)" preserveAspectRatio="none" x="175" y="181" width="75" height="76" xlink:href="img/7.png"/>
<path d="M227.3,250.6c0,0,-26.8,11.3,-51.1,-12.7c0,0,15.2,25.3,49.3,23.9c0,0,24.8,.4,20.3,-10.1c0,0,1.2,-4.4,-18.5,-1.1Z" class="gd_49"/>
<path d="M232.5,947.2c0,0,-12.9,0,-12.9,13v47.6c0,0,0,13,12.9,13h602c0,0,13,0,13,-13V960.2c0,0,0,-13,-13,-13Z" class="gd_49"/>
<image clip-path="url(#c7_49)" preserveAspectRatio="none" x="175" y="943" width="75" height="77" xlink:href="img/8.png"/>
<path d="M227.3,1013.4c0,0,-26.8,11.3,-51.1,-12.7c0,0,15.2,25.3,49.3,23.9c0,0,24.8,.4,20.3,-10.1c0,0,1.2,-4.5,-18.5,-1.1Z" class="gd_49"/>
<path d="M153.3,111.9v39L165,161.2V117Z" class="ge_49"/>
<path d="M153.3,111.9v39H851.1c0,0,16.8,0,16.8,-16.8v-5.3c0,0,0,-16.9,-16.8,-16.9Z" class="ga_49"/>
<path d="M802.6,145.6c8.2,0,14.9,-6.5,14.9,-14.5c0,-8.1,-6.7,-14.5,-14.9,-14.5c-8.2,0,-14.9,6.4,-14.9,14.5c0,8,6.7,14.5,14.9,14.5Z" class="gf_49"/>
<path d="M802.6,145.6c8.2,0,14.9,-6.5,14.9,-14.5c0,-8.1,-6.7,-14.5,-14.9,-14.5c-8.2,0,-14.9,6.4,-14.9,14.5c0,8,6.7,14.5,14.9,14.5Z" class="gg_49"/>
<path d="M802.6,136.4c3,0,5.5,-2.4,5.5,-5.3c0,-3,-2.5,-5.4,-5.5,-5.4c-3,0,-5.5,2.4,-5.5,5.4c0,2.9,2.5,5.3,5.5,5.3Z" class="g1_49"/>
<path d="M802.6,136.4c3,0,5.5,-2.4,5.5,-5.3c0,-3,-2.5,-5.4,-5.5,-5.4c-3,0,-5.5,2.4,-5.5,5.4c0,2.9,2.5,5.3,5.5,5.3Z" class="gh_49"/>
<g clip-path="url(#c8_49)" opacity="0.3">
<path d="M788,130.3c0,0,0,-4.8,3.7,-8.7l7.7,6.8c0,0,-1,.9,-1,2.6Z" class="g1_49"/>
</g>
<path d="M807.2,131c0,0,-3.5,0,-3.5,3.4v8.7c0,0,0,3.5,3.5,3.5h43.5c0,0,3.5,0,3.5,-3.5v-8.7c0,0,0,-3.4,-3.5,-3.4Z" class="gi_49"/>
<path d="M191.2,122c0,-8.3,-6.8,-15,-15.1,-15c-8.3,0,-15,6.7,-15,15c0,8.3,6.7,15.1,15,15.1c.8,0,1.7,-.1,2.4,-.2l4.5,5.2v-6.7c4.9,-2.5,8.2,-7.6,8.2,-13.4Z" class="g1_49"/>
<path d="M183.5,143.3l-5.1,-5.9c-.8,.1,-1.5,.1,-2.3,.1c-8.5,0,-15.5,-6.9,-15.5,-15.5c0,-8.5,7,-15.5,15.5,-15.5c8.6,0,15.5,7,15.5,15.5c0,5.7,-3.1,11,-8.1,13.7Zm-4.8,-6.9l3.9,4.5v-5.8l.2,-.1c4.9,-2.5,7.9,-7.5,7.9,-13c0,-8,-6.5,-14.6,-14.6,-14.6c-8,0,-14.6,6.6,-14.6,14.6c0,8.1,6.6,14.6,14.6,14.6c.8,0,1.6,-.1,2.4,-.2Z" class="gj_49"/>
<path d="M169.1,121.6c.8,0,1.4,.6,1.4,1.4c0,.8,-.6,1.5,-1.4,1.5c-.8,0,-1.4,-.7,-1.4,-1.5c0,-.8,.6,-1.4,1.4,-1.4Z" class="gk_49"/>
<path d="M169.1,124.9c-1,0,-1.9,-.8,-1.9,-1.9c0,-1,.9,-1.9,1.9,-1.9c1,0,1.9,.9,1.9,1.9c0,1.1,-.9,1.9,-1.9,1.9m0,-2.9c-.5,0,-1,.5,-1,1c0,.6,.5,1,1,1c.5,0,1,-.4,1,-1c0,-.5,-.5,-1,-1,-1Z" class="gj_49"/>
<path d="M176.1,121.6c.8,0,1.5,.6,1.5,1.4c0,.8,-.7,1.5,-1.5,1.5c-.8,0,-1.4,-.7,-1.4,-1.5c0,-.8,.6,-1.4,1.4,-1.4Z" class="gk_49"/>
<path d="M176.1,124.9c-1,0,-1.9,-.8,-1.9,-1.9c0,-1,.9,-1.9,1.9,-1.9c1.1,0,1.9,.9,1.9,1.9c0,1.1,-.8,1.9,-1.9,1.9m0,-2.9c-.5,0,-1,.5,-1,1c0,.6,.5,1,1,1c.6,0,1,-.4,1,-1c0,-.5,-.4,-1,-1,-1Z" class="gj_49"/>
<path d="M183.1,121.6c.8,0,1.5,.6,1.5,1.4c0,.8,-.7,1.5,-1.5,1.5c-.8,0,-1.4,-.7,-1.4,-1.5c0,-.8,.6,-1.4,1.4,-1.4Z" class="gk_49"/>
<path d="M183.1,124.9c-1,0,-1.9,-.8,-1.9,-1.9c0,-1,.9,-1.9,1.9,-1.9c1.1,0,1.9,.9,1.9,1.9c0,1.1,-.8,1.9,-1.9,1.9m0,-2.9c-.5,0,-1,.5,-1,1c0,.6,.5,1,1,1c.6,0,1,-.4,1,-1c0,-.5,-.4,-1,-1,-1Z" class="gj_49"/>
<path d="M185.1,136.3c0,-9.8,7.8,-17.7,17.6,-17.7c9.7,0,17.6,7.9,17.6,17.7c0,9.7,-7.9,17.6,-17.6,17.6c-1,0,-1.9,-.1,-2.9,-.3l-5.2,6.1v-7.8c-5.7,-2.9,-9.5,-8.8,-9.5,-15.6Z" class="gl_49"/>
<path d="M194.6,160.2q-.1,0,-.2,0c-.2,-.1,-.3,-.3,-.3,-.5v-7.5c-5.9,-3.2,-9.5,-9.2,-9.5,-15.9c0,-10,8.1,-18.1,18.1,-18.1c9.9,0,18,8.1,18,18.1c0,9.9,-8.1,18,-18,18c-.9,0,-1.8,0,-2.7,-.2l-5.1,5.9c-.1,.1,-.2,.2,-.3,.2m8.1,-41.1c-9.5,0,-17.2,7.7,-17.2,17.2c0,6.4,3.6,12.2,9.3,15.2c.1,.1,.2,.2,.2,.4v6.6l4.5,-5.2c.1,-.1,.3,-.1,.4,-.1c1,.1,1.9,.2,2.8,.2c9.4,0,17.1,-7.7,17.1,-17.1c0,-9.5,-7.7,-17.2,-17.1,-17.2Z" class="gj_49"/>
<path d="M210.9,135.8c.9,0,1.6,.7,1.6,1.6c0,1,-.7,1.7,-1.6,1.7c-1,0,-1.7,-.7,-1.7,-1.7c0,-.9,.7,-1.6,1.7,-1.6Z" class="g1_49"/>
<path d="M210.9,139.6c-1.2,0,-2.2,-1,-2.2,-2.2c0,-1.1,1,-2.1,2.2,-2.1c1.1,0,2.1,1,2.1,2.1c0,1.2,-1,2.2,-2.1,2.2m0,-3.4c-.7,0,-1.3,.6,-1.3,1.2c0,.7,.6,1.3,1.3,1.3c.6,0,1.2,-.6,1.2,-1.3c0,-.6,-.6,-1.2,-1.2,-1.2Z" class="gj_49"/>
<path d="M202.7,135.8c.9,0,1.6,.7,1.6,1.6c0,1,-.7,1.7,-1.6,1.7c-1,0,-1.7,-.7,-1.7,-1.7c0,-.9,.7,-1.6,1.7,-1.6Z" class="g1_49"/>
<path d="M202.7,139.6c-1.2,0,-2.2,-1,-2.2,-2.2c0,-1.1,1,-2.1,2.2,-2.1c1.1,0,2.1,1,2.1,2.1c0,1.2,-1,2.2,-2.1,2.2m0,-3.4c-.7,0,-1.3,.6,-1.3,1.2c0,.7,.6,1.3,1.3,1.3c.6,0,1.2,-.6,1.2,-1.3c0,-.6,-.6,-1.2,-1.2,-1.2Z" class="gj_49"/>
<path d="M194.5,135.8c.9,0,1.6,.7,1.6,1.6c0,1,-.7,1.7,-1.6,1.7c-1,0,-1.7,-.7,-1.7,-1.7c0,-.9,.7,-1.6,1.7,-1.6Z" class="g1_49"/>
<path d="M194.5,139.6c-1.2,0,-2.2,-1,-2.2,-2.2c0,-1.1,1,-2.1,2.2,-2.1c1.1,0,2.1,1,2.1,2.1c0,1.2,-1,2.2,-2.1,2.2m0,-3.4c-.7,0,-1.2,.6,-1.2,1.2c0,.7,.5,1.3,1.2,1.3c.6,0,1.2,-.6,1.2,-1.3c0,-.6,-.6,-1.2,-1.2,-1.2Z" class="gj_49"/>
<path d="M32.1,45.1H9.2m958.3,0h22.9M32.1,1331.3H9.2m958.3,0h22.9M45.1,32.1V9.2m0,1335.1v22.9M954.5,32.1V9.2m0,1335.1v22.9" class="gm_49"/>
<path d="M32.1,45.1H9.2m958.3,0h22.9M32.1,1331.3H9.2m958.3,0h22.9M45.1,32.1V9.2m0,1335.1v22.9M954.5,32.1V9.2m0,1335.1v22.9" class="gn_49"/>
<path d="M27.5,32.1H0m972.1,0h27.5M27.5,1344.3H0m972.1,0h27.5M32.1,27.5V0m0,1348.9v27.5M967.5,27.5V0m0,1348.9v27.5" class="gm_49"/>
<path d="M27.5,32.1H0m972.1,0h27.5M27.5,1344.3H0m972.1,0h27.5M32.1,27.5V0m0,1348.9v27.5M967.5,27.5V0m0,1348.9v27.5" class="gn_49"/>
</svg>