<?xml version="1.0" encoding="UTF-8" standalone="no"?>
<!DOCTYPE svg PUBLIC "-//W3C//DTD SVG 1.1//EN"
"http://www.w3.org/Graphics/SVG/1.1/DTD/svg11.dtd">
<svg viewBox="0 0 999 1376" version="1.1" xmlns="http://www.w3.org/2000/svg" xmlns:xlink="http://www.w3.org/1999/xlink">
<defs>
<clipPath id="c0_98"><path d="M198.1,356.6V257.3h99.2v99.3Z"/></clipPath>
<clipPath id="c1_98"><path d="M198.1,510.4V411.2h99.2v99.2Z"/></clipPath>
<clipPath id="c2_98"><path d="M198.1,664.3V565h99.2v99.3Z"/></clipPath>
<clipPath id="c3_98"><path d="M227.7,1182.6V884.5H631.6v298.1Z"/></clipPath>
<clipPath id="c4_98"><path d="M175.9,236.2l-6.5,-2.1L153,220.2V163.1h72v73.1Z"/></clipPath>
<clipPath id="c5_98"><path d="M175.9,804.6l-6.5,-2.1L153.1,788.6V731.5H225v73.1Z"/></clipPath>
<style type="text/css"><![CDATA[
.g0_98{
fill: #FEFCF4;
}
.g1_98{
fill: #FFF;
}
.g2_98{
fill: none;
stroke: #6381B7;
stroke-width: 0.763;
}
.g3_98{
fill: none;
stroke: #949698;
stroke-width: 0.381;
}
.g4_98{
fill: none;
stroke: #231F20;
stroke-width: 0.549;
}
.g5_98{
fill: none;
stroke: #949698;
stroke-width: 0.549;
}
.g6_98{
fill: none;
stroke: #231F20;
stroke-width: 0.611;
}
.g7_98{
fill: #48484A;
}
.g8_98{
fill: #F0E8F3;
}
.g9_98{
fill: #766FA6;
}
.ga_98{
fill: #6381B7;
}
.gb_98{
fill: none;
stroke: #6381B7;
stroke-width: 0.381;
stroke-dasharray: 2,1;
}
.gc_98{
fill: none;
stroke: #6381B7;
stroke-width: 0.381;
}
.gd_98{
fill: #FCE8B0;
}
.ge_98{
fill: #25408F;
}
.gf_98{
fill: #00BAF1;
}
.gg_98{
fill: #332D2C;
}
.gh_98{
fill: #D9DFF0;
}
.gi_98{
fill: #F27C85;
}
.gj_98{
fill: #7DD3F6;
}
.gk_98{
fill: none;
stroke: #FFF;
stroke-width: 1.909;
stroke-miterlimit: 10;
}
.gl_98{
fill: none;
stroke: #000;
stroke-width: 0.381;
stroke-miterlimit: 10;
}
]]></style>
</defs>
<path d="M32.1,1344.3H954.5V32.1H32.1V1344.3Z" class="g0_98"/>
<path d="M149.3,134.8c0,0,-18.3,0,-18.3,18.3V700.3c0,0,0,18.3,18.3,18.3H826.5c0,0,18.3,0,18.3,-18.3V134.8Z" class="g1_98"/>
<path d="M149.3,134.8c0,0,-18.3,0,-18.3,18.3V700.3c0,0,0,18.3,18.3,18.3H826.5c0,0,18.3,0,18.3,-18.3V134.8H149.3Z" class="g2_98"/>
<path d="M187.4,356.6H307.9V257.3H187.4v99.3Z" class="g1_98"/>
<image clip-path="url(#c0_98)" preserveAspectRatio="none" x="198" y="257" width="99" height="100" xlink:href="img/1.jpg"/>
<path d="M187.4,356.6H307.9V257.3H187.4v99.3Z" class="g3_98"/>
<path d="M678.2,356.6H798.7V257.3H678.2v99.3Z" class="g1_98"/>
<image preserveAspectRatio="none" x="689" y="257" width="99" height="100" xlink:href="img/2.jpg"/>
<path d="M678.2,356.6H798.7V257.3H678.2v99.3Z" class="g3_98"/>
<path d="M432.8,356.6H553.3V257.3H432.8v99.3Z" class="g1_98"/>
<image preserveAspectRatio="none" x="443" y="257" width="100" height="100" xlink:href="img/3.jpg"/>
<path d="M432.8,356.6H553.3V257.3H432.8v99.3Z" class="g3_98"/>
<path d="M187.4,510.4H307.9V411.2H187.4v99.2Z" class="g1_98"/>
<image clip-path="url(#c1_98)" preserveAspectRatio="none" x="198" y="411" width="99" height="99" xlink:href="img/4.jpg"/>
<path d="M187.4,510.4H307.9V411.2H187.4v99.2Z" class="g3_98"/>
<path d="M432.8,510.4H553.3V411.2H432.8v99.2Z" class="g1_98"/>
<image preserveAspectRatio="none" x="443" y="411" width="100" height="99" xlink:href="img/5.jpg"/>
<path d="M432.8,510.4H553.3V411.2H432.8v99.2Z" class="g3_98"/>
<path d="M678.2,510.4H798.7V411.2H678.2v99.2Z" class="g1_98"/>
<image preserveAspectRatio="none" x="689" y="411" width="99" height="99" xlink:href="img/6.jpg"/>
<path d="M678.2,510.4H798.7V411.2H678.2v99.2Z" class="g3_98"/>
<path d="M187.4,664.3H307.9V565H187.4v99.3Z" class="g1_98"/>
<image clip-path="url(#c2_98)" preserveAspectRatio="none" x="198" y="565" width="99" height="99" xlink:href="img/7.jpg"/>
<path d="M187.4,664.3H307.9V565H187.4v99.3Z" class="g3_98"/>
<path d="M351,664.3H471.5V565H351v99.3Z" class="g1_98"/>
<image preserveAspectRatio="none" x="362" y="565" width="99" height="99" xlink:href="img/8.jpg"/>
<path d="M351,664.3H471.5V565H351v99.3Z" class="g3_98"/>
<path d="M514.6,664.3H635.1V565H514.6v99.3Z" class="g1_98"/>
<image preserveAspectRatio="none" x="525" y="565" width="99" height="99" xlink:href="img/9.jpg"/>
<path d="M514.6,664.3H635.1V565H514.6v99.3Z" class="g3_98"/>
<path d="M678.2,664.3H798.7V565H678.2v99.3Z" class="g1_98"/>
<image preserveAspectRatio="none" x="689" y="565" width="99" height="99" xlink:href="img/10.jpg"/>
<path d="M678.2,664.3H798.7V565H678.2v99.3Z" class="g3_98"/>
<path d="M145.1,819.9c0,0,-13,0,-13,13v352.8c0,0,0,13,13,13H832.9c0,0,13,0,13,-13V832.9c0,0,0,-13,-13,-13Z" class="g1_98"/>
<path d="M145.1,819.9c0,0,-13,0,-13,13v352.8c0,0,0,13,13,13H832.9c0,0,13,0,13,-13V832.9c0,0,0,-13,-13,-13H145.1Z" class="g2_98"/>
<image clip-path="url(#c3_98)" preserveAspectRatio="none" x="228" y="884" width="404" height="299" xlink:href="img/11.jpg"/>
<path d="M311.8,995.7l-45.2,-30m-9.3,83.9h10v23.7m-10.8,49.6h10v23.7" class="g4_98"/>
<path d="M191.1,967H311.6V933.3H191.1V967Z" class="g1_98"/>
<path d="M191.1,967H311.6V933.3H191.1V967Z" class="g5_98"/>
<path d="M194.9,1107H315.4v-33.7H194.9V1107Z" class="g1_98"/>
<path d="M194.9,1107H315.4v-33.7H194.9V1107Z" class="g5_98"/>
<path d="M194.9,1180.6H315.4v-33.8H194.9v33.8Z" class="g1_98"/>
<path d="M194.9,1180.6H315.4v-33.8H194.9v33.8Z" class="g5_98"/>
<path d="M563.2,1084.8v-48.6" class="g4_98"/>
<path d="M530.7,1039.7H651.2v-33.8H530.7v33.8Z" class="g1_98"/>
<path d="M530.7,1039.7H651.2v-33.8H530.7v33.8Z" class="g5_98"/>
<path d="M406,1164l-48.6,-29.9" class="g4_98"/>
<path d="M400.1,1179H520.6v-33.7H400.1V1179Z" class="g1_98"/>
<path d="M400.1,1179H520.6v-33.7H400.1V1179Z" class="g5_98"/>
<path d="M190.2,968.3H315.1V931.2H190.2v37.1Z" class="g1_98"/>
<path d="M190.2,968.3H315.1V931.2H190.2v37.1Z" class="g6_98"/>
<path d="M190.2,1110.1H315.1v-37H190.2v37Z" class="g1_98"/>
<path d="M190.2,1110.1H315.1v-37H190.2v37Z" class="g6_98"/>
<path d="M192.3,1182.1h125v-37h-125v37Z" class="g1_98"/>
<path d="M192.3,1182.1h125v-37h-125v37Z" class="g6_98"/>
<path d="M399.1,1180.7h125v-37h-125v37Z" class="g1_98"/>
<path d="M399.1,1180.7h125v-37h-125v37Z" class="g6_98"/>
<path d="M529,1041.4H654v-37.1H529v37.1Z" class="g1_98"/>
<path d="M529,1041.4H654v-37.1H529v37.1Z" class="g6_98"/>
<path d="M708.8,986.4c0,0,-4.4,0,-4.4,4.4v14.7c0,0,0,4.3,4.1,5.8l52.5,18.5c0,0,4.1,1.5,4.1,-2.9V990.8c0,0,0,-4.4,-4.4,-4.4Z" class="g7_98"/>
<path d="M729.9,973.5c0,0,-13,0,-13,12.9v146c0,0,0,13,13,13H797c0,0,13,0,13,-13v-146c0,0,0,-12.9,-13,-12.9Z" class="g8_98"/>
<path d="M708.8,984.3c0,0,-4.4,0,-4.4,4.3v17.3c0,0,0,4.4,4.4,4.4h34.6c0,0,4.3,0,4.3,-4.4V988.6c0,0,0,-4.3,-4.3,-4.3Z" class="g9_98"/>
<path d="M494.4,1214.8c0,0,-4.3,0,-4.3,4.4V1230c0,0,0,4.3,4.3,4.3h30.3c0,0,4.4,0,4.4,-4.3v-10.8c0,0,0,-4.4,-4.4,-4.4Z" class="ga_98"/>
<path d="M481.2,1206v37.5m1.4,1H845.1m1,-1.3v-37.6m-1.4,-1H482.2" class="gb_98"/>
<path d="M481.2,1243.9v.6h.6m363.7,0h.6v-.6m0,-38.7v-.6h-.6m-363.7,0h-.6v.6" class="gc_98"/>
<path d="M208.6,191.2c0,0,-13,0,-13,13v21.7c0,0,0,13,13,13H810.5c0,0,13,0,13,-13V204.2c0,0,0,-13,-13,-13Z" class="gd_98"/>
<image clip-path="url(#c4_98)" preserveAspectRatio="none" x="151" y="161" width="75" height="77" xlink:href="img/12.png"/>
<path d="M203.4,231.5c0,0,-26.9,11.3,-51.1,-12.7c0,0,15.1,25.3,49.2,23.9c0,0,24.8,.4,20.3,-10.1c0,0,1.2,-4.5,-18.4,-1.1Z" class="gd_98"/>
<path d="M208.6,759.6c0,0,-13,0,-13,13v21.7c0,0,0,13,13,13H833.3c0,0,13,0,13,-13V772.6c0,0,0,-13,-13,-13Z" class="gd_98"/>
<image clip-path="url(#c5_98)" preserveAspectRatio="none" x="151" y="730" width="75" height="76" xlink:href="img/13.png"/>
<path d="M203.4,799.9c0,0,-26.9,11.3,-51.1,-12.7c0,0,15.1,25.3,49.2,23.9c0,0,24.8,.4,20.3,-10.1c0,0,1.2,-4.5,-18.4,-1.1Z" class="gd_98"/>
<path d="M131.7,126.7v22.2l11.7,10.3V137Z" class="ge_98"/>
<path d="M131.7,109.9v39H829.4c0,0,16.9,0,16.9,-16.8v-5.4c0,0,0,-16.8,-16.9,-16.8Z" class="ga_98"/>
<path d="M189.6,121.3l-6.4,-6.5L162,136l6.4,6.5Z" class="gf_98"/>
<path d="M168.4,143c.2,0,.3,0,.4,-.1L190,121.7c.1,-.1,.2,-.3,.2,-.4c0,-.1,-.1,-.3,-.2,-.4l-6.5,-6.4c-.2,-.2,-.5,-.2,-.7,0l-21.2,21.2c-.1,.1,-.2,.2,-.2,.3c0,.2,.1,.3,.2,.4l6.5,6.5c.1,.1,.2,.1,.3,.1m20.5,-21.7l-20.5,20.5L162.7,136l20.5,-20.4Z" class="gg_98"/>
<path d="M189.6,121.3l-6.4,-6.5l2.1,-2.1l6.5,6.5Z" class="gh_98"/>
<path d="M189.6,121.8c.2,0,.3,0,.4,-.1l2.1,-2.1c.1,-.1,.2,-.3,.2,-.4c0,-.2,-.1,-.3,-.2,-.4l-6.4,-6.5c-.2,-.2,-.6,-.2,-.8,0l-2.1,2.2c-.1,0,-.2,.2,-.2,.3c0,.2,.1,.3,.2,.4l6.5,6.5c.1,.1,.2,.1,.3,.1m1.4,-2.6l-1.4,1.4l-5.7,-5.8l1.4,-1.4Z" class="gg_98"/>
<path d="M195.4,115.6l-6.5,-6.5l-3.6,3.6l6.5,6.5Z" class="gi_98"/>
<path d="M191.8,119.7c.1,0,.2,0,.3,-.1l3.7,-3.7c.2,-.2,.2,-.5,0,-.7l-6.5,-6.5c-.2,-.2,-.6,-.2,-.8,0l-3.6,3.6c-.2,.2,-.2,.6,0,.8l6.5,6.5c.1,.1,.2,.1,.4,.1m2.8,-4.1l-2.8,2.8L186,112.7l2.9,-2.9Z" class="gg_98"/>
<path d="M157.3,147.2L162,136l6.4,6.5Z" class="g1_98"/>
<path d="M157.3,147.7c.1,0,.2,0,.2,-.1L168.6,143c.2,-.1,.3,-.2,.4,-.4c0,-.2,-.1,-.3,-.2,-.5l-6.5,-6.4c-.1,-.2,-.3,-.2,-.5,-.2c-.1,.1,-.3,.2,-.3,.3l-4.7,11.1c0,.2,0,.5,.1,.6c.1,.1,.3,.2,.4,.2m10.2,-5.4l-9.2,3.9l3.8,-9.2Z" class="gg_98"/>
<path d="M157.3,147.2l2.3,-5.4l3.1,3.1Z" class="gg_98"/>
<path d="M157.3,147.7c.1,0,.2,0,.2,-.1l5.4,-2.2c.1,-.1,.3,-.2,.3,-.4c0,-.2,0,-.3,-.1,-.5l-3.2,-3.1c-.1,-.1,-.3,-.2,-.4,-.1c-.2,0,-.4,.1,-.4,.3l-2.3,5.3c0,.2,0,.5,.1,.6c.1,.1,.3,.2,.4,.2m4.5,-3l-3.5,1.5l1.4,-3.5Z" class="gg_98"/>
<path d="M187.9,119.5l-3,-2.9l-21.2,21.2l3,3Z" class="gj_98"/>
<path d="M166.7,141.3c.1,0,.2,-.1,.3,-.2l21.3,-21.2c.1,-.1,.1,-.2,.1,-.4c0,-.1,0,-.2,-.1,-.3l-3,-3c-.2,-.2,-.5,-.2,-.8,0l-21.2,21.2c-.1,.1,-.1,.3,-.1,.4c0,.1,0,.3,.1,.4l3,2.9c.1,.1,.2,.2,.4,.2m20.4,-21.8L166.7,140l-2.2,-2.2l20.4,-20.5Z" class="gg_98"/>
<path d="M32.1,45.1H9.2m958.3,0h22.9M32.1,1331.3H9.2m958.3,0h22.9M45.1,32.1V9.2m0,1335.1v22.9M954.5,32.1V9.2m0,1335.1v22.9" class="gk_98"/>
<path d="M32.1,45.1H9.2m958.3,0h22.9M32.1,1331.3H9.2m958.3,0h22.9M45.1,32.1V9.2m0,1335.1v22.9M954.5,32.1V9.2m0,1335.1v22.9" class="gl_98"/>
<path d="M27.5,32.1H0m972.1,0h27.5M27.5,1344.3H0m972.1,0h27.5M32.1,27.5V0m0,1348.9v27.5M967.5,27.5V0m0,1348.9v27.5" class="gk_98"/>
<path d="M27.5,32.1H0m972.1,0h27.5M27.5,1344.3H0m972.1,0h27.5M32.1,27.5V0m0,1348.9v27.5M967.5,27.5V0m0,1348.9v27.5" class="gl_98"/>
</svg>