<?xml version="1.0" encoding="UTF-8" standalone="no"?>
<!DOCTYPE svg PUBLIC "-//W3C//DTD SVG 1.1//EN"
"http://www.w3.org/Graphics/SVG/1.1/DTD/svg11.dtd">
<svg viewBox="0 0 999 1376" version="1.1" xmlns="http://www.w3.org/2000/svg" xmlns:xlink="http://www.w3.org/1999/xlink">
<defs>
<clipPath id="c0_118"><path d="M32.1,1344.3V32.1H967.5V1344.3Z"/></clipPath>
<clipPath id="c1_118"><path d="M712.4,699.8V543.6H907.1V699.8Z"/></clipPath>
<clipPath id="c2_118"><path d="M710.6,705.1V539.5H913.5V705.1Z"/></clipPath>
<clipPath id="c3_118"><path d="M710.3,704.2v-165H913.2v165Z"/></clipPath>
<clipPath id="c4_118"><path d="M176.9,526.6l-6.5,-2.1L154,510.6V453.5h72v73.1Z"/></clipPath>
<clipPath id="c5_118"><path d="M177.5,1114.6l-6.5,-2.1l-16.4,-13.9v-57.1h72v73.1Z"/></clipPath>
<clipPath id="c6_118"><path d="M764.8,421.9V409.5h14.5v12.4Z"/></clipPath>
<clipPath id="c7_118"><path d="M91,956.8V758.3H265.9V956.8Z"/></clipPath>
<clipPath id="c8_118"><path d="M85.9,958.9V757H270.7V958.9Z"/></clipPath>
<clipPath id="c9_118"><path d="M85.6,958.6V756.7H269.8V958.6Z"/></clipPath>
<clipPath id="ca_118"><path d="M160.6,777.5c-.3,-.1,3.5,-8.2,3.5,-8.2l.8,.5c0,0,-4,7.7,-4.3,7.7Z"/></clipPath>
<clipPath id="cb_118"><path d="M168.1,769.8c0,0,-6.9,-1.1,-7.6,-5.2c-.6,-3.6,1.5,-3.9,2.1,-3.9q.1,0,.1,0L171,748l-1.4,-3.1c0,0,-.6,-1.1,.1,-2.1c.1,0,.2,-.1,.3,-.1c2.1,0,13,5.6,13,5.6v.1c-.3,.6,-.7,1.2,-1.4,1.7c-.6,.5,-5,1.1,-5,1.1l-8.5,18.6Z"/></clipPath>
<clipPath id="cc_118"><path d="M167.7,769.4c.2,-.4,.2,-1.8,0,-2.2v-1.4c-1.5,-.5,-2.9,-1.2,-3.7,-2.5c-1,.6,-2.1,1.2,-3.1,1.9c1.6,2.1,3.8,3.5,6.8,4.2Zm0,-3.9c2.2,-4.5,4,-9.5,6.2,-14c-.9,-.4,-1.9,-1.4,-2.7,-1.4c-2.3,4.3,-4.6,8.6,-7,12.8c.7,1.3,2.1,2,3.5,2.6Zm-7.3,12.1c1,-2.9,2.4,-5.5,3.5,-8.3c-2,-1.5,-3.9,-3.1,-4.4,-6.2v-1.5c0,-2.7,1.9,-3.4,4.6,-3.4q.1,0,.2,0c1.9,-3.3,4.2,-6.3,6.2,-9.6c-.6,-.9,-1.2,-2.4,-.9,-3.7c.5,1.3,1.6,1.9,2.4,2.9c-.2,.6,-.3,1.2,-.4,1.8c.6,.6,1.3,1.2,2.4,1.4c.4,-.5,.5,-1.3,1.1,-1.6c.9,.4,1.8,.8,3.1,.8c.2,.1,.5,.2,.9,.2c.3,0,.6,-.1,.8,-.2c.1,0,.2,0,.3,0c.2,0,.4,0,.6,-.1c.2,-.1,.4,-.1,.5,-.1c.1,0,.2,0,.3,.1c-1.3,.6,-2.2,1.8,-4.1,1.8c-.1,0,-.3,-.1,-.4,-.1c-.9,3.8,-1.8,7.4,-2.6,11.2c.5,1.1,1.5,1.7,1.2,3.2c-.4,2.7,-3.8,4.4,-7.2,4.4c-1.2,0,-2.5,-.3,-3.6,-.8c-1,2.1,-2,4.1,-3.2,6c-.1,-.3,.2,-.3,.2,-.7c1,-1.8,1.9,-3.6,2.6,-5.7c-1,1.7,-1.8,3.7,-2.7,5.6c-.2,.4,-.4,.8,-.6,1.2c-.3,.4,-.3,1.1,-.8,1.4Z"/></clipPath>
<clipPath id="cd_118"><path d="M178.1,749.8c-4.8,0,-13.1,-7.3,-5.5,-8.8h1.3c.1,.1,.3,.1,.5,.1c0,0,.1,0,.1,0q.1,0,.2,0c.3,0,.6,0,.9,.1c3.1,.6,8.2,3.8,7.5,7c-.2,1.1,-1.5,1.6,-3.1,1.6h-1.9Z"/></clipPath>
<clipPath id="ce_118"><path d="M818.5,559.9c-.2,0,3.6,-8.2,3.6,-8.2l.8,.5c0,0,-4.1,7.7,-4.4,7.7Z"/></clipPath>
<clipPath id="cf_118"><path d="M826,552.2c0,0,-6.8,-1.1,-7.5,-5.2c-.7,-3.6,1.5,-3.8,2.1,-3.8c0,0,.1,0,.1,0L829,530.4l-1.5,-3c0,0,-.6,-1.2,.2,-2.1c0,-.1,.1,-.1,.3,-.1c2.1,0,12.9,5.5,12.9,5.5l.1,.2c-.4,.5,-.8,1.1,-1.4,1.6c-.7,.5,-5.1,1.2,-5.1,1.2L826,552.2Z"/></clipPath>
<clipPath id="cg_118"><path d="M825.6,551.9c.2,-.5,.2,-1.8,0,-2.3v-1.4c-1.5,-.5,-2.8,-1.2,-3.6,-2.5c-1.1,.6,-2.1,1.2,-3.1,1.9c1.5,2.1,3.8,3.5,6.7,4.3Zm0,-3.9c2.2,-4.6,4,-9.5,6.2,-14.1c-.9,-.4,-1.9,-1.3,-2.6,-1.4c-2.3,4.3,-4.6,8.6,-7.1,12.8c.7,1.4,2.1,2,3.5,2.7Zm-7.2,12c1,-2.9,2.4,-5.5,3.5,-8.3c-2,-1.5,-4,-3.1,-4.4,-6.1v-1.5c-.1,-2.7,1.9,-3.4,4.5,-3.4c.1,0,.2,0,.3,0c1.9,-3.4,4.2,-6.4,6.1,-9.7c-.6,-.9,-1.2,-2.4,-.9,-3.6c.5,1.2,1.7,1.8,2.4,2.8c-.1,.6,-.3,1.2,-.4,1.8c.6,.7,1.4,1.2,2.4,1.4c.5,-.4,.5,-1.3,1.2,-1.5c.9,.3,1.8,.7,3.1,.7c.1,.1,.5,.2,.8,.2c.4,0,.7,-.1,.8,-.2c.1,.1,.2,.1,.3,.1c.3,0,.5,-.1,.7,-.2c.1,0,.3,-.1,.5,-.1c.1,0,.2,0,.3,.1c-1.3,.7,-2.2,1.8,-4.2,1.8c-.1,0,-.2,0,-.3,0c-.9,3.7,-1.9,7.3,-2.7,11.2c.6,1,1.5,1.6,1.3,3.1c-.5,2.7,-3.9,4.4,-7.2,4.4c-1.3,0,-2.5,-.3,-3.6,-.8c-1,2.1,-2.1,4.2,-3.3,6.1c0,-.4,.3,-.4,.3,-.8c.9,-1.8,1.9,-3.6,2.6,-5.6c-1.1,1.7,-1.8,3.7,-2.8,5.5c-.2,.4,-.4,.8,-.6,1.2c-.3,.5,-.3,1.2,-.7,1.4Z"/></clipPath>
<clipPath id="ch_118"><path d="M836.1,532.3c-4.8,0,-13.1,-7.3,-5.6,-8.8h1.3c.1,0,.3,0,.5,0c0,0,.1,0,.2,0c.3,0,.7,0,1.1,.1c3,.6,8.2,3.8,7.5,7c-.2,1.2,-1.6,1.6,-3.1,1.7h-1.8c0,0,-.1,0,-.1,0Z"/></clipPath>
<clipPath id="ci_118"><path d="M723.5,935V817.3H876.4V935Z"/></clipPath>
<clipPath id="cj_118"><path d="M725.2,937V814.9H879.8V937Z"/></clipPath>
<clipPath id="ck_118"><path d="M724.9,936.7V814.6H879.4V936.7Z"/></clipPath>
<clipPath id="cl_118"><path d="M802.5,832.9c-.3,0,3.6,-8.2,3.6,-8.2l.7,.5c0,0,-4,7.7,-4.3,7.7Z"/></clipPath>
<clipPath id="cm_118"><path d="M810,825.2c0,0,-6.8,-1.1,-7.6,-5.2c-.6,-3.6,1.5,-3.8,2.1,-3.8q.1,0,.1,0l8.3,-12.8l-1.4,-3.1c0,0,-.6,-1.1,.1,-2c.1,-.1,.2,-.1,.3,-.1c2.1,0,13,5.5,13,5.5v.2c-.3,.5,-.7,1.1,-1.4,1.6c-.6,.5,-5,1.2,-5,1.2L810,825.2Z"/></clipPath>
<clipPath id="cn_118"><path d="M809.6,824.9c.2,-.5,.2,-1.8,0,-2.3v-1.4c-1.5,-.5,-2.9,-1.2,-3.6,-2.5c-1.1,.6,-2.2,1.2,-3.2,1.9c1.6,2.1,3.8,3.5,6.8,4.3Zm0,-3.9c2.2,-4.6,4,-9.5,6.2,-14.1c-.9,-.4,-1.9,-1.3,-2.7,-1.4c-2.3,4.3,-4.6,8.6,-7,12.8c.7,1.3,2.1,2,3.5,2.7Zm-7.3,12c1.1,-2.9,2.4,-5.5,3.5,-8.3c-2,-1.5,-3.9,-3.1,-4.4,-6.1v-1.5c0,-2.7,2,-3.4,4.6,-3.4q.1,0,.2,0c1.9,-3.4,4.2,-6.4,6.2,-9.7c-.6,-.9,-1.2,-2.4,-.9,-3.7c.5,1.3,1.6,1.9,2.4,2.9c-.1,.6,-.3,1.2,-.4,1.8c.6,.7,1.3,1.2,2.4,1.4c.4,-.4,.5,-1.3,1.1,-1.5c1,.3,1.9,.7,3.2,.7c.1,.1,.4,.2,.8,.2c.3,0,.7,-.1,.8,-.2c.1,.1,.2,.1,.3,.1c.2,0,.4,-.1,.6,-.2c.2,0,.4,-.1,.5,-.1c.1,0,.2,0,.3,.1c-1.3,.7,-2.1,1.8,-4.1,1.8c-.1,0,-.3,0,-.4,0c-.8,3.7,-1.8,7.3,-2.6,11.1c.5,1.1,1.5,1.7,1.2,3.2c-.4,2.7,-3.8,4.4,-7.2,4.4c-1.2,0,-2.5,-.3,-3.6,-.8c-1,2.1,-2,4.2,-3.2,6.1c-.1,-.4,.3,-.4,.2,-.8c1,-1.8,2,-3.6,2.7,-5.6c-1.1,1.7,-1.9,3.7,-2.8,5.5c-.2,.4,-.4,.8,-.6,1.2c-.3,.5,-.3,1.2,-.8,1.4Z"/></clipPath>
<clipPath id="co_118"><path d="M820,805.3c-4.8,0,-13,-7.4,-5.5,-8.8h1.3c.1,0,.3,0,.5,0c0,0,.1,0,.2,0c.3,0,.6,0,1,.1c3.1,.6,8.2,3.8,7.6,7c-.3,1.2,-1.6,1.6,-3.2,1.7h-1.7q-.1,0,-.2,0Z"/></clipPath>
<clipPath id="cp_118"><path d="M125.5,386.7V205.8H858.6V386.7Z"/></clipPath>
<style type="text/css"><![CDATA[
.g0_118{
fill: #FEFCF4;
}
.g1_118{
fill: #FFF;
}
.g2_118{
fill: none;
stroke: #6381B7;
stroke-width: 0.763;
}
.g3_118{
fill: #6381B7;
}
.g4_118{
fill: none;
stroke: #6381B7;
stroke-width: 0.381;
stroke-dasharray: 2,1;
}
.g5_118{
fill: none;
stroke: #6381B7;
stroke-width: 0.381;
}
.g6_118{
fill: #F7C2D9;
}
.g7_118{
fill: #FDF4F3;
}
.g8_118{
fill: #EC008C;
}
.g9_118{
fill: none;
stroke: #818385;
stroke-width: 0.305;
stroke-dasharray: 4,4;
}
.ga_118{
fill: none;
stroke: #818385;
stroke-width: 0.305;
}
.gb_118{
fill: none;
stroke: #949698;
stroke-width: 0.305;
stroke-dasharray: 4,4;
}
.gc_118{
fill: #6D6F71;
}
.gd_118{
fill: #FCE8B0;
}
.ge_118{
fill: #25408F;
}
.gf_118{
fill: #A8AAAD;
}
.gg_118{
fill: none;
stroke: #949698;
stroke-width: 0.549;
}
.gh_118{
fill: none;
stroke: #BCBEC0;
stroke-width: 2.566;
}
.gi_118{
fill: #231F20;
}
.gj_118{
fill: #363637;
}
.gk_118{
fill: #5CC4BE;
}
.gl_118{
fill: #EAD646;
}
.gm_118{
fill: none;
stroke: #949698;
stroke-width: 0.305;
}
.gn_118{
fill: #2E6E51;
}
.go_118{
fill: none;
stroke: #FFF;
stroke-width: 0.152;
stroke-miterlimit: 1;
}
.gp_118{
fill: #BCBEC0;
}
.gq_118{
fill: #EE314A;
}
.gr_118{
fill: #CEEDFB;
}
.gs_118{
fill: #27639D;
}
.gt_118{
fill: none;
stroke: #C3E7F1;
stroke-width: 1.527;
}
.gu_118{
fill: none;
stroke: #FFF;
stroke-width: 1.909;
stroke-miterlimit: 10;
}
.gv_118{
fill: none;
stroke: #000;
stroke-width: 0.381;
stroke-miterlimit: 10;
}
]]></style>
</defs>
<path d="M32.1,1344.3H954.5V32.1H32.1V1344.3Z" class="g0_118"/>
<path clip-path="url(#c0_118)" d="M954.5,1344.3H1877V32.1H954.5V1344.3Z" class="g0_118"/>
<path d="M150.4,427.5c0,0,-18.3,0,-18.3,18.3v555c0,0,0,18.3,18.3,18.3H827.5c0,0,18.4,0,18.4,-18.3V427.5Z" class="g1_118"/>
<path d="M150.4,427.5c0,0,-18.3,0,-18.3,18.3v555c0,0,0,18.3,18.3,18.3H827.5c0,0,18.4,0,18.4,-18.3V427.5H150.4Z" class="g2_118"/>
<path d="M145.1,1028.5c0,0,-13,0,-13,13v155.2c0,0,0,13,13,13H832.9c0,0,13,0,13,-13V1041.5c0,0,0,-13,-13,-13Z" class="g1_118"/>
<path d="M145.1,1028.5c0,0,-13,0,-13,13v155.2c0,0,0,13,13,13H832.9c0,0,13,0,13,-13V1041.5c0,0,0,-13,-13,-13H145.1Z" class="g2_118"/>
<path d="M466.4,1225.5c0,0,-4.4,0,-4.4,4.4v10.8c0,0,0,4.3,4.4,4.3h30.3c0,0,4.3,0,4.3,-4.3v-10.8c0,0,0,-4.4,-4.3,-4.4Z" class="g3_118"/>
<path d="M453.2,1218.1v34.8m1.3,1H845m1,-1.4v-34.8m-1.4,-1H454.1" class="g4_118"/>
<path d="M453.2,1253.3v.6h.6m391.6,0h.6v-.6m0,-36v-.6h-.6m-391.6,0h-.6v.6" class="g5_118"/>
<image clip-path="url(#c1_118)" preserveAspectRatio="none" x="712" y="544" width="195" height="156" xlink:href="img/1.png"/>
<path d="M717.7,548.8l2,144.8l180.7,.1l.5,-143Z" class="g6_118"/>
<image clip-path="url(#c2_118)" preserveAspectRatio="none" x="710" y="540" width="203" height="166" xlink:href="img/2.png"/>
<image clip-path="url(#c3_118)" preserveAspectRatio="none" x="710" y="540" width="203" height="165" xlink:href="img/3.png"/>
<path d="M726.1,543.9L715,687.2l148.3,11.1l34.9,-23.8l9.2,-117.2Z" class="g7_118"/>
<path d="M863.2,698.9l34.9,-24.4l-19.6,-6.4Z" class="g8_118"/>
<path d="M528.6,592.1c13.9,-.9,25,-5.7,27.9,-11.8m-.8,-7.8c-4.1,-5.6,-15.2,-9.8,-28.7,-10.4m-8.3,.1c-13.9,.9,-25,5.6,-27.9,11.7m.8,7.8c4.1,5.7,15.2,9.9,28.7,10.5" class="g9_118"/>
<path d="M557.1,578.8c.1,-.6,.1,-1.1,.1,-1.7c0,-.5,0,-1.1,-.1,-1.6M525.3,562c-.5,0,-1.1,0,-1.6,0c-.6,0,-1.2,0,-1.7,0m-31.8,13.5c-.1,.5,-.1,1.1,-.1,1.6c0,.6,0,1.1,.1,1.7M522,592.2c.5,0,1.1,0,1.7,0c.5,0,1.1,0,1.6,0" class="ga_118"/>
<path d="M550.9,568.3c0,0,98.3,-47.7,171.8,-7.6" class="gb_118"/>
<path d="M722.5,555.4l-6,6.4l11.4,4.4Z" class="gc_118"/>
<path d="M209.6,455.6c0,0,-13,0,-13,13v47.7c0,0,0,12.9,13,12.9H811.5c0,0,13,0,13,-12.9V468.6c0,0,0,-13,-13,-13Z" class="gd_118"/>
<image clip-path="url(#c4_118)" preserveAspectRatio="none" x="152" y="452" width="75" height="76" xlink:href="img/4.png"/>
<path d="M204.3,521.9c0,0,-26.8,11.3,-51.1,-12.8c0,0,15.2,25.3,49.3,24c0,0,24.8,.3,20.3,-10.1c0,0,1.2,-4.5,-18.5,-1.1Z" class="gd_118"/>
<path d="M210.2,1069.6c0,0,-13,0,-13,13v21.7c0,0,0,13,13,13H812.1c0,0,13,0,13,-13v-21.7c0,0,0,-13,-13,-13Z" class="gd_118"/>
<image clip-path="url(#c5_118)" preserveAspectRatio="none" x="153" y="1040" width="75" height="76" xlink:href="img/5.png"/>
<path d="M205,1109.9c0,0,-26.9,11.3,-51.1,-12.8c0,0,15.1,25.4,49.2,24c0,0,24.8,.3,20.3,-10.1c0,0,1.2,-4.5,-18.4,-1.1Z" class="gd_118"/>
<path d="M131.7,401.3v39l11.7,10.3V406.4Z" class="ge_118"/>
<path d="M131.7,401.3v39H829.5c0,0,16.8,0,16.8,-16.8v-5.4c0,0,0,-16.8,-16.8,-16.8Z" class="g3_118"/>
<path d="M781,434.9c8.2,0,14.8,-6.5,14.8,-14.5c0,-8,-6.6,-14.5,-14.8,-14.5c-8.3,0,-14.9,6.5,-14.9,14.5c0,8,6.6,14.5,14.9,14.5Z" class="gf_118"/>
<path d="M781,434.9c8.2,0,14.8,-6.5,14.8,-14.5c0,-8,-6.6,-14.5,-14.8,-14.5c-8.3,0,-14.9,6.5,-14.9,14.5c0,8,6.6,14.5,14.9,14.5Z" class="gg_118"/>
<path d="M781,425.8c3,0,5.4,-2.4,5.4,-5.4c0,-2.9,-2.4,-5.3,-5.4,-5.3c-3.1,0,-5.5,2.4,-5.5,5.3c0,3,2.4,5.4,5.5,5.4Z" class="g1_118"/>
<path d="M781,425.8c3,0,5.4,-2.4,5.4,-5.4c0,-2.9,-2.4,-5.3,-5.4,-5.3c-3.1,0,-5.5,2.4,-5.5,5.3c0,3,2.4,5.4,5.5,5.4Z" class="gh_118"/>
<g clip-path="url(#c6_118)" opacity="0.3">
<path d="M766.4,419.6c0,0,-.1,-4.8,3.6,-8.6l7.8,6.7c0,0,-1,.9,-1.1,2.7Z" class="g1_118"/>
</g>
<path d="M785.6,420.3c0,0,-3.5,0,-3.5,3.5v8.7c0,0,0,3.4,3.5,3.4H829c0,0,3.5,0,3.5,-3.4v-8.7c0,0,0,-3.5,-3.5,-3.5Z" class="gi_118"/>
<path d="M169.5,411.4c0,-8.3,-6.7,-15.1,-15,-15.1c-8.4,0,-15.1,6.8,-15.1,15.1c0,8.3,6.8,15,15.1,15c.8,0,1.6,0,2.4,-.2l4.5,5.3v-6.8c4.8,-2.5,8.1,-7.5,8.1,-13.3Z" class="g1_118"/>
<path d="M161.8,432.7l-5.1,-6c-.7,.1,-1.5,.2,-2.2,.2c-8.6,0,-15.6,-7,-15.6,-15.5c0,-8.6,7,-15.5,15.6,-15.5c8.5,0,15.5,6.9,15.5,15.5c0,5.7,-3.1,10.9,-8.2,13.6Zm-4.7,-7l3.8,4.5v-5.7l.3,-.2c4.8,-2.5,7.9,-7.4,7.9,-12.9c0,-8.1,-6.6,-14.6,-14.6,-14.6c-8.1,0,-14.6,6.5,-14.6,14.6c0,8,6.5,14.6,14.6,14.6c.7,0,1.5,-.1,2.3,-.2Z" class="gj_118"/>
<path d="M147.4,410.9c.8,0,1.5,.7,1.5,1.5c0,.8,-.7,1.4,-1.5,1.4c-.7,0,-1.4,-.6,-1.4,-1.4c0,-.8,.7,-1.5,1.4,-1.5Z" class="gk_118"/>
<path d="M147.4,414.3c-1,0,-1.8,-.9,-1.8,-1.9c0,-1.1,.8,-1.9,1.8,-1.9c1.1,0,1.9,.8,1.9,1.9c0,1,-.8,1.9,-1.9,1.9m0,-2.9c-.5,0,-.9,.4,-.9,1c0,.5,.4,1,.9,1c.6,0,1,-.5,1,-1c0,-.6,-.4,-1,-1,-1Z" class="gj_118"/>
<path d="M154.5,410.9c.8,0,1.4,.7,1.4,1.5c0,.8,-.6,1.4,-1.4,1.4c-.8,0,-1.5,-.6,-1.5,-1.4c0,-.8,.7,-1.5,1.5,-1.5Z" class="gk_118"/>
<path d="M154.5,414.3c-1.1,0,-1.9,-.9,-1.9,-1.9c0,-1.1,.8,-1.9,1.9,-1.9c1,0,1.9,.8,1.9,1.9c0,1,-.9,1.9,-1.9,1.9m0,-2.9c-.6,0,-1,.4,-1,1c0,.5,.4,1,1,1c.5,0,.9,-.5,.9,-1c0,-.6,-.4,-1,-.9,-1Z" class="gj_118"/>
<path d="M161.5,410.9c.8,0,1.4,.7,1.4,1.5c0,.8,-.6,1.4,-1.4,1.4c-.8,0,-1.5,-.6,-1.5,-1.4c0,-.8,.7,-1.5,1.5,-1.5Z" class="gk_118"/>
<path d="M161.5,414.3c-1.1,0,-1.9,-.9,-1.9,-1.9c0,-1.1,.8,-1.9,1.9,-1.9c1,0,1.9,.8,1.9,1.9c0,1,-.9,1.9,-1.9,1.9m0,-2.9c-.6,0,-1,.4,-1,1c0,.5,.4,1,1,1c.5,0,1,-.5,1,-1c0,-.6,-.5,-1,-1,-1Z" class="gj_118"/>
<path d="M163.4,425.6c0,-9.7,7.9,-17.6,17.6,-17.6c9.7,0,17.6,7.9,17.6,17.6c0,9.7,-7.9,17.6,-17.6,17.6c-.9,0,-1.9,-.1,-2.8,-.2l-5.3,6.1v-7.8c-5.6,-3,-9.5,-8.9,-9.5,-15.7Z" class="gl_118"/>
<path d="M172.9,449.6c0,0,-.1,0,-.1,-.1c-.2,0,-.3,-.2,-.3,-.4v-7.6c-5.9,-3.1,-9.6,-9.2,-9.6,-15.9c0,-10,8.2,-18.1,18.1,-18.1c10,0,18.1,8.1,18.1,18.1c0,10,-8.1,18.1,-18.1,18.1c-.8,0,-1.7,-.1,-2.6,-.2l-5.1,5.9c-.1,.1,-.2,.2,-.4,.2M181,408.5c-9.4,0,-17.1,7.6,-17.1,17.1c0,6.5,3.5,12.3,9.2,15.3c.2,0,.3,.2,.3,.4v6.6l4.4,-5.2c.1,-.1,.3,-.2,.5,-.2c.9,.2,1.8,.3,2.7,.3c9.5,0,17.2,-7.7,17.2,-17.2c0,-9.5,-7.7,-17.1,-17.2,-17.1Z" class="gj_118"/>
<path d="M189.2,425.1c.9,0,1.7,.8,1.7,1.7c0,.9,-.8,1.7,-1.7,1.7c-.9,0,-1.7,-.8,-1.7,-1.7c0,-.9,.8,-1.7,1.7,-1.7Z" class="g1_118"/>
<path d="M189.2,428.9c-1.2,0,-2.1,-.9,-2.1,-2.1c0,-1.2,.9,-2.1,2.1,-2.1c1.2,0,2.1,.9,2.1,2.1c0,1.2,-.9,2.1,-2.1,2.1m0,-3.3c-.7,0,-1.2,.5,-1.2,1.2c0,.7,.5,1.2,1.2,1.2c.7,0,1.2,-.5,1.2,-1.2c0,-.7,-.5,-1.2,-1.2,-1.2Z" class="gj_118"/>
<path d="M181,425.1c.9,0,1.7,.8,1.7,1.7c0,.9,-.8,1.7,-1.7,1.7c-.9,0,-1.7,-.8,-1.7,-1.7c0,-.9,.8,-1.7,1.7,-1.7Z" class="g1_118"/>
<path d="M181,428.9c-1.2,0,-2.1,-.9,-2.1,-2.1c0,-1.2,.9,-2.1,2.1,-2.1c1.2,0,2.1,.9,2.1,2.1c0,1.2,-.9,2.1,-2.1,2.1m0,-3.3c-.7,0,-1.2,.5,-1.2,1.2c0,.7,.5,1.2,1.2,1.2c.7,0,1.2,-.5,1.2,-1.2c0,-.7,-.5,-1.2,-1.2,-1.2Z" class="gj_118"/>
<path d="M172.8,425.1c.9,0,1.7,.8,1.7,1.7c0,.9,-.8,1.7,-1.7,1.7c-.9,0,-1.7,-.8,-1.7,-1.7c0,-.9,.8,-1.7,1.7,-1.7Z" class="g1_118"/>
<path d="M172.8,428.9c-1.2,0,-2.1,-.9,-2.1,-2.1c0,-1.2,.9,-2.1,2.1,-2.1c1.2,0,2.1,.9,2.1,2.1c0,1.2,-.9,2.1,-2.1,2.1m0,-3.3c-.7,0,-1.2,.5,-1.2,1.2c0,.7,.5,1.2,1.2,1.2c.7,0,1.2,-.5,1.2,-1.2c0,-.7,-.5,-1.2,-1.2,-1.2Z" class="gj_118"/>
<image clip-path="url(#c7_118)" preserveAspectRatio="none" x="91" y="758" width="175" height="199" xlink:href="img/6.png"/>
<path d="M95.9,763.9l1.4,186.5l161.6,-.2l.5,-186.6Z" class="g6_118"/>
<image clip-path="url(#c8_118)" preserveAspectRatio="none" x="86" y="758" width="184" height="201" xlink:href="img/7.png"/>
<image clip-path="url(#c9_118)" preserveAspectRatio="none" x="86" y="757" width="184" height="202" xlink:href="img/8.png"/>
<path d="M90.5,771.7l12.4,181l130.2,-8l30.8,-25.3L253.7,761.5Z" class="g7_118"/>
<path d="M232.4,945.9L265,920.3l-19.8,-4.8Z" class="g8_118"/>
<path d="M381.7,964.8c2.9,-25.1,12.8,-145.3,-63.4,-169.9m-7.6,-1c-3.8,1.4,-2.1,7.4,1.6,8.4m6.1,-3.5c.1,-3.6,-5.7,-8.9,-18.4,-14.1M292.8,782c-21.2,-7.3,-60.7,-15.5,-100.7,-8.8" class="gb_118"/>
<path d="M381.1,969.4c0,0,.1,-.6,.2,-1.5M316.8,794.4c-.5,-.1,-1,-.3,-1.5,-.4c-.5,-.2,-1.1,-.3,-1.5,-.3m.1,8.8c.5,0,1,-.2,1.5,-.4c.6,-.2,1,-.4,1.4,-.7M298.5,784.1c-.4,-.2,-.9,-.4,-1.4,-.6c-.5,-.2,-1,-.4,-1.5,-.5m-105,-9.5c-.5,.1,-1,.2,-1.5,.3" class="gm_118"/>
<path d="M389.3,996.7c10.6,-1,19.2,-5.1,21.7,-10.3m-.9,-7.9c-3.4,-4.8,-12.1,-8.4,-22.5,-9m-8.3,.1c-10.7,1,-19.2,5.1,-21.7,10.4m.9,7.8c3.4,4.8,12,8.4,22.5,9.1" class="g9_118"/>
<path d="M411.5,984.8c.1,-.5,.2,-1.1,.2,-1.6c0,-.6,-.1,-1.1,-.2,-1.7M386,969.4c-.6,0,-1.1,0,-1.7,0c-.6,0,-1.1,0,-1.7,0m-25.5,12.1c-.1,.6,-.2,1.1,-.2,1.7c0,.5,.1,1.1,.2,1.6m25.5,12.1c.6,0,1.1,.1,1.7,.1c.6,0,1.1,-.1,1.7,-.1" class="ga_118"/>
<path d="M192.9,776.9l-1.5,-8.7L181,774.5Z" class="gc_118"/>
<image clip-path="url(#ca_118)" x="160" y="769" width="5" height="9" xlink:href="shade/1.png"/>
<image clip-path="url(#cb_118)" x="159" y="742" width="25" height="28" xlink:href="shade/2.png"/>
<image clip-path="url(#cc_118)" x="159" y="744" width="23" height="34" xlink:href="shade/3.png"/>
<image clip-path="url(#cd_118)" x="164" y="741" width="20" height="9" xlink:href="shade/4.png"/>
<image clip-path="url(#ce_118)" x="818" y="551" width="5" height="10" xlink:href="shade/5.png"/>
<image clip-path="url(#cf_118)" x="817" y="525" width="24" height="28" xlink:href="shade/6.png"/>
<image clip-path="url(#cg_118)" x="817" y="527" width="23" height="34" xlink:href="shade/7.png"/>
<image clip-path="url(#ch_118)" x="822" y="523" width="20" height="10" xlink:href="shade/8.png"/>
<image clip-path="url(#ci_118)" preserveAspectRatio="none" x="723" y="818" width="153" height="118" xlink:href="img/9.png"/>
<path d="M736.4,822.2l-8.1,98.6l135.3,8.3l7,-98.7Z" class="g6_118"/>
<image clip-path="url(#cj_118)" preserveAspectRatio="none" x="725" y="815" width="154" height="122" xlink:href="img/10.png"/>
<image clip-path="url(#ck_118)" preserveAspectRatio="none" x="724" y="815" width="155" height="122" xlink:href="img/11.png"/>
<path d="M741.3,819.4l-11.6,99l108.6,12.4l27,-24.2l8,-72.1Z" class="g7_118"/>
<path d="M837.7,931.3l27.9,-24.1l-12.4,-6.3Z" class="g8_118"/>
<path d="M513.1,910.6c25.3,-.5,45.8,-5.1,50.7,-11.2m-1,-6.5c-6.5,-5.6,-26.8,-9.8,-51.2,-10.1m-7.5,0c-25.3,.5,-45.8,5.1,-50.7,11.2m1.1,6.5c6.4,5.6,26.7,9.8,51.1,10.1" class="g9_118"/>
<path d="M564.6,898.2c.2,-.5,.3,-1,.3,-1.5c0,-.5,-.1,-1,-.3,-1.5M510.1,882.8c-.5,0,-1,0,-1.5,0c-.5,0,-1,0,-1.5,0m-54.5,12.4c-.2,.5,-.3,1,-.3,1.5c0,.5,.1,1,.3,1.5m54.5,12.4c.5,0,1,0,1.5,0c.5,0,1,0,1.5,0" class="ga_118"/>
<path d="M548.7,887.2c0,0,105.3,-42.7,181.9,-36.1" class="gb_118"/>
<path d="M729.8,846.1l-.7,8.8l11.6,-3.5Z" class="gc_118"/>
<image clip-path="url(#cl_118)" x="802" y="824" width="5" height="10" xlink:href="shade/9.png"/>
<image clip-path="url(#cm_118)" x="801" y="798" width="24" height="28" xlink:href="shade/10.png"/>
<image clip-path="url(#cn_118)" x="801" y="800" width="23" height="34" xlink:href="shade/11.png"/>
<image clip-path="url(#co_118)" x="806" y="796" width="20" height="10" xlink:href="shade/12.png"/>
<path d="M32.1,179.3H967.5V32.1H32.1V179.3Z" class="gn_118"/>
<path d="M257.6,136.3c-.7,-1.4,-1.1,-2.3,-1.2,-2.8l-.9,2.6c-.6,-1.2,-1.1,-1.7,-1.6,-1.7c-.3,0,-.5,.1,-.8,.5c-.1,.2,-.2,.3,-.2,.5c-.1,.2,-.1,.3,-.2,.5c-.2,-.7,-.5,-1.2,-1,-1.5c-.4,-.3,-.9,-.4,-1.6,-.4c-.1,0,-.3,0,-.4,0c-.2,0,-.3,.1,-.4,.1l.4,.9h.3c.2,0,.3,0,.4,.1c.1,0,.3,0,.4,0q.1,0,.2,0c.3,.1,.6,.5,.9,1c-.9,.6,-1.4,1.3,-1.3,2.3c0,.3,.2,.6,.4,.8c.2,.2,.5,.3,.7,.3c.5,-.1,.8,-.5,1.2,-1.1c.1,.2,.2,.4,.4,.6c.2,.1,.3,.2,.5,.3c.3,.1,.6,0,.8,-.2c.3,-.3,.4,-.6,.3,-1c0,-.4,-.1,-.8,-.4,-1.2c-.3,-.4,-.6,-.6,-.9,-.8c.1,-.2,.2,-.4,.3,-.5c0,0,.1,-.1,.2,0c.5,.2,1.1,1,1.7,2.5l1,-2c.1,.1,.3,.3,.4,.5c.1,.1,.3,.4,.4,.7c.1,.5,.2,1,.3,1.5c-.1,.5,-.3,.8,-.8,1c-.2,-.3,-.5,-.4,-.8,-.4c-.3,0,-.6,.1,-.8,.4c-.3,.3,-.4,.6,-.4,1c0,.5,.2,.9,.4,1.2c.3,.2,.6,.4,1,.3c.3,0,.6,-.1,.8,-.4c.1,.3,.1,.5,.1,.7c0,.6,-.3,.9,-.8,1.2c-.3,.2,-.7,.2,-1.2,.2c-1.7,0,-3.2,-1,-4.3,-3c-.4,-.8,-.8,-1.6,-1.1,-2.6c-.4,-1,-.6,-2,-.8,-3.1l-.7,-.6c.2,1.4,.4,2.8,.8,4c.3,1.2,.7,2.3,1.1,3.2c.6,1.3,1.3,2.3,2.2,3c.8,.7,1.7,1.1,2.7,1.1c.7,-.1,1.3,-.3,1.9,-.8c.5,-.6,.8,-1.2,.8,-2c0,-.7,-.1,-1.4,-.5,-2c.2,-.2,.4,-.3,.5,-.5c.1,-.1,.2,-.3,.3,-.4c.1,-.3,.2,-.6,.2,-1.1c0,-.8,-.3,-1.8,-.9,-2.9Zm11.6,-1.1L268.1,134h-9.9l1,1.2h7.2v6.6h-.1c-1,-2.6,-2.3,-4,-3.7,-4c-.7,0,-1.3,.3,-1.8,.9c-.5,.5,-.7,1.2,-.7,2c0,1.5,.6,2.2,1.9,2.2c.4,0,.8,-.2,1,-.5c.3,-.4,.4,-.8,.4,-1.3c0,-.3,-.2,-.8,-.7,-1.5c.1,-.1,.2,-.1,.3,-.1c1.1,0,2.1,.8,2.9,2.5c.5,1.4,.8,2.9,.8,4.2l-.1,1.3l.8,.6V135.2h1.8Zm10.8,0L279,134H267.7l1.1,1.2h8.3v3.3c-.4,-1.3,-1,-2,-1.9,-2c-.3,0,-.5,.2,-.8,.5c-.3,.3,-.4,.6,-.4,1c-.7,-1,-1.5,-1.6,-2.4,-1.6c-.7,0,-1.2,.4,-1.7,1.2c-.3,.7,-.5,1.4,-.5,2.3c0,.5,0,1,.2,1.4c.1,.4,.3,.8,.6,1.1c.2,.3,.6,.5,.9,.7c.4,.1,.8,.2,1.2,.2c.6,-.1,1,-.2,1.2,-.5c.3,-.3,.5,-.7,.5,-1.2c0,-1.1,-.5,-1.7,-1.4,-1.7c-.3,0,-.6,.1,-.8,.3c-.2,.3,-.4,.6,-.4,1c0,.2,.1,.6,.4,1c-1,-.2,-1.5,-.8,-1.5,-1.7c0,-.3,0,-.6,.1,-.9c.1,-.3,.3,-.5,.5,-.7c.1,-.2,.3,-.4,.6,-.5c.2,-.1,.4,-.2,.7,-.2c.6,0,1.1,.2,1.5,.6c.5,.4,.7,1,.8,1.6l.5,-.2c-.1,-.3,-.1,-.5,-.1,-.7c0,-.9,.3,-1.3,.8,-1.3c.4,0,.7,.2,1,.5c.2,.3,.4,.7,.4,1.1v6.9l1,1.1V135.2H280Zm3.8,0l-1,-1.2h-.9c-.3,-.4,-.5,-1,-.7,-1.9l-.3,-.3c0,.2,0,.5,0,.9c0,.3,0,.7,0,1.2c.1,.5,.1,.9,.1,1.3c0,.3,0,.6,0,.9c-.2,-.8,-.4,-1.3,-.8,-1.6c-.3,-.3,-.8,-.5,-1.4,-.5h-1.2l1,1.2c.3,0,.6,.1,.9,.2c.3,.1,.5,.3,.7,.5c.2,.2,.4,.4,.5,.7c.1,.3,.2,.7,.2,1v8.9l1,1.2V135.2h1.9Zm8.6,-1.2H282.2l1.1,1.2c.3,.6,.7,1,.9,1.2c.2,.2,.4,.3,.7,.4c.2,.2,.5,.3,.9,.4c.7,.3,1.2,.5,1.4,.8c.4,.4,.6,1.1,.6,2.2c-.2,-.2,-.5,-.3,-.8,-.3c-.7,0,-1.1,.2,-1.5,.5c-.4,.4,-.6,1,-.6,1.6c0,.6,.1,1.1,.5,1.5c.3,.4,.7,.5,1.2,.5c.2,0,.5,0,.9,-.2c.3,-.1,.6,-.5,.9,-.9c1.3,.5,2.3,2,2.8,4.4l.4,.5V135.2h1.8l-1,-1.2Zm-1.8,9.8c-.2,-.4,-.4,-.8,-.7,-1.2c-.3,-.4,-.7,-.8,-1.1,-1.2c0,-.1,.1,-.2,.1,-.3v-.3c0,-1.1,-.4,-2.1,-1,-3.1c-.4,-.7,-1.1,-1.5,-2.2,-2.5h5v8.6h-.1ZM311.5,134H298.6l1,1.2h10v8.2L308.3,142c.1,-.6,.2,-1.3,.2,-1.9c0,-.8,-.2,-1.6,-.5,-2.2c-.2,-.5,-.5,-.9,-.9,-1.2c-.3,-.3,-.7,-.6,-1.1,-.7c-.3,-.1,-.6,-.2,-.8,-.2c-.6,0,-1.1,.2,-1.7,.7c-.3,.2,-.4,.5,-.6,.8c-.1,.3,-.2,.6,-.2,.9c0,.4,.1,.7,.2,.9c.2,.5,.6,.7,1,.8c.5,.1,.9,0,1.3,-.3c.2,-.2,.3,-.4,.5,-.6c.1,-.3,.2,-.5,.2,-.8c0,-.3,-.1,-.6,-.4,-1c.2,-.1,.4,-.1,.6,0c.2,0,.4,.1,.7,.3c.1,.2,.3,.4,.4,.7c.2,.3,.3,.6,.4,.9c0,.3,.1,.5,.1,.7c0,.6,-.2,1.1,-.4,1.7c-.4,.8,-1.2,1.3,-2.4,1.3c-.5,0,-1,-.2,-1.5,-.5c-.4,-.3,-.8,-.8,-1.2,-1.4c-.4,-.5,-.8,-1.2,-1,-2c-.3,-.8,-.6,-1.7,-.7,-2.7l-.6,-.3c0,1,.2,2,.4,2.9c.2,.9,.5,1.7,.8,2.3c.3,.5,.6,1,.9,1.5c.3,.4,.6,.8,1,1.1c.3,.3,.7,.6,1,.7c.4,.2,.7,.3,1.1,.3c.6,0,1.1,-.2,1.6,-.4c.5,-.3,.8,-.7,1.1,-1.2c1.2,.9,2,2.4,2.5,4.5v-.1l.3,.3V135.2h1.9l-1,-1.2Zm4.7,1.2l-1,-1.2h-.9c-.3,-.4,-.5,-1,-.6,-1.9l-.4,-.3c0,.2,0,.5,0,.9c0,.3,0,.7,.1,1.2c0,.5,0,.9,0,1.3c0,.3,0,.6,0,.9c-.2,-.8,-.4,-1.3,-.8,-1.6c-.3,-.3,-.8,-.5,-1.4,-.5H310l1,1.2c.3,0,.6,.1,.9,.2c.3,.1,.5,.3,.7,.5c.2,.2,.4,.4,.5,.7c.1,.3,.2,.7,.2,1v8.9l1,1.2V135.2h1.9ZM327.7,134h-13l1,1.2h4.5c-.4,.3,-.7,.8,-1.1,1.5c-.3,.6,-.4,1.2,-.4,1.7c0,.8,.2,1.5,.7,2.1c.4,.7,1,1,1.6,1c.4,0,.7,-.1,1.1,-.3c.5,-.2,.8,-.3,.9,-.3c.2,0,.3,.1,.4,.4c.1,.2,.2,.4,.2,.6c0,.6,-.4,1,-1,1.3c-.5,.3,-1,.5,-1.6,.5c-.5,0,-1,-.2,-1.5,-.6c-.5,-.4,-.9,-1,-1.3,-1.7c-.5,-.9,-.8,-2.1,-.9,-3.5c0,-.5,0,-.9,0,-1.3l-.5,-.3c0,1.2,0,2.3,.2,3.3c.1,1,.3,1.9,.6,2.7c.8,2.2,2.1,3.4,3.8,3.4c.8,0,1.5,-.4,2,-1c.6,-.7,.9,-1.5,.9,-2.4c0,-.3,-.1,-.6,-.2,-.9c-.1,-.4,-.2,-.7,-.4,-1.1c-.3,-.7,-.7,-1.2,-1.1,-1.4l-1.2,.7c-.2,.1,-.4,.2,-.6,.3c-.2,.1,-.4,.1,-.5,.1c-.5,0,-.8,-.3,-.8,-.9c0,-.4,.2,-1,.6,-1.7c.2,-.4,.4,-.7,.6,-.9c.1,-.2,.3,-.3,.5,-.3l.1,.1c.6,.9,1.3,1.6,2,1.9c.7,.3,1.5,.5,2.6,.5c-.4,1.2,-.7,2.5,-.7,3.6c.1,.9,.1,1.8,.3,2.6c.1,.8,.3,1.6,.6,2.4l1,.3c-.6,-1.3,-.8,-2.5,-.8,-3.4c0,-1.2,.1,-2.3,.4,-3.3c.3,-.9,.7,-1.7,1.3,-2.3l-1.6,-1.9c-.2,.2,-.6,.3,-1,.4c-.5,.1,-1,.1,-1.5,.1c-.1,0,-.3,0,-.5,-.1c-.2,-.1,-.4,-.1,-.6,-.3c-.2,-.1,-.3,-.2,-.5,-.3c-.1,-.2,-.2,-.3,-.2,-.5c0,-.2,.1,-.4,.3,-.5c.2,-.2,.4,-.3,.5,-.3h5.8l-1,-1.2Zm6.2,0h-6.7l1,1.2h3.4c-1.5,2,-2.2,4,-2.2,6.1c0,1.5,.3,2.8,.8,3.9c.6,1.4,1.5,2.1,2.7,2.1c.3,0,.5,0,.7,-.1c.2,-.1,.4,-.2,.6,-.4c.2,-.2,.3,-.4,.4,-.7c.1,-.2,.2,-.5,.2,-.8c0,-.4,-.2,-.9,-.4,-1.2c-.2,-.3,-.5,-.5,-.9,-.5c-.3,0,-.6,.2,-.8,.4c-.3,.3,-.4,.6,-.4,1c0,.2,0,.4,.1,.7c.1,.2,.3,.4,.5,.6c-.6,.2,-1.2,-.2,-1.9,-1.3c-.4,-.7,-.6,-1.5,-.6,-2.3c0,-1,.1,-1.9,.3,-2.7c.2,-.7,.5,-1.4,.8,-2.1c.4,-.7,.9,-1.3,1.4,-1.7c.6,-.5,1.2,-.8,2,-1l-1,-1.2Zm13.1,1.2L346,134H333.1l1,1.2h6.6v1c-2.2,.8,-4.1,2.1,-5.9,3.7l1.5,2.1c1.1,.1,2.1,.7,3.1,1.8c.4,.5,.7,1,1.1,1.6c.3,.7,.6,1.3,.8,2c0,.1,.1,.1,.2,.2c0,0,.1,.1,.2,.1v-10c1,0,1.8,.3,2.3,1c.6,.7,.9,1.4,.9,2.2l-.1,.3c-.1,-.2,-.3,-.3,-.5,-.4c-.1,-.2,-.3,-.2,-.5,-.2c-.3,0,-.6,.1,-.9,.4c-.2,.2,-.3,.5,-.3,.9c0,.2,0,.4,.1,.6c.1,.2,.2,.3,.3,.5c.1,.1,.3,.2,.4,.3c.2,.1,.4,.1,.5,.1c.3,0,.5,-.1,.7,-.2c.2,-.1,.4,-.3,.5,-.5c.2,-.2,.3,-.4,.4,-.7c.1,-.3,.1,-.5,.1,-.8c0,-1.3,-.3,-2.4,-1,-3.4c-.8,-1.2,-1.7,-1.7,-2.9,-1.7v-.9H347Zm-6.3,9.1h-.1c-.8,-1.8,-2,-3.1,-3.7,-4c.7,-.5,1.3,-1,1.9,-1.4c.6,-.4,1.3,-.8,1.9,-1.1v6.5ZM358.4,134c-.4,0,-.8,.2,-1.3,.4c-.4,.3,-.7,.5,-1.1,.8c-.6,.8,-1.1,1.8,-1.5,2.8c-.3,1,-.5,2.1,-.6,3.3c0,1.5,.3,2.8,.8,3.9c.6,1.4,1.6,2.1,2.7,2.1c.3,0,.5,0,.7,-.1c.3,-.1,.5,-.2,.6,-.4c.2,-.2,.3,-.4,.4,-.7c.1,-.2,.2,-.5,.2,-.8c0,-.4,-.1,-.9,-.4,-1.2c-.2,-.3,-.5,-.5,-.9,-.5c-.1,0,-.3,.1,-.4,.1c-.2,.1,-.3,.2,-.4,.3c-.1,.2,-.2,.3,-.3,.4c-.1,.2,-.1,.4,-.1,.6c0,.2,0,.4,.1,.7c.1,.2,.3,.4,.5,.6c0,0,-.1,.1,-.2,.1c-.7,0,-1.2,-.5,-1.7,-1.4c-.4,-.7,-.5,-1.5,-.5,-2.3c0,-1,0,-1.9,.2,-2.7c.2,-.7,.5,-1.4,.8,-2.1c.4,-.7,.9,-1.3,1.4,-1.7c.6,-.5,1.3,-.8,2,-1l-1,-1.2Zm13.3,1.2L370.6,134H357.7l1.1,1.2h6.6v1c-2.2,.8,-4.2,2.1,-5.9,3.7l1.4,2.1c1.2,.1,2.2,.7,3.1,1.8c.4,.5,.8,1,1.1,1.6c.3,.7,.6,1.3,.9,2q0,.1,.1,.2c.1,0,.2,.1,.2,.1v-10c1.1,0,1.9,.3,2.4,1c.6,.7,.8,1.4,.8,2.2l-.1,.3c-.1,-.2,-.2,-.3,-.4,-.4c-.2,-.2,-.3,-.2,-.6,-.2c-.3,0,-.6,.1,-.8,.4c-.2,.2,-.4,.5,-.4,.9c0,.2,.1,.4,.2,.6c0,.2,.1,.3,.3,.5c.1,.1,.2,.2,.4,.3c.2,.1,.3,.1,.5,.1c.2,0,.5,-.1,.7,-.2c.2,-.1,.3,-.3,.5,-.5c.1,-.2,.3,-.4,.3,-.7c.1,-.3,.2,-.5,.2,-.8c0,-1.3,-.4,-2.4,-1.1,-3.4c-.7,-1.2,-1.7,-1.7,-2.8,-1.7v-.9h5.3Zm-6.4,9.1c-.8,-1.8,-2.1,-3.1,-3.8,-4c.7,-.5,1.4,-1,2,-1.4c.6,-.4,1.2,-.8,1.8,-1.1v6.5Zm10.3,-9.1l-1,-1.2h-.9c-.3,-.4,-.5,-1,-.7,-1.9l-.3,-.3c0,.2,0,.5,0,.9c0,.3,0,.7,.1,1.2c0,.5,0,.9,0,1.3c0,.3,0,.6,0,.9c-.2,-.8,-.4,-1.3,-.8,-1.6c-.3,-.3,-.8,-.5,-1.4,-.5h-1.2l1,1.2c.3,0,.6,.1,.9,.2c.3,.1,.5,.3,.7,.5c.2,.2,.4,.4,.5,.7c.1,.3,.2,.7,.2,1v8.9l1,1.2V135.2h1.9Zm17.7,0l-1,-1.2q-.1,0,-.2,0c0,0,-.1,0,-.1,0c-.4,0,-.7,-.2,-.8,-.6c0,-.1,0,-.2,-.1,-.4c0,-.2,0,-.5,-.1,-.8c0,-.1,-.1,-.1,-.2,-.2c-.1,-.1,-.2,-.2,-.2,-.3c0,1.1,.1,2.2,.1,3.2c.1,1.1,.1,2.1,.1,3.2c-1.3,-2.6,-2.7,-3.9,-4.2,-3.9c-.3,0,-.8,.1,-1.2,.3c-.4,.1,-.9,.4,-1.3,.7c-.2,.1,-.3,.3,-.4,.4c-.1,.1,-.3,.2,-.4,.3c-.1,-.2,-.2,-.4,-.3,-.7c-.1,-.1,-.2,-.2,-.3,-.4c-.1,-.1,-.2,-.3,-.3,-.4c-.1,-.1,-.2,-.2,-.4,-.3c-.1,-.1,-.2,-.1,-.3,-.1h-7.5l1.1,1.2c.2,0,.4,0,.6,0c.2,0,.4,0,.6,.1c.2,0,.3,0,.4,0c.2,0,.2,.1,.3,.1c.1,.1,.3,.8,.4,1.9c-.1,.1,-.3,.2,-.6,.4c-.3,.1,-.5,.2,-.6,.3c-.2,.3,-.3,.6,-.3,1.1c0,.3,.1,.6,.3,.9c.2,.3,.5,.4,.8,.4c.4,0,.7,-.1,1,-.4c.3,-.2,.4,-.6,.4,-1v-.3c.6,.8,1,1.2,1.3,1.4c.5,.5,1.1,.7,1.5,.7c.7,0,1.2,-.4,1.6,-1.2v.1c.1,-.3,.3,-.7,.4,-1c.2,0,.4,-.1,.7,-.3c.4,-.1,.6,-.2,.7,-.2c.5,0,.7,.4,.7,1.2c0,.5,-.4,1.1,-1.1,1.9l1.5,.6l3.5,-4.2c.2,.1,.3,.2,.4,.4c.2,.2,.3,.4,.4,.6c.3,.5,.4,1,.4,1.3l-.1,6.4l1.1,1.3V135.2h1.7Zm-11,3.3c-.2,.3,-.5,.5,-1.1,.5c-.6,0,-1.1,-.2,-1.6,-.6c-.1,-.1,-.3,-.3,-.4,-.6c-.2,-.2,-.3,-.5,-.5,-.9l-.7,-1.7h3.7c.5,0,.8,.7,.8,2c0,.6,-.1,1.1,-.2,1.3Zm3.8,.9c0,-.7,-.1,-1.2,-.3,-1.6c-.3,-.5,-.7,-.7,-1.2,-.7c.5,-1.1,1.3,-1.6,2.4,-1.6c.6,0,1.1,.3,1.6,.9l-2.5,3Zm11.2,-4.2l-1,-1.2h-.9c-.3,-.4,-.5,-1,-.7,-1.9l-.3,-.3c0,.2,0,.5,0,.9c0,.3,0,.7,0,1.2c.1,.5,.1,.9,.1,1.3c0,.3,0,.6,0,.9c-.2,-.8,-.4,-1.3,-.8,-1.6c-.3,-.3,-.8,-.5,-1.4,-.5h-1.2l1,1.2c.3,0,.6,.1,.9,.2c.3,.1,.5,.3,.7,.5c.2,.2,.4,.4,.5,.7c.1,.3,.2,.7,.2,1v8.9l1,1.2V135.2h1.9Zm10.1,-3.3c-2,-2.4,-4.1,-3.6,-6.2,-3.6c-.8,0,-1.7,.4,-2.6,1.2c-.9,.9,-1.4,1.8,-1.4,2.7c0,.4,.1,.7,.4,1l.7,.8h-2.7l1,1.2h1.6v11.3l1,1.2V135.2H401L399.9,134h-1.1l-.4,-1.1c.1,-.9,.5,-1.6,1.4,-2.3c.8,-.7,1.6,-1,2.4,-1c.5,0,1,.1,1.5,.2c.5,.2,1,.4,1.4,.7c.5,.4,1,.7,1.4,1c.4,.4,.7,.7,1.1,1l-.2,-.6Zm3.1,3.3l-1,-1.2h-10l1.1,1.2h7.1v6.6c-1.1,-2.6,-2.4,-4,-3.8,-4c-.7,0,-1.3,.3,-1.8,.9c-.5,.5,-.7,1.2,-.7,2c0,1.5,.6,2.2,2,2.2c.4,0,.7,-.2,1,-.5c.2,-.4,.4,-.8,.4,-1.3c0,-.3,-.3,-.8,-.7,-1.5c0,-.1,.1,-.1,.3,-.1c1,0,2,.8,2.8,2.5c.5,1.4,.8,2.9,.8,4.2l-.1,1.3l.8,.6V135.2h1.8Zm16.9,-3.3c-2,-2.4,-4.1,-3.6,-6.2,-3.6c-.8,0,-1.7,.4,-2.6,1.2c-.9,.9,-1.4,1.8,-1.4,2.7c0,.4,.1,.7,.4,1l.7,.8h-2.7l1,1.2h1.6v11.3l1,1.2V135.2H421L419.9,134h-1.1l-.4,-1.1c.1,-.9,.5,-1.6,1.4,-2.3c.8,-.7,1.6,-1,2.4,-1c.5,0,1,.1,1.5,.2c.5,.2,1,.4,1.4,.7c.5,.4,1,.7,1.4,1c.4,.4,.7,.7,1.1,1l-.2,-.6Zm4.3,3.3l-1,-1.2H419.6l1,1.2h4.3v4.1c0,1.7,.5,2.6,1.4,2.6c.3,-.1,.6,-.2,.9,-.3c.3,-.2,.6,-.3,.8,-.6c.3,-.2,.5,-.4,.7,-.7c.2,-.3,.4,-.6,.5,-.9c.4,.5,.6,1,.6,1.6c0,.5,-.2,1.1,-.5,1.5c-.2,.5,-.6,.9,-1.1,1.2c-.5,.3,-1,.4,-1.5,.4c-1.5,0,-2.6,-.9,-3.4,-2.7c-.3,-.7,-.6,-1.5,-.8,-2.3c-.2,-.9,-.3,-1.8,-.4,-2.7l-.7,-.4c.6,6.8,2.4,10.3,5.4,10.3c1.2,0,2.1,-.5,2.8,-1.4c.6,-.9,.9,-2,.9,-3.4c0,-.4,0,-.8,-.1,-1.2c-.1,-.4,-.2,-.8,-.4,-1.1c-.1,-.4,-.3,-.7,-.5,-1c-.3,-.3,-.5,-.6,-.8,-.8c-.3,.2,-.5,.5,-.7,.8c-.1,.4,-.3,.7,-.5,1c-.2,.3,-.5,.5,-.7,.7c-.3,.1,-.6,.2,-.9,.1v-4.8h5.8Zm9.7,0l-1,-1.2h-9.9l1,1.2h7.1v6.6c-1.1,-2.6,-2.4,-4,-3.8,-4c-.7,0,-1.3,.3,-1.8,.9c-.5,.5,-.7,1.2,-.7,2c0,1.5,.6,2.2,2,2.2c.4,0,.7,-.2,1,-.5c.2,-.4,.4,-.8,.4,-1.3c0,-.3,-.3,-.8,-.7,-1.5c0,-.1,.1,-.1,.3,-.1c1.1,0,2,.8,2.8,2.5c.6,1.4,.8,2.9,.8,4.2l-.1,1.3l.8,.6V135.2h1.8Zm3.9,0l-1,-1.2h-.9c-.3,-.4,-.5,-1,-.6,-1.9l-.4,-.3c0,.2,0,.5,0,.9c0,.3,.1,.7,.1,1.2c0,.5,.1,.9,.1,1.3c0,.3,0,.6,0,.9c-.2,-.8,-.5,-1.3,-.8,-1.6c-.4,-.3,-.9,-.5,-1.5,-.5h-1.1l1,1.2c.3,0,.6,.1,.8,.2c.3,.1,.5,.3,.8,.5c.2,.2,.3,.4,.5,.7c.1,.3,.1,.7,.1,1v8.9l1,1.2V135.2h1.9Zm9.5,0l-1,-1.2H443.7l1,1.2h7v.9c-2.1,.8,-4.2,2.1,-6.2,3.7l1.3,2.3c1.4,.1,2.6,.7,3.5,1.6c.2,.3,.5,.6,.7,1c.3,.4,.5,.8,.6,1c.2,.3,.3,.7,.5,1.3l.6,.8V135.2h2.1Zm-3.1,9.4c-.9,-1.8,-2.3,-3.2,-4.1,-4.1c.7,-.6,1.4,-1.1,2.1,-1.5c.7,-.4,1.4,-.7,2,-1v6.6Zm-4,1.7c.2,.3,.5,.4,.8,.4c.2,0,.5,-.1,.7,-.4c.2,-.2,.3,-.5,.3,-.8c0,-.4,-.1,-.7,-.3,-.9c-.2,-.3,-.5,-.4,-.7,-.4c-.3,0,-.6,.1,-.8,.4c-.2,.2,-.3,.5,-.3,.9c0,.3,.1,.6,.3,.8Zm25,-12.3h-13l1,1.2h10.1v8.2L469.4,142c.2,-.6,.3,-1.3,.3,-1.9c0,-.8,-.2,-1.6,-.5,-2.2c-.3,-.5,-.6,-.9,-.9,-1.2c-.4,-.3,-.8,-.6,-1.2,-.7c-.2,-.1,-.5,-.2,-.8,-.2c-.5,0,-1.1,.2,-1.7,.7c-.2,.2,-.4,.5,-.5,.8c-.2,.3,-.2,.6,-.2,.9c0,.4,0,.7,.1,.9c.3,.5,.6,.7,1.1,.8c.5,.1,.9,0,1.2,-.3c.2,-.2,.4,-.4,.5,-.6c.2,-.3,.2,-.5,.2,-.8c0,-.3,-.1,-.6,-.3,-1c.2,-.1,.4,-.1,.6,0c.2,0,.4,.1,.6,.3c.2,.2,.3,.4,.5,.7c.1,.3,.3,.6,.3,.9c.1,.3,.1,.5,.1,.7c0,.6,-.1,1.1,-.4,1.7c-.4,.8,-1.2,1.3,-2.4,1.3c-.5,0,-.9,-.2,-1.4,-.5c-.5,-.3,-.9,-.8,-1.3,-1.4c-.4,-.5,-.7,-1.2,-1,-2c-.3,-.8,-.5,-1.7,-.7,-2.7l-.6,-.3c.1,1,.2,2,.5,2.9c.2,.9,.4,1.7,.8,2.3c.2,.5,.5,1,.8,1.5c.4,.4,.7,.8,1,1.1c.4,.3,.7,.6,1.1,.7c.3,.2,.7,.3,1,.3c.6,0,1.2,-.2,1.6,-.4c.5,-.3,.9,-.7,1.1,-1.2c1.2,.9,2.1,2.4,2.5,4.5v-.1l.4,.3V135.2h1.9l-1,-1.2Zm4.6,1.2l-1,-1.2h-.9c-.3,-.4,-.5,-1,-.6,-1.9l-.4,-.3c0,.2,0,.5,.1,.9c0,.3,0,.7,0,1.2c0,.5,.1,.9,.1,1.3c0,.3,0,.6,0,.9c-.2,-.8,-.5,-1.3,-.8,-1.6c-.4,-.3,-.8,-.5,-1.5,-.5h-1.1l1,1.2c.3,0,.6,.1,.8,.2c.3,.1,.6,.3,.8,.5c.2,.2,.4,.4,.5,.7c.1,.3,.2,.7,.2,1v8.9l.9,1.2V135.2h1.9Zm5.3,-1.2h-6.8l1.1,1.2h3.3c-1.4,2,-2.1,4,-2.1,6.1c0,1.5,.2,2.8,.8,3.9c.6,1.4,1.5,2.1,2.7,2.1c.2,0,.5,0,.7,-.1c.2,-.1,.4,-.2,.6,-.4c.2,-.2,.3,-.4,.4,-.7c.1,-.2,.1,-.5,.1,-.8c0,-.4,-.1,-.9,-.3,-1.2c-.3,-.3,-.6,-.5,-.9,-.5c-.3,0,-.6,.2,-.9,.4c-.2,.3,-.4,.6,-.4,1c0,.2,.1,.4,.2,.7c.1,.2,.3,.4,.5,.6c-.6,.2,-1.3,-.2,-1.9,-1.3c-.4,-.7,-.6,-1.5,-.6,-2.3c0,-1,.1,-1.9,.3,-2.7c.2,-.7,.4,-1.4,.8,-2.1c.4,-.7,.8,-1.3,1.4,-1.7c.6,-.5,1.2,-.8,2,-1l-1,-1.2Zm10.6,14.7c-.4,-.5,-.8,-1,-1.2,-1.4c-.3,-.4,-.6,-.8,-.9,-1c-.3,-.2,-.6,-.5,-1,-.8c-.5,-.3,-1,-.6,-1.6,-1c.6,-.3,1,-.6,1.3,-.8c.4,-.3,.7,-.5,.9,-.8c.7,-.7,1.1,-1.5,1.1,-2.5c0,-.9,-.2,-1.7,-.6,-2.4c-.5,-.7,-1.2,-1.1,-2.1,-1.1c-.2,0,-.4,0,-.7,.1c-.2,0,-.4,.1,-.7,.1c-1.1,0,-1.9,-.7,-2.4,-1.9h7.4l-1,-1.2H482l1,1.2h1.3v5.2c0,.2,.1,.5,.2,.6c.1,.2,.2,.4,.3,.5c.2,.2,.3,.3,.5,.4c.2,.1,.4,.1,.6,.1c.3,0,.6,-.1,1,-.3c.4,-.2,.7,-.4,1.1,-.7c.8,-.8,1.2,-1.7,1.1,-2.6c1.1,-.2,1.6,.2,1.7,1.2c0,1.2,-.6,2.2,-1.7,2.9c-.5,.2,-1,.4,-1.5,.6c-.5,.1,-1,.2,-1.6,.2c-.2,0,-.5,-.1,-.7,-.1c-.2,-.1,-.5,-.1,-.8,-.2l1,2.2c1.5,.2,2.9,.6,4.2,1.3c1.3,.8,2.5,1.8,3.6,3.1l-.1,-.9Zm-5.6,-9.5c-.2,.3,-.3,.6,-.5,.8c-.3,.3,-.5,.5,-.7,.7c-.2,.1,-.5,.2,-.7,.2c-.2,0,-.4,-.2,-.4,-.7v-3.6c.6,.9,1.4,1.5,2.4,1.8c0,.3,0,.5,-.1,.8Z" class="go_118"/>
<g clip-path="url(#c0_118)">
<path d="M1877,177.2H32.1v-5.4H768.7c43.1,0,53,-37.9,115.3,-37.9h993Z" class="gp_118"/>
<path d="M1877,183.7H32.1v-9.8H768.7c43.1,0,53,-33.6,115.3,-33.6h993Z" class="gq_118"/>
</g>
<image clip-path="url(#cp_118)" preserveAspectRatio="none" x="125" y="206" width="734" height="181" xlink:href="img/12.png"/>
<path d="M144.6,231.3c0,0,-13,0,-13,13v117c0,0,0,13,13,13H833.1c0,0,13,0,13,-13v-130Z" class="gr_118"/>
<path d="M147.7,294.1l54.1,40.8l54.1,-40.8V230h8.7V211.9H155.8c-6.5,.4,-7.7,3.9,-8.2,8.4Z" class="gs_118"/>
<path d="M274,220.3c-.3,-4.7,-4.2,-8.4,-9,-8.4c-4.8,0,-8.7,3.7,-9,8.4h-.1V230h18.2v-9.7Z" class="gi_118"/>
<path d="M255.9,230.6H846.1" class="gt_118"/>
<path d="M32.1,45.1H9.2m958.3,0h22.9M32.1,1331.3H9.2m958.3,0h22.9M45.1,32.1V9.2m0,1335.1v22.9M954.5,32.1V9.2m0,1335.1v22.9" class="gu_118"/>
<path d="M32.1,45.1H9.2m958.3,0h22.9M32.1,1331.3H9.2m958.3,0h22.9M45.1,32.1V9.2m0,1335.1v22.9M954.5,32.1V9.2m0,1335.1v22.9" class="gv_118"/>
<path d="M27.5,32.1H0m972.1,0h27.5M27.5,1344.3H0m972.1,0h27.5M32.1,27.5V0m0,1348.9v27.5M967.5,27.5V0m0,1348.9v27.5" class="gu_118"/>
<path d="M27.5,32.1H0m972.1,0h27.5M27.5,1344.3H0m972.1,0h27.5M32.1,27.5V0m0,1348.9v27.5M967.5,27.5V0m0,1348.9v27.5" class="gv_118"/>
</svg>