<?xml version="1.0" encoding="UTF-8" standalone="no"?>
<!DOCTYPE svg PUBLIC "-//W3C//DTD SVG 1.1//EN"
"http://www.w3.org/Graphics/SVG/1.1/DTD/svg11.dtd">
<svg viewBox="0 0 999 1376" version="1.1" xmlns="http://www.w3.org/2000/svg" xmlns:xlink="http://www.w3.org/1999/xlink">
<defs>
<clipPath id="c0_160"><path d="M211.4,621.4V498.5H348.1V621.4Z"/></clipPath>
<clipPath id="c1_160"><path d="M213.4,825.5V702.6H350.1V825.5Z"/></clipPath>
<clipPath id="c2_160"><path d="M212.4,1029.6V906.7H349.1v122.9Z"/></clipPath>
<clipPath id="c3_160"><path d="M542.5,621.4V498.5H679.2V621.4Z"/></clipPath>
<clipPath id="c4_160"><path d="M541.5,825.5V702.6H678.2V825.5Z"/></clipPath>
<clipPath id="c5_160"><path d="M539.5,1029.6V906.7H676.2v122.9Z"/></clipPath>
<clipPath id="c6_160"><path d="M270.3,395.1V279.8H439.2V395.1Z"/></clipPath>
<clipPath id="c7_160"><path d="M269.7,395.5V279.4H439.2V395.5Z"/></clipPath>
<style type="text/css"><![CDATA[
.g0_160{
fill: none;
stroke: #6381B7;
stroke-width: 0.763;
}
.g1_160{
fill: #48484A;
}
.g2_160{
fill: #F0E8F3;
}
.g3_160{
fill: #FFF;
}
.g4_160{
fill: #6381B7;
}
.g5_160{
fill: none;
stroke: #6381B7;
stroke-width: 0.381;
stroke-dasharray: 2,1;
}
.g6_160{
fill: none;
stroke: #6381B7;
stroke-width: 0.381;
}
.g7_160{
fill: #E7D6B2;
}
.g8_160{
fill: #766FA6;
}
.g9_160{
fill: #25408F;
}
.ga_160{
fill: #F37553;
}
.gb_160{
fill: #363637;
}
.gc_160{
fill: #EAD646;
}
.gd_160{
fill: #506CB4;
}
.ge_160{
fill: #5CC4BE;
}
.gf_160{
fill: none;
stroke: #FFF;
stroke-width: 1.909;
stroke-miterlimit: 10;
}
.gg_160{
fill: none;
stroke: #000;
stroke-width: 0.381;
stroke-miterlimit: 10;
}
]]></style>
</defs>
<path d="M145.1,167.9c0,0,-13,0,-13,12.9v896.8c0,0,0,13,13,13H832.9c0,0,13,0,13,-13V180.8c0,0,0,-12.9,-13,-12.9H145.1Z" class="g0_160"/>
<path d="M175.2,272c0,0,-4.3,0,-4.3,4.4v14.4c0,0,0,4.3,4.1,5.7l52.5,18.3c0,0,4,1.4,4,-2.9V276.4c0,0,0,-4.4,-4.3,-4.4Z" class="g1_160"/>
<path d="M196.4,259.2c0,0,-13,0,-13,13V428.3c0,0,0,13,13,13H817.7c0,0,13,0,13,-13V272.2c0,0,0,-13,-13,-13Z" class="g2_160"/>
<image clip-path="url(#c0_160)" preserveAspectRatio="none" x="211" y="497" width="137" height="126" xlink:href="img/1.jpg"/>
<image clip-path="url(#c1_160)" preserveAspectRatio="none" x="213" y="701" width="137" height="126" xlink:href="img/2.jpg"/>
<image clip-path="url(#c2_160)" preserveAspectRatio="none" x="212" y="905" width="137" height="126" xlink:href="img/3.jpg"/>
<image clip-path="url(#c3_160)" preserveAspectRatio="none" x="542" y="497" width="137" height="126" xlink:href="img/4.jpg"/>
<image clip-path="url(#c4_160)" preserveAspectRatio="none" x="541" y="701" width="137" height="126" xlink:href="img/5.jpg"/>
<image clip-path="url(#c5_160)" preserveAspectRatio="none" x="539" y="905" width="137" height="126" xlink:href="img/6.jpg"/>
<path d="M222.1,655.7H326v-26H222.1v26Z" class="g3_160"/>
<path d="M222.1,859.2H326V833.3H222.1v25.9Z" class="g3_160"/>
<path d="M222.1,1063.7H326v-26H222.1v26Z" class="g3_160"/>
<path d="M553.9,655.7h104v-26h-104v26Z" class="g3_160"/>
<path d="M553.9,859.2h104V833.3h-104v25.9Z" class="g3_160"/>
<path d="M553.9,1063.7h104v-26h-104v26Z" class="g3_160"/>
<path d="M170.7,563h34.6V538.8H170.7V563Z" class="g3_160"/>
<path d="M170.7,766.6h34.6V742.3H170.7v24.3Z" class="g3_160"/>
<path d="M170.7,971h34.6V946.7H170.7V971Z" class="g3_160"/>
<path d="M498.9,563h34.7V538.8H498.9V563Z" class="g3_160"/>
<path d="M498.9,766.6h34.7V742.3H498.9v24.3Z" class="g3_160"/>
<path d="M498.9,971h34.7V946.7H498.9V971Z" class="g3_160"/>
<path d="M502.3,1110.7c0,0,-4.3,0,-4.3,4.3v10.9c0,0,0,4.3,4.3,4.3h30.4c0,0,4.3,0,4.3,-4.3V1115c0,0,0,-4.3,-4.3,-4.3Z" class="g4_160"/>
<path d="M489.2,1103.2v140.4m1.3,1H844m1,-1.3V1102.8m-1.4,-.9H490.1" class="g5_160"/>
<path d="M489.2,1244v.6h.5m354.7,0h.6v-.6m0,-141.6v-.5h-.6m-354.7,0h-.5v.5" class="g6_160"/>
<g clip-path="url(#c6_160)">
<path d="M172.4,254.2c0,0,-6.7,0,-6.7,6.7V440c0,0,0,6.7,6.7,6.7H817.2c0,0,6.6,0,6.6,-6.7V260.9c0,0,0,-6.7,-6.6,-6.7H172.4Z" class="g7_160"/>
<path d="M267.1,394.9H439.2V279.7H267.1V394.9Z" class="g3_160"/>
</g>
<image clip-path="url(#c7_160)" preserveAspectRatio="none" x="267" y="280" width="173" height="116" xlink:href="img/7.jpg"/>
<path d="M175.9,269.9c0,0,-5.2,0,-5.2,4.3v17c0,0,0,4.3,5.2,4.3h28.5c0,0,5.2,0,5.2,-4.3v-17c0,0,0,-4.3,-5.2,-4.3Z" class="g8_160"/>
<path d="M132.2,126.3v22.2l11.7,10.2V136.5Z" class="g9_160"/>
<path d="M132.2,109.5v39H829.9c0,0,16.9,0,16.9,-16.8v-5.4c0,0,0,-16.8,-16.9,-16.8Z" class="g4_160"/>
<path d="M166,111.6c.7,-.6,1.7,-.8,2.5,-.6l1.3,-1.3l-6.2,-6.1l-6.1,6.1l-1.3,-1.3c.2,-.8,0,-1.8,-.6,-2.4c-1,-1,-2.6,-1,-3.6,0c-1,1,-1,2.6,0,3.6c.6,.6,1.6,.9,2.4,.6l1.3,1.3l-6.1,6.1l6.1,6.2l-1.3,1.3c-.8,-.3,-1.8,-.1,-2.4,.6c-1,1,-1,2.6,0,3.6c1,1,2.6,1,3.6,0c.6,-.7,.9,-1.6,.6,-2.4l1.3,-1.3l6.1,6.1l6.2,-6.1l-1.3,-1.3c-.9,.2,-1.8,0,-2.5,-.7c-1,-1,-1,-2.6,0,-3.6c1,-1,2.6,-1,3.6,0c.7,.7,.9,1.6,.7,2.5l1.3,1.3l6.1,-6.2l-6.1,-6.1l-1.3,1.3c.2,.8,0,1.8,-.7,2.4c-1,1,-2.6,1,-3.6,0c-1,-.9,-1,-2.6,0,-3.6Z" class="ga_160"/>
<path d="M163.6,132.3l-6.1,-6.2l-.8,.9c.1,.9,-.2,1.9,-.8,2.6c-1.2,1.1,-3.1,1.1,-4.2,0c-1.2,-1.2,-1.2,-3,0,-4.2c.7,-.7,1.6,-1,2.6,-.8l.8,-.8L149,117.6l6.1,-6.1l-.8,-.8c-1,.1,-1.9,-.2,-2.6,-.8c-.6,-.6,-.9,-1.3,-.9,-2.1c0,-.8,.3,-1.5,.9,-2.1c1.1,-1.1,3,-1.1,4.1,0c.7,.7,1,1.7,.9,2.6l.8,.8l6.1,-6.1l6.7,6.7l-1.7,1.7h-.2c-.7,-.2,-1.5,0,-2.1,.5c-.8,.9,-.8,2.2,0,3.1c.9,.8,2.2,.8,3.1,0c.5,-.6,.7,-1.4,.5,-2.1v-.2l1.7,-1.7l6.7,6.6l-6.7,6.7l-1.8,-1.7l.1,-.2c.2,-.8,0,-1.5,-.6,-2.1c-.4,-.4,-.9,-.6,-1.5,-.6c-.5,0,-1.1,.2,-1.5,.6c-.8,.8,-.8,2.2,0,3c.5,.6,1.3,.8,2.1,.6l.2,-.1l1.7,1.8ZM157.5,125l6.1,6.1l5.6,-5.5l-.8,-.9c-1,.2,-2,-.1,-2.7,-.8c-.5,-.5,-.8,-1.3,-.8,-2.1c0,-.7,.3,-1.5,.8,-2c.6,-.6,1.3,-.9,2.1,-.9c.8,0,1.6,.3,2.1,.9c.7,.6,1,1.6,.8,2.6l.9,.8l5.5,-5.6l-5.5,-5.5l-.9,.8c.2,1,-.1,1.9,-.8,2.6c-1.1,1.2,-3,1.2,-4.1,0c-1.2,-1.1,-1.2,-3,0,-4.1c.6,-.7,1.6,-1,2.6,-.8l.8,-.9l-5.6,-5.6l-6.1,6.2l-1.7,-1.7v-.3c.2,-.7,0,-1.5,-.5,-2c-.9,-.9,-2.2,-.9,-3.1,0c-.4,.4,-.6,.9,-.6,1.5c0,.6,.2,1.1,.6,1.5c.6,.5,1.4,.8,2.1,.6l.2,-.1l1.8,1.7l-6.2,6.1l6.2,6.2l-1.8,1.7l-.2,-.1c-.7,-.2,-1.5,.1,-2,.6c-.9,.8,-.9,2.2,0,3c.8,.9,2.2,.9,3,0c.5,-.5,.7,-1.3,.5,-2v-.3Z" class="gb_160"/>
<path d="M196.6,122.1c.9,0,1.8,.5,2.2,1.3h1.8v-8.7h-8.7v-1.8c.8,-.4,1.3,-1.2,1.3,-2.2c0,-1.4,-1.1,-2.5,-2.5,-2.5c-1.5,0,-2.6,1.1,-2.6,2.5c0,1,.5,1.8,1.3,2.2v1.8h-8.7v8.7h-1.8c-.4,-.8,-1.2,-1.3,-2.2,-1.3c-1.4,0,-2.5,1.2,-2.5,2.6c0,1.4,1.1,2.5,2.5,2.5c1,0,1.8,-.5,2.2,-1.2h1.8v8.6h8.7v-1.8c-.8,-.4,-1.3,-1.2,-1.3,-2.2c0,-1.4,1.2,-2.5,2.6,-2.5c1.4,0,2.5,1.1,2.5,2.5c0,1,-.5,1.8,-1.3,2.2v1.8h8.7V126h-1.8c-.4,.7,-1.2,1.2,-2.2,1.2c-1.4,0,-2.5,-1.1,-2.5,-2.5c0,-1.4,1.1,-2.6,2.5,-2.6Z" class="gc_160"/>
<path d="M201,135h-9.5v-2.4l.2,-.1c.7,-.4,1.1,-1.1,1.1,-1.9c0,-1.2,-1,-2.1,-2.1,-2.1c-1.2,0,-2.2,.9,-2.2,2.1c0,.8,.4,1.5,1.1,1.9l.2,.1V135h-9.5v-8.6h-1.2c-.5,.7,-1.4,1.2,-2.4,1.2c-1.6,0,-2.9,-1.3,-2.9,-2.9c0,-1.6,1.3,-3,2.9,-3c1,0,1.9,.5,2.4,1.3h1.2v-8.7H189v-1.1c-.8,-.6,-1.3,-1.5,-1.3,-2.5c0,-1.6,1.3,-2.9,3,-2.9c1.6,0,2.9,1.3,2.9,2.9c0,1,-.5,1.9,-1.3,2.5v1.1H201v9.5h-2.4l-.1,-.2c-.4,-.6,-1.1,-1.1,-1.9,-1.1c-.6,0,-1.1,.3,-1.5,.7c-.4,.4,-.6,.9,-.6,1.5c0,1.2,.9,2.1,2.1,2.1c.8,0,1.5,-.4,1.9,-1l.1,-.2H201Zm-8.7,-.8h7.9v-7.8H199c-.5,.7,-1.4,1.2,-2.4,1.2c-1.6,0,-2.9,-1.3,-2.9,-2.9c0,-.8,.3,-1.5,.8,-2.1c.6,-.5,1.3,-.9,2.1,-.9c1,0,1.9,.5,2.4,1.3h1.2v-7.9h-8.7v-2.4l.2,-.1c.7,-.4,1.1,-1.1,1.1,-1.9c0,-1.2,-1,-2.1,-2.1,-2.1c-1.2,0,-2.2,.9,-2.2,2.1c0,.8,.4,1.5,1.1,1.9l.2,.1v2.4h-8.7v8.7h-2.4l-.1,-.2c-.4,-.6,-1.1,-1.1,-1.9,-1.1c-1.2,0,-2.1,1,-2.1,2.2c0,1.2,.9,2.1,2.1,2.1c.8,0,1.5,-.4,1.9,-1l.1,-.2h2.4v8.6H189V133c-.8,-.5,-1.3,-1.4,-1.3,-2.4c0,-1.6,1.3,-2.9,3,-2.9c1.6,0,2.9,1.3,2.9,2.9c0,1,-.5,1.9,-1.3,2.4Z" class="gb_160"/>
<path d="M176.7,142c1,0,1.8,.5,2.2,1.3h1.8v-8.7H172v-1.8c.8,-.4,1.3,-1.2,1.3,-2.2c0,-1.4,-1.1,-2.5,-2.5,-2.5c-1.4,0,-2.6,1.1,-2.6,2.5c0,1,.5,1.8,1.3,2.2v1.8h-8.7v8.7H159c-.4,-.8,-1.2,-1.3,-2.2,-1.3c-1.4,0,-2.5,1.2,-2.5,2.6c0,1.4,1.1,2.5,2.5,2.5c1,0,1.8,-.5,2.2,-1.2h1.8v8.6h8.7v-1.8c-.8,-.4,-1.3,-1.2,-1.3,-2.2c0,-1.4,1.2,-2.5,2.6,-2.5c1.4,0,2.5,1.1,2.5,2.5c0,1,-.5,1.8,-1.3,2.2v1.8h8.7v-8.7h-1.8c-.4,.8,-1.2,1.3,-2.2,1.3c-1.4,0,-2.5,-1.1,-2.5,-2.5c0,-1.4,1.1,-2.6,2.5,-2.6Z" class="gd_160"/>
<path d="M181.1,154.9h-9.5v-2.4l.2,-.1c.7,-.4,1.1,-1.1,1.1,-1.9c0,-1.2,-1,-2.1,-2.1,-2.1c-1.2,0,-2.2,.9,-2.2,2.1c0,.8,.4,1.5,1.1,1.9l.2,.1v2.4h-9.5v-8.6h-1.2c-.5,.7,-1.4,1.2,-2.4,1.2c-1.6,0,-2.9,-1.3,-2.9,-2.9c0,-1.6,1.3,-3,2.9,-3c1,0,1.9,.5,2.4,1.3h1.2v-8.7h8.7V133c-.8,-.5,-1.3,-1.4,-1.3,-2.4c0,-1.6,1.3,-2.9,3,-2.9c1.6,0,2.9,1.3,2.9,2.9c0,1,-.5,1.9,-1.3,2.4v1.2h8.7v9.5h-2.4l-.1,-.2c-.4,-.7,-1.1,-1.1,-1.9,-1.1c-1.2,0,-2.1,1,-2.1,2.2c0,1.1,.9,2.1,2.1,2.1c.8,0,1.5,-.4,1.9,-1.1l.1,-.2h2.4Zm-8.7,-.8h7.9v-7.9h-1.2c-.5,.8,-1.4,1.3,-2.4,1.3c-1.6,0,-2.9,-1.3,-2.9,-2.9c0,-1.6,1.3,-3,2.9,-3c1,0,1.9,.5,2.4,1.3h1.2V135h-8.7v-2.4l.2,-.1c.7,-.4,1.1,-1.1,1.1,-1.9c0,-1.2,-1,-2.1,-2.1,-2.1c-1.2,0,-2.2,.9,-2.2,2.1c0,.8,.4,1.5,1.1,1.9l.2,.1V135h-8.7v8.7h-2.4l-.1,-.2c-.4,-.7,-1.1,-1.1,-1.9,-1.1c-1.2,0,-2.1,1,-2.1,2.2c0,1.2,.9,2.1,2.1,2.1c.8,0,1.5,-.4,1.9,-1l.1,-.2h2.4v8.6h7.9v-1.2c-.8,-.5,-1.3,-1.4,-1.3,-2.4c0,-1.6,1.3,-2.9,3,-2.9c1.6,0,2.9,1.3,2.9,2.9c0,1,-.5,1.9,-1.3,2.4Z" class="gb_160"/>
<path d="M196.6,142c.9,0,1.8,.5,2.2,1.3h1.8v-8.7h-8.7v-1.8c.8,-.4,1.3,-1.2,1.3,-2.2c0,-1.4,-1.1,-2.5,-2.5,-2.5c-1.5,0,-2.6,1.1,-2.6,2.5c0,1,.5,1.8,1.3,2.2v1.8h-8.7v8.7h-1.8c-.4,-.8,-1.2,-1.3,-2.2,-1.3c-1.4,0,-2.5,1.2,-2.5,2.6c0,1.4,1.1,2.5,2.5,2.5c1,0,1.8,-.5,2.2,-1.2h1.8v8.6h8.7v-1.8c-.8,-.4,-1.3,-1.2,-1.3,-2.2c0,-1.4,1.2,-2.5,2.6,-2.5c1.4,0,2.5,1.1,2.5,2.5c0,1,-.5,1.8,-1.3,2.2v1.8h8.7v-8.7h-1.8c-.4,.8,-1.2,1.3,-2.2,1.3c-1.4,0,-2.5,-1.1,-2.5,-2.5c0,-1.4,1.1,-2.6,2.5,-2.6Z" class="ge_160"/>
<path d="M201,154.9h-9.5v-2.4l.2,-.1c.7,-.4,1.1,-1.1,1.1,-1.9c0,-1.2,-1,-2.1,-2.1,-2.1c-1.2,0,-2.2,.9,-2.2,2.1c0,.8,.4,1.5,1.1,1.9l.2,.1v2.4h-9.5v-8.6h-1.2c-.5,.7,-1.4,1.2,-2.4,1.2c-1.6,0,-2.9,-1.3,-2.9,-2.9c0,-1.6,1.3,-3,2.9,-3c1,0,1.9,.5,2.4,1.3h1.2v-8.7H189V133c-.8,-.5,-1.3,-1.4,-1.3,-2.4c0,-1.6,1.3,-2.9,3,-2.9c1.6,0,2.9,1.3,2.9,2.9c0,1,-.5,1.9,-1.3,2.4v1.2H201v9.5h-2.4l-.1,-.2c-.4,-.7,-1.1,-1.1,-1.9,-1.1c-.6,0,-1.1,.3,-1.5,.7c-.4,.4,-.6,.9,-.6,1.5c0,1.1,.9,2.1,2.1,2.1c.8,0,1.5,-.4,1.9,-1.1l.1,-.2H201Zm-8.7,-.8h7.9v-7.9H199c-.5,.8,-1.4,1.3,-2.4,1.3c-1.6,0,-2.9,-1.3,-2.9,-2.9c0,-.8,.3,-1.5,.8,-2.1c.6,-.6,1.3,-.9,2.1,-.9c1,0,1.9,.5,2.4,1.3h1.2V135h-8.7v-2.4l.2,-.1c.7,-.4,1.1,-1.1,1.1,-1.9c0,-1.2,-1,-2.1,-2.1,-2.1c-1.2,0,-2.2,.9,-2.2,2.1c0,.8,.4,1.5,1.1,1.9l.2,.1V135h-8.7v8.7h-2.4l-.1,-.2c-.4,-.7,-1.1,-1.1,-1.9,-1.1c-1.2,0,-2.1,1,-2.1,2.2c0,1.2,.9,2.1,2.1,2.1c.8,0,1.5,-.4,1.9,-1l.1,-.2h2.4v8.6H189v-1.2c-.8,-.5,-1.3,-1.4,-1.3,-2.4c0,-1.6,1.3,-2.9,3,-2.9c1.6,0,2.9,1.3,2.9,2.9c0,1,-.5,1.9,-1.3,2.4Z" class="gb_160"/>
<path d="M32.1,45.1H9.2m958.3,0h22.9M32.1,1331.3H9.2m958.3,0h22.9M45.1,32.1V9.2m0,1335.1v22.9M954.5,32.1V9.2m0,1335.1v22.9" class="gf_160"/>
<path d="M32.1,45.1H9.2m958.3,0h22.9M32.1,1331.3H9.2m958.3,0h22.9M45.1,32.1V9.2m0,1335.1v22.9M954.5,32.1V9.2m0,1335.1v22.9" class="gg_160"/>
<path d="M27.5,32.1H0m972.1,0h27.5M27.5,1344.3H0m972.1,0h27.5M32.1,27.5V0m0,1348.9v27.5M967.5,27.5V0m0,1348.9v27.5" class="gf_160"/>
<path d="M27.5,32.1H0m972.1,0h27.5M27.5,1344.3H0m972.1,0h27.5M32.1,27.5V0m0,1348.9v27.5M967.5,27.5V0m0,1348.9v27.5" class="gg_160"/>
</svg>