<?xml version="1.0" encoding="UTF-8" standalone="no"?>
<!DOCTYPE svg PUBLIC "-//W3C//DTD SVG 1.1//EN"
"http://www.w3.org/Graphics/SVG/1.1/DTD/svg11.dtd">
<svg viewBox="0 0 999 1376" version="1.1" xmlns="http://www.w3.org/2000/svg" xmlns:xlink="http://www.w3.org/1999/xlink">
<defs>
<clipPath id="c0_234"><path d="M32.1,1344.3V32.1H967.5V1344.3Z"/></clipPath>
<clipPath id="c1_234"><path d="M186,291.5l-6.5,-2.2L163.1,275.4V218.3H235v73.2Z"/></clipPath>
<clipPath id="c2_234"><path d="M186,870.5l-6.5,-2.1l-16.4,-14V797.3H235v73.2Z"/></clipPath>
<clipPath id="c3_234"><path d="M771.7,347.8V335.4h14.5v12.4Z"/></clipPath>
<clipPath id="c4_234"><path d="M215.4,485.3V387.9h96v97.4Z"/></clipPath>
<style type="text/css"><![CDATA[
.g0_234{
fill: #FEFCF4;
}
.g1_234{
fill: #59816A;
}
.g2_234{
fill: #2E6E51;
}
.g3_234{
fill: #92A696;
}
.g4_234{
fill: #F9F6DB;
}
.g5_234{
fill: #DE524C;
}
.g6_234{
fill: #030303;
}
.g7_234{
fill: #FFF;
}
.g8_234{
fill: #FCE8B0;
}
.g9_234{
fill: none;
stroke: #6381B7;
stroke-width: 0.763;
}
.ga_234{
fill: #A8AAAD;
}
.gb_234{
fill: none;
stroke: #949698;
stroke-width: 0.549;
}
.gc_234{
fill: none;
stroke: #BCBEC0;
stroke-width: 2.566;
}
.gd_234{
fill: #231F20;
}
.ge_234{
fill: none;
stroke: #FFF;
stroke-width: 1.909;
stroke-miterlimit: 10;
}
.gf_234{
fill: none;
stroke: #000;
stroke-width: 0.381;
stroke-miterlimit: 10;
}
]]></style>
</defs>
<path d="M32.1,1344.3H954.5V32.1H32.1V1344.3Z" class="g0_234"/>
<g clip-path="url(#c0_234)">
<path d="M954.5,1344.3H1877V32.1H954.5V1344.3Z" class="g0_234"/>
<path d="M1777.4,163c0,0,30.3,0,30.3,-30.3v-4.4c0,0,0,-30.3,-30.3,-30.3H162.8c0,0,-30.3,0,-30.3,30.3v4.4c0,0,0,30.3,30.3,30.3Z" class="g1_234"/>
</g>
<path d="M183.7,130.5c0,26.3,-21.4,47.6,-47.7,47.6c-26.3,0,-47.6,-21.3,-47.6,-47.6c0,-26.3,21.3,-47.7,47.6,-47.7c26.3,0,47.7,21.4,47.7,47.7Z" class="g2_234"/>
<path d="M158.3,88.4c0,0,26.2,12.3,25.3,44.1c0,0,.4,18,-14.5,32.2c0,0,-12.5,13.6,-33.8,13.4L119.8,142.5L146.3,109Z" class="g3_234"/>
<path d="M138.2,95.4l-35.3,40.3c-2.2,9.2,5.7,10.6,5.7,10.6L162,135.2Z" class="g4_234"/>
<path d="M163.8,131.9c1,1.6,.6,3.7,-1,4.7c-1.6,1,-3.7,.4,-4.7,-1.2L135.8,98.9c-1,-1.6,-.5,-3.7,1.1,-4.7c1.6,-1,3.7,-.4,4.7,1.2Z" class="g5_234"/>
<path d="M112,121.2l-8.5,5.9c-7.2,4.1,-9.8,13,-5.8,19.8c4,6.9,11.5,9.1,18.7,4.9l17.1,25.4c.8,1.9,5,.3,7,-.6c1.9,-1,4.4,-3.3,3.5,-5.2L127.5,145.3l.7,-.8c.7,-.3,-15,-24,-16.2,-23.3Z" class="g6_234"/>
<path d="M168.7,102.2c.4,.5,0,1.4,-.7,1.9l-9.2,6.7c-.7,.5,-1.6,.6,-2,0c-.3,-.5,0,-1.3,.7,-1.8l9.2,-6.7c.8,-.6,1.7,-.6,2,-.1Z" class="g7_234"/>
<path d="M158.4,88.4c.5,.4,.6,1.3,.1,2.1l-5.9,9.8c-.5,.8,-1.3,1.2,-1.9,.9c-.5,-.4,-.5,-1.2,0,-2.1l5.9,-9.8c.5,-.8,1.3,-1.2,1.8,-.9Z" class="g7_234"/>
<path d="M176.2,121.9c.1,-.6,-.6,-1.2,-1.5,-1.3l-11.2,-1.4c-.9,-.1,-1.7,.4,-1.8,1c-.1,.6,.6,1.2,1.5,1.3l11.2,1.3c.9,.2,1.7,-.3,1.8,-.9Z" class="g7_234"/>
<path d="M218.6,220.5c0,0,-13,0,-13,13v47.6c0,0,0,13,13,13H833.3c0,0,13,0,13,-13V233.5c0,0,0,-13,-13,-13Z" class="g8_234"/>
<image clip-path="url(#c1_234)" preserveAspectRatio="none" x="161" y="217" width="75" height="76" xlink:href="img/1.png"/>
<path d="M213.4,286.8c0,0,-26.9,11.3,-51.1,-12.8c0,0,15.1,25.3,49.3,24c0,0,24.7,.3,20.2,-10.2c0,0,1.2,-4.4,-18.4,-1Z" class="g8_234"/>
<path d="M218.6,799.5c0,0,-13,0,-13,13v47.6c0,0,0,13,13,13H833.3c0,0,13,0,13,-13V812.5c0,0,0,-13,-13,-13Z" class="g8_234"/>
<image clip-path="url(#c2_234)" preserveAspectRatio="none" x="161" y="796" width="75" height="76" xlink:href="img/2.png"/>
<path d="M213.4,865.8c0,0,-26.9,11.3,-51.1,-12.8c0,0,15.1,25.3,49.3,24c0,0,24.7,.3,20.2,-10.2c0,0,1.2,-4.4,-18.4,-1Z" class="g8_234"/>
<path d="M145.1,314c0,0,-13,0,-13,12.9V716c0,0,0,12.9,13,12.9H832.9c0,0,13,0,13,-12.9V326.9c0,0,0,-12.9,-13,-12.9Z" class="g7_234"/>
<path d="M145.1,314c0,0,-13,0,-13,12.9V716c0,0,0,12.9,13,12.9H832.9c0,0,13,0,13,-12.9V326.9c0,0,0,-12.9,-13,-12.9H145.1Z" class="g9_234"/>
<path d="M145.1,886.7c0,0,-13,0,-13,13v272.1c0,0,0,13,13,13H832.9c0,0,13,0,13,-13V899.7c0,0,0,-13,-13,-13Z" class="g7_234"/>
<path d="M145.1,886.7c0,0,-13,0,-13,13v272.1c0,0,0,13,13,13H832.9c0,0,13,0,13,-13V899.7c0,0,0,-13,-13,-13H145.1Z" class="g9_234"/>
<path d="M201.7,949.3H730.2V927.9H201.7v21.4Z" class="g7_234"/>
<path d="M201.7,558.4h397V537h-397v21.4Z" class="g7_234"/>
<path d="M787.8,360.8c8.2,0,14.9,-6.5,14.9,-14.5c0,-8,-6.7,-14.5,-14.9,-14.5c-8.2,0,-14.9,6.5,-14.9,14.5c0,8,6.7,14.5,14.9,14.5Z" class="ga_234"/>
<path d="M787.8,360.8c8.2,0,14.9,-6.5,14.9,-14.5c0,-8,-6.7,-14.5,-14.9,-14.5c-8.2,0,-14.9,6.5,-14.9,14.5c0,8,6.7,14.5,14.9,14.5Z" class="gb_234"/>
<path d="M787.8,351.6c3,0,5.5,-2.4,5.5,-5.3c0,-2.9,-2.5,-5.3,-5.5,-5.3c-3,0,-5.5,2.4,-5.5,5.3c0,2.9,2.5,5.3,5.5,5.3Z" class="g7_234"/>
<path d="M787.8,351.6c3,0,5.5,-2.4,5.5,-5.3c0,-2.9,-2.5,-5.3,-5.5,-5.3c-3,0,-5.5,2.4,-5.5,5.3c0,2.9,2.5,5.3,5.5,5.3Z" class="gc_234"/>
<g clip-path="url(#c3_234)" opacity="0.3">
<path d="M773.2,345.5v0c0,0,0,-4.8,3.7,-8.6l7.7,6.7c0,0,-1,.9,-1,2.7Z" class="g7_234"/>
</g>
<path d="M792.4,346.2c0,0,-3.5,0,-3.5,3.5v8.6c0,0,0,3.5,3.5,3.5h43.5c0,0,3.5,0,3.5,-3.5v-8.6c0,0,0,-3.5,-3.5,-3.5Z" class="gd_234"/>
<image clip-path="url(#c4_234)" preserveAspectRatio="none" x="206" y="382" width="121" height="112" xlink:href="img/3.jpg"/>
<path d="M32.1,45.1H9.2m958.3,0h22.9M32.1,1331.3H9.2m958.3,0h22.9M45.1,32.1V9.2m0,1335.1v22.9M954.5,32.1V9.2m0,1335.1v22.9" class="ge_234"/>
<path d="M32.1,45.1H9.2m958.3,0h22.9M32.1,1331.3H9.2m958.3,0h22.9M45.1,32.1V9.2m0,1335.1v22.9M954.5,32.1V9.2m0,1335.1v22.9" class="gf_234"/>
<path d="M27.5,32.1H0m972.1,0h27.5M27.5,1344.3H0m972.1,0h27.5M32.1,27.5V0m0,1348.9v27.5M967.5,27.5V0m0,1348.9v27.5" class="ge_234"/>
<path d="M27.5,32.1H0m972.1,0h27.5M27.5,1344.3H0m972.1,0h27.5M32.1,27.5V0m0,1348.9v27.5M967.5,27.5V0m0,1348.9v27.5" class="gf_234"/>
</svg>