<?xml version="1.0" encoding="UTF-8" standalone="no"?>
<!DOCTYPE svg PUBLIC "-//W3C//DTD SVG 1.1//EN"
"http://www.w3.org/Graphics/SVG/1.1/DTD/svg11.dtd">
<svg viewBox="0 0 999 1376" version="1.1" xmlns="http://www.w3.org/2000/svg" xmlns:xlink="http://www.w3.org/1999/xlink">
<defs>
<clipPath id="c0_21"><path d="M32.1,1344.3V32.1H967.5V1344.3Z"/></clipPath>
<clipPath id="c1_21"><path d="M728.6,204.7V102.2H853V204.7Z"/></clipPath>
<style type="text/css"><![CDATA[
.g0_21{
fill: #FFFEF5;
}
.g1_21{
fill: #94D6DA;
}
.g2_21{
fill: #E9EC9A;
}
.g3_21{
fill: #FFF;
}
.g4_21{
fill: none;
stroke: #888A8D;
stroke-width: 0.412;
}
.g5_21{
fill: none;
stroke: #CADCEA;
stroke-width: 0.33;
}
.g6_21{
fill: none;
stroke: #888A8D;
stroke-width: 0.33;
}
.g7_21{
fill: none;
stroke: #FFF;
stroke-width: 1.909;
stroke-miterlimit: 10;
}
.g8_21{
fill: none;
stroke: #000;
stroke-width: 0.381;
stroke-miterlimit: 10;
}
]]></style>
</defs>
<path d="M32.1,1344.3H967.5V175H32.1V1344.3Z" class="g0_21"/>
<path d="M45.1,188H967.5V32.1H45.1V188Z" class="g1_21"/>
<path d="M32.1,188h13V32.1h-13V188Z" class="g1_21"/>
<path clip-path="url(#c0_21)" d="M-421,179.3c0,0,-1.5,0,-1.5,1.6v5.6c0,0,0,1.5,1.5,1.5H866.4c0,0,1.5,0,1.5,-1.5v-5.6c0,0,0,-1.6,-1.5,-1.6Z" class="g2_21"/>
<path d="M215.4,269.8c0,0,-3.8,0,-3.8,3.7v70.9c0,0,0,3.7,3.8,3.7h78.7c0,0,3.7,0,3.7,-3.7V273.5c0,0,0,-3.7,-3.7,-3.7Z" class="g3_21"/>
<path d="M215.4,269.8c0,0,-3.8,0,-3.8,3.7v70.9c0,0,0,3.7,3.8,3.7h78.7c0,0,3.7,0,3.7,-3.7V273.5c0,0,0,-3.7,-3.7,-3.7H215.4Z" class="g4_21"/>
<path d="M304,269.7c0,0,-3.6,0,-3.6,3.8v29.9c0,0,0,3.7,3.6,3.7H643c0,0,3.6,0,3.6,-3.7V273.5c0,0,0,-3.8,-3.6,-3.8Z" class="g2_21"/>
<path d="M304,269.7c0,0,-3.6,0,-3.6,3.8v29.9c0,0,0,3.7,3.6,3.7H643c0,0,3.6,0,3.6,-3.7V273.5c0,0,0,-3.8,-3.6,-3.8H304Z" class="g5_21"/>
<path d="M304,310.8c0,0,-3.6,0,-3.6,3.7v29.9c0,0,0,3.8,3.6,3.8H643c0,0,3.6,0,3.6,-3.8V314.5c0,0,0,-3.7,-3.6,-3.7Z" class="g3_21"/>
<path d="M304,310.8c0,0,-3.6,0,-3.6,3.7v29.9c0,0,0,3.8,3.6,3.8H643c0,0,3.6,0,3.6,-3.8V314.5c0,0,0,-3.7,-3.6,-3.7H304Z" class="g6_21"/>
<path d="M215.4,360.6c0,0,-3.8,0,-3.8,3.7v70.9c0,0,0,3.7,3.8,3.7h78.7c0,0,3.7,0,3.7,-3.7V364.3c0,0,0,-3.7,-3.7,-3.7Z" class="g3_21"/>
<path d="M215.4,360.6c0,0,-3.8,0,-3.8,3.7v70.9c0,0,0,3.7,3.8,3.7h78.7c0,0,3.7,0,3.7,-3.7V364.3c0,0,0,-3.7,-3.7,-3.7H215.4Z" class="g4_21"/>
<path d="M304,360.5c0,0,-3.6,0,-3.6,3.8v29.9c0,0,0,3.8,3.6,3.8H643c0,0,3.6,0,3.6,-3.8V364.3c0,0,0,-3.8,-3.6,-3.8Z" class="g2_21"/>
<path d="M304,360.5c0,0,-3.6,0,-3.6,3.8v29.9c0,0,0,3.8,3.6,3.8H643c0,0,3.6,0,3.6,-3.8V364.3c0,0,0,-3.8,-3.6,-3.8H304Z" class="g5_21"/>
<path d="M304,401.6c0,0,-3.6,0,-3.6,3.7v29.9c0,0,0,3.8,3.6,3.8H643c0,0,3.6,0,3.6,-3.8V405.3c0,0,0,-3.7,-3.6,-3.7Z" class="g3_21"/>
<path d="M304,401.6c0,0,-3.6,0,-3.6,3.7v29.9c0,0,0,3.8,3.6,3.8H643c0,0,3.6,0,3.6,-3.8V405.3c0,0,0,-3.7,-3.6,-3.7H304Z" class="g6_21"/>
<path d="M215.4,654.1c0,0,-3.8,0,-3.8,3.8v28.9c0,0,0,3.7,3.8,3.7h78.7c0,0,3.7,0,3.7,-3.7V657.9c0,0,0,-3.8,-3.7,-3.8Z" class="g3_21"/>
<path d="M215.4,654.1c0,0,-3.8,0,-3.8,3.8v28.9c0,0,0,3.7,3.8,3.7h78.7c0,0,3.7,0,3.7,-3.7V657.9c0,0,0,-3.8,-3.7,-3.8H215.4Z" class="g4_21"/>
<path d="M215.4,695.1c0,0,-3.8,0,-3.8,3.7v29.5c0,0,0,3.8,3.8,3.8h78.7c0,0,3.7,0,3.7,-3.8V698.8c0,0,0,-3.7,-3.7,-3.7Z" class="g3_21"/>
<path d="M215.4,695.1c0,0,-3.8,0,-3.8,3.7v29.5c0,0,0,3.8,3.8,3.8h78.7c0,0,3.7,0,3.7,-3.8V698.8c0,0,0,-3.7,-3.7,-3.7H215.4Z" class="g4_21"/>
<path d="M304,654.1c0,0,-3.6,0,-3.6,3.7v30c0,0,0,3.7,3.6,3.7H643c0,0,3.6,0,3.6,-3.7v-30c0,0,0,-3.7,-3.6,-3.7Z" class="g2_21"/>
<path d="M304,654.1c0,0,-3.6,0,-3.6,3.7v30c0,0,0,3.7,3.6,3.7H643c0,0,3.6,0,3.6,-3.7v-30c0,0,0,-3.7,-3.6,-3.7H304Z" class="g5_21"/>
<path d="M304,695.1c0,0,-3.6,0,-3.6,3.8v29.9c0,0,0,3.7,3.6,3.7H643c0,0,3.6,0,3.6,-3.7V698.9c0,0,0,-3.8,-3.6,-3.8Z" class="g3_21"/>
<path d="M304,695.1c0,0,-3.6,0,-3.6,3.8v29.9c0,0,0,3.7,3.6,3.7H643c0,0,3.6,0,3.6,-3.7V698.9c0,0,0,-3.8,-3.6,-3.8H304Z" class="g6_21"/>
<image clip-path="url(#c1_21)" preserveAspectRatio="none" x="729" y="102" width="124" height="103" xlink:href="img/1.png"/>
<path d="M32.1,45.1H9.2m958.3,0h22.9M32.1,1331.3H9.2m958.3,0h22.9M45.1,32.1V9.2m0,1335.1v22.9M954.5,32.1V9.2m0,1335.1v22.9" class="g7_21"/>
<path d="M32.1,45.1H9.2m958.3,0h22.9M32.1,1331.3H9.2m958.3,0h22.9M45.1,32.1V9.2m0,1335.1v22.9M954.5,32.1V9.2m0,1335.1v22.9" class="g8_21"/>
<path d="M27.5,32.1H0m972.1,0h27.5M27.5,1344.3H0m972.1,0h27.5M32.1,27.5V0m0,1348.9v27.5M967.5,27.5V0m0,1348.9v27.5" class="g7_21"/>
<path d="M27.5,32.1H0m972.1,0h27.5M27.5,1344.3H0m972.1,0h27.5M32.1,27.5V0m0,1348.9v27.5M967.5,27.5V0m0,1348.9v27.5" class="g8_21"/>
</svg>