<?xml version="1.0" encoding="UTF-8" standalone="no"?>
<!DOCTYPE svg PUBLIC "-//W3C//DTD SVG 1.1//EN"
"http://www.w3.org/Graphics/SVG/1.1/DTD/svg11.dtd">
<svg viewBox="0 0 999 1376" version="1.1" xmlns="http://www.w3.org/2000/svg" xmlns:xlink="http://www.w3.org/1999/xlink">
<defs>
<clipPath id="c0_310"><path d="M32.1,1344.3V32.1H967.5V1344.3Z"/></clipPath>
<clipPath id="c1_310"><path d="M70.4,664.5V562.2H210.6V664.5Z"/></clipPath>
<clipPath id="c2_310"><path d="M67.9,668.3V559.4H212.6V668.3Z"/></clipPath>
<clipPath id="c3_310"><path d="M67.6,668V559.1H212.3V668Z"/></clipPath>
<clipPath id="c4_310"><path d="M177,520l-6.5,-2.2L154.1,503.9V446.8h72V520Z"/></clipPath>
<clipPath id="c5_310"><path d="M177,1092.7l-6.5,-2.1l-16.4,-13.9v-57.1h72v73.1Z"/></clipPath>
<clipPath id="c6_310"><path d="M125.2,576.5c-.2,-.1,3.6,-8.3,3.6,-8.3l.8,.6c0,0,-4.1,7.7,-4.4,7.7Z"/></clipPath>
<clipPath id="c7_310"><path d="M132.7,568.7c0,0,-6.8,-1.1,-7.5,-5.2c-.7,-3.6,1.5,-3.8,2,-3.8c.1,0,.2,0,.2,0l8.3,-12.8l-1.5,-3c0,0,-.6,-1.2,.2,-2.1c0,-.1,.1,-.1,.3,-.1c2.1,0,12.9,5.5,12.9,5.5l.1,.2c-.4,.5,-.7,1.1,-1.4,1.6c-.7,.5,-5.1,1.2,-5.1,1.2l-8.5,18.5Z"/></clipPath>
<clipPath id="c8_310"><path d="M132.3,568.4c.3,-.5,.3,-1.8,0,-2.3v-1.4c-1.5,-.5,-2.8,-1.2,-3.6,-2.5c-1.1,.6,-2.1,1.2,-3.1,1.9c1.5,2.1,3.8,3.6,6.7,4.3Zm0,-3.9c2.2,-4.6,4,-9.5,6.2,-14.1c-.9,-.4,-1.8,-1.3,-2.6,-1.4c-2.3,4.4,-4.6,8.7,-7.1,12.8c.8,1.4,2.1,2.1,3.5,2.7Zm-7.2,12c1,-2.8,2.4,-5.4,3.5,-8.2c-2,-1.6,-3.9,-3.2,-4.4,-6.2v-1.5c-.1,-2.7,1.9,-3.4,4.6,-3.4c0,0,.1,0,.2,0c1.9,-3.3,4.2,-6.3,6.1,-9.7c-.6,-.8,-1.2,-2.3,-.9,-3.6c.5,1.2,1.7,1.9,2.4,2.9c-.1,.6,-.3,1.1,-.4,1.7c.6,.7,1.4,1.2,2.4,1.4c.5,-.4,.5,-1.2,1.2,-1.5c.9,.4,1.8,.7,3.1,.8c.1,.1,.5,.1,.8,.1c.4,0,.7,0,.8,-.1c.1,0,.2,0,.3,0c.3,0,.5,-.1,.7,-.1c.1,-.1,.3,-.2,.5,-.2c.1,0,.2,.1,.3,.1c-1.3,.7,-2.2,1.8,-4.2,1.8c-.1,0,-.2,0,-.3,0c-.9,3.7,-1.9,7.3,-2.7,11.2c.6,1,1.5,1.7,1.3,3.1c-.5,2.7,-3.9,4.4,-7.2,4.4c-1.3,0,-2.5,-.2,-3.6,-.7c-1,2.1,-2.1,4.1,-3.3,6c0,-.4,.3,-.4,.3,-.8c.9,-1.8,1.9,-3.6,2.6,-5.6c-1.1,1.7,-1.8,3.7,-2.8,5.5c-.2,.4,-.4,.8,-.6,1.3c-.3,.4,-.3,1.1,-.7,1.3Z"/></clipPath>
<clipPath id="c9_310"><path d="M142.8,548.8c-4.8,0,-13.1,-7.3,-5.6,-8.8h1.3c.2,0,.3,0,.5,0q.1,0,.2,0q.1,0,.2,0c.3,0,.6,0,.9,.1c3,.6,8.2,3.8,7.5,7c-.2,1.2,-1.5,1.6,-3.1,1.7h-1.8c0,0,-.1,0,-.1,0Z"/></clipPath>
<clipPath id="ca_310"><path d="M778.8,676.1v-60H908v60Z"/></clipPath>
<clipPath id="cb_310"><path d="M778.3,680.7V613.6H908.1v67.1Z"/></clipPath>
<clipPath id="cc_310"><path d="M778,680.4V613.3H907.8v67.1Z"/></clipPath>
<clipPath id="cd_310"><path d="M841.3,630.2c-.3,-.1,3.5,-8.2,3.5,-8.2l.8,.5c0,0,-4,7.7,-4.3,7.7Z"/></clipPath>
<clipPath id="ce_310"><path d="M848.8,622.5c0,0,-6.9,-1.1,-7.6,-5.3c-.7,-3.6,1.5,-3.8,2.1,-3.8c0,0,.1,0,.1,0l8.3,-12.7l-1.5,-3.1c0,0,-.5,-1.1,.2,-2.1c0,0,.1,-.1,.3,-.1c2.1,0,12.9,5.6,12.9,5.6l.1,.1c-.4,.5,-.7,1.2,-1.4,1.7c-.6,.5,-5.1,1.1,-5.1,1.1l-8.4,18.6Z"/></clipPath>
<clipPath id="cf_310"><path d="M848.4,622.1c.2,-.5,.2,-1.8,0,-2.2v-1.4c-1.6,-.6,-2.9,-1.3,-3.7,-2.5c-1.1,.5,-2.1,1.2,-3.1,1.8c1.5,2.2,3.8,3.6,6.8,4.3Zm0,-3.9c2.2,-4.5,3.9,-9.5,6.1,-14.1c-.9,-.3,-1.8,-1.3,-2.6,-1.3c-2.3,4.3,-4.6,8.6,-7.1,12.8c.8,1.3,2.1,2,3.6,2.6Zm-7.3,12.1c1,-2.9,2.4,-5.5,3.5,-8.3c-2,-1.6,-3.9,-3.1,-4.4,-6.2v-1.5c-.1,-2.7,1.9,-3.4,4.6,-3.4c0,0,.1,0,.2,0c1.9,-3.3,4.2,-6.3,6.1,-9.6c-.5,-.9,-1.1,-2.4,-.9,-3.7c.6,1.3,1.7,1.9,2.4,2.9c-.1,.6,-.3,1.1,-.3,1.8c.6,.6,1.3,1.1,2.3,1.3c.5,-.4,.6,-1.2,1.2,-1.5c.9,.4,1.8,.8,3.1,.8c.1,.1,.5,.1,.8,.1c.4,0,.7,0,.9,-.1c.1,0,.2,0,.3,0c.2,0,.4,0,.6,-.1c.2,-.1,.3,-.1,.5,-.1c.1,0,.2,0,.3,.1c-1.3,.6,-2.2,1.7,-4.1,1.7c-.2,0,-.3,0,-.4,0c-.9,3.8,-1.9,7.4,-2.7,11.2c.6,1.1,1.5,1.7,1.3,3.1c-.5,2.8,-3.9,4.4,-7.2,4.4c-1.3,0,-2.5,-.2,-3.6,-.7c-1,2.1,-2.1,4.1,-3.3,6c0,-.3,.3,-.4,.3,-.7c.9,-1.8,1.9,-3.6,2.6,-5.7c-1,1.7,-1.8,3.7,-2.7,5.5c-.3,.5,-.5,.9,-.7,1.3c-.3,.4,-.3,1.1,-.7,1.4Z"/></clipPath>
<clipPath id="cg_310"><path d="M858.8,602.5c-4.8,0,-13.1,-7.3,-5.5,-8.8h1.2c.2,.1,.3,.1,.5,.1c.1,0,.2,0,.2,0c.1,0,.2,0,.2,0c.3,0,.6,0,.9,0c3.1,.7,8.2,3.8,7.5,7.1c-.2,1.1,-1.5,1.6,-3.1,1.6h-1.8c0,0,-.1,0,-.1,0Z"/></clipPath>
<clipPath id="ch_310"><path d="M111.5,938.4v-71H212.7v71Z"/></clipPath>
<clipPath id="ci_310"><path d="M111.7,939.7V866.5H212.9v73.2Z"/></clipPath>
<clipPath id="cj_310"><path d="M111.4,939.4V866.2H212.6v73.2Z"/></clipPath>
<clipPath id="ck_310"><path d="M155.3,884.3c-.3,-.1,3.5,-8.3,3.5,-8.3l.8,.5c0,0,-4,7.8,-4.3,7.8Z"/></clipPath>
<clipPath id="cl_310"><path d="M162.8,876.5c0,0,-6.9,-1.1,-7.6,-5.2c-.6,-3.6,1.5,-3.8,2.1,-3.8q.1,0,.1,0l8.3,-12.8l-1.4,-3c0,0,-.6,-1.2,.1,-2.1c.1,-.1,.2,-.1,.3,-.1c2.1,0,13,5.5,13,5.5v.2c-.3,.5,-.7,1.1,-1.4,1.6c-.6,.5,-5.1,1.2,-5.1,1.2l-8.4,18.5Z"/></clipPath>
<clipPath id="cm_310"><path d="M162.4,876.2c.2,-.5,.2,-1.8,0,-2.3v-1.4c-1.6,-.5,-2.9,-1.2,-3.7,-2.5c-1.1,.6,-2.1,1.2,-3.1,1.9c1.5,2.1,3.8,3.5,6.8,4.3Zm0,-3.9c2.2,-4.6,4,-9.5,6.1,-14.1c-.8,-.4,-1.8,-1.3,-2.6,-1.4c-2.3,4.3,-4.6,8.6,-7,12.8c.7,1.4,2.1,2,3.5,2.7Zm-7.3,12c1,-2.9,2.4,-5.4,3.5,-8.3c-2,-1.5,-3.9,-3.1,-4.4,-6.1v-1.5c0,-2.7,1.9,-3.4,4.6,-3.4q.1,0,.2,0c1.9,-3.3,4.2,-6.3,6.1,-9.7c-.5,-.8,-1.1,-2.4,-.8,-3.6c.5,1.2,1.6,1.9,2.4,2.9c-.2,.6,-.3,1.1,-.4,1.7c.6,.7,1.3,1.2,2.4,1.4c.4,-.4,.5,-1.2,1.1,-1.5c.9,.3,1.8,.7,3.1,.7c.2,.1,.5,.2,.9,.2c.3,0,.6,-.1,.8,-.2c.1,.1,.2,.1,.3,.1c.2,0,.4,-.1,.6,-.2c.2,0,.4,-.1,.5,-.1c.1,0,.2,0,.3,.1c-1.3,.7,-2.2,1.8,-4.1,1.8c-.2,0,-.3,0,-.4,0c-.9,3.7,-1.9,7.3,-2.6,11.2c.5,1,1.5,1.7,1.2,3.1c-.4,2.7,-3.8,4.4,-7.2,4.4c-1.2,0,-2.5,-.2,-3.6,-.8c-1,2.1,-2.1,4.2,-3.3,6.1c0,-.4,.3,-.4,.3,-.8c1,-1.8,1.9,-3.6,2.6,-5.6c-1,1.7,-1.8,3.7,-2.7,5.5c-.2,.4,-.4,.8,-.7,1.3c-.3,.4,-.3,1.1,-.7,1.3Z"/></clipPath>
<clipPath id="cn_310"><path d="M172.8,856.6c-4.8,0,-13.1,-7.3,-5.5,-8.8h1.2c.2,0,.4,0,.5,0c.1,0,.2,0,.2,0q.1,0,.1,0c.3,0,.6,0,1,.1c3.1,.6,8.2,3.8,7.5,7c-.2,1.2,-1.5,1.6,-3.1,1.7h-1.9Z"/></clipPath>
<clipPath id="co_310"><path d="M764.8,411.1V398.6h14.5v12.5Z"/></clipPath>
<clipPath id="cp_310"><path d="M125.5,386.7V205.8H858.6V386.7Z"/></clipPath>
<style type="text/css"><![CDATA[
.g0_310{
fill: #FEFCF4;
}
.g1_310{
fill: #FFF;
}
.g2_310{
fill: none;
stroke: #6381B7;
stroke-width: 0.763;
}
.g3_310{
fill: #F7C2D9;
}
.g4_310{
fill: #FDF4F3;
}
.g5_310{
fill: #EC008C;
}
.g6_310{
fill: none;
stroke: #949698;
stroke-width: 0.305;
stroke-dasharray: 4,4;
}
.g7_310{
fill: #6D6F71;
}
.g8_310{
fill: none;
stroke: #818385;
stroke-width: 0.305;
stroke-dasharray: 4,4;
}
.g9_310{
fill: none;
stroke: #818385;
stroke-width: 0.305;
}
.ga_310{
fill: #6381B7;
}
.gb_310{
fill: none;
stroke: #6381B7;
stroke-width: 0.381;
stroke-dasharray: 2,1;
}
.gc_310{
fill: none;
stroke: #6381B7;
stroke-width: 0.381;
}
.gd_310{
fill: #FCE8B0;
}
.ge_310{
fill: none;
stroke: #818385;
stroke-width: 0.305;
stroke-dasharray: 3,3;
}
.gf_310{
fill: none;
stroke: #949698;
stroke-width: 0.305;
stroke-dasharray: 3,3;
}
.gg_310{
fill: none;
stroke: #949698;
stroke-width: 0.305;
}
.gh_310{
fill: #2E6E51;
}
.gi_310{
fill: none;
stroke: #FFF;
stroke-width: 0.152;
stroke-miterlimit: 1;
}
.gj_310{
fill: #BCBEC0;
}
.gk_310{
fill: #EE314A;
}
.gl_310{
fill: #25408F;
}
.gm_310{
fill: #A8AAAD;
}
.gn_310{
fill: none;
stroke: #949698;
stroke-width: 0.549;
}
.go_310{
fill: none;
stroke: #BCBEC0;
stroke-width: 2.566;
}
.gp_310{
fill: #231F20;
}
.gq_310{
fill: #363637;
}
.gr_310{
fill: #5CC4BE;
}
.gs_310{
fill: #EAD646;
}
.gt_310{
fill: #CEEDFB;
}
.gu_310{
fill: #27639D;
}
.gv_310{
fill: none;
stroke: #C3E7F1;
stroke-width: 1.527;
}
.gw_310{
fill: none;
stroke: #FFF;
stroke-width: 1.909;
stroke-miterlimit: 10;
}
.gx_310{
fill: none;
stroke: #000;
stroke-width: 0.381;
stroke-miterlimit: 10;
}
]]></style>
</defs>
<path d="M32.1,1343.2H954.5V32.1H32.1V1343.2Z" class="g0_310"/>
<path clip-path="url(#c0_310)" d="M954.5,1344.3H1877V32.1H954.5V1344.3Z" class="g0_310"/>
<path d="M150.4,416.4c0,0,-18.3,0,-18.3,18.3V979.5c0,0,0,18.4,18.3,18.4H827.5c0,0,18.4,0,18.4,-18.4V416.4Z" class="g1_310"/>
<path d="M150.4,416.4c0,0,-18.3,0,-18.3,18.3V979.5c0,0,0,18.4,18.3,18.4H827.5c0,0,18.4,0,18.4,-18.4V416.4H150.4Z" class="g2_310"/>
<image clip-path="url(#c1_310)" preserveAspectRatio="none" x="70" y="563" width="140" height="102" xlink:href="img/1.png"/>
<path d="M75.7,569.6l-.4,88.9l127.4,-3.1l1.5,-88Z" class="g3_310"/>
<image clip-path="url(#c2_310)" preserveAspectRatio="none" x="67" y="560" width="145" height="109" xlink:href="img/2.png"/>
<image clip-path="url(#c3_310)" preserveAspectRatio="none" x="67" y="560" width="145" height="108" xlink:href="img/3.png"/>
<path d="M72.4,573.9l6.8,88.3l105,-8.4l21.9,-19.3l-5.6,-70.6Z" class="g4_310"/>
<path d="M184.3,653.8l21.9,-19.2l-20,-.2Z" class="g5_310"/>
<path d="M361,539.2C203.7,513.4,155.8,570.3,155.8,570.3" class="g6_310"/>
<path d="M161.1,572.4l-6.6,-5.9l-4.2,11.4Z" class="g7_310"/>
<path d="M372.3,569.1c9.3,-1.2,16.7,-5.8,18.6,-11.7m-.6,-7.5c-2.7,-5.5,-10.3,-9.7,-19.5,-10.4m-7.7,.1c-9.3,1.2,-16.7,5.8,-18.6,11.7m.6,7.5c2.7,5.5,10.3,9.7,19.5,10.4" class="g8_310"/>
<path d="M391.3,555.9c0,-.5,.1,-1,.1,-1.5c0,-.6,-.1,-1.1,-.1,-1.6m-22,-13.4c-.6,0,-1.1,0,-1.6,0c-.5,0,-1,0,-1.5,0m-22,13.4c-.1,.5,-.2,1,-.2,1.6c0,.5,.1,1,.2,1.5m22,13.4c.5,.1,1,.1,1.5,.1c.5,0,1,0,1.6,-.1" class="g9_310"/>
<path d="M397,1223.7c0,0,-4.3,0,-4.3,4.4v10.8c0,0,0,4.3,4.3,4.3h30.3c0,0,4.4,0,4.4,-4.3v-10.8c0,0,0,-4.4,-4.4,-4.4Z" class="ga_310"/>
<path d="M383.9,1216.3v34.8m1.3,1H845.1m1,-1.4v-34.8m-1.4,-1H384.8" class="gb_310"/>
<path d="M383.9,1251.5v.6h.5m461.1,0h.6v-.6m0,-36v-.6h-.6m-461.1,0h-.5v.6" class="gc_310"/>
<path d="M145.1,1006.9c0,0,-13,0,-13,13v176c0,0,0,13,13,13H832.9c0,0,13,0,13,-13v-176c0,0,0,-13,-13,-13Z" class="g1_310"/>
<path d="M145.1,1006.9c0,0,-13,0,-13,13v176c0,0,0,13,13,13H832.9c0,0,13,0,13,-13v-176c0,0,0,-13,-13,-13H145.1Z" class="g2_310"/>
<path d="M209.6,449c0,0,-12.9,0,-12.9,13v47.6c0,0,0,13,12.9,13h602c0,0,13,0,13,-13V462c0,0,0,-13,-13,-13Z" class="gd_310"/>
<image clip-path="url(#c4_310)" preserveAspectRatio="none" x="153" y="445" width="75" height="77" xlink:href="img/4.png"/>
<path d="M204.4,515.2c0,0,-26.8,11.3,-51.1,-12.7c0,0,15.2,25.3,49.3,23.9c0,0,24.8,.4,20.3,-10.1c0,0,1.2,-4.4,-18.5,-1.1Z" class="gd_310"/>
<path d="M209.6,1047.8c0,0,-12.9,0,-12.9,12.9v21.7c0,0,0,13,12.9,13h602c0,0,13,0,13,-13v-21.7c0,0,0,-12.9,-13,-12.9Z" class="gd_310"/>
<image clip-path="url(#c5_310)" preserveAspectRatio="none" x="153" y="1018" width="75" height="76" xlink:href="img/5.png"/>
<path d="M204.4,1088c0,0,-26.8,11.3,-51.1,-12.7c0,0,15.2,25.3,49.3,23.9c0,0,24.8,.4,20.3,-10.1c0,0,1.2,-4.4,-18.5,-1.1Z" class="gd_310"/>
<image clip-path="url(#c6_310)" x="124" y="568" width="6" height="9" xlink:href="shade/1.png"/>
<image clip-path="url(#c7_310)" x="124" y="541" width="24" height="28" xlink:href="shade/2.png"/>
<image clip-path="url(#c8_310)" x="124" y="543" width="23" height="34" xlink:href="shade/3.png"/>
<image clip-path="url(#c9_310)" x="129" y="539" width="20" height="10" xlink:href="shade/4.png"/>
<image clip-path="url(#ca_310)" preserveAspectRatio="none" x="778" y="616" width="130" height="61" xlink:href="img/6.png"/>
<path d="M784.1,623.4l-.2,46.3l117.7,-1.8l-.7,-46.5Z" class="g3_310"/>
<image clip-path="url(#cb_310)" preserveAspectRatio="none" x="778" y="614" width="130" height="67" xlink:href="img/7.png"/>
<image clip-path="url(#cc_310)" preserveAspectRatio="none" x="778" y="614" width="130" height="66" xlink:href="img/8.png"/>
<path d="M782.8,627.2l3.7,47.4L879.8,667l21.8,-20.4L899.2,618Z" class="g4_310"/>
<path d="M879.8,667l21.8,-20.4L888,644.7Z" class="g5_310"/>
<path d="M373.2,703.3c8.8,-1.2,15.8,-5.9,17.5,-11.8m-.5,-7.3c-2.5,-5.5,-9.7,-9.7,-18.5,-10.5m-7.4,.1c-8.9,1.2,-15.8,5.9,-17.6,11.8m.5,7.3c2.5,5.5,9.7,9.8,18.6,10.5" class="ge_310"/>
<path d="M391.1,690c0,-.5,.1,-.9,.1,-1.4c0,-.5,-.1,-1,-.1,-1.5M370.2,673.6c-.5,0,-1,-.1,-1.5,-.1c-.5,0,-1,.1,-1.5,.1m-20.8,13.5c-.1,.5,-.1,1,-.1,1.5c0,.5,0,.9,.1,1.4m20.8,13.5c.5,.1,1,.1,1.5,.1c.5,0,1,0,1.5,-.1" class="g9_310"/>
<path d="M386.8,673.4C410.3,669.9,521.6,654,607.6,653.6" class="g6_310"/>
<path d="M614.8,654.2c2.9,.6,6.6,1.7,8.7,3.7m.6,6.4c-2.6,4.3,-9.2,8.2,-13.4,5.9m-3.2,-6.1c.1,-6.2,7.7,-13.2,20.8,-15.4" class="gf_310"/>
<path d="M635.8,647.9c26.5,-2.4,122.6,-9,143.8,-10.4" class="g6_310"/>
<path d="M382.3,674.1c0,0,.5,-.1,1.5,-.2M609.2,653.6c.5,0,1,0,1.5,0c0,0,.5,0,1.3,.2m12.4,5.2c.2,.4,.4,.8,.6,1.3c.1,.4,.1,.9,.1,1.4m-15.5,7.7c-.3,-.3,-.6,-.7,-.9,-1.1c-.2,-.5,-.5,-.9,-.6,-1.3m21.7,-18.5c.5,0,.9,-.1,1.4,-.2c.5,0,1,-.1,1.5,-.1M781.1,637.4c.6,0,1.1,-.1,1.5,-.1" class="gg_310"/>
<path d="M779.6,632.9l.6,8.8l11,-5.3Z" class="g7_310"/>
<image clip-path="url(#cd_310)" x="841" y="621" width="5" height="10" xlink:href="shade/5.png"/>
<image clip-path="url(#ce_310)" x="840" y="595" width="24" height="28" xlink:href="shade/6.png"/>
<image clip-path="url(#cf_310)" x="840" y="597" width="23" height="34" xlink:href="shade/7.png"/>
<image clip-path="url(#cg_310)" x="845" y="593" width="20" height="10" xlink:href="shade/8.png"/>
<path d="M437.6,890.5c13.4,-.9,24.1,-5.6,26.9,-11.7m-.8,-7.6c-3.8,-5.6,-14.6,-9.8,-27.7,-10.4m-8,.1c-13.4,.9,-24.1,5.6,-26.8,11.7m.8,7.6c3.8,5.6,14.6,9.8,27.6,10.4" class="g8_310"/>
<path d="M465,877.3c.1,-.5,.1,-1.1,.1,-1.6c0,-.5,0,-1.1,-.1,-1.6M434.4,860.7c-.5,0,-1,0,-1.6,0c-.5,0,-1.1,0,-1.6,0m-30.5,13.4c-.1,.5,-.2,1.1,-.2,1.6c0,.5,.1,1.1,.2,1.6m30.5,13.4c.5,0,1.1,0,1.6,0c.6,0,1.1,0,1.6,0" class="g9_310"/>
<image clip-path="url(#ch_310)" preserveAspectRatio="none" x="112" y="868" width="100" height="71" xlink:href="img/9.png"/>
<path d="M118.7,872.6l-2.4,56.3l89,3l1.4,-56.5Z" class="g3_310"/>
<image clip-path="url(#ci_310)" preserveAspectRatio="none" x="112" y="867" width="100" height="73" xlink:href="img/10.png"/>
<image clip-path="url(#cj_310)" preserveAspectRatio="none" x="111" y="867" width="101" height="72" xlink:href="img/11.png"/>
<path d="M116.1,877.2l4,56.2l64.8,-4.6l21.8,-20.5l-2.6,-37.4Z" class="g4_310"/>
<path d="M185,928.8l21.8,-20.4l-13.6,-2Z" class="g5_310"/>
<path d="M434.8,891.7c-3.4,31.2,-226.9,7,-226.9,7" class="g6_310"/>
<path d="M211.3,894.1l-2.4,8.5l-9.6,-7.4Z" class="g7_310"/>
<image clip-path="url(#ck_310)" x="155" y="876" width="5" height="9" xlink:href="shade/9.png"/>
<image clip-path="url(#cl_310)" x="154" y="849" width="24" height="28" xlink:href="shade/10.png"/>
<image clip-path="url(#cm_310)" x="154" y="851" width="23" height="34" xlink:href="shade/11.png"/>
<image clip-path="url(#cn_310)" x="159" y="847" width="20" height="10" xlink:href="shade/12.png"/>
<path d="M32.1,179.3H967.5V32.1H32.1V179.3Z" class="gh_310"/>
<path d="M254.5,134c-.5,0,-1,.2,-1.5,.4c-.5,.3,-.9,.5,-1.3,.8c-.8,.8,-1.4,1.8,-1.8,2.8c-.4,1,-.7,2.1,-.7,3.3c0,1.5,.3,2.8,.9,3.9c.8,1.4,1.8,2.1,3.2,2.1c.3,0,.6,0,.9,-.1c.2,-.1,.5,-.2,.7,-.4c.2,-.2,.3,-.4,.4,-.7c.1,-.2,.2,-.5,.2,-.8c0,-.4,-.1,-.9,-.4,-1.2c-.3,-.3,-.7,-.5,-1,-.5c-.2,0,-.4,.1,-.6,.1c-.2,.1,-.3,.2,-.5,.3c-.1,.2,-.2,.3,-.3,.4c-.1,.2,-.1,.4,-.1,.6c0,.2,0,.4,.2,.7c.1,.2,.3,.4,.5,.6c0,0,-.1,.1,-.2,.1H253c-.8,0,-1.4,-.5,-1.9,-1.4c-.5,-.7,-.7,-1.5,-.7,-2.3c0,-1,.1,-1.9,.3,-2.7c.2,-.7,.6,-1.4,1,-2.1c.4,-.7,1,-1.3,1.6,-1.7c.7,-.5,1.5,-.8,2.4,-1L254.5,134Zm12.3,1.2L265.6,134H253.8l1.2,1.2h8.2v.9c-2.5,.8,-5,2.1,-7.4,3.7l1.6,2.3c1.7,.1,3,.7,4.1,1.6c.3,.3,.6,.6,.9,1c.3,.4,.6,.8,.8,1.2c.1,.3,.3,.5,.3,.7c.1,.1,.1,.2,.2,.4l.6,.8V135.2h2.5Zm-3.6,9.4c-1.1,-1.8,-2.7,-3.2,-4.9,-4.1c.9,-.6,1.8,-1.1,2.5,-1.5c.8,-.4,1.6,-.7,2.4,-1v6.6ZM279.1,134H264.9l1.2,1.2h14.3L279.1,134Zm-.5,5.6c-.3,-.6,-.6,-1.2,-1,-1.7c-.4,-.5,-.9,-.9,-1.5,-1.1c-.5,-.3,-1.1,-.5,-1.8,-.5c-.8,0,-1.4,.3,-2,.7c-.6,.5,-.9,1.1,-.9,1.9c0,.6,.2,1.2,.6,1.6c.3,.5,.8,.7,1.5,.7c1.2,0,1.9,-.6,1.9,-1.7c0,-.5,-.2,-1,-.5,-1.4c.4,-.1,.7,-.2,.9,-.2c.6,0,1.1,.3,1.5,.9c.4,.6,.6,1.1,.6,1.8c0,.8,-.4,1.6,-1,2.3c-.9,.6,-1.7,1,-2.5,1c-1.8,0,-3.3,-.9,-4.5,-2.8c-.3,-.3,-.6,-1,-1,-1.8c-.5,-.9,-.9,-1.9,-1.4,-3.1l-.7,-.2c1.8,6.5,4.3,9.8,7.5,9.8c1.2,0,2.3,-.5,3.2,-1.3c.4,-.4,.8,-.8,1,-1.4c.3,-.5,.4,-1,.4,-1.6c0,-.7,-.1,-1.3,-.3,-1.9Zm13.1,-4.4L290.4,134H278.8l1.1,1.2h8.5v6.6h-.1c-1.3,-2.6,-2.8,-4,-4.4,-4c-.8,0,-1.5,.3,-2.1,.9c-.6,.5,-.9,1.2,-.9,2c0,1.5,.8,2.2,2.3,2.2c.5,0,.9,-.2,1.2,-.5c.3,-.4,.5,-.8,.5,-1.3c0,-.3,-.3,-.8,-.8,-1.5c.1,-.1,.2,-.1,.3,-.1c1.3,0,2.4,.8,3.4,2.5c.6,1.4,.9,2.9,.9,4.2l-.1,1.3l1,.6V135.2h2.1Zm19.8,-3.3c-2.3,-2.4,-4.8,-3.6,-7.3,-3.6c-1,0,-2,.4,-3.1,1.2c-1,.9,-1.6,1.8,-1.6,2.7c0,.4,.2,.7,.5,1l.8,.8h-3.2l1.2,1.2h1.8v11.3l1.3,1.2V135.2h2L302.7,134h-1.3l-.4,-1.1c0,-.9,.6,-1.6,1.6,-2.3c.9,-.7,1.9,-1,2.8,-1c.6,0,1.2,.1,1.7,.2c.6,.2,1.2,.4,1.7,.7c.6,.4,1.2,.7,1.6,1c.5,.4,.9,.7,1.3,1l-.2,-.6Zm3.7,3.3L314,134H302.2l1.2,1.2h8.1v.9c-2.5,.8,-4.9,2.1,-7.3,3.7l1.5,2.3c1.7,.1,3.1,.7,4.1,1.6c.3,.3,.6,.6,1,1c.3,.4,.5,.8,.7,1.2c.2,.3,.3,.5,.4,.7c0,.1,.1,.2,.1,.4l.7,.8V135.2h2.5Zm-3.7,9.4c-1,-1.8,-2.6,-3.2,-4.8,-4.1c.9,-.6,1.7,-1.1,2.5,-1.5c.8,-.4,1.6,-.7,2.3,-1v6.6Zm14.6,-9.4L325,134H313.1l1.2,1.2h8.2v.9c-2.5,.8,-5,2.1,-7.4,3.7l1.6,2.3c1.7,.1,3.1,.7,4.1,1.6c.3,.3,.6,.6,.9,1c.3,.4,.6,.8,.8,1.2c.1,.3,.3,.5,.3,.7c.1,.1,.1,.2,.2,.4l.7,.8V135.2h2.4Zm-3.6,9.4c-1.1,-1.8,-2.7,-3.2,-4.8,-4.1c.8,-.6,1.7,-1.1,2.5,-1.5c.7,-.4,1.5,-.7,2.3,-1v6.6Zm14.6,-9.4L335.9,134H324.1l1.2,1.2h8.1v.9c-2.5,.8,-4.9,2.1,-7.3,3.7l1.6,2.3h-.1c1.7,.1,3.1,.7,4.1,1.6c.3,.3,.6,.6,1,1c.3,.4,.5,.8,.7,1c.1,.3,.3,.7,.5,1.3l.7,.8V135.2h2.5Zm-3.7,9.4c-1,-1.8,-2.6,-3.2,-4.8,-4.1c.9,-.6,1.7,-1.1,2.5,-1.5c.8,-.4,1.6,-.7,2.3,-1v6.6Zm-4.7,1.7c.3,.3,.6,.4,.9,.4c.4,0,.7,-.1,.9,-.4c.2,-.2,.4,-.5,.4,-.8c0,-.4,-.2,-.7,-.4,-.9c-.2,-.3,-.5,-.4,-.9,-.4c-.3,0,-.6,.1,-.9,.4c-.2,.2,-.3,.5,-.3,.9c0,.3,.1,.6,.3,.8Zm19.1,-11.1L346.6,134c-.5,0,-.8,-.1,-1.1,-.4c-.2,-.3,-.3,-.8,-.3,-1.4l-.7,-.5v5.5c-.2,-.9,-.6,-1.6,-1.2,-2.2c-.7,-.7,-1.4,-1.1,-2.3,-1.1c-1.1,0,-2.1,.5,-2.8,1.3c-.3,.4,-.6,.8,-.8,1.3c-.2,.5,-.3,1,-.3,1.6c0,.9,.4,1.8,1,2.5c.6,.6,1.4,1,2.4,1c.2,0,.5,-.1,.8,-.1c.2,-.1,.4,-.2,.6,-.4c.2,-.1,.4,-.3,.5,-.5c.1,-.2,.2,-.5,.2,-.7c0,-.4,-.2,-.7,-.4,-1c-.3,-.3,-.6,-.5,-1,-.5c-.8,.1,-1.1,.4,-1.2,1c0,.1,0,.3,0,.3c.1,.1,.1,.2,.1,.3q.1,.1,.1,.2q-.1,0,-.2,0c-.4,0,-.7,-.3,-.9,-.8c-.1,-.2,-.2,-.4,-.2,-.6c-.1,-.2,-.1,-.5,-.1,-.7c0,-.7,.2,-1.2,.7,-1.7c.4,-.5,1,-.7,1.6,-.7c1,0,1.8,.4,2.4,1.2c.6,.8,.9,1.6,.9,2.6v6.8l1.3,1.4V135.2h2.1Zm4.7,0L351.3,134h-1.1c-1.2,-4.2,-3.7,-6.3,-7.6,-6.3c-.4,0,-.9,0,-1.4,.1c-.5,.1,-.9,.3,-1.4,.4c-.5,.3,-.9,.6,-1.2,.9c-.3,.3,-.5,.6,-.5,1c0,.4,.2,.8,.5,1.1c.3,.3,.7,.6,1.3,.8c.1,0,.5,0,1,.1c.6,.1,1.3,.2,2.3,.3c1.2,.1,1.8,.4,1.8,.9c0,.3,-.2,.6,-.5,.8h1.2c0,-.4,0,-.7,0,-.7c0,-.6,-.1,-1.1,-.4,-1.4c-.3,-.4,-.8,-.7,-1.5,-.9c-.5,-.1,-1.6,-.2,-3.2,-.3c-1.3,-.1,-1.9,-.3,-1.9,-.7c0,-.4,.5,-.7,1.5,-.9c.3,-.1,.6,-.2,1,-.2c.3,-.1,.6,-.1,1,-.1c3.9,0,6.2,1.7,6.8,5.1h-3l1.3,1.2H349v11.3l1.2,1.2V135.2h2.3Zm11.7,-3.3c-2.3,-2.4,-4.7,-3.6,-7.2,-3.6c-1,0,-2,.4,-3.1,1.2c-1.1,.9,-1.6,1.8,-1.6,2.7c0,.4,.1,.7,.5,1l.8,.8h-3.2l1.2,1.2h1.8v11.3l1.2,1.2V135.2h2.1L355.5,134h-1.3l-.5,-1.1c.1,-.9,.6,-1.6,1.7,-2.3c.9,-.7,1.8,-1,2.7,-1c.6,0,1.2,.1,1.8,.2c.6,.2,1.2,.4,1.7,.7c.6,.4,1.1,.7,1.6,1c.5,.4,.9,.7,1.3,1l-.3,-.6Zm2.9,3.3L365.9,134h-.6c0,-1.1,-.2,-2,-.7,-2.6c-.5,-.6,-1.3,-.9,-2.4,-.9c-.3,0,-.8,.1,-1.5,.1c-.3,.1,-.6,.1,-.8,.1c-.3,0,-.5,0,-.7,0c-.5,0,-.9,-.1,-1.3,-.3c-.4,-.2,-.6,-.6,-.6,-1.1c0,-.2,.1,-.4,.3,-.6c0,-.1,0,-.2,0,-.2c0,-.1,0,-.2,0,-.2c-.6,0,-.9,.5,-.9,1.4c0,.9,.4,1.6,1.2,2c.8,.5,1.6,.7,2.6,.7c.1,0,.2,0,.4,0c.2,-.1,.4,-.1,.6,-.1c.5,-.1,.9,-.1,1.1,-.1c1.1,0,1.6,.3,1.5,1c0,.2,0,.3,0,.4c0,.2,0,.3,0,.4H355l1.1,1.2H358v8c.2,.9,.5,1.6,.9,2c.5,.5,1.1,.7,1.9,.7c1.1,0,2.2,-.6,3.2,-1.8c1,-1.2,1.5,-2.3,1.5,-3.5c0,-.4,-.1,-.7,-.2,-1.1c0,-.3,-.2,-.6,-.3,-.9c-.5,-.7,-1,-1,-1.7,-1c-.5,0,-.8,.2,-1.1,.5c-.3,.3,-.4,.7,-.4,1.1c0,.4,.1,.8,.4,1c.4,.3,.7,.4,1.1,.4h.4c-.1,.8,-.5,1.6,-1.1,2.5c-.8,.8,-1.5,1.3,-2.2,1.3c-.5,0,-.9,-.3,-1.2,-.8v-8.4h7.9ZM380.6,134c-.5,0,-1,.2,-1.5,.4c-.5,.3,-.9,.5,-1.3,.8c-.8,.8,-1.4,1.8,-1.8,2.8c-.4,1,-.7,2.1,-.7,3.3c0,1.5,.3,2.8,.9,3.9c.8,1.4,1.8,2.1,3.2,2.1c.3,0,.6,0,.9,-.1c.2,-.1,.5,-.2,.7,-.4c.2,-.2,.3,-.4,.4,-.7c.1,-.2,.2,-.5,.2,-.8c0,-.4,-.2,-.9,-.4,-1.2c-.3,-.3,-.7,-.5,-1.1,-.5c-.1,0,-.3,.1,-.5,.1c-.2,.1,-.3,.2,-.5,.3c-.1,.2,-.2,.3,-.3,.4c-.1,.2,-.1,.4,-.1,.6c0,.2,0,.4,.1,.7c.2,.2,.4,.4,.6,.6c0,0,-.1,.1,-.2,.1h-.1c-.8,0,-1.4,-.5,-1.9,-1.4c-.5,-.7,-.7,-1.5,-.7,-2.3c0,-1,.1,-1.9,.3,-2.7c.2,-.7,.5,-1.4,1,-2.1c.4,-.7,1,-1.3,1.6,-1.7c.7,-.5,1.5,-.8,2.4,-1L380.6,134Zm9.8,0H380.1l1.2,1.2h1.8v9.1c0,.4,.2,.9,.7,1.5c.4,.5,.9,.7,1.3,.7c1.2,0,2.4,-.7,3.5,-2.2c1.1,-1.4,1.7,-2.7,1.7,-3.9c.1,-1,-1,-1.8,-3,-2.5c-2.1,-.6,-3.1,-1.5,-3.1,-2.7h7.4L390.4,134Zm-1.9,6.8c0,.7,-.5,1.5,-1.4,2.6c-.8,1,-1.6,1.5,-2.3,1.5c-.3,0,-.5,-.2,-.5,-.7v-7c.8,1.5,2.2,2.5,4.1,3.1c0,0,.1,.2,.1,.5Zm17.7,-5.6L404.9,134H389.8l1.2,1.2h7.8v1c-2.6,.8,-4.9,2.1,-7,3.7l1.7,2.1c1.4,.1,2.6,.7,3.7,1.8c.4,.5,.9,1,1.3,1.6c.3,.7,.7,1.3,1,2c0,.1,.1,.1,.1,.2c.1,0,.2,.1,.3,.1v-10c1.2,0,2.1,.3,2.8,1c.6,.7,1,1.4,1,2.2l-.1,.3c-.2,-.2,-.4,-.3,-.6,-.4c-.2,-.2,-.4,-.2,-.6,-.2c-.4,0,-.8,.1,-1,.4c-.3,.2,-.4,.5,-.4,.9c0,.2,0,.4,.1,.6c.1,.2,.2,.3,.4,.5c.1,.1,.3,.2,.5,.3c.2,.1,.4,.1,.6,.1c.2,0,.5,-.1,.7,-.2c.3,-.1,.5,-.3,.7,-.5c.1,-.2,.3,-.4,.4,-.7c.1,-.3,.1,-.5,.1,-.8c0,-1.3,-.4,-2.4,-1.2,-3.4c-.9,-1.2,-2,-1.7,-3.4,-1.7v-.9h6.3Zm-7.5,9.1c-1,-1.8,-2.5,-3.1,-4.5,-4c.8,-.5,1.6,-1,2.3,-1.4c.8,-.4,1.5,-.8,2.2,-1.1v6.5Zm29.8,-9.1L427.3,134H412.2l1.2,1.2h7.8v1c-2.6,.8,-5,2.1,-7,3.7l1.7,2.1c1.3,.1,2.6,.7,3.6,1.8c.5,.5,.9,1,1.3,1.6c.4,.7,.8,1.3,1,2q.1,.1,.2,.2c.1,0,.2,.1,.3,.1v-10c1.2,0,2.1,.3,2.8,1c.6,.7,.9,1.4,.9,2.2l-.1,.3c-.1,-.2,-.3,-.3,-.5,-.4c-.2,-.2,-.4,-.2,-.6,-.2c-.4,0,-.8,.1,-1.1,.4c-.2,.2,-.4,.5,-.4,.9c0,.2,.1,.4,.2,.6c.1,.2,.2,.3,.3,.5c.2,.1,.4,.2,.5,.3c.2,.1,.4,.1,.6,.1c.3,0,.6,-.1,.8,-.2c.3,-.1,.5,-.3,.6,-.5c.2,-.2,.3,-.4,.4,-.7c.1,-.3,.2,-.5,.2,-.8c0,-1.3,-.4,-2.4,-1.2,-3.4c-.9,-1.2,-2,-1.7,-3.4,-1.7v-.9h6.2Zm-7.4,9.1c-1,-1.8,-2.5,-3.1,-4.5,-4c.8,-.5,1.6,-1,2.3,-1.4c.7,-.4,1.5,-.8,2.2,-1.1v6.5ZM434.7,134h-8l1.2,1.2h4c-1.7,2,-2.5,4,-2.5,6.1c0,1.5,.3,2.8,.9,3.9c.8,1.4,1.8,2.1,3.2,2.1c.3,0,.6,0,.8,-.1c.3,-.1,.5,-.2,.7,-.4c.2,-.2,.4,-.4,.5,-.7c.1,-.2,.2,-.5,.2,-.8c0,-.4,-.2,-.9,-.4,-1.2c-.3,-.3,-.7,-.5,-1.1,-.5c-.3,0,-.7,.2,-1,.4c-.3,.3,-.4,.6,-.4,1c0,.2,0,.4,.1,.7c.2,.2,.4,.4,.6,.6c-.7,.2,-1.5,-.2,-2.2,-1.3c-.5,-.7,-.7,-1.5,-.7,-2.3c0,-1,.1,-1.9,.3,-2.7c.2,-.7,.5,-1.4,1,-2.1c.4,-.7,1,-1.3,1.6,-1.7c.7,-.5,1.5,-.8,2.4,-1L434.7,134Zm12.1,1.2L445.6,134H433.8l1.2,1.2h8.2v.9c-2.5,.8,-5,2.1,-7.3,3.7l1.5,2.3c1.7,.1,3.1,.7,4.1,1.6c.3,.3,.6,.6,.9,1c.3,.4,.6,.8,.7,1c.2,.3,.4,.7,.6,1.3l.7,.8V135.2h2.4Zm-3.6,9.4c-1.1,-1.8,-2.7,-3.2,-4.8,-4.1c.8,-.6,1.7,-1.1,2.5,-1.5c.8,-.4,1.5,-.7,2.3,-1v6.6Zm-4.7,1.7c.2,.3,.5,.4,.9,.4c.3,0,.6,-.1,.9,-.4c.2,-.2,.3,-.5,.3,-.8c0,-.4,-.1,-.7,-.3,-.9c-.3,-.3,-.6,-.4,-.9,-.4c-.4,0,-.7,.1,-.9,.4c-.2,.2,-.4,.5,-.4,.9c0,.3,.2,.6,.4,.8ZM460,134c-.5,0,-1,.2,-1.5,.4c-.5,.3,-.9,.5,-1.3,.8c-.7,.8,-1.3,1.8,-1.8,2.8c-.4,1,-.6,2.1,-.7,3.3c0,1.5,.3,2.8,1,3.9c.7,1.4,1.8,2.1,3.1,2.1c.3,0,.6,0,.9,-.1c.3,-.1,.5,-.2,.7,-.4c.2,-.2,.3,-.4,.5,-.7c.1,-.2,.1,-.5,.1,-.8c0,-.4,-.1,-.9,-.4,-1.2c-.3,-.3,-.6,-.5,-1,-.5c-.2,0,-.4,.1,-.6,.1c-.2,.1,-.3,.2,-.4,.3c-.2,.2,-.3,.3,-.4,.4c-.1,.2,-.1,.4,-.1,.6c0,.2,.1,.4,.2,.7c.1,.2,.3,.4,.5,.6c0,0,-.1,.1,-.2,.1h-.1c-.7,0,-1.4,-.5,-1.9,-1.4c-.4,-.7,-.7,-1.5,-.7,-2.3c0,-1,.1,-1.9,.4,-2.7c.2,-.7,.5,-1.4,.9,-2.1c.5,-.7,1,-1.3,1.7,-1.7c.6,-.5,1.4,-.8,2.3,-1L460,134Zm12.6,1.2L471.4,134H459.6l1.2,1.2h1.3v7.1l1.6,1.7c.5,-1.1,1.2,-2.1,2.1,-2.9c.8,-.9,1.8,-1.5,2.9,-1.9c-.3,1,-.4,2.1,-.4,3.1c0,.6,0,1.3,.2,2.2c.1,.8,.3,1.8,.5,3l.8,.4c-.3,-1.6,-.4,-2.8,-.4,-3.7c0,-.9,.1,-1.8,.4,-2.8c.3,-1,.7,-2,1.2,-3l-1.9,-1.5c-.4,.1,-.9,.3,-1.4,.6c-.4,.2,-.9,.5,-1.5,.8c-.5,.4,-1,.7,-1.5,1.2c-.5,.4,-.9,.8,-1.3,1.3v-5.6h9.2ZM483,134c-.5,-.1,-.9,-.2,-1,-.6c0,-.1,-.1,-.2,-.1,-.5c0,-.2,0,-.5,0,-.7l-.7,-.4v12.3c-.8,-1.4,-2.1,-2.5,-3.8,-3.4c.7,-.2,1.3,-.6,1.9,-1.2c.6,-.6,.8,-1.3,.8,-2c0,-.7,-.3,-1.3,-.8,-1.9c-.1,-.1,-.3,-.2,-.6,-.5c-.2,-.3,-.6,-.6,-1.1,-1c-.2,.3,-.5,.5,-.7,.8c-.3,.2,-.4,.3,-.4,.4c-.3,.2,-.5,.3,-.8,.5c-.2,.1,-.5,.2,-.7,.2c-.1,-.7,-.5,-1.1,-1.2,-1.1c-.3,0,-.6,.2,-.9,.4c-.2,.3,-.4,.6,-.4,.9c0,.5,.2,.9,.6,1.2c.3,.3,.7,.5,1.2,.5c1.3,0,2.7,-.7,4,-2c.4,.4,.6,.8,.6,1.3c0,.4,-.2,.7,-.5,1c-.3,.2,-.7,.5,-1.3,.8c-.4,.2,-.9,.3,-1.3,.4c-.5,.1,-.9,.2,-1.3,.2c-.2,0,-.3,0,-.5,-.1c-.2,0,-.3,0,-.5,0l2.1,2.5c1.1,.1,2.2,.4,3.1,1c.5,.3,1,.6,1.4,1c.4,.4,.7,.9,1,1.3c.1,.1,.1,.3,.2,.5c.1,.2,.2,.5,.3,.8c.1,.2,.2,.3,.3,.5c.2,.2,.3,.4,.5,.5V135.2h1.8L483,134Zm2.1,16.6c-.1,-.1,-.2,-.3,-.3,-.5c-.1,-.1,-.3,-.4,-.5,-.6c-.3,-.4,-.6,-.7,-1,-1c-.3,-.4,-.6,-.7,-.9,-1c0,-.3,0,-.7,0,-1.1c-.1,-.5,-.1,-.9,-.3,-1.2l-1,-.7c.1,.5,.2,1,.2,1.4c0,.5,0,.8,-.1,1c-.8,-.4,-1.3,-.6,-1.8,-.6c-.3,0,-.6,0,-.8,.1c-.3,.1,-.5,.2,-.7,.4c-.2,.2,-.4,.4,-.5,.6c-.1,.2,-.2,.5,-.2,.8c0,.5,.2,1,.7,1.3c.5,.4,1,.5,1.6,.5c1,0,1.8,-.5,2.5,-1.4c.2,.1,.5,.3,.7,.5c.3,.3,.6,.5,.9,.8c.3,.2,.5,.5,.8,.8c.2,.3,.5,.6,.7,.9v-1Zm-4.8,-3c.1,.1,.3,.2,.4,.3c-.1,.3,-.3,.5,-.6,.7c-.4,.2,-.7,.2,-1.1,.2c-.4,-.1,-.6,-.3,-.6,-.7c0,-.4,.5,-.7,1.3,-.7c.2,0,.4,.1,.6,.2Zm15.2,-12.4L494.3,134H482.6l1.2,1.2h8.4v6.6c-1.3,-2.6,-2.8,-4,-4.5,-4c-.8,0,-1.5,.3,-2.1,.9c-.5,.5,-.8,1.2,-.8,2c0,1.5,.7,2.2,2.3,2.2c.5,0,.9,-.2,1.2,-.5c.3,-.4,.4,-.8,.4,-1.3c0,-.3,-.2,-.8,-.8,-1.5c.1,-.1,.2,-.1,.4,-.1c1.2,0,2.4,.8,3.3,2.5c.7,1.4,1,2.9,1,4.2l-.1,1.3l.9,.6V135.2h2.1Z" class="gi_310"/>
<g clip-path="url(#c0_310)">
<path d="M1877,177.2H32.1v-5.4H768.7c43.1,0,53,-37.9,115.3,-37.9h993Z" class="gj_310"/>
<path d="M1877,183.7H32.1v-9.8H768.7c43.1,0,53,-33.6,115.3,-33.6h993Z" class="gk_310"/>
</g>
<path d="M131.7,390.5v38.9l11.7,10.3V395.5Z" class="gl_310"/>
<path d="M131.7,390.5v38.9H829.5c0,0,16.8,0,16.8,-16.8v-5.3c0,0,0,-16.8,-16.8,-16.8Z" class="ga_310"/>
<path d="M781,424.1c8.2,0,14.8,-6.5,14.8,-14.5c0,-8,-6.6,-14.5,-14.8,-14.5c-8.3,0,-14.9,6.5,-14.9,14.5c0,8,6.6,14.5,14.9,14.5Z" class="gm_310"/>
<path d="M781,424.1c8.2,0,14.8,-6.5,14.8,-14.5c0,-8,-6.6,-14.5,-14.8,-14.5c-8.3,0,-14.9,6.5,-14.9,14.5c0,8,6.6,14.5,14.9,14.5Z" class="gn_310"/>
<path d="M781,414.9c3,0,5.4,-2.4,5.4,-5.3c0,-3,-2.4,-5.4,-5.4,-5.4c-3.1,0,-5.5,2.4,-5.5,5.4c0,2.9,2.4,5.3,5.5,5.3Z" class="g1_310"/>
<path d="M781,414.9c3,0,5.4,-2.4,5.4,-5.3c0,-3,-2.4,-5.4,-5.4,-5.4c-3.1,0,-5.5,2.4,-5.5,5.4c0,2.9,2.4,5.3,5.5,5.3Z" class="go_310"/>
<g clip-path="url(#co_310)" opacity="0.3">
<path d="M766.4,408.8c0,0,-.1,-4.8,3.6,-8.6l7.8,6.7c0,0,-1,.9,-1.1,2.6Z" class="g1_310"/>
</g>
<path d="M785.6,409.5c0,0,-3.5,0,-3.5,3.4v8.8c0,0,0,3.4,3.5,3.4H829c0,0,3.5,0,3.5,-3.4v-8.8c0,0,0,-3.4,-3.5,-3.4Z" class="gp_310"/>
<path d="M169.5,400.5c0,-8.3,-6.7,-15,-15,-15c-8.4,0,-15.1,6.7,-15.1,15c0,8.4,6.8,15.1,15.1,15.1c.8,0,1.6,-.1,2.4,-.2l4.5,5.2v-6.7c4.8,-2.5,8.1,-7.5,8.1,-13.4Z" class="g1_310"/>
<path d="M161.8,421.9l-5.1,-6c-.7,.1,-1.5,.2,-2.2,.2c-8.6,0,-15.6,-7,-15.6,-15.6c0,-8.5,7,-15.5,15.6,-15.5c8.5,0,15.5,7,15.5,15.5c0,5.8,-3.1,11,-8.2,13.7Zm-4.7,-7l3.8,4.5v-5.8l.3,-.1c4.8,-2.5,7.9,-7.5,7.9,-13c0,-8,-6.6,-14.5,-14.6,-14.5c-8.1,0,-14.6,6.5,-14.6,14.5c0,8.1,6.5,14.6,14.6,14.6c.7,0,1.5,0,2.3,-.2Z" class="gq_310"/>
<path d="M147.4,400.1c.8,0,1.5,.7,1.5,1.5c0,.7,-.7,1.4,-1.5,1.4c-.7,0,-1.4,-.7,-1.4,-1.4c0,-.8,.7,-1.5,1.4,-1.5Z" class="gr_310"/>
<path d="M147.4,403.5c-1,0,-1.8,-.9,-1.8,-1.9c0,-1.1,.8,-1.9,1.8,-1.9c1.1,0,1.9,.8,1.9,1.9c0,1,-.8,1.9,-1.9,1.9m0,-2.9c-.5,0,-.9,.4,-.9,1c0,.5,.4,.9,.9,.9c.6,0,1,-.4,1,-.9c0,-.6,-.4,-1,-1,-1Z" class="gq_310"/>
<path d="M154.5,400.1c.8,0,1.4,.7,1.4,1.5c0,.7,-.6,1.4,-1.4,1.4c-.8,0,-1.5,-.7,-1.5,-1.4c0,-.8,.7,-1.5,1.5,-1.5Z" class="gr_310"/>
<path d="M154.5,403.5c-1.1,0,-1.9,-.9,-1.9,-1.9c0,-1.1,.8,-1.9,1.9,-1.9c1,0,1.9,.8,1.9,1.9c0,1,-.9,1.9,-1.9,1.9m0,-2.9c-.6,0,-1,.4,-1,1c0,.5,.4,.9,1,.9c.5,0,.9,-.4,.9,-.9c0,-.6,-.4,-1,-.9,-1Z" class="gq_310"/>
<path d="M161.5,400.1c.8,0,1.4,.7,1.4,1.5c0,.7,-.6,1.4,-1.4,1.4c-.8,0,-1.5,-.7,-1.5,-1.4c0,-.8,.7,-1.5,1.5,-1.5Z" class="gr_310"/>
<path d="M161.5,403.5c-1.1,0,-1.9,-.9,-1.9,-1.9c0,-1.1,.8,-1.9,1.9,-1.9c1,0,1.9,.8,1.9,1.9c0,1,-.9,1.9,-1.9,1.9m0,-2.9c-.6,0,-1,.4,-1,1c0,.5,.4,.9,1,.9c.5,0,1,-.4,1,-.9c0,-.6,-.5,-1,-1,-1Z" class="gq_310"/>
<path d="M163.4,414.8c0,-9.7,7.9,-17.6,17.6,-17.6c9.7,0,17.6,7.9,17.6,17.6c0,9.7,-7.9,17.6,-17.6,17.6c-.9,0,-1.9,-.1,-2.8,-.2l-5.3,6.1v-7.9c-5.6,-2.9,-9.5,-8.8,-9.5,-15.6Z" class="gs_310"/>
<path d="M172.9,438.7c0,0,-.1,0,-.1,0c-.2,-.1,-.3,-.2,-.3,-.4v-7.6c-5.9,-3.1,-9.6,-9.2,-9.6,-15.9c0,-10,8.2,-18.1,18.1,-18.1c10,0,18.1,8.1,18.1,18.1c0,9.9,-8.1,18.1,-18.1,18.1c-.8,0,-1.7,-.1,-2.6,-.2l-5.1,5.9c-.1,.1,-.2,.1,-.4,.1M181,397.6c-9.4,0,-17.1,7.7,-17.1,17.2c0,6.4,3.5,12.3,9.2,15.2c.2,.1,.3,.3,.3,.4V437l4.4,-5.1c.1,-.1,.3,-.2,.5,-.2c.9,.2,1.8,.2,2.7,.2c9.5,0,17.2,-7.7,17.2,-17.1c0,-9.5,-7.7,-17.2,-17.2,-17.2Z" class="gq_310"/>
<path d="M189.2,414.3c.9,0,1.7,.7,1.7,1.7c0,.9,-.8,1.6,-1.7,1.6c-.9,0,-1.7,-.7,-1.7,-1.6c0,-1,.8,-1.7,1.7,-1.7Z" class="g1_310"/>
<path d="M189.2,418.1c-1.2,0,-2.1,-1,-2.1,-2.1c0,-1.2,.9,-2.2,2.1,-2.2c1.2,0,2.1,1,2.1,2.2c0,1.1,-.9,2.1,-2.1,2.1m0,-3.3c-.7,0,-1.2,.5,-1.2,1.2c0,.6,.5,1.2,1.2,1.2c.7,0,1.2,-.6,1.2,-1.2c0,-.7,-.5,-1.2,-1.2,-1.2Z" class="gq_310"/>
<path d="M181,414.3c.9,0,1.7,.7,1.7,1.7c0,.9,-.8,1.6,-1.7,1.6c-.9,0,-1.7,-.7,-1.7,-1.6c0,-1,.8,-1.7,1.7,-1.7Z" class="g1_310"/>
<path d="M181,418.1c-1.2,0,-2.1,-1,-2.1,-2.1c0,-1.2,.9,-2.2,2.1,-2.2c1.2,0,2.1,1,2.1,2.2c0,1.1,-.9,2.1,-2.1,2.1m0,-3.3c-.7,0,-1.2,.5,-1.2,1.2c0,.6,.5,1.2,1.2,1.2c.7,0,1.2,-.6,1.2,-1.2c0,-.7,-.5,-1.2,-1.2,-1.2Z" class="gq_310"/>
<path d="M172.8,414.3c.9,0,1.7,.7,1.7,1.7c0,.9,-.8,1.6,-1.7,1.6c-.9,0,-1.7,-.7,-1.7,-1.6c0,-1,.8,-1.7,1.7,-1.7Z" class="g1_310"/>
<path d="M172.8,418.1c-1.2,0,-2.1,-1,-2.1,-2.1c0,-1.2,.9,-2.2,2.1,-2.2c1.2,0,2.1,1,2.1,2.2c0,1.1,-.9,2.1,-2.1,2.1m0,-3.3c-.7,0,-1.2,.5,-1.2,1.2c0,.6,.5,1.2,1.2,1.2c.7,0,1.2,-.6,1.2,-1.2c0,-.7,-.5,-1.2,-1.2,-1.2Z" class="gq_310"/>
<image clip-path="url(#cp_310)" preserveAspectRatio="none" x="125" y="206" width="734" height="181" xlink:href="img/12.png"/>
<path d="M144.6,231.3c0,0,-13,0,-13,13v117c0,0,0,13,13,13H833.1c0,0,13,0,13,-13v-130Z" class="gt_310"/>
<path d="M147.7,294.1l54.1,40.8l54.1,-40.8V230h8.7V211.9H155.8c-6.5,.4,-7.7,3.9,-8.2,8.4Z" class="gu_310"/>
<path d="M274,220.3c-.3,-4.7,-4.2,-8.4,-9,-8.4c-4.8,0,-8.7,3.7,-9,8.4h-.1V230h18.2v-9.7Z" class="gp_310"/>
<path d="M255.9,230.6H846.1" class="gv_310"/>
<path d="M32.1,45.1H9.2m958.3,0h22.9M32.1,1331.3H9.2m958.3,0h22.9M45.1,32.1V9.2m0,1335.1v22.9M954.5,32.1V9.2m0,1335.1v22.9" class="gw_310"/>
<path d="M32.1,45.1H9.2m958.3,0h22.9M32.1,1331.3H9.2m958.3,0h22.9M45.1,32.1V9.2m0,1335.1v22.9M954.5,32.1V9.2m0,1335.1v22.9" class="gx_310"/>
<path d="M27.5,32.1H0m972.1,0h27.5M27.5,1344.3H0m972.1,0h27.5M32.1,27.5V0m0,1348.9v27.5M967.5,27.5V0m0,1348.9v27.5" class="gw_310"/>
<path d="M27.5,32.1H0m972.1,0h27.5M27.5,1344.3H0m972.1,0h27.5M32.1,27.5V0m0,1348.9v27.5M967.5,27.5V0m0,1348.9v27.5" class="gx_310"/>
</svg>