<?xml version="1.0" encoding="UTF-8" standalone="no"?>
<!DOCTYPE svg PUBLIC "-//W3C//DTD SVG 1.1//EN"
"http://www.w3.org/Graphics/SVG/1.1/DTD/svg11.dtd">
<svg viewBox="0 0 999 1376" version="1.1" xmlns="http://www.w3.org/2000/svg" xmlns:xlink="http://www.w3.org/1999/xlink">
<defs>
<clipPath id="c0_385"><path d="M32.1,1344.3V32.1H967.5V1344.3Z"/></clipPath>
<style type="text/css"><![CDATA[
.g0_385{
fill: #D7E6A3;
}
.g1_385{
fill: #D2D3D5;
}
.g2_385{
fill: #E0F2F1;
}
.g3_385{
fill: #C3E5E4;
}
.g4_385{
fill: none;
stroke: #FFF;
stroke-width: 1.451;
stroke-miterlimit: 10;
}
.g5_385{
fill: none;
stroke: #FFF;
stroke-width: 1.909;
stroke-miterlimit: 10;
}
.g6_385{
fill: none;
stroke: #000;
stroke-width: 0.381;
stroke-miterlimit: 10;
}
]]></style>
</defs>
<path clip-path="url(#c0_385)" d="M-613.1,32.1c0,0,-13,0,-13,13v81c0,0,0,12.9,13,12.9h1468c0,0,13,0,13,-12.9v-81c0,0,0,-13,-13,-13Z" class="g0_385"/>
<image preserveAspectRatio="none" x="752" y="60" width="107" height="91" xlink:href="img/1.png"/>
<path d="M763.6,198.8H865.4v34.7H763.6V198.8Zm-101.8,0H763.6v34.7H661.8V198.8Zm-101.7,0H661.8v34.7H560.1V198.8Zm-101.8,0H560.1v34.7H458.3V198.8Zm-101.8,0H458.3v34.7H356.5V198.8Zm-138.6,0H356.5v34.7H217.9V198.8Zm-64.9,0h64.9v34.7H153V198.8Z" class="g1_385"/>
<path d="M763.6,1021.7H865.4V1078H763.6v-56.3Zm-101.8,0H763.6V1078H661.8v-56.3Zm-101.7,0H661.8V1078H560.1v-56.3Zm-101.8,0H560.1V1078H458.3v-56.3Zm-101.8,0H458.3V1078H356.5v-56.3Zm-203.5,0h64.9V1078H153v-56.3ZM763.6,965.4H865.4v56.3H763.6V965.4Zm-101.8,0H763.6v56.3H661.8V965.4Zm-101.7,0H661.8v56.3H560.1V965.4Zm-101.8,0H560.1v56.3H458.3V965.4Zm-101.8,0H458.3v56.3H356.5V965.4Zm-203.5,0h64.9v56.3H153V965.4ZM763.6,909.1H865.4v56.3H763.6V909.1Zm-101.8,0H763.6v56.3H661.8V909.1Zm-101.7,0H661.8v56.3H560.1V909.1Zm-101.8,0H560.1v56.3H458.3V909.1Zm-101.8,0H458.3v56.3H356.5V909.1Zm-203.5,0h64.9v56.3H153V909.1ZM763.6,852.8H865.4v56.3H763.6V852.8Zm-101.8,0H763.6v56.3H661.8V852.8Zm-101.7,0H661.8v56.3H560.1V852.8Zm-101.8,0H560.1v56.3H458.3V852.8Zm-101.8,0H458.3v56.3H356.5V852.8Zm-203.5,0h64.9v56.3H153V852.8ZM763.6,796.5H865.4v56.3H763.6V796.5Zm-101.8,0H763.6v56.3H661.8V796.5Zm-101.7,0H661.8v56.3H560.1V796.5Zm-101.8,0H560.1v56.3H458.3V796.5Zm-101.8,0H458.3v56.3H356.5V796.5Zm-203.5,0h64.9v56.3H153V796.5ZM763.6,740.2H865.4v56.3H763.6V740.2Zm-101.8,0H763.6v56.3H661.8V740.2Zm-101.7,0H661.8v56.3H560.1V740.2Zm-101.8,0H560.1v56.3H458.3V740.2Zm-101.8,0H458.3v56.3H356.5V740.2Zm-203.5,0h64.9v56.3H153V740.2ZM763.6,683.9H865.4v56.3H763.6V683.9Zm-101.8,0H763.6v56.3H661.8V683.9Zm-101.7,0H661.8v56.3H560.1V683.9Zm-101.8,0H560.1v56.3H458.3V683.9Zm-101.8,0H458.3v56.3H356.5V683.9Zm-203.5,0h64.9v56.3H153V683.9ZM763.6,627.6H865.4v56.3H763.6V627.6Zm-101.8,0H763.6v56.3H661.8V627.6Zm-101.7,0H661.8v56.3H560.1V627.6Zm-101.8,0H560.1v56.3H458.3V627.6Zm-101.8,0H458.3v56.3H356.5V627.6Zm-203.5,0h64.9v56.3H153V627.6ZM763.6,571.3H865.4v56.3H763.6V571.3Zm-101.8,0H763.6v56.3H661.8V571.3Zm-101.7,0H661.8v56.3H560.1V571.3Zm-101.8,0H560.1v56.3H458.3V571.3Zm-101.8,0H458.3v56.3H356.5V571.3Zm-203.5,0h64.9v56.3H153V571.3ZM763.6,515H865.4v56.3H763.6V515Zm-101.8,0H763.6v56.3H661.8V515Zm-101.7,0H661.8v56.3H560.1V515Zm-101.8,0H560.1v56.3H458.3V515Zm-101.8,0H458.3v56.3H356.5V515ZM153,515h64.9v56.3H153V515ZM763.6,458.7H865.4V515H763.6V458.7Zm-101.8,0H763.6V515H661.8V458.7Zm-101.7,0H661.8V515H560.1V458.7Zm-101.8,0H560.1V515H458.3V458.7Zm-101.8,0H458.3V515H356.5V458.7Zm-203.5,0h64.9V515H153V458.7ZM763.6,402.4H865.4v56.3H763.6V402.4Zm-101.8,0H763.6v56.3H661.8V402.4Zm-101.7,0H661.8v56.3H560.1V402.4Zm-101.8,0H560.1v56.3H458.3V402.4Zm-101.8,0H458.3v56.3H356.5V402.4Zm-203.5,0h64.9v56.3H153V402.4ZM763.6,346.1H865.4v56.3H763.6V346.1Zm-101.8,0H763.6v56.3H661.8V346.1Zm-101.7,0H661.8v56.3H560.1V346.1Zm-101.8,0H560.1v56.3H458.3V346.1Zm-101.8,0H458.3v56.3H356.5V346.1Zm-203.5,0h64.9v56.3H153V346.1ZM763.6,289.8H865.4v56.3H763.6V289.8Zm-101.8,0H763.6v56.3H661.8V289.8Zm-101.7,0H661.8v56.3H560.1V289.8Zm-101.8,0H560.1v56.3H458.3V289.8Zm-101.8,0H458.3v56.3H356.5V289.8Zm-203.5,0h64.9v56.3H153V289.8ZM763.6,233.5H865.4v56.3H763.6V233.5Zm-101.8,0H763.6v56.3H661.8V233.5Zm-101.7,0H661.8v56.3H560.1V233.5Zm-101.8,0H560.1v56.3H458.3V233.5Zm-101.8,0H458.3v56.3H356.5V233.5Zm-203.5,0h64.9v56.3H153V233.5Z" class="g2_385"/>
<path d="M217.9,1021.7H356.5V1078H217.9v-56.3Zm0,-56.3H356.5v56.3H217.9V965.4Zm0,-56.3H356.5v56.3H217.9V909.1Zm0,-56.3H356.5v56.3H217.9V852.8Zm0,-56.3H356.5v56.3H217.9V796.5Zm0,-56.3H356.5v56.3H217.9V740.2Zm0,-56.3H356.5v56.3H217.9V683.9Zm0,-56.3H356.5v56.3H217.9V627.6Zm0,-56.3H356.5v56.3H217.9V571.3Zm0,-56.3H356.5v56.3H217.9V515Zm0,-56.3H356.5V515H217.9V458.7Zm0,-56.3H356.5v56.3H217.9V402.4Zm0,-56.3H356.5v56.3H217.9V346.1Zm0,-56.3H356.5v56.3H217.9V289.8Zm0,-56.3H356.5v56.3H217.9V233.5Z" class="g3_385"/>
<path d="M152.3,198.8h65.6m-64.9,34V199.6m64.9,-.8H356.5m-138.6,34V199.6m138.6,-.8H458.3m-101.8,34V199.6m101.8,-.8H560.1m-101.8,34V199.6m101.8,-.8H661.8m-101.7,34V199.6m101.7,-.8H763.6m-101.8,34V199.6m101.8,-.8H866.1m-102.5,34V199.6m101.8,33.2V199.6M152.3,233.5h65.6M153,289.1V234.2m64.9,-.7H356.5M217.9,289.1V234.2m138.6,-.7H458.3M356.5,289.1V234.2m101.8,-.7H560.1M458.3,289.1V234.2m101.8,-.7H661.8M560.1,289.1V234.2m101.7,-.7H763.6M661.8,289.1V234.2m101.8,-.7H866.1M763.6,289.1V234.2m101.8,54.9V234.2M152.3,289.8h65.6M153,345.4V290.5m64.9,-.7H356.5M217.9,345.4V290.5m138.6,-.7H458.3M356.5,345.4V290.5m101.8,-.7H560.1M458.3,345.4V290.5m101.8,-.7H661.8M560.1,345.4V290.5m101.7,-.7H763.6M661.8,345.4V290.5m101.8,-.7H866.1M763.6,345.4V290.5m101.8,54.9V290.5M152.3,346.1h65.6M153,401.6V346.8m64.9,-.7H356.5M217.9,401.6V346.8m138.6,-.7H458.3M356.5,401.6V346.8m101.8,-.7H560.1M458.3,401.6V346.8m101.8,-.7H661.8M560.1,401.6V346.8m101.7,-.7H763.6M661.8,401.6V346.8m101.8,-.7H866.1M763.6,401.6V346.8m101.8,54.8V346.8M152.3,402.4h65.6M153,457.9V403.1m64.9,-.7H356.5M217.9,457.9V403.1m138.6,-.7H458.3M356.5,457.9V403.1m101.8,-.7H560.1M458.3,457.9V403.1m101.8,-.7H661.8M560.1,457.9V403.1m101.7,-.7H763.6M661.8,457.9V403.1m101.8,-.7H866.1M763.6,457.9V403.1m101.8,54.8V403.1M152.3,458.7h65.6M153,514.3V459.4m64.9,-.7H356.5M217.9,514.3V459.4m138.6,-.7H458.3M356.5,514.3V459.4m101.8,-.7H560.1M458.3,514.3V459.4m101.8,-.7H661.8M560.1,514.3V459.4m101.7,-.7H763.6M661.8,514.3V459.4m101.8,-.7H866.1M763.6,514.3V459.4m101.8,54.9V459.4M152.3,515h65.6M153,570.6V515.7m64.9,-.7H356.5M217.9,570.6V515.7M356.5,515H458.3M356.5,570.6V515.7M458.3,515H560.1M458.3,570.6V515.7M560.1,515H661.8M560.1,570.6V515.7M661.8,515H763.6M661.8,570.6V515.7M763.6,515H866.1M763.6,570.6V515.7m101.8,54.9V515.7M152.3,571.3h65.6M153,626.8V572m64.9,-.7H356.5M217.9,626.8V572m138.6,-.7H458.3M356.5,626.8V572m101.8,-.7H560.1M458.3,626.8V572m101.8,-.7H661.8M560.1,626.8V572m101.7,-.7H763.6M661.8,626.8V572m101.8,-.7H866.1M763.6,626.8V572m101.8,54.8V572M152.3,627.6h65.6M153,683.1V628.3m64.9,-.7H356.5M217.9,683.1V628.3m138.6,-.7H458.3M356.5,683.1V628.3m101.8,-.7H560.1M458.3,683.1V628.3m101.8,-.7H661.8M560.1,683.1V628.3m101.7,-.7H763.6M661.8,683.1V628.3m101.8,-.7H866.1M763.6,683.1V628.3m101.8,54.8V628.3M152.3,683.9h65.6M153,739.4V684.6m64.9,-.7H356.5M217.9,739.4V684.6m138.6,-.7H458.3M356.5,739.4V684.6m101.8,-.7H560.1M458.3,739.4V684.6m101.8,-.7H661.8M560.1,739.4V684.6m101.7,-.7H763.6M661.8,739.4V684.6m101.8,-.7H866.1M763.6,739.4V684.6m101.8,54.8V684.6M152.3,740.2h65.6M153,795.7V740.9m64.9,-.7H356.5M217.9,795.7V740.9m138.6,-.7H458.3M356.5,795.7V740.9m101.8,-.7H560.1M458.3,795.7V740.9m101.8,-.7H661.8M560.1,795.7V740.9m101.7,-.7H763.6M661.8,795.7V740.9m101.8,-.7H866.1M763.6,795.7V740.9m101.8,54.8V740.9M152.3,796.5h65.6M153,852V797.2m64.9,-.7H356.5M217.9,852V797.2m138.6,-.7H458.3M356.5,852V797.2m101.8,-.7H560.1M458.3,852V797.2m101.8,-.7H661.8M560.1,852V797.2m101.7,-.7H763.6M661.8,852V797.2m101.8,-.7H866.1M763.6,852V797.2M865.4,852V797.2M152.3,852.8h65.6M153,908.3V853.5m64.9,-.7H356.5M217.9,908.3V853.5m138.6,-.7H458.3M356.5,908.3V853.5m101.8,-.7H560.1M458.3,908.3V853.5m101.8,-.7H661.8M560.1,908.3V853.5m101.7,-.7H763.6M661.8,908.3V853.5m101.8,-.7H866.1M763.6,908.3V853.5m101.8,54.8V853.5M152.3,909.1h65.6M153,964.6V909.8m64.9,-.7H356.5M217.9,964.6V909.8m138.6,-.7H458.3M356.5,964.6V909.8m101.8,-.7H560.1M458.3,964.6V909.8m101.8,-.7H661.8M560.1,964.6V909.8m101.7,-.7H763.6M661.8,964.6V909.8m101.8,-.7H866.1M763.6,964.6V909.8m101.8,54.8V909.8M152.3,965.4h65.6M153,1020.9V966.1m64.9,-.7H356.5m-138.6,55.5V966.1m138.6,-.7H458.3m-101.8,55.5V966.1m101.8,-.7H560.1m-101.8,55.5V966.1m101.8,-.7H661.8m-101.7,55.5V966.1m101.7,-.7H763.6m-101.8,55.5V966.1m101.8,-.7H866.1m-102.5,55.5V966.1m101.8,54.8V966.1m-713.1,55.6h65.6M153,1077.2v-54.8m64.9,-.7H356.5m-138.6,55.5v-54.8m138.6,-.7H458.3m-101.8,55.5v-54.8m101.8,-.7H560.1m-101.8,55.5v-54.8m101.8,-.7H661.8m-101.7,55.5v-54.8m101.7,-.7H763.6m-101.8,55.5v-54.8m101.8,-.7H866.1m-102.5,55.5v-54.8m101.8,54.8v-54.8M152.3,1078h65.6m0,0H356.5m0,0H458.3m0,0H560.1m0,0H661.8m0,0H763.6m0,0H866.1" class="g4_385"/>
<path d="M32.1,45.1H9.2m958.3,0h22.9M32.1,1331.3H9.2m958.3,0h22.9M45.1,32.1V9.2m0,1335.1v22.9M954.5,32.1V9.2m0,1335.1v22.9" class="g5_385"/>
<path d="M32.1,45.1H9.2m958.3,0h22.9M32.1,1331.3H9.2m958.3,0h22.9M45.1,32.1V9.2m0,1335.1v22.9M954.5,32.1V9.2m0,1335.1v22.9" class="g6_385"/>
<path d="M27.5,32.1H0m972.1,0h27.5M27.5,1344.3H0m972.1,0h27.5M32.1,27.5V0m0,1348.9v27.5M967.5,27.5V0m0,1348.9v27.5" class="g5_385"/>
<path d="M27.5,32.1H0m972.1,0h27.5M27.5,1344.3H0m972.1,0h27.5M32.1,27.5V0m0,1348.9v27.5M967.5,27.5V0m0,1348.9v27.5" class="g6_385"/>
</svg>