<?xml version="1.0" encoding="UTF-8" standalone="no"?>
<!DOCTYPE svg PUBLIC "-//W3C//DTD SVG 1.1//EN"
"http://www.w3.org/Graphics/SVG/1.1/DTD/svg11.dtd">
<svg viewBox="0 0 999 1376" version="1.1" xmlns="http://www.w3.org/2000/svg" xmlns:xlink="http://www.w3.org/1999/xlink">
<defs>
<clipPath id="c0_113"><path d="M153.3,1244.7V131.7H867.9v1113Z"/></clipPath>
<clipPath id="c1_113"><path d="M738,493.7V396.3h99.6v97.4Z"/></clipPath>
<clipPath id="c2_113"><path d="M738,747.3V656.4h99.6v90.9Z"/></clipPath>
<style type="text/css"><![CDATA[
.g0_113{
fill: #FFF;
}
.g1_113{
fill: none;
stroke: #231F20;
stroke-width: 0.756;
stroke-miterlimit: 3;
}
.g2_113{
fill: #25408F;
}
.g3_113{
fill: #6381B7;
}
.g4_113{
fill: #FFDE2C;
}
.g5_113{
fill: none;
stroke: #231F20;
stroke-width: 1.451;
stroke-miterlimit: 10;
}
.g6_113{
fill: #D2D3D5;
}
.g7_113{
fill: #A8AAAD;
}
.g8_113{
fill: none;
stroke: #231F20;
stroke-width: 0.828;
stroke-miterlimit: 10;
}
.g9_113{
fill: #6CCFF6;
}
.ga_113{
fill: none;
stroke: #231F20;
stroke-width: 0.828;
stroke-linecap: round;
stroke-linejoin: round;
}
.gb_113{
fill: none;
stroke: #231F20;
stroke-width: 1.451;
stroke-linecap: round;
stroke-linejoin: round;
}
.gc_113{
fill: none;
stroke: #FFF;
stroke-width: 1.909;
stroke-miterlimit: 10;
}
.gd_113{
fill: none;
stroke: #000;
stroke-width: 0.381;
stroke-miterlimit: 10;
}
]]></style>
</defs>
<path d="M153.3,1244.7H867.9V131.7H153.3v1113Z" class="g0_113"/>
<image clip-path="url(#c0_113)" preserveAspectRatio="none" x="151" y="130" width="719" height="1117" xlink:href="img/1.jpg"/>
<path d="M428.2,176.4v11.7c0,1,-.2,1.7,-.6,2.3c-.3,.5,-.7,1,-1.1,1.3c.5,.1,.9,.3,1.1,.7c.2,.3,.3,.8,.3,1.3l-.3,7.4h-2v-6.9c0,-.2,0,-.4,-.1,-.5c-.1,-.2,-.3,-.3,-.6,-.3H412.2v-1.8h12.4c.4,-.4,.7,-.9,.9,-1.5c.3,-.6,.4,-1.2,.4,-1.8V176.4h2.3Zm-18.9,.4h8.6c.4,0,.7,.1,.9,.2c.3,.2,.4,.4,.5,.6c.1,.2,.2,.4,.2,.7c0,.2,0,.4,-.1,.6c-.1,.8,-.4,1.5,-.8,2.2c-.4,.8,-.9,1.5,-1.4,2.2c.6,.1,1.1,.3,1.5,.6c.4,.3,.8,.6,1.1,.9c.4,.4,.8,.9,1.3,1.5c.4,.5,.8,1,1.2,1.5l-1.5,1.4c-.2,-.3,-.4,-.5,-.6,-.8c-.2,-.2,-.4,-.5,-.6,-.8c-.2,-.2,-.4,-.5,-.6,-.7c-.2,-.2,-.5,-.5,-.7,-.8c-.3,-.3,-.6,-.6,-1,-.8c-.3,-.3,-.8,-.5,-1.4,-.6c-.8,.9,-1.8,1.7,-2.9,2.4c-1.1,.8,-2.3,1.5,-3.6,2l-1,-1.8c2.4,-1,4.2,-2.2,5.6,-3.5c1.3,-1.4,2.3,-2.8,3,-4.4c.2,-.3,.2,-.5,.1,-.6c-.1,-.2,-.3,-.2,-.6,-.2h-7.2v-1.8Zm41.4,-.4v6.1H455v1.7h-4.3v3c0,1,-.1,1.9,-.4,2.7c-.3,.8,-.9,1.5,-1.7,2.2c.5,.5,.9,1.1,1.1,1.8c.3,.6,.5,1.3,.5,2.1c0,.8,-.2,1.6,-.6,2.3c-.3,.7,-.8,1.3,-1.4,1.8c-.5,.5,-1.2,.9,-2,1.2c-.8,.3,-1.6,.4,-2.4,.4c-.9,0,-1.7,-.1,-2.5,-.4c-.8,-.3,-1.5,-.7,-2.1,-1.2c-.5,-.5,-1,-1.1,-1.3,-1.8c-.4,-.7,-.5,-1.5,-.5,-2.3c0,-.9,.1,-1.6,.5,-2.3c.3,-.8,.8,-1.4,1.3,-1.9c.6,-.5,1.3,-.9,2.1,-1.2c.8,-.3,1.6,-.4,2.5,-.4c.6,0,1.2,.1,1.8,.2c.5,.2,1.1,.4,1.6,.6c.5,-.6,.8,-1.2,1,-1.8c.2,-.7,.2,-1.3,.2,-2.1V176.4h2.3Zm-18.2,.4h8.6c.4,0,.7,.1,1,.2c.2,.2,.4,.4,.5,.6c0,.2,.1,.4,.1,.7c0,.2,0,.4,0,.6c-.2,.8,-.5,1.5,-.8,2.2c-.3,.7,-.7,1.4,-1.1,2c.5,.2,.9,.4,1.3,.6c.3,.3,.6,.5,.9,.8c.4,.5,.8,1,1.3,1.5c.4,.6,.9,1.1,1.2,1.6l-1.4,1.3c-.3,-.2,-.5,-.5,-.7,-.8c-.2,-.2,-.4,-.5,-.6,-.7c-.2,-.3,-.4,-.5,-.6,-.8c-.2,-.2,-.4,-.5,-.7,-.7c-.2,-.3,-.5,-.6,-.8,-.8c-.3,-.2,-.7,-.4,-1.1,-.5c-.9,1,-1.9,1.9,-3.1,2.7c-1.2,.8,-2.5,1.6,-3.8,2.2l-1,-1.8c2.3,-1,4.1,-2.2,5.5,-3.6c1.3,-1.4,2.4,-3,3.1,-4.7c.1,-.3,.1,-.5,0,-.6c-.1,-.2,-.3,-.2,-.6,-.2h-7.2v-1.8Zm14.3,16.3c-.8,-.8,-1.8,-1.2,-3,-1.2c-1.2,0,-2.2,.4,-3,1.2c-.8,.7,-1.2,1.7,-1.2,2.9c0,1.2,.4,2.1,1.2,2.9c.8,.7,1.8,1.1,3,1.1c1.2,0,2.2,-.4,3,-1.1c.7,-.8,1.1,-1.7,1.1,-2.9c0,-1.2,-.4,-2.2,-1.1,-2.9Zm20.1,-15.4v12.8c0,.4,.1,.6,.2,.8c.2,.2,.4,.3,.7,.3h2c1.1,0,2.3,-.2,3.5,-.4c1.2,-.2,2.4,-.7,3.5,-1.2V176.7H479V185h4v-8.3h2.2v22.6H483V186.9h-4v11.8h-2.2v-6.8c-1.1,.5,-2.3,.9,-3.6,1.1c-1.3,.3,-2.4,.4,-3.3,.4h-2.5c-.8,0,-1.5,-.2,-2,-.6c-.4,-.4,-.7,-1.1,-.7,-2.1v-13h2.2Zm36.2,21V186.2h-3.4c-.2,1.9,-.8,3.4,-1.7,4.6c-1,1.1,-2.3,1.7,-4,1.7c-1.8,0,-3.1,-.7,-4.1,-2c-1,-1.4,-1.5,-3.1,-1.5,-5.3c0,-2.1,.5,-3.9,1.5,-5.3c1,-1.3,2.4,-2,4.1,-2c1.7,0,3,.6,4,1.8c1,1.1,1.5,2.7,1.7,4.6h3.4v-7.6h2.2v22h-2.2Zm-5.7,-15.5c-.2,-.7,-.4,-1.2,-.6,-1.7c-.3,-.5,-.7,-1,-1.1,-1.3c-.5,-.3,-1,-.4,-1.7,-.4c-.6,0,-1.2,.1,-1.6,.4c-.5,.3,-.8,.8,-1.1,1.3c-.3,.5,-.5,1,-.6,1.7c-.1,.6,-.2,1.3,-.2,2c0,.7,.1,1.4,.2,2c.1,.7,.3,1.2,.6,1.8c.3,.5,.6,.9,1.1,1.2c.4,.3,1,.4,1.6,.4c.7,0,1.2,-.1,1.7,-.4c.4,-.3,.8,-.7,1.1,-1.2c.2,-.6,.4,-1.1,.6,-1.8c.1,-.6,.2,-1.3,.2,-2c0,-.7,-.1,-1.4,-.2,-2Zm10.8,-6.5h2.2v22.6h-2.2V176.7ZM525.7,183.8h5.6v-7.1h2.3v22.6h-2.3V185.7h-5.6v-1.9Zm-4.8,-6.6c.2,.7,.4,1.4,.6,2.2c.1,.8,.2,1.6,.2,2.4c0,.7,-.1,1.4,-.2,2c-.1,.7,-.2,1.3,-.4,1.9c.6,.2,1.2,.4,1.7,.7c.5,.3,.9,.6,1.1,1c.6,.8,1.2,1.7,1.8,2.7c.7,1,1.4,2,2.1,3.1l-1.8,1.3c-.3,-.5,-.6,-1,-1,-1.6c-.3,-.5,-.7,-1.1,-1,-1.6c-.3,-.5,-.6,-1,-1,-1.5c-.3,-.4,-.5,-.8,-.8,-1.1c-.2,-.2,-.4,-.4,-.7,-.6c-.3,-.3,-.6,-.4,-1.2,-.6c-.6,1.3,-1.4,2.5,-2.4,3.6c-1,1.2,-2.2,2.3,-3.7,3.4l-1.3,-1.8c2.3,-1.6,3.9,-3.3,5,-5.2c1,-1.8,1.5,-3.7,1.5,-5.6c0,-.6,-.1,-1.3,-.2,-2c-.2,-.7,-.3,-1.3,-.6,-1.9l2.3,-.8Zm29.7,8.6c-.3,.8,-.8,1.4,-1.4,2c-.6,.5,-1.2,.9,-2,1.2c-.8,.3,-1.7,.4,-2.7,.4c-.9,0,-1.8,-.1,-2.6,-.4c-.9,-.3,-1.6,-.7,-2.1,-1.2c-.6,-.6,-1.1,-1.2,-1.4,-2c-.3,-.8,-.5,-1.6,-.5,-2.6c0,-.9,.2,-1.8,.5,-2.5c.3,-.8,.8,-1.4,1.4,-2c.6,-.6,1.3,-1,2.1,-1.3c.8,-.3,1.7,-.4,2.6,-.4c1,0,1.9,.1,2.7,.4c.8,.3,1.4,.7,2,1.3c.6,.6,1.1,1.2,1.4,2c.3,.7,.5,1.6,.5,2.5c0,1,-.2,1.8,-.5,2.6Zm6.4,13.5h-2.2v-5.6c-1.2,.6,-2.4,1.1,-3.7,1.4c-1.2,.3,-2.7,.5,-4.4,.5h-9.8v-1.9h9.8c1.4,0,2.8,-.1,4.1,-.4c1.3,-.3,2.6,-.9,4,-1.8V176.7H557v22.6ZM547.6,180c-.8,-.8,-1.8,-1.2,-3.1,-1.2c-1.2,0,-2.3,.4,-3.1,1.2c-.8,.8,-1.2,1.8,-1.2,3.2c0,1.5,.4,2.6,1.2,3.3c.8,.7,1.9,1.1,3.1,1.1c1.3,0,2.3,-.4,3.1,-1.1c.8,-.7,1.2,-1.8,1.2,-3.3c0,-1.4,-.4,-2.4,-1.2,-3.2Zm34.8,8.7c-.9,1,-2.1,1.6,-3.6,1.8v3.9h9.7v1.9H567.1v-1.9h9.5v-3.9c-1.6,-.2,-2.8,-.7,-3.8,-1.7c-1,-.9,-1.5,-2.2,-1.5,-3.8c0,-.8,.1,-1.5,.4,-2.1c.2,-.7,.6,-1.2,1.1,-1.7h-3.7v-1.9H576c.2,-.3,.3,-.6,.4,-.9c0,-.2,0,-.5,0,-.7c0,-.2,0,-.5,-.1,-.7c0,-.3,-.1,-.5,-.1,-.9l2.3,-.6c0,.3,.1,.5,.1,.8c.1,.2,.1,.5,.1,.7c0,.5,-.1,.9,-.1,1.3c-.1,.3,-.3,.7,-.5,1h8v1.9h-3.8c.5,.5,.9,1,1.2,1.7c.3,.6,.4,1.3,.4,2.1c0,1.6,-.5,2.8,-1.5,3.7Zm-1.7,-6.3c-.7,-.8,-1.7,-1.1,-3.1,-1.1c-.8,0,-1.4,.1,-1.9,.3c-.6,.2,-1,.5,-1.3,.9c-.3,.3,-.5,.7,-.7,1.2c-.1,.4,-.2,.9,-.2,1.3c0,.5,.1,1,.2,1.4c.2,.4,.4,.8,.7,1.2c.4,.3,.8,.6,1.3,.8c.5,.2,1.1,.3,1.9,.3c.7,0,1.3,-.1,1.8,-.3c.5,-.2,.9,-.5,1.3,-.8c.3,-.4,.6,-.8,.7,-1.2c.2,-.4,.3,-.9,.3,-1.4c0,-.9,-.4,-1.8,-1,-2.6Zm29.5,-6v11.1c0,.8,-.2,1.6,-.4,2.5c-.2,.8,-.8,1.6,-1.6,2.3c.5,.5,.8,1.1,1.1,1.7c.3,.6,.4,1.3,.4,2.1c0,.8,-.2,1.6,-.5,2.3c-.3,.7,-.8,1.3,-1.4,1.8c-.6,.5,-1.3,.8,-2,1.1c-.8,.3,-1.6,.4,-2.5,.4c-.8,0,-1.7,-.1,-2.4,-.4c-.8,-.3,-1.5,-.6,-2.1,-1.1c-.6,-.5,-1,-1.1,-1.4,-1.8c-.3,-.7,-.5,-1.5,-.5,-2.3c0,-.8,.2,-1.6,.5,-2.3c.4,-.7,.8,-1.3,1.4,-1.8c.6,-.5,1.3,-.9,2.1,-1.2c.7,-.3,1.6,-.4,2.4,-.4c.7,0,1.3,.1,1.8,.2c.6,.2,1.2,.4,1.7,.6c.3,-.2,.5,-.6,.6,-.9c.2,-.3,.3,-.7,.3,-1c.1,-.3,.2,-.7,.2,-1c0,-.3,0,-.6,0,-.9v-11h2.3ZM591.3,178h3.9c.2,-.4,.3,-.7,.4,-1c.1,-.3,.1,-.6,.1,-.9c0,-.3,0,-.5,-.1,-.8c0,-.2,-.1,-.4,-.2,-.6l2.2,-.5c.1,.3,.2,.6,.2,.8c.1,.3,.1,.6,.1,1c0,.3,-.1,.7,-.2,1c-.1,.3,-.3,.7,-.4,1h3.1c.7,0,1.1,.2,1.4,.6c.2,.4,.3,.8,.2,1.4c-.2,.7,-.5,1.4,-.8,2.1c-.3,.6,-.7,1.3,-1.1,1.9c.5,.1,.9,.3,1.3,.5c.3,.2,.6,.5,.9,.8c.4,.4,.8,.8,1.2,1.3c.3,.4,.8,.9,1.2,1.5l-1.5,1.3c-.2,-.3,-.5,-.6,-.6,-.9c-.2,-.2,-.4,-.4,-.6,-.6c-.2,-.2,-.3,-.4,-.5,-.6c-.1,-.2,-.3,-.4,-.5,-.6c-.1,-.1,-.3,-.2,-.4,-.4c-.1,-.1,-.2,-.2,-.4,-.3c-.1,-.2,-.3,-.3,-.5,-.4c-.2,-.1,-.5,-.2,-.8,-.3c-.9,1,-2,1.9,-3.2,2.7c-1.2,.8,-2.6,1.5,-4.1,2.1l-.8,-2c2.3,-.9,4.3,-2,5.8,-3.3c1.5,-1.3,2.5,-2.8,3.1,-4.3c.1,-.3,.1,-.5,0,-.6c-.1,-.1,-.3,-.2,-.5,-.2h-7.9V178Zm15,15.3c-.7,-.8,-1.7,-1.1,-3,-1.1c-1.2,0,-2.2,.3,-3,1.1c-.8,.7,-1.1,1.6,-1.1,2.8c0,1.2,.3,2.1,1.1,2.8c.8,.7,1.8,1.1,3,1.1c1.3,0,2.3,-.4,3,-1.1c.8,-.7,1.2,-1.6,1.2,-2.8c0,-1.2,-.4,-2.1,-1.2,-2.8Z" class="g1_113"/>
<image preserveAspectRatio="none" x="738" y="259" width="100" height="99" xlink:href="img/2.png"/>
<image clip-path="url(#c1_113)" preserveAspectRatio="none" x="738" y="395" width="100" height="99" xlink:href="img/3.png"/>
<image preserveAspectRatio="none" x="738" y="515" width="100" height="99" xlink:href="img/4.png"/>
<image clip-path="url(#c2_113)" preserveAspectRatio="none" x="738" y="655" width="100" height="92" xlink:href="img/5.png"/>
<image preserveAspectRatio="none" x="738" y="773" width="100" height="100" xlink:href="img/6.png"/>
<image preserveAspectRatio="none" x="738" y="890" width="100" height="100" xlink:href="img/7.png"/>
<image preserveAspectRatio="none" x="738" y="1007" width="100" height="100" xlink:href="img/8.png"/>
<image preserveAspectRatio="none" x="738" y="1124" width="100" height="100" xlink:href="img/9.png"/>
<path d="M153.3,126.3v22.2L165,158.7V136.5Z" class="g2_113"/>
<path d="M153.3,109.5v39H851.1c0,0,16.8,0,16.8,-16.8v-5.4c0,0,0,-16.8,-16.8,-16.8Z" class="g3_113"/>
<path d="M207.2,115.7c0,-9.1,-7.9,-16.6,-17.7,-16.6c-9.8,0,-17.7,7.5,-17.7,16.6c0,2.7,.6,5.2,1.8,7.4c1.2,2.4,2.9,4.6,5,6.2c1.2,1,1.6,1.7,1.7,4.3v.6c0,3.3,2.7,5.9,5.9,5.9h6.6c3.2,0,5.8,-2.6,5.8,-5.9v-.6c.2,-2.6,.6,-3.3,1.8,-4.3c2.1,-1.6,3.8,-3.8,5,-6.2c1.2,-2.2,1.8,-4.7,1.8,-7.4Z" class="g4_113"/>
<path d="M207.2,115.7c0,-9.1,-7.9,-16.6,-17.7,-16.6c-9.8,0,-17.7,7.5,-17.7,16.6c0,2.7,.6,5.2,1.8,7.4c1.2,2.4,2.9,4.6,5,6.2c1.2,1,1.6,1.7,1.7,4.3v.6c0,3.3,2.7,5.9,5.9,5.9h6.6c3.2,0,5.8,-2.6,5.8,-5.9v-.6c.2,-2.6,.6,-3.3,1.8,-4.3c2.1,-1.6,3.8,-3.8,5,-6.2c1.2,-2.2,1.8,-4.7,1.8,-7.4Z" class="g5_113"/>
<path d="M194.6,147.4c0,2.8,-2.3,5.1,-5.1,5.1c-2.8,0,-5.1,-2.3,-5.1,-5.1c0,-2.8,2.3,-5.1,5.1,-5.1c2.8,0,5.1,2.3,5.1,5.1Z" class="g0_113"/>
<path d="M194.6,147.4c0,2.8,-2.3,5.1,-5.1,5.1c-2.8,0,-5.1,-2.3,-5.1,-5.1c0,-2.8,2.3,-5.1,5.1,-5.1c2.8,0,5.1,2.3,5.1,5.1Z" class="g5_113"/>
<path d="M182.1,140.2c0,1,.8,1.8,1.8,1.8h11.2c1,0,1.8,-.8,1.8,-1.8v-1.3H182.1Z" class="g0_113"/>
<path d="M182.1,140.2c0,1,.8,1.8,1.8,1.8h11.2c1,0,1.8,-.8,1.8,-1.8v-1.3H182.1v1.3Z" class="g5_113"/>
<path d="M196.9,143.2c0,.8,-.6,1.3,-1.3,1.3H183.4c-.8,0,-1.3,-.5,-1.3,-1.3c0,-.7,.5,-1.3,1.3,-1.3h12.2c.7,0,1.3,.6,1.3,1.3Z" class="g0_113"/>
<path d="M196.9,143.2c0,.8,-.6,1.3,-1.3,1.3H183.4c-.8,0,-1.3,-.5,-1.3,-1.3c0,-.7,.5,-1.3,1.3,-1.3h12.2c.7,0,1.3,.6,1.3,1.3Z" class="g5_113"/>
<path d="M196.9,145.8c0,.7,-.6,1.3,-1.3,1.3H183.4c-.8,0,-1.3,-.6,-1.3,-1.3c0,-.7,.5,-1.3,1.3,-1.3h12.2c.7,0,1.3,.6,1.3,1.3Z" class="g0_113"/>
<path d="M196.9,145.8c0,.7,-.6,1.3,-1.3,1.3H183.4c-.8,0,-1.3,-.6,-1.3,-1.3c0,-.7,.5,-1.3,1.3,-1.3h12.2c.7,0,1.3,.6,1.3,1.3Z" class="g5_113"/>
<path d="M215.5,128.7l8.3,10.4c.6,.7,1.8,.6,2.7,-.2c.9,-.7,1.2,-1.9,.7,-2.6l-8.9,-10.2Z" class="g6_113"/>
<path d="M215.5,128.7l8.3,10.4c.6,.7,1.8,.6,2.7,-.2c.9,-.7,1.2,-1.9,.7,-2.6l-8.9,-10.2l-2.8,2.6Z" class="g5_113"/>
<path d="M217.5,125.1c.5,.6,.3,1.8,-.7,2.6c-.9,.7,-2.1,.8,-2.6,.2c-.6,-.7,-.3,-1.9,.6,-2.6c.9,-.8,2.1,-.9,2.7,-.2Z" class="g7_113"/>
<path d="M217.5,125.1c.5,.6,.3,1.8,-.7,2.6c-.9,.7,-2.1,.8,-2.6,.2c-.6,-.7,-.3,-1.9,.6,-2.6c.9,-.8,2.1,-.9,2.7,-.2Z" class="g5_113"/>
<path d="M212.7,124.7l1.7,2c.3,.3,1,.3,1.5,-.1c.5,-.5,.7,-1.1,.4,-1.5l-1.7,-2Z" class="g0_113"/>
<path d="M212.7,124.7l1.7,2c.3,.3,1,.3,1.5,-.1c.5,-.5,.7,-1.1,.4,-1.5l-1.7,-2l-1.9,1.6Z" class="g8_113"/>
<path d="M214.8,122.9c.4,.5,.2,1.3,-.5,1.8c-.6,.5,-1.4,.6,-1.8,.1c-.4,-.4,-.2,-1.2,.5,-1.7c.6,-.6,1.4,-.6,1.8,-.2Z" class="g0_113"/>
<path d="M214.8,122.9c.4,.5,.2,1.3,-.5,1.8c-.6,.5,-1.4,.6,-1.8,.1c-.4,-.4,-.2,-1.2,.5,-1.7c.6,-.6,1.4,-.6,1.8,-.2Z" class="g8_113"/>
<path d="M216.4,105.4c4.8,5.7,4.1,14.2,-1.7,19c-5.7,4.8,-14.2,4,-19,-1.7c-4.8,-5.7,-4,-14.2,1.7,-19c5.7,-4.8,14.2,-4.1,19,1.7Z" class="g0_113"/>
<path d="M216.4,105.4c4.8,5.7,4.1,14.2,-1.7,19c-5.7,4.8,-14.2,4,-19,-1.7c-4.8,-5.7,-4,-14.2,1.7,-19c5.7,-4.8,14.2,-4.1,19,1.7Z" class="g5_113"/>
<path d="M214,107.4c3.5,4.2,3,10.5,-1.3,14.1c-4.2,3.5,-10.5,2.9,-14,-1.3c-3.5,-4.2,-3,-10.5,1.2,-14c4.2,-3.6,10.5,-3,14.1,1.2Z" class="g9_113"/>
<path d="M214,107.4c3.5,4.2,3,10.5,-1.3,14.1c-4.2,3.5,-10.5,2.9,-14,-1.3c-3.5,-4.2,-3,-10.5,1.2,-14c4.2,-3.6,10.5,-3,14.1,1.2Z" class="g5_113"/>
<path d="M213,110.6l-3.1,3m3.1,-.4l-3.1,3" class="ga_113"/>
<path d="M172.1,99l3.1,3.3m1.1,-5.9l1.2,3.9m-8.1,3l3.7,1.2" class="gb_113"/>
<path d="M185.8,106.1c1.2,1.2,.2,4.3,-2.2,6.7c-2.5,2.5,-5.5,3.5,-6.8,2.3c-1.2,-1.3,-.3,-4.3,2.2,-6.8c2.5,-2.5,5.5,-3.5,6.8,-2.2Z" class="g0_113"/>
<path d="M203.7,107.6c.6,.6,.1,1.9,-.9,3c-1.1,1,-2.4,1.5,-3,.9c-.5,-.5,-.1,-1.8,1,-2.9c1.1,-1.1,2.4,-1.5,2.9,-1Z" class="g0_113"/>
<path d="M32.1,45.1H9.2m958.3,0h22.9M32.1,1331.3H9.2m958.3,0h22.9M45.1,32.1V9.2m0,1335.1v22.9M954.5,32.1V9.2m0,1335.1v22.9" class="gc_113"/>
<path d="M32.1,45.1H9.2m958.3,0h22.9M32.1,1331.3H9.2m958.3,0h22.9M45.1,32.1V9.2m0,1335.1v22.9M954.5,32.1V9.2m0,1335.1v22.9" class="gd_113"/>
<path d="M27.5,32.1H0m972.1,0h27.5M27.5,1344.3H0m972.1,0h27.5M32.1,27.5V0m0,1348.9v27.5M967.5,27.5V0m0,1348.9v27.5" class="gc_113"/>
<path d="M27.5,32.1H0m972.1,0h27.5M27.5,1344.3H0m972.1,0h27.5M32.1,27.5V0m0,1348.9v27.5M967.5,27.5V0m0,1348.9v27.5" class="gd_113"/>
</svg>