<?xml version="1.0" encoding="UTF-8" standalone="no"?>
<!DOCTYPE svg PUBLIC "-//W3C//DTD SVG 1.1//EN"
"http://www.w3.org/Graphics/SVG/1.1/DTD/svg11.dtd">
<svg viewBox="0 0 999 1376" version="1.1" xmlns="http://www.w3.org/2000/svg" xmlns:xlink="http://www.w3.org/1999/xlink">
<defs>
<clipPath id="c0_131"><path d="M32.1,1344.3V32.1H967.5V1344.3Z"/></clipPath>
<clipPath id="c1_131"><path d="M704,448.9V349.7h99.2v99.2Z"/></clipPath>
<clipPath id="c2_131"><path d="M704,621.3V522.1h99.2v99.2Z"/></clipPath>
<clipPath id="c3_131"><path d="M241.4,965.4V879.1h87.8v86.3Z"/></clipPath>
<clipPath id="c4_131"><path d="M239.6,1064.3v-85h87.2v85Z"/></clipPath>
<clipPath id="c5_131"><path d="M239.6,1167.8v-87.2h87.2v87.2Z"/></clipPath>
<clipPath id="c6_131"><path d="M199.2,326.1L192.7,324L176.3,310V253h72v73.1Z"/></clipPath>
<clipPath id="c7_131"><path d="M199.2,809l-6.5,-2.1L176.3,793V735.9h72V809Z"/></clipPath>
<clipPath id="c8_131"><path d="M658.6,177V59h200V177Z"/></clipPath>
<style type="text/css"><![CDATA[
.g0_131{
fill: #FEFCF4;
}
.g1_131{
fill: #FFF;
}
.g2_131{
fill: none;
stroke: #6381B7;
stroke-width: 0.763;
}
.g3_131{
fill: none;
stroke: #949698;
stroke-width: 0.381;
}
.g4_131{
fill: #93BEDA;
}
.g5_131{
fill: #EFE9CC;
}
.g6_131{
fill: #6381B7;
}
.g7_131{
fill: none;
stroke: #6381B7;
stroke-width: 0.381;
stroke-dasharray: 2,1;
}
.g8_131{
fill: none;
stroke: #6381B7;
stroke-width: 0.381;
}
.g9_131{
fill: #FCE8B0;
}
.ga_131{
fill: #25408F;
}
.gb_131{
fill: #00BAF1;
}
.gc_131{
fill: #332D2C;
}
.gd_131{
fill: #D9DFF0;
}
.ge_131{
fill: #F27C85;
}
.gf_131{
fill: #7DD3F6;
}
.gg_131{
fill: #2E6E51;
}
.gh_131{
fill: #BCBEC0;
}
.gi_131{
fill: #EE314A;
}
.gj_131{
fill: none;
stroke: #FFF;
stroke-width: 1.909;
stroke-miterlimit: 10;
}
.gk_131{
fill: none;
stroke: #000;
stroke-width: 0.381;
stroke-miterlimit: 10;
}
]]></style>
</defs>
<path clip-path="url(#c0_131)" d="M-877.3,1344.3H45.1V32.1H-877.3V1344.3Z" class="g0_131"/>
<path d="M45.1,1344.3H967.5V32.1H45.1V1344.3Z" class="g0_131"/>
<path d="M172.1,215.7c0,0,-18.4,0,-18.4,18.3V670.3c0,0,0,18.4,18.4,18.4H849.2c0,0,18.3,0,18.3,-18.4V215.7Z" class="g1_131"/>
<path d="M172.1,215.7c0,0,-18.4,0,-18.4,18.3V670.3c0,0,0,18.4,18.4,18.4H849.2c0,0,18.3,0,18.3,-18.4V215.7H172.1Z" class="g2_131"/>
<path d="M202.6,448.9H323.1V349.7H202.6v99.2Z" class="g1_131"/>
<image preserveAspectRatio="none" x="213" y="350" width="99" height="99" xlink:href="img/1.jpg"/>
<path d="M202.6,448.9H323.1V349.7H202.6v99.2Z" class="g3_131"/>
<path d="M529.8,448.9H650.3V349.7H529.8v99.2Z" class="g1_131"/>
<image preserveAspectRatio="none" x="540" y="350" width="100" height="99" xlink:href="img/2.jpg"/>
<path d="M529.8,448.9H650.3V349.7H529.8v99.2Z" class="g3_131"/>
<path d="M366.2,448.9H486.7V349.7H366.2v99.2Z" class="g1_131"/>
<image preserveAspectRatio="none" x="377" y="350" width="99" height="99" xlink:href="img/3.jpg"/>
<path d="M366.2,448.9H486.7V349.7H366.2v99.2Z" class="g3_131"/>
<path d="M693.4,448.9H813.9V349.7H693.4v99.2Z" class="g1_131"/>
<image clip-path="url(#c1_131)" preserveAspectRatio="none" x="704" y="350" width="99" height="99" xlink:href="img/4.jpg"/>
<path d="M693.4,448.9H813.9V349.7H693.4v99.2Z" class="g3_131"/>
<path d="M202.6,621.3H323.1V522.1H202.6v99.2Z" class="g1_131"/>
<image preserveAspectRatio="none" x="213" y="522" width="99" height="99" xlink:href="img/5.jpg"/>
<path d="M202.6,621.3H323.1V522.1H202.6v99.2Z" class="g3_131"/>
<path d="M366.2,621.3H486.7V522.1H366.2v99.2Z" class="g1_131"/>
<image preserveAspectRatio="none" x="377" y="522" width="99" height="99" xlink:href="img/6.jpg"/>
<path d="M366.2,621.3H486.7V522.1H366.2v99.2Z" class="g3_131"/>
<path d="M529.8,621.3H650.3V522.1H529.8v99.2Z" class="g1_131"/>
<image preserveAspectRatio="none" x="540" y="522" width="100" height="99" xlink:href="img/7.jpg"/>
<path d="M529.8,621.3H650.3V522.1H529.8v99.2Z" class="g3_131"/>
<path d="M693.4,621.3H813.9V522.1H693.4v99.2Z" class="g1_131"/>
<image clip-path="url(#c2_131)" preserveAspectRatio="none" x="704" y="522" width="99" height="99" xlink:href="img/8.jpg"/>
<path d="M693.4,621.3H813.9V522.1H693.4v99.2Z" class="g3_131"/>
<path d="M171.5,827.6c0,0,-18.3,0,-18.3,18.4v318.1c0,0,0,18.4,18.3,18.4H848.7c0,0,18.3,0,18.3,-18.4V846c0,0,0,-18.4,-18.3,-18.4Z" class="g1_131"/>
<path d="M171.5,827.6c0,0,-18.3,0,-18.3,18.4v318.1c0,0,0,18.4,18.3,18.4H848.7c0,0,18.3,0,18.3,-18.4V846c0,0,0,-18.4,-18.3,-18.4H171.5Z" class="g2_131"/>
<image clip-path="url(#c3_131)" preserveAspectRatio="none" x="242" y="878" width="87" height="87" xlink:href="img/9.jpg"/>
<image clip-path="url(#c4_131)" preserveAspectRatio="none" x="240" y="978" width="87" height="86" xlink:href="img/10.jpg"/>
<image clip-path="url(#c5_131)" preserveAspectRatio="none" x="240" y="1081" width="87" height="87" xlink:href="img/11.jpg"/>
<path d="M343.6,916.3c2,0,3.6,-1.6,3.6,-3.6c0,-2,-1.6,-3.6,-3.6,-3.6c-2,0,-3.6,1.6,-3.6,3.6c0,2,1.6,3.6,3.6,3.6Z" class="g4_131"/>
<path d="M343.6,1023.7c2,0,3.6,-1.6,3.6,-3.6c0,-2,-1.6,-3.6,-3.6,-3.6c-2,0,-3.6,1.6,-3.6,3.6c0,2,1.6,3.6,3.6,3.6Z" class="g4_131"/>
<path d="M612.9,898.2c0,0,-8.7,0,-8.7,8.7V922c0,0,0,8.7,8.7,8.7h82.3c0,0,8.6,0,8.6,-8.7V906.9c0,0,0,-8.7,-8.6,-8.7Z" class="g5_131"/>
<path d="M612.9,1004.3c0,0,-8.7,0,-8.7,8.7v15.1c0,0,0,8.7,8.7,8.7h82.3c0,0,8.6,0,8.6,-8.7V1013c0,0,0,-8.7,-8.6,-8.7Z" class="g5_131"/>
<path d="M612.9,1109.3c0,0,-8.7,0,-8.7,8.7v15.2c0,0,0,8.6,8.7,8.6h82.3c0,0,8.6,0,8.6,-8.6V1118c0,0,0,-8.7,-8.6,-8.7Z" class="g5_131"/>
<path d="M572.3,916.3c2,0,3.6,-1.6,3.6,-3.6c0,-2,-1.6,-3.6,-3.6,-3.6c-2,0,-3.6,1.6,-3.6,3.6c0,2,1.6,3.6,3.6,3.6Z" class="g4_131"/>
<path d="M572.3,1023.7c2,0,3.6,-1.6,3.6,-3.6c0,-2,-1.6,-3.6,-3.6,-3.6c-2,0,-3.6,1.6,-3.6,3.6c0,2,1.6,3.6,3.6,3.6Z" class="g4_131"/>
<path d="M572.3,1128.5c2,0,3.6,-1.6,3.6,-3.6c0,-2,-1.6,-3.6,-3.6,-3.6c-2,0,-3.6,1.6,-3.6,3.6c0,2,1.6,3.6,3.6,3.6Z" class="g4_131"/>
<path d="M343.6,1128.5c2,0,3.6,-1.6,3.6,-3.6c0,-2,-1.6,-3.6,-3.6,-3.6c-2,0,-3.6,1.6,-3.6,3.6c0,2,1.6,3.6,3.6,3.6Z" class="g4_131"/>
<path d="M705.4,1203.9c0,0,-4.3,0,-4.3,4.4v10.8c0,0,0,4.3,4.3,4.3h30.3c0,0,4.3,0,4.3,-4.3v-10.8c0,0,0,-4.4,-4.3,-4.4Z" class="g6_131"/>
<path d="M692.2,1196.4v34.9m1.3,1H866.8m.9,-1.4V1196m-1.3,-.9H693.2" class="g7_131"/>
<path d="M692.2,1231.7v.6h.6m174.4,0h.5v-.6m0,-36v-.6h-.5m-174.4,0h-.6v.6" class="g8_131"/>
<path d="M231.8,281.1c0,0,-13,0,-13,13v21.6c0,0,0,13,13,13h602c0,0,13,0,13,-13V294.1c0,0,0,-13,-13,-13Z" class="g9_131"/>
<image clip-path="url(#c6_131)" preserveAspectRatio="none" x="175" y="251" width="75" height="77" xlink:href="img/12.png"/>
<path d="M226.6,321.4c0,0,-26.9,11.3,-51.1,-12.8c0,0,15.1,25.3,49.3,24c0,0,24.7,.3,20.2,-10.1c0,0,1.2,-4.5,-18.4,-1.1Z" class="g9_131"/>
<path d="M231.8,764c0,0,-13,0,-13,13v21.7c0,0,0,13,13,13H854.9c0,0,13,0,13,-13V777c0,0,0,-13,-13,-13Z" class="g9_131"/>
<image clip-path="url(#c7_131)" preserveAspectRatio="none" x="175" y="734" width="75" height="77" xlink:href="img/13.png"/>
<path d="M226.6,804.3c0,0,-26.9,11.3,-51.1,-12.8c0,0,15.1,25.4,49.3,24c0,0,24.7,.3,20.2,-10.1c0,0,1.3,-4.5,-18.4,-1.1Z" class="g9_131"/>
<path d="M153.3,213.7v22.2L165,246.2V224Z" class="ga_131"/>
<path d="M153.3,196.9v39H851.1c0,0,16.8,0,16.8,-16.8v-5.4c0,0,0,-16.8,-16.8,-16.8Z" class="g6_131"/>
<path d="M211.3,208.3l-6.5,-6.5L183.6,223l6.5,6.5Z" class="gb_131"/>
<path d="M190.1,230.1c.1,0,.3,-.1,.4,-.2l21.2,-21.2c.1,-.1,.1,-.2,.1,-.4c0,-.1,0,-.3,-.1,-.3l-6.5,-6.5c-.2,-.2,-.6,-.2,-.8,0l-21.2,21.2c-.1,.1,-.1,.2,-.1,.3c0,.2,0,.3,.1,.4l6.5,6.5c.1,.1,.3,.2,.4,.2m20.5,-21.8l-20.5,20.5L184.3,223l20.5,-20.4Z" class="gc_131"/>
<path d="M211.3,208.3l-6.5,-6.5l2.1,-2.1l6.5,6.5Z" class="gd_131"/>
<path d="M211.3,208.8c.1,0,.3,0,.4,-.1l2.1,-2.1c.1,-.1,.2,-.3,.2,-.4c0,-.2,-.1,-.3,-.2,-.4l-6.5,-6.5c-.2,-.2,-.5,-.2,-.7,0l-2.2,2.2c-.1,.1,-.1,.2,-.1,.3c0,.2,0,.3,.1,.4l6.5,6.5c.1,.1,.3,.1,.4,.1m1.4,-2.6l-1.4,1.4l-5.7,-5.8l1.3,-1.4Z" class="gc_131"/>
<path d="M217,202.6l-6.4,-6.5l-3.7,3.6l6.5,6.5Z" class="ge_131"/>
<path d="M213.4,206.7c.2,0,.3,0,.4,-.1l3.6,-3.7c.2,-.2,.2,-.5,0,-.7l-6.5,-6.5c-.2,-.2,-.5,-.2,-.7,0l-3.6,3.6c-.2,.2,-.2,.6,0,.8l6.5,6.5c.1,.1,.2,.1,.3,.1m2.9,-4.1l-2.9,2.8l-5.7,-5.7l2.9,-2.9Z" class="gc_131"/>
<path d="M179,234.2L183.6,223l6.5,6.5Z" class="g1_131"/>
<path d="M179,234.7c0,0,.1,0,.2,-.1L190.3,230c.2,0,.3,-.2,.3,-.4c0,-.1,0,-.3,-.1,-.4L184,222.7c-.1,-.2,-.3,-.2,-.5,-.2c-.2,.1,-.3,.2,-.4,.3L178.5,234c-.1,.2,0,.4,.1,.5c.1,.1,.2,.2,.4,.2m10.2,-5.4l-9.3,3.9l3.9,-9.2Z" class="gc_131"/>
<path d="M179,234.2l2.2,-5.4l3.1,3.1Z" class="gc_131"/>
<path d="M179,234.7c0,0,.1,0,.2,-.1l5.3,-2.2c.2,-.1,.3,-.2,.4,-.4c0,-.1,-.1,-.3,-.2,-.4l-3.1,-3.2c-.1,-.1,-.3,-.2,-.5,-.1c-.2,0,-.3,.1,-.4,.3l-2.2,5.4c-.1,.2,0,.4,.1,.5c.1,.1,.2,.2,.4,.2m4.4,-3l-3.5,1.5l1.5,-3.5Z" class="gc_131"/>
<path d="M209.5,206.6l-2.9,-3l-21.2,21.2l2.9,3Z" class="gf_131"/>
<path d="M188.3,228.3c.2,0,.3,-.1,.4,-.2l21.2,-21.2c.1,-.1,.2,-.2,.2,-.3c0,-.2,-.1,-.3,-.2,-.4l-3,-3c-.2,-.2,-.5,-.2,-.7,0L185,224.4c-.1,.1,-.2,.3,-.2,.4c0,.1,.1,.3,.2,.4l3,2.9c.1,.1,.2,.2,.3,.2m20.5,-21.7L188.3,227l-2.2,-2.2l20.5,-20.5Z" class="gc_131"/>
<path d="M32.1,179.3H967.5V32.1H32.1V179.3Z" class="gg_131"/>
<g clip-path="url(#c0_131)">
<path d="M967.5,177.2H-877.3v-5.4h736.6c43.1,0,53.1,-37.9,115.3,-37.9H967.5Z" class="gh_131"/>
<path d="M967.5,183.7H-877.3v-9.8h736.6c43.1,0,53.1,-33.6,115.3,-33.6H967.5Z" class="gi_131"/>
</g>
<image clip-path="url(#c8_131)" preserveAspectRatio="none" x="659" y="59" width="200" height="118" xlink:href="img/14.png"/>
<path d="M32.1,45.1H9.2m958.3,0h22.9M32.1,1331.3H9.2m958.3,0h22.9M45.1,32.1V9.2m0,1335.1v22.9M954.5,32.1V9.2m0,1335.1v22.9" class="gj_131"/>
<path d="M32.1,45.1H9.2m958.3,0h22.9M32.1,1331.3H9.2m958.3,0h22.9M45.1,32.1V9.2m0,1335.1v22.9M954.5,32.1V9.2m0,1335.1v22.9" class="gk_131"/>
<path d="M27.5,32.1H0m972.1,0h27.5M27.5,1344.3H0m972.1,0h27.5M32.1,27.5V0m0,1348.9v27.5M967.5,27.5V0m0,1348.9v27.5" class="gj_131"/>
<path d="M27.5,32.1H0m972.1,0h27.5M27.5,1344.3H0m972.1,0h27.5M32.1,27.5V0m0,1348.9v27.5M967.5,27.5V0m0,1348.9v27.5" class="gk_131"/>
</svg>