<?xml version="1.0" encoding="UTF-8" standalone="no"?>
<!DOCTYPE svg PUBLIC "-//W3C//DTD SVG 1.1//EN"
"http://www.w3.org/Graphics/SVG/1.1/DTD/svg11.dtd">
<svg viewBox="0 0 999 1376" version="1.1" xmlns="http://www.w3.org/2000/svg" xmlns:xlink="http://www.w3.org/1999/xlink">
<defs>
<clipPath id="c0_300"><path d="M32.1,1344.3V32.1H967.5V1344.3Z"/></clipPath>
<clipPath id="c1_300"><path d="M177,198.2L170.5,196L154.1,182.1V125h72v73.2Z"/></clipPath>
<clipPath id="c2_300"><path d="M226.9,350.5v-81h86.3v81Z"/></clipPath>
<clipPath id="c3_300"><path d="M225.7,534.7V451.8h86.8v82.9Z"/></clipPath>
<clipPath id="c4_300"><path d="M225.7,442.3V359.4h86.8v82.9Z"/></clipPath>
<clipPath id="c5_300"><path d="M225.7,627.2V545.1H311v82.1Z"/></clipPath>
<style type="text/css"><![CDATA[
.g0_300{
fill: #FEFCF4;
}
.g1_300{
fill: #FCE8B0;
}
.g2_300{
fill: #FFF;
}
.g3_300{
fill: none;
stroke: #6381B7;
stroke-width: 0.763;
}
.g4_300{
fill: #F0E8F3;
}
.g5_300{
fill: none;
stroke: #231F20;
stroke-width: 0.458;
stroke-miterlimit: 10;
}
.g6_300{
fill: #93BEDA;
}
.g7_300{
fill: #EFE9CC;
}
.g8_300{
fill: #6381B7;
}
.g9_300{
fill: none;
stroke: #6381B7;
stroke-width: 0.381;
stroke-dasharray: 2,1;
}
.ga_300{
fill: none;
stroke: #6381B7;
stroke-width: 0.381;
}
.gb_300{
fill: none;
stroke: #FFF;
stroke-width: 1.909;
stroke-miterlimit: 10;
}
.gc_300{
fill: none;
stroke: #000;
stroke-width: 0.381;
stroke-miterlimit: 10;
}
]]></style>
</defs>
<path clip-path="url(#c0_300)" d="M954.5,1344.3H1877V32.1H954.5V1344.3Z" class="g0_300"/>
<path d="M209.6,153.2c0,0,-12.9,0,-12.9,13v21.6c0,0,0,13,12.9,13H833.3c0,0,13,0,13,-13V166.2c0,0,0,-13,-13,-13Z" class="g1_300"/>
<image clip-path="url(#c1_300)" preserveAspectRatio="none" x="153" y="123" width="75" height="77" xlink:href="img/1.png"/>
<path d="M204.4,193.5c0,0,-26.8,11.3,-51.1,-12.8c0,0,15.2,25.3,49.3,24c0,0,24.8,.3,20.3,-10.2c0,0,1.2,-4.4,-18.5,-1Z" class="g1_300"/>
<path d="M145.1,213c0,0,-13,0,-13,13v939c0,0,0,13,13,13H832.9c0,0,13,0,13,-13V226c0,0,0,-13,-13,-13Z" class="g2_300"/>
<path d="M145.1,213c0,0,-13,0,-13,13v939c0,0,0,13,13,13H832.9c0,0,13,0,13,-13V226c0,0,0,-13,-13,-13H145.1Z" class="g3_300"/>
<image clip-path="url(#c2_300)" preserveAspectRatio="none" x="227" y="267" width="86" height="83" xlink:href="img/2.jpg"/>
<image clip-path="url(#c3_300)" preserveAspectRatio="none" x="224" y="450" width="90" height="86" xlink:href="img/3.jpg"/>
<image clip-path="url(#c4_300)" preserveAspectRatio="none" x="226" y="358" width="88" height="84" xlink:href="img/4.jpg"/>
<image clip-path="url(#c5_300)" preserveAspectRatio="none" x="226" y="545" width="85" height="83" xlink:href="img/5.jpg"/>
<path d="M231.3,726.1c0,0,-13,0,-13,13v56.3c0,0,0,13,13,13h563c0,0,13,0,13,-13V739.1c0,0,0,-13,-13,-13Z" class="g4_300"/>
<path d="M442.8,779.3H550.2" class="g5_300"/>
<path d="M231.3,858.7c0,0,-13,0,-13,13V954c0,0,0,13,13,13h563c0,0,13,0,13,-13V871.7c0,0,0,-13,-13,-13Z" class="g4_300"/>
<path d="M391.1,935.7H498.6" class="g5_300"/>
<path d="M231.3,1020.4c0,0,-13,0,-13,12.9v82.3c0,0,0,13,13,13h563c0,0,13,0,13,-13v-82.3c0,0,0,-12.9,-13,-12.9Z" class="g4_300"/>
<path d="M408.4,1086.6H515.8" class="g5_300"/>
<path d="M329.5,311.7c2,0,3.6,-1.6,3.6,-3.6c0,-2,-1.6,-3.6,-3.6,-3.6c-2,0,-3.7,1.6,-3.7,3.6c0,2,1.7,3.6,3.7,3.6Z" class="g6_300"/>
<path d="M329.5,405.2c2,0,3.6,-1.6,3.6,-3.6c0,-2,-1.6,-3.6,-3.6,-3.6c-2,0,-3.7,1.6,-3.7,3.6c0,2,1.7,3.6,3.7,3.6Z" class="g6_300"/>
<path d="M329.5,498.8c2,0,3.6,-1.6,3.6,-3.6c0,-2,-1.6,-3.6,-3.6,-3.6c-2,0,-3.7,1.6,-3.7,3.6c0,2,1.7,3.6,3.7,3.6Z" class="g6_300"/>
<path d="M329.5,590.2c2,0,3.6,-1.6,3.6,-3.6c0,-2,-1.6,-3.6,-3.6,-3.6c-2,0,-3.7,1.6,-3.7,3.6c0,2,1.7,3.6,3.7,3.6Z" class="g6_300"/>
<path d="M552.8,311.7c2,0,3.6,-1.6,3.6,-3.6c0,-2,-1.6,-3.6,-3.6,-3.6c-2,0,-3.6,1.6,-3.6,3.6c0,2,1.6,3.6,3.6,3.6Z" class="g6_300"/>
<path d="M552.8,405.2c2,0,3.6,-1.6,3.6,-3.6c0,-2,-1.6,-3.6,-3.6,-3.6c-2,0,-3.6,1.6,-3.6,3.6c0,2,1.6,3.6,3.6,3.6Z" class="g6_300"/>
<path d="M552.8,498.8c2,0,3.6,-1.6,3.6,-3.6c0,-2,-1.6,-3.6,-3.6,-3.6c-2,0,-3.6,1.6,-3.6,3.6c0,2,1.6,3.6,3.6,3.6Z" class="g6_300"/>
<path d="M552.8,590.2c2,0,3.6,-1.6,3.6,-3.6c0,-2,-1.6,-3.6,-3.6,-3.6c-2,0,-3.6,1.6,-3.6,3.6c0,2,1.6,3.6,3.6,3.6Z" class="g6_300"/>
<path d="M591.8,291.9c0,0,-8.7,0,-8.7,8.7v15.1c0,0,0,8.7,8.7,8.7h88.7c0,0,8.7,0,8.7,-8.7V300.6c0,0,0,-8.7,-8.7,-8.7Z" class="g7_300"/>
<path d="M591.8,386.3c0,0,-8.7,0,-8.7,8.7v15.2c0,0,0,8.6,8.7,8.6h88.7c0,0,8.7,0,8.7,-8.6V395c0,0,0,-8.7,-8.7,-8.7Z" class="g7_300"/>
<path d="M591.8,480.7c0,0,-8.7,0,-8.7,8.7v15.2c0,0,0,8.6,8.7,8.6h88.7c0,0,8.7,0,8.7,-8.6V489.4c0,0,0,-8.7,-8.7,-8.7Z" class="g7_300"/>
<path d="M591.8,573c0,0,-8.7,0,-8.7,8.7v15.1c0,0,0,8.7,8.7,8.7h88.7c0,0,8.7,0,8.7,-8.7V581.7c0,0,0,-8.7,-8.7,-8.7Z" class="g7_300"/>
<path d="M491.5,1193.8c0,0,-4.3,0,-4.3,4.3V1209c0,0,0,4.3,4.3,4.3h30.3c0,0,4.4,0,4.4,-4.3v-10.9c0,0,0,-4.3,-4.4,-4.3Z" class="g8_300"/>
<path d="M478.3,1184.9v37.6m1.4,1H845.1m1,-1.4v-37.5m-1.4,-1H479.3" class="g9_300"/>
<path d="M478.3,1222.9v.6h.6m366.6,0h.6v-.6m0,-38.7v-.6h-.6m-366.6,0h-.6v.6" class="ga_300"/>
<path d="M32.1,45.1H9.2m958.3,0h22.9M32.1,1331.3H9.2m958.3,0h22.9M45.1,32.1V9.2m0,1335.1v22.9M954.5,32.1V9.2m0,1335.1v22.9" class="gb_300"/>
<path d="M32.1,45.1H9.2m958.3,0h22.9M32.1,1331.3H9.2m958.3,0h22.9M45.1,32.1V9.2m0,1335.1v22.9M954.5,32.1V9.2m0,1335.1v22.9" class="gc_300"/>
<path d="M27.5,32.1H0m972.1,0h27.5M27.5,1344.3H0m972.1,0h27.5M32.1,27.5V0m0,1348.9v27.5M967.5,27.5V0m0,1348.9v27.5" class="gb_300"/>
<path d="M27.5,32.1H0m972.1,0h27.5M27.5,1344.3H0m972.1,0h27.5M32.1,27.5V0m0,1348.9v27.5M967.5,27.5V0m0,1348.9v27.5" class="gc_300"/>
</svg>