<?xml version="1.0" encoding="UTF-8" standalone="no"?>
<!DOCTYPE svg PUBLIC "-//W3C//DTD SVG 1.1//EN"
"http://www.w3.org/Graphics/SVG/1.1/DTD/svg11.dtd">
<svg viewBox="0 0 999 1376" version="1.1" xmlns="http://www.w3.org/2000/svg" xmlns:xlink="http://www.w3.org/1999/xlink">
<defs>
<clipPath id="c0_137"><path d="M154.8,1240.4V127.4H869.3v1113Z"/></clipPath>
<clipPath id="c1_137"><path d="M192.3,854.5V698.7H348.1V854.5Z"/></clipPath>
<style type="text/css"><![CDATA[
.g0_137{
fill: #FFF;
}
.g1_137{
fill: none;
stroke: #231F20;
stroke-width: 0.756;
stroke-miterlimit: 3;
}
.g2_137{
fill: #949698;
}
.g3_137{
fill: none;
stroke: #949698;
stroke-width: 0.948;
}
.g4_137{
fill: #B5DDF0;
}
.g5_137{
fill: #F499C2;
}
.g6_137{
fill: none;
stroke: #93BEDA;
stroke-width: 1.527;
}
.g7_137{
fill: #25408F;
}
.g8_137{
fill: #6381B7;
}
.g9_137{
fill: #FFDE2C;
}
.ga_137{
fill: none;
stroke: #231F20;
stroke-width: 1.451;
stroke-miterlimit: 10;
}
.gb_137{
fill: #D2D3D5;
}
.gc_137{
fill: #A8AAAD;
}
.gd_137{
fill: none;
stroke: #231F20;
stroke-width: 0.828;
stroke-miterlimit: 10;
}
.ge_137{
fill: #6CCFF6;
}
.gf_137{
fill: none;
stroke: #231F20;
stroke-width: 0.828;
stroke-linecap: round;
stroke-linejoin: round;
}
.gg_137{
fill: none;
stroke: #231F20;
stroke-width: 1.451;
stroke-linecap: round;
stroke-linejoin: round;
}
.gh_137{
fill: none;
stroke: #FFF;
stroke-width: 1.909;
stroke-miterlimit: 10;
}
.gi_137{
fill: none;
stroke: #000;
stroke-width: 0.381;
stroke-miterlimit: 10;
}
]]></style>
</defs>
<path d="M154.8,1240.4H869.3V127.4H154.8v1113Z" class="g0_137"/>
<image clip-path="url(#c0_137)" preserveAspectRatio="none" x="152" y="125" width="719" height="1118" xlink:href="img/1.jpg"/>
<path d="M409.6,172.3h5.3v-4.9h2.2v10.9c0,.9,-.1,1.8,-.5,2.6c-.3,.8,-.9,1.6,-1.7,2.3c.4,.5,.8,1.1,1.1,1.7c.3,.7,.4,1.4,.4,2.1c0,.9,-.2,1.6,-.5,2.3c-.4,.7,-.8,1.3,-1.4,1.9c-.6,.5,-1.3,.9,-2,1.1c-.8,.3,-1.6,.5,-2.5,.5c-.9,0,-1.7,-.2,-2.5,-.5c-.8,-.2,-1.4,-.6,-2,-1.1c-.6,-.5,-1.1,-1.1,-1.4,-1.9c-.3,-.7,-.5,-1.4,-.5,-2.3c0,-.8,.2,-1.6,.5,-2.3c.3,-.7,.8,-1.3,1.4,-1.8c.6,-.6,1.2,-1,2,-1.3c.8,-.2,1.6,-.4,2.5,-.4c.6,0,1.2,.1,1.8,.2c.6,.2,1.1,.4,1.6,.7c.6,-.6,1,-1.2,1.2,-1.9c.2,-.6,.3,-1.3,.3,-2v-4.1h-5.3v-1.8Zm3.4,11.8c-.8,-.7,-1.8,-1.1,-3,-1.1c-1.2,0,-2.2,.4,-3,1.1c-.8,.8,-1.2,1.8,-1.2,2.9c0,1.2,.4,2.2,1.2,2.9c.8,.7,1.8,1.1,3,1.1c1.2,0,2.2,-.4,3,-1.1c.8,-.7,1.2,-1.7,1.2,-2.9c0,-1.1,-.4,-2.1,-1.2,-2.9Zm-8.5,-16.8c.1,.4,.2,.9,.3,1.4c.1,.5,.1,1,.1,1.5c0,.5,0,.9,0,1.3c-.1,.4,-.2,.8,-.2,1.2c.9,.2,1.6,.4,2,.8c.4,.4,.8,.8,1.1,1.2c.4,.6,.8,1.3,1.3,2.1c.4,.7,.9,1.5,1.3,2.1l-1.7,1.2c-.4,-.7,-.9,-1.4,-1.4,-2.2c-.5,-.8,-.9,-1.5,-1.3,-2.1c-.3,-.4,-.6,-.7,-.8,-.9c-.3,-.2,-.7,-.4,-1.1,-.5c-.2,.3,-.4,.7,-.6,1c-.2,.3,-.4,.6,-.6,.9c-.6,.7,-1.3,1.5,-2.2,2.3c-.9,.7,-1.7,1.4,-2.4,1.8l-1.2,-1.8c.8,-.5,1.6,-1.1,2.3,-1.7c.7,-.6,1.3,-1.3,1.8,-2c.6,-.8,1,-1.6,1.1,-2.3c.2,-.7,.3,-1.5,.3,-2.3c0,-.4,0,-.8,-.1,-1.2c0,-.4,-.1,-.8,-.2,-1.1l2.2,-.7ZM433.9,178c-.3,.6,-.7,1.2,-1.2,1.7c-.5,.5,-1.1,.9,-1.8,1.1c-.8,.3,-1.5,.5,-2.4,.5c-.9,0,-1.7,-.2,-2.4,-.5c-.7,-.2,-1.4,-.6,-1.9,-1.1c-.5,-.5,-.9,-1.1,-1.2,-1.7c-.3,-.7,-.4,-1.4,-.4,-2.1c0,-.7,.1,-1.4,.4,-2c.2,-.7,.6,-1.2,1.1,-1.7h-3.2v-1.8h6.2c.1,-.4,.2,-.7,.3,-.9c0,-.3,.1,-.5,.1,-.8c0,-.2,-.1,-.4,-.1,-.7c-.1,-.2,-.1,-.5,-.2,-.8l2.3,-.6c0,.2,.1,.4,.2,.7c0,.3,0,.5,0,.8c0,.4,0,.8,-.1,1.2c-.1,.4,-.2,.7,-.5,1.1h6.8v1.8h-3c.4,.5,.8,1,1.1,1.7c.3,.6,.4,1.3,.4,2c0,.7,-.2,1.4,-.5,2.1Zm7.3,12.3H439v-5.8c-1.2,.6,-2.4,1.1,-3.7,1.4c-1.2,.4,-2.7,.6,-4.4,.6h-9.8v-1.9h9.8c1.4,0,2.8,-.1,4.1,-.4c1.3,-.3,2.6,-.8,4,-1.7V167.7h2.2v22.6Zm-10,-16.9c-.7,-.7,-1.6,-1.1,-2.7,-1.1c-1.2,0,-2.1,.4,-2.7,1.1c-.7,.7,-1,1.5,-1,2.5c0,1,.3,1.9,1,2.5c.6,.7,1.5,1,2.7,1c1.1,0,2,-.3,2.7,-1c.7,-.6,1,-1.5,1,-2.5c0,-1,-.3,-1.8,-1,-2.5Zm18.1,1.2c0,.3,.1,.5,.2,.6c.1,.1,.3,.1,.6,.1h5.2c1.1,0,2.3,0,3.6,-.1c1.2,-.1,2.4,-.3,3.7,-.6l.3,1.6c-1.2,.3,-2.4,.6,-3.6,.7c-1.1,.1,-2.3,.2,-3.7,.2v2.1h9.8V181H444.1v-1.8h9.2v-2.1h-3.4c-.9,0,-1.6,-.1,-2.1,-.4c-.5,-.4,-.7,-1,-.7,-1.9v-3.5h12.7V169H447.1v-1.8H462v5.2c-.4,.2,-1,.3,-1.8,.4c-.7,.2,-1.4,.2,-2,.2h-8.9v1.6Zm11.4,15.3c-.3,.6,-.8,1.2,-1.4,1.6c-.5,.4,-1.2,.7,-2,.9c-.8,.3,-1.7,.4,-2.6,.4c-1,0,-1.9,-.1,-2.7,-.4c-.8,-.2,-1.5,-.5,-2.1,-.9c-.6,-.4,-1,-1,-1.4,-1.6c-.3,-.6,-.5,-1.3,-.5,-2.2c0,-.8,.2,-1.5,.5,-2.1c.4,-.6,.8,-1.1,1.4,-1.6c.6,-.4,1.3,-.7,2.1,-.9c.8,-.2,1.7,-.3,2.7,-.3c1.9,0,3.4,.4,4.7,1.2c1.2,.9,1.8,2.1,1.8,3.7c0,.9,-.1,1.6,-.5,2.2Zm-2.9,-4.6c-.8,-.5,-1.9,-.8,-3.1,-.8c-1.3,0,-2.4,.3,-3.2,.8c-.8,.6,-1.2,1.4,-1.2,2.4c0,1.1,.4,1.9,1.2,2.5c.8,.5,1.9,.8,3.2,.8c1.2,0,2.3,-.3,3.1,-.8c.8,-.6,1.2,-1.4,1.2,-2.5c0,-1,-.4,-1.8,-1.2,-2.4Zm23.4,-8.5c-.3,.8,-.8,1.5,-1.3,2c-.6,.5,-1.3,1,-2.1,1.2c-.8,.3,-1.7,.5,-2.6,.5c-1,0,-1.9,-.2,-2.7,-.5c-.8,-.2,-1.5,-.7,-2.1,-1.2c-.6,-.5,-1,-1.2,-1.4,-2c-.3,-.7,-.4,-1.6,-.4,-2.6c0,-.9,.1,-1.7,.4,-2.5c.4,-.8,.8,-1.4,1.4,-2c.6,-.5,1.3,-1,2.1,-1.3c.8,-.2,1.7,-.4,2.7,-.4c.9,0,1.8,.2,2.6,.4c.8,.3,1.5,.8,2.1,1.3c.5,.6,1,1.2,1.3,2c.3,.8,.5,1.6,.5,2.5c0,1,-.2,1.9,-.5,2.6Zm6.5,13.5h-2.3v-5.6c-1.2,.7,-2.4,1.1,-3.6,1.4c-1.3,.4,-2.8,.5,-4.4,.5h-9.9v-1.8h9.8c1.4,0,2.8,-.2,4.1,-.5c1.3,-.3,2.7,-.9,4,-1.7V167.7h2.3v22.6ZM478.2,171c-.8,-.8,-1.8,-1.2,-3,-1.2c-1.3,0,-2.3,.4,-3.2,1.2c-.8,.8,-1.2,1.9,-1.2,3.2c0,1.5,.4,2.6,1.2,3.3c.9,.8,1.9,1.2,3.2,1.2c1.2,0,2.2,-.4,3,-1.2c.8,-.7,1.2,-1.8,1.2,-3.3c0,-1.3,-.4,-2.4,-1.2,-3.2Zm33.1,18.7v-22h2.3v8.6h3.6v-8.6h2.2v22.6h-2.2V178.2h-3.6v11.5h-2.3Zm-13.2,-6.1c1.1,-.7,2.1,-1.5,3,-2.4c1,-.9,1.8,-1.8,2.5,-2.8c.7,-1.1,1.3,-2.2,1.7,-3.3c.4,-1.2,.7,-2.4,.8,-3.7c0,-.3,0,-.6,-.1,-.7c-.1,-.1,-.2,-.1,-.5,-.1h-7.1v-1.9h7.8c.8,0,1.4,.2,1.7,.7c.3,.4,.5,.9,.4,1.6c-.1,1.7,-.4,3.2,-.9,4.6c-.5,1.3,-1.2,2.6,-1.9,3.8c-.8,1.2,-1.7,2.2,-2.8,3.2c-1,1,-2.1,2,-3.2,2.8l-1.4,-1.8Zm44.7,-5c0,.9,-.2,1.7,-.5,2.3c-.4,.6,-.7,1.1,-1.1,1.5h.1c.5,0,.9,.2,1.1,.5c.3,.3,.4,.8,.3,1.4l-.5,7.3c0,.2,-.1,.4,-.2,.4c-.1,.1,-.3,.2,-.5,.2H529.9c-.9,0,-1.6,-.3,-1.9,-.7c-.4,-.4,-.6,-1,-.6,-1.8v-7.3h11.8c.5,-.5,.8,-1.1,1,-1.7c.2,-.6,.3,-1.3,.3,-2.1v-3h-6.3v-1.8h6.3v-2.3h-6.3v-1.7h6.3v-2.4h2.3v11.2Zm-2.4,11.8v-6.2H529.7v5.3c0,.3,0,.5,.1,.7c.1,.1,.4,.2,.8,.2h9.8Zm-2.2,-12c-1,.4,-2.2,.6,-3.6,.8c-1.3,.2,-2.6,.3,-3.9,.3h-3.5c-1,0,-1.7,-.2,-2.1,-.6c-.4,-.5,-.6,-1.1,-.6,-1.9v-9.1h2.2v9c0,.2,.1,.5,.2,.6c.1,.2,.4,.2,.6,.2h3.1c.5,0,1.1,0,1.7,0c.6,0,1.2,-.1,1.9,-.2c.6,-.1,1.2,-.2,1.9,-.3c.6,-.1,1.2,-.3,1.7,-.5l.4,1.7Zm12.9,6.5V177h2.3v7.9h2.7c1.3,0,2.6,-.1,3.8,-.3c1.2,-.3,2.4,-.7,3.6,-1.4V167.7h2.2v9.1h4.4v1.9h-4.4v11.6h-2.2v-5.2c-1.1,.5,-2.2,.9,-3.3,1.2c-1.2,.3,-2.6,.4,-4.1,.4h-10v-1.8h5Zm5.7,-3.3c.3,-1.4,.5,-2.9,.7,-4.7c.2,-1.7,.3,-3.4,.3,-5.2c0,-.4,-.1,-.7,-.3,-.9c-.1,-.1,-.4,-.2,-.7,-.2h-9.7v-1.8h10.5c.8,0,1.4,.2,1.8,.7c.4,.4,.6,1.1,.6,2c0,1.6,-.1,3.4,-.3,5.2c-.2,1.8,-.5,3.6,-.8,5.2l-2.1,-.3Zm21.1,2.6c1.4,-.9,2.6,-1.8,3.7,-2.7c1.1,-1,2.1,-1.9,3,-2.8c.8,-1,1.5,-2,2,-2.9c.5,-.9,.9,-1.8,1.1,-2.7c0,-.3,0,-.5,-.1,-.6c-.1,-.1,-.3,-.2,-.5,-.2h-8.7v-1.8h4.4c.1,-.3,.2,-.6,.3,-.9c0,-.3,.1,-.6,.1,-1c0,-.2,-.1,-.4,-.1,-.7c-.1,-.3,-.1,-.6,-.3,-1l2.4,-.6c.1,.4,.2,.7,.2,.9c0,.3,.1,.5,.1,.8c0,.6,-.1,1.1,-.2,1.5c-.1,.3,-.2,.7,-.3,1h3.1c.9,0,1.5,.2,1.7,.6c.3,.4,.4,.9,.3,1.5c-.1,.9,-.4,1.9,-.9,3c-.5,1,-1.2,2.1,-2,3.2c.6,.2,1.2,.5,1.5,.9c.4,.4,.8,.7,1.1,1.1c.5,.7,1,1.3,1.4,2c.4,.6,.9,1.3,1.4,2.1l-1.7,1.2c-.6,-.8,-1,-1.5,-1.5,-2.1c-.4,-.6,-.9,-1.3,-1.4,-2c-.3,-.4,-.6,-.6,-.9,-.9c-.3,-.3,-.7,-.6,-1.2,-.8c-.9,1,-1.9,2,-3.1,3c-1.2,1,-2.4,1.9,-3.6,2.7l-1.3,-1.8Zm13.2,-7.5h5.2v-9h2.3v22.6h-2.3V178.7h-5.2v-2Zm19.9,1.7c-1.1,.3,-2.2,.5,-3.1,.5h-3.1c-.8,0,-1.4,-.2,-1.9,-.6c-.4,-.4,-.6,-.9,-.6,-1.7v-8.7h2.2v3.4h7.2v-3.4h2.2V172h5.3v-4.6h2.3v9.3c0,.3,-.1,.7,-.2,1.1c0,.5,-.2,.9,-.3,1.3c-.2,.4,-.4,.8,-.7,1.2c-.3,.4,-.6,.6,-1,.9h.6c.6,0,1.1,.1,1.3,.4c.2,.3,.3,.7,.3,1.3l-.4,3.9c0,.3,-.1,.5,-.3,.6c-.2,.1,-.4,.1,-.7,.1H608.4v2.9h7.8c.8,0,1.7,-.1,2.6,-.1c.9,-.1,1.9,-.4,2.9,-.7l.4,1.7c-.8,.3,-1.7,.5,-2.7,.6c-1,.2,-2,.3,-3.1,.3h-8.4c-.6,0,-1.1,-.2,-1.3,-.5c-.3,-.3,-.4,-.7,-.4,-1.1v-4.8h13v-2.9h-13v-1.7h11.2c.7,-.6,1.2,-1.3,1.4,-2.1c.3,-.9,.4,-1.7,.4,-2.5v-2.8h-5.3v3.4c-.8,.5,-1.8,.9,-2.9,1.2Zm-6.5,-2c0,.2,.1,.4,.2,.5c.1,.1,.3,.2,.6,.2h2.6c.6,0,1.2,-.1,1.9,-.2c.7,-.2,1.3,-.4,1.9,-.7v-3.1h-7.2v3.3Z" class="g1_137"/>
<path d="M403.9,538.2v-4.7h10.3v-2.8l6.2,5.2l-6.2,5.1v-2.8Zm-.6,-5.1v5.5h10.3v3.5l7.6,-6.3l-7.6,-6.2v3.5Z" class="g2_137"/>
<path d="M607.1,538.2v-4.7h10.3v-2.8l6.2,5.2l-6.2,5.1v-2.8Zm-.5,-5.1v5.5h10.3v3.5l7.5,-6.3l-7.5,-6.2v3.5Z" class="g2_137"/>
<path d="M227.9,428.1c0,0,-3.4,0,-3.4,3.4V640.2c0,0,0,3.4,3.4,3.4H371.6c0,0,3.5,0,3.5,-3.4V431.5c0,0,0,-3.4,-3.5,-3.4Z" class="g0_137"/>
<path d="M227.9,428.1c0,0,-3.4,0,-3.4,3.4V640.2c0,0,0,3.4,3.4,3.4H371.6c0,0,3.5,0,3.5,-3.4V431.5c0,0,0,-3.4,-3.5,-3.4H227.9Z" class="g3_137"/>
<path d="M227.2,508.1H372.3V430.2H227.2v77.9Z" class="g4_137"/>
<path d="M272.9,516.8c0,0,-3.4,0,-3.4,3.5V548c0,0,0,3.4,3.4,3.4h53.7c0,0,3.5,0,3.5,-3.4V520.3c0,0,0,-3.5,-3.5,-3.5Z" class="g5_137"/>
<path d="M656.1,428.1c0,0,-3.4,0,-3.4,3.4v213c0,0,0,3.5,3.4,3.5H799.8c0,0,3.5,0,3.5,-3.5v-213c0,0,0,-3.4,-3.5,-3.4Z" class="g0_137"/>
<path d="M656.1,428.1c0,0,-3.4,0,-3.4,3.4v213c0,0,0,3.5,3.4,3.5H799.8c0,0,3.5,0,3.5,-3.5v-213c0,0,0,-3.4,-3.5,-3.4H656.1Z" class="g3_137"/>
<path d="M655.4,508.1H800.5V430.2H655.4v77.9Z" class="g4_137"/>
<path d="M701.1,518.7c0,0,-3.4,0,-3.4,3.5v27.7c0,0,0,3.5,3.4,3.5h53.7c0,0,3.5,0,3.5,-3.5V522.2c0,0,0,-3.5,-3.5,-3.5Z" class="g5_137"/>
<path d="M457.6,449.2c0,0,-8.7,0,-8.7,8.7V613.8c0,0,0,8.7,8.7,8.7H570.2c0,0,8.6,0,8.6,-8.7V457.9c0,0,0,-8.7,-8.6,-8.7Z" class="g4_137"/>
<path d="M482,460.2c0,0,-3.5,0,-3.5,3.5v27.7c0,0,0,3.5,3.5,3.5h66.7c0,0,3.5,0,3.5,-3.5V463.7c0,0,0,-3.5,-3.5,-3.5Z" class="g0_137"/>
<image clip-path="url(#c1_137)" preserveAspectRatio="none" x="192" y="699" width="156" height="155" xlink:href="img/2.png"/>
<path d="M388,732.8H362l.1,278.6h26M340,805.7h49.4m-26.9,73.6h26.8" class="g6_137"/>
<path d="M396.7,706.1c0,0,-8.6,0,-8.6,8.6v38.9c0,0,0,8.6,8.6,8.6H524.5c0,0,8.6,0,8.6,-8.6V714.7c0,0,0,-8.6,-8.6,-8.6Z" class="g4_137"/>
<path d="M396.7,779.7c0,0,-8.6,0,-8.6,8.7V823c0,0,0,8.7,8.6,8.7H524.5c0,0,8.6,0,8.6,-8.7V788.4c0,0,0,-8.7,-8.6,-8.7Z" class="g4_137"/>
<path d="M396.7,985.4c0,0,-8.6,0,-8.6,8.7v34.6c0,0,0,8.7,8.6,8.7H524.5c0,0,8.6,0,8.6,-8.7V994.1c0,0,0,-8.7,-8.6,-8.7Z" class="g4_137"/>
<path d="M531.2,879.3h26.7" class="g6_137"/>
<path d="M396.7,853.3c0,0,-8.6,0,-8.6,8.7v34.6c0,0,0,8.7,8.6,8.7H524.5c0,0,8.6,0,8.6,-8.7V862c0,0,0,-8.7,-8.6,-8.7Z" class="g4_137"/>
<path d="M583.8,839.6H558.7V971h29.4M557.9,905.3h26.8" class="g6_137"/>
<path d="M592.5,813.6c0,0,-8.7,0,-8.7,8.7v34.6c0,0,0,8.7,8.7,8.7H757c0,0,8.7,0,8.7,-8.7V822.3c0,0,0,-8.7,-8.7,-8.7Z" class="g4_137"/>
<path d="M592.5,881.5c0,0,-8.7,0,-8.7,8.6v47.7c0,0,0,8.6,8.7,8.6H757c0,0,8.7,0,8.7,-8.6V890.1c0,0,0,-8.6,-8.7,-8.6Z" class="g4_137"/>
<path d="M592.5,953.7c0,0,-8.7,0,-8.7,8.6v43.3c0,0,0,8.7,8.7,8.7H757c0,0,8.7,0,8.7,-8.7V962.3c0,0,0,-8.6,-8.7,-8.6Z" class="g4_137"/>
<path d="M153.3,126.3v22.2L165,158.7V136.5Z" class="g7_137"/>
<path d="M153.3,109.5v39H851.1c0,0,16.8,0,16.8,-16.8v-5.4c0,0,0,-16.8,-16.8,-16.8Z" class="g8_137"/>
<path d="M207.2,115.7c0,-9.1,-7.9,-16.6,-17.7,-16.6c-9.8,0,-17.7,7.5,-17.7,16.6c0,2.7,.6,5.2,1.8,7.4c1.2,2.4,2.9,4.6,5,6.2c1.2,1,1.6,1.7,1.7,4.3v.6c0,3.3,2.7,5.9,5.9,5.9h6.6c3.2,0,5.8,-2.6,5.8,-5.9v-.6c.2,-2.6,.6,-3.3,1.8,-4.3c2.1,-1.6,3.8,-3.8,5,-6.2c1.2,-2.2,1.8,-4.7,1.8,-7.4Z" class="g9_137"/>
<path d="M207.2,115.7c0,-9.1,-7.9,-16.6,-17.7,-16.6c-9.8,0,-17.7,7.5,-17.7,16.6c0,2.7,.6,5.2,1.8,7.4c1.2,2.4,2.9,4.6,5,6.2c1.2,1,1.6,1.7,1.7,4.3v.6c0,3.3,2.7,5.9,5.9,5.9h6.6c3.2,0,5.8,-2.6,5.8,-5.9v-.6c.2,-2.6,.6,-3.3,1.8,-4.3c2.1,-1.6,3.8,-3.8,5,-6.2c1.2,-2.2,1.8,-4.7,1.8,-7.4Z" class="ga_137"/>
<path d="M194.6,147.4c0,2.8,-2.3,5.1,-5.1,5.1c-2.8,0,-5.1,-2.3,-5.1,-5.1c0,-2.8,2.3,-5.1,5.1,-5.1c2.8,0,5.1,2.3,5.1,5.1Z" class="g0_137"/>
<path d="M194.6,147.4c0,2.8,-2.3,5.1,-5.1,5.1c-2.8,0,-5.1,-2.3,-5.1,-5.1c0,-2.8,2.3,-5.1,5.1,-5.1c2.8,0,5.1,2.3,5.1,5.1Z" class="ga_137"/>
<path d="M182.1,140.2c0,1,.8,1.8,1.8,1.8h11.2c1,0,1.8,-.8,1.8,-1.8v-1.3H182.1Z" class="g0_137"/>
<path d="M182.1,140.2c0,1,.8,1.8,1.8,1.8h11.2c1,0,1.8,-.8,1.8,-1.8v-1.3H182.1v1.3Z" class="ga_137"/>
<path d="M196.9,143.2c0,.8,-.6,1.3,-1.3,1.3H183.4c-.8,0,-1.3,-.5,-1.3,-1.3c0,-.7,.5,-1.3,1.3,-1.3h12.2c.7,0,1.3,.6,1.3,1.3Z" class="g0_137"/>
<path d="M196.9,143.2c0,.8,-.6,1.3,-1.3,1.3H183.4c-.8,0,-1.3,-.5,-1.3,-1.3c0,-.7,.5,-1.3,1.3,-1.3h12.2c.7,0,1.3,.6,1.3,1.3Z" class="ga_137"/>
<path d="M196.9,145.8c0,.7,-.6,1.3,-1.3,1.3H183.4c-.8,0,-1.3,-.6,-1.3,-1.3c0,-.7,.5,-1.3,1.3,-1.3h12.2c.7,0,1.3,.6,1.3,1.3Z" class="g0_137"/>
<path d="M196.9,145.8c0,.7,-.6,1.3,-1.3,1.3H183.4c-.8,0,-1.3,-.6,-1.3,-1.3c0,-.7,.5,-1.3,1.3,-1.3h12.2c.7,0,1.3,.6,1.3,1.3Z" class="ga_137"/>
<path d="M215.5,128.7l8.3,10.4c.6,.7,1.8,.6,2.7,-.2c.9,-.7,1.2,-1.9,.7,-2.6l-8.9,-10.2Z" class="gb_137"/>
<path d="M215.5,128.7l8.3,10.4c.6,.7,1.8,.6,2.7,-.2c.9,-.7,1.2,-1.9,.7,-2.6l-8.9,-10.2l-2.8,2.6Z" class="ga_137"/>
<path d="M217.5,125.1c.5,.6,.3,1.8,-.7,2.6c-.9,.7,-2.1,.8,-2.6,.2c-.6,-.7,-.3,-1.9,.6,-2.6c.9,-.8,2.1,-.9,2.7,-.2Z" class="gc_137"/>
<path d="M217.5,125.1c.5,.6,.3,1.8,-.7,2.6c-.9,.7,-2.1,.8,-2.6,.2c-.6,-.7,-.3,-1.9,.6,-2.6c.9,-.8,2.1,-.9,2.7,-.2Z" class="ga_137"/>
<path d="M212.7,124.7l1.7,2c.3,.3,1,.3,1.5,-.1c.5,-.5,.7,-1.1,.4,-1.5l-1.7,-2Z" class="g0_137"/>
<path d="M212.7,124.7l1.7,2c.3,.3,1,.3,1.5,-.1c.5,-.5,.7,-1.1,.4,-1.5l-1.7,-2l-1.9,1.6Z" class="gd_137"/>
<path d="M214.8,122.9c.4,.5,.2,1.3,-.5,1.8c-.6,.5,-1.4,.6,-1.8,.1c-.4,-.4,-.2,-1.2,.5,-1.7c.6,-.6,1.4,-.6,1.8,-.2Z" class="g0_137"/>
<path d="M214.8,122.9c.4,.5,.2,1.3,-.5,1.8c-.6,.5,-1.4,.6,-1.8,.1c-.4,-.4,-.2,-1.2,.5,-1.7c.6,-.6,1.4,-.6,1.8,-.2Z" class="gd_137"/>
<path d="M216.4,105.4c4.8,5.7,4.1,14.2,-1.7,19c-5.7,4.8,-14.2,4,-19,-1.7c-4.8,-5.7,-4,-14.2,1.7,-19c5.7,-4.8,14.2,-4.1,19,1.7Z" class="g0_137"/>
<path d="M216.4,105.4c4.8,5.7,4.1,14.2,-1.7,19c-5.7,4.8,-14.2,4,-19,-1.7c-4.8,-5.7,-4,-14.2,1.7,-19c5.7,-4.8,14.2,-4.1,19,1.7Z" class="ga_137"/>
<path d="M214,107.4c3.5,4.2,3,10.5,-1.3,14.1c-4.2,3.5,-10.5,2.9,-14,-1.3c-3.5,-4.2,-3,-10.5,1.2,-14c4.2,-3.6,10.5,-3,14.1,1.2Z" class="ge_137"/>
<path d="M214,107.4c3.5,4.2,3,10.5,-1.3,14.1c-4.2,3.5,-10.5,2.9,-14,-1.3c-3.5,-4.2,-3,-10.5,1.2,-14c4.2,-3.6,10.5,-3,14.1,1.2Z" class="ga_137"/>
<path d="M213,110.6l-3.1,3m3.1,-.4l-3.1,3" class="gf_137"/>
<path d="M172.1,99l3.1,3.3m1.1,-5.9l1.2,3.9m-8.1,3l3.7,1.2" class="gg_137"/>
<path d="M185.8,106.1c1.2,1.2,.2,4.3,-2.2,6.7c-2.5,2.5,-5.5,3.5,-6.8,2.3c-1.2,-1.3,-.3,-4.3,2.2,-6.8c2.5,-2.5,5.5,-3.5,6.8,-2.2Z" class="g0_137"/>
<path d="M203.7,107.6c.6,.6,.1,1.9,-.9,3c-1.1,1,-2.4,1.5,-3,.9c-.5,-.5,-.1,-1.8,1,-2.9c1.1,-1.1,2.4,-1.5,2.9,-1Z" class="g0_137"/>
<path d="M32.1,45.1H9.2m958.3,0h22.9M32.1,1331.3H9.2m958.3,0h22.9M45.1,32.1V9.2m0,1335.1v22.9M954.5,32.1V9.2m0,1335.1v22.9" class="gh_137"/>
<path d="M32.1,45.1H9.2m958.3,0h22.9M32.1,1331.3H9.2m958.3,0h22.9M45.1,32.1V9.2m0,1335.1v22.9M954.5,32.1V9.2m0,1335.1v22.9" class="gi_137"/>
<path d="M27.5,32.1H0m972.1,0h27.5M27.5,1344.3H0m972.1,0h27.5M32.1,27.5V0m0,1348.9v27.5M967.5,27.5V0m0,1348.9v27.5" class="gh_137"/>
<path d="M27.5,32.1H0m972.1,0h27.5M27.5,1344.3H0m972.1,0h27.5M32.1,27.5V0m0,1348.9v27.5M967.5,27.5V0m0,1348.9v27.5" class="gi_137"/>
</svg>