<?xml version="1.0" encoding="UTF-8" standalone="no"?>
<!DOCTYPE svg PUBLIC "-//W3C//DTD SVG 1.1//EN"
"http://www.w3.org/Graphics/SVG/1.1/DTD/svg11.dtd">
<svg viewBox="0 0 999 1376" version="1.1" xmlns="http://www.w3.org/2000/svg" xmlns:xlink="http://www.w3.org/1999/xlink">
<defs>
<clipPath id="c0_208"><path d="M211.6,611.7V468.9H427V611.7Z"/></clipPath>
<clipPath id="c1_208"><path d="M680.5,650.3V569.7c2.3,-1.4,4.4,-2.9,6.3,-4.5h80.7v85.1Z"/></clipPath>
<clipPath id="c2_208"><path d="M680.5,569.1v-3.9h5.4c-1.7,1.3,-3.5,2.6,-5.4,3.9Z"/></clipPath>
<clipPath id="c3_208"><path d="M680.5,569.7v-.6c1.9,-1.3,3.7,-2.6,5.4,-3.9h.9c-1.9,1.6,-4,3.1,-6.3,4.5Z"/></clipPath>
<clipPath id="c4_208"><path d="M680.5,867.2V782.1h87v85.1Z"/></clipPath>
<clipPath id="c5_208"><path d="M680.5,1090.2v-85.1h87v85.1Z"/></clipPath>
<clipPath id="c6_208"><path d="M213.6,835.7V687.1H433.8V835.7Z"/></clipPath>
<clipPath id="c7_208"><path d="M214.7,1058.7V910.1H386.4v148.6Z"/></clipPath>
<clipPath id="c8_208"><path d="M449.5,432.7l-1.1,-40.6L281.1,389.7V265.9H787.8V432.7Z"/></clipPath>
<style type="text/css"><![CDATA[
.g0_208{
fill: none;
stroke: #6381B7;
stroke-width: 0.763;
}
.g1_208{
fill: #48484A;
}
.g2_208{
fill: #F0E8F3;
}
.g3_208{
fill: #FFF;
}
.g4_208{
fill: #949698;
}
.g5_208{
fill: none;
stroke: #949698;
stroke-width: 0.557;
}
.g6_208{
fill: #6381B7;
}
.g7_208{
fill: none;
stroke: #6381B7;
stroke-width: 0.381;
stroke-dasharray: 2,1;
}
.g8_208{
fill: none;
stroke: #6381B7;
stroke-width: 0.381;
}
.g9_208{
fill: #766FA6;
}
.ga_208{
fill: #25408F;
}
.gb_208{
fill: #F37553;
}
.gc_208{
fill: #363637;
}
.gd_208{
fill: #EAD646;
}
.ge_208{
fill: #506CB4;
}
.gf_208{
fill: #5CC4BE;
}
.gg_208{
fill: none;
stroke: #FFF;
stroke-width: 1.909;
stroke-miterlimit: 10;
}
.gh_208{
fill: none;
stroke: #000;
stroke-width: 0.381;
stroke-miterlimit: 10;
}
]]></style>
</defs>
<path d="M145.1,164.9c0,0,-13,0,-13,13v950.6c0,0,0,12.9,13,12.9H832.9c0,0,13,0,13,-12.9V177.9c0,0,0,-13,-13,-13H145.1Z" class="g0_208"/>
<path d="M171.3,244.8c0,0,-4.3,0,-4.3,4.4v14.4c0,0,0,4.3,4.1,5.7l52.4,18.3c0,0,4.1,1.4,4.1,-2.9V249.2c0,0,0,-4.4,-4.3,-4.4Z" class="g1_208"/>
<path d="M192.5,232.1c0,0,-13,0,-13,12.9V445.7c0,0,0,13,13,13H790.1c0,0,13,0,13,-13V245c0,0,0,-12.9,-13,-12.9Z" class="g2_208"/>
<image clip-path="url(#c0_208)" preserveAspectRatio="none" x="212" y="461" width="216" height="152" xlink:href="img/1.jpg"/>
<path d="M481.8,537.7c0,-29.4,49.4,-53.2,110.3,-53.2c60.9,0,110.3,23.8,110.3,53.2c0,18.7,-20.2,35.2,-50.6,44.6c5.5,5.2,14,12.7,20.4,15.3c0,0,-25.6,-2.3,-40.5,-10.3c-12.3,2.2,-25.6,3.5,-39.6,3.5C531.2,590.8,481.8,567,481.8,537.7Z" class="g3_208"/>
<path d="M481.8,537.7h-.2c0,-14.9,12.4,-28.3,32.4,-37.9c20,-9.6,47.6,-15.6,78.1,-15.6c30.5,0,58.1,6,78.1,15.6c20,9.6,32.4,23,32.4,37.9c0,9.4,-5.1,18.3,-13.9,26c-8.9,7.7,-21.6,14.2,-36.9,18.9v-.3l.2,-.2c5.4,5.2,14,12.7,20.3,15.3l-.2,.5c0,0,-25.5,-2.3,-40.5,-10.4l.1,-.2l.1,.2c-12.3,2.3,-25.7,3.6,-39.7,3.6c-30.5,0,-58.1,-6,-78.1,-15.6c-20,-9.7,-32.4,-23,-32.4,-37.8h.5c0,14.5,12.2,27.7,32.2,37.3c19.9,9.6,47.4,15.5,77.8,15.5c14,0,27.3,-1.2,39.6,-3.5h.2c7.4,4,17.5,6.6,25.7,8.2c4.1,.8,7.8,1.3,10.4,1.7c2.6,.3,4.2,.5,4.2,.5v.2l-.1,.3c-6.5,-2.6,-15,-10.1,-20.5,-15.4l-.4,-.3l.5,-.1c15.2,-4.7,27.8,-11.2,36.6,-18.8c8.8,-7.6,13.8,-16.4,13.8,-25.6c0,-14.6,-12.2,-27.8,-32.2,-37.4C650,490.7,622.5,484.8,592.1,484.8c-30.4,0,-57.9,5.9,-77.8,15.5c-20,9.6,-32.2,22.8,-32.2,37.4h-.3Z" class="g4_208"/>
<image clip-path="url(#c1_208)" preserveAspectRatio="none" x="680" y="565" width="88" height="86" xlink:href="img/2.jpg"/>
<image clip-path="url(#c2_208)" preserveAspectRatio="none" x="680" y="565" width="6" height="5" xlink:href="img/3.jpg"/>
<image clip-path="url(#c3_208)" preserveAspectRatio="none" x="680" y="565" width="8" height="5" xlink:href="img/4.jpg"/>
<image clip-path="url(#c4_208)" preserveAspectRatio="none" x="680" y="781" width="88" height="87" xlink:href="img/5.jpg"/>
<image clip-path="url(#c5_208)" preserveAspectRatio="none" x="680" y="1005" width="88" height="86" xlink:href="img/6.jpg"/>
<image clip-path="url(#c6_208)" preserveAspectRatio="none" x="214" y="685" width="221" height="152" xlink:href="img/7.jpg"/>
<path d="M481.8,760.5c0,-29.3,49.4,-53.1,110.3,-53.1c60.9,0,110.3,23.8,110.3,53.1c0,18.8,-20.2,35.3,-50.6,44.7c5.5,5.2,14,12.7,20.4,15.3c0,0,-25.6,-2.3,-40.5,-10.4c-12.3,2.3,-25.6,3.6,-39.6,3.6c-60.9,0,-110.3,-23.8,-110.3,-53.2Z" class="g3_208"/>
<path d="M481.8,760.5c0,-29.3,49.4,-53.1,110.3,-53.1c60.9,0,110.3,23.8,110.3,53.1c0,18.8,-20.2,35.3,-50.6,44.7c5.5,5.2,14,12.7,20.4,15.3c0,0,-25.6,-2.3,-40.5,-10.4c-12.3,2.3,-25.6,3.6,-39.6,3.6c-60.9,0,-110.3,-23.8,-110.3,-53.2Z" class="g5_208"/>
<image clip-path="url(#c7_208)" preserveAspectRatio="none" x="213" y="908" width="174" height="152" xlink:href="img/8.jpg"/>
<path d="M481.8,983.6c0,-29.4,49.4,-53.2,110.3,-53.2c60.9,0,110.3,23.8,110.3,53.2c0,18.7,-20.2,35.2,-50.6,44.7c5.5,5.2,14,12.7,20.4,15.3c0,0,-25.6,-2.3,-40.5,-10.4c-12.3,2.3,-25.6,3.5,-39.6,3.5c-60.9,0,-110.3,-23.8,-110.3,-53.1Z" class="g3_208"/>
<path d="M481.8,983.6c0,-29.4,49.4,-53.2,110.3,-53.2c60.9,0,110.3,23.8,110.3,53.2c0,18.7,-20.2,35.2,-50.6,44.7c5.5,5.2,14,12.7,20.4,15.3c0,0,-25.6,-2.3,-40.5,-10.4c-12.3,2.3,-25.6,3.5,-39.6,3.5c-60.9,0,-110.3,-23.8,-110.3,-53.1Z" class="g5_208"/>
<path d="M197.1,676.5H457V618.9H197.1v57.6Z" class="g3_208"/>
<path d="M212.9,1118H457v-53.5H212.9V1118Z" class="g3_208"/>
<path d="M212.9,880.9H472.7v-52H212.9v52Z" class="g3_208"/>
<image clip-path="url(#c8_208)" preserveAspectRatio="none" x="279" y="264" width="510" height="170" xlink:href="img/9.jpg"/>
<path d="M475.1,354.7H657V294.1H475.1v60.6Z" class="g3_208"/>
<path d="M504.8,1164c0,0,-4.3,0,-4.3,4.4v10.8c0,0,0,4.3,4.3,4.3h30.3c0,0,4.4,0,4.4,-4.3v-10.8c0,0,0,-4.4,-4.4,-4.4Z" class="g6_208"/>
<path d="M491.6,1156.5v76.3m1.4,.9H845.1m1,-1.3v-76.3m-1.4,-.9H492.6" class="g7_208"/>
<path d="M491.6,1233.2v.5h.6m353.3,0h.6v-.5m0,-77.4v-.6h-.6m-353.3,0h-.6v.6" class="g8_208"/>
<path d="M171.5,242.7c0,0,-4.5,0,-4.5,4.3v17c0,0,0,4.3,4.5,4.3h30c0,0,4.5,0,4.5,-4.3V247c0,0,0,-4.3,-4.5,-4.3Z" class="g9_208"/>
<path d="M132.2,126.3v22.2l11.7,10.2V136.5Z" class="ga_208"/>
<path d="M132.2,109.5v39H829.9c0,0,16.9,0,16.9,-16.8v-5.4c0,0,0,-16.8,-16.9,-16.8Z" class="g6_208"/>
<path d="M166,111.6c.7,-.6,1.7,-.8,2.5,-.6l1.3,-1.3l-6.2,-6.1l-6.1,6.1l-1.3,-1.3c.2,-.8,0,-1.8,-.6,-2.4c-1,-1,-2.6,-1,-3.6,0c-1,1,-1,2.6,0,3.6c.6,.6,1.6,.9,2.4,.6l1.3,1.3l-6.1,6.1l6.1,6.2l-1.3,1.3c-.8,-.3,-1.8,-.1,-2.4,.6c-1,1,-1,2.6,0,3.6c1,1,2.6,1,3.6,0c.6,-.7,.9,-1.6,.6,-2.4l1.3,-1.3l6.1,6.1l6.2,-6.1l-1.3,-1.3c-.9,.2,-1.8,0,-2.5,-.7c-1,-1,-1,-2.6,0,-3.6c1,-1,2.6,-1,3.6,0c.7,.7,.9,1.6,.7,2.5l1.3,1.3l6.1,-6.2l-6.1,-6.1l-1.3,1.3c.2,.8,0,1.8,-.7,2.4c-1,1,-2.6,1,-3.6,0c-1,-.9,-1,-2.6,0,-3.6Z" class="gb_208"/>
<path d="M163.6,132.3l-6.1,-6.2l-.8,.9c.1,.9,-.2,1.9,-.8,2.6c-1.2,1.1,-3.1,1.1,-4.2,0c-1.2,-1.2,-1.2,-3,0,-4.2c.7,-.7,1.6,-1,2.6,-.8l.8,-.8L149,117.6l6.1,-6.1l-.8,-.8c-1,.1,-1.9,-.2,-2.6,-.8c-.6,-.6,-.9,-1.3,-.9,-2.1c0,-.8,.3,-1.5,.9,-2.1c1.1,-1.1,3,-1.1,4.1,0c.7,.7,1,1.7,.9,2.6l.8,.8l6.1,-6.1l6.7,6.7l-1.7,1.7h-.2c-.7,-.2,-1.5,0,-2.1,.5c-.8,.9,-.8,2.2,0,3.1c.9,.8,2.2,.8,3.1,0c.5,-.6,.7,-1.4,.5,-2.1v-.2l1.7,-1.7l6.7,6.6l-6.7,6.7l-1.8,-1.7l.1,-.2c.2,-.8,0,-1.5,-.6,-2.1c-.4,-.4,-.9,-.6,-1.5,-.6c-.5,0,-1.1,.2,-1.5,.6c-.8,.8,-.8,2.2,0,3c.5,.6,1.3,.8,2.1,.6l.2,-.1l1.7,1.8ZM157.5,125l6.1,6.1l5.6,-5.5l-.8,-.9c-1,.2,-2,-.1,-2.7,-.8c-.5,-.5,-.8,-1.3,-.8,-2.1c0,-.7,.3,-1.5,.8,-2c.6,-.6,1.3,-.9,2.1,-.9c.8,0,1.6,.3,2.1,.9c.7,.6,1,1.6,.8,2.6l.9,.8l5.5,-5.6l-5.5,-5.5l-.9,.8c.2,1,-.1,1.9,-.8,2.6c-1.1,1.2,-3,1.2,-4.1,0c-1.2,-1.1,-1.2,-3,0,-4.1c.6,-.7,1.6,-1,2.6,-.8l.8,-.9l-5.6,-5.6l-6.1,6.2l-1.7,-1.7v-.3c.2,-.7,0,-1.5,-.5,-2c-.9,-.9,-2.2,-.9,-3.1,0c-.4,.4,-.6,.9,-.6,1.5c0,.6,.2,1.1,.6,1.5c.6,.5,1.4,.8,2.1,.6l.2,-.1l1.8,1.7l-6.2,6.1l6.2,6.2l-1.8,1.7l-.2,-.1c-.7,-.2,-1.5,.1,-2,.6c-.9,.8,-.9,2.2,0,3c.8,.9,2.2,.9,3,0c.5,-.5,.7,-1.3,.5,-2v-.3Z" class="gc_208"/>
<path d="M196.6,122.1c.9,0,1.8,.5,2.2,1.3h1.8v-8.7h-8.7v-1.8c.8,-.4,1.3,-1.2,1.3,-2.2c0,-1.4,-1.1,-2.5,-2.5,-2.5c-1.5,0,-2.6,1.1,-2.6,2.5c0,1,.5,1.8,1.3,2.2v1.8h-8.7v8.7h-1.8c-.4,-.8,-1.2,-1.3,-2.2,-1.3c-1.4,0,-2.5,1.2,-2.5,2.6c0,1.4,1.1,2.5,2.5,2.5c1,0,1.8,-.5,2.2,-1.2h1.8v8.6h8.7v-1.8c-.8,-.4,-1.3,-1.2,-1.3,-2.2c0,-1.4,1.2,-2.5,2.6,-2.5c1.4,0,2.5,1.1,2.5,2.5c0,1,-.5,1.8,-1.3,2.2v1.8h8.7V126h-1.8c-.4,.7,-1.2,1.2,-2.2,1.2c-1.4,0,-2.5,-1.1,-2.5,-2.5c0,-1.4,1.1,-2.6,2.5,-2.6Z" class="gd_208"/>
<path d="M201,135h-9.5v-2.4l.2,-.1c.7,-.4,1.1,-1.1,1.1,-1.9c0,-1.2,-1,-2.1,-2.1,-2.1c-1.2,0,-2.2,.9,-2.2,2.1c0,.8,.4,1.5,1.1,1.9l.2,.1V135h-9.5v-8.6h-1.2c-.5,.7,-1.4,1.2,-2.4,1.2c-1.6,0,-2.9,-1.3,-2.9,-2.9c0,-1.6,1.3,-3,2.9,-3c1,0,1.9,.5,2.4,1.3h1.2v-8.7H189v-1.1c-.8,-.6,-1.3,-1.5,-1.3,-2.5c0,-1.6,1.3,-2.9,3,-2.9c1.6,0,2.9,1.3,2.9,2.9c0,1,-.5,1.9,-1.3,2.5v1.1H201v9.5h-2.4l-.1,-.2c-.4,-.6,-1.1,-1.1,-1.9,-1.1c-.6,0,-1.1,.3,-1.5,.7c-.4,.4,-.6,.9,-.6,1.5c0,1.2,.9,2.1,2.1,2.1c.8,0,1.5,-.4,1.9,-1l.1,-.2H201Zm-8.7,-.8h7.9v-7.8H199c-.5,.7,-1.4,1.2,-2.4,1.2c-1.6,0,-2.9,-1.3,-2.9,-2.9c0,-.8,.3,-1.5,.8,-2.1c.6,-.5,1.3,-.9,2.1,-.9c1,0,1.9,.5,2.4,1.3h1.2v-7.9h-8.7v-2.4l.2,-.1c.7,-.4,1.1,-1.1,1.1,-1.9c0,-1.2,-1,-2.1,-2.1,-2.1c-1.2,0,-2.2,.9,-2.2,2.1c0,.8,.4,1.5,1.1,1.9l.2,.1v2.4h-8.7v8.7h-2.4l-.1,-.2c-.4,-.6,-1.1,-1.1,-1.9,-1.1c-1.2,0,-2.1,1,-2.1,2.2c0,1.2,.9,2.1,2.1,2.1c.8,0,1.5,-.4,1.9,-1l.1,-.2h2.4v8.6H189V133c-.8,-.5,-1.3,-1.4,-1.3,-2.4c0,-1.6,1.3,-2.9,3,-2.9c1.6,0,2.9,1.3,2.9,2.9c0,1,-.5,1.9,-1.3,2.4Z" class="gc_208"/>
<path d="M176.7,142c1,0,1.8,.5,2.2,1.3h1.8v-8.7H172v-1.8c.8,-.4,1.3,-1.2,1.3,-2.2c0,-1.4,-1.1,-2.5,-2.5,-2.5c-1.4,0,-2.6,1.1,-2.6,2.5c0,1,.5,1.8,1.3,2.2v1.8h-8.7v8.7H159c-.4,-.8,-1.2,-1.3,-2.2,-1.3c-1.4,0,-2.5,1.2,-2.5,2.6c0,1.4,1.1,2.5,2.5,2.5c1,0,1.8,-.5,2.2,-1.2h1.8v8.6h8.7v-1.8c-.8,-.4,-1.3,-1.2,-1.3,-2.2c0,-1.4,1.2,-2.5,2.6,-2.5c1.4,0,2.5,1.1,2.5,2.5c0,1,-.5,1.8,-1.3,2.2v1.8h8.7v-8.7h-1.8c-.4,.8,-1.2,1.3,-2.2,1.3c-1.4,0,-2.5,-1.1,-2.5,-2.5c0,-1.4,1.1,-2.6,2.5,-2.6Z" class="ge_208"/>
<path d="M181.1,154.9h-9.5v-2.4l.2,-.1c.7,-.4,1.1,-1.1,1.1,-1.9c0,-1.2,-1,-2.1,-2.1,-2.1c-1.2,0,-2.2,.9,-2.2,2.1c0,.8,.4,1.5,1.1,1.9l.2,.1v2.4h-9.5v-8.6h-1.2c-.5,.7,-1.4,1.2,-2.4,1.2c-1.6,0,-2.9,-1.3,-2.9,-2.9c0,-1.6,1.3,-3,2.9,-3c1,0,1.9,.5,2.4,1.3h1.2v-8.7h8.7V133c-.8,-.5,-1.3,-1.4,-1.3,-2.4c0,-1.6,1.3,-2.9,3,-2.9c1.6,0,2.9,1.3,2.9,2.9c0,1,-.5,1.9,-1.3,2.4v1.2h8.7v9.5h-2.4l-.1,-.2c-.4,-.7,-1.1,-1.1,-1.9,-1.1c-1.2,0,-2.1,1,-2.1,2.2c0,1.1,.9,2.1,2.1,2.1c.8,0,1.5,-.4,1.9,-1.1l.1,-.2h2.4Zm-8.7,-.8h7.9v-7.9h-1.2c-.5,.8,-1.4,1.3,-2.4,1.3c-1.6,0,-2.9,-1.3,-2.9,-2.9c0,-1.6,1.3,-3,2.9,-3c1,0,1.9,.5,2.4,1.3h1.2V135h-8.7v-2.4l.2,-.1c.7,-.4,1.1,-1.1,1.1,-1.9c0,-1.2,-1,-2.1,-2.1,-2.1c-1.2,0,-2.2,.9,-2.2,2.1c0,.8,.4,1.5,1.1,1.9l.2,.1V135h-8.7v8.7h-2.4l-.1,-.2c-.4,-.7,-1.1,-1.1,-1.9,-1.1c-1.2,0,-2.1,1,-2.1,2.2c0,1.2,.9,2.1,2.1,2.1c.8,0,1.5,-.4,1.9,-1l.1,-.2h2.4v8.6h7.9v-1.2c-.8,-.5,-1.3,-1.4,-1.3,-2.4c0,-1.6,1.3,-2.9,3,-2.9c1.6,0,2.9,1.3,2.9,2.9c0,1,-.5,1.9,-1.3,2.4Z" class="gc_208"/>
<path d="M196.6,142c.9,0,1.8,.5,2.2,1.3h1.8v-8.7h-8.7v-1.8c.8,-.4,1.3,-1.2,1.3,-2.2c0,-1.4,-1.1,-2.5,-2.5,-2.5c-1.5,0,-2.6,1.1,-2.6,2.5c0,1,.5,1.8,1.3,2.2v1.8h-8.7v8.7h-1.8c-.4,-.8,-1.2,-1.3,-2.2,-1.3c-1.4,0,-2.5,1.2,-2.5,2.6c0,1.4,1.1,2.5,2.5,2.5c1,0,1.8,-.5,2.2,-1.2h1.8v8.6h8.7v-1.8c-.8,-.4,-1.3,-1.2,-1.3,-2.2c0,-1.4,1.2,-2.5,2.6,-2.5c1.4,0,2.5,1.1,2.5,2.5c0,1,-.5,1.8,-1.3,2.2v1.8h8.7v-8.7h-1.8c-.4,.8,-1.2,1.3,-2.2,1.3c-1.4,0,-2.5,-1.1,-2.5,-2.5c0,-1.4,1.1,-2.6,2.5,-2.6Z" class="gf_208"/>
<path d="M201,154.9h-9.5v-2.4l.2,-.1c.7,-.4,1.1,-1.1,1.1,-1.9c0,-1.2,-1,-2.1,-2.1,-2.1c-1.2,0,-2.2,.9,-2.2,2.1c0,.8,.4,1.5,1.1,1.9l.2,.1v2.4h-9.5v-8.6h-1.2c-.5,.7,-1.4,1.2,-2.4,1.2c-1.6,0,-2.9,-1.3,-2.9,-2.9c0,-1.6,1.3,-3,2.9,-3c1,0,1.9,.5,2.4,1.3h1.2v-8.7H189V133c-.8,-.5,-1.3,-1.4,-1.3,-2.4c0,-1.6,1.3,-2.9,3,-2.9c1.6,0,2.9,1.3,2.9,2.9c0,1,-.5,1.9,-1.3,2.4v1.2H201v9.5h-2.4l-.1,-.2c-.4,-.7,-1.1,-1.1,-1.9,-1.1c-.6,0,-1.1,.3,-1.5,.7c-.4,.4,-.6,.9,-.6,1.5c0,1.1,.9,2.1,2.1,2.1c.8,0,1.5,-.4,1.9,-1.1l.1,-.2H201Zm-8.7,-.8h7.9v-7.9H199c-.5,.8,-1.4,1.3,-2.4,1.3c-1.6,0,-2.9,-1.3,-2.9,-2.9c0,-.8,.3,-1.5,.8,-2.1c.6,-.6,1.3,-.9,2.1,-.9c1,0,1.9,.5,2.4,1.3h1.2V135h-8.7v-2.4l.2,-.1c.7,-.4,1.1,-1.1,1.1,-1.9c0,-1.2,-1,-2.1,-2.1,-2.1c-1.2,0,-2.2,.9,-2.2,2.1c0,.8,.4,1.5,1.1,1.9l.2,.1V135h-8.7v8.7h-2.4l-.1,-.2c-.4,-.7,-1.1,-1.1,-1.9,-1.1c-1.2,0,-2.1,1,-2.1,2.2c0,1.2,.9,2.1,2.1,2.1c.8,0,1.5,-.4,1.9,-1l.1,-.2h2.4v8.6H189v-1.2c-.8,-.5,-1.3,-1.4,-1.3,-2.4c0,-1.6,1.3,-2.9,3,-2.9c1.6,0,2.9,1.3,2.9,2.9c0,1,-.5,1.9,-1.3,2.4Z" class="gc_208"/>
<path d="M32.1,45.1H9.2m958.3,0h22.9M32.1,1331.3H9.2m958.3,0h22.9M45.1,32.1V9.2m0,1335.1v22.9M954.5,32.1V9.2m0,1335.1v22.9" class="gg_208"/>
<path d="M32.1,45.1H9.2m958.3,0h22.9M32.1,1331.3H9.2m958.3,0h22.9M45.1,32.1V9.2m0,1335.1v22.9M954.5,32.1V9.2m0,1335.1v22.9" class="gh_208"/>
<path d="M27.5,32.1H0m972.1,0h27.5M27.5,1344.3H0m972.1,0h27.5M32.1,27.5V0m0,1348.9v27.5M967.5,27.5V0m0,1348.9v27.5" class="gg_208"/>
<path d="M27.5,32.1H0m972.1,0h27.5M27.5,1344.3H0m972.1,0h27.5M32.1,27.5V0m0,1348.9v27.5M967.5,27.5V0m0,1348.9v27.5" class="gh_208"/>
</svg>