<?xml version="1.0" encoding="UTF-8" standalone="no"?>
<!DOCTYPE svg PUBLIC "-//W3C//DTD SVG 1.1//EN"
"http://www.w3.org/Graphics/SVG/1.1/DTD/svg11.dtd">
<svg viewBox="0 0 999 1376" version="1.1" xmlns="http://www.w3.org/2000/svg" xmlns:xlink="http://www.w3.org/1999/xlink">
<defs>
<clipPath id="c0_170"><path d="M211.2,354.7V255.4h99.3v99.3Z"/></clipPath>
<clipPath id="c1_170"><path d="M211.2,515.5V416.3h99.3v99.2Z"/></clipPath>
<clipPath id="c2_170"><path d="M202.6,676.5V577.3h99.2v99.2Z"/></clipPath>
<clipPath id="c3_170"><path d="M510.6,676.3V577.1H631.4v99.2Z"/></clipPath>
<clipPath id="c4_170"><path d="M670.5,676.3V577.1H795.7v99.2Z"/></clipPath>
<clipPath id="c5_170"><path d="M186.8,1052.9V949.3H290.5v103.6Z"/></clipPath>
<clipPath id="c6_170"><path d="M316.1,1052.9V949.3H419.7v103.6Z"/></clipPath>
<clipPath id="c7_170"><path d="M445.3,1052.9V949.3H548.9v103.6Z"/></clipPath>
<clipPath id="c8_170"><path d="M574.5,1053.8V950.2H678.1v103.6Z"/></clipPath>
<clipPath id="c9_170"><path d="M703.7,1053.8V950.2H807.3v103.6Z"/></clipPath>
<clipPath id="ca_170"><path d="M176.6,236.4l-6.5,-2.1L153.7,220.4V163.3h72v73.1Z"/></clipPath>
<clipPath id="cb_170"><path d="M179,852.8l-6.5,-2.1L156.2,836.8V779.7h71.9v73.1Z"/></clipPath>
<style type="text/css"><![CDATA[
.g0_170{
fill: #FEFCF4;
}
.g1_170{
fill: #FFF;
}
.g2_170{
fill: none;
stroke: #6381B7;
stroke-width: 0.763;
}
.g3_170{
fill: #48484A;
}
.g4_170{
fill: #F0E8F3;
}
.g5_170{
fill: #766FA6;
}
.g6_170{
fill: none;
stroke: #949698;
stroke-width: 0.381;
}
.g7_170{
fill: none;
stroke: #231F20;
stroke-width: 0.611;
}
.g8_170{
fill: #6381B7;
}
.g9_170{
fill: none;
stroke: #6381B7;
stroke-width: 0.381;
stroke-dasharray: 2,1;
}
.ga_170{
fill: none;
stroke: #6381B7;
stroke-width: 0.381;
}
.gb_170{
fill: #FCE8B0;
}
.gc_170{
fill: #25408F;
}
.gd_170{
fill: #00BAF1;
}
.ge_170{
fill: #332D2C;
}
.gf_170{
fill: #D9DFF0;
}
.gg_170{
fill: #F27C85;
}
.gh_170{
fill: #7DD3F6;
}
.gi_170{
fill: none;
stroke: #FFF;
stroke-width: 1.909;
stroke-miterlimit: 10;
}
.gj_170{
fill: none;
stroke: #000;
stroke-width: 0.381;
stroke-miterlimit: 10;
}
]]></style>
</defs>
<path d="M32.1,1344.3H954.5V32.1H32.1V1344.3Z" class="g0_170"/>
<path d="M149.4,867.2c0,0,-18.3,0,-18.3,18.3v283.7c0,0,0,18.3,18.3,18.3H827.5c0,0,18.4,0,18.4,-18.3V885.5c0,0,0,-18.3,-18.4,-18.3Z" class="g1_170"/>
<path d="M149.4,867.2c0,0,-18.3,0,-18.3,18.3v283.7c0,0,0,18.3,18.3,18.3H827.5c0,0,18.4,0,18.4,-18.3V885.5c0,0,0,-18.3,-18.4,-18.3H149.4Z" class="g2_170"/>
<path d="M189.5,1123c0,0,-4.3,0,-4.3,4.3v14.4c0,0,0,4.4,4,5.8l52.5,18.2c0,0,4.1,1.5,4.1,-2.9v-35.5c0,0,0,-4.3,-4.3,-4.3Z" class="g3_170"/>
<path d="M210.6,1110.2c0,0,-13,0,-13,13v30.3c0,0,0,13,13,13H808.3c0,0,13,0,13,-13v-30.3c0,0,0,-13,-13,-13Z" class="g4_170"/>
<path d="M189.5,1120.9c0,0,-4.3,0,-4.3,4.3v16.9c0,0,0,4.4,4.3,4.4h37.3c0,0,4.3,0,4.3,-4.4v-16.9c0,0,0,-4.3,-4.3,-4.3Z" class="g5_170"/>
<path d="M150.4,134.7c0,0,-18.3,0,-18.3,18.4V720.6c0,0,0,18.3,18.3,18.3H827.5c0,0,18.4,0,18.4,-18.3V134.7Z" class="g1_170"/>
<path d="M150.4,134.7c0,0,-18.3,0,-18.3,18.4V720.6c0,0,0,18.3,18.3,18.3H827.5c0,0,18.4,0,18.4,-18.3V134.7H150.4Z" class="g2_170"/>
<path d="M187.4,354.7H334.3V255.4H187.4v99.3Z" class="g1_170"/>
<image clip-path="url(#c0_170)" preserveAspectRatio="none" x="211" y="255" width="99" height="100" xlink:href="img/1.jpg"/>
<path d="M187.4,354.7H334.3V255.4H187.4v99.3Z" class="g6_170"/>
<path d="M419.6,354.7H566.5V255.4H419.6v99.3Z" class="g1_170"/>
<image preserveAspectRatio="none" x="443" y="255" width="100" height="100" xlink:href="img/2.jpg"/>
<path d="M419.6,354.7H566.5V255.4H419.6v99.3Z" class="g6_170"/>
<path d="M651.9,354.7H798.7V255.4H651.9v99.3Z" class="g1_170"/>
<image preserveAspectRatio="none" x="676" y="255" width="99" height="100" xlink:href="img/3.jpg"/>
<path d="M651.9,354.7H798.7V255.4H651.9v99.3Z" class="g6_170"/>
<path d="M187.4,515.5H334.3V416.3H187.4v99.2Z" class="g1_170"/>
<image clip-path="url(#c1_170)" preserveAspectRatio="none" x="211" y="416" width="99" height="99" xlink:href="img/4.jpg"/>
<path d="M187.4,515.5H334.3V416.3H187.4v99.2Z" class="g6_170"/>
<path d="M419.6,515.5H566.5V416.3H419.6v99.2Z" class="g1_170"/>
<image preserveAspectRatio="none" x="443" y="416" width="100" height="99" xlink:href="img/5.jpg"/>
<path d="M419.6,515.5H566.5V416.3H419.6v99.2Z" class="g6_170"/>
<path d="M651.9,515.5H798.7V416.3H651.9v99.2Z" class="g1_170"/>
<image preserveAspectRatio="none" x="676" y="416" width="99" height="99" xlink:href="img/6.jpg"/>
<path d="M651.9,515.5H798.7V416.3H651.9v99.2Z" class="g6_170"/>
<path d="M187.4,676.5H317V577.3H187.4v99.2Z" class="g1_170"/>
<image clip-path="url(#c2_170)" preserveAspectRatio="none" x="203" y="577" width="99" height="100" xlink:href="img/7.jpg"/>
<path d="M187.4,676.5H317V577.3H187.4v99.2Z" class="g6_170"/>
<path d="M347.9,676.3H477.4V577.1H347.9v99.2Z" class="g1_170"/>
<image preserveAspectRatio="none" x="363" y="577" width="99" height="99" xlink:href="img/8.jpg"/>
<path d="M347.9,676.3H477.4V577.1H347.9v99.2Z" class="g6_170"/>
<path d="M508.4,676.3H637.9V577.1H508.4v99.2Z" class="g1_170"/>
<image clip-path="url(#c3_170)" preserveAspectRatio="none" x="511" y="575" width="120" height="103" xlink:href="img/9.jpg"/>
<path d="M508.4,676.3H637.9V577.1H508.4v99.2Z" class="g6_170"/>
<path d="M668.9,676.3H798.4V577.1H668.9v99.2Z" class="g1_170"/>
<image clip-path="url(#c4_170)" preserveAspectRatio="none" x="671" y="577" width="125" height="101" xlink:href="img/10.jpg"/>
<path d="M668.9,676.3H798.4V577.1H668.9v99.2Z" class="g6_170"/>
<image clip-path="url(#c5_170)" preserveAspectRatio="none" x="187" y="949" width="104" height="104" xlink:href="img/11.jpg"/>
<image clip-path="url(#c6_170)" preserveAspectRatio="none" x="316" y="949" width="104" height="104" xlink:href="img/12.jpg"/>
<image clip-path="url(#c7_170)" preserveAspectRatio="none" x="445" y="949" width="104" height="104" xlink:href="img/13.jpg"/>
<image clip-path="url(#c8_170)" preserveAspectRatio="none" x="574" y="950" width="104" height="104" xlink:href="img/14.jpg"/>
<image clip-path="url(#c9_170)" preserveAspectRatio="none" x="704" y="950" width="103" height="104" xlink:href="img/15.jpg"/>
<path d="M185.1,931.1H661.4V911.6H185.1v19.5Z" class="g1_170"/>
<path d="M181.8,1095.8h112v-37h-112v37Z" class="g1_170"/>
<path d="M181.8,1095.8h112v-37h-112v37Z" class="g7_170"/>
<path d="M311.4,1095.8h112v-37h-112v37Z" class="g1_170"/>
<path d="M311.4,1095.8h112v-37h-112v37Z" class="g7_170"/>
<path d="M441.3,1095.8h112v-37h-112v37Z" class="g1_170"/>
<path d="M441.3,1095.8h112v-37h-112v37Z" class="g7_170"/>
<path d="M572.6,1095.8H684.5v-37H572.6v37Z" class="g1_170"/>
<path d="M572.6,1095.8H684.5v-37H572.6v37Z" class="g7_170"/>
<path d="M702.5,1095.8h112v-37h-112v37Z" class="g1_170"/>
<path d="M702.5,1095.8h112v-37h-112v37Z" class="g7_170"/>
<path d="M487.2,1213.9c0,0,-4.3,0,-4.3,4.3v10.9c0,0,0,4.3,4.3,4.3h30.3c0,0,4.3,0,4.3,-4.3v-10.9c0,0,0,-4.3,-4.3,-4.3Z" class="g8_170"/>
<path d="M474,1205.1v37.5m1.3,1H845.1m1,-1.4v-37.5m-1.4,-1H475" class="g9_170"/>
<path d="M474,1243v.6h.6m370.9,0h.6v-.6m0,-38.7v-.6h-.6m-370.9,0H474v.6" class="ga_170"/>
<path d="M209.2,165.5c0,0,-13,0,-13,13v47.6c0,0,0,13,13,13h602c0,0,13,0,13,-13V178.5c0,0,0,-13,-13,-13Z" class="gb_170"/>
<image clip-path="url(#ca_170)" preserveAspectRatio="none" x="152" y="162" width="75" height="76" xlink:href="img/16.png"/>
<path d="M204,231.7c0,0,-26.8,11.3,-51.1,-12.7c0,0,15.2,25.3,49.3,23.9c0,0,24.8,.4,20.3,-10.1c0,0,1.2,-4.4,-18.5,-1.1Z" class="gb_170"/>
<path d="M211.7,807.8c0,0,-13,0,-13,13v21.7c0,0,0,12.9,13,12.9H833.3c0,0,13,0,13,-12.9V820.8c0,0,0,-13,-13,-13Z" class="gb_170"/>
<image clip-path="url(#cb_170)" preserveAspectRatio="none" x="155" y="778" width="75" height="76" xlink:href="img/17.png"/>
<path d="M206.5,848.1c0,0,-26.9,11.3,-51.1,-12.8c0,0,15.1,25.3,49.3,24c0,0,24.7,.3,20.2,-10.1c0,0,1.2,-4.5,-18.4,-1.1Z" class="gb_170"/>
<path d="M131.7,126.7v22.2l11.7,10.3V137Z" class="gc_170"/>
<path d="M131.7,109.9v39H829.4c0,0,16.9,0,16.9,-16.8v-5.4c0,0,0,-16.8,-16.9,-16.8Z" class="g8_170"/>
<path d="M189.6,121.3l-6.4,-6.5L162,136l6.4,6.5Z" class="gd_170"/>
<path d="M168.4,143c.2,0,.3,0,.4,-.1L190,121.7c.1,-.1,.2,-.3,.2,-.4c0,-.1,-.1,-.3,-.2,-.4l-6.5,-6.4c-.2,-.2,-.5,-.2,-.7,0l-21.2,21.2c-.1,.1,-.2,.2,-.2,.3c0,.2,.1,.3,.2,.4l6.5,6.5c.1,.1,.2,.1,.3,.1m20.5,-21.7l-20.5,20.5L162.7,136l20.5,-20.4Z" class="ge_170"/>
<path d="M189.6,121.3l-6.4,-6.5l2.1,-2.1l6.5,6.5Z" class="gf_170"/>
<path d="M189.6,121.8c.2,0,.3,0,.4,-.1l2.1,-2.1c.1,-.1,.2,-.3,.2,-.4c0,-.2,-.1,-.3,-.2,-.4l-6.4,-6.5c-.2,-.2,-.6,-.2,-.8,0l-2.1,2.2c-.1,0,-.2,.2,-.2,.3c0,.2,.1,.3,.2,.4l6.5,6.5c.1,.1,.2,.1,.3,.1m1.4,-2.6l-1.4,1.4l-5.7,-5.8l1.4,-1.4Z" class="ge_170"/>
<path d="M195.4,115.6l-6.5,-6.5l-3.6,3.6l6.5,6.5Z" class="gg_170"/>
<path d="M191.8,119.7c.1,0,.2,0,.3,-.1l3.7,-3.7c.2,-.2,.2,-.5,0,-.7l-6.5,-6.5c-.2,-.2,-.6,-.2,-.8,0l-3.6,3.6c-.2,.2,-.2,.6,0,.8l6.5,6.5c.1,.1,.2,.1,.4,.1m2.8,-4.1l-2.8,2.8L186,112.7l2.9,-2.9Z" class="ge_170"/>
<path d="M157.3,147.2L162,136l6.4,6.5Z" class="g1_170"/>
<path d="M157.3,147.7c.1,0,.2,0,.2,-.1L168.6,143c.2,-.1,.3,-.2,.4,-.4c0,-.2,-.1,-.3,-.2,-.5l-6.5,-6.4c-.1,-.2,-.3,-.2,-.5,-.2c-.1,.1,-.3,.2,-.3,.3l-4.7,11.1c0,.2,0,.5,.1,.6c.1,.1,.3,.2,.4,.2m10.2,-5.4l-9.2,3.9l3.8,-9.2Z" class="ge_170"/>
<path d="M157.3,147.2l2.3,-5.4l3.1,3.1Z" class="ge_170"/>
<path d="M157.3,147.7c.1,0,.2,0,.2,-.1l5.4,-2.2c.1,-.1,.3,-.2,.3,-.4c0,-.2,0,-.3,-.1,-.5l-3.2,-3.1c-.1,-.1,-.3,-.2,-.4,-.1c-.2,0,-.4,.1,-.4,.3l-2.3,5.3c0,.2,0,.5,.1,.6c.1,.1,.3,.2,.4,.2m4.5,-3l-3.5,1.5l1.4,-3.5Z" class="ge_170"/>
<path d="M187.9,119.5l-3,-2.9l-21.2,21.2l3,3Z" class="gh_170"/>
<path d="M166.7,141.3c.1,0,.2,-.1,.3,-.2l21.3,-21.2c.1,-.1,.1,-.2,.1,-.4c0,-.1,0,-.2,-.1,-.3l-3,-3c-.2,-.2,-.5,-.2,-.8,0l-21.2,21.2c-.1,.1,-.1,.3,-.1,.4c0,.1,0,.3,.1,.4l3,2.9c.1,.1,.2,.2,.4,.2m20.4,-21.8L166.7,140l-2.2,-2.2l20.4,-20.5Z" class="ge_170"/>
<path d="M32.1,45.1H9.2m958.3,0h22.9M32.1,1331.3H9.2m958.3,0h22.9M45.1,32.1V9.2m0,1335.1v22.9M954.5,32.1V9.2m0,1335.1v22.9" class="gi_170"/>
<path d="M32.1,45.1H9.2m958.3,0h22.9M32.1,1331.3H9.2m958.3,0h22.9M45.1,32.1V9.2m0,1335.1v22.9M954.5,32.1V9.2m0,1335.1v22.9" class="gj_170"/>
<path d="M27.5,32.1H0m972.1,0h27.5M27.5,1344.3H0m972.1,0h27.5M32.1,27.5V0m0,1348.9v27.5M967.5,27.5V0m0,1348.9v27.5" class="gi_170"/>
<path d="M27.5,32.1H0m972.1,0h27.5M27.5,1344.3H0m972.1,0h27.5M32.1,27.5V0m0,1348.9v27.5M967.5,27.5V0m0,1348.9v27.5" class="gj_170"/>
</svg>