<?xml version="1.0" encoding="UTF-8" standalone="no"?>
<!DOCTYPE svg PUBLIC "-//W3C//DTD SVG 1.1//EN"
"http://www.w3.org/Graphics/SVG/1.1/DTD/svg11.dtd">
<svg viewBox="0 0 999 1376" version="1.1" xmlns="http://www.w3.org/2000/svg" xmlns:xlink="http://www.w3.org/1999/xlink">
<defs>
<clipPath id="c0_292"><path d="M226.6,529V483.3h1l-.9,.8V529ZM231,485.1l-2.2,-1.8h4.5l-2.2,1.8Zm5.8,0l-2.3,-1.8h4.6l-2.3,1.8Zm5.7,0l-2.3,-1.8h4.6l-2.3,1.8Zm5.7,0L246,483.3h4.5l-2.2,1.8Zm5.7,0l-2.2,-1.8h4.5l-2.2,1.8Zm5.7,0l-2.2,-1.8h4.5l-2.2,1.8Zm5.7,0l-2.2,-1.8h4.5l-2.2,1.8Zm5.7,0l-2.2,-1.8h4.5l-2.2,1.8Zm5.7,0l-2.2,-1.8H279l-2.2,1.8Zm5.7,0l-2.2,-1.8h4.5l-2.2,1.8Zm5.7,0l-2.2,-1.8h4.5l-2.2,1.8Zm5.7,0l-2.2,-1.8h4.5l-2.2,1.8Zm5.7,0l-2.2,-1.8h4.5l-2.2,1.8Zm5.8,0L303,483.3h4.6l-2.3,1.8Zm5.7,0l-2.3,-1.8h4.6l-2.3,1.8Zm5.7,0l-2.2,-1.8H319l-2.2,1.8Zm5.7,0l-2.2,-1.8h4.5l-2.2,1.8Zm5.7,0l-2.2,-1.8h4.5l-2.2,1.8Zm5.7,0l-2.2,-1.8h4.5l-2.2,1.8Zm5.7,0l-2.2,-1.8h4.5l-2.2,1.8Zm5.7,0L343,483.3h4.5l-2.2,1.8Zm5.7,0l-2.2,-1.8h4.5l-2.2,1.8Zm5.7,0l-2.2,-1.8h4.5l-2.2,1.8Zm5.7,0l-2.2,-1.8h4.5l-2.2,1.8Zm5.8,0l-2.3,-1.8h4.5l-2.2,1.8Zm5.7,0l-2.3,-1.8h4.6l-2.3,1.8Zm5.7,0l-2.3,-1.8h4.6l-2.3,1.8Zm5.7,0L383,483.3h4.5l-2.2,1.8Zm5.7,0l-2.2,-1.8h4.5l-2.2,1.8Zm5.7,0l-2.2,-1.8h4.5l-2.2,1.8Zm5.7,0l-2.2,-1.8h4.5l-2.2,1.8Zm5.7,0l-2.2,-1.8h4.5l-2.2,1.8Zm5.7,0l-2.2,-1.8H416l-2.2,1.8Zm5.7,0l-2.2,-1.8h4.5l-2.2,1.8Zm5.7,0l-2.2,-1.8h4.5l-2.2,1.8Zm5.7,0l-2.2,-1.8h4.5l-2.2,1.8Zm5.7,0l-2.2,-1.8h4.5l-2.2,1.8Zm5.8,0L440,483.3h4.6l-2.3,1.8Zm5.7,0l-2.3,-1.8h4.6l-2.3,1.8Zm5.7,0l-2.2,-1.8H456l-2.2,1.8Zm5.7,0l-2.2,-1.8h4.5l-2.2,1.8Zm5.7,0l-.6,-.5l-.9,-.7l-.7,-.6h4.5l-2.2,1.8Zm5.7,0l-2.2,-1.8h4.5l-2.2,1.8Zm5.7,0l-2.2,-1.8h4.5l-2.2,1.8Zm5.7,0l-1.4,-1.2l-.8,-.6h4.5l-2.2,1.8Zm5.7,0l-2.2,-1.8h4.5l-2.2,1.8Zm5.7,0l-2.2,-1.8h4.5l-2.2,1.8Zm5.7,0l-2.2,-1.8h4.5l-2.2,1.8Zm5.7,0l-2.2,-1.8h4.5l-2.2,1.8Zm5.8,0l-2.3,-1.8h4.6l-2.3,1.8Zm5.7,0l-2.3,-1.8h4.6l-2.2,1.8Zm5.7,0l-2.3,-1.8h4.6l-2.3,1.8Zm5.7,0l-2.2,-1.8h4.5l-2.2,1.8Zm5.7,0l-2.2,-1.8h4.5l-2.2,1.8Zm5.7,0l-2.2,-1.8h4.5l-2.2,1.8Zm5.7,0l-2.2,-1.8h4.5l-2.2,1.8Zm5.7,0l-2.2,-1.8H553l-2.2,1.8Zm5.7,0l-2.2,-1.8h4.5l-2.2,1.8Zm5.7,0l-2.2,-1.8h4.5l-2.2,1.8Zm5.7,0l-2.2,-1.8h4.5l-2.2,1.8Zm5.7,0l-2.2,-1.8h4.5l-2.2,1.8Zm5.7,0L577,483.3h4.5l-2.2,1.8Zm5.8,0l-2.3,-1.8h4.6l-2.3,1.8Zm5.7,0l-2.2,-1.8H593l-2.2,1.8Zm5.7,0l-2.2,-1.8h4.5l-2.2,1.8Zm5.7,0l-2.2,-1.8h4.5l-2.2,1.8Zm5.7,0l-2.2,-1.8h4.5l-2.2,1.8Zm5.7,0l-2.2,-1.8h4.5l-2.2,1.8Zm5.7,0L617,483.3h4.5l-2.2,1.8Zm5.7,0l-2.2,-1.8h4.5l-2.2,1.8Zm5.7,0l-2.2,-1.8h4.5l-2.2,1.8Zm5.7,0l-2.2,-1.8h4.5l-2.2,1.8Zm5.7,0l-2.2,-1.8h4.5l-2.2,1.8Zm5.8,0l-2.3,-1.8H650l-2.2,1.8Zm5.7,0l-2.3,-1.8h4.6l-2.3,1.8Zm5.7,0L657,483.3h4.5l-2.2,1.8Zm5.7,0l-2.2,-1.8h4.5l-2.3,1.8Zm5.7,0l-2.2,-1.8h4.5l-2.2,1.8Zm5.7,0l-2.2,-1.8h4.5l-2.2,1.8Zm5.7,0l-2.2,-1.8h4.5l-2.2,1.8Zm5.7,0l-2.2,-1.8H690l-2.2,1.8Zm5.7,0l-2.2,-1.8h4.5l-2.2,1.8Zm5.7,0l-2.2,-1.8h4.5l-2.2,1.8Zm5.7,0l-2.2,-1.8h4.5l-2.2,1.8Zm5.8,0l-2.3,-1.8h4.5l-2.2,1.8Zm5.7,0L714,483.3h4.6l-.9,.6l-1.4,1.2Zm5.7,0l-2.3,-1.8h4.6l-2.3,1.8Zm5.7,0l-2.2,-1.8H730l-2.3,1.8Zm5.7,0l-2.2,-1.8h4.5l-2.2,1.8Zm5.7,0l-2.2,-1.8h4.5l-2.2,1.8Zm5.7,0l-2.2,-1.8h4.5l-2.2,1.8Zm5.7,0l-2.2,-1.8h4.5l-2.2,1.8Zm5.4,-.3L754,483.3h3.8l-1.9,1.5Zm5.3,.3L759,483.3h4.5l-2.2,1.8Zm5.7,0l-2.2,-1.8h4.5l-2.2,1.8Zm5.8,43.9V485.1h-.1l-2.2,-1.8h10.7V529Z"/></clipPath>
<clipPath id="c1_292"><path d="M226.6,1031.3V528.5h.1v495h46.2v7.8Z"/></clipPath>
<clipPath id="c2_292"><path d="M734.8,1031.3v-7.8h46.3v7.8Zm37.9,-59.7V528.5h8.4V971.6Z"/></clipPath>
<clipPath id="c3_292"><path d="M272.4,1031.3v-7.8H735.3v7.8Z"/></clipPath>
<clipPath id="c4_292"><path d="M781.1,1023.5V971.6h14.4v51.9Z"/></clipPath>
<clipPath id="c5_292"><path d="M772.7,1023.5V971.6h8.4v51.9Z"/></clipPath>
<clipPath id="c6_292"><path d="M470.9,485.1v0Zm57,0v0Zm22.9,0v0Zm68.5,0v0Zm51.3,0v0Zm.1,0v0Zm57,0v0Zm-199.8,0v0Zm142.8,0v0Zm57,0v0Zm-199.8,0v0Zm142.8,0v0Zm57,0v0Zm-262.6,0l-.6,-.5l.6,.5Zm228.3,0l-1.5,-1.2l1.5,1.2Zm-148.3,0l1.6,-1.3l-1.6,1.3Zm-22.9,0l-2.8,-2.3l2.8,2.3Zm6.9,-1l1.7,-1.3l-.6,.5l-1.1,.8Zm118.7,1l2.8,-2.3l-2.8,2.3ZM226.7,1023.5V484.1l1.5,-1.3l.6,.5l2.2,1.8h.1l2.2,-1.8l.6,-.5l.6,.5l2.3,1.8l2.3,-1.8l.6,-.5l.5,.5l2.3,1.8l2.3,-1.8l.6,-.5l2.8,2.3h.1l2.2,-1.8l.6,-.5l2.8,2.3h.1l2.8,-2.3l.6,.5l2.2,1.8h.1l2.8,-2.3l2.8,2.3h.1l2.8,-2.3l2.8,2.3h.1l2.8,-2.3l.6,.5l2.2,1.8h.1l2.2,-1.8l.6,-.5l2.8,2.3h.1l2.8,-2.3l.6,.5l2.2,1.8h.1l2.2,-1.8l.6,-.5l.6,.5l2.2,1.8h.1l2.8,-2.3l.6,.5l2.2,1.8h.1l2.8,-2.3l.6,.5l2.3,1.8l2.3,-1.8l.5,-.5l2.9,2.3l2.9,-2.3l2.8,2.3h.1l2.8,-2.3l2.8,2.3h.1l2.8,-2.3l.6,.5l2.2,1.8h.1l2.8,-2.3l.6,.5l2.2,1.8h.1l2.8,-2.3l2.8,2.3h.1l2.8,-2.3l.6,.5l2.2,1.8h.1l2.2,-1.8l.6,-.5l.6,.5l2.2,1.8h.1l2.8,-2.3l.6,.5l2.2,1.8h.1l2.8,-2.3l2.8,2.3h.1l2.8,-2.3l2.9,2.3l2.8,-2.3l.6,.5l2.3,1.8l2.9,-2.3l.5,.5l2.3,1.8l2.9,-2.3l2.8,2.3h.1l2.2,-1.8l.6,-.5l2.8,2.3h.1l2.8,-2.3l.6,.5l2.2,1.8h.1l2.8,-2.3l.6,.5l2.2,1.8h.1l2.2,-1.8l.6,-.5l.6,.5l2.2,1.8h.1l2.8,-2.3l.6,.5l2.2,1.8h.1l2.8,-2.3l.6,.5l2.2,1.8h.1l2.2,-1.8l.6,-.5l2.8,2.3h.1l2.2,-1.8l.6,-.5l2.8,2.3h.1l2.8,-2.3l2.8,2.3h.1l2.8,-2.3l2.9,2.3l2.9,-2.3l.5,.5l2.3,1.8l2.9,-2.3l2.8,2.3h.1l2.8,-2.3l.6,.5l2.2,1.8h.1l2.8,-2.3l.7,.6l.6,.5L338.1,1023.5ZM470.9,485.1l2.2,-1.8l.6,-.5l-2.8,2.3Zm5.7,0l2.8,-2.3l-2.8,2.3Zm5.7,0l2.2,-1.8l.6,-.5l-2.8,2.3Zm5.7,0l2.2,-1.8l.6,-.5l-2.8,2.3Zm17,0l-2.8,-2.3l.6,.5l2.2,1.8Zm5.8,0l2.3,-1.8l.5,-.5l-2.8,2.3Zm5.7,0l-2.9,-2.3l2.9,2.3Zm11.4,0l-2.8,-2.3l.6,.5l2.2,1.8Zm2.9,-2.3v0Zm2.9,2.3l2.2,-1.8l.6,-.5l-2.8,2.3Zm5.6,0l-2.8,-2.3l2.8,2.3Zm7.6,-1.5l.4,-.3l.6,-.5l-1,.8Zm3.9,1.5l2.2,-1.8l.6,-.5l-2.8,2.3Zm5.6,0l-2.8,-2.3l2.8,2.3Zm11.5,0l2.2,-1.8l.6,-.5l-2.8,2.3Zm5.6,0l-2.8,-2.3l.6,.5l2.2,1.8Zm5.8,0l2.2,-1.8l.6,-.5l-2.8,2.3Zm5.7,0l2.3,-1.8l.6,-.5l-2.9,2.3Zm11.5,0l2.2,-1.8l.6,-.5l-2.8,2.3Zm5.7,0l2.2,-1.8l.6,-.5l-2.8,2.3Zm5.6,0L605,482.8l.6,.5l2.2,1.8Zm5.8,0l2.8,-2.3l-2.8,2.3Zm5.7,0l2.2,-1.8l.6,-.5l-2.8,2.3Zm22.8,0l2.2,-1.8l.6,-.5l-2.8,2.3Zm22.8,0l-2.8,-2.3l.6,.5l2.2,1.8Zm5.7,0l-2.8,-2.3l.6,.5l2.2,1.8Zm.1,0l2.2,-1.8l.6,-.5l-2.8,2.3Zm5.6,0l-2.8,-2.3l.6,.5l2.2,1.8Zm5.7,0l-2.8,-2.3l.6,.5l2.2,1.8Zm.1,0l2.2,-1.8l.6,-.5l-2.8,2.3Zm5.7,0l2.2,-1.8l.6,-.5l-2.8,2.3Zm4.1,-1.2l-1.3,-1.1l.6,.5l.7,.6Zm7.3,1.2l2.2,-1.8l.6,-.5l-2.8,2.3Zm22.8,0l2.3,-1.8l.6,-.5l-2.9,2.3Zm5.7,0l-2.8,-2.3l.6,.5l2.2,1.8Zm5.7,0l-2.8,-2.3l.6,.5l2.2,1.8Zm.1,0l2.2,-1.8l.6,-.5l-2.8,2.3Zm22.4,-.3l1.9,-1.5l.6,-.5l-2.5,2Z"/></clipPath>
<clipPath id="c7_292"><path d="M480.8,483.9l-.8,-.6l.8,.6Z"/></clipPath>
<clipPath id="c8_292"><path d="M434.4,708.4V609.3L463.6,483.9l1.5,1.2h.1l2.8,-2.3l2.8,2.3h.1l2.8,-2.3l2.8,2.3h.1l2.8,-2.3l.6,.5l.8,.6l1.4,1.2h.1l2.8,-2.3l2.8,2.3h.1l2.8,-2.3l.6,.5l2.2,1.8h.1l2.8,-2.3l2.8,2.3h.1l2.8,-2.3l2.8,2.3h.1l2.8,-2.3l.6,.5l2.3,1.8l2.8,-2.3l2.9,2.3h.1l2.8,-2.3l2.8,2.3l2.9,-2.3l2.8,2.3h.1l2.8,-2.3l2.8,2.3h.1l2.8,-2.3l2.8,2.3h.1l2.8,-2.3l2.8,2.3h.1l2.8,-2.3l2.8,2.3h.1l2.8,-2.3l2.8,2.3h.1l2.8,-2.3l.6,.5l2.2,1.8h.1l2.8,-2.3l2.8,2.3h.1l2.8,-2.3l2.8,2.3h.1l2.8,-2.3l.6,.5l2.2,1.8h.1l2.8,-2.3l2.9,2.3l2.9,-2.3l2.8,2.3h.1l2.8,-2.3l2.8,2.3h.1l2.8,-2.3l.6,.5l2.2,1.8h.1l2.8,-2.3l2.8,2.3h.1l2.8,-2.3l2.8,2.3h.1l2.8,-2.3l2.8,2.3h.1l2.8,-2.3l2.8,2.3h.1l2.8,-2.3l.6,.5l2.2,1.8h.1l2.8,-2.3l2.8,2.3h.1l2.8,-2.3l.6,.5l2.2,1.8h.1l2.8,-2.3l2.9,2.3l2.8,-2.3l2.9,2.3l2.9,-2.3l2.8,2.3h.1l2.8,-2.3l2.8,2.3l2.9,-2.3l2.8,2.3h.1l2.8,-2.3l2.8,2.3h.1V485V708.4Z"/></clipPath>
<clipPath id="c9_292"><path d="M675.7,1023.5V484.6l.6,.5h.1l2.8,-2.3l2.8,2.3h.1l2.8,-2.3l2.8,2.3h.1l2.8,-2.3l2.8,2.3h.1l2.8,-2.3l2.8,2.3h.1l2.8,-2.3l2.8,2.3h.1l2.8,-2.3l2.9,2.3l2.8,-2.3l.6,.5l2.3,1.8l1.4,-1.2l1.4,-1.1l.6,.5l2.3,1.8l2.9,-2.3l2.8,2.3l2.9,-2.3l2.8,2.3h.1l2.8,-2.3l.6,.5l2.2,1.8h.1l2.8,-2.3l2.8,2.3h.1l2.8,-2.3l2.8,2.3h.1l2.8,-2.3l2.5,2l2.5,-2l2.8,2.3h.1l2.8,-2.3l2.8,2.3h.1l2.8,-2.3l2.8,2.3h.1v538.4Z"/></clipPath>
<clipPath id="ca_292"><path d="M385.9,1023.5V817.9L435.2,606.2v417.3Z"/></clipPath>
<clipPath id="cb_292"><path d="M434.4,933.7v-226h242v226Z"/></clipPath>
<clipPath id="cc_292"><path d="M338.1,1023.5L386.7,814.7v208.8Z"/></clipPath>
<clipPath id="cd_292"><path d="M434.4,1023.5V933h242v90.5Z"/></clipPath>
<clipPath id="ce_292"><path d="M246.4,257.5l-1,-.9v-1h3.4l-2.3,1.9Zm5.9,0L250,255.6h4.6l-2.3,1.9Zm5.8,0l-2.3,-1.9h4.7l-2.3,1.9Zm5.9,0l-2.3,-1.9h4.6l-2.3,1.9Zm5.8,0l-2.3,-1.9h4.7l-2.3,1.9Zm5.8,0l-2.2,-1.9H278l-2.3,1.9Zm5.9,0l-2.3,-1.9h4.7l-2.3,1.9Zm5.8,0l-2.2,-1.9h4.6l-2.3,1.9Zm5.9,0l-2.3,-1.9h4.6l-2.2,1.9Zm5.8,0l-2.2,-1.9h4.6l-2.3,1.9Zm5.9,0l-2.3,-1.9h4.6l-2.2,1.9Zm5.8,0l-2.2,-1.9h4.6l-2.3,1.9Zm5.9,0l-2.3,-1.9h4.6l-2.2,1.9Zm5.8,0l-2.2,-1.9h4.6l-2.3,1.9Zm5.9,0L326,255.6h4.6l-2.2,1.9Zm5.8,0l-2.2,-1.9h4.6l-2.3,1.9Zm5.9,0l-2.3,-1.9h4.6l-2.2,1.9Zm5.8,0l-2.2,-1.9h4.6l-2.3,1.9Zm5.9,0l-2.3,-1.9H354l-2.2,1.9Zm5.8,0l-2.2,-1.9h4.6l-2.3,1.9Zm5.9,0l-2.3,-1.9h4.6l-2.2,1.9Zm5.8,0L367,255.6h4.6l-2.3,1.9Zm5.9,0l-2.3,-1.9h4.6l-2.2,1.9Zm5.8,0l-2.2,-1.9h4.6l-2.3,1.9Zm5.9,0l-2.3,-1.9h4.6l-2.2,1.9Zm5.8,0l-2.3,-1.9H395l-2.3,1.9Zm5.9,0l-2.3,-1.9h4.6l-2.3,1.9Zm5.8,0L402,255.6h4.7l-2.3,1.9Zm5.9,0l-2.3,-1.9h4.6l-2.3,1.9Zm5.8,0l-2.3,-1.9h4.7l-2.3,1.9Zm5.9,0l-2.3,-1.9h4.6l-2.2,1.9Zm5.8,0l-2.3,-1.9h4.7l-2.3,1.9Zm5.9,0l-2.3,-1.9h4.6l-2.3,1.9Zm5.8,0l-2.3,-1.9h4.7l-2.3,1.9Zm5.8,0L443,255.6h4.6l-2.3,1.9Zm5.9,0l-2.3,-1.9h4.7l-2.3,1.9Zm5.8,0l-.5,-.5l-1,-.8l-.7,-.6h4.6l-2.3,1.9Zm5.9,0l-2.3,-1.9h4.7l-2.3,1.9Zm5.9,0l-2.3,-1.9H471l-2.3,1.9Zm5.8,0l-1.4,-1.2l-.9,-.7h4.6l-2.2,1.9Zm5.8,0l-2.2,-1.9h4.6l-2.3,1.9Zm5.9,0l-2.3,-1.9h4.6l-2.2,1.9Zm5.8,0l-2.2,-1.9h4.6l-2.3,1.9Zm5.9,0l-2.3,-1.9h4.6l-2.2,1.9Zm5.8,0l-2.2,-1.9h4.6l-2.3,1.9Zm5.9,0l-2.3,-1.9h4.6l-2.2,1.9Zm5.8,0l-2.2,-1.9h4.6l-2.3,1.9Zm5.9,0L519,255.6h4.6l-2.2,1.9Zm5.8,0l-2.2,-1.9h4.6l-2.3,1.9Zm5.9,0l-2.3,-1.9h4.6l-2.2,1.9Zm5.8,0l-2.2,-1.9h4.6l-2.3,1.9Zm5.9,0l-2.3,-1.9H547l-2.2,1.9Zm5.8,0l-2.3,-1.9h4.7l-2.3,1.9Zm5.9,0l-2.3,-1.9h4.6l-2.2,1.9Zm5.8,0L560,255.6h4.6l-2.3,1.9Zm5.9,0l-2.3,-1.9h4.6l-2.2,1.9Zm5.8,0l-2.3,-1.9h4.7l-2.3,1.9Zm5.9,0l-2.3,-1.9h4.6l-2.3,1.9Zm5.8,0l-2.3,-1.9H588l-2.3,1.9Zm5.9,0l-2.3,-1.9h4.6l-2.2,1.9Zm5.8,0L595,255.6h4.7l-2.3,1.9Zm5.9,0l-2.3,-1.9h4.6l-2.3,1.9Zm5.8,0l-2.3,-1.9h4.7l-2.3,1.9Zm5.9,0l-2.3,-1.9h4.6l-2.3,1.9Zm5.8,0l-2.3,-1.9h4.7l-2.3,1.9Zm5.9,0l-2.3,-1.9h4.6l-2.3,1.9Zm5.8,0l-2.3,-1.9h4.7l-2.3,1.9Zm5.8,0L636,255.6h4.6l-2.3,1.9Zm5.9,0l-2.3,-1.9h4.7l-2.3,1.9Zm5.8,0l-2.2,-1.9h4.6l-2.3,1.9Zm5.9,0l-2.3,-1.9h4.6l-2.2,1.9Zm5.8,0l-2.2,-1.9H664l-2.3,1.9Zm5.9,0l-2.3,-1.9h4.6l-2.2,1.9Zm5.8,0l-2.2,-1.9h4.6l-2.3,1.9Zm5.9,0l-2.3,-1.9h4.6l-2.2,1.9Zm5.8,0l-2.2,-1.9h4.6l-2.3,1.9Zm5.9,0l-2.3,-1.9h4.6l-2.2,1.9Zm5.8,0l-2.2,-1.9h4.6l-2.3,1.9Zm5.9,0l-2.3,-1.9h4.6l-2.2,1.9Zm5.8,0l-2.2,-1.9h4.6l-2.3,1.9Zm5.9,0L712,255.6h4.6l-.8,.7l-1.4,1.2Zm5.8,0l-2.2,-1.9h4.6l-2.3,1.9Zm5.9,0l-2.3,-1.9h4.6l-2.2,1.9Zm5.8,0l-2.2,-1.9h4.6l-2.3,1.9Zm5.9,0l-2.3,-1.9H740l-2.2,1.9Zm5.8,0l-2.2,-1.9h4.6l-2.3,1.9Zm5.9,0l-2.3,-1.9h4.6l-2.3,1.9Zm5.5,-.3l-2,-1.6h3.9l-1.9,1.6Zm5.4,.3l-2.2,-1.9h4.6l-2.3,1.9Zm5.9,0l-2.3,-1.9h4.6l-2.2,1.9Zm5.9,48.5V257.5H772l-2.3,-1.9h11V306Z"/></clipPath>
<clipPath id="cf_292"><path d="M772.1,793.6V305.5h8.6V793.6Z"/></clipPath>
<clipPath id="cg_292"><path d="M456.9,257.5l-.4,-.4l.4,.4Zm70.3,0l1.6,-1.3l-1.6,1.3Zm111.1,0l2.4,-2.1l-.1,.2l-2.3,1.9Zm41,0l2.9,-2.4l-2.9,2.4Zm-23.5,0l-2.9,-2.4l2.9,2.4ZM245.4,793.6v-537l1,.9h.1l2.9,-2.4l2.9,2.4l2.9,-2.4l2.9,2.4h.1l2.3,-1.9l.6,-.5l2.9,2.4l2.3,-1.9l.6,-.5l2.9,2.4h.1l2.9,-2.4l2.8,2.4h.1l2.9,-2.4l.6,.5l2.3,1.9h.1l2.9,-2.4l2.8,2.4h.1l2.9,-2.4l.6,.5l2.3,1.9h.1l2.2,-1.9l.7,-.5l2.8,2.4h.1l2.9,-2.4l.6,.5l2.3,1.9h.1l2.9,-2.4l2.8,2.4h.1l2.3,-1.9l.6,-.5l.6,.5l2.3,1.9h.1l2.9,-2.4l.6,.5l2.2,1.9h.1l2.9,-2.4l2.9,2.4h.1l2.8,-2.4l.7,.5l2.2,1.9h.1l2.3,-1.9l.6,-.5l2.9,2.4h.1l2.8,-2.4l.7,.5l2.2,1.9h.1l2.9,-2.4l2.9,2.4h.1l2.8,-2.4l2.9,2.4h.1l2.9,-2.4l2.9,2.4h.1l2.8,-2.4l.7,.5l2.2,1.9h.1l2.9,-2.4l2.9,2.4h.1l2.8,-2.4l2.9,2.4h.1l2.9,-2.4l2.9,2.4h.1l2.8,-2.4l.6,.5l2.3,1.9h.1l2.3,-1.9l.6,-.5l2.9,2.4l2.9,-2.4l.6,.5l2.3,1.9h.1l2.3,-1.9l.6,-.5l2.9,2.4l2.9,-2.4l2.9,2.4h.1l2.9,-2.4l2.9,2.4h.1l2.8,-2.4l2.9,2.4h.1l2.9,-2.4l2.9,2.4l2.9,-2.4l.6,.5l2.3,1.9h.1l2.9,-2.4l2.8,2.4h.1l2.9,-2.4l.6,.5l2.3,1.9h.1l2.9,-2.4l1.3,1.1l-116,537.4ZM468.7,257.5l-2.9,-2.4l.6,.5l2.3,1.9Zm0,0l2.9,-2.4l-2.9,2.4Zm11.7,0l2.3,-1.9l.6,-.5l-2.9,2.4Zm23.4,0l2.3,-1.9l.6,-.5l-2.9,2.4Zm11.6,0l-2.9,-2.4l2.9,2.4Zm11.7,0l-2.9,-2.4l.7,.5l2.2,1.9Zm2.4,-1.9v0l.6,-.5l-.6,.5Zm3.5,1.9l-2.9,-2.4l2.9,2.4Zm8,-1.8l.2,-.1l.6,-.5l-.8,.6Zm9.5,1.8l-2.9,-2.4l2.9,2.4Zm11.7,0l-2.9,-2.4l.7,.5l2.2,1.9Zm11.8,0l2.3,-1.9l.6,-.5l-2.9,2.4Zm11.7,0l2.3,-1.9l.6,-.5l-2.9,2.4Zm11.7,0l2.3,-1.9l.6,-.5l-2.9,2.4Zm17.5,0l2.3,-1.9l.6,-.5l-2.9,2.4Zm11.7,0l2.9,-2.4l-2.9,2.4Zm5.8,0l-2.9,-2.4l.6,.5l2.3,1.9Zm29.2,0l-2.8,-2.4l.6,.5l2.2,1.9Zm11.7,0l-2.8,-2.4l.6,.5l2.2,1.9Zm11.8,0l2.3,-1.9l.6,-.5l-2.9,2.4Zm5.8,0L688,255.1l2.9,2.4Zm5.9,0l2.3,-1.9l.6,-.5l-2.9,2.4Zm11.6,0l-2.9,-2.4l.7,.5l2.2,1.9Zm17.6,0l-2.9,-2.4l.6,.5l2.3,1.9Zm5.8,0l-2.9,-2.4l.7,.5l2.2,1.9Zm.1,0l2.3,-1.9l.6,-.5l-2.9,2.4Zm11.6,0l-2.9,-2.4l.7,.5l2.2,1.9Zm11.4,-.3l-2.6,-2.1l.6,.5l2,1.6Zm11.3,.3l-2.9,-2.4l.6,.5l2.3,1.9Z"/></clipPath>
<clipPath id="ch_292"><path d="M425.5,504V394.7L455.4,256.2l1.5,1.3h.1l2.9,-2.4l2.9,2.4h.1l2.9,-2.4l2.9,2.4l2.9,-2.4l.6,.5l.9,.7l1.4,1.2h.1l2.9,-2.4l2.8,2.4h.1l2.9,-2.4l.6,.4l2.3,2h.1l2.9,-2.4l2.8,2.4h.1l2.9,-2.4l2.9,2.4h.1l2.9,-2.4l.6,.5l2.2,1.9h.1l2.9,-2.4l2.9,2.4h.1l2.8,-2.4l2.9,2.4h.1l2.9,-2.4l2.9,2.4h.1l2.8,-2.4l2.9,2.4h.1l2.9,-2.4l2.9,2.4h.1l2.8,-2.4l2.9,2.4h.1l2.9,-2.4l2.9,2.4h.1l2.8,-2.4l2.9,2.4h.1l2.9,-2.4l.6,.5l2.3,1.9h.1l2.8,-2.4l2.9,2.4h.1l2.9,-2.4l2.9,2.4h.1l2.8,-2.4l.6,.5l2.3,1.9h.1l2.9,-2.4l2.9,2.4l2.9,-2.4l2.9,2.4h.1l2.9,-2.4l2.9,2.4h.1l2.8,-2.4l.6,.5l2.3,1.9h.1l2.9,-2.4l2.9,2.4l2.9,-2.4l2.9,2.4h.1l2.9,-2.4l2.9,2.4l2.9,-2.4l2.9,2.4h.1l2.9,-2.4l.6,.5l2.3,1.9l2.9,-2.4l2.9,2.4h.1l2.9,-2.4l.6,.5l2.2,1.9h.1l2.9,-2.4l2.9,2.4h.1l2.9,-2.4l2.8,2.4h.1l2.9,-2.4l2.9,2.4h.1l2.9,-2.4l2.8,2.4h.1l2.9,-2.4l2.9,2.4h.1l2.9,-2.4l2.8,2.4h.2V504Z"/></clipPath>
<clipPath id="ci_292"><path d="M672.7,793.6V256.9l.6,.6h.1l2.9,-2.4l2.9,2.4h.1l2.9,-2.4l2.8,2.4h.1l2.9,-2.4l2.9,2.4h.1l2.9,-2.4l2.8,2.4h.1l2.9,-2.4l2.9,2.4h.1l2.8,-2.4l2.9,2.4h.1l2.9,-2.4l1.1,.9l1.8,1.5h.1l1.4,-1.2l1.4,-1.2l.7,.5l2.2,1.9h.1l2.9,-2.4l2.9,2.4h.1l2.8,-2.4l2.9,2.4h.1l2.9,-2.4l.6,.5l2.3,1.9h.1l2.8,-2.4l2.9,2.4h.1l2.9,-2.4l2.9,2.4l2.9,-2.4l2.6,2.1l2.5,-2.1l2.9,2.4h.1l2.9,-2.4l2.9,2.4h.1l2.8,-2.4l2.9,2.4h.1V793.6Z"/></clipPath>
<clipPath id="cj_292"><path d="M375.9,793.6V624.8L426.3,391.2V793.6Z"/></clipPath>
<clipPath id="ck_292"><path d="M425.5,752.7V503.2h248V752.7Z"/></clipPath>
<clipPath id="cl_292"><path d="M339.4,793.6L376.6,621.3V793.6Z"/></clipPath>
<clipPath id="cm_292"><path d="M425.5,793.6V751.9h248v41.7Z"/></clipPath>
<clipPath id="cn_292"><path d="M245.4,793.6V255H795.5V793.6Z"/></clipPath>
<clipPath id="co_292"><path d="M228.7,257.5l-2.1,-1.8v-.1h4.5l-2.3,1.9Zm5.9,0l-2.3,-1.9H237l-2.3,1.9Zm5.9,0l-2.3,-1.9h4.6l-2.3,1.9Zm5.8,0L244,255.6h4.6l-2.2,1.9Z"/></clipPath>
<clipPath id="cp_292"><path d="M226.6,793.6V255.7l2.1,1.8h.1l2.3,-1.9l.6,-.5l2.9,2.4h.1l2.9,-2.4l.6,.5l2.3,1.9l2.3,-1.9l.6,-.5l2.9,2.4h.1l2.2,-1.9v538Z"/></clipPath>
<clipPath id="cq_292"><path d="M226.6,793.6V255h22V793.6Z"/></clipPath>
<clipPath id="cr_292"><path d="M772.1,784.5V391.1h8.6V784.5Z"/></clipPath>
<clipPath id="cs_292"><path d="M245.4,784.5V391.1h179l-85,393.4Z"/></clipPath>
<clipPath id="ct_292"><path d="M425.5,495V391.1h248V495Z"/></clipPath>
<clipPath id="cu_292"><path d="M672.7,784.5V391.1h99.4V784.5Z"/></clipPath>
<clipPath id="cv_292"><path d="M375.9,784.5V615.8L424.4,391.1h1.9V784.5Z"/></clipPath>
<clipPath id="cw_292"><path d="M425.5,743.6V494.2h248V743.6Z"/></clipPath>
<clipPath id="cx_292"><path d="M339.4,784.5L376.6,612.3V784.5Z"/></clipPath>
<clipPath id="cy_292"><path d="M425.5,784.5V742.9h248v41.6Z"/></clipPath>
<style type="text/css"><![CDATA[
.g0_292{
fill: #FEFCF4;
}
.g1_292{
fill: none;
stroke: #6381B7;
stroke-width: 0.763;
}
.g2_292{
fill: #86B0C9;
}
.g3_292{
fill: #D99D70;
}
.g4_292{
fill: #D69C6F;
}
.g5_292{
fill: #D4996E;
}
.g6_292{
fill: #D2976D;
}
.g7_292{
fill: #D0976A;
}
.g8_292{
fill: #CD946A;
}
.g9_292{
fill: #CB9168;
}
.ga_292{
fill: #C89067;
}
.gb_292{
fill: #C68F65;
}
.gc_292{
fill: #C38C63;
}
.gd_292{
fill: #C08A62;
}
.ge_292{
fill: #BF8960;
}
.gf_292{
fill: #BB875F;
}
.gg_292{
fill: #B8855E;
}
.gh_292{
fill: #B7835C;
}
.gi_292{
fill: #B4825B;
}
.gj_292{
fill: #B27F59;
}
.gk_292{
fill: #AF7E58;
}
.gl_292{
fill: #AD7C56;
}
.gm_292{
fill: #AB7954;
}
.gn_292{
fill: #A97853;
}
.go_292{
fill: #A77751;
}
.gp_292{
fill: #A4754F;
}
.gq_292{
fill: #A2724C;
}
.gr_292{
fill: #9E704B;
}
.gs_292{
fill: #9C6F4A;
}
.gt_292{
fill: #9B6C47;
}
.gu_292{
fill: #976A45;
}
.gv_292{
fill: #956842;
}
.gw_292{
fill: #926641;
}
.gx_292{
fill: #8F633F;
}
.gy_292{
fill: #8D613D;
}
.gz_292{
fill: #F2EC87;
}
.g10_292{
fill: #F1EB84;
}
.g11_292{
fill: #EFEA82;
}
.g12_292{
fill: #EEE97F;
}
.g13_292{
fill: #EDE77B;
}
.g14_292{
fill: #ECE577;
}
.g15_292{
fill: #EBE573;
}
.g16_292{
fill: #E9E571;
}
.g17_292{
fill: #E8E46E;
}
.g18_292{
fill: #E6E46B;
}
.g19_292{
fill: #E5E268;
}
.g1a_292{
fill: #E5E266;
}
.g1b_292{
fill: #E3E063;
}
.g1c_292{
fill: #E1E060;
}
.g1d_292{
fill: #DFDF5D;
}
.g1e_292{
fill: #DEDD5A;
}
.g1f_292{
fill: #DDDE56;
}
.g1g_292{
fill: #DDDC55;
}
.g1h_292{
fill: #DCDB53;
}
.g1i_292{
fill: #D9DB50;
}
.g1j_292{
fill: #D8DA4E;
}
.g1k_292{
fill: #D7D94C;
}
.g1l_292{
fill: #D7D948;
}
.g1m_292{
fill: #D6D947;
}
.g1n_292{
fill: #D3D745;
}
.g1o_292{
fill: #D2D644;
}
.g1p_292{
fill: #D1D643;
}
.g1q_292{
fill: #D1D542;
}
.g1r_292{
fill: #D0D440;
}
.g1s_292{
fill: #CDD340;
}
.g1t_292{
fill: #CCD33F;
}
.g1u_292{
fill: #DD77A6;
}
.g1v_292{
fill: #DC75A3;
}
.g1w_292{
fill: #DC72A2;
}
.g1x_292{
fill: #DB6FA0;
}
.g1y_292{
fill: #DB6C9F;
}
.g1z_292{
fill: #DB699D;
}
.g20_292{
fill: #DB679B;
}
.g21_292{
fill: #DB6599;
}
.g22_292{
fill: #D96199;
}
.g23_292{
fill: #D95F97;
}
.g24_292{
fill: #D95D95;
}
.g25_292{
fill: #D95994;
}
.g26_292{
fill: #D95692;
}
.g27_292{
fill: #D85491;
}
.g28_292{
fill: #D8508F;
}
.g29_292{
fill: #D94E8D;
}
.g2a_292{
fill: #D94C8C;
}
.g2b_292{
fill: #D94A8A;
}
.g2c_292{
fill: #D94788;
}
.g2d_292{
fill: #D84587;
}
.g2e_292{
fill: #D84485;
}
.g2f_292{
fill: #D84184;
}
.g2g_292{
fill: #D83E82;
}
.g2h_292{
fill: #D83B81;
}
.g2i_292{
fill: #D63880;
}
.g2j_292{
fill: #D6357E;
}
.g2k_292{
fill: #D6347C;
}
.g2l_292{
fill: #D7317A;
}
.g2m_292{
fill: #D72F79;
}
.g2n_292{
fill: #76C1C6;
}
.g2o_292{
fill: #72C1C4;
}
.g2p_292{
fill: #6FBFC3;
}
.g2q_292{
fill: #6ABEC1;
}
.g2r_292{
fill: #6ABEBF;
}
.g2s_292{
fill: #64BBBE;
}
.g2t_292{
fill: #61BABC;
}
.g2u_292{
fill: #5EBABB;
}
.g2v_292{
fill: #59B7B8;
}
.g2w_292{
fill: #56B6B6;
}
.g2x_292{
fill: #51B4B3;
}
.g2y_292{
fill: #4EB4B2;
}
.g2z_292{
fill: #49B2B1;
}
.g30_292{
fill: #49B1AF;
}
.g31_292{
fill: #45B1AE;
}
.g32_292{
fill: #3AAFAC;
}
.g33_292{
fill: #39ADAA;
}
.g34_292{
fill: #36ADA9;
}
.g35_292{
fill: #37ABA8;
}
.g36_292{
fill: #33AAA6;
}
.g37_292{
fill: #34A9A4;
}
.g38_292{
fill: #33A8A3;
}
.g39_292{
fill: #32A7A1;
}
.g3a_292{
fill: #F3C672;
}
.g3b_292{
fill: #F3C46F;
}
.g3c_292{
fill: #F2C26B;
}
.g3d_292{
fill: #F2C169;
}
.g3e_292{
fill: #F1BF67;
}
.g3f_292{
fill: #F0BD64;
}
.g3g_292{
fill: #F0BA62;
}
.g3h_292{
fill: #F0B95F;
}
.g3i_292{
fill: #EEB65C;
}
.g3j_292{
fill: #EFB559;
}
.g3k_292{
fill: #EFB356;
}
.g3l_292{
fill: #ECB054;
}
.g3m_292{
fill: #EEAF50;
}
.g3n_292{
fill: #EEAD4E;
}
.g3o_292{
fill: #EDAB4C;
}
.g3p_292{
fill: #EDA94A;
}
.g3q_292{
fill: #EDA848;
}
.g3r_292{
fill: #EDA746;
}
.g3s_292{
fill: #EDA543;
}
.g3t_292{
fill: #ECA341;
}
.g3u_292{
fill: #EDA13F;
}
.g3v_292{
fill: #EC9F3D;
}
.g3w_292{
fill: #EC9E3B;
}
.g3x_292{
fill: #EB9C39;
}
.g3y_292{
fill: #EA9A38;
}
.g3z_292{
fill: #EC9836;
}
.g40_292{
fill: #EB9735;
}
.g41_292{
fill: #EA9533;
}
.g42_292{
fill: #EA9332;
}
.g43_292{
fill: #EA9131;
}
.g44_292{
fill: #FFF;
}
.g45_292{
fill: #BBBCBE;
}
.g46_292{
fill: #CBD23F;
}
.g47_292{
fill: #D52E78;
}
.g48_292{
fill: #D62A76;
}
.g49_292{
fill: #D62975;
}
.g4a_292{
fill: #5CB8B9;
}
.g4b_292{
fill: #31A5A0;
}
.g4c_292{
fill: #30A49F;
}
.g4d_292{
fill: #2FA49D;
}
.g4e_292{
fill: #2FA29C;
}
.g4f_292{
fill: #2EA19A;
}
.g4g_292{
fill: #2EA09A;
}
.g4h_292{
fill: #2E9E98;
}
.g4i_292{
fill: #2D9E96;
}
.g4j_292{
fill: #E99030;
}
.g4k_292{
fill: #EA8F2F;
}
.g4l_292{
fill: #221713;
}
.g4m_292{
fill: #030303;
}
.g4n_292{
fill: #6381B7;
}
.g4o_292{
fill: none;
stroke: #6381B7;
stroke-width: 0.381;
stroke-dasharray: 2,1;
}
.g4p_292{
fill: none;
stroke: #6381B7;
stroke-width: 0.381;
}
.g4q_292{
fill: #25408F;
}
.g4r_292{
fill: #F37553;
}
.g4s_292{
fill: #363637;
}
.g4t_292{
fill: #F0D73F;
}
.g4u_292{
fill: #506CB4;
}
.g4v_292{
fill: #5CC4BE;
}
.g4w_292{
fill: none;
stroke: #FFF;
stroke-width: 1.909;
stroke-miterlimit: 10;
}
.g4x_292{
fill: none;
stroke: #000;
stroke-width: 0.381;
stroke-miterlimit: 10;
}
]]></style>
</defs>
<path d="M725,111.3h79V33.4H725v77.9Z" class="g0_292"/>
<path d="M144.7,169.2c0,0,-13,0,-13,13V1185.1c0,0,0,13,13,13H832.5c0,0,13,0,13,-13V182.2c0,0,0,-13,-13,-13H144.7Z" class="g1_292"/>
<image clip-path="url(#c0_292)" preserveAspectRatio="none" x="226" y="483" width="556" height="46" xlink:href="img/1.jpg"/>
<image clip-path="url(#c1_292)" preserveAspectRatio="none" x="226" y="528" width="47" height="504" xlink:href="img/2.jpg"/>
<image clip-path="url(#c2_292)" preserveAspectRatio="none" x="735" y="528" width="47" height="504" xlink:href="img/3.jpg"/>
<image clip-path="url(#c3_292)" preserveAspectRatio="none" x="272" y="1023" width="463" height="9" xlink:href="img/4.jpg"/>
<image clip-path="url(#c4_292)" preserveAspectRatio="none" x="781" y="971" width="15" height="53" xlink:href="img/5.jpg"/>
<image clip-path="url(#c5_292)" preserveAspectRatio="none" x="772" y="971" width="9" height="53" xlink:href="img/6.jpg"/>
<image clip-path="url(#c6_292)" x="226" y="482" width="547" height="542" xlink:href="shade/1.png"/>
<image clip-path="url(#c7_292)" preserveAspectRatio="none" x="480" y="483" width="1" height="1" xlink:href="img/7.png"/>
<image clip-path="url(#c8_292)" preserveAspectRatio="none" x="434" y="482" width="242" height="226" xlink:href="img/8.jpg"/>
<image clip-path="url(#c9_292)" preserveAspectRatio="none" x="676" y="482" width="97" height="542" xlink:href="img/9.jpg"/>
<image clip-path="url(#ca_292)" preserveAspectRatio="none" x="386" y="573" width="49" height="451" xlink:href="img/10.jpg"/>
<image clip-path="url(#cb_292)" preserveAspectRatio="none" x="434" y="708" width="242" height="226" xlink:href="img/11.jpg"/>
<image clip-path="url(#cc_292)" preserveAspectRatio="none" x="338" y="798" width="49" height="226" xlink:href="img/12.jpg"/>
<image clip-path="url(#cd_292)" preserveAspectRatio="none" x="434" y="933" width="242" height="91" xlink:href="img/13.jpg"/>
<path d="M226.7,526.6H753.4v-7.9H226.7v7.9Z" class="g2_292"/>
<path d="M226.7,534.6H753.4v-3.1H226.7v3.1Z" class="g2_292"/>
<path d="M548.2,703.4V672c33.6,0,61.2,9.5,69.3,23.8Z" class="g3_292"/>
<path d="M548.2,703V671.7c33.6,0,61.2,9.4,69.3,23.7Z" class="g4_292"/>
<path d="M548.2,702.6V671.3c33.6,0,61.2,9.5,69.3,23.8Z" class="g5_292"/>
<path d="M548.2,702.3V670.9c33.6,0,61.2,9.5,69.3,23.8Z" class="g6_292"/>
<path d="M548.2,701.9V670.5c33.6,0,61.2,9.5,69.3,23.8Z" class="g7_292"/>
<path d="M548.2,701.5V670.2c33.6,0,61.2,9.4,69.3,23.7Z" class="g8_292"/>
<path d="M548.2,701.1V669.8c33.6,0,61.2,9.4,69.3,23.7Z" class="g9_292"/>
<path d="M548.2,700.8V669.4c33.6,0,61.2,9.5,69.3,23.8Z" class="ga_292"/>
<path d="M548.2,700.4V669c33.6,0,61.2,9.5,69.3,23.8Z" class="gb_292"/>
<path d="M548.2,700V668.6c33.6,0,61.2,9.5,69.3,23.8Z" class="gc_292"/>
<path d="M548.2,699.6V668.3c33.6,0,61.2,9.4,69.3,23.7Z" class="gd_292"/>
<path d="M548.2,699.2V667.9c33.6,0,61.2,9.5,69.3,23.8Z" class="ge_292"/>
<path d="M548.2,698.9V667.5c33.6,0,61.2,9.5,69.3,23.8Z" class="gf_292"/>
<path d="M548.2,698.5V667.1c33.6,0,61.2,9.5,69.3,23.8Z" class="gg_292"/>
<path d="M548.2,698.1V666.7c33.6,0,61.2,9.5,69.3,23.8Z" class="gh_292"/>
<path d="M548.2,697.7V666.4c33.6,0,61.2,9.4,69.3,23.7Z" class="gi_292"/>
<path d="M548.2,697.3V666c33.6,0,61.2,9.5,69.3,23.8Z" class="gj_292"/>
<path d="M548.2,697V665.6c33.6,0,61.2,9.5,69.3,23.8Z" class="gk_292"/>
<path d="M548.2,696.6V665.2c33.6,0,61.2,9.5,69.3,23.8Z" class="gl_292"/>
<path d="M548.2,696.2V664.9c33.6,0,61.2,9.4,69.3,23.7Z" class="gm_292"/>
<path d="M548.2,695.8V664.5c33.6,0,61.2,9.4,69.3,23.8Z" class="gn_292"/>
<path d="M548.2,695.5V664.1c33.6,0,61.2,9.5,69.3,23.8Z" class="go_292"/>
<path d="M548.2,695.1V663.7c33.6,0,61.2,9.5,69.3,23.8Z" class="gp_292"/>
<path d="M548.2,694.7V663.3c33.6,0,61.2,9.5,69.3,23.8Z" class="gq_292"/>
<path d="M548.2,694.3V663c33.6,0,61.2,9.4,69.3,23.7Z" class="gr_292"/>
<path d="M548.2,693.9V662.6c33.6,0,61.2,9.5,69.3,23.8Z" class="gs_292"/>
<path d="M548.2,693.6V662.2c33.6,0,61.2,9.5,69.3,23.8Z" class="gt_292"/>
<path d="M548.2,693.2V661.8c33.6,0,61.2,9.5,69.3,23.8Z" class="gu_292"/>
<path d="M548.2,692.8V661.4c33.6,0,61.2,9.5,69.3,23.8Z" class="gv_292"/>
<path d="M548.2,692.4V661.1c33.6,0,61.2,9.4,69.3,23.7Z" class="gw_292"/>
<path d="M548.2,692.1V660.7c33.6,0,61.2,9.5,69.3,23.8Z" class="gx_292"/>
<path d="M548.2,691.7V660.3c33.6,0,61.2,9.5,69.3,23.8Z" class="gy_292"/>
<path d="M544.1,702.6L489.3,682.5c14.1,-7.4,32.9,-11.2,54.8,-11.2Z" class="gz_292"/>
<path d="M544.1,702.2L489.3,682.1c14.1,-7.4,32.9,-11.2,54.8,-11.2Z" class="g10_292"/>
<path d="M544.1,701.9L489.3,681.7c14.1,-7.4,32.9,-11.2,54.8,-11.2Z" class="g11_292"/>
<path d="M544.1,701.5L489.3,681.3c14.1,-7.3,32.9,-11.2,54.8,-11.2Z" class="g12_292"/>
<path d="M544.1,701.1L489.3,681c14.1,-7.4,32.9,-11.2,54.8,-11.2Z" class="g13_292"/>
<path d="M544.1,700.7L489.3,680.6c14.1,-7.4,32.9,-11.2,54.8,-11.2Z" class="g14_292"/>
<path d="M544.1,700.4L489.3,680.2C503.4,672.8,522.2,669,544.1,669Z" class="g15_292"/>
<path d="M544.1,700L489.3,679.8c14.1,-7.3,32.9,-11.2,54.8,-11.2Z" class="g16_292"/>
<path d="M544.1,699.6L489.3,679.4c14.1,-7.3,32.9,-11.2,54.8,-11.2Z" class="g17_292"/>
<path d="M544.1,699.2L489.3,679.1c14.1,-7.4,32.9,-11.2,54.8,-11.2Z" class="g18_292"/>
<path d="M544.1,698.8L489.3,678.7c14.1,-7.4,32.9,-11.2,54.8,-11.2Z" class="g19_292"/>
<path d="M544.1,698.5L489.3,678.3c14.1,-7.4,32.9,-11.2,54.8,-11.2Z" class="g1a_292"/>
<path d="M544.1,698.1L489.3,677.9c14.1,-7.3,32.9,-11.2,54.8,-11.2Z" class="g1b_292"/>
<path d="M544.1,697.7L489.3,677.5c14.1,-7.3,32.9,-11.2,54.8,-11.2Z" class="g1c_292"/>
<path d="M544.1,697.3L489.3,677.2C503.4,669.8,522.2,666,544.1,666Z" class="g1d_292"/>
<path d="M544.1,697L489.3,676.8c14.1,-7.4,32.9,-11.2,54.8,-11.2Z" class="g1e_292"/>
<path d="M544.1,696.6L489.3,676.4c14.1,-7.4,32.9,-11.2,54.8,-11.2Z" class="g1f_292"/>
<path d="M544.1,696.2L489.3,676c14.1,-7.3,32.9,-11.2,54.8,-11.2Z" class="g1g_292"/>
<path d="M544.1,695.8L489.3,675.7c14.1,-7.4,32.9,-11.2,54.8,-11.2Z" class="g1h_292"/>
<path d="M544.1,695.4L489.3,675.3c14.1,-7.4,32.9,-11.2,54.8,-11.2Z" class="g1i_292"/>
<path d="M544.1,695.1L489.3,674.9c14.1,-7.4,32.9,-11.2,54.8,-11.2Z" class="g1j_292"/>
<path d="M544.1,694.7L489.3,674.5c14.1,-7.3,32.9,-11.2,54.8,-11.2Z" class="g1k_292"/>
<path d="M544.1,694.3L489.3,674.1c14.1,-7.3,32.9,-11.2,54.8,-11.2Z" class="g1l_292"/>
<path d="M544.1,693.9L489.3,673.8c14.1,-7.4,32.9,-11.2,54.8,-11.2Z" class="g1m_292"/>
<path d="M544.1,693.5L489.3,673.4c14.1,-7.4,32.9,-11.2,54.8,-11.2Z" class="g1n_292"/>
<path d="M544.1,693.2L489.3,673c14.1,-7.4,32.9,-11.2,54.8,-11.2Z" class="g1o_292"/>
<path d="M544.1,692.8L489.3,672.6c14.1,-7.3,32.9,-11.2,54.8,-11.2Z" class="g1p_292"/>
<path d="M544.1,692.4L489.3,672.2C503.4,664.9,522.2,661,544.1,661Z" class="g1q_292"/>
<path d="M544.1,692L489.3,671.9c14.1,-7.4,32.9,-11.2,54.8,-11.2Z" class="g1r_292"/>
<path d="M544.1,691.7L489.3,671.5c14.1,-7.4,32.9,-11.2,54.8,-11.2Z" class="g1s_292"/>
<path d="M544.1,691.3L489.3,671.1c14.1,-7.4,32.9,-11.2,54.8,-11.2Z" class="g1t_292"/>
<path d="M539.9,705.7L476.2,720c-13.2,-11.4,-9.8,-24.6,9,-34.4Z" class="g1u_292"/>
<path d="M539.9,705.4l-63.7,14.2c-13.2,-11.4,-9.8,-24.6,9,-34.4Z" class="g1v_292"/>
<path d="M539.9,705l-63.7,14.2c-13.2,-11.4,-9.8,-24.6,9,-34.4Z" class="g1w_292"/>
<path d="M539.9,704.6l-63.7,14.2c-13.2,-11.4,-9.8,-24.5,9,-34.4Z" class="g1x_292"/>
<path d="M539.9,704.2l-63.7,14.3c-13.2,-11.5,-9.8,-24.6,9,-34.4Z" class="g1y_292"/>
<path d="M539.9,703.8l-63.7,14.3c-13.2,-11.4,-9.8,-24.6,9,-34.4Z" class="g1z_292"/>
<path d="M539.9,703.5l-63.7,14.2c-13.2,-11.4,-9.8,-24.6,9,-34.4Z" class="g20_292"/>
<path d="M539.9,703.1l-63.7,14.2c-13.2,-11.4,-9.8,-24.6,9,-34.4Z" class="g21_292"/>
<path d="M539.9,702.7L476.2,717c-13.2,-11.5,-9.8,-24.6,9,-34.5Z" class="g22_292"/>
<path d="M539.9,702.3l-63.7,14.3c-13.2,-11.5,-9.8,-24.6,9,-34.4Z" class="g23_292"/>
<path d="M539.9,702l-63.7,14.2c-13.2,-11.4,-9.8,-24.6,9,-34.4Z" class="g24_292"/>
<path d="M539.9,701.6l-63.7,14.2c-13.2,-11.4,-9.8,-24.6,9,-34.4Z" class="g25_292"/>
<path d="M539.9,701.2l-63.7,14.2C463,704,466.4,690.9,485.2,681Z" class="g26_292"/>
<path d="M539.9,700.8l-63.7,14.3c-13.2,-11.5,-9.8,-24.6,9,-34.4Z" class="g27_292"/>
<path d="M539.9,700.4l-63.7,14.3c-13.2,-11.4,-9.8,-24.6,9,-34.4Z" class="g28_292"/>
<path d="M539.9,700.1l-63.7,14.2c-13.2,-11.4,-9.8,-24.6,9,-34.4Z" class="g29_292"/>
<path d="M539.9,699.7l-63.7,14.2c-13.2,-11.4,-9.8,-24.6,9,-34.4Z" class="g2a_292"/>
<path d="M539.9,699.3l-63.7,14.2c-13.2,-11.4,-9.8,-24.5,9,-34.4Z" class="g2b_292"/>
<path d="M539.9,698.9l-63.7,14.3c-13.2,-11.5,-9.8,-24.6,9,-34.4Z" class="g2c_292"/>
<path d="M539.9,698.5l-63.7,14.3c-13.2,-11.4,-9.8,-24.6,9,-34.4Z" class="g2d_292"/>
<path d="M539.9,698.2l-63.7,14.2C463,701,466.4,687.8,485.2,678Z" class="g2e_292"/>
<path d="M539.9,697.8L476.2,712c-13.2,-11.4,-9.8,-24.6,9,-34.4Z" class="g2f_292"/>
<path d="M539.9,697.4l-63.7,14.3c-13.2,-11.5,-9.8,-24.6,9,-34.4Z" class="g2g_292"/>
<path d="M539.9,697l-63.7,14.3c-13.2,-11.5,-9.8,-24.6,9,-34.4Z" class="g2h_292"/>
<path d="M539.9,696.7l-63.7,14.2c-13.2,-11.4,-9.8,-24.6,9,-34.4Z" class="g2i_292"/>
<path d="M539.9,696.3l-63.7,14.2c-13.2,-11.4,-9.8,-24.6,9,-34.4Z" class="g2j_292"/>
<path d="M539.9,695.9l-63.7,14.2c-13.2,-11.4,-9.8,-24.5,9,-34.4Z" class="g2k_292"/>
<path d="M539.9,695.5l-63.7,14.3c-13.2,-11.5,-9.8,-24.6,9,-34.4Z" class="g2l_292"/>
<path d="M539.9,695.1l-63.7,14.3C463,698,466.4,684.8,485.2,675Z" class="g2m_292"/>
<path d="M549.1,707.3l69.3,-7.6c8.1,14.3,-7,28.8,-36.9,35.5Z" class="g2n_292"/>
<path d="M549.1,706.9l69.3,-7.6c8.1,14.3,-7,28.9,-36.9,35.6Z" class="g2o_292"/>
<path d="M549.1,706.5l69.3,-7.6c8.1,14.4,-7,28.9,-36.9,35.6Z" class="g2p_292"/>
<path d="M549.1,706.2l69.3,-7.6c8.1,14.3,-7,28.8,-36.9,35.5Z" class="g2q_292"/>
<path d="M549.1,705.8l69.3,-7.6c8.1,14.3,-7,28.8,-36.9,35.5Z" class="g2r_292"/>
<path d="M549.1,705.4l69.3,-7.6c8.1,14.3,-7,28.9,-36.9,35.5Z" class="g2s_292"/>
<path d="M549.1,705l69.3,-7.6c8.1,14.3,-7,28.9,-36.9,35.6Z" class="g2t_292"/>
<path d="M549.1,704.6l69.3,-7.5c8.1,14.3,-7,28.8,-36.9,35.5Z" class="g2u_292"/>
<path d="M549.1,703.9l69.3,-7.6c8.1,14.3,-7,28.8,-36.9,35.5Z" class="g2v_292"/>
<path d="M549.1,703.5l69.3,-7.6c8.1,14.3,-7,28.9,-36.9,35.6Z" class="g2w_292"/>
<path d="M549.1,703.1l69.3,-7.6c8.1,14.3,-7,28.9,-36.9,35.6Z" class="g2x_292"/>
<path d="M549.1,702.8l69.3,-7.6c8.1,14.3,-7,28.8,-36.9,35.5Z" class="g2y_292"/>
<path d="M549.1,702.4l69.3,-7.6c8.1,14.3,-7,28.8,-36.9,35.5Z" class="g2z_292"/>
<path d="M549.1,702l69.3,-7.6c8.1,14.3,-7,28.9,-36.9,35.5Z" class="g30_292"/>
<path d="M549.1,701.6L618.4,694c8.1,14.3,-7,28.9,-36.9,35.6Z" class="g31_292"/>
<path d="M549.1,701.2l69.3,-7.5c8.1,14.3,-7,28.8,-36.9,35.5Z" class="g32_292"/>
<path d="M549.1,700.9l69.3,-7.6c8.1,14.3,-7,28.8,-36.9,35.5Z" class="g33_292"/>
<path d="M549.1,700.5l69.3,-7.6c8.1,14.3,-7,28.8,-36.9,35.5Z" class="g34_292"/>
<path d="M549.1,700.1l69.3,-7.6c8.1,14.3,-7,28.9,-36.9,35.6Z" class="g35_292"/>
<path d="M549.1,699.7l69.3,-7.6c8.1,14.3,-7,28.9,-36.9,35.6Z" class="g36_292"/>
<path d="M549.1,699.3l69.3,-7.5c8.1,14.3,-7,28.8,-36.9,35.5Z" class="g37_292"/>
<path d="M549.1,699l69.3,-7.6c8.1,14.3,-7,28.8,-36.9,35.5Z" class="g38_292"/>
<path d="M549.1,698.6L618.4,691c8.1,14.3,-7,28.8,-36.9,35.5Z" class="g39_292"/>
<path d="M543.2,708.8l32.4,28c-35.1,7.9,-78.1,1.7,-96,-13.7Z" class="g3a_292"/>
<path d="M543.2,708.5l32.4,27.9c-35.1,7.9,-78.1,1.7,-96,-13.7Z" class="g3b_292"/>
<path d="M543.2,708.1L575.6,736c-35.1,7.9,-78.1,1.8,-96,-13.7Z" class="g3c_292"/>
<path d="M543.2,707.7l32.4,28c-35.1,7.8,-78.1,1.7,-96,-13.7Z" class="g3d_292"/>
<path d="M543.2,707.3l32.4,28c-35.1,7.8,-78.1,1.7,-96,-13.7Z" class="g3e_292"/>
<path d="M543.2,707l32.4,27.9c-35.1,7.9,-78.1,1.7,-96,-13.7Z" class="g3f_292"/>
<path d="M543.2,706.6l32.4,27.9c-35.1,7.9,-78.1,1.8,-96,-13.7Z" class="g3g_292"/>
<path d="M543.2,706.2l32.4,27.9c-35.1,7.9,-78.1,1.8,-96,-13.7Z" class="g3h_292"/>
<path d="M543.2,705.8l32.4,28c-35.1,7.8,-78.1,1.7,-96,-13.7Z" class="g3i_292"/>
<path d="M543.2,705.4l32.4,28c-35.1,7.9,-78.1,1.7,-96,-13.7Z" class="g3j_292"/>
<path d="M543.2,705.1L575.6,733c-35.1,7.9,-78.1,1.7,-96,-13.7Z" class="g3k_292"/>
<path d="M543.2,704.7l32.4,27.9c-35.1,7.9,-78.1,1.8,-96,-13.7Z" class="g3l_292"/>
<path d="M543.2,704.3l32.4,28c-35.1,7.8,-78.1,1.7,-96,-13.8Z" class="g3m_292"/>
<path d="M543.2,703.9l32.4,28c-35.1,7.8,-78.1,1.7,-96,-13.7Z" class="g3n_292"/>
<path d="M543.2,703.5l32.4,28c-35.1,7.9,-78.1,1.7,-96,-13.7Z" class="g3o_292"/>
<path d="M543.2,703.2l32.4,27.9c-35.1,7.9,-78.1,1.7,-96,-13.7Z" class="g3p_292"/>
<path d="M543.2,702.8l32.4,27.9c-35.1,7.9,-78.1,1.8,-96,-13.7Z" class="g3q_292"/>
<path d="M543.2,702.4l32.4,28c-35.1,7.8,-78.1,1.7,-96,-13.7Z" class="g3r_292"/>
<path d="M543.2,702l32.4,28c-35.1,7.8,-78.1,1.7,-96,-13.7Z" class="g3s_292"/>
<path d="M543.2,701.7l32.4,27.9c-35.1,7.9,-78.1,1.7,-96,-13.7Z" class="g3t_292"/>
<path d="M543.2,701.3l32.4,27.9c-35.1,7.9,-78.1,1.8,-96,-13.7Z" class="g3u_292"/>
<path d="M543.2,700.9l32.4,27.9c-35.1,7.9,-78.1,1.8,-96,-13.7Z" class="g3v_292"/>
<path d="M543.2,700.5l32.4,28c-35.1,7.8,-78.1,1.7,-96,-13.7Z" class="g3w_292"/>
<path d="M543.2,700.1l32.4,28c-35.1,7.9,-78.1,1.7,-96,-13.7Z" class="g3x_292"/>
<path d="M543.2,699.8l32.4,27.9c-35.1,7.9,-78.1,1.7,-96,-13.7Z" class="g3y_292"/>
<path d="M543.2,699.4l32.4,27.9c-35.1,7.9,-78.1,1.8,-96,-13.7Z" class="g3z_292"/>
<path d="M543.2,699l32.4,28c-35.1,7.8,-78.1,1.7,-96,-13.8Z" class="g40_292"/>
<path d="M543.2,698.6l32.4,28c-35.1,7.8,-78.1,1.7,-96,-13.7Z" class="g41_292"/>
<path d="M543.2,698.3l32.4,27.9c-35.1,7.9,-78.1,1.7,-96,-13.7Z" class="g42_292"/>
<path d="M543.2,697.9l32.4,27.9c-35.1,7.9,-78.1,1.7,-96,-13.7Z" class="g43_292"/>
<image clip-path="url(#ce_292)" preserveAspectRatio="none" x="212" y="255" width="569" height="51" xlink:href="img/14.jpg"/>
<image clip-path="url(#cf_292)" preserveAspectRatio="none" x="733" y="305" width="48" height="556" xlink:href="img/15.jpg"/>
<image clip-path="url(#cg_292)" x="245" y="255" width="528" height="539" xlink:href="shade/2.png"/>
<image clip-path="url(#ch_292)" preserveAspectRatio="none" x="426" y="254" width="248" height="250" xlink:href="img/16.jpg"/>
<image clip-path="url(#ci_292)" preserveAspectRatio="none" x="673" y="254" width="100" height="598" xlink:href="img/17.jpg"/>
<image clip-path="url(#cj_292)" preserveAspectRatio="none" x="376" y="354" width="50" height="498" xlink:href="img/18.jpg"/>
<image clip-path="url(#ck_292)" preserveAspectRatio="none" x="426" y="503" width="248" height="250" xlink:href="img/19.jpg"/>
<image clip-path="url(#cl_292)" preserveAspectRatio="none" x="326" y="603" width="51" height="249" xlink:href="img/20.jpg"/>
<image clip-path="url(#cm_292)" preserveAspectRatio="none" x="426" y="752" width="248" height="100" xlink:href="img/21.jpg"/>
<g clip-path="url(#cn_292)">
<path d="M212.7,303.3H752.3v-8.7H212.7v8.7Z" class="g2_292"/>
<path d="M212.7,312.1H752.3v-3.3H212.7v3.3Z" class="g2_292"/>
</g>
<path d="M449.2,570.3H742V416.9H449.2V570.3Z" class="g44_292"/>
<path d="M451.5,570.3H742V416.9H451.5V570.3Zm292.8,2.1H449.2V414.8H744.3V572.4Z" class="g45_292"/>
<path d="M542.1,498.5V463.9c34.4,0,62.7,10.4,71,26.2Z" class="g3_292"/>
<path d="M542.1,498.1V463.5c34.4,0,62.7,10.4,71,26.2Z" class="g4_292"/>
<path d="M542.1,497.7V463c34.4,0,62.7,10.5,71,26.3Z" class="g5_292"/>
<path d="M542.1,497.3V462.6c34.4,0,62.7,10.5,71,26.3Z" class="g6_292"/>
<path d="M542.1,496.8V462.2c34.4,0,62.7,10.5,71,26.3Z" class="g7_292"/>
<path d="M542.1,496.4V461.8c34.4,0,62.7,10.4,71,26.2Z" class="g8_292"/>
<path d="M542.1,496V461.4c34.4,0,62.7,10.4,71,26.2Z" class="g9_292"/>
<path d="M542.1,495.6V461c34.4,0,62.7,10.4,71,26.2Z" class="ga_292"/>
<path d="M542.1,495.2V460.5c34.4,0,62.7,10.5,71,26.3Z" class="gb_292"/>
<path d="M542.1,494.7V460.1c34.4,0,62.7,10.5,71,26.3Z" class="gc_292"/>
<path d="M542.1,494.3V459.7c34.4,0,62.7,10.5,71,26.3Z" class="gd_292"/>
<path d="M542.1,493.9V459.3c34.4,0,62.7,10.4,71,26.2Z" class="ge_292"/>
<path d="M542.1,493.5V458.9c34.4,0,62.7,10.4,71,26.2Z" class="gf_292"/>
<path d="M542.1,493.1V458.5c34.4,0,62.7,10.4,71,26.2Z" class="gg_292"/>
<path d="M542.1,492.7V458c34.4,0,62.7,10.5,71,26.3Z" class="gh_292"/>
<path d="M542.1,492.2V457.6c34.4,0,62.7,10.5,71,26.3Z" class="gi_292"/>
<path d="M542.1,491.8V457.2c34.4,0,62.7,10.5,71,26.2Z" class="gj_292"/>
<path d="M542.1,491.4V456.8c34.4,0,62.7,10.4,71,26.2Z" class="gk_292"/>
<path d="M542.1,491V456.4c34.4,0,62.7,10.4,71,26.2Z" class="gl_292"/>
<path d="M542.1,490.6V455.9c34.4,0,62.7,10.5,71,26.3Z" class="gm_292"/>
<path d="M542.1,490.1V455.5c34.4,0,62.7,10.5,71,26.3Z" class="gn_292"/>
<path d="M542.1,489.7V455.1c34.4,0,62.7,10.5,71,26.3Z" class="go_292"/>
<path d="M542.1,489.3V454.7c34.4,0,62.7,10.5,71,26.2Z" class="gp_292"/>
<path d="M542.1,488.9V454.3c34.4,0,62.7,10.4,71,26.2Z" class="gq_292"/>
<path d="M542.1,488.5V453.9c34.4,0,62.7,10.4,71,26.2Z" class="gr_292"/>
<path d="M542.1,488.1V453.4c34.4,0,62.7,10.5,71,26.3Z" class="gs_292"/>
<path d="M542.1,487.6V453c34.4,0,62.7,10.5,71,26.3Z" class="gt_292"/>
<path d="M542.1,487.2V452.6c34.4,0,62.7,10.5,71,26.2Z" class="gu_292"/>
<path d="M542.1,486.8V452.2c34.4,0,62.7,10.4,71,26.2Z" class="gv_292"/>
<path d="M542.1,486.4V451.8c34.4,0,62.7,10.4,71,26.2Z" class="gw_292"/>
<path d="M542.1,486V451.4c34.4,0,62.7,10.4,71,26.2Z" class="gx_292"/>
<path d="M542.1,485.6V450.9c34.4,0,62.7,10.5,71,26.3Z" class="gy_292"/>
<path d="M537.8,497.6l-56,-22.2c14.4,-8.1,33.6,-12.4,56,-12.4Z" class="gz_292"/>
<path d="M537.8,497.2L481.8,475c14.4,-8.2,33.6,-12.4,56,-12.4Z" class="g10_292"/>
<path d="M537.8,496.8l-56,-22.2c14.4,-8.2,33.6,-12.4,56,-12.4Z" class="g11_292"/>
<path d="M537.8,496.4l-56,-22.3c14.4,-8.1,33.6,-12.3,56,-12.3Z" class="g12_292"/>
<path d="M537.8,496l-56,-22.3c14.4,-8.1,33.6,-12.3,56,-12.3Z" class="g13_292"/>
<path d="M537.8,495.6l-56,-22.3c14.4,-8.1,33.6,-12.4,56,-12.4Z" class="g14_292"/>
<path d="M537.8,495.1l-56,-22.2c14.4,-8.1,33.6,-12.4,56,-12.4Z" class="g15_292"/>
<path d="M537.8,494.7l-56,-22.2c14.4,-8.2,33.6,-12.4,56,-12.4Z" class="g16_292"/>
<path d="M537.8,494.3L481.8,472c14.4,-8.1,33.6,-12.3,56,-12.3Z" class="g17_292"/>
<path d="M537.8,493.9l-56,-22.3c14.4,-8.1,33.6,-12.3,56,-12.3Z" class="g18_292"/>
<path d="M537.8,493.5l-56,-22.3c14.4,-8.1,33.6,-12.4,56,-12.4Z" class="g19_292"/>
<path d="M537.8,493l-56,-22.2c14.4,-8.1,33.6,-12.4,56,-12.4Z" class="g1a_292"/>
<path d="M537.8,492.6l-56,-22.2c14.4,-8.2,33.6,-12.4,56,-12.4Z" class="g1b_292"/>
<path d="M537.8,492.2L481.8,470c14.4,-8.2,33.6,-12.4,56,-12.4Z" class="g1c_292"/>
<path d="M537.8,491.8l-56,-22.3c14.4,-8.1,33.6,-12.3,56,-12.3Z" class="g1d_292"/>
<path d="M537.8,491.4l-56,-22.3c14.4,-8.1,33.6,-12.3,56,-12.3Z" class="g1e_292"/>
<path d="M537.8,491l-56,-22.3c14.4,-8.1,33.6,-12.4,56,-12.4Z" class="g1f_292"/>
<path d="M537.8,490.5l-56,-22.2c14.4,-8.1,33.6,-12.4,56,-12.4Z" class="g1g_292"/>
<path d="M537.8,490.1l-56,-22.2c14.4,-8.2,33.6,-12.4,56,-12.4Z" class="g1h_292"/>
<path d="M537.8,489.7l-56,-22.2c14.4,-8.2,33.6,-12.4,56,-12.4Z" class="g1i_292"/>
<path d="M537.8,489.3L481.8,467c14.4,-8.1,33.6,-12.3,56,-12.3Z" class="g1j_292"/>
<path d="M537.8,488.9l-56,-22.3c14.4,-8.1,33.6,-12.3,56,-12.3Z" class="g1k_292"/>
<path d="M537.8,488.5l-56,-22.3c14.4,-8.1,33.6,-12.4,56,-12.4Z" class="g1l_292"/>
<path d="M537.8,488l-56,-22.2c14.4,-8.1,33.6,-12.4,56,-12.4Z" class="g1m_292"/>
<path d="M537.8,487.6l-56,-22.2c14.4,-8.2,33.6,-12.4,56,-12.4Z" class="g1n_292"/>
<path d="M537.8,487.2l-56,-22.3c14.4,-8.1,33.6,-12.3,56,-12.3Z" class="g1o_292"/>
<path d="M537.8,486.8l-56,-22.3c14.4,-8.1,33.6,-12.3,56,-12.3Z" class="g1p_292"/>
<path d="M537.8,486.4l-56,-22.3c14.4,-8.1,33.6,-12.4,56,-12.4Z" class="g1q_292"/>
<path d="M537.8,486l-56,-22.3c14.4,-8.1,33.6,-12.4,56,-12.4Z" class="g1r_292"/>
<path d="M537.8,485.5l-56,-22.2c14.4,-8.1,33.6,-12.4,56,-12.4Z" class="g1s_292"/>
<path d="M537.8,485.1l-56,-22.2c14.4,-8.2,33.6,-12.4,56,-12.4Z" class="g1t_292"/>
<path d="M537.8,484.7l-56,-22.3c14.4,-8.1,33.6,-12.3,56,-12.3Z" class="g46_292"/>
<path d="M533.6,501.1l-65.2,15.7c-13.6,-12.6,-10.1,-27.1,9.1,-38Z" class="g1u_292"/>
<path d="M533.6,500.7l-65.2,15.7c-13.6,-12.6,-10.1,-27.2,9.1,-38Z" class="g1v_292"/>
<path d="M533.6,500.2L468.4,516c-13.6,-12.7,-10.1,-27.2,9.1,-38Z" class="g1w_292"/>
<path d="M533.6,499.8l-65.2,15.7c-13.6,-12.6,-10.1,-27.1,9.1,-37.9Z" class="g1x_292"/>
<path d="M533.6,499.4l-65.2,15.7C454.8,502.5,458.3,488,477.5,477.2Z" class="g1y_292"/>
<path d="M533.6,499l-65.2,15.7c-13.6,-12.6,-10.1,-27.1,9.1,-38Z" class="g1z_292"/>
<path d="M533.6,498.6l-65.2,15.7c-13.6,-12.6,-10.1,-27.1,9.1,-38Z" class="g20_292"/>
<path d="M533.6,498.2l-65.2,15.7c-13.6,-12.6,-10.1,-27.2,9.1,-38Z" class="g21_292"/>
<path d="M533.6,497.7l-65.2,15.8c-13.6,-12.7,-10.1,-27.2,9.1,-38Z" class="g22_292"/>
<path d="M533.6,497.3L468.4,513c-13.6,-12.6,-10.1,-27.1,9.1,-37.9Z" class="g23_292"/>
<path d="M533.6,496.9l-65.2,15.7c-13.6,-12.6,-10.1,-27.1,9.1,-38Z" class="g24_292"/>
<path d="M533.6,496.5l-65.2,15.7c-13.6,-12.6,-10.1,-27.1,9.1,-38Z" class="g25_292"/>
<path d="M533.6,496.1l-65.2,15.7c-13.6,-12.6,-10.1,-27.1,9.1,-38Z" class="g26_292"/>
<path d="M533.6,495.6l-65.2,15.8c-13.6,-12.6,-10.1,-27.2,9.1,-38Z" class="g27_292"/>
<path d="M533.6,495.2l-65.2,15.7C454.8,498.3,458.3,483.8,477.5,473Z" class="g28_292"/>
<path d="M533.6,494.8l-65.2,15.7c-13.6,-12.6,-10.1,-27.1,9.1,-37.9Z" class="g29_292"/>
<path d="M533.6,494.4l-65.2,15.7c-13.6,-12.6,-10.1,-27.1,9.1,-38Z" class="g2a_292"/>
<path d="M533.6,494l-65.2,15.7c-13.6,-12.6,-10.1,-27.1,9.1,-38Z" class="g2b_292"/>
<path d="M533.6,493.6l-65.2,15.7c-13.6,-12.6,-10.1,-27.2,9.1,-38Z" class="g2c_292"/>
<path d="M533.6,493.1l-65.2,15.8c-13.6,-12.7,-10.1,-27.2,9.1,-38Z" class="g2d_292"/>
<path d="M533.6,492.7l-65.2,15.7c-13.6,-12.6,-10.1,-27.1,9.1,-37.9Z" class="g2e_292"/>
<path d="M533.6,492.3L468.4,508c-13.6,-12.6,-10.1,-27.1,9.1,-38Z" class="g2f_292"/>
<path d="M533.6,491.9l-65.2,15.7c-13.6,-12.6,-10.1,-27.1,9.1,-38Z" class="g2g_292"/>
<path d="M533.6,491.5l-65.2,15.7c-13.6,-12.6,-10.1,-27.1,9.1,-38Z" class="g2h_292"/>
<path d="M533.6,491.1l-65.2,15.7c-13.6,-12.6,-10.1,-27.2,9.1,-38Z" class="g2i_292"/>
<path d="M533.6,490.6l-65.2,15.7c-13.6,-12.6,-10.1,-27.1,9.1,-37.9Z" class="g2j_292"/>
<path d="M533.6,490.2l-65.2,15.7C454.8,493.3,458.3,478.8,477.5,468Z" class="g2k_292"/>
<path d="M533.6,489.8l-65.2,15.7c-13.6,-12.6,-10.1,-27.1,9.1,-38Z" class="g2l_292"/>
<path d="M533.6,489.4l-65.2,15.7c-13.6,-12.6,-10.1,-27.1,9.1,-38Z" class="g2m_292"/>
<path d="M533.6,489l-65.2,15.7c-13.6,-12.6,-10.1,-27.2,9.1,-38Z" class="g47_292"/>
<path d="M533.6,488.5l-65.2,15.8c-13.6,-12.6,-10.1,-27.2,9.1,-38Z" class="g48_292"/>
<path d="M533.6,488.1l-65.2,15.8c-13.6,-12.7,-10.1,-27.2,9.1,-38Z" class="g49_292"/>
<path d="M543,502.8l71,-8.4c8.3,15.8,-7.1,31.9,-37.8,39.2Z" class="g2n_292"/>
<path d="M543,502.4L614,494c8.3,15.8,-7.1,31.8,-37.8,39.2Z" class="g2o_292"/>
<path d="M543,502l71,-8.4c8.3,15.8,-7.1,31.8,-37.8,39.2Z" class="g2p_292"/>
<path d="M543,501.5l71,-8.3c8.3,15.7,-7.1,31.8,-37.8,39.2Z" class="g2q_292"/>
<path d="M543,501.1l71,-8.4c8.3,15.8,-7.1,31.9,-37.8,39.3Z" class="g2r_292"/>
<path d="M543,500.7l71,-8.4c8.3,15.8,-7.1,31.9,-37.8,39.2Z" class="g2s_292"/>
<path d="M543,500.3l71,-8.4c8.3,15.8,-7.1,31.8,-37.8,39.2Z" class="g2t_292"/>
<path d="M543,499.9l71,-8.4c8.3,15.8,-7.1,31.8,-37.8,39.2Z" class="g2u_292"/>
<path d="M543,499.5l71,-8.4c8.3,15.8,-7.1,31.8,-37.8,39.2Z" class="g4a_292"/>
<path d="M543,499l71,-8.3c8.3,15.7,-7.1,31.8,-37.8,39.2Z" class="g2v_292"/>
<path d="M543,498.6l71,-8.4c8.3,15.8,-7.1,31.9,-37.8,39.3Z" class="g2w_292"/>
<path d="M543,498.2l71,-8.4c8.3,15.8,-7.1,31.9,-37.8,39.2Z" class="g2x_292"/>
<path d="M543,497.8l71,-8.4c8.3,15.8,-7.1,31.8,-37.8,39.2Z" class="g2y_292"/>
<path d="M543,497.4L614,489c8.3,15.8,-7.1,31.8,-37.8,39.2Z" class="g2z_292"/>
<path d="M543,496.9l71,-8.3c8.3,15.8,-7.1,31.8,-37.8,39.2Z" class="g30_292"/>
<path d="M543,496.5l71,-8.3c8.3,15.7,-7.1,31.8,-37.8,39.2Z" class="g31_292"/>
<path d="M543,496.1l71,-8.4c8.3,15.8,-7.1,31.9,-37.8,39.3Z" class="g32_292"/>
<path d="M543,495.7l71,-8.4c8.3,15.8,-7.1,31.9,-37.8,39.2Z" class="g33_292"/>
<path d="M543,495.3l71,-8.4c8.3,15.8,-7.1,31.8,-37.8,39.2Z" class="g34_292"/>
<path d="M543,494.9l71,-8.4c8.3,15.8,-7.1,31.8,-37.8,39.2Z" class="g35_292"/>
<path d="M543,494.4l71,-8.3c8.3,15.7,-7.1,31.8,-37.8,39.2Z" class="g36_292"/>
<path d="M543,494l71,-8.4c8.3,15.8,-7.1,31.9,-37.8,39.3Z" class="g37_292"/>
<path d="M543,493.6l71,-8.4c8.3,15.8,-7.1,31.9,-37.8,39.3Z" class="g38_292"/>
<path d="M543,493.2l71,-8.4c8.3,15.8,-7.1,31.8,-37.8,39.2Z" class="g39_292"/>
<path d="M543,492.8l71,-8.4c8.3,15.8,-7.1,31.8,-37.8,39.2Z" class="g4b_292"/>
<path d="M543,492.3L614,484c8.3,15.8,-7.1,31.8,-37.8,39.2Z" class="g4c_292"/>
<path d="M543,491.9l71,-8.3c8.3,15.7,-7.1,31.8,-37.8,39.2Z" class="g4d_292"/>
<path d="M543,491.5l71,-8.4c8.3,15.8,-7.1,31.9,-37.8,39.3Z" class="g4e_292"/>
<path d="M543,491.1l71,-8.4c8.3,15.8,-7.1,31.9,-37.8,39.2Z" class="g4f_292"/>
<path d="M543,490.7l71,-8.4c8.3,15.8,-7.1,31.8,-37.8,39.2Z" class="g4g_292"/>
<path d="M543,490.3l71,-8.4c8.3,15.8,-7.1,31.8,-37.8,39.2Z" class="g4h_292"/>
<path d="M543,489.8l71,-8.3c8.3,15.8,-7.1,31.8,-37.8,39.2Z" class="g4i_292"/>
<path d="M537,504.5l33.2,30.9c-36,8.6,-80.1,1.9,-98.4,-15.2Z" class="g3a_292"/>
<path d="M537,504.1l33.2,30.8c-36,8.7,-80.1,1.9,-98.4,-15.1Z" class="g3b_292"/>
<path d="M537,503.7l33.2,30.8c-36,8.7,-80.1,1.9,-98.4,-15.1Z" class="g3c_292"/>
<path d="M537,503.3l33.2,30.8c-36,8.7,-80.1,1.9,-98.4,-15.1Z" class="g3d_292"/>
<path d="M537,502.8l33.2,30.9c-36,8.7,-80.1,1.9,-98.4,-15.1Z" class="g3e_292"/>
<path d="M537,502.4l33.2,30.9c-36,8.6,-80.1,1.9,-98.4,-15.2Z" class="g3f_292"/>
<path d="M537,502l33.2,30.8c-36,8.7,-80.1,2,-98.4,-15.1Z" class="g3g_292"/>
<path d="M537,501.6l33.2,30.8c-36,8.7,-80.1,1.9,-98.4,-15.1Z" class="g3h_292"/>
<path d="M537,501.2L570.2,532c-36,8.7,-80.1,1.9,-98.4,-15.1Z" class="g3i_292"/>
<path d="M537,500.7l33.2,30.9c-36,8.7,-80.1,1.9,-98.4,-15.1Z" class="g3j_292"/>
<path d="M537,500.3l33.2,30.9c-36,8.7,-80.1,1.9,-98.4,-15.2Z" class="g3k_292"/>
<path d="M537,499.9l33.2,30.9c-36,8.6,-80.1,1.9,-98.4,-15.2Z" class="g3l_292"/>
<path d="M537,499.5l33.2,30.8c-36,8.7,-80.1,1.9,-98.4,-15.1Z" class="g3m_292"/>
<path d="M537,499.1l33.2,30.8c-36,8.7,-80.1,1.9,-98.4,-15.1Z" class="g3n_292"/>
<path d="M537,498.7l33.2,30.8c-36,8.7,-80.1,1.9,-98.4,-15.1Z" class="g3o_292"/>
<path d="M537,498.2l33.2,30.9c-36,8.7,-80.1,1.9,-98.4,-15.1Z" class="g3p_292"/>
<path d="M537,497.8l33.2,30.9c-36,8.7,-80.1,1.9,-98.4,-15.2Z" class="g3q_292"/>
<path d="M537,497.4l33.2,30.8c-36,8.7,-80.1,2,-98.4,-15.1Z" class="g3r_292"/>
<path d="M537,497l33.2,30.8c-36,8.7,-80.1,1.9,-98.4,-15.1Z" class="g3s_292"/>
<path d="M537,496.6l33.2,30.8c-36,8.7,-80.1,1.9,-98.4,-15.1Z" class="g3t_292"/>
<path d="M537,496.2L570.2,527c-36,8.7,-80.1,1.9,-98.4,-15.1Z" class="g3u_292"/>
<path d="M537,495.7l33.2,30.9c-36,8.7,-80.1,1.9,-98.4,-15.1Z" class="g3v_292"/>
<path d="M537,495.3l33.2,30.9c-36,8.6,-80.1,1.9,-98.4,-15.2Z" class="g3w_292"/>
<path d="M537,494.9l33.2,30.8c-36,8.7,-80.1,2,-98.4,-15.1Z" class="g3x_292"/>
<path d="M537,494.5l33.2,30.8c-36,8.7,-80.1,1.9,-98.4,-15.1Z" class="g3y_292"/>
<path d="M537,494.1l33.2,30.8c-36,8.7,-80.1,1.9,-98.4,-15.1Z" class="g3z_292"/>
<path d="M537,493.6l33.2,30.9c-36,8.7,-80.1,1.9,-98.4,-15.1Z" class="g40_292"/>
<path d="M537,493.2l33.2,30.9c-36,8.7,-80.1,1.9,-98.4,-15.2Z" class="g41_292"/>
<path d="M537,492.8l33.2,30.9c-36,8.6,-80.1,1.9,-98.4,-15.2Z" class="g42_292"/>
<path d="M537,492.4l33.2,30.8c-36,8.7,-80.1,1.9,-98.4,-15.1Z" class="g43_292"/>
<path d="M537,492l33.2,30.8c-36,8.7,-80.1,1.9,-98.4,-15.1Z" class="g4j_292"/>
<path d="M537,491.6l33.2,30.8c-36,8.7,-80.1,1.9,-98.4,-15.1Z" class="g4k_292"/>
<path d="M274.9,329.7c0,0,-26.8,0,-26.8,26.7v3.7c0,0,0,26.8,26.8,26.8H701.6c0,0,26.8,0,26.8,-26.8v-3.7c0,0,0,-26.7,-26.8,-26.7H274.9Z" class="g44_292"/>
<image clip-path="url(#co_292)" preserveAspectRatio="none" x="224" y="255" width="569" height="51" xlink:href="img/22.jpg"/>
<image clip-path="url(#cp_292)" x="226" y="255" width="23" height="539" xlink:href="shade/3.png"/>
<g clip-path="url(#cq_292)">
<path d="M224.3,303.3H763.9v-8.7H224.3v8.7Z" class="g2_292"/>
<path d="M224.3,312.1H763.9v-3.3H224.3v3.3Z" class="g2_292"/>
</g>
<image clip-path="url(#cr_292)" preserveAspectRatio="none" x="733" y="296" width="48" height="556" xlink:href="img/23.jpg"/>
<image clip-path="url(#cs_292)" x="245" y="391" width="180" height="394" xlink:href="shade/4.png"/>
<image clip-path="url(#ct_292)" preserveAspectRatio="none" x="426" y="245" width="248" height="250" xlink:href="img/24.jpg"/>
<image clip-path="url(#cu_292)" preserveAspectRatio="none" x="673" y="245" width="100" height="598" xlink:href="img/25.jpg"/>
<image clip-path="url(#cv_292)" preserveAspectRatio="none" x="376" y="345" width="50" height="498" xlink:href="img/26.jpg"/>
<image clip-path="url(#cw_292)" preserveAspectRatio="none" x="426" y="494" width="248" height="250" xlink:href="img/27.jpg"/>
<image clip-path="url(#cx_292)" preserveAspectRatio="none" x="326" y="594" width="51" height="249" xlink:href="img/28.jpg"/>
<image clip-path="url(#cy_292)" preserveAspectRatio="none" x="426" y="743" width="248" height="100" xlink:href="img/29.jpg"/>
<path d="M449.2,561.2H742V407.8H449.2V561.2Z" class="g44_292"/>
<path d="M451.5,561.2H742V407.8H451.5V561.2Zm292.8,2.1H449.2V405.8H744.3V563.3Z" class="g45_292"/>
<path d="M542.1,489.5V454.9c34.4,0,62.7,10.4,71,26.2Z" class="g3_292"/>
<path d="M542.1,489.1V454.4c34.4,0,62.7,10.5,71,26.3Z" class="g4_292"/>
<path d="M542.1,488.6V454c34.4,0,62.7,10.5,71,26.3Z" class="g5_292"/>
<path d="M542.1,488.2V453.6c34.4,0,62.7,10.5,71,26.2Z" class="g6_292"/>
<path d="M542.1,487.8V453.2c34.4,0,62.7,10.4,71,26.2Z" class="g7_292"/>
<path d="M542.1,487.4V452.8c34.4,0,62.7,10.4,71,26.2Z" class="g8_292"/>
<path d="M542.1,487V452.3c34.4,0,62.7,10.5,71,26.3Z" class="g9_292"/>
<path d="M542.1,486.6V451.9c34.4,0,62.7,10.5,71,26.3Z" class="ga_292"/>
<path d="M542.1,486.1V451.5c34.4,0,62.7,10.5,71,26.3Z" class="gb_292"/>
<path d="M542.1,485.7V451.1c34.4,0,62.7,10.5,71,26.2Z" class="gc_292"/>
<path d="M542.1,485.3V450.7c34.4,0,62.7,10.4,71,26.2Z" class="gd_292"/>
<path d="M542.1,484.9V450.3c34.4,0,62.7,10.4,71,26.2Z" class="ge_292"/>
<path d="M542.1,484.5V449.8c34.4,0,62.7,10.5,71,26.3Z" class="gf_292"/>
<path d="M542.1,484.1V449.4c34.4,0,62.7,10.5,71,26.3Z" class="gg_292"/>
<path d="M542.1,483.6V449c34.4,0,62.7,10.5,71,26.3Z" class="gh_292"/>
<path d="M542.1,483.2V448.6c34.4,0,62.7,10.4,71,26.2Z" class="gi_292"/>
<path d="M542.1,482.8V448.2c34.4,0,62.7,10.4,71,26.2Z" class="gj_292"/>
<path d="M542.1,482.4V447.8c34.4,0,62.7,10.4,71,26.2Z" class="gk_292"/>
<path d="M542.1,482V447.3c34.4,0,62.7,10.5,71,26.3Z" class="gl_292"/>
<path d="M542.1,481.5V446.9c34.4,0,62.7,10.5,71,26.3Z" class="gm_292"/>
<path d="M542.1,481.1V446.5c34.4,0,62.7,10.5,71,26.3Z" class="gn_292"/>
<path d="M542.1,480.7V446.1c34.4,0,62.7,10.4,71,26.2Z" class="go_292"/>
<path d="M542.1,480.3V445.7c34.4,0,62.7,10.4,71,26.2Z" class="gp_292"/>
<path d="M542.1,479.9V445.3c34.4,0,62.7,10.4,71,26.2Z" class="gq_292"/>
<path d="M542.1,479.5V444.8c34.4,0,62.7,10.5,71,26.3Z" class="gr_292"/>
<path d="M542.1,479V444.4c34.4,0,62.7,10.5,71,26.3Z" class="gs_292"/>
<path d="M542.1,478.6V444c34.4,0,62.7,10.4,71,26.2Z" class="gt_292"/>
<path d="M542.1,478.2V443.6c34.4,0,62.7,10.4,71,26.2Z" class="gu_292"/>
<path d="M542.1,477.8V443.2c34.4,0,62.7,10.4,71,26.2Z" class="gv_292"/>
<path d="M542.1,477.4V442.7c34.4,0,62.7,10.5,71,26.3Z" class="gw_292"/>
<path d="M542.1,476.9V442.3c34.4,0,62.7,10.5,71,26.3Z" class="gx_292"/>
<path d="M542.1,476.5V441.9c34.4,0,62.7,10.5,71,26.3Z" class="gy_292"/>
<path d="M537.8,488.6l-56,-22.2c14.4,-8.2,33.6,-12.4,56,-12.4Z" class="gz_292"/>
<path d="M537.8,488.2L481.8,466c14.4,-8.2,33.6,-12.4,56,-12.4Z" class="g10_292"/>
<path d="M537.8,487.8l-56,-22.3c14.4,-8.1,33.6,-12.3,56,-12.3Z" class="g11_292"/>
<path d="M537.8,487.4l-56,-22.3c14.4,-8.1,33.6,-12.4,56,-12.4Z" class="g12_292"/>
<path d="M537.8,487l-56,-22.3c14.4,-8.1,33.6,-12.4,56,-12.4Z" class="g13_292"/>
<path d="M537.8,486.5l-56,-22.2c14.4,-8.2,33.6,-12.4,56,-12.4Z" class="g14_292"/>
<path d="M537.8,486.1l-56,-22.2c14.4,-8.2,33.6,-12.4,56,-12.4Z" class="g15_292"/>
<path d="M537.8,485.7l-56,-22.3c14.4,-8.1,33.6,-12.3,56,-12.3Z" class="g16_292"/>
<path d="M537.8,485.3L481.8,463c14.4,-8.1,33.6,-12.3,56,-12.3Z" class="g17_292"/>
<path d="M537.8,484.9l-56,-22.3c14.4,-8.1,33.6,-12.4,56,-12.4Z" class="g18_292"/>
<path d="M537.8,484.4l-56,-22.2c14.4,-8.1,33.6,-12.4,56,-12.4Z" class="g19_292"/>
<path d="M537.8,484l-56,-22.2c14.4,-8.2,33.6,-12.4,56,-12.4Z" class="g1a_292"/>
<path d="M537.8,483.6l-56,-22.2c14.4,-8.2,33.6,-12.4,56,-12.4Z" class="g1b_292"/>
<path d="M537.8,483.2l-56,-22.3c14.4,-8.1,33.6,-12.3,56,-12.3Z" class="g1c_292"/>
<path d="M537.8,482.8l-56,-22.3c14.4,-8.1,33.6,-12.4,56,-12.4Z" class="g1d_292"/>
<path d="M537.8,482.4l-56,-22.3c14.4,-8.1,33.6,-12.4,56,-12.4Z" class="g1e_292"/>
<path d="M537.8,481.9l-56,-22.2c14.4,-8.1,33.6,-12.4,56,-12.4Z" class="g1f_292"/>
<path d="M537.8,481.5l-56,-22.2c14.4,-8.2,33.6,-12.4,56,-12.4Z" class="g1g_292"/>
<path d="M537.8,481.1l-56,-22.3c14.4,-8.1,33.6,-12.3,56,-12.3Z" class="g1h_292"/>
<path d="M537.8,480.7l-56,-22.3c14.4,-8.1,33.6,-12.3,56,-12.3Z" class="g1i_292"/>
<path d="M537.8,480.3L481.8,458c14.4,-8.1,33.6,-12.4,56,-12.4Z" class="g1j_292"/>
<path d="M537.8,479.8l-56,-22.2c14.4,-8.1,33.6,-12.4,56,-12.4Z" class="g1k_292"/>
<path d="M537.8,479.4l-56,-22.2c14.4,-8.2,33.6,-12.4,56,-12.4Z" class="g1l_292"/>
<path d="M537.8,479l-56,-22.2c14.4,-8.2,33.6,-12.4,56,-12.4Z" class="g1m_292"/>
<path d="M537.8,478.6l-56,-22.3c14.4,-8.1,33.6,-12.3,56,-12.3Z" class="g1n_292"/>
<path d="M537.8,478.2l-56,-22.3c14.4,-8.1,33.6,-12.3,56,-12.3Z" class="g1o_292"/>
<path d="M537.8,477.8l-56,-22.3c14.4,-8.1,33.6,-12.4,56,-12.4Z" class="g1p_292"/>
<path d="M537.8,477.3l-56,-22.2c14.4,-8.1,33.6,-12.4,56,-12.4Z" class="g1q_292"/>
<path d="M537.8,476.9l-56,-22.2c14.4,-8.2,33.6,-12.4,56,-12.4Z" class="g1r_292"/>
<path d="M537.8,476.5l-56,-22.2c14.4,-8.2,33.6,-12.4,56,-12.4Z" class="g1s_292"/>
<path d="M537.8,476.1l-56,-22.3c14.4,-8.1,33.6,-12.3,56,-12.3Z" class="g1t_292"/>
<path d="M537.8,475.7l-56,-22.3c14.4,-8.1,33.6,-12.3,56,-12.3Z" class="g46_292"/>
<path d="M533.6,492l-65.2,15.8c-13.6,-12.6,-10.1,-27.2,9.1,-38Z" class="g1u_292"/>
<path d="M533.6,491.6l-65.2,15.7c-13.6,-12.6,-10.1,-27.1,9.1,-37.9Z" class="g1v_292"/>
<path d="M533.6,491.2l-65.2,15.7C454.8,494.3,458.3,479.8,477.5,469Z" class="g1w_292"/>
<path d="M533.6,490.8l-65.2,15.7c-13.6,-12.6,-10.1,-27.1,9.1,-38Z" class="g1x_292"/>
<path d="M533.6,490.4l-65.2,15.7c-13.6,-12.6,-10.1,-27.1,9.1,-38Z" class="g1y_292"/>
<path d="M533.6,490l-65.2,15.7c-13.6,-12.6,-10.1,-27.1,9.1,-38Z" class="g1z_292"/>
<path d="M533.6,489.5l-65.2,15.8c-13.6,-12.6,-10.1,-27.2,9.1,-38Z" class="g20_292"/>
<path d="M533.6,489.1l-65.2,15.7c-13.6,-12.6,-10.1,-27.1,9.1,-37.9Z" class="g21_292"/>
<path d="M533.6,488.7l-65.2,15.7c-13.6,-12.6,-10.1,-27.1,9.1,-37.9Z" class="g22_292"/>
<path d="M533.6,488.3L468.4,504c-13.6,-12.6,-10.1,-27.1,9.1,-38Z" class="g23_292"/>
<path d="M533.6,487.9l-65.2,15.7c-13.6,-12.6,-10.1,-27.1,9.1,-38Z" class="g24_292"/>
<path d="M533.6,487.5l-65.2,15.7c-13.6,-12.6,-10.1,-27.2,9.1,-38Z" class="g25_292"/>
<path d="M533.6,487l-65.2,15.8c-13.6,-12.7,-10.1,-27.2,9.1,-38Z" class="g26_292"/>
<path d="M533.6,486.6l-65.2,15.7c-13.6,-12.6,-10.1,-27.1,9.1,-37.9Z" class="g27_292"/>
<path d="M533.6,486.2l-65.2,15.7c-13.6,-12.6,-10.1,-27.1,9.1,-38Z" class="g28_292"/>
<path d="M533.6,485.8l-65.2,15.7c-13.6,-12.6,-10.1,-27.1,9.1,-38Z" class="g29_292"/>
<path d="M533.6,485.4l-65.2,15.7c-13.6,-12.6,-10.1,-27.1,9.1,-38Z" class="g2a_292"/>
<path d="M533.6,485l-65.2,15.7c-13.6,-12.6,-10.1,-27.2,9.1,-38Z" class="g2b_292"/>
<path d="M533.6,484.5l-65.2,15.8c-13.6,-12.7,-10.1,-27.2,9.1,-38Z" class="g2c_292"/>
<path d="M533.6,484.1l-65.2,15.7c-13.6,-12.6,-10.1,-27.1,9.1,-37.9Z" class="g2d_292"/>
<path d="M533.6,483.7l-65.2,15.7c-13.6,-12.6,-10.1,-27.1,9.1,-38Z" class="g2e_292"/>
<path d="M533.6,483.3L468.4,499c-13.6,-12.6,-10.1,-27.1,9.1,-38Z" class="g2f_292"/>
<path d="M533.6,482.9l-65.2,15.7c-13.6,-12.6,-10.1,-27.2,9.1,-38Z" class="g2g_292"/>
<path d="M533.6,482.4l-65.2,15.8c-13.6,-12.6,-10.1,-27.2,9.1,-38Z" class="g2h_292"/>
<path d="M533.6,482l-65.2,15.7c-13.6,-12.6,-10.1,-27.1,9.1,-37.9Z" class="g2i_292"/>
<path d="M533.6,481.6l-65.2,15.7c-13.6,-12.6,-10.1,-27.1,9.1,-37.9Z" class="g2j_292"/>
<path d="M533.6,481.2l-65.2,15.7c-13.6,-12.6,-10.1,-27.1,9.1,-38Z" class="g2k_292"/>
<path d="M533.6,480.8l-65.2,15.7c-13.6,-12.6,-10.1,-27.1,9.1,-38Z" class="g2l_292"/>
<path d="M533.6,480.4l-65.2,15.7c-13.6,-12.6,-10.1,-27.2,9.1,-38Z" class="g2m_292"/>
<path d="M533.6,479.9l-65.2,15.8c-13.6,-12.7,-10.1,-27.2,9.1,-38Z" class="g47_292"/>
<path d="M533.6,479.5l-65.2,15.7c-13.6,-12.6,-10.1,-27.1,9.1,-37.9Z" class="g48_292"/>
<path d="M533.6,479.1l-65.2,15.7c-13.6,-12.6,-10.1,-27.1,9.1,-38Z" class="g49_292"/>
<path d="M543,493.8l71,-8.4c8.3,15.8,-7.1,31.8,-37.8,39.2Z" class="g2n_292"/>
<path d="M543,493.3L614,485c8.3,15.8,-7.1,31.8,-37.8,39.2Z" class="g2o_292"/>
<path d="M543,492.9l71,-8.3c8.3,15.7,-7.1,31.8,-37.8,39.2Z" class="g2p_292"/>
<path d="M543,492.5l71,-8.4c8.3,15.8,-7.1,31.9,-37.8,39.3Z" class="g2q_292"/>
<path d="M543,492.1l71,-8.4c8.3,15.8,-7.1,31.9,-37.8,39.2Z" class="g2r_292"/>
<path d="M543,491.7l71,-8.4c8.3,15.8,-7.1,31.8,-37.8,39.2Z" class="g2s_292"/>
<path d="M543,491.3l71,-8.4c8.3,15.8,-7.1,31.8,-37.8,39.2Z" class="g2t_292"/>
<path d="M543,490.8l71,-8.3c8.3,15.8,-7.1,31.8,-37.8,39.2Z" class="g2u_292"/>
<path d="M543,490.4L614,482c8.3,15.8,-7.1,31.9,-37.8,39.3Z" class="g4a_292"/>
<path d="M543,490l71,-8.4c8.3,15.8,-7.1,31.9,-37.8,39.3Z" class="g2v_292"/>
<path d="M543,489.6l71,-8.4c8.3,15.8,-7.1,31.9,-37.8,39.2Z" class="g2w_292"/>
<path d="M543,489.2l71,-8.4c8.3,15.8,-7.1,31.8,-37.8,39.2Z" class="g2x_292"/>
<path d="M543,488.8l71,-8.4c8.3,15.8,-7.1,31.8,-37.8,39.2Z" class="g2y_292"/>
<path d="M543,488.3L614,480c8.3,15.7,-7.1,31.8,-37.8,39.2Z" class="g2z_292"/>
<path d="M543,487.9l71,-8.4c8.3,15.8,-7.1,31.9,-37.8,39.3Z" class="g30_292"/>
<path d="M543,487.5l71,-8.4c8.3,15.8,-7.1,31.9,-37.8,39.2Z" class="g31_292"/>
<path d="M543,487.1l71,-8.4c8.3,15.8,-7.1,31.8,-37.8,39.2Z" class="g32_292"/>
<path d="M543,486.7l71,-8.4c8.3,15.8,-7.1,31.8,-37.8,39.2Z" class="g33_292"/>
<path d="M543,486.3l71,-8.4c8.3,15.8,-7.1,31.8,-37.8,39.2Z" class="g34_292"/>
<path d="M543,485.8l71,-8.3c8.3,15.7,-7.1,31.8,-37.8,39.2Z" class="g35_292"/>
<path d="M543,485.4L614,477c8.3,15.8,-7.1,31.9,-37.8,39.3Z" class="g36_292"/>
<path d="M543,485l71,-8.4c8.3,15.8,-7.1,31.9,-37.8,39.2Z" class="g37_292"/>
<path d="M543,484.6l71,-8.4c8.3,15.8,-7.1,31.8,-37.8,39.2Z" class="g38_292"/>
<path d="M543,484.2l71,-8.4c8.3,15.8,-7.1,31.8,-37.8,39.2Z" class="g39_292"/>
<path d="M543,483.7l71,-8.3c8.3,15.8,-7.1,31.8,-37.8,39.2Z" class="g4b_292"/>
<path d="M543,483.3L614,475c8.3,15.7,-7.1,31.8,-37.8,39.2Z" class="g4c_292"/>
<path d="M543,482.9l71,-8.4c8.3,15.8,-7.1,31.9,-37.8,39.3Z" class="g4d_292"/>
<path d="M543,482.5l71,-8.4c8.3,15.8,-7.1,31.9,-37.8,39.2Z" class="g4e_292"/>
<path d="M543,482.1l71,-8.4c8.3,15.8,-7.1,31.8,-37.8,39.2Z" class="g4f_292"/>
<path d="M543,481.7l71,-8.4c8.3,15.8,-7.1,31.8,-37.8,39.2Z" class="g4g_292"/>
<path d="M543,481.2l71,-8.3c8.3,15.7,-7.1,31.8,-37.8,39.2Z" class="g4h_292"/>
<path d="M543,480.8l71,-8.4c8.3,15.8,-7.1,31.9,-37.8,39.3Z" class="g4i_292"/>
<path d="M537,495.5l33.2,30.8c-36,8.7,-80.1,1.9,-98.4,-15.1Z" class="g3a_292"/>
<path d="M537,495.1l33.2,30.8c-36,8.7,-80.1,1.9,-98.4,-15.1Z" class="g3b_292"/>
<path d="M537,494.6l33.2,30.9c-36,8.7,-80.1,1.9,-98.4,-15.1Z" class="g3c_292"/>
<path d="M537,494.2l33.2,30.9c-36,8.7,-80.1,1.9,-98.4,-15.2Z" class="g3d_292"/>
<path d="M537,493.8l33.2,30.9c-36,8.6,-80.1,1.9,-98.4,-15.2Z" class="g3e_292"/>
<path d="M537,493.4l33.2,30.8c-36,8.7,-80.1,1.9,-98.4,-15.1Z" class="g3f_292"/>
<path d="M537,493l33.2,30.8c-36,8.7,-80.1,1.9,-98.4,-15.1Z" class="g3g_292"/>
<path d="M537,492.6l33.2,30.8c-36,8.7,-80.1,1.9,-98.4,-15.1Z" class="g3h_292"/>
<path d="M537,492.1L570.2,523c-36,8.7,-80.1,1.9,-98.4,-15.1Z" class="g3i_292"/>
<path d="M537,491.7l33.2,30.9c-36,8.7,-80.1,1.9,-98.4,-15.2Z" class="g3j_292"/>
<path d="M537,491.3l33.2,30.9c-36,8.6,-80.1,1.9,-98.4,-15.2Z" class="g3k_292"/>
<path d="M537,490.9l33.2,30.8c-36,8.7,-80.1,1.9,-98.4,-15.1Z" class="g3l_292"/>
<path d="M537,490.5l33.2,30.8c-36,8.7,-80.1,1.9,-98.4,-15.1Z" class="g3m_292"/>
<path d="M537,490.1l33.2,30.8c-36,8.7,-80.1,1.9,-98.4,-15.1Z" class="g3n_292"/>
<path d="M537,489.6l33.2,30.9c-36,8.7,-80.1,1.9,-98.4,-15.1Z" class="g3o_292"/>
<path d="M537,489.2l33.2,30.9c-36,8.6,-80.1,1.9,-98.4,-15.2Z" class="g3p_292"/>
<path d="M537,488.8l33.2,30.8c-36,8.7,-80.1,2,-98.4,-15.1Z" class="g3q_292"/>
<path d="M537,488.4l33.2,30.8c-36,8.7,-80.1,1.9,-98.4,-15.1Z" class="g3r_292"/>
<path d="M537,488l33.2,30.8c-36,8.7,-80.1,1.9,-98.4,-15.1Z" class="g3s_292"/>
<path d="M537,487.5l33.2,30.9c-36,8.7,-80.1,1.9,-98.4,-15.1Z" class="g3t_292"/>
<path d="M537,487.1L570.2,518c-36,8.7,-80.1,1.9,-98.4,-15.2Z" class="g3u_292"/>
<path d="M537,486.7l33.2,30.9c-36,8.6,-80.1,1.9,-98.4,-15.2Z" class="g3v_292"/>
<path d="M537,486.3l33.2,30.8c-36,8.7,-80.1,2,-98.4,-15.1Z" class="g3w_292"/>
<path d="M537,485.9l33.2,30.8c-36,8.7,-80.1,1.9,-98.4,-15.1Z" class="g3x_292"/>
<path d="M537,485.5l33.2,30.8c-36,8.7,-80.1,1.9,-98.4,-15.1Z" class="g3y_292"/>
<path d="M537,485l33.2,30.9c-36,8.7,-80.1,1.9,-98.4,-15.1Z" class="g3z_292"/>
<path d="M537,484.6l33.2,30.9c-36,8.7,-80.1,1.9,-98.4,-15.2Z" class="g40_292"/>
<path d="M537,484.2l33.2,30.9c-36,8.6,-80.1,1.9,-98.4,-15.2Z" class="g41_292"/>
<path d="M537,483.8l33.2,30.8c-36,8.7,-80.1,1.9,-98.4,-15.1Z" class="g42_292"/>
<path d="M537,483.4l33.2,30.8c-36,8.7,-80.1,1.9,-98.4,-15.1Z" class="g43_292"/>
<path d="M537,483l33.2,30.8c-36,8.7,-80.1,1.9,-98.4,-15.1Z" class="g4j_292"/>
<path d="M537,482.5l33.2,30.9c-36,8.7,-80.1,1.9,-98.4,-15.1Z" class="g4k_292"/>
<path d="M624,443.1h4.8v-4.9H624v4.9Z" class="gy_292"/>
<path d="M679.8,439.5h3.8V438h-3.8v1.5Zm0,-3.8v1.6h3.8v-1.6h.9v4.6h-5.6v-4.6Zm-2.7,6.5v-.7h9.2v.7h-4.1v2.7h-1v-2.7Zm-4.6,3.2c.3,-.3,.5,-.7,.5,-1.1c0,-.4,-.2,-.7,-.5,-1c-.2,-.3,-.6,-.4,-1,-.4c-.5,0,-.8,.1,-1.1,.4c-.3,.3,-.5,.6,-.5,1c0,.4,.1,.8,.4,1.1c.3,.2,.7,.4,1.1,.4c.5,0,.8,-.2,1.1,-.4m-.1,-3.1c.3,.1,.6,.3,.8,.5c.2,.2,.4,.4,.5,.7c.1,.3,.2,.5,.2,.8c0,.3,-.1,.6,-.2,.9c-.1,.3,-.3,.5,-.5,.7c-.2,.2,-.5,.3,-.8,.5c-.3,.1,-.6,.1,-.9,.1c-.4,0,-.7,0,-1,-.1c-.3,-.2,-.6,-.3,-.8,-.5c-.2,-.2,-.4,-.4,-.5,-.7c-.1,-.3,-.2,-.6,-.2,-.9c0,-.3,.1,-.5,.2,-.8c.1,-.3,.3,-.5,.5,-.7c.2,-.2,.5,-.4,.8,-.5c.3,-.1,.6,-.2,1,-.2c.3,0,.6,.1,.9,.2m.7,-2.7c0,-.2,.1,-.4,.1,-.7c.1,-.2,.1,-.5,.1,-.8c.1,-.2,.1,-.5,.1,-.8c0,-.2,0,-.5,0,-.7h-4.9v-.8h5.9c0,.3,0,.6,0,1c-.1,.3,-.1,.7,-.1,1c-.1,.4,-.1,.7,-.2,1c0,.3,-.1,.6,-.1,.8Zm-2.8,-1.3h.9v2.2h4.9v.7h-9.3v-.7h3.5Zm-13,-.4c-.1,-.3,-.2,-.4,-.3,-.6c-.2,-.2,-.4,-.3,-.6,-.4c-.2,-.1,-.4,-.2,-.6,-.2c-.3,0,-.5,.1,-.7,.2c-.2,.1,-.4,.2,-.5,.4c-.2,.2,-.3,.3,-.4,.6c-.1,.2,-.1,.4,-.1,.7c0,.3,0,.5,.1,.7c.1,.3,.2,.5,.4,.6c.1,.2,.3,.3,.5,.4c.2,.1,.4,.2,.7,.2c.2,0,.4,-.1,.6,-.2c.2,-.1,.4,-.2,.6,-.4c.1,-.1,.2,-.3,.3,-.6c.1,-.2,.1,-.4,.1,-.7c0,-.3,0,-.5,-.1,-.7m2.8,.2v-2.6h.9v8.9h-.9v-5.5h-1.8c0,.4,-.1,.7,-.3,1c-.1,.3,-.3,.5,-.5,.7c-.2,.3,-.5,.4,-.8,.5c-.3,.2,-.6,.2,-.9,.2c-.4,0,-.7,-.1,-1,-.2c-.3,-.1,-.6,-.3,-.8,-.6c-.3,-.2,-.5,-.5,-.6,-.8c-.1,-.4,-.2,-.7,-.2,-1.1c0,-.4,.1,-.7,.2,-1c.1,-.4,.3,-.7,.6,-.9c.2,-.3,.5,-.4,.8,-.6c.3,-.1,.6,-.2,1,-.2c.3,0,.6,.1,.9,.2c.3,.1,.5,.2,.7,.4c.3,.2,.4,.5,.6,.7c.2,.3,.3,.6,.3,.9Zm-11.3,.1c0,-.6,.1,-1.1,.1,-1.6h-4.7v-.8h5.7c0,.3,0,.6,-.1,1c0,.3,0,.7,-.1,1c0,.4,0,.7,-.1,1.1c-.1,.3,-.1,.7,-.2,1h2.4v.7h-4.2v1.9H650v3.6h-1v-2.8h-4.9v-.8h2.5v-1.9h-4.2v-.7h6.1c.1,-.6,.2,-1.1,.3,-1.7m-7.2,.4v.8h-1.5v3.8h-.9v-7.8h.9v3.2Zm-6.1,4.2v2.4h4.8v.7h-5.7v-3.1Zm.9,-4.3c-.1,-.2,-.2,-.4,-.3,-.5c-.1,-.2,-.3,-.3,-.5,-.4c-.2,-.1,-.3,-.1,-.5,-.1c-.3,0,-.4,0,-.6,.1c-.2,.1,-.4,.2,-.5,.4c-.1,.1,-.3,.3,-.3,.5c-.1,.2,-.1,.4,-.1,.6c0,.2,0,.4,.1,.6c0,.2,.2,.4,.3,.5c.1,.2,.3,.3,.5,.4c.2,0,.3,.1,.6,.1c.2,0,.3,-.1,.5,-.1c.2,-.1,.4,-.2,.5,-.4c.1,-.1,.2,-.3,.3,-.5c.1,-.2,.2,-.4,.2,-.6c0,-.2,-.1,-.4,-.2,-.6m1.6,-2.1v.7h-1.8c.3,.2,.6,.5,.9,.9c.2,.3,.3,.7,.3,1.1c0,.4,0,.7,-.2,1c-.1,.3,-.3,.5,-.5,.7c-.2,.2,-.4,.4,-.7,.5c-.3,.1,-.6,.2,-.9,.2c-.4,0,-.7,-.1,-1,-.2c-.3,-.1,-.5,-.3,-.7,-.5c-.2,-.2,-.4,-.4,-.5,-.7c-.2,-.3,-.2,-.6,-.2,-1c0,-.4,.1,-.8,.3,-1.1c.3,-.4,.6,-.7,.9,-.9h-1.8v-.7h2.5v-1.3h1v1.3Z" class="g4l_292"/>
<path d="M624,465h4.8v-4.9H624V465Z" class="g4i_292"/>
<path d="M733.1,457.4h.9v6.2h-.9v-6.2Zm-4.7,6.9H734V468h-.9v-3h-4.7Zm2.7,-1.7c-.3,-.1,-.5,-.2,-.7,-.4c-.3,-.2,-.5,-.4,-.7,-.7c-.2,-.2,-.3,-.4,-.5,-.6c-.1,-.2,-.2,-.4,-.3,-.6c0,.2,-.2,.4,-.3,.7c-.2,.2,-.4,.4,-.6,.7c-.2,.2,-.5,.5,-.8,.7c-.2,.2,-.5,.4,-.7,.5l-.6,-.6c.5,-.3,.9,-.6,1.3,-1c.3,-.3,.6,-.7,.8,-1c.1,-.3,.2,-.7,.3,-1c.1,-.4,.1,-.8,.1,-1.2v-.5h1v.6c0,.4,.1,.8,.1,1.1c.1,.4,.2,.7,.4,1c.2,.3,.4,.6,.7,.9c.2,.3,.6,.6,1,.8Zm-6.2,-2.8v.8h-1.5v3h-.9v-6.2h.9v2.4Zm-3,5.2c-.3,-.3,-.6,-.4,-1,-.4c-.5,0,-.8,.1,-1.1,.4c-.3,.3,-.5,.7,-.5,1.1c0,.4,.2,.8,.5,1.1c.2,.3,.6,.5,1,.5c.4,0,.8,-.2,1.1,-.5c.3,-.3,.5,-.7,.5,-1.1c0,-.4,-.2,-.8,-.5,-1.1m1.2,2c-.2,.3,-.3,.6,-.6,.8c-.2,.2,-.4,.3,-.7,.5c-.3,.1,-.6,.1,-.9,.1c-.4,0,-.7,0,-1,-.1c-.3,-.2,-.5,-.3,-.7,-.5c-.3,-.2,-.4,-.5,-.6,-.8c-.1,-.3,-.1,-.5,-.1,-.9c0,-.3,0,-.6,.1,-.9c.2,-.3,.3,-.5,.6,-.7c.2,-.2,.4,-.4,.7,-.5c.3,-.1,.6,-.2,1,-.2c.3,0,.6,.1,.9,.2c.3,.1,.5,.3,.7,.5c.3,.2,.4,.4,.6,.7c.1,.3,.2,.6,.2,.9c0,.4,-.1,.6,-.2,.9m-6.2,-4.9h2.5v-1.9h-2.5Zm0,-4.4v1.8h2.5v-1.8h.9v5.2H716v-5.2Zm-7.6,5.7h-.8v-6h.8v3h1.5v.8h-1.5Zm-1,2.1v-.8h-4.5V464h5.5v2.3h-4.5v.8h4.7v.8h-5.7v-2.4Zm-3,-6.4c-.3,-.2,-.6,-.3,-.9,-.3c-.4,0,-.7,.1,-1,.3c-.2,.3,-.3,.6,-.3,.9c0,.3,.1,.6,.3,.8c.3,.3,.6,.4,1,.4c.3,0,.6,-.1,.9,-.4c.2,-.2,.4,-.5,.4,-.8c0,-.3,-.2,-.6,-.4,-.9m1.8,-1.2v.7h-1.4c.3,.2,.5,.4,.6,.6c.2,.3,.2,.5,.2,.8c0,.4,-.1,.8,-.4,1.1c-.4,.4,-.8,.6,-1.3,.7v.6c.6,0,1.1,0,1.6,-.1c.5,0,1,-.1,1.3,-.1v.7c-.2,.1,-.5,.1,-.9,.1c-.3,.1,-.7,.1,-1.1,.1c-.4,0,-.8,0,-1.3,.1c-.4,0,-.8,0,-1.2,0h-2v-.7h2.1c.2,0,.4,0,.6,-.1v-.6c-.5,-.1,-.9,-.3,-1.2,-.7c-.3,-.3,-.5,-.7,-.5,-1.1c0,-.3,.1,-.5,.2,-.8c.2,-.2,.3,-.4,.6,-.6h-1.4v-.7h2.3v-1h1v1Zm-8.3,-.5h.8v6.2h-.8v-2.9h-1.5v2.6h-.8v-5.8h.8v2.3h1.5ZM698,465c-.3,-.3,-.6,-.4,-1,-.4c-.5,0,-.8,.1,-1.1,.4c-.3,.3,-.5,.7,-.5,1.1c0,.4,.2,.8,.5,1.1c.3,.3,.6,.5,1,.5c.5,0,.8,-.2,1.1,-.5c.3,-.3,.5,-.7,.5,-1.1c0,-.4,-.2,-.8,-.5,-1.1m1.2,2c-.1,.3,-.3,.6,-.5,.8c-.3,.2,-.5,.3,-.8,.5c-.3,.1,-.6,.1,-.9,.1c-.4,0,-.7,0,-1,-.1c-.3,-.2,-.5,-.3,-.7,-.5c-.2,-.2,-.4,-.5,-.5,-.8c-.2,-.3,-.2,-.5,-.2,-.9c0,-.3,0,-.6,.2,-.9c.1,-.3,.3,-.5,.5,-.7c.2,-.2,.4,-.4,.7,-.5c.3,-.1,.6,-.2,1,-.2c.3,0,.6,.1,.9,.2c.3,.1,.5,.3,.8,.5c.2,.2,.4,.4,.5,.7c.1,.3,.2,.6,.2,.9c0,.4,-.1,.6,-.2,.9M691,462.5c.5,-.3,.8,-.7,1.1,-1c.2,-.3,.4,-.7,.6,-1c.1,-.3,.2,-.7,.3,-1c0,-.3,.1,-.7,.1,-1.1v-.7h.9v.7c0,.4,0,.8,.1,1.1c0,.4,.1,.7,.3,1c.1,.3,.3,.6,.6,.9c.2,.2,.5,.5,.9,.8l-.5,.6c-.2,-.1,-.4,-.3,-.6,-.5c-.1,-.2,-.3,-.4,-.5,-.5c-.2,-.3,-.3,-.5,-.5,-.7c-.1,-.2,-.2,-.4,-.2,-.6c-.1,.2,-.2,.4,-.3,.7c-.2,.2,-.3,.4,-.5,.6c-.2,.3,-.4,.5,-.6,.7c-.2,.3,-.4,.5,-.6,.6Zm-4.5,-1v.8H685v4h-.9v-8.9h.9v4.1Zm-4.9,-2.1c-.1,-.2,-.2,-.4,-.3,-.5c-.2,-.2,-.3,-.3,-.5,-.4c-.2,-.1,-.4,-.1,-.6,-.1c-.2,0,-.4,0,-.6,.1c-.2,.1,-.3,.2,-.5,.4c-.1,.1,-.2,.3,-.3,.5c-.1,.2,-.1,.4,-.1,.6c0,.5,.1,.9,.4,1.2c.3,.4,.7,.5,1.1,.5c.2,0,.4,0,.6,-.1c.2,-.1,.3,-.2,.5,-.4c.1,-.1,.2,-.3,.3,-.5c.1,-.2,.1,-.4,.1,-.7c0,-.2,0,-.4,-.1,-.6m-2.6,2.8c-.3,-.2,-.5,-.4,-.7,-.6c-.1,-.2,-.3,-.4,-.4,-.7c-.1,-.3,-.1,-.5,-.1,-.9c0,-.3,.1,-.6,.2,-.9c.1,-.3,.3,-.6,.5,-.8c.2,-.2,.5,-.4,.8,-.5c.3,-.2,.6,-.2,.9,-.2c.3,0,.6,0,.9,.2c.3,.1,.6,.3,.8,.5c.2,.2,.4,.5,.5,.8c.1,.3,.2,.6,.2,.9c0,.4,0,.6,-.2,.9c-.1,.3,-.2,.5,-.4,.7c-.1,.3,-.3,.4,-.6,.6c-.2,.1,-.5,.2,-.8,.3v1.3c.6,0,1.1,-.1,1.6,-.1c.4,-.1,.8,-.1,1.2,-.1v.7c-.3,0,-.6,.1,-.9,.1c-.4,0,-.7,0,-1.2,.1c-.4,0,-.8,0,-1.2,0c-.4,.1,-.8,.1,-1.2,.1h-1.8v-.8h2c.1,0,.2,0,.3,0c.1,0,.2,0,.3,0v-1.3c-.3,-.1,-.5,-.2,-.7,-.3m-2.8,-.7v.8h-1.5v4h-.9v-8.9h.9v4.1Zm-5,-1.4c-.1,-.1,-.2,-.3,-.3,-.4c-.1,-.2,-.3,-.3,-.4,-.3c-.2,-.1,-.4,-.2,-.6,-.2c-.2,0,-.3,.1,-.5,.2c-.2,0,-.3,.1,-.5,.3c-.1,.1,-.2,.3,-.3,.4c0,.2,-.1,.4,-.1,.6c0,.2,.1,.4,.1,.6c.1,.1,.2,.3,.3,.4c.2,.1,.3,.2,.5,.3c.2,.1,.3,.1,.5,.1c.2,0,.4,0,.6,-.1c.1,-.1,.3,-.2,.4,-.3c.1,-.1,.2,-.3,.3,-.4c.1,-.2,.1,-.4,.1,-.6c0,-.2,0,-.4,-.1,-.6m1.3,-1.9v.8h-1.4c.3,.1,.6,.4,.7,.7c.2,.3,.3,.7,.3,1c0,.6,-.2,1,-.5,1.4c-.3,.4,-.7,.7,-1.2,.8V464c.5,-.1,1,-.1,1.5,-.1c.5,-.1,.9,-.1,1.2,-.1v.7c-.2,0,-.5,0,-.9,.1c-.3,0,-.7,0,-1.1,.1c-.4,0,-.8,0,-1.3,0c-.4,0,-.8,0,-1.2,0l-1.7,.1V464h1.9c.1,0,.2,0,.3,0c.1,0,.2,0,.3,0v-1.1c-.4,-.1,-.9,-.4,-1.2,-.8c-.3,-.4,-.4,-.8,-.4,-1.4c0,-.3,0,-.7,.2,-1c.2,-.3,.4,-.6,.7,-.7h-1.4v-.8h2.2V457h.9v1.2Zm-13.3,2.6H663v-2.4h-3.8v2.4Zm4.8,.7h-5.7v-3.8H664v3.8Zm-4.8,3.1V467h5v.8h-5.9v-3.2Zm-2.7,-1.1v-.7h9.3v.7h-4v2.1h-1v-2.1Zm-4.6,-3.7v.8h-1.5v3h-.9v-6.2h.9v2.4Zm-3,5.2c-.3,-.3,-.6,-.4,-1,-.4c-.5,0,-.8,.1,-1.1,.4c-.3,.3,-.5,.7,-.5,1.1c0,.4,.2,.8,.5,1.1c.2,.3,.6,.5,1,.5c.4,0,.8,-.2,1.1,-.5c.3,-.3,.5,-.7,.5,-1.1c0,-.4,-.2,-.8,-.5,-1.1m1.2,2c-.2,.3,-.3,.6,-.6,.8c-.2,.2,-.4,.3,-.7,.5c-.3,.1,-.6,.1,-.9,.1c-.4,0,-.7,0,-1,-.1c-.3,-.2,-.5,-.3,-.7,-.5c-.3,-.2,-.4,-.5,-.5,-.8c-.2,-.3,-.2,-.5,-.2,-.9c0,-.3,0,-.6,.2,-.9c.1,-.3,.2,-.5,.5,-.7c.2,-.2,.4,-.4,.7,-.5c.3,-.1,.6,-.2,1,-.2c.3,0,.6,.1,.9,.2c.3,.1,.5,.3,.7,.5c.3,.2,.4,.4,.6,.7c.1,.3,.2,.6,.2,.9c0,.4,-.1,.6,-.2,.9m-7.2,-8.4v-.8h4.7v.8h-1.9v.4c0,.4,.1,.7,.2,1c.1,.4,.3,.7,.5,.9c.2,.3,.4,.5,.7,.8c.3,.2,.6,.4,.9,.6l-.4,.6c-.3,-.1,-.5,-.2,-.7,-.4c-.2,-.1,-.4,-.3,-.7,-.5c-.2,-.2,-.4,-.4,-.5,-.6c-.2,-.3,-.3,-.5,-.4,-.6c-.1,.2,-.2,.4,-.3,.6c-.2,.2,-.4,.4,-.5,.6c-.3,.2,-.5,.5,-.7,.7c-.3,.1,-.5,.3,-.8,.5l-.5,-.7c.4,-.2,.7,-.5,1,-.7c.3,-.3,.6,-.6,.8,-.9c.1,-.3,.2,-.6,.3,-.9c.1,-.3,.2,-.6,.2,-1v-.4Zm-3.3,-1.2h.9v6.3h-.9v-6.3Zm-4.7,6.9h5.5V468h-.9v-3h-4.6Zm-2.1,-5.7v-.8h4.8v.8h-1.9v.4c0,.3,0,.6,.1,.9c.1,.3,.3,.6,.4,.9c.2,.2,.5,.5,.8,.7c.3,.3,.6,.5,1,.6l-.5,.7c-.2,-.1,-.5,-.2,-.7,-.4c-.2,-.1,-.4,-.3,-.7,-.5c-.2,-.2,-.4,-.4,-.5,-.6c-.2,-.2,-.3,-.4,-.4,-.6c0,.2,-.1,.4,-.3,.6c-.1,.2,-.3,.3,-.4,.5c-.3,.3,-.5,.5,-.8,.7c-.2,.2,-.5,.4,-.7,.5l-.6,-.6c.4,-.2,.8,-.5,1.1,-.8c.3,-.2,.5,-.5,.7,-.8c.2,-.3,.3,-.6,.4,-.9c0,-.3,.1,-.6,.1,-.9v-.4Z" class="g4l_292"/>
<path d="M624,487h4.8v-4.9H624V487Z" class="g4k_292"/>
<path d="M679,484.1v-4.3h5.4v.8h-4.6v2.8h4.8v.7h-2.5v2.1h4.1v.8h-9.1v-.8h4.1v-2.1Zm-4.6,-4.8h.9v9.1h-.9v-9.1Zm-2.1,.2h.8v8.6h-.8v-5.2h-1.6v-.8h1.6Zm-5,1.2v-.8h3.8v.8h-1.5v.4c0,.5,.1,.8,.1,1.2c.1,.4,.2,.7,.3,1c.1,.4,.3,.7,.6,1c.2,.4,.6,.7,.9,1l-.5,.6c-.1,-.1,-.3,-.3,-.5,-.5c-.1,-.1,-.3,-.3,-.5,-.5c-.2,-.3,-.3,-.5,-.5,-.7c-.1,-.2,-.2,-.5,-.3,-.7c0,.2,-.1,.4,-.2,.6c-.2,.2,-.3,.4,-.4,.6c-.2,.3,-.4,.5,-.6,.7c-.2,.3,-.5,.5,-.7,.6l-.6,-.5c.5,-.4,.8,-.7,1.1,-1.1c.3,-.3,.5,-.7,.6,-1.1c.1,-.3,.2,-.6,.3,-1c0,-.3,0,-.7,0,-1.1v-.5Zm-5.1,2.4v.8h-1.5v4.3h-.9v-8.9h.9v3.8Zm-5.4,1.3c0,-.2,.1,-.5,.1,-.8c.1,-.4,.1,-.7,.2,-1.1c0,-.3,0,-.7,0,-1c0,-.4,0,-.6,0,-.9h-3.4v-.8h4.4c0,.3,0,.7,0,1.1c0,.4,-.1,.8,-.1,1.2c0,.5,-.1,.9,-.1,1.3c-.1,.4,-.1,.7,-.2,1Zm-2.1,-1.5h.9v2.8c.7,-.1,1.3,-.1,1.9,-.1c.7,-.1,1.2,-.1,1.6,-.2v.7c-.3,.1,-.5,.1,-.9,.1c-.3,.1,-.7,.1,-1.1,.1c-.4,0,-.8,.1,-1.3,.1c-.4,0,-.8,0,-1.2,0h-1.8v-.7h1.9Zm-8.4,3H648v-1h-1.7v1Zm2.6,-4.8v-.9h-4.7v-.7h5.7v2.2h-4.7v.9h4.9v.7h-5.9v-2.2Zm-6.6,3.7v-.6h9.5v.6h-2.9v1.1h1v2.2h-4.7v1h4.9v.7h-5.9v-2.4h4.7v-.8h-4.7v-.7h1.2v-1.1Zm-2.7,-5.5h.9V485h-.9v-2.6h-1.8v-.8h1.8Zm-3.7,9.7h3.5v-1.4h-3.5V489Zm0,-3.4v1.3h3.5v-1.3h1v4.2H635v-4.2Zm-2.3,-1.9h2.5V482h-2.5v1.7Zm0,-4v1.6h2.5v-1.6h.9v4.7h-4.3v-4.7Z" class="g4l_292"/>
<path d="M624,508.9h4.8V504H624v4.9Z" class="g49_292"/>
<path d="M674.2,501.2h.9v7.7h-.9v-4.5H672v-.8h2.2Zm-3.7,7.3v2.4h4.8v.8h-5.7v-3.2Zm-3.2,-6.1v-.7h4.8v.7h-1.9v.7c0,.4,0,.7,.2,1.1c.1,.3,.2,.6,.4,.8c.2,.3,.4,.6,.7,.8c.3,.3,.6,.5,1,.7l-.5,.6c-.2,-.1,-.4,-.2,-.7,-.4c-.2,-.2,-.4,-.3,-.6,-.5c-.2,-.2,-.4,-.4,-.6,-.7c-.1,-.2,-.3,-.4,-.4,-.6c0,.2,-.1,.4,-.3,.6c-.1,.2,-.3,.5,-.5,.6c-.2,.3,-.4,.5,-.7,.7c-.2,.2,-.5,.4,-.7,.6l-.6,-.6c.4,-.3,.8,-.6,1.1,-.9c.3,-.2,.5,-.6,.7,-.9c.2,-.2,.3,-.5,.4,-.8c.1,-.3,.1,-.7,.1,-1v-.8Zm-1.4,1.6v.8h-1.5v4.1h-.9v-7.7h.9V504Zm-6,4.5v2.4h4.7v.8H659v-3.2Zm.4,-5.6c-.3,-.4,-.7,-.5,-1.1,-.5c-.5,0,-.9,.1,-1.2,.5c-.3,.3,-.4,.7,-.4,1.2c0,.5,.1,.9,.4,1.3c.3,.3,.7,.5,1.2,.5c.4,0,.8,-.2,1.1,-.5c.3,-.4,.4,-.8,.4,-1.3c0,-.5,-.1,-.9,-.4,-1.2m-3.5,.2c.2,-.3,.4,-.6,.6,-.8c.2,-.3,.5,-.5,.8,-.6c.3,-.1,.6,-.2,1,-.2c.3,0,.6,.1,.9,.2c.3,.1,.6,.3,.8,.6c.2,.2,.4,.5,.6,.8c.1,.3,.2,.7,.2,1c0,.4,-.1,.7,-.2,1c-.2,.3,-.4,.6,-.6,.9c-.2,.2,-.5,.4,-.8,.5c-.3,.1,-.6,.2,-.9,.2c-.4,0,-.7,-.1,-1,-.2c-.3,-.1,-.6,-.3,-.8,-.5c-.2,-.3,-.4,-.6,-.6,-.9c-.1,-.3,-.2,-.6,-.2,-1c0,-.3,.1,-.7,.2,-1m-7,-1.9h.9v5.7h-.9v-2.6h-1.6v-.8h1.6Zm-3.6,9.7h3.5v-1.4h-3.5v1.4Zm0,-3.4v1.3h3.5v-1.3h.9v4.2h-5.3v-4.2Zm.1,-4.8c-.3,-.3,-.7,-.5,-1.1,-.5c-.4,0,-.8,.2,-1.1,.5c-.3,.4,-.4,.8,-.4,1.2c0,.5,.1,.9,.4,1.2c.3,.3,.7,.5,1.1,.5c.4,0,.8,-.2,1.1,-.5c.3,-.3,.5,-.7,.5,-1.2c0,-.4,-.2,-.8,-.5,-1.2m-3.4,.2c.2,-.3,.3,-.5,.6,-.8c.2,-.2,.5,-.4,.8,-.5c.3,-.1,.6,-.2,.9,-.2c.3,0,.7,.1,1,.2c.3,.1,.5,.3,.7,.5c.3,.3,.4,.5,.6,.8c.1,.3,.2,.7,.2,1c0,.4,-.1,.7,-.2,1c-.2,.3,-.3,.6,-.6,.8c-.2,.2,-.4,.4,-.7,.5c-.3,.2,-.7,.2,-1,.2c-.3,0,-.6,0,-.9,-.2c-.3,-.1,-.6,-.3,-.8,-.5c-.3,-.2,-.4,-.5,-.6,-.8c-.1,-.3,-.1,-.6,-.1,-1c0,-.3,0,-.7,.1,-1m-1.3,1.3v.8h-1.5v3.9h-.9v-7.7h.9v3Zm-6.1,4.3v2.4h4.8v.8h-5.7v-3.2Zm1.8,-1.6c-.2,-.1,-.4,-.3,-.6,-.5c-.2,-.2,-.5,-.4,-.7,-.6c-.2,-.2,-.3,-.5,-.5,-.7c-.2,-.2,-.3,-.5,-.3,-.7c-.1,.3,-.2,.5,-.4,.7c-.1,.3,-.3,.5,-.6,.8c-.2,.2,-.4,.5,-.7,.7c-.3,.3,-.5,.4,-.8,.6l-.5,-.6c.4,-.4,.8,-.7,1.2,-1c.3,-.4,.6,-.8,.8,-1.2c.1,-.3,.3,-.6,.3,-1c.1,-.4,.2,-.8,.2,-1.2v-.8h1v.9c0,.4,0,.8,.1,1.1c.1,.4,.2,.8,.4,1.1c.1,.3,.3,.6,.6,.9c.3,.3,.6,.6,1.1,.9Z" class="g4l_292"/>
<path d="M624,530.8h4.8v-4.9H624v4.9Z" class="g46_292"/>
<path d="M651.9,526.2v.8h-1.5v5.1h-.9v-9h.9v3.1Zm-4.7,-.1v.8h-3.1v1.8h1.2c.5,0,1,0,1.6,0c.5,-.1,1.1,-.1,1.7,-.2v.7c-.3,.1,-.6,.1,-1,.1c-.3,.1,-.7,.1,-1,.1c-.4,.1,-.7,.1,-1,.1c-.3,0,-.6,0,-.8,0h-1.6v-5.9h4.1v.8h-3.2v1.7Zm-7.6,-3h.9v9h-.9v-9Zm-6.9,6c.4,-.2,.9,-.5,1.3,-.8c.4,-.3,.8,-.6,1.2,-1c.3,-.4,.6,-.8,.9,-1.3c.2,-.5,.3,-1,.4,-1.5h-3.2v-.8h4.2c0,.7,-.1,1.4,-.4,2c-.2,.6,-.5,1.1,-.8,1.6c-.4,.5,-.9,1,-1.4,1.4c-.5,.4,-1,.7,-1.6,1Z" class="g4l_292"/>
<path d="M664,577.8h3.1V577c0,-.3,-.1,-.4,-.2,-.5c0,-.1,-.2,-.2,-.4,-.3c-.2,.1,-.3,.1,-.5,.1c-.2,.1,-.4,.1,-.6,.1c-.3,0,-.5,0,-.8,-.1c-.2,0,-.4,-.1,-.6,-.2q0,.1,0,.1q0,.1,0,.2Zm-.7,4.3c0,.6,.2,1,.6,1.4c.4,.4,.9,.6,1.5,.6c.3,0,.5,-.1,.8,-.2c.2,-.1,.4,-.2,.6,-.4c.2,-.2,.4,-.4,.5,-.6c.1,-.2,.2,-.5,.2,-.8c0,-.2,-.1,-.4,-.2,-.7c-.1,-.2,-.3,-.4,-.4,-.6c-.2,-.1,-.5,-.3,-.7,-.4c-.3,-.1,-.5,-.1,-.8,-.1c-.3,0,-.6,0,-.8,.1c-.3,.1,-.5,.3,-.7,.4c-.2,.2,-.3,.4,-.4,.6c-.1,.2,-.2,.5,-.2,.7m-.1,-8.4c0,.3,.1,.6,.2,.8c.1,.2,.2,.4,.4,.6c.2,.2,.4,.3,.7,.4c.3,.1,.6,.2,.9,.2c.3,0,.6,-.1,.8,-.2c.3,-.1,.5,-.2,.7,-.4c.2,-.2,.3,-.4,.5,-.6c.1,-.2,.1,-.5,.1,-.8c0,-.2,0,-.4,-.2,-.7c-.1,-.2,-.2,-.4,-.4,-.6c-.2,-.2,-.4,-.3,-.7,-.5c-.2,-.1,-.5,-.1,-.8,-.1c-.3,0,-.6,0,-.9,.1c-.2,.2,-.5,.3,-.7,.5c-.1,.2,-.3,.4,-.4,.6c-.1,.2,-.2,.5,-.2,.7m-.8,8.4c0,-.3,.1,-.6,.2,-1c.2,-.3,.4,-.6,.7,-.8c.2,-.2,.6,-.4,.9,-.6c.4,-.1,.8,-.2,1.2,-.2c.4,0,.8,.1,1.2,.2c.3,.2,.6,.3,.9,.6c.3,.2,.5,.5,.7,.8c.1,.3,.2,.7,.2,1c0,.4,-.1,.8,-.2,1.1c-.2,.3,-.4,.6,-.7,.9c-.3,.2,-.6,.4,-1,.5c-.3,.1,-.7,.2,-1.1,.2c-.4,0,-.8,-.1,-1.2,-.2c-.4,-.1,-.7,-.3,-.9,-.6c-.3,-.2,-.5,-.5,-.7,-.8c-.1,-.3,-.2,-.7,-.2,-1.1m-2.7,-4.3h3.4v-.6c0,-.3,-.1,-.5,-.2,-.6c-.1,-.1,-.2,-.2,-.5,-.3c-.1,0,-.2,0,-.3,-.1c0,0,0,-.1,0,-.1c0,-.1,0,-.2,.1,-.2c0,-.1,.1,-.1,.3,-.1h.9c-.3,-.2,-.6,-.5,-.8,-.9c-.2,-.4,-.3,-.7,-.3,-1.2c0,-.3,.1,-.6,.2,-1c.2,-.3,.4,-.6,.6,-.8c.3,-.3,.6,-.5,1,-.6c.4,-.2,.8,-.3,1.3,-.3c.4,0,.8,.1,1.2,.3c.4,.1,.7,.3,1,.6c.2,.2,.5,.5,.6,.8c.2,.4,.2,.7,.2,1c0,.4,-.1,.7,-.2,1.1c-.2,.3,-.4,.6,-.7,.8c.2,.1,.3,.1,.3,.2c.1,.2,.2,.3,.2,.4v1.6h3c.2,0,.3,0,.3,.1c.1,0,.1,.1,.1,.2c0,.1,0,.2,-.1,.3c0,.1,-.1,.1,-.3,.1H659.7c-.1,0,-.2,-.1,-.3,-.1c-.1,-.1,-.1,-.2,-.1,-.3c0,-.1,0,-.2,.1,-.2c.1,-.1,.2,-.1,.3,-.1m-2.5,-6.3V583c0,.5,0,.8,-.1,1c-.2,.2,-.3,.3,-.5,.3h-.3v-7.6h-2.1v5.4c0,.4,-.1,.8,-.2,1c-.1,.2,-.3,.3,-.5,.3h-.2V573c0,-.2,-.1,-.4,-.2,-.5c-.2,-.1,-.4,-.2,-.6,-.3c-.2,0,-.4,0,-.4,-.1c-.1,0,-.1,-.1,-.1,-.1c0,-.1,0,-.2,.1,-.2c0,-.1,.1,-.1,.3,-.1h1.3c.1,0,.2,0,.3,.2c.1,.1,.2,.2,.2,.4V576h2.1v-3.7c0,-.3,0,-.5,-.2,-.6c-.2,-.1,-.4,-.2,-.6,-.2c-.2,-.1,-.3,-.1,-.4,-.1q-.1,-.1,-.1,-.2c0,-.1,0,-.2,.1,-.2c.1,0,.2,-.1,.3,-.1h1.3c.2,0,.3,.1,.4,.2c.1,.1,.1,.3,.1,.4m-10.3,6.8v-3.7c0,-.2,-.1,-.4,-.1,-.5c-.1,-.1,-.3,-.2,-.5,-.3c-.1,0,-.2,0,-.3,-.1c-.1,0,-.1,-.1,-.1,-.2q0,-.1,.1,-.2q.1,0,.3,0h1c.1,0,.3,0,.3,.2c.1,.1,.2,.2,.2,.4v4.4c0,.2,0,.3,0,.3c.1,.1,.2,.2,.3,.2h3.7c.1,0,.2,0,.3,.1q.1,.1,.1,.2q0,.2,-.1,.3c-.1,.1,-.2,.1,-.3,.1h-3.6c-.5,0,-.8,-.1,-1,-.2c-.2,-.1,-.3,-.4,-.3,-1m-10.7,-.1h-3.4v.7c0,.2,0,.3,-.1,.5c0,.1,0,.2,0,.3h3.5Zm-3.9,-4.4c0,.5,.2,.9,.6,1.3c.4,.4,1,.6,1.6,.6c.3,0,.6,-.1,.8,-.2c.3,-.1,.5,-.2,.7,-.4c.2,-.2,.3,-.4,.5,-.6c.1,-.2,.1,-.5,.1,-.7c0,-.3,0,-.5,-.2,-.7c-.1,-.3,-.2,-.5,-.4,-.7c-.2,-.2,-.4,-.3,-.7,-.4c-.2,-.1,-.5,-.2,-.8,-.2c-.3,0,-.6,.1,-.9,.2c-.2,.1,-.5,.2,-.7,.4c-.1,.2,-.3,.4,-.4,.6c-.1,.3,-.2,.5,-.2,.8m-.9,0c0,-.4,.1,-.7,.2,-1c.2,-.4,.4,-.6,.6,-.9c.3,-.2,.6,-.4,1,-.6c.4,-.1,.8,-.2,1.3,-.2c.4,0,.8,.1,1.2,.2c.4,.2,.7,.4,1,.6c.2,.3,.5,.5,.6,.9c.2,.3,.2,.6,.2,1c0,.3,0,.7,-.2,1c-.1,.3,-.4,.6,-.6,.8c-.3,.3,-.6,.4,-1,.6c-.4,.1,-.8,.2,-1.2,.2c-.5,0,-.9,-.1,-1.3,-.2c-.4,-.2,-.7,-.3,-1,-.6c-.2,-.2,-.4,-.5,-.6,-.8c-.1,-.3,-.2,-.7,-.2,-1m-2.6,3.7h11.3c.2,0,.3,.1,.3,.1c.1,.1,.1,.2,.1,.3c0,.1,0,.2,-.1,.2c0,.1,-.1,.1,-.3,.1h-3v.7c0,.2,-.1,.3,-.1,.5c0,.1,0,.2,-.1,.3h.2c.1,0,.3,.1,.3,.2c.1,.1,.2,.2,.2,.4v2.9c0,.5,-.1,.8,-.2,1c-.2,.2,-.3,.3,-.5,.3h-.2v-4h-5.5c-.1,0,-.2,-.1,-.2,-.1c-.1,-.1,-.1,-.2,-.1,-.3c0,-.1,0,-.2,.1,-.3c0,0,.1,-.1,.2,-.1h.7v-1.5h-3.1c-.1,0,-.2,0,-.3,-.1c-.1,0,-.1,-.1,-.1,-.2c0,-.1,0,-.2,.1,-.3c.1,0,.2,-.1,.3,-.1m-4.3,-4.2c0,.4,0,.9,0,1.5c-.1,.5,-.1,1.1,-.2,1.6c0,.6,-.1,1.1,-.2,1.6c-.1,.5,-.2,.9,-.4,1.3c0,.1,-.1,.2,-.1,.2c-.1,.1,-.2,.1,-.2,0c-.1,0,-.2,0,-.2,-.1c0,-.1,0,-.2,0,-.3c.1,-.4,.2,-.8,.2,-1.2c.1,-.5,.1,-.9,.1,-1.4c0,-.5,0,-1,0,-1.6v-1.5H618c-.1,0,-.2,-.1,-.3,-.2c-.1,0,-.1,-.1,-.1,-.2c0,-.1,0,-.2,.1,-.3c.1,0,.2,-.1,.3,-.1h5.9c.2,0,.4,.1,.5,.2c0,.2,.1,.3,.1,.5m-5.4,7.9v-2.5c0,-.3,-.1,-.5,-.2,-.6c-.1,-.1,-.3,-.2,-.5,-.2c-.2,-.1,-.3,-.1,-.3,-.1c0,-.1,-.1,-.1,-.1,-.2c0,-.1,.1,-.2,.1,-.2c.1,0,.2,-.1,.4,-.1h1c.1,0,.3,.1,.3,.2c.1,.1,.2,.2,.2,.4v3.3h1.8v-3c0,-.3,0,-.4,-.1,-.5c-.1,-.1,-.3,-.2,-.6,-.3c-.1,0,-.2,0,-.2,0c-.1,-.1,-.1,-.2,-.1,-.2c0,-.1,0,-.2,.1,-.2c.1,-.1,.2,-.1,.3,-.1h1c.1,0,.3,.1,.4,.2c0,.1,.1,.2,.1,.4v3.7H627c.1,0,.2,.1,.3,.2c.1,0,.1,.1,.1,.2c0,.1,0,.2,-.1,.3c-.1,.1,-.2,.1,-.3,.1H615.7c-.1,0,-.3,0,-.3,-.1c-.1,-.1,-.1,-.2,-.1,-.3c0,-.1,0,-.2,.1,-.2c0,-.1,.2,-.2,.3,-.2Zm-10.9,-9.7V583c0,.5,0,.8,-.2,1c-.1,.2,-.2,.3,-.4,.3h-.3v-12c0,-.3,0,-.5,-.2,-.6c-.2,-.1,-.4,-.2,-.6,-.2c-.2,-.1,-.4,-.1,-.4,-.1q-.1,-.1,-.1,-.2c0,-.1,0,-.2,.1,-.2c.1,0,.2,-.1,.3,-.1h1.3c.2,0,.3,.1,.4,.2c.1,.1,.1,.3,.1,.4m-8.6,3.6c0,.6,.2,1.1,.6,1.5c.4,.4,.9,.6,1.4,.6c.3,0,.6,0,.8,-.1c.2,-.1,.5,-.3,.6,-.5c.2,-.1,.4,-.4,.5,-.6c.1,-.3,.2,-.6,.2,-.9c0,-.3,-.1,-.6,-.2,-.9c-.1,-.2,-.3,-.5,-.5,-.6c-.1,-.2,-.4,-.4,-.6,-.5c-.2,-.1,-.5,-.1,-.8,-.1c-.5,0,-1,.2,-1.4,.5c-.4,.4,-.6,.9,-.6,1.6m-.9,0c0,-.4,.1,-.8,.2,-1.2c.2,-.3,.4,-.6,.7,-.9c.2,-.2,.6,-.4,.9,-.6c.4,-.1,.7,-.2,1.1,-.2c.4,0,.8,.1,1.2,.2c.3,.2,.6,.4,.9,.6c.3,.3,.5,.6,.6,.9c.2,.4,.3,.8,.3,1.2c0,.4,-.1,.8,-.3,1.2c-.1,.3,-.3,.6,-.6,.9c-.3,.2,-.6,.4,-.9,.5c-.4,.1,-.8,.2,-1.2,.2c-.4,0,-.7,-.1,-1.1,-.2c-.4,-.1,-.7,-.3,-.9,-.6c-.3,-.2,-.5,-.5,-.7,-.9c-.1,-.3,-.2,-.7,-.2,-1.1m7.8,5c-.2,.1,-.5,.2,-.8,.2c-.2,.1,-.6,.2,-.9,.2c-.4,.1,-.7,.1,-1.1,.1c-.3,.1,-.7,.1,-1,.1h-4.6c-.2,0,-.3,-.1,-.3,-.1c-.1,-.1,-.1,-.2,-.1,-.3c0,-.1,0,-.2,.1,-.3c0,0,.1,-.1,.3,-.1h4.6c.6,0,1.2,0,1.9,0c.6,0,1.2,-.1,1.8,-.2c.2,-.1,.3,0,.3,.1c0,.1,-.1,.2,-.2,.3m-10.6,-8.6V583c0,.5,-.1,.8,-.2,1c-.2,.2,-.3,.3,-.5,.3H595v-7.9h-2.9c-.1,0,-.2,0,-.3,-.1c0,0,0,-.1,0,-.3c0,-.1,0,-.2,0,-.2c.1,-.1,.2,-.1,.3,-.1H595v-3.4c0,-.3,-.1,-.5,-.3,-.6c-.1,-.1,-.4,-.2,-.6,-.2c-.2,-.1,-.3,-.1,-.4,-.1q-.1,-.1,-.1,-.2c0,-.1,0,-.2,.1,-.2c.1,0,.2,-.1,.3,-.1h1.3c.2,0,.3,.1,.4,.2c.1,.1,.2,.3,.2,.4m-6.2,2.4c0,.3,-.1,.7,-.2,1c-.1,.4,-.2,.7,-.4,1.1l3,2.9c.1,0,.1,.1,.2,.1q0,.1,0,.2c0,0,0,.1,.1,.1c0,0,0,.1,0,.1c0,.1,-.1,.2,-.2,.3c0,.1,-.1,.2,-.2,.2c-.1,0,-.2,0,-.3,0c0,0,-.1,-.1,-.2,-.1l-2.7,-3.1c-.4,.6,-.8,1.3,-1.3,1.9c-.5,.5,-1,1,-1.5,1.3c-.1,.2,-.3,.1,-.3,0c-.1,-.1,-.1,-.2,.1,-.4c.3,-.3,.6,-.6,.9,-1.1c.4,-.4,.7,-.9,.9,-1.5c.3,-.5,.5,-1,.7,-1.5c.2,-.6,.3,-1,.3,-1.5c.1,-.2,0,-.3,-.2,-.3c-.2,-.1,-.4,-.1,-.5,-.2c-.2,0,-.3,-.1,-.3,-.2c0,-.2,.2,-.3,.4,-.3h1c.3,0,.5,.1,.6,.3c.1,.2,.1,.5,.1,.7m-6.1,-2.4V583c0,.5,0,.8,-.2,1c-.1,.2,-.2,.3,-.4,.3h-.3v-12c0,-.3,0,-.5,-.2,-.6c-.2,-.1,-.4,-.2,-.6,-.2c-.2,-.1,-.3,-.1,-.4,-.1q-.1,-.1,-.1,-.2c0,-.1,0,-.2,.1,-.2c.1,0,.2,-.1,.3,-.1h1.3c.2,0,.3,.1,.4,.2c.1,.1,.1,.3,.1,.4m-10.1,5.1c0,.6,.1,1.1,.4,1.6c.4,.4,.8,.7,1.4,.7c.5,0,1,-.3,1.3,-.7c.3,-.5,.4,-1,.4,-1.6c0,-.6,-.1,-1.2,-.4,-1.7c-.3,-.4,-.8,-.7,-1.3,-.7c-.6,0,-1,.3,-1.4,.7c-.3,.5,-.4,1,-.4,1.7m-.9,0c0,-.4,0,-.8,.1,-1.2c.2,-.4,.3,-.7,.6,-1c.2,-.3,.5,-.5,.8,-.6c.4,-.2,.8,-.3,1.2,-.3c.7,0,1.3,.3,1.8,.8c.5,.5,.8,1.1,.8,1.8h1.9V573c0,-.2,0,-.4,-.2,-.5c-.2,-.1,-.4,-.2,-.6,-.3c-.2,0,-.3,0,-.4,-.1c-.1,0,-.1,-.1,-.1,-.1c0,-.1,0,-.2,.1,-.2c.1,-.1,.2,-.1,.3,-.1h1.3c.2,0,.3,0,.4,.2c.1,.1,.1,.2,.1,.4v9.8c0,.4,0,.8,-.2,1c-.1,.2,-.2,.3,-.4,.3h-.3v-6.5H578c-.1,.7,-.4,1.4,-.9,1.9c-.4,.5,-1.1,.8,-1.8,.8c-.4,0,-.8,-.1,-1.2,-.3c-.3,-.1,-.6,-.3,-.8,-.6c-.3,-.3,-.4,-.6,-.6,-1c-.1,-.3,-.1,-.7,-.1,-1.1m-5.2,1.6H564v.7c0,.2,0,.3,-.1,.5c0,.1,0,.2,0,.3h3.5Zm-3.9,-4.4c0,.5,.2,.9,.6,1.3c.4,.4,1,.6,1.6,.6c.3,0,.6,-.1,.8,-.2c.3,-.1,.5,-.2,.7,-.4c.2,-.2,.3,-.4,.5,-.6c.1,-.2,.1,-.5,.1,-.7c0,-.3,0,-.5,-.2,-.7c-.1,-.3,-.2,-.5,-.4,-.7c-.2,-.2,-.4,-.3,-.7,-.4c-.2,-.1,-.5,-.2,-.8,-.2c-.3,0,-.6,.1,-.9,.2c-.2,.1,-.5,.2,-.7,.4c-.1,.2,-.3,.4,-.4,.6c-.1,.3,-.2,.5,-.2,.8m-.9,0c0,-.4,.1,-.7,.2,-1c.2,-.4,.4,-.6,.6,-.9c.3,-.2,.6,-.4,1,-.6c.4,-.1,.8,-.2,1.3,-.2c.4,0,.8,.1,1.2,.2c.4,.2,.7,.4,1,.6c.2,.3,.5,.5,.6,.9c.2,.3,.2,.6,.2,1c0,.3,0,.7,-.2,1c-.1,.3,-.4,.6,-.6,.8c-.3,.3,-.6,.4,-1,.6c-.4,.1,-.8,.2,-1.2,.2c-.5,0,-.9,-.1,-1.3,-.2c-.4,-.2,-.7,-.3,-1,-.6c-.2,-.2,-.4,-.5,-.6,-.8c-.1,-.3,-.2,-.7,-.2,-1m-2.6,3.7h11.3c.2,0,.3,.1,.3,.1c.1,.1,.1,.2,.1,.3c0,.1,0,.2,-.1,.2c0,.1,-.1,.1,-.3,.1h-3v.7c0,.2,-.1,.3,-.1,.5c0,.1,0,.2,-.1,.3h.2c.1,0,.3,.1,.4,.2c0,.1,.1,.2,.1,.4v2.9c0,.5,-.1,.8,-.2,1c-.2,.2,-.3,.3,-.5,.3h-.2v-4h-5.5c-.1,0,-.2,-.1,-.2,-.1c-.1,-.1,-.1,-.2,-.1,-.3c0,-.1,0,-.2,.1,-.3c0,0,.1,-.1,.2,-.1h.7v-1.5H560c-.1,0,-.2,0,-.3,-.1c-.1,0,-.1,-.1,-.1,-.2c0,-.1,0,-.2,.1,-.3c.1,0,.2,-.1,.3,-.1m-4.3,-4.2c0,.4,0,.9,0,1.5c-.1,.5,-.1,1.1,-.2,1.6c0,.6,-.1,1.1,-.2,1.6c-.1,.5,-.2,.9,-.4,1.3c0,.1,-.1,.2,-.1,.2c-.1,.1,-.2,.1,-.2,0c-.1,0,-.2,0,-.2,-.1c0,-.1,0,-.2,0,-.3c.1,-.4,.2,-.8,.2,-1.2c.1,-.5,.1,-.9,.1,-1.4c0,-.5,0,-1,0,-1.6v-1.5h-5.5c-.1,0,-.2,-.1,-.3,-.2c-.1,0,-.1,-.1,-.1,-.2c0,-.1,0,-.2,.1,-.3c.1,0,.2,-.1,.3,-.1h5.9c.2,0,.4,.1,.5,.2c0,.2,.1,.3,.1,.5m-5.4,7.9v-2.5c0,-.3,-.1,-.5,-.2,-.6c-.1,-.1,-.3,-.2,-.5,-.2c-.2,-.1,-.3,-.1,-.3,-.1c0,-.1,-.1,-.1,-.1,-.2c0,-.1,.1,-.2,.1,-.2c.1,0,.2,-.1,.4,-.1h1c.1,0,.3,.1,.3,.2c.1,.1,.2,.2,.2,.4v3.3H553v-3c0,-.3,0,-.4,-.1,-.5c-.1,-.1,-.3,-.2,-.6,-.3c-.1,0,-.2,0,-.2,0c-.1,-.1,-.1,-.2,-.1,-.2c0,-.1,0,-.2,.1,-.2c.1,-.1,.2,-.1,.3,-.1h1c.1,0,.3,.1,.4,.2c.1,.1,.1,.2,.1,.4v3.7h4.3c.1,0,.2,.1,.3,.2c.1,0,.1,.1,.1,.2c0,.1,0,.2,-.1,.3c-.1,.1,-.2,.1,-.3,.1H546.9c-.1,0,-.3,0,-.3,-.1c-.1,-.1,-.1,-.2,-.1,-.3c0,-.1,0,-.2,.1,-.2c0,-.1,.2,-.2,.3,-.2Zm-16.2,2.5h4.1v-1.8h-4.1v1.8Zm5,.7h-5.2c0,.2,-.1,.3,-.1,.3c-.1,.1,-.2,.1,-.3,.1h-.2v-4.3c0,-.2,-.1,-.4,-.2,-.5c-.1,-.1,-.2,-.2,-.5,-.2c-.1,0,-.2,-.1,-.2,-.1c0,0,-.1,-.1,-.1,-.2c0,-.1,.1,-.1,.1,-.2c.1,0,.2,0,.3,0h1c.1,0,.2,0,.3,.1c.1,.1,.1,.3,.1,.4v1.3h4.1V580c0,-.1,0,-.2,0,-.3c0,0,-.1,-.1,-.1,-.1q-.1,-.1,-.2,-.1q-.1,-.1,-.2,-.1c-.2,0,-.3,-.1,-.3,-.1q-.1,-.1,-.1,-.2c0,-.1,0,-.2,.1,-.2c0,0,.1,0,.3,0h.9c.2,0,.3,0,.4,.1c.1,.1,.1,.2,.1,.4v3.3c0,.2,0,.4,0,.5c0,.2,-.1,.3,-.1,.5h.1c.1,0,.2,.1,.3,.1c0,.1,0,.2,0,.3c0,.1,0,.2,0,.2c-.1,.1,-.2,.1,-.3,.1m-9,-9.6c0,.3,.1,.6,.2,.8c.1,.3,.2,.5,.4,.7c.2,.2,.4,.3,.7,.4c.2,.1,.5,.2,.7,.2c.3,0,.5,-.1,.8,-.2c.2,-.1,.4,-.2,.6,-.4c.2,-.2,.4,-.4,.5,-.7c.1,-.2,.1,-.5,.1,-.8c0,-.3,0,-.5,-.1,-.8c-.1,-.2,-.3,-.4,-.5,-.6c-.2,-.2,-.4,-.4,-.6,-.5c-.3,-.1,-.5,-.1,-.8,-.1c-.2,0,-.5,0,-.7,.1c-.3,.1,-.5,.3,-.7,.4c-.2,.2,-.3,.4,-.4,.7c-.1,.3,-.2,.5,-.2,.8m4.9,.4c0,.3,-.1,.7,-.3,1c-.2,.3,-.4,.5,-.6,.7c-.3,.2,-.6,.4,-.9,.5c-.4,.1,-.7,.2,-1.1,.2c-.4,0,-.8,-.1,-1.1,-.2c-.4,-.2,-.7,-.4,-1,-.6c-.2,-.3,-.4,-.6,-.6,-.9c-.1,-.3,-.2,-.7,-.2,-1.1c0,-.4,.1,-.7,.2,-1.1c.2,-.3,.4,-.6,.6,-.9c.3,-.2,.6,-.4,1,-.6c.3,-.1,.7,-.2,1.1,-.2c.4,0,.7,.1,1.1,.2c.3,.1,.6,.3,.8,.5c.3,.2,.5,.5,.7,.8c.2,.3,.3,.6,.3,.9h3.5v-2.1c0,-.3,0,-.5,-.2,-.6c-.2,-.1,-.4,-.2,-.6,-.2c-.2,-.1,-.4,-.1,-.4,-.1q-.1,-.1,-.1,-.2c0,-.1,0,-.2,.1,-.2c.1,0,.2,-.1,.3,-.1h1.3c.2,0,.3,.1,.4,.2c.1,.1,.2,.3,.2,.4v5.2c0,.5,-.1,.8,-.2,1c-.2,.2,-.3,.3,-.5,.3h-.3v-2.8Zm-7.9,-3.7V583c0,.5,-.1,.8,-.2,1c-.2,.2,-.3,.3,-.5,.3h-.2v-12c0,-.3,-.1,-.5,-.3,-.6c-.1,-.1,-.4,-.2,-.6,-.2c-.2,-.1,-.3,-.1,-.4,-.1q-.1,-.1,-.1,-.2c0,-.1,0,-.2,.1,-.2c.1,0,.2,-.1,.3,-.1h1.3c.2,0,.3,.1,.4,.2c.1,.1,.2,.3,.2,.4m-8,.8l-.7,-.5c-.1,-.1,-.1,-.2,-.1,-.3c-.1,-.1,0,-.1,0,-.2q.1,-.1,.2,-.1c0,0,.1,0,.2,0c.3,.2,.7,.4,1.1,.5c.4,.1,.8,.2,1.3,.2c.2,0,.3,0,.4,.1c.1,0,.1,.1,.1,.2c0,.2,0,.3,-.1,.3c-.1,.1,-.2,.1,-.3,.1h-1.1c-.2,0,-.4,0,-.6,-.1c-.2,0,-.3,-.1,-.4,-.2m-1,1.2h4.1c.2,0,.4,0,.4,.2c.1,.1,.1,.3,.1,.4c-.1,.4,-.3,.7,-.5,.9c-.2,.3,-.5,.6,-.8,.8l2.3,.7c.1,.1,.2,.1,.2,.2c.1,.1,.1,.2,.1,.3c0,.1,0,.2,-.1,.3c0,.1,-.1,.1,-.1,.1c-.1,.1,-.2,.1,-.2,.1c-.1,0,-.2,0,-.3,-.1l-2.6,-1.1c-.5,.4,-1.1,.6,-1.6,.8c-.5,.2,-1,.4,-1.4,.4c-.2,0,-.3,0,-.4,-.1c0,-.2,.1,-.3,.3,-.4c.4,-.1,.8,-.2,1.2,-.4c.4,-.2,.7,-.5,1.1,-.7c.3,-.3,.7,-.5,.9,-.8c.3,-.3,.6,-.6,.7,-.9h-3.4c-.2,0,-.3,0,-.3,-.1c-.1,-.1,-.1,-.2,-.1,-.3c0,-.1,0,-.2,.1,-.2c0,-.1,.1,-.1,.3,-.1m6.9,5.2c-.2,.1,-.4,.2,-.7,.3c-.3,0,-.7,.1,-1,.1c-.4,.1,-.7,.1,-1.1,.1c-.3,.1,-.7,.1,-1,.1v3.1c0,.4,-.1,.8,-.2,1c-.1,.2,-.3,.3,-.5,.3h-.2v-4.4h-3.4c-.2,0,-.3,-.1,-.3,-.1c-.1,-.1,-.1,-.2,-.1,-.3c0,-.1,0,-.2,.1,-.2c0,-.1,.2,-.2,.3,-.2h4.3c.6,0,1.2,0,1.9,0c.6,0,1.2,-.1,1.8,-.2c.2,-.1,.3,0,.3,.1c0,.1,-.1,.2,-.2,.3Z" class="g4m_292"/>
<path d="M764.4,1216.5c0,0,-4.4,0,-4.4,4.4v10.8c0,0,0,4.3,4.4,4.3h30.3c0,0,4.3,0,4.3,-4.3v-10.8c0,0,0,-4.4,-4.3,-4.4Z" class="g4n_292"/>
<path d="M751.2,1209.1v34.8m1.3,1h92.6m1,-1.4v-34.8m-1.4,-1H752.1" class="g4o_292"/>
<path d="M751.2,1244.3v.6h.5m93.8,0h.6v-.6m0,-36v-.6h-.6m-93.8,0h-.5v.6" class="g4p_292"/>
<path d="M132.2,126.3v22.2l11.7,10.2V136.5Z" class="g4q_292"/>
<path d="M132.2,109.5v39H829.9c0,0,16.9,0,16.9,-16.8v-5.4c0,0,0,-16.8,-16.9,-16.8Z" class="g4n_292"/>
<path d="M166,111.6c.7,-.6,1.7,-.8,2.5,-.6l1.3,-1.3l-6.2,-6.1l-6.1,6.1l-1.3,-1.3c.2,-.8,0,-1.8,-.6,-2.4c-1,-1,-2.6,-1,-3.6,0c-1,1,-1,2.6,0,3.6c.6,.6,1.6,.9,2.4,.6l1.3,1.3l-6.1,6.1l6.1,6.2l-1.3,1.3c-.8,-.3,-1.8,-.1,-2.4,.6c-1,1,-1,2.6,0,3.6c1,1,2.6,1,3.6,0c.6,-.7,.9,-1.6,.6,-2.4l1.3,-1.3l6.1,6.1l6.2,-6.1l-1.3,-1.3c-.9,.2,-1.8,0,-2.5,-.7c-1,-1,-1,-2.6,0,-3.6c1,-1,2.6,-1,3.6,0c.7,.7,.9,1.6,.7,2.5l1.3,1.3l6.1,-6.2l-6.1,-6.1l-1.3,1.3c.2,.8,0,1.8,-.7,2.4c-1,1,-2.6,1,-3.6,0c-1,-.9,-1,-2.6,0,-3.6Z" class="g4r_292"/>
<path d="M163.6,132.3l-6.1,-6.2l-.8,.9c.1,.9,-.2,1.9,-.8,2.6c-1.2,1.1,-3.1,1.1,-4.2,0c-1.2,-1.2,-1.2,-3,0,-4.2c.7,-.7,1.6,-1,2.6,-.8l.8,-.8L149,117.6l6.1,-6.1l-.8,-.8c-1,.1,-1.9,-.2,-2.6,-.8c-.6,-.6,-.9,-1.3,-.9,-2.1c0,-.8,.3,-1.5,.9,-2.1c1.1,-1.1,3,-1.1,4.1,0c.7,.7,1,1.7,.9,2.6l.8,.8l6.1,-6.1l6.7,6.7l-1.7,1.7h-.2c-.7,-.2,-1.5,0,-2.1,.5c-.8,.9,-.8,2.2,0,3.1c.9,.8,2.2,.8,3.1,0c.5,-.6,.7,-1.4,.5,-2.1v-.2l1.7,-1.7l6.7,6.6l-6.7,6.7l-1.8,-1.7l.1,-.2c.2,-.8,0,-1.5,-.6,-2.1c-.4,-.4,-.9,-.6,-1.5,-.6c-.5,0,-1.1,.2,-1.5,.6c-.8,.8,-.8,2.2,0,3c.5,.6,1.3,.8,2.1,.6l.2,-.1l1.7,1.8ZM157.5,125l6.1,6.1l5.6,-5.5l-.8,-.9c-1,.2,-2,-.1,-2.7,-.8c-.5,-.5,-.8,-1.3,-.8,-2.1c0,-.7,.3,-1.5,.8,-2c.6,-.6,1.3,-.9,2.1,-.9c.8,0,1.6,.3,2.1,.9c.7,.6,1,1.6,.8,2.6l.9,.8l5.5,-5.6l-5.5,-5.5l-.9,.8c.2,1,-.1,1.9,-.8,2.6c-1.1,1.2,-3,1.2,-4.1,0c-1.2,-1.1,-1.2,-3,0,-4.1c.6,-.7,1.6,-1,2.6,-.8l.8,-.9l-5.6,-5.6l-6.1,6.2l-1.7,-1.7v-.3c.2,-.7,0,-1.5,-.5,-2c-.9,-.9,-2.2,-.9,-3.1,0c-.4,.4,-.6,.9,-.6,1.5c0,.6,.2,1.1,.6,1.5c.6,.5,1.4,.8,2.1,.6l.2,-.1l1.8,1.7l-6.2,6.1l6.2,6.2l-1.8,1.7l-.2,-.1c-.7,-.2,-1.5,.1,-2,.6c-.9,.8,-.9,2.2,0,3c.8,.9,2.2,.9,3,0c.5,-.5,.7,-1.3,.5,-2v-.3Z" class="g4s_292"/>
<path d="M196.6,122.1c.9,0,1.8,.5,2.2,1.3h1.8v-8.7h-8.7v-1.8c.8,-.4,1.3,-1.2,1.3,-2.2c0,-1.4,-1.1,-2.5,-2.5,-2.5c-1.5,0,-2.6,1.1,-2.6,2.5c0,1,.5,1.8,1.3,2.2v1.8h-8.7v8.7h-1.8c-.4,-.8,-1.2,-1.3,-2.2,-1.3c-1.4,0,-2.5,1.2,-2.5,2.6c0,1.4,1.1,2.5,2.5,2.5c1,0,1.8,-.5,2.2,-1.2h1.8v8.6h8.7v-1.8c-.8,-.4,-1.3,-1.2,-1.3,-2.2c0,-1.4,1.2,-2.5,2.6,-2.5c1.4,0,2.5,1.1,2.5,2.5c0,1,-.5,1.8,-1.3,2.2v1.8h8.7V126h-1.8c-.4,.7,-1.2,1.2,-2.2,1.2c-1.4,0,-2.5,-1.1,-2.5,-2.5c0,-1.4,1.1,-2.6,2.5,-2.6Z" class="g4t_292"/>
<path d="M201,135h-9.5v-2.4l.2,-.1c.7,-.4,1.1,-1.1,1.1,-1.9c0,-1.2,-1,-2.1,-2.1,-2.1c-1.2,0,-2.2,.9,-2.2,2.1c0,.8,.4,1.5,1.1,1.9l.2,.1V135h-9.5v-8.6h-1.2c-.5,.7,-1.4,1.2,-2.4,1.2c-1.6,0,-2.9,-1.3,-2.9,-2.9c0,-1.6,1.3,-3,2.9,-3c1,0,1.9,.5,2.4,1.3h1.2v-8.7H189v-1.1c-.8,-.6,-1.3,-1.5,-1.3,-2.5c0,-1.6,1.3,-2.9,3,-2.9c1.6,0,2.9,1.3,2.9,2.9c0,1,-.5,1.9,-1.3,2.5v1.1H201v9.5h-2.4l-.1,-.2c-.4,-.6,-1.1,-1.1,-1.9,-1.1c-.6,0,-1.1,.3,-1.5,.7c-.4,.4,-.6,.9,-.6,1.5c0,1.2,.9,2.1,2.1,2.1c.8,0,1.5,-.4,1.9,-1l.1,-.2H201Zm-8.7,-.8h7.9v-7.8H199c-.5,.7,-1.4,1.2,-2.4,1.2c-1.6,0,-2.9,-1.3,-2.9,-2.9c0,-.8,.3,-1.5,.8,-2.1c.6,-.5,1.3,-.9,2.1,-.9c1,0,1.9,.5,2.4,1.3h1.2v-7.9h-8.7v-2.4l.2,-.1c.7,-.4,1.1,-1.1,1.1,-1.9c0,-1.2,-1,-2.1,-2.1,-2.1c-1.2,0,-2.2,.9,-2.2,2.1c0,.8,.4,1.5,1.1,1.9l.2,.1v2.4h-8.7v8.7h-2.4l-.1,-.2c-.4,-.6,-1.1,-1.1,-1.9,-1.1c-1.2,0,-2.1,1,-2.1,2.2c0,1.2,.9,2.1,2.1,2.1c.8,0,1.5,-.4,1.9,-1l.1,-.2h2.4v8.6H189V133c-.8,-.5,-1.3,-1.4,-1.3,-2.4c0,-1.6,1.3,-2.9,3,-2.9c1.6,0,2.9,1.3,2.9,2.9c0,1,-.5,1.9,-1.3,2.4Z" class="g4s_292"/>
<path d="M176.7,142c1,0,1.8,.5,2.2,1.3h1.8v-8.7H172v-1.8c.8,-.4,1.3,-1.2,1.3,-2.2c0,-1.4,-1.1,-2.5,-2.5,-2.5c-1.4,0,-2.6,1.1,-2.6,2.5c0,1,.5,1.8,1.3,2.2v1.8h-8.7v8.7H159c-.4,-.8,-1.2,-1.3,-2.2,-1.3c-1.4,0,-2.5,1.2,-2.5,2.6c0,1.4,1.1,2.5,2.5,2.5c1,0,1.8,-.5,2.2,-1.2h1.8v8.6h8.7v-1.8c-.8,-.4,-1.3,-1.2,-1.3,-2.2c0,-1.4,1.2,-2.5,2.6,-2.5c1.4,0,2.5,1.1,2.5,2.5c0,1,-.5,1.8,-1.3,2.2v1.8h8.7v-8.7h-1.8c-.4,.8,-1.2,1.3,-2.2,1.3c-1.4,0,-2.5,-1.1,-2.5,-2.5c0,-1.4,1.1,-2.6,2.5,-2.6Z" class="g4u_292"/>
<path d="M181.1,154.9h-9.5v-2.4l.2,-.1c.7,-.4,1.1,-1.1,1.1,-1.9c0,-1.2,-1,-2.1,-2.1,-2.1c-1.2,0,-2.2,.9,-2.2,2.1c0,.8,.4,1.5,1.1,1.9l.2,.1v2.4h-9.5v-8.6h-1.2c-.5,.7,-1.4,1.2,-2.4,1.2c-1.6,0,-2.9,-1.3,-2.9,-2.9c0,-1.6,1.3,-3,2.9,-3c1,0,1.9,.5,2.4,1.3h1.2v-8.7h8.7V133c-.8,-.5,-1.3,-1.4,-1.3,-2.4c0,-1.6,1.3,-2.9,3,-2.9c1.6,0,2.9,1.3,2.9,2.9c0,1,-.5,1.9,-1.3,2.4v1.2h8.7v9.5h-2.4l-.1,-.2c-.4,-.7,-1.1,-1.1,-1.9,-1.1c-1.2,0,-2.1,1,-2.1,2.2c0,1.1,.9,2.1,2.1,2.1c.8,0,1.5,-.4,1.9,-1.1l.1,-.2h2.4Zm-8.7,-.8h7.9v-7.9h-1.2c-.5,.8,-1.4,1.3,-2.4,1.3c-1.6,0,-2.9,-1.3,-2.9,-2.9c0,-1.6,1.3,-3,2.9,-3c1,0,1.9,.5,2.4,1.3h1.2V135h-8.7v-2.4l.2,-.1c.7,-.4,1.1,-1.1,1.1,-1.9c0,-1.2,-1,-2.1,-2.1,-2.1c-1.2,0,-2.2,.9,-2.2,2.1c0,.8,.4,1.5,1.1,1.9l.2,.1V135h-8.7v8.7h-2.4l-.1,-.2c-.4,-.7,-1.1,-1.1,-1.9,-1.1c-1.2,0,-2.1,1,-2.1,2.2c0,1.2,.9,2.1,2.1,2.1c.8,0,1.5,-.4,1.9,-1l.1,-.2h2.4v8.6h7.9v-1.2c-.8,-.5,-1.3,-1.4,-1.3,-2.4c0,-1.6,1.3,-2.9,3,-2.9c1.6,0,2.9,1.3,2.9,2.9c0,1,-.5,1.9,-1.3,2.4Z" class="g4s_292"/>
<path d="M196.6,142c.9,0,1.8,.5,2.2,1.3h1.8v-8.7h-8.7v-1.8c.8,-.4,1.3,-1.2,1.3,-2.2c0,-1.4,-1.1,-2.5,-2.5,-2.5c-1.5,0,-2.6,1.1,-2.6,2.5c0,1,.5,1.8,1.3,2.2v1.8h-8.7v8.7h-1.8c-.4,-.8,-1.2,-1.3,-2.2,-1.3c-1.4,0,-2.5,1.2,-2.5,2.6c0,1.4,1.1,2.5,2.5,2.5c1,0,1.8,-.5,2.2,-1.2h1.8v8.6h8.7v-1.8c-.8,-.4,-1.3,-1.2,-1.3,-2.2c0,-1.4,1.2,-2.5,2.6,-2.5c1.4,0,2.5,1.1,2.5,2.5c0,1,-.5,1.8,-1.3,2.2v1.8h8.7v-8.7h-1.8c-.4,.8,-1.2,1.3,-2.2,1.3c-1.4,0,-2.5,-1.1,-2.5,-2.5c0,-1.4,1.1,-2.6,2.5,-2.6Z" class="g4v_292"/>
<path d="M201,154.9h-9.5v-2.4l.2,-.1c.7,-.4,1.1,-1.1,1.1,-1.9c0,-1.2,-1,-2.1,-2.1,-2.1c-1.2,0,-2.2,.9,-2.2,2.1c0,.8,.4,1.5,1.1,1.9l.2,.1v2.4h-9.5v-8.6h-1.2c-.5,.7,-1.4,1.2,-2.4,1.2c-1.6,0,-2.9,-1.3,-2.9,-2.9c0,-1.6,1.3,-3,2.9,-3c1,0,1.9,.5,2.4,1.3h1.2v-8.7H189V133c-.8,-.5,-1.3,-1.4,-1.3,-2.4c0,-1.6,1.3,-2.9,3,-2.9c1.6,0,2.9,1.3,2.9,2.9c0,1,-.5,1.9,-1.3,2.4v1.2H201v9.5h-2.4l-.1,-.2c-.4,-.7,-1.1,-1.1,-1.9,-1.1c-.6,0,-1.1,.3,-1.5,.7c-.4,.4,-.6,.9,-.6,1.5c0,1.1,.9,2.1,2.1,2.1c.8,0,1.5,-.4,1.9,-1.1l.1,-.2H201Zm-8.7,-.8h7.9v-7.9H199c-.5,.8,-1.4,1.3,-2.4,1.3c-1.6,0,-2.9,-1.3,-2.9,-2.9c0,-.8,.3,-1.5,.8,-2.1c.6,-.6,1.3,-.9,2.1,-.9c1,0,1.9,.5,2.4,1.3h1.2V135h-8.7v-2.4l.2,-.1c.7,-.4,1.1,-1.1,1.1,-1.9c0,-1.2,-1,-2.1,-2.1,-2.1c-1.2,0,-2.2,.9,-2.2,2.1c0,.8,.4,1.5,1.1,1.9l.2,.1V135h-8.7v8.7h-2.4l-.1,-.2c-.4,-.7,-1.1,-1.1,-1.9,-1.1c-1.2,0,-2.1,1,-2.1,2.2c0,1.2,.9,2.1,2.1,2.1c.8,0,1.5,-.4,1.9,-1l.1,-.2h2.4v8.6H189v-1.2c-.8,-.5,-1.3,-1.4,-1.3,-2.4c0,-1.6,1.3,-2.9,3,-2.9c1.6,0,2.9,1.3,2.9,2.9c0,1,-.5,1.9,-1.3,2.4Z" class="g4s_292"/>
<path d="M32.1,45.1H9.2m958.3,0h22.9M32.1,1331.3H9.2m958.3,0h22.9M45.1,32.1V9.2m0,1335.1v22.9M954.5,32.1V9.2m0,1335.1v22.9" class="g4w_292"/>
<path d="M32.1,45.1H9.2m958.3,0h22.9M32.1,1331.3H9.2m958.3,0h22.9M45.1,32.1V9.2m0,1335.1v22.9M954.5,32.1V9.2m0,1335.1v22.9" class="g4x_292"/>
<path d="M27.5,32.1H0m972.1,0h27.5M27.5,1344.3H0m972.1,0h27.5M32.1,27.5V0m0,1348.9v27.5M967.5,27.5V0m0,1348.9v27.5" class="g4w_292"/>
<path d="M27.5,32.1H0m972.1,0h27.5M27.5,1344.3H0m972.1,0h27.5M32.1,27.5V0m0,1348.9v27.5M967.5,27.5V0m0,1348.9v27.5" class="g4x_292"/>
</svg>