<?xml version="1.0" encoding="UTF-8" standalone="no"?>
<!DOCTYPE svg PUBLIC "-//W3C//DTD SVG 1.1//EN"
"http://www.w3.org/Graphics/SVG/1.1/DTD/svg11.dtd">
<svg viewBox="0 0 999 1376" version="1.1" xmlns="http://www.w3.org/2000/svg" xmlns:xlink="http://www.w3.org/1999/xlink">
<defs>
<clipPath id="c0_185"><path d="M154.8,1042.6V133H869.3v909.6Z"/></clipPath>
<clipPath id="c1_185"><path d="M193.7,429.3c-1.4,-2.3,-1.4,-4.9,-1.4,-4.9V298.8c0,-8.7,8.7,-8.7,8.7,-8.7H330.9c8.7,0,8.7,8.7,8.7,8.7V424.4c0,2.1,-.5,3.7,-1.3,4.9Z"/></clipPath>
<clipPath id="c2_185"><path d="M693.2,638c-8.6,0,-8.6,-8.7,-8.6,-8.7V503.7c0,-8.6,8.6,-8.6,8.6,-8.6h130c8.6,0,8.6,8.6,8.6,8.6V629.3c0,8.7,-8.6,8.7,-8.6,8.7Z"/></clipPath>
<clipPath id="c3_185"><path d="M195.9,817.3c-3.6,-2.5,-3.6,-7.3,-3.6,-7.3V684.4c0,-8.7,8.7,-8.7,8.7,-8.7H330.9c2,0,3.6,.5,4.8,1.2V817.3Z"/></clipPath>
<clipPath id="c4_185"><path d="M693.2,999.3c-8.6,0,-8.6,-8.7,-8.6,-8.7V865c0,-8.6,8.6,-8.6,8.6,-8.6h130c.9,0,1.8,.1,2.6,.3V998.9c-1.5,.4,-2.6,.4,-2.6,.4Z"/></clipPath>
<style type="text/css"><![CDATA[
.g0_185{
fill: #FFF;
}
.g1_185{
fill: none;
stroke: #231F20;
stroke-width: 0.756;
stroke-miterlimit: 3;
}
.g2_185{
fill: #25408F;
}
.g3_185{
fill: #6381B7;
}
.g4_185{
fill: #FFDE2C;
}
.g5_185{
fill: none;
stroke: #231F20;
stroke-width: 1.451;
stroke-miterlimit: 10;
}
.g6_185{
fill: #D2D3D5;
}
.g7_185{
fill: #A8AAAD;
}
.g8_185{
fill: none;
stroke: #231F20;
stroke-width: 0.828;
stroke-miterlimit: 10;
}
.g9_185{
fill: #6CCFF6;
}
.ga_185{
fill: none;
stroke: #231F20;
stroke-width: 0.828;
stroke-linecap: round;
stroke-linejoin: round;
}
.gb_185{
fill: none;
stroke: #231F20;
stroke-width: 1.451;
stroke-linecap: round;
stroke-linejoin: round;
}
.gc_185{
fill: none;
stroke: #FFF;
stroke-width: 1.909;
stroke-miterlimit: 10;
}
.gd_185{
fill: none;
stroke: #000;
stroke-width: 0.381;
stroke-miterlimit: 10;
}
]]></style>
</defs>
<path d="M154.8,1042.6H869.3V133H154.8v909.6Z" class="g0_185"/>
<image clip-path="url(#c0_185)" preserveAspectRatio="none" x="152" y="131" width="719" height="914" xlink:href="img/1.jpg"/>
<path d="M424.1,180.6h2.2v6h4.3v1.7h-4.3v4c0,.9,-.2,1.7,-.5,2.2c-.4,.6,-.7,1,-1.1,1.4c.5,.1,.9,.3,1.1,.6c.2,.4,.3,.8,.3,1.4l-.3,7.4h-2v-6.9c0,-.2,0,-.4,-.1,-.6c-.1,-.1,-.3,-.2,-.6,-.2H410.4v-1.8h12.4c.4,-.4,.7,-.9,.9,-1.5c.2,-.6,.4,-1.2,.4,-1.8V180.6Zm-15.9,.4h8.5c.4,0,.7,0,1,.2c.2,.1,.4,.3,.5,.5c.1,.2,.1,.5,.1,.7c0,.3,0,.5,0,.7c-.2,.7,-.5,1.5,-.9,2.2c-.3,.7,-.8,1.5,-1.4,2.2c.7,.1,1.2,.3,1.6,.6c.4,.2,.7,.5,1,.8c.4,.5,.9,1,1.3,1.5c.5,.6,.9,1.1,1.3,1.6l-1.5,1.3c-.3,-.2,-.5,-.5,-.7,-.7c-.2,-.3,-.4,-.5,-.6,-.8c-.2,-.3,-.4,-.5,-.6,-.7c-.2,-.3,-.4,-.5,-.6,-.8c-.4,-.3,-.7,-.6,-1,-.9c-.4,-.2,-.9,-.4,-1.4,-.5c-.9,.8,-1.9,1.7,-3,2.4c-1.1,.8,-2.3,1.4,-3.5,2l-1,-1.8c2.3,-1.1,4.1,-2.2,5.5,-3.6c1.4,-1.3,2.4,-2.8,3.1,-4.4c.1,-.2,.1,-.4,0,-.6c-.1,-.1,-.3,-.2,-.6,-.2h-7.1V181Zm44,12.8H450v-6.4h-5.2c-.2,1.6,-.9,2.7,-2,3.6c-1.2,.8,-2.5,1.2,-4.2,1.2c-.8,0,-1.6,-.1,-2.4,-.4c-.7,-.2,-1.4,-.6,-2,-1c-.6,-.5,-1,-1.2,-1.3,-1.9c-.4,-.7,-.5,-1.6,-.5,-2.6c0,-.8,.1,-1.6,.4,-2.4c.4,-.7,.8,-1.3,1.4,-1.8c.5,-.5,1.2,-.9,2,-1.2c.7,-.3,1.5,-.4,2.4,-.4c1.7,0,3.1,.5,4.3,1.4c1.1,.9,1.8,2.2,2,3.7H450v-5h2.2v13.2Zm0,1.4v9.3c0,.3,0,.5,-.1,.6c-.1,.1,-.3,.2,-.5,.2h-12c-1,0,-1.6,-.2,-2.1,-.5c-.4,-.3,-.6,-1,-.6,-1.9v-7.7h2.2v3.2H450v-3.2h2.2ZM441.6,183.5c-.7,-.8,-1.7,-1.2,-3,-1.2c-1.3,0,-2.3,.4,-3,1.2c-.7,.8,-1,1.8,-1,2.8c0,1.2,.3,2.1,1,2.9c.7,.8,1.7,1.2,3,1.2c1.3,0,2.3,-.4,3,-1.2c.7,-.8,1.1,-1.7,1.1,-2.9c0,-1,-.4,-2,-1.1,-2.8Zm8.4,20v-3.3H439.1v2.6c0,.3,0,.4,.1,.5c.1,.2,.3,.2,.6,.2H450Zm17,-13c0,.3,.1,.5,.2,.7c.1,.1,.3,.2,.6,.2h5.7c1.2,0,2.3,-.1,3.4,-.2c1.1,-.1,2.2,-.3,3.4,-.6l.4,1.7c-1.2,.3,-2.4,.6,-3.5,.7c-1.2,.2,-2.4,.2,-3.6,.2v5.4h9.8v1.8H462.1v-1.8h9.3v-5.4h-3.7c-1,0,-1.7,-.2,-2.2,-.6c-.5,-.4,-.7,-1,-.7,-1.8v-9.2h15.3v1.8H467v7.1Zm26.9,13.8v-9.1H485v-1.9h21.3v1.9h-10v9.1h-2.4Zm5.7,-12.7c.3,-1.3,.5,-2.6,.7,-3.9c.2,-1.2,.3,-2.6,.3,-4c0,-.3,0,-.5,-.1,-.6c-.1,-.1,-.3,-.1,-.5,-.1H487.4v-1.8h13.3c.8,0,1.4,.2,1.7,.5c.3,.4,.4,1,.4,1.6c0,1.5,-.1,3,-.3,4.4c-.2,1.4,-.5,2.8,-.8,4.2l-2.1,-.3Zm28.6,-6h4.5v-5H535v10.8c0,.9,-.2,1.8,-.5,2.6c-.3,.8,-.9,1.6,-1.8,2.3c.5,.5,.8,1.1,1.1,1.7c.3,.7,.5,1.4,.5,2.1c0,.9,-.2,1.7,-.6,2.4c-.3,.7,-.8,1.3,-1.4,1.8c-.5,.5,-1.2,.9,-2,1.2c-.8,.2,-1.6,.4,-2.4,.4c-.9,0,-1.7,-.2,-2.5,-.4c-.8,-.3,-1.5,-.7,-2.1,-1.2c-.5,-.5,-1,-1.1,-1.3,-1.8c-.4,-.7,-.6,-1.5,-.6,-2.4c0,-.8,.2,-1.6,.6,-2.3c.3,-.7,.8,-1.3,1.3,-1.8c.6,-.5,1.3,-.9,2.1,-1.2c.8,-.3,1.6,-.5,2.5,-.5c.6,0,1.2,.1,1.8,.3c.5,.1,1.1,.3,1.6,.6c.6,-.6,1,-1.2,1.2,-1.8c.1,-.7,.2,-1.4,.2,-2.1v-3.9h-4.5v-1.8ZM516.1,181h8.6c.4,0,.7,0,1,.2c.2,.1,.4,.3,.5,.5c0,.2,.1,.5,.1,.7c0,.3,0,.5,0,.7c-.2,.6,-.5,1.3,-.8,2c-.3,.7,-.7,1.3,-1.2,2c.6,.2,1.1,.4,1.5,.7c.3,.3,.6,.6,.9,1c.4,.4,.8,1,1.2,1.6c.4,.5,.8,1.1,1.1,1.6l-1.6,1.2c-.2,-.3,-.4,-.5,-.6,-.8c-.2,-.3,-.4,-.5,-.5,-.8c-.2,-.2,-.4,-.5,-.6,-.8c-.2,-.2,-.4,-.5,-.6,-.8c-.2,-.3,-.5,-.6,-.8,-.9c-.3,-.2,-.6,-.4,-1.1,-.6c-.9,1,-1.9,1.9,-3.1,2.8c-1.2,.9,-2.5,1.6,-3.8,2.2l-1,-1.8c2.3,-1.1,4.1,-2.3,5.5,-3.7c1.4,-1.4,2.4,-2.9,3.1,-4.5c.1,-.2,.1,-.4,0,-.6c-.1,-.1,-.3,-.2,-.6,-.2h-7.2V181Zm14.8,16.2c-.8,-.7,-1.8,-1.1,-3,-1.1c-1.3,0,-2.3,.4,-3,1.1c-.8,.8,-1.2,1.8,-1.2,2.9c0,1.2,.4,2.2,1.2,2.9c.7,.7,1.7,1.1,3,1.1c1.2,0,2.2,-.4,3,-1.1c.7,-.7,1.1,-1.7,1.1,-2.9c0,-1.1,-.4,-2.1,-1.1,-2.9Zm9.2,0c-.5,-.5,-.7,-1.2,-.7,-2.1v-6.5h8.5v-5.2h-8.5v-1.8h10.8v8.2c-.6,.2,-1.2,.4,-1.8,.5c-.6,.1,-1.2,.2,-1.9,.2h-4.8v4.6c0,.4,0,.6,.1,.7c.1,.1,.3,.2,.6,.2h4c.6,0,1.3,0,2.1,-.1c.8,-.1,1.6,-.2,2.4,-.4c.9,-.2,1.7,-.5,2.5,-.7c.9,-.3,1.6,-.7,2.3,-1.1V180.9H558v22.5h-2.3v-7.6c-1.5,.6,-3,1.2,-4.6,1.5c-1.6,.3,-3.2,.5,-4.7,.5h-4.3c-.9,0,-1.6,-.2,-2,-.6Zm41.5,-11.6h4.5v-5h2.3v10.8c0,.9,-.2,1.8,-.5,2.6c-.3,.8,-.9,1.6,-1.8,2.3c.5,.5,.9,1.1,1.1,1.7c.3,.7,.5,1.4,.5,2.1c0,.9,-.2,1.7,-.6,2.4c-.3,.7,-.8,1.3,-1.4,1.8c-.5,.5,-1.2,.9,-2,1.2c-.8,.2,-1.6,.4,-2.4,.4c-.9,0,-1.7,-.2,-2.5,-.4c-.8,-.3,-1.5,-.7,-2.1,-1.2c-.5,-.5,-1,-1.1,-1.3,-1.8c-.4,-.7,-.5,-1.5,-.5,-2.4c0,-.8,.1,-1.6,.5,-2.3c.3,-.7,.8,-1.3,1.3,-1.8c.6,-.5,1.3,-.9,2.1,-1.2c.8,-.3,1.6,-.5,2.5,-.5c.6,0,1.2,.1,1.8,.3c.6,.1,1.1,.3,1.6,.6c.6,-.6,1,-1.2,1.2,-1.8c.1,-.7,.2,-1.4,.2,-2.1v-3.9h-4.5v-1.8ZM569.5,181h8.6c.4,0,.7,0,1,.2c.2,.1,.4,.3,.5,.5c.1,.2,.1,.5,.1,.7c0,.3,0,.5,0,.7c-.2,.6,-.4,1.3,-.8,2c-.3,.7,-.7,1.3,-1.2,2c.6,.2,1.1,.4,1.5,.7c.3,.3,.7,.6,.9,1c.4,.4,.8,1,1.2,1.6c.4,.5,.8,1.1,1.1,1.6l-1.6,1.2c-.2,-.3,-.4,-.5,-.6,-.8c-.2,-.3,-.3,-.5,-.5,-.8c-.2,-.2,-.4,-.5,-.6,-.8c-.2,-.2,-.4,-.5,-.6,-.8c-.2,-.3,-.5,-.6,-.8,-.9c-.3,-.2,-.6,-.4,-1.1,-.6c-.9,1,-1.9,1.9,-3.1,2.8c-1.2,.9,-2.4,1.6,-3.8,2.2l-1,-1.8c2.3,-1.1,4.2,-2.3,5.6,-3.7c1.3,-1.4,2.3,-2.9,3,-4.5c.1,-.2,.1,-.4,0,-.6c-.1,-.1,-.3,-.2,-.6,-.2h-7.2V181Zm14.8,16.2c-.8,-.7,-1.8,-1.1,-3,-1.1c-1.2,0,-2.2,.4,-3,1.1c-.8,.8,-1.2,1.8,-1.2,2.9c0,1.2,.4,2.2,1.2,2.9c.8,.7,1.8,1.1,3,1.1c1.2,0,2.2,-.4,3,-1.1c.7,-.7,1.1,-1.7,1.1,-2.9c0,-1.1,-.4,-2.1,-1.1,-2.9Zm12.5,-10c0,.2,.1,.4,.1,.6c.1,.1,.3,.2,.6,.2h5.4c1.2,0,2.4,-.1,3.5,-.2c1.1,-.1,2.2,-.4,3.3,-.7l.4,1.8c-1.2,.3,-2.3,.6,-3.5,.7c-1.2,.1,-2.4,.2,-3.5,.2v3.3h9.8v1.8H591.6v-1.8h9.2v-3.3h-3.6c-.9,0,-1.6,-.2,-2,-.6c-.4,-.4,-.6,-1.1,-.6,-1.9v-6.5h14.8v1.8H596.8v4.6Zm-.2,17.8c-.8,0,-1.4,-.2,-1.8,-.6c-.4,-.3,-.6,-.9,-.6,-1.6v-5.5h2.3v5.1c0,.3,0,.5,.1,.6c.1,.1,.4,.2,.7,.2h7.2c1,0,2,-.1,2.8,-.2c.9,-.1,1.8,-.3,2.7,-.7l.5,1.8c-1.1,.3,-2.1,.5,-3,.7c-.9,.1,-1.9,.2,-3,.2h-7.9Z" class="g1_185"/>
<path d="M201,290.1c0,0,-8.7,0,-8.7,8.7V424.4c0,0,0,8.6,8.7,8.6H330.9c0,0,8.7,0,8.7,-8.6V298.8c0,0,0,-8.7,-8.7,-8.7Z" class="g0_185"/>
<image clip-path="url(#c1_185)" preserveAspectRatio="none" x="192" y="288" width="149" height="141" xlink:href="img/2.png"/>
<path d="M693.2,495.1c0,0,-8.6,0,-8.6,8.6V629.3c0,0,0,8.7,8.6,8.7h130c0,0,8.6,0,8.6,-8.7V503.7c0,0,0,-8.6,-8.6,-8.6Z" class="g0_185"/>
<image clip-path="url(#c2_185)" preserveAspectRatio="none" x="684" y="493" width="149" height="147" xlink:href="img/3.png"/>
<path d="M201,675.7c0,0,-8.7,0,-8.7,8.7V810c0,0,0,8.6,8.7,8.6H330.9c0,0,8.7,0,8.7,-8.6V684.4c0,0,0,-8.7,-8.7,-8.7Z" class="g0_185"/>
<image clip-path="url(#c3_185)" preserveAspectRatio="none" x="191" y="674" width="145" height="143" xlink:href="img/4.png"/>
<path d="M693.2,856.4c0,0,-8.6,0,-8.6,8.6V990.6c0,0,0,8.7,8.6,8.7h130c0,0,8.6,0,8.6,-8.7V865c0,0,0,-8.6,-8.6,-8.6Z" class="g0_185"/>
<image clip-path="url(#c4_185)" preserveAspectRatio="none" x="683" y="856" width="143" height="144" xlink:href="img/5.png"/>
<path d="M153.3,126.3v22.2L165,158.7V136.5Z" class="g2_185"/>
<path d="M153.3,109.5v39H851.1c0,0,16.8,0,16.8,-16.8v-5.4c0,0,0,-16.8,-16.8,-16.8Z" class="g3_185"/>
<path d="M207.2,115.7c0,-9.1,-7.9,-16.6,-17.7,-16.6c-9.8,0,-17.7,7.5,-17.7,16.6c0,2.7,.6,5.2,1.8,7.4c1.2,2.4,2.9,4.6,5,6.2c1.2,1,1.6,1.7,1.7,4.3v.6c0,3.3,2.7,5.9,5.9,5.9h6.6c3.2,0,5.8,-2.6,5.8,-5.9v-.6c.2,-2.6,.6,-3.3,1.8,-4.3c2.1,-1.6,3.8,-3.8,5,-6.2c1.2,-2.2,1.8,-4.7,1.8,-7.4Z" class="g4_185"/>
<path d="M207.2,115.7c0,-9.1,-7.9,-16.6,-17.7,-16.6c-9.8,0,-17.7,7.5,-17.7,16.6c0,2.7,.6,5.2,1.8,7.4c1.2,2.4,2.9,4.6,5,6.2c1.2,1,1.6,1.7,1.7,4.3v.6c0,3.3,2.7,5.9,5.9,5.9h6.6c3.2,0,5.8,-2.6,5.8,-5.9v-.6c.2,-2.6,.6,-3.3,1.8,-4.3c2.1,-1.6,3.8,-3.8,5,-6.2c1.2,-2.2,1.8,-4.7,1.8,-7.4Z" class="g5_185"/>
<path d="M194.6,147.4c0,2.8,-2.3,5.1,-5.1,5.1c-2.8,0,-5.1,-2.3,-5.1,-5.1c0,-2.8,2.3,-5.1,5.1,-5.1c2.8,0,5.1,2.3,5.1,5.1Z" class="g0_185"/>
<path d="M194.6,147.4c0,2.8,-2.3,5.1,-5.1,5.1c-2.8,0,-5.1,-2.3,-5.1,-5.1c0,-2.8,2.3,-5.1,5.1,-5.1c2.8,0,5.1,2.3,5.1,5.1Z" class="g5_185"/>
<path d="M182.1,140.2c0,1,.8,1.8,1.8,1.8h11.2c1,0,1.8,-.8,1.8,-1.8v-1.3H182.1Z" class="g0_185"/>
<path d="M182.1,140.2c0,1,.8,1.8,1.8,1.8h11.2c1,0,1.8,-.8,1.8,-1.8v-1.3H182.1v1.3Z" class="g5_185"/>
<path d="M196.9,143.2c0,.8,-.6,1.3,-1.3,1.3H183.4c-.8,0,-1.3,-.5,-1.3,-1.3c0,-.7,.5,-1.3,1.3,-1.3h12.2c.7,0,1.3,.6,1.3,1.3Z" class="g0_185"/>
<path d="M196.9,143.2c0,.8,-.6,1.3,-1.3,1.3H183.4c-.8,0,-1.3,-.5,-1.3,-1.3c0,-.7,.5,-1.3,1.3,-1.3h12.2c.7,0,1.3,.6,1.3,1.3Z" class="g5_185"/>
<path d="M196.9,145.8c0,.7,-.6,1.3,-1.3,1.3H183.4c-.8,0,-1.3,-.6,-1.3,-1.3c0,-.7,.5,-1.3,1.3,-1.3h12.2c.7,0,1.3,.6,1.3,1.3Z" class="g0_185"/>
<path d="M196.9,145.8c0,.7,-.6,1.3,-1.3,1.3H183.4c-.8,0,-1.3,-.6,-1.3,-1.3c0,-.7,.5,-1.3,1.3,-1.3h12.2c.7,0,1.3,.6,1.3,1.3Z" class="g5_185"/>
<path d="M215.5,128.7l8.3,10.4c.6,.7,1.8,.6,2.7,-.2c.9,-.7,1.2,-1.9,.7,-2.6l-8.9,-10.2Z" class="g6_185"/>
<path d="M215.5,128.7l8.3,10.4c.6,.7,1.8,.6,2.7,-.2c.9,-.7,1.2,-1.9,.7,-2.6l-8.9,-10.2l-2.8,2.6Z" class="g5_185"/>
<path d="M217.5,125.1c.5,.6,.3,1.8,-.7,2.6c-.9,.7,-2.1,.8,-2.6,.2c-.6,-.7,-.3,-1.9,.6,-2.6c.9,-.8,2.1,-.9,2.7,-.2Z" class="g7_185"/>
<path d="M217.5,125.1c.5,.6,.3,1.8,-.7,2.6c-.9,.7,-2.1,.8,-2.6,.2c-.6,-.7,-.3,-1.9,.6,-2.6c.9,-.8,2.1,-.9,2.7,-.2Z" class="g5_185"/>
<path d="M212.7,124.7l1.7,2c.3,.3,1,.3,1.5,-.1c.5,-.5,.7,-1.1,.4,-1.5l-1.7,-2Z" class="g0_185"/>
<path d="M212.7,124.7l1.7,2c.3,.3,1,.3,1.5,-.1c.5,-.5,.7,-1.1,.4,-1.5l-1.7,-2l-1.9,1.6Z" class="g8_185"/>
<path d="M214.8,122.9c.4,.5,.2,1.3,-.5,1.8c-.6,.5,-1.4,.6,-1.8,.1c-.4,-.4,-.2,-1.2,.5,-1.7c.6,-.6,1.4,-.6,1.8,-.2Z" class="g0_185"/>
<path d="M214.8,122.9c.4,.5,.2,1.3,-.5,1.8c-.6,.5,-1.4,.6,-1.8,.1c-.4,-.4,-.2,-1.2,.5,-1.7c.6,-.6,1.4,-.6,1.8,-.2Z" class="g8_185"/>
<path d="M216.4,105.4c4.8,5.7,4.1,14.2,-1.7,19c-5.7,4.8,-14.2,4,-19,-1.7c-4.8,-5.7,-4,-14.2,1.7,-19c5.7,-4.8,14.2,-4.1,19,1.7Z" class="g0_185"/>
<path d="M216.4,105.4c4.8,5.7,4.1,14.2,-1.7,19c-5.7,4.8,-14.2,4,-19,-1.7c-4.8,-5.7,-4,-14.2,1.7,-19c5.7,-4.8,14.2,-4.1,19,1.7Z" class="g5_185"/>
<path d="M214,107.4c3.5,4.2,3,10.5,-1.3,14.1c-4.2,3.5,-10.5,2.9,-14,-1.3c-3.5,-4.2,-3,-10.5,1.2,-14c4.2,-3.6,10.5,-3,14.1,1.2Z" class="g9_185"/>
<path d="M214,107.4c3.5,4.2,3,10.5,-1.3,14.1c-4.2,3.5,-10.5,2.9,-14,-1.3c-3.5,-4.2,-3,-10.5,1.2,-14c4.2,-3.6,10.5,-3,14.1,1.2Z" class="g5_185"/>
<path d="M213,110.6l-3.1,3m3.1,-.4l-3.1,3" class="ga_185"/>
<path d="M172.1,99l3.1,3.3m1.1,-5.9l1.2,3.9m-8.1,3l3.7,1.2" class="gb_185"/>
<path d="M185.8,106.1c1.2,1.2,.2,4.3,-2.2,6.7c-2.5,2.5,-5.5,3.5,-6.8,2.3c-1.2,-1.3,-.3,-4.3,2.2,-6.8c2.5,-2.5,5.5,-3.5,6.8,-2.2Z" class="g0_185"/>
<path d="M203.7,107.6c.6,.6,.1,1.9,-.9,3c-1.1,1,-2.4,1.5,-3,.9c-.5,-.5,-.1,-1.8,1,-2.9c1.1,-1.1,2.4,-1.5,2.9,-1Z" class="g0_185"/>
<path d="M32.1,45.1H9.2m958.3,0h22.9M32.1,1331.3H9.2m958.3,0h22.9M45.1,32.1V9.2m0,1335.1v22.9M954.5,32.1V9.2m0,1335.1v22.9" class="gc_185"/>
<path d="M32.1,45.1H9.2m958.3,0h22.9M32.1,1331.3H9.2m958.3,0h22.9M45.1,32.1V9.2m0,1335.1v22.9M954.5,32.1V9.2m0,1335.1v22.9" class="gd_185"/>
<path d="M27.5,32.1H0m972.1,0h27.5M27.5,1344.3H0m972.1,0h27.5M32.1,27.5V0m0,1348.9v27.5M967.5,27.5V0m0,1348.9v27.5" class="gc_185"/>
<path d="M27.5,32.1H0m972.1,0h27.5M27.5,1344.3H0m972.1,0h27.5M32.1,27.5V0m0,1348.9v27.5M967.5,27.5V0m0,1348.9v27.5" class="gd_185"/>
</svg>