<?xml version="1.0" encoding="UTF-8" standalone="no"?>
<!DOCTYPE svg PUBLIC "-//W3C//DTD SVG 1.1//EN"
"http://www.w3.org/Graphics/SVG/1.1/DTD/svg11.dtd">
<svg viewBox="0 0 999 1376" version="1.1" xmlns="http://www.w3.org/2000/svg" xmlns:xlink="http://www.w3.org/1999/xlink">
<defs>
<clipPath id="c0_11"><path d="M32.1,1344.3V32.1H967.5V1344.3Z"/></clipPath>
<clipPath id="c1_11"><path d="M746.7,139V62.3H865.1V139Z"/></clipPath>
<style type="text/css"><![CDATA[
.g0_11{
fill: #F69E93;
}
.g1_11{
fill: #D2D3D5;
}
.g2_11{
fill: #C8CFE8;
}
.g3_11{
fill: #DADFF0;
}
.g4_11{
fill: #B8D0E2;
}
.g5_11{
fill: #D1E1EC;
}
.g6_11{
fill: none;
stroke: #FFF;
stroke-width: 1.451;
stroke-miterlimit: 10;
}
.g7_11{
fill: none;
stroke: #FFF;
stroke-width: 1.909;
stroke-miterlimit: 10;
}
.g8_11{
fill: none;
stroke: #000;
stroke-width: 0.381;
stroke-miterlimit: 10;
}
]]></style>
</defs>
<path clip-path="url(#c0_11)" d="M-638.5,32.1V139H850.6c0,0,26,0,26,-25.9V50.4c0,0,0,-18.3,-18.4,-18.3Z" class="g0_11"/>
<path d="M734.7,175.7H882v33.8H734.7V175.7Zm-77.9,0h77.9v33.8H656.8V175.7Zm-147.3,0H656.8v33.8H509.5V175.7Zm-147.2,0H509.5v33.8H362.3V175.7Zm-148,0h148v33.8h-148V175.7Zm-34.7,0h34.7v33.8H179.6V175.7Zm-56.3,0h56.3v33.8H123.3V175.7Z" class="g1_11"/>
<path d="M214.3,775.2h148v79.7h-148V775.2Zm-91,-565.7h56.3V854.9H123.3V209.5Zm91,482.2h148v83.5h-148V691.7Zm0,-87.1h148v87.1h-148V604.6Zm0,-71h148v71h-148v-71Zm0,-70.2h148v70.2h-148V463.4Zm0,-90.9h148v90.9h-148V372.5Zm0,-71h148v71h-148v-71Zm0,-92h148v92h-148v-92Z" class="g2_11"/>
<path d="M734.7,775.2H882v79.7H734.7V775.2Zm-225.2,0H656.8v79.7H509.5V775.2Zm-147.2,0H509.5v79.7H362.3V775.2Zm-182.7,0h34.7v79.7H179.6V775.2ZM734.7,691.7H882v83.5H734.7V691.7Zm-225.2,0H656.8v83.5H509.5V691.7Zm-147.2,0H509.5v83.5H362.3V691.7Zm-182.7,0h34.7v83.5H179.6V691.7ZM734.7,604.6H882v87.1H734.7V604.6Zm-225.2,0H656.8v87.1H509.5V604.6Zm-147.2,0H509.5v87.1H362.3V604.6Zm-182.7,0h34.7v87.1H179.6V604.6Zm555.1,-71H882v71H734.7v-71Zm-225.2,0H656.8v71H509.5v-71Zm-147.2,0H509.5v71H362.3v-71Zm-182.7,0h34.7v71H179.6v-71ZM734.7,463.4H882v70.2H734.7V463.4Zm-225.2,0H656.8v70.2H509.5V463.4Zm-147.2,0H509.5v70.2H362.3V463.4Zm-182.7,0h34.7v70.2H179.6V463.4ZM734.7,372.5H882v90.9H734.7V372.5Zm-225.2,0H656.8v90.9H509.5V372.5Zm-147.2,0H509.5v90.9H362.3V372.5Zm-182.7,0h34.7v90.9H179.6V372.5Zm555.1,-71H882v71H734.7v-71Zm-225.2,0H656.8v71H509.5v-71Zm-147.2,0H509.5v71H362.3v-71Zm-182.7,0h34.7v71H179.6v-71Zm555.1,-92H882v92H734.7v-92Zm-225.2,0H656.8v92H509.5v-92Zm-147.2,0H509.5v92H362.3v-92Zm-182.7,0h34.7v92H179.6v-92Z" class="g3_11"/>
<path d="M656.8,775.2h77.9v79.7H656.8V775.2Zm0,-83.5h77.9v83.5H656.8V691.7Zm0,-87.1h77.9v87.1H656.8V604.6Zm0,-71h77.9v71H656.8v-71Zm0,-70.2h77.9v70.2H656.8V463.4Zm0,-90.9h77.9v90.9H656.8V372.5Zm0,-71h77.9v71H656.8v-71Zm0,-92h77.9v92H656.8v-92Z" class="g3_11"/>
<path d="M214.3,1168.5h148v88.6h-148v-88.6Zm-91,-313.6h56.3v402.2H123.3V854.9Zm91,244.3h148v69.3h-148v-69.3Zm0,-84h148v84h-148v-84Zm0,-83.6h148v83.6h-148V931.6Zm0,-76.7h148v76.7h-148V854.9Z" class="g4_11"/>
<path d="M734.7,1168.5H882v88.6H734.7v-88.6Zm-225.2,0H656.8v88.6H509.5v-88.6Zm-147.2,0H509.5v88.6H362.3v-88.6Zm-182.7,0h34.7v88.6H179.6v-88.6Zm555.1,-69.3H882v69.3H734.7v-69.3Zm-225.2,0H656.8v69.3H509.5v-69.3Zm-147.2,0H509.5v69.3H362.3v-69.3Zm-182.7,0h34.7v69.3H179.6v-69.3Zm555.1,-84H882v84H734.7v-84Zm-225.2,0H656.8v84H509.5v-84Zm-147.2,0H509.5v84H362.3v-84Zm-182.7,0h34.7v84H179.6v-84ZM734.7,931.6H882v83.6H734.7V931.6Zm-225.2,0H656.8v83.6H509.5V931.6Zm-147.2,0H509.5v83.6H362.3V931.6Zm-182.7,0h34.7v83.6H179.6V931.6ZM734.7,854.9H882v76.7H734.7V854.9Zm-225.2,0H656.8v76.7H509.5V854.9Zm-147.2,0H509.5v76.7H362.3V854.9Zm-182.7,0h34.7v76.7H179.6V854.9Z" class="g5_11"/>
<path d="M656.8,1168.5h77.9v88.6H656.8v-88.6Zm0,-69.3h77.9v69.3H656.8v-69.3Zm0,-84h77.9v84H656.8v-84Zm0,-83.6h77.9v83.6H656.8V931.6Zm0,-76.7h77.9v76.7H656.8V854.9Z" class="g5_11"/>
<path d="M122.6,175.7h57m-56.3,33.1V176.4m56.3,-.7h34.7m-34.7,33.1V176.4m34.7,-.7h148m-148,33.1V176.4m148,-.7H509.5M362.3,208.8V176.4m147.2,-.7H656.8M509.5,208.8V176.4m147.3,-.7h77.9m-77.9,33.1V176.4m77.9,-.7h148m-148,33.1V176.4M882,208.8V176.4M122.6,209.5h57m-56.3,92V210.2m56.3,-.7h34.7m-34.7,91.2V210.2m34.7,-.7h148m-148,91.2V210.2m148,-.7H509.5M362.3,300.7V210.2m147.2,-.7H656.8M509.5,300.7V210.2m147.3,-.7h77.9m-77.9,91.2V210.2m77.9,-.7h148m-148,91.2V210.2M882,300.7V210.2M123.3,372.5v-71m55.6,0h35.4m-34.7,70.3V302.2m34.7,-.7h148m-148,70.3V302.2m148,-.7H509.5M362.3,371.8V302.2m147.2,-.7H656.8M509.5,371.8V302.2m147.3,-.7h77.9m-77.9,70.3V302.2m77.9,-.7h148m-148,70.3V302.2M882,371.8V302.2M123.3,463.4V372.5m55.6,0h35.4m-34.7,90.2V373.2m34.7,-.7h148m-148,90.2V373.2m148,-.7H509.5M362.3,462.7V373.2m147.2,-.7H656.8M509.5,462.7V373.2m147.3,-.7h77.9m-77.9,90.2V373.2m77.9,-.7h148m-148,90.2V373.2M882,462.7V373.2M123.3,533.6V463.4m55.6,0h35.4m-34.7,69.5V464.2m34.7,-.8h148m-148,69.5V464.2m148,-.8H509.5M362.3,532.9V464.2m147.2,-.8H656.8M509.5,532.9V464.2m147.3,-.8h77.9m-77.9,69.5V464.2m77.9,-.8h148m-148,69.5V464.2M882,532.9V464.2M123.3,604.6v-71m55.6,0h35.4m-34.7,70.3V534.3m34.7,-.7h148m-148,70.3V534.3m148,-.7H509.5M362.3,603.9V534.3m147.2,-.7H656.8M509.5,603.9V534.3m147.3,-.7h77.9m-77.9,70.3V534.3m77.9,-.7h148m-148,70.3V534.3M882,603.9V534.3M123.3,691.7V604.6m55.6,0h35.4M179.6,691V605.3m34.7,-.7h148M214.3,691V605.3m148,-.7H509.5M362.3,691V605.3m147.2,-.7H656.8M509.5,691V605.3m147.3,-.7h77.9M656.8,691V605.3m77.9,-.7h148M734.7,691V605.3M882,691V605.3M123.3,775.2V691.7m55.6,0h35.4m-34.7,82.8v-82m34.7,-.8h148m-148,82.8v-82m148,-.8H509.5M362.3,774.5v-82m147.2,-.8H656.8M509.5,774.5v-82m147.3,-.8h77.9m-77.9,82.8v-82m77.9,-.8h148m-148,82.8v-82m147.3,82v-82M123.3,854.2v-79m55.6,0h35.4m-34.7,79V776m34.7,-.8h148m-148,79V776m148,-.8H509.5m-147.2,79V776m147.2,-.8H656.8m-147.3,79V776m147.3,-.8h77.9m-77.9,79V776m77.9,-.8h148m-148,79V776M882,854.2V776M122.6,854.9h57m-56.3,76.7v-76m56.3,-.7h34.7m-34.7,76V855.6m34.7,-.7h148m-148,76V855.6m148,-.7H509.5m-147.2,76V855.6m147.2,-.7H656.8m-147.3,76V855.6m147.3,-.7h77.9m-77.9,76V855.6m77.9,-.7h148m-148,76V855.6M882,930.9V855.6M123.3,1015.2V931.6m55.6,0h35.4m-34.7,82.9V932.4m34.7,-.8h148m-148,82.9V932.4m148,-.8H509.5m-147.2,82.9V932.4m147.2,-.8H656.8m-147.3,82.9V932.4m147.3,-.8h77.9m-77.9,82.9V932.4m77.9,-.8h148m-148,82.9V932.4M882,1014.5V932.4M123.3,1099.2v-84m55.6,0h35.4m-34.7,83.3V1016m34.7,-.8h148m-148,83.3V1016m148,-.8H509.5m-147.2,83.3V1016m147.2,-.8H656.8m-147.3,83.3V1016m147.3,-.8h77.9m-77.9,83.3V1016m77.9,-.8h148m-148,83.3V1016M882,1098.5V1016M123.3,1168.5v-69.3m55.6,0h35.4m-34.7,68.6V1100m34.7,-.8h148m-148,68.6V1100m148,-.8H509.5m-147.2,68.6V1100m147.2,-.8H656.8m-147.3,68.6V1100m147.3,-.8h77.9m-77.9,68.6V1100m77.9,-.8h148m-148,68.6V1100M882,1167.8V1100M123.3,1256.4v-87.9m55.6,0h35.4m-34.7,87.9v-87.1m34.7,-.8h148m-148,87.9v-87.1m148,-.8H509.5m-147.2,87.9v-87.1m147.2,-.8H656.8m-147.3,87.9v-87.1m147.3,-.8h77.9m-77.9,87.9v-87.1m77.9,-.8h148m-148,87.9v-87.1M882,1256.4v-87.1m-759.4,87.8h57m0,0h34.7m0,0h148m0,0H509.5m0,0H656.8m0,0h77.9m0,0h148" class="g6_11"/>
<image clip-path="url(#c1_11)" preserveAspectRatio="none" x="747" y="62" width="118" height="77" xlink:href="img/1.png"/>
<path d="M32.1,45.1H9.2m958.3,0h22.9M32.1,1331.3H9.2m958.3,0h22.9M45.1,32.1V9.2m0,1335.1v22.9M954.5,32.1V9.2m0,1335.1v22.9" class="g7_11"/>
<path d="M32.1,45.1H9.2m958.3,0h22.9M32.1,1331.3H9.2m958.3,0h22.9M45.1,32.1V9.2m0,1335.1v22.9M954.5,32.1V9.2m0,1335.1v22.9" class="g8_11"/>
<path d="M27.5,32.1H0m972.1,0h27.5M27.5,1344.3H0m972.1,0h27.5M32.1,27.5V0m0,1348.9v27.5M967.5,27.5V0m0,1348.9v27.5" class="g7_11"/>
<path d="M27.5,32.1H0m972.1,0h27.5M27.5,1344.3H0m972.1,0h27.5M32.1,27.5V0m0,1348.9v27.5M967.5,27.5V0m0,1348.9v27.5" class="g8_11"/>
</svg>