<?xml version="1.0" encoding="UTF-8" standalone="no"?>
<!DOCTYPE svg PUBLIC "-//W3C//DTD SVG 1.1//EN"
"http://www.w3.org/Graphics/SVG/1.1/DTD/svg11.dtd">
<svg viewBox="0 0 999 1376" version="1.1" xmlns="http://www.w3.org/2000/svg" xmlns:xlink="http://www.w3.org/1999/xlink">
<defs>
<clipPath id="c0_22"><path d="M32.1,1344.3V32.1H967.5V1344.3Z"/></clipPath>
<clipPath id="c1_22"><path d="M62,865.7v-259H277v259Z"/></clipPath>
<clipPath id="c2_22"><path d="M60.2,865V604.3H278V865Z"/></clipPath>
<clipPath id="c3_22"><path d="M59.9,864.7V604H277.1V864.7Z"/></clipPath>
<clipPath id="c4_22"><path d="M176.6,519.3l-6.5,-2.1l-16.4,-14V446.1h72v73.2Z"/></clipPath>
<clipPath id="c5_22"><path d="M176.6,1127.7l-6.5,-2.1l-16.4,-13.9v-57.1h72v73.1Z"/></clipPath>
<clipPath id="c6_22"><path d="M764.8,412.8V400.4h14.5v12.4Z"/></clipPath>
<clipPath id="c7_22"><path d="M160.5,632c-.3,-.1,3.5,-8.2,3.5,-8.2l.8,.5c0,0,-4,7.7,-4.3,7.7Z"/></clipPath>
<clipPath id="c8_22"><path d="M168,624.3c0,0,-6.9,-1.1,-7.6,-5.3c-.6,-3.6,1.5,-3.8,2.1,-3.8q.1,0,.1,0l8.3,-12.7l-1.4,-3.1c0,0,-.6,-1.1,.1,-2.1c.1,0,.2,-.1,.3,-.1c2.1,0,13,5.6,13,5.6v.1c-.3,.5,-.7,1.2,-1.4,1.7c-.6,.5,-5.1,1.1,-5.1,1.1L168,624.3Z"/></clipPath>
<clipPath id="c9_22"><path d="M167.6,623.9c.2,-.5,.2,-1.8,0,-2.3v-1.3c-1.6,-.6,-2.9,-1.3,-3.7,-2.5c-1.1,.5,-2.1,1.2,-3.1,1.8c1.5,2.2,3.8,3.6,6.8,4.3Zm0,-3.9c2.2,-4.5,4,-9.5,6.1,-14.1c-.8,-.3,-1.8,-1.3,-2.6,-1.3c-2.3,4.3,-4.6,8.6,-7,12.8c.7,1.3,2.1,2,3.5,2.6Zm-7.3,12.1c1,-2.9,2.4,-5.5,3.5,-8.3c-2,-1.6,-3.9,-3.1,-4.4,-6.2v-1.5c0,-2.7,1.9,-3.4,4.6,-3.4q.1,0,.2,0c1.9,-3.3,4.2,-6.3,6.1,-9.7c-.5,-.8,-1.1,-2.3,-.8,-3.6c.5,1.3,1.6,1.9,2.3,2.9c-.1,.6,-.2,1.1,-.3,1.7c.6,.7,1.3,1.2,2.4,1.4c.4,-.4,.5,-1.2,1.1,-1.5c.9,.4,1.8,.8,3.1,.8c.2,.1,.5,.1,.8,.1c.4,0,.7,0,.9,-.1c.1,0,.2,0,.3,0c.2,0,.4,0,.6,-.1c.2,-.1,.3,-.1,.5,-.1c.1,0,.2,0,.3,.1c-1.3,.6,-2.2,1.7,-4.2,1.7c-.1,0,-.2,0,-.3,0c-.9,3.8,-1.9,7.4,-2.6,11.2c.5,1.1,1.5,1.7,1.2,3.1c-.4,2.8,-3.8,4.4,-7.2,4.4c-1.2,0,-2.5,-.2,-3.6,-.7c-1,2.1,-2.1,4.1,-3.3,6c0,-.3,.3,-.4,.3,-.7c1,-1.8,1.9,-3.6,2.6,-5.7c-1,1.7,-1.8,3.7,-2.7,5.5c-.2,.5,-.5,.9,-.7,1.3c-.3,.4,-.3,1.1,-.7,1.4Z"/></clipPath>
<clipPath id="ca_22"><path d="M178,604.3c-4.8,0,-13.1,-7.3,-5.5,-8.8h1.2c.2,.1,.4,.1,.6,.1c0,0,.1,0,.1,0c.3,0,.7,0,1.1,0c3.1,.7,8.2,3.8,7.5,7.1c-.2,1.1,-1.5,1.6,-3.1,1.6H178Z"/></clipPath>
<clipPath id="cb_22"><path d="M693.1,844.5v-286H932.4v286Z"/></clipPath>
<clipPath id="cc_22"><path d="M699.3,837.2V565H926.4V837.2Z"/></clipPath>
<clipPath id="cd_22"><path d="M699,836.9V564.7H926.1V836.9Z"/></clipPath>
<clipPath id="ce_22"><path d="M824.4,583.9c-.3,-.1,3.5,-8.2,3.5,-8.2l.8,.5c0,0,-4,7.7,-4.3,7.7Z"/></clipPath>
<clipPath id="cf_22"><path d="M831.9,576.2c0,0,-6.9,-1.1,-7.6,-5.2c-.7,-3.6,1.5,-3.9,2.1,-3.9q.1,0,.1,0l8.3,-12.7l-1.4,-3.1c0,0,-.6,-1.1,.1,-2.1c0,0,.2,-.1,.3,-.1c2.1,0,12.9,5.6,12.9,5.6l.1,.1c-.3,.6,-.7,1.2,-1.4,1.7c-.6,.5,-5.1,1.1,-5.1,1.1l-8.4,18.6Z"/></clipPath>
<clipPath id="cg_22"><path d="M831.5,575.8c.2,-.4,.2,-1.8,0,-2.2v-1.4c-1.6,-.5,-2.9,-1.2,-3.7,-2.5c-1.1,.6,-2.1,1.2,-3.1,1.9c1.5,2.1,3.8,3.5,6.8,4.2Zm0,-3.9c2.2,-4.5,4,-9.5,6.1,-14c-.9,-.4,-1.8,-1.3,-2.6,-1.4c-2.3,4.3,-4.6,8.6,-7,12.8c.7,1.3,2,2,3.5,2.6ZM824.2,584c1,-2.9,2.4,-5.5,3.5,-8.3c-2,-1.5,-3.9,-3.1,-4.4,-6.1V568c0,-2.6,1.9,-3.3,4.6,-3.3c0,0,.1,0,.2,0c1.9,-3.4,4.2,-6.4,6.1,-9.7c-.5,-.9,-1.1,-2.4,-.8,-3.7c.5,1.3,1.6,1.9,2.3,2.9c-.1,.6,-.2,1.2,-.3,1.8c.6,.7,1.3,1.2,2.4,1.4c.4,-.5,.5,-1.3,1.1,-1.5c.9,.3,1.8,.7,3.1,.7c.2,.1,.5,.2,.8,.2c.4,0,.7,-.1,.9,-.2c.1,0,.2,.1,.3,.1c.2,0,.4,-.1,.6,-.2c.2,0,.3,-.1,.5,-.1c.1,0,.2,0,.3,.1c-1.3,.6,-2.2,1.8,-4.2,1.8c-.1,0,-.2,0,-.3,-.1c-.9,3.8,-1.9,7.4,-2.6,11.2c.5,1.1,1.5,1.7,1.2,3.2c-.4,2.7,-3.8,4.4,-7.2,4.4c-1.2,0,-2.5,-.3,-3.6,-.8c-1,2.1,-2.1,4.1,-3.3,6c0,-.3,.3,-.3,.3,-.7c1,-1.8,1.9,-3.6,2.6,-5.7c-1,1.8,-1.8,3.7,-2.7,5.6c-.2,.4,-.5,.8,-.7,1.2c-.3,.4,-.3,1.2,-.7,1.4Z"/></clipPath>
<clipPath id="ch_22"><path d="M841.9,556.2c-4.8,0,-13.1,-7.3,-5.5,-8.8h1.2c.2,.1,.4,.1,.6,.1c0,0,.1,0,.1,0c.3,0,.7,0,1.1,.1c3.1,.6,8.2,3.8,7.5,7c-.2,1.1,-1.5,1.6,-3.1,1.6h-1.9Z"/></clipPath>
<clipPath id="ci_22"><path d="M125.5,386.7V205.8H858.6V386.7Z"/></clipPath>
<style type="text/css"><![CDATA[
.g0_22{
fill: #FEFCF4;
}
.g1_22{
fill: #FFF;
}
.g2_22{
fill: none;
stroke: #6381B7;
stroke-width: 0.763;
}
.g3_22{
fill: #F7C2D9;
}
.g4_22{
fill: #FDF4F3;
}
.g5_22{
fill: #EC008C;
}
.g6_22{
fill: none;
stroke: #949698;
stroke-width: 0.305;
stroke-dasharray: 4,4;
}
.g7_22{
fill: none;
stroke: #949698;
stroke-width: 0.305;
}
.g8_22{
fill: none;
stroke: #818385;
stroke-width: 0.305;
stroke-dasharray: 3,3;
}
.g9_22{
fill: none;
stroke: #818385;
stroke-width: 0.305;
}
.ga_22{
fill: #6D6F71;
}
.gb_22{
fill: #6381B7;
}
.gc_22{
fill: none;
stroke: #6381B7;
stroke-width: 0.381;
stroke-dasharray: 2,1;
}
.gd_22{
fill: none;
stroke: #6381B7;
stroke-width: 0.381;
}
.ge_22{
fill: #FCE8B0;
}
.gf_22{
fill: #25408F;
}
.gg_22{
fill: #A8AAAD;
}
.gh_22{
fill: none;
stroke: #949698;
stroke-width: 0.549;
}
.gi_22{
fill: none;
stroke: #BCBEC0;
stroke-width: 2.566;
}
.gj_22{
fill: #231F20;
}
.gk_22{
fill: #363637;
}
.gl_22{
fill: #5CC4BE;
}
.gm_22{
fill: #EAD646;
}
.gn_22{
fill: #2E6E51;
}
.go_22{
fill: none;
stroke: #FFF;
stroke-width: 0.152;
stroke-miterlimit: 1;
}
.gp_22{
fill: #BCBEC0;
}
.gq_22{
fill: #EE314A;
}
.gr_22{
fill: none;
stroke: #818385;
stroke-width: 0.305;
stroke-dasharray: 4,4;
}
.gs_22{
fill: none;
stroke: #949698;
stroke-width: 0.305;
stroke-dasharray: 3,3;
}
.gt_22{
fill: #CEEDFB;
}
.gu_22{
fill: #27639D;
}
.gv_22{
fill: none;
stroke: #C3E7F1;
stroke-width: 1.527;
}
.gw_22{
fill: none;
stroke: #FFF;
stroke-width: 1.909;
stroke-miterlimit: 10;
}
.gx_22{
fill: none;
stroke: #000;
stroke-width: 0.381;
stroke-miterlimit: 10;
}
]]></style>
</defs>
<path d="M32.1,1344.3H954.5V32.1H32.1V1344.3Z" class="g0_22"/>
<path clip-path="url(#c0_22)" d="M954.5,1344.3H1877V32.1H954.5V1344.3Z" class="g0_22"/>
<path d="M150,418.8c0,0,-18.3,0,-18.3,18.3v580.3c0,0,0,18.3,18.3,18.3H827.1c0,0,18.4,0,18.4,-18.3V418.8Z" class="g1_22"/>
<path d="M150,418.8c0,0,-18.3,0,-18.3,18.3v580.3c0,0,0,18.3,18.3,18.3H827.1c0,0,18.4,0,18.4,-18.3V418.8H150Z" class="g2_22"/>
<path d="M145.1,1044.6c0,0,-13,0,-13,12.9v134.8c0,0,0,13,13,13H832.9c0,0,13,0,13,-13V1057.5c0,0,0,-12.9,-13,-12.9Z" class="g1_22"/>
<path d="M145.1,1044.6c0,0,-13,0,-13,12.9v134.8c0,0,0,13,13,13H832.9c0,0,13,0,13,-13V1057.5c0,0,0,-12.9,-13,-12.9H145.1Z" class="g2_22"/>
<image clip-path="url(#c1_22)" preserveAspectRatio="none" x="62" y="607" width="215" height="259" xlink:href="img/1.png"/>
<path d="M72.4,611.7L66.8,855.3l198.3,4.4l.6,-22.3L271,616.3Z" class="g3_22"/>
<image clip-path="url(#c2_22)" preserveAspectRatio="none" x="60" y="605" width="217" height="260" xlink:href="img/2.png"/>
<image clip-path="url(#c3_22)" preserveAspectRatio="none" x="60" y="604" width="217" height="261" xlink:href="img/3.png"/>
<path d="M64.7,616.3l8.6,242l160.9,-5.9L271,828.7l-7.7,-220Z" class="g4_22"/>
<path d="M234.7,853.6l37.4,-24.4l-14.8,-7.6Z" class="g5_22"/>
<path d="M560.4,713.4C534.7,703.6,399.8,654,316.6,660.2m-7.5,1.8c-2.9,2.6,.7,7.6,4.6,7.3m2.8,-5.4c-4.2,-5.3,-23.7,-10.8,-57.6,-.4" class="g6_22"/>
<path d="M564.8,715c0,0,-.5,-.2,-1.5,-.5M315.1,660.3c-.6,0,-1.1,.1,-1.6,.1c-.6,.1,-1.1,.1,-1.5,.2m3.3,8.3c.4,-.3,.8,-.5,1.3,-.9c.4,-.4,.6,-.8,.8,-1.3m-59.9,-2.8c-.5,.2,-1,.4,-1.5,.5" class="g7_22"/>
<path d="M578.6,741.9c8.1,-1.2,14.4,-5.8,16,-11.6m-.5,-6.8c-2.2,-5.4,-8.8,-9.6,-16.8,-10.4m-6.9,.2c-8.1,1.2,-14.4,5.8,-16,11.6m.5,6.7c2.2,5.5,8.8,9.7,16.8,10.4" class="g8_22"/>
<path d="M594.8,729c.1,-.5,.1,-.9,.1,-1.4c0,-.5,0,-.9,-.1,-1.4M575.9,713c-.5,0,-.9,0,-1.4,0c-.5,0,-.9,0,-1.4,0m-18.9,13.2c-.1,.5,-.1,.9,-.1,1.4c0,.5,0,.9,.1,1.4m18.9,13.1c.5,.1,.9,.1,1.4,.1c.5,0,.9,0,1.4,-.1" class="g9_22"/>
<path d="M258.2,668.8L257.1,660l-10.6,6Z" class="ga_22"/>
<path d="M505.6,1221.3c0,0,-4.3,0,-4.3,4.4v10.8c0,0,0,4.3,4.3,4.3h30.3c0,0,4.3,0,4.3,-4.3v-10.8c0,0,0,-4.4,-4.3,-4.4Z" class="gb_22"/>
<path d="M492.4,1212.5V1250m1.3,1H845.1m1,-1.3v-37.6m-1.4,-1H493.4" class="gc_22"/>
<path d="M492.4,1250.4v.6h.6m352.5,0h.6v-.6m0,-38.7v-.6h-.6m-352.5,0h-.6v.6" class="gd_22"/>
<path d="M209.2,474.3c0,0,-13,0,-13,13v21.6c0,0,0,13,13,13h602c0,0,13,0,13,-13V487.3c0,0,0,-13,-13,-13Z" class="ge_22"/>
<image clip-path="url(#c4_22)" preserveAspectRatio="none" x="152" y="445" width="75" height="76" xlink:href="img/4.png"/>
<path d="M204,514.6c0,0,-26.8,11.3,-51.1,-12.8c0,0,15.2,25.3,49.3,24c0,0,24.8,.3,20.3,-10.2c0,0,1.2,-4.4,-18.5,-1Z" class="ge_22"/>
<path d="M209.2,1082.7c0,0,-13,0,-13,13v21.7c0,0,0,12.9,13,12.9h602c0,0,13,0,13,-12.9v-21.7c0,0,0,-13,-13,-13Z" class="ge_22"/>
<image clip-path="url(#c5_22)" preserveAspectRatio="none" x="152" y="1053" width="75" height="76" xlink:href="img/5.png"/>
<path d="M204,1123c0,0,-26.8,11.3,-51.1,-12.8c0,0,15.2,25.3,49.3,24c0,0,24.8,.3,20.3,-10.1c0,0,1.2,-4.5,-18.5,-1.1Z" class="ge_22"/>
<path d="M131.7,392.2v39l11.7,10.3V397.2Z" class="gf_22"/>
<path d="M131.7,392.2v39H829.5c0,0,16.8,0,16.8,-16.8V409c0,0,0,-16.8,-16.8,-16.8Z" class="gb_22"/>
<path d="M781,425.8c8.2,0,14.8,-6.5,14.8,-14.5c0,-8,-6.6,-14.5,-14.8,-14.5c-8.3,0,-14.9,6.5,-14.9,14.5c0,8,6.6,14.5,14.9,14.5Z" class="gg_22"/>
<path d="M781,425.8c8.2,0,14.8,-6.5,14.8,-14.5c0,-8,-6.6,-14.5,-14.8,-14.5c-8.3,0,-14.9,6.5,-14.9,14.5c0,8,6.6,14.5,14.9,14.5Z" class="gh_22"/>
<path d="M781,416.7c3,0,5.4,-2.4,5.4,-5.4c0,-3,-2.4,-5.3,-5.4,-5.3c-3.1,0,-5.5,2.3,-5.5,5.3c0,3,2.4,5.4,5.5,5.4Z" class="g1_22"/>
<path d="M781,416.7c3,0,5.4,-2.4,5.4,-5.4c0,-3,-2.4,-5.3,-5.4,-5.3c-3.1,0,-5.5,2.3,-5.5,5.3c0,3,2.4,5.4,5.5,5.4Z" class="gi_22"/>
<g clip-path="url(#c6_22)" opacity="0.3">
<path d="M766.4,410.5c0,0,-.1,-4.8,3.6,-8.6l7.8,6.7c0,0,-1,.9,-1.1,2.7Z" class="g1_22"/>
</g>
<path d="M785.6,411.2c0,0,-3.5,0,-3.5,3.5v8.7c0,0,0,3.4,3.5,3.4H829c0,0,3.5,0,3.5,-3.4v-8.7c0,0,0,-3.5,-3.5,-3.5Z" class="gj_22"/>
<path d="M169.5,402.3c0,-8.4,-6.7,-15.1,-15,-15.1c-8.4,0,-15.1,6.7,-15.1,15.1c0,8.3,6.8,15,15.1,15c.8,0,1.6,-.1,2.4,-.2l4.5,5.2v-6.7c4.8,-2.5,8.1,-7.5,8.1,-13.3Z" class="g1_22"/>
<path d="M161.8,423.6l-5.1,-6c-.7,.1,-1.5,.2,-2.2,.2c-8.6,0,-15.6,-7,-15.6,-15.5c0,-8.6,7,-15.5,15.6,-15.5c8.5,0,15.5,6.9,15.5,15.5c0,5.7,-3.1,10.9,-8.2,13.6Zm-4.7,-7l3.8,4.5v-5.7l.3,-.2c4.8,-2.5,7.9,-7.5,7.9,-12.9c0,-8.1,-6.6,-14.6,-14.6,-14.6c-8.1,0,-14.6,6.5,-14.6,14.6c0,8,6.5,14.6,14.6,14.6c.7,0,1.5,-.1,2.3,-.2Z" class="gk_22"/>
<path d="M147.4,401.8c.8,0,1.5,.7,1.5,1.5c0,.8,-.7,1.4,-1.5,1.4c-.7,0,-1.4,-.6,-1.4,-1.4c0,-.8,.7,-1.5,1.4,-1.5Z" class="gl_22"/>
<path d="M147.4,405.2c-1,0,-1.8,-.9,-1.8,-1.9c0,-1.1,.8,-1.9,1.8,-1.9c1.1,0,1.9,.8,1.9,1.9c0,1,-.8,1.9,-1.9,1.9m0,-2.9c-.5,0,-.9,.4,-.9,1c0,.5,.4,1,.9,1c.6,0,1,-.5,1,-1c0,-.6,-.4,-1,-1,-1Z" class="gk_22"/>
<path d="M154.5,401.8c.8,0,1.4,.7,1.4,1.5c0,.8,-.6,1.4,-1.4,1.4c-.8,0,-1.5,-.6,-1.5,-1.4c0,-.8,.7,-1.5,1.5,-1.5Z" class="gl_22"/>
<path d="M154.5,405.2c-1.1,0,-1.9,-.9,-1.9,-1.9c0,-1.1,.8,-1.9,1.9,-1.9c1,0,1.9,.8,1.9,1.9c0,1,-.9,1.9,-1.9,1.9m0,-2.9c-.6,0,-1,.4,-1,1c0,.5,.4,1,1,1c.5,0,.9,-.5,.9,-1c0,-.6,-.4,-1,-.9,-1Z" class="gk_22"/>
<path d="M161.5,401.8c.8,0,1.4,.7,1.4,1.5c0,.8,-.6,1.4,-1.4,1.4c-.8,0,-1.5,-.6,-1.5,-1.4c0,-.8,.7,-1.5,1.5,-1.5Z" class="gl_22"/>
<path d="M161.5,405.2c-1.1,0,-1.9,-.9,-1.9,-1.9c0,-1.1,.8,-1.9,1.9,-1.9c1,0,1.9,.8,1.9,1.9c0,1,-.9,1.9,-1.9,1.9m0,-2.9c-.6,0,-1,.4,-1,1c0,.5,.4,1,1,1c.5,0,1,-.5,1,-1c0,-.6,-.5,-1,-1,-1Z" class="gk_22"/>
<path d="M163.4,416.5c0,-9.7,7.9,-17.6,17.6,-17.6c9.7,0,17.6,7.9,17.6,17.6c0,9.7,-7.9,17.6,-17.6,17.6c-.9,0,-1.9,-.1,-2.8,-.2l-5.3,6.1v-7.8c-5.6,-3,-9.5,-8.9,-9.5,-15.7Z" class="gm_22"/>
<path d="M172.9,440.5c0,0,-.1,-.1,-.1,-.1c-.2,0,-.3,-.2,-.3,-.4v-7.6c-5.9,-3.1,-9.6,-9.2,-9.6,-15.9c0,-10,8.2,-18.1,18.1,-18.1c10,0,18.1,8.1,18.1,18.1c0,10,-8.1,18.1,-18.1,18.1c-.8,0,-1.7,-.1,-2.6,-.2l-5.1,5.9c-.1,.1,-.2,.2,-.4,.2M181,399.4c-9.4,0,-17.1,7.6,-17.1,17.1c0,6.5,3.5,12.3,9.2,15.2c.2,.1,.3,.3,.3,.5v6.6l4.4,-5.2c.1,-.1,.3,-.2,.5,-.2c.9,.2,1.8,.3,2.7,.3c9.5,0,17.2,-7.7,17.2,-17.2c0,-9.5,-7.7,-17.1,-17.2,-17.1Z" class="gk_22"/>
<path d="M189.2,416c.9,0,1.7,.8,1.7,1.7c0,.9,-.8,1.7,-1.7,1.7c-.9,0,-1.7,-.8,-1.7,-1.7c0,-.9,.8,-1.7,1.7,-1.7Z" class="g1_22"/>
<path d="M189.2,419.8c-1.2,0,-2.1,-.9,-2.1,-2.1c0,-1.2,.9,-2.1,2.1,-2.1c1.2,0,2.1,.9,2.1,2.1c0,1.2,-.9,2.1,-2.1,2.1m0,-3.3c-.7,0,-1.2,.5,-1.2,1.2c0,.7,.5,1.2,1.2,1.2c.7,0,1.2,-.5,1.2,-1.2c0,-.7,-.5,-1.2,-1.2,-1.2Z" class="gk_22"/>
<path d="M181,416c.9,0,1.7,.8,1.7,1.7c0,.9,-.8,1.7,-1.7,1.7c-.9,0,-1.7,-.8,-1.7,-1.7c0,-.9,.8,-1.7,1.7,-1.7Z" class="g1_22"/>
<path d="M181,419.8c-1.2,0,-2.1,-.9,-2.1,-2.1c0,-1.2,.9,-2.1,2.1,-2.1c1.2,0,2.1,.9,2.1,2.1c0,1.2,-.9,2.1,-2.1,2.1m0,-3.3c-.7,0,-1.2,.5,-1.2,1.2c0,.7,.5,1.2,1.2,1.2c.7,0,1.2,-.5,1.2,-1.2c0,-.7,-.5,-1.2,-1.2,-1.2Z" class="gk_22"/>
<path d="M172.8,416c.9,0,1.7,.8,1.7,1.7c0,.9,-.8,1.7,-1.7,1.7c-.9,0,-1.7,-.8,-1.7,-1.7c0,-.9,.8,-1.7,1.7,-1.7Z" class="g1_22"/>
<path d="M172.8,419.8c-1.2,0,-2.1,-.9,-2.1,-2.1c0,-1.2,.9,-2.1,2.1,-2.1c1.2,0,2.1,.9,2.1,2.1c0,1.2,-.9,2.1,-2.1,2.1m0,-3.3c-.7,0,-1.2,.5,-1.2,1.2c0,.7,.5,1.2,1.2,1.2c.7,0,1.2,-.5,1.2,-1.2c0,-.7,-.5,-1.2,-1.2,-1.2Z" class="gk_22"/>
<image clip-path="url(#c7_22)" x="160" y="623" width="5" height="10" xlink:href="shade/1.png"/>
<image clip-path="url(#c8_22)" x="159" y="597" width="24" height="28" xlink:href="shade/2.png"/>
<image clip-path="url(#c9_22)" x="159" y="599" width="23" height="34" xlink:href="shade/3.png"/>
<image clip-path="url(#ca_22)" x="164" y="595" width="20" height="10" xlink:href="shade/4.png"/>
<image clip-path="url(#cb_22)" preserveAspectRatio="none" x="693" y="559" width="239" height="286" xlink:href="img/6.png"/>
<path d="M715.3,563.6L697.8,826.1l211.1,12.3l1.5,-22L926.2,576.8Z" class="g3_22"/>
<image clip-path="url(#cc_22)" preserveAspectRatio="none" x="699" y="565" width="227" height="273" xlink:href="img/7.png"/>
<image clip-path="url(#cd_22)" preserveAspectRatio="none" x="699" y="565" width="227" height="272" xlink:href="img/8.png"/>
<path d="M708.3,570L704,828.4l188.3,2.1l23.9,-21.7l3.9,-236Z" class="g4_22"/>
<path d="M892.3,830.9l23.8,-22.1l-16.4,-2.7Z" class="g5_22"/>
<image clip-path="url(#ce_22)" x="824" y="575" width="5" height="9" xlink:href="shade/5.png"/>
<image clip-path="url(#cf_22)" x="823" y="549" width="24" height="28" xlink:href="shade/6.png"/>
<image clip-path="url(#cg_22)" x="823" y="551" width="23" height="33" xlink:href="shade/7.png"/>
<image clip-path="url(#ch_22)" x="828" y="547" width="20" height="10" xlink:href="shade/8.png"/>
<path d="M32.1,179.3H967.5V32.1H32.1V179.3Z" class="gn_22"/>
<path d="M262.3,134H247.1l1.2,1.2h11.8v8.2L258.5,142c.2,-.6,.3,-1.3,.3,-1.9c0,-.8,-.2,-1.6,-.6,-2.2c-.3,-.5,-.6,-.9,-1,-1.2c-.5,-.3,-.9,-.6,-1.4,-.7c-.3,-.1,-.6,-.2,-.9,-.2c-.7,0,-1.3,.2,-2,.7c-.3,.2,-.5,.5,-.7,.8c-.1,.3,-.2,.6,-.2,.9c0,.4,0,.7,.2,.9c.3,.5,.7,.7,1.2,.8c.6,.1,1.1,0,1.5,-.3c.2,-.2,.4,-.4,.6,-.6c.1,-.3,.2,-.5,.2,-.8c0,-.3,-.1,-.6,-.4,-1c.3,-.1,.5,-.1,.7,0c.2,0,.5,.1,.8,.3c.1,.2,.3,.4,.5,.7c.2,.3,.3,.6,.4,.9c.1,.3,.1,.5,.1,.7c0,.6,-.2,1.1,-.5,1.7c-.4,.8,-1.4,1.3,-2.8,1.3c-.5,0,-1.1,-.2,-1.6,-.5c-.6,-.3,-1.1,-.8,-1.5,-1.4c-.5,-.5,-.9,-1.2,-1.2,-2c-.4,-.8,-.7,-1.7,-.9,-2.7l-.7,-.3c.1,1,.3,2,.6,2.9c.2,.9,.5,1.7,.9,2.3c.3,.5,.7,1,1,1.5c.4,.4,.8,.8,1.2,1.1c.4,.3,.8,.6,1.2,.7c.5,.2,.9,.3,1.3,.3c.7,0,1.3,-.2,1.9,-.4c.5,-.3,1,-.7,1.3,-1.2c1.4,.9,2.4,2.4,2.9,4.5v-.1l.4,.3V135.2h2.2L262.3,134Zm5.5,1.2L266.7,134h-1.1c-.4,-.4,-.6,-1,-.7,-1.9l-.5,-.3c0,.2,0,.5,0,.9c.1,.3,.1,.7,.1,1.2c.1,.5,.1,.9,.1,1.3c0,.3,0,.6,0,.9c-.2,-.8,-.5,-1.3,-.9,-1.6c-.4,-.3,-1,-.5,-1.7,-.5h-1.4l1.2,1.2c.3,0,.7,.1,1,.2c.3,.1,.6,.3,.8,.5c.3,.2,.5,.4,.6,.7c.2,.3,.2,.7,.2,1v8.9l1.2,1.2V135.2h2.2ZM278.2,134h-12l1.3,1.2c.4,.6,.8,1,1.1,1.2c.2,.2,.4,.3,.7,.4c.3,.2,.7,.3,1.1,.4c.8,.3,1.4,.5,1.7,.8c.4,.4,.6,1.1,.6,2.2c-.2,-.2,-.5,-.3,-.9,-.3c-.7,0,-1.3,.2,-1.7,.5c-.5,.4,-.8,1,-.8,1.6c0,.6,.2,1.1,.6,1.5c.4,.4,.9,.5,1.5,.5c.3,0,.6,0,1,-.2c.4,-.1,.7,-.5,1.1,-.9c1.6,.5,2.7,2,3.3,4.4l.5,.5V135.2h2.1L278.2,134Zm-2.1,9.8c-.2,-.4,-.5,-.8,-.9,-1.2c-.3,-.4,-.7,-.8,-1.2,-1.2c0,-.1,0,-.2,0,-.3v-.3c0,-1.1,-.3,-2.1,-1.1,-3.1c-.5,-.7,-1.3,-1.5,-2.6,-2.5h5.8v8.6Zm7.9,-8.6L282.9,134h-1.1c-.4,-.4,-.6,-1,-.8,-1.9l-.4,-.3c0,.2,0,.5,0,.9c.1,.3,.1,.7,.1,1.2c0,.5,.1,.9,.1,1.3c0,.3,0,.6,0,.9c-.2,-.8,-.6,-1.3,-1,-1.6c-.4,-.3,-.9,-.5,-1.6,-.5h-1.4l1.2,1.2c.3,0,.7,.1,1,.2c.3,.1,.6,.3,.8,.5c.3,.2,.5,.4,.6,.7c.2,.3,.2,.7,.2,1v8.9l1.2,1.2V135.2H284Zm11.2,0L294,134H282.2l1.2,1.2h8.1v.9c-2.5,.8,-4.9,2.1,-7.3,3.7l1.6,2.3h-.1c1.7,.1,3.1,.7,4.1,1.6c.3,.3,.6,.6,1,1c.3,.4,.5,.8,.7,1c.1,.3,.3,.7,.5,1.3l.7,.8V135.2h2.5Zm-3.7,9.4c-1,-1.8,-2.6,-3.2,-4.8,-4.1c.9,-.6,1.7,-1.1,2.5,-1.5c.8,-.4,1.6,-.7,2.3,-1v6.6Zm-4.7,1.7c.3,.3,.6,.4,.9,.4c.4,0,.7,-.1,.9,-.4c.2,-.2,.4,-.5,.4,-.8c0,-.4,-.2,-.7,-.4,-.9c-.2,-.3,-.5,-.4,-.9,-.4c-.3,0,-.6,.1,-.9,.4c-.2,.2,-.3,.5,-.3,.9c0,.3,.1,.6,.3,.8ZM308.4,134c-.6,0,-1.1,.2,-1.5,.4c-.5,.3,-1,.5,-1.3,.8c-.8,.8,-1.4,1.8,-1.8,2.8c-.5,1,-.7,2.1,-.7,3.3c0,1.5,.3,2.8,.9,3.9c.7,1.4,1.8,2.1,3.2,2.1c.3,0,.6,0,.8,-.1c.3,-.1,.5,-.2,.7,-.4c.2,-.2,.4,-.4,.5,-.7c.1,-.2,.2,-.5,.2,-.8c0,-.4,-.2,-.9,-.5,-1.2c-.2,-.3,-.6,-.5,-1,-.5c-.2,0,-.4,.1,-.5,.1c-.2,.1,-.4,.2,-.5,.3c-.1,.2,-.3,.3,-.3,.4c-.1,.2,-.2,.4,-.2,.6c0,.2,.1,.4,.2,.7c.1,.2,.3,.4,.6,.6c-.1,0,-.1,.1,-.3,.1c-.8,0,-1.4,-.5,-2,-1.4c-.4,-.7,-.6,-1.5,-.6,-2.3c0,-1,.1,-1.9,.3,-2.7c.2,-.7,.5,-1.4,.9,-2.1c.5,-.7,1,-1.3,1.7,-1.7c.7,-.5,1.4,-.8,2.3,-1L308.4,134Zm12.5,1.2L319.7,134H307.9l1.2,1.2h1.3v7.1L312,144c.5,-1.1,1.2,-2.1,2.1,-2.9c.9,-.9,1.9,-1.5,2.9,-1.9c-.3,1,-.4,2.1,-.4,3.1c0,.6,.1,1.3,.2,2.2c.1,.8,.3,1.8,.5,3l.9,.4c-.3,-1.6,-.5,-2.8,-.5,-3.7c0,-.9,.1,-1.8,.4,-2.8c.3,-1,.7,-2,1.3,-3l-2,-1.5c-.4,.1,-.8,.3,-1.3,.6c-.5,.2,-1,.5,-1.5,.8c-.5,.4,-1,.7,-1.5,1.2c-.5,.4,-1,.8,-1.4,1.3v-5.6h9.2Zm6,-1.2h-8l1.2,1.2h4c-1.7,2,-2.5,4,-2.5,6.1c0,1.5,.3,2.8,.9,3.9c.7,1.4,1.8,2.1,3.2,2.1c.3,0,.6,0,.8,-.1c.3,-.1,.5,-.2,.7,-.4c.2,-.2,.4,-.4,.5,-.7c.1,-.2,.2,-.5,.2,-.8c0,-.4,-.2,-.9,-.5,-1.2c-.2,-.3,-.6,-.5,-1,-.5c-.4,0,-.7,.2,-1,.4c-.3,.3,-.5,.6,-.5,1c0,.2,.1,.4,.2,.7c.1,.2,.3,.4,.6,.6c-.7,.2,-1.5,-.2,-2.2,-1.3c-.5,-.7,-.7,-1.5,-.7,-2.3c0,-1,.1,-1.9,.3,-2.7c.2,-.7,.5,-1.4,.9,-2.1c.5,-.7,1,-1.3,1.7,-1.7c.7,-.5,1.4,-.8,2.3,-1L326.9,134Zm13.6,1.2L339.3,134c-.6,-.1,-1.1,-.6,-1.2,-1.5l-.7,-.6l.2,5.3h-.1c-.1,-.5,-.5,-1.2,-1.2,-2c-.7,-.8,-1.3,-1.2,-1.7,-1.2c-1.3,0,-2.3,.8,-3,2.4c-.2,-.7,-.5,-1.2,-1.1,-1.7c-.5,-.5,-1.1,-.7,-1.7,-.7h-2.6l1.2,1.2c.1,0,.6,0,1.4,0c.7,0,1.4,.5,2,1.5c-.3,.1,-.6,.2,-.8,.4c-.3,.2,-.5,.4,-.7,.7c-.2,.2,-.4,.5,-.5,.8c-.1,.2,-.1,.5,-.1,.8c0,.4,.1,.8,.4,1.2c.3,.3,.6,.5,1.1,.5c.9,0,1.5,-.5,1.9,-1.5c.2,.5,.4,.8,.8,1.1c.3,.2,.7,.4,1.1,.4c.5,-.1,.9,-.3,1.1,-.7c.3,-.3,.5,-.7,.5,-1.2c0,-.6,-.7,-1.3,-1.9,-2.2c0,-.3,.1,-.6,.4,-.7c.3,-.2,.6,-.3,.9,-.3c.5,0,1,.3,1.6,1c.5,.8,.8,1.4,.8,1.9l-.1,7.7l1.2,1.2V135.2h2Zm11.4,0L350.7,134H338.9l1.2,1.2h8.1v.9c-2.5,.8,-4.9,2.1,-7.3,3.7l1.6,2.3c1.6,.1,3,.7,4,1.6c.3,.3,.6,.6,1,1c.3,.4,.5,.8,.7,1c.1,.3,.3,.7,.5,1.3l.7,.8V135.2h2.5Zm-3.7,9.4c-1,-1.8,-2.6,-3.2,-4.8,-4.1c.9,-.6,1.7,-1.1,2.5,-1.5c.8,-.4,1.6,-.7,2.3,-1v6.6Zm-4.7,1.7c.3,.3,.6,.4,.9,.4c.4,0,.7,-.1,.9,-.4c.2,-.2,.4,-.5,.4,-.8c0,-.4,-.2,-.7,-.4,-.9c-.2,-.3,-.5,-.4,-.9,-.4c-.3,0,-.6,.1,-.9,.4c-.2,.2,-.3,.5,-.3,.9c0,.3,.1,.6,.3,.8Zm27.2,-11.1L369.6,134H357.7l1.2,1.2h8.2v.9c-2.5,.8,-5,2.1,-7.3,3.7l1.5,2.3c1.7,.1,3.1,.7,4.1,1.6c.3,.3,.6,.6,.9,1c.3,.4,.6,.8,.8,1.2c.2,.3,.3,.5,.3,.7c.1,.1,.2,.2,.2,.4l.7,.8V135.2h2.4Zm-3.6,9.4c-1.1,-1.8,-2.7,-3.2,-4.8,-4.1c.8,-.6,1.7,-1.1,2.5,-1.5c.8,-.4,1.5,-.7,2.3,-1v6.6Zm7.9,-9.4L373.8,134h-1.1c-.3,-.4,-.6,-1,-.7,-1.9l-.4,-.3c0,.2,0,.5,0,.9c0,.3,0,.7,0,1.2c.1,.5,.1,.9,.1,1.3c0,.3,.1,.6,.1,.9c-.3,-.8,-.6,-1.3,-1,-1.6c-.4,-.3,-1,-.5,-1.7,-.5h-1.4l1.2,1.2c.4,0,.7,.1,1,.2c.3,.1,.6,.3,.9,.5c.2,.2,.4,.4,.6,.7c.1,.3,.2,.7,.2,1v8.9l1.1,1.2V135.2H375Zm11.9,-3.3c-2.4,-2.4,-4.8,-3.6,-7.3,-3.6c-1,0,-2,.4,-3.1,1.2c-1.1,.9,-1.6,1.8,-1.6,2.7c0,.4,.2,.7,.5,1l.8,.8H373l1.2,1.2H376v11.3l1.2,1.2V135.2h2.1L378.1,134h-1.3l-.5,-1.1c.1,-.9,.6,-1.6,1.7,-2.3c.9,-.7,1.8,-1,2.7,-1c.6,0,1.2,.1,1.8,.2c.6,.2,1.2,.4,1.7,.7c.6,.4,1.1,.7,1.6,1c.5,.4,.9,.7,1.3,1l-.2,-.6Zm-1.8,18.2c.3,.3,.6,.4,1,.4c.4,0,.8,-.1,1.1,-.4c.2,-.3,.4,-.6,.4,-1c0,-.4,-.2,-.8,-.4,-1c-.3,-.3,-.7,-.5,-1.1,-.5c-.4,0,-.7,.2,-1,.5c-.2,.2,-.4,.6,-.4,1c0,.4,.2,.7,.4,1Zm6.8,-14.9L390.8,134H377.7l1.2,1.2H384v4.1c0,1.7,.5,2.6,1.6,2.6c.4,-.1,.7,-.2,1.1,-.3c.3,-.2,.6,-.3,1,-.6c.3,-.2,.5,-.4,.8,-.7c.2,-.3,.4,-.6,.5,-.9c.5,.5,.7,1,.7,1.6c0,.5,-.2,1.1,-.5,1.5c-.4,.5,-.8,.9,-1.4,1.2c-.5,.3,-1.1,.4,-1.8,.4c-1.7,0,-3,-.9,-4,-2.7c-.3,-.7,-.6,-1.5,-.9,-2.3c-.2,-.9,-.3,-1.8,-.4,-2.7l-.8,-.4c.6,6.8,2.7,10.3,6.3,10.3c1.4,0,2.4,-.5,3.2,-1.4c.8,-.9,1.2,-2,1.2,-3.4c0,-.4,-.1,-.8,-.2,-1.2c-.1,-.4,-.2,-.8,-.4,-1.1c-.2,-.4,-.4,-.7,-.7,-1c-.3,-.3,-.6,-.6,-.9,-.8c-.3,.2,-.5,.5,-.7,.8c-.3,.4,-.5,.7,-.7,1c-.3,.3,-.6,.5,-.8,.7c-.3,.1,-.7,.2,-1.1,.1v-4.8h6.8Zm11.4,0L402.1,134H390.3l1.2,1.2h8.2v.9c-2.5,.8,-5,2.1,-7.4,3.7l1.6,2.3c1.7,.1,3,.7,4.1,1.6c.3,.3,.6,.6,.9,1c.3,.4,.6,.8,.7,1c.2,.3,.3,.7,.6,1.3l.6,.8V135.2h2.5Zm-3.6,9.4c-1.1,-1.8,-2.7,-3.2,-4.8,-4.1c.8,-.6,1.7,-1.1,2.4,-1.5c.8,-.4,1.6,-.7,2.4,-1v6.6Zm-4.7,1.7c.2,.3,.5,.4,.9,.4c.3,0,.6,-.1,.8,-.4c.3,-.2,.4,-.5,.4,-.8c0,-.4,-.1,-.7,-.4,-.9c-.2,-.3,-.5,-.4,-.8,-.4c-.4,0,-.7,.1,-.9,.4c-.3,.2,-.4,.5,-.4,.9c0,.3,.1,.6,.4,.8Zm27.2,-11.1L421,134H409.2l1.2,1.2h8.2v.9c-2.6,.8,-5,2.1,-7.4,3.7l1.6,2.3c1.7,.1,3,.7,4,1.6c.3,.3,.6,.6,1,1c.3,.4,.5,.8,.7,1.2c.2,.3,.3,.5,.4,.7c0,.1,.1,.2,.1,.4l.7,.8V135.2h2.5Zm-3.6,9.4c-1.1,-1.8,-2.7,-3.2,-4.9,-4.1c.9,-.6,1.7,-1.1,2.5,-1.5c.8,-.4,1.6,-.7,2.4,-1v6.6Zm7.8,-9.4L425.2,134h-1c-.4,-.4,-.6,-1,-.8,-1.9l-.4,-.3c0,.2,0,.5,0,.9c0,.3,.1,.7,.1,1.2c0,.5,.1,.9,.1,1.3c0,.3,0,.6,0,.9c-.3,-.8,-.6,-1.3,-1,-1.6c-.4,-.3,-.9,-.5,-1.7,-.5h-1.3l1.2,1.2c.3,0,.6,.1,1,.2c.3,.1,.6,.3,.8,.5c.3,.2,.5,.4,.6,.7c.1,.3,.2,.7,.2,1v8.9l1.2,1.2V135.2h2.2Zm10.7,0L435.9,134H424.8c.6,1,1.7,1.7,3.3,2.2c.7,.2,1.2,.4,1.6,.6c.4,.2,.7,.4,.9,.6c-.6,.4,-1.1,.8,-1.8,1.4c-.6,.5,-1.2,1.1,-1.8,1.7l1.6,2.1c1.4,.1,2.6,.5,3.5,1.2c.6,.5,1.1,1.2,1.7,2.3c.6,1,1,1.6,1.4,1.8V135.2h1.9Zm-3.1,9.5c-1.1,-1.7,-2.6,-2.9,-4.5,-3.6c.5,-.5,1,-1.1,1.4,-1.6c.5,-.5,1,-.9,1.5,-1.4c-.6,-.7,-1.2,-1.3,-1.7,-1.8c-.5,-.5,-.9,-.9,-1.3,-1.1H434v9.5Zm-4.6,2c.2,.2,.5,.3,.8,.3c.3,0,.6,-.1,.9,-.3c.2,-.3,.3,-.6,.3,-.9c0,-.3,-.1,-.6,-.3,-.9c-.3,-.2,-.6,-.3,-.9,-.3c-.3,0,-.6,.1,-.8,.3c-.3,.3,-.4,.6,-.4,.9c0,.3,.1,.6,.4,.9Zm8.4,5.3c-.1,-.1,-.2,-.3,-.4,-.5c-.1,-.1,-.2,-.4,-.5,-.7c-.3,-.3,-.6,-.6,-.9,-1c-.3,-.3,-.7,-.6,-1,-.9c.1,-.3,.1,-.7,0,-1.2c0,-.4,-.1,-.8,-.2,-1.2l-1,-.6c.1,.5,.1,1,.1,1.4c.1,.5,0,.8,-.1,1c-.7,-.4,-1.3,-.6,-1.7,-.6c-.3,0,-.6,0,-.9,.1c-.2,.1,-.4,.2,-.7,.4c-.2,.2,-.3,.4,-.4,.6c-.2,.2,-.2,.5,-.2,.8c0,.5,.2,1,.7,1.3c.4,.4,1,.5,1.6,.5c1,0,1.8,-.5,2.4,-1.4c.3,.1,.5,.3,.8,.5c.3,.3,.6,.5,.8,.8c.3,.2,.6,.5,.9,.8c.2,.3,.4,.6,.7,.9v-1Zm-4.9,-3c.2,.1,.4,.2,.5,.3c-.1,.3,-.3,.5,-.6,.7c-.4,.2,-.8,.2,-1.1,.2c-.4,-.1,-.6,-.3,-.6,-.7c0,-.5,.4,-.7,1.2,-.7c.3,0,.5,.1,.6,.2Zm17.8,-15c-.6,0,-1.1,.2,-1.6,.4c-.4,.3,-.9,.5,-1.2,.8c-.8,.8,-1.4,1.8,-1.8,2.8c-.5,1,-.7,2.1,-.7,3.3c0,1.5,.3,2.8,.9,3.9c.7,1.4,1.8,2.1,3.2,2.1c.3,0,.6,0,.8,-.1c.3,-.1,.5,-.2,.7,-.4c.2,-.2,.4,-.4,.5,-.7c.1,-.2,.2,-.5,.2,-.8c0,-.4,-.2,-.9,-.5,-1.2c-.3,-.3,-.6,-.5,-1,-.5c-.2,0,-.4,.1,-.5,.1c-.2,.1,-.4,.2,-.5,.3c-.1,.2,-.3,.3,-.3,.4c-.1,.2,-.2,.4,-.2,.6c0,.2,.1,.4,.2,.7c.1,.2,.3,.4,.6,.6c-.1,0,-.1,.1,-.3,.1c-.8,0,-1.4,-.5,-2,-1.4c-.4,-.7,-.6,-1.5,-.6,-2.3c0,-1,.1,-1.9,.3,-2.7c.2,-.7,.5,-1.4,.9,-2.1c.5,-.7,1,-1.3,1.7,-1.7c.7,-.5,1.4,-.8,2.3,-1L450.7,134Zm15.5,1.2L465,134H449.8l1.3,1.2h7.7v1c-2.5,.8,-4.9,2.1,-6.9,3.7l1.7,2.1c1.3,.1,2.5,.7,3.6,1.8c.5,.5,.9,1,1.3,1.6c.4,.7,.7,1.3,1,2q.1,.1,.2,.2c.1,0,.2,.1,.3,.1v-10c1.2,0,2.1,.3,2.7,1c.7,.7,1,1.4,1,2.2l-.1,.3c-.1,-.2,-.3,-.3,-.5,-.4c-.2,-.2,-.4,-.2,-.7,-.2c-.4,0,-.7,.1,-1,.4c-.2,.2,-.4,.5,-.4,.9c0,.2,.1,.4,.2,.6c.1,.2,.2,.3,.3,.5c.2,.1,.3,.2,.5,.3c.2,.1,.4,.1,.6,.1c.3,0,.6,-.1,.8,-.2c.2,-.1,.5,-.3,.6,-.5c.2,-.2,.3,-.4,.4,-.7c.1,-.3,.2,-.5,.2,-.8c0,-1.3,-.4,-2.4,-1.2,-3.4c-.9,-1.2,-2,-1.7,-3.4,-1.7v-.9h6.2Zm-7.4,9.1h-.1c-.9,-1.8,-2.4,-3.1,-4.4,-4c.8,-.5,1.6,-1,2.3,-1.4c.7,-.4,1.5,-.8,2.2,-1.1v6.5Zm12,-9.1L469.7,134h-1.1c-.4,-.4,-.6,-1,-.7,-1.9l-.5,-.3c0,.2,0,.5,0,.9c.1,.3,.1,.7,.1,1.2c.1,.5,.1,.9,.1,1.3c0,.3,0,.6,0,.9c-.2,-.8,-.5,-1.3,-.9,-1.6c-.4,-.3,-1,-.5,-1.7,-.5h-1.4l1.2,1.2c.3,0,.7,.1,1,.2c.3,.1,.6,.3,.8,.5c.3,.2,.5,.4,.6,.7c.2,.3,.2,.7,.2,1v8.9l1.2,1.2V135.2h2.2Zm11.9,-3.3c-2.3,-2.4,-4.7,-3.6,-7.3,-3.6c-.9,0,-2,.4,-3,1.2c-1.1,.9,-1.6,1.8,-1.6,2.7c0,.4,.1,.7,.4,1l.9,.8h-3.2l1.2,1.2h1.8v11.3l1.2,1.2V135.2h2.1L474,134h-1.3l-.5,-1.1c.1,-.9,.6,-1.6,1.6,-2.3c1,-.7,1.9,-1,2.8,-1c.6,0,1.2,.1,1.8,.2c.6,.2,1.1,.4,1.7,.7c.6,.4,1.1,.7,1.6,1c.4,.4,.9,.7,1.3,1l-.3,-.6Zm3.7,3.3L485.2,134H473.4l1.2,1.2h8.2v.9c-2.5,.8,-5,2.1,-7.4,3.7l1.6,2.3c1.7,.1,3,.7,4.1,1.6c.3,.3,.6,.6,.9,1c.3,.4,.6,.8,.7,1c.2,.3,.3,.7,.6,1.3l.6,.8V135.2h2.5Zm-3.6,9.4c-1.1,-1.8,-2.7,-3.2,-4.9,-4.1c.9,-.6,1.7,-1.1,2.5,-1.5c.8,-.4,1.6,-.7,2.4,-1v6.6Zm-4.7,1.7c.2,.3,.5,.4,.9,.4c.3,0,.6,-.1,.8,-.4c.3,-.2,.4,-.5,.4,-.8c0,-.4,-.1,-.7,-.4,-.9c-.2,-.3,-.5,-.4,-.8,-.4c-.4,0,-.7,.1,-.9,.4c-.3,.2,-.4,.5,-.4,.9c0,.3,.1,.6,.4,.8ZM497,135.2L495.8,134H484.7c.6,1,1.7,1.7,3.3,2.2c.7,.2,1.3,.4,1.7,.6c.4,.2,.7,.4,.8,.6c-.5,.4,-1.1,.8,-1.7,1.4c-.6,.5,-1.3,1.1,-1.9,1.7l1.6,2.1c1.4,.1,2.6,.5,3.5,1.2c.6,.5,1.2,1.2,1.8,2.3c.5,1,1,1.6,1.3,1.8V135.2H497Zm-3.1,9.5c-1,-1.7,-2.5,-2.9,-4.5,-3.6c.5,-.5,1,-1.1,1.5,-1.6c.5,-.5,.9,-.9,1.4,-1.4c-.6,-.7,-1.1,-1.3,-1.6,-1.8c-.6,-.5,-1,-.9,-1.4,-1.1h4.6v9.5Zm-4.6,2c.2,.2,.5,.3,.8,.3c.4,0,.7,-.1,.9,-.3c.3,-.3,.4,-.6,.4,-.9c0,-.3,-.1,-.6,-.4,-.9c-.2,-.2,-.5,-.3,-.9,-.3c-.3,0,-.6,.1,-.8,.3c-.3,.3,-.4,.6,-.4,.9c0,.3,.1,.6,.4,.9Zm12.5,-11.5L500.6,134h-1.1c-.3,-.4,-.6,-1,-.7,-1.9l-.4,-.3c0,.2,0,.5,0,.9c0,.3,0,.7,0,1.2c.1,.5,.1,.9,.1,1.3c0,.3,0,.6,0,.9c-.2,-.8,-.5,-1.3,-.9,-1.6c-.4,-.3,-1,-.5,-1.7,-.5h-1.4l1.2,1.2c.4,0,.7,.1,1,.2c.3,.1,.6,.3,.9,.5c.2,.2,.4,.4,.6,.7c.1,.3,.2,.7,.2,1v8.9l1.1,1.2V135.2h2.3Zm11.1,0L511.7,134H499.9l1.2,1.2h8.2v.9c-2.5,.8,-5,2.1,-7.4,3.7l1.6,2.3c1.7,.1,3,.7,4.1,1.6c.3,.3,.6,.6,.9,1c.3,.4,.6,.8,.7,1c.2,.3,.3,.7,.6,1.3l.6,.8V135.2h2.5Zm-3.6,9.4c-1.1,-1.8,-2.7,-3.2,-4.9,-4.1c.9,-.6,1.7,-1.1,2.5,-1.5c.8,-.4,1.6,-.7,2.4,-1v6.6Zm-4.7,1.7c.2,.3,.5,.4,.9,.4c.3,0,.6,-.1,.8,-.4c.3,-.2,.4,-.5,.4,-.8c0,-.4,-.1,-.7,-.4,-.9c-.2,-.3,-.5,-.4,-.8,-.4c-.4,0,-.7,.1,-.9,.4c-.3,.2,-.4,.5,-.4,.9c0,.3,.1,.6,.4,.8ZM526.1,134c-.5,0,-1,.2,-1.5,.4c-.5,.3,-.9,.5,-1.3,.8c-.8,.8,-1.4,1.8,-1.8,2.8c-.4,1,-.7,2.1,-.7,3.3c0,1.5,.3,2.8,.9,3.9c.8,1.4,1.8,2.1,3.2,2.1c.3,0,.6,0,.9,-.1c.2,-.1,.5,-.2,.7,-.4c.2,-.2,.3,-.4,.4,-.7c.1,-.2,.2,-.5,.2,-.8c0,-.4,-.1,-.9,-.4,-1.2c-.3,-.3,-.7,-.5,-1.1,-.5c-.1,0,-.3,.1,-.5,.1c-.2,.1,-.3,.2,-.5,.3c-.1,.2,-.2,.3,-.3,.4c-.1,.2,-.1,.4,-.1,.6c0,.2,0,.4,.1,.7c.2,.2,.4,.4,.6,.6c0,0,-.1,.1,-.2,.1h-.1c-.8,0,-1.4,-.5,-1.9,-1.4c-.5,-.7,-.7,-1.5,-.7,-2.3c0,-1,.1,-1.9,.3,-2.7c.2,-.7,.6,-1.4,1,-2.1c.4,-.7,1,-1.3,1.6,-1.7c.7,-.5,1.5,-.8,2.4,-1L526.1,134Zm9.8,0H525.6l1.2,1.2h1.8v9.1c0,.4,.2,.9,.7,1.5c.4,.5,.9,.7,1.3,.7c1.2,0,2.4,-.7,3.5,-2.2c1.1,-1.4,1.7,-2.7,1.7,-3.9c.1,-1,-.9,-1.8,-3,-2.5c-2.1,-.6,-3.1,-1.5,-3.1,-2.7h7.4L535.9,134Zm-1.9,6.8c0,.7,-.5,1.5,-1.4,2.6c-.8,1,-1.6,1.5,-2.3,1.5c-.3,0,-.5,-.2,-.5,-.7v-7c.8,1.5,2.2,2.5,4.1,3.1c0,0,.1,.2,.1,.5Zm9.2,-6.8h-7.9l1.2,1.2h4c-1.7,2,-2.6,4,-2.6,6.1c0,1.5,.3,2.8,1,3.9c.7,1.4,1.8,2.1,3.2,2.1c.3,0,.5,0,.8,-.1c.3,-.1,.5,-.2,.7,-.4c.2,-.2,.3,-.4,.5,-.7c.1,-.2,.1,-.5,.1,-.8c0,-.4,-.1,-.9,-.4,-1.2c-.3,-.3,-.6,-.5,-1,-.5c-.4,0,-.7,.2,-1,.4c-.3,.3,-.5,.6,-.5,1c0,.2,.1,.4,.2,.7c.1,.2,.3,.4,.6,.6c-.8,.2,-1.5,-.2,-2.3,-1.3c-.4,-.7,-.6,-1.5,-.7,-2.3c0,-1,.1,-1.9,.4,-2.7c.2,-.7,.5,-1.4,.9,-2.1c.5,-.7,1,-1.3,1.7,-1.7c.6,-.5,1.4,-.8,2.3,-1L543.2,134Zm11.7,1.2L553.7,134H542.6c.6,1,1.7,1.7,3.3,2.2c.7,.2,1.3,.4,1.7,.6c.4,.2,.7,.4,.8,.6c-.5,.4,-1.1,.8,-1.7,1.4c-.6,.5,-1.3,1.1,-1.9,1.7l1.6,2.1c1.4,.1,2.6,.5,3.5,1.2c.6,.5,1.2,1.2,1.8,2.3c.5,1,1,1.6,1.3,1.8V135.2h1.9Zm-3.1,9.5c-1,-1.7,-2.5,-2.9,-4.5,-3.6c.5,-.5,1,-1.1,1.5,-1.6c.4,-.5,.9,-.9,1.4,-1.4c-.6,-.7,-1.1,-1.3,-1.6,-1.8c-.6,-.5,-1,-.9,-1.4,-1.1h4.6v9.5Zm-4.6,2c.2,.2,.5,.3,.8,.3c.4,0,.7,-.1,.9,-.3c.3,-.3,.4,-.6,.4,-.9c0,-.3,-.1,-.6,-.4,-.9c-.2,-.2,-.5,-.3,-.9,-.3c-.3,0,-.6,.1,-.8,.3c-.3,.3,-.4,.6,-.4,.9c0,.3,.1,.6,.4,.9ZM576,135.2L574.8,134c-.1,0,-.3,0,-.4,0c-.4,0,-.7,-.2,-.9,-.6c-.1,-.2,-.1,-.6,-.2,-1.2l-.5,-.5c0,1.1,.1,2.2,.1,3.2c.1,1.1,.1,2.1,.2,3.2H573c-1.5,-2.6,-3.1,-3.9,-4.9,-3.9c-.4,0,-.9,.1,-1.4,.3c-.5,.1,-1.1,.4,-1.6,.7c-.5,.4,-1,.8,-1.3,1.2c-.3,.4,-.4,.9,-.4,1.3c0,.2,.1,.5,.3,.7c.2,.2,.4,.3,.6,.3c.2,0,.5,-.1,.9,-.3c.2,-.1,.3,-.1,.5,-.2c.1,0,.2,0,.3,0c.5,0,.8,.4,.8,1.2c0,.5,-.5,1.1,-1.3,1.9l1.7,.6l4.2,-4.2c.2,.1,.3,.2,.5,.4c.1,.2,.3,.4,.5,.6c.1,.3,.2,.5,.3,.7c.1,.3,.1,.5,.1,.6l-.1,6.4l1.3,1.3V135.2h2Zm-8.5,4.2c0,-.7,-.1,-1.2,-.4,-1.6c-.3,-.5,-.7,-.7,-1.4,-.7c.6,-1.1,1.5,-1.6,2.8,-1.6c.7,0,1.4,.3,1.9,.9l-2.9,3ZM588,131.9c-2.3,-2.4,-4.7,-3.6,-7.3,-3.6c-1,0,-2,.4,-3,1.2c-1.1,.9,-1.7,1.8,-1.7,2.7c0,.4,.2,.7,.5,1l.8,.8h-3.1l1.1,1.2h1.8v11.3l1.3,1.2V135.2h2.1L579.2,134h-1.3l-.4,-1.1c0,-.9,.6,-1.6,1.6,-2.3c1,-.7,1.9,-1,2.8,-1c.6,0,1.2,.1,1.8,.2c.5,.2,1.1,.4,1.6,.7c.6,.4,1.2,.7,1.6,1c.5,.4,.9,.7,1.3,1l-.2,-.6Zm3.7,3.3L590.5,134H578.7l1.2,1.2h8.2v.9c-2.6,.8,-5,2.1,-7.4,3.7l1.6,2.3c1.7,.1,3,.7,4,1.6c.3,.3,.6,.6,1,1c.3,.4,.5,.8,.7,1c.1,.3,.3,.7,.5,1.3l.7,.8V135.2h2.5Zm-3.6,9.4c-1.1,-1.8,-2.7,-3.2,-4.9,-4.1c.9,-.6,1.7,-1.1,2.5,-1.5c.8,-.4,1.6,-.7,2.4,-1v6.6Zm-4.8,1.7c.3,.3,.6,.4,.9,.4c.4,0,.7,-.1,.9,-.4c.2,-.2,.4,-.5,.4,-.8c0,-.4,-.2,-.7,-.4,-.9c-.2,-.3,-.5,-.4,-.9,-.4c-.3,0,-.6,.1,-.9,.4c-.2,.2,-.3,.5,-.3,.9c0,.3,.1,.6,.3,.8Zm20,-11.1L602.2,134H590l1.2,1.2h3.1c-1,.8,-1.5,1.7,-1.5,2.5c0,1.3,.7,2.2,2.1,2.5c-.3,.1,-.5,.3,-.8,.5c-.3,.1,-.6,.3,-.8,.5c-.3,.2,-.6,.4,-.8,.5c-.2,.2,-.5,.4,-.7,.6c.2,.3,.4,.6,.6,.9c.2,.2,.4,.5,.6,.8c.6,-.1,1.5,.2,2.8,.8c.9,.7,1.5,1.6,1.9,2.7c.1,.2,.3,.4,.4,.6c.2,.2,.4,.3,.6,.5v-8c0,0,.1,0,.2,0c0,0,.1,0,.1,0c0,0,.1,0,.1,-.1c.6,0,1.2,.2,1.7,.7c.6,.4,.8,.9,.8,1.5c0,0,0,.1,0,.1c0,0,0,.1,0,.1q0,.1,0,.2c-.2,-.1,-.3,-.2,-.4,-.3c-.1,0,-.2,0,-.4,0c-.1,0,-.2,0,-.3,0c-.1,0,-.2,0,-.3,.1c-.3,.3,-.5,.6,-.5,1c0,.3,.1,.5,.3,.8c.2,.2,.5,.3,.8,.3c.2,0,.4,-.1,.6,-.2c.3,-.1,.4,-.2,.6,-.4c.1,-.2,.3,-.4,.4,-.6c0,-.2,.1,-.5,.1,-.7c0,-1,-.4,-2,-1.1,-2.8c-.8,-.9,-1.7,-1.3,-2.8,-1.4c.3,-.3,.5,-.6,.6,-1c.1,-.3,.2,-.7,.2,-1c0,-.7,-.2,-1.3,-.5,-1.7h4.4Zm-5.7,2.6l-2,-1.9c.5,-.4,1,-.6,1.6,-.6c.1,0,.3,0,.4,.1c.2,0,.3,.1,.4,.1c.1,.1,.2,.2,.3,.3c.1,.1,.1,.2,.1,.4c0,.7,-.3,1.2,-.8,1.6Zm-.9,.6c-.2,.2,-.5,.4,-.7,.5c-.2,.1,-.4,.2,-.7,.2c-.3,0,-.6,-.1,-.9,-.3c-.2,-.3,-.4,-.5,-.4,-.9c0,-.5,.3,-1,.8,-1.3l1.9,1.8Zm.9,6.8c-.4,-.5,-.9,-1,-1.5,-1.4c-.5,-.5,-1.1,-.9,-1.8,-1.3c.6,-.5,1.2,-.9,1.7,-1.2c.5,-.4,1.1,-.6,1.6,-.8v4.7Zm10.5,-10L606.9,134h-1.1c-.3,-.4,-.6,-1,-.7,-1.9l-.4,-.3c0,.2,0,.5,0,.9c0,.3,0,.7,0,1.2c.1,.5,.1,.9,.1,1.3c0,.3,0,.6,0,.9c-.2,-.8,-.5,-1.3,-.9,-1.6c-.4,-.3,-1,-.5,-1.7,-.5h-1.4l1.2,1.2c.4,0,.7,.1,1,.2c.3,.1,.6,.3,.9,.5c.2,.2,.4,.4,.6,.7c.1,.3,.2,.7,.2,1v8.9l1.1,1.2V135.2h2.3Zm11.1,0L618,134H606.2l1.2,1.2h8.2v.9c-2.5,.8,-5,2.1,-7.4,3.7l1.6,2.3c1.7,.1,3,.7,4.1,1.6c.3,.3,.6,.6,.9,1c.3,.4,.6,.8,.7,1c.2,.3,.3,.7,.6,1.3l.6,.8V135.2h2.5Zm-3.6,9.4c-1.1,-1.8,-2.7,-3.2,-4.9,-4.1c.9,-.6,1.7,-1.1,2.5,-1.5c.8,-.4,1.6,-.7,2.4,-1v6.6Zm-4.7,1.7c.2,.3,.5,.4,.9,.4c.3,0,.6,-.1,.8,-.4c.3,-.2,.4,-.5,.4,-.8c0,-.4,-.1,-.7,-.4,-.9c-.2,-.3,-.5,-.4,-.8,-.4c-.4,0,-.7,.1,-.9,.4c-.3,.2,-.4,.5,-.4,.9c0,.3,.1,.6,.4,.8Z" class="go_22"/>
<g clip-path="url(#c0_22)">
<path d="M1877,177.2H32.1v-5.4H768.7c43.1,0,53,-37.9,115.3,-37.9h993Z" class="gp_22"/>
<path d="M1877,183.7H32.1v-9.8H768.7c43.1,0,53,-33.6,115.3,-33.6h993Z" class="gq_22"/>
</g>
<path d="M375.8,585.4c16.4,-.8,29.7,-5.9,32.8,-12.5m-.8,-7.5c-4.4,-6.1,-17.6,-10.6,-33.6,-11.2m-7.9,.1c-16.4,.8,-29.6,5.9,-32.8,12.5m.8,7.5c4.4,6.1,17.6,10.6,33.6,11.2" class="gr_22"/>
<path d="M409.2,571.4c.1,-.5,.2,-1,.2,-1.6c0,-.5,-.1,-1,-.2,-1.5M372.6,554.2c-.5,0,-1,0,-1.5,0c-.6,0,-1.1,0,-1.6,0M333,568.3c-.2,.5,-.2,1,-.2,1.5c0,.6,0,1.1,.2,1.6m36.5,14.1c.5,0,1,0,1.6,0c.5,0,1,0,1.5,0" class="g9_22"/>
<path d="M402.5,556.8c26.6,-8.1,167,-49,226.5,-29.8" class="g6_22"/>
<path d="M635.5,529.9c3.7,2.6,1.3,5.5,-1.4,7.5" class="gs_22"/>
<path d="M627.4,537.6C623.5,534.4,621.3,527,639.1,523m7.8,-1.2c28.2,-2.3,66.3,17.5,79.1,47.1" class="g6_22"/>
<path d="M398.1,558.1c0,0,.5,-.1,1.5,-.4M630.4,527.5c.5,.2,1,.4,1.5,.5c.4,.2,.9,.4,1.2,.5m-.1,9.6c-.4,.3,-.8,.5,-1.1,.8c-.4,.2,-1,.3,-1.6,.1m10.4,-16.3c.5,-.1,1,-.2,1.6,-.3c.5,-.1,1,-.2,1.5,-.2m82.8,48.1c.2,.5,.4,1,.6,1.5" class="g7_22"/>
<path d="M729.5,564.5l-8.4,2.8l7.9,9.3Z" class="ga_22"/>
<image clip-path="url(#ci_22)" preserveAspectRatio="none" x="125" y="206" width="734" height="181" xlink:href="img/9.png"/>
<path d="M144.6,231.3c0,0,-13,0,-13,13v117c0,0,0,13,13,13H833.1c0,0,13,0,13,-13v-130Z" class="gt_22"/>
<path d="M147.7,294.1l54.1,40.8l54.1,-40.8V230h8.7V211.9H155.8c-6.5,.4,-7.7,3.9,-8.2,8.4Z" class="gu_22"/>
<path d="M274,220.3c-.3,-4.7,-4.2,-8.4,-9,-8.4c-4.8,0,-8.7,3.7,-9,8.4h-.1V230h18.2v-9.7Z" class="gj_22"/>
<path d="M255.9,230.6H846.1" class="gv_22"/>
<path d="M32.1,45.1H9.2m958.3,0h22.9M32.1,1331.3H9.2m958.3,0h22.9M45.1,32.1V9.2m0,1335.1v22.9M954.5,32.1V9.2m0,1335.1v22.9" class="gw_22"/>
<path d="M32.1,45.1H9.2m958.3,0h22.9M32.1,1331.3H9.2m958.3,0h22.9M45.1,32.1V9.2m0,1335.1v22.9M954.5,32.1V9.2m0,1335.1v22.9" class="gx_22"/>
<path d="M27.5,32.1H0m972.1,0h27.5M27.5,1344.3H0m972.1,0h27.5M32.1,27.5V0m0,1348.9v27.5M967.5,27.5V0m0,1348.9v27.5" class="gw_22"/>
<path d="M27.5,32.1H0m972.1,0h27.5M27.5,1344.3H0m972.1,0h27.5M32.1,27.5V0m0,1348.9v27.5M967.5,27.5V0m0,1348.9v27.5" class="gx_22"/>
</svg>