<?xml version="1.0" encoding="UTF-8" standalone="no"?>
<!DOCTYPE svg PUBLIC "-//W3C//DTD SVG 1.1//EN"
"http://www.w3.org/Graphics/SVG/1.1/DTD/svg11.dtd">
<svg viewBox="0 0 999 1376" version="1.1" xmlns="http://www.w3.org/2000/svg" xmlns:xlink="http://www.w3.org/1999/xlink">
<defs>
<clipPath id="c0_226"><path d="M32.1,1344.3V32.1H967.5V1344.3Z"/></clipPath>
<clipPath id="c1_226"><path d="M69.7,851V703H250.6V851Z"/></clipPath>
<clipPath id="c2_226"><path d="M66.9,850.9V699.6H251.1V850.9Z"/></clipPath>
<clipPath id="c3_226"><path d="M66.6,850.6V699.3H250.3V850.6Z"/></clipPath>
<clipPath id="c4_226"><path d="M177.5,537.2L171,535.1L154.6,521.2V464.1h72v73.1Z"/></clipPath>
<clipPath id="c5_226"><path d="M177,1083.9l-6.5,-2.2l-16.4,-13.9v-57.1h72v73.2Z"/></clipPath>
<clipPath id="c6_226"><path d="M764.8,427.8V415.4h14.5v12.4Z"/></clipPath>
<clipPath id="c7_226"><path d="M143,716c-.2,-.1,3.6,-8.2,3.6,-8.2l.8,.5c0,0,-4.1,7.7,-4.4,7.7Z"/></clipPath>
<clipPath id="c8_226"><path d="M150.5,708.3c0,0,-6.8,-1.1,-7.6,-5.2c-.6,-3.7,1.6,-3.9,2.1,-3.9c.1,0,.2,0,.2,0l8.3,-12.7L152,683.4c0,0,-.6,-1.1,.1,-2.1c.1,0,.2,-.1,.4,-.1c2.1,0,12.9,5.6,12.9,5.6l.1,.1c-.4,.5,-.8,1.2,-1.4,1.7c-.7,.5,-5.1,1.1,-5.1,1.1l-8.5,18.6Z"/></clipPath>
<clipPath id="c9_226"><path d="M150.1,707.9c.2,-.4,.2,-1.8,0,-2.2v-1.4c-1.5,-.5,-2.8,-1.3,-3.6,-2.5c-1.1,.6,-2.1,1.2,-3.2,1.9c1.6,2.1,3.9,3.5,6.8,4.2Zm0,-3.9c2.2,-4.5,4,-9.5,6.2,-14c-.9,-.4,-1.9,-1.4,-2.7,-1.4c-2.3,4.3,-4.6,8.6,-7,12.8c.7,1.3,2.1,2,3.5,2.6Zm-7.3,12.1c1.1,-2.9,2.4,-5.5,3.6,-8.3c-2,-1.5,-4,-3.1,-4.4,-6.2v-1.5c-.1,-2.7,1.9,-3.4,4.5,-3.4c.1,0,.2,0,.2,0c2,-3.3,4.3,-6.3,6.2,-9.6c-.6,-.9,-1.2,-2.4,-.9,-3.7c.5,1.3,1.6,1.9,2.4,2.9c-.1,.6,-.3,1.1,-.4,1.8c.6,.6,1.4,1.1,2.4,1.4c.5,-.5,.5,-1.3,1.1,-1.6c1,.4,1.9,.8,3.2,.8c.1,.1,.5,.2,.8,.2c.3,0,.7,-.1,.8,-.2c.1,0,.2,0,.3,0c.2,0,.4,0,.6,-.1c.2,-.1,.4,-.1,.6,-.1c.1,0,.2,0,.3,.1c-1.3,.6,-2.2,1.7,-4.2,1.7c-.1,0,-.2,0,-.4,0c-.8,3.8,-1.8,7.4,-2.6,11.2c.6,1.1,1.5,1.7,1.3,3.2c-.5,2.7,-3.9,4.4,-7.2,4.4c-1.3,0,-2.6,-.3,-3.6,-.8c-1,2.1,-2.1,4.1,-3.3,6c0,-.3,.3,-.4,.2,-.7c1,-1.8,2,-3.6,2.7,-5.7c-1.1,1.7,-1.8,3.7,-2.8,5.6c-.2,.4,-.4,.8,-.6,1.2c-.3,.4,-.3,1.1,-.8,1.4Z"/></clipPath>
<clipPath id="ca_226"><path d="M160.6,688.3c-4.8,0,-13.1,-7.3,-5.6,-8.8h1.3c.1,.1,.3,.1,.5,.1q.1,0,.2,0c0,0,.1,0,.1,0c.3,0,.6,0,.9,.1c3.1,.6,8.3,3.7,7.6,7c-.3,1.1,-1.6,1.6,-3.2,1.6h-1.7q-.1,0,-.1,0Z"/></clipPath>
<clipPath id="cb_226"><path d="M715.8,958.4V648.7H889.6V958.4Z"/></clipPath>
<clipPath id="cc_226"><path d="M709.6,956.9V646.1H892.8V956.9Z"/></clipPath>
<clipPath id="cd_226"><path d="M709.3,956.5V645.8H892.5V956.5Z"/></clipPath>
<clipPath id="ce_226"><path d="M805.8,659.9c-.3,0,3.5,-8.2,3.5,-8.2l.8,.5c0,0,-4.1,7.7,-4.3,7.7Z"/></clipPath>
<clipPath id="cf_226"><path d="M813.3,652.2c0,0,-6.9,-1.1,-7.6,-5.2c-.7,-3.6,1.5,-3.8,2.1,-3.8c0,0,.1,0,.1,0l8.3,-12.8l-1.5,-3c0,0,-.6,-1.2,.2,-2.1c0,-.1,.1,-.1,.3,-.1c2.1,0,12.9,5.5,12.9,5.5l.1,.2c-.4,.5,-.7,1.1,-1.4,1.6c-.7,.5,-5.1,1.2,-5.1,1.2l-8.4,18.5Z"/></clipPath>
<clipPath id="cg_226"><path d="M812.9,651.9c.2,-.5,.2,-1.8,0,-2.3v-1.4c-1.6,-.5,-2.9,-1.2,-3.7,-2.5c-1.1,.6,-2.1,1.2,-3.1,1.9c1.5,2.1,3.8,3.5,6.8,4.3Zm0,-3.9c2.1,-4.6,3.9,-9.5,6.1,-14.1c-.9,-.4,-1.8,-1.3,-2.6,-1.4c-2.3,4.3,-4.6,8.6,-7.1,12.8c.8,1.4,2.1,2,3.6,2.7Zm-7.3,12c1,-2.9,2.4,-5.4,3.5,-8.3c-2,-1.5,-3.9,-3.1,-4.4,-6.1v-1.5c-.1,-2.7,1.9,-3.4,4.6,-3.4c0,0,.1,0,.2,0c1.9,-3.4,4.2,-6.4,6.1,-9.7c-.6,-.8,-1.1,-2.3,-.9,-3.6c.5,1.2,1.7,1.9,2.4,2.9c-.1,.5,-.3,1.1,-.4,1.7c.6,.7,1.4,1.2,2.4,1.4c.5,-.4,.6,-1.2,1.2,-1.5c.9,.3,1.8,.7,3.1,.7c.1,.1,.5,.2,.8,.2c.4,0,.7,-.1,.8,-.2c.1,.1,.3,.1,.3,.1c.3,0,.5,-.1,.7,-.2c.1,0,.3,-.1,.5,-.1c.1,0,.2,0,.3,.1c-1.3,.7,-2.2,1.8,-4.2,1.8c-.1,0,-.2,0,-.3,0c-.9,3.7,-1.9,7.3,-2.7,11.2c.6,1,1.5,1.6,1.3,3.1c-.5,2.7,-3.9,4.4,-7.2,4.4c-1.3,0,-2.5,-.2,-3.6,-.8c-1,2.1,-2.1,4.2,-3.3,6.1c0,-.4,.3,-.4,.3,-.8c.9,-1.8,1.9,-3.6,2.6,-5.6c-1,1.7,-1.8,3.7,-2.8,5.5c-.2,.4,-.4,.8,-.6,1.3c-.3,.4,-.3,1.1,-.7,1.3Z"/></clipPath>
<clipPath id="ch_226"><path d="M823.3,632.3c-4.8,0,-13.1,-7.3,-5.5,-8.8H819c.2,0,.3,0,.5,0q.1,0,.2,0q.1,0,.2,0c.2,0,.5,0,.9,.1c3,.6,8.2,3.8,7.5,7c-.2,1.2,-1.5,1.6,-3.1,1.7h-1.8c0,0,-.1,0,-.1,0Z"/></clipPath>
<clipPath id="ci_226"><path d="M125.5,386.7V205.8H858.6V386.7Z"/></clipPath>
<style type="text/css"><![CDATA[
.g0_226{
fill: #FEFCF4;
}
.g1_226{
fill: #FFF;
}
.g2_226{
fill: none;
stroke: #6381B7;
stroke-width: 0.763;
}
.g3_226{
fill: #F7C2D9;
}
.g4_226{
fill: #FDF4F3;
}
.g5_226{
fill: #EC008C;
}
.g6_226{
fill: none;
stroke: #818385;
stroke-width: 0.305;
stroke-dasharray: 4,4;
}
.g7_226{
fill: none;
stroke: #818385;
stroke-width: 0.305;
}
.g8_226{
fill: none;
stroke: #949698;
stroke-width: 0.305;
stroke-dasharray: 4,4;
}
.g9_226{
fill: none;
stroke: #949698;
stroke-width: 0.305;
stroke-dasharray: 3,3;
}
.ga_226{
fill: none;
stroke: #949698;
stroke-width: 0.305;
}
.gb_226{
fill: #6381B7;
}
.gc_226{
fill: none;
stroke: #6381B7;
stroke-width: 0.381;
stroke-dasharray: 2,1;
}
.gd_226{
fill: none;
stroke: #6381B7;
stroke-width: 0.381;
}
.ge_226{
fill: #FCE8B0;
}
.gf_226{
fill: #25408F;
}
.gg_226{
fill: #A8AAAD;
}
.gh_226{
fill: none;
stroke: #949698;
stroke-width: 0.549;
}
.gi_226{
fill: none;
stroke: #BCBEC0;
stroke-width: 2.566;
}
.gj_226{
fill: #231F20;
}
.gk_226{
fill: #363637;
}
.gl_226{
fill: #5CC4BE;
}
.gm_226{
fill: #EAD646;
}
.gn_226{
fill: #6D6F71;
}
.go_226{
fill: #2E6E51;
}
.gp_226{
fill: none;
stroke: #FFF;
stroke-width: 0.152;
stroke-miterlimit: 1;
}
.gq_226{
fill: #BCBEC0;
}
.gr_226{
fill: #EE314A;
}
.gs_226{
fill: #CEEDFB;
}
.gt_226{
fill: #27639D;
}
.gu_226{
fill: none;
stroke: #C3E7F1;
stroke-width: 1.527;
}
.gv_226{
fill: none;
stroke: #FFF;
stroke-width: 1.909;
stroke-miterlimit: 10;
}
.gw_226{
fill: none;
stroke: #000;
stroke-width: 0.381;
stroke-miterlimit: 10;
}
]]></style>
</defs>
<path d="M32.1,1344.3H954.5V32.1H32.1V1344.3Z" class="g0_226"/>
<path clip-path="url(#c0_226)" d="M954.5,1344.3H1877V32.1H954.5V1344.3Z" class="g0_226"/>
<path d="M150.4,433.1c0,0,-18.3,0,-18.3,18.3V968.3c0,0,0,18.3,18.3,18.3H827.5c0,0,18.4,0,18.4,-18.3V433.1Z" class="g1_226"/>
<path d="M150.4,433.1c0,0,-18.3,0,-18.3,18.3V968.3c0,0,0,18.3,18.3,18.3H827.5c0,0,18.4,0,18.4,-18.3V433.1H150.4Z" class="g2_226"/>
<image clip-path="url(#c1_226)" preserveAspectRatio="none" x="70" y="703" width="181" height="149" xlink:href="img/1.png"/>
<path d="M74.4,712.1l2.7,132.8l167.4,-6.5L240.2,707.8Z" class="g3_226"/>
<image clip-path="url(#c2_226)" preserveAspectRatio="none" x="66" y="700" width="185" height="152" xlink:href="img/2.png"/>
<image clip-path="url(#c3_226)" preserveAspectRatio="none" x="66" y="700" width="184" height="151" xlink:href="img/3.png"/>
<path d="M71.4,717l9.3,127.8L213,834.2l31.4,-25.1l-7.7,-105Z" class="g4_226"/>
<path d="M213.1,834.4l31.5,-24.9l-18.9,-7.8Z" class="g5_226"/>
<path d="M372,731.1c7.6,-1.1,13.6,-4.7,15.6,-9.2m-.8,-8.1c-2.8,-4.1,-9,-7.2,-16.5,-7.9m-8.6,.2c-7.6,1.1,-13.6,4.7,-15.6,9.2m.8,8.1c2.8,4.1,9,7.2,16.5,7.9" class="g6_226"/>
<path d="M388.2,720.3c.1,-.6,.1,-1.1,.1,-1.7c0,-.6,0,-1.1,-.1,-1.7M368.6,705.8c-.6,0,-1.2,0,-1.8,0c-.5,0,-1.1,0,-1.7,0m-19.6,11.1c-.1,.6,-.2,1.1,-.2,1.7c0,.6,.1,1.1,.2,1.7m19.6,11.1c.6,0,1.2,0,1.7,0c.6,0,1.2,0,1.8,0" class="g7_226"/>
<path d="M352.1,701.2c-8.9,-9.6,-36.8,-34.4,-77.4,-23" class="g8_226"/>
<path d="M269.1,681.6c-.2,1.3,.7,2.6,1.9,2.9" class="g9_226"/>
<path d="M272.9,679.3c-1.1,-.5,-2.8,-.8,-5.2,-1" class="g8_226"/>
<path d="M259.7,678.9c-13.7,3.6,-43.3,19.8,-54.3,33.5" class="g9_226"/>
<path d="M355.1,704.7c0,0,-.3,-.5,-.9,-1.2m-81,-24.8c-.5,.1,-1,.3,-1.5,.4c-.4,.2,-.8,.3,-1.1,.5m1.6,4.8c.4,-.2,.7,-.4,1,-.8c.5,-.5,.8,-1,1,-1.4m-8.3,-3.9c-.6,-.1,-1.2,-.1,-1.8,-.1c-.5,0,-1,.1,-1.5,.1m-58.2,35.3c-.3,.4,-.6,.8,-.8,1.2" class="ga_226"/>
<path d="M145.1,996.1c0,0,-13,0,-13,13v180.1c0,0,0,13,13,13H832.9c0,0,13,0,13,-13V1009.1c0,0,0,-13,-13,-13Z" class="g1_226"/>
<path d="M145.1,996.1c0,0,-13,0,-13,13v180.1c0,0,0,13,13,13H832.9c0,0,13,0,13,-13V1009.1c0,0,0,-13,-13,-13H145.1Z" class="g2_226"/>
<path d="M526.5,1217.8c0,0,-4.3,0,-4.3,4.3v10.8c0,0,0,4.4,4.3,4.4h30.3c0,0,4.3,0,4.3,-4.4v-10.8c0,0,0,-4.3,-4.3,-4.3Z" class="gb_226"/>
<path d="M513.3,1210.3v34.8m1.3,1H845.1m1,-1.4v-34.8m-1.4,-1H514.3" class="gc_226"/>
<path d="M513.3,1245.5v.6h.6m331.6,0h.6v-.6m0,-36v-.6h-.6m-331.6,0h-.6v.6" class="gd_226"/>
<path d="M210.1,466.3c0,0,-13,0,-13,12.9v47.7c0,0,0,13,13,13h602c0,0,13,0,13,-13V479.2c0,0,0,-12.9,-13,-12.9Z" class="ge_226"/>
<image clip-path="url(#c4_226)" preserveAspectRatio="none" x="153" y="462" width="75" height="77" xlink:href="img/4.png"/>
<path d="M204.9,532.5c0,0,-26.8,11.3,-51.1,-12.8c0,0,15.2,25.4,49.3,24c0,0,24.7,.4,20.2,-10.1c0,0,1.3,-4.5,-18.4,-1.1Z" class="ge_226"/>
<path d="M209.6,1038.9c0,0,-12.9,0,-12.9,13v21.6c0,0,0,13,12.9,13h602c0,0,13,0,13,-13v-21.6c0,0,0,-13,-13,-13Z" class="ge_226"/>
<image clip-path="url(#c5_226)" preserveAspectRatio="none" x="153" y="1009" width="75" height="76" xlink:href="img/5.png"/>
<path d="M204.4,1079.1c0,0,-26.8,11.4,-51.1,-12.7c0,0,15.2,25.3,49.3,24c0,0,24.8,.3,20.3,-10.2c0,0,1.2,-4.4,-18.5,-1.1Z" class="ge_226"/>
<path d="M131.7,407.2v39l11.7,10.3V412.3Z" class="gf_226"/>
<path d="M131.7,407.2v39H829.5c0,0,16.8,0,16.8,-16.8V424c0,0,0,-16.8,-16.8,-16.8Z" class="gb_226"/>
<path d="M781,440.9c8.2,0,14.8,-6.5,14.8,-14.6c0,-8,-6.6,-14.5,-14.8,-14.5c-8.3,0,-14.9,6.5,-14.9,14.5c0,8.1,6.6,14.6,14.9,14.6Z" class="gg_226"/>
<path d="M781,440.9c8.2,0,14.8,-6.5,14.8,-14.6c0,-8,-6.6,-14.5,-14.8,-14.5c-8.3,0,-14.9,6.5,-14.9,14.5c0,8.1,6.6,14.6,14.9,14.6Z" class="gh_226"/>
<path d="M781,431.7c3,0,5.4,-2.4,5.4,-5.4c0,-2.9,-2.4,-5.3,-5.4,-5.3c-3.1,0,-5.5,2.4,-5.5,5.3c0,3,2.4,5.4,5.5,5.4Z" class="g1_226"/>
<path d="M781,431.7c3,0,5.4,-2.4,5.4,-5.4c0,-2.9,-2.4,-5.3,-5.4,-5.3c-3.1,0,-5.5,2.4,-5.5,5.3c0,3,2.4,5.4,5.5,5.4Z" class="gi_226"/>
<g clip-path="url(#c6_226)" opacity="0.3">
<path d="M766.4,425.6c0,0,-.1,-4.9,3.6,-8.7l7.8,6.7c0,0,-1,1,-1.1,2.7Z" class="g1_226"/>
</g>
<path d="M785.6,426.2c0,0,-3.5,0,-3.5,3.5v8.7c0,0,0,3.5,3.5,3.5H829c0,0,3.5,0,3.5,-3.5v-8.7c0,0,0,-3.5,-3.5,-3.5Z" class="gj_226"/>
<path d="M169.5,417.3c0,-8.3,-6.7,-15,-15,-15c-8.4,0,-15.1,6.7,-15.1,15c0,8.3,6.8,15.1,15.1,15.1c.8,0,1.6,-.1,2.4,-.2l4.5,5.2v-6.7c4.8,-2.5,8.1,-7.6,8.1,-13.4Z" class="g1_226"/>
<path d="M161.8,438.6l-5.1,-5.9c-.7,.1,-1.5,.1,-2.2,.1c-8.6,0,-15.6,-6.9,-15.6,-15.5c0,-8.5,7,-15.5,15.6,-15.5c8.5,0,15.5,7,15.5,15.5c0,5.7,-3.1,10.9,-8.2,13.7Zm-4.7,-6.9l3.8,4.5v-5.8l.3,-.1c4.8,-2.5,7.9,-7.5,7.9,-13c0,-8,-6.6,-14.6,-14.6,-14.6c-8.1,0,-14.6,6.6,-14.6,14.6c0,8.1,6.5,14.6,14.6,14.6c.7,0,1.5,-.1,2.3,-.2Z" class="gk_226"/>
<path d="M147.4,416.9c.8,0,1.5,.6,1.5,1.4c0,.8,-.7,1.5,-1.5,1.5c-.7,0,-1.4,-.7,-1.4,-1.5c0,-.8,.7,-1.4,1.4,-1.4Z" class="gl_226"/>
<path d="M147.4,420.2c-1,0,-1.8,-.8,-1.8,-1.9c0,-1,.8,-1.9,1.8,-1.9c1.1,0,1.9,.9,1.9,1.9c0,1.1,-.8,1.9,-1.9,1.9m0,-2.9c-.5,0,-.9,.5,-.9,1c0,.6,.4,1,.9,1c.6,0,1,-.4,1,-1c0,-.5,-.4,-1,-1,-1Z" class="gk_226"/>
<path d="M154.5,416.9c.8,0,1.4,.6,1.4,1.4c0,.8,-.6,1.5,-1.4,1.5c-.8,0,-1.5,-.7,-1.5,-1.5c0,-.8,.7,-1.4,1.5,-1.4Z" class="gl_226"/>
<path d="M154.5,420.2c-1.1,0,-1.9,-.8,-1.9,-1.9c0,-1,.8,-1.9,1.9,-1.9c1,0,1.9,.9,1.9,1.9c0,1.1,-.9,1.9,-1.9,1.9m0,-2.9c-.6,0,-1,.5,-1,1c0,.6,.4,1,1,1c.5,0,.9,-.4,.9,-1c0,-.5,-.4,-1,-.9,-1Z" class="gk_226"/>
<path d="M161.5,416.9c.8,0,1.4,.6,1.4,1.4c0,.8,-.6,1.5,-1.4,1.5c-.8,0,-1.5,-.7,-1.5,-1.5c0,-.8,.7,-1.4,1.5,-1.4Z" class="gl_226"/>
<path d="M161.5,420.2c-1.1,0,-1.9,-.8,-1.9,-1.9c0,-1,.8,-1.9,1.9,-1.9c1,0,1.9,.9,1.9,1.9c0,1.1,-.9,1.9,-1.9,1.9m0,-2.9c-.6,0,-1,.5,-1,1c0,.6,.4,1,1,1c.5,0,1,-.4,1,-1c0,-.5,-.5,-1,-1,-1Z" class="gk_226"/>
<path d="M163.4,431.5c0,-9.7,7.9,-17.6,17.6,-17.6c9.7,0,17.6,7.9,17.6,17.6c0,9.8,-7.9,17.7,-17.6,17.7c-.9,0,-1.9,-.1,-2.8,-.3l-5.3,6.1v-7.8c-5.6,-2.9,-9.5,-8.8,-9.5,-15.7Z" class="gm_226"/>
<path d="M172.9,455.5c0,0,-.1,0,-.1,0c-.2,-.1,-.3,-.3,-.3,-.5v-7.5c-5.9,-3.2,-9.6,-9.3,-9.6,-16c0,-9.9,8.2,-18,18.1,-18c10,0,18.1,8.1,18.1,18c0,10,-8.1,18.1,-18.1,18.1c-.8,0,-1.7,0,-2.6,-.2l-5.1,5.9c-.1,.1,-.2,.2,-.4,.2M181,414.4c-9.4,0,-17.1,7.7,-17.1,17.1c0,6.5,3.5,12.3,9.2,15.3c.2,.1,.3,.2,.3,.4v6.6l4.4,-5.2c.1,-.1,.3,-.1,.5,-.1c.9,.1,1.8,.2,2.7,.2c9.5,0,17.2,-7.7,17.2,-17.2c0,-9.4,-7.7,-17.1,-17.2,-17.1Z" class="gk_226"/>
<path d="M189.2,431.1c.9,0,1.7,.7,1.7,1.6c0,.9,-.8,1.7,-1.7,1.7c-.9,0,-1.7,-.8,-1.7,-1.7c0,-.9,.8,-1.6,1.7,-1.6Z" class="g1_226"/>
<path d="M189.2,434.8c-1.2,0,-2.1,-.9,-2.1,-2.1c0,-1.2,.9,-2.1,2.1,-2.1c1.2,0,2.1,.9,2.1,2.1c0,1.2,-.9,2.1,-2.1,2.1m0,-3.3c-.7,0,-1.2,.6,-1.2,1.2c0,.7,.5,1.2,1.2,1.2c.7,0,1.2,-.5,1.2,-1.2c0,-.6,-.5,-1.2,-1.2,-1.2Z" class="gk_226"/>
<path d="M181,431.1c.9,0,1.7,.7,1.7,1.6c0,.9,-.8,1.7,-1.7,1.7c-.9,0,-1.7,-.8,-1.7,-1.7c0,-.9,.8,-1.6,1.7,-1.6Z" class="g1_226"/>
<path d="M181,434.8c-1.2,0,-2.1,-.9,-2.1,-2.1c0,-1.2,.9,-2.1,2.1,-2.1c1.2,0,2.1,.9,2.1,2.1c0,1.2,-.9,2.1,-2.1,2.1m0,-3.3c-.7,0,-1.2,.6,-1.2,1.2c0,.7,.5,1.2,1.2,1.2c.7,0,1.2,-.5,1.2,-1.2c0,-.6,-.5,-1.2,-1.2,-1.2Z" class="gk_226"/>
<path d="M172.8,431.1c.9,0,1.7,.7,1.7,1.6c0,.9,-.8,1.7,-1.7,1.7c-.9,0,-1.7,-.8,-1.7,-1.7c0,-.9,.8,-1.6,1.7,-1.6Z" class="g1_226"/>
<path d="M172.8,434.8c-1.2,0,-2.1,-.9,-2.1,-2.1c0,-1.2,.9,-2.1,2.1,-2.1c1.2,0,2.1,.9,2.1,2.1c0,1.2,-.9,2.1,-2.1,2.1m0,-3.3c-.7,0,-1.2,.6,-1.2,1.2c0,.7,.5,1.2,1.2,1.2c.7,0,1.2,-.5,1.2,-1.2c0,-.6,-.5,-1.2,-1.2,-1.2Z" class="gk_226"/>
<image clip-path="url(#c7_226)" x="142" y="707" width="6" height="10" xlink:href="shade/1.png"/>
<image clip-path="url(#c8_226)" x="142" y="681" width="24" height="28" xlink:href="shade/2.png"/>
<image clip-path="url(#c9_226)" x="141" y="683" width="24" height="34" xlink:href="shade/3.png"/>
<image clip-path="url(#ca_226)" x="147" y="679" width="20" height="10" xlink:href="shade/4.png"/>
<image clip-path="url(#cb_226)" preserveAspectRatio="none" x="716" y="649" width="173" height="310" xlink:href="img/6.png"/>
<path d="M720.9,654.4l.5,297.7l162,-2.3L882,653.7Z" class="g3_226"/>
<image clip-path="url(#cc_226)" preserveAspectRatio="none" x="709" y="647" width="183" height="310" xlink:href="img/7.png"/>
<image clip-path="url(#cd_226)" preserveAspectRatio="none" x="709" y="646" width="183" height="311" xlink:href="img/8.png"/>
<path d="M725.6,650.7l-11,294.7l127.8,5l34.3,-22l9.9,-271Z" class="g4_226"/>
<path d="M842.8,951.1l34.4,-22.6L860.6,918.1Z" class="g5_226"/>
<image clip-path="url(#ce_226)" x="805" y="651" width="6" height="10" xlink:href="shade/5.png"/>
<image clip-path="url(#cf_226)" x="804" y="625" width="25" height="28" xlink:href="shade/6.png"/>
<image clip-path="url(#cg_226)" x="804" y="627" width="23" height="34" xlink:href="shade/7.png"/>
<image clip-path="url(#ch_226)" x="810" y="623" width="19" height="10" xlink:href="shade/8.png"/>
<path d="M592.5,865.9c22,-.7,39.7,-6.8,43.3,-14.7m-.7,-7.3c-5,-7.4,-22.7,-13,-44.1,-13.5m-7.7,0c-22,.7,-39.7,6.9,-43.3,14.8m.8,7.3c5,7.4,22.6,13,44.1,13.5" class="g6_226"/>
<path d="M636.3,849.7c.1,-.5,.2,-1,.2,-1.5c0,-.5,-.1,-1,-.2,-1.5M589.5,830.4c-.6,0,-1.1,0,-1.6,0c-.5,0,-1,0,-1.5,0m-46.9,16.3c-.1,.5,-.1,1,-.1,1.5c0,.5,0,1,.1,1.5M586.4,866c.5,0,1,0,1.5,0c.5,0,1,0,1.6,0" class="g7_226"/>
<path d="M599.4,827.3c12.5,-4.6,49.6,-17.4,76,-18.3m7.6,.3c5.9,1,6.9,4.1,5.8,6.8" class="g8_226"/>
<path d="M682.8,818.9c-5.4,-1.6,-10.9,-8.7,11.2,-16.6" class="g9_226"/>
<path d="M701.7,799.6c4.5,-1.7,8.6,-3.3,18.2,-4.2" class="g8_226"/>
<path d="M595.1,828.9c0,0,.5,-.2,1.4,-.5m80.4,-19.5c.5,0,1,0,1.5,0c.6,0,1.1,0,1.6,0m8.1,8.6c-.3,.4,-.6,.8,-1,1.1c-.3,.4,-.8,.6,-1.3,.6m9.6,-17.4c.5,-.2,1,-.3,1.4,-.5c.6,-.2,1.1,-.3,1.7,-.5m23.1,-5.5c.5,-.1,1.1,-.1,1.7,-.1" class="ga_226"/>
<path d="M717.3,791l2.2,8.6l9.8,-7.2Z" class="gn_226"/>
<path d="M32.1,179.3H967.5V32.1H32.1V179.3Z" class="go_226"/>
<path d="M261.5,135.2L260.4,134h-13c.4,.4,.7,.7,1,.9c.2,.2,.4,.4,.5,.5c.3,.2,.6,.4,.9,.6c.3,.1,.6,.2,.9,.3c.5,.1,.9,.2,1.2,.3c.4,.1,.6,.2,.9,.4c.2,.2,.4,.4,.5,.7c.1,.4,.2,.8,.3,1.4c-.4,.5,-.8,.9,-1,1.3c-.3,.3,-.5,.5,-.7,.7c-.1,.2,-.3,.3,-.4,.4c-.1,0,-.2,0,-.2,0c-.2,0,-.4,0,-.5,-.1c-.1,-.1,-.2,-.3,-.3,-.4c-.1,-.2,-.2,-.4,-.3,-.6c-.1,-.2,-.1,-.3,-.1,-.5l-.8,.8c.1,.2,.3,.5,.4,.8c.2,.3,.4,.6,.6,.9c.3,.3,.5,.5,.8,.7c.3,.1,.6,.2,1,.2c.1,0,.3,0,.4,-.1c.2,0,.4,-.1,.6,-.3c.2,-.2,.4,-.5,.7,-.9c.3,-.4,.7,-.9,1.1,-1.6c.4,-.6,.8,-1,1.2,-1.1c.5,0,.8,.1,1.1,.4c.3,.4,.6,.9,.8,1.6c.1,.7,.2,1.6,.2,2.5v.4c0,.1,0,.3,0,.5c0,.1,0,.4,0,.7c0,.3,0,.6,0,1.1c.1,.2,.3,.4,.5,.6c.2,.3,.4,.5,.6,.7V135.2h2.2Zm-3.3,4.1c-.4,-.4,-.7,-.8,-1,-1.1c-.3,-.4,-.6,-.6,-.9,-.7c-.3,-.1,-.6,-.1,-1,.1c-.3,.1,-.7,.4,-1.1,.8c0,-.6,-.1,-1.1,-.4,-1.6c-.2,-.5,-.6,-1,-1.3,-1.6h5.7v4.1Zm7.9,-4.1L264.9,134h-1c-.4,-.4,-.6,-1,-.8,-1.9l-.4,-.3c0,.2,0,.5,0,.9c0,.3,0,.7,.1,1.2c0,.5,0,.9,.1,1.3c0,.3,0,.6,0,.9c-.3,-.8,-.6,-1.3,-1,-1.6c-.4,-.3,-.9,-.5,-1.7,-.5h-1.3l1.2,1.2c.3,0,.6,.1,1,.2c.3,.1,.6,.3,.8,.5c.3,.2,.5,.4,.6,.7c.1,.3,.2,.7,.2,1v8.9l1.2,1.2V135.2h2.2Zm11.1,0L276.1,134H264.3l1.1,1.2h8.2v.9c-2.5,.8,-4.9,2.1,-7.3,3.7l1.5,2.3c1.7,.1,3.1,.7,4.1,1.6c.3,.3,.6,.6,.9,1c.4,.4,.6,.8,.8,1.2c.2,.3,.3,.5,.4,.7c0,.1,.1,.2,.1,.4l.7,.8V135.2h2.4Zm-3.6,9.4c-1,-1.8,-2.7,-3.2,-4.8,-4.1c.9,-.6,1.7,-1.1,2.5,-1.5c.8,-.4,1.6,-.7,2.3,-1v6.6Zm14.5,-9.4L286.9,134h-2.2v1.6c-2,1.3,-3.1,1.9,-3.3,1.9c-.5,0,-1,-.1,-1.3,-.4c-.4,-.2,-.5,-.5,-.5,-.9c0,-.3,0,-.5,.2,-.7c.2,.1,.3,.2,.5,.3c.1,0,.3,.1,.4,.1c.3,0,.5,-.1,.7,-.3c.2,-.2,.3,-.4,.3,-.8c0,-.6,-.5,-1,-1.5,-1c-.6,0,-1.1,.2,-1.5,.6c-.3,.4,-.5,.8,-.5,1.4c0,.4,0,.7,.2,.9c.1,.3,.3,.5,.5,.7c.5,.4,1.2,.6,1.9,.6l-3.2,2.3l1.5,2c.6,0,1.2,.2,1.8,.3c.5,.2,1,.4,1.4,.7c.6,.5,1.3,1.2,1.9,2.1c.2,.3,.4,.6,.6,.9c.1,.3,.3,.6,.4,.8l.7,1V135.2h2.2Zm-3.4,9.5c-1,-1.7,-2.5,-3.1,-4.5,-4c.8,-.7,1.6,-1.3,2.3,-1.7c.8,-.5,1.5,-.9,2.2,-1.2v6.9Zm7.9,-9.5L291.4,134h-1.1c-.3,-.4,-.6,-1,-.7,-1.9l-.4,-.3c0,.2,0,.5,0,.9c0,.3,0,.7,.1,1.2c0,.5,0,.9,0,1.3c.1,.3,.1,.6,.1,.9c-.3,-.8,-.6,-1.3,-1,-1.6c-.4,-.3,-1,-.5,-1.7,-.5h-1.4l1.2,1.2c.4,0,.7,.1,1,.2c.4,.1,.6,.3,.9,.5c.2,.2,.4,.4,.6,.7c.1,.3,.2,.7,.2,1v8.9l1.1,1.2V135.2h2.3Zm11.1,0L302.5,134H290.8l1.2,1.2h8.4v6.6c-1.3,-2.6,-2.8,-4,-4.4,-4c-.8,0,-1.5,.3,-2.1,.9c-.6,.5,-.9,1.2,-.9,2c0,1.5,.8,2.2,2.3,2.2c.5,0,.9,-.2,1.2,-.5c.3,-.4,.5,-.8,.5,-1.3c0,-.3,-.3,-.8,-.8,-1.5c0,-.1,.1,-.1,.3,-.1c1.3,0,2.4,.8,3.3,2.5c.7,1.4,1,2.9,1,4.2l-.1,1.3l.9,.6V135.2h2.1ZM322.2,134h-.9c-.1,-.1,-.2,-.2,-.3,-.3c-.1,-.2,-.1,-.3,-.2,-.4l-.1,-.8l-.6,-.7v13.1c-.2,-.4,-.4,-.7,-.7,-1c-.3,-.4,-.7,-.7,-1.1,-1c-.2,-.2,-.5,-.4,-.9,-.7c-.4,-.2,-.9,-.5,-1.5,-.8c2,-1.2,3,-2.6,3,-4.1c0,-.9,-.3,-1.6,-.9,-2.3c-.6,-.7,-1.4,-1,-2.3,-1c-.9,0,-1.8,.3,-2.7,.8c-.9,.7,-1.4,1.5,-1.4,2.4c0,.5,.1,.9,.4,1.2c.3,.3,.7,.5,1.2,.5c.2,0,.3,0,.5,-.1c.2,-.1,.4,-.2,.5,-.3c.2,-.1,.3,-.2,.4,-.4c0,-.1,.1,-.3,.1,-.5c0,-.3,-.2,-.7,-.7,-1.2c.2,-.2,.5,-.5,1,-.8c.5,-.2,.9,-.4,1.2,-.4c.4,0,.8,.2,1.1,.5c.3,.3,.4,.6,.4,1.1c0,.4,-.1,.8,-.4,1.2c-.3,.4,-.8,.8,-1.4,1.2c-.6,.3,-1.1,.6,-1.6,.7c-.5,.2,-1,.3,-1.2,.3c-.3,0,-.6,0,-1,0l2,2.5c.7,0,1.5,.1,2.3,.4c.7,.2,1.4,.6,2,1.1c.2,.2,.6,.6,1.1,1.2c.4,.6,1,1.4,1.8,2.4V135.2h2.1L322.2,134Zm5.8,1.2L326.8,134h-1.1c-.3,-.4,-.6,-1,-.7,-1.9l-.5,-.3c0,.2,.1,.5,.1,.9c0,.3,0,.7,0,1.2c.1,.5,.1,.9,.1,1.3c0,.3,0,.6,0,.9c-.2,-.8,-.5,-1.3,-.9,-1.6c-.4,-.3,-1,-.5,-1.7,-.5h-1.4l1.2,1.2c.4,0,.7,.1,1,.2c.3,.1,.6,.3,.9,.5c.2,.2,.4,.4,.6,.7c.1,.3,.2,.7,.2,1v8.9l1.1,1.2V135.2H328Zm14.4,0L341.1,134H326l1.2,1.2H335v1c-2.6,.8,-4.9,2.1,-7,3.7l1.7,2.1c1.4,.1,2.6,.7,3.7,1.8c.4,.5,.9,1,1.3,1.6c.3,.7,.7,1.3,1,2c0,.1,.1,.1,.1,.2c.1,0,.2,.1,.3,.1v-10c1.2,0,2.1,.3,2.8,1c.6,.7,1,1.4,1,2.2l-.1,.3c-.2,-.2,-.4,-.3,-.6,-.4c-.2,-.2,-.4,-.2,-.6,-.2c-.4,0,-.8,.1,-1,.4c-.3,.2,-.4,.5,-.4,.9c0,.2,0,.4,.1,.6c.1,.2,.2,.3,.4,.5c.1,.1,.3,.2,.5,.3c.2,.1,.3,.1,.5,.1c.3,0,.6,-.1,.8,-.2c.3,-.1,.5,-.3,.7,-.5c.1,-.2,.3,-.4,.4,-.7c.1,-.3,.1,-.5,.1,-.8c0,-1.3,-.4,-2.4,-1.2,-3.4c-.9,-1.2,-2,-1.7,-3.4,-1.7v-.9h6.3Zm-7.5,9.1c-1,-1.8,-2.5,-3.1,-4.5,-4c.8,-.5,1.6,-1,2.3,-1.4c.8,-.4,1.5,-.8,2.2,-1.1v6.5Zm4,7c-.1,-.2,-.2,-.4,-.3,-.5c-.1,-.2,-.3,-.4,-.6,-.7c-.2,-.3,-.6,-.7,-.9,-1c-.3,-.3,-.6,-.6,-1,-.9c.1,-.3,.1,-.7,.1,-1.2c-.1,-.5,-.2,-.9,-.3,-1.2l-1,-.7c.1,.6,.1,1,.2,1.5c0,.4,-.1,.7,-.2,.9c-.7,-.4,-1.3,-.6,-1.7,-.6c-.3,0,-.6,.1,-.8,.2c-.3,0,-.5,.2,-.7,.3c-.2,.2,-.4,.4,-.5,.7c-.1,.2,-.2,.5,-.2,.7c0,.6,.2,1,.7,1.4c.5,.3,1,.5,1.6,.5c1,-.1,1.8,-.6,2.5,-1.5c.2,.2,.5,.4,.7,.6c.3,.2,.6,.4,.9,.7c.2,.3,.5,.6,.8,.9c.2,.2,.5,.5,.7,.8v-.9Zm-4.8,-3.1c.1,.1,.3,.2,.4,.4c-.1,.2,-.3,.4,-.6,.6c-.4,.2,-.8,.3,-1.1,.2c-.4,0,-.6,-.3,-.6,-.6c0,-.5,.4,-.7,1.2,-.8c.3,.1,.5,.1,.7,.2Zm19.6,-13L352.5,134H340.8l1.2,1.2h8.4v6.6c-1.3,-2.6,-2.8,-4,-4.5,-4c-.8,0,-1.5,.3,-2.1,.9c-.6,.5,-.8,1.2,-.8,2c0,1.5,.7,2.2,2.3,2.2c.5,0,.9,-.2,1.2,-.5c.3,-.4,.4,-.8,.4,-1.3c0,-.3,-.2,-.8,-.8,-1.5c.1,-.1,.2,-.1,.4,-.1c1.2,0,2.4,.8,3.3,2.5c.6,1.4,1,2.9,.9,4.2v1.3l.9,.6V135.2h2.1Zm18.6,0L371.1,134H360c.4,.4,.8,.7,1.1,.9c.3,.3,.5,.5,.7,.7c.3,.2,.7,.4,1,.5c.4,.2,.7,.4,1.1,.5c.9,.4,1.5,.7,1.9,1c-.7,.4,-1.3,.9,-1.9,1.4c-.7,.5,-1.3,1.1,-1.8,1.6l1.7,2c1.6,.1,2.9,.5,3.8,1.2c.5,.4,.9,.9,1.3,1.5c.3,.6,.5,1.1,.7,1.6l.8,.9V135.2h1.9Zm-3.1,9.4c-1.1,-1.7,-2.6,-2.9,-4.6,-3.6c.6,-.5,1.1,-1.1,1.6,-1.6c.5,-.5,1,-.9,1.4,-1.3c-1.3,-1.5,-2.4,-2.5,-3.2,-2.9h4.8v9.4Zm7.7,-9.4L375.7,134h-1.1c-.3,-.4,-.6,-1,-.7,-1.9l-.4,-.3c0,.2,0,.5,0,.9c0,.3,0,.7,0,1.2c.1,.5,.1,.9,.1,1.3c0,.3,.1,.6,.1,.9c-.3,-.8,-.6,-1.3,-1,-1.6c-.4,-.3,-1,-.5,-1.7,-.5h-1.4l1.2,1.2c.4,0,.7,.1,1,.2c.3,.1,.6,.3,.9,.5c.2,.2,.4,.4,.6,.7c.1,.3,.2,.7,.2,1v8.9l1.1,1.2V135.2h2.3Zm5.9,-1.2h-7.9l1.2,1.2h4c-1.7,2,-2.6,4,-2.6,6.1c0,1.5,.3,2.8,1,3.9c.7,1.4,1.8,2.1,3.2,2.1c.3,0,.5,0,.8,-.1c.3,-.1,.5,-.2,.7,-.4c.2,-.2,.4,-.4,.5,-.7c.1,-.2,.1,-.5,.1,-.8c0,-.4,-.1,-.9,-.4,-1.2c-.3,-.3,-.6,-.5,-1,-.5c-.4,0,-.7,.2,-1,.4c-.3,.3,-.5,.6,-.5,1c0,.2,.1,.4,.2,.7c.1,.2,.3,.4,.6,.6c-.8,.2,-1.5,-.2,-2.3,-1.3c-.4,-.7,-.6,-1.5,-.7,-2.3c0,-1,.2,-1.9,.4,-2.7c.2,-.7,.5,-1.4,.9,-2.1c.5,-.7,1,-1.3,1.7,-1.7c.6,-.5,1.4,-.8,2.3,-1L382.8,134Zm13.5,0H382.1l1.2,1.2h14.3L396.3,134Zm-.5,5.6c-.2,-.6,-.5,-1.2,-.9,-1.7c-.5,-.5,-1,-.9,-1.5,-1.1c-.6,-.3,-1.2,-.5,-1.9,-.5c-.7,0,-1.4,.3,-1.9,.7c-.6,.5,-1,1.1,-1,1.9c0,.6,.2,1.2,.6,1.6c.4,.5,.9,.7,1.5,.7c1.3,0,1.9,-.6,1.9,-1.7c0,-.5,-.2,-1,-.5,-1.4c.4,-.1,.7,-.2,.9,-.2c.6,0,1.1,.3,1.6,.9c.3,.6,.5,1.1,.5,1.8c0,.8,-.3,1.6,-1,2.3c-.8,.6,-1.7,1,-2.5,1c-1.7,0,-3.2,-.9,-4.5,-2.8c-.2,-.3,-.6,-1,-1,-1.8c-.4,-.9,-.9,-1.9,-1.4,-3.1L384,136c1.8,6.5,4.3,9.8,7.5,9.8c1.2,0,2.3,-.5,3.2,-1.3c.5,-.4,.8,-.8,1,-1.4c.3,-.5,.4,-1,.4,-1.6c0,-.7,-.1,-1.3,-.3,-1.9Zm23,-5.6H403.6l1.2,1.2h11.8v8.2L415,142c.2,-.6,.3,-1.3,.3,-1.9c0,-.8,-.2,-1.6,-.6,-2.2c-.3,-.5,-.6,-.9,-1.1,-1.2c-.4,-.3,-.8,-.6,-1.3,-.7c-.3,-.1,-.6,-.2,-.9,-.2c-.7,0,-1.4,.2,-2,.7c-.3,.2,-.5,.5,-.7,.8c-.2,.3,-.2,.6,-.2,.9c0,.4,0,.7,.2,.9c.3,.5,.7,.7,1.2,.8c.6,.1,1,0,1.4,-.3c.3,-.2,.5,-.4,.7,-.6c.1,-.3,.2,-.5,.2,-.8c0,-.3,-.2,-.6,-.4,-1c.2,-.1,.5,-.1,.7,0c.2,0,.5,.1,.7,.3c.2,.2,.4,.4,.6,.7c.2,.3,.3,.6,.4,.9c.1,.3,.1,.5,.1,.7c0,.6,-.2,1.1,-.5,1.7c-.5,.8,-1.4,1.3,-2.8,1.3c-.6,0,-1.1,-.2,-1.7,-.5c-.5,-.3,-1,-.8,-1.5,-1.4c-.4,-.5,-.8,-1.2,-1.2,-2c-.3,-.8,-.6,-1.7,-.8,-2.7l-.7,-.3c.1,1,.3,2,.5,2.9c.3,.9,.6,1.7,1,2.3c.3,.5,.6,1,1,1.5c.4,.4,.8,.8,1.2,1.1c.4,.3,.8,.6,1.2,.7c.4,.2,.8,.3,1.2,.3c.8,0,1.4,-.2,2,-.4c.5,-.3,.9,-.7,1.2,-1.2c1.5,.9,2.4,2.4,3,4.5v-.1l.4,.3V135.2H420L418.8,134Zm5.5,1.2L423.1,134h-1c-.4,-.4,-.6,-1,-.8,-1.9l-.4,-.3c0,.2,0,.5,0,.9c0,.3,.1,.7,.1,1.2c0,.5,.1,.9,.1,1.3c0,.3,0,.6,0,.9c-.2,-.8,-.6,-1.3,-1,-1.6c-.4,-.3,-.9,-.5,-1.7,-.5h-1.3l1.2,1.2c.3,0,.6,.1,1,.2c.3,.1,.6,.3,.8,.5c.3,.2,.5,.4,.6,.7c.2,.3,.2,.7,.2,1v8.9l1.2,1.2V135.2h2.2ZM434.7,134H422.9l1.1,1.2h1.4c-.3,.5,-.5,.9,-.5,1.4c0,.3,.1,.6,.2,.8c.2,.3,.4,.6,.6,.8c.5,.4,1.1,.6,1.7,.6c.4,0,.7,0,1,-.1c-1.2,1,-2,1.8,-2.5,2.4l1.5,1.7c1.4,-.1,2.5,.2,3.5,1c1,.7,1.8,1.9,2.4,3.4l.6,.5V135.2h1.9L434.7,134Zm-2,10.5c-.9,-1.5,-2.3,-2.6,-4.2,-3.3c.5,-.6,1,-1.2,1.5,-1.7c.5,-.5,1,-.9,1.5,-1.1l-1.3,-1.3c-.4,.6,-1.1,1,-1.9,1c-.4,0,-.7,-.2,-1,-.4c-.2,-.2,-.4,-.6,-.4,-.9c0,-.2,.1,-.4,.1,-.6c.1,-.2,.2,-.3,.3,-.5c.2,-.1,.3,-.3,.5,-.4c.1,-.1,.3,-.1,.5,-.1h4.4v9.3Zm7.8,-9.3L439.3,134h-1.1c-.3,-.4,-.6,-1,-.7,-1.9l-.4,-.3c0,.2,0,.5,0,.9c0,.3,0,.7,0,1.2c.1,.5,.1,.9,.1,1.3c0,.3,0,.6,0,.9c-.2,-.8,-.5,-1.3,-.9,-1.6c-.4,-.3,-1,-.5,-1.7,-.5h-1.4l1.2,1.2c.4,0,.7,.1,1,.2c.3,.1,.6,.3,.9,.5c.2,.2,.4,.4,.6,.7c.1,.3,.2,.7,.2,1v8.9l1.1,1.2V135.2h2.3ZM453,134H438.7l1.3,1.2h14.2L453,134Zm-.6,5.6c-.2,-.6,-.5,-1.2,-.9,-1.7c-.5,-.5,-1,-.9,-1.5,-1.1c-.6,-.3,-1.2,-.5,-1.8,-.5c-.8,0,-1.5,.3,-2,.7c-.6,.5,-.9,1.1,-.9,1.9c0,.6,.1,1.2,.5,1.6c.4,.5,.9,.7,1.5,.7c1.3,0,1.9,-.6,1.9,-1.7c0,-.5,-.1,-1,-.5,-1.4c.4,-.1,.7,-.2,.9,-.2c.6,0,1.1,.3,1.6,.9c.3,.6,.5,1.1,.5,1.8c0,.8,-.3,1.6,-1,2.3c-.8,.6,-1.6,1,-2.5,1c-1.7,0,-3.2,-.9,-4.5,-2.8c-.2,-.3,-.6,-1,-1,-1.8c-.4,-.9,-.9,-1.9,-1.4,-3.1l-.7,-.2c1.8,6.5,4.3,9.8,7.6,9.8c1.1,0,2.2,-.5,3.1,-1.3c.5,-.4,.8,-.8,1.1,-1.4c.2,-.5,.3,-1,.3,-1.6c0,-.7,-.1,-1.3,-.3,-1.9Zm20.9,-4.4L472,134H460.4l1.2,1.2H470v6.6h-.1c-1.2,-2.6,-2.7,-4,-4.4,-4c-.8,0,-1.5,.3,-2.1,.9c-.6,.5,-.9,1.2,-.9,2c0,1.5,.8,2.2,2.4,2.2c.5,0,.9,-.2,1.2,-.5c.3,-.4,.4,-.8,.4,-1.3c0,-.3,-.3,-.8,-.8,-1.5c.1,-.1,.2,-.1,.4,-.1c1.2,0,2.3,.8,3.3,2.5c.6,1.4,.9,2.9,.9,4.2l-.1,1.3l1,.6V135.2h2.1Zm4.6,0L476.7,134h-1.1c-.3,-.4,-.6,-1,-.7,-1.9l-.4,-.3c0,.2,0,.5,0,.9c0,.3,0,.7,0,1.2c.1,.5,.1,.9,.1,1.3c0,.3,.1,.6,.1,.9c-.3,-.8,-.6,-1.3,-1,-1.6c-.4,-.3,-1,-.5,-1.7,-.5h-1.4l1.2,1.2c.4,0,.7,.1,1,.2c.3,.1,.6,.3,.9,.5c.2,.2,.4,.4,.6,.7c.1,.3,.2,.7,.2,1v8.9l1.1,1.2V135.2h2.3Zm20.3,0L497,134H483.8l1.2,1.2h9.8v3.3c-.5,-1.3,-1.2,-2,-2.2,-2c-.3,0,-.7,.2,-1,.5c-.3,.3,-.5,.6,-.5,1c-.8,-1,-1.7,-1.6,-2.7,-1.6c-.8,0,-1.5,.4,-2,1.2c-.5,.7,-.7,1.4,-.7,2.3c0,.5,.1,1,.3,1.4c.1,.4,.4,.8,.7,1.1c.3,.3,.7,.5,1.1,.7c.4,.1,.9,.2,1.4,.2c.6,-.1,1.1,-.2,1.4,-.5c.4,-.3,.5,-.7,.5,-1.2c0,-1.1,-.5,-1.7,-1.6,-1.7c-.3,0,-.7,.1,-.9,.3c-.3,.3,-.5,.6,-.5,1c0,.2,.2,.6,.4,1c-1.1,-.2,-1.7,-.8,-1.7,-1.7c0,-.3,.1,-.6,.2,-.9c.1,-.3,.3,-.5,.5,-.7c.2,-.2,.4,-.4,.7,-.5c.3,-.1,.5,-.2,.8,-.2c.7,0,1.3,.2,1.8,.6c.6,.4,.9,1,1,1.6l.5,-.2c-.1,-.3,-.1,-.5,-.1,-.7c0,-.9,.3,-1.3,1,-1.3c.4,0,.8,.2,1.1,.5c.3,.3,.5,.7,.5,1.1v6.9l1.2,1.1V135.2h2.2Zm4.5,0L501.5,134h-1.1c-.3,-.4,-.6,-1,-.7,-1.9l-.5,-.3c0,.2,.1,.5,.1,.9c0,.3,0,.7,0,1.2c.1,.5,.1,.9,.1,1.3c0,.3,0,.6,0,.9c-.2,-.8,-.5,-1.3,-.9,-1.6c-.4,-.3,-1,-.5,-1.7,-.5h-1.4l1.2,1.2c.4,0,.7,.1,1,.2c.3,.1,.6,.3,.9,.5c.2,.2,.4,.4,.6,.7c.1,.3,.2,.7,.2,1v8.9l1.1,1.2V135.2h2.3Zm5.9,-1.2h-7.9l1.2,1.2h4c-1.7,2,-2.6,4,-2.6,6.1c0,1.5,.3,2.8,1,3.9c.7,1.4,1.8,2.1,3.2,2.1c.2,0,.5,0,.8,-.1c.2,-.1,.5,-.2,.7,-.4c.2,-.2,.3,-.4,.5,-.7c.1,-.2,.1,-.5,.1,-.8c0,-.4,-.1,-.9,-.4,-1.2c-.3,-.3,-.6,-.5,-1,-.5c-.4,0,-.7,.2,-1,.4c-.4,.3,-.5,.6,-.5,1c0,.2,.1,.4,.2,.7c.1,.2,.3,.4,.6,.6c-.8,.2,-1.5,-.2,-2.3,-1.3c-.4,-.7,-.7,-1.5,-.7,-2.3c0,-1,.1,-1.9,.4,-2.7c.2,-.7,.5,-1.4,.9,-2.1c.4,-.7,1,-1.3,1.7,-1.7c.6,-.5,1.4,-.8,2.3,-1L508.6,134Zm11.7,0c-.2,0,-.3,0,-.4,0c-.7,0,-1.1,-.4,-1.1,-1.3c0,-.1,.1,-.2,.1,-.3l-.7,-.7c0,.5,0,1,0,1.5c.1,.6,.1,1.2,.1,1.9l.2,3.5c-.6,-1.6,-1.1,-2.6,-1.6,-3.2c-.7,-.8,-1.7,-1.3,-2.9,-1.3c-.6,0,-1,.1,-1.5,.2c-.5,.2,-.9,.4,-1.3,.7c-.9,.6,-1.4,1.4,-1.4,2.4c0,.4,.1,.8,.4,1.1c.3,.4,.6,.6,1,.6c.1,0,.3,0,.5,-.1c.2,-.1,.4,-.2,.7,-.4c.6,-.3,1,-.5,1.2,-.5c.4,0,.7,.2,.7,.6c0,.1,-.1,.3,-.3,.6c-.2,.2,-.5,.5,-.8,.9c-.3,.3,-.6,.6,-.8,.9c-.3,.2,-.5,.4,-.7,.6l1.4,1.5c.8,-.8,1.4,-1.6,1.8,-2.3c.5,-.7,.7,-1.2,.7,-1.7c0,-.3,-.1,-.6,-.2,-.9c-.2,-.3,-.3,-.5,-.6,-.7c-.2,-.1,-.4,-.3,-.7,-.4c-.3,-.1,-.6,-.1,-1,-.1c-.4,0,-.9,.1,-1.5,.4c.5,-1.3,1.5,-1.9,2.8,-1.9c.9,0,1.8,.5,2.6,1.5c.3,.5,.5,.9,.7,1.4c.2,.5,.3,1,.3,1.5c0,.4,0,.9,0,1.6c0,1,-.1,2.6,-.1,4.8l1.4,1.6V135.2h2.1L520.3,134Z" class="gp_226"/>
<g clip-path="url(#c0_226)">
<path d="M1877,177.2H32.1v-5.4H768.7c43.1,0,53,-37.9,115.3,-37.9h993Z" class="gq_226"/>
<path d="M1877,183.7H32.1v-9.8H768.7c43.1,0,53,-33.6,115.3,-33.6h993Z" class="gr_226"/>
</g>
<path d="M208.9,713.6l-6.6,-5.9L198,719.1Z" class="gn_226"/>
<image clip-path="url(#ci_226)" preserveAspectRatio="none" x="125" y="206" width="734" height="181" xlink:href="img/9.png"/>
<path d="M144.6,231.3c0,0,-13,0,-13,13v117c0,0,0,13,13,13H833.1c0,0,13,0,13,-13v-130Z" class="gs_226"/>
<path d="M147.7,294.1l54.1,40.8l54.1,-40.8V230h8.7V211.9H155.8c-6.5,.4,-7.7,3.9,-8.2,8.4Z" class="gt_226"/>
<path d="M274,220.3c-.3,-4.7,-4.2,-8.4,-9,-8.4c-4.8,0,-8.7,3.7,-9,8.4h-.1V230h18.2v-9.7Z" class="gj_226"/>
<path d="M255.9,230.6H846.1" class="gu_226"/>
<path d="M32.1,45.1H9.2m958.3,0h22.9M32.1,1331.3H9.2m958.3,0h22.9M45.1,32.1V9.2m0,1335.1v22.9M954.5,32.1V9.2m0,1335.1v22.9" class="gv_226"/>
<path d="M32.1,45.1H9.2m958.3,0h22.9M32.1,1331.3H9.2m958.3,0h22.9M45.1,32.1V9.2m0,1335.1v22.9M954.5,32.1V9.2m0,1335.1v22.9" class="gw_226"/>
<path d="M27.5,32.1H0m972.1,0h27.5M27.5,1344.3H0m972.1,0h27.5M32.1,27.5V0m0,1348.9v27.5M967.5,27.5V0m0,1348.9v27.5" class="gv_226"/>
<path d="M27.5,32.1H0m972.1,0h27.5M27.5,1344.3H0m972.1,0h27.5M32.1,27.5V0m0,1348.9v27.5M967.5,27.5V0m0,1348.9v27.5" class="gw_226"/>
</svg>