<?xml version="1.0" encoding="UTF-8" standalone="no"?>
<!DOCTYPE svg PUBLIC "-//W3C//DTD SVG 1.1//EN"
"http://www.w3.org/Graphics/SVG/1.1/DTD/svg11.dtd">
<svg viewBox="0 0 999 1376" version="1.1" xmlns="http://www.w3.org/2000/svg" xmlns:xlink="http://www.w3.org/1999/xlink">
<defs>
<clipPath id="c0_305"><path d="M153.3,1244.7V133.9H867.9V1244.7Z"/></clipPath>
<style type="text/css"><![CDATA[
.g0_305{
fill: #FFF;
}
.g1_305{
fill: none;
stroke: #231F20;
stroke-width: 0.756;
stroke-miterlimit: 3;
}
.g2_305{
fill: #C7CFE6;
}
.g3_305{
fill: none;
stroke: #6381B7;
stroke-width: 1.145;
stroke-miterlimit: 10;
}
.g4_305{
fill: none;
stroke: #6381B7;
stroke-width: 0.381;
stroke-miterlimit: 10;
}
.g5_305{
fill: #25408F;
}
.g6_305{
fill: #6381B7;
}
.g7_305{
fill: #FFDE2C;
}
.g8_305{
fill: none;
stroke: #231F20;
stroke-width: 1.451;
stroke-miterlimit: 10;
}
.g9_305{
fill: #D2D3D5;
}
.ga_305{
fill: #A8AAAD;
}
.gb_305{
fill: none;
stroke: #231F20;
stroke-width: 0.828;
stroke-miterlimit: 10;
}
.gc_305{
fill: #6CCFF6;
}
.gd_305{
fill: none;
stroke: #231F20;
stroke-width: 0.828;
stroke-linecap: round;
stroke-linejoin: round;
}
.ge_305{
fill: none;
stroke: #231F20;
stroke-width: 1.451;
stroke-linecap: round;
stroke-linejoin: round;
}
.gf_305{
fill: none;
stroke: #FFF;
stroke-width: 1.909;
stroke-miterlimit: 10;
}
.gg_305{
fill: none;
stroke: #000;
stroke-width: 0.381;
stroke-miterlimit: 10;
}
]]></style>
</defs>
<path d="M153.3,1244.7H867.9V133.9H153.3V1244.7Z" class="g0_305"/>
<image clip-path="url(#c0_305)" preserveAspectRatio="none" x="151" y="132" width="719" height="1114" xlink:href="img/1.jpg"/>
<path d="M387.7,188.2h-1.8v-4.5c-.9,.5,-1.9,.8,-2.9,1.1c-1,.3,-2.1,.4,-3.5,.4h-7.7v-1.4H377v-3.4c-1.3,-.2,-2.3,-.7,-3.1,-1.6c-.9,-.8,-1.3,-1.9,-1.3,-3.3c0,-.7,.2,-1.4,.4,-2c.3,-.6,.6,-1.1,1.1,-1.6c.5,-.4,1,-.7,1.6,-1c.7,-.2,1.4,-.3,2.1,-.3c.8,0,1.5,.1,2.1,.3c.7,.3,1.2,.6,1.7,1c.4,.5,.8,1,1,1.6c.3,.6,.4,1.3,.4,2c0,1.3,-.4,2.4,-1.1,3.3c-.8,.9,-1.8,1.4,-3,1.6v3.4h.6c1.1,0,2.2,-.1,3.3,-.3c1,-.3,2,-.7,3.1,-1.4V170.4h1.8v17.8Zm-7.4,-15.3c-.7,-.6,-1.5,-.9,-2.5,-.9c-.9,0,-1.8,.3,-2.4,.9c-.6,.7,-1,1.5,-1,2.6c0,1.2,.4,2,1,2.6c.6,.6,1.5,.9,2.4,.9c1,0,1.8,-.3,2.5,-.9c.6,-.6,.9,-1.4,.9,-2.6c0,-1.1,-.3,-1.9,-.9,-2.6Zm26.5,6.2h-8v3.3h3.9c.6,0,1.1,.2,1.3,.5c.2,.3,.3,.7,.3,1.3l-.2,5.4h-1.6v-5.1c0,-.2,0,-.4,-.1,-.5c-.1,-.1,-.2,-.1,-.4,-.1H391.9v-1.5H397v-3.3h-7.1v-1.5h12c.2,-.8,.3,-1.8,.5,-2.7c.1,-1,.1,-2,.1,-2.8c0,-.2,0,-.4,-.1,-.5c-.1,-.1,-.3,-.1,-.5,-.1h-9.7v-1.4h10.2c.6,0,1.1,.1,1.4,.4c.3,.2,.5,.6,.5,1.2c0,.8,-.1,1.8,-.2,2.9c-.2,1.1,-.3,2.1,-.5,3h3.2v1.5Zm17.1,4.4h-1.8V170.1h1.8v13.4Zm-10.2,5.9c-.7,0,-1.2,-.1,-1.5,-.4c-.3,-.3,-.4,-.7,-.4,-1.3v-5.2h1.8v4.9c0,.2,0,.3,.1,.4c.1,.1,.3,.2,.5,.2h5.6c.9,0,1.6,-.1,2.3,-.2c.7,0,1.4,-.2,2.1,-.5l.4,1.4c-.8,.3,-1.6,.4,-2.4,.5c-.7,.1,-1.5,.2,-2.3,.2h-6.2ZM418,177c-.2,.6,-.6,1.1,-1.1,1.6c-.4,.4,-1,.7,-1.6,1c-.6,.2,-1.2,.3,-1.9,.3c-.8,0,-1.5,-.1,-2.1,-.4c-.6,-.2,-1.1,-.6,-1.6,-1c-.4,-.4,-.8,-.9,-1,-1.5c-.2,-.6,-.4,-1.2,-.4,-1.9c0,-.6,.2,-1.3,.4,-1.8c.3,-.6,.6,-1.1,1.1,-1.6c.4,-.4,1,-.7,1.6,-1c.6,-.2,1.2,-.4,2,-.4c.7,0,1.4,.2,2,.4c.6,.3,1.1,.7,1.6,1.1c.4,.4,.8,.9,1,1.5c.3,.6,.4,1.2,.4,1.8c0,.7,-.1,1.3,-.4,1.9Zm-2.3,-4.2c-.5,-.7,-1.3,-1,-2.3,-1c-1,0,-1.8,.3,-2.4,1c-.6,.6,-.9,1.4,-.9,2.3c0,.9,.3,1.7,.9,2.4c.6,.7,1.4,1,2.4,1c1,0,1.8,-.3,2.3,-1c.6,-.7,.9,-1.5,.9,-2.4c0,-.9,-.3,-1.7,-.9,-2.3Zm33,7.1H431.9v-1.4h11.9c.1,-.4,.2,-.9,.2,-1.5c.1,-.5,.2,-1,.3,-1.6c0,-.5,.1,-1.1,.1,-1.6c0,-.5,0,-1,0,-1.5c0,-.2,0,-.4,-.1,-.4c-.1,-.1,-.2,-.2,-.5,-.2h-9.7v-1.4h10.2c.7,0,1.1,.1,1.4,.4c.3,.2,.5,.6,.5,1.2c0,.4,0,.9,-.1,1.5c0,.6,0,1.1,-.1,1.7c-.1,.6,-.2,1.2,-.3,1.8c0,.5,-.1,1.1,-.3,1.6h3.3v1.4Zm-12.8,9.5c-.7,0,-1.1,-.1,-1.5,-.4c-.3,-.3,-.4,-.7,-.4,-1.3v-5h1.8v4.7c0,.2,0,.3,.1,.4c.1,.1,.3,.2,.5,.2h5.7c.8,0,1.6,-.1,2.2,-.2c.7,0,1.4,-.2,2.1,-.5l.4,1.4c-.8,.3,-1.6,.4,-2.3,.5c-.8,.1,-1.6,.2,-2.4,.2h-6.2ZM454,178.8c0,.3,0,.4,.1,.6c.1,.1,.3,.1,.5,.1h4.3c.9,0,1.8,0,2.7,-.1c.9,0,1.9,-.2,3,-.5l.2,1.4c-.5,.2,-1,.3,-1.5,.4c-.4,0,-.9,.1,-1.3,.2c-.5,0,-.9,.1,-1.4,.1c-.4,0,-.9,0,-1.4,0v3.4h7.6v1.4H450v-1.4h7.4V181h-2.9c-.8,0,-1.3,-.2,-1.7,-.5c-.4,-.3,-.6,-.8,-.6,-1.5v-3.8h10.1v-2.8H452.2v-1.5h11.9v5.2c-.5,.2,-1,.4,-1.5,.4c-.5,.1,-1,.2,-1.5,.2H454v2.1Zm14,3.9c.9,-.7,1.8,-1.4,2.7,-2.1c.8,-.8,1.6,-1.6,2.2,-2.4c.7,-.9,1.2,-1.7,1.7,-2.6c.4,-.8,.7,-1.7,.8,-2.5c.1,-.2,0,-.3,-.1,-.4c0,-.1,-.2,-.1,-.3,-.1h-6.3v-1.5h7.1c.7,0,1.1,.2,1.3,.7c.1,.4,.2,.8,.1,1.4c-.1,.7,-.3,1.6,-.7,2.4c-.3,.8,-.8,1.6,-1.3,2.4c.4,.1,.8,.3,1.1,.5c.3,.2,.5,.5,.8,.8c.4,.6,.8,1.2,1.3,1.9c.4,.7,.8,1.4,1.2,1.9l-1.3,1c-.5,-.7,-.9,-1.4,-1.4,-2.1c-.4,-.7,-.8,-1.3,-1.1,-1.7c-.2,-.2,-.4,-.4,-.6,-.6c-.3,-.2,-.6,-.4,-.9,-.5c-.8,.9,-1.6,1.8,-2.5,2.6c-.9,.8,-1.8,1.6,-2.8,2.3l-1,-1.4Zm18.9,-3.9h-3.4v9.3h-1.8V170.4h1.8v7h3.4v1.4Zm20.8,-8v8.6c-.8,.3,-1.6,.6,-2.5,.8c-.9,.2,-1.8,.3,-2.8,.4v3.8h7.7v1.4H493.3v-1.4h7.4v-3.8H498c-.9,0,-1.5,-.2,-2,-.5c-.4,-.3,-.6,-.9,-.6,-1.7v-7.6h1.8v3.3h8.7v-3.3h1.8Zm-3.8,8.2c.7,-.1,1.4,-.3,2,-.6v-2.9h-8.7v2.9c0,.2,0,.4,.1,.6c.1,.1,.3,.1,.6,.1h4c.7,0,1.3,0,2,-.1Zm23.8,.3c0,.7,-.1,1.3,-.4,1.8c-.3,.5,-.6,.9,-.9,1.2h.1c.4,0,.7,.1,.9,.3c.2,.3,.2,.7,.2,1.2l-.4,5.4c0,.2,0,.3,-.1,.3c-.1,.1,-.3,.1,-.4,.1h-9.2c-.7,0,-1.2,-.1,-1.5,-.4c-.3,-.4,-.5,-.8,-.5,-1.5v-5.4h9.3c.3,-.5,.6,-.9,.8,-1.4c.2,-.4,.3,-1,.3,-1.6v-2.5h-4.1c-.2,1,-.7,1.8,-1.5,2.5c-.8,.7,-1.8,1,-3.1,1c-.7,0,-1.3,-.1,-1.9,-.3c-.5,-.2,-1,-.5,-1.4,-.9c-.4,-.4,-.7,-.8,-1,-1.3c-.2,-.5,-.3,-1.1,-.3,-1.7c0,-.5,.1,-1,.4,-1.5c.2,-.6,.5,-1,.9,-1.4h-2.4v-1.4h4.6c.1,-.2,.2,-.5,.2,-.8c.1,-.3,.1,-.5,.1,-.8c0,-.1,-.1,-.3,-.1,-.5c-.1,-.2,-.2,-.3,-.2,-.5l1.7,-.5c0,.1,0,.2,.1,.3c0,.1,0,.3,.1,.4c0,.1,0,.2,0,.4c.1,.1,.1,.2,.1,.4c0,.3,-.1,.5,-.1,.8c-.1,.3,-.2,.6,-.4,.8H523v1.4h-2.4c.3,.3,.5,.6,.7,1c.2,.4,.3,.8,.4,1.2h4.2v-5.3h1.8v9.2Zm-1.9,8.9v-4.5h-8.5v3.8c0,.3,.1,.5,.1,.6c.1,.1,.3,.1,.6,.1h7.8Zm-5.9,-13.1c-.1,-.3,-.3,-.6,-.5,-.9c-.2,-.2,-.5,-.4,-.9,-.6c-.3,-.2,-.8,-.3,-1.3,-.3c-.5,0,-.9,.1,-1.3,.3c-.3,.2,-.6,.4,-.9,.6c-.2,.3,-.4,.6,-.4,.9c-.1,.4,-.2,.7,-.2,1c0,.7,.2,1.4,.7,2c.4,.5,1.1,.8,2.1,.8c.5,0,1,0,1.3,-.2c.4,-.2,.7,-.4,.9,-.6c.2,-.3,.4,-.6,.5,-.9c.1,-.4,.2,-.7,.2,-1.1c0,-.3,-.1,-.6,-.2,-1Z" class="g1_305"/>
<path d="M185,353.8H336.6v45.9H185V353.8Zm151.6,0H683v45.9H336.6V353.8Zm346.4,0H843.3v45.9H683V353.8Z" class="g2_305"/>
<path d="M185,399.7H336.6v68.7H185V399.7Zm151.6,0H683v68.7H336.6V399.7Zm346.4,0H843.3v68.7H683V399.7ZM185,468.4H336.6v68.8H185V468.4Zm151.6,0H683v68.8H336.6V468.4Zm346.4,0H843.3v68.8H683V468.4ZM185,537.2H336.6v68.7H185V537.2Zm151.6,0H683v68.7H336.6V537.2Zm346.4,0H843.3v68.7H683V537.2ZM185,606H336.6v88.7H185V606Zm151.6,0H683v88.7H336.6V606ZM683,606H843.3v88.7H683V606ZM185,694.7H336.6v47.4H185V694.7Zm151.6,0H683v47.4H336.6V694.7Zm346.4,0H843.3v47.4H683V694.7ZM185,742.1H336.6v47.4H185V742.1Zm151.6,0H683v47.4H336.6V742.1Zm346.4,0H843.3v47.4H683V742.1ZM185,789.5H336.6v68.7H185V789.5Zm151.6,0H683v68.7H336.6V789.5Zm346.4,0H843.3v68.7H683V789.5ZM185,858.2H336.6v47.4H185V858.2Zm151.6,0H683v47.4H336.6V858.2Zm346.4,0H843.3v47.4H683V858.2Z" class="g0_305"/>
<path d="M185,353.8H336.6m0,0H683m0,0H843.3M185,905.6H336.6m0,0H683m0,0H843.3" class="g3_305"/>
<path d="M336.6,399.5V354.4M683,399.5V354.4M336.6,468.2V399.9M683,468.2V399.9M185,468.4H336.6m0,0H683M336.6,537V468.6M683,468.4H843.3M683,537V468.6M185,537.2H336.6m0,0H683M336.6,605.8V537.4M683,537.2H843.3M683,605.8V537.4M185,606H336.6m0,0H683M336.6,694.5V606.1M683,606H843.3M683,694.5V606.1M185,694.7H336.6m0,0H683M336.6,741.9v-47M683,694.7H843.3M683,741.9v-47M185,742.1H336.6m0,0H683M336.6,789.3v-47M683,742.1H843.3M683,789.3v-47M185,789.5H336.6m0,0H683M336.6,858V789.7M683,789.5H843.3M683,858V789.7M185,858.2H336.6m0,0H683M336.6,905V858.4M683,858.2H843.3M683,905V858.4M185,399.7H336.6m0,0H683m0,0H843.3" class="g4_305"/>
<path d="M153.3,126.3v22.2L165,158.7V136.5Z" class="g5_305"/>
<path d="M153.3,109.5v39H851.1c0,0,16.8,0,16.8,-16.8v-5.4c0,0,0,-16.8,-16.8,-16.8Z" class="g6_305"/>
<path d="M207.2,115.7c0,-9.1,-7.9,-16.6,-17.7,-16.6c-9.8,0,-17.7,7.5,-17.7,16.6c0,2.7,.6,5.2,1.8,7.4c1.2,2.4,2.9,4.6,5,6.2c1.2,1,1.6,1.7,1.7,4.3v.6c0,3.3,2.7,5.9,5.9,5.9h6.6c3.2,0,5.8,-2.6,5.8,-5.9v-.6c.2,-2.6,.6,-3.3,1.8,-4.3c2.1,-1.6,3.8,-3.8,5,-6.2c1.2,-2.2,1.8,-4.7,1.8,-7.4Z" class="g7_305"/>
<path d="M207.2,115.7c0,-9.1,-7.9,-16.6,-17.7,-16.6c-9.8,0,-17.7,7.5,-17.7,16.6c0,2.7,.6,5.2,1.8,7.4c1.2,2.4,2.9,4.6,5,6.2c1.2,1,1.6,1.7,1.7,4.3v.6c0,3.3,2.7,5.9,5.9,5.9h6.6c3.2,0,5.8,-2.6,5.8,-5.9v-.6c.2,-2.6,.6,-3.3,1.8,-4.3c2.1,-1.6,3.8,-3.8,5,-6.2c1.2,-2.2,1.8,-4.7,1.8,-7.4Z" class="g8_305"/>
<path d="M194.6,147.4c0,2.8,-2.3,5.1,-5.1,5.1c-2.8,0,-5.1,-2.3,-5.1,-5.1c0,-2.8,2.3,-5.1,5.1,-5.1c2.8,0,5.1,2.3,5.1,5.1Z" class="g0_305"/>
<path d="M194.6,147.4c0,2.8,-2.3,5.1,-5.1,5.1c-2.8,0,-5.1,-2.3,-5.1,-5.1c0,-2.8,2.3,-5.1,5.1,-5.1c2.8,0,5.1,2.3,5.1,5.1Z" class="g8_305"/>
<path d="M182.1,140.2c0,1,.8,1.8,1.8,1.8h11.2c1,0,1.8,-.8,1.8,-1.8v-1.3H182.1Z" class="g0_305"/>
<path d="M182.1,140.2c0,1,.8,1.8,1.8,1.8h11.2c1,0,1.8,-.8,1.8,-1.8v-1.3H182.1v1.3Z" class="g8_305"/>
<path d="M196.9,143.2c0,.8,-.6,1.3,-1.3,1.3H183.4c-.8,0,-1.3,-.5,-1.3,-1.3c0,-.7,.5,-1.3,1.3,-1.3h12.2c.7,0,1.3,.6,1.3,1.3Z" class="g0_305"/>
<path d="M196.9,143.2c0,.8,-.6,1.3,-1.3,1.3H183.4c-.8,0,-1.3,-.5,-1.3,-1.3c0,-.7,.5,-1.3,1.3,-1.3h12.2c.7,0,1.3,.6,1.3,1.3Z" class="g8_305"/>
<path d="M196.9,145.8c0,.7,-.6,1.3,-1.3,1.3H183.4c-.8,0,-1.3,-.6,-1.3,-1.3c0,-.7,.5,-1.3,1.3,-1.3h12.2c.7,0,1.3,.6,1.3,1.3Z" class="g0_305"/>
<path d="M196.9,145.8c0,.7,-.6,1.3,-1.3,1.3H183.4c-.8,0,-1.3,-.6,-1.3,-1.3c0,-.7,.5,-1.3,1.3,-1.3h12.2c.7,0,1.3,.6,1.3,1.3Z" class="g8_305"/>
<path d="M215.5,128.7l8.3,10.4c.6,.7,1.8,.6,2.7,-.2c.9,-.7,1.2,-1.9,.7,-2.6l-8.9,-10.2Z" class="g9_305"/>
<path d="M215.5,128.7l8.3,10.4c.6,.7,1.8,.6,2.7,-.2c.9,-.7,1.2,-1.9,.7,-2.6l-8.9,-10.2l-2.8,2.6Z" class="g8_305"/>
<path d="M217.5,125.1c.5,.6,.3,1.8,-.7,2.6c-.9,.7,-2.1,.8,-2.6,.2c-.6,-.7,-.3,-1.9,.6,-2.6c.9,-.8,2.1,-.9,2.7,-.2Z" class="ga_305"/>
<path d="M217.5,125.1c.5,.6,.3,1.8,-.7,2.6c-.9,.7,-2.1,.8,-2.6,.2c-.6,-.7,-.3,-1.9,.6,-2.6c.9,-.8,2.1,-.9,2.7,-.2Z" class="g8_305"/>
<path d="M212.7,124.7l1.7,2c.3,.3,1,.3,1.5,-.1c.5,-.5,.7,-1.1,.4,-1.5l-1.7,-2Z" class="g0_305"/>
<path d="M212.7,124.7l1.7,2c.3,.3,1,.3,1.5,-.1c.5,-.5,.7,-1.1,.4,-1.5l-1.7,-2l-1.9,1.6Z" class="gb_305"/>
<path d="M214.8,122.9c.4,.5,.2,1.3,-.5,1.8c-.6,.5,-1.4,.6,-1.8,.1c-.4,-.4,-.2,-1.2,.5,-1.7c.6,-.6,1.4,-.6,1.8,-.2Z" class="g0_305"/>
<path d="M214.8,122.9c.4,.5,.2,1.3,-.5,1.8c-.6,.5,-1.4,.6,-1.8,.1c-.4,-.4,-.2,-1.2,.5,-1.7c.6,-.6,1.4,-.6,1.8,-.2Z" class="gb_305"/>
<path d="M216.4,105.4c4.8,5.7,4.1,14.2,-1.7,19c-5.7,4.8,-14.2,4,-19,-1.7c-4.8,-5.7,-4,-14.2,1.7,-19c5.7,-4.8,14.2,-4.1,19,1.7Z" class="g0_305"/>
<path d="M216.4,105.4c4.8,5.7,4.1,14.2,-1.7,19c-5.7,4.8,-14.2,4,-19,-1.7c-4.8,-5.7,-4,-14.2,1.7,-19c5.7,-4.8,14.2,-4.1,19,1.7Z" class="g8_305"/>
<path d="M214,107.4c3.5,4.2,3,10.5,-1.3,14.1c-4.2,3.5,-10.5,2.9,-14,-1.3c-3.5,-4.2,-3,-10.5,1.2,-14c4.2,-3.6,10.5,-3,14.1,1.2Z" class="gc_305"/>
<path d="M214,107.4c3.5,4.2,3,10.5,-1.3,14.1c-4.2,3.5,-10.5,2.9,-14,-1.3c-3.5,-4.2,-3,-10.5,1.2,-14c4.2,-3.6,10.5,-3,14.1,1.2Z" class="g8_305"/>
<path d="M213,110.6l-3.1,3m3.1,-.4l-3.1,3" class="gd_305"/>
<path d="M172.1,99l3.1,3.3m1.1,-5.9l1.2,3.9m-8.1,3l3.7,1.2" class="ge_305"/>
<path d="M185.8,106.1c1.2,1.2,.2,4.3,-2.2,6.7c-2.5,2.5,-5.5,3.5,-6.8,2.3c-1.2,-1.3,-.3,-4.3,2.2,-6.8c2.5,-2.5,5.5,-3.5,6.8,-2.2Z" class="g0_305"/>
<path d="M203.7,107.6c.6,.6,.1,1.9,-.9,3c-1.1,1,-2.4,1.5,-3,.9c-.5,-.5,-.1,-1.8,1,-2.9c1.1,-1.1,2.4,-1.5,2.9,-1Z" class="g0_305"/>
<path d="M32.1,45.1H9.2m958.3,0h22.9M32.1,1331.3H9.2m958.3,0h22.9M45.1,32.1V9.2m0,1335.1v22.9M954.5,32.1V9.2m0,1335.1v22.9" class="gf_305"/>
<path d="M32.1,45.1H9.2m958.3,0h22.9M32.1,1331.3H9.2m958.3,0h22.9M45.1,32.1V9.2m0,1335.1v22.9M954.5,32.1V9.2m0,1335.1v22.9" class="gg_305"/>
<path d="M27.5,32.1H0m972.1,0h27.5M27.5,1344.3H0m972.1,0h27.5M32.1,27.5V0m0,1348.9v27.5M967.5,27.5V0m0,1348.9v27.5" class="gf_305"/>
<path d="M27.5,32.1H0m972.1,0h27.5M27.5,1344.3H0m972.1,0h27.5M32.1,27.5V0m0,1348.9v27.5M967.5,27.5V0m0,1348.9v27.5" class="gg_305"/>
</svg>