<?xml version="1.0" encoding="UTF-8" standalone="no"?>
<!DOCTYPE svg PUBLIC "-//W3C//DTD SVG 1.1//EN"
"http://www.w3.org/Graphics/SVG/1.1/DTD/svg11.dtd">
<svg viewBox="0 0 999 1376" version="1.1" xmlns="http://www.w3.org/2000/svg" xmlns:xlink="http://www.w3.org/1999/xlink">
<defs>
<clipPath id="c0_286"><path d="M32.1,1344.3V32.1H967.5V1344.3Z"/></clipPath>
<clipPath id="c1_286"><path d="M177,532l-6.5,-2.1L154.1,516V458.9h72V532Z"/></clipPath>
<clipPath id="c2_286"><path d="M177.5,1120.3l-6.5,-2.1l-16.4,-13.9v-57.1h72v73.1Z"/></clipPath>
<clipPath id="c3_286"><path d="M689.1,926.8V616.1H901.9V926.8Z"/></clipPath>
<clipPath id="c4_286"><path d="M684.7,927.7V615.3H905.8V927.7Z"/></clipPath>
<clipPath id="c5_286"><path d="M684.4,927.4V615H904.9V927.4Z"/></clipPath>
<clipPath id="c6_286"><path d="M788,632c-.3,-.1,3.5,-8.2,3.5,-8.2l.8,.5c0,0,-4,7.7,-4.3,7.7Z"/></clipPath>
<clipPath id="c7_286"><path d="M795.5,624.3c0,0,-6.8,-1.1,-7.6,-5.3c-.6,-3.6,1.5,-3.8,2.1,-3.8q.1,0,.1,0l8.3,-12.7L797,599.4c0,0,-.6,-1.1,.1,-2.1c.1,0,.2,-.1,.3,-.1c2.1,0,13,5.6,13,5.6v.1c-.3,.5,-.7,1.2,-1.4,1.7c-.6,.5,-5,1.1,-5,1.1l-8.5,18.6Z"/></clipPath>
<clipPath id="c8_286"><path d="M795.1,623.9c.2,-.5,.2,-1.8,0,-2.3v-1.3c-1.5,-.6,-2.9,-1.3,-3.7,-2.5c-1,.5,-2.1,1.2,-3.1,1.8c1.6,2.2,3.8,3.6,6.8,4.3Zm0,-3.9c2.2,-4.5,4,-9.5,6.2,-14.1c-.9,-.3,-1.9,-1.3,-2.7,-1.3c-2.3,4.3,-4.6,8.6,-7,12.8c.7,1.3,2.1,2,3.5,2.6Zm-7.3,12.1c1.1,-2.9,2.4,-5.5,3.5,-8.3c-2,-1.6,-3.9,-3.1,-4.4,-6.2v-1.5c0,-2.7,2,-3.4,4.6,-3.4q.1,0,.2,0c1.9,-3.3,4.2,-6.3,6.2,-9.7c-.6,-.8,-1.2,-2.3,-.9,-3.6c.5,1.3,1.6,1.9,2.4,2.9c-.2,.6,-.3,1.1,-.4,1.7c.6,.7,1.3,1.2,2.4,1.4c.4,-.4,.5,-1.2,1.1,-1.5c1,.4,1.9,.8,3.2,.8c.1,.1,.4,.1,.8,.1c.3,0,.7,0,.8,-.1c.1,0,.2,0,.3,0c.2,0,.4,0,.6,-.1c.2,-.1,.4,-.1,.5,-.1c.1,0,.2,0,.3,.1c-1.3,.6,-2.2,1.7,-4.1,1.7c-.1,0,-.3,0,-.4,0c-.8,3.8,-1.8,7.4,-2.6,11.2c.5,1.1,1.5,1.7,1.2,3.1c-.4,2.8,-3.8,4.4,-7.2,4.4c-1.2,0,-2.5,-.2,-3.6,-.7c-1,2.1,-2,4.1,-3.2,6c-.1,-.3,.2,-.4,.2,-.7c1,-1.8,2,-3.6,2.7,-5.7c-1.1,1.7,-1.9,3.7,-2.8,5.5c-.2,.5,-.4,.9,-.6,1.3c-.3,.4,-.3,1.1,-.8,1.4Z"/></clipPath>
<clipPath id="c9_286"><path d="M805.5,604.3c-4.8,0,-13,-7.3,-5.5,-8.8h1.3c.1,.1,.3,.1,.5,.1c0,0,.1,0,.1,0c.4,0,.7,0,1.1,0c3.1,.7,8.2,3.8,7.6,7.1c-.3,1.1,-1.6,1.6,-3.2,1.6h-1.7q-.1,0,-.2,0Z"/></clipPath>
<clipPath id="ca_286"><path d="M764.8,428.4V416h14.5v12.4Z"/></clipPath>
<clipPath id="cb_286"><path d="M125.5,386.7V205.8H858.6V386.7Z"/></clipPath>
<style type="text/css"><![CDATA[
.g0_286{
fill: #FEFCF4;
}
.g1_286{
fill: #FFF;
}
.g2_286{
fill: none;
stroke: #6381B7;
stroke-width: 0.763;
}
.g3_286{
fill: #6381B7;
}
.g4_286{
fill: none;
stroke: #6381B7;
stroke-width: 0.381;
stroke-dasharray: 2,1;
}
.g5_286{
fill: none;
stroke: #6381B7;
stroke-width: 0.381;
}
.g6_286{
fill: #FCE8B0;
}
.g7_286{
fill: #F7C2D9;
}
.g8_286{
fill: #FDF4F3;
}
.g9_286{
fill: #EC008C;
}
.ga_286{
fill: none;
stroke: #949698;
stroke-width: 0.305;
stroke-dasharray: 3,3;
}
.gb_286{
fill: none;
stroke: #949698;
stroke-width: 0.305;
}
.gc_286{
fill: none;
stroke: #818385;
stroke-width: 0.305;
stroke-dasharray: 4,4;
}
.gd_286{
fill: none;
stroke: #818385;
stroke-width: 0.305;
}
.ge_286{
fill: #6D6F71;
}
.gf_286{
fill: #2E6E51;
}
.gg_286{
fill: none;
stroke: #FFF;
stroke-width: 0.152;
stroke-miterlimit: 1;
}
.gh_286{
fill: #BCBEC0;
}
.gi_286{
fill: #EE314A;
}
.gj_286{
fill: #25408F;
}
.gk_286{
fill: #A8AAAD;
}
.gl_286{
fill: none;
stroke: #949698;
stroke-width: 0.549;
}
.gm_286{
fill: none;
stroke: #BCBEC0;
stroke-width: 2.566;
}
.gn_286{
fill: #231F20;
}
.go_286{
fill: #363637;
}
.gp_286{
fill: #5CC4BE;
}
.gq_286{
fill: #EAD646;
}
.gr_286{
fill: #CEEDFB;
}
.gs_286{
fill: #27639D;
}
.gt_286{
fill: none;
stroke: #C3E7F1;
stroke-width: 1.527;
}
.gu_286{
fill: none;
stroke: #FFF;
stroke-width: 1.909;
stroke-miterlimit: 10;
}
.gv_286{
fill: none;
stroke: #000;
stroke-width: 0.381;
stroke-miterlimit: 10;
}
]]></style>
</defs>
<path d="M32.1,1343.2H954.5V32.1H32.1V1343.2Z" class="g0_286"/>
<path clip-path="url(#c0_286)" d="M954.5,1344.3H1877V32.1H954.5V1344.3Z" class="g0_286"/>
<path d="M725,111.3h79V33.4H725v77.9Z" class="g0_286"/>
<path d="M150.4,434c0,0,-18.3,0,-18.3,18.3v550.6c0,0,0,18.4,18.3,18.4H827.5c0,0,18.4,0,18.4,-18.4V434Z" class="g1_286"/>
<path d="M150.4,434c0,0,-18.3,0,-18.3,18.3v550.6c0,0,0,18.4,18.3,18.4H827.5c0,0,18.4,0,18.4,-18.4V434H150.4Z" class="g2_286"/>
<path d="M145.5,1038c0,0,-13,0,-13,13v134.1c0,0,0,13,13,13H833.3c0,0,13,0,13,-13V1051c0,0,0,-13,-13,-13Z" class="g1_286"/>
<path d="M145.5,1038c0,0,-13,0,-13,13v134.1c0,0,0,13,13,13H833.3c0,0,13,0,13,-13V1051c0,0,0,-13,-13,-13H145.5Z" class="g2_286"/>
<path d="M462.9,1216.2c0,0,-4.3,0,-4.3,4.3v10.8c0,0,0,4.3,4.3,4.3h30.4c0,0,4.3,0,4.3,-4.3v-10.8c0,0,0,-4.3,-4.3,-4.3Z" class="g3_286"/>
<path d="M449.8,1208.7v34.8m1.3,1h394m1,-1.4v-34.8m-1.4,-1h-394" class="g4_286"/>
<path d="M449.8,1243.9v.6h.5m395.2,0h.6v-.6m0,-36v-.6h-.6m-395.2,0h-.5v.6" class="g5_286"/>
<path d="M209.6,461.1c0,0,-12.9,0,-12.9,13v47.6c0,0,0,13,12.9,13h602c0,0,13,0,13,-13V474.1c0,0,0,-13,-13,-13Z" class="g6_286"/>
<image clip-path="url(#c1_286)" preserveAspectRatio="none" x="153" y="457" width="75" height="77" xlink:href="img/1.png"/>
<path d="M204.4,527.3c0,0,-26.8,11.3,-51.1,-12.7c0,0,15.2,25.3,49.3,23.9c0,0,24.8,.4,20.3,-10.1c0,0,1.2,-4.4,-18.5,-1.1Z" class="g6_286"/>
<path d="M210.1,1075.4c0,0,-13,0,-13,12.9V1110c0,0,0,13,13,13h602c0,0,13,0,13,-13v-21.7c0,0,0,-12.9,-13,-12.9Z" class="g6_286"/>
<image clip-path="url(#c2_286)" preserveAspectRatio="none" x="153" y="1046" width="75" height="76" xlink:href="img/2.png"/>
<path d="M204.9,1115.6c0,0,-26.8,11.3,-51.1,-12.7c0,0,15.2,25.3,49.3,23.9c0,0,24.7,.4,20.2,-10.1c0,0,1.3,-4.4,-18.4,-1.1Z" class="g6_286"/>
<image clip-path="url(#c3_286)" preserveAspectRatio="none" x="689" y="616" width="212" height="311" xlink:href="img/3.png"/>
<path d="M698.4,621.3l-4.5,297l197.2,2.4l4.5,-297Z" class="g7_286"/>
<image clip-path="url(#c4_286)" preserveAspectRatio="none" x="684" y="616" width="221" height="312" xlink:href="img/4.png"/>
<image clip-path="url(#c5_286)" preserveAspectRatio="none" x="684" y="616" width="220" height="312" xlink:href="img/5.png"/>
<path d="M689.5,627.6l11.4,293.8l165.7,-6.7l32.3,-24.2L888.3,619.8Z" class="g8_286"/>
<path d="M866,915.7l33.8,-25.3L883.1,878.7Z" class="g9_286"/>
<path d="M486.6,905.6c10.8,-11,49.4,-46.1,106,-46.7m7.4,.6c3.6,1.6,-1.3,5.5,-5.4,5.9m-1.1,-4.1c6.2,-5.3,24.5,-14.1,36.7,-16.7m7.4,-1.3c12.5,-2.6,22.1,-8.3,57.2,-3.1" class="ga_286"/>
<path d="M483.6,909c0,0,.3,-.4,1,-1.2m109.5,-49c.5,0,1,0,1.5,.1c.5,0,1,0,1.5,0m-3.9,6.4c-.5,-.1,-1,-.2,-1.4,-.5c-.5,-.3,-.6,-.7,-.3,-1.3m40.2,-19.2c.5,-.1,1,-.2,1.5,-.2c.5,-.1,1,-.2,1.5,-.2m61.5,-3.5c.5,.1,1,.1,1.5,.2" class="gb_286"/>
<path d="M467.2,925.8c-3.7,-1.5,-6.5,-4.7,-7.5,-8.6m.5,-8.2c1.5,-3.6,4.7,-6.4,8.6,-7.5m8.2,.6c3.7,1.5,6.5,4.6,7.5,8.5m-.6,8.2c-1.5,3.7,-4.6,6.5,-8.5,7.5" class="gc_286"/>
<path d="M459.4,915.6c-.1,-.5,-.2,-1.1,-.2,-1.7c0,-.5,.1,-1.1,.2,-1.7m11,-11c.6,-.1,1.1,-.1,1.7,-.1c.6,0,1.1,0,1.7,.1m11,11c.1,.6,.1,1.2,.1,1.7c0,.6,0,1.2,-.1,1.7m-11,11.1c-.6,0,-1.1,.1,-1.7,.1c-.6,0,-1.1,-.1,-1.7,-.1" class="gd_286"/>
<path d="M694.4,844.7l-.9,-8.2l11.7,2.9Z" class="ge_286"/>
<image clip-path="url(#c6_286)" x="787" y="623" width="6" height="10" xlink:href="shade/1.png"/>
<image clip-path="url(#c7_286)" x="787" y="597" width="24" height="28" xlink:href="shade/2.png"/>
<image clip-path="url(#c8_286)" x="786" y="599" width="24" height="34" xlink:href="shade/3.png"/>
<image clip-path="url(#c9_286)" x="792" y="595" width="20" height="10" xlink:href="shade/4.png"/>
<path d="M32.1,179.3H967.5V32.1H32.1V179.3Z" class="gf_286"/>
<path d="M260.9,147.8v-12c0,-.4,-.3,-.8,-.8,-1.2c-.5,-.5,-1,-.7,-1.4,-.7c-.6,0,-1.2,.1,-1.8,.5c-.6,.3,-1.2,.7,-1.7,1.2c-1.1,1.2,-1.6,2.4,-1.6,3.7c0,.6,.2,1.1,.5,1.5c.4,.4,.9,.6,1.5,.6c.5,0,.9,-.2,1.2,-.4c.3,-.3,.5,-.6,.5,-1.1c0,-.9,-.3,-1.3,-.9,-1.3c-.3,0,-.5,0,-.9,0c.1,-.4,.3,-.8,.5,-1.1c.2,-.4,.4,-.8,.7,-1.2c.4,-.4,.7,-.7,1.1,-.9c.3,-.2,.7,-.3,1,-.3c.6,0,.9,.1,.9,.3v9.1c-1.2,-.9,-2.3,-1.4,-3.6,-1.4H255c-.2,0,-.5,0,-.7,0h-.5c-.5,0,-.9,0,-1.3,-.1c-.4,-.1,-.7,-.2,-1,-.3c-.3,-.2,-.5,-.5,-.7,-.9c-.2,-.4,-.3,-.8,-.3,-1.3c0,-.6,.1,-1.1,.2,-1.5c.1,-.4,.3,-.8,.5,-1.2l-.4,-.4c-.4,.4,-.6,.8,-.8,1.3c-.2,.6,-.3,1.2,-.3,1.8c0,3,1.5,4.5,4.4,4.5c.2,0,.5,0,.8,0c.3,0,.6,-.1,1.1,-.1c.8,-.1,1.4,-.2,1.8,-.2c.7,0,1.3,.3,1.8,.8c.1,.2,.2,.4,.3,.6c.1,.3,.2,.6,.4,.9c.1,.4,.2,.7,.4,.8h.2Zm14.3,-15.9c-2.3,-2.4,-4.7,-3.6,-7.2,-3.6c-1,0,-2,.4,-3.1,1.2c-1.1,.9,-1.6,1.8,-1.6,2.7c0,.4,.1,.7,.5,1l.8,.8h-3.2l1.2,1.2h1.8v11.3l1.2,1.2V135.2h2.1L266.5,134h-1.3l-.5,-1.1c.1,-.9,.6,-1.6,1.7,-2.3c.9,-.7,1.8,-1,2.7,-1c.6,0,1.2,.1,1.8,.2c.6,.2,1.2,.4,1.7,.7c.6,.4,1.1,.7,1.6,1c.5,.4,.9,.7,1.3,1l-.3,-.6Zm5.2,3.3L279.2,134H265.9l1.3,1.2H277v3.3c-.5,-1.3,-1.3,-2,-2.3,-2c-.3,0,-.6,.2,-1,.5c-.3,.3,-.4,.6,-.4,1c-.9,-1,-1.8,-1.6,-2.8,-1.6c-.8,0,-1.5,.4,-2,1.2c-.4,.7,-.7,1.4,-.7,2.3c0,.5,.1,1,.3,1.4c.2,.4,.4,.8,.7,1.1c.3,.3,.7,.5,1.1,.7c.4,.1,.9,.2,1.4,.2c.7,-.1,1.1,-.2,1.5,-.5c.3,-.3,.5,-.7,.5,-1.2c0,-1.1,-.6,-1.7,-1.7,-1.7c-.3,0,-.6,.1,-.9,.3c-.3,.3,-.4,.6,-.4,1c0,.2,.1,.6,.4,1c-1.2,-.2,-1.8,-.8,-1.8,-1.7c0,-.3,.1,-.6,.2,-.9c.1,-.3,.3,-.5,.5,-.7c.2,-.2,.5,-.4,.7,-.5c.3,-.1,.6,-.2,.9,-.2c.7,0,1.3,.2,1.8,.6c.5,.4,.8,1,.9,1.6l.5,-.2c0,-.3,-.1,-.5,-.1,-.7c0,-.9,.4,-1.3,1.1,-1.3c.4,0,.7,.2,1.1,.5c.3,.3,.4,.7,.4,1.1v6.9l1.3,1.1V135.2h2.2Zm5.9,-1.2h-7.9l1.2,1.2h4c-1.7,2,-2.6,4,-2.6,6.1c0,1.5,.3,2.8,1,3.9c.7,1.4,1.8,2.1,3.2,2.1c.3,0,.5,0,.8,-.1c.3,-.1,.5,-.2,.7,-.4c.2,-.2,.3,-.4,.5,-.7c.1,-.2,.1,-.5,.1,-.8c0,-.4,-.1,-.9,-.4,-1.2c-.3,-.3,-.6,-.5,-1,-.5c-.4,0,-.7,.2,-1,.4c-.3,.3,-.5,.6,-.5,1c0,.2,.1,.4,.2,.7c.1,.2,.3,.4,.6,.6c-.8,.2,-1.5,-.2,-2.3,-1.3c-.4,-.7,-.6,-1.5,-.7,-2.3c0,-1,.1,-1.9,.4,-2.7c.2,-.7,.5,-1.4,.9,-2.1c.5,-.7,1,-1.3,1.7,-1.7c.6,-.5,1.4,-.8,2.3,-1L286.3,134Zm11.7,1.2L296.8,134H285.7c.6,1,1.7,1.7,3.3,2.2c.7,.2,1.3,.4,1.7,.6c.4,.2,.7,.4,.8,.6c-.5,.4,-1.1,.8,-1.7,1.4c-.6,.5,-1.3,1.1,-1.9,1.7l1.6,2.1c1.4,.1,2.6,.5,3.5,1.2c.6,.5,1.2,1.2,1.8,2.3c.5,1,1,1.6,1.3,1.8V135.2H298Zm-3.1,9.5c-1,-1.7,-2.5,-2.9,-4.5,-3.6c.5,-.5,1,-1.1,1.5,-1.6c.5,-.5,.9,-.9,1.4,-1.4c-.6,-.7,-1.1,-1.3,-1.6,-1.8c-.6,-.5,-1,-.9,-1.4,-1.1h4.6v9.5Zm-4.6,2c.2,.2,.5,.3,.8,.3c.4,0,.7,-.1,.9,-.3c.3,-.3,.4,-.6,.4,-.9c0,-.3,-.1,-.6,-.4,-.9c-.2,-.2,-.5,-.3,-.9,-.3c-.3,0,-.6,.1,-.8,.3c-.3,.3,-.4,.6,-.4,.9c0,.3,.1,.6,.4,.9Zm19.2,-11.5L308.2,134H296.6l1.2,1.2h8.4v6.6c-1.3,-2.6,-2.8,-4,-4.5,-4c-.8,0,-1.5,.3,-2.1,.9c-.6,.5,-.8,1.2,-.8,2c0,1.5,.7,2.2,2.3,2.2c.5,0,.9,-.2,1.2,-.5c.3,-.4,.4,-.8,.4,-1.3c0,-.3,-.3,-.8,-.8,-1.5c.1,-.1,.2,-.1,.4,-.1c1.2,0,2.3,.8,3.3,2.5c.6,1.4,1,2.9,.9,4.2v1.3l.9,.6V135.2h2.1ZM322.9,134c-.5,0,-1,.2,-1.5,.4c-.5,.3,-.9,.5,-1.3,.8c-.8,.8,-1.4,1.8,-1.8,2.8c-.4,1,-.7,2.1,-.7,3.3c0,1.5,.3,2.8,.9,3.9c.8,1.4,1.8,2.1,3.2,2.1c.3,0,.6,0,.9,-.1c.2,-.1,.5,-.2,.7,-.4c.2,-.2,.3,-.4,.4,-.7c.1,-.2,.2,-.5,.2,-.8c0,-.4,-.1,-.9,-.4,-1.2c-.3,-.3,-.6,-.5,-1,-.5c-.2,0,-.4,.1,-.6,.1c-.2,.1,-.3,.2,-.5,.3c-.1,.2,-.2,.3,-.3,.4c-.1,.2,-.1,.4,-.1,.6c0,.2,0,.4,.2,.7c.1,.2,.3,.4,.5,.6c0,0,-.1,.1,-.2,.1h-.1c-.8,0,-1.4,-.5,-1.9,-1.4c-.5,-.7,-.7,-1.5,-.7,-2.3c0,-1,.1,-1.9,.3,-2.7c.3,-.7,.6,-1.4,1,-2.1c.4,-.7,1,-1.3,1.6,-1.7c.7,-.5,1.5,-.8,2.4,-1L322.9,134Zm12.3,1.2L334,134H322.2l1.2,1.2h8.2v.9c-2.5,.8,-5,2.1,-7.4,3.7l1.6,2.3c1.7,.1,3,.7,4.1,1.6c.3,.3,.6,.6,.9,1c.3,.4,.6,.8,.7,1c.2,.3,.4,.7,.6,1.3l.6,.8V135.2h2.5Zm-3.6,9.4c-1.1,-1.8,-2.7,-3.2,-4.8,-4.1c.8,-.6,1.7,-1.1,2.4,-1.5c.8,-.4,1.6,-.7,2.4,-1v6.6Zm-4.7,1.7c.2,.3,.5,.4,.9,.4c.3,0,.6,-.1,.8,-.4c.3,-.2,.4,-.5,.4,-.8c0,-.4,-.1,-.7,-.4,-.9c-.2,-.3,-.5,-.4,-.8,-.4c-.4,0,-.7,.1,-.9,.4c-.3,.2,-.4,.5,-.4,.9c0,.3,.1,.6,.4,.8ZM347,131.9c-2.3,-2.4,-4.7,-3.6,-7.2,-3.6c-1,0,-2,.4,-3.1,1.2c-1.1,.9,-1.6,1.8,-1.6,2.7c0,.4,.1,.7,.4,1l.9,.8h-3.2l1.2,1.2h1.8v11.3l1.2,1.2V135.2h2.1L338.3,134H337l-.5,-1.1c.1,-.9,.6,-1.6,1.7,-2.3c.9,-.7,1.8,-1,2.7,-1c.6,0,1.2,.1,1.8,.2c.6,.2,1.1,.4,1.7,.7c.6,.4,1.1,.7,1.6,1c.5,.4,.9,.7,1.3,1l-.3,-.6Zm6,2.1H337.6l1.2,1.2h5.3c-.4,.3,-.9,.8,-1.3,1.5c-.3,.6,-.5,1.2,-.5,1.7c0,.8,.3,1.5,.8,2.1c.5,.7,1.2,1,2,1c.3,0,.8,-.1,1.3,-.3c.5,-.2,.8,-.3,.9,-.3c.3,0,.4,.1,.5,.4c.2,.2,.2,.4,.2,.6c0,.6,-.4,1,-1.1,1.3c-.6,.3,-1.2,.5,-1.8,.5c-.7,0,-1.3,-.2,-1.8,-.6c-.6,-.4,-1.1,-1,-1.5,-1.7c-.6,-.9,-1,-2.1,-1.1,-3.5c-.1,-.5,-.1,-.9,0,-1.3l-.6,-.3c0,1.2,0,2.3,.2,3.3c.2,1,.4,1.9,.7,2.7c1,2.2,2.4,3.4,4.5,3.4c.9,0,1.7,-.4,2.4,-1c.6,-.7,1,-1.5,1,-2.4c0,-.3,-.1,-.6,-.2,-.9c-.1,-.4,-.3,-.7,-.5,-1.1c-.4,-.7,-.8,-1.2,-1.3,-1.4l-1.4,.7c-.3,.1,-.5,.2,-.7,.3c-.3,.1,-.5,.1,-.6,.1c-.6,0,-.9,-.3,-.9,-.9c0,-.4,.2,-1,.7,-1.7c.2,-.4,.4,-.7,.6,-.9c.2,-.2,.5,-.3,.7,-.3l.1,.1c.7,.9,1.5,1.6,2.3,1.9c.8,.3,1.8,.5,3.1,.5c-.5,1.2,-.8,2.5,-.8,3.6c0,.9,.1,1.8,.3,2.6c.2,.8,.4,1.6,.7,2.4l1.2,.3c-.7,-1.3,-1,-2.5,-1,-3.4c0,-1.2,.2,-2.3,.6,-3.3c.3,-.9,.8,-1.7,1.5,-2.3l-1.9,-1.9c-.3,.2,-.7,.3,-1.2,.4c-.6,.1,-1.1,.1,-1.8,.1c-.1,0,-.3,0,-.6,-.1c-.2,-.1,-.4,-.1,-.6,-.3c-.3,-.1,-.5,-.2,-.6,-.3c-.2,-.2,-.3,-.3,-.3,-.5c.1,-.2,.2,-.4,.4,-.5c.2,-.2,.4,-.3,.6,-.3h6.8L353,134Zm7.2,0h-7.9l1.2,1.2h3.9c-1.7,2,-2.5,4,-2.5,6.1c0,1.5,.3,2.8,.9,3.9c.8,1.4,1.8,2.1,3.2,2.1c.3,0,.6,0,.9,-.1c.2,-.1,.5,-.2,.7,-.4c.2,-.2,.3,-.4,.4,-.7c.2,-.2,.2,-.5,.2,-.8c0,-.4,-.1,-.9,-.4,-1.2c-.3,-.3,-.6,-.5,-1,-.5c-.4,0,-.8,.2,-1.1,.4c-.3,.3,-.4,.6,-.4,1c0,.2,0,.4,.2,.7c.1,.2,.3,.4,.5,.6c-.7,.2,-1.4,-.2,-2.2,-1.3c-.4,-.7,-.7,-1.5,-.7,-2.3c0,-1,.1,-1.9,.3,-2.7c.3,-.7,.6,-1.4,1,-2.1c.4,-.7,1,-1.3,1.6,-1.7c.7,-.5,1.5,-.8,2.4,-1L360.2,134Zm14.8,4.2c-.4,.3,-.5,.7,-.5,1.2c0,.4,.1,.7,.5,1c.3,.2,.7,.3,1.1,.3h.3c0,.5,-.2,.9,-.5,1.4c-.3,.4,-.6,.8,-1,1.1c-.4,.4,-.8,.7,-1.1,.9c-.4,.2,-.8,.3,-1,.3c-.6,0,-1,-.3,-1,-.9v-8.3H380L378.6,134h-.7c.1,-.6,0,-1.2,-.3,-1.7c-.2,-.5,-.6,-.9,-1.2,-1.3c-.3,-.2,-.6,-.3,-1,-.4c-.4,0,-.8,-.1,-1.2,-.1c-.3,0,-.6,0,-1,.1c-.3,0,-.7,0,-1,.1c-.3,0,-.6,0,-.9,0c-.3,.1,-.6,.1,-.8,0c-.1,0,-.2,0,-.3,0c-.2,0,-.3,0,-.5,-.1c-.4,-.1,-.6,-.3,-.9,-.5c-.2,-.2,-.3,-.5,-.3,-.8c0,-.1,0,-.2,.1,-.3c.1,-.1,.1,-.2,.2,-.3v-.4q-.2,0,-.3,.1c-.1,0,-.2,.1,-.2,.1c-.3,.3,-.4,.7,-.4,1.2c0,.3,.1,.6,.2,.9c.2,.3,.4,.5,.7,.8c.3,.3,.7,.5,1.1,.7c.4,.2,.9,.3,1.4,.3c.6,0,1.1,0,1.5,-.1c.4,0,.8,0,1.1,0c.2,0,.4,0,.6,0c.2,-.1,.4,-.1,.6,-.1c.2,0,.4,.1,.6,.1c.1,0,.3,0,.5,.1c.4,.2,.6,.5,.6,.9c0,.1,0,.3,0,.4c0,.1,0,.2,0,.3H359.6l1.2,1.2l.4,.5c.3,.2,.6,.4,1.1,.5c0,0,.1,0,.3,0c.1,0,.2,0,.4,0c.1,0,.2,0,.3,.1c.2,0,.3,0,.4,0c1,0,1.7,.5,2,1.5c.1,.3,.2,.7,.2,1.3l-1,1.4c-.3,.3,-.5,.6,-.7,.8c-.2,.2,-.4,.3,-.5,.3c-.2,0,-.3,-.1,-.4,-.2c-.1,-.1,-.2,-.2,-.3,-.4c-.1,-.1,-.2,-.3,-.3,-.4c-.1,-.2,-.1,-.4,-.2,-.5v-.2l-.8,.8c.1,.3,.3,.6,.5,.9c.2,.3,.4,.6,.6,.9c.2,.3,.5,.5,.8,.7c.2,.2,.5,.2,.9,.2c.1,0,.2,0,.3,0c.1,0,.1,-.1,.2,-.1c.1,-.1,.2,-.2,.4,-.3c.1,-.1,.3,-.3,.5,-.6c.2,-.2,.4,-.5,.7,-.9c.3,-.4,.5,-.8,.9,-1.3c.4,-.6,.8,-.9,1.3,-.9c.3,0,.5,.1,.7,.2c.2,.2,.4,.3,.5,.5c.2,.2,.3,.4,.4,.7c0,.2,.1,.4,.2,.7v2.8c.2,.7,.6,1.1,1.3,1.4c.5,.2,1,.4,1.5,.3c.8,.1,1.9,-.7,3.5,-2.3v4.8l-.2,-.3c-.1,-.1,-.2,-.3,-.3,-.4c-.1,-.1,-.2,-.2,-.3,-.3c0,-.1,-.2,-.2,-.3,-.2c-.1,-.1,-.3,-.2,-.5,-.3c-.5,-.2,-1,-.3,-1.6,-.4c-.7,0,-1.3,0,-1.9,-.1c-.1,0,-.2,0,-.3,0c-.1,0,-.2,0,-.3,0c-2.3,0,-3.5,-.8,-3.5,-2.2c0,-.5,0,-.9,.2,-1l-.5,-.5c-.1,.5,-.3,.9,-.3,1.2c-.1,.4,-.1,.7,-.1,1c0,2.1,1.2,3.2,3.8,3.2h3.6c.4,0,.7,.1,1,.1c.3,.1,.5,.1,.7,.2c.2,.1,.3,.2,.4,.3c.2,.1,.3,.2,.4,.3l.6,.9l.4,.4v-8.4c.1,-.3,.1,-.5,.2,-.8c0,-.3,.1,-.6,.1,-.9c0,-.3,0,-.6,-.1,-.9c-.1,-.3,-.3,-.6,-.4,-.8c-.2,-.2,-.5,-.4,-.7,-.6c-.3,-.1,-.6,-.2,-.9,-.2c-.4,0,-.8,.1,-1.1,.5Zm-5.7,-.1c-.4,-.4,-.8,-.6,-1.3,-.6c-.2,.1,-.4,.2,-.7,.3c-.2,.2,-.4,.4,-.6,.5q0,.1,-.1,.1c0,.1,-.1,.1,-.1,.1v-.6c0,-.4,-.1,-.8,-.2,-1.2c-.2,-.3,-.4,-.6,-.7,-.9l-.7,-.6h5.7v4.4c-.5,-.6,-.9,-1.1,-1.3,-1.5ZM393,135.2L391.8,134c-.7,-.1,-1.1,-.6,-1.2,-1.5l-.8,-.6l.3,5.3H390c-.2,-.5,-.6,-1.2,-1.2,-2c-.7,-.8,-1.3,-1.2,-1.8,-1.2c-1.2,0,-2.2,.8,-3,2.4c-.1,-.7,-.4,-1.2,-1,-1.7c-.6,-.5,-1.1,-.7,-1.8,-.7h-2.5l1.2,1.2c.1,0,.6,0,1.3,0c.8,0,1.5,.5,2,1.5c-.2,.1,-.5,.2,-.8,.4c-.2,.2,-.5,.4,-.6,.7c-.2,.2,-.4,.5,-.5,.8c-.1,.2,-.2,.5,-.2,.8c0,.4,.2,.8,.5,1.2c.2,.3,.6,.5,1,.5c1,0,1.6,-.5,2,-1.5c.1,.5,.4,.8,.7,1.1c.4,.2,.7,.4,1.1,.4c.5,-.1,.9,-.3,1.2,-.7c.3,-.3,.4,-.7,.4,-1.2c0,-.6,-.6,-1.3,-1.9,-2.2c0,-.3,.2,-.6,.5,-.7c.3,-.2,.6,-.3,.9,-.3c.5,0,1,.3,1.5,1c.6,.8,.8,1.4,.8,1.9v7.7l1.2,1.2V135.2h2Zm11.3,0L403.1,134H391.5l1.1,1.2h8.5v6.6H401c-1.3,-2.6,-2.8,-4,-4.4,-4c-.8,0,-1.5,.3,-2.1,.9c-.6,.5,-.9,1.2,-.9,2c0,1.5,.8,2.2,2.3,2.2c.5,0,.9,-.2,1.2,-.5c.3,-.4,.5,-.8,.5,-1.3c0,-.3,-.3,-.8,-.8,-1.5c0,-.1,.2,-.1,.3,-.1c1.3,0,2.4,.8,3.4,2.5c.6,1.4,.9,2.9,.9,4.2l-.1,1.3l1,.6V135.2h2Zm22.4,0L425.5,134H410.3l1.2,1.2h7.8v1c-2.6,.8,-4.9,2.1,-6.9,3.7l1.7,2.1c1.3,.1,2.5,.7,3.6,1.8c.5,.5,.9,1,1.3,1.6c.4,.7,.7,1.3,1,2c0,.1,.1,.1,.2,.2c.1,0,.1,.1,.2,.1v-10c1.2,0,2.2,.3,2.8,1c.7,.7,1,1.4,1,2.2l-.1,.3c-.2,-.2,-.3,-.3,-.5,-.4c-.2,-.2,-.4,-.2,-.7,-.2c-.4,0,-.7,.1,-1,.4c-.3,.2,-.4,.5,-.4,.9c0,.2,0,.4,.1,.6c.1,.2,.3,.3,.4,.5c.2,.1,.3,.2,.5,.3c.2,.1,.4,.1,.6,.1c.3,0,.5,-.1,.8,-.2c.2,-.1,.4,-.3,.6,-.5c.2,-.2,.3,-.4,.4,-.7c.1,-.3,.2,-.5,.2,-.8c0,-1.3,-.5,-2.4,-1.3,-3.4c-.8,-1.2,-1.9,-1.7,-3.3,-1.7v-.9h6.2Zm-7.4,9.1h-.1c-1,-1.8,-2.4,-3.1,-4.4,-4c.8,-.5,1.5,-1,2.3,-1.4c.7,-.4,1.4,-.8,2.2,-1.1v6.5ZM438,135.2L436.8,134H425l1.2,1.2h8.2v.9c-2.5,.8,-5,2.1,-7.4,3.7l1.6,2.3c1.7,.1,3.1,.7,4.1,1.6c.3,.3,.6,.6,.9,1c.3,.4,.6,.8,.7,1c.2,.3,.4,.7,.6,1.3l.7,.8V135.2H438Zm-3.6,9.4c-1.1,-1.8,-2.7,-3.2,-4.8,-4.1c.8,-.6,1.7,-1.1,2.5,-1.5c.8,-.4,1.5,-.7,2.3,-1v6.6Zm-4.7,1.7c.2,.3,.5,.4,.9,.4c.3,0,.6,-.1,.8,-.4c.3,-.2,.4,-.5,.4,-.8c0,-.4,-.1,-.7,-.4,-.9c-.2,-.3,-.5,-.4,-.8,-.4c-.4,0,-.7,.1,-.9,.4c-.2,.2,-.4,.5,-.4,.9c0,.3,.2,.6,.4,.8ZM443.9,134H436l1.2,1.2h4c-1.7,2,-2.6,4,-2.6,6.1c0,1.5,.3,2.8,1,3.9c.7,1.4,1.8,2.1,3.2,2.1c.2,0,.5,0,.8,-.1c.2,-.1,.5,-.2,.7,-.4c.2,-.2,.3,-.4,.5,-.7c.1,-.2,.1,-.5,.1,-.8c0,-.4,-.1,-.9,-.4,-1.2c-.3,-.3,-.6,-.5,-1,-.5c-.4,0,-.7,.2,-1,.4c-.4,.3,-.5,.6,-.5,1c0,.2,.1,.4,.2,.7c.1,.2,.3,.4,.6,.6c-.8,.2,-1.5,-.2,-2.3,-1.3c-.4,-.7,-.7,-1.5,-.7,-2.3c0,-1,.1,-1.9,.4,-2.7c.2,-.7,.5,-1.4,.9,-2.1c.5,-.7,1,-1.3,1.7,-1.7c.6,-.5,1.4,-.8,2.3,-1L443.9,134Zm13.5,0H443.2l1.2,1.2h14.3L457.4,134Zm-.5,5.6c-.2,-.6,-.5,-1.2,-1,-1.7c-.4,-.5,-.9,-.9,-1.5,-1.1c-.5,-.3,-1.1,-.5,-1.8,-.5c-.7,0,-1.4,.3,-1.9,.7c-.7,.5,-1,1.1,-1,1.9c0,.6,.2,1.2,.6,1.6c.4,.5,.9,.7,1.5,.7c1.3,0,1.9,-.6,1.9,-1.7c0,-.5,-.2,-1,-.5,-1.4c.4,-.1,.7,-.2,.9,-.2c.6,0,1.1,.3,1.5,.9c.4,.6,.6,1.1,.6,1.8c0,.8,-.3,1.6,-1,2.3c-.8,.6,-1.7,1,-2.5,1c-1.8,0,-3.2,-.9,-4.5,-2.8c-.3,-.3,-.6,-1,-1,-1.8c-.4,-.9,-.9,-1.9,-1.4,-3.1l-.7,-.2c1.8,6.5,4.3,9.8,7.5,9.8c1.2,0,2.3,-.5,3.2,-1.3c.4,-.4,.8,-.8,1,-1.4c.3,-.5,.4,-1,.4,-1.6c0,-.7,-.1,-1.3,-.3,-1.9Zm20.3,-4.4L476,134H465c.4,.4,.7,.7,1,.9c.3,.3,.6,.5,.8,.7c.3,.2,.6,.4,1,.5c.3,.2,.7,.4,1.1,.5c.9,.4,1.5,.7,1.8,1c-.6,.4,-1.2,.9,-1.9,1.4c-.6,.5,-1.2,1.1,-1.8,1.6l1.7,2c1.7,.1,3,.5,3.9,1.2c.5,.4,.9,.9,1.2,1.5c.3,.6,.6,1.1,.7,1.6l.8,.9V135.2h1.9Zm-3,9.4c-1.1,-1.7,-2.7,-2.9,-4.6,-3.6c.5,-.5,1.1,-1.1,1.6,-1.6c.4,-.5,.9,-.9,1.3,-1.3c-1.2,-1.5,-2.3,-2.5,-3.1,-2.9h4.8v9.4Zm7.6,-9.4L480.7,134h-1.1c-.4,-.4,-.6,-1,-.8,-1.9l-.4,-.3c0,.2,0,.5,0,.9c.1,.3,.1,.7,.1,1.2c0,.5,.1,.9,.1,1.3c0,.3,0,.6,0,.9c-.2,-.8,-.6,-1.3,-1,-1.6c-.4,-.3,-.9,-.5,-1.6,-.5h-1.4l1.2,1.2c.3,0,.7,.1,1,.2c.3,.1,.6,.3,.8,.5c.3,.2,.5,.4,.6,.7c.2,.3,.2,.7,.2,1v8.9l1.2,1.2V135.2h2.2Zm10,-1.2h-1c.1,-1.1,-.2,-2,-1,-2.5c-.8,-.6,-1.9,-.9,-3.4,-.9c-.9,.1,-1.5,.1,-2.1,.2c-.5,0,-.8,0,-1,0c-.4,0,-.8,-.1,-1.2,-.3c-.4,-.3,-.6,-.6,-.6,-1c0,-.4,.1,-.8,.5,-1q-.1,0,-.2,0c0,0,-.1,0,-.1,0c-.2,-.1,-.4,.1,-.6,.5c-.2,.3,-.3,.6,-.3,.8c0,.8,.4,1.5,1.3,2c.8,.4,1.6,.7,2.5,.7c.2,0,.4,-.1,.7,-.1c.3,0,.7,0,1.1,0c.4,-.1,.7,-.1,1,-.1c.3,0,.5,0,.7,0c.2,0,.4,0,.6,0c.2,0,.4,.1,.5,.1c.5,.2,.8,.4,.8,.7c0,.3,-.2,.5,-.7,.7c-.1,.1,-.3,.1,-.5,.1c-.2,.1,-.3,.1,-.5,.1h-8.1l1.2,1.2h3.8c.6,.4,.8,.7,.8,1c-.7,0,-1.4,.3,-1.9,.8c-.6,.5,-.9,1.1,-.9,1.8c0,.4,.2,.7,.5,.9c.3,.2,.6,.3,1,.3c.5,0,1,-.2,1.5,-.7c.5,-.5,.8,-1,.8,-1.6c.1,0,.2,0,.3,-.1c.1,0,.2,0,.3,0c.3,0,.5,.1,.7,.2c.2,.1,.4,.2,.5,.4c.2,.2,.3,.4,.3,.7c.1,.2,.2,.5,.2,.7c0,.8,-.5,1.5,-1.4,2c-.8,.3,-1.6,.5,-2.5,.4c-1.2,-.1,-2.4,-.4,-3.4,-1l1.5,3c.8,.2,1.7,.5,2.6,.9c.8,.3,1.7,.7,2.5,1.2c.9,.5,1.6,1,2.3,1.5c.7,.6,1.3,1.2,1.9,1.9l-.3,-1.3c-1.1,-1.1,-2.1,-2,-3,-2.8c-.9,-.8,-1.8,-1.4,-2.6,-1.9c1.2,-.3,2.1,-.7,2.7,-1.2c.8,-.6,1.2,-1.5,1.2,-2.4c0,-1,-.3,-1.8,-1,-2.5c-.4,-.5,-1.2,-.9,-2.4,-1.3c-.1,-.2,-.2,-.3,-.4,-.5c-.1,-.1,-.2,-.2,-.3,-.4H493L491.8,134Z" class="gg_286"/>
<g clip-path="url(#c0_286)">
<path d="M1877,177.2H32.1v-5.4H768.7c43.1,0,53,-37.9,115.3,-37.9h993Z" class="gh_286"/>
<path d="M1877,183.7H32.1v-9.8H768.7c43.1,0,53,-33.6,115.3,-33.6h993Z" class="gi_286"/>
</g>
<path d="M131.7,407.8v39l11.7,10.3V412.9Z" class="gj_286"/>
<path d="M131.7,407.8v39H829.5c0,0,16.8,0,16.8,-16.8v-5.4c0,0,0,-16.8,-16.8,-16.8Z" class="g3_286"/>
<path d="M781,441.4c8.2,0,14.8,-6.5,14.8,-14.5c0,-8,-6.6,-14.5,-14.8,-14.5c-8.3,0,-14.9,6.5,-14.9,14.5c0,8,6.6,14.5,14.9,14.5Z" class="gk_286"/>
<path d="M781,441.4c8.2,0,14.8,-6.5,14.8,-14.5c0,-8,-6.6,-14.5,-14.8,-14.5c-8.3,0,-14.9,6.5,-14.9,14.5c0,8,6.6,14.5,14.9,14.5Z" class="gl_286"/>
<path d="M781,432.3c3,0,5.4,-2.4,5.4,-5.4c0,-2.9,-2.4,-5.3,-5.4,-5.3c-3.1,0,-5.5,2.4,-5.5,5.3c0,3,2.4,5.4,5.5,5.4Z" class="g1_286"/>
<path d="M781,432.3c3,0,5.4,-2.4,5.4,-5.4c0,-2.9,-2.4,-5.3,-5.4,-5.3c-3.1,0,-5.5,2.4,-5.5,5.3c0,3,2.4,5.4,5.5,5.4Z" class="gm_286"/>
<g clip-path="url(#ca_286)" opacity="0.3">
<path d="M766.4,426.1c0,0,-.1,-4.8,3.6,-8.6l7.8,6.7c0,0,-1,.9,-1.1,2.7Z" class="g1_286"/>
</g>
<path d="M785.6,426.8c0,0,-3.5,0,-3.5,3.5V439c0,0,0,3.4,3.5,3.4H829c0,0,3.5,0,3.5,-3.4v-8.7c0,0,0,-3.5,-3.5,-3.5Z" class="gn_286"/>
<path d="M169.5,417.9c0,-8.4,-6.7,-15.1,-15,-15.1c-8.4,0,-15.1,6.7,-15.1,15.1c0,8.3,6.8,15,15.1,15c.8,0,1.6,0,2.4,-.2l4.5,5.2v-6.7c4.8,-2.5,8.1,-7.5,8.1,-13.3Z" class="g1_286"/>
<path d="M161.8,439.2l-5.1,-6c-.7,.1,-1.5,.2,-2.2,.2c-8.6,0,-15.6,-7,-15.6,-15.5c0,-8.6,7,-15.5,15.6,-15.5c8.5,0,15.5,6.9,15.5,15.5c0,5.7,-3.1,10.9,-8.2,13.6Zm-4.7,-7l3.8,4.5V431l.3,-.2c4.8,-2.5,7.9,-7.4,7.9,-12.9c0,-8.1,-6.6,-14.6,-14.6,-14.6c-8.1,0,-14.6,6.5,-14.6,14.6c0,8,6.5,14.6,14.6,14.6c.7,0,1.5,-.1,2.3,-.2Z" class="go_286"/>
<path d="M147.4,417.4c.8,0,1.5,.7,1.5,1.5c0,.8,-.7,1.4,-1.5,1.4c-.7,0,-1.4,-.6,-1.4,-1.4c0,-.8,.7,-1.5,1.4,-1.5Z" class="gp_286"/>
<path d="M147.4,420.8c-1,0,-1.8,-.9,-1.8,-1.9c0,-1.1,.8,-1.9,1.8,-1.9c1.1,0,1.9,.8,1.9,1.9c0,1,-.8,1.9,-1.9,1.9m0,-2.9c-.5,0,-.9,.4,-.9,1c0,.5,.4,1,.9,1c.6,0,1,-.5,1,-1c0,-.6,-.4,-1,-1,-1Z" class="go_286"/>
<path d="M154.5,417.4c.8,0,1.4,.7,1.4,1.5c0,.8,-.6,1.4,-1.4,1.4c-.8,0,-1.5,-.6,-1.5,-1.4c0,-.8,.7,-1.5,1.5,-1.5Z" class="gp_286"/>
<path d="M154.5,420.8c-1.1,0,-1.9,-.9,-1.9,-1.9c0,-1.1,.8,-1.9,1.9,-1.9c1,0,1.9,.8,1.9,1.9c0,1,-.9,1.9,-1.9,1.9m0,-2.9c-.6,0,-1,.4,-1,1c0,.5,.4,1,1,1c.5,0,.9,-.5,.9,-1c0,-.6,-.4,-1,-.9,-1Z" class="go_286"/>
<path d="M161.5,417.4c.8,0,1.4,.7,1.4,1.5c0,.8,-.6,1.4,-1.4,1.4c-.8,0,-1.5,-.6,-1.5,-1.4c0,-.8,.7,-1.5,1.5,-1.5Z" class="gp_286"/>
<path d="M161.5,420.8c-1.1,0,-1.9,-.9,-1.9,-1.9c0,-1.1,.8,-1.9,1.9,-1.9c1,0,1.9,.8,1.9,1.9c0,1,-.9,1.9,-1.9,1.9m0,-2.9c-.6,0,-1,.4,-1,1c0,.5,.4,1,1,1c.5,0,1,-.5,1,-1c0,-.6,-.5,-1,-1,-1Z" class="go_286"/>
<path d="M163.4,432.1c0,-9.7,7.9,-17.6,17.6,-17.6c9.7,0,17.6,7.9,17.6,17.6c0,9.7,-7.9,17.6,-17.6,17.6c-.9,0,-1.9,-.1,-2.8,-.2l-5.3,6.1v-7.8c-5.6,-3,-9.5,-8.9,-9.5,-15.7Z" class="gq_286"/>
<path d="M172.9,456.1c0,0,-.1,-.1,-.1,-.1c-.2,0,-.3,-.2,-.3,-.4V448c-5.9,-3.1,-9.6,-9.2,-9.6,-15.9c0,-10,8.2,-18.1,18.1,-18.1c10,0,18.1,8.1,18.1,18.1c0,10,-8.1,18.1,-18.1,18.1c-.8,0,-1.7,-.1,-2.6,-.2l-5.1,5.9c-.1,.1,-.2,.2,-.4,.2M181,414.9c-9.4,0,-17.1,7.7,-17.1,17.2c0,6.5,3.5,12.3,9.2,15.2c.2,.1,.3,.3,.3,.5v6.6l4.4,-5.2c.1,-.1,.3,-.2,.5,-.2c.9,.2,1.8,.3,2.7,.3c9.5,0,17.2,-7.7,17.2,-17.2c0,-9.5,-7.7,-17.2,-17.2,-17.2Z" class="go_286"/>
<path d="M189.2,431.6c.9,0,1.7,.8,1.7,1.7c0,.9,-.8,1.7,-1.7,1.7c-.9,0,-1.7,-.8,-1.7,-1.7c0,-.9,.8,-1.7,1.7,-1.7Z" class="g1_286"/>
<path d="M189.2,435.4c-1.2,0,-2.1,-.9,-2.1,-2.1c0,-1.2,.9,-2.1,2.1,-2.1c1.2,0,2.1,.9,2.1,2.1c0,1.2,-.9,2.1,-2.1,2.1m0,-3.3c-.7,0,-1.2,.5,-1.2,1.2c0,.7,.5,1.2,1.2,1.2c.7,0,1.2,-.5,1.2,-1.2c0,-.7,-.5,-1.2,-1.2,-1.2Z" class="go_286"/>
<path d="M181,431.6c.9,0,1.7,.8,1.7,1.7c0,.9,-.8,1.7,-1.7,1.7c-.9,0,-1.7,-.8,-1.7,-1.7c0,-.9,.8,-1.7,1.7,-1.7Z" class="g1_286"/>
<path d="M181,435.4c-1.2,0,-2.1,-.9,-2.1,-2.1c0,-1.2,.9,-2.1,2.1,-2.1c1.2,0,2.1,.9,2.1,2.1c0,1.2,-.9,2.1,-2.1,2.1m0,-3.3c-.7,0,-1.2,.5,-1.2,1.2c0,.7,.5,1.2,1.2,1.2c.7,0,1.2,-.5,1.2,-1.2c0,-.7,-.5,-1.2,-1.2,-1.2Z" class="go_286"/>
<path d="M172.8,431.6c.9,0,1.7,.8,1.7,1.7c0,.9,-.8,1.7,-1.7,1.7c-.9,0,-1.7,-.8,-1.7,-1.7c0,-.9,.8,-1.7,1.7,-1.7Z" class="g1_286"/>
<path d="M172.8,435.4c-1.2,0,-2.1,-.9,-2.1,-2.1c0,-1.2,.9,-2.1,2.1,-2.1c1.2,0,2.1,.9,2.1,2.1c0,1.2,-.9,2.1,-2.1,2.1m0,-3.3c-.7,0,-1.2,.5,-1.2,1.2c0,.7,.5,1.2,1.2,1.2c.7,0,1.2,-.5,1.2,-1.2c0,-.7,-.5,-1.2,-1.2,-1.2Z" class="go_286"/>
<image clip-path="url(#cb_286)" preserveAspectRatio="none" x="125" y="206" width="734" height="181" xlink:href="img/6.png"/>
<path d="M144.6,231.3c0,0,-13,0,-13,13v117c0,0,0,13,13,13H833.1c0,0,13,0,13,-13v-130Z" class="gr_286"/>
<path d="M147.7,294.1l54.1,40.8l54.1,-40.8V230h8.7V211.9H155.8c-6.5,.4,-7.7,3.9,-8.2,8.4Z" class="gs_286"/>
<path d="M274,220.3c-.3,-4.7,-4.2,-8.4,-9,-8.4c-4.8,0,-8.7,3.7,-9,8.4h-.1V230h18.2v-9.7Z" class="gn_286"/>
<path d="M255.9,230.6H846.1" class="gt_286"/>
<path d="M32.1,45.1H9.2m958.3,0h22.9M32.1,1331.3H9.2m958.3,0h22.9M45.1,32.1V9.2m0,1335.1v22.9M954.5,32.1V9.2m0,1335.1v22.9" class="gu_286"/>
<path d="M32.1,45.1H9.2m958.3,0h22.9M32.1,1331.3H9.2m958.3,0h22.9M45.1,32.1V9.2m0,1335.1v22.9M954.5,32.1V9.2m0,1335.1v22.9" class="gv_286"/>
<path d="M27.5,32.1H0m972.1,0h27.5M27.5,1344.3H0m972.1,0h27.5M32.1,27.5V0m0,1348.9v27.5M967.5,27.5V0m0,1348.9v27.5" class="gu_286"/>
<path d="M27.5,32.1H0m972.1,0h27.5M27.5,1344.3H0m972.1,0h27.5M32.1,27.5V0m0,1348.9v27.5M967.5,27.5V0m0,1348.9v27.5" class="gv_286"/>
</svg>