<?xml version="1.0" encoding="UTF-8" standalone="no"?>
<!DOCTYPE svg PUBLIC "-//W3C//DTD SVG 1.1//EN"
"http://www.w3.org/Graphics/SVG/1.1/DTD/svg11.dtd">
<svg viewBox="0 0 999 1376" version="1.1" xmlns="http://www.w3.org/2000/svg" xmlns:xlink="http://www.w3.org/1999/xlink">
<defs>
<clipPath id="c0_183"><path d="M32.1,1344.3V32.1H967.5V1344.3Z"/></clipPath>
<clipPath id="c1_183"><path d="M207.6,844l-6.5,-2.1l-16.4,-14V770.8h72V844Z"/></clipPath>
<clipPath id="c2_183"><path d="M200.1,137.2c.1,-1.3,.7,-2.5,1.6,-3.4c1,-1,2.3,-1.6,3.9,-1.6h19.2v5Z"/></clipPath>
<clipPath id="c3_183"><path d="M199.5,137.7v-6h25.8v6Z"/></clipPath>
<style type="text/css"><![CDATA[
.g0_183{
fill: #FEFCF4;
}
.g1_183{
fill: #FCE8B0;
}
.g2_183{
fill: #FFF;
}
.g3_183{
fill: none;
stroke: #6381B7;
stroke-width: 0.763;
}
.g4_183{
fill: none;
stroke: #231F20;
stroke-width: 0.305;
stroke-miterlimit: 10;
}
.g5_183{
fill: #F0E8F3;
}
.g6_183{
fill: #6381B7;
}
.g7_183{
fill: none;
stroke: #6381B7;
stroke-width: 0.381;
stroke-dasharray: 2,1;
}
.g8_183{
fill: none;
stroke: #6381B7;
stroke-width: 0.381;
}
.g9_183{
fill: #DCE9F3;
}
.ga_183{
fill: #9BD1EA;
}
.gb_183{
fill: none;
stroke: #58595B;
stroke-width: 0.381;
stroke-miterlimit: 10;
}
.gc_183{
fill: #25408F;
}
.gd_183{
fill: none;
stroke: #231F20;
stroke-width: 1.527;
}
.ge_183{
fill: #39B4D1;
stroke: #2D2A4A;
stroke-width: 1.038;
stroke-linecap: round;
stroke-linejoin: round;
}
.gf_183{
fill: #2D2A4A;
}
.gg_183{
fill: none;
stroke: #2D2A4A;
stroke-width: 1.038;
stroke-linecap: round;
stroke-linejoin: round;
}
.gh_183{
fill: #DEDAD3;
}
.gi_183{
fill: #29263F;
}
.gj_183{
fill: #E15F46;
stroke: #2D2A4A;
stroke-width: 1.038;
stroke-linecap: round;
stroke-linejoin: round;
}
.gk_183{
fill: none;
stroke: #FFF;
stroke-width: 1.909;
stroke-miterlimit: 10;
}
.gl_183{
fill: none;
stroke: #000;
stroke-width: 0.381;
stroke-miterlimit: 10;
}
]]></style>
</defs>
<path clip-path="url(#c0_183)" d="M-877.3,1344.3H45.1V32.1H-877.3V1344.3Z" class="g0_183"/>
<path d="M240.2,799c0,0,-13,0,-13,13v21.6c0,0,0,13,13,13H854.9c0,0,13,0,13,-13V812c0,0,0,-13,-13,-13Z" class="g1_183"/>
<image clip-path="url(#c1_183)" preserveAspectRatio="none" x="183" y="769" width="75" height="77" xlink:href="img/1.png"/>
<path d="M235,839.3c0,0,-26.8,11.3,-51.1,-12.8c0,0,15.2,25.3,49.3,24c0,0,24.8,.3,20.3,-10.2c0,0,1.2,-4.4,-18.5,-1Z" class="g1_183"/>
<path d="M166.5,858.8c0,0,-13,0,-13,13v309.7c0,0,0,13,13,13h688c0,0,13,0,13,-13V871.8c0,0,0,-13,-13,-13Z" class="g2_183"/>
<path d="M166.5,858.8c0,0,-13,0,-13,13v309.7c0,0,0,13,13,13h688c0,0,13,0,13,-13V871.8c0,0,0,-13,-13,-13h-688Z" class="g3_183"/>
<path d="M288.1,986.2H619m-330.9,89.7H619m-270.6,89.7H619.1" class="g4_183"/>
<path d="M227.8,919.9c0,0,-13,0,-13,13v8.6c0,0,0,13,13,13H340.4c0,0,13,0,13,-13v-8.6c0,0,0,-13,-13,-13Z" class="g5_183"/>
<path d="M391.2,919.9c0,0,-13,0,-13,13v8.6c0,0,0,13,13,13H516.8c0,0,13,0,13,-13v-8.6c0,0,0,-13,-13,-13Z" class="g5_183"/>
<path d="M227.8,1009.6c0,0,-13,0,-13,13v8.6c0,0,0,13,13,13H340.4c0,0,13,0,13,-13v-8.6c0,0,0,-13,-13,-13Z" class="g5_183"/>
<path d="M391.2,1009.6c0,0,-13,0,-13,13v8.6c0,0,0,13,13,13H516.8c0,0,13,0,13,-13v-8.6c0,0,0,-13,-13,-13Z" class="g5_183"/>
<path d="M227.8,1099.3c0,0,-13,0,-13,13v8.7c0,0,0,12.9,13,12.9H340.4c0,0,13,0,13,-12.9v-8.7c0,0,0,-13,-13,-13Z" class="g5_183"/>
<path d="M391.2,1099.3c0,0,-13,0,-13,13v8.7c0,0,0,12.9,13,12.9H516.8c0,0,13,0,13,-12.9v-8.7c0,0,0,-13,-13,-13Z" class="g5_183"/>
<path d="M344.3,1216.1c0,0,-4.4,0,-4.4,4.4v10.8c0,0,0,4.3,4.4,4.3h30.3c0,0,4.3,0,4.3,-4.3v-10.8c0,0,0,-4.4,-4.3,-4.4Z" class="g6_183"/>
<path d="M331.1,1208.7v34.8m1.3,1H866.8m.9,-1.4v-34.8m-1.3,-1H332" class="g7_183"/>
<path d="M331.1,1243.9v.6h.6m535.4,0h.6v-.6m0,-36v-.6h-.6m-535.4,0h-.6v.6" class="g8_183"/>
<path d="M170.7,166.3c0,0,-17.4,0,-17.4,17.4V612.5c0,0,0,17.3,17.4,17.3H850.6c0,0,17.3,0,17.3,-17.3V183.7c0,0,0,-17.4,-17.3,-17.4Z" class="g9_183"/>
<path d="M224.8,216.8H406.7v25H224.8v-25Zm181.9,0H623.2v25H406.7v-25Zm216.5,0H805.1v25H623.2v-25Z" class="ga_183"/>
<path d="M224.8,241.8H406.7v57.3H224.8V241.8Zm181.9,0H623.2v57.3H406.7V241.8Zm216.5,0H805.1v57.3H623.2V241.8Z" class="g2_183"/>
<path d="M224.8,216.8H406.7m0,0H623.2M406.7,241.6V217m216.5,-.2H805.1M623.2,241.6V217M224.8,241.8H406.7m0,0H623.2M406.7,298.9V242m216.5,-.2H805.1M623.2,298.9V242M224.8,299.1H406.7m0,0H623.2m0,0H805.1" class="gb_183"/>
<path d="M153.3,109.5v39L165,158.7V136.5Z" class="gc_183"/>
<path d="M153.3,109.5v39H851.1c0,0,16.8,0,16.8,-16.8v-5.4c0,0,0,-16.8,-16.8,-16.8Z" class="g6_183"/>
<path d="M790.4,131c0,0,-.5,-10,8.6,-9.4c0,0,6.8,-.3,6.7,9.5m-15.3,-1.5v6.5c0,0,-3.4,.3,-3.9,-3c0,0,-.1,-3.8,3.9,-3.5Zm15.3,0v6.5c0,0,3.4,.3,4,-3c0,0,0,-3.8,-4,-3.5Z" class="gd_183"/>
<path d="M169,140.8h61v-32H169v32Z" class="ge_183"/>
<path d="M169,143.1h61v-2.3H169v2.3Z" class="ge_183"/>
<path d="M193.5,106.2H173.8v31.5h25.7V112.3c0,-3.4,-2.7,-6.1,-6,-6.1Z" class="g2_183"/>
<path d="M193.5,106.2v-.5H173.8c-.2,0,-.3,.1,-.4,.2c-.1,.1,-.2,.2,-.2,.3v31.5c0,.1,.1,.3,.2,.4c.1,.1,.2,.1,.4,.1h25.7c.2,0,.3,0,.4,-.1c.1,-.1,.1,-.3,.1,-.4V112.3c0,-3.7,-2.9,-6.6,-6.5,-6.6v1c1.5,0,2.9,.7,3.9,1.7c1,1,1.6,2.3,1.6,3.9v24.9H174.3V106.7h19.2Z" class="gf_183"/>
<path d="M173.8,131.7v6h25.7c0,-3.3,-2.7,-6,-6,-6Z" class="g2_183"/>
<path d="M173.8,131.7h-.6v6c0,.1,.1,.3,.2,.4c.1,.1,.2,.1,.4,.1h25.7c.2,0,.3,0,.4,-.1c.1,-.1,.1,-.3,.1,-.4c0,-3.6,-2.9,-6.6,-6.5,-6.6H173.8c-.2,0,-.3,.1,-.4,.2c-.1,.1,-.2,.2,-.2,.4h.6v.5h19.7c1.5,0,2.9,.6,3.9,1.6c1,1,1.6,2.4,1.6,3.9h.5v-.5H174.3v-5.5h-.5v.5Z" class="gf_183"/>
<path d="M177.3,110.9h17.2m-17.2,2.8h17.2m-17.2,2.9h17.2m-17.2,2.9h17.2m-17.2,2.8h17.2m-17.2,2.9h17.2M177.3,128h17.2" class="gg_183"/>
<path d="M193.5,132.2H174.3v5H199c-.1,-1.3,-.7,-2.5,-1.6,-3.4c-1,-1,-2.4,-1.6,-3.9,-1.6Z" class="gh_183"/>
<path d="M174.3,132.2h19.2c1.5,0,2.9,.6,3.9,1.6c.9,.9,1.5,2.1,1.6,3.4H174.3Zm19.2,-.5H173.8v6H199v-2.5c-.9,-2.1,-3.1,-3.5,-5.5,-3.5Z" class="gi_183"/>
<path d="M205.6,106.2h19.7v31.5H199.5V112.3c0,-3.4,2.7,-6.1,6.1,-6.1Z" class="g2_183"/>
<path d="M205.6,106.2v.5h19.2v30.5H200V112.3c0,-1.6,.7,-2.9,1.7,-3.9c1,-1,2.3,-1.7,3.9,-1.7v-1c-3.7,0,-6.6,2.9,-6.6,6.6v25.4c0,.1,.1,.3,.2,.4c0,.1,.2,.1,.3,.1h25.8c.1,0,.2,0,.3,-.1c.1,-.1,.2,-.3,.2,-.4V106.2c0,-.1,-.1,-.2,-.2,-.3c-.1,-.1,-.2,-.2,-.3,-.2H205.6Z" class="gf_183"/>
<path d="M225.3,131.7v6H199.5c0,-3.3,2.7,-6,6.1,-6Z" class="g2_183"/>
<path d="M225.3,131.7h-.5v5.5H199.5v.5h.5c0,-1.5,.7,-2.9,1.7,-3.9c1,-1,2.3,-1.6,3.9,-1.6h19.7v-.5h-.5h.5v-.6H205.6c-3.7,0,-6.6,3,-6.6,6.6c0,.1,.1,.3,.2,.4c0,.1,.2,.1,.3,.1h25.8c.1,0,.2,0,.3,-.1c.1,-.1,.2,-.3,.2,-.4v-6c0,-.2,-.1,-.3,-.2,-.4c-.1,-.1,-.2,-.2,-.3,-.2Z" class="gf_183"/>
<path d="M221.8,110.9H204.6m17.2,2.8H204.6m17.2,2.9H204.6m17.2,2.9H204.6m17.2,2.8H204.6m17.2,2.9H204.6m17.2,2.8H204.6" class="gg_183"/>
<path clip-path="url(#c2_183)" d="M200.1,137.2h24.7v-5H200.1v5Z" class="gh_183"/>
<path clip-path="url(#c3_183)" d="M200.1,137.2c.1,-1.3,.7,-2.5,1.6,-3.4c1,-1,2.3,-1.6,3.9,-1.6h19.2v5Zm25.2,-5.5H205.6c-3.4,0,-6.1,2.7,-6.1,6h25.8v-6h-.5h.5Z" class="gi_183"/>
<path d="M199.5,108.8v34.3" class="gg_183"/>
<path d="M217.2,145.5h3.3V134.7h-3.3v10.8Z" class="gj_183"/>
<path d="M32.1,45.1H9.2m958.3,0h22.9M32.1,1331.3H9.2m958.3,0h22.9M45.1,32.1V9.2m0,1335.1v22.9M954.5,32.1V9.2m0,1335.1v22.9" class="gk_183"/>
<path d="M32.1,45.1H9.2m958.3,0h22.9M32.1,1331.3H9.2m958.3,0h22.9M45.1,32.1V9.2m0,1335.1v22.9M954.5,32.1V9.2m0,1335.1v22.9" class="gl_183"/>
<path d="M27.5,32.1H0m972.1,0h27.5M27.5,1344.3H0m972.1,0h27.5M32.1,27.5V0m0,1348.9v27.5M967.5,27.5V0m0,1348.9v27.5" class="gk_183"/>
<path d="M27.5,32.1H0m972.1,0h27.5M27.5,1344.3H0m972.1,0h27.5M32.1,27.5V0m0,1348.9v27.5M967.5,27.5V0m0,1348.9v27.5" class="gl_183"/>
</svg>