<?xml version="1.0" encoding="UTF-8" standalone="no"?>
<!DOCTYPE svg PUBLIC "-//W3C//DTD SVG 1.1//EN"
"http://www.w3.org/Graphics/SVG/1.1/DTD/svg11.dtd">
<svg viewBox="0 0 999 1376" version="1.1" xmlns="http://www.w3.org/2000/svg" xmlns:xlink="http://www.w3.org/1999/xlink">
<defs>
<clipPath id="c0_59"><path d="M32.1,1344.3V32.1H967.5V1344.3Z"/></clipPath>
<clipPath id="c1_59"><path d="M217.5,612.1V512.8h99.3v99.3Z"/></clipPath>
<clipPath id="c2_59"><path d="M381.1,612.1V512.8h99.3v99.3Z"/></clipPath>
<clipPath id="c3_59"><path d="M544.7,612.1V512.8H644v99.3Z"/></clipPath>
<clipPath id="c4_59"><path d="M708.4,612.1V512.8h99.2v99.3Z"/></clipPath>
<clipPath id="c5_59"><path d="M217.8,1050.8V993.4h57.9v57.4Z"/></clipPath>
<clipPath id="c6_59"><path d="M342.7,1054V989.3h57.9V1054Z"/></clipPath>
<clipPath id="c7_59"><path d="M476.7,1054.3V989.6h57.9v64.7Z"/></clipPath>
<clipPath id="c8_59"><path d="M606.1,1056.2V991.5H664v64.7Z"/></clipPath>
<clipPath id="c9_59"><path d="M731.7,1051.2V992.9h61.2v58.3Z"/></clipPath>
<clipPath id="ca_59"><path d="M698,807V765h42v42Z"/></clipPath>
<clipPath id="cb_59"><path d="M740,807V765l23.1,-13.3v40.6L740,807Z"/></clipPath>
<clipPath id="cc_59"><path d="M698,807L674.9,792.3V751.7L698,765v42Z"/></clipPath>
<clipPath id="cd_59"><path d="M199.7,330.4l-6.5,-2.1L176.8,314.4V257.3h72v73.1Z"/></clipPath>
<clipPath id="ce_59"><path d="M198.7,921l-6.5,-2.1L175.8,905V847.9h72V921Z"/></clipPath>
<clipPath id="cf_59"><path d="M658.6,177V59h200V177Z"/></clipPath>
<style type="text/css"><![CDATA[
.g0_59{
fill: #FEFCF4;
}
.g1_59{
fill: #FFF;
}
.g2_59{
fill: none;
stroke: #6381B7;
stroke-width: 0.763;
}
.g3_59{
fill: none;
stroke: #949698;
stroke-width: 0.381;
}
.g4_59{
fill: #93BEDA;
}
.g5_59{
fill: #EFE9CC;
}
.g6_59{
fill: #6381B7;
}
.g7_59{
fill: none;
stroke: #6381B7;
stroke-width: 0.381;
stroke-dasharray: 2,1;
}
.g8_59{
fill: none;
stroke: #6381B7;
stroke-width: 0.381;
}
.g9_59{
fill: #F59595;
}
.ga_59{
fill: none;
stroke: #030303;
stroke-width: 1.24;
stroke-linecap: round;
stroke-linejoin: round;
}
.gb_59{
fill: #F69D9B;
}
.gc_59{
fill: #F9BEBC;
}
.gd_59{
fill: #030303;
}
.ge_59{
fill: #F15E51;
}
.gf_59{
fill: #B5483D;
}
.gg_59{
fill: #FBD5D0;
}
.gh_59{
fill: #FBD5D0;
stroke: #030303;
stroke-width: 1.24;
stroke-linecap: round;
stroke-linejoin: round;
}
.gi_59{
fill: #F0C769;
}
.gj_59{
fill: none;
stroke: #030303;
stroke-width: 1.24;
stroke-linecap: square;
stroke-linejoin: round;
}
.gk_59{
fill: #F3F1EC;
}
.gl_59{
fill: #DE4854;
}
.gm_59{
fill: none;
stroke: #14120B;
stroke-width: 1.24;
stroke-linecap: round;
stroke-linejoin: round;
}
.gn_59{
fill: #A53740;
}
.go_59{
fill: #A9ACCF;
}
.gp_59{
fill: #B19654;
}
.gq_59{
fill: #FCE8B0;
}
.gr_59{
fill: #25408F;
}
.gs_59{
fill: #00BAF1;
}
.gt_59{
fill: #332D2C;
}
.gu_59{
fill: #D9DFF0;
}
.gv_59{
fill: #F27C85;
}
.gw_59{
fill: #7DD3F6;
}
.gx_59{
fill: #2E6E51;
}
.gy_59{
fill: #BCBEC0;
}
.gz_59{
fill: #EE314A;
}
.g10_59{
fill: none;
stroke: #FFF;
stroke-width: 1.909;
stroke-miterlimit: 10;
}
.g11_59{
fill: none;
stroke: #000;
stroke-width: 0.381;
stroke-miterlimit: 10;
}
]]></style>
</defs>
<path clip-path="url(#c0_59)" d="M-877.3,1344.3H45.1V32.1H-877.3V1344.3Z" class="g0_59"/>
<path d="M45.1,1344.3H967.5V32.1H45.1V1344.3Z" class="g0_59"/>
<path d="M173.1,227.3c0,0,-18.4,0,-18.4,18.4V812.4c0,0,0,18.3,18.4,18.3H850.2c0,0,18.3,0,18.3,-18.3V227.3Z" class="g1_59"/>
<path d="M173.1,227.3c0,0,-18.4,0,-18.4,18.4V812.4c0,0,0,18.3,18.4,18.3H850.2c0,0,18.3,0,18.3,-18.3V227.3H173.1Z" class="g2_59"/>
<path d="M206.9,451.7H327.4V352.5H206.9v99.2Z" class="g1_59"/>
<image preserveAspectRatio="none" x="218" y="353" width="99" height="85" xlink:href="img/1.jpg"/>
<path d="M206.9,451.7H327.4V352.5H206.9v99.2Z" class="g3_59"/>
<path d="M534.1,451.7H654.6V352.5H534.1v99.2Z" class="g1_59"/>
<image preserveAspectRatio="none" x="545" y="352" width="99" height="100" xlink:href="img/2.png"/>
<path d="M534.1,451.7H654.6V352.5H534.1v99.2Z" class="g3_59"/>
<path d="M370.5,451.7H491V352.5H370.5v99.2Z" class="g1_59"/>
<image preserveAspectRatio="none" x="381" y="353" width="99" height="85" xlink:href="img/3.jpg"/>
<path d="M370.5,451.7H491V352.5H370.5v99.2Z" class="g3_59"/>
<path d="M697.7,451.7H818.2V352.5H697.7v99.2Z" class="g1_59"/>
<image preserveAspectRatio="none" x="708" y="352" width="100" height="100" xlink:href="img/4.jpg"/>
<path d="M697.7,451.7H818.2V352.5H697.7v99.2Z" class="g3_59"/>
<path d="M206.9,612.1H327.4V512.8H206.9v99.3Z" class="g1_59"/>
<image clip-path="url(#c1_59)" preserveAspectRatio="none" x="218" y="513" width="99" height="99" xlink:href="img/5.jpg"/>
<path d="M206.9,612.1H327.4V512.8H206.9v99.3Z" class="g3_59"/>
<path d="M370.5,612.1H491V512.8H370.5v99.3Z" class="g1_59"/>
<image clip-path="url(#c2_59)" preserveAspectRatio="none" x="381" y="513" width="99" height="99" xlink:href="img/6.jpg"/>
<path d="M370.5,612.1H491V512.8H370.5v99.3Z" class="g3_59"/>
<path d="M534.1,612.1H654.6V512.8H534.1v99.3Z" class="g1_59"/>
<image clip-path="url(#c3_59)" preserveAspectRatio="none" x="545" y="513" width="99" height="99" xlink:href="img/7.jpg"/>
<path d="M534.1,612.1H654.6V512.8H534.1v99.3Z" class="g3_59"/>
<path d="M697.7,612.1H818.2V512.8H697.7v99.3Z" class="g1_59"/>
<image clip-path="url(#c4_59)" preserveAspectRatio="none" x="708" y="513" width="100" height="99" xlink:href="img/8.jpg"/>
<path d="M697.7,612.1H818.2V512.8H697.7v99.3Z" class="g3_59"/>
<path d="M206.9,763.8H327.4V664.5H206.9v99.3Z" class="g1_59"/>
<image preserveAspectRatio="none" x="218" y="672" width="99" height="85" xlink:href="img/9.jpg"/>
<path d="M206.9,763.8H327.4V664.5H206.9v99.3Z" class="g3_59"/>
<path d="M370.5,763.8H491V664.5H370.5v99.3Z" class="g1_59"/>
<image preserveAspectRatio="none" x="381" y="672" width="99" height="85" xlink:href="img/10.jpg"/>
<path d="M370.5,763.8H491V664.5H370.5v99.3Z" class="g3_59"/>
<path d="M166.7,933.1c0,0,-13,0,-13,13v241.7c0,0,0,13,13,13H854.5c0,0,13,0,13,-13V946.1c0,0,0,-13,-13,-13Z" class="g1_59"/>
<path d="M166.7,933.1c0,0,-13,0,-13,13v241.7c0,0,0,13,13,13H854.5c0,0,13,0,13,-13V946.1c0,0,0,-13,-13,-13H166.7Z" class="g2_59"/>
<image clip-path="url(#c5_59)" preserveAspectRatio="none" x="218" y="986" width="58" height="65" xlink:href="img/11.jpg"/>
<image clip-path="url(#c6_59)" preserveAspectRatio="none" x="341" y="989" width="60" height="65" xlink:href="img/12.jpg"/>
<image clip-path="url(#c7_59)" preserveAspectRatio="none" x="475" y="990" width="60" height="64" xlink:href="img/13.jpg"/>
<image clip-path="url(#c8_59)" preserveAspectRatio="none" x="605" y="992" width="59" height="64" xlink:href="img/14.jpg"/>
<image clip-path="url(#c9_59)" preserveAspectRatio="none" x="730" y="993" width="63" height="58" xlink:href="img/15.jpg"/>
<path d="M633.2,1143.1c2,0,3.6,-1.7,3.6,-3.6c0,-2,-1.6,-3.7,-3.6,-3.7c-2,0,-3.6,1.7,-3.6,3.7c0,1.9,1.6,3.6,3.6,3.6Z" class="g4_59"/>
<path d="M633.2,1076.2c2,0,3.6,-1.6,3.6,-3.6c0,-2,-1.6,-3.6,-3.6,-3.6c-2,0,-3.6,1.6,-3.6,3.6c0,2,1.6,3.6,3.6,3.6Z" class="g4_59"/>
<path d="M503.8,1143.1c2,0,3.6,-1.7,3.6,-3.6c0,-2,-1.6,-3.7,-3.6,-3.7c-2,0,-3.6,1.7,-3.6,3.7c0,1.9,1.6,3.6,3.6,3.6Z" class="g4_59"/>
<path d="M503.8,1076.2c2,0,3.6,-1.6,3.6,-3.6c0,-2,-1.6,-3.6,-3.6,-3.6c-2,0,-3.6,1.6,-3.6,3.6c0,2,1.6,3.6,3.6,3.6Z" class="g4_59"/>
<path d="M374.3,1143.1c2,0,3.6,-1.7,3.6,-3.6c0,-2,-1.6,-3.7,-3.6,-3.7c-2,0,-3.6,1.7,-3.6,3.7c0,1.9,1.6,3.6,3.6,3.6Z" class="g4_59"/>
<path d="M374.3,1076.2c2,0,3.6,-1.6,3.6,-3.6c0,-2,-1.6,-3.6,-3.6,-3.6c-2,0,-3.6,1.6,-3.6,3.6c0,2,1.6,3.6,3.6,3.6Z" class="g4_59"/>
<path d="M762.7,1143.1c1.9,0,3.6,-1.7,3.6,-3.6c0,-2,-1.7,-3.7,-3.6,-3.7c-2,0,-3.7,1.7,-3.7,3.7c0,1.9,1.7,3.6,3.7,3.6Z" class="g4_59"/>
<path d="M762.7,1076.2c1.9,0,3.6,-1.6,3.6,-3.6c0,-2,-1.7,-3.6,-3.6,-3.6c-2,0,-3.7,1.6,-3.7,3.6c0,2,1.7,3.6,3.7,3.6Z" class="g4_59"/>
<path d="M244.9,1143.1c2,0,3.6,-1.7,3.6,-3.6c0,-2,-1.6,-3.7,-3.6,-3.7c-2,0,-3.6,1.7,-3.6,3.7c0,1.9,1.6,3.6,3.6,3.6Z" class="g4_59"/>
<path d="M244.9,1076.2c2,0,3.6,-1.6,3.6,-3.6c0,-2,-1.6,-3.6,-3.6,-3.6c-2,0,-3.6,1.6,-3.6,3.6c0,2,1.6,3.6,3.6,3.6Z" class="g4_59"/>
<path d="M206.8,1154.7c0,0,-8.7,0,-8.7,8.6v15.2c0,0,0,8.6,8.7,8.6H289c0,0,8.7,0,8.7,-8.6v-15.2c0,0,0,-8.6,-8.7,-8.6Z" class="g5_59"/>
<path d="M337,1154.7c0,0,-8.6,0,-8.6,8.6v15.2c0,0,0,8.6,8.6,8.6h82.3c0,0,8.7,0,8.7,-8.6v-15.2c0,0,0,-8.6,-8.7,-8.6Z" class="g5_59"/>
<path d="M467.3,1154.7c0,0,-8.6,0,-8.6,8.6v15.2c0,0,0,8.6,8.6,8.6h82.3c0,0,8.7,0,8.7,-8.6v-15.2c0,0,0,-8.6,-8.7,-8.6Z" class="g5_59"/>
<path d="M597.6,1154.7c0,0,-8.7,0,-8.7,8.6v15.2c0,0,0,8.6,8.7,8.6h82.3c0,0,8.6,0,8.6,-8.6v-15.2c0,0,0,-8.6,-8.6,-8.6Z" class="g5_59"/>
<path d="M727.9,1154.7c0,0,-8.7,0,-8.7,8.6v15.2c0,0,0,8.6,8.7,8.6h82.3c0,0,8.6,0,8.6,-8.6v-15.2c0,0,0,-8.6,-8.6,-8.6Z" class="g5_59"/>
<path d="M622.4,1216.2c0,0,-4.3,0,-4.3,4.3v10.8c0,0,0,4.3,4.3,4.3h30.3c0,0,4.4,0,4.4,-4.3v-10.8c0,0,0,-4.3,-4.4,-4.3Z" class="g6_59"/>
<path d="M609.3,1208.7v34.8m1.3,1H867.8m.9,-1.4v-34.8m-1.3,-1H610.2" class="g7_59"/>
<path d="M609.3,1243.9v.6h.5m258.3,0h.6v-.6m0,-36v-.6h-.6m-258.3,0h-.5v.6" class="g8_59"/>
<path d="M604.6,807.9H826v-100H604.6v100Z" class="g1_59"/>
<path d="M742.6,722.6h-48l-23.9,14.2L695.3,751h46.5l24.7,-14.2Z" class="g9_59"/>
<path d="M742.6,722.6h-48l-23.9,14.2L695.3,751h46.5l24.7,-14.2L742.6,722.6Z" class="ga_59"/>
<path d="M698,807h42V765H698v42Z" class="gb_59"/>
<path d="M698,807h42V765H698v42Z" class="ga_59"/>
<path d="M674.9,792.3L698,807V765L674.9,751.7Z" class="gb_59"/>
<path d="M698,765L674.9,751.7v40.6L698,807V765Z" class="ga_59"/>
<path d="M703.9,766.7c-.4,0,-.8,.2,-1,.5c-.2,-.3,-.5,-.5,-.9,-.5c-.7,0,-1.1,.5,-1.1,1.1c0,1.4,2,2.4,2,2.4c0,0,2.1,-1,2.1,-2.4c0,-.6,-.5,-1.1,-1.1,-1.1Z" class="gc_59"/>
<path d="M711.9,766.7c-.4,0,-.7,.2,-.9,.5c-.2,-.3,-.6,-.5,-1,-.5c-.6,0,-1.1,.5,-1.1,1.1c0,1.4,2.1,2.4,2.1,2.4c0,0,2,-1,2,-2.4c0,-.6,-.5,-1.1,-1.1,-1.1Z" class="gc_59"/>
<path d="M720,766.7c-.4,0,-.8,.2,-1,.5c-.2,-.3,-.5,-.5,-.9,-.5c-.7,0,-1.1,.5,-1.1,1.1c0,1.4,2,2.4,2,2.4c0,0,2.1,-1,2.1,-2.4c0,-.6,-.5,-1.1,-1.1,-1.1Z" class="gc_59"/>
<path d="M728,766.7c-.4,0,-.7,.2,-.9,.5c-.2,-.3,-.6,-.5,-1,-.5c-.6,0,-1.1,.5,-1.1,1.1c0,1.4,2.1,2.4,2.1,2.4c0,0,2,-1,2,-2.4c0,-.6,-.5,-1.1,-1.1,-1.1Z" class="gc_59"/>
<path d="M736.1,766.7c-.4,0,-.8,.2,-1,.5c-.2,-.3,-.5,-.5,-.9,-.5c-.7,0,-1.2,.5,-1.2,1.1c0,1.4,2.1,2.4,2.1,2.4c0,0,2.1,-1,2.1,-2.4c0,-.6,-.5,-1.1,-1.1,-1.1Z" class="gc_59"/>
<path clip-path="url(#ca_59)" d="M699.8,773.1c-.4,0,-.7,.3,-.9,.6c-.2,-.3,-.6,-.6,-1,-.6c-.6,0,-1.1,.5,-1.1,1.1c0,1.4,2.1,2.5,2.1,2.5c0,0,2,-1,2,-2.5c0,-.6,-.4,-1.1,-1.1,-1.1Z" class="gc_59"/>
<path d="M707.9,773.1c-.4,0,-.8,.3,-1,.6c-.2,-.3,-.5,-.6,-.9,-.6c-.6,0,-1.1,.5,-1.1,1.1c0,1.4,2,2.5,2,2.5c0,0,2.1,-1,2.1,-2.5c0,-.6,-.5,-1.1,-1.1,-1.1Z" class="gc_59"/>
<path d="M715.9,773.1c-.4,0,-.7,.3,-.9,.6c-.2,-.3,-.6,-.6,-1,-.6c-.6,0,-1.1,.5,-1.1,1.1c0,1.4,2.1,2.5,2.1,2.5c0,0,2.1,-1,2.1,-2.5c0,-.6,-.5,-1.1,-1.2,-1.1Z" class="gc_59"/>
<path d="M724,773.1c-.4,0,-.8,.3,-1,.6c-.2,-.3,-.5,-.6,-.9,-.6c-.6,0,-1.1,.5,-1.1,1.1c0,1.4,2,2.5,2,2.5c0,0,2.1,-1,2.1,-2.5c0,-.6,-.5,-1.1,-1.1,-1.1Z" class="gc_59"/>
<path d="M732,773.1c-.4,0,-.7,.3,-.9,.6c-.2,-.3,-.6,-.6,-1,-.6c-.6,0,-1.1,.5,-1.1,1.1c0,1.4,2.1,2.5,2.1,2.5c0,0,2,-1,2,-2.5c0,-.6,-.5,-1.1,-1.1,-1.1Z" class="gc_59"/>
<path clip-path="url(#ca_59)" d="M740.1,773.1c-.4,0,-.8,.3,-1,.6c-.2,-.3,-.5,-.6,-.9,-.6c-.6,0,-1.1,.5,-1.1,1.1c0,1.4,2,2.5,2,2.5c0,0,2.1,-1,2.1,-2.5c0,-.6,-.5,-1.1,-1.1,-1.1Z" class="gc_59"/>
<path d="M703.9,779.6c-.4,0,-.8,.2,-1,.5c-.2,-.3,-.5,-.5,-.9,-.5c-.7,0,-1.1,.5,-1.1,1.1c0,1.4,2,2.4,2,2.4c0,0,2.1,-1,2.1,-2.4c0,-.6,-.5,-1.1,-1.1,-1.1Z" class="gc_59"/>
<path d="M711.9,779.6c-.4,0,-.7,.2,-.9,.5c-.2,-.3,-.6,-.5,-1,-.5c-.6,0,-1.1,.5,-1.1,1.1c0,1.4,2.1,2.4,2.1,2.4c0,0,2,-1,2,-2.4c0,-.6,-.5,-1.1,-1.1,-1.1Z" class="gc_59"/>
<path d="M720,779.6c-.4,0,-.8,.2,-1,.5c-.2,-.3,-.5,-.5,-.9,-.5c-.7,0,-1.1,.5,-1.1,1.1c0,1.4,2,2.4,2,2.4c0,0,2.1,-1,2.1,-2.4c0,-.6,-.5,-1.1,-1.1,-1.1Z" class="gc_59"/>
<path d="M728,779.6c-.4,0,-.7,.2,-.9,.5c-.2,-.3,-.6,-.5,-1,-.5c-.6,0,-1.1,.5,-1.1,1.1c0,1.4,2.1,2.4,2.1,2.4c0,0,2,-1,2,-2.4c0,-.6,-.5,-1.1,-1.1,-1.1Z" class="gc_59"/>
<path d="M736.1,779.6c-.4,0,-.8,.2,-1,.5c-.2,-.3,-.5,-.5,-.9,-.5c-.7,0,-1.2,.5,-1.2,1.1c0,1.4,2.1,2.4,2.1,2.4c0,0,2.1,-1,2.1,-2.4c0,-.6,-.5,-1.1,-1.1,-1.1Z" class="gc_59"/>
<path clip-path="url(#ca_59)" d="M699.8,786c-.4,0,-.7,.2,-.9,.6c-.2,-.4,-.6,-.6,-1,-.6c-.6,0,-1.1,.5,-1.1,1.1c0,1.4,2.1,2.5,2.1,2.5c0,0,2,-1,2,-2.5c0,-.6,-.4,-1.1,-1.1,-1.1Z" class="gc_59"/>
<path d="M707.9,786c-.4,0,-.8,.2,-1,.6c-.2,-.4,-.5,-.6,-.9,-.6c-.6,0,-1.1,.5,-1.1,1.1c0,1.4,2,2.5,2,2.5c0,0,2.1,-1,2.1,-2.5c0,-.6,-.5,-1.1,-1.1,-1.1Z" class="gc_59"/>
<path d="M715.9,786c-.4,0,-.7,.2,-.9,.6c-.2,-.4,-.6,-.6,-1,-.6c-.6,0,-1.1,.5,-1.1,1.1c0,1.4,2.1,2.5,2.1,2.5c0,0,2.1,-1,2.1,-2.5c0,-.6,-.5,-1.1,-1.2,-1.1Z" class="gc_59"/>
<path d="M724,786c-.4,0,-.8,.2,-1,.6c-.2,-.4,-.5,-.6,-.9,-.6c-.6,0,-1.1,.5,-1.1,1.1c0,1.4,2,2.5,2,2.5c0,0,2.1,-1,2.1,-2.5c0,-.6,-.5,-1.1,-1.1,-1.1Z" class="gc_59"/>
<path d="M732,786c-.4,0,-.7,.2,-.9,.6c-.2,-.4,-.6,-.6,-1,-.6c-.6,0,-1.1,.5,-1.1,1.1c0,1.4,2.1,2.5,2.1,2.5c0,0,2,-1,2,-2.5c0,-.6,-.5,-1.1,-1.1,-1.1Z" class="gc_59"/>
<path clip-path="url(#ca_59)" d="M740.1,786c-.4,0,-.8,.2,-1,.6c-.2,-.4,-.5,-.6,-.9,-.6c-.6,0,-1.1,.5,-1.1,1.1c0,1.4,2,2.5,2,2.5c0,0,2.1,-1,2.1,-2.5c0,-.6,-.5,-1.1,-1.1,-1.1Z" class="gc_59"/>
<path d="M703.9,792.5c-.4,0,-.8,.2,-1,.5c-.2,-.3,-.5,-.5,-.9,-.5c-.7,0,-1.1,.5,-1.1,1.1c0,1.4,2,2.4,2,2.4c0,0,2.1,-1,2.1,-2.4c0,-.6,-.5,-1.1,-1.1,-1.1Z" class="gc_59"/>
<path d="M711.9,792.5c-.4,0,-.7,.2,-.9,.5c-.2,-.3,-.6,-.5,-1,-.5c-.6,0,-1.1,.5,-1.1,1.1c0,1.4,2.1,2.4,2.1,2.4c0,0,2,-1,2,-2.4c0,-.6,-.5,-1.1,-1.1,-1.1Z" class="gc_59"/>
<path d="M720,792.5c-.4,0,-.8,.2,-1,.5c-.2,-.3,-.5,-.5,-.9,-.5c-.7,0,-1.1,.5,-1.1,1.1c0,1.4,2,2.4,2,2.4c0,0,2.1,-1,2.1,-2.4c0,-.6,-.5,-1.1,-1.1,-1.1Z" class="gc_59"/>
<path d="M728,792.5c-.4,0,-.7,.2,-.9,.5c-.2,-.3,-.6,-.5,-1,-.5c-.6,0,-1.1,.5,-1.1,1.1c0,1.4,2.1,2.4,2.1,2.4c0,0,2,-1,2,-2.4c0,-.6,-.5,-1.1,-1.1,-1.1Z" class="gc_59"/>
<path d="M736.1,792.5c-.4,0,-.8,.2,-1,.5c-.2,-.3,-.5,-.5,-.9,-.5c-.7,0,-1.2,.5,-1.2,1.1c0,1.4,2.1,2.4,2.1,2.4c0,0,2.1,-1,2.1,-2.4c0,-.6,-.5,-1.1,-1.1,-1.1Z" class="gc_59"/>
<path clip-path="url(#ca_59)" d="M699.8,798.9c-.4,0,-.7,.2,-.9,.6c-.2,-.4,-.6,-.6,-1,-.6c-.6,0,-1.1,.5,-1.1,1.1c0,1.4,2.1,2.5,2.1,2.5c0,0,2,-1.1,2,-2.5c0,-.6,-.4,-1.1,-1.1,-1.1Z" class="gc_59"/>
<path d="M707.9,798.9c-.4,0,-.8,.2,-1,.6c-.2,-.4,-.5,-.6,-.9,-.6c-.6,0,-1.1,.5,-1.1,1.1c0,1.4,2,2.5,2,2.5c0,0,2.1,-1.1,2.1,-2.5c0,-.6,-.5,-1.1,-1.1,-1.1Z" class="gc_59"/>
<path d="M715.9,798.9c-.4,0,-.7,.2,-.9,.6c-.2,-.4,-.6,-.6,-1,-.6c-.6,0,-1.1,.5,-1.1,1.1c0,1.4,2.1,2.5,2.1,2.5c0,0,2.1,-1.1,2.1,-2.5c0,-.6,-.5,-1.1,-1.2,-1.1Z" class="gc_59"/>
<path d="M724,798.9c-.4,0,-.8,.2,-1,.6c-.2,-.4,-.5,-.6,-.9,-.6c-.6,0,-1.1,.5,-1.1,1.1c0,1.4,2,2.5,2,2.5c0,0,2.1,-1.1,2.1,-2.5c0,-.6,-.5,-1.1,-1.1,-1.1Z" class="gc_59"/>
<path d="M732,798.9c-.4,0,-.7,.2,-.9,.6c-.2,-.4,-.6,-.6,-1,-.6c-.6,0,-1.1,.5,-1.1,1.1c0,1.4,2.1,2.5,2.1,2.5c0,0,2,-1.1,2,-2.5c0,-.6,-.5,-1.1,-1.1,-1.1Z" class="gc_59"/>
<g clip-path="url(#ca_59)">
<path d="M740.1,798.9c-.4,0,-.8,.2,-1,.6c-.2,-.4,-.5,-.6,-.9,-.6c-.6,0,-1.1,.5,-1.1,1.1c0,1.4,2,2.5,2,2.5c0,0,2.1,-1.1,2.1,-2.5c0,-.6,-.5,-1.1,-1.1,-1.1Z" class="gc_59"/>
<path d="M703.9,805.4c-.4,0,-.8,.2,-1,.5c-.2,-.3,-.5,-.5,-.9,-.5c-.7,0,-1.1,.5,-1.1,1.1c0,1.4,2,2.4,2,2.4c0,0,2.1,-1,2.1,-2.4c0,-.6,-.5,-1.1,-1.1,-1.1Z" class="gc_59"/>
<path d="M711.9,805.4c-.4,0,-.7,.2,-.9,.5c-.2,-.3,-.6,-.5,-1,-.5c-.6,0,-1.1,.5,-1.1,1.1c0,1.4,2.1,2.4,2.1,2.4c0,0,2,-1,2,-2.4c0,-.6,-.5,-1.1,-1.1,-1.1Z" class="gc_59"/>
<path d="M720,805.4c-.4,0,-.8,.2,-1,.5c-.2,-.3,-.5,-.5,-.9,-.5c-.7,0,-1.1,.5,-1.1,1.1c0,1.4,2,2.4,2,2.4c0,0,2.1,-1,2.1,-2.4c0,-.6,-.5,-1.1,-1.1,-1.1Z" class="gc_59"/>
<path d="M728,805.4c-.4,0,-.7,.2,-.9,.5c-.2,-.3,-.6,-.5,-1,-.5c-.6,0,-1.1,.5,-1.1,1.1c0,1.4,2.1,2.4,2.1,2.4c0,0,2,-1,2,-2.4c0,-.6,-.5,-1.1,-1.1,-1.1Z" class="gc_59"/>
<path d="M736.1,805.4c-.4,0,-.8,.2,-1,.5c-.2,-.3,-.5,-.5,-.9,-.5c-.7,0,-1.2,.5,-1.2,1.1c0,1.4,2.1,2.4,2.1,2.4c0,0,2.1,-1,2.1,-2.4c0,-.6,-.5,-1.1,-1.1,-1.1Z" class="gc_59"/>
</g>
<path d="M740,765v42l23.1,-14.7V751.7Z" class="gb_59"/>
<path d="M740,765l23.1,-13.3v40.6L740,807V765Z" class="ga_59"/>
<g clip-path="url(#cb_59)">
<path d="M744.8,748.7c-.3,.3,-.6,.9,-.5,1.4c.2,1.3,1.5,1.5,1.5,1.5c.1,-.1,1.2,-1.7,1,-3c-.1,-.6,-.4,-.8,-.8,-.6c-.3,.2,-.4,.5,-.5,.8c-.2,-.2,-.4,-.3,-.6,-.1q-.1,0,-.1,0Z" class="gc_59"/>
<path d="M739.9,751.7c-.3,.2,-.6,.9,-.5,1.4c.2,1.3,1.5,1.5,1.5,1.5c.1,-.1,1.2,-1.8,1,-3c-.1,-.6,-.4,-.9,-.8,-.6c-.3,.2,-.4,.5,-.5,.8c-.2,-.2,-.4,-.3,-.7,-.1Z" class="gc_59"/>
<path d="M752.9,750.1c-.4,.3,-.6,.9,-.5,1.4c.1,1.3,1.4,1.5,1.5,1.5c.1,-.1,1.2,-1.7,1,-3c-.1,-.6,-.4,-.8,-.8,-.6c-.3,.2,-.4,.5,-.5,.8c-.2,-.2,-.4,-.2,-.7,-.1Z" class="gc_59"/>
<path d="M748,753.1c-.4,.3,-.6,.9,-.5,1.4c.1,1.3,1.4,1.5,1.5,1.5c.1,-.1,1.1,-1.7,1,-3c-.1,-.6,-.4,-.8,-.8,-.6c-.3,.2,-.5,.5,-.5,.8c-.2,-.2,-.4,-.3,-.7,-.1Z" class="gc_59"/>
<path d="M743.1,756.1c-.4,.2,-.6,.9,-.5,1.4c.1,1.3,1.4,1.5,1.5,1.5c.1,-.1,1.1,-1.7,1,-3c-.1,-.6,-.4,-.9,-.8,-.6c-.3,.2,-.5,.5,-.5,.8c-.2,-.2,-.4,-.3,-.7,-.1Z" class="gc_59"/>
<path d="M738.2,759.1c-.4,.2,-.6,.9,-.5,1.4c.1,1.3,1.4,1.5,1.5,1.5c.1,-.1,1.1,-1.8,1,-3c-.1,-.6,-.4,-.9,-.8,-.6h-.1c-.2,.2,-.4,.5,-.4,.8c-.2,-.2,-.4,-.3,-.7,-.1Z" class="gc_59"/>
<path d="M761,751.5c-.4,.3,-.6,.9,-.5,1.4c.1,1.3,1.4,1.5,1.5,1.5c.1,-.1,1.1,-1.7,1,-3c-.1,-.6,-.5,-.8,-.8,-.6h-.1c-.2,.2,-.4,.5,-.4,.8c-.2,-.2,-.4,-.2,-.7,-.1Z" class="gc_59"/>
<path d="M756.1,754.5c-.4,.3,-.6,.9,-.5,1.4c.1,1.3,1.4,1.5,1.5,1.5c.1,-.1,1.1,-1.7,1,-3c-.1,-.6,-.5,-.8,-.8,-.6h-.1c-.2,.2,-.4,.5,-.4,.8c-.2,-.2,-.4,-.2,-.7,-.1Z" class="gc_59"/>
<path d="M751.2,757.5c-.4,.3,-.6,.9,-.5,1.4c.1,1.3,1.4,1.5,1.5,1.5c0,-.1,1.1,-1.7,1,-3c-.1,-.6,-.5,-.8,-.8,-.6c0,0,-.1,0,-.1,0c-.2,.2,-.4,.5,-.5,.8c-.1,-.2,-.3,-.3,-.6,-.1Z" class="gc_59"/>
<path d="M746.3,760.5c-.4,.3,-.6,.9,-.6,1.4c.2,1.3,1.5,1.5,1.6,1.5c0,-.1,1.1,-1.7,1,-3c-.1,-.6,-.5,-.8,-.8,-.6q-.1,0,-.1,0c-.2,.2,-.4,.5,-.5,.8c-.1,-.2,-.4,-.3,-.6,-.1Z" class="gc_59"/>
<path d="M741.4,763.5c-.4,.2,-.6,.9,-.6,1.4c.2,1.3,1.5,1.5,1.6,1.5c0,-.1,1.1,-1.8,1,-3c-.1,-.6,-.5,-.9,-.8,-.6q-.1,0,-.1,0c-.2,.2,-.4,.5,-.5,.8c-.1,-.2,-.4,-.3,-.6,-.1Z" class="gc_59"/>
<path d="M759.3,758.9c-.4,.3,-.6,.9,-.6,1.4c.2,1.3,1.5,1.5,1.6,1.5c0,-.1,1.1,-1.7,1,-3c-.1,-.6,-.5,-.8,-.8,-.6q-.1,0,-.1,0c-.2,.2,-.4,.5,-.5,.8c-.1,-.2,-.4,-.2,-.6,-.1Z" class="gc_59"/>
<path d="M754.4,761.9c-.4,.3,-.6,.9,-.6,1.4c.2,1.3,1.5,1.5,1.6,1.5c0,-.1,1.1,-1.7,.9,-3c0,-.6,-.4,-.8,-.8,-.6c-.2,.2,-.4,.5,-.5,.8c-.1,-.2,-.4,-.3,-.6,-.1Z" class="gc_59"/>
<path d="M749.4,764.9c-.3,.3,-.5,.9,-.5,1.4c.2,1.3,1.5,1.5,1.6,1.5c0,-.1,1.1,-1.7,.9,-3c0,-.6,-.4,-.8,-.8,-.6c-.2,.2,-.4,.5,-.5,.8c-.1,-.2,-.4,-.3,-.6,-.1h-.1Z" class="gc_59"/>
<path d="M744.5,767.9c-.3,.2,-.5,.9,-.5,1.4c.2,1.3,1.5,1.5,1.6,1.5c0,-.1,1.1,-1.7,.9,-3c0,-.6,-.4,-.9,-.8,-.6c-.2,.2,-.4,.5,-.5,.8c-.1,-.2,-.4,-.3,-.6,-.1h-.1Z" class="gc_59"/>
<path d="M739.6,770.9c-.3,.2,-.5,.9,-.5,1.4c.2,1.3,1.5,1.5,1.5,1.5c.1,-.1,1.2,-1.8,1,-3c0,-.6,-.4,-.9,-.8,-.6c-.2,.1,-.4,.5,-.5,.8c-.1,-.2,-.4,-.3,-.6,-.1h-.1Z" class="gc_59"/>
<path d="M762.4,763.3c-.3,.3,-.5,.9,-.5,1.4c.2,1.3,1.5,1.5,1.6,1.5c0,-.1,1.1,-1.7,.9,-3c0,-.6,-.4,-.8,-.8,-.6c-.2,.2,-.4,.5,-.5,.8c-.1,-.2,-.4,-.2,-.6,-.1h-.1Z" class="gc_59"/>
<path d="M757.5,766.3c-.3,.3,-.6,.9,-.5,1.4c.2,1.3,1.5,1.5,1.5,1.5c.1,-.1,1.2,-1.7,1,-3c0,-.6,-.4,-.8,-.8,-.6c-.2,.2,-.4,.5,-.5,.8c-.1,-.2,-.4,-.2,-.6,-.1c0,0,-.1,0,-.1,0Z" class="gc_59"/>
<path d="M752.6,769.3c-.3,.3,-.6,.9,-.5,1.4c.2,1.3,1.5,1.5,1.5,1.5c.1,-.1,1.2,-1.7,1,-3c0,-.6,-.4,-.8,-.8,-.6c-.2,.2,-.4,.5,-.5,.8c-.2,-.2,-.4,-.3,-.6,-.1c0,0,-.1,0,-.1,0Z" class="gc_59"/>
<path d="M747.7,772.3c-.3,.2,-.6,.9,-.5,1.4c.2,1.3,1.5,1.5,1.5,1.5c.1,-.1,1.2,-1.7,1,-3c-.1,-.6,-.4,-.8,-.8,-.6c-.2,.2,-.4,.5,-.5,.8c-.2,-.2,-.4,-.3,-.6,-.1q-.1,0,-.1,0Z" class="gc_59"/>
<path d="M742.8,775.3c-.3,.2,-.6,.9,-.5,1.4c.2,1.3,1.5,1.5,1.5,1.5c.1,-.1,1.2,-1.8,1,-3c-.1,-.6,-.4,-.9,-.8,-.6c-.3,.1,-.4,.5,-.5,.8c-.2,-.2,-.4,-.3,-.7,-.1Z" class="gc_59"/>
<path d="M737.9,778.3c-.3,.2,-.6,.9,-.5,1.4c.2,1.3,1.5,1.5,1.5,1.5c.1,-.1,1.2,-1.8,1,-3c-.1,-.6,-.4,-.9,-.8,-.6c-.3,.1,-.4,.5,-.5,.8c-.2,-.2,-.4,-.3,-.7,-.1Z" class="gc_59"/>
<path d="M760.7,770.7c-.3,.3,-.6,.9,-.5,1.4c.1,1.3,1.5,1.5,1.5,1.5c.1,-.1,1.2,-1.7,1,-3c-.1,-.6,-.4,-.8,-.8,-.6c-.3,.2,-.4,.5,-.5,.8c-.2,-.2,-.4,-.2,-.7,-.1Z" class="gc_59"/>
<path d="M755.8,773.7c-.3,.3,-.6,.9,-.5,1.4c.1,1.3,1.4,1.5,1.5,1.5c.1,-.1,1.2,-1.7,1,-3c-.1,-.6,-.4,-.8,-.8,-.6c-.3,.2,-.4,.5,-.5,.8c-.2,-.2,-.4,-.3,-.7,-.1Z" class="gc_59"/>
<path d="M750.9,776.7c-.4,.3,-.6,.9,-.5,1.4c.1,1.3,1.4,1.5,1.5,1.5c.1,-.1,1.2,-1.7,1,-3c-.1,-.6,-.4,-.8,-.8,-.6c-.3,.2,-.4,.5,-.5,.8c-.2,-.2,-.4,-.3,-.7,-.1Z" class="gc_59"/>
<path d="M746,779.7c-.4,.2,-.6,.9,-.5,1.4c.1,1.3,1.4,1.5,1.5,1.5c.1,-.1,1.1,-1.8,1,-3c-.1,-.6,-.4,-.9,-.8,-.6c-.3,.2,-.5,.5,-.5,.8c-.2,-.2,-.4,-.3,-.7,-.1Z" class="gc_59"/>
<path d="M741.1,782.7c-.4,.2,-.6,.9,-.5,1.4c.1,1.3,1.4,1.5,1.5,1.5c.1,-.1,1.1,-1.8,1,-3c-.1,-.6,-.4,-.9,-.8,-.6c-.3,.1,-.5,.5,-.5,.8c-.2,-.2,-.4,-.3,-.7,-.1Z" class="gc_59"/>
<path d="M759,778.1c-.4,.3,-.6,.9,-.5,1.4c.1,1.3,1.4,1.5,1.5,1.5c.1,-.1,1.1,-1.7,1,-3c-.1,-.6,-.5,-.8,-.8,-.6h-.1c-.2,.2,-.4,.5,-.4,.8c-.2,-.2,-.4,-.2,-.7,-.1Z" class="gc_59"/>
<path d="M754.1,781.1c-.4,.3,-.6,.9,-.5,1.4c.1,1.3,1.4,1.5,1.5,1.5c0,-.1,1.1,-1.7,1,-3c-.1,-.6,-.5,-.8,-.8,-.6h-.1c-.2,.2,-.4,.5,-.4,.8c-.2,-.2,-.4,-.3,-.7,-.1Z" class="gc_59"/>
<path d="M749.2,784.1c-.4,.2,-.6,.9,-.5,1.4c.1,1.3,1.4,1.5,1.5,1.5c0,-.1,1.1,-1.7,1,-3c-.1,-.6,-.5,-.9,-.8,-.6c0,0,-.1,0,-.1,0c-.2,.2,-.4,.5,-.5,.8c-.1,-.2,-.3,-.3,-.6,-.1Z" class="gc_59"/>
<path d="M744.3,787.1c-.4,.2,-.6,.9,-.5,1.4c.1,1.3,1.4,1.5,1.5,1.5c0,-.1,1.1,-1.8,1,-3c-.1,-.6,-.5,-.9,-.8,-.6c0,0,-.1,0,-.1,0c-.2,.1,-.4,.5,-.5,.8c-.1,-.2,-.4,-.3,-.6,-.1Z" class="gc_59"/>
<path d="M739.4,790.1c-.4,.2,-.6,.9,-.6,1.4c.2,1.3,1.5,1.4,1.6,1.5c0,-.1,1.1,-1.8,1,-3c-.1,-.6,-.5,-.9,-.8,-.6q-.1,0,-.1,0c-.2,.1,-.4,.5,-.5,.8c-.1,-.2,-.4,-.3,-.6,-.1Z" class="gc_59"/>
<path d="M762.2,782.5c-.4,.3,-.6,.9,-.6,1.4c.2,1.3,1.5,1.5,1.6,1.5c0,-.1,1.1,-1.7,1,-3c-.1,-.6,-.5,-.8,-.8,-.6q-.1,0,-.1,0c-.2,.2,-.4,.5,-.5,.8c-.1,-.2,-.4,-.2,-.6,-.1Z" class="gc_59"/>
<path d="M757.3,785.5c-.4,.3,-.6,.9,-.6,1.4c.2,1.3,1.5,1.5,1.6,1.5c0,-.1,1.1,-1.7,1,-3c-.1,-.6,-.5,-.8,-.9,-.6c-.2,.2,-.4,.5,-.5,.8c-.1,-.2,-.4,-.3,-.6,-.1Z" class="gc_59"/>
<path d="M752.4,788.5c-.4,.3,-.6,.9,-.6,1.4c.2,1.3,1.5,1.5,1.6,1.5c0,-.1,1.1,-1.7,.9,-3c0,-.6,-.4,-.8,-.8,-.6c-.2,.2,-.4,.5,-.5,.8c-.1,-.2,-.4,-.3,-.6,-.1Z" class="gc_59"/>
<path d="M747.4,791.5c-.3,.2,-.5,.9,-.5,1.4c.2,1.3,1.5,1.5,1.6,1.5c0,-.1,1.1,-1.8,.9,-3c0,-.6,-.4,-.9,-.8,-.6c-.2,.1,-.4,.5,-.5,.8c-.1,-.2,-.4,-.3,-.6,-.1h-.1Z" class="gc_59"/>
<path d="M742.5,794.5c-.3,.2,-.5,.9,-.5,1.4c.2,1.3,1.5,1.5,1.6,1.5c0,-.1,1.1,-1.8,.9,-3c0,-.6,-.4,-.9,-.8,-.6c-.2,.1,-.4,.5,-.5,.8c-.1,-.2,-.4,-.3,-.6,-.1h-.1Z" class="gc_59"/>
<path d="M737.6,797.5c-.3,.2,-.5,.8,-.5,1.4c.2,1.3,1.5,1.4,1.5,1.5c.1,-.1,1.2,-1.8,1,-3c0,-.6,-.4,-.9,-.8,-.6c-.2,.1,-.4,.5,-.5,.8c-.1,-.2,-.4,-.3,-.6,-.1h-.1Z" class="gc_59"/>
<path d="M760.4,789.9c-.3,.3,-.5,.9,-.5,1.4c.2,1.3,1.5,1.5,1.5,1.5c.1,-.1,1.2,-1.7,1,-3c0,-.6,-.4,-.8,-.8,-.6c-.2,.2,-.4,.5,-.5,.8c-.1,-.2,-.4,-.2,-.6,-.1c0,0,-.1,0,-.1,0Z" class="gc_59"/>
<path d="M755.5,792.9c-.3,.3,-.6,.9,-.5,1.4c.2,1.3,1.5,1.5,1.5,1.5c.1,-.1,1.2,-1.7,1,-3c0,-.6,-.4,-.8,-.8,-.6c-.2,.2,-.4,.5,-.5,.8c-.2,-.2,-.4,-.3,-.6,-.1c0,0,-.1,0,-.1,0Z" class="gc_59"/>
<path d="M750.6,795.9c-.3,.2,-.6,.9,-.5,1.4c.2,1.3,1.5,1.5,1.5,1.5c.1,-.1,1.2,-1.8,1,-3c-.1,-.6,-.4,-.9,-.8,-.6c-.2,.2,-.4,.5,-.5,.8c-.2,-.2,-.4,-.3,-.6,-.1q-.1,0,-.1,0Z" class="gc_59"/>
<path d="M745.7,798.9c-.3,.2,-.6,.9,-.5,1.4c.2,1.3,1.5,1.5,1.5,1.5c.1,-.1,1.2,-1.8,1,-3c-.1,-.6,-.4,-.9,-.8,-.6c-.2,.1,-.4,.5,-.5,.8c-.2,-.2,-.4,-.3,-.6,-.1q-.1,0,-.1,0Z" class="gc_59"/>
<path d="M740.8,801.9c-.3,.2,-.6,.9,-.5,1.4c.2,1.3,1.5,1.4,1.5,1.5c.1,-.1,1.2,-1.8,1,-3c-.1,-.6,-.4,-.9,-.8,-.6c-.3,.1,-.4,.5,-.5,.8c-.2,-.2,-.4,-.3,-.6,-.1q-.1,0,-.1,0Z" class="gc_59"/>
</g>
<path d="M674.9,756L698,768.7h42l23.1,-13.2v-3.8l-88.2,-1.6Z" class="gd_59"/>
<path d="M698,807h42V765H698v42Z" class="ga_59"/>
<g clip-path="url(#cc_59)">
<path d="M693.2,748.7c.4,.3,.6,.9,.5,1.4c-.1,1.3,-1.4,1.5,-1.5,1.5c-.1,-.1,-1.1,-1.7,-1,-3c.1,-.6,.4,-.8,.8,-.6c.3,.2,.5,.5,.5,.8c.2,-.2,.4,-.3,.7,-.1Z" class="gc_59"/>
<path d="M698.1,751.7c.4,.2,.6,.9,.5,1.4c-.1,1.3,-1.4,1.5,-1.5,1.5c-.1,-.1,-1.1,-1.8,-1,-3c.1,-.6,.4,-.9,.8,-.6c.3,.2,.5,.5,.5,.8c.2,-.2,.4,-.3,.7,-.1Z" class="gc_59"/>
<path d="M685.1,750.1c.4,.3,.6,.9,.5,1.4c-.1,1.3,-1.4,1.5,-1.5,1.5c0,-.1,-1.1,-1.7,-1,-3c.1,-.6,.5,-.8,.8,-.6h.1c.2,.2,.4,.5,.4,.8c.2,-.2,.4,-.2,.7,-.1Z" class="gc_59"/>
<path d="M690,753.1c.4,.3,.6,.9,.5,1.4c-.1,1.3,-1.4,1.5,-1.5,1.5c0,-.1,-1.1,-1.7,-1,-3c.1,-.6,.5,-.8,.8,-.6c0,0,.1,0,.1,0c.2,.2,.4,.5,.5,.8c.1,-.2,.3,-.3,.6,-.1Z" class="gc_59"/>
<path d="M694.9,756.1c.4,.2,.6,.9,.6,1.4c-.2,1.3,-1.5,1.5,-1.6,1.5c0,-.1,-1.1,-1.7,-1,-3c.1,-.6,.5,-.9,.8,-.6c0,0,.1,0,.1,0c.2,.2,.4,.5,.5,.8c.1,-.2,.4,-.3,.6,-.1Z" class="gc_59"/>
<path d="M699.8,759.1c.4,.2,.6,.9,.6,1.4c-.2,1.3,-1.5,1.5,-1.6,1.5c0,-.1,-1.1,-1.8,-1,-3c.1,-.6,.5,-.9,.8,-.6q.1,0,.1,0c.2,.2,.4,.5,.5,.8c.1,-.2,.4,-.3,.6,-.1Z" class="gc_59"/>
<path d="M677,751.5c.4,.3,.6,.9,.6,1.4c-.2,1.3,-1.5,1.5,-1.6,1.5c0,-.1,-1.1,-1.7,-1,-3c.1,-.6,.5,-.8,.8,-.6q.1,0,.1,0c.2,.2,.4,.5,.5,.8c.1,-.2,.4,-.2,.6,-.1Z" class="gc_59"/>
<path d="M681.9,754.5c.4,.3,.6,.9,.6,1.4c-.2,1.3,-1.5,1.5,-1.6,1.5c0,-.1,-1.1,-1.7,-1,-3c.1,-.6,.5,-.8,.9,-.6c.2,.2,.4,.5,.5,.8c.1,-.2,.4,-.2,.6,-.1Z" class="gc_59"/>
<path d="M686.8,757.5c.4,.3,.6,.9,.6,1.4c-.2,1.3,-1.5,1.5,-1.6,1.5c0,-.1,-1.1,-1.7,-.9,-3c0,-.6,.4,-.8,.8,-.6c.2,.2,.4,.5,.5,.8c.1,-.2,.4,-.3,.6,-.1Z" class="gc_59"/>
<path d="M691.8,760.5c.3,.3,.5,.9,.5,1.4c-.2,1.3,-1.5,1.5,-1.6,1.5c0,-.1,-1.1,-1.7,-.9,-3c0,-.6,.4,-.8,.8,-.6c.2,.2,.4,.5,.5,.8c.1,-.2,.4,-.3,.6,-.1h.1Z" class="gc_59"/>
<path d="M696.7,763.5c.3,.2,.5,.9,.5,1.4c-.2,1.3,-1.5,1.5,-1.6,1.5c0,-.1,-1.1,-1.8,-.9,-3c0,-.6,.4,-.9,.8,-.6c.2,.2,.4,.5,.5,.8c.1,-.2,.4,-.3,.6,-.1h.1Z" class="gc_59"/>
<path d="M678.8,758.9c.3,.3,.6,.9,.5,1.4c-.2,1.3,-1.5,1.5,-1.5,1.5c-.1,-.1,-1.2,-1.7,-1,-3c0,-.6,.4,-.8,.8,-.6c.2,.2,.4,.5,.5,.8c.1,-.2,.4,-.2,.6,-.1c0,0,.1,0,.1,0Z" class="gc_59"/>
<path d="M683.7,761.9c.3,.3,.6,.9,.5,1.4c-.2,1.3,-1.5,1.5,-1.5,1.5c-.1,-.1,-1.2,-1.7,-1,-3c0,-.6,.4,-.8,.8,-.6c.2,.2,.4,.5,.5,.8c.1,-.2,.4,-.3,.6,-.1c0,0,.1,0,.1,0Z" class="gc_59"/>
<path d="M688.6,764.9c.3,.3,.6,.9,.5,1.4c-.2,1.3,-1.5,1.5,-1.5,1.5c-.1,-.1,-1.2,-1.7,-1,-3c0,-.6,.4,-.8,.8,-.6c.2,.2,.4,.5,.5,.8c.2,-.2,.4,-.3,.6,-.1q.1,0,.1,0Z" class="gc_59"/>
<path d="M693.5,767.9c.3,.2,.6,.9,.5,1.4c-.2,1.3,-1.5,1.5,-1.5,1.5c-.1,-.1,-1.2,-1.7,-1,-3c.1,-.6,.4,-.9,.8,-.6c.2,.2,.4,.5,.5,.8c.2,-.2,.4,-.3,.6,-.1q.1,0,.1,0Z" class="gc_59"/>
<path d="M698.4,770.9c.3,.2,.6,.9,.5,1.4c-.2,1.3,-1.5,1.5,-1.5,1.5c-.1,-.1,-1.2,-1.8,-1,-3c.1,-.6,.4,-.9,.8,-.6c.3,.1,.4,.5,.5,.8c.2,-.2,.4,-.3,.7,-.1Z" class="gc_59"/>
<path d="M675.6,763.3c.3,.3,.6,.9,.5,1.4c-.2,1.3,-1.5,1.5,-1.5,1.5c-.1,-.1,-1.2,-1.7,-1,-3c.1,-.6,.4,-.8,.8,-.6c.3,.2,.4,.5,.5,.8c.2,-.2,.4,-.2,.7,-.1Z" class="gc_59"/>
<path d="M680.5,766.3c.3,.3,.6,.9,.5,1.4c-.2,1.3,-1.5,1.5,-1.5,1.5c-.1,-.1,-1.2,-1.7,-1,-3c.1,-.6,.4,-.8,.8,-.6c.3,.2,.4,.5,.5,.8c.2,-.2,.4,-.2,.7,-.1Z" class="gc_59"/>
<path d="M685.4,769.3c.3,.3,.6,.9,.5,1.4c-.1,1.3,-1.4,1.5,-1.5,1.5c-.1,-.1,-1.2,-1.7,-1,-3c.1,-.6,.4,-.8,.8,-.6c.3,.2,.4,.5,.5,.8c.2,-.2,.4,-.3,.7,-.1Z" class="gc_59"/>
<path d="M690.3,772.3c.4,.2,.6,.9,.5,1.4c-.1,1.3,-1.4,1.5,-1.5,1.5c-.1,-.1,-1.1,-1.7,-1,-3c.1,-.6,.4,-.8,.8,-.6c.3,.2,.5,.5,.5,.8c.2,-.2,.4,-.3,.7,-.1Z" class="gc_59"/>
<path d="M695.2,775.3c.4,.2,.6,.9,.5,1.4c-.1,1.3,-1.4,1.5,-1.5,1.5c-.1,-.1,-1.1,-1.8,-1,-3c.1,-.6,.4,-.9,.8,-.6c.3,.1,.5,.5,.5,.8c.2,-.2,.4,-.3,.7,-.1Z" class="gc_59"/>
<path d="M700.1,778.3c.4,.2,.6,.9,.5,1.4c-.1,1.3,-1.4,1.5,-1.5,1.5c-.1,-.1,-1.1,-1.8,-1,-3c.1,-.6,.4,-.9,.8,-.6c.3,.1,.5,.5,.5,.8c.2,-.2,.4,-.3,.7,-.1Z" class="gc_59"/>
<path d="M677.3,770.7c.4,.3,.6,.9,.5,1.4c-.1,1.3,-1.4,1.5,-1.5,1.5c-.1,-.1,-1.1,-1.7,-1,-3c.1,-.6,.4,-.8,.8,-.6c.3,.2,.5,.5,.5,.8c.2,-.2,.4,-.2,.7,-.1Z" class="gc_59"/>
<path d="M682.2,773.7c.4,.3,.6,.9,.5,1.4c-.1,1.3,-1.4,1.5,-1.5,1.5c-.1,-.1,-1.1,-1.7,-1,-3c.1,-.6,.4,-.8,.8,-.6h.1c.2,.2,.4,.5,.4,.8c.2,-.2,.4,-.3,.7,-.1Z" class="gc_59"/>
<path d="M687.1,776.7c.4,.3,.6,.9,.5,1.4c-.1,1.3,-1.4,1.5,-1.5,1.5c0,-.1,-1.1,-1.7,-1,-3c.1,-.6,.5,-.8,.8,-.6h.1c.2,.2,.4,.5,.4,.8c.2,-.2,.4,-.3,.7,-.1Z" class="gc_59"/>
<path d="M692,779.7c.4,.2,.6,.9,.5,1.4c-.1,1.3,-1.4,1.5,-1.5,1.5c0,-.1,-1.1,-1.8,-1,-3c.1,-.6,.5,-.9,.8,-.6c0,0,.1,0,.1,0c.2,.2,.4,.5,.5,.8c.1,-.2,.3,-.3,.6,-.1Z" class="gc_59"/>
<path d="M696.9,782.7c.4,.2,.6,.9,.6,1.4c-.2,1.3,-1.5,1.5,-1.6,1.5c0,-.1,-1.1,-1.8,-1,-3c.1,-.6,.5,-.9,.8,-.6q.1,0,.1,0c.2,.1,.4,.5,.5,.8c.1,-.2,.4,-.3,.6,-.1Z" class="gc_59"/>
<path d="M674.1,775.1c.4,.3,.6,.9,.6,1.4c-.2,1.3,-1.5,1.5,-1.6,1.5c0,-.1,-1.1,-1.7,-1,-3c.1,-.6,.5,-.8,.8,-.6q.1,0,.1,0c.2,.2,.4,.5,.5,.8c.1,-.2,.4,-.2,.6,-.1Z" class="gc_59"/>
<path d="M679,778.1c.4,.3,.6,.9,.6,1.4c-.2,1.3,-1.5,1.5,-1.6,1.5c0,-.1,-1.1,-1.7,-1,-3c.1,-.6,.5,-.8,.8,-.6q.1,0,.1,0c.2,.2,.4,.5,.5,.8c.1,-.2,.4,-.2,.6,-.1Z" class="gc_59"/>
<path d="M683.9,781.1c.4,.3,.6,.9,.6,1.4c-.2,1.3,-1.5,1.5,-1.6,1.5c0,-.1,-1.1,-1.7,-1,-3c.1,-.6,.5,-.8,.9,-.6c.2,.2,.4,.5,.5,.8c.1,-.2,.4,-.3,.6,-.1Z" class="gc_59"/>
<path d="M688.8,784.1c.4,.2,.6,.9,.6,1.4c-.2,1.3,-1.5,1.5,-1.6,1.5c0,-.1,-1.1,-1.7,-.9,-3c0,-.6,.4,-.9,.8,-.6c.2,.2,.4,.5,.5,.8c.1,-.2,.4,-.3,.6,-.1Z" class="gc_59"/>
<path d="M693.7,787.1c.4,.2,.6,.9,.6,1.4c-.2,1.3,-1.5,1.5,-1.6,1.5c0,-.1,-1.1,-1.8,-.9,-3c0,-.6,.4,-.9,.8,-.6c.2,.1,.4,.5,.5,.8c.1,-.2,.4,-.3,.6,-.1Z" class="gc_59"/>
<path d="M698.7,790.1c.3,.2,.5,.9,.5,1.4c-.2,1.3,-1.5,1.4,-1.6,1.5c0,-.1,-1.1,-1.8,-.9,-3c0,-.6,.4,-.9,.8,-.6c.2,.1,.4,.5,.5,.8c.1,-.2,.4,-.3,.6,-.1h.1Z" class="gc_59"/>
<path d="M675.9,782.5c.3,.3,.5,.9,.5,1.4c-.2,1.3,-1.5,1.5,-1.6,1.5c0,-.1,-1.1,-1.7,-.9,-3c0,-.6,.4,-.8,.8,-.6c.2,.2,.4,.5,.5,.8c.1,-.2,.4,-.2,.6,-.1h.1Z" class="gc_59"/>
<path d="M680.8,785.5c.3,.3,.5,.9,.5,1.4c-.2,1.3,-1.5,1.5,-1.5,1.5c-.1,-.1,-1.2,-1.7,-1,-3c0,-.6,.4,-.8,.8,-.6c.2,.2,.4,.5,.5,.8c.1,-.2,.4,-.3,.6,-.1c0,0,.1,0,.1,0Z" class="gc_59"/>
<path d="M685.7,788.5c.3,.3,.6,.9,.5,1.4c-.2,1.3,-1.5,1.5,-1.5,1.5c-.1,-.1,-1.2,-1.7,-1,-3c0,-.6,.4,-.8,.8,-.6c.2,.2,.4,.5,.5,.8c.2,-.2,.4,-.3,.6,-.1c0,0,.1,0,.1,0Z" class="gc_59"/>
<path d="M690.6,791.5c.3,.2,.6,.9,.5,1.4c-.2,1.3,-1.5,1.5,-1.5,1.5c-.1,-.1,-1.2,-1.8,-1,-3c0,-.6,.4,-.9,.8,-.6c.2,.1,.4,.5,.5,.8c.2,-.2,.4,-.3,.6,-.1q.1,0,.1,0Z" class="gc_59"/>
<path d="M695.5,794.5c.3,.2,.6,.9,.5,1.4c-.2,1.3,-1.5,1.5,-1.5,1.5c-.1,-.1,-1.2,-1.8,-1,-3c.1,-.6,.4,-.9,.8,-.6c.2,.1,.4,.5,.5,.8c.2,-.2,.4,-.3,.6,-.1q.1,0,.1,0Z" class="gc_59"/>
<path d="M677.6,789.9c.3,.3,.6,.9,.5,1.4c-.2,1.3,-1.5,1.5,-1.5,1.5c-.1,-.1,-1.2,-1.7,-1,-3c.1,-.6,.4,-.8,.8,-.6c.3,.2,.4,.5,.5,.8c.2,-.2,.4,-.2,.7,-.1Z" class="gc_59"/>
<path d="M682.5,792.9c.3,.3,.6,.9,.5,1.4c-.1,1.3,-1.5,1.5,-1.5,1.5c-.1,-.1,-1.2,-1.7,-1,-3c.1,-.6,.4,-.8,.8,-.6c.3,.2,.4,.5,.5,.8c.2,-.2,.4,-.3,.7,-.1Z" class="gc_59"/>
<path d="M687.4,795.9c.4,.2,.6,.9,.5,1.4c-.1,1.3,-1.4,1.5,-1.5,1.5c-.1,-.1,-1.2,-1.8,-1,-3c.1,-.6,.4,-.9,.8,-.6c.3,.2,.4,.5,.5,.8c.2,-.2,.4,-.3,.7,-.1Z" class="gc_59"/>
<path d="M692.3,798.9c.4,.2,.6,.9,.5,1.4c-.1,1.3,-1.4,1.5,-1.5,1.5c-.1,-.1,-1.1,-1.8,-1,-3c.1,-.6,.4,-.9,.8,-.6c.3,.1,.4,.5,.5,.8c.2,-.2,.4,-.3,.7,-.1Z" class="gc_59"/>
<path d="M697.2,801.9c.4,.2,.6,.9,.5,1.4c-.1,1.3,-1.4,1.4,-1.5,1.5c-.1,-.1,-1.1,-1.8,-1,-3c.1,-.6,.4,-.9,.8,-.6c.3,.1,.5,.5,.5,.8c.2,-.2,.4,-.3,.7,-.1Z" class="gc_59"/>
</g>
<path d="M740,765l23.1,-13.3v40.6L740,807V765Zm-42,0L674.9,751.7v40.6L698,807V765Z" class="ga_59"/>
<path d="M670.7,736.8v14L695.3,765V751Z" class="g9_59"/>
<path d="M670.7,736.8v14L695.3,765V751L670.7,736.8Z" class="ga_59"/>
<path d="M695.3,765h46.5V751H695.3v14Z" class="g9_59"/>
<path d="M695.3,765h46.5V751H695.3v14Z" class="ga_59"/>
<path d="M766.5,736.8v14L741.8,765V751Z" class="g9_59"/>
<path d="M766.5,736.8v14L741.8,765V751l24.7,-14.2Z" class="ga_59"/>
<path d="M719.3,736.2c0,0,1.9,10.4,-9.1,14.7c0,0,-5.2,1.8,-5.6,7.1l-3.1,-4.4l-9.2,5.1c0,0,1.5,-7.3,5.7,-10.3c0,0,11,-5.1,10.8,-8.3Z" class="ge_59"/>
<path d="M719.3,736.2c0,0,1.9,10.4,-9.1,14.7c0,0,-5.2,1.8,-5.6,7.1l-3.1,-4.4l-9.2,5.1c0,0,1.5,-7.3,5.7,-10.3c0,0,11,-5.1,10.8,-8.3l10.5,-3.9Z" class="ga_59"/>
<path d="M719.3,736.2c0,0,7.3,12.8,20.7,13.4c0,0,9.3,.5,11.6,7.1l1.1,-6.6c0,0,4,1.2,6,2.6c0,0,-3,-7.7,-18.7,-11.1l-9.5,-5.4Z" class="ge_59"/>
<path d="M719.3,736.2c0,0,7.3,12.8,20.7,13.4c0,0,9.3,.5,11.6,7.1l1.1,-6.6c0,0,4,1.2,6,2.6c0,0,-3,-7.7,-18.7,-11.1l-9.5,-5.4H719.3Z" class="ga_59"/>
<path d="M718.7,737.5l.4,-6.7c0,0,-13,2.9,-21.7,-1.7c0,0,-13.8,-8.3,-15.9,2.4c0,0,-.4,7.5,3.2,10.3c-5,-7.6,34,-4.3,34,-4.3Z" class="ge_59"/>
<path d="M718.7,737.5l.4,-6.7c0,0,-13,2.9,-21.7,-1.7c0,0,-13.8,-8.3,-15.9,2.4c0,0,-.4,7.5,3.2,10.3c-5,-7.6,34,-4.3,34,-4.3Z" class="ga_59"/>
<path d="M718.7,737.5c0,0,-39,-3.3,-34,4.3c.3,.2,.6,.4,1,.5c0,0,11.5,4.9,33,-4.8Z" class="gf_59"/>
<path d="M718.7,737.5c0,0,-39,-3.3,-34,4.3c.3,.2,.6,.4,1,.5c0,0,11.5,4.9,33,-4.8Z" class="ga_59"/>
<path d="M720.1,737.4l-.4,-6.6c0,0,12.9,2.9,21.6,-1.8c0,0,13.8,-8.3,16,2.4c0,0,.4,7.5,-3.2,10.2c5,-7.5,-34,-4.2,-34,-4.2Z" class="ge_59"/>
<path d="M720.1,737.4l-.4,-6.6c0,0,12.9,2.9,21.6,-1.8c0,0,13.8,-8.3,16,2.4c0,0,.4,7.5,-3.2,10.2c5,-7.5,-34,-4.2,-34,-4.2Z" class="ga_59"/>
<path d="M720.1,737.4c0,0,39,-3.3,34,4.2c-.3,.3,-.6,.5,-1,.6c0,0,-11.4,4.9,-33,-4.8Z" class="gf_59"/>
<path d="M720.1,737.4c0,0,39,-3.3,34,4.2c-.3,.3,-.6,.5,-1,.6c0,0,-11.4,4.9,-33,-4.8Z" class="ga_59"/>
<path d="M715.2,734l1.4,-7c0,0,-8.9,.3,-13.7,-6.4c0,0,-7.4,-11.8,-10.7,-.9c0,0,-1.6,8,.2,11.7c-1.9,-9.1,22.8,2.6,22.8,2.6Z" class="ge_59"/>
<path d="M715.2,734l1.4,-7c0,0,-8.9,.3,-13.7,-6.4c0,0,-7.4,-11.8,-10.7,-.9c0,0,-1.6,8,.2,11.7c-1.9,-9.1,22.8,2.6,22.8,2.6Z" class="ga_59"/>
<path d="M715.2,734c0,0,-24.7,-11.7,-22.8,-2.6c.2,.3,.3,.6,.5,.8c0,0,6.6,7.6,22.3,1.8Z" class="gf_59"/>
<path d="M715.2,734c0,0,-24.7,-11.7,-22.8,-2.6c.2,.3,.3,.6,.5,.8c0,0,6.6,7.6,22.3,1.8Z" class="ga_59"/>
<path d="M724.1,734.7l-.7,-7.1c0,0,8.8,1.2,14.3,-5c0,0,8.5,-11,10.8,.2c0,0,.8,8.1,-1.4,11.6c2.8,-8.9,-23,.3,-23,.3Z" class="ge_59"/>
<path d="M724.1,734.7l-.7,-7.1c0,0,8.8,1.2,14.3,-5c0,0,8.5,-11,10.8,.2c0,0,.8,8.1,-1.4,11.6c2.8,-8.9,-23,.3,-23,.3Z" class="ga_59"/>
<path d="M724.1,734.7c0,0,25.8,-9.2,23,-.3c-.2,.3,-.4,.5,-.6,.8c0,0,-7.3,6.9,-22.4,-.5Z" class="gf_59"/>
<path d="M724.1,734.7c0,0,25.8,-9.2,23,-.3c-.2,.3,-.4,.5,-.6,.8c0,0,-7.3,6.9,-22.4,-.5Z" class="ga_59"/>
<path d="M721.4,737.8l-4.5,-.1c-2.1,0,-3.7,-1.7,-3.7,-3.8l.1,-4.5c.1,-2.1,1.8,-3.7,3.8,-3.7l4.6,.1c2,.1,3.7,1.8,3.6,3.8l-.1,4.5c0,2.1,-1.7,3.7,-3.8,3.7Z" class="ge_59"/>
<path d="M721.4,737.8l-4.5,-.1c-2.1,0,-3.7,-1.7,-3.7,-3.8l.1,-4.5c.1,-2.1,1.8,-3.7,3.8,-3.7l4.6,.1c2,.1,3.7,1.8,3.6,3.8l-.1,4.5c0,2.1,-1.7,3.7,-3.8,3.7Zm-86.4,1V726.2c0,-5.1,4.2,-9.3,9.3,-9.3c5.1,0,9.2,4.2,9.2,9.3v12.6" class="ga_59"/>
<path d="M623.9,792.2h40.8V751.4H623.9v40.8Z" class="gg_59"/>
<path d="M623.9,792.2h40.8V751.4H623.9v40.8Z" class="ga_59"/>
<path d="M664.7,751.2H623.9l1.6,-14.3H663Z" class="gg_59"/>
<path d="M664.7,751.2H623.9l1.6,-14.3H663l1.7,14.3Z" class="ga_59"/>
<path d="M616.2,800.4H657V759.6H616.2v40.8Z" class="gg_59"/>
<path d="M616.2,800.4H657V759.6H616.2v40.8Z" class="ga_59"/>
<path d="M657,759.5H616.2l1.6,-14.4h37.5Z" class="gg_59"/>
<path d="M657,759.5H616.2l1.6,-14.4h37.5l1.7,14.4Z" class="ga_59"/>
<path d="M625.5,736.9l-7.7,8.2h37.5l7.7,-8.2Z" class="gg_59"/>
<path d="M625.5,736.9l-7.7,8.2h37.5l7.7,-8.2H625.5Z" class="ga_59"/>
<path d="M621.9,740.9h36.8" class="gh_59"/>
<path d="M664.7,751.2l-7.7,8.3v40.9l7.7,-8.2Z" class="gg_59"/>
<path d="M664.7,751.2l-7.7,8.3v40.9l7.7,-8.2v-41Z" class="ga_59"/>
<path d="M663,736.9l-7.7,8.2l1.7,14.4l7.7,-8.3Z" class="gg_59"/>
<path d="M663,736.9l-7.7,8.2l1.7,14.4l7.7,-8.3L663,736.9Zm-35.3,9.9V734.1c0,-5.1,4.2,-9.3,9.3,-9.3c5.1,0,9.2,4.2,9.2,9.3v12.7m-17.6,1c0,.5,-.4,.9,-.9,.9c-.5,0,-.9,-.4,-.9,-.9c0,-.5,.4,-.9,.9,-.9c.5,0,.9,.4,.9,.9Zm18.5,0c0,.5,-.4,.9,-.9,.9c-.5,0,-.9,-.4,-.9,-.9c0,-.5,.4,-.9,.9,-.9c.5,0,.9,.4,.9,.9Z" class="ga_59"/>
<path d="M657,774.1v11.7l-11.7,14.6H635Z" class="gi_59"/>
<path d="M657,774.1v11.7l-11.7,14.6H635l22,-26.3Z" class="gj_59"/>
<path d="M651.1,785.6c0,4.6,-3.7,8.3,-8.4,8.3c-4.6,0,-8.3,-3.7,-8.3,-8.3c0,-4.7,3.7,-8.4,8.3,-8.4c4.7,0,8.4,3.7,8.4,8.4Z" class="gk_59"/>
<path d="M651.1,785.6c0,4.6,-3.7,8.3,-8.4,8.3c-4.6,0,-8.3,-3.7,-8.3,-8.3c0,-4.7,3.7,-8.4,8.3,-8.4c4.7,0,8.4,3.7,8.4,8.4Z" class="ga_59"/>
<path d="M624.1,760.5l-4.2,-.6c-.6,1.7,-1.1,3.7,-1.1,6c0,0,-.8,6.5,-4,8.9c0,0,3,-.5,4.1,-1.8c0,0,.9,2,.6,3.6c0,0,5.5,-6.2,4.7,-15.6c0,0,-.1,-.2,-.1,-.5Z" class="gl_59"/>
<path d="M624.1,760.5l-4.2,-.6c-.6,1.7,-1.1,3.7,-1.1,6c0,0,-.8,6.5,-4,8.9c0,0,3,-.5,4.1,-1.8c0,0,.9,2,.6,3.6c0,0,5.5,-6.2,4.7,-15.6c0,0,-.1,-.2,-.1,-.5Z" class="gm_59"/>
<path d="M637.4,766.9c1.7,.3,4.2,-1.5,4.2,-1.5c-4,.4,-9.2,-4.4,-9.2,-4.4c-1.7,-1.8,-3.5,-3.1,-5.2,-4l-3.2,2.9c.6,.6,1,1.1,1,1.1c6.2,8.3,14.7,9.3,14.7,9.3c-1.4,-1.1,-2.3,-3.4,-2.3,-3.4Z" class="gl_59"/>
<path d="M637.4,766.9c1.7,.3,4.2,-1.5,4.2,-1.5c-4,.4,-9.2,-4.4,-9.2,-4.4c-1.7,-1.8,-3.5,-3.1,-5.2,-4l-3.2,2.9c.6,.6,1,1.1,1,1.1c6.2,8.3,14.7,9.3,14.7,9.3c-1.4,-1.1,-2.3,-3.4,-2.3,-3.4Z" class="gm_59"/>
<path d="M621.1,761.9l-.8,-4c0,0,-4.5,2.2,-8.4,-.2c0,0,-6.5,-4.4,-5.7,2c0,0,.9,4.4,2.7,5.9c-3,-4.2,12.2,-3.7,12.2,-3.7Z" class="gl_59"/>
<path d="M621.1,761.9l-.8,-4c0,0,-4.5,2.2,-8.4,-.2c0,0,-6.5,-4.4,-5.7,2c0,0,.9,4.4,2.7,5.9c-3,-4.2,12.2,-3.7,12.2,-3.7Z" class="gm_59"/>
<path d="M621.1,761.9c0,0,-15.2,-.5,-12.2,3.7c.1,.2,.3,.3,.4,.3c0,0,5.1,2.5,11.8,-4Z" class="gn_59"/>
<path d="M621.1,761.9c0,0,-15.2,-.5,-12.2,3.7c.1,.2,.3,.3,.4,.3c0,0,5.1,2.5,11.8,-4Z" class="gm_59"/>
<path d="M625.9,760.2l-2,-3.4c0,0,4.8,-1.4,6.2,-5.8c0,0,1.9,-7.6,5.6,-2.3c0,0,2.2,3.9,1.9,6.2c-.6,-5.1,-11.7,5.3,-11.7,5.3Z" class="gl_59"/>
<path d="M625.9,760.2l-2,-3.4c0,0,4.8,-1.4,6.2,-5.8c0,0,1.9,-7.6,5.6,-2.3c0,0,2.2,3.9,1.9,6.2c-.6,-5.1,-11.7,5.3,-11.7,5.3Z" class="gm_59"/>
<path d="M625.9,760.2c0,0,11.1,-10.4,11.7,-5.3c-.1,.2,-.1,.4,-.2,.6c0,0,-2.1,5.1,-11.5,4.7Z" class="gn_59"/>
<path d="M625.9,760.2c0,0,11.1,-10.4,11.7,-5.3c-.1,.2,-.1,.4,-.2,.6c0,0,-2.1,5.1,-11.5,4.7Z" class="gm_59"/>
<path d="M624,762.9v0c-1.7,.7,-3.7,-.1,-4.4,-1.8c-.7,-1.7,.2,-3.7,1.9,-4.4c1.7,-.7,3.6,.1,4.3,1.8c.7,1.7,-.1,3.7,-1.8,4.4Z" class="gl_59"/>
<path d="M624,762.9v0c-1.7,.7,-3.7,-.1,-4.4,-1.8c-.7,-1.7,.2,-3.7,1.9,-4.4c1.7,-.7,3.6,.1,4.3,1.8c.7,1.7,-.1,3.7,-1.8,4.4Z" class="gm_59"/>
<path d="M784.2,792.5h39V753.4h-39v39.1Z" class="go_59"/>
<path d="M784.2,792.5h39V753.4h-39v39.1Z" class="gj_59"/>
<path d="M771.6,806.5h39v-39h-39v39Z" class="go_59"/>
<path d="M771.6,806.5h39v-39h-39v39Z" class="gj_59"/>
<path d="M823.2,792.5l-12.6,14v-39l12.6,-14.1Z" class="go_59"/>
<path d="M823.2,792.5l-12.6,14v-39l12.6,-14.1v39.1Z" class="gj_59"/>
<path d="M815.9,769.5v31.2l3.7,-4.2V764.9Z" class="gi_59"/>
<path d="M815.9,769.5v31.2l3.7,-4.2V764.9l-3.7,4.6Z" class="gj_59"/>
<path d="M787.1,806.5h7.2V774.2h-7.2v32.3Z" class="gi_59"/>
<path d="M787.1,806.5h7.2V774.2h-7.2v32.3Z" class="gj_59"/>
<path d="M783.6,749.9L769,766.1h43.7l12.2,-16.2Z" class="go_59"/>
<path d="M783.6,749.9L769,766.1h43.7l12.2,-16.2H783.6Z" class="gj_59"/>
<path d="M771.6,777.1h39v-5.9h-39v5.9Z" class="gd_59"/>
<path d="M769,774.2h43.5v-8.1H769v8.1Z" class="go_59"/>
<path d="M769,774.2h43.5v-8.1H769v8.1Z" class="gj_59"/>
<path d="M824.9,749.9l-12.4,16.2v8.1l12.4,-17Z" class="go_59"/>
<path d="M824.9,749.9l-12.4,16.2v8.1l12.4,-17v-7.3Z" class="gj_59"/>
<path d="M785.7,774.2h9.6v-8.1h-9.6v8.1Z" class="gi_59"/>
<path d="M785.7,774.2h9.6v-8.1h-9.6v8.1Z" class="gj_59"/>
<path d="M795.3,766.1l12,-16.2h-9.6l-12,16.2Z" class="gi_59"/>
<path d="M795.3,766.1l12,-16.2h-9.6l-12,16.2h9.6Z" class="gj_59"/>
<path d="M778.9,755.1l-3.9,4.3h42.6l3.3,-4.3Z" class="gi_59"/>
<path d="M778.9,755.1l-3.9,4.3h42.6l3.3,-4.3h-42Z" class="gj_59"/>
<path d="M817,760.3V768l3.3,-4.6v-7.5Z" class="gi_59"/>
<path d="M817,760.3V768l3.3,-4.6v-7.5l-3.3,4.4Z" class="gj_59"/>
<path d="M788.5,754.4c-2.6,3.1,-4.4,8,-7.8,10.1c-.9,.5,-1.7,1,-2.7,1.3c-.3,.2,-.8,.2,-1.2,.4c-.9,.4,-1.6,1.5,-2.2,2.2c-.5,.5,-.9,1,-1.4,1.4c-.2,.2,-1.4,1.5,-1.6,1.4c0,0,2.2,.6,4.6,0c0,0,.6,1.8,-1.1,5.5c0,0,5.3,-5.7,9.8,-8.4c0,0,8.3,-4.9,10.4,-9.4Z" class="gi_59"/>
<path d="M788.5,754.4c-2.6,3.1,-4.4,8,-7.8,10.1c-.9,.5,-1.7,1,-2.7,1.3c-.3,.2,-.8,.2,-1.2,.4c-.9,.4,-1.6,1.5,-2.2,2.2c-.5,.5,-.9,1,-1.4,1.4c-.2,.2,-1.4,1.5,-1.6,1.4c0,0,2.2,.6,4.6,0c0,0,.6,1.8,-1.1,5.5c0,0,5.3,-5.7,9.8,-8.4c0,0,8.3,-4.9,10.4,-9.4l-6.8,-4.5Z" class="gj_59"/>
<path d="M793.1,758.9l1.1,-5.2c0,0,-6.6,.3,-10.2,-4.7c0,0,-5.4,-8.7,-7.9,-.6c0,0,-1.2,5.8,.2,8.6c-1.5,-6.8,16.8,1.9,16.8,1.9Z" class="gi_59"/>
<path d="M793.1,758.9l1.1,-5.2c0,0,-6.6,.3,-10.2,-4.7c0,0,-5.4,-8.7,-7.9,-.6c0,0,-1.2,5.8,.2,8.6c-1.5,-6.8,16.8,1.9,16.8,1.9Z" class="gj_59"/>
<path d="M793.1,758.9c0,0,-18.3,-8.7,-16.8,-1.9c.1,.2,.2,.4,.3,.6c0,0,4.9,5.6,16.5,1.3Z" class="gp_59"/>
<path d="M793.1,758.9c0,0,-18.3,-8.7,-16.8,-1.9c.1,.2,.2,.4,.3,.6c0,0,4.9,5.6,16.5,1.3Z" class="gj_59"/>
<path d="M795.3,758.9c.1,0,.4,1.1,.4,1.1c.4,1,.8,1.8,1.4,2.6c1.8,2.4,4.5,3.7,7.2,4.5c1.2,.3,2.4,1.5,3.3,2.4c.5,.5,1.1,1,1.5,1.5c.3,.3,1.2,1.3,1.1,1.7l1.4,-5.1l4.9,1c0,0,-4.3,-7,-10.6,-8.1c0,0,-10.6,-1.6,-10.6,-1.6Z" class="gi_59"/>
<path d="M795.3,758.9c.1,0,.4,1.1,.4,1.1c.4,1,.8,1.8,1.4,2.6c1.8,2.4,4.5,3.7,7.2,4.5c1.2,.3,2.4,1.5,3.3,2.4c.5,.5,1.1,1,1.5,1.5c.3,.3,1.2,1.3,1.1,1.7l1.4,-5.1l4.9,1c0,0,-4.3,-7,-10.6,-8.1c0,0,-10.6,-1.6,-10.6,-1.6Z" class="gj_59"/>
<path d="M799.7,759.4l-.5,-5.2c0,0,6.5,.9,10.5,-3.7c0,0,6.4,-8.1,8,.1c0,0,.6,6,-1,8.6c2.1,-6.6,-17,.2,-17,.2Z" class="gi_59"/>
<path d="M799.7,759.4l-.5,-5.2c0,0,6.5,.9,10.5,-3.7c0,0,6.4,-8.1,8,.1c0,0,.6,6,-1,8.6c2.1,-6.6,-17,.2,-17,.2Z" class="gj_59"/>
<path d="M799.7,759.4c0,0,19.1,-6.8,17,-.2c-.1,.2,-.3,.4,-.4,.6c0,0,-5.4,5.1,-16.6,-.4Z" class="gp_59"/>
<path d="M799.7,759.4c0,0,19.1,-6.8,17,-.2c-.1,.2,-.3,.4,-.4,.6c0,0,-5.4,5.1,-16.6,-.4Z" class="gj_59"/>
<path d="M797.1,761.7h-2.2c-1.8,-.1,-3.3,-1.6,-3.2,-3.4v-2.2c0,-1.9,1.6,-3.3,3.4,-3.3l2.2,.1c1.8,0,3.3,1.5,3.3,3.4l-.1,2.2c0,1.8,-1.5,3.3,-3.4,3.2Z" class="gi_59"/>
<path d="M797.1,761.7h-2.2c-1.8,-.1,-3.3,-1.6,-3.2,-3.4v-2.2c0,-1.9,1.6,-3.3,3.4,-3.3l2.2,.1c1.8,0,3.3,1.5,3.3,3.4l-.1,2.2c0,1.8,-1.5,3.3,-3.4,3.2Z" class="gj_59"/>
<path d="M232.3,285.4c0,0,-13,0,-13,13v21.7c0,0,0,13,13,13h602c0,0,13,0,13,-13V298.4c0,0,0,-13,-13,-13Z" class="gq_59"/>
<image clip-path="url(#cd_59)" preserveAspectRatio="none" x="175" y="256" width="75" height="76" xlink:href="img/16.png"/>
<path d="M227.1,325.7c0,0,-26.9,11.3,-51.1,-12.7c0,0,15.1,25.3,49.3,23.9c0,0,24.7,.4,20.2,-10.1c0,0,1.2,-4.5,-18.4,-1.1Z" class="gq_59"/>
<path d="M231.3,876c0,0,-13,0,-13,13v21.6c0,0,0,13,13,13H854.9c0,0,13,0,13,-13V889c0,0,0,-13,-13,-13Z" class="gq_59"/>
<image clip-path="url(#ce_59)" preserveAspectRatio="none" x="174" y="846" width="75" height="77" xlink:href="img/17.png"/>
<path d="M226.1,916.3c0,0,-26.9,11.3,-51.1,-12.8c0,0,15.2,25.3,49.3,24c0,0,24.7,.3,20.2,-10.1c0,0,1.3,-4.5,-18.4,-1.1Z" class="gq_59"/>
<path d="M153.3,213.7v22.2L165,246.2V224Z" class="gr_59"/>
<path d="M153.3,196.9v39H851.1c0,0,16.8,0,16.8,-16.8v-5.4c0,0,0,-16.8,-16.8,-16.8Z" class="g6_59"/>
<path d="M211.3,208.3l-6.5,-6.5L183.6,223l6.5,6.5Z" class="gs_59"/>
<path d="M190.1,230.1c.1,0,.3,-.1,.4,-.2l21.2,-21.2c.1,-.1,.1,-.2,.1,-.4c0,-.1,0,-.3,-.1,-.3l-6.5,-6.5c-.2,-.2,-.6,-.2,-.8,0l-21.2,21.2c-.1,.1,-.1,.2,-.1,.3c0,.2,0,.3,.1,.4l6.5,6.5c.1,.1,.3,.2,.4,.2m20.5,-21.8l-20.5,20.5L184.3,223l20.5,-20.4Z" class="gt_59"/>
<path d="M211.3,208.3l-6.5,-6.5l2.1,-2.1l6.5,6.5Z" class="gu_59"/>
<path d="M211.3,208.8c.1,0,.3,0,.4,-.1l2.1,-2.1c.1,-.1,.2,-.3,.2,-.4c0,-.2,-.1,-.3,-.2,-.4l-6.5,-6.5c-.2,-.2,-.5,-.2,-.7,0l-2.2,2.2c-.1,.1,-.1,.2,-.1,.3c0,.2,0,.3,.1,.4l6.5,6.5c.1,.1,.3,.1,.4,.1m1.4,-2.6l-1.4,1.4l-5.7,-5.8l1.3,-1.4Z" class="gt_59"/>
<path d="M217,202.6l-6.4,-6.5l-3.7,3.6l6.5,6.5Z" class="gv_59"/>
<path d="M213.4,206.7c.2,0,.3,0,.4,-.1l3.6,-3.7c.2,-.2,.2,-.5,0,-.7l-6.5,-6.5c-.2,-.2,-.5,-.2,-.7,0l-3.6,3.6c-.2,.2,-.2,.6,0,.8l6.5,6.5c.1,.1,.2,.1,.3,.1m2.9,-4.1l-2.9,2.8l-5.7,-5.7l2.9,-2.9Z" class="gt_59"/>
<path d="M179,234.2L183.6,223l6.5,6.5Z" class="g1_59"/>
<path d="M179,234.7c0,0,.1,0,.2,-.1L190.3,230c.2,0,.3,-.2,.3,-.4c0,-.1,0,-.3,-.1,-.4L184,222.7c-.1,-.2,-.3,-.2,-.5,-.2c-.2,.1,-.3,.2,-.4,.3L178.5,234c-.1,.2,0,.4,.1,.5c.1,.1,.2,.2,.4,.2m10.2,-5.4l-9.3,3.9l3.9,-9.2Z" class="gt_59"/>
<path d="M179,234.2l2.2,-5.4l3.1,3.1Z" class="gt_59"/>
<path d="M179,234.7c0,0,.1,0,.2,-.1l5.3,-2.2c.2,-.1,.3,-.2,.4,-.4c0,-.1,-.1,-.3,-.2,-.4l-3.1,-3.2c-.1,-.1,-.3,-.2,-.5,-.1c-.2,0,-.3,.1,-.4,.3l-2.2,5.4c-.1,.2,0,.4,.1,.5c.1,.1,.2,.2,.4,.2m4.4,-3l-3.5,1.5l1.5,-3.5Z" class="gt_59"/>
<path d="M209.5,206.6l-2.9,-3l-21.2,21.2l2.9,3Z" class="gw_59"/>
<path d="M188.3,228.3c.2,0,.3,-.1,.4,-.2l21.2,-21.2c.1,-.1,.2,-.2,.2,-.3c0,-.2,-.1,-.3,-.2,-.4l-3,-3c-.2,-.2,-.5,-.2,-.7,0L185,224.4c-.1,.1,-.2,.3,-.2,.4c0,.1,.1,.3,.2,.4l3,2.9c.1,.1,.2,.2,.3,.2m20.5,-21.7L188.3,227l-2.2,-2.2l20.5,-20.5Z" class="gt_59"/>
<path d="M32.1,179.3H967.5V32.1H32.1V179.3Z" class="gx_59"/>
<g clip-path="url(#c0_59)">
<path d="M967.5,177.2H-877.3v-5.4h736.6c43.1,0,53.1,-37.9,115.3,-37.9H967.5Z" class="gy_59"/>
<path d="M967.5,183.7H-877.3v-9.8h736.6c43.1,0,53.1,-33.6,115.3,-33.6H967.5Z" class="gz_59"/>
</g>
<image clip-path="url(#cf_59)" preserveAspectRatio="none" x="659" y="59" width="200" height="118" xlink:href="img/18.png"/>
<path d="M32.1,45.1H9.2m958.3,0h22.9M32.1,1331.3H9.2m958.3,0h22.9M45.1,32.1V9.2m0,1335.1v22.9M954.5,32.1V9.2m0,1335.1v22.9" class="g10_59"/>
<path d="M32.1,45.1H9.2m958.3,0h22.9M32.1,1331.3H9.2m958.3,0h22.9M45.1,32.1V9.2m0,1335.1v22.9M954.5,32.1V9.2m0,1335.1v22.9" class="g11_59"/>
<path d="M27.5,32.1H0m972.1,0h27.5M27.5,1344.3H0m972.1,0h27.5M32.1,27.5V0m0,1348.9v27.5M967.5,27.5V0m0,1348.9v27.5" class="g10_59"/>
<path d="M27.5,32.1H0m972.1,0h27.5M27.5,1344.3H0m972.1,0h27.5M32.1,27.5V0m0,1348.9v27.5M967.5,27.5V0m0,1348.9v27.5" class="g11_59"/>
</svg>