<?xml version="1.0" encoding="UTF-8" standalone="no"?>
<!DOCTYPE svg PUBLIC "-//W3C//DTD SVG 1.1//EN"
"http://www.w3.org/Graphics/SVG/1.1/DTD/svg11.dtd">
<svg viewBox="0 0 999 1376" version="1.1" xmlns="http://www.w3.org/2000/svg" xmlns:xlink="http://www.w3.org/1999/xlink">
<defs>
<clipPath id="c0_36"><path d="M32.1,1344.3V32.1H967.5V1344.3Z"/></clipPath>
<clipPath id="c1_36"><path d="M177.8,562l-6.5,-2.1l-16.4,-14V488.8h72V562Z"/></clipPath>
<clipPath id="c2_36"><path d="M176.6,943.5l-6.5,-2.1L153.7,927.5V870.4h72v73.1Z"/></clipPath>
<clipPath id="c3_36"><path d="M178.4,137.2c.1,-1.3,.7,-2.5,1.6,-3.4c1,-1,2.4,-1.6,3.9,-1.6h19.2v5Z"/></clipPath>
<clipPath id="c4_36"><path d="M177.9,137.7v-6h25.7v6Z"/></clipPath>
<style type="text/css"><![CDATA[
.g0_36{
fill: #FEFCF4;
}
.g1_36{
fill: #DEF1F3;
}
.g2_36{
fill: #8FD5E3;
}
.g3_36{
fill: #FFF;
}
.g4_36{
fill: none;
stroke: #58595B;
stroke-width: 0.381;
stroke-miterlimit: 10;
}
.g5_36{
fill: none;
stroke: #6381B7;
stroke-width: 0.763;
}
.g6_36{
fill: none;
stroke: #231F20;
stroke-width: 0.305;
stroke-miterlimit: 10;
}
.g7_36{
fill: #48484A;
}
.g8_36{
fill: #F0E8F3;
}
.g9_36{
fill: #766FA6;
}
.ga_36{
fill: #6381B7;
}
.gb_36{
fill: none;
stroke: #6381B7;
stroke-width: 0.381;
stroke-dasharray: 2,1;
}
.gc_36{
fill: none;
stroke: #6381B7;
stroke-width: 0.381;
}
.gd_36{
fill: #FCE8B0;
}
.ge_36{
fill: #FEFBEE;
}
.gf_36{
fill: none;
stroke: #231F20;
stroke-width: 0.42;
stroke-miterlimit: 10;
}
.gg_36{
fill: #25408F;
}
.gh_36{
fill: none;
stroke: #231F20;
stroke-width: 1.527;
}
.gi_36{
fill: #39B4D1;
stroke: #2D2A4A;
stroke-width: 1.038;
stroke-linecap: round;
stroke-linejoin: round;
}
.gj_36{
fill: #2D2A4A;
}
.gk_36{
fill: none;
stroke: #2D2A4A;
stroke-width: 1.038;
stroke-linecap: round;
stroke-linejoin: round;
}
.gl_36{
fill: #DEDAD3;
}
.gm_36{
fill: #29263F;
}
.gn_36{
fill: #E15F46;
stroke: #2D2A4A;
stroke-width: 1.038;
stroke-linecap: round;
stroke-linejoin: round;
}
.go_36{
fill: #F0F5FA;
}
.gp_36{
fill: none;
stroke: #7CA7D8;
stroke-width: 1.527;
stroke-linecap: round;
stroke-linejoin: round;
stroke-dasharray: 0,5;
}
.gq_36{
fill: none;
stroke: #7CA7D8;
stroke-width: 1.527;
stroke-linecap: round;
stroke-linejoin: round;
}
.gr_36{
fill: #7CA7D8;
}
.gs_36{
fill: #BFD62F;
}
.gt_36{
fill: #3D3B39;
}
.gu_36{
fill: #F5CA58;
}
.gv_36{
fill: none;
stroke: #FFF;
stroke-width: 1.909;
stroke-miterlimit: 10;
}
.gw_36{
fill: none;
stroke: #000;
stroke-width: 0.381;
stroke-miterlimit: 10;
}
]]></style>
</defs>
<path clip-path="url(#c0_36)" d="M954.5,1344.3H1877V32.1H954.5V1344.3Z" class="g0_36"/>
<path d="M149,166.3c0,0,-17.3,0,-17.3,17.4V445.4c0,0,0,17.4,17.3,17.4H828.9c0,0,17.4,0,17.4,-17.4V183.7c0,0,0,-17.4,-17.4,-17.4Z" class="g1_36"/>
<path d="M243.2,211H435.7v30.3H243.2V211Zm192.5,0H734.8v30.3H435.7V211Z" class="g2_36"/>
<path d="M243.2,241.3H435.7v30.3H243.2V241.3Zm192.5,0H734.8v30.3H435.7V241.3Z" class="g3_36"/>
<path d="M243.2,211H435.7m0,0H734.8M435.7,241.1V211.2M243.2,241.3H435.7m0,0H734.8M435.7,271.4V241.5M243.2,271.6H435.7m0,0H734.8" class="g4_36"/>
<path d="M145.1,571.6c0,0,-13,0,-13,13V798.7c0,0,0,13,13,13H832.9c0,0,13,0,13,-13V584.6c0,0,0,-13,-13,-13Z" class="g3_36"/>
<path d="M145.1,571.6c0,0,-13,0,-13,13V798.7c0,0,0,13,13,13H832.9c0,0,13,0,13,-13V584.6c0,0,0,-13,-13,-13H145.1Z" class="g5_36"/>
<path d="M284.2,679.8h64.4M310,748.5h64.5M241.1,797.4h64.5" class="g6_36"/>
<path d="M726.7,648.9c0,0,-4.3,0,-4.3,4.3v14.4c0,0,0,4.3,4.2,5.5l43.6,12.2c0,0,4.2,1.2,4.2,-3.1v-29c0,0,0,-4.3,-4.4,-4.3Z" class="g7_36"/>
<path d="M747.9,638.2c0,0,-13,0,-13,13v104c0,0,0,12.9,13,12.9H810c0,0,13,0,13,-12.9v-104c0,0,0,-13,-13,-13Z" class="g8_36"/>
<path d="M726.7,646.7c0,0,-4.3,0,-4.3,4.4V668c0,0,0,4.3,4.3,4.3H764c0,0,4.4,0,4.4,-4.3V651.1c0,0,0,-4.4,-4.4,-4.4Z" class="g9_36"/>
<path d="M660.4,825.1c0,0,-4.3,0,-4.3,4.3v10.8c0,0,0,4.4,4.3,4.4h30.3c0,0,4.4,0,4.4,-4.4V829.4c0,0,0,-4.3,-4.4,-4.3Z" class="ga_36"/>
<path d="M647.2,817.6v34.8m1.4,1H845.1m1,-1.3V817.2m-1.4,-1H648.2" class="gb_36"/>
<path d="M647.2,852.8v.6h.6m197.7,0h.6v-.6m0,-36v-.6h-.6m-197.7,0h-.6v.6" class="gc_36"/>
<path d="M210.4,517c0,0,-13,0,-13,13v21.6c0,0,0,13,13,13H833.3c0,0,13,0,13,-13V530c0,0,0,-13,-13,-13Z" class="gd_36"/>
<image clip-path="url(#c1_36)" preserveAspectRatio="none" x="153" y="487" width="75" height="77" xlink:href="img/1.png"/>
<path d="M205.2,557.3c0,0,-26.8,11.3,-51.1,-12.8c0,0,15.2,25.3,49.3,24c0,0,24.7,.3,20.2,-10.1c0,0,1.3,-4.5,-18.4,-1.1Z" class="gd_36"/>
<path d="M379.2,1045.4c0,0,-4.3,0,-4.3,4.3v10.9c0,0,0,4.3,4.3,4.3h30.4c0,0,4.3,0,4.3,-4.3v-10.9c0,0,0,-4.3,-4.3,-4.3Z" class="ga_36"/>
<path d="M366.1,1037.9v34.9m1.3,1H844.6m.9,-1.4v-34.9m-1.3,-.9H367" class="gb_36"/>
<path d="M366.1,1073.2v.6h.5m478.3,0h.6v-.6m0,-36v-.6h-.6m-478.3,0h-.5v.6" class="gc_36"/>
<path d="M145.1,859.2c0,0,-13,0,-13,13v146.5c0,0,0,13,13,13H832.9c0,0,13,0,13,-13V872.2c0,0,0,-13,-13,-13Z" class="ge_36"/>
<path d="M318.5,980.8H464.4m193.2,0H803.5M336.2,1014H482" class="gf_36"/>
<path d="M145.1,859.2c0,0,-13,0,-13,13v146.5c0,0,0,13,13,13H832.9c0,0,13,0,13,-13V872.2c0,0,0,-13,-13,-13H145.1Z" class="g5_36"/>
<path d="M209.2,898.6c0,0,-13,0,-13,12.9v21.7c0,0,0,13,13,13h602c0,0,13,0,13,-13V911.5c0,0,0,-12.9,-13,-12.9Z" class="gd_36"/>
<image clip-path="url(#c2_36)" preserveAspectRatio="none" x="152" y="869" width="75" height="76" xlink:href="img/2.png"/>
<path d="M204,938.8c0,0,-26.8,11.3,-51.1,-12.7c0,0,15.2,25.3,49.3,23.9c0,0,24.8,.4,20.3,-10.1c0,0,1.2,-4.4,-18.5,-1.1Z" class="gd_36"/>
<path d="M131.7,109.5v39l11.7,10.2V136.5Z" class="gg_36"/>
<path d="M131.7,109.5v39H829.5c0,0,16.8,0,16.8,-16.8v-5.4c0,0,0,-16.8,-16.8,-16.8Z" class="ga_36"/>
<path d="M768.8,131c0,0,-.5,-10,8.6,-9.4c0,0,6.7,-.3,6.6,9.5m-15.3,-1.5v6.5c0,0,-3.3,.3,-3.9,-3c0,0,-.1,-3.8,3.9,-3.5Zm15.4,0v6.5c0,0,3.3,.3,3.9,-3c0,0,.1,-3.8,-3.9,-3.5Z" class="gh_36"/>
<path d="M147.4,140.8h61v-32h-61v32Z" class="gi_36"/>
<path d="M147.4,143.1h61v-2.3h-61v2.3Z" class="gi_36"/>
<path d="M171.8,106.2H152.1v31.5h25.8V112.3c0,-3.4,-2.7,-6.1,-6.1,-6.1Z" class="g3_36"/>
<path d="M171.8,106.2v-.5H152.1c-.1,0,-.3,.1,-.4,.2c-.1,.1,-.1,.2,-.1,.3v31.5c0,.1,0,.3,.1,.4c.1,.1,.3,.1,.4,.1h25.8c.1,0,.2,0,.3,-.1c.1,-.1,.2,-.3,.2,-.4V112.3c0,-3.7,-2.9,-6.6,-6.6,-6.6v1c1.6,0,2.9,.7,3.9,1.7c1,1,1.6,2.3,1.6,3.9v24.9H152.6V106.7h19.2Z" class="gj_36"/>
<path d="M152.1,131.7v6h25.8c0,-3.3,-2.7,-6,-6.1,-6Z" class="g3_36"/>
<path d="M152.1,131.7h-.5v6c0,.1,0,.3,.1,.4c.1,.1,.3,.1,.4,.1h25.8c.1,0,.2,0,.3,-.1c.1,-.1,.2,-.3,.2,-.4c0,-3.6,-3,-6.6,-6.6,-6.6H152.1c-.1,0,-.3,.1,-.4,.2c-.1,.1,-.1,.2,-.1,.4h.5v.5h19.7c1.6,0,2.9,.6,3.9,1.6c1,1,1.6,2.4,1.6,3.9h.6v-.5H152.6v-5.5h-.5v.5Z" class="gj_36"/>
<path d="M155.6,110.9h17.2m-17.2,2.8h17.2m-17.2,2.9h17.2m-17.2,2.9h17.2m-17.2,2.8h17.2m-17.2,2.9h17.2M155.6,128h17.2" class="gk_36"/>
<path d="M171.8,132.2H152.6v5h24.7c-.1,-1.3,-.7,-2.5,-1.6,-3.4c-1,-1,-2.3,-1.6,-3.9,-1.6Z" class="gl_36"/>
<path d="M152.6,132.2h19.2c1.6,0,2.9,.6,3.9,1.6c.9,.9,1.5,2.1,1.6,3.4H152.6Zm19.2,-.5H152.1v6h25.2v-2.5c-.9,-2.1,-3,-3.5,-5.5,-3.5Z" class="gm_36"/>
<path d="M183.9,106.2h19.7v31.5H177.9V112.3c0,-3.4,2.7,-6.1,6,-6.1Z" class="g3_36"/>
<path d="M183.9,106.2v.5h19.2v30.5H178.4V112.3c0,-1.6,.6,-2.9,1.6,-3.9c1,-1,2.4,-1.7,3.9,-1.7v-1c-3.6,0,-6.6,2.9,-6.6,6.6v25.4c0,.1,.1,.3,.2,.4c.1,.1,.2,.1,.4,.1h25.7c.2,0,.3,0,.4,-.1c.1,-.1,.1,-.3,.1,-.4V106.2c0,-.1,0,-.2,-.1,-.3c-.1,-.1,-.2,-.2,-.4,-.2H183.9Z" class="gj_36"/>
<path d="M203.6,131.7v6H177.9c0,-3.3,2.7,-6,6,-6Z" class="g3_36"/>
<path d="M203.6,131.7h-.5v5.5H177.9v.5h.5c0,-1.5,.6,-2.9,1.6,-3.9c1,-1,2.4,-1.6,3.9,-1.6h19.7v-.5h-.5h.5v-.6H183.9c-3.6,0,-6.6,3,-6.6,6.6c0,.1,.1,.3,.2,.4c.1,.1,.2,.1,.4,.1h25.7c.2,0,.3,0,.4,-.1c.1,-.1,.1,-.3,.1,-.4v-6c0,-.2,0,-.3,-.1,-.4c-.1,-.1,-.2,-.2,-.4,-.2Z" class="gj_36"/>
<path d="M200.1,110.9H182.9m17.2,2.8H182.9m17.2,2.9H182.9m17.2,2.9H182.9m17.2,2.8H182.9m17.2,2.9H182.9m17.2,2.8H182.9" class="gk_36"/>
<path clip-path="url(#c3_36)" d="M178.4,137.2h24.7v-5H178.4v5Z" class="gl_36"/>
<path clip-path="url(#c4_36)" d="M178.4,137.2c.1,-1.3,.7,-2.5,1.6,-3.4c1,-1,2.4,-1.6,3.9,-1.6h19.2v5Zm25.2,-5.5H183.9c-3.3,0,-6,2.7,-6,6h25.7v-6h-.5h.5Z" class="gm_36"/>
<path d="M177.9,108.8v34.3" class="gk_36"/>
<path d="M195.5,145.5h3.3V134.7h-3.3v10.8Z" class="gn_36"/>
<path d="M129.9,1244.1h713V1121.2h-713v122.9Z" class="go_36"/>
<path d="M129.9,1125.7v116.1m4.5,2.3H840.6m2.3,-4.6V1123.4m-4.6,-2.2H132.1" class="gp_36"/>
<path d="M129.9,1244.1v0m713,0v0m0,-122.9v0m-713,0v0" class="gq_36"/>
<path d="M129.1,1124.4v-28.6c0,0,0,-8.7,8.7,-8.7H835c0,0,8.7,0,8.7,8.7V1125Z" class="gr_36"/>
<path d="M171.2,1091.2c3.4,0,6.1,-2.7,6.1,-6.1c0,-3.4,-2.7,-6.1,-6.1,-6.1c-3.3,0,-6,2.7,-6,6.1c0,3.4,2.7,6.1,6,6.1Z" class="gs_36"/>
<path d="M171.2,1093.1c4.5,0,8.1,-3.6,8.1,-8c0,-4.4,-3.6,-8,-8.1,-8c-4.4,0,-8,3.6,-8,8c0,4.4,3.6,8,8,8m0,-14.1c3.4,0,6.1,2.7,6.1,6.1c0,3.4,-2.7,6.1,-6.1,6.1c-3.3,0,-6,-2.7,-6,-6.1c0,-3.4,2.7,-6.1,6,-6.1Z" class="gt_36"/>
<path d="M156.6,1107.2h29.3v-3.8c0,-4.4,-3.6,-7.9,-8,-7.9H164.6c-4.4,0,-8,3.5,-8,7.9Z" class="gs_36"/>
<path d="M148.3,1112.6h45.9v-3.5H148.3v3.5Z" class="g3_36"/>
<path d="M195.1,1107.2h-2.6v-11.5c0,-.3,-.1,-.5,-.3,-.7l-2.6,-2.6c.3,-.5,.5,-1.1,.5,-1.8c0,-2,-1.6,-3.6,-3.6,-3.6c-2,0,-3.7,1.6,-3.7,3.6c0,2,1.7,3.6,3.7,3.6c.6,0,1.2,-.1,1.7,-.4l2.4,2.3v11.1h-2.8v-3.8c0,-5.4,-4.4,-9.8,-9.9,-9.8H164.6c-5.5,0,-9.9,4.4,-9.9,9.8v3.8h-7.3c-.6,0,-1,.4,-1,1v5.3c0,.6,.4,1,1,1H150v11.3c0,.5,.5,.9,1,.9h40.5c.5,0,1,-.4,1,-.9v-11.3h2.6c.6,0,1,-.4,1,-1v-5.3c0,-.6,-.4,-1,-1,-1m-8.6,-14.9c-1,0,-1.7,-.7,-1.7,-1.7c0,-.9,.7,-1.6,1.7,-1.6c.9,0,1.6,.7,1.6,1.6c0,1,-.7,1.7,-1.6,1.7m7.7,20.3H148.3v-3.5h45.9Zm-3.7,12.2H152v-10.3h38.5v10.3Zm-25.9,-29.3h13.3c4.4,0,8,3.5,8,7.9v3.8H156.6v-3.8c0,-4.4,3.6,-7.9,8,-7.9Z" class="gt_36"/>
<path d="M152,1124.8h38.5v-10.3H152v10.3Zm2.8,-7.5c0,-.3,.2,-.5,.4,-.5h32.1c.2,0,.4,.2,.4,.5v4.7c0,.3,-.2,.5,-.4,.5H155.2c-.2,0,-.4,-.2,-.4,-.5Z" class="g3_36"/>
<path d="M155.7,1121.5h31.1v-3.7H155.7v3.7Z" class="gu_36"/>
<path d="M155.2,1122.5h32.1c.2,0,.4,-.2,.4,-.5v-4.7c0,-.3,-.2,-.5,-.4,-.5H155.2c-.2,0,-.4,.2,-.4,.5v4.7c0,.3,.2,.5,.4,.5m.5,-4.7h31.1v3.7H155.7Z" class="gt_36"/>
<path d="M188.1,1090.6c0,-.9,-.7,-1.6,-1.6,-1.6c-1,0,-1.7,.7,-1.7,1.6c0,1,.7,1.7,1.7,1.7c.9,0,1.6,-.7,1.6,-1.7Z" class="g3_36"/>
<path d="M32.1,45.1H9.2m958.3,0h22.9M32.1,1331.3H9.2m958.3,0h22.9M45.1,32.1V9.2m0,1335.1v22.9M954.5,32.1V9.2m0,1335.1v22.9" class="gv_36"/>
<path d="M32.1,45.1H9.2m958.3,0h22.9M32.1,1331.3H9.2m958.3,0h22.9M45.1,32.1V9.2m0,1335.1v22.9M954.5,32.1V9.2m0,1335.1v22.9" class="gw_36"/>
<path d="M27.5,32.1H0m972.1,0h27.5M27.5,1344.3H0m972.1,0h27.5M32.1,27.5V0m0,1348.9v27.5M967.5,27.5V0m0,1348.9v27.5" class="gv_36"/>
<path d="M27.5,32.1H0m972.1,0h27.5M27.5,1344.3H0m972.1,0h27.5M32.1,27.5V0m0,1348.9v27.5M967.5,27.5V0m0,1348.9v27.5" class="gw_36"/>
</svg>