<?xml version="1.0" encoding="UTF-8" standalone="no"?>
<!DOCTYPE svg PUBLIC "-//W3C//DTD SVG 1.1//EN"
"http://www.w3.org/Graphics/SVG/1.1/DTD/svg11.dtd">
<svg viewBox="0 0 999 1376" version="1.1" xmlns="http://www.w3.org/2000/svg" xmlns:xlink="http://www.w3.org/1999/xlink">
<defs>
<clipPath id="c0_7"><path d="M32.1,1344.3V32.1H967.5V1344.3Z"/></clipPath>
<clipPath id="c1_7"><path d="M221,304.1V291.7h14.5v12.4Z"/></clipPath>
<clipPath id="c2_7"><path d="M757.9,139V63.2H865.1V139Z"/></clipPath>
<style type="text/css"><![CDATA[
.g0_7{
fill: #E0EDE2;
}
.g1_7{
fill: #FFF;
}
.g2_7{
fill: #FCD6CD;
}
.g3_7{
fill: #CDBCDB;
}
.g4_7{
fill: none;
stroke: #976EAF;
stroke-width: 0.432;
}
.g5_7{
fill: #F0E8F3;
}
.g6_7{
fill: none;
stroke: #C8A8CF;
stroke-width: 0.432;
}
.g7_7{
fill: none;
stroke: #231F20;
stroke-width: 1.527;
}
.g8_7{
fill: #A8AAAD;
}
.g9_7{
fill: none;
stroke: #949698;
stroke-width: 0.549;
}
.ga_7{
fill: none;
stroke: #BCBEC0;
stroke-width: 2.566;
}
.gb_7{
fill: #231F20;
}
.gc_7{
fill: #818385;
}
.gd_7{
fill: none;
stroke: #FFF;
stroke-width: 1.909;
stroke-miterlimit: 10;
}
.ge_7{
fill: none;
stroke: #000;
stroke-width: 0.381;
stroke-miterlimit: 10;
}
]]></style>
</defs>
<path d="M32.1,1344.3H967.5V32.1H32.1V1344.3Z" class="g0_7"/>
<g clip-path="url(#c0_7)">
<path d="M-782.6,105.7c0,0,-18.3,0,-18.3,18.3V1213c0,0,0,18.3,18.3,18.3H873.9c0,0,18.4,0,18.4,-18.3V124c0,0,0,-18.3,-18.4,-18.3Z" class="g1_7"/>
<path d="M-781,112.6c0,0,-18.3,0,-18.3,18.3V1232.8c0,0,0,18.4,18.3,18.4H875.6c0,0,18.3,0,18.3,-18.4V130.9c0,0,0,-18.3,-18.3,-18.3Z" class="g1_7"/>
<path d="M-624.4,105.7v33.4H880.1c0,0,13.8,0,13.8,-13.8v-5.8c0,0,0,-13.8,-13.8,-13.8Z" class="g2_7"/>
</g>
<path d="M136.2,274.8c0,0,-4.3,0,-4.3,4.4v501c0,0,0,4.3,4.3,4.3h51.6c0,0,4.3,0,4.3,-4.3v-501c0,0,0,-4.4,-4.3,-4.4Z" class="g3_7"/>
<path d="M136.2,274.8c0,0,-4.3,0,-4.3,4.4v501c0,0,0,4.3,4.3,4.3h51.6c0,0,4.3,0,4.3,-4.3v-501c0,0,0,-4.4,-4.3,-4.4H136.2Z" class="g4_7"/>
<path d="M215.6,731.5c0,0,-13,0,-13,13V774c0,0,0,13,13,13H833.1c0,0,13,0,13,-13V744.5c0,0,0,-13,-13,-13Z" class="g5_7"/>
<path d="M215.6,731.5c0,0,-13,0,-13,13V774c0,0,0,13,13,13H833.1c0,0,13,0,13,-13V744.5c0,0,0,-13,-13,-13H215.6Z" class="g6_7"/>
<path d="M226.7,759.2c0,0,-.5,-9.9,8.6,-9.3c0,0,6.8,-.4,6.7,9.5m-15.3,-1.5v6.5c0,0,-3.4,.3,-4,-3c0,0,0,-3.8,4,-3.5Zm15.4,0v6.5c0,0,3.3,.3,3.9,-3c0,0,0,-3.8,-3.9,-3.5Z" class="g7_7"/>
<path d="M215.6,277.6c0,0,-13,0,-13,13v27.1c0,0,0,13,13,13H833.1c0,0,13,0,13,-13V290.6c0,0,0,-13,-13,-13Z" class="g5_7"/>
<path d="M215.6,277.6c0,0,-13,0,-13,13v27.1c0,0,0,13,13,13H833.1c0,0,13,0,13,-13V290.6c0,0,0,-13,-13,-13H215.6Z" class="g6_7"/>
<path d="M237.1,317.1c8.3,0,14.9,-6.5,14.9,-14.5c0,-7.9,-6.6,-14.4,-14.9,-14.4c-8.2,0,-14.9,6.5,-14.9,14.4c0,8,6.7,14.5,14.9,14.5Z" class="g8_7"/>
<path d="M237.1,317.1c8.3,0,14.9,-6.5,14.9,-14.5c0,-7.9,-6.6,-14.4,-14.9,-14.4c-8.2,0,-14.9,6.5,-14.9,14.4c0,8,6.7,14.5,14.9,14.5Z" class="g9_7"/>
<path d="M237.1,308c3.1,0,5.5,-2.4,5.5,-5.4c0,-2.9,-2.4,-5.3,-5.5,-5.3c-3,0,-5.5,2.4,-5.5,5.3c0,3,2.5,5.4,5.5,5.4Z" class="g1_7"/>
<path d="M237.1,308c3.1,0,5.5,-2.4,5.5,-5.4c0,-2.9,-2.4,-5.3,-5.5,-5.3c-3,0,-5.5,2.4,-5.5,5.3c0,3,2.5,5.4,5.5,5.4Z" class="ga_7"/>
<g clip-path="url(#c1_7)" opacity="0.3">
<path d="M222.6,301.9v0c0,0,-.1,-4.8,3.6,-8.6L234,300c0,0,-1,.9,-1.1,2.6Z" class="g1_7"/>
</g>
<path d="M241.7,302.5c0,0,-3.4,0,-3.4,3.5v8.7c0,0,0,3.4,3.4,3.4h97.7c0,0,3.4,0,3.4,-3.4V306c0,0,0,-3.5,-3.4,-3.5Z" class="gb_7"/>
<path d="M215.6,337.9c0,0,-13,0,-13,13V378c0,0,0,13,13,13H833.1c0,0,13,0,13,-13V350.9c0,0,0,-13,-13,-13Z" class="g5_7"/>
<path d="M215.6,337.9c0,0,-13,0,-13,13V378c0,0,0,13,13,13H833.1c0,0,13,0,13,-13V350.9c0,0,0,-13,-13,-13H215.6Z" class="g6_7"/>
<path d="M226.7,365.6c0,0,-.5,-9.9,8.6,-9.3c0,0,6.8,-.4,6.7,9.5m-15.3,-1.5v6.5c0,0,-3.4,.3,-4,-3c0,0,0,-3.8,4,-3.5Zm15.4,0v6.5c0,0,3.3,.3,3.9,-3c0,0,0,-3.8,-3.9,-3.5Z" class="g7_7"/>
<path d="M215.6,398.2c0,0,-13,0,-13,13v27c0,0,0,13,13,13H833.1c0,0,13,0,13,-13v-27c0,0,0,-13,-13,-13Z" class="g5_7"/>
<path d="M215.6,398.2c0,0,-13,0,-13,13v27c0,0,0,13,13,13H833.1c0,0,13,0,13,-13v-27c0,0,0,-13,-13,-13H215.6Z" class="g6_7"/>
<path d="M226.7,425.9c0,0,-.5,-9.9,8.6,-9.3c0,0,6.8,-.4,6.7,9.5m-15.3,-1.5v6.5c0,0,-3.4,.3,-4,-3c0,0,0,-3.8,4,-3.5Zm15.4,0v6.5c0,0,3.3,.3,3.9,-3c0,0,0,-3.8,-3.9,-3.5Z" class="g7_7"/>
<path d="M215.6,458.5c0,0,-13,0,-13,13V479c0,0,0,13,13,13H833.1c0,0,13,0,13,-13v-7.5c0,0,0,-13,-13,-13Z" class="g5_7"/>
<path d="M215.6,458.5c0,0,-13,0,-13,13V479c0,0,0,13,13,13H833.1c0,0,13,0,13,-13v-7.5c0,0,0,-13,-13,-13H215.6Z" class="g6_7"/>
<path d="M226.7,476.5c0,0,-.5,-9.9,8.6,-9.3c0,0,6.8,-.4,6.7,9.4m-15.3,-1.5v6.5c0,0,-3.4,.3,-4,-3c0,0,0,-3.7,4,-3.5Zm15.4,0v6.5c0,0,3.3,.3,3.9,-3c0,0,0,-3.7,-3.9,-3.5Z" class="g7_7"/>
<path d="M215.6,499.3c0,0,-13,0,-13,13v82.1c0,0,0,13,13,13H833.1c0,0,13,0,13,-13V512.3c0,0,0,-13,-13,-13Z" class="g5_7"/>
<path d="M215.6,499.3c0,0,-13,0,-13,13v82.1c0,0,0,13,13,13H833.1c0,0,13,0,13,-13V512.3c0,0,0,-13,-13,-13H215.6Z" class="g6_7"/>
<path d="M226.7,552.2c0,0,-.5,-9.9,8.6,-9.3c0,0,6.8,-.4,6.7,9.5m-15.3,-1.5v6.5c0,0,-3.4,.3,-4,-3c0,0,0,-3.8,4,-3.5Zm15.4,0v6.5c0,0,3.3,.3,3.9,-3c0,0,0,-3.8,-3.9,-3.5Z" class="g7_7"/>
<path d="M215.6,614.3c0,0,-13,0,-13,13v85.3c0,0,0,13,13,13H833.1c0,0,13,0,13,-13V627.3c0,0,0,-13,-13,-13Z" class="g5_7"/>
<path d="M215.6,614.3c0,0,-13,0,-13,13v85.3c0,0,0,13,13,13H833.1c0,0,13,0,13,-13V627.3c0,0,0,-13,-13,-13H215.6Z" class="g6_7"/>
<path d="M226.7,669.7c0,0,-.5,-9.9,8.6,-9.3c0,0,6.8,-.4,6.7,9.5m-15.3,-1.6v6.5c0,0,-3.4,.4,-4,-3c0,0,0,-3.7,4,-3.5Zm15.4,0v6.5c0,0,3.3,.4,3.9,-3c0,0,0,-3.7,-3.9,-3.5Z" class="g7_7"/>
<path d="M382.7,572.7h15.6V557.2H382.7v15.5Z" class="gc_7"/>
<path d="M382.7,690.4h15.6V674.8H382.7v15.6Z" class="gc_7"/>
<image clip-path="url(#c2_7)" preserveAspectRatio="none" x="758" y="63" width="107" height="76" xlink:href="img/1.png"/>
<path d="M32.1,45.1H9.2m958.3,0h22.9M32.1,1331.3H9.2m958.3,0h22.9M45.1,32.1V9.2m0,1335.1v22.9M954.5,32.1V9.2m0,1335.1v22.9" class="gd_7"/>
<path d="M32.1,45.1H9.2m958.3,0h22.9M32.1,1331.3H9.2m958.3,0h22.9M45.1,32.1V9.2m0,1335.1v22.9M954.5,32.1V9.2m0,1335.1v22.9" class="ge_7"/>
<path d="M27.5,32.1H0m972.1,0h27.5M27.5,1344.3H0m972.1,0h27.5M32.1,27.5V0m0,1348.9v27.5M967.5,27.5V0m0,1348.9v27.5" class="gd_7"/>
<path d="M27.5,32.1H0m972.1,0h27.5M27.5,1344.3H0m972.1,0h27.5M32.1,27.5V0m0,1348.9v27.5M967.5,27.5V0m0,1348.9v27.5" class="ge_7"/>
</svg>