<?xml version="1.0" encoding="UTF-8" standalone="no"?>
<!DOCTYPE svg PUBLIC "-//W3C//DTD SVG 1.1//EN"
"http://www.w3.org/Graphics/SVG/1.1/DTD/svg11.dtd">
<svg viewBox="0 0 999 1376" version="1.1" xmlns="http://www.w3.org/2000/svg" xmlns:xlink="http://www.w3.org/1999/xlink">
<defs>
<clipPath id="c0_24"><path d="M32.1,1344.3V32.1H967.5V1344.3Z"/></clipPath>
<clipPath id="c1_24"><path d="M187.9,895.9V829.4h69.5v66.5Z"/></clipPath>
<clipPath id="c2_24"><path d="M268,892.4V829.6h66.6v62.8Z"/></clipPath>
<clipPath id="c3_24"><path d="M187.9,801.2V733.9h67.2v67.3Z"/></clipPath>
<clipPath id="c4_24"><path d="M265,800.8V734.2h73.5v66.6Z"/></clipPath>
<clipPath id="c5_24"><path d="M186,652.6l-6.5,-2.1L163.1,636.6V579.5H235v73.1Z"/></clipPath>
<clipPath id="c6_24"><path d="M173.5,1063.5l-6.5,-2.1l-16.4,-13.9V990.4h71.9v73.1Z"/></clipPath>
<clipPath id="c7_24"><path d="M178.4,137.2c.1,-1.3,.7,-2.5,1.6,-3.4c1,-1,2.4,-1.6,3.9,-1.6h19.2v5Z"/></clipPath>
<clipPath id="c8_24"><path d="M177.9,137.7v-6h25.7v6Z"/></clipPath>
<style type="text/css"><![CDATA[
.g0_24{
fill: #FEFCF4;
}
.g1_24{
fill: #DEF1F3;
}
.g2_24{
fill: #FFF;
}
.g3_24{
fill: none;
stroke: #6381B7;
stroke-width: 0.763;
}
.g4_24{
fill: none;
stroke: #231F20;
stroke-width: 0.305;
stroke-miterlimit: 10;
}
.g5_24{
fill: #6381B7;
}
.g6_24{
fill: none;
stroke: #6381B7;
stroke-width: 0.381;
stroke-dasharray: 2,1;
}
.g7_24{
fill: none;
stroke: #6381B7;
stroke-width: 0.381;
}
.g8_24{
fill: none;
stroke: #231F20;
stroke-width: 0.458;
stroke-miterlimit: 10;
}
.g9_24{
fill: #FCE8B0;
}
.ga_24{
fill: #25408F;
}
.gb_24{
fill: none;
stroke: #231F20;
stroke-width: 1.527;
}
.gc_24{
fill: #39B4D1;
stroke: #2D2A4A;
stroke-width: 1.038;
stroke-linecap: round;
stroke-linejoin: round;
}
.gd_24{
fill: #2D2A4A;
}
.ge_24{
fill: none;
stroke: #2D2A4A;
stroke-width: 1.038;
stroke-linecap: round;
stroke-linejoin: round;
}
.gf_24{
fill: #DEDAD3;
}
.gg_24{
fill: #29263F;
}
.gh_24{
fill: #E15F46;
stroke: #2D2A4A;
stroke-width: 1.038;
stroke-linecap: round;
stroke-linejoin: round;
}
.gi_24{
fill: none;
stroke: #FFF;
stroke-width: 1.909;
stroke-miterlimit: 10;
}
.gj_24{
fill: none;
stroke: #000;
stroke-width: 0.381;
stroke-miterlimit: 10;
}
]]></style>
</defs>
<path clip-path="url(#c0_24)" d="M954.5,1344.3H1877V32.1H954.5V1344.3Z" class="g0_24"/>
<path d="M149,166.3c0,0,-17.3,0,-17.3,17.4V492.5c0,0,0,17.3,17.3,17.3H828.6c0,0,17.3,0,17.3,-17.3V183.7c0,0,0,-17.4,-17.3,-17.4Z" class="g1_24"/>
<path d="M145.1,665.1c0,0,-13,0,-13,13V914.6c0,0,0,13,13,13H832.9c0,0,13,0,13,-13V678.1c0,0,0,-13,-13,-13Z" class="g2_24"/>
<path d="M145.1,665.1c0,0,-13,0,-13,13V914.6c0,0,0,13,13,13H832.9c0,0,13,0,13,-13V678.1c0,0,0,-13,-13,-13H145.1Z" class="g3_24"/>
<image clip-path="url(#c1_24)" preserveAspectRatio="none" x="187" y="828" width="70" height="69" xlink:href="img/1.jpg"/>
<image clip-path="url(#c2_24)" preserveAspectRatio="none" x="268" y="828" width="67" height="64" xlink:href="img/2.jpg"/>
<path d="M416.7,893.9H528.4m47.4,0H687.5" class="g4_24"/>
<path d="M206.1,827.4H331.9V810.7H206.1v16.7Z" class="g2_24"/>
<path d="M477.1,777.1H588.8m60.3,0H760.8" class="g4_24"/>
<image clip-path="url(#c3_24)" preserveAspectRatio="none" x="188" y="734" width="66" height="67" xlink:href="img/3.jpg"/>
<image clip-path="url(#c4_24)" preserveAspectRatio="none" x="265" y="734" width="74" height="68" xlink:href="img/4.jpg"/>
<path d="M530.5,942.6c0,0,-4.3,0,-4.3,4.4v10.8c0,0,0,4.3,4.3,4.3h30.3c0,0,4.3,0,4.3,-4.3V947c0,0,0,-4.4,-4.3,-4.4Z" class="g5_24"/>
<path d="M517.3,935.2V970m1.3,1H845.1m1,-1.4V934.8m-1.4,-1H518.3" class="g6_24"/>
<path d="M517.3,970.4v.6h.6m327.6,0h.6v-.6m0,-36v-.6h-.6m-327.6,0h-.6v.6" class="g7_24"/>
<path d="M145.1,983.8c0,0,-13,0,-13,13v187.6c0,0,0,13,13,13H832.9c0,0,13,0,13,-13V996.8c0,0,0,-13,-13,-13Z" class="g0_24"/>
<path d="M298.7,1097.2h88.6m-57.5,27.5h88.6m-133,27.5H374m-39.8,27.5h88.6" class="g8_24"/>
<path d="M145.1,983.8c0,0,-13,0,-13,13v187.6c0,0,0,13,13,13H832.9c0,0,13,0,13,-13V996.8c0,0,0,-13,-13,-13H145.1Z" class="g3_24"/>
<path d="M534.5,1212.6c0,0,-4.3,0,-4.3,4.3v10.8c0,0,0,4.4,4.3,4.4h30.3c0,0,4.3,0,4.3,-4.4v-10.8c0,0,0,-4.3,-4.3,-4.3Z" class="g5_24"/>
<path d="M521.3,1205.1v34.8m1.3,1H845.1m1,-1.4v-34.8m-1.4,-1H522.3" class="g6_24"/>
<path d="M521.3,1240.3v.6h.6m323.6,0h.6v-.6m0,-36v-.6h-.6m-323.6,0h-.6v.6" class="g7_24"/>
<path d="M218.6,581.6c0,0,-13,0,-13,13v47.7c0,0,0,13,13,13H833.3c0,0,13,0,13,-13V594.6c0,0,0,-13,-13,-13Z" class="g9_24"/>
<image clip-path="url(#c5_24)" preserveAspectRatio="none" x="161" y="578" width="75" height="76" xlink:href="img/5.png"/>
<path d="M213.4,647.9c0,0,-26.9,11.3,-51.1,-12.8c0,0,15.1,25.4,49.3,24c0,0,24.7,.4,20.2,-10.1c0,0,1.2,-4.5,-18.4,-1.1Z" class="g9_24"/>
<path d="M206.1,1015.9c0,0,-13,0,-13,13v21.7c0,0,0,13,13,13H815.2c0,0,13,0,13,-13v-21.7c0,0,0,-13,-13,-13Z" class="g9_24"/>
<image clip-path="url(#c6_24)" preserveAspectRatio="none" x="149" y="989" width="75" height="76" xlink:href="img/6.png"/>
<path d="M200.9,1058.8c0,0,-26.9,11.3,-51.1,-12.8c0,0,15.1,25.4,49.3,24c0,0,24.7,.3,20.2,-10.1c0,0,1.2,-4.5,-18.4,-1.1Z" class="g9_24"/>
<path d="M131.7,109.5v39l11.7,10.2V136.5Z" class="ga_24"/>
<path d="M131.7,109.5v39H829.5c0,0,16.8,0,16.8,-16.8v-5.4c0,0,0,-16.8,-16.8,-16.8Z" class="g5_24"/>
<path d="M768.8,131c0,0,-.5,-10,8.6,-9.4c0,0,6.7,-.3,6.6,9.5m-15.3,-1.5v6.5c0,0,-3.3,.3,-3.9,-3c0,0,-.1,-3.8,3.9,-3.5Zm15.4,0v6.5c0,0,3.3,.3,3.9,-3c0,0,.1,-3.8,-3.9,-3.5Z" class="gb_24"/>
<path d="M147.4,140.8h61v-32h-61v32Z" class="gc_24"/>
<path d="M147.4,143.1h61v-2.3h-61v2.3Z" class="gc_24"/>
<path d="M171.8,106.2H152.1v31.5h25.8V112.3c0,-3.4,-2.7,-6.1,-6.1,-6.1Z" class="g2_24"/>
<path d="M171.8,106.2v-.5H152.1c-.1,0,-.3,.1,-.4,.2c-.1,.1,-.1,.2,-.1,.3v31.5c0,.1,0,.3,.1,.4c.1,.1,.3,.1,.4,.1h25.8c.1,0,.2,0,.3,-.1c.1,-.1,.2,-.3,.2,-.4V112.3c0,-3.7,-2.9,-6.6,-6.6,-6.6v1c1.6,0,2.9,.7,3.9,1.7c1,1,1.6,2.3,1.6,3.9v24.9H152.6V106.7h19.2Z" class="gd_24"/>
<path d="M152.1,131.7v6h25.8c0,-3.3,-2.7,-6,-6.1,-6Z" class="g2_24"/>
<path d="M152.1,131.7h-.5v6c0,.1,0,.3,.1,.4c.1,.1,.3,.1,.4,.1h25.8c.1,0,.2,0,.3,-.1c.1,-.1,.2,-.3,.2,-.4c0,-3.6,-3,-6.6,-6.6,-6.6H152.1c-.1,0,-.3,.1,-.4,.2c-.1,.1,-.1,.2,-.1,.4h.5v.5h19.7c1.6,0,2.9,.6,3.9,1.6c1,1,1.6,2.4,1.6,3.9h.6v-.5H152.6v-5.5h-.5v.5Z" class="gd_24"/>
<path d="M155.6,110.9h17.2m-17.2,2.8h17.2m-17.2,2.9h17.2m-17.2,2.9h17.2m-17.2,2.8h17.2m-17.2,2.9h17.2M155.6,128h17.2" class="ge_24"/>
<path d="M171.8,132.2H152.6v5h24.7c-.1,-1.3,-.7,-2.5,-1.6,-3.4c-1,-1,-2.3,-1.6,-3.9,-1.6Z" class="gf_24"/>
<path d="M152.6,132.2h19.2c1.6,0,2.9,.6,3.9,1.6c.9,.9,1.5,2.1,1.6,3.4H152.6Zm19.2,-.5H152.1v6h25.2v-2.5c-.9,-2.1,-3,-3.5,-5.5,-3.5Z" class="gg_24"/>
<path d="M183.9,106.2h19.7v31.5H177.9V112.3c0,-3.4,2.7,-6.1,6,-6.1Z" class="g2_24"/>
<path d="M183.9,106.2v.5h19.2v30.5H178.4V112.3c0,-1.6,.6,-2.9,1.6,-3.9c1,-1,2.4,-1.7,3.9,-1.7v-1c-3.6,0,-6.6,2.9,-6.6,6.6v25.4c0,.1,.1,.3,.2,.4c.1,.1,.2,.1,.4,.1h25.7c.2,0,.3,0,.4,-.1c.1,-.1,.1,-.3,.1,-.4V106.2c0,-.1,0,-.2,-.1,-.3c-.1,-.1,-.2,-.2,-.4,-.2H183.9Z" class="gd_24"/>
<path d="M203.6,131.7v6H177.9c0,-3.3,2.7,-6,6,-6Z" class="g2_24"/>
<path d="M203.6,131.7h-.5v5.5H177.9v.5h.5c0,-1.5,.6,-2.9,1.6,-3.9c1,-1,2.4,-1.6,3.9,-1.6h19.7v-.5h-.5h.5v-.6H183.9c-3.6,0,-6.6,3,-6.6,6.6c0,.1,.1,.3,.2,.4c.1,.1,.2,.1,.4,.1h25.7c.2,0,.3,0,.4,-.1c.1,-.1,.1,-.3,.1,-.4v-6c0,-.2,0,-.3,-.1,-.4c-.1,-.1,-.2,-.2,-.4,-.2Z" class="gd_24"/>
<path d="M200.1,110.9H182.9m17.2,2.8H182.9m17.2,2.9H182.9m17.2,2.9H182.9m17.2,2.8H182.9m17.2,2.9H182.9m17.2,2.8H182.9" class="ge_24"/>
<path clip-path="url(#c7_24)" d="M178.4,137.2h24.7v-5H178.4v5Z" class="gf_24"/>
<path clip-path="url(#c8_24)" d="M178.4,137.2c.1,-1.3,.7,-2.5,1.6,-3.4c1,-1,2.4,-1.6,3.9,-1.6h19.2v5Zm25.2,-5.5H183.9c-3.3,0,-6,2.7,-6,6h25.7v-6h-.5h.5Z" class="gg_24"/>
<path d="M177.9,108.8v34.3" class="ge_24"/>
<path d="M195.5,145.5h3.3V134.7h-3.3v10.8Z" class="gh_24"/>
<path d="M32.1,45.1H9.2m958.3,0h22.9M32.1,1331.3H9.2m958.3,0h22.9M45.1,32.1V9.2m0,1335.1v22.9M954.5,32.1V9.2m0,1335.1v22.9" class="gi_24"/>
<path d="M32.1,45.1H9.2m958.3,0h22.9M32.1,1331.3H9.2m958.3,0h22.9M45.1,32.1V9.2m0,1335.1v22.9M954.5,32.1V9.2m0,1335.1v22.9" class="gj_24"/>
<path d="M27.5,32.1H0m972.1,0h27.5M27.5,1344.3H0m972.1,0h27.5M32.1,27.5V0m0,1348.9v27.5M967.5,27.5V0m0,1348.9v27.5" class="gi_24"/>
<path d="M27.5,32.1H0m972.1,0h27.5M27.5,1344.3H0m972.1,0h27.5M32.1,27.5V0m0,1348.9v27.5M967.5,27.5V0m0,1348.9v27.5" class="gj_24"/>
</svg>