<?xml version="1.0" encoding="UTF-8" standalone="no"?>
<!DOCTYPE svg PUBLIC "-//W3C//DTD SVG 1.1//EN"
"http://www.w3.org/Graphics/SVG/1.1/DTD/svg11.dtd">
<svg viewBox="0 0 999 1376" version="1.1" xmlns="http://www.w3.org/2000/svg" xmlns:xlink="http://www.w3.org/1999/xlink">
<defs>
<clipPath id="c0_3"><path d="M32.1,1344.3V32.1H967.5V1344.3Z"/></clipPath>
<clipPath id="c1_3"><path d="M646.7,1077.6V785H857.3v292.6Z"/></clipPath>
<clipPath id="c2_3"><path d="M658.8,1071c-6.9,0,-6.9,-6.9,-6.9,-6.9v-267c0,-6.9,6.9,-6.9,6.9,-6.9H843.5c6.8,0,6.8,6.9,6.8,6.9v267c0,6.9,-6.8,6.9,-6.8,6.9Z"/></clipPath>
<clipPath id="c3_3"><path d="M688.1,1030.3v-21.1h23.1v21.1Z"/></clipPath>
<clipPath id="c4_3"><path d="M738.2,1030.3v-21.1h23v21.1Z"/></clipPath>
<clipPath id="c5_3"><path d="M713.2,1030.3v-21.1h23v21.1Z"/></clipPath>
<clipPath id="c6_3"><path d="M763.2,1030.3v-21.1h23v21.1Z"/></clipPath>
<clipPath id="c7_3"><path d="M690.8,903.5V885.8h23.3v17.7Z"/></clipPath>
<clipPath id="c8_3"><path d="M725,903.5V885.8h23.2v17.7Z"/></clipPath>
<clipPath id="c9_3"><path d="M759.1,903.5V885.8h23.1v17.7Z"/></clipPath>
<clipPath id="ca_3"><path d="M793.1,903.5V885.8h23.3v17.7Z"/></clipPath>
<clipPath id="cb_3"><path d="M690.8,933V915.2h23.3V933Z"/></clipPath>
<clipPath id="cc_3"><path d="M725,933V915.2h23.2V933Z"/></clipPath>
<clipPath id="cd_3"><path d="M759.1,933V915.2h23.3V933Z"/></clipPath>
<clipPath id="ce_3"><path d="M793.2,933V915.2h23.2V933Z"/></clipPath>
<clipPath id="cf_3"><path d="M690.8,962.8V945.1h23.3v17.7Z"/></clipPath>
<clipPath id="cg_3"><path d="M725,962.8V945.1h23.2v17.7Z"/></clipPath>
<clipPath id="ch_3"><path d="M759.1,962.8V945.1h23.3v17.7Z"/></clipPath>
<clipPath id="ci_3"><path d="M793.1,962.8V945.1h23.3v17.7Z"/></clipPath>
<clipPath id="cj_3"><path d="M691,873.6V855.8h23.1v17.8Z"/></clipPath>
<clipPath id="ck_3"><path d="M725.1,873.6V855.8h23v17.8Z"/></clipPath>
<clipPath id="cl_3"><path d="M759.1,873.6V855.8h23.3v17.8Z"/></clipPath>
<clipPath id="cm_3"><path d="M793.1,873.6V855.8h23.3v17.8Z"/></clipPath>
<clipPath id="cn_3"><path d="M685.5,852l-1.4,-.5l-3.6,-3V836h15.7v16Z"/></clipPath>
<clipPath id="co_3"><path d="M685.4,991.9l-1.4,-.4l-3.6,-3.1V976h15.7v15.9Z"/></clipPath>
<clipPath id="cp_3"><path d="M785.8,819V793.2h43.6V819Z"/></clipPath>
<clipPath id="cq_3"><path d="M135.4,562.2V269.6H346V562.2Z"/></clipPath>
<clipPath id="cr_3"><path d="M147.5,555.6c-6.9,0,-6.9,-6.8,-6.9,-6.8V281.7c0,-6.9,6.9,-6.9,6.9,-6.9H332.2c6.8,0,6.8,6.9,6.8,6.9V548.8c0,6.8,-6.8,6.8,-6.8,6.8Z"/></clipPath>
<clipPath id="cs_3"><path d="M169.3,385.7l-1.5,-.5l-3.5,-3V369.7H180v16Z"/></clipPath>
<clipPath id="ct_3"><path d="M169.3,505.4l-1.5,-.4l-3.5,-3.1V489.5H180v15.9Z"/></clipPath>
<clipPath id="cu_3"><path d="M148.9,454.4V398.8h50.3v55.6Z"/></clipPath>
<clipPath id="cv_3"><path d="M149.7,453.5V399h49.7v54.5Z"/></clipPath>
<clipPath id="cw_3"><path d="M149.6,453.4V398.9h49.8v54.5Z"/></clipPath>
<clipPath id="cx_3"><path d="M173.4,402.7c-.1,0,.8,-1.8,.8,-1.8l.2,.2c0,0,-.9,1.6,-1,1.6Z"/></clipPath>
<clipPath id="cy_3"><path d="M175,401c0,0,-1.5,-.2,-1.6,-1.1c-.2,-.8,.3,-.8,.4,-.8q.1,0,.1,0l1.8,-2.8l-.3,-.7c0,0,-.2,-.2,0,-.4c0,0,0,-.1,.1,-.1c.4,0,2.8,1.3,2.8,1.3c-.1,.1,-.2,.2,-.3,.3c-.1,.2,-1.1,.3,-1.1,.3l-1.9,4Z"/></clipPath>
<clipPath id="cz_3"><path d="M175,401c0,-.1,0,-.4,0,-.5v-.3c-.4,-.1,-.7,-.3,-.8,-.6c-.3,.2,-.5,.3,-.7,.4c.3,.5,.8,.8,1.5,1Zm0,-.9c.4,-1,.8,-2,1.3,-3c-.2,-.1,-.4,-.3,-.6,-.4c-.5,1,-1,1.9,-1.5,2.8c.1,.3,.4,.5,.8,.6Zm-1.6,2.7v0c.2,-.7,.5,-1.2,.7,-1.9c-.4,-.3,-.8,-.6,-.9,-1.3v-.3c0,-.6,.4,-.8,1,-.8c.4,-.7,.9,-1.3,1.4,-2.1c-.2,-.2,-.3,-.5,-.2,-.8c.1,.3,.3,.4,.5,.7c0,.1,-.1,.2,-.1,.3c.1,.2,.3,.3,.5,.3c.1,-.1,.1,-.2,.3,-.3c.2,.1,.4,.2,.7,.2c0,0,.1,0,.1,0c.1,0,.2,0,.2,0c0,0,.1,0,.1,0c0,0,.1,0,.1,0q.1,-.1,.1,-.1q.1,0,.1,0c-.3,.2,-.5,.4,-.9,.4c0,0,-.1,0,-.1,0c-.2,.9,-.4,1.6,-.6,2.5c.2,.2,.4,.3,.3,.7c-.1,.6,-.8,.9,-1.6,.9c-.2,0,-.5,0,-.7,-.1c-.3,.4,-.5,.9,-.8,1.3c0,-.1,.1,-.1,.1,-.2c.2,-.4,.4,-.8,.6,-1.2c-.3,.3,-.4,.8,-.6,1.2c-.1,.1,-.1,.2,-.2,.3c0,0,0,.2,-.1,.3Z"/></clipPath>
<clipPath id="c10_3"><path d="M177.2,396.7c-1,0,-2.8,-1.6,-1.2,-1.9h.3c0,0,.1,0,.1,0c.1,0,.2,0,.3,0c.7,.1,1.8,.8,1.6,1.5c0,.3,-.3,.4,-.7,.4h-.3q-.1,0,-.1,0Z"/></clipPath>
<clipPath id="c11_3"><path d="M297.7,359.9v-2.7h3.1v2.7Z"/></clipPath>
<clipPath id="c12_3"><path d="M158.1,349.4V309.9h160v39.5Z"/></clipPath>
<clipPath id="c13_3"><path d="M283.8,460.1V404.5h49.3v55.6Z"/></clipPath>
<clipPath id="c14_3"><path d="M282,461.3V403.5h51.8v57.8Z"/></clipPath>
<clipPath id="c15_3"><path d="M282,461.3V403.4h51.7v57.9Z"/></clipPath>
<clipPath id="c16_3"><path d="M306.2,408.1c-.1,0,.7,-1.8,.7,-1.8l.2,.1c0,0,-.9,1.7,-.9,1.7Z"/></clipPath>
<clipPath id="c17_3"><path d="M307.8,406.4c0,0,-1.5,-.3,-1.7,-1.2c-.1,-.7,.4,-.8,.5,-.8l1.8,-2.8l-.3,-.6c0,0,-.1,-.3,.1,-.5c.5,0,2.9,1.2,2.9,1.2c-.1,.1,-.2,.3,-.3,.4c-.2,.1,-1.1,.2,-1.1,.2l-1.9,4.1Z"/></clipPath>
<clipPath id="c18_3"><path d="M307.7,406.3c.1,-.1,.1,-.4,0,-.5v-.3c-.3,-.1,-.6,-.3,-.8,-.5c-.2,.1,-.4,.2,-.7,.4c.4,.4,.9,.7,1.5,.9Zm0,-.8c.5,-1,.9,-2.1,1.4,-3.1c-.2,-.1,-.4,-.3,-.6,-.3c-.5,.9,-1,1.9,-1.6,2.8c.2,.3,.5,.4,.8,.6Zm-1.6,2.6c.3,-.6,.5,-1.2,.8,-1.8c-.4,-.4,-.9,-.7,-1,-1.4v-.3c0,-.6,.5,-.7,1.1,-.7c.4,-.8,.9,-1.4,1.3,-2.2c-.1,-.1,-.2,-.5,-.2,-.7c.1,.2,.4,.4,.6,.6c-.1,.1,-.1,.2,-.1,.4c.1,.1,.3,.2,.5,.3c.1,-.1,.1,-.3,.2,-.4c.2,.1,.4,.2,.7,.2q.1,0,.2,0q.1,0,.2,0q.1,0,.2,0c0,0,.1,0,.1,0h.1c-.3,.1,-.5,.4,-.9,.4q-.1,0,-.1,0c-.2,.8,-.4,1.6,-.6,2.4c.1,.2,.3,.4,.3,.7c-.1,.6,-.9,.9,-1.6,.9c-.3,0,-.5,0,-.8,-.1c-.2,.4,-.4,.9,-.7,1.3c0,-.1,.1,-.1,.1,-.2c.2,-.4,.4,-.7,.5,-1.2c-.2,.4,-.4,.8,-.6,1.2c0,.1,-.1,.2,-.1,.3c-.1,.1,-.1,.2,-.2,.3Z"/></clipPath>
<clipPath id="c19_3"><path d="M310,402c-1,0,-2.9,-1.6,-1.2,-1.9h.3c0,0,.1,0,.1,0c.1,0,.2,0,.2,0c.7,.2,1.8,.9,1.7,1.6c-.1,.2,-.3,.3,-.7,.3H310Z"/></clipPath>
<style type="text/css"><![CDATA[
.g0_3{
fill: #E0EDE2;
}
.g1_3{
fill: #FFF;
}
.g2_3{
fill: #FCD6CD;
}
.g3_3{
fill: #FEFCF4;
}
.g4_3{
fill: none;
stroke: #6381B7;
stroke-width: 0.166;
}
.g5_3{
fill: #6381B7;
}
.g6_3{
fill: none;
stroke: #6381B7;
stroke-width: 0.152;
stroke-dasharray: 1,1;
}
.g7_3{
fill: none;
stroke: #6381B7;
stroke-width: 0.152;
}
.g8_3{
fill: none;
stroke: #949698;
stroke-width: 0.152;
}
.g9_3{
fill: #48484A;
}
.ga_3{
fill: #F0E8F3;
}
.gb_3{
fill: #766FA6;
}
.gc_3{
fill: none;
stroke: #949698;
stroke-width: 0.276;
}
.gd_3{
fill: #FCE8B0;
}
.ge_3{
fill: #2E6E51;
}
.gf_3{
fill: #BCBEC0;
}
.gg_3{
fill: #EE314A;
}
.gh_3{
fill: #25408F;
}
.gi_3{
fill: #00BAF1;
}
.gj_3{
fill: #332D2C;
}
.gk_3{
fill: #D9DFF0;
}
.gl_3{
fill: #F27C85;
}
.gm_3{
fill: #7DD3F6;
}
.gn_3{
fill: none;
stroke: #6D6F71;
stroke-width: 0.484;
}
.go_3{
fill: #F7C2D9;
}
.gp_3{
fill: #FDF4F3;
}
.gq_3{
fill: #EC008C;
}
.gr_3{
fill: none;
stroke: #818385;
stroke-width: 0.152;
stroke-dasharray: 1,1;
}
.gs_3{
fill: none;
stroke: #818385;
stroke-width: 0.152;
}
.gt_3{
fill: none;
stroke: #949698;
stroke-width: 0.152;
stroke-dasharray: 1,1;
}
.gu_3{
fill: #6D6F71;
}
.gv_3{
fill: none;
stroke: #FFF;
stroke-width: 0.152;
stroke-miterlimit: 1;
}
.gw_3{
fill: #A8AAAD;
}
.gx_3{
fill: none;
stroke: #BCBEC0;
stroke-width: 0.56;
}
.gy_3{
fill: #231F20;
}
.gz_3{
fill: #363637;
}
.g10_3{
fill: #5CC4BE;
}
.g11_3{
fill: #EAD646;
}
.g12_3{
fill: #CEEDFB;
}
.g13_3{
fill: #27639D;
}
.g14_3{
fill: none;
stroke: #204A78;
stroke-width: 0.333;
}
.g15_3{
fill: none;
stroke: #FFF;
stroke-width: 1.909;
stroke-miterlimit: 10;
}
.g16_3{
fill: none;
stroke: #000;
stroke-width: 0.381;
stroke-miterlimit: 10;
}
]]></style>
</defs>
<path d="M32.1,1344.3H967.5V32.1H32.1V1344.3Z" class="g0_3"/>
<g clip-path="url(#c0_3)">
<path d="M-781,112.6c0,0,-18.3,0,-18.3,18.3V1233.6c0,0,0,18.3,18.3,18.3H875.6c0,0,18.3,0,18.3,-18.3V130.9c0,0,0,-18.3,-18.3,-18.3Z" class="g1_3"/>
<path d="M-624.4,105.7v33.4H880.1c0,0,13.8,0,13.8,-13.8v-5.8c0,0,0,-13.8,-13.8,-13.8Z" class="g2_3"/>
</g>
<image clip-path="url(#c1_3)" preserveAspectRatio="none" x="646" y="785" width="211" height="293" xlink:href="img/1.png"/>
<path d="M658.8,790.2c0,0,-6.9,0,-6.9,6.9v267c0,0,0,6.9,6.9,6.9H843.5c0,0,6.8,0,6.8,-6.9v-267c0,0,0,-6.9,-6.8,-6.9Z" class="g1_3"/>
<g clip-path="url(#c2_3)">
<path d="M450.5,1073.8H651.9V787.4H450.5v286.4Z" class="g3_3"/>
<path d="M651.9,1073.8H853.2V787.4H651.9v286.4Z" class="g3_3"/>
<path d="M679.7,829.3c0,0,-4,0,-4,4V970.8c0,0,0,4,4,4H827.5c0,0,4,0,4,-4V829.3Z" class="g1_3"/>
<path d="M679.7,829.3c0,0,-4,0,-4,4V970.8c0,0,0,4,4,4H827.5c0,0,4,0,4,-4V829.3H679.7Z" class="g4_3"/>
<path d="M743.3,1045.5c0,0,-1,0,-1,1v2.4c0,0,0,.9,1,.9h6.6c0,0,.9,0,.9,-.9v-2.4c0,0,0,-1,-.9,-1Z" class="g5_3"/>
<path d="M740.4,1043.6v8.2m.3,.2h90.7m.2,-.3v-8.2m-.2,-.2H740.6" class="g6_3"/>
<path d="M740.4,1051.9v.1h.1m91,0h.1v-.1m0,-8.5v-.1h-.1m-91,0h-.1v.1" class="g7_3"/>
<path d="M678.6,994.3c0,0,-2.8,0,-2.8,2.8v41.4c0,0,0,2.9,2.8,2.9H828.7c0,0,2.9,0,2.9,-2.9V997.1c0,0,0,-2.8,-2.9,-2.8Z" class="g1_3"/>
<path d="M678.6,994.3c0,0,-2.8,0,-2.8,2.8v41.4c0,0,0,2.9,2.8,2.9H828.7c0,0,2.9,0,2.9,-2.9V997.1c0,0,0,-2.8,-2.9,-2.8H678.6Z" class="g4_3"/>
<path d="M685.5,1016.6H828.6V1003H685.5v13.6Z" class="g1_3"/>
</g>
<image clip-path="url(#c3_3)" preserveAspectRatio="none" x="688" y="1009" width="23" height="21" xlink:href="img/2.jpg"/>
<path d="M688.1,1037.3h23.1v-7.1H688.1v7.1Z" class="g8_3"/>
<image clip-path="url(#c4_3)" preserveAspectRatio="none" x="738" y="1009" width="23" height="21" xlink:href="img/3.jpg"/>
<path d="M738.2,1037.3h23v-7.1h-23v7.1Z" class="g8_3"/>
<image clip-path="url(#c5_3)" preserveAspectRatio="none" x="713" y="1009" width="23" height="21" xlink:href="img/4.jpg"/>
<path d="M713.2,1037.3h23v-7.1h-23v7.1Z" class="g8_3"/>
<image clip-path="url(#c6_3)" preserveAspectRatio="none" x="763" y="1009" width="23" height="21" xlink:href="img/5.jpg"/>
<path d="M763.2,1037.3h23v-7.1h-23v7.1Z" class="g8_3"/>
<g clip-path="url(#c2_3)">
<path d="M790.3,1011.7c0,0,-1,0,-1,.9v3.3c0,0,0,.9,.9,1.2l11.5,4.1c0,0,.8,.3,.8,-.7v-7.9c0,0,0,-.9,-.9,-.9Z" class="g9_3"/>
<path d="M794.9,1008.9c0,0,-2.9,0,-2.9,2.8v22.9c0,0,0,2.8,2.9,2.8H825c0,0,2.9,0,2.9,-2.8v-22.9c0,0,0,-2.8,-2.9,-2.8Z" class="ga_3"/>
<path d="M790.3,1011.2c0,0,-1,0,-1,1v3.8c0,0,0,.9,1,.9h8.1c0,0,.9,0,.9,-.9v-3.8c0,0,0,-1,-.9,-1Z" class="gb_3"/>
<path d="M687,908.7H827.2V885H687v23.7Z" class="g1_3"/>
</g>
<image clip-path="url(#c7_3)" preserveAspectRatio="none" x="691" y="885" width="23" height="19" xlink:href="img/6.jpg"/>
<path d="M690.8,903.5h23.3V885.8H690.8v17.7Z" class="gc_3"/>
<image clip-path="url(#c8_3)" preserveAspectRatio="none" x="725" y="885" width="23" height="19" xlink:href="img/7.jpg"/>
<path d="M725,903.5h23.2V885.8H725v17.7Z" class="gc_3"/>
<image clip-path="url(#c9_3)" preserveAspectRatio="none" x="759" y="885" width="23" height="19" xlink:href="img/8.jpg"/>
<path d="M759.1,903.5h23.3V885.8H759.1v17.7Z" class="gc_3"/>
<image clip-path="url(#ca_3)" preserveAspectRatio="none" x="793" y="885" width="24" height="19" xlink:href="img/9.jpg"/>
<path d="M793.1,903.5h23.3V885.8H793.1v17.7Z" class="gc_3"/>
<g clip-path="url(#c2_3)">
<path d="M684.5,912.9h137v-8.5h-137v8.5Z" class="g1_3"/>
<path d="M687,933.2H826.3V914.1H687v19.1Z" class="g1_3"/>
</g>
<image clip-path="url(#cb_3)" preserveAspectRatio="none" x="691" y="915" width="23" height="18" xlink:href="img/10.jpg"/>
<path d="M690.8,933h23.3V915.2H690.8V933Z" class="gc_3"/>
<image clip-path="url(#cc_3)" preserveAspectRatio="none" x="725" y="915" width="23" height="18" xlink:href="img/11.jpg"/>
<path d="M725,933h23.2V915.2H725V933Z" class="gc_3"/>
<image clip-path="url(#cd_3)" preserveAspectRatio="none" x="759" y="915" width="24" height="18" xlink:href="img/12.jpg"/>
<path d="M759.1,933h23.3V915.2H759.1V933Z" class="gc_3"/>
<image clip-path="url(#ce_3)" preserveAspectRatio="none" x="793" y="915" width="24" height="18" xlink:href="img/13.jpg"/>
<path d="M793.1,933h23.3V915.2H793.1V933Z" class="gc_3"/>
<g clip-path="url(#c2_3)">
<path d="M684.5,942.5h137V934h-137v8.5Z" class="g1_3"/>
<path d="M687,964.1H827.2V943.8H687v20.3Z" class="g1_3"/>
</g>
<image clip-path="url(#cf_3)" preserveAspectRatio="none" x="691" y="945" width="23" height="18" xlink:href="img/14.jpg"/>
<path d="M690.8,962.8h23.3V945.1H690.8v17.7Z" class="gc_3"/>
<image clip-path="url(#cg_3)" preserveAspectRatio="none" x="725" y="945" width="23" height="18" xlink:href="img/15.jpg"/>
<path d="M725,962.8h23.2V945.1H725v17.7Z" class="gc_3"/>
<image clip-path="url(#ch_3)" preserveAspectRatio="none" x="759" y="945" width="24" height="18" xlink:href="img/16.jpg"/>
<path d="M759.1,962.8h23.3V945.1H759.1v17.7Z" class="gc_3"/>
<image clip-path="url(#ci_3)" preserveAspectRatio="none" x="793" y="945" width="24" height="18" xlink:href="img/17.jpg"/>
<path d="M793.1,962.8h23.3V945.1H793.1v17.7Z" class="gc_3"/>
<path clip-path="url(#c2_3)" d="M684.5,972.5h137V964h-137v8.5Z" class="g1_3"/>
<image clip-path="url(#cj_3)" preserveAspectRatio="none" x="691" y="855" width="23" height="19" xlink:href="img/18.jpg"/>
<path d="M690.8,873.6h23.3V855.8H690.8v17.8Z" class="gc_3"/>
<image clip-path="url(#ck_3)" preserveAspectRatio="none" x="725" y="856" width="23" height="18" xlink:href="img/19.jpg"/>
<path d="M725,873.6h23.2V855.8H725v17.8Z" class="gc_3"/>
<image clip-path="url(#cl_3)" preserveAspectRatio="none" x="759" y="856" width="24" height="18" xlink:href="img/20.jpg"/>
<path d="M759.1,873.6h23.3V855.8H759.1v17.8Z" class="gc_3"/>
<image clip-path="url(#cm_3)" preserveAspectRatio="none" x="793" y="855" width="24" height="19" xlink:href="img/21.jpg"/>
<path d="M793.1,873.6h23.3V855.8H793.1v17.8Z" class="gc_3"/>
<g clip-path="url(#c2_3)">
<path d="M684.5,883.1h137v-8.5h-137v8.5Z" class="g1_3"/>
<path d="M692.6,842.1c0,0,-2.8,0,-2.8,2.9v4.7c0,0,0,2.8,2.8,2.8H824c0,0,2.9,0,2.9,-2.8V845c0,0,0,-2.9,-2.9,-2.9Z" class="gd_3"/>
</g>
<image clip-path="url(#cn_3)" preserveAspectRatio="none" x="680" y="836" width="17" height="16" xlink:href="img/22.png"/>
<g clip-path="url(#c2_3)">
<path d="M691.5,850.9c0,0,-5.9,2.5,-11.2,-2.8c0,0,3.3,5.6,10.8,5.3c0,0,5.4,0,4.4,-2.2c0,0,.3,-1,-4,-.3Z" class="gd_3"/>
<path d="M692.5,982.1c0,0,-2.8,0,-2.8,2.8v4.8c0,0,0,2.8,2.8,2.8H823.9c0,0,2.9,0,2.9,-2.8v-4.8c0,0,0,-2.8,-2.9,-2.8Z" class="gd_3"/>
</g>
<image clip-path="url(#co_3)" preserveAspectRatio="none" x="680" y="976" width="16" height="16" xlink:href="img/23.png"/>
<g clip-path="url(#c2_3)">
<path d="M691.4,990.9c0,0,-5.9,2.5,-11.2,-2.8c0,0,3.3,5.5,10.8,5.2c0,0,5.4,.1,4.4,-2.2c0,0,.3,-.9,-4,-.2Z" class="gd_3"/>
<path d="M651.9,819.5H850.4V790.2H651.9v29.3Z" class="ge_3"/>
<path d="M853.2,819H450.5v-1.1H611.3c9.4,0,11.6,-8.3,25.2,-8.3H853.2Z" class="gf_3"/>
<path d="M853.2,820.5H450.5v-2.2H611.3c9.4,0,11.6,-7.3,25.2,-7.3H853.2Z" class="gg_3"/>
</g>
<image clip-path="url(#cp_3)" preserveAspectRatio="none" x="786" y="793" width="43" height="26" xlink:href="img/24.png"/>
<g clip-path="url(#c2_3)">
<path d="M675.5,827.8v4.9l2.5,2.2v-4.8Z" class="gh_3"/>
<path d="M675.5,824.2v8.5H827.8c0,0,3.7,0,3.7,-3.7v-1.2c0,0,0,-3.6,-3.7,-3.6Z" class="g5_3"/>
<path d="M688.1,826.7l-1.4,-1.4l-4.6,4.6l1.4,1.4Z" class="gi_3"/>
<path d="M683.5,831.4c0,0,.1,0,.1,0l4.6,-4.6c0,-.1,.1,-.1,.1,-.1c0,-.1,-.1,-.1,-.1,-.1l-1.4,-1.4c0,-.1,-.1,-.1,-.2,0l-4.6,4.6c0,0,0,.1,0,.1v.1l1.4,1.4q.1,0,.1,0m4.5,-4.7l-4.5,4.4l-1.2,-1.2l4.4,-4.5Z" class="gj_3"/>
<path d="M688.1,826.7l-1.4,-1.4l.5,-.5l1.4,1.4Z" class="gk_3"/>
<path d="M688.1,826.8q.1,0,.1,-.1l.5,-.4c0,0,0,-.1,0,-.1c0,0,0,-.1,0,-.1l-1.4,-1.4q-.1,0,-.2,0l-.5,.5v.1l1.5,1.4q0,.1,0,.1m.3,-.6l-.3,.3l-1.2,-1.2l.3,-.3Z" class="gj_3"/>
<path d="M689.4,825.4L688,824l-.8,.8l1.4,1.4Z" class="gl_3"/>
<path d="M688.6,826.3c0,0,.1,0,.1,0l.8,-.8c0,0,0,-.1,0,-.2l-1.4,-1.4c-.1,0,-.2,0,-.2,0l-.8,.8q0,.1,0,.2l1.4,1.4q.1,0,.1,0m.6,-.9l-.6,.6l-1.2,-1.2l.6,-.6Z" class="gj_3"/>
<path d="M681.1,832.3l1,-2.4l1.4,1.4Z" class="g1_3"/>
<path d="M681.1,832.4l2.5,-1v-.1c0,0,0,-.1,0,-.1l-1.4,-1.4q-.1,0,-.1,0q-.1,0,-.1,0l-1,2.5c0,0,0,.1,0,.1c0,0,.1,0,.1,0m2.2,-1.1l-2,.8l.8,-2Z" class="gj_3"/>
<path d="M681.1,832.3l.5,-1.2l.7,.7Z" class="gj_3"/>
<path d="M681.1,832.4l1.2,-.5c0,0,.1,0,.1,-.1l-.1,-.1l-.6,-.6q-.1,-.1,-.1,-.1c-.1,0,-.1,.1,-.1,.1l-.5,1.2c0,0,0,.1,0,.1c0,0,.1,0,.1,0m1,-.6l-.8,.3l.3,-.8Z" class="gj_3"/>
<path d="M687.8,826.3l-.7,-.7l-4.6,4.7l.6,.6Z" class="gm_3"/>
<path d="M683.1,831q.1,0,.1,0l4.6,-4.6q.1,-.1,.1,-.1c0,0,0,-.1,-.1,-.1l-.6,-.6q-.1,-.1,-.2,0l-4.6,4.6v.1l.6,.7q.1,0,.1,0m4.5,-4.7l-4.5,4.5l-.5,-.5l4.5,-4.5Z" class="gj_3"/>
</g>
<path d="M658.8,790.2c0,0,-6.9,0,-6.9,6.9v267c0,0,0,6.9,6.9,6.9H843.5c0,0,6.8,0,6.8,-6.9v-267c0,0,0,-6.9,-6.8,-6.9H658.8Z" class="gn_3"/>
<image clip-path="url(#cq_3)" preserveAspectRatio="none" x="135" y="270" width="211" height="293" xlink:href="img/25.png"/>
<path d="M147.5,274.8c0,0,-6.9,0,-6.9,6.9V548.8c0,0,0,6.8,6.9,6.8H332.2c0,0,6.8,0,6.8,-6.8V281.7c0,0,0,-6.9,-6.8,-6.9Z" class="g1_3"/>
<g clip-path="url(#cr_3)">
<path d="M137.7,558.5H339.1V272H137.7V558.5Z" class="g3_3"/>
<path d="M163.6,361.2c0,0,-4.1,0,-4.1,4V477.9c0,0,0,4,4.1,4H311.4c0,0,4,0,4,-4V361.2Z" class="g1_3"/>
<path d="M163.6,361.2c0,0,-4.1,0,-4.1,4V477.9c0,0,0,4,4.1,4H311.4c0,0,4,0,4,-4V361.2H163.6Z" class="g4_3"/>
<path d="M162.4,486.6c0,0,-2.9,0,-2.9,2.8v32c0,0,0,2.9,2.9,2.9H312.5c0,0,2.9,0,2.9,-2.9v-32c0,0,0,-2.8,-2.9,-2.8Z" class="g1_3"/>
<path d="M162.4,486.6c0,0,-2.9,0,-2.9,2.8v32c0,0,0,2.9,2.9,2.9H312.5c0,0,2.9,0,2.9,-2.9v-32c0,0,0,-2.8,-2.9,-2.8H162.4Z" class="g4_3"/>
<path d="M236.9,528.2c0,0,-1,0,-1,1v2.3c0,0,0,1,1,1h6.6c0,0,.9,0,.9,-1v-2.3c0,0,0,-1,-.9,-1Z" class="g5_3"/>
<path d="M234,526.3v8.2m.3,.2h80.9m.2,-.3v-8.2m-.3,-.2H234.2" class="g6_3"/>
<path d="M234,534.6v.1h.1m81.2,0h.1v-.1m0,-8.5V526h-.1m-81.2,0H234v.1" class="g7_3"/>
<path d="M176.4,366.4c0,0,-2.8,0,-2.8,2.9v14.1c0,0,0,2.9,2.8,2.9H307.8c0,0,2.8,0,2.8,-2.9V369.3c0,0,0,-2.9,-2.8,-2.9Z" class="gd_3"/>
</g>
<image clip-path="url(#cs_3)" preserveAspectRatio="none" x="164" y="369" width="16" height="17" xlink:href="img/26.png"/>
<g clip-path="url(#cr_3)">
<path d="M175.3,384.7c0,0,-5.9,2.4,-11.2,-2.8c0,0,3.3,5.5,10.8,5.2c0,0,5.4,.1,4.4,-2.2c0,0,.2,-1,-4,-.2Z" class="gd_3"/>
<path d="M176.4,495.6c0,0,-2.8,0,-2.8,2.9v4.7c0,0,0,2.8,2.8,2.8H307.8c0,0,2.8,0,2.8,-2.8v-4.7c0,0,0,-2.9,-2.8,-2.9Z" class="gd_3"/>
</g>
<image clip-path="url(#ct_3)" preserveAspectRatio="none" x="164" y="489" width="16" height="17" xlink:href="img/27.png"/>
<path clip-path="url(#cr_3)" d="M175.3,504.4c0,0,-5.9,2.5,-11.2,-2.8c0,0,3.3,5.6,10.8,5.3c0,0,5.4,0,4.4,-2.2c0,0,.2,-1,-4,-.3Z" class="gd_3"/>
<image clip-path="url(#cu_3)" preserveAspectRatio="none" x="148" y="399" width="51" height="56" xlink:href="img/28.png"/>
<path clip-path="url(#cr_3)" d="M150,401.3l1.4,51.7l46.5,-1.2l-1.6,-51.9Z" class="go_3"/>
<image clip-path="url(#cv_3)" preserveAspectRatio="none" x="149" y="399" width="50" height="55" xlink:href="img/29.png"/>
<image clip-path="url(#cw_3)" preserveAspectRatio="none" x="149" y="399" width="50" height="55" xlink:href="img/30.png"/>
<g clip-path="url(#cr_3)">
<path d="M151.6,400l-.9,51.4l39.4,.7l7.1,-7.2l.8,-44.1Z" class="gp_3"/>
<path d="M190.2,452.3l7.1,-7.2l-5.9,-1.3Z" class="gq_3"/>
<path d="M220.6,454.5c2.9,-.2,5.2,-1.4,5.8,-3m-.2,-1.7c-.7,-1.4,-3.1,-2.5,-5.9,-2.7m-1.8,.1c-2.9,.2,-5.2,1.4,-5.8,2.9m.2,1.8c.7,1.4,3.1,2.5,5.9,2.7" class="gr_3"/>
<path d="M226.5,451.2c0,-.1,0,-.2,0,-.3c0,-.2,0,-.3,0,-.4m-6.6,-3.4c-.1,0,-.2,0,-.3,0c-.2,0,-.3,0,-.4,0m-6.6,3.4c0,.1,0,.2,0,.4c0,.1,0,.2,0,.3m6.6,3.4c.1,0,.2,0,.4,0c.1,0,.2,0,.3,0" class="gs_3"/>
<path d="M218.7,455c-2.7,1.8,-11.3,7.3,-16.7,5.9m-1.1,-.9c-.2,-.7,0,-1.5,2.3,-1.5m-.1,2.1c-1.5,.8,-5.4,1.8,-12.9,-.3m-1.5,-.5c-2.2,-.7,-7.4,-2.6,-11.3,-5.9" class="gt_3"/>
<path d="M219.5,454.4c0,0,-.1,.1,-.3,.2m-17.6,6.2c-.1,0,-.2,0,-.3,-.1c0,0,0,-.1,-.1,-.2m2.3,-2c.1,0,.2,0,.3,0c0,0,.1,.2,.3,.4m.1,.8c0,.2,-.1,.3,-.2,.4c0,0,-.1,.1,-.3,.2m-13.8,-.1c-.1,-.1,-.2,-.1,-.3,-.1c0,0,-.1,-.1,-.3,-.1m-12.1,-6.3c-.1,-.1,-.2,-.1,-.3,-.2" class="g8_3"/>
<path d="M178.4,452.9l-1.8,1.2l-1,-2.6Z" class="gu_3"/>
</g>
<image clip-path="url(#cx_3)" x="173" y="400" width="2" height="3" xlink:href="shade/1.png"/>
<image clip-path="url(#cy_3)" x="173" y="395" width="6" height="7" xlink:href="shade/2.png"/>
<image clip-path="url(#cz_3)" x="173" y="395" width="5" height="8" xlink:href="shade/3.png"/>
<image clip-path="url(#c10_3)" x="174" y="394" width="5" height="3" xlink:href="shade/4.png"/>
<g clip-path="url(#cr_3)">
<path d="M140.6,304.2H339.1V274.8H140.6v29.4Z" class="ge_3"/>
<path d="M188,294.3h-3.3l.2,.2h2.6v1.8l-.3,-.3c0,-.1,0,-.3,0,-.4c0,-.2,0,-.4,-.1,-.5c-.1,-.1,-.2,-.2,-.2,-.3c-.1,0,-.2,-.1,-.3,-.1c-.1,0,-.2,0,-.2,0c-.2,0,-.3,0,-.5,.1c0,.1,-.1,.1,-.1,.2c-.1,0,-.1,.1,-.1,.2c0,0,0,.1,.1,.2c0,.1,.1,.1,.2,.1c.2,.1,.3,0,.3,0c.1,-.1,.2,-.1,.2,-.2c0,0,0,-.1,0,-.1c0,-.1,0,-.2,0,-.2c0,-.1,.1,-.1,.1,-.1q.1,.1,.2,.1q0,.1,.1,.2c0,0,.1,.1,.1,.2c0,0,0,.1,0,.1c0,.1,0,.3,-.1,.4c-.1,.2,-.3,.3,-.6,.3c-.1,0,-.3,-.1,-.4,-.1c-.1,-.1,-.2,-.2,-.3,-.3c-.1,-.2,-.2,-.3,-.3,-.5c-.1,-.2,-.1,-.4,-.2,-.6H185c0,.2,.1,.4,.1,.6c.1,.2,.1,.4,.2,.5c.1,.1,.2,.2,.2,.3c.1,.1,.2,.2,.3,.3c.1,0,.2,.1,.3,.1q.1,.1,.2,.1c.2,0,.3,0,.4,-.1c.2,-.1,.3,-.2,.3,-.3c.3,.2,.6,.6,.7,1l.1,.1v-2.8h.4l-.2,-.2Zm2.7,.2l-.3,-.2h-2.5l.2,.2h1.8v.2c-.5,.2,-1.1,.5,-1.6,.8l.3,.5c.4,0,.7,.2,.9,.4c.1,0,.2,.1,.2,.2c.1,.1,.2,.2,.2,.2c0,.1,.1,.2,.1,.2c0,0,0,.1,0,.1l.2,.2v-2.8h.5Zm-.8,2.1c-.2,-.4,-.6,-.7,-1,-.9c.1,-.1,.3,-.3,.5,-.3c.2,-.1,.3,-.2,.5,-.3v1.5Zm3.9,-2.1l-.3,-.2h-3.3l.3,.2h1.7v.2c-.6,.2,-1.1,.5,-1.5,.8l.4,.5c.2,0,.5,.2,.7,.4c.1,.1,.2,.2,.3,.4c.1,.1,.2,.2,.2,.4q.1,0,.1,0v-2.1c.3,0,.5,0,.6,.2c.2,.1,.3,.3,.3,.5h-.1l-.1,-.1c0,0,-.1,0,-.1,0c-.1,0,-.2,0,-.2,.1c-.1,0,-.1,.1,-.1,.2c0,0,0,.1,0,.1c0,.1,.1,.1,.1,.1c0,0,.1,.1,.1,.1c0,0,.1,0,.1,0q.1,0,.2,0c0,-.1,.1,-.1,.1,-.1q.1,-.1,.1,-.2q0,-.1,0,-.2c0,-.2,0,-.5,-.2,-.7c-.2,-.3,-.4,-.4,-.8,-.4v-.2h1.4Zm-1.6,2c-.2,-.4,-.6,-.7,-1,-.9c.2,-.1,.3,-.2,.5,-.3c.2,-.1,.3,-.1,.5,-.2v1.4Zm2.6,-2l-.2,-.2h-.3c-.1,-.1,-.1,-.3,-.1,-.5h-.1c0,0,0,.1,0,.2c0,0,0,.1,0,.2c0,.1,0,.2,0,.3c0,.1,0,.2,0,.2c0,-.2,-.1,-.3,-.2,-.3c-.1,-.1,-.2,-.1,-.4,-.1h-.3l.3,.2q.1,0,.2,.1q.1,0,.2,.1c.1,0,.1,.1,.1,.1c.1,.1,.1,.2,.1,.2v2l.2,.2v-2.7h.5Zm1.3,-.2h-1.7l.2,.2h.9c-.4,.4,-.5,.9,-.5,1.4c0,.3,0,.6,.2,.8c.1,.3,.4,.5,.7,.5c0,0,.1,0,.1,-.1q.1,0,.2,-.1c0,0,.1,0,.1,-.1c0,0,0,-.1,0,-.2c0,-.1,0,-.2,-.1,-.2c0,-.1,-.1,-.1,-.2,-.1q-.1,0,-.2,0c-.1,.1,-.1,.2,-.1,.3c0,0,0,.1,0,.1q.1,.1,.2,.1c-.2,.1,-.4,0,-.5,-.2c-.1,-.2,-.2,-.4,-.2,-.6c0,-.2,0,-.4,.1,-.5c0,-.2,.1,-.4,.2,-.5c.1,-.1,.2,-.3,.4,-.4c.1,-.1,.3,-.1,.5,-.2l-.3,-.2Zm3,.2l-.3,-.2c-.1,-.1,-.2,-.2,-.2,-.4l-.2,-.1l.1,1.1h-.1c0,-.1,-.1,-.2,-.2,-.4c-.2,-.2,-.3,-.2,-.4,-.2c-.3,0,-.5,.1,-.7,.5c0,-.2,-.1,-.3,-.2,-.4c-.1,-.1,-.2,-.1,-.4,-.1H196l.2,.2c.1,0,.2,0,.3,0c.2,0,.3,.1,.5,.4c-.1,0,-.2,0,-.2,0q-.1,.1,-.2,.2c0,0,0,.1,-.1,.1c0,.1,0,.2,0,.2c0,.1,0,.2,.1,.3q.1,.1,.2,.1c.2,0,.4,-.1,.5,-.3c0,.1,.1,.2,.1,.2c.1,.1,.2,.1,.3,.1c.1,0,.2,-.1,.2,-.1c.1,-.1,.1,-.2,.1,-.3c0,-.1,-.1,-.3,-.4,-.5q0,-.1,.1,-.2q.1,0,.2,0c.1,0,.2,.1,.3,.2c.2,.2,.2,.3,.2,.4V297l.3,.3v-2.8h.4Zm2.9,-.2c-.1,0,-.2,0,-.3,0c-.1,.1,-.2,.2,-.3,.2c-.1,.2,-.3,.4,-.4,.6c-.1,.2,-.1,.5,-.1,.8c0,.3,0,.6,.2,.8c.1,.3,.4,.5,.7,.5c0,0,.1,0,.2,-.1c0,0,.1,0,.1,-.1q.1,0,.1,-.1c0,0,.1,-.1,.1,-.2c0,-.1,-.1,-.2,-.1,-.2c-.1,-.1,-.2,-.1,-.3,-.1h-.1c0,0,-.1,0,-.1,0q0,.1,-.1,.1q0,.1,0,.2c0,0,0,.1,.1,.1q0,.1,.1,.1q0,.1,-.1,.1c-.2,0,-.3,-.1,-.4,-.3c-.1,-.2,-.2,-.4,-.2,-.6c0,-.2,.1,-.4,.1,-.5c.1,-.2,.1,-.4,.2,-.5c.1,-.1,.2,-.3,.4,-.4c.1,-.1,.3,-.1,.5,-.2l-.3,-.2Zm3.2,0h-3.3l.2,.2h1.2c-.1,.1,-.2,.2,-.3,.3c-.1,.2,-.1,.3,-.1,.4c0,.2,0,.3,.2,.5c.1,.1,.2,.2,.4,.2c.1,0,.2,0,.3,-.1c.1,0,.2,0,.2,0c0,0,.1,0,.1,0q0,.1,0,.2c0,.1,0,.2,-.2,.3c-.1,0,-.3,.1,-.4,.1c-.2,0,-.3,-.1,-.4,-.2c-.1,0,-.2,-.2,-.3,-.3c-.2,-.2,-.2,-.5,-.3,-.8c0,-.1,0,-.2,0,-.3h-.1c0,.2,0,.5,0,.7c.1,.2,.1,.4,.2,.6c.2,.5,.5,.7,1,.7c.2,0,.4,-.1,.5,-.2c.1,-.2,.2,-.3,.2,-.5c0,-.1,0,-.2,0,-.2c0,-.1,-.1,-.2,-.1,-.3c-.1,-.1,-.2,-.2,-.3,-.3l-.3,.2q-.1,0,-.2,0c0,.1,-.1,.1,-.1,.1c-.1,0,-.2,-.1,-.2,-.2c0,-.1,0,-.2,.1,-.4q.1,-.1,.2,-.2c0,0,.1,-.1,.1,-.1l.1,.1c.1,.2,.3,.3,.5,.4c.1,0,.4,.1,.6,.1c-.1,.3,-.1,.5,-.1,.8c0,.2,0,.4,0,.5c.1,.2,.1,.4,.2,.6h.2c-.1,-.3,-.2,-.5,-.2,-.7c0,-.3,.1,-.5,.1,-.7c.1,-.2,.2,-.4,.4,-.5l-.4,-.5c-.1,.1,-.2,.1,-.3,.1c-.1,.1,-.2,.1,-.4,0c0,0,-.1,0,-.1,0q-.1,0,-.2,0c0,0,0,-.1,-.1,-.1c0,0,0,-.1,0,-.1c0,0,0,-.1,0,-.1q.1,-.1,.2,-.1h1.5l-.3,-.2Zm3.2,0h-3.3l.2,.2h1.2c-.1,.1,-.2,.2,-.3,.3c-.1,.2,-.1,.3,-.1,.4c0,.2,0,.3,.2,.5c.1,.1,.2,.2,.4,.2c.1,0,.2,0,.3,-.1c.1,0,.2,0,.2,0c0,0,.1,0,.1,0q0,.1,0,.2c0,.1,0,.2,-.2,.3c-.1,0,-.3,.1,-.4,.1c-.2,0,-.3,-.1,-.4,-.2c-.1,0,-.2,-.2,-.3,-.3c-.2,-.2,-.2,-.5,-.3,-.8c0,-.1,0,-.2,0,-.3h-.1c0,.2,0,.5,.1,.7c0,.2,0,.4,.1,.6c.2,.5,.5,.7,1,.7c.2,0,.4,-.1,.5,-.2c.1,-.2,.2,-.3,.2,-.5c0,-.1,0,-.2,0,-.2c0,-.1,-.1,-.2,-.1,-.3c-.1,-.1,-.2,-.2,-.3,-.3l-.3,.2q-.1,0,-.2,0c0,.1,-.1,.1,-.1,.1c-.1,0,-.2,-.1,-.2,-.2c0,-.1,0,-.2,.2,-.4c0,-.1,.1,-.1,.1,-.2c0,0,.1,-.1,.1,-.1l.1,.1c.1,.2,.3,.3,.5,.4c.1,0,.4,.1,.6,.1c-.1,.3,-.1,.5,-.1,.8c0,.2,0,.4,0,.5c.1,.2,.1,.4,.2,.6h.2c-.1,-.3,-.2,-.5,-.2,-.7c0,-.3,.1,-.5,.2,-.7c0,-.2,.1,-.4,.3,-.5l-.4,-.5c-.1,.1,-.2,.1,-.3,.1c-.1,.1,-.2,.1,-.4,0h-.1q-.1,0,-.2,0c0,0,0,-.1,-.1,-.1c0,0,0,-.1,0,-.1c0,0,0,-.1,0,-.1q.1,-.1,.2,-.1h1.5l-.3,-.2Zm.3,3.7l-.1,-.1c0,0,0,-.1,-.1,-.1c0,-.1,-.1,-.2,-.2,-.2c0,-.1,-.1,-.2,-.2,-.2c0,-.1,0,-.2,0,-.3c0,-.1,0,-.2,0,-.3l-.3,-.1c.1,.1,.1,.2,.1,.3c0,.1,0,.2,0,.2c-.2,-.1,-.3,-.1,-.4,-.1q-.1,0,-.2,0c-.1,0,-.1,.1,-.2,.1c0,0,0,.1,-.1,.1q0,.1,0,.2c0,.1,0,.2,.1,.3c.1,.1,.3,.1,.4,.1c.2,0,.4,-.1,.5,-.3c.1,0,.1,.1,.2,.1q.1,.1,.2,.2c0,0,.1,.1,.2,.1c0,.1,.1,.2,.1,.2V298Zm-1,-.6h.1q-.1,.1,-.2,.2q-.1,0,-.2,0q-.1,0,-.1,-.1c0,-.1,.1,-.2,.2,-.2q.1,0,.2,.1Zm5.3,-3.6c-.5,-.5,-1,-.8,-1.6,-.8c-.2,0,-.4,.1,-.7,.3c-.2,.2,-.3,.4,-.3,.6c0,0,0,.1,.1,.2l.2,.2H210l.2,.2h.4V297l.3,.2v-2.7h.4l-.2,-.2h-.3l-.1,-.3c0,-.2,.1,-.3,.4,-.5c.2,-.1,.4,-.2,.6,-.2c.1,0,.2,0,.3,.1c.2,0,.3,0,.4,.1c.1,.1,.3,.1,.4,.2c.1,.1,.2,.2,.2,.2v-.1Zm.6,.7l-.3,-.2H211l.3,.2h.2v1.2l.2,.3c.4,-.5,.7,-.8,1,-.9c0,0,.1,0,.1,0c0,0,0,.1,.1,.1q0,.1,0,.1v.2c-.2,.2,-.4,.3,-.6,.4c-.1,.1,-.3,.2,-.4,.3l.2,.4c.1,0,.3,0,.4,0q.1,.1,.2,.2c0,0,.1,0,.1,.1q.1,.1,.2,.2c0,.2,.1,.2,.2,.3v-2q0,-.1,0,-.2c0,-.1,-.1,-.1,-.1,-.2c-.1,-.1,-.2,-.2,-.4,-.2c-.1,0,-.3,.1,-.5,.2c-.1,0,-.1,.1,-.2,.1c0,.1,-.1,.2,-.2,.3v-.9h1.8Zm-.7,2.3c-.1,-.2,-.3,-.4,-.6,-.5c.2,0,.3,-.1,.4,-.2c.1,0,.2,-.1,.2,-.1v.8Zm2,-2.5h-1.7l.3,.2h.8c-.3,.4,-.5,.9,-.5,1.4c0,.3,0,.6,.2,.8c.1,.3,.4,.5,.7,.5c0,0,.1,0,.2,-.1c0,0,.1,0,.1,-.1c0,0,.1,0,.1,-.1c0,0,0,-.1,0,-.2c0,-.1,0,-.2,0,-.2c-.1,-.1,-.2,-.1,-.3,-.1q-.1,0,-.2,0c-.1,.1,-.1,.2,-.1,.3c0,0,0,.1,0,.1q.1,.1,.2,.1c-.2,.1,-.3,0,-.5,-.2c-.1,-.2,-.2,-.4,-.2,-.6c0,-.2,.1,-.4,.1,-.5c.1,-.2,.1,-.4,.2,-.5c.1,-.1,.2,-.3,.4,-.4c.1,-.1,.3,-.1,.5,-.2l-.3,-.2Zm3.1,.2l-.3,-.2h-.1c-.1,0,-.1,-.1,-.2,-.2c0,0,0,-.1,0,-.2l-.1,-.1c0,.2,0,.4,0,.7c0,.2,0,.4,0,.6c-.3,-.5,-.7,-.8,-1,-.8c-.1,0,-.2,0,-.4,.1c-.1,0,-.2,0,-.3,.1c-.1,.1,-.2,.2,-.3,.3c0,.1,-.1,.2,-.1,.3c0,0,0,.1,.1,.1c0,0,.1,.1,.1,.1q.1,0,.2,-.1q.1,0,.1,0q.1,0,.1,0c.1,0,.2,.1,.2,.2c0,.1,-.1,.3,-.3,.5l.4,.1l.9,-.9l.1,.1c0,0,.1,0,.1,.1c0,0,0,.1,.1,.1q0,.1,0,.2V297l.2,.2v-2.7h.5Zm-1.9,.9c0,-.1,0,-.2,-.1,-.3c0,-.1,-.1,-.2,-.3,-.2c.2,-.2,.4,-.3,.6,-.3c.2,0,.3,.1,.5,.2l-.7,.6Zm5.9,-.9l-.2,-.2h-2.5c.1,0,.2,.1,.3,.2c0,0,.1,.1,.1,.1c.1,0,.2,.1,.3,.1c0,.1,.1,.1,.2,.1c.2,.1,.3,.2,.4,.2c-.1,.1,-.3,.2,-.4,.3c-.2,.2,-.3,.3,-.4,.4l.4,.4c.3,.1,.6,.1,.8,.3c.1,.1,.2,.2,.3,.3c0,.2,.1,.3,.1,.4l.2,.2v-2.8h.4Zm-.6,2.1c-.3,-.4,-.6,-.7,-1,-.8c.1,-.1,.2,-.3,.3,-.4c.1,-.1,.2,-.2,.3,-.3c-.3,-.3,-.5,-.5,-.7,-.6h1.1v2.1Zm1.6,-2.1l-.2,-.2h-.3c0,-.1,-.1,-.3,-.1,-.5h-.1c0,0,0,.1,0,.2c0,0,0,.1,0,.2c0,.1,0,.2,0,.3c0,.1,0,.2,0,.2c0,-.2,-.1,-.3,-.2,-.3c-.1,-.1,-.2,-.1,-.4,-.1h-.3l.3,.2c.1,0,.2,0,.2,.1c.1,0,.2,0,.2,.1c.1,0,.1,.1,.1,.1c.1,.1,.1,.2,.1,.2v2l.2,.2v-2.7h.5Zm2.5,0l-.3,-.2h-2.6l.3,.2h1.8v.2c-.6,.2,-1.1,.5,-1.6,.8l.3,.5c.4,0,.7,.2,.9,.4c.1,0,.1,.1,.2,.2c.1,.1,.1,.2,.2,.2c0,.1,0,.2,0,.2c.1,0,.1,.1,.1,.1l.1,.2v-2.8h.6Zm-.8,2.1c-.3,-.4,-.6,-.7,-1.1,-.9c.2,-.1,.4,-.3,.6,-.3c.1,-.1,.3,-.2,.5,-.3v1.5Z" class="gv_3"/>
<path d="M540.4,303.7H137.7v-1.2H298.5c9.4,0,11.6,-8.3,25.2,-8.3H540.4Z" class="gf_3"/>
<path d="M540.4,305.1H137.7V303H298.5c9.4,0,11.6,-7.4,25.2,-7.4H540.4Z" class="gg_3"/>
<path d="M159.5,355.4v8.5l2.5,2.3v-9.7Z" class="gh_3"/>
<path d="M159.5,355.4v8.5H311.8c0,0,3.6,0,3.6,-3.6v-1.2c0,0,0,-3.7,-3.6,-3.7Z" class="g5_3"/>
<path d="M301.2,362.8c1.8,0,3.2,-1.5,3.2,-3.2c0,-1.8,-1.4,-3.2,-3.2,-3.2c-1.8,0,-3.3,1.4,-3.3,3.2c0,1.7,1.5,3.2,3.3,3.2Z" class="gw_3"/>
<path d="M301.2,362.8c1.8,0,3.2,-1.5,3.2,-3.2c0,-1.8,-1.4,-3.2,-3.2,-3.2c-1.8,0,-3.3,1.4,-3.3,3.2c0,1.7,1.5,3.2,3.3,3.2Z" class="g8_3"/>
<path d="M301.2,360.8c.7,0,1.2,-.6,1.2,-1.2c0,-.7,-.5,-1.2,-1.2,-1.2c-.7,0,-1.2,.5,-1.2,1.2c0,.6,.5,1.2,1.2,1.2Z" class="g1_3"/>
<path d="M301.2,360.8c.7,0,1.2,-.6,1.2,-1.2c0,-.7,-.5,-1.2,-1.2,-1.2c-.7,0,-1.2,.5,-1.2,1.2c0,.6,.5,1.2,1.2,1.2Z" class="gx_3"/>
</g>
<g clip-path="url(#c11_3)" opacity="0.3">
<path d="M298,359.4v0c0,0,0,-1,.8,-1.9l1.7,1.5c0,0,-.2,.2,-.2,.6Z" class="g1_3"/>
</g>
<g clip-path="url(#cr_3)">
<path d="M302.2,359.6c0,0,-.8,0,-.8,.7v1.9c0,0,0,.8,.8,.8h9.5c0,0,.7,0,.7,-.8v-1.9c0,0,0,-.7,-.7,-.7Z" class="gy_3"/>
<path d="M167.7,357.6c0,-1.8,-1.5,-3.3,-3.3,-3.3c-1.8,0,-3.3,1.5,-3.3,3.3c0,1.8,1.5,3.3,3.3,3.3c.2,0,.4,0,.6,0l.9,1.1v-1.5c1.1,-.5,1.8,-1.6,1.8,-2.9Z" class="g1_3"/>
<path d="M166,362.3L164.9,361c-.1,0,-.3,0,-.5,0c-1.8,0,-3.4,-1.5,-3.4,-3.4c0,-1.8,1.6,-3.4,3.4,-3.4c1.9,0,3.4,1.6,3.4,3.4c0,1.3,-.7,2.4,-1.8,3Zm-1,-1.5l.8,.9v-1.2l.1,-.1c1.1,-.5,1.7,-1.6,1.7,-2.8c0,-1.7,-1.4,-3.2,-3.2,-3.2c-1.7,0,-3.2,1.5,-3.2,3.2c0,1.8,1.5,3.2,3.2,3.2c.2,0,.4,0,.5,0Z" class="gz_3"/>
<path d="M162.9,357.5c.2,0,.3,.2,.3,.3c0,.2,-.1,.4,-.3,.4c-.2,0,-.3,-.2,-.3,-.4c0,-.1,.1,-.3,.3,-.3Z" class="g10_3"/>
<path d="M162.9,358.3c-.2,0,-.4,-.2,-.4,-.5c0,-.2,.2,-.4,.4,-.4c.2,0,.4,.2,.4,.4c0,.3,-.2,.5,-.4,.5m0,-.7c-.1,0,-.2,.1,-.2,.2c0,.2,.1,.3,.2,.3c.1,0,.2,-.1,.2,-.3c0,-.1,-.1,-.2,-.2,-.2Z" class="gz_3"/>
<path d="M164.4,357.5c.2,0,.3,.2,.3,.3c0,.2,-.1,.4,-.3,.4c-.1,0,-.3,-.2,-.3,-.4c0,-.1,.2,-.3,.3,-.3Z" class="g10_3"/>
<path d="M164.4,358.3c-.2,0,-.4,-.2,-.4,-.5c0,-.2,.2,-.4,.4,-.4c.3,0,.4,.2,.4,.4c0,.3,-.1,.5,-.4,.5m0,-.7c-.1,0,-.2,.1,-.2,.2c0,.2,.1,.3,.2,.3c.2,0,.2,-.1,.2,-.3c0,-.1,0,-.2,-.2,-.2Z" class="gz_3"/>
<path d="M166,357.5c.1,0,.3,.2,.3,.3c0,.2,-.2,.4,-.3,.4c-.2,0,-.3,-.2,-.3,-.4c0,-.1,.1,-.3,.3,-.3Z" class="g10_3"/>
<path d="M166,358.3c-.3,0,-.4,-.2,-.4,-.5c0,-.2,.1,-.4,.4,-.4c.2,0,.4,.2,.4,.4c0,.3,-.2,.5,-.4,.5m0,-.7c-.2,0,-.2,.1,-.2,.2c0,.2,0,.3,.2,.3c.1,0,.2,-.1,.2,-.3c0,-.1,-.1,-.2,-.2,-.2Z" class="gz_3"/>
<path d="M166.4,360.7c0,-2.1,1.7,-3.8,3.8,-3.8c2.2,0,3.9,1.7,3.9,3.8c0,2.2,-1.7,3.9,-3.9,3.9c-.2,0,-.4,0,-.6,-.1l-1.1,1.4v-1.8c-1.3,-.6,-2.1,-1.9,-2.1,-3.4Z" class="g11_3"/>
<path d="M168.5,366c0,0,-.1,0,-.1,0q0,-.1,0,-.1v-1.7c-1.3,-.7,-2.1,-2,-2.1,-3.5c0,-2.1,1.8,-3.9,3.9,-3.9c2.2,0,4,1.8,4,3.9c0,2.2,-1.8,4,-4,4c-.2,0,-.3,0,-.5,-.1l-1.2,1.3c0,0,0,.1,0,.1m1.7,-9c-2,0,-3.7,1.7,-3.7,3.7c0,1.4,.8,2.7,2,3.4c0,0,.1,0,.1,0v1.5l.9,-1.1q.1,-.1,.1,-.1c.2,.1,.4,.1,.6,.1c2.1,0,3.8,-1.7,3.8,-3.8c0,-2,-1.7,-3.7,-3.8,-3.7Z" class="gz_3"/>
<path d="M172,360.6c.2,0,.4,.2,.4,.4c0,.2,-.2,.3,-.4,.3c-.2,0,-.3,-.1,-.3,-.3c0,-.2,.1,-.4,.3,-.4Z" class="g1_3"/>
<path d="M172,361.4c-.2,0,-.4,-.2,-.4,-.4c0,-.3,.2,-.5,.4,-.5c.3,0,.5,.2,.5,.5c0,.2,-.2,.4,-.5,.4m0,-.7c-.1,0,-.2,.1,-.2,.3c0,.1,.1,.2,.2,.2c.2,0,.3,-.1,.3,-.2c0,-.2,-.1,-.3,-.3,-.3Z" class="gz_3"/>
<path d="M170.2,360.6c.2,0,.4,.2,.4,.4c0,.2,-.2,.3,-.4,.3c-.2,0,-.3,-.1,-.3,-.3c0,-.2,.1,-.4,.3,-.4Z" class="g1_3"/>
<path d="M170.2,361.4c-.2,0,-.4,-.2,-.4,-.4c0,-.3,.2,-.5,.4,-.5c.3,0,.5,.2,.5,.5c0,.2,-.2,.4,-.5,.4m0,-.7c-.1,0,-.2,.1,-.2,.3c0,.1,.1,.2,.2,.2c.2,0,.3,-.1,.3,-.2c0,-.2,-.1,-.3,-.3,-.3Z" class="gz_3"/>
<path d="M168.4,360.6c.2,0,.4,.2,.4,.4c0,.2,-.2,.3,-.4,.3c-.2,0,-.3,-.1,-.3,-.3c0,-.2,.1,-.4,.3,-.4Z" class="g1_3"/>
<path d="M168.4,361.4c-.2,0,-.4,-.2,-.4,-.4c0,-.3,.2,-.5,.4,-.5c.3,0,.5,.2,.5,.5c0,.2,-.2,.4,-.5,.4m0,-.7c-.1,0,-.2,.1,-.2,.3c0,.1,.1,.2,.2,.2c.2,0,.3,-.1,.3,-.2c0,-.2,-.1,-.3,-.3,-.3Z" class="gz_3"/>
</g>
<image clip-path="url(#c12_3)" preserveAspectRatio="none" x="157" y="310" width="161" height="40" xlink:href="img/31.png"/>
<g clip-path="url(#cr_3)">
<path d="M162.3,315.5c0,0,-2.9,0,-2.9,2.8v25.6c0,0,0,2.8,2.9,2.8H312.6c0,0,2.8,0,2.8,-2.8V315.5Z" class="g12_3"/>
<path d="M163,329.2l11.8,8.9l11.8,-8.9v-14h1.9v-3.9H164.7c-1.4,0,-1.6,.8,-1.8,1.8Z" class="g13_3"/>
<path d="M190.5,313.1c0,-1,-.9,-1.8,-1.9,-1.8c-1.1,0,-1.9,.8,-2,1.8v2.1h3.9v-2.1Z" class="gy_3"/>
<path d="M186.6,315.3H315.4" class="g14_3"/>
<path d="M246.7,428.8c5.4,-.2,9.7,-1.5,10.6,-3.1m-.2,-1.6c-1.2,-1.5,-5.5,-2.7,-10.8,-2.8m-1.6,0c-5.4,.1,-9.8,1.4,-10.6,3.1m.1,1.5c1.2,1.6,5.6,2.8,10.8,2.9" class="gt_3"/>
<path d="M257.4,425.4c0,-.1,.1,-.3,.1,-.4c0,-.1,-.1,-.2,-.1,-.3M246,421.3c-.1,0,-.2,0,-.3,0c-.1,0,-.2,0,-.3,0m-11.5,3.4c0,.1,0,.2,0,.3c0,.1,0,.3,0,.4m11.5,3.4c.1,0,.2,0,.3,0c.1,0,.2,0,.3,0" class="g8_3"/>
</g>
<image clip-path="url(#c13_3)" preserveAspectRatio="none" x="283" y="405" width="50" height="55" xlink:href="img/32.png"/>
<path clip-path="url(#cr_3)" d="M284.9,406.1l.5,52.6l46.3,-.8l-.4,-52.2Z" class="go_3"/>
<image clip-path="url(#c14_3)" preserveAspectRatio="none" x="282" y="404" width="51" height="58" xlink:href="img/33.png"/>
<image clip-path="url(#c15_3)" preserveAspectRatio="none" x="282" y="404" width="51" height="58" xlink:href="img/34.png"/>
<g clip-path="url(#cr_3)">
<path d="M283.1,407.7l3.6,52.2l39.2,-2.7l6.5,-7.8l-3.1,-45Z" class="gp_3"/>
<path d="M325.9,457.2l6.5,-7.8l-6,-.2Z" class="gq_3"/>
<path d="M244.2,420.1c2,-2.6,8.5,-10.4,14.1,-10.8m1.3,.6c.4,.5,.5,1.4,-1.8,2.1m-.6,-2.1c1.3,-1.2,4.6,-3.3,12.4,-3.6m1.7,0c2.2,0,7.8,.2,12.5,2.1" class="gt_3"/>
<path d="M243.6,420.9c0,0,.1,-.1,.2,-.3m14.8,-11.3c.1,0,.2,0,.3,0c0,0,.1,0,.3,.1m-1.6,2.6c-.1,.1,-.2,.1,-.3,.1c0,0,-.2,0,-.4,-.2m-.4,-.8c0,-.1,0,-.3,.1,-.4c0,0,0,-.1,.2,-.3M270,406.3c.1,0,.2,0,.3,0c0,0,.1,0,.3,0m13.5,2.2c.1,0,.2,.1,.3,.1" class="g8_3"/>
<path d="M283.2,409.6l1.3,-1.6l1.7,2.1Z" class="gu_3"/>
</g>
<image clip-path="url(#c16_3)" x="306" y="406" width="2" height="3" xlink:href="shade/5.png"/>
<image clip-path="url(#c17_3)" x="305" y="400" width="7" height="7" xlink:href="shade/6.png"/>
<image clip-path="url(#c18_3)" x="305" y="400" width="6" height="9" xlink:href="shade/7.png"/>
<image clip-path="url(#c19_3)" x="307" y="400" width="5" height="3" xlink:href="shade/8.png"/>
<path d="M147.5,274.8c0,0,-6.9,0,-6.9,6.9V548.8c0,0,0,6.8,6.9,6.8H332.2c0,0,6.8,0,6.8,-6.8V281.7c0,0,0,-6.9,-6.8,-6.9H147.5Z" class="gn_3"/>
<image preserveAspectRatio="none" x="731" y="55" width="134" height="84" xlink:href="img/35.png"/>
<path d="M32.1,45.1H9.2m958.3,0h22.9M32.1,1331.3H9.2m958.3,0h22.9M45.1,32.1V9.2m0,1335.1v22.9M954.5,32.1V9.2m0,1335.1v22.9" class="g15_3"/>
<path d="M32.1,45.1H9.2m958.3,0h22.9M32.1,1331.3H9.2m958.3,0h22.9M45.1,32.1V9.2m0,1335.1v22.9M954.5,32.1V9.2m0,1335.1v22.9" class="g16_3"/>
<path d="M27.5,32.1H0m972.1,0h27.5M27.5,1344.3H0m972.1,0h27.5M32.1,27.5V0m0,1348.9v27.5M967.5,27.5V0m0,1348.9v27.5" class="g15_3"/>
<path d="M27.5,32.1H0m972.1,0h27.5M27.5,1344.3H0m972.1,0h27.5M32.1,27.5V0m0,1348.9v27.5M967.5,27.5V0m0,1348.9v27.5" class="g16_3"/>
</svg>