<?xml version="1.0" encoding="UTF-8" standalone="no"?>
<!DOCTYPE svg PUBLIC "-//W3C//DTD SVG 1.1//EN"
"http://www.w3.org/Graphics/SVG/1.1/DTD/svg11.dtd">
<svg viewBox="0 0 999 1376" version="1.1" xmlns="http://www.w3.org/2000/svg" xmlns:xlink="http://www.w3.org/1999/xlink">
<defs>
<clipPath id="c0_353"><path d="M154.8,1246V133H869.3V1246Z"/></clipPath>
<style type="text/css"><![CDATA[
.g0_353{
fill: #FFF;
}
.g1_353{
fill: none;
stroke: #231F20;
stroke-width: 0.756;
stroke-miterlimit: 3;
}
.g2_353{
fill: none;
stroke: #296765;
stroke-width: 0.84;
}
.g3_353{
fill: none;
stroke: #949698;
stroke-width: 1.043;
}
.g4_353{
fill: #E6D7C6;
}
.g5_353{
fill: #BDDBDD;
}
.g6_353{
fill: #CEB3C3;
}
.g7_353{
fill: #949698;
}
.g8_353{
fill: #B6C1DE;
}
.g9_353{
fill: none;
stroke: #6381B7;
stroke-width: 0.381;
stroke-miterlimit: 10;
}
.ga_353{
fill: #25408F;
}
.gb_353{
fill: #6381B7;
}
.gc_353{
fill: #FFDE2C;
}
.gd_353{
fill: none;
stroke: #231F20;
stroke-width: 1.451;
stroke-miterlimit: 10;
}
.ge_353{
fill: #D2D3D5;
}
.gf_353{
fill: #A8AAAD;
}
.gg_353{
fill: none;
stroke: #231F20;
stroke-width: 0.828;
stroke-miterlimit: 10;
}
.gh_353{
fill: #6CCFF6;
}
.gi_353{
fill: none;
stroke: #231F20;
stroke-width: 0.828;
stroke-linecap: round;
stroke-linejoin: round;
}
.gj_353{
fill: none;
stroke: #231F20;
stroke-width: 1.451;
stroke-linecap: round;
stroke-linejoin: round;
}
.gk_353{
fill: none;
stroke: #FFF;
stroke-width: 1.909;
stroke-miterlimit: 10;
}
.gl_353{
fill: none;
stroke: #000;
stroke-width: 0.381;
stroke-miterlimit: 10;
}
]]></style>
</defs>
<path d="M154.8,1246H869.3V133H154.8V1246Z" class="g0_353"/>
<image clip-path="url(#c0_353)" preserveAspectRatio="none" x="152" y="131" width="719" height="1117" xlink:href="img/1.jpg"/>
<path d="M404.6,189.6c1.2,-.9,2.3,-1.8,3.3,-2.8c.9,-1,1.7,-2,2.5,-3c.7,-1.1,1.2,-2.1,1.7,-3.1c.4,-1,.7,-1.9,.9,-2.8c0,-.2,0,-.4,-.1,-.4c-.1,-.1,-.3,-.2,-.5,-.2h-6.9v-1.8h3.3c.1,-.2,.2,-.5,.3,-.8c.1,-.3,.1,-.6,.1,-.9c0,-.2,0,-.4,0,-.6c-.1,-.2,-.1,-.4,-.2,-.6l-.1,-.4l2.2,-.7c0,.2,.1,.4,.1,.6c.1,.2,.1,.4,.1,.6c0,.5,0,1,-.1,1.5c-.1,.5,-.2,.9,-.4,1.3h2.5c.8,0,1.3,.3,1.6,.7c.3,.5,.3,1.1,.2,1.8c-.1,1,-.4,2,-.9,3.1c-.4,1,-.9,2,-1.6,3c.5,.3,.9,.5,1.2,.8c.3,.2,.5,.5,.8,.8c.4,.7,.9,1.4,1.3,2c.4,.7,.9,1.4,1.5,2.3l-1.7,1.2c-.6,-.9,-1.1,-1.7,-1.5,-2.4c-.4,-.6,-.8,-1.3,-1.2,-1.8c-.2,-.2,-.4,-.5,-.6,-.7c-.2,-.2,-.5,-.4,-.9,-.5c-.8,1,-1.6,2,-2.5,2.9c-1,1,-2,1.8,-3,2.6l-1.4,-1.7Zm15,5.2V183.6h-3.8v-1.9h3.8v-8.9h2.2v22h-2.2Zm5,-22h2.2v22.5h-2.2V172.8ZM434.9,182.1c0,.3,.1,.5,.2,.6c.1,.1,.3,.2,.6,.2h5.5c1.1,0,2.3,-.1,3.4,-.1c1.2,-.1,2.4,-.3,3.7,-.7l.4,1.8c-.8,.2,-1.4,.3,-2,.4c-.6,.1,-1.2,.2,-1.8,.3c-.5,0,-1.1,.1,-1.7,.1c-.6,0,-1.3,0,-2,0h-5.7c-.9,0,-1.6,-.2,-2.1,-.5c-.5,-.4,-.7,-1,-.7,-1.9v-4.4h12.8v-3H432.7v-1.8h15V179c-.6,.3,-1.3,.4,-1.9,.5c-.5,.1,-1.2,.2,-1.8,.2h-9.1v2.4Zm.4,14.1v-6.8h-5.5v-1.8h21.4v1.8h-5.7v6.8h-2.3v-6.8h-5.6v6.8h-2.3Zm25.3,-7.1c2.8,-1.8,5,-3.8,6.5,-6c1.6,-2.2,2.5,-4.4,2.8,-6.6c0,-.4,0,-.6,-.2,-.7c-.1,-.1,-.3,-.2,-.5,-.2h-8.8v-1.8h9.7c.8,0,1.4,.2,1.7,.7c.3,.4,.4,1,.3,1.8c-.3,2.5,-1.2,5.1,-2.9,7.6c-1.7,2.5,-4.1,4.9,-7.3,7.1l-1.3,-1.9ZM477,172.8h2.3v22.5H477V172.8ZM506.1,181.4h-4.3v8h-2.3V172.5h2.3v7.1h4.3v1.8Zm-17,15.5c-.9,0,-1.5,-.2,-1.9,-.5c-.4,-.4,-.6,-.9,-.6,-1.6v-6.4h2.3v5.9c0,.3,.1,.5,.2,.6c.1,.2,.3,.2,.7,.2h7.1c1,0,2,0,2.8,-.2c.9,-.1,1.7,-.3,2.7,-.6l.5,1.7c-1.1,.3,-2.1,.6,-3,.7c-.9,.2,-1.9,.2,-3,.2h-7.8Zm-5.3,-23.7h9.3c.8,0,1.3,.2,1.6,.7c.2,.4,.3,1,.2,1.7c-.2,1.4,-.6,2.6,-1.2,3.8c-.7,1.1,-1.5,2.1,-2.5,3.1c-.9,.9,-2,1.8,-3.1,2.5c-1.2,.7,-2.3,1.4,-3.5,1.9l-.9,-1.9c1.1,-.4,2.2,-1,3.2,-1.6c1,-.7,1.9,-1.4,2.7,-2.2c.8,-.7,1.5,-1.6,2.1,-2.5c.5,-.9,.9,-1.9,1,-2.9c.1,-.3,0,-.5,-.1,-.6c-.1,-.1,-.3,-.2,-.5,-.2h-8.3v-1.8Zm51.5,16.2H533v-6.8h-6.6c-.5,.6,-1.2,1.1,-2.1,1.5c-.8,.4,-1.7,.5,-2.6,.5c-1,0,-1.9,-.1,-2.6,-.5c-.8,-.3,-1.5,-.7,-2.1,-1.3c-.5,-.5,-1,-1.2,-1.3,-1.9c-.3,-.8,-.4,-1.5,-.4,-2.4c0,-.8,.2,-1.6,.5,-2.3c.3,-.8,.7,-1.4,1.3,-2c.6,-.5,1.3,-.9,2,-1.2c.8,-.4,1.6,-.5,2.6,-.5c1.1,0,2,.2,2.9,.7c.9,.4,1.6,1,2.2,1.7H533v-2.4h2.3v16.9ZM524.7,175.6c-.8,-.9,-1.8,-1.3,-3,-1.3c-1.3,0,-2.3,.4,-3.1,1.3c-.7,.8,-1.1,1.8,-1.1,2.9c0,1.2,.4,2.2,1.1,3.1c.8,.8,1.8,1.2,3.1,1.2c1.2,0,2.2,-.4,3,-1.2c.8,-.9,1.1,-1.9,1.1,-3.1c0,-1.1,-.3,-2.1,-1.1,-2.9Zm-2.3,21.3c-.9,0,-1.5,-.2,-1.9,-.5c-.4,-.4,-.6,-.9,-.6,-1.6v-6.7h2.3v6.2c0,.3,.1,.5,.2,.6c.1,.2,.3,.2,.6,.2h7.2c1,0,2,0,2.8,-.2c.9,-.1,1.7,-.3,2.7,-.6l.5,1.7c-1.1,.3,-2.1,.6,-3,.7c-1,.2,-1.9,.2,-3,.2h-7.8Zm5.5,-17.2c-.1,.4,-.2,.8,-.3,1.1H533v-4.1h-5.3c.1,.3,.2,.6,.3,.9c0,.3,0,.7,0,.9c0,.4,0,.8,-.1,1.2Zm29.6,-7.2v6.1h4.3v1.7h-4.3v3c0,1,-.1,1.9,-.4,2.7c-.3,.8,-.8,1.5,-1.7,2.2c.5,.5,.9,1.1,1.2,1.8c.2,.6,.4,1.3,.4,2.1c0,.8,-.2,1.6,-.5,2.3c-.4,.7,-.9,1.3,-1.4,1.8c-.6,.5,-1.3,.9,-2.1,1.2c-.7,.3,-1.6,.4,-2.4,.4c-.9,0,-1.7,-.1,-2.5,-.4c-.8,-.3,-1.5,-.7,-2,-1.2c-.6,-.5,-1.1,-1.1,-1.4,-1.8c-.4,-.7,-.5,-1.5,-.5,-2.3c0,-.9,.1,-1.6,.5,-2.4c.3,-.7,.8,-1.3,1.4,-1.8c.5,-.5,1.2,-.9,2,-1.2c.8,-.3,1.6,-.4,2.5,-.4c.6,0,1.2,0,1.8,.2c.5,.2,1.1,.4,1.6,.6c.5,-.6,.9,-1.2,1,-1.8c.2,-.7,.3,-1.3,.3,-2.1V172.5h2.2Zm-18.1,.4h8.5c.4,0,.7,.1,1,.2c.2,.2,.4,.4,.5,.6c.1,.2,.1,.4,.1,.6c0,.3,0,.5,0,.7c-.2,.8,-.4,1.5,-.8,2.2c-.3,.7,-.7,1.4,-1.1,2c.5,.2,1,.4,1.3,.6c.3,.2,.6,.5,.9,.8c.4,.5,.9,1,1.3,1.5c.5,.6,.9,1.1,1.3,1.6l-1.5,1.3c-.2,-.3,-.5,-.5,-.7,-.8c-.2,-.2,-.4,-.5,-.6,-.7c-.2,-.3,-.4,-.5,-.6,-.8c-.2,-.2,-.4,-.5,-.6,-.7c-.3,-.3,-.6,-.6,-.9,-.8c-.3,-.2,-.7,-.4,-1.1,-.5c-.9,.9,-1.9,1.9,-3.1,2.7c-1.2,.8,-2.5,1.6,-3.8,2.2l-1,-1.8c2.3,-1,4.1,-2.2,5.5,-3.6c1.4,-1.4,2.4,-3,3.1,-4.7c.1,-.3,.1,-.5,0,-.6c-.1,-.2,-.3,-.2,-.6,-.2h-7.1v-1.8Zm14.2,16.3c-.8,-.8,-1.8,-1.2,-3,-1.2c-1.2,0,-2.2,.4,-3,1.2c-.8,.7,-1.2,1.7,-1.2,2.9c0,1.1,.4,2.1,1.2,2.8c.8,.8,1.8,1.1,3,1.1c1.2,0,2.2,-.3,3,-1.1c.8,-.7,1.1,-1.7,1.1,-2.8c0,-1.2,-.3,-2.2,-1.1,-2.9Zm24,-16.7c.2,.5,.4,1.1,.4,1.8c.1,.6,.2,1.3,.2,1.9c0,.5,-.1,.9,-.1,1.4c-.1,.4,-.2,.8,-.3,1.2c1.2,.2,2,.4,2.5,.8c.6,.3,1,.7,1.4,1.2c.5,.6,1,1.4,1.6,2.2c.6,.8,1.1,1.5,1.5,2.2l-1.6,1.2c-.5,-.8,-1.1,-1.6,-1.6,-2.3c-.6,-.8,-1,-1.4,-1.4,-1.9c-.4,-.4,-.8,-.8,-1.2,-1.1c-.4,-.2,-1,-.4,-1.8,-.6c-.1,.4,-.3,.7,-.5,1c-.1,.3,-.3,.6,-.5,.8c-.6,.9,-1.3,1.6,-2,2.3c-.8,.7,-1.6,1.4,-2.6,2.1L570.4,185c.9,-.7,1.7,-1.3,2.3,-1.9c.7,-.6,1.3,-1.2,1.8,-1.9c.4,-.7,.8,-1.5,1,-2.3c.3,-.8,.4,-1.7,.4,-2.6c0,-.5,-.1,-1,-.2,-1.5c0,-.6,-.2,-1.1,-.3,-1.5l2.2,-.8Zm-.4,24.4c-.8,0,-1.4,-.2,-1.8,-.5c-.4,-.4,-.6,-.9,-.6,-1.6v-6.7h2.3v6.2c0,.3,0,.5,.1,.6c.1,.2,.4,.2,.7,.2H585c1.1,0,2,0,2.9,-.2c.8,-.1,1.7,-.3,2.6,-.6l.5,1.7c-1,.3,-2,.6,-3,.7c-.9,.2,-1.9,.2,-2.9,.2h-7.9Zm12.9,-7.5h-2.2V172.5h2.2v16.9Zm16.2,-9.6V178h4.8v-5.5h2.2v11.1c0,.8,-.1,1.6,-.3,2.5c-.3,.8,-.8,1.6,-1.6,2.3c.5,.5,.8,1.1,1.1,1.7c.3,.6,.4,1.3,.4,2.1c0,.8,-.2,1.6,-.5,2.3c-.4,.7,-.8,1.3,-1.4,1.8c-.6,.5,-1.3,.8,-2,1.1c-.8,.3,-1.6,.4,-2.5,.4c-.8,0,-1.7,-.1,-2.5,-.4c-.7,-.3,-1.4,-.6,-2,-1.1c-.6,-.5,-1,-1.1,-1.4,-1.8c-.3,-.7,-.5,-1.5,-.5,-2.3c0,-.8,.2,-1.6,.5,-2.3c.4,-.7,.8,-1.3,1.4,-1.8c.6,-.5,1.3,-.9,2,-1.2c.8,-.3,1.7,-.4,2.5,-.4c.6,0,1.2,.1,1.8,.2c.6,.2,1.1,.4,1.7,.6c.2,-.2,.5,-.6,.6,-.9c.2,-.3,.3,-.7,.3,-1c.1,-.3,.2,-.7,.2,-1c0,-.3,0,-.6,0,-.9v-3.7h-4.8Zm-12.4,-5.7h3.9c.2,-.4,.3,-.7,.4,-1c.1,-.3,.1,-.6,.1,-.9c0,-.3,0,-.6,-.1,-.8c0,-.2,-.1,-.4,-.1,-.6l2.1,-.5c.1,.3,.2,.5,.2,.8c.1,.3,.1,.6,.1,1c0,.3,-.1,.7,-.2,1c-.1,.3,-.2,.7,-.4,1H603c.7,0,1.2,.2,1.4,.6c.2,.4,.3,.8,.2,1.4c-.2,.7,-.4,1.4,-.8,2.1c-.3,.6,-.7,1.2,-1.1,1.9c.5,.1,1,.3,1.3,.5c.4,.2,.7,.5,.9,.8c.4,.4,.8,.8,1.2,1.3c.4,.4,.8,.9,1.2,1.4l-1.4,1.4c-.3,-.4,-.5,-.6,-.7,-.9c-.2,-.2,-.4,-.4,-.6,-.6c-.2,-.2,-.3,-.4,-.5,-.6c-.1,-.2,-.3,-.4,-.5,-.6c-.1,-.1,-.2,-.3,-.4,-.4c-.1,-.1,-.2,-.2,-.4,-.3c-.1,-.2,-.3,-.3,-.5,-.4c-.2,-.1,-.5,-.2,-.8,-.3c-.9,1,-2,1.9,-3.2,2.7c-1.2,.8,-2.6,1.5,-4.1,2.1l-.8,-2c2.3,-.9,4.3,-2,5.8,-3.4c1.5,-1.3,2.5,-2.7,3.1,-4.3c.1,-.3,.1,-.4,0,-.5c-.1,-.1,-.3,-.2,-.5,-.2h-7.9v-1.7Zm15.6,15.3c-.8,-.8,-1.8,-1.1,-3,-1.1c-1.2,0,-2.2,.3,-3,1.1c-.8,.7,-1.1,1.6,-1.1,2.8c0,1.2,.3,2.1,1.1,2.8c.8,.7,1.8,1,3,1c1.2,0,2.2,-.3,3,-1c.8,-.7,1.2,-1.6,1.2,-2.8c0,-1.2,-.4,-2.1,-1.2,-2.8Z" class="g1_353"/>
<path d="M691.9,341.7V375" class="g2_353"/>
<path d="M287.9,281.2c0,0,-3.8,0,-3.8,3.9v24.6c0,0,0,3.8,3.8,3.8H469.8c0,0,3.8,0,3.8,-3.8V285.1c0,0,0,-3.9,-3.8,-3.9Z" class="g0_353"/>
<path d="M287.9,281.2c0,0,-3.8,0,-3.8,3.9v24.6c0,0,0,3.8,3.8,3.8H469.8c0,0,3.8,0,3.8,-3.8V285.1c0,0,0,-3.9,-3.8,-3.9H287.9Z" class="g3_353"/>
<path d="M290.5,283.8c0,0,-3.8,0,-3.8,3.8v19.5c0,0,0,3.9,3.8,3.9H467.2c0,0,3.9,0,3.9,-3.9V287.6c0,0,0,-3.8,-3.9,-3.8Z" class="g4_353"/>
<path d="M600.9,281.2c0,0,-3.8,0,-3.8,3.8v53.3c0,0,0,3.8,3.8,3.8H782.8c0,0,3.8,0,3.8,-3.8V285c0,0,0,-3.8,-3.8,-3.8Z" class="g0_353"/>
<path d="M600.9,281.2c0,0,-3.8,0,-3.8,3.8v53.3c0,0,0,3.8,3.8,3.8H782.8c0,0,3.8,0,3.8,-3.8V285c0,0,0,-3.8,-3.8,-3.8H600.9Z" class="g3_353"/>
<path d="M603.5,283.8c0,0,-3.8,0,-3.8,3.8v48.2c0,0,0,3.8,3.8,3.8H780.2c0,0,3.8,0,3.8,-3.8V287.6c0,0,0,-3.8,-3.8,-3.8Z" class="g5_353"/>
<path d="M600.9,374.6c0,0,-3.8,0,-3.8,3.8V507c0,0,0,3.8,3.8,3.8H782.8c0,0,3.8,0,3.8,-3.8V378.4c0,0,0,-3.8,-3.8,-3.8Z" class="g0_353"/>
<path d="M600.9,374.6c0,0,-3.8,0,-3.8,3.8V507c0,0,0,3.8,3.8,3.8H782.8c0,0,3.8,0,3.8,-3.8V378.4c0,0,0,-3.8,-3.8,-3.8H600.9Z" class="g3_353"/>
<path d="M603.5,377.2c0,0,-3.8,0,-3.8,3.8V504.4c0,0,0,3.8,3.8,3.8H780.2c0,0,3.8,0,3.8,-3.8V381c0,0,0,-3.8,-3.8,-3.8Z" class="g5_353"/>
<path d="M287.9,340.8c0,0,-3.8,0,-3.8,3.8v24.7c0,0,0,3.8,3.8,3.8H469.8c0,0,3.8,0,3.8,-3.8V344.6c0,0,0,-3.8,-3.8,-3.8Z" class="g0_353"/>
<path d="M287.9,340.8c0,0,-3.8,0,-3.8,3.8v24.7c0,0,0,3.8,3.8,3.8H469.8c0,0,3.8,0,3.8,-3.8V344.6c0,0,0,-3.8,-3.8,-3.8H287.9Z" class="g3_353"/>
<path d="M290.5,343.4c0,0,-3.8,0,-3.8,3.8v19.5c0,0,0,3.8,3.8,3.8H467.2c0,0,3.9,0,3.9,-3.8V347.2c0,0,0,-3.8,-3.9,-3.8Z" class="g4_353"/>
<path d="M287.9,422.2c0,0,-3.8,0,-3.8,3.9v24.6c0,0,0,3.8,3.8,3.8H469.8c0,0,3.8,0,3.8,-3.8V426.1c0,0,0,-3.9,-3.8,-3.9Z" class="g0_353"/>
<path d="M287.9,422.2c0,0,-3.8,0,-3.8,3.9v24.6c0,0,0,3.8,3.8,3.8H469.8c0,0,3.8,0,3.8,-3.8V426.1c0,0,0,-3.9,-3.8,-3.9H287.9Z" class="g3_353"/>
<path d="M290.5,424.8c0,0,-3.8,0,-3.8,3.9v19.4c0,0,0,3.9,3.8,3.9H467.2c0,0,3.9,0,3.9,-3.9V428.7c0,0,0,-3.9,-3.9,-3.9Z" class="g4_353"/>
<path d="M256.9,483.2c0,0,-3.7,0,-3.7,3.9v24.6c0,0,0,3.8,3.7,3.8h86.7c0,0,3.8,0,3.8,-3.8V487.1c0,0,0,-3.9,-3.8,-3.9Z" class="g0_353"/>
<path d="M256.9,483.2c0,0,-3.7,0,-3.7,3.9v24.6c0,0,0,3.8,3.7,3.8h86.7c0,0,3.8,0,3.8,-3.8V487.1c0,0,0,-3.9,-3.8,-3.9H256.9Z" class="g3_353"/>
<path d="M259.5,485.8c0,0,-3.8,0,-3.8,3.8v19.5c0,0,0,3.9,3.8,3.9H341c0,0,3.8,0,3.8,-3.9V489.6c0,0,0,-3.8,-3.8,-3.8Z" class="g6_353"/>
<path d="M414.1,483.2c0,0,-3.7,0,-3.7,3.9v24.6c0,0,0,3.8,3.7,3.8h86.7c0,0,3.8,0,3.8,-3.8V487.1c0,0,0,-3.9,-3.8,-3.9Z" class="g0_353"/>
<path d="M414.1,483.2c0,0,-3.7,0,-3.7,3.9v24.6c0,0,0,3.8,3.7,3.8h86.7c0,0,3.8,0,3.8,-3.8V487.1c0,0,0,-3.9,-3.8,-3.9H414.1Z" class="g3_353"/>
<path d="M416.7,485.8c0,0,-3.8,0,-3.8,3.8v19.5c0,0,0,3.9,3.8,3.9h81.5c0,0,3.9,0,3.9,-3.9V489.6c0,0,0,-3.8,-3.9,-3.8Z" class="g6_353"/>
<path d="M376.3,317.4h5.1v11.4h3.1l-5.6,6.8l-5.7,-6.8h3.1Zm5.6,-.6h-6.1v11.4H372l6.9,8.3l6.8,-8.3h-3.8Z" class="g7_353"/>
<path d="M376.3,400.8h5.1v11.3h3.1l-5.6,6.8l-5.7,-6.8h3.1Zm5.6,-.6h-6.1v11.3H372l6.9,8.3l6.8,-8.3h-3.8Z" class="g7_353"/>
<path d="M414.5,464.9l3.6,-3.6l8,8l2.2,-2.2l.8,8.9l-8.8,-.9l2.2,-2.2Zm3.5,-4.4l-4.3,4.3l8.1,8.1l-2.7,2.7l10.7,1l-1,-10.7l-2.7,2.7Z" class="g7_353"/>
<path d="M343.3,464.9l-3.7,-3.6l-8,8l-2.2,-2.2l-.8,8.9l8.8,-.9l-2.2,-2.2Zm-3.6,-4.4l4.3,4.3l-8,8.1l2.7,2.7l-10.7,1l1,-10.7l2.7,2.7Z" class="g7_353"/>
<path d="M473.7,296H596.6" class="g2_353"/>
<path d="M195.8,625.2H588.6v34.9H195.8V625.2Zm392.8,0H839.8v34.9H588.6V625.2ZM195.8,714.9H588.6v34.9H195.8V714.9Zm392.8,0H839.8v34.9H588.6V714.9ZM195.8,749.8H416.7v34.9H195.8V749.8Zm220.9,0H588.6v34.9H416.7V749.8Z" class="g8_353"/>
<path d="M195.8,660.1H588.6v54.8H195.8V660.1Zm392.8,0H839.8v54.8H588.6V660.1Zm0,89.7H839.8V879.2H588.6V749.8ZM195.8,784.7H416.7v94.5H195.8V784.7Zm220.9,0H588.6v94.5H416.7V784.7Z" class="g0_353"/>
<path d="M195.6,625.2H416.7M195.8,659.9V625.4m220.9,-.2H588.6m0,0H840M588.6,659.9V625.4m251.2,34.5V625.4M195.6,660.1H416.7M195.8,714.7V660.3m220.9,-.2H588.6m0,0H840M588.6,714.7V660.3m251.2,54.4V660.3M195.6,714.9H416.7M195.8,749.6V715.1m220.9,-.2H588.6m0,0H840M588.6,749.6V715.1m251.2,34.5V715.1M195.6,749.8H416.7M195.8,784.5V750m220.9,-.2H588.6M416.7,784.5V750m171.9,-.2H840M588.6,784.5V750m251.2,34.7V750m0,129.1V784.7M588.6,879.2H840M195.6,784.7H416.7M195.8,879.1V784.9m220.9,-.2H588.8M416.7,879.1V784.9m171.9,94.2V784.9m-393,94.3H416.7m0,0H588.6" class="g9_353"/>
<path d="M153.3,126.3v22.2L165,158.7V136.5Z" class="ga_353"/>
<path d="M153.3,109.5v39H851.1c0,0,16.8,0,16.8,-16.8v-5.4c0,0,0,-16.8,-16.8,-16.8Z" class="gb_353"/>
<path d="M207.2,115.7c0,-9.1,-7.9,-16.6,-17.7,-16.6c-9.8,0,-17.7,7.5,-17.7,16.6c0,2.7,.6,5.2,1.8,7.4c1.2,2.4,2.9,4.6,5,6.2c1.2,1,1.6,1.7,1.7,4.3v.6c0,3.3,2.7,5.9,5.9,5.9h6.6c3.2,0,5.8,-2.6,5.8,-5.9v-.6c.2,-2.6,.6,-3.3,1.8,-4.3c2.1,-1.6,3.8,-3.8,5,-6.2c1.2,-2.2,1.8,-4.7,1.8,-7.4Z" class="gc_353"/>
<path d="M207.2,115.7c0,-9.1,-7.9,-16.6,-17.7,-16.6c-9.8,0,-17.7,7.5,-17.7,16.6c0,2.7,.6,5.2,1.8,7.4c1.2,2.4,2.9,4.6,5,6.2c1.2,1,1.6,1.7,1.7,4.3v.6c0,3.3,2.7,5.9,5.9,5.9h6.6c3.2,0,5.8,-2.6,5.8,-5.9v-.6c.2,-2.6,.6,-3.3,1.8,-4.3c2.1,-1.6,3.8,-3.8,5,-6.2c1.2,-2.2,1.8,-4.7,1.8,-7.4Z" class="gd_353"/>
<path d="M194.6,147.4c0,2.8,-2.3,5.1,-5.1,5.1c-2.8,0,-5.1,-2.3,-5.1,-5.1c0,-2.8,2.3,-5.1,5.1,-5.1c2.8,0,5.1,2.3,5.1,5.1Z" class="g0_353"/>
<path d="M194.6,147.4c0,2.8,-2.3,5.1,-5.1,5.1c-2.8,0,-5.1,-2.3,-5.1,-5.1c0,-2.8,2.3,-5.1,5.1,-5.1c2.8,0,5.1,2.3,5.1,5.1Z" class="gd_353"/>
<path d="M182.1,140.2c0,1,.8,1.8,1.8,1.8h11.2c1,0,1.8,-.8,1.8,-1.8v-1.3H182.1Z" class="g0_353"/>
<path d="M182.1,140.2c0,1,.8,1.8,1.8,1.8h11.2c1,0,1.8,-.8,1.8,-1.8v-1.3H182.1v1.3Z" class="gd_353"/>
<path d="M196.9,143.2c0,.8,-.6,1.3,-1.3,1.3H183.4c-.8,0,-1.3,-.5,-1.3,-1.3c0,-.7,.5,-1.3,1.3,-1.3h12.2c.7,0,1.3,.6,1.3,1.3Z" class="g0_353"/>
<path d="M196.9,143.2c0,.8,-.6,1.3,-1.3,1.3H183.4c-.8,0,-1.3,-.5,-1.3,-1.3c0,-.7,.5,-1.3,1.3,-1.3h12.2c.7,0,1.3,.6,1.3,1.3Z" class="gd_353"/>
<path d="M196.9,145.8c0,.7,-.6,1.3,-1.3,1.3H183.4c-.8,0,-1.3,-.6,-1.3,-1.3c0,-.7,.5,-1.3,1.3,-1.3h12.2c.7,0,1.3,.6,1.3,1.3Z" class="g0_353"/>
<path d="M196.9,145.8c0,.7,-.6,1.3,-1.3,1.3H183.4c-.8,0,-1.3,-.6,-1.3,-1.3c0,-.7,.5,-1.3,1.3,-1.3h12.2c.7,0,1.3,.6,1.3,1.3Z" class="gd_353"/>
<path d="M215.5,128.7l8.3,10.4c.6,.7,1.8,.6,2.7,-.2c.9,-.7,1.2,-1.9,.7,-2.6l-8.9,-10.2Z" class="ge_353"/>
<path d="M215.5,128.7l8.3,10.4c.6,.7,1.8,.6,2.7,-.2c.9,-.7,1.2,-1.9,.7,-2.6l-8.9,-10.2l-2.8,2.6Z" class="gd_353"/>
<path d="M217.5,125.1c.5,.6,.3,1.8,-.7,2.6c-.9,.7,-2.1,.8,-2.6,.2c-.6,-.7,-.3,-1.9,.6,-2.6c.9,-.8,2.1,-.9,2.7,-.2Z" class="gf_353"/>
<path d="M217.5,125.1c.5,.6,.3,1.8,-.7,2.6c-.9,.7,-2.1,.8,-2.6,.2c-.6,-.7,-.3,-1.9,.6,-2.6c.9,-.8,2.1,-.9,2.7,-.2Z" class="gd_353"/>
<path d="M212.7,124.7l1.7,2c.3,.3,1,.3,1.5,-.1c.5,-.5,.7,-1.1,.4,-1.5l-1.7,-2Z" class="g0_353"/>
<path d="M212.7,124.7l1.7,2c.3,.3,1,.3,1.5,-.1c.5,-.5,.7,-1.1,.4,-1.5l-1.7,-2l-1.9,1.6Z" class="gg_353"/>
<path d="M214.8,122.9c.4,.5,.2,1.3,-.5,1.8c-.6,.5,-1.4,.6,-1.8,.1c-.4,-.4,-.2,-1.2,.5,-1.7c.6,-.6,1.4,-.6,1.8,-.2Z" class="g0_353"/>
<path d="M214.8,122.9c.4,.5,.2,1.3,-.5,1.8c-.6,.5,-1.4,.6,-1.8,.1c-.4,-.4,-.2,-1.2,.5,-1.7c.6,-.6,1.4,-.6,1.8,-.2Z" class="gg_353"/>
<path d="M216.4,105.4c4.8,5.7,4.1,14.2,-1.7,19c-5.7,4.8,-14.2,4,-19,-1.7c-4.8,-5.7,-4,-14.2,1.7,-19c5.7,-4.8,14.2,-4.1,19,1.7Z" class="g0_353"/>
<path d="M216.4,105.4c4.8,5.7,4.1,14.2,-1.7,19c-5.7,4.8,-14.2,4,-19,-1.7c-4.8,-5.7,-4,-14.2,1.7,-19c5.7,-4.8,14.2,-4.1,19,1.7Z" class="gd_353"/>
<path d="M214,107.4c3.5,4.2,3,10.5,-1.3,14.1c-4.2,3.5,-10.5,2.9,-14,-1.3c-3.5,-4.2,-3,-10.5,1.2,-14c4.2,-3.6,10.5,-3,14.1,1.2Z" class="gh_353"/>
<path d="M214,107.4c3.5,4.2,3,10.5,-1.3,14.1c-4.2,3.5,-10.5,2.9,-14,-1.3c-3.5,-4.2,-3,-10.5,1.2,-14c4.2,-3.6,10.5,-3,14.1,1.2Z" class="gd_353"/>
<path d="M213,110.6l-3.1,3m3.1,-.4l-3.1,3" class="gi_353"/>
<path d="M172.1,99l3.1,3.3m1.1,-5.9l1.2,3.9m-8.1,3l3.7,1.2" class="gj_353"/>
<path d="M185.8,106.1c1.2,1.2,.2,4.3,-2.2,6.7c-2.5,2.5,-5.5,3.5,-6.8,2.3c-1.2,-1.3,-.3,-4.3,2.2,-6.8c2.5,-2.5,5.5,-3.5,6.8,-2.2Z" class="g0_353"/>
<path d="M203.7,107.6c.6,.6,.1,1.9,-.9,3c-1.1,1,-2.4,1.5,-3,.9c-.5,-.5,-.1,-1.8,1,-2.9c1.1,-1.1,2.4,-1.5,2.9,-1Z" class="g0_353"/>
<path d="M32.1,45.1H9.2m958.3,0h22.9M32.1,1331.3H9.2m958.3,0h22.9M45.1,32.1V9.2m0,1335.1v22.9M954.5,32.1V9.2m0,1335.1v22.9" class="gk_353"/>
<path d="M32.1,45.1H9.2m958.3,0h22.9M32.1,1331.3H9.2m958.3,0h22.9M45.1,32.1V9.2m0,1335.1v22.9M954.5,32.1V9.2m0,1335.1v22.9" class="gl_353"/>
<path d="M27.5,32.1H0m972.1,0h27.5M27.5,1344.3H0m972.1,0h27.5M32.1,27.5V0m0,1348.9v27.5M967.5,27.5V0m0,1348.9v27.5" class="gk_353"/>
<path d="M27.5,32.1H0m972.1,0h27.5M27.5,1344.3H0m972.1,0h27.5M32.1,27.5V0m0,1348.9v27.5M967.5,27.5V0m0,1348.9v27.5" class="gl_353"/>
</svg>