<?xml version="1.0" encoding="UTF-8" standalone="no"?>
<!DOCTYPE svg PUBLIC "-//W3C//DTD SVG 1.1//EN"
"http://www.w3.org/Graphics/SVG/1.1/DTD/svg11.dtd">
<svg viewBox="0 0 999 1376" version="1.1" xmlns="http://www.w3.org/2000/svg" xmlns:xlink="http://www.w3.org/1999/xlink">
<defs>
<clipPath id="c0_177"><path d="M32.1,1344.3V32.1H967.5V1344.3Z"/></clipPath>
<clipPath id="c1_177"><path d="M682.7,178.5V64.7H865.1V178.5Z"/></clipPath>
<clipPath id="c2_177"><path d="M215,406V327.3H854.2V406Z"/></clipPath>
<clipPath id="c3_177"><path d="M215,604.2V477.1H854.2V604.2Z"/></clipPath>
<clipPath id="c4_177"><path d="M215,784.1V679.6H854.2V784.1Z"/></clipPath>
<clipPath id="c5_177"><path d="M191.6,1061.3V900.2H850.5v161.1Z"/></clipPath>
<style type="text/css"><![CDATA[
.g0_177{
fill: #FEFCF4;
}
.g1_177{
fill: #F16865;
}
.g2_177{
fill: #6381B7;
}
.g3_177{
fill: none;
stroke: #6381B7;
stroke-width: 0.381;
stroke-dasharray: 2,1;
}
.g4_177{
fill: none;
stroke: #6381B7;
stroke-width: 0.381;
}
.g5_177{
fill: #FEF8F8;
}
.g6_177{
fill: none;
stroke: #A164A9;
stroke-width: 1.527;
stroke-linecap: round;
stroke-linejoin: round;
stroke-dasharray: 0,5;
}
.g7_177{
fill: none;
stroke: #A164A9;
stroke-width: 1.527;
stroke-linecap: round;
stroke-linejoin: round;
}
.g8_177{
fill: #A164A9;
}
.g9_177{
fill: #FFF;
}
.ga_177{
fill: none;
stroke: #231F20;
stroke-width: 0.305;
stroke-miterlimit: 10;
}
.gb_177{
fill: none;
stroke: #FFF;
stroke-width: 1.909;
stroke-miterlimit: 10;
}
.gc_177{
fill: none;
stroke: #000;
stroke-width: 0.381;
stroke-miterlimit: 10;
}
]]></style>
</defs>
<path clip-path="url(#c0_177)" d="M-877.3,1344.3H45.1V32.1H-877.3V1344.3Z" class="g0_177"/>
<path d="M45.1,1344.3H967.5V32.1H45.1V1344.3Z" class="g0_177"/>
<path clip-path="url(#c0_177)" d="M867.9,166.7c0,0,30.3,0,30.3,-30.3v-4.3c0,0,0,-30.3,-30.3,-30.3H-735.4c0,0,-30.4,0,-30.4,30.3v4.3c0,0,0,30.3,30.4,30.3Z" class="g1_177"/>
<path d="M669.9,1154.1c0,0,-4.3,0,-4.3,4.4v10.8c0,0,0,4.3,4.3,4.3h30.4c0,0,4.3,0,4.3,-4.3v-10.8c0,0,0,-4.4,-4.3,-4.4Z" class="g2_177"/>
<path d="M656.8,1146.6v34.9m1.3,1H866.8m.9,-1.4v-34.9m-1.3,-.9H657.7" class="g3_177"/>
<path d="M656.8,1181.9v.6h.5m209.8,0h.6v-.6m0,-36v-.6h-.6m-209.8,0h-.5v.6" class="g4_177"/>
<image clip-path="url(#c1_177)" preserveAspectRatio="none" x="683" y="65" width="182" height="113" xlink:href="img/1.png"/>
<path d="M154.1,1137.4h713V251.1h-713v886.3Z" class="g5_177"/>
<path d="M154.1,255.6v879.5m4.6,2.3H864.9m2.2,-4.6V253.3m-4.5,-2.2H156.4" class="g6_177"/>
<path d="M154.1,1137.4v0m713.1,0v0m0,-886.3v0m-713.1,0v0" class="g7_177"/>
<path d="M153.3,265.4V227c0,0,0,-8.7,8.7,-8.7H859.3c0,0,8.6,0,8.6,8.7v39.1Z" class="g8_177"/>
<image clip-path="url(#c2_177)" preserveAspectRatio="none" x="215" y="328" width="639" height="78" xlink:href="img/2.png"/>
<path d="M218.3,399.8H848.1V330.6H218.3v69.2Z" class="g9_177"/>
<path d="M543.5,360.4h61.1" class="ga_177"/>
<image clip-path="url(#c3_177)" preserveAspectRatio="none" x="215" y="477" width="639" height="128" xlink:href="img/3.png"/>
<path d="M218.3,597.7H848.1V480.4H218.3V597.7Z" class="g9_177"/>
<path d="M231.3,536.1h68.5" class="ga_177"/>
<image clip-path="url(#c4_177)" preserveAspectRatio="none" x="215" y="680" width="639" height="104" xlink:href="img/4.png"/>
<path d="M218.3,778.1H848.1V682.8H218.3v95.3Z" class="g9_177"/>
<path d="M693.9,712.6H830.5" class="ga_177"/>
<image clip-path="url(#c5_177)" preserveAspectRatio="none" x="191" y="900" width="659" height="162" xlink:href="img/5.png"/>
<path d="M194.9,1055H844.5V903.4H194.9V1055Z" class="g9_177"/>
<path d="M32.1,45.1H9.2m958.3,0h22.9M32.1,1331.3H9.2m958.3,0h22.9M45.1,32.1V9.2m0,1335.1v22.9M954.5,32.1V9.2m0,1335.1v22.9" class="gb_177"/>
<path d="M32.1,45.1H9.2m958.3,0h22.9M32.1,1331.3H9.2m958.3,0h22.9M45.1,32.1V9.2m0,1335.1v22.9M954.5,32.1V9.2m0,1335.1v22.9" class="gc_177"/>
<path d="M27.5,32.1H0m972.1,0h27.5M27.5,1344.3H0m972.1,0h27.5M32.1,27.5V0m0,1348.9v27.5M967.5,27.5V0m0,1348.9v27.5" class="gb_177"/>
<path d="M27.5,32.1H0m972.1,0h27.5M27.5,1344.3H0m972.1,0h27.5M32.1,27.5V0m0,1348.9v27.5M967.5,27.5V0m0,1348.9v27.5" class="gc_177"/>
</svg>