<?xml version="1.0" encoding="UTF-8" standalone="no"?>
<!DOCTYPE svg PUBLIC "-//W3C//DTD SVG 1.1//EN"
"http://www.w3.org/Graphics/SVG/1.1/DTD/svg11.dtd">
<svg viewBox="0 0 999 1376" version="1.1" xmlns="http://www.w3.org/2000/svg" xmlns:xlink="http://www.w3.org/1999/xlink">
<defs>
<clipPath id="c0_326"><path d="M174.4,911.2l-6.5,-2.1L151.5,895.2V838.1h72v73.1Z"/></clipPath>
<clipPath id="c1_326"><path d="M199.5,357.1V257.9h99.2v99.2Z"/></clipPath>
<clipPath id="c2_326"><path d="M363.1,357.1V257.9h99.2v99.2Z"/></clipPath>
<clipPath id="c3_326"><path d="M526.7,357.1V257.9h99.2v99.2Z"/></clipPath>
<clipPath id="c4_326"><path d="M690.3,357.1V257.9h99.2v99.2Z"/></clipPath>
<clipPath id="c5_326"><path d="M199.5,534.4V435.2h99.2v99.2Z"/></clipPath>
<clipPath id="c6_326"><path d="M199.5,714V614.8h99.2V714Z"/></clipPath>
<clipPath id="c7_326"><path d="M696.7,1061.6v-61.1h75.6v61.1Z"/></clipPath>
<clipPath id="c8_326"><path d="M534,1070.8V999h69.5v71.8Z"/></clipPath>
<clipPath id="c9_326"><path d="M534,1071.6v-3.1h69.5v3.1Z"/></clipPath>
<clipPath id="ca_326"><path d="M369.7,1070.8v-4.6h75.6v4.6Z"/></clipPath>
<clipPath id="cb_326"><path d="M369.7,1068.5V996h75.6v72.5Z"/></clipPath>
<clipPath id="cc_326"><path d="M212.4,1069.6V995.1h74.5v74.5Z"/></clipPath>
<clipPath id="cd_326"><path d="M210.1,1070.8v-3h75.6v3Z"/></clipPath>
<clipPath id="ce_326"><path d="M177,234.1L170.5,232L154.1,218.1V161h72v73.1Z"/></clipPath>
<style type="text/css"><![CDATA[
.g0_326{
fill: #FEFCF4;
}
.g1_326{
fill: #FCE8B0;
}
.g2_326{
fill: #FFF;
}
.g3_326{
fill: none;
stroke: #6381B7;
stroke-width: 0.763;
}
.g4_326{
fill: none;
stroke: #949698;
stroke-width: 0.381;
}
.g5_326{
fill: #93BEDA;
}
.g6_326{
fill: #F0E8F3;
}
.g7_326{
fill: #6381B7;
}
.g8_326{
fill: none;
stroke: #6381B7;
stroke-width: 0.381;
stroke-dasharray: 2,1;
}
.g9_326{
fill: none;
stroke: #6381B7;
stroke-width: 0.381;
}
.ga_326{
fill: #25408F;
}
.gb_326{
fill: #00BAF1;
}
.gc_326{
fill: #332D2C;
}
.gd_326{
fill: #D9DFF0;
}
.ge_326{
fill: #F27C85;
}
.gf_326{
fill: #7DD3F6;
}
.gg_326{
fill: none;
stroke: #FFF;
stroke-width: 1.909;
stroke-miterlimit: 10;
}
.gh_326{
fill: none;
stroke: #000;
stroke-width: 0.381;
stroke-miterlimit: 10;
}
]]></style>
</defs>
<path d="M32.1,1343.2H954.5V32.1H32.1V1343.2Z" class="g0_326"/>
<path d="M207,866.2c0,0,-12.9,0,-12.9,13v21.7c0,0,0,13,12.9,13H830.7c0,0,13,0,13,-13V879.2c0,0,0,-13,-13,-13Z" class="g1_326"/>
<image clip-path="url(#c0_326)" preserveAspectRatio="none" x="150" y="836" width="75" height="77" xlink:href="img/1.png"/>
<path d="M201.8,906.5c0,0,-26.8,11.3,-51.1,-12.7c0,0,15.2,25.3,49.3,23.9c0,0,24.8,.4,20.3,-10.1c0,0,1.2,-4.5,-18.5,-1.1Z" class="g1_326"/>
<path d="M150.9,135c0,0,-18.3,0,-18.3,18.3V772.5c0,0,0,18.4,18.3,18.4H828c0,0,18.4,0,18.4,-18.4V135Z" class="g2_326"/>
<path d="M150.9,135c0,0,-18.3,0,-18.3,18.3V772.5c0,0,0,18.4,18.3,18.4H828c0,0,18.4,0,18.4,-18.4V135H150.9Z" class="g3_326"/>
<path d="M188.8,357.1H309.3V257.9H188.8v99.2Z" class="g2_326"/>
<image clip-path="url(#c1_326)" preserveAspectRatio="none" x="199" y="258" width="100" height="99" xlink:href="img/2.jpg"/>
<path d="M188.8,357.1H309.3V257.9H188.8v99.2Z" class="g4_326"/>
<path d="M352.4,357.1H472.9V257.9H352.4v99.2Z" class="g2_326"/>
<image clip-path="url(#c2_326)" preserveAspectRatio="none" x="363" y="258" width="99" height="99" xlink:href="img/3.jpg"/>
<path d="M352.4,357.1H472.9V257.9H352.4v99.2Z" class="g4_326"/>
<path d="M516,357.1H636.5V257.9H516v99.2Z" class="g2_326"/>
<image clip-path="url(#c3_326)" preserveAspectRatio="none" x="527" y="258" width="99" height="99" xlink:href="img/4.jpg"/>
<path d="M516,357.1H636.5V257.9H516v99.2Z" class="g4_326"/>
<path d="M679.6,357.1H800.1V257.9H679.6v99.2Z" class="g2_326"/>
<image clip-path="url(#c4_326)" preserveAspectRatio="none" x="690" y="258" width="99" height="99" xlink:href="img/5.jpg"/>
<path d="M679.6,357.1H800.1V257.9H679.6v99.2Z" class="g4_326"/>
<path d="M188.8,534.4H309.3V435.2H188.8v99.2Z" class="g2_326"/>
<image clip-path="url(#c5_326)" preserveAspectRatio="none" x="199" y="435" width="100" height="99" xlink:href="img/6.jpg"/>
<path d="M188.8,534.4H309.3V435.2H188.8v99.2Z" class="g4_326"/>
<path d="M352.4,534.4H472.9V435.2H352.4v99.2Z" class="g2_326"/>
<image preserveAspectRatio="none" x="363" y="435" width="99" height="99" xlink:href="img/7.jpg"/>
<path d="M352.4,534.4H472.9V435.2H352.4v99.2Z" class="g4_326"/>
<path d="M516,534.4H638.4V435.2H516v99.2Z" class="g2_326"/>
<image preserveAspectRatio="none" x="528" y="435" width="99" height="99" xlink:href="img/8.jpg"/>
<path d="M516,534.4H638.4V435.2H516v99.2Z" class="g4_326"/>
<path d="M679.6,534.4H800.1V435.2H679.6v99.2Z" class="g2_326"/>
<image preserveAspectRatio="none" x="690" y="435" width="99" height="99" xlink:href="img/9.jpg"/>
<path d="M679.6,534.4H800.1V435.2H679.6v99.2Z" class="g4_326"/>
<path d="M188.8,714H309.3V614.8H188.8V714Z" class="g2_326"/>
<image clip-path="url(#c6_326)" preserveAspectRatio="none" x="199" y="615" width="100" height="99" xlink:href="img/10.jpg"/>
<path d="M188.8,714H309.3V614.8H188.8V714Z" class="g4_326"/>
<path d="M352.4,714H472.9V614.8H352.4V714Z" class="g2_326"/>
<image preserveAspectRatio="none" x="363" y="615" width="99" height="99" xlink:href="img/11.jpg"/>
<path d="M352.4,714H472.9V614.8H352.4V714Z" class="g4_326"/>
<path d="M516,714H638.4V614.8H516V714Z" class="g2_326"/>
<image preserveAspectRatio="none" x="528" y="615" width="99" height="99" xlink:href="img/12.jpg"/>
<path d="M516,714H638.4V614.8H516V714Z" class="g4_326"/>
<path d="M145.1,926.8c0,0,-13,0,-13,12.9v237.8c0,0,0,13,13,13H832.9c0,0,13,0,13,-13V939.7c0,0,0,-12.9,-13,-12.9Z" class="g2_326"/>
<path d="M145.1,926.8c0,0,-13,0,-13,12.9v237.8c0,0,0,13,13,13H832.9c0,0,13,0,13,-13V939.7c0,0,0,-12.9,-13,-12.9H145.1Z" class="g3_326"/>
<image clip-path="url(#c7_326)" preserveAspectRatio="none" x="697" y="995" width="75" height="74" xlink:href="img/13.jpg"/>
<image clip-path="url(#c8_326)" preserveAspectRatio="none" x="529" y="996" width="74" height="74" xlink:href="img/14.jpg"/>
<image clip-path="url(#c9_326)" preserveAspectRatio="none" x="529" y="1069" width="74" height="75" xlink:href="img/15.jpg"/>
<image clip-path="url(#ca_326)" preserveAspectRatio="none" x="370" y="1067" width="75" height="74" xlink:href="img/16.jpg"/>
<image clip-path="url(#cb_326)" preserveAspectRatio="none" x="370" y="994" width="75" height="74" xlink:href="img/17.jpg"/>
<image clip-path="url(#cc_326)" preserveAspectRatio="none" x="211" y="995" width="76" height="76" xlink:href="img/18.jpg"/>
<image clip-path="url(#cd_326)" preserveAspectRatio="none" x="211" y="1068" width="74" height="75" xlink:href="img/19.jpg"/>
<path d="M734.8,1133.3c2,0,3.6,-1.6,3.6,-3.6c0,-2,-1.6,-3.6,-3.6,-3.6c-2,0,-3.6,1.6,-3.6,3.6c0,2,1.6,3.6,3.6,3.6Z" class="g5_326"/>
<path d="M573,1133.3c2,0,3.6,-1.6,3.6,-3.6c0,-2,-1.6,-3.6,-3.6,-3.6c-2,0,-3.6,1.6,-3.6,3.6c0,2,1.6,3.6,3.6,3.6Z" class="g5_326"/>
<path d="M411.1,1133.3c2,0,3.7,-1.6,3.7,-3.6c0,-2,-1.7,-3.6,-3.7,-3.6c-1.9,0,-3.6,1.6,-3.6,3.6c0,2,1.7,3.6,3.6,3.6Z" class="g5_326"/>
<path d="M249.3,1133.3c2,0,3.6,-1.6,3.6,-3.6c0,-2,-1.6,-3.6,-3.6,-3.6c-2,0,-3.6,1.6,-3.6,3.6c0,2,1.6,3.6,3.6,3.6Z" class="g5_326"/>
<path d="M203.3,1144.3c0,0,-13,0,-13,13v6.5c0,0,0,13,13,13h95.3c0,0,13,0,13,-13v-6.5c0,0,0,-13,-13,-13Z" class="g6_326"/>
<path d="M364.7,1144.3c0,0,-13,0,-13,13v6.5c0,0,0,13,13,13H460c0,0,12.9,0,12.9,-13v-6.5c0,0,0,-13,-12.9,-13Z" class="g6_326"/>
<path d="M526.1,1144.3c0,0,-13,0,-13,13v6.5c0,0,0,13,13,13h95.2c0,0,13,0,13,-13v-6.5c0,0,0,-13,-13,-13Z" class="g6_326"/>
<path d="M683.1,1144.3c0,0,-8.6,0,-8.6,8.7v15.1c0,0,0,8.7,8.6,8.7h104c0,0,8.6,0,8.6,-8.7V1153c0,0,0,-8.7,-8.6,-8.7Z" class="g6_326"/>
<path d="M734.8,1083.5c2,0,3.6,-1.6,3.6,-3.6c0,-2,-1.6,-3.6,-3.6,-3.6c-2,0,-3.6,1.6,-3.6,3.6c0,2,1.6,3.6,3.6,3.6Z" class="g5_326"/>
<path d="M573,1083.5c2,0,3.6,-1.6,3.6,-3.6c0,-2,-1.6,-3.6,-3.6,-3.6c-2,0,-3.6,1.6,-3.6,3.6c0,2,1.6,3.6,3.6,3.6Z" class="g5_326"/>
<path d="M411.1,1083.5c2,0,3.7,-1.6,3.7,-3.6c0,-2,-1.7,-3.6,-3.7,-3.6c-1.9,0,-3.6,1.6,-3.6,3.6c0,2,1.7,3.6,3.6,3.6Z" class="g5_326"/>
<path d="M249.3,1083.5c2,0,3.6,-1.6,3.6,-3.6c0,-2,-1.6,-3.6,-3.6,-3.6c-2,0,-3.6,1.6,-3.6,3.6c0,2,1.6,3.6,3.6,3.6Z" class="g5_326"/>
<path d="M629.8,1207.5c0,0,-4.3,0,-4.3,4.3v10.8c0,0,0,4.4,4.3,4.4h30.4c0,0,4.3,0,4.3,-4.4v-10.8c0,0,0,-4.3,-4.3,-4.3Z" class="g7_326"/>
<path d="M616.7,1200v34.8m1.3,1H844.8m1,-1.3v-34.9m-1.4,-1H617.6" class="g8_326"/>
<path d="M616.7,1235.2v.6h.5m228,0h.6v-.6m0,-36v-.6h-.6m-228,0h-.5v.6" class="g9_326"/>
<path d="M209.6,189.1c0,0,-12.9,0,-12.9,13v21.7c0,0,0,13,12.9,13h602c0,0,13,0,13,-13V202.1c0,0,0,-13,-13,-13Z" class="g1_326"/>
<image clip-path="url(#ce_326)" preserveAspectRatio="none" x="153" y="159" width="75" height="77" xlink:href="img/20.png"/>
<path d="M204.4,229.4c0,0,-26.8,11.3,-51.1,-12.8c0,0,15.2,25.4,49.3,24c0,0,24.8,.3,20.3,-10.1c0,0,1.2,-4.5,-18.5,-1.1Z" class="g1_326"/>
<path d="M131.7,126.7v22.2l11.7,10.3V137Z" class="ga_326"/>
<path d="M131.7,109.9v39H829.4c0,0,16.9,0,16.9,-16.8v-5.4c0,0,0,-16.8,-16.9,-16.8Z" class="g7_326"/>
<path d="M189.6,121.3l-6.4,-6.5L162,136l6.4,6.5Z" class="gb_326"/>
<path d="M168.4,143c.2,0,.3,0,.4,-.1L190,121.7c.1,-.1,.2,-.3,.2,-.4c0,-.1,-.1,-.3,-.2,-.4l-6.5,-6.4c-.2,-.2,-.5,-.2,-.7,0l-21.2,21.2c-.1,.1,-.2,.2,-.2,.3c0,.2,.1,.3,.2,.4l6.5,6.5c.1,.1,.2,.1,.3,.1m20.5,-21.7l-20.5,20.5L162.7,136l20.5,-20.4Z" class="gc_326"/>
<path d="M189.6,121.3l-6.4,-6.5l2.1,-2.1l6.5,6.5Z" class="gd_326"/>
<path d="M189.6,121.8c.2,0,.3,0,.4,-.1l2.1,-2.1c.1,-.1,.2,-.3,.2,-.4c0,-.2,-.1,-.3,-.2,-.4l-6.4,-6.5c-.2,-.2,-.6,-.2,-.8,0l-2.1,2.2c-.1,0,-.2,.2,-.2,.3c0,.2,.1,.3,.2,.4l6.5,6.5c.1,.1,.2,.1,.3,.1m1.4,-2.6l-1.4,1.4l-5.7,-5.8l1.4,-1.4Z" class="gc_326"/>
<path d="M195.4,115.6l-6.5,-6.5l-3.6,3.6l6.5,6.5Z" class="ge_326"/>
<path d="M191.8,119.7c.1,0,.2,0,.3,-.1l3.7,-3.7c.2,-.2,.2,-.5,0,-.7l-6.5,-6.5c-.2,-.2,-.6,-.2,-.8,0l-3.6,3.6c-.2,.2,-.2,.6,0,.8l6.5,6.5c.1,.1,.2,.1,.4,.1m2.8,-4.1l-2.8,2.8L186,112.7l2.9,-2.9Z" class="gc_326"/>
<path d="M157.3,147.2L162,136l6.4,6.5Z" class="g2_326"/>
<path d="M157.3,147.7c.1,0,.2,0,.2,-.1L168.6,143c.2,-.1,.3,-.2,.4,-.4c0,-.2,-.1,-.3,-.2,-.5l-6.5,-6.4c-.1,-.2,-.3,-.2,-.5,-.2c-.1,.1,-.3,.2,-.3,.3l-4.7,11.1c0,.2,0,.5,.1,.6c.1,.1,.3,.2,.4,.2m10.2,-5.4l-9.2,3.9l3.8,-9.2Z" class="gc_326"/>
<path d="M157.3,147.2l2.3,-5.4l3.1,3.1Z" class="gc_326"/>
<path d="M157.3,147.7c.1,0,.2,0,.2,-.1l5.4,-2.2c.1,-.1,.3,-.2,.3,-.4c0,-.2,0,-.3,-.1,-.5l-3.2,-3.1c-.1,-.1,-.3,-.2,-.4,-.1c-.2,0,-.4,.1,-.4,.3l-2.3,5.3c0,.2,0,.5,.1,.6c.1,.1,.3,.2,.4,.2m4.5,-3l-3.5,1.5l1.4,-3.5Z" class="gc_326"/>
<path d="M187.9,119.5l-3,-2.9l-21.2,21.2l3,3Z" class="gf_326"/>
<path d="M166.7,141.3c.1,0,.2,-.1,.3,-.2l21.3,-21.2c.1,-.1,.1,-.2,.1,-.4c0,-.1,0,-.2,-.1,-.3l-3,-3c-.2,-.2,-.5,-.2,-.8,0l-21.2,21.2c-.1,.1,-.1,.3,-.1,.4c0,.1,0,.3,.1,.4l3,2.9c.1,.1,.2,.2,.4,.2m20.4,-21.8L166.7,140l-2.2,-2.2l20.4,-20.5Z" class="gc_326"/>
<path d="M32.1,45.1H9.2m958.3,0h22.9M32.1,1331.3H9.2m958.3,0h22.9M45.1,32.1V9.2m0,1335.1v22.9M954.5,32.1V9.2m0,1335.1v22.9" class="gg_326"/>
<path d="M32.1,45.1H9.2m958.3,0h22.9M32.1,1331.3H9.2m958.3,0h22.9M45.1,32.1V9.2m0,1335.1v22.9M954.5,32.1V9.2m0,1335.1v22.9" class="gh_326"/>
<path d="M27.5,32.1H0m972.1,0h27.5M27.5,1344.3H0m972.1,0h27.5M32.1,27.5V0m0,1348.9v27.5M967.5,27.5V0m0,1348.9v27.5" class="gg_326"/>
<path d="M27.5,32.1H0m972.1,0h27.5M27.5,1344.3H0m972.1,0h27.5M32.1,27.5V0m0,1348.9v27.5M967.5,27.5V0m0,1348.9v27.5" class="gh_326"/>
</svg>