<?xml version="1.0" encoding="UTF-8" standalone="no"?>
<!DOCTYPE svg PUBLIC "-//W3C//DTD SVG 1.1//EN"
"http://www.w3.org/Graphics/SVG/1.1/DTD/svg11.dtd">
<svg viewBox="0 0 999 1376" version="1.1" xmlns="http://www.w3.org/2000/svg" xmlns:xlink="http://www.w3.org/1999/xlink">
<defs>
<clipPath id="c0_181"><path d="M82.5,632.9V373.8H268.4V632.9Z"/></clipPath>
<clipPath id="c1_181"><path d="M79.1,633V372.3H274.4V633Z"/></clipPath>
<clipPath id="c2_181"><path d="M78.8,632.7V372H274.1V632.7Z"/></clipPath>
<clipPath id="c3_181"><path d="M741,891V601.1H943.4V891Z"/></clipPath>
<clipPath id="c4_181"><path d="M738.3,890.6V601.8H946.2V890.6Z"/></clipPath>
<clipPath id="c5_181"><path d="M738,890.3V601.5H945.9V890.3Z"/></clipPath>
<clipPath id="c6_181"><path d="M200.8,240.3l-6.5,-2.1L178,224.3V167.2h71.9v73.1Z"/></clipPath>
<clipPath id="c7_181"><path d="M198.7,1000.6l-6.5,-2.1l-16.4,-14V927.4h72v73.2Z"/></clipPath>
<clipPath id="c8_181"><path d="M786.5,132.5V120.1H801v12.4Z"/></clipPath>
<clipPath id="c9_181"><path d="M169.7,390.5c-.3,-.1,3.6,-8.2,3.6,-8.2l.7,.5c0,0,-4,7.7,-4.3,7.7Z"/></clipPath>
<clipPath id="ca_181"><path d="M177.2,382.8c0,0,-6.8,-1.1,-7.6,-5.3c-.6,-3.6,1.6,-3.8,2.1,-3.8q.1,0,.1,0L180.1,361l-1.4,-3.1c0,0,-.6,-1.1,.1,-2.1c.1,0,.2,-.1,.3,-.1c2.1,0,13,5.6,13,5.6v.1c-.3,.5,-.7,1.2,-1.4,1.7c-.6,.5,-5,1.1,-5,1.1l-8.5,18.6Z"/></clipPath>
<clipPath id="cb_181"><path d="M176.8,382.4c.2,-.5,.2,-1.8,0,-2.2v-1.4c-1.5,-.6,-2.9,-1.3,-3.6,-2.5c-1.1,.5,-2.2,1.2,-3.2,1.8c1.6,2.2,3.8,3.6,6.8,4.3Zm0,-3.9c2.2,-4.5,4,-9.5,6.2,-14.1c-.9,-.3,-1.9,-1.3,-2.7,-1.3c-2.3,4.3,-4.6,8.6,-7,12.8c.7,1.3,2.1,2,3.5,2.6Zm-7.3,12.1c1.1,-2.9,2.4,-5.5,3.5,-8.3c-2,-1.6,-3.9,-3.1,-4.4,-6.2v-1.5c0,-2.7,2,-3.4,4.6,-3.4q.1,0,.2,0c1.9,-3.3,4.2,-6.3,6.2,-9.6c-.6,-.9,-1.2,-2.4,-.9,-3.7c.5,1.3,1.6,1.9,2.4,2.9c-.1,.6,-.3,1.1,-.4,1.8c.6,.6,1.3,1.1,2.4,1.3c.4,-.4,.5,-1.2,1.1,-1.5c1,.4,1.9,.8,3.2,.8c.1,.1,.4,.1,.8,.1c.3,0,.7,0,.8,-.1c.1,0,.2,0,.3,0c.2,0,.4,0,.6,-.1c.2,-.1,.4,-.1,.5,-.1c.1,0,.2,0,.3,.1c-1.3,.6,-2.1,1.7,-4.1,1.7c-.1,0,-.3,0,-.4,0c-.8,3.8,-1.8,7.4,-2.6,11.2c.5,1.1,1.5,1.7,1.2,3.1c-.4,2.8,-3.8,4.4,-7.2,4.4c-1.2,0,-2.5,-.2,-3.6,-.7c-1,2.1,-2,4.1,-3.2,6c-.1,-.3,.3,-.4,.2,-.7c1,-1.8,2,-3.6,2.7,-5.7c-1.1,1.7,-1.9,3.7,-2.8,5.5c-.2,.5,-.4,.9,-.6,1.3c-.3,.4,-.3,1.1,-.8,1.4Z"/></clipPath>
<clipPath id="cc_181"><path d="M187.2,362.8c-4.8,0,-13,-7.3,-5.5,-8.8H183c.2,.1,.4,.1,.6,.1c.1,0,.2,0,.3,0c.2,0,.5,0,.8,0c3.1,.7,8.2,3.8,7.6,7.1c-.3,1.1,-1.6,1.6,-3.2,1.6h-1.7q-.1,0,-.2,0Z"/></clipPath>
<clipPath id="cd_181"><path d="M845.3,597.5c-.3,-.1,3.5,-8.3,3.5,-8.3l.8,.6c0,0,-4,7.7,-4.3,7.7Z"/></clipPath>
<clipPath id="ce_181"><path d="M852.8,589.7c0,0,-6.8,-1.1,-7.6,-5.2c-.6,-3.6,1.5,-3.8,2.1,-3.8q.1,0,.1,0l8.3,-12.8l-1.4,-3c0,0,-.6,-1.2,.1,-2.1c.1,-.1,.2,-.1,.3,-.1c2.1,0,13,5.5,13,5.5v.2c-.3,.5,-.7,1.1,-1.4,1.6c-.6,.5,-5,1.2,-5,1.2l-8.5,18.5Z"/></clipPath>
<clipPath id="cf_181"><path d="M852.4,589.4c.2,-.5,.2,-1.8,0,-2.3v-1.4c-1.5,-.5,-2.9,-1.2,-3.7,-2.5c-1,.6,-2.1,1.2,-3.1,1.9c1.6,2.1,3.8,3.6,6.8,4.3Zm0,-3.9c2.2,-4.6,4,-9.5,6.2,-14.1c-.9,-.4,-1.9,-1.3,-2.7,-1.4c-2.3,4.3,-4.6,8.7,-7,12.8c.7,1.4,2.1,2.1,3.5,2.7Zm-7.3,12c1.1,-2.8,2.4,-5.4,3.5,-8.2c-2,-1.6,-3.9,-3.2,-4.4,-6.2v-1.5c0,-2.7,2,-3.4,4.6,-3.4q.1,0,.2,0c1.9,-3.3,4.2,-6.3,6.2,-9.7c-.6,-.8,-1.2,-2.3,-.9,-3.6c.5,1.2,1.6,1.9,2.4,2.9c-.2,.6,-.3,1.1,-.4,1.7c.6,.7,1.3,1.2,2.4,1.4c.4,-.4,.5,-1.2,1.1,-1.5c1,.4,1.9,.7,3.2,.8c.1,.1,.4,.1,.8,.1c.3,0,.7,0,.8,-.1c.1,0,.2,0,.3,0c.2,0,.4,-.1,.6,-.1c.2,-.1,.4,-.2,.5,-.2c.1,0,.2,.1,.3,.1c-1.3,.7,-2.1,1.8,-4.1,1.8c-.1,0,-.3,0,-.4,0c-.8,3.7,-1.8,7.3,-2.6,11.2c.5,1,1.5,1.7,1.2,3.1c-.4,2.7,-3.8,4.4,-7.2,4.4c-1.2,0,-2.5,-.2,-3.6,-.7c-1,2.1,-2,4.1,-3.2,6c-.1,-.4,.2,-.4,.2,-.8c1,-1.8,2,-3.6,2.7,-5.6c-1.1,1.7,-1.9,3.7,-2.8,5.5c-.2,.4,-.4,.8,-.6,1.3c-.3,.4,-.3,1.1,-.8,1.3Z"/></clipPath>
<clipPath id="cg_181"><path d="M862.8,569.8c-4.8,0,-13.1,-7.3,-5.5,-8.8h1.3c.1,0,.4,0,.6,0q.1,0,.2,0c.3,0,.6,0,.9,.1c3.1,.6,8.2,3.8,7.6,7c-.3,1.2,-1.6,1.6,-3.2,1.7H863q-.1,0,-.2,0Z"/></clipPath>
<style type="text/css"><![CDATA[
.g0_181{
fill: #FEFCF4;
}
.g1_181{
fill: #FFF;
}
.g2_181{
fill: none;
stroke: #6381B7;
stroke-width: 0.763;
}
.g3_181{
fill: none;
stroke: #949698;
stroke-width: 0.305;
stroke-dasharray: 4,4;
}
.g4_181{
fill: none;
stroke: #949698;
stroke-width: 0.305;
}
.g5_181{
fill: #F7C2D9;
}
.g6_181{
fill: #FDF4F3;
}
.g7_181{
fill: #EC008C;
}
.g8_181{
fill: none;
stroke: #949698;
stroke-width: 0.305;
stroke-dasharray: 3,3;
}
.g9_181{
fill: #6D6F71;
}
.ga_181{
fill: #6381B7;
}
.gb_181{
fill: none;
stroke: #6381B7;
stroke-width: 0.381;
stroke-dasharray: 2,1;
}
.gc_181{
fill: none;
stroke: #6381B7;
stroke-width: 0.381;
}
.gd_181{
fill: #233D4A;
}
.ge_181{
fill: #93BEDA;
}
.gf_181{
fill: #FCE8B0;
}
.gg_181{
fill: #25408F;
}
.gh_181{
fill: #A8AAAD;
}
.gi_181{
fill: none;
stroke: #949698;
stroke-width: 0.549;
}
.gj_181{
fill: none;
stroke: #BCBEC0;
stroke-width: 2.566;
}
.gk_181{
fill: #231F20;
}
.gl_181{
fill: #363637;
}
.gm_181{
fill: #5CC4BE;
}
.gn_181{
fill: #F0D73F;
}
.go_181{
fill: none;
stroke: #FFF;
stroke-width: 1.909;
stroke-miterlimit: 10;
}
.gp_181{
fill: none;
stroke: #000;
stroke-width: 0.381;
stroke-miterlimit: 10;
}
]]></style>
</defs>
<path d="M45.1,1344.3H967.5V32.1H45.1V1344.3Z" class="g0_181"/>
<path d="M173.3,137.1c0,0,-18.3,0,-18.3,18.4V864.8c0,0,0,18.3,18.3,18.3H850.4c0,0,18.4,0,18.4,-18.3V137.1Z" class="g1_181"/>
<path d="M173.3,137.1c0,0,-18.3,0,-18.3,18.4V864.8c0,0,0,18.3,18.3,18.3H850.4c0,0,18.4,0,18.4,-18.3V137.1H173.3Z" class="g2_181"/>
<path d="M600.9,418.5c13.4,-.9,24.1,-5.6,26.9,-11.7m-.8,-7.6c-3.8,-5.6,-14.6,-9.8,-27.7,-10.4m-8,0c-13.4,1,-24.1,5.7,-26.8,11.8m.8,7.6c3.8,5.6,14.6,9.8,27.6,10.4" class="g3_181"/>
<path d="M628.3,405.3c.1,-.5,.2,-1.1,.2,-1.6c0,-.6,-.1,-1.1,-.2,-1.6M597.7,388.7c-.5,0,-1,0,-1.6,0c-.5,0,-1,0,-1.6,0M564,402.1c-.1,.5,-.2,1,-.2,1.6c0,.5,.1,1.1,.2,1.6m30.5,13.4c.6,0,1.1,0,1.6,0c.6,0,1.1,0,1.6,0" class="g4_181"/>
<image clip-path="url(#c0_181)" preserveAspectRatio="none" x="83" y="374" width="185" height="259" xlink:href="img/1.png"/>
<path d="M87.6,379.2L91,622.5l170.8,4.1l-1,-246.3Z" class="g5_181"/>
<image clip-path="url(#c1_181)" preserveAspectRatio="none" x="79" y="373" width="195" height="260" xlink:href="img/2.png"/>
<image clip-path="url(#c2_181)" preserveAspectRatio="none" x="79" y="373" width="194" height="260" xlink:href="img/3.png"/>
<path d="M83.6,384.7L95.8,626.6l140.3,-6.7L268,595.7L256.6,376.8Z" class="g6_181"/>
<path d="M236.4,620L268,595.6l-18.1,-7.9Z" class="g7_181"/>
<path d="M573.1,391.9C554.8,386.5,479.7,367.6,368.8,383m-7.4,1.4c-5,1.6,-.6,3.8,4.8,4.4" class="g3_181"/>
<path d="M370.2,386c-2.3,-2.9,-9.4,-7.3,-19.7,-9.2" class="g8_181"/>
<path d="M343,375.9C315.9,373,283.7,373.6,236.5,393" class="g3_181"/>
<path d="M577.5,393.3c0,0,-.5,-.2,-1.4,-.5M367.3,383.2c-.5,.1,-1,.2,-1.5,.2c-.5,.1,-1,.2,-1.5,.3m3.4,5.2c.5,0,1,.1,1.5,.1c.6,0,1.1,-.2,1.4,-.4M349,376.6c-.5,-.1,-1,-.1,-1.5,-.2c-.5,-.1,-1,-.1,-1.5,-.2M235.1,393.6c-.5,.2,-1,.4,-1.5,.6" class="g4_181"/>
<path d="M238.6,397.5l-5.5,-6.8l-6,10.6Z" class="g9_181"/>
<image clip-path="url(#c3_181)" preserveAspectRatio="none" x="740" y="602" width="203" height="289" xlink:href="img/4.png"/>
<path d="M746,609.8l1.6,274.7l188.4,-4l.8,-274.3Z" class="g5_181"/>
<image clip-path="url(#c4_181)" preserveAspectRatio="none" x="738" y="603" width="208" height="288" xlink:href="img/5.png"/>
<image clip-path="url(#c5_181)" preserveAspectRatio="none" x="738" y="602" width="208" height="289" xlink:href="img/6.png"/>
<path d="M749.8,606.6l-7,271.8l157.6,5.8L934,858.5l5.6,-247.7Z" class="g6_181"/>
<path d="M900.5,884.2l33.2,-25.3l-17.6,-3.1Z" class="g7_181"/>
<path d="M444,723.7c20.2,-.7,36.5,-5.9,40.3,-12.6m-1,-7.5c-.9,-1.1,-2.2,-2.2,-3.8,-3.1m-7.4,-3.4c-7.6,-2.7,-18.1,-4.4,-29.7,-4.7m-8.1,0c-20.1,.8,-36.4,5.9,-40.3,12.6m.9,7.4c5.3,6.3,21.5,10.9,41.1,11.4" class="g3_181"/>
<path d="M485,709.7c.1,-.6,.2,-1.1,.2,-1.6c0,-.6,-.1,-1.1,-.2,-1.7m-7,-6.8c-.4,-.2,-.9,-.5,-1.5,-.7c-.4,-.2,-.9,-.4,-1.4,-.7m-34.3,-5.8c-.6,0,-1.1,0,-1.6,0c-.6,0,-1.1,0,-1.6,0m-44.2,14.1c-.2,.5,-.3,1,-.3,1.6c0,.5,.1,1,.3,1.6m44.2,14.1c.5,0,1,0,1.6,0c.5,0,1,0,1.6,0" class="g4_181"/>
<path d="M455,693.6c0,0,194,-30.1,291,-30.1" class="g3_181"/>
<path d="M743.7,659l.8,8.8l10.8,-5.5Z" class="g9_181"/>
<path d="M580.1,1113.8c0,0,-4.3,0,-4.3,4.3v10.8c0,0,0,4.4,4.3,4.4h30.4c0,0,4.3,0,4.3,-4.4v-10.8c0,0,0,-4.3,-4.3,-4.3Z" class="ga_181"/>
<path d="M567,1106.3v34.9m1.3,.9H866.8m.9,-1.3v-34.9m-1.3,-1H567.9" class="gb_181"/>
<path d="M567,1141.5v.6h.5m299.6,0h.6v-.6m0,-36v-.6h-.6m-299.6,0H567v.6" class="gc_181"/>
<path d="M393.4,1167.1l27.2,24.9H393.4Z" class="gd_181"/>
<path d="M162.4,1189.5c0,0,-8.7,0,-8.7,8.7v25c0,0,0,8.6,8.7,8.6H728.9c0,0,8.7,0,8.7,-8.6v-25c0,0,0,-8.7,-8.7,-8.7Z" class="g1_181"/>
<path d="M162.4,1189.5c0,0,-8.7,0,-8.7,8.7v25c0,0,0,8.6,8.7,8.6H728.9c0,0,8.7,0,8.7,-8.6v-25c0,0,0,-8.7,-8.7,-8.7H162.4Z" class="g2_181"/>
<path d="M180.8,1167.3c0,0,-8.7,0,-8.7,8.7v10c0,0,0,8.6,8.7,8.6H392.6c0,0,8.6,0,8.6,-8.6v-10c0,0,0,-8.7,-8.6,-8.7Z" class="ga_181"/>
<path d="M161.4,1191.2h6.4V1173h-6.4v18.2Z" class="ge_181"/>
<path d="M167.8,1191.8h-6.4c-.3,0,-.5,-.2,-.5,-.6V1173c0,-.3,.2,-.6,.5,-.6h6.4c.3,0,.6,.3,.6,.6v18.2c0,.4,-.3,.6,-.6,.6m-5.8,-1.1h5.2v-17.1H162Z" class="gd_181"/>
<path d="M161.4,1194.2h6.4v-3h-6.4v3Z" class="g1_181"/>
<path d="M167.8,1194.7h-6.4c-.3,0,-.5,-.2,-.5,-.5v-3c0,-.3,.2,-.5,.5,-.5h6.4c.3,0,.6,.2,.6,.5v3c0,.3,-.3,.5,-.6,.5m-5.8,-1.1h5.2v-1.8H162Z" class="gd_181"/>
<path d="M161.4,1173h6.4l-1.6,-2.7l-.2,-.3h-2.7l-.2,.3Z" class="g1_181"/>
<path d="M167.8,1173.5h-6.4c-.2,0,-.4,-.1,-.5,-.3c-.1,-.1,-.1,-.4,0,-.5l1.9,-3c.1,-.1,.3,-.2,.5,-.2H166c.2,0,.4,.1,.5,.2l1.8,3c.1,.1,.1,.4,0,.5c-.1,.2,-.3,.3,-.5,.3m-5.3,-1.1h4.3l-1.1,-1.8h-2.1Z" class="gd_181"/>
<path d="M165.7,1169.6l-1,-1.7l-1.1,1.7l-.3,.4H166Z" class="gd_181"/>
<path d="M166,1170.6h-2.7c-.2,0,-.4,-.1,-.5,-.3c-.1,-.2,-.1,-.4,0,-.6l1.4,-2.1c.1,-.2,.3,-.3,.5,-.3c.2,0,.3,.1,.4,.3l1.4,2.1c.1,.2,.1,.4,0,.6c-.1,.2,-.3,.3,-.5,.3m-1.6,-1.1h.5l-.2,-.5Z" class="gd_181"/>
<path d="M170.7,1194.3h7.9v-26.1h-7.9v26.1Z" class="ge_181"/>
<path d="M178.6,1194.8h-7.9c-.3,0,-.5,-.2,-.5,-.5v-26.1c0,-.3,.2,-.6,.5,-.6h7.9c.3,0,.6,.3,.6,.6v26.1c0,.3,-.3,.5,-.6,.5m-7.3,-1.1H178v-24.9h-6.7Z" class="gd_181"/>
<path d="M176.4,1170.8h1.9v-.5h-1.9v.5Z" class="gd_181"/>
<path d="M176.4,1172.9h1.9v-.4h-1.9v.4Z" class="gd_181"/>
<path d="M176.4,1175.1h1.9v-.5h-1.9v.5Z" class="gd_181"/>
<path d="M176.4,1177.3h1.9v-.5h-1.9v.5Z" class="gd_181"/>
<path d="M176.4,1179.4h1.9v-.4h-1.9v.4Z" class="gd_181"/>
<path d="M176.4,1181.6h1.9v-.5h-1.9v.5Z" class="gd_181"/>
<path d="M176.4,1183.7h1.9v-.4h-1.9v.4Z" class="gd_181"/>
<path d="M176.4,1185.9h1.9v-.5h-1.9v.5Z" class="gd_181"/>
<path d="M176.4,1188.1h1.9v-.5h-1.9v.5Z" class="gd_181"/>
<path d="M176.4,1190.2h1.9v-.4h-1.9v.4Z" class="gd_181"/>
<path d="M176.4,1192.4h1.9v-.5h-1.9v.5Z" class="gd_181"/>
<path d="M166.7,905.5c0,0,-13,0,-13,13v159.9c0,0,0,13,13,13H854.5c0,0,13,0,13,-13V918.5c0,0,0,-13,-13,-13Z" class="g1_181"/>
<path d="M166.7,905.5c0,0,-13,0,-13,13v159.9c0,0,0,13,13,13H854.5c0,0,13,0,13,-13V918.5c0,0,0,-13,-13,-13H166.7Z" class="g2_181"/>
<path d="M233.5,195.3c0,0,-13,0,-13,13V230c0,0,0,13,13,13H835.4c0,0,13,0,13,-13V208.3c0,0,0,-13,-13,-13Z" class="gf_181"/>
<image clip-path="url(#c6_181)" preserveAspectRatio="none" x="176" y="166" width="75" height="76" xlink:href="img/7.png"/>
<path d="M228.3,235.6c0,0,-26.9,11.3,-51.1,-12.7c0,0,15.1,25.3,49.2,23.9c0,0,24.8,.4,20.3,-10.1c0,0,1.2,-4.4,-18.4,-1.1Z" class="gf_181"/>
<path d="M231.3,955.6c0,0,-13,0,-13,13v21.6c0,0,0,13,13,13h602c0,0,13,0,13,-13V968.6c0,0,0,-13,-13,-13Z" class="gf_181"/>
<image clip-path="url(#c7_181)" preserveAspectRatio="none" x="174" y="926" width="75" height="76" xlink:href="img/8.png"/>
<path d="M226.1,995.9c0,0,-26.9,11.3,-51.1,-12.8c0,0,15.2,25.3,49.3,24c0,0,24.7,.3,20.2,-10.2c0,0,1.3,-4.4,-18.4,-1Z" class="gf_181"/>
<path d="M153.3,111.9v39L165,161.2V117Z" class="gg_181"/>
<path d="M153.3,111.9v39H851.1c0,0,16.8,0,16.8,-16.8v-5.3c0,0,0,-16.9,-16.8,-16.9Z" class="ga_181"/>
<path d="M802.6,145.6c8.2,0,14.9,-6.5,14.9,-14.5c0,-8.1,-6.7,-14.5,-14.9,-14.5c-8.2,0,-14.9,6.4,-14.9,14.5c0,8,6.7,14.5,14.9,14.5Z" class="gh_181"/>
<path d="M802.6,145.6c8.2,0,14.9,-6.5,14.9,-14.5c0,-8.1,-6.7,-14.5,-14.9,-14.5c-8.2,0,-14.9,6.4,-14.9,14.5c0,8,6.7,14.5,14.9,14.5Z" class="gi_181"/>
<path d="M802.6,136.4c3,0,5.5,-2.4,5.5,-5.3c0,-3,-2.5,-5.4,-5.5,-5.4c-3,0,-5.5,2.4,-5.5,5.4c0,2.9,2.5,5.3,5.5,5.3Z" class="g1_181"/>
<path d="M802.6,136.4c3,0,5.5,-2.4,5.5,-5.3c0,-3,-2.5,-5.4,-5.5,-5.4c-3,0,-5.5,2.4,-5.5,5.4c0,2.9,2.5,5.3,5.5,5.3Z" class="gj_181"/>
<g clip-path="url(#c8_181)" opacity="0.3">
<path d="M788,130.3c0,0,0,-4.8,3.7,-8.7l7.7,6.8c0,0,-1,.9,-1,2.6Z" class="g1_181"/>
</g>
<path d="M807.2,131c0,0,-3.5,0,-3.5,3.4v8.7c0,0,0,3.5,3.5,3.5h43.5c0,0,3.5,0,3.5,-3.5v-8.7c0,0,0,-3.4,-3.5,-3.4Z" class="gk_181"/>
<path d="M191.2,122c0,-8.3,-6.8,-15,-15.1,-15c-8.3,0,-15,6.7,-15,15c0,8.3,6.7,15.1,15,15.1c.8,0,1.7,-.1,2.4,-.2l4.5,5.2v-6.7c4.9,-2.5,8.2,-7.6,8.2,-13.4Z" class="g1_181"/>
<path d="M183.5,143.3l-5.1,-5.9c-.8,.1,-1.5,.1,-2.3,.1c-8.5,0,-15.5,-6.9,-15.5,-15.5c0,-8.5,7,-15.5,15.5,-15.5c8.6,0,15.5,7,15.5,15.5c0,5.7,-3.1,11,-8.1,13.7Zm-4.8,-6.9l3.9,4.5v-5.8l.2,-.1c4.9,-2.5,7.9,-7.5,7.9,-13c0,-8,-6.5,-14.6,-14.6,-14.6c-8,0,-14.6,6.6,-14.6,14.6c0,8.1,6.6,14.6,14.6,14.6c.8,0,1.6,-.1,2.4,-.2Z" class="gl_181"/>
<path d="M169.1,121.6c.8,0,1.4,.6,1.4,1.4c0,.8,-.6,1.5,-1.4,1.5c-.8,0,-1.4,-.7,-1.4,-1.5c0,-.8,.6,-1.4,1.4,-1.4Z" class="gm_181"/>
<path d="M169.1,124.9c-1,0,-1.9,-.8,-1.9,-1.9c0,-1,.9,-1.9,1.9,-1.9c1,0,1.9,.9,1.9,1.9c0,1.1,-.9,1.9,-1.9,1.9m0,-2.9c-.5,0,-1,.5,-1,1c0,.6,.5,1,1,1c.5,0,1,-.4,1,-1c0,-.5,-.5,-1,-1,-1Z" class="gl_181"/>
<path d="M176.1,121.6c.8,0,1.5,.6,1.5,1.4c0,.8,-.7,1.5,-1.5,1.5c-.8,0,-1.4,-.7,-1.4,-1.5c0,-.8,.6,-1.4,1.4,-1.4Z" class="gm_181"/>
<path d="M176.1,124.9c-1,0,-1.9,-.8,-1.9,-1.9c0,-1,.9,-1.9,1.9,-1.9c1.1,0,1.9,.9,1.9,1.9c0,1.1,-.8,1.9,-1.9,1.9m0,-2.9c-.5,0,-1,.5,-1,1c0,.6,.5,1,1,1c.6,0,1,-.4,1,-1c0,-.5,-.4,-1,-1,-1Z" class="gl_181"/>
<path d="M183.1,121.6c.8,0,1.5,.6,1.5,1.4c0,.8,-.7,1.5,-1.5,1.5c-.8,0,-1.4,-.7,-1.4,-1.5c0,-.8,.6,-1.4,1.4,-1.4Z" class="gm_181"/>
<path d="M183.1,124.9c-1,0,-1.9,-.8,-1.9,-1.9c0,-1,.9,-1.9,1.9,-1.9c1.1,0,1.9,.9,1.9,1.9c0,1.1,-.8,1.9,-1.9,1.9m0,-2.9c-.5,0,-1,.5,-1,1c0,.6,.5,1,1,1c.6,0,1,-.4,1,-1c0,-.5,-.4,-1,-1,-1Z" class="gl_181"/>
<path d="M185.1,136.3c0,-9.8,7.8,-17.7,17.6,-17.7c9.7,0,17.6,7.9,17.6,17.7c0,9.7,-7.9,17.6,-17.6,17.6c-1,0,-1.9,-.1,-2.9,-.3l-5.2,6.1v-7.8c-5.7,-2.9,-9.5,-8.8,-9.5,-15.6Z" class="gn_181"/>
<path d="M194.6,160.2q-.1,0,-.2,0c-.2,-.1,-.3,-.3,-.3,-.5v-7.5c-5.9,-3.2,-9.5,-9.2,-9.5,-15.9c0,-10,8.1,-18.1,18.1,-18.1c9.9,0,18,8.1,18,18.1c0,9.9,-8.1,18,-18,18c-.9,0,-1.8,0,-2.7,-.2l-5.1,5.9c-.1,.1,-.2,.2,-.3,.2m8.1,-41.1c-9.5,0,-17.2,7.7,-17.2,17.2c0,6.4,3.6,12.2,9.3,15.2c.1,.1,.2,.2,.2,.4v6.6l4.5,-5.2c.1,-.1,.3,-.1,.4,-.1c1,.1,1.9,.2,2.8,.2c9.4,0,17.1,-7.7,17.1,-17.1c0,-9.5,-7.7,-17.2,-17.1,-17.2Z" class="gl_181"/>
<path d="M210.9,135.8c.9,0,1.6,.7,1.6,1.6c0,1,-.7,1.7,-1.6,1.7c-1,0,-1.7,-.7,-1.7,-1.7c0,-.9,.7,-1.6,1.7,-1.6Z" class="g1_181"/>
<path d="M210.9,139.6c-1.2,0,-2.2,-1,-2.2,-2.2c0,-1.1,1,-2.1,2.2,-2.1c1.1,0,2.1,1,2.1,2.1c0,1.2,-1,2.2,-2.1,2.2m0,-3.4c-.7,0,-1.3,.6,-1.3,1.2c0,.7,.6,1.3,1.3,1.3c.6,0,1.2,-.6,1.2,-1.3c0,-.6,-.6,-1.2,-1.2,-1.2Z" class="gl_181"/>
<path d="M202.7,135.8c.9,0,1.6,.7,1.6,1.6c0,1,-.7,1.7,-1.6,1.7c-1,0,-1.7,-.7,-1.7,-1.7c0,-.9,.7,-1.6,1.7,-1.6Z" class="g1_181"/>
<path d="M202.7,139.6c-1.2,0,-2.2,-1,-2.2,-2.2c0,-1.1,1,-2.1,2.2,-2.1c1.1,0,2.1,1,2.1,2.1c0,1.2,-1,2.2,-2.1,2.2m0,-3.4c-.7,0,-1.3,.6,-1.3,1.2c0,.7,.6,1.3,1.3,1.3c.6,0,1.2,-.6,1.2,-1.3c0,-.6,-.6,-1.2,-1.2,-1.2Z" class="gl_181"/>
<path d="M194.5,135.8c.9,0,1.6,.7,1.6,1.6c0,1,-.7,1.7,-1.6,1.7c-1,0,-1.7,-.7,-1.7,-1.7c0,-.9,.7,-1.6,1.7,-1.6Z" class="g1_181"/>
<path d="M194.5,139.6c-1.2,0,-2.2,-1,-2.2,-2.2c0,-1.1,1,-2.1,2.2,-2.1c1.1,0,2.1,1,2.1,2.1c0,1.2,-1,2.2,-2.1,2.2m0,-3.4c-.7,0,-1.2,.6,-1.2,1.2c0,.7,.5,1.3,1.2,1.3c.6,0,1.2,-.6,1.2,-1.3c0,-.6,-.6,-1.2,-1.2,-1.2Z" class="gl_181"/>
<image clip-path="url(#c9_181)" x="169" y="382" width="6" height="9" xlink:href="shade/1.png"/>
<image clip-path="url(#ca_181)" x="168" y="355" width="25" height="28" xlink:href="shade/2.png"/>
<image clip-path="url(#cb_181)" x="168" y="357" width="23" height="34" xlink:href="shade/3.png"/>
<image clip-path="url(#cc_181)" x="174" y="354" width="19" height="9" xlink:href="shade/4.png"/>
<image clip-path="url(#cd_181)" x="845" y="589" width="5" height="9" xlink:href="shade/5.png"/>
<image clip-path="url(#ce_181)" x="844" y="562" width="24" height="28" xlink:href="shade/6.png"/>
<image clip-path="url(#cf_181)" x="844" y="564" width="23" height="34" xlink:href="shade/7.png"/>
<image clip-path="url(#cg_181)" x="849" y="560" width="20" height="10" xlink:href="shade/8.png"/>
<path d="M32.1,45.1H9.2m958.3,0h22.9M32.1,1331.3H9.2m958.3,0h22.9M45.1,32.1V9.2m0,1335.1v22.9M954.5,32.1V9.2m0,1335.1v22.9" class="go_181"/>
<path d="M32.1,45.1H9.2m958.3,0h22.9M32.1,1331.3H9.2m958.3,0h22.9M45.1,32.1V9.2m0,1335.1v22.9M954.5,32.1V9.2m0,1335.1v22.9" class="gp_181"/>
<path d="M27.5,32.1H0m972.1,0h27.5M27.5,1344.3H0m972.1,0h27.5M32.1,27.5V0m0,1348.9v27.5M967.5,27.5V0m0,1348.9v27.5" class="go_181"/>
<path d="M27.5,32.1H0m972.1,0h27.5M27.5,1344.3H0m972.1,0h27.5M32.1,27.5V0m0,1348.9v27.5M967.5,27.5V0m0,1348.9v27.5" class="gp_181"/>
</svg>