<?xml version="1.0" encoding="UTF-8" standalone="no"?>
<!DOCTYPE svg PUBLIC "-//W3C//DTD SVG 1.1//EN"
"http://www.w3.org/Graphics/SVG/1.1/DTD/svg11.dtd">
<svg viewBox="0 0 999 1376" version="1.1" xmlns="http://www.w3.org/2000/svg" xmlns:xlink="http://www.w3.org/1999/xlink">
<defs>
<clipPath id="c0_73"><path d="M687.7,515.2V272.1H930.2V515.2Z"/></clipPath>
<clipPath id="c1_73"><path d="M683.1,515.8V266.6H935.6V515.8Z"/></clipPath>
<clipPath id="c2_73"><path d="M682.8,515.5V266.3H935.3V515.5Z"/></clipPath>
<clipPath id="c3_73"><path d="M76.3,931.6V630.2H280.9V931.6Z"/></clipPath>
<clipPath id="c4_73"><path d="M81.9,927.1V633.4H272.2V927.1Z"/></clipPath>
<clipPath id="c5_73"><path d="M81.6,926.8V633.1H271.9V926.8Z"/></clipPath>
<clipPath id="c6_73"><path d="M199.9,258.1L193.4,256L177,242.1V185h72v73.1Z"/></clipPath>
<clipPath id="c7_73"><path d="M200.6,1101.9l-6.5,-2.1l-16.4,-14v-57.1h72v73.2Z"/></clipPath>
<clipPath id="c8_73"><path d="M786.5,132.5V120.1H801v12.4Z"/></clipPath>
<clipPath id="c9_73"><path d="M826.1,294.6c-.2,-.1,3.6,-8.2,3.6,-8.2l.8,.5c0,0,-4.1,7.7,-4.4,7.7Z"/></clipPath>
<clipPath id="ca_73"><path d="M833.6,286.9c0,0,-6.8,-1.1,-7.5,-5.2c-.7,-3.6,1.5,-3.9,2.1,-3.9c0,0,.1,0,.1,0l8.3,-12.7L835.1,262c0,0,-.6,-1.1,.2,-2c0,-.1,.1,-.1,.3,-.1c2.1,0,12.9,5.5,12.9,5.5l.1,.2c-.4,.5,-.8,1.1,-1.4,1.6c-.7,.5,-5.1,1.2,-5.1,1.2l-8.5,18.5Z"/></clipPath>
<clipPath id="cb_73"><path d="M833.2,286.5c.2,-.4,.2,-1.7,0,-2.2v-1.4c-1.5,-.5,-2.8,-1.2,-3.6,-2.5c-1.1,.6,-2.1,1.2,-3.1,1.9c1.5,2.1,3.8,3.5,6.7,4.2Zm0,-3.8c2.2,-4.6,4,-9.6,6.2,-14.1c-.9,-.4,-1.8,-1.3,-2.6,-1.4c-2.3,4.3,-4.6,8.6,-7.1,12.8c.7,1.3,2.1,2,3.5,2.7Zm-7.2,12c1,-2.9,2.4,-5.5,3.5,-8.3c-2,-1.5,-4,-3.1,-4.4,-6.1v-1.5c-.1,-2.7,1.9,-3.4,4.5,-3.4c.1,0,.2,0,.3,0c1.9,-3.4,4.2,-6.4,6.1,-9.7c-.6,-.9,-1.2,-2.4,-.9,-3.7c.5,1.3,1.7,1.9,2.4,2.9c-.1,.6,-.3,1.2,-.4,1.8c.6,.7,1.4,1.2,2.4,1.4c.5,-.4,.5,-1.3,1.2,-1.5c.9,.3,1.8,.7,3.1,.7c.1,.1,.5,.2,.8,.2c.4,0,.7,-.1,.8,-.2c.1,.1,.2,.1,.3,.1c.3,0,.5,-.1,.7,-.2c.1,0,.3,-.1,.5,-.1c.1,0,.2,0,.3,.1c-1.3,.7,-2.2,1.8,-4.2,1.8c-.1,0,-.2,0,-.3,0c-.9,3.7,-1.9,7.3,-2.7,11.1c.6,1.1,1.5,1.7,1.3,3.2c-.5,2.7,-3.9,4.4,-7.2,4.4c-1.3,0,-2.5,-.3,-3.6,-.8c-1,2.1,-2.1,4.2,-3.3,6.1c0,-.4,.3,-.4,.3,-.8c.9,-1.8,1.9,-3.6,2.6,-5.7c-1.1,1.8,-1.8,3.7,-2.8,5.6c-.2,.4,-.4,.8,-.6,1.2c-.3,.4,-.3,1.2,-.7,1.4Z"/></clipPath>
<clipPath id="cc_73"><path d="M843.7,266.9c-4.8,0,-13.1,-7.3,-5.6,-8.8h1.3c.1,.1,.3,.1,.5,.1q.1,0,.2,0c.3,0,.7,0,1.1,.1c3,.6,8.2,3.8,7.5,7c-.2,1.2,-1.6,1.6,-3.1,1.6h-1.8c0,0,-.1,0,-.1,0Z"/></clipPath>
<clipPath id="cd_73"><path d="M158.7,650.7c-.2,-.1,3.6,-8.2,3.6,-8.2l.8,.5c0,0,-4.1,7.7,-4.4,7.7Z"/></clipPath>
<clipPath id="ce_73"><path d="M166.2,643c0,0,-6.8,-1.1,-7.5,-5.3c-.7,-3.6,1.5,-3.8,2,-3.8c.1,0,.2,0,.2,0l8.3,-12.7l-1.5,-3.1c0,0,-.6,-1.1,.2,-2.1c0,0,.1,-.1,.3,-.1c2.1,0,12.9,5.6,12.9,5.6l.1,.1c-.4,.5,-.7,1.2,-1.4,1.7c-.7,.5,-5.1,1.1,-5.1,1.1L166.2,643Z"/></clipPath>
<clipPath id="cf_73"><path d="M165.8,642.6c.3,-.5,.3,-1.8,0,-2.3V639c-1.5,-.6,-2.8,-1.3,-3.6,-2.5c-1.1,.5,-2.1,1.2,-3.1,1.8c1.5,2.2,3.8,3.6,6.7,4.3Zm0,-3.9c2.2,-4.5,4,-9.5,6.2,-14.1c-.9,-.3,-1.8,-1.3,-2.6,-1.3c-2.3,4.3,-4.6,8.6,-7.1,12.8c.7,1.3,2.1,2,3.5,2.6Zm-7.2,12.1c1,-2.9,2.4,-5.5,3.5,-8.3c-2,-1.6,-4,-3.1,-4.4,-6.2v-1.5c-.1,-2.7,1.9,-3.4,4.6,-3.4c0,0,.1,0,.1,0c2,-3.3,4.3,-6.3,6.2,-9.6c-.6,-.9,-1.2,-2.4,-.9,-3.7c.5,1.3,1.7,1.9,2.4,2.9c-.1,.6,-.3,1.1,-.4,1.8c.6,.6,1.4,1.1,2.4,1.3c.5,-.4,.5,-1.2,1.2,-1.5c.9,.4,1.8,.8,3.1,.8c.1,.1,.5,.1,.8,.1c.4,0,.7,0,.8,-.1c.1,0,.2,0,.3,0c.3,0,.5,0,.7,-.1c.1,-.1,.3,-.1,.5,-.1c.1,0,.2,0,.3,.1c-1.3,.6,-2.2,1.7,-4.2,1.7c-.1,0,-.2,0,-.3,0c-.9,3.8,-1.9,7.4,-2.7,11.2c.6,1.1,1.5,1.7,1.3,3.1c-.5,2.8,-3.9,4.4,-7.2,4.4c-1.3,0,-2.5,-.2,-3.6,-.7c-1,2.1,-2.1,4.1,-3.3,6c0,-.3,.3,-.4,.3,-.7c.9,-1.8,1.9,-3.6,2.6,-5.7c-1.1,1.7,-1.8,3.7,-2.8,5.5c-.2,.5,-.4,.9,-.6,1.3c-.3,.4,-.3,1.1,-.7,1.4Z"/></clipPath>
<clipPath id="cg_73"><path d="M176.3,623c-4.8,0,-13.1,-7.3,-5.6,-8.8H172c.2,.1,.3,.1,.5,.1q.1,0,.2,0c0,0,.1,0,.1,0c.3,0,.6,0,1,0c3,.7,8.2,3.8,7.5,7.1c-.2,1.1,-1.6,1.6,-3.1,1.6h-1.8c0,0,-.1,0,-.1,0Z"/></clipPath>
<style type="text/css"><![CDATA[
.g0_73{
fill: #FEFCF4;
}
.g1_73{
fill: #FFF;
}
.g2_73{
fill: none;
stroke: #6381B7;
stroke-width: 0.763;
}
.g3_73{
fill: none;
stroke: #949698;
stroke-width: 0.305;
stroke-dasharray: 3,3;
}
.g4_73{
fill: none;
stroke: #949698;
stroke-width: 0.305;
stroke-dasharray: 4,4;
}
.g5_73{
fill: none;
stroke: #949698;
stroke-width: 0.305;
}
.g6_73{
fill: #F7C2D9;
}
.g7_73{
fill: #FDF4F3;
}
.g8_73{
fill: #EC008C;
}
.g9_73{
fill: #6D6F71;
}
.ga_73{
fill: #6381B7;
}
.gb_73{
fill: none;
stroke: #6381B7;
stroke-width: 0.381;
stroke-dasharray: 2,1;
}
.gc_73{
fill: none;
stroke: #6381B7;
stroke-width: 0.381;
}
.gd_73{
fill: #FCE8B0;
}
.ge_73{
fill: #25408F;
}
.gf_73{
fill: #A8AAAD;
}
.gg_73{
fill: none;
stroke: #949698;
stroke-width: 0.549;
}
.gh_73{
fill: none;
stroke: #BCBEC0;
stroke-width: 2.566;
}
.gi_73{
fill: #231F20;
}
.gj_73{
fill: #363637;
}
.gk_73{
fill: #5CC4BE;
}
.gl_73{
fill: #F0D73F;
}
.gm_73{
fill: none;
stroke: #FFF;
stroke-width: 1.909;
stroke-miterlimit: 10;
}
.gn_73{
fill: none;
stroke: #000;
stroke-width: 0.381;
stroke-miterlimit: 10;
}
]]></style>
</defs>
<path d="M45.1,1344.3H967.5V32.1H45.1V1344.3Z" class="g0_73"/>
<path d="M172.1,137.3c0,0,-18.4,0,-18.4,18.4V939.3c0,0,0,18.3,18.4,18.3H849.2c0,0,18.3,0,18.3,-18.3v-802Z" class="g1_73"/>
<path d="M172.1,137.3c0,0,-18.4,0,-18.4,18.4V939.3c0,0,0,18.3,18.4,18.3H849.2c0,0,18.3,0,18.3,-18.3v-802H172.1Z" class="g2_73"/>
<path d="M533.1,326c10.4,-1.4,18.5,-7.7,20.1,-15.7" class="g3_73"/>
<path d="M552.7,302.9c-.4,-1.4,-1.1,-2.8,-2,-4.1" class="g4_73"/>
<path d="M545.7,293.7c-3.8,-2.7,-8.7,-4.5,-14.1,-5m-7,.2c-10.4,1.4,-18.5,7.7,-20,15.7m.3,7.1c2.3,7.7,10.7,13.6,21.1,14.5" class="g3_73"/>
<path d="M553.4,308.9c0,-.5,0,-1,0,-1.4c0,-.6,0,-1.1,0,-1.6m-3.6,-8.3c-.3,-.4,-.6,-.8,-1,-1.2c-.3,-.3,-.6,-.6,-1,-.9m-17.6,-6.9c-.4,0,-.9,0,-1.3,0c-.5,0,-1,0,-1.5,0m-23,17.4c-.1,.5,-.1,1,-.1,1.5c0,.4,0,.9,.1,1.4m23,17.4c.5,0,1,0,1.5,0c.4,0,.9,0,1.4,0" class="g5_73"/>
<image clip-path="url(#c0_73)" preserveAspectRatio="none" x="688" y="273" width="242" height="242" xlink:href="img/1.png"/>
<path d="M696.4,277.4l-3.5,228.2l227.6,3.3L924,280.1Z" class="g6_73"/>
<image clip-path="url(#c1_73)" preserveAspectRatio="none" x="683" y="267" width="252" height="249" xlink:href="img/2.png"/>
<image clip-path="url(#c2_73)" preserveAspectRatio="none" x="682" y="266" width="253" height="249" xlink:href="img/3.png"/>
<path d="M701.5,271.1L687.8,494.9l190,14.4l39.1,-22.8L929.3,287.4Z" class="g7_73"/>
<path d="M877.7,510.2l39.9,-23.8l-17.8,-12Z" class="g8_73"/>
<path d="M535,289c0,0,68.1,-33,163.1,.8" class="g4_73"/>
<path d="M693.5,284.9l-1.4,8.7L704,290.9Z" class="g9_73"/>
<image clip-path="url(#c3_73)" preserveAspectRatio="none" x="76" y="631" width="204" height="301" xlink:href="img/4.png"/>
<path d="M81.2,649.6l23.5,275.7L274.8,911.4L250.4,635Z" class="g6_73"/>
<image clip-path="url(#c4_73)" preserveAspectRatio="none" x="82" y="634" width="190" height="293" xlink:href="img/5.png"/>
<image clip-path="url(#c5_73)" preserveAspectRatio="none" x="81" y="634" width="190" height="293" xlink:href="img/6.png"/>
<path d="M86.4,644.2l9.8,276.3l138.9,-5.2l30.7,-28.4L256.9,637.8Z" class="g7_73"/>
<path d="M235.6,915.6l30.3,-28.8L249.2,882Z" class="g8_73"/>
<path d="M529.9,813.8C520.1,788.4,463.7,659.5,329.7,656.5m-8.6,.9c-1.8,1.2,-.6,3.2,1.2,4.5" class="g4_73"/>
<path d="M328.5,660.5c1.1,-3.1,-.1,-7.9,-8.7,-10.3" class="g3_73"/>
<path d="M312.6,648.9c-15.1,-2.1,-33.8,-1.4,-63.7,8.7" class="g4_73"/>
<path d="M531.5,818.2c0,0,-.1,-.5,-.5,-1.5M328.1,656.5c-.5,0,-1,0,-1.5,0c-.7,0,-1.3,0,-1.9,.1m-.8,6.2c.7,.3,1.3,.5,1.8,.5c.4,-.1,.9,-.2,1.3,-.6m-8.5,-12.8c-.5,-.1,-.9,-.2,-1.4,-.3c-.5,-.1,-1,-.2,-1.5,-.2m-68.2,8.7c-.4,.1,-.9,.3,-1.4,.5" class="g5_73"/>
<path d="M250.3,661.7l-3,-8.3l-9.1,8.1Z" class="g9_73"/>
<path d="M540.1,855.7c19.7,-.9,35.4,-7.3,38.6,-15.6m-.7,-7.7c-4.5,-7.8,-20.3,-13.7,-39.5,-14.3m-8,.1c-19.6,.9,-35.4,7.4,-38.6,15.6m.7,7.7c4.5,7.8,20.3,13.7,39.5,14.3" class="g4_73"/>
<path d="M579.2,838.6c.1,-.6,.1,-1.1,.1,-1.6c0,-.6,0,-1.1,-.1,-1.6M536.9,818.1c-.5,0,-1,0,-1.6,0c-.5,0,-1.1,0,-1.6,0m-42.3,17.3c-.1,.5,-.1,1,-.1,1.6c0,.5,0,1,.1,1.6m42.3,17.2c.5,0,1.1,0,1.6,0c.6,0,1.1,0,1.6,0" class="g5_73"/>
<path d="M166.7,1015.5c0,0,-13,0,-13,13v142.2c0,0,0,13,13,13H854.5c0,0,13,0,13,-13V1028.5c0,0,0,-13,-13,-13Z" class="g1_73"/>
<path d="M166.7,1015.5c0,0,-13,0,-13,13v142.2c0,0,0,13,13,13H854.5c0,0,13,0,13,-13V1028.5c0,0,0,-13,-13,-13H166.7Z" class="g2_73"/>
<path d="M539,1201.3c0,0,-4.3,0,-4.3,4.4v10.8c0,0,0,4.3,4.3,4.3h30.3c0,0,4.3,0,4.3,-4.3v-10.8c0,0,0,-4.4,-4.3,-4.4Z" class="ga_73"/>
<path d="M525.8,1193.8v34.9m1.4,1H866.6m1,-1.4v-34.8m-1.4,-1H526.8" class="gb_73"/>
<path d="M525.8,1229.1v.6h.6m340.6,0h.6v-.6m0,-36v-.6H867m-340.6,0h-.6v.6" class="gc_73"/>
<path d="M232.5,187.1c0,0,-12.9,0,-12.9,13v47.7c0,0,0,12.9,12.9,12.9h602c0,0,13,0,13,-12.9V200.1c0,0,0,-13,-13,-13Z" class="gd_73"/>
<image clip-path="url(#c6_73)" preserveAspectRatio="none" x="175" y="183" width="75" height="77" xlink:href="img/7.png"/>
<path d="M227.3,253.4c0,0,-26.8,11.3,-51.1,-12.8c0,0,15.2,25.3,49.3,24c0,0,24.8,.3,20.3,-10.1c0,0,1.2,-4.5,-18.5,-1.1Z" class="gd_73"/>
<path d="M233.3,1030.9c0,0,-13,0,-13,13v47.6c0,0,0,13,13,13H835.2c0,0,13,0,13,-13v-47.6c0,0,0,-13,-13,-13Z" class="gd_73"/>
<image clip-path="url(#c7_73)" preserveAspectRatio="none" x="176" y="1027" width="75" height="76" xlink:href="img/8.png"/>
<path d="M228.1,1097.2c0,0,-26.9,11.3,-51.1,-12.8c0,0,15.1,25.3,49.2,24c0,0,24.8,.3,20.3,-10.2c0,0,1.2,-4.4,-18.4,-1Z" class="gd_73"/>
<path d="M153.3,111.9v39L165,161.2V117Z" class="ge_73"/>
<path d="M153.3,111.9v39H851.1c0,0,16.8,0,16.8,-16.8v-5.3c0,0,0,-16.9,-16.8,-16.9Z" class="ga_73"/>
<path d="M802.6,145.6c8.2,0,14.9,-6.5,14.9,-14.5c0,-8.1,-6.7,-14.5,-14.9,-14.5c-8.2,0,-14.9,6.4,-14.9,14.5c0,8,6.7,14.5,14.9,14.5Z" class="gf_73"/>
<path d="M802.6,145.6c8.2,0,14.9,-6.5,14.9,-14.5c0,-8.1,-6.7,-14.5,-14.9,-14.5c-8.2,0,-14.9,6.4,-14.9,14.5c0,8,6.7,14.5,14.9,14.5Z" class="gg_73"/>
<path d="M802.6,136.4c3,0,5.5,-2.4,5.5,-5.3c0,-3,-2.5,-5.4,-5.5,-5.4c-3,0,-5.5,2.4,-5.5,5.4c0,2.9,2.5,5.3,5.5,5.3Z" class="g1_73"/>
<path d="M802.6,136.4c3,0,5.5,-2.4,5.5,-5.3c0,-3,-2.5,-5.4,-5.5,-5.4c-3,0,-5.5,2.4,-5.5,5.4c0,2.9,2.5,5.3,5.5,5.3Z" class="gh_73"/>
<g clip-path="url(#c8_73)" opacity="0.3">
<path d="M788,130.3c0,0,0,-4.8,3.7,-8.7l7.7,6.8c0,0,-1,.9,-1,2.6Z" class="g1_73"/>
</g>
<path d="M807.2,131c0,0,-3.5,0,-3.5,3.4v8.7c0,0,0,3.5,3.5,3.5h43.5c0,0,3.5,0,3.5,-3.5v-8.7c0,0,0,-3.4,-3.5,-3.4Z" class="gi_73"/>
<path d="M191.2,122c0,-8.3,-6.8,-15,-15.1,-15c-8.3,0,-15,6.7,-15,15c0,8.3,6.7,15.1,15,15.1c.8,0,1.7,-.1,2.4,-.2l4.5,5.2v-6.7c4.9,-2.5,8.2,-7.6,8.2,-13.4Z" class="g1_73"/>
<path d="M183.5,143.3l-5.1,-5.9c-.8,.1,-1.5,.1,-2.3,.1c-8.5,0,-15.5,-6.9,-15.5,-15.5c0,-8.5,7,-15.5,15.5,-15.5c8.6,0,15.5,7,15.5,15.5c0,5.7,-3.1,11,-8.1,13.7Zm-4.8,-6.9l3.9,4.5v-5.8l.2,-.1c4.9,-2.5,7.9,-7.5,7.9,-13c0,-8,-6.5,-14.6,-14.6,-14.6c-8,0,-14.6,6.6,-14.6,14.6c0,8.1,6.6,14.6,14.6,14.6c.8,0,1.6,-.1,2.4,-.2Z" class="gj_73"/>
<path d="M169.1,121.6c.8,0,1.4,.6,1.4,1.4c0,.8,-.6,1.5,-1.4,1.5c-.8,0,-1.4,-.7,-1.4,-1.5c0,-.8,.6,-1.4,1.4,-1.4Z" class="gk_73"/>
<path d="M169.1,124.9c-1,0,-1.9,-.8,-1.9,-1.9c0,-1,.9,-1.9,1.9,-1.9c1,0,1.9,.9,1.9,1.9c0,1.1,-.9,1.9,-1.9,1.9m0,-2.9c-.5,0,-1,.5,-1,1c0,.6,.5,1,1,1c.5,0,1,-.4,1,-1c0,-.5,-.5,-1,-1,-1Z" class="gj_73"/>
<path d="M176.1,121.6c.8,0,1.5,.6,1.5,1.4c0,.8,-.7,1.5,-1.5,1.5c-.8,0,-1.4,-.7,-1.4,-1.5c0,-.8,.6,-1.4,1.4,-1.4Z" class="gk_73"/>
<path d="M176.1,124.9c-1,0,-1.9,-.8,-1.9,-1.9c0,-1,.9,-1.9,1.9,-1.9c1.1,0,1.9,.9,1.9,1.9c0,1.1,-.8,1.9,-1.9,1.9m0,-2.9c-.5,0,-1,.5,-1,1c0,.6,.5,1,1,1c.6,0,1,-.4,1,-1c0,-.5,-.4,-1,-1,-1Z" class="gj_73"/>
<path d="M183.1,121.6c.8,0,1.5,.6,1.5,1.4c0,.8,-.7,1.5,-1.5,1.5c-.8,0,-1.4,-.7,-1.4,-1.5c0,-.8,.6,-1.4,1.4,-1.4Z" class="gk_73"/>
<path d="M183.1,124.9c-1,0,-1.9,-.8,-1.9,-1.9c0,-1,.9,-1.9,1.9,-1.9c1.1,0,1.9,.9,1.9,1.9c0,1.1,-.8,1.9,-1.9,1.9m0,-2.9c-.5,0,-1,.5,-1,1c0,.6,.5,1,1,1c.6,0,1,-.4,1,-1c0,-.5,-.4,-1,-1,-1Z" class="gj_73"/>
<path d="M185.1,136.3c0,-9.8,7.8,-17.7,17.6,-17.7c9.7,0,17.6,7.9,17.6,17.7c0,9.7,-7.9,17.6,-17.6,17.6c-1,0,-1.9,-.1,-2.9,-.3l-5.2,6.1v-7.8c-5.7,-2.9,-9.5,-8.8,-9.5,-15.6Z" class="gl_73"/>
<path d="M194.6,160.2q-.1,0,-.2,0c-.2,-.1,-.3,-.3,-.3,-.5v-7.5c-5.9,-3.2,-9.5,-9.2,-9.5,-15.9c0,-10,8.1,-18.1,18.1,-18.1c9.9,0,18,8.1,18,18.1c0,9.9,-8.1,18,-18,18c-.9,0,-1.8,0,-2.7,-.2l-5.1,5.9c-.1,.1,-.2,.2,-.3,.2m8.1,-41.1c-9.5,0,-17.2,7.7,-17.2,17.2c0,6.4,3.6,12.2,9.3,15.2c.1,.1,.2,.2,.2,.4v6.6l4.5,-5.2c.1,-.1,.3,-.1,.4,-.1c1,.1,1.9,.2,2.8,.2c9.4,0,17.1,-7.7,17.1,-17.1c0,-9.5,-7.7,-17.2,-17.1,-17.2Z" class="gj_73"/>
<path d="M210.9,135.8c.9,0,1.6,.7,1.6,1.6c0,1,-.7,1.7,-1.6,1.7c-1,0,-1.7,-.7,-1.7,-1.7c0,-.9,.7,-1.6,1.7,-1.6Z" class="g1_73"/>
<path d="M210.9,139.6c-1.2,0,-2.2,-1,-2.2,-2.2c0,-1.1,1,-2.1,2.2,-2.1c1.1,0,2.1,1,2.1,2.1c0,1.2,-1,2.2,-2.1,2.2m0,-3.4c-.7,0,-1.3,.6,-1.3,1.2c0,.7,.6,1.3,1.3,1.3c.6,0,1.2,-.6,1.2,-1.3c0,-.6,-.6,-1.2,-1.2,-1.2Z" class="gj_73"/>
<path d="M202.7,135.8c.9,0,1.6,.7,1.6,1.6c0,1,-.7,1.7,-1.6,1.7c-1,0,-1.7,-.7,-1.7,-1.7c0,-.9,.7,-1.6,1.7,-1.6Z" class="g1_73"/>
<path d="M202.7,139.6c-1.2,0,-2.2,-1,-2.2,-2.2c0,-1.1,1,-2.1,2.2,-2.1c1.1,0,2.1,1,2.1,2.1c0,1.2,-1,2.2,-2.1,2.2m0,-3.4c-.7,0,-1.3,.6,-1.3,1.2c0,.7,.6,1.3,1.3,1.3c.6,0,1.2,-.6,1.2,-1.3c0,-.6,-.6,-1.2,-1.2,-1.2Z" class="gj_73"/>
<path d="M194.5,135.8c.9,0,1.6,.7,1.6,1.6c0,1,-.7,1.7,-1.6,1.7c-1,0,-1.7,-.7,-1.7,-1.7c0,-.9,.7,-1.6,1.7,-1.6Z" class="g1_73"/>
<path d="M194.5,139.6c-1.2,0,-2.2,-1,-2.2,-2.2c0,-1.1,1,-2.1,2.2,-2.1c1.1,0,2.1,1,2.1,2.1c0,1.2,-1,2.2,-2.1,2.2m0,-3.4c-.7,0,-1.2,.6,-1.2,1.2c0,.7,.5,1.3,1.2,1.3c.6,0,1.2,-.6,1.2,-1.3c0,-.6,-.6,-1.2,-1.2,-1.2Z" class="gj_73"/>
<image clip-path="url(#c9_73)" x="825" y="286" width="6" height="9" xlink:href="shade/1.png"/>
<image clip-path="url(#ca_73)" x="825" y="259" width="24" height="28" xlink:href="shade/2.png"/>
<image clip-path="url(#cb_73)" x="825" y="262" width="23" height="33" xlink:href="shade/3.png"/>
<image clip-path="url(#cc_73)" x="830" y="258" width="20" height="10" xlink:href="shade/4.png"/>
<image clip-path="url(#cd_73)" x="158" y="642" width="6" height="9" xlink:href="shade/5.png"/>
<image clip-path="url(#ce_73)" x="157" y="615" width="25" height="28" xlink:href="shade/6.png"/>
<image clip-path="url(#cf_73)" x="157" y="618" width="23" height="33" xlink:href="shade/7.png"/>
<image clip-path="url(#cg_73)" x="163" y="614" width="19" height="10" xlink:href="shade/8.png"/>
<path d="M32.1,45.1H9.2m958.3,0h22.9M32.1,1331.3H9.2m958.3,0h22.9M45.1,32.1V9.2m0,1335.1v22.9M954.5,32.1V9.2m0,1335.1v22.9" class="gm_73"/>
<path d="M32.1,45.1H9.2m958.3,0h22.9M32.1,1331.3H9.2m958.3,0h22.9M45.1,32.1V9.2m0,1335.1v22.9M954.5,32.1V9.2m0,1335.1v22.9" class="gn_73"/>
<path d="M27.5,32.1H0m972.1,0h27.5M27.5,1344.3H0m972.1,0h27.5M32.1,27.5V0m0,1348.9v27.5M967.5,27.5V0m0,1348.9v27.5" class="gm_73"/>
<path d="M27.5,32.1H0m972.1,0h27.5M27.5,1344.3H0m972.1,0h27.5M32.1,27.5V0m0,1348.9v27.5M967.5,27.5V0m0,1348.9v27.5" class="gn_73"/>
</svg>