<?xml version="1.0" encoding="UTF-8" standalone="no"?>
<!DOCTYPE svg PUBLIC "-//W3C//DTD SVG 1.1//EN"
"http://www.w3.org/Graphics/SVG/1.1/DTD/svg11.dtd">
<svg viewBox="0 0 999 1376" version="1.1" xmlns="http://www.w3.org/2000/svg" xmlns:xlink="http://www.w3.org/1999/xlink">
<defs>
<clipPath id="c0_46"><path d="M32.1,1344.3V32.1H967.5V1344.3Z"/></clipPath>
<clipPath id="c1_46"><path d="M63,1012.6V782.2H285.8v230.4Z"/></clipPath>
<clipPath id="c2_46"><path d="M68.6,1007.3V785.6H283.1v221.7Z"/></clipPath>
<clipPath id="c3_46"><path d="M68.3,1007V785.3H282.8V1007Z"/></clipPath>
<clipPath id="c4_46"><path d="M175.6,513.7l-6.1,-2.2L154.1,497.6V440.5h67.8v73.2Z"/></clipPath>
<clipPath id="c5_46"><path d="M177.5,1124.6l-6.5,-2.1l-16.4,-13.9v-57.1h72v73.1Z"/></clipPath>
<clipPath id="c6_46"><path d="M764.8,415.3V402.9h14.5v12.4Z"/></clipPath>
<clipPath id="c7_46"><path d="M684,870.2V596.3H899.6V870.2Z"/></clipPath>
<clipPath id="c8_46"><path d="M676.6,875.3V591.5H909.2V875.3Z"/></clipPath>
<clipPath id="c9_46"><path d="M676.3,875V591.2H908.9V875Z"/></clipPath>
<clipPath id="ca_46"><path d="M801.9,614.9q-.1,0,-.1,0c-.2,0,3.6,-8.2,3.6,-8.2l.8,.5c0,0,-4.1,7.7,-4.3,7.7Z"/></clipPath>
<clipPath id="cb_46"><path d="M809.4,607.2c0,0,-6.9,-1.1,-7.6,-5.2c-.7,-3.6,1.5,-3.9,2.1,-3.9c0,0,.1,.1,.1,.1l8.3,-12.8l-1.5,-3.1c0,0,-.6,-1.1,.2,-2c0,-.1,.1,-.1,.3,-.1c2.1,0,12.9,5.5,12.9,5.5l.1,.2c-.4,.5,-.7,1.1,-1.4,1.6c-.7,.5,-5.1,1.2,-5.1,1.2l-8.4,18.5Z"/></clipPath>
<clipPath id="cc_46"><path d="M808.9,606.9c.3,-.5,.3,-1.8,0,-2.3v-1.4c-1.5,-.5,-2.8,-1.2,-3.6,-2.5c-1.1,.6,-2.1,1.2,-3.1,1.9c1.5,2.1,3.8,3.5,6.7,4.3Zm0,-3.9c2.2,-4.6,4,-9.5,6.2,-14.1c-.9,-.4,-1.8,-1.3,-2.6,-1.4c-2.3,4.3,-4.6,8.6,-7.1,12.8c.8,1.4,2.1,2,3.5,2.7Zm-7.2,12c1,-2.9,2.4,-5.5,3.5,-8.3c-2,-1.5,-3.9,-3.1,-4.4,-6.1v-1.5c-.1,-2.7,1.9,-3.4,4.6,-3.4c0,0,.1,0,.2,0c1.9,-3.4,4.2,-6.4,6.1,-9.7c-.6,-.9,-1.1,-2.4,-.9,-3.7c.5,1.3,1.7,1.9,2.4,2.9c-.1,.6,-.3,1.2,-.4,1.8c.6,.7,1.4,1.2,2.4,1.4c.5,-.4,.5,-1.3,1.2,-1.5c.9,.3,1.8,.7,3.1,.7c.1,.1,.5,.2,.8,.2c.4,0,.7,-.1,.8,-.2c.1,.1,.3,.1,.4,.1c.2,0,.4,-.1,.6,-.2c.1,0,.3,-.1,.5,-.1c.1,0,.2,0,.3,.1c-1.3,.7,-2.2,1.8,-4.2,1.8c-.1,0,-.2,0,-.3,0c-.9,3.7,-1.9,7.3,-2.7,11.1c.6,1.1,1.5,1.7,1.3,3.2c-.5,2.7,-3.9,4.4,-7.2,4.4c-1.3,0,-2.5,-.3,-3.6,-.8c-1,2.1,-2.1,4.2,-3.3,6.1c0,-.4,.3,-.4,.3,-.8c.9,-1.8,1.9,-3.6,2.6,-5.6c-1.1,1.7,-1.8,3.7,-2.8,5.5c-.2,.4,-.4,.8,-.6,1.2c-.3,.5,-.3,1.2,-.7,1.4Z"/></clipPath>
<clipPath id="cd_46"><path d="M819.4,587.3c-4.8,0,-13.1,-7.4,-5.6,-8.8h1.3c.2,0,.4,0,.7,0q.1,0,.2,0c.3,0,.6,0,.9,.1c3.1,.6,8.2,3.8,7.5,7c-.2,1.2,-1.5,1.6,-3.1,1.7h-1.8c0,0,-.1,0,-.1,0Z"/></clipPath>
<clipPath id="ce_46"><path d="M167.5,800c-.2,-.1,3.6,-8.2,3.6,-8.2l.8,.5c0,0,-4.1,7.7,-4.4,7.7Z"/></clipPath>
<clipPath id="cf_46"><path d="M175,792.3c0,0,-6.8,-1.1,-7.5,-5.3c-.7,-3.6,1.5,-3.8,2,-3.8c.1,0,.2,0,.2,0L178,770.5l-1.5,-3.1c0,0,-.6,-1.1,.2,-2.1c0,-.1,.1,-.1,.3,-.1c2.1,0,12.9,5.6,12.9,5.6l.1,.1c-.4,.5,-.8,1.2,-1.4,1.7c-.7,.4,-5.1,1.1,-5.1,1.1L175,792.3Z"/></clipPath>
<clipPath id="cg_46"><path d="M174.6,791.9c.2,-.5,.2,-1.8,0,-2.3v-1.3c-1.5,-.6,-2.8,-1.3,-3.6,-2.6c-1.1,.6,-2.1,1.3,-3.2,1.9c1.6,2.2,3.9,3.6,6.8,4.3Zm0,-3.9c2.2,-4.5,4,-9.5,6.2,-14.1c-.9,-.4,-1.9,-1.3,-2.6,-1.3c-2.3,4.3,-4.7,8.6,-7.1,12.8c.7,1.3,2.1,2,3.5,2.6Zm-7.3,12.1c1.1,-2.9,2.4,-5.5,3.6,-8.3c-2,-1.6,-4,-3.1,-4.4,-6.2v-1.5c-.1,-2.7,1.9,-3.4,4.6,-3.4c0,0,.1,0,.1,0c2,-3.3,4.3,-6.3,6.2,-9.7c-.6,-.8,-1.2,-2.3,-.9,-3.6c.5,1.2,1.6,1.9,2.4,2.9c-.1,.6,-.3,1.1,-.4,1.7c.6,.7,1.4,1.2,2.4,1.4c.5,-.4,.5,-1.2,1.1,-1.5c1,.4,1.9,.8,3.2,.8c.1,.1,.5,.1,.8,.1c.4,0,.7,0,.8,-.1c.1,0,.2,0,.3,0c.3,0,.5,0,.6,-.1c.2,-.1,.4,-.2,.6,-.2c.1,0,.2,.1,.3,.2c-1.3,.6,-2.2,1.7,-4.2,1.7c-.1,0,-.2,0,-.3,0c-.9,3.8,-1.9,7.4,-2.7,11.2c.6,1.1,1.5,1.7,1.3,3.1c-.5,2.8,-3.9,4.4,-7.2,4.4c-1.3,0,-2.5,-.2,-3.6,-.7c-1,2.1,-2.1,4.1,-3.3,6c0,-.4,.3,-.4,.3,-.7c.9,-1.9,1.9,-3.6,2.6,-5.7c-1.1,1.7,-1.8,3.7,-2.8,5.5c-.2,.5,-.4,.9,-.6,1.3c-.3,.4,-.3,1.1,-.8,1.4Z"/></clipPath>
<clipPath id="ch_46"><path d="M185.1,772.3c-4.8,0,-13.1,-7.3,-5.6,-8.8h1.3c.1,0,.3,.1,.5,.1q.1,0,.2,0c0,0,.1,0,.2,0c.2,0,.5,0,.9,0c3,.7,8.2,3.8,7.5,7.1c-.3,1.1,-1.6,1.6,-3.2,1.6h-1.7c0,0,-.1,0,-.1,0Z"/></clipPath>
<clipPath id="ci_46"><path d="M125.5,386.7V205.8H858.6V386.7Z"/></clipPath>
<style type="text/css"><![CDATA[
.g0_46{
fill: #FEFCF4;
}
.g1_46{
fill: #FFF;
}
.g2_46{
fill: none;
stroke: #6381B7;
stroke-width: 0.763;
}
.g3_46{
fill: #F7C2D9;
}
.g4_46{
fill: #FDF4F3;
}
.g5_46{
fill: #EC008C;
}
.g6_46{
fill: none;
stroke: #949698;
stroke-width: 0.305;
stroke-dasharray: 4,4;
}
.g7_46{
fill: none;
stroke: #949698;
stroke-width: 0.305;
}
.g8_46{
fill: none;
stroke: #818385;
stroke-width: 0.305;
stroke-dasharray: 4,4;
}
.g9_46{
fill: none;
stroke: #818385;
stroke-width: 0.305;
}
.ga_46{
fill: #6D6F71;
}
.gb_46{
fill: #6381B7;
}
.gc_46{
fill: none;
stroke: #6381B7;
stroke-width: 0.381;
stroke-dasharray: 2,1;
}
.gd_46{
fill: none;
stroke: #6381B7;
stroke-width: 0.381;
}
.ge_46{
fill: #FCE8B0;
}
.gf_46{
fill: #25408F;
}
.gg_46{
fill: #A8AAAD;
}
.gh_46{
fill: none;
stroke: #949698;
stroke-width: 0.549;
}
.gi_46{
fill: none;
stroke: #BCBEC0;
stroke-width: 2.566;
}
.gj_46{
fill: #231F20;
}
.gk_46{
fill: #363637;
}
.gl_46{
fill: #5CC4BE;
}
.gm_46{
fill: #EAD646;
}
.gn_46{
fill: #2E6E51;
}
.go_46{
fill: none;
stroke: #FFF;
stroke-width: 0.152;
stroke-miterlimit: 1;
}
.gp_46{
fill: #BCBEC0;
}
.gq_46{
fill: #EE314A;
}
.gr_46{
fill: none;
stroke: #818385;
stroke-width: 0.305;
stroke-dasharray: 3,3;
}
.gs_46{
fill: none;
stroke: #949698;
stroke-width: 0.305;
stroke-dasharray: 3,3;
}
.gt_46{
fill: #CEEDFB;
}
.gu_46{
fill: #27639D;
}
.gv_46{
fill: none;
stroke: #C3E7F1;
stroke-width: 1.527;
}
.gw_46{
fill: none;
stroke: #FFF;
stroke-width: 1.909;
stroke-miterlimit: 10;
}
.gx_46{
fill: none;
stroke: #000;
stroke-width: 0.381;
stroke-miterlimit: 10;
}
]]></style>
</defs>
<path d="M32.1,1344.3H954.5V32.1H32.1V1344.3Z" class="g0_46"/>
<path clip-path="url(#c0_46)" d="M954.5,1344.3H1877V32.1H954.5V1344.3Z" class="g0_46"/>
<path d="M150.4,421c0,0,-18.3,0,-18.3,18.3v566.2c0,0,0,18.4,18.3,18.4H827.5c0,0,18.4,0,18.4,-18.4V421Z" class="g1_46"/>
<path d="M150.4,421c0,0,-18.3,0,-18.3,18.3v566.2c0,0,0,18.4,18.3,18.4H827.5c0,0,18.4,0,18.4,-18.4V421H150.4Z" class="g2_46"/>
<image clip-path="url(#c1_46)" preserveAspectRatio="none" x="63" y="783" width="223" height="230" xlink:href="img/1.png"/>
<path d="M67.7,801.3l13.9,205.1L279.8,992.7L265.7,786.9Z" class="g3_46"/>
<image clip-path="url(#c2_46)" preserveAspectRatio="none" x="68" y="786" width="215" height="221" xlink:href="img/2.png"/>
<image clip-path="url(#c3_46)" preserveAspectRatio="none" x="68" y="786" width="215" height="221" xlink:href="img/3.png"/>
<path d="M73.2,793.7l3.6,207.1l167.8,-2.6l31.8,-26.5L273.2,790.5Z" class="g4_46"/>
<path d="M243.9,998.7l32.6,-26.9l-28.4,-1.9Z" class="g5_46"/>
<path d="M494.1,941.8C488.3,923.3,461.2,852.4,383.6,857.7m-7.4,1.8c-3,2.6,.7,7.6,4.6,7.3m4.5,-5.4c-.3,-4.8,-7.5,-11.4,-20,-19.8M359,837.4C338.1,824.3,301.4,806,244.1,809" class="g6_46"/>
<path d="M495.3,946.2c0,0,-.1,-.5,-.4,-1.4m-112.8,-87c-.5,0,-1,.1,-1.5,.1c-.6,.1,-1.1,.1,-1.6,.3m3.3,8.2c.4,-.2,.9,-.5,1.3,-.9c.4,-.4,.7,-.8,1,-1.2M364.1,840.8c-.5,-.3,-.9,-.6,-1.3,-.9c-.4,-.3,-.8,-.5,-1.3,-.8m-118.9,-30c-.5,0,-1,0,-1.5,.1" class="g7_46"/>
<path d="M502.1,971.7c7,-1.2,12.6,-5,14.3,-9.9m-.7,-7.9c-2.4,-4.4,-8.2,-7.8,-15.2,-8.6m-8.2,.3c-7,1.2,-12.6,5,-14.3,9.8m.7,7.9c2.4,4.5,8.2,7.8,15.2,8.6" class="g8_46"/>
<path d="M516.8,960.3c.1,-.6,.2,-1.1,.2,-1.7c0,-.5,-.1,-1.1,-.2,-1.6m-18,-11.8c-.5,-.1,-1,-.1,-1.6,-.1c-.6,0,-1.1,0,-1.6,.1m-18,11.8c-.1,.5,-.2,1.1,-.2,1.6c0,.6,.1,1.1,.2,1.7m18,11.8c.5,0,1,0,1.6,0c.6,0,1.1,0,1.6,0" class="g9_46"/>
<path d="M244.7,812.7l-1.2,-8.8l-10.6,6Z" class="ga_46"/>
<path d="M397.7,1221.3c0,0,-4.3,0,-4.3,4.4v10.8c0,0,0,4.3,4.3,4.3H428c0,0,4.3,0,4.3,-4.3v-10.8c0,0,0,-4.4,-4.3,-4.4Z" class="gb_46"/>
<path d="M384.5,1212.5V1250m1.3,1H846.5m1,-1.3v-37.6m-1.3,-1H385.5" class="gc_46"/>
<path d="M384.5,1250.4v.6h.6m461.8,0h.6v-.6m0,-38.7v-.6h-.6m-461.8,0h-.6v.6" class="gd_46"/>
<path d="M145.1,1036.2c0,0,-13,0,-13,13v146.2c0,0,0,13,13,13H832.9c0,0,13,0,13,-13V1049.2c0,0,0,-13,-13,-13Z" class="g1_46"/>
<path d="M145.1,1036.2c0,0,-13,0,-13,13v146.2c0,0,0,13,13,13H832.9c0,0,13,0,13,-13V1049.2c0,0,0,-13,-13,-13H145.1Z" class="g2_46"/>
<path d="M207.1,468.7c0,0,-13,0,-13,13v21.6c0,0,0,13,13,13h602c0,0,13,0,13,-13V481.7c0,0,0,-13,-13,-13Z" class="ge_46"/>
<image clip-path="url(#c4_46)" preserveAspectRatio="none" x="153" y="439" width="70" height="76" xlink:href="img/4.png"/>
<path d="M201.5,508.9c0,0,-25.3,11.3,-48.2,-12.7c0,0,14.3,25.3,46.5,23.9c0,0,23.3,.4,19,-10.1c0,0,1.2,-4.4,-17.3,-1.1Z" class="ge_46"/>
<path d="M210.2,1079.6c0,0,-13,0,-13,13v21.7c0,0,0,12.9,13,12.9H812.1c0,0,13,0,13,-12.9v-21.7c0,0,0,-13,-13,-13Z" class="ge_46"/>
<image clip-path="url(#c5_46)" preserveAspectRatio="none" x="153" y="1050" width="75" height="76" xlink:href="img/5.png"/>
<path d="M205,1119.9c0,0,-26.9,11.3,-51.1,-12.8c0,0,15.1,25.3,49.2,24c0,0,24.8,.3,20.3,-10.1c0,0,1.2,-4.5,-18.4,-1.1Z" class="ge_46"/>
<path d="M131.7,394.7v39L143.4,444V399.8Z" class="gf_46"/>
<path d="M131.7,394.7v39H829.5c0,0,16.8,0,16.8,-16.8v-5.4c0,0,0,-16.8,-16.8,-16.8Z" class="gb_46"/>
<path d="M781,428.3c8.2,0,14.8,-6.5,14.8,-14.5c0,-8,-6.6,-14.5,-14.8,-14.5c-8.3,0,-14.9,6.5,-14.9,14.5c0,8,6.6,14.5,14.9,14.5Z" class="gg_46"/>
<path d="M781,428.3c8.2,0,14.8,-6.5,14.8,-14.5c0,-8,-6.6,-14.5,-14.8,-14.5c-8.3,0,-14.9,6.5,-14.9,14.5c0,8,6.6,14.5,14.9,14.5Z" class="gh_46"/>
<path d="M781,419.2c3,0,5.4,-2.4,5.4,-5.4c0,-2.9,-2.4,-5.3,-5.4,-5.3c-3.1,0,-5.5,2.4,-5.5,5.3c0,3,2.4,5.4,5.5,5.4Z" class="g1_46"/>
<path d="M781,419.2c3,0,5.4,-2.4,5.4,-5.4c0,-2.9,-2.4,-5.3,-5.4,-5.3c-3.1,0,-5.5,2.4,-5.5,5.3c0,3,2.4,5.4,5.5,5.4Z" class="gi_46"/>
<g clip-path="url(#c6_46)" opacity="0.3">
<path d="M766.4,413.1c0,0,-.1,-4.9,3.6,-8.7l7.8,6.7c0,0,-1,1,-1.1,2.7Z" class="g1_46"/>
</g>
<path d="M785.6,413.7c0,0,-3.5,0,-3.5,3.5v8.7c0,0,0,3.4,3.5,3.4H829c0,0,3.5,0,3.5,-3.4v-8.7c0,0,0,-3.5,-3.5,-3.5Z" class="gj_46"/>
<path d="M169.5,404.8c0,-8.3,-6.7,-15.1,-15,-15.1c-8.4,0,-15.1,6.8,-15.1,15.1c0,8.3,6.8,15,15.1,15c.8,0,1.6,0,2.4,-.2l4.5,5.3v-6.8c4.8,-2.5,8.1,-7.5,8.1,-13.3Z" class="g1_46"/>
<path d="M161.8,426.1l-5.1,-6c-.7,.1,-1.5,.2,-2.2,.2c-8.6,0,-15.6,-7,-15.6,-15.5c0,-8.6,7,-15.5,15.6,-15.5c8.5,0,15.5,6.9,15.5,15.5c0,5.7,-3.1,10.9,-8.2,13.6Zm-4.7,-7l3.8,4.5v-5.7l.3,-.2c4.8,-2.5,7.9,-7.4,7.9,-12.9c0,-8.1,-6.6,-14.6,-14.6,-14.6c-8.1,0,-14.6,6.5,-14.6,14.6c0,8,6.5,14.6,14.6,14.6c.7,0,1.5,-.1,2.3,-.2Z" class="gk_46"/>
<path d="M147.4,404.3c.8,0,1.5,.7,1.5,1.5c0,.8,-.7,1.4,-1.5,1.4c-.7,0,-1.4,-.6,-1.4,-1.4c0,-.8,.7,-1.5,1.4,-1.5Z" class="gl_46"/>
<path d="M147.4,407.7c-1,0,-1.8,-.9,-1.8,-1.9c0,-1.1,.8,-1.9,1.8,-1.9c1.1,0,1.9,.8,1.9,1.9c0,1,-.8,1.9,-1.9,1.9m0,-2.9c-.5,0,-.9,.4,-.9,1c0,.5,.4,1,.9,1c.6,0,1,-.5,1,-1c0,-.6,-.4,-1,-1,-1Z" class="gk_46"/>
<path d="M154.5,404.3c.8,0,1.4,.7,1.4,1.5c0,.8,-.6,1.4,-1.4,1.4c-.8,0,-1.5,-.6,-1.5,-1.4c0,-.8,.7,-1.5,1.5,-1.5Z" class="gl_46"/>
<path d="M154.5,407.7c-1.1,0,-1.9,-.9,-1.9,-1.9c0,-1.1,.8,-1.9,1.9,-1.9c1,0,1.9,.8,1.9,1.9c0,1,-.9,1.9,-1.9,1.9m0,-2.9c-.6,0,-1,.4,-1,1c0,.5,.4,1,1,1c.5,0,.9,-.5,.9,-1c0,-.6,-.4,-1,-.9,-1Z" class="gk_46"/>
<path d="M161.5,404.3c.8,0,1.4,.7,1.4,1.5c0,.8,-.6,1.4,-1.4,1.4c-.8,0,-1.5,-.6,-1.5,-1.4c0,-.8,.7,-1.5,1.5,-1.5Z" class="gl_46"/>
<path d="M161.5,407.7c-1.1,0,-1.9,-.9,-1.9,-1.9c0,-1.1,.8,-1.9,1.9,-1.9c1,0,1.9,.8,1.9,1.9c0,1,-.9,1.9,-1.9,1.9m0,-2.9c-.6,0,-1,.4,-1,1c0,.5,.4,1,1,1c.5,0,1,-.5,1,-1c0,-.6,-.5,-1,-1,-1Z" class="gk_46"/>
<path d="M163.4,419c0,-9.7,7.9,-17.6,17.6,-17.6c9.7,0,17.6,7.9,17.6,17.6c0,9.7,-7.9,17.6,-17.6,17.6c-.9,0,-1.9,-.1,-2.8,-.2l-5.3,6.1v-7.8c-5.6,-3,-9.5,-8.9,-9.5,-15.7Z" class="gm_46"/>
<path d="M172.9,443c0,0,-.1,0,-.1,-.1c-.2,0,-.3,-.2,-.3,-.4v-7.6c-5.9,-3.1,-9.6,-9.2,-9.6,-15.9c0,-9.9,8.2,-18.1,18.1,-18.1c10,0,18.1,8.2,18.1,18.1c0,10,-8.1,18.1,-18.1,18.1c-.8,0,-1.7,-.1,-2.6,-.2l-5.1,5.9c-.1,.1,-.2,.2,-.4,.2M181,401.9c-9.4,0,-17.1,7.7,-17.1,17.1c0,6.5,3.5,12.3,9.2,15.3c.2,0,.3,.2,.3,.4v6.6l4.4,-5.2c.1,-.1,.3,-.2,.5,-.2c.9,.2,1.8,.3,2.7,.3c9.5,0,17.2,-7.7,17.2,-17.2c0,-9.4,-7.7,-17.1,-17.2,-17.1Z" class="gk_46"/>
<path d="M189.2,418.5c.9,0,1.7,.8,1.7,1.7c0,.9,-.8,1.7,-1.7,1.7c-.9,0,-1.7,-.8,-1.7,-1.7c0,-.9,.8,-1.7,1.7,-1.7Z" class="g1_46"/>
<path d="M189.2,422.3c-1.2,0,-2.1,-.9,-2.1,-2.1c0,-1.2,.9,-2.1,2.1,-2.1c1.2,0,2.1,.9,2.1,2.1c0,1.2,-.9,2.1,-2.1,2.1m0,-3.3c-.7,0,-1.2,.5,-1.2,1.2c0,.7,.5,1.2,1.2,1.2c.7,0,1.2,-.5,1.2,-1.2c0,-.7,-.5,-1.2,-1.2,-1.2Z" class="gk_46"/>
<path d="M181,418.5c.9,0,1.7,.8,1.7,1.7c0,.9,-.8,1.7,-1.7,1.7c-.9,0,-1.7,-.8,-1.7,-1.7c0,-.9,.8,-1.7,1.7,-1.7Z" class="g1_46"/>
<path d="M181,422.3c-1.2,0,-2.1,-.9,-2.1,-2.1c0,-1.2,.9,-2.1,2.1,-2.1c1.2,0,2.1,.9,2.1,2.1c0,1.2,-.9,2.1,-2.1,2.1m0,-3.3c-.7,0,-1.2,.5,-1.2,1.2c0,.7,.5,1.2,1.2,1.2c.7,0,1.2,-.5,1.2,-1.2c0,-.7,-.5,-1.2,-1.2,-1.2Z" class="gk_46"/>
<path d="M172.8,418.5c.9,0,1.7,.8,1.7,1.7c0,.9,-.8,1.7,-1.7,1.7c-.9,0,-1.7,-.8,-1.7,-1.7c0,-.9,.8,-1.7,1.7,-1.7Z" class="g1_46"/>
<path d="M172.8,422.3c-1.2,0,-2.1,-.9,-2.1,-2.1c0,-1.2,.9,-2.1,2.1,-2.1c1.2,0,2.1,.9,2.1,2.1c0,1.2,-.9,2.1,-2.1,2.1m0,-3.3c-.7,0,-1.2,.5,-1.2,1.2c0,.7,.5,1.2,1.2,1.2c.7,0,1.2,-.5,1.2,-1.2c0,-.7,-.5,-1.2,-1.2,-1.2Z" class="gk_46"/>
<path d="M32.1,179.3H967.5V32.1H32.1V179.3Z" class="gn_46"/>
<path d="M254.5,134c-.5,0,-1,.2,-1.5,.4c-.5,.3,-.9,.5,-1.3,.8c-.8,.8,-1.4,1.8,-1.8,2.8c-.4,1,-.7,2.1,-.7,3.3c0,1.5,.3,2.8,.9,3.9c.8,1.4,1.8,2.1,3.2,2.1c.3,0,.6,0,.9,-.1c.2,-.1,.5,-.2,.7,-.4c.2,-.2,.3,-.4,.4,-.7c.1,-.2,.2,-.5,.2,-.8c0,-.4,-.1,-.9,-.4,-1.2c-.3,-.3,-.7,-.5,-1,-.5c-.2,0,-.4,.1,-.6,.1c-.2,.1,-.3,.2,-.5,.3c-.1,.2,-.2,.3,-.3,.4c-.1,.2,-.1,.4,-.1,.6c0,.2,0,.4,.2,.7c.1,.2,.3,.4,.5,.6c0,0,-.1,.1,-.2,.1H253c-.8,0,-1.4,-.5,-1.9,-1.4c-.5,-.7,-.7,-1.5,-.7,-2.3c0,-1,.1,-1.9,.3,-2.7c.2,-.7,.6,-1.4,1,-2.1c.4,-.7,1,-1.3,1.6,-1.7c.7,-.5,1.5,-.8,2.4,-1L254.5,134Zm13.6,1.2L267,134H254.1c.3,.4,.7,.7,.9,.9c.2,.2,.4,.4,.5,.5c.3,.2,.6,.4,.9,.6c.3,.1,.6,.2,.9,.3c.5,.1,.9,.2,1.3,.3c.3,.1,.6,.2,.8,.4c.2,.2,.4,.4,.5,.7c.1,.4,.2,.8,.3,1.4c-.4,.5,-.7,.9,-1,1.3c-.3,.3,-.5,.5,-.6,.7c-.2,.2,-.3,.3,-.4,.4c-.1,0,-.2,0,-.3,0c-.2,0,-.3,0,-.5,-.1c-.1,-.1,-.2,-.3,-.3,-.4c-.1,-.2,-.2,-.4,-.3,-.6c0,-.2,-.1,-.3,-.1,-.5l-.8,.8c.1,.2,.3,.5,.5,.8c.1,.3,.3,.6,.6,.9c.2,.3,.4,.5,.7,.7c.3,.1,.7,.2,1,.2c.2,0,.3,0,.5,-.1c.1,0,.3,-.1,.5,-.3c.2,-.2,.5,-.5,.8,-.9c.2,-.4,.6,-.9,1,-1.6c.4,-.6,.9,-1,1.3,-1.1c.4,0,.8,.1,1.1,.4c.3,.4,.5,.9,.7,1.6c.2,.7,.3,1.6,.3,2.5v.4c0,.1,0,.3,0,.5c0,.1,-.1,.4,-.1,.7c0,.3,0,.6,0,1.1c.2,.2,.4,.4,.6,.6c.1,.3,.3,.5,.5,.7V135.2h2.2Zm-3.3,4.1c-.4,-.4,-.7,-.8,-1,-1.1c-.3,-.4,-.6,-.6,-.9,-.7c-.3,-.1,-.6,-.1,-.9,.1c-.4,.1,-.7,.4,-1.1,.8c0,-.6,-.2,-1.1,-.4,-1.6c-.3,-.5,-.7,-1,-1.4,-1.6h5.7v4.1Zm7.9,-4.1L271.6,134h-1.1c-.4,-.4,-.6,-1,-.7,-1.9l-.5,-.3c0,.2,0,.5,0,.9c.1,.3,.1,.7,.1,1.2c0,.5,.1,.9,.1,1.3c0,.3,0,.6,0,.9c-.2,-.8,-.5,-1.3,-.9,-1.6c-.4,-.3,-1,-.5,-1.7,-.5h-1.4l1.2,1.2c.3,0,.7,.1,1,.2c.3,.1,.6,.3,.8,.5c.3,.2,.5,.4,.6,.7c.2,.3,.2,.7,.2,1v8.9l1.2,1.2V135.2h2.2Zm5.1,-.1c-.5,-.6,-1.2,-.8,-1.9,-.8c-.7,0,-1.4,.2,-1.9,.8c-.3,.3,-.5,.6,-.6,.9c-.2,.4,-.2,.7,-.2,1.1c0,.7,.3,1.4,.8,2c.6,.5,1.2,.8,2,.8c.7,0,1.3,-.3,1.8,-.8c.5,-.6,.8,-1.3,.8,-2c0,-.7,-.3,-1.4,-.8,-2Zm-1.1,3c-.4,.4,-1,.6,-1.5,.6c-.5,0,-.8,-.3,-.8,-.9c0,-.3,.1,-.6,.2,-.8c.1,-.3,.3,-.6,.5,-.8c.4,-.5,.9,-.7,1.5,-.7c.5,0,.8,.3,.8,1c0,.6,-.2,1.1,-.7,1.6Zm2.8,8.7c-.8,-1,-1.7,-2.1,-2.9,-3.3c-1.1,-1.3,-2.2,-2.3,-3.1,-3v2.7c.4,.3,.9,.6,1.4,.9c.5,.4,1,.7,1.6,1.1c.5,.4,1,.8,1.5,1.3c.5,.4,1,.9,1.5,1.3v-1Zm12.6,-14.9c-2.4,-2.4,-4.8,-3.6,-7.3,-3.6c-1,0,-2,.4,-3.1,1.2c-1.1,.9,-1.6,1.8,-1.6,2.7c0,.4,.2,.7,.5,1l.8,.8h-3.2l1.2,1.2h1.8v11.3l1.2,1.2V135.2h2.1L283.3,134H282l-.5,-1.1c.1,-.9,.6,-1.6,1.7,-2.3c.9,-.7,1.8,-1,2.7,-1c.7,0,1.3,.1,1.8,.2c.6,.2,1.2,.4,1.7,.7c.6,.4,1.1,.7,1.6,1c.5,.4,.9,.7,1.3,1l-.2,-.6Zm6.6,3.3L297.5,134H282.8c.8,.9,1.6,1.5,2.2,1.8c.2,.1,.4,.2,.7,.3c.4,.1,.8,.2,1.2,.4c.4,.1,.8,.2,1.1,.4c.3,.2,.6,.4,.9,.6c-.8,.6,-1.4,1.2,-2,1.7c-.6,.5,-1.1,1,-1.5,1.4l1.4,2.1c.7,0,1.5,.1,2.1,.3c.7,.2,1.2,.5,1.7,.9c1.3,1.3,1.9,2.3,2.1,3l.7,.8v-9.8h.5c2,0,2.9,.7,2.9,2l-.1,.3c-.3,-.3,-.7,-.5,-1.2,-.5c-.3,0,-.6,.1,-.9,.3c-.2,.3,-.4,.6,-.4,.9c0,.4,.2,.7,.5,1c.2,.3,.6,.4,.9,.4c1.4,0,2.1,-.7,2.1,-2.1c0,-1.3,-.5,-2.4,-1.4,-3.1c-.8,-.7,-1.8,-1,-2.9,-1c0,0,-.1,0,-.2,0c-.1,0,-.2,0,-.4,0c-.1,0,-.2,.1,-.3,.1c-.1,0,-.2,0,-.3,0v8.4c-1,-1.7,-2.5,-2.9,-4.4,-3.5l3.1,-2.5c-.4,-.6,-.9,-1.2,-1.5,-1.8c-.6,-.6,-1.2,-1.1,-1.9,-1.6h11.2Zm10.9,0L308.4,134H297.3c.6,1,1.7,1.7,3.3,2.2c.7,.2,1.2,.4,1.6,.6c.5,.2,.7,.4,.9,.6c-.6,.4,-1.1,.8,-1.7,1.4c-.7,.5,-1.3,1.1,-1.9,1.7l1.6,2.1c1.4,.1,2.6,.5,3.5,1.2c.6,.5,1.1,1.2,1.7,2.3c.6,1,1,1.6,1.4,1.8V135.2h1.9Zm-3.1,9.5c-1.1,-1.7,-2.6,-2.9,-4.5,-3.6c.5,-.5,1,-1.1,1.4,-1.6c.5,-.5,1,-.9,1.5,-1.4c-.6,-.7,-1.2,-1.3,-1.7,-1.8c-.5,-.5,-.9,-.9,-1.3,-1.1h4.6v9.5Zm-4.6,2c.2,.2,.5,.3,.8,.3c.4,0,.6,-.1,.9,-.3c.2,-.3,.3,-.6,.3,-.9c0,-.3,-.1,-.6,-.3,-.9c-.3,-.2,-.5,-.3,-.9,-.3c-.3,0,-.6,.1,-.8,.3c-.3,.3,-.4,.6,-.4,.9c0,.3,.1,.6,.4,.9Zm19.2,-11.5L319.8,134H308.2l1.1,1.2h8.5v6.6h-.1c-1.3,-2.6,-2.7,-4,-4.4,-4c-.8,0,-1.5,.3,-2.1,.9c-.6,.5,-.9,1.2,-.9,2c0,1.5,.8,2.2,2.3,2.2c.5,0,.9,-.2,1.2,-.5c.3,-.4,.5,-.8,.5,-1.3c0,-.3,-.3,-.8,-.8,-1.5c.1,-.1,.2,-.1,.3,-.1c1.3,0,2.4,.8,3.4,2.5c.6,1.4,.9,2.9,.9,4.2l-.1,1.3l1,.6V135.2h2.1Zm19,0L339,134H327.2l1.1,1.2h8.2v.9c-2.5,.8,-4.9,2.1,-7.3,3.7l1.5,2.3c1.7,.1,3.1,.7,4.1,1.6c.3,.3,.6,.6,.9,1c.4,.4,.6,.8,.8,1.2c.2,.3,.3,.5,.4,.7c0,.1,.1,.2,.1,.4l.7,.8V135.2h2.4Zm-3.6,9.4c-1,-1.8,-2.7,-3.2,-4.8,-4.1c.9,-.6,1.7,-1.1,2.5,-1.5c.8,-.4,1.6,-.7,2.3,-1v6.6Zm7.9,-9.4L343.2,134h-1c-.4,-.4,-.7,-1,-.8,-1.9l-.4,-.3c0,.2,0,.5,0,.9c0,.3,0,.7,.1,1.2c0,.5,0,.9,0,1.3c.1,.3,.1,.6,.1,.9c-.3,-.8,-.6,-1.3,-1,-1.6c-.4,-.3,-1,-.5,-1.7,-.5h-1.4l1.2,1.2c.4,0,.7,.1,1,.2c.4,.1,.6,.3,.9,.5c.2,.2,.4,.4,.6,.7c.1,.3,.2,.7,.2,1v8.9l1.2,1.2V135.2h2.2Zm11.1,0L354.3,134H342.6l1.2,1.2h8.4v6.6c-1.3,-2.6,-2.8,-4,-4.4,-4c-.8,0,-1.5,.3,-2.1,.9c-.6,.5,-.9,1.2,-.9,2c0,1.5,.8,2.2,2.3,2.2c.5,0,.9,-.2,1.2,-.5c.3,-.4,.5,-.8,.5,-1.3c0,-.3,-.3,-.8,-.8,-1.5c0,-.1,.2,-.1,.3,-.1c1.3,0,2.4,.8,3.3,2.5c.7,1.4,1,2.9,1,4.2l-.1,1.3l.9,.6V135.2h2.1Zm4.6,0L359,134h-1.1c-.4,-.4,-.6,-1,-.8,-1.9l-.4,-.3c0,.2,0,.5,0,.9c.1,.3,.1,.7,.1,1.2c0,.5,.1,.9,.1,1.3c0,.3,0,.6,0,.9c-.2,-.8,-.6,-1.3,-1,-1.6c-.4,-.3,-.9,-.5,-1.6,-.5h-1.4l1.2,1.2c.3,0,.7,.1,1,.2c.3,.1,.6,.3,.8,.5c.3,.2,.5,.4,.6,.7c.2,.3,.2,.7,.2,1v8.9l1.2,1.2V135.2h2.2Zm6,-1.2h-8l1.2,1.2h4c-1.7,2,-2.5,4,-2.5,6.1c0,1.5,.3,2.8,.9,3.9c.8,1.4,1.8,2.1,3.2,2.1c.3,0,.6,0,.9,-.1c.2,-.1,.4,-.2,.6,-.4c.2,-.2,.4,-.4,.5,-.7c.1,-.2,.2,-.5,.2,-.8c0,-.4,-.2,-.9,-.4,-1.2c-.3,-.3,-.7,-.5,-1.1,-.5c-.3,0,-.7,.2,-1,.4c-.3,.3,-.4,.6,-.4,1c0,.2,0,.4,.1,.7c.2,.2,.4,.4,.6,.6c-.7,.2,-1.4,-.2,-2.2,-1.3c-.5,-.7,-.7,-1.5,-.7,-2.3c0,-1,.1,-1.9,.3,-2.7c.2,-.7,.5,-1.4,1,-2.1c.4,-.7,1,-1.3,1.6,-1.7c.7,-.5,1.5,-.8,2.4,-1L366.1,134Zm12.2,1.2L377,134H365.4l1.1,1.2H375v6.6h-.1c-1.3,-2.6,-2.7,-4,-4.4,-4c-.8,0,-1.5,.3,-2.1,.9c-.6,.5,-.9,1.2,-.9,2c0,1.5,.8,2.2,2.3,2.2c.5,0,.9,-.2,1.2,-.5c.3,-.4,.5,-.8,.5,-1.3c0,-.3,-.3,-.8,-.8,-1.5c.1,-.1,.2,-.1,.3,-.1c1.3,0,2.4,.8,3.4,2.5c.6,1.4,.9,2.9,.9,4.2l-.1,1.3l1,.6V135.2h2.1Zm4.6,0L381.7,134h-1.1c-.4,-.4,-.6,-1,-.7,-1.9l-.5,-.3c0,.2,0,.5,.1,.9c0,.3,0,.7,0,1.2c.1,.5,.1,.9,.1,1.3c0,.3,0,.6,0,.9c-.2,-.8,-.5,-1.3,-.9,-1.6c-.4,-.3,-1,-.5,-1.7,-.5h-1.4l1.2,1.2c.3,0,.7,.1,1,.2c.3,.1,.6,.3,.9,.5c.2,.2,.4,.4,.5,.7c.2,.3,.3,.7,.3,1v8.9l1.1,1.2V135.2h2.3Zm11.1,0L392.8,134H381l1.2,1.2h8.2v.9c-2.6,.8,-5,2.1,-7.4,3.7l1.6,2.3c1.7,.1,3,.7,4,1.6c.3,.3,.6,.6,1,1c.3,.4,.5,.8,.7,1c.1,.3,.3,.7,.6,1.3l.6,.8V135.2H394Zm-3.6,9.4c-1.1,-1.8,-2.7,-3.2,-4.9,-4.1c.9,-.6,1.7,-1.1,2.5,-1.5c.8,-.4,1.6,-.7,2.4,-1v6.6Zm-4.7,1.7c.2,.3,.5,.4,.8,.4c.4,0,.7,-.1,.9,-.4c.2,-.2,.4,-.5,.4,-.8c0,-.4,-.2,-.7,-.4,-.9c-.2,-.3,-.5,-.4,-.9,-.4c-.3,0,-.6,.1,-.8,.4c-.3,.2,-.4,.5,-.4,.9c0,.3,.1,.6,.4,.8ZM415,134H399.8l1.2,1.2h11.8v8.2L411.2,142c.2,-.6,.3,-1.3,.3,-1.9c0,-.8,-.2,-1.6,-.6,-2.2c-.3,-.5,-.6,-.9,-1.1,-1.2c-.4,-.3,-.8,-.6,-1.3,-.7c-.3,-.1,-.6,-.2,-.9,-.2c-.7,0,-1.4,.2,-2.1,.7c-.2,.2,-.4,.5,-.6,.8c-.2,.3,-.3,.6,-.3,.9c0,.4,.1,.7,.3,.9c.3,.5,.7,.7,1.2,.8c.6,.1,1,0,1.4,-.3c.3,-.2,.5,-.4,.6,-.6c.2,-.3,.3,-.5,.3,-.8c0,-.3,-.2,-.6,-.4,-1c.2,-.1,.5,-.1,.7,0c.2,0,.5,.1,.7,.3c.2,.2,.4,.4,.6,.7c.2,.3,.3,.6,.4,.9c0,.3,.1,.5,.1,.7c0,.6,-.2,1.1,-.5,1.7c-.5,.8,-1.4,1.3,-2.8,1.3c-.6,0,-1.1,-.2,-1.7,-.5c-.5,-.3,-1,-.8,-1.5,-1.4c-.4,-.5,-.8,-1.2,-1.2,-2c-.3,-.8,-.6,-1.7,-.8,-2.7l-.7,-.3c.1,1,.3,2,.5,2.9c.3,.9,.6,1.7,1,2.3c.3,.5,.6,1,1,1.5c.4,.4,.8,.8,1.2,1.1c.4,.3,.8,.6,1.2,.7c.4,.2,.8,.3,1.2,.3c.8,0,1.4,-.2,1.9,-.4c.6,-.3,1,-.7,1.3,-1.2c1.4,.9,2.4,2.4,3,4.5v-.1l.4,.3V135.2h2.2L415,134Zm13.2,-2.1c-2.3,-2.4,-4.7,-3.6,-7.3,-3.6c-.9,0,-2,.4,-3,1.2c-1.1,.9,-1.6,1.8,-1.6,2.7c0,.4,.1,.7,.4,1l.9,.8h-3.2l1.2,1.2h1.8v11.3l1.2,1.2V135.2h2.1L419.5,134h-1.3l-.5,-1.1c.1,-.9,.6,-1.6,1.6,-2.3c1,-.7,1.9,-1,2.8,-1c.6,0,1.2,.1,1.8,.2c.6,.2,1.1,.4,1.7,.7c.6,.4,1.1,.7,1.6,1c.4,.4,.9,.7,1.3,1l-.3,-.6Zm5.5,3.3L432.4,134H419.1l1.2,1.2h13.4Zm-1.7,2.9c-.3,-.5,-.6,-.9,-.9,-1.1c-.3,-.3,-.6,-.5,-.9,-.5c-.2,.3,-.4,.6,-.5,.9c-.2,.3,-.4,.6,-.7,.8c-.6,.7,-1.2,1,-1.7,.9c.4,-.4,.5,-.9,.5,-1.2c0,-.4,-.1,-.8,-.4,-1.1c-.3,-.2,-.7,-.4,-1.1,-.4c-1.3,0,-2,.7,-2,1.9c0,.8,.3,1.4,.9,1.9c.5,.4,1.2,.6,1.9,.6c1.5,0,2.8,-.6,3.9,-1.9c.3,0,.5,.6,.5,1.7c0,.9,-.3,1.7,-1,2.3c-.6,.7,-1.4,1,-2.2,1c-.9,0,-1.7,-.2,-2.5,-.7c-.8,-.4,-1.5,-1,-2.1,-1.7c-.4,-.6,-.8,-1.4,-1.3,-2.2c-.4,-.8,-.7,-1.7,-1,-2.7l-.8,-.2c.5,1.4,1,2.7,1.4,3.7c.4,1,.7,1.8,1,2.3c1.4,2.3,3.1,3.5,5,3.5c1.4,0,2.6,-.6,3.5,-1.6c.4,-.5,.7,-1.1,.9,-1.7c.2,-.6,.3,-1.3,.3,-2c0,-.7,-.2,-1.5,-.7,-2.5Zm.3,-4.1l1.2,1.2h5c-.2,.2,-.5,.4,-.7,.7c-.2,.2,-.4,.6,-.6,.9c-.2,.3,-.3,.7,-.4,1c-.1,.4,-.2,.7,-.2,1c0,.9,.2,1.6,.7,2.1c.4,.5,1.1,.7,2,.7c1.1,0,1.9,-.4,2.5,-1c.1,.2,.2,.4,.2,.6c.1,.2,.1,.4,.1,.6c0,.3,-.1,.5,-.2,.8c-.2,.3,-.4,.5,-.6,.7c-.3,.2,-.6,.3,-.9,.4c-.3,.2,-.7,.2,-1.1,.2c-.3,0,-.7,-.1,-1.1,-.2c-.4,-.2,-.8,-.4,-1.1,-.7c-.3,-.3,-.7,-.6,-.9,-1c-.3,-.4,-.6,-.9,-.8,-1.4c-.1,-.3,-.2,-.8,-.4,-1.4c-.2,-.7,-.4,-1.4,-.6,-2.3l-.7,-.4c.2,1.5,.5,2.7,.7,3.6c.3,1,.6,1.7,.8,2.3c1,2.1,2.5,3.2,4.6,3.3c1.8,-.1,2.8,-1.1,3.2,-3c1,1.6,2.3,2.3,3.8,2.2c.7,-.1,1.3,-.3,1.7,-.7c.5,-.4,.6,-.9,.6,-1.5c-.1,-.7,-.5,-1.5,-1.2,-2.2c.7,-.7,1.1,-1.4,1,-2c0,-.4,-.1,-.7,-.3,-1c-.2,-.3,-.4,-.6,-.7,-.8c-.3,-.2,-.6,-.3,-1,-.4c-.3,-.1,-.7,-.1,-1,-.1c-.6,.1,-1.1,.3,-1.7,.7c-.1,.2,-.3,.3,-.4,.4c-.1,.1,-.3,.2,-.4,.3c-.3,.4,-.5,.7,-.6,.8c0,.1,-.2,.4,-.4,.7c-.2,-.2,-.4,-.4,-.6,-.5c-.1,-.2,-.2,-.5,-.3,-.8c-.2,-.3,-.3,-.6,-.4,-1c-.1,-.4,-.1,-.7,-.1,-.9c0,-.3,0,-.5,.1,-.7h9L448.9,134H432.3Zm8.9,5.1c-.8,.8,-1.6,1.2,-2.4,1.2c-.4,0,-.7,-.1,-.9,-.3c-.1,-.2,-.2,-.5,-.2,-.9c0,-.2,0,-.4,.2,-.7c.1,-.3,.2,-.6,.4,-.9c.2,-.3,.4,-.5,.6,-.7c.3,-.2,.5,-.3,.7,-.3c.3,.5,.6,1.1,1,1.7c.2,.4,.4,.7,.6,.9Zm3.9,.4c-.3,.3,-.4,.7,-.3,1.1c.2,.7,.6,1.1,1.3,1c.4,0,.8,-.2,1.2,-.6c.5,.5,.8,.9,.8,1.3c0,.3,-.1,.6,-.4,.9c-.3,.3,-.6,.4,-1,.5c-.5,0,-.9,-.1,-1.4,-.3c-.4,-.2,-.8,-.4,-1.2,-.8c-.3,-.3,-.6,-.7,-.9,-1.1c-.2,-.4,-.4,-.9,-.4,-1.3c0,-.2,.2,-.5,.4,-.8c.2,-.3,.5,-.6,.9,-.9c.3,-.4,.6,-.6,1,-.9c.3,-.2,.6,-.3,.8,-.3c.1,0,.3,0,.5,0c.2,.1,.4,.1,.6,.2c.2,.1,.3,.2,.5,.3c.1,.2,.1,.3,.2,.5c0,.3,-.2,.7,-.7,1.2c-.3,-.3,-.6,-.4,-.9,-.4c-.4,0,-.7,.2,-1,.4ZM463,134H448.7l1.3,1.2h14.2L463,134Zm-.6,5.6c-.2,-.6,-.5,-1.2,-.9,-1.7c-.5,-.5,-1,-.9,-1.5,-1.1c-.6,-.3,-1.2,-.5,-1.8,-.5c-.8,0,-1.5,.3,-2,.7c-.6,.5,-.9,1.1,-.9,1.9c0,.6,.2,1.2,.5,1.6c.4,.5,.9,.7,1.5,.7c1.3,0,1.9,-.6,1.9,-1.7c0,-.5,-.1,-1,-.5,-1.4c.4,-.1,.7,-.2,.9,-.2c.6,0,1.1,.3,1.6,.9c.3,.6,.5,1.1,.5,1.8c0,.8,-.3,1.6,-1,2.3c-.8,.6,-1.6,1,-2.5,1c-1.7,0,-3.2,-.9,-4.4,-2.8c-.3,-.3,-.7,-1,-1.1,-1.8c-.4,-.9,-.9,-1.9,-1.4,-3.1l-.6,-.2c1.7,6.5,4.3,9.8,7.5,9.8c1.1,0,2.2,-.5,3.1,-1.3c.5,-.4,.8,-.8,1.1,-1.4c.2,-.5,.3,-1,.3,-1.6c0,-.7,-.1,-1.3,-.3,-1.9Zm6.4,-4.4L467.6,134h-1.1c-.3,-.4,-.6,-1,-.7,-1.9l-.4,-.3c0,.2,0,.5,0,.9c0,.3,0,.7,.1,1.2c0,.5,0,.9,0,1.3c.1,.3,.1,.6,.1,.9c-.3,-.8,-.6,-1.3,-1,-1.6c-.4,-.3,-1,-.5,-1.7,-.5h-1.4l1.2,1.2c.4,0,.7,.1,1,.2c.4,.1,.6,.3,.9,.5c.2,.2,.4,.4,.6,.7c.1,.3,.2,.7,.2,1v8.9l1.1,1.2V135.2h2.3Zm10.7,5.1c.6,-.7,.9,-1.8,.9,-3.2c0,-.4,0,-.7,-.2,-1c-.1,-.4,-.4,-.6,-.6,-.9c-.3,-.2,-.6,-.4,-1,-.5c-.4,-.1,-.7,-.2,-1.1,-.2c-1.2,0,-2.3,.4,-3.4,1c-.6,.4,-1,.8,-1.3,1.3c-.3,.5,-.5,1,-.5,1.5c0,1.2,.6,1.8,1.7,1.8c.9,0,1.3,-.4,1.3,-1.4c0,-.4,-.3,-.8,-.8,-1.1c.3,-.6,.9,-1.1,1.6,-1.4c.3,-.2,.6,-.3,1,-.4c.3,0,.6,-.1,1,-.1c1,0,1.5,.5,1.5,1.5c0,.7,-.3,1.2,-.9,1.5c-.3,-.2,-.6,-.3,-1,-.3c-.4,0,-.7,.2,-1,.5c-.3,.3,-.4,.7,-.4,1.1c0,.4,.1,.8,.4,1c.3,.3,.7,.5,1.1,.5c.4,0,.8,-.2,1.1,-.6c.5,.4,.8,.8,.8,1.3c0,.3,-.1,.6,-.2,.9c-.2,.3,-.4,.5,-.7,.7c-.2,.2,-.5,.4,-.8,.5c-.4,.1,-.7,.1,-1.1,.1c-.9,0,-1.7,-.2,-2.4,-.8c-.8,-.5,-1.5,-1.2,-2.2,-2.2c-.3,-.5,-.7,-1.2,-1.1,-2.1c-.5,-1,-.9,-2,-1.2,-3.3l-1,-.3c2,7.1,4.6,10.6,8,10.6c1.1,0,2,-.3,2.6,-.9c.7,-.6,1,-1.5,1,-2.6c0,-.8,-.4,-1.6,-1.1,-2.5ZM495.4,134c-.6,0,-1.1,.2,-1.6,.4c-.4,.3,-.9,.5,-1.2,.8c-.8,.8,-1.4,1.8,-1.8,2.8c-.5,1,-.7,2.1,-.7,3.3c0,1.5,.3,2.8,.9,3.9c.7,1.4,1.8,2.1,3.2,2.1c.3,0,.6,0,.8,-.1c.3,-.1,.5,-.2,.7,-.4c.2,-.2,.4,-.4,.5,-.7c.1,-.2,.2,-.5,.2,-.8c0,-.4,-.2,-.9,-.5,-1.2c-.3,-.3,-.6,-.5,-1,-.5c-.2,0,-.4,.1,-.5,.1c-.2,.1,-.4,.2,-.5,.3c-.1,.2,-.3,.3,-.3,.4c-.1,.2,-.2,.4,-.2,.6c0,.2,.1,.4,.2,.7c.1,.2,.3,.4,.6,.6c-.1,0,-.1,.1,-.3,.1c-.8,0,-1.4,-.5,-2,-1.4c-.4,-.7,-.6,-1.5,-.6,-2.3c0,-1,.1,-1.9,.3,-2.7c.2,-.7,.5,-1.4,.9,-2.1c.5,-.7,1,-1.3,1.7,-1.7c.7,-.5,1.4,-.8,2.3,-1L495.4,134Zm12.3,1.2L506.4,134H494.8l1.2,1.2h8.4v6.6h-.1c-1.2,-2.6,-2.7,-4,-4.4,-4c-.8,0,-1.5,.3,-2.1,.9c-.6,.5,-.9,1.2,-.9,2c0,1.5,.8,2.2,2.3,2.2c.5,0,.9,-.2,1.2,-.5c.3,-.4,.5,-.8,.5,-1.3c0,-.3,-.3,-.8,-.8,-1.5c.1,-.1,.2,-.1,.3,-.1c1.3,0,2.4,.8,3.4,2.5c.6,1.4,.9,2.9,.9,4.2l-.1,1.3l1,.6V135.2h2.1Zm10.8,0L517.3,134H506.2c.6,1,1.7,1.7,3.3,2.2c.7,.2,1.2,.4,1.7,.6c.4,.2,.7,.4,.8,.6c-.5,.4,-1.1,.8,-1.7,1.4c-.6,.5,-1.3,1.1,-1.9,1.7l1.6,2.1c1.4,.1,2.6,.5,3.5,1.2c.6,.5,1.2,1.2,1.8,2.3c.5,1,1,1.6,1.3,1.8V135.2h1.9Zm-3.1,9.5c-1.1,-1.7,-2.6,-2.9,-4.5,-3.6c.5,-.5,1,-1.1,1.5,-1.6c.4,-.5,.9,-.9,1.4,-1.4c-.6,-.7,-1.1,-1.3,-1.7,-1.8c-.5,-.5,-.9,-.9,-1.3,-1.1h4.6v9.5Zm-4.6,2c.2,.2,.5,.3,.8,.3c.4,0,.7,-.1,.9,-.3c.3,-.3,.4,-.6,.4,-.9c0,-.3,-.1,-.6,-.4,-.9c-.2,-.2,-.5,-.3,-.9,-.3c-.3,0,-.6,.1,-.8,.3c-.3,.3,-.4,.6,-.4,.9c0,.3,.1,.6,.4,.9Zm12.5,-11.5L522.1,134H521c-.3,-.4,-.6,-1,-.7,-1.9l-.5,-.3c0,.2,.1,.5,.1,.9c0,.3,0,.7,0,1.2c.1,.5,.1,.9,.1,1.3c0,.3,0,.6,0,.9c-.2,-.8,-.5,-1.3,-.9,-1.6c-.4,-.3,-1,-.5,-1.7,-.5H516l1.2,1.2c.4,0,.7,.1,1,.2c.3,.1,.6,.3,.9,.5c.2,.2,.4,.4,.6,.7c.1,.3,.2,.7,.2,1v8.9l1.1,1.2V135.2h2.3Zm18.4,0L540.5,134H529.4c.4,.4,.8,.7,1.1,.9c.3,.3,.5,.5,.7,.7c.3,.2,.7,.4,1,.5c.4,.2,.7,.4,1.1,.5c.9,.4,1.5,.7,1.9,1c-.7,.4,-1.3,.9,-1.9,1.4c-.7,.5,-1.3,1.1,-1.8,1.6l1.6,2c1.7,.1,3,.5,3.9,1.2c.5,.4,.9,.9,1.2,1.5c.4,.6,.6,1.1,.8,1.6l.8,.9V135.2h1.9Zm-3.1,9.4C537.5,142.9,536,141.7,534,141c.6,-.5,1.1,-1.1,1.6,-1.6c.5,-.5,.9,-.9,1.4,-1.3c-1.3,-1.5,-2.4,-2.5,-3.2,-2.9h4.8v9.4Zm7.7,-9.4L545.1,134H544c-.3,-.4,-.6,-1,-.7,-1.9l-.4,-.3c0,.2,0,.5,0,.9c0,.3,0,.7,0,1.2c.1,.5,.1,.9,.1,1.3c0,.3,.1,.6,.1,.9c-.3,-.8,-.6,-1.3,-1,-1.6c-.4,-.3,-1,-.5,-1.7,-.5H539l1.2,1.2c.4,0,.7,.1,1,.2c.3,.1,.6,.3,.9,.5c.2,.2,.4,.4,.6,.7c.1,.3,.2,.7,.2,1v8.9l1.1,1.2V135.2h2.3Zm10.7,0L555.7,134H544.6c.6,1,1.7,1.7,3.3,2.2c.7,.2,1.3,.4,1.7,.6c.4,.2,.7,.4,.8,.6c-.5,.4,-1.1,.8,-1.7,1.4c-.6,.5,-1.2,1.1,-1.9,1.7l1.6,2.1c1.5,.1,2.7,.5,3.6,1.2c.5,.5,1.1,1.2,1.7,2.3c.6,1,1,1.6,1.3,1.8V135.2h2Zm-3.1,9.5h-.1c-1,-1.7,-2.5,-2.9,-4.5,-3.6c.5,-.5,1,-1.1,1.5,-1.6c.5,-.5,1,-.9,1.4,-1.4c-.6,-.7,-1.1,-1.3,-1.6,-1.8c-.5,-.5,-1,-.9,-1.3,-1.1h4.6v9.5Zm-4.7,2c.3,.2,.5,.3,.9,.3c.3,0,.6,-.1,.8,-.3c.3,-.3,.4,-.6,.4,-.9c0,-.3,-.1,-.6,-.4,-.9c-.2,-.2,-.5,-.3,-.8,-.3c-.4,0,-.6,.1,-.9,.3c-.2,.3,-.4,.6,-.4,.9c0,.3,.2,.6,.4,.9Z" class="go_46"/>
<g clip-path="url(#c0_46)">
<path d="M1877,177.2H32.1v-5.4H768.7c43.1,0,53,-37.9,115.3,-37.9h993Z" class="gp_46"/>
<path d="M1877,183.7H32.1v-9.8H768.7c43.1,0,53,-33.6,115.3,-33.6h993Z" class="gq_46"/>
</g>
<image clip-path="url(#c7_46)" preserveAspectRatio="none" x="684" y="596" width="215" height="275" xlink:href="img/6.png"/>
<path d="M695.5,601.2l-6.7,258.5l197.8,4.4l6.8,-257.9Z" class="g3_46"/>
<image clip-path="url(#c8_46)" preserveAspectRatio="none" x="676" y="592" width="233" height="284" xlink:href="img/7.png"/>
<image clip-path="url(#c9_46)" preserveAspectRatio="none" x="676" y="592" width="232" height="283" xlink:href="img/8.png"/>
<path d="M700.2,595.9L681.3,853.7l172.1,15.1l33.2,-20.2L903,613.7Z" class="g4_46"/>
<path d="M854.1,868.7l32.7,-19.5l-20.4,-8.6Z" class="g5_46"/>
<path d="M393.9,627.2c11.6,-.9,20.9,-5.6,23.1,-11.6m-.6,-6.8c-3.1,-5.6,-12.5,-9.8,-23.9,-10.4m-7.1,.1c-11.5,.9,-20.8,5.6,-23,11.6m.6,6.8c3.1,5.6,12.5,9.8,23.9,10.4" class="gr_46"/>
<path d="M417.3,614.3c.1,-.5,.2,-1,.2,-1.4c0,-.5,-.1,-1,-.2,-1.5M391.1,598.3c-.5,0,-.9,0,-1.4,0c-.5,0,-1,0,-1.4,0M362,611.4c0,.5,-.1,1,-.1,1.5c0,.4,.1,.9,.1,1.4m26.3,13.1c.4,0,.9,0,1.4,0c.5,0,.9,0,1.4,0" class="g9_46"/>
<path d="M392.6,596.8c24.6,-8.5,150.6,-48.6,242.6,-19.2" class="g6_46"/>
<path d="M641.8,580.4c3.6,2.6,.6,5.6,-2.3,7.5" class="gs_46"/>
<path d="M632.6,587.6c-3.7,-3.5,-5.3,-11.1,13.3,-13.3m8,-.5c16.4,.3,35.3,7.9,50.5,19.9" class="g6_46"/>
<path d="M388.3,598.3c0,0,.5,-.2,1.4,-.5M636.6,578.1c.5,.1,1,.3,1.5,.4c.4,.2,.9,.4,1.3,.5m-1.1,9.7c-.5,.2,-.9,.4,-1.3,.6c-.4,.2,-1,.2,-1.6,0m12.2,-15.2c.5,-.1,1,-.1,1.6,-.1c.5,-.1,1,-.1,1.6,-.1m54.8,20.8c.4,.4,.8,.7,1.2,1" class="g7_46"/>
<path d="M710.8,590.9l-7.1,5.2l10.3,6.4Z" class="ga_46"/>
<image clip-path="url(#ca_46)" x="801" y="606" width="6" height="10" xlink:href="shade/1.png"/>
<image clip-path="url(#cb_46)" x="801" y="580" width="24" height="28" xlink:href="shade/2.png"/>
<image clip-path="url(#cc_46)" x="800" y="582" width="23" height="34" xlink:href="shade/3.png"/>
<image clip-path="url(#cd_46)" x="806" y="578" width="20" height="10" xlink:href="shade/4.png"/>
<image clip-path="url(#ce_46)" x="167" y="791" width="5" height="10" xlink:href="shade/5.png"/>
<image clip-path="url(#cf_46)" x="166" y="765" width="24" height="28" xlink:href="shade/6.png"/>
<image clip-path="url(#cg_46)" x="166" y="767" width="23" height="34" xlink:href="shade/7.png"/>
<image clip-path="url(#ch_46)" x="171" y="763" width="20" height="10" xlink:href="shade/8.png"/>
<image clip-path="url(#ci_46)" preserveAspectRatio="none" x="125" y="206" width="734" height="181" xlink:href="img/9.png"/>
<path d="M144.6,231.3c0,0,-13,0,-13,13v117c0,0,0,13,13,13H833.1c0,0,13,0,13,-13v-130Z" class="gt_46"/>
<path d="M147.7,294.1l54.1,40.8l54.1,-40.8V230h8.7V211.9H155.8c-6.5,.4,-7.7,3.9,-8.2,8.4Z" class="gu_46"/>
<path d="M274,220.3c-.3,-4.7,-4.2,-8.4,-9,-8.4c-4.8,0,-8.7,3.7,-9,8.4h-.1V230h18.2v-9.7Z" class="gj_46"/>
<path d="M255.9,230.6H846.1" class="gv_46"/>
<path d="M32.1,45.1H9.2m958.3,0h22.9M32.1,1331.3H9.2m958.3,0h22.9M45.1,32.1V9.2m0,1335.1v22.9M954.5,32.1V9.2m0,1335.1v22.9" class="gw_46"/>
<path d="M32.1,45.1H9.2m958.3,0h22.9M32.1,1331.3H9.2m958.3,0h22.9M45.1,32.1V9.2m0,1335.1v22.9M954.5,32.1V9.2m0,1335.1v22.9" class="gx_46"/>
<path d="M27.5,32.1H0m972.1,0h27.5M27.5,1344.3H0m972.1,0h27.5M32.1,27.5V0m0,1348.9v27.5M967.5,27.5V0m0,1348.9v27.5" class="gw_46"/>
<path d="M27.5,32.1H0m972.1,0h27.5M27.5,1344.3H0m972.1,0h27.5M32.1,27.5V0m0,1348.9v27.5M967.5,27.5V0m0,1348.9v27.5" class="gx_46"/>
</svg>