<?xml version="1.0" encoding="UTF-8" standalone="no"?>
<!DOCTYPE svg PUBLIC "-//W3C//DTD SVG 1.1//EN"
"http://www.w3.org/Graphics/SVG/1.1/DTD/svg11.dtd">
<svg viewBox="0 0 999 1376" version="1.1" xmlns="http://www.w3.org/2000/svg" xmlns:xlink="http://www.w3.org/1999/xlink">
<defs>
<clipPath id="c0_346"><path d="M32.1,1344.3V32.1H967.5V1344.3Z"/></clipPath>
<clipPath id="c1_346"><path d="M85.8,962.4V893.1H225v69.3Z"/></clipPath>
<clipPath id="c2_346"><path d="M86.1,966.7V890.3H226.9v76.4Z"/></clipPath>
<clipPath id="c3_346"><path d="M85.8,965.9V890H226.6v75.9Z"/></clipPath>
<clipPath id="c4_346"><path d="M176.9,542.1L170.4,540L154,526V468.9h72v73.2Z"/></clipPath>
<clipPath id="c5_346"><path d="M177,1110.4l-6.5,-2.1l-16.4,-14v-57.1h72v73.2Z"/></clipPath>
<clipPath id="c6_346"><path d="M727.1,652.1V587.7H863v64.4Z"/></clipPath>
<clipPath id="c7_346"><path d="M726.5,655.9v-71h137v71Z"/></clipPath>
<clipPath id="c8_346"><path d="M726.2,655.6v-71h137v71Z"/></clipPath>
<clipPath id="c9_346"><path d="M788.9,599.1c-.3,-.1,3.5,-8.2,3.5,-8.2l.8,.5c0,0,-4,7.7,-4.3,7.7Z"/></clipPath>
<clipPath id="ca_346"><path d="M796.4,591.4c0,0,-6.9,-1.2,-7.6,-5.3c-.7,-3.6,1.5,-3.8,2.1,-3.8c0,0,.1,0,.1,0l8.3,-12.7l-1.5,-3.1c0,0,-.6,-1.1,.2,-2.1c0,-.1,.1,-.1,.3,-.1c2.1,0,12.9,5.6,12.9,5.6l.1,.1c-.4,.5,-.7,1.1,-1.4,1.6c-.7,.5,-5.1,1.2,-5.1,1.2l-8.4,18.6Z"/></clipPath>
<clipPath id="cb_346"><path d="M796,591c.2,-.5,.2,-1.8,0,-2.3v-1.3c-1.6,-.6,-2.9,-1.3,-3.7,-2.6c-1.1,.6,-2.1,1.3,-3.1,1.9c1.5,2.2,3.8,3.6,6.8,4.3Zm0,-3.9c2.2,-4.5,3.9,-9.5,6.1,-14.1c-.9,-.4,-1.8,-1.3,-2.6,-1.4c-2.3,4.4,-4.6,8.7,-7.1,12.9c.8,1.3,2.1,2,3.6,2.6Zm-7.3,12.1c1,-2.9,2.4,-5.5,3.5,-8.3c-2,-1.6,-3.9,-3.1,-4.4,-6.2v-1.5c-.1,-2.7,1.9,-3.4,4.6,-3.4c0,0,.1,0,.2,0c1.9,-3.3,4.2,-6.3,6.1,-9.7c-.5,-.8,-1.1,-2.3,-.9,-3.6c.6,1.2,1.7,1.9,2.4,2.9c-.1,.6,-.2,1.1,-.3,1.7c.5,.7,1.3,1.2,2.3,1.4c.5,-.4,.6,-1.2,1.2,-1.5c.9,.4,1.8,.8,3.1,.8c.1,.1,.5,.1,.8,.1c.4,0,.7,0,.8,-.1c.2,0,.3,0,.4,0c.2,0,.4,-.1,.6,-.1c.2,-.1,.3,-.2,.5,-.2c.1,0,.2,.1,.3,.1c-1.3,.7,-2.2,1.8,-4.2,1.8c-.1,0,-.2,0,-.3,0c-.9,3.7,-1.9,7.4,-2.7,11.2c.6,1,1.6,1.7,1.3,3.1c-.5,2.8,-3.9,4.4,-7.2,4.4c-1.3,0,-2.5,-.2,-3.6,-.7c-1,2.1,-2.1,4.1,-3.3,6c0,-.4,.3,-.4,.3,-.8c.9,-1.8,1.9,-3.5,2.6,-5.6c-1,1.7,-1.8,3.7,-2.7,5.5c-.3,.4,-.5,.9,-.7,1.3c-.3,.4,-.3,1.1,-.7,1.4Z"/></clipPath>
<clipPath id="cc_346"><path d="M806.4,571.4c-4.8,0,-13.1,-7.3,-5.5,-8.8h1.2c.2,0,.4,0,.7,0c.1,0,.2,0,.2,0c.3,0,.6,.1,.9,.1c3.1,.7,8.2,3.8,7.5,7.1c-.2,1.1,-1.5,1.6,-3.1,1.6h-1.8c0,0,-.1,0,-.1,0Z"/></clipPath>
<clipPath id="cd_346"><path d="M150.1,907.4c-.3,-.1,3.5,-8.2,3.5,-8.2l.8,.5c0,0,-4,7.7,-4.3,7.7Z"/></clipPath>
<clipPath id="ce_346"><path d="M157.6,899.7c0,0,-6.9,-1.1,-7.6,-5.2c-.6,-3.6,1.5,-3.9,2.1,-3.9q.1,0,.1,0l8.3,-12.7l-1.4,-3.1c0,0,-.6,-1.1,.1,-2c.1,-.1,.2,-.1,.3,-.1c2.1,0,13,5.5,13,5.5v.1c-.3,.6,-.7,1.2,-1.4,1.7c-.6,.5,-5,1.1,-5,1.1l-8.5,18.6Z"/></clipPath>
<clipPath id="cf_346"><path d="M157.2,899.3c.2,-.4,.2,-1.8,0,-2.2v-1.4c-1.5,-.5,-2.9,-1.2,-3.7,-2.5c-1.1,.6,-2.1,1.2,-3.1,1.9c1.5,2.1,3.8,3.5,6.8,4.2Zm0,-3.9c2.2,-4.5,4,-9.5,6.1,-14c-.8,-.4,-1.8,-1.3,-2.6,-1.4c-2.3,4.3,-4.6,8.6,-7,12.8c.7,1.3,2.1,2,3.5,2.6Zm-7.3,12.1c1,-2.9,2.4,-5.5,3.5,-8.3c-2,-1.5,-3.9,-3.1,-4.4,-6.1v-1.5c0,-2.8,1.9,-3.4,4.6,-3.4q.1,0,.2,0c1.9,-3.4,4.2,-6.4,6.1,-9.7c-.5,-.9,-1.1,-2.4,-.8,-3.7c.5,1.3,1.6,1.9,2.4,2.9c-.2,.6,-.3,1.2,-.4,1.8c.6,.7,1.3,1.2,2.4,1.4c.4,-.5,.5,-1.3,1.1,-1.5c.9,.3,1.8,.7,3.1,.7c.2,.1,.5,.2,.9,.2c.3,0,.6,-.1,.8,-.2c.1,0,.2,.1,.3,.1c.2,0,.4,-.1,.6,-.2c.2,0,.4,-.1,.5,-.1c.1,0,.2,0,.3,.1c-1.3,.6,-2.2,1.8,-4.1,1.8c-.2,0,-.3,0,-.4,-.1c-.9,3.8,-1.8,7.4,-2.6,11.2c.5,1.1,1.5,1.7,1.2,3.2c-.4,2.7,-3.8,4.4,-7.2,4.4c-1.2,0,-2.5,-.3,-3.6,-.8c-1,2.1,-2,4.2,-3.3,6.1c0,-.4,.3,-.4,.3,-.8c1,-1.8,1.9,-3.6,2.6,-5.7c-1,1.8,-1.8,3.7,-2.7,5.6c-.2,.4,-.4,.8,-.7,1.2c-.3,.4,-.2,1.2,-.7,1.4Z"/></clipPath>
<clipPath id="cg_346"><path d="M167.6,879.7c-4.8,0,-13.1,-7.3,-5.5,-8.8h1.2c.2,.1,.4,.1,.6,.1q.1,0,.1,0c.1,0,.2,0,.2,0c.3,0,.6,0,.9,.1c3.1,.6,8.2,3.8,7.5,7c-.2,1.2,-1.5,1.6,-3.1,1.6h-1.9Z"/></clipPath>
<clipPath id="ch_346"><path d="M764.8,427.8V415.4h14.5v12.4Z"/></clipPath>
<clipPath id="ci_346"><path d="M125.5,386.7V205.8H858.6V386.7Z"/></clipPath>
<style type="text/css"><![CDATA[
.g0_346{
fill: #FEFCF4;
}
.g1_346{
fill: #FFF;
}
.g2_346{
fill: none;
stroke: #6381B7;
stroke-width: 0.763;
}
.g3_346{
fill: none;
stroke: #818385;
stroke-width: 0.305;
stroke-dasharray: 3,3;
}
.g4_346{
fill: none;
stroke: #818385;
stroke-width: 0.305;
}
.g5_346{
fill: #F499C2;
}
.g6_346{
fill: #FDF4F3;
}
.g7_346{
fill: #EC008C;
}
.g8_346{
fill: none;
stroke: #949698;
stroke-width: 0.305;
stroke-dasharray: 4,4;
}
.g9_346{
fill: none;
stroke: #949698;
stroke-width: 0.305;
}
.ga_346{
fill: #6D6F71;
}
.gb_346{
fill: #6381B7;
}
.gc_346{
fill: none;
stroke: #6381B7;
stroke-width: 0.381;
stroke-dasharray: 2,1;
}
.gd_346{
fill: none;
stroke: #6381B7;
stroke-width: 0.381;
}
.ge_346{
fill: #FCE8B0;
}
.gf_346{
fill: #F7C2D9;
}
.gg_346{
fill: #2E6E51;
}
.gh_346{
fill: none;
stroke: #FFF;
stroke-width: 0.152;
stroke-miterlimit: 1;
}
.gi_346{
fill: #BCBEC0;
}
.gj_346{
fill: #EE314A;
}
.gk_346{
fill: #25408F;
}
.gl_346{
fill: #A8AAAD;
}
.gm_346{
fill: none;
stroke: #949698;
stroke-width: 0.549;
}
.gn_346{
fill: none;
stroke: #BCBEC0;
stroke-width: 2.566;
}
.go_346{
fill: #231F20;
}
.gp_346{
fill: #363637;
}
.gq_346{
fill: #5CC4BE;
}
.gr_346{
fill: #EAD646;
}
.gs_346{
fill: #CEEDFB;
}
.gt_346{
fill: #27639D;
}
.gu_346{
fill: none;
stroke: #C3E7F1;
stroke-width: 1.527;
}
.gv_346{
fill: none;
stroke: #FFF;
stroke-width: 1.909;
stroke-miterlimit: 10;
}
.gw_346{
fill: none;
stroke: #000;
stroke-width: 0.381;
stroke-miterlimit: 10;
}
]]></style>
</defs>
<path d="M32.1,1343.2H954.5V32.1H32.1V1343.2Z" class="g0_346"/>
<path clip-path="url(#c0_346)" d="M954.5,1344.3H1877V32.1H954.5V1344.3Z" class="g0_346"/>
<path d="M150.4,432.7c0,0,-18.3,0,-18.3,18.4v544c0,0,0,18.4,18.3,18.4H827.5c0,0,18.4,0,18.4,-18.4V432.7Z" class="g1_346"/>
<path d="M150.4,432.7c0,0,-18.3,0,-18.3,18.4v544c0,0,0,18.4,18.3,18.4H827.5c0,0,18.4,0,18.4,-18.4V432.7H150.4Z" class="g2_346"/>
<path d="M416.1,912.3c8.6,-1,15.4,-4.8,17.2,-9.7m-.6,-6.6c-2.5,-4.6,-9.5,-8,-17.9,-8.6m-6.9,.1c-8.5,.9,-15.3,4.8,-17.2,9.7m.6,6.6c2.6,4.6,9.5,8,18,8.6" class="g3_346"/>
<path d="M433.7,901.3c.1,-.5,.1,-1,.1,-1.4c0,-.5,0,-.9,-.1,-1.4M413.4,887.3c-.4,0,-.9,0,-1.4,0c-.4,0,-.9,0,-1.3,0m-20.3,11.2c-.1,.5,-.2,.9,-.2,1.4c0,.4,.1,.9,.2,1.4m20.3,11.2c.4,0,.9,0,1.3,0c.5,0,1,0,1.4,0" class="g4_346"/>
<image clip-path="url(#c1_346)" preserveAspectRatio="none" x="86" y="894" width="139" height="69" xlink:href="img/1.png"/>
<path d="M91.1,899.8l.6,56.3l126.5,-1.2l.5,-56.5Z" class="g5_346"/>
<image clip-path="url(#c2_346)" preserveAspectRatio="none" x="86" y="891" width="141" height="76" xlink:href="img/2.png"/>
<image clip-path="url(#c3_346)" preserveAspectRatio="none" x="86" y="891" width="140" height="75" xlink:href="img/3.png"/>
<path d="M90.5,903.8l4,56.2l104.2,-7.5L220.5,932l-2.7,-37.3Z" class="g6_346"/>
<path d="M198.7,952.5l21.8,-20.4l-19.9,-.3Z" class="g7_346"/>
<path d="M394.6,887.6c-20.3,-7.5,-109,-37.7,-197.5,-28m-8.1,1.5c-5.3,2.1,1.5,5.6,6,5.5m4.3,-5.5c-.6,-2.9,-5.1,-3.8,-9.2,-3.9m-7.7,.4c-13.5,1,-44.6,5.9,-61.9,43.5" class="g8_346"/>
<path d="M398.9,889.3c0,0,-.5,-.2,-1.4,-.6M195.6,859.8c-.5,.1,-1,.1,-1.6,.2c-.6,.1,-1.1,.1,-1.7,.2m4.4,6.1c.6,-.2,1.1,-.5,1.4,-1c.3,-.4,.5,-.9,.7,-1.3m-10.2,-6.8c-.5,.1,-1.1,.1,-1.5,.1c-.5,0,-1,.1,-1.6,.1m-65.6,45.2c-.2,.4,-.5,.9,-.7,1.4" class="g9_346"/>
<path d="M117.2,896.2l8.1,3.4l-8.5,8.7Z" class="ga_346"/>
<path d="M145.1,1022c0,0,-13,0,-13,13v159.5c0,0,0,13,13,13H832.9c0,0,13,0,13,-13V1035c0,0,0,-13,-13,-13Z" class="g1_346"/>
<path d="M145.1,1022c0,0,-13,0,-13,13v159.5c0,0,0,13,13,13H832.9c0,0,13,0,13,-13V1035c0,0,0,-13,-13,-13H145.1Z" class="g2_346"/>
<path d="M462.5,1223.3c0,0,-4.4,0,-4.4,4.3v10.8c0,0,0,4.4,4.4,4.4h30.3c0,0,4.3,0,4.3,-4.4v-10.8c0,0,0,-4.3,-4.3,-4.3Z" class="gb_346"/>
<path d="M449.3,1215.8v34.8m1.3,1H845.1m1,-1.4v-34.8m-1.4,-1H450.2" class="gc_346"/>
<path d="M449.3,1251v.6h.6m395.6,0h.6v-.6m0,-36v-.6h-.6m-395.6,0h-.6v.6" class="gd_346"/>
<path d="M209.5,471.1c0,0,-13,0,-13,13v47.6c0,0,0,13,13,13h602c0,0,13,0,13,-13V484.1c0,0,0,-13,-13,-13Z" class="ge_346"/>
<image clip-path="url(#c4_346)" preserveAspectRatio="none" x="152" y="467" width="75" height="77" xlink:href="img/4.png"/>
<path d="M204.3,537.4c0,0,-26.8,11.3,-51.1,-12.8c0,0,15.2,25.3,49.3,24c0,0,24.8,.3,20.2,-10.2c0,0,1.3,-4.4,-18.4,-1Z" class="ge_346"/>
<path d="M209.6,1065.4c0,0,-12.9,0,-12.9,13V1100c0,0,0,13,12.9,13h602c0,0,13,0,13,-13v-21.6c0,0,0,-13,-13,-13Z" class="ge_346"/>
<image clip-path="url(#c5_346)" preserveAspectRatio="none" x="153" y="1036" width="75" height="76" xlink:href="img/5.png"/>
<path d="M204.4,1105.7c0,0,-26.8,11.3,-51.1,-12.8c0,0,15.2,25.3,49.3,24c0,0,24.8,.3,20.3,-10.2c0,0,1.2,-4.4,-18.5,-1Z" class="ge_346"/>
<path d="M593,708.4c17.8,-.7,32.2,-5.9,35.3,-12.6m-.7,-6.8c-4.3,-6.2,-18.7,-10.9,-36,-11.4m-7.2,.1c-17.8,.7,-32.1,5.9,-35.3,12.5m.7,6.8c4.4,6.3,18.7,11,36.1,11.4" class="g3_346"/>
<path d="M628.8,694.4c.1,-.4,.2,-.9,.2,-1.4c0,-.5,-.1,-.9,-.2,-1.4m-38.6,-14c-.5,0,-1,0,-1.5,0c-.5,0,-.9,0,-1.4,0m-38.7,14c-.1,.5,-.1,.9,-.1,1.4c0,.5,0,1,.1,1.4m38.7,14.1c.5,0,.9,0,1.4,0c.5,0,1,0,1.5,0" class="g4_346"/>
<image clip-path="url(#c6_346)" preserveAspectRatio="none" x="726" y="588" width="136" height="64" xlink:href="img/6.png"/>
<path d="M732.4,592.9l-.4,51.4l124.9,1.6l-.5,-51.7Z" class="gf_346"/>
<image clip-path="url(#c7_346)" preserveAspectRatio="none" x="726" y="585" width="137" height="71" xlink:href="img/7.png"/>
<image clip-path="url(#c8_346)" preserveAspectRatio="none" x="726" y="585" width="136" height="71" xlink:href="img/8.png"/>
<path d="M730.9,598l3.7,51.2l100.7,-6.8l21.8,-20.5l-2.4,-32.3Z" class="g6_346"/>
<path d="M835.3,642.4L857.1,622l-13,-1.4Z" class="g7_346"/>
<path d="M611.6,681.6c0,0,46,-49.3,123.6,-56.4" class="g8_346"/>
<path d="M732.9,621l1.2,8.7l10.6,-5.9Z" class="ga_346"/>
<image clip-path="url(#c9_346)" x="788" y="590" width="6" height="10" xlink:href="shade/1.png"/>
<image clip-path="url(#ca_346)" x="788" y="564" width="24" height="28" xlink:href="shade/2.png"/>
<image clip-path="url(#cb_346)" x="787" y="566" width="23" height="34" xlink:href="shade/3.png"/>
<image clip-path="url(#cc_346)" x="793" y="562" width="20" height="10" xlink:href="shade/4.png"/>
<image clip-path="url(#cd_346)" x="149" y="899" width="6" height="9" xlink:href="shade/5.png"/>
<image clip-path="url(#ce_346)" x="149" y="872" width="24" height="28" xlink:href="shade/6.png"/>
<image clip-path="url(#cf_346)" x="148" y="874" width="24" height="34" xlink:href="shade/7.png"/>
<image clip-path="url(#cg_346)" x="154" y="870" width="20" height="10" xlink:href="shade/8.png"/>
<path d="M32.1,179.3H967.5V32.1H32.1V179.3Z" class="gg_346"/>
<path d="M260.9,131.9c-2.3,-2.4,-4.7,-3.6,-7.3,-3.6c-.9,0,-2,.4,-3,1.2c-1.1,.9,-1.6,1.8,-1.6,2.7c0,.4,.1,.7,.4,1l.9,.8h-3.2l1.2,1.2h1.8v11.3l1.2,1.2V135.2h2.1L252.2,134h-1.3l-.5,-1.1c.1,-.9,.6,-1.6,1.6,-2.3c1,-.7,1.9,-1,2.8,-1c.6,0,1.2,.1,1.8,.2c.6,.2,1.1,.4,1.7,.7c.6,.4,1.1,.7,1.6,1c.4,.4,.9,.7,1.3,1l-.3,-.6Zm5.5,3.3L265.1,134H251.8l1.2,1.2h13.4Zm-1.7,2.9c-.3,-.5,-.6,-.9,-.9,-1.1c-.3,-.3,-.6,-.5,-.9,-.5c-.2,.3,-.4,.6,-.5,.9c-.2,.3,-.4,.6,-.7,.8c-.6,.7,-1.2,1,-1.7,.9c.4,-.4,.5,-.9,.5,-1.2c0,-.4,-.1,-.8,-.4,-1.1c-.3,-.2,-.7,-.4,-1.1,-.4c-1.3,0,-2,.7,-2,1.9c0,.8,.3,1.4,.9,1.9c.5,.4,1.2,.6,1.9,.6c1.5,0,2.8,-.6,3.9,-1.9c.3,0,.5,.6,.5,1.7c0,.9,-.3,1.7,-1,2.3c-.6,.7,-1.4,1,-2.2,1c-.9,0,-1.7,-.2,-2.5,-.7c-.8,-.4,-1.5,-1,-2.1,-1.7c-.4,-.6,-.8,-1.4,-1.3,-2.2c-.4,-.8,-.7,-1.7,-1,-2.7l-.8,-.2c.5,1.4,1,2.7,1.3,3.7c.4,1,.8,1.8,1.1,2.3c1.4,2.3,3.1,3.5,5,3.5c1.4,0,2.6,-.6,3.5,-1.6c.4,-.5,.7,-1.1,.9,-1.7c.2,-.6,.3,-1.3,.3,-2c0,-.7,-.2,-1.5,-.7,-2.5Zm14.4,-2.9L277.9,134H265c.4,.4,.7,.7,.9,.9c.3,.2,.5,.4,.6,.5c.3,.2,.6,.4,.9,.6c.3,.1,.6,.2,.9,.3c.5,.1,.9,.2,1.2,.3c.3,.1,.6,.2,.8,.4c.3,.2,.4,.4,.6,.7c.1,.4,.2,.8,.2,1.4c-.4,.5,-.7,.9,-1,1.3c-.2,.3,-.4,.5,-.6,.7c-.2,.2,-.3,.3,-.4,.4c-.1,0,-.2,0,-.2,0c-.2,0,-.4,0,-.5,-.1c-.1,-.1,-.3,-.3,-.4,-.4c-.1,-.2,-.1,-.4,-.2,-.6c-.1,-.2,-.1,-.3,-.2,-.5l-.8,.8c.2,.2,.3,.5,.5,.8c.2,.3,.4,.6,.6,.9c.2,.3,.5,.5,.8,.7c.3,.1,.6,.2,1,.2c.1,0,.3,0,.4,-.1c.2,0,.3,-.1,.5,-.3c.3,-.2,.5,-.5,.8,-.9c.3,-.4,.6,-.9,1,-1.6c.5,-.6,.9,-1,1.3,-1.1c.4,0,.8,.1,1.1,.4c.3,.4,.6,.9,.7,1.6c.2,.7,.3,1.6,.3,2.5v.4c0,.1,0,.3,0,.5c0,.1,0,.4,0,.7c0,.3,0,.6,-.1,1.1c.2,.2,.4,.4,.6,.6c.2,.3,.4,.5,.6,.7V135.2h2.2Zm-3.4,4.1c-.3,-.4,-.6,-.8,-.9,-1.1c-.3,-.4,-.6,-.6,-.9,-.7c-.3,-.1,-.6,-.1,-1,.1c-.3,.1,-.7,.4,-1.1,.8c0,-.6,-.1,-1.1,-.4,-1.6c-.2,-.5,-.7,-1,-1.3,-1.6h5.6v4.1Zm8,-4.1L282.5,134h-1c-.4,-.4,-.7,-1,-.8,-1.9l-.4,-.3c0,.2,0,.5,0,.9c0,.3,0,.7,.1,1.2c0,.5,0,.9,0,1.3c.1,.3,.1,.6,.1,.9c-.3,-.8,-.6,-1.3,-1,-1.6c-.4,-.3,-1,-.5,-1.7,-.5h-1.4l1.2,1.2c.4,0,.7,.1,1,.2c.4,.1,.6,.3,.9,.5c.2,.2,.4,.4,.6,.7c.1,.3,.2,.7,.2,1v8.9l1.2,1.2V135.2h2.2Zm18.9,0L301.4,134H289.7l1.2,1.2h8.4v6.6c-1.3,-2.6,-2.8,-4,-4.5,-4c-.7,0,-1.4,.3,-2.1,.9c-.5,.5,-.8,1.2,-.8,2c0,1.5,.8,2.2,2.3,2.2c.5,0,.9,-.2,1.2,-.5c.3,-.4,.4,-.8,.4,-1.3c0,-.3,-.2,-.8,-.7,-1.5c0,-.1,.1,-.1,.3,-.1c1.3,0,2.4,.8,3.3,2.5c.7,1.4,1,2.9,1,4.2l-.1,1.3l.9,.6V135.2h2.1Zm11.3,0L312.8,134H300.9l1.2,1.2h8.2v.9c-2.5,.8,-5,2.1,-7.4,3.7l1.6,2.3c1.7,.1,3.1,.7,4.1,1.6c.3,.3,.6,.6,.9,1c.3,.4,.6,.8,.8,1.2c.1,.3,.3,.5,.3,.7c.1,.1,.2,.2,.2,.4l.7,.8V135.2h2.4Zm-3.6,9.4c-1.1,-1.8,-2.7,-3.2,-4.8,-4.1c.8,-.6,1.7,-1.1,2.5,-1.5c.8,-.4,1.5,-.7,2.3,-1v6.6Zm7.9,-9.4L317,134h-1.1c-.3,-.4,-.6,-1,-.7,-1.9l-.4,-.3c0,.2,0,.5,0,.9c0,.3,0,.7,0,1.2c.1,.5,.1,.9,.1,1.3c0,.3,0,.6,0,.9c-.2,-.8,-.5,-1.3,-.9,-1.6c-.4,-.3,-1,-.5,-1.7,-.5h-1.4l1.2,1.2c.4,0,.7,.1,1,.2c.3,.1,.6,.3,.9,.5c.2,.2,.4,.4,.6,.7c.1,.3,.2,.7,.2,1v8.9l1.1,1.2V135.2h2.3Zm10.7,0L327.6,134H316.5c.6,1,1.7,1.7,3.3,2.2c.7,.2,1.3,.4,1.7,.6c.4,.2,.7,.4,.8,.6c-.5,.4,-1.1,.8,-1.7,1.4c-.6,.5,-1.2,1.1,-1.9,1.7l1.6,2.1c1.5,.1,2.7,.5,3.6,1.2c.5,.5,1.1,1.2,1.7,2.3c.6,1,1,1.6,1.3,1.8V135.2h2Zm-3.2,9.5c-1,-1.7,-2.5,-2.9,-4.5,-3.6c.5,-.5,1,-1.1,1.5,-1.6c.5,-.5,1,-.9,1.4,-1.4c-.6,-.7,-1.1,-1.3,-1.6,-1.8c-.5,-.5,-1,-.9,-1.4,-1.1h4.6v9.5Zm-4.6,2c.2,.2,.5,.3,.9,.3c.3,0,.6,-.1,.8,-.3c.3,-.3,.4,-.6,.4,-.9c0,-.3,-.1,-.6,-.4,-.9c-.2,-.2,-.5,-.3,-.8,-.3c-.4,0,-.7,.1,-.9,.3c-.2,.3,-.4,.6,-.4,.9c0,.3,.2,.6,.4,.9Zm14,-12.7h-7.9l1.2,1.2h4c-1.7,2,-2.6,4,-2.6,6.1c0,1.5,.3,2.8,.9,3.9c.8,1.4,1.9,2.1,3.3,2.1c.2,0,.5,0,.8,-.1c.2,-.1,.5,-.2,.7,-.4c.2,-.2,.3,-.4,.4,-.7c.2,-.2,.2,-.5,.2,-.8c0,-.4,-.1,-.9,-.4,-1.2c-.3,-.3,-.6,-.5,-1,-.5c-.4,0,-.7,.2,-1.1,.4c-.3,.3,-.4,.6,-.4,1c0,.2,0,.4,.2,.7c.1,.2,.3,.4,.6,.6c-.8,.2,-1.5,-.2,-2.3,-1.3c-.4,-.7,-.7,-1.5,-.7,-2.3c0,-1,.1,-1.9,.3,-2.7c.3,-.7,.6,-1.4,1,-2.1c.4,-.7,1,-1.3,1.7,-1.7c.6,-.5,1.4,-.8,2.3,-1L335.1,134Zm12.2,1.2L346,134H334.4l1.2,1.2H344v6.6h-.1c-1.2,-2.6,-2.7,-4,-4.4,-4c-.8,0,-1.5,.3,-2.1,.9c-.6,.5,-.9,1.2,-.9,2c0,1.5,.8,2.2,2.4,2.2c.5,0,.9,-.2,1.2,-.5c.3,-.4,.4,-.8,.4,-1.3c0,-.3,-.3,-.8,-.8,-1.5c.1,-.1,.2,-.1,.4,-.1c1.2,0,2.3,.8,3.3,2.5c.6,1.4,.9,2.9,.9,4.2l-.1,1.3l1,.6V135.2h2.1Zm11.3,0L357.4,134H345.6l1.2,1.2H355v.9c-2.5,.8,-5,2.1,-7.4,3.7l1.6,2.3c1.7,.1,3,.7,4.1,1.6c.2,.3,.5,.6,.9,1c.3,.4,.5,.8,.7,1c.1,.3,.3,.7,.6,1.3l.6,.8V135.2h2.5Zm-3.6,9.4c-1.1,-1.8,-2.7,-3.2,-4.9,-4.1c.9,-.6,1.7,-1.1,2.5,-1.5c.8,-.4,1.6,-.7,2.4,-1v6.6Zm-4.7,1.7c.2,.3,.5,.4,.8,.4c.4,0,.7,-.1,.9,-.4c.3,-.2,.4,-.5,.4,-.8c0,-.4,-.1,-.7,-.4,-.9c-.2,-.3,-.5,-.4,-.9,-.4c-.3,0,-.6,.1,-.8,.4c-.3,.2,-.4,.5,-.4,.9c0,.3,.1,.6,.4,.8Zm29,-11.1L378.1,134c-.2,0,-.3,0,-.4,0c-.4,0,-.8,-.2,-.9,-.6c-.1,-.2,-.1,-.6,-.2,-1.2l-.5,-.5c0,1.1,0,2.2,.1,3.2c.1,1.1,.1,2.1,.1,3.2c-1.5,-2.6,-3.1,-3.9,-4.9,-3.9c-.4,0,-.9,.1,-1.4,.3c-.6,.1,-1.1,.4,-1.6,.7c-.5,.4,-1,.8,-1.3,1.2c-.3,.4,-.4,.9,-.4,1.3c0,.2,.1,.5,.3,.7c.1,.2,.4,.3,.6,.3c.2,0,.5,-.1,.9,-.3c.2,-.1,.3,-.1,.4,-.2c.2,0,.3,0,.4,0c.5,0,.7,.4,.7,1.2c0,.5,-.4,1.1,-1.2,1.9l1.7,.6l4.2,-4.2c.2,.1,.3,.2,.5,.4c.1,.2,.3,.4,.4,.6c.2,.3,.3,.5,.4,.7c.1,.3,.1,.5,.1,.6l-.1,6.4l1.2,1.3V135.2h2.1Zm-8.6,4.2c.1,-.7,0,-1.2,-.3,-1.6c-.3,-.5,-.7,-.7,-1.4,-.7c.6,-1.1,1.5,-1.6,2.8,-1.6c.7,0,1.3,.3,1.9,.9l-3,3ZM385.4,134h-8l1.2,1.2h4c-1.7,2,-2.6,4,-2.6,6.1c0,1.5,.4,2.8,1,3.9c.7,1.4,1.8,2.1,3.2,2.1c.3,0,.6,0,.8,-.1c.3,-.1,.5,-.2,.7,-.4c.2,-.2,.4,-.4,.5,-.7c.1,-.2,.2,-.5,.2,-.8c0,-.4,-.2,-.9,-.5,-1.2c-.3,-.3,-.6,-.5,-1,-.5c-.4,0,-.7,.2,-1,.4c-.3,.3,-.5,.6,-.5,1c0,.2,.1,.4,.2,.7c.1,.2,.3,.4,.6,.6c-.7,.2,-1.5,-.2,-2.2,-1.3c-.5,-.7,-.7,-1.5,-.7,-2.3c0,-1,.1,-1.9,.3,-2.7c.2,-.7,.5,-1.4,.9,-2.1c.5,-.7,1,-1.3,1.7,-1.7c.7,-.5,1.4,-.8,2.3,-1L385.4,134Zm12.1,1.2L396.3,134H384.5l1.2,1.2h8.2v.9c-2.5,.8,-5,2.1,-7.4,3.7l1.6,2.3c1.7,.1,3.1,.7,4.1,1.6c.3,.3,.6,.6,.9,1c.3,.4,.6,.8,.7,1c.2,.3,.4,.7,.6,1.3l.6,.8V135.2h2.5Zm-3.6,9.4c-1.1,-1.8,-2.7,-3.2,-4.8,-4.1c.8,-.6,1.7,-1.1,2.4,-1.5c.8,-.4,1.6,-.7,2.4,-1v6.6Zm-4.7,1.7c.2,.3,.5,.4,.9,.4c.3,0,.6,-.1,.8,-.4c.3,-.2,.4,-.5,.4,-.8c0,-.4,-.1,-.7,-.4,-.9c-.2,-.3,-.5,-.4,-.8,-.4c-.4,0,-.7,.1,-.9,.4c-.3,.2,-.4,.5,-.4,.9c0,.3,.1,.6,.4,.8ZM418.5,134H403.3l1.2,1.2h11.8v8.2L414.7,142c.2,-.6,.3,-1.3,.3,-1.9c0,-.8,-.2,-1.6,-.6,-2.2c-.3,-.5,-.6,-.9,-1,-1.2c-.5,-.3,-.9,-.6,-1.4,-.7c-.3,-.1,-.6,-.2,-.9,-.2c-.7,0,-1.3,.2,-2,.7c-.3,.2,-.5,.5,-.7,.8c-.1,.3,-.2,.6,-.2,.9c0,.4,0,.7,.2,.9c.3,.5,.7,.7,1.2,.8c.6,.1,1.1,0,1.5,-.3c.2,-.2,.4,-.4,.6,-.6c.1,-.3,.2,-.5,.2,-.8c0,-.3,-.1,-.6,-.4,-1c.3,-.1,.5,-.1,.7,0c.2,0,.5,.1,.8,.3c.1,.2,.3,.4,.5,.7c.2,.3,.3,.6,.4,.9c.1,.3,.1,.5,.1,.7c0,.6,-.2,1.1,-.5,1.7c-.4,.8,-1.4,1.3,-2.8,1.3c-.5,0,-1.1,-.2,-1.6,-.5c-.6,-.3,-1.1,-.8,-1.5,-1.4c-.5,-.5,-.9,-1.2,-1.2,-2c-.4,-.8,-.7,-1.7,-.9,-2.7l-.7,-.3c.1,1,.3,2,.6,2.9c.2,.9,.5,1.7,.9,2.3c.3,.5,.7,1,1,1.5c.4,.4,.8,.8,1.2,1.1c.4,.3,.8,.6,1.2,.7c.5,.2,.9,.3,1.3,.3c.7,0,1.3,-.2,1.9,-.4c.5,-.3,1,-.7,1.3,-1.2c1.4,.9,2.4,2.4,2.9,4.5v-.1l.4,.3V135.2h2.2L418.5,134Zm12.5,1.2L429.8,134H418l1.2,1.2h8.2v.9c-2.5,.8,-5,2.1,-7.4,3.7l1.6,2.3c1.7,.1,3,.7,4.1,1.6c.3,.3,.6,.6,.9,1c.3,.4,.6,.8,.8,1.2c.1,.3,.3,.5,.3,.7c.1,.1,.1,.2,.2,.4l.6,.8V135.2H431Zm-3.6,9.4c-1.1,-1.8,-2.7,-3.2,-4.9,-4.1c.9,-.6,1.8,-1.1,2.5,-1.5c.8,-.4,1.6,-.7,2.4,-1v6.6Zm16.1,-9.4L442.3,134c-.7,-.1,-1.1,-.6,-1.2,-1.5l-.8,-.6l.2,5.3c-.2,-.5,-.6,-1.2,-1.2,-2c-.8,-.8,-1.3,-1.2,-1.8,-1.2c-1.3,0,-2.3,.8,-3,2.4c-.1,-.7,-.5,-1.2,-1,-1.7c-.6,-.5,-1.2,-.7,-1.8,-.7h-2.6l1.2,1.2c.2,0,.6,0,1.4,0c.8,0,1.4,.5,2,1.5c-.3,.1,-.5,.2,-.8,.4c-.3,.2,-.5,.4,-.7,.7c-.2,.2,-.3,.5,-.4,.8c-.1,.2,-.2,.5,-.2,.8c0,.4,.2,.8,.4,1.2c.3,.3,.7,.5,1.1,.5c.9,0,1.6,-.5,2,-1.5c.1,.5,.4,.8,.7,1.1c.3,.2,.7,.4,1.1,.4c.5,-.1,.9,-.3,1.2,-.7c.3,-.3,.4,-.7,.4,-1.2c0,-.6,-.6,-1.3,-1.9,-2.2c0,-.3,.2,-.6,.5,-.7c.3,-.2,.6,-.3,.9,-.3c.5,0,1,.3,1.5,1c.6,.8,.8,1.4,.8,1.9l-.1,7.7l1.3,1.2V135.2h2Zm4.9,0L447.2,134h-6l1.2,1.2h3.5c-1.4,1.2,-2,2.6,-1.9,4.2c0,.5,.2,1.4,.5,2.4c.2,.5,.3,1,.3,1.4c.1,.4,.2,.8,.2,1c0,.9,-.2,1.6,-.5,2c-.3,.3,-.6,.6,-1,.8c-.3,.2,-.7,.4,-1.1,.5l.7,.5c.4,-.1,.8,-.3,1.2,-.5c.4,-.2,.8,-.5,1.1,-.8c.3,-.4,.6,-.8,.8,-1.3c.2,-.4,.3,-.9,.3,-1.3c0,-.4,0,-.8,-.1,-1.4c-.1,-.5,-.2,-1.2,-.3,-1.9c-.2,-1.1,-.3,-2.2,-.3,-3.3c.1,-1.5,.8,-2.3,1.9,-2.3h.7Zm9.7,-1.2h-1c.1,-1.1,-.3,-2,-1.1,-2.5c-.7,-.6,-1.9,-.9,-3.4,-.9c-.8,.1,-1.5,.1,-2,.2c-.5,0,-.9,0,-1.1,0c-.4,0,-.8,-.1,-1.1,-.3c-.5,-.3,-.7,-.6,-.7,-1c0,-.4,.2,-.8,.5,-1c0,0,-.1,0,-.1,0q-.1,0,-.2,0c-.2,-.1,-.3,.1,-.5,.5c-.2,.3,-.3,.6,-.3,.8c0,.8,.4,1.5,1.3,2c.7,.4,1.5,.7,2.4,.7c.2,0,.5,-.1,.8,-.1c.3,0,.6,0,1,0c.4,-.1,.8,-.1,1.1,-.1c.3,0,.5,0,.7,0c.2,0,.4,0,.6,0c.2,0,.3,.1,.5,.1c.5,.2,.7,.4,.7,.7c0,.3,-.2,.5,-.6,.7c-.2,.1,-.4,.1,-.5,.1c-.2,.1,-.4,.1,-.6,.1h-8.1l1.2,1.2h3.9c.5,.4,.8,.7,.8,1c-.8,0,-1.4,.3,-2,.8c-.5,.5,-.8,1.1,-.8,1.8c0,.4,.1,.7,.4,.9c.3,.2,.7,.3,1,.3c.6,0,1.1,-.2,1.6,-.7c.5,-.5,.7,-1,.7,-1.6c.1,0,.2,0,.3,-.1c.1,0,.2,0,.3,0c.3,0,.5,.1,.7,.2c.2,.1,.4,.2,.6,.4c.1,.2,.2,.4,.3,.7c.1,.2,.1,.5,.1,.7c.1,.8,-.4,1.5,-1.4,2c-.7,.3,-1.5,.5,-2.5,.4c-1.2,-.1,-2.3,-.4,-3.3,-1l1.4,3c.9,.2,1.8,.5,2.6,.9c.9,.3,1.7,.7,2.5,1.2c.9,.5,1.7,1,2.4,1.5c.6,.6,1.3,1.2,1.8,1.9l-.2,-1.3c-1.1,-1.1,-2.1,-2,-3,-2.8c-.9,-.8,-1.8,-1.4,-2.6,-1.9c1.2,-.3,2.1,-.7,2.7,-1.2c.7,-.6,1.1,-1.5,1.1,-2.4c0,-1,-.3,-1.8,-.9,-2.5c-.4,-.5,-1.3,-.9,-2.5,-1.3c-.1,-.2,-.2,-.3,-.3,-.5c-.1,-.1,-.2,-.2,-.3,-.4h6.3L458.1,134Zm21.2,-2.1c-2.4,-2.4,-4.8,-3.6,-7.3,-3.6c-1,0,-2,.4,-3.1,1.2c-1.1,.9,-1.6,1.8,-1.6,2.7c0,.4,.2,.7,.5,1l.8,.8h-3.2l1.2,1.2h1.8v11.3l1.2,1.2V135.2h2.1L470.5,134h-1.3l-.5,-1.1c.1,-.9,.6,-1.6,1.7,-2.3c.9,-.7,1.8,-1,2.7,-1c.6,0,1.2,.1,1.8,.2c.6,.2,1.2,.4,1.7,.7c.6,.4,1.1,.7,1.6,1c.5,.4,.9,.7,1.3,1l-.2,-.6Zm3.6,3.3L481.7,134H469.9l1.2,1.2h8.2v.9c-2.5,.8,-4.9,2.1,-7.3,3.7l1.5,2.3c1.7,.1,3.1,.7,4.1,1.6c.3,.3,.6,.6,.9,1c.4,.4,.6,.8,.7,1c.2,.3,.4,.7,.6,1.3l.7,.8V135.2h2.4Zm-3.6,9.4c-1.1,-1.8,-2.7,-3.2,-4.8,-4.1c.9,-.6,1.7,-1.1,2.5,-1.5c.8,-.4,1.5,-.7,2.3,-1v6.6Zm-4.7,1.7c.3,.3,.5,.4,.9,.4c.3,0,.6,-.1,.9,-.4c.2,-.2,.3,-.5,.3,-.8c0,-.4,-.1,-.7,-.3,-.9c-.3,-.3,-.6,-.4,-.9,-.4c-.4,0,-.6,.1,-.9,.4c-.2,.2,-.4,.5,-.4,.9c0,.3,.2,.6,.4,.8ZM488.8,134h-7.9l1.2,1.2h4c-1.7,2,-2.6,4,-2.6,6.1c0,1.5,.3,2.8,1,3.9c.7,1.4,1.8,2.1,3.2,2.1c.3,0,.5,0,.8,-.1c.3,-.1,.5,-.2,.7,-.4c.2,-.2,.4,-.4,.5,-.7c.1,-.2,.1,-.5,.1,-.8c0,-.4,-.1,-.9,-.4,-1.2c-.3,-.3,-.6,-.5,-1,-.5c-.4,0,-.7,.2,-1,.4c-.3,.3,-.5,.6,-.5,1c0,.2,.1,.4,.2,.7c.1,.2,.3,.4,.6,.6c-.7,.2,-1.5,-.2,-2.3,-1.3c-.4,-.7,-.6,-1.5,-.7,-2.3c0,-1,.2,-1.9,.4,-2.7c.2,-.7,.5,-1.4,.9,-2.1c.5,-.7,1,-1.3,1.7,-1.7c.6,-.5,1.4,-.8,2.3,-1L488.8,134Zm14,1.2L501.6,134c-.1,0,-.2,0,-.4,0c-.4,0,-.7,-.2,-.9,-.6c0,-.2,-.1,-.6,-.2,-1.2l-.5,-.5c0,1.1,.1,2.2,.1,3.2c.1,1.1,.1,2.1,.2,3.2h-.1c-1.5,-2.6,-3.1,-3.9,-4.9,-3.9c-.4,0,-.9,.1,-1.4,.3c-.5,.1,-1,.4,-1.5,.7c-.6,.4,-1,.8,-1.3,1.2c-.3,.4,-.5,.9,-.5,1.3c0,.2,.1,.5,.3,.7c.2,.2,.4,.3,.6,.3c.3,0,.5,-.1,.9,-.3c.2,-.1,.4,-.1,.5,-.2c.1,0,.2,0,.4,0c.4,0,.7,.4,.7,1.2c0,.5,-.4,1.1,-1.3,1.9l1.8,.6l4.2,-4.2c.1,.1,.3,.2,.4,.4c.2,.2,.3,.4,.5,.6c.1,.3,.3,.5,.3,.7c.1,.3,.2,.5,.2,.6l-.2,6.4l1.3,1.3V135.2h2Zm-8.5,4.2c.1,-.7,-.1,-1.2,-.3,-1.6c-.3,-.5,-.8,-.7,-1.4,-.7c.5,-1.1,1.4,-1.6,2.8,-1.6c.7,0,1.3,.3,1.8,.9l-2.9,3Zm13.1,-4.2L506.2,134h-1.1c-.3,-.4,-.6,-1,-.7,-1.9l-.4,-.3c0,.2,0,.5,0,.9c0,.3,0,.7,0,1.2c.1,.5,.1,.9,.1,1.3c0,.3,0,.6,0,.9c-.2,-.8,-.5,-1.3,-.9,-1.6c-.4,-.3,-1,-.5,-1.7,-.5h-1.4l1.2,1.2c.4,0,.7,.1,1,.2c.3,.1,.6,.3,.9,.5c.2,.2,.4,.4,.6,.7c.1,.3,.2,.7,.2,1v8.9l1.1,1.2V135.2h2.3Zm10.3,0L516.5,134h-.7c0,-1.1,-.2,-2,-.6,-2.6c-.5,-.6,-1.3,-.9,-2.4,-.9c-.4,0,-.8,.1,-1.5,.1c-.3,.1,-.6,.1,-.9,.1c-.2,0,-.4,0,-.6,0c-.5,0,-.9,-.1,-1.3,-.3c-.4,-.2,-.6,-.6,-.6,-1.1c0,-.2,.1,-.4,.3,-.6c0,-.1,0,-.2,-.1,-.2c0,-.1,0,-.2,0,-.2c-.6,0,-.9,.5,-.9,1.4c0,.9,.5,1.6,1.3,2c.8,.5,1.6,.7,2.5,.7c.2,0,.3,0,.5,0c.2,-.1,.4,-.1,.6,-.1c.5,-.1,.9,-.1,1.1,-.1c1,0,1.5,.3,1.5,1c0,.2,0,.3,0,.4c0,.2,0,.3,0,.4h-9.1l1.1,1.2h1.9v8c.2,.9,.5,1.6,.9,2c.5,.5,1.1,.7,1.8,.7c1.2,0,2.3,-.6,3.3,-1.8c1,-1.2,1.5,-2.3,1.5,-3.5c0,-.4,-.1,-.7,-.2,-1.1c-.1,-.3,-.2,-.6,-.4,-.9c-.4,-.7,-1,-1,-1.6,-1c-.5,0,-.9,.2,-1.1,.5c-.3,.3,-.5,.7,-.5,1.1c0,.4,.2,.8,.5,1c.3,.3,.7,.4,1.1,.4h.4c-.1,.8,-.5,1.6,-1.2,2.5c-.7,.8,-1.5,1.3,-2.2,1.3c-.5,0,-.9,-.3,-1.1,-.8v-8.4h7.9Zm2.1,-7.3h-1l-7,5h2.8l5.2,-5Zm20.3,7.3L538.9,134H523.7l1.2,1.2h7.8v1c-2.6,.8,-4.9,2.1,-6.9,3.7l1.7,2.1c1.3,.1,2.5,.7,3.6,1.8c.5,.5,.9,1,1.3,1.6c.4,.7,.7,1.3,1,2c0,.1,.1,.1,.2,.2c.1,0,.1,.1,.2,.1v-10c1.2,0,2.2,.3,2.8,1c.7,.7,1,1.4,1,2.2l-.1,.3c-.2,-.2,-.3,-.3,-.5,-.4c-.2,-.2,-.4,-.2,-.7,-.2c-.4,0,-.7,.1,-1,.4c-.3,.2,-.4,.5,-.4,.9c0,.2,0,.4,.1,.6c.1,.2,.3,.3,.4,.5c.2,.1,.3,.2,.5,.3c.2,.1,.4,.1,.6,.1c.3,0,.5,-.1,.8,-.2c.2,-.1,.4,-.3,.6,-.5c.2,-.2,.3,-.4,.4,-.7c.1,-.3,.2,-.5,.2,-.8c0,-1.3,-.5,-2.4,-1.3,-3.4c-.8,-1.2,-1.9,-1.7,-3.3,-1.7v-.9h6.2Zm-7.4,9.1h-.1c-1,-1.8,-2.4,-3.1,-4.4,-4c.8,-.5,1.5,-1,2.3,-1.4c.7,-.4,1.4,-.8,2.2,-1.1v6.5Zm18.7,-9.1L550.2,134H538.4l1.2,1.2h8.2v.9c-2.5,.8,-5,2.1,-7.4,3.7l1.6,2.3c1.7,.1,3.1,.7,4.1,1.6c.3,.3,.6,.6,.9,1c.3,.4,.6,.8,.7,1c.2,.3,.4,.7,.6,1.3l.7,.8V135.2h2.4Zm-3.6,9.4c-1.1,-1.8,-2.7,-3.2,-4.8,-4.1c.8,-.6,1.7,-1.1,2.5,-1.5c.8,-.4,1.5,-.7,2.3,-1v6.6Zm-4.7,1.7c.2,.3,.5,.4,.9,.4c.3,0,.6,-.1,.8,-.4c.3,-.2,.4,-.5,.4,-.8c0,-.4,-.1,-.7,-.4,-.9c-.2,-.3,-.5,-.4,-.8,-.4c-.4,0,-.7,.1,-.9,.4c-.2,.2,-.4,.5,-.4,.9c0,.3,.2,.6,.4,.8ZM557.3,134h-7.9l1.2,1.2h4c-1.7,2,-2.6,4,-2.6,6.1c0,1.5,.3,2.8,1,3.9c.7,1.4,1.8,2.1,3.2,2.1c.3,0,.5,0,.8,-.1c.3,-.1,.5,-.2,.7,-.4c.2,-.2,.3,-.4,.5,-.7c.1,-.2,.1,-.5,.1,-.8c0,-.4,-.1,-.9,-.4,-1.2c-.3,-.3,-.6,-.5,-1,-.5c-.4,0,-.7,.2,-1,.4c-.4,.3,-.5,.6,-.5,1c0,.2,.1,.4,.2,.7c.1,.2,.3,.4,.6,.6c-.8,.2,-1.5,-.2,-2.3,-1.3c-.4,-.7,-.7,-1.5,-.7,-2.3c0,-1,.1,-1.9,.4,-2.7c.2,-.7,.5,-1.4,.9,-2.1c.5,-.7,1,-1.3,1.7,-1.7c.6,-.5,1.4,-.8,2.3,-1L557.3,134Zm13.5,0H556.6l1.2,1.2h14.3L570.8,134Zm-.5,5.6c-.2,-.6,-.5,-1.2,-1,-1.7c-.4,-.5,-.9,-.9,-1.5,-1.1c-.5,-.3,-1.1,-.5,-1.8,-.5c-.7,0,-1.4,.3,-1.9,.7c-.7,.5,-1,1.1,-1,1.9c0,.6,.2,1.2,.6,1.6c.4,.5,.9,.7,1.5,.7c1.3,0,1.9,-.6,1.9,-1.7c0,-.5,-.2,-1,-.5,-1.4c.4,-.1,.7,-.2,.9,-.2c.6,0,1.1,.3,1.5,.9c.4,.6,.6,1.1,.6,1.8c0,.8,-.3,1.6,-1,2.3c-.8,.6,-1.7,1,-2.5,1c-1.8,0,-3.2,-.9,-4.5,-2.8c-.3,-.3,-.6,-1,-1,-1.8c-.4,-.9,-.9,-1.9,-1.4,-3.1l-.7,-.2c1.8,6.5,4.3,9.8,7.5,9.8c1.2,0,2.3,-.5,3.2,-1.3c.4,-.4,.8,-.8,1,-1.4c.3,-.5,.4,-1,.4,-1.6c0,-.7,-.1,-1.3,-.3,-1.9ZM590,134H577.9l1.2,1.2h4.3c.5,.4,.8,.7,.8,1c-.7,0,-1.4,.3,-1.9,.8c-.6,.5,-.9,1.1,-.9,1.8c0,.4,.2,.7,.5,.9c.3,.2,.6,.3,.9,.3c.6,0,1.1,-.2,1.6,-.7c.5,-.5,.7,-1,.7,-1.6c.2,0,.3,-.1,.4,-.1c.1,0,.3,0,.4,0c.2,0,.3,.1,.6,.2c.2,.1,.3,.2,.5,.4c.1,.2,.2,.4,.3,.7c.1,.2,.1,.5,.1,.7c.1,.8,-.4,1.5,-1.4,2c-.7,.3,-1.5,.5,-2.4,.4c-1.3,-.1,-2.4,-.4,-3.4,-1l1.4,3c.9,.2,1.8,.5,2.6,.9c.9,.3,1.8,.7,2.6,1.2c.8,.5,1.6,1,2.3,1.5c.7,.6,1.3,1.2,1.9,1.9l-.3,-1.3c-1.1,-1.1,-2.1,-2,-3,-2.8c-.9,-.8,-1.8,-1.4,-2.6,-1.9c1.2,-.3,2.1,-.7,2.7,-1.2c.8,-.6,1.2,-1.4,1.2,-2.4c0,-1,-.4,-1.8,-1,-2.5c-.4,-.5,-1.2,-.9,-2.4,-1.3c-.1,-.2,-.3,-.3,-.4,-.5c-.1,-.1,-.2,-.2,-.3,-.4h6.3L590,134Zm6.7,0h-7.9l1.2,1.2h4c-1.7,2,-2.6,4,-2.6,6.1c0,1.5,.3,2.8,1,3.9c.7,1.4,1.8,2.1,3.2,2.1c.3,0,.5,0,.8,-.1c.3,-.1,.5,-.2,.7,-.4c.2,-.2,.4,-.4,.5,-.7c.1,-.2,.1,-.5,.1,-.8c0,-.4,-.1,-.9,-.4,-1.2c-.3,-.3,-.6,-.5,-1,-.5c-.4,0,-.7,.2,-1,.4c-.3,.3,-.5,.6,-.5,1c0,.2,.1,.4,.2,.7c.1,.2,.3,.4,.6,.6c-.7,.2,-1.5,-.2,-2.3,-1.3c-.4,-.7,-.6,-1.5,-.6,-2.3c0,-1,.1,-1.9,.3,-2.7c.2,-.7,.5,-1.4,.9,-2.1c.5,-.7,1,-1.3,1.7,-1.7c.6,-.5,1.4,-.8,2.3,-1L596.7,134Zm12.2,1.2L607.7,134H595.9l1.2,1.2h8.2v.9c-2.5,.8,-5,2.1,-7.4,3.7l1.6,2.3c1.7,.1,3,.7,4.1,1.6c.2,.3,.6,.6,.9,1c.3,.4,.6,.8,.7,1.2c.2,.3,.3,.5,.4,.7c.1,.1,.1,.2,.2,.4l.6,.8V135.2h2.5Zm-3.6,9.4c-1.1,-1.8,-2.7,-3.2,-4.9,-4.1c.9,-.6,1.7,-1.1,2.5,-1.5c.8,-.4,1.6,-.7,2.4,-1v6.6Z" class="gh_346"/>
<g clip-path="url(#c0_346)">
<path d="M1877,177.2H32.1v-5.4H768.7c43.1,0,53,-37.9,115.3,-37.9h993Z" class="gi_346"/>
<path d="M1877,183.7H32.1v-9.8H768.7c43.1,0,53,-33.6,115.3,-33.6h993Z" class="gj_346"/>
</g>
<path d="M131.7,407.2v39l11.7,10.3V412.3Z" class="gk_346"/>
<path d="M131.7,407.2v39H829.5c0,0,16.8,0,16.8,-16.8V424c0,0,0,-16.8,-16.8,-16.8Z" class="gb_346"/>
<path d="M781,440.9c8.2,0,14.8,-6.5,14.8,-14.6c0,-8,-6.6,-14.5,-14.8,-14.5c-8.3,0,-14.9,6.5,-14.9,14.5c0,8.1,6.6,14.6,14.9,14.6Z" class="gl_346"/>
<path d="M781,440.9c8.2,0,14.8,-6.5,14.8,-14.6c0,-8,-6.6,-14.5,-14.8,-14.5c-8.3,0,-14.9,6.5,-14.9,14.5c0,8.1,6.6,14.6,14.9,14.6Z" class="gm_346"/>
<path d="M781,431.7c3,0,5.4,-2.4,5.4,-5.4c0,-2.9,-2.4,-5.3,-5.4,-5.3c-3.1,0,-5.5,2.4,-5.5,5.3c0,3,2.4,5.4,5.5,5.4Z" class="g1_346"/>
<path d="M781,431.7c3,0,5.4,-2.4,5.4,-5.4c0,-2.9,-2.4,-5.3,-5.4,-5.3c-3.1,0,-5.5,2.4,-5.5,5.3c0,3,2.4,5.4,5.5,5.4Z" class="gn_346"/>
<g clip-path="url(#ch_346)" opacity="0.3">
<path d="M766.4,425.6c0,0,-.1,-4.9,3.6,-8.7l7.8,6.7c0,0,-1,1,-1.1,2.7Z" class="g1_346"/>
</g>
<path d="M785.6,426.2c0,0,-3.5,0,-3.5,3.5v8.7c0,0,0,3.5,3.5,3.5H829c0,0,3.5,0,3.5,-3.5v-8.7c0,0,0,-3.5,-3.5,-3.5Z" class="go_346"/>
<path d="M169.5,417.3c0,-8.3,-6.7,-15,-15,-15c-8.4,0,-15.1,6.7,-15.1,15c0,8.3,6.8,15.1,15.1,15.1c.8,0,1.6,-.1,2.4,-.2l4.5,5.2v-6.7c4.8,-2.5,8.1,-7.6,8.1,-13.4Z" class="g1_346"/>
<path d="M161.8,438.6l-5.1,-5.9c-.7,.1,-1.5,.1,-2.2,.1c-8.6,0,-15.6,-6.9,-15.6,-15.5c0,-8.5,7,-15.5,15.6,-15.5c8.5,0,15.5,7,15.5,15.5c0,5.7,-3.1,10.9,-8.2,13.7Zm-4.7,-6.9l3.8,4.5v-5.8l.3,-.1c4.8,-2.5,7.9,-7.5,7.9,-13c0,-8,-6.6,-14.6,-14.6,-14.6c-8.1,0,-14.6,6.6,-14.6,14.6c0,8.1,6.5,14.6,14.6,14.6c.7,0,1.5,-.1,2.3,-.2Z" class="gp_346"/>
<path d="M147.4,416.9c.8,0,1.5,.6,1.5,1.4c0,.8,-.7,1.5,-1.5,1.5c-.7,0,-1.4,-.7,-1.4,-1.5c0,-.8,.7,-1.4,1.4,-1.4Z" class="gq_346"/>
<path d="M147.4,420.2c-1,0,-1.8,-.8,-1.8,-1.9c0,-1,.8,-1.9,1.8,-1.9c1.1,0,1.9,.9,1.9,1.9c0,1.1,-.8,1.9,-1.9,1.9m0,-2.9c-.5,0,-.9,.5,-.9,1c0,.6,.4,1,.9,1c.6,0,1,-.4,1,-1c0,-.5,-.4,-1,-1,-1Z" class="gp_346"/>
<path d="M154.5,416.9c.8,0,1.4,.6,1.4,1.4c0,.8,-.6,1.5,-1.4,1.5c-.8,0,-1.5,-.7,-1.5,-1.5c0,-.8,.7,-1.4,1.5,-1.4Z" class="gq_346"/>
<path d="M154.5,420.2c-1.1,0,-1.9,-.8,-1.9,-1.9c0,-1,.8,-1.9,1.9,-1.9c1,0,1.9,.9,1.9,1.9c0,1.1,-.9,1.9,-1.9,1.9m0,-2.9c-.6,0,-1,.5,-1,1c0,.6,.4,1,1,1c.5,0,.9,-.4,.9,-1c0,-.5,-.4,-1,-.9,-1Z" class="gp_346"/>
<path d="M161.5,416.9c.8,0,1.4,.6,1.4,1.4c0,.8,-.6,1.5,-1.4,1.5c-.8,0,-1.5,-.7,-1.5,-1.5c0,-.8,.7,-1.4,1.5,-1.4Z" class="gq_346"/>
<path d="M161.5,420.2c-1.1,0,-1.9,-.8,-1.9,-1.9c0,-1,.8,-1.9,1.9,-1.9c1,0,1.9,.9,1.9,1.9c0,1.1,-.9,1.9,-1.9,1.9m0,-2.9c-.6,0,-1,.5,-1,1c0,.6,.4,1,1,1c.5,0,1,-.4,1,-1c0,-.5,-.5,-1,-1,-1Z" class="gp_346"/>
<path d="M163.4,431.5c0,-9.7,7.9,-17.6,17.6,-17.6c9.7,0,17.6,7.9,17.6,17.6c0,9.8,-7.9,17.7,-17.6,17.7c-.9,0,-1.9,-.1,-2.8,-.3l-5.3,6.1v-7.8c-5.6,-2.9,-9.5,-8.8,-9.5,-15.7Z" class="gr_346"/>
<path d="M172.9,455.5c0,0,-.1,0,-.1,0c-.2,-.1,-.3,-.3,-.3,-.5v-7.5c-5.9,-3.2,-9.6,-9.3,-9.6,-16c0,-9.9,8.2,-18,18.1,-18c10,0,18.1,8.1,18.1,18c0,10,-8.1,18.1,-18.1,18.1c-.8,0,-1.7,0,-2.6,-.2l-5.1,5.9c-.1,.1,-.2,.2,-.4,.2M181,414.4c-9.4,0,-17.1,7.7,-17.1,17.1c0,6.5,3.5,12.3,9.2,15.3c.2,.1,.3,.2,.3,.4v6.6l4.4,-5.2c.1,-.1,.3,-.1,.5,-.1c.9,.1,1.8,.2,2.7,.2c9.5,0,17.2,-7.7,17.2,-17.2c0,-9.4,-7.7,-17.1,-17.2,-17.1Z" class="gp_346"/>
<path d="M189.2,431.1c.9,0,1.7,.7,1.7,1.6c0,.9,-.8,1.7,-1.7,1.7c-.9,0,-1.7,-.8,-1.7,-1.7c0,-.9,.8,-1.6,1.7,-1.6Z" class="g1_346"/>
<path d="M189.2,434.8c-1.2,0,-2.1,-.9,-2.1,-2.1c0,-1.2,.9,-2.1,2.1,-2.1c1.2,0,2.1,.9,2.1,2.1c0,1.2,-.9,2.1,-2.1,2.1m0,-3.3c-.7,0,-1.2,.6,-1.2,1.2c0,.7,.5,1.2,1.2,1.2c.7,0,1.2,-.5,1.2,-1.2c0,-.6,-.5,-1.2,-1.2,-1.2Z" class="gp_346"/>
<path d="M181,431.1c.9,0,1.7,.7,1.7,1.6c0,.9,-.8,1.7,-1.7,1.7c-.9,0,-1.7,-.8,-1.7,-1.7c0,-.9,.8,-1.6,1.7,-1.6Z" class="g1_346"/>
<path d="M181,434.8c-1.2,0,-2.1,-.9,-2.1,-2.1c0,-1.2,.9,-2.1,2.1,-2.1c1.2,0,2.1,.9,2.1,2.1c0,1.2,-.9,2.1,-2.1,2.1m0,-3.3c-.7,0,-1.2,.6,-1.2,1.2c0,.7,.5,1.2,1.2,1.2c.7,0,1.2,-.5,1.2,-1.2c0,-.6,-.5,-1.2,-1.2,-1.2Z" class="gp_346"/>
<path d="M172.8,431.1c.9,0,1.7,.7,1.7,1.6c0,.9,-.8,1.7,-1.7,1.7c-.9,0,-1.7,-.8,-1.7,-1.7c0,-.9,.8,-1.6,1.7,-1.6Z" class="g1_346"/>
<path d="M172.8,434.8c-1.2,0,-2.1,-.9,-2.1,-2.1c0,-1.2,.9,-2.1,2.1,-2.1c1.2,0,2.1,.9,2.1,2.1c0,1.2,-.9,2.1,-2.1,2.1m0,-3.3c-.7,0,-1.2,.6,-1.2,1.2c0,.7,.5,1.2,1.2,1.2c.7,0,1.2,-.5,1.2,-1.2c0,-.6,-.5,-1.2,-1.2,-1.2Z" class="gp_346"/>
<image clip-path="url(#ci_346)" preserveAspectRatio="none" x="125" y="206" width="734" height="181" xlink:href="img/9.png"/>
<path d="M144.6,231.3c0,0,-13,0,-13,13v117c0,0,0,13,13,13H833.1c0,0,13,0,13,-13v-130Z" class="gs_346"/>
<path d="M147.7,294.1l54.1,40.8l54.1,-40.8V230h8.7V211.9H155.8c-6.5,.4,-7.7,3.9,-8.2,8.4Z" class="gt_346"/>
<path d="M274,220.3c-.3,-4.7,-4.2,-8.4,-9,-8.4c-4.8,0,-8.7,3.7,-9,8.4h-.1V230h18.2v-9.7Z" class="go_346"/>
<path d="M255.9,230.6H846.1" class="gu_346"/>
<path d="M32.1,45.1H9.2m958.3,0h22.9M32.1,1331.3H9.2m958.3,0h22.9M45.1,32.1V9.2m0,1335.1v22.9M954.5,32.1V9.2m0,1335.1v22.9" class="gv_346"/>
<path d="M32.1,45.1H9.2m958.3,0h22.9M32.1,1331.3H9.2m958.3,0h22.9M45.1,32.1V9.2m0,1335.1v22.9M954.5,32.1V9.2m0,1335.1v22.9" class="gw_346"/>
<path d="M27.5,32.1H0m972.1,0h27.5M27.5,1344.3H0m972.1,0h27.5M32.1,27.5V0m0,1348.9v27.5M967.5,27.5V0m0,1348.9v27.5" class="gv_346"/>
<path d="M27.5,32.1H0m972.1,0h27.5M27.5,1344.3H0m972.1,0h27.5M32.1,27.5V0m0,1348.9v27.5M967.5,27.5V0m0,1348.9v27.5" class="gw_346"/>
</svg>