<?xml version="1.0" encoding="UTF-8" standalone="no"?>
<!DOCTYPE svg PUBLIC "-//W3C//DTD SVG 1.1//EN"
"http://www.w3.org/Graphics/SVG/1.1/DTD/svg11.dtd">
<svg viewBox="0 0 999 1376" version="1.1" xmlns="http://www.w3.org/2000/svg" xmlns:xlink="http://www.w3.org/1999/xlink">
<defs>
<clipPath id="c0_132"><path d="M32.1,1344.3V32.1H967.5V1344.3Z"/></clipPath>
<clipPath id="c1_132"><path d="M187.6,1153.5V951.2h56.3v202.3Z"/></clipPath>
<clipPath id="c2_132"><path d="M187.6,1041.7V980.4h56.1v61.3Z"/></clipPath>
<clipPath id="c3_132"><path d="M187.6,980.4v-9.7h56.1v4.2c-.3,.9,-.5,1.7,-.5,2.7c0,.9,.2,1.8,.5,2.7v.1Z"/></clipPath>
<clipPath id="c4_132"><path d="M243.7,980.3c-.3,-.9,-.5,-1.8,-.5,-2.7c0,-1,.2,-1.8,.5,-2.7v5.4Z"/></clipPath>
<clipPath id="c5_132"><path d="M187.6,1145.7v-70.2h56.1v.1c-.3,.9,-.5,1.8,-.5,2.7c0,.9,.2,1.8,.5,2.7v64.7Z"/></clipPath>
<clipPath id="c6_132"><path d="M187.6,1075.5v-.8h56.1v.8Z"/></clipPath>
<clipPath id="c7_132"><path d="M243.7,1081c-.3,-.9,-.5,-1.8,-.5,-2.7c0,-.9,.2,-1.8,.5,-2.7v5.4Z"/></clipPath>
<clipPath id="c8_132"><path d="M513.2,1041.7v-71h53.1v71Z"/></clipPath>
<clipPath id="c9_132"><path d="M513.2,1145.7v-71h53.1v71Z"/></clipPath>
<clipPath id="ca_132"><path d="M513.2,1153.5V951.2h53.7v202.3Z"/></clipPath>
<clipPath id="cb_132"><path d="M256.4,944.7V871H309v73.7Z"/></clipPath>
<clipPath id="cc_132"><path d="M185.5,776.3L179,774.2l-16.4,-14V703.1h72v73.2Z"/></clipPath>
<clipPath id="cd_132"><path d="M178.4,137.2c.1,-1.3,.7,-2.5,1.6,-3.4c1,-1,2.4,-1.6,3.9,-1.6h19.2v5Z"/></clipPath>
<clipPath id="ce_132"><path d="M177.9,137.7v-6h25.7v6Z"/></clipPath>
<style type="text/css"><![CDATA[
.g0_132{
fill: #FEFCF4;
}
.g1_132{
fill: #FFF;
}
.g2_132{
fill: none;
stroke: #6381B7;
stroke-width: 0.763;
}
.g3_132{
fill: #48484A;
}
.g4_132{
fill: #F0E8F3;
}
.g5_132{
fill: #766FA6;
}
.g6_132{
fill: #949698;
}
.g7_132{
fill: none;
stroke: #949698;
stroke-width: 0.502;
}
.g8_132{
fill: none;
stroke: #231F20;
stroke-width: 0.305;
stroke-miterlimit: 10;
}
.g9_132{
fill: none;
stroke: #818385;
stroke-width: 0.458;
}
.ga_132{
fill: #FFF;
stroke: #818385;
stroke-width: 0.458;
}
.gb_132{
fill: #DEF1F3;
}
.gc_132{
fill: #8FD5E3;
}
.gd_132{
fill: none;
stroke: #58595B;
stroke-width: 0.381;
stroke-miterlimit: 10;
}
.ge_132{
fill: #6381B7;
}
.gf_132{
fill: none;
stroke: #6381B7;
stroke-width: 0.381;
stroke-dasharray: 2,1;
}
.gg_132{
fill: none;
stroke: #6381B7;
stroke-width: 0.381;
}
.gh_132{
fill: #FCE8B0;
}
.gi_132{
fill: #25408F;
}
.gj_132{
fill: none;
stroke: #231F20;
stroke-width: 1.527;
}
.gk_132{
fill: #39B4D1;
stroke: #2D2A4A;
stroke-width: 1.038;
stroke-linecap: round;
stroke-linejoin: round;
}
.gl_132{
fill: #2D2A4A;
}
.gm_132{
fill: none;
stroke: #2D2A4A;
stroke-width: 1.038;
stroke-linecap: round;
stroke-linejoin: round;
}
.gn_132{
fill: #DEDAD3;
}
.go_132{
fill: #29263F;
}
.gp_132{
fill: #E15F46;
stroke: #2D2A4A;
stroke-width: 1.038;
stroke-linecap: round;
stroke-linejoin: round;
}
.gq_132{
fill: none;
stroke: #FFF;
stroke-width: 1.909;
stroke-miterlimit: 10;
}
.gr_132{
fill: none;
stroke: #000;
stroke-width: 0.381;
stroke-miterlimit: 10;
}
]]></style>
</defs>
<path clip-path="url(#c0_132)" d="M954.5,1344.3H1877V32.1H954.5V1344.3Z" class="g0_132"/>
<path d="M140.5,789c0,0,-8.7,0,-8.7,10.7v361.6c0,0,0,10.7,8.7,10.7h697c0,0,8.6,0,8.6,-10.7V799.7c0,0,0,-10.7,-8.6,-10.7Z" class="g1_132"/>
<path d="M140.5,789c0,0,-8.7,0,-8.7,10.7v361.6c0,0,0,10.7,8.7,10.7h697c0,0,8.6,0,8.6,-10.7V799.7c0,0,0,-10.7,-8.6,-10.7h-697Z" class="g2_132"/>
<path d="M175.2,875.1c0,0,-4.3,0,-4.3,4.3v14.4c0,0,0,4.4,4.1,5.8l52.5,18.2c0,0,4,1.5,4,-2.9V879.4c0,0,0,-4.3,-4.3,-4.3Z" class="g3_132"/>
<path d="M196.4,862.3c0,0,-13,0,-13,13v63.5c0,0,0,12.9,13,12.9H794c0,0,13,0,13,-12.9V875.3c0,0,0,-13,-13,-13Z" class="g4_132"/>
<path d="M175.2,873c0,0,-4.3,0,-4.3,4.3v16.9c0,0,0,4.4,4.3,4.4h37.3c0,0,4.4,0,4.4,-4.4V877.3c0,0,0,-4.3,-4.4,-4.3Z" class="g5_132"/>
<g clip-path="url(#c1_132)">
<path d="M319.9,1078.3h.3c0,-2.6,-1.1,-5.1,-3.1,-7.3c-5.9,-6.6,-19.5,-11.2,-35.4,-11.2c-10.6,0,-20.2,2,-27.1,5.3c-3.5,1.7,-6.3,3.7,-8.3,5.9c-1.9,2.2,-3.1,4.7,-3.1,7.3c.1,3.8,2.4,7.3,6.4,10.2c3.9,2.9,9.5,5.2,16.1,6.6l.1,-.2l-.2,-.2c-2.5,1.8,-5.9,4,-8.6,4.3v.5c0,0,1.7,.3,4.3,.3c3.5,0,8.7,-.6,13,-3.4l-.2,-.2v.2c2.5,.3,5,.4,7.6,.4c10.6,0,20.2,-2,27.1,-5.4c3.5,-1.6,6.3,-3.6,8.3,-5.8c2,-2.3,3.1,-4.7,3.1,-7.3h-.5c0,2.4,-1.1,4.8,-3,6.9c-5.7,6.5,-19.2,11.1,-35,11.1c-2.6,0,-5.1,-.1,-7.5,-.4h-.1l-.1,.1c-4.2,2.7,-9.2,3.3,-12.7,3.3c-1.3,0,-2.3,-.1,-3.1,-.2c-.3,0,-.6,-.1,-.8,-.1c-.2,0,-.3,0,-.3,0v.5c2.9,-.4,6.3,-2.6,8.8,-4.4l.5,-.4l-.6,-.1c-6.5,-1.4,-12.1,-3.7,-15.9,-6.5c-3.9,-2.9,-6.2,-6.2,-6.2,-9.8c.1,-2.5,1.1,-4.8,3,-7c5.7,-6.4,19.2,-11,35,-11c10.5,0,20,2,26.9,5.3c3.4,1.6,6.2,3.6,8.1,5.7c1.9,2.2,3,4.5,3,7h.2Z" class="g6_132"/>
<path d="M319.9,977.6h.3c0,-2.6,-1.1,-5.1,-3.1,-7.3C311.2,963.6,297.6,959.1,281.7,959c-10.6,.1,-20.2,2.1,-27.1,5.4c-3.5,1.7,-6.3,3.7,-8.3,5.9c-1.9,2.2,-3.1,4.7,-3.1,7.3c.1,3.8,2.4,7.3,6.4,10.1c3.9,2.9,9.5,5.2,16.1,6.7l.1,-.2l-.2,-.3c-2.5,1.9,-5.9,4.1,-8.6,4.4v.5c0,0,1.7,.2,4.3,.2c3.5,0,8.7,-.5,13,-3.3l-.2,-.2v.2c2.5,.3,5,.4,7.6,.4c10.6,0,20.2,-2.1,27.1,-5.4c3.5,-1.7,6.3,-3.6,8.3,-5.9c2,-2.2,3.1,-4.6,3.1,-7.2h-.5c0,2.4,-1.1,4.8,-3,6.9c-5.7,6.5,-19.2,11.1,-35,11.1c-2.6,0,-5.1,-.1,-7.5,-.4h-.1l-.1,.1c-4.2,2.7,-9.2,3.2,-12.7,3.2c-1.3,0,-2.3,0,-3.1,-.1c-.3,0,-.6,-.1,-.8,-.1c-.2,0,-.3,0,-.3,0v.5c2.9,-.4,6.3,-2.6,8.8,-4.4l.5,-.4l-.6,-.1c-6.5,-1.4,-12.1,-3.7,-15.9,-6.6c-3.9,-2.8,-6.2,-6.2,-6.2,-9.7c.1,-2.5,1.1,-4.8,3,-7c5.7,-6.4,19.2,-11.1,35,-11c10.5,0,20,2,26.9,5.3c3.4,1.6,6.2,3.6,8.1,5.7c1.9,2.2,3,4.5,3,7h.2Z" class="g6_132"/>
</g>
<image clip-path="url(#c2_132)" preserveAspectRatio="none" x="185" y="980" width="59" height="62" xlink:href="img/1.jpg"/>
<image clip-path="url(#c3_132)" preserveAspectRatio="none" x="185" y="971" width="59" height="10" xlink:href="img/2.jpg"/>
<image clip-path="url(#c4_132)" preserveAspectRatio="none" x="243" y="974" width="1" height="7" xlink:href="img/3.jpg"/>
<image clip-path="url(#c5_132)" preserveAspectRatio="none" x="185" y="1075" width="59" height="71" xlink:href="img/4.jpg"/>
<image clip-path="url(#c6_132)" preserveAspectRatio="none" x="185" y="1075" width="59" height="1" xlink:href="img/5.jpg"/>
<image clip-path="url(#c7_132)" preserveAspectRatio="none" x="243" y="1075" width="1" height="6" xlink:href="img/6.jpg"/>
<image clip-path="url(#c8_132)" preserveAspectRatio="none" x="507" y="971" width="60" height="71" xlink:href="img/7.jpg"/>
<image clip-path="url(#c9_132)" preserveAspectRatio="none" x="507" y="1075" width="60" height="71" xlink:href="img/8.jpg"/>
<path clip-path="url(#ca_132)" d="M643.7,976.9c0,-10.1,-17.1,-18.3,-38.2,-18.3c-21.1,0,-38.2,8.2,-38.2,18.3c0,7.3,9.2,13.7,22.3,16.5c-2.5,1.9,-5.9,4.1,-8.7,4.4c0,0,9.8,1.7,17.1,-3c2.4,.2,4.9,.3,7.5,.3c21.1,0,38.2,-8.2,38.2,-18.2Zm0,100.4c0,-10.1,-17.1,-18.3,-38.2,-18.3c-21.1,0,-38.2,8.2,-38.2,18.3c0,7.3,9.2,13.7,22.3,16.5c-2.5,1.9,-5.9,4.1,-8.7,4.4c0,0,9.8,1.7,17.1,-3c2.4,.2,4.9,.3,7.5,.3c21.1,0,38.2,-8.2,38.2,-18.2Z" class="g7_132"/>
<path d="M172,852.8H796.5V834.5H172v18.3Z" class="g1_132"/>
<path d="M488.1,893.6H666.5" class="g8_132"/>
<path d="M350.4,911.3c21.4,0,38.7,-9.5,38.7,-21.4c0,-11.8,-17.3,-21.4,-38.7,-21.4c-21.4,0,-38.8,9.6,-38.8,21.4c0,11.9,17.4,21.4,38.8,21.4Z" class="g1_132"/>
<path d="M350.4,911.3c21.4,0,38.7,-9.5,38.7,-21.4c0,-11.8,-17.3,-21.4,-38.7,-21.4c-21.4,0,-38.8,9.6,-38.8,21.4c0,11.9,17.4,21.4,38.8,21.4Z" class="g9_132"/>
<path d="M328.2,906.8c0,0,-.8,3,-8.4,5.4c0,0,8.1,2.3,23.6,-2.9" class="ga_132"/>
<path d="M287.6,1003.1c25,0,45.2,-10.6,45.2,-23.6c0,-13,-20.2,-23.6,-45.2,-23.6c-25,0,-45.2,10.6,-45.2,23.6c0,13,20.2,23.6,45.2,23.6Z" class="g1_132"/>
<path d="M287.6,1003.1c25,0,45.2,-10.6,45.2,-23.6c0,-13,-20.2,-23.6,-45.2,-23.6c-25,0,-45.2,10.6,-45.2,23.6c0,13,20.2,23.6,45.2,23.6Z" class="g9_132"/>
<path d="M265.4,998.6c0,0,-.8,3,-8.4,5.4c0,0,8.1,2.2,23.6,-3" class="ga_132"/>
<path d="M614.1,1003.1c25,0,45.3,-10.6,45.3,-23.6c0,-13,-20.3,-23.6,-45.3,-23.6c-25,0,-45.2,10.6,-45.2,23.6c0,13,20.2,23.6,45.2,23.6Z" class="g1_132"/>
<path d="M614.1,1003.1c25,0,45.3,-10.6,45.3,-23.6c0,-13,-20.3,-23.6,-45.3,-23.6c-25,0,-45.2,10.6,-45.2,23.6c0,13,20.2,23.6,45.2,23.6Z" class="g9_132"/>
<path d="M591.9,998.6c0,0,-.7,3,-8.4,5.4c0,0,8.1,2.2,23.6,-3" class="ga_132"/>
<path d="M334.8,1040.3H442.2M334.8,1140.4H442.2M658.3,1040.3H765.7M658.3,1140.4H765.7" class="g8_132"/>
<path d="M614.1,1104.9c25,0,45.3,-10.6,45.3,-23.6c0,-13,-20.3,-23.6,-45.3,-23.6c-25,0,-45.2,10.6,-45.2,23.6c0,13,20.2,23.6,45.2,23.6Z" class="g1_132"/>
<path d="M614.1,1104.9c25,0,45.3,-10.6,45.3,-23.6c0,-13,-20.3,-23.6,-45.3,-23.6c-25,0,-45.2,10.6,-45.2,23.6c0,13,20.2,23.6,45.2,23.6Z" class="g9_132"/>
<path d="M591.9,1100.3c0,0,-.7,3.1,-8.4,5.4c0,0,8.1,2.3,23.6,-2.9" class="ga_132"/>
<path d="M287.6,1104.9c25,0,45.2,-10.6,45.2,-23.6c0,-13,-20.2,-23.6,-45.2,-23.6c-25,0,-45.2,10.6,-45.2,23.6c0,13,20.2,23.6,45.2,23.6Z" class="g1_132"/>
<path d="M287.6,1104.9c25,0,45.2,-10.6,45.2,-23.6c0,-13,-20.2,-23.6,-45.2,-23.6c-25,0,-45.2,10.6,-45.2,23.6c0,13,20.2,23.6,45.2,23.6Z" class="g9_132"/>
<path d="M265.4,1100.3c0,0,-.8,3.1,-8.4,5.4c0,0,8.1,2.3,23.6,-2.9" class="ga_132"/>
<image clip-path="url(#cb_132)" preserveAspectRatio="none" x="255" y="870" width="56" height="76" xlink:href="img/9.jpg"/>
<path d="M148.6,167.6c0,0,-17.3,0,-17.3,17.4V610c0,0,0,17.3,17.3,17.3H828.5c0,0,17.3,0,17.3,-17.3V185c0,0,0,-17.4,-17.3,-17.4Z" class="gb_132"/>
<path d="M176.7,241H384.6v24.5H176.7V241Zm207.9,0H592.5v24.5H384.6V241Zm207.9,0H800.3v24.5H592.5V241Z" class="gc_132"/>
<path d="M176.7,265.5H384.6v57.3H176.7V265.5Zm207.9,0H592.5v57.3H384.6V265.5Zm207.9,0H800.3v57.3H592.5V265.5ZM176.7,322.8H384.6v56.3H176.7V322.8Zm207.9,0H592.5v56.3H384.6V322.8Zm207.9,0H800.3v56.3H592.5V322.8Z" class="g1_132"/>
<path d="M176.7,241H384.6m0,0H592.5M384.6,265.3V241.2M592.5,241H800.3M592.5,265.3V241.2M176.7,265.5H384.6m0,0H592.5M384.6,322.6V265.7m207.9,-.2H800.3M592.5,322.6V265.7M176.7,322.8H384.6m0,0H592.5M384.6,378.9V323m207.9,-.2H800.3M592.5,378.9V323M176.7,379.1H384.6m0,0H592.5m0,0H800.3" class="gd_132"/>
<path d="M342,1191.3c0,0,-4.3,0,-4.3,4.3v10.9c0,0,0,4.3,4.3,4.3h30.3c0,0,4.4,0,4.4,-4.3v-10.9c0,0,0,-4.3,-4.4,-4.3Z" class="ge_132"/>
<path d="M328.8,1183.8v50.5m1.4,1H845.1m1,-1.3v-50.6m-1.4,-1H329.8" class="gf_132"/>
<path d="M328.8,1234.7v.6h.6m516.1,0h.6v-.6m0,-51.7v-.6h-.6m-516.1,0h-.6v.6" class="gg_132"/>
<path d="M218.2,731.3c0,0,-13,0,-13,13v21.6c0,0,0,13,13,13H832.8c0,0,13,0,13,-13V744.3c0,0,0,-13,-13,-13Z" class="gh_132"/>
<image clip-path="url(#cc_132)" preserveAspectRatio="none" x="161" y="702" width="75" height="76" xlink:href="img/10.png"/>
<path d="M212.9,771.6c0,0,-26.8,11.3,-51.1,-12.8c0,0,15.2,25.3,49.3,24c0,0,24.8,.3,20.3,-10.2c0,0,1.2,-4.4,-18.5,-1Z" class="gh_132"/>
<path d="M131.7,109.5v39l11.7,10.2V136.5Z" class="gi_132"/>
<path d="M131.7,109.5v39H829.5c0,0,16.8,0,16.8,-16.8v-5.4c0,0,0,-16.8,-16.8,-16.8Z" class="ge_132"/>
<path d="M768.8,131c0,0,-.5,-10,8.6,-9.4c0,0,6.7,-.3,6.6,9.5m-15.3,-1.5v6.5c0,0,-3.3,.3,-3.9,-3c0,0,-.1,-3.8,3.9,-3.5Zm15.4,0v6.5c0,0,3.3,.3,3.9,-3c0,0,.1,-3.8,-3.9,-3.5Z" class="gj_132"/>
<path d="M147.4,140.8h61v-32h-61v32Z" class="gk_132"/>
<path d="M147.4,143.1h61v-2.3h-61v2.3Z" class="gk_132"/>
<path d="M171.8,106.2H152.1v31.5h25.8V112.3c0,-3.4,-2.7,-6.1,-6.1,-6.1Z" class="g1_132"/>
<path d="M171.8,106.2v-.5H152.1c-.1,0,-.3,.1,-.4,.2c-.1,.1,-.1,.2,-.1,.3v31.5c0,.1,0,.3,.1,.4c.1,.1,.3,.1,.4,.1h25.8c.1,0,.2,0,.3,-.1c.1,-.1,.2,-.3,.2,-.4V112.3c0,-3.7,-2.9,-6.6,-6.6,-6.6v1c1.6,0,2.9,.7,3.9,1.7c1,1,1.6,2.3,1.6,3.9v24.9H152.6V106.7h19.2Z" class="gl_132"/>
<path d="M152.1,131.7v6h25.8c0,-3.3,-2.7,-6,-6.1,-6Z" class="g1_132"/>
<path d="M152.1,131.7h-.5v6c0,.1,0,.3,.1,.4c.1,.1,.3,.1,.4,.1h25.8c.1,0,.2,0,.3,-.1c.1,-.1,.2,-.3,.2,-.4c0,-3.6,-3,-6.6,-6.6,-6.6H152.1c-.1,0,-.3,.1,-.4,.2c-.1,.1,-.1,.2,-.1,.4h.5v.5h19.7c1.6,0,2.9,.6,3.9,1.6c1,1,1.6,2.4,1.6,3.9h.6v-.5H152.6v-5.5h-.5v.5Z" class="gl_132"/>
<path d="M155.6,110.9h17.2m-17.2,2.8h17.2m-17.2,2.9h17.2m-17.2,2.9h17.2m-17.2,2.8h17.2m-17.2,2.9h17.2M155.6,128h17.2" class="gm_132"/>
<path d="M171.8,132.2H152.6v5h24.7c-.1,-1.3,-.7,-2.5,-1.6,-3.4c-1,-1,-2.3,-1.6,-3.9,-1.6Z" class="gn_132"/>
<path d="M152.6,132.2h19.2c1.6,0,2.9,.6,3.9,1.6c.9,.9,1.5,2.1,1.6,3.4H152.6Zm19.2,-.5H152.1v6h25.2v-2.5c-.9,-2.1,-3,-3.5,-5.5,-3.5Z" class="go_132"/>
<path d="M183.9,106.2h19.7v31.5H177.9V112.3c0,-3.4,2.7,-6.1,6,-6.1Z" class="g1_132"/>
<path d="M183.9,106.2v.5h19.2v30.5H178.4V112.3c0,-1.6,.6,-2.9,1.6,-3.9c1,-1,2.4,-1.7,3.9,-1.7v-1c-3.6,0,-6.6,2.9,-6.6,6.6v25.4c0,.1,.1,.3,.2,.4c.1,.1,.2,.1,.4,.1h25.7c.2,0,.3,0,.4,-.1c.1,-.1,.1,-.3,.1,-.4V106.2c0,-.1,0,-.2,-.1,-.3c-.1,-.1,-.2,-.2,-.4,-.2H183.9Z" class="gl_132"/>
<path d="M203.6,131.7v6H177.9c0,-3.3,2.7,-6,6,-6Z" class="g1_132"/>
<path d="M203.6,131.7h-.5v5.5H177.9v.5h.5c0,-1.5,.6,-2.9,1.6,-3.9c1,-1,2.4,-1.6,3.9,-1.6h19.7v-.5h-.5h.5v-.6H183.9c-3.6,0,-6.6,3,-6.6,6.6c0,.1,.1,.3,.2,.4c.1,.1,.2,.1,.4,.1h25.7c.2,0,.3,0,.4,-.1c.1,-.1,.1,-.3,.1,-.4v-6c0,-.2,0,-.3,-.1,-.4c-.1,-.1,-.2,-.2,-.4,-.2Z" class="gl_132"/>
<path d="M200.1,110.9H182.9m17.2,2.8H182.9m17.2,2.9H182.9m17.2,2.9H182.9m17.2,2.8H182.9m17.2,2.9H182.9m17.2,2.8H182.9" class="gm_132"/>
<path clip-path="url(#cd_132)" d="M178.4,137.2h24.7v-5H178.4v5Z" class="gn_132"/>
<path clip-path="url(#ce_132)" d="M178.4,137.2c.1,-1.3,.7,-2.5,1.6,-3.4c1,-1,2.4,-1.6,3.9,-1.6h19.2v5Zm25.2,-5.5H183.9c-3.3,0,-6,2.7,-6,6h25.7v-6h-.5h.5Z" class="go_132"/>
<path d="M177.9,108.8v34.3" class="gm_132"/>
<path d="M195.5,145.5h3.3V134.7h-3.3v10.8Z" class="gp_132"/>
<path d="M32.1,45.1H9.2m958.3,0h22.9M32.1,1331.3H9.2m958.3,0h22.9M45.1,32.1V9.2m0,1335.1v22.9M954.5,32.1V9.2m0,1335.1v22.9" class="gq_132"/>
<path d="M32.1,45.1H9.2m958.3,0h22.9M32.1,1331.3H9.2m958.3,0h22.9M45.1,32.1V9.2m0,1335.1v22.9M954.5,32.1V9.2m0,1335.1v22.9" class="gr_132"/>
<path d="M27.5,32.1H0m972.1,0h27.5M27.5,1344.3H0m972.1,0h27.5M32.1,27.5V0m0,1348.9v27.5M967.5,27.5V0m0,1348.9v27.5" class="gq_132"/>
<path d="M27.5,32.1H0m972.1,0h27.5M27.5,1344.3H0m972.1,0h27.5M32.1,27.5V0m0,1348.9v27.5M967.5,27.5V0m0,1348.9v27.5" class="gr_132"/>
</svg>