<?xml version="1.0" encoding="UTF-8" standalone="no"?>
<!DOCTYPE svg PUBLIC "-//W3C//DTD SVG 1.1//EN"
"http://www.w3.org/Graphics/SVG/1.1/DTD/svg11.dtd">
<svg viewBox="0 0 999 1376" version="1.1" xmlns="http://www.w3.org/2000/svg" xmlns:xlink="http://www.w3.org/1999/xlink">
<defs>
<clipPath id="c0_263"><path d="M32.1,1344.3V32.1H967.5V1344.3Z"/></clipPath>
<clipPath id="c1_263"><path d="M198.7,797.8l-6.5,-2.1L175.8,781.8V724.7h72v73.1Z"/></clipPath>
<clipPath id="c2_263"><path d="M222.1,456.9V357.7h99.2v99.2Z"/></clipPath>
<clipPath id="c3_263"><path d="M549.3,456.9V357.7h99.2v99.2Z"/></clipPath>
<clipPath id="c4_263"><path d="M385.7,456.9V357.7h99.2v99.2Z"/></clipPath>
<clipPath id="c5_263"><path d="M712.9,456.9V357.7h99.2v99.2Z"/></clipPath>
<clipPath id="c6_263"><path d="M262.4,1116v-92.6H364.6V1116Z"/></clipPath>
<clipPath id="c7_263"><path d="M274.5,1220.7v-92.5h90.1v92.5Z"/></clipPath>
<clipPath id="c8_263"><path d="M567.3,1220.7v-92.5H673.1v92.5Z"/></clipPath>
<clipPath id="c9_263"><path d="M581.1,1116v-92.6h92V1116Z"/></clipPath>
<clipPath id="ca_263"><path d="M296.3,981c-21.7,0,-21.7,-21.7,-21.7,-21.7V908.7C274.6,887,296.3,887,296.3,887H401.9c21.7,0,21.7,21.7,21.7,21.7v50.6c0,21.7,-21.7,21.7,-21.7,21.7Z"/></clipPath>
<clipPath id="cb_263"><path d="M199.7,327.2l-6.5,-2.1l-16.4,-14V254h72v73.2Z"/></clipPath>
<clipPath id="cc_263"><path d="M658.6,177V59h200V177Z"/></clipPath>
<style type="text/css"><![CDATA[
.g0_263{
fill: #FEFCF4;
}
.g1_263{
fill: #FCE8B0;
}
.g2_263{
fill: #FFF;
}
.g3_263{
fill: none;
stroke: #6381B7;
stroke-width: 0.763;
}
.g4_263{
fill: #48484A;
}
.g5_263{
fill: #F0E8F3;
}
.g6_263{
fill: #766FA6;
}
.g7_263{
fill: none;
stroke: #949698;
stroke-width: 0.381;
}
.g8_263{
fill: none;
stroke: #231F20;
stroke-width: 0.305;
stroke-miterlimit: 10;
}
.g9_263{
fill: #2E6E51;
}
.ga_263{
fill: #BCBEC0;
}
.gb_263{
fill: #EE314A;
}
.gc_263{
fill: #25408F;
}
.gd_263{
fill: #6381B7;
}
.ge_263{
fill: #00BAF1;
}
.gf_263{
fill: #332D2C;
}
.gg_263{
fill: #D9DFF0;
}
.gh_263{
fill: #F27C85;
}
.gi_263{
fill: #7DD3F6;
}
.gj_263{
fill: none;
stroke: #FFF;
stroke-width: 1.909;
stroke-miterlimit: 10;
}
.gk_263{
fill: none;
stroke: #000;
stroke-width: 0.381;
stroke-miterlimit: 10;
}
]]></style>
</defs>
<path clip-path="url(#c0_263)" d="M-877.3,1344.3H45.1V32.1H-877.3V1344.3Z" class="g0_263"/>
<path d="M45.1,1344.3H967.5V32.1H45.1V1344.3Z" class="g0_263"/>
<path d="M231.3,752.9c0,0,-13,0,-13,12.9v21.7c0,0,0,13,13,13H854.9c0,0,13,0,13,-13V765.8c0,0,0,-12.9,-13,-12.9Z" class="g1_263"/>
<image clip-path="url(#c1_263)" preserveAspectRatio="none" x="174" y="723" width="75" height="76" xlink:href="img/1.png"/>
<path d="M226.1,793.1c0,0,-26.9,11.3,-51.1,-12.7c0,0,15.1,25.3,49.3,23.9c0,0,24.7,.4,20.2,-10.1c0,0,1.3,-4.4,-18.4,-1.1Z" class="g1_263"/>
<path d="M166.5,814.9c0,0,-13,0,-13,13v394.7c0,0,0,13,13,13h688c0,0,13,0,13,-13V827.9c0,0,0,-13,-13,-13Z" class="g2_263"/>
<path d="M166.5,814.9c0,0,-13,0,-13,13v394.7c0,0,0,13,13,13h688c0,0,13,0,13,-13V827.9c0,0,0,-13,-13,-13h-688Z" class="g3_263"/>
<path d="M192.3,875.4c0,0,-4.3,0,-4.3,4.3v14.4c0,0,0,4.3,4.1,5.8l52.4,18.2c0,0,4.1,1.4,4.1,-2.9V879.7c0,0,0,-4.3,-4.3,-4.3Z" class="g4_263"/>
<path d="M213.5,862.6c0,0,-13,0,-13,13V992.4c0,0,0,13,13,13H828.4c0,0,13,0,13,-13V875.6c0,0,0,-13,-13,-13Z" class="g5_263"/>
<path d="M192.3,873.3c0,0,-4.3,0,-4.3,4.3v16.9c0,0,0,4.4,4.3,4.4h37.3c0,0,4.3,0,4.3,-4.4V877.6c0,0,0,-4.3,-4.3,-4.3Z" class="g6_263"/>
<path d="M173.1,224.6c0,0,-18.4,0,-18.4,18.4V681.9c0,0,0,18.3,18.4,18.3H850.2c0,0,18.3,0,18.3,-18.3V224.6Z" class="g2_263"/>
<path d="M173.1,224.6c0,0,-18.4,0,-18.4,18.4V681.9c0,0,0,18.3,18.4,18.3H850.2c0,0,18.3,0,18.3,-18.3V224.6H173.1Z" class="g3_263"/>
<path d="M211.5,456.9H332V357.7H211.5v99.2Z" class="g2_263"/>
<image clip-path="url(#c2_263)" preserveAspectRatio="none" x="222" y="358" width="99" height="99" xlink:href="img/2.jpg"/>
<path d="M211.5,456.9H332V357.7H211.5v99.2Z" class="g7_263"/>
<path d="M538.7,456.9H659.2V357.7H538.7v99.2Z" class="g2_263"/>
<image clip-path="url(#c3_263)" preserveAspectRatio="none" x="549" y="358" width="100" height="99" xlink:href="img/3.jpg"/>
<path d="M538.7,456.9H659.2V357.7H538.7v99.2Z" class="g7_263"/>
<path d="M375.1,456.9H495.6V357.7H375.1v99.2Z" class="g2_263"/>
<image clip-path="url(#c4_263)" preserveAspectRatio="none" x="386" y="358" width="99" height="99" xlink:href="img/4.jpg"/>
<path d="M375.1,456.9H495.6V357.7H375.1v99.2Z" class="g7_263"/>
<path d="M702.3,456.9H822.8V357.7H702.3v99.2Z" class="g2_263"/>
<image clip-path="url(#c5_263)" preserveAspectRatio="none" x="713" y="358" width="99" height="99" xlink:href="img/5.jpg"/>
<path d="M702.3,456.9H822.8V357.7H702.3v99.2Z" class="g7_263"/>
<path d="M211.5,632.2H332V533H211.5v99.2Z" class="g2_263"/>
<image preserveAspectRatio="none" x="222" y="533" width="99" height="99" xlink:href="img/6.jpg"/>
<path d="M211.5,632.2H332V533H211.5v99.2Z" class="g7_263"/>
<path d="M375.1,632.2H495.6V533H375.1v99.2Z" class="g2_263"/>
<image preserveAspectRatio="none" x="386" y="533" width="99" height="99" xlink:href="img/7.jpg"/>
<path d="M375.1,632.2H495.6V533H375.1v99.2Z" class="g7_263"/>
<path d="M538.7,632.2H659.2V533H538.7v99.2Z" class="g2_263"/>
<image preserveAspectRatio="none" x="549" y="533" width="100" height="99" xlink:href="img/8.jpg"/>
<path d="M538.7,632.2H659.2V533H538.7v99.2Z" class="g7_263"/>
<path d="M702.3,632.2H822.8V533H702.3v99.2Z" class="g2_263"/>
<image preserveAspectRatio="none" x="713" y="533" width="99" height="99" xlink:href="img/9.jpg"/>
<path d="M702.3,632.2H822.8V533H702.3v99.2Z" class="g7_263"/>
<image clip-path="url(#c6_263)" preserveAspectRatio="none" x="261" y="1022" width="105" height="96" xlink:href="img/10.png"/>
<image clip-path="url(#c7_263)" preserveAspectRatio="none" x="273" y="1126" width="93" height="96" xlink:href="img/11.png"/>
<image clip-path="url(#c8_263)" preserveAspectRatio="none" x="566" y="1127" width="109" height="95" xlink:href="img/12.png"/>
<image clip-path="url(#c9_263)" preserveAspectRatio="none" x="579" y="1022" width="96" height="96" xlink:href="img/13.png"/>
<path d="M463.2,956.9h38" class="g8_263"/>
<image clip-path="url(#ca_263)" preserveAspectRatio="none" x="273" y="885" width="152" height="98" xlink:href="img/14.jpg"/>
<path d="M232.3,282.2c0,0,-13,0,-13,13v21.6c0,0,0,13,13,13h602c0,0,13,0,13,-13V295.2c0,0,0,-13,-13,-13Z" class="g1_263"/>
<image clip-path="url(#cb_263)" preserveAspectRatio="none" x="175" y="252" width="75" height="77" xlink:href="img/15.png"/>
<path d="M227.1,322.4c0,0,-26.9,11.4,-51.1,-12.7c0,0,15.1,25.3,49.3,24c0,0,24.7,.3,20.2,-10.2c0,0,1.3,-4.4,-18.4,-1.1Z" class="g1_263"/>
<path d="M32.1,179.3H967.5V32.1H32.1V179.3Z" class="g9_263"/>
<g clip-path="url(#c0_263)">
<path d="M967.5,177.2H-877.3v-5.4h736.6c43.1,0,53.1,-37.9,115.3,-37.9H967.5Z" class="ga_263"/>
<path d="M967.5,183.7H-877.3v-9.8h736.6c43.1,0,53.1,-33.6,115.3,-33.6H967.5Z" class="gb_263"/>
</g>
<image clip-path="url(#cc_263)" preserveAspectRatio="none" x="659" y="59" width="200" height="118" xlink:href="img/16.png"/>
<path d="M153.3,217.5v22.2L165,250V227.8Z" class="gc_263"/>
<path d="M153.3,200.7v39H851.1c0,0,16.8,0,16.8,-16.8v-5.4c0,0,0,-16.8,-16.8,-16.8Z" class="gd_263"/>
<path d="M211.3,212.1l-6.5,-6.4l-21.2,21.2l6.5,6.4Z" class="ge_263"/>
<path d="M190.1,233.9c.1,0,.3,-.1,.4,-.2l21.2,-21.2c.1,-.1,.1,-.2,.1,-.4c0,-.1,0,-.2,-.1,-.3l-6.5,-6.5c-.2,-.2,-.6,-.2,-.8,0l-21.2,21.2c-.1,.1,-.1,.2,-.1,.4c0,.1,0,.2,.1,.3l6.5,6.5c.1,.1,.3,.2,.4,.2m20.5,-21.8l-20.5,20.5l-5.8,-5.7l20.5,-20.5Z" class="gf_263"/>
<path d="M211.3,212.1l-6.5,-6.4l2.1,-2.2l6.5,6.5Z" class="gg_263"/>
<path d="M211.3,212.7c.1,0,.3,-.1,.4,-.2l2.1,-2.1c.1,-.1,.2,-.2,.2,-.4c0,-.1,-.1,-.3,-.2,-.4l-6.5,-6.4c-.2,-.3,-.5,-.3,-.7,0l-2.2,2.1c-.1,.1,-.1,.2,-.1,.4c0,.1,0,.2,.1,.3l6.5,6.5c.1,.1,.3,.2,.4,.2m1.4,-2.7l-1.4,1.4l-5.7,-5.7l1.3,-1.4Z" class="gf_263"/>
<path d="M217,206.4l-6.4,-6.5l-3.7,3.6l6.5,6.5Z" class="gh_263"/>
<path d="M213.4,210.5c.2,0,.3,0,.4,-.1l3.6,-3.6c.2,-.2,.2,-.6,0,-.8l-6.5,-6.5c-.2,-.2,-.5,-.2,-.7,0l-3.6,3.7c-.2,.2,-.2,.5,0,.7l6.5,6.5c.1,.1,.2,.1,.3,.1m2.9,-4.1l-2.9,2.9l-5.7,-5.8l2.9,-2.8Z" class="gf_263"/>
<path d="M179,238l4.6,-11.1l6.5,6.4Z" class="g2_263"/>
<path d="M179,238.5c0,0,.1,0,.2,0l11.1,-4.7c.2,0,.3,-.2,.3,-.4c0,-.1,0,-.3,-.1,-.4L184,226.5c-.1,-.1,-.3,-.2,-.5,-.1c-.2,0,-.3,.1,-.4,.3l-4.6,11.1c-.1,.2,0,.4,.1,.6c.1,.1,.2,.1,.4,.1m10.2,-5.3l-9.3,3.8l3.9,-9.2Z" class="gf_263"/>
<path d="M179,238l2.2,-5.4l3.1,3.1Z" class="gf_263"/>
<path d="M179,238.5c0,0,.1,0,.2,0l5.3,-2.3c.2,0,.3,-.2,.4,-.4c0,-.1,-.1,-.3,-.2,-.4l-3.1,-3.2c-.1,-.1,-.3,-.1,-.5,-.1c-.2,0,-.3,.2,-.4,.3l-2.2,5.4c-.1,.2,0,.4,.1,.6c.1,.1,.2,.1,.4,.1m4.4,-2.9l-3.5,1.4l1.5,-3.5Z" class="gf_263"/>
<path d="M209.5,210.4l-2.9,-3l-21.2,21.2l2.9,3Z" class="gi_263"/>
<path d="M188.3,232.1c.2,0,.3,0,.4,-.1l21.2,-21.2c.1,-.1,.2,-.3,.2,-.4c0,-.2,-.1,-.3,-.2,-.4l-3,-3c-.2,-.2,-.5,-.2,-.7,0L185,228.3c-.1,.1,-.2,.2,-.2,.3c0,.2,.1,.3,.2,.4l3,3c.1,.1,.2,.1,.3,.1m20.5,-21.7l-20.5,20.4l-2.2,-2.2l20.5,-20.4Z" class="gf_263"/>
<path d="M32.1,45.1H9.2m958.3,0h22.9M32.1,1331.3H9.2m958.3,0h22.9M45.1,32.1V9.2m0,1335.1v22.9M954.5,32.1V9.2m0,1335.1v22.9" class="gj_263"/>
<path d="M32.1,45.1H9.2m958.3,0h22.9M32.1,1331.3H9.2m958.3,0h22.9M45.1,32.1V9.2m0,1335.1v22.9M954.5,32.1V9.2m0,1335.1v22.9" class="gk_263"/>
<path d="M27.5,32.1H0m972.1,0h27.5M27.5,1344.3H0m972.1,0h27.5M32.1,27.5V0m0,1348.9v27.5M967.5,27.5V0m0,1348.9v27.5" class="gj_263"/>
<path d="M27.5,32.1H0m972.1,0h27.5M27.5,1344.3H0m972.1,0h27.5M32.1,27.5V0m0,1348.9v27.5M967.5,27.5V0m0,1348.9v27.5" class="gk_263"/>
</svg>