<?xml version="1.0" encoding="UTF-8" standalone="no"?>
<!DOCTYPE svg PUBLIC "-//W3C//DTD SVG 1.1//EN"
"http://www.w3.org/Graphics/SVG/1.1/DTD/svg11.dtd">
<svg viewBox="0 0 999 1376" version="1.1" xmlns="http://www.w3.org/2000/svg" xmlns:xlink="http://www.w3.org/1999/xlink">
<defs>
<clipPath id="c0_323"><path d="M754.3,808.5l-.6,-2.1l5.9,-1.7l.6,2.1l-5.9,1.7Z"/></clipPath>
<clipPath id="c1_323"><path d="M752.7,802.9l-.6,-2.1l5.9,-1.7l.6,2.1l-5.9,1.7Z"/></clipPath>
<clipPath id="c2_323"><path d="M751.1,797.4l-.6,-2.1l5.9,-1.7l.6,2.1l-5.9,1.7Z"/></clipPath>
<clipPath id="c3_323"><path d="M749.5,791.8l-.6,-2.1l5.9,-1.7l.6,2.1l-5.9,1.7Z"/></clipPath>
<clipPath id="c4_323"><path d="M747.9,786.3l-.6,-2.1l5.9,-1.7l.6,2.1l-5.9,1.7Z"/></clipPath>
<clipPath id="c5_323"><path d="M746.3,780.7l-.6,-2.1l5.9,-1.7l.6,2.1l-5.9,1.7Z"/></clipPath>
<clipPath id="c6_323"><path d="M744.7,775.2l-.6,-2.1l5.9,-1.7l.6,2.1l-5.9,1.7Z"/></clipPath>
<clipPath id="c7_323"><path d="M743.1,769.6l-.6,-2.1l5.9,-1.7l.6,2.1l-5.9,1.7Z"/></clipPath>
<clipPath id="c8_323"><path d="M741.5,764.1l-.6,-2.1l6,-1.7l.6,2.1l-6,1.7Z"/></clipPath>
<clipPath id="c9_323"><path d="M739.9,758.5l-.6,-2.1l6,-1.7l.6,2.1l-6,1.7Z"/></clipPath>
<clipPath id="ca_323"><path d="M738.3,753l-.6,-2.1l6,-1.7l.6,2.1l-6,1.7Z"/></clipPath>
<clipPath id="cb_323"><path d="M735.2,741.9l-.6,-2.1l5.9,-1.7l.6,2.1l-5.9,1.7Z"/></clipPath>
<clipPath id="cc_323"><path d="M736.8,747.5l-.7,-2.2l6,-1.7l.6,2.1l-5.9,1.8Z"/></clipPath>
<clipPath id="cd_323"><path d="M753.7,808.5v-3.8h6.5v3.8Z"/></clipPath>
<clipPath id="ce_323"><path d="M754.4,808.2c-.1,0,-.2,0,-.3,-.1c0,-.2,0,-.3,.2,-.4c.9,-.3,1.8,-.7,2.7,-.9c.9,-.3,1.8,-.5,2.8,-.6c0,0,0,-.1,0,-.1c.1,0,.3,.1,.3,.3c0,.1,-.1,.2,-.3,.3c-1.8,.3,-3.6,.8,-5.3,1.5q-.1,0,-.1,0Z"/></clipPath>
<clipPath id="cf_323"><path d="M754.4,808.1q-.1,0,-.1,-.1c-.1,-.1,0,-.2,.1,-.2c.8,-.4,1.6,-.6,2.4,-.9l.4,-.1c.8,-.2,1.6,-.4,2.5,-.5c.1,0,.2,0,.2,.1c.1,.1,-.1,.2,-.2,.2c-1.8,.3,-3.5,.8,-5.2,1.5c0,0,-.1,0,-.1,0Z"/></clipPath>
<clipPath id="cg_323"><path d="M754.6,807.9c-.1,-.1,0,-.1,.1,-.2c.8,-.3,1.5,-.6,2.3,-.8c.8,-.2,1.6,-.4,2.4,-.5h.1q.1,0,.1,0c0,.1,-.1,.1,-.2,.1c-1.6,.3,-3.1,.7,-4.6,1.4q-.1,0,-.2,0Z"/></clipPath>
<clipPath id="ch_323"><path d="M754,806.8c-.1,0,-.2,-.1,-.3,-.2c0,-.1,0,-.3,.2,-.3c.9,-.4,1.8,-.7,2.7,-1c.9,-.2,1.8,-.4,2.8,-.6c.1,0,.2,.1,.3,.2c0,.2,-.1,.3,-.3,.3c-1.9,.3,-3.6,.8,-5.3,1.5q-.1,.1,-.1,.1Z"/></clipPath>
<clipPath id="ci_323"><path d="M754,806.6q-.1,0,-.2,0c0,-.1,.1,-.2,.2,-.3c.9,-.3,1.7,-.6,2.6,-.9c.9,-.2,1.7,-.4,2.6,-.6q.1,0,.1,0c.1,0,.2,.1,.2,.1c0,.1,-.1,.2,-.2,.2c-1.8,.3,-3.5,.8,-5.2,1.5c0,0,-.1,0,-.1,0Z"/></clipPath>
<clipPath id="cj_323"><path d="M754.2,806.4c0,0,-.1,0,-.1,0c0,0,.1,-.1,.2,-.1c.7,-.3,1.4,-.6,2.1,-.8l.4,-.1c.7,-.2,1.4,-.3,2.2,-.5h.1c0,0,.1,.1,.1,.1c0,0,-.1,.1,-.2,.1c-1.6,.2,-3.2,.7,-4.6,1.3c-.1,0,-.2,0,-.2,0Z"/></clipPath>
<clipPath id="ck_323"><path d="M752.1,802.9v-3.8h6.5v3.8Z"/></clipPath>
<clipPath id="cl_323"><path d="M752.8,802.7c-.1,0,-.2,-.1,-.3,-.2c0,-.1,0,-.3,.2,-.3c.8,-.4,1.7,-.7,2.5,-.9l.3,-.1c.9,-.2,1.8,-.4,2.7,-.6c.1,0,.3,.1,.3,.2c0,.2,-.1,.3,-.2,.3c-1.9,.3,-3.6,.8,-5.4,1.5c0,.1,-.1,.1,-.1,.1Z"/></clipPath>
<clipPath id="cm_323"><path d="M752.8,802.5q-.1,0,-.1,0c-.1,-.1,0,-.2,.1,-.3c.9,-.3,1.7,-.6,2.6,-.9c.9,-.2,1.8,-.4,2.7,-.6c.1,0,.2,.1,.2,.1c.1,.1,0,.2,-.2,.2c-1.8,.3,-3.4,.8,-5.1,1.5q-.1,0,-.2,0Z"/></clipPath>
<clipPath id="cn_323"><path d="M753,802.4c0,0,0,-.1,0,-.1c0,0,0,-.1,.1,-.1c.8,-.3,1.6,-.6,2.3,-.8c.8,-.2,1.6,-.4,2.4,-.5c0,-.1,.1,-.1,.1,-.1c.1,0,.1,.1,.1,.1c0,0,-.1,.1,-.2,.1c-1.6,.2,-3.1,.7,-4.6,1.3c-.1,0,-.1,.1,-.2,.1Z"/></clipPath>
<clipPath id="co_323"><path d="M752.4,801.2c-.1,0,-.2,0,-.3,-.1c0,-.2,0,-.3,.2,-.4c.8,-.3,1.7,-.6,2.5,-.9l.3,-.1c.9,-.2,1.7,-.4,2.7,-.6c.1,0,.2,.1,.3,.3c0,.1,-.1,.2,-.3,.3c-1.8,.3,-3.6,.8,-5.3,1.5q-.1,0,-.1,0Z"/></clipPath>
<clipPath id="cp_323"><path d="M752.4,801.1q-.1,0,-.2,-.1c0,-.1,.1,-.2,.2,-.2c.9,-.4,1.7,-.7,2.6,-.9c.9,-.3,1.7,-.5,2.7,-.6c.1,0,.2,0,.2,.1c0,.1,-.1,.1,-.2,.2c-1.8,.3,-3.5,.8,-5.2,1.4c0,.1,-.1,.1,-.1,.1Z"/></clipPath>
<clipPath id="cq_323"><path d="M752.6,800.9h-.1c0,-.1,.1,-.1,.2,-.2c.7,-.3,1.5,-.5,2.2,-.8h.2c.8,-.2,1.5,-.4,2.3,-.5h.1c0,0,.1,0,.1,0c0,.1,-.1,.1,-.2,.1c-1.6,.3,-3.1,.7,-4.6,1.3c-.1,.1,-.2,.1,-.2,.1Z"/></clipPath>
<clipPath id="cr_323"><path d="M750.5,797.4v-3.8H757v3.8Z"/></clipPath>
<clipPath id="cs_323"><path d="M751.2,797.1c-.1,0,-.2,0,-.2,-.1c-.1,-.2,0,-.3,.1,-.4c.9,-.3,1.7,-.6,2.6,-.9h.2c.9,-.3,1.8,-.5,2.7,-.6c0,0,0,-.1,0,-.1c.2,0,.3,.1,.3,.3c0,.1,-.1,.2,-.2,.3c-1.9,.3,-3.6,.8,-5.4,1.5c0,0,-.1,0,-.1,0Z"/></clipPath>
<clipPath id="ct_323"><path d="M751.2,797c0,0,-.1,0,-.1,-.1c-.1,-.1,0,-.2,.1,-.2c.9,-.4,1.8,-.7,2.6,-.9c.9,-.3,1.8,-.5,2.7,-.6q.2,0,.3,.1c0,.1,-.1,.2,-.3,.2c-1.8,.3,-3.4,.8,-5.1,1.5q-.1,0,-.2,0Z"/></clipPath>
<clipPath id="cu_323"><path d="M751.4,796.8c0,0,0,-.1,.2,-.2c.7,-.3,1.4,-.5,2.2,-.8h.1c.7,-.2,1.5,-.4,2.3,-.5c0,0,.1,0,.1,0q.1,0,.1,0c0,.1,-.1,.1,-.2,.1c-1.6,.3,-3.1,.7,-4.6,1.4q-.1,0,-.2,0Z"/></clipPath>
<clipPath id="cv_323"><path d="M750.8,795.7c-.1,0,-.2,-.1,-.3,-.2c0,-.1,0,-.3,.2,-.3c.8,-.4,1.7,-.7,2.6,-.9l.2,-.1c.9,-.3,1.8,-.5,2.7,-.6c.1,0,.3,.1,.3,.2c0,.2,-.1,.3,-.3,.3c-1.8,.3,-3.6,.8,-5.3,1.5q-.1,.1,-.1,.1Z"/></clipPath>
<clipPath id="cw_323"><path d="M750.8,795.5q-.1,0,-.1,0c-.1,-.1,0,-.2,.1,-.3c.9,-.3,1.7,-.6,2.6,-.9c.9,-.2,1.7,-.4,2.7,-.6c.1,0,.2,.1,.2,.1c0,.1,-.1,.2,-.2,.2c-1.8,.3,-3.5,.8,-5.2,1.5c0,0,-.1,0,-.1,0Z"/></clipPath>
<clipPath id="cx_323"><path d="M751,795.3c-.1,0,0,-.1,.1,-.1c.8,-.3,1.5,-.6,2.3,-.8c.8,-.3,1.6,-.4,2.4,-.6h.1c.1,0,.1,.1,.1,.1c0,0,-.1,.1,-.2,.1c-1.6,.2,-3.1,.7,-4.6,1.3q-.1,0,-.2,0Z"/></clipPath>
<clipPath id="cy_323"><path d="M748.9,791.8V788h6.5v3.8Z"/></clipPath>
<clipPath id="cz_323"><path d="M749.6,791.6c-.1,0,-.2,-.1,-.2,-.2c-.1,-.1,0,-.3,.1,-.3c.9,-.4,1.8,-.7,2.7,-1c.9,-.2,1.8,-.4,2.8,-.6c.2,0,.3,.1,.3,.2c0,.2,-.1,.3,-.2,.3c-1.9,.3,-3.6,.8,-5.4,1.5c0,.1,-.1,.1,-.1,.1Z"/></clipPath>
<clipPath id="c10_323"><path d="M749.6,791.4c0,0,-.1,0,-.1,0c-.1,-.1,0,-.2,.2,-.3c.8,-.3,1.6,-.6,2.4,-.8l.3,-.1c.8,-.2,1.6,-.4,2.5,-.6c.2,0,.3,.1,.3,.1c0,.1,-.1,.2,-.3,.2c-1.8,.3,-3.4,.8,-5.1,1.5q-.1,0,-.2,0Z"/></clipPath>
<clipPath id="c11_323"><path d="M749.8,791.3c0,0,0,-.1,0,-.1c0,0,0,-.1,.2,-.1c.7,-.3,1.4,-.6,2.1,-.8l.2,-.1c.8,-.2,1.5,-.3,2.3,-.4c0,-.1,.1,-.1,.1,-.1c.1,0,.1,.1,.1,.1c0,0,-.1,.1,-.2,.1c-1.6,.2,-3.1,.7,-4.6,1.3c-.1,0,-.1,.1,-.2,.1Z"/></clipPath>
<clipPath id="c12_323"><path d="M749.2,790.1c-.1,0,-.2,0,-.3,-.1c0,-.2,0,-.3,.2,-.4c.9,-.3,1.7,-.6,2.6,-.9h.2c.8,-.3,1.7,-.5,2.7,-.7c.1,0,.3,.1,.3,.3c0,.1,-.1,.2,-.3,.3c-1.8,.3,-3.5,.8,-5.3,1.5c0,0,-.1,0,-.1,0Z"/></clipPath>
<clipPath id="c13_323"><path d="M749.2,790q-.1,0,-.1,-.1c-.1,-.1,0,-.2,.1,-.2c.9,-.4,1.7,-.7,2.5,-.9l.2,-.1c.9,-.2,1.7,-.4,2.6,-.5c.1,0,.2,0,.2,.1c.1,.1,0,.1,-.2,.2c-1.8,.3,-3.4,.8,-5.1,1.4q-.1,.1,-.2,.1Z"/></clipPath>
<clipPath id="c14_323"><path d="M749.4,789.8q0,-.1,.1,-.2c.8,-.3,1.5,-.6,2.3,-.8c.8,-.2,1.6,-.4,2.4,-.5c0,0,.1,0,.1,0q.1,0,.1,0c0,.1,-.1,.1,-.2,.1c-1.6,.3,-3.1,.7,-4.6,1.4q-.1,0,-.2,0Z"/></clipPath>
<clipPath id="c15_323"><path d="M747.3,786.3v-3.8h6.5v3.8Z"/></clipPath>
<clipPath id="c16_323"><path d="M748,786c-.1,0,-.2,0,-.2,-.1c-.1,-.2,0,-.3,.1,-.4c.9,-.3,1.7,-.6,2.6,-.9h.2c.9,-.3,1.8,-.5,2.7,-.6c.2,0,.3,0,.3,.2c0,.1,-.1,.2,-.2,.3c-1.9,.3,-3.6,.8,-5.4,1.5c0,0,-.1,0,-.1,0Z"/></clipPath>
<clipPath id="c17_323"><path d="M748,785.9c0,0,-.1,0,-.1,-.1c0,-.1,0,-.2,.2,-.2c.8,-.4,1.6,-.6,2.4,-.9l.3,-.1c.8,-.2,1.6,-.4,2.5,-.5h.1c.1,0,.2,0,.2,.1c0,.1,-.1,.2,-.3,.2c-1.8,.3,-3.4,.8,-5.1,1.5q-.1,0,-.2,0Z"/></clipPath>
<clipPath id="c18_323"><path d="M748.2,785.7c0,-.1,.1,-.1,.2,-.2c.7,-.3,1.4,-.5,2.2,-.8h.1c.8,-.2,1.5,-.4,2.3,-.5c0,0,.1,0,.1,0q.1,0,.1,0q0,.1,-.2,.1c-1.5,.3,-3.1,.7,-4.6,1.4c0,0,-.1,0,-.2,0Z"/></clipPath>
<clipPath id="c19_323"><path d="M747.6,784.6c-.1,0,-.2,-.1,-.2,-.2c-.1,-.1,0,-.3,.1,-.3c.9,-.4,1.7,-.7,2.6,-1h.1c.9,-.2,1.8,-.4,2.8,-.6c.2,0,.3,.1,.3,.2c0,.2,-.1,.3,-.2,.3c-1.9,.3,-3.6,.8,-5.4,1.5c0,.1,-.1,.1,-.1,.1Z"/></clipPath>
<clipPath id="c1a_323"><path d="M747.6,784.4q-.1,0,-.1,0c-.1,-.1,0,-.2,.1,-.3c.9,-.3,1.8,-.6,2.6,-.9c.9,-.2,1.8,-.4,2.7,-.6c.2,0,.2,.1,.3,.1c0,.1,-.1,.2,-.3,.2c-1.8,.3,-3.4,.8,-5.1,1.5q-.1,0,-.2,0Z"/></clipPath>
<clipPath id="c1b_323"><path d="M747.8,784.2c0,0,0,-.1,.2,-.1c.7,-.3,1.5,-.6,2.2,-.8c.8,-.3,1.6,-.4,2.4,-.6c0,0,.1,0,.1,0c.1,0,.1,.1,.1,.1c0,0,-.1,.1,-.2,.1c-1.6,.2,-3.1,.7,-4.6,1.3q-.1,0,-.2,0Z"/></clipPath>
<clipPath id="c1c_323"><path d="M745.7,780.7v-3.8h6.5v3.8Z"/></clipPath>
<clipPath id="c1d_323"><path d="M746.4,780.5c-.1,0,-.2,-.1,-.2,-.2c-.1,-.1,0,-.3,.1,-.3c.9,-.4,1.7,-.7,2.6,-.9l.2,-.1c.9,-.2,1.8,-.4,2.7,-.6h.1c.1,0,.2,.1,.2,.2c0,.2,-.1,.3,-.2,.3c-1.9,.3,-3.6,.8,-5.4,1.6h-.1Z"/></clipPath>
<clipPath id="c1e_323"><path d="M746.4,780.3c0,0,-.1,0,-.1,0c0,-.1,0,-.2,.2,-.3c.8,-.3,1.7,-.6,2.5,-.9c.9,-.2,1.8,-.4,2.7,-.6h.1c.1,0,.2,.1,.2,.1c0,.1,-.1,.2,-.2,.2c-1.8,.3,-3.5,.8,-5.2,1.5q-.1,0,-.2,0Z"/></clipPath>
<clipPath id="c1f_323"><path d="M746.7,780.2q-.1,0,-.1,-.1c0,0,.1,-.1,.2,-.1c.7,-.3,1.5,-.6,2.3,-.8c.7,-.2,1.5,-.4,2.3,-.5q.1,-.1,.1,-.1c.1,0,.1,.1,.2,.1c0,0,-.1,.1,-.3,.1c-1.5,.2,-3.1,.7,-4.6,1.3c0,0,-.1,.1,-.1,.1Z"/></clipPath>
<clipPath id="c1g_323"><path d="M746,779c-.1,0,-.2,0,-.2,-.1c-.1,-.2,0,-.3,.1,-.4c.9,-.3,1.7,-.6,2.6,-.9l.2,-.1c.9,-.2,1.8,-.4,2.7,-.6c.2,0,.3,.1,.3,.3c0,.1,-.1,.2,-.2,.3c-1.9,.3,-3.6,.8,-5.4,1.5c0,0,-.1,0,-.1,0Z"/></clipPath>
<clipPath id="c1h_323"><path d="M746,778.9c0,0,-.1,0,-.1,-.1c-.1,-.1,0,-.2,.1,-.2c.9,-.4,1.8,-.7,2.6,-.9c.9,-.3,1.8,-.5,2.7,-.6c.2,0,.3,0,.3,.1c0,.1,-.1,.1,-.3,.2c-1.8,.3,-3.4,.8,-5.1,1.4q-.1,.1,-.2,.1Z"/></clipPath>
<clipPath id="c1i_323"><path d="M746.2,778.7q0,-.1,.2,-.2c.7,-.3,1.5,-.6,2.2,-.8c.8,-.2,1.6,-.4,2.4,-.5c0,0,.1,0,.1,0q.1,0,.1,0c0,.1,-.1,.1,-.2,.1c-1.6,.3,-3.1,.7,-4.6,1.3q-.1,.1,-.2,.1Z"/></clipPath>
<clipPath id="c1j_323"><path d="M744.1,775.2v-3.8h6.5v3.8Z"/></clipPath>
<clipPath id="c1k_323"><path d="M744.8,774.9c-.1,0,-.2,0,-.2,-.1c-.1,-.2,0,-.3,.1,-.4c.9,-.3,1.8,-.7,2.7,-.9c.9,-.3,1.9,-.5,2.8,-.6h.1c.1,0,.2,0,.2,.2c0,.1,-.1,.2,-.2,.3c-1.9,.3,-3.6,.8,-5.4,1.5h-.1Z"/></clipPath>
<clipPath id="c1l_323"><path d="M744.9,774.8c-.1,0,-.2,0,-.2,-.1c0,-.1,0,-.2,.2,-.2c.8,-.4,1.7,-.7,2.6,-.9c.8,-.3,1.7,-.5,2.6,-.6c0,0,.1,0,.1,0c.1,0,.2,0,.2,.1c0,.1,-.1,.2,-.2,.2c-1.8,.3,-3.5,.8,-5.2,1.5c0,0,-.1,0,-.1,0Z"/></clipPath>
<clipPath id="c1m_323"><path d="M745.1,774.6q-.1,0,-.1,0c0,0,.1,-.1,.2,-.2c.7,-.3,1.5,-.6,2.3,-.8c.7,-.2,1.5,-.4,2.3,-.5q.1,0,.1,0c.1,0,.2,0,.2,0c0,.1,-.1,.1,-.3,.1c-1.5,.3,-3.1,.7,-4.6,1.4c0,0,-.1,0,-.1,0Z"/></clipPath>
<clipPath id="c1n_323"><path d="M744.4,773.5c-.1,0,-.2,-.1,-.2,-.2c-.1,-.1,0,-.3,.1,-.3c.9,-.4,1.7,-.7,2.6,-.9l.2,-.1c.9,-.2,1.8,-.4,2.7,-.6c.2,0,.3,.1,.3,.2c0,.2,-.1,.3,-.2,.3c-1.9,.3,-3.6,.8,-5.4,1.5c0,.1,-.1,.1,-.1,.1Z"/></clipPath>
<clipPath id="c1o_323"><path d="M744.4,773.3c0,0,-.1,0,-.1,0c0,-.1,0,-.2,.2,-.3c.8,-.3,1.6,-.6,2.4,-.8l.3,-.1c.8,-.3,1.6,-.4,2.5,-.6h.1c.1,0,.2,.1,.2,.1c0,.1,-.1,.2,-.3,.2c-1.8,.3,-3.4,.8,-5.1,1.5q-.1,0,-.2,0Z"/></clipPath>
<clipPath id="c1p_323"><path d="M744.6,773.1c0,0,.1,-.1,.2,-.1c.7,-.3,1.4,-.6,2.1,-.8l.3,-.1c.7,-.2,1.5,-.3,2.2,-.5c0,0,.1,0,.1,0c.1,0,.1,.1,.1,.1c0,0,0,.1,-.2,.1c-1.5,.2,-3.1,.7,-4.6,1.3c0,0,-.1,0,-.2,0Z"/></clipPath>
<clipPath id="c1q_323"><path d="M742.5,769.6v-3.8h6.6v3.8Z"/></clipPath>
<clipPath id="c1r_323"><path d="M743.2,769.4c-.1,0,-.2,-.1,-.2,-.2c-.1,-.1,0,-.3,.1,-.3c.9,-.4,1.7,-.7,2.6,-.9l.2,-.1c.9,-.2,1.8,-.4,2.7,-.6c0,0,.1,0,.1,0c.1,0,.2,.1,.2,.2c0,.2,-.1,.3,-.2,.3c-1.9,.3,-3.6,.8,-5.4,1.6h-.1Z"/></clipPath>
<clipPath id="c1s_323"><path d="M743.3,769.2c-.1,0,-.2,0,-.2,0c0,-.1,.1,-.2,.2,-.3c.8,-.3,1.7,-.6,2.6,-.9c.8,-.2,1.7,-.4,2.6,-.6c0,0,.1,0,.1,0c.1,0,.2,.1,.2,.1c0,.1,-.1,.2,-.2,.2c-1.8,.3,-3.5,.8,-5.2,1.5c0,0,-.1,0,-.1,0Z"/></clipPath>
<clipPath id="c1t_323"><path d="M743.5,769.1q-.1,0,-.1,-.1c0,0,.1,-.1,.2,-.1c.7,-.3,1.5,-.6,2.2,-.8h.1c.8,-.2,1.6,-.4,2.3,-.5q.1,-.1,.1,-.1c.1,0,.2,.1,.2,.1c0,0,-.1,.1,-.2,.1c-1.6,.2,-3.2,.7,-4.6,1.3c-.1,0,-.2,.1,-.2,.1Z"/></clipPath>
<clipPath id="c1u_323"><path d="M742.8,767.9c-.1,0,-.2,0,-.2,-.1c-.1,-.2,0,-.3,.1,-.4c.9,-.3,1.7,-.6,2.6,-.9l.3,-.1c.8,-.2,1.7,-.4,2.6,-.6h.1c.1,0,.2,.1,.2,.3c0,.1,-.1,.2,-.2,.3c-1.9,.3,-3.6,.8,-5.4,1.5h-.1Z"/></clipPath>
<clipPath id="c1v_323"><path d="M742.8,767.8c0,0,-.1,0,-.1,-.1c0,-.1,0,-.2,.2,-.2c.8,-.4,1.7,-.7,2.5,-.9c.9,-.3,1.8,-.5,2.7,-.6h.1c.1,0,.2,0,.2,.1c0,.1,-.1,.1,-.2,.2c-1.9,.3,-3.5,.8,-5.2,1.4q-.1,.1,-.2,.1Z"/></clipPath>
<clipPath id="c1w_323"><path d="M743.1,767.6q-.1,0,-.1,0c0,-.1,.1,-.1,.2,-.2c.7,-.3,1.5,-.6,2.2,-.8h.1c.8,-.2,1.5,-.4,2.3,-.5q.1,0,.1,0c.1,0,.2,0,.2,0c0,.1,-.1,.1,-.3,.1c-1.5,.3,-3.1,.7,-4.6,1.3c0,.1,-.1,.1,-.1,.1Z"/></clipPath>
<clipPath id="c1x_323"><path d="M740.9,764.1v-3.8h6.6v3.8Z"/></clipPath>
<clipPath id="c1y_323"><path d="M741.6,763.8q-.1,0,-.2,-.1c-.1,-.1,0,-.3,.1,-.4c.9,-.3,1.8,-.7,2.7,-.9c1,-.3,1.9,-.5,2.8,-.6q.1,0,.1,0c.1,0,.2,.1,.2,.2c.1,.1,0,.2,-.2,.3c-1.9,.3,-3.6,.8,-5.3,1.5q-.1,0,-.2,0Z"/></clipPath>
<clipPath id="c1z_323"><path d="M741.7,763.7c-.1,0,-.2,0,-.2,-.1c0,-.1,.1,-.2,.2,-.2c.9,-.4,1.7,-.7,2.6,-.9c.8,-.3,1.7,-.5,2.6,-.6q.1,0,.1,0c.1,0,.2,0,.2,.1c0,.1,-.1,.2,-.2,.2c-1.8,.3,-3.5,.8,-5.2,1.5c0,0,-.1,0,-.1,0Z"/></clipPath>
<clipPath id="c20_323"><path d="M741.9,763.5c0,0,-.1,0,-.1,0c0,0,.1,-.1,.2,-.2c.7,-.3,1.4,-.5,2.1,-.7l.4,-.1c.7,-.2,1.4,-.4,2.1,-.5q.1,0,.1,0c.1,0,.2,0,.2,0c0,.1,-.1,.1,-.2,.1c-1.6,.3,-3.2,.7,-4.6,1.4c-.1,0,-.2,0,-.2,0Z"/></clipPath>
<clipPath id="c21_323"><path d="M741.2,762.4c-.1,0,-.2,-.1,-.2,-.2c-.1,-.1,0,-.3,.1,-.3c.9,-.4,1.8,-.7,2.7,-1h.1c.9,-.2,1.8,-.4,2.7,-.6h.1c.1,0,.2,.1,.2,.2c0,.2,-.1,.3,-.2,.3c-1.9,.3,-3.6,.8,-5.4,1.5q0,.1,-.1,.1Z"/></clipPath>
<clipPath id="c22_323"><path d="M741.3,762.2c-.1,0,-.2,0,-.2,0c0,-.1,0,-.2,.2,-.3c.8,-.3,1.7,-.6,2.6,-.9c.8,-.2,1.7,-.4,2.6,-.6c0,0,.1,0,.1,0c.1,0,.2,.1,.2,.1c0,.1,-.1,.2,-.2,.2c-1.8,.3,-3.5,.8,-5.2,1.5q-.1,0,-.1,0Z"/></clipPath>
<clipPath id="c23_323"><path d="M741.5,762q-.1,0,-.1,0c0,0,.1,-.1,.2,-.1c.7,-.3,1.5,-.6,2.3,-.8c.7,-.3,1.5,-.4,2.3,-.6q.1,0,.1,0c.1,0,.2,.1,.2,.1c0,0,-.1,.1,-.3,.1c-1.5,.2,-3.1,.7,-4.6,1.3c0,0,-.1,0,-.1,0Z"/></clipPath>
<clipPath id="c24_323"><path d="M739.3,758.5v-3.8h6.6v3.8Z"/></clipPath>
<clipPath id="c25_323"><path d="M740.1,758.3c-.1,0,-.2,-.1,-.3,-.2c0,-.1,0,-.3,.2,-.3c.9,-.4,1.8,-.7,2.7,-1c.9,-.2,1.8,-.4,2.8,-.6c.1,0,.2,.1,.2,.2c.1,.2,0,.3,-.2,.3c-1.9,.3,-3.6,.8,-5.3,1.6q-.1,0,-.1,0Z"/></clipPath>
<clipPath id="c26_323"><path d="M740.1,758.1q-.1,0,-.2,0c0,-.1,.1,-.2,.2,-.3c.8,-.3,1.6,-.6,2.5,-.8l.2,-.1c.8,-.2,1.7,-.4,2.5,-.6q.1,0,.1,0c.1,0,.2,.1,.2,.1c0,.1,-.1,.2,-.2,.2c-1.8,.3,-3.5,.8,-5.2,1.5c0,0,-.1,0,-.1,0Z"/></clipPath>
<clipPath id="c27_323"><path d="M740.3,758c0,0,-.1,0,-.1,-.1c0,0,.1,-.1,.2,-.1c.8,-.3,1.5,-.6,2.3,-.8c.8,-.2,1.6,-.4,2.4,-.5q0,-.1,.1,-.1c0,0,.1,.1,.1,.1c0,0,-.1,.1,-.2,.1c-1.6,.2,-3.2,.7,-4.6,1.3c-.1,0,-.2,.1,-.2,.1Z"/></clipPath>
<clipPath id="c28_323"><path d="M739.6,756.8c-.1,0,-.2,0,-.2,-.1c-.1,-.2,0,-.3,.1,-.4c.9,-.3,1.8,-.6,2.6,-.9h.2c.9,-.3,1.8,-.5,2.7,-.7c0,0,.1,0,.1,0c.1,0,.2,.1,.2,.3c0,.1,-.1,.2,-.2,.3c-1.9,.3,-3.6,.8,-5.4,1.5h-.1Z"/></clipPath>
<clipPath id="c29_323"><path d="M739.7,756.7c-.1,0,-.2,0,-.2,-.1c0,-.1,.1,-.2,.2,-.2c.8,-.4,1.7,-.7,2.6,-.9c.8,-.3,1.7,-.5,2.6,-.6c0,0,.1,0,.1,0c.1,0,.2,0,.2,.1c0,.1,-.1,.2,-.2,.2c-1.8,.3,-3.5,.8,-5.2,1.4c0,.1,-.1,.1,-.1,.1Z"/></clipPath>
<clipPath id="c2a_323"><path d="M739.9,756.5q-.1,0,-.1,0c0,-.1,.1,-.1,.2,-.2c.7,-.3,1.4,-.5,2.1,-.7l.3,-.1c.8,-.2,1.5,-.4,2.2,-.5q.1,0,.1,0c.1,0,.2,0,.2,0c0,.1,-.1,.1,-.2,.1c-1.6,.3,-3.2,.7,-4.6,1.4c-.1,0,-.2,0,-.2,0Z"/></clipPath>
<clipPath id="c2b_323"><path d="M737.7,753v-3.8h6.6V753Z"/></clipPath>
<clipPath id="c2c_323"><path d="M738.5,752.7c-.1,0,-.2,0,-.3,-.1c0,-.1,0,-.3,.2,-.4c.8,-.3,1.6,-.6,2.5,-.9l.3,-.1c.9,-.2,1.8,-.4,2.7,-.5c.1,0,.2,.1,.3,.2c0,.1,-.1,.2,-.3,.3c-1.9,.3,-3.6,.8,-5.3,1.5q-.1,0,-.1,0Z"/></clipPath>
<clipPath id="c2d_323"><path d="M738.5,752.6q-.1,0,-.2,-.1c0,-.1,.1,-.2,.2,-.2c.9,-.4,1.7,-.7,2.6,-.9c.9,-.3,1.7,-.5,2.7,-.6c.1,0,.2,0,.2,.1c0,.1,-.1,.2,-.2,.2c-1.8,.3,-3.5,.8,-5.2,1.5c0,0,-.1,0,-.1,0Z"/></clipPath>
<clipPath id="c2e_323"><path d="M738.7,752.4h-.1c0,0,.1,-.1,.2,-.2c.8,-.3,1.5,-.5,2.3,-.8c.8,-.2,1.6,-.4,2.4,-.5h.1c0,0,.1,0,.1,0c0,.1,-.1,.1,-.2,.1c-1.6,.3,-3.1,.7,-4.6,1.4c-.1,0,-.2,0,-.2,0Z"/></clipPath>
<clipPath id="c2f_323"><path d="M738,751.3c-.1,0,-.1,-.1,-.2,-.2c-.1,-.1,0,-.3,.1,-.3c.9,-.4,1.8,-.7,2.6,-.9l.3,-.1c.9,-.3,1.7,-.4,2.6,-.6q.1,0,.1,0c.1,0,.2,.1,.2,.2c.1,.2,0,.3,-.2,.3c-1.9,.3,-3.6,.8,-5.3,1.5q-.1,.1,-.2,.1Z"/></clipPath>
<clipPath id="c2g_323"><path d="M738.1,751.1c-.1,0,-.2,0,-.2,0c0,-.1,.1,-.2,.2,-.3c.8,-.3,1.7,-.6,2.5,-.9h.1c.9,-.2,1.7,-.4,2.6,-.6q.1,0,.1,0c.1,0,.2,.1,.2,.1c0,.1,-.1,.2,-.2,.2c-1.8,.3,-3.5,.8,-5.2,1.5c0,0,-.1,0,-.1,0Z"/></clipPath>
<clipPath id="c2h_323"><path d="M738.3,750.9c0,0,-.1,0,-.1,0c0,0,.1,-.1,.2,-.1c.7,-.3,1.5,-.6,2.3,-.8c.8,-.2,1.5,-.4,2.3,-.6q.1,0,.2,0c0,0,.1,.1,.1,.1c0,0,-.1,.1,-.2,.1c-1.6,.2,-3.2,.7,-4.6,1.3c-.1,0,-.2,0,-.2,0Z"/></clipPath>
<clipPath id="c2i_323"><path d="M734.6,741.9v-3.8h6.5v3.8Z"/></clipPath>
<clipPath id="c2j_323"><path d="M735.3,741.6c-.1,0,-.2,0,-.3,-.1c0,-.1,0,-.3,.2,-.4c.9,-.3,1.8,-.6,2.7,-.9c.9,-.3,1.8,-.5,2.8,-.6c.1,0,.3,.1,.3,.2c0,.1,-.1,.2,-.3,.3c-1.8,.3,-3.6,.8,-5.3,1.5c0,0,-.1,0,-.1,0Z"/></clipPath>
<clipPath id="c2k_323"><path d="M735.3,741.5q-.1,0,-.1,-.1c-.1,-.1,0,-.2,.1,-.2c.8,-.3,1.6,-.6,2.4,-.9l.4,-.1c.8,-.2,1.6,-.4,2.5,-.5c.1,0,.2,0,.2,.1c.1,.1,0,.2,-.2,.2c-1.8,.3,-3.5,.8,-5.1,1.5q-.1,0,-.2,0Z"/></clipPath>
<clipPath id="c2l_323"><path d="M735.5,741.3c0,0,0,-.1,.1,-.2c.8,-.3,1.5,-.5,2.3,-.8c.8,-.2,1.6,-.4,2.4,-.5c0,0,.1,0,.1,0q.1,0,.1,0c0,.1,-.1,.1,-.2,.1c-1.6,.3,-3.1,.7,-4.6,1.4q-.1,0,-.2,0Z"/></clipPath>
<clipPath id="c2m_323"><path d="M734.9,740.2c-.1,0,-.2,-.1,-.3,-.2c0,-.1,0,-.3,.2,-.3c.9,-.4,1.8,-.7,2.7,-1c.9,-.2,1.8,-.4,2.8,-.6c.1,0,.2,.1,.3,.2c0,.2,-.1,.3,-.3,.3c-1.8,.3,-3.6,.8,-5.3,1.5q-.1,.1,-.1,.1Z"/></clipPath>
<clipPath id="c2n_323"><path d="M734.9,740q-.1,0,-.2,0c0,-.1,.1,-.2,.2,-.3c.8,-.3,1.6,-.6,2.4,-.8l.4,-.1c.8,-.2,1.6,-.4,2.5,-.6c.1,0,.2,.1,.2,.1c0,.1,-.1,.2,-.2,.2c-1.8,.3,-3.5,.8,-5.2,1.5c0,0,-.1,0,-.1,0Z"/></clipPath>
<clipPath id="c2o_323"><path d="M735.1,739.8H735c0,0,.1,-.1,.2,-.1c.8,-.3,1.5,-.6,2.3,-.8c.8,-.3,1.6,-.4,2.4,-.6h.1c0,0,.1,.1,.1,.1c0,0,-.1,.1,-.2,.1c-1.6,.2,-3.1,.7,-4.6,1.3c-.1,0,-.2,0,-.2,0Z"/></clipPath>
<clipPath id="c2p_323"><path d="M736.1,747.5v-3.9h6.6v3.9Z"/></clipPath>
<clipPath id="c2q_323"><path d="M736.9,747.2c-.1,0,-.2,-.1,-.3,-.2c0,-.1,0,-.3,.2,-.3c.9,-.4,1.8,-.7,2.7,-1c.9,-.2,1.8,-.4,2.8,-.6c.1,0,.2,.1,.3,.2c0,.2,-.1,.3,-.3,.3c-1.8,.3,-3.6,.8,-5.3,1.6q-.1,0,-.1,0Z"/></clipPath>
<clipPath id="c2r_323"><path d="M736.9,747q-.1,0,-.1,0c-.1,-.1,0,-.2,.1,-.3c.8,-.3,1.6,-.6,2.4,-.8l.4,-.1c.8,-.2,1.6,-.4,2.5,-.6c.1,0,.2,.1,.2,.1c0,.1,-.1,.2,-.2,.2c-1.8,.3,-3.5,.8,-5.2,1.5c0,0,-.1,0,-.1,0Z"/></clipPath>
<clipPath id="c2s_323"><path d="M737.1,746.9v-.1c-.1,0,0,-.1,.1,-.1c.7,-.3,1.4,-.6,2.2,-.8l.3,-.1c.7,-.2,1.4,-.3,2.2,-.4c0,0,0,-.1,.1,-.1c0,0,.1,.1,.1,.1c0,0,-.1,.1,-.2,.1c-1.6,.2,-3.1,.7,-4.6,1.3c-.1,0,-.1,.1,-.2,.1Z"/></clipPath>
<clipPath id="c2t_323"><path d="M736.5,745.7c-.1,0,-.2,0,-.3,-.1c0,-.2,0,-.3,.1,-.4c1,-.3,1.8,-.7,2.8,-.9c.9,-.3,1.8,-.5,2.7,-.7q.1,0,.1,0c.1,0,.2,.1,.2,.3c.1,.1,0,.2,-.2,.3c-1.9,.3,-3.6,.8,-5.3,1.5q-.1,0,-.1,0Z"/></clipPath>
<clipPath id="c2u_323"><path d="M736.5,745.6q-.1,0,-.2,-.1c0,-.1,.1,-.2,.2,-.2c.8,-.4,1.6,-.6,2.4,-.9l.3,-.1c.9,-.2,1.7,-.4,2.5,-.5q.1,0,.1,0c.1,0,.2,0,.2,.1c0,.1,-.1,.2,-.2,.2c-1.8,.3,-3.5,.8,-5.2,1.5c0,0,-.1,0,-.1,0Z"/></clipPath>
<clipPath id="c2v_323"><path d="M736.7,745.4c0,0,-.1,0,-.1,0c0,-.1,.1,-.1,.2,-.2c.7,-.3,1.5,-.5,2.2,-.7l.2,-.1c.7,-.2,1.5,-.4,2.3,-.5h.1c0,0,.1,0,.1,0c0,.1,-.1,.1,-.2,.1c-1.6,.3,-3.2,.7,-4.6,1.4c-.1,0,-.2,0,-.2,0Z"/></clipPath>
<clipPath id="c2w_323"><path d="M695.9,837L670.1,747.2L800.5,709.8l25.8,89.9L695.9,837Z"/></clipPath>
<clipPath id="c2x_323"><path d="M32.1,1344.3V32.1H967.5V1344.3Z"/></clipPath>
<clipPath id="c2y_323"><path d="M198.7,326.4l-6.5,-2.2L175.8,310.3V253.2h72v73.2Z"/></clipPath>
<clipPath id="c2z_323"><path d="M658.6,177V59h200V177Z"/></clipPath>
<style type="text/css"><![CDATA[
.g0_323{
fill: #FEFCF4;
}
.g1_323{
fill: #FFF;
}
.g2_323{
fill: none;
stroke: #6381B7;
stroke-width: 0.763;
}
.g3_323{
fill: none;
stroke: #949698;
stroke-width: 0.381;
}
.g4_323{
fill: #7F8083;
}
.g5_323{
fill: #77BBBC;
}
.g6_323{
fill: none;
stroke: #77BBBC;
stroke-width: 0.256;
stroke-miterlimit: 10;
}
.g7_323{
fill: #FCE8B0;
}
.g8_323{
fill: none;
stroke: #00ABE5;
stroke-width: 2.291;
}
.g9_323{
fill: #3D3B39;
}
.ga_323{
fill: #E5E9B7;
}
.gb_323{
fill: #61C7CB;
}
.gc_323{
fill: none;
stroke: #00ABE5;
stroke-width: 1.527;
stroke-linecap: round;
stroke-linejoin: round;
stroke-dasharray: 0,5;
}
.gd_323{
fill: none;
stroke: #00ABE5;
stroke-width: 1.527;
stroke-linecap: round;
stroke-linejoin: round;
}
.ge_323{
fill: #2E6E51;
}
.gf_323{
fill: #BCBEC0;
}
.gg_323{
fill: #EE314A;
}
.gh_323{
fill: #25408F;
}
.gi_323{
fill: #6381B7;
}
.gj_323{
fill: #00BAF1;
}
.gk_323{
fill: #332D2C;
}
.gl_323{
fill: #D9DFF0;
}
.gm_323{
fill: #F27C85;
}
.gn_323{
fill: #7DD3F6;
}
.go_323{
fill: none;
stroke: #FFF;
stroke-width: 1.909;
stroke-miterlimit: 10;
}
.gp_323{
fill: none;
stroke: #000;
stroke-width: 0.381;
stroke-miterlimit: 10;
}
]]></style>
</defs>
<path clip-path="url(#c2x_323)" d="M-877.3,1343.2H45.1V32.1H-877.3V1343.2Z" class="g0_323"/>
<path d="M45.1,1344.3H967.5V32.1H45.1V1344.3Z" class="g0_323"/>
<path d="M172.6,224.6c0,0,-18.4,0,-18.4,18.4V852.2c0,0,0,18.4,18.4,18.4H849.7c0,0,18.3,0,18.3,-18.4V224.6Z" class="g1_323"/>
<path d="M172.6,224.6c0,0,-18.4,0,-18.4,18.4V852.2c0,0,0,18.4,18.4,18.4H849.7c0,0,18.3,0,18.3,-18.4V224.6H172.6Z" class="g2_323"/>
<path d="M213.4,449.8H333.9V350.6H213.4v99.2Z" class="g1_323"/>
<image preserveAspectRatio="none" x="224" y="351" width="99" height="99" xlink:href="img/1.jpg"/>
<path d="M213.4,449.8H333.9V350.6H213.4v99.2Z" class="g3_323"/>
<path d="M540.6,449.8H661.1V350.6H540.6v99.2Z" class="g1_323"/>
<image preserveAspectRatio="none" x="551" y="351" width="99" height="99" xlink:href="img/2.jpg"/>
<path d="M540.6,449.8H661.1V350.6H540.6v99.2Z" class="g3_323"/>
<path d="M377,449.8H497.5V350.6H377v99.2Z" class="g1_323"/>
<image preserveAspectRatio="none" x="388" y="351" width="99" height="99" xlink:href="img/3.jpg"/>
<path d="M377,449.8H497.5V350.6H377v99.2Z" class="g3_323"/>
<path d="M704.2,449.8H824.7V350.6H704.2v99.2Z" class="g1_323"/>
<image preserveAspectRatio="none" x="715" y="351" width="99" height="99" xlink:href="img/4.jpg"/>
<path d="M704.2,449.8H824.7V350.6H704.2v99.2Z" class="g3_323"/>
<path d="M213.4,623.1H333.9V523.9H213.4v99.2Z" class="g1_323"/>
<image preserveAspectRatio="none" x="224" y="524" width="99" height="99" xlink:href="img/5.jpg"/>
<path d="M213.4,623.1H333.9V523.9H213.4v99.2Z" class="g3_323"/>
<path d="M377,623.1H497.5V523.9H377v99.2Z" class="g1_323"/>
<image preserveAspectRatio="none" x="388" y="524" width="99" height="99" xlink:href="img/6.jpg"/>
<path d="M377,623.1H497.5V523.9H377v99.2Z" class="g3_323"/>
<path d="M540.6,623.1H661.1V523.9H540.6v99.2Z" class="g1_323"/>
<image preserveAspectRatio="none" x="551" y="524" width="99" height="99" xlink:href="img/7.jpg"/>
<path d="M540.6,623.1H661.1V523.9H540.6v99.2Z" class="g3_323"/>
<path d="M704.2,623.1H824.7V523.9H704.2v99.2Z" class="g1_323"/>
<image preserveAspectRatio="none" x="715" y="524" width="99" height="99" xlink:href="img/8.jpg"/>
<path d="M704.2,623.1H824.7V523.9H704.2v99.2Z" class="g3_323"/>
<path d="M213.4,793.2H333.9V694H213.4v99.2Z" class="g1_323"/>
<image preserveAspectRatio="none" x="224" y="694" width="99" height="99" xlink:href="img/9.jpg"/>
<path d="M213.4,793.2H333.9V694H213.4v99.2Z" class="g3_323"/>
<path d="M377,793.2H497.5V694H377v99.2Z" class="g1_323"/>
<image preserveAspectRatio="none" x="388" y="694" width="99" height="99" xlink:href="img/10.jpg"/>
<path d="M377,793.2H497.5V694H377v99.2Z" class="g3_323"/>
<path d="M670.1,747.2L695.9,837L826.3,799.7L800.5,709.8Z" class="g1_323"/>
<g clip-path="url(#c2w_323)">
<g clip-path="url(#cd_323)" opacity="0.3" style="mix-blend-mode: multiply;">
<g clip-path="url(#c0_323)">
<path d="M754,806.8c1.9,-.3,3.7,-.8,5.5,-1.6c.1,0,.2,-.2,.1,-.3c0,-.1,-.2,-.2,-.3,-.1c-1.8,.7,-3.5,1.2,-5.4,1.5c-.1,0,-.2,.1,-.2,.3c0,.1,.2,.2,.3,.2Z" class="g4_323"/>
<path d="M759.7,806.2c-1.7,.8,-3.5,1.2,-5.3,1.6c-.2,0,-.3,.1,-.3,.3c0,.1,.2,.2,.3,.2c2,-.4,3.7,-.9,5.5,-1.6c.2,-.1,.2,-.2,.2,-.3c-.1,-.2,-.3,-.2,-.4,-.2Z" class="g4_323"/>
</g>
</g>
<image clip-path="url(#ce_323)" x="753" y="805" width="8" height="4" xlink:href="shade/1.png"/>
<image clip-path="url(#cf_323)" x="753" y="805" width="8" height="4" xlink:href="shade/2.png"/>
<image clip-path="url(#cg_323)" x="753" y="805" width="8" height="4" xlink:href="shade/3.png"/>
<image clip-path="url(#ch_323)" x="753" y="804" width="8" height="4" xlink:href="shade/4.png"/>
<image clip-path="url(#ci_323)" x="753" y="804" width="8" height="4" xlink:href="shade/5.png"/>
<image clip-path="url(#cj_323)" x="753" y="804" width="7" height="3" xlink:href="shade/6.png"/>
<g clip-path="url(#ck_323)" opacity="0.3" style="mix-blend-mode: multiply;">
<g clip-path="url(#c1_323)">
<path d="M752.4,801.3c1.9,-.4,3.7,-.9,5.5,-1.6c.2,-.1,.2,-.2,.2,-.4c-.1,-.1,-.3,-.1,-.4,-.1c-1.8,.7,-3.5,1.2,-5.4,1.6c-.1,0,-.2,.1,-.2,.2c0,.2,.2,.3,.3,.3Z" class="g4_323"/>
<path d="M758.1,800.7c-1.7,.7,-3.5,1.2,-5.3,1.5c-.2,0,-.3,.2,-.3,.3c.1,.1,.2,.2,.3,.2c2,-.3,3.7,-.8,5.5,-1.6c.2,0,.2,-.2,.2,-.3c-.1,-.1,-.2,-.2,-.4,-.1Z" class="g4_323"/>
</g>
</g>
<image clip-path="url(#cl_323)" x="752" y="800" width="7" height="3" xlink:href="shade/7.png"/>
<image clip-path="url(#cm_323)" x="752" y="800" width="7" height="3" xlink:href="shade/8.png"/>
<image clip-path="url(#cn_323)" x="752" y="800" width="7" height="3" xlink:href="shade/9.png"/>
<image clip-path="url(#co_323)" x="751" y="798" width="8" height="4" xlink:href="shade/10.png"/>
<image clip-path="url(#cp_323)" x="751" y="798" width="8" height="4" xlink:href="shade/11.png"/>
<image clip-path="url(#cq_323)" x="752" y="798" width="6" height="4" xlink:href="shade/12.png"/>
<g clip-path="url(#cr_323)" opacity="0.3" style="mix-blend-mode: multiply;">
<g clip-path="url(#c2_323)">
<path d="M750.8,795.7c2,-.3,3.7,-.8,5.5,-1.6c.2,0,.2,-.2,.2,-.3c-.1,-.1,-.3,-.2,-.4,-.1c-1.7,.7,-3.5,1.2,-5.3,1.5c-.2,0,-.3,.2,-.3,.3c0,.1,.2,.2,.3,.2Z" class="g4_323"/>
<path d="M756.5,795.1c-1.7,.8,-3.4,1.2,-5.3,1.6c-.2,0,-.3,.1,-.2,.3c0,.1,.1,.2,.2,.2c2,-.4,3.7,-.9,5.5,-1.6c.2,-.1,.2,-.2,.2,-.3c-.1,-.2,-.2,-.2,-.4,-.2Z" class="g4_323"/>
</g>
</g>
<image clip-path="url(#cs_323)" x="750" y="794" width="8" height="4" xlink:href="shade/13.png"/>
<image clip-path="url(#ct_323)" x="750" y="795" width="8" height="3" xlink:href="shade/14.png"/>
<image clip-path="url(#cu_323)" x="750" y="795" width="8" height="3" xlink:href="shade/15.png"/>
<image clip-path="url(#cv_323)" x="750" y="793" width="8" height="3" xlink:href="shade/16.png"/>
<image clip-path="url(#cw_323)" x="750" y="793" width="8" height="3" xlink:href="shade/17.png"/>
<image clip-path="url(#cx_323)" x="750" y="793" width="7" height="3" xlink:href="shade/18.png"/>
<g clip-path="url(#cy_323)" opacity="0.3" style="mix-blend-mode: multiply;">
<g clip-path="url(#c3_323)">
<path d="M749.2,790.2c2,-.4,3.7,-.9,5.5,-1.6c.2,-.1,.2,-.2,.2,-.4c-.1,-.1,-.2,-.1,-.4,-.1c-1.7,.7,-3.5,1.2,-5.3,1.6c-.2,0,-.3,.1,-.3,.2c.1,.2,.2,.3,.3,.3Z" class="g4_323"/>
<path d="M754.9,789.6c-1.7,.7,-3.4,1.2,-5.3,1.5c-.2,0,-.3,.2,-.2,.3c0,.1,.1,.2,.3,.2c1.9,-.3,3.6,-.8,5.5,-1.6c.1,0,.1,-.2,.1,-.3c-.1,-.1,-.2,-.2,-.4,-.1Z" class="g4_323"/>
</g>
</g>
<image clip-path="url(#cz_323)" x="748" y="788" width="8" height="4" xlink:href="shade/19.png"/>
<image clip-path="url(#c10_323)" x="749" y="788" width="7" height="4" xlink:href="shade/20.png"/>
<image clip-path="url(#c11_323)" x="749" y="789" width="7" height="3" xlink:href="shade/21.png"/>
<image clip-path="url(#c12_323)" x="748" y="787" width="8" height="4" xlink:href="shade/22.png"/>
<image clip-path="url(#c13_323)" x="748" y="787" width="8" height="4" xlink:href="shade/23.png"/>
<image clip-path="url(#c14_323)" x="748" y="788" width="7" height="3" xlink:href="shade/24.png"/>
<g clip-path="url(#c15_323)" opacity="0.3" style="mix-blend-mode: multiply;">
<g clip-path="url(#c4_323)">
<path d="M747.6,784.6c2,-.3,3.7,-.8,5.5,-1.6c.2,0,.2,-.2,.2,-.3c-.1,-.1,-.2,-.2,-.4,-.1c-1.7,.7,-3.4,1.2,-5.3,1.5c-.2,0,-.3,.2,-.3,.3c.1,.1,.2,.2,.3,.2Z" class="g4_323"/>
<path d="M753.4,784c-1.8,.8,-3.5,1.3,-5.4,1.6c-.1,0,-.3,.1,-.2,.3c0,.1,.1,.2,.3,.2c1.9,-.4,3.7,-.9,5.5,-1.6c.1,-.1,.2,-.2,.1,-.3c-.1,-.2,-.2,-.2,-.3,-.2Z" class="g4_323"/>
</g>
</g>
<image clip-path="url(#c16_323)" x="747" y="783" width="7" height="4" xlink:href="shade/25.png"/>
<image clip-path="url(#c17_323)" x="747" y="783" width="7" height="3" xlink:href="shade/26.png"/>
<image clip-path="url(#c18_323)" x="747" y="783" width="7" height="3" xlink:href="shade/27.png"/>
<image clip-path="url(#c19_323)" x="747" y="782" width="7" height="4" xlink:href="shade/28.png"/>
<image clip-path="url(#c1a_323)" x="747" y="782" width="7" height="4" xlink:href="shade/29.png"/>
<image clip-path="url(#c1b_323)" x="747" y="782" width="7" height="3" xlink:href="shade/30.png"/>
<g clip-path="url(#c1c_323)" opacity="0.3" style="mix-blend-mode: multiply;">
<g clip-path="url(#c5_323)">
<path d="M746.1,779.1c1.9,-.4,3.6,-.9,5.5,-1.6c.1,-.1,.1,-.2,.1,-.4c-.1,-.1,-.2,-.1,-.4,-.1c-1.7,.7,-3.4,1.2,-5.3,1.6c-.2,0,-.3,.1,-.2,.2c0,.2,.1,.3,.3,.3Z" class="g4_323"/>
<path d="M751.8,778.5c-1.8,.7,-3.5,1.2,-5.4,1.5c-.1,0,-.2,.2,-.2,.3c0,.1,.1,.2,.3,.2c1.9,-.3,3.7,-.8,5.5,-1.6c.1,0,.2,-.2,.1,-.3c-.1,-.1,-.2,-.2,-.3,-.1Z" class="g4_323"/>
</g>
</g>
<image clip-path="url(#c1d_323)" x="745" y="778" width="8" height="3" xlink:href="shade/31.png"/>
<image clip-path="url(#c1e_323)" x="745" y="778" width="8" height="3" xlink:href="shade/32.png"/>
<image clip-path="url(#c1f_323)" x="746" y="778" width="6" height="3" xlink:href="shade/33.png"/>
<image clip-path="url(#c1g_323)" x="745" y="776" width="8" height="4" xlink:href="shade/34.png"/>
<image clip-path="url(#c1h_323)" x="745" y="776" width="7" height="4" xlink:href="shade/35.png"/>
<image clip-path="url(#c1i_323)" x="745" y="776" width="7" height="4" xlink:href="shade/36.png"/>
<g clip-path="url(#c1j_323)" opacity="0.3" style="mix-blend-mode: multiply;">
<g clip-path="url(#c6_323)">
<path d="M744.5,773.5c1.9,-.3,3.7,-.8,5.5,-1.6c.1,0,.2,-.2,.1,-.3c-.1,-.1,-.2,-.2,-.3,-.1c-1.8,.7,-3.5,1.2,-5.4,1.5c-.1,0,-.3,.2,-.2,.3c0,.1,.1,.2,.3,.2Z" class="g4_323"/>
<path d="M750.2,772.9c-1.8,.8,-3.5,1.3,-5.4,1.6c-.1,0,-.2,.1,-.2,.3c0,.1,.1,.2,.3,.2c1.9,-.3,3.7,-.9,5.5,-1.6c.1,-.1,.2,-.2,.1,-.3c0,-.2,-.2,-.2,-.3,-.2Z" class="g4_323"/>
</g>
</g>
<image clip-path="url(#c1k_323)" x="744" y="772" width="7" height="4" xlink:href="shade/37.png"/>
<image clip-path="url(#c1l_323)" x="744" y="772" width="7" height="4" xlink:href="shade/38.png"/>
<image clip-path="url(#c1m_323)" x="744" y="772" width="7" height="4" xlink:href="shade/39.png"/>
<image clip-path="url(#c1n_323)" x="744" y="771" width="7" height="3" xlink:href="shade/40.png"/>
<image clip-path="url(#c1o_323)" x="744" y="771" width="7" height="3" xlink:href="shade/41.png"/>
<image clip-path="url(#c1p_323)" x="744" y="771" width="7" height="3" xlink:href="shade/42.png"/>
<g clip-path="url(#c1q_323)" opacity="0.3" style="mix-blend-mode: multiply;">
<g clip-path="url(#c7_323)">
<path d="M742.9,768c1.9,-.4,3.7,-.9,5.5,-1.6c.1,-.1,.2,-.2,.1,-.4c-.1,-.1,-.2,-.1,-.3,-.1c-1.8,.7,-3.5,1.2,-5.4,1.6c-.1,0,-.2,.1,-.2,.2c0,.2,.1,.3,.3,.3Z" class="g4_323"/>
<path d="M748.6,767.4c-1.8,.7,-3.5,1.2,-5.4,1.5c-.1,0,-.2,.2,-.2,.3c0,.1,.1,.2,.3,.2c1.9,-.3,3.7,-.8,5.5,-1.6c.1,0,.2,-.2,.1,-.3c0,-.1,-.2,-.2,-.3,-.1Z" class="g4_323"/>
</g>
</g>
<image clip-path="url(#c1r_323)" x="742" y="766" width="8" height="4" xlink:href="shade/43.png"/>
<image clip-path="url(#c1s_323)" x="742" y="766" width="8" height="4" xlink:href="shade/44.png"/>
<image clip-path="url(#c1t_323)" x="743" y="766" width="6" height="4" xlink:href="shade/45.png"/>
<image clip-path="url(#c1u_323)" x="742" y="765" width="7" height="4" xlink:href="shade/46.png"/>
<image clip-path="url(#c1v_323)" x="742" y="765" width="7" height="4" xlink:href="shade/47.png"/>
<image clip-path="url(#c1w_323)" x="742" y="766" width="7" height="3" xlink:href="shade/48.png"/>
<g clip-path="url(#c1x_323)" opacity="0.3" style="mix-blend-mode: multiply;">
<g clip-path="url(#c8_323)">
<path d="M741.3,762.4c1.9,-.3,3.7,-.8,5.5,-1.6c.1,0,.2,-.2,.1,-.3c0,-.1,-.2,-.2,-.3,-.1c-1.8,.7,-3.5,1.2,-5.4,1.5c-.1,0,-.2,.2,-.2,.3c0,.1,.1,.2,.3,.2Z" class="g4_323"/>
<path d="M747,761.8c-1.8,.8,-3.5,1.3,-5.4,1.6c-.1,0,-.2,.1,-.2,.3c0,.1,.2,.2,.3,.2c1.9,-.3,3.7,-.9,5.5,-1.6c.1,-.1,.2,-.2,.1,-.3c0,-.2,-.2,-.2,-.3,-.2Z" class="g4_323"/>
</g>
</g>
<image clip-path="url(#c1y_323)" x="740" y="761" width="8" height="4" xlink:href="shade/49.png"/>
<image clip-path="url(#c1z_323)" x="740" y="761" width="8" height="3" xlink:href="shade/50.png"/>
<image clip-path="url(#c20_323)" x="741" y="761" width="7" height="3" xlink:href="shade/51.png"/>
<image clip-path="url(#c21_323)" x="740" y="759" width="8" height="4" xlink:href="shade/52.png"/>
<image clip-path="url(#c22_323)" x="740" y="759" width="8" height="4" xlink:href="shade/53.png"/>
<image clip-path="url(#c23_323)" x="740" y="759" width="8" height="4" xlink:href="shade/54.png"/>
<g clip-path="url(#c24_323)" opacity="0.3" style="mix-blend-mode: multiply;">
<g clip-path="url(#c9_323)">
<path d="M739.7,756.9c1.9,-.4,3.7,-.9,5.5,-1.6c.1,-.1,.2,-.2,.1,-.4c0,-.1,-.2,-.1,-.3,-.1c-1.8,.7,-3.5,1.2,-5.4,1.6c-.1,0,-.2,.1,-.2,.2c0,.2,.1,.3,.3,.3Z" class="g4_323"/>
<path d="M745.4,756.3c-1.8,.7,-3.5,1.2,-5.4,1.5c-.1,0,-.2,.2,-.2,.3c0,.1,.2,.2,.3,.2c1.9,-.3,3.7,-.8,5.5,-1.5c.1,-.1,.2,-.3,.1,-.4c0,-.1,-.2,-.2,-.3,-.1Z" class="g4_323"/>
</g>
</g>
<image clip-path="url(#c25_323)" x="739" y="756" width="8" height="3" xlink:href="shade/55.png"/>
<image clip-path="url(#c26_323)" x="739" y="756" width="8" height="3" xlink:href="shade/56.png"/>
<image clip-path="url(#c27_323)" x="740" y="756" width="6" height="3" xlink:href="shade/57.png"/>
<image clip-path="url(#c28_323)" x="738" y="754" width="8" height="3" xlink:href="shade/58.png"/>
<image clip-path="url(#c29_323)" x="739" y="754" width="7" height="3" xlink:href="shade/59.png"/>
<image clip-path="url(#c2a_323)" x="739" y="754" width="7" height="3" xlink:href="shade/60.png"/>
<g clip-path="url(#c2b_323)" opacity="0.3" style="mix-blend-mode: multiply;">
<g clip-path="url(#ca_323)">
<path d="M738.1,751.3c1.9,-.3,3.7,-.8,5.5,-1.6c.1,0,.2,-.2,.1,-.3c0,-.1,-.2,-.2,-.3,-.1c-1.8,.7,-3.5,1.2,-5.4,1.5c-.1,0,-.2,.2,-.2,.3c0,.1,.1,.2,.3,.2Z" class="g4_323"/>
<path d="M743.8,750.7c-1.8,.8,-3.5,1.3,-5.4,1.6c-.1,0,-.2,.1,-.2,.3c0,.1,.2,.2,.3,.2c1.9,-.3,3.7,-.9,5.5,-1.6c.1,-.1,.2,-.2,.1,-.3c0,-.2,-.2,-.2,-.3,-.2Z" class="g4_323"/>
</g>
</g>
<image clip-path="url(#c2c_323)" x="737" y="749" width="8" height="5" xlink:href="shade/61.png"/>
<image clip-path="url(#c2d_323)" x="737" y="750" width="8" height="4" xlink:href="shade/62.png"/>
<image clip-path="url(#c2e_323)" x="737" y="750" width="8" height="4" xlink:href="shade/63.png"/>
<image clip-path="url(#c2f_323)" x="737" y="748" width="8" height="4" xlink:href="shade/64.png"/>
<image clip-path="url(#c2g_323)" x="737" y="749" width="8" height="3" xlink:href="shade/65.png"/>
<image clip-path="url(#c2h_323)" x="737" y="749" width="8" height="3" xlink:href="shade/66.png"/>
<g clip-path="url(#c2i_323)" opacity="0.3" style="mix-blend-mode: multiply;">
<g clip-path="url(#cb_323)">
<path d="M734.9,740.2c1.9,-.3,3.7,-.8,5.5,-1.6c.1,0,.2,-.2,.1,-.3c0,-.1,-.2,-.2,-.3,-.1c-1.8,.7,-3.5,1.2,-5.4,1.5c-.1,0,-.2,.2,-.2,.3c0,.1,.2,.2,.3,.2Z" class="g4_323"/>
<path d="M740.6,739.6c-1.7,.8,-3.5,1.3,-5.3,1.6c-.2,0,-.3,.1,-.3,.3c.1,.1,.2,.2,.3,.2c2,-.3,3.7,-.9,5.5,-1.6c.2,-.1,.2,-.2,.2,-.3c-.1,-.2,-.2,-.2,-.4,-.2Z" class="g4_323"/>
</g>
</g>
<image clip-path="url(#c2j_323)" x="734" y="739" width="8" height="4" xlink:href="shade/67.png"/>
<image clip-path="url(#c2k_323)" x="734" y="739" width="7" height="3" xlink:href="shade/68.png"/>
<image clip-path="url(#c2l_323)" x="734" y="739" width="7" height="3" xlink:href="shade/69.png"/>
<image clip-path="url(#c2m_323)" x="734" y="737" width="7" height="4" xlink:href="shade/70.png"/>
<image clip-path="url(#c2n_323)" x="734" y="737" width="7" height="4" xlink:href="shade/71.png"/>
<image clip-path="url(#c2o_323)" x="734" y="737" width="7" height="4" xlink:href="shade/72.png"/>
<g clip-path="url(#c2p_323)" opacity="0.3" style="mix-blend-mode: multiply;">
<g clip-path="url(#cc_323)">
<path d="M736.5,745.8c1.9,-.4,3.7,-.9,5.5,-1.6c.1,-.1,.2,-.2,.1,-.4c0,-.1,-.2,-.1,-.3,-.1c-1.8,.8,-3.5,1.2,-5.4,1.6c-.1,0,-.2,.1,-.2,.2c0,.2,.2,.3,.3,.3Z" class="g4_323"/>
<path d="M742.2,745.2c-1.8,.7,-3.5,1.2,-5.3,1.5c-.2,0,-.3,.2,-.3,.3c0,.1,.2,.2,.3,.2c2,-.3,3.7,-.8,5.5,-1.5c.2,-.1,.2,-.3,.2,-.4c-.1,-.1,-.3,-.2,-.4,-.1Z" class="g4_323"/>
</g>
</g>
<image clip-path="url(#c2q_323)" x="736" y="744" width="8" height="4" xlink:href="shade/73.png"/>
<image clip-path="url(#c2r_323)" x="736" y="744" width="7" height="4" xlink:href="shade/74.png"/>
<image clip-path="url(#c2s_323)" x="736" y="744" width="7" height="3" xlink:href="shade/75.png"/>
<image clip-path="url(#c2t_323)" x="735" y="743" width="8" height="4" xlink:href="shade/76.png"/>
<image clip-path="url(#c2u_323)" x="735" y="743" width="8" height="4" xlink:href="shade/77.png"/>
<image clip-path="url(#c2v_323)" x="736" y="743" width="6" height="3" xlink:href="shade/78.png"/>
<g clip-path="url(#c2w_323)">
<path d="M687.8,760.9l.1,.3l44.6,-12.8v-.3Z" class="g5_323"/>
<path d="M688.6,763.9l.1,.3l44.7,-12.8l-.1,-.3Z" class="g5_323"/>
<path d="M689.5,766.9l.1,.3l44.7,-12.8l-.1,-.3Z" class="g5_323"/>
<path d="M690.4,769.9v.3l44.7,-12.8l-.1,-.3Z" class="g5_323"/>
<path d="M691.2,773l.1,.2L736,760.4l-.1,-.3Z" class="g5_323"/>
<path d="M692.1,776l.1,.2l44.6,-12.8v-.3Z" class="g5_323"/>
<path d="M693,779v.2l44.7,-12.8l-.1,-.3Z" class="g5_323"/>
<path d="M693.8,782l.1,.2l44.7,-12.8l-.1,-.3Z" class="g5_323"/>
<path d="M694.7,785v.2l44.7,-12.8v-.3Z" class="g5_323"/>
<path d="M695.5,788l.1,.2l44.7,-12.8l-.1,-.2Z" class="g5_323"/>
<path d="M696.4,791l.1,.2l44.6,-12.8v-.2Z" class="g5_323"/>
<path d="M697.3,794v.2L742,781.4l-.1,-.2Z" class="g5_323"/>
<path d="M698.1,797l.1,.2l44.7,-12.8l-.1,-.2Z" class="g5_323"/>
<path d="M699,800v.2l44.7,-12.8v-.2Z" class="g5_323"/>
<path d="M699.8,803l.1,.2l44.7,-12.8l-.1,-.2Z" class="g5_323"/>
<path d="M700.7,806l.1,.2l44.7,-12.8l-.1,-.2Z" class="g5_323"/>
<path d="M701.6,809v.2l44.7,-12.8l-.1,-.2Z" class="g5_323"/>
<path d="M702.4,812l.1,.2l44.7,-12.8l-.1,-.2Z" class="g5_323"/>
<path d="M703.3,815l.1,.2L748,802.4v-.2Z" class="g5_323"/>
<path d="M704.1,818l.1,.2l44.7,-12.8l-.1,-.2Z" class="g5_323"/>
<path d="M705,821l.1,.2l44.7,-12.8l-.1,-.2Z" class="g5_323"/>
<path d="M705.9,824v.2l44.7,-12.8l-.1,-.2Z" class="g5_323"/>
<path d="M686.5,756.3l.2,1l44.7,-12.8l-.3,-1Z" class="g5_323"/>
<path d="M691,750.5l21,73.3h.2l-21,-73.3Z" class="g5_323"/>
<path d="M747.5,744l44.7,-12.9L747.5,744Zm.8,3L793,734.1L748.3,747Zm.9,3l44.7,-12.9L749.2,750Zm.9,3l44.7,-12.8L750.1,753Zm.8,3l44.7,-12.8L750.9,756Zm.9,3l44.7,-12.8L751.8,759Zm.9,3l44.6,-12.8L752.7,762Zm.8,3l44.7,-12.8L753.5,765Zm.9,3l44.7,-12.8L754.4,768Zm.8,3l44.7,-12.8L755.2,771Zm.9,3l44.7,-12.8L756.1,774Zm.9,3l44.6,-12.8L757,777Zm.8,3l44.7,-12.8L757.8,780Zm.9,3l44.7,-12.8L758.7,783Zm.8,3l44.7,-12.8L759.5,786Zm.9,3l44.7,-12.8L760.4,789Zm.9,3l44.6,-12.8L761.3,792Zm.8,3l44.7,-12.8L762.1,795Zm.9,3l44.7,-12.8L763,798Zm.8,3l44.7,-12.8L763.8,801Zm.9,3l44.7,-12.8L764.7,804Zm.9,3l44.6,-12.8L765.6,807Z" class="g6_323"/>
<path d="M746.1,739.2l.3,1l44.7,-12.8l-.3,-1Z" class="g5_323"/>
<path d="M750.6,733.4l21.1,73.3h.2l-21,-73.3Z" class="g5_323"/>
</g>
</g>
<path d="M231.3,281.4c0,0,-13,0,-13,13V316c0,0,0,13,13,13h602c0,0,13,0,13,-13V294.4c0,0,0,-13,-13,-13Z" class="g7_323"/>
<image clip-path="url(#c2y_323)" preserveAspectRatio="none" x="174" y="252" width="75" height="76" xlink:href="img/11.png"/>
<path d="M226.1,321.6c0,0,-26.9,11.3,-51.1,-12.7c0,0,15.2,25.3,49.3,23.9c0,0,24.7,.4,20.2,-10.1c0,0,1.3,-4.4,-18.4,-1.1Z" class="g7_323"/>
<path d="M154.5,1070v-28.7c0,0,0,-4.3,4.3,-4.3H862.4c0,0,4.4,0,4.4,4.3v29.2" class="g8_323"/>
<path d="M200.1,1037.5c2.6,0,4.8,-2.1,4.8,-4.8c0,-2.6,-2.2,-4.8,-4.8,-4.8c-2.7,0,-4.8,2.2,-4.8,4.8c0,2.7,2.1,4.8,4.8,4.8Z" class="g1_323"/>
<path d="M200.1,1039.4c3.6,0,6.6,-3,6.6,-6.7c0,-3.7,-3,-6.7,-6.6,-6.7c-3.7,0,-6.7,3,-6.7,6.7c0,3.7,3,6.7,6.7,6.7m0,-11.5c2.6,0,4.8,2.2,4.8,4.8c0,2.7,-2.2,4.8,-4.8,4.8c-2.7,0,-4.8,-2.1,-4.8,-4.8c0,-2.6,2.1,-4.8,4.8,-4.8Z" class="g9_323"/>
<path d="M205.5,1041.3H194.6c-.1,0,-.3,0,-.4,.1c2.7,1,4.9,3.3,5.9,6.1c1.3,-.5,2.7,-.8,4.2,-.8c2.9,0,5.5,1,7.5,2.7v-1.8c0,-3.4,-2.8,-6.3,-6.3,-6.3Z" class="g1_323"/>
<path d="M184,1038.3c3.4,0,6.1,-2.7,6.1,-6.1c0,-3.4,-2.7,-6.1,-6.1,-6.1c-3.4,0,-6.1,2.7,-6.1,6.1c0,3.4,2.7,6.1,6.1,6.1Z" class="ga_323"/>
<path d="M184,1040.2c4.4,0,8,-3.6,8,-8c0,-4.4,-3.6,-8,-8,-8c-4.4,0,-8,3.6,-8,8c0,4.4,3.6,8,8,8m0,-14.1c3.4,0,6.1,2.7,6.1,6.1c0,3.4,-2.7,6.1,-6.1,6.1c-3.4,0,-6.1,-2.7,-6.1,-6.1c0,-3.4,2.7,-6.1,6.1,-6.1Z" class="g9_323"/>
<path d="M198.4,1048.4c-1,-3.4,-4.1,-5.8,-7.7,-5.8H177.3c-4.4,0,-8,3.6,-8,8v4.3h23.8c.9,-2.8,2.8,-5.1,5.3,-6.5Z" class="ga_323"/>
<path d="M204.3,1048.6c-5.5,0,-9.9,4.5,-9.9,10c0,5.5,4.4,10,9.9,10c5.5,0,10,-4.5,10,-10c0,-5.5,-4.5,-10,-10,-10m6.7,11.7c0,.2,-.2,.5,-.5,.5h-4v4c0,.3,-.2,.5,-.5,.5h-3.3c-.3,0,-.5,-.2,-.5,-.5v-4h-4.1c-.2,0,-.4,-.3,-.4,-.5v-3.4c0,-.2,.2,-.4,.4,-.4h4.1v-4.1c0,-.2,.2,-.5,.5,-.5H206c.3,0,.5,.3,.5,.5v4.1h4c.3,0,.5,.2,.5,.4Z" class="gb_323"/>
<path d="M213.7,1051.3v-3.7c0,-4.5,-3.7,-8.2,-8.2,-8.2H194.6c-1.6,0,-3.1,.5,-4.3,1.3h-13c-5.4,0,-9.9,4.4,-9.9,9.9v5.3c0,.5,.4,.9,1,.9h24.2c-.1,.6,-.1,1.2,-.1,1.8c0,6.5,5.3,11.9,11.8,11.9c6.6,0,11.9,-5.4,11.9,-11.9c0,-2.7,-.9,-5.3,-2.5,-7.3m-9.4,17.3c-5.5,0,-9.9,-4.5,-9.9,-10c0,-5.5,4.4,-10,9.9,-10c5.5,0,10,4.5,10,10c0,5.5,-4.5,10,-10,10m-35,-18c0,-4.4,3.6,-8,8,-8h13.4c3.6,0,6.7,2.4,7.7,5.8c-2.5,1.4,-4.4,3.7,-5.3,6.5H169.3Zm42.5,-1.2c-2,-1.7,-4.6,-2.7,-7.5,-2.7c-1.5,0,-2.9,.3,-4.2,.8c-1,-2.8,-3.2,-5.1,-5.9,-6.1c.1,-.1,.3,-.1,.4,-.1h10.9c3.5,0,6.3,2.9,6.3,6.3Z" class="g9_323"/>
<path d="M205.5,1056.9v-4h-2.4v4c0,.3,-.2,.5,-.4,.5h-4.1v2.4h4.1c.2,0,.4,.2,.4,.5v4h2.4v-4c0,-.3,.3,-.5,.5,-.5h4.1v-2.4H206c-.2,0,-.5,-.2,-.5,-.5Z" class="g1_323"/>
<path d="M210.5,1056.5h-4v-4.1c0,-.2,-.2,-.5,-.5,-.5h-3.3c-.3,0,-.5,.3,-.5,.5v4.1h-4.1c-.2,0,-.4,.2,-.4,.4v3.4c0,.2,.2,.5,.4,.5h4.1v4c0,.3,.2,.5,.5,.5H206c.3,0,.5,-.2,.5,-.5v-4h4c.3,0,.5,-.3,.5,-.5v-3.4c0,-.2,-.2,-.4,-.5,-.4m-.4,3.3H206c-.2,0,-.5,.2,-.5,.5v4h-2.4v-4c0,-.3,-.2,-.5,-.4,-.5h-4.1v-2.4h4.1c.2,0,.4,-.2,.4,-.5v-4h2.4v4c0,.3,.3,.5,.5,.5h4.1Z" class="g9_323"/>
<path d="M154.1,1080.1v161.5m4.6,2.3H864.9m2.2,-4.5V1077.8m-4.5,-2.2H156.4" class="gc_323"/>
<path d="M154.1,1243.9v0m713.1,0v0m0,-168.3v0m-713.1,0v0" class="gd_323"/>
<path d="M32.1,179.3H967.5V32.1H32.1V179.3Z" class="ge_323"/>
<g clip-path="url(#c2x_323)">
<path d="M967.5,177.2H-877.3v-5.4h736.6c43.1,0,53.1,-37.9,115.3,-37.9H967.5Z" class="gf_323"/>
<path d="M967.5,183.7H-877.3v-9.8h736.6c43.1,0,53.1,-33.6,115.3,-33.6H967.5Z" class="gg_323"/>
</g>
<image clip-path="url(#c2z_323)" preserveAspectRatio="none" x="659" y="59" width="200" height="118" xlink:href="img/12.png"/>
<path d="M153.3,217.5v22.2L165,250V227.8Z" class="gh_323"/>
<path d="M153.3,200.7v39H851.1c0,0,16.8,0,16.8,-16.8v-5.4c0,0,0,-16.8,-16.8,-16.8Z" class="gi_323"/>
<path d="M211.3,212.1l-6.5,-6.4l-21.2,21.2l6.5,6.4Z" class="gj_323"/>
<path d="M190.1,233.9c.1,0,.3,-.1,.4,-.2l21.2,-21.2c.1,-.1,.1,-.2,.1,-.4c0,-.1,0,-.2,-.1,-.3l-6.5,-6.5c-.2,-.2,-.6,-.2,-.8,0l-21.2,21.2c-.1,.1,-.1,.2,-.1,.4c0,.1,0,.2,.1,.3l6.5,6.5c.1,.1,.3,.2,.4,.2m20.5,-21.8l-20.5,20.5l-5.8,-5.7l20.5,-20.5Z" class="gk_323"/>
<path d="M211.3,212.1l-6.5,-6.4l2.1,-2.2l6.5,6.5Z" class="gl_323"/>
<path d="M211.3,212.7c.1,0,.3,-.1,.4,-.2l2.1,-2.1c.1,-.1,.2,-.2,.2,-.4c0,-.1,-.1,-.3,-.2,-.4l-6.5,-6.4c-.2,-.3,-.5,-.3,-.7,0l-2.2,2.1c-.1,.1,-.1,.2,-.1,.4c0,.1,0,.2,.1,.3l6.5,6.5c.1,.1,.3,.2,.4,.2m1.4,-2.7l-1.4,1.4l-5.7,-5.7l1.3,-1.4Z" class="gk_323"/>
<path d="M217,206.4l-6.4,-6.5l-3.7,3.6l6.5,6.5Z" class="gm_323"/>
<path d="M213.4,210.5c.2,0,.3,0,.4,-.1l3.6,-3.6c.2,-.2,.2,-.6,0,-.8l-6.5,-6.5c-.2,-.2,-.5,-.2,-.7,0l-3.6,3.7c-.2,.2,-.2,.5,0,.7l6.5,6.5c.1,.1,.2,.1,.3,.1m2.9,-4.1l-2.9,2.9l-5.7,-5.8l2.9,-2.8Z" class="gk_323"/>
<path d="M179,238l4.6,-11.1l6.5,6.4Z" class="g1_323"/>
<path d="M179,238.5c0,0,.1,0,.2,0l11.1,-4.7c.2,0,.3,-.2,.3,-.4c0,-.1,0,-.3,-.1,-.4L184,226.5c-.1,-.1,-.3,-.2,-.5,-.1c-.2,0,-.3,.1,-.4,.3l-4.6,11.1c-.1,.2,0,.4,.1,.6c.1,.1,.2,.1,.4,.1m10.2,-5.3l-9.3,3.8l3.9,-9.2Z" class="gk_323"/>
<path d="M179,238l2.2,-5.4l3.1,3.1Z" class="gk_323"/>
<path d="M179,238.5c0,0,.1,0,.2,0l5.3,-2.3c.2,0,.3,-.2,.4,-.4c0,-.1,-.1,-.3,-.2,-.4l-3.1,-3.2c-.1,-.1,-.3,-.1,-.5,-.1c-.2,0,-.3,.2,-.4,.3l-2.2,5.4c-.1,.2,0,.4,.1,.6c.1,.1,.2,.1,.4,.1m4.4,-2.9l-3.5,1.4l1.5,-3.5Z" class="gk_323"/>
<path d="M209.5,210.4l-2.9,-3l-21.2,21.2l2.9,3Z" class="gn_323"/>
<path d="M188.3,232.1c.2,0,.3,0,.4,-.1l21.2,-21.2c.1,-.1,.2,-.3,.2,-.4c0,-.2,-.1,-.3,-.2,-.4l-3,-3c-.2,-.2,-.5,-.2,-.7,0L185,228.3c-.1,.1,-.2,.2,-.2,.3c0,.2,.1,.3,.2,.4l3,3c.1,.1,.2,.1,.3,.1m20.5,-21.7l-20.5,20.4l-2.2,-2.2l20.5,-20.4Z" class="gk_323"/>
<path d="M32.1,45.1H9.2m958.3,0h22.9M32.1,1331.3H9.2m958.3,0h22.9M45.1,32.1V9.2m0,1335.1v22.9M954.5,32.1V9.2m0,1335.1v22.9" class="go_323"/>
<path d="M32.1,45.1H9.2m958.3,0h22.9M32.1,1331.3H9.2m958.3,0h22.9M45.1,32.1V9.2m0,1335.1v22.9M954.5,32.1V9.2m0,1335.1v22.9" class="gp_323"/>
<path d="M27.5,32.1H0m972.1,0h27.5M27.5,1344.3H0m972.1,0h27.5M32.1,27.5V0m0,1348.9v27.5M967.5,27.5V0m0,1348.9v27.5" class="go_323"/>
<path d="M27.5,32.1H0m972.1,0h27.5M27.5,1344.3H0m972.1,0h27.5M32.1,27.5V0m0,1348.9v27.5M967.5,27.5V0m0,1348.9v27.5" class="gp_323"/>
</svg>