<?xml version="1.0" encoding="UTF-8" standalone="no"?>
<!DOCTYPE svg PUBLIC "-//W3C//DTD SVG 1.1//EN"
"http://www.w3.org/Graphics/SVG/1.1/DTD/svg11.dtd">
<svg viewBox="0 0 999 1376" version="1.1" xmlns="http://www.w3.org/2000/svg" xmlns:xlink="http://www.w3.org/1999/xlink">
<defs>
<clipPath id="c0_33"><path d="M32.1,1344.3V32.1H967.5V1344.3Z"/></clipPath>
<clipPath id="c1_33"><path d="M682.7,178.5V64.7H865.1V178.5Z"/></clipPath>
<clipPath id="c2_33"><path d="M191.6,724.4V602.3H830.7V724.4Z"/></clipPath>
<clipPath id="c3_33"><path d="M191.6,1015.7V850.2H830.7v165.5Z"/></clipPath>
<style type="text/css"><![CDATA[
.g0_33{
fill: #FEFCF4;
}
.g1_33{
fill: #F16865;
}
.g2_33{
fill: #6381B7;
}
.g3_33{
fill: none;
stroke: #6381B7;
stroke-width: 0.381;
stroke-dasharray: 2,1;
}
.g4_33{
fill: none;
stroke: #6381B7;
stroke-width: 0.381;
}
.g5_33{
fill: #FFF;
}
.g6_33{
fill: none;
stroke: #6381B7;
stroke-width: 0.763;
}
.g7_33{
fill: none;
stroke: #231F20;
stroke-width: 0.458;
stroke-miterlimit: 10;
}
.g8_33{
fill: #FEF9F9;
}
.g9_33{
fill: none;
stroke: #A164A9;
stroke-width: 1.527;
stroke-linecap: round;
stroke-linejoin: round;
stroke-dasharray: 0,5;
}
.ga_33{
fill: none;
stroke: #A164A9;
stroke-width: 1.527;
stroke-linecap: round;
stroke-linejoin: round;
}
.gb_33{
fill: #A164A9;
}
.gc_33{
fill: none;
stroke: #FFF;
stroke-width: 1.909;
stroke-miterlimit: 10;
}
.gd_33{
fill: none;
stroke: #000;
stroke-width: 0.381;
stroke-miterlimit: 10;
}
]]></style>
</defs>
<path clip-path="url(#c0_33)" d="M-877.3,1344.3H45.1V32.1H-877.3V1344.3Z" class="g0_33"/>
<path d="M45.1,1344.3H967.5V32.1H45.1V1344.3Z" class="g0_33"/>
<path clip-path="url(#c0_33)" d="M867.9,166.7c0,0,30.3,0,30.3,-30.3v-4.3c0,0,0,-30.3,-30.3,-30.3H-735.4c0,0,-30.4,0,-30.4,30.3v4.3c0,0,0,30.3,30.4,30.3Z" class="g1_33"/>
<path d="M748.2,1148.8c0,0,-4.3,0,-4.3,4.3v10.8c0,0,0,4.3,4.3,4.3h30.3c0,0,4.4,0,4.4,-4.3v-10.8c0,0,0,-4.3,-4.4,-4.3Z" class="g2_33"/>
<path d="M735,1139.9v37.6m1.4,.9H866.8m.9,-1.3v-37.6m-1.3,-.9H736" class="g3_33"/>
<path d="M735,1177.9v.5h.6m131.5,0h.6v-.5m0,-38.7v-.6h-.6m-131.5,0H735v.6" class="g4_33"/>
<path d="M166.7,218.7c0,0,-13,0,-13,13V401.5c0,0,0,13,13,13H854.5c0,0,13,0,13,-13V231.7c0,0,0,-13,-13,-13Z" class="g5_33"/>
<path d="M166.7,218.7c0,0,-13,0,-13,13V401.5c0,0,0,13,13,13H854.5c0,0,13,0,13,-13V231.7c0,0,0,-13,-13,-13H166.7Z" class="g6_33"/>
<path d="M633,431.5c0,0,-4.3,0,-4.3,4.3v10.9c0,0,0,4.3,4.3,4.3h30.3c0,0,4.4,0,4.4,-4.3V435.8c0,0,0,-4.3,-4.4,-4.3Z" class="g2_33"/>
<path d="M619.8,422.7v37.5m1.4,1H866.8m.9,-1.4V422.3m-1.3,-1H620.8" class="g3_33"/>
<path d="M619.8,460.6v.6h.6m246.7,0h.6v-.6m0,-38.7v-.6h-.6m-246.7,0h-.6v.6" class="g4_33"/>
<path d="M394.8,330.9h25.8" class="g7_33"/>
<image clip-path="url(#c1_33)" preserveAspectRatio="none" x="683" y="65" width="182" height="113" xlink:href="img/1.png"/>
<path d="M154.1,1131.3h713V516.2h-713v615.1Z" class="g8_33"/>
<path d="M154.1,520.8V1129m4.6,2.3H864.9m2.2,-4.6V518.5m-4.5,-2.3H156.4" class="g9_33"/>
<path d="M154.1,1131.3v0m713.1,0v0m0,-615.1v0m-713.1,0v0" class="ga_33"/>
<path d="M153.3,530.5V492.2c0,0,0,-8.6,8.7,-8.6H859.3c0,0,8.6,0,8.6,8.6v39Z" class="gb_33"/>
<image clip-path="url(#c2_33)" preserveAspectRatio="none" x="191" y="603" width="639" height="122" xlink:href="img/2.png"/>
<path d="M194.9,718.2H824.6V605.6H194.9V718.2Z" class="g5_33"/>
<image clip-path="url(#c3_33)" preserveAspectRatio="none" x="191" y="851" width="639" height="165" xlink:href="img/3.png"/>
<path d="M194.9,1009.3H824.6V853.4H194.9v155.9Z" class="g5_33"/>
<path d="M32.1,45.1H9.2m958.3,0h22.9M32.1,1331.3H9.2m958.3,0h22.9M45.1,32.1V9.2m0,1335.1v22.9M954.5,32.1V9.2m0,1335.1v22.9" class="gc_33"/>
<path d="M32.1,45.1H9.2m958.3,0h22.9M32.1,1331.3H9.2m958.3,0h22.9M45.1,32.1V9.2m0,1335.1v22.9M954.5,32.1V9.2m0,1335.1v22.9" class="gd_33"/>
<path d="M27.5,32.1H0m972.1,0h27.5M27.5,1344.3H0m972.1,0h27.5M32.1,27.5V0m0,1348.9v27.5M967.5,27.5V0m0,1348.9v27.5" class="gc_33"/>
<path d="M27.5,32.1H0m972.1,0h27.5M27.5,1344.3H0m972.1,0h27.5M32.1,27.5V0m0,1348.9v27.5M967.5,27.5V0m0,1348.9v27.5" class="gd_33"/>
</svg>