<?xml version="1.0" encoding="UTF-8" standalone="no"?>
<!DOCTYPE svg PUBLIC "-//W3C//DTD SVG 1.1//EN"
"http://www.w3.org/Graphics/SVG/1.1/DTD/svg11.dtd">
<svg viewBox="0 0 999 1376" version="1.1" xmlns="http://www.w3.org/2000/svg" xmlns:xlink="http://www.w3.org/1999/xlink">
<defs>
<clipPath id="c0_368"><path d="M32.1,1344.3V32.1H967.5V1344.3Z"/></clipPath>
<clipPath id="c1_368"><path d="M230.9,1027.7V378h508v649.7Z"/></clipPath>
<style type="text/css"><![CDATA[
.g0_368{
fill: #FEFCF4;
}
.g1_368{
fill: #FFF;
}
.g2_368{
fill: none;
stroke: #6381B7;
stroke-width: 0.763;
}
.g3_368{
fill: #BC93AB;
}
.g4_368{
fill: none;
stroke: #D1B8D8;
stroke-width: 1.222;
}
.g5_368{
fill: #FFF;
stroke: #D1B8D8;
stroke-width: 1.222;
}
.g6_368{
fill: none;
stroke: #FFF;
stroke-width: 1.909;
stroke-miterlimit: 10;
}
.g7_368{
fill: none;
stroke: #000;
stroke-width: 0.381;
stroke-miterlimit: 10;
}
]]></style>
</defs>
<path d="M32.1,1343.2H954.5V32.1H32.1V1343.2Z" class="g0_368"/>
<path clip-path="url(#c0_368)" d="M954.5,1344.3H1877V32.1H954.5V1344.3Z" class="g0_368"/>
<path d="M144.7,131.7c0,0,-13,0,-13,13V1227.4c0,0,0,13,13,13H833.3c0,0,13,0,13,-13V144.7c0,0,0,-13,-13,-13Z" class="g1_368"/>
<path d="M144.7,131.7c0,0,-13,0,-13,13V1227.4c0,0,0,13,13,13H833.3c0,0,13,0,13,-13V144.7c0,0,0,-13,-13,-13H144.7Z" class="g2_368"/>
<path d="M164.1,162c0,0,-6.5,0,-6.5,6.5v17.3c0,0,0,6.5,6.5,6.5H432.6c0,0,6.5,0,6.5,-6.5V168.5c0,0,0,-6.5,-6.5,-6.5Z" class="g3_368"/>
<image clip-path="url(#c1_368)" preserveAspectRatio="none" x="231" y="378" width="508" height="650" xlink:href="img/1.jpg"/>
<path d="M282.1,314.2c0,0,-10.3,0,-10.3,10.4v64.8c0,0,0,10.4,10.3,10.4H436.8c0,0,10.4,0,10.4,-10.4V324.6c0,0,0,-10.4,-10.4,-10.4Z" class="g1_368"/>
<path d="M282.1,314.2c0,0,-10.3,0,-10.3,10.4v64.8c0,0,0,10.4,10.3,10.4H436.8c0,0,10.4,0,10.4,-10.4V324.6c0,0,0,-10.4,-10.4,-10.4H282.1Z" class="g4_368"/>
<path d="M405,397c0,0,4.5,17,22.8,17.7c0,0,-7.6,-8.7,-6.6,-17.7" class="g5_368"/>
<path d="M280.7,395.9H440.9v-78H280.7v78Z" class="g1_368"/>
<path d="M520.4,204.2c0,0,-10.4,0,-10.4,10.4v190c0,0,0,10.4,10.4,10.4h256c0,0,10.4,0,10.4,-10.4v-190c0,0,0,-10.4,-10.4,-10.4Z" class="g1_368"/>
<path d="M520.4,204.2c0,0,-10.4,0,-10.4,10.4v190c0,0,0,10.4,10.4,10.4h256c0,0,10.4,0,10.4,-10.4v-190c0,0,0,-10.4,-10.4,-10.4h-256Z" class="g4_368"/>
<path d="M551.6,412.2c0,0,-4.5,17,-22.8,17.7c0,0,7.6,-8.7,6.5,-17.7" class="g5_368"/>
<path d="M659,446.8c0,0,-10.4,0,-10.4,10.4v57c0,0,0,10.4,10.4,10.4H809.3c0,0,10.4,0,10.4,-10.4v-57c0,0,0,-10.4,-10.4,-10.4Z" class="g1_368"/>
<path d="M659,446.8c0,0,-10.4,0,-10.4,10.4v57c0,0,0,10.4,10.4,10.4H809.3c0,0,10.4,0,10.4,-10.4v-57c0,0,0,-10.4,-10.4,-10.4H659Z" class="g4_368"/>
<path d="M690.3,521.9c0,0,-4.5,16.9,-22.9,17.6c0,0,7.6,-8.6,6.6,-17.6" class="g5_368"/>
<path d="M661.8,519.1H809V455.6H661.8v63.5Z" class="g1_368"/>
<path d="M659,749c0,0,-10.4,0,-10.4,10.4v30c0,0,0,10.4,10.4,10.4H815.3c0,0,10.4,0,10.4,-10.4v-30c0,0,0,-10.4,-10.4,-10.4Z" class="g1_368"/>
<path d="M659,749c0,0,-10.4,0,-10.4,10.4v30c0,0,0,10.4,10.4,10.4H815.3c0,0,10.4,0,10.4,-10.4v-30c0,0,0,-10.4,-10.4,-10.4H659Z" class="g4_368"/>
<path d="M690.3,797c0,0,-4.5,17,-22.9,17.7c0,0,7.6,-8.7,6.6,-17.7" class="g5_368"/>
<path d="M660.9,789H819.6V758.3H660.9V789Z" class="g1_368"/>
<path d="M606.1,1002.8c0,0,-10.4,0,-10.4,10.4v55.9c0,0,0,10.4,10.4,10.4H766c0,0,10.4,0,10.4,-10.4v-55.9c0,0,0,-10.4,-10.4,-10.4Z" class="g1_368"/>
<path d="M606.1,1002.8c0,0,-10.4,0,-10.4,10.4v55.9c0,0,0,10.4,10.4,10.4H766c0,0,10.4,0,10.4,-10.4v-55.9c0,0,0,-10.4,-10.4,-10.4H606.1Z" class="g4_368"/>
<path d="M637.3,1007.7c0,0,-4.5,-16.9,-22.9,-17.6c0,0,7.7,8.6,6.6,17.6" class="g5_368"/>
<path d="M602.5,1073.3H771.4v-61.2H602.5v61.2Z" class="g1_368"/>
<path d="M197.3,1002.8c0,0,-10.4,0,-10.4,10.4v70.6c0,0,0,10.4,10.4,10.4H353.2c0,0,10.4,0,10.4,-10.4v-70.6c0,0,0,-10.4,-10.4,-10.4Z" class="g1_368"/>
<path d="M197.3,1002.8c0,0,-10.4,0,-10.4,10.4v70.6c0,0,0,10.4,10.4,10.4H353.2c0,0,10.4,0,10.4,-10.4v-70.6c0,0,0,-10.4,-10.4,-10.4H197.3Z" class="g4_368"/>
<path d="M309.9,1007.7c0,0,4.5,-16.9,22.9,-17.6c0,0,-7.7,8.6,-6.6,17.6" class="g5_368"/>
<path d="M197.9,1086.2h159v-72.3h-159v72.3Z" class="g1_368"/>
<path d="M386.1,1002.8c0,0,-10.4,0,-10.4,10.4v96.6c0,0,0,10.4,10.4,10.4H555.5c0,0,10.4,0,10.4,-10.4v-96.6c0,0,0,-10.4,-10.4,-10.4Z" class="g1_368"/>
<path d="M386.1,1002.8c0,0,-10.4,0,-10.4,10.4v96.6c0,0,0,10.4,10.4,10.4H555.5c0,0,10.4,0,10.4,-10.4v-96.6c0,0,0,-10.4,-10.4,-10.4H386.1Z" class="g4_368"/>
<path d="M497.6,1007.7c0,0,4.5,-16.9,22.9,-17.6c0,0,-7.6,8.6,-6.6,17.6" class="g5_368"/>
<path d="M388.1,1111.8H555.2v-96.6H388.1v96.6Z" class="g1_368"/>
<path d="M168.6,525.5c0,0,-10.4,0,-10.4,10.4v65.2c0,0,0,10.4,10.4,10.4H314.1c0,0,10.4,0,10.4,-10.4V535.9c0,0,0,-10.4,-10.4,-10.4Z" class="g1_368"/>
<path d="M168.6,525.5c0,0,-10.4,0,-10.4,10.4v65.2c0,0,0,10.4,10.4,10.4H314.1c0,0,10.4,0,10.4,-10.4V535.9c0,0,0,-10.4,-10.4,-10.4H168.6Z" class="g4_368"/>
<path d="M282.3,608.7c0,0,4.5,17,22.8,17.7c0,0,-7.6,-8.7,-6.5,-17.7" class="g5_368"/>
<path d="M167.3,600.2H323.2v-65H167.3v65Z" class="g1_368"/>
<path d="M173,801.8c0,0,-10.4,0,-10.4,10.4v75.2c0,0,0,10.4,10.4,10.4H328.5c0,0,10.4,0,10.4,-10.4V812.2c0,0,0,-10.4,-10.4,-10.4Z" class="g1_368"/>
<path d="M173,801.8c0,0,-10.4,0,-10.4,10.4v75.2c0,0,0,10.4,10.4,10.4H328.5c0,0,10.4,0,10.4,-10.4V812.2c0,0,0,-10.4,-10.4,-10.4H173Z" class="g4_368"/>
<path d="M296.6,895.1c0,0,4.5,16.9,22.9,17.6c0,0,-7.6,-8.6,-6.6,-17.6" class="g5_368"/>
<path d="M168.6,888.8H333.2V810.9H168.6v77.9Z" class="g1_368"/>
<path d="M32.1,45.1H9.2m958.3,0h22.9M32.1,1331.3H9.2m958.3,0h22.9M45.1,32.1V9.2m0,1335.1v22.9M954.5,32.1V9.2m0,1335.1v22.9" class="g6_368"/>
<path d="M32.1,45.1H9.2m958.3,0h22.9M32.1,1331.3H9.2m958.3,0h22.9M45.1,32.1V9.2m0,1335.1v22.9M954.5,32.1V9.2m0,1335.1v22.9" class="g7_368"/>
<path d="M27.5,32.1H0m972.1,0h27.5M27.5,1344.3H0m972.1,0h27.5M32.1,27.5V0m0,1348.9v27.5M967.5,27.5V0m0,1348.9v27.5" class="g6_368"/>
<path d="M27.5,32.1H0m972.1,0h27.5M27.5,1344.3H0m972.1,0h27.5M32.1,27.5V0m0,1348.9v27.5M967.5,27.5V0m0,1348.9v27.5" class="g7_368"/>
</svg>