<?xml version="1.0" encoding="UTF-8" standalone="no"?>
<!DOCTYPE svg PUBLIC "-//W3C//DTD SVG 1.1//EN"
"http://www.w3.org/Graphics/SVG/1.1/DTD/svg11.dtd">
<svg viewBox="0 0 999 1376" version="1.1" xmlns="http://www.w3.org/2000/svg" xmlns:xlink="http://www.w3.org/1999/xlink">
<defs>
<clipPath id="c0_246"><path d="M32.1,1344.3V32.1H967.5V1344.3Z"/></clipPath>
<clipPath id="c1_246"><path d="M176.6,765.7l-6.5,-2.2L153.7,749.6V692.5h72v73.2Z"/></clipPath>
<clipPath id="c2_246"><path d="M186.2,297.9l-6.5,-2.1L163.3,281.9V224.8h72v73.1Z"/></clipPath>
<clipPath id="c3_246"><path d="M756.5,349.3V336.9H771v12.4Z"/></clipPath>
<clipPath id="c4_246"><path d="M221.6,616.2V543.4H330.5v72.8Z"/></clipPath>
<clipPath id="c5_246"><path d="M220.2,484.4V403.3h87.4v81.1Z"/></clipPath>
<clipPath id="c6_246"><path d="M391,615.7V543.4H499.9v72.3Z"/></clipPath>
<clipPath id="c7_246"><path d="M389.6,484.4V473l1.2,-69.7H477v81.1Z"/></clipPath>
<clipPath id="c8_246"><path d="M560.4,624.5V543.4h87.5v81.1Z"/></clipPath>
<clipPath id="c9_246"><path d="M559,484.4V403.3h87.5v81.1Z"/></clipPath>
<clipPath id="ca_246"><path d="M729.9,579.7V543.4h72.7v36.3Z"/></clipPath>
<clipPath id="cb_246"><path d="M802.4,615.8V543.4h23.3v72.4Z"/></clipPath>
<clipPath id="cc_246"><path d="M729.9,615.8V579.6h72.7v36.2Z"/></clipPath>
<clipPath id="cd_246"><path d="M728.5,484.4V403.3h87.4v81.1Z"/></clipPath>
<style type="text/css"><![CDATA[
.g0_246{
fill: #FEFCF4;
}
.g1_246{
fill: #59816A;
}
.g2_246{
fill: #2E6E51;
}
.g3_246{
fill: #92A696;
}
.g4_246{
fill: #F9F6DB;
}
.g5_246{
fill: #DE524C;
}
.g6_246{
fill: #030303;
}
.g7_246{
fill: #FFF;
}
.g8_246{
fill: #FCE8B0;
}
.g9_246{
fill: none;
stroke: #6381B7;
stroke-width: 0.763;
}
.ga_246{
fill: none;
stroke: #231F20;
stroke-width: 0.305;
stroke-miterlimit: 10;
}
.gb_246{
fill: #A8AAAD;
}
.gc_246{
fill: none;
stroke: #949698;
stroke-width: 0.549;
}
.gd_246{
fill: none;
stroke: #BCBEC0;
stroke-width: 2.566;
}
.ge_246{
fill: #231F20;
}
.gf_246{
fill: none;
stroke: #FFF;
stroke-width: 1.909;
stroke-miterlimit: 10;
}
.gg_246{
fill: none;
stroke: #000;
stroke-width: 0.381;
stroke-miterlimit: 10;
}
]]></style>
</defs>
<path d="M32.1,1344.3H954.5V32.1H32.1V1344.3Z" class="g0_246"/>
<g clip-path="url(#c0_246)">
<path d="M954.5,1344.3H1877V32.1H954.5V1344.3Z" class="g0_246"/>
<path d="M1777.4,163c0,0,30.3,0,30.3,-30.3v-4.4c0,0,0,-30.3,-30.3,-30.3H162.8c0,0,-30.3,0,-30.3,30.3v4.4c0,0,0,30.3,30.3,30.3Z" class="g1_246"/>
</g>
<path d="M183.7,130.5c0,26.3,-21.4,47.6,-47.7,47.6c-26.3,0,-47.6,-21.3,-47.6,-47.6c0,-26.3,21.3,-47.7,47.6,-47.7c26.3,0,47.7,21.4,47.7,47.7Z" class="g2_246"/>
<path d="M158.3,88.4c0,0,26.2,12.3,25.3,44.1c0,0,.4,18,-14.5,32.2c0,0,-12.5,13.6,-33.8,13.4L119.8,142.5L146.3,109Z" class="g3_246"/>
<path d="M138.2,95.4l-35.3,40.3c-2.2,9.2,5.7,10.6,5.7,10.6L162,135.2Z" class="g4_246"/>
<path d="M163.8,131.9c1,1.6,.6,3.7,-1,4.7c-1.6,1,-3.7,.4,-4.7,-1.2L135.8,98.9c-1,-1.6,-.5,-3.7,1.1,-4.7c1.6,-1,3.7,-.4,4.7,1.2Z" class="g5_246"/>
<path d="M112,121.2l-8.5,5.9c-7.2,4.1,-9.8,13,-5.8,19.8c4,6.9,11.5,9.1,18.7,4.9l17.1,25.4c.8,1.9,5,.3,7,-.6c1.9,-1,4.4,-3.3,3.5,-5.2L127.5,145.3l.7,-.8c.7,-.3,-15,-24,-16.2,-23.3Z" class="g6_246"/>
<path d="M168.7,102.2c.4,.5,0,1.4,-.7,1.9l-9.2,6.7c-.7,.5,-1.6,.6,-2,0c-.3,-.5,0,-1.3,.7,-1.8l9.2,-6.7c.8,-.6,1.7,-.6,2,-.1Z" class="g7_246"/>
<path d="M158.4,88.4c.5,.4,.6,1.3,.1,2.1l-5.9,9.8c-.5,.8,-1.3,1.2,-1.9,.9c-.5,-.4,-.5,-1.2,0,-2.1l5.9,-9.8c.5,-.8,1.3,-1.2,1.8,-.9Z" class="g7_246"/>
<path d="M176.2,121.9c.1,-.6,-.6,-1.2,-1.5,-1.3l-11.2,-1.4c-.9,-.1,-1.7,.4,-1.8,1c-.1,.6,.6,1.2,1.5,1.3l11.2,1.3c.9,.2,1.7,-.3,1.8,-.9Z" class="g7_246"/>
<path d="M209.2,694.7c0,0,-13,0,-13,13v47.6c0,0,0,13,13,13H833.5c0,0,13,0,13,-13V707.7c0,0,0,-13,-13,-13Z" class="g8_246"/>
<image clip-path="url(#c1_246)" preserveAspectRatio="none" x="152" y="691" width="75" height="76" xlink:href="img/1.png"/>
<path d="M204,760.9c0,0,-26.8,11.3,-51.1,-12.7c0,0,15.2,25.3,49.3,23.9c0,0,24.7,.4,20.2,-10.1c0,0,1.3,-4.4,-18.4,-1.1Z" class="g8_246"/>
<path d="M218.8,252.9c0,0,-13,0,-13,13v21.7c0,0,0,13,13,13H833.5c0,0,13,0,13,-13V265.9c0,0,0,-13,-13,-13Z" class="g8_246"/>
<image clip-path="url(#c2_246)" preserveAspectRatio="none" x="162" y="223" width="75" height="77" xlink:href="img/2.png"/>
<path d="M213.6,293.2c0,0,-26.8,11.3,-51.1,-12.7c0,0,15.2,25.3,49.3,23.9c0,0,24.7,.4,20.2,-10.1c0,0,1.3,-4.5,-18.4,-1.1Z" class="g8_246"/>
<path d="M145.1,315.6c0,0,-13,0,-13,12.9V635.7c0,0,0,13,13,13h688c0,0,13,0,13,-13V328.5c0,0,0,-12.9,-13,-12.9Z" class="g7_246"/>
<path d="M145.1,315.6c0,0,-13,0,-13,12.9V635.7c0,0,0,13,13,13h688c0,0,13,0,13,-13V328.5c0,0,0,-12.9,-13,-12.9h-688Z" class="g9_246"/>
<path d="M196.2,373.6h563V357.3h-563v16.3Z" class="g7_246"/>
<path d="M145.1,782c0,0,-13,0,-13,13v368.3c0,0,0,13,13,13h688c0,0,13,0,13,-13V795c0,0,0,-13,-13,-13Z" class="g7_246"/>
<path d="M145.1,782c0,0,-13,0,-13,13v368.3c0,0,0,13,13,13h688c0,0,13,0,13,-13V795c0,0,0,-13,-13,-13h-688Z" class="g9_246"/>
<path d="M298.8,1089.2h25.9" class="ga_246"/>
<path d="M772.6,362.3c8.3,0,14.9,-6.5,14.9,-14.5c0,-8,-6.6,-14.4,-14.9,-14.4c-8.2,0,-14.8,6.4,-14.8,14.4c0,8,6.6,14.5,14.8,14.5Z" class="gb_246"/>
<path d="M772.6,362.3c8.3,0,14.9,-6.5,14.9,-14.5c0,-8,-6.6,-14.4,-14.9,-14.4c-8.2,0,-14.8,6.4,-14.8,14.4c0,8,6.6,14.5,14.8,14.5Z" class="gc_246"/>
<path d="M772.6,353.2c3.1,0,5.5,-2.4,5.5,-5.4c0,-2.9,-2.4,-5.3,-5.5,-5.3c-3,0,-5.5,2.4,-5.5,5.3c0,3,2.5,5.4,5.5,5.4Z" class="g7_246"/>
<path d="M772.6,353.2c3.1,0,5.5,-2.4,5.5,-5.4c0,-2.9,-2.4,-5.3,-5.5,-5.3c-3,0,-5.5,2.4,-5.5,5.3c0,3,2.5,5.4,5.5,5.4Z" class="gd_246"/>
<g clip-path="url(#c3_246)" opacity="0.3">
<path d="M758,347.1c0,0,0,-4.9,3.7,-8.7l7.8,6.7c0,0,-1,1,-1.1,2.7Z" class="g7_246"/>
</g>
<path d="M777.2,347.7c0,0,-3.4,0,-3.4,3.5v8.6c0,0,0,3.5,3.4,3.5h43.5c0,0,3.5,0,3.5,-3.5v-8.6c0,0,0,-3.5,-3.5,-3.5Z" class="ge_246"/>
<image clip-path="url(#c4_246)" preserveAspectRatio="none" x="221" y="543" width="110" height="73" xlink:href="img/3.jpg"/>
<image clip-path="url(#c5_246)" preserveAspectRatio="none" x="219" y="402" width="89" height="84" xlink:href="img/4.jpg"/>
<image clip-path="url(#c6_246)" preserveAspectRatio="none" x="391" y="543" width="109" height="73" xlink:href="img/5.jpg"/>
<image clip-path="url(#c7_246)" preserveAspectRatio="none" x="388" y="402" width="89" height="84" xlink:href="img/6.jpg"/>
<image clip-path="url(#c8_246)" preserveAspectRatio="none" x="559" y="542" width="89" height="84" xlink:href="img/7.jpg"/>
<image clip-path="url(#c9_246)" preserveAspectRatio="none" x="557" y="402" width="90" height="84" xlink:href="img/8.jpg"/>
<image clip-path="url(#ca_246)" preserveAspectRatio="none" x="730" y="543" width="73" height="37" xlink:href="img/9.jpg"/>
<image clip-path="url(#cb_246)" preserveAspectRatio="none" x="802" y="543" width="37" height="73" xlink:href="img/10.jpg"/>
<image clip-path="url(#cc_246)" preserveAspectRatio="none" x="730" y="580" width="73" height="36" xlink:href="img/11.jpg"/>
<image clip-path="url(#cd_246)" preserveAspectRatio="none" x="727" y="402" width="89" height="84" xlink:href="img/12.jpg"/>
<path d="M32.1,45.1H9.2m958.3,0h22.9M32.1,1331.3H9.2m958.3,0h22.9M45.1,32.1V9.2m0,1335.1v22.9M954.5,32.1V9.2m0,1335.1v22.9" class="gf_246"/>
<path d="M32.1,45.1H9.2m958.3,0h22.9M32.1,1331.3H9.2m958.3,0h22.9M45.1,32.1V9.2m0,1335.1v22.9M954.5,32.1V9.2m0,1335.1v22.9" class="gg_246"/>
<path d="M27.5,32.1H0m972.1,0h27.5M27.5,1344.3H0m972.1,0h27.5M32.1,27.5V0m0,1348.9v27.5M967.5,27.5V0m0,1348.9v27.5" class="gf_246"/>
<path d="M27.5,32.1H0m972.1,0h27.5M27.5,1344.3H0m972.1,0h27.5M32.1,27.5V0m0,1348.9v27.5M967.5,27.5V0m0,1348.9v27.5" class="gg_246"/>
</svg>