<?xml version="1.0" encoding="UTF-8" standalone="no"?>
<!DOCTYPE svg PUBLIC "-//W3C//DTD SVG 1.1//EN"
"http://www.w3.org/Graphics/SVG/1.1/DTD/svg11.dtd">
<svg viewBox="0 0 999 1376" version="1.1" xmlns="http://www.w3.org/2000/svg" xmlns:xlink="http://www.w3.org/1999/xlink">
<defs>
<clipPath id="c0_17"><path d="M32.1,1344.3V32.1H967.5V1344.3Z"/></clipPath>
<clipPath id="c1_17"><path d="M728.6,204.7V102.2H853V204.7Z"/></clipPath>
<style type="text/css"><![CDATA[
.g0_17{
fill: #FFFEF5;
}
.g1_17{
fill: #94D6DA;
}
.g2_17{
fill: #E9EC9A;
}
.g3_17{
fill: #FFF;
}
.g4_17{
fill: none;
stroke: #888A8D;
stroke-width: 0.412;
}
.g5_17{
fill: none;
stroke: #888A8D;
stroke-width: 0.33;
}
.g6_17{
fill: none;
stroke: #296765;
stroke-width: 0.687;
}
.g7_17{
fill: #296765;
}
.g8_17{
fill: none;
stroke: #FFF;
stroke-width: 1.909;
stroke-miterlimit: 10;
}
.g9_17{
fill: none;
stroke: #000;
stroke-width: 0.381;
stroke-miterlimit: 10;
}
]]></style>
</defs>
<path d="M32.1,1344.3H967.5V175H32.1V1344.3Z" class="g0_17"/>
<path d="M45.1,188H967.5V32.1H45.1V188Z" class="g1_17"/>
<path d="M32.1,188h13V32.1h-13V188Z" class="g1_17"/>
<path d="M307.6,237.8c0,0,-3.8,0,-3.8,3.7v29.9c0,0,0,3.8,3.8,3.8H607.3c0,0,3.7,0,3.7,-3.8V241.5c0,0,0,-3.7,-3.7,-3.7Z" class="g2_17"/>
<path d="M192.9,237.8c0,0,-3.8,0,-3.8,3.7v29c0,0,0,3.7,3.8,3.7H293.2c0,0,3.8,0,3.8,-3.7v-29c0,0,0,-3.7,-3.8,-3.7Z" class="g3_17"/>
<path d="M192.9,237.8c0,0,-3.8,0,-3.8,3.7v29c0,0,0,3.7,3.8,3.7H293.2c0,0,3.8,0,3.8,-3.7v-29c0,0,0,-3.7,-3.8,-3.7H192.9Z" class="g4_17"/>
<path d="M254.6,589.2c0,0,-2.5,0,-2.5,3.7v29.9c0,0,0,3.8,2.5,3.8H487.5c0,0,2.4,0,2.4,-3.8V592.9c0,0,0,-3.7,-2.4,-3.7Z" class="g2_17"/>
<path d="M254.6,630.4c0,0,-2.5,0,-2.5,3.7v30c0,0,0,3.7,2.5,3.7H487.5c0,0,2.4,0,2.4,-3.7v-30c0,0,0,-3.7,-2.4,-3.7Z" class="g2_17"/>
<path d="M504.1,589.2c0,0,-4.3,0,-4.3,4.4v28.7c0,0,0,4.4,4.3,4.4H604.7c0,0,4.3,0,4.3,-4.4V593.6c0,0,0,-4.4,-4.3,-4.4Z" class="g3_17"/>
<path d="M504.1,589.2c0,0,-4.3,0,-4.3,4.4v28.7c0,0,0,4.4,4.3,4.4H604.7c0,0,4.3,0,4.3,-4.4V593.6c0,0,0,-4.4,-4.3,-4.4H504.1Z" class="g5_17"/>
<path d="M504.1,629.7c0,0,-4.3,0,-4.3,4.4v28.7c0,0,0,4.4,4.3,4.4H604.7c0,0,4.3,0,4.3,-4.4V634.1c0,0,0,-4.4,-4.3,-4.4Z" class="g3_17"/>
<path d="M504.1,629.7c0,0,-4.3,0,-4.3,4.4v28.7c0,0,0,4.4,4.3,4.4H604.7c0,0,4.3,0,4.3,-4.4V634.1c0,0,0,-4.4,-4.3,-4.4H504.1Z" class="g5_17"/>
<path d="M398.7,618.7c4.9,0,8.8,-2.4,8.8,-5.3c0,-2.9,-3.9,-5.3,-8.8,-5.3c-4.8,0,-8.7,2.4,-8.7,5.3c0,2.9,3.9,5.3,8.7,5.3Zm-1.8,41.1c3.9,0,7.1,-2.3,7.1,-5.3c0,-2.9,-3.2,-5.2,-7.1,-5.2c-3.9,0,-7.1,2.3,-7.1,5.2c0,3,3.2,5.3,7.1,5.3Zm4.3,-41.4c0,0,9.7,4.1,7.1,-7.8c0,0,-3.9,-18,5.6,-14.3" class="g6_17"/>
<path d="M412.9,593l1,3.4l-3,2.5l8.3,-1.4Z" class="g7_17"/>
<path d="M398.9,659.6c0,0,9.6,4,7,-7.9c0,0,-3.9,-17.9,5.6,-14.3" class="g6_17"/>
<path d="M409.1,633.8l1,3.4l-3,2.5l8.3,-1.4Z" class="g7_17"/>
<path d="M254.6,926.7c0,0,-2.5,0,-2.5,3.7v30c0,0,0,3.7,2.5,3.7H487.5c0,0,2.4,0,2.4,-3.7v-30c0,0,0,-3.7,-2.4,-3.7Z" class="g2_17"/>
<path d="M254.6,967.9c0,0,-2.5,0,-2.5,3.8v29.9c0,0,0,3.7,2.5,3.7H487.5c0,0,2.4,0,2.4,-3.7V971.7c0,0,0,-3.8,-2.4,-3.8Z" class="g2_17"/>
<path d="M504.1,926.8c0,0,-4.3,0,-4.3,4.3v28.8c0,0,0,4.3,4.3,4.3H604.7c0,0,4.3,0,4.3,-4.3V931.1c0,0,0,-4.3,-4.3,-4.3Z" class="g3_17"/>
<path d="M504.1,926.8c0,0,-4.3,0,-4.3,4.3v28.8c0,0,0,4.3,4.3,4.3H604.7c0,0,4.3,0,4.3,-4.3V931.1c0,0,0,-4.3,-4.3,-4.3H504.1Z" class="g5_17"/>
<path d="M504.1,967.3c0,0,-4.3,0,-4.3,4.3v28.8c0,0,0,4.3,4.3,4.3H604.7c0,0,4.3,0,4.3,-4.3V971.6c0,0,0,-4.3,-4.3,-4.3Z" class="g3_17"/>
<path d="M504.1,967.3c0,0,-4.3,0,-4.3,4.3v28.8c0,0,0,4.3,4.3,4.3H604.7c0,0,4.3,0,4.3,-4.3V971.6c0,0,0,-4.3,-4.3,-4.3H504.1Z" class="g5_17"/>
<path d="M402,956.2c4.8,0,8.7,-2.4,8.7,-5.3c0,-2.9,-3.9,-5.3,-8.7,-5.3c-4.9,0,-8.8,2.4,-8.8,5.3c0,2.9,3.9,5.3,8.8,5.3Zm19.4,30.4c4.8,0,8.7,-2.4,8.7,-5.3c0,-2.9,-3.9,-5.3,-8.7,-5.3c-4.9,0,-8.8,2.4,-8.8,5.3c0,2.9,3.9,5.3,8.8,5.3Zm-8.8,-42.5c0,4.8,2.4,8.7,5.3,8.7c2.9,0,5.3,-3.9,5.3,-8.7c0,-4.9,-2.4,-8.8,-5.3,-8.8c-2.9,0,-5.3,3.9,-5.3,8.8Zm-11.4,53.3c4,0,7.1,-2.4,7.1,-5.3c0,-2.9,-3.1,-5.3,-7.1,-5.3c-3.9,0,-7.1,2.4,-7.1,5.3c0,2.9,3.2,5.3,7.1,5.3Z" class="g6_17"/>
<path clip-path="url(#c0_17)" d="M-421,179.3c0,0,-1.5,0,-1.5,1.6v5.6c0,0,0,1.5,1.5,1.5H866.4c0,0,1.5,0,1.5,-1.5v-5.6c0,0,0,-1.6,-1.5,-1.6Z" class="g2_17"/>
<image clip-path="url(#c1_17)" preserveAspectRatio="none" x="729" y="102" width="124" height="103" xlink:href="img/1.png"/>
<path d="M32.1,45.1H9.2m958.3,0h22.9M32.1,1331.3H9.2m958.3,0h22.9M45.1,32.1V9.2m0,1335.1v22.9M954.5,32.1V9.2m0,1335.1v22.9" class="g8_17"/>
<path d="M32.1,45.1H9.2m958.3,0h22.9M32.1,1331.3H9.2m958.3,0h22.9M45.1,32.1V9.2m0,1335.1v22.9M954.5,32.1V9.2m0,1335.1v22.9" class="g9_17"/>
<path d="M27.5,32.1H0m972.1,0h27.5M27.5,1344.3H0m972.1,0h27.5M32.1,27.5V0m0,1348.9v27.5M967.5,27.5V0m0,1348.9v27.5" class="g8_17"/>
<path d="M27.5,32.1H0m972.1,0h27.5M27.5,1344.3H0m972.1,0h27.5M32.1,27.5V0m0,1348.9v27.5M967.5,27.5V0m0,1348.9v27.5" class="g9_17"/>
</svg>