<?xml version="1.0" encoding="UTF-8" standalone="no"?>
<!DOCTYPE svg PUBLIC "-//W3C//DTD SVG 1.1//EN"
"http://www.w3.org/Graphics/SVG/1.1/DTD/svg11.dtd">
<svg viewBox="0 0 999 1376" version="1.1" xmlns="http://www.w3.org/2000/svg" xmlns:xlink="http://www.w3.org/1999/xlink">
<defs>
<clipPath id="c0_30"><path d="M32.1,1344.3V32.1H967.5V1344.3Z"/></clipPath>
<clipPath id="c1_30"><path d="M218.5,466.6V370.3h100v96.3Z"/></clipPath>
<clipPath id="c2_30"><path d="M218.5,601.8V502.1H319v99.7Z"/></clipPath>
<clipPath id="c3_30"><path d="M218.5,742.7V643H319v99.7Z"/></clipPath>
<clipPath id="c4_30"><path d="M388.8,466.6V370.3H488.9v96.3Z"/></clipPath>
<clipPath id="c5_30"><path d="M388.9,601.1v-99H489.4v99Z"/></clipPath>
<clipPath id="c6_30"><path d="M388.9,742.7V643h99.7v99.7Z"/></clipPath>
<clipPath id="c7_30"><path d="M556.1,466.6V370.3H656.2v96.3Z"/></clipPath>
<clipPath id="c8_30"><path d="M556.4,601.8V502.1h99.7v99.7Z"/></clipPath>
<clipPath id="c9_30"><path d="M556.4,742.7V643h99.7v99.7Z"/></clipPath>
<clipPath id="ca_30"><path d="M724.2,466.6V370.3H825v96.3Z"/></clipPath>
<clipPath id="cb_30"><path d="M724.8,601.8V502.1H825.3v99.7Z"/></clipPath>
<clipPath id="cc_30"><path d="M724.8,742.7V643h99.7v99.7Z"/></clipPath>
<clipPath id="cd_30"><path d="M745.7,333V320.6h14.5V333Z"/></clipPath>
<clipPath id="ce_30"><path d="M186,291.4l-6.5,-2.1L163.1,275.4V218.3H235v73.1Z"/></clipPath>
<clipPath id="cf_30"><path d="M186,872.2l-6.5,-2.1l-16.4,-14v-57H235v73.1Z"/></clipPath>
<style type="text/css"><![CDATA[
.g0_30{
fill: #FEFCF4;
}
.g1_30{
fill: #59816A;
}
.g2_30{
fill: #2E6E51;
}
.g3_30{
fill: #92A696;
}
.g4_30{
fill: #F9F6DB;
}
.g5_30{
fill: #DE524C;
}
.g6_30{
fill: #030303;
}
.g7_30{
fill: #FFF;
}
.g8_30{
fill: none;
stroke: #6381B7;
stroke-width: 0.763;
}
.g9_30{
fill: #A8AAAD;
}
.ga_30{
fill: none;
stroke: #949698;
stroke-width: 0.549;
}
.gb_30{
fill: none;
stroke: #BCBEC0;
stroke-width: 2.566;
}
.gc_30{
fill: #231F20;
}
.gd_30{
fill: #FCE8B0;
}
.ge_30{
fill: none;
stroke: #FFF;
stroke-width: 1.909;
stroke-miterlimit: 10;
}
.gf_30{
fill: none;
stroke: #000;
stroke-width: 0.381;
stroke-miterlimit: 10;
}
]]></style>
</defs>
<path d="M32.1,1344.3H954.5V32.1H32.1V1344.3Z" class="g0_30"/>
<g clip-path="url(#c0_30)">
<path d="M954.5,1344.3H1877V32.1H954.5V1344.3Z" class="g0_30"/>
<path d="M1777.4,163c0,0,30.3,0,30.3,-30.3v-4.4c0,0,0,-30.3,-30.3,-30.3H162.8c0,0,-30.3,0,-30.3,30.3v4.4c0,0,0,30.3,30.3,30.3Z" class="g1_30"/>
</g>
<path d="M183.7,130.5c0,26.3,-21.4,47.6,-47.7,47.6c-26.3,0,-47.6,-21.3,-47.6,-47.6c0,-26.3,21.3,-47.7,47.6,-47.7c26.3,0,47.7,21.4,47.7,47.7Z" class="g2_30"/>
<path d="M158.3,88.4c0,0,26.2,12.3,25.3,44.1c0,0,.4,18,-14.5,32.2c0,0,-12.5,13.6,-33.8,13.4L119.8,142.5L146.3,109Z" class="g3_30"/>
<path d="M138.2,95.4l-35.3,40.3c-2.2,9.2,5.7,10.6,5.7,10.6L162,135.2Z" class="g4_30"/>
<path d="M163.8,131.9c1,1.6,.6,3.7,-1,4.7c-1.6,1,-3.7,.4,-4.7,-1.2L135.8,98.9c-1,-1.6,-.5,-3.7,1.1,-4.7c1.6,-1,3.7,-.4,4.7,1.2Z" class="g5_30"/>
<path d="M112,121.2l-8.5,5.9c-7.2,4.1,-9.8,13,-5.8,19.8c4,6.9,11.5,9.1,18.7,4.9l17.1,25.4c.8,1.9,5,.3,7,-.6c1.9,-1,4.4,-3.3,3.5,-5.2L127.5,145.3l.7,-.8c.7,-.3,-15,-24,-16.2,-23.3Z" class="g6_30"/>
<path d="M168.7,102.2c.4,.5,0,1.4,-.7,1.9l-9.2,6.7c-.7,.5,-1.6,.6,-2,0c-.3,-.5,0,-1.3,.7,-1.8l9.2,-6.7c.8,-.6,1.7,-.6,2,-.1Z" class="g7_30"/>
<path d="M158.4,88.4c.5,.4,.6,1.3,.1,2.1l-5.9,9.8c-.5,.8,-1.3,1.2,-1.9,.9c-.5,-.4,-.5,-1.2,0,-2.1l5.9,-9.8c.5,-.8,1.3,-1.2,1.8,-.9Z" class="g7_30"/>
<path d="M176.2,121.9c.1,-.6,-.6,-1.2,-1.5,-1.3l-11.2,-1.4c-.9,-.1,-1.7,.4,-1.8,1c-.1,.6,.6,1.2,1.5,1.3l11.2,1.3c.9,.2,1.7,-.3,1.8,-.9Z" class="g7_30"/>
<path d="M145.1,303.6c0,0,-13,0,-13,13V748.9c0,0,0,13,13,13H832.9c0,0,13,0,13,-13V316.6c0,0,0,-13,-13,-13Z" class="g7_30"/>
<path d="M145.1,303.6c0,0,-13,0,-13,13V748.9c0,0,0,13,13,13H832.9c0,0,13,0,13,-13V316.6c0,0,0,-13,-13,-13H145.1Z" class="g8_30"/>
<path d="M192.9,355.8h563V339.6h-563v16.2Z" class="g7_30"/>
<image clip-path="url(#c1_30)" preserveAspectRatio="none" x="218" y="366" width="100" height="100" xlink:href="img/1.jpg"/>
<image clip-path="url(#c2_30)" preserveAspectRatio="none" x="218" y="501" width="102" height="101" xlink:href="img/2.jpg"/>
<image clip-path="url(#c3_30)" preserveAspectRatio="none" x="218" y="642" width="102" height="101" xlink:href="img/3.jpg"/>
<image clip-path="url(#c4_30)" preserveAspectRatio="none" x="389" y="366" width="100" height="100" xlink:href="img/4.jpg"/>
<image clip-path="url(#c5_30)" preserveAspectRatio="none" x="387" y="502" width="104" height="99" xlink:href="img/5.jpg"/>
<image clip-path="url(#c6_30)" preserveAspectRatio="none" x="389" y="643" width="100" height="100" xlink:href="img/6.jpg"/>
<image clip-path="url(#c7_30)" preserveAspectRatio="none" x="556" y="366" width="100" height="100" xlink:href="img/7.jpg"/>
<image clip-path="url(#c8_30)" preserveAspectRatio="none" x="556" y="502" width="100" height="100" xlink:href="img/8.jpg"/>
<image clip-path="url(#c9_30)" preserveAspectRatio="none" x="556" y="643" width="100" height="100" xlink:href="img/9.jpg"/>
<image clip-path="url(#ca_30)" preserveAspectRatio="none" x="725" y="366" width="100" height="100" xlink:href="img/10.jpg"/>
<image clip-path="url(#cb_30)" preserveAspectRatio="none" x="723" y="501" width="103" height="102" xlink:href="img/11.jpg"/>
<image clip-path="url(#cc_30)" preserveAspectRatio="none" x="725" y="643" width="100" height="100" xlink:href="img/12.jpg"/>
<path d="M361.2,671.6h23.6V363.9H361.2V671.6Z" class="g7_30"/>
<path d="M525.8,671.6h23.6V363.9H525.8V671.6Z" class="g7_30"/>
<path d="M693.8,671.6h23.6V363.9H693.8V671.6Z" class="g7_30"/>
<path d="M761.8,346c8.2,0,14.9,-6.4,14.9,-14.4c0,-8,-6.7,-14.5,-14.9,-14.5c-8.2,0,-14.9,6.5,-14.9,14.5c0,8,6.7,14.4,14.9,14.4Z" class="g9_30"/>
<path d="M761.8,346c8.2,0,14.9,-6.4,14.9,-14.4c0,-8,-6.7,-14.5,-14.9,-14.5c-8.2,0,-14.9,6.5,-14.9,14.5c0,8,6.7,14.4,14.9,14.4Z" class="ga_30"/>
<path d="M761.8,336.9c3.1,0,5.5,-2.4,5.5,-5.3c0,-3,-2.4,-5.4,-5.5,-5.4c-3,0,-5.5,2.4,-5.5,5.4c0,2.9,2.5,5.3,5.5,5.3Z" class="g7_30"/>
<path d="M761.8,336.9c3.1,0,5.5,-2.4,5.5,-5.3c0,-3,-2.4,-5.4,-5.5,-5.4c-3,0,-5.5,2.4,-5.5,5.4c0,2.9,2.5,5.3,5.5,5.3Z" class="gb_30"/>
<g clip-path="url(#cd_30)" opacity="0.3">
<path d="M747.2,330.8v0c0,0,0,-4.8,3.7,-8.6l7.8,6.7c0,0,-1.1,.9,-1.1,2.6Z" class="g7_30"/>
</g>
<path d="M766.4,331.5c0,0,-3.4,0,-3.4,3.4v8.7c0,0,0,3.5,3.4,3.5h43.5c0,0,3.5,0,3.5,-3.5v-8.7c0,0,0,-3.4,-3.5,-3.4Z" class="gc_30"/>
<path d="M145.1,889.2c0,0,-13,0,-13,13v319.7c0,0,0,13,13,13H832.9c0,0,13,0,13,-13V902.2c0,0,0,-13,-13,-13Z" class="g7_30"/>
<path d="M145.1,889.2c0,0,-13,0,-13,13v319.7c0,0,0,13,13,13H832.9c0,0,13,0,13,-13V902.2c0,0,0,-13,-13,-13H145.1Z" class="g8_30"/>
<path d="M189.7,951.8h563V931.6h-563v20.2Z" class="g7_30"/>
<path d="M218.6,220.5c0,0,-13,0,-13,13v47.6c0,0,0,13,13,13H833.3c0,0,13,0,13,-13V233.5c0,0,0,-13,-13,-13Z" class="gd_30"/>
<image clip-path="url(#ce_30)" preserveAspectRatio="none" x="161" y="217" width="75" height="76" xlink:href="img/13.png"/>
<path d="M213.4,286.7c0,0,-26.9,11.3,-51.1,-12.7c0,0,15.1,25.3,49.3,23.9c0,0,24.7,.4,20.2,-10.1c0,0,1.2,-4.4,-18.4,-1.1Z" class="gd_30"/>
<path d="M218.6,801.2c0,0,-13,0,-13,13v47.6c0,0,0,13,13,13H833.3c0,0,13,0,13,-13V814.2c0,0,0,-13,-13,-13Z" class="gd_30"/>
<image clip-path="url(#cf_30)" preserveAspectRatio="none" x="161" y="797" width="75" height="77" xlink:href="img/14.png"/>
<path d="M213.4,867.5c0,0,-26.9,11.3,-51.1,-12.8c0,0,15.1,25.3,49.3,24c0,0,24.7,.3,20.2,-10.1c0,0,1.2,-4.5,-18.4,-1.1Z" class="gd_30"/>
<path d="M32.1,45.1H9.2m958.3,0h22.9M32.1,1331.3H9.2m958.3,0h22.9M45.1,32.1V9.2m0,1335.1v22.9M954.5,32.1V9.2m0,1335.1v22.9" class="ge_30"/>
<path d="M32.1,45.1H9.2m958.3,0h22.9M32.1,1331.3H9.2m958.3,0h22.9M45.1,32.1V9.2m0,1335.1v22.9M954.5,32.1V9.2m0,1335.1v22.9" class="gf_30"/>
<path d="M27.5,32.1H0m972.1,0h27.5M27.5,1344.3H0m972.1,0h27.5M32.1,27.5V0m0,1348.9v27.5M967.5,27.5V0m0,1348.9v27.5" class="ge_30"/>
<path d="M27.5,32.1H0m972.1,0h27.5M27.5,1344.3H0m972.1,0h27.5M32.1,27.5V0m0,1348.9v27.5M967.5,27.5V0m0,1348.9v27.5" class="gf_30"/>
</svg>