<?xml version="1.0" encoding="UTF-8" standalone="no"?>
<!DOCTYPE svg PUBLIC "-//W3C//DTD SVG 1.1//EN"
"http://www.w3.org/Graphics/SVG/1.1/DTD/svg11.dtd">
<svg viewBox="0 0 999 1376" version="1.1" xmlns="http://www.w3.org/2000/svg" xmlns:xlink="http://www.w3.org/1999/xlink">
<defs>
<clipPath id="c0_315"><path d="M32.1,1344.3V32.1H967.5V1344.3Z"/></clipPath>
<clipPath id="c1_315"><path d="M685.5,824.4V749.9h82.3v74.5Z"/></clipPath>
<clipPath id="c2_315"><path d="M538.3,824.2V749.7h74.9v74.5Z"/></clipPath>
<clipPath id="c3_315"><path d="M381.2,824.1V751.5h81.7v72.6Z"/></clipPath>
<clipPath id="c4_315"><path d="M229.9,822.6V747.7h76.4v74.9Z"/></clipPath>
<style type="text/css"><![CDATA[
.g0_315{
fill: #FEFCF4;
}
.g1_315{
fill: #FFF;
}
.g2_315{
fill: none;
stroke: #6381B7;
stroke-width: 0.763;
}
.g3_315{
fill: #F0E8F3;
}
.g4_315{
fill: none;
stroke: #231F20;
stroke-width: 0.381;
stroke-miterlimit: 10;
}
.g5_315{
fill: #93BEDA;
}
.g6_315{
fill: #6381B7;
}
.g7_315{
fill: none;
stroke: #6381B7;
stroke-width: 0.381;
stroke-dasharray: 2,1;
}
.g8_315{
fill: none;
stroke: #6381B7;
stroke-width: 0.381;
}
.g9_315{
fill: #F3F8FC;
}
.ga_315{
fill: none;
stroke: #8BBEE7;
stroke-width: 1.527;
stroke-linecap: round;
stroke-linejoin: round;
stroke-dasharray: 0,5;
}
.gb_315{
fill: none;
stroke: #8BBEE7;
stroke-width: 1.527;
stroke-linecap: round;
stroke-linejoin: round;
}
.gc_315{
fill: #7CA7D8;
}
.gd_315{
fill: #BFD62F;
}
.ge_315{
fill: #3D3B39;
}
.gf_315{
fill: #F5CA58;
}
.gg_315{
fill: none;
stroke: #FFF;
stroke-width: 1.909;
stroke-miterlimit: 10;
}
.gh_315{
fill: none;
stroke: #000;
stroke-width: 0.381;
stroke-miterlimit: 10;
}
]]></style>
</defs>
<path clip-path="url(#c0_315)" d="M-877.3,1343.2H45.1V32.1H-877.3V1343.2Z" class="g0_315"/>
<path d="M45.1,1344.3H967.5V32.1H45.1V1344.3Z" class="g0_315"/>
<path d="M166.7,153.3c0,0,-13,0,-13,13V954.1c0,0,0,13,13,13H854.5c0,0,13,0,13,-13V166.3c0,0,0,-13,-13,-13Z" class="g1_315"/>
<path d="M166.7,153.3c0,0,-13,0,-13,13V954.1c0,0,0,13,13,13H854.5c0,0,13,0,13,-13V166.3c0,0,0,-13,-13,-13H166.7Z" class="g2_315"/>
<path d="M239.2,188.3c0,0,-13,0,-13,13V275c0,0,0,13,13,13h563c0,0,13,0,13,-13V201.3c0,0,0,-13,-13,-13Z" class="g3_315"/>
<path d="M351.6,250.2h90.2" class="g4_315"/>
<path d="M239.2,343.7c0,0,-13,0,-13,13v73.6c0,0,0,13,13,13h563c0,0,13,0,13,-13V356.7c0,0,0,-13,-13,-13Z" class="g3_315"/>
<path d="M502.5,405.6h90.2" class="g4_315"/>
<path d="M239.2,499.4c0,0,-13,0,-13,13v73.7c0,0,0,12.9,13,12.9h563c0,0,13,0,13,-12.9V512.4c0,0,0,-13,-13,-13Z" class="g3_315"/>
<path d="M308.5,561.3h90.3" class="g4_315"/>
<image clip-path="url(#c1_315)" preserveAspectRatio="none" x="685" y="749" width="83" height="77" xlink:href="img/1.jpg"/>
<image clip-path="url(#c2_315)" preserveAspectRatio="none" x="537" y="748" width="76" height="77" xlink:href="img/2.jpg"/>
<image clip-path="url(#c3_315)" preserveAspectRatio="none" x="381" y="748" width="82" height="77" xlink:href="img/3.jpg"/>
<image clip-path="url(#c4_315)" preserveAspectRatio="none" x="229" y="747" width="78" height="77" xlink:href="img/4.jpg"/>
<path d="M727.8,898.9c2,0,3.6,-1.6,3.6,-3.6c0,-2,-1.6,-3.6,-3.6,-3.6c-2,0,-3.6,1.6,-3.6,3.6c0,2,1.6,3.6,3.6,3.6Z" class="g5_315"/>
<path d="M575.4,898.9c2,0,3.6,-1.6,3.6,-3.6c0,-2,-1.6,-3.6,-3.6,-3.6c-2,0,-3.6,1.6,-3.6,3.6c0,2,1.6,3.6,3.6,3.6Z" class="g5_315"/>
<path d="M423,898.9c2,0,3.6,-1.6,3.6,-3.6c0,-2,-1.6,-3.6,-3.6,-3.6c-2,0,-3.6,1.6,-3.6,3.6c0,2,1.6,3.6,3.6,3.6Z" class="g5_315"/>
<path d="M270.6,898.9c2,0,3.6,-1.6,3.6,-3.6c0,-2,-1.6,-3.6,-3.6,-3.6c-2,0,-3.6,1.6,-3.6,3.6c0,2,1.6,3.6,3.6,3.6Z" class="g5_315"/>
<path d="M228.9,909.9c0,0,-8.6,0,-8.6,8.7v15.1c0,0,0,8.7,8.6,8.7h91c0,0,8.7,0,8.7,-8.7V918.6c0,0,0,-8.7,-8.7,-8.7Z" class="g3_315"/>
<path d="M380.9,909.9c0,0,-8.7,0,-8.7,8.7v15.1c0,0,0,8.7,8.7,8.7h90.9c0,0,8.7,0,8.7,-8.7V918.6c0,0,0,-8.7,-8.7,-8.7Z" class="g3_315"/>
<path d="M532.8,909.9c0,0,-8.6,0,-8.6,8.7v15.1c0,0,0,8.7,8.6,8.7h91c0,0,8.6,0,8.6,-8.7V918.6c0,0,0,-8.7,-8.6,-8.7Z" class="g3_315"/>
<path d="M684.8,909.9c0,0,-8.7,0,-8.7,8.7v15.1c0,0,0,8.7,8.7,8.7h90.9c0,0,8.7,0,8.7,-8.7V918.6c0,0,0,-8.7,-8.7,-8.7Z" class="g3_315"/>
<path d="M727.8,838.3c2,0,3.6,-1.6,3.6,-3.6c0,-2,-1.6,-3.6,-3.6,-3.6c-2,0,-3.6,1.6,-3.6,3.6c0,2,1.6,3.6,3.6,3.6Z" class="g5_315"/>
<path d="M575.4,838.3c2,0,3.6,-1.6,3.6,-3.6c0,-2,-1.6,-3.6,-3.6,-3.6c-2,0,-3.6,1.6,-3.6,3.6c0,2,1.6,3.6,3.6,3.6Z" class="g5_315"/>
<path d="M423,838.3c2,0,3.6,-1.6,3.6,-3.6c0,-2,-1.6,-3.6,-3.6,-3.6c-2,0,-3.6,1.6,-3.6,3.6c0,2,1.6,3.6,3.6,3.6Z" class="g5_315"/>
<path d="M270.6,838.3c2,0,3.6,-1.6,3.6,-3.6c0,-2,-1.6,-3.6,-3.6,-3.6c-2,0,-3.6,1.6,-3.6,3.6c0,2,1.6,3.6,3.6,3.6Z" class="g5_315"/>
<path d="M475.9,985.7c0,0,-4.3,0,-4.3,4.3v10.8c0,0,0,4.3,4.3,4.3h30.3c0,0,4.4,0,4.4,-4.3V990c0,0,0,-4.3,-4.4,-4.3Z" class="g6_315"/>
<path d="M462.7,978.2V1013m1.4,1H866.8m.9,-1.4V977.8m-1.3,-1H463.7" class="g7_315"/>
<path d="M462.7,1013.4v.6h.6m403.8,0h.6v-.6m0,-36v-.6h-.6m-403.8,0h-.6v.6" class="g8_315"/>
<path d="M154.1,1243.9h713V1121h-713v122.9Z" class="g9_315"/>
<path d="M154.1,1125.6v116m4.6,2.3H864.9m2.2,-4.5V1123.3m-4.5,-2.3H156.4" class="ga_315"/>
<path d="M154.1,1243.9v0m713.1,0v0m0,-122.9v0m-713.1,0v0" class="gb_315"/>
<path d="M153.3,1124.3v-28.7c0,0,0,-8.6,8.7,-8.6H859.3c0,0,8.6,0,8.6,8.6v29.2Z" class="gc_315"/>
<path d="M195.5,1091.1c3.4,0,6.1,-2.8,6.1,-6.1c0,-3.4,-2.7,-6.1,-6.1,-6.1c-3.4,0,-6.1,2.7,-6.1,6.1c0,3.3,2.7,6.1,6.1,6.1Z" class="gd_315"/>
<path d="M195.5,1093c4.4,0,8,-3.6,8,-8c0,-4.5,-3.6,-8.1,-8,-8.1c-4.4,0,-8,3.6,-8,8.1c0,4.4,3.6,8,8,8m0,-14.1c3.4,0,6.1,2.7,6.1,6.1c0,3.3,-2.7,6.1,-6.1,6.1c-3.4,0,-6.1,-2.8,-6.1,-6.1c0,-3.4,2.7,-6.1,6.1,-6.1Z" class="ge_315"/>
<path d="M180.9,1107.1h29.2v-3.8c0,-4.4,-3.5,-8,-7.9,-8H188.8c-4.3,0,-7.9,3.6,-7.9,8Z" class="gd_315"/>
<path d="M172.6,1112.4h45.8V1109H172.6v3.4Z" class="g1_315"/>
<path d="M219.4,1107.1h-2.7v-11.6c0,-.2,-.1,-.5,-.3,-.6l-2.6,-2.6c.3,-.6,.5,-1.2,.5,-1.8c0,-2,-1.6,-3.6,-3.6,-3.6c-2,0,-3.6,1.6,-3.6,3.6c0,2,1.6,3.6,3.6,3.6c.7,0,1.3,-.2,1.8,-.5l2.3,2.3v11.2H212v-3.8c0,-5.5,-4.4,-9.9,-9.8,-9.9H188.8c-5.4,0,-9.8,4.4,-9.8,9.9v3.8h-7.4c-.5,0,-.9,.4,-.9,.9v5.4c0,.5,.4,.9,.9,.9h2.7v11.3c0,.6,.4,1,.9,1h40.6c.5,0,.9,-.4,.9,-1v-11.3h2.7c.5,0,.9,-.4,.9,-.9V1108c0,-.5,-.4,-.9,-.9,-.9m-8.7,-14.9c-.9,0,-1.7,-.8,-1.7,-1.7c0,-.9,.8,-1.7,1.7,-1.7c.9,0,1.7,.8,1.7,1.7c0,.9,-.8,1.7,-1.7,1.7m7.7,20.2H172.6V1109h45.8Zm-3.6,12.3H176.2v-10.4h38.6v10.4Zm-26,-29.4h13.4c4.4,0,7.9,3.6,7.9,8v3.8H180.9v-3.8c0,-4.4,3.6,-8,7.9,-8Z" class="ge_315"/>
<path d="M176.2,1124.7h38.6v-10.4H176.2v10.4Zm2.8,-7.6c0,-.2,.2,-.4,.5,-.4h32c.3,0,.5,.2,.5,.4v4.8c0,.2,-.2,.4,-.5,.4h-32c-.3,0,-.5,-.2,-.5,-.4Z" class="g1_315"/>
<path d="M180,1121.4h31v-3.8H180v3.8Z" class="gf_315"/>
<path d="M179.5,1122.3h32c.3,0,.5,-.2,.5,-.4v-4.8c0,-.2,-.2,-.4,-.5,-.4h-32c-.3,0,-.5,.2,-.5,.4v4.8c0,.2,.2,.4,.5,.4m.5,-4.7h31v3.8H180Z" class="ge_315"/>
<path d="M212.4,1090.5c0,-.9,-.8,-1.7,-1.7,-1.7c-.9,0,-1.7,.8,-1.7,1.7c0,.9,.8,1.7,1.7,1.7c.9,0,1.7,-.8,1.7,-1.7Z" class="g1_315"/>
<path d="M32.1,45.1H9.2m958.3,0h22.9M32.1,1331.3H9.2m958.3,0h22.9M45.1,32.1V9.2m0,1335.1v22.9M954.5,32.1V9.2m0,1335.1v22.9" class="gg_315"/>
<path d="M32.1,45.1H9.2m958.3,0h22.9M32.1,1331.3H9.2m958.3,0h22.9M45.1,32.1V9.2m0,1335.1v22.9M954.5,32.1V9.2m0,1335.1v22.9" class="gh_315"/>
<path d="M27.5,32.1H0m972.1,0h27.5M27.5,1344.3H0m972.1,0h27.5M32.1,27.5V0m0,1348.9v27.5M967.5,27.5V0m0,1348.9v27.5" class="gg_315"/>
<path d="M27.5,32.1H0m972.1,0h27.5M27.5,1344.3H0m972.1,0h27.5M32.1,27.5V0m0,1348.9v27.5M967.5,27.5V0m0,1348.9v27.5" class="gh_315"/>
</svg>