<?xml version="1.0" encoding="UTF-8" standalone="no"?>
<!DOCTYPE svg PUBLIC "-//W3C//DTD SVG 1.1//EN"
"http://www.w3.org/Graphics/SVG/1.1/DTD/svg11.dtd">
<svg viewBox="0 0 999 1376" version="1.1" xmlns="http://www.w3.org/2000/svg" xmlns:xlink="http://www.w3.org/1999/xlink">
<defs>
<clipPath id="c0_161"><path d="M153.3,1246V128.2H867.9V1246Z"/></clipPath>
<clipPath id="c1_161"><path d="M198.7,467c-14,0,-14,-14,-14,-14V266.4c0,-14,14,-14,14,-14H408.5c14.1,0,14.1,14,14.1,14V453c0,14,-14.1,14,-14.1,14Z"/></clipPath>
<clipPath id="c2_161"><path d="M606.2,706.9c-14,0,-14,-14.1,-14,-14.1V506.2c0,-14,14,-14,14,-14H816c14,0,14,14,14,14V692.8c0,14.1,-14,14.1,-14,14.1Z"/></clipPath>
<clipPath id="c3_161"><path d="M198.7,966.7c-14,0,-14,-14,-14,-14V766.1c0,-14.1,14,-14.1,14,-14.1H408.5c14.1,0,14.1,14.1,14.1,14.1V952.7c0,14,-14.1,14,-14.1,14Z"/></clipPath>
<clipPath id="c4_161"><path d="M606.2,1221.5c-14,0,-14,-14,-14,-14V1020.9c0,-14.1,14,-14.1,14,-14.1H816c14,0,14,14.1,14,14.1v186.6c0,14,-14,14,-14,14Z"/></clipPath>
<style type="text/css"><![CDATA[
.g0_161{
fill: #FFF;
}
.g1_161{
fill: none;
stroke: #231F20;
stroke-width: 0.756;
stroke-miterlimit: 3;
}
.g2_161{
fill: none;
stroke: #949698;
stroke-width: 0.684;
}
.g3_161{
fill: #25408F;
}
.g4_161{
fill: #6381B7;
}
.g5_161{
fill: #FFDE2C;
}
.g6_161{
fill: none;
stroke: #231F20;
stroke-width: 1.451;
stroke-miterlimit: 10;
}
.g7_161{
fill: #D2D3D5;
}
.g8_161{
fill: #A8AAAD;
}
.g9_161{
fill: none;
stroke: #231F20;
stroke-width: 0.828;
stroke-miterlimit: 10;
}
.ga_161{
fill: #6CCFF6;
}
.gb_161{
fill: none;
stroke: #231F20;
stroke-width: 0.828;
stroke-linecap: round;
stroke-linejoin: round;
}
.gc_161{
fill: none;
stroke: #231F20;
stroke-width: 1.451;
stroke-linecap: round;
stroke-linejoin: round;
}
.gd_161{
fill: none;
stroke: #FFF;
stroke-width: 1.909;
stroke-miterlimit: 10;
}
.ge_161{
fill: none;
stroke: #000;
stroke-width: 0.381;
stroke-miterlimit: 10;
}
]]></style>
</defs>
<path d="M153.3,1246H867.9V128.2H153.3V1246Z" class="g0_161"/>
<image clip-path="url(#c0_161)" preserveAspectRatio="none" x="151" y="127" width="719" height="1121" xlink:href="img/1.jpg"/>
<path d="M388.5,183.1h-4.2V191H382V174.1h2.3v7.1h4.2v1.9Zm-17,15.4c-.8,0,-1.4,-.2,-1.8,-.6c-.4,-.3,-.6,-.9,-.6,-1.6v-6.6h2.3v6.2c0,.3,0,.5,.1,.6c.1,.1,.4,.2,.7,.2h7.1c1.1,0,2,-.1,2.9,-.2c.8,-.1,1.7,-.3,2.6,-.7l.5,1.8c-1,.3,-2,.5,-3,.7c-.9,.1,-1.9,.2,-2.9,.2h-7.9Zm6,-15.8c-.3,.8,-.8,1.4,-1.4,1.9c-.6,.6,-1.2,1,-2,1.3c-.8,.3,-1.6,.5,-2.5,.5c-1,0,-1.8,-.2,-2.6,-.5c-.8,-.3,-1.5,-.8,-2,-1.3c-.6,-.6,-1,-1.2,-1.3,-2c-.3,-.7,-.5,-1.5,-.5,-2.3c0,-.8,.2,-1.6,.5,-2.3c.3,-.8,.8,-1.4,1.4,-2c.5,-.5,1.2,-.9,2,-1.2c.7,-.3,1.6,-.5,2.5,-.5c.9,0,1.8,.2,2.6,.5c.8,.3,1.4,.8,2,1.3c.5,.6,1,1.2,1.3,1.9c.3,.8,.5,1.5,.5,2.3c0,.9,-.2,1.7,-.5,2.4Zm-2.9,-5.3c-.7,-.9,-1.7,-1.3,-3,-1.3c-1.3,0,-2.3,.4,-3,1.3c-.7,.8,-1.1,1.8,-1.1,2.9c0,1.2,.4,2.2,1.1,3c.7,.8,1.7,1.2,3,1.2c1.3,0,2.3,-.4,3,-1.2c.7,-.8,1.1,-1.8,1.1,-3c0,-1.1,-.4,-2.1,-1.1,-2.9ZM391,174.8h8.6c.4,0,.7,0,1,.2c.2,.1,.4,.3,.5,.5c.1,.2,.1,.5,.1,.7c0,.2,0,.5,0,.7c-.2,.8,-.5,1.7,-.8,2.5c-.4,.9,-.9,1.7,-1.4,2.5c.6,.2,1.1,.4,1.5,.7c.4,.3,.8,.6,1.1,.9c.4,.5,.8,1.1,1.4,1.8c.5,.6,1,1.2,1.4,1.7l-1.5,1.4c-.3,-.3,-.5,-.6,-.7,-.9c-.3,-.3,-.5,-.6,-.8,-.9c-.2,-.3,-.4,-.6,-.7,-.9c-.2,-.2,-.4,-.5,-.7,-.8c-.2,-.3,-.6,-.6,-.9,-.9c-.3,-.2,-.7,-.5,-1.2,-.6c-.9,1,-1.9,1.9,-3.1,2.8c-1.1,.9,-2.3,1.6,-3.6,2.2l-1,-1.9c2.3,-1.1,4.2,-2.4,5.7,-4c1.5,-1.6,2.5,-3.4,2.9,-5.2c0,-.2,0,-.4,0,-.6c-.1,-.1,-.3,-.2,-.6,-.2H391v-1.7Zm11.8,5.1h4.5v-5.8h2.3V191h-2.3v-9.3h-4.5v-1.8Zm-6.1,18.6c-.9,0,-1.5,-.2,-1.9,-.6c-.3,-.3,-.5,-.9,-.5,-1.6V190h2.2v5.9c0,.3,.1,.5,.2,.6c.1,.1,.3,.2,.7,.2h7.1c1,0,2,-.1,2.8,-.2c.9,-.1,1.8,-.3,2.7,-.7l.5,1.8c-1.1,.3,-2.1,.5,-3,.7c-.9,.1,-1.9,.2,-3,.2h-7.8ZM425.2,186c-.3,.6,-.7,1.2,-1.3,1.6c-.5,.4,-1.1,.8,-1.8,1c-.7,.2,-1.5,.4,-2.3,.4c-.8,0,-1.5,-.1,-2.2,-.4c-.7,-.2,-1.3,-.5,-1.9,-1c-.5,-.4,-.9,-.9,-1.2,-1.5c-.3,-.6,-.5,-1.3,-.5,-2.1c0,-.7,.2,-1.3,.5,-1.9c.3,-.6,.7,-1.2,1.2,-1.6c.5,-.4,1.2,-.8,1.9,-1c.7,-.3,1.4,-.4,2.2,-.4c.9,0,1.6,.1,2.4,.4c.7,.2,1.3,.6,1.8,1c.5,.4,1,1,1.3,1.6c.3,.6,.4,1.2,.4,1.9c0,.8,-.2,1.4,-.5,2Zm11.5,-2.4h-4.3v7.9h-2.2V174.1h2.2v7.6h4.3v1.9Zm-17,14.9c-.8,0,-1.4,-.2,-1.8,-.6c-.4,-.3,-.6,-.9,-.6,-1.6v-5.2h2.3v4.8c0,.3,0,.5,.1,.6c.1,.1,.3,.2,.7,.2h7.1c1.1,0,2,-.1,2.8,-.2c.9,-.1,1.8,-.3,2.7,-.7l.5,1.8c-1.1,.3,-2,.5,-3,.7c-.9,.1,-1.9,.2,-2.9,.2h-7.9Zm2.7,-16.8c-.7,-.5,-1.6,-.8,-2.6,-.8c-.9,0,-1.8,.3,-2.5,.8c-.7,.6,-1,1.3,-1,2.3c0,1.1,.3,1.9,1,2.4c.7,.5,1.6,.8,2.5,.8c1,0,1.9,-.3,2.6,-.8c.7,-.5,1,-1.3,1,-2.4c0,-1,-.3,-1.7,-1,-2.3Zm4.7,-3.4H412.6v-1.8h5.5c.2,-.4,.4,-.8,.4,-1.1c.1,-.3,.2,-.6,.2,-1c0,-.1,-.1,-.2,-.1,-.3c0,-.1,0,-.2,0,-.3c-.1,-.1,-.1,-.2,-.1,-.3c-.1,-.1,-.1,-.2,-.1,-.3l2.1,-.7c.2,.3,.2,.6,.3,.9c0,.3,0,.6,0,.9c0,.4,-.1,.8,-.2,1.2c-.1,.3,-.2,.7,-.4,1h6.9v1.8Zm22.5,5.7c0,.3,.1,.5,.2,.7c.1,.1,.3,.2,.6,.2h5.7c1.2,0,2.3,-.1,3.4,-.2c1.1,-.1,2.2,-.3,3.4,-.6l.4,1.7c-1.2,.3,-2.4,.6,-3.5,.7c-1.2,.2,-2.4,.2,-3.6,.2v5.4H466v1.8H444.7v-1.8H454v-5.4h-3.7c-1,0,-1.7,-.2,-2.2,-.6c-.5,-.4,-.7,-1,-.7,-1.8v-9.2h15.3v1.8H449.6V184Zm26.9,13.8v-9.1h-8.9v-1.9h21.3v1.9h-10v9.1h-2.4Zm5.7,-12.7c.3,-1.3,.5,-2.6,.7,-3.9c.2,-1.2,.3,-2.6,.3,-4c0,-.3,0,-.5,-.1,-.6c-.1,-.1,-.3,-.1,-.5,-.1H470v-1.8h13.3c.8,0,1.4,.2,1.7,.5c.3,.4,.4,1,.4,1.6c0,1.5,-.1,3,-.3,4.4c-.2,1.4,-.5,2.8,-.8,4.3l-2.1,-.4ZM510.1,184c-.4,.3,-.8,.5,-1.3,.7c-.5,.2,-1.1,.4,-1.6,.5c-.6,.2,-1.2,.3,-1.7,.4c-.6,.1,-1.1,.1,-1.6,.1h-2.6c-1,0,-1.7,-.2,-2.1,-.6c-.5,-.4,-.7,-1,-.7,-1.8v-8.8h11.6V184Zm-1.6,5.5c.2,-.3,.3,-.7,.4,-1c.1,-.4,.1,-.8,.1,-1.2v-.7h2.3c0,.6,-.1,1.1,-.2,1.6c-.1,.5,-.3,.9,-.5,1.3H516c.3,0,.6,.1,.8,.3c.2,.1,.4,.3,.4,.5c.1,.2,.1,.4,0,.7c-.1,.2,-.2,.4,-.3,.6c-.4,.5,-.9,1,-1.5,1.4c-.5,.5,-1.1,1,-1.7,1.4c.5,0,1,.2,1.4,.3c.5,.1,.9,.3,1.2,.5c.2,.2,.4,.3,.7,.5c.2,.1,.5,.3,.8,.4c.3,.2,.6,.4,.9,.6c.2,.2,.5,.3,.8,.5l-1,1.6c-.4,-.2,-.7,-.4,-1,-.6c-.2,-.1,-.5,-.3,-.8,-.5c-.3,-.2,-.6,-.4,-.9,-.6c-.2,-.1,-.5,-.3,-.8,-.5c-.2,-.1,-.4,-.2,-.6,-.3c-.2,-.1,-.4,-.2,-.7,-.3c-.3,-.1,-.6,-.2,-.9,-.3c-.3,0,-.7,-.1,-1.1,-.2c-1.4,.8,-3,1.5,-4.7,2.1c-1.6,.5,-3.3,.9,-4.8,1.2l-.5,-2c1.3,-.2,2.6,-.5,3.8,-.9c1.2,-.3,2.2,-.7,3.3,-1.1c1,-.4,1.9,-.9,2.8,-1.5c.9,-.5,1.8,-1.2,2.7,-1.9H502.7v-1.9h5.8Zm-7.8,-13.3V183c0,.3,.1,.6,.2,.7c.2,.1,.4,.2,.7,.2h2.3c.8,0,1.5,-.1,2.2,-.2c.6,-.1,1.2,-.4,1.8,-.7v-6.8h-7.2Zm14.8,-2.1h2.2v13.4h-2.2V174.1ZM528.6,190.7c2.7,-1.8,4.9,-3.8,6.5,-6c1.6,-2.2,2.5,-4.5,2.7,-6.7c.1,-.3,0,-.6,-.1,-.7c-.2,-.1,-.4,-.1,-.6,-.1h-8.7v-1.9h9.7c.8,0,1.3,.3,1.6,.7c.3,.5,.4,1.1,.4,1.8c-.3,2.6,-1.3,5.1,-3,7.7c-1.7,2.5,-4.1,4.8,-7.2,7l-1.3,-1.8ZM545,174.4h2.2v22.5H545V174.4ZM551.6,190.3c1,-.8,2,-1.6,3,-2.5c.9,-.8,1.7,-1.8,2.4,-2.8c.7,-1,1.3,-2.1,1.7,-3.3c.5,-1.2,.7,-2.4,.8,-3.7c0,-.3,0,-.5,-.1,-.7c0,-.1,-.2,-.1,-.5,-.1h-7.1v-1.9h7.8c.8,0,1.4,.3,1.7,.7c.3,.4,.5,1,.5,1.6c-.1,.3,-.1,.7,-.1,1c-.1,.3,-.1,.6,-.2,.9h3.6v-5.1h2.2v21.9h-2.2v-8h-4.8v-1.8h4.8v-5.2h-4c-.7,2.3,-1.7,4.4,-3.2,6.1c-1.5,1.7,-3.2,3.3,-5,4.7l-1.3,-1.8Zm19.1,-15.9h2.2v22.5h-2.2V174.4ZM590.5,174.8c.2,.5,.3,1.1,.4,1.6c.1,.5,.2,1.2,.2,1.9c0,.9,0,1.9,-.1,2.7c-.1,.8,-.3,1.6,-.4,2.3c.6,.2,1.2,.4,1.7,.7c.4,.3,.9,.7,1.2,1.1c.4,.5,.9,1.3,1.5,2.2c.6,.9,1.3,2,2.1,3.1l-1.7,1.3c-.6,-1,-1.3,-2,-1.9,-2.9c-.6,-.9,-1.1,-1.7,-1.6,-2.3c-.2,-.3,-.5,-.6,-.8,-.8c-.3,-.3,-.7,-.5,-1.2,-.7c-.1,.3,-.3,.6,-.4,.9c-.2,.2,-.3,.5,-.5,.8c-.7,.9,-1.4,1.9,-2.3,2.7c-.8,.9,-1.8,1.8,-2.8,2.6l-1.3,-1.7c1,-.8,1.8,-1.6,2.6,-2.3c.8,-.8,1.4,-1.6,2,-2.4c.7,-1,1.1,-2.1,1.3,-3.4c.2,-1.2,.3,-2.5,.3,-3.8c0,-.6,0,-1.1,-.1,-1.6c-.2,-.5,-.3,-.9,-.4,-1.2l2.2,-.8Zm16.2,10.3h-4.4v11.8h-2.2V174.4h2.2v8.9h4.4v1.8Zm22.4,2.2H607.8v-1.8h5.1v-4.2c-.4,-.4,-.7,-.9,-.9,-1.4c-.2,-.5,-.3,-1.1,-.3,-1.7c0,-.8,.1,-1.5,.4,-2.1c.4,-.6,.8,-1.1,1.4,-1.6c.6,-.4,1.3,-.7,2.1,-.9c.8,-.3,1.7,-.4,2.6,-.4c1.9,0,3.5,.5,4.7,1.3c1.3,.9,1.9,2.1,1.9,3.7c0,.6,-.1,1.1,-.3,1.6c-.3,.5,-.5,1,-.9,1.4v4.3h5.5v1.8Zm-4.6,9.1c-.4,.6,-.8,1.2,-1.4,1.6c-.6,.5,-1.3,.8,-2.1,1c-.8,.3,-1.7,.4,-2.6,.4c-1,0,-1.8,-.1,-2.7,-.4c-.8,-.2,-1.5,-.5,-2,-1c-.6,-.4,-1.1,-1,-1.4,-1.6c-.4,-.6,-.5,-1.4,-.5,-2.2c0,-.8,.1,-1.5,.5,-2.1c.3,-.7,.8,-1.2,1.4,-1.7c.5,-.4,1.2,-.7,2,-.9c.9,-.3,1.7,-.4,2.7,-.4c1.9,0,3.5,.5,4.7,1.3c1.3,.9,1.9,2.2,1.9,3.8c0,.8,-.2,1.6,-.5,2.2Zm-3,-4.7c-.8,-.5,-1.8,-.8,-3.1,-.8c-1.3,0,-2.3,.3,-3.2,.8c-.8,.6,-1.2,1.5,-1.2,2.5c0,1.1,.4,1.9,1.2,2.5c.9,.6,1.9,.9,3.2,.9c1.3,0,2.3,-.3,3.1,-.9c.8,-.6,1.2,-1.4,1.2,-2.5c0,-1,-.4,-1.9,-1.2,-2.5Zm-.2,-15.9c-.8,-.5,-1.8,-.8,-3.1,-.8c-1.2,0,-2.2,.3,-3,.8c-.8,.6,-1.3,1.4,-1.3,2.4c0,1,.5,1.8,1.3,2.3c.8,.6,1.8,.9,3,.9c1.3,0,2.3,-.3,3.1,-.9c.8,-.5,1.2,-1.3,1.2,-2.3c0,-1,-.4,-1.8,-1.2,-2.4Zm-4.7,7.2c-.5,0,-1,-.2,-1.4,-.3v2.8h6.1v-2.9c-.4,.2,-.9,.3,-1.4,.4c-.6,.1,-1.1,.1,-1.7,.1c-.5,0,-1.1,0,-1.6,-.1Zm24,2.7c-1.1,.3,-2.2,.4,-3.1,.4h-3c-.9,0,-1.5,-.1,-2,-.5c-.4,-.4,-.6,-1,-.6,-1.7v-9.4h2.2v3.9h7.2v-3.9h2.2V179h5.3v-4.9h2.3v13.2h-2.3v-6.5h-5.3v3.6c-.8,.5,-1.7,.9,-2.9,1.3Zm10.5,3v9.4c0,.2,-.1,.4,-.2,.5c-.1,.1,-.2,.2,-.5,.2h-12c-.9,0,-1.6,-.2,-2,-.5c-.5,-.3,-.7,-1,-.7,-1.9v-7.7H638V192h10.9v-3.3h2.2Zm-2.2,8.3v-3.3H638v2.6c0,.3,0,.4,.1,.5c.1,.2,.3,.2,.6,.2h10.2ZM634.1,183.6c0,.3,.1,.5,.2,.6c.1,.1,.3,.2,.6,.2h2.6c.6,0,1.3,-.1,1.9,-.3c.7,-.1,1.3,-.3,1.9,-.6v-3.3h-7.2v3.4Z" class="g1_161"/>
<path d="M198.7,252.4c0,0,-14,0,-14,14V453c0,0,0,14,14,14H408.5c0,0,14.1,0,14.1,-14V266.4c0,0,0,-14,-14.1,-14Z" class="g0_161"/>
<image clip-path="url(#c1_161)" preserveAspectRatio="none" x="184" y="251" width="240" height="218" xlink:href="img/2.jpg"/>
<path d="M198.7,252.4c0,0,-14,0,-14,14V453c0,0,0,14,14,14H408.5c0,0,14.1,0,14.1,-14V266.4c0,0,0,-14,-14.1,-14H198.7Z" class="g2_161"/>
<path d="M606.2,492.2c0,0,-14,0,-14,14V692.8c0,0,0,14.1,14,14.1H816c0,0,14,0,14,-14.1V506.2c0,0,0,-14,-14,-14Z" class="g0_161"/>
<image clip-path="url(#c2_161)" preserveAspectRatio="none" x="591" y="490" width="241" height="219" xlink:href="img/3.jpg"/>
<path d="M606.2,492.2c0,0,-14,0,-14,14V692.8c0,0,0,14.1,14,14.1H816c0,0,14,0,14,-14.1V506.2c0,0,0,-14,-14,-14H606.2Z" class="g2_161"/>
<path d="M198.7,752c0,0,-14,0,-14,14.1V952.7c0,0,0,14,14,14H408.5c0,0,14.1,0,14.1,-14V766.1c0,0,0,-14.1,-14.1,-14.1Z" class="g0_161"/>
<image clip-path="url(#c3_161)" preserveAspectRatio="none" x="183" y="750" width="241" height="217" xlink:href="img/4.jpg"/>
<path d="M198.7,752c0,0,-14,0,-14,14.1V952.7c0,0,0,14,14,14H408.5c0,0,14.1,0,14.1,-14V766.1c0,0,0,-14.1,-14.1,-14.1H198.7Z" class="g2_161"/>
<path d="M606.2,1006.8c0,0,-14,0,-14,14.1v186.6c0,0,0,14,14,14H816c0,0,14,0,14,-14V1020.9c0,0,0,-14.1,-14,-14.1Z" class="g0_161"/>
<image clip-path="url(#c4_161)" preserveAspectRatio="none" x="591" y="1005" width="241" height="218" xlink:href="img/5.jpg"/>
<path d="M606.2,1006.8c0,0,-14,0,-14,14.1v186.6c0,0,0,14,14,14H816c0,0,14,0,14,-14V1020.9c0,0,0,-14.1,-14,-14.1H606.2Z" class="g2_161"/>
<path d="M153.3,126.3v22.2L165,158.7V136.5Z" class="g3_161"/>
<path d="M153.3,109.5v39H851.1c0,0,16.8,0,16.8,-16.8v-5.4c0,0,0,-16.8,-16.8,-16.8Z" class="g4_161"/>
<path d="M207.2,115.7c0,-9.1,-7.9,-16.6,-17.7,-16.6c-9.8,0,-17.7,7.5,-17.7,16.6c0,2.7,.6,5.2,1.8,7.4c1.2,2.4,2.9,4.6,5,6.2c1.2,1,1.6,1.7,1.7,4.3v.6c0,3.3,2.7,5.9,5.9,5.9h6.6c3.2,0,5.8,-2.6,5.8,-5.9v-.6c.2,-2.6,.6,-3.3,1.8,-4.3c2.1,-1.6,3.8,-3.8,5,-6.2c1.2,-2.2,1.8,-4.7,1.8,-7.4Z" class="g5_161"/>
<path d="M207.2,115.7c0,-9.1,-7.9,-16.6,-17.7,-16.6c-9.8,0,-17.7,7.5,-17.7,16.6c0,2.7,.6,5.2,1.8,7.4c1.2,2.4,2.9,4.6,5,6.2c1.2,1,1.6,1.7,1.7,4.3v.6c0,3.3,2.7,5.9,5.9,5.9h6.6c3.2,0,5.8,-2.6,5.8,-5.9v-.6c.2,-2.6,.6,-3.3,1.8,-4.3c2.1,-1.6,3.8,-3.8,5,-6.2c1.2,-2.2,1.8,-4.7,1.8,-7.4Z" class="g6_161"/>
<path d="M194.6,147.4c0,2.8,-2.3,5.1,-5.1,5.1c-2.8,0,-5.1,-2.3,-5.1,-5.1c0,-2.8,2.3,-5.1,5.1,-5.1c2.8,0,5.1,2.3,5.1,5.1Z" class="g0_161"/>
<path d="M194.6,147.4c0,2.8,-2.3,5.1,-5.1,5.1c-2.8,0,-5.1,-2.3,-5.1,-5.1c0,-2.8,2.3,-5.1,5.1,-5.1c2.8,0,5.1,2.3,5.1,5.1Z" class="g6_161"/>
<path d="M182.1,140.2c0,1,.8,1.8,1.8,1.8h11.2c1,0,1.8,-.8,1.8,-1.8v-1.3H182.1Z" class="g0_161"/>
<path d="M182.1,140.2c0,1,.8,1.8,1.8,1.8h11.2c1,0,1.8,-.8,1.8,-1.8v-1.3H182.1v1.3Z" class="g6_161"/>
<path d="M196.9,143.2c0,.8,-.6,1.3,-1.3,1.3H183.4c-.8,0,-1.3,-.5,-1.3,-1.3c0,-.7,.5,-1.3,1.3,-1.3h12.2c.7,0,1.3,.6,1.3,1.3Z" class="g0_161"/>
<path d="M196.9,143.2c0,.8,-.6,1.3,-1.3,1.3H183.4c-.8,0,-1.3,-.5,-1.3,-1.3c0,-.7,.5,-1.3,1.3,-1.3h12.2c.7,0,1.3,.6,1.3,1.3Z" class="g6_161"/>
<path d="M196.9,145.8c0,.7,-.6,1.3,-1.3,1.3H183.4c-.8,0,-1.3,-.6,-1.3,-1.3c0,-.7,.5,-1.3,1.3,-1.3h12.2c.7,0,1.3,.6,1.3,1.3Z" class="g0_161"/>
<path d="M196.9,145.8c0,.7,-.6,1.3,-1.3,1.3H183.4c-.8,0,-1.3,-.6,-1.3,-1.3c0,-.7,.5,-1.3,1.3,-1.3h12.2c.7,0,1.3,.6,1.3,1.3Z" class="g6_161"/>
<path d="M215.5,128.7l8.3,10.4c.6,.7,1.8,.6,2.7,-.2c.9,-.7,1.2,-1.9,.7,-2.6l-8.9,-10.2Z" class="g7_161"/>
<path d="M215.5,128.7l8.3,10.4c.6,.7,1.8,.6,2.7,-.2c.9,-.7,1.2,-1.9,.7,-2.6l-8.9,-10.2l-2.8,2.6Z" class="g6_161"/>
<path d="M217.5,125.1c.5,.6,.3,1.8,-.7,2.6c-.9,.7,-2.1,.8,-2.6,.2c-.6,-.7,-.3,-1.9,.6,-2.6c.9,-.8,2.1,-.9,2.7,-.2Z" class="g8_161"/>
<path d="M217.5,125.1c.5,.6,.3,1.8,-.7,2.6c-.9,.7,-2.1,.8,-2.6,.2c-.6,-.7,-.3,-1.9,.6,-2.6c.9,-.8,2.1,-.9,2.7,-.2Z" class="g6_161"/>
<path d="M212.7,124.7l1.7,2c.3,.3,1,.3,1.5,-.1c.5,-.5,.7,-1.1,.4,-1.5l-1.7,-2Z" class="g0_161"/>
<path d="M212.7,124.7l1.7,2c.3,.3,1,.3,1.5,-.1c.5,-.5,.7,-1.1,.4,-1.5l-1.7,-2l-1.9,1.6Z" class="g9_161"/>
<path d="M214.8,122.9c.4,.5,.2,1.3,-.5,1.8c-.6,.5,-1.4,.6,-1.8,.1c-.4,-.4,-.2,-1.2,.5,-1.7c.6,-.6,1.4,-.6,1.8,-.2Z" class="g0_161"/>
<path d="M214.8,122.9c.4,.5,.2,1.3,-.5,1.8c-.6,.5,-1.4,.6,-1.8,.1c-.4,-.4,-.2,-1.2,.5,-1.7c.6,-.6,1.4,-.6,1.8,-.2Z" class="g9_161"/>
<path d="M216.4,105.4c4.8,5.7,4.1,14.2,-1.7,19c-5.7,4.8,-14.2,4,-19,-1.7c-4.8,-5.7,-4,-14.2,1.7,-19c5.7,-4.8,14.2,-4.1,19,1.7Z" class="g0_161"/>
<path d="M216.4,105.4c4.8,5.7,4.1,14.2,-1.7,19c-5.7,4.8,-14.2,4,-19,-1.7c-4.8,-5.7,-4,-14.2,1.7,-19c5.7,-4.8,14.2,-4.1,19,1.7Z" class="g6_161"/>
<path d="M214,107.4c3.5,4.2,3,10.5,-1.3,14.1c-4.2,3.5,-10.5,2.9,-14,-1.3c-3.5,-4.2,-3,-10.5,1.2,-14c4.2,-3.6,10.5,-3,14.1,1.2Z" class="ga_161"/>
<path d="M214,107.4c3.5,4.2,3,10.5,-1.3,14.1c-4.2,3.5,-10.5,2.9,-14,-1.3c-3.5,-4.2,-3,-10.5,1.2,-14c4.2,-3.6,10.5,-3,14.1,1.2Z" class="g6_161"/>
<path d="M213,110.6l-3.1,3m3.1,-.4l-3.1,3" class="gb_161"/>
<path d="M172.1,99l3.1,3.3m1.1,-5.9l1.2,3.9m-8.1,3l3.7,1.2" class="gc_161"/>
<path d="M185.8,106.1c1.2,1.2,.2,4.3,-2.2,6.7c-2.5,2.5,-5.5,3.5,-6.8,2.3c-1.2,-1.3,-.3,-4.3,2.2,-6.8c2.5,-2.5,5.5,-3.5,6.8,-2.2Z" class="g0_161"/>
<path d="M203.7,107.6c.6,.6,.1,1.9,-.9,3c-1.1,1,-2.4,1.5,-3,.9c-.5,-.5,-.1,-1.8,1,-2.9c1.1,-1.1,2.4,-1.5,2.9,-1Z" class="g0_161"/>
<path d="M32.1,45.1H9.2m958.3,0h22.9M32.1,1331.3H9.2m958.3,0h22.9M45.1,32.1V9.2m0,1335.1v22.9M954.5,32.1V9.2m0,1335.1v22.9" class="gd_161"/>
<path d="M32.1,45.1H9.2m958.3,0h22.9M32.1,1331.3H9.2m958.3,0h22.9M45.1,32.1V9.2m0,1335.1v22.9M954.5,32.1V9.2m0,1335.1v22.9" class="ge_161"/>
<path d="M27.5,32.1H0m972.1,0h27.5M27.5,1344.3H0m972.1,0h27.5M32.1,27.5V0m0,1348.9v27.5M967.5,27.5V0m0,1348.9v27.5" class="gd_161"/>
<path d="M27.5,32.1H0m972.1,0h27.5M27.5,1344.3H0m972.1,0h27.5M32.1,27.5V0m0,1348.9v27.5M967.5,27.5V0m0,1348.9v27.5" class="ge_161"/>
</svg>