<?xml version="1.0" encoding="UTF-8" standalone="no"?>
<!DOCTYPE svg PUBLIC "-//W3C//DTD SVG 1.1//EN"
"http://www.w3.org/Graphics/SVG/1.1/DTD/svg11.dtd">
<svg viewBox="0 0 999 1376" version="1.1" xmlns="http://www.w3.org/2000/svg" xmlns:xlink="http://www.w3.org/1999/xlink">
<defs>
<clipPath id="c0_254"><path d="M212.6,488.7V394.5h94.3v94.2Z"/></clipPath>
<clipPath id="c1_254"><path d="M368.1,488.7V394.5h94.2v94.2Z"/></clipPath>
<clipPath id="c2_254"><path d="M523.5,488.7V394.5H625.4v94.2Z"/></clipPath>
<clipPath id="c3_254"><path d="M668.8,488.7V394.5H779.9v94.2Z"/></clipPath>
<clipPath id="c4_254"><path d="M212.6,651.8V557.6h94.3v94.2Z"/></clipPath>
<clipPath id="c5_254"><path d="M676.1,651.8V557.6H776v94.2Z"/></clipPath>
<clipPath id="c6_254"><path d="M226.9,905.1V844.7h65.7v60.4Z"/></clipPath>
<clipPath id="c7_254"><path d="M226.9,1054.8v-68h64.9v68Z"/></clipPath>
<clipPath id="c8_254"><path d="M226.9,979.9v-68h64.9v68Z"/></clipPath>
<clipPath id="c9_254"><path d="M226.9,1129.6v-68h64.9v68Z"/></clipPath>
<clipPath id="ca_254"><path d="M226.9,1200.7v-64.2h64.9v64.2Z"/></clipPath>
<clipPath id="cb_254"><path d="M176.5,235.1L170,233L153.6,219.1V162h72v73.1Z"/></clipPath>
<clipPath id="cc_254"><path d="M177,789.5l-6.5,-2.1l-16.4,-14V716.3h72v73.2Z"/></clipPath>
<style type="text/css"><![CDATA[
.g0_254{
fill: #FEFCF4;
}
.g1_254{
fill: #FFF;
}
.g2_254{
fill: none;
stroke: #6381B7;
stroke-width: 0.763;
}
.g3_254{
fill: none;
stroke: #949698;
stroke-width: 0.363;
}
.g4_254{
fill: #93BEDA;
}
.g5_254{
fill: #F0E8F3;
}
.g6_254{
fill: #6381B7;
}
.g7_254{
fill: none;
stroke: #6381B7;
stroke-width: 0.381;
stroke-dasharray: 2,1;
}
.g8_254{
fill: none;
stroke: #6381B7;
stroke-width: 0.381;
}
.g9_254{
fill: #FCE8B0;
}
.ga_254{
fill: #25408F;
}
.gb_254{
fill: #00BAF1;
}
.gc_254{
fill: #332D2C;
}
.gd_254{
fill: #D9DFF0;
}
.ge_254{
fill: #F27C85;
}
.gf_254{
fill: #7DD3F6;
}
.gg_254{
fill: none;
stroke: #FFF;
stroke-width: 1.909;
stroke-miterlimit: 10;
}
.gh_254{
fill: none;
stroke: #000;
stroke-width: 0.381;
stroke-miterlimit: 10;
}
]]></style>
</defs>
<path d="M32.1,1344.3H954.5V32.1H32.1V1344.3Z" class="g0_254"/>
<path d="M150.4,132.8c0,0,-18.3,0,-18.3,18.3V689c0,0,0,18.3,18.3,18.3H827.5c0,0,18.4,0,18.4,-18.3V132.8Z" class="g1_254"/>
<path d="M150.4,132.8c0,0,-18.3,0,-18.3,18.3V689c0,0,0,18.3,18.3,18.3H827.5c0,0,18.4,0,18.4,-18.3V132.8H150.4Z" class="g2_254"/>
<path d="M280.2,340.9H394.7V246.6H280.2v94.3Z" class="g1_254"/>
<image preserveAspectRatio="none" x="290" y="247" width="95" height="94" xlink:href="img/1.jpg"/>
<path d="M280.2,340.9H394.7V246.6H280.2v94.3Z" class="g3_254"/>
<path d="M591.1,340.9H705.6V246.6H591.1v94.3Z" class="g1_254"/>
<image preserveAspectRatio="none" x="601" y="247" width="94" height="94" xlink:href="img/2.jpg"/>
<path d="M591.1,340.9H705.6V246.6H591.1v94.3Z" class="g3_254"/>
<path d="M202.5,488.7H317V394.5H202.5v94.2Z" class="g1_254"/>
<image clip-path="url(#c0_254)" preserveAspectRatio="none" x="213" y="394" width="94" height="95" xlink:href="img/3.jpg"/>
<path d="M202.5,488.7H317V394.5H202.5v94.2Z" class="g3_254"/>
<path d="M358,488.7H472.4V394.5H358v94.2Z" class="g1_254"/>
<image clip-path="url(#c1_254)" preserveAspectRatio="none" x="368" y="394" width="94" height="95" xlink:href="img/4.jpg"/>
<path d="M358,488.7H472.4V394.5H358v94.2Z" class="g3_254"/>
<path d="M513.4,488.7H627.9V394.5H513.4v94.2Z" class="g1_254"/>
<image clip-path="url(#c2_254)" preserveAspectRatio="none" x="523" y="393" width="102" height="96" xlink:href="img/5.jpg"/>
<path d="M513.4,488.7H627.9V394.5H513.4v94.2Z" class="g3_254"/>
<path d="M668.8,488.7H783.3V394.5H668.8v94.2Z" class="g1_254"/>
<image clip-path="url(#c3_254)" preserveAspectRatio="none" x="667" y="393" width="113" height="96" xlink:href="img/6.jpg"/>
<path d="M668.8,488.7H783.3V394.5H668.8v94.2Z" class="g3_254"/>
<path d="M202.5,651.8H317V557.6H202.5v94.2Z" class="g1_254"/>
<image clip-path="url(#c4_254)" preserveAspectRatio="none" x="213" y="558" width="94" height="94" xlink:href="img/7.jpg"/>
<path d="M202.5,651.8H317V557.6H202.5v94.2Z" class="g3_254"/>
<path d="M358,651.8H472.4V557.6H358v94.2Z" class="g1_254"/>
<image preserveAspectRatio="none" x="368" y="558" width="94" height="94" xlink:href="img/8.jpg"/>
<path d="M358,651.8H472.4V557.6H358v94.2Z" class="g3_254"/>
<path d="M513.4,651.8H627.9V557.6H513.4v94.2Z" class="g1_254"/>
<image preserveAspectRatio="none" x="523" y="558" width="95" height="94" xlink:href="img/9.jpg"/>
<path d="M513.4,651.8H627.9V557.6H513.4v94.2Z" class="g3_254"/>
<path d="M668.8,651.8H783.3V557.6H668.8v94.2Z" class="g1_254"/>
<image clip-path="url(#c5_254)" preserveAspectRatio="none" x="676" y="557" width="100" height="97" xlink:href="img/10.jpg"/>
<path d="M668.8,651.8H783.3V557.6H668.8v94.2Z" class="g3_254"/>
<path d="M145.1,802c0,0,-13,0,-13,13v381.7c0,0,0,13,13,13h688c0,0,13,0,13,-13V815c0,0,0,-13,-13,-13Z" class="g1_254"/>
<path d="M145.1,802c0,0,-13,0,-13,13v381.7c0,0,0,13,13,13h688c0,0,13,0,13,-13V815c0,0,0,-13,-13,-13h-688Z" class="g2_254"/>
<path d="M498.1,875.6c2,0,3.6,-1.7,3.6,-3.6c0,-2,-1.6,-3.7,-3.6,-3.7c-2,0,-3.6,1.7,-3.6,3.7c0,1.9,1.6,3.6,3.6,3.6Z" class="g4_254"/>
<path d="M498.1,949.6c2,0,3.6,-1.6,3.6,-3.6c0,-2,-1.6,-3.6,-3.6,-3.6c-2,0,-3.6,1.6,-3.6,3.6c0,2,1.6,3.6,3.6,3.6Z" class="g4_254"/>
<path d="M498.1,1023.7c2,0,3.6,-1.6,3.6,-3.6c0,-2,-1.6,-3.6,-3.6,-3.6c-2,0,-3.6,1.6,-3.6,3.6c0,2,1.6,3.6,3.6,3.6Z" class="g4_254"/>
<path d="M498.1,1097.7c2,0,3.6,-1.6,3.6,-3.6c0,-2,-1.6,-3.6,-3.6,-3.6c-2,0,-3.6,1.6,-3.6,3.6c0,2,1.6,3.6,3.6,3.6Z" class="g4_254"/>
<path d="M498.1,1173.9c2,0,3.6,-1.6,3.6,-3.6c0,-2,-1.6,-3.6,-3.6,-3.6c-2,0,-3.6,1.6,-3.6,3.6c0,2,1.6,3.6,3.6,3.6Z" class="g4_254"/>
<path d="M541.4,855.8c0,0,-12.9,0,-12.9,13v6.5c0,0,0,13,12.9,13H667c0,0,13,0,13,-13v-6.5c0,0,0,-13,-13,-13Z" class="g5_254"/>
<path d="M541.4,930.7c0,0,-12.9,0,-12.9,13v6.5c0,0,0,13,12.9,13H667c0,0,13,0,13,-13v-6.5c0,0,0,-13,-13,-13Z" class="g5_254"/>
<path d="M541.4,1005.6c0,0,-12.9,0,-12.9,13v6.5c0,0,0,13,12.9,13H667c0,0,13,0,13,-13v-6.5c0,0,0,-13,-13,-13Z" class="g5_254"/>
<path d="M541.4,1080.5c0,0,-12.9,0,-12.9,13v6.5c0,0,0,13,12.9,13H667c0,0,13,0,13,-13v-6.5c0,0,0,-13,-13,-13Z" class="g5_254"/>
<path d="M537.1,1155.5c0,0,-8.6,0,-8.6,8.6v15.2c0,0,0,8.7,8.6,8.7H671.4c0,0,8.6,0,8.6,-8.7v-15.2c0,0,0,-8.6,-8.6,-8.6Z" class="g5_254"/>
<image clip-path="url(#c6_254)" preserveAspectRatio="none" x="226" y="837" width="67" height="68" xlink:href="img/11.jpg"/>
<image clip-path="url(#c7_254)" preserveAspectRatio="none" x="224" y="987" width="68" height="68" xlink:href="img/12.jpg"/>
<image clip-path="url(#c8_254)" preserveAspectRatio="none" x="224" y="912" width="68" height="68" xlink:href="img/13.jpg"/>
<image clip-path="url(#c9_254)" preserveAspectRatio="none" x="224" y="1062" width="68" height="68" xlink:href="img/14.jpg"/>
<image clip-path="url(#ca_254)" preserveAspectRatio="none" x="224" y="1137" width="68" height="68" xlink:href="img/15.jpg"/>
<path d="M305.8,875.6c2,0,3.6,-1.7,3.6,-3.6c0,-2,-1.6,-3.7,-3.6,-3.7c-2,0,-3.6,1.7,-3.6,3.7c0,1.9,1.6,3.6,3.6,3.6Z" class="g4_254"/>
<path d="M305.8,949.6c2,0,3.6,-1.6,3.6,-3.6c0,-2,-1.6,-3.6,-3.6,-3.6c-2,0,-3.6,1.6,-3.6,3.6c0,2,1.6,3.6,3.6,3.6Z" class="g4_254"/>
<path d="M305.8,1023.7c2,0,3.6,-1.6,3.6,-3.6c0,-2,-1.6,-3.6,-3.6,-3.6c-2,0,-3.6,1.6,-3.6,3.6c0,2,1.6,3.6,3.6,3.6Z" class="g4_254"/>
<path d="M305.8,1097.7c2,0,3.6,-1.6,3.6,-3.6c0,-2,-1.6,-3.6,-3.6,-3.6c-2,0,-3.6,1.6,-3.6,3.6c0,2,1.6,3.6,3.6,3.6Z" class="g4_254"/>
<path d="M305.8,1173.9c2,0,3.6,-1.6,3.6,-3.6c0,-2,-1.6,-3.6,-3.6,-3.6c-2,0,-3.6,1.6,-3.6,3.6c0,2,1.6,3.6,3.6,3.6Z" class="g4_254"/>
<path d="M600.7,1223.4c0,0,-4.4,0,-4.4,4.3v10.9c0,0,0,4.3,4.4,4.3H631c0,0,4.3,0,4.3,-4.3v-10.9c0,0,0,-4.3,-4.3,-4.3Z" class="g6_254"/>
<path d="M587.5,1215.9v34.9m1.3,1H846m.9,-1.4v-34.9m-1.3,-.9H588.4" class="g7_254"/>
<path d="M587.5,1251.2v.6h.5m258.4,0h.5v-.6m0,-36.1v-.5h-.5m-258.4,0h-.5v.5" class="g8_254"/>
<path d="M209.1,190.1c0,0,-12.9,0,-12.9,13v21.7c0,0,0,12.9,12.9,12.9h602c0,0,13,0,13,-12.9V203.1c0,0,0,-13,-13,-13Z" class="g9_254"/>
<image clip-path="url(#cb_254)" preserveAspectRatio="none" x="152" y="160" width="75" height="77" xlink:href="img/16.png"/>
<path d="M203.9,230.4c0,0,-26.8,11.3,-51.1,-12.8c0,0,15.2,25.3,49.3,24c0,0,24.8,.3,20.3,-10.1c0,0,1.2,-4.5,-18.5,-1.1Z" class="g9_254"/>
<path d="M209.6,744.5c0,0,-12.9,0,-12.9,13v21.6c0,0,0,13,12.9,13H833.3c0,0,13,0,13,-13V757.5c0,0,0,-13,-13,-13Z" class="g9_254"/>
<image clip-path="url(#cc_254)" preserveAspectRatio="none" x="153" y="715" width="75" height="76" xlink:href="img/17.png"/>
<path d="M204.4,784.8c0,0,-26.8,11.3,-51.1,-12.8c0,0,15.2,25.3,49.3,24c0,0,24.8,.3,20.3,-10.2c0,0,1.2,-4.4,-18.5,-1Z" class="g9_254"/>
<path d="M131.7,126.7v22.2l11.7,10.3V137Z" class="ga_254"/>
<path d="M131.7,109.9v39H829.4c0,0,16.9,0,16.9,-16.8v-5.4c0,0,0,-16.8,-16.9,-16.8Z" class="g6_254"/>
<path d="M189.6,121.3l-6.4,-6.5L162,136l6.4,6.5Z" class="gb_254"/>
<path d="M168.4,143c.2,0,.3,0,.4,-.1L190,121.7c.1,-.1,.2,-.3,.2,-.4c0,-.1,-.1,-.3,-.2,-.4l-6.5,-6.4c-.2,-.2,-.5,-.2,-.7,0l-21.2,21.2c-.1,.1,-.2,.2,-.2,.3c0,.2,.1,.3,.2,.4l6.5,6.5c.1,.1,.2,.1,.3,.1m20.5,-21.7l-20.5,20.5L162.7,136l20.5,-20.4Z" class="gc_254"/>
<path d="M189.6,121.3l-6.4,-6.5l2.1,-2.1l6.5,6.5Z" class="gd_254"/>
<path d="M189.6,121.8c.2,0,.3,0,.4,-.1l2.1,-2.1c.1,-.1,.2,-.3,.2,-.4c0,-.2,-.1,-.3,-.2,-.4l-6.4,-6.5c-.2,-.2,-.6,-.2,-.8,0l-2.1,2.2c-.1,0,-.2,.2,-.2,.3c0,.2,.1,.3,.2,.4l6.5,6.5c.1,.1,.2,.1,.3,.1m1.4,-2.6l-1.4,1.4l-5.7,-5.8l1.4,-1.4Z" class="gc_254"/>
<path d="M195.4,115.6l-6.5,-6.5l-3.6,3.6l6.5,6.5Z" class="ge_254"/>
<path d="M191.8,119.7c.1,0,.2,0,.3,-.1l3.7,-3.7c.2,-.2,.2,-.5,0,-.7l-6.5,-6.5c-.2,-.2,-.6,-.2,-.8,0l-3.6,3.6c-.2,.2,-.2,.6,0,.8l6.5,6.5c.1,.1,.2,.1,.4,.1m2.8,-4.1l-2.8,2.8L186,112.7l2.9,-2.9Z" class="gc_254"/>
<path d="M157.3,147.2L162,136l6.4,6.5Z" class="g1_254"/>
<path d="M157.3,147.7c.1,0,.2,0,.2,-.1L168.6,143c.2,-.1,.3,-.2,.4,-.4c0,-.2,-.1,-.3,-.2,-.5l-6.5,-6.4c-.1,-.2,-.3,-.2,-.5,-.2c-.1,.1,-.3,.2,-.3,.3l-4.7,11.1c0,.2,0,.5,.1,.6c.1,.1,.3,.2,.4,.2m10.2,-5.4l-9.2,3.9l3.8,-9.2Z" class="gc_254"/>
<path d="M157.3,147.2l2.3,-5.4l3.1,3.1Z" class="gc_254"/>
<path d="M157.3,147.7c.1,0,.2,0,.2,-.1l5.4,-2.2c.1,-.1,.3,-.2,.3,-.4c0,-.2,0,-.3,-.1,-.5l-3.2,-3.1c-.1,-.1,-.3,-.2,-.4,-.1c-.2,0,-.4,.1,-.4,.3l-2.3,5.3c0,.2,0,.5,.1,.6c.1,.1,.3,.2,.4,.2m4.5,-3l-3.5,1.5l1.4,-3.5Z" class="gc_254"/>
<path d="M187.9,119.5l-3,-2.9l-21.2,21.2l3,3Z" class="gf_254"/>
<path d="M166.7,141.3c.1,0,.2,-.1,.3,-.2l21.3,-21.2c.1,-.1,.1,-.2,.1,-.4c0,-.1,0,-.2,-.1,-.3l-3,-3c-.2,-.2,-.5,-.2,-.8,0l-21.2,21.2c-.1,.1,-.1,.3,-.1,.4c0,.1,0,.3,.1,.4l3,2.9c.1,.1,.2,.2,.4,.2m20.4,-21.8L166.7,140l-2.2,-2.2l20.4,-20.5Z" class="gc_254"/>
<path d="M32.1,45.1H9.2m958.3,0h22.9M32.1,1331.3H9.2m958.3,0h22.9M45.1,32.1V9.2m0,1335.1v22.9M954.5,32.1V9.2m0,1335.1v22.9" class="gg_254"/>
<path d="M32.1,45.1H9.2m958.3,0h22.9M32.1,1331.3H9.2m958.3,0h22.9M45.1,32.1V9.2m0,1335.1v22.9M954.5,32.1V9.2m0,1335.1v22.9" class="gh_254"/>
<path d="M27.5,32.1H0m972.1,0h27.5M27.5,1344.3H0m972.1,0h27.5M32.1,27.5V0m0,1348.9v27.5M967.5,27.5V0m0,1348.9v27.5" class="gg_254"/>
<path d="M27.5,32.1H0m972.1,0h27.5M27.5,1344.3H0m972.1,0h27.5M32.1,27.5V0m0,1348.9v27.5M967.5,27.5V0m0,1348.9v27.5" class="gh_254"/>
</svg>