<?xml version="1.0" encoding="UTF-8" standalone="no"?>
<!DOCTYPE svg PUBLIC "-//W3C//DTD SVG 1.1//EN"
"http://www.w3.org/Graphics/SVG/1.1/DTD/svg11.dtd">
<svg viewBox="0 0 999 1376" version="1.1" xmlns="http://www.w3.org/2000/svg" xmlns:xlink="http://www.w3.org/1999/xlink">
<defs>
<clipPath id="c0_335"><path d="M32.1,1344.3V32.1H967.5V1344.3Z"/></clipPath>
<clipPath id="c1_335"><path d="M217.5,675V575.8h99.3V675Z"/></clipPath>
<clipPath id="c2_335"><path d="M381.1,675V575.8h99.3V675Z"/></clipPath>
<clipPath id="c3_335"><path d="M544.7,675V575.8H644V675Z"/></clipPath>
<clipPath id="c4_335"><path d="M708.4,675V575.8h99.2V675Z"/></clipPath>
<clipPath id="c5_335"><path d="M534,861.5V763H654.7v98.5Z"/></clipPath>
<clipPath id="c6_335"><path d="M534.1,861.2V762H654.6v99.2Z"/></clipPath>
<clipPath id="c7_335"><path d="M198.7,335.8l-6.5,-2.1L175.8,319.8V262.7h72v73.1Z"/></clipPath>
<clipPath id="c8_335"><path d="M658.6,177V59h200V177Z"/></clipPath>
<style type="text/css"><![CDATA[
.g0_335{
fill: #FEFCF4;
}
.g1_335{
fill: #FFF;
}
.g2_335{
fill: none;
stroke: #6381B7;
stroke-width: 0.763;
}
.g3_335{
fill: #F6E2CF;
}
.g4_335{
fill: none;
stroke: #949698;
stroke-width: 0.381;
}
.g5_335{
fill: none;
stroke: #949698;
stroke-width: 1.13;
}
.g6_335{
fill: #FCE8B0;
}
.g7_335{
fill: #2E6E51;
}
.g8_335{
fill: #BCBEC0;
}
.g9_335{
fill: #EE314A;
}
.ga_335{
fill: #25408F;
}
.gb_335{
fill: #6381B7;
}
.gc_335{
fill: #00BAF1;
}
.gd_335{
fill: #332D2C;
}
.ge_335{
fill: #D9DFF0;
}
.gf_335{
fill: #F27C85;
}
.gg_335{
fill: #7DD3F6;
}
.gh_335{
fill: #F3F8FC;
}
.gi_335{
fill: none;
stroke: #8BBEE7;
stroke-width: 1.527;
stroke-linecap: round;
stroke-linejoin: round;
stroke-dasharray: 0,5;
}
.gj_335{
fill: none;
stroke: #8BBEE7;
stroke-width: 1.527;
stroke-linecap: round;
stroke-linejoin: round;
}
.gk_335{
fill: #7CA7D8;
}
.gl_335{
fill: #BFD62F;
}
.gm_335{
fill: #3D3B39;
}
.gn_335{
fill: #F5CA58;
}
.go_335{
fill: none;
stroke: #FFF;
stroke-width: 1.909;
stroke-miterlimit: 10;
}
.gp_335{
fill: none;
stroke: #000;
stroke-width: 0.381;
stroke-miterlimit: 10;
}
]]></style>
</defs>
<path clip-path="url(#c0_335)" d="M-877.3,1343.2H45.1V32.1H-877.3V1343.2Z" class="g0_335"/>
<path d="M45.1,1344.3H967.5V32.1H45.1V1344.3Z" class="g0_335"/>
<path d="M172.1,224.6c0,0,-18.4,0,-18.4,18.4V966.8c0,0,0,18.4,18.4,18.4H849.2c0,0,18.3,0,18.3,-18.4V224.6Z" class="g1_335"/>
<path d="M172.1,224.6c0,0,-18.4,0,-18.4,18.4V966.8c0,0,0,18.4,18.4,18.4H849.2c0,0,18.3,0,18.3,-18.4V224.6H172.1Z" class="g2_335"/>
<path d="M663.6,234.8v0v-.7Z" class="g3_335"/>
<path d="M206.9,469.6H327.4V370.4H206.9v99.2Z" class="g1_335"/>
<image preserveAspectRatio="none" x="218" y="370" width="99" height="100" xlink:href="img/1.jpg"/>
<path d="M206.9,469.6H327.4V370.4H206.9v99.2Z" class="g4_335"/>
<path d="M534.1,469.6H654.6V370.4H534.1v99.2Z" class="g1_335"/>
<image preserveAspectRatio="none" x="545" y="370" width="99" height="100" xlink:href="img/2.jpg"/>
<path d="M534.1,469.6H654.6V370.4H534.1v99.2Z" class="g4_335"/>
<path d="M370.5,469.6H491V370.4H370.5v99.2Z" class="g1_335"/>
<image preserveAspectRatio="none" x="381" y="370" width="99" height="100" xlink:href="img/3.jpg"/>
<path d="M370.5,469.6H491V370.4H370.5v99.2Z" class="g4_335"/>
<path d="M697.7,469.6H818.2V370.4H697.7v99.2Z" class="g1_335"/>
<image preserveAspectRatio="none" x="708" y="370" width="100" height="100" xlink:href="img/4.jpg"/>
<path d="M697.7,469.6H818.2V370.4H697.7v99.2Z" class="g4_335"/>
<path d="M206.9,675H327.4V575.8H206.9V675Z" class="g1_335"/>
<image clip-path="url(#c1_335)" preserveAspectRatio="none" x="218" y="576" width="99" height="99" xlink:href="img/5.jpg"/>
<path d="M206.9,675H327.4V575.8H206.9V675Z" class="g4_335"/>
<path d="M370.5,675H491V575.8H370.5V675Z" class="g1_335"/>
<image clip-path="url(#c2_335)" preserveAspectRatio="none" x="381" y="576" width="99" height="99" xlink:href="img/6.jpg"/>
<path d="M370.5,675H491V575.8H370.5V675Z" class="g4_335"/>
<path d="M534.1,675H654.6V575.8H534.1V675Z" class="g1_335"/>
<image clip-path="url(#c3_335)" preserveAspectRatio="none" x="545" y="576" width="99" height="99" xlink:href="img/7.jpg"/>
<path d="M534.1,675H654.6V575.8H534.1V675Z" class="g4_335"/>
<path d="M697.7,675H818.2V575.8H697.7V675Z" class="g1_335"/>
<image clip-path="url(#c4_335)" preserveAspectRatio="none" x="708" y="576" width="100" height="99" xlink:href="img/8.jpg"/>
<path d="M697.7,675H818.2V575.8H697.7V675Z" class="g4_335"/>
<path d="M206.9,861.2H327.4V762H206.9v99.2Z" class="g1_335"/>
<image preserveAspectRatio="none" x="218" y="762" width="99" height="99" xlink:href="img/9.jpg"/>
<path d="M206.9,861.2H327.4V762H206.9v99.2Z" class="g4_335"/>
<path d="M370.5,861.2H491V762H370.5v99.2Z" class="g1_335"/>
<image preserveAspectRatio="none" x="381" y="762" width="99" height="99" xlink:href="img/10.jpg"/>
<path d="M370.5,861.2H491V762H370.5v99.2Z" class="g4_335"/>
<path d="M534.1,861.2H654.6V762H534.1v99.2Z" class="g1_335"/>
<image clip-path="url(#c5_335)" preserveAspectRatio="none" x="530" y="763" width="128" height="102" xlink:href="img/11.jpg"/>
<path clip-path="url(#c6_335)" d="M531.6,863.6h125V760.5h-125V863.6Z" class="g5_335"/>
<path d="M534.1,861.2H654.6V762H534.1v99.2Z" class="g4_335"/>
<path d="M697.7,861.2H818.2V762H697.7v99.2Z" class="g1_335"/>
<image preserveAspectRatio="none" x="708" y="762" width="100" height="99" xlink:href="img/12.jpg"/>
<path d="M697.7,861.2H818.2V762H697.7v99.2Z" class="g4_335"/>
<path d="M231.3,290.8c0,0,-13,0,-13,13v21.7c0,0,0,12.9,13,12.9h602c0,0,13,0,13,-12.9V303.8c0,0,0,-13,-13,-13Z" class="g6_335"/>
<image clip-path="url(#c7_335)" preserveAspectRatio="none" x="174" y="261" width="75" height="76" xlink:href="img/13.png"/>
<path d="M226.1,331.1c0,0,-26.9,11.3,-51.1,-12.8c0,0,15.2,25.3,49.3,24c0,0,24.7,.3,20.2,-10.1c0,0,1.3,-4.5,-18.4,-1.1Z" class="g6_335"/>
<path d="M32.1,179.3H967.5V32.1H32.1V179.3Z" class="g7_335"/>
<g clip-path="url(#c0_335)">
<path d="M967.5,177.2H-877.3v-5.4h736.6c43.1,0,53.1,-37.9,115.3,-37.9H967.5Z" class="g8_335"/>
<path d="M967.5,183.7H-877.3v-9.8h736.6c43.1,0,53.1,-33.6,115.3,-33.6H967.5Z" class="g9_335"/>
</g>
<image clip-path="url(#c8_335)" preserveAspectRatio="none" x="659" y="59" width="200" height="118" xlink:href="img/14.png"/>
<path d="M153.3,217.5v22.2L165,250V227.8Z" class="ga_335"/>
<path d="M153.3,200.7v39H851.1c0,0,16.8,0,16.8,-16.8v-5.4c0,0,0,-16.8,-16.8,-16.8Z" class="gb_335"/>
<path d="M211.3,212.1l-6.5,-6.4l-21.2,21.2l6.5,6.4Z" class="gc_335"/>
<path d="M190.1,233.9c.1,0,.3,-.1,.4,-.2l21.2,-21.2c.1,-.1,.1,-.2,.1,-.4c0,-.1,0,-.2,-.1,-.3l-6.5,-6.5c-.2,-.2,-.6,-.2,-.8,0l-21.2,21.2c-.1,.1,-.1,.2,-.1,.4c0,.1,0,.2,.1,.3l6.5,6.5c.1,.1,.3,.2,.4,.2m20.5,-21.8l-20.5,20.5l-5.8,-5.7l20.5,-20.5Z" class="gd_335"/>
<path d="M211.3,212.1l-6.5,-6.4l2.1,-2.2l6.5,6.5Z" class="ge_335"/>
<path d="M211.3,212.7c.1,0,.3,-.1,.4,-.2l2.1,-2.1c.1,-.1,.2,-.2,.2,-.4c0,-.1,-.1,-.3,-.2,-.4l-6.5,-6.4c-.2,-.3,-.5,-.3,-.7,0l-2.2,2.1c-.1,.1,-.1,.2,-.1,.4c0,.1,0,.2,.1,.3l6.5,6.5c.1,.1,.3,.2,.4,.2m1.4,-2.7l-1.4,1.4l-5.7,-5.7l1.3,-1.4Z" class="gd_335"/>
<path d="M217,206.4l-6.4,-6.5l-3.7,3.6l6.5,6.5Z" class="gf_335"/>
<path d="M213.4,210.5c.2,0,.3,0,.4,-.1l3.6,-3.6c.2,-.2,.2,-.6,0,-.8l-6.5,-6.5c-.2,-.2,-.5,-.2,-.7,0l-3.6,3.7c-.2,.2,-.2,.5,0,.7l6.5,6.5c.1,.1,.2,.1,.3,.1m2.9,-4.1l-2.9,2.9l-5.7,-5.8l2.9,-2.8Z" class="gd_335"/>
<path d="M179,238l4.6,-11.1l6.5,6.4Z" class="g1_335"/>
<path d="M179,238.5c0,0,.1,0,.2,0l11.1,-4.7c.2,0,.3,-.2,.3,-.4c0,-.1,0,-.3,-.1,-.4L184,226.5c-.1,-.1,-.3,-.2,-.5,-.1c-.2,0,-.3,.1,-.4,.3l-4.6,11.1c-.1,.2,0,.4,.1,.6c.1,.1,.2,.1,.4,.1m10.2,-5.3l-9.3,3.8l3.9,-9.2Z" class="gd_335"/>
<path d="M179,238l2.2,-5.4l3.1,3.1Z" class="gd_335"/>
<path d="M179,238.5c0,0,.1,0,.2,0l5.3,-2.3c.2,0,.3,-.2,.4,-.4c0,-.1,-.1,-.3,-.2,-.4l-3.1,-3.2c-.1,-.1,-.3,-.1,-.5,-.1c-.2,0,-.3,.2,-.4,.3l-2.2,5.4c-.1,.2,0,.4,.1,.6c.1,.1,.2,.1,.4,.1m4.4,-2.9l-3.5,1.4l1.5,-3.5Z" class="gd_335"/>
<path d="M209.5,210.4l-2.9,-3l-21.2,21.2l2.9,3Z" class="gg_335"/>
<path d="M188.3,232.1c.2,0,.3,0,.4,-.1l21.2,-21.2c.1,-.1,.2,-.3,.2,-.4c0,-.2,-.1,-.3,-.2,-.4l-3,-3c-.2,-.2,-.5,-.2,-.7,0L185,228.3c-.1,.1,-.2,.2,-.2,.3c0,.2,.1,.3,.2,.4l3,3c.1,.1,.2,.1,.3,.1m20.5,-21.7l-20.5,20.4l-2.2,-2.2l20.5,-20.4Z" class="gd_335"/>
<path d="M154.1,1243.9h713V1121h-713v122.9Z" class="gh_335"/>
<path d="M154.1,1125.6v116m4.6,2.3H864.9m2.2,-4.5V1123.3m-4.5,-2.3H156.4" class="gi_335"/>
<path d="M154.1,1243.9v0m713.1,0v0m0,-122.9v0m-713.1,0v0" class="gj_335"/>
<path d="M153.3,1124.3v-28.7c0,0,0,-8.6,8.7,-8.6H859.3c0,0,8.6,0,8.6,8.6v29.2Z" class="gk_335"/>
<path d="M195.5,1091.1c3.4,0,6.1,-2.8,6.1,-6.1c0,-3.4,-2.7,-6.1,-6.1,-6.1c-3.4,0,-6.1,2.7,-6.1,6.1c0,3.3,2.7,6.1,6.1,6.1Z" class="gl_335"/>
<path d="M195.5,1093c4.4,0,8,-3.6,8,-8c0,-4.5,-3.6,-8.1,-8,-8.1c-4.4,0,-8,3.6,-8,8.1c0,4.4,3.6,8,8,8m0,-14.1c3.4,0,6.1,2.7,6.1,6.1c0,3.3,-2.7,6.1,-6.1,6.1c-3.4,0,-6.1,-2.8,-6.1,-6.1c0,-3.4,2.7,-6.1,6.1,-6.1Z" class="gm_335"/>
<path d="M180.9,1107.1h29.2v-3.8c0,-4.4,-3.5,-8,-7.9,-8H188.8c-4.3,0,-7.9,3.6,-7.9,8Z" class="gl_335"/>
<path d="M172.6,1112.4h45.8V1109H172.6v3.4Z" class="g1_335"/>
<path d="M219.4,1107.1h-2.7v-11.6c0,-.2,-.1,-.5,-.3,-.6l-2.6,-2.6c.3,-.6,.5,-1.2,.5,-1.8c0,-2,-1.6,-3.6,-3.6,-3.6c-2,0,-3.6,1.6,-3.6,3.6c0,2,1.6,3.6,3.6,3.6c.7,0,1.3,-.2,1.8,-.5l2.3,2.3v11.2H212v-3.8c0,-5.5,-4.4,-9.9,-9.8,-9.9H188.8c-5.4,0,-9.8,4.4,-9.8,9.9v3.8h-7.4c-.5,0,-.9,.4,-.9,.9v5.4c0,.5,.4,.9,.9,.9h2.7v11.3c0,.6,.4,1,.9,1h40.6c.5,0,.9,-.4,.9,-1v-11.3h2.7c.5,0,.9,-.4,.9,-.9V1108c0,-.5,-.4,-.9,-.9,-.9m-8.7,-14.9c-.9,0,-1.7,-.8,-1.7,-1.7c0,-.9,.8,-1.7,1.7,-1.7c.9,0,1.7,.8,1.7,1.7c0,.9,-.8,1.7,-1.7,1.7m7.7,20.2H172.6V1109h45.8Zm-3.6,12.3H176.2v-10.4h38.6v10.4Zm-26,-29.4h13.4c4.4,0,7.9,3.6,7.9,8v3.8H180.9v-3.8c0,-4.4,3.6,-8,7.9,-8Z" class="gm_335"/>
<path d="M176.2,1124.7h38.6v-10.4H176.2v10.4Zm2.8,-7.6c0,-.2,.2,-.4,.5,-.4h32c.3,0,.5,.2,.5,.4v4.8c0,.2,-.2,.4,-.5,.4h-32c-.3,0,-.5,-.2,-.5,-.4Z" class="g1_335"/>
<path d="M180,1121.4h31v-3.8H180v3.8Z" class="gn_335"/>
<path d="M179.5,1122.3h32c.3,0,.5,-.2,.5,-.4v-4.8c0,-.2,-.2,-.4,-.5,-.4h-32c-.3,0,-.5,.2,-.5,.4v4.8c0,.2,.2,.4,.5,.4m.5,-4.7h31v3.8H180Z" class="gm_335"/>
<path d="M212.4,1090.5c0,-.9,-.8,-1.7,-1.7,-1.7c-.9,0,-1.7,.8,-1.7,1.7c0,.9,.8,1.7,1.7,1.7c.9,0,1.7,-.8,1.7,-1.7Z" class="g1_335"/>
<path d="M32.1,45.1H9.2m958.3,0h22.9M32.1,1331.3H9.2m958.3,0h22.9M45.1,32.1V9.2m0,1335.1v22.9M954.5,32.1V9.2m0,1335.1v22.9" class="go_335"/>
<path d="M32.1,45.1H9.2m958.3,0h22.9M32.1,1331.3H9.2m958.3,0h22.9M45.1,32.1V9.2m0,1335.1v22.9M954.5,32.1V9.2m0,1335.1v22.9" class="gp_335"/>
<path d="M27.5,32.1H0m972.1,0h27.5M27.5,1344.3H0m972.1,0h27.5M32.1,27.5V0m0,1348.9v27.5M967.5,27.5V0m0,1348.9v27.5" class="go_335"/>
<path d="M27.5,32.1H0m972.1,0h27.5M27.5,1344.3H0m972.1,0h27.5M32.1,27.5V0m0,1348.9v27.5M967.5,27.5V0m0,1348.9v27.5" class="gp_335"/>
</svg>