<?xml version="1.0" encoding="UTF-8" standalone="no"?>
<!DOCTYPE svg PUBLIC "-//W3C//DTD SVG 1.1//EN"
"http://www.w3.org/Graphics/SVG/1.1/DTD/svg11.dtd">
<svg viewBox="0 0 999 1376" version="1.1" xmlns="http://www.w3.org/2000/svg" xmlns:xlink="http://www.w3.org/1999/xlink">
<defs>
<clipPath id="c0_75"><path d="M32.1,1344.3V32.1H967.5V1344.3Z"/></clipPath>
<clipPath id="c1_75"><path d="M207.3,628.3l-6.5,-2.1L184.4,612.3V555.2h72v73.1Z"/></clipPath>
<clipPath id="c2_75"><path d="M200.1,137.2c.1,-1.3,.7,-2.5,1.6,-3.4c1,-1,2.3,-1.6,3.9,-1.6h19.2v5Z"/></clipPath>
<clipPath id="c3_75"><path d="M199.5,137.7v-6h25.8v6Z"/></clipPath>
<style type="text/css"><![CDATA[
.g0_75{
fill: #FEFCF4;
}
.g1_75{
fill: #DEF1F3;
}
.g2_75{
fill: #8FD5E3;
}
.g3_75{
fill: #FFF;
}
.g4_75{
fill: none;
stroke: #58595B;
stroke-width: 0.381;
stroke-miterlimit: 10;
}
.g5_75{
fill: none;
stroke: #6381B7;
stroke-width: 0.763;
}
.g6_75{
fill: #E3E7F2;
}
.g7_75{
fill: none;
stroke: #231F20;
stroke-width: 0.305;
stroke-miterlimit: 10;
}
.g8_75{
fill: #6381B7;
}
.g9_75{
fill: none;
stroke: #6381B7;
stroke-width: 0.381;
stroke-dasharray: 2,1;
}
.ga_75{
fill: none;
stroke: #6381B7;
stroke-width: 0.381;
}
.gb_75{
fill: #FCE8B0;
}
.gc_75{
fill: #25408F;
}
.gd_75{
fill: none;
stroke: #231F20;
stroke-width: 1.527;
}
.ge_75{
fill: #39B4D1;
stroke: #2D2A4A;
stroke-width: 1.038;
stroke-linecap: round;
stroke-linejoin: round;
}
.gf_75{
fill: #2D2A4A;
}
.gg_75{
fill: none;
stroke: #2D2A4A;
stroke-width: 1.038;
stroke-linecap: round;
stroke-linejoin: round;
}
.gh_75{
fill: #DEDAD3;
}
.gi_75{
fill: #29263F;
}
.gj_75{
fill: #E15F46;
stroke: #2D2A4A;
stroke-width: 1.038;
stroke-linecap: round;
stroke-linejoin: round;
}
.gk_75{
fill: #F0F5FA;
}
.gl_75{
fill: none;
stroke: #7CA7D8;
stroke-width: 1.527;
stroke-linecap: round;
stroke-linejoin: round;
stroke-dasharray: 0,5;
}
.gm_75{
fill: none;
stroke: #7CA7D8;
stroke-width: 1.527;
stroke-linecap: round;
stroke-linejoin: round;
}
.gn_75{
fill: #7CA7D8;
}
.go_75{
fill: #BFD62F;
}
.gp_75{
fill: #3D3B39;
}
.gq_75{
fill: #F5CA58;
}
.gr_75{
fill: none;
stroke: #FFF;
stroke-width: 1.909;
stroke-miterlimit: 10;
}
.gs_75{
fill: none;
stroke: #000;
stroke-width: 0.381;
stroke-miterlimit: 10;
}
]]></style>
</defs>
<path clip-path="url(#c0_75)" d="M-877.3,1344.3H45.1V32.1H-877.3V1344.3Z" class="g0_75"/>
<path d="M170.7,166.3c0,0,-17.4,0,-17.4,17.4V473c0,0,0,17.3,17.4,17.3H850.6c0,0,17.3,0,17.3,-17.3V183.7c0,0,0,-17.4,-17.3,-17.4Z" class="g1_75"/>
<path d="M181.5,239.7H346v74.9H181.5V239.7Zm164.5,0H675.2v26H346v-26Zm329.2,0H839.7v74.9H675.2V239.7ZM346,265.7H510.6v48.9H346V265.7Zm164.6,0H675.2v48.9H510.6V265.7Z" class="g2_75"/>
<path d="M181.5,314.6H346v77.9H181.5V314.6Zm164.5,0H675.2v77.9H346V314.6Zm329.2,0H839.7v77.9H675.2V314.6Z" class="g3_75"/>
<path d="M181.5,239.7H346m0,0H510.6M346,265.5V239.9m164.6,-.2H675.2m0,0H839.7M675.2,265.5V239.9M345.8,265.7H510.6M346,314.4V265.9m164.6,-.2H675.4M510.6,314.4V265.9m164.6,48.5V265.9M181.5,314.6H346m0,0H510.6M346,392.4V314.8m164.6,-.2H675.2m0,0H839.7M675.2,392.4V314.8M181.5,392.6H346m0,0H510.6m0,0H675.2m0,0H839.7" class="g4_75"/>
<path d="M166.5,643.3c0,0,-13,0,-13,13V972.8c0,0,0,13,13,13h688c0,0,13,0,13,-13V656.3c0,0,0,-13,-13,-13Z" class="g3_75"/>
<path d="M166.5,643.3c0,0,-13,0,-13,13V972.8c0,0,0,13,13,13h688c0,0,13,0,13,-13V656.3c0,0,0,-13,-13,-13h-688Z" class="g5_75"/>
<path d="M216.3,696.6c0,0,-8.6,0,-8.6,8.7v51.9c0,0,0,8.7,8.6,8.7H826.9c0,0,8.7,0,8.7,-8.7V705.3c0,0,0,-8.7,-8.7,-8.7Z" class="g6_75"/>
<path d="M238.4,751.1H572.1" class="g7_75"/>
<path d="M216.3,846.6c0,0,-8.6,0,-8.6,8.7v51.9c0,0,0,8.7,8.6,8.7H826.9c0,0,8.7,0,8.7,-8.7V855.3c0,0,0,-8.7,-8.7,-8.7Z" class="g6_75"/>
<path d="M238.4,901.1H572.1" class="g7_75"/>
<path d="M747.2,1000.4c0,0,-4.4,0,-4.4,4.3v10.8c0,0,0,4.4,4.4,4.4h30.3c0,0,4.3,0,4.3,-4.4v-10.8c0,0,0,-4.3,-4.3,-4.3Z" class="g8_75"/>
<path d="M734,992.9v34.8m1.3,1H866.9m1,-1.4V992.5m-1.4,-1H734.9" class="g9_75"/>
<path d="M734,1028.1v.6h.6m132.7,0h.6v-.6m0,-36v-.6h-.6m-132.7,0H734v.6" class="ga_75"/>
<path d="M240,557.3c0,0,-13,0,-13,13V618c0,0,0,12.9,13,12.9H855.1c0,0,12.9,0,12.9,-12.9V570.3c0,0,0,-13,-12.9,-13Z" class="gb_75"/>
<image clip-path="url(#c1_75)" preserveAspectRatio="none" x="183" y="554" width="75" height="76" xlink:href="img/1.png"/>
<path d="M234.8,623.6c0,0,-26.9,11.3,-51.1,-12.8c0,0,15.1,25.3,49.2,24c0,0,24.8,.3,20.3,-10.1c0,0,1.2,-4.5,-18.4,-1.1Z" class="gb_75"/>
<path d="M153.3,109.5v39L165,158.7V136.5Z" class="gc_75"/>
<path d="M153.3,109.5v39H851.1c0,0,16.8,0,16.8,-16.8v-5.4c0,0,0,-16.8,-16.8,-16.8Z" class="g8_75"/>
<path d="M790.4,131c0,0,-.5,-10,8.6,-9.4c0,0,6.8,-.3,6.7,9.5m-15.3,-1.5v6.5c0,0,-3.4,.3,-3.9,-3c0,0,-.1,-3.8,3.9,-3.5Zm15.3,0v6.5c0,0,3.4,.3,4,-3c0,0,0,-3.8,-4,-3.5Z" class="gd_75"/>
<path d="M169,140.8h61v-32H169v32Z" class="ge_75"/>
<path d="M169,143.1h61v-2.3H169v2.3Z" class="ge_75"/>
<path d="M193.5,106.2H173.8v31.5h25.7V112.3c0,-3.4,-2.7,-6.1,-6,-6.1Z" class="g3_75"/>
<path d="M193.5,106.2v-.5H173.8c-.2,0,-.3,.1,-.4,.2c-.1,.1,-.2,.2,-.2,.3v31.5c0,.1,.1,.3,.2,.4c.1,.1,.2,.1,.4,.1h25.7c.2,0,.3,0,.4,-.1c.1,-.1,.1,-.3,.1,-.4V112.3c0,-3.7,-2.9,-6.6,-6.5,-6.6v1c1.5,0,2.9,.7,3.9,1.7c1,1,1.6,2.3,1.6,3.9v24.9H174.3V106.7h19.2Z" class="gf_75"/>
<path d="M173.8,131.7v6h25.7c0,-3.3,-2.7,-6,-6,-6Z" class="g3_75"/>
<path d="M173.8,131.7h-.6v6c0,.1,.1,.3,.2,.4c.1,.1,.2,.1,.4,.1h25.7c.2,0,.3,0,.4,-.1c.1,-.1,.1,-.3,.1,-.4c0,-3.6,-2.9,-6.6,-6.5,-6.6H173.8c-.2,0,-.3,.1,-.4,.2c-.1,.1,-.2,.2,-.2,.4h.6v.5h19.7c1.5,0,2.9,.6,3.9,1.6c1,1,1.6,2.4,1.6,3.9h.5v-.5H174.3v-5.5h-.5v.5Z" class="gf_75"/>
<path d="M177.3,110.9h17.2m-17.2,2.8h17.2m-17.2,2.9h17.2m-17.2,2.9h17.2m-17.2,2.8h17.2m-17.2,2.9h17.2M177.3,128h17.2" class="gg_75"/>
<path d="M193.5,132.2H174.3v5H199c-.1,-1.3,-.7,-2.5,-1.6,-3.4c-1,-1,-2.4,-1.6,-3.9,-1.6Z" class="gh_75"/>
<path d="M174.3,132.2h19.2c1.5,0,2.9,.6,3.9,1.6c.9,.9,1.5,2.1,1.6,3.4H174.3Zm19.2,-.5H173.8v6H199v-2.5c-.9,-2.1,-3.1,-3.5,-5.5,-3.5Z" class="gi_75"/>
<path d="M205.6,106.2h19.7v31.5H199.5V112.3c0,-3.4,2.7,-6.1,6.1,-6.1Z" class="g3_75"/>
<path d="M205.6,106.2v.5h19.2v30.5H200V112.3c0,-1.6,.7,-2.9,1.7,-3.9c1,-1,2.3,-1.7,3.9,-1.7v-1c-3.7,0,-6.6,2.9,-6.6,6.6v25.4c0,.1,.1,.3,.2,.4c0,.1,.2,.1,.3,.1h25.8c.1,0,.2,0,.3,-.1c.1,-.1,.2,-.3,.2,-.4V106.2c0,-.1,-.1,-.2,-.2,-.3c-.1,-.1,-.2,-.2,-.3,-.2H205.6Z" class="gf_75"/>
<path d="M225.3,131.7v6H199.5c0,-3.3,2.7,-6,6.1,-6Z" class="g3_75"/>
<path d="M225.3,131.7h-.5v5.5H199.5v.5h.5c0,-1.5,.7,-2.9,1.7,-3.9c1,-1,2.3,-1.6,3.9,-1.6h19.7v-.5h-.5h.5v-.6H205.6c-3.7,0,-6.6,3,-6.6,6.6c0,.1,.1,.3,.2,.4c0,.1,.2,.1,.3,.1h25.8c.1,0,.2,0,.3,-.1c.1,-.1,.2,-.3,.2,-.4v-6c0,-.2,-.1,-.3,-.2,-.4c-.1,-.1,-.2,-.2,-.3,-.2Z" class="gf_75"/>
<path d="M221.8,110.9H204.6m17.2,2.8H204.6m17.2,2.9H204.6m17.2,2.9H204.6m17.2,2.8H204.6m17.2,2.9H204.6m17.2,2.8H204.6" class="gg_75"/>
<path clip-path="url(#c2_75)" d="M200.1,137.2h24.7v-5H200.1v5Z" class="gh_75"/>
<path clip-path="url(#c3_75)" d="M200.1,137.2c.1,-1.3,.7,-2.5,1.6,-3.4c1,-1,2.3,-1.6,3.9,-1.6h19.2v5Zm25.2,-5.5H205.6c-3.4,0,-6.1,2.7,-6.1,6h25.8v-6h-.5h.5Z" class="gi_75"/>
<path d="M199.5,108.8v34.3" class="gg_75"/>
<path d="M217.2,145.5h3.3V134.7h-3.3v10.8Z" class="gj_75"/>
<path d="M153.9,1244.2h713V1121.3h-713v122.9Z" class="gk_75"/>
<path d="M153.9,1125.9v116m4.5,2.3H864.6m2.3,-4.5V1123.6m-4.6,-2.3H156.2" class="gl_75"/>
<path d="M153.9,1244.2v0m713,0v0m0,-122.9v0m-713,0v0" class="gm_75"/>
<path d="M153.1,1124.6v-28.7c0,0,0,-8.6,8.7,-8.6H859c0,0,8.7,0,8.7,8.6v29.2Z" class="gn_75"/>
<path d="M195.3,1091.3c3.3,0,6.1,-2.7,6.1,-6c0,-3.4,-2.8,-6.1,-6.1,-6.1c-3.4,0,-6.1,2.7,-6.1,6.1c0,3.3,2.7,6,6.1,6Z" class="go_75"/>
<path d="M195.3,1093.3c4.4,0,8,-3.6,8,-8c0,-4.5,-3.6,-8.1,-8,-8.1c-4.5,0,-8,3.6,-8,8.1c0,4.4,3.5,8,8,8m0,-14.1c3.3,0,6.1,2.7,6.1,6.1c0,3.3,-2.8,6,-6.1,6c-3.4,0,-6.1,-2.7,-6.1,-6c0,-3.4,2.7,-6.1,6.1,-6.1Z" class="gp_75"/>
<path d="M180.7,1107.4h29.2v-3.8c0,-4.4,-3.6,-8,-8,-8H188.6c-4.4,0,-7.9,3.6,-7.9,8Z" class="go_75"/>
<path d="M172.4,1112.7h45.8v-3.4H172.4v3.4Z" class="g3_75"/>
<path d="M219.1,1107.4h-2.6v-11.6c0,-.2,-.1,-.5,-.3,-.6l-2.6,-2.6c.3,-.6,.5,-1.2,.5,-1.8c0,-2,-1.6,-3.6,-3.6,-3.6c-2,0,-3.6,1.6,-3.6,3.6c0,2,1.6,3.6,3.6,3.6c.6,0,1.2,-.2,1.8,-.5l2.3,2.3v11.2h-2.8v-3.8c0,-5.5,-4.4,-9.9,-9.9,-9.9H188.6c-5.4,0,-9.9,4.4,-9.9,9.9v3.8h-7.3c-.5,0,-1,.4,-1,.9v5.4c0,.5,.5,.9,1,.9h2.7v11.3c0,.5,.4,1,.9,1h40.5c.6,0,1,-.5,1,-1v-11.3h2.6c.6,0,1,-.4,1,-.9v-5.4c0,-.5,-.4,-.9,-1,-.9m-8.6,-14.9c-.9,0,-1.7,-.8,-1.7,-1.7c0,-.9,.8,-1.7,1.7,-1.7c.9,0,1.7,.8,1.7,1.7c0,.9,-.8,1.7,-1.7,1.7m7.7,20.2H172.4v-3.4h45.8Zm-3.6,12.3H176v-10.4h38.6V1125Zm-26,-29.4h13.3c4.4,0,8,3.6,8,8v3.8H180.7v-3.8c0,-4.4,3.5,-8,7.9,-8Z" class="gp_75"/>
<path d="M176,1125h38.6v-10.4H176V1125Zm2.8,-7.6c0,-.2,.2,-.4,.5,-.4h32c.2,0,.5,.2,.5,.4v4.7c0,.3,-.3,.5,-.5,.5h-32c-.3,0,-.5,-.2,-.5,-.5Z" class="g3_75"/>
<path d="M179.7,1121.7h31.1v-3.8H179.7v3.8Z" class="gq_75"/>
<path d="M179.3,1122.6h32c.2,0,.5,-.2,.5,-.5v-4.7c0,-.2,-.3,-.4,-.5,-.4h-32c-.3,0,-.5,.2,-.5,.4v4.7c0,.3,.2,.5,.5,.5m.4,-4.7h31.1v3.8H179.7Z" class="gp_75"/>
<path d="M212.2,1090.8c0,-.9,-.8,-1.7,-1.7,-1.7c-.9,0,-1.7,.8,-1.7,1.7c0,.9,.8,1.7,1.7,1.7c.9,0,1.7,-.8,1.7,-1.7Z" class="g3_75"/>
<path d="M32.1,45.1H9.2m958.3,0h22.9M32.1,1331.3H9.2m958.3,0h22.9M45.1,32.1V9.2m0,1335.1v22.9M954.5,32.1V9.2m0,1335.1v22.9" class="gr_75"/>
<path d="M32.1,45.1H9.2m958.3,0h22.9M32.1,1331.3H9.2m958.3,0h22.9M45.1,32.1V9.2m0,1335.1v22.9M954.5,32.1V9.2m0,1335.1v22.9" class="gs_75"/>
<path d="M27.5,32.1H0m972.1,0h27.5M27.5,1344.3H0m972.1,0h27.5M32.1,27.5V0m0,1348.9v27.5M967.5,27.5V0m0,1348.9v27.5" class="gr_75"/>
<path d="M27.5,32.1H0m972.1,0h27.5M27.5,1344.3H0m972.1,0h27.5M32.1,27.5V0m0,1348.9v27.5M967.5,27.5V0m0,1348.9v27.5" class="gs_75"/>
</svg>