<?xml version="1.0" encoding="UTF-8" standalone="no"?>
<!DOCTYPE svg PUBLIC "-//W3C//DTD SVG 1.1//EN"
"http://www.w3.org/Graphics/SVG/1.1/DTD/svg11.dtd">
<svg viewBox="0 0 999 1376" version="1.1" xmlns="http://www.w3.org/2000/svg" xmlns:xlink="http://www.w3.org/1999/xlink">
<defs>
<clipPath id="c0_159"><path d="M32.1,1344.3V32.1H967.5V1344.3Z"/></clipPath>
<clipPath id="c1_159"><path d="M198.2,709.4l-6.5,-2.2L175.4,693.3V636.2h71.9v73.2Z"/></clipPath>
<clipPath id="c2_159"><path d="M200.1,137.2c.1,-1.3,.7,-2.5,1.6,-3.4c1,-1,2.3,-1.6,3.9,-1.6h19.2v5Z"/></clipPath>
<clipPath id="c3_159"><path d="M199.5,137.7v-6h25.8v6Z"/></clipPath>
<style type="text/css"><![CDATA[
.g0_159{
fill: #FEFCF4;
}
.g1_159{
fill: #DCE9F3;
}
.g2_159{
fill: #FFF;
}
.g3_159{
fill: none;
stroke: #6381B7;
stroke-width: 0.763;
}
.g4_159{
fill: none;
stroke: #231F20;
stroke-width: 0.305;
stroke-miterlimit: 10;
}
.g5_159{
fill: #6381B7;
}
.g6_159{
fill: none;
stroke: #6381B7;
stroke-width: 0.381;
stroke-dasharray: 2,1;
}
.g7_159{
fill: none;
stroke: #6381B7;
stroke-width: 0.381;
}
.g8_159{
fill: #FCE8B0;
}
.g9_159{
fill: #25408F;
}
.ga_159{
fill: none;
stroke: #231F20;
stroke-width: 1.527;
}
.gb_159{
fill: #39B4D1;
stroke: #2D2A4A;
stroke-width: 1.038;
stroke-linecap: round;
stroke-linejoin: round;
}
.gc_159{
fill: #2D2A4A;
}
.gd_159{
fill: none;
stroke: #2D2A4A;
stroke-width: 1.038;
stroke-linecap: round;
stroke-linejoin: round;
}
.ge_159{
fill: #DEDAD3;
}
.gf_159{
fill: #29263F;
}
.gg_159{
fill: #E15F46;
stroke: #2D2A4A;
stroke-width: 1.038;
stroke-linecap: round;
stroke-linejoin: round;
}
.gh_159{
fill: #F7F8E9;
}
.gi_159{
fill: none;
stroke: #BFD62F;
stroke-width: 1.527;
stroke-linecap: round;
stroke-linejoin: round;
stroke-dasharray: 0,5;
}
.gj_159{
fill: none;
stroke: #BFD62F;
stroke-width: 1.527;
stroke-linecap: round;
stroke-linejoin: round;
}
.gk_159{
fill: #BFD62F;
}
.gl_159{
fill: #D1232A;
}
.gm_159{
fill: #233D4A;
}
.gn_159{
fill: #FFE293;
}
.go_159{
fill: #F89C47;
}
.gp_159{
fill: none;
stroke: #FFF;
stroke-width: 1.909;
stroke-miterlimit: 10;
}
.gq_159{
fill: none;
stroke: #000;
stroke-width: 0.381;
stroke-miterlimit: 10;
}
]]></style>
</defs>
<path clip-path="url(#c0_159)" d="M-877.3,1344.3H45.1V32.1H-877.3V1344.3Z" class="g0_159"/>
<path d="M170,167.6c0,0,-17.4,0,-17.4,17.4V333.3c0,0,0,17.3,17.4,17.3H849.9c0,0,17.3,0,17.3,-17.3V185c0,0,0,-17.4,-17.3,-17.4Z" class="g1_159"/>
<path d="M166.5,730.8c0,0,-13,0,-13,13v384.9c0,0,0,13,13,13h688c0,0,13,0,13,-13V743.8c0,0,0,-13,-13,-13Z" class="g2_159"/>
<path d="M166.5,730.8c0,0,-13,0,-13,13v384.9c0,0,0,13,13,13h688c0,0,13,0,13,-13V743.8c0,0,0,-13,-13,-13h-688Z" class="g3_159"/>
<path d="M233.3,843.8H517m-283.7,86H517M233.3,988.7H517M233.3,1097.6H517" class="g4_159"/>
<path d="M390.4,1154.5c0,0,-4.3,0,-4.3,4.3v10.9c0,0,0,4.3,4.3,4.3h30.3c0,0,4.3,0,4.3,-4.3v-10.9c0,0,0,-4.3,-4.3,-4.3Z" class="g5_159"/>
<path d="M377.2,1147v54.9m1.4,.9H866.8m.9,-1.3v-54.9m-1.3,-.9H378.2" class="g6_159"/>
<path d="M377.2,1202.3v.5h.6m489.3,0h.6v-.5m0,-56.1v-.5h-.6m-489.3,0h-.6v.5" class="g7_159"/>
<path d="M230.9,664.4c0,0,-13,0,-13,13V699c0,0,0,13,13,13H854.2c0,0,13,0,13,-13V677.4c0,0,0,-13,-13,-13Z" class="g8_159"/>
<image clip-path="url(#c1_159)" preserveAspectRatio="none" x="174" y="635" width="75" height="76" xlink:href="img/1.png"/>
<path d="M225.7,704.6c0,0,-26.9,11.3,-51.1,-12.7c0,0,15.1,25.3,49.3,23.9c0,0,24.7,.4,20.2,-10.1c0,0,1.2,-4.4,-18.4,-1.1Z" class="g8_159"/>
<path d="M153.3,109.5v39L165,158.7V136.5Z" class="g9_159"/>
<path d="M153.3,109.5v39H851.1c0,0,16.8,0,16.8,-16.8v-5.4c0,0,0,-16.8,-16.8,-16.8Z" class="g5_159"/>
<path d="M790.4,131c0,0,-.5,-10,8.6,-9.4c0,0,6.8,-.3,6.7,9.5m-15.3,-1.5v6.5c0,0,-3.4,.3,-3.9,-3c0,0,-.1,-3.8,3.9,-3.5Zm15.3,0v6.5c0,0,3.4,.3,4,-3c0,0,0,-3.8,-4,-3.5Z" class="ga_159"/>
<path d="M169,140.8h61v-32H169v32Z" class="gb_159"/>
<path d="M169,143.1h61v-2.3H169v2.3Z" class="gb_159"/>
<path d="M193.5,106.2H173.8v31.5h25.7V112.3c0,-3.4,-2.7,-6.1,-6,-6.1Z" class="g2_159"/>
<path d="M193.5,106.2v-.5H173.8c-.2,0,-.3,.1,-.4,.2c-.1,.1,-.2,.2,-.2,.3v31.5c0,.1,.1,.3,.2,.4c.1,.1,.2,.1,.4,.1h25.7c.2,0,.3,0,.4,-.1c.1,-.1,.1,-.3,.1,-.4V112.3c0,-3.7,-2.9,-6.6,-6.5,-6.6v1c1.5,0,2.9,.7,3.9,1.7c1,1,1.6,2.3,1.6,3.9v24.9H174.3V106.7h19.2Z" class="gc_159"/>
<path d="M173.8,131.7v6h25.7c0,-3.3,-2.7,-6,-6,-6Z" class="g2_159"/>
<path d="M173.8,131.7h-.6v6c0,.1,.1,.3,.2,.4c.1,.1,.2,.1,.4,.1h25.7c.2,0,.3,0,.4,-.1c.1,-.1,.1,-.3,.1,-.4c0,-3.6,-2.9,-6.6,-6.5,-6.6H173.8c-.2,0,-.3,.1,-.4,.2c-.1,.1,-.2,.2,-.2,.4h.6v.5h19.7c1.5,0,2.9,.6,3.9,1.6c1,1,1.6,2.4,1.6,3.9h.5v-.5H174.3v-5.5h-.5v.5Z" class="gc_159"/>
<path d="M177.3,110.9h17.2m-17.2,2.8h17.2m-17.2,2.9h17.2m-17.2,2.9h17.2m-17.2,2.8h17.2m-17.2,2.9h17.2M177.3,128h17.2" class="gd_159"/>
<path d="M193.5,132.2H174.3v5H199c-.1,-1.3,-.7,-2.5,-1.6,-3.4c-1,-1,-2.4,-1.6,-3.9,-1.6Z" class="ge_159"/>
<path d="M174.3,132.2h19.2c1.5,0,2.9,.6,3.9,1.6c.9,.9,1.5,2.1,1.6,3.4H174.3Zm19.2,-.5H173.8v6H199v-2.5c-.9,-2.1,-3.1,-3.5,-5.5,-3.5Z" class="gf_159"/>
<path d="M205.6,106.2h19.7v31.5H199.5V112.3c0,-3.4,2.7,-6.1,6.1,-6.1Z" class="g2_159"/>
<path d="M205.6,106.2v.5h19.2v30.5H200V112.3c0,-1.6,.7,-2.9,1.7,-3.9c1,-1,2.3,-1.7,3.9,-1.7v-1c-3.7,0,-6.6,2.9,-6.6,6.6v25.4c0,.1,.1,.3,.2,.4c0,.1,.2,.1,.3,.1h25.8c.1,0,.2,0,.3,-.1c.1,-.1,.2,-.3,.2,-.4V106.2c0,-.1,-.1,-.2,-.2,-.3c-.1,-.1,-.2,-.2,-.3,-.2H205.6Z" class="gc_159"/>
<path d="M225.3,131.7v6H199.5c0,-3.3,2.7,-6,6.1,-6Z" class="g2_159"/>
<path d="M225.3,131.7h-.5v5.5H199.5v.5h.5c0,-1.5,.7,-2.9,1.7,-3.9c1,-1,2.3,-1.6,3.9,-1.6h19.7v-.5h-.5h.5v-.6H205.6c-3.7,0,-6.6,3,-6.6,6.6c0,.1,.1,.3,.2,.4c0,.1,.2,.1,.3,.1h25.8c.1,0,.2,0,.3,-.1c.1,-.1,.2,-.3,.2,-.4v-6c0,-.2,-.1,-.3,-.2,-.4c-.1,-.1,-.2,-.2,-.3,-.2Z" class="gc_159"/>
<path d="M221.8,110.9H204.6m17.2,2.8H204.6m17.2,2.9H204.6m17.2,2.9H204.6m17.2,2.8H204.6m17.2,2.9H204.6m17.2,2.8H204.6" class="gd_159"/>
<path clip-path="url(#c2_159)" d="M200.1,137.2h24.7v-5H200.1v5Z" class="ge_159"/>
<path clip-path="url(#c3_159)" d="M200.1,137.2c.1,-1.3,.7,-2.5,1.6,-3.4c1,-1,2.3,-1.6,3.9,-1.6h19.2v5Zm25.2,-5.5H205.6c-3.4,0,-6.1,2.7,-6.1,6h25.8v-6h-.5h.5Z" class="gf_159"/>
<path d="M199.5,108.8v34.3" class="gd_159"/>
<path d="M217.2,145.5h3.3V134.7h-3.3v10.8Z" class="gg_159"/>
<path d="M154.1,567h713V398.6h-713V567Z" class="gh_159"/>
<path d="M154.1,403.2V564.8m4.6,2.2H864.9m2.2,-4.5V400.9m-4.5,-2.3H156.4" class="gi_159"/>
<path d="M154.1,567v0m713.1,0v0m0,-168.4v0m-713.1,0v0" class="gj_159"/>
<path d="M153.3,401.9V373.3c0,0,0,-8.7,8.7,-8.7H859.3c0,0,8.6,0,8.6,8.7v29.1Z" class="gk_159"/>
<path d="M175,425.3c0,0,4.8,5.5,6.1,12.4c0,0,6.6,-11.4,11.7,-14c0,0,-9.3,4.9,-11.2,8.2c0,0,-1.8,-4.3,-6.6,-6.6Z" class="gl_159"/>
<path d="M183.4,393.5l3,2.9l8.1,-8.1l-2.9,-3Z" class="g2_159"/>
<path d="M186.4,397.4v0c.3,0,.5,-.1,.7,-.2l8.1,-8.2c.2,-.2,.3,-.4,.3,-.7c0,-.2,-.1,-.5,-.3,-.7l-2.9,-2.9c-.4,-.4,-1,-.4,-1.4,0l-8.2,8.1c-.4,.4,-.4,1,0,1.4l3,3c.2,.1,.4,.2,.7,.2m6.7,-9.1l-6.7,6.7l-1.6,-1.5l6.8,-6.8Z" class="gm_159"/>
<path d="M190,366.5c-6.5,6.5,-6.5,17.1,0,23.7c6.5,6.5,17.1,6.5,23.7,0c6.5,-6.6,6.5,-17.2,0,-23.7c-6.6,-6.5,-17.2,-6.5,-23.7,0Z" class="gn_159"/>
<path d="M201.8,396.1c4.8,0,9.2,-1.9,12.6,-5.2c6.9,-6.9,6.9,-18.2,0,-25.1c-3.4,-3.3,-7.8,-5.2,-12.6,-5.2c-4.7,0,-9.2,1.9,-12.5,5.2c-6.9,6.9,-6.9,18.2,0,25.1c3.3,3.3,7.8,5.2,12.5,5.2m0,-33.5c4.2,0,8.2,1.6,11.2,4.6c6.1,6.1,6.1,16.1,0,22.3c-3,3,-7,4.6,-11.2,4.6c-4.2,0,-8.1,-1.6,-11.1,-4.6c-6.2,-6.2,-6.2,-16.2,0,-22.3c3,-3,6.9,-4.6,11.1,-4.6Z" class="gm_159"/>
<path d="M176,398.7l5.2,5.2l8.2,-8.2l-5.2,-5.2Z" class="go_159"/>
<path d="M181.2,404.9c.3,0,.5,-.1,.7,-.3l8.2,-8.2c.2,-.2,.3,-.4,.3,-.7c0,-.3,-.1,-.5,-.3,-.7l-5.2,-5.2c-.4,-.4,-1,-.4,-1.4,0l-8.2,8.2c-.4,.4,-.4,1,0,1.4l5.2,5.2c.2,.2,.5,.3,.7,.3m6.8,-9.2l-6.8,6.8l-3.8,-3.8l6.8,-6.8Z" class="gm_159"/>
<path d="M189.8,378.4c0,6.6,5.3,12,11.9,12c6.6,0,12,-5.4,12,-12c0,-6.6,-5.4,-11.9,-12,-11.9c-6.6,0,-11.9,5.3,-11.9,11.9Z" class="g2_159"/>
<path d="M201.7,391.2c7,0,12.8,-5.7,12.8,-12.8c0,-7,-5.8,-12.7,-12.8,-12.7c-7,0,-12.7,5.7,-12.7,12.7c0,7.1,5.7,12.8,12.7,12.8m0,-23.9c6.2,0,11.2,5,11.2,11.1c0,6.2,-5,11.2,-11.2,11.2c-6.1,0,-11.1,-5,-11.1,-11.2c0,-6.1,5,-11.1,11.1,-11.1Z" class="gm_159"/>
<path d="M32.1,45.1H9.2m958.3,0h22.9M32.1,1331.3H9.2m958.3,0h22.9M45.1,32.1V9.2m0,1335.1v22.9M954.5,32.1V9.2m0,1335.1v22.9" class="gp_159"/>
<path d="M32.1,45.1H9.2m958.3,0h22.9M32.1,1331.3H9.2m958.3,0h22.9M45.1,32.1V9.2m0,1335.1v22.9M954.5,32.1V9.2m0,1335.1v22.9" class="gq_159"/>
<path d="M27.5,32.1H0m972.1,0h27.5M27.5,1344.3H0m972.1,0h27.5M32.1,27.5V0m0,1348.9v27.5M967.5,27.5V0m0,1348.9v27.5" class="gp_159"/>
<path d="M27.5,32.1H0m972.1,0h27.5M27.5,1344.3H0m972.1,0h27.5M32.1,27.5V0m0,1348.9v27.5M967.5,27.5V0m0,1348.9v27.5" class="gq_159"/>
</svg>