<?xml version="1.0" encoding="UTF-8" standalone="no"?>
<!DOCTYPE svg PUBLIC "-//W3C//DTD SVG 1.1//EN"
"http://www.w3.org/Graphics/SVG/1.1/DTD/svg11.dtd">
<svg viewBox="0 0 999 1376" version="1.1" xmlns="http://www.w3.org/2000/svg" xmlns:xlink="http://www.w3.org/1999/xlink">
<defs>
<clipPath id="c0_314"><path d="M32.1,1344.3V32.1H967.5V1344.3Z"/></clipPath>
<clipPath id="c1_314"><path d="M177,907.8l-6.5,-2.1L154.1,891.8V834.7h72v73.1Z"/></clipPath>
<clipPath id="c2_314"><path d="M280.6,718.9V619.7h99.2v99.2Z"/></clipPath>
<clipPath id="c3_314"><path d="M177,235.1L170.5,233L154.1,219.1V162h72v73.1Z"/></clipPath>
<style type="text/css"><![CDATA[
.g0_314{
fill: #FEFCF4;
}
.g1_314{
fill: #FCE8B0;
}
.g2_314{
fill: #FFF;
}
.g3_314{
fill: none;
stroke: #6381B7;
stroke-width: 0.763;
}
.g4_314{
fill: none;
stroke: #949698;
stroke-width: 0.381;
}
.g5_314{
fill: #F0E8F3;
}
.g6_314{
fill: none;
stroke: #231F20;
stroke-width: 0.381;
stroke-miterlimit: 10;
}
.g7_314{
fill: #25408F;
}
.g8_314{
fill: #6381B7;
}
.g9_314{
fill: #00BAF1;
}
.ga_314{
fill: #332D2C;
}
.gb_314{
fill: #D9DFF0;
}
.gc_314{
fill: #F27C85;
}
.gd_314{
fill: #7DD3F6;
}
.ge_314{
fill: none;
stroke: #FFF;
stroke-width: 1.909;
stroke-miterlimit: 10;
}
.gf_314{
fill: none;
stroke: #000;
stroke-width: 0.381;
stroke-miterlimit: 10;
}
]]></style>
</defs>
<path d="M32.1,1343.2H954.5V32.1H32.1V1343.2Z" class="g0_314"/>
<path clip-path="url(#c0_314)" d="M954.5,1344.3H1877V32.1H954.5V1344.3Z" class="g0_314"/>
<path d="M209.6,862.8c0,0,-12.9,0,-12.9,13v21.7c0,0,0,13,12.9,13H833.3c0,0,13,0,13,-13V875.8c0,0,0,-13,-13,-13Z" class="g1_314"/>
<image clip-path="url(#c1_314)" preserveAspectRatio="none" x="153" y="833" width="75" height="76" xlink:href="img/1.png"/>
<path d="M204.4,903.1c0,0,-26.8,11.3,-51.1,-12.7c0,0,15.2,25.3,49.3,23.9c0,0,24.8,.4,20.3,-10.1c0,0,1.2,-4.5,-18.5,-1.1Z" class="g1_314"/>
<path d="M150.4,135.1c0,0,-18.3,0,-18.3,18.3V771.2c0,0,0,18.4,18.3,18.4H827.5c0,0,18.4,0,18.4,-18.4V135.1Z" class="g2_314"/>
<path d="M150.4,135.1c0,0,-18.3,0,-18.3,18.3V771.2c0,0,0,18.4,18.3,18.4H827.5c0,0,18.4,0,18.4,-18.4V135.1H150.4Z" class="g3_314"/>
<path d="M188.2,362.3H308.7V263H188.2v99.3Z" class="g2_314"/>
<image preserveAspectRatio="none" x="199" y="263" width="99" height="99" xlink:href="img/2.jpg"/>
<path d="M188.2,362.3H308.7V263H188.2v99.3Z" class="g4_314"/>
<path d="M515.4,362.3H635.9V263H515.4v99.3Z" class="g2_314"/>
<image preserveAspectRatio="none" x="526" y="263" width="99" height="99" xlink:href="img/3.jpg"/>
<path d="M515.4,362.3H635.9V263H515.4v99.3Z" class="g4_314"/>
<path d="M351.8,362.3H472.3V263H351.8v99.3Z" class="g2_314"/>
<image preserveAspectRatio="none" x="362" y="263" width="100" height="99" xlink:href="img/4.jpg"/>
<path d="M351.8,362.3H472.3V263H351.8v99.3Z" class="g4_314"/>
<path d="M679,362.3H799.5V263H679v99.3Z" class="g2_314"/>
<image preserveAspectRatio="none" x="690" y="263" width="99" height="99" xlink:href="img/5.jpg"/>
<path d="M679,362.3H799.5V263H679v99.3Z" class="g4_314"/>
<path d="M188.2,549H308.7V449.8H188.2V549Z" class="g2_314"/>
<image preserveAspectRatio="none" x="199" y="450" width="99" height="99" xlink:href="img/6.jpg"/>
<path d="M188.2,549H308.7V449.8H188.2V549Z" class="g4_314"/>
<path d="M351.8,549H472.3V449.8H351.8V549Z" class="g2_314"/>
<image preserveAspectRatio="none" x="362" y="450" width="100" height="99" xlink:href="img/7.jpg"/>
<path d="M351.8,549H472.3V449.8H351.8V549Z" class="g4_314"/>
<path d="M515.4,549H635.9V449.8H515.4V549Z" class="g2_314"/>
<image preserveAspectRatio="none" x="526" y="450" width="99" height="99" xlink:href="img/8.jpg"/>
<path d="M515.4,549H635.9V449.8H515.4V549Z" class="g4_314"/>
<path d="M679,549H799.5V449.8H679V549Z" class="g2_314"/>
<image preserveAspectRatio="none" x="690" y="450" width="99" height="99" xlink:href="img/9.jpg"/>
<path d="M679,549H799.5V449.8H679V549Z" class="g4_314"/>
<path d="M270,718.9H390.5V619.7H270v99.2Z" class="g2_314"/>
<image clip-path="url(#c2_314)" preserveAspectRatio="none" x="281" y="620" width="99" height="99" xlink:href="img/10.jpg"/>
<path d="M270,718.9H390.5V619.7H270v99.2Z" class="g4_314"/>
<path d="M433.6,718.9H554.1V619.7H433.6v99.2Z" class="g2_314"/>
<image preserveAspectRatio="none" x="444" y="620" width="99" height="99" xlink:href="img/11.jpg"/>
<path d="M433.6,718.9H554.1V619.7H433.6v99.2Z" class="g4_314"/>
<path d="M597.2,718.9H717.7V619.7H597.2v99.2Z" class="g2_314"/>
<image preserveAspectRatio="none" x="608" y="620" width="99" height="99" xlink:href="img/12.jpg"/>
<path d="M597.2,718.9H717.7V619.7H597.2v99.2Z" class="g4_314"/>
<path d="M832.9,1187.1c0,0,13,0,13,-12.9V941.1c0,0,0,-13,-13,-13H145.1c0,0,-13,0,-13,13v233.1c0,0,0,12.9,13,12.9Z" class="g2_314"/>
<path d="M832.9,1187.1c0,0,13,0,13,-12.9V941.1c0,0,0,-13,-13,-13H145.1c0,0,-13,0,-13,13v233.1c0,0,0,12.9,13,12.9H832.9Z" class="g3_314"/>
<path d="M224.4,1009.1c0,0,-13,0,-13,13V1113c0,0,0,13,13,13H787.3c0,0,13,0,13,-13v-90.9c0,0,0,-13,-13,-13Z" class="g5_314"/>
<path d="M517.7,1069.6H608" class="g6_314"/>
<path d="M209.6,164.2c0,0,-12.9,0,-12.9,13v47.6c0,0,0,13,12.9,13h602c0,0,13,0,13,-13V177.2c0,0,0,-13,-13,-13Z" class="g1_314"/>
<image clip-path="url(#c3_314)" preserveAspectRatio="none" x="153" y="160" width="75" height="77" xlink:href="img/13.png"/>
<path d="M204.4,230.4c0,0,-26.8,11.3,-51.1,-12.7c0,0,15.2,25.3,49.3,23.9c0,0,24.8,.4,20.3,-10.1c0,0,1.2,-4.4,-18.5,-1.1Z" class="g1_314"/>
<path d="M131.7,126.7v22.2l11.7,10.3V137Z" class="g7_314"/>
<path d="M131.7,109.9v39H829.4c0,0,16.9,0,16.9,-16.8v-5.4c0,0,0,-16.8,-16.9,-16.8Z" class="g8_314"/>
<path d="M189.6,121.3l-6.4,-6.5L162,136l6.4,6.5Z" class="g9_314"/>
<path d="M168.4,143c.2,0,.3,0,.4,-.1L190,121.7c.1,-.1,.2,-.3,.2,-.4c0,-.1,-.1,-.3,-.2,-.4l-6.5,-6.4c-.2,-.2,-.5,-.2,-.7,0l-21.2,21.2c-.1,.1,-.2,.2,-.2,.3c0,.2,.1,.3,.2,.4l6.5,6.5c.1,.1,.2,.1,.3,.1m20.5,-21.7l-20.5,20.5L162.7,136l20.5,-20.4Z" class="ga_314"/>
<path d="M189.6,121.3l-6.4,-6.5l2.1,-2.1l6.5,6.5Z" class="gb_314"/>
<path d="M189.6,121.8c.2,0,.3,0,.4,-.1l2.1,-2.1c.1,-.1,.2,-.3,.2,-.4c0,-.2,-.1,-.3,-.2,-.4l-6.4,-6.5c-.2,-.2,-.6,-.2,-.8,0l-2.1,2.2c-.1,0,-.2,.2,-.2,.3c0,.2,.1,.3,.2,.4l6.5,6.5c.1,.1,.2,.1,.3,.1m1.4,-2.6l-1.4,1.4l-5.7,-5.8l1.4,-1.4Z" class="ga_314"/>
<path d="M195.4,115.6l-6.5,-6.5l-3.6,3.6l6.5,6.5Z" class="gc_314"/>
<path d="M191.8,119.7c.1,0,.2,0,.3,-.1l3.7,-3.7c.2,-.2,.2,-.5,0,-.7l-6.5,-6.5c-.2,-.2,-.6,-.2,-.8,0l-3.6,3.6c-.2,.2,-.2,.6,0,.8l6.5,6.5c.1,.1,.2,.1,.4,.1m2.8,-4.1l-2.8,2.8L186,112.7l2.9,-2.9Z" class="ga_314"/>
<path d="M157.3,147.2L162,136l6.4,6.5Z" class="g2_314"/>
<path d="M157.3,147.7c.1,0,.2,0,.2,-.1L168.6,143c.2,-.1,.3,-.2,.4,-.4c0,-.2,-.1,-.3,-.2,-.5l-6.5,-6.4c-.1,-.2,-.3,-.2,-.5,-.2c-.1,.1,-.3,.2,-.3,.3l-4.7,11.1c0,.2,0,.5,.1,.6c.1,.1,.3,.2,.4,.2m10.2,-5.4l-9.2,3.9l3.8,-9.2Z" class="ga_314"/>
<path d="M157.3,147.2l2.3,-5.4l3.1,3.1Z" class="ga_314"/>
<path d="M157.3,147.7c.1,0,.2,0,.2,-.1l5.4,-2.2c.1,-.1,.3,-.2,.3,-.4c0,-.2,0,-.3,-.1,-.5l-3.2,-3.1c-.1,-.1,-.3,-.2,-.4,-.1c-.2,0,-.4,.1,-.4,.3l-2.3,5.3c0,.2,0,.5,.1,.6c.1,.1,.3,.2,.4,.2m4.5,-3l-3.5,1.5l1.4,-3.5Z" class="ga_314"/>
<path d="M187.9,119.5l-3,-2.9l-21.2,21.2l3,3Z" class="gd_314"/>
<path d="M166.7,141.3c.1,0,.2,-.1,.3,-.2l21.3,-21.2c.1,-.1,.1,-.2,.1,-.4c0,-.1,0,-.2,-.1,-.3l-3,-3c-.2,-.2,-.5,-.2,-.8,0l-21.2,21.2c-.1,.1,-.1,.3,-.1,.4c0,.1,0,.3,.1,.4l3,2.9c.1,.1,.2,.2,.4,.2m20.4,-21.8L166.7,140l-2.2,-2.2l20.4,-20.5Z" class="ga_314"/>
<path d="M32.1,45.1H9.2m958.3,0h22.9M32.1,1331.3H9.2m958.3,0h22.9M45.1,32.1V9.2m0,1335.1v22.9M954.5,32.1V9.2m0,1335.1v22.9" class="ge_314"/>
<path d="M32.1,45.1H9.2m958.3,0h22.9M32.1,1331.3H9.2m958.3,0h22.9M45.1,32.1V9.2m0,1335.1v22.9M954.5,32.1V9.2m0,1335.1v22.9" class="gf_314"/>
<path d="M27.5,32.1H0m972.1,0h27.5M27.5,1344.3H0m972.1,0h27.5M32.1,27.5V0m0,1348.9v27.5M967.5,27.5V0m0,1348.9v27.5" class="ge_314"/>
<path d="M27.5,32.1H0m972.1,0h27.5M27.5,1344.3H0m972.1,0h27.5M32.1,27.5V0m0,1348.9v27.5M967.5,27.5V0m0,1348.9v27.5" class="gf_314"/>
</svg>