<?xml version="1.0" encoding="UTF-8" standalone="no"?>
<!DOCTYPE svg PUBLIC "-//W3C//DTD SVG 1.1//EN"
"http://www.w3.org/Graphics/SVG/1.1/DTD/svg11.dtd">
<svg viewBox="0 0 999 1376" version="1.1" xmlns="http://www.w3.org/2000/svg" xmlns:xlink="http://www.w3.org/1999/xlink">
<defs>
<clipPath id="c0_275"><path d="M32.1,1344.3V32.1H967.5V1344.3Z"/></clipPath>
<clipPath id="c1_275"><path d="M199.8,902.1L193.3,900L176.9,886V828.9h71.9v73.2Z"/></clipPath>
<clipPath id="c2_275"><path d="M705.9,443.3V344.1h99.3v99.2Z"/></clipPath>
<clipPath id="c3_275"><path d="M705.9,595.8V496.5h99.3v99.3Z"/></clipPath>
<clipPath id="c4_275"><path d="M705.9,748.3V649h99.3v99.3Z"/></clipPath>
<clipPath id="c5_275"><path d="M205.1,1216.2v-72.9H278v72.9Z"/></clipPath>
<clipPath id="c6_275"><path d="M374.1,1216.2v-72.9H447v72.9Z"/></clipPath>
<clipPath id="c7_275"><path d="M540.6,1215.2v-72.9h72.9v72.9Z"/></clipPath>
<clipPath id="c8_275"><path d="M707.9,1215.2v-72.9h72.9v72.9Z"/></clipPath>
<clipPath id="c9_275"><path d="M644.9,1091.7V999H782.2v92.7Z"/></clipPath>
<clipPath id="ca_275"><path d="M667.8,1090.9v-90.1h90.1v90.1Z"/></clipPath>
<clipPath id="cb_275"><path d="M200.8,325.7l-6.5,-2.1L178,309.6V252.5h71.9v73.2Z"/></clipPath>
<clipPath id="cc_275"><path d="M658.6,177V59h200V177Z"/></clipPath>
<style type="text/css"><![CDATA[
.g0_275{
fill: #FEFCF4;
}
.g1_275{
fill: #FCE8B0;
}
.g2_275{
fill: #FFF;
}
.g3_275{
fill: none;
stroke: #6381B7;
stroke-width: 0.763;
}
.g4_275{
fill: #48484A;
}
.g5_275{
fill: #F0E8F3;
}
.g6_275{
fill: #766FA6;
}
.g7_275{
fill: none;
stroke: #949698;
stroke-width: 0.381;
}
.g8_275{
fill: none;
stroke: #949698;
stroke-width: 1.1;
}
.g9_275{
fill: none;
stroke: #80615F;
stroke-width: 1.015;
}
.ga_275{
fill: none;
stroke: #231F20;
stroke-width: 0.305;
stroke-miterlimit: 10;
}
.gb_275{
fill: #E7D6B2;
}
.gc_275{
fill: none;
stroke: #005695;
stroke-width: 0.311;
}
.gd_275{
fill: #2E6E51;
}
.ge_275{
fill: #BCBEC0;
}
.gf_275{
fill: #EE314A;
}
.gg_275{
fill: #25408F;
}
.gh_275{
fill: #6381B7;
}
.gi_275{
fill: #00BAF1;
}
.gj_275{
fill: #332D2C;
}
.gk_275{
fill: #D9DFF0;
}
.gl_275{
fill: #F27C85;
}
.gm_275{
fill: #7DD3F6;
}
.gn_275{
fill: none;
stroke: #FFF;
stroke-width: 1.909;
stroke-miterlimit: 10;
}
.go_275{
fill: none;
stroke: #000;
stroke-width: 0.381;
stroke-miterlimit: 10;
}
]]></style>
</defs>
<path clip-path="url(#c0_275)" d="M-877.3,1343.2H45.1V32.1H-877.3V1343.2Z" class="g0_275"/>
<path d="M45.1,1344.3H967.5V32.1H45.1V1344.3Z" class="g0_275"/>
<path d="M232.4,857.1c0,0,-13,0,-13,13v21.6c0,0,0,13,13,13H856c0,0,13,0,13,-13V870.1c0,0,0,-13,-13,-13Z" class="g1_275"/>
<image clip-path="url(#c1_275)" preserveAspectRatio="none" x="175" y="827" width="75" height="77" xlink:href="img/1.png"/>
<path d="M227.2,897.4c0,0,-26.9,11.3,-51.1,-12.8c0,0,15.1,25.3,49.3,24c0,0,24.7,.3,20.2,-10.2c0,0,1.2,-4.4,-18.4,-1Z" class="g1_275"/>
<path d="M165.9,915.9c0,0,-13,0,-13,13v302.4c0,0,0,13,13,13h688c0,0,13,0,13,-13V928.9c0,0,0,-13,-13,-13Z" class="g2_275"/>
<path d="M165.9,915.9c0,0,-13,0,-13,13v302.4c0,0,0,13,13,13h688c0,0,13,0,13,-13V928.9c0,0,0,-13,-13,-13h-688Z" class="g3_275"/>
<path d="M197.3,992.2c0,0,-4.3,0,-4.3,4.3v14.4c0,0,0,4.3,4.1,5.7l52.4,18.3c0,0,4.1,1.4,4.1,-2.9V996.5c0,0,0,-4.3,-4.3,-4.3Z" class="g4_275"/>
<path d="M218.5,979.4c0,0,-13,0,-13,13v99.7c0,0,0,13,13,13H816.1c0,0,13,0,13,-13V992.4c0,0,0,-13,-13,-13Z" class="g5_275"/>
<path d="M197.3,990c0,0,-4.3,0,-4.3,4.4v16.9c0,0,0,4.3,4.3,4.3h37.3c0,0,4.4,0,4.4,-4.3V994.4c0,0,0,-4.4,-4.4,-4.4Z" class="g6_275"/>
<path d="M172.1,220.9c0,0,-18.4,0,-18.4,18.3V799.4c0,0,0,18.3,18.4,18.3H849.2c0,0,18.3,0,18.3,-18.3V220.9Z" class="g2_275"/>
<path d="M172.1,220.9c0,0,-18.4,0,-18.4,18.3V799.4c0,0,0,18.3,18.4,18.3H849.2c0,0,18.3,0,18.3,-18.3V220.9H172.1Z" class="g3_275"/>
<path d="M204.5,443.3H325V344.1H204.5v99.2Z" class="g2_275"/>
<image preserveAspectRatio="none" x="215" y="344" width="99" height="99" xlink:href="img/2.jpg"/>
<path d="M204.5,443.3H325V344.1H204.5v99.2Z" class="g7_275"/>
<path d="M531.7,443.3H652.2V344.1H531.7v99.2Z" class="g2_275"/>
<image preserveAspectRatio="none" x="542" y="344" width="100" height="99" xlink:href="img/3.jpg"/>
<path d="M531.7,443.3H652.2V344.1H531.7v99.2Z" class="g7_275"/>
<path d="M368.1,443.3H488.6V344.1H368.1v99.2Z" class="g2_275"/>
<image preserveAspectRatio="none" x="379" y="344" width="99" height="99" xlink:href="img/4.jpg"/>
<path d="M368.1,443.3H488.6V344.1H368.1v99.2Z" class="g7_275"/>
<path d="M695.3,443.3H815.8V344.1H695.3v99.2Z" class="g2_275"/>
<image clip-path="url(#c2_275)" preserveAspectRatio="none" x="706" y="344" width="99" height="99" xlink:href="img/5.jpg"/>
<path d="M695.3,443.3H815.8V344.1H695.3v99.2Z" class="g7_275"/>
<path d="M204.5,595.8H325V496.5H204.5v99.3Z" class="g2_275"/>
<image preserveAspectRatio="none" x="215" y="497" width="99" height="99" xlink:href="img/6.jpg"/>
<path d="M204.5,595.8H325V496.5H204.5v99.3Z" class="g7_275"/>
<path d="M368.1,595.8H488.6V496.5H368.1v99.3Z" class="g2_275"/>
<image preserveAspectRatio="none" x="379" y="497" width="99" height="99" xlink:href="img/7.jpg"/>
<path d="M368.1,595.8H488.6V496.5H368.1v99.3Z" class="g7_275"/>
<path d="M531.7,595.8H652.2V496.5H531.7v99.3Z" class="g2_275"/>
<image preserveAspectRatio="none" x="542" y="497" width="100" height="99" xlink:href="img/8.jpg"/>
<path d="M531.7,595.8H652.2V496.5H531.7v99.3Z" class="g7_275"/>
<path d="M695.3,595.8H815.8V496.5H695.3v99.3Z" class="g2_275"/>
<image clip-path="url(#c3_275)" preserveAspectRatio="none" x="706" y="497" width="99" height="99" xlink:href="img/9.jpg"/>
<path d="M695.3,595.8H815.8V496.5H695.3v99.3Z" class="g7_275"/>
<path d="M204.5,748.3H325V649H204.5v99.3Z" class="g2_275"/>
<image preserveAspectRatio="none" x="215" y="649" width="99" height="99" xlink:href="img/10.jpg"/>
<path d="M204.5,748.3H325V649H204.5v99.3Z" class="g7_275"/>
<path d="M368.1,748.3H488.6V649H368.1v99.3Z" class="g2_275"/>
<image preserveAspectRatio="none" x="379" y="649" width="99" height="99" xlink:href="img/11.jpg"/>
<path d="M368.1,748.3H488.6V649H368.1v99.3Z" class="g7_275"/>
<path d="M531.7,748.3H652.2V649H531.7v99.3Z" class="g2_275"/>
<image preserveAspectRatio="none" x="542" y="649" width="100" height="99" xlink:href="img/12.jpg"/>
<path d="M531.7,748.3H652.2V649H531.7v99.3Z" class="g7_275"/>
<path d="M695.3,748.3H815.8V649H695.3v99.3Z" class="g2_275"/>
<image clip-path="url(#c4_275)" preserveAspectRatio="none" x="706" y="649" width="99" height="99" xlink:href="img/13.jpg"/>
<path d="M695.3,748.3H815.8V649H695.3v99.3Z" class="g7_275"/>
<image clip-path="url(#c5_275)" preserveAspectRatio="none" x="205" y="1143" width="73" height="73" xlink:href="img/14.jpg"/>
<path d="M197.6,1220.5H331.4v-96.1H197.6v96.1Z" class="g8_275"/>
<path d="M325,1158.1c0,-13.6,-14.1,-24.6,-31.4,-24.6c-17.4,0,-31.4,11,-31.4,24.6c0,7.1,3.8,13.5,10,18c-2.4,3.7,-5.8,7.4,-9.3,7.4c0,0,9.5,.6,16,-3.6c4.4,1.9,9.4,2.9,14.7,2.9c17.3,0,31.4,-11,31.4,-24.7Z" class="g2_275"/>
<path d="M325,1158.1c0,-13.6,-14.1,-24.6,-31.4,-24.6c-17.4,0,-31.4,11,-31.4,24.6c0,7.1,3.8,13.5,10,18c-2.4,3.7,-5.8,7.4,-9.3,7.4c0,0,9.5,.6,16,-3.6c4.4,1.9,9.4,2.9,14.7,2.9c17.3,0,31.4,-11,31.4,-24.7Z" class="g9_275"/>
<image clip-path="url(#c6_275)" preserveAspectRatio="none" x="374" y="1143" width="73" height="73" xlink:href="img/15.jpg"/>
<path d="M366.6,1220.5H500.4v-96.1H366.6v96.1Z" class="g8_275"/>
<path d="M494.4,1158.1c0,-13.6,-14.1,-24.6,-31.4,-24.6c-17.4,0,-31.4,11,-31.4,24.6c0,7.1,3.8,13.5,10,18c-2.4,3.7,-5.8,7.4,-9.3,7.4c0,0,9.5,.6,16,-3.6c4.4,1.9,9.4,2.9,14.7,2.9c17.3,0,31.4,-11,31.4,-24.7Z" class="g2_275"/>
<path d="M494.4,1158.1c0,-13.6,-14.1,-24.6,-31.4,-24.6c-17.4,0,-31.4,11,-31.4,24.6c0,7.1,3.8,13.5,10,18c-2.4,3.7,-5.8,7.4,-9.3,7.4c0,0,9.5,.6,16,-3.6c4.4,1.9,9.4,2.9,14.7,2.9c17.3,0,31.4,-11,31.4,-24.7Z" class="g9_275"/>
<image clip-path="url(#c7_275)" preserveAspectRatio="none" x="541" y="1142" width="73" height="73" xlink:href="img/16.jpg"/>
<path d="M533.1,1219.4H666.9v-96H533.1v96Z" class="g8_275"/>
<path d="M660.5,1157.1c0,-13.6,-14.1,-24.6,-31.4,-24.6c-17.4,0,-31.4,11,-31.4,24.6c0,7.1,3.8,13.5,10,18c-2.5,3.7,-5.8,7.4,-9.3,7.4c0,0,9.5,.6,16,-3.6c4.4,1.8,9.4,2.9,14.7,2.9c17.3,0,31.4,-11.1,31.4,-24.7Z" class="g2_275"/>
<path d="M660.5,1157.1c0,-13.6,-14.1,-24.6,-31.4,-24.6c-17.4,0,-31.4,11,-31.4,24.6c0,7.1,3.8,13.5,10,18c-2.5,3.7,-5.8,7.4,-9.3,7.4c0,0,9.5,.6,16,-3.6c4.4,1.8,9.4,2.9,14.7,2.9c17.3,0,31.4,-11.1,31.4,-24.7Z" class="g9_275"/>
<image clip-path="url(#c8_275)" preserveAspectRatio="none" x="708" y="1142" width="73" height="73" xlink:href="img/17.jpg"/>
<path d="M700.4,1219.4H834.2v-96H700.4v96Z" class="g8_275"/>
<path d="M828.1,1157.1c0,-13.6,-14,-24.6,-31.4,-24.6c-17.3,0,-31.4,11,-31.4,24.6c0,7.1,3.9,13.5,10,18c-2.4,3.7,-5.7,7.4,-9.2,7.4c0,0,9.5,.6,16,-3.6c4.4,1.8,9.3,2.9,14.6,2.9c17.4,0,31.4,-11.1,31.4,-24.7Z" class="g2_275"/>
<path d="M828.1,1157.1c0,-13.6,-14,-24.6,-31.4,-24.6c-17.3,0,-31.4,11,-31.4,24.6c0,7.1,3.9,13.5,10,18c-2.4,3.7,-5.7,7.4,-9.2,7.4c0,0,9.5,.6,16,-3.6c4.4,1.8,9.3,2.9,14.6,2.9c17.4,0,31.4,-11.1,31.4,-24.7Z" class="g9_275"/>
<path d="M201.7,972.3h552V955h-552v17.3Z" class="g2_275"/>
<path d="M271.4,1178H316v-35.2H271.4V1178Z" class="g2_275"/>
<path d="M440.5,1175.8h47.6v-35.2H440.5v35.2Z" class="g2_275"/>
<path d="M607.6,1169.2h44.6v-24.3H607.6v24.3Z" class="g2_275"/>
<path d="M770,1180h56.3v-39H770v39Z" class="g2_275"/>
<path d="M285.2,1069h50" class="ga_275"/>
<path clip-path="url(#c9_275)" d="M314.6,987c0,0,-5.2,0,-5.2,5.2v108.1c0,0,0,5.2,5.2,5.2H818.7c0,0,5.2,0,5.2,-5.2V992.2c0,0,0,-5.2,-5.2,-5.2H314.6Z" class="gb_275"/>
<path d="M645.6,1090.9H780.1v-90.1H645.6v90.1Z" class="g2_275"/>
<image clip-path="url(#ca_275)" preserveAspectRatio="none" x="668" y="1001" width="90" height="90" xlink:href="img/18.jpg"/>
<path d="M645.6,1090.9H780.1v-90.1H645.6v90.1Z" class="gc_275"/>
<path d="M233.5,280.7c0,0,-13,0,-13,13v21.6c0,0,0,13,13,13H835.4c0,0,13,0,13,-13V293.7c0,0,0,-13,-13,-13Z" class="g1_275"/>
<image clip-path="url(#cb_275)" preserveAspectRatio="none" x="176" y="251" width="75" height="76" xlink:href="img/19.png"/>
<path d="M228.3,321c0,0,-26.9,11.3,-51.1,-12.8c0,0,15.1,25.3,49.2,24c0,0,24.8,.3,20.3,-10.2c0,0,1.2,-4.4,-18.4,-1Z" class="g1_275"/>
<path d="M32.1,179.3H967.5V32.1H32.1V179.3Z" class="gd_275"/>
<g clip-path="url(#c0_275)">
<path d="M967.5,177.2H-877.3v-5.4h736.6c43.1,0,53.1,-37.9,115.3,-37.9H967.5Z" class="ge_275"/>
<path d="M967.5,183.7H-877.3v-9.8h736.6c43.1,0,53.1,-33.6,115.3,-33.6H967.5Z" class="gf_275"/>
</g>
<image clip-path="url(#cc_275)" preserveAspectRatio="none" x="659" y="59" width="200" height="118" xlink:href="img/20.png"/>
<path d="M153.3,217.5v22.2L165,250V227.8Z" class="gg_275"/>
<path d="M153.3,200.7v39H851.1c0,0,16.8,0,16.8,-16.8v-5.4c0,0,0,-16.8,-16.8,-16.8Z" class="gh_275"/>
<path d="M211.3,212.1l-6.5,-6.4l-21.2,21.2l6.5,6.4Z" class="gi_275"/>
<path d="M190.1,233.9c.1,0,.3,-.1,.4,-.2l21.2,-21.2c.1,-.1,.1,-.2,.1,-.4c0,-.1,0,-.2,-.1,-.3l-6.5,-6.5c-.2,-.2,-.6,-.2,-.8,0l-21.2,21.2c-.1,.1,-.1,.2,-.1,.4c0,.1,0,.2,.1,.3l6.5,6.5c.1,.1,.3,.2,.4,.2m20.5,-21.8l-20.5,20.5l-5.8,-5.7l20.5,-20.5Z" class="gj_275"/>
<path d="M211.3,212.1l-6.5,-6.4l2.1,-2.2l6.5,6.5Z" class="gk_275"/>
<path d="M211.3,212.7c.1,0,.3,-.1,.4,-.2l2.1,-2.1c.1,-.1,.2,-.2,.2,-.4c0,-.1,-.1,-.3,-.2,-.4l-6.5,-6.4c-.2,-.3,-.5,-.3,-.7,0l-2.2,2.1c-.1,.1,-.1,.2,-.1,.4c0,.1,0,.2,.1,.3l6.5,6.5c.1,.1,.3,.2,.4,.2m1.4,-2.7l-1.4,1.4l-5.7,-5.7l1.3,-1.4Z" class="gj_275"/>
<path d="M217,206.4l-6.4,-6.5l-3.7,3.6l6.5,6.5Z" class="gl_275"/>
<path d="M213.4,210.5c.2,0,.3,0,.4,-.1l3.6,-3.6c.2,-.2,.2,-.6,0,-.8l-6.5,-6.5c-.2,-.2,-.5,-.2,-.7,0l-3.6,3.7c-.2,.2,-.2,.5,0,.7l6.5,6.5c.1,.1,.2,.1,.3,.1m2.9,-4.1l-2.9,2.9l-5.7,-5.8l2.9,-2.8Z" class="gj_275"/>
<path d="M179,238l4.6,-11.1l6.5,6.4Z" class="g2_275"/>
<path d="M179,238.5c0,0,.1,0,.2,0l11.1,-4.7c.2,0,.3,-.2,.3,-.4c0,-.1,0,-.3,-.1,-.4L184,226.5c-.1,-.1,-.3,-.2,-.5,-.1c-.2,0,-.3,.1,-.4,.3l-4.6,11.1c-.1,.2,0,.4,.1,.6c.1,.1,.2,.1,.4,.1m10.2,-5.3l-9.3,3.8l3.9,-9.2Z" class="gj_275"/>
<path d="M179,238l2.2,-5.4l3.1,3.1Z" class="gj_275"/>
<path d="M179,238.5c0,0,.1,0,.2,0l5.3,-2.3c.2,0,.3,-.2,.4,-.4c0,-.1,-.1,-.3,-.2,-.4l-3.1,-3.2c-.1,-.1,-.3,-.1,-.5,-.1c-.2,0,-.3,.2,-.4,.3l-2.2,5.4c-.1,.2,0,.4,.1,.6c.1,.1,.2,.1,.4,.1m4.4,-2.9l-3.5,1.4l1.5,-3.5Z" class="gj_275"/>
<path d="M209.5,210.4l-2.9,-3l-21.2,21.2l2.9,3Z" class="gm_275"/>
<path d="M188.3,232.1c.2,0,.3,0,.4,-.1l21.2,-21.2c.1,-.1,.2,-.3,.2,-.4c0,-.2,-.1,-.3,-.2,-.4l-3,-3c-.2,-.2,-.5,-.2,-.7,0L185,228.3c-.1,.1,-.2,.2,-.2,.3c0,.2,.1,.3,.2,.4l3,3c.1,.1,.2,.1,.3,.1m20.5,-21.7l-20.5,20.4l-2.2,-2.2l20.5,-20.4Z" class="gj_275"/>
<path d="M32.1,45.1H9.2m958.3,0h22.9M32.1,1331.3H9.2m958.3,0h22.9M45.1,32.1V9.2m0,1335.1v22.9M954.5,32.1V9.2m0,1335.1v22.9" class="gn_275"/>
<path d="M32.1,45.1H9.2m958.3,0h22.9M32.1,1331.3H9.2m958.3,0h22.9M45.1,32.1V9.2m0,1335.1v22.9M954.5,32.1V9.2m0,1335.1v22.9" class="go_275"/>
<path d="M27.5,32.1H0m972.1,0h27.5M27.5,1344.3H0m972.1,0h27.5M32.1,27.5V0m0,1348.9v27.5M967.5,27.5V0m0,1348.9v27.5" class="gn_275"/>
<path d="M27.5,32.1H0m972.1,0h27.5M27.5,1344.3H0m972.1,0h27.5M32.1,27.5V0m0,1348.9v27.5M967.5,27.5V0m0,1348.9v27.5" class="go_275"/>
</svg>