<?xml version="1.0" encoding="UTF-8" standalone="no"?>
<!DOCTYPE svg PUBLIC "-//W3C//DTD SVG 1.1//EN"
"http://www.w3.org/Graphics/SVG/1.1/DTD/svg11.dtd">
<svg viewBox="0 0 999 1376" version="1.1" xmlns="http://www.w3.org/2000/svg" xmlns:xlink="http://www.w3.org/1999/xlink">
<defs>
<clipPath id="c0_371"><path d="M32.1,1344.3V32.1H967.5V1344.3Z"/></clipPath>
<clipPath id="c1_371"><path d="M230.9,1027.7V378h508v649.7Z"/></clipPath>
<style type="text/css"><![CDATA[
.g0_371{
fill: #FEFCF4;
}
.g1_371{
fill: #FFF;
}
.g2_371{
fill: none;
stroke: #D1B8D8;
stroke-width: 1.222;
}
.g3_371{
fill: #BC93AB;
}
.g4_371{
fill: #FFF;
stroke: #D1B8D8;
stroke-width: 1.222;
}
.g5_371{
fill: none;
stroke: #FFF;
stroke-width: 1.909;
stroke-miterlimit: 10;
}
.g6_371{
fill: none;
stroke: #000;
stroke-width: 0.381;
stroke-miterlimit: 10;
}
]]></style>
</defs>
<path clip-path="url(#c0_371)" d="M-877.3,1343.2H45.1V32.1H-877.3V1343.2Z" class="g0_371"/>
<path d="M45.1,1344.3H967.5V32.1H45.1V1344.3Z" class="g0_371"/>
<path d="M164.1,131.7c0,0,-10.4,0,-10.4,10.4V1230c0,0,0,10.4,10.4,10.4h693c0,0,10.4,0,10.4,-10.4V142.1c0,0,0,-10.4,-10.4,-10.4Z" class="g1_371"/>
<path d="M164.1,131.7c0,0,-10.4,0,-10.4,10.4V1230c0,0,0,10.4,10.4,10.4h693c0,0,10.4,0,10.4,-10.4V142.1c0,0,0,-10.4,-10.4,-10.4h-693Z" class="g2_371"/>
<path d="M190.2,162c0,0,-6.5,0,-6.5,6.5v17.3c0,0,0,6.5,6.5,6.5H610.3c0,0,6.4,0,6.4,-6.5V168.5c0,0,0,-6.5,-6.4,-6.5Z" class="g3_371"/>
<image clip-path="url(#c1_371)" preserveAspectRatio="none" x="231" y="378" width="508" height="650" xlink:href="img/1.jpg"/>
<path d="M173,474.5c0,0,-10.4,0,-10.4,10.4v64.6c0,0,0,10.4,10.4,10.4H318.5c0,0,10.4,0,10.4,-10.4V484.9c0,0,0,-10.4,-10.4,-10.4Z" class="g1_371"/>
<path d="M173,474.5c0,0,-10.4,0,-10.4,10.4v64.6c0,0,0,10.4,10.4,10.4H318.5c0,0,10.4,0,10.4,-10.4V484.9c0,0,0,-10.4,-10.4,-10.4H173Z" class="g2_371"/>
<path d="M286.6,557c0,0,4.5,17,22.9,17.7c0,0,-7.6,-8.6,-6.6,-17.7" class="g4_371"/>
<path d="M171.7,556.2H321V478.3H171.7v77.9Z" class="g1_371"/>
<path d="M400.6,281.7c0,0,-10.4,0,-10.4,10.4V404.6c0,0,0,10.4,10.4,10.4H569.2c0,0,10.3,0,10.3,-10.4V292.1c0,0,0,-10.4,-10.3,-10.4Z" class="g1_371"/>
<path d="M400.6,281.7c0,0,-10.4,0,-10.4,10.4V404.6c0,0,0,10.4,10.4,10.4H569.2c0,0,10.3,0,10.3,-10.4V292.1c0,0,0,-10.4,-10.3,-10.4H400.6Z" class="g2_371"/>
<path d="M431.8,412.2c0,0,-4.5,17,-22.8,17.7c0,0,7.6,-8.7,6.6,-17.7" class="g4_371"/>
<path d="M399.3,406.3H572.6V290.4H399.3V406.3Z" class="g1_371"/>
<path d="M659,447.4c0,0,-10.4,0,-10.4,10.4v64.6c0,0,0,10.4,10.4,10.4H804.5c0,0,10.4,0,10.4,-10.4V457.8c0,0,0,-10.4,-10.4,-10.4Z" class="g1_371"/>
<path d="M659,447.4c0,0,-10.4,0,-10.4,10.4v64.6c0,0,0,10.4,10.4,10.4H804.5c0,0,10.4,0,10.4,-10.4V457.8c0,0,0,-10.4,-10.4,-10.4H659Z" class="g2_371"/>
<path d="M690.3,530.1c0,0,-4.5,16.9,-22.9,17.6c0,0,7.6,-8.6,6.6,-17.6" class="g4_371"/>
<path d="M659.8,525.9H806.4V452.3H659.8v73.6Z" class="g1_371"/>
<path d="M659,708.7c0,0,-10.4,0,-10.4,10.4v88.4c0,0,0,10.4,10.4,10.4H801.6c0,0,10.4,0,10.4,-10.4V719.1c0,0,0,-10.4,-10.4,-10.4Z" class="g1_371"/>
<path d="M659,708.7c0,0,-10.4,0,-10.4,10.4v88.4c0,0,0,10.4,10.4,10.4H801.6c0,0,10.4,0,10.4,-10.4V719.1c0,0,0,-10.4,-10.4,-10.4H659Z" class="g2_371"/>
<path d="M690.3,815.1c0,0,-4.5,17,-22.9,17.7c0,0,7.6,-8.7,6.6,-17.7" class="g4_371"/>
<path d="M658.3,811.4H805.5V715H658.3v96.4Z" class="g1_371"/>
<path d="M521.6,1002.8c0,0,-10.4,0,-10.4,10.4v133.9c0,0,0,10.4,10.4,10.4H731.3c0,0,10.4,0,10.4,-10.4V1013.2c0,0,0,-10.4,-10.4,-10.4Z" class="g1_371"/>
<path d="M521.6,1002.8c0,0,-10.4,0,-10.4,10.4v133.9c0,0,0,10.4,10.4,10.4H731.3c0,0,10.4,0,10.4,-10.4V1013.2c0,0,0,-10.4,-10.4,-10.4H521.6Z" class="g2_371"/>
<path d="M568,1007.7c0,0,-4.5,-16.9,-22.8,-17.6c0,0,7.6,8.6,6.5,17.6" class="g4_371"/>
<path d="M525.6,1146.7H731.7v-131H525.6v131Z" class="g1_371"/>
<path d="M225,1002.8c0,0,-10.4,0,-10.4,10.4v99.7c0,0,0,10.3,10.4,10.3H432.5c0,0,10.4,0,10.4,-10.3v-99.7c0,0,0,-10.4,-10.4,-10.4Z" class="g1_371"/>
<path d="M225,1002.8c0,0,-10.4,0,-10.4,10.4v99.7c0,0,0,10.3,10.4,10.3H432.5c0,0,10.4,0,10.4,-10.3v-99.7c0,0,0,-10.4,-10.4,-10.4H225Z" class="g2_371"/>
<path d="M327.2,1007.7c0,0,4.5,-16.9,22.9,-17.6c0,0,-7.6,8.6,-6.6,17.6" class="g4_371"/>
<path d="M224.4,1111.8H434v-96.6H224.4v96.6Z" class="g1_371"/>
<path d="M173,700.1c0,0,-10.4,0,-10.4,10.4v68c0,0,0,10.4,10.4,10.4H328.5c0,0,10.4,0,10.4,-10.4v-68c0,0,0,-10.4,-10.4,-10.4Z" class="g1_371"/>
<path d="M173,700.1c0,0,-10.4,0,-10.4,10.4v68c0,0,0,10.4,10.4,10.4H328.5c0,0,10.4,0,10.4,-10.4v-68c0,0,0,-10.4,-10.4,-10.4H173Z" class="g2_371"/>
<path d="M296.6,786.1c0,0,4.5,17,22.9,17.7c0,0,-7.6,-8.7,-6.6,-17.7" class="g4_371"/>
<path d="M173.2,781.7H328.3V708.1H173.2v73.6Z" class="g1_371"/>
<path d="M32.1,45.1H9.2m958.3,0h22.9M32.1,1331.3H9.2m958.3,0h22.9M45.1,32.1V9.2m0,1335.1v22.9M954.5,32.1V9.2m0,1335.1v22.9" class="g5_371"/>
<path d="M32.1,45.1H9.2m958.3,0h22.9M32.1,1331.3H9.2m958.3,0h22.9M45.1,32.1V9.2m0,1335.1v22.9M954.5,32.1V9.2m0,1335.1v22.9" class="g6_371"/>
<path d="M27.5,32.1H0m972.1,0h27.5M27.5,1344.3H0m972.1,0h27.5M32.1,27.5V0m0,1348.9v27.5M967.5,27.5V0m0,1348.9v27.5" class="g5_371"/>
<path d="M27.5,32.1H0m972.1,0h27.5M27.5,1344.3H0m972.1,0h27.5M32.1,27.5V0m0,1348.9v27.5M967.5,27.5V0m0,1348.9v27.5" class="g6_371"/>
</svg>