<?xml version="1.0" encoding="UTF-8" standalone="no"?>
<!DOCTYPE svg PUBLIC "-//W3C//DTD SVG 1.1//EN"
"http://www.w3.org/Graphics/SVG/1.1/DTD/svg11.dtd">
<svg viewBox="0 0 999 1376" version="1.1" xmlns="http://www.w3.org/2000/svg" xmlns:xlink="http://www.w3.org/1999/xlink">
<defs>
<clipPath id="c0_289"><path d="M139.4,396.6V315.8H285.7v80.8Z"/></clipPath>
<clipPath id="c1_289"><path d="M139.4,398.7V311.8H284.1v86.9Z"/></clipPath>
<clipPath id="c2_289"><path d="M139.1,398.4V311.5H283.8v86.9Z"/></clipPath>
<clipPath id="c3_289"><path d="M162,618.1V546H284.6v72.1Z"/></clipPath>
<clipPath id="c4_289"><path d="M162.5,619.4V543.5H284.6v75.9Z"/></clipPath>
<clipPath id="c5_289"><path d="M162.2,619.1V543.2H283.7v75.9Z"/></clipPath>
<clipPath id="c6_289"><path d="M198.7,249.3l-6.5,-2.1L175.8,233.3V176.2h72v73.1Z"/></clipPath>
<clipPath id="c7_289"><path d="M198.7,980.2l-6.5,-2.1L175.8,964.2V907.1h72v73.1Z"/></clipPath>
<clipPath id="c8_289"><path d="M757.5,502.5V430.4H880.1v72.1Z"/></clipPath>
<clipPath id="c9_289"><path d="M758,503.7V427.8H880.1v75.9Z"/></clipPath>
<clipPath id="ca_289"><path d="M757.7,503.4V427.5H879.2v75.9Z"/></clipPath>
<clipPath id="cb_289"><path d="M200.3,326.7c-.2,-.1,3.6,-8.2,3.6,-8.2l.8,.5c0,0,-4.1,7.7,-4.4,7.7Z"/></clipPath>
<clipPath id="cc_289"><path d="M207.8,319c0,0,-6.8,-1.1,-7.6,-5.3c-.6,-3.6,1.6,-3.8,2.1,-3.8q.1,0,.1,0l8.4,-12.7l-1.5,-3.1c0,0,-.6,-1.1,.1,-2.1c.1,-.1,.2,-.1,.4,-.1c2.1,0,12.9,5.6,12.9,5.6l.1,.1c-.4,.5,-.8,1.1,-1.4,1.6c-.7,.5,-5.1,1.2,-5.1,1.2L207.8,319Z"/></clipPath>
<clipPath id="cd_289"><path d="M207.4,318.6c.2,-.5,.2,-1.8,0,-2.3v-1.4c-1.5,-.5,-2.9,-1.2,-3.6,-2.5c-1.1,.6,-2.2,1.3,-3.2,1.9c1.6,2.2,3.9,3.6,6.8,4.3Zm0,-3.9c2.2,-4.5,4,-9.5,6.2,-14.1c-.9,-.4,-1.9,-1.3,-2.7,-1.4c-2.3,4.4,-4.6,8.7,-7,12.9c.7,1.3,2.1,2,3.5,2.6Zm-7.3,12.1c1.1,-2.9,2.4,-5.5,3.5,-8.3c-1.9,-1.6,-3.9,-3.1,-4.4,-6.2v-1.5c0,-2.7,2,-3.4,4.6,-3.4c.1,0,.2,0,.2,0c2,-3.3,4.2,-6.3,6.2,-9.7c-.6,-.8,-1.2,-2.3,-.9,-3.6c.5,1.2,1.6,1.9,2.4,2.9c-.1,.6,-.3,1.1,-.4,1.7c.6,.7,1.3,1.2,2.4,1.4c.5,-.4,.5,-1.2,1.1,-1.5c1,.4,1.9,.8,3.2,.8c.1,.1,.4,.1,.8,.1c.3,0,.7,0,.8,-.1c.1,0,.2,0,.3,0c.2,0,.4,-.1,.6,-.1c.2,-.1,.4,-.2,.6,-.2c.1,0,.2,.1,.3,.1c-1.4,.7,-2.2,1.8,-4.2,1.8c-.1,0,-.2,0,-.4,0c-.8,3.7,-1.8,7.4,-2.6,11.2c.5,1,1.5,1.7,1.3,3.1c-.5,2.8,-3.9,4.4,-7.2,4.4c-1.3,0,-2.6,-.2,-3.6,-.7c-1,2.1,-2.1,4.1,-3.3,6c0,-.4,.3,-.4,.2,-.7c1,-1.9,2,-3.6,2.7,-5.7c-1.1,1.7,-1.9,3.7,-2.8,5.5c-.2,.4,-.4,.9,-.6,1.3c-.3,.4,-.3,1.1,-.8,1.4Z"/></clipPath>
<clipPath id="ce_289"><path d="M217.9,299c-4.8,0,-13.1,-7.3,-5.6,-8.8h1.3c.2,0,.4,0,.7,0c0,0,.1,0,.2,0c.2,0,.5,.1,.8,.1c3.1,.7,8.3,3.8,7.6,7.1c-.3,1.1,-1.6,1.6,-3.2,1.6H218q-.1,0,-.1,0Z"/></clipPath>
<clipPath id="cf_289"><path d="M215,561c-.2,-.1,3.6,-8.3,3.6,-8.3l.8,.6c0,0,-4.1,7.7,-4.4,7.7Z"/></clipPath>
<clipPath id="cg_289"><path d="M222.5,553.2c0,0,-6.8,-1.1,-7.5,-5.2c-.7,-3.6,1.5,-3.8,2,-3.8c.1,0,.2,0,.2,0l8.3,-12.8l-1.5,-3c0,0,-.6,-1.1,.2,-2.1c0,-.1,.1,-.1,.3,-.1c2.1,0,12.9,5.5,12.9,5.5l.1,.2c-.4,.5,-.7,1.1,-1.4,1.6c-.7,.5,-5.1,1.2,-5.1,1.2l-8.5,18.5Z"/></clipPath>
<clipPath id="ch_289"><path d="M222.1,552.9c.3,-.5,.3,-1.8,0,-2.3v-1.4c-1.5,-.5,-2.8,-1.2,-3.6,-2.5c-1.1,.6,-2.1,1.2,-3.1,1.9c1.5,2.1,3.8,3.6,6.7,4.3Zm0,-3.9c2.2,-4.6,4,-9.5,6.2,-14.1c-.9,-.4,-1.8,-1.3,-2.6,-1.4c-2.3,4.4,-4.6,8.7,-7.1,12.9c.7,1.3,2.1,2,3.5,2.6Zm-7.2,12.1c1,-2.9,2.4,-5.5,3.5,-8.3c-2,-1.6,-4,-3.2,-4.4,-6.2v-1.5c-.1,-2.7,1.9,-3.4,4.6,-3.4c0,0,.1,0,.1,0c2,-3.3,4.3,-6.3,6.2,-9.7c-.6,-.8,-1.2,-2.3,-.9,-3.6c.5,1.2,1.7,1.9,2.4,2.9c-.1,.6,-.3,1.1,-.4,1.7c.6,.7,1.4,1.2,2.4,1.4c.5,-.4,.5,-1.2,1.2,-1.5c.9,.4,1.8,.8,3.1,.8c.1,.1,.5,.1,.8,.1c.4,0,.7,0,.8,-.1c.1,0,.2,0,.3,0c.3,0,.5,-.1,.7,-.1c.1,-.1,.3,-.2,.5,-.2c.1,0,.2,.1,.3,.1c-1.3,.7,-2.2,1.8,-4.2,1.8c-.1,0,-.2,0,-.3,0c-.9,3.7,-1.9,7.4,-2.7,11.2c.6,1,1.5,1.7,1.3,3.1c-.5,2.7,-3.9,4.4,-7.2,4.4c-1.3,0,-2.5,-.2,-3.6,-.7c-1,2.1,-2.1,4.1,-3.3,6c0,-.4,.3,-.4,.3,-.8c.9,-1.8,1.9,-3.5,2.6,-5.6c-1.1,1.7,-1.8,3.7,-2.8,5.5c-.2,.4,-.4,.9,-.6,1.3c-.3,.4,-.3,1.1,-.7,1.4Z"/></clipPath>
<clipPath id="ci_289"><path d="M232.6,533.3c-4.8,0,-13.1,-7.3,-5.6,-8.8h1.3c.2,0,.4,0,.7,0q.1,0,.2,0c.3,0,.6,0,.9,.1c3,.7,8.2,3.8,7.5,7c-.2,1.2,-1.6,1.6,-3.1,1.7h-1.8c0,0,-.1,0,-.1,0Z"/></clipPath>
<clipPath id="cj_289"><path d="M810.5,442.7c-.2,0,3.6,-8.2,3.6,-8.2l.7,.5c0,0,-4,7.7,-4.3,7.7Z"/></clipPath>
<clipPath id="ck_289"><path d="M818,435c0,0,-6.8,-1.1,-7.6,-5.2c-.6,-3.6,1.6,-3.8,2.1,-3.8q.1,0,.1,0L821,413.2l-1.5,-3c0,0,-.6,-1.2,.1,-2.1c.1,-.1,.2,-.1,.4,-.1c2.1,0,12.9,5.5,12.9,5.5l.1,.2c-.4,.5,-.8,1.1,-1.4,1.6c-.7,.5,-5.1,1.2,-5.1,1.2L818,435Z"/></clipPath>
<clipPath id="cl_289"><path d="M817.6,434.7c.2,-.5,.2,-1.8,0,-2.3V431c-1.5,-.5,-2.9,-1.2,-3.6,-2.5c-1.1,.6,-2.2,1.2,-3.2,1.9c1.6,2.1,3.8,3.5,6.8,4.3Zm0,-3.9c2.2,-4.6,4,-9.5,6.2,-14.1c-.9,-.4,-1.9,-1.3,-2.7,-1.4c-2.3,4.3,-4.6,8.6,-7,12.8c.7,1.3,2.1,2,3.5,2.7Zm-7.3,12c1.1,-2.9,2.4,-5.5,3.5,-8.3c-1.9,-1.5,-3.9,-3.1,-4.4,-6.1v-1.5c0,-2.7,2,-3.4,4.6,-3.4q.1,0,.2,0c2,-3.4,4.2,-6.4,6.2,-9.7c-.6,-.9,-1.2,-2.4,-.9,-3.6c.5,1.2,1.6,1.8,2.4,2.8c-.1,.6,-.3,1.2,-.4,1.8c.6,.7,1.3,1.2,2.4,1.4c.5,-.4,.5,-1.3,1.1,-1.5c1,.3,1.9,.7,3.2,.7c.1,.1,.4,.2,.8,.2c.3,0,.7,-.1,.8,-.2c.1,.1,.2,.1,.3,.1c.2,0,.4,-.1,.6,-.2c.2,0,.4,-.1,.6,-.1c.1,0,.2,0,.3,.1c-1.4,.7,-2.2,1.8,-4.2,1.8c-.1,0,-.2,0,-.4,0c-.8,3.7,-1.8,7.3,-2.6,11.1c.5,1.1,1.5,1.7,1.3,3.2c-.5,2.7,-3.9,4.4,-7.2,4.4c-1.3,0,-2.6,-.3,-3.7,-.8c-1,2.1,-2,4.2,-3.2,6.1c-.1,-.4,.3,-.4,.2,-.8c1,-1.8,2,-3.6,2.7,-5.6c-1.1,1.7,-1.9,3.7,-2.8,5.5c-.2,.4,-.4,.8,-.6,1.2c-.3,.5,-.3,1.2,-.8,1.4Z"/></clipPath>
<clipPath id="cm_289"><path d="M828.1,415.1c-4.8,0,-13.1,-7.4,-5.6,-8.8h1.3c.1,0,.3,0,.5,0c0,0,.1,0,.2,0c.3,0,.6,0,1,.1c3.1,.6,8.3,3.8,7.6,7c-.3,1.2,-1.6,1.6,-3.2,1.7h-1.7q-.1,0,-.1,0Z"/></clipPath>
<clipPath id="cn_289"><path d="M786.5,132.5V120.1H801v12.4Z"/></clipPath>
<style type="text/css"><![CDATA[
.g0_289{
fill: #FEFCF4;
}
.g1_289{
fill: #FFF;
}
.g2_289{
fill: none;
stroke: #6381B7;
stroke-width: 0.763;
}
.g3_289{
fill: #F7C2D9;
}
.g4_289{
fill: none;
stroke: #949698;
stroke-width: 0.305;
stroke-dasharray: 4,4;
}
.g5_289{
fill: none;
stroke: #949698;
stroke-width: 0.305;
}
.g6_289{
fill: #FDF4F3;
}
.g7_289{
fill: #EC008C;
}
.g8_289{
fill: none;
stroke: #949698;
stroke-width: 0.305;
stroke-dasharray: 3,3;
}
.g9_289{
fill: #6D6F71;
}
.ga_289{
fill: #6381B7;
}
.gb_289{
fill: none;
stroke: #6381B7;
stroke-width: 0.381;
stroke-dasharray: 2,1;
}
.gc_289{
fill: none;
stroke: #6381B7;
stroke-width: 0.381;
}
.gd_289{
fill: #FCE8B0;
}
.ge_289{
fill: #25408F;
}
.gf_289{
fill: #A8AAAD;
}
.gg_289{
fill: none;
stroke: #949698;
stroke-width: 0.549;
}
.gh_289{
fill: none;
stroke: #BCBEC0;
stroke-width: 2.566;
}
.gi_289{
fill: #231F20;
}
.gj_289{
fill: #363637;
}
.gk_289{
fill: #5CC4BE;
}
.gl_289{
fill: #F0D73F;
}
.gm_289{
fill: none;
stroke: #FFF;
stroke-width: 1.909;
stroke-miterlimit: 10;
}
.gn_289{
fill: none;
stroke: #000;
stroke-width: 0.381;
stroke-miterlimit: 10;
}
]]></style>
</defs>
<path d="M45.1,1344.3H967.5V32.1H45.1V1344.3Z" class="g0_289"/>
<path d="M172.1,132.1c0,0,-18.4,0,-18.4,18.3V846.3c0,0,0,18.3,18.4,18.3H849.2c0,0,18.3,0,18.3,-18.3V132.1Z" class="g1_289"/>
<path d="M172.1,132.1c0,0,-18.4,0,-18.4,18.3V846.3c0,0,0,18.3,18.4,18.3H849.2c0,0,18.3,0,18.3,-18.3V132.1H172.1Z" class="g2_289"/>
<image clip-path="url(#c0_289)" preserveAspectRatio="none" x="139" y="316" width="147" height="81" xlink:href="img/1.png"/>
<path d="M146,320.9l-1.8,67.2l132.1,2.3l3.3,-67.6Z" class="g3_289"/>
<path d="M553,311.2c36,-.5,65.3,-6.4,71.2,-14.2m-1.1,-6.9c-7.9,-7.4,-36.8,-12.9,-71.7,-13.2m-7.8,.1c-36,.4,-65.3,6.4,-71.1,14.2m1,6.9c7.9,7.3,36.8,12.8,71.7,13.2" class="g4_289"/>
<path d="M624.9,295.6c.2,-.5,.3,-1,.3,-1.5c0,-.5,-.1,-1,-.3,-1.5m-75,-15.7c-.5,0,-1.1,0,-1.6,0c-.5,0,-1,0,-1.6,0m-75,15.7c-.2,.5,-.3,1,-.3,1.5c0,.5,.1,1,.3,1.5m75,15.7c.6,0,1.1,0,1.6,0c.5,0,1.1,0,1.6,0" class="g5_289"/>
<image clip-path="url(#c1_289)" preserveAspectRatio="none" x="139" y="312" width="144" height="87" xlink:href="img/2.png"/>
<image clip-path="url(#c2_289)" preserveAspectRatio="none" x="139" y="312" width="144" height="87" xlink:href="img/3.png"/>
<path d="M144,325.4l4,67.1l108,-7.7l21.8,-20.4l-2.7,-48.2Z" class="g6_289"/>
<path d="M256,384.8l21.8,-20.4l-19.9,-.2Z" class="g7_289"/>
<path d="M522.4,275.1C493.8,269.6,334.6,241,254,268.1m-6.1,5.1c-2,3.3,-2.8,7.1,5.8,5.6" class="g4_289"/>
<path d="M255.9,269.6c-7.2,-2.6,-23.4,-6.3,-44.1,4" class="g8_289"/>
<path d="M205.5,277.7c-7.6,6,-24.4,21.1,-26.5,38.5" class="g4_289"/>
<path d="M526.9,276c0,0,-.6,-.1,-1.5,-.3M252.6,268.5c-.5,.2,-1,.4,-1.5,.5c0,0,-.5,.6,-1.1,1.4m5.5,8.1c.5,-.2,1.1,-.3,1.7,-.5c0,0,.9,-.4,1.8,-1.2m2,-3.6c-.1,-.6,-.4,-1.2,-1.1,-1.8c0,0,-.5,-.2,-1.3,-.7m-48.1,3.5c-.5,.3,-.9,.5,-1.3,.7c0,0,-.5,.3,-1.3,.9m-29,41.9c0,.5,-.1,1,-.1,1.5" class="g5_289"/>
<path d="M183.7,318.7l-8.8,-.6l3.7,11.6Z" class="g9_289"/>
<path d="M479.2,1091.3c0,0,-4.3,0,-4.3,4.3v10.9c0,0,0,4.3,4.3,4.3h30.3c0,0,4.3,0,4.3,-4.3v-10.9c0,0,0,-4.3,-4.3,-4.3Z" class="ga_289"/>
<path d="M466,1083.8v54.9m1.3,.9H866.8m.9,-1.3v-54.9m-1.3,-1H467" class="gb_289"/>
<path d="M466,1139.1v.5h.6m400.5,0h.6v-.5m0,-56.1v-.6h-.6m-400.5,0H466v.6" class="gc_289"/>
<path d="M166.7,885.6c0,0,-13,0,-13,13V1062c0,0,0,12.9,13,12.9H854.5c0,0,13,0,13,-12.9V898.6c0,0,0,-13,-13,-13Z" class="g1_289"/>
<path d="M166.7,885.6c0,0,-13,0,-13,13V1062c0,0,0,12.9,13,12.9H854.5c0,0,13,0,13,-12.9V898.6c0,0,0,-13,-13,-13H166.7Z" class="g2_289"/>
<image clip-path="url(#c3_289)" preserveAspectRatio="none" x="162" y="547" width="122" height="72" xlink:href="img/4.png"/>
<path d="M168.2,551.3l-.9,58.9l109.2,1.4l1.9,-59.3Z" class="g3_289"/>
<image clip-path="url(#c4_289)" preserveAspectRatio="none" x="162" y="544" width="122" height="76" xlink:href="img/5.png"/>
<image clip-path="url(#c5_289)" preserveAspectRatio="none" x="162" y="544" width="121" height="75" xlink:href="img/6.png"/>
<path d="M167.2,557l3.7,56.3l91.7,-7.9l15.2,-20.2l-2.5,-37.3Z" class="g6_289"/>
<path d="M262.7,604.3L279,587.5l-14.9,-.2Z" class="g7_289"/>
<path d="M358.7,549.4c25.8,-.6,46.2,-7.3,50.2,-15.8m-.8,-7.4c-5.5,-8,-26,-14.1,-50.9,-14.5m-7.8,0c-25.5,.7,-46.2,7.3,-50.1,15.9m.7,7.3c5.6,8,26.1,14.1,51,14.5" class="g4_289"/>
<path d="M409.4,532.1c.1,-.5,.2,-1,.2,-1.6c0,-.5,-.1,-1,-.2,-1.5M355.6,511.6c-.5,0,-1,0,-1.5,0c-.5,0,-1.1,0,-1.6,0M298.8,529c-.2,.5,-.2,1,-.2,1.5c0,.6,0,1.1,.2,1.6m53.7,17.3c.5,0,1.1,0,1.6,0c.5,0,1,.1,1.5,0" class="g5_289"/>
<path d="M352.6,547.9c0,0,2.3,53.8,-89.1,27.9" class="g4_289"/>
<path d="M268.9,573l-3.2,8.2L256.8,573Z" class="g9_289"/>
<path d="M231.3,204.3c0,0,-13,0,-13,13v21.6c0,0,0,13,13,13h602c0,0,13,0,13,-13V217.3c0,0,0,-13,-13,-13Z" class="gd_289"/>
<image clip-path="url(#c6_289)" preserveAspectRatio="none" x="174" y="175" width="75" height="76" xlink:href="img/7.png"/>
<path d="M226.1,244.6c0,0,-26.9,11.3,-51.1,-12.8c0,0,15.2,25.3,49.3,24c0,0,24.7,.3,20.2,-10.1c0,0,1.3,-4.5,-18.4,-1.1Z" class="gd_289"/>
<path d="M231.3,909.2c0,0,-13,0,-13,13v47.7c0,0,0,13,13,13h602c0,0,13,0,13,-13V922.2c0,0,0,-13,-13,-13Z" class="gd_289"/>
<image clip-path="url(#c7_289)" preserveAspectRatio="none" x="174" y="905" width="75" height="77" xlink:href="img/8.png"/>
<path d="M226.1,975.5c0,0,-26.9,11.3,-51.1,-12.8c0,0,15.2,25.4,49.3,24c0,0,24.7,.3,20.2,-10.1c0,0,1.3,-4.5,-18.4,-1.1Z" class="gd_289"/>
<image clip-path="url(#c8_289)" preserveAspectRatio="none" x="757" y="431" width="123" height="71" xlink:href="img/9.png"/>
<path d="M763.7,435.7l-1,58.9L872,496l1.9,-59.3Z" class="g3_289"/>
<image clip-path="url(#c9_289)" preserveAspectRatio="none" x="758" y="428" width="122" height="76" xlink:href="img/10.png"/>
<image clip-path="url(#ca_289)" preserveAspectRatio="none" x="757" y="428" width="121" height="76" xlink:href="img/11.png"/>
<path d="M762.7,441.4l3.7,56.2l91.7,-7.9l15.2,-20.1l-2.5,-37.4Z" class="g6_289"/>
<path d="M858.2,488.7l16.3,-16.8l-14.9,-.3Z" class="g7_289"/>
<path d="M707.5,521.2c18.5,-.8,33.1,-7.4,35.9,-15.8m-.6,-7.4C738.7,490.1,724,484.2,705.9,483.5m-7.6,.1c-18.3,.9,-33,7.5,-35.9,15.8m.6,7.4c4.1,7.9,18.9,13.8,36.9,14.5" class="g4_289"/>
<path d="M743.8,503.9c.1,-.5,.1,-1,.1,-1.5c0,-.5,0,-1,-.1,-1.5M704.4,483.5c-.5,0,-1,0,-1.5,0c-.5,0,-1,0,-1.5,0m-39.3,17.4c-.1,.5,-.2,1,-.2,1.5c0,.5,.1,1,.2,1.5m39.3,17.4c.5,0,1,0,1.5,0c.5,0,1,0,1.5,0" class="g5_289"/>
<path d="M698.3,483.9c0,0,-3.5,-23.7,63.5,-29.4" class="g8_289"/>
<path d="M755.9,450l1.3,8.7l10.5,-6Z" class="g9_289"/>
<image clip-path="url(#cb_289)" x="200" y="318" width="5" height="9" xlink:href="shade/1.png"/>
<image clip-path="url(#cc_289)" x="199" y="291" width="24" height="28" xlink:href="shade/2.png"/>
<image clip-path="url(#cd_289)" x="199" y="294" width="23" height="33" xlink:href="shade/3.png"/>
<image clip-path="url(#ce_289)" x="204" y="290" width="20" height="10" xlink:href="shade/4.png"/>
<image clip-path="url(#cf_289)" x="214" y="552" width="6" height="10" xlink:href="shade/5.png"/>
<image clip-path="url(#cg_289)" x="214" y="526" width="24" height="28" xlink:href="shade/6.png"/>
<image clip-path="url(#ch_289)" x="213" y="528" width="24" height="34" xlink:href="shade/7.png"/>
<image clip-path="url(#ci_289)" x="219" y="524" width="20" height="10" xlink:href="shade/8.png"/>
<image clip-path="url(#cj_289)" x="810" y="434" width="5" height="9" xlink:href="shade/9.png"/>
<image clip-path="url(#ck_289)" x="809" y="407" width="24" height="29" xlink:href="shade/10.png"/>
<image clip-path="url(#cl_289)" x="809" y="410" width="23" height="33" xlink:href="shade/11.png"/>
<image clip-path="url(#cm_289)" x="814" y="406" width="20" height="10" xlink:href="shade/12.png"/>
<path d="M153.3,111.9v39L165,161.2V117Z" class="ge_289"/>
<path d="M153.3,111.9v39H851.1c0,0,16.8,0,16.8,-16.8v-5.3c0,0,0,-16.9,-16.8,-16.9Z" class="ga_289"/>
<path d="M802.6,145.6c8.2,0,14.9,-6.5,14.9,-14.5c0,-8.1,-6.7,-14.5,-14.9,-14.5c-8.2,0,-14.9,6.4,-14.9,14.5c0,8,6.7,14.5,14.9,14.5Z" class="gf_289"/>
<path d="M802.6,145.6c8.2,0,14.9,-6.5,14.9,-14.5c0,-8.1,-6.7,-14.5,-14.9,-14.5c-8.2,0,-14.9,6.4,-14.9,14.5c0,8,6.7,14.5,14.9,14.5Z" class="gg_289"/>
<path d="M802.6,136.4c3,0,5.5,-2.4,5.5,-5.3c0,-3,-2.5,-5.4,-5.5,-5.4c-3,0,-5.5,2.4,-5.5,5.4c0,2.9,2.5,5.3,5.5,5.3Z" class="g1_289"/>
<path d="M802.6,136.4c3,0,5.5,-2.4,5.5,-5.3c0,-3,-2.5,-5.4,-5.5,-5.4c-3,0,-5.5,2.4,-5.5,5.4c0,2.9,2.5,5.3,5.5,5.3Z" class="gh_289"/>
<g clip-path="url(#cn_289)" opacity="0.3">
<path d="M788,130.3c0,0,0,-4.8,3.7,-8.7l7.7,6.8c0,0,-1,.9,-1,2.6Z" class="g1_289"/>
</g>
<path d="M807.2,131c0,0,-3.5,0,-3.5,3.4v8.7c0,0,0,3.5,3.5,3.5h43.5c0,0,3.5,0,3.5,-3.5v-8.7c0,0,0,-3.4,-3.5,-3.4Z" class="gi_289"/>
<path d="M191.2,122c0,-8.3,-6.8,-15,-15.1,-15c-8.3,0,-15,6.7,-15,15c0,8.3,6.7,15.1,15,15.1c.8,0,1.7,-.1,2.4,-.2l4.5,5.2v-6.7c4.9,-2.5,8.2,-7.6,8.2,-13.4Z" class="g1_289"/>
<path d="M183.5,143.3l-5.1,-5.9c-.8,.1,-1.5,.1,-2.3,.1c-8.5,0,-15.5,-6.9,-15.5,-15.5c0,-8.5,7,-15.5,15.5,-15.5c8.6,0,15.5,7,15.5,15.5c0,5.7,-3.1,11,-8.1,13.7Zm-4.8,-6.9l3.9,4.5v-5.8l.2,-.1c4.9,-2.5,7.9,-7.5,7.9,-13c0,-8,-6.5,-14.6,-14.6,-14.6c-8,0,-14.6,6.6,-14.6,14.6c0,8.1,6.6,14.6,14.6,14.6c.8,0,1.6,-.1,2.4,-.2Z" class="gj_289"/>
<path d="M169.1,121.6c.8,0,1.4,.6,1.4,1.4c0,.8,-.6,1.5,-1.4,1.5c-.8,0,-1.4,-.7,-1.4,-1.5c0,-.8,.6,-1.4,1.4,-1.4Z" class="gk_289"/>
<path d="M169.1,124.9c-1,0,-1.9,-.8,-1.9,-1.9c0,-1,.9,-1.9,1.9,-1.9c1,0,1.9,.9,1.9,1.9c0,1.1,-.9,1.9,-1.9,1.9m0,-2.9c-.5,0,-1,.5,-1,1c0,.6,.5,1,1,1c.5,0,1,-.4,1,-1c0,-.5,-.5,-1,-1,-1Z" class="gj_289"/>
<path d="M176.1,121.6c.8,0,1.5,.6,1.5,1.4c0,.8,-.7,1.5,-1.5,1.5c-.8,0,-1.4,-.7,-1.4,-1.5c0,-.8,.6,-1.4,1.4,-1.4Z" class="gk_289"/>
<path d="M176.1,124.9c-1,0,-1.9,-.8,-1.9,-1.9c0,-1,.9,-1.9,1.9,-1.9c1.1,0,1.9,.9,1.9,1.9c0,1.1,-.8,1.9,-1.9,1.9m0,-2.9c-.5,0,-1,.5,-1,1c0,.6,.5,1,1,1c.6,0,1,-.4,1,-1c0,-.5,-.4,-1,-1,-1Z" class="gj_289"/>
<path d="M183.1,121.6c.8,0,1.5,.6,1.5,1.4c0,.8,-.7,1.5,-1.5,1.5c-.8,0,-1.4,-.7,-1.4,-1.5c0,-.8,.6,-1.4,1.4,-1.4Z" class="gk_289"/>
<path d="M183.1,124.9c-1,0,-1.9,-.8,-1.9,-1.9c0,-1,.9,-1.9,1.9,-1.9c1.1,0,1.9,.9,1.9,1.9c0,1.1,-.8,1.9,-1.9,1.9m0,-2.9c-.5,0,-1,.5,-1,1c0,.6,.5,1,1,1c.6,0,1,-.4,1,-1c0,-.5,-.4,-1,-1,-1Z" class="gj_289"/>
<path d="M185.1,136.3c0,-9.8,7.8,-17.7,17.6,-17.7c9.7,0,17.6,7.9,17.6,17.7c0,9.7,-7.9,17.6,-17.6,17.6c-1,0,-1.9,-.1,-2.9,-.3l-5.2,6.1v-7.8c-5.7,-2.9,-9.5,-8.8,-9.5,-15.6Z" class="gl_289"/>
<path d="M194.6,160.2q-.1,0,-.2,0c-.2,-.1,-.3,-.3,-.3,-.5v-7.5c-5.9,-3.2,-9.5,-9.2,-9.5,-15.9c0,-10,8.1,-18.1,18.1,-18.1c9.9,0,18,8.1,18,18.1c0,9.9,-8.1,18,-18,18c-.9,0,-1.8,0,-2.7,-.2l-5.1,5.9c-.1,.1,-.2,.2,-.3,.2m8.1,-41.1c-9.5,0,-17.2,7.7,-17.2,17.2c0,6.4,3.6,12.2,9.3,15.2c.1,.1,.2,.2,.2,.4v6.6l4.5,-5.2c.1,-.1,.3,-.1,.4,-.1c1,.1,1.9,.2,2.8,.2c9.4,0,17.1,-7.7,17.1,-17.1c0,-9.5,-7.7,-17.2,-17.1,-17.2Z" class="gj_289"/>
<path d="M210.9,135.8c.9,0,1.6,.7,1.6,1.6c0,1,-.7,1.7,-1.6,1.7c-1,0,-1.7,-.7,-1.7,-1.7c0,-.9,.7,-1.6,1.7,-1.6Z" class="g1_289"/>
<path d="M210.9,139.6c-1.2,0,-2.2,-1,-2.2,-2.2c0,-1.1,1,-2.1,2.2,-2.1c1.1,0,2.1,1,2.1,2.1c0,1.2,-1,2.2,-2.1,2.2m0,-3.4c-.7,0,-1.3,.6,-1.3,1.2c0,.7,.6,1.3,1.3,1.3c.6,0,1.2,-.6,1.2,-1.3c0,-.6,-.6,-1.2,-1.2,-1.2Z" class="gj_289"/>
<path d="M202.7,135.8c.9,0,1.6,.7,1.6,1.6c0,1,-.7,1.7,-1.6,1.7c-1,0,-1.7,-.7,-1.7,-1.7c0,-.9,.7,-1.6,1.7,-1.6Z" class="g1_289"/>
<path d="M202.7,139.6c-1.2,0,-2.2,-1,-2.2,-2.2c0,-1.1,1,-2.1,2.2,-2.1c1.1,0,2.1,1,2.1,2.1c0,1.2,-1,2.2,-2.1,2.2m0,-3.4c-.7,0,-1.3,.6,-1.3,1.2c0,.7,.6,1.3,1.3,1.3c.6,0,1.2,-.6,1.2,-1.3c0,-.6,-.6,-1.2,-1.2,-1.2Z" class="gj_289"/>
<path d="M194.5,135.8c.9,0,1.6,.7,1.6,1.6c0,1,-.7,1.7,-1.6,1.7c-1,0,-1.7,-.7,-1.7,-1.7c0,-.9,.7,-1.6,1.7,-1.6Z" class="g1_289"/>
<path d="M194.5,139.6c-1.2,0,-2.2,-1,-2.2,-2.2c0,-1.1,1,-2.1,2.2,-2.1c1.1,0,2.1,1,2.1,2.1c0,1.2,-1,2.2,-2.1,2.2m0,-3.4c-.7,0,-1.2,.6,-1.2,1.2c0,.7,.5,1.3,1.2,1.3c.6,0,1.2,-.6,1.2,-1.3c0,-.6,-.6,-1.2,-1.2,-1.2Z" class="gj_289"/>
<path d="M32.1,45.1H9.2m958.3,0h22.9M32.1,1331.3H9.2m958.3,0h22.9M45.1,32.1V9.2m0,1335.1v22.9M954.5,32.1V9.2m0,1335.1v22.9" class="gm_289"/>
<path d="M32.1,45.1H9.2m958.3,0h22.9M32.1,1331.3H9.2m958.3,0h22.9M45.1,32.1V9.2m0,1335.1v22.9M954.5,32.1V9.2m0,1335.1v22.9" class="gn_289"/>
<path d="M27.5,32.1H0m972.1,0h27.5M27.5,1344.3H0m972.1,0h27.5M32.1,27.5V0m0,1348.9v27.5M967.5,27.5V0m0,1348.9v27.5" class="gm_289"/>
<path d="M27.5,32.1H0m972.1,0h27.5M27.5,1344.3H0m972.1,0h27.5M32.1,27.5V0m0,1348.9v27.5M967.5,27.5V0m0,1348.9v27.5" class="gn_289"/>
</svg>