<?xml version="1.0" encoding="UTF-8" standalone="no"?>
<!DOCTYPE svg PUBLIC "-//W3C//DTD SVG 1.1//EN"
"http://www.w3.org/Graphics/SVG/1.1/DTD/svg11.dtd">
<svg viewBox="0 0 999 1376" version="1.1" xmlns="http://www.w3.org/2000/svg" xmlns:xlink="http://www.w3.org/1999/xlink">
<defs>
<style type="text/css"><![CDATA[
.g0_1{
fill: #FFF;
}
.g1_1{
fill: #013863;
}
.g2_1{
fill: #ED1A3A;
}
.g3_1{
fill: #58595B;
}
.g4_1{
fill: #083E89;
}
.g5_1{
fill: #00AEEF;
}
.g6_1{
fill: #28684F;
}
.g7_1{
fill: #EA364D;
}
.g8_1{
fill: #2E6E51;
}
.g9_1{
fill: none;
stroke: #FFF;
stroke-width: 1.909;
stroke-miterlimit: 10;
}
.ga_1{
fill: none;
stroke: #000;
stroke-width: 0.381;
stroke-miterlimit: 10;
}
]]></style>
</defs>
<path d="M290.6,1251c17.1,0,31,-13.9,31,-31c0,-17.1,-13.9,-31,-31,-31c-17.1,0,-30.9,13.9,-30.9,31c0,17.1,13.8,31,30.9,31Z" class="g0_1"/>
<path d="M304.6,1218.2c-4.8,-3.2,-10.8,-1.9,-14,2.9c-2.7,4.1,-6.7,4.6,-8.2,4.6c-5.1,0,-8.5,-3.6,-9.6,-7.3v-.2c-.4,-1.5,-.5,-2.3,-.5,-3.9c0,-8.8,9,-18.6,22,-18.6c13.3,0,21,10.1,22.9,15.8c0,-.1,0,-.2,-.1,-.3c-3.7,-11.1,-14.2,-19,-26.5,-19c-15.5,0,-28.1,12.6,-28.1,28.1c0,13.8,10,25.7,23.9,25.7c11,0,18.5,-6.2,21.9,-14.7c1.8,-4.7,.5,-10.2,-3.7,-13.1Z" class="g1_1"/>
<path d="M317.4,1212c-1.6,-5.5,-9.3,-16.3,-23.1,-16.3c-13,0,-22,9.8,-22,18.6c0,1.6,.1,2.4,.5,3.9c-.2,-.7,-.3,-1.3,-.3,-2c0,-9.2,9.2,-15.5,18.6,-15.5c12.8,0,23.2,10.3,23.2,23.1c0,10,-5.8,18.7,-14.2,22.9c10.8,-3.9,18.5,-14.3,18.5,-26.4c0,-2.9,-.3,-5.4,-1.2,-8.3Z" class="g2_1"/>
<path d="M338.9,1219v-6.8h2.6v6.8h9.6v2.3h-20V1219Zm7.9,-3.9v-10.4H332.7v-2.4h16.8v12.8Z" class="g3_1"/>
<path d="M357.7,1211.3v-2h2.5v2h6v-2h2.4v2h4.6v2.3h-20v-2.3Zm10.6,7.9c0,.6,-.1,1.3,-.4,1.8c-.3,.6,-.6,1.1,-1.1,1.5c-.5,.5,-1,.8,-1.6,1.1c-.7,.2,-1.3,.4,-2,.4c-.7,0,-1.4,-.2,-2,-.4c-.7,-.3,-1.2,-.6,-1.7,-1.1c-.4,-.4,-.8,-.9,-1.1,-1.5c-.3,-.5,-.4,-1.2,-.4,-1.8c0,-.7,.1,-1.3,.4,-1.9c.3,-.5,.7,-1,1.1,-1.5c.5,-.4,1,-.8,1.7,-1c.6,-.3,1.3,-.4,2,-.4c.7,0,1.3,.1,2,.4c.6,.2,1.1,.6,1.6,1c.5,.5,.8,1,1.1,1.5c.3,.6,.4,1.2,.4,1.9m0,-14.4c0,.7,-.2,1.3,-.4,1.9c-.3,.5,-.7,1,-1.2,1.5c-.4,.4,-.9,.7,-1.5,1c-.7,.3,-1.3,.4,-2,.4c-.7,0,-1.4,-.1,-2,-.4c-.6,-.3,-1.2,-.6,-1.6,-1c-.5,-.5,-.9,-1,-1.1,-1.5c-.3,-.6,-.4,-1.2,-.4,-1.9c0,-.6,.1,-1.2,.4,-1.8c.2,-.6,.6,-1.1,1.1,-1.5c.4,-.4,1,-.8,1.6,-1c.6,-.3,1.3,-.4,2,-.4c.7,0,1.3,.1,2,.4c.6,.2,1.1,.6,1.5,1c.5,.4,.9,.9,1.2,1.5c.2,.6,.4,1.2,.4,1.8m-2.6,14.3c0,-.6,-.3,-1.2,-.8,-1.7c-.5,-.5,-1,-.7,-1.7,-.7c-.7,0,-1.3,.2,-1.8,.7c-.5,.5,-.8,1.1,-.8,1.7c0,.7,.3,1.3,.8,1.8c.5,.5,1.1,.7,1.8,.7c.7,0,1.2,-.2,1.7,-.7c.5,-.5,.8,-1.1,.8,-1.8m-.1,-14.3c0,-.6,-.2,-1.2,-.7,-1.7c-.5,-.5,-1.1,-.7,-1.7,-.7c-.7,0,-1.3,.2,-1.8,.7c-.5,.5,-.7,1.1,-.7,1.7c0,.7,.2,1.3,.7,1.8c.5,.4,1.1,.7,1.8,.7c.6,0,1.2,-.3,1.7,-.7c.5,-.5,.7,-1.1,.7,-1.8Z" class="g3_1"/>
<path d="M395.4,1218.9v2.4h-20v-2.4H384v-5.2h-7v-11.6h2.7v9.2h14.4v2.4h-7.4v5.2Z" class="g3_1"/>
<path d="M406.5,1210.9v-2h-7v-7.5h16.8v2.3H402.2v2.9h14.2v2.3h-7.1v2h8.6v2.3h-20v-2.3Zm6.8,7.9c0,.7,-.2,1.4,-.5,2c-.3,.6,-.6,1.1,-1.1,1.5c-.5,.5,-1.1,.9,-1.7,1.1c-.7,.3,-1.4,.4,-2.1,.4c-.7,0,-1.4,-.1,-2,-.4c-.7,-.2,-1.3,-.6,-1.8,-1.1c-.4,-.4,-.8,-.9,-1.1,-1.5c-.3,-.6,-.4,-1.3,-.4,-2c0,-.7,.1,-1.3,.4,-1.9c.3,-.6,.7,-1.1,1.1,-1.6c.5,-.4,1.1,-.8,1.8,-1.1c.6,-.2,1.3,-.4,2,-.4c.7,0,1.4,.2,2.1,.4c.6,.3,1.2,.7,1.7,1.1c.5,.5,.8,1,1.1,1.6c.3,.6,.5,1.2,.5,1.9m-2.7,0c0,-.8,-.2,-1.4,-.8,-1.9c-.5,-.6,-1.1,-.8,-1.9,-.8c-.7,0,-1.4,.2,-1.9,.8c-.6,.5,-.8,1.1,-.8,1.9c0,.7,.2,1.4,.8,1.9c.5,.5,1.2,.8,1.9,.8c.8,0,1.4,-.3,1.9,-.8c.6,-.5,.8,-1.2,.8,-1.9Z" class="g3_1"/>
<path d="M420.7,1214.9h20v2.4H432v5.6h-2.7v-5.6h-8.6Zm4.3,-10.6h11.4v-2.8h2.7V1212H422.3v-10.5H425Zm11.4,2.3H425v3h11.4v-3Z" class="g3_1"/>
<path d="M623.5,1197.5h-6.1c-1.3,0,-2.2,.6,-3,1.4l-10.2,9.9c-.7,.8,-.7,2,0,2.7l10.2,9.9c.8,.9,1.7,1.5,3,1.5h6.1l-13.1,-12.7Z" class="g4_1"/>
<path d="M601,1197.5h-3.7v25.4h5.6v-23.5c0,-1.1,-.9,-1.9,-1.9,-1.9Z" class="g4_1"/>
<path d="M537.4,1197.5c-1.9,0,-3.4,1.5,-3.4,3.4c0,1.8,1.5,3.3,3.4,3.3c1.8,0,3.4,-1.5,3.4,-3.3c0,-1.9,-1.6,-3.4,-3.4,-3.4Z" class="g5_1"/>
<path d="M522.2,1197.5h-3.6v25.4h5.5v-23.5c0,-1.1,-.8,-1.9,-1.9,-1.9Z" class="g5_1"/>
<path d="M538.4,1207H526.7v3.6c0,1,.9,1.9,1.9,1.9h6.2v8.5c0,1,.9,1.9,2,1.9h3.5v-14c0,-1.1,-.8,-1.9,-1.9,-1.9Z" class="g5_1"/>
<path d="M573.5,1204.2c1.8,0,3.4,-1.5,3.4,-3.3c0,-1.9,-1.6,-3.4,-3.4,-3.4c-1.9,0,-3.4,1.5,-3.4,3.4c0,1.8,1.5,3.3,3.4,3.3Z" class="g5_1"/>
<path d="M580.9,1197.5h-2.2v3.5c0,1.1,.9,1.9,1.9,1.9h.3c3.9,0,7,3.7,7,7.5c0,3.9,-3.1,7,-7,7H576v-8c0,-1.1,-.8,-2,-1.9,-2h-3.6v15.5h10.4c6.9,0,12.5,-5.6,12.5,-12.5c0,-6.9,-5.6,-12.9,-12.5,-12.9Z" class="g5_1"/>
<path d="M566.1,1206.2v-.1c0,-2.3,-.8,-4.7,-2.1,-6.1c-1.7,-1.6,-4.2,-2.5,-7.3,-2.5H545.3v25.4h5.4v-20.5h5.5c2.7,0,4.3,1.7,4.3,4v.1c0,2.1,-1.5,3.5,-4.2,3.5h-3.6c-.4,0,-.7,.4,-.7,.7c0,.2,.1,.4,.2,.5l8.3,10.2c.6,.9,1.5,1.5,2.7,1.5h5.7l-7.8,-9.1c3,-1.2,5,-3.7,5,-7.6Z" class="g5_1"/>
<path d="M698.7,1198.7h-3.5v18h3.5v-9.9h3.4v-2.2h-3.4Z" class="g4_1"/>
<path d="M720.8,1215.5h-8.9v-2.6h-3.6v6.6c0,1.8,1.4,3.2,3.2,3.2h12.9v-9.8h-3.6Zm0,5H713c-.6,0,-1.1,-.5,-1.1,-1.1v-1.7h8.9Z" class="g4_1"/>
<path d="M686.2,1219.4v-5.5h-3.5v5.6c0,1.8,1.4,3.2,3.2,3.2h13.4v-2.2H687.4c-.6,0,-1.2,-.5,-1.2,-1.1Z" class="g4_1"/>
<path d="M745.1,1216.7h3.6v-18h-3.6v18Z" class="g4_1"/>
<path d="M769.5,1201.4h-3.4v2.2h3.4v1.9h-3.4v2.2h3.4v4.6H773v-13.6h-3.5Z" class="g4_1"/>
<path d="M736.2,1219.4v-5.5h-3.6v5.6c0,1.8,1.5,3.2,3.2,3.2h13.1v-2.2H737.3c-.6,0,-1.1,-.5,-1.1,-1.1Z" class="g4_1"/>
<path d="M686.2,1207.5c1.3,1.7,3.5,3.3,6.6,4v-2.2c-5,-1.4,-4.8,-6.5,-4.8,-6.7v-3.2h-3.6v3.2c0,.2,.3,5.3,-4.7,6.7v2.2c3.1,-.7,5.2,-2.3,6.5,-4Z" class="g4_1"/>
<path d="M796.4,1205v-2.8c0,-1.7,-1.5,-3.2,-3.2,-3.2H779.8v2.3h11.9c.6,-.1,1.1,.5,1.1,1.1v2.6c0,.5,0,2.6,-1,3.7h-4.1v-4.6h-3.6v4.6h-7.2v2.2h22.3v-2.2h-3.8c.9,-1.1,1,-3.2,1,-3.7Z" class="g4_1"/>
<path d="M767.4,1211.3V1209c-.8,.5,-3.5,.5,-3.5,.5h-5.5c-.6,0,-1.1,-.5,-1.1,-1.1v-1.9h7.5v-4.8c0,-1.3,-1.1,-2.3,-2.3,-2.3h-8.8v2.2h6.7c.4,0,.8,.3,.8,.8v1.9h-7.5v4.3c0,1.7,1.5,3.1,3.2,3.1h7c0,0,2.7,0,3.5,-.4Z" class="g4_1"/>
<path d="M674.5,1204.1v-1.9c0,-1.7,-1.4,-3.2,-3.2,-3.2H657.8v2.3l12,-.1c.6,0,1.1,.6,1.1,1.2v1.7c0,.5,0,2.5,-.9,3.6H654.9v2.2h9.4v3.8h-6.5v2.2h12c.6,0,1.1,.5,1.1,1.1v5.7h3.6v-5.8c0,-1.8,-1.4,-3.2,-3.2,-3.2h-3.5v-3.8h9.4v-2.2h-3.6c.8,-1.1,.9,-3.1,.9,-3.6Z" class="g4_1"/>
<path d="M769.9,1213.7H758v2.2h10.4c.6,0,1.1,.5,1.1,1.1v5.7H773v-5.8c0,-1.8,-1.4,-3.2,-3.1,-3.2Z" class="g4_1"/>
<path d="M649.9,1198.7h-3.6v18h3.6v-9.9h3.4v-2.2h-3.4Z" class="g4_1"/>
<path d="M643.6,1205.5c0,-1.4,-.6,-2.7,-1.6,-3.7h2v-2.3h-5.1v-1.9h-3.5v1.9h-5.1v2.3h2c-1,1,-1.6,2.3,-1.6,3.7c0,3.1,2.9,5.7,6.4,5.7c3.6,0,6.5,-2.6,6.5,-5.7m-9.4,0c0,-1.9,1.3,-3.5,2.9,-3.5c1.6,0,2.9,1.6,2.9,3.5c0,1.9,-1.3,3.5,-2.9,3.5c-1.6,0,-2.9,-1.6,-2.9,-3.5Z" class="g4_1"/>
<path d="M637.4,1219.4v-5.5h-3.5v5.6c0,1.8,1.4,3.2,3.1,3.2h13.4v-2.2H638.6c-.7,0,-1.2,-.5,-1.2,-1.1Z" class="g4_1"/>
<path d="M819.9,1204.6v-5.9h-3.6v10.4c-1,.4,-3.4,.4,-3.4,.4h-6.3c-.7,0,-1.2,-.5,-1.2,-1.1v-6c.1,-.5,.4,-.8,.8,-.8h6.5v-2.2h-8.5c-1.3,0,-2.3,1,-2.3,2.3v6.9c0,1.7,1.4,3.1,3.1,3.1h7.9c0,0,2.4,0,3.4,-.4v5.4h3.6v-9.9h3.4v-2.2Z" class="g4_1"/>
<path d="M807.4,1219.4v-5.5h-3.6v5.6c0,1.8,1.4,3.2,3.2,3.2h13.4v-2.2H808.5c-.6,0,-1.1,-.5,-1.1,-1.1Z" class="g4_1"/>
<path d="M788.1,1212.3c-4.1,0,-7.5,2.5,-7.5,5.5c0,3.1,3.4,5.6,7.5,5.6c4.1,0,7.4,-2.5,7.4,-5.6c0,-3,-3.3,-5.5,-7.4,-5.5m0,8.9c-2.2,0,-3.9,-1.5,-3.9,-3.4c0,-1.8,1.7,-3.3,3.9,-3.3c2.1,0,3.9,1.5,3.9,3.3c0,1.9,-1.8,3.4,-3.9,3.4Z" class="g4_1"/>
<path d="M742.3,1205.2c0,-3.3,-3,-6,-6.8,-6c-3.7,0,-6.7,2.7,-6.7,6c0,3.2,3,5.9,6.7,5.9c3.8,0,6.8,-2.7,6.8,-5.9m-10,0c0,-2.1,1.5,-3.8,3.2,-3.8c1.8,0,3.2,1.7,3.2,3.8c0,2,-1.4,3.7,-3.2,3.7c-1.7,0,-3.2,-1.7,-3.2,-3.7Z" class="g4_1"/>
<path d="M720.8,1203.8h-3.5c-.6,-2.6,-3.2,-4.6,-6.4,-4.6c-3.5,0,-6.4,2.6,-6.4,5.7c0,3.1,2.9,5.7,6.4,5.7c3.2,0,5.8,-2,6.4,-4.6h3.5v5.4h3.6v-12.7h-3.6Zm-9.9,4.6c-1.6,0,-2.9,-1.6,-2.9,-3.5c0,-1.9,1.3,-3.5,2.9,-3.5c1.7,0,3,1.6,3,3.5c0,1.9,-1.3,3.5,-3,3.5Z" class="g4_1"/>
<path d="M635.9,270h232V130.8h-232V270Z" class="g6_1"/>
<path d="M786.7,200.4c0,25.7,-20.8,46.4,-46.4,46.4c-25.6,0,-46.4,-20.7,-46.4,-46.4c0,-25.6,20.8,-46.4,46.4,-46.4c25.6,0,46.4,20.8,46.4,46.4Z" class="g7_1"/>
<path d="M426.2,434.9c0,0,-10.3,0,-10.3,10.4v44.2c0,0,0,10.4,10.3,10.4H857.6c0,0,10.3,0,10.3,-10.4V445.3c0,0,0,-10.4,-10.3,-10.4Z" class="g8_1"/>
<path d="M32.1,45.1H9.2m958.3,0h22.9M32.1,1331.3H9.2m958.3,0h22.9M45.1,32.1V9.2m0,1335.1v22.9M954.5,32.1V9.2m0,1335.1v22.9" class="g9_1"/>
<path d="M32.1,45.1H9.2m958.3,0h22.9M32.1,1331.3H9.2m958.3,0h22.9M45.1,32.1V9.2m0,1335.1v22.9M954.5,32.1V9.2m0,1335.1v22.9" class="ga_1"/>
<path d="M27.5,32.1H0m972.1,0h27.5M27.5,1344.3H0m972.1,0h27.5M32.1,27.5V0m0,1348.9v27.5M967.5,27.5V0m0,1348.9v27.5" class="g9_1"/>
<path d="M27.5,32.1H0m972.1,0h27.5M27.5,1344.3H0m972.1,0h27.5M32.1,27.5V0m0,1348.9v27.5M967.5,27.5V0m0,1348.9v27.5" class="ga_1"/>
</svg>