<?xml version="1.0" encoding="UTF-8" standalone="no"?>
<!DOCTYPE svg PUBLIC "-//W3C//DTD SVG 1.1//EN"
"http://www.w3.org/Graphics/SVG/1.1/DTD/svg11.dtd">
<svg viewBox="0 0 999 1376" version="1.1" xmlns="http://www.w3.org/2000/svg" xmlns:xlink="http://www.w3.org/1999/xlink">
<defs>
<clipPath id="c0_86"><path d="M198.1,686.4V587.2h99.2v99.2Z"/></clipPath>
<clipPath id="c1_86"><path d="M198.1,363.2V264h99.2v99.2Z"/></clipPath>
<clipPath id="c2_86"><path d="M175.8,240.8l-6.5,-2.1L153,224.7V167.6h71.9v73.2Z"/></clipPath>
<clipPath id="c3_86"><path d="M177,850.1L170.5,848L154.1,834.1V777h72v73.1Z"/></clipPath>
<style type="text/css"><![CDATA[
.g0_86{
fill: #FEFCF4;
}
.g1_86{
fill: #FFF;
}
.g2_86{
fill: none;
stroke: #6381B7;
stroke-width: 0.763;
}
.g3_86{
fill: none;
stroke: #949698;
stroke-width: 0.381;
}
.g4_86{
fill: #F0E8F3;
}
.g5_86{
fill: none;
stroke: #231F20;
stroke-width: 0.305;
stroke-miterlimit: 10;
}
.g6_86{
fill: #48484A;
}
.g7_86{
fill: #766FA6;
}
.g8_86{
fill: #6381B7;
}
.g9_86{
fill: none;
stroke: #6381B7;
stroke-width: 0.381;
stroke-dasharray: 2,1;
}
.ga_86{
fill: none;
stroke: #6381B7;
stroke-width: 0.381;
}
.gb_86{
fill: #FCE8B0;
}
.gc_86{
fill: #25408F;
}
.gd_86{
fill: #00BAF1;
}
.ge_86{
fill: #332D2C;
}
.gf_86{
fill: #D9DFF0;
}
.gg_86{
fill: #F27C85;
}
.gh_86{
fill: #7DD3F6;
}
.gi_86{
fill: none;
stroke: #FFF;
stroke-width: 1.909;
stroke-miterlimit: 10;
}
.gj_86{
fill: none;
stroke: #000;
stroke-width: 0.381;
stroke-miterlimit: 10;
}
]]></style>
</defs>
<path d="M32.1,1344.3H954.5V32.1H32.1V1344.3Z" class="g0_86"/>
<path d="M145.1,860.7c0,0,-13,0,-13,13v313.2c0,0,0,13,13,13H832.9c0,0,13,0,13,-13V873.7c0,0,0,-13,-13,-13Z" class="g1_86"/>
<path d="M145.1,860.7c0,0,-13,0,-13,13v313.2c0,0,0,13,13,13H832.9c0,0,13,0,13,-13V873.7c0,0,0,-13,-13,-13H145.1Z" class="g2_86"/>
<path d="M150.4,135.8c0,0,-18.3,0,-18.3,18.4V740.9c0,0,0,18.4,18.3,18.4H827.5c0,0,18.4,0,18.4,-18.4V135.8Z" class="g1_86"/>
<path d="M150.4,135.8c0,0,-18.3,0,-18.3,18.4V740.9c0,0,0,18.4,18.3,18.4H827.5c0,0,18.4,0,18.4,-18.4V135.8H150.4Z" class="g2_86"/>
<path d="M187.4,532.1H347.3V432.9H187.4v99.2Z" class="g1_86"/>
<image preserveAspectRatio="none" x="218" y="433" width="99" height="99" xlink:href="img/1.jpg"/>
<path d="M187.4,532.1H347.3V432.9H187.4v99.2Z" class="g3_86"/>
<path d="M413.1,532.1H573V432.9H413.1v99.2Z" class="g1_86"/>
<image preserveAspectRatio="none" x="443" y="433" width="100" height="99" xlink:href="img/2.jpg"/>
<path d="M413.1,532.1H573V432.9H413.1v99.2Z" class="g3_86"/>
<path d="M638.9,532.1H798.7V432.9H638.9v99.2Z" class="g1_86"/>
<image preserveAspectRatio="none" x="669" y="433" width="99" height="99" xlink:href="img/3.jpg"/>
<path d="M638.9,532.1H798.7V432.9H638.9v99.2Z" class="g3_86"/>
<path d="M187.4,686.4H307.9V587.2H187.4v99.2Z" class="g1_86"/>
<image clip-path="url(#c0_86)" preserveAspectRatio="none" x="198" y="587" width="99" height="99" xlink:href="img/4.jpg"/>
<path d="M187.4,686.4H307.9V587.2H187.4v99.2Z" class="g3_86"/>
<path d="M351,686.4H471.5V587.2H351v99.2Z" class="g1_86"/>
<image preserveAspectRatio="none" x="362" y="587" width="99" height="99" xlink:href="img/5.jpg"/>
<path d="M351,686.4H471.5V587.2H351v99.2Z" class="g3_86"/>
<path d="M514.6,686.4H635.1V587.2H514.6v99.2Z" class="g1_86"/>
<image preserveAspectRatio="none" x="525" y="587" width="99" height="99" xlink:href="img/6.jpg"/>
<path d="M514.6,686.4H635.1V587.2H514.6v99.2Z" class="g3_86"/>
<path d="M678.2,686.4H798.7V587.2H678.2v99.2Z" class="g1_86"/>
<image preserveAspectRatio="none" x="689" y="587" width="99" height="99" xlink:href="img/7.jpg"/>
<path d="M678.2,686.4H798.7V587.2H678.2v99.2Z" class="g3_86"/>
<path d="M187.4,363.2H307.9V264H187.4v99.2Z" class="g1_86"/>
<image clip-path="url(#c1_86)" preserveAspectRatio="none" x="198" y="264" width="99" height="99" xlink:href="img/8.jpg"/>
<path d="M187.4,363.2H307.9V264H187.4v99.2Z" class="g3_86"/>
<path d="M351,363.2H471.5V264H351v99.2Z" class="g1_86"/>
<image preserveAspectRatio="none" x="362" y="264" width="99" height="99" xlink:href="img/9.jpg"/>
<path d="M351,363.2H471.5V264H351v99.2Z" class="g3_86"/>
<path d="M514.6,363.2H635.1V264H514.6v99.2Z" class="g1_86"/>
<image preserveAspectRatio="none" x="525" y="264" width="99" height="99" xlink:href="img/10.jpg"/>
<path d="M514.6,363.2H635.1V264H514.6v99.2Z" class="g3_86"/>
<path d="M678.2,363.2H798.7V264H678.2v99.2Z" class="g1_86"/>
<image preserveAspectRatio="none" x="689" y="264" width="99" height="99" xlink:href="img/11.jpg"/>
<path d="M678.2,363.2H798.7V264H678.2v99.2Z" class="g3_86"/>
<path d="M183.7,929.4c0,0,-13,0,-13,12.9v156c0,0,0,12.9,13,12.9H764c0,0,13,0,13,-12.9v-156c0,0,0,-12.9,-13,-12.9Z" class="g4_86"/>
<path d="M390,987.7H520.8m-146,25.9H505.5m-195.6,26H440.6m-73.5,26H497.8m-161.2,26H467.3" class="g5_86"/>
<path d="M175,1136.7c0,0,-4.3,0,-4.3,4.3v14.4c0,0,0,4.3,4.1,5.7l52.4,18.3c0,0,4.1,1.4,4.1,-2.9V1141c0,0,0,-4.3,-4.3,-4.3Z" class="g6_86"/>
<path d="M196.1,1123.9c0,0,-12.9,0,-12.9,12.9v30.4c0,0,0,13,12.9,13H762.9c0,0,13,0,13,-13v-30.4c0,0,0,-12.9,-13,-12.9Z" class="g4_86"/>
<path d="M175,1134.5c0,0,-4.3,0,-4.3,4.3v17c0,0,0,4.3,4.3,4.3h34.6c0,0,4.4,0,4.4,-4.3v-17c0,0,0,-4.3,-4.4,-4.3Z" class="g7_86"/>
<path d="M425.5,1215c0,0,-4.4,0,-4.4,4.3v10.8c0,0,0,4.4,4.4,4.4h30.3c0,0,4.3,0,4.3,-4.4v-10.8c0,0,0,-4.3,-4.3,-4.3Z" class="g8_86"/>
<path d="M412.3,1206.1v37.6m1.3,1H845.1m1,-1.4v-37.5m-1.4,-1H413.2" class="g9_86"/>
<path d="M412.3,1244.1v.6h.6m432.6,0h.6v-.6m0,-38.7v-.6h-.6m-432.6,0h-.6v.6" class="ga_86"/>
<path d="M208.5,169.8c0,0,-13,0,-13,13v47.6c0,0,0,13,13,13H810.4c0,0,13,0,13,-13V182.8c0,0,0,-13,-13,-13Z" class="gb_86"/>
<image clip-path="url(#c2_86)" preserveAspectRatio="none" x="151" y="166" width="75" height="76" xlink:href="img/12.png"/>
<path d="M203.3,236.1c0,0,-26.9,11.3,-51.1,-12.8c0,0,15.1,25.3,49.3,24c0,0,24.7,.3,20.2,-10.2c0,0,1.2,-4.4,-18.4,-1Z" class="gb_86"/>
<path d="M209.6,805.1c0,0,-12.9,0,-12.9,13v21.7c0,0,0,12.9,12.9,12.9H833.3c0,0,13,0,13,-12.9V818.1c0,0,0,-13,-13,-13Z" class="gb_86"/>
<image clip-path="url(#c3_86)" preserveAspectRatio="none" x="153" y="775" width="75" height="77" xlink:href="img/13.png"/>
<path d="M204.4,845.4c0,0,-26.8,11.3,-51.1,-12.8c0,0,15.2,25.3,49.3,24c0,0,24.8,.3,20.3,-10.1c0,0,1.2,-4.5,-18.5,-1.1Z" class="gb_86"/>
<path d="M131.7,126.7v22.2l11.7,10.3V137Z" class="gc_86"/>
<path d="M131.7,109.9v39H829.4c0,0,16.9,0,16.9,-16.8v-5.4c0,0,0,-16.8,-16.9,-16.8Z" class="g8_86"/>
<path d="M189.6,121.3l-6.4,-6.5L162,136l6.4,6.5Z" class="gd_86"/>
<path d="M168.4,143c.2,0,.3,0,.4,-.1L190,121.7c.1,-.1,.2,-.3,.2,-.4c0,-.1,-.1,-.3,-.2,-.4l-6.5,-6.4c-.2,-.2,-.5,-.2,-.7,0l-21.2,21.2c-.1,.1,-.2,.2,-.2,.3c0,.2,.1,.3,.2,.4l6.5,6.5c.1,.1,.2,.1,.3,.1m20.5,-21.7l-20.5,20.5L162.7,136l20.5,-20.4Z" class="ge_86"/>
<path d="M189.6,121.3l-6.4,-6.5l2.1,-2.1l6.5,6.5Z" class="gf_86"/>
<path d="M189.6,121.8c.2,0,.3,0,.4,-.1l2.1,-2.1c.1,-.1,.2,-.3,.2,-.4c0,-.2,-.1,-.3,-.2,-.4l-6.4,-6.5c-.2,-.2,-.6,-.2,-.8,0l-2.1,2.2c-.1,0,-.2,.2,-.2,.3c0,.2,.1,.3,.2,.4l6.5,6.5c.1,.1,.2,.1,.3,.1m1.4,-2.6l-1.4,1.4l-5.7,-5.8l1.4,-1.4Z" class="ge_86"/>
<path d="M195.4,115.6l-6.5,-6.5l-3.6,3.6l6.5,6.5Z" class="gg_86"/>
<path d="M191.8,119.7c.1,0,.2,0,.3,-.1l3.7,-3.7c.2,-.2,.2,-.5,0,-.7l-6.5,-6.5c-.2,-.2,-.6,-.2,-.8,0l-3.6,3.6c-.2,.2,-.2,.6,0,.8l6.5,6.5c.1,.1,.2,.1,.4,.1m2.8,-4.1l-2.8,2.8L186,112.7l2.9,-2.9Z" class="ge_86"/>
<path d="M157.3,147.2L162,136l6.4,6.5Z" class="g1_86"/>
<path d="M157.3,147.7c.1,0,.2,0,.2,-.1L168.6,143c.2,-.1,.3,-.2,.4,-.4c0,-.2,-.1,-.3,-.2,-.5l-6.5,-6.4c-.1,-.2,-.3,-.2,-.5,-.2c-.1,.1,-.3,.2,-.3,.3l-4.7,11.1c0,.2,0,.5,.1,.6c.1,.1,.3,.2,.4,.2m10.2,-5.4l-9.2,3.9l3.8,-9.2Z" class="ge_86"/>
<path d="M157.3,147.2l2.3,-5.4l3.1,3.1Z" class="ge_86"/>
<path d="M157.3,147.7c.1,0,.2,0,.2,-.1l5.4,-2.2c.1,-.1,.3,-.2,.3,-.4c0,-.2,0,-.3,-.1,-.5l-3.2,-3.1c-.1,-.1,-.3,-.2,-.4,-.1c-.2,0,-.4,.1,-.4,.3l-2.3,5.3c0,.2,0,.5,.1,.6c.1,.1,.3,.2,.4,.2m4.5,-3l-3.5,1.5l1.4,-3.5Z" class="ge_86"/>
<path d="M187.9,119.5l-3,-2.9l-21.2,21.2l3,3Z" class="gh_86"/>
<path d="M166.7,141.3c.1,0,.2,-.1,.3,-.2l21.3,-21.2c.1,-.1,.1,-.2,.1,-.4c0,-.1,0,-.2,-.1,-.3l-3,-3c-.2,-.2,-.5,-.2,-.8,0l-21.2,21.2c-.1,.1,-.1,.3,-.1,.4c0,.1,0,.3,.1,.4l3,2.9c.1,.1,.2,.2,.4,.2m20.4,-21.8L166.7,140l-2.2,-2.2l20.4,-20.5Z" class="ge_86"/>
<path d="M32.1,45.1H9.2m958.3,0h22.9M32.1,1331.3H9.2m958.3,0h22.9M45.1,32.1V9.2m0,1335.1v22.9M954.5,32.1V9.2m0,1335.1v22.9" class="gi_86"/>
<path d="M32.1,45.1H9.2m958.3,0h22.9M32.1,1331.3H9.2m958.3,0h22.9M45.1,32.1V9.2m0,1335.1v22.9M954.5,32.1V9.2m0,1335.1v22.9" class="gj_86"/>
<path d="M27.5,32.1H0m972.1,0h27.5M27.5,1344.3H0m972.1,0h27.5M32.1,27.5V0m0,1348.9v27.5M967.5,27.5V0m0,1348.9v27.5" class="gi_86"/>
<path d="M27.5,32.1H0m972.1,0h27.5M27.5,1344.3H0m972.1,0h27.5M32.1,27.5V0m0,1348.9v27.5M967.5,27.5V0m0,1348.9v27.5" class="gj_86"/>
</svg>