<?xml version="1.0" encoding="UTF-8" standalone="no"?>
<!DOCTYPE svg PUBLIC "-//W3C//DTD SVG 1.1//EN"
"http://www.w3.org/Graphics/SVG/1.1/DTD/svg11.dtd">
<svg viewBox="0 0 999 1376" version="1.1" xmlns="http://www.w3.org/2000/svg" xmlns:xlink="http://www.w3.org/1999/xlink">
<defs>
<clipPath id="c0_290"><path d="M444.7,559.1V455.6H548.3V559.1Z"/></clipPath>
<clipPath id="c1_290"><path d="M608.9,559.1V455.6H712.5V559.1Z"/></clipPath>
<clipPath id="c2_290"><path d="M386.8,1055.8V818.2H614.1v237.6Z"/></clipPath>
<clipPath id="c3_290"><path d="M177,236.3l-6.5,-2.1L154.1,220.3V163.2h72v73.1Z"/></clipPath>
<style type="text/css"><![CDATA[
.g0_290{
fill: #FEFCF4;
}
.g1_290{
fill: #FFF;
}
.g2_290{
fill: none;
stroke: #6381B7;
stroke-width: 0.763;
}
.g3_290{
fill: none;
stroke: #949698;
stroke-width: 0.381;
}
.g4_290{
fill: #FCE8B0;
}
.g5_290{
fill: #25408F;
}
.g6_290{
fill: #6381B7;
}
.g7_290{
fill: #00BAF1;
}
.g8_290{
fill: #332D2C;
}
.g9_290{
fill: #D9DFF0;
}
.ga_290{
fill: #F27C85;
}
.gb_290{
fill: #7DD3F6;
}
.gc_290{
fill: none;
stroke: #FFF;
stroke-width: 1.909;
stroke-miterlimit: 10;
}
.gd_290{
fill: none;
stroke: #000;
stroke-width: 0.381;
stroke-miterlimit: 10;
}
]]></style>
</defs>
<path d="M32.1,1343.2H954.5V32.1H32.1V1343.2Z" class="g0_290"/>
<path d="M725,111.3h79V33.4H725v77.9Z" class="g0_290"/>
<path d="M150.9,135c0,0,-18.3,0,-18.3,18.3v960.1c0,0,0,18.3,18.3,18.3H828c0,0,18.4,0,18.4,-18.3V135Z" class="g1_290"/>
<path d="M150.9,135c0,0,-18.3,0,-18.3,18.3v960.1c0,0,0,18.3,18.3,18.3H828c0,0,18.4,0,18.4,-18.3V135H150.9Z" class="g2_290"/>
<path d="M343.8,372.9H464.3V269.4H343.8V372.9Z" class="g1_290"/>
<image preserveAspectRatio="none" x="352" y="269" width="104" height="104" xlink:href="img/1.jpg"/>
<path d="M343.8,372.9H464.3V269.4H343.8V372.9Z" class="g3_290"/>
<path d="M508.2,372.9H628.7V269.4H508.2V372.9Z" class="g1_290"/>
<image preserveAspectRatio="none" x="517" y="269" width="103" height="104" xlink:href="img/2.jpg"/>
<path d="M508.2,372.9H628.7V269.4H508.2V372.9Z" class="g3_290"/>
<path d="M273.6,559.1H394.1V455.6H273.6V559.1Z" class="g1_290"/>
<image preserveAspectRatio="none" x="282" y="456" width="104" height="103" xlink:href="img/3.jpg"/>
<path d="M273.6,559.1H394.1V455.6H273.6V559.1Z" class="g3_290"/>
<path d="M436.2,559.1H556.7V455.6H436.2V559.1Z" class="g1_290"/>
<image clip-path="url(#c0_290)" preserveAspectRatio="none" x="445" y="456" width="103" height="103" xlink:href="img/4.jpg"/>
<path d="M436.2,559.1H556.7V455.6H436.2V559.1Z" class="g3_290"/>
<path d="M600.4,559.1H720.9V455.6H600.4V559.1Z" class="g1_290"/>
<image clip-path="url(#c1_290)" preserveAspectRatio="none" x="609" y="456" width="103" height="103" xlink:href="img/5.jpg"/>
<path d="M600.4,559.1H720.9V455.6H600.4V559.1Z" class="g3_290"/>
<path d="M370.9,1061.3H614.1V818.2H370.9v243.1Z" class="g1_290"/>
<image clip-path="url(#c2_290)" preserveAspectRatio="none" x="387" y="816" width="229" height="240" xlink:href="img/6.jpg"/>
<path d="M370.9,1061.3H614.1V818.2H370.9v243.1Z" class="g3_290"/>
<path d="M349.4,742.6H469.9V639H349.4V742.6Z" class="g1_290"/>
<image preserveAspectRatio="none" x="358" y="639" width="103" height="104" xlink:href="img/7.jpg"/>
<path d="M349.4,742.6H469.9V639H349.4V742.6Z" class="g3_290"/>
<path d="M513.6,742.6H634.1V639H513.6V742.6Z" class="g1_290"/>
<image preserveAspectRatio="none" x="522" y="639" width="104" height="104" xlink:href="img/8.jpg"/>
<path d="M513.6,742.6H634.1V639H513.6V742.6Z" class="g3_290"/>
<path d="M209.6,191.3c0,0,-12.9,0,-12.9,13V226c0,0,0,12.9,12.9,12.9h602c0,0,13,0,13,-12.9V204.3c0,0,0,-13,-13,-13Z" class="g4_290"/>
<image clip-path="url(#c3_290)" preserveAspectRatio="none" x="153" y="162" width="75" height="76" xlink:href="img/9.png"/>
<path d="M204.4,231.6c0,0,-26.8,11.3,-51.1,-12.8c0,0,15.2,25.3,49.3,24c0,0,24.8,.3,20.3,-10.1c0,0,1.2,-4.5,-18.5,-1.1Z" class="g4_290"/>
<path d="M131.7,126.7v22.2l11.7,10.3V137Z" class="g5_290"/>
<path d="M131.7,109.9v39H829.4c0,0,16.9,0,16.9,-16.8v-5.4c0,0,0,-16.8,-16.9,-16.8Z" class="g6_290"/>
<path d="M189.6,121.3l-6.4,-6.5L162,136l6.4,6.5Z" class="g7_290"/>
<path d="M168.4,143c.2,0,.3,0,.4,-.1L190,121.7c.1,-.1,.2,-.3,.2,-.4c0,-.1,-.1,-.3,-.2,-.4l-6.5,-6.4c-.2,-.2,-.5,-.2,-.7,0l-21.2,21.2c-.1,.1,-.2,.2,-.2,.3c0,.2,.1,.3,.2,.4l6.5,6.5c.1,.1,.2,.1,.3,.1m20.5,-21.7l-20.5,20.5L162.7,136l20.5,-20.4Z" class="g8_290"/>
<path d="M189.6,121.3l-6.4,-6.5l2.1,-2.1l6.5,6.5Z" class="g9_290"/>
<path d="M189.6,121.8c.2,0,.3,0,.4,-.1l2.1,-2.1c.1,-.1,.2,-.3,.2,-.4c0,-.2,-.1,-.3,-.2,-.4l-6.4,-6.5c-.2,-.2,-.6,-.2,-.8,0l-2.1,2.2c-.1,0,-.2,.2,-.2,.3c0,.2,.1,.3,.2,.4l6.5,6.5c.1,.1,.2,.1,.3,.1m1.4,-2.6l-1.4,1.4l-5.7,-5.8l1.4,-1.4Z" class="g8_290"/>
<path d="M195.4,115.6l-6.5,-6.5l-3.6,3.6l6.5,6.5Z" class="ga_290"/>
<path d="M191.8,119.7c.1,0,.2,0,.3,-.1l3.7,-3.7c.2,-.2,.2,-.5,0,-.7l-6.5,-6.5c-.2,-.2,-.6,-.2,-.8,0l-3.6,3.6c-.2,.2,-.2,.6,0,.8l6.5,6.5c.1,.1,.2,.1,.4,.1m2.8,-4.1l-2.8,2.8L186,112.7l2.9,-2.9Z" class="g8_290"/>
<path d="M157.3,147.2L162,136l6.4,6.5Z" class="g1_290"/>
<path d="M157.3,147.7c.1,0,.2,0,.2,-.1L168.6,143c.2,-.1,.3,-.2,.4,-.4c0,-.2,-.1,-.3,-.2,-.5l-6.5,-6.4c-.1,-.2,-.3,-.2,-.5,-.2c-.1,.1,-.3,.2,-.3,.3l-4.7,11.1c0,.2,0,.5,.1,.6c.1,.1,.3,.2,.4,.2m10.2,-5.4l-9.2,3.9l3.8,-9.2Z" class="g8_290"/>
<path d="M157.3,147.2l2.3,-5.4l3.1,3.1Z" class="g8_290"/>
<path d="M157.3,147.7c.1,0,.2,0,.2,-.1l5.4,-2.2c.1,-.1,.3,-.2,.3,-.4c0,-.2,0,-.3,-.1,-.5l-3.2,-3.1c-.1,-.1,-.3,-.2,-.4,-.1c-.2,0,-.4,.1,-.4,.3l-2.3,5.3c0,.2,0,.5,.1,.6c.1,.1,.3,.2,.4,.2m4.5,-3l-3.5,1.5l1.4,-3.5Z" class="g8_290"/>
<path d="M187.9,119.5l-3,-2.9l-21.2,21.2l3,3Z" class="gb_290"/>
<path d="M166.7,141.3c.1,0,.2,-.1,.3,-.2l21.3,-21.2c.1,-.1,.1,-.2,.1,-.4c0,-.1,0,-.2,-.1,-.3l-3,-3c-.2,-.2,-.5,-.2,-.8,0l-21.2,21.2c-.1,.1,-.1,.3,-.1,.4c0,.1,0,.3,.1,.4l3,2.9c.1,.1,.2,.2,.4,.2m20.4,-21.8L166.7,140l-2.2,-2.2l20.4,-20.5Z" class="g8_290"/>
<path d="M32.1,45.1H9.2m958.3,0h22.9M32.1,1331.3H9.2m958.3,0h22.9M45.1,32.1V9.2m0,1335.1v22.9M954.5,32.1V9.2m0,1335.1v22.9" class="gc_290"/>
<path d="M32.1,45.1H9.2m958.3,0h22.9M32.1,1331.3H9.2m958.3,0h22.9M45.1,32.1V9.2m0,1335.1v22.9M954.5,32.1V9.2m0,1335.1v22.9" class="gd_290"/>
<path d="M27.5,32.1H0m972.1,0h27.5M27.5,1344.3H0m972.1,0h27.5M32.1,27.5V0m0,1348.9v27.5M967.5,27.5V0m0,1348.9v27.5" class="gc_290"/>
<path d="M27.5,32.1H0m972.1,0h27.5M27.5,1344.3H0m972.1,0h27.5M32.1,27.5V0m0,1348.9v27.5M967.5,27.5V0m0,1348.9v27.5" class="gd_290"/>
</svg>