<?xml version="1.0" encoding="UTF-8" standalone="no"?>
<!DOCTYPE svg PUBLIC "-//W3C//DTD SVG 1.1//EN"
"http://www.w3.org/Graphics/SVG/1.1/DTD/svg11.dtd">
<svg viewBox="0 0 999 1376" version="1.1" xmlns="http://www.w3.org/2000/svg" xmlns:xlink="http://www.w3.org/1999/xlink">
<defs>
<clipPath id="c0_303"><path d="M32.1,1344.3V32.1H967.5V1344.3Z"/></clipPath>
<clipPath id="c1_303"><path d="M198.7,198.4l-6.5,-2.2L175.8,182.3V125.2h72v73.2Z"/></clipPath>
<clipPath id="c2_303"><path d="M208.5,388.7V293.9h94v94.8Z"/></clipPath>
<clipPath id="c3_303"><path d="M359.9,379.1V297.9h93v81.2Z"/></clipPath>
<clipPath id="c4_303"><path d="M504.9,387.9v-97H610.3v97Z"/></clipPath>
<clipPath id="c5_303"><path d="M661.9,385.8V294.4h93v91.4Z"/></clipPath>
<clipPath id="c6_303"><path d="M248.9,747.5v-82h83.3v82Z"/></clipPath>
<clipPath id="c7_303"><path d="M247.1,937.3V865.4h83.4v71.9Z"/></clipPath>
<clipPath id="c8_303"><path d="M246,848.5V757.6h88.6v90.9Z"/></clipPath>
<clipPath id="c9_303"><path d="M247.1,1029.3v-82h82v82Z"/></clipPath>
<style type="text/css"><![CDATA[
.g0_303{
fill: #FEFCF4;
}
.g1_303{
fill: #FCE8B0;
}
.g2_303{
fill: #FFF;
}
.g3_303{
fill: none;
stroke: #6381B7;
stroke-width: 0.763;
}
.g4_303{
fill: #48484A;
}
.g5_303{
fill: #F0E8F3;
}
.g6_303{
fill: #766FA6;
}
.g7_303{
fill: none;
stroke: #231F20;
stroke-width: 0.611;
}
.g8_303{
fill: #93BEDA;
}
.g9_303{
fill: #6381B7;
}
.ga_303{
fill: none;
stroke: #6381B7;
stroke-width: 0.381;
stroke-dasharray: 2,1;
}
.gb_303{
fill: none;
stroke: #6381B7;
stroke-width: 0.381;
}
.gc_303{
fill: none;
stroke: #FFF;
stroke-width: 1.909;
stroke-miterlimit: 10;
}
.gd_303{
fill: none;
stroke: #000;
stroke-width: 0.381;
stroke-miterlimit: 10;
}
]]></style>
</defs>
<path clip-path="url(#c0_303)" d="M-877.3,1343.2H45.1V32.1H-877.3V1343.2Z" class="g0_303"/>
<path d="M231.3,153.4c0,0,-13,0,-13,13V188c0,0,0,13,13,13H854.9c0,0,13,0,13,-13V166.4c0,0,0,-13,-13,-13Z" class="g1_303"/>
<image clip-path="url(#c1_303)" preserveAspectRatio="none" x="174" y="124" width="75" height="76" xlink:href="img/1.png"/>
<path d="M226.1,193.7c0,0,-26.9,11.2,-51.1,-12.8c0,0,15.2,25.3,49.3,23.9c0,0,24.7,.4,20.2,-10.1c0,0,1.3,-4.4,-18.4,-1Z" class="g1_303"/>
<path d="M166.7,232.1c0,0,-13,0,-13,13v831.3c0,0,0,13,13,13H854.5c0,0,13,0,13,-13V245.1c0,0,0,-13,-13,-13Z" class="g2_303"/>
<path d="M166.7,232.1c0,0,-13,0,-13,13v831.3c0,0,0,13,13,13H854.5c0,0,13,0,13,-13V245.1c0,0,0,-13,-13,-13H166.7Z" class="g3_303"/>
<path d="M199.1,477.9c0,0,-4.4,0,-4.4,4.3v14.4c0,0,0,4.3,4.1,5.7l52.5,18.3c0,0,4.1,1.4,4.1,-2.9V482.2c0,0,0,-4.3,-4.4,-4.3Z" class="g4_303"/>
<path d="M220.2,465.1c0,0,-13,0,-13,13V556c0,0,0,13,13,13H817.9c0,0,12.9,0,12.9,-13V478.1c0,0,0,-13,-12.9,-13Z" class="g5_303"/>
<path d="M199.1,475.7c0,0,-4.4,0,-4.4,4.4V497c0,0,0,4.3,4.4,4.3h37.3c0,0,4.3,0,4.3,-4.3V480.1c0,0,0,-4.4,-4.3,-4.4Z" class="g6_303"/>
<image clip-path="url(#c2_303)" preserveAspectRatio="none" x="207" y="293" width="96" height="97" xlink:href="img/2.jpg"/>
<image clip-path="url(#c3_303)" preserveAspectRatio="none" x="358" y="298" width="96" height="81" xlink:href="img/3.jpg"/>
<image clip-path="url(#c4_303)" preserveAspectRatio="none" x="505" y="282" width="105" height="105" xlink:href="img/4.jpg"/>
<image clip-path="url(#c5_303)" preserveAspectRatio="none" x="660" y="293" width="96" height="93" xlink:href="img/5.jpg"/>
<image clip-path="url(#c6_303)" preserveAspectRatio="none" x="248" y="664" width="85" height="85" xlink:href="img/6.jpg"/>
<image clip-path="url(#c7_303)" preserveAspectRatio="none" x="246" y="865" width="86" height="72" xlink:href="img/7.jpg"/>
<image clip-path="url(#c8_303)" preserveAspectRatio="none" x="243" y="758" width="93" height="91" xlink:href="img/8.jpg"/>
<image clip-path="url(#c9_303)" preserveAspectRatio="none" x="247" y="947" width="82" height="82" xlink:href="img/9.jpg"/>
<path d="M208.3,428.3h96.9V392.9H208.3v35.4Z" class="g2_303"/>
<path d="M208.3,428.3h96.9V392.9H208.3v35.4Z" class="g7_303"/>
<path d="M358.3,428.3h96.8V392.9H358.3v35.4Z" class="g2_303"/>
<path d="M358.3,428.3h96.8V392.9H358.3v35.4Z" class="g7_303"/>
<path d="M508.8,428.3h96.8V392.9H508.8v35.4Z" class="g2_303"/>
<path d="M508.8,428.3h96.8V392.9H508.8v35.4Z" class="g7_303"/>
<path d="M661.4,428.3h96.9V392.9H661.4v35.4Z" class="g2_303"/>
<path d="M661.4,428.3h96.9V392.9H661.4v35.4Z" class="g7_303"/>
<path d="M352.1,712.3c2,0,3.6,-1.6,3.6,-3.6c0,-2,-1.6,-3.6,-3.6,-3.6c-2,0,-3.6,1.6,-3.6,3.6c0,2,1.6,3.6,3.6,3.6Z" class="g8_303"/>
<path d="M352.1,805.9c2,0,3.6,-1.6,3.6,-3.6c0,-2,-1.6,-3.6,-3.6,-3.6c-2,0,-3.6,1.6,-3.6,3.6c0,2,1.6,3.6,3.6,3.6Z" class="g8_303"/>
<path d="M352.1,899.4c2,0,3.6,-1.6,3.6,-3.6c0,-2,-1.6,-3.6,-3.6,-3.6c-2,0,-3.6,1.6,-3.6,3.6c0,2,1.6,3.6,3.6,3.6Z" class="g8_303"/>
<path d="M352.1,990.8c2,0,3.6,-1.6,3.6,-3.6c0,-2,-1.6,-3.6,-3.6,-3.6c-2,0,-3.6,1.6,-3.6,3.6c0,2,1.6,3.6,3.6,3.6Z" class="g8_303"/>
<path d="M590,712.3c2,0,3.6,-1.6,3.6,-3.6c0,-2,-1.6,-3.6,-3.6,-3.6c-2,0,-3.6,1.6,-3.6,3.6c0,2,1.6,3.6,3.6,3.6Z" class="g8_303"/>
<path d="M590,805.9c2,0,3.6,-1.6,3.6,-3.6c0,-2,-1.6,-3.6,-3.6,-3.6c-2,0,-3.6,1.6,-3.6,3.6c0,2,1.6,3.6,3.6,3.6Z" class="g8_303"/>
<path d="M590,899.4c2,0,3.6,-1.6,3.6,-3.6c0,-2,-1.6,-3.6,-3.6,-3.6c-2,0,-3.6,1.6,-3.6,3.6c0,2,1.6,3.6,3.6,3.6Z" class="g8_303"/>
<path d="M590,990.8c2,0,3.6,-1.6,3.6,-3.6c0,-2,-1.6,-3.6,-3.6,-3.6c-2,0,-3.6,1.6,-3.6,3.6c0,2,1.6,3.6,3.6,3.6Z" class="g8_303"/>
<path d="M633.3,692.6c0,0,-13,0,-13,12.9V712c0,0,0,13,13,13h80.1c0,0,13,0,13,-13v-6.5c0,0,0,-12.9,-13,-12.9Z" class="g5_303"/>
<path d="M633.3,787c0,0,-13,0,-13,13v6.5c0,0,0,12.9,13,12.9h80.1c0,0,13,0,13,-12.9V800c0,0,0,-13,-13,-13Z" class="g5_303"/>
<path d="M633.3,881.4c0,0,-13,0,-13,13v6.5c0,0,0,13,13,13h80.1c0,0,13,0,13,-13v-6.5c0,0,0,-13,-13,-13Z" class="g5_303"/>
<path d="M633.3,973.6c0,0,-13,0,-13,13v6.5c0,0,0,13,13,13h80.1c0,0,13,0,13,-13v-6.5c0,0,0,-13,-13,-13Z" class="g5_303"/>
<path d="M335.9,1112.1c0,0,-4.3,0,-4.3,4.4v10.8c0,0,0,4.3,4.3,4.3h30.3c0,0,4.4,0,4.4,-4.3v-10.8c0,0,0,-4.4,-4.4,-4.4Z" class="g9_303"/>
<path d="M322.7,1104.3v55.5m1.4,1H866.8m.9,-1.4V1104m-1.3,-1H323.7" class="ga_303"/>
<path d="M322.7,1160.2v.6h.6m543.8,0h.6v-.6m0,-56.6v-.6h-.6m-543.8,0h-.6v.6" class="gb_303"/>
<path d="M32.1,45.1H9.2m958.3,0h22.9M32.1,1331.3H9.2m958.3,0h22.9M45.1,32.1V9.2m0,1335.1v22.9M954.5,32.1V9.2m0,1335.1v22.9" class="gc_303"/>
<path d="M32.1,45.1H9.2m958.3,0h22.9M32.1,1331.3H9.2m958.3,0h22.9M45.1,32.1V9.2m0,1335.1v22.9M954.5,32.1V9.2m0,1335.1v22.9" class="gd_303"/>
<path d="M27.5,32.1H0m972.1,0h27.5M27.5,1344.3H0m972.1,0h27.5M32.1,27.5V0m0,1348.9v27.5M967.5,27.5V0m0,1348.9v27.5" class="gc_303"/>
<path d="M27.5,32.1H0m972.1,0h27.5M27.5,1344.3H0m972.1,0h27.5M32.1,27.5V0m0,1348.9v27.5M967.5,27.5V0m0,1348.9v27.5" class="gd_303"/>
</svg>