<?xml version="1.0" encoding="UTF-8" standalone="no"?>
<!DOCTYPE svg PUBLIC "-//W3C//DTD SVG 1.1//EN"
"http://www.w3.org/Graphics/SVG/1.1/DTD/svg11.dtd">
<svg viewBox="0 0 999 1376" version="1.1" xmlns="http://www.w3.org/2000/svg" xmlns:xlink="http://www.w3.org/1999/xlink">
<defs>
<clipPath id="c0_120"><path d="M32.1,1344.3V32.1H967.5V1344.3Z"/></clipPath>
<clipPath id="c1_120"><path d="M188.4,931.3v-181H234l3.4,11.9l3,8.8l-4.3,92l3.4,5.1l.9,14.7v48.5Z"/></clipPath>
<clipPath id="c2_120"><path d="M188.4,824V770.7h51.9l.1,.3l-2.5,53Zm0,-66v-7.7H234l2.2,7.7Z"/></clipPath>
<clipPath id="c3_120"><path d="M188.4,770.7V758h47.8l1.2,4.2l2.9,8.5Z"/></clipPath>
<clipPath id="c4_120"><path d="M188.4,923.6V871.7h51.3l.7,11.1v40.8Zm0,-64.6V848.7h48.3l-.5,10.3Z"/></clipPath>
<clipPath id="c5_120"><path d="M188.4,871.7V859h47.8l-.1,4l.4,.6c.4,2.2,1.5,4.2,3.1,6.1l.1,2Z"/></clipPath>
<clipPath id="c6_120"><path d="M239.6,868.7v0c-1,-1.2,-1.7,-2.4,-2.2,-3.7l2.1,3.1l.1,.6Z"/></clipPath>
<clipPath id="c7_120"><path d="M239.6,869.7v0c-1.6,-1.9,-2.7,-3.9,-3.1,-6.1l.9,1.4c.5,1.3,1.2,2.5,2.2,3.7v1Z"/></clipPath>
<clipPath id="c8_120"><path d="M510.6,931.3v-181h45.6l3.5,11.9l2.9,8.8l-4.3,92l3.4,5.1l.9,14.7v48.5Z"/></clipPath>
<clipPath id="c9_120"><path d="M510.6,824V770.7h51.9l.1,.3l-2.5,53Zm0,-66v-7.7h45.6l2.2,7.7Z"/></clipPath>
<clipPath id="ca_120"><path d="M510.6,770.7V758h47.8l1.3,4.2l2.8,8.5Z"/></clipPath>
<clipPath id="cb_120"><path d="M510.6,923.6V871.7h51.3l.7,11.1v40.8Zm0,-64.6V848.7h48.3l-.4,10.3Z"/></clipPath>
<clipPath id="cc_120"><path d="M510.6,871.7V859h47.9l-.2,4l.4,.6c.4,2.2,1.5,4.2,3.1,6.1l.1,2Z"/></clipPath>
<clipPath id="cd_120"><path d="M561.8,868.7v0c-1,-1.2,-1.7,-2.4,-2.2,-3.7l2.1,3.1l.1,.6Z"/></clipPath>
<clipPath id="ce_120"><path d="M561.8,869.7c-1.6,-1.9,-2.7,-3.9,-3.1,-6.1l.9,1.4c.5,1.3,1.2,2.5,2.2,3.7v1Z"/></clipPath>
<clipPath id="cf_120"><path d="M263.2,720.6V644.3h43.5l9.6,11.9l4.3,9.8v54.6Z"/></clipPath>
<clipPath id="cg_120"><path d="M186,546.4l-6.5,-2.1l-16.4,-14v-57H235v73.1Z"/></clipPath>
<clipPath id="ch_120"><path d="M178.4,137.2c.1,-1.3,.7,-2.5,1.6,-3.4c1,-1,2.4,-1.6,3.9,-1.6h19.2v5Z"/></clipPath>
<clipPath id="ci_120"><path d="M177.9,137.7v-6h25.7v6Z"/></clipPath>
<style type="text/css"><![CDATA[
.g0_120{
fill: #FEFCF4;
}
.g1_120{
fill: #FFF;
}
.g2_120{
fill: none;
stroke: #6381B7;
stroke-width: 0.763;
}
.g3_120{
fill: #48484A;
}
.g4_120{
fill: #F0E8F3;
}
.g5_120{
fill: #766FA6;
}
.g6_120{
fill: #949698;
}
.g7_120{
fill: none;
stroke: #231F20;
stroke-width: 0.305;
stroke-miterlimit: 10;
}
.g8_120{
fill: none;
stroke: #818385;
stroke-width: 0.458;
}
.g9_120{
fill: #FFF;
stroke: #818385;
stroke-width: 0.458;
}
.ga_120{
fill: #6381B7;
}
.gb_120{
fill: none;
stroke: #6381B7;
stroke-width: 0.381;
stroke-dasharray: 2,1;
}
.gc_120{
fill: none;
stroke: #6381B7;
stroke-width: 0.381;
}
.gd_120{
fill: #DEF1F3;
}
.ge_120{
fill: #FCE8B0;
}
.gf_120{
fill: #25408F;
}
.gg_120{
fill: none;
stroke: #231F20;
stroke-width: 1.527;
}
.gh_120{
fill: #39B4D1;
stroke: #2D2A4A;
stroke-width: 1.038;
stroke-linecap: round;
stroke-linejoin: round;
}
.gi_120{
fill: #2D2A4A;
}
.gj_120{
fill: none;
stroke: #2D2A4A;
stroke-width: 1.038;
stroke-linecap: round;
stroke-linejoin: round;
}
.gk_120{
fill: #DEDAD3;
}
.gl_120{
fill: #29263F;
}
.gm_120{
fill: #E15F46;
stroke: #2D2A4A;
stroke-width: 1.038;
stroke-linecap: round;
stroke-linejoin: round;
}
.gn_120{
fill: #F0F5FA;
}
.go_120{
fill: none;
stroke: #7CA7D8;
stroke-width: 1.527;
stroke-linecap: round;
stroke-linejoin: round;
stroke-dasharray: 0,5;
}
.gp_120{
fill: none;
stroke: #7CA7D8;
stroke-width: 1.527;
stroke-linecap: round;
stroke-linejoin: round;
}
.gq_120{
fill: #7CA7D8;
}
.gr_120{
fill: #BFD62F;
}
.gs_120{
fill: #3D3B39;
}
.gt_120{
fill: #F5CA58;
}
.gu_120{
fill: none;
stroke: #FFF;
stroke-width: 1.909;
stroke-miterlimit: 10;
}
.gv_120{
fill: none;
stroke: #000;
stroke-width: 0.381;
stroke-miterlimit: 10;
}
]]></style>
</defs>
<path clip-path="url(#c0_120)" d="M954.5,1344.3H1877V32.1H954.5V1344.3Z" class="g0_120"/>
<path d="M145.1,565.4c0,0,-13,0,-13,13V932.7c0,0,0,13,13,13H832.9c0,0,13,0,13,-13V578.4c0,0,0,-13,-13,-13Z" class="g1_120"/>
<path d="M145.1,565.4c0,0,-13,0,-13,13V932.7c0,0,0,13,13,13H832.9c0,0,13,0,13,-13V578.4c0,0,0,-13,-13,-13H145.1Z" class="g2_120"/>
<path d="M176.2,650.5c0,0,-4.3,0,-4.3,4.4v14.4c0,0,0,4.3,4.1,5.7l52.5,18.3c0,0,4,1.4,4,-2.9V654.9c0,0,0,-4.4,-4.3,-4.4Z" class="g3_120"/>
<path d="M197.4,637.8c0,0,-13,0,-13,12.9v63.5c0,0,0,13,13,13H795c0,0,13,0,13,-13V650.7c0,0,0,-12.9,-13,-12.9Z" class="g4_120"/>
<path d="M176.2,648.4c0,0,-4.3,0,-4.3,4.3v17c0,0,0,4.3,4.3,4.3h37.3c0,0,4.4,0,4.4,-4.3v-17c0,0,0,-4.3,-4.4,-4.3Z" class="g5_120"/>
<path d="M172,623H735V605.7H172V623Z" class="g1_120"/>
<g clip-path="url(#c1_120)">
<path d="M323.4,763.6h.2c0,-2.9,-1.2,-5.6,-3.3,-8c-6.5,-7.3,-21.4,-12.3,-38.8,-12.3c-11.6,0,-22,2.2,-29.7,5.9c-3.8,1.8,-6.9,4,-9,6.4c-2.2,2.4,-3.4,5.1,-3.4,8c0,4.1,2.6,7.9,7,11.1c4.3,3.2,10.4,5.7,17.6,7.3l.1,-.3l-.2,-.2c-2.7,2,-6.4,4.4,-9.4,4.7v.5c0,0,1.9,.4,4.7,.4c3.8,0,9.5,-.7,14.2,-3.7l-.1,-.3l-.1,.3c2.7,.3,5.5,.4,8.3,.4c11.6,0,22.1,-2.2,29.7,-5.9c3.8,-1.8,6.9,-4,9.1,-6.4c2.1,-2.4,3.3,-5.1,3.3,-7.9h-.5c0,2.6,-1.2,5.2,-3.2,7.6c-6.3,7,-21.1,12.1,-38.4,12.1c-2.8,0,-5.5,-.2,-8.2,-.4h-.2c-4.5,3,-10.1,3.6,-13.9,3.6c-1.4,0,-2.5,-.1,-3.3,-.1c-.4,-.1,-.8,-.1,-1,-.2c-.2,0,-.3,0,-.3,0v.5c3.1,-.3,6.9,-2.7,9.7,-4.8l.4,-.3l-.5,-.2c-7.2,-1.5,-13.3,-4.1,-17.5,-7.2c-4.3,-3.1,-6.7,-6.7,-6.7,-10.6c0,-2.7,1.1,-5.3,3.2,-7.6c6.3,-7.1,21.1,-12.2,38.3,-12.2c11.5,0,22,2.3,29.5,5.9c3.7,1.8,6.8,3.9,8.9,6.3c2,2.3,3.2,4.9,3.2,7.6h.3Z" class="g6_120"/>
<path d="M320.2,861.8h.3c0,-2.9,-1.2,-5.6,-3.3,-8c-6.5,-7.3,-21.4,-12.3,-38.8,-12.3c-11.6,0,-22.1,2.2,-29.7,5.9c-3.8,1.8,-6.9,4,-9,6.4c-2.2,2.4,-3.4,5.1,-3.4,8c0,4.1,2.6,7.9,6.9,11.1c4.4,3.2,10.5,5.7,17.7,7.3l.1,-.3l-.2,-.2c-2.7,2,-6.5,4.4,-9.4,4.7v.6c0,0,1.9,.3,4.6,.3c3.9,0,9.6,-.7,14.3,-3.7l-.2,-.2v.2c2.7,.3,5.5,.4,8.3,.4c11.6,0,22.1,-2.2,29.7,-5.8c3.8,-1.9,6.9,-4,9.1,-6.5c2.1,-2.4,3.3,-5.1,3.3,-7.9H320c0,2.7,-1.2,5.2,-3.3,7.6c-6.2,7,-21,12.1,-38.3,12.1c-2.8,0,-5.6,-.1,-8.2,-.4H270c-4.6,3,-10.1,3.6,-14,3.6c-1.3,0,-2.5,-.1,-3.3,-.1c-.4,-.1,-.7,-.1,-.9,-.1c-.2,-.1,-.3,-.1,-.3,-.1l-.1,.3l.1,.3c3.1,-.4,6.9,-2.8,9.6,-4.9l.5,-.3l-.6,-.1c-7.1,-1.6,-13.2,-4.1,-17.4,-7.2c-4.3,-3.1,-6.7,-6.8,-6.7,-10.7c0,-2.7,1.1,-5.3,3.2,-7.6c6.2,-7.1,21,-12.2,38.3,-12.1c11.5,-.1,21.9,2.2,29.5,5.8c3.7,1.8,6.8,3.9,8.8,6.3c2.1,2.3,3.3,4.9,3.3,7.6h.2Z" class="g6_120"/>
</g>
<image clip-path="url(#c2_120)" preserveAspectRatio="none" x="185" y="749" width="58" height="75" xlink:href="img/1.jpg"/>
<image clip-path="url(#c3_120)" preserveAspectRatio="none" x="185" y="758" width="58" height="13" xlink:href="img/2.jpg"/>
<image clip-path="url(#c4_120)" preserveAspectRatio="none" x="185" y="848" width="58" height="76" xlink:href="img/3.jpg"/>
<image clip-path="url(#c5_120)" preserveAspectRatio="none" x="185" y="859" width="57" height="13" xlink:href="img/4.jpg"/>
<image clip-path="url(#c6_120)" preserveAspectRatio="none" x="237" y="859" width="6" height="13" xlink:href="img/5.jpg"/>
<image clip-path="url(#c7_120)" preserveAspectRatio="none" x="236" y="851" width="7" height="22" xlink:href="img/6.jpg"/>
<g clip-path="url(#c8_120)">
<path d="M645.6,763.6h.2c0,-2.9,-1.2,-5.6,-3.3,-8C636,748.3,621.1,743.3,603.7,743.3c-11.5,0,-22,2.2,-29.7,5.9c-3.8,1.8,-6.9,4,-9,6.4c-2.2,2.4,-3.4,5.1,-3.4,8c0,4.1,2.6,7.9,7,11.1c4.3,3.2,10.4,5.7,17.6,7.3l.1,-.3l-.2,-.2c-2.7,2,-6.4,4.4,-9.4,4.7v.5c0,0,1.9,.4,4.7,.4c3.8,0,9.5,-.7,14.2,-3.7l-.1,-.3l-.1,.3c2.7,.3,5.5,.4,8.3,.4c11.6,0,22.1,-2.2,29.7,-5.9c3.8,-1.8,6.9,-4,9.1,-6.4c2.1,-2.4,3.3,-5.1,3.3,-7.9h-.5c0,2.6,-1.2,5.2,-3.2,7.6c-6.3,7,-21.1,12.1,-38.4,12.1c-2.8,0,-5.5,-.2,-8.2,-.4h-.2c-4.5,3,-10.1,3.6,-13.9,3.6c-1.4,0,-2.5,-.1,-3.3,-.1c-.4,-.1,-.8,-.1,-1,-.2c-.2,0,-.3,0,-.3,0v.5c3.1,-.3,6.9,-2.7,9.7,-4.8l.4,-.3l-.5,-.2c-7.2,-1.5,-13.3,-4.1,-17.5,-7.2c-4.3,-3.1,-6.7,-6.7,-6.7,-10.6c0,-2.7,1.1,-5.3,3.2,-7.6c6.3,-7.1,21.1,-12.2,38.3,-12.2c11.5,0,22,2.3,29.5,5.9c3.7,1.8,6.8,3.9,8.9,6.3c2,2.3,3.2,4.9,3.2,7.6h.3Z" class="g6_120"/>
<path d="M642.4,861.8h.3c0,-2.9,-1.2,-5.6,-3.3,-8C632.9,846.5,618,841.5,600.6,841.5c-11.6,0,-22.1,2.2,-29.7,5.9c-3.8,1.8,-6.9,4,-9,6.4c-2.2,2.4,-3.4,5.1,-3.4,8c0,4.1,2.6,7.9,6.9,11.1c4.4,3.2,10.5,5.7,17.7,7.3l.1,-.3l-.2,-.2c-2.7,2,-6.5,4.4,-9.4,4.7v.6c0,0,1.9,.3,4.6,.3c3.9,0,9.6,-.7,14.3,-3.7l-.1,-.2l-.1,.2c2.7,.3,5.5,.4,8.3,.4c11.6,0,22.1,-2.2,29.7,-5.8c3.8,-1.9,6.9,-4,9.1,-6.5c2.1,-2.4,3.3,-5.1,3.3,-7.9h-.5c0,2.7,-1.2,5.2,-3.3,7.6c-6.2,7,-21,12.1,-38.3,12.1c-2.8,0,-5.6,-.1,-8.2,-.4h-.2c-4.6,3,-10.1,3.6,-14,3.6c-1.3,0,-2.5,-.1,-3.3,-.1c-.4,-.1,-.7,-.1,-.9,-.1c-.2,-.1,-.3,-.1,-.3,-.1l-.1,.3l.1,.3c3.1,-.4,6.9,-2.8,9.6,-4.9l.5,-.3l-.6,-.1c-7.1,-1.6,-13.2,-4.1,-17.4,-7.2c-4.3,-3.1,-6.7,-6.8,-6.7,-10.7c0,-2.7,1.1,-5.3,3.2,-7.6c6.2,-7.1,21,-12.2,38.3,-12.1c11.5,-.1,22,2.2,29.5,5.8c3.7,1.8,6.8,3.9,8.8,6.3c2.1,2.3,3.3,4.9,3.3,7.6h.2Z" class="g6_120"/>
</g>
<image clip-path="url(#c9_120)" preserveAspectRatio="none" x="508" y="749" width="57" height="75" xlink:href="img/7.jpg"/>
<image clip-path="url(#ca_120)" preserveAspectRatio="none" x="508" y="758" width="57" height="13" xlink:href="img/8.jpg"/>
<image clip-path="url(#cb_120)" preserveAspectRatio="none" x="508" y="848" width="57" height="76" xlink:href="img/9.jpg"/>
<image clip-path="url(#cc_120)" preserveAspectRatio="none" x="508" y="859" width="56" height="13" xlink:href="img/10.jpg"/>
<image clip-path="url(#cd_120)" preserveAspectRatio="none" x="559" y="859" width="6" height="13" xlink:href="img/11.jpg"/>
<image clip-path="url(#ce_120)" preserveAspectRatio="none" x="558" y="851" width="7" height="22" xlink:href="img/12.jpg"/>
<path d="M469.1,681.6H599.3" class="g7_120"/>
<image clip-path="url(#cf_120)" preserveAspectRatio="none" x="262" y="643" width="60" height="79" xlink:href="img/13.jpg"/>
<path d="M354.7,680.3c21.4,0,38.8,-8.6,38.8,-19.2c0,-10.7,-17.4,-19.3,-38.8,-19.3c-21.4,0,-38.7,8.6,-38.7,19.3c0,10.6,17.3,19.2,38.7,19.2Z" class="g1_120"/>
<path d="M354.7,680.3c21.4,0,38.8,-8.6,38.8,-19.2c0,-10.7,-17.4,-19.3,-38.8,-19.3c-21.4,0,-38.7,8.6,-38.7,19.3c0,10.6,17.3,19.2,38.7,19.2Z" class="g8_120"/>
<path d="M332.5,675.8c0,0,-.7,3,-8.4,5.4c0,0,8.1,2.3,23.6,-2.9" class="g9_120"/>
<path d="M276.8,780.8c22.6,0,40.9,-9.6,40.9,-21.5c0,-11.8,-18.3,-21.4,-40.9,-21.4c-22.6,0,-40.9,9.6,-40.9,21.4c0,11.9,18.3,21.5,40.9,21.5Z" class="g1_120"/>
<path d="M276.8,780.8c22.6,0,40.9,-9.6,40.9,-21.5c0,-11.8,-18.3,-21.4,-40.9,-21.4c-22.6,0,-40.9,9.6,-40.9,21.4c0,11.9,18.3,21.5,40.9,21.5Z" class="g8_120"/>
<path d="M254.6,776.2c0,0,-.8,3,-8.5,5.4c0,0,8.1,2.3,23.6,-2.9" class="g9_120"/>
<path d="M601.1,780.8c22.6,0,41,-9.6,41,-21.5c0,-11.8,-18.4,-21.4,-41,-21.4c-22.6,0,-40.9,9.6,-40.9,21.4c0,11.9,18.3,21.5,40.9,21.5Z" class="g1_120"/>
<path d="M601.1,780.8c22.6,0,41,-9.6,41,-21.5c0,-11.8,-18.4,-21.4,-41,-21.4c-22.6,0,-40.9,9.6,-40.9,21.4c0,11.9,18.3,21.5,40.9,21.5Z" class="g8_120"/>
<path d="M578.9,776.2c0,0,-.7,3,-8.4,5.4c0,0,8.1,2.3,23.6,-2.9" class="g9_120"/>
<path d="M302.4,822.3H409.8M302.4,922.4H409.8M623.7,822.3H731.2M623.7,922.4H731.2" class="g7_120"/>
<path d="M601.1,886.9c22.6,0,41,-9.6,41,-21.5c0,-11.8,-18.4,-21.4,-41,-21.4c-22.6,0,-40.9,9.6,-40.9,21.4c0,11.9,18.3,21.5,40.9,21.5Z" class="g1_120"/>
<path d="M601.1,886.9c22.6,0,41,-9.6,41,-21.5c0,-11.8,-18.4,-21.4,-41,-21.4c-22.6,0,-40.9,9.6,-40.9,21.4c0,11.9,18.3,21.5,40.9,21.5Z" class="g8_120"/>
<path d="M578.9,882.3c0,0,-.7,3,-8.4,5.4c0,0,8.1,2.3,23.6,-2.9" class="g9_120"/>
<path d="M276.8,886.9c22.6,0,40.9,-9.6,40.9,-21.5C317.7,853.6,299.4,844,276.8,844c-22.6,0,-40.9,9.6,-40.9,21.4c0,11.9,18.3,21.5,40.9,21.5Z" class="g1_120"/>
<path d="M276.8,886.9c22.6,0,40.9,-9.6,40.9,-21.5C317.7,853.6,299.4,844,276.8,844c-22.6,0,-40.9,9.6,-40.9,21.4c0,11.9,18.3,21.5,40.9,21.5Z" class="g8_120"/>
<path d="M254.6,882.3c0,0,-.8,3,-8.5,5.4c0,0,8.1,2.3,23.6,-2.9" class="g9_120"/>
<path d="M444,968.5c0,0,-4.3,0,-4.3,4.3v10.9c0,0,0,4.3,4.3,4.3h30.3c0,0,4.4,0,4.4,-4.3V972.8c0,0,0,-4.3,-4.4,-4.3Z" class="ga_120"/>
<path d="M430.8,961v54.9m1.4,.9H843.9m1,-1.3V960.6m-1.3,-.9H431.8" class="gb_120"/>
<path d="M430.8,1016.3v.5h.6m412.9,0h.6v-.5m0,-56.1v-.5h-.6m-412.9,0h-.6v.5" class="gc_120"/>
<path d="M148.9,171.7c0,0,-17.3,0,-17.3,17.4V407.2c0,0,0,17.3,17.3,17.3h680c0,0,17.3,0,17.3,-17.3V189.1c0,0,0,-17.4,-17.3,-17.4Z" class="gd_120"/>
<path d="M218.6,501.4c0,0,-13,0,-13,13V536c0,0,0,13,13,13H833.3c0,0,13,0,13,-13V514.4c0,0,0,-13,-13,-13Z" class="ge_120"/>
<image clip-path="url(#cg_120)" preserveAspectRatio="none" x="161" y="472" width="75" height="76" xlink:href="img/14.png"/>
<path d="M213.4,541.7c0,0,-26.9,11.3,-51.1,-12.8c0,0,15.1,25.3,49.3,24c0,0,24.7,.3,20.2,-10.1c0,0,1.2,-4.5,-18.4,-1.1Z" class="ge_120"/>
<path d="M131.7,109.5v39l11.7,10.2V136.5Z" class="gf_120"/>
<path d="M131.7,109.5v39H829.5c0,0,16.8,0,16.8,-16.8v-5.4c0,0,0,-16.8,-16.8,-16.8Z" class="ga_120"/>
<path d="M768.8,131c0,0,-.5,-10,8.6,-9.4c0,0,6.7,-.3,6.6,9.5m-15.3,-1.5v6.5c0,0,-3.3,.3,-3.9,-3c0,0,-.1,-3.8,3.9,-3.5Zm15.4,0v6.5c0,0,3.3,.3,3.9,-3c0,0,.1,-3.8,-3.9,-3.5Z" class="gg_120"/>
<path d="M147.4,140.8h61v-32h-61v32Z" class="gh_120"/>
<path d="M147.4,143.1h61v-2.3h-61v2.3Z" class="gh_120"/>
<path d="M171.8,106.2H152.1v31.5h25.8V112.3c0,-3.4,-2.7,-6.1,-6.1,-6.1Z" class="g1_120"/>
<path d="M171.8,106.2v-.5H152.1c-.1,0,-.3,.1,-.4,.2c-.1,.1,-.1,.2,-.1,.3v31.5c0,.1,0,.3,.1,.4c.1,.1,.3,.1,.4,.1h25.8c.1,0,.2,0,.3,-.1c.1,-.1,.2,-.3,.2,-.4V112.3c0,-3.7,-2.9,-6.6,-6.6,-6.6v1c1.6,0,2.9,.7,3.9,1.7c1,1,1.6,2.3,1.6,3.9v24.9H152.6V106.7h19.2Z" class="gi_120"/>
<path d="M152.1,131.7v6h25.8c0,-3.3,-2.7,-6,-6.1,-6Z" class="g1_120"/>
<path d="M152.1,131.7h-.5v6c0,.1,0,.3,.1,.4c.1,.1,.3,.1,.4,.1h25.8c.1,0,.2,0,.3,-.1c.1,-.1,.2,-.3,.2,-.4c0,-3.6,-3,-6.6,-6.6,-6.6H152.1c-.1,0,-.3,.1,-.4,.2c-.1,.1,-.1,.2,-.1,.4h.5v.5h19.7c1.6,0,2.9,.6,3.9,1.6c1,1,1.6,2.4,1.6,3.9h.6v-.5H152.6v-5.5h-.5v.5Z" class="gi_120"/>
<path d="M155.6,110.9h17.2m-17.2,2.8h17.2m-17.2,2.9h17.2m-17.2,2.9h17.2m-17.2,2.8h17.2m-17.2,2.9h17.2M155.6,128h17.2" class="gj_120"/>
<path d="M171.8,132.2H152.6v5h24.7c-.1,-1.3,-.7,-2.5,-1.6,-3.4c-1,-1,-2.3,-1.6,-3.9,-1.6Z" class="gk_120"/>
<path d="M152.6,132.2h19.2c1.6,0,2.9,.6,3.9,1.6c.9,.9,1.5,2.1,1.6,3.4H152.6Zm19.2,-.5H152.1v6h25.2v-2.5c-.9,-2.1,-3,-3.5,-5.5,-3.5Z" class="gl_120"/>
<path d="M183.9,106.2h19.7v31.5H177.9V112.3c0,-3.4,2.7,-6.1,6,-6.1Z" class="g1_120"/>
<path d="M183.9,106.2v.5h19.2v30.5H178.4V112.3c0,-1.6,.6,-2.9,1.6,-3.9c1,-1,2.4,-1.7,3.9,-1.7v-1c-3.6,0,-6.6,2.9,-6.6,6.6v25.4c0,.1,.1,.3,.2,.4c.1,.1,.2,.1,.4,.1h25.7c.2,0,.3,0,.4,-.1c.1,-.1,.1,-.3,.1,-.4V106.2c0,-.1,0,-.2,-.1,-.3c-.1,-.1,-.2,-.2,-.4,-.2H183.9Z" class="gi_120"/>
<path d="M203.6,131.7v6H177.9c0,-3.3,2.7,-6,6,-6Z" class="g1_120"/>
<path d="M203.6,131.7h-.5v5.5H177.9v.5h.5c0,-1.5,.6,-2.9,1.6,-3.9c1,-1,2.4,-1.6,3.9,-1.6h19.7v-.5h-.5h.5v-.6H183.9c-3.6,0,-6.6,3,-6.6,6.6c0,.1,.1,.3,.2,.4c.1,.1,.2,.1,.4,.1h25.7c.2,0,.3,0,.4,-.1c.1,-.1,.1,-.3,.1,-.4v-6c0,-.2,0,-.3,-.1,-.4c-.1,-.1,-.2,-.2,-.4,-.2Z" class="gi_120"/>
<path d="M200.1,110.9H182.9m17.2,2.8H182.9m17.2,2.9H182.9m17.2,2.9H182.9m17.2,2.8H182.9m17.2,2.9H182.9m17.2,2.8H182.9" class="gj_120"/>
<path clip-path="url(#ch_120)" d="M178.4,137.2h24.7v-5H178.4v5Z" class="gk_120"/>
<path clip-path="url(#ci_120)" d="M178.4,137.2c.1,-1.3,.7,-2.5,1.6,-3.4c1,-1,2.4,-1.6,3.9,-1.6h19.2v5Zm25.2,-5.5H183.9c-3.3,0,-6,2.7,-6,6h25.7v-6h-.5h.5Z" class="gl_120"/>
<path d="M177.9,108.8v34.3" class="gj_120"/>
<path d="M195.5,145.5h3.3V134.7h-3.3v10.8Z" class="gm_120"/>
<path d="M132.5,1243.9h713V1121h-713v122.9Z" class="gn_120"/>
<path d="M132.5,1125.6v116m4.5,2.3H843.2m2.3,-4.5V1123.3m-4.6,-2.3H134.7" class="go_120"/>
<path d="M132.5,1243.9v0m713,0v0m0,-122.9v0m-713,0v0" class="gp_120"/>
<path d="M131.7,1124.3v-28.7c0,0,0,-8.6,8.6,-8.6H837.6c0,0,8.7,0,8.7,8.6v29.2Z" class="gq_120"/>
<path d="M173.8,1091.1c3.4,0,6.1,-2.8,6.1,-6.1c0,-3.4,-2.7,-6.1,-6.1,-6.1c-3.3,0,-6,2.7,-6,6.1c0,3.3,2.7,6.1,6,6.1Z" class="gr_120"/>
<path d="M173.8,1093c4.5,0,8.1,-3.6,8.1,-8c0,-4.5,-3.6,-8.1,-8.1,-8.1c-4.4,0,-8,3.6,-8,8.1c0,4.4,3.6,8,8,8m0,-14.1c3.4,0,6.1,2.7,6.1,6.1c0,3.3,-2.7,6.1,-6.1,6.1c-3.3,0,-6,-2.8,-6,-6.1c0,-3.4,2.7,-6.1,6,-6.1Z" class="gs_120"/>
<path d="M159.2,1107.1h29.3v-3.8c0,-4.4,-3.6,-8,-8,-8H167.2c-4.4,0,-8,3.6,-8,8Z" class="gr_120"/>
<path d="M150.9,1112.4h45.9V1109H150.9v3.4Z" class="g1_120"/>
<path d="M197.7,1107.1h-2.6v-11.6c0,-.2,-.1,-.5,-.3,-.6l-2.6,-2.6c.3,-.6,.5,-1.2,.5,-1.8c0,-2,-1.6,-3.6,-3.6,-3.6c-2,0,-3.7,1.6,-3.7,3.6c0,2,1.7,3.6,3.7,3.6c.6,0,1.2,-.2,1.7,-.5l2.4,2.3v11.2h-2.8v-3.8c0,-5.5,-4.4,-9.9,-9.9,-9.9H167.2c-5.5,0,-9.9,4.4,-9.9,9.9v3.8H150c-.6,0,-1,.4,-1,.9v5.4c0,.5,.4,.9,1,.9h2.6v11.3c0,.6,.5,1,1,1h40.5c.5,0,1,-.4,1,-1v-11.3h2.6c.6,0,1,-.4,1,-.9V1108c0,-.5,-.4,-.9,-1,-.9m-8.6,-14.9c-1,0,-1.7,-.8,-1.7,-1.7c0,-.9,.7,-1.7,1.7,-1.7c.9,0,1.6,.8,1.6,1.7c0,.9,-.7,1.7,-1.6,1.7m7.7,20.2H150.9V1109h45.9Zm-3.7,12.3H154.6v-10.4h38.5v10.4Zm-25.9,-29.4h13.3c4.4,0,8,3.6,8,8v3.8H159.2v-3.8c0,-4.4,3.6,-8,8,-8Z" class="gs_120"/>
<path d="M154.6,1124.7h38.5v-10.4H154.6v10.4Zm2.8,-7.6c0,-.2,.2,-.4,.4,-.4h32.1c.2,0,.4,.2,.4,.4v4.8c0,.2,-.2,.4,-.4,.4H157.8c-.2,0,-.4,-.2,-.4,-.4Z" class="g1_120"/>
<path d="M158.3,1121.4h31.1v-3.8H158.3v3.8Z" class="gt_120"/>
<path d="M157.8,1122.3h32.1c.2,0,.4,-.2,.4,-.4v-4.8c0,-.2,-.2,-.4,-.4,-.4H157.8c-.2,0,-.4,.2,-.4,.4v4.8c0,.2,.2,.4,.4,.4m.5,-4.7h31.1v3.8H158.3Z" class="gs_120"/>
<path d="M190.7,1090.5c0,-.9,-.7,-1.7,-1.6,-1.7c-1,0,-1.7,.8,-1.7,1.7c0,.9,.7,1.7,1.7,1.7c.9,0,1.6,-.8,1.6,-1.7Z" class="g1_120"/>
<path d="M32.1,45.1H9.2m958.3,0h22.9M32.1,1331.3H9.2m958.3,0h22.9M45.1,32.1V9.2m0,1335.1v22.9M954.5,32.1V9.2m0,1335.1v22.9" class="gu_120"/>
<path d="M32.1,45.1H9.2m958.3,0h22.9M32.1,1331.3H9.2m958.3,0h22.9M45.1,32.1V9.2m0,1335.1v22.9M954.5,32.1V9.2m0,1335.1v22.9" class="gv_120"/>
<path d="M27.5,32.1H0m972.1,0h27.5M27.5,1344.3H0m972.1,0h27.5M32.1,27.5V0m0,1348.9v27.5M967.5,27.5V0m0,1348.9v27.5" class="gu_120"/>
<path d="M27.5,32.1H0m972.1,0h27.5M27.5,1344.3H0m972.1,0h27.5M32.1,27.5V0m0,1348.9v27.5M967.5,27.5V0m0,1348.9v27.5" class="gv_120"/>
</svg>