<?xml version="1.0" encoding="UTF-8" standalone="no"?>
<!DOCTYPE svg PUBLIC "-//W3C//DTD SVG 1.1//EN"
"http://www.w3.org/Graphics/SVG/1.1/DTD/svg11.dtd">
<svg viewBox="0 0 999 1376" version="1.1" xmlns="http://www.w3.org/2000/svg" xmlns:xlink="http://www.w3.org/1999/xlink">
<defs>
<clipPath id="c0_324"><path d="M32.1,1344.3V32.1H967.5V1344.3Z"/></clipPath>
<clipPath id="c1_324"><path d="M174.4,200.5l-6.5,-2.1L151.5,184.5V127.4h72v73.1Z"/></clipPath>
<clipPath id="c2_324"><path d="M220.8,335.2V261.9h75.6v73.3Z"/></clipPath>
<clipPath id="c3_324"><path d="M219.9,483.7V409.2h75.8v74.5Z"/></clipPath>
<clipPath id="c4_324"><path d="M219.9,409.4V334.9h74.5v74.5Z"/></clipPath>
<clipPath id="c5_324"><path d="M219.9,558V483.4h74.5V558Z"/></clipPath>
<style type="text/css"><![CDATA[
.g0_324{
fill: #FEFCF4;
}
.g1_324{
fill: #FCE8B0;
}
.g2_324{
fill: #FFF;
}
.g3_324{
fill: none;
stroke: #6381B7;
stroke-width: 0.763;
}
.g4_324{
fill: #93BEDA;
}
.g5_324{
fill: #EFE9CC;
}
.g6_324{
fill: #F0E8F3;
}
.g7_324{
fill: none;
stroke: #231F20;
stroke-width: 0.305;
stroke-miterlimit: 10;
}
.g8_324{
fill: #6381B7;
}
.g9_324{
fill: none;
stroke: #6381B7;
stroke-width: 0.381;
stroke-dasharray: 2,1;
}
.ga_324{
fill: none;
stroke: #6381B7;
stroke-width: 0.381;
}
.gb_324{
fill: none;
stroke: #FFF;
stroke-width: 1.909;
stroke-miterlimit: 10;
}
.gc_324{
fill: none;
stroke: #000;
stroke-width: 0.381;
stroke-miterlimit: 10;
}
]]></style>
</defs>
<path clip-path="url(#c0_324)" d="M954.5,1344.3H1877V32.1H954.5V1344.3Z" class="g0_324"/>
<path d="M207,155.5c0,0,-12.9,0,-12.9,13v21.7c0,0,0,12.9,12.9,12.9H830.7c0,0,13,0,13,-12.9V168.5c0,0,0,-13,-13,-13Z" class="g1_324"/>
<image clip-path="url(#c1_324)" preserveAspectRatio="none" x="150" y="126" width="75" height="76" xlink:href="img/1.png"/>
<path d="M201.8,195.8c0,0,-26.8,11.3,-51.1,-12.8c0,0,15.2,25.3,49.3,24c0,0,24.8,.3,20.3,-10.1c0,0,1.2,-4.5,-18.5,-1.1Z" class="g1_324"/>
<path d="M140.9,215.6c0,0,-8.8,0,-8.8,9.4v966.6c0,0,0,9.4,8.8,9.4H837.1c0,0,8.8,0,8.8,-9.4V225c0,0,0,-9.4,-8.8,-9.4Z" class="g2_324"/>
<path d="M140.9,215.6c0,0,-8.8,0,-8.8,9.4v966.6c0,0,0,9.4,8.8,9.4H837.1c0,0,8.8,0,8.8,-9.4V225c0,0,0,-9.4,-8.8,-9.4H140.9Z" class="g3_324"/>
<image clip-path="url(#c2_324)" preserveAspectRatio="none" x="221" y="261" width="75" height="74" xlink:href="img/2.jpg"/>
<image clip-path="url(#c3_324)" preserveAspectRatio="none" x="220" y="408" width="77" height="76" xlink:href="img/3.jpg"/>
<image clip-path="url(#c4_324)" preserveAspectRatio="none" x="220" y="335" width="74" height="74" xlink:href="img/4.jpg"/>
<image clip-path="url(#c5_324)" preserveAspectRatio="none" x="220" y="483" width="74" height="75" xlink:href="img/5.jpg"/>
<path d="M310,302.8c2,0,3.6,-1.6,3.6,-3.6c0,-2,-1.6,-3.6,-3.6,-3.6c-2,0,-3.6,1.6,-3.6,3.6c0,2,1.6,3.6,3.6,3.6Z" class="g4_324"/>
<path d="M310,376.9c2,0,3.6,-1.6,3.6,-3.6c0,-2,-1.6,-3.6,-3.6,-3.6c-2,0,-3.6,1.6,-3.6,3.6c0,2,1.6,3.6,3.6,3.6Z" class="g4_324"/>
<path d="M310,451c2,0,3.6,-1.7,3.6,-3.7c0,-1.9,-1.6,-3.6,-3.6,-3.6c-2,0,-3.6,1.7,-3.6,3.6c0,2,1.6,3.7,3.6,3.7Z" class="g4_324"/>
<path d="M310,525c2,0,3.6,-1.6,3.6,-3.6c0,-2,-1.6,-3.6,-3.6,-3.6c-2,0,-3.6,1.6,-3.6,3.6c0,2,1.6,3.6,3.6,3.6Z" class="g4_324"/>
<path d="M524.2,302.8c2,0,3.6,-1.6,3.6,-3.6c0,-2,-1.6,-3.6,-3.6,-3.6c-2,0,-3.6,1.6,-3.6,3.6c0,2,1.6,3.6,3.6,3.6Z" class="g4_324"/>
<path d="M524.2,376.9c2,0,3.6,-1.6,3.6,-3.6c0,-2,-1.6,-3.6,-3.6,-3.6c-2,0,-3.6,1.6,-3.6,3.6c0,2,1.6,3.6,3.6,3.6Z" class="g4_324"/>
<path d="M524.2,451c2,0,3.6,-1.7,3.6,-3.7c0,-1.9,-1.6,-3.6,-3.6,-3.6c-2,0,-3.6,1.7,-3.6,3.6c0,2,1.6,3.7,3.6,3.7Z" class="g4_324"/>
<path d="M524.2,525c2,0,3.6,-1.6,3.6,-3.6c0,-2,-1.6,-3.6,-3.6,-3.6c-2,0,-3.6,1.6,-3.6,3.6c0,2,1.6,3.6,3.6,3.6Z" class="g4_324"/>
<path d="M563.2,283.1c0,0,-8.7,0,-8.7,8.6v15.2c0,0,0,8.7,8.7,8.7h93.1c0,0,8.6,0,8.6,-8.7V291.7c0,0,0,-8.6,-8.6,-8.6Z" class="g5_324"/>
<path d="M563.2,358c0,0,-8.7,0,-8.7,8.6v15.2c0,0,0,8.7,8.7,8.7h93.1c0,0,8.6,0,8.6,-8.7V366.6c0,0,0,-8.6,-8.6,-8.6Z" class="g5_324"/>
<path d="M563.2,432.9c0,0,-8.7,0,-8.7,8.7v15.1c0,0,0,8.7,8.7,8.7h93.1c0,0,8.6,0,8.6,-8.7V441.6c0,0,0,-8.7,-8.6,-8.7Z" class="g5_324"/>
<path d="M563.2,507.8c0,0,-8.7,0,-8.7,8.7v15.2c0,0,0,8.6,8.7,8.6h93.1c0,0,8.6,0,8.6,-8.6V516.5c0,0,0,-8.7,-8.6,-8.7Z" class="g5_324"/>
<path d="M217.2,633c0,0,-13,0,-13,13v77.9c0,0,0,13,13,13H797.5c0,0,13,0,13,-13V646c0,0,0,-13,-13,-13Z" class="g6_324"/>
<path d="M265.5,706.4h85.6" class="g7_324"/>
<path d="M217.2,785.5c0,0,-13,0,-13,13v77.9c0,0,0,13,13,13H797.5c0,0,13,0,13,-13V798.5c0,0,0,-13,-13,-13Z" class="g6_324"/>
<path d="M291.9,857.7h85.5" class="g7_324"/>
<path d="M217.2,938c0,0,-13,0,-13,13v60.6c0,0,0,13,13,13H797.5c0,0,13,0,13,-13V951c0,0,0,-13,-13,-13Z" class="g6_324"/>
<path d="M318.1,965.6h85.5" class="g7_324"/>
<path d="M217.2,1073.8c0,0,-13,0,-13,13v60.6c0,0,0,13,13,13H797.5c0,0,13,0,13,-13v-60.6c0,0,0,-13,-13,-13Z" class="g6_324"/>
<path d="M335.5,1102.1h85.6" class="g7_324"/>
<path d="M448.2,1216.2c0,0,-4.3,0,-4.3,4.3v10.8c0,0,0,4.3,4.3,4.3h30.3c0,0,4.4,0,4.4,-4.3v-10.8c0,0,0,-4.3,-4.4,-4.3Z" class="g8_324"/>
<path d="M435,1208.7v34.8m1.4,1H845.1m1,-1.4v-34.8m-1.4,-1H436" class="g9_324"/>
<path d="M435,1243.9v.6h.6m409.9,0h.6v-.6m0,-36v-.6h-.6m-409.9,0H435v.6" class="ga_324"/>
<path d="M32.1,45.1H9.2m958.3,0h22.9M32.1,1331.3H9.2m958.3,0h22.9M45.1,32.1V9.2m0,1335.1v22.9M954.5,32.1V9.2m0,1335.1v22.9" class="gb_324"/>
<path d="M32.1,45.1H9.2m958.3,0h22.9M32.1,1331.3H9.2m958.3,0h22.9M45.1,32.1V9.2m0,1335.1v22.9M954.5,32.1V9.2m0,1335.1v22.9" class="gc_324"/>
<path d="M27.5,32.1H0m972.1,0h27.5M27.5,1344.3H0m972.1,0h27.5M32.1,27.5V0m0,1348.9v27.5M967.5,27.5V0m0,1348.9v27.5" class="gb_324"/>
<path d="M27.5,32.1H0m972.1,0h27.5M27.5,1344.3H0m972.1,0h27.5M32.1,27.5V0m0,1348.9v27.5M967.5,27.5V0m0,1348.9v27.5" class="gc_324"/>
</svg>