<?xml version="1.0" encoding="UTF-8" standalone="no"?>
<!DOCTYPE svg PUBLIC "-//W3C//DTD SVG 1.1//EN"
"http://www.w3.org/Graphics/SVG/1.1/DTD/svg11.dtd">
<svg viewBox="0 0 999 1376" version="1.1" xmlns="http://www.w3.org/2000/svg" xmlns:xlink="http://www.w3.org/1999/xlink">
<defs>
<clipPath id="c0_197"><path d="M153.3,1246V133H867.9V1246Z"/></clipPath>
<clipPath id="c1_197"><path d="M610.7,468.6c-8.6,0,-8.7,-8.5,-8.7,-8.7V313.6c0,-8.7,8.7,-8.7,8.7,-8.7H827.2c8.7,0,8.7,8.7,8.7,8.7V459.9c0,8.7,-8.7,8.7,-8.7,8.7Z"/></clipPath>
<clipPath id="c2_197"><path d="M192,694.8c-6.6,-1.2,-6.6,-8.4,-6.6,-8.5V539.1c0,-6.3,4.6,-8.1,7.1,-8.5H412.6c6.6,1.2,6.6,8.5,6.6,8.5V686.3c0,6.3,-4.5,8,-7,8.5Z"/></clipPath>
<clipPath id="c3_197"><path d="M610.7,937.5c-5.5,0,-7.5,-3.4,-8.2,-6v-153c1.7,-5.6,8.2,-5.6,8.2,-5.6H827.2c5.4,0,7.5,3.4,8.2,6v153c-1.8,5.6,-8.2,5.6,-8.2,5.6Z"/></clipPath>
<clipPath id="c4_197"><path d="M194.1,1163.8c-5.6,0,-7.6,-3.6,-8.3,-6.1V1005c1.7,-5.7,8.3,-5.7,8.3,-5.7H410.6c5.6,0,7.6,3.6,8.3,6.1v152.7c-1.7,5.7,-8.3,5.7,-8.3,5.7Z"/></clipPath>
<style type="text/css"><![CDATA[
.g0_197{
fill: #FFF;
}
.g1_197{
fill: none;
stroke: #231F20;
stroke-width: 0.756;
stroke-miterlimit: 3;
}
.g2_197{
fill: #25408F;
}
.g3_197{
fill: #6381B7;
}
.g4_197{
fill: #FFDE2C;
}
.g5_197{
fill: none;
stroke: #231F20;
stroke-width: 1.451;
stroke-miterlimit: 10;
}
.g6_197{
fill: #D2D3D5;
}
.g7_197{
fill: #A8AAAD;
}
.g8_197{
fill: none;
stroke: #231F20;
stroke-width: 0.828;
stroke-miterlimit: 10;
}
.g9_197{
fill: #6CCFF6;
}
.ga_197{
fill: none;
stroke: #231F20;
stroke-width: 0.828;
stroke-linecap: round;
stroke-linejoin: round;
}
.gb_197{
fill: none;
stroke: #231F20;
stroke-width: 1.451;
stroke-linecap: round;
stroke-linejoin: round;
}
.gc_197{
fill: none;
stroke: #FFF;
stroke-width: 1.909;
stroke-miterlimit: 10;
}
.gd_197{
fill: none;
stroke: #000;
stroke-width: 0.381;
stroke-miterlimit: 10;
}
]]></style>
</defs>
<path d="M153.3,1246H867.9V133H153.3V1246Z" class="g0_197"/>
<image clip-path="url(#c0_197)" preserveAspectRatio="none" x="151" y="131" width="719" height="1117" xlink:href="img/1.jpg"/>
<path d="M419.4,187.6c-.3,.6,-.7,1.1,-1.3,1.6c-.5,.4,-1.1,.8,-1.8,1c-.7,.2,-1.5,.4,-2.3,.4c-.8,0,-1.5,-.2,-2.2,-.4c-.7,-.2,-1.3,-.6,-1.9,-1c-.5,-.4,-.9,-1,-1.2,-1.5c-.3,-.6,-.5,-1.3,-.5,-2.1c0,-.7,.1,-1.4,.5,-1.9c.2,-.7,.7,-1.2,1.2,-1.6c.5,-.4,1.2,-.8,1.9,-1c.7,-.3,1.4,-.4,2.2,-.4c.9,0,1.6,.1,2.4,.4c.7,.2,1.3,.6,1.8,1c.5,.4,.9,.9,1.2,1.6c.3,.5,.5,1.2,.5,1.9c0,.8,-.2,1.4,-.5,2Zm11.5,-2.4h-4.3v7.9h-2.2V175.7h2.2v7.6h4.3v1.9Zm-17,14.9c-.8,0,-1.5,-.2,-1.8,-.6c-.4,-.3,-.6,-.9,-.6,-1.6v-5.2h2.2v4.8c0,.3,.1,.5,.2,.6c.1,.1,.3,.2,.7,.2h7.1c1,0,2,-.1,2.8,-.2c.9,-.1,1.8,-.3,2.7,-.7l.5,1.8c-1.1,.3,-2.1,.5,-3,.7c-.9,.1,-1.9,.2,-2.9,.2h-7.9Zm2.7,-16.8c-.7,-.5,-1.6,-.8,-2.6,-.8c-1,0,-1.8,.3,-2.5,.8c-.7,.6,-1,1.3,-1,2.3c0,1.1,.3,1.9,1,2.4c.7,.5,1.5,.8,2.5,.8c1,0,1.9,-.3,2.6,-.8c.7,-.5,1,-1.3,1,-2.4c0,-1,-.3,-1.7,-1,-2.3Zm4.7,-3.5H406.8v-1.7h5.5c.2,-.4,.4,-.8,.4,-1.1c.1,-.3,.1,-.6,.1,-1c0,-.1,0,-.2,0,-.3c0,-.1,0,-.3,0,-.4q-.1,-.1,-.1,-.2c-.1,-.1,-.1,-.2,-.1,-.3l2.1,-.7c.1,.3,.2,.6,.3,.9c0,.3,0,.6,0,.9c0,.4,-.1,.8,-.2,1.1c-.1,.4,-.2,.8,-.4,1.1h6.9v1.7Zm31.9,7.2h-10v4.3H448c.9,0,1.4,.1,1.7,.5c.3,.4,.4,1,.4,1.7l-.3,6.9h-1.9v-6.6c0,-.2,-.1,-.4,-.2,-.6c-.1,-.1,-.3,-.1,-.6,-.1H434.4v-1.8h6.5V187h-9v-1.8h15.2c.2,-1.1,.4,-2.3,.5,-3.5c.2,-1.3,.2,-2.5,.2,-3.6c0,-.2,0,-.4,-.2,-.5c-.1,-.1,-.3,-.2,-.5,-.2H434.8v-1.8h12.9c.8,0,1.4,.2,1.8,.5c.3,.3,.5,.8,.6,1.5c0,1.1,-.1,2.3,-.3,3.7c-.1,1.4,-.4,2.7,-.6,3.9h4V187Zm25.3,10.8c-.4,.7,-.8,1.2,-1.4,1.7c-.6,.5,-1.3,.8,-2.1,1.1c-.8,.3,-1.7,.4,-2.6,.4c-1,0,-1.9,-.1,-2.7,-.4c-.8,-.3,-1.5,-.6,-2.1,-1.1c-.6,-.5,-1,-1,-1.3,-1.7c-.4,-.6,-.5,-1.4,-.5,-2.2c0,-.8,.1,-1.5,.5,-2.2c.3,-.6,.7,-1.2,1.3,-1.7c.6,-.4,1.3,-.8,2.1,-1c.8,-.3,1.7,-.4,2.7,-.4c.9,0,1.8,.1,2.6,.4c.8,.2,1.5,.6,2.1,1c.6,.5,1,1.1,1.4,1.7c.3,.7,.5,1.4,.5,2.2c0,.8,-.2,1.6,-.5,2.2Zm4.6,-9.4H461.8v-1.8H471v-3.1h-3.8c-.8,0,-1.5,-.2,-1.9,-.6c-.4,-.4,-.6,-1,-.6,-1.8v-5.5h2.2v5.3c0,.3,.1,.5,.2,.6c0,.2,.2,.2,.5,.2h5.6c1.2,0,2.3,0,3.4,-.2c1.1,-.1,2.3,-.3,3.4,-.6l.4,1.7c-1.2,.3,-2.4,.6,-3.6,.7c-1.1,.1,-2.3,.2,-3.4,.2v3.1h9.7v1.8Zm-7.6,4.6c-.8,-.6,-1.8,-.9,-3.1,-.9c-1.3,0,-2.3,.3,-3.2,.9c-.8,.7,-1.2,1.5,-1.2,2.6c0,1.1,.4,2,1.2,2.6c.9,.7,1.9,1,3.2,1c1.3,0,2.3,-.3,3.1,-1c.8,-.6,1.2,-1.5,1.2,-2.6c0,-1.1,-.4,-1.9,-1.2,-2.6Zm17.9,-15.8c.1,-.3,.2,-.5,.2,-.8c0,-.2,.1,-.5,.1,-.8c0,-.2,-.1,-.4,-.1,-.6c-.1,-.2,-.1,-.4,-.2,-.5l2.3,-.7c0,.2,.1,.5,.1,.8c0,.2,.1,.5,.1,.7c-.1,.4,-.1,.8,-.2,1.1c-.1,.3,-.2,.5,-.3,.8h5.4c.4,0,.6,0,.8,.2c.2,.1,.3,.3,.3,.5c.1,.2,.1,.4,.1,.6c-.1,.2,-.1,.3,-.2,.4c-.4,.7,-.9,1.3,-1.4,1.8c-.6,.6,-1.2,1.1,-1.9,1.6c.4,0,.7,.1,1.1,.2c.3,.1,.6,.2,.8,.3c.5,.2,1,.5,1.6,.9c.7,.4,1.3,.8,1.9,1.2l-1.1,1.6c-.5,-.3,-1.1,-.7,-1.7,-1.1c-.7,-.4,-1.3,-.7,-1.9,-1.1c-.3,-.1,-.7,-.3,-1.1,-.5c-.5,-.1,-1.1,-.2,-1.8,-.3c-1.2,.6,-2.7,1.2,-4.3,1.7c-1.5,.5,-3.2,.9,-4.9,1.2l-.4,-1.9c1.3,-.3,2.6,-.5,3.7,-.8c1.2,-.3,2.3,-.7,3.4,-1.1c1,-.5,2,-1,2.9,-1.6c.9,-.5,1.7,-1.3,2.5,-2.1h-11v-1.7h5.2Zm12.7,13.3H484.7v-1.8h9.6v-3.1h2.2v3.1h9.6v1.8Zm-16.3,9.6c-.8,0,-1.4,-.2,-1.8,-.6c-.4,-.3,-.6,-.9,-.6,-1.6v-5.2h2.3v4.8c0,.3,0,.5,.1,.6c.1,.1,.4,.2,.7,.2h7.2c1,0,2,-.1,2.8,-.2c.9,-.1,1.8,-.3,2.7,-.7l.5,1.8c-1.1,.3,-2.1,.5,-3,.7c-.9,.1,-1.9,.2,-3,.2h-7.9ZM521.9,185c-.4,.8,-.8,1.5,-1.4,2c-.6,.6,-1.3,1,-2.1,1.3c-.8,.3,-1.6,.4,-2.6,.4c-1,0,-1.9,-.1,-2.7,-.4c-.8,-.3,-1.5,-.7,-2.1,-1.3c-.5,-.5,-1,-1.2,-1.3,-2c-.3,-.7,-.5,-1.6,-.5,-2.5c0,-1,.2,-1.8,.5,-2.6c.3,-.7,.8,-1.4,1.4,-1.9c.6,-.6,1.2,-1,2,-1.3c.9,-.3,1.7,-.5,2.7,-.5c1,0,1.8,.2,2.6,.5c.8,.3,1.5,.7,2.1,1.3c.6,.5,1,1.2,1.4,1.9c.3,.8,.5,1.6,.5,2.6c0,.9,-.2,1.8,-.5,2.5Zm6.4,13.5h-2.2v-5.6c-1.2,.7,-2.4,1.1,-3.7,1.5c-1.2,.3,-2.7,.4,-4.4,.4h-9.8V193H518c1.4,0,2.8,-.2,4.1,-.5c1.3,-.3,2.6,-.9,4,-1.7V176h2.2v22.5Zm-9.4,-19.3c-.8,-.8,-1.8,-1.2,-3.1,-1.2c-1.3,0,-2.3,.4,-3.1,1.2c-.8,.8,-1.2,1.9,-1.2,3.3c0,1.4,.4,2.5,1.2,3.3c.8,.7,1.8,1.1,3.1,1.1c1.3,0,2.3,-.4,3.1,-1.1c.8,-.8,1.2,-1.9,1.2,-3.3c0,-1.4,-.4,-2.5,-1.2,-3.3Zm27.2,-2.8c.2,.5,.3,1,.4,1.6c.1,.5,.2,1.2,.2,1.8c0,1,-.1,1.9,-.1,2.8c-.1,.8,-.3,1.6,-.5,2.3c.7,.1,1.3,.4,1.8,.7c.4,.3,.9,.6,1.2,1.1c.4,.5,.9,1.3,1.5,2.2c.6,.9,1.3,2,2,3.1l-1.6,1.3c-.7,-1,-1.3,-2,-1.9,-2.9c-.6,-.9,-1.1,-1.7,-1.6,-2.3c-.2,-.3,-.5,-.6,-.8,-.8c-.3,-.3,-.7,-.5,-1.2,-.7c-.1,.3,-.3,.6,-.4,.8c-.2,.3,-.4,.6,-.5,.9c-.7,.9,-1.4,1.9,-2.3,2.7c-.8,.9,-1.8,1.8,-2.8,2.6l-1.3,-1.7c.9,-.8,1.8,-1.6,2.6,-2.3c.8,-.8,1.4,-1.6,2,-2.4c.6,-1,1.1,-2.2,1.3,-3.4c.2,-1.2,.3,-2.5,.3,-3.8c0,-.6,0,-1.1,-.1,-1.6c-.2,-.5,-.3,-.9,-.4,-1.2l2.2,-.8Zm16.1,10.3h-4.3v11.8h-2.2V176h2.2v8.9h4.3v1.8Zm1.8,5.2c1.1,-.8,2.1,-1.6,3,-2.5c1,-.8,1.8,-1.8,2.5,-2.8c.7,-1,1.3,-2.1,1.7,-3.3c.4,-1.2,.7,-2.4,.8,-3.7c0,-.3,0,-.5,-.1,-.7c-.1,-.1,-.2,-.1,-.5,-.1h-7.1v-1.9h7.8c.8,0,1.4,.3,1.7,.7c.3,.4,.5,.9,.4,1.6c0,.3,0,.7,-.1,1c0,.3,0,.6,-.1,.9h3.5V176h2.3v21.9h-2.3v-8h-4.7v-1.8h4.7v-5.2h-3.9c-.7,2.3,-1.8,4.3,-3.2,6.1c-1.5,1.7,-3.2,3.3,-5,4.7L564,191.9ZM583.1,176h2.3v22.5h-2.3V176ZM601.7,180.2h4.5v-4.5h2.2v9.2c0,.3,0,.7,-.1,1.2c-.1,.4,-.2,.8,-.4,1.2c-.2,.5,-.4,.9,-.7,1.2c-.3,.4,-.6,.7,-.9,.9h.5c.7,0,1.1,.1,1.3,.4c.3,.3,.3,.7,.3,1.3l-.3,3.9c-.1,.3,-.2,.5,-.3,.6c-.2,.1,-.5,.2,-.8,.2H595.4v2.8h7.7c.9,0,1.7,0,2.7,-.1c.9,-.1,1.8,-.3,2.8,-.7l.5,1.7c-.8,.3,-1.7,.5,-2.7,.7c-1,.1,-2.1,.2,-3.1,.2h-8.4c-.7,0,-1.1,-.2,-1.4,-.5c-.2,-.3,-.3,-.6,-.3,-1.1V194h12.9v-2.8H593.2v-1.8h11.1c.7,-.6,1.2,-1.3,1.5,-2.1c.2,-.9,.4,-1.7,.4,-2.5V182h-4.5v-1.8Zm-12.1,-4.1h8.6c.4,0,.7,0,.9,.2c.2,.1,.4,.3,.5,.5c.1,.2,.2,.5,.2,.7c0,.2,0,.5,-.1,.7c-.2,.7,-.4,1.3,-.7,2c-.3,.6,-.7,1.2,-1.2,1.8c.5,.1,1,.3,1.3,.5c.4,.3,.7,.5,1,.8c.5,.4,.9,.9,1.4,1.4c.5,.5,.9,1,1.3,1.5l-1.4,1.4c-.2,-.3,-.4,-.5,-.7,-.7c-.2,-.3,-.4,-.5,-.6,-.8c-.2,-.2,-.4,-.4,-.7,-.7c-.2,-.2,-.4,-.5,-.7,-.7c-.3,-.3,-.6,-.5,-.9,-.7c-.4,-.2,-.8,-.4,-1.3,-.5c-.8,.8,-1.9,1.7,-3,2.4c-1.2,.8,-2.4,1.5,-3.8,2.1l-.9,-1.9c2.3,-.9,4.1,-2.1,5.4,-3.3c1.4,-1.2,2.4,-2.6,3.1,-4.2c.1,-.2,.1,-.4,0,-.6c-.1,-.1,-.2,-.2,-.5,-.2h-7.2v-1.7Z" class="g1_197"/>
<image clip-path="url(#c1_197)" preserveAspectRatio="none" x="602" y="305" width="234" height="164" xlink:href="img/2.jpg"/>
<image clip-path="url(#c2_197)" preserveAspectRatio="none" x="185" y="531" width="234" height="164" xlink:href="img/3.jpg"/>
<image clip-path="url(#c3_197)" preserveAspectRatio="none" x="602" y="773" width="233" height="164" xlink:href="img/4.jpg"/>
<image clip-path="url(#c4_197)" preserveAspectRatio="none" x="186" y="999" width="233" height="165" xlink:href="img/5.jpg"/>
<path d="M153.3,126.3v22.2L165,158.7V136.5Z" class="g2_197"/>
<path d="M153.3,109.5v39H851.1c0,0,16.8,0,16.8,-16.8v-5.4c0,0,0,-16.8,-16.8,-16.8Z" class="g3_197"/>
<path d="M207.2,115.7c0,-9.1,-7.9,-16.6,-17.7,-16.6c-9.8,0,-17.7,7.5,-17.7,16.6c0,2.7,.6,5.2,1.8,7.4c1.2,2.4,2.9,4.6,5,6.2c1.2,1,1.6,1.7,1.7,4.3v.6c0,3.3,2.7,5.9,5.9,5.9h6.6c3.2,0,5.8,-2.6,5.8,-5.9v-.6c.2,-2.6,.6,-3.3,1.8,-4.3c2.1,-1.6,3.8,-3.8,5,-6.2c1.2,-2.2,1.8,-4.7,1.8,-7.4Z" class="g4_197"/>
<path d="M207.2,115.7c0,-9.1,-7.9,-16.6,-17.7,-16.6c-9.8,0,-17.7,7.5,-17.7,16.6c0,2.7,.6,5.2,1.8,7.4c1.2,2.4,2.9,4.6,5,6.2c1.2,1,1.6,1.7,1.7,4.3v.6c0,3.3,2.7,5.9,5.9,5.9h6.6c3.2,0,5.8,-2.6,5.8,-5.9v-.6c.2,-2.6,.6,-3.3,1.8,-4.3c2.1,-1.6,3.8,-3.8,5,-6.2c1.2,-2.2,1.8,-4.7,1.8,-7.4Z" class="g5_197"/>
<path d="M194.6,147.4c0,2.8,-2.3,5.1,-5.1,5.1c-2.8,0,-5.1,-2.3,-5.1,-5.1c0,-2.8,2.3,-5.1,5.1,-5.1c2.8,0,5.1,2.3,5.1,5.1Z" class="g0_197"/>
<path d="M194.6,147.4c0,2.8,-2.3,5.1,-5.1,5.1c-2.8,0,-5.1,-2.3,-5.1,-5.1c0,-2.8,2.3,-5.1,5.1,-5.1c2.8,0,5.1,2.3,5.1,5.1Z" class="g5_197"/>
<path d="M182.1,140.2c0,1,.8,1.8,1.8,1.8h11.2c1,0,1.8,-.8,1.8,-1.8v-1.3H182.1Z" class="g0_197"/>
<path d="M182.1,140.2c0,1,.8,1.8,1.8,1.8h11.2c1,0,1.8,-.8,1.8,-1.8v-1.3H182.1v1.3Z" class="g5_197"/>
<path d="M196.9,143.2c0,.8,-.6,1.3,-1.3,1.3H183.4c-.8,0,-1.3,-.5,-1.3,-1.3c0,-.7,.5,-1.3,1.3,-1.3h12.2c.7,0,1.3,.6,1.3,1.3Z" class="g0_197"/>
<path d="M196.9,143.2c0,.8,-.6,1.3,-1.3,1.3H183.4c-.8,0,-1.3,-.5,-1.3,-1.3c0,-.7,.5,-1.3,1.3,-1.3h12.2c.7,0,1.3,.6,1.3,1.3Z" class="g5_197"/>
<path d="M196.9,145.8c0,.7,-.6,1.3,-1.3,1.3H183.4c-.8,0,-1.3,-.6,-1.3,-1.3c0,-.7,.5,-1.3,1.3,-1.3h12.2c.7,0,1.3,.6,1.3,1.3Z" class="g0_197"/>
<path d="M196.9,145.8c0,.7,-.6,1.3,-1.3,1.3H183.4c-.8,0,-1.3,-.6,-1.3,-1.3c0,-.7,.5,-1.3,1.3,-1.3h12.2c.7,0,1.3,.6,1.3,1.3Z" class="g5_197"/>
<path d="M215.5,128.7l8.3,10.4c.6,.7,1.8,.6,2.7,-.2c.9,-.7,1.2,-1.9,.7,-2.6l-8.9,-10.2Z" class="g6_197"/>
<path d="M215.5,128.7l8.3,10.4c.6,.7,1.8,.6,2.7,-.2c.9,-.7,1.2,-1.9,.7,-2.6l-8.9,-10.2l-2.8,2.6Z" class="g5_197"/>
<path d="M217.5,125.1c.5,.6,.3,1.8,-.7,2.6c-.9,.7,-2.1,.8,-2.6,.2c-.6,-.7,-.3,-1.9,.6,-2.6c.9,-.8,2.1,-.9,2.7,-.2Z" class="g7_197"/>
<path d="M217.5,125.1c.5,.6,.3,1.8,-.7,2.6c-.9,.7,-2.1,.8,-2.6,.2c-.6,-.7,-.3,-1.9,.6,-2.6c.9,-.8,2.1,-.9,2.7,-.2Z" class="g5_197"/>
<path d="M212.7,124.7l1.7,2c.3,.3,1,.3,1.5,-.1c.5,-.5,.7,-1.1,.4,-1.5l-1.7,-2Z" class="g0_197"/>
<path d="M212.7,124.7l1.7,2c.3,.3,1,.3,1.5,-.1c.5,-.5,.7,-1.1,.4,-1.5l-1.7,-2l-1.9,1.6Z" class="g8_197"/>
<path d="M214.8,122.9c.4,.5,.2,1.3,-.5,1.8c-.6,.5,-1.4,.6,-1.8,.1c-.4,-.4,-.2,-1.2,.5,-1.7c.6,-.6,1.4,-.6,1.8,-.2Z" class="g0_197"/>
<path d="M214.8,122.9c.4,.5,.2,1.3,-.5,1.8c-.6,.5,-1.4,.6,-1.8,.1c-.4,-.4,-.2,-1.2,.5,-1.7c.6,-.6,1.4,-.6,1.8,-.2Z" class="g8_197"/>
<path d="M216.4,105.4c4.8,5.7,4.1,14.2,-1.7,19c-5.7,4.8,-14.2,4,-19,-1.7c-4.8,-5.7,-4,-14.2,1.7,-19c5.7,-4.8,14.2,-4.1,19,1.7Z" class="g0_197"/>
<path d="M216.4,105.4c4.8,5.7,4.1,14.2,-1.7,19c-5.7,4.8,-14.2,4,-19,-1.7c-4.8,-5.7,-4,-14.2,1.7,-19c5.7,-4.8,14.2,-4.1,19,1.7Z" class="g5_197"/>
<path d="M214,107.4c3.5,4.2,3,10.5,-1.3,14.1c-4.2,3.5,-10.5,2.9,-14,-1.3c-3.5,-4.2,-3,-10.5,1.2,-14c4.2,-3.6,10.5,-3,14.1,1.2Z" class="g9_197"/>
<path d="M214,107.4c3.5,4.2,3,10.5,-1.3,14.1c-4.2,3.5,-10.5,2.9,-14,-1.3c-3.5,-4.2,-3,-10.5,1.2,-14c4.2,-3.6,10.5,-3,14.1,1.2Z" class="g5_197"/>
<path d="M213,110.6l-3.1,3m3.1,-.4l-3.1,3" class="ga_197"/>
<path d="M172.1,99l3.1,3.3m1.1,-5.9l1.2,3.9m-8.1,3l3.7,1.2" class="gb_197"/>
<path d="M185.8,106.1c1.2,1.2,.2,4.3,-2.2,6.7c-2.5,2.5,-5.5,3.5,-6.8,2.3c-1.2,-1.3,-.3,-4.3,2.2,-6.8c2.5,-2.5,5.5,-3.5,6.8,-2.2Z" class="g0_197"/>
<path d="M203.7,107.6c.6,.6,.1,1.9,-.9,3c-1.1,1,-2.4,1.5,-3,.9c-.5,-.5,-.1,-1.8,1,-2.9c1.1,-1.1,2.4,-1.5,2.9,-1Z" class="g0_197"/>
<path d="M32.1,45.1H9.2m958.3,0h22.9M32.1,1331.3H9.2m958.3,0h22.9M45.1,32.1V9.2m0,1335.1v22.9M954.5,32.1V9.2m0,1335.1v22.9" class="gc_197"/>
<path d="M32.1,45.1H9.2m958.3,0h22.9M32.1,1331.3H9.2m958.3,0h22.9M45.1,32.1V9.2m0,1335.1v22.9M954.5,32.1V9.2m0,1335.1v22.9" class="gd_197"/>
<path d="M27.5,32.1H0m972.1,0h27.5M27.5,1344.3H0m972.1,0h27.5M32.1,27.5V0m0,1348.9v27.5M967.5,27.5V0m0,1348.9v27.5" class="gc_197"/>
<path d="M27.5,32.1H0m972.1,0h27.5M27.5,1344.3H0m972.1,0h27.5M32.1,27.5V0m0,1348.9v27.5M967.5,27.5V0m0,1348.9v27.5" class="gd_197"/>
</svg>