<?xml version="1.0" encoding="UTF-8" standalone="no"?>
<!DOCTYPE svg PUBLIC "-//W3C//DTD SVG 1.1//EN"
"http://www.w3.org/Graphics/SVG/1.1/DTD/svg11.dtd">
<svg viewBox="0 0 999 1376" version="1.1" xmlns="http://www.w3.org/2000/svg" xmlns:xlink="http://www.w3.org/1999/xlink">
<defs>
<clipPath id="c0_291"><path d="M32.1,1344.3V32.1H967.5V1344.3Z"/></clipPath>
<clipPath id="c1_291"><path d="M198.7,199.5l-6.5,-2.1l-16.4,-14v-57h72v73.1Z"/></clipPath>
<clipPath id="c2_291"><path d="M210.8,398V313.4h84.6V398Z"/></clipPath>
<clipPath id="c3_291"><path d="M359.8,401.5V308.3H444v93.2Z"/></clipPath>
<clipPath id="c4_291"><path d="M508,398.6V313h74.8v85.6Z"/></clipPath>
<clipPath id="c5_291"><path d="M650.1,398.6V313h83.2v85.6Z"/></clipPath>
<clipPath id="c6_291"><path d="M248.3,695V629.3h76.4V695Z"/></clipPath>
<clipPath id="c7_291"><path d="M247.7,793.5V719h74.5v74.5Z"/></clipPath>
<clipPath id="c8_291"><path d="M247.5,876.8V819.5h74.9v57.3Z"/></clipPath>
<clipPath id="c9_291"><path d="M250.8,981.9V902.8h71.5v79.1Z"/></clipPath>
<clipPath id="ca_291"><path d="M247.5,988.3v-3h74.9v3Z"/></clipPath>
<clipPath id="cb_291"><path d="M247.5,1069.3v-56.5h74.9v56.5Z"/></clipPath>
<style type="text/css"><![CDATA[
.g0_291{
fill: #FEFCF4;
}
.g1_291{
fill: #FCE8B0;
}
.g2_291{
fill: #FFF;
}
.g3_291{
fill: none;
stroke: #6381B7;
stroke-width: 0.763;
}
.g4_291{
fill: none;
stroke: #231F20;
stroke-width: 0.611;
}
.g5_291{
fill: #48484A;
}
.g6_291{
fill: #F0E8F3;
}
.g7_291{
fill: #766FA6;
}
.g8_291{
fill: #93BEDA;
}
.g9_291{
fill: #6381B7;
}
.ga_291{
fill: none;
stroke: #6381B7;
stroke-width: 0.381;
stroke-dasharray: 2,1;
}
.gb_291{
fill: none;
stroke: #6381B7;
stroke-width: 0.381;
}
.gc_291{
fill: none;
stroke: #FFF;
stroke-width: 1.909;
stroke-miterlimit: 10;
}
.gd_291{
fill: none;
stroke: #000;
stroke-width: 0.381;
stroke-miterlimit: 10;
}
]]></style>
</defs>
<path clip-path="url(#c0_291)" d="M-877.3,1343.2H45.1V32.1H-877.3V1343.2Z" class="g0_291"/>
<path d="M231.3,154.5c0,0,-13,0,-13,13v21.6c0,0,0,13,13,13H854.9c0,0,13,0,13,-13V167.5c0,0,0,-13,-13,-13Z" class="g1_291"/>
<image clip-path="url(#c1_291)" preserveAspectRatio="none" x="174" y="125" width="75" height="76" xlink:href="img/1.png"/>
<path d="M226.1,194.8c0,0,-26.9,11.3,-51.1,-12.8c0,0,15.1,25.3,49.3,24c0,0,24.7,.3,20.2,-10.1c0,0,1.3,-4.5,-18.4,-1.1Z" class="g1_291"/>
<path d="M166.5,216.3c0,0,-13,0,-13,13v848.3c0,0,0,13,13,13h688c0,0,13,0,13,-13V229.3c0,0,0,-13,-13,-13Z" class="g2_291"/>
<path d="M166.5,216.3c0,0,-13,0,-13,13v848.3c0,0,0,13,13,13h688c0,0,13,0,13,-13V229.3c0,0,0,-13,-13,-13h-688Z" class="g3_291"/>
<image clip-path="url(#c2_291)" preserveAspectRatio="none" x="211" y="313" width="84" height="85" xlink:href="img/2.jpg"/>
<path d="M209.4,451.9H301v-31H209.4v31Z" class="g2_291"/>
<path d="M209.4,451.9H301v-31H209.4v31Z" class="g4_291"/>
<image clip-path="url(#c3_291)" preserveAspectRatio="none" x="359" y="308" width="86" height="95" xlink:href="img/3.jpg"/>
<path d="M355.3,451.9h91.6v-31H355.3v31Z" class="g2_291"/>
<path d="M355.3,451.9h91.6v-31H355.3v31Z" class="g4_291"/>
<image clip-path="url(#c4_291)" preserveAspectRatio="none" x="503" y="313" width="85" height="85" xlink:href="img/4.jpg"/>
<path d="M499.6,451.9h91.6v-31H499.6v31Z" class="g2_291"/>
<path d="M499.6,451.9h91.6v-31H499.6v31Z" class="g4_291"/>
<image clip-path="url(#c5_291)" preserveAspectRatio="none" x="651" y="313" width="84" height="85" xlink:href="img/5.jpg"/>
<path d="M643.9,451.9h91.6v-31H643.9v31Z" class="g2_291"/>
<path d="M643.9,451.9h91.6v-31H643.9v31Z" class="g4_291"/>
<path d="M211.8,492c0,0,-4.3,0,-4.3,4.4v14.3c0,0,0,4.4,4.1,5.8L264,534.7c0,0,4.1,1.5,4.1,-2.9V496.4c0,0,0,-4.4,-4.3,-4.4Z" class="g5_291"/>
<path d="M233,479.2c0,0,-13,0,-13,13v34.7c0,0,0,13,13,13H722.8c0,0,13,0,13,-13V492.2c0,0,0,-13,-13,-13Z" class="g6_291"/>
<path d="M211.8,489.9c0,0,-4.3,0,-4.3,4.3v16.9c0,0,0,4.4,4.3,4.4h37.3c0,0,4.3,0,4.3,-4.4V494.2c0,0,0,-4.3,-4.3,-4.3Z" class="g7_291"/>
<image clip-path="url(#c6_291)" preserveAspectRatio="none" x="247" y="621" width="78" height="76" xlink:href="img/6.jpg"/>
<path d="M333.1,664.4c2,0,3.6,-1.6,3.6,-3.6c0,-2,-1.6,-3.7,-3.6,-3.7c-2,0,-3.6,1.7,-3.6,3.7c0,2,1.6,3.6,3.6,3.6Z" class="g8_291"/>
<path d="M589.3,664.4c2,0,3.6,-1.6,3.6,-3.6c0,-2,-1.6,-3.7,-3.6,-3.7c-2,0,-3.6,1.7,-3.6,3.7c0,2,1.6,3.6,3.6,3.6Z" class="g8_291"/>
<path d="M632.6,644.6c0,0,-13,0,-13,13v6.5c0,0,0,13,13,13H743c0,0,13,0,13,-13v-6.5c0,0,0,-13,-13,-13Z" class="g6_291"/>
<image clip-path="url(#c7_291)" preserveAspectRatio="none" x="248" y="719" width="74" height="75" xlink:href="img/7.jpg"/>
<path d="M333.1,759c2,0,3.6,-1.6,3.6,-3.6c0,-2,-1.6,-3.6,-3.6,-3.6c-2,0,-3.6,1.6,-3.6,3.6c0,2,1.6,3.6,3.6,3.6Z" class="g8_291"/>
<path d="M589.3,759c2,0,3.6,-1.6,3.6,-3.6c0,-2,-1.6,-3.6,-3.6,-3.6c-2,0,-3.6,1.6,-3.6,3.6c0,2,1.6,3.6,3.6,3.6Z" class="g8_291"/>
<path d="M632.6,740.1c0,0,-13,0,-13,13v6.5c0,0,0,13,13,13H743c0,0,13,0,13,-13v-6.5c0,0,0,-13,-13,-13Z" class="g6_291"/>
<image clip-path="url(#c8_291)" preserveAspectRatio="none" x="248" y="814" width="74" height="75" xlink:href="img/8.jpg"/>
<path d="M333.1,853.7c2,0,3.6,-1.6,3.6,-3.6c0,-2,-1.6,-3.6,-3.6,-3.6c-2,0,-3.6,1.6,-3.6,3.6c0,2,1.6,3.6,3.6,3.6Z" class="g8_291"/>
<path d="M589.3,853.7c2,0,3.6,-1.6,3.6,-3.6c0,-2,-1.6,-3.6,-3.6,-3.6c-2,0,-3.6,1.6,-3.6,3.6c0,2,1.6,3.6,3.6,3.6Z" class="g8_291"/>
<path d="M632.6,835.7c0,0,-13,0,-13,13v6.5c0,0,0,12.9,13,12.9H743c0,0,13,0,13,-12.9v-6.5c0,0,0,-13,-13,-13Z" class="g6_291"/>
<image clip-path="url(#c9_291)" preserveAspectRatio="none" x="250" y="903" width="74" height="80" xlink:href="img/9.jpg"/>
<image clip-path="url(#ca_291)" preserveAspectRatio="none" x="248" y="985" width="74" height="75" xlink:href="img/10.jpg"/>
<path d="M333.1,941.9c2,0,3.6,-1.6,3.6,-3.6c0,-2,-1.6,-3.6,-3.6,-3.6c-2,0,-3.6,1.6,-3.6,3.6c0,2,1.6,3.6,3.6,3.6Z" class="g8_291"/>
<path d="M589.3,941.9c2,0,3.6,-1.6,3.6,-3.6c0,-2,-1.6,-3.6,-3.6,-3.6c-2,0,-3.6,1.6,-3.6,3.6c0,2,1.6,3.6,3.6,3.6Z" class="g8_291"/>
<path d="M632.6,924.7c0,0,-13,0,-13,13v6.5c0,0,0,13,13,13H743c0,0,13,0,13,-13v-6.5c0,0,0,-13,-13,-13Z" class="g6_291"/>
<image clip-path="url(#cb_291)" preserveAspectRatio="none" x="248" y="1006" width="74" height="75" xlink:href="img/11.jpg"/>
<path d="M333.1,1047.4c2,0,3.6,-1.6,3.6,-3.6c0,-2,-1.6,-3.6,-3.6,-3.6c-2,0,-3.6,1.6,-3.6,3.6c0,2,1.6,3.6,3.6,3.6Z" class="g8_291"/>
<path d="M589.3,1047.4c2,0,3.6,-1.6,3.6,-3.6c0,-2,-1.6,-3.6,-3.6,-3.6c-2,0,-3.6,1.6,-3.6,3.6c0,2,1.6,3.6,3.6,3.6Z" class="g8_291"/>
<path d="M628.3,1028.9c0,0,-8.7,0,-8.7,8.7v15.1c0,0,0,8.7,8.7,8.7H747.4c0,0,8.6,0,8.6,-8.7v-15.1c0,0,0,-8.7,-8.6,-8.7Z" class="g6_291"/>
<path d="M510.9,1115.1c0,0,-4.3,0,-4.3,4.4v10.8c0,0,0,4.3,4.3,4.3h30.4c0,0,4.3,0,4.3,-4.3v-10.8c0,0,0,-4.4,-4.3,-4.4Z" class="g9_291"/>
<path d="M497.8,1107.6v76.3m1.3,1H866.8m.9,-1.4v-76.3m-1.3,-.9H498.7" class="ga_291"/>
<path d="M497.8,1184.3v.6h.5m368.9,0h.5v-.6m0,-77.4v-.6h-.5m-368.9,0h-.5v.6" class="gb_291"/>
<path d="M32.1,45.1H9.2m958.3,0h22.9M32.1,1331.3H9.2m958.3,0h22.9M45.1,32.1V9.2m0,1335.1v22.9M954.5,32.1V9.2m0,1335.1v22.9" class="gc_291"/>
<path d="M32.1,45.1H9.2m958.3,0h22.9M32.1,1331.3H9.2m958.3,0h22.9M45.1,32.1V9.2m0,1335.1v22.9M954.5,32.1V9.2m0,1335.1v22.9" class="gd_291"/>
<path d="M27.5,32.1H0m972.1,0h27.5M27.5,1344.3H0m972.1,0h27.5M32.1,27.5V0m0,1348.9v27.5M967.5,27.5V0m0,1348.9v27.5" class="gc_291"/>
<path d="M27.5,32.1H0m972.1,0h27.5M27.5,1344.3H0m972.1,0h27.5M32.1,27.5V0m0,1348.9v27.5M967.5,27.5V0m0,1348.9v27.5" class="gd_291"/>
</svg>