<?xml version="1.0" encoding="UTF-8" standalone="no"?>
<!DOCTYPE svg PUBLIC "-//W3C//DTD SVG 1.1//EN"
"http://www.w3.org/Graphics/SVG/1.1/DTD/svg11.dtd">
<svg viewBox="0 0 999 1376" version="1.1" xmlns="http://www.w3.org/2000/svg" xmlns:xlink="http://www.w3.org/1999/xlink">
<defs>
<clipPath id="c0_206"><path d="M187.3,345.9V255.3H299.5v90.6Z"/></clipPath>
<clipPath id="c1_206"><path d="M312.1,345.9V255.3H424.3v90.6Z"/></clipPath>
<clipPath id="c2_206"><path d="M436.9,345.9V255.3H549.1v90.6Z"/></clipPath>
<clipPath id="c3_206"><path d="M561.6,345.7V255.5H673.8v90.2Z"/></clipPath>
<clipPath id="c4_206"><path d="M686.4,345.9V255.3H798.6v90.6Z"/></clipPath>
<clipPath id="c5_206"><path d="M187.3,490.6V400H299.5v90.6Z"/></clipPath>
<clipPath id="c6_206"><path d="M312.1,490.6V400H424.3v90.6Z"/></clipPath>
<clipPath id="c7_206"><path d="M436.9,490.6V400H549.1v90.6Z"/></clipPath>
<clipPath id="c8_206"><path d="M561.6,490.6V400H673.8v90.6Z"/></clipPath>
<clipPath id="c9_206"><path d="M686.4,490.5V400.1H798.6v90.4Z"/></clipPath>
<clipPath id="ca_206"><path d="M187.3,634.5V545.7H299.5v88.8Z"/></clipPath>
<clipPath id="cb_206"><path d="M312.1,635.4V544.8H424.3v90.6Z"/></clipPath>
<clipPath id="cc_206"><path d="M436.9,635.4V544.8H549.1v90.6Z"/></clipPath>
<clipPath id="cd_206"><path d="M561.6,635.4V544.8H673.8v90.6Z"/></clipPath>
<clipPath id="ce_206"><path d="M686.4,635.4V544.8H798.6v90.6Z"/></clipPath>
<clipPath id="cf_206"><path d="M187.3,795.4V704.8H299.5v90.6Z"/></clipPath>
<clipPath id="cg_206"><path d="M312.1,795.4V704.8H424.3v90.6Z"/></clipPath>
<clipPath id="ch_206"><path d="M713,1070V995.5h75.8V1070Z"/></clipPath>
<clipPath id="ci_206"><path d="M586.1,1069.6V995.5h75.8v74.1Z"/></clipPath>
<clipPath id="cj_206"><path d="M457.1,1071.3V996.8h75.7v74.5Z"/></clipPath>
<clipPath id="ck_206"><path d="M328,1071.3V996.8h75.8v74.5Z"/></clipPath>
<clipPath id="cl_206"><path d="M195.4,1070v-62.1h73.7V1070Z"/></clipPath>
<clipPath id="cm_206"><path d="M177,233l-6.5,-2.1l-16.4,-14V159.8h72V233Z"/></clipPath>
<clipPath id="cn_206"><path d="M177.5,930.2L171,928.1L154.6,914.2V857.1h72v73.1Z"/></clipPath>
<style type="text/css"><![CDATA[
.g0_206{
fill: #FEFCF4;
}
.g1_206{
fill: #FFF;
}
.g2_206{
fill: none;
stroke: #6381B7;
stroke-width: 0.763;
}
.g3_206{
fill: none;
stroke: #949698;
stroke-width: 0.381;
}
.g4_206{
fill: #93BEDA;
}
.g5_206{
fill: #EFE9CC;
}
.g6_206{
fill: #6381B7;
}
.g7_206{
fill: none;
stroke: #6381B7;
stroke-width: 0.381;
stroke-dasharray: 2,1;
}
.g8_206{
fill: none;
stroke: #6381B7;
stroke-width: 0.381;
}
.g9_206{
fill: #FCE8B0;
}
.ga_206{
fill: #25408F;
}
.gb_206{
fill: #00BAF1;
}
.gc_206{
fill: #332D2C;
}
.gd_206{
fill: #D9DFF0;
}
.ge_206{
fill: #F27C85;
}
.gf_206{
fill: #7DD3F6;
}
.gg_206{
fill: none;
stroke: #FFF;
stroke-width: 1.909;
stroke-miterlimit: 10;
}
.gh_206{
fill: none;
stroke: #000;
stroke-width: 0.381;
stroke-miterlimit: 10;
}
]]></style>
</defs>
<path d="M32.1,1344.3H954.5V32.1H32.1V1344.3Z" class="g0_206"/>
<path d="M150.9,132.8c0,0,-18.3,0,-18.3,18.3V830.6c0,0,0,18.3,18.3,18.3H828c0,0,18.4,0,18.4,-18.3V132.8Z" class="g1_206"/>
<path d="M150.9,132.8c0,0,-18.3,0,-18.3,18.3V830.6c0,0,0,18.3,18.3,18.3H828c0,0,18.4,0,18.4,-18.3V132.8H150.9Z" class="g2_206"/>
<path d="M187.3,345.9H299.5V255.3H187.3v90.6Z" class="g1_206"/>
<image clip-path="url(#c0_206)" preserveAspectRatio="none" x="186" y="255" width="114" height="91" xlink:href="img/1.jpg"/>
<path d="M187.3,345.9H299.5V255.3H187.3v90.6Z" class="g3_206"/>
<path d="M312.1,345.9H424.3V255.3H312.1v90.6Z" class="g1_206"/>
<image clip-path="url(#c1_206)" preserveAspectRatio="none" x="311" y="255" width="114" height="91" xlink:href="img/2.jpg"/>
<path d="M312.1,345.9H424.3V255.3H312.1v90.6Z" class="g3_206"/>
<path d="M436.9,345.9H549.1V255.3H436.9v90.6Z" class="g1_206"/>
<image clip-path="url(#c2_206)" preserveAspectRatio="none" x="436" y="255" width="114" height="91" xlink:href="img/3.jpg"/>
<path d="M436.9,345.9H549.1V255.3H436.9v90.6Z" class="g3_206"/>
<path d="M561.6,345.9H673.8V255.3H561.6v90.6Z" class="g1_206"/>
<image clip-path="url(#c3_206)" preserveAspectRatio="none" x="561" y="255" width="113" height="91" xlink:href="img/4.jpg"/>
<path d="M561.6,345.9H673.8V255.3H561.6v90.6Z" class="g3_206"/>
<path d="M686.4,345.9H798.6V255.3H686.4v90.6Z" class="g1_206"/>
<image clip-path="url(#c4_206)" preserveAspectRatio="none" x="686" y="255" width="113" height="91" xlink:href="img/5.jpg"/>
<path d="M686.4,345.9H798.6V255.3H686.4v90.6Z" class="g3_206"/>
<path d="M187.3,490.6H299.5V400H187.3v90.6Z" class="g1_206"/>
<image clip-path="url(#c5_206)" preserveAspectRatio="none" x="187" y="400" width="113" height="91" xlink:href="img/6.jpg"/>
<path d="M187.3,490.6H299.5V400H187.3v90.6Z" class="g3_206"/>
<path d="M312.1,490.6H424.3V400H312.1v90.6Z" class="g1_206"/>
<image clip-path="url(#c6_206)" preserveAspectRatio="none" x="312" y="400" width="113" height="91" xlink:href="img/7.jpg"/>
<path d="M312.1,490.6H424.3V400H312.1v90.6Z" class="g3_206"/>
<path d="M436.9,490.6H549.1V400H436.9v90.6Z" class="g1_206"/>
<image clip-path="url(#c7_206)" preserveAspectRatio="none" x="436" y="400" width="114" height="91" xlink:href="img/8.jpg"/>
<path d="M436.9,490.6H549.1V400H436.9v90.6Z" class="g3_206"/>
<path d="M561.6,490.6H673.8V400H561.6v90.6Z" class="g1_206"/>
<image clip-path="url(#c8_206)" preserveAspectRatio="none" x="561" y="400" width="113" height="91" xlink:href="img/9.jpg"/>
<path d="M561.6,490.6H673.8V400H561.6v90.6Z" class="g3_206"/>
<path d="M686.4,490.6H798.6V400H686.4v90.6Z" class="g1_206"/>
<image clip-path="url(#c9_206)" preserveAspectRatio="none" x="686" y="400" width="113" height="91" xlink:href="img/10.jpg"/>
<path d="M686.4,490.6H798.6V400H686.4v90.6Z" class="g3_206"/>
<path d="M187.3,635.4H299.5V544.8H187.3v90.6Z" class="g1_206"/>
<image clip-path="url(#ca_206)" preserveAspectRatio="none" x="187" y="546" width="113" height="88" xlink:href="img/11.jpg"/>
<path d="M187.3,635.4H299.5V544.8H187.3v90.6Z" class="g3_206"/>
<path d="M312.1,635.4H424.3V544.8H312.1v90.6Z" class="g1_206"/>
<image clip-path="url(#cb_206)" preserveAspectRatio="none" x="311" y="544" width="114" height="92" xlink:href="img/12.jpg"/>
<path d="M312.1,635.4H424.3V544.8H312.1v90.6Z" class="g3_206"/>
<path d="M436.9,635.4H549.1V544.8H436.9v90.6Z" class="g1_206"/>
<image clip-path="url(#cc_206)" preserveAspectRatio="none" x="436" y="544" width="114" height="92" xlink:href="img/13.jpg"/>
<path d="M436.9,635.4H549.1V544.8H436.9v90.6Z" class="g3_206"/>
<path d="M561.6,635.4H673.8V544.8H561.6v90.6Z" class="g1_206"/>
<image clip-path="url(#cd_206)" preserveAspectRatio="none" x="561" y="545" width="113" height="91" xlink:href="img/14.jpg"/>
<path d="M561.6,635.4H673.8V544.8H561.6v90.6Z" class="g3_206"/>
<path d="M686.4,635.4H798.6V544.8H686.4v90.6Z" class="g1_206"/>
<image clip-path="url(#ce_206)" preserveAspectRatio="none" x="686" y="545" width="113" height="91" xlink:href="img/15.jpg"/>
<path d="M686.4,635.4H798.6V544.8H686.4v90.6Z" class="g3_206"/>
<path d="M187.3,795.4H299.5V704.8H187.3v90.6Z" class="g1_206"/>
<image clip-path="url(#cf_206)" preserveAspectRatio="none" x="186" y="704" width="115" height="92" xlink:href="img/16.jpg"/>
<path d="M187.3,795.4H299.5V704.8H187.3v90.6Z" class="g3_206"/>
<path d="M312.1,795.4H424.3V704.8H312.1v90.6Z" class="g1_206"/>
<image clip-path="url(#cg_206)" preserveAspectRatio="none" x="311" y="704" width="114" height="92" xlink:href="img/17.jpg"/>
<path d="M312.1,795.4H424.3V704.8H312.1v90.6Z" class="g3_206"/>
<path d="M145.1,945.9c0,0,-13,0,-13,13v227.2c0,0,0,12.9,13,12.9H833.4c0,0,13,0,13,-12.9V958.9c0,0,0,-13,-13,-13Z" class="g1_206"/>
<path d="M145.1,945.9c0,0,-13,0,-13,13v227.2c0,0,0,12.9,13,12.9H833.4c0,0,13,0,13,-12.9V958.9c0,0,0,-13,-13,-13H145.1Z" class="g2_206"/>
<image clip-path="url(#ch_206)" preserveAspectRatio="none" x="713" y="995" width="76" height="75" xlink:href="img/18.jpg"/>
<image clip-path="url(#ci_206)" preserveAspectRatio="none" x="585" y="995" width="78" height="75" xlink:href="img/19.jpg"/>
<image clip-path="url(#cj_206)" preserveAspectRatio="none" x="457" y="997" width="76" height="74" xlink:href="img/20.jpg"/>
<image clip-path="url(#ck_206)" preserveAspectRatio="none" x="328" y="997" width="76" height="74" xlink:href="img/21.jpg"/>
<image clip-path="url(#cl_206)" preserveAspectRatio="none" x="194" y="1008" width="75" height="62" xlink:href="img/22.jpg"/>
<path d="M624.2,1144c2,0,3.6,-1.6,3.6,-3.6c0,-2,-1.6,-3.6,-3.6,-3.6c-2,0,-3.6,1.6,-3.6,3.6c0,2,1.6,3.6,3.6,3.6Z" class="g4_206"/>
<path d="M753.7,1144c2,0,3.6,-1.6,3.6,-3.6c0,-2,-1.6,-3.6,-3.6,-3.6c-2,0,-3.6,1.6,-3.6,3.6c0,2,1.6,3.6,3.6,3.6Z" class="g4_206"/>
<path d="M493.4,1144c2,0,3.7,-1.6,3.7,-3.6c0,-2,-1.7,-3.6,-3.7,-3.6c-1.9,0,-3.6,1.6,-3.6,3.6c0,2,1.7,3.6,3.6,3.6Z" class="g4_206"/>
<path d="M362.7,1144c2,0,3.6,-1.6,3.6,-3.6c0,-2,-1.6,-3.6,-3.6,-3.6c-2,0,-3.6,1.6,-3.6,3.6c0,2,1.6,3.6,3.6,3.6Z" class="g4_206"/>
<path d="M232,1144c2,0,3.6,-1.6,3.6,-3.6c0,-2,-1.6,-3.6,-3.6,-3.6c-2,0,-3.6,1.6,-3.6,3.6c0,2,1.6,3.6,3.6,3.6Z" class="g4_206"/>
<path d="M190.3,1152.9c0,0,-8.7,0,-8.7,8.7v15.1c0,0,0,8.7,8.7,8.7h82.3c0,0,8.6,0,8.6,-8.7v-15.1c0,0,0,-8.7,-8.6,-8.7Z" class="g5_206"/>
<path d="M320.6,1152.9c0,0,-8.7,0,-8.7,8.7v15.1c0,0,0,8.7,8.7,8.7h82.3c0,0,8.6,0,8.6,-8.7v-15.1c0,0,0,-8.7,-8.6,-8.7Z" class="g5_206"/>
<path d="M450.9,1152.9c0,0,-8.7,0,-8.7,8.7v15.1c0,0,0,8.7,8.7,8.7h82.2c0,0,8.7,0,8.7,-8.7v-15.1c0,0,0,-8.7,-8.7,-8.7Z" class="g5_206"/>
<path d="M581.1,1152.9c0,0,-8.6,0,-8.6,8.7v15.1c0,0,0,8.7,8.6,8.7h82.3c0,0,8.7,0,8.7,-8.7v-15.1c0,0,0,-8.7,-8.7,-8.7Z" class="g5_206"/>
<path d="M711.4,1152.9c0,0,-8.6,0,-8.6,8.7v15.1c0,0,0,8.7,8.6,8.7h82.3c0,0,8.7,0,8.7,-8.7v-15.1c0,0,0,-8.7,-8.7,-8.7Z" class="g5_206"/>
<path d="M624.2,1085.6c2,0,3.6,-1.6,3.6,-3.6c0,-2,-1.6,-3.6,-3.6,-3.6c-2,0,-3.6,1.6,-3.6,3.6c0,2,1.6,3.6,3.6,3.6Z" class="g4_206"/>
<path d="M753.7,1085.6c2,0,3.6,-1.6,3.6,-3.6c0,-2,-1.6,-3.6,-3.6,-3.6c-2,0,-3.6,1.6,-3.6,3.6c0,2,1.6,3.6,3.6,3.6Z" class="g4_206"/>
<path d="M493.4,1085.6c2,0,3.7,-1.6,3.7,-3.6c0,-2,-1.7,-3.6,-3.7,-3.6c-1.9,0,-3.6,1.6,-3.6,3.6c0,2,1.7,3.6,3.6,3.6Z" class="g4_206"/>
<path d="M362.7,1085.6c2,0,3.6,-1.6,3.6,-3.6c0,-2,-1.6,-3.6,-3.6,-3.6c-2,0,-3.6,1.6,-3.6,3.6c0,2,1.6,3.6,3.6,3.6Z" class="g4_206"/>
<path d="M232,1085.6c2,0,3.6,-1.6,3.6,-3.6c0,-2,-1.6,-3.6,-3.6,-3.6c-2,0,-3.6,1.6,-3.6,3.6c0,2,1.6,3.6,3.6,3.6Z" class="g4_206"/>
<path d="M605,1217.1c0,0,-4.3,0,-4.3,4.4v10.8c0,0,0,4.3,4.3,4.3h30.3c0,0,4.4,0,4.4,-4.3v-10.8c0,0,0,-4.4,-4.4,-4.4Z" class="g6_206"/>
<path d="M591.8,1209.7v34.8m1.4,1H845.6m1,-1.4v-34.8m-1.4,-1H592.8" class="g7_206"/>
<path d="M591.8,1244.9v.6h.6m253.6,0h.6v-.6m0,-36v-.6H846m-253.6,0h-.6v.6" class="g8_206"/>
<path d="M209.6,188c0,0,-12.9,0,-12.9,13v21.6c0,0,0,13,12.9,13h602c0,0,13,0,13,-13V201c0,0,0,-13,-13,-13Z" class="g9_206"/>
<image clip-path="url(#cm_206)" preserveAspectRatio="none" x="153" y="158" width="75" height="77" xlink:href="img/23.png"/>
<path d="M204.4,228.3c0,0,-26.8,11.3,-51.1,-12.8c0,0,15.2,25.3,49.3,24c0,0,24.8,.3,20.3,-10.2c0,0,1.2,-4.4,-18.5,-1Z" class="g9_206"/>
<path d="M210.1,885.2c0,0,-13,0,-13,13v21.7c0,0,0,13,13,13H833.8c0,0,13,0,13,-13V898.2c0,0,0,-13,-13,-13Z" class="g9_206"/>
<image clip-path="url(#cn_206)" preserveAspectRatio="none" x="153" y="855" width="75" height="77" xlink:href="img/24.png"/>
<path d="M204.9,925.5c0,0,-26.8,11.3,-51.1,-12.8c0,0,15.2,25.4,49.3,24c0,0,24.8,.4,20.3,-10.1c0,0,1.2,-4.5,-18.5,-1.1Z" class="g9_206"/>
<path d="M131.7,126.7v22.2l11.7,10.3V137Z" class="ga_206"/>
<path d="M131.7,109.9v39H829.4c0,0,16.9,0,16.9,-16.8v-5.4c0,0,0,-16.8,-16.9,-16.8Z" class="g6_206"/>
<path d="M189.6,121.3l-6.4,-6.5L162,136l6.4,6.5Z" class="gb_206"/>
<path d="M168.4,143c.2,0,.3,0,.4,-.1L190,121.7c.1,-.1,.2,-.3,.2,-.4c0,-.1,-.1,-.3,-.2,-.4l-6.5,-6.4c-.2,-.2,-.5,-.2,-.7,0l-21.2,21.2c-.1,.1,-.2,.2,-.2,.3c0,.2,.1,.3,.2,.4l6.5,6.5c.1,.1,.2,.1,.3,.1m20.5,-21.7l-20.5,20.5L162.7,136l20.5,-20.4Z" class="gc_206"/>
<path d="M189.6,121.3l-6.4,-6.5l2.1,-2.1l6.5,6.5Z" class="gd_206"/>
<path d="M189.6,121.8c.2,0,.3,0,.4,-.1l2.1,-2.1c.1,-.1,.2,-.3,.2,-.4c0,-.2,-.1,-.3,-.2,-.4l-6.4,-6.5c-.2,-.2,-.6,-.2,-.8,0l-2.1,2.2c-.1,0,-.2,.2,-.2,.3c0,.2,.1,.3,.2,.4l6.5,6.5c.1,.1,.2,.1,.3,.1m1.4,-2.6l-1.4,1.4l-5.7,-5.8l1.4,-1.4Z" class="gc_206"/>
<path d="M195.4,115.6l-6.5,-6.5l-3.6,3.6l6.5,6.5Z" class="ge_206"/>
<path d="M191.8,119.7c.1,0,.2,0,.3,-.1l3.7,-3.7c.2,-.2,.2,-.5,0,-.7l-6.5,-6.5c-.2,-.2,-.6,-.2,-.8,0l-3.6,3.6c-.2,.2,-.2,.6,0,.8l6.5,6.5c.1,.1,.2,.1,.4,.1m2.8,-4.1l-2.8,2.8L186,112.7l2.9,-2.9Z" class="gc_206"/>
<path d="M157.3,147.2L162,136l6.4,6.5Z" class="g1_206"/>
<path d="M157.3,147.7c.1,0,.2,0,.2,-.1L168.6,143c.2,-.1,.3,-.2,.4,-.4c0,-.2,-.1,-.3,-.2,-.5l-6.5,-6.4c-.1,-.2,-.3,-.2,-.5,-.2c-.1,.1,-.3,.2,-.3,.3l-4.7,11.1c0,.2,0,.5,.1,.6c.1,.1,.3,.2,.4,.2m10.2,-5.4l-9.2,3.9l3.8,-9.2Z" class="gc_206"/>
<path d="M157.3,147.2l2.3,-5.4l3.1,3.1Z" class="gc_206"/>
<path d="M157.3,147.7c.1,0,.2,0,.2,-.1l5.4,-2.2c.1,-.1,.3,-.2,.3,-.4c0,-.2,0,-.3,-.1,-.5l-3.2,-3.1c-.1,-.1,-.3,-.2,-.4,-.1c-.2,0,-.4,.1,-.4,.3l-2.3,5.3c0,.2,0,.5,.1,.6c.1,.1,.3,.2,.4,.2m4.5,-3l-3.5,1.5l1.4,-3.5Z" class="gc_206"/>
<path d="M187.9,119.5l-3,-2.9l-21.2,21.2l3,3Z" class="gf_206"/>
<path d="M166.7,141.3c.1,0,.2,-.1,.3,-.2l21.3,-21.2c.1,-.1,.1,-.2,.1,-.4c0,-.1,0,-.2,-.1,-.3l-3,-3c-.2,-.2,-.5,-.2,-.8,0l-21.2,21.2c-.1,.1,-.1,.3,-.1,.4c0,.1,0,.3,.1,.4l3,2.9c.1,.1,.2,.2,.4,.2m20.4,-21.8L166.7,140l-2.2,-2.2l20.4,-20.5Z" class="gc_206"/>
<path d="M32.1,45.1H9.2m958.3,0h22.9M32.1,1331.3H9.2m958.3,0h22.9M45.1,32.1V9.2m0,1335.1v22.9M954.5,32.1V9.2m0,1335.1v22.9" class="gg_206"/>
<path d="M32.1,45.1H9.2m958.3,0h22.9M32.1,1331.3H9.2m958.3,0h22.9M45.1,32.1V9.2m0,1335.1v22.9M954.5,32.1V9.2m0,1335.1v22.9" class="gh_206"/>
<path d="M27.5,32.1H0m972.1,0h27.5M27.5,1344.3H0m972.1,0h27.5M32.1,27.5V0m0,1348.9v27.5M967.5,27.5V0m0,1348.9v27.5" class="gg_206"/>
<path d="M27.5,32.1H0m972.1,0h27.5M27.5,1344.3H0m972.1,0h27.5M32.1,27.5V0m0,1348.9v27.5M967.5,27.5V0m0,1348.9v27.5" class="gh_206"/>
</svg>