<?xml version="1.0" encoding="UTF-8" standalone="no"?>
<!DOCTYPE svg PUBLIC "-//W3C//DTD SVG 1.1//EN"
"http://www.w3.org/Graphics/SVG/1.1/DTD/svg11.dtd">
<svg viewBox="0 0 999 1376" version="1.1" xmlns="http://www.w3.org/2000/svg" xmlns:xlink="http://www.w3.org/1999/xlink">
<defs>
<clipPath id="c0_273"><path d="M32.1,1344.3V32.1H967.5V1344.3Z"/></clipPath>
<clipPath id="c1_273"><path d="M682.7,178.5V60.3H865.1V178.5Z"/></clipPath>
<clipPath id="c2_273"><path d="M215,449.2V327.1H854.2V449.2Z"/></clipPath>
<clipPath id="c3_273"><path d="M215,646.9V524.8H854.2V646.9Z"/></clipPath>
<clipPath id="c4_273"><path d="M215,844.6V722.5H854.2V844.6Z"/></clipPath>
<style type="text/css"><![CDATA[
.g0_273{
fill: #FEFCF4;
}
.g1_273{
fill: #F16865;
}
.g2_273{
fill: #6381B7;
}
.g3_273{
fill: none;
stroke: #6381B7;
stroke-width: 0.381;
stroke-dasharray: 2,1;
}
.g4_273{
fill: none;
stroke: #6381B7;
stroke-width: 0.381;
}
.g5_273{
fill: #FEF8F8;
}
.g6_273{
fill: none;
stroke: #A164A9;
stroke-width: 1.527;
stroke-linecap: round;
stroke-linejoin: round;
stroke-dasharray: 0,5;
}
.g7_273{
fill: none;
stroke: #A164A9;
stroke-width: 1.527;
stroke-linecap: round;
stroke-linejoin: round;
}
.g8_273{
fill: #A164A9;
}
.g9_273{
fill: #FFF;
}
.ga_273{
fill: none;
stroke: #231F20;
stroke-width: 0.305;
stroke-miterlimit: 10;
}
.gb_273{
fill: none;
stroke: #8CC63E;
stroke-width: 1.527;
stroke-linecap: round;
stroke-linejoin: round;
stroke-dasharray: 0,5;
}
.gc_273{
fill: none;
stroke: #8CC63E;
stroke-width: 1.527;
stroke-linecap: round;
stroke-linejoin: round;
}
.gd_273{
fill: #8CC63E;
}
.ge_273{
fill: #6CCFF6;
}
.gf_273{
fill: none;
stroke: #231F20;
stroke-width: 1.375;
stroke-miterlimit: 10;
}
.gg_273{
fill: #485E75;
}
.gh_273{
fill: #EAD646;
}
.gi_273{
fill: none;
stroke: #231F20;
stroke-width: 1.527;
}
.gj_273{
fill: none;
stroke: #FFF;
stroke-width: 1.909;
stroke-miterlimit: 10;
}
.gk_273{
fill: none;
stroke: #000;
stroke-width: 0.381;
stroke-miterlimit: 10;
}
]]></style>
</defs>
<path clip-path="url(#c0_273)" d="M-877.3,1344.3H45.1V32.1H-877.3V1344.3Z" class="g0_273"/>
<path d="M45.1,1344.3H967.5V32.1H45.1V1344.3Z" class="g0_273"/>
<path clip-path="url(#c0_273)" d="M867.9,166.7c0,0,30.3,0,30.3,-30.3v-4.3c0,0,0,-30.3,-30.3,-30.3H-735.4c0,0,-30.4,0,-30.4,30.3v4.3c0,0,0,30.3,30.4,30.3Z" class="g1_273"/>
<path d="M703.7,936.7c0,0,-4.3,0,-4.3,4.4v10.8c0,0,0,4.3,4.3,4.3H734c0,0,4.4,0,4.4,-4.3V941.1c0,0,0,-4.4,-4.4,-4.4Z" class="g2_273"/>
<path d="M690.5,929.3v34.8m1.4,1H866.8m.9,-1.4V928.9m-1.3,-1H691.5" class="g3_273"/>
<path d="M690.5,964.5v.6h.6m176.1,0h.5v-.6m0,-36v-.6h-.5m-176.1,0h-.6v.6" class="g4_273"/>
<image clip-path="url(#c1_273)" preserveAspectRatio="none" x="683" y="60" width="182" height="118" xlink:href="img/1.png"/>
<path d="M154.1,912h713V251h-713V912Z" class="g5_273"/>
<path d="M154.1,255.6V909.7m4.6,2.3H864.9m2.2,-4.5V253.3M862.6,251H156.4" class="g6_273"/>
<path d="M154.1,912v0m713.1,0v0m0,-661v0m-713.1,0v0" class="g7_273"/>
<path d="M153.3,265.3V227c0,0,0,-8.7,8.7,-8.7H859.3c0,0,8.6,0,8.6,8.7v38.9Z" class="g8_273"/>
<image clip-path="url(#c2_273)" preserveAspectRatio="none" x="215" y="328" width="639" height="122" xlink:href="img/2.png"/>
<path d="M218.3,443H848.1V330.4H218.3V443Z" class="g9_273"/>
<path d="M713.1,360.2h75" class="ga_273"/>
<image clip-path="url(#c3_273)" preserveAspectRatio="none" x="215" y="525" width="639" height="123" xlink:href="img/3.png"/>
<path d="M218.3,640.7H848.1V528.1H218.3V640.7Z" class="g9_273"/>
<path d="M399.2,583.9h68.5" class="ga_273"/>
<image clip-path="url(#c4_273)" preserveAspectRatio="none" x="215" y="723" width="639" height="122" xlink:href="img/4.png"/>
<path d="M218.3,838.4H848.1V725.8H218.3V838.4Z" class="g9_273"/>
<path d="M367.6,755.6H487.2" class="ga_273"/>
<path d="M154.1,1243.9h713v-176h-713v176Z" class="g9_273"/>
<path d="M154.1,1072.5v169.1m4.6,2.3H864.9m2.2,-4.6V1070.2m-4.5,-2.3H156.4" class="gb_273"/>
<path d="M154.1,1243.9v0m713.1,0v0m0,-176v0m-713.1,0v0" class="gc_273"/>
<path d="M153.3,1072.5v-28.6c0,0,0,-8.7,8.7,-8.7H859.3c0,0,8.6,0,8.6,8.7V1073Z" class="gd_273"/>
<path d="M187.2,1049v-6.4c0,-4.8,-3.9,-8.7,-8.7,-8.7c-4.8,0,-8.6,3.9,-8.6,8.7v6.4Z" class="ge_273"/>
<path d="M187.2,1049v-6.4c0,-4.8,-3.9,-8.7,-8.7,-8.7c-4.8,0,-8.6,3.9,-8.6,8.7v6.4h17.3Z" class="gf_273"/>
<path d="M169.9,1050.8v5.3c0,4.8,3.8,8.7,8.6,8.7c4.8,0,8.7,-3.9,8.7,-8.7v-5.3Z" class="ge_273"/>
<path d="M169.9,1050.8v5.3c0,4.8,3.8,8.7,8.6,8.7c4.8,0,8.7,-3.9,8.7,-8.7v-5.3H169.9Z" class="gf_273"/>
<path d="M178.4,1069.7c-7.1,0,-13,-6,-13,-13.3h2.4c0,6,4.8,10.9,10.6,10.9c5.8,0,10.6,-4.9,10.6,-10.9h2.4c0,7.3,-5.8,13.3,-13,13.3Z" class="gg_273"/>
<path d="M178.4,1069.7c-7.1,0,-13,-6,-13,-13.3h2.4c0,6,4.8,10.9,10.6,10.9c5.8,0,10.6,-4.9,10.6,-10.9h2.4c0,7.3,-5.8,13.3,-13,13.3Z" class="gf_273"/>
<path d="M177.5,1076.8h2.4v-8h-2.4v8Z" class="gg_273"/>
<path d="M177.5,1076.8h2.4v-8h-2.4v8Z" class="gf_273"/>
<path d="M178.6,1073.2c-3.6,0,-6.6,2.2,-6.7,4.9h13.4c-.1,-2.7,-3.1,-4.9,-6.7,-4.9Z" class="gg_273"/>
<path d="M178.6,1073.2c-3.6,0,-6.6,2.2,-6.7,4.9h13.4c-.1,-2.7,-3.1,-4.9,-6.7,-4.9Z" class="gf_273"/>
<path d="M201.3,1028.7c-6.5,0,-11.9,5.4,-11.9,11.9c0,2.7,.9,5.2,2.4,7.2l-1.5,5.3l5.5,-1.9c1.7,.9,3.5,1.4,5.5,1.4c6.6,0,12,-5.4,12,-12c0,-6.5,-5.4,-11.9,-12,-11.9Z" class="gh_273"/>
<path d="M201.3,1028.7c-6.5,0,-11.9,5.4,-11.9,11.9c0,2.7,.9,5.2,2.4,7.2l-1.5,5.3l5.5,-1.9c1.7,.9,3.5,1.4,5.5,1.4c6.6,0,12,-5.4,12,-12c0,-6.5,-5.4,-11.9,-12,-11.9Z" class="gf_273"/>
<path d="M196.9,1040.5c0,.7,-.7,1.3,-1.4,1.3c-.8,0,-1.4,-.6,-1.4,-1.3c0,-.8,.6,-1.4,1.4,-1.4c.7,0,1.4,.6,1.4,1.4Z" class="g9_273"/>
<path d="M196.9,1040.5c0,.7,-.7,1.3,-1.4,1.3c-.8,0,-1.4,-.6,-1.4,-1.3c0,-.8,.6,-1.4,1.4,-1.4c.7,0,1.4,.6,1.4,1.4Z" class="gf_273"/>
<path d="M203,1040.5c0,.8,-.6,1.4,-1.4,1.4c-.8,0,-1.4,-.6,-1.4,-1.4c0,-.8,.6,-1.4,1.4,-1.4c.8,0,1.4,.6,1.4,1.4Z" class="g9_273"/>
<path d="M203,1040.5c0,.8,-.6,1.4,-1.4,1.4c-.8,0,-1.4,-.6,-1.4,-1.4c0,-.8,.6,-1.4,1.4,-1.4c.8,0,1.4,.6,1.4,1.4Z" class="gf_273"/>
<path d="M209.1,1040.5c0,.8,-.6,1.4,-1.4,1.4c-.8,0,-1.4,-.6,-1.4,-1.4c0,-.8,.6,-1.4,1.4,-1.4c.8,0,1.4,.6,1.4,1.4Z" class="g9_273"/>
<path d="M209.1,1040.5c0,.8,-.6,1.4,-1.4,1.4c-.8,0,-1.4,-.6,-1.4,-1.4c0,-.8,.6,-1.4,1.4,-1.4c.8,0,1.4,.6,1.4,1.4Z" class="gf_273"/>
<path d="M785.7,1054.9c0,0,-.5,-9.9,8.6,-9.3c0,0,6.8,-.4,6.7,9.5m-15.3,-1.6v6.6c0,0,-3.4,.3,-4,-3c0,0,0,-3.8,4,-3.6Zm15.3,0v6.6c0,0,3.4,.3,3.9,-3c0,0,.1,-3.8,-3.9,-3.6Z" class="gi_273"/>
<path d="M32.1,45.1H9.2m958.3,0h22.9M32.1,1331.3H9.2m958.3,0h22.9M45.1,32.1V9.2m0,1335.1v22.9M954.5,32.1V9.2m0,1335.1v22.9" class="gj_273"/>
<path d="M32.1,45.1H9.2m958.3,0h22.9M32.1,1331.3H9.2m958.3,0h22.9M45.1,32.1V9.2m0,1335.1v22.9M954.5,32.1V9.2m0,1335.1v22.9" class="gk_273"/>
<path d="M27.5,32.1H0m972.1,0h27.5M27.5,1344.3H0m972.1,0h27.5M32.1,27.5V0m0,1348.9v27.5M967.5,27.5V0m0,1348.9v27.5" class="gj_273"/>
<path d="M27.5,32.1H0m972.1,0h27.5M27.5,1344.3H0m972.1,0h27.5M32.1,27.5V0m0,1348.9v27.5M967.5,27.5V0m0,1348.9v27.5" class="gk_273"/>
</svg>