<?xml version="1.0" encoding="UTF-8" standalone="no"?>
<!DOCTYPE svg PUBLIC "-//W3C//DTD SVG 1.1//EN"
"http://www.w3.org/Graphics/SVG/1.1/DTD/svg11.dtd">
<svg viewBox="0 0 999 1376" version="1.1" xmlns="http://www.w3.org/2000/svg" xmlns:xlink="http://www.w3.org/1999/xlink">
<defs>
<clipPath id="c0_95"><path d="M32.1,1344.3V32.1H967.5V1344.3Z"/></clipPath>
<clipPath id="c1_95"><path d="M719.2,415.1V328.9h86.2v86.2Z"/></clipPath>
<clipPath id="c2_95"><path d="M719.2,614.4V528.1h86.2v86.3Z"/></clipPath>
<clipPath id="c3_95"><path d="M220.4,1148.5V930.1H643.3v218.4Z"/></clipPath>
<clipPath id="c4_95"><path d="M170.7,1166.7V924.2H736.4v242.5Z"/></clipPath>
<clipPath id="c5_95"><path d="M199.7,315.3l-6.5,-2.2L176.8,299.2V242.1h72v73.2Z"/></clipPath>
<clipPath id="c6_95"><path d="M198.7,813.8l-6.5,-2.1l-16.4,-14V740.6h72v73.2Z"/></clipPath>
<clipPath id="c7_95"><path d="M658.6,177V59h200V177Z"/></clipPath>
<style type="text/css"><![CDATA[
.g0_95{
fill: #FEFCF4;
}
.g1_95{
fill: #FFF;
}
.g2_95{
fill: none;
stroke: #6381B7;
stroke-width: 0.763;
}
.g3_95{
fill: none;
stroke: #949698;
stroke-width: 0.381;
}
.g4_95{
fill: none;
stroke: #231F20;
stroke-width: 1.527;
}
.g5_95{
fill: #6381B7;
}
.g6_95{
fill: none;
stroke: #6381B7;
stroke-width: 0.381;
stroke-dasharray: 2,1;
}
.g7_95{
fill: none;
stroke: #6381B7;
stroke-width: 0.381;
}
.g8_95{
fill: none;
stroke: #949698;
stroke-width: 0.522;
}
.g9_95{
fill: none;
stroke: #231F20;
stroke-width: 0.522;
}
.ga_95{
fill: #231F20;
}
.gb_95{
fill: none;
stroke: #231F20;
stroke-width: 0.611;
}
.gc_95{
fill: #48484A;
}
.gd_95{
fill: #F0E8F3;
}
.ge_95{
fill: #766FA6;
}
.gf_95{
fill: #FCE8B0;
}
.gg_95{
fill: #25408F;
}
.gh_95{
fill: #00BAF1;
}
.gi_95{
fill: #332D2C;
}
.gj_95{
fill: #D9DFF0;
}
.gk_95{
fill: #F27C85;
}
.gl_95{
fill: #7DD3F6;
}
.gm_95{
fill: #2E6E51;
}
.gn_95{
fill: #BCBEC0;
}
.go_95{
fill: #EE314A;
}
.gp_95{
fill: none;
stroke: #FFF;
stroke-width: 1.909;
stroke-miterlimit: 10;
}
.gq_95{
fill: none;
stroke: #000;
stroke-width: 0.381;
stroke-miterlimit: 10;
}
]]></style>
</defs>
<path clip-path="url(#c0_95)" d="M-877.3,1344.3H45.1V32.1H-877.3V1344.3Z" class="g0_95"/>
<path d="M45.1,1344.3H967.5V32.1H45.1V1344.3Z" class="g0_95"/>
<path d="M172.1,220.3c0,0,-18.4,0,-18.4,18.3V711.9c0,0,0,18.3,18.4,18.3H849.2c0,0,18.3,0,18.3,-18.3V220.3Z" class="g1_95"/>
<path d="M172.1,220.3c0,0,-18.4,0,-18.4,18.3V711.9c0,0,0,18.3,18.4,18.3H849.2c0,0,18.3,0,18.3,-18.3V220.3H172.1Z" class="g2_95"/>
<path d="M211.2,415.1H331.7V328.9H211.2v86.2Z" class="g1_95"/>
<image preserveAspectRatio="none" x="228" y="329" width="87" height="86" xlink:href="img/1.jpg"/>
<path d="M211.2,415.1H331.7V328.9H211.2v86.2Z" class="g3_95"/>
<path d="M538.4,415.1H658.9V328.9H538.4v86.2Z" class="g1_95"/>
<image preserveAspectRatio="none" x="556" y="329" width="86" height="86" xlink:href="img/2.jpg"/>
<path d="M538.4,415.1H658.9V328.9H538.4v86.2Z" class="g3_95"/>
<path d="M374.8,415.1H495.3V328.9H374.8v86.2Z" class="g1_95"/>
<image preserveAspectRatio="none" x="392" y="329" width="86" height="86" xlink:href="img/3.jpg"/>
<path d="M374.8,415.1H495.3V328.9H374.8v86.2Z" class="g3_95"/>
<path d="M702,415.1H822.5V328.9H702v86.2Z" class="g1_95"/>
<image clip-path="url(#c1_95)" preserveAspectRatio="none" x="719" y="329" width="86" height="86" xlink:href="img/4.jpg"/>
<path d="M702,415.1H822.5V328.9H702v86.2Z" class="g3_95"/>
<path d="M211.2,614.4H331.7V528.1H211.2v86.3Z" class="g1_95"/>
<image preserveAspectRatio="none" x="228" y="528" width="87" height="86" xlink:href="img/5.jpg"/>
<path d="M211.2,614.4H331.7V528.1H211.2v86.3Z" class="g3_95"/>
<path d="M538.4,614.4H658.9V528.1H538.4v86.3Z" class="g1_95"/>
<image preserveAspectRatio="none" x="556" y="528" width="86" height="86" xlink:href="img/6.jpg"/>
<path d="M538.4,614.4H658.9V528.1H538.4v86.3Z" class="g3_95"/>
<path d="M374.8,614.4H495.3V528.1H374.8v86.3Z" class="g1_95"/>
<image preserveAspectRatio="none" x="386" y="528" width="98" height="86" xlink:href="img/7.jpg"/>
<path d="M374.8,614.4H495.3V528.1H374.8v86.3Z" class="g3_95"/>
<path d="M702,614.4H822.5V528.1H702v86.3Z" class="g1_95"/>
<image clip-path="url(#c2_95)" preserveAspectRatio="none" x="719" y="528" width="86" height="86" xlink:href="img/8.jpg"/>
<path d="M702,614.4H822.5V528.1H702v86.3Z" class="g3_95"/>
<path d="M218.5,478.3c-.3,0,-.6,.2,-.8,.4c-.3,.2,-.4,.5,-.4,.9c0,.3,.1,.6,.4,.8c.2,.3,.5,.4,.8,.4c.4,0,.6,-.1,.9,-.4c.2,-.2,.3,-.5,.3,-.8c0,-.4,-.1,-.7,-.3,-.9c-.3,-.2,-.5,-.4,-.9,-.4Zm0,27.3c-.3,0,-.6,.1,-.8,.4c-.3,.2,-.4,.5,-.4,.8c0,.4,.1,.7,.4,.9c.2,.2,.5,.3,.8,.3c.4,0,.6,-.1,.9,-.3c.2,-.2,.3,-.5,.3,-.9c0,-.3,-.1,-.6,-.3,-.8c-.3,-.3,-.5,-.4,-.9,-.4Zm0,176.5c-.3,0,-.6,.1,-.8,.4c-.3,.2,-.4,.5,-.4,.8c0,.4,.1,.7,.4,.9c.2,.3,.5,.4,.8,.4c.4,0,.6,-.1,.9,-.4c.2,-.2,.3,-.5,.3,-.9c0,-.3,-.1,-.6,-.3,-.8c-.3,-.3,-.5,-.4,-.9,-.4Zm0,22.9c-.3,0,-.6,.2,-.8,.4c-.3,.2,-.4,.5,-.4,.9c0,.3,.1,.6,.4,.8c.2,.3,.5,.4,.8,.4c.4,0,.6,-.1,.9,-.4c.2,-.2,.3,-.5,.3,-.8c0,-.4,-.1,-.7,-.3,-.9c-.3,-.2,-.5,-.4,-.9,-.4Z" class="g4_95"/>
<path d="M166.7,826.3c0,0,-13,0,-13,13v344.8c0,0,0,13,13,13H854.5c0,0,13,0,13,-13V839.3c0,0,0,-13,-13,-13Z" class="g1_95"/>
<path d="M166.7,826.3c0,0,-13,0,-13,13v344.8c0,0,0,13,13,13H854.5c0,0,13,0,13,-13V839.3c0,0,0,-13,-13,-13H166.7Z" class="g2_95"/>
<path d="M521.5,1215.2c0,0,-4.4,0,-4.4,4.3v10.8c0,0,0,4.4,4.4,4.4h30.3c0,0,4.3,0,4.3,-4.4v-10.8c0,0,0,-4.3,-4.3,-4.3Z" class="g5_95"/>
<path d="M508.3,1207.7v34.8m1.3,1H866.4m.9,-1.3v-34.9m-1.3,-1H509.2" class="g6_95"/>
<path d="M508.3,1242.9v.6h.5m358,0h.5v-.6m0,-36v-.6h-.5m-358,0h-.5v.6" class="g7_95"/>
<image clip-path="url(#c3_95)" preserveAspectRatio="none" x="220" y="929" width="423" height="220" xlink:href="img/9.jpg"/>
<path d="M473.8,1066.9H588.2v-32.1H473.8v32.1Z" class="g1_95"/>
<path d="M473.8,1066.9H588.2v-32.1H473.8v32.1Z" class="g8_95"/>
<path d="M585.8,959.5H700.3v-32H585.8v32Z" class="g1_95"/>
<path d="M585.8,959.5H700.3v-32H585.8v32Z" class="g8_95"/>
<path d="M276.5,1062.5H391v-32.1H276.5v32.1Z" class="g1_95"/>
<g clip-path="url(#c4_95)">
<path d="M276.5,1062.5H391v-32.1H276.5v32.1ZM414.5,924H529V891.9H414.5V924Z" class="g8_95"/>
<path d="M235.3,918.3l77.2,72.1" class="g9_95"/>
</g>
<path d="M312.5,991.4c.5,0,1,-.5,1,-1c0,-.6,-.5,-1.1,-1,-1.1c-.6,0,-1.1,.5,-1.1,1.1c0,.5,.5,1,1.1,1Z" class="ga_95"/>
<path clip-path="url(#c4_95)" d="M468.8,923.3L515.7,989" class="g9_95"/>
<path d="M515.7,990.1c.6,0,1.1,-.5,1.1,-1.1c0,-.6,-.5,-1,-1.1,-1c-.5,0,-1,.4,-1,1c0,.6,.5,1.1,1,1.1Z" class="ga_95"/>
<path clip-path="url(#c4_95)" d="M274.8,1167.4l29.5,-57.2" class="g9_95"/>
<path d="M304.3,1111.2c.6,0,1,-.4,1,-1c0,-.6,-.4,-1.1,-1,-1.1c-.6,0,-1,.5,-1,1.1c0,.6,.4,1,1,1Z" class="ga_95"/>
<path d="M260.1,1038.4l16.5,4.5" class="g9_95"/>
<path d="M260.1,1039.4c.6,0,1,-.4,1,-1c0,-.6,-.4,-1.1,-1,-1.1c-.6,0,-1.1,.5,-1.1,1.1c0,.6,.5,1,1.1,1Z" class="ga_95"/>
<path d="M187,930.8H306.8v-34H187v34Z" class="g1_95"/>
<path d="M187,930.8H306.8v-34H187v34Z" class="gb_95"/>
<path d="M418.7,930.8H538.5v-34H418.7v34Z" class="g1_95"/>
<path d="M418.7,930.8H538.5v-34H418.7v34Z" class="gb_95"/>
<path d="M584.1,960.7H703.9v-34H584.1v34Z" class="g1_95"/>
<path d="M584.1,960.7H703.9v-34H584.1v34Z" class="gb_95"/>
<path d="M274.9,1064.7H394.7v-34.1H274.9v34.1Z" class="g1_95"/>
<path d="M274.9,1064.7H394.7v-34.1H274.9v34.1Z" class="gb_95"/>
<path d="M472.4,1067.7H592.2v-34.1H472.4v34.1Z" class="g1_95"/>
<path d="M472.4,1067.7H592.2v-34.1H472.4v34.1Z" class="gb_95"/>
<path d="M225.1,1187.2H344.9v-34H225.1v34Z" class="g1_95"/>
<path d="M225.1,1187.2H344.9v-34H225.1v34Z" class="gb_95"/>
<path d="M744.5,948c0,0,-4.3,0,-4.3,4.4v14.7c0,0,0,4.3,4,5.8l52.5,18.5c0,0,4.1,1.4,4.1,-2.9V952.4c0,0,0,-4.4,-4.3,-4.4Z" class="gc_95"/>
<path d="M765.6,935c0,0,-13,0,-13,13v179.8c0,0,0,12.9,13,12.9h67.1c0,0,13,0,13,-12.9V948c0,0,0,-13,-13,-13Z" class="gd_95"/>
<path d="M744.5,945.9c0,0,-4.3,0,-4.3,4.3v17.3c0,0,0,4.3,4.3,4.3h37.3c0,0,4.3,0,4.3,-4.3V950.2c0,0,0,-4.3,-4.3,-4.3Z" class="ge_95"/>
<path d="M232.3,270.3c0,0,-13,0,-13,13v21.6c0,0,0,13,13,13h602c0,0,13,0,13,-13V283.3c0,0,0,-13,-13,-13Z" class="gf_95"/>
<image clip-path="url(#c5_95)" preserveAspectRatio="none" x="175" y="241" width="75" height="76" xlink:href="img/10.png"/>
<path d="M227.1,310.5c0,0,-26.9,11.3,-51.1,-12.7c0,0,15.1,25.3,49.3,24c0,0,24.7,.3,20.2,-10.2c0,0,1.2,-4.4,-18.4,-1.1Z" class="gf_95"/>
<path d="M231.3,768.8c0,0,-13,0,-13,13v21.6c0,0,0,13,13,13H854.9c0,0,13,0,13,-13V781.8c0,0,0,-13,-13,-13Z" class="gf_95"/>
<image clip-path="url(#c6_95)" preserveAspectRatio="none" x="174" y="739" width="75" height="76" xlink:href="img/11.png"/>
<path d="M226.1,809.1c0,0,-26.9,11.3,-51.1,-12.8c0,0,15.2,25.3,49.3,24c0,0,24.7,.3,20.2,-10.2c0,0,1.3,-4.4,-18.4,-1Z" class="gf_95"/>
<path d="M153.3,213.7v22.2L165,246.2V224Z" class="gg_95"/>
<path d="M153.3,196.9v39H851.1c0,0,16.8,0,16.8,-16.8v-5.4c0,0,0,-16.8,-16.8,-16.8Z" class="g5_95"/>
<path d="M211.3,208.3l-6.5,-6.5L183.6,223l6.5,6.5Z" class="gh_95"/>
<path d="M190.1,230.1c.1,0,.3,-.1,.4,-.2l21.2,-21.2c.1,-.1,.1,-.2,.1,-.4c0,-.1,0,-.3,-.1,-.3l-6.5,-6.5c-.2,-.2,-.6,-.2,-.8,0l-21.2,21.2c-.1,.1,-.1,.2,-.1,.3c0,.2,0,.3,.1,.4l6.5,6.5c.1,.1,.3,.2,.4,.2m20.5,-21.8l-20.5,20.5L184.3,223l20.5,-20.4Z" class="gi_95"/>
<path d="M211.3,208.3l-6.5,-6.5l2.1,-2.1l6.5,6.5Z" class="gj_95"/>
<path d="M211.3,208.8c.1,0,.3,0,.4,-.1l2.1,-2.1c.1,-.1,.2,-.3,.2,-.4c0,-.2,-.1,-.3,-.2,-.4l-6.5,-6.5c-.2,-.2,-.5,-.2,-.7,0l-2.2,2.2c-.1,.1,-.1,.2,-.1,.3c0,.2,0,.3,.1,.4l6.5,6.5c.1,.1,.3,.1,.4,.1m1.4,-2.6l-1.4,1.4l-5.7,-5.8l1.3,-1.4Z" class="gi_95"/>
<path d="M217,202.6l-6.4,-6.5l-3.7,3.6l6.5,6.5Z" class="gk_95"/>
<path d="M213.4,206.7c.2,0,.3,0,.4,-.1l3.6,-3.7c.2,-.2,.2,-.5,0,-.7l-6.5,-6.5c-.2,-.2,-.5,-.2,-.7,0l-3.6,3.6c-.2,.2,-.2,.6,0,.8l6.5,6.5c.1,.1,.2,.1,.3,.1m2.9,-4.1l-2.9,2.8l-5.7,-5.7l2.9,-2.9Z" class="gi_95"/>
<path d="M179,234.2L183.6,223l6.5,6.5Z" class="g1_95"/>
<path d="M179,234.7c0,0,.1,0,.2,-.1L190.3,230c.2,0,.3,-.2,.3,-.4c0,-.1,0,-.3,-.1,-.4L184,222.7c-.1,-.2,-.3,-.2,-.5,-.2c-.2,.1,-.3,.2,-.4,.3L178.5,234c-.1,.2,0,.4,.1,.5c.1,.1,.2,.2,.4,.2m10.2,-5.4l-9.3,3.9l3.9,-9.2Z" class="gi_95"/>
<path d="M179,234.2l2.2,-5.4l3.1,3.1Z" class="gi_95"/>
<path d="M179,234.7c0,0,.1,0,.2,-.1l5.3,-2.2c.2,-.1,.3,-.2,.4,-.4c0,-.1,-.1,-.3,-.2,-.4l-3.1,-3.2c-.1,-.1,-.3,-.2,-.5,-.1c-.2,0,-.3,.1,-.4,.3l-2.2,5.4c-.1,.2,0,.4,.1,.5c.1,.1,.2,.2,.4,.2m4.4,-3l-3.5,1.5l1.5,-3.5Z" class="gi_95"/>
<path d="M209.5,206.6l-2.9,-3l-21.2,21.2l2.9,3Z" class="gl_95"/>
<path d="M188.3,228.3c.2,0,.3,-.1,.4,-.2l21.2,-21.2c.1,-.1,.2,-.2,.2,-.3c0,-.2,-.1,-.3,-.2,-.4l-3,-3c-.2,-.2,-.5,-.2,-.7,0L185,224.4c-.1,.1,-.2,.3,-.2,.4c0,.1,.1,.3,.2,.4l3,2.9c.1,.1,.2,.2,.3,.2m20.5,-21.7L188.3,227l-2.2,-2.2l20.5,-20.5Z" class="gi_95"/>
<path d="M32.1,179.3H967.5V32.1H32.1V179.3Z" class="gm_95"/>
<g clip-path="url(#c0_95)">
<path d="M967.5,177.2H-877.3v-5.4h736.6c43.1,0,53.1,-37.9,115.3,-37.9H967.5Z" class="gn_95"/>
<path d="M967.5,183.7H-877.3v-9.8h736.6c43.1,0,53.1,-33.6,115.3,-33.6H967.5Z" class="go_95"/>
</g>
<image clip-path="url(#c7_95)" preserveAspectRatio="none" x="659" y="59" width="200" height="118" xlink:href="img/12.png"/>
<path d="M32.1,45.1H9.2m958.3,0h22.9M32.1,1331.3H9.2m958.3,0h22.9M45.1,32.1V9.2m0,1335.1v22.9M954.5,32.1V9.2m0,1335.1v22.9" class="gp_95"/>
<path d="M32.1,45.1H9.2m958.3,0h22.9M32.1,1331.3H9.2m958.3,0h22.9M45.1,32.1V9.2m0,1335.1v22.9M954.5,32.1V9.2m0,1335.1v22.9" class="gq_95"/>
<path d="M27.5,32.1H0m972.1,0h27.5M27.5,1344.3H0m972.1,0h27.5M32.1,27.5V0m0,1348.9v27.5M967.5,27.5V0m0,1348.9v27.5" class="gp_95"/>
<path d="M27.5,32.1H0m972.1,0h27.5M27.5,1344.3H0m972.1,0h27.5M32.1,27.5V0m0,1348.9v27.5M967.5,27.5V0m0,1348.9v27.5" class="gq_95"/>
</svg>