<?xml version="1.0" encoding="UTF-8" standalone="no"?>
<!DOCTYPE svg PUBLIC "-//W3C//DTD SVG 1.1//EN"
"http://www.w3.org/Graphics/SVG/1.1/DTD/svg11.dtd">
<svg viewBox="0 0 999 1376" version="1.1" xmlns="http://www.w3.org/2000/svg" xmlns:xlink="http://www.w3.org/1999/xlink">
<defs>
<clipPath id="c0_279"><path d="M32.1,1344.3V32.1H967.5V1344.3Z"/></clipPath>
<clipPath id="c1_279"><path d="M590,744.2V667.9h84.8v76.3Z"/></clipPath>
<clipPath id="c2_279"><path d="M582.2,650.6V574.4H682.6v76.2Z"/></clipPath>
<clipPath id="c3_279"><path d="M583.1,839V762.7h93V839Z"/></clipPath>
<clipPath id="c4_279"><path d="M582.2,933.8V857.5H682.6v76.3Z"/></clipPath>
<style type="text/css"><![CDATA[
.g0_279{
fill: #FEFCF4;
}
.g1_279{
fill: #FFF;
}
.g2_279{
fill: none;
stroke: #6381B7;
stroke-width: 0.763;
}
.g3_279{
fill: #F0E8F3;
}
.g4_279{
fill: none;
stroke: #231F20;
stroke-width: 0.458;
stroke-miterlimit: 10;
}
.g5_279{
fill: #93BEDA;
}
.g6_279{
fill: #EFE9CC;
}
.g7_279{
fill: #6381B7;
}
.g8_279{
fill: none;
stroke: #6381B7;
stroke-width: 0.381;
stroke-dasharray: 2,1;
}
.g9_279{
fill: none;
stroke: #6381B7;
stroke-width: 0.381;
}
.ga_279{
fill: #F3F8FC;
}
.gb_279{
fill: none;
stroke: #8BBEE7;
stroke-width: 1.527;
stroke-linecap: round;
stroke-linejoin: round;
stroke-dasharray: 0,5;
}
.gc_279{
fill: none;
stroke: #8BBEE7;
stroke-width: 1.527;
stroke-linecap: round;
stroke-linejoin: round;
}
.gd_279{
fill: #7CA7D8;
}
.ge_279{
fill: #BFD62F;
}
.gf_279{
fill: #3D3B39;
}
.gg_279{
fill: #F5CA58;
}
.gh_279{
fill: none;
stroke: #FFF;
stroke-width: 1.909;
stroke-miterlimit: 10;
}
.gi_279{
fill: none;
stroke: #000;
stroke-width: 0.381;
stroke-miterlimit: 10;
}
]]></style>
</defs>
<path clip-path="url(#c0_279)" d="M-877.3,1343.2H45.1V32.1H-877.3V1343.2Z" class="g0_279"/>
<path d="M166.5,153.7c0,0,-13,0,-13,13V957.2c0,0,0,13,13,13h688c0,0,13,0,13,-13V166.7c0,0,0,-13,-13,-13Z" class="g1_279"/>
<path d="M166.5,153.7c0,0,-13,0,-13,13V957.2c0,0,0,13,13,13h688c0,0,13,0,13,-13V166.7c0,0,0,-13,-13,-13h-688Z" class="g2_279"/>
<path d="M420,538.9H652.1V524.5H420v14.4Z" class="g1_279"/>
<path d="M240.4,179.6c0,0,-13,0,-13,13v77.9c0,0,0,13,13,13h563c0,0,13,0,13,-13V192.6c0,0,0,-13,-13,-13Z" class="g3_279"/>
<path d="M495,204.2h98.8" class="g4_279"/>
<path d="M240.4,347.6c0,0,-13,0,-13,13v60.6c0,0,0,13,13,13h563c0,0,13,0,13,-13V360.6c0,0,0,-13,-13,-13Z" class="g3_279"/>
<path d="M305.4,401.5h98.8" class="g4_279"/>
<path d="M365.4,611.4c2,0,3.6,-1.6,3.6,-3.6c0,-2,-1.6,-3.6,-3.6,-3.6c-2,0,-3.6,1.6,-3.6,3.6c0,2,1.6,3.6,3.6,3.6Z" class="g5_279"/>
<path d="M365.4,707.1c2,0,3.6,-1.6,3.6,-3.6c0,-2,-1.6,-3.6,-3.6,-3.6c-2,0,-3.6,1.6,-3.6,3.6c0,2,1.6,3.6,3.6,3.6Z" class="g5_279"/>
<path d="M365.4,802.8c2,0,3.6,-1.6,3.6,-3.6c0,-2,-1.6,-3.6,-3.6,-3.6c-2,0,-3.6,1.6,-3.6,3.6c0,2,1.6,3.6,3.6,3.6Z" class="g5_279"/>
<path d="M365.4,896.3c2,0,3.6,-1.6,3.6,-3.6c0,-2,-1.6,-3.6,-3.6,-3.6c-2,0,-3.6,1.6,-3.6,3.6c0,2,1.6,3.6,3.6,3.6Z" class="g5_279"/>
<path d="M248.6,591.6c0,0,-8.6,0,-8.6,8.7v15.1c0,0,0,8.7,8.6,8.7h91c0,0,8.6,0,8.6,-8.7V600.3c0,0,0,-8.7,-8.6,-8.7Z" class="g6_279"/>
<path d="M248.6,688.2c0,0,-8.6,0,-8.6,8.6V712c0,0,0,8.7,8.6,8.7h91c0,0,8.6,0,8.6,-8.7V696.8c0,0,0,-8.6,-8.6,-8.6Z" class="g6_279"/>
<path d="M248.6,784.8c0,0,-8.6,0,-8.6,8.6v15.2c0,0,0,8.6,8.6,8.6h91c0,0,8.6,0,8.6,-8.6V793.4c0,0,0,-8.6,-8.6,-8.6Z" class="g6_279"/>
<image clip-path="url(#c1_279)" preserveAspectRatio="none" x="590" y="666" width="85" height="79" xlink:href="img/1.jpg"/>
<image clip-path="url(#c2_279)" preserveAspectRatio="none" x="582" y="573" width="101" height="79" xlink:href="img/2.jpg"/>
<image clip-path="url(#c3_279)" preserveAspectRatio="none" x="583" y="761" width="93" height="79" xlink:href="img/3.jpg"/>
<image clip-path="url(#c4_279)" preserveAspectRatio="none" x="582" y="856" width="101" height="79" xlink:href="img/4.jpg"/>
<path d="M543.3,611.4c1.9,0,3.6,-1.6,3.6,-3.6c0,-2,-1.7,-3.6,-3.6,-3.6c-2,0,-3.7,1.6,-3.7,3.6c0,2,1.7,3.6,3.7,3.6Z" class="g5_279"/>
<path d="M543.3,707.1c1.9,0,3.6,-1.6,3.6,-3.6c0,-2,-1.7,-3.6,-3.6,-3.6c-2,0,-3.7,1.6,-3.7,3.6c0,2,1.7,3.6,3.7,3.6Z" class="g5_279"/>
<path d="M543.3,802.8c1.9,0,3.6,-1.6,3.6,-3.6c0,-2,-1.7,-3.6,-3.6,-3.6c-2,0,-3.7,1.6,-3.7,3.6c0,2,1.7,3.6,3.7,3.6Z" class="g5_279"/>
<path d="M543.3,896.3c1.9,0,3.6,-1.6,3.6,-3.6c0,-2,-1.7,-3.6,-3.6,-3.6c-2,0,-3.7,1.6,-3.7,3.6c0,2,1.7,3.6,3.7,3.6Z" class="g5_279"/>
<path d="M248.6,879.2c0,0,-8.6,0,-8.6,8.6V903c0,0,0,8.7,8.6,8.7h91c0,0,8.6,0,8.6,-8.7V887.8c0,0,0,-8.6,-8.6,-8.6Z" class="g6_279"/>
<path d="M472.5,987.5c0,0,-4.4,0,-4.4,4.4v10.8c0,0,0,4.3,4.4,4.3h30.3c0,0,4.3,0,4.3,-4.3V991.9c0,0,0,-4.4,-4.3,-4.4Z" class="g7_279"/>
<path d="M459.3,980.1v34.8m1.3,1H866.8m.9,-1.4V979.7m-1.3,-1H460.2" class="g8_279"/>
<path d="M459.3,1015.3v.6h.6m407.3,0h.5v-.6m0,-36v-.6h-.5m-407.3,0h-.6v.6" class="g9_279"/>
<path d="M154.1,1243.9h713V1121h-713v122.9Z" class="ga_279"/>
<path d="M154.1,1125.6v116m4.6,2.3H864.9m2.2,-4.5V1123.3m-4.5,-2.3H156.4" class="gb_279"/>
<path d="M154.1,1243.9v0m713.1,0v0m0,-122.9v0m-713.1,0v0" class="gc_279"/>
<path d="M153.3,1124.3v-28.7c0,0,0,-8.6,8.7,-8.6H859.3c0,0,8.6,0,8.6,8.6v29.2Z" class="gd_279"/>
<path d="M195.5,1091.1c3.4,0,6.1,-2.8,6.1,-6.1c0,-3.4,-2.7,-6.1,-6.1,-6.1c-3.4,0,-6.1,2.7,-6.1,6.1c0,3.3,2.7,6.1,6.1,6.1Z" class="ge_279"/>
<path d="M195.5,1093c4.4,0,8,-3.6,8,-8c0,-4.5,-3.6,-8.1,-8,-8.1c-4.4,0,-8,3.6,-8,8.1c0,4.4,3.6,8,8,8m0,-14.1c3.4,0,6.1,2.7,6.1,6.1c0,3.3,-2.7,6.1,-6.1,6.1c-3.4,0,-6.1,-2.8,-6.1,-6.1c0,-3.4,2.7,-6.1,6.1,-6.1Z" class="gf_279"/>
<path d="M180.9,1107.1h29.2v-3.8c0,-4.4,-3.5,-8,-7.9,-8H188.8c-4.3,0,-7.9,3.6,-7.9,8Z" class="ge_279"/>
<path d="M172.6,1112.4h45.8V1109H172.6v3.4Z" class="g1_279"/>
<path d="M219.4,1107.1h-2.7v-11.6c0,-.2,-.1,-.5,-.3,-.6l-2.6,-2.6c.3,-.6,.5,-1.2,.5,-1.8c0,-2,-1.6,-3.6,-3.6,-3.6c-2,0,-3.6,1.6,-3.6,3.6c0,2,1.6,3.6,3.6,3.6c.7,0,1.3,-.2,1.8,-.5l2.3,2.3v11.2H212v-3.8c0,-5.5,-4.4,-9.9,-9.8,-9.9H188.8c-5.4,0,-9.8,4.4,-9.8,9.9v3.8h-7.4c-.5,0,-.9,.4,-.9,.9v5.4c0,.5,.4,.9,.9,.9h2.7v11.3c0,.6,.4,1,.9,1h40.6c.5,0,.9,-.4,.9,-1v-11.3h2.7c.5,0,.9,-.4,.9,-.9V1108c0,-.5,-.4,-.9,-.9,-.9m-8.7,-14.9c-.9,0,-1.7,-.8,-1.7,-1.7c0,-.9,.8,-1.7,1.7,-1.7c.9,0,1.7,.8,1.7,1.7c0,.9,-.8,1.7,-1.7,1.7m7.7,20.2H172.6V1109h45.8Zm-3.6,12.3H176.2v-10.4h38.6v10.4Zm-26,-29.4h13.4c4.4,0,7.9,3.6,7.9,8v3.8H180.9v-3.8c0,-4.4,3.6,-8,7.9,-8Z" class="gf_279"/>
<path d="M176.2,1124.7h38.6v-10.4H176.2v10.4Zm2.8,-7.6c0,-.2,.2,-.4,.5,-.4h32c.3,0,.5,.2,.5,.4v4.8c0,.2,-.2,.4,-.5,.4h-32c-.3,0,-.5,-.2,-.5,-.4Z" class="g1_279"/>
<path d="M180,1121.4h31v-3.8H180v3.8Z" class="gg_279"/>
<path d="M179.5,1122.3h32c.3,0,.5,-.2,.5,-.4v-4.8c0,-.2,-.2,-.4,-.5,-.4h-32c-.3,0,-.5,.2,-.5,.4v4.8c0,.2,.2,.4,.5,.4m.5,-4.7h31v3.8H180Z" class="gf_279"/>
<path d="M212.4,1090.5c0,-.9,-.8,-1.7,-1.7,-1.7c-.9,0,-1.7,.8,-1.7,1.7c0,.9,.8,1.7,1.7,1.7c.9,0,1.7,-.8,1.7,-1.7Z" class="g1_279"/>
<path d="M32.1,45.1H9.2m958.3,0h22.9M32.1,1331.3H9.2m958.3,0h22.9M45.1,32.1V9.2m0,1335.1v22.9M954.5,32.1V9.2m0,1335.1v22.9" class="gh_279"/>
<path d="M32.1,45.1H9.2m958.3,0h22.9M32.1,1331.3H9.2m958.3,0h22.9M45.1,32.1V9.2m0,1335.1v22.9M954.5,32.1V9.2m0,1335.1v22.9" class="gi_279"/>
<path d="M27.5,32.1H0m972.1,0h27.5M27.5,1344.3H0m972.1,0h27.5M32.1,27.5V0m0,1348.9v27.5M967.5,27.5V0m0,1348.9v27.5" class="gh_279"/>
<path d="M27.5,32.1H0m972.1,0h27.5M27.5,1344.3H0m972.1,0h27.5M32.1,27.5V0m0,1348.9v27.5M967.5,27.5V0m0,1348.9v27.5" class="gi_279"/>
</svg>