<?xml version="1.0" encoding="UTF-8" standalone="no"?>
<!DOCTYPE svg PUBLIC "-//W3C//DTD SVG 1.1//EN"
"http://www.w3.org/Graphics/SVG/1.1/DTD/svg11.dtd">
<svg viewBox="0 0 999 1376" version="1.1" xmlns="http://www.w3.org/2000/svg" xmlns:xlink="http://www.w3.org/1999/xlink">
<defs>
<style type="text/css"><![CDATA[
.g0_316{
fill: none;
stroke: #6381B7;
stroke-width: 0.763;
}
.g1_316{
fill: #D1E2EE;
}
.g2_316{
fill: #FFF;
}
.g3_316{
fill: #E9EAEB;
}
.g4_316{
fill: none;
stroke: #93BEDA;
stroke-width: 0.458;
stroke-miterlimit: 10;
}
.g5_316{
fill: #6381B7;
}
.g6_316{
fill: none;
stroke: #93BEDA;
stroke-width: 1.145;
stroke-miterlimit: 10;
}
.g7_316{
fill: none;
stroke: #6381B7;
stroke-width: 0.458;
stroke-miterlimit: 10;
}
.g8_316{
fill: none;
stroke: #6381B7;
stroke-width: 0.381;
stroke-dasharray: 2,1;
}
.g9_316{
fill: none;
stroke: #6381B7;
stroke-width: 0.381;
}
.ga_316{
fill: #25408F;
}
.gb_316{
fill: #F37553;
}
.gc_316{
fill: #363637;
}
.gd_316{
fill: #F0D73F;
}
.ge_316{
fill: #506CB4;
}
.gf_316{
fill: #5CC4BE;
}
.gg_316{
fill: none;
stroke: #FFF;
stroke-width: 1.909;
stroke-miterlimit: 10;
}
.gh_316{
fill: none;
stroke: #000;
stroke-width: 0.381;
stroke-miterlimit: 10;
}
]]></style>
</defs>
<path d="M145.4,169.2c0,0,-13,0,-13,12.9v898.5c0,0,0,13,13,13H833.2c0,0,13,0,13,-13V182.1c0,0,0,-12.9,-13,-12.9H145.4Z" class="g0_316"/>
<path d="M167.7,294.3H804.3V253H167.7v41.3Z" class="g1_316"/>
<path d="M167.7,305.3H276v41.3H167.7V305.3Zm108.3,0H457.8v41.3H276V305.3Zm181.8,0H804.3v41.3H457.8V305.3ZM276,346.6H457.8v21.6H276V346.6Zm333.4,0H804.3v21.6H609.4V346.6Z" class="g2_316"/>
<path d="M167.7,346.6H276v21.6H167.7V346.6Zm290.1,0H609.4v21.6H457.8V346.6Z" class="g3_316"/>
<path d="M167.7,305.3H276m0,0H457.8m0,0H609.4m0,0H804.3M167.7,346.6H276m0,0H457.8m0,0H609.4m0,0H804.3M167.7,368.2H276m0,0H457.8m0,0H609.4m0,0H804.3M276,346.4V305.5m181.8,40.9V305.5M276,368V346.8M457.8,368V346.8M609.4,368V346.8" class="g4_316"/>
<path d="M167.7,400.9H288.9V379.2H167.7v21.7Z" class="g5_316"/>
<path d="M167.7,412.2H379.9v38.3H167.7V412.2Zm212.2,0H585.6v38.3H379.9V412.2Zm205.7,0H804.3v38.3H585.6V412.2Z" class="g1_316"/>
<path d="M167.7,450.5H273.8v35.3H167.7V450.5Zm106.1,0H379.9v35.3H273.8V450.5Zm106.1,0H486v35.3H379.9V450.5Zm106.1,0h99.6v35.3H486V450.5Zm99.6,0H698.2v35.3H585.6V450.5Zm112.6,0H804.3v35.3H698.2V450.5ZM167.7,485.8H273.8v35.3H167.7V485.8Zm106.1,0H379.9v35.3H273.8V485.8Zm106.1,0H486v35.3H379.9V485.8Zm106.1,0h99.6v35.3H486V485.8Zm99.6,0H698.2v35.3H585.6V485.8Zm112.6,0H804.3v35.3H698.2V485.8ZM167.7,521.1H273.8v49H167.7v-49Zm106.1,0H379.9v49H273.8v-49Zm106.1,0H486v49H379.9v-49Zm106.1,0h99.6v49H486v-49Zm99.6,0H698.2v49H585.6v-49Zm112.6,0H804.3v49H698.2v-49Zm-530.5,49H273.8v52.5H167.7V570.1Zm106.1,0H379.9v52.5H273.8V570.1Zm106.1,0H486v52.5H379.9V570.1Zm106.1,0h99.6v52.5H486V570.1Zm99.6,0H698.2v52.5H585.6V570.1Zm112.6,0H804.3v52.5H698.2V570.1ZM167.7,622.6H273.8v43.1H167.7V622.6Zm106.1,0H379.9v43.1H273.8V622.6Zm106.1,0H486v43.1H379.9V622.6Zm106.1,0h99.6v43.1H486V622.6Zm99.6,0H698.2v43.1H585.6V622.6Zm112.6,0H804.3v43.1H698.2V622.6Z" class="g2_316"/>
<path d="M167.7,412.2H273.8m0,0H379.9m0,0H486m0,0h99.6m0,0H698.2m0,0H804.3M167.7,665.7H273.8m0,0H379.9m0,0H486m0,0h99.6m0,0H698.2m0,0H804.3" class="g6_316"/>
<path d="M379.9,450.2V412.8m205.7,37.4V412.8M167.7,450.5H273.8m0,0H379.9m-106.1,35V450.7m106.1,-.2H486m-106.1,35V450.7M486,450.5h99.6m-99.6,35V450.7m99.6,-.2H698.2m-112.6,35V450.7m112.6,-.2H804.3m-106.1,35V450.7M167.7,485.8H273.8m0,0H379.9m-106.1,35V486m106.1,-.2H486m-106.1,35V486M486,485.8h99.6m-99.6,35V486m99.6,-.2H698.2m-112.6,35V486m112.6,-.2H804.3m-106.1,35V486M167.7,521.1H273.8m0,0H379.9M273.8,569.9V521.3m106.1,-.2H486M379.9,569.9V521.3M486,521.1h99.6M486,569.9V521.3m99.6,-.2H698.2M585.6,569.9V521.3m112.6,-.2H804.3M698.2,569.9V521.3M167.7,570.1H273.8m0,0H379.9M273.8,622.4V570.3m106.1,-.2H486M379.9,622.4V570.3M486,570.1h99.6M486,622.4V570.3m99.6,-.2H698.2M585.6,622.4V570.3m112.6,-.2H804.3M698.2,622.4V570.3M167.7,622.6H273.8m0,0H379.9M273.8,665.1V622.9m106.1,-.3H486M379.9,665.1V622.9M486,622.6h99.6M486,665.1V622.9m99.6,-.3H698.2M585.6,665.1V622.9m112.6,-.3H804.3M698.2,665.1V622.9" class="g4_316"/>
<path d="M167.7,677.6H273.8v47H167.7v-47Zm212.2,0H486v47H379.9v-47Zm205.7,0H698.2v47H585.6v-47Z" class="g1_316"/>
<path d="M273.8,677.6H379.9v47H273.8v-47Zm212.2,0h99.6v47H486v-47Zm212.2,0H804.3v47H698.2v-47Zm-112.6,47H804.3v21.6H585.6V724.6Z" class="g2_316"/>
<path d="M167.7,746.2H585.6V724.6H167.7v21.6Z" class="g3_316"/>
<path d="M167.7,746.2H273.8m0,0H379.9m0,0H486m0,0h99.6m0,-.2V725.2m0,21H698.2m0,0H804.3" class="g7_316"/>
<path d="M273.8,724V678.2M379.9,724V678.2M486,724V678.2M585.6,724V678.2M698.2,724V678.2" class="g4_316"/>
<path d="M167.7,677.6H273.8m0,0H379.9m0,0H486m0,0h99.6m0,0H698.2m0,0H804.3m-636.6,47H273.8m0,0H379.9m0,0H486m0,0h99.6m0,0H698.2m0,0H804.3" class="g6_316"/>
<path d="M724.3,1109.9c0,0,-4.3,0,-4.3,4.4v10.8c0,0,0,4.3,4.3,4.3h30.3c0,0,4.3,0,4.3,-4.3v-10.8c0,0,0,-4.4,-4.3,-4.4Z" class="g5_316"/>
<path d="M711.1,1102.5v34.8m1.4,1H844m1,-1.4v-34.8m-1.4,-1H712.1" class="g8_316"/>
<path d="M711.1,1137.7v.6h.6m132.7,0h.6v-.6m0,-36v-.6h-.6m-132.7,0h-.6v.6" class="g9_316"/>
<path d="M132.2,126.3v22.2l11.7,10.2V136.5Z" class="ga_316"/>
<path d="M132.2,109.5v39H829.9c0,0,16.9,0,16.9,-16.8v-5.4c0,0,0,-16.8,-16.9,-16.8Z" class="g5_316"/>
<path d="M166,111.6c.7,-.6,1.7,-.8,2.5,-.6l1.3,-1.3l-6.2,-6.1l-6.1,6.1l-1.3,-1.3c.2,-.8,0,-1.8,-.6,-2.4c-1,-1,-2.6,-1,-3.6,0c-1,1,-1,2.6,0,3.6c.6,.6,1.6,.9,2.4,.6l1.3,1.3l-6.1,6.1l6.1,6.2l-1.3,1.3c-.8,-.3,-1.8,-.1,-2.4,.6c-1,1,-1,2.6,0,3.6c1,1,2.6,1,3.6,0c.6,-.7,.9,-1.6,.6,-2.4l1.3,-1.3l6.1,6.1l6.2,-6.1l-1.3,-1.3c-.9,.2,-1.8,0,-2.5,-.7c-1,-1,-1,-2.6,0,-3.6c1,-1,2.6,-1,3.6,0c.7,.7,.9,1.6,.7,2.5l1.3,1.3l6.1,-6.2l-6.1,-6.1l-1.3,1.3c.2,.8,0,1.8,-.7,2.4c-1,1,-2.6,1,-3.6,0c-1,-.9,-1,-2.6,0,-3.6Z" class="gb_316"/>
<path d="M163.6,132.3l-6.1,-6.2l-.8,.9c.1,.9,-.2,1.9,-.8,2.6c-1.2,1.1,-3.1,1.1,-4.2,0c-1.2,-1.2,-1.2,-3,0,-4.2c.7,-.7,1.6,-1,2.6,-.8l.8,-.8L149,117.6l6.1,-6.1l-.8,-.8c-1,.1,-1.9,-.2,-2.6,-.8c-.6,-.6,-.9,-1.3,-.9,-2.1c0,-.8,.3,-1.5,.9,-2.1c1.1,-1.1,3,-1.1,4.1,0c.7,.7,1,1.7,.9,2.6l.8,.8l6.1,-6.1l6.7,6.7l-1.7,1.7h-.2c-.7,-.2,-1.5,0,-2.1,.5c-.8,.9,-.8,2.2,0,3.1c.9,.8,2.2,.8,3.1,0c.5,-.6,.7,-1.4,.5,-2.1v-.2l1.7,-1.7l6.7,6.6l-6.7,6.7l-1.8,-1.7l.1,-.2c.2,-.8,0,-1.5,-.6,-2.1c-.4,-.4,-.9,-.6,-1.5,-.6c-.5,0,-1.1,.2,-1.5,.6c-.8,.8,-.8,2.2,0,3c.5,.6,1.3,.8,2.1,.6l.2,-.1l1.7,1.8ZM157.5,125l6.1,6.1l5.6,-5.5l-.8,-.9c-1,.2,-2,-.1,-2.7,-.8c-.5,-.5,-.8,-1.3,-.8,-2.1c0,-.7,.3,-1.5,.8,-2c.6,-.6,1.3,-.9,2.1,-.9c.8,0,1.6,.3,2.1,.9c.7,.6,1,1.6,.8,2.6l.9,.8l5.5,-5.6l-5.5,-5.5l-.9,.8c.2,1,-.1,1.9,-.8,2.6c-1.1,1.2,-3,1.2,-4.1,0c-1.2,-1.1,-1.2,-3,0,-4.1c.6,-.7,1.6,-1,2.6,-.8l.8,-.9l-5.6,-5.6l-6.1,6.2l-1.7,-1.7v-.3c.2,-.7,0,-1.5,-.5,-2c-.9,-.9,-2.2,-.9,-3.1,0c-.4,.4,-.6,.9,-.6,1.5c0,.6,.2,1.1,.6,1.5c.6,.5,1.4,.8,2.1,.6l.2,-.1l1.8,1.7l-6.2,6.1l6.2,6.2l-1.8,1.7l-.2,-.1c-.7,-.2,-1.5,.1,-2,.6c-.9,.8,-.9,2.2,0,3c.8,.9,2.2,.9,3,0c.5,-.5,.7,-1.3,.5,-2v-.3Z" class="gc_316"/>
<path d="M196.6,122.1c.9,0,1.8,.5,2.2,1.3h1.8v-8.7h-8.7v-1.8c.8,-.4,1.3,-1.2,1.3,-2.2c0,-1.4,-1.1,-2.5,-2.5,-2.5c-1.5,0,-2.6,1.1,-2.6,2.5c0,1,.5,1.8,1.3,2.2v1.8h-8.7v8.7h-1.8c-.4,-.8,-1.2,-1.3,-2.2,-1.3c-1.4,0,-2.5,1.2,-2.5,2.6c0,1.4,1.1,2.5,2.5,2.5c1,0,1.8,-.5,2.2,-1.2h1.8v8.6h8.7v-1.8c-.8,-.4,-1.3,-1.2,-1.3,-2.2c0,-1.4,1.2,-2.5,2.6,-2.5c1.4,0,2.5,1.1,2.5,2.5c0,1,-.5,1.8,-1.3,2.2v1.8h8.7V126h-1.8c-.4,.7,-1.2,1.2,-2.2,1.2c-1.4,0,-2.5,-1.1,-2.5,-2.5c0,-1.4,1.1,-2.6,2.5,-2.6Z" class="gd_316"/>
<path d="M201,135h-9.5v-2.4l.2,-.1c.7,-.4,1.1,-1.1,1.1,-1.9c0,-1.2,-1,-2.1,-2.1,-2.1c-1.2,0,-2.2,.9,-2.2,2.1c0,.8,.4,1.5,1.1,1.9l.2,.1V135h-9.5v-8.6h-1.2c-.5,.7,-1.4,1.2,-2.4,1.2c-1.6,0,-2.9,-1.3,-2.9,-2.9c0,-1.6,1.3,-3,2.9,-3c1,0,1.9,.5,2.4,1.3h1.2v-8.7H189v-1.1c-.8,-.6,-1.3,-1.5,-1.3,-2.5c0,-1.6,1.3,-2.9,3,-2.9c1.6,0,2.9,1.3,2.9,2.9c0,1,-.5,1.9,-1.3,2.5v1.1H201v9.5h-2.4l-.1,-.2c-.4,-.6,-1.1,-1.1,-1.9,-1.1c-.6,0,-1.1,.3,-1.5,.7c-.4,.4,-.6,.9,-.6,1.5c0,1.2,.9,2.1,2.1,2.1c.8,0,1.5,-.4,1.9,-1l.1,-.2H201Zm-8.7,-.8h7.9v-7.8H199c-.5,.7,-1.4,1.2,-2.4,1.2c-1.6,0,-2.9,-1.3,-2.9,-2.9c0,-.8,.3,-1.5,.8,-2.1c.6,-.5,1.3,-.9,2.1,-.9c1,0,1.9,.5,2.4,1.3h1.2v-7.9h-8.7v-2.4l.2,-.1c.7,-.4,1.1,-1.1,1.1,-1.9c0,-1.2,-1,-2.1,-2.1,-2.1c-1.2,0,-2.2,.9,-2.2,2.1c0,.8,.4,1.5,1.1,1.9l.2,.1v2.4h-8.7v8.7h-2.4l-.1,-.2c-.4,-.6,-1.1,-1.1,-1.9,-1.1c-1.2,0,-2.1,1,-2.1,2.2c0,1.2,.9,2.1,2.1,2.1c.8,0,1.5,-.4,1.9,-1l.1,-.2h2.4v8.6H189V133c-.8,-.5,-1.3,-1.4,-1.3,-2.4c0,-1.6,1.3,-2.9,3,-2.9c1.6,0,2.9,1.3,2.9,2.9c0,1,-.5,1.9,-1.3,2.4Z" class="gc_316"/>
<path d="M176.7,142c1,0,1.8,.5,2.2,1.3h1.8v-8.7H172v-1.8c.8,-.4,1.3,-1.2,1.3,-2.2c0,-1.4,-1.1,-2.5,-2.5,-2.5c-1.4,0,-2.6,1.1,-2.6,2.5c0,1,.5,1.8,1.3,2.2v1.8h-8.7v8.7H159c-.4,-.8,-1.2,-1.3,-2.2,-1.3c-1.4,0,-2.5,1.2,-2.5,2.6c0,1.4,1.1,2.5,2.5,2.5c1,0,1.8,-.5,2.2,-1.2h1.8v8.6h8.7v-1.8c-.8,-.4,-1.3,-1.2,-1.3,-2.2c0,-1.4,1.2,-2.5,2.6,-2.5c1.4,0,2.5,1.1,2.5,2.5c0,1,-.5,1.8,-1.3,2.2v1.8h8.7v-8.7h-1.8c-.4,.8,-1.2,1.3,-2.2,1.3c-1.4,0,-2.5,-1.1,-2.5,-2.5c0,-1.4,1.1,-2.6,2.5,-2.6Z" class="ge_316"/>
<path d="M181.1,154.9h-9.5v-2.4l.2,-.1c.7,-.4,1.1,-1.1,1.1,-1.9c0,-1.2,-1,-2.1,-2.1,-2.1c-1.2,0,-2.2,.9,-2.2,2.1c0,.8,.4,1.5,1.1,1.9l.2,.1v2.4h-9.5v-8.6h-1.2c-.5,.7,-1.4,1.2,-2.4,1.2c-1.6,0,-2.9,-1.3,-2.9,-2.9c0,-1.6,1.3,-3,2.9,-3c1,0,1.9,.5,2.4,1.3h1.2v-8.7h8.7V133c-.8,-.5,-1.3,-1.4,-1.3,-2.4c0,-1.6,1.3,-2.9,3,-2.9c1.6,0,2.9,1.3,2.9,2.9c0,1,-.5,1.9,-1.3,2.4v1.2h8.7v9.5h-2.4l-.1,-.2c-.4,-.7,-1.1,-1.1,-1.9,-1.1c-1.2,0,-2.1,1,-2.1,2.2c0,1.1,.9,2.1,2.1,2.1c.8,0,1.5,-.4,1.9,-1.1l.1,-.2h2.4Zm-8.7,-.8h7.9v-7.9h-1.2c-.5,.8,-1.4,1.3,-2.4,1.3c-1.6,0,-2.9,-1.3,-2.9,-2.9c0,-1.6,1.3,-3,2.9,-3c1,0,1.9,.5,2.4,1.3h1.2V135h-8.7v-2.4l.2,-.1c.7,-.4,1.1,-1.1,1.1,-1.9c0,-1.2,-1,-2.1,-2.1,-2.1c-1.2,0,-2.2,.9,-2.2,2.1c0,.8,.4,1.5,1.1,1.9l.2,.1V135h-8.7v8.7h-2.4l-.1,-.2c-.4,-.7,-1.1,-1.1,-1.9,-1.1c-1.2,0,-2.1,1,-2.1,2.2c0,1.2,.9,2.1,2.1,2.1c.8,0,1.5,-.4,1.9,-1l.1,-.2h2.4v8.6h7.9v-1.2c-.8,-.5,-1.3,-1.4,-1.3,-2.4c0,-1.6,1.3,-2.9,3,-2.9c1.6,0,2.9,1.3,2.9,2.9c0,1,-.5,1.9,-1.3,2.4Z" class="gc_316"/>
<path d="M196.6,142c.9,0,1.8,.5,2.2,1.3h1.8v-8.7h-8.7v-1.8c.8,-.4,1.3,-1.2,1.3,-2.2c0,-1.4,-1.1,-2.5,-2.5,-2.5c-1.5,0,-2.6,1.1,-2.6,2.5c0,1,.5,1.8,1.3,2.2v1.8h-8.7v8.7h-1.8c-.4,-.8,-1.2,-1.3,-2.2,-1.3c-1.4,0,-2.5,1.2,-2.5,2.6c0,1.4,1.1,2.5,2.5,2.5c1,0,1.8,-.5,2.2,-1.2h1.8v8.6h8.7v-1.8c-.8,-.4,-1.3,-1.2,-1.3,-2.2c0,-1.4,1.2,-2.5,2.6,-2.5c1.4,0,2.5,1.1,2.5,2.5c0,1,-.5,1.8,-1.3,2.2v1.8h8.7v-8.7h-1.8c-.4,.8,-1.2,1.3,-2.2,1.3c-1.4,0,-2.5,-1.1,-2.5,-2.5c0,-1.4,1.1,-2.6,2.5,-2.6Z" class="gf_316"/>
<path d="M201,154.9h-9.5v-2.4l.2,-.1c.7,-.4,1.1,-1.1,1.1,-1.9c0,-1.2,-1,-2.1,-2.1,-2.1c-1.2,0,-2.2,.9,-2.2,2.1c0,.8,.4,1.5,1.1,1.9l.2,.1v2.4h-9.5v-8.6h-1.2c-.5,.7,-1.4,1.2,-2.4,1.2c-1.6,0,-2.9,-1.3,-2.9,-2.9c0,-1.6,1.3,-3,2.9,-3c1,0,1.9,.5,2.4,1.3h1.2v-8.7H189V133c-.8,-.5,-1.3,-1.4,-1.3,-2.4c0,-1.6,1.3,-2.9,3,-2.9c1.6,0,2.9,1.3,2.9,2.9c0,1,-.5,1.9,-1.3,2.4v1.2H201v9.5h-2.4l-.1,-.2c-.4,-.7,-1.1,-1.1,-1.9,-1.1c-.6,0,-1.1,.3,-1.5,.7c-.4,.4,-.6,.9,-.6,1.5c0,1.1,.9,2.1,2.1,2.1c.8,0,1.5,-.4,1.9,-1.1l.1,-.2H201Zm-8.7,-.8h7.9v-7.9H199c-.5,.8,-1.4,1.3,-2.4,1.3c-1.6,0,-2.9,-1.3,-2.9,-2.9c0,-.8,.3,-1.5,.8,-2.1c.6,-.6,1.3,-.9,2.1,-.9c1,0,1.9,.5,2.4,1.3h1.2V135h-8.7v-2.4l.2,-.1c.7,-.4,1.1,-1.1,1.1,-1.9c0,-1.2,-1,-2.1,-2.1,-2.1c-1.2,0,-2.2,.9,-2.2,2.1c0,.8,.4,1.5,1.1,1.9l.2,.1V135h-8.7v8.7h-2.4l-.1,-.2c-.4,-.7,-1.1,-1.1,-1.9,-1.1c-1.2,0,-2.1,1,-2.1,2.2c0,1.2,.9,2.1,2.1,2.1c.8,0,1.5,-.4,1.9,-1l.1,-.2h2.4v8.6H189v-1.2c-.8,-.5,-1.3,-1.4,-1.3,-2.4c0,-1.6,1.3,-2.9,3,-2.9c1.6,0,2.9,1.3,2.9,2.9c0,1,-.5,1.9,-1.3,2.4Z" class="gc_316"/>
<path d="M32.1,45.1H9.2m958.3,0h22.9M32.1,1331.3H9.2m958.3,0h22.9M45.1,32.1V9.2m0,1335.1v22.9M954.5,32.1V9.2m0,1335.1v22.9" class="gg_316"/>
<path d="M32.1,45.1H9.2m958.3,0h22.9M32.1,1331.3H9.2m958.3,0h22.9M45.1,32.1V9.2m0,1335.1v22.9M954.5,32.1V9.2m0,1335.1v22.9" class="gh_316"/>
<path d="M27.5,32.1H0m972.1,0h27.5M27.5,1344.3H0m972.1,0h27.5M32.1,27.5V0m0,1348.9v27.5M967.5,27.5V0m0,1348.9v27.5" class="gg_316"/>
<path d="M27.5,32.1H0m972.1,0h27.5M27.5,1344.3H0m972.1,0h27.5M32.1,27.5V0m0,1348.9v27.5M967.5,27.5V0m0,1348.9v27.5" class="gh_316"/>
</svg>