<?xml version="1.0" encoding="UTF-8" standalone="no"?>
<!DOCTYPE svg PUBLIC "-//W3C//DTD SVG 1.1//EN"
"http://www.w3.org/Graphics/SVG/1.1/DTD/svg11.dtd">
<svg viewBox="0 0 999 1376" version="1.1" xmlns="http://www.w3.org/2000/svg" xmlns:xlink="http://www.w3.org/1999/xlink">
<defs>
<clipPath id="c0_110"><path d="M204.5,700.3V614.1h86.3v86.2Z"/></clipPath>
<clipPath id="c1_110"><path d="M546.7,700.3V614.1h86.2v86.2Z"/></clipPath>
<clipPath id="c2_110"><path d="M342.2,700.3V614.1h86.2v86.2Z"/></clipPath>
<clipPath id="c3_110"><path d="M677.8,700.3V614.1H777v86.2Z"/></clipPath>
<clipPath id="c4_110"><path d="M204.5,330V243.8h86.3V330Z"/></clipPath>
<clipPath id="c5_110"><path d="M546.7,330V243.8h86.2V330Z"/></clipPath>
<clipPath id="c6_110"><path d="M342.2,330V243.8h86.2V330Z"/></clipPath>
<clipPath id="c7_110"><path d="M684.3,330V243.8h86.2V330Z"/></clipPath>
<clipPath id="c8_110"><path d="M546.7,463.9V377.7h86.2v86.2Z"/></clipPath>
<clipPath id="c9_110"><path d="M684.3,463.9V377.7h86.2v86.2Z"/></clipPath>
<clipPath id="ca_110"><path d="M177.5,231.5L171,229.4L154.6,215.5V158.4h72v73.1Z"/></clipPath>
<clipPath id="cb_110"><path d="M177,920.5l-6.5,-2.2L154.1,904.4V847.3h72v73.2Z"/></clipPath>
<style type="text/css"><![CDATA[
.g0_110{
fill: #FEFCF4;
}
.g1_110{
fill: #FFF;
}
.g2_110{
fill: none;
stroke: #6381B7;
stroke-width: 0.763;
}
.g3_110{
fill: none;
stroke: #949698;
stroke-width: 0.381;
}
.g4_110{
fill: none;
stroke: #231F20;
stroke-width: 1.527;
}
.g5_110{
fill: #FCE8B0;
}
.g6_110{
fill: #F0E8F3;
}
.g7_110{
fill: none;
stroke: #231F20;
stroke-width: 0.305;
stroke-miterlimit: 10;
}
.g8_110{
fill: #6381B7;
}
.g9_110{
fill: none;
stroke: #6381B7;
stroke-width: 0.381;
stroke-dasharray: 2,1;
}
.ga_110{
fill: none;
stroke: #6381B7;
stroke-width: 0.381;
}
.gb_110{
fill: #25408F;
}
.gc_110{
fill: #00BAF1;
}
.gd_110{
fill: #332D2C;
}
.ge_110{
fill: #D9DFF0;
}
.gf_110{
fill: #F27C85;
}
.gg_110{
fill: #7DD3F6;
}
.gh_110{
fill: none;
stroke: #FFF;
stroke-width: 1.909;
stroke-miterlimit: 10;
}
.gi_110{
fill: none;
stroke: #000;
stroke-width: 0.381;
stroke-miterlimit: 10;
}
]]></style>
</defs>
<path d="M32.1,1344.3H954.5V32.1H32.1V1344.3Z" class="g0_110"/>
<path d="M150.4,127.7c0,0,-18.3,0,-18.3,18.4V820.2c0,0,0,18.3,18.3,18.3H827.5c0,0,18.4,0,18.4,-18.3V127.7Z" class="g1_110"/>
<path d="M150.4,127.7c0,0,-18.3,0,-18.3,18.4V820.2c0,0,0,18.3,18.3,18.3H827.5c0,0,18.4,0,18.4,-18.3V127.7H150.4Z" class="g2_110"/>
<path d="M187.4,700.3H307.9V614.1H187.4v86.2Z" class="g1_110"/>
<image clip-path="url(#c0_110)" preserveAspectRatio="none" x="205" y="614" width="86" height="86" xlink:href="img/1.jpg"/>
<path d="M187.4,700.3H307.9V614.1H187.4v86.2Z" class="g3_110"/>
<path d="M529.5,700.3H650V614.1H529.5v86.2Z" class="g1_110"/>
<image clip-path="url(#c1_110)" preserveAspectRatio="none" x="547" y="614" width="86" height="86" xlink:href="img/2.jpg"/>
<path d="M529.5,700.3H650V614.1H529.5v86.2Z" class="g3_110"/>
<path d="M325,700.3H445.5V614.1H325v86.2Z" class="g1_110"/>
<image clip-path="url(#c2_110)" preserveAspectRatio="none" x="342" y="614" width="86" height="86" xlink:href="img/3.jpg"/>
<path d="M325,700.3H445.5V614.1H325v86.2Z" class="g3_110"/>
<path d="M667.2,700.3H787.7V614.1H667.2v86.2Z" class="g1_110"/>
<image clip-path="url(#c3_110)" preserveAspectRatio="none" x="678" y="612" width="99" height="88" xlink:href="img/4.jpg"/>
<path d="M667.2,700.3H787.7V614.1H667.2v86.2Z" class="g3_110"/>
<path d="M187.4,330H307.9V243.8H187.4V330Z" class="g1_110"/>
<image clip-path="url(#c4_110)" preserveAspectRatio="none" x="205" y="244" width="86" height="86" xlink:href="img/5.jpg"/>
<path d="M187.4,330H307.9V243.8H187.4V330Z" class="g3_110"/>
<path d="M529.5,330H650V243.8H529.5V330Z" class="g1_110"/>
<image clip-path="url(#c5_110)" preserveAspectRatio="none" x="547" y="244" width="86" height="86" xlink:href="img/6.jpg"/>
<path d="M529.5,330H650V243.8H529.5V330Z" class="g3_110"/>
<path d="M325,330H445.5V243.8H325V330Z" class="g1_110"/>
<image clip-path="url(#c6_110)" preserveAspectRatio="none" x="342" y="244" width="86" height="86" xlink:href="img/7.jpg"/>
<path d="M325,330H445.5V243.8H325V330Z" class="g3_110"/>
<path d="M667.2,330H787.7V243.8H667.2V330Z" class="g1_110"/>
<image clip-path="url(#c7_110)" preserveAspectRatio="none" x="684" y="244" width="87" height="86" xlink:href="img/8.jpg"/>
<path d="M667.2,330H787.7V243.8H667.2V330Z" class="g3_110"/>
<path d="M187.4,464.2H307.9V378H187.4v86.2Z" class="g1_110"/>
<image preserveAspectRatio="none" x="205" y="378" width="86" height="86" xlink:href="img/9.jpg"/>
<path d="M187.4,464.2H307.9V378H187.4v86.2Z" class="g3_110"/>
<path d="M529.5,463.9H650V377.7H529.5v86.2Z" class="g1_110"/>
<image clip-path="url(#c8_110)" preserveAspectRatio="none" x="547" y="378" width="86" height="86" xlink:href="img/10.jpg"/>
<path d="M529.5,463.9H650V377.7H529.5v86.2Z" class="g3_110"/>
<path d="M325,464.2H445.5V378H325v86.2Z" class="g1_110"/>
<image preserveAspectRatio="none" x="342" y="378" width="86" height="86" xlink:href="img/11.jpg"/>
<path d="M325,464.2H445.5V378H325v86.2Z" class="g3_110"/>
<path d="M667.2,463.9H787.7V377.7H667.2v86.2Z" class="g1_110"/>
<image clip-path="url(#c9_110)" preserveAspectRatio="none" x="684" y="378" width="87" height="86" xlink:href="img/12.jpg"/>
<path d="M667.2,463.9H787.7V377.7H667.2v86.2Z" class="g3_110"/>
<path d="M191.8,526c-.3,0,-.7,.1,-.9,.4c-.3,.3,-.4,.6,-.4,.9c0,.4,.1,.8,.4,1c.2,.3,.6,.4,.9,.4c.4,0,.7,-.1,1,-.4c.2,-.2,.4,-.6,.4,-1c0,-.3,-.2,-.6,-.4,-.9c-.3,-.3,-.6,-.4,-1,-.4ZM534,526c-.4,0,-.7,.1,-1,.4c-.3,.3,-.4,.6,-.4,.9c0,.4,.1,.8,.4,1c.3,.3,.6,.4,1,.4c.3,0,.6,-.1,.9,-.4c.2,-.2,.4,-.6,.4,-1c0,-.3,-.2,-.6,-.4,-.9c-.3,-.3,-.6,-.4,-.9,-.4Zm0,46.2c-.4,0,-.7,.1,-1,.4c-.3,.3,-.4,.6,-.4,.9c0,.4,.1,.7,.4,1c.3,.3,.6,.4,1,.4c.3,0,.6,-.1,.9,-.4c.2,-.3,.4,-.6,.4,-1c0,-.3,-.2,-.6,-.4,-.9c-.3,-.3,-.6,-.4,-.9,-.4ZM191.8,757.8c-.3,0,-.7,.1,-.9,.4c-.3,.3,-.4,.6,-.4,.9c0,.4,.1,.7,.4,1c.2,.3,.6,.4,.9,.4c.4,0,.7,-.1,1,-.4c.2,-.3,.4,-.6,.4,-1c0,-.3,-.2,-.6,-.4,-.9c-.3,-.3,-.6,-.4,-1,-.4Zm342.2,0c-.4,0,-.7,.1,-1,.4c-.3,.3,-.4,.6,-.4,.9c0,.4,.1,.7,.4,1c.3,.3,.6,.4,1,.4c.3,0,.6,-.1,.9,-.4c.2,-.3,.4,-.6,.4,-1c0,-.3,-.2,-.6,-.4,-.9c-.3,-.3,-.6,-.4,-.9,-.4Z" class="g4_110"/>
<path d="M210.1,186.5c0,0,-13,0,-13,13v21.7c0,0,0,13,13,13h602c0,0,13,0,13,-13V199.5c0,0,0,-13,-13,-13Z" class="g5_110"/>
<image clip-path="url(#ca_110)" preserveAspectRatio="none" x="153" y="157" width="75" height="76" xlink:href="img/13.png"/>
<path d="M204.9,226.8c0,0,-26.8,11.3,-51.1,-12.7c0,0,15.2,25.3,49.3,23.9c0,0,24.8,.4,20.3,-10.1c0,0,1.2,-4.5,-18.5,-1.1Z" class="g5_110"/>
<path d="M144.8,930.2c0,0,-13,0,-13,13V1211c0,0,0,12.9,13,12.9H833.1c0,0,13,0,13,-12.9V943.2c0,0,0,-13,-13,-13Z" class="g1_110"/>
<path d="M144.8,930.2c0,0,-13,0,-13,13V1211c0,0,0,12.9,13,12.9H833.1c0,0,13,0,13,-12.9V943.2c0,0,0,-13,-13,-13H144.8Z" class="g2_110"/>
<path d="M191.2,988.3c0,0,-4.3,0,-4.3,4.4v73.6c0,0,0,4.3,4.3,4.3H797.5c0,0,4.4,0,4.4,-4.3V992.7c0,0,0,-4.4,-4.4,-4.4Z" class="g6_110"/>
<path d="M412.3,1039.8H516" class="g7_110"/>
<path d="M191.2,1111.1c0,0,-4.3,0,-4.3,4.3v69.3c0,0,0,4.3,4.3,4.3H797.5c0,0,4.4,0,4.4,-4.3v-69.3c0,0,0,-4.3,-4.4,-4.3Z" class="g6_110"/>
<path d="M433.5,1157.9H537.3" class="g7_110"/>
<path d="M724.6,1234.9c0,0,-4.3,0,-4.3,4.4v10.8c0,0,0,4.3,4.3,4.3h30.3c0,0,4.4,0,4.4,-4.3v-10.8c0,0,0,-4.4,-4.4,-4.4Z" class="g8_110"/>
<path d="M711.4,1227.5v34.8m1.4,1H844.3m1,-1.4v-34.8m-1.3,-1H712.4" class="g9_110"/>
<path d="M711.4,1262.7v.6h.6m132.7,0h.6v-.6m0,-36v-.6h-.6m-132.7,0h-.6v.6" class="ga_110"/>
<path d="M209.6,875.5c0,0,-12.9,0,-12.9,13v21.6c0,0,0,13,12.9,13H833.3c0,0,13,0,13,-13V888.5c0,0,0,-13,-13,-13Z" class="g5_110"/>
<image clip-path="url(#cb_110)" preserveAspectRatio="none" x="153" y="846" width="75" height="76" xlink:href="img/14.png"/>
<path d="M204.4,915.7c0,0,-26.8,11.3,-51.1,-12.7c0,0,15.2,25.3,49.3,23.9c0,0,24.8,.4,20.3,-10.1c0,0,1.2,-4.4,-18.5,-1.1Z" class="g5_110"/>
<path d="M131.7,126.7v22.2l11.7,10.3V137Z" class="gb_110"/>
<path d="M131.7,109.9v39H829.4c0,0,16.9,0,16.9,-16.8v-5.4c0,0,0,-16.8,-16.9,-16.8Z" class="g8_110"/>
<path d="M189.6,121.3l-6.4,-6.5L162,136l6.4,6.5Z" class="gc_110"/>
<path d="M168.4,143c.2,0,.3,0,.4,-.1L190,121.7c.1,-.1,.2,-.3,.2,-.4c0,-.1,-.1,-.3,-.2,-.4l-6.5,-6.4c-.2,-.2,-.5,-.2,-.7,0l-21.2,21.2c-.1,.1,-.2,.2,-.2,.3c0,.2,.1,.3,.2,.4l6.5,6.5c.1,.1,.2,.1,.3,.1m20.5,-21.7l-20.5,20.5L162.7,136l20.5,-20.4Z" class="gd_110"/>
<path d="M189.6,121.3l-6.4,-6.5l2.1,-2.1l6.5,6.5Z" class="ge_110"/>
<path d="M189.6,121.8c.2,0,.3,0,.4,-.1l2.1,-2.1c.1,-.1,.2,-.3,.2,-.4c0,-.2,-.1,-.3,-.2,-.4l-6.4,-6.5c-.2,-.2,-.6,-.2,-.8,0l-2.1,2.2c-.1,0,-.2,.2,-.2,.3c0,.2,.1,.3,.2,.4l6.5,6.5c.1,.1,.2,.1,.3,.1m1.4,-2.6l-1.4,1.4l-5.7,-5.8l1.4,-1.4Z" class="gd_110"/>
<path d="M195.4,115.6l-6.5,-6.5l-3.6,3.6l6.5,6.5Z" class="gf_110"/>
<path d="M191.8,119.7c.1,0,.2,0,.3,-.1l3.7,-3.7c.2,-.2,.2,-.5,0,-.7l-6.5,-6.5c-.2,-.2,-.6,-.2,-.8,0l-3.6,3.6c-.2,.2,-.2,.6,0,.8l6.5,6.5c.1,.1,.2,.1,.4,.1m2.8,-4.1l-2.8,2.8L186,112.7l2.9,-2.9Z" class="gd_110"/>
<path d="M157.3,147.2L162,136l6.4,6.5Z" class="g1_110"/>
<path d="M157.3,147.7c.1,0,.2,0,.2,-.1L168.6,143c.2,-.1,.3,-.2,.4,-.4c0,-.2,-.1,-.3,-.2,-.5l-6.5,-6.4c-.1,-.2,-.3,-.2,-.5,-.2c-.1,.1,-.3,.2,-.3,.3l-4.7,11.1c0,.2,0,.5,.1,.6c.1,.1,.3,.2,.4,.2m10.2,-5.4l-9.2,3.9l3.8,-9.2Z" class="gd_110"/>
<path d="M157.3,147.2l2.3,-5.4l3.1,3.1Z" class="gd_110"/>
<path d="M157.3,147.7c.1,0,.2,0,.2,-.1l5.4,-2.2c.1,-.1,.3,-.2,.3,-.4c0,-.2,0,-.3,-.1,-.5l-3.2,-3.1c-.1,-.1,-.3,-.2,-.4,-.1c-.2,0,-.4,.1,-.4,.3l-2.3,5.3c0,.2,0,.5,.1,.6c.1,.1,.3,.2,.4,.2m4.5,-3l-3.5,1.5l1.4,-3.5Z" class="gd_110"/>
<path d="M187.9,119.5l-3,-2.9l-21.2,21.2l3,3Z" class="gg_110"/>
<path d="M166.7,141.3c.1,0,.2,-.1,.3,-.2l21.3,-21.2c.1,-.1,.1,-.2,.1,-.4c0,-.1,0,-.2,-.1,-.3l-3,-3c-.2,-.2,-.5,-.2,-.8,0l-21.2,21.2c-.1,.1,-.1,.3,-.1,.4c0,.1,0,.3,.1,.4l3,2.9c.1,.1,.2,.2,.4,.2m20.4,-21.8L166.7,140l-2.2,-2.2l20.4,-20.5Z" class="gd_110"/>
<path d="M32.1,45.1H9.2m958.3,0h22.9M32.1,1331.3H9.2m958.3,0h22.9M45.1,32.1V9.2m0,1335.1v22.9M954.5,32.1V9.2m0,1335.1v22.9" class="gh_110"/>
<path d="M32.1,45.1H9.2m958.3,0h22.9M32.1,1331.3H9.2m958.3,0h22.9M45.1,32.1V9.2m0,1335.1v22.9M954.5,32.1V9.2m0,1335.1v22.9" class="gi_110"/>
<path d="M27.5,32.1H0m972.1,0h27.5M27.5,1344.3H0m972.1,0h27.5M32.1,27.5V0m0,1348.9v27.5M967.5,27.5V0m0,1348.9v27.5" class="gh_110"/>
<path d="M27.5,32.1H0m972.1,0h27.5M27.5,1344.3H0m972.1,0h27.5M32.1,27.5V0m0,1348.9v27.5M967.5,27.5V0m0,1348.9v27.5" class="gi_110"/>
</svg>