<?xml version="1.0" encoding="UTF-8" standalone="no"?>
<!DOCTYPE svg PUBLIC "-//W3C//DTD SVG 1.1//EN"
"http://www.w3.org/Graphics/SVG/1.1/DTD/svg11.dtd">
<svg viewBox="0 0 999 1376" version="1.1" xmlns="http://www.w3.org/2000/svg" xmlns:xlink="http://www.w3.org/1999/xlink">
<defs>
<clipPath id="c0_40"><path d="M261.1,427.7V326.4H510.5V427.7Z"/></clipPath>
<clipPath id="c1_40"><path d="M305.2,650.8C273.6,650.8,248,625.2,248,593.5c0,-.2,0,-.5,0,-.8c.4,-31.2,25.9,-56.4,57.2,-56.4c31.3,0,56.7,25.1,57.2,56.3c.1,.3,.1,.6,.1,.9c0,31.7,-25.7,57.3,-57.3,57.3Z"/></clipPath>
<clipPath id="c2_40"><path d="M443.7,650.8c-31.7,0,-57.3,-25.6,-57.3,-57.3c0,-15.7,6.4,-30,16.7,-40.3c5.7,-5.8,12.6,-10.3,20.4,-13.2h40.3c21.1,7.9,36.3,28,37.1,51.7c0,.6,0,1.2,0,1.8c0,31.7,-25.6,57.3,-57.2,57.3Z"/></clipPath>
<clipPath id="c3_40"><path d="M582.1,650.8c-31.6,0,-57.3,-25.6,-57.3,-57.3c0,-12.6,4.2,-24.3,11.1,-33.8c10.5,-14.2,27.2,-23.4,46.2,-23.4c31.5,0,57.1,25.5,57.2,57c0,.1,0,.2,0,.2c0,31.7,-25.6,57.3,-57.2,57.3Z"/></clipPath>
<clipPath id="c4_40"><path d="M720.5,650.8c-31.6,0,-57.2,-25.6,-57.2,-57.3c0,-14.1,5.1,-27.1,13.7,-37.1c10.5,-12.3,26.1,-20.1,43.5,-20.1c31.5,0,57.1,25.5,57.2,57c0,.1,0,.2,0,.2c0,31.7,-25.6,57.3,-57.2,57.3Z"/></clipPath>
<clipPath id="c5_40"><path d="M250,798.2c-31.6,0,-57.2,-25.6,-57.2,-57.2c0,-31.7,25.6,-57.3,57.2,-57.3c31.6,0,57.2,25.6,57.2,57.3c0,31.6,-25.6,57.2,-57.2,57.2Z"/></clipPath>
<clipPath id="c6_40"><path d="M375.4,798.2v0c-31.6,0,-57.2,-25.6,-57.2,-57.2c0,-15.8,6.4,-30.2,16.8,-40.5c10.3,-10.4,24.6,-16.8,40.4,-16.8c31.6,0,57.3,25.6,57.3,57.3c0,31.6,-25.7,57.2,-57.3,57.2Z"/></clipPath>
<clipPath id="c7_40"><path d="M500.9,798.2c-31.6,0,-57.2,-25.6,-57.2,-57.2c0,-12.4,3.8,-23.8,10.5,-33.1c10.3,-14.6,27.4,-24.2,46.7,-24.2c31.6,0,57.2,25.6,57.2,57.3c0,7.6,-1.5,14.8,-4.2,21.5c-8.5,20.9,-29,35.7,-53,35.7Z"/></clipPath>
<clipPath id="c8_40"><path d="M626.3,798.2c-31.6,0,-57.2,-25.6,-57.2,-57.2c0,-31.7,25.6,-57.3,57.2,-57.3c31.6,0,57.3,25.6,57.3,57.3c0,31.6,-25.7,57.2,-57.3,57.2Z"/></clipPath>
<clipPath id="c9_40"><path d="M751.8,798.2v0c-31.5,0,-57,-25.4,-57.2,-56.9v-.7c0,-7.3,1.4,-14.3,3.9,-20.7c8.4,-21.2,29.1,-36.2,53.3,-36.2c31.6,0,57.2,25.6,57.2,57.3c0,31.6,-25.6,57.2,-57.2,57.2Z"/></clipPath>
<clipPath id="ca_40"><path d="M319.9,997.1V894.7H433.1V997.1Z"/></clipPath>
<clipPath id="cb_40"><path d="M189.8,997.1V894.7H311.5V997.1Z"/></clipPath>
<clipPath id="cc_40"><path d="M700.9,999.1V896.7H814V999.1Z"/></clipPath>
<clipPath id="cd_40"><path d="M566,1003.1V900.7H679.9v102.4Z"/></clipPath>
<clipPath id="ce_40"><path d="M443.2,993.1V890.7H557.1V993.1Z"/></clipPath>
<style type="text/css"><![CDATA[
.g0_40{
fill: none;
stroke: #6381B7;
stroke-width: 0.763;
}
.g1_40{
fill: #48484A;
}
.g2_40{
fill: #F0E8F3;
}
.g3_40{
fill: #766FA6;
}
.g4_40{
fill: #FDE8D8;
}
.g5_40{
fill: #D5EEF4;
}
.g6_40{
fill: #E6EFCF;
}
.g7_40{
fill: #FDEEDF;
}
.g8_40{
fill: #E0F1F6;
}
.g9_40{
fill: #25408F;
}
.ga_40{
fill: #6381B7;
}
.gb_40{
fill: #F37553;
}
.gc_40{
fill: #363637;
}
.gd_40{
fill: #F0D73F;
}
.ge_40{
fill: #506CB4;
}
.gf_40{
fill: #5CC4BE;
}
.gg_40{
fill: none;
stroke: #FFF;
stroke-width: 1.909;
stroke-miterlimit: 10;
}
.gh_40{
fill: none;
stroke: #000;
stroke-width: 0.381;
stroke-miterlimit: 10;
}
]]></style>
</defs>
<path d="M145.4,170c0,0,-13,0,-13,13v841.3c0,0,0,13,13,13H833.2c0,0,13,0,13,-13V183c0,0,0,-13,-13,-13H145.4Z" class="g0_40"/>
<path d="M171,260.8c0,0,-4.3,0,-4.3,4.3v14.4c0,0,0,4.3,4,5.7l52.5,18.3c0,0,4.1,1.4,4.1,-2.9V265.1c0,0,0,-4.3,-4.4,-4.3Z" class="g1_40"/>
<path d="M192.1,248c0,0,-13,0,-13,13V479.9c0,0,0,13,13,13H809.2c0,0,13,0,13,-13V261c0,0,0,-13,-13,-13Z" class="g2_40"/>
<path d="M171,258.6c0,0,-4.3,0,-4.3,4.4v16.9c0,0,0,4.3,4.3,4.3h32.6c0,0,4.3,0,4.3,-4.3V263c0,0,0,-4.4,-4.3,-4.4Z" class="g3_40"/>
<image clip-path="url(#c0_40)" preserveAspectRatio="none" x="259" y="325" width="253" height="104" xlink:href="img/1.jpg"/>
<path d="M183,518.7c0,0,-11.2,0,-11.2,11.2V667.1H830.6V529.9c0,0,0,-11.2,-11.1,-11.2H183Z" class="g4_40"/>
<path d="M183,846.8c0,0,-11.2,0,-11.2,11.2v149.3c0,0,0,11.2,11.2,11.2H819.5c0,0,11.1,0,11.1,-11.2V858c0,0,0,-11.2,-11.1,-11.2H183Z" class="g5_40"/>
<path d="M171.8,666.4V803.6c0,0,0,11.2,11.2,11.2H819.5c0,0,11.1,0,11.1,-11.2V666.4H171.8Z" class="g6_40"/>
<image clip-path="url(#c1_40)" preserveAspectRatio="none" x="247" y="535" width="117" height="117" xlink:href="img/2.jpg"/>
<image clip-path="url(#c2_40)" preserveAspectRatio="none" x="385" y="540" width="118" height="112" xlink:href="img/3.jpg"/>
<image clip-path="url(#c3_40)" preserveAspectRatio="none" x="523" y="535" width="118" height="117" xlink:href="img/4.jpg"/>
<image clip-path="url(#c4_40)" preserveAspectRatio="none" x="662" y="535" width="117" height="117" xlink:href="img/5.jpg"/>
<image clip-path="url(#c5_40)" preserveAspectRatio="none" x="191" y="682" width="118" height="118" xlink:href="img/6.jpg"/>
<image clip-path="url(#c6_40)" preserveAspectRatio="none" x="317" y="684" width="117" height="116" xlink:href="img/7.jpg"/>
<image clip-path="url(#c7_40)" preserveAspectRatio="none" x="442" y="682" width="118" height="118" xlink:href="img/8.jpg"/>
<image clip-path="url(#c8_40)" preserveAspectRatio="none" x="568" y="683" width="117" height="117" xlink:href="img/9.jpg"/>
<image clip-path="url(#c9_40)" preserveAspectRatio="none" x="695" y="684" width="116" height="116" xlink:href="img/10.jpg"/>
<image clip-path="url(#ca_40)" preserveAspectRatio="none" x="320" y="894" width="113" height="104" xlink:href="img/11.jpg"/>
<image clip-path="url(#cb_40)" preserveAspectRatio="none" x="189" y="894" width="123" height="103" xlink:href="img/12.jpg"/>
<image clip-path="url(#cc_40)" preserveAspectRatio="none" x="701" y="896" width="113" height="103" xlink:href="img/13.jpg"/>
<image clip-path="url(#cd_40)" preserveAspectRatio="none" x="566" y="900" width="114" height="103" xlink:href="img/14.jpg"/>
<image clip-path="url(#ce_40)" preserveAspectRatio="none" x="443" y="890" width="115" height="104" xlink:href="img/15.jpg"/>
<path d="M180.4,556.3H259V525.8H180.4v30.5Z" class="g7_40"/>
<path d="M180.4,874.5H447.8V859.2H180.4v15.3Z" class="g8_40"/>
<path d="M175,894.4H394.1V854.6H175v39.8Z" class="g8_40"/>
<path d="M132.2,126.3v22.2l11.7,10.2V136.5Z" class="g9_40"/>
<path d="M132.2,109.5v39H829.9c0,0,16.9,0,16.9,-16.8v-5.4c0,0,0,-16.8,-16.9,-16.8Z" class="ga_40"/>
<path d="M166,111.6c.7,-.6,1.7,-.8,2.5,-.6l1.3,-1.3l-6.2,-6.1l-6.1,6.1l-1.3,-1.3c.2,-.8,0,-1.8,-.6,-2.4c-1,-1,-2.6,-1,-3.6,0c-1,1,-1,2.6,0,3.6c.6,.6,1.6,.9,2.4,.6l1.3,1.3l-6.1,6.1l6.1,6.2l-1.3,1.3c-.8,-.3,-1.8,-.1,-2.4,.6c-1,1,-1,2.6,0,3.6c1,1,2.6,1,3.6,0c.6,-.7,.9,-1.6,.6,-2.4l1.3,-1.3l6.1,6.1l6.2,-6.1l-1.3,-1.3c-.9,.2,-1.8,0,-2.5,-.7c-1,-1,-1,-2.6,0,-3.6c1,-1,2.6,-1,3.6,0c.7,.7,.9,1.6,.7,2.5l1.3,1.3l6.1,-6.2l-6.1,-6.1l-1.3,1.3c.2,.8,0,1.8,-.7,2.4c-1,1,-2.6,1,-3.6,0c-1,-.9,-1,-2.6,0,-3.6Z" class="gb_40"/>
<path d="M163.6,132.3l-6.1,-6.2l-.8,.9c.1,.9,-.2,1.9,-.8,2.6c-1.2,1.1,-3.1,1.1,-4.2,0c-1.2,-1.2,-1.2,-3,0,-4.2c.7,-.7,1.6,-1,2.6,-.8l.8,-.8L149,117.6l6.1,-6.1l-.8,-.8c-1,.1,-1.9,-.2,-2.6,-.8c-.6,-.6,-.9,-1.3,-.9,-2.1c0,-.8,.3,-1.5,.9,-2.1c1.1,-1.1,3,-1.1,4.1,0c.7,.7,1,1.7,.9,2.6l.8,.8l6.1,-6.1l6.7,6.7l-1.7,1.7h-.2c-.7,-.2,-1.5,0,-2.1,.5c-.8,.9,-.8,2.2,0,3.1c.9,.8,2.2,.8,3.1,0c.5,-.6,.7,-1.4,.5,-2.1v-.2l1.7,-1.7l6.7,6.6l-6.7,6.7l-1.8,-1.7l.1,-.2c.2,-.8,0,-1.5,-.6,-2.1c-.4,-.4,-.9,-.6,-1.5,-.6c-.5,0,-1.1,.2,-1.5,.6c-.8,.8,-.8,2.2,0,3c.5,.6,1.3,.8,2.1,.6l.2,-.1l1.7,1.8ZM157.5,125l6.1,6.1l5.6,-5.5l-.8,-.9c-1,.2,-2,-.1,-2.7,-.8c-.5,-.5,-.8,-1.3,-.8,-2.1c0,-.7,.3,-1.5,.8,-2c.6,-.6,1.3,-.9,2.1,-.9c.8,0,1.6,.3,2.1,.9c.7,.6,1,1.6,.8,2.6l.9,.8l5.5,-5.6l-5.5,-5.5l-.9,.8c.2,1,-.1,1.9,-.8,2.6c-1.1,1.2,-3,1.2,-4.1,0c-1.2,-1.1,-1.2,-3,0,-4.1c.6,-.7,1.6,-1,2.6,-.8l.8,-.9l-5.6,-5.6l-6.1,6.2l-1.7,-1.7v-.3c.2,-.7,0,-1.5,-.5,-2c-.9,-.9,-2.2,-.9,-3.1,0c-.4,.4,-.6,.9,-.6,1.5c0,.6,.2,1.1,.6,1.5c.6,.5,1.4,.8,2.1,.6l.2,-.1l1.8,1.7l-6.2,6.1l6.2,6.2l-1.8,1.7l-.2,-.1c-.7,-.2,-1.5,.1,-2,.6c-.9,.8,-.9,2.2,0,3c.8,.9,2.2,.9,3,0c.5,-.5,.7,-1.3,.5,-2v-.3Z" class="gc_40"/>
<path d="M196.6,122.1c.9,0,1.8,.5,2.2,1.3h1.8v-8.7h-8.7v-1.8c.8,-.4,1.3,-1.2,1.3,-2.2c0,-1.4,-1.1,-2.5,-2.5,-2.5c-1.5,0,-2.6,1.1,-2.6,2.5c0,1,.5,1.8,1.3,2.2v1.8h-8.7v8.7h-1.8c-.4,-.8,-1.2,-1.3,-2.2,-1.3c-1.4,0,-2.5,1.2,-2.5,2.6c0,1.4,1.1,2.5,2.5,2.5c1,0,1.8,-.5,2.2,-1.2h1.8v8.6h8.7v-1.8c-.8,-.4,-1.3,-1.2,-1.3,-2.2c0,-1.4,1.2,-2.5,2.6,-2.5c1.4,0,2.5,1.1,2.5,2.5c0,1,-.5,1.8,-1.3,2.2v1.8h8.7V126h-1.8c-.4,.7,-1.2,1.2,-2.2,1.2c-1.4,0,-2.5,-1.1,-2.5,-2.5c0,-1.4,1.1,-2.6,2.5,-2.6Z" class="gd_40"/>
<path d="M201,135h-9.5v-2.4l.2,-.1c.7,-.4,1.1,-1.1,1.1,-1.9c0,-1.2,-1,-2.1,-2.1,-2.1c-1.2,0,-2.2,.9,-2.2,2.1c0,.8,.4,1.5,1.1,1.9l.2,.1V135h-9.5v-8.6h-1.2c-.5,.7,-1.4,1.2,-2.4,1.2c-1.6,0,-2.9,-1.3,-2.9,-2.9c0,-1.6,1.3,-3,2.9,-3c1,0,1.9,.5,2.4,1.3h1.2v-8.7H189v-1.1c-.8,-.6,-1.3,-1.5,-1.3,-2.5c0,-1.6,1.3,-2.9,3,-2.9c1.6,0,2.9,1.3,2.9,2.9c0,1,-.5,1.9,-1.3,2.5v1.1H201v9.5h-2.4l-.1,-.2c-.4,-.6,-1.1,-1.1,-1.9,-1.1c-.6,0,-1.1,.3,-1.5,.7c-.4,.4,-.6,.9,-.6,1.5c0,1.2,.9,2.1,2.1,2.1c.8,0,1.5,-.4,1.9,-1l.1,-.2H201Zm-8.7,-.8h7.9v-7.8H199c-.5,.7,-1.4,1.2,-2.4,1.2c-1.6,0,-2.9,-1.3,-2.9,-2.9c0,-.8,.3,-1.5,.8,-2.1c.6,-.5,1.3,-.9,2.1,-.9c1,0,1.9,.5,2.4,1.3h1.2v-7.9h-8.7v-2.4l.2,-.1c.7,-.4,1.1,-1.1,1.1,-1.9c0,-1.2,-1,-2.1,-2.1,-2.1c-1.2,0,-2.2,.9,-2.2,2.1c0,.8,.4,1.5,1.1,1.9l.2,.1v2.4h-8.7v8.7h-2.4l-.1,-.2c-.4,-.6,-1.1,-1.1,-1.9,-1.1c-1.2,0,-2.1,1,-2.1,2.2c0,1.2,.9,2.1,2.1,2.1c.8,0,1.5,-.4,1.9,-1l.1,-.2h2.4v8.6H189V133c-.8,-.5,-1.3,-1.4,-1.3,-2.4c0,-1.6,1.3,-2.9,3,-2.9c1.6,0,2.9,1.3,2.9,2.9c0,1,-.5,1.9,-1.3,2.4Z" class="gc_40"/>
<path d="M176.7,142c1,0,1.8,.5,2.2,1.3h1.8v-8.7H172v-1.8c.8,-.4,1.3,-1.2,1.3,-2.2c0,-1.4,-1.1,-2.5,-2.5,-2.5c-1.4,0,-2.6,1.1,-2.6,2.5c0,1,.5,1.8,1.3,2.2v1.8h-8.7v8.7H159c-.4,-.8,-1.2,-1.3,-2.2,-1.3c-1.4,0,-2.5,1.2,-2.5,2.6c0,1.4,1.1,2.5,2.5,2.5c1,0,1.8,-.5,2.2,-1.2h1.8v8.6h8.7v-1.8c-.8,-.4,-1.3,-1.2,-1.3,-2.2c0,-1.4,1.2,-2.5,2.6,-2.5c1.4,0,2.5,1.1,2.5,2.5c0,1,-.5,1.8,-1.3,2.2v1.8h8.7v-8.7h-1.8c-.4,.8,-1.2,1.3,-2.2,1.3c-1.4,0,-2.5,-1.1,-2.5,-2.5c0,-1.4,1.1,-2.6,2.5,-2.6Z" class="ge_40"/>
<path d="M181.1,154.9h-9.5v-2.4l.2,-.1c.7,-.4,1.1,-1.1,1.1,-1.9c0,-1.2,-1,-2.1,-2.1,-2.1c-1.2,0,-2.2,.9,-2.2,2.1c0,.8,.4,1.5,1.1,1.9l.2,.1v2.4h-9.5v-8.6h-1.2c-.5,.7,-1.4,1.2,-2.4,1.2c-1.6,0,-2.9,-1.3,-2.9,-2.9c0,-1.6,1.3,-3,2.9,-3c1,0,1.9,.5,2.4,1.3h1.2v-8.7h8.7V133c-.8,-.5,-1.3,-1.4,-1.3,-2.4c0,-1.6,1.3,-2.9,3,-2.9c1.6,0,2.9,1.3,2.9,2.9c0,1,-.5,1.9,-1.3,2.4v1.2h8.7v9.5h-2.4l-.1,-.2c-.4,-.7,-1.1,-1.1,-1.9,-1.1c-1.2,0,-2.1,1,-2.1,2.2c0,1.1,.9,2.1,2.1,2.1c.8,0,1.5,-.4,1.9,-1.1l.1,-.2h2.4Zm-8.7,-.8h7.9v-7.9h-1.2c-.5,.8,-1.4,1.3,-2.4,1.3c-1.6,0,-2.9,-1.3,-2.9,-2.9c0,-1.6,1.3,-3,2.9,-3c1,0,1.9,.5,2.4,1.3h1.2V135h-8.7v-2.4l.2,-.1c.7,-.4,1.1,-1.1,1.1,-1.9c0,-1.2,-1,-2.1,-2.1,-2.1c-1.2,0,-2.2,.9,-2.2,2.1c0,.8,.4,1.5,1.1,1.9l.2,.1V135h-8.7v8.7h-2.4l-.1,-.2c-.4,-.7,-1.1,-1.1,-1.9,-1.1c-1.2,0,-2.1,1,-2.1,2.2c0,1.2,.9,2.1,2.1,2.1c.8,0,1.5,-.4,1.9,-1l.1,-.2h2.4v8.6h7.9v-1.2c-.8,-.5,-1.3,-1.4,-1.3,-2.4c0,-1.6,1.3,-2.9,3,-2.9c1.6,0,2.9,1.3,2.9,2.9c0,1,-.5,1.9,-1.3,2.4Z" class="gc_40"/>
<path d="M196.6,142c.9,0,1.8,.5,2.2,1.3h1.8v-8.7h-8.7v-1.8c.8,-.4,1.3,-1.2,1.3,-2.2c0,-1.4,-1.1,-2.5,-2.5,-2.5c-1.5,0,-2.6,1.1,-2.6,2.5c0,1,.5,1.8,1.3,2.2v1.8h-8.7v8.7h-1.8c-.4,-.8,-1.2,-1.3,-2.2,-1.3c-1.4,0,-2.5,1.2,-2.5,2.6c0,1.4,1.1,2.5,2.5,2.5c1,0,1.8,-.5,2.2,-1.2h1.8v8.6h8.7v-1.8c-.8,-.4,-1.3,-1.2,-1.3,-2.2c0,-1.4,1.2,-2.5,2.6,-2.5c1.4,0,2.5,1.1,2.5,2.5c0,1,-.5,1.8,-1.3,2.2v1.8h8.7v-8.7h-1.8c-.4,.8,-1.2,1.3,-2.2,1.3c-1.4,0,-2.5,-1.1,-2.5,-2.5c0,-1.4,1.1,-2.6,2.5,-2.6Z" class="gf_40"/>
<path d="M201,154.9h-9.5v-2.4l.2,-.1c.7,-.4,1.1,-1.1,1.1,-1.9c0,-1.2,-1,-2.1,-2.1,-2.1c-1.2,0,-2.2,.9,-2.2,2.1c0,.8,.4,1.5,1.1,1.9l.2,.1v2.4h-9.5v-8.6h-1.2c-.5,.7,-1.4,1.2,-2.4,1.2c-1.6,0,-2.9,-1.3,-2.9,-2.9c0,-1.6,1.3,-3,2.9,-3c1,0,1.9,.5,2.4,1.3h1.2v-8.7H189V133c-.8,-.5,-1.3,-1.4,-1.3,-2.4c0,-1.6,1.3,-2.9,3,-2.9c1.6,0,2.9,1.3,2.9,2.9c0,1,-.5,1.9,-1.3,2.4v1.2H201v9.5h-2.4l-.1,-.2c-.4,-.7,-1.1,-1.1,-1.9,-1.1c-.6,0,-1.1,.3,-1.5,.7c-.4,.4,-.6,.9,-.6,1.5c0,1.1,.9,2.1,2.1,2.1c.8,0,1.5,-.4,1.9,-1.1l.1,-.2H201Zm-8.7,-.8h7.9v-7.9H199c-.5,.8,-1.4,1.3,-2.4,1.3c-1.6,0,-2.9,-1.3,-2.9,-2.9c0,-.8,.3,-1.5,.8,-2.1c.6,-.6,1.3,-.9,2.1,-.9c1,0,1.9,.5,2.4,1.3h1.2V135h-8.7v-2.4l.2,-.1c.7,-.4,1.1,-1.1,1.1,-1.9c0,-1.2,-1,-2.1,-2.1,-2.1c-1.2,0,-2.2,.9,-2.2,2.1c0,.8,.4,1.5,1.1,1.9l.2,.1V135h-8.7v8.7h-2.4l-.1,-.2c-.4,-.7,-1.1,-1.1,-1.9,-1.1c-1.2,0,-2.1,1,-2.1,2.2c0,1.2,.9,2.1,2.1,2.1c.8,0,1.5,-.4,1.9,-1l.1,-.2h2.4v8.6H189v-1.2c-.8,-.5,-1.3,-1.4,-1.3,-2.4c0,-1.6,1.3,-2.9,3,-2.9c1.6,0,2.9,1.3,2.9,2.9c0,1,-.5,1.9,-1.3,2.4Z" class="gc_40"/>
<path d="M32.1,45.1H9.2m958.3,0h22.9M32.1,1331.3H9.2m958.3,0h22.9M45.1,32.1V9.2m0,1335.1v22.9M954.5,32.1V9.2m0,1335.1v22.9" class="gg_40"/>
<path d="M32.1,45.1H9.2m958.3,0h22.9M32.1,1331.3H9.2m958.3,0h22.9M45.1,32.1V9.2m0,1335.1v22.9M954.5,32.1V9.2m0,1335.1v22.9" class="gh_40"/>
<path d="M27.5,32.1H0m972.1,0h27.5M27.5,1344.3H0m972.1,0h27.5M32.1,27.5V0m0,1348.9v27.5M967.5,27.5V0m0,1348.9v27.5" class="gg_40"/>
<path d="M27.5,32.1H0m972.1,0h27.5M27.5,1344.3H0m972.1,0h27.5M32.1,27.5V0m0,1348.9v27.5M967.5,27.5V0m0,1348.9v27.5" class="gh_40"/>
</svg>