<?xml version="1.0" encoding="UTF-8" standalone="no"?>
<!DOCTYPE svg PUBLIC "-//W3C//DTD SVG 1.1//EN"
"http://www.w3.org/Graphics/SVG/1.1/DTD/svg11.dtd">
<svg viewBox="0 0 999 1376" version="1.1" xmlns="http://www.w3.org/2000/svg" xmlns:xlink="http://www.w3.org/1999/xlink">
<defs>
<clipPath id="c0_141"><path d="M32.1,1344.3V32.1H967.5V1344.3Z"/></clipPath>
<clipPath id="c1_141"><path d="M215,741V618.9H854.2V741Z"/></clipPath>
<clipPath id="c2_141"><path d="M215,915.6V789.1H854.2V915.6Z"/></clipPath>
<style type="text/css"><![CDATA[
.g0_141{
fill: #FEFCF4;
}
.g1_141{
fill: #F16865;
}
.g2_141{
fill: #8B9FCA;
}
.g3_141{
fill: none;
stroke: #6381B7;
stroke-width: 0.381;
stroke-dasharray: 2,1;
}
.g4_141{
fill: none;
stroke: #6381B7;
stroke-width: 0.381;
}
.g5_141{
fill: #6381B7;
}
.g6_141{
fill: #FFF;
}
.g7_141{
fill: none;
stroke: #6381B7;
stroke-width: 0.763;
}
.g8_141{
fill: #E3E7F2;
}
.g9_141{
fill: none;
stroke: #231F20;
stroke-width: 0.458;
stroke-miterlimit: 10;
}
.ga_141{
fill: #FEF9F9;
}
.gb_141{
fill: none;
stroke: #A164A9;
stroke-width: 1.527;
stroke-linecap: round;
stroke-linejoin: round;
stroke-dasharray: 0,5;
}
.gc_141{
fill: none;
stroke: #A164A9;
stroke-width: 1.527;
stroke-linecap: round;
stroke-linejoin: round;
}
.gd_141{
fill: #A164A9;
}
.ge_141{
fill: none;
stroke: #8CC63E;
stroke-width: 1.527;
stroke-linecap: round;
stroke-linejoin: round;
stroke-dasharray: 0,5;
}
.gf_141{
fill: none;
stroke: #8CC63E;
stroke-width: 1.527;
stroke-linecap: round;
stroke-linejoin: round;
}
.gg_141{
fill: #8CC63E;
}
.gh_141{
fill: #6CCFF6;
}
.gi_141{
fill: none;
stroke: #231F20;
stroke-width: 1.375;
stroke-miterlimit: 10;
}
.gj_141{
fill: #485E75;
}
.gk_141{
fill: #EAD646;
}
.gl_141{
fill: none;
stroke: #231F20;
stroke-width: 1.527;
}
.gm_141{
fill: none;
stroke: #FFF;
stroke-width: 1.909;
stroke-miterlimit: 10;
}
.gn_141{
fill: none;
stroke: #000;
stroke-width: 0.381;
stroke-miterlimit: 10;
}
]]></style>
</defs>
<path clip-path="url(#c0_141)" d="M-877.3,1344.3H45.1V32.1H-877.3V1344.3Z" class="g0_141"/>
<path d="M45.1,1344.3H967.5V32.1H45.1V1344.3Z" class="g0_141"/>
<path clip-path="url(#c0_141)" d="M867.9,166.7c0,0,30.3,0,30.3,-30.3v-4.3c0,0,0,-30.3,-30.3,-30.3H-735.4c0,0,-30.4,0,-30.4,30.3v4.3c0,0,0,30.3,30.4,30.3Z" class="g1_141"/>
<path d="M647.4,503.1c0,0,-4.3,0,-4.3,4.3v10.8c0,0,0,4.4,4.3,4.4h30.3c0,0,4.4,0,4.4,-4.4V507.4c0,0,0,-4.3,-4.4,-4.3Z" class="g2_141"/>
<path d="M634.2,495.6v34.8m1.4,1H866.8m.9,-1.3V495.2m-1.3,-1H635.2" class="g3_141"/>
<path d="M634.2,530.8v.6h.6m232.3,0h.6v-.6m0,-36v-.6h-.6m-232.3,0h-.6v.6" class="g4_141"/>
<path d="M747,975.5c0,0,-4.3,0,-4.3,4.3v10.9c0,0,0,4.3,4.3,4.3h30.3c0,0,4.4,0,4.4,-4.3V979.8c0,0,0,-4.3,-4.4,-4.3Z" class="g5_141"/>
<path d="M733.8,968v34.9m1.4,.9H866.8m.9,-1.3V967.6m-1.3,-.9H734.8" class="g3_141"/>
<path d="M733.8,1003.3v.5h.6m132.7,0h.6v-.5m0,-36.1v-.5h-.6m-132.7,0h-.6v.5" class="g4_141"/>
<path d="M166.7,218.7c0,0,-13,0,-13,13V464.8c0,0,0,13,13,13H854.5c0,0,13,0,13,-13V231.7c0,0,0,-13,-13,-13Z" class="g6_141"/>
<path d="M166.7,218.7c0,0,-13,0,-13,13V464.8c0,0,0,13,13,13H854.5c0,0,13,0,13,-13V231.7c0,0,0,-13,-13,-13H166.7Z" class="g7_141"/>
<path d="M200.8,266.4c0,0,-4.4,0,-4.4,4.4V409.4c0,0,0,4.3,4.4,4.3H825.9c0,0,4.3,0,4.3,-4.3V270.8c0,0,0,-4.4,-4.3,-4.4Z" class="g8_141"/>
<path d="M273.2,336.2H402.5" class="g9_141"/>
<image preserveAspectRatio="none" x="714" y="55" width="120" height="139" xlink:href="img/1.png"/>
<path d="M154.1,960.1h713V519.8h-713V960.1Z" class="ga_141"/>
<path d="M154.1,524.4V957.8m4.6,2.3H864.9m2.2,-4.6V522.1m-4.5,-2.2H156.4" class="gb_141"/>
<path d="M154.1,960.1v0m713.1,0v0m0,-440.3v0m-713.1,0v0" class="gc_141"/>
<path d="M153.3,534.2V495.8c0,0,0,-8.6,8.7,-8.6H859.3c0,0,8.6,0,8.6,8.6v39Z" class="gd_141"/>
<image clip-path="url(#c1_141)" preserveAspectRatio="none" x="215" y="619" width="639" height="123" xlink:href="img/2.png"/>
<path d="M218.3,734.8H848.1V622.2H218.3V734.8Z" class="g6_141"/>
<image clip-path="url(#c2_141)" preserveAspectRatio="none" x="215" y="790" width="639" height="126" xlink:href="img/3.png"/>
<path d="M218.3,909.3H848.1V792.4H218.3V909.3Z" class="g6_141"/>
<path d="M154.1,1243.9h713V1065.2h-713v178.7Z" class="g6_141"/>
<path d="M154.1,1069.8v171.8m4.6,2.3H864.9m2.2,-4.6V1067.5m-4.5,-2.3H156.4" class="ge_141"/>
<path d="M154.1,1243.9v0m713.1,0v0m0,-178.7v0m-713.1,0v0" class="gf_141"/>
<path d="M153.3,1069.9v-28.7c0,0,0,-8.6,8.7,-8.6H859.3c0,0,8.6,0,8.6,8.6v29.2Z" class="gg_141"/>
<path d="M187.2,1046.4V1040c0,-4.8,-3.9,-8.7,-8.7,-8.7c-4.8,0,-8.6,3.9,-8.6,8.7v6.4Z" class="gh_141"/>
<path d="M187.2,1046.4V1040c0,-4.8,-3.9,-8.7,-8.7,-8.7c-4.8,0,-8.6,3.9,-8.6,8.7v6.4h17.3Z" class="gi_141"/>
<path d="M169.9,1048.1v5.4c0,4.8,3.8,8.7,8.6,8.7c4.8,0,8.7,-3.9,8.7,-8.7v-5.4Z" class="gh_141"/>
<path d="M169.9,1048.1v5.4c0,4.8,3.8,8.7,8.6,8.7c4.8,0,8.7,-3.9,8.7,-8.7v-5.4H169.9Z" class="gi_141"/>
<path d="M178.4,1067c-7.1,0,-13,-5.9,-13,-13.2h2.4c0,6,4.8,10.8,10.6,10.8c5.8,0,10.6,-4.8,10.6,-10.8h2.4c0,7.3,-5.8,13.2,-13,13.2Z" class="gj_141"/>
<path d="M178.4,1067c-7.1,0,-13,-5.9,-13,-13.2h2.4c0,6,4.8,10.8,10.6,10.8c5.8,0,10.6,-4.8,10.6,-10.8h2.4c0,7.3,-5.8,13.2,-13,13.2Z" class="gi_141"/>
<path d="M177.5,1074.2h2.4v-8.1h-2.4v8.1Z" class="gj_141"/>
<path d="M177.5,1074.2h2.4v-8.1h-2.4v8.1Z" class="gi_141"/>
<path d="M178.6,1070.6c-3.6,0,-6.6,2.1,-6.7,4.8h13.4c-.1,-2.7,-3.1,-4.8,-6.7,-4.8Z" class="gj_141"/>
<path d="M178.6,1070.6c-3.6,0,-6.6,2.1,-6.7,4.8h13.4c-.1,-2.7,-3.1,-4.8,-6.7,-4.8Z" class="gi_141"/>
<path d="M201.3,1026.1c-6.5,0,-11.9,5.3,-11.9,11.9c0,2.7,.9,5.2,2.4,7.2l-1.5,5.3l5.5,-1.9c1.7,.8,3.5,1.3,5.5,1.3c6.6,0,12,-5.3,12,-11.9c0,-6.6,-5.4,-11.9,-12,-11.9Z" class="gk_141"/>
<path d="M201.3,1026.1c-6.5,0,-11.9,5.3,-11.9,11.9c0,2.7,.9,5.2,2.4,7.2l-1.5,5.3l5.5,-1.9c1.7,.8,3.5,1.3,5.5,1.3c6.6,0,12,-5.3,12,-11.9c0,-6.6,-5.4,-11.9,-12,-11.9Z" class="gi_141"/>
<path d="M196.9,1037.8c0,.8,-.7,1.4,-1.4,1.4c-.8,0,-1.4,-.6,-1.4,-1.4c0,-.8,.6,-1.4,1.4,-1.4c.7,0,1.4,.6,1.4,1.4Z" class="g6_141"/>
<path d="M196.9,1037.8c0,.8,-.7,1.4,-1.4,1.4c-.8,0,-1.4,-.6,-1.4,-1.4c0,-.8,.6,-1.4,1.4,-1.4c.7,0,1.4,.6,1.4,1.4Z" class="gi_141"/>
<path d="M203,1037.8c0,.8,-.6,1.4,-1.4,1.4c-.8,0,-1.4,-.6,-1.4,-1.4c0,-.7,.6,-1.3,1.4,-1.3c.8,0,1.4,.6,1.4,1.3Z" class="g6_141"/>
<path d="M203,1037.8c0,.8,-.6,1.4,-1.4,1.4c-.8,0,-1.4,-.6,-1.4,-1.4c0,-.7,.6,-1.3,1.4,-1.3c.8,0,1.4,.6,1.4,1.3Z" class="gi_141"/>
<path d="M209.1,1037.8c0,.8,-.6,1.4,-1.4,1.4c-.8,0,-1.4,-.6,-1.4,-1.4c0,-.7,.6,-1.3,1.4,-1.3c.8,0,1.4,.6,1.4,1.3Z" class="g6_141"/>
<path d="M209.1,1037.8c0,.8,-.6,1.4,-1.4,1.4c-.8,0,-1.4,-.6,-1.4,-1.4c0,-.7,.6,-1.3,1.4,-1.3c.8,0,1.4,.6,1.4,1.3Z" class="gi_141"/>
<path d="M785.7,1052.3c0,0,-.5,-9.9,8.6,-9.3c0,0,6.8,-.4,6.7,9.4m-15.3,-1.5v6.5c0,0,-3.4,.4,-4,-3c0,0,0,-3.7,4,-3.5Zm15.3,0v6.5c0,0,3.4,.4,3.9,-3c0,0,.1,-3.7,-3.9,-3.5Z" class="gl_141"/>
<path d="M32.1,45.1H9.2m958.3,0h22.9M32.1,1331.3H9.2m958.3,0h22.9M45.1,32.1V9.2m0,1335.1v22.9M954.5,32.1V9.2m0,1335.1v22.9" class="gm_141"/>
<path d="M32.1,45.1H9.2m958.3,0h22.9M32.1,1331.3H9.2m958.3,0h22.9M45.1,32.1V9.2m0,1335.1v22.9M954.5,32.1V9.2m0,1335.1v22.9" class="gn_141"/>
<path d="M27.5,32.1H0m972.1,0h27.5M27.5,1344.3H0m972.1,0h27.5M32.1,27.5V0m0,1348.9v27.5M967.5,27.5V0m0,1348.9v27.5" class="gm_141"/>
<path d="M27.5,32.1H0m972.1,0h27.5M27.5,1344.3H0m972.1,0h27.5M32.1,27.5V0m0,1348.9v27.5M967.5,27.5V0m0,1348.9v27.5" class="gn_141"/>
</svg>