<?xml version="1.0" encoding="UTF-8" standalone="no"?>
<!DOCTYPE svg PUBLIC "-//W3C//DTD SVG 1.1//EN"
"http://www.w3.org/Graphics/SVG/1.1/DTD/svg11.dtd">
<svg viewBox="0 0 999 1376" version="1.1" xmlns="http://www.w3.org/2000/svg" xmlns:xlink="http://www.w3.org/1999/xlink">
<defs>
<clipPath id="c0_236"><path d="M32.1,1344.3V32.1H967.5V1344.3Z"/></clipPath>
<clipPath id="c1_236"><path d="M186.7,291.4l-6.5,-2.1L163.8,275.4V218.3h72v73.1Z"/></clipPath>
<clipPath id="c2_236"><path d="M186.7,607.6l-6.5,-2.1L163.8,591.6V534.5h72v73.1Z"/></clipPath>
<clipPath id="c3_236"><path d="M229.2,515.5V440.6H314v74.9Z"/></clipPath>
<clipPath id="c4_236"><path d="M220,432.2V363.5H335.3v68.7Z"/></clipPath>
<style type="text/css"><![CDATA[
.g0_236{
fill: #FEFCF4;
}
.g1_236{
fill: #F16865;
}
.g2_236{
fill: #FAC3B8;
}
.g3_236{
fill: #EE314A;
}
.g4_236{
fill: #26292E;
}
.g5_236{
fill: #C5CACC;
}
.g6_236{
fill: #FFF;
}
.g7_236{
fill: #F1EBEB;
}
.g8_236{
fill: #F7943B;
}
.g9_236{
fill: #ACB5B9;
}
.ga_236{
fill: #CFD3D5;
}
.gb_236{
fill: #FCE8B0;
}
.gc_236{
fill: none;
stroke: #6381B7;
stroke-width: 0.763;
}
.gd_236{
fill: #E3E7F2;
}
.ge_236{
fill: none;
stroke: #231F20;
stroke-width: 0.381;
stroke-miterlimit: 10;
}
.gf_236{
fill: #6381B7;
}
.gg_236{
fill: none;
stroke: #6381B7;
stroke-width: 0.381;
stroke-dasharray: 2,1;
}
.gh_236{
fill: none;
stroke: #6381B7;
stroke-width: 0.381;
}
.gi_236{
fill: none;
stroke: #FFF;
stroke-width: 1.909;
stroke-miterlimit: 10;
}
.gj_236{
fill: none;
stroke: #000;
stroke-width: 0.381;
stroke-miterlimit: 10;
}
]]></style>
</defs>
<path d="M32.1,1344.3H954.5V32.1H32.1V1344.3Z" class="g0_236"/>
<g clip-path="url(#c0_236)">
<path d="M954.5,1344.3H1877V32.1H954.5V1344.3Z" class="g0_236"/>
<path d="M1777.4,166.7c0,0,30.3,0,30.3,-30.3v-4.3c0,0,0,-30.3,-30.3,-30.3H173.9c0,0,-30.3,0,-30.3,30.3v4.3c0,0,0,30.3,30.3,30.3Z" class="g1_236"/>
</g>
<path d="M186.5,132.1c0,27.1,-22,49,-49.1,49c-27,0,-49,-21.9,-49,-49c0,-27.1,22,-49.1,49,-49.1c27.1,0,49.1,22,49.1,49.1Z" class="g2_236"/>
<path d="M178.1,104.6c15.2,22.5,9.2,53,-13.2,68.1c-22.5,15.2,-53,9.3,-68.1,-13.2Z" class="g3_236"/>
<path d="M96.8,159.5h81.3V104.7H96.8v54.8Z" class="g4_236"/>
<path d="M137.7,156.8h16.8V136.6H137.7v20.2Z" class="g5_236"/>
<path d="M143.1,156.8h33.7V102.6H143.1v54.2Z" class="g5_236"/>
<path d="M141.6,103v50c.5,-.3,1,-.4,1.5,-.4h33.7v-50H143.1c-.5,0,-1,.2,-1.5,.4Z" class="g6_236"/>
<path d="M137.7,109v47.8c0,0,2.5,-3.1,3.9,-3.8V103c-2.2,1.1,-3.9,4.3,-3.9,6Z" class="g7_236"/>
<path d="M143.5,112.3h29.1v-1.4H143.5v1.4Z" class="g5_236"/>
<path d="M143.5,115.5h29.1v-1.4H143.5v1.4Z" class="g5_236"/>
<path d="M143.5,118.8h29.1v-1.5H143.5v1.5Z" class="g5_236"/>
<path d="M143.5,122h29.1v-1.5H143.5V122Z" class="g5_236"/>
<path d="M143.5,125.2h29.1v-1.5H143.5v1.5Z" class="g5_236"/>
<path d="M143.5,128.4h29.1v-1.5H143.5v1.5Z" class="g5_236"/>
<path d="M143.5,131.6h29.1v-1.5H143.5v1.5Z" class="g5_236"/>
<path d="M143.5,134.8h29.1v-1.5H143.5v1.5Z" class="g5_236"/>
<path d="M143.5,138h29.1v-1.4H143.5V138Z" class="g5_236"/>
<path d="M143.5,141.2h29.1v-1.4H143.5v1.4Z" class="g5_236"/>
<path d="M143.5,144.4h29.1V143H143.5v1.4Z" class="g5_236"/>
<path d="M143.5,147.6h29.1v-1.4H143.5v1.4Z" class="g5_236"/>
<path d="M159.7,150.9l1,-.9l1,.9v-49h-2Z" class="g8_236"/>
<path d="M120.9,156.8h16.8V136.6H120.9v20.2Z" class="g9_236"/>
<path d="M98.6,156.8h33.6V102.6H98.6v54.2Z" class="g9_236"/>
<path d="M98.6,102.6v50h33.6c.6,0,1.1,.1,1.6,.4V103c-.5,-.2,-1,-.4,-1.6,-.4Z" class="g6_236"/>
<path d="M133.8,103v50c1.4,.7,3.9,3.8,3.9,3.8V109c0,-1.7,-1.7,-4.9,-3.9,-6Z" class="ga_236"/>
<path d="M109.7,112.3h14.5v-1.4H109.7v1.4Z" class="g5_236"/>
<path d="M102.8,118.8h29.1v-1.5H102.8v1.5Z" class="g5_236"/>
<path d="M102.8,122h29.1v-1.5H102.8V122Z" class="g5_236"/>
<path d="M102.8,125.2h29.1v-1.5H102.8v1.5Z" class="g5_236"/>
<path d="M102.8,128.4h29.1v-1.5H102.8v1.5Z" class="g5_236"/>
<path d="M102.8,131.6h29.1v-1.5H102.8v1.5Z" class="g5_236"/>
<path d="M102.8,134.8h29.1v-1.5H102.8v1.5Z" class="g5_236"/>
<path d="M102.8,138h29.1v-1.4H102.8V138Z" class="g5_236"/>
<path d="M102.8,141.2h29.1v-1.4H102.8v1.4Z" class="g5_236"/>
<path d="M102.8,144.4h29.1V143H102.8v1.4Z" class="g5_236"/>
<path d="M102.8,147.6h29.1v-1.4H102.8v1.4Z" class="g5_236"/>
<path d="M219.3,220.5c0,0,-13,0,-13,13v47.6c0,0,0,13,13,13H834c0,0,13,0,13,-13V233.5c0,0,0,-13,-13,-13Z" class="gb_236"/>
<image clip-path="url(#c1_236)" preserveAspectRatio="none" x="162" y="217" width="75" height="76" xlink:href="img/1.png"/>
<path d="M214.1,286.7c0,0,-26.8,11.3,-51.1,-12.7c0,0,15.2,25.3,49.3,23.9c0,0,24.7,.4,20.2,-10.1c0,0,1.3,-4.4,-18.4,-1.1Z" class="gb_236"/>
<path d="M219.3,536.7c0,0,-13,0,-13,13v47.6c0,0,0,13,13,13H834c0,0,13,0,13,-13V549.7c0,0,0,-13,-13,-13Z" class="gb_236"/>
<image clip-path="url(#c2_236)" preserveAspectRatio="none" x="162" y="533" width="75" height="76" xlink:href="img/2.png"/>
<path d="M214.1,602.9c0,0,-26.8,11.3,-51.1,-12.7c0,0,15.2,25.3,49.3,23.9c0,0,24.7,.4,20.2,-10.1c0,0,1.3,-4.4,-18.4,-1.1Z" class="gb_236"/>
<path d="M145.1,304.7c0,0,-13,0,-13,13V512.4c0,0,0,13,13,13H832.9c0,0,13,0,13,-13V317.7c0,0,0,-13,-13,-13Z" class="g6_236"/>
<path d="M145.1,304.7c0,0,-13,0,-13,13V512.4c0,0,0,13,13,13H832.9c0,0,13,0,13,-13V317.7c0,0,0,-13,-13,-13H145.1Z" class="gc_236"/>
<image clip-path="url(#c3_236)" preserveAspectRatio="none" x="227" y="436" width="87" height="82" xlink:href="img/3.jpg"/>
<image clip-path="url(#c4_236)" preserveAspectRatio="none" x="218" y="359" width="118" height="73" xlink:href="img/4.jpg"/>
<path d="M145.1,621.4c0,0,-13,0,-13,13v550.2c0,0,0,13,13,13h688c0,0,13,0,13,-13V634.4c0,0,0,-13,-13,-13Z" class="g6_236"/>
<path d="M145.1,621.4c0,0,-13,0,-13,13v550.2c0,0,0,13,13,13h688c0,0,13,0,13,-13V634.4c0,0,0,-13,-13,-13h-688Z" class="gc_236"/>
<path d="M198.8,751H805.1V694.7H198.8V751Z" class="gd_236"/>
<path d="M420.6,719.8h84.1" class="ge_236"/>
<path d="M198.8,858H805.1V801.7H198.8V858Z" class="gd_236"/>
<path d="M296.3,826.8h84.1" class="ge_236"/>
<path d="M179.3,1090.9H803.8V943.7H179.3v147.2Z" class="gd_236"/>
<path d="M604.1,1214c0,0,-4.3,0,-4.3,4.3v10.8c0,0,0,4.4,4.3,4.4h30.3c0,0,4.4,0,4.4,-4.4v-10.8c0,0,0,-4.3,-4.4,-4.3Z" class="gf_236"/>
<path d="M590.9,1206.5v34.8m1.4,1H845.1m1,-1.3v-34.9m-1.4,-1H591.9" class="gg_236"/>
<path d="M590.9,1241.7v.6h.6m254,0h.6v-.6m0,-36v-.6h-.6m-254,0h-.6v.6" class="gh_236"/>
<path d="M32.1,45.1H9.2m958.3,0h22.9M32.1,1331.3H9.2m958.3,0h22.9M45.1,32.1V9.2m0,1335.1v22.9M954.5,32.1V9.2m0,1335.1v22.9" class="gi_236"/>
<path d="M32.1,45.1H9.2m958.3,0h22.9M32.1,1331.3H9.2m958.3,0h22.9M45.1,32.1V9.2m0,1335.1v22.9M954.5,32.1V9.2m0,1335.1v22.9" class="gj_236"/>
<path d="M27.5,32.1H0m972.1,0h27.5M27.5,1344.3H0m972.1,0h27.5M32.1,27.5V0m0,1348.9v27.5M967.5,27.5V0m0,1348.9v27.5" class="gi_236"/>
<path d="M27.5,32.1H0m972.1,0h27.5M27.5,1344.3H0m972.1,0h27.5M32.1,27.5V0m0,1348.9v27.5M967.5,27.5V0m0,1348.9v27.5" class="gj_236"/>
</svg>