<?xml version="1.0" encoding="UTF-8" standalone="no"?>
<!DOCTYPE svg PUBLIC "-//W3C//DTD SVG 1.1//EN"
"http://www.w3.org/Graphics/SVG/1.1/DTD/svg11.dtd">
<svg viewBox="0 0 999 1376" version="1.1" xmlns="http://www.w3.org/2000/svg" xmlns:xlink="http://www.w3.org/1999/xlink">
<defs>
<clipPath id="c0_358"><path d="M32.1,1344.3V32.1H967.5V1344.3Z"/></clipPath>
<clipPath id="c1_358"><path d="M372.7,655.1V561.2h93.4v93.9Z"/></clipPath>
<clipPath id="c2_358"><path d="M512,657.4V563.5h93.4v93.9Z"/></clipPath>
<clipPath id="c3_358"><path d="M225.8,999.2V905.3h93.5v93.9Z"/></clipPath>
<clipPath id="c4_358"><path d="M653.6,999.7V908.1h93.5v91.6Z"/></clipPath>
<clipPath id="c5_358"><path d="M226.6,1158.6v-93.8h93.5v93.8Z"/></clipPath>
<clipPath id="c6_358"><path d="M369.3,1158.6V1066h93.4v92.6Z"/></clipPath>
<clipPath id="c7_358"><path d="M514.8,1158.6V1066h93.4v92.6Z"/></clipPath>
<clipPath id="c8_358"><path d="M656.5,1158.3v-93.9h93.4v93.9Z"/></clipPath>
<clipPath id="c9_358"><path d="M177,538.1l-6.5,-2.2L154.1,522V464.9h72v73.2Z"/></clipPath>
<clipPath id="ca_358"><path d="M125.5,386.7V205.8H858.6V386.7Z"/></clipPath>
<style type="text/css"><![CDATA[
.g0_358{
fill: #FEFCF4;
}
.g1_358{
fill: #FFF;
}
.g2_358{
fill: none;
stroke: #6381B7;
stroke-width: 0.763;
}
.g3_358{
fill: #EE2027;
}
.g4_358{
fill: #231F20;
}
.g5_358{
fill: none;
stroke: #949698;
stroke-width: 1.15;
}
.g6_358{
fill: #EE1F26;
}
.g7_358{
fill: #F7EE20;
}
.g8_358{
fill: #FCE8B0;
}
.g9_358{
fill: #2E6E51;
}
.ga_358{
fill: none;
stroke: #FFF;
stroke-width: 0.152;
stroke-miterlimit: 1;
}
.gb_358{
fill: #BCBEC0;
}
.gc_358{
fill: #EE314A;
}
.gd_358{
fill: #25408F;
}
.ge_358{
fill: #6381B7;
}
.gf_358{
fill: #00BAF1;
}
.gg_358{
fill: #332D2C;
}
.gh_358{
fill: #D9DFF0;
}
.gi_358{
fill: #F27C85;
}
.gj_358{
fill: #7DD3F6;
}
.gk_358{
fill: #CEEDFB;
}
.gl_358{
fill: #27639D;
}
.gm_358{
fill: none;
stroke: #C3E7F1;
stroke-width: 1.527;
}
.gn_358{
fill: none;
stroke: #FFF;
stroke-width: 1.909;
stroke-miterlimit: 10;
}
.go_358{
fill: none;
stroke: #000;
stroke-width: 0.381;
stroke-miterlimit: 10;
}
]]></style>
</defs>
<path d="M32.1,1343.2H954.5V32.1H32.1V1343.2Z" class="g0_358"/>
<path clip-path="url(#c0_358)" d="M954.5,1344.3H1877V32.1H954.5V1344.3Z" class="g0_358"/>
<path d="M150.4,436.8c0,0,-18.3,0,-18.3,18.4V1226c0,0,0,18.3,18.3,18.3H827.5c0,0,18.4,0,18.4,-18.3V436.8Z" class="g1_358"/>
<path d="M150.4,436.8c0,0,-18.3,0,-18.3,18.4V1226c0,0,0,18.3,18.3,18.3H827.5c0,0,18.4,0,18.4,-18.3V436.8H150.4Z" class="g2_358"/>
<path d="M314,609.7c0,23.3,-18.9,42.1,-42.1,42.1c-23.3,0,-42.2,-18.8,-42.2,-42.1c0,-23.3,18.9,-42.2,42.2,-42.2c23.2,0,42.1,18.9,42.1,42.2Z" class="g3_358"/>
<path d="M304,609.7c0,17.7,-14.4,32.1,-32.1,32.1c-17.8,0,-32.2,-14.4,-32.2,-32.1c0,-17.8,14.4,-32.1,32.2,-32.1c17.7,0,32.1,14.3,32.1,32.1Z" class="g1_358"/>
<path d="M268.1,638l-.3,-42.4H264L271.8,581l8.1,14.5H276V638Z" class="g4_358"/>
<path d="M244.9,589.5l47.7,48.3l6.7,-7.6L250.8,581.5Z" class="g3_358"/>
<path d="M221.8,657.6H325.1V560.9H221.8v96.7Z" class="g5_358"/>
<image clip-path="url(#c1_358)" preserveAspectRatio="none" x="372" y="560" width="95" height="96" xlink:href="img/1.jpg"/>
<path d="M364.1,657.6H467.3V560.9H364.1v96.7Z" class="g5_358"/>
<image clip-path="url(#c2_358)" preserveAspectRatio="none" x="511" y="562" width="96" height="97" xlink:href="img/2.jpg"/>
<path d="M506.3,657.6H609.5V560.9H506.3v96.7Z" class="g5_358"/>
<path d="M742.4,609.1c0,23.3,-18.9,42.1,-42.1,42.1c-23.3,0,-42.2,-18.8,-42.2,-42.1c0,-23.3,18.9,-42.2,42.2,-42.2c23.2,0,42.1,18.9,42.1,42.2Z" class="g3_358"/>
<path d="M732.4,609.1c0,17.7,-14.4,32.1,-32.1,32.1c-17.8,0,-32.2,-14.4,-32.2,-32.1c0,-17.8,14.4,-32.2,32.2,-32.2c17.7,0,32.1,14.4,32.1,32.2Z" class="g1_358"/>
<path d="M677.5,614.6c0,0,-1.4,-28.5,21.3,-30.6c0,0,-4.5,10.9,-3.7,15.8c0,0,3.7,-5.3,6.4,-4.9c0,0,-.8,19.9,.1,21.7l16.2,-19.9l7,.3l.3,7.9l-17.1,22c0,0,-2.5,3.3,-7.7,2V633c0,0,-1.5,4.7,-5,4.7c-3.4,0,-5.4,-2.8,-5.5,-5.6c0,0,-11.5,-.1,-11.9,-5.1c0,0,-.4,-1.3,.3,-2.7c0,0,-4.7,-6.1,-4.5,-10.7c0,0,.6,1.2,3.8,1Z" class="g4_358"/>
<path d="M684.7,618.5v-4.9c0,0,3.4,.8,6.6,-1.5c0,0,5.1,6,.2,14.4c0,0,-4.2,-.2,-5,-1c0,0,.4,-5.6,-1.8,-7Z" class="g1_358"/>
<path d="M698.7,624.4c0,0,-.6,.8,-.1,1.1c.4,.4,.8,.3,1.3,-.3c0,0,19.2,-23.2,19.5,-23.8c0,0,.5,-.5,0,-1c-.5,-.5,-1.2,.1,-1.2,.1l-19.4,23.8Z" class="g1_358"/>
<path d="M703.8,624.8c0,0,-.6,.7,-.1,1.1c.4,.3,.8,.2,1.3,-.4c0,0,17.2,-21,17.5,-21.5c0,0,.6,-.6,0,-1.1c-.5,-.5,-1.2,.2,-1.2,.2l-17.5,21.6Z" class="g1_358"/>
<path d="M673.3,588.8l47.6,48.4l6.8,-7.6L679.2,580.9Z" class="g3_358"/>
<path d="M648.6,657.6H751.8V560.9H648.6v96.7Z" class="g5_358"/>
<path d="M228.2,778.4l45.1,-45.5l45.3,45.2l-44.9,45.6Z" class="g6_358"/>
<path d="M236.6,778.4l36.7,-37l36.8,36.7l-36.5,37.1Z" class="g1_358"/>
<path d="M280.3,761.6c0,0,3.4,1.7,1.4,12.4c0,0,-.5,1.6,.8,1c1.3,-.6,5,-4.5,4.7,-7.4c0,0,3.3,2.6,-1.1,12.3c0,0,-.6,1.2,.7,.5c1.3,-.6,3.2,-3.5,3.3,-4.3c0,0,1.6,13.3,-12.2,16.2c0,0,4.6,-4.6,4,-10.7c0,0,-.2,-.1,-.6,.4c-.5,.4,-2.6,2.9,-3,3c0,0,1.2,-3,.4,-4c0,0,-.4,-.3,-.8,.2c-.4,.4,-1.5,1.3,-1.9,1.4c0,0,2.8,-8.6,-1.9,-11.7c0,0,-1.3,-.4,-1.1,1c.2,1.5,1.2,5,1.2,5.2c0,.1,.4,2.4,-.7,2.6c-.6,.2,-1.1,-1.3,-1.2,-2.2c-.1,-.9,-.7,-3.3,-1.3,-2.2c-.6,1.1,-1.7,4.6,.5,10.4c0,0,-2.8,-5.8,-2.9,-6c-.1,-.3,-1.7,-1.8,-1.6,-.1c0,0,-.2,2.8,.2,3.9c0,0,-2,-.7,-2.9,-.5c-.8,.3,-.3,.7,-.3,.7c0,0,3.2,3.6,3.5,4.3c.2,.6,2.4,4.7,4.6,4.9c0,0,-6.3,.4,-11.1,-7c-1.2,-1.8,-1.8,-6,-1.8,-6c0,0,-.8,-4.4,-2.2,-5.1h.1c0,0,4.9,2.7,5.3,3.4c0,0,0,-3.1,.7,-4.8c.6,-1.7,-.6,-5,-1.1,-5.3c0,0,2.4,1.8,2.6,2c.2,.3,1.7,1.4,2.1,1.3c0,0,1.7,-8.1,-.3,-10.5c-2,-2.5,-1.6,-2.3,-1.6,-2.3c0,0,3,2.5,4.4,3.2c1.3,.7,2.6,2.1,2.7,2.3c.2,.2,1.3,.7,1.1,-.5c-.1,-1.1,-.9,-4.4,-1.4,-5.1c-.4,-.8,-1.7,-5.8,1.3,-9.3c0,0,-.5,3.9,1.9,7.7c2.4,3.8,3.1,8.1,2.2,11.1c0,0,-.4,1.9,.2,2.2c.7,.2,3.9,-2.9,3.1,-8.5Z" class="g4_358"/>
<path d="M274.3,761.8c0,0,-.3,3.1,-.6,4c-.4,.9,.5,2.9,1.3,2.8c.8,0,1.4,-2,1.2,-3.7c-.3,-1.7,-1.8,-3.2,-1.8,-3.2Z" class="g1_358"/>
<path d="M261.1,796.4h25.8v-1.3H261.1v1.3Z" class="g4_358"/>
<path d="M221.8,826.4H325.1V729.7H221.8v96.7Z" class="g5_358"/>
<path d="M371,778.8l45.1,-45.5l45.3,45.1l-44.9,45.7Z" class="g6_358"/>
<path d="M379.5,778.8l36.7,-37L453,778.5l-36.5,37.1Z" class="g1_358"/>
<path d="M426.3,760.9c0,0,.2,-1.9,.6,-2.9c.4,-1,2.1,7.7,.6,14.3c0,0,-.2,1.8,.6,.6c.7,-1.3,2.5,-2.8,2.9,-3c0,0,-.5,1.5,-.8,2.7c-.4,1.2,-.4,3.5,.2,5.6c.6,2.1,1.2,5.2,-1.2,6.1l-1.9,-.7l-4.4,-7.7l-8.3,-2c0,0,-6.6,3.3,-6.8,3.4c-.2,.1,-3.2,4.9,-3.2,4.9l-1.7,2.8c0,0,-2.2,-3.1,-1.5,-6.4c.6,-3.3,1.6,-6.9,.6,-8.2l2,2.3c0,0,.5,-2.3,1.4,-5.5c.8,-3.3,.6,-5.9,-.3,-6.6c0,0,2,0,2.4,4.2c0,0,3.1,-7.1,3.1,-8.6c0,-1.5,-.5,-3.9,-.5,-3.9c0,0,2.7,.7,3.7,3.3c0,0,1.3,-3.7,1.8,-4.8c.6,-1,1.4,-3.2,1.4,-3.2c0,0,1.1,4.3,1.5,5.2c.4,.9,2.2,5.6,2.2,5.6c0,0,.5,1.2,1,-.5v-.2c0,0,.8,-3.3,.5,-4.2c0,0,2.6,2.6,2.3,10.2c0,1.1,.2,1.7,.8,.6c0,0,1,-1.8,.9,-3.2Z" class="g4_358"/>
<path d="M429,785.3c0,7.1,-5.8,12.9,-13,12.9c-7.1,0,-12.9,-5.8,-12.9,-12.9c0,-7.2,5.8,-13,12.9,-13c7.2,0,13,5.8,13,13Z" class="g4_358"/>
<path d="M426.1,785.3c0,5.5,-4.5,10.1,-10.1,10.1c-5.5,0,-10,-4.6,-10,-10.1c0,-5.6,4.5,-10.1,10,-10.1c5.6,0,10.1,4.5,10.1,10.1Z" class="g1_358"/>
<path d="M404.3,779l.1,-1.5h.8c0,0,-.5,1.4,-.9,1.5Z" class="g1_358"/>
<path d="M407.6,772.1c0,0,-.1,2.2,.4,2.5c0,0,1.3,-.8,1.5,-.9c0,0,-.3,-1.2,-1.9,-1.6Z" class="g1_358"/>
<path d="M412,769.5v3.1c0,0,.7,-.1,.9,-.3c.3,-.3,-.2,-2.6,-.9,-2.8Z" class="g1_358"/>
<path d="M415.7,763.1c-.3,1.1,-.6,2.3,-.6,3.5c0,.7,.1,1.3,.1,2c0,.2,0,3.3,-.1,3.3l2.1,.1c.2,-2.4,.1,-4.6,-.6,-6.9c-.2,-.6,-.4,-1.6,-.9,-2Z" class="g1_358"/>
<path d="M420.6,769.5c0,0,-.9,2.7,-.8,3c0,0,.8,.2,1,.3c0,0,.2,-2.4,-.2,-3.3Z" class="g1_358"/>
<path d="M424.3,770.4c0,0,-.8,3.2,-.6,4c0,0,.7,.3,.8,.5c0,0,.1,-3.9,-.2,-4.5Z" class="g1_358"/>
<path d="M426.9,777.6c0,0,1.3,2.2,1.4,2.7c0,0,.2,-1.5,-1.4,-2.7Z" class="g1_358"/>
<path d="M403.3,800.4H429v-2.3H403.3v2.3Z" class="g4_358"/>
<path d="M364.1,826.4H467.3V729.7H364.1v96.7Z" class="g5_358"/>
<path d="M513.4,778.5L558.5,733l45.3,45.1l-44.9,45.7Z" class="g6_358"/>
<path d="M521.9,778.6l36.7,-37l36.8,36.7l-36.5,37.1Z" class="g1_358"/>
<path d="M549.7,778.1c0,0,0,-1.3,1.9,-2.9c1.9,-1.5,4,-1.5,5.4,-.8l3.5,-12.8l.7,.4l-3.8,11.2l6.9,-17.8l1.3,.6l-7.3,19c0,0,1.4,1.2,1.6,1.4c.2,.1,-2,-.1,-2,-.1l-.4,1.1l-1.8,-.3l.6,1.5l-1.4,1.5l-2.2,-1.3l-2.1,.2Z" class="g4_358"/>
<path d="M549.6,780.9l2.5,.7l1.7,-1.4l2.3,2.1l1.9,-1.1V780l1.9,1.6l.6,.3c0,0,-2.2,4.7,-6.2,3.8c0,0,-3.1,0,-4.7,-4.8Z" class="g4_358"/>
<path d="M557.2,764.5c0,0,.3,-1.2,.2,-1.5l.7,.4l.2,-.8l.8,-.1l.5,1.7c0,0,-1.3,1.4,-1.5,1.7l-.3,-1Z" class="g4_358"/>
<path d="M559,773.7l4.8,-9l.7,.5Z" class="g4_358"/>
<path d="M563.4,768.8l.6,-1.7l.4,.4l.4,-.4c0,0,.1,.5,.2,.7c0,.2,-.1,1.6,-.7,1.7c-.6,0,-.9,-.7,-.9,-.7Z" class="g4_358"/>
<path d="M556.3,779.2l17,-17.6l.5,.8Z" class="g4_358"/>
<path d="M560.3,774.7l.2,.8l1.2,-.7l.4,1l2.2,-1.7l.7,-1.9l-1.8,1.4l-1.2,-.1Z" class="g4_358"/>
<path d="M558.1,778.7l15.5,-10.5v1.2Z" class="g4_358"/>
<path d="M559.5,778.4l9.1,-3.9v.6Z" class="g4_358"/>
<path d="M557.6,779.2l27,-6.3l.3,.7Z" class="g4_358"/>
<path d="M558.3,780l29.9,-4.2l-.1,1.1Z" class="g4_358"/>
<path d="M559.4,781.2l24.9,1.3l.5,.4Z" class="g4_358"/>
<path d="M567.4,780.4l1.3,-.2l.8,-.9l3.3,1.4l-1.3,1.4l-1.7,-.1l-.6,-.8l-1.5,.4Z" class="g4_358"/>
<path d="M560.2,782.1l10.7,2l-.4,1.3L560,782.3Z" class="g4_358"/>
<path d="M563.7,785.2l3.2,.7l.1,-1l-.7,-.9l-1.9,-.6l-.4,.6l-1.1,-.5l-.4,.5Z" class="g4_358"/>
<path d="M559.1,782.7l7.2,4.2l.4,.8Z" class="g4_358"/>
<path d="M559,783.1l8.2,6.3l-.4,.5Z" class="g4_358"/>
<path d="M558.2,783.5l6.2,4.9l.3,.7Z" class="g4_358"/>
<path d="M542,790.7l9.6,-7.7l-8.9,8.4Z" class="g4_358"/>
<path d="M547.6,786.5l.7,.9l.6,-.2l.3,.3l.7,-.2l.2,-1.1l-.5,-.2l-1.4,-.1Z" class="g4_358"/>
<path d="M542.7,786.7l8,-4.2l-8.1,4.6Z" class="g4_358"/>
<path d="M542.2,784.3l.9,.9l.6,-.2v-.6Z" class="g4_358"/>
<path d="M539.7,787.3l.4,-.4l.6,.3l.1,.3l-.6,.6h-.5l-.4,.9l-.9,-1.1l.4,-1.4Z" class="g4_358"/>
<path d="M545.4,784.1l.1,-.3l5.2,-1.3l-5.2,1.7Z" class="g4_358"/>
<path d="M536.2,785.2L550.8,782l-14.9,3.5Z" class="g4_358"/>
<path d="M531.4,783.4l18.9,-1.9l-19,2.3Z" class="g4_358"/>
<path d="M538,782l.6,.2h.4c0,0,.1,0,.2,.1c0,.1,.3,.3,.3,.3l.5,-.1l.7,-.2l-1.4,-1.1l-.6,.2l-.5,.4Z" class="g4_358"/>
<path d="M543,781l2,1.1l.4,-.6l.6,-.1l.1,-.9H545l-.3,-.4h-1.1Z" class="g4_358"/>
<path d="M536.3,779.6l14.8,1.2L536.5,780Z" class="g4_358"/>
<path d="M544,779l.4,-.4l6.8,1.6Z" class="g4_358"/>
<path d="M546.5,777.5l4.8,2.5l-4.8,-2.9Z" class="g4_358"/>
<path d="M547.8,776.6l4,3.1l-4,-3.4Z" class="g4_358"/>
<path d="M571.1,773.8l.1,-.2l.2,-.2v-.2l.1,-.2l.6,-.5l1.7,1.7Z" class="g4_358"/>
<path d="M576.9,770.1l.5,-1.3l1.7,-.3l.7,-1.7l1.1,1.9l-.1,2.3L579,769.7l-.9,1Z" class="g4_358"/>
<path d="M506.3,826.4H609.5V729.7H506.3v96.7Z" class="g5_358"/>
<path d="M656.9,778.4l45.2,-45.5L747.3,778l-44.9,45.6Z" class="g6_358"/>
<path d="M665.4,778.4l36.7,-37l36.8,36.7l-36.5,37.1Z" class="g1_358"/>
<path d="M700.9,754.4c-5,.2,-8.4,1.6,-10.6,4.6c-5.1,6.6,-.3,12.9,-.2,13l.4,-.4c-.2,-.2,-4.6,-6,.2,-12.3c1.3,-1.8,3.9,-4.1,10.2,-4.3c9.2,-.3,12.3,4.2,13.3,8.1c1.2,4.4,-.3,9,-1.5,9.6l.3,.5c1.5,-.8,2.9,-5.8,1.8,-10.3c-.9,-3.3,-3.8,-8.8,-13.9,-8.5Z" class="g4_358"/>
<path d="M690.1,769.4c.2,1.5,-.1,2.8,-.3,3.6l-.2,1l-.1,.4c-.1,.9,-.4,2.9,1.9,4.5c.5,.4,1.1,.6,1.5,.8c1.3,.6,2.1,1,2.3,3.8l.6,-.1c-.2,-3.1,-1.3,-3.6,-2.6,-4.2c-.5,-.2,-1,-.4,-1.5,-.8c-2,-1.4,-1.7,-3,-1.6,-3.9V774l.2,-.8c.2,-.9,.5,-2.2,.4,-3.8c-.2,-2.2,.2,-5.5,.2,-5.5l-.6,-.1c0,.1,-.3,3.4,-.2,5.6Z" class="g4_358"/>
<path d="M712,763.2c.2,.3,.5,2.5,0,4.1c-.5,1.8,-.8,3.5,.4,5.8c1,2.1,.7,4.1,-.2,4.8c-1.1,.9,-1.8,3.3,-1.8,4.4c0,1.1,-.7,4.3,-.7,4.3c-.5,2.2,-1.6,3.8,-3.3,4.7c-2.7,1.4,-6.3,1,-8.7,0c-3.2,-1.4,-3.9,-6.7,-4.2,-8.5v-.1c-.2,-1.7,-1.4,-3.9,-1.4,-3.9l-.5,.2c0,0,1.1,2.2,1.4,3.8v.1c.2,1.8,1,7.4,4.5,8.9c2.5,1,6.3,1.4,9.1,0c1.9,-1,3.1,-2.7,3.6,-5.1c.1,-.1,.8,-3.2,.8,-4.4c0,-1,.6,-3.2,1.5,-3.9c1.1,-.9,1.5,-3.2,.4,-5.6c-1.1,-2.1,-.8,-3.6,-.3,-5.3c.4,-1.7,.2,-4.4,-.2,-4.7Z" class="g4_358"/>
<path d="M708.3,783.1h.6c0,-3,3,-4.2,3.1,-4.3l-.2,-.5c-.1,0,-3.4,1.4,-3.5,4.8Z" class="g4_358"/>
<path d="M696.1,783.9v0c0,.1,-.1,.1,-.1,.2c0,.3,.1,.6,.3,.8l.5,.2l.3,-.1c.2,-.2,.3,-.6,.3,-.9c0,-.3,-.1,-.7,-.3,-.9l-.5,-.1c-.4,0,-.5,.4,-.5,.8m.6,.6c0,0,-.1,-.1,-.1,-.4c0,0,0,-.1,0,-.1v-.1c0,0,0,-.2,.1,-.2v-.1c.1,.1,.1,.2,.1,.5c0,.3,0,.4,0,.4q-.1,0,-.1,0Z" class="g4_358"/>
<path d="M697,784.2v0q0,.1,0,.2c0,.4,.1,.7,.3,.9l.5,.3l.4,-.2c.2,-.2,.2,-.6,.2,-1c0,-.4,0,-.8,-.3,-1l-.4,-.1c-.5,0,-.7,.5,-.7,.9m.7,.8c0,-.1,-.1,-.2,-.1,-.6c0,0,0,-.1,0,-.2c0,0,0,-.3,.1,-.4h.1c0,.1,0,.5,0,.6v.1c0,.4,0,.5,0,.5c0,0,-.1,0,-.1,0Z" class="g4_358"/>
<path d="M698,784.4v0c0,.1,0,.2,0,.3c0,.4,.1,.7,.2,.9l.6,.3l.4,-.2c.2,-.2,.3,-.6,.3,-1.1c0,-.3,0,-.8,-.3,-1l-.6,-.2c-.5,.1,-.6,.7,-.6,1m.7,.8c-.1,-.1,-.2,-.3,-.2,-.5c0,-.1,0,-.2,0,-.3c0,-.1,0,-.4,.2,-.4h.1c.1,.1,.1,.5,.1,.6v.1c0,.5,-.1,.6,-.1,.6c0,0,-.1,-.1,-.1,-.1Z" class="g4_358"/>
<path d="M699,784.6v0c0,.1,0,.2,0,.3c0,.4,.1,.8,.4,1.1l.5,.2l.4,-.1c.2,-.2,.3,-.7,.3,-1.2c0,-.5,-.1,-1,-.4,-1.2l-.5,-.1c-.5,0,-.7,.6,-.7,1m.8,1c-.1,-.1,-.2,-.4,-.2,-.7c0,-.1,0,-.2,0,-.3c0,-.1,0,-.5,.2,-.5h.1c.1,.1,.1,.6,.1,.8c0,0,0,.1,0,.1c0,.5,-.1,.7,-.1,.7c0,0,-.1,-.1,-.1,-.1Z" class="g4_358"/>
<path d="M700.5,784.7v.1c0,0,0,.2,0,.2c0,.5,.1,.9,.3,1.2c.2,.1,.4,.2,.6,.3l.4,-.2c.3,-.3,.3,-.8,.3,-1.3c0,-.5,0,-.9,-.3,-1.2l-.6,-.2c-.6,.1,-.7,.7,-.7,1.1m.7,1.1c-.2,-.2,-.2,-.6,-.2,-1v-.1c0,0,0,-.5,.3,-.5h.1c.2,.1,.2,.6,.2,.8c0,.6,-.1,.8,-.2,.9c-.1,0,-.1,-.1,-.2,-.1Z" class="g4_358"/>
<path d="M702.8,783.6c-.7,.1,-.9,.7,-.9,1.1c0,.1,0,.2,0,.3c0,.4,.1,.8,.3,1c.2,.2,.5,.4,.7,.4l.5,-.2c.2,-.3,.3,-.8,.3,-1.2c0,-.5,0,-.9,-.3,-1.2c-.1,-.1,-.3,-.2,-.6,-.2m-.1,2.1c-.2,-.2,-.3,-.5,-.2,-.9v-.1c0,0,0,-.5,.3,-.5c.1,0,.2,0,.2,0c.1,.1,.1,.6,.1,.8c0,.4,0,.7,-.1,.8h-.1c-.1,0,-.2,0,-.2,-.1Z" class="g4_358"/>
<path d="M703.4,784.6q0,.1,0,.1c0,.1,0,.2,0,.3c0,.4,.1,.8,.3,1.1l.6,.3l.4,-.2c.2,-.2,.3,-.7,.3,-1.2c-.1,-.5,-.1,-1,-.4,-1.3l-.5,-.1c-.6,.1,-.7,.7,-.7,1m.7,1.1c-.1,-.1,-.2,-.4,-.2,-.7c0,-.1,0,-.2,0,-.3c0,-.1,.1,-.5,.3,-.5h.1c.1,.1,.1,.6,.1,.8v.1c0,.6,-.1,.7,-.1,.7c0,0,-.2,-.1,-.2,-.1Z" class="g4_358"/>
<path d="M704.6,784.4v0c-.1,.1,-.1,.2,-.1,.3c0,.4,.1,.7,.3,.9c.2,.2,.4,.3,.6,.3l.4,-.1c.3,-.3,.3,-.7,.3,-1.2c0,-.4,0,-.8,-.3,-1.1l-.5,-.1c-.6,0,-.7,.6,-.7,1m.7,.9c-.1,-.2,-.2,-.4,-.2,-.6c0,-.1,0,-.2,0,-.3c0,-.1,0,-.4,.2,-.5h.1c.1,.1,.2,.6,.2,.7v.1c0,.5,-.1,.6,-.1,.7c-.1,0,-.2,-.1,-.2,-.1Z" class="g4_358"/>
<path d="M705.8,784.1v0c0,.1,0,.2,0,.2c0,.4,.1,.7,.3,.9l.5,.3l.4,-.1c.3,-.3,.3,-.7,.3,-1.1c0,-.4,-.1,-.8,-.3,-1l-.5,-.2c-.6,.1,-.7,.6,-.7,1m.7,.8c-.1,-.1,-.2,-.3,-.2,-.6c0,0,0,-.1,0,-.2c0,-.1,0,-.4,.2,-.4h.1c.1,.1,.1,.4,.1,.6c0,.5,0,.6,-.1,.7c0,0,-.1,-.1,-.1,-.1Z" class="g4_358"/>
<path d="M706.9,783.7v0c0,.1,0,.2,0,.2c0,.4,.1,.6,.3,.8l.5,.3l.4,-.2c.2,-.2,.2,-.5,.2,-.9c0,-.3,0,-.7,-.3,-.9l-.4,-.1c-.5,0,-.7,.4,-.7,.8m.7,.7c-.1,-.1,-.1,-.3,-.1,-.5c0,0,0,-.1,0,-.1v-.1c0,0,0,-.3,.1,-.3h.1c0,0,0,.1,0,.5v.1c0,.3,0,.4,0,.4q-.1,0,-.1,0Z" class="g4_358"/>
<path d="M707.7,783.4v.2c0,.4,.1,.6,.3,.8l.4,.3l.3,-.2c.2,-.2,.3,-.5,.2,-.9c0,-.3,0,-.7,-.2,-.9l-.4,-.1c-.4,.1,-.6,.4,-.6,.8m.6,.2c0,0,0,-.1,0,-.1v-.1q0,-.1,0,-.2c.1,.1,.1,.2,.1,.4v.1c0,.2,0,.3,0,.3c-.1,-.1,-.1,-.2,-.1,-.4Z" class="g4_358"/>
<path d="M707.7,785v0c0,.1,0,.2,0,.2c0,.3,.1,.5,.2,.7l.5,.2l.3,-.1c.2,-.2,.2,-.5,.2,-.8c0,-.2,0,-.6,-.2,-.8l-.4,-.1c-.4,0,-.6,.4,-.6,.7m.6,.2c0,0,0,-.1,0,-.1v-.2c0,.1,0,.3,0,.3c0,0,0,.1,0,.2c0,0,0,-.1,0,-.2Z" class="g4_358"/>
<path d="M702.1,786.7v0c0,.1,0,.2,0,.3c0,.3,.1,.7,.3,.9c.1,.2,.4,.3,.6,.3l.4,-.2c.2,-.2,.2,-.7,.2,-1.1c0,-.4,0,-.8,-.2,-1l-.6,-.2c-.5,.1,-.7,.6,-.7,1m.7,.8c0,-.1,-.2,-.2,-.2,-.5c0,-.1,0,-.2,.1,-.3c0,-.1,0,-.4,.2,-.4h.1c.1,.1,.1,.5,.1,.6v.1c0,.5,-.1,.6,-.1,.6c-.1,0,-.2,0,-.2,-.1Z" class="g4_358"/>
<path d="M703.5,786.6v0c0,.1,0,.2,0,.3c0,.3,.1,.6,.3,.8c.1,.2,.4,.3,.6,.3c.7,-.1,.7,-.9,.7,-1.2c0,-.3,0,-.7,-.2,-.9l-.6,-.2c-.6,.1,-.8,.6,-.8,.9m.7,.7c-.1,-.1,-.2,-.4,-.1,-.6v-.1c0,0,0,-.3,.3,-.3h.1c.1,.1,.1,.4,.1,.5c0,.5,-.1,.6,-.2,.6c-.1,0,-.2,0,-.2,-.1Z" class="g4_358"/>
<path d="M704.9,786.4v0c0,.1,0,.2,0,.2c0,.3,.1,.6,.2,.8c.2,.2,.4,.3,.6,.3c.7,-.1,.7,-.9,.7,-1.1c0,-.3,0,-.7,-.3,-.9l-.5,-.2c-.6,.1,-.7,.6,-.7,.9m.6,.6c-.1,-.1,-.1,-.3,-.1,-.5v-.1c0,-.1,0,-.3,.2,-.3h.1c.1,.1,.1,.4,.1,.5c0,.4,0,.5,-.1,.5c0,0,-.1,0,-.2,-.1Z" class="g4_358"/>
<path d="M705.9,786q.1,0,.1,0c-.1,0,0,0,-.1,0c0,.1,0,.2,0,.2c0,.3,.1,.6,.3,.8c.1,.1,.3,.2,.6,.2c.6,0,.6,-.8,.6,-1c0,-.3,0,-.6,-.3,-.8l-.5,-.2c-.5,.1,-.6,.5,-.7,.8m.7,.6c-.1,-.1,-.1,-.3,-.1,-.5V786c0,0,0,-.2,.2,-.2c.1,0,.1,.1,.1,.4q0,.4,-.1,.5c0,0,-.1,-.1,-.1,-.1Z" class="g4_358"/>
<path d="M706.9,785.5v0c0,.1,0,.2,0,.2c0,.3,.1,.5,.2,.7c.2,.1,.4,.2,.6,.2c.4,0,.6,-.3,.6,-.9c0,-.2,0,-.6,-.2,-.8l-.5,-.1c-.5,0,-.7,.4,-.7,.7m.6,.5q0,-.1,0,-.3c0,0,0,-.1,0,-.1v-.1c0,0,0,-.1,.1,-.2h.1q0,.1,0,.3v.1q0,.3,0,.3q-.1,0,-.2,0Z" class="g4_358"/>
<path d="M700.5,786.8v.1c0,0,0,.1,0,.1c0,.4,.2,.7,.3,.9c.2,.2,.5,.3,.7,.2c.7,0,.6,-.9,.6,-1.1c0,-.3,0,-.7,-.3,-.9l-.6,-.2c-.5,.1,-.7,.6,-.7,.9m.7,.7c-.1,-.1,-.1,-.3,-.1,-.6v-.1c0,0,0,-.3,.2,-.3h.2c0,.1,.1,.4,.1,.5c0,.5,-.1,.6,-.1,.6c-.1,0,-.2,0,-.3,-.1Z" class="g4_358"/>
<path d="M699.3,786.6v.1q0,.1,0,.2c0,.3,.1,.5,.2,.7c.2,.2,.4,.3,.6,.3c.6,0,.6,-.8,.6,-1c.1,-.3,.1,-.7,-.2,-.9l-.5,-.2c-.5,.1,-.7,.6,-.7,.8m.6,.7c0,-.1,-.1,-.2,-.1,-.4c0,0,0,-.1,.1,-.2c0,-.1,0,-.3,.2,-.3c.1,0,.1,.1,.1,.3q0,.1,0,.1c0,.4,-.1,.5,-.1,.5q-.1,0,-.2,0Z" class="g4_358"/>
<path d="M698,786.4c0,.1,0,.2,0,.3c0,.2,0,.4,.2,.6c.1,.2,.3,.3,.5,.3c.6,0,.7,-.7,.7,-1c0,-.2,0,-.6,-.2,-.8l-.5,-.2c-.5,0,-.7,.5,-.7,.8m.6,.6c0,-.1,-.1,-.2,-.1,-.3c0,-.1,0,-.2,.1,-.3c0,0,0,-.2,.1,-.2h.1v.2c0,0,0,.1,0,.2c0,.3,-.1,.4,-.1,.4c0,0,-.1,0,-.1,0m-.6,-.6v0q0,-.1,0,-.1Z" class="g4_358"/>
<path d="M697,785.9c0,.1,-.1,.2,-.1,.3c0,.2,.1,.4,.2,.5c.1,.2,.3,.3,.4,.3c.6,.1,.7,-.6,.7,-.8c0,-.2,.1,-.5,-.1,-.7l-.5,-.2c-.4,0,-.6,.4,-.6,.6m.5,.5c0,0,0,-.1,0,-.2c0,0,0,-.1,0,-.2c0,0,.1,-.2,.1,-.2h.1v.3c-.1,.2,-.1,.3,-.1,.4c0,0,-.1,0,-.1,-.1m-.5,-.5v0Z" class="g4_358"/>
<path d="M696.1,785.5v.1c0,0,0,.1,0,.1c0,.2,.1,.4,.2,.6l.4,.2c.4,0,.6,-.3,.6,-.8c0,-.2,0,-.5,-.2,-.7l-.5,-.1c-.4,0,-.5,.4,-.5,.6m.5,.2c0,0,0,-.1,.1,-.1v-.1c0,0,0,-.1,0,-.1c0,.1,0,.3,0,.3c0,0,0,.1,0,.2c0,-.1,-.1,-.1,-.1,-.2Z" class="g4_358"/>
<path d="M695.3,783.8v0c0,.1,0,.2,0,.2c0,.4,.1,.6,.3,.8l.3,.2l.3,-.1c.2,-.2,.2,-.5,.2,-.9c0,-.4,0,-.7,-.2,-.9l-.4,-.1c-.3,.1,-.5,.4,-.5,.8m.6,.2c0,0,0,-.1,0,-.1v-.1c0,.1,0,.2,0,.2v.1V784Z" class="g4_358"/>
<path d="M695.8,784.7c-.3,.1,-.5,.4,-.5,.7c0,0,0,.1,0,.1c0,.3,.1,.5,.2,.7l.4,.1c.5,0,.5,-.6,.5,-.8c0,-.2,0,-.5,-.2,-.7c-.1,-.1,-.3,-.1,-.4,-.1Z" class="g4_358"/>
<path d="M718.2,779l-.5,.3c-1.7,1.2,-7,2.8,-7.1,2.8l.2,.5c.2,-.1,5.4,-1.6,7.2,-2.8l.5,-.3c1.4,-1,2.1,-1.4,2.6,-1c.4,.4,.1,1.6,-.1,2v.1l.1,.2c.1,.2,.4,.9,.3,1.2c-.1,.1,-.1,.3,-.6,.3c-.8,.1,-1.5,-.1,-2.2,-.3c-.6,-.1,-1,-.2,-1.4,-.1c-.5,.2,-6.8,2.6,-6.9,2.6l.2,.6c.3,-.1,6.4,-2.5,7,-2.7c.1,-.1,.6,.1,1,.2c.7,.1,1.5,.4,2.4,.3c.6,-.1,.9,-.4,1,-.6c0,-.2,.1,-.4,.1,-.5c0,-.5,-.3,-1,-.4,-1.2c.1,-.3,.3,-.8,.3,-1.3c0,-.5,-.1,-.9,-.5,-1.2c-.8,-.7,-1.7,-.1,-3.2,.9Z" class="g4_358"/>
<path d="M682.4,778.4c-.1,.1,-.3,.3,-.1,.8c.3,1.2,-.3,1.9,-.6,2.2c-.3,.3,-.4,.6,-.3,.9c.2,.4,.8,.6,1.7,.4c1.5,-.2,2.5,-.2,3,.1c.7,.4,7.2,2.8,7.5,2.9l.2,-.5c-2.3,-.9,-6.9,-2.6,-7.4,-2.9c-.6,-.3,-1.7,-.4,-3.4,-.1c-.7,.1,-1,-.1,-1.1,-.2c0,0,.1,-.1,.1,-.1c.4,-.3,1.2,-1.3,.8,-2.8c0,-.2,0,-.3,0,-.3c.1,-.1,.5,-.2,1.5,.2c.6,.2,1,.6,1.6,1c.5,.4,1,.8,1.5,1c1.9,.8,3.8,1.3,5.7,1.8l.2,-.5c-2,-.5,-3.9,-1,-5.6,-1.8c-.6,-.2,-1,-.6,-1.5,-.9c-.5,-.4,-1.1,-.8,-1.7,-1.1c-1,-.4,-1.7,-.4,-2.1,-.1Z" class="g4_358"/>
<path d="M688.4,789.6v0h-.1c0,0,-.4,.4,-2.4,0c-1.7,-.2,-2.1,.4,-2.2,.6c-.2,.5,.1,1,.7,1.3c.3,.1,.3,.2,.3,.3c0,.1,-.1,.2,-.2,.4l-.1,.1c-.2,.2,-.4,1,0,1.5c.5,.5,1.4,.5,2.8,-.2c0,-.1,1.3,-1.3,2.3,-1.6c1.1,-.3,5.7,-2.2,5.9,-2.2l-.2,-.6c-.1,.1,-4.8,2,-5.9,2.3c-1,.3,-2.4,1.6,-2.5,1.6c-.9,.5,-1.7,.6,-2,.3c-.2,-.2,0,-.7,0,-.8l.1,-.1c.2,-.2,.4,-.5,.4,-.8c-.1,-.3,-.3,-.5,-.7,-.7c-.3,-.2,-.4,-.4,-.4,-.6c.1,-.1,.5,-.4,1.6,-.2c2,.3,2.6,.1,2.8,-.1c.1,0,5.9,-2.5,5.9,-2.5l-.3,-.5Z" class="g4_358"/>
<path d="M709.7,788l5.7,2.7c0,0,.8,.3,1.9,0c1.2,-.4,2,-.4,2.3,-.1c.2,.1,.2,.4,.1,.7c-.2,1.1,-.4,1.3,-.4,1.3c.1,-.1,.2,-.1,.3,0l-.4,.4c.2,.3,.4,.7,.3,.9c0,.1,-.3,.2,-.9,.1c-1.5,-.1,-2.3,-.8,-2.9,-1.3c-.3,-.2,-.5,-.4,-.7,-.5c-.5,-.2,-4.6,-2.1,-6.1,-2.8l-.2,.5c.2,.1,5.5,2.6,6.1,2.8c.1,.1,.3,.2,.6,.4c.6,.5,1.4,1.3,3.1,1.5c.8,.1,1.3,-.1,1.5,-.5c.1,-.1,.1,-.2,.1,-.3c0,-.4,-.2,-.7,-.3,-.9c.1,-.2,.3,-.6,.5,-1.5c0,-.1,0,-.3,0,-.4c0,-.4,-.1,-.6,-.3,-.8c-.5,-.5,-1.4,-.5,-2.8,-.1c-1,.3,-1.6,.1,-1.6,.1l-5.7,-2.8Z" class="g4_358"/>
<path d="M693.7,771c.1,-.4,1.5,-.8,1.8,-.9c1.4,-.3,4.9,0,4.7,2c-.1,1.7,-1.1,3.3,-2.5,4.1c-2.9,1.7,-4.1,-2.9,-4,-5.2Z" class="g4_358"/>
<path d="M704.3,771.9c0,-.2,0,-.3,0,-.4c.3,-1,1.5,-2,2.5,-2c1.9,0,4,-.3,4,1.1c0,1.3,0,4.3,-1.8,5.1c-1.8,.9,-2.7,-.2,-2.7,-.2c-.8,-.9,-2.1,-2.3,-2,-3.6Z" class="g4_358"/>
<path d="M701.2,775.1c0,0,.9,-.8,1.5,.1c.5,.8,2.2,2.7,1.5,5.2c-.3,1.1,-2.1,.8,-2.8,-.5c0,0,-1.7,2,-2.1,.6c-.4,-1.4,-.4,-2.9,1.8,-5.4Z" class="g4_358"/>
<path d="M719.2,792.9l.5,.2l.4,-1l-.5,-.2Z" class="g4_358"/>
<path d="M648.6,826.4H751.8V729.7H648.6v96.7Z" class="g5_358"/>
<path d="M201.6,877.8H340.2V830.3H201.6v47.5Z" class="g1_358"/>
<path d="M348.2,877.8H481.1V830.3H348.2v47.5Z" class="g1_358"/>
<path d="M501.8,893.1h117V830.3h-117v62.8Z" class="g1_358"/>
<path d="M626.1,893.1H777.6V830.3H626.1v62.8Z" class="g1_358"/>
<image clip-path="url(#c3_358)" preserveAspectRatio="none" x="225" y="904" width="95" height="97" xlink:href="img/3.jpg"/>
<path d="M221.8,999.7H325.1V903H221.8v96.7Z" class="g5_358"/>
<path d="M370.1,992.7l46,-81.6l45.6,81.6Z" class="g4_358"/>
<path d="M383.1,985.5L416,926.7l32.3,58.8Z" class="g7_358"/>
<path d="M398,968.4l20.7,-26.6L412.6,960h16.2l-23.4,22.3l6.9,-14.7L398,968.8Z" class="g4_358"/>
<path d="M364.1,999.7H467.3V903H364.1v96.7Z" class="g5_358"/>
<path d="M512.8,994.9l46.1,-81.6l45.5,81.6Z" class="g4_358"/>
<path d="M525.8,987.6l33,-58.8L591,987.6Z" class="g7_358"/>
<path d="M561.3,952.8c.2,1.2,-1.2,2.2,-1.2,2.2l4.7,5.1l.8,-.2l5.8,4.8V970l-23.5,11.9l-6.1,-4.2V972l7,-3.6l9.3,-13.8c-1.2,-1.3,.6,-4.4,.6,-4.4c-1.5,-1.4,-.1,-2.5,-.1,-2.5v-4h1.9v4c.4,0,1,1.8,-.4,2.9c0,0,-1.7,2.1,-1,3.1c.8,.9,2.1,-.8,2.2,-.9Z" class="g4_358"/>
<path d="M558.3,955.7l-8.1,12l8.1,-4.3Z" class="g7_358"/>
<path d="M548.6,968.9V974l6,4.2l.3,-.4c0,0,-5.5,-3.9,-5.7,-4.1v-4.8Z" class="g7_358"/>
<path d="M559.1,955.6V963l4.6,-2.4Z" class="g7_358"/>
<path d="M558.4,963.7v5.2l5.9,4.1l.4,-.4c0,0,-5.6,-3.9,-5.8,-4v-4.9Z" class="g7_358"/>
<path d="M506.3,999.7H609.5V903H506.3v96.7Z" class="g5_358"/>
<image clip-path="url(#c4_358)" preserveAspectRatio="none" x="652" y="907" width="96" height="94" xlink:href="img/4.jpg"/>
<path d="M648.6,999.7H751.8V903H648.6v96.7Z" class="g5_358"/>
<image clip-path="url(#c5_358)" preserveAspectRatio="none" x="226" y="1064" width="95" height="96" xlink:href="img/5.jpg"/>
<path d="M221.8,1158.6H325.1v-96.7H221.8v96.7Z" class="g5_358"/>
<image clip-path="url(#c6_358)" preserveAspectRatio="none" x="368" y="1065" width="96" height="95" xlink:href="img/6.jpg"/>
<path d="M364.1,1158.6H467.3v-96.7H364.1v96.7Z" class="g5_358"/>
<image clip-path="url(#c7_358)" preserveAspectRatio="none" x="514" y="1065" width="95" height="95" xlink:href="img/7.jpg"/>
<path d="M506.3,1158.6H609.5v-96.7H506.3v96.7Z" class="g5_358"/>
<path clip-path="url(#c8_358)" d="M656.1,1152.4l46.1,-81.6l45.5,81.6Z" class="g4_358"/>
<path d="M669.2,1145.1l32.9,-58.8l32.2,58.8Z" class="g7_358"/>
<path d="M705.8,1136.9c0,2.2,-1.8,4,-4,4c-2.2,0,-4,-1.8,-4,-4c0,-2.2,1.8,-4,4,-4c2.2,0,4,1.8,4,4Z" class="g4_358"/>
<path d="M697.8,1106.4c0,0,0,-3.1,4.2,-3.1c4.2,0,3.8,3.4,3.8,3.4l-1.4,21.5c0,0,-.8,2.2,-2.5,2.2c-1.7,0,-2.9,-1.6,-2.9,-2.3c0,-.6,-1.2,-21.7,-1.2,-21.7Z" class="g4_358"/>
<path d="M648.6,1158.6H751.8v-96.7H648.6v96.7Z" class="g5_358"/>
<path d="M209.6,493.1c0,0,-12.9,0,-12.9,13v21.6c0,0,0,13,12.9,13h602c0,0,13,0,13,-13V506.1c0,0,0,-13,-13,-13Z" class="g8_358"/>
<image clip-path="url(#c9_358)" preserveAspectRatio="none" x="153" y="463" width="75" height="77" xlink:href="img/8.png"/>
<path d="M204.4,533.3c0,0,-26.8,11.3,-51.1,-12.7c0,0,15.2,25.3,49.3,23.9c0,0,24.8,.4,20.3,-10.1c0,0,1.2,-4.4,-18.5,-1.1Z" class="g8_358"/>
<path d="M32.1,179.3H967.5V32.1H32.1V179.3Z" class="g9_358"/>
<path d="M260.9,131.9c-2.3,-2.4,-4.7,-3.6,-7.3,-3.6c-.9,0,-2,.4,-3,1.2c-1.1,.9,-1.6,1.8,-1.6,2.7c0,.4,.1,.7,.4,1l.9,.8h-3.2l1.2,1.2h1.8v11.3l1.2,1.2V135.2h2.1L252.2,134h-1.3l-.5,-1.1c.1,-.9,.6,-1.6,1.6,-2.3c1,-.7,1.9,-1,2.8,-1c.6,0,1.2,.1,1.8,.2c.6,.2,1.1,.4,1.7,.7c.6,.4,1.1,.7,1.6,1c.4,.4,.9,.7,1.3,1l-.3,-.6Zm5.2,3.3L264.9,134c-.7,-.1,-1.1,-.6,-1.2,-1.5l-.7,-.6l.2,5.3h-.1c-.1,-.5,-.5,-1.2,-1.2,-2c-.7,-.8,-1.3,-1.2,-1.7,-1.2c-1.3,0,-2.3,.8,-3,2.4c-.2,-.7,-.5,-1.2,-1.1,-1.7c-.5,-.5,-1.1,-.7,-1.7,-.7h-2.6l1.2,1.2c.1,0,.6,0,1.4,0c.7,0,1.4,.5,2,1.5c-.3,.1,-.6,.2,-.9,.4c-.2,.2,-.4,.4,-.6,.7c-.2,.2,-.4,.5,-.5,.8c-.1,.2,-.1,.5,-.1,.8c0,.4,.1,.8,.4,1.2c.3,.3,.6,.5,1,.5c1,0,1.6,-.5,2,-1.5c.2,.5,.4,.8,.7,1.1c.4,.2,.7,.4,1.1,.4c.6,-.1,1,-.3,1.2,-.7c.3,-.3,.5,-.7,.5,-1.2c0,-.6,-.7,-1.3,-1.9,-2.2c0,-.3,.1,-.6,.4,-.7c.3,-.2,.6,-.3,.9,-.3c.5,0,1,.3,1.6,1c.5,.8,.8,1.4,.8,1.9l-.1,7.7l1.2,1.2V135.2h2ZM277.7,134H264.6l1.2,1.2h9.9v2c-.3,-.5,-.5,-.8,-.7,-1c-.2,-.2,-.6,-.3,-1,-.3c-.3,0,-.6,.2,-1,.5c-.4,.4,-.5,.7,-.5,1c-.9,-1,-1.8,-1.6,-2.8,-1.6c-.8,0,-1.4,.4,-2,1.2c-.4,.7,-.6,1.5,-.6,2.3c0,.6,.1,1.2,.3,1.7c.4,.6,.8,1,1.3,1.3c-.3,.2,-.6,.5,-1,1c-.2,.3,-.3,.6,-.4,.8c-.1,.2,-.2,.4,-.2,.5c0,.2,.1,.4,.3,.6c.2,.3,.4,.4,.6,.4c.2,0,.5,-.1,.9,-.3c.4,-.1,.6,-.2,.9,-.2c.5,0,.7,.4,.7,1.2c0,.3,-.1,.6,-.4,.9c-.2,.3,-.4,.6,-.7,.8l-.2,.2l1.8,.6l4.2,-4.2c.1,.1,.3,.3,.4,.5c.2,.3,.3,.7,.4,1.2c.2,.5,.2,1.1,.3,1.7c0,.6,0,1.1,.1,1.6c0,0,.1,.1,.2,.1c.2,.1,.3,.2,.3,.2V135.2h2L277.7,134Zm-2,9.9c-.1,-.3,-.2,-.7,-.4,-1c-.2,-.3,-.5,-.6,-.9,-.9c-.4,-.3,-.7,-.5,-1.1,-.7c-.4,-.1,-.7,-.2,-1.1,-.3c.1,-.5,0,-.9,-.3,-1.2c-.2,-.4,-.6,-.5,-1,-.5c-.4,0,-.7,.1,-1,.4c-.3,.2,-.4,.5,-.4,.9c0,.1,0,.3,.1,.4c0,.2,.1,.4,.3,.6c-1.2,-.2,-1.7,-.8,-1.7,-1.7c0,-.7,.2,-1.2,.6,-1.7c.5,-.4,1,-.6,1.6,-.6c1.4,0,2.4,.7,2.8,2.2c0,0,.1,0,.2,-.1c.1,0,.2,0,.2,-.1c0,-.2,0,-.5,0,-.7c0,-.9,.3,-1.3,1,-1.3c.4,0,.7,.2,.9,.5c.2,.3,.3,.7,.3,1v1c0,.4,0,.9,0,1.4c-.1,.5,-.1,1,-.1,1.4v1Zm-4.5,2.4c0,-.1,0,-.2,0,-.3v-.1c0,-.3,0,-.5,-.1,-.7c-.1,-.3,-.2,-.5,-.3,-.6c-.2,-.2,-.3,-.3,-.5,-.4c-.2,-.1,-.5,-.2,-.7,-.2h-.2c.6,-1.1,1.5,-1.6,2.9,-1.6c.7,0,1.3,.3,1.9,.9l-3,3Zm27.7,-14.4c-2.3,-2.4,-4.8,-3.6,-7.3,-3.6c-1,0,-2,.4,-3.1,1.2c-1,.9,-1.6,1.8,-1.6,2.7c0,.4,.2,.7,.5,1l.8,.8H285l1.2,1.2H288v11.3l1.3,1.2V135.2h2.1L290.1,134h-1.3l-.4,-1.1c0,-.9,.6,-1.6,1.6,-2.3c.9,-.7,1.9,-1,2.8,-1c.6,0,1.2,.1,1.8,.2c.5,.2,1.1,.4,1.6,.7c.6,.4,1.2,.7,1.6,1c.5,.4,.9,.7,1.3,1l-.2,-.6Zm3.7,3.3L301.3,134H289.7l1.2,1.2h8.4v6.6h-.1c-1.2,-2.6,-2.7,-4,-4.4,-4c-.8,0,-1.5,.3,-2.1,.9c-.6,.5,-.9,1.2,-.9,2c0,1.5,.8,2.2,2.4,2.2c.5,0,.9,-.2,1.2,-.5c.3,-.4,.4,-.8,.4,-1.3c0,-.3,-.3,-.8,-.8,-1.5c.1,-.1,.2,-.1,.4,-.1c1.2,0,2.3,.8,3.3,2.5c.6,1.4,.9,2.9,.9,4.2l-.1,1.3l1,.6V135.2h2.1Zm11.3,0L312.7,134H300.9l1.2,1.2h8.2v.9c-2.5,.8,-5,2.1,-7.4,3.7l1.6,2.3c1.7,.1,3,.7,4,1.6c.3,.3,.6,.6,1,1c.3,.4,.5,.8,.7,1c.1,.3,.3,.7,.6,1.3l.6,.8V135.2h2.5Zm-3.6,9.4c-1.1,-1.8,-2.7,-3.2,-4.9,-4.1c.9,-.6,1.7,-1.1,2.5,-1.5c.8,-.4,1.6,-.7,2.4,-1v6.6Zm-4.7,1.7c.2,.3,.5,.4,.8,.4c.4,0,.7,-.1,.9,-.4c.3,-.2,.4,-.5,.4,-.8c0,-.4,-.1,-.7,-.4,-.9c-.2,-.3,-.5,-.4,-.9,-.4c-.3,0,-.6,.1,-.8,.4c-.3,.2,-.4,.5,-.4,.9c0,.3,.1,.6,.4,.8Zm12.7,-11.1L317.1,134H316c-.3,-.4,-.6,-1,-.7,-1.9l-.5,-.3c0,.2,0,.5,.1,.9c0,.3,0,.7,0,1.2c.1,.5,.1,.9,.1,1.3c0,.3,0,.6,0,.9c-.2,-.8,-.5,-1.3,-.9,-1.6c-.4,-.3,-1,-.5,-1.7,-.5H311l1.2,1.2c.3,0,.7,.1,1,.2c.3,.1,.6,.3,.9,.5c.2,.2,.4,.4,.5,.7c.2,.3,.3,.7,.3,1v8.9l1.1,1.2V135.2h2.3Zm12.9,0L330,134c-.1,0,-.2,0,-.4,0c-.4,0,-.7,-.2,-.9,-.6c0,-.2,-.1,-.6,-.2,-1.2l-.5,-.5c0,1.1,.1,2.2,.1,3.2c.1,1.1,.1,2.1,.2,3.2h-.1c-1.5,-2.6,-3.1,-3.9,-4.9,-3.9c-.4,0,-.9,.1,-1.4,.3c-.5,.1,-1,.4,-1.5,.7c-.6,.4,-1,.8,-1.3,1.2c-.3,.4,-.5,.9,-.5,1.3c0,.2,.1,.5,.3,.7c.2,.2,.4,.3,.6,.3c.3,0,.5,-.1,.9,-.3c.2,-.1,.4,-.1,.5,-.2c.1,0,.2,0,.4,0c.4,0,.7,.4,.7,1.2c0,.5,-.4,1.1,-1.3,1.9l1.8,.6l4.2,-4.2c.1,.1,.3,.2,.4,.4c.2,.2,.3,.4,.5,.6c.1,.3,.3,.5,.3,.7c.1,.3,.2,.5,.2,.6l-.2,6.4l1.3,1.3V135.2h2Zm-8.5,4.2c.1,-.7,-.1,-1.2,-.3,-1.6c-.3,-.5,-.8,-.7,-1.4,-.7c.5,-1.1,1.4,-1.6,2.8,-1.6c.7,0,1.3,.3,1.8,.9l-2.9,3Zm21.1,-4.2L342.5,134H329.7l1.2,1.2h12.9Zm-1.3,7.4c-.1,-.4,-.4,-.7,-.7,-1.1c.6,-.7,.9,-1.6,.9,-2.9c0,-.8,-.3,-1.5,-1,-2c-.6,-.6,-1.3,-.8,-2.1,-.8c-.5,0,-1.1,0,-1.6,.2c-.6,.2,-1.1,.4,-1.6,.7c-.5,.4,-1,.8,-1.3,1.3c-.3,.4,-.4,.9,-.5,1.4c.1,1.2,.6,1.8,1.7,1.8c.8,0,1.2,-.4,1.2,-1c0,-.6,-.2,-1.1,-.7,-1.5c.8,-1.1,2,-1.7,3.5,-1.7c.4,0,.8,.1,1,.4c.3,.2,.5,.5,.5,1c0,.7,-.3,1.1,-.9,1.4c-.4,-.2,-.7,-.2,-1,-.2c-.4,0,-.7,.1,-1,.4c-.2,.3,-.4,.7,-.4,1.1c0,.4,.2,.7,.5,1c.2,.3,.6,.4,1,.4c.4,0,.8,-.2,1.1,-.5c.5,.4,.7,.8,.7,1.2c0,.7,-.3,1.2,-.8,1.7c-.6,.4,-1.2,.5,-1.9,.5c-1.6,0,-3.1,-1,-4.4,-2.9c-.3,-.5,-.6,-1.1,-1,-1.9c-.5,-.9,-.9,-2,-1.5,-3.3v.1l-.8,-.5c2,6.9,4.5,10.3,7.7,10.3c2.4,0,3.7,-1.1,3.7,-3.4c0,-.4,-.1,-.8,-.3,-1.2Zm6,-7.4L347.4,134h-1.1c-.4,-.4,-.6,-1,-.7,-1.9l-.5,-.3c0,.2,0,.5,0,.9c.1,.3,.1,.7,.1,1.2c.1,.5,.1,.9,.1,1.3c0,.3,0,.6,0,.9c-.2,-.8,-.5,-1.3,-.9,-1.6c-.4,-.3,-1,-.5,-1.7,-.5h-1.4l1.2,1.2c.3,0,.7,.1,1,.2c.3,.1,.6,.3,.8,.5c.3,.2,.5,.4,.6,.7c.2,.3,.2,.7,.2,1v8.9l1.2,1.2V135.2h2.2Zm14.1,4c-.3,-.4,-.7,-.9,-1.2,-1.4c-.5,-.5,-1.1,-1.1,-1.8,-1.8c0,-.1,0,-.2,0,-.3v-.3c0,-1.1,-.3,-1.7,-1.1,-1.7c-.5,0,-.8,.2,-1.1,.5c-.3,.3,-.4,.7,-.4,1.1c0,.3,.1,.6,.4,1.1c.3,.5,.7,.9,1.1,1.3c.4,.4,.9,.8,1.4,1.3c.5,.4,1,.8,1.4,1.3c1,1,1.5,1.8,1.5,2.5c0,.4,-.1,.7,-.2,1c-.1,.3,-.3,.6,-.6,.8c-.5,-.6,-1.4,-.9,-2.5,-.9c-.6,0,-1.2,.3,-1.8,.7c-.5,.5,-.8,1,-.8,1.6c0,.5,.3,1,.8,1.3c.4,.4,.9,.5,1.5,.5c1.2,0,2.3,-.4,3.4,-1.4c1,-1,1.5,-2.1,1.5,-3.3c0,-1.2,-.5,-2.5,-1.5,-3.9Z" class="ga_358"/>
<g clip-path="url(#c0_358)">
<path d="M1877,177.2H32.1v-5.4H768.7c43.1,0,53,-37.9,115.3,-37.9h993Z" class="gb_358"/>
<path d="M1877,183.7H32.1v-9.8H768.7c43.1,0,53,-33.6,115.3,-33.6h993Z" class="gc_358"/>
</g>
<path d="M131.7,431.3v22.2l11.7,10.3V441.6Z" class="gd_358"/>
<path d="M131.7,414.5v39H829.4c0,0,16.9,0,16.9,-16.8v-5.4c0,0,0,-16.8,-16.9,-16.8Z" class="ge_358"/>
<path d="M189.6,425.9l-6.4,-6.4L162,440.7l6.4,6.4Z" class="gf_358"/>
<path d="M168.4,447.7c.2,0,.3,-.1,.4,-.2L190,426.3c.1,-.1,.2,-.2,.2,-.4c0,-.1,-.1,-.2,-.2,-.3l-6.5,-6.5c-.2,-.2,-.5,-.2,-.7,0l-21.2,21.2c-.1,.1,-.2,.2,-.2,.4c0,.1,.1,.2,.2,.3l6.5,6.5c.1,.1,.2,.2,.3,.2m20.5,-21.8l-20.5,20.5l-5.7,-5.7l20.5,-20.5Z" class="gg_358"/>
<path d="M189.6,425.9l-6.4,-6.4l2.1,-2.2l6.5,6.5Z" class="gh_358"/>
<path d="M189.6,426.5c.2,0,.3,-.1,.4,-.2l2.1,-2.1c.1,-.1,.2,-.3,.2,-.4c0,-.1,-.1,-.3,-.2,-.4L185.7,417c-.2,-.3,-.6,-.3,-.8,0l-2.1,2.1c-.1,.1,-.2,.2,-.2,.4c0,.1,.1,.2,.2,.3l6.5,6.5c.1,.1,.2,.2,.3,.2m1.4,-2.7l-1.4,1.4l-5.7,-5.7l1.4,-1.4Z" class="gg_358"/>
<path d="M195.4,420.2l-6.5,-6.5l-3.6,3.6l6.5,6.5Z" class="gi_358"/>
<path d="M191.8,424.3c.1,0,.2,0,.3,-.1l3.7,-3.6c.2,-.2,.2,-.6,0,-.8l-6.5,-6.5c-.2,-.2,-.6,-.2,-.8,0l-3.6,3.7c-.2,.2,-.2,.5,0,.7l6.5,6.5c.1,.1,.2,.1,.4,.1m2.8,-4.1l-2.8,2.9L186,417.3l2.9,-2.8Z" class="gg_358"/>
<path d="M157.3,451.8L162,440.7l6.4,6.4Z" class="g1_358"/>
<path d="M157.3,452.3c.1,0,.2,0,.2,0l11.1,-4.7c.2,0,.3,-.2,.4,-.4c0,-.1,-.1,-.3,-.2,-.4l-6.5,-6.5c-.1,-.1,-.3,-.2,-.5,-.2c-.1,.1,-.3,.2,-.3,.4l-4.7,11.1c0,.2,0,.4,.1,.6c.1,0,.3,.1,.4,.1M167.5,447l-9.2,3.8l3.8,-9.2Z" class="gg_358"/>
<path d="M157.3,451.8l2.3,-5.4l3.1,3.1Z" class="gg_358"/>
<path d="M157.3,452.3c.1,0,.2,0,.2,0l5.4,-2.3c.1,0,.3,-.2,.3,-.4c0,-.1,0,-.3,-.1,-.4L159.9,446c-.1,-.1,-.3,-.1,-.4,-.1c-.2,0,-.4,.1,-.4,.3l-2.3,5.4c0,.2,0,.4,.1,.6c.1,0,.3,.1,.4,.1m4.5,-2.9l-3.5,1.4l1.4,-3.5Z" class="gg_358"/>
<path d="M187.9,424.2l-3,-3l-21.2,21.2l3,3Z" class="gj_358"/>
<path d="M166.7,445.9c.1,0,.2,0,.3,-.1l21.3,-21.2c.1,-.1,.1,-.3,.1,-.4c0,-.2,0,-.3,-.1,-.4l-3,-3c-.2,-.2,-.5,-.2,-.8,0l-21.2,21.3c-.1,.1,-.1,.2,-.1,.3c0,.2,0,.3,.1,.4l3,3c.1,.1,.2,.1,.4,.1m20.4,-21.7l-20.4,20.4l-2.2,-2.2L184.9,422Z" class="gg_358"/>
<image clip-path="url(#ca_358)" preserveAspectRatio="none" x="125" y="206" width="734" height="181" xlink:href="img/9.png"/>
<path d="M144.6,231.3c0,0,-13,0,-13,13v117c0,0,0,13,13,13H833.1c0,0,13,0,13,-13v-130Z" class="gk_358"/>
<path d="M147.7,294.1l54.1,40.8l54.1,-40.8V230h8.7V211.9H155.8c-6.5,.4,-7.7,3.9,-8.2,8.4Z" class="gl_358"/>
<path d="M274,220.3c-.3,-4.7,-4.2,-8.4,-9,-8.4c-4.8,0,-8.7,3.7,-9,8.4h-.1V230h18.2v-9.7Z" class="g4_358"/>
<path d="M255.9,230.6H846.1" class="gm_358"/>
<path d="M32.1,45.1H9.2m958.3,0h22.9M32.1,1331.3H9.2m958.3,0h22.9M45.1,32.1V9.2m0,1335.1v22.9M954.5,32.1V9.2m0,1335.1v22.9" class="gn_358"/>
<path d="M32.1,45.1H9.2m958.3,0h22.9M32.1,1331.3H9.2m958.3,0h22.9M45.1,32.1V9.2m0,1335.1v22.9M954.5,32.1V9.2m0,1335.1v22.9" class="go_358"/>
<path d="M27.5,32.1H0m972.1,0h27.5M27.5,1344.3H0m972.1,0h27.5M32.1,27.5V0m0,1348.9v27.5M967.5,27.5V0m0,1348.9v27.5" class="gn_358"/>
<path d="M27.5,32.1H0m972.1,0h27.5M27.5,1344.3H0m972.1,0h27.5M32.1,27.5V0m0,1348.9v27.5M967.5,27.5V0m0,1348.9v27.5" class="go_358"/>
</svg>