<?xml version="1.0" encoding="UTF-8" standalone="no"?>
<!DOCTYPE svg PUBLIC "-//W3C//DTD SVG 1.1//EN"
"http://www.w3.org/Graphics/SVG/1.1/DTD/svg11.dtd">
<svg viewBox="0 0 999 1376" version="1.1" xmlns="http://www.w3.org/2000/svg" xmlns:xlink="http://www.w3.org/1999/xlink">
<defs>
<clipPath id="c0_389"><path d="M32.1,1344.3V32.1H967.5V1344.3Z"/></clipPath>
<style type="text/css"><![CDATA[
.g0_389{
fill: #D7E6A3;
}
.g1_389{
fill: #D2D3D5;
}
.g2_389{
fill: #DAECD4;
}
.g3_389{
fill: #C2E0B9;
}
.g4_389{
fill: #BCD0C0;
}
.g5_389{
fill: #90B69A;
}
.g6_389{
fill: none;
stroke: #FFF;
stroke-width: 1.451;
stroke-miterlimit: 10;
}
.g7_389{
fill: #DDE9F1;
}
.g8_389{
fill: #C6DAE9;
}
.g9_389{
fill: #B7BDD2;
}
.ga_389{
fill: #8E99B7;
}
.gb_389{
fill: none;
stroke: #FFF;
stroke-width: 1.909;
stroke-miterlimit: 10;
}
.gc_389{
fill: none;
stroke: #000;
stroke-width: 0.381;
stroke-miterlimit: 10;
}
]]></style>
</defs>
<path clip-path="url(#c0_389)" d="M-613.1,32.1c0,0,-13,0,-13,13v81c0,0,0,12.9,13,12.9h1468c0,0,13,0,13,-12.9v-81c0,0,0,-13,-13,-13Z" class="g0_389"/>
<image preserveAspectRatio="none" x="752" y="60" width="107" height="91" xlink:href="img/1.png"/>
<path d="M737.6,198.8h95.3v34.7H737.6V198.8Zm-95.2,0h95.2v34.7H642.4V198.8Zm-95.3,0h95.3v34.7H547.1V198.8Zm-95.3,0h95.3v34.7H451.8V198.8Zm-95.3,0h95.3v34.7H356.5V198.8Zm-138.6,0H356.5v34.7H217.9V198.8Zm-64.9,0h64.9v34.7H153V198.8Z" class="g1_389"/>
<path d="M737.6,398.1h95.3V450H737.6V398.1Zm-95.2,0h95.2V450H642.4V398.1Zm-95.3,0h95.3V450H547.1V398.1Zm-95.3,0h95.3V450H451.8V398.1Zm-95.3,0h95.3V450H356.5V398.1Zm-203.5,0h64.9V450H153V398.1ZM737.6,341.7h95.3V398H737.6V341.7Zm-95.2,0h95.2V398H642.4V341.7Zm-95.3,0h95.3V398H547.1V341.7Zm-95.3,0h95.3V398H451.8V341.7Zm-95.3,0h95.3V398H356.5V341.7Zm-203.5,0h64.9V398H153V341.7ZM737.6,285.4h95.3v56.3H737.6V285.4Zm-95.2,0h95.2v56.3H642.4V285.4Zm-95.3,0h95.3v56.3H547.1V285.4Zm-95.3,0h95.3v56.3H451.8V285.4Zm-95.3,0h95.3v56.3H356.5V285.4Zm-203.5,0h64.9v56.3H153V285.4ZM737.6,233.5h95.3v51.9H737.6V233.5Zm-95.2,0h95.2v51.9H642.4V233.5Zm-95.3,0h95.3v51.9H547.1V233.5Zm-95.3,0h95.3v51.9H451.8V233.5Zm-95.3,0h95.3v51.9H356.5V233.5Zm-203.5,0h64.9v51.9H153V233.5Z" class="g2_389"/>
<path d="M217.9,398.1H356.5V450H217.9V398.1Zm0,-56.4H356.5V398H217.9V341.7Zm0,-56.3H356.5v56.3H217.9V285.4Zm0,-51.9H356.5v51.9H217.9V233.5Z" class="g3_389"/>
<path d="M737.6,554h95.3v51.9H737.6V554Zm-95.2,0h95.2v51.9H642.4V554Zm-95.3,0h95.3v51.9H547.1V554Zm-95.3,0h95.3v51.9H451.8V554Zm-95.3,0h95.3v51.9H356.5V554ZM153,554h64.9v51.9H153V554ZM737.6,502h95.3v52H737.6V502Zm-95.2,0h95.2v52H642.4V502Zm-95.3,0h95.3v52H547.1V502Zm-95.3,0h95.3v52H451.8V502Zm-95.3,0h95.3v52H356.5V502ZM153,502h64.9v52H153V502ZM737.6,450h95.3v52H737.6V450Zm-95.2,0h95.2v52H642.4V450Zm-95.3,0h95.3v52H547.1V450Zm-95.3,0h95.3v52H451.8V450Zm-95.3,0h95.3v52H356.5V450ZM153,450h64.9v52H153V450Z" class="g4_389"/>
<path d="M217.9,554H356.5v51.9H217.9V554Zm0,-52H356.5v52H217.9V502Zm0,-52H356.5v52H217.9V450Z" class="g5_389"/>
<path d="M152.3,198.8h65.6m-64.9,34V199.6m64.9,-.8H356.5m-138.6,34V199.6m138.6,-.8h95.3m-95.3,34V199.6m95.3,-.8h95.3m-95.3,34V199.6m95.3,-.8h95.3m-95.3,34V199.6m95.3,-.8h95.2m-95.2,34V199.6m95.2,-.8h96m-96,34V199.6m95.3,33.2V199.6M152.3,233.5h65.6M153,284.7V234.2m64.9,-.7H356.5M217.9,284.7V234.2m138.6,-.7h95.3m-95.3,51.2V234.2m95.3,-.7h95.3m-95.3,51.2V234.2m95.3,-.7h95.3m-95.3,51.2V234.2m95.3,-.7h95.2m-95.2,51.2V234.2m95.2,-.7h96m-96,51.2V234.2m95.3,50.5V234.2M152.3,285.4h65.6M153,341V286.2m64.9,-.8H356.5M217.9,341V286.2m138.6,-.8h95.3M356.5,341V286.2m95.3,-.8h95.3M451.8,341V286.2m95.3,-.8h95.3M547.1,341V286.2m95.3,-.8h95.2M642.4,341V286.2m95.2,-.8h96m-96,55.6V286.2M832.9,341V286.2M152.3,341.7h65.6M153,397.3V342.5m64.9,-.8H356.5M217.9,397.3V342.5m138.6,-.8h95.3m-95.3,55.6V342.5m95.3,-.8h95.3m-95.3,55.6V342.5m95.3,-.8h95.3m-95.3,55.6V342.5m95.3,-.8h95.2m-95.2,55.6V342.5m95.2,-.8h96m-96,55.6V342.5m95.3,54.8V342.5M152.3,398.1h65.6M153,449.3V398.8m64.9,-.7H356.5M217.9,449.3V398.8m138.6,-.7h95.3m-95.3,51.2V398.8m95.3,-.7h95.3m-95.3,51.2V398.8m95.3,-.7h95.3m-95.3,51.2V398.8m95.3,-.7h95.2m-95.2,51.2V398.8m95.2,-.7h96m-96,51.2V398.8m95.3,50.5V398.8M152.3,450h65.6M153,501.3V450.7m64.9,-.7H356.5M217.9,501.3V450.7M356.5,450h95.3m-95.3,51.3V450.7m95.3,-.7h95.3m-95.3,51.3V450.7m95.3,-.7h95.3m-95.3,51.3V450.7m95.3,-.7h95.2m-95.2,51.3V450.7m95.2,-.7h96m-96,51.3V450.7m95.3,50.6V450.7M152.3,502h65.6M153,553.2V502.7m64.9,-.7H356.5M217.9,553.2V502.7M356.5,502h95.3m-95.3,51.2V502.7m95.3,-.7h95.3m-95.3,51.2V502.7m95.3,-.7h95.3m-95.3,51.2V502.7m95.3,-.7h95.2m-95.2,51.2V502.7m95.2,-.7h96m-96,51.2V502.7m95.3,50.5V502.7M152.3,554h65.6M153,605.2V554.7m64.9,-.7H356.5M217.9,605.2V554.7M356.5,554h95.3m-95.3,51.2V554.7m95.3,-.7h95.3m-95.3,51.2V554.7m95.3,-.7h95.3m-95.3,51.2V554.7m95.3,-.7h95.2m-95.2,51.2V554.7m95.2,-.7h96m-96,51.2V554.7m95.3,50.5V554.7M152.3,605.9h65.6m0,0H356.5m0,0h95.3m0,0h95.3m0,0h95.3m0,0h95.2m0,0h96" class="g6_389"/>
<path d="M746.3,690.2h95.3v34.7H746.3V690.2Zm-95.3,0h95.3v34.7H651V690.2Zm-95.3,0H651v34.7H555.7V690.2Zm-95.2,0h95.2v34.7H460.5V690.2Zm-95.3,0h95.3v34.7H365.2V690.2Zm-147.3,0H365.2v34.7H217.9V690.2Zm-64.9,0h64.9v34.7H153V690.2Z" class="g1_389"/>
<path d="M746.3,1041h95.3v56.3H746.3V1041Zm-95.3,0h95.3v56.3H651V1041Zm-95.3,0H651v56.3H555.7V1041Zm-95.2,0h95.2v56.3H460.5V1041Zm-95.3,0h95.3v56.3H365.2V1041ZM153,1041h64.9v56.3H153V1041ZM746.3,984.7h95.3V1041H746.3V984.7Zm-95.3,0h95.3V1041H651V984.7Zm-95.3,0H651V1041H555.7V984.7Zm-95.2,0h95.2V1041H460.5V984.7Zm-95.3,0h95.3V1041H365.2V984.7Zm-212.2,0h64.9V1041H153V984.7Zm593.3,-52h95.3v52H746.3v-52Zm-95.3,0h95.3v52H651v-52Zm-95.3,0H651v52H555.7v-52Zm-95.2,0h95.2v52H460.5v-52Zm-95.3,0h95.3v52H365.2v-52Zm-212.2,0h64.9v52H153v-52ZM746.3,880.8h95.3v51.9H746.3V880.8Zm-95.3,0h95.3v51.9H651V880.8Zm-95.3,0H651v51.9H555.7V880.8Zm-95.2,0h95.2v51.9H460.5V880.8Zm-95.3,0h95.3v51.9H365.2V880.8Zm-212.2,0h64.9v51.9H153V880.8Zm593.3,-52h95.3v52H746.3v-52Zm-95.3,0h95.3v52H651v-52Zm-95.3,0H651v52H555.7v-52Zm-95.2,0h95.2v52H460.5v-52Zm-95.3,0h95.3v52H365.2v-52Zm-212.2,0h64.9v52H153v-52Zm593.3,-52h95.3v52H746.3v-52Zm-95.3,0h95.3v52H651v-52Zm-95.3,0H651v52H555.7v-52Zm-95.2,0h95.2v52H460.5v-52Zm-95.3,0h95.3v52H365.2v-52Zm-212.2,0h64.9v52H153v-52ZM746.3,724.9h95.3v51.9H746.3V724.9Zm-95.3,0h95.3v51.9H651V724.9Zm-95.3,0H651v51.9H555.7V724.9Zm-95.2,0h95.2v51.9H460.5V724.9Zm-95.3,0h95.3v51.9H365.2V724.9Zm-212.2,0h64.9v51.9H153V724.9Z" class="g7_389"/>
<path d="M217.9,1041H365.2v56.3H217.9V1041Zm0,-56.3H365.2V1041H217.9V984.7Zm0,-52H365.2v52H217.9v-52Zm0,-51.9H365.2v51.9H217.9V880.8Zm0,-52H365.2v52H217.9v-52Zm0,-52H365.2v52H217.9v-52Zm0,-51.9H365.2v51.9H217.9V724.9Z" class="g8_389"/>
<path d="M746.3,1153.6h95.3v56.3H746.3v-56.3Zm-95.3,0h95.3v56.3H651v-56.3Zm-95.3,0H651v56.3H555.7v-56.3Zm-95.2,0h95.2v56.3H460.5v-56.3Zm-95.3,0h95.3v56.3H365.2v-56.3Zm-212.2,0h64.9v56.3H153v-56.3Zm593.3,-56.3h95.3v56.3H746.3v-56.3Zm-95.3,0h95.3v56.3H651v-56.3Zm-95.3,0H651v56.3H555.7v-56.3Zm-95.2,0h95.2v56.3H460.5v-56.3Zm-95.3,0h95.3v56.3H365.2v-56.3Zm-212.2,0h64.9v56.3H153v-56.3Z" class="g9_389"/>
<path d="M217.9,1153.6H365.2v56.3H217.9v-56.3Zm0,-56.3H365.2v56.3H217.9v-56.3Z" class="ga_389"/>
<path d="M152.3,690.2h65.6M153,724.1V690.9m64.9,-.7H365.2M217.9,724.1V690.9m147.3,-.7h95.3m-95.3,33.9V690.9m95.3,-.7h95.2m-95.2,33.9V690.9m95.2,-.7H651m-95.3,33.9V690.9m95.3,-.7h95.3M651,724.1V690.9m95.3,-.7h96m-96,33.9V690.9m95.3,33.2V690.9m-689.3,34h65.6M153,776.1V725.6m64.9,-.7H365.2M217.9,776.1V725.6m147.3,-.7h95.3m-95.3,51.2V725.6m95.3,-.7h95.2m-95.2,51.2V725.6m95.2,-.7H651m-95.3,51.2V725.6m95.3,-.7h95.3M651,776.1V725.6m95.3,-.7h96m-96,51.2V725.6m95.3,50.5V725.6M152.3,776.8h65.6M153,828.1V777.5m64.9,-.7H365.2M217.9,828.1V777.5m147.3,-.7h95.3m-95.3,51.3V777.5m95.3,-.7h95.2m-95.2,51.3V777.5m95.2,-.7H651m-95.3,51.3V777.5m95.3,-.7h95.3M651,828.1V777.5m95.3,-.7h96m-96,51.3V777.5m95.3,50.6V777.5M152.3,828.8h65.6M153,880V829.5m64.9,-.7H365.2M217.9,880V829.5m147.3,-.7h95.3M365.2,880V829.5m95.3,-.7h95.2M460.5,880V829.5m95.2,-.7H651M555.7,880V829.5m95.3,-.7h95.3M651,880V829.5m95.3,-.7h96m-96,51.2V829.5M841.6,880V829.5M152.3,880.8h65.6M153,932V881.5m64.9,-.7H365.2M217.9,932V881.5m147.3,-.7h95.3M365.2,932V881.5m95.3,-.7h95.2M460.5,932V881.5m95.2,-.7H651M555.7,932V881.5m95.3,-.7h95.3M651,932V881.5m95.3,-.7h96m-96,51.2V881.5M841.6,932V881.5M152.3,932.7h65.6M153,984V933.5m64.9,-.8H365.2M217.9,984V933.5m147.3,-.8h95.3M365.2,984V933.5m95.3,-.8h95.2M460.5,984V933.5m95.2,-.8H651M555.7,984V933.5m95.3,-.8h95.3M651,984V933.5m95.3,-.8h96m-96,51.3V933.5M841.6,984V933.5M152.3,984.7h65.6M153,1040.3V985.4m64.9,-.7H365.2m-147.3,55.6V985.4m147.3,-.7h95.3m-95.3,55.6V985.4m95.3,-.7h95.2m-95.2,55.6V985.4m95.2,-.7H651m-95.3,55.6V985.4m95.3,-.7h95.3M651,1040.3V985.4m95.3,-.7h96m-96,55.6V985.4m95.3,54.9V985.4M152.3,1041h65.6M153,1096.6v-54.9m64.9,-.7H365.2m-147.3,55.6v-54.9m147.3,-.7h95.3m-95.3,55.6v-54.9m95.3,-.7h95.2m-95.2,55.6v-54.9m95.2,-.7H651m-95.3,55.6v-54.9M651,1041h95.3M651,1096.6v-54.9m95.3,-.7h96m-96,55.6v-54.9m95.3,54.9v-54.9m-689.3,55.6h65.6M153,1152.9V1098m64.9,-.7H365.2m-147.3,55.6V1098m147.3,-.7h95.3m-95.3,55.6V1098m95.3,-.7h95.2m-95.2,55.6V1098m95.2,-.7H651m-95.3,55.6V1098m95.3,-.7h95.3M651,1152.9V1098m95.3,-.7h96m-96,55.6V1098m95.3,54.9V1098m-689.3,55.6h65.6M153,1209.2v-54.9m64.9,-.7H365.2m-147.3,55.6v-54.9m147.3,-.7h95.3m-95.3,55.6v-54.9m95.3,-.7h95.2m-95.2,55.6v-54.9m95.2,-.7H651m-95.3,55.6v-54.9m95.3,-.7h95.3M651,1209.2v-54.9m95.3,-.7h96m-96,55.6v-54.9m95.3,54.9v-54.9m-689.3,55.6h65.6m0,0H365.2m0,0h95.3m0,0h95.2m0,0H651m0,0h95.3m0,0h96" class="g6_389"/>
<path d="M32.1,45.1H9.2m958.3,0h22.9M32.1,1331.3H9.2m958.3,0h22.9M45.1,32.1V9.2m0,1335.1v22.9M954.5,32.1V9.2m0,1335.1v22.9" class="gb_389"/>
<path d="M32.1,45.1H9.2m958.3,0h22.9M32.1,1331.3H9.2m958.3,0h22.9M45.1,32.1V9.2m0,1335.1v22.9M954.5,32.1V9.2m0,1335.1v22.9" class="gc_389"/>
<path d="M27.5,32.1H0m972.1,0h27.5M27.5,1344.3H0m972.1,0h27.5M32.1,27.5V0m0,1348.9v27.5M967.5,27.5V0m0,1348.9v27.5" class="gb_389"/>
<path d="M27.5,32.1H0m972.1,0h27.5M27.5,1344.3H0m972.1,0h27.5M32.1,27.5V0m0,1348.9v27.5M967.5,27.5V0m0,1348.9v27.5" class="gc_389"/>
</svg>