<?xml version="1.0" encoding="UTF-8" standalone="no"?>
<!DOCTYPE svg PUBLIC "-//W3C//DTD SVG 1.1//EN"
"http://www.w3.org/Graphics/SVG/1.1/DTD/svg11.dtd">
<svg viewBox="0 0 999 1376" version="1.1" xmlns="http://www.w3.org/2000/svg" xmlns:xlink="http://www.w3.org/1999/xlink">
<defs>
<clipPath id="c0_245"><path d="M153.4,1243.8V140.9H868V1243.8Z"/></clipPath>
<clipPath id="c1_245"><path d="M405.6,639.9v-374H576.7v374Z"/></clipPath>
<clipPath id="c2_245"><path d="M405.6,1162.4v-374H576.7v374Z"/></clipPath>
<style type="text/css"><![CDATA[
.g0_245{
fill: #FFF;
}
.g1_245{
fill: none;
stroke: #231F20;
stroke-width: 0.756;
stroke-miterlimit: 3;
}
.g2_245{
fill: none;
stroke: #231F20;
stroke-width: 0.432;
stroke-dasharray: 2,1;
}
.g3_245{
fill: none;
stroke: #231F20;
stroke-width: 0.432;
}
.g4_245{
fill: none;
stroke: #231F20;
stroke-width: 0.432;
stroke-dasharray: 2,2;
}
.g5_245{
fill: #25408F;
}
.g6_245{
fill: #6381B7;
}
.g7_245{
fill: #FFDE2C;
}
.g8_245{
fill: none;
stroke: #231F20;
stroke-width: 1.451;
stroke-miterlimit: 10;
}
.g9_245{
fill: #D2D3D5;
}
.ga_245{
fill: #A8AAAD;
}
.gb_245{
fill: none;
stroke: #231F20;
stroke-width: 0.828;
stroke-miterlimit: 10;
}
.gc_245{
fill: #6CCFF6;
}
.gd_245{
fill: none;
stroke: #231F20;
stroke-width: 0.828;
stroke-linecap: round;
stroke-linejoin: round;
}
.ge_245{
fill: none;
stroke: #231F20;
stroke-width: 1.451;
stroke-linecap: round;
stroke-linejoin: round;
}
.gf_245{
fill: none;
stroke: #FFF;
stroke-width: 1.909;
stroke-miterlimit: 10;
}
.gg_245{
fill: none;
stroke: #000;
stroke-width: 0.381;
stroke-miterlimit: 10;
}
]]></style>
</defs>
<path d="M153.4,1243.8H868V130.8H153.4v1113Z" class="g0_245"/>
<image clip-path="url(#c0_245)" preserveAspectRatio="none" x="151" y="141" width="719" height="1105" xlink:href="img/1.jpg"/>
<path d="M414.8,169.7c.3,.5,.4,1.1,.5,1.8c.1,.7,.1,1.3,.1,2c0,.4,0,.9,-.1,1.3c0,.4,-.1,.9,-.2,1.3c1.1,.1,1.9,.4,2.5,.7c.5,.4,1,.8,1.4,1.2c.4,.7,1,1.4,1.5,2.2c.6,.8,1.2,1.6,1.6,2.2l-1.6,1.3c-.6,-.8,-1.1,-1.6,-1.7,-2.4c-.5,-.8,-1,-1.4,-1.4,-1.9c-.3,-.4,-.7,-.7,-1.1,-1c-.5,-.3,-1.1,-.5,-1.8,-.6c-.2,.3,-.3,.6,-.5,.9c-.2,.3,-.4,.6,-.6,.9c-.5,.8,-1.2,1.6,-2,2.2c-.7,.7,-1.6,1.4,-2.5,2.1l-1.3,-1.7c.9,-.6,1.7,-1.2,2.4,-1.8c.7,-.7,1.2,-1.3,1.7,-2c.5,-.7,.8,-1.5,1.1,-2.3c.2,-.8,.3,-1.6,.3,-2.6c0,-.4,0,-1,-.1,-1.5c-.1,-.6,-.2,-1,-.4,-1.5l2.2,-.8Zm-.3,24.5c-.9,0,-1.5,-.2,-1.9,-.6c-.4,-.4,-.5,-.9,-.5,-1.6v-6.6h2.2v6.2c0,.2,.1,.4,.2,.6c.1,.1,.3,.2,.7,.2h7.1c1,0,2,-.1,2.8,-.2c.9,-.1,1.8,-.4,2.7,-.7l.5,1.8c-1.1,.3,-2.1,.5,-3,.7c-.9,.1,-1.9,.2,-3,.2h-7.8Zm12.9,-7.6h-2.3V169.7h2.3v16.9Zm2.9,.2c1.2,-.8,2.2,-1.8,3.2,-2.8c.9,-1,1.8,-2,2.5,-3c.7,-1,1.3,-2,1.7,-3c.5,-1,.8,-2,.9,-2.8c.1,-.3,0,-.4,-.1,-.5c-.1,-.1,-.2,-.1,-.4,-.1h-7v-1.8h3.4c.1,-.3,.2,-.5,.3,-.8c0,-.3,.1,-.6,.1,-1c0,-.2,0,-.4,-.1,-.5c0,-.2,-.1,-.4,-.1,-.6l-.2,-.5l2.2,-.7c.1,.2,.1,.4,.2,.6c0,.3,0,.5,.1,.7c0,.5,-.1,1,-.2,1.5c-.1,.4,-.2,.9,-.4,1.3h2.5c.8,0,1.3,.2,1.6,.7c.3,.4,.4,1,.3,1.7c-.2,1,-.5,2.1,-.9,3.1c-.5,1.1,-1,2.1,-1.6,3.1c.4,.2,.8,.4,1.1,.7c.3,.3,.6,.5,.8,.8c.5,.7,.9,1.4,1.3,2c.4,.7,.9,1.5,1.5,2.3l-1.7,1.2c-.5,-.9,-1,-1.7,-1.4,-2.3c-.5,-.7,-.9,-1.3,-1.3,-1.9c-.2,-.2,-.4,-.4,-.6,-.6c-.2,-.2,-.5,-.4,-.8,-.6c-.8,1,-1.7,2,-2.6,2.9c-.9,1,-1.9,1.9,-3,2.7l-1.3,-1.8Zm14.9,5.2V180.8h-3.8v-1.9h3.8V170h2.2v22h-2.2Zm5.1,-22h2.2v22.6h-2.2V170ZM463.3,186.3c2.8,-1.8,5,-3.8,6.5,-6c1.6,-2.2,2.6,-4.4,2.8,-6.6c0,-.4,0,-.6,-.2,-.7c-.1,-.1,-.3,-.2,-.5,-.2h-8.8V171h9.7c.9,0,1.4,.2,1.7,.7c.3,.5,.4,1.1,.3,1.8c-.2,2.6,-1.2,5.1,-2.9,7.6c-1.7,2.5,-4.1,4.9,-7.3,7.1l-1.3,-1.9ZM479.7,170H482v22.6h-2.3V170ZM491.1,181.8v-5.4h2.2v5.4h2.2c1.4,0,2.7,-.1,3.9,-.3c1.2,-.2,2.4,-.8,3.7,-1.6V169.7h2.3v7.8h4.2v1.8h-4.2v8.2h-2.3V182c-1.1,.5,-2.2,.9,-3.4,1.2c-1.1,.3,-2.5,.4,-4.2,.4h-9.4v-1.8h5Zm1.2,12.4c-.8,0,-1.4,-.2,-1.8,-.6c-.4,-.4,-.6,-.9,-.6,-1.6v-5.8h2.3v5.4c0,.2,.1,.4,.2,.6c.1,.1,.3,.2,.6,.2h7.4c1.1,0,2,-.1,2.9,-.2c.8,-.1,1.7,-.4,2.7,-.7l.5,1.8c-1.1,.3,-2.1,.5,-3,.7c-1,.1,-2,.2,-3,.2h-8.2Zm4.1,-14.7c.2,-1.1,.4,-2.2,.6,-3.4c.1,-1.1,.2,-2.2,.2,-3.3c0,-.3,-.1,-.5,-.2,-.6c-.2,-.2,-.4,-.3,-.7,-.3h-9.1v-1.7H497c.9,0,1.5,.2,1.8,.6c.4,.3,.5,.8,.5,1.4c0,.6,0,1.1,0,1.8c-.1,.6,-.1,1.3,-.2,2c-.1,.7,-.2,1.3,-.3,2c-.1,.6,-.2,1.3,-.3,1.8l-2.1,-.3Zm19.4,7.7v-7.9h2.3v7.9h2.6c1.4,0,2.6,-.1,3.9,-.3c1.2,-.3,2.4,-.7,3.6,-1.4V170h2.2v9.1h4.4v1.8h-4.4v11.7h-2.2v-5.2c-1.1,.5,-2.2,.9,-3.4,1.2c-1.1,.3,-2.5,.4,-4,.4H510.7v-1.8h5.1Zm5.7,-3.4c.3,-1.3,.5,-2.8,.7,-4.6c.2,-1.7,.2,-3.4,.2,-5.2c0,-.4,0,-.7,-.2,-.9c-.2,-.1,-.4,-.2,-.7,-.2h-9.8V171h10.5c.9,0,1.5,.3,1.9,.7c.4,.5,.6,1.2,.6,2.1c0,1.6,-.1,3.4,-.3,5.2c-.2,1.8,-.5,3.5,-.8,5.2l-2.1,-.4Zm39.3,-13.2v10.9c-1,.4,-2,.7,-3.2,1c-1.1,.3,-2.2,.4,-3.5,.5v4.8h9.8v1.8H542.6v-1.8h9.3V183h-3.4c-1.1,0,-1.9,-.2,-2.4,-.6c-.5,-.4,-.8,-1.1,-.8,-2.2v-9.6h2.2v4.2h11.1v-4.2h2.2ZM556,180.9c.9,-.1,1.8,-.4,2.6,-.7v-3.6H547.5v3.6c0,.3,.1,.6,.2,.7c.1,.2,.4,.3,.8,.3h5c.8,0,1.7,-.1,2.5,-.3Zm24.8,1.2c-1,.9,-2.2,1.5,-3.6,1.7v4h9.6v1.8H565.5v-1.8h9.4v-4c-1.5,-.1,-2.8,-.7,-3.8,-1.6c-1,-1,-1.5,-2.3,-1.5,-3.8c0,-.8,.2,-1.6,.4,-2.2c.3,-.6,.7,-1.2,1.2,-1.7h-3.7v-1.8h6.9c.2,-.4,.3,-.7,.3,-.9c.1,-.3,.1,-.5,.1,-.8c0,-.2,0,-.4,-.1,-.7c-.1,-.2,-.1,-.5,-.2,-.8l2.3,-.6c.1,.2,.1,.4,.2,.7c0,.3,0,.5,0,.8c0,.4,0,.8,-.1,1.2c-.1,.4,-.2,.7,-.4,1.1h7.9v1.8h-3.7c.5,.5,.8,1.1,1.1,1.7c.3,.6,.5,1.4,.5,2.2c0,1.5,-.5,2.7,-1.5,3.7ZM579,175.8c-.6,-.8,-1.7,-1.2,-3.1,-1.2c-.7,0,-1.4,.1,-1.9,.3c-.5,.2,-.9,.5,-1.2,.9c-.4,.3,-.6,.7,-.7,1.2c-.2,.4,-.2,.9,-.2,1.4c0,.4,0,.9,.2,1.3c.1,.5,.4,.9,.7,1.2c.3,.4,.7,.7,1.2,.9c.6,.2,1.2,.3,1.9,.3c.7,0,1.3,-.1,1.8,-.3c.6,-.2,1,-.5,1.3,-.9c.4,-.3,.6,-.7,.8,-1.2c.2,-.4,.2,-.9,.2,-1.3c0,-1,-.3,-1.9,-1,-2.6Zm18.4,17.6v-9.1h-9v-1.8h21.4v1.8H599.7v9.1h-2.3ZM603,180.8c.3,-1.4,.6,-2.7,.8,-3.9c.2,-1.3,.3,-2.6,.3,-4c0,-.3,-.1,-.5,-.2,-.6c-.1,-.1,-.2,-.1,-.5,-.1H590.9v-1.9h13.3c.8,0,1.3,.2,1.6,.6c.3,.4,.5,.9,.5,1.6c-.1,1.5,-.2,3,-.4,4.4c-.2,1.4,-.5,2.8,-.8,4.2l-2.1,-.3Z" class="g1_245"/>
<image clip-path="url(#c1_245)" preserveAspectRatio="none" x="404" y="266" width="174" height="374" xlink:href="img/2.png"/>
<path d="M491.8,356.3l-97.9,-23m-2.6,-.2H332.4" class="g2_245"/>
<path d="M493.3,356.6l-.6,-.1M393.5,333.2l-.7,-.1h-.6m-60.2,0h-.7" class="g3_245"/>
<path d="M436.1,407.6H243.9M484.4,520.2H292.1m236.4,80.9L566.9,516m2,-1h27.7" class="g2_245"/>
<path d="M527.9,602.5l.2,-.6m39,-86.3l.3,-.6h.6m29,0h.7" class="g3_245"/>
<path d="M514.7,357.7L582.2,425m2.2,.7h12.2" class="g2_245"/>
<path d="M513.7,356.6l.4,.5m68.4,68.2l.4,.4h.7m13.4,0h.7" class="g3_245"/>
<path d="M529.3,341.1l42.3,21.8m2.5,.5h19" class="g2_245"/>
<path d="M527.9,340.4l.6,.3M572,363.1l.6,.3h.6m20.4,0h.6" class="g3_245"/>
<path d="M523.4,310.8l45.8,-44.1m2.3,-.8h21.6" class="g2_245"/>
<path d="M522.3,311.8l.5,-.4m46.7,-45l.5,-.5h.6m23,0h.6" class="g3_245"/>
<image clip-path="url(#c2_245)" preserveAspectRatio="none" x="404" y="788" width="174" height="374" xlink:href="img/3.png"/>
<path d="M476.2,862.2L410.9,721.6m-1.9,-.9H287.8" class="g2_245"/>
<path d="M476.8,863.6l-.2,-.6M410.8,721.3l-.3,-.6h-.7m-122.4,0h-.7" class="g3_245"/>
<path d="M472.3,871.2L403.7,804.6m-2.3,-.8H242.1" class="g2_245"/>
<path d="M473.4,872.2l-.5,-.4M403.4,804.3l-.5,-.5h-.6m-160.7,0H241" class="g3_245"/>
<path d="M489.6,891l-109.7,8.2m-2.6,.1h-101" class="g2_245"/>
<path d="M491.1,890.9h-.6m-111,8.4h-1.3m-102.4,0h-.6" class="g3_245"/>
<path d="M301,980.7L455.2,964.3m27.4,12.5l-49.4,96.7m-2,1H284.3" class="g2_245"/>
<path d="M483.3,975.4l-.3,.6m-50,97.9l-.3,.6H432m-148.1,0h-.6" class="g3_245"/>
<path d="M482.5,1053.7l-71.9,113.4m-2.1,.9H302.1" class="g2_245"/>
<path d="M483.3,1052.4l-.3,.5m-72.6,114.6l-.4,.5h-.6m-107.7,0H301" class="g3_245"/>
<path d="M510.9,1093.2l46.5,37.7m2.4,.6h6" class="g2_245"/>
<path d="M509.8,1092.2l.5,.4m47.5,38.5l.5,.4h.6m7.4,0h.6" class="g3_245"/>
<path d="M565,793.2h-2.1" class="g4_245"/>
<path d="M561.5,794.7V1006" class="g2_245"/>
<path d="M563.4,1007h2.2" class="g4_245"/>
<path d="M566.9,793.2h-.8m-3.8,0h-.8v.7m0,212.5v.6h.8m3.8,0h.8" class="g3_245"/>
<path d="M561.5,911.2h5.4M527.6,886.6l22,-18m2.4,-.7h14.7" class="g2_245"/>
<path d="M526.4,887.6l.5,-.4M550,868.3l.5,-.4h.7m16,0h.6" class="g3_245"/>
<path d="M509.4,841.3l42,-123.1m1.9,-1H568" class="g2_245"/>
<path d="M508.9,842.8l.2,-.6M551.6,717.8l.2,-.6h.6m16,0h.7" class="g3_245"/>
<path d="M483.2,338L288.6,269.3m-2.5,-.3H218.9" class="g2_245"/>
<path d="M484.6,338.5l-.6,-.2M288.2,269.2l-.6,-.2h-.7m-68.5,0h-.6" class="g3_245"/>
<path d="M153.3,126.3v22.2L165,158.7V136.5Z" class="g5_245"/>
<path d="M153.3,109.5v39H851.1c0,0,16.8,0,16.8,-16.8v-5.4c0,0,0,-16.8,-16.8,-16.8Z" class="g6_245"/>
<path d="M207.2,115.7c0,-9.1,-7.9,-16.6,-17.7,-16.6c-9.8,0,-17.7,7.5,-17.7,16.6c0,2.7,.6,5.2,1.8,7.4c1.2,2.4,2.9,4.6,5,6.2c1.2,1,1.6,1.7,1.7,4.3v.6c0,3.3,2.7,5.9,5.9,5.9h6.6c3.2,0,5.8,-2.6,5.8,-5.9v-.6c.2,-2.6,.6,-3.3,1.8,-4.3c2.1,-1.6,3.8,-3.8,5,-6.2c1.2,-2.2,1.8,-4.7,1.8,-7.4Z" class="g7_245"/>
<path d="M207.2,115.7c0,-9.1,-7.9,-16.6,-17.7,-16.6c-9.8,0,-17.7,7.5,-17.7,16.6c0,2.7,.6,5.2,1.8,7.4c1.2,2.4,2.9,4.6,5,6.2c1.2,1,1.6,1.7,1.7,4.3v.6c0,3.3,2.7,5.9,5.9,5.9h6.6c3.2,0,5.8,-2.6,5.8,-5.9v-.6c.2,-2.6,.6,-3.3,1.8,-4.3c2.1,-1.6,3.8,-3.8,5,-6.2c1.2,-2.2,1.8,-4.7,1.8,-7.4Z" class="g8_245"/>
<path d="M194.6,147.4c0,2.8,-2.3,5.1,-5.1,5.1c-2.8,0,-5.1,-2.3,-5.1,-5.1c0,-2.8,2.3,-5.1,5.1,-5.1c2.8,0,5.1,2.3,5.1,5.1Z" class="g0_245"/>
<path d="M194.6,147.4c0,2.8,-2.3,5.1,-5.1,5.1c-2.8,0,-5.1,-2.3,-5.1,-5.1c0,-2.8,2.3,-5.1,5.1,-5.1c2.8,0,5.1,2.3,5.1,5.1Z" class="g8_245"/>
<path d="M182.1,140.2c0,1,.8,1.8,1.8,1.8h11.2c1,0,1.8,-.8,1.8,-1.8v-1.3H182.1Z" class="g0_245"/>
<path d="M182.1,140.2c0,1,.8,1.8,1.8,1.8h11.2c1,0,1.8,-.8,1.8,-1.8v-1.3H182.1v1.3Z" class="g8_245"/>
<path d="M196.9,143.2c0,.8,-.6,1.3,-1.3,1.3H183.4c-.8,0,-1.3,-.5,-1.3,-1.3c0,-.7,.5,-1.3,1.3,-1.3h12.2c.7,0,1.3,.6,1.3,1.3Z" class="g0_245"/>
<path d="M196.9,143.2c0,.8,-.6,1.3,-1.3,1.3H183.4c-.8,0,-1.3,-.5,-1.3,-1.3c0,-.7,.5,-1.3,1.3,-1.3h12.2c.7,0,1.3,.6,1.3,1.3Z" class="g8_245"/>
<path d="M196.9,145.8c0,.7,-.6,1.3,-1.3,1.3H183.4c-.8,0,-1.3,-.6,-1.3,-1.3c0,-.7,.5,-1.3,1.3,-1.3h12.2c.7,0,1.3,.6,1.3,1.3Z" class="g0_245"/>
<path d="M196.9,145.8c0,.7,-.6,1.3,-1.3,1.3H183.4c-.8,0,-1.3,-.6,-1.3,-1.3c0,-.7,.5,-1.3,1.3,-1.3h12.2c.7,0,1.3,.6,1.3,1.3Z" class="g8_245"/>
<path d="M215.5,128.7l8.3,10.4c.6,.7,1.8,.6,2.7,-.2c.9,-.7,1.2,-1.9,.7,-2.6l-8.9,-10.2Z" class="g9_245"/>
<path d="M215.5,128.7l8.3,10.4c.6,.7,1.8,.6,2.7,-.2c.9,-.7,1.2,-1.9,.7,-2.6l-8.9,-10.2l-2.8,2.6Z" class="g8_245"/>
<path d="M217.5,125.1c.5,.6,.3,1.8,-.7,2.6c-.9,.7,-2.1,.8,-2.6,.2c-.6,-.7,-.3,-1.9,.6,-2.6c.9,-.8,2.1,-.9,2.7,-.2Z" class="ga_245"/>
<path d="M217.5,125.1c.5,.6,.3,1.8,-.7,2.6c-.9,.7,-2.1,.8,-2.6,.2c-.6,-.7,-.3,-1.9,.6,-2.6c.9,-.8,2.1,-.9,2.7,-.2Z" class="g8_245"/>
<path d="M212.7,124.7l1.7,2c.3,.3,1,.3,1.5,-.1c.5,-.5,.7,-1.1,.4,-1.5l-1.7,-2Z" class="g0_245"/>
<path d="M212.7,124.7l1.7,2c.3,.3,1,.3,1.5,-.1c.5,-.5,.7,-1.1,.4,-1.5l-1.7,-2l-1.9,1.6Z" class="gb_245"/>
<path d="M214.8,122.9c.4,.5,.2,1.3,-.5,1.8c-.6,.5,-1.4,.6,-1.8,.1c-.4,-.4,-.2,-1.2,.5,-1.7c.6,-.6,1.4,-.6,1.8,-.2Z" class="g0_245"/>
<path d="M214.8,122.9c.4,.5,.2,1.3,-.5,1.8c-.6,.5,-1.4,.6,-1.8,.1c-.4,-.4,-.2,-1.2,.5,-1.7c.6,-.6,1.4,-.6,1.8,-.2Z" class="gb_245"/>
<path d="M216.4,105.4c4.8,5.7,4.1,14.2,-1.7,19c-5.7,4.8,-14.2,4,-19,-1.7c-4.8,-5.7,-4,-14.2,1.7,-19c5.7,-4.8,14.2,-4.1,19,1.7Z" class="g0_245"/>
<path d="M216.4,105.4c4.8,5.7,4.1,14.2,-1.7,19c-5.7,4.8,-14.2,4,-19,-1.7c-4.8,-5.7,-4,-14.2,1.7,-19c5.7,-4.8,14.2,-4.1,19,1.7Z" class="g8_245"/>
<path d="M214,107.4c3.5,4.2,3,10.5,-1.3,14.1c-4.2,3.5,-10.5,2.9,-14,-1.3c-3.5,-4.2,-3,-10.5,1.2,-14c4.2,-3.6,10.5,-3,14.1,1.2Z" class="gc_245"/>
<path d="M214,107.4c3.5,4.2,3,10.5,-1.3,14.1c-4.2,3.5,-10.5,2.9,-14,-1.3c-3.5,-4.2,-3,-10.5,1.2,-14c4.2,-3.6,10.5,-3,14.1,1.2Z" class="g8_245"/>
<path d="M213,110.6l-3.1,3m3.1,-.4l-3.1,3" class="gd_245"/>
<path d="M172.1,99l3.1,3.3m1.1,-5.9l1.2,3.9m-8.1,3l3.7,1.2" class="ge_245"/>
<path d="M185.8,106.1c1.2,1.2,.2,4.3,-2.2,6.7c-2.5,2.5,-5.5,3.5,-6.8,2.3c-1.2,-1.3,-.3,-4.3,2.2,-6.8c2.5,-2.5,5.5,-3.5,6.8,-2.2Z" class="g0_245"/>
<path d="M203.7,107.6c.6,.6,.1,1.9,-.9,3c-1.1,1,-2.4,1.5,-3,.9c-.5,-.5,-.1,-1.8,1,-2.9c1.1,-1.1,2.4,-1.5,2.9,-1Z" class="g0_245"/>
<path d="M32.1,45.1H9.2m958.3,0h22.9M32.1,1331.3H9.2m958.3,0h22.9M45.1,32.1V9.2m0,1335.1v22.9M954.5,32.1V9.2m0,1335.1v22.9" class="gf_245"/>
<path d="M32.1,45.1H9.2m958.3,0h22.9M32.1,1331.3H9.2m958.3,0h22.9M45.1,32.1V9.2m0,1335.1v22.9M954.5,32.1V9.2m0,1335.1v22.9" class="gg_245"/>
<path d="M27.5,32.1H0m972.1,0h27.5M27.5,1344.3H0m972.1,0h27.5M32.1,27.5V0m0,1348.9v27.5M967.5,27.5V0m0,1348.9v27.5" class="gf_245"/>
<path d="M27.5,32.1H0m972.1,0h27.5M27.5,1344.3H0m972.1,0h27.5M32.1,27.5V0m0,1348.9v27.5M967.5,27.5V0m0,1348.9v27.5" class="gg_245"/>
</svg>