<?xml version="1.0" encoding="UTF-8" standalone="no"?>
<!DOCTYPE svg PUBLIC "-//W3C//DTD SVG 1.1//EN"
"http://www.w3.org/Graphics/SVG/1.1/DTD/svg11.dtd">
<svg viewBox="0 0 999 1376" version="1.1" xmlns="http://www.w3.org/2000/svg" xmlns:xlink="http://www.w3.org/1999/xlink">
<defs>
<clipPath id="c0_212"><path d="M32.1,1344.3V32.1H967.5V1344.3Z"/></clipPath>
<clipPath id="c1_212"><path d="M185.2,907.7l-6.5,-2.1L162.4,891.7V834.6h71.9v73.1Z"/></clipPath>
<clipPath id="c2_212"><path d="M185.2,613.8l-6.5,-2.1l-16.3,-14v-57h71.9v73.1Z"/></clipPath>
<clipPath id="c3_212"><path d="M186.5,291.4L180,289.3L163.7,275.4V218.3h71.9v73.1Z"/></clipPath>
<clipPath id="c4_212"><path d="M214.9,421.9V398.7H320.8v23.2Zm0,-35.6V374.7H320.8v11.6Zm0,-23.9V346.1H320.8v16.3Z"/></clipPath>
<clipPath id="c5_212"><path d="M214.9,374.7V362.4H320.8v12.3Z"/></clipPath>
<clipPath id="c6_212"><path d="M214.9,398.7V386.3H320.8v12.4Z"/></clipPath>
<clipPath id="c7_212"><path d="M215,519.2V429.5H320.8v89.7Z"/></clipPath>
<style type="text/css"><![CDATA[
.g0_212{
fill: #FEFCF4;
}
.g1_212{
fill: #F16865;
}
.g2_212{
fill: #FAC3B8;
}
.g3_212{
fill: #EE314A;
}
.g4_212{
fill: #26292E;
}
.g5_212{
fill: #C5CACC;
}
.g6_212{
fill: #FFF;
}
.g7_212{
fill: #F1EBEB;
}
.g8_212{
fill: #F7943B;
}
.g9_212{
fill: #ACB5B9;
}
.ga_212{
fill: #CFD3D5;
}
.gb_212{
fill: #FCE8B0;
}
.gc_212{
fill: none;
stroke: #6381B7;
stroke-width: 0.763;
}
.gd_212{
fill: #E3E7F2;
}
.ge_212{
fill: none;
stroke: #231F20;
stroke-width: 0.305;
stroke-miterlimit: 10;
}
.gf_212{
fill: none;
stroke: #231F20;
stroke-width: 0.381;
stroke-miterlimit: 10;
}
.gg_212{
fill: #6381B7;
}
.gh_212{
fill: none;
stroke: #6381B7;
stroke-width: 0.381;
stroke-dasharray: 2,1;
}
.gi_212{
fill: none;
stroke: #6381B7;
stroke-width: 0.381;
}
.gj_212{
fill: none;
stroke: #FFF;
stroke-width: 1.909;
stroke-miterlimit: 10;
}
.gk_212{
fill: none;
stroke: #000;
stroke-width: 0.381;
stroke-miterlimit: 10;
}
]]></style>
</defs>
<path d="M32.1,1344.3H954.5V32.1H32.1V1344.3Z" class="g0_212"/>
<g clip-path="url(#c0_212)">
<path d="M954.5,1344.3H1877V32.1H954.5V1344.3Z" class="g0_212"/>
<path d="M1777.4,166.7c0,0,30.3,0,30.3,-30.3v-4.3c0,0,0,-30.3,-30.3,-30.3H173.9c0,0,-30.3,0,-30.3,30.3v4.3c0,0,0,30.3,30.3,30.3Z" class="g1_212"/>
</g>
<path d="M186.5,132.1c0,27.1,-22,49,-49.1,49c-27,0,-49,-21.9,-49,-49c0,-27.1,22,-49.1,49,-49.1c27.1,0,49.1,22,49.1,49.1Z" class="g2_212"/>
<path d="M178.1,104.6c15.2,22.5,9.2,53,-13.2,68.1c-22.5,15.2,-53,9.3,-68.1,-13.2Z" class="g3_212"/>
<path d="M96.8,159.5h81.3V104.7H96.8v54.8Z" class="g4_212"/>
<path d="M137.7,156.8h16.8V136.6H137.7v20.2Z" class="g5_212"/>
<path d="M143.1,156.8h33.7V102.6H143.1v54.2Z" class="g5_212"/>
<path d="M141.6,103v50c.5,-.3,1,-.4,1.5,-.4h33.7v-50H143.1c-.5,0,-1,.2,-1.5,.4Z" class="g6_212"/>
<path d="M137.7,109v47.8c0,0,2.5,-3.1,3.9,-3.8V103c-2.2,1.1,-3.9,4.3,-3.9,6Z" class="g7_212"/>
<path d="M143.5,112.3h29.1v-1.4H143.5v1.4Z" class="g5_212"/>
<path d="M143.5,115.5h29.1v-1.4H143.5v1.4Z" class="g5_212"/>
<path d="M143.5,118.8h29.1v-1.5H143.5v1.5Z" class="g5_212"/>
<path d="M143.5,122h29.1v-1.5H143.5V122Z" class="g5_212"/>
<path d="M143.5,125.2h29.1v-1.5H143.5v1.5Z" class="g5_212"/>
<path d="M143.5,128.4h29.1v-1.5H143.5v1.5Z" class="g5_212"/>
<path d="M143.5,131.6h29.1v-1.5H143.5v1.5Z" class="g5_212"/>
<path d="M143.5,134.8h29.1v-1.5H143.5v1.5Z" class="g5_212"/>
<path d="M143.5,138h29.1v-1.4H143.5V138Z" class="g5_212"/>
<path d="M143.5,141.2h29.1v-1.4H143.5v1.4Z" class="g5_212"/>
<path d="M143.5,144.4h29.1V143H143.5v1.4Z" class="g5_212"/>
<path d="M143.5,147.6h29.1v-1.4H143.5v1.4Z" class="g5_212"/>
<path d="M159.7,150.9l1,-.9l1,.9v-49h-2Z" class="g8_212"/>
<path d="M120.9,156.8h16.8V136.6H120.9v20.2Z" class="g9_212"/>
<path d="M98.6,156.8h33.6V102.6H98.6v54.2Z" class="g9_212"/>
<path d="M98.6,102.6v50h33.6c.6,0,1.1,.1,1.6,.4V103c-.5,-.2,-1,-.4,-1.6,-.4Z" class="g6_212"/>
<path d="M133.8,103v50c1.4,.7,3.9,3.8,3.9,3.8V109c0,-1.7,-1.7,-4.9,-3.9,-6Z" class="ga_212"/>
<path d="M109.7,112.3h14.5v-1.4H109.7v1.4Z" class="g5_212"/>
<path d="M102.8,118.8h29.1v-1.5H102.8v1.5Z" class="g5_212"/>
<path d="M102.8,122h29.1v-1.5H102.8V122Z" class="g5_212"/>
<path d="M102.8,125.2h29.1v-1.5H102.8v1.5Z" class="g5_212"/>
<path d="M102.8,128.4h29.1v-1.5H102.8v1.5Z" class="g5_212"/>
<path d="M102.8,131.6h29.1v-1.5H102.8v1.5Z" class="g5_212"/>
<path d="M102.8,134.8h29.1v-1.5H102.8v1.5Z" class="g5_212"/>
<path d="M102.8,138h29.1v-1.4H102.8V138Z" class="g5_212"/>
<path d="M102.8,141.2h29.1v-1.4H102.8v1.4Z" class="g5_212"/>
<path d="M102.8,144.4h29.1V143H102.8v1.4Z" class="g5_212"/>
<path d="M102.8,147.6h29.1v-1.4H102.8v1.4Z" class="g5_212"/>
<path d="M217.9,836.8c0,0,-13,0,-13,13v47.6c0,0,0,13,13,13H832.5c0,0,13,0,13,-13V849.8c0,0,0,-13,-13,-13Z" class="gb_212"/>
<image clip-path="url(#c1_212)" preserveAspectRatio="none" x="161" y="833" width="75" height="76" xlink:href="img/1.png"/>
<path d="M212.7,903c0,0,-26.9,11.3,-51.1,-12.7c0,0,15.1,25.3,49.2,23.9c0,0,24.8,.4,20.3,-10.1c0,0,1.2,-4.4,-18.4,-1.1Z" class="gb_212"/>
<path d="M217.9,542.8c0,0,-13,0,-13,13v47.7c0,0,0,12.9,13,12.9H832.5c0,0,13,0,13,-12.9V555.8c0,0,0,-13,-13,-13Z" class="gb_212"/>
<image clip-path="url(#c2_212)" preserveAspectRatio="none" x="161" y="539" width="75" height="76" xlink:href="img/2.png"/>
<path d="M212.7,609.1c0,0,-26.9,11.3,-51.1,-12.8c0,0,15.1,25.3,49.2,24c0,0,24.8,.3,20.3,-10.1c0,0,1.2,-4.5,-18.4,-1.1Z" class="gb_212"/>
<path d="M219.2,246.5c0,0,-13,0,-13,12.9v21.7c0,0,0,13,13,13H833.8c0,0,13,0,13,-13V259.4c0,0,0,-12.9,-13,-12.9Z" class="gb_212"/>
<image clip-path="url(#c3_212)" preserveAspectRatio="none" x="162" y="217" width="75" height="76" xlink:href="img/3.png"/>
<path d="M214,286.7c0,0,-26.9,11.3,-51.1,-12.7c0,0,15.1,25.3,49.3,23.9c0,0,24.7,.4,20.2,-10.1c0,0,1.2,-4.4,-18.4,-1.1Z" class="gb_212"/>
<path d="M145.1,306.9c0,0,-13,0,-13,13V516.6c0,0,0,13,13,13H832.9c0,0,13,0,13,-13V319.9c0,0,0,-13,-13,-13Z" class="g6_212"/>
<path d="M145.1,306.9c0,0,-13,0,-13,13V516.6c0,0,0,13,13,13H832.9c0,0,13,0,13,-13V319.9c0,0,0,-13,-13,-13H145.1Z" class="gc_212"/>
<image clip-path="url(#c4_212)" preserveAspectRatio="none" x="215" y="332" width="106" height="90" xlink:href="img/4.jpg"/>
<image clip-path="url(#c5_212)" preserveAspectRatio="none" x="215" y="362" width="106" height="13" xlink:href="img/5.jpg"/>
<image clip-path="url(#c6_212)" preserveAspectRatio="none" x="215" y="386" width="106" height="13" xlink:href="img/6.jpg"/>
<image clip-path="url(#c7_212)" preserveAspectRatio="none" x="215" y="428" width="106" height="91" xlink:href="img/7.jpg"/>
<path d="M145.1,920.6c0,0,-13,0,-13,13v271.6c0,0,0,13,13,13h688c0,0,13,0,13,-13V933.6c0,0,0,-13,-13,-13Z" class="g6_212"/>
<path d="M145.1,920.6c0,0,-13,0,-13,13v271.6c0,0,0,13,13,13h688c0,0,13,0,13,-13V933.6c0,0,0,-13,-13,-13h-688Z" class="gc_212"/>
<path d="M177.2,1108.6H805.1V965.7H177.2v142.9Z" class="gd_212"/>
<path d="M353.7,1134.9h25.9" class="ge_212"/>
<path d="M145.1,626.6c0,0,-13,0,-13,13V812.1c0,0,0,13,13,13H832.9c0,0,13,0,13,-13V639.6c0,0,0,-13,-13,-13Z" class="g6_212"/>
<path d="M145.1,626.6c0,0,-13,0,-13,13V812.1c0,0,0,13,13,13H832.9c0,0,13,0,13,-13V639.6c0,0,0,-13,-13,-13H145.1Z" class="gc_212"/>
<path d="M198.8,708.9h615V674.2h-615v34.7Z" class="gd_212"/>
<path d="M358.4,700.8H416" class="gf_212"/>
<path d="M198.8,785.6h615V751h-615v34.6Z" class="gd_212"/>
<path d="M207.5,777.5h57.6" class="gf_212"/>
<path d="M608.4,1231.4c0,0,-4.3,0,-4.3,4.3v10.8c0,0,0,4.4,4.3,4.4h30.4c0,0,4.3,0,4.3,-4.4v-10.8c0,0,0,-4.3,-4.3,-4.3Z" class="gg_212"/>
<path d="M595.3,1223.9v34.9m1.3,.9H845.1m1,-1.3v-34.9m-1.4,-1H596.2" class="gh_212"/>
<path d="M595.3,1259.1v.6h.5m249.7,0h.6v-.6m0,-36v-.6h-.6m-249.7,0h-.5v.6" class="gi_212"/>
<path d="M32.1,45.1H9.2m958.3,0h22.9M32.1,1331.3H9.2m958.3,0h22.9M45.1,32.1V9.2m0,1335.1v22.9M954.5,32.1V9.2m0,1335.1v22.9" class="gj_212"/>
<path d="M32.1,45.1H9.2m958.3,0h22.9M32.1,1331.3H9.2m958.3,0h22.9M45.1,32.1V9.2m0,1335.1v22.9M954.5,32.1V9.2m0,1335.1v22.9" class="gk_212"/>
<path d="M27.5,32.1H0m972.1,0h27.5M27.5,1344.3H0m972.1,0h27.5M32.1,27.5V0m0,1348.9v27.5M967.5,27.5V0m0,1348.9v27.5" class="gj_212"/>
<path d="M27.5,32.1H0m972.1,0h27.5M27.5,1344.3H0m972.1,0h27.5M32.1,27.5V0m0,1348.9v27.5M967.5,27.5V0m0,1348.9v27.5" class="gk_212"/>
</svg>