<?xml version="1.0" encoding="UTF-8" standalone="no"?>
<!DOCTYPE svg PUBLIC "-//W3C//DTD SVG 1.1//EN"
"http://www.w3.org/Graphics/SVG/1.1/DTD/svg11.dtd">
<svg viewBox="0 0 999 1376" version="1.1" xmlns="http://www.w3.org/2000/svg" xmlns:xlink="http://www.w3.org/1999/xlink">
<defs>
<clipPath id="c0_241"><path d="M95.2,899.3v-275H275.1v275Z"/></clipPath>
<clipPath id="c1_241"><path d="M89.8,900.9V622.6H279V900.9Z"/></clipPath>
<clipPath id="c2_241"><path d="M89.5,900.6V622.3H278.7V900.6Z"/></clipPath>
<clipPath id="c3_241"><path d="M198.7,255l-6.5,-2.1L175.8,239V181.9h72V255Z"/></clipPath>
<clipPath id="c4_241"><path d="M198.7,1053.6l-6.5,-2.1l-16.4,-13.9V980.5h72v73.1Z"/></clipPath>
<clipPath id="c5_241"><path d="M786.5,132.5V120.1H801v12.4Z"/></clipPath>
<clipPath id="c6_241"><path d="M722.4,702.6V460.1H917.1V702.6Z"/></clipPath>
<clipPath id="c7_241"><path d="M720.6,702.6v-242H919.1v242Z"/></clipPath>
<clipPath id="c8_241"><path d="M720.3,702.3v-242H918.8v242Z"/></clipPath>
<clipPath id="c9_241"><path d="M819.6,477.8c-.2,-.1,3.6,-8.2,3.6,-8.2l.7,.5c0,0,-4,7.7,-4.3,7.7Z"/></clipPath>
<clipPath id="ca_241"><path d="M827.1,470.1c0,0,-6.8,-1.1,-7.6,-5.2c-.6,-3.6,1.6,-3.9,2.1,-3.9q.1,0,.1,0l8.4,-12.7l-1.5,-3.1c0,0,-.6,-1.1,.1,-2.1c.1,0,.2,0,.3,0c2.1,0,13,5.5,13,5.5l.1,.1c-.4,.6,-.8,1.2,-1.4,1.7c-.7,.5,-5.1,1.1,-5.1,1.1l-8.5,18.6Z"/></clipPath>
<clipPath id="cb_241"><path d="M826.7,469.7c.2,-.4,.2,-1.8,0,-2.2v-1.4c-1.5,-.5,-2.9,-1.2,-3.6,-2.5c-1.1,.6,-2.2,1.2,-3.2,1.9c1.6,2.1,3.8,3.5,6.8,4.2Zm0,-3.9c2.2,-4.5,4,-9.5,6.2,-14c-.9,-.4,-1.9,-1.4,-2.7,-1.4c-2.3,4.3,-4.6,8.6,-7,12.8c.7,1.3,2.1,2,3.5,2.6Zm-7.3,12.1c1.1,-2.9,2.4,-5.5,3.5,-8.3c-1.9,-1.5,-3.9,-3.1,-4.4,-6.1v-1.6c0,-2.7,2,-3.3,4.6,-3.3c.1,0,.2,0,.2,0c2,-3.4,4.2,-6.4,6.2,-9.7c-.6,-.9,-1.2,-2.4,-.9,-3.7c.5,1.3,1.6,1.9,2.4,2.9c-.1,.6,-.3,1.2,-.4,1.8c.6,.6,1.3,1.2,2.4,1.4c.4,-.5,.5,-1.3,1.1,-1.5c1,.3,1.9,.7,3.2,.7c.1,.1,.4,.2,.8,.2c.3,0,.7,-.1,.8,-.2c.1,0,.2,.1,.3,.1c.2,0,.4,-.1,.6,-.2c.2,0,.4,-.1,.5,-.1c.2,0,.3,0,.4,.1c-1.4,.6,-2.2,1.8,-4.2,1.8c-.1,0,-.2,0,-.4,-.1c-.8,3.8,-1.8,7.4,-2.6,11.2c.5,1.1,1.5,1.7,1.3,3.2c-.5,2.7,-3.9,4.4,-7.2,4.4c-1.3,0,-2.6,-.3,-3.7,-.8c-1,2.1,-2,4.1,-3.2,6c-.1,-.3,.3,-.3,.2,-.7c1,-1.8,2,-3.6,2.7,-5.7c-1.1,1.7,-1.9,3.7,-2.8,5.6c-.2,.4,-.4,.8,-.6,1.2c-.3,.4,-.3,1.1,-.8,1.4Z"/></clipPath>
<clipPath id="cc_241"><path d="M837.2,450.1c-4.8,0,-13.1,-7.3,-5.6,-8.8h1.3c.2,.1,.4,.1,.7,.1c0,0,.1,0,.2,0c.2,0,.5,0,.8,.1c3.1,.6,8.3,3.8,7.6,7c-.3,1.1,-1.6,1.6,-3.2,1.6h-1.7q-.1,0,-.1,0Z"/></clipPath>
<clipPath id="cd_241"><path d="M174.8,638.5c-.3,-.1,3.5,-8.2,3.5,-8.2l.8,.5c0,0,-4,7.7,-4.3,7.7Z"/></clipPath>
<clipPath id="ce_241"><path d="M182.3,630.8c0,0,-6.9,-1.1,-7.6,-5.3c-.7,-3.6,1.5,-3.8,2.1,-3.8q.1,0,.1,0L185.2,609l-1.4,-3.1c0,0,-.6,-1.1,.1,-2.1c0,0,.1,-.1,.3,-.1c2.1,0,12.9,5.6,12.9,5.6l.1,.1c-.4,.5,-.7,1.2,-1.4,1.7c-.6,.5,-5.1,1.1,-5.1,1.1l-8.4,18.6Z"/></clipPath>
<clipPath id="cf_241"><path d="M181.9,630.4c.2,-.5,.2,-1.8,0,-2.3v-1.3c-1.6,-.6,-2.9,-1.3,-3.7,-2.6c-1.1,.6,-2.1,1.3,-3.1,1.9c1.5,2.2,3.8,3.6,6.8,4.3Zm0,-3.9c2.2,-4.5,4,-9.5,6.1,-14.1c-.9,-.4,-1.8,-1.3,-2.6,-1.3c-2.3,4.3,-4.6,8.6,-7.1,12.8c.8,1.3,2.1,2,3.6,2.6Zm-7.3,12.1c1,-2.9,2.4,-5.5,3.5,-8.3c-2,-1.6,-3.9,-3.1,-4.4,-6.2v-1.5c0,-2.7,1.9,-3.4,4.6,-3.4c0,0,.1,0,.2,0c1.9,-3.3,4.2,-6.3,6.1,-9.7c-.5,-.8,-1.1,-2.3,-.8,-3.6c.5,1.3,1.6,1.9,2.3,2.9c-.1,.6,-.2,1.1,-.3,1.8c.6,.6,1.3,1.1,2.3,1.3c.5,-.4,.6,-1.2,1.2,-1.5c.9,.4,1.8,.8,3.1,.8c.2,.1,.5,.1,.8,.1c.4,0,.7,0,.9,-.1c.1,0,.2,0,.3,0c.2,0,.4,0,.6,-.1c.2,-.1,.3,-.2,.5,-.2c.1,0,.2,.1,.3,.2c-1.3,.6,-2.2,1.7,-4.2,1.7c-.1,0,-.2,0,-.3,0c-.9,3.8,-1.9,7.4,-2.6,11.2c.5,1.1,1.5,1.7,1.2,3.1c-.5,2.8,-3.8,4.4,-7.2,4.4c-1.3,0,-2.5,-.2,-3.6,-.7c-1,2.1,-2.1,4.1,-3.3,6c0,-.4,.3,-.4,.3,-.7c.9,-1.8,1.9,-3.6,2.6,-5.7c-1,1.7,-1.8,3.7,-2.7,5.5c-.2,.5,-.5,.9,-.7,1.3c-.3,.4,-.3,1.1,-.7,1.4Z"/></clipPath>
<clipPath id="cg_241"><path d="M192.3,610.8c-4.8,0,-13.1,-7.3,-5.5,-8.8H188c.2,.1,.5,.1,.7,.1c.1,0,.2,0,.2,0c.3,0,.6,0,.9,0c3.1,.7,8.2,3.8,7.5,7.1c-.2,1.1,-1.5,1.6,-3.1,1.6h-1.8c0,0,-.1,0,-.1,0Z"/></clipPath>
<style type="text/css"><![CDATA[
.g0_241{
fill: #FEFCF4;
}
.g1_241{
fill: #FFF;
}
.g2_241{
fill: none;
stroke: #6381B7;
stroke-width: 0.763;
}
.g3_241{
fill: #F7C2D9;
}
.g4_241{
fill: none;
stroke: #949698;
stroke-width: 0.305;
stroke-dasharray: 4,4;
}
.g5_241{
fill: none;
stroke: #949698;
stroke-width: 0.305;
}
.g6_241{
fill: #FDF4F3;
}
.g7_241{
fill: #EC008C;
}
.g8_241{
fill: none;
stroke: #949698;
stroke-width: 0.305;
stroke-dasharray: 3,3;
}
.g9_241{
fill: #818385;
}
.ga_241{
fill: #6381B7;
}
.gb_241{
fill: none;
stroke: #6381B7;
stroke-width: 0.381;
stroke-dasharray: 2,1;
}
.gc_241{
fill: none;
stroke: #6381B7;
stroke-width: 0.381;
}
.gd_241{
fill: #FCE8B0;
}
.ge_241{
fill: #25408F;
}
.gf_241{
fill: #A8AAAD;
}
.gg_241{
fill: none;
stroke: #949698;
stroke-width: 0.549;
}
.gh_241{
fill: none;
stroke: #BCBEC0;
stroke-width: 2.566;
}
.gi_241{
fill: #231F20;
}
.gj_241{
fill: #363637;
}
.gk_241{
fill: #5CC4BE;
}
.gl_241{
fill: #F0D73F;
}
.gm_241{
fill: #6D6F71;
}
.gn_241{
fill: none;
stroke: #FFF;
stroke-width: 1.909;
stroke-miterlimit: 10;
}
.go_241{
fill: none;
stroke: #000;
stroke-width: 0.381;
stroke-miterlimit: 10;
}
]]></style>
</defs>
<path d="M45.1,1344.3H967.5V32.1H45.1V1344.3Z" class="g0_241"/>
<path d="M172.1,132.1c0,0,-18.4,0,-18.4,18.3v769c0,0,0,18.3,18.4,18.3H849.2c0,0,18.3,0,18.3,-18.3V132.1Z" class="g1_241"/>
<path d="M172.1,132.1c0,0,-18.4,0,-18.4,18.3v769c0,0,0,18.3,18.4,18.3H849.2c0,0,18.3,0,18.3,-18.3V132.1H172.1Z" class="g2_241"/>
<image clip-path="url(#c0_241)" preserveAspectRatio="none" x="95" y="625" width="180" height="275" xlink:href="img/1.png"/>
<path d="M100.6,629.7l-.1,263.5l167.1,-1.8l.8,-261.5Z" class="g3_241"/>
<path d="M498.6,706.1c8.9,-1.4,15.9,-6.8,17.6,-13.7m-.5,-7.7C513.3,678.2,506,673.3,497,672.3m-7.8,.2c-8.9,1.4,-15.9,6.9,-17.6,13.7m.5,7.7c2.4,6.5,9.7,11.5,18.7,12.4" class="g4_241"/>
<path d="M516.4,690.9c.1,-.5,.1,-1.1,.1,-1.6c0,-.5,0,-1,-.1,-1.6M495.5,672.2c-.5,0,-1.1,-.1,-1.6,-.1c-.5,0,-1,.1,-1.6,.1m-20.9,15.5c-.1,.6,-.1,1.1,-.1,1.6c0,.5,0,1.1,.1,1.6m20.9,15.5c.6,.1,1.1,.1,1.6,.1c.5,0,1.1,0,1.6,-.1" class="g5_241"/>
<image clip-path="url(#c1_241)" preserveAspectRatio="none" x="89" y="623" width="190" height="278" xlink:href="img/2.png"/>
<image clip-path="url(#c2_241)" preserveAspectRatio="none" x="89" y="622" width="189" height="279" xlink:href="img/3.png"/>
<path d="M94.3,634.3l11.3,260.3l134.7,-6.1l32.1,-28.1L262.1,627.1Z" class="g6_241"/>
<path d="M240.3,888.5l32.1,-28l-15.6,-6.7Z" class="g7_241"/>
<path d="M480.8,670C464.1,651.4,379,565,251.9,582.5" class="g4_241"/>
<path d="M244.7,583.8c-6,1.9,-2.2,4.7,1.4,5.6" class="g8_241"/>
<path d="M251.9,586.5c.7,-3.2,-1.6,-7.8,-12.4,-9m-7.7,-.3c-19.3,.1,-68,5.4,-101.7,54.8" class="g4_241"/>
<path d="M483.8,673.5c0,0,-.4,-.4,-1,-1.2M250.4,582.7c-.5,.1,-1,.2,-1.5,.2c-.5,.1,-1,.2,-1.4,.3m0,6.5c.5,.1,1,.1,1.4,0c.5,0,1,-.3,1.4,-.6M237.9,577.4c-.5,0,-1,-.1,-1.6,-.1c-.4,0,-.9,0,-1.5,0M129.2,633.2c-.2,.4,-.5,.9,-.8,1.3" class="g5_241"/>
<path d="M133.4,634.3l-7.2,-5l-2.8,11.8Z" class="g9_241"/>
<path d="M166.7,954.2c0,0,-13,0,-13,13v204.9c0,0,0,13,13,13H854.5c0,0,13,0,13,-13V967.2c0,0,0,-13,-13,-13Z" class="g1_241"/>
<path d="M166.7,954.2c0,0,-13,0,-13,13v204.9c0,0,0,13,13,13H854.5c0,0,13,0,13,-13V967.2c0,0,0,-13,-13,-13H166.7Z" class="g2_241"/>
<path d="M292.7,1199.6c0,0,-4.3,0,-4.3,4.3v10.9c0,0,0,4.3,4.3,4.3h30.4c0,0,4.3,0,4.3,-4.3v-10.9c0,0,0,-4.3,-4.3,-4.3Z" class="ga_241"/>
<path d="M279.6,1190.8v37.5m1.3,1H866.8m.9,-1.3v-37.6m-1.3,-1H280.5" class="gb_241"/>
<path d="M279.6,1228.7v.6h.5m587,0h.6v-.6m0,-38.7v-.6h-.6m-587,0h-.5v.6" class="gc_241"/>
<path d="M231.3,184.1c0,0,-13,0,-13,13v47.6c0,0,0,13,13,13h602c0,0,13,0,13,-13V197.1c0,0,0,-13,-13,-13Z" class="gd_241"/>
<image clip-path="url(#c3_241)" preserveAspectRatio="none" x="174" y="180" width="75" height="77" xlink:href="img/4.png"/>
<path d="M226.1,250.3c0,0,-26.9,11.3,-51.1,-12.7c0,0,15.2,25.3,49.3,23.9c0,0,24.7,.4,20.2,-10.1c0,0,1.3,-4.4,-18.4,-1.1Z" class="gd_241"/>
<path d="M231.3,982.7c0,0,-13,0,-13,13v47.6c0,0,0,13,13,13h602c0,0,13,0,13,-13V995.7c0,0,0,-13,-13,-13Z" class="gd_241"/>
<image clip-path="url(#c4_241)" preserveAspectRatio="none" x="174" y="979" width="75" height="76" xlink:href="img/5.png"/>
<path d="M226.1,1048.9c0,0,-26.9,11.3,-51.1,-12.7c0,0,15.2,25.3,49.3,23.9c0,0,24.7,.4,20.2,-10.1c0,0,1.3,-4.4,-18.4,-1.1Z" class="gd_241"/>
<path d="M153.3,111.9v39L165,161.2V117Z" class="ge_241"/>
<path d="M153.3,111.9v39H851.1c0,0,16.8,0,16.8,-16.8v-5.3c0,0,0,-16.9,-16.8,-16.9Z" class="ga_241"/>
<path d="M802.6,145.6c8.2,0,14.9,-6.5,14.9,-14.5c0,-8.1,-6.7,-14.5,-14.9,-14.5c-8.2,0,-14.9,6.4,-14.9,14.5c0,8,6.7,14.5,14.9,14.5Z" class="gf_241"/>
<path d="M802.6,145.6c8.2,0,14.9,-6.5,14.9,-14.5c0,-8.1,-6.7,-14.5,-14.9,-14.5c-8.2,0,-14.9,6.4,-14.9,14.5c0,8,6.7,14.5,14.9,14.5Z" class="gg_241"/>
<path d="M802.6,136.4c3,0,5.5,-2.4,5.5,-5.3c0,-3,-2.5,-5.4,-5.5,-5.4c-3,0,-5.5,2.4,-5.5,5.4c0,2.9,2.5,5.3,5.5,5.3Z" class="g1_241"/>
<path d="M802.6,136.4c3,0,5.5,-2.4,5.5,-5.3c0,-3,-2.5,-5.4,-5.5,-5.4c-3,0,-5.5,2.4,-5.5,5.4c0,2.9,2.5,5.3,5.5,5.3Z" class="gh_241"/>
<g clip-path="url(#c5_241)" opacity="0.3">
<path d="M788,130.3c0,0,0,-4.8,3.7,-8.7l7.7,6.8c0,0,-1,.9,-1,2.6Z" class="g1_241"/>
</g>
<path d="M807.2,131c0,0,-3.5,0,-3.5,3.4v8.7c0,0,0,3.5,3.5,3.5h43.5c0,0,3.5,0,3.5,-3.5v-8.7c0,0,0,-3.4,-3.5,-3.4Z" class="gi_241"/>
<path d="M191.2,122c0,-8.3,-6.8,-15,-15.1,-15c-8.3,0,-15,6.7,-15,15c0,8.3,6.7,15.1,15,15.1c.8,0,1.7,-.1,2.4,-.2l4.5,5.2v-6.7c4.9,-2.5,8.2,-7.6,8.2,-13.4Z" class="g1_241"/>
<path d="M183.5,143.3l-5.1,-5.9c-.8,.1,-1.5,.1,-2.3,.1c-8.5,0,-15.5,-6.9,-15.5,-15.5c0,-8.5,7,-15.5,15.5,-15.5c8.6,0,15.5,7,15.5,15.5c0,5.7,-3.1,11,-8.1,13.7Zm-4.8,-6.9l3.9,4.5v-5.8l.2,-.1c4.9,-2.5,7.9,-7.5,7.9,-13c0,-8,-6.5,-14.6,-14.6,-14.6c-8,0,-14.6,6.6,-14.6,14.6c0,8.1,6.6,14.6,14.6,14.6c.8,0,1.6,-.1,2.4,-.2Z" class="gj_241"/>
<path d="M169.1,121.6c.8,0,1.4,.6,1.4,1.4c0,.8,-.6,1.5,-1.4,1.5c-.8,0,-1.4,-.7,-1.4,-1.5c0,-.8,.6,-1.4,1.4,-1.4Z" class="gk_241"/>
<path d="M169.1,124.9c-1,0,-1.9,-.8,-1.9,-1.9c0,-1,.9,-1.9,1.9,-1.9c1,0,1.9,.9,1.9,1.9c0,1.1,-.9,1.9,-1.9,1.9m0,-2.9c-.5,0,-1,.5,-1,1c0,.6,.5,1,1,1c.5,0,1,-.4,1,-1c0,-.5,-.5,-1,-1,-1Z" class="gj_241"/>
<path d="M176.1,121.6c.8,0,1.5,.6,1.5,1.4c0,.8,-.7,1.5,-1.5,1.5c-.8,0,-1.4,-.7,-1.4,-1.5c0,-.8,.6,-1.4,1.4,-1.4Z" class="gk_241"/>
<path d="M176.1,124.9c-1,0,-1.9,-.8,-1.9,-1.9c0,-1,.9,-1.9,1.9,-1.9c1.1,0,1.9,.9,1.9,1.9c0,1.1,-.8,1.9,-1.9,1.9m0,-2.9c-.5,0,-1,.5,-1,1c0,.6,.5,1,1,1c.6,0,1,-.4,1,-1c0,-.5,-.4,-1,-1,-1Z" class="gj_241"/>
<path d="M183.1,121.6c.8,0,1.5,.6,1.5,1.4c0,.8,-.7,1.5,-1.5,1.5c-.8,0,-1.4,-.7,-1.4,-1.5c0,-.8,.6,-1.4,1.4,-1.4Z" class="gk_241"/>
<path d="M183.1,124.9c-1,0,-1.9,-.8,-1.9,-1.9c0,-1,.9,-1.9,1.9,-1.9c1.1,0,1.9,.9,1.9,1.9c0,1.1,-.8,1.9,-1.9,1.9m0,-2.9c-.5,0,-1,.5,-1,1c0,.6,.5,1,1,1c.6,0,1,-.4,1,-1c0,-.5,-.4,-1,-1,-1Z" class="gj_241"/>
<path d="M185.1,136.3c0,-9.8,7.8,-17.7,17.6,-17.7c9.7,0,17.6,7.9,17.6,17.7c0,9.7,-7.9,17.6,-17.6,17.6c-1,0,-1.9,-.1,-2.9,-.3l-5.2,6.1v-7.8c-5.7,-2.9,-9.5,-8.8,-9.5,-15.6Z" class="gl_241"/>
<path d="M194.6,160.2q-.1,0,-.2,0c-.2,-.1,-.3,-.3,-.3,-.5v-7.5c-5.9,-3.2,-9.5,-9.2,-9.5,-15.9c0,-10,8.1,-18.1,18.1,-18.1c9.9,0,18,8.1,18,18.1c0,9.9,-8.1,18,-18,18c-.9,0,-1.8,0,-2.7,-.2l-5.1,5.9c-.1,.1,-.2,.2,-.3,.2m8.1,-41.1c-9.5,0,-17.2,7.7,-17.2,17.2c0,6.4,3.6,12.2,9.3,15.2c.1,.1,.2,.2,.2,.4v6.6l4.5,-5.2c.1,-.1,.3,-.1,.4,-.1c1,.1,1.9,.2,2.8,.2c9.4,0,17.1,-7.7,17.1,-17.1c0,-9.5,-7.7,-17.2,-17.1,-17.2Z" class="gj_241"/>
<path d="M210.9,135.8c.9,0,1.6,.7,1.6,1.6c0,1,-.7,1.7,-1.6,1.7c-1,0,-1.7,-.7,-1.7,-1.7c0,-.9,.7,-1.6,1.7,-1.6Z" class="g1_241"/>
<path d="M210.9,139.6c-1.2,0,-2.2,-1,-2.2,-2.2c0,-1.1,1,-2.1,2.2,-2.1c1.1,0,2.1,1,2.1,2.1c0,1.2,-1,2.2,-2.1,2.2m0,-3.4c-.7,0,-1.3,.6,-1.3,1.2c0,.7,.6,1.3,1.3,1.3c.6,0,1.2,-.6,1.2,-1.3c0,-.6,-.6,-1.2,-1.2,-1.2Z" class="gj_241"/>
<path d="M202.7,135.8c.9,0,1.6,.7,1.6,1.6c0,1,-.7,1.7,-1.6,1.7c-1,0,-1.7,-.7,-1.7,-1.7c0,-.9,.7,-1.6,1.7,-1.6Z" class="g1_241"/>
<path d="M202.7,139.6c-1.2,0,-2.2,-1,-2.2,-2.2c0,-1.1,1,-2.1,2.2,-2.1c1.1,0,2.1,1,2.1,2.1c0,1.2,-1,2.2,-2.1,2.2m0,-3.4c-.7,0,-1.3,.6,-1.3,1.2c0,.7,.6,1.3,1.3,1.3c.6,0,1.2,-.6,1.2,-1.3c0,-.6,-.6,-1.2,-1.2,-1.2Z" class="gj_241"/>
<path d="M194.5,135.8c.9,0,1.6,.7,1.6,1.6c0,1,-.7,1.7,-1.6,1.7c-1,0,-1.7,-.7,-1.7,-1.7c0,-.9,.7,-1.6,1.7,-1.6Z" class="g1_241"/>
<path d="M194.5,139.6c-1.2,0,-2.2,-1,-2.2,-2.2c0,-1.1,1,-2.1,2.2,-2.1c1.1,0,2.1,1,2.1,2.1c0,1.2,-1,2.2,-2.1,2.2m0,-3.4c-.7,0,-1.2,.6,-1.2,1.2c0,.7,.5,1.3,1.2,1.3c.6,0,1.2,-.6,1.2,-1.3c0,-.6,-.6,-1.2,-1.2,-1.2Z" class="gj_241"/>
<image clip-path="url(#c6_241)" preserveAspectRatio="none" x="722" y="460" width="195" height="243" xlink:href="img/6.png"/>
<path d="M727.7,467.8l6.1,228.4L911,693.5L906.1,465.1Z" class="g3_241"/>
<image clip-path="url(#c7_241)" preserveAspectRatio="none" x="720" y="461" width="199" height="242" xlink:href="img/7.png"/>
<image clip-path="url(#c8_241)" preserveAspectRatio="none" x="720" y="460" width="198" height="243" xlink:href="img/8.png"/>
<path d="M733.7,465.2L725,690.4l146.6,5.8l34.2,-21.1l6.6,-203.8Z" class="g6_241"/>
<path d="M872.2,696.8l33.9,-22L887,668.3Z" class="g7_241"/>
<path d="M624.4,571.2c8.8,-1.4,15.7,-6.9,17.4,-13.7" class="g4_241"/>
<path d="M641.5,550.3c-.4,-1.3,-1.1,-2.6,-1.8,-3.7" class="g8_241"/>
<path d="M634.1,541.2c-3.1,-2,-6.9,-3.3,-11,-3.8m-8,.2c-8.8,1.4,-15.7,6.9,-17.3,13.7m.4,7.7c2.3,6.5,9.6,11.5,18.4,12.4" class="g4_241"/>
<path d="M642,556c.1,-.5,.1,-1.1,.1,-1.6c0,-.5,0,-.9,0,-1.4m-3.3,-7.6c-.3,-.3,-.6,-.7,-.9,-1c-.4,-.4,-.8,-.8,-1.2,-1.2m-15.3,-5.9c-.5,0,-1.1,-.1,-1.6,-.1c-.6,0,-1.1,0,-1.6,.1m-20.7,15.5c-.1,.6,-.1,1.1,-.1,1.6c0,.5,0,1.1,.1,1.6m20.7,15.5c.5,.1,1,.1,1.6,.1c.5,0,1,0,1.5,-.1" class="g5_241"/>
<path d="M616.9,536.1c0,0,13.7,-54.6,110.6,-54.6" class="g4_241"/>
<path d="M727.5,477.1l.8,8.7l10.9,-5.4Z" class="gm_241"/>
<image clip-path="url(#c9_241)" x="819" y="469" width="5" height="9" xlink:href="shade/1.png"/>
<image clip-path="url(#ca_241)" x="818" y="443" width="25" height="28" xlink:href="shade/2.png"/>
<image clip-path="url(#cb_241)" x="818" y="445" width="23" height="33" xlink:href="shade/3.png"/>
<image clip-path="url(#cc_241)" x="824" y="441" width="19" height="10" xlink:href="shade/4.png"/>
<image clip-path="url(#cd_241)" x="174" y="630" width="6" height="9" xlink:href="shade/5.png"/>
<image clip-path="url(#ce_241)" x="173" y="603" width="25" height="28" xlink:href="shade/6.png"/>
<image clip-path="url(#cf_241)" x="173" y="605" width="23" height="34" xlink:href="shade/7.png"/>
<image clip-path="url(#cg_241)" x="179" y="602" width="19" height="9" xlink:href="shade/8.png"/>
<path d="M32.1,45.1H9.2m958.3,0h22.9M32.1,1331.3H9.2m958.3,0h22.9M45.1,32.1V9.2m0,1335.1v22.9M954.5,32.1V9.2m0,1335.1v22.9" class="gn_241"/>
<path d="M32.1,45.1H9.2m958.3,0h22.9M32.1,1331.3H9.2m958.3,0h22.9M45.1,32.1V9.2m0,1335.1v22.9M954.5,32.1V9.2m0,1335.1v22.9" class="go_241"/>
<path d="M27.5,32.1H0m972.1,0h27.5M27.5,1344.3H0m972.1,0h27.5M32.1,27.5V0m0,1348.9v27.5M967.5,27.5V0m0,1348.9v27.5" class="gn_241"/>
<path d="M27.5,32.1H0m972.1,0h27.5M27.5,1344.3H0m972.1,0h27.5M32.1,27.5V0m0,1348.9v27.5M967.5,27.5V0m0,1348.9v27.5" class="go_241"/>
</svg>