<?xml version="1.0" encoding="UTF-8" standalone="no"?>
<!DOCTYPE svg PUBLIC "-//W3C//DTD SVG 1.1//EN"
"http://www.w3.org/Graphics/SVG/1.1/DTD/svg11.dtd">
<svg viewBox="0 0 999 1376" version="1.1" xmlns="http://www.w3.org/2000/svg" xmlns:xlink="http://www.w3.org/1999/xlink">
<defs>
<clipPath id="c0_94"><path d="M32.1,1344.3V32.1H967.5V1344.3Z"/></clipPath>
<clipPath id="c1_94"><path d="M73,1005.5V765.2H286.4v240.3Z"/></clipPath>
<clipPath id="c2_94"><path d="M71.4,1007.2V763.5H284.8v243.7Z"/></clipPath>
<clipPath id="c3_94"><path d="M71.1,1006.9V763.2H284.5v243.7Z"/></clipPath>
<clipPath id="c4_94"><path d="M722.9,939.8V772H935.7V939.8Z"/></clipPath>
<clipPath id="c5_94"><path d="M721.5,940.2V771.4h214V940.2Z"/></clipPath>
<clipPath id="c6_94"><path d="M721.2,939.9V771h214V939.9Z"/></clipPath>
<clipPath id="c7_94"><path d="M177,509.3l-6.5,-2.1l-16.4,-14V436.1h72v73.2Z"/></clipPath>
<clipPath id="c8_94"><path d="M177.5,1113l-6.5,-2.1L154.6,1097v-57.1h72V1113Z"/></clipPath>
<clipPath id="c9_94"><path d="M764.8,413.2V400.8h14.5v12.4Z"/></clipPath>
<clipPath id="ca_94"><path d="M164.7,779.2c-.2,-.1,3.6,-8.2,3.6,-8.2l.8,.5c0,0,-4.1,7.7,-4.4,7.7Z"/></clipPath>
<clipPath id="cb_94"><path d="M172.2,771.5c0,0,-6.8,-1.1,-7.5,-5.3c-.7,-3.6,1.5,-3.8,2,-3.8c.1,0,.2,0,.2,0l8.3,-12.7l-1.5,-3.1c0,0,-.6,-1.1,.2,-2.1c0,0,.1,-.1,.3,-.1c2.1,0,12.9,5.6,12.9,5.6l.1,.1c-.4,.5,-.8,1.2,-1.4,1.7c-.7,.5,-5.1,1.1,-5.1,1.1l-8.5,18.6Z"/></clipPath>
<clipPath id="cc_94"><path d="M171.8,771.1c.2,-.5,.2,-1.8,0,-2.3v-1.3c-1.5,-.6,-2.8,-1.3,-3.6,-2.5c-1.1,.5,-2.1,1.2,-3.2,1.8c1.6,2.2,3.9,3.6,6.8,4.3Zm0,-3.9c2.2,-4.5,4,-9.5,6.2,-14.1c-.9,-.4,-1.9,-1.3,-2.7,-1.3c-2.2,4.3,-4.6,8.6,-7,12.8c.7,1.3,2.1,2,3.5,2.6Zm-7.3,12.1c1.1,-2.9,2.4,-5.5,3.6,-8.3c-2,-1.6,-4,-3.1,-4.4,-6.2v-1.5c-.1,-2.7,1.9,-3.4,4.5,-3.4c.1,0,.2,0,.2,0c2,-3.3,4.3,-6.3,6.2,-9.7c-.6,-.8,-1.2,-2.3,-.9,-3.6c.5,1.3,1.6,1.9,2.4,2.9c-.1,.6,-.3,1.1,-.4,1.8c.6,.6,1.4,1.1,2.4,1.3c.5,-.4,.5,-1.2,1.1,-1.5c1,.4,1.9,.8,3.2,.8c.1,.1,.5,.1,.8,.1c.3,0,.7,0,.8,-.1c.1,0,.2,0,.3,0c.3,0,.5,0,.6,-.1c.2,-.1,.4,-.1,.6,-.1c.1,0,.2,0,.3,.1c-1.3,.6,-2.2,1.7,-4.2,1.7c-.1,0,-.2,0,-.3,0c-.9,3.8,-1.9,7.4,-2.7,11.2c.6,1.1,1.5,1.7,1.3,3.1c-.5,2.8,-3.9,4.4,-7.2,4.4c-1.3,0,-2.5,-.2,-3.6,-.7c-1,2.1,-2.1,4.1,-3.3,6c0,-.4,.3,-.4,.3,-.7c.9,-1.8,1.9,-3.6,2.6,-5.7c-1.1,1.7,-1.8,3.7,-2.8,5.5c-.2,.5,-.4,.9,-.6,1.3c-.3,.4,-.3,1.1,-.8,1.4Z"/></clipPath>
<clipPath id="cd_94"><path d="M182.3,751.5c-4.8,0,-13.1,-7.3,-5.6,-8.8H178c.2,.1,.4,.1,.6,.1c0,0,.1,0,.1,0c0,0,.1,0,.1,0c.3,0,.6,0,.9,0c3.1,.7,8.3,3.8,7.6,7.1c-.3,1.1,-1.6,1.6,-3.2,1.6h-1.7c0,0,-.1,0,-.1,0Z"/></clipPath>
<clipPath id="ce_94"><path d="M833.9,788.3c-.3,-.1,3.6,-8.2,3.6,-8.2l.7,.5c0,0,-4,7.7,-4.3,7.7Z"/></clipPath>
<clipPath id="cf_94"><path d="M841.4,780.6c0,0,-6.8,-1.1,-7.6,-5.2c-.6,-3.6,1.6,-3.9,2.1,-3.9c.1,0,.1,.1,.1,.1l8.3,-12.8l-1.4,-3.1c0,0,-.6,-1.1,.1,-2c.1,-.1,.2,-.1,.3,-.1c2.1,0,13,5.5,13,5.5l.1,.2c-.4,.5,-.8,1.1,-1.4,1.6c-.7,.5,-5.1,1.2,-5.1,1.2l-8.5,18.5Z"/></clipPath>
<clipPath id="cg_94"><path d="M841,780.2c.2,-.4,.2,-1.7,0,-2.2v-1.4c-1.5,-.5,-2.9,-1.2,-3.6,-2.5c-1.1,.6,-2.2,1.2,-3.2,1.9c1.6,2.1,3.8,3.5,6.8,4.2Zm0,-3.8c2.2,-4.6,4,-9.6,6.2,-14.1c-.9,-.4,-1.9,-1.3,-2.7,-1.4c-2.3,4.3,-4.6,8.6,-7,12.8c.7,1.3,2.1,2,3.5,2.7Zm-7.3,12c1.1,-2.9,2.4,-5.5,3.5,-8.3c-1.9,-1.5,-3.9,-3.1,-4.4,-6.1v-1.5c0,-2.7,2,-3.4,4.6,-3.4q.1,0,.2,0c2,-3.4,4.2,-6.4,6.2,-9.7c-.6,-.9,-1.2,-2.4,-.9,-3.7c.5,1.3,1.6,1.9,2.4,2.9c-.1,.6,-.3,1.2,-.4,1.8c.6,.7,1.3,1.2,2.4,1.4c.4,-.4,.5,-1.3,1.1,-1.5c1,.3,1.9,.7,3.2,.7c.1,.1,.4,.2,.8,.2c.3,0,.7,-.1,.8,-.2c.1,.1,.2,.1,.3,.1c.2,0,.4,-.1,.6,-.2c.2,0,.4,-.1,.5,-.1c.1,0,.2,0,.4,.1c-1.4,.7,-2.2,1.8,-4.2,1.8c-.1,0,-.2,0,-.4,0c-.8,3.7,-1.8,7.3,-2.6,11.1c.5,1.1,1.5,1.7,1.2,3.2c-.4,2.7,-3.8,4.4,-7.2,4.4c-1.2,0,-2.5,-.3,-3.6,-.8c-1,2.1,-2,4.2,-3.2,6.1c-.1,-.4,.3,-.4,.2,-.8c1,-1.8,2,-3.6,2.7,-5.7c-1.1,1.8,-1.9,3.7,-2.8,5.6c-.2,.4,-.4,.8,-.6,1.2c-.3,.4,-.3,1.2,-.8,1.4Z"/></clipPath>
<clipPath id="ch_94"><path d="M851.4,760.6c-4.8,0,-13,-7.3,-5.5,-8.8h1.3c.1,.1,.3,.1,.5,.1c0,0,.1,0,.2,0h.1c.3,0,.6,0,.9,.1c3.1,.6,8.2,3.8,7.6,7c-.3,1.2,-1.6,1.6,-3.2,1.6h-1.7q-.1,0,-.2,0Z"/></clipPath>
<clipPath id="ci_94"><path d="M125.5,386.7V205.8H858.6V386.7Z"/></clipPath>
<style type="text/css"><![CDATA[
.g0_94{
fill: #FEFCF4;
}
.g1_94{
fill: #FFF;
}
.g2_94{
fill: none;
stroke: #6381B7;
stroke-width: 0.763;
}
.g3_94{
fill: #F7C2D9;
}
.g4_94{
fill: #FDF4F3;
}
.g5_94{
fill: #EC008C;
}
.g6_94{
fill: none;
stroke: #949698;
stroke-width: 0.305;
stroke-dasharray: 4,4;
}
.g7_94{
fill: none;
stroke: #949698;
stroke-width: 0.305;
}
.g8_94{
fill: none;
stroke: #818385;
stroke-width: 0.305;
stroke-dasharray: 3,3;
}
.g9_94{
fill: none;
stroke: #818385;
stroke-width: 0.305;
}
.ga_94{
fill: #6D6F71;
}
.gb_94{
fill: #6381B7;
}
.gc_94{
fill: none;
stroke: #6381B7;
stroke-width: 0.381;
stroke-dasharray: 2,1;
}
.gd_94{
fill: none;
stroke: #6381B7;
stroke-width: 0.381;
}
.ge_94{
fill: #FCE8B0;
}
.gf_94{
fill: #25408F;
}
.gg_94{
fill: #A8AAAD;
}
.gh_94{
fill: none;
stroke: #949698;
stroke-width: 0.549;
}
.gi_94{
fill: none;
stroke: #BCBEC0;
stroke-width: 2.566;
}
.gj_94{
fill: #231F20;
}
.gk_94{
fill: #363637;
}
.gl_94{
fill: #5CC4BE;
}
.gm_94{
fill: #EAD646;
}
.gn_94{
fill: #2E6E51;
}
.go_94{
fill: none;
stroke: #FFF;
stroke-width: 0.152;
stroke-miterlimit: 1;
}
.gp_94{
fill: #BCBEC0;
}
.gq_94{
fill: #EE314A;
}
.gr_94{
fill: #CEEDFB;
}
.gs_94{
fill: #27639D;
}
.gt_94{
fill: none;
stroke: #C3E7F1;
stroke-width: 1.527;
}
.gu_94{
fill: none;
stroke: #FFF;
stroke-width: 1.909;
stroke-miterlimit: 10;
}
.gv_94{
fill: none;
stroke: #000;
stroke-width: 0.381;
stroke-miterlimit: 10;
}
]]></style>
</defs>
<path d="M32.1,1344.3H954.5V32.1H32.1V1344.3Z" class="g0_94"/>
<path clip-path="url(#c0_94)" d="M954.5,1344.3H1877V32.1H954.5V1344.3Z" class="g0_94"/>
<path d="M150.4,418.8c0,0,-18.3,0,-18.3,18.3v569.3c0,0,0,18.3,18.3,18.3H827.5c0,0,18.4,0,18.4,-18.3V418.8Z" class="g1_94"/>
<path d="M150.4,418.8c0,0,-18.3,0,-18.3,18.3v569.3c0,0,0,18.3,18.3,18.3H827.5c0,0,18.4,0,18.4,-18.3V418.8H150.4Z" class="g2_94"/>
<image clip-path="url(#c1_94)" preserveAspectRatio="none" x="73" y="765" width="213" height="241" xlink:href="img/1.png"/>
<path d="M80.6,770.1L78.3,997.7l199.6,1.5l2,-227Z" class="g3_94"/>
<image clip-path="url(#c2_94)" preserveAspectRatio="none" x="71" y="764" width="213" height="243" xlink:href="img/2.png"/>
<image clip-path="url(#c3_94)" preserveAspectRatio="none" x="71" y="764" width="213" height="243" xlink:href="img/3.png"/>
<path d="M75.8,776l8.5,224.7l161.8,-6.9L278.4,969L270.7,768Z" class="g4_94"/>
<path d="M246.5,994.7l32.2,-26.2l-17.1,-2.1Z" class="g5_94"/>
<path d="M517.1,807.8C501.2,795.1,433.8,745.2,354.8,751.1m-7.4,1.8c-3,2.6,.7,7.6,4.6,7.3m4.9,-5.5c.1,-4.4,-6,-9,-20.1,-9.6M329,745c-18.8,.2,-33.5,2,-111.2,28.2" class="g6_94"/>
<path d="M520.6,810.8c0,0,-.4,-.4,-1.2,-1M353.3,751.2c-.5,0,-1,.1,-1.5,.1c-.6,.1,-1.1,.2,-1.6,.3m3.3,8.2c.5,-.2,.9,-.5,1.3,-.9c.4,-.4,.8,-.8,1.1,-1.2M335.2,745c-.5,0,-1.1,0,-1.6,0c-.5,0,-1,0,-1.5,0M216.3,773.7c-.5,.1,-1,.3,-1.5,.5" class="g7_94"/>
<path d="M509.6,845.1c24.3,-.6,43.9,-6.6,47.8,-14.2m-.8,-6.9c-5.4,-7.2,-24.9,-12.6,-48.5,-13.1m-7.3,.1c-24.2,.6,-43.9,6.6,-47.8,14.2m.8,6.9c5.4,7.2,24.9,12.6,48.5,13" class="g8_94"/>
<path d="M557.9,829.5c.1,-.5,.2,-1,.2,-1.5c0,-.4,-.1,-.9,-.2,-1.4M506.7,810.9c-.5,0,-1,0,-1.5,0c-.5,0,-1,0,-1.5,0m-51.2,15.7c-.1,.5,-.2,1,-.2,1.4c0,.5,.1,1,.2,1.5m51.2,15.7c.5,0,1,0,1.5,0c.5,0,1,0,1.5,0" class="g9_94"/>
<path d="M217.9,777.7L214,769.8l-8.1,9.1Z" class="ga_94"/>
<image clip-path="url(#c4_94)" preserveAspectRatio="none" x="723" y="772" width="212" height="168" xlink:href="img/4.png"/>
<path d="M727.6,782.3l5,151.2l196.9,-4.7l-5.9,-152Z" class="g3_94"/>
<image clip-path="url(#c5_94)" preserveAspectRatio="none" x="721" y="771" width="214" height="170" xlink:href="img/5.png"/>
<image clip-path="url(#c6_94)" preserveAspectRatio="none" x="721" y="771" width="214" height="169" xlink:href="img/6.png"/>
<path d="M733.2,776.2l-7,149.7L889,934l34.3,-22.6L929.1,786Z" class="g4_94"/>
<path d="M889.4,934l34.5,-22.5L911.6,903Z" class="g5_94"/>
<path d="M538.3,992.2c8.3,-1.2,14.9,-5.8,16.5,-11.6m-.5,-6.9c-2.3,-5.5,-9.1,-9.6,-17.4,-10.4m-7.1,.2c-8.3,1.2,-14.9,5.8,-16.5,11.5m.5,7c2.3,5.4,9.1,9.6,17.4,10.4" class="g8_94"/>
<path d="M555.1,979.3c.1,-.5,.1,-1,.1,-1.5c0,-.4,0,-.9,-.1,-1.4M535.5,963.2c-.5,0,-1,0,-1.4,0c-.5,0,-1,0,-1.4,0M513,976.4c0,.5,-.1,1,-.1,1.4c0,.5,.1,1,.1,1.5m19.7,13.1c.4,.1,.9,.1,1.4,.1c.4,0,.9,0,1.4,-.1" class="g9_94"/>
<path d="M545.3,960.9c0,0,79.7,-156.3,184,-152.6" class="g6_94"/>
<path d="M722,804.6l1.2,8.7l10.6,-6Z" class="ga_94"/>
<path d="M145.1,1031.2c0,0,-13,0,-13,13v157c0,0,0,13,13,13H832.9c0,0,13,0,13,-13v-157c0,0,0,-13,-13,-13Z" class="g1_94"/>
<path d="M145.1,1031.2c0,0,-13,0,-13,13v157c0,0,0,13,13,13H832.9c0,0,13,0,13,-13v-157c0,0,0,-13,-13,-13H145.1Z" class="g2_94"/>
<path d="M433.1,1229.1c0,0,-4.4,0,-4.4,4.4v10.8c0,0,0,4.3,4.4,4.3h30.3c0,0,4.3,0,4.3,-4.3v-10.8c0,0,0,-4.4,-4.3,-4.4Z" class="gb_94"/>
<path d="M419.9,1221.7v34.8m1.3,1H843.7m1,-1.4v-34.8m-1.4,-1H420.8" class="gc_94"/>
<path d="M419.9,1256.9v.6h.5m423.7,0h.6v-.6m0,-36v-.6h-.6m-423.7,0h-.5v.6" class="gd_94"/>
<path d="M209.6,464.3c0,0,-12.9,0,-12.9,13v21.6c0,0,0,13,12.9,13h602c0,0,13,0,13,-13V477.3c0,0,0,-13,-13,-13Z" class="ge_94"/>
<image clip-path="url(#c7_94)" preserveAspectRatio="none" x="153" y="435" width="75" height="76" xlink:href="img/7.png"/>
<path d="M204.4,504.6c0,0,-26.8,11.3,-51.1,-12.8c0,0,15.2,25.3,49.3,24c0,0,24.8,.3,20.3,-10.2c0,0,1.2,-4.4,-18.5,-1Z" class="ge_94"/>
<path d="M210.2,1068c0,0,-13,0,-13,13v21.7c0,0,0,13,13,13H812.1c0,0,13,0,13,-13V1081c0,0,0,-13,-13,-13Z" class="ge_94"/>
<image clip-path="url(#c8_94)" preserveAspectRatio="none" x="153" y="1038" width="75" height="77" xlink:href="img/8.png"/>
<path d="M205,1108.3c0,0,-26.9,11.3,-51.1,-12.8c0,0,15.1,25.4,49.2,24c0,0,24.8,.3,20.3,-10.1c0,0,1.2,-4.5,-18.4,-1.1Z" class="ge_94"/>
<path d="M131.7,392.6v39l11.7,10.3V397.7Z" class="gf_94"/>
<path d="M131.7,392.6v39H829.5c0,0,16.8,0,16.8,-16.8v-5.4c0,0,0,-16.8,-16.8,-16.8Z" class="gb_94"/>
<path d="M781,426.3c8.2,0,14.8,-6.5,14.8,-14.6c0,-8,-6.6,-14.5,-14.8,-14.5c-8.3,0,-14.9,6.5,-14.9,14.5c0,8.1,6.6,14.6,14.9,14.6Z" class="gg_94"/>
<path d="M781,426.3c8.2,0,14.8,-6.5,14.8,-14.6c0,-8,-6.6,-14.5,-14.8,-14.5c-8.3,0,-14.9,6.5,-14.9,14.5c0,8.1,6.6,14.6,14.9,14.6Z" class="gh_94"/>
<path d="M781,417.1c3,0,5.4,-2.4,5.4,-5.4c0,-2.9,-2.4,-5.3,-5.4,-5.3c-3.1,0,-5.5,2.4,-5.5,5.3c0,3,2.4,5.4,5.5,5.4Z" class="g1_94"/>
<path d="M781,417.1c3,0,5.4,-2.4,5.4,-5.4c0,-2.9,-2.4,-5.3,-5.4,-5.3c-3.1,0,-5.5,2.4,-5.5,5.3c0,3,2.4,5.4,5.5,5.4Z" class="gi_94"/>
<g clip-path="url(#c9_94)" opacity="0.3">
<path d="M766.4,411c0,0,-.1,-4.9,3.6,-8.7l7.8,6.8c0,0,-1,.9,-1.1,2.6Z" class="g1_94"/>
</g>
<path d="M785.6,411.6c0,0,-3.5,0,-3.5,3.5v8.7c0,0,0,3.5,3.5,3.5H829c0,0,3.5,0,3.5,-3.5v-8.7c0,0,0,-3.5,-3.5,-3.5Z" class="gj_94"/>
<path d="M169.5,402.7c0,-8.3,-6.7,-15,-15,-15c-8.4,0,-15.1,6.7,-15.1,15c0,8.3,6.8,15.1,15.1,15.1c.8,0,1.6,-.1,2.4,-.2l4.5,5.2v-6.7c4.8,-2.5,8.1,-7.6,8.1,-13.4Z" class="g1_94"/>
<path d="M161.8,424l-5.1,-5.9c-.7,.1,-1.5,.1,-2.2,.1c-8.6,0,-15.6,-6.9,-15.6,-15.5c0,-8.5,7,-15.5,15.6,-15.5c8.5,0,15.5,7,15.5,15.5c0,5.7,-3.1,11,-8.2,13.7Zm-4.7,-6.9l3.8,4.5v-5.8l.3,-.1c4.8,-2.5,7.9,-7.5,7.9,-13c0,-8,-6.6,-14.6,-14.6,-14.6c-8.1,0,-14.6,6.6,-14.6,14.6c0,8.1,6.5,14.6,14.6,14.6c.7,0,1.5,-.1,2.3,-.2Z" class="gk_94"/>
<path d="M147.4,402.3c.8,0,1.5,.6,1.5,1.4c0,.8,-.7,1.5,-1.5,1.5c-.7,0,-1.4,-.7,-1.4,-1.5c0,-.8,.7,-1.4,1.4,-1.4Z" class="gl_94"/>
<path d="M147.4,405.6c-1,0,-1.8,-.8,-1.8,-1.9c0,-1,.8,-1.9,1.8,-1.9c1.1,0,1.9,.9,1.9,1.9c0,1.1,-.8,1.9,-1.9,1.9m0,-2.9c-.5,0,-.9,.5,-.9,1c0,.6,.4,1,.9,1c.6,0,1,-.4,1,-1c0,-.5,-.4,-1,-1,-1Z" class="gk_94"/>
<path d="M154.5,402.3c.8,0,1.4,.6,1.4,1.4c0,.8,-.6,1.5,-1.4,1.5c-.8,0,-1.5,-.7,-1.5,-1.5c0,-.8,.7,-1.4,1.5,-1.4Z" class="gl_94"/>
<path d="M154.5,405.6c-1.1,0,-1.9,-.8,-1.9,-1.9c0,-1,.8,-1.9,1.9,-1.9c1,0,1.9,.9,1.9,1.9c0,1.1,-.9,1.9,-1.9,1.9m0,-2.9c-.6,0,-1,.5,-1,1c0,.6,.4,1,1,1c.5,0,.9,-.4,.9,-1c0,-.5,-.4,-1,-.9,-1Z" class="gk_94"/>
<path d="M161.5,402.3c.8,0,1.4,.6,1.4,1.4c0,.8,-.6,1.5,-1.4,1.5c-.8,0,-1.5,-.7,-1.5,-1.5c0,-.8,.7,-1.4,1.5,-1.4Z" class="gl_94"/>
<path d="M161.5,405.6c-1.1,0,-1.9,-.8,-1.9,-1.9c0,-1,.8,-1.9,1.9,-1.9c1,0,1.9,.9,1.9,1.9c0,1.1,-.9,1.9,-1.9,1.9m0,-2.9c-.6,0,-1,.5,-1,1c0,.6,.4,1,1,1c.5,0,1,-.4,1,-1c0,-.5,-.5,-1,-1,-1Z" class="gk_94"/>
<path d="M163.4,417c0,-9.8,7.9,-17.7,17.6,-17.7c9.7,0,17.6,7.9,17.6,17.7c0,9.7,-7.9,17.6,-17.6,17.6c-.9,0,-1.9,-.1,-2.8,-.3l-5.3,6.1v-7.8c-5.6,-2.9,-9.5,-8.8,-9.5,-15.6Z" class="gm_94"/>
<path d="M172.9,440.9c0,0,-.1,0,-.1,0c-.2,-.1,-.3,-.3,-.3,-.5v-7.5c-5.9,-3.2,-9.6,-9.3,-9.6,-15.9c0,-10,8.2,-18.1,18.1,-18.1c10,0,18.1,8.1,18.1,18.1c0,9.9,-8.1,18,-18.1,18c-.8,0,-1.7,0,-2.6,-.2l-5.1,5.9c-.1,.1,-.2,.2,-.4,.2M181,399.8c-9.4,0,-17.1,7.7,-17.1,17.2c0,6.4,3.5,12.2,9.2,15.2c.2,.1,.3,.2,.3,.4v6.6l4.4,-5.2c.1,-.1,.3,-.1,.5,-.1c.9,.1,1.8,.2,2.7,.2c9.5,0,17.2,-7.7,17.2,-17.1c0,-9.5,-7.7,-17.2,-17.2,-17.2Z" class="gk_94"/>
<path d="M189.2,416.5c.9,0,1.7,.7,1.7,1.6c0,1,-.8,1.7,-1.7,1.7c-.9,0,-1.7,-.7,-1.7,-1.7c0,-.9,.8,-1.6,1.7,-1.6Z" class="g1_94"/>
<path d="M189.2,420.3c-1.2,0,-2.1,-1,-2.1,-2.2c0,-1.1,.9,-2.1,2.1,-2.1c1.2,0,2.1,1,2.1,2.1c0,1.2,-.9,2.2,-2.1,2.2m0,-3.4c-.7,0,-1.2,.6,-1.2,1.2c0,.7,.5,1.2,1.2,1.2c.7,0,1.2,-.5,1.2,-1.2c0,-.6,-.5,-1.2,-1.2,-1.2Z" class="gk_94"/>
<path d="M181,416.5c.9,0,1.7,.7,1.7,1.6c0,1,-.8,1.7,-1.7,1.7c-.9,0,-1.7,-.7,-1.7,-1.7c0,-.9,.8,-1.6,1.7,-1.6Z" class="g1_94"/>
<path d="M181,420.3c-1.2,0,-2.1,-1,-2.1,-2.2c0,-1.1,.9,-2.1,2.1,-2.1c1.2,0,2.1,1,2.1,2.1c0,1.2,-.9,2.2,-2.1,2.2m0,-3.4c-.7,0,-1.2,.6,-1.2,1.2c0,.7,.5,1.2,1.2,1.2c.7,0,1.2,-.5,1.2,-1.2c0,-.6,-.5,-1.2,-1.2,-1.2Z" class="gk_94"/>
<path d="M172.8,416.5c.9,0,1.7,.7,1.7,1.6c0,1,-.8,1.7,-1.7,1.7c-.9,0,-1.7,-.7,-1.7,-1.7c0,-.9,.8,-1.6,1.7,-1.6Z" class="g1_94"/>
<path d="M172.8,420.3c-1.2,0,-2.1,-1,-2.1,-2.2c0,-1.1,.9,-2.1,2.1,-2.1c1.2,0,2.1,1,2.1,2.1c0,1.2,-.9,2.2,-2.1,2.2m0,-3.4c-.7,0,-1.2,.6,-1.2,1.2c0,.7,.5,1.2,1.2,1.2c.7,0,1.2,-.5,1.2,-1.2c0,-.6,-.5,-1.2,-1.2,-1.2Z" class="gk_94"/>
<image clip-path="url(#ca_94)" x="164" y="770" width="6" height="10" xlink:href="shade/1.png"/>
<image clip-path="url(#cb_94)" x="163" y="744" width="25" height="28" xlink:href="shade/2.png"/>
<image clip-path="url(#cc_94)" x="163" y="746" width="23" height="34" xlink:href="shade/3.png"/>
<image clip-path="url(#cd_94)" x="169" y="742" width="19" height="10" xlink:href="shade/4.png"/>
<image clip-path="url(#ce_94)" x="833" y="780" width="6" height="9" xlink:href="shade/5.png"/>
<image clip-path="url(#cf_94)" x="833" y="753" width="24" height="28" xlink:href="shade/6.png"/>
<image clip-path="url(#cg_94)" x="832" y="755" width="23" height="34" xlink:href="shade/7.png"/>
<image clip-path="url(#ch_94)" x="838" y="751" width="20" height="10" xlink:href="shade/8.png"/>
<path d="M32.1,179.3H967.5V32.1H32.1V179.3Z" class="gn_94"/>
<path d="M262.7,135.2L261.6,134c-.2,0,-.3,0,-.4,0c-.5,0,-.8,-.2,-.9,-.6c-.1,-.1,-.1,-.2,-.1,-.4c-.1,-.2,-.1,-.5,-.2,-.8l-.5,-.5c0,1.1,.1,2.2,.2,3.2c0,1.1,.1,2.1,.1,3.2c-1.5,-2.6,-3.2,-3.9,-4.9,-3.9c-.5,0,-1,.1,-1.5,.3c-.5,.1,-1,.4,-1.5,.7c-.6,.4,-1,.8,-1.3,1.2c-.3,.4,-.5,.9,-.5,1.3c0,.2,.1,.5,.3,.7c.2,.2,.4,.3,.7,.3c.2,0,.5,-.1,.8,-.3c.4,-.1,.7,-.2,.9,-.2c.5,0,.7,.4,.7,1.2c0,.5,-.4,1.1,-1.2,1.9l1.7,.6l4.2,-4.2c.1,.1,.3,.2,.5,.4c.1,.2,.3,.4,.4,.6c.3,.5,.5,1,.5,1.3l-.2,5.8c-.6,-.9,-1.7,-1.5,-3.3,-1.6c-.6,-.1,-1.2,-.2,-1.7,-.2c-.5,0,-1.1,-.1,-1.9,-.2c-1.2,-.2,-1.8,-1,-1.8,-2.3c0,-.4,0,-.6,.1,-.8l-.4,-.4c-.3,.9,-.4,1.6,-.4,2.1c0,.7,.1,1.3,.5,1.8c.4,.5,.9,.9,1.5,1.2c.7,.3,1.3,.4,1.9,.5c.6,0,1.3,.1,2,0H258c.7,.1,1.2,.3,1.7,.8c.6,.8,.9,1.2,1,1.3V135.2h2Zm-8.5,4.2c.1,-.7,0,-1.2,-.3,-1.6c-.3,-.5,-.8,-.7,-1.4,-.7c.5,-1.1,1.5,-1.6,2.8,-1.6c.7,0,1.3,.3,1.9,.9l-3,3ZM269.1,134h-8l1.2,1.2h4c-1.7,2,-2.5,4,-2.5,6.1c0,1.5,.3,2.8,.9,3.9c.7,1.4,1.8,2.1,3.2,2.1c.3,0,.6,0,.8,-.1c.3,-.1,.5,-.2,.7,-.4c.2,-.2,.4,-.4,.5,-.7c.1,-.2,.2,-.5,.2,-.8c0,-.4,-.2,-.9,-.5,-1.2c-.2,-.3,-.6,-.5,-1,-.5c-.4,0,-.7,.2,-1,.4c-.3,.3,-.5,.6,-.5,1c0,.2,.1,.4,.2,.7c.1,.2,.3,.4,.6,.6c-.7,.2,-1.5,-.2,-2.2,-1.3c-.5,-.7,-.7,-1.5,-.7,-2.3c0,-1,.1,-1.9,.3,-2.7c.2,-.7,.5,-1.4,.9,-2.1c.5,-.7,1.1,-1.3,1.7,-1.7c.7,-.5,1.4,-.8,2.3,-1L269.1,134Zm12.1,1.2L280.1,134H268.2l1.2,1.2h8.2v.9c-2.5,.8,-5,2.1,-7.4,3.7l1.6,2.3c1.7,.1,3.1,.7,4.1,1.6c.3,.3,.6,.6,.9,1c.3,.4,.6,.8,.8,1.2c.1,.3,.3,.5,.3,.7c.1,.1,.1,.2,.2,.4l.7,.8V135.2h2.4Zm-3.6,9.4c-1.1,-1.8,-2.7,-3.2,-4.8,-4.1c.8,-.6,1.7,-1.1,2.5,-1.5c.8,-.4,1.5,-.7,2.3,-1v6.6Zm16.1,-9.4L292.5,134c-.7,-.1,-1.1,-.6,-1.2,-1.5l-.8,-.6l.3,5.3h-.1c-.2,-.5,-.6,-1.2,-1.2,-2c-.7,-.8,-1.3,-1.2,-1.8,-1.2c-1.2,0,-2.3,.8,-3,2.4c-.1,-.7,-.4,-1.2,-1,-1.7c-.6,-.5,-1.2,-.7,-1.8,-.7h-2.5l1.2,1.2c.1,0,.6,0,1.3,0c.8,0,1.5,.5,2,1.5c-.3,.1,-.5,.2,-.8,.4c-.2,.2,-.5,.4,-.7,.7c-.1,.2,-.3,.5,-.4,.8c-.1,.2,-.2,.5,-.2,.8c0,.4,.2,.8,.5,1.2c.2,.3,.6,.5,1,.5c1,0,1.6,-.5,2,-1.5c.1,.5,.4,.8,.7,1.1c.4,.2,.7,.4,1.1,.4c.5,-.1,.9,-.3,1.2,-.7c.3,-.3,.4,-.7,.4,-1.2c0,-.6,-.6,-1.3,-1.9,-2.2c0,-.3,.2,-.6,.5,-.7c.3,-.2,.6,-.3,.9,-.3c.5,0,1,.3,1.5,1c.6,.8,.8,1.4,.8,1.9v7.7l1.2,1.2V135.2h2Zm19.4,0L311.9,134H300.1l1.2,1.2h1.2v7.1l1.7,1.7c.5,-1.1,1.2,-2.1,2.1,-2.9c.8,-.9,1.8,-1.5,2.9,-1.9c-.3,1,-.4,2.1,-.4,3.1c0,.6,0,1.3,.1,2.2c.2,.8,.3,1.8,.6,3l.8,.4c-.3,-1.6,-.4,-2.8,-.4,-3.7c0,-.9,.1,-1.8,.4,-2.8c.3,-1,.7,-2,1.2,-3l-1.9,-1.5c-.4,.1,-.9,.3,-1.4,.6c-.5,.2,-1,.5,-1.5,.8c-.5,.4,-1,.7,-1.5,1.2c-.5,.4,-.9,.8,-1.4,1.3v-5.6h9.3Zm11.1,0L323,134H311.2l1.2,1.2h8.2v.9c-2.5,.8,-5,2.1,-7.4,3.7l1.6,2.3c1.7,.1,3,.7,4.1,1.6c.2,.3,.6,.6,.9,1c.3,.4,.5,.8,.7,1c.1,.3,.3,.7,.6,1.3l.6,.8V135.2h2.5Zm-3.6,9.4c-1.1,-1.8,-2.7,-3.2,-4.9,-4.1c.9,-.6,1.7,-1.1,2.5,-1.5c.8,-.4,1.6,-.7,2.4,-1v6.6Zm-4.7,1.7c.2,.3,.5,.4,.8,.4c.4,0,.7,-.1,.9,-.4c.3,-.2,.4,-.5,.4,-.8c0,-.4,-.1,-.7,-.4,-.9c-.2,-.3,-.5,-.4,-.9,-.4c-.3,0,-.6,.1,-.8,.4c-.3,.2,-.4,.5,-.4,.9c0,.3,.1,.6,.4,.8ZM337.5,134H322.2l1.2,1.2h5.3c-.5,.3,-.9,.8,-1.3,1.5c-.4,.6,-.6,1.2,-.6,1.7c0,.8,.3,1.5,.8,2.1c.6,.7,1.2,1,2,1c.4,0,.8,-.1,1.3,-.3c.6,-.2,.9,-.3,1,-.3c.2,0,.4,.1,.5,.4c.1,.2,.2,.4,.2,.6c0,.6,-.4,1,-1.2,1.3c-.5,.3,-1.1,.5,-1.8,.5c-.6,0,-1.2,-.2,-1.8,-.6c-.5,-.4,-1,-1,-1.5,-1.7c-.6,-.9,-.9,-2.1,-1.1,-3.5c0,-.5,0,-.9,0,-1.3l-.6,-.3c0,1.2,.1,2.3,.3,3.3c.1,1,.4,1.9,.7,2.7c.9,2.2,2.4,3.4,4.5,3.4c.9,0,1.7,-.4,2.3,-1c.7,-.7,1,-1.5,1,-2.4c0,-.3,0,-.6,-.1,-.9c-.2,-.4,-.3,-.7,-.5,-1.1c-.4,-.7,-.9,-1.2,-1.4,-1.4l-1.3,.7c-.3,.1,-.6,.2,-.8,.3c-.2,.1,-.4,.1,-.5,.1c-.7,0,-1,-.3,-1,-.9c0,-.4,.3,-1,.7,-1.7c.3,-.4,.5,-.7,.7,-.9c.2,-.2,.4,-.3,.6,-.3l.1,.1c.8,.9,1.5,1.6,2.4,1.9c.8,.3,1.8,.5,3.1,.5c-.6,1.2,-.8,2.5,-.8,3.6c0,.9,.1,1.8,.3,2.6c.1,.8,.4,1.6,.6,2.4l1.2,.3c-.6,-1.3,-.9,-2.5,-.9,-3.4c0,-1.2,.2,-2.3,.5,-3.3c.4,-.9,.9,-1.7,1.5,-2.3L336,136.7c-.4,.2,-.8,.3,-1.3,.4c-.5,.1,-1.1,.1,-1.7,.1c-.2,0,-.4,0,-.6,-.1c-.2,-.1,-.5,-.1,-.7,-.3c-.2,-.1,-.4,-.2,-.6,-.3c-.1,-.2,-.2,-.3,-.2,-.5c0,-.2,.1,-.4,.3,-.5c.2,-.2,.4,-.3,.6,-.3h6.9L337.5,134Zm5.7,1.2L342.1,134H341c-.4,-.4,-.6,-1,-.8,-1.9l-.4,-.3c0,.2,0,.5,0,.9c.1,.3,.1,.7,.1,1.2c0,.5,.1,.9,.1,1.3c0,.3,0,.6,0,.9c-.2,-.8,-.6,-1.3,-.9,-1.6c-.4,-.3,-1,-.5,-1.7,-.5H336l1.2,1.2c.3,0,.7,.1,1,.2c.3,.1,.6,.3,.8,.5c.3,.2,.5,.4,.6,.7c.2,.3,.2,.7,.2,1v8.9l1.2,1.2V135.2h2.2ZM364.3,134H349.1l1.2,1.2h11.8v8.2L360.5,142c.2,-.6,.3,-1.3,.3,-1.9c0,-.8,-.2,-1.6,-.6,-2.2c-.3,-.5,-.6,-.9,-1.1,-1.2c-.4,-.3,-.8,-.6,-1.3,-.7c-.3,-.1,-.6,-.2,-.9,-.2c-.7,0,-1.4,.2,-2,.7c-.3,.2,-.5,.5,-.7,.8c-.2,.3,-.2,.6,-.2,.9c0,.4,0,.7,.2,.9c.3,.5,.7,.7,1.2,.8c.6,.1,1,0,1.4,-.3c.3,-.2,.5,-.4,.7,-.6c.1,-.3,.2,-.5,.2,-.8c0,-.3,-.1,-.6,-.4,-1c.2,-.1,.5,-.1,.7,0c.2,0,.5,.1,.7,.3c.2,.2,.4,.4,.6,.7c.2,.3,.3,.6,.4,.9c.1,.3,.1,.5,.1,.7c0,.6,-.2,1.1,-.5,1.7c-.5,.8,-1.4,1.3,-2.8,1.3c-.6,0,-1.1,-.2,-1.7,-.5c-.5,-.3,-1,-.8,-1.5,-1.4c-.4,-.5,-.8,-1.2,-1.2,-2c-.3,-.8,-.6,-1.7,-.8,-2.7l-.7,-.3c.1,1,.3,2,.5,2.9c.3,.9,.6,1.7,1,2.3c.3,.5,.7,1,1,1.5c.4,.4,.8,.8,1.2,1.1c.4,.3,.8,.6,1.2,.7c.4,.2,.8,.3,1.2,.3c.8,0,1.4,-.2,2,-.4c.5,-.3,.9,-.7,1.2,-1.2c1.5,.9,2.4,2.4,3,4.5v-.1l.4,.3V135.2h2.2L364.3,134Zm12.5,1.2L375.6,134H363.8l1.2,1.2h8.2v.9c-2.5,.8,-5,2.1,-7.4,3.7l1.6,2.3c1.7,.1,3,.7,4.1,1.6c.2,.3,.5,.6,.9,1c.3,.4,.6,.8,.7,1.2c.2,.3,.3,.5,.4,.7c.1,.1,.1,.2,.2,.4l.6,.8V135.2h2.5Zm-3.6,9.4c-1.1,-1.8,-2.7,-3.2,-4.9,-4.1c.9,-.6,1.7,-1.1,2.5,-1.5c.8,-.4,1.6,-.7,2.4,-1v6.6Zm16.1,-9.4L388.1,134c-.7,-.1,-1.1,-.6,-1.3,-1.5l-.7,-.6l.2,5.3c-.2,-.5,-.6,-1.2,-1.3,-2c-.7,-.8,-1.3,-1.2,-1.7,-1.2c-1.3,0,-2.3,.8,-3,2.4c-.1,-.7,-.5,-1.2,-1,-1.7c-.6,-.5,-1.2,-.7,-1.8,-.7h-2.6l1.2,1.2c.2,0,.6,0,1.4,0c.8,0,1.4,.5,2,1.5c-.3,.1,-.6,.2,-.8,.4c-.3,.2,-.5,.4,-.7,.7c-.2,.2,-.3,.5,-.4,.8c-.1,.2,-.2,.5,-.2,.8c0,.4,.1,.8,.4,1.2c.3,.3,.6,.5,1.1,.5c.9,0,1.6,-.5,1.9,-1.5c.2,.5,.4,.8,.8,1.1c.3,.2,.7,.4,1.1,.4c.5,-.1,.9,-.3,1.2,-.7c.2,-.3,.4,-.7,.4,-1.2c0,-.6,-.6,-1.3,-1.9,-2.2c0,-.3,.2,-.6,.4,-.7c.3,-.2,.6,-.3,1,-.3c.4,0,.9,.3,1.5,1c.5,.8,.8,1.4,.8,1.9l-.1,7.7l1.3,1.2V135.2h2Zm4.9,0L393,134h-6l1.2,1.2h3.5c-1.4,1.2,-2,2.6,-1.9,4.2c0,.5,.2,1.4,.5,2.4c.1,.5,.3,1,.3,1.4c.1,.4,.1,.8,.1,1c0,.9,-.1,1.6,-.5,2c-.2,.3,-.5,.6,-.9,.8c-.4,.2,-.7,.4,-1.1,.5l.6,.5c.5,-.1,.9,-.3,1.3,-.5c.4,-.2,.7,-.5,1.1,-.8c.3,-.4,.6,-.8,.8,-1.3c.2,-.4,.3,-.9,.3,-1.3c0,-.4,0,-.8,-.1,-1.4c-.1,-.5,-.2,-1.2,-.3,-1.9c-.2,-1.1,-.3,-2.2,-.3,-3.3c.1,-1.5,.7,-2.3,1.8,-2.3h.8Zm9.7,-1.2h-1c0,-1.1,-.3,-2,-1.1,-2.5c-.7,-.6,-1.9,-.9,-3.4,-.9c-.8,.1,-1.5,.1,-2,.2c-.6,0,-.9,0,-1.1,0c-.4,0,-.8,-.1,-1.2,-.3c-.4,-.3,-.6,-.6,-.6,-1c0,-.4,.2,-.8,.5,-1c0,0,-.1,0,-.2,0c0,0,-.1,0,-.1,0c-.2,-.1,-.4,.1,-.6,.5c-.2,.3,-.3,.6,-.3,.8c0,.8,.5,1.5,1.3,2c.8,.4,1.6,.7,2.5,.7c.2,0,.5,-.1,.8,-.1c.3,0,.6,0,1,0c.4,-.1,.7,-.1,1,-.1c.3,0,.6,0,.8,0c.2,0,.4,0,.6,0c.1,0,.3,.1,.5,.1c.5,.2,.7,.4,.7,.7c0,.3,-.2,.5,-.6,.7c-.2,.1,-.4,.1,-.6,.1c-.1,.1,-.3,.1,-.5,.1h-8.1l1.2,1.2h3.8c.6,.4,.9,.7,.9,1c-.8,0,-1.4,.3,-2,.8c-.6,.5,-.8,1.1,-.8,1.8c0,.4,.1,.7,.4,.9c.3,.2,.6,.3,1,.3c.5,0,1.1,-.2,1.6,-.7c.5,-.5,.7,-1,.7,-1.6c.1,0,.2,0,.3,-.1c.1,0,.2,0,.3,0c.3,0,.5,.1,.7,.2c.2,.1,.4,.2,.5,.4c.2,.2,.3,.4,.4,.7c.1,.2,.1,.5,.1,.7c0,.8,-.4,1.5,-1.4,2c-.7,.3,-1.6,.5,-2.5,.4c-1.2,-.1,-2.3,-.4,-3.3,-1l1.4,3c.9,.2,1.7,.5,2.6,.9c.9,.3,1.7,.7,2.5,1.2c.9,.5,1.7,1,2.3,1.5c.7,.6,1.3,1.2,1.9,1.9l-.3,-1.3c-1,-1.1,-2,-2,-2.9,-2.8c-1,-.8,-1.8,-1.4,-2.6,-1.9c1.2,-.3,2,-.7,2.6,-1.2c.8,-.6,1.2,-1.5,1.2,-2.4c0,-1,-.3,-1.8,-1,-2.5c-.4,-.5,-1.2,-.9,-2.4,-1.3c-.1,-.2,-.2,-.3,-.3,-.5c-.1,-.1,-.3,-.2,-.4,-.4h6.4L403.9,134Zm20.4,1.2L423.1,134H411.3l1.2,1.2h8.2v.9c-2.5,.8,-5,2.1,-7.4,3.7l1.6,2.3c1.7,.1,3,.7,4.1,1.6c.2,.3,.5,.6,.9,1c.3,.4,.6,.8,.7,1.2c.2,.3,.3,.5,.4,.7c.1,.1,.1,.2,.2,.4l.6,.8V135.2h2.5Zm-3.6,9.4c-1.1,-1.8,-2.7,-3.2,-4.9,-4.1c.9,-.6,1.7,-1.1,2.5,-1.5c.8,-.4,1.6,-.7,2.4,-1v6.6Zm16.6,-9.4L436.1,134H422.5l1.3,1.2h7v3.5c-1.2,-1.8,-2.5,-2.6,-3.8,-2.6c-.7,0,-1.3,.2,-1.7,.6c-.4,.5,-.7,1.1,-.7,1.8c0,.2,.1,.4,.2,.5c.1,.2,.2,.4,.3,.5c.2,.1,.3,.2,.5,.3c.2,.1,.4,.1,.5,.1c.2,0,.4,0,.5,-.1c.2,0,.4,-.1,.5,-.2c.1,-.1,.2,-.3,.3,-.4c.1,-.2,.1,-.3,.1,-.5c0,-.3,-.1,-.6,-.4,-.9c.3,-.2,.6,-.3,.9,-.3c.2,0,.5,.1,.8,.2c.2,.1,.4,.2,.7,.4c.2,.1,.4,.3,.5,.5c.2,.2,.3,.5,.4,.7c-1.1,.7,-1.9,1.2,-2.6,1.6c-.7,.4,-1.2,.7,-1.6,.9l-.4,.3l1.2,1.6c.6,0,1.1,.1,1.6,.3c.5,.1,1,.4,1.3,.8c.1,.1,.3,.3,.4,.7c.2,.3,.3,.6,.5,.9c.3,.5,.5,.9,.7,1.2c.2,.4,.3,.6,.4,.6v-7.7c1,-.5,1.7,-.8,2.2,-.8v5.5c.1,.3,.3,.6,.6,.8c.2,.3,.5,.5,.8,.6c-.1,-.5,-.2,-.9,-.3,-1.4c0,-.5,0,-.9,0,-1.4c0,-.4,0,-.8,0,-1.3c.1,-.4,.1,-.8,.1,-1.2c.1,-.4,.1,-.8,.1,-1.2c.1,-.4,.1,-.8,.1,-1.2c0,-.2,-.2,-.4,-.4,-.6c-.3,-.2,-.7,-.3,-1,-.3c-.5,0,-1.2,.2,-2.1,.7v-3.5h5.3Zm-6.5,9.1c-.5,-.5,-.9,-.9,-1.4,-1.2c-.4,-.2,-.9,-.4,-1.4,-.5c.6,-.4,1.1,-.7,1.6,-1c.5,-.3,.9,-.5,1.2,-.6v3.3Zm28.9,-9.1L458.4,134H443.3l1.2,1.2h7.8v1c-2.6,.8,-4.9,2.1,-6.9,3.7L447,142c1.4,.1,2.6,.7,3.7,1.8c.4,.5,.9,1,1.3,1.6c.4,.7,.7,1.3,1,2c0,.1,.1,.1,.2,.2c0,0,.1,.1,.2,.1v-10c1.2,0,2.2,.3,2.8,1c.7,.7,1,1.4,1,2.2l-.1,.3c-.2,-.2,-.4,-.3,-.6,-.4c-.1,-.2,-.4,-.2,-.6,-.2c-.4,0,-.7,.1,-1,.4c-.3,.2,-.4,.5,-.4,.9c0,.2,0,.4,.1,.6c.1,.2,.2,.3,.4,.5c.1,.1,.3,.2,.5,.3c.2,.1,.4,.1,.6,.1c.3,0,.5,-.1,.8,-.2c.2,-.1,.4,-.3,.6,-.5c.1,-.2,.3,-.4,.4,-.7c.1,-.3,.1,-.5,.1,-.8c0,-1.3,-.4,-2.4,-1.2,-3.4c-.8,-1.2,-2,-1.7,-3.4,-1.7v-.9h6.3Zm-7.5,9.1c-1,-1.8,-2.5,-3.1,-4.5,-4c.9,-.5,1.6,-1,2.4,-1.4c.7,-.4,1.4,-.8,2.1,-1.1v6.5ZM471,135.2L469.8,134H458l1.2,1.2h8.2v.9c-2.5,.8,-5,2.1,-7.4,3.7l1.6,2.3c1.7,.1,3,.7,4.1,1.6c.3,.3,.6,.6,.9,1c.3,.4,.6,.8,.7,1c.2,.3,.3,.7,.6,1.3l.6,.8V135.2H471Zm-3.6,9.4c-1.1,-1.8,-2.7,-3.2,-4.9,-4.1c.9,-.6,1.7,-1.1,2.5,-1.5c.8,-.4,1.6,-.7,2.4,-1v6.6Zm-4.7,1.7c.2,.3,.5,.4,.9,.4c.3,0,.6,-.1,.8,-.4c.3,-.2,.4,-.5,.4,-.8c0,-.4,-.1,-.7,-.4,-.9c-.2,-.3,-.5,-.4,-.8,-.4c-.4,0,-.7,.1,-.9,.4c-.3,.2,-.4,.5,-.4,.9c0,.3,.1,.6,.4,.8ZM476.9,134H469l1.2,1.2h3.9c-1.7,2,-2.5,4,-2.5,6.1c0,1.5,.3,2.8,.9,3.9c.8,1.4,1.8,2.1,3.2,2.1c.3,0,.6,0,.9,-.1c.2,-.1,.5,-.2,.7,-.4c.2,-.2,.3,-.4,.4,-.7c.1,-.2,.2,-.5,.2,-.8c0,-.4,-.1,-.9,-.4,-1.2c-.3,-.3,-.7,-.5,-1.1,-.5c-.3,0,-.7,.2,-1,.4c-.3,.3,-.4,.6,-.4,1c0,.2,0,.4,.2,.7c.1,.2,.3,.4,.5,.6c-.7,.2,-1.4,-.2,-2.2,-1.3c-.4,-.7,-.7,-1.5,-.7,-2.3c0,-1,.1,-1.9,.3,-2.7c.2,-.7,.6,-1.4,1,-2.1c.4,-.7,1,-1.3,1.6,-1.7c.7,-.5,1.5,-.8,2.4,-1L476.9,134Zm12.1,1.2L487.9,134H476.1l1.1,1.2h8.2v.9c-2.5,.8,-4.9,2.1,-7.3,3.7l1.5,2.3c1.7,.1,3.1,.7,4.1,1.6c.3,.3,.6,.6,.9,1c.4,.4,.6,.8,.8,1.2c.2,.3,.3,.5,.4,.7c0,.1,.1,.2,.1,.4l.7,.8V135.2H489Zm-3.6,9.4c-1,-1.8,-2.6,-3.2,-4.8,-4.1c.9,-.6,1.7,-1.1,2.5,-1.5c.8,-.4,1.6,-.7,2.3,-1v6.6ZM500,135.2L498.8,134H487.1l1.2,1.2h8.4v6.6c-1.3,-2.6,-2.8,-4,-4.5,-4c-.7,0,-1.4,.3,-2.1,.9c-.5,.5,-.8,1.2,-.8,2c0,1.5,.8,2.2,2.3,2.2c.5,0,.9,-.2,1.2,-.5c.3,-.4,.4,-.8,.4,-1.3c0,-.3,-.2,-.8,-.8,-1.5c.1,-.1,.2,-.1,.4,-.1c1.3,0,2.4,.8,3.3,2.5c.7,1.4,1,2.9,1,4.2l-.1,1.3l.9,.6V135.2H500Z" class="go_94"/>
<g clip-path="url(#c0_94)">
<path d="M1877,177.2H32.1v-5.4H768.7c43.1,0,53,-37.9,115.3,-37.9h993Z" class="gp_94"/>
<path d="M1877,183.7H32.1v-9.8H768.7c43.1,0,53,-33.6,115.3,-33.6h993Z" class="gq_94"/>
</g>
<image clip-path="url(#ci_94)" preserveAspectRatio="none" x="125" y="206" width="734" height="181" xlink:href="img/9.png"/>
<path d="M144.6,231.3c0,0,-13,0,-13,13v117c0,0,0,13,13,13H833.1c0,0,13,0,13,-13v-130Z" class="gr_94"/>
<path d="M147.7,294.1l54.1,40.8l54.1,-40.8V230h8.7V211.9H155.8c-6.5,.4,-7.7,3.9,-8.2,8.4Z" class="gs_94"/>
<path d="M274,220.3c-.3,-4.7,-4.2,-8.4,-9,-8.4c-4.8,0,-8.7,3.7,-9,8.4h-.1V230h18.2v-9.7Z" class="gj_94"/>
<path d="M255.9,230.6H846.1" class="gt_94"/>
<path d="M32.1,45.1H9.2m958.3,0h22.9M32.1,1331.3H9.2m958.3,0h22.9M45.1,32.1V9.2m0,1335.1v22.9M954.5,32.1V9.2m0,1335.1v22.9" class="gu_94"/>
<path d="M32.1,45.1H9.2m958.3,0h22.9M32.1,1331.3H9.2m958.3,0h22.9M45.1,32.1V9.2m0,1335.1v22.9M954.5,32.1V9.2m0,1335.1v22.9" class="gv_94"/>
<path d="M27.5,32.1H0m972.1,0h27.5M27.5,1344.3H0m972.1,0h27.5M32.1,27.5V0m0,1348.9v27.5M967.5,27.5V0m0,1348.9v27.5" class="gu_94"/>
<path d="M27.5,32.1H0m972.1,0h27.5M27.5,1344.3H0m972.1,0h27.5M32.1,27.5V0m0,1348.9v27.5M967.5,27.5V0m0,1348.9v27.5" class="gv_94"/>
</svg>