<?xml version="1.0" encoding="UTF-8" standalone="no"?>
<!DOCTYPE svg PUBLIC "-//W3C//DTD SVG 1.1//EN"
"http://www.w3.org/Graphics/SVG/1.1/DTD/svg11.dtd">
<svg viewBox="0 0 999 1376" version="1.1" xmlns="http://www.w3.org/2000/svg" xmlns:xlink="http://www.w3.org/1999/xlink">
<defs>
<clipPath id="c0_347"><path d="M32.1,1344.3V32.1H967.5V1344.3Z"/></clipPath>
<clipPath id="c1_347"><path d="M462.9,644V553.5h99.3V644Z"/></clipPath>
<clipPath id="c2_347"><path d="M302.9,892.9V730.7H465.2V892.9Z"/></clipPath>
<clipPath id="c3_347"><path d="M562.3,894.6V732.4H724.5V894.6Z"/></clipPath>
<clipPath id="c4_347"><path d="M304.2,1140.6V978.4H466.4v162.2Z"/></clipPath>
<clipPath id="c5_347"><path d="M562.3,1140.6V978.4H724.5v162.2Z"/></clipPath>
<clipPath id="c6_347"><path d="M198.7,330.7l-6.5,-2.1l-16.4,-14V257.5h72v73.2Z"/></clipPath>
<clipPath id="c7_347"><path d="M658.6,177V59h200V177Z"/></clipPath>
<style type="text/css"><![CDATA[
.g0_347{
fill: #FEFCF4;
}
.g1_347{
fill: #FFF;
}
.g2_347{
fill: none;
stroke: #6381B7;
stroke-width: 0.763;
}
.g3_347{
fill: none;
stroke: #949698;
stroke-width: 0.381;
}
.g4_347{
fill: none;
stroke: #949698;
stroke-width: 0.496;
}
.g5_347{
fill: #FCE8B0;
}
.g6_347{
fill: #2E6E51;
}
.g7_347{
fill: #BCBEC0;
}
.g8_347{
fill: #EE314A;
}
.g9_347{
fill: #25408F;
}
.ga_347{
fill: #6381B7;
}
.gb_347{
fill: #00BAF1;
}
.gc_347{
fill: #332D2C;
}
.gd_347{
fill: #D9DFF0;
}
.ge_347{
fill: #F27C85;
}
.gf_347{
fill: #7DD3F6;
}
.gg_347{
fill: none;
stroke: #FFF;
stroke-width: 1.909;
stroke-miterlimit: 10;
}
.gh_347{
fill: none;
stroke: #000;
stroke-width: 0.381;
stroke-miterlimit: 10;
}
]]></style>
</defs>
<path clip-path="url(#c0_347)" d="M-877.3,1343.2H45.1V32.1H-877.3V1343.2Z" class="g0_347"/>
<path d="M45.1,1344.3H967.5V32.1H45.1V1344.3Z" class="g0_347"/>
<path d="M173.1,224.1c0,0,-18.4,0,-18.4,18.3v983c0,0,0,18.3,18.4,18.3H850.2c0,0,18.3,0,18.3,-18.3V224.1Z" class="g1_347"/>
<path d="M173.1,224.1c0,0,-18.4,0,-18.4,18.3v983c0,0,0,18.3,18.4,18.3H850.2c0,0,18.3,0,18.3,-18.3V224.1H173.1Z" class="g2_347"/>
<path d="M206.9,443.3H327.4V352.7H206.9v90.6Z" class="g1_347"/>
<image preserveAspectRatio="none" x="222" y="353" width="90" height="90" xlink:href="img/1.jpg"/>
<path d="M206.9,443.3H327.4V352.7H206.9v90.6Z" class="g3_347"/>
<path d="M534.1,443.3H654.6V352.7H534.1v90.6Z" class="g1_347"/>
<image preserveAspectRatio="none" x="549" y="353" width="91" height="90" xlink:href="img/2.jpg"/>
<path d="M534.1,443.3H654.6V352.7H534.1v90.6Z" class="g3_347"/>
<path d="M370.5,443.3H491V352.7H370.5v90.6Z" class="g1_347"/>
<image preserveAspectRatio="none" x="385" y="353" width="91" height="90" xlink:href="img/3.jpg"/>
<path d="M370.5,443.3H491V352.7H370.5v90.6Z" class="g3_347"/>
<path d="M697.7,443.3H818.2V352.7H697.7v90.6Z" class="g1_347"/>
<image preserveAspectRatio="none" x="713" y="353" width="90" height="90" xlink:href="img/4.jpg"/>
<path d="M697.7,443.3H818.2V352.7H697.7v90.6Z" class="g3_347"/>
<path d="M288.7,644H409.2V553.5H288.7V644Z" class="g1_347"/>
<image preserveAspectRatio="none" x="304" y="553" width="90" height="91" xlink:href="img/5.jpg"/>
<path d="M288.7,644H409.2V553.5H288.7V644Z" class="g3_347"/>
<path d="M452.3,644H572.8V553.5H452.3V644Z" class="g1_347"/>
<image clip-path="url(#c1_347)" preserveAspectRatio="none" x="463" y="552" width="99" height="94" xlink:href="img/6.jpg"/>
<path d="M452.3,644H572.8V553.5H452.3V644Z" class="g3_347"/>
<path d="M615.9,644H736.4V553.5H615.9V644Z" class="g1_347"/>
<image preserveAspectRatio="none" x="631" y="553" width="90" height="91" xlink:href="img/7.jpg"/>
<path d="M615.9,644H736.4V553.5H615.9V644Z" class="g3_347"/>
<path d="M290,903.3H475.7V723.7H290V903.3Z" class="g1_347"/>
<image clip-path="url(#c2_347)" preserveAspectRatio="none" x="303" y="731" width="162" height="162" xlink:href="img/8.jpg"/>
<path d="M290,903.3H475.7V723.7H290V903.3Z" class="g4_347"/>
<path d="M549.1,903.3H734.9V723.7H549.1V903.3Z" class="g1_347"/>
<image clip-path="url(#c3_347)" preserveAspectRatio="none" x="562" y="732" width="163" height="163" xlink:href="img/9.jpg"/>
<path d="M549.1,903.3H734.9V723.7H549.1V903.3Z" class="g4_347"/>
<path d="M290,1149.4H475.7V969.7H290v179.7Z" class="g1_347"/>
<image clip-path="url(#c4_347)" preserveAspectRatio="none" x="304" y="978" width="162" height="163" xlink:href="img/10.jpg"/>
<path d="M290,1149.4H475.7V969.7H290v179.7Z" class="g4_347"/>
<path d="M549.1,1149.4H734.9V969.7H549.1v179.7Z" class="g1_347"/>
<image clip-path="url(#c5_347)" preserveAspectRatio="none" x="562" y="978" width="163" height="163" xlink:href="img/11.jpg"/>
<path d="M549.1,1149.4H734.9V969.7H549.1v179.7Z" class="g4_347"/>
<path d="M231.3,259.7c0,0,-13,0,-13,13v47.6c0,0,0,13,13,13h602c0,0,13,0,13,-13V272.7c0,0,0,-13,-13,-13Z" class="g5_347"/>
<image clip-path="url(#c6_347)" preserveAspectRatio="none" x="174" y="256" width="75" height="76" xlink:href="img/12.png"/>
<path d="M226.1,326c0,0,-26.9,11.3,-51.1,-12.8c0,0,15.2,25.3,49.3,24c0,0,24.7,.3,20.2,-10.1c0,0,1.3,-4.5,-18.4,-1.1Z" class="g5_347"/>
<path d="M32.1,179.3H967.5V32.1H32.1V179.3Z" class="g6_347"/>
<g clip-path="url(#c0_347)">
<path d="M967.5,177.2H-877.3v-5.4h736.6c43.1,0,53.1,-37.9,115.3,-37.9H967.5Z" class="g7_347"/>
<path d="M967.5,183.7H-877.3v-9.8h736.6c43.1,0,53.1,-33.6,115.3,-33.6H967.5Z" class="g8_347"/>
</g>
<image clip-path="url(#c7_347)" preserveAspectRatio="none" x="659" y="59" width="200" height="118" xlink:href="img/13.png"/>
<path d="M153.3,217.5v22.2L165,250V227.8Z" class="g9_347"/>
<path d="M153.3,200.7v39H851.1c0,0,16.8,0,16.8,-16.8v-5.4c0,0,0,-16.8,-16.8,-16.8Z" class="ga_347"/>
<path d="M211.3,212.1l-6.5,-6.4l-21.2,21.2l6.5,6.4Z" class="gb_347"/>
<path d="M190.1,233.9c.1,0,.3,-.1,.4,-.2l21.2,-21.2c.1,-.1,.1,-.2,.1,-.4c0,-.1,0,-.2,-.1,-.3l-6.5,-6.5c-.2,-.2,-.6,-.2,-.8,0l-21.2,21.2c-.1,.1,-.1,.2,-.1,.4c0,.1,0,.2,.1,.3l6.5,6.5c.1,.1,.3,.2,.4,.2m20.5,-21.8l-20.5,20.5l-5.8,-5.7l20.5,-20.5Z" class="gc_347"/>
<path d="M211.3,212.1l-6.5,-6.4l2.1,-2.2l6.5,6.5Z" class="gd_347"/>
<path d="M211.3,212.7c.1,0,.3,-.1,.4,-.2l2.1,-2.1c.1,-.1,.2,-.2,.2,-.4c0,-.1,-.1,-.3,-.2,-.4l-6.5,-6.4c-.2,-.3,-.5,-.3,-.7,0l-2.2,2.1c-.1,.1,-.1,.2,-.1,.4c0,.1,0,.2,.1,.3l6.5,6.5c.1,.1,.3,.2,.4,.2m1.4,-2.7l-1.4,1.4l-5.7,-5.7l1.3,-1.4Z" class="gc_347"/>
<path d="M217,206.4l-6.4,-6.5l-3.7,3.6l6.5,6.5Z" class="ge_347"/>
<path d="M213.4,210.5c.2,0,.3,0,.4,-.1l3.6,-3.6c.2,-.2,.2,-.6,0,-.8l-6.5,-6.5c-.2,-.2,-.5,-.2,-.7,0l-3.6,3.7c-.2,.2,-.2,.5,0,.7l6.5,6.5c.1,.1,.2,.1,.3,.1m2.9,-4.1l-2.9,2.9l-5.7,-5.8l2.9,-2.8Z" class="gc_347"/>
<path d="M179,238l4.6,-11.1l6.5,6.4Z" class="g1_347"/>
<path d="M179,238.5c0,0,.1,0,.2,0l11.1,-4.7c.2,0,.3,-.2,.3,-.4c0,-.1,0,-.3,-.1,-.4L184,226.5c-.1,-.1,-.3,-.2,-.5,-.1c-.2,0,-.3,.1,-.4,.3l-4.6,11.1c-.1,.2,0,.4,.1,.6c.1,.1,.2,.1,.4,.1m10.2,-5.3l-9.3,3.8l3.9,-9.2Z" class="gc_347"/>
<path d="M179,238l2.2,-5.4l3.1,3.1Z" class="gc_347"/>
<path d="M179,238.5c0,0,.1,0,.2,0l5.3,-2.3c.2,0,.3,-.2,.4,-.4c0,-.1,-.1,-.3,-.2,-.4l-3.1,-3.2c-.1,-.1,-.3,-.1,-.5,-.1c-.2,0,-.3,.2,-.4,.3l-2.2,5.4c-.1,.2,0,.4,.1,.6c.1,.1,.2,.1,.4,.1m4.4,-2.9l-3.5,1.4l1.5,-3.5Z" class="gc_347"/>
<path d="M209.5,210.4l-2.9,-3l-21.2,21.2l2.9,3Z" class="gf_347"/>
<path d="M188.3,232.1c.2,0,.3,0,.4,-.1l21.2,-21.2c.1,-.1,.2,-.3,.2,-.4c0,-.2,-.1,-.3,-.2,-.4l-3,-3c-.2,-.2,-.5,-.2,-.7,0L185,228.3c-.1,.1,-.2,.2,-.2,.3c0,.2,.1,.3,.2,.4l3,3c.1,.1,.2,.1,.3,.1m20.5,-21.7l-20.5,20.4l-2.2,-2.2l20.5,-20.4Z" class="gc_347"/>
<path d="M32.1,45.1H9.2m958.3,0h22.9M32.1,1331.3H9.2m958.3,0h22.9M45.1,32.1V9.2m0,1335.1v22.9M954.5,32.1V9.2m0,1335.1v22.9" class="gg_347"/>
<path d="M32.1,45.1H9.2m958.3,0h22.9M32.1,1331.3H9.2m958.3,0h22.9M45.1,32.1V9.2m0,1335.1v22.9M954.5,32.1V9.2m0,1335.1v22.9" class="gh_347"/>
<path d="M27.5,32.1H0m972.1,0h27.5M27.5,1344.3H0m972.1,0h27.5M32.1,27.5V0m0,1348.9v27.5M967.5,27.5V0m0,1348.9v27.5" class="gg_347"/>
<path d="M27.5,32.1H0m972.1,0h27.5M27.5,1344.3H0m972.1,0h27.5M32.1,27.5V0m0,1348.9v27.5M967.5,27.5V0m0,1348.9v27.5" class="gh_347"/>
</svg>