<?xml version="1.0" encoding="UTF-8" standalone="no"?>
<!DOCTYPE svg PUBLIC "-//W3C//DTD SVG 1.1//EN"
"http://www.w3.org/Graphics/SVG/1.1/DTD/svg11.dtd">
<svg viewBox="0 0 999 1376" version="1.1" xmlns="http://www.w3.org/2000/svg" xmlns:xlink="http://www.w3.org/1999/xlink">
<defs>
<clipPath id="c0_109"><path d="M198.2,236.4l-6.5,-2.1L175.3,220.4V163.3h72v73.1Z"/></clipPath>
<clipPath id="c1_109"><path d="M198.7,873.5l-6.5,-2.1l-16.4,-14V800.3h72v73.2Z"/></clipPath>
<clipPath id="c2_109"><path d="M786.5,132.5V120.1H801v12.4Z"/></clipPath>
<clipPath id="c3_109"><path d="M95.3,557.8v-182H294.4v182Z"/></clipPath>
<clipPath id="c4_109"><path d="M96.4,561.5v-187H292.2v187Z"/></clipPath>
<clipPath id="c5_109"><path d="M96,561.2v-187H291.8v187Z"/></clipPath>
<clipPath id="c6_109"><path d="M719,567.1V349.3H913.7V567.1Z"/></clipPath>
<clipPath id="c7_109"><path d="M716.1,568.9V345.1h203V568.9Z"/></clipPath>
<clipPath id="c8_109"><path d="M715.8,568.6V344.8h203V568.6Z"/></clipPath>
<clipPath id="c9_109"><path d="M189.1,390.8c-.3,-.1,3.5,-8.2,3.5,-8.2l.8,.5c0,0,-4,7.7,-4.3,7.7Z"/></clipPath>
<clipPath id="ca_109"><path d="M196.6,383c0,0,-6.9,-1.1,-7.6,-5.2c-.7,-3.6,1.5,-3.8,2.1,-3.8c0,0,.1,0,.1,0l8.3,-12.7L198,358.2c0,0,-.6,-1.1,.2,-2.1c0,-.1,.1,-.1,.3,-.1c2.1,0,12.9,5.5,12.9,5.5l.1,.2c-.4,.5,-.7,1.1,-1.4,1.6c-.7,.5,-5.1,1.2,-5.1,1.2L196.6,383Z"/></clipPath>
<clipPath id="cb_109"><path d="M196.2,382.7c.2,-.5,.2,-1.8,0,-2.3V379c-1.6,-.5,-2.9,-1.2,-3.7,-2.5c-1.1,.6,-2.1,1.3,-3.1,1.9c1.5,2.1,3.8,3.6,6.8,4.3Zm0,-3.9c2.2,-4.6,3.9,-9.5,6.1,-14.1c-.9,-.4,-1.8,-1.3,-2.6,-1.4c-2.3,4.4,-4.6,8.7,-7.1,12.9c.8,1.3,2.1,2,3.6,2.6Zm-7.3,12.1v0c1,-2.9,2.4,-5.5,3.5,-8.3c-2,-1.6,-3.9,-3.1,-4.4,-6.2v-1.5c-.1,-2.7,1.9,-3.4,4.5,-3.4c.1,0,.2,0,.3,0c1.9,-3.3,4.2,-6.3,6.1,-9.7c-.5,-.8,-1.1,-2.3,-.9,-3.6c.6,1.2,1.7,1.9,2.4,2.9c-.1,.6,-.3,1.1,-.3,1.7c.5,.7,1.3,1.2,2.3,1.4c.5,-.4,.6,-1.2,1.2,-1.5c.9,.4,1.8,.8,3.1,.8c.1,.1,.5,.1,.8,.1c.4,0,.7,0,.8,-.1c.2,0,.3,0,.4,0c.2,0,.4,-.1,.6,-.1c.2,-.1,.3,-.2,.5,-.2c.1,0,.2,.1,.3,.1c-1.3,.7,-2.2,1.8,-4.2,1.8c-.1,0,-.2,0,-.3,0c-.9,3.7,-1.9,7.4,-2.7,11.2c.6,1,1.5,1.7,1.3,3.1c-.5,2.7,-3.9,4.4,-7.2,4.4c-1.3,0,-2.5,-.2,-3.6,-.7c-1,2.1,-2.1,4.1,-3.3,6c0,-.4,.3,-.4,.3,-.8c.9,-1.8,1.9,-3.5,2.6,-5.6c-1,1.7,-1.8,3.7,-2.7,5.5c-.3,.4,-.5,.9,-.7,1.3c-.3,.4,-.3,1.1,-.7,1.4Z"/></clipPath>
<clipPath id="cc_109"><path d="M206.6,363.1c-4.8,0,-13.1,-7.3,-5.5,-8.8h1.2c.2,0,.3,0,.5,0q.1,0,.2,0q.1,0,.2,0c.2,0,.5,0,.9,.1c3.1,.7,8.2,3.8,7.5,7c-.2,1.2,-1.5,1.6,-3.1,1.7h-1.8c0,0,-.1,0,-.1,0Z"/></clipPath>
<clipPath id="cd_109"><path d="M825.2,362.6c-.2,-.1,3.6,-8.2,3.6,-8.2l.8,.5c0,0,-4.1,7.7,-4.4,7.7Z"/></clipPath>
<clipPath id="ce_109"><path d="M832.7,354.9c0,0,-6.8,-1.1,-7.5,-5.2c-.7,-3.6,1.5,-3.9,2,-3.9c.1,0,.2,0,.2,0l8.3,-12.7L834.2,330c0,0,-.6,-1.1,.2,-2.1c0,0,.1,0,.3,0c2.1,0,12.9,5.5,12.9,5.5l.1,.1c-.4,.6,-.8,1.2,-1.4,1.7c-.7,.5,-5.1,1.1,-5.1,1.1l-8.5,18.6Z"/></clipPath>
<clipPath id="cf_109"><path d="M832.3,354.5c.2,-.4,.2,-1.8,0,-2.2v-1.4c-1.5,-.5,-2.8,-1.2,-3.6,-2.5c-1.1,.6,-2.1,1.2,-3.2,1.9c1.6,2.1,3.9,3.5,6.8,4.2Zm0,-3.9c2.2,-4.5,4,-9.5,6.2,-14c-.9,-.4,-1.9,-1.3,-2.6,-1.4c-2.3,4.3,-4.6,8.6,-7.1,12.8c.7,1.3,2.1,2,3.5,2.6ZM825,362.7v0c1.1,-2.9,2.5,-5.5,3.6,-8.3c-2,-1.5,-4,-3.1,-4.4,-6.1v-1.6c-.1,-2.6,1.9,-3.3,4.5,-3.3c.1,0,.2,0,.2,0c2,-3.4,4.3,-6.4,6.2,-9.7c-.6,-.9,-1.2,-2.4,-.9,-3.7c.5,1.3,1.6,1.9,2.4,2.9c-.1,.6,-.3,1.2,-.4,1.8c.6,.7,1.4,1.2,2.4,1.4c.5,-.5,.5,-1.3,1.2,-1.5c.9,.3,1.8,.7,3.1,.7c.1,.1,.5,.2,.8,.2c.4,0,.7,-.1,.8,-.2c.1,0,.2,.1,.3,.1c.3,0,.5,-.1,.6,-.2c.2,0,.4,-.1,.6,-.1c.1,0,.2,0,.3,.1c-1.3,.6,-2.2,1.8,-4.2,1.8c-.1,0,-.2,0,-.3,-.1c-.9,3.8,-1.9,7.4,-2.7,11.2c.6,1.1,1.5,1.7,1.3,3.2c-.5,2.7,-3.9,4.4,-7.2,4.4c-1.3,0,-2.5,-.3,-3.6,-.8c-1,2.1,-2.1,4.1,-3.3,6c0,-.3,.3,-.3,.3,-.7c.9,-1.8,1.9,-3.6,2.6,-5.7c-1.1,1.8,-1.8,3.7,-2.8,5.6c-.2,.4,-.4,.8,-.6,1.2c-.3,.4,-.3,1.2,-.8,1.4Z"/></clipPath>
<clipPath id="cg_109"><path d="M842.8,334.9c-4.8,0,-13.1,-7.3,-5.6,-8.8h1.3c.2,.1,.3,.1,.5,.1q.1,0,.2,0c.3,0,.7,0,1.1,.1c3,.6,8.2,3.8,7.5,7c-.2,1.2,-1.6,1.6,-3.1,1.6h-1.8c0,0,-.1,0,-.1,0Z"/></clipPath>
<style type="text/css"><![CDATA[
.g0_109{
fill: #FEFCF4;
}
.g1_109{
fill: #FFF;
}
.g2_109{
fill: none;
stroke: #6381B7;
stroke-width: 0.763;
}
.g3_109{
fill: #FCE8B0;
}
.g4_109{
fill: #6381B7;
}
.g5_109{
fill: none;
stroke: #6381B7;
stroke-width: 0.381;
stroke-dasharray: 2,1;
}
.g6_109{
fill: none;
stroke: #6381B7;
stroke-width: 0.381;
}
.g7_109{
fill: #25408F;
}
.g8_109{
fill: #A8AAAD;
}
.g9_109{
fill: none;
stroke: #949698;
stroke-width: 0.549;
}
.ga_109{
fill: none;
stroke: #BCBEC0;
stroke-width: 2.566;
}
.gb_109{
fill: #231F20;
}
.gc_109{
fill: #363637;
}
.gd_109{
fill: #5CC4BE;
}
.ge_109{
fill: #F0D73F;
}
.gf_109{
fill: none;
stroke: #00ABE5;
stroke-width: 2.291;
}
.gg_109{
fill: #3D3B39;
}
.gh_109{
fill: #E5E9B7;
}
.gi_109{
fill: #61C7CB;
}
.gj_109{
fill: none;
stroke: #00ABE5;
stroke-width: 1.527;
stroke-linecap: round;
stroke-linejoin: round;
stroke-dasharray: 0,5;
}
.gk_109{
fill: none;
stroke: #00ABE5;
stroke-width: 1.527;
stroke-linecap: round;
stroke-linejoin: round;
}
.gl_109{
fill: #F499C2;
}
.gm_109{
fill: #FDF4F3;
}
.gn_109{
fill: #EC008C;
}
.go_109{
fill: none;
stroke: #949698;
stroke-width: 0.305;
stroke-dasharray: 3,3;
}
.gp_109{
fill: none;
stroke: #949698;
stroke-width: 0.305;
}
.gq_109{
fill: none;
stroke: #949698;
stroke-width: 0.305;
stroke-dasharray: 4,4;
}
.gr_109{
fill: #818385;
}
.gs_109{
fill: #6D6F71;
}
.gt_109{
fill: none;
stroke: #FFF;
stroke-width: 1.909;
stroke-miterlimit: 10;
}
.gu_109{
fill: none;
stroke: #000;
stroke-width: 0.381;
stroke-miterlimit: 10;
}
]]></style>
</defs>
<path d="M45.1,1344.3H967.5V32.1H45.1V1344.3Z" class="g0_109"/>
<path d="M171.6,132.1c0,0,-18.3,0,-18.3,18.3V753.1c0,0,0,18.3,18.3,18.3H848.7c0,0,18.4,0,18.4,-18.3v-621Z" class="g1_109"/>
<path d="M171.6,132.1c0,0,-18.3,0,-18.3,18.3V753.1c0,0,0,18.3,18.3,18.3H848.7c0,0,18.4,0,18.4,-18.3v-621H171.6Z" class="g2_109"/>
<path d="M230.8,165.5c0,0,-13,0,-13,13v47.6c0,0,0,13,13,13h602c0,0,13,0,13,-13V178.5c0,0,0,-13,-13,-13Z" class="g3_109"/>
<image clip-path="url(#c0_109)" preserveAspectRatio="none" x="174" y="162" width="75" height="76" xlink:href="img/1.png"/>
<path d="M225.6,231.7c0,0,-26.8,11.3,-51.1,-12.7c0,0,15.2,25.3,49.3,23.9c0,0,24.8,.4,20.3,-10.1c0,0,1.2,-4.4,-18.5,-1.1Z" class="g3_109"/>
<path d="M166.3,791.3c0,0,-13,0,-13,13V937.8c0,0,0,13,13,13H854.1c0,0,13,0,13,-13V804.3c0,0,0,-13,-13,-13Z" class="g1_109"/>
<path d="M166.3,791.3c0,0,-13,0,-13,13V937.8c0,0,0,13,13,13H854.1c0,0,13,0,13,-13V804.3c0,0,0,-13,-13,-13H166.3Z" class="g2_109"/>
<path d="M447.7,965.9c0,0,-4.4,0,-4.4,4.3v10.9c0,0,0,4.3,4.4,4.3H478c0,0,4.3,0,4.3,-4.3V970.2c0,0,0,-4.3,-4.3,-4.3Z" class="g4_109"/>
<path d="M434.5,958.4v34.9m1.3,.9H866.3m1,-1.3V958m-1.4,-.9H435.4" class="g5_109"/>
<path d="M434.5,993.7v.5h.5m431.7,0h.6v-.5m0,-36.1v-.5h-.6m-431.7,0h-.5v.5" class="g6_109"/>
<path d="M231.4,828.5c0,0,-13,0,-13,13v21.6c0,0,0,13,13,13H833.3c0,0,13,0,13,-13V841.5c0,0,0,-13,-13,-13Z" class="g3_109"/>
<image clip-path="url(#c1_109)" preserveAspectRatio="none" x="174" y="799" width="75" height="76" xlink:href="img/2.png"/>
<path d="M226.2,868.8c0,0,-26.9,11.3,-51.2,-12.8c0,0,15.2,25.3,49.3,24c0,0,24.8,.3,20.3,-10.1c0,0,1.2,-4.5,-18.4,-1.1Z" class="g3_109"/>
<path d="M153.3,111.9v39L165,161.2V117Z" class="g7_109"/>
<path d="M153.3,111.9v39H851.1c0,0,16.8,0,16.8,-16.8v-5.3c0,0,0,-16.9,-16.8,-16.9Z" class="g4_109"/>
<path d="M802.6,145.6c8.2,0,14.9,-6.5,14.9,-14.5c0,-8.1,-6.7,-14.5,-14.9,-14.5c-8.2,0,-14.9,6.4,-14.9,14.5c0,8,6.7,14.5,14.9,14.5Z" class="g8_109"/>
<path d="M802.6,145.6c8.2,0,14.9,-6.5,14.9,-14.5c0,-8.1,-6.7,-14.5,-14.9,-14.5c-8.2,0,-14.9,6.4,-14.9,14.5c0,8,6.7,14.5,14.9,14.5Z" class="g9_109"/>
<path d="M802.6,136.4c3,0,5.5,-2.4,5.5,-5.3c0,-3,-2.5,-5.4,-5.5,-5.4c-3,0,-5.5,2.4,-5.5,5.4c0,2.9,2.5,5.3,5.5,5.3Z" class="g1_109"/>
<path d="M802.6,136.4c3,0,5.5,-2.4,5.5,-5.3c0,-3,-2.5,-5.4,-5.5,-5.4c-3,0,-5.5,2.4,-5.5,5.4c0,2.9,2.5,5.3,5.5,5.3Z" class="ga_109"/>
<g clip-path="url(#c2_109)" opacity="0.3">
<path d="M788,130.3c0,0,0,-4.8,3.7,-8.7l7.7,6.8c0,0,-1,.9,-1,2.6Z" class="g1_109"/>
</g>
<path d="M807.2,131c0,0,-3.5,0,-3.5,3.4v8.7c0,0,0,3.5,3.5,3.5h43.5c0,0,3.5,0,3.5,-3.5v-8.7c0,0,0,-3.4,-3.5,-3.4Z" class="gb_109"/>
<path d="M191.2,122c0,-8.3,-6.8,-15,-15.1,-15c-8.3,0,-15,6.7,-15,15c0,8.3,6.7,15.1,15,15.1c.8,0,1.7,-.1,2.4,-.2l4.5,5.2v-6.7c4.9,-2.5,8.2,-7.6,8.2,-13.4Z" class="g1_109"/>
<path d="M183.5,143.3l-5.1,-5.9c-.8,.1,-1.5,.1,-2.3,.1c-8.5,0,-15.5,-6.9,-15.5,-15.5c0,-8.5,7,-15.5,15.5,-15.5c8.6,0,15.5,7,15.5,15.5c0,5.7,-3.1,11,-8.1,13.7Zm-4.8,-6.9l3.9,4.5v-5.8l.2,-.1c4.9,-2.5,7.9,-7.5,7.9,-13c0,-8,-6.5,-14.6,-14.6,-14.6c-8,0,-14.6,6.6,-14.6,14.6c0,8.1,6.6,14.6,14.6,14.6c.8,0,1.6,-.1,2.4,-.2Z" class="gc_109"/>
<path d="M169.1,121.6c.8,0,1.4,.6,1.4,1.4c0,.8,-.6,1.5,-1.4,1.5c-.8,0,-1.4,-.7,-1.4,-1.5c0,-.8,.6,-1.4,1.4,-1.4Z" class="gd_109"/>
<path d="M169.1,124.9c-1,0,-1.9,-.8,-1.9,-1.9c0,-1,.9,-1.9,1.9,-1.9c1,0,1.9,.9,1.9,1.9c0,1.1,-.9,1.9,-1.9,1.9m0,-2.9c-.5,0,-1,.5,-1,1c0,.6,.5,1,1,1c.5,0,1,-.4,1,-1c0,-.5,-.5,-1,-1,-1Z" class="gc_109"/>
<path d="M176.1,121.6c.8,0,1.5,.6,1.5,1.4c0,.8,-.7,1.5,-1.5,1.5c-.8,0,-1.4,-.7,-1.4,-1.5c0,-.8,.6,-1.4,1.4,-1.4Z" class="gd_109"/>
<path d="M176.1,124.9c-1,0,-1.9,-.8,-1.9,-1.9c0,-1,.9,-1.9,1.9,-1.9c1.1,0,1.9,.9,1.9,1.9c0,1.1,-.8,1.9,-1.9,1.9m0,-2.9c-.5,0,-1,.5,-1,1c0,.6,.5,1,1,1c.6,0,1,-.4,1,-1c0,-.5,-.4,-1,-1,-1Z" class="gc_109"/>
<path d="M183.1,121.6c.8,0,1.5,.6,1.5,1.4c0,.8,-.7,1.5,-1.5,1.5c-.8,0,-1.4,-.7,-1.4,-1.5c0,-.8,.6,-1.4,1.4,-1.4Z" class="gd_109"/>
<path d="M183.1,124.9c-1,0,-1.9,-.8,-1.9,-1.9c0,-1,.9,-1.9,1.9,-1.9c1.1,0,1.9,.9,1.9,1.9c0,1.1,-.8,1.9,-1.9,1.9m0,-2.9c-.5,0,-1,.5,-1,1c0,.6,.5,1,1,1c.6,0,1,-.4,1,-1c0,-.5,-.4,-1,-1,-1Z" class="gc_109"/>
<path d="M185.1,136.3c0,-9.8,7.8,-17.7,17.6,-17.7c9.7,0,17.6,7.9,17.6,17.7c0,9.7,-7.9,17.6,-17.6,17.6c-1,0,-1.9,-.1,-2.9,-.3l-5.2,6.1v-7.8c-5.7,-2.9,-9.5,-8.8,-9.5,-15.6Z" class="ge_109"/>
<path d="M194.6,160.2q-.1,0,-.2,0c-.2,-.1,-.3,-.3,-.3,-.5v-7.5c-5.9,-3.2,-9.5,-9.2,-9.5,-15.9c0,-10,8.1,-18.1,18.1,-18.1c9.9,0,18,8.1,18,18.1c0,9.9,-8.1,18,-18,18c-.9,0,-1.8,0,-2.7,-.2l-5.1,5.9c-.1,.1,-.2,.2,-.3,.2m8.1,-41.1c-9.5,0,-17.2,7.7,-17.2,17.2c0,6.4,3.6,12.2,9.3,15.2c.1,.1,.2,.2,.2,.4v6.6l4.5,-5.2c.1,-.1,.3,-.1,.4,-.1c1,.1,1.9,.2,2.8,.2c9.4,0,17.1,-7.7,17.1,-17.1c0,-9.5,-7.7,-17.2,-17.1,-17.2Z" class="gc_109"/>
<path d="M210.9,135.8c.9,0,1.6,.7,1.6,1.6c0,1,-.7,1.7,-1.6,1.7c-1,0,-1.7,-.7,-1.7,-1.7c0,-.9,.7,-1.6,1.7,-1.6Z" class="g1_109"/>
<path d="M210.9,139.6c-1.2,0,-2.2,-1,-2.2,-2.2c0,-1.1,1,-2.1,2.2,-2.1c1.1,0,2.1,1,2.1,2.1c0,1.2,-1,2.2,-2.1,2.2m0,-3.4c-.7,0,-1.3,.6,-1.3,1.2c0,.7,.6,1.3,1.3,1.3c.6,0,1.2,-.6,1.2,-1.3c0,-.6,-.6,-1.2,-1.2,-1.2Z" class="gc_109"/>
<path d="M202.7,135.8c.9,0,1.6,.7,1.6,1.6c0,1,-.7,1.7,-1.6,1.7c-1,0,-1.7,-.7,-1.7,-1.7c0,-.9,.7,-1.6,1.7,-1.6Z" class="g1_109"/>
<path d="M202.7,139.6c-1.2,0,-2.2,-1,-2.2,-2.2c0,-1.1,1,-2.1,2.2,-2.1c1.1,0,2.1,1,2.1,2.1c0,1.2,-1,2.2,-2.1,2.2m0,-3.4c-.7,0,-1.3,.6,-1.3,1.2c0,.7,.6,1.3,1.3,1.3c.6,0,1.2,-.6,1.2,-1.3c0,-.6,-.6,-1.2,-1.2,-1.2Z" class="gc_109"/>
<path d="M194.5,135.8c.9,0,1.6,.7,1.6,1.6c0,1,-.7,1.7,-1.6,1.7c-1,0,-1.7,-.7,-1.7,-1.7c0,-.9,.7,-1.6,1.7,-1.6Z" class="g1_109"/>
<path d="M194.5,139.6c-1.2,0,-2.2,-1,-2.2,-2.2c0,-1.1,1,-2.1,2.2,-2.1c1.1,0,2.1,1,2.1,2.1c0,1.2,-1,2.2,-2.1,2.2m0,-3.4c-.7,0,-1.2,.6,-1.2,1.2c0,.7,.5,1.3,1.2,1.3c.6,0,1.2,-.6,1.2,-1.3c0,-.6,-.6,-1.2,-1.2,-1.2Z" class="gc_109"/>
<path d="M154.4,1083.1v-28.7c0,0,0,-4.3,4.3,-4.3H862.3c0,0,4.3,0,4.3,4.3v29.2" class="gf_109"/>
<path d="M199.9,1050.6c2.7,0,4.8,-2.1,4.8,-4.8c0,-2.6,-2.1,-4.8,-4.8,-4.8c-2.6,0,-4.8,2.2,-4.8,4.8c0,2.7,2.2,4.8,4.8,4.8Z" class="g1_109"/>
<path d="M199.9,1052.5c3.7,0,6.7,-3,6.7,-6.7c0,-3.7,-3,-6.7,-6.7,-6.7c-3.7,0,-6.7,3,-6.7,6.7c0,3.7,3,6.7,6.7,6.7m0,-11.5c2.7,0,4.8,2.2,4.8,4.8c0,2.7,-2.1,4.8,-4.8,4.8c-2.6,0,-4.8,-2.1,-4.8,-4.8c0,-2.6,2.2,-4.8,4.8,-4.8Z" class="gg_109"/>
<path d="M205.3,1054.4H194.5c-.2,0,-.3,0,-.5,.1c2.8,1,5,3.3,5.9,6.1c1.4,-.5,2.8,-.8,4.3,-.8c2.8,0,5.4,1,7.5,2.7v-1.7c0,-3.5,-2.9,-6.4,-6.4,-6.4Z" class="g1_109"/>
<path d="M183.9,1051.5c3.3,0,6.1,-2.8,6.1,-6.2c0,-3.4,-2.8,-6.1,-6.1,-6.1c-3.4,0,-6.2,2.7,-6.2,6.1c0,3.4,2.8,6.2,6.2,6.2Z" class="gh_109"/>
<path d="M183.9,1053.3c4.4,0,8,-3.6,8,-8c0,-4.4,-3.6,-8,-8,-8c-4.5,0,-8.1,3.6,-8.1,8c0,4.4,3.6,8,8.1,8m0,-14.1c3.3,0,6.1,2.7,6.1,6.1c0,3.4,-2.8,6.2,-6.1,6.2c-3.4,0,-6.2,-2.8,-6.2,-6.2c0,-3.4,2.8,-6.1,6.2,-6.1Z" class="gg_109"/>
<path d="M198.2,1061.5c-1,-3.4,-4,-5.8,-7.7,-5.8H177.2c-4.4,0,-8,3.6,-8,8v4.3h23.7c.9,-2.8,2.8,-5.1,5.3,-6.5Z" class="gh_109"/>
<path d="M204.2,1061.7c-5.5,0,-10,4.5,-10,10c0,5.5,4.5,10,10,10c5.5,0,10,-4.5,10,-10c0,-5.5,-4.5,-10,-10,-10m6.7,11.7c0,.3,-.2,.5,-.5,.5h-4.1v4c0,.3,-.2,.5,-.4,.5h-3.4c-.2,0,-.5,-.2,-.5,-.5v-4h-4c-.3,0,-.5,-.2,-.5,-.5V1070c0,-.2,.2,-.4,.5,-.4h4v-4.1c0,-.2,.3,-.5,.5,-.5h3.4c.2,0,.4,.3,.4,.5v4.1h4.1c.3,0,.5,.2,.5,.4Z" class="gi_109"/>
<path d="M213.6,1064.4v-3.6c0,-4.6,-3.7,-8.3,-8.3,-8.3H194.5c-1.6,0,-3.1,.5,-4.4,1.3H177.2c-5.5,0,-9.9,4.4,-9.9,9.9v5.3c0,.5,.4,.9,.9,.9h24.3c-.1,.6,-.2,1.2,-.2,1.8c0,6.6,5.4,11.9,11.9,11.9c6.5,0,11.9,-5.3,11.9,-11.9c0,-2.7,-1,-5.3,-2.5,-7.3m-9.4,17.3c-5.5,0,-10,-4.5,-10,-10c0,-5.5,4.5,-10,10,-10c5.5,0,10,4.5,10,10c0,5.5,-4.5,10,-10,10m-35,-18c0,-4.4,3.6,-8,8,-8h13.3c3.7,0,6.7,2.4,7.7,5.8c-2.5,1.4,-4.4,3.7,-5.3,6.5H169.2Zm42.5,-1.2c-2.1,-1.7,-4.7,-2.7,-7.5,-2.7c-1.5,0,-2.9,.3,-4.3,.8c-.9,-2.8,-3.1,-5.1,-5.9,-6.1c.2,-.1,.3,-.1,.5,-.1h10.8c3.5,0,6.4,2.9,6.4,6.4Z" class="gg_109"/>
<path d="M205.4,1070v-4H203v4c0,.3,-.2,.5,-.5,.5h-4v2.4h4c.3,0,.5,.2,.5,.5v4h2.4v-4c0,-.3,.2,-.5,.5,-.5h4v-2.4h-4c-.3,0,-.5,-.2,-.5,-.5Z" class="g1_109"/>
<path d="M210.4,1069.6h-4.1v-4.1c0,-.2,-.2,-.5,-.4,-.5h-3.4c-.2,0,-.5,.3,-.5,.5v4.1h-4c-.3,0,-.5,.2,-.5,.4v3.4c0,.3,.2,.5,.5,.5h4v4c0,.3,.3,.5,.5,.5h3.4c.2,0,.4,-.2,.4,-.5v-4h4.1c.3,0,.5,-.2,.5,-.5V1070c0,-.2,-.2,-.4,-.5,-.4m-.5,3.3h-4c-.3,0,-.5,.2,-.5,.5v4H203v-4c0,-.3,-.2,-.5,-.5,-.5h-4v-2.4h4c.3,0,.5,-.2,.5,-.5v-4h2.4v4c0,.3,.2,.5,.5,.5h4Z" class="gg_109"/>
<path d="M154,1093.2v148.4m4.5,2.3H864.7m2.3,-4.5V1091m-4.6,-2.3H156.3" class="gj_109"/>
<path d="M154,1243.9v0m713,0v0m0,-155.2v0m-713,0v0" class="gk_109"/>
<image clip-path="url(#c3_109)" preserveAspectRatio="none" x="95" y="376" width="199" height="182" xlink:href="img/3.png"/>
<path d="M104.5,381l-3.9,167.5l184.5,3.3l3.2,-167.6Z" class="gl_109"/>
<image clip-path="url(#c4_109)" preserveAspectRatio="none" x="96" y="375" width="196" height="187" xlink:href="img/4.png"/>
<image clip-path="url(#c5_109)" preserveAspectRatio="none" x="95" y="375" width="197" height="186" xlink:href="img/5.png"/>
<path d="M100.8,386.7l7.8,168.6L252.8,549l33,-21.9L278.9,379Z" class="gm_109"/>
<path d="M253,548.6l32.3,-20.9l-28.5,-.5Z" class="gn_109"/>
<path d="M381.2,380.2c8.5,-1.2,15.1,-5.9,16.8,-11.8m-.5,-7.1c-2.4,-5.6,-9.3,-9.9,-17.8,-10.7m-7.2,.2c-8.5,1.2,-15.1,5.9,-16.8,11.9m.5,7c2.4,5.6,9.3,9.9,17.8,10.7" class="go_109"/>
<path d="M398.3,366.9c0,-.4,.1,-.9,.1,-1.4c0,-.5,-.1,-1,-.1,-1.4m-20,-13.6c-.5,0,-1,0,-1.4,0c-.5,0,-1,0,-1.5,0m-20,13.6c0,.4,0,.9,0,1.4c0,.5,0,1,0,1.4m20,13.6c.5,0,1,0,1.5,0c.4,0,.9,0,1.4,0" class="gp_109"/>
<path d="M368.9,346C356.3,339.4,314,320.3,253.4,321.6" class="gq_109"/>
<path d="M246,322.2c-5.9,1.2,-2.1,4.6,1.5,5.9" class="go_109"/>
<path d="M253.2,324.9c1,-3.9,-1.1,-9.6,-12.2,-9.1m-7.8,1c-48.3,7.7,-81.4,36.5,-103.7,69.5" class="gq_109"/>
<path d="M372.9,348.2c0,0,-.4,-.3,-1.3,-.8M251.9,321.7c-.5,0,-1,0,-1.5,0c-.6,0,-1,.1,-1.5,.1m0,6.6c.5,.1,1,.2,1.5,.1c.4,0,.9,-.3,1.4,-.8M239.4,315.9c-.5,.1,-1,.1,-1.6,.2c-.5,.1,-1,.1,-1.5,.2M128.6,387.6c-.2,.5,-.5,.9,-.8,1.3" class="gp_109"/>
<path d="M135.2,386L128,380.9l-2.8,11.9Z" class="gr_109"/>
<image clip-path="url(#c6_109)" preserveAspectRatio="none" x="719" y="350" width="195" height="217" xlink:href="img/6.png"/>
<path d="M726.2,354.5l-2,202.6l182.9,3.7l.2,-203Z" class="gl_109"/>
<image clip-path="url(#c7_109)" preserveAspectRatio="none" x="716" y="345" width="203" height="224" xlink:href="img/7.png"/>
<image clip-path="url(#c8_109)" preserveAspectRatio="none" x="716" y="345" width="202" height="224" xlink:href="img/8.png"/>
<path d="M732.1,349.5L720.7,552.3l147.7,10.2L902.7,541L912.9,361.5Z" class="gm_109"/>
<path d="M867.9,563.3L903.2,541l-14.5,-9.7Z" class="gn_109"/>
<path d="M407.8,434.2c21.7,-.7,39.4,-5.7,43.4,-12.2" class="go_109"/>
<path d="M449.9,414.8c-1,-1,-2.4,-2,-4.1,-2.9" class="gq_109"/>
<path d="M438.8,408.9c-8.3,-2.7,-19.8,-4.4,-32.6,-4.7m-7.4,.1c-21.7,.6,-39.3,5.6,-43.3,12.1m.9,6.8c5.4,6.1,22.9,10.6,43.9,11" class="go_109"/>
<path d="M451.8,420.7c.1,-.5,.2,-1,.2,-1.5c0,-.5,-.1,-1.1,-.3,-1.6m-7.3,-6.5c-.5,-.2,-1,-.4,-1.6,-.7c-.4,-.1,-.8,-.3,-1.3,-.5m-36.8,-5.7c-.4,0,-.9,0,-1.4,0c-.5,0,-1,0,-1.5,0m-47,13.5c-.1,.5,-.2,1,-.2,1.5c0,.5,.1,1,.2,1.5m47,13.5c.5,0,1,0,1.5,0c.5,0,1,0,1.5,0" class="gp_109"/>
<path d="M398.2,404.4c0,0,165.9,-61.4,331.8,-26.8" class="gq_109"/>
<path d="M727.4,372.3l-3.4,8.1l12.1,.3Z" class="gs_109"/>
<image clip-path="url(#c9_109)" x="188" y="382" width="6" height="9" xlink:href="shade/1.png"/>
<image clip-path="url(#ca_109)" x="188" y="355" width="24" height="29" xlink:href="shade/2.png"/>
<image clip-path="url(#cb_109)" x="187" y="358" width="24" height="33" xlink:href="shade/3.png"/>
<image clip-path="url(#cc_109)" x="193" y="354" width="20" height="10" xlink:href="shade/4.png"/>
<image clip-path="url(#cd_109)" x="824" y="354" width="6" height="9" xlink:href="shade/5.png"/>
<image clip-path="url(#ce_109)" x="824" y="327" width="24" height="28" xlink:href="shade/6.png"/>
<image clip-path="url(#cf_109)" x="824" y="330" width="23" height="33" xlink:href="shade/7.png"/>
<image clip-path="url(#cg_109)" x="829" y="326" width="20" height="10" xlink:href="shade/8.png"/>
<path d="M32.1,45.1H9.2m958.3,0h22.9M32.1,1331.3H9.2m958.3,0h22.9M45.1,32.1V9.2m0,1335.1v22.9M954.5,32.1V9.2m0,1335.1v22.9" class="gt_109"/>
<path d="M32.1,45.1H9.2m958.3,0h22.9M32.1,1331.3H9.2m958.3,0h22.9M45.1,32.1V9.2m0,1335.1v22.9M954.5,32.1V9.2m0,1335.1v22.9" class="gu_109"/>
<path d="M27.5,32.1H0m972.1,0h27.5M27.5,1344.3H0m972.1,0h27.5M32.1,27.5V0m0,1348.9v27.5M967.5,27.5V0m0,1348.9v27.5" class="gt_109"/>
<path d="M27.5,32.1H0m972.1,0h27.5M27.5,1344.3H0m972.1,0h27.5M32.1,27.5V0m0,1348.9v27.5M967.5,27.5V0m0,1348.9v27.5" class="gu_109"/>
</svg>