<?xml version="1.0" encoding="UTF-8" standalone="no"?>
<!DOCTYPE svg PUBLIC "-//W3C//DTD SVG 1.1//EN"
"http://www.w3.org/Graphics/SVG/1.1/DTD/svg11.dtd">
<svg viewBox="0 0 999 1376" version="1.1" xmlns="http://www.w3.org/2000/svg" xmlns:xlink="http://www.w3.org/1999/xlink">
<defs>
<clipPath id="c0_63"><path d="M32.1,1344.3V32.1H967.5V1344.3Z"/></clipPath>
<clipPath id="c1_63"><path d="M221.6,829.2V725.5H331V829.2Z"/></clipPath>
<clipPath id="c2_63"><path d="M221.6,700.2V596.5H331V700.2Z"/></clipPath>
<clipPath id="c3_63"><path d="M207.6,474.9l-6.5,-2.2L184.7,458.8V401.7h72v73.2Z"/></clipPath>
<clipPath id="c4_63"><path d="M197.8,1054.4l-6.5,-2.1l-16.4,-13.9V981.3h72v73.1Z"/></clipPath>
<clipPath id="c5_63"><path d="M200.1,137.2c.1,-1.3,.7,-2.5,1.6,-3.4c1,-1,2.3,-1.6,3.9,-1.6h19.2v5Z"/></clipPath>
<clipPath id="c6_63"><path d="M199.5,137.7v-6h25.8v6Z"/></clipPath>
<style type="text/css"><![CDATA[
.g0_63{
fill: #FEFCF4;
}
.g1_63{
fill: #FEFBEE;
}
.g2_63{
fill: none;
stroke: #6381B7;
stroke-width: 0.763;
}
.g3_63{
fill: none;
stroke: #231F20;
stroke-width: 0.381;
stroke-miterlimit: 10;
}
.g4_63{
fill: #DEF1F3;
}
.g5_63{
fill: #FFF;
}
.g6_63{
fill: none;
stroke: #231F20;
stroke-width: 0.305;
stroke-miterlimit: 10;
}
.g7_63{
fill: #6381B7;
}
.g8_63{
fill: none;
stroke: #6381B7;
stroke-width: 0.381;
stroke-dasharray: 2,1;
}
.g9_63{
fill: none;
stroke: #6381B7;
stroke-width: 0.381;
}
.ga_63{
fill: #FCE8B0;
}
.gb_63{
fill: #25408F;
}
.gc_63{
fill: none;
stroke: #231F20;
stroke-width: 1.527;
}
.gd_63{
fill: #39B4D1;
stroke: #2D2A4A;
stroke-width: 1.038;
stroke-linecap: round;
stroke-linejoin: round;
}
.ge_63{
fill: #2D2A4A;
}
.gf_63{
fill: none;
stroke: #2D2A4A;
stroke-width: 1.038;
stroke-linecap: round;
stroke-linejoin: round;
}
.gg_63{
fill: #DEDAD3;
}
.gh_63{
fill: #29263F;
}
.gi_63{
fill: #E15F46;
stroke: #2D2A4A;
stroke-width: 1.038;
stroke-linecap: round;
stroke-linejoin: round;
}
.gj_63{
fill: none;
stroke: #FFF;
stroke-width: 1.909;
stroke-miterlimit: 10;
}
.gk_63{
fill: none;
stroke: #000;
stroke-width: 0.381;
stroke-miterlimit: 10;
}
]]></style>
</defs>
<path clip-path="url(#c0_63)" d="M-877.3,1344.3H45.1V32.1H-877.3V1344.3Z" class="g0_63"/>
<path d="M166.7,963.6c0,0,-13,0,-13,13v169.2c0,0,0,13,13,13H854.5c0,0,13,0,13,-13V976.6c0,0,0,-13,-13,-13Z" class="g1_63"/>
<path d="M166.7,963.6c0,0,-13,0,-13,13v169.2c0,0,0,13,13,13H854.5c0,0,13,0,13,-13V976.6c0,0,0,-13,-13,-13H166.7Z" class="g2_63"/>
<path d="M322.6,1091.3H679.3m-369.6,48.9H679.3" class="g3_63"/>
<path d="M170.7,166.3c0,0,-17.4,0,-17.4,17.4V309.8c0,0,0,17.3,17.4,17.3H850.6c0,0,17.3,0,17.3,-17.3V183.7c0,0,0,-17.4,-17.3,-17.4Z" class="g4_63"/>
<path d="M162,500c0,0,-8.5,0,-8.5,8.4V846.3c0,0,0,8.5,8.5,8.5H859.3c0,0,8.5,0,8.5,-8.5V508.4c0,0,0,-8.4,-8.5,-8.4Z" class="g5_63"/>
<path d="M162,500c0,0,-8.5,0,-8.5,8.4V846.3c0,0,0,8.5,8.5,8.5H859.3c0,0,8.5,0,8.5,-8.5V508.4c0,0,0,-8.4,-8.5,-8.4H162Z" class="g2_63"/>
<path d="M188.5,561.3H865.7V543H188.5v18.3Z" class="g5_63"/>
<image clip-path="url(#c1_63)" preserveAspectRatio="none" x="222" y="724" width="110" height="107" xlink:href="img/1.jpg"/>
<path d="M401.9,800.6H530.8" class="g6_63"/>
<image clip-path="url(#c2_63)" preserveAspectRatio="none" x="220" y="596" width="112" height="106" xlink:href="img/2.jpg"/>
<path d="M401.9,667.8H530.8" class="g6_63"/>
<path d="M576,869.7c0,0,-4.4,0,-4.4,4.3v10.9c0,0,0,4.3,4.4,4.3h30.3c0,0,4.3,0,4.3,-4.3V874c0,0,0,-4.3,-4.3,-4.3Z" class="g7_63"/>
<path d="M562.8,862.2v34.9m1.3,.9H867.2m1,-1.3V861.8m-1.4,-1H563.7" class="g8_63"/>
<path d="M562.8,897.4v.6h.6m304.2,0h.6v-.6m0,-36v-.6h-.6m-304.2,0h-.6v.6" class="g9_63"/>
<path d="M538.1,1175.2c0,0,-4.4,0,-4.4,4.3v10.8c0,0,0,4.4,4.4,4.4h30.3c0,0,4.3,0,4.3,-4.4v-10.8c0,0,0,-4.3,-4.3,-4.3Z" class="g7_63"/>
<path d="M524.9,1167.7v34.8m1.3,1H865.7m.9,-1.4v-34.8m-1.3,-1H525.8" class="g8_63"/>
<path d="M524.9,1202.9v.6h.6m340.6,0h.5v-.6m0,-36v-.6h-.5m-340.6,0h-.6v.6" class="g9_63"/>
<path d="M240.2,403.9c0,0,-13,0,-13,13v47.6c0,0,0,13,13,13H854.9c0,0,13,0,13,-13V416.9c0,0,0,-13,-13,-13Z" class="ga_63"/>
<image clip-path="url(#c3_63)" preserveAspectRatio="none" x="183" y="400" width="75" height="76" xlink:href="img/3.png"/>
<path d="M235,470.1c0,0,-26.8,11.3,-51.1,-12.7c0,0,15.2,25.3,49.3,23.9c0,0,24.8,.4,20.3,-10.1c0,0,1.2,-4.4,-18.5,-1.1Z" class="ga_63"/>
<path d="M230.5,1009.4c0,0,-13,0,-13,13v21.7c0,0,0,13,13,13H832.4c0,0,13,0,13,-13v-21.7c0,0,0,-13,-13,-13Z" class="ga_63"/>
<image clip-path="url(#c4_63)" preserveAspectRatio="none" x="173" y="980" width="75" height="76" xlink:href="img/4.png"/>
<path d="M225.3,1049.7c0,0,-26.9,11.3,-51.1,-12.7c0,0,15.1,25.3,49.2,23.9c0,0,24.8,.4,20.3,-10.1c0,0,1.2,-4.5,-18.4,-1.1Z" class="ga_63"/>
<path d="M153.3,109.5v39L165,158.7V136.5Z" class="gb_63"/>
<path d="M153.3,109.5v39H851.1c0,0,16.8,0,16.8,-16.8v-5.4c0,0,0,-16.8,-16.8,-16.8Z" class="g7_63"/>
<path d="M790.4,131c0,0,-.5,-10,8.6,-9.4c0,0,6.8,-.3,6.7,9.5m-15.3,-1.5v6.5c0,0,-3.4,.3,-3.9,-3c0,0,-.1,-3.8,3.9,-3.5Zm15.3,0v6.5c0,0,3.4,.3,4,-3c0,0,0,-3.8,-4,-3.5Z" class="gc_63"/>
<path d="M169,140.8h61v-32H169v32Z" class="gd_63"/>
<path d="M169,143.1h61v-2.3H169v2.3Z" class="gd_63"/>
<path d="M193.5,106.2H173.8v31.5h25.7V112.3c0,-3.4,-2.7,-6.1,-6,-6.1Z" class="g5_63"/>
<path d="M193.5,106.2v-.5H173.8c-.2,0,-.3,.1,-.4,.2c-.1,.1,-.2,.2,-.2,.3v31.5c0,.1,.1,.3,.2,.4c.1,.1,.2,.1,.4,.1h25.7c.2,0,.3,0,.4,-.1c.1,-.1,.1,-.3,.1,-.4V112.3c0,-3.7,-2.9,-6.6,-6.5,-6.6v1c1.5,0,2.9,.7,3.9,1.7c1,1,1.6,2.3,1.6,3.9v24.9H174.3V106.7h19.2Z" class="ge_63"/>
<path d="M173.8,131.7v6h25.7c0,-3.3,-2.7,-6,-6,-6Z" class="g5_63"/>
<path d="M173.8,131.7h-.6v6c0,.1,.1,.3,.2,.4c.1,.1,.2,.1,.4,.1h25.7c.2,0,.3,0,.4,-.1c.1,-.1,.1,-.3,.1,-.4c0,-3.6,-2.9,-6.6,-6.5,-6.6H173.8c-.2,0,-.3,.1,-.4,.2c-.1,.1,-.2,.2,-.2,.4h.6v.5h19.7c1.5,0,2.9,.6,3.9,1.6c1,1,1.6,2.4,1.6,3.9h.5v-.5H174.3v-5.5h-.5v.5Z" class="ge_63"/>
<path d="M177.3,110.9h17.2m-17.2,2.8h17.2m-17.2,2.9h17.2m-17.2,2.9h17.2m-17.2,2.8h17.2m-17.2,2.9h17.2M177.3,128h17.2" class="gf_63"/>
<path d="M193.5,132.2H174.3v5H199c-.1,-1.3,-.7,-2.5,-1.6,-3.4c-1,-1,-2.4,-1.6,-3.9,-1.6Z" class="gg_63"/>
<path d="M174.3,132.2h19.2c1.5,0,2.9,.6,3.9,1.6c.9,.9,1.5,2.1,1.6,3.4H174.3Zm19.2,-.5H173.8v6H199v-2.5c-.9,-2.1,-3.1,-3.5,-5.5,-3.5Z" class="gh_63"/>
<path d="M205.6,106.2h19.7v31.5H199.5V112.3c0,-3.4,2.7,-6.1,6.1,-6.1Z" class="g5_63"/>
<path d="M205.6,106.2v.5h19.2v30.5H200V112.3c0,-1.6,.7,-2.9,1.7,-3.9c1,-1,2.3,-1.7,3.9,-1.7v-1c-3.7,0,-6.6,2.9,-6.6,6.6v25.4c0,.1,.1,.3,.2,.4c0,.1,.2,.1,.3,.1h25.8c.1,0,.2,0,.3,-.1c.1,-.1,.2,-.3,.2,-.4V106.2c0,-.1,-.1,-.2,-.2,-.3c-.1,-.1,-.2,-.2,-.3,-.2H205.6Z" class="ge_63"/>
<path d="M225.3,131.7v6H199.5c0,-3.3,2.7,-6,6.1,-6Z" class="g5_63"/>
<path d="M225.3,131.7h-.5v5.5H199.5v.5h.5c0,-1.5,.7,-2.9,1.7,-3.9c1,-1,2.3,-1.6,3.9,-1.6h19.7v-.5h-.5h.5v-.6H205.6c-3.7,0,-6.6,3,-6.6,6.6c0,.1,.1,.3,.2,.4c0,.1,.2,.1,.3,.1h25.8c.1,0,.2,0,.3,-.1c.1,-.1,.2,-.3,.2,-.4v-6c0,-.2,-.1,-.3,-.2,-.4c-.1,-.1,-.2,-.2,-.3,-.2Z" class="ge_63"/>
<path d="M221.8,110.9H204.6m17.2,2.8H204.6m17.2,2.9H204.6m17.2,2.9H204.6m17.2,2.8H204.6m17.2,2.9H204.6m17.2,2.8H204.6" class="gf_63"/>
<path clip-path="url(#c5_63)" d="M200.1,137.2h24.7v-5H200.1v5Z" class="gg_63"/>
<path clip-path="url(#c6_63)" d="M200.1,137.2c.1,-1.3,.7,-2.5,1.6,-3.4c1,-1,2.3,-1.6,3.9,-1.6h19.2v5Zm25.2,-5.5H205.6c-3.4,0,-6.1,2.7,-6.1,6h25.8v-6h-.5h.5Z" class="gh_63"/>
<path d="M199.5,108.8v34.3" class="gf_63"/>
<path d="M217.2,145.5h3.3V134.7h-3.3v10.8Z" class="gi_63"/>
<path d="M32.1,45.1H9.2m958.3,0h22.9M32.1,1331.3H9.2m958.3,0h22.9M45.1,32.1V9.2m0,1335.1v22.9M954.5,32.1V9.2m0,1335.1v22.9" class="gj_63"/>
<path d="M32.1,45.1H9.2m958.3,0h22.9M32.1,1331.3H9.2m958.3,0h22.9M45.1,32.1V9.2m0,1335.1v22.9M954.5,32.1V9.2m0,1335.1v22.9" class="gk_63"/>
<path d="M27.5,32.1H0m972.1,0h27.5M27.5,1344.3H0m972.1,0h27.5M32.1,27.5V0m0,1348.9v27.5M967.5,27.5V0m0,1348.9v27.5" class="gj_63"/>
<path d="M27.5,32.1H0m972.1,0h27.5M27.5,1344.3H0m972.1,0h27.5M32.1,27.5V0m0,1348.9v27.5M967.5,27.5V0m0,1348.9v27.5" class="gk_63"/>
</svg>