<?xml version="1.0" encoding="UTF-8" standalone="no"?>
<!DOCTYPE svg PUBLIC "-//W3C//DTD SVG 1.1//EN"
"http://www.w3.org/Graphics/SVG/1.1/DTD/svg11.dtd">
<svg viewBox="0 0 999 1376" version="1.1" xmlns="http://www.w3.org/2000/svg" xmlns:xlink="http://www.w3.org/1999/xlink">
<defs>
<clipPath id="c0_70"><path d="M32.1,1344.3V32.1H967.5V1344.3Z"/></clipPath>
<clipPath id="c1_70"><path d="M76.1,974.6V734.3H280.7V974.6Z"/></clipPath>
<clipPath id="c2_70"><path d="M76.9,971.5V736.6H279.8V971.5Z"/></clipPath>
<clipPath id="c3_70"><path d="M76.6,971.2V736.3H279V971.2Z"/></clipPath>
<clipPath id="c4_70"><path d="M710.8,876.7V551.1H929.2V876.7Z"/></clipPath>
<clipPath id="c5_70"><path d="M705.4,882.7V546.6H935.9V882.7Z"/></clipPath>
<clipPath id="c6_70"><path d="M705.1,882.4V546.3H935.6V882.4Z"/></clipPath>
<clipPath id="c7_70"><path d="M177,537.4l-6.5,-2.1L154.1,521.4V464.3h72v73.1Z"/></clipPath>
<clipPath id="c8_70"><path d="M176.8,1112.8l-6.5,-2.1l-16.4,-13.9v-57.1h72v73.1Z"/></clipPath>
<clipPath id="c9_70"><path d="M764.8,434.9V422.5h14.5v12.4Z"/></clipPath>
<clipPath id="ca_70"><path d="M171.7,753.3c-.2,-.1,3.6,-8.3,3.6,-8.3l.8,.5c0,0,-4.1,7.8,-4.4,7.8Z"/></clipPath>
<clipPath id="cb_70"><path d="M179.2,745.5c0,0,-6.8,-1.1,-7.5,-5.2c-.7,-3.6,1.5,-3.8,2,-3.8c.1,0,.2,0,.2,0l8.3,-12.8l-1.5,-3c0,0,-.6,-1.2,.2,-2.1c0,-.1,.1,-.1,.3,-.1c2.1,0,12.9,5.5,12.9,5.5l.1,.2c-.4,.5,-.8,1.1,-1.4,1.6c-.7,.5,-5.1,1.2,-5.1,1.2l-8.5,18.5Z"/></clipPath>
<clipPath id="cc_70"><path d="M178.8,745.2c.2,-.5,.2,-1.8,0,-2.3v-1.4c-1.5,-.5,-2.8,-1.2,-3.6,-2.5c-1.1,.6,-2.1,1.2,-3.2,1.9c1.6,2.1,3.9,3.5,6.8,4.3Zm0,-3.9c2.2,-4.6,4,-9.5,6.2,-14.1c-.9,-.4,-1.9,-1.3,-2.6,-1.4c-2.3,4.3,-4.6,8.6,-7.1,12.8c.7,1.4,2.1,2,3.5,2.7Zm-7.3,12c1.1,-2.9,2.4,-5.4,3.6,-8.3c-2,-1.5,-4,-3.1,-4.4,-6.1v-1.5c-.1,-2.7,1.9,-3.4,4.6,-3.4c0,0,.1,0,.1,0c2,-3.4,4.3,-6.3,6.2,-9.7c-.6,-.8,-1.2,-2.3,-.9,-3.6c.5,1.2,1.6,1.9,2.4,2.9c-.1,.6,-.3,1.1,-.4,1.7c.6,.7,1.4,1.2,2.4,1.4c.5,-.4,.5,-1.2,1.1,-1.5c1,.3,1.9,.7,3.2,.7c.1,.1,.5,.2,.8,.2c.4,0,.7,-.1,.8,-.2c.1,.1,.2,.1,.3,.1c.3,0,.5,-.1,.6,-.2c.2,0,.4,-.1,.6,-.1c.1,0,.2,0,.3,.1c-1.3,.7,-2.2,1.8,-4.2,1.8c-.1,0,-.2,0,-.3,0c-.9,3.7,-1.9,7.3,-2.7,11.2c.6,1,1.5,1.6,1.3,3.1c-.5,2.7,-3.9,4.4,-7.2,4.4c-1.3,0,-2.5,-.2,-3.6,-.8c-1,2.1,-2.1,4.2,-3.3,6.1c0,-.4,.3,-.4,.3,-.8c.9,-1.8,1.9,-3.6,2.6,-5.6c-1.1,1.7,-1.8,3.7,-2.8,5.5c-.2,.4,-.4,.8,-.6,1.3c-.3,.4,-.3,1.1,-.8,1.3Z"/></clipPath>
<clipPath id="cd_70"><path d="M189.3,725.6c-4.8,0,-13.1,-7.3,-5.6,-8.8H185c.1,0,.3,0,.5,0q.1,0,.2,0c0,0,.1,0,.2,0c.2,0,.5,0,.9,.1c3,.6,8.2,3.8,7.5,7c-.3,1.2,-1.6,1.6,-3.2,1.7h-1.7c0,0,-.1,0,-.1,0Z"/></clipPath>
<clipPath id="ce_70"><path d="M832.8,564.9c-.2,-.1,3.6,-8.2,3.6,-8.2l.8,.5c0,0,-4.1,7.7,-4.4,7.7Z"/></clipPath>
<clipPath id="cf_70"><path d="M840.4,557.2c0,0,-6.9,-1.1,-7.6,-5.2c-.7,-3.6,1.5,-3.9,2.1,-3.9c0,0,.1,0,.1,0l8.3,-12.7l-1.5,-3.1c0,0,-.6,-1.1,.2,-2c0,-.1,.1,-.1,.3,-.1c2.1,0,12.9,5.5,12.9,5.5l.1,.2c-.4,.5,-.7,1.1,-1.4,1.6c-.7,.5,-5.1,1.2,-5.1,1.2l-8.4,18.5Z"/></clipPath>
<clipPath id="cg_70"><path d="M839.9,556.8c.3,-.4,.3,-1.7,0,-2.2v-1.4c-1.5,-.5,-2.8,-1.2,-3.6,-2.5c-1.1,.6,-2.1,1.2,-3.1,1.9c1.5,2.1,3.8,3.5,6.7,4.2Zm0,-3.8c2.2,-4.6,4,-9.5,6.2,-14.1c-.9,-.4,-1.8,-1.3,-2.6,-1.4c-2.3,4.3,-4.6,8.6,-7.1,12.8c.8,1.3,2.1,2,3.5,2.7Zm-7.2,12c1,-2.9,2.4,-5.5,3.5,-8.3c-2,-1.5,-4,-3.1,-4.4,-6.1v-1.5c-.1,-2.7,1.9,-3.4,4.5,-3.4c.1,0,.2,0,.3,0c1.9,-3.4,4.2,-6.4,6.1,-9.7c-.6,-.9,-1.1,-2.4,-.9,-3.7c.5,1.3,1.7,1.9,2.4,2.9c-.1,.6,-.3,1.2,-.4,1.8c.6,.7,1.4,1.2,2.4,1.4c.5,-.4,.5,-1.3,1.2,-1.5c.9,.3,1.8,.7,3.1,.7c.1,.1,.5,.2,.8,.2c.4,0,.7,-.1,.8,-.2c.1,.1,.2,.1,.3,.1c.3,0,.5,-.1,.7,-.2c.1,0,.3,-.1,.5,-.1c.1,0,.2,0,.3,.1c-1.3,.7,-2.2,1.8,-4.2,1.8c-.1,0,-.2,0,-.3,0c-.9,3.7,-1.9,7.3,-2.7,11.1c.6,1.1,1.5,1.7,1.3,3.2c-.5,2.7,-3.9,4.4,-7.2,4.4c-1.3,0,-2.5,-.3,-3.6,-.8c-1,2.1,-2.1,4.2,-3.3,6.1c0,-.4,.3,-.4,.3,-.8c.9,-1.8,1.9,-3.6,2.6,-5.7c-1.1,1.8,-1.8,3.8,-2.8,5.6c-.2,.4,-.4,.8,-.6,1.2c-.3,.5,-.3,1.2,-.7,1.4Z"/></clipPath>
<clipPath id="ch_70"><path d="M850.4,537.2c-4.8,0,-13.1,-7.3,-5.6,-8.8h1.3c.2,.1,.3,.1,.5,.1q.1,0,.2,0c.3,0,.7,0,1.1,.1c3,.6,8.2,3.8,7.5,7c-.2,1.2,-1.5,1.6,-3.1,1.6h-1.8c0,0,-.1,0,-.1,0Z"/></clipPath>
<clipPath id="ci_70"><path d="M125.5,386.7V205.8H858.6V386.7Z"/></clipPath>
<style type="text/css"><![CDATA[
.g0_70{
fill: #FEFCF4;
}
.g1_70{
fill: #FFF;
}
.g2_70{
fill: none;
stroke: #6381B7;
stroke-width: 0.763;
}
.g3_70{
fill: #F7C2D9;
}
.g4_70{
fill: #FDF4F3;
}
.g5_70{
fill: #EC008C;
}
.g6_70{
fill: none;
stroke: #949698;
stroke-width: 0.305;
stroke-dasharray: 4,4;
}
.g7_70{
fill: none;
stroke: #949698;
stroke-width: 0.305;
}
.g8_70{
fill: none;
stroke: #818385;
stroke-width: 0.305;
stroke-dasharray: 3,3;
}
.g9_70{
fill: none;
stroke: #818385;
stroke-width: 0.305;
}
.ga_70{
fill: #6D6F71;
}
.gb_70{
fill: #6381B7;
}
.gc_70{
fill: none;
stroke: #6381B7;
stroke-width: 0.381;
stroke-dasharray: 2,1;
}
.gd_70{
fill: none;
stroke: #6381B7;
stroke-width: 0.381;
}
.ge_70{
fill: none;
stroke: #818385;
stroke-width: 0.305;
stroke-dasharray: 4,4;
}
.gf_70{
fill: #FCE8B0;
}
.gg_70{
fill: #25408F;
}
.gh_70{
fill: #A8AAAD;
}
.gi_70{
fill: none;
stroke: #949698;
stroke-width: 0.549;
}
.gj_70{
fill: none;
stroke: #BCBEC0;
stroke-width: 2.566;
}
.gk_70{
fill: #231F20;
}
.gl_70{
fill: #363637;
}
.gm_70{
fill: #5CC4BE;
}
.gn_70{
fill: #EAD646;
}
.go_70{
fill: #2E6E51;
}
.gp_70{
fill: none;
stroke: #FFF;
stroke-width: 0.152;
stroke-miterlimit: 1;
}
.gq_70{
fill: #BCBEC0;
}
.gr_70{
fill: #EE314A;
}
.gs_70{
fill: #CEEDFB;
}
.gt_70{
fill: #27639D;
}
.gu_70{
fill: none;
stroke: #C3E7F1;
stroke-width: 1.527;
}
.gv_70{
fill: none;
stroke: #FFF;
stroke-width: 1.909;
stroke-miterlimit: 10;
}
.gw_70{
fill: none;
stroke: #000;
stroke-width: 0.381;
stroke-miterlimit: 10;
}
]]></style>
</defs>
<path d="M32.1,1344.3H954.5V32.1H32.1V1344.3Z" class="g0_70"/>
<path clip-path="url(#c0_70)" d="M954.5,1344.3H1877V32.1H954.5V1344.3Z" class="g0_70"/>
<path d="M150.4,440.5c0,0,-18.3,0,-18.3,18.3v542c0,0,0,18.3,18.3,18.3H827.5c0,0,18.4,0,18.4,-18.3V440.5Z" class="g1_70"/>
<path d="M150.4,440.5c0,0,-18.3,0,-18.3,18.3v542c0,0,0,18.3,18.3,18.3H827.5c0,0,18.4,0,18.4,-18.3V440.5H150.4Z" class="g2_70"/>
<image clip-path="url(#c1_70)" preserveAspectRatio="none" x="76" y="735" width="204" height="240" xlink:href="img/1.png"/>
<path d="M88.9,739.1L81.2,961.6l186,6.9l7.3,-223Z" class="g3_70"/>
<image clip-path="url(#c2_70)" preserveAspectRatio="none" x="76" y="737" width="204" height="235" xlink:href="img/2.png"/>
<image clip-path="url(#c3_70)" preserveAspectRatio="none" x="76" y="737" width="203" height="235" xlink:href="img/3.png"/>
<path d="M81.3,746.1l6.3,218.6l152.7,-4.4L273,936.2L267.2,741.1Z" class="g4_70"/>
<path d="M241.3,961.3l32.6,-24.1l-28.3,-1.6Z" class="g5_70"/>
<path d="M357.6,739.1C344.4,728.5,294.7,693.8,218.4,699.8m-7.5,1.8c-3,2.7,.7,7.7,4.6,7.3m4.9,-5.5c.1,-4.3,-6,-9,-20.1,-9.6m-7.9,.1c-20.3,1.3,-44.7,11.4,-87.8,51.9" class="g6_70"/>
<path d="M361.2,742.1c0,0,-.4,-.4,-1.2,-1M216.8,699.9c-.5,.1,-1,.1,-1.6,.2c-.5,0,-1,.1,-1.5,.2m3.3,8.2c.4,-.2,.9,-.5,1.3,-.9c.4,-.4,.8,-.8,1,-1.2M198.7,693.8c-.6,0,-1.1,0,-1.6,0c-.6,0,-1.1,0,-1.6,0m-92,53.1c-.4,.3,-.8,.7,-1.2,1.1" class="g7_70"/>
<path d="M368.1,772.5c8.5,-1.2,15.2,-5.9,16.8,-11.9m-.4,-7c-2.4,-5.6,-9.3,-9.9,-17.8,-10.7m-7.2,.2c-8.5,1.2,-15.2,5.9,-16.8,11.8m.5,7.1c2.3,5.6,9.2,9.9,17.7,10.7" class="g8_70"/>
<path d="M385.2,759.2c.1,-.4,.1,-.9,.1,-1.4c0,-.5,0,-1,-.1,-1.4M365.3,742.8c-.5,0,-1,0,-1.5,0c-.5,0,-.9,0,-1.4,0m-20,13.6c-.1,.4,-.1,.9,-.1,1.4c0,.5,0,1,.1,1.4m20,13.6c.5,0,.9,0,1.4,0c.5,0,1,0,1.5,0" class="g9_70"/>
<path d="M110.8,746.3l-6.5,-5.9L100,751.7Z" class="ga_70"/>
<path d="M144.3,1030.8c0,0,-13,0,-13,13v155.1c0,0,0,13,13,13H832.2c0,0,13,0,13,-13V1043.8c0,0,0,-13,-13,-13Z" class="g1_70"/>
<path d="M144.3,1030.8c0,0,-13,0,-13,13v155.1c0,0,0,13,13,13H832.2c0,0,13,0,13,-13V1043.8c0,0,0,-13,-13,-13H144.3Z" class="g2_70"/>
<path d="M515.8,1224.8c0,0,-4.4,0,-4.4,4.3V1240c0,0,0,4.3,4.4,4.3h30.3c0,0,4.3,0,4.3,-4.3v-10.9c0,0,0,-4.3,-4.3,-4.3Z" class="gb_70"/>
<path d="M502.6,1217.3v34.9m1.3,1H845.1m1,-1.4v-34.9m-1.4,-.9H503.5" class="gc_70"/>
<path d="M502.6,1252.6v.6h.6m342.3,0h.6v-.6m0,-36.1v-.5h-.6m-342.3,0h-.6v.5" class="gd_70"/>
<image clip-path="url(#c4_70)" preserveAspectRatio="none" x="710" y="551" width="219" height="326" xlink:href="img/4.png"/>
<path d="M716.1,558.1l3.4,312.5l203.3,-.8L917.3,556.4Z" class="g3_70"/>
<image clip-path="url(#c5_70)" preserveAspectRatio="none" x="705" y="547" width="231" height="336" xlink:href="img/5.png"/>
<image clip-path="url(#c6_70)" preserveAspectRatio="none" x="705" y="547" width="230" height="336" xlink:href="img/6.png"/>
<path d="M726.4,551.1L709.8,867.4l172.4,9L914.3,850L929.5,561.7Z" class="g4_70"/>
<path d="M881.8,876.2l32.5,-25.1l-19.5,-3.8Z" class="g5_70"/>
<path d="M557.9,643.4c28.2,-.6,51.1,-6.6,55.7,-14.2m-.9,-7c-6.3,-7.2,-28.9,-12.6,-56.3,-13m-7.5,0c-28.2,.6,-51.1,6.5,-55.7,14.2m.9,7c6.3,7.2,28.9,12.6,56.3,13" class="ge_70"/>
<path d="M614.2,627.8c.1,-.5,.2,-1,.2,-1.5c0,-.5,-.1,-1,-.2,-1.5M554.9,609.2c-.5,0,-1,0,-1.5,0c-.5,0,-1,0,-1.5,0m-59.3,15.6c-.2,.5,-.2,1,-.2,1.5c0,.5,0,1,.2,1.5m59.3,15.6c.5,0,1,0,1.5,0c.5,0,1,0,1.5,0" class="g9_70"/>
<path d="M724.6,584.7c-38.1,8.2,-66.7,15.1,-120.4,32" class="g6_70"/>
<path d="M720.7,581.2l2.9,8.3l9.2,-8Z" class="ga_70"/>
<path d="M209.6,492.4c0,0,-12.9,0,-12.9,13v21.7c0,0,0,13,12.9,13h602c0,0,13,0,13,-13V505.4c0,0,0,-13,-13,-13Z" class="gf_70"/>
<image clip-path="url(#c7_70)" preserveAspectRatio="none" x="153" y="463" width="75" height="76" xlink:href="img/7.png"/>
<path d="M204.4,532.7c0,0,-26.8,11.3,-51.1,-12.7c0,0,15.2,25.3,49.3,23.9c0,0,24.8,.4,20.3,-10.1c0,0,1.2,-4.5,-18.5,-1.1Z" class="gf_70"/>
<path d="M209.4,1067.8c0,0,-13,0,-13,13v21.7c0,0,0,12.9,13,12.9h602c0,0,13,0,13,-12.9v-21.7c0,0,0,-13,-13,-13Z" class="gf_70"/>
<image clip-path="url(#c8_70)" preserveAspectRatio="none" x="152" y="1038" width="75" height="76" xlink:href="img/8.png"/>
<path d="M204.2,1108.1c0,0,-26.8,11.3,-51.1,-12.8c0,0,15.2,25.3,49.3,24c0,0,24.8,.3,20.3,-10.1c0,0,1.2,-4.5,-18.5,-1.1Z" class="gf_70"/>
<path d="M131.7,414.3v39l11.7,10.3V419.3Z" class="gg_70"/>
<path d="M131.7,414.3v39H829.5c0,0,16.8,0,16.8,-16.8v-5.4c0,0,0,-16.8,-16.8,-16.8Z" class="gb_70"/>
<path d="M781,447.9c8.2,0,14.8,-6.5,14.8,-14.5c0,-8,-6.6,-14.5,-14.8,-14.5c-8.3,0,-14.9,6.5,-14.9,14.5c0,8,6.6,14.5,14.9,14.5Z" class="gh_70"/>
<path d="M781,447.9c8.2,0,14.8,-6.5,14.8,-14.5c0,-8,-6.6,-14.5,-14.8,-14.5c-8.3,0,-14.9,6.5,-14.9,14.5c0,8,6.6,14.5,14.9,14.5Z" class="gi_70"/>
<path d="M781,438.8c3,0,5.4,-2.4,5.4,-5.4c0,-3,-2.4,-5.4,-5.4,-5.4c-3.1,0,-5.5,2.4,-5.5,5.4c0,3,2.4,5.4,5.5,5.4Z" class="g1_70"/>
<path d="M781,438.8c3,0,5.4,-2.4,5.4,-5.4c0,-3,-2.4,-5.4,-5.4,-5.4c-3.1,0,-5.5,2.4,-5.5,5.4c0,3,2.4,5.4,5.5,5.4Z" class="gj_70"/>
<g clip-path="url(#c9_70)" opacity="0.3">
<path d="M766.4,432.6c0,0,-.1,-4.8,3.6,-8.6l7.8,6.7c0,0,-1,.9,-1.1,2.7Z" class="g1_70"/>
</g>
<path d="M785.6,433.3c0,0,-3.5,0,-3.5,3.5v8.7c0,0,0,3.4,3.5,3.4H829c0,0,3.5,0,3.5,-3.4v-8.7c0,0,0,-3.5,-3.5,-3.5Z" class="gk_70"/>
<path d="M169.5,424.4c0,-8.4,-6.7,-15.1,-15,-15.1c-8.4,0,-15.1,6.7,-15.1,15.1c0,8.3,6.8,15,15.1,15c.8,0,1.6,0,2.4,-.2l4.5,5.3v-6.8c4.8,-2.5,8.1,-7.5,8.1,-13.3Z" class="g1_70"/>
<path d="M161.8,445.7l-5.1,-6c-.7,.1,-1.5,.2,-2.2,.2c-8.6,0,-15.6,-7,-15.6,-15.5c0,-8.6,7,-15.5,15.6,-15.5c8.5,0,15.5,6.9,15.5,15.5c0,5.7,-3.1,10.9,-8.2,13.6Zm-4.7,-7l3.8,4.5v-5.7l.3,-.2c4.8,-2.5,7.9,-7.5,7.9,-12.9c0,-8.1,-6.6,-14.6,-14.6,-14.6c-8.1,0,-14.6,6.5,-14.6,14.6c0,8,6.5,14.6,14.6,14.6c.7,0,1.5,-.1,2.3,-.2Z" class="gl_70"/>
<path d="M147.4,423.9c.8,0,1.5,.7,1.5,1.5c0,.8,-.7,1.4,-1.5,1.4c-.7,0,-1.4,-.6,-1.4,-1.4c0,-.8,.7,-1.5,1.4,-1.5Z" class="gm_70"/>
<path d="M147.4,427.3c-1,0,-1.8,-.9,-1.8,-1.9c0,-1.1,.8,-1.9,1.8,-1.9c1.1,0,1.9,.8,1.9,1.9c0,1,-.8,1.9,-1.9,1.9m0,-2.9c-.5,0,-.9,.4,-.9,1c0,.5,.4,1,.9,1c.6,0,1,-.5,1,-1c0,-.6,-.4,-1,-1,-1Z" class="gl_70"/>
<path d="M154.5,423.9c.8,0,1.4,.7,1.4,1.5c0,.8,-.6,1.4,-1.4,1.4c-.8,0,-1.5,-.6,-1.5,-1.4c0,-.8,.7,-1.5,1.5,-1.5Z" class="gm_70"/>
<path d="M154.5,427.3c-1.1,0,-1.9,-.9,-1.9,-1.9c0,-1.1,.8,-1.9,1.9,-1.9c1,0,1.9,.8,1.9,1.9c0,1,-.9,1.9,-1.9,1.9m0,-2.9c-.6,0,-1,.4,-1,1c0,.5,.4,1,1,1c.5,0,.9,-.5,.9,-1c0,-.6,-.4,-1,-.9,-1Z" class="gl_70"/>
<path d="M161.5,423.9c.8,0,1.4,.7,1.4,1.5c0,.8,-.6,1.4,-1.4,1.4c-.8,0,-1.5,-.6,-1.5,-1.4c0,-.8,.7,-1.5,1.5,-1.5Z" class="gm_70"/>
<path d="M161.5,427.3c-1.1,0,-1.9,-.9,-1.9,-1.9c0,-1.1,.8,-1.9,1.9,-1.9c1,0,1.9,.8,1.9,1.9c0,1,-.9,1.9,-1.9,1.9m0,-2.9c-.6,0,-1,.4,-1,1c0,.5,.4,1,1,1c.5,0,1,-.5,1,-1c0,-.6,-.5,-1,-1,-1Z" class="gl_70"/>
<path d="M163.4,438.6c0,-9.7,7.9,-17.6,17.6,-17.6c9.7,0,17.6,7.9,17.6,17.6c0,9.7,-7.9,17.6,-17.6,17.6c-.9,0,-1.9,-.1,-2.8,-.2l-5.3,6.1v-7.8c-5.6,-3,-9.5,-8.9,-9.5,-15.7Z" class="gn_70"/>
<path d="M172.9,462.6c0,0,-.1,-.1,-.1,-.1c-.2,0,-.3,-.2,-.3,-.4v-7.6c-5.9,-3.1,-9.6,-9.2,-9.6,-15.9c0,-10,8.2,-18.1,18.1,-18.1c10,0,18.1,8.1,18.1,18.1c0,10,-8.1,18.1,-18.1,18.1c-.8,0,-1.7,-.1,-2.6,-.2l-5.1,5.9c-.1,.1,-.2,.2,-.4,.2M181,421.4c-9.4,0,-17.1,7.7,-17.1,17.2c0,6.5,3.5,12.3,9.2,15.2c.2,.1,.3,.3,.3,.5v6.6l4.4,-5.2c.1,-.1,.3,-.2,.5,-.2c.9,.2,1.8,.3,2.7,.3c9.5,0,17.2,-7.7,17.2,-17.2c0,-9.5,-7.7,-17.2,-17.2,-17.2Z" class="gl_70"/>
<path d="M189.2,438.1c.9,0,1.7,.8,1.7,1.7c0,.9,-.8,1.7,-1.7,1.7c-.9,0,-1.7,-.8,-1.7,-1.7c0,-.9,.8,-1.7,1.7,-1.7Z" class="g1_70"/>
<path d="M189.2,441.9c-1.2,0,-2.1,-.9,-2.1,-2.1c0,-1.2,.9,-2.1,2.1,-2.1c1.2,0,2.1,.9,2.1,2.1c0,1.2,-.9,2.1,-2.1,2.1m0,-3.3c-.7,0,-1.2,.5,-1.2,1.2c0,.7,.5,1.2,1.2,1.2c.7,0,1.2,-.5,1.2,-1.2c0,-.7,-.5,-1.2,-1.2,-1.2Z" class="gl_70"/>
<path d="M181,438.1c.9,0,1.7,.8,1.7,1.7c0,.9,-.8,1.7,-1.7,1.7c-.9,0,-1.7,-.8,-1.7,-1.7c0,-.9,.8,-1.7,1.7,-1.7Z" class="g1_70"/>
<path d="M181,441.9c-1.2,0,-2.1,-.9,-2.1,-2.1c0,-1.2,.9,-2.1,2.1,-2.1c1.2,0,2.1,.9,2.1,2.1c0,1.2,-.9,2.1,-2.1,2.1m0,-3.3c-.7,0,-1.2,.5,-1.2,1.2c0,.7,.5,1.2,1.2,1.2c.7,0,1.2,-.5,1.2,-1.2c0,-.7,-.5,-1.2,-1.2,-1.2Z" class="gl_70"/>
<path d="M172.8,438.1c.9,0,1.7,.8,1.7,1.7c0,.9,-.8,1.7,-1.7,1.7c-.9,0,-1.7,-.8,-1.7,-1.7c0,-.9,.8,-1.7,1.7,-1.7Z" class="g1_70"/>
<path d="M172.8,441.9c-1.2,0,-2.1,-.9,-2.1,-2.1c0,-1.2,.9,-2.1,2.1,-2.1c1.2,0,2.1,.9,2.1,2.1c0,1.2,-.9,2.1,-2.1,2.1m0,-3.3c-.7,0,-1.2,.5,-1.2,1.2c0,.7,.5,1.2,1.2,1.2c.7,0,1.2,-.5,1.2,-1.2c0,-.7,-.5,-1.2,-1.2,-1.2Z" class="gl_70"/>
<image clip-path="url(#ca_70)" x="171" y="745" width="6" height="9" xlink:href="shade/1.png"/>
<image clip-path="url(#cb_70)" x="170" y="718" width="25" height="28" xlink:href="shade/2.png"/>
<image clip-path="url(#cc_70)" x="170" y="720" width="23" height="34" xlink:href="shade/3.png"/>
<image clip-path="url(#cd_70)" x="176" y="716" width="19" height="10" xlink:href="shade/4.png"/>
<image clip-path="url(#ce_70)" x="832" y="556" width="6" height="10" xlink:href="shade/5.png"/>
<image clip-path="url(#cf_70)" x="832" y="530" width="24" height="28" xlink:href="shade/6.png"/>
<image clip-path="url(#cg_70)" x="831" y="532" width="23" height="34" xlink:href="shade/7.png"/>
<image clip-path="url(#ch_70)" x="837" y="528" width="20" height="10" xlink:href="shade/8.png"/>
<path d="M32.1,179.3H967.5V32.1H32.1V179.3Z" class="go_70"/>
<path d="M262.4,134H247.1l1.2,1.2h5.3c-.5,.3,-.9,.8,-1.3,1.5c-.4,.6,-.6,1.2,-.6,1.7c0,.8,.3,1.5,.9,2.1c.5,.7,1.1,1,1.9,1c.4,0,.8,-.1,1.3,-.3c.6,-.2,.9,-.3,1,-.3c.2,0,.4,.1,.5,.4c.1,.2,.2,.4,.2,.6c0,.6,-.4,1,-1.2,1.3c-.5,.3,-1.1,.5,-1.8,.5c-.6,0,-1.2,-.2,-1.8,-.6c-.5,-.4,-1,-1,-1.4,-1.7c-.6,-.9,-1,-2.1,-1.2,-3.5c0,-.5,0,-.9,0,-1.3l-.6,-.3c0,1.2,.1,2.3,.3,3.3c.1,1,.4,1.9,.7,2.7c.9,2.2,2.4,3.4,4.5,3.4c.9,0,1.7,-.4,2.3,-1c.7,-.7,1,-1.5,1,-2.4c0,-.3,0,-.6,-.1,-.9c-.2,-.4,-.3,-.7,-.5,-1.1c-.4,-.7,-.9,-1.2,-1.4,-1.4l-1.3,.7c-.3,.1,-.6,.2,-.8,.3c-.2,.1,-.4,.1,-.5,.1c-.7,0,-1,-.3,-1,-.9c0,-.4,.3,-1,.7,-1.7c.3,-.4,.5,-.7,.7,-.9c.2,-.2,.4,-.3,.6,-.3l.1,.1c.8,.9,1.5,1.6,2.4,1.9c.8,.3,1.8,.5,3.1,.5c-.6,1.2,-.8,2.5,-.8,3.6c0,.9,.1,1.8,.3,2.6c.1,.8,.4,1.6,.6,2.4l1.2,.3c-.6,-1.3,-.9,-2.5,-.9,-3.4c0,-1.2,.2,-2.3,.5,-3.3c.4,-.9,.9,-1.7,1.5,-2.3l-1.8,-1.9c-.3,.2,-.8,.3,-1.3,.4c-.5,.1,-1.1,.1,-1.7,.1c-.2,0,-.4,0,-.6,-.1c-.2,-.1,-.5,-.1,-.7,-.3c-.2,-.1,-.4,-.2,-.6,-.3c-.1,-.2,-.2,-.3,-.2,-.5c0,-.2,.1,-.4,.3,-.5c.2,-.2,.4,-.3,.6,-.3h6.9L262.4,134Zm5.7,1.2L267,134h-1.1c-.4,-.4,-.6,-1,-.7,-1.9l-.5,-.3c0,.2,0,.5,0,.9c.1,.3,.1,.7,.1,1.2c.1,.5,.1,.9,.1,1.3c0,.3,0,.6,0,.9c-.2,-.8,-.5,-1.3,-.9,-1.6c-.4,-.3,-1,-.5,-1.7,-.5h-1.4l1.2,1.2c.3,0,.7,.1,1,.2c.3,.1,.6,.3,.8,.5c.3,.2,.5,.4,.6,.7c.2,.3,.2,.7,.2,1v8.9l1.2,1.2V135.2h2.2Zm6,-1.2h-7.9l1.2,1.2h3.9c-1.7,2,-2.5,4,-2.5,6.1c0,1.5,.3,2.8,.9,3.9c.8,1.4,1.8,2.1,3.2,2.1c.3,0,.6,0,.9,-.1c.2,-.1,.5,-.2,.7,-.4c.2,-.2,.3,-.4,.4,-.7c.1,-.2,.2,-.5,.2,-.8c0,-.4,-.1,-.9,-.4,-1.2c-.3,-.3,-.7,-.5,-1.1,-.5c-.3,0,-.7,.2,-1,.4c-.3,.3,-.4,.6,-.4,1c0,.2,0,.4,.2,.7c.1,.2,.3,.4,.5,.6c-.7,.2,-1.4,-.2,-2.2,-1.3c-.5,-.7,-.7,-1.5,-.7,-2.3c0,-1,.1,-1.9,.3,-2.7c.2,-.7,.6,-1.4,1,-2.1c.4,-.7,1,-1.3,1.6,-1.7c.7,-.5,1.5,-.8,2.4,-1L274.1,134Zm12.2,1.2L285,134H273.4l1.1,1.2H283v6.6h-.1c-1.3,-2.6,-2.7,-4,-4.4,-4c-.8,0,-1.5,.3,-2.1,.9c-.6,.5,-.9,1.2,-.9,2c0,1.5,.8,2.2,2.3,2.2c.5,0,.9,-.2,1.2,-.5c.3,-.4,.5,-.8,.5,-1.3c0,-.3,-.3,-.8,-.8,-1.5c.1,-.1,.2,-.1,.3,-.1c1.3,0,2.4,.8,3.4,2.5c.6,1.4,.9,2.9,.9,4.2l-.1,1.3l1,.6V135.2h2.1Zm11.3,0L296.3,134H284.7l1.2,1.2h8.4v6.6h-.1c-1.2,-2.6,-2.7,-4,-4.4,-4c-.8,0,-1.5,.3,-2.1,.9c-.6,.5,-.9,1.2,-.9,2c0,1.5,.8,2.2,2.3,2.2c.5,0,.9,-.2,1.2,-.5c.3,-.4,.5,-.8,.5,-1.3c0,-.3,-.3,-.8,-.8,-1.5c.1,-.1,.2,-.1,.3,-.1c1.3,0,2.4,.8,3.4,2.5c.6,1.4,.9,2.9,.9,4.2l-.1,1.3l1,.6V135.2h2.1ZM307.8,134h-1c0,-1.1,-.3,-2,-1.1,-2.5c-.8,-.6,-1.9,-.9,-3.4,-.9c-.9,.1,-1.5,.1,-2.1,.2c-.5,0,-.8,0,-1,0c-.4,0,-.8,-.1,-1.2,-.3c-.4,-.3,-.6,-.6,-.6,-1c0,-.4,.2,-.8,.5,-1q-.1,0,-.2,0c0,0,-.1,0,-.1,0c-.2,-.1,-.4,.1,-.6,.5c-.2,.3,-.3,.6,-.3,.8c0,.8,.5,1.5,1.3,2c.8,.4,1.6,.7,2.5,.7c.2,0,.5,-.1,.7,-.1c.3,0,.7,0,1.1,0c.4,-.1,.7,-.1,1,-.1c.3,0,.6,0,.8,0c.2,0,.4,0,.5,0c.2,0,.4,.1,.5,.1c.5,.2,.8,.4,.8,.7c0,.3,-.2,.5,-.7,.7c-.1,.1,-.3,.1,-.5,.1c-.2,.1,-.3,.1,-.5,.1h-8.1l1.2,1.2h3.8c.6,.4,.8,.7,.8,1c-.7,0,-1.4,.3,-1.9,.8c-.6,.5,-.9,1.1,-.9,1.8c0,.4,.2,.7,.5,.9c.3,.2,.6,.3,1,.3c.5,0,1.1,-.2,1.6,-.7c.4,-.5,.7,-1,.7,-1.6c.1,0,.2,0,.3,-.1c.1,0,.2,0,.3,0c.3,0,.5,.1,.7,.2c.2,.1,.4,.2,.5,.4c.2,.2,.3,.4,.4,.7c0,.2,.1,.5,.1,.7c0,.8,-.5,1.5,-1.4,2c-.8,.3,-1.6,.5,-2.5,.4c-1.2,-.1,-2.3,-.4,-3.4,-1l1.5,3c.8,.2,1.7,.5,2.6,.9c.9,.3,1.7,.7,2.5,1.2c.9,.5,1.6,1,2.3,1.5c.7,.6,1.3,1.2,1.9,1.9l-.3,-1.3c-1,-1.1,-2,-2,-3,-2.8c-.9,-.8,-1.7,-1.4,-2.6,-1.9c1.2,-.3,2.1,-.7,2.7,-1.2c.8,-.6,1.2,-1.5,1.2,-2.4c0,-1,-.3,-1.8,-1,-2.5c-.4,-.5,-1.2,-.9,-2.4,-1.3c-.1,-.2,-.2,-.3,-.4,-.5c-.1,-.1,-.2,-.2,-.3,-.4H309L307.8,134Zm7.4,0h-7.9l1.2,1.2h3.9c-1.7,2,-2.5,4,-2.5,6.1c0,1.5,.3,2.8,.9,3.9c.8,1.4,1.8,2.1,3.2,2.1c.3,0,.6,0,.9,-.1c.2,-.1,.5,-.2,.7,-.4c.2,-.2,.3,-.4,.4,-.7c.1,-.2,.2,-.5,.2,-.8c0,-.4,-.1,-.9,-.4,-1.2c-.3,-.3,-.6,-.5,-1,-.5c-.4,0,-.8,.2,-1.1,.4c-.3,.3,-.4,.6,-.4,1c0,.2,0,.4,.2,.7c.1,.2,.3,.4,.5,.6c-.7,.2,-1.4,-.2,-2.2,-1.3c-.4,-.7,-.7,-1.5,-.7,-2.3c0,-1,.1,-1.9,.3,-2.7c.3,-.7,.6,-1.4,1,-2.1c.4,-.7,1,-1.3,1.6,-1.7c.7,-.5,1.5,-.8,2.4,-1L315.2,134Zm13.5,0H314.5l1.2,1.2H330L328.7,134Zm-.5,5.6c-.3,-.6,-.6,-1.2,-1,-1.7c-.4,-.5,-.9,-.9,-1.5,-1.1c-.5,-.3,-1.1,-.5,-1.8,-.5c-.8,0,-1.4,.3,-2,.7c-.6,.5,-.9,1.1,-.9,1.9c0,.6,.2,1.2,.6,1.6c.3,.5,.8,.7,1.5,.7c1.2,0,1.9,-.6,1.9,-1.7c0,-.5,-.2,-1,-.5,-1.4c.4,-.1,.7,-.2,.9,-.2c.6,0,1.1,.3,1.5,.9c.4,.6,.6,1.1,.6,1.8c0,.8,-.4,1.6,-1,2.3c-.9,.6,-1.7,1,-2.5,1c-1.8,0,-3.3,-.9,-4.5,-2.8c-.3,-.3,-.6,-1,-1,-1.8c-.5,-.9,-.9,-1.9,-1.4,-3.1l-.7,-.2c1.8,6.5,4.3,9.8,7.5,9.8c1.2,0,2.3,-.5,3.2,-1.3c.4,-.4,.8,-.8,1,-1.4c.3,-.5,.4,-1,.4,-1.6c0,-.7,-.1,-1.3,-.3,-1.9Zm6.3,-4.4L333.4,134h-1.1c-.4,-.4,-.6,-1,-.8,-1.9l-.4,-.3c0,.2,0,.5,0,.9c0,.3,.1,.7,.1,1.2c0,.5,.1,.9,.1,1.3c0,.3,0,.6,0,.9c-.2,-.8,-.6,-1.3,-1,-1.6c-.4,-.3,-.9,-.5,-1.6,-.5h-1.4l1.2,1.2c.3,0,.7,.1,1,.2c.3,.1,.6,.3,.8,.5c.3,.2,.5,.4,.6,.7c.2,.3,.2,.7,.2,1v8.9l1.2,1.2V135.2h2.2ZM347.8,134c-.6,0,-1.1,.2,-1.5,.4c-.5,.3,-.9,.5,-1.3,.8c-.8,.8,-1.4,1.8,-1.8,2.8c-.4,1,-.7,2.1,-.7,3.3c0,1.5,.3,2.8,.9,3.9c.8,1.4,1.8,2.1,3.2,2.1c.3,0,.6,0,.8,-.1c.3,-.1,.5,-.2,.7,-.4c.2,-.2,.4,-.4,.5,-.7c.1,-.2,.2,-.5,.2,-.8c0,-.4,-.2,-.9,-.4,-1.2c-.3,-.3,-.7,-.5,-1.1,-.5c-.2,0,-.3,.1,-.5,.1c-.2,.1,-.4,.2,-.5,.3c-.1,.2,-.2,.3,-.3,.4c-.1,.2,-.1,.4,-.1,.6c0,.2,0,.4,.1,.7c.2,.2,.3,.4,.6,.6c0,0,-.1,.1,-.2,.1h-.1c-.8,0,-1.4,-.5,-1.9,-1.4c-.5,-.7,-.7,-1.5,-.7,-2.3c0,-1,.1,-1.9,.3,-2.7c.2,-.7,.5,-1.4,1,-2.1c.4,-.7,1,-1.3,1.6,-1.7c.7,-.5,1.5,-.8,2.4,-1L347.8,134Zm15.5,1.2L362.1,134H347l1.2,1.2H356v1c-2.6,.8,-4.9,2.1,-7,3.7l1.7,2.1c1.3,.1,2.6,.7,3.6,1.8c.5,.5,.9,1,1.3,1.6c.4,.7,.8,1.3,1.1,2q0,.1,.1,.2c.1,0,.2,.1,.3,.1v-10c1.2,0,2.1,.3,2.8,1c.6,.7,.9,1.4,.9,2.2l-.1,.3c-.1,-.2,-.3,-.3,-.5,-.4c-.2,-.2,-.4,-.2,-.6,-.2c-.4,0,-.8,.1,-1,.4c-.3,.2,-.4,.5,-.4,.9c0,.2,0,.4,.1,.6c.1,.2,.2,.3,.4,.5c.1,.1,.3,.2,.5,.3c.1,.1,.3,.1,.5,.1c.3,0,.6,-.1,.8,-.2c.3,-.1,.5,-.3,.6,-.5c.2,-.2,.4,-.4,.4,-.7c.2,-.3,.2,-.5,.2,-.8c0,-1.3,-.4,-2.4,-1.2,-3.4c-.9,-1.2,-2,-1.7,-3.4,-1.7v-.9h6.2Zm-7.4,9.1c-1,-1.8,-2.5,-3.1,-4.5,-4c.8,-.5,1.6,-1,2.3,-1.4c.7,-.4,1.5,-.8,2.2,-1.1v6.5ZM368,135.2L366.8,134h-1.1c-.3,-.4,-.6,-1,-.7,-1.9l-.5,-.3c0,.2,.1,.5,.1,.9c0,.3,0,.7,0,1.2c.1,.5,.1,.9,.1,1.3c0,.3,0,.6,0,.9c-.2,-.8,-.5,-1.3,-.9,-1.6c-.4,-.3,-1,-.5,-1.7,-.5h-1.4l1.2,1.2c.4,0,.7,.1,1,.2c.3,.1,.6,.3,.9,.5c.2,.2,.4,.4,.6,.7c.1,.3,.2,.7,.2,1v8.9l1.1,1.2V135.2H368Zm11.8,-3.3c-2.3,-2.4,-4.7,-3.6,-7.2,-3.6c-1,0,-2,.4,-3.1,1.2c-1.1,.9,-1.6,1.8,-1.6,2.7c0,.4,.1,.7,.5,1l.8,.8H366l1.2,1.2H369v11.3l1.2,1.2V135.2h2.1L371.1,134h-1.3l-.5,-1.1c.1,-.9,.6,-1.6,1.7,-2.3c.9,-.7,1.8,-1,2.7,-1c.6,0,1.2,.1,1.8,.2c.6,.2,1.1,.4,1.7,.7c.6,.4,1.1,.7,1.6,1c.5,.4,.9,.7,1.3,1l-.3,-.6Zm3.7,3.3L382.3,134H370.5l1.2,1.2h8.2v.9c-2.5,.8,-5,2.1,-7.4,3.7l1.6,2.3c1.7,.1,3.1,.7,4.1,1.6c.3,.3,.6,.6,.9,1c.3,.4,.6,.8,.7,1c.2,.3,.4,.7,.6,1.3l.7,.8V135.2h2.4Zm-3.6,9.4c-1.1,-1.8,-2.7,-3.2,-4.8,-4.1c.8,-.6,1.7,-1.1,2.5,-1.5c.7,-.4,1.5,-.7,2.3,-1v6.6Zm-4.7,1.7c.2,.3,.5,.4,.9,.4c.3,0,.6,-.1,.8,-.4c.3,-.2,.4,-.5,.4,-.8c0,-.4,-.1,-.7,-.4,-.9c-.2,-.3,-.5,-.4,-.8,-.4c-.4,0,-.7,.1,-.9,.4c-.2,.2,-.4,.5,-.4,.9c0,.3,.2,.6,.4,.8Zm19,-11.1L392.9,134H381.8c.6,1,1.7,1.7,3.3,2.2c.7,.2,1.3,.4,1.7,.6c.4,.2,.7,.4,.8,.6c-.5,.4,-1.1,.8,-1.7,1.4c-.6,.5,-1.3,1.1,-1.9,1.7l1.6,2.1c1.5,.1,2.6,.5,3.6,1.2c.5,.5,1.1,1.2,1.7,2.3c.6,1,1,1.6,1.3,1.8V135.2h2Zm-3.2,9.5c-1,-1.7,-2.5,-2.9,-4.5,-3.6c.5,-.5,1,-1.1,1.5,-1.6c.5,-.5,1,-.9,1.4,-1.4c-.6,-.7,-1.1,-1.3,-1.6,-1.8c-.5,-.5,-1,-.9,-1.4,-1.1H391v9.5Zm-4.6,2c.2,.2,.5,.3,.9,.3c.3,0,.6,-.1,.8,-.3c.3,-.3,.4,-.6,.4,-.9c0,-.3,-.1,-.6,-.4,-.9c-.2,-.2,-.5,-.3,-.8,-.3c-.4,0,-.7,.1,-.9,.3c-.2,.3,-.4,.6,-.4,.9c0,.3,.2,.6,.4,.9Zm12.5,-11.5L397.7,134h-1.1c-.3,-.4,-.6,-1,-.7,-1.9l-.4,-.3c0,.2,0,.5,0,.9c0,.3,0,.7,.1,1.2c0,.5,0,.9,0,1.3c.1,.3,.1,.6,.1,.9c-.3,-.8,-.6,-1.3,-1,-1.6c-.4,-.3,-1,-.5,-1.7,-.5h-1.4l1.2,1.2c.4,0,.7,.1,1,.2c.4,.1,.6,.3,.9,.5c.2,.2,.4,.4,.6,.7c.1,.3,.2,.7,.2,1v8.9l1.1,1.2V135.2h2.3Zm11.1,0L408.8,134H397.1l1.2,1.2h8.4v6.6c-1.3,-2.6,-2.8,-4,-4.4,-4c-.8,0,-1.5,.3,-2.1,.9c-.6,.5,-.9,1.2,-.9,2c0,1.5,.8,2.2,2.3,2.2c.5,0,.9,-.2,1.2,-.5c.3,-.4,.5,-.8,.5,-1.3c0,-.3,-.3,-.8,-.8,-1.5c0,-.1,.1,-.1,.3,-.1c1.3,0,2.4,.8,3.3,2.5c.7,1.4,1,2.9,1,4.2l-.1,1.3l.9,.6V135.2H410Zm14.4,11.9c-.6,-.1,-1.2,-.1,-1.7,0c-.5,0,-.9,-.1,-1.4,-.2c-1.2,-.3,-1.8,-1,-1.8,-2.3c0,-.4,0,-.7,.1,-.8l-.4,-.5c-.1,.5,-.2,.9,-.3,1.2c-.1,.4,-.1,.7,-.1,.9c0,.7,.1,1.3,.5,1.8c.3,.5,.8,.9,1.3,1.1c.4,.2,.9,.3,1.5,.3c.5,.1,1.2,.1,1.9,.1h2c.7,.1,1.3,.4,1.7,.9c.3,.4,.6,.7,.7,.9c.2,.2,.3,.3,.4,.4v-9.1l-1.1,1v6.1c-.7,-1.1,-1.8,-1.7,-3.3,-1.8Zm6.1,-11.9L429.4,134H416.3l1.2,1.2h5v4.1c0,1.7,.6,2.6,1.7,2.6c.4,-.1,.7,-.2,1.1,-.3c.3,-.2,.6,-.3,.9,-.6c.3,-.2,.6,-.4,.9,-.7c.2,-.3,.4,-.6,.5,-.9c.5,.5,.7,1,.7,1.6c0,.5,-.2,1.1,-.5,1.5c-.4,.5,-.8,.9,-1.4,1.2c-.6,.3,-1.1,.4,-1.8,.4c-1.7,0,-3,-.9,-4,-2.7c-.4,-.7,-.6,-1.5,-.9,-2.3c-.2,-.9,-.4,-1.8,-.4,-2.7l-.8,-.4c.6,6.8,2.7,10.3,6.3,10.3c1.3,0,2.4,-.5,3.2,-1.4c.8,-.9,1.1,-2,1.1,-3.4c0,-.4,0,-.8,-.1,-1.2c-.1,-.4,-.2,-.8,-.4,-1.1c-.2,-.4,-.4,-.7,-.7,-1c-.3,-.3,-.6,-.6,-.9,-.8c-.3,.2,-.5,.5,-.8,.8c-.2,.4,-.4,.7,-.7,1c-.2,.3,-.5,.5,-.8,.7c-.2,.1,-.6,.2,-1,.1v-4.8h6.8Zm4.8,0L434.1,134h-1c-.4,-.4,-.7,-1,-.8,-1.9l-.4,-.3c0,.2,0,.5,0,.9c0,.3,0,.7,.1,1.2c0,.5,0,.9,0,1.3c.1,.3,.1,.6,.1,.9c-.3,-.8,-.6,-1.3,-1,-1.6c-.4,-.3,-1,-.5,-1.7,-.5H428l1.2,1.2c.4,0,.7,.1,1,.2c.4,.1,.6,.3,.9,.5c.2,.2,.4,.4,.6,.7c.1,.3,.2,.7,.2,1v8.9l1.2,1.2V135.2h2.2ZM445.5,134H433.4l1.3,1.2c.4,.6,.8,1,1.1,1.2c.2,.2,.5,.3,.8,.4c.3,.2,.6,.3,1.1,.4c.8,.3,1.3,.5,1.6,.8c.5,.4,.7,1.1,.7,2.2c-.3,-.2,-.6,-.3,-1,-.3c-.7,0,-1.3,.2,-1.7,.5c-.5,.4,-.7,1,-.7,1.6c0,.6,.2,1.1,.5,1.5c.4,.4,.9,.5,1.5,.5c.3,0,.6,0,1,-.2c.4,-.1,.8,-.5,1.1,-.9c1.6,.5,2.7,2,3.3,4.4l.5,.5V135.2h2.2L445.5,134Zm-2.2,9.8c-.2,-.4,-.5,-.8,-.9,-1.2c-.3,-.4,-.7,-.8,-1.2,-1.2c.1,-.1,.1,-.2,.1,-.3v-.3c0,-1.1,-.4,-2.1,-1.2,-3.1c-.4,-.7,-1.3,-1.5,-2.5,-2.5h5.8v8.6h-.1Zm8,-8.6L450.1,134H449c-.3,-.4,-.6,-1,-.7,-1.9l-.4,-.3c0,.2,0,.5,0,.9c0,.3,0,.7,0,1.2c.1,.5,.1,.9,.1,1.3c0,.3,0,.6,0,.9c-.2,-.8,-.5,-1.3,-.9,-1.6c-.4,-.3,-1,-.5,-1.7,-.5H444l1.2,1.2c.4,0,.7,.1,1,.2c.3,.1,.6,.3,.9,.5c.2,.2,.4,.4,.6,.7c.1,.3,.2,.7,.2,1v8.9l1.1,1.2V135.2h2.3Zm21,-1.2H457.1l1.2,1.2h11.8v8.2L468.6,142c.1,-.6,.2,-1.3,.2,-1.9c0,-.8,-.2,-1.6,-.5,-2.2c-.3,-.5,-.7,-.9,-1.1,-1.2c-.4,-.3,-.9,-.6,-1.3,-.7c-.4,-.1,-.7,-.2,-1,-.2c-.7,0,-1.3,.2,-2,.7c-.3,.2,-.5,.5,-.7,.8c-.1,.3,-.2,.6,-.2,.9c0,.4,.1,.7,.2,.9c.3,.5,.7,.7,1.2,.8c.6,.1,1.1,0,1.5,-.3c.2,-.2,.4,-.4,.6,-.6c.1,-.3,.2,-.5,.2,-.8c0,-.3,-.1,-.6,-.4,-1c.3,-.1,.5,-.1,.7,0c.3,0,.5,.1,.8,.3c.1,.2,.3,.4,.5,.7c.2,.3,.3,.6,.4,.9c.1,.3,.1,.5,.1,.7c0,.6,-.2,1.1,-.5,1.7c-.4,.8,-1.4,1.3,-2.8,1.3c-.5,0,-1.1,-.2,-1.6,-.5c-.6,-.3,-1.1,-.8,-1.5,-1.4c-.5,-.5,-.9,-1.2,-1.2,-2c-.4,-.8,-.6,-1.7,-.8,-2.7l-.8,-.3c.1,1,.3,2,.6,2.9c.2,.9,.5,1.7,.9,2.3c.3,.5,.7,1,1.1,1.5c.3,.4,.7,.8,1.1,1.1c.4,.3,.8,.6,1.3,.7c.4,.2,.8,.3,1.2,.3c.7,0,1.3,-.2,1.9,-.4c.5,-.3,1,-.7,1.3,-1.2c1.4,.9,2.4,2.4,2.9,4.5v-.1l.4,.3V135.2h2.2L472.3,134Zm12.5,1.2L483.6,134H471.9l1.2,1.2h8.4v6.6c-1.3,-2.6,-2.8,-4,-4.5,-4c-.7,0,-1.4,.3,-2,.9c-.6,.5,-.9,1.2,-.9,2c0,1.5,.8,2.2,2.3,2.2c.5,0,.9,-.2,1.2,-.5c.3,-.4,.5,-.8,.5,-1.3c0,-.3,-.3,-.8,-.8,-1.5c0,-.1,.1,-.1,.3,-.1c1.3,0,2.4,.8,3.3,2.5c.7,1.4,1,2.9,1,4.2l-.1,1.3l.9,.6V135.2h2.1Zm16.5,0L500.1,134H483.4l1.2,1.2h6.2v4.5c-.2,-.4,-.4,-.7,-.6,-1c-.3,-.3,-.5,-.6,-.8,-.8c-.3,-.2,-.6,-.4,-.9,-.5c-.4,-.2,-.7,-.2,-1.1,-.2c-.6,0,-1,.2,-1.4,.6c-.3,.4,-.6,.9,-.7,1.5c.1,.4,.1,.8,.3,1.1c.1,.3,.4,.6,.7,.7c.3,.2,.6,.3,.9,.3c.3,0,.5,-.1,.8,-.3c.5,-.3,.7,-.7,.7,-1.2c0,-.4,-.2,-.7,-.6,-1c.6,-.1,1.2,.2,2,.8c.3,.3,.5,.6,.7,.9v1.7l1.6,1.7c.9,-2.4,2.6,-4,5,-4.8c-.3,1,-.4,2.1,-.4,3.1c0,.6,.1,1.3,.2,2.2c.1,.8,.3,1.8,.5,3c.1,0,.3,.1,.5,.2c.1,0,.3,.1,.4,.2c-.4,-1.6,-.5,-2.8,-.5,-3.7c0,-1.8,.5,-3.7,1.6,-5.8l-2.1,-1.7c-.8,.3,-1.7,.8,-2.6,1.4c-.9,.6,-1.9,1.4,-2.9,2.4v-5.3h9.2Zm14.1,0L514.2,134H499.1l1.2,1.2h7.8v1c-2.6,.8,-5,2.1,-7,3.7l1.7,2.1c1.3,.1,2.6,.7,3.6,1.8c.5,.5,.9,1,1.3,1.6c.4,.7,.8,1.3,1,2q.1,.1,.2,.2c.1,0,.2,.1,.3,.1v-10c1.2,0,2.1,.3,2.8,1c.6,.7,.9,1.4,.9,2.2l-.1,.3c-.1,-.2,-.3,-.3,-.5,-.4c-.2,-.2,-.4,-.2,-.6,-.2c-.4,0,-.8,.1,-1.1,.4c-.2,.2,-.4,.5,-.4,.9c0,.2,.1,.4,.2,.6c.1,.2,.2,.3,.3,.5c.2,.1,.4,.2,.5,.3c.2,.1,.4,.1,.6,.1c.3,0,.6,-.1,.8,-.2c.3,-.1,.5,-.3,.6,-.5c.2,-.2,.3,-.4,.4,-.7c.1,-.3,.2,-.5,.2,-.8c0,-1.3,-.4,-2.4,-1.2,-3.4c-.9,-1.2,-2,-1.7,-3.4,-1.7v-.9h6.2Zm-7.4,9.1c-1,-1.8,-2.5,-3.1,-4.5,-4c.8,-.5,1.6,-1,2.3,-1.4c.7,-.4,1.5,-.8,2.2,-1.1v6.5Zm18.8,-9.1L525.6,134H513.8l1.1,1.2h8.2v.9c-2.5,.8,-4.9,2.1,-7.3,3.7l1.6,2.3h-.1c1.7,.1,3.1,.7,4.1,1.6c.3,.3,.6,.6,.9,1c.4,.4,.6,.8,.8,1c.1,.3,.3,.7,.5,1.3l.7,.8V135.2h2.5Zm-3.7,9.4c-1,-1.8,-2.6,-3.2,-4.8,-4.1c.9,-.6,1.7,-1.1,2.5,-1.5c.8,-.4,1.6,-.7,2.3,-1v6.6Zm-4.7,1.7c.3,.3,.6,.4,.9,.4c.4,0,.6,-.1,.9,-.4c.2,-.2,.4,-.5,.4,-.8c0,-.4,-.2,-.7,-.4,-.9c-.3,-.3,-.5,-.4,-.9,-.4c-.3,0,-.6,.1,-.9,.4c-.2,.2,-.3,.5,-.3,.9c0,.3,.1,.6,.3,.8Z" class="gp_70"/>
<g clip-path="url(#c0_70)">
<path d="M1877,177.2H32.1v-5.4H768.7c43.1,0,53,-37.9,115.3,-37.9h993Z" class="gq_70"/>
<path d="M1877,183.7H32.1v-9.8H768.7c43.1,0,53,-33.6,115.3,-33.6h993Z" class="gr_70"/>
</g>
<image clip-path="url(#ci_70)" preserveAspectRatio="none" x="125" y="206" width="734" height="181" xlink:href="img/9.png"/>
<path d="M144.6,231.3c0,0,-13,0,-13,13v117c0,0,0,13,13,13H833.1c0,0,13,0,13,-13v-130Z" class="gs_70"/>
<path d="M147.7,294.1l54.1,40.8l54.1,-40.8V230h8.7V211.9H155.8c-6.5,.4,-7.7,3.9,-8.2,8.4Z" class="gt_70"/>
<path d="M274,220.3c-.3,-4.7,-4.2,-8.4,-9,-8.4c-4.8,0,-8.7,3.7,-9,8.4h-.1V230h18.2v-9.7Z" class="gk_70"/>
<path d="M255.9,230.6H846.1" class="gu_70"/>
<image clip-path="url(#ci_70)" preserveAspectRatio="none" x="125" y="206" width="734" height="181" xlink:href="img/10.png"/>
<path d="M144.6,231.3c0,0,-13,0,-13,13v117c0,0,0,13,13,13H833.1c0,0,13,0,13,-13v-130Z" class="gs_70"/>
<path d="M147.7,294.1l54.1,40.8l54.1,-40.8V230h8.7V211.9H155.8c-6.5,.4,-7.7,3.9,-8.2,8.4Z" class="gt_70"/>
<path d="M274,220.3c-.3,-4.7,-4.2,-8.4,-9,-8.4c-4.8,0,-8.7,3.7,-9,8.4h-.1V230h18.2v-9.7Z" class="gk_70"/>
<path d="M255.9,230.6H846.1" class="gu_70"/>
<path d="M32.1,45.1H9.2m958.3,0h22.9M32.1,1331.3H9.2m958.3,0h22.9M45.1,32.1V9.2m0,1335.1v22.9M954.5,32.1V9.2m0,1335.1v22.9" class="gv_70"/>
<path d="M32.1,45.1H9.2m958.3,0h22.9M32.1,1331.3H9.2m958.3,0h22.9M45.1,32.1V9.2m0,1335.1v22.9M954.5,32.1V9.2m0,1335.1v22.9" class="gw_70"/>
<path d="M27.5,32.1H0m972.1,0h27.5M27.5,1344.3H0m972.1,0h27.5M32.1,27.5V0m0,1348.9v27.5M967.5,27.5V0m0,1348.9v27.5" class="gv_70"/>
<path d="M27.5,32.1H0m972.1,0h27.5M27.5,1344.3H0m972.1,0h27.5M32.1,27.5V0m0,1348.9v27.5M967.5,27.5V0m0,1348.9v27.5" class="gw_70"/>
</svg>