<?xml version="1.0" encoding="UTF-8" standalone="no"?>
<!DOCTYPE svg PUBLIC "-//W3C//DTD SVG 1.1//EN"
"http://www.w3.org/Graphics/SVG/1.1/DTD/svg11.dtd">
<svg viewBox="0 0 999 1376" version="1.1" xmlns="http://www.w3.org/2000/svg" xmlns:xlink="http://www.w3.org/1999/xlink">
<defs>
<clipPath id="c0_350"><path d="M528.2,369.7V274.8H623v94.9Z"/></clipPath>
<clipPath id="c1_350"><path d="M694.4,369.7V274.8h94.8v94.9Z"/></clipPath>
<clipPath id="c2_350"><path d="M435.6,554.2V459.3h94.8v94.9Z"/></clipPath>
<clipPath id="c3_350"><path d="M177,246l-6.5,-2.1L154.1,230V172.9h72V246Z"/></clipPath>
<style type="text/css"><![CDATA[
.g0_350{
fill: #FEFCF4;
}
.g1_350{
fill: #FFF;
}
.g2_350{
fill: none;
stroke: #6381B7;
stroke-width: 0.763;
}
.g3_350{
fill: none;
stroke: #949698;
stroke-width: 0.42;
}
.g4_350{
fill: #FCE8B0;
}
.g5_350{
fill: none;
stroke: #00ABE5;
stroke-width: 2.291;
}
.g6_350{
fill: #3D3B39;
}
.g7_350{
fill: #E5E9B7;
}
.g8_350{
fill: #61C7CB;
}
.g9_350{
fill: none;
stroke: #00ABE5;
stroke-width: 1.527;
stroke-linecap: round;
stroke-linejoin: round;
stroke-dasharray: 0,5;
}
.ga_350{
fill: none;
stroke: #00ABE5;
stroke-width: 1.527;
stroke-linecap: round;
stroke-linejoin: round;
}
.gb_350{
fill: #25408F;
}
.gc_350{
fill: #6381B7;
}
.gd_350{
fill: #00BAF1;
}
.ge_350{
fill: #332D2C;
}
.gf_350{
fill: #D9DFF0;
}
.gg_350{
fill: #F27C85;
}
.gh_350{
fill: #7DD3F6;
}
.gi_350{
fill: none;
stroke: #FFF;
stroke-width: 1.909;
stroke-miterlimit: 10;
}
.gj_350{
fill: none;
stroke: #000;
stroke-width: 0.381;
stroke-miterlimit: 10;
}
]]></style>
</defs>
<path d="M32.1,1343.2H954.5V32.1H32.1V1343.2Z" class="g0_350"/>
<path d="M150.4,135c0,0,-18.3,0,-18.3,18.3V827.5c0,0,0,18.4,18.3,18.4H827.5c0,0,18.4,0,18.4,-18.4V135Z" class="g1_350"/>
<path d="M150.4,135c0,0,-18.3,0,-18.3,18.3V827.5c0,0,0,18.4,18.3,18.4H827.5c0,0,18.4,0,18.4,-18.4V135H150.4Z" class="g2_350"/>
<path d="M176.9,369.7H309.5V274.8H176.9v94.9Z" class="g1_350"/>
<image preserveAspectRatio="none" x="196" y="275" width="95" height="95" xlink:href="img/1.jpg"/>
<path d="M176.9,369.7H309.5V274.8H176.9v94.9Z" class="g3_350"/>
<path d="M343.1,369.7H475.7V274.8H343.1v94.9Z" class="g1_350"/>
<image preserveAspectRatio="none" x="362" y="275" width="95" height="95" xlink:href="img/2.jpg"/>
<path d="M343.1,369.7H475.7V274.8H343.1v94.9Z" class="g3_350"/>
<path d="M509.3,369.7H641.9V274.8H509.3v94.9Z" class="g1_350"/>
<image clip-path="url(#c0_350)" preserveAspectRatio="none" x="528" y="275" width="95" height="95" xlink:href="img/3.jpg"/>
<path d="M509.3,369.7H641.9V274.8H509.3v94.9Z" class="g3_350"/>
<path d="M675.5,369.7H808.1V274.8H675.5v94.9Z" class="g1_350"/>
<image clip-path="url(#c1_350)" preserveAspectRatio="none" x="694" y="275" width="95" height="95" xlink:href="img/4.jpg"/>
<path d="M675.5,369.7H808.1V274.8H675.5v94.9Z" class="g3_350"/>
<path d="M236.8,554.2H369.3V459.3H236.8v94.9Z" class="g1_350"/>
<image preserveAspectRatio="none" x="256" y="459" width="94" height="95" xlink:href="img/5.jpg"/>
<path d="M236.8,554.2H369.3V459.3H236.8v94.9Z" class="g3_350"/>
<path d="M416.7,554.2H549.3V459.3H416.7v94.9Z" class="g1_350"/>
<image clip-path="url(#c2_350)" preserveAspectRatio="none" x="436" y="459" width="94" height="95" xlink:href="img/6.jpg"/>
<path d="M416.7,554.2H549.3V459.3H416.7v94.9Z" class="g3_350"/>
<path d="M596.7,554.2H731.3V459.3H596.7v94.9Z" class="g1_350"/>
<image preserveAspectRatio="none" x="617" y="459" width="94" height="95" xlink:href="img/7.jpg"/>
<path d="M596.7,554.2H731.3V459.3H596.7v94.9Z" class="g3_350"/>
<path d="M170.9,755.5H303.4V660.7H170.9v94.8Z" class="g1_350"/>
<image preserveAspectRatio="none" x="190" y="661" width="95" height="95" xlink:href="img/8.jpg"/>
<path d="M170.9,755.5H303.4V660.7H170.9v94.8Z" class="g3_350"/>
<path d="M337.1,755.5H469.6V660.7H337.1v94.8Z" class="g1_350"/>
<image preserveAspectRatio="none" x="356" y="661" width="95" height="95" xlink:href="img/9.jpg"/>
<path d="M337.1,755.5H469.6V660.7H337.1v94.8Z" class="g3_350"/>
<path d="M503.3,755.5H637.9V660.7H503.3v94.8Z" class="g1_350"/>
<image preserveAspectRatio="none" x="523" y="661" width="95" height="95" xlink:href="img/10.jpg"/>
<path d="M503.3,755.5H637.9V660.7H503.3v94.8Z" class="g3_350"/>
<path d="M669.5,755.5H802V660.7H669.5v94.8Z" class="g1_350"/>
<image preserveAspectRatio="none" x="688" y="661" width="95" height="95" xlink:href="img/11.jpg"/>
<path d="M669.5,755.5H802V660.7H669.5v94.8Z" class="g3_350"/>
<path d="M209.6,201c0,0,-12.9,0,-12.9,13v21.6c0,0,0,13,12.9,13h602c0,0,13,0,13,-13V214c0,0,0,-13,-13,-13Z" class="g4_350"/>
<image clip-path="url(#c3_350)" preserveAspectRatio="none" x="153" y="171" width="75" height="77" xlink:href="img/12.png"/>
<path d="M204.4,241.3c0,0,-26.8,11.3,-51.1,-12.8c0,0,15.2,25.3,49.3,24c0,0,24.8,.3,20.3,-10.1c0,0,1.2,-4.5,-18.5,-1.1Z" class="g4_350"/>
<path d="M132.8,1000.3V971.6c0,0,0,-4.3,4.4,-4.3H840.8c0,0,4.3,0,4.3,4.3v29.2" class="g5_350"/>
<path d="M178.4,967.9c2.7,0,4.8,-2.2,4.8,-4.8c0,-2.7,-2.1,-4.8,-4.8,-4.8c-2.6,0,-4.8,2.1,-4.8,4.8c0,2.6,2.2,4.8,4.8,4.8Z" class="g1_350"/>
<path d="M178.4,969.8c3.7,0,6.7,-3.1,6.7,-6.7c0,-3.7,-3,-6.7,-6.7,-6.7c-3.7,0,-6.7,3,-6.7,6.7c0,3.6,3,6.7,6.7,6.7m0,-11.5c2.7,0,4.8,2.1,4.8,4.8c0,2.6,-2.1,4.8,-4.8,4.8c-2.6,0,-4.8,-2.2,-4.8,-4.8c0,-2.7,2.2,-4.8,4.8,-4.8Z" class="g6_350"/>
<path d="M183.8,971.7H173c-.2,0,-.3,0,-.5,0c2.8,1,5,3.3,5.9,6.2c1.3,-.5,2.8,-.8,4.3,-.8c2.8,0,5.4,1,7.4,2.6V978c0,-3.5,-2.8,-6.3,-6.3,-6.3Z" class="g1_350"/>
<path d="M162.3,968.7c3.4,0,6.2,-2.8,6.2,-6.1c0,-3.4,-2.8,-6.2,-6.2,-6.2c-3.3,0,-6.1,2.8,-6.1,6.2c0,3.3,2.8,6.1,6.1,6.1Z" class="g7_350"/>
<path d="M162.3,970.6c4.5,0,8.1,-3.6,8.1,-8c0,-4.5,-3.6,-8.1,-8.1,-8.1c-4.4,0,-8,3.6,-8,8.1c0,4.4,3.6,8,8,8m0,-14.2c3.4,0,6.2,2.8,6.2,6.2c0,3.3,-2.8,6.1,-6.2,6.1c-3.3,0,-6.1,-2.8,-6.1,-6.1c0,-3.4,2.8,-6.2,6.1,-6.2Z" class="g6_350"/>
<path d="M176.7,978.7c-1,-3.3,-4,-5.8,-7.7,-5.8H155.7c-4.5,0,-8,3.6,-8,8v4.3h23.7c.9,-2.7,2.8,-5,5.3,-6.5Z" class="g7_350"/>
<path d="M182.7,979c-5.5,0,-10,4.4,-10,9.9c0,5.5,4.5,10,10,10c5.5,0,10,-4.5,10,-10c0,-5.5,-4.5,-9.9,-10,-9.9m6.6,11.6c0,.3,-.2,.5,-.4,.5h-4.1v4c0,.3,-.2,.5,-.4,.5H181c-.3,0,-.5,-.2,-.5,-.5v-4h-4c-.3,0,-.5,-.2,-.5,-.5v-3.3c0,-.3,.2,-.5,.5,-.5h4v-4.1c0,-.2,.2,-.4,.5,-.4h3.4c.2,0,.4,.2,.4,.4v4.1h4.1c.2,0,.4,.2,.4,.5Z" class="g8_350"/>
<path d="M192,981.7V978c0,-4.5,-3.6,-8.2,-8.2,-8.2H173c-1.6,0,-3.1,.4,-4.4,1.2H155.7c-5.5,0,-9.9,4.5,-9.9,9.9v5.3c0,.5,.4,.9,.9,.9H171c-.1,.6,-.2,1.2,-.2,1.8c0,6.6,5.3,11.9,11.9,11.9c6.5,0,11.8,-5.3,11.8,-11.9c0,-2.7,-.9,-5.2,-2.5,-7.2m-9.3,17.2c-5.5,0,-10,-4.5,-10,-10c0,-5.5,4.5,-9.9,10,-9.9c5.5,0,10,4.4,10,9.9c0,5.5,-4.5,10,-10,10m-35,-18c0,-4.4,3.5,-8,8,-8H169c3.7,0,6.7,2.5,7.7,5.8c-2.5,1.5,-4.4,3.8,-5.3,6.5H147.7Zm42.4,-1.2c-2,-1.6,-4.6,-2.6,-7.4,-2.6c-1.5,0,-3,.3,-4.3,.8c-.9,-2.9,-3.1,-5.2,-5.9,-6.2c.2,0,.3,0,.5,0h10.8c3.5,0,6.3,2.8,6.3,6.3Z" class="g6_350"/>
<path d="M183.9,987.3v-4.1h-2.4v4.1c0,.2,-.2,.4,-.5,.4h-4v2.5h4c.3,0,.5,.2,.5,.4v4.1h2.4v-4.1c0,-.2,.2,-.4,.5,-.4h4v-2.5h-4c-.3,0,-.5,-.2,-.5,-.4Z" class="g1_350"/>
<path d="M188.9,986.8h-4.1v-4.1c0,-.2,-.2,-.4,-.4,-.4H181c-.3,0,-.5,.2,-.5,.4v4.1h-4c-.3,0,-.5,.2,-.5,.5v3.3c0,.3,.2,.5,.5,.5h4v4c0,.3,.2,.5,.5,.5h3.4c.2,0,.4,-.2,.4,-.5v-4h4.1c.2,0,.4,-.2,.4,-.5v-3.3c0,-.3,-.2,-.5,-.4,-.5m-.5,3.4h-4c-.3,0,-.5,.2,-.5,.4v4.1h-2.4v-4.1c0,-.2,-.2,-.4,-.5,-.4h-4v-2.5h4c.3,0,.5,-.2,.5,-.4v-4.1h2.4v4.1c0,.2,.2,.4,.5,.4h4Z" class="g6_350"/>
<path d="M132.5,1010.5v231.1m4.5,2.3H843.2m2.3,-4.6V1008.2m-4.6,-2.3H134.7" class="g9_350"/>
<path d="M132.5,1243.9v0m713,0v0m0,-238v0m-713,0v0" class="ga_350"/>
<path d="M131.7,126.7v22.2l11.7,10.3V137Z" class="gb_350"/>
<path d="M131.7,109.9v39H829.4c0,0,16.9,0,16.9,-16.8v-5.4c0,0,0,-16.8,-16.9,-16.8Z" class="gc_350"/>
<path d="M189.6,121.3l-6.4,-6.5L162,136l6.4,6.5Z" class="gd_350"/>
<path d="M168.4,143c.2,0,.3,0,.4,-.1L190,121.7c.1,-.1,.2,-.3,.2,-.4c0,-.1,-.1,-.3,-.2,-.4l-6.5,-6.4c-.2,-.2,-.5,-.2,-.7,0l-21.2,21.2c-.1,.1,-.2,.2,-.2,.3c0,.2,.1,.3,.2,.4l6.5,6.5c.1,.1,.2,.1,.3,.1m20.5,-21.7l-20.5,20.5L162.7,136l20.5,-20.4Z" class="ge_350"/>
<path d="M189.6,121.3l-6.4,-6.5l2.1,-2.1l6.5,6.5Z" class="gf_350"/>
<path d="M189.6,121.8c.2,0,.3,0,.4,-.1l2.1,-2.1c.1,-.1,.2,-.3,.2,-.4c0,-.2,-.1,-.3,-.2,-.4l-6.4,-6.5c-.2,-.2,-.6,-.2,-.8,0l-2.1,2.2c-.1,0,-.2,.2,-.2,.3c0,.2,.1,.3,.2,.4l6.5,6.5c.1,.1,.2,.1,.3,.1m1.4,-2.6l-1.4,1.4l-5.7,-5.8l1.4,-1.4Z" class="ge_350"/>
<path d="M195.4,115.6l-6.5,-6.5l-3.6,3.6l6.5,6.5Z" class="gg_350"/>
<path d="M191.8,119.7c.1,0,.2,0,.3,-.1l3.7,-3.7c.2,-.2,.2,-.5,0,-.7l-6.5,-6.5c-.2,-.2,-.6,-.2,-.8,0l-3.6,3.6c-.2,.2,-.2,.6,0,.8l6.5,6.5c.1,.1,.2,.1,.4,.1m2.8,-4.1l-2.8,2.8L186,112.7l2.9,-2.9Z" class="ge_350"/>
<path d="M157.3,147.2L162,136l6.4,6.5Z" class="g1_350"/>
<path d="M157.3,147.7c.1,0,.2,0,.2,-.1L168.6,143c.2,-.1,.3,-.2,.4,-.4c0,-.2,-.1,-.3,-.2,-.5l-6.5,-6.4c-.1,-.2,-.3,-.2,-.5,-.2c-.1,.1,-.3,.2,-.3,.3l-4.7,11.1c0,.2,0,.5,.1,.6c.1,.1,.3,.2,.4,.2m10.2,-5.4l-9.2,3.9l3.8,-9.2Z" class="ge_350"/>
<path d="M157.3,147.2l2.3,-5.4l3.1,3.1Z" class="ge_350"/>
<path d="M157.3,147.7c.1,0,.2,0,.2,-.1l5.4,-2.2c.1,-.1,.3,-.2,.3,-.4c0,-.2,0,-.3,-.1,-.5l-3.2,-3.1c-.1,-.1,-.3,-.2,-.4,-.1c-.2,0,-.4,.1,-.4,.3l-2.3,5.3c0,.2,0,.5,.1,.6c.1,.1,.3,.2,.4,.2m4.5,-3l-3.5,1.5l1.4,-3.5Z" class="ge_350"/>
<path d="M187.9,119.5l-3,-2.9l-21.2,21.2l3,3Z" class="gh_350"/>
<path d="M166.7,141.3c.1,0,.2,-.1,.3,-.2l21.3,-21.2c.1,-.1,.1,-.2,.1,-.4c0,-.1,0,-.2,-.1,-.3l-3,-3c-.2,-.2,-.5,-.2,-.8,0l-21.2,21.2c-.1,.1,-.1,.3,-.1,.4c0,.1,0,.3,.1,.4l3,2.9c.1,.1,.2,.2,.4,.2m20.4,-21.8L166.7,140l-2.2,-2.2l20.4,-20.5Z" class="ge_350"/>
<path d="M32.1,45.1H9.2m958.3,0h22.9M32.1,1331.3H9.2m958.3,0h22.9M45.1,32.1V9.2m0,1335.1v22.9M954.5,32.1V9.2m0,1335.1v22.9" class="gi_350"/>
<path d="M32.1,45.1H9.2m958.3,0h22.9M32.1,1331.3H9.2m958.3,0h22.9M45.1,32.1V9.2m0,1335.1v22.9M954.5,32.1V9.2m0,1335.1v22.9" class="gj_350"/>
<path d="M27.5,32.1H0m972.1,0h27.5M27.5,1344.3H0m972.1,0h27.5M32.1,27.5V0m0,1348.9v27.5M967.5,27.5V0m0,1348.9v27.5" class="gi_350"/>
<path d="M27.5,32.1H0m972.1,0h27.5M27.5,1344.3H0m972.1,0h27.5M32.1,27.5V0m0,1348.9v27.5M967.5,27.5V0m0,1348.9v27.5" class="gj_350"/>
</svg>