<?xml version="1.0" encoding="UTF-8" standalone="no"?>
<!DOCTYPE svg PUBLIC "-//W3C//DTD SVG 1.1//EN"
"http://www.w3.org/Graphics/SVG/1.1/DTD/svg11.dtd">
<svg viewBox="0 0 999 1376" version="1.1" xmlns="http://www.w3.org/2000/svg" xmlns:xlink="http://www.w3.org/1999/xlink">
<defs>
<clipPath id="c0_104"><path d="M32.1,1344.3V32.1H967.5V1344.3Z"/></clipPath>
<clipPath id="c1_104"><path d="M185.7,291.4l-6.5,-2.1L162.8,275.4V218.3h72v73.1Z"/></clipPath>
<clipPath id="c2_104"><path d="M185.7,617.1L179.2,615L162.8,601V543.9h72v73.2Z"/></clipPath>
<clipPath id="c3_104"><path d="M528.2,484.8V380.2H634.7V484.8Z"/></clipPath>
<clipPath id="c4_104"><path d="M213.9,479.6V374.9h73.3V479.6Z"/></clipPath>
<style type="text/css"><![CDATA[
.g0_104{
fill: #FEFCF4;
}
.g1_104{
fill: #F16865;
}
.g2_104{
fill: #FAC3B8;
}
.g3_104{
fill: #EE314A;
}
.g4_104{
fill: #26292E;
}
.g5_104{
fill: #C5CACC;
}
.g6_104{
fill: #FFF;
}
.g7_104{
fill: #F1EBEB;
}
.g8_104{
fill: #F7943B;
}
.g9_104{
fill: #ACB5B9;
}
.ga_104{
fill: #CFD3D5;
}
.gb_104{
fill: none;
stroke: #6381B7;
stroke-width: 0.763;
}
.gc_104{
fill: none;
stroke: #231F20;
stroke-width: 0.305;
stroke-miterlimit: 10;
}
.gd_104{
fill: #E3E7F2;
}
.ge_104{
fill: #6381B7;
}
.gf_104{
fill: none;
stroke: #6381B7;
stroke-width: 0.381;
stroke-dasharray: 2,1;
}
.gg_104{
fill: none;
stroke: #6381B7;
stroke-width: 0.381;
}
.gh_104{
fill: #FCE8B0;
}
.gi_104{
fill: none;
stroke: #FFF;
stroke-width: 1.909;
stroke-miterlimit: 10;
}
.gj_104{
fill: none;
stroke: #000;
stroke-width: 0.381;
stroke-miterlimit: 10;
}
]]></style>
</defs>
<path d="M32.1,1344.3H954.5V32.1H32.1V1344.3Z" class="g0_104"/>
<g clip-path="url(#c0_104)">
<path d="M954.5,1344.3H1877V32.1H954.5V1344.3Z" class="g0_104"/>
<path d="M1777.4,166.7c0,0,30.3,0,30.3,-30.3v-4.3c0,0,0,-30.3,-30.3,-30.3H173.9c0,0,-30.3,0,-30.3,30.3v4.3c0,0,0,30.3,30.3,30.3Z" class="g1_104"/>
</g>
<path d="M186.5,132.1c0,27.1,-22,49,-49.1,49c-27,0,-49,-21.9,-49,-49c0,-27.1,22,-49.1,49,-49.1c27.1,0,49.1,22,49.1,49.1Z" class="g2_104"/>
<path d="M178.1,104.6c15.2,22.5,9.2,53,-13.2,68.1c-22.5,15.2,-53,9.3,-68.1,-13.2Z" class="g3_104"/>
<path d="M96.8,159.5h81.3V104.7H96.8v54.8Z" class="g4_104"/>
<path d="M137.7,156.8h16.8V136.6H137.7v20.2Z" class="g5_104"/>
<path d="M143.1,156.8h33.7V102.6H143.1v54.2Z" class="g5_104"/>
<path d="M141.6,103v50c.5,-.3,1,-.4,1.5,-.4h33.7v-50H143.1c-.5,0,-1,.2,-1.5,.4Z" class="g6_104"/>
<path d="M137.7,109v47.8c0,0,2.5,-3.1,3.9,-3.8V103c-2.2,1.1,-3.9,4.3,-3.9,6Z" class="g7_104"/>
<path d="M143.5,112.3h29.1v-1.4H143.5v1.4Z" class="g5_104"/>
<path d="M143.5,115.5h29.1v-1.4H143.5v1.4Z" class="g5_104"/>
<path d="M143.5,118.8h29.1v-1.5H143.5v1.5Z" class="g5_104"/>
<path d="M143.5,122h29.1v-1.5H143.5V122Z" class="g5_104"/>
<path d="M143.5,125.2h29.1v-1.5H143.5v1.5Z" class="g5_104"/>
<path d="M143.5,128.4h29.1v-1.5H143.5v1.5Z" class="g5_104"/>
<path d="M143.5,131.6h29.1v-1.5H143.5v1.5Z" class="g5_104"/>
<path d="M143.5,134.8h29.1v-1.5H143.5v1.5Z" class="g5_104"/>
<path d="M143.5,138h29.1v-1.4H143.5V138Z" class="g5_104"/>
<path d="M143.5,141.2h29.1v-1.4H143.5v1.4Z" class="g5_104"/>
<path d="M143.5,144.4h29.1V143H143.5v1.4Z" class="g5_104"/>
<path d="M143.5,147.6h29.1v-1.4H143.5v1.4Z" class="g5_104"/>
<path d="M159.7,150.9l1,-.9l1,.9v-49h-2Z" class="g8_104"/>
<path d="M120.9,156.8h16.8V136.6H120.9v20.2Z" class="g9_104"/>
<path d="M98.6,156.8h33.6V102.6H98.6v54.2Z" class="g9_104"/>
<path d="M98.6,102.6v50h33.6c.6,0,1.1,.1,1.6,.4V103c-.5,-.2,-1,-.4,-1.6,-.4Z" class="g6_104"/>
<path d="M133.8,103v50c1.4,.7,3.9,3.8,3.9,3.8V109c0,-1.7,-1.7,-4.9,-3.9,-6Z" class="ga_104"/>
<path d="M109.7,112.3h14.5v-1.4H109.7v1.4Z" class="g5_104"/>
<path d="M102.8,118.8h29.1v-1.5H102.8v1.5Z" class="g5_104"/>
<path d="M102.8,122h29.1v-1.5H102.8V122Z" class="g5_104"/>
<path d="M102.8,125.2h29.1v-1.5H102.8v1.5Z" class="g5_104"/>
<path d="M102.8,128.4h29.1v-1.5H102.8v1.5Z" class="g5_104"/>
<path d="M102.8,131.6h29.1v-1.5H102.8v1.5Z" class="g5_104"/>
<path d="M102.8,134.8h29.1v-1.5H102.8v1.5Z" class="g5_104"/>
<path d="M102.8,138h29.1v-1.4H102.8V138Z" class="g5_104"/>
<path d="M102.8,141.2h29.1v-1.4H102.8v1.4Z" class="g5_104"/>
<path d="M102.8,144.4h29.1V143H102.8v1.4Z" class="g5_104"/>
<path d="M102.8,147.6h29.1v-1.4H102.8v1.4Z" class="g5_104"/>
<path d="M140.3,630.2c0,0,-8.5,0,-8.5,8.5V1192c0,0,0,8.5,8.5,8.5H837.6c0,0,8.5,0,8.5,-8.5V638.7c0,0,0,-8.5,-8.5,-8.5Z" class="g6_104"/>
<path d="M140.3,630.2c0,0,-8.5,0,-8.5,8.5V1192c0,0,0,8.5,8.5,8.5H837.6c0,0,8.5,0,8.5,-8.5V638.7c0,0,0,-8.5,-8.5,-8.5H140.3Z" class="gb_104"/>
<path d="M274,1134.4h25.9" class="gc_104"/>
<path d="M175.5,955.3c0,0,-4.3,0,-4.3,4.3v134.3c0,0,0,4.3,4.3,4.3H794.8c0,0,4.4,0,4.4,-4.3V959.6c0,0,0,-4.3,-4.4,-4.3Z" class="gd_104"/>
<path d="M608.6,1216.2c0,0,-4.3,0,-4.3,4.3v10.8c0,0,0,4.3,4.3,4.3H639c0,0,4.3,0,4.3,-4.3v-10.8c0,0,0,-4.3,-4.3,-4.3Z" class="ge_104"/>
<path d="M595.5,1208.7v34.8m1.3,1H845.3m1,-1.4v-34.8m-1.4,-1H596.4" class="gf_104"/>
<path d="M595.5,1243.9v.6h.5m249.7,0h.6v-.6m0,-36v-.6h-.6m-249.7,0h-.5v.6" class="gg_104"/>
<path d="M218.3,220.5c0,0,-13,0,-13,13v47.6c0,0,0,13,13,13h615c0,0,13,0,13,-13V233.5c0,0,0,-13,-13,-13Z" class="gh_104"/>
<image clip-path="url(#c1_104)" preserveAspectRatio="none" x="161" y="217" width="75" height="76" xlink:href="img/1.png"/>
<path d="M213.1,286.7c0,0,-26.8,11.3,-51.1,-12.7c0,0,15.2,25.3,49.3,23.9c0,0,24.7,.4,20.2,-10.1c0,0,1.3,-4.4,-18.4,-1.1Z" class="gh_104"/>
<path d="M218.3,528.8c0,0,-13,0,-13,13v64.9c0,0,0,13,13,13h615c0,0,13,0,13,-13V541.8c0,0,0,-13,-13,-13Z" class="gh_104"/>
<image clip-path="url(#c2_104)" preserveAspectRatio="none" x="161" y="542" width="75" height="77" xlink:href="img/2.png"/>
<path d="M213.1,612.4c0,0,-26.8,11.3,-51.1,-12.8c0,0,15.2,25.3,49.3,24c0,0,24.7,.3,20.2,-10.2c0,0,1.3,-4.4,-18.4,-1Z" class="gh_104"/>
<path d="M140.3,312.5c0,0,-8.5,0,-8.5,8.5V490c0,0,0,8.4,8.5,8.4H837.6c0,0,8.5,0,8.5,-8.4V321c0,0,0,-8.5,-8.5,-8.5Z" class="g6_104"/>
<path d="M140.3,312.5c0,0,-8.5,0,-8.5,8.5V490c0,0,0,8.4,8.5,8.4H837.6c0,0,8.5,0,8.5,-8.4V321c0,0,0,-8.5,-8.5,-8.5H140.3Z" class="gb_104"/>
<image clip-path="url(#c3_104)" preserveAspectRatio="none" x="528" y="379" width="108" height="107" xlink:href="img/3.jpg"/>
<image clip-path="url(#c4_104)" preserveAspectRatio="none" x="195" y="374" width="105" height="105" xlink:href="img/4.jpg"/>
<path d="M198.9,683.7c0,0,-4.4,0,-4.4,4.3v78c0,0,0,4.3,4.4,4.3H796.5c0,0,4.3,0,4.3,-4.3V688c0,0,0,-4.3,-4.3,-4.3Z" class="gd_104"/>
<path d="M297,735.1h62.3" class="gc_104"/>
<path d="M198.9,812.4c0,0,-4.4,0,-4.4,4.3v60.6c0,0,0,4.4,4.4,4.4H796.5c0,0,4.3,0,4.3,-4.4V816.7c0,0,0,-4.3,-4.3,-4.3Z" class="gd_104"/>
<path d="M323.8,866.9H481.5" class="gc_104"/>
<path d="M32.1,45.1H9.2m958.3,0h22.9M32.1,1331.3H9.2m958.3,0h22.9M45.1,32.1V9.2m0,1335.1v22.9M954.5,32.1V9.2m0,1335.1v22.9" class="gi_104"/>
<path d="M32.1,45.1H9.2m958.3,0h22.9M32.1,1331.3H9.2m958.3,0h22.9M45.1,32.1V9.2m0,1335.1v22.9M954.5,32.1V9.2m0,1335.1v22.9" class="gj_104"/>
<path d="M27.5,32.1H0m972.1,0h27.5M27.5,1344.3H0m972.1,0h27.5M32.1,27.5V0m0,1348.9v27.5M967.5,27.5V0m0,1348.9v27.5" class="gi_104"/>
<path d="M27.5,32.1H0m972.1,0h27.5M27.5,1344.3H0m972.1,0h27.5M32.1,27.5V0m0,1348.9v27.5M967.5,27.5V0m0,1348.9v27.5" class="gj_104"/>
</svg>