<?xml version="1.0" encoding="UTF-8" standalone="no"?>
<!DOCTYPE svg PUBLIC "-//W3C//DTD SVG 1.1//EN"
"http://www.w3.org/Graphics/SVG/1.1/DTD/svg11.dtd">
<svg viewBox="0 0 999 1376" version="1.1" xmlns="http://www.w3.org/2000/svg" xmlns:xlink="http://www.w3.org/1999/xlink">
<defs>
<clipPath id="c0_47"><path d="M32.1,1344.3V32.1H967.5V1344.3Z"/></clipPath>
<clipPath id="c1_47"><path d="M543.3,444.6V345.4h99.2v99.2Z"/></clipPath>
<clipPath id="c2_47"><path d="M216.1,611.4V512.2h99.2v99.2Z"/></clipPath>
<clipPath id="c3_47"><path d="M379.7,611.4V512.2h99.2v99.2Z"/></clipPath>
<clipPath id="c4_47"><path d="M543.3,611.4V512.2h99.2v99.2Z"/></clipPath>
<clipPath id="c5_47"><path d="M706.9,611.4V512.2h99.2v99.2Z"/></clipPath>
<clipPath id="c6_47"><path d="M221.5,886.3V821.6h64.7v64.7Z"/></clipPath>
<clipPath id="c7_47"><path d="M226,1184.6V1120h64.7v64.6Z"/></clipPath>
<clipPath id="c8_47"><path d="M227.3,961V896.8H292V961Z"/></clipPath>
<clipPath id="c9_47"><path d="M226.5,1035.9V972h64.7v63.9Z"/></clipPath>
<clipPath id="ca_47"><path d="M223.5,1111.8v-61.9h64.7v61.9Z"/></clipPath>
<clipPath id="cb_47"><path d="M199.7,326.1L193.2,324L176.8,310.1V253h72v73.1Z"/></clipPath>
<clipPath id="cc_47"><path d="M198.7,766.4l-6.5,-2.1L175.8,750.4V693.3h72v73.1Z"/></clipPath>
<clipPath id="cd_47"><path d="M658.6,177V59h200V177Z"/></clipPath>
<style type="text/css"><![CDATA[
.g0_47{
fill: #FEFCF4;
}
.g1_47{
fill: #FFF;
}
.g2_47{
fill: none;
stroke: #6381B7;
stroke-width: 0.763;
}
.g3_47{
fill: none;
stroke: #949698;
stroke-width: 0.381;
}
.g4_47{
fill: #93BEDA;
}
.g5_47{
fill: #EFE9CC;
}
.g6_47{
fill: #6381B7;
}
.g7_47{
fill: none;
stroke: #6381B7;
stroke-width: 0.381;
stroke-dasharray: 2,1;
}
.g8_47{
fill: none;
stroke: #6381B7;
stroke-width: 0.381;
}
.g9_47{
fill: #FCE8B0;
}
.ga_47{
fill: #25408F;
}
.gb_47{
fill: #00BAF1;
}
.gc_47{
fill: #332D2C;
}
.gd_47{
fill: #D9DFF0;
}
.ge_47{
fill: #F27C85;
}
.gf_47{
fill: #7DD3F6;
}
.gg_47{
fill: #2E6E51;
}
.gh_47{
fill: #BCBEC0;
}
.gi_47{
fill: #EE314A;
}
.gj_47{
fill: none;
stroke: #FFF;
stroke-width: 1.909;
stroke-miterlimit: 10;
}
.gk_47{
fill: none;
stroke: #000;
stroke-width: 0.381;
stroke-miterlimit: 10;
}
]]></style>
</defs>
<path clip-path="url(#c0_47)" d="M-877.3,1344.3H45.1V32.1H-877.3V1344.3Z" class="g0_47"/>
<path d="M45.1,1344.3H967.5V32.1H45.1V1344.3Z" class="g0_47"/>
<path d="M172.1,224.6c0,0,-18.4,0,-18.4,18.4V663.4c0,0,0,18.3,18.4,18.3H849.2c0,0,18.3,0,18.3,-18.3V224.6Z" class="g1_47"/>
<path d="M172.1,224.6c0,0,-18.4,0,-18.4,18.4V663.4c0,0,0,18.3,18.4,18.3H849.2c0,0,18.3,0,18.3,-18.3V224.6H172.1Z" class="g2_47"/>
<path d="M205.5,444.6H326V345.4H205.5v99.2Z" class="g1_47"/>
<image preserveAspectRatio="none" x="216" y="345" width="99" height="100" xlink:href="img/1.jpg"/>
<path d="M205.5,444.6H326V345.4H205.5v99.2Z" class="g3_47"/>
<path d="M532.7,444.6H653.2V345.4H532.7v99.2Z" class="g1_47"/>
<image clip-path="url(#c1_47)" preserveAspectRatio="none" x="543" y="345" width="100" height="100" xlink:href="img/2.jpg"/>
<path d="M532.7,444.6H653.2V345.4H532.7v99.2Z" class="g3_47"/>
<path d="M369.1,444.6H489.6V345.4H369.1v99.2Z" class="g1_47"/>
<image preserveAspectRatio="none" x="380" y="345" width="99" height="100" xlink:href="img/3.jpg"/>
<path d="M369.1,444.6H489.6V345.4H369.1v99.2Z" class="g3_47"/>
<path d="M696.3,444.6H816.8V345.4H696.3v99.2Z" class="g1_47"/>
<image preserveAspectRatio="none" x="707" y="345" width="99" height="100" xlink:href="img/4.jpg"/>
<path d="M696.3,444.6H816.8V345.4H696.3v99.2Z" class="g3_47"/>
<path d="M205.5,611.4H326V512.2H205.5v99.2Z" class="g1_47"/>
<image clip-path="url(#c2_47)" preserveAspectRatio="none" x="216" y="512" width="99" height="99" xlink:href="img/5.jpg"/>
<path d="M205.5,611.4H326V512.2H205.5v99.2Z" class="g3_47"/>
<path d="M369.1,611.4H489.6V512.2H369.1v99.2Z" class="g1_47"/>
<image clip-path="url(#c3_47)" preserveAspectRatio="none" x="380" y="512" width="99" height="99" xlink:href="img/6.jpg"/>
<path d="M369.1,611.4H489.6V512.2H369.1v99.2Z" class="g3_47"/>
<path d="M532.7,611.4H653.2V512.2H532.7v99.2Z" class="g1_47"/>
<image clip-path="url(#c4_47)" preserveAspectRatio="none" x="543" y="512" width="100" height="99" xlink:href="img/7.jpg"/>
<path d="M532.7,611.4H653.2V512.2H532.7v99.2Z" class="g3_47"/>
<path d="M696.3,611.4H816.8V512.2H696.3v99.2Z" class="g1_47"/>
<image clip-path="url(#c5_47)" preserveAspectRatio="none" x="707" y="512" width="99" height="99" xlink:href="img/8.jpg"/>
<path d="M696.3,611.4H816.8V512.2H696.3v99.2Z" class="g3_47"/>
<path d="M166.7,782.2c0,0,-13,0,-13,13v389c0,0,0,13,13,13H854.5c0,0,13,0,13,-13v-389c0,0,0,-13,-13,-13Z" class="g1_47"/>
<path d="M166.7,782.2c0,0,-13,0,-13,13v389c0,0,0,13,13,13H854.5c0,0,13,0,13,-13v-389c0,0,0,-13,-13,-13H166.7Z" class="g2_47"/>
<image clip-path="url(#c6_47)" preserveAspectRatio="none" x="221" y="822" width="65" height="64" xlink:href="img/9.jpg"/>
<image clip-path="url(#c7_47)" preserveAspectRatio="none" x="226" y="1120" width="65" height="65" xlink:href="img/10.jpg"/>
<image clip-path="url(#c8_47)" preserveAspectRatio="none" x="227" y="896" width="65" height="65" xlink:href="img/11.jpg"/>
<image clip-path="url(#c9_47)" preserveAspectRatio="none" x="226" y="971" width="65" height="65" xlink:href="img/12.jpg"/>
<image clip-path="url(#ca_47)" preserveAspectRatio="none" x="224" y="1050" width="64" height="63" xlink:href="img/13.jpg"/>
<path d="M307.4,863.6c2,0,3.7,-1.6,3.7,-3.6c0,-2,-1.7,-3.6,-3.7,-3.6c-1.9,0,-3.6,1.6,-3.6,3.6c0,2,1.7,3.6,3.6,3.6Z" class="g4_47"/>
<path d="M307.4,935.6c2,0,3.7,-1.6,3.7,-3.6c0,-2,-1.7,-3.6,-3.7,-3.6c-1.9,0,-3.6,1.6,-3.6,3.6c0,2,1.7,3.6,3.6,3.6Z" class="g4_47"/>
<path d="M307.4,1007.6c2,0,3.7,-1.6,3.7,-3.6c0,-2,-1.7,-3.6,-3.7,-3.6c-1.9,0,-3.6,1.6,-3.6,3.6c0,2,1.7,3.6,3.6,3.6Z" class="g4_47"/>
<path d="M307.4,1079.6c2,0,3.7,-1.6,3.7,-3.6c0,-2,-1.7,-3.6,-3.7,-3.6c-1.9,0,-3.6,1.6,-3.6,3.6c0,2,1.7,3.6,3.6,3.6Z" class="g4_47"/>
<path d="M307.4,1151.6c2,0,3.7,-1.6,3.7,-3.6c0,-2,-1.7,-3.6,-3.7,-3.6c-1.9,0,-3.6,1.6,-3.6,3.6c0,2,1.7,3.6,3.6,3.6Z" class="g4_47"/>
<path d="M546.7,863.6c2,0,3.6,-1.6,3.6,-3.6c0,-2,-1.6,-3.6,-3.6,-3.6c-2,0,-3.6,1.6,-3.6,3.6c0,2,1.6,3.6,3.6,3.6Z" class="g4_47"/>
<path d="M546.7,935.6c2,0,3.6,-1.6,3.6,-3.6c0,-2,-1.6,-3.6,-3.6,-3.6c-2,0,-3.6,1.6,-3.6,3.6c0,2,1.6,3.6,3.6,3.6Z" class="g4_47"/>
<path d="M546.7,1007.6c2,0,3.6,-1.6,3.6,-3.6c0,-2,-1.6,-3.6,-3.6,-3.6c-2,0,-3.6,1.6,-3.6,3.6c0,2,1.6,3.6,3.6,3.6Z" class="g4_47"/>
<path d="M546.7,1079.6c2,0,3.6,-1.6,3.6,-3.6c0,-2,-1.6,-3.6,-3.6,-3.6c-2,0,-3.6,1.6,-3.6,3.6c0,2,1.6,3.6,3.6,3.6Z" class="g4_47"/>
<path d="M546.7,1151.6c2,0,3.6,-1.6,3.6,-3.6c0,-2,-1.6,-3.6,-3.6,-3.6c-2,0,-3.6,1.6,-3.6,3.6c0,2,1.6,3.6,3.6,3.6Z" class="g4_47"/>
<path d="M583.8,844.1c0,0,-8.6,0,-8.6,8.7v15.1c0,0,0,8.7,8.6,8.7H696.4c0,0,8.7,0,8.7,-8.7V852.8c0,0,0,-8.7,-8.7,-8.7Z" class="g5_47"/>
<path d="M583.8,916.1c0,0,-8.6,0,-8.6,8.6v15.2c0,0,0,8.7,8.6,8.7H696.4c0,0,8.7,0,8.7,-8.7V924.7c0,0,0,-8.6,-8.7,-8.6Z" class="g5_47"/>
<path d="M583.8,988.1c0,0,-8.6,0,-8.6,8.6v15.2c0,0,0,8.7,8.6,8.7H696.4c0,0,8.7,0,8.7,-8.7V996.7c0,0,0,-8.6,-8.7,-8.6Z" class="g5_47"/>
<path d="M583.8,1060.1c0,0,-8.6,0,-8.6,8.6v15.2c0,0,0,8.7,8.6,8.7H696.4c0,0,8.7,0,8.7,-8.7v-15.2c0,0,0,-8.6,-8.7,-8.6Z" class="g5_47"/>
<path d="M583.8,1132.1c0,0,-8.6,0,-8.6,8.6v15.2c0,0,0,8.7,8.6,8.7H696.4c0,0,8.7,0,8.7,-8.7v-15.2c0,0,0,-8.6,-8.7,-8.6Z" class="g5_47"/>
<path d="M617.1,1214.8c0,0,-4.3,0,-4.3,4.4V1230c0,0,0,4.3,4.3,4.3h30.3c0,0,4.4,0,4.4,-4.3v-10.8c0,0,0,-4.4,-4.4,-4.4Z" class="g6_47"/>
<path d="M603.9,1206v37.5m1.4,1H866.8m.9,-1.3v-37.6m-1.3,-1H604.9" class="g7_47"/>
<path d="M603.9,1243.9v.6h.6m262.6,0h.6v-.6m0,-38.7v-.6h-.6m-262.6,0h-.6v.6" class="g8_47"/>
<path d="M232.3,281.1c0,0,-13,0,-13,13v21.7c0,0,0,13,13,13h602c0,0,13,0,13,-13V294.1c0,0,0,-13,-13,-13Z" class="g9_47"/>
<image clip-path="url(#cb_47)" preserveAspectRatio="none" x="175" y="251" width="75" height="77" xlink:href="img/14.png"/>
<path d="M227.1,321.4c0,0,-26.9,11.3,-51.1,-12.8c0,0,15.1,25.4,49.3,24c0,0,24.7,.4,20.2,-10.1c0,0,1.2,-4.5,-18.4,-1.1Z" class="g9_47"/>
<path d="M231.3,721.4c0,0,-13,0,-13,13v21.7c0,0,0,13,13,13H854.9c0,0,13,0,13,-13V734.4c0,0,0,-13,-13,-13Z" class="g9_47"/>
<image clip-path="url(#cc_47)" preserveAspectRatio="none" x="174" y="692" width="75" height="76" xlink:href="img/15.png"/>
<path d="M226.1,761.7c0,0,-26.9,11.3,-51.1,-12.8c0,0,15.2,25.4,49.3,24c0,0,24.7,.3,20.2,-10.1c0,0,1.3,-4.5,-18.4,-1.1Z" class="g9_47"/>
<path d="M153.3,217.5v22.2L165,250V227.8Z" class="ga_47"/>
<path d="M153.3,200.7v39H851.1c0,0,16.8,0,16.8,-16.8v-5.4c0,0,0,-16.8,-16.8,-16.8Z" class="g6_47"/>
<path d="M211.3,212.1l-6.5,-6.4l-21.2,21.2l6.5,6.4Z" class="gb_47"/>
<path d="M190.1,233.9c.1,0,.3,-.1,.4,-.2l21.2,-21.2c.1,-.1,.1,-.2,.1,-.4c0,-.1,0,-.2,-.1,-.3l-6.5,-6.5c-.2,-.2,-.6,-.2,-.8,0l-21.2,21.2c-.1,.1,-.1,.2,-.1,.4c0,.1,0,.2,.1,.3l6.5,6.5c.1,.1,.3,.2,.4,.2m20.5,-21.8l-20.5,20.5l-5.8,-5.7l20.5,-20.5Z" class="gc_47"/>
<path d="M211.3,212.1l-6.5,-6.4l2.1,-2.2l6.5,6.5Z" class="gd_47"/>
<path d="M211.3,212.7c.1,0,.3,-.1,.4,-.2l2.1,-2.1c.1,-.1,.2,-.2,.2,-.4c0,-.1,-.1,-.3,-.2,-.4l-6.5,-6.4c-.2,-.3,-.5,-.3,-.7,0l-2.2,2.1c-.1,.1,-.1,.2,-.1,.4c0,.1,0,.2,.1,.3l6.5,6.5c.1,.1,.3,.2,.4,.2m1.4,-2.7l-1.4,1.4l-5.7,-5.7l1.3,-1.4Z" class="gc_47"/>
<path d="M217,206.4l-6.4,-6.5l-3.7,3.6l6.5,6.5Z" class="ge_47"/>
<path d="M213.4,210.5c.2,0,.3,0,.4,-.1l3.6,-3.6c.2,-.2,.2,-.6,0,-.8l-6.5,-6.5c-.2,-.2,-.5,-.2,-.7,0l-3.6,3.7c-.2,.2,-.2,.5,0,.7l6.5,6.5c.1,.1,.2,.1,.3,.1m2.9,-4.1l-2.9,2.9l-5.7,-5.8l2.9,-2.8Z" class="gc_47"/>
<path d="M179,238l4.6,-11.1l6.5,6.4Z" class="g1_47"/>
<path d="M179,238.5c0,0,.1,0,.2,0l11.1,-4.7c.2,0,.3,-.2,.3,-.4c0,-.1,0,-.3,-.1,-.4L184,226.5c-.1,-.1,-.3,-.2,-.5,-.1c-.2,0,-.3,.1,-.4,.3l-4.6,11.1c-.1,.2,0,.4,.1,.6c.1,.1,.2,.1,.4,.1m10.2,-5.3l-9.3,3.8l3.9,-9.2Z" class="gc_47"/>
<path d="M179,238l2.2,-5.4l3.1,3.1Z" class="gc_47"/>
<path d="M179,238.5c0,0,.1,0,.2,0l5.3,-2.3c.2,0,.3,-.2,.4,-.4c0,-.1,-.1,-.3,-.2,-.4l-3.1,-3.2c-.1,-.1,-.3,-.1,-.5,-.1c-.2,0,-.3,.2,-.4,.3l-2.2,5.4c-.1,.2,0,.4,.1,.6c.1,.1,.2,.1,.4,.1m4.4,-2.9l-3.5,1.4l1.5,-3.5Z" class="gc_47"/>
<path d="M209.5,210.4l-2.9,-3l-21.2,21.2l2.9,3Z" class="gf_47"/>
<path d="M188.3,232.1c.2,0,.3,0,.4,-.1l21.2,-21.2c.1,-.1,.2,-.3,.2,-.4c0,-.2,-.1,-.3,-.2,-.4l-3,-3c-.2,-.2,-.5,-.2,-.7,0L185,228.3c-.1,.1,-.2,.2,-.2,.3c0,.2,.1,.3,.2,.4l3,3c.1,.1,.2,.1,.3,.1m20.5,-21.7l-20.5,20.4l-2.2,-2.2l20.5,-20.4Z" class="gc_47"/>
<path d="M32.1,179.3H967.5V32.1H32.1V179.3Z" class="gg_47"/>
<g clip-path="url(#c0_47)">
<path d="M967.5,177.2H-877.3v-5.4h736.6c43.1,0,53.1,-37.9,115.3,-37.9H967.5Z" class="gh_47"/>
<path d="M967.5,183.7H-877.3v-9.8h736.6c43.1,0,53.1,-33.6,115.3,-33.6H967.5Z" class="gi_47"/>
</g>
<image clip-path="url(#cd_47)" preserveAspectRatio="none" x="659" y="59" width="200" height="118" xlink:href="img/16.png"/>
<path d="M32.1,45.1H9.2m958.3,0h22.9M32.1,1331.3H9.2m958.3,0h22.9M45.1,32.1V9.2m0,1335.1v22.9M954.5,32.1V9.2m0,1335.1v22.9" class="gj_47"/>
<path d="M32.1,45.1H9.2m958.3,0h22.9M32.1,1331.3H9.2m958.3,0h22.9M45.1,32.1V9.2m0,1335.1v22.9M954.5,32.1V9.2m0,1335.1v22.9" class="gk_47"/>
<path d="M27.5,32.1H0m972.1,0h27.5M27.5,1344.3H0m972.1,0h27.5M32.1,27.5V0m0,1348.9v27.5M967.5,27.5V0m0,1348.9v27.5" class="gj_47"/>
<path d="M27.5,32.1H0m972.1,0h27.5M27.5,1344.3H0m972.1,0h27.5M32.1,27.5V0m0,1348.9v27.5M967.5,27.5V0m0,1348.9v27.5" class="gk_47"/>
</svg>