<?xml version="1.0" encoding="UTF-8" standalone="no"?>
<!DOCTYPE svg PUBLIC "-//W3C//DTD SVG 1.1//EN"
"http://www.w3.org/Graphics/SVG/1.1/DTD/svg11.dtd">
<svg viewBox="0 0 999 1376" version="1.1" xmlns="http://www.w3.org/2000/svg" xmlns:xlink="http://www.w3.org/1999/xlink">
<defs>
<clipPath id="c0_121"><path d="M83.8,641.6v-242H277.4v242Z"/></clipPath>
<clipPath id="c1_121"><path d="M80.6,638.9V399.1H279.7V638.9Z"/></clipPath>
<clipPath id="c2_121"><path d="M80.3,638.6V398.8H279.4V638.6Z"/></clipPath>
<clipPath id="c3_121"><path d="M750.1,524.3V358.2H940.9V524.3Z"/></clipPath>
<clipPath id="c4_121"><path d="M750.3,526.1V357.3H945V526.1Z"/></clipPath>
<clipPath id="c5_121"><path d="M749.9,525.9V357H944.6V525.9Z"/></clipPath>
<clipPath id="c6_121"><path d="M198.7,239.5l-6.5,-2.1l-16.4,-14V166.3h72v73.2Z"/></clipPath>
<clipPath id="c7_121"><path d="M199.2,816.4l-6.5,-2.1L176.3,800.4V743.3h72v73.1Z"/></clipPath>
<clipPath id="c8_121"><path d="M786.5,132.5V120.1H801v12.4Z"/></clipPath>
<clipPath id="c9_121"><path d="M855,372c-.3,-.1,3.5,-8.3,3.5,-8.3l.8,.5c0,0,-4,7.8,-4.3,7.8Z"/></clipPath>
<clipPath id="ca_121"><path d="M862.5,364.2c0,0,-6.9,-1.1,-7.6,-5.2c-.7,-3.6,1.5,-3.8,2.1,-3.8q.1,0,.1,0l8.3,-12.8l-1.4,-3c0,0,-.6,-1.2,.1,-2.1c0,-.1,.2,-.1,.3,-.1c2.1,0,12.9,5.5,12.9,5.5l.1,.2c-.3,.5,-.7,1.1,-1.4,1.6c-.6,.5,-5.1,1.2,-5.1,1.2l-8.4,18.5Z"/></clipPath>
<clipPath id="cb_121"><path d="M862.1,363.9c.2,-.5,.2,-1.8,0,-2.3v-1.4c-1.6,-.5,-2.9,-1.2,-3.7,-2.5c-1.1,.6,-2.1,1.2,-3.1,1.9c1.5,2.1,3.8,3.6,6.8,4.3Zm0,-3.9c2.2,-4.6,4,-9.5,6.1,-14.1c-.9,-.4,-1.8,-1.3,-2.6,-1.4c-2.3,4.3,-4.6,8.7,-7,12.8c.7,1.4,2.1,2,3.5,2.7Zm-7.3,12c1,-2.8,2.4,-5.4,3.5,-8.3c-2,-1.5,-3.9,-3.1,-4.4,-6.1v-1.5c0,-2.7,1.9,-3.4,4.6,-3.4c0,0,.1,0,.2,0c1.9,-3.3,4.2,-6.3,6.1,-9.7c-.5,-.8,-1.1,-2.3,-.8,-3.6c.5,1.2,1.6,1.9,2.3,2.9c-.1,.6,-.2,1.1,-.3,1.7c.6,.7,1.3,1.2,2.4,1.4c.4,-.4,.5,-1.2,1.1,-1.5c.9,.4,1.8,.7,3.1,.7c.2,.2,.5,.2,.8,.2c.4,0,.7,0,.9,-.2c.1,.1,.2,.1,.3,.1c.2,0,.4,-.1,.6,-.1c.2,-.1,.3,-.2,.5,-.2c.1,0,.2,0,.3,.1c-1.3,.7,-2.2,1.8,-4.2,1.8c-.1,0,-.2,0,-.3,0c-.9,3.7,-1.9,7.3,-2.6,11.2c.5,1,1.5,1.7,1.2,3.1c-.4,2.7,-3.8,4.4,-7.2,4.4c-1.2,0,-2.5,-.2,-3.6,-.8c-1,2.2,-2.1,4.2,-3.3,6.1c0,-.4,.3,-.4,.3,-.8c.9,-1.8,1.9,-3.6,2.6,-5.6c-1,1.7,-1.8,3.7,-2.7,5.5c-.2,.4,-.5,.8,-.7,1.3c-.3,.4,-.3,1.1,-.7,1.3Z"/></clipPath>
<clipPath id="cc_121"><path d="M872.5,344.3c-4.8,0,-13.1,-7.3,-5.5,-8.8h1.2c.2,0,.3,0,.5,0c.1,0,.2,0,.2,0c.3,0,.7,0,1.1,.1c3.1,.6,8.2,3.8,7.5,7c-.2,1.2,-1.5,1.6,-3.1,1.7h-1.9Z"/></clipPath>
<clipPath id="cd_121"><path d="M168.3,415.5c-.3,-.1,3.5,-8.3,3.5,-8.3l.8,.6c0,0,-4,7.7,-4.3,7.7Z"/></clipPath>
<clipPath id="ce_121"><path d="M175.8,407.7c0,0,-6.9,-1.1,-7.6,-5.2c-.7,-3.6,1.5,-3.8,2.1,-3.8q.1,0,.1,0l8.3,-12.8l-1.4,-3c0,0,-.6,-1.2,.1,-2.1c0,-.1,.2,-.1,.3,-.1c2.1,0,12.9,5.5,12.9,5.5l.1,.2c-.3,.5,-.7,1.1,-1.4,1.6c-.6,.5,-5.1,1.2,-5.1,1.2l-8.4,18.5Z"/></clipPath>
<clipPath id="cf_121"><path d="M175.4,407.4c.2,-.5,.2,-1.8,0,-2.3v-1.4c-1.6,-.5,-2.9,-1.2,-3.7,-2.5c-1.1,.6,-2.1,1.2,-3.1,1.9c1.5,2.1,3.8,3.6,6.8,4.3Zm0,-3.9c2.2,-4.6,4,-9.5,6.1,-14.1c-.9,-.4,-1.8,-1.3,-2.6,-1.4c-2.3,4.3,-4.6,8.7,-7,12.8c.7,1.4,2,2,3.5,2.7Zm-7.3,12c1,-2.9,2.4,-5.4,3.5,-8.3c-2,-1.5,-3.9,-3.1,-4.4,-6.1v-1.5c0,-2.7,1.9,-3.4,4.6,-3.4q.1,0,.2,0c1.9,-3.3,4.2,-6.3,6.1,-9.7c-.5,-.8,-1.1,-2.3,-.8,-3.6c.5,1.2,1.6,1.9,2.3,2.9c-.1,.6,-.2,1.1,-.3,1.7c.6,.7,1.3,1.2,2.4,1.4c.4,-.4,.5,-1.2,1.1,-1.5c.9,.3,1.8,.7,3.1,.7c.2,.2,.5,.2,.8,.2c.4,0,.7,0,.9,-.2c.1,.1,.2,.1,.3,.1c.2,0,.4,-.1,.6,-.1c.2,-.1,.3,-.2,.5,-.2c.1,0,.2,0,.3,.1c-1.3,.7,-2.2,1.8,-4.2,1.8c-.1,0,-.2,0,-.3,0c-.9,3.7,-1.9,7.3,-2.6,11.2c.5,1,1.5,1.7,1.2,3.1c-.4,2.7,-3.8,4.4,-7.2,4.4c-1.3,0,-2.5,-.2,-3.6,-.7c-1,2,-2.1,4.1,-3.3,6c0,-.4,.3,-.4,.3,-.8c.9,-1.8,1.9,-3.6,2.6,-5.6c-1,1.7,-1.8,3.7,-2.7,5.5c-.2,.4,-.5,.8,-.7,1.3c-.3,.4,-.3,1.1,-.7,1.3Z"/></clipPath>
<clipPath id="cg_121"><path d="M185.8,387.8c-4.8,0,-13.1,-7.3,-5.5,-8.8h1.2c.2,0,.5,0,.7,0c.1,0,.2,0,.2,0c.3,0,.6,0,.9,.1c3.1,.6,8.2,3.8,7.5,7c-.2,1.2,-1.5,1.6,-3.1,1.7h-1.9Z"/></clipPath>
<style type="text/css"><![CDATA[
.g0_121{
fill: #FEFCF4;
}
.g1_121{
fill: #FFF;
}
.g2_121{
fill: none;
stroke: #6381B7;
stroke-width: 0.763;
}
.g3_121{
fill: #F7C2D9;
}
.g4_121{
fill: #FDF4F3;
}
.g5_121{
fill: #EC008C;
}
.g6_121{
fill: none;
stroke: #949698;
stroke-width: 0.305;
stroke-dasharray: 4,4;
}
.g7_121{
fill: none;
stroke: #949698;
stroke-width: 0.305;
}
.g8_121{
fill: none;
stroke: #949698;
stroke-width: 0.305;
stroke-dasharray: 3,3;
}
.g9_121{
fill: #818385;
}
.ga_121{
fill: #6D6F71;
}
.gb_121{
fill: #FCE8B0;
}
.gc_121{
fill: #6381B7;
}
.gd_121{
fill: none;
stroke: #6381B7;
stroke-width: 0.381;
stroke-dasharray: 2,1;
}
.ge_121{
fill: none;
stroke: #6381B7;
stroke-width: 0.381;
}
.gf_121{
fill: #25408F;
}
.gg_121{
fill: #A8AAAD;
}
.gh_121{
fill: none;
stroke: #949698;
stroke-width: 0.549;
}
.gi_121{
fill: none;
stroke: #BCBEC0;
stroke-width: 2.566;
}
.gj_121{
fill: #231F20;
}
.gk_121{
fill: #363637;
}
.gl_121{
fill: #5CC4BE;
}
.gm_121{
fill: #F0D73F;
}
.gn_121{
fill: none;
stroke: #00ABE5;
stroke-width: 2.291;
}
.go_121{
fill: #3D3B39;
}
.gp_121{
fill: #E5E9B7;
}
.gq_121{
fill: #61C7CB;
}
.gr_121{
fill: none;
stroke: #00ABE5;
stroke-width: 1.527;
stroke-linecap: round;
stroke-linejoin: round;
stroke-dasharray: 0,5;
}
.gs_121{
fill: none;
stroke: #00ABE5;
stroke-width: 1.527;
stroke-linecap: round;
stroke-linejoin: round;
}
.gt_121{
fill: none;
stroke: #FFF;
stroke-width: 1.909;
stroke-miterlimit: 10;
}
.gu_121{
fill: none;
stroke: #000;
stroke-width: 0.381;
stroke-miterlimit: 10;
}
]]></style>
</defs>
<path d="M45.1,1344.3H967.5V32.1H45.1V1344.3Z" class="g0_121"/>
<path d="M172.1,137.3c0,0,-18.4,0,-18.4,18.4V704.5c0,0,0,18.4,18.4,18.4H849.2c0,0,18.3,0,18.3,-18.4V137.3Z" class="g1_121"/>
<path d="M172.1,137.3c0,0,-18.4,0,-18.4,18.4V704.5c0,0,0,18.4,18.4,18.4H849.2c0,0,18.3,0,18.3,-18.4V137.3H172.1Z" class="g2_121"/>
<image clip-path="url(#c0_121)" preserveAspectRatio="none" x="83" y="400" width="194" height="242" xlink:href="img/1.png"/>
<path d="M91,404.8L89.1,631.4l180.7,4.1l1.5,-228.2Z" class="g3_121"/>
<image clip-path="url(#c1_121)" preserveAspectRatio="none" x="80" y="399" width="200" height="240" xlink:href="img/2.png"/>
<image clip-path="url(#c2_121)" preserveAspectRatio="none" x="80" y="399" width="199" height="240" xlink:href="img/3.png"/>
<path d="M85.3,410.7l9.1,221.7L243.1,627l30.2,-26.6L265.4,403.7Z" class="g4_121"/>
<path d="M242,627.7l31.9,-26.4L257.3,596Z" class="g5_121"/>
<path d="M385.9,504.5c16.4,-.8,29.5,-6.1,32.6,-12.9m-.8,-7.5C413.5,477.7,400.3,473,384.4,472.4m-8,.1c-16.3,.8,-29.5,6.1,-32.5,12.9m.7,7.5c4.3,6.4,17.5,11.1,33.4,11.7" class="g6_121"/>
<path d="M419,490.1c.1,-.5,.2,-1.1,.2,-1.6c0,-.5,-.1,-1.1,-.2,-1.6M382.8,472.4c-.6,0,-1.1,0,-1.6,0c-.5,0,-1.1,0,-1.6,0m-36.2,14.5c-.2,.5,-.2,1.1,-.2,1.6c0,.5,0,1.1,.2,1.6m36.2,14.5c.5,0,1.1,0,1.6,0c.5,0,1,0,1.6,0" class="g7_121"/>
<path d="M680.9,479.3c13.2,-.7,23.8,-4.5,26.8,-9.4m-.9,-7c-4.1,-4.5,-14.7,-7.8,-27.4,-8.3m-7.7,.1c-13.2,.7,-23.8,4.5,-26.9,9.4m1,7c4.1,4.5,14.7,7.8,27.4,8.3" class="g6_121"/>
<path d="M708.4,468.5c.1,-.5,.2,-1,.2,-1.5c0,-.5,-.1,-1,-.2,-1.5M677.8,454.6c-.5,0,-1,0,-1.5,0c-.5,0,-1.1,0,-1.6,0m-30.5,10.9c-.2,.5,-.3,1,-.3,1.5c0,.5,.1,1,.3,1.5m30.5,10.9c.5,0,1.1,0,1.6,0c.5,0,1,0,1.5,0" class="g7_121"/>
<path d="M384,468.1C377.1,449.3,343.8,375.9,242.9,366.5" class="g6_121"/>
<path d="M235.4,366.2c-5.8,.7,-2.1,4.6,1.4,6.2" class="g8_121"/>
<path d="M242.7,369.8c.8,-3.2,-1.3,-7.8,-12.2,-9.2m-7.7,-.4c-23.4,1,-78.4,17.6,-101.8,48.3" class="g6_121"/>
<path d="M385.5,472.5c0,0,-.2,-.5,-.5,-1.5M241.4,366.3c-.5,0,-1.1,-.1,-1.6,-.1c-.5,0,-1,-.1,-1.4,-.1m-.2,6.8c.5,.1,1,.1,1.4,.1c.5,0,1,-.3,1.5,-.6M229,360.4c-.5,-.1,-1,-.1,-1.6,-.2c-.5,0,-1,0,-1.5,0M120,409.7c-.3,.4,-.5,.8,-.8,1.2" class="g7_121"/>
<path d="M126.1,408.5l-7.3,-5l-2.7,11.8Z" class="g9_121"/>
<path d="M692.7,459.2c11.6,-1,20.8,-5.8,23,-12m-.6,-6.9c-3,-5.8,-12.4,-10.2,-23.8,-10.8m-7.1,.1c-11.6,1,-20.8,5.8,-23,12m.6,6.9c3,5.8,12.4,10.1,23.8,10.8" class="g8_121"/>
<path d="M716.1,445.8c0,-.5,.1,-.9,.1,-1.4c0,-.5,-.1,-1,-.1,-1.4M689.9,429.5c-.5,-.1,-1,-.1,-1.4,-.1c-.5,0,-1,0,-1.5,.1M660.9,443c-.1,.4,-.2,.9,-.2,1.4c0,.5,.1,.9,.2,1.4M687,459.3c.5,0,1,0,1.5,0c.4,0,.9,0,1.4,0" class="g7_121"/>
<image clip-path="url(#c3_121)" preserveAspectRatio="none" x="749" y="359" width="191" height="166" xlink:href="img/4.png"/>
<path d="M755.5,363.9l-.1,154.3l178.8,-.5l.2,-154.1Z" class="g3_121"/>
<image clip-path="url(#c4_121)" preserveAspectRatio="none" x="750" y="357" width="195" height="169" xlink:href="img/5.png"/>
<image clip-path="url(#c5_121)" preserveAspectRatio="none" x="749" y="357" width="195" height="169" xlink:href="img/6.png"/>
<path d="M759.8,362.2L755,513l145.7,6.5l34.2,-19.8l3.6,-129.3Z" class="g4_121"/>
<path d="M900.7,519.6l34.1,-19.1l-13.2,-9.7Z" class="g5_121"/>
<path d="M691.2,430.1c0,0,1.7,-52.8,67,-50.3" class="g6_121"/>
<path d="M753.2,374.5l.8,8.7l10.9,-5.4Z" class="ga_121"/>
<path d="M366.4,431.9c0,0,193.2,-32,282.9,26.8" class="g6_121"/>
<path d="M231.3,168.5c0,0,-13,0,-13,13v47.6c0,0,0,13,13,13h602c0,0,13,0,13,-13V181.5c0,0,0,-13,-13,-13Z" class="gb_121"/>
<image clip-path="url(#c6_121)" preserveAspectRatio="none" x="174" y="165" width="75" height="76" xlink:href="img/7.png"/>
<path d="M226.1,234.8c0,0,-26.9,11.3,-51.1,-12.8c0,0,15.2,25.3,49.3,24c0,0,24.7,.3,20.2,-10.2c0,0,1.3,-4.4,-18.4,-1Z" class="gb_121"/>
<path d="M166.7,732.3c0,0,-13,0,-13,13V882.9c0,0,0,13,13,13H854.5c0,0,13,0,13,-13V745.3c0,0,0,-13,-13,-13Z" class="g1_121"/>
<path d="M166.7,732.3c0,0,-13,0,-13,13V882.9c0,0,0,13,13,13H854.5c0,0,13,0,13,-13V745.3c0,0,0,-13,-13,-13H166.7Z" class="g2_121"/>
<path d="M394.5,914.6c0,0,-4.3,0,-4.3,4.4v10.8c0,0,0,4.3,4.3,4.3h30.3c0,0,4.4,0,4.4,-4.3V919c0,0,0,-4.4,-4.4,-4.4Z" class="gc_121"/>
<path d="M381.3,905.8v37.6m1.4,.9H866.8m.9,-1.3V905.4m-1.3,-.9H382.3" class="gd_121"/>
<path d="M381.3,943.7v.6h.6m485.3,0h.5v-.6m0,-38.7v-.5h-.5m-485.3,0h-.6v.5" class="ge_121"/>
<path d="M231.8,771.4c0,0,-13,0,-13,13v21.7c0,0,0,13,13,13h602c0,0,13,0,13,-13V784.4c0,0,0,-13,-13,-13Z" class="gb_121"/>
<image clip-path="url(#c7_121)" preserveAspectRatio="none" x="175" y="742" width="75" height="76" xlink:href="img/8.png"/>
<path d="M226.6,811.7c0,0,-26.8,11.3,-51.1,-12.7c0,0,15.2,25.3,49.3,23.9c0,0,24.7,.4,20.2,-10.1c0,0,1.3,-4.5,-18.4,-1.1Z" class="gb_121"/>
<path d="M153.3,111.9v39L165,161.2V117Z" class="gf_121"/>
<path d="M153.3,111.9v39H851.1c0,0,16.8,0,16.8,-16.8v-5.3c0,0,0,-16.9,-16.8,-16.9Z" class="gc_121"/>
<path d="M802.6,145.6c8.2,0,14.9,-6.5,14.9,-14.5c0,-8.1,-6.7,-14.5,-14.9,-14.5c-8.2,0,-14.9,6.4,-14.9,14.5c0,8,6.7,14.5,14.9,14.5Z" class="gg_121"/>
<path d="M802.6,145.6c8.2,0,14.9,-6.5,14.9,-14.5c0,-8.1,-6.7,-14.5,-14.9,-14.5c-8.2,0,-14.9,6.4,-14.9,14.5c0,8,6.7,14.5,14.9,14.5Z" class="gh_121"/>
<path d="M802.6,136.4c3,0,5.5,-2.4,5.5,-5.3c0,-3,-2.5,-5.4,-5.5,-5.4c-3,0,-5.5,2.4,-5.5,5.4c0,2.9,2.5,5.3,5.5,5.3Z" class="g1_121"/>
<path d="M802.6,136.4c3,0,5.5,-2.4,5.5,-5.3c0,-3,-2.5,-5.4,-5.5,-5.4c-3,0,-5.5,2.4,-5.5,5.4c0,2.9,2.5,5.3,5.5,5.3Z" class="gi_121"/>
<g clip-path="url(#c8_121)" opacity="0.3">
<path d="M788,130.3c0,0,0,-4.8,3.7,-8.7l7.7,6.8c0,0,-1,.9,-1,2.6Z" class="g1_121"/>
</g>
<path d="M807.2,131c0,0,-3.5,0,-3.5,3.4v8.7c0,0,0,3.5,3.5,3.5h43.5c0,0,3.5,0,3.5,-3.5v-8.7c0,0,0,-3.4,-3.5,-3.4Z" class="gj_121"/>
<path d="M191.2,122c0,-8.3,-6.8,-15,-15.1,-15c-8.3,0,-15,6.7,-15,15c0,8.3,6.7,15.1,15,15.1c.8,0,1.7,-.1,2.4,-.2l4.5,5.2v-6.7c4.9,-2.5,8.2,-7.6,8.2,-13.4Z" class="g1_121"/>
<path d="M183.5,143.3l-5.1,-5.9c-.8,.1,-1.5,.1,-2.3,.1c-8.5,0,-15.5,-6.9,-15.5,-15.5c0,-8.5,7,-15.5,15.5,-15.5c8.6,0,15.5,7,15.5,15.5c0,5.7,-3.1,11,-8.1,13.7Zm-4.8,-6.9l3.9,4.5v-5.8l.2,-.1c4.9,-2.5,7.9,-7.5,7.9,-13c0,-8,-6.5,-14.6,-14.6,-14.6c-8,0,-14.6,6.6,-14.6,14.6c0,8.1,6.6,14.6,14.6,14.6c.8,0,1.6,-.1,2.4,-.2Z" class="gk_121"/>
<path d="M169.1,121.6c.8,0,1.4,.6,1.4,1.4c0,.8,-.6,1.5,-1.4,1.5c-.8,0,-1.4,-.7,-1.4,-1.5c0,-.8,.6,-1.4,1.4,-1.4Z" class="gl_121"/>
<path d="M169.1,124.9c-1,0,-1.9,-.8,-1.9,-1.9c0,-1,.9,-1.9,1.9,-1.9c1,0,1.9,.9,1.9,1.9c0,1.1,-.9,1.9,-1.9,1.9m0,-2.9c-.5,0,-1,.5,-1,1c0,.6,.5,1,1,1c.5,0,1,-.4,1,-1c0,-.5,-.5,-1,-1,-1Z" class="gk_121"/>
<path d="M176.1,121.6c.8,0,1.5,.6,1.5,1.4c0,.8,-.7,1.5,-1.5,1.5c-.8,0,-1.4,-.7,-1.4,-1.5c0,-.8,.6,-1.4,1.4,-1.4Z" class="gl_121"/>
<path d="M176.1,124.9c-1,0,-1.9,-.8,-1.9,-1.9c0,-1,.9,-1.9,1.9,-1.9c1.1,0,1.9,.9,1.9,1.9c0,1.1,-.8,1.9,-1.9,1.9m0,-2.9c-.5,0,-1,.5,-1,1c0,.6,.5,1,1,1c.6,0,1,-.4,1,-1c0,-.5,-.4,-1,-1,-1Z" class="gk_121"/>
<path d="M183.1,121.6c.8,0,1.5,.6,1.5,1.4c0,.8,-.7,1.5,-1.5,1.5c-.8,0,-1.4,-.7,-1.4,-1.5c0,-.8,.6,-1.4,1.4,-1.4Z" class="gl_121"/>
<path d="M183.1,124.9c-1,0,-1.9,-.8,-1.9,-1.9c0,-1,.9,-1.9,1.9,-1.9c1.1,0,1.9,.9,1.9,1.9c0,1.1,-.8,1.9,-1.9,1.9m0,-2.9c-.5,0,-1,.5,-1,1c0,.6,.5,1,1,1c.6,0,1,-.4,1,-1c0,-.5,-.4,-1,-1,-1Z" class="gk_121"/>
<path d="M185.1,136.3c0,-9.8,7.8,-17.7,17.6,-17.7c9.7,0,17.6,7.9,17.6,17.7c0,9.7,-7.9,17.6,-17.6,17.6c-1,0,-1.9,-.1,-2.9,-.3l-5.2,6.1v-7.8c-5.7,-2.9,-9.5,-8.8,-9.5,-15.6Z" class="gm_121"/>
<path d="M194.6,160.2q-.1,0,-.2,0c-.2,-.1,-.3,-.3,-.3,-.5v-7.5c-5.9,-3.2,-9.5,-9.2,-9.5,-15.9c0,-10,8.1,-18.1,18.1,-18.1c9.9,0,18,8.1,18,18.1c0,9.9,-8.1,18,-18,18c-.9,0,-1.8,0,-2.7,-.2l-5.1,5.9c-.1,.1,-.2,.2,-.3,.2m8.1,-41.1c-9.5,0,-17.2,7.7,-17.2,17.2c0,6.4,3.6,12.2,9.3,15.2c.1,.1,.2,.2,.2,.4v6.6l4.5,-5.2c.1,-.1,.3,-.1,.4,-.1c1,.1,1.9,.2,2.8,.2c9.4,0,17.1,-7.7,17.1,-17.1c0,-9.5,-7.7,-17.2,-17.1,-17.2Z" class="gk_121"/>
<path d="M210.9,135.8c.9,0,1.6,.7,1.6,1.6c0,1,-.7,1.7,-1.6,1.7c-1,0,-1.7,-.7,-1.7,-1.7c0,-.9,.7,-1.6,1.7,-1.6Z" class="g1_121"/>
<path d="M210.9,139.6c-1.2,0,-2.2,-1,-2.2,-2.2c0,-1.1,1,-2.1,2.2,-2.1c1.1,0,2.1,1,2.1,2.1c0,1.2,-1,2.2,-2.1,2.2m0,-3.4c-.7,0,-1.3,.6,-1.3,1.2c0,.7,.6,1.3,1.3,1.3c.6,0,1.2,-.6,1.2,-1.3c0,-.6,-.6,-1.2,-1.2,-1.2Z" class="gk_121"/>
<path d="M202.7,135.8c.9,0,1.6,.7,1.6,1.6c0,1,-.7,1.7,-1.6,1.7c-1,0,-1.7,-.7,-1.7,-1.7c0,-.9,.7,-1.6,1.7,-1.6Z" class="g1_121"/>
<path d="M202.7,139.6c-1.2,0,-2.2,-1,-2.2,-2.2c0,-1.1,1,-2.1,2.2,-2.1c1.1,0,2.1,1,2.1,2.1c0,1.2,-1,2.2,-2.1,2.2m0,-3.4c-.7,0,-1.3,.6,-1.3,1.2c0,.7,.6,1.3,1.3,1.3c.6,0,1.2,-.6,1.2,-1.3c0,-.6,-.6,-1.2,-1.2,-1.2Z" class="gk_121"/>
<path d="M194.5,135.8c.9,0,1.6,.7,1.6,1.6c0,1,-.7,1.7,-1.6,1.7c-1,0,-1.7,-.7,-1.7,-1.7c0,-.9,.7,-1.6,1.7,-1.6Z" class="g1_121"/>
<path d="M194.5,139.6c-1.2,0,-2.2,-1,-2.2,-2.2c0,-1.1,1,-2.1,2.2,-2.1c1.1,0,2.1,1,2.1,2.1c0,1.2,-1,2.2,-2.1,2.2m0,-3.4c-.7,0,-1.2,.6,-1.2,1.2c0,.7,.5,1.3,1.2,1.3c.6,0,1.2,-.6,1.2,-1.3c0,-.6,-.6,-1.2,-1.2,-1.2Z" class="gk_121"/>
<image clip-path="url(#c9_121)" x="854" y="363" width="6" height="10" xlink:href="shade/1.png"/>
<image clip-path="url(#ca_121)" x="854" y="337" width="24" height="28" xlink:href="shade/2.png"/>
<image clip-path="url(#cb_121)" x="853" y="339" width="24" height="34" xlink:href="shade/3.png"/>
<image clip-path="url(#cc_121)" x="859" y="335" width="20" height="10" xlink:href="shade/4.png"/>
<image clip-path="url(#cd_121)" x="168" y="407" width="5" height="9" xlink:href="shade/5.png"/>
<image clip-path="url(#ce_121)" x="167" y="380" width="24" height="28" xlink:href="shade/6.png"/>
<image clip-path="url(#cf_121)" x="167" y="382" width="23" height="34" xlink:href="shade/7.png"/>
<image clip-path="url(#cg_121)" x="172" y="378" width="20" height="10" xlink:href="shade/8.png"/>
<path d="M155.3,1028V999.3c0,0,0,-4.3,4.3,-4.3H863.2c0,0,4.3,0,4.3,4.3v29.2" class="gn_121"/>
<path d="M200.8,995.5c2.7,0,4.8,-2.1,4.8,-4.8c0,-2.6,-2.1,-4.8,-4.8,-4.8c-2.6,0,-4.8,2.2,-4.8,4.8c0,2.7,2.2,4.8,4.8,4.8Z" class="g1_121"/>
<path d="M200.8,997.4c3.7,0,6.7,-3,6.7,-6.7c0,-3.7,-3,-6.7,-6.7,-6.7c-3.7,0,-6.7,3,-6.7,6.7c0,3.7,3,6.7,6.7,6.7m0,-11.5c2.7,0,4.8,2.2,4.8,4.8c0,2.7,-2.1,4.8,-4.8,4.8c-2.6,0,-4.8,-2.1,-4.8,-4.8c0,-2.6,2.2,-4.8,4.8,-4.8Z" class="go_121"/>
<path d="M206.2,999.3H195.4c-.2,0,-.3,0,-.5,0c2.8,1.1,5,3.4,5.9,6.2c1.4,-.5,2.8,-.8,4.3,-.8c2.8,0,5.4,1,7.5,2.7v-1.8c0,-3.4,-2.9,-6.3,-6.4,-6.3Z" class="g1_121"/>
<path d="M184.8,996.3c3.3,0,6.1,-2.7,6.1,-6.1c0,-3.4,-2.8,-6.1,-6.1,-6.1c-3.4,0,-6.2,2.7,-6.2,6.1c0,3.4,2.8,6.1,6.2,6.1Z" class="gp_121"/>
<path d="M184.8,998.2c4.4,0,8,-3.6,8,-8c0,-4.4,-3.6,-8,-8,-8c-4.5,0,-8.1,3.6,-8.1,8c0,4.4,3.6,8,8.1,8m0,-14.1c3.3,0,6.1,2.7,6.1,6.1c0,3.4,-2.8,6.1,-6.1,6.1c-3.4,0,-6.2,-2.7,-6.2,-6.1c0,-3.4,2.8,-6.1,6.2,-6.1Z" class="go_121"/>
<path d="M199.1,1006.4c-1,-3.4,-4,-5.8,-7.7,-5.8H178.1c-4.4,0,-8,3.6,-8,8v4.3h23.7c.9,-2.8,2.8,-5.1,5.3,-6.5Z" class="gp_121"/>
<path d="M205.1,1006.6c-5.5,0,-10,4.5,-10,10c0,5.5,4.5,10,10,10c5.5,0,10,-4.5,10,-10c0,-5.5,-4.5,-10,-10,-10m6.7,11.7c0,.2,-.2,.5,-.5,.5h-4v4c0,.3,-.3,.5,-.5,.5h-3.4c-.2,0,-.5,-.2,-.5,-.5v-4h-4c-.3,0,-.5,-.3,-.5,-.5v-3.4c0,-.2,.2,-.5,.5,-.5h4v-4c0,-.3,.3,-.5,.5,-.5h3.4c.2,0,.5,.2,.5,.5v4h4c.3,0,.5,.3,.5,.5Z" class="gq_121"/>
<path d="M214.5,1009.3v-3.7c0,-4.5,-3.7,-8.2,-8.3,-8.2H195.4c-1.6,0,-3.1,.5,-4.4,1.3H178.1c-5.5,0,-9.9,4.4,-9.9,9.9v5.2c0,.6,.4,1,.9,1h24.3c-.1,.6,-.2,1.2,-.2,1.8c0,6.5,5.4,11.9,11.9,11.9c6.5,0,11.9,-5.4,11.9,-11.9c0,-2.7,-1,-5.3,-2.5,-7.3m-9.4,17.3c-5.5,0,-10,-4.5,-10,-10c0,-5.5,4.5,-10,10,-10c5.5,0,10,4.5,10,10c0,5.5,-4.5,10,-10,10m-35,-18c0,-4.4,3.6,-8,8,-8h13.3c3.7,0,6.7,2.4,7.7,5.8c-2.5,1.4,-4.4,3.7,-5.3,6.5H170.1Zm42.5,-1.2c-2.1,-1.7,-4.7,-2.7,-7.5,-2.7c-1.5,0,-2.9,.3,-4.3,.8c-.9,-2.8,-3.1,-5.1,-5.9,-6.2c.2,0,.3,0,.5,0h10.8c3.5,0,6.4,2.9,6.4,6.3Z" class="go_121"/>
<path d="M206.3,1014.9v-4h-2.4v4c0,.3,-.2,.5,-.5,.5h-4v2.4h4c.3,0,.5,.2,.5,.5v4h2.4v-4c0,-.3,.2,-.5,.5,-.5h4v-2.4h-4c-.3,0,-.5,-.2,-.5,-.5Z" class="g1_121"/>
<path d="M211.3,1014.4h-4v-4c0,-.3,-.3,-.5,-.5,-.5h-3.4c-.2,0,-.5,.2,-.5,.5v4h-4c-.3,0,-.5,.3,-.5,.5v3.4c0,.2,.2,.5,.5,.5h4v4c0,.3,.3,.5,.5,.5h3.4c.2,0,.5,-.2,.5,-.5v-4h4c.3,0,.5,-.3,.5,-.5v-3.4c0,-.2,-.2,-.5,-.5,-.5m-.5,3.4h-4c-.3,0,-.5,.2,-.5,.5v4h-2.4v-4c0,-.3,-.2,-.5,-.5,-.5h-4v-2.4h4c.3,0,.5,-.2,.5,-.5v-4h2.4v4c0,.3,.2,.5,.5,.5h4Z" class="go_121"/>
<path d="M154.9,1038.1v203.5m4.5,2.3H865.6m2.3,-4.6V1035.8m-4.6,-2.2H157.2" class="gr_121"/>
<path d="M154.9,1243.9v0m713,0v0m0,-210.3v0m-713,0v0" class="gs_121"/>
<path d="M32.1,45.1H9.2m958.3,0h22.9M32.1,1331.3H9.2m958.3,0h22.9M45.1,32.1V9.2m0,1335.1v22.9M954.5,32.1V9.2m0,1335.1v22.9" class="gt_121"/>
<path d="M32.1,45.1H9.2m958.3,0h22.9M32.1,1331.3H9.2m958.3,0h22.9M45.1,32.1V9.2m0,1335.1v22.9M954.5,32.1V9.2m0,1335.1v22.9" class="gu_121"/>
<path d="M27.5,32.1H0m972.1,0h27.5M27.5,1344.3H0m972.1,0h27.5M32.1,27.5V0m0,1348.9v27.5M967.5,27.5V0m0,1348.9v27.5" class="gt_121"/>
<path d="M27.5,32.1H0m972.1,0h27.5M27.5,1344.3H0m972.1,0h27.5M32.1,27.5V0m0,1348.9v27.5M967.5,27.5V0m0,1348.9v27.5" class="gu_121"/>
</svg>