<?xml version="1.0" encoding="UTF-8" standalone="no"?>
<!DOCTYPE svg PUBLIC "-//W3C//DTD SVG 1.1//EN"
"http://www.w3.org/Graphics/SVG/1.1/DTD/svg11.dtd">
<svg viewBox="0 0 999 1376" version="1.1" xmlns="http://www.w3.org/2000/svg" xmlns:xlink="http://www.w3.org/1999/xlink">
<defs>
<clipPath id="c0_69"><path d="M32.1,1344.3V32.1H967.5V1344.3Z"/></clipPath>
<clipPath id="c1_69"><path d="M215,749V622.5H854.2V749Z"/></clipPath>
<clipPath id="c2_69"><path d="M215,940.8V815.9H854.2V940.8Z"/></clipPath>
<clipPath id="c3_69"><path d="M215,1134.4V1007.9H854.2v126.5Z"/></clipPath>
<style type="text/css"><![CDATA[
.g0_69{
fill: #FEFCF4;
}
.g1_69{
fill: #F16865;
}
.g2_69{
fill: #FFF;
}
.g3_69{
fill: none;
stroke: #6381B7;
stroke-width: 0.763;
}
.g4_69{
fill: #6381B7;
}
.g5_69{
fill: none;
stroke: #6381B7;
stroke-width: 0.381;
stroke-dasharray: 2,1;
}
.g6_69{
fill: none;
stroke: #6381B7;
stroke-width: 0.381;
}
.g7_69{
fill: #8B9FCA;
}
.g8_69{
fill: #FEF9F9;
}
.g9_69{
fill: none;
stroke: #A164A9;
stroke-width: 1.527;
stroke-linecap: round;
stroke-linejoin: round;
stroke-dasharray: 0,5;
}
.ga_69{
fill: none;
stroke: #A164A9;
stroke-width: 1.527;
stroke-linecap: round;
stroke-linejoin: round;
}
.gb_69{
fill: #A164A9;
}
.gc_69{
fill: none;
stroke: #FFF;
stroke-width: 1.909;
stroke-miterlimit: 10;
}
.gd_69{
fill: none;
stroke: #000;
stroke-width: 0.381;
stroke-miterlimit: 10;
}
]]></style>
</defs>
<path clip-path="url(#c0_69)" d="M-877.3,1344.3H45.1V32.1H-877.3V1344.3Z" class="g0_69"/>
<path d="M45.1,1344.3H967.5V32.1H45.1V1344.3Z" class="g0_69"/>
<path clip-path="url(#c0_69)" d="M867.9,166.7c0,0,30.3,0,30.3,-30.3v-4.3c0,0,0,-30.3,-30.3,-30.3H-735.4c0,0,-30.4,0,-30.4,30.3v4.3c0,0,0,30.3,30.4,30.3Z" class="g1_69"/>
<path d="M166.7,218.7c0,0,-13,0,-13,13V426.2c0,0,0,13,13,13H854.5c0,0,13,0,13,-13V231.7c0,0,0,-13,-13,-13Z" class="g2_69"/>
<path d="M166.7,218.7c0,0,-13,0,-13,13V426.2c0,0,0,13,13,13H854.5c0,0,13,0,13,-13V231.7c0,0,0,-13,-13,-13H166.7Z" class="g3_69"/>
<path d="M631.2,455.1c0,0,-4.4,0,-4.4,4.4v10.8c0,0,0,4.3,4.4,4.3h30.3c0,0,4.3,0,4.3,-4.3V459.5c0,0,0,-4.4,-4.3,-4.4Z" class="g4_69"/>
<path d="M618,447.7v34.8m1.3,1H867.8m1,-1.4V447.3m-1.4,-1H618.9" class="g5_69"/>
<path d="M618,482.9v.6h.5m249.7,0h.6v-.6m0,-36v-.6h-.6m-249.7,0H618v.6" class="g6_69"/>
<path d="M699.4,1216.2c0,0,-4.3,0,-4.3,4.3v10.8c0,0,0,4.3,4.3,4.3h30.3c0,0,4.3,0,4.3,-4.3v-10.8c0,0,0,-4.3,-4.3,-4.3Z" class="g4_69"/>
<path d="M686.2,1208.7v34.8m1.3,1H866.8m.9,-1.4v-34.8m-1.3,-1H687.2" class="g5_69"/>
<path d="M686.2,1243.9v.6h.6m180.3,0h.6v-.6m0,-36v-.6h-.6m-180.3,0h-.6v.6" class="g6_69"/>
<image preserveAspectRatio="none" x="714" y="55" width="120" height="139" xlink:href="img/1.png"/>
<path d="M629.9,557.3c0,0,-4.4,0,-4.4,4.3v10.8c0,0,0,4.3,4.4,4.3h30.3c0,0,4.3,0,4.3,-4.3V561.6c0,0,0,-4.3,-4.3,-4.3Z" class="g7_69"/>
<path d="M616.7,548.4V586m1.3,.9H866.5m1,-1.3V548m-1.3,-.9H617.6" class="g5_69"/>
<path d="M616.7,586.4v.5h.6m249.6,0h.6v-.5m0,-38.8v-.5h-.6m-249.6,0h-.6v.5" class="g6_69"/>
<path d="M154.1,1199.2h713V527.8h-713v671.4Z" class="g8_69"/>
<path d="M154.1,532.4v664.5m4.6,2.3H864.9m2.2,-4.6V530.1m-4.5,-2.3H156.4" class="g9_69"/>
<path d="M154.1,1199.2v0m713.1,0v0m0,-671.4v0m-713.1,0v0" class="ga_69"/>
<path d="M153.3,542.1V503.8c0,0,0,-8.7,8.7,-8.7H859.3c0,0,8.6,0,8.6,8.7v39Z" class="gb_69"/>
<image clip-path="url(#c1_69)" preserveAspectRatio="none" x="215" y="623" width="639" height="126" xlink:href="img/2.png"/>
<path d="M218.3,742.7H848.1V625.8H218.3V742.7Z" class="g2_69"/>
<image clip-path="url(#c2_69)" preserveAspectRatio="none" x="215" y="816" width="639" height="125" xlink:href="img/3.png"/>
<path d="M218.3,934.7H848.1V819.2H218.3V934.7Z" class="g2_69"/>
<image clip-path="url(#c3_69)" preserveAspectRatio="none" x="215" y="1008" width="639" height="127" xlink:href="img/4.png"/>
<path d="M218.3,1128.1H848.1V1011.2H218.3v116.9Z" class="g2_69"/>
<path d="M32.1,45.1H9.2m958.3,0h22.9M32.1,1331.3H9.2m958.3,0h22.9M45.1,32.1V9.2m0,1335.1v22.9M954.5,32.1V9.2m0,1335.1v22.9" class="gc_69"/>
<path d="M32.1,45.1H9.2m958.3,0h22.9M32.1,1331.3H9.2m958.3,0h22.9M45.1,32.1V9.2m0,1335.1v22.9M954.5,32.1V9.2m0,1335.1v22.9" class="gd_69"/>
<path d="M27.5,32.1H0m972.1,0h27.5M27.5,1344.3H0m972.1,0h27.5M32.1,27.5V0m0,1348.9v27.5M967.5,27.5V0m0,1348.9v27.5" class="gc_69"/>
<path d="M27.5,32.1H0m972.1,0h27.5M27.5,1344.3H0m972.1,0h27.5M32.1,27.5V0m0,1348.9v27.5M967.5,27.5V0m0,1348.9v27.5" class="gd_69"/>
</svg>