<?xml version="1.0" encoding="UTF-8" standalone="no"?>
<!DOCTYPE svg PUBLIC "-//W3C//DTD SVG 1.1//EN"
"http://www.w3.org/Graphics/SVG/1.1/DTD/svg11.dtd">
<svg viewBox="0 0 999 1376" version="1.1" xmlns="http://www.w3.org/2000/svg" xmlns:xlink="http://www.w3.org/1999/xlink">
<defs>
<clipPath id="c0_83"><path d="M32.1,1344.3V32.1H967.5V1344.3Z"/></clipPath>
<clipPath id="c1_83"><path d="M202.4,436.3V345.7h90.5v90.6Z"/></clipPath>
<clipPath id="c2_83"><path d="M202.4,590.1V499.6h90.5v90.5Z"/></clipPath>
<clipPath id="c3_83"><path d="M366,590.1V499.6h90.5v90.5Z"/></clipPath>
<clipPath id="c4_83"><path d="M172.3,744V653.4h90.5V744Z"/></clipPath>
<clipPath id="c5_83"><path d="M283,744V653.4h90.6V744Z"/></clipPath>
<clipPath id="c6_83"><path d="M352.9,1052.5V988.3h44.3v64.2Z"/></clipPath>
<clipPath id="c7_83"><path d="M482,1053.2V989.8h45.8v63.4Z"/></clipPath>
<clipPath id="c8_83"><path d="M609.6,1054V989.8h48.9V1054Z"/></clipPath>
<clipPath id="c9_83"><path d="M738.7,1051.7V987.6h48.1v64.1Z"/></clipPath>
<clipPath id="ca_83"><path d="M223.8,1053.2V989.1h42.8v64.1Z"/></clipPath>
<clipPath id="cb_83"><path d="M199.7,326.1L193.2,324L176.8,310V253h72v73.1Z"/></clipPath>
<clipPath id="cc_83"><path d="M198.7,922.5l-6.5,-2.1l-16.4,-14V849.3h72v73.2Z"/></clipPath>
<clipPath id="cd_83"><path d="M658.6,177V59h200V177Z"/></clipPath>
<style type="text/css"><![CDATA[
.g0_83{
fill: #FEFCF4;
}
.g1_83{
fill: #FFF;
}
.g2_83{
fill: none;
stroke: #6381B7;
stroke-width: 0.763;
}
.g3_83{
fill: none;
stroke: #949698;
stroke-width: 0.381;
}
.g4_83{
fill: none;
stroke: #231F20;
stroke-width: 1.527;
}
.g5_83{
fill: #93BEDA;
}
.g6_83{
fill: #EFE9CC;
}
.g7_83{
fill: #6381B7;
}
.g8_83{
fill: none;
stroke: #6381B7;
stroke-width: 0.381;
stroke-dasharray: 2,1;
}
.g9_83{
fill: none;
stroke: #6381B7;
stroke-width: 0.381;
}
.ga_83{
fill: #FCE8B0;
}
.gb_83{
fill: #25408F;
}
.gc_83{
fill: #00BAF1;
}
.gd_83{
fill: #332D2C;
}
.ge_83{
fill: #D9DFF0;
}
.gf_83{
fill: #F27C85;
}
.gg_83{
fill: #7DD3F6;
}
.gh_83{
fill: #2E6E51;
}
.gi_83{
fill: #BCBEC0;
}
.gj_83{
fill: #EE314A;
}
.gk_83{
fill: none;
stroke: #FFF;
stroke-width: 1.909;
stroke-miterlimit: 10;
}
.gl_83{
fill: none;
stroke: #000;
stroke-width: 0.381;
stroke-miterlimit: 10;
}
]]></style>
</defs>
<path clip-path="url(#c0_83)" d="M-877.3,1344.3H45.1V32.1H-877.3V1344.3Z" class="g0_83"/>
<path d="M45.1,1344.3H967.5V32.1H45.1V1344.3Z" class="g0_83"/>
<path d="M172.1,214.4c0,0,-18.4,0,-18.4,18.3V811.8c0,0,0,18.4,18.4,18.4H849.2c0,0,18.3,0,18.3,-18.4V214.4Z" class="g1_83"/>
<path d="M172.1,214.4c0,0,-18.4,0,-18.4,18.3V811.8c0,0,0,18.4,18.4,18.4H849.2c0,0,18.3,0,18.3,-18.4V214.4H172.1Z" class="g2_83"/>
<path d="M187.4,436.3H307.9V345.7H187.4v90.6Z" class="g1_83"/>
<image clip-path="url(#c1_83)" preserveAspectRatio="none" x="202" y="346" width="91" height="90" xlink:href="img/1.jpg"/>
<path d="M187.4,436.3H307.9V345.7H187.4v90.6Z" class="g3_83"/>
<path d="M351,436.3H471.5V345.7H351v90.6Z" class="g1_83"/>
<image preserveAspectRatio="none" x="366" y="346" width="91" height="90" xlink:href="img/2.jpg"/>
<path d="M351,436.3H471.5V345.7H351v90.6Z" class="g3_83"/>
<path d="M187.4,590.1H307.9V499.6H187.4v90.5Z" class="g1_83"/>
<image clip-path="url(#c2_83)" preserveAspectRatio="none" x="202" y="500" width="91" height="90" xlink:href="img/3.jpg"/>
<path d="M187.4,590.1H307.9V499.6H187.4v90.5Z" class="g3_83"/>
<path d="M351,590.1H471.5V499.6H351v90.5Z" class="g1_83"/>
<image clip-path="url(#c3_83)" preserveAspectRatio="none" x="366" y="500" width="91" height="90" xlink:href="img/4.jpg"/>
<path d="M351,590.1H471.5V499.6H351v90.5Z" class="g3_83"/>
<path d="M170.1,744H265V653.4H170.1V744Z" class="g1_83"/>
<image clip-path="url(#c4_83)" preserveAspectRatio="none" x="172" y="653" width="91" height="91" xlink:href="img/5.jpg"/>
<path d="M170.1,744H265V653.4H170.1V744Z" class="g3_83"/>
<path d="M280.9,744h94.9V653.4H280.9V744Z" class="g1_83"/>
<image clip-path="url(#c5_83)" preserveAspectRatio="none" x="283" y="653" width="91" height="91" xlink:href="img/6.jpg"/>
<path d="M280.9,744h94.9V653.4H280.9V744Z" class="g3_83"/>
<path d="M391.7,744h94.8V653.4H391.7V744Z" class="g1_83"/>
<image preserveAspectRatio="none" x="394" y="653" width="90" height="91" xlink:href="img/7.jpg"/>
<path d="M391.7,744h94.8V653.4H391.7V744Z" class="g3_83"/>
<path d="M502.4,744h94.9V653.4H502.4V744Z" class="g1_83"/>
<image preserveAspectRatio="none" x="505" y="653" width="90" height="91" xlink:href="img/8.jpg"/>
<path d="M502.4,744h94.9V653.4H502.4V744Z" class="g3_83"/>
<path d="M613.2,744h94.9V653.4H613.2V744Z" class="g1_83"/>
<image preserveAspectRatio="none" x="615" y="653" width="91" height="91" xlink:href="img/9.jpg"/>
<path d="M613.2,744h94.9V653.4H613.2V744Z" class="g3_83"/>
<path d="M724,744h94.9V653.4H724V744Z" class="g1_83"/>
<image preserveAspectRatio="none" x="726" y="653" width="91" height="91" xlink:href="img/10.jpg"/>
<path d="M724,744h94.9V653.4H724V744Z" class="g3_83"/>
<path d="M503.6,379.4c-.3,0,-.7,.2,-.9,.4c-.3,.3,-.4,.6,-.4,1c0,.3,.1,.7,.4,.9c.2,.3,.6,.4,.9,.4c.4,0,.7,-.1,1,-.4c.2,-.2,.4,-.6,.4,-.9c0,-.4,-.2,-.7,-.4,-1c-.3,-.2,-.6,-.4,-1,-.4Zm0,76.4c-.3,0,-.7,.1,-.9,.4c-.3,.3,-.4,.6,-.4,.9c0,.4,.1,.7,.4,1c.2,.3,.6,.4,.9,.4c.4,0,.7,-.1,1,-.4c.2,-.3,.4,-.6,.4,-1c0,-.3,-.2,-.6,-.4,-.9c-.3,-.3,-.6,-.4,-1,-.4Zm0,99.3c-.3,0,-.7,.1,-.9,.4c-.3,.3,-.4,.6,-.4,1c0,.3,.1,.7,.4,.9c.2,.3,.6,.4,.9,.4c.4,0,.7,-.1,1,-.4c.2,-.2,.4,-.6,.4,-.9c0,-.4,-.2,-.7,-.4,-1c-.3,-.3,-.6,-.4,-1,-.4Z" class="g4_83"/>
<path d="M166.7,937.5c0,0,-13,0,-13,13v229.2c0,0,0,13,13,13H854.5c0,0,13,0,13,-13V950.5c0,0,0,-13,-13,-13Z" class="g1_83"/>
<path d="M166.7,937.5c0,0,-13,0,-13,13v229.2c0,0,0,13,13,13H854.5c0,0,13,0,13,-13V950.5c0,0,0,-13,-13,-13H166.7Z" class="g2_83"/>
<image clip-path="url(#c6_83)" preserveAspectRatio="none" x="338" y="988" width="67" height="65" xlink:href="img/11.jpg"/>
<image clip-path="url(#c7_83)" preserveAspectRatio="none" x="469" y="989" width="67" height="65" xlink:href="img/12.jpg"/>
<image clip-path="url(#c8_83)" preserveAspectRatio="none" x="600" y="989" width="66" height="65" xlink:href="img/13.jpg"/>
<image clip-path="url(#c9_83)" preserveAspectRatio="none" x="728" y="987" width="67" height="66" xlink:href="img/14.jpg"/>
<image clip-path="url(#ca_83)" preserveAspectRatio="none" x="209" y="988" width="66" height="65" xlink:href="img/15.jpg"/>
<path d="M635,1136.2c2,0,3.6,-1.6,3.6,-3.6c0,-2,-1.6,-3.6,-3.6,-3.6c-2,0,-3.6,1.6,-3.6,3.6c0,2,1.6,3.6,3.6,3.6Z" class="g5_83"/>
<path d="M504.3,1136.2c2,0,3.6,-1.6,3.6,-3.6c0,-2,-1.6,-3.6,-3.6,-3.6c-2,0,-3.6,1.6,-3.6,3.6c0,2,1.6,3.6,3.6,3.6Z" class="g5_83"/>
<path d="M373.5,1136.2c2,0,3.6,-1.6,3.6,-3.6c0,-2,-1.6,-3.6,-3.6,-3.6c-2,0,-3.6,1.6,-3.6,3.6c0,2,1.6,3.6,3.6,3.6Z" class="g5_83"/>
<path d="M765.7,1136.2c2,0,3.7,-1.6,3.7,-3.6c0,-2,-1.7,-3.6,-3.7,-3.6c-2,0,-3.6,1.6,-3.6,3.6c0,2,1.6,3.6,3.6,3.6Z" class="g5_83"/>
<path d="M242.8,1136.2c2,0,3.6,-1.6,3.6,-3.6c0,-2,-1.6,-3.6,-3.6,-3.6c-2,0,-3.6,1.6,-3.6,3.6c0,2,1.6,3.6,3.6,3.6Z" class="g5_83"/>
<path d="M201.1,1147.3c0,0,-8.6,0,-8.6,8.6v15.2c0,0,0,8.7,8.6,8.7h86.6c0,0,8.7,0,8.7,-8.7v-15.2c0,0,0,-8.6,-8.7,-8.6Z" class="g6_83"/>
<path d="M331.4,1147.3c0,0,-8.7,0,-8.7,8.6v15.2c0,0,0,8.7,8.7,8.7H418c0,0,8.7,0,8.7,-8.7v-15.2c0,0,0,-8.6,-8.7,-8.6Z" class="g6_83"/>
<path d="M461.7,1147.3c0,0,-8.7,0,-8.7,8.6v15.2c0,0,0,8.7,8.7,8.7h86.6c0,0,8.7,0,8.7,-8.7v-15.2c0,0,0,-8.6,-8.7,-8.6Z" class="g6_83"/>
<path d="M592,1147.3c0,0,-8.7,0,-8.7,8.6v15.2c0,0,0,8.7,8.7,8.7h86.6c0,0,8.6,0,8.6,-8.7v-15.2c0,0,0,-8.6,-8.6,-8.6Z" class="g6_83"/>
<path d="M722.3,1147.3c0,0,-8.7,0,-8.7,8.6v15.2c0,0,0,8.7,8.7,8.7h86.6c0,0,8.6,0,8.6,-8.7v-15.2c0,0,0,-8.6,-8.6,-8.6Z" class="g6_83"/>
<path d="M635,1069.2c2,0,3.6,-1.6,3.6,-3.6c0,-2,-1.6,-3.6,-3.6,-3.6c-2,0,-3.6,1.6,-3.6,3.6c0,2,1.6,3.6,3.6,3.6Z" class="g5_83"/>
<path d="M504.3,1069.2c2,0,3.6,-1.6,3.6,-3.6c0,-2,-1.6,-3.6,-3.6,-3.6c-2,0,-3.6,1.6,-3.6,3.6c0,2,1.6,3.6,3.6,3.6Z" class="g5_83"/>
<path d="M373.5,1069.2c2,0,3.6,-1.6,3.6,-3.6c0,-2,-1.6,-3.6,-3.6,-3.6c-2,0,-3.6,1.6,-3.6,3.6c0,2,1.6,3.6,3.6,3.6Z" class="g5_83"/>
<path d="M765.7,1069.2c2,0,3.7,-1.6,3.7,-3.6c0,-2,-1.7,-3.6,-3.7,-3.6c-2,0,-3.6,1.6,-3.6,3.6c0,2,1.6,3.6,3.6,3.6Z" class="g5_83"/>
<path d="M242.8,1069.2c2,0,3.6,-1.6,3.6,-3.6c0,-2,-1.6,-3.6,-3.6,-3.6c-2,0,-3.6,1.6,-3.6,3.6c0,2,1.6,3.6,3.6,3.6Z" class="g5_83"/>
<path d="M621.4,1210.2c0,0,-4.3,0,-4.3,4.3v10.9c0,0,0,4.3,4.3,4.3h30.4c0,0,4.3,0,4.3,-4.3v-10.9c0,0,0,-4.3,-4.3,-4.3Z" class="g7_83"/>
<path d="M608.3,1202.7v34.9m1.3,.9H866m1,-1.3v-34.9m-1.3,-1H609.2" class="g8_83"/>
<path d="M608.3,1238v.5h.5m257.6,0h.6v-.5m0,-36.1v-.6h-.6m-257.6,0h-.5v.6" class="g9_83"/>
<path d="M232.3,281.1c0,0,-13,0,-13,13v21.6c0,0,0,13,13,13h602c0,0,13,0,13,-13V294.1c0,0,0,-13,-13,-13Z" class="ga_83"/>
<image clip-path="url(#cb_83)" preserveAspectRatio="none" x="175" y="251" width="75" height="77" xlink:href="img/16.png"/>
<path d="M227.1,321.4c0,0,-26.9,11.3,-51.1,-12.8c0,0,15.1,25.3,49.3,24c0,0,24.7,.3,20.2,-10.1c0,0,1.2,-4.5,-18.4,-1.1Z" class="ga_83"/>
<path d="M231.3,877.5c0,0,-13,0,-13,13v21.6c0,0,0,13,13,13H855.1c0,0,13,0,13,-13V890.5c0,0,0,-13,-13,-13Z" class="ga_83"/>
<image clip-path="url(#cc_83)" preserveAspectRatio="none" x="174" y="848" width="75" height="76" xlink:href="img/17.png"/>
<path d="M226.1,917.8c0,0,-26.9,11.3,-51.1,-12.8c0,0,15.2,25.3,49.3,24c0,0,24.7,.3,20.2,-10.2c0,0,1.3,-4.4,-18.4,-1Z" class="ga_83"/>
<path d="M153.3,213.7v22.2L165,246.2V224Z" class="gb_83"/>
<path d="M153.3,196.9v39H851.1c0,0,16.8,0,16.8,-16.8v-5.4c0,0,0,-16.8,-16.8,-16.8Z" class="g7_83"/>
<path d="M211.3,208.3l-6.5,-6.5L183.6,223l6.5,6.5Z" class="gc_83"/>
<path d="M190.1,230.1c.1,0,.3,-.1,.4,-.2l21.2,-21.2c.1,-.1,.1,-.2,.1,-.4c0,-.1,0,-.3,-.1,-.3l-6.5,-6.5c-.2,-.2,-.6,-.2,-.8,0l-21.2,21.2c-.1,.1,-.1,.2,-.1,.3c0,.2,0,.3,.1,.4l6.5,6.5c.1,.1,.3,.2,.4,.2m20.5,-21.8l-20.5,20.5L184.3,223l20.5,-20.4Z" class="gd_83"/>
<path d="M211.3,208.3l-6.5,-6.5l2.1,-2.1l6.5,6.5Z" class="ge_83"/>
<path d="M211.3,208.8c.1,0,.3,0,.4,-.1l2.1,-2.1c.1,-.1,.2,-.3,.2,-.4c0,-.2,-.1,-.3,-.2,-.4l-6.5,-6.5c-.2,-.2,-.5,-.2,-.7,0l-2.2,2.2c-.1,.1,-.1,.2,-.1,.3c0,.2,0,.3,.1,.4l6.5,6.5c.1,.1,.3,.1,.4,.1m1.4,-2.6l-1.4,1.4l-5.7,-5.8l1.3,-1.4Z" class="gd_83"/>
<path d="M217,202.6l-6.4,-6.5l-3.7,3.6l6.5,6.5Z" class="gf_83"/>
<path d="M213.4,206.7c.2,0,.3,0,.4,-.1l3.6,-3.7c.2,-.2,.2,-.5,0,-.7l-6.5,-6.5c-.2,-.2,-.5,-.2,-.7,0l-3.6,3.6c-.2,.2,-.2,.6,0,.8l6.5,6.5c.1,.1,.2,.1,.3,.1m2.9,-4.1l-2.9,2.8l-5.7,-5.7l2.9,-2.9Z" class="gd_83"/>
<path d="M179,234.2L183.6,223l6.5,6.5Z" class="g1_83"/>
<path d="M179,234.7c0,0,.1,0,.2,-.1L190.3,230c.2,0,.3,-.2,.3,-.4c0,-.1,0,-.3,-.1,-.4L184,222.7c-.1,-.2,-.3,-.2,-.5,-.2c-.2,.1,-.3,.2,-.4,.3L178.5,234c-.1,.2,0,.4,.1,.5c.1,.1,.2,.2,.4,.2m10.2,-5.4l-9.3,3.9l3.9,-9.2Z" class="gd_83"/>
<path d="M179,234.2l2.2,-5.4l3.1,3.1Z" class="gd_83"/>
<path d="M179,234.7c0,0,.1,0,.2,-.1l5.3,-2.2c.2,-.1,.3,-.2,.4,-.4c0,-.1,-.1,-.3,-.2,-.4l-3.1,-3.2c-.1,-.1,-.3,-.2,-.5,-.1c-.2,0,-.3,.1,-.4,.3l-2.2,5.4c-.1,.2,0,.4,.1,.5c.1,.1,.2,.2,.4,.2m4.4,-3l-3.5,1.5l1.5,-3.5Z" class="gd_83"/>
<path d="M209.5,206.6l-2.9,-3l-21.2,21.2l2.9,3Z" class="gg_83"/>
<path d="M188.3,228.3c.2,0,.3,-.1,.4,-.2l21.2,-21.2c.1,-.1,.2,-.2,.2,-.3c0,-.2,-.1,-.3,-.2,-.4l-3,-3c-.2,-.2,-.5,-.2,-.7,0L185,224.4c-.1,.1,-.2,.3,-.2,.4c0,.1,.1,.3,.2,.4l3,2.9c.1,.1,.2,.2,.3,.2m20.5,-21.7L188.3,227l-2.2,-2.2l20.5,-20.5Z" class="gd_83"/>
<path d="M32.1,179.3H967.5V32.1H32.1V179.3Z" class="gh_83"/>
<g clip-path="url(#c0_83)">
<path d="M967.5,177.2H-877.3v-5.4h736.6c43.1,0,53.1,-37.9,115.3,-37.9H967.5Z" class="gi_83"/>
<path d="M967.5,183.7H-877.3v-9.8h736.6c43.1,0,53.1,-33.6,115.3,-33.6H967.5Z" class="gj_83"/>
</g>
<image clip-path="url(#cd_83)" preserveAspectRatio="none" x="659" y="59" width="200" height="118" xlink:href="img/18.png"/>
<path d="M32.1,45.1H9.2m958.3,0h22.9M32.1,1331.3H9.2m958.3,0h22.9M45.1,32.1V9.2m0,1335.1v22.9M954.5,32.1V9.2m0,1335.1v22.9" class="gk_83"/>
<path d="M32.1,45.1H9.2m958.3,0h22.9M32.1,1331.3H9.2m958.3,0h22.9M45.1,32.1V9.2m0,1335.1v22.9M954.5,32.1V9.2m0,1335.1v22.9" class="gl_83"/>
<path d="M27.5,32.1H0m972.1,0h27.5M27.5,1344.3H0m972.1,0h27.5M32.1,27.5V0m0,1348.9v27.5M967.5,27.5V0m0,1348.9v27.5" class="gk_83"/>
<path d="M27.5,32.1H0m972.1,0h27.5M27.5,1344.3H0m972.1,0h27.5M32.1,27.5V0m0,1348.9v27.5M967.5,27.5V0m0,1348.9v27.5" class="gl_83"/>
</svg>