<?xml version="1.0" encoding="UTF-8" standalone="no"?>
<!DOCTYPE svg PUBLIC "-//W3C//DTD SVG 1.1//EN"
"http://www.w3.org/Graphics/SVG/1.1/DTD/svg11.dtd">
<svg viewBox="0 0 999 1376" version="1.1" xmlns="http://www.w3.org/2000/svg" xmlns:xlink="http://www.w3.org/1999/xlink">
<defs>
<clipPath id="c0_192"><path d="M32.1,1344.3V32.1H967.5V1344.3Z"/></clipPath>
<clipPath id="c1_192"><path d="M186.2,894.2l-6.5,-2.1L163.3,878.2V821.1h72v73.1Z"/></clipPath>
<clipPath id="c2_192"><path d="M178.4,137.2c.1,-1.3,.7,-2.5,1.6,-3.4c1,-1,2.4,-1.6,3.9,-1.6h19.2v5Z"/></clipPath>
<clipPath id="c3_192"><path d="M177.9,137.7v-6h25.7v6Z"/></clipPath>
<style type="text/css"><![CDATA[
.g0_192{
fill: #FEFCF4;
}
.g1_192{
fill: #FCE8B0;
}
.g2_192{
fill: #FFF;
}
.g3_192{
fill: none;
stroke: #6381B7;
stroke-width: 0.763;
}
.g4_192{
fill: none;
stroke: #231F20;
stroke-width: 0.305;
stroke-miterlimit: 10;
}
.g5_192{
fill: #DCE9F3;
}
.g6_192{
fill: #9BD1EA;
}
.g7_192{
fill: none;
stroke: #58595B;
stroke-width: 0.381;
stroke-miterlimit: 10;
}
.g8_192{
fill: #6381B7;
}
.g9_192{
fill: none;
stroke: #6381B7;
stroke-width: 0.381;
stroke-dasharray: 2,1;
}
.ga_192{
fill: none;
stroke: #6381B7;
stroke-width: 0.381;
}
.gb_192{
fill: #25408F;
}
.gc_192{
fill: none;
stroke: #231F20;
stroke-width: 1.527;
}
.gd_192{
fill: #39B4D1;
stroke: #2D2A4A;
stroke-width: 1.038;
stroke-linecap: round;
stroke-linejoin: round;
}
.ge_192{
fill: #2D2A4A;
}
.gf_192{
fill: none;
stroke: #2D2A4A;
stroke-width: 1.038;
stroke-linecap: round;
stroke-linejoin: round;
}
.gg_192{
fill: #DEDAD3;
}
.gh_192{
fill: #29263F;
}
.gi_192{
fill: #E15F46;
stroke: #2D2A4A;
stroke-width: 1.038;
stroke-linecap: round;
stroke-linejoin: round;
}
.gj_192{
fill: #F7F8E9;
}
.gk_192{
fill: none;
stroke: #BFD62F;
stroke-width: 1.527;
stroke-linecap: round;
stroke-linejoin: round;
stroke-dasharray: 0,5;
}
.gl_192{
fill: none;
stroke: #BFD62F;
stroke-width: 1.527;
stroke-linecap: round;
stroke-linejoin: round;
}
.gm_192{
fill: #BFD62F;
}
.gn_192{
fill: #D1232A;
}
.go_192{
fill: #233D4A;
}
.gp_192{
fill: #FFE293;
}
.gq_192{
fill: #F89C47;
}
.gr_192{
fill: none;
stroke: #FFF;
stroke-width: 1.909;
stroke-miterlimit: 10;
}
.gs_192{
fill: none;
stroke: #000;
stroke-width: 0.381;
stroke-miterlimit: 10;
}
]]></style>
</defs>
<path clip-path="url(#c0_192)" d="M954.5,1344.3H1877V32.1H954.5V1344.3Z" class="g0_192"/>
<path d="M218.8,823.2c0,0,-13,0,-13,13v47.7c0,0,0,13,13,13H833.5c0,0,13,0,13,-13V836.2c0,0,0,-13,-13,-13Z" class="g1_192"/>
<image clip-path="url(#c1_192)" preserveAspectRatio="none" x="162" y="819" width="75" height="77" xlink:href="img/1.png"/>
<path d="M213.6,889.5c0,0,-26.8,11.3,-51.1,-12.8c0,0,15.2,25.4,49.3,24c0,0,24.7,.4,20.2,-10.1c0,0,1.3,-4.5,-18.4,-1.1Z" class="g1_192"/>
<path d="M145.1,908.5c0,0,-13,0,-13,13V1162c0,0,0,13,13,13h688c0,0,13,0,13,-13V921.5c0,0,0,-13,-13,-13Z" class="g2_192"/>
<path d="M145.1,908.5c0,0,-13,0,-13,13V1162c0,0,0,13,13,13h688c0,0,13,0,13,-13V921.5c0,0,0,-13,-13,-13h-688Z" class="g3_192"/>
<path d="M213.1,988.9H359.3m-146.2,69.5H359.3m-146.2,69.5H359.3" class="g4_192"/>
<path d="M149,168.5c0,0,-17.3,0,-17.3,17.3V476.1c0,0,0,17.3,17.3,17.3H828.9c0,0,17.4,0,17.4,-17.3V185.8c0,0,0,-17.3,-17.4,-17.3Z" class="g5_192"/>
<path d="M162.4,241.9H305.1v26.9H162.4V241.9Zm142.7,0H656.8v26.9H305.1V241.9Zm351.7,0H819.9v26.9H656.8V241.9Z" class="g6_192"/>
<path d="M162.4,268.8H305.1v47.7H162.4V268.8Zm142.7,0H485.3v47.7H305.1V268.8Zm180.2,0H656.8v47.7H485.3V268.8Zm171.5,0H819.9v47.7H656.8V268.8ZM162.4,316.5H305.1v56.3H162.4V316.5Zm142.7,0H485.3v56.3H305.1V316.5Zm180.2,0H656.8v56.3H485.3V316.5Zm171.5,0H819.9v56.3H656.8V316.5Z" class="g2_192"/>
<path d="M162.4,241.9H305.1m0,0H485.3M305.1,268.7V242.1m180.2,-.2H656.8m0,0H819.9M656.8,268.7V242.1M162.4,268.8H305.1m0,0H485.3M305.1,316.3V269m180.2,-.2H656.8M485.3,316.3V269m171.5,-.2H819.9M656.8,316.3V269M162.4,316.5H305.1m0,0H485.3M305.1,372.6V316.7m180.2,-.2H656.8M485.3,372.6V316.7m171.5,-.2H819.9M656.8,372.6V316.7M162.4,372.8H305.1m0,0H485.3m0,0H656.8m0,0H819.9" class="g7_192"/>
<path d="M338.8,1193.4c0,0,-4.3,0,-4.3,4.3v10.8c0,0,0,4.4,4.3,4.4h30.3c0,0,4.4,0,4.4,-4.4v-10.8c0,0,0,-4.3,-4.4,-4.3Z" class="g8_192"/>
<path d="M325.6,1184.5v37.6m1.4,.9H844.7m.9,-1.3v-37.6m-1.3,-.9H326.6" class="g9_192"/>
<path d="M325.6,1222.5v.5h.6m518.9,0h.5v-.5m0,-38.7v-.6h-.5m-518.9,0h-.6v.6" class="ga_192"/>
<path d="M131.7,109.5v39l11.7,10.2V136.5Z" class="gb_192"/>
<path d="M131.7,109.5v39H829.5c0,0,16.8,0,16.8,-16.8v-5.4c0,0,0,-16.8,-16.8,-16.8Z" class="g8_192"/>
<path d="M768.8,131c0,0,-.5,-10,8.6,-9.4c0,0,6.7,-.3,6.6,9.5m-15.3,-1.5v6.5c0,0,-3.3,.3,-3.9,-3c0,0,-.1,-3.8,3.9,-3.5Zm15.4,0v6.5c0,0,3.3,.3,3.9,-3c0,0,.1,-3.8,-3.9,-3.5Z" class="gc_192"/>
<path d="M147.4,140.8h61v-32h-61v32Z" class="gd_192"/>
<path d="M147.4,143.1h61v-2.3h-61v2.3Z" class="gd_192"/>
<path d="M171.8,106.2H152.1v31.5h25.8V112.3c0,-3.4,-2.7,-6.1,-6.1,-6.1Z" class="g2_192"/>
<path d="M171.8,106.2v-.5H152.1c-.1,0,-.3,.1,-.4,.2c-.1,.1,-.1,.2,-.1,.3v31.5c0,.1,0,.3,.1,.4c.1,.1,.3,.1,.4,.1h25.8c.1,0,.2,0,.3,-.1c.1,-.1,.2,-.3,.2,-.4V112.3c0,-3.7,-2.9,-6.6,-6.6,-6.6v1c1.6,0,2.9,.7,3.9,1.7c1,1,1.6,2.3,1.6,3.9v24.9H152.6V106.7h19.2Z" class="ge_192"/>
<path d="M152.1,131.7v6h25.8c0,-3.3,-2.7,-6,-6.1,-6Z" class="g2_192"/>
<path d="M152.1,131.7h-.5v6c0,.1,0,.3,.1,.4c.1,.1,.3,.1,.4,.1h25.8c.1,0,.2,0,.3,-.1c.1,-.1,.2,-.3,.2,-.4c0,-3.6,-3,-6.6,-6.6,-6.6H152.1c-.1,0,-.3,.1,-.4,.2c-.1,.1,-.1,.2,-.1,.4h.5v.5h19.7c1.6,0,2.9,.6,3.9,1.6c1,1,1.6,2.4,1.6,3.9h.6v-.5H152.6v-5.5h-.5v.5Z" class="ge_192"/>
<path d="M155.6,110.9h17.2m-17.2,2.8h17.2m-17.2,2.9h17.2m-17.2,2.9h17.2m-17.2,2.8h17.2m-17.2,2.9h17.2M155.6,128h17.2" class="gf_192"/>
<path d="M171.8,132.2H152.6v5h24.7c-.1,-1.3,-.7,-2.5,-1.6,-3.4c-1,-1,-2.3,-1.6,-3.9,-1.6Z" class="gg_192"/>
<path d="M152.6,132.2h19.2c1.6,0,2.9,.6,3.9,1.6c.9,.9,1.5,2.1,1.6,3.4H152.6Zm19.2,-.5H152.1v6h25.2v-2.5c-.9,-2.1,-3,-3.5,-5.5,-3.5Z" class="gh_192"/>
<path d="M183.9,106.2h19.7v31.5H177.9V112.3c0,-3.4,2.7,-6.1,6,-6.1Z" class="g2_192"/>
<path d="M183.9,106.2v.5h19.2v30.5H178.4V112.3c0,-1.6,.6,-2.9,1.6,-3.9c1,-1,2.4,-1.7,3.9,-1.7v-1c-3.6,0,-6.6,2.9,-6.6,6.6v25.4c0,.1,.1,.3,.2,.4c.1,.1,.2,.1,.4,.1h25.7c.2,0,.3,0,.4,-.1c.1,-.1,.1,-.3,.1,-.4V106.2c0,-.1,0,-.2,-.1,-.3c-.1,-.1,-.2,-.2,-.4,-.2H183.9Z" class="ge_192"/>
<path d="M203.6,131.7v6H177.9c0,-3.3,2.7,-6,6,-6Z" class="g2_192"/>
<path d="M203.6,131.7h-.5v5.5H177.9v.5h.5c0,-1.5,.6,-2.9,1.6,-3.9c1,-1,2.4,-1.6,3.9,-1.6h19.7v-.5h-.5h.5v-.6H183.9c-3.6,0,-6.6,3,-6.6,6.6c0,.1,.1,.3,.2,.4c.1,.1,.2,.1,.4,.1h25.7c.2,0,.3,0,.4,-.1c.1,-.1,.1,-.3,.1,-.4v-6c0,-.2,0,-.3,-.1,-.4c-.1,-.1,-.2,-.2,-.4,-.2Z" class="ge_192"/>
<path d="M200.1,110.9H182.9m17.2,2.8H182.9m17.2,2.9H182.9m17.2,2.9H182.9m17.2,2.8H182.9m17.2,2.9H182.9m17.2,2.8H182.9" class="gf_192"/>
<path clip-path="url(#c2_192)" d="M178.4,137.2h24.7v-5H178.4v5Z" class="gg_192"/>
<path clip-path="url(#c3_192)" d="M178.4,137.2c.1,-1.3,.7,-2.5,1.6,-3.4c1,-1,2.4,-1.6,3.9,-1.6h19.2v5Zm25.2,-5.5H183.9c-3.3,0,-6,2.7,-6,6h25.7v-6h-.5h.5Z" class="gh_192"/>
<path d="M177.9,108.8v34.3" class="gf_192"/>
<path d="M195.5,145.5h3.3V134.7h-3.3v10.8Z" class="gi_192"/>
<path d="M132.5,748.5h713V550.8h-713V748.5Z" class="gj_192"/>
<path d="M132.5,555.4V746.2m4.5,2.3H843.2m2.3,-4.6V553.1m-4.6,-2.3H134.7" class="gk_192"/>
<path d="M132.5,748.5v0m713,0v0m0,-197.7v0m-713,0v0" class="gl_192"/>
<path d="M131.7,554.1V525.4c0,0,0,-8.6,8.6,-8.6H837.6c0,0,8.7,0,8.7,8.6v29.2Z" class="gm_192"/>
<path d="M153.3,577.5c0,0,4.8,5.5,6.1,12.3c0,0,6.7,-11.3,11.7,-13.9c0,0,-9.3,4.9,-11.1,8.2c0,0,-1.9,-4.3,-6.7,-6.6Z" class="gn_192"/>
<path d="M161.8,545.7l2.9,2.9l8.2,-8.1l-3,-3Z" class="g2_192"/>
<path d="M164.7,549.6v0c.3,0,.6,-.1,.7,-.3l8.2,-8.1c.2,-.2,.3,-.5,.3,-.7c0,-.3,-.1,-.5,-.3,-.7l-3,-3c-.4,-.4,-1,-.4,-1.4,0l-8.1,8.2c-.4,.3,-.4,1,0,1.4l2.9,2.9c.2,.2,.5,.3,.7,.3m6.8,-9.1l-6.8,6.7l-1.5,-1.5l6.7,-6.8Z" class="go_192"/>
<path d="M168.3,518.7c-6.5,6.5,-6.5,17.1,0,23.7c6.6,6.5,17.2,6.5,23.7,0c6.5,-6.6,6.5,-17.2,0,-23.7c-6.5,-6.6,-17.1,-6.6,-23.7,0Z" class="gp_192"/>
<path d="M180.2,548.2c4.7,0,9.2,-1.8,12.5,-5.1c6.9,-7,6.9,-18.2,0,-25.1c-3.3,-3.4,-7.8,-5.2,-12.5,-5.2c-4.8,0,-9.2,1.8,-12.6,5.2c-6.9,6.9,-6.9,18.1,0,25.1c3.4,3.3,7.8,5.1,12.6,5.1m0,-33.4c4.2,0,8.1,1.6,11.1,4.6c6.2,6.1,6.2,16.1,0,22.3c-3,2.9,-6.9,4.6,-11.1,4.6c-4.2,0,-8.2,-1.7,-11.2,-4.6c-6.1,-6.2,-6.1,-16.2,0,-22.3c3,-3,7,-4.6,11.2,-4.6Z" class="go_192"/>
<path d="M154.3,550.8l5.3,5.3l8.1,-8.2l-5.2,-5.2Z" class="gq_192"/>
<path d="M159.6,557.1c.2,0,.5,-.1,.7,-.3l8.1,-8.2c.2,-.2,.3,-.5,.3,-.7c0,-.3,-.1,-.5,-.3,-.7L163.2,542c-.4,-.4,-1,-.4,-1.4,0l-8.2,8.1c-.4,.4,-.4,1.1,0,1.4l5.3,5.3c.2,.2,.4,.3,.7,.3m6.7,-9.2l-6.7,6.8l-3.9,-3.9l6.8,-6.7Z" class="go_192"/>
<path d="M168.1,530.6c0,6.6,5.4,12,12,12c6.6,0,11.9,-5.4,11.9,-12c0,-6.6,-5.3,-11.9,-11.9,-11.9c-6.6,0,-12,5.3,-12,11.9Z" class="g2_192"/>
<path d="M180.1,543.4c7,0,12.7,-5.8,12.7,-12.8c0,-7,-5.7,-12.7,-12.7,-12.7c-7.1,0,-12.8,5.7,-12.8,12.7c0,7,5.7,12.8,12.8,12.8m0,-23.9c6.1,0,11.1,5,11.1,11.1c0,6.2,-5,11.2,-11.1,11.2c-6.2,0,-11.2,-5,-11.2,-11.2c0,-6.1,5,-11.1,11.2,-11.1Z" class="go_192"/>
<path d="M32.1,45.1H9.2m958.3,0h22.9M32.1,1331.3H9.2m958.3,0h22.9M45.1,32.1V9.2m0,1335.1v22.9M954.5,32.1V9.2m0,1335.1v22.9" class="gr_192"/>
<path d="M32.1,45.1H9.2m958.3,0h22.9M32.1,1331.3H9.2m958.3,0h22.9M45.1,32.1V9.2m0,1335.1v22.9M954.5,32.1V9.2m0,1335.1v22.9" class="gs_192"/>
<path d="M27.5,32.1H0m972.1,0h27.5M27.5,1344.3H0m972.1,0h27.5M32.1,27.5V0m0,1348.9v27.5M967.5,27.5V0m0,1348.9v27.5" class="gr_192"/>
<path d="M27.5,32.1H0m972.1,0h27.5M27.5,1344.3H0m972.1,0h27.5M32.1,27.5V0m0,1348.9v27.5M967.5,27.5V0m0,1348.9v27.5" class="gs_192"/>
</svg>