<?xml version="1.0" encoding="UTF-8" standalone="no"?>
<!DOCTYPE svg PUBLIC "-//W3C//DTD SVG 1.1//EN"
"http://www.w3.org/Graphics/SVG/1.1/DTD/svg11.dtd">
<svg viewBox="0 0 999 1376" version="1.1" xmlns="http://www.w3.org/2000/svg" xmlns:xlink="http://www.w3.org/1999/xlink">
<defs>
<clipPath id="c0_388"><path d="M32.1,1344.3V32.1H967.5V1344.3Z"/></clipPath>
<style type="text/css"><![CDATA[
.g0_388{
fill: #D7E6A3;
}
.g1_388{
fill: #2E6E51;
}
.g2_388{
fill: #D2D3D5;
}
.g3_388{
fill: #F0E9CE;
}
.g4_388{
fill: #E6DBAE;
}
.g5_388{
fill: #CEC5A0;
}
.g6_388{
fill: #B3A872;
}
.g7_388{
fill: none;
stroke: #FFF;
stroke-width: 1.451;
stroke-miterlimit: 10;
}
.g8_388{
fill: none;
stroke: #FFF;
stroke-width: 1.909;
stroke-miterlimit: 10;
}
.g9_388{
fill: none;
stroke: #000;
stroke-width: 0.381;
stroke-miterlimit: 10;
}
]]></style>
</defs>
<path clip-path="url(#c0_388)" d="M296.3,32.1c0,0,-13,0,-13,13v81c0,0,0,12.9,13,12.9H1764.4c0,0,13,0,13,-12.9v-81c0,0,0,-13,-13,-13Z" class="g0_388"/>
<path d="M140.3,32.3c0,0,-8.6,0,-8.6,8.7v89.4c0,0,0,8.6,8.6,8.6H341.7c0,0,8.7,0,8.7,-8.6V41c0,0,0,-8.7,-8.7,-8.7Z" class="g1_388"/>
<path d="M763.6,198.8H865.4v34.7H763.6V198.8Zm-101.8,0H763.6v34.7H661.8V198.8Zm-101.7,0H661.8v34.7H560.1V198.8Zm-101.8,0H560.1v34.7H458.3V198.8Zm-101.8,0H458.3v34.7H356.5V198.8Zm-138.6,0H356.5v34.7H217.9V198.8Zm-64.9,0h64.9v34.7H153V198.8Z" class="g2_388"/>
<path d="M763.6,402.4H865.4v56.3H763.6V402.4Zm-101.8,0H763.6v56.3H661.8V402.4Zm-101.7,0H661.8v56.3H560.1V402.4Zm-101.8,0H560.1v56.3H458.3V402.4Zm-101.8,0H458.3v56.3H356.5V402.4Zm-203.5,0h64.9v56.3H153V402.4ZM763.6,346.1H865.4v56.3H763.6V346.1Zm-101.8,0H763.6v56.3H661.8V346.1Zm-101.7,0H661.8v56.3H560.1V346.1Zm-101.8,0H560.1v56.3H458.3V346.1Zm-101.8,0H458.3v56.3H356.5V346.1Zm-203.5,0h64.9v56.3H153V346.1ZM763.6,289.8H865.4v56.3H763.6V289.8Zm-101.8,0H763.6v56.3H661.8V289.8Zm-101.7,0H661.8v56.3H560.1V289.8Zm-101.8,0H560.1v56.3H458.3V289.8Zm-101.8,0H458.3v56.3H356.5V289.8Zm-203.5,0h64.9v56.3H153V289.8ZM763.6,233.5H865.4v56.3H763.6V233.5Zm-101.8,0H763.6v56.3H661.8V233.5Zm-101.7,0H661.8v56.3H560.1V233.5Zm-101.8,0H560.1v56.3H458.3V233.5Zm-101.8,0H458.3v56.3H356.5V233.5Zm-203.5,0h64.9v56.3H153V233.5Z" class="g3_388"/>
<path d="M217.9,402.4H356.5v56.3H217.9V402.4Zm0,-56.3H356.5v56.3H217.9V346.1Zm0,-56.3H356.5v56.3H217.9V289.8Zm0,-56.3H356.5v56.3H217.9V233.5Z" class="g4_388"/>
<path d="M763.6,874.4H865.4v56.3H763.6V874.4Zm-101.8,0H763.6v56.3H661.8V874.4Zm-101.7,0H661.8v56.3H560.1V874.4Zm-101.8,0H560.1v56.3H458.3V874.4Zm-101.8,0H458.3v56.3H356.5V874.4Zm-203.5,0h64.9v56.3H153V874.4ZM763.6,818.1H865.4v56.3H763.6V818.1Zm-101.8,0H763.6v56.3H661.8V818.1Zm-101.7,0H661.8v56.3H560.1V818.1Zm-101.8,0H560.1v56.3H458.3V818.1Zm-101.8,0H458.3v56.3H356.5V818.1Zm-203.5,0h64.9v56.3H153V818.1ZM763.6,761.8H865.4v56.3H763.6V761.8Zm-101.8,0H763.6v56.3H661.8V761.8Zm-101.7,0H661.8v56.3H560.1V761.8Zm-101.8,0H560.1v56.3H458.3V761.8Zm-101.8,0H458.3v56.3H356.5V761.8Zm-203.5,0h64.9v56.3H153V761.8ZM763.6,705.5H865.4v56.3H763.6V705.5Zm-101.8,0H763.6v56.3H661.8V705.5Zm-101.7,0H661.8v56.3H560.1V705.5Zm-101.8,0H560.1v56.3H458.3V705.5Zm-101.8,0H458.3v56.3H356.5V705.5Zm-203.5,0h64.9v56.3H153V705.5ZM763.6,627.6H865.4v77.9H763.6V627.6Zm-101.8,0H763.6v77.9H661.8V627.6Zm-101.7,0H661.8v77.9H560.1V627.6Zm-101.8,0H560.1v77.9H458.3V627.6Zm-101.8,0H458.3v77.9H356.5V627.6Zm-203.5,0h64.9v77.9H153V627.6ZM763.6,571.3H865.4v56.3H763.6V571.3Zm-101.8,0H763.6v56.3H661.8V571.3Zm-101.7,0H661.8v56.3H560.1V571.3Zm-101.8,0H560.1v56.3H458.3V571.3Zm-101.8,0H458.3v56.3H356.5V571.3Zm-203.5,0h64.9v56.3H153V571.3ZM763.6,515H865.4v56.3H763.6V515Zm-101.8,0H763.6v56.3H661.8V515Zm-101.7,0H661.8v56.3H560.1V515Zm-101.8,0H560.1v56.3H458.3V515Zm-101.8,0H458.3v56.3H356.5V515ZM153,515h64.9v56.3H153V515ZM763.6,458.7H865.4V515H763.6V458.7Zm-101.8,0H763.6V515H661.8V458.7Zm-101.7,0H661.8V515H560.1V458.7Zm-101.8,0H560.1V515H458.3V458.7Zm-101.8,0H458.3V515H356.5V458.7Zm-203.5,0h64.9V515H153V458.7Z" class="g5_388"/>
<path d="M217.9,874.4H356.5v56.3H217.9V874.4Zm0,-56.3H356.5v56.3H217.9V818.1Zm0,-56.3H356.5v56.3H217.9V761.8Zm0,-56.3H356.5v56.3H217.9V705.5Zm0,-77.9H356.5v77.9H217.9V627.6Zm0,-56.3H356.5v56.3H217.9V571.3Zm0,-56.3H356.5v56.3H217.9V515Zm0,-56.3H356.5V515H217.9V458.7Z" class="g6_388"/>
<path d="M152.3,198.8h65.6m-64.9,34V199.6m64.9,-.8H356.5m-138.6,34V199.6m138.6,-.8H458.3m-101.8,34V199.6m101.8,-.8H560.1m-101.8,34V199.6m101.8,-.8H661.8m-101.7,34V199.6m101.7,-.8H763.6m-101.8,34V199.6m101.8,-.8H866.1m-102.5,34V199.6m101.8,33.2V199.6M152.3,233.5h65.6M153,289.1V234.2m64.9,-.7H356.5M217.9,289.1V234.2m138.6,-.7H458.3M356.5,289.1V234.2m101.8,-.7H560.1M458.3,289.1V234.2m101.8,-.7H661.8M560.1,289.1V234.2m101.7,-.7H763.6M661.8,289.1V234.2m101.8,-.7H866.1M763.6,289.1V234.2m101.8,54.9V234.2M152.3,289.8h65.6M153,345.4V290.5m64.9,-.7H356.5M217.9,345.4V290.5m138.6,-.7H458.3M356.5,345.4V290.5m101.8,-.7H560.1M458.3,345.4V290.5m101.8,-.7H661.8M560.1,345.4V290.5m101.7,-.7H763.6M661.8,345.4V290.5m101.8,-.7H866.1M763.6,345.4V290.5m101.8,54.9V290.5M152.3,346.1h65.6M153,401.6V346.8m64.9,-.7H356.5M217.9,401.6V346.8m138.6,-.7H458.3M356.5,401.6V346.8m101.8,-.7H560.1M458.3,401.6V346.8m101.8,-.7H661.8M560.1,401.6V346.8m101.7,-.7H763.6M661.8,401.6V346.8m101.8,-.7H866.1M763.6,401.6V346.8m101.8,54.8V346.8M152.3,402.4h65.6M153,457.9V403.1m64.9,-.7H356.5M217.9,457.9V403.1m138.6,-.7H458.3M356.5,457.9V403.1m101.8,-.7H560.1M458.3,457.9V403.1m101.8,-.7H661.8M560.1,457.9V403.1m101.7,-.7H763.6M661.8,457.9V403.1m101.8,-.7H866.1M763.6,457.9V403.1m101.8,54.8V403.1M152.3,458.7h65.6M153,514.3V459.4m64.9,-.7H356.5M217.9,514.3V459.4m138.6,-.7H458.3M356.5,514.3V459.4m101.8,-.7H560.1M458.3,514.3V459.4m101.8,-.7H661.8M560.1,514.3V459.4m101.7,-.7H763.6M661.8,514.3V459.4m101.8,-.7H866.1M763.6,514.3V459.4m101.8,54.9V459.4M152.3,515h65.6M153,570.6V515.7m64.9,-.7H356.5M217.9,570.6V515.7M356.5,515H458.3M356.5,570.6V515.7M458.3,515H560.1M458.3,570.6V515.7M560.1,515H661.8M560.1,570.6V515.7M661.8,515H763.6M661.8,570.6V515.7M763.6,515H866.1M763.6,570.6V515.7m101.8,54.9V515.7M152.3,571.3h65.6M153,626.8V572m64.9,-.7H356.5M217.9,626.8V572m138.6,-.7H458.3M356.5,626.8V572m101.8,-.7H560.1M458.3,626.8V572m101.8,-.7H661.8M560.1,626.8V572m101.7,-.7H763.6M661.8,626.8V572m101.8,-.7H866.1M763.6,626.8V572m101.8,54.8V572M152.3,627.6h65.6M153,704.8V628.3m64.9,-.7H356.5M217.9,704.8V628.3m138.6,-.7H458.3M356.5,704.8V628.3m101.8,-.7H560.1M458.3,704.8V628.3m101.8,-.7H661.8M560.1,704.8V628.3m101.7,-.7H763.6M661.8,704.8V628.3m101.8,-.7H866.1M763.6,704.8V628.3m101.8,76.5V628.3M152.3,705.5h65.6M153,761.1V706.3m64.9,-.8H356.5M217.9,761.1V706.3m138.6,-.8H458.3M356.5,761.1V706.3m101.8,-.8H560.1M458.3,761.1V706.3m101.8,-.8H661.8M560.1,761.1V706.3m101.7,-.8H763.6M661.8,761.1V706.3m101.8,-.8H866.1M763.6,761.1V706.3m101.8,54.8V706.3M152.3,761.8h65.6M153,817.4V762.6m64.9,-.8H356.5M217.9,817.4V762.6m138.6,-.8H458.3M356.5,817.4V762.6m101.8,-.8H560.1M458.3,817.4V762.6m101.8,-.8H661.8M560.1,817.4V762.6m101.7,-.8H763.6M661.8,817.4V762.6m101.8,-.8H866.1M763.6,817.4V762.6m101.8,54.8V762.6M152.3,818.1h65.6M153,873.7V818.9m64.9,-.8H356.5M217.9,873.7V818.9m138.6,-.8H458.3M356.5,873.7V818.9m101.8,-.8H560.1M458.3,873.7V818.9m101.8,-.8H661.8M560.1,873.7V818.9m101.7,-.8H763.6M661.8,873.7V818.9m101.8,-.8H866.1M763.6,873.7V818.9m101.8,54.8V818.9M152.3,874.4h65.6M153,930V875.2m64.9,-.8H356.5M217.9,930V875.2m138.6,-.8H458.3M356.5,930V875.2m101.8,-.8H560.1M458.3,930V875.2m101.8,-.8H661.8M560.1,930V875.2m101.7,-.8H763.6M661.8,930V875.2m101.8,-.8H866.1M763.6,930V875.2M865.4,930V875.2M152.3,930.7h65.6m0,0H356.5m0,0H458.3m0,0H560.1m0,0H661.8m0,0H763.6m0,0H866.1" class="g7_388"/>
<path d="M32.1,45.1H9.2m958.3,0h22.9M32.1,1331.3H9.2m958.3,0h22.9M45.1,32.1V9.2m0,1335.1v22.9M954.5,32.1V9.2m0,1335.1v22.9" class="g8_388"/>
<path d="M32.1,45.1H9.2m958.3,0h22.9M32.1,1331.3H9.2m958.3,0h22.9M45.1,32.1V9.2m0,1335.1v22.9M954.5,32.1V9.2m0,1335.1v22.9" class="g9_388"/>
<path d="M27.5,32.1H0m972.1,0h27.5M27.5,1344.3H0m972.1,0h27.5M32.1,27.5V0m0,1348.9v27.5M967.5,27.5V0m0,1348.9v27.5" class="g8_388"/>
<path d="M27.5,32.1H0m972.1,0h27.5M27.5,1344.3H0m972.1,0h27.5M32.1,27.5V0m0,1348.9v27.5M967.5,27.5V0m0,1348.9v27.5" class="g9_388"/>
</svg>