<?xml version="1.0" encoding="UTF-8" standalone="no"?>
<!DOCTYPE svg PUBLIC "-//W3C//DTD SVG 1.1//EN"
"http://www.w3.org/Graphics/SVG/1.1/DTD/svg11.dtd">
<svg viewBox="0 0 999 1376" version="1.1" xmlns="http://www.w3.org/2000/svg" xmlns:xlink="http://www.w3.org/1999/xlink">
<defs>
<clipPath id="c0_229"><path d="M97.4,586V358.9H284.9V586Z"/></clipPath>
<clipPath id="c1_229"><path d="M102.6,580.2V363H280.8V580.2Z"/></clipPath>
<clipPath id="c2_229"><path d="M102.3,579.9V362.7H280.5V579.9Z"/></clipPath>
<clipPath id="c3_229"><path d="M721,729.5V474.3H938.3V729.5Z"/></clipPath>
<clipPath id="c4_229"><path d="M715,731.5V470.3H944.4V731.5Z"/></clipPath>
<clipPath id="c5_229"><path d="M714.7,731.2V470H944.1V731.2Z"/></clipPath>
<clipPath id="c6_229"><path d="M198.7,239.5l-6.5,-2.1l-16.4,-14V166.3h72v73.2Z"/></clipPath>
<clipPath id="c7_229"><path d="M198.7,1010l-6.5,-2.1L175.8,994V936.9h72V1010Z"/></clipPath>
<clipPath id="c8_229"><path d="M786.5,132.5V120.1H801v12.4Z"/></clipPath>
<clipPath id="c9_229"><path d="M180,377.3c-.3,0,3.5,-8.2,3.5,-8.2l.8,.5c0,0,-4,7.7,-4.3,7.7Z"/></clipPath>
<clipPath id="ca_229"><path d="M187.5,369.6c0,0,-6.9,-1.1,-7.6,-5.2c-.7,-3.6,1.5,-3.8,2.1,-3.8c0,0,.1,0,.1,0l8.3,-12.8l-1.5,-3c0,0,-.5,-1.2,.2,-2.1c0,-.1,.1,-.1,.3,-.1c2.1,0,12.9,5.5,12.9,5.5l.1,.2c-.4,.5,-.7,1.1,-1.4,1.6c-.6,.5,-5.1,1.2,-5.1,1.2l-8.4,18.5Z"/></clipPath>
<clipPath id="cb_229"><path d="M187.1,369.3c.2,-.5,.2,-1.8,0,-2.3v-1.4c-1.6,-.5,-2.9,-1.2,-3.7,-2.5c-1.1,.6,-2.1,1.2,-3.1,1.9c1.5,2.1,3.8,3.5,6.8,4.3Zm0,-3.9c2.2,-4.6,4,-9.5,6.1,-14.1c-.9,-.4,-1.8,-1.3,-2.6,-1.4c-2.3,4.3,-4.6,8.6,-7.1,12.8c.8,1.4,2.1,2,3.6,2.7Zm-7.3,12c1,-2.9,2.4,-5.4,3.5,-8.3c-2,-1.5,-3.9,-3.1,-4.4,-6.1v-1.5c0,-2.7,1.9,-3.4,4.6,-3.4q.1,0,.2,0c1.9,-3.4,4.2,-6.4,6.1,-9.7c-.5,-.8,-1.1,-2.4,-.9,-3.6c.6,1.2,1.7,1.8,2.4,2.9c-.1,.5,-.2,1.1,-.3,1.7c.6,.7,1.3,1.2,2.3,1.4c.5,-.4,.6,-1.3,1.2,-1.5c.9,.3,1.8,.7,3.1,.7c.1,.1,.5,.2,.8,.2c.4,0,.7,-.1,.9,-.2c.1,.1,.2,.1,.3,.1c.2,0,.4,-.1,.6,-.2c.2,0,.3,-.1,.5,-.1c.1,0,.2,0,.3,.1c-1.3,.7,-2.2,1.8,-4.2,1.8c-.1,0,-.2,0,-.3,0c-.9,3.7,-1.9,7.3,-2.7,11.2c.6,1,1.6,1.6,1.3,3.1c-.5,2.7,-3.8,4.4,-7.2,4.4c-1.3,0,-2.5,-.2,-3.6,-.8c-1,2.1,-2.1,4.2,-3.3,6.1c0,-.4,.3,-.4,.3,-.8c.9,-1.8,1.9,-3.6,2.6,-5.6c-1,1.7,-1.8,3.7,-2.7,5.5c-.3,.4,-.5,.8,-.7,1.3c-.3,.4,-.3,1.1,-.7,1.3Z"/></clipPath>
<clipPath id="cc_229"><path d="M197.5,349.7c-4.8,0,-13.1,-7.3,-5.5,-8.8h1.2c.2,0,.4,0,.7,0c.1,0,.2,0,.2,0c.3,0,.6,0,.9,.1c3.1,.6,8.2,3.8,7.5,7c-.2,1.2,-1.5,1.6,-3.1,1.7h-1.8c0,0,-.1,0,-.1,0Z"/></clipPath>
<clipPath id="cd_229"><path d="M834.5,487.9h-.1c-.2,0,3.6,-8.2,3.6,-8.2l.8,.5c0,0,-4.1,7.7,-4.3,7.7Z"/></clipPath>
<clipPath id="ce_229"><path d="M842,480.2c0,0,-6.9,-1.1,-7.6,-5.2c-.7,-3.6,1.5,-3.8,2.1,-3.8c0,0,.1,0,.1,0l8.3,-12.8l-1.5,-3c0,0,-.6,-1.2,.2,-2.1c0,-.1,.1,-.1,.3,-.1c2.1,0,12.9,5.5,12.9,5.5l.1,.2c-.4,.5,-.7,1.1,-1.4,1.6c-.7,.5,-5.1,1.2,-5.1,1.2L842,480.2Z"/></clipPath>
<clipPath id="cf_229"><path d="M841.6,479.8c.2,-.4,.2,-1.7,0,-2.2v-1.4c-1.6,-.5,-2.9,-1.2,-3.7,-2.5c-1.1,.6,-2.1,1.2,-3.1,1.9c1.5,2.1,3.8,3.5,6.8,4.2Zm0,-3.8c2.1,-4.6,3.9,-9.5,6.1,-14.1c-.9,-.4,-1.8,-1.3,-2.6,-1.4c-2.3,4.3,-4.6,8.6,-7.1,12.8c.8,1.3,2.1,2,3.6,2.7Zm-7.3,12c1,-2.9,2.4,-5.5,3.5,-8.3c-2,-1.5,-3.9,-3.1,-4.4,-6.1v-1.5c-.1,-2.7,1.9,-3.4,4.6,-3.4c0,0,.1,0,.2,0c1.9,-3.4,4.2,-6.4,6.1,-9.7c-.6,-.9,-1.1,-2.4,-.9,-3.6c.5,1.2,1.7,1.8,2.4,2.8c-.1,.6,-.3,1.2,-.4,1.8c.6,.7,1.4,1.2,2.4,1.4c.5,-.4,.6,-1.3,1.2,-1.5c.9,.3,1.8,.7,3.1,.7c.1,.1,.5,.2,.8,.2c.4,0,.7,-.1,.8,-.2c.1,.1,.2,.1,.3,.1c.3,0,.5,-.1,.7,-.2c.2,0,.3,-.1,.5,-.1c.1,0,.2,0,.3,.1c-1.3,.7,-2.2,1.8,-4.2,1.8c-.1,0,-.2,0,-.3,0c-.9,3.7,-1.9,7.3,-2.7,11.1c.6,1.1,1.5,1.7,1.3,3.2c-.5,2.7,-3.9,4.4,-7.2,4.4c-1.3,0,-2.5,-.3,-3.6,-.8c-1,2.1,-2.1,4.2,-3.3,6.1c0,-.4,.3,-.4,.3,-.8c.9,-1.8,1.9,-3.6,2.6,-5.7c-1,1.8,-1.8,3.8,-2.8,5.6c-.2,.4,-.4,.8,-.6,1.2c-.3,.5,-.3,1.2,-.7,1.4Z"/></clipPath>
<clipPath id="cg_229"><path d="M852,460.2c-4.8,0,-13.1,-7.3,-5.5,-8.7h1.2c.2,0,.3,0,.5,0q.1,0,.2,0q.1,0,.2,0c.2,0,.5,0,.9,.1c3.1,.6,8.2,3.8,7.5,7c-.2,1.2,-1.5,1.6,-3.1,1.6h-1.8c0,0,-.1,0,-.1,0Z"/></clipPath>
<style type="text/css"><![CDATA[
.g0_229{
fill: #FEFCF4;
}
.g1_229{
fill: #FFF;
}
.g2_229{
fill: none;
stroke: #6381B7;
stroke-width: 0.763;
}
.g3_229{
fill: none;
stroke: #949698;
stroke-width: 0.305;
stroke-dasharray: 4,4;
}
.g4_229{
fill: none;
stroke: #949698;
stroke-width: 0.305;
}
.g5_229{
fill: #F7C2D9;
}
.g6_229{
fill: #FDF4F3;
}
.g7_229{
fill: #EC008C;
}
.g8_229{
fill: none;
stroke: #949698;
stroke-width: 0.305;
stroke-dasharray: 3,3;
}
.g9_229{
fill: #818385;
}
.ga_229{
fill: #6D6F71;
}
.gb_229{
fill: #6381B7;
}
.gc_229{
fill: none;
stroke: #6381B7;
stroke-width: 0.381;
stroke-dasharray: 2,1;
}
.gd_229{
fill: none;
stroke: #6381B7;
stroke-width: 0.381;
}
.ge_229{
fill: #FCE8B0;
}
.gf_229{
fill: #25408F;
}
.gg_229{
fill: #A8AAAD;
}
.gh_229{
fill: none;
stroke: #949698;
stroke-width: 0.549;
}
.gi_229{
fill: none;
stroke: #BCBEC0;
stroke-width: 2.566;
}
.gj_229{
fill: #231F20;
}
.gk_229{
fill: #363637;
}
.gl_229{
fill: #5CC4BE;
}
.gm_229{
fill: #F0D73F;
}
.gn_229{
fill: none;
stroke: #FFF;
stroke-width: 1.909;
stroke-miterlimit: 10;
}
.go_229{
fill: none;
stroke: #000;
stroke-width: 0.381;
stroke-miterlimit: 10;
}
]]></style>
</defs>
<path d="M45.1,1344.3H967.5V32.1H45.1V1344.3Z" class="g0_229"/>
<path d="M172.1,136.5c0,0,-18.4,0,-18.4,18.3V841.4c0,0,0,18.3,18.4,18.3H849.2c0,0,18.3,0,18.3,-18.3V136.5Z" class="g1_229"/>
<path d="M172.1,136.5c0,0,-18.4,0,-18.4,18.3V841.4c0,0,0,18.3,18.4,18.3H849.2c0,0,18.3,0,18.3,-18.3V136.5H172.1Z" class="g2_229"/>
<path d="M548.8,404.2c15.7,-.9,28.4,-6.3,31.2,-13.2m-.7,-7.3c-4,-6.5,-16.7,-11.3,-32,-11.9m-7.7,.1c-15.8,.9,-28.4,6.3,-31.2,13.2m.7,7.3c4,6.5,16.6,11.3,32,11.9" class="g3_229"/>
<path d="M580.5,389.6c.1,-.5,.1,-1,.1,-1.5c0,-.6,0,-1.1,-.1,-1.6M545.7,371.8c-.5,0,-1,0,-1.5,0c-.5,0,-1,0,-1.5,0m-34.8,14.7c-.1,.5,-.2,1,-.2,1.6c0,.5,.1,1,.2,1.5m34.8,14.7c.5,0,1,0,1.5,0c.5,0,1,0,1.5,0" class="g4_229"/>
<image clip-path="url(#c0_229)" preserveAspectRatio="none" x="97" y="359" width="187" height="228" xlink:href="img/1.png"/>
<path d="M102.4,381.3l22.7,198.8L278.9,558.7l-21.6,-195Z" class="g5_229"/>
<image clip-path="url(#c1_229)" preserveAspectRatio="none" x="102" y="363" width="178" height="217" xlink:href="img/2.png"/>
<image clip-path="url(#c2_229)" preserveAspectRatio="none" x="102" y="363" width="178" height="217" xlink:href="img/3.png"/>
<path d="M107.1,374.5L117.9,574l123.7,-6.2l33,-29.5L266,367.5Z" class="g6_229"/>
<path d="M241.6,567.8l32.5,-28.7l-16.8,-.3Z" class="g7_229"/>
<path d="M538,368C516.3,358.3,412.5,315.8,279.8,326.8" class="g3_229"/>
<path d="M272.4,327.6c-19.7,2.4,-9.1,6.4,-2.9,7.4" class="g8_229"/>
<path d="M274.7,331.7c-.8,-3.1,-7.1,-6.9,-28.3,-5.4m-7.8,.8c-22.7,2.9,-80.8,15.3,-103.1,48.1" class="g3_229"/>
<path d="M542.2,370c0,0,-.4,-.3,-1.4,-.7M278.3,327c-.5,0,-1,.1,-1.5,.1c-.5,.1,-1,.1,-1.5,.2m-4.3,7.9c.6,.1,1.1,.1,1.4,0c.5,0,1,-.3,1.4,-.6m-29,-8.2c-.5,.1,-1.1,.1,-1.6,.2c-.5,0,-1,.1,-1.5,.1m-107,49.8c-.3,.4,-.6,.9,-.8,1.3" class="g4_229"/>
<path d="M141.7,374.8l-7.2,-5.1l-2.8,11.9Z" class="g9_229"/>
<image clip-path="url(#c3_229)" preserveAspectRatio="none" x="720" y="475" width="218" height="255" xlink:href="img/4.png"/>
<path d="M727.8,479.6l-1.5,240l204.5,3.5L930.3,695l1.5,-213Z" class="g5_229"/>
<image clip-path="url(#c4_229)" preserveAspectRatio="none" x="715" y="470" width="229" height="262" xlink:href="img/5.png"/>
<image clip-path="url(#c5_229)" preserveAspectRatio="none" x="714" y="470" width="229" height="262" xlink:href="img/6.png"/>
<path d="M733.6,474.8L719.5,714.4L890.7,725l34.4,-25.2L937.8,487.2Z" class="g6_229"/>
<path d="M890.7,725l34.5,-25.1l-20.5,-3.2Z" class="g7_229"/>
<path d="M423.4,564.2c0,0,159.1,-74.5,301.4,-72.5" class="g3_229"/>
<path d="M722.8,487.3l.7,8.8l10.9,-5.5Z" class="ga_229"/>
<path d="M412.3,591.1c9.4,-1.3,16.7,-6.5,18.5,-13" class="g3_229"/>
<path d="M430.5,570.9c-.4,-1.3,-1.1,-2.5,-1.9,-3.6" class="g8_229"/>
<path d="M422.6,562.2c-3.3,-1.9,-7.2,-3.2,-11.6,-3.6m-8.2,.1c-9.3,1.4,-16.7,6.5,-18.5,13.1m.5,7.8c2.6,6.1,10.2,10.8,19.6,11.7" class="g3_229"/>
<path d="M431.1,576.5c.1,-.5,.1,-1.1,.1,-1.6c0,-.5,0,-.9,-.1,-1.4m-3.4,-7.3c-.3,-.3,-.6,-.6,-.9,-.9c-.4,-.4,-.9,-.8,-1.3,-1.2m-16.2,-5.7c-.6,0,-1.2,0,-1.7,0c-.6,0,-1.1,0,-1.6,0m-22,14.9c-.1,.5,-.1,1.1,-.1,1.6c0,.5,0,1.1,.1,1.6m22,14.9c.5,0,1,0,1.6,0c.5,0,1,0,1.5,0" class="g4_229"/>
<path d="M166.7,923.1c0,0,-13,0,-13,13v146.8c0,0,0,13,13,13H854.5c0,0,13,0,13,-13V936.1c0,0,0,-13,-13,-13Z" class="g1_229"/>
<path d="M166.7,923.1c0,0,-13,0,-13,13v146.8c0,0,0,13,13,13H854.5c0,0,13,0,13,-13V936.1c0,0,0,-13,-13,-13H166.7Z" class="g2_229"/>
<path d="M526.5,1113.6c0,0,-4.4,0,-4.4,4.3v10.8c0,0,0,4.4,4.4,4.4h30.3c0,0,4.3,0,4.3,-4.4v-10.8c0,0,0,-4.3,-4.3,-4.3Z" class="gb_229"/>
<path d="M513.3,1104.7v37.6m1.3,.9H866.8m.9,-1.3v-37.5m-1.3,-1H514.2" class="gc_229"/>
<path d="M513.3,1142.7v.5h.6m353.3,0h.5v-.5m0,-38.7v-.6h-.5m-353.3,0h-.6v.6" class="gd_229"/>
<path d="M231.3,168.5c0,0,-13,0,-13,13v47.6c0,0,0,13,13,13h602c0,0,13,0,13,-13V181.5c0,0,0,-13,-13,-13Z" class="ge_229"/>
<image clip-path="url(#c6_229)" preserveAspectRatio="none" x="174" y="165" width="75" height="76" xlink:href="img/7.png"/>
<path d="M226.1,234.8c0,0,-26.9,11.3,-51.1,-12.8c0,0,15.2,25.3,49.3,24c0,0,24.7,.3,20.2,-10.2c0,0,1.3,-4.4,-18.4,-1Z" class="ge_229"/>
<path d="M231.3,965c0,0,-13,0,-13,13v21.6c0,0,0,13,13,13h602c0,0,13,0,13,-13V978c0,0,0,-13,-13,-13Z" class="ge_229"/>
<image clip-path="url(#c7_229)" preserveAspectRatio="none" x="174" y="935" width="75" height="77" xlink:href="img/8.png"/>
<path d="M226.1,1005.3c0,0,-26.9,11.3,-51.1,-12.8c0,0,15.2,25.3,49.3,24c0,0,24.7,.3,20.2,-10.1c0,0,1.3,-4.5,-18.4,-1.1Z" class="ge_229"/>
<path d="M153.3,111.9v39L165,161.2V117Z" class="gf_229"/>
<path d="M153.3,111.9v39H851.1c0,0,16.8,0,16.8,-16.8v-5.3c0,0,0,-16.9,-16.8,-16.9Z" class="gb_229"/>
<path d="M802.6,145.6c8.2,0,14.9,-6.5,14.9,-14.5c0,-8.1,-6.7,-14.5,-14.9,-14.5c-8.2,0,-14.9,6.4,-14.9,14.5c0,8,6.7,14.5,14.9,14.5Z" class="gg_229"/>
<path d="M802.6,145.6c8.2,0,14.9,-6.5,14.9,-14.5c0,-8.1,-6.7,-14.5,-14.9,-14.5c-8.2,0,-14.9,6.4,-14.9,14.5c0,8,6.7,14.5,14.9,14.5Z" class="gh_229"/>
<path d="M802.6,136.4c3,0,5.5,-2.4,5.5,-5.3c0,-3,-2.5,-5.4,-5.5,-5.4c-3,0,-5.5,2.4,-5.5,5.4c0,2.9,2.5,5.3,5.5,5.3Z" class="g1_229"/>
<path d="M802.6,136.4c3,0,5.5,-2.4,5.5,-5.3c0,-3,-2.5,-5.4,-5.5,-5.4c-3,0,-5.5,2.4,-5.5,5.4c0,2.9,2.5,5.3,5.5,5.3Z" class="gi_229"/>
<g clip-path="url(#c8_229)" opacity="0.3">
<path d="M788,130.3c0,0,0,-4.8,3.7,-8.7l7.7,6.8c0,0,-1,.9,-1,2.6Z" class="g1_229"/>
</g>
<path d="M807.2,131c0,0,-3.5,0,-3.5,3.4v8.7c0,0,0,3.5,3.5,3.5h43.5c0,0,3.5,0,3.5,-3.5v-8.7c0,0,0,-3.4,-3.5,-3.4Z" class="gj_229"/>
<path d="M191.2,122c0,-8.3,-6.8,-15,-15.1,-15c-8.3,0,-15,6.7,-15,15c0,8.3,6.7,15.1,15,15.1c.8,0,1.7,-.1,2.4,-.2l4.5,5.2v-6.7c4.9,-2.5,8.2,-7.6,8.2,-13.4Z" class="g1_229"/>
<path d="M183.5,143.3l-5.1,-5.9c-.8,.1,-1.5,.1,-2.3,.1c-8.5,0,-15.5,-6.9,-15.5,-15.5c0,-8.5,7,-15.5,15.5,-15.5c8.6,0,15.5,7,15.5,15.5c0,5.7,-3.1,11,-8.1,13.7Zm-4.8,-6.9l3.9,4.5v-5.8l.2,-.1c4.9,-2.5,7.9,-7.5,7.9,-13c0,-8,-6.5,-14.6,-14.6,-14.6c-8,0,-14.6,6.6,-14.6,14.6c0,8.1,6.6,14.6,14.6,14.6c.8,0,1.6,-.1,2.4,-.2Z" class="gk_229"/>
<path d="M169.1,121.6c.8,0,1.4,.6,1.4,1.4c0,.8,-.6,1.5,-1.4,1.5c-.8,0,-1.4,-.7,-1.4,-1.5c0,-.8,.6,-1.4,1.4,-1.4Z" class="gl_229"/>
<path d="M169.1,124.9c-1,0,-1.9,-.8,-1.9,-1.9c0,-1,.9,-1.9,1.9,-1.9c1,0,1.9,.9,1.9,1.9c0,1.1,-.9,1.9,-1.9,1.9m0,-2.9c-.5,0,-1,.5,-1,1c0,.6,.5,1,1,1c.5,0,1,-.4,1,-1c0,-.5,-.5,-1,-1,-1Z" class="gk_229"/>
<path d="M176.1,121.6c.8,0,1.5,.6,1.5,1.4c0,.8,-.7,1.5,-1.5,1.5c-.8,0,-1.4,-.7,-1.4,-1.5c0,-.8,.6,-1.4,1.4,-1.4Z" class="gl_229"/>
<path d="M176.1,124.9c-1,0,-1.9,-.8,-1.9,-1.9c0,-1,.9,-1.9,1.9,-1.9c1.1,0,1.9,.9,1.9,1.9c0,1.1,-.8,1.9,-1.9,1.9m0,-2.9c-.5,0,-1,.5,-1,1c0,.6,.5,1,1,1c.6,0,1,-.4,1,-1c0,-.5,-.4,-1,-1,-1Z" class="gk_229"/>
<path d="M183.1,121.6c.8,0,1.5,.6,1.5,1.4c0,.8,-.7,1.5,-1.5,1.5c-.8,0,-1.4,-.7,-1.4,-1.5c0,-.8,.6,-1.4,1.4,-1.4Z" class="gl_229"/>
<path d="M183.1,124.9c-1,0,-1.9,-.8,-1.9,-1.9c0,-1,.9,-1.9,1.9,-1.9c1.1,0,1.9,.9,1.9,1.9c0,1.1,-.8,1.9,-1.9,1.9m0,-2.9c-.5,0,-1,.5,-1,1c0,.6,.5,1,1,1c.6,0,1,-.4,1,-1c0,-.5,-.4,-1,-1,-1Z" class="gk_229"/>
<path d="M185.1,136.3c0,-9.8,7.8,-17.7,17.6,-17.7c9.7,0,17.6,7.9,17.6,17.7c0,9.7,-7.9,17.6,-17.6,17.6c-1,0,-1.9,-.1,-2.9,-.3l-5.2,6.1v-7.8c-5.7,-2.9,-9.5,-8.8,-9.5,-15.6Z" class="gm_229"/>
<path d="M194.6,160.2q-.1,0,-.2,0c-.2,-.1,-.3,-.3,-.3,-.5v-7.5c-5.9,-3.2,-9.5,-9.2,-9.5,-15.9c0,-10,8.1,-18.1,18.1,-18.1c9.9,0,18,8.1,18,18.1c0,9.9,-8.1,18,-18,18c-.9,0,-1.8,0,-2.7,-.2l-5.1,5.9c-.1,.1,-.2,.2,-.3,.2m8.1,-41.1c-9.5,0,-17.2,7.7,-17.2,17.2c0,6.4,3.6,12.2,9.3,15.2c.1,.1,.2,.2,.2,.4v6.6l4.5,-5.2c.1,-.1,.3,-.1,.4,-.1c1,.1,1.9,.2,2.8,.2c9.4,0,17.1,-7.7,17.1,-17.1c0,-9.5,-7.7,-17.2,-17.1,-17.2Z" class="gk_229"/>
<path d="M210.9,135.8c.9,0,1.6,.7,1.6,1.6c0,1,-.7,1.7,-1.6,1.7c-1,0,-1.7,-.7,-1.7,-1.7c0,-.9,.7,-1.6,1.7,-1.6Z" class="g1_229"/>
<path d="M210.9,139.6c-1.2,0,-2.2,-1,-2.2,-2.2c0,-1.1,1,-2.1,2.2,-2.1c1.1,0,2.1,1,2.1,2.1c0,1.2,-1,2.2,-2.1,2.2m0,-3.4c-.7,0,-1.3,.6,-1.3,1.2c0,.7,.6,1.3,1.3,1.3c.6,0,1.2,-.6,1.2,-1.3c0,-.6,-.6,-1.2,-1.2,-1.2Z" class="gk_229"/>
<path d="M202.7,135.8c.9,0,1.6,.7,1.6,1.6c0,1,-.7,1.7,-1.6,1.7c-1,0,-1.7,-.7,-1.7,-1.7c0,-.9,.7,-1.6,1.7,-1.6Z" class="g1_229"/>
<path d="M202.7,139.6c-1.2,0,-2.2,-1,-2.2,-2.2c0,-1.1,1,-2.1,2.2,-2.1c1.1,0,2.1,1,2.1,2.1c0,1.2,-1,2.2,-2.1,2.2m0,-3.4c-.7,0,-1.3,.6,-1.3,1.2c0,.7,.6,1.3,1.3,1.3c.6,0,1.2,-.6,1.2,-1.3c0,-.6,-.6,-1.2,-1.2,-1.2Z" class="gk_229"/>
<path d="M194.5,135.8c.9,0,1.6,.7,1.6,1.6c0,1,-.7,1.7,-1.6,1.7c-1,0,-1.7,-.7,-1.7,-1.7c0,-.9,.7,-1.6,1.7,-1.6Z" class="g1_229"/>
<path d="M194.5,139.6c-1.2,0,-2.2,-1,-2.2,-2.2c0,-1.1,1,-2.1,2.2,-2.1c1.1,0,2.1,1,2.1,2.1c0,1.2,-1,2.2,-2.1,2.2m0,-3.4c-.7,0,-1.2,.6,-1.2,1.2c0,.7,.5,1.3,1.2,1.3c.6,0,1.2,-.6,1.2,-1.3c0,-.6,-.6,-1.2,-1.2,-1.2Z" class="gk_229"/>
<image clip-path="url(#c9_229)" x="179" y="369" width="6" height="9" xlink:href="shade/1.png"/>
<image clip-path="url(#ca_229)" x="179" y="342" width="24" height="28" xlink:href="shade/2.png"/>
<image clip-path="url(#cb_229)" x="178" y="344" width="24" height="34" xlink:href="shade/3.png"/>
<image clip-path="url(#cc_229)" x="184" y="340" width="20" height="10" xlink:href="shade/4.png"/>
<image clip-path="url(#cd_229)" x="834" y="479" width="5" height="10" xlink:href="shade/5.png"/>
<image clip-path="url(#ce_229)" x="833" y="453" width="24" height="28" xlink:href="shade/6.png"/>
<image clip-path="url(#cf_229)" x="833" y="455" width="23" height="34" xlink:href="shade/7.png"/>
<image clip-path="url(#cg_229)" x="838" y="451" width="20" height="10" xlink:href="shade/8.png"/>
<path d="M32.1,45.1H9.2m958.3,0h22.9M32.1,1331.3H9.2m958.3,0h22.9M45.1,32.1V9.2m0,1335.1v22.9M954.5,32.1V9.2m0,1335.1v22.9" class="gn_229"/>
<path d="M32.1,45.1H9.2m958.3,0h22.9M32.1,1331.3H9.2m958.3,0h22.9M45.1,32.1V9.2m0,1335.1v22.9M954.5,32.1V9.2m0,1335.1v22.9" class="go_229"/>
<path d="M27.5,32.1H0m972.1,0h27.5M27.5,1344.3H0m972.1,0h27.5M32.1,27.5V0m0,1348.9v27.5M967.5,27.5V0m0,1348.9v27.5" class="gn_229"/>
<path d="M27.5,32.1H0m972.1,0h27.5M27.5,1344.3H0m972.1,0h27.5M32.1,27.5V0m0,1348.9v27.5M967.5,27.5V0m0,1348.9v27.5" class="go_229"/>
</svg>