<?xml version="1.0" encoding="UTF-8" standalone="no"?>
<!DOCTYPE svg PUBLIC "-//W3C//DTD SVG 1.1//EN"
"http://www.w3.org/Graphics/SVG/1.1/DTD/svg11.dtd">
<svg viewBox="0 0 999 1376" version="1.1" xmlns="http://www.w3.org/2000/svg" xmlns:xlink="http://www.w3.org/1999/xlink">
<defs>
<clipPath id="c0_123"><path d="M32.1,1344.3V32.1H967.5V1344.3Z"/></clipPath>
<clipPath id="c1_123"><path d="M208.3,989.5V808.4h45.6l3.5,11.9l2.9,8.8l-4.3,92l3.4,5.1l.9,14.7v48.6Z"/></clipPath>
<clipPath id="c2_123"><path d="M208.3,882.1V828.8h51.9l.1,.3l-2.5,53Zm0,-66v-7.7h45.6l2.2,7.7Z"/></clipPath>
<clipPath id="c3_123"><path d="M208.3,828.8V816.1h47.8l1.3,4.2l2.8,8.5Z"/></clipPath>
<clipPath id="c4_123"><path d="M208.3,981.7V929.8h51.4l.6,11.1v40.8Zm0,-64.6V906.8h48.4l-.5,10.3Z"/></clipPath>
<clipPath id="c5_123"><path d="M208.3,929.8V917.1h47.9l-.2,4l.4,.6c.4,2.2,1.5,4.2,3.1,6.1l.2,2Z"/></clipPath>
<clipPath id="c6_123"><path d="M259.5,926.9c-1,-1.2,-1.7,-2.5,-2.1,-3.8l2,3.1l.1,.7Z"/></clipPath>
<clipPath id="c7_123"><path d="M259.5,927.8v0c-1.6,-1.9,-2.7,-3.9,-3.1,-6.1l1,1.4c.4,1.3,1.1,2.6,2.1,3.8v.9Z"/></clipPath>
<clipPath id="c8_123"><path d="M530.5,989.5V808.4h45.6l3.5,11.9l2.9,8.8l-4.3,92l3.5,5.1l.8,14.7v48.6Z"/></clipPath>
<clipPath id="c9_123"><path d="M530.5,882.1V828.8h51.9l.1,.3l-2.5,53Zm0,-66v-7.7h45.6l2.2,7.7Z"/></clipPath>
<clipPath id="ca_123"><path d="M530.5,828.8V816.1h47.8l1.3,4.2l2.8,8.5Z"/></clipPath>
<clipPath id="cb_123"><path d="M530.5,981.7V929.8h51.4l.6,11.1v40.8Zm0,-64.6V906.8h48.4l-.5,10.3Z"/></clipPath>
<clipPath id="cc_123"><path d="M530.5,929.8V917.1h47.9l-.2,4l.4,.6c.4,2.2,1.5,4.2,3.1,6.1l.2,2Z"/></clipPath>
<clipPath id="cd_123"><path d="M581.7,926.9c-1,-1.2,-1.7,-2.5,-2.1,-3.8l2.1,3.1v.7Z"/></clipPath>
<clipPath id="ce_123"><path d="M581.7,927.8v0c-1.6,-1.9,-2.7,-3.9,-3.1,-6.1l1,1.4c.4,1.3,1.1,2.6,2.1,3.8v.9Z"/></clipPath>
<clipPath id="cf_123"><path d="M283.2,783.1V706.8h43.5l9.5,11.9l4.3,9.7v54.7Z"/></clipPath>
<clipPath id="cg_123"><path d="M209.9,611.9l-6.5,-2.1L187,595.9V538.8h71.9v73.1Z"/></clipPath>
<clipPath id="ch_123"><path d="M200.1,137.2c.1,-1.3,.7,-2.5,1.6,-3.4c1,-1,2.3,-1.6,3.9,-1.6h19.2v5Z"/></clipPath>
<clipPath id="ci_123"><path d="M199.5,137.7v-6h25.8v6Z"/></clipPath>
<style type="text/css"><![CDATA[
.g0_123{
fill: #FEFCF4;
}
.g1_123{
fill: #DEF1F3;
}
.g2_123{
fill: #8FD5E3;
}
.g3_123{
fill: #FFF;
}
.g4_123{
fill: none;
stroke: #58595B;
stroke-width: 0.381;
stroke-miterlimit: 10;
}
.g5_123{
fill: none;
stroke: #6381B7;
stroke-width: 0.763;
}
.g6_123{
fill: #48484A;
}
.g7_123{
fill: #F0E8F3;
}
.g8_123{
fill: #766FA6;
}
.g9_123{
fill: #949698;
}
.ga_123{
fill: none;
stroke: #231F20;
stroke-width: 0.305;
stroke-miterlimit: 10;
}
.gb_123{
fill: none;
stroke: #818385;
stroke-width: 0.458;
}
.gc_123{
fill: #FFF;
stroke: #818385;
stroke-width: 0.458;
}
.gd_123{
fill: #8B9FCA;
}
.ge_123{
fill: none;
stroke: #6381B7;
stroke-width: 0.381;
stroke-dasharray: 2,1;
}
.gf_123{
fill: none;
stroke: #6381B7;
stroke-width: 0.381;
}
.gg_123{
fill: #FCE8B0;
}
.gh_123{
fill: #25408F;
}
.gi_123{
fill: #6381B7;
}
.gj_123{
fill: none;
stroke: #231F20;
stroke-width: 1.527;
}
.gk_123{
fill: #39B4D1;
stroke: #2D2A4A;
stroke-width: 1.038;
stroke-linecap: round;
stroke-linejoin: round;
}
.gl_123{
fill: #2D2A4A;
}
.gm_123{
fill: none;
stroke: #2D2A4A;
stroke-width: 1.038;
stroke-linecap: round;
stroke-linejoin: round;
}
.gn_123{
fill: #DEDAD3;
}
.go_123{
fill: #29263F;
}
.gp_123{
fill: #E15F46;
stroke: #2D2A4A;
stroke-width: 1.038;
stroke-linecap: round;
stroke-linejoin: round;
}
.gq_123{
fill: #F0F5FA;
}
.gr_123{
fill: none;
stroke: #7CA7D8;
stroke-width: 1.527;
stroke-linecap: round;
stroke-linejoin: round;
stroke-dasharray: 0,5;
}
.gs_123{
fill: none;
stroke: #7CA7D8;
stroke-width: 1.527;
stroke-linecap: round;
stroke-linejoin: round;
}
.gt_123{
fill: #7CA7D8;
}
.gu_123{
fill: #BFD62F;
}
.gv_123{
fill: #3D3B39;
}
.gw_123{
fill: #F5CA58;
}
.gx_123{
fill: none;
stroke: #FFF;
stroke-width: 1.909;
stroke-miterlimit: 10;
}
.gy_123{
fill: none;
stroke: #000;
stroke-width: 0.381;
stroke-miterlimit: 10;
}
]]></style>
</defs>
<path clip-path="url(#c0_123)" d="M-877.3,1344.3H45.1V32.1H-877.3V1344.3Z" class="g0_123"/>
<path d="M170.7,166.3c0,0,-17.3,0,-17.3,17.4V500.2c0,0,0,17.3,17.3,17.3h680c0,0,17.3,0,17.3,-17.3V183.7c0,0,0,-17.4,-17.3,-17.4Z" class="g1_123"/>
<path d="M229.2,239.7H467.4v30.2H229.2V239.7Zm238.2,0H792.2v30.2H467.4V239.7Z" class="g2_123"/>
<path d="M229.2,269.9H467.4v53.5H229.2V269.9Zm238.2,0H792.2v53.5H467.4V269.9Z" class="g3_123"/>
<path d="M229.2,239.7H467.4m0,0H792.2m-324.8,30V239.9m-238.2,30H467.4m0,0H792.2M467.4,323.2V270M229.2,323.4H467.4m0,0H792.2" class="g4_123"/>
<path d="M166.7,627.9c0,0,-13,0,-13,13V986.5c0,0,0,13,13,13H854.5c0,0,13,0,13,-13V640.9c0,0,0,-13,-13,-13Z" class="g3_123"/>
<path d="M166.7,627.9c0,0,-13,0,-13,13V986.5c0,0,0,13,13,13H854.5c0,0,13,0,13,-13V640.9c0,0,0,-13,-13,-13H166.7Z" class="g5_123"/>
<path d="M203.4,714.9c0,0,-4.3,0,-4.3,4.3v14.4c0,0,0,4.4,4.1,5.8l52.4,18.2c0,0,4.1,1.4,4.1,-2.9V719.2c0,0,0,-4.3,-4.3,-4.3Z" class="g6_123"/>
<path d="M224.5,702.1c0,0,-12.9,0,-12.9,13v63.4c0,0,0,13,12.9,13H822.2c0,0,13,0,13,-13V715.1c0,0,0,-13,-13,-13Z" class="g7_123"/>
<path d="M203.4,712.8c0,0,-4.3,0,-4.3,4.3V734c0,0,0,4.4,4.3,4.4H238c0,0,4.4,0,4.4,-4.4V717.1c0,0,0,-4.3,-4.4,-4.3Z" class="g8_123"/>
<g clip-path="url(#c1_123)">
<path d="M343.3,821.7h.2c0,-2.9,-1.2,-5.6,-3.3,-8c-6.5,-7.3,-21.4,-12.3,-38.7,-12.3c-11.6,0,-22.1,2.3,-29.7,5.9c-3.8,1.8,-6.9,4,-9.1,6.4c-2.1,2.4,-3.3,5.1,-3.3,8c0,4.1,2.5,8,6.9,11.1c4.3,3.2,10.4,5.7,17.7,7.3v-.3l-.1,-.2c-2.8,2,-6.5,4.4,-9.4,4.7l-.1,.6c0,0,1.9,.3,4.7,.3c3.9,0,9.5,-.6,14.2,-3.7l-.1,-.2v.3c2.6,.2,5.4,.3,8.3,.4c11.5,-.1,22,-2.3,29.6,-5.9c3.9,-1.9,6.9,-4,9.1,-6.5c2.1,-2.4,3.3,-5.1,3.3,-7.9H343c0,2.7,-1.1,5.2,-3.2,7.6c-6.3,7.1,-21.1,12.1,-38.3,12.1c-2.9,0,-5.6,-.1,-8.3,-.4H293c-4.5,3,-10.1,3.6,-13.9,3.6c-1.4,0,-2.5,0,-3.3,-.1c-.4,-.1,-.7,-.1,-.9,-.1c-.3,-.1,-.4,-.1,-.4,-.1v.6c3.2,-.4,6.9,-2.8,9.7,-4.8l.5,-.4l-.6,-.1c-7.2,-1.6,-13.3,-4.1,-17.5,-7.2c-4.3,-3.1,-6.7,-6.8,-6.7,-10.7c0,-2.7,1.1,-5.3,3.2,-7.6C269.4,807,284.2,802,301.5,802c11.5,0,21.9,2.2,29.4,5.8c3.8,1.8,6.8,3.9,8.9,6.3c2.1,2.3,3.2,4.9,3.2,7.6h.3Z" class="g9_123"/>
<path d="M340.2,919.9h.2c0,-2.8,-1.2,-5.5,-3.3,-8c-6.5,-7.2,-21.4,-12.3,-38.8,-12.3c-11.5,0,-22,2.3,-29.7,5.9c-3.8,1.8,-6.9,4,-9,6.4c-2.2,2.5,-3.4,5.2,-3.4,8c0,4.2,2.6,8,7,11.1c4.3,3.2,10.4,5.7,17.6,7.3l.1,-.2l-.2,-.3c-2.7,2.1,-6.4,4.4,-9.4,4.7v.6c0,0,1.9,.3,4.7,.3c3.8,0,9.5,-.6,14.2,-3.7l-.1,-.2l-.1,.3c2.7,.2,5.5,.4,8.3,.4c11.6,0,22.1,-2.3,29.7,-5.9c3.8,-1.8,6.9,-4,9.1,-6.4c2.1,-2.5,3.3,-5.2,3.3,-8h-.5c0,2.7,-1.2,5.2,-3.2,7.6c-6.3,7.1,-21.1,12.1,-38.4,12.1c-2.8,0,-5.5,-.1,-8.2,-.4H290l-.1,.1c-4.5,2.9,-10.1,3.6,-13.9,3.6c-1.4,0,-2.5,-.1,-3.3,-.2c-.4,0,-.8,-.1,-1,-.1c-.2,0,-.3,-.1,-.3,-.1v.6c3.1,-.4,6.9,-2.8,9.7,-4.8l.4,-.4l-.5,-.1c-7.2,-1.6,-13.3,-4.1,-17.5,-7.2c-4.3,-3.1,-6.7,-6.8,-6.7,-10.7c0,-2.7,1.1,-5.2,3.2,-7.6c6.3,-7.1,21.1,-12.1,38.3,-12.1c11.5,0,22,2.2,29.5,5.8c3.7,1.8,6.8,3.9,8.9,6.3c2,2.4,3.2,4.9,3.2,7.6h.3Z" class="g9_123"/>
</g>
<image clip-path="url(#c2_123)" preserveAspectRatio="none" x="205" y="807" width="58" height="75" xlink:href="img/1.jpg"/>
<image clip-path="url(#c3_123)" preserveAspectRatio="none" x="205" y="816" width="58" height="13" xlink:href="img/2.jpg"/>
<image clip-path="url(#c4_123)" preserveAspectRatio="none" x="205" y="907" width="58" height="75" xlink:href="img/3.jpg"/>
<image clip-path="url(#c5_123)" preserveAspectRatio="none" x="205" y="917" width="57" height="13" xlink:href="img/4.jpg"/>
<image clip-path="url(#c6_123)" preserveAspectRatio="none" x="257" y="917" width="6" height="13" xlink:href="img/5.jpg"/>
<image clip-path="url(#c7_123)" preserveAspectRatio="none" x="256" y="909" width="7" height="22" xlink:href="img/6.jpg"/>
<g clip-path="url(#c8_123)">
<path d="M665.5,821.7h.3c0,-2.9,-1.3,-5.6,-3.4,-8C655.9,806.4,641,801.4,623.7,801.4c-11.6,0,-22.1,2.3,-29.7,5.9c-3.8,1.8,-6.9,4,-9.1,6.4c-2.1,2.4,-3.3,5.1,-3.3,8c0,4.1,2.5,8,6.9,11.1c4.3,3.2,10.4,5.7,17.7,7.3v-.3l-.1,-.2c-2.8,2,-6.5,4.4,-9.4,4.7l-.1,.6c.1,0,1.9,.3,4.7,.3c3.9,0,9.5,-.6,14.2,-3.7l-.1,-.2v.3c2.6,.2,5.4,.3,8.3,.4c11.5,-.1,22,-2.3,29.6,-5.9c3.9,-1.9,6.9,-4,9.1,-6.5c2.1,-2.4,3.4,-5.1,3.4,-7.9h-.6c0,2.7,-1.1,5.2,-3.2,7.6c-6.3,7.1,-21.1,12.1,-38.3,12.1c-2.9,0,-5.6,-.1,-8.3,-.4h-.2c-4.5,3,-10.1,3.6,-13.9,3.6c-1.4,0,-2.5,0,-3.3,-.1c-.4,-.1,-.7,-.1,-.9,-.1c-.3,-.1,-.4,-.1,-.4,-.1v.6c3.2,-.4,6.9,-2.8,9.7,-4.8l.5,-.4l-.6,-.1c-7.2,-1.6,-13.2,-4.1,-17.5,-7.2c-4.3,-3.1,-6.7,-6.8,-6.7,-10.7c0,-2.7,1.1,-5.3,3.2,-7.6C591.6,807,606.4,802,623.7,802c11.5,0,21.9,2.2,29.4,5.8c3.8,1.8,6.8,3.9,8.9,6.3c2.1,2.3,3.2,4.9,3.2,7.6h.3Z" class="g9_123"/>
<path d="M662.4,919.9h.2c0,-2.8,-1.2,-5.5,-3.3,-8c-6.5,-7.2,-21.4,-12.3,-38.8,-12.3c-11.5,0,-22,2.3,-29.6,5.9c-3.9,1.8,-6.9,4,-9.1,6.4c-2.1,2.5,-3.4,5.2,-3.4,8c0,4.2,2.6,8,7,11.1c4.3,3.2,10.4,5.7,17.6,7.3l.1,-.2l-.2,-.3c-2.7,2.1,-6.4,4.4,-9.4,4.7v.6c0,0,1.9,.3,4.7,.3c3.9,0,9.5,-.6,14.2,-3.7l-.1,-.2l-.1,.3c2.7,.2,5.5,.4,8.3,.4c11.6,0,22.1,-2.3,29.7,-5.9c3.8,-1.8,6.9,-4,9.1,-6.4c2.1,-2.5,3.3,-5.2,3.3,-8h-.5c0,2.7,-1.1,5.2,-3.2,7.6c-6.3,7.1,-21.1,12.1,-38.4,12.1c-2.8,0,-5.5,-.1,-8.2,-.4h-.1l-.1,.1c-4.5,2.9,-10.1,3.6,-13.9,3.6c-1.4,0,-2.5,-.1,-3.3,-.2c-.4,0,-.7,-.1,-1,-.1c-.2,0,-.3,-.1,-.3,-.1v.6c3.1,-.4,6.9,-2.8,9.7,-4.8l.4,-.4l-.5,-.1c-7.2,-1.6,-13.3,-4.1,-17.5,-7.2c-4.3,-3.1,-6.7,-6.8,-6.7,-10.7c0,-2.7,1.1,-5.2,3.2,-7.6c6.3,-7.1,21.1,-12.1,38.3,-12.1c11.6,0,22,2.2,29.5,5.8c3.8,1.8,6.8,3.9,8.9,6.3c2.1,2.4,3.2,4.9,3.2,7.6h.3Z" class="g9_123"/>
</g>
<image clip-path="url(#c9_123)" preserveAspectRatio="none" x="527" y="807" width="58" height="75" xlink:href="img/7.jpg"/>
<image clip-path="url(#ca_123)" preserveAspectRatio="none" x="527" y="816" width="58" height="13" xlink:href="img/8.jpg"/>
<image clip-path="url(#cb_123)" preserveAspectRatio="none" x="527" y="907" width="58" height="75" xlink:href="img/9.jpg"/>
<image clip-path="url(#cc_123)" preserveAspectRatio="none" x="527" y="917" width="57" height="13" xlink:href="img/10.jpg"/>
<image clip-path="url(#cd_123)" preserveAspectRatio="none" x="579" y="917" width="6" height="13" xlink:href="img/11.jpg"/>
<image clip-path="url(#ce_123)" preserveAspectRatio="none" x="578" y="909" width="7" height="22" xlink:href="img/12.jpg"/>
<path d="M493.4,742.4H634.9" class="ga_123"/>
<image clip-path="url(#cf_123)" preserveAspectRatio="none" x="281" y="705" width="61" height="80" xlink:href="img/13.jpg"/>
<path d="M372.5,749.3c21.4,0,38.7,-9.6,38.7,-21.4c0,-11.9,-17.3,-21.4,-38.7,-21.4c-21.4,0,-38.8,9.5,-38.8,21.4c0,11.8,17.4,21.4,38.8,21.4Z" class="g3_123"/>
<path d="M372.5,749.3c21.4,0,38.7,-9.6,38.7,-21.4c0,-11.9,-17.3,-21.4,-38.7,-21.4c-21.4,0,-38.8,9.5,-38.8,21.4c0,11.8,17.4,21.4,38.8,21.4Z" class="gb_123"/>
<path d="M350.3,744.8c0,0,-.8,3,-8.5,5.4c0,0,8.2,2.2,23.6,-3" class="gc_123"/>
<path d="M296.7,838.9c22.6,0,40.9,-9.6,40.9,-21.4C337.6,805.6,319.3,796,296.7,796c-22.6,0,-40.9,9.6,-40.9,21.5c0,11.8,18.3,21.4,40.9,21.4Z" class="g3_123"/>
<path d="M296.7,838.9c22.6,0,40.9,-9.6,40.9,-21.4C337.6,805.6,319.3,796,296.7,796c-22.6,0,-40.9,9.6,-40.9,21.5c0,11.8,18.3,21.4,40.9,21.4Z" class="gb_123"/>
<path d="M274.5,834.3c0,0,-.8,3.1,-8.5,5.5c0,0,8.2,2.2,23.7,-3" class="gc_123"/>
<path d="M621.1,838.9c22.6,0,40.9,-9.6,40.9,-21.4C662,805.6,643.7,796,621.1,796c-22.6,0,-41,9.6,-41,21.5c0,11.8,18.4,21.4,41,21.4Z" class="g3_123"/>
<path d="M621.1,838.9c22.6,0,40.9,-9.6,40.9,-21.4C662,805.6,643.7,796,621.1,796c-22.6,0,-41,9.6,-41,21.5c0,11.8,18.4,21.4,41,21.4Z" class="gb_123"/>
<path d="M598.9,834.3c0,0,-.8,3.1,-8.5,5.5c0,0,8.1,2.2,23.6,-3" class="gc_123"/>
<path d="M322.3,880.4H429.8M322.3,980.5H429.8M643.7,880.4H751.1M643.7,980.5H751.1" class="ga_123"/>
<path d="M621.1,945c22.6,0,40.9,-9.6,40.9,-21.4c0,-11.9,-18.3,-21.5,-40.9,-21.5c-22.6,0,-41,9.6,-41,21.5c0,11.8,18.4,21.4,41,21.4Z" class="g3_123"/>
<path d="M621.1,945c22.6,0,40.9,-9.6,40.9,-21.4c0,-11.9,-18.3,-21.5,-40.9,-21.5c-22.6,0,-41,9.6,-41,21.5c0,11.8,18.4,21.4,41,21.4Z" class="gb_123"/>
<path d="M598.9,940.4c0,0,-.8,3.1,-8.5,5.5c0,0,8.1,2.2,23.6,-3" class="gc_123"/>
<path d="M296.7,945c22.6,0,40.9,-9.6,40.9,-21.4c0,-11.9,-18.3,-21.5,-40.9,-21.5c-22.6,0,-40.9,9.6,-40.9,21.5c0,11.8,18.3,21.4,40.9,21.4Z" class="g3_123"/>
<path d="M296.7,945c22.6,0,40.9,-9.6,40.9,-21.4c0,-11.9,-18.3,-21.5,-40.9,-21.5c-22.6,0,-40.9,9.6,-40.9,21.5c0,11.8,18.3,21.4,40.9,21.4Z" class="gb_123"/>
<path d="M274.5,940.4c0,0,-.8,3.1,-8.5,5.5c0,0,8.2,2.2,23.7,-3" class="gc_123"/>
<path d="M290.4,1014.8c0,0,-4.3,0,-4.3,4.3v10.8c0,0,0,4.4,4.3,4.4h30.3c0,0,4.4,0,4.4,-4.4v-10.8c0,0,0,-4.3,-4.4,-4.3Z" class="gd_123"/>
<path d="M277.2,1007.3v34.8m1.4,1H866.8m.9,-1.4v-34.8m-1.3,-1H278.2" class="ge_123"/>
<path d="M277.2,1042.5v.6h.6m589.3,0h.6v-.6m0,-36v-.6h-.6m-589.3,0h-.6v.6" class="gf_123"/>
<path d="M191.9,683.3H833.3V665.9H191.9v17.4Z" class="g3_123"/>
<path d="M242.5,566.9c0,0,-13,0,-13,13v21.7c0,0,0,13,13,13H855c0,0,13,0,13,-13V579.9c0,0,0,-13,-13,-13Z" class="gg_123"/>
<image clip-path="url(#cg_123)" preserveAspectRatio="none" x="185" y="537" width="75" height="77" xlink:href="img/14.png"/>
<path d="M237.3,607.2c0,0,-26.9,11.3,-51.1,-12.8c0,0,15.1,25.4,49.3,24c0,0,24.7,.3,20.2,-10.1c0,0,1.2,-4.5,-18.4,-1.1Z" class="gg_123"/>
<path d="M153.3,109.5v39L165,158.7V136.5Z" class="gh_123"/>
<path d="M153.3,109.5v39H851.1c0,0,16.8,0,16.8,-16.8v-5.4c0,0,0,-16.8,-16.8,-16.8Z" class="gi_123"/>
<path d="M790.4,131c0,0,-.5,-10,8.6,-9.4c0,0,6.8,-.3,6.7,9.5m-15.3,-1.5v6.5c0,0,-3.4,.3,-3.9,-3c0,0,-.1,-3.8,3.9,-3.5Zm15.3,0v6.5c0,0,3.4,.3,4,-3c0,0,0,-3.8,-4,-3.5Z" class="gj_123"/>
<path d="M169,140.8h61v-32H169v32Z" class="gk_123"/>
<path d="M169,143.1h61v-2.3H169v2.3Z" class="gk_123"/>
<path d="M193.5,106.2H173.8v31.5h25.7V112.3c0,-3.4,-2.7,-6.1,-6,-6.1Z" class="g3_123"/>
<path d="M193.5,106.2v-.5H173.8c-.2,0,-.3,.1,-.4,.2c-.1,.1,-.2,.2,-.2,.3v31.5c0,.1,.1,.3,.2,.4c.1,.1,.2,.1,.4,.1h25.7c.2,0,.3,0,.4,-.1c.1,-.1,.1,-.3,.1,-.4V112.3c0,-3.7,-2.9,-6.6,-6.5,-6.6v1c1.5,0,2.9,.7,3.9,1.7c1,1,1.6,2.3,1.6,3.9v24.9H174.3V106.7h19.2Z" class="gl_123"/>
<path d="M173.8,131.7v6h25.7c0,-3.3,-2.7,-6,-6,-6Z" class="g3_123"/>
<path d="M173.8,131.7h-.6v6c0,.1,.1,.3,.2,.4c.1,.1,.2,.1,.4,.1h25.7c.2,0,.3,0,.4,-.1c.1,-.1,.1,-.3,.1,-.4c0,-3.6,-2.9,-6.6,-6.5,-6.6H173.8c-.2,0,-.3,.1,-.4,.2c-.1,.1,-.2,.2,-.2,.4h.6v.5h19.7c1.5,0,2.9,.6,3.9,1.6c1,1,1.6,2.4,1.6,3.9h.5v-.5H174.3v-5.5h-.5v.5Z" class="gl_123"/>
<path d="M177.3,110.9h17.2m-17.2,2.8h17.2m-17.2,2.9h17.2m-17.2,2.9h17.2m-17.2,2.8h17.2m-17.2,2.9h17.2M177.3,128h17.2" class="gm_123"/>
<path d="M193.5,132.2H174.3v5H199c-.1,-1.3,-.7,-2.5,-1.6,-3.4c-1,-1,-2.4,-1.6,-3.9,-1.6Z" class="gn_123"/>
<path d="M174.3,132.2h19.2c1.5,0,2.9,.6,3.9,1.6c.9,.9,1.5,2.1,1.6,3.4H174.3Zm19.2,-.5H173.8v6H199v-2.5c-.9,-2.1,-3.1,-3.5,-5.5,-3.5Z" class="go_123"/>
<path d="M205.6,106.2h19.7v31.5H199.5V112.3c0,-3.4,2.7,-6.1,6.1,-6.1Z" class="g3_123"/>
<path d="M205.6,106.2v.5h19.2v30.5H200V112.3c0,-1.6,.7,-2.9,1.7,-3.9c1,-1,2.3,-1.7,3.9,-1.7v-1c-3.7,0,-6.6,2.9,-6.6,6.6v25.4c0,.1,.1,.3,.2,.4c0,.1,.2,.1,.3,.1h25.8c.1,0,.2,0,.3,-.1c.1,-.1,.2,-.3,.2,-.4V106.2c0,-.1,-.1,-.2,-.2,-.3c-.1,-.1,-.2,-.2,-.3,-.2H205.6Z" class="gl_123"/>
<path d="M225.3,131.7v6H199.5c0,-3.3,2.7,-6,6.1,-6Z" class="g3_123"/>
<path d="M225.3,131.7h-.5v5.5H199.5v.5h.5c0,-1.5,.7,-2.9,1.7,-3.9c1,-1,2.3,-1.6,3.9,-1.6h19.7v-.5h-.5h.5v-.6H205.6c-3.7,0,-6.6,3,-6.6,6.6c0,.1,.1,.3,.2,.4c0,.1,.2,.1,.3,.1h25.8c.1,0,.2,0,.3,-.1c.1,-.1,.2,-.3,.2,-.4v-6c0,-.2,-.1,-.3,-.2,-.4c-.1,-.1,-.2,-.2,-.3,-.2Z" class="gl_123"/>
<path d="M221.8,110.9H204.6m17.2,2.8H204.6m17.2,2.9H204.6m17.2,2.9H204.6m17.2,2.8H204.6m17.2,2.9H204.6m17.2,2.8H204.6" class="gm_123"/>
<path clip-path="url(#ch_123)" d="M200.1,137.2h24.7v-5H200.1v5Z" class="gn_123"/>
<path clip-path="url(#ci_123)" d="M200.1,137.2c.1,-1.3,.7,-2.5,1.6,-3.4c1,-1,2.3,-1.6,3.9,-1.6h19.2v5Zm25.2,-5.5H205.6c-3.4,0,-6.1,2.7,-6.1,6h25.8v-6h-.5h.5Z" class="go_123"/>
<path d="M199.5,108.8v34.3" class="gm_123"/>
<path d="M217.2,145.5h3.3V134.7h-3.3v10.8Z" class="gp_123"/>
<path d="M154.2,1243.9h713V1121h-713v122.9Z" class="gq_123"/>
<path d="M154.2,1125.6v116m4.6,2.3H864.9m2.3,-4.5V1123.3m-4.5,-2.3H156.5" class="gr_123"/>
<path d="M154.2,1243.9v0m713,0v0m0,-122.9v0m-713,0v0" class="gs_123"/>
<path d="M153.4,1124.3v-28.7c0,0,0,-8.6,8.7,-8.6H859.3c0,0,8.7,0,8.7,8.6v29.2Z" class="gt_123"/>
<path d="M195.6,1091.1c3.3,0,6.1,-2.8,6.1,-6.1c0,-3.4,-2.8,-6.1,-6.1,-6.1c-3.4,0,-6.1,2.7,-6.1,6.1c0,3.3,2.7,6.1,6.1,6.1Z" class="gu_123"/>
<path d="M195.6,1093c4.4,0,8,-3.6,8,-8c0,-4.5,-3.6,-8.1,-8,-8.1c-4.4,0,-8,3.6,-8,8.1c0,4.4,3.6,8,8,8m0,-14.1c3.3,0,6.1,2.7,6.1,6.1c0,3.3,-2.8,6.1,-6.1,6.1c-3.4,0,-6.1,-2.8,-6.1,-6.1c0,-3.4,2.7,-6.1,6.1,-6.1Z" class="gv_123"/>
<path d="M181,1107.1h29.2v-3.8c0,-4.4,-3.6,-8,-8,-8H188.9c-4.4,0,-7.9,3.6,-7.9,8Z" class="gu_123"/>
<path d="M172.7,1112.4h45.8V1109H172.7v3.4Z" class="g3_123"/>
<path d="M219.5,1107.1h-2.7v-11.6c0,-.2,-.1,-.5,-.3,-.6l-2.6,-2.6c.3,-.6,.5,-1.2,.5,-1.8c0,-2,-1.6,-3.6,-3.6,-3.6c-2,0,-3.6,1.6,-3.6,3.6c0,2,1.6,3.6,3.6,3.6c.6,0,1.2,-.2,1.8,-.5l2.3,2.3v11.2h-2.8v-3.8c0,-5.5,-4.4,-9.9,-9.9,-9.9H188.9c-5.4,0,-9.9,4.4,-9.9,9.9v3.8h-7.3c-.5,0,-1,.4,-1,.9v5.4c0,.5,.5,.9,1,.9h2.7v11.3c0,.6,.4,1,.9,1h40.5c.6,0,1,-.4,1,-1v-11.3h2.7c.5,0,.9,-.4,.9,-.9V1108c0,-.5,-.4,-.9,-.9,-.9m-8.7,-14.9c-.9,0,-1.7,-.8,-1.7,-1.7c0,-.9,.8,-1.7,1.7,-1.7c.9,0,1.7,.8,1.7,1.7c0,.9,-.8,1.7,-1.7,1.7m7.7,20.2H172.7V1109h45.8Zm-3.6,12.3H176.3v-10.4h38.6v10.4Zm-26,-29.4h13.3c4.4,0,8,3.6,8,8v3.8H181v-3.8c0,-4.4,3.5,-8,7.9,-8Z" class="gv_123"/>
<path d="M176.3,1124.7h38.6v-10.4H176.3v10.4Zm2.8,-7.6c0,-.2,.2,-.4,.5,-.4h32c.3,0,.5,.2,.5,.4v4.8c0,.2,-.2,.4,-.5,.4h-32c-.3,0,-.5,-.2,-.5,-.4Z" class="g3_123"/>
<path d="M180.1,1121.4h31v-3.8h-31v3.8Z" class="gw_123"/>
<path d="M179.6,1122.3h32c.3,0,.5,-.2,.5,-.4v-4.8c0,-.2,-.2,-.4,-.5,-.4h-32c-.3,0,-.5,.2,-.5,.4v4.8c0,.2,.2,.4,.5,.4m.5,-4.7h31v3.8h-31Z" class="gv_123"/>
<path d="M212.5,1090.5c0,-.9,-.8,-1.7,-1.7,-1.7c-.9,0,-1.7,.8,-1.7,1.7c0,.9,.8,1.7,1.7,1.7c.9,0,1.7,-.8,1.7,-1.7Z" class="g3_123"/>
<path d="M32.1,45.1H9.2m958.3,0h22.9M32.1,1331.3H9.2m958.3,0h22.9M45.1,32.1V9.2m0,1335.1v22.9M954.5,32.1V9.2m0,1335.1v22.9" class="gx_123"/>
<path d="M32.1,45.1H9.2m958.3,0h22.9M32.1,1331.3H9.2m958.3,0h22.9M45.1,32.1V9.2m0,1335.1v22.9M954.5,32.1V9.2m0,1335.1v22.9" class="gy_123"/>
<path d="M27.5,32.1H0m972.1,0h27.5M27.5,1344.3H0m972.1,0h27.5M32.1,27.5V0m0,1348.9v27.5M967.5,27.5V0m0,1348.9v27.5" class="gx_123"/>
<path d="M27.5,32.1H0m972.1,0h27.5M27.5,1344.3H0m972.1,0h27.5M32.1,27.5V0m0,1348.9v27.5M967.5,27.5V0m0,1348.9v27.5" class="gy_123"/>
</svg>