<?xml version="1.0" encoding="UTF-8" standalone="no"?>
<!DOCTYPE svg PUBLIC "-//W3C//DTD SVG 1.1//EN"
"http://www.w3.org/Graphics/SVG/1.1/DTD/svg11.dtd">
<svg viewBox="0 0 999 1376" version="1.1" xmlns="http://www.w3.org/2000/svg" xmlns:xlink="http://www.w3.org/1999/xlink">
<defs>
<clipPath id="c0_359"><path d="M32.1,1344.3V32.1H967.5V1344.3Z"/></clipPath>
<clipPath id="c1_359"><path d="M390.2,551.4V452.2h99.2v99.2Z"/></clipPath>
<clipPath id="c2_359"><path d="M243,719.6V620.4H346.9v99.2Z"/></clipPath>
<clipPath id="c3_359"><path d="M378.6,719.6V620.4H501v99.2Z"/></clipPath>
<clipPath id="c4_359"><path d="M239.8,888.9V789.7H350.1v99.2Z"/></clipPath>
<clipPath id="c5_359"><path d="M383.3,888.9V789.7h113v99.2Z"/></clipPath>
<clipPath id="c6_359"><path d="M230.2,1058.2V959H346.8v99.2Z"/></clipPath>
<clipPath id="c7_359"><path d="M521.8,1058.2V959H638.4v99.2Z"/></clipPath>
<clipPath id="c8_359"><path d="M381.4,1058.2V959H498.2v99.2Z"/></clipPath>
<clipPath id="c9_359"><path d="M673,1058.2V959H789.8v99.2Z"/></clipPath>
<clipPath id="ca_359"><path d="M235.2,1227.5v-96.3H354.6v96.3Z"/></clipPath>
<clipPath id="cb_359"><path d="M380.4,1227.5v-98.2H504.6v98.2Z"/></clipPath>
<clipPath id="cc_359"><path d="M198.7,334.7l-6.5,-2.1L175.8,318.7V261.6h72v73.1Z"/></clipPath>
<clipPath id="cd_359"><path d="M658.6,177V59h200V177Z"/></clipPath>
<style type="text/css"><![CDATA[
.g0_359{
fill: #FEFCF4;
}
.g1_359{
fill: #FFF;
}
.g2_359{
fill: none;
stroke: #6381B7;
stroke-width: 0.763;
}
.g3_359{
fill: #BC93AB;
}
.g4_359{
fill: #FCE8B0;
}
.g5_359{
fill: #2E6E51;
}
.g6_359{
fill: #BCBEC0;
}
.g7_359{
fill: #EE314A;
}
.g8_359{
fill: #25408F;
}
.g9_359{
fill: #6381B7;
}
.ga_359{
fill: #00BAF1;
}
.gb_359{
fill: #332D2C;
}
.gc_359{
fill: #D9DFF0;
}
.gd_359{
fill: #F27C85;
}
.ge_359{
fill: #7DD3F6;
}
.gf_359{
fill: none;
stroke: #FFF;
stroke-width: 1.909;
stroke-miterlimit: 10;
}
.gg_359{
fill: none;
stroke: #000;
stroke-width: 0.381;
stroke-miterlimit: 10;
}
]]></style>
</defs>
<path clip-path="url(#c0_359)" d="M-877.3,1343.2H45.1V32.1H-877.3V1343.2Z" class="g0_359"/>
<path d="M45.1,1344.3H967.5V32.1H45.1V1344.3Z" class="g0_359"/>
<path d="M173.1,224.6c0,0,-18.4,0,-18.4,18.4v983c0,0,0,18.3,18.4,18.3H850.2c0,0,18.3,0,18.3,-18.3V224.6Z" class="g1_359"/>
<path d="M173.1,224.6c0,0,-18.4,0,-18.4,18.4v983c0,0,0,18.3,18.4,18.3H850.2c0,0,18.3,0,18.3,-18.3V224.6H173.1Z" class="g2_359"/>
<path d="M230.2,551.4H359.7V452.2H230.2v99.2Z" class="g1_359"/>
<image preserveAspectRatio="none" x="245" y="452" width="100" height="99" xlink:href="img/1.jpg"/>
<path d="M375,551.4H504.6V452.2H375v99.2Z" class="g1_359"/>
<image clip-path="url(#c1_359)" preserveAspectRatio="none" x="390" y="452" width="99" height="99" xlink:href="img/2.jpg"/>
<path d="M230.2,719.6H359.7V620.4H230.2v99.2Z" class="g1_359"/>
<image clip-path="url(#c2_359)" preserveAspectRatio="none" x="243" y="619" width="104" height="102" xlink:href="img/3.jpg"/>
<path d="M375,719.6H504.6V620.4H375v99.2Z" class="g1_359"/>
<image clip-path="url(#c3_359)" preserveAspectRatio="none" x="379" y="619" width="122" height="102" xlink:href="img/4.jpg"/>
<path d="M230.2,888.9H359.7V789.7H230.2v99.2Z" class="g1_359"/>
<image clip-path="url(#c4_359)" preserveAspectRatio="none" x="240" y="788" width="110" height="103" xlink:href="img/5.jpg"/>
<path d="M375,888.9H504.6V789.7H375v99.2Z" class="g1_359"/>
<image clip-path="url(#c5_359)" preserveAspectRatio="none" x="383" y="788" width="113" height="103" xlink:href="img/6.jpg"/>
<path d="M230.2,1058.2H359.7V959H230.2v99.2Z" class="g1_359"/>
<image clip-path="url(#c6_359)" preserveAspectRatio="none" x="230" y="957" width="117" height="103" xlink:href="img/7.jpg"/>
<path d="M521.8,1058.2H651.3V959H521.8v99.2Z" class="g1_359"/>
<image clip-path="url(#c7_359)" preserveAspectRatio="none" x="522" y="957" width="116" height="103" xlink:href="img/8.jpg"/>
<path d="M375,1058.2H504.6V959H375v99.2Z" class="g1_359"/>
<image clip-path="url(#c8_359)" preserveAspectRatio="none" x="381" y="957" width="117" height="103" xlink:href="img/9.jpg"/>
<path d="M666.6,1058.2H796.2V959H666.6v99.2Z" class="g1_359"/>
<image clip-path="url(#c9_359)" preserveAspectRatio="none" x="673" y="957" width="117" height="103" xlink:href="img/10.jpg"/>
<path d="M230.2,1227.5H359.7v-99.2H230.2v99.2Z" class="g1_359"/>
<image clip-path="url(#ca_359)" preserveAspectRatio="none" x="235" y="1131" width="120" height="98" xlink:href="img/11.jpg"/>
<path d="M375,1227.5H504.6v-99.2H375v99.2Z" class="g1_359"/>
<image clip-path="url(#cb_359)" preserveAspectRatio="none" x="380" y="1129" width="126" height="100" xlink:href="img/12.jpg"/>
<path d="M521.8,1227.5H651.3v-99.2H521.8v99.2Z" class="g1_359"/>
<image preserveAspectRatio="none" x="537" y="1128" width="99" height="100" xlink:href="img/13.jpg"/>
<path d="M201.6,354c0,0,-6.5,0,-6.5,6.5v17.3c0,0,0,6.5,6.5,6.5H470.1c0,0,6.5,0,6.5,-6.5V360.5c0,0,0,-6.5,-6.5,-6.5Z" class="g3_359"/>
<path d="M231.3,289.8c0,0,-13,0,-13,12.9v21.7c0,0,0,13,13,13h602c0,0,13,0,13,-13V302.7c0,0,0,-12.9,-13,-12.9Z" class="g4_359"/>
<image clip-path="url(#cc_359)" preserveAspectRatio="none" x="174" y="260" width="75" height="76" xlink:href="img/14.png"/>
<path d="M226.1,330c0,0,-26.9,11.3,-51.1,-12.7c0,0,15.2,25.3,49.3,23.9c0,0,24.7,.4,20.2,-10.1c0,0,1.3,-4.4,-18.4,-1.1Z" class="g4_359"/>
<path d="M32.1,179.3H967.5V32.1H32.1V179.3Z" class="g5_359"/>
<g clip-path="url(#c0_359)">
<path d="M967.5,177.2H-877.3v-5.4h736.6c43.1,0,53.1,-37.9,115.3,-37.9H967.5Z" class="g6_359"/>
<path d="M967.5,183.7H-877.3v-9.8h736.6c43.1,0,53.1,-33.6,115.3,-33.6H967.5Z" class="g7_359"/>
</g>
<image clip-path="url(#cd_359)" preserveAspectRatio="none" x="659" y="59" width="200" height="118" xlink:href="img/15.png"/>
<path d="M153.3,217.5v22.2L165,250V227.8Z" class="g8_359"/>
<path d="M153.3,200.7v39H851.1c0,0,16.8,0,16.8,-16.8v-5.4c0,0,0,-16.8,-16.8,-16.8Z" class="g9_359"/>
<path d="M211.3,212.1l-6.5,-6.4l-21.2,21.2l6.5,6.4Z" class="ga_359"/>
<path d="M190.1,233.9c.1,0,.3,-.1,.4,-.2l21.2,-21.2c.1,-.1,.1,-.2,.1,-.4c0,-.1,0,-.2,-.1,-.3l-6.5,-6.5c-.2,-.2,-.6,-.2,-.8,0l-21.2,21.2c-.1,.1,-.1,.2,-.1,.4c0,.1,0,.2,.1,.3l6.5,6.5c.1,.1,.3,.2,.4,.2m20.5,-21.8l-20.5,20.5l-5.8,-5.7l20.5,-20.5Z" class="gb_359"/>
<path d="M211.3,212.1l-6.5,-6.4l2.1,-2.2l6.5,6.5Z" class="gc_359"/>
<path d="M211.3,212.7c.1,0,.3,-.1,.4,-.2l2.1,-2.1c.1,-.1,.2,-.2,.2,-.4c0,-.1,-.1,-.3,-.2,-.4l-6.5,-6.4c-.2,-.3,-.5,-.3,-.7,0l-2.2,2.1c-.1,.1,-.1,.2,-.1,.4c0,.1,0,.2,.1,.3l6.5,6.5c.1,.1,.3,.2,.4,.2m1.4,-2.7l-1.4,1.4l-5.7,-5.7l1.3,-1.4Z" class="gb_359"/>
<path d="M217,206.4l-6.4,-6.5l-3.7,3.6l6.5,6.5Z" class="gd_359"/>
<path d="M213.4,210.5c.2,0,.3,0,.4,-.1l3.6,-3.6c.2,-.2,.2,-.6,0,-.8l-6.5,-6.5c-.2,-.2,-.5,-.2,-.7,0l-3.6,3.7c-.2,.2,-.2,.5,0,.7l6.5,6.5c.1,.1,.2,.1,.3,.1m2.9,-4.1l-2.9,2.9l-5.7,-5.8l2.9,-2.8Z" class="gb_359"/>
<path d="M179,238l4.6,-11.1l6.5,6.4Z" class="g1_359"/>
<path d="M179,238.5c0,0,.1,0,.2,0l11.1,-4.7c.2,0,.3,-.2,.3,-.4c0,-.1,0,-.3,-.1,-.4L184,226.5c-.1,-.1,-.3,-.2,-.5,-.1c-.2,0,-.3,.1,-.4,.3l-4.6,11.1c-.1,.2,0,.4,.1,.6c.1,.1,.2,.1,.4,.1m10.2,-5.3l-9.3,3.8l3.9,-9.2Z" class="gb_359"/>
<path d="M179,238l2.2,-5.4l3.1,3.1Z" class="gb_359"/>
<path d="M179,238.5c0,0,.1,0,.2,0l5.3,-2.3c.2,0,.3,-.2,.4,-.4c0,-.1,-.1,-.3,-.2,-.4l-3.1,-3.2c-.1,-.1,-.3,-.1,-.5,-.1c-.2,0,-.3,.2,-.4,.3l-2.2,5.4c-.1,.2,0,.4,.1,.6c.1,.1,.2,.1,.4,.1m4.4,-2.9l-3.5,1.4l1.5,-3.5Z" class="gb_359"/>
<path d="M209.5,210.4l-2.9,-3l-21.2,21.2l2.9,3Z" class="ge_359"/>
<path d="M188.3,232.1c.2,0,.3,0,.4,-.1l21.2,-21.2c.1,-.1,.2,-.3,.2,-.4c0,-.2,-.1,-.3,-.2,-.4l-3,-3c-.2,-.2,-.5,-.2,-.7,0L185,228.3c-.1,.1,-.2,.2,-.2,.3c0,.2,.1,.3,.2,.4l3,3c.1,.1,.2,.1,.3,.1m20.5,-21.7l-20.5,20.4l-2.2,-2.2l20.5,-20.4Z" class="gb_359"/>
<path d="M32.1,45.1H9.2m958.3,0h22.9M32.1,1331.3H9.2m958.3,0h22.9M45.1,32.1V9.2m0,1335.1v22.9M954.5,32.1V9.2m0,1335.1v22.9" class="gf_359"/>
<path d="M32.1,45.1H9.2m958.3,0h22.9M32.1,1331.3H9.2m958.3,0h22.9M45.1,32.1V9.2m0,1335.1v22.9M954.5,32.1V9.2m0,1335.1v22.9" class="gg_359"/>
<path d="M27.5,32.1H0m972.1,0h27.5M27.5,1344.3H0m972.1,0h27.5M32.1,27.5V0m0,1348.9v27.5M967.5,27.5V0m0,1348.9v27.5" class="gf_359"/>
<path d="M27.5,32.1H0m972.1,0h27.5M27.5,1344.3H0m972.1,0h27.5M32.1,27.5V0m0,1348.9v27.5M967.5,27.5V0m0,1348.9v27.5" class="gg_359"/>
</svg>