<?xml version="1.0" encoding="UTF-8" standalone="no"?>
<!DOCTYPE svg PUBLIC "-//W3C//DTD SVG 1.1//EN"
"http://www.w3.org/Graphics/SVG/1.1/DTD/svg11.dtd">
<svg viewBox="0 0 999 1376" version="1.1" xmlns="http://www.w3.org/2000/svg" xmlns:xlink="http://www.w3.org/1999/xlink">
<defs>
<clipPath id="c0_349"><path d="M99.9,507.7V427.4H256.6v80.3Z"/></clipPath>
<clipPath id="c1_349"><path d="M725.5,501.4V431.5H891v69.9Z"/></clipPath>
<clipPath id="c2_349"><path d="M100.4,511.5V422.9H255v88.6Z"/></clipPath>
<clipPath id="c3_349"><path d="M100.1,511.2V422.6H254.6v88.6Z"/></clipPath>
<clipPath id="c4_349"><path d="M723.3,507.3V428.7H888.9v78.6Z"/></clipPath>
<clipPath id="c5_349"><path d="M723,507V428.4H888.6V507Z"/></clipPath>
<clipPath id="c6_349"><path d="M198.7,1032.9l-6.5,-2.1l-16.4,-13.9V959.8h72v73.1Z"/></clipPath>
<clipPath id="c7_349"><path d="M198.7,261.6l-6.5,-2.1l-16.4,-14V188.4h72v73.2Z"/></clipPath>
<clipPath id="c8_349"><path d="M169,437.8c-.2,-.1,3.6,-8.3,3.6,-8.3l.8,.6c0,0,-4.1,7.7,-4.4,7.7Z"/></clipPath>
<clipPath id="c9_349"><path d="M176.5,430c0,0,-6.8,-1.1,-7.5,-5.2c-.7,-3.6,1.5,-3.8,2,-3.8c.1,0,.2,0,.2,0l8.3,-12.8l-1.5,-3c0,0,-.6,-1.2,.2,-2.1c0,-.1,.1,-.1,.3,-.1c2.1,0,12.9,5.5,12.9,5.5l.1,.2c-.4,.5,-.8,1.1,-1.4,1.6c-.7,.5,-5.1,1.2,-5.1,1.2L176.5,430Z"/></clipPath>
<clipPath id="ca_349"><path d="M176.1,429.7c.2,-.5,.2,-1.8,0,-2.3V426c-1.5,-.5,-2.8,-1.2,-3.6,-2.5c-1.1,.6,-2.1,1.2,-3.2,1.9c1.6,2.1,3.9,3.6,6.8,4.3Zm0,-3.9c2.2,-4.6,4,-9.5,6.2,-14.1c-.9,-.4,-1.9,-1.3,-2.7,-1.4c-2.2,4.4,-4.6,8.7,-7,12.8c.7,1.4,2.1,2.1,3.5,2.7Zm-7.3,12c1.1,-2.8,2.4,-5.4,3.6,-8.2c-2,-1.6,-4,-3.2,-4.4,-6.2v-1.5c-.1,-2.7,1.9,-3.4,4.5,-3.4c.1,0,.2,0,.2,0c2,-3.3,4.3,-6.3,6.2,-9.7c-.6,-.8,-1.2,-2.3,-.9,-3.6c.5,1.2,1.6,1.9,2.4,2.9c-.1,.6,-.3,1.1,-.4,1.7c.6,.7,1.4,1.2,2.4,1.4c.5,-.4,.5,-1.2,1.1,-1.5c1,.4,1.9,.7,3.2,.7c.1,.2,.5,.2,.8,.2c.3,0,.7,0,.8,-.2c.1,.1,.2,.1,.3,.1c.3,0,.5,-.1,.6,-.1c.2,-.1,.4,-.2,.6,-.2c.1,0,.2,.1,.3,.1c-1.3,.7,-2.2,1.8,-4.2,1.8c-.1,0,-.2,0,-.3,0c-.9,3.7,-1.9,7.3,-2.7,11.2c.6,1,1.5,1.7,1.3,3.1c-.5,2.7,-3.9,4.4,-7.2,4.4c-1.3,0,-2.5,-.2,-3.6,-.7c-1,2.1,-2.1,4.1,-3.3,6c0,-.4,.3,-.4,.3,-.8c.9,-1.8,1.9,-3.6,2.6,-5.6c-1.1,1.7,-1.8,3.7,-2.8,5.5c-.2,.4,-.4,.8,-.6,1.3c-.3,.4,-.3,1.1,-.8,1.3Z"/></clipPath>
<clipPath id="cb_349"><path d="M186.6,410.1c-4.8,0,-13.1,-7.3,-5.6,-8.8h1.3c.1,0,.3,0,.5,0q.1,0,.2,0c.3,0,.6,0,1,.1c3.1,.6,8.3,3.8,7.6,7c-.3,1.2,-1.6,1.6,-3.2,1.7h-1.7q-.1,0,-.1,0Z"/></clipPath>
<clipPath id="cc_349"><path d="M798.6,444.3c-.3,-.1,3.6,-8.3,3.6,-8.3l.7,.6c0,0,-4,7.7,-4.3,7.7Z"/></clipPath>
<clipPath id="cd_349"><path d="M806.1,436.5c0,0,-6.8,-1.1,-7.6,-5.2c-.6,-3.6,1.5,-3.8,2.1,-3.8q.1,0,.1,0l8.4,-12.8l-1.5,-3c0,0,-.6,-1.2,.1,-2.1c.1,-.1,.2,-.1,.3,-.1c2.2,0,13,5.5,13,5.5l.1,.2c-.4,.5,-.8,1.1,-1.4,1.6c-.7,.5,-5.1,1.2,-5.1,1.2l-8.5,18.5Z"/></clipPath>
<clipPath id="ce_349"><path d="M805.7,436.2c.2,-.5,.2,-1.8,0,-2.3v-1.4c-1.5,-.5,-2.9,-1.2,-3.6,-2.5c-1.1,.6,-2.2,1.2,-3.2,1.9c1.6,2.1,3.8,3.6,6.8,4.3Zm0,-3.9c2.2,-4.6,4,-9.5,6.2,-14.1c-.9,-.4,-1.9,-1.3,-2.7,-1.4c-2.3,4.3,-4.6,8.7,-7,12.8c.7,1.4,2.1,2,3.5,2.7Zm-7.3,12c1.1,-2.9,2.4,-5.4,3.5,-8.3c-1.9,-1.5,-3.9,-3.1,-4.4,-6.1v-1.5c0,-2.7,2,-3.4,4.6,-3.4c.1,0,.2,0,.2,0c2,-3.3,4.2,-6.3,6.2,-9.7c-.6,-.8,-1.2,-2.3,-.9,-3.6c.5,1.2,1.6,1.9,2.4,2.9c-.1,.6,-.3,1.1,-.4,1.7c.6,.7,1.3,1.2,2.4,1.4c.4,-.4,.5,-1.2,1.1,-1.5c1,.3,1.9,.7,3.2,.7c.1,.1,.4,.2,.8,.2c.3,0,.7,-.1,.8,-.2c.1,.1,.2,.1,.3,.1c.2,0,.4,-.1,.6,-.1c.2,-.1,.4,-.2,.5,-.2c.1,0,.3,0,.4,.1c-1.4,.7,-2.2,1.8,-4.2,1.8c-.1,0,-.2,0,-.4,0c-.8,3.7,-1.8,7.3,-2.6,11.2c.5,1,1.5,1.7,1.2,3.1c-.4,2.7,-3.8,4.4,-7.2,4.4c-1.2,0,-2.5,-.2,-3.6,-.7c-1,2,-2,4.1,-3.2,6c-.1,-.4,.3,-.4,.2,-.8c1,-1.8,2,-3.6,2.7,-5.6c-1.1,1.7,-1.9,3.7,-2.8,5.5c-.2,.4,-.4,.8,-.6,1.3c-.3,.4,-.3,1.1,-.8,1.3Z"/></clipPath>
<clipPath id="cf_349"><path d="M816.2,416.6c-4.8,0,-13.1,-7.3,-5.6,-8.8h1.3c.2,0,.4,0,.7,0c0,0,.1,0,.2,0c.2,0,.5,0,.8,.1c3.1,.6,8.3,3.8,7.6,7c-.3,1.2,-1.6,1.6,-3.2,1.7h-1.7q-.1,0,-.1,0Z"/></clipPath>
<clipPath id="cg_349"><path d="M786.5,132.5V120.1H801v12.4Z"/></clipPath>
<style type="text/css"><![CDATA[
.g0_349{
fill: #FEFCF4;
}
.g1_349{
fill: #FFF;
}
.g2_349{
fill: none;
stroke: #6381B7;
stroke-width: 0.763;
}
.g3_349{
fill: #F7C2D9;
}
.g4_349{
fill: none;
stroke: #949698;
stroke-width: 0.305;
stroke-dasharray: 4,4;
}
.g5_349{
fill: none;
stroke: #949698;
stroke-width: 0.305;
}
.g6_349{
fill: #FDF4F3;
}
.g7_349{
fill: #EC008C;
}
.g8_349{
fill: #6D6F71;
}
.g9_349{
fill: #6381B7;
}
.ga_349{
fill: none;
stroke: #6381B7;
stroke-width: 0.381;
stroke-dasharray: 2,1;
}
.gb_349{
fill: none;
stroke: #6381B7;
stroke-width: 0.381;
}
.gc_349{
fill: #FCE8B0;
}
.gd_349{
fill: #25408F;
}
.ge_349{
fill: #A8AAAD;
}
.gf_349{
fill: none;
stroke: #949698;
stroke-width: 0.549;
}
.gg_349{
fill: none;
stroke: #BCBEC0;
stroke-width: 2.566;
}
.gh_349{
fill: #231F20;
}
.gi_349{
fill: #363637;
}
.gj_349{
fill: #5CC4BE;
}
.gk_349{
fill: #F0D73F;
}
.gl_349{
fill: none;
stroke: #FFF;
stroke-width: 1.909;
stroke-miterlimit: 10;
}
.gm_349{
fill: none;
stroke: #000;
stroke-width: 0.381;
stroke-miterlimit: 10;
}
]]></style>
</defs>
<path d="M45.1,1344.3H967.5V32.1H45.1V1344.3Z" class="g0_349"/>
<path d="M172.1,139.2c0,0,-18.4,0,-18.4,18.3V899.4c0,0,0,18.4,18.4,18.4H849.2c0,0,18.3,0,18.3,-18.4V139.2Z" class="g1_349"/>
<path d="M172.1,139.2c0,0,-18.4,0,-18.4,18.3V899.4c0,0,0,18.4,18.4,18.4H849.2c0,0,18.3,0,18.3,-18.4V139.2H172.1Z" class="g2_349"/>
<image clip-path="url(#c0_349)" preserveAspectRatio="none" x="99" y="428" width="157" height="80" xlink:href="img/1.png"/>
<path d="M105.2,434l.5,67.3l144.5,-.2L249.9,481l-.4,-48.3Z" class="g3_349"/>
<image clip-path="url(#c1_349)" preserveAspectRatio="none" x="725" y="432" width="166" height="70" xlink:href="img/2.png"/>
<path d="M730.7,438.9l.6,56.4l153.3,-1l-1.2,-57.5Z" class="g3_349"/>
<path d="M492.8,488.7c26.2,-.6,47.4,-6.5,51.9,-14.1m-.9,-7.2c-6.1,-7.2,-27.1,-12.5,-52.5,-12.9m-7.9,0c-26.2,.7,-47.4,6.5,-51.9,14.1m1,7.3c6.1,7.1,27.1,12.4,52.5,12.8" class="g4_349"/>
<path d="M545.3,473.2c.2,-.5,.3,-1.1,.3,-1.6c0,-.5,-.1,-1,-.3,-1.5M489.7,454.5c-.5,0,-1.1,0,-1.6,0c-.5,0,-1,0,-1.6,0m-55.6,15.6c-.2,.5,-.2,1,-.2,1.5c0,.5,0,1.1,.2,1.6m55.6,15.5c.6,0,1.1,0,1.6,0c.5,0,1.1,0,1.6,0" class="g5_349"/>
<image clip-path="url(#c2_349)" preserveAspectRatio="none" x="100" y="423" width="154" height="89" xlink:href="img/3.png"/>
<image clip-path="url(#c3_349)" preserveAspectRatio="none" x="100" y="423" width="154" height="89" xlink:href="img/4.png"/>
<path d="M104.8,437.2l5,67.9l118.7,-8.2l20.3,-20.3l-3.7,-49.2Z" class="g6_349"/>
<path d="M228.5,496.9l20.3,-20.3l-11,-1.7Z" class="g7_349"/>
<path d="M484,491c-21.9,11.9,-128.5,66.5,-211.3,48.3m-6,-4.7c-1.2,-2.5,-.6,-5.3,7.8,-5.1m3,8.8c-5.2,1.8,-15.8,3.1,-34.6,-3.3m-7.4,-2.9c-8.2,-3.5,-26.3,-12.4,-41.8,-26.8" class="g4_349"/>
<path d="M488,488.7c0,0,-.4,.3,-1.3,.8M271.2,539c-.5,-.1,-1,-.3,-1.5,-.4c0,0,-.5,-.5,-1.2,-1.2m7.7,-7.8c.5,0,1.1,.1,1.7,.1c0,0,1,.4,2,1m2.5,3.4c0,.6,-.2,1.3,-.8,2c0,0,-.4,.4,-1.3,.9m-38.9,-2.5c-.5,-.2,-.9,-.4,-1.4,-.5c0,0,-.6,-.2,-1.5,-.6m-46,-29.2c-.4,-.4,-.8,-.8,-1.1,-1.2" class="g5_349"/>
<path d="M196.3,500.9l-6.7,5.8l-4,-11.5Z" class="g8_349"/>
<path d="M591.8,488.7c19.8,-.8,35.5,-6.9,38.8,-14.6m-.7,-7.6c-4.7,-7.3,-20.5,-12.7,-39.7,-13.3m-7.9,.1c-19.6,.8,-35.4,6.8,-38.8,14.6m.8,7.5c4.6,7.3,20.4,12.7,39.6,13.3" class="g4_349"/>
<path d="M631.1,472.5c.1,-.5,.2,-1,.2,-1.5c0,-.6,-.1,-1.1,-.2,-1.6M588.7,453.2c-.6,0,-1.1,0,-1.6,0c-.6,0,-1.1,0,-1.6,0M543,469.4c-.1,.5,-.2,1,-.2,1.6c0,.5,.1,1,.2,1.5m42.5,16.2c.5,0,1,0,1.6,0c.5,0,1,0,1.6,0" class="g5_349"/>
<image clip-path="url(#c4_349)" preserveAspectRatio="none" x="723" y="429" width="165" height="79" xlink:href="img/5.png"/>
<image clip-path="url(#c5_349)" preserveAspectRatio="none" x="723" y="428" width="165" height="79" xlink:href="img/6.png"/>
<path d="M727.8,444.5l4,56.2l129.1,-9.8l21.8,-20.5L880,433.1Z" class="g6_349"/>
<path d="M860.9,490.9l21.8,-20.4l-19.9,-.3Z" class="g7_349"/>
<path d="M616.2,459.4c0,0,22.9,-17.2,116.1,-5" class="g4_349"/>
<path d="M731.4,448.5l-2.6,8.5l12.1,-1.1Z" class="g8_349"/>
<path d="M166.7,935c0,0,-13,0,-13,13v175.3c0,0,0,13,13,13H854.5c0,0,13,0,13,-13V948c0,0,0,-13,-13,-13Z" class="g1_349"/>
<path d="M166.7,935c0,0,-13,0,-13,13v175.3c0,0,0,13,13,13H854.5c0,0,13,0,13,-13V948c0,0,0,-13,-13,-13H166.7Z" class="g2_349"/>
<path d="M444.1,1154.7c0,0,-4.3,0,-4.3,4.3v10.8c0,0,0,4.3,4.3,4.3h30.3c0,0,4.4,0,4.4,-4.3V1159c0,0,0,-4.3,-4.4,-4.3Z" class="g9_349"/>
<path d="M430.9,1147.2V1182m1.4,1H866.8m.9,-1.4v-34.8m-1.3,-1H431.9" class="ga_349"/>
<path d="M430.9,1182.4v.6h.6m435.7,0h.5v-.6m0,-36v-.6h-.5m-435.7,0h-.6v.6" class="gb_349"/>
<path d="M231.3,961.9c0,0,-13,0,-13,13v47.7c0,0,0,12.9,13,12.9h602c0,0,13,0,13,-12.9V974.9c0,0,0,-13,-13,-13Z" class="gc_349"/>
<image clip-path="url(#c6_349)" preserveAspectRatio="none" x="174" y="958" width="75" height="76" xlink:href="img/7.png"/>
<path d="M226.1,1028.2c0,0,-26.9,11.3,-51.1,-12.8c0,0,15.2,25.3,49.3,24c0,0,24.7,.3,20.2,-10.1c0,0,1.3,-4.5,-18.4,-1.1Z" class="gc_349"/>
<path d="M231.3,190.6c0,0,-13,0,-13,13v47.6c0,0,0,13,13,13h602c0,0,13,0,13,-13V203.6c0,0,0,-13,-13,-13Z" class="gc_349"/>
<image clip-path="url(#c7_349)" preserveAspectRatio="none" x="174" y="187" width="75" height="76" xlink:href="img/8.png"/>
<path d="M226.1,256.8c0,0,-26.9,11.4,-51.1,-12.7c0,0,15.2,25.3,49.3,24c0,0,24.7,.3,20.2,-10.2c0,0,1.3,-4.4,-18.4,-1.1Z" class="gc_349"/>
<image clip-path="url(#c8_349)" x="168" y="429" width="6" height="9" xlink:href="shade/1.png"/>
<image clip-path="url(#c9_349)" x="168" y="402" width="24" height="29" xlink:href="shade/2.png"/>
<image clip-path="url(#ca_349)" x="167" y="405" width="24" height="33" xlink:href="shade/3.png"/>
<image clip-path="url(#cb_349)" x="173" y="401" width="20" height="10" xlink:href="shade/4.png"/>
<image clip-path="url(#cc_349)" x="798" y="436" width="5" height="9" xlink:href="shade/5.png"/>
<image clip-path="url(#cd_349)" x="797" y="409" width="25" height="28" xlink:href="shade/6.png"/>
<image clip-path="url(#ce_349)" x="797" y="411" width="23" height="34" xlink:href="shade/7.png"/>
<image clip-path="url(#cf_349)" x="802" y="407" width="20" height="10" xlink:href="shade/8.png"/>
<path d="M153.3,111.9v39L165,161.2V117Z" class="gd_349"/>
<path d="M153.3,111.9v39H851.1c0,0,16.8,0,16.8,-16.8v-5.3c0,0,0,-16.9,-16.8,-16.9Z" class="g9_349"/>
<path d="M802.6,145.6c8.2,0,14.9,-6.5,14.9,-14.5c0,-8.1,-6.7,-14.5,-14.9,-14.5c-8.2,0,-14.9,6.4,-14.9,14.5c0,8,6.7,14.5,14.9,14.5Z" class="ge_349"/>
<path d="M802.6,145.6c8.2,0,14.9,-6.5,14.9,-14.5c0,-8.1,-6.7,-14.5,-14.9,-14.5c-8.2,0,-14.9,6.4,-14.9,14.5c0,8,6.7,14.5,14.9,14.5Z" class="gf_349"/>
<path d="M802.6,136.4c3,0,5.5,-2.4,5.5,-5.3c0,-3,-2.5,-5.4,-5.5,-5.4c-3,0,-5.5,2.4,-5.5,5.4c0,2.9,2.5,5.3,5.5,5.3Z" class="g1_349"/>
<path d="M802.6,136.4c3,0,5.5,-2.4,5.5,-5.3c0,-3,-2.5,-5.4,-5.5,-5.4c-3,0,-5.5,2.4,-5.5,5.4c0,2.9,2.5,5.3,5.5,5.3Z" class="gg_349"/>
<g clip-path="url(#cg_349)" opacity="0.3">
<path d="M788,130.3c0,0,0,-4.8,3.7,-8.7l7.7,6.8c0,0,-1,.9,-1,2.6Z" class="g1_349"/>
</g>
<path d="M807.2,131c0,0,-3.5,0,-3.5,3.4v8.7c0,0,0,3.5,3.5,3.5h43.5c0,0,3.5,0,3.5,-3.5v-8.7c0,0,0,-3.4,-3.5,-3.4Z" class="gh_349"/>
<path d="M191.2,122c0,-8.3,-6.8,-15,-15.1,-15c-8.3,0,-15,6.7,-15,15c0,8.3,6.7,15.1,15,15.1c.8,0,1.7,-.1,2.4,-.2l4.5,5.2v-6.7c4.9,-2.5,8.2,-7.6,8.2,-13.4Z" class="g1_349"/>
<path d="M183.5,143.3l-5.1,-5.9c-.8,.1,-1.5,.1,-2.3,.1c-8.5,0,-15.5,-6.9,-15.5,-15.5c0,-8.5,7,-15.5,15.5,-15.5c8.6,0,15.5,7,15.5,15.5c0,5.7,-3.1,11,-8.1,13.7Zm-4.8,-6.9l3.9,4.5v-5.8l.2,-.1c4.9,-2.5,7.9,-7.5,7.9,-13c0,-8,-6.5,-14.6,-14.6,-14.6c-8,0,-14.6,6.6,-14.6,14.6c0,8.1,6.6,14.6,14.6,14.6c.8,0,1.6,-.1,2.4,-.2Z" class="gi_349"/>
<path d="M169.1,121.6c.8,0,1.4,.6,1.4,1.4c0,.8,-.6,1.5,-1.4,1.5c-.8,0,-1.4,-.7,-1.4,-1.5c0,-.8,.6,-1.4,1.4,-1.4Z" class="gj_349"/>
<path d="M169.1,124.9c-1,0,-1.9,-.8,-1.9,-1.9c0,-1,.9,-1.9,1.9,-1.9c1,0,1.9,.9,1.9,1.9c0,1.1,-.9,1.9,-1.9,1.9m0,-2.9c-.5,0,-1,.5,-1,1c0,.6,.5,1,1,1c.5,0,1,-.4,1,-1c0,-.5,-.5,-1,-1,-1Z" class="gi_349"/>
<path d="M176.1,121.6c.8,0,1.5,.6,1.5,1.4c0,.8,-.7,1.5,-1.5,1.5c-.8,0,-1.4,-.7,-1.4,-1.5c0,-.8,.6,-1.4,1.4,-1.4Z" class="gj_349"/>
<path d="M176.1,124.9c-1,0,-1.9,-.8,-1.9,-1.9c0,-1,.9,-1.9,1.9,-1.9c1.1,0,1.9,.9,1.9,1.9c0,1.1,-.8,1.9,-1.9,1.9m0,-2.9c-.5,0,-1,.5,-1,1c0,.6,.5,1,1,1c.6,0,1,-.4,1,-1c0,-.5,-.4,-1,-1,-1Z" class="gi_349"/>
<path d="M183.1,121.6c.8,0,1.5,.6,1.5,1.4c0,.8,-.7,1.5,-1.5,1.5c-.8,0,-1.4,-.7,-1.4,-1.5c0,-.8,.6,-1.4,1.4,-1.4Z" class="gj_349"/>
<path d="M183.1,124.9c-1,0,-1.9,-.8,-1.9,-1.9c0,-1,.9,-1.9,1.9,-1.9c1.1,0,1.9,.9,1.9,1.9c0,1.1,-.8,1.9,-1.9,1.9m0,-2.9c-.5,0,-1,.5,-1,1c0,.6,.5,1,1,1c.6,0,1,-.4,1,-1c0,-.5,-.4,-1,-1,-1Z" class="gi_349"/>
<path d="M185.1,136.3c0,-9.8,7.8,-17.7,17.6,-17.7c9.7,0,17.6,7.9,17.6,17.7c0,9.7,-7.9,17.6,-17.6,17.6c-1,0,-1.9,-.1,-2.9,-.3l-5.2,6.1v-7.8c-5.7,-2.9,-9.5,-8.8,-9.5,-15.6Z" class="gk_349"/>
<path d="M194.6,160.2q-.1,0,-.2,0c-.2,-.1,-.3,-.3,-.3,-.5v-7.5c-5.9,-3.2,-9.5,-9.2,-9.5,-15.9c0,-10,8.1,-18.1,18.1,-18.1c9.9,0,18,8.1,18,18.1c0,9.9,-8.1,18,-18,18c-.9,0,-1.8,0,-2.7,-.2l-5.1,5.9c-.1,.1,-.2,.2,-.3,.2m8.1,-41.1c-9.5,0,-17.2,7.7,-17.2,17.2c0,6.4,3.6,12.2,9.3,15.2c.1,.1,.2,.2,.2,.4v6.6l4.5,-5.2c.1,-.1,.3,-.1,.4,-.1c1,.1,1.9,.2,2.8,.2c9.4,0,17.1,-7.7,17.1,-17.1c0,-9.5,-7.7,-17.2,-17.1,-17.2Z" class="gi_349"/>
<path d="M210.9,135.8c.9,0,1.6,.7,1.6,1.6c0,1,-.7,1.7,-1.6,1.7c-1,0,-1.7,-.7,-1.7,-1.7c0,-.9,.7,-1.6,1.7,-1.6Z" class="g1_349"/>
<path d="M210.9,139.6c-1.2,0,-2.2,-1,-2.2,-2.2c0,-1.1,1,-2.1,2.2,-2.1c1.1,0,2.1,1,2.1,2.1c0,1.2,-1,2.2,-2.1,2.2m0,-3.4c-.7,0,-1.3,.6,-1.3,1.2c0,.7,.6,1.3,1.3,1.3c.6,0,1.2,-.6,1.2,-1.3c0,-.6,-.6,-1.2,-1.2,-1.2Z" class="gi_349"/>
<path d="M202.7,135.8c.9,0,1.6,.7,1.6,1.6c0,1,-.7,1.7,-1.6,1.7c-1,0,-1.7,-.7,-1.7,-1.7c0,-.9,.7,-1.6,1.7,-1.6Z" class="g1_349"/>
<path d="M202.7,139.6c-1.2,0,-2.2,-1,-2.2,-2.2c0,-1.1,1,-2.1,2.2,-2.1c1.1,0,2.1,1,2.1,2.1c0,1.2,-1,2.2,-2.1,2.2m0,-3.4c-.7,0,-1.3,.6,-1.3,1.2c0,.7,.6,1.3,1.3,1.3c.6,0,1.2,-.6,1.2,-1.3c0,-.6,-.6,-1.2,-1.2,-1.2Z" class="gi_349"/>
<path d="M194.5,135.8c.9,0,1.6,.7,1.6,1.6c0,1,-.7,1.7,-1.6,1.7c-1,0,-1.7,-.7,-1.7,-1.7c0,-.9,.7,-1.6,1.7,-1.6Z" class="g1_349"/>
<path d="M194.5,139.6c-1.2,0,-2.2,-1,-2.2,-2.2c0,-1.1,1,-2.1,2.2,-2.1c1.1,0,2.1,1,2.1,2.1c0,1.2,-1,2.2,-2.1,2.2m0,-3.4c-.7,0,-1.2,.6,-1.2,1.2c0,.7,.5,1.3,1.2,1.3c.6,0,1.2,-.6,1.2,-1.3c0,-.6,-.6,-1.2,-1.2,-1.2Z" class="gi_349"/>
<path d="M32.1,45.1H9.2m958.3,0h22.9M32.1,1331.3H9.2m958.3,0h22.9M45.1,32.1V9.2m0,1335.1v22.9M954.5,32.1V9.2m0,1335.1v22.9" class="gl_349"/>
<path d="M32.1,45.1H9.2m958.3,0h22.9M32.1,1331.3H9.2m958.3,0h22.9M45.1,32.1V9.2m0,1335.1v22.9M954.5,32.1V9.2m0,1335.1v22.9" class="gm_349"/>
<path d="M27.5,32.1H0m972.1,0h27.5M27.5,1344.3H0m972.1,0h27.5M32.1,27.5V0m0,1348.9v27.5M967.5,27.5V0m0,1348.9v27.5" class="gl_349"/>
<path d="M27.5,32.1H0m972.1,0h27.5M27.5,1344.3H0m972.1,0h27.5M32.1,27.5V0m0,1348.9v27.5M967.5,27.5V0m0,1348.9v27.5" class="gm_349"/>
</svg>