<?xml version="1.0" encoding="UTF-8" standalone="no"?>
<!DOCTYPE svg PUBLIC "-//W3C//DTD SVG 1.1//EN"
"http://www.w3.org/Graphics/SVG/1.1/DTD/svg11.dtd">
<svg viewBox="0 0 999 1376" version="1.1" xmlns="http://www.w3.org/2000/svg" xmlns:xlink="http://www.w3.org/1999/xlink">
<defs>
<clipPath id="c0_266"><path d="M32.1,1344.3V32.1H967.5V1344.3Z"/></clipPath>
<clipPath id="c1_266"><path d="M177,687.1l-6.5,-2.2L154.1,671V613.9h72v73.2Z"/></clipPath>
<clipPath id="c2_266"><path d="M214,1099v-79.4h86.6V1099Z"/></clipPath>
<clipPath id="c3_266"><path d="M211.4,830.7V751.3h89.2v79.4Z"/></clipPath>
<clipPath id="c4_266"><path d="M212.2,1233.1v-79.4h88.4v79.4Z"/></clipPath>
<clipPath id="c5_266"><path d="M219.2,964.8V885.4h81.4v79.4Z"/></clipPath>
<clipPath id="c6_266"><path d="M177,234.6l-6.5,-2.1l-16.4,-14V161.4h72v73.2Z"/></clipPath>
<style type="text/css"><![CDATA[
.g0_266{
fill: #FEFCF4;
}
.g1_266{
fill: #FCE8B0;
}
.g2_266{
fill: #FFF;
}
.g3_266{
fill: none;
stroke: #6381B7;
stroke-width: 0.763;
}
.g4_266{
fill: none;
stroke: #949698;
stroke-width: 0.381;
}
.g5_266{
fill: #93BEDA;
}
.g6_266{
fill: #EFE9CC;
}
.g7_266{
fill: #25408F;
}
.g8_266{
fill: #6381B7;
}
.g9_266{
fill: #00BAF1;
}
.ga_266{
fill: #332D2C;
}
.gb_266{
fill: #D9DFF0;
}
.gc_266{
fill: #F27C85;
}
.gd_266{
fill: #7DD3F6;
}
.ge_266{
fill: none;
stroke: #FFF;
stroke-width: 1.909;
stroke-miterlimit: 10;
}
.gf_266{
fill: none;
stroke: #000;
stroke-width: 0.381;
stroke-miterlimit: 10;
}
]]></style>
</defs>
<path d="M32.1,1344.3H954.5V32.1H32.1V1344.3Z" class="g0_266"/>
<path clip-path="url(#c0_266)" d="M954.5,1344.3H1877V32.1H954.5V1344.3Z" class="g0_266"/>
<path d="M209.6,642.1c0,0,-12.9,0,-12.9,13v21.6c0,0,0,13,12.9,13H833.3c0,0,13,0,13,-13V655.1c0,0,0,-13,-13,-13Z" class="g1_266"/>
<image clip-path="url(#c1_266)" preserveAspectRatio="none" x="153" y="612" width="75" height="77" xlink:href="img/1.png"/>
<path d="M204.4,682.3c0,0,-26.8,11.3,-51.1,-12.7c0,0,15.2,25.3,49.3,23.9c0,0,24.8,.4,20.3,-10.1c0,0,1.2,-4.4,-18.5,-1.1Z" class="g1_266"/>
<path d="M150.9,135c0,0,-18.3,0,-18.3,18.3V585.5c0,0,0,18.3,18.3,18.3H828c0,0,18.4,0,18.4,-18.3V135Z" class="g2_266"/>
<path d="M150.9,135c0,0,-18.3,0,-18.3,18.3V585.5c0,0,0,18.3,18.3,18.3H828c0,0,18.4,0,18.4,-18.3V135H150.9Z" class="g3_266"/>
<path d="M186.7,362.2H307.1V258.6H186.7V362.2Z" class="g2_266"/>
<image preserveAspectRatio="none" x="195" y="259" width="104" height="103" xlink:href="img/2.jpg"/>
<path d="M186.7,362.2H307.1V258.6H186.7V362.2Z" class="g4_266"/>
<path d="M350.3,362.2H470.8V258.6H350.3V362.2Z" class="g2_266"/>
<image preserveAspectRatio="none" x="359" y="259" width="103" height="103" xlink:href="img/3.jpg"/>
<path d="M350.3,362.2H470.8V258.6H350.3V362.2Z" class="g4_266"/>
<path d="M513.9,362.2H634.4V258.6H513.9V362.2Z" class="g2_266"/>
<image preserveAspectRatio="none" x="522" y="259" width="104" height="103" xlink:href="img/4.jpg"/>
<path d="M513.9,362.2H634.4V258.6H513.9V362.2Z" class="g4_266"/>
<path d="M677.5,362.2H798V258.6H677.5V362.2Z" class="g2_266"/>
<image preserveAspectRatio="none" x="686" y="259" width="103" height="103" xlink:href="img/5.jpg"/>
<path d="M677.5,362.2H798V258.6H677.5V362.2Z" class="g4_266"/>
<path d="M186.7,527.4H307.1V423.8H186.7V527.4Z" class="g2_266"/>
<image preserveAspectRatio="none" x="195" y="424" width="104" height="103" xlink:href="img/6.jpg"/>
<path d="M186.7,527.4H307.1V423.8H186.7V527.4Z" class="g4_266"/>
<path d="M350.3,527.4H470.8V423.8H350.3V527.4Z" class="g2_266"/>
<image preserveAspectRatio="none" x="359" y="424" width="103" height="103" xlink:href="img/7.jpg"/>
<path d="M350.3,527.4H470.8V423.8H350.3V527.4Z" class="g4_266"/>
<path d="M513.9,527.4H634.4V423.8H513.9V527.4Z" class="g2_266"/>
<image preserveAspectRatio="none" x="522" y="424" width="104" height="103" xlink:href="img/8.jpg"/>
<path d="M513.9,527.4H634.4V423.8H513.9V527.4Z" class="g4_266"/>
<path d="M677.5,527.4H798V423.8H677.5V527.4Z" class="g2_266"/>
<image preserveAspectRatio="none" x="686" y="424" width="103" height="103" xlink:href="img/9.jpg"/>
<path d="M677.5,527.4H798V423.8H677.5V527.4Z" class="g4_266"/>
<path d="M145.1,703.7c0,0,-13,0,-13,13v514.6c0,0,0,13,13,13H832.9c0,0,13,0,13,-13V716.7c0,0,0,-13,-13,-13Z" class="g2_266"/>
<path d="M145.1,703.7c0,0,-13,0,-13,13v514.6c0,0,0,13,13,13H832.9c0,0,13,0,13,-13V716.7c0,0,0,-13,-13,-13H145.1Z" class="g3_266"/>
<image clip-path="url(#c2_266)" preserveAspectRatio="none" x="169" y="1018" width="133" height="83" xlink:href="img/10.png"/>
<path d="M319,1059.7c0,-2,-1.6,-3.6,-3.6,-3.6c-2,0,-3.6,1.6,-3.6,3.6c0,2,1.6,3.6,3.6,3.6c2,0,3.6,-1.6,3.6,-3.6Z" class="g5_266"/>
<image clip-path="url(#c3_266)" preserveAspectRatio="none" x="210" y="750" width="92" height="82" xlink:href="img/11.png"/>
<path d="M319,790.9c0,-2,-1.6,-3.6,-3.6,-3.6c-2,0,-3.6,1.6,-3.6,3.6c0,2,1.6,3.6,3.6,3.6c2,0,3.6,-1.6,3.6,-3.6Z" class="g5_266"/>
<image clip-path="url(#c4_266)" preserveAspectRatio="none" x="211" y="1152" width="91" height="83" xlink:href="img/12.png"/>
<path d="M319,1193c0,-2,-1.6,-3.6,-3.6,-3.6c-2,0,-3.6,1.6,-3.6,3.6c0,2,1.6,3.6,3.6,3.6c2,0,3.6,-1.6,3.6,-3.6Z" class="g5_266"/>
<image clip-path="url(#c5_266)" preserveAspectRatio="none" x="218" y="884" width="84" height="82" xlink:href="img/13.png"/>
<path d="M319,925.3c0,-2,-1.6,-3.6,-3.6,-3.6c-2,0,-3.6,1.6,-3.6,3.6c0,2,1.6,3.6,3.6,3.6c2,0,3.6,-1.6,3.6,-3.6Z" class="g5_266"/>
<path d="M650.7,794.5c1.9,0,3.6,-1.6,3.6,-3.6c0,-2,-1.7,-3.6,-3.6,-3.6c-2,0,-3.7,1.6,-3.7,3.6c0,2,1.7,3.6,3.7,3.6Z" class="g5_266"/>
<path d="M650.7,928.9c1.9,0,3.6,-1.6,3.6,-3.6c0,-2,-1.7,-3.6,-3.6,-3.6c-2,0,-3.7,1.6,-3.7,3.6c0,2,1.7,3.6,3.7,3.6Z" class="g5_266"/>
<path d="M650.7,1063.3c1.9,0,3.6,-1.6,3.6,-3.6c0,-2,-1.7,-3.6,-3.6,-3.6c-2,0,-3.7,1.6,-3.7,3.6c0,2,1.7,3.6,3.7,3.6Z" class="g5_266"/>
<path d="M650.7,1196.6c1.9,0,3.6,-1.6,3.6,-3.6c0,-2,-1.7,-3.6,-3.6,-3.6c-2,0,-3.7,1.6,-3.7,3.6c0,2,1.7,3.6,3.7,3.6Z" class="g5_266"/>
<path d="M689.6,774.6c0,0,-8.6,0,-8.6,8.6v15.2c0,0,0,8.7,8.6,8.7h91c0,0,8.6,0,8.6,-8.7V783.2c0,0,0,-8.6,-8.6,-8.6Z" class="g6_266"/>
<path d="M689.6,910.1c0,0,-8.6,0,-8.6,8.7V934c0,0,0,8.6,8.6,8.6h91c0,0,8.6,0,8.6,-8.6V918.8c0,0,0,-8.7,-8.6,-8.7Z" class="g6_266"/>
<path d="M689.6,1045.7c0,0,-8.6,0,-8.6,8.6v15.2c0,0,0,8.7,8.6,8.7h91c0,0,8.6,0,8.6,-8.7v-15.2c0,0,0,-8.6,-8.6,-8.6Z" class="g6_266"/>
<path d="M689.6,1179.1c0,0,-8.6,0,-8.6,8.6v15.2c0,0,0,8.7,8.6,8.7h91c0,0,8.6,0,8.6,-8.7v-15.2c0,0,0,-8.6,-8.6,-8.6Z" class="g6_266"/>
<path d="M209.6,189.6c0,0,-12.9,0,-12.9,13v21.6c0,0,0,13,12.9,13h602c0,0,13,0,13,-13V202.6c0,0,0,-13,-13,-13Z" class="g1_266"/>
<image clip-path="url(#c6_266)" preserveAspectRatio="none" x="153" y="160" width="75" height="76" xlink:href="img/14.png"/>
<path d="M204.4,229.9c0,0,-26.8,11.3,-51.1,-12.8c0,0,15.2,25.3,49.3,24c0,0,24.8,.3,20.3,-10.2c0,0,1.2,-4.4,-18.5,-1Z" class="g1_266"/>
<path d="M131.7,126.7v22.2l11.7,10.3V137Z" class="g7_266"/>
<path d="M131.7,109.9v39H829.4c0,0,16.9,0,16.9,-16.8v-5.4c0,0,0,-16.8,-16.9,-16.8Z" class="g8_266"/>
<path d="M189.6,121.3l-6.4,-6.5L162,136l6.4,6.5Z" class="g9_266"/>
<path d="M168.4,143c.2,0,.3,0,.4,-.1L190,121.7c.1,-.1,.2,-.3,.2,-.4c0,-.1,-.1,-.3,-.2,-.4l-6.5,-6.4c-.2,-.2,-.5,-.2,-.7,0l-21.2,21.2c-.1,.1,-.2,.2,-.2,.3c0,.2,.1,.3,.2,.4l6.5,6.5c.1,.1,.2,.1,.3,.1m20.5,-21.7l-20.5,20.5L162.7,136l20.5,-20.4Z" class="ga_266"/>
<path d="M189.6,121.3l-6.4,-6.5l2.1,-2.1l6.5,6.5Z" class="gb_266"/>
<path d="M189.6,121.8c.2,0,.3,0,.4,-.1l2.1,-2.1c.1,-.1,.2,-.3,.2,-.4c0,-.2,-.1,-.3,-.2,-.4l-6.4,-6.5c-.2,-.2,-.6,-.2,-.8,0l-2.1,2.2c-.1,0,-.2,.2,-.2,.3c0,.2,.1,.3,.2,.4l6.5,6.5c.1,.1,.2,.1,.3,.1m1.4,-2.6l-1.4,1.4l-5.7,-5.8l1.4,-1.4Z" class="ga_266"/>
<path d="M195.4,115.6l-6.5,-6.5l-3.6,3.6l6.5,6.5Z" class="gc_266"/>
<path d="M191.8,119.7c.1,0,.2,0,.3,-.1l3.7,-3.7c.2,-.2,.2,-.5,0,-.7l-6.5,-6.5c-.2,-.2,-.6,-.2,-.8,0l-3.6,3.6c-.2,.2,-.2,.6,0,.8l6.5,6.5c.1,.1,.2,.1,.4,.1m2.8,-4.1l-2.8,2.8L186,112.7l2.9,-2.9Z" class="ga_266"/>
<path d="M157.3,147.2L162,136l6.4,6.5Z" class="g2_266"/>
<path d="M157.3,147.7c.1,0,.2,0,.2,-.1L168.6,143c.2,-.1,.3,-.2,.4,-.4c0,-.2,-.1,-.3,-.2,-.5l-6.5,-6.4c-.1,-.2,-.3,-.2,-.5,-.2c-.1,.1,-.3,.2,-.3,.3l-4.7,11.1c0,.2,0,.5,.1,.6c.1,.1,.3,.2,.4,.2m10.2,-5.4l-9.2,3.9l3.8,-9.2Z" class="ga_266"/>
<path d="M157.3,147.2l2.3,-5.4l3.1,3.1Z" class="ga_266"/>
<path d="M157.3,147.7c.1,0,.2,0,.2,-.1l5.4,-2.2c.1,-.1,.3,-.2,.3,-.4c0,-.2,0,-.3,-.1,-.5l-3.2,-3.1c-.1,-.1,-.3,-.2,-.4,-.1c-.2,0,-.4,.1,-.4,.3l-2.3,5.3c0,.2,0,.5,.1,.6c.1,.1,.3,.2,.4,.2m4.5,-3l-3.5,1.5l1.4,-3.5Z" class="ga_266"/>
<path d="M187.9,119.5l-3,-2.9l-21.2,21.2l3,3Z" class="gd_266"/>
<path d="M166.7,141.3c.1,0,.2,-.1,.3,-.2l21.3,-21.2c.1,-.1,.1,-.2,.1,-.4c0,-.1,0,-.2,-.1,-.3l-3,-3c-.2,-.2,-.5,-.2,-.8,0l-21.2,21.2c-.1,.1,-.1,.3,-.1,.4c0,.1,0,.3,.1,.4l3,2.9c.1,.1,.2,.2,.4,.2m20.4,-21.8L166.7,140l-2.2,-2.2l20.4,-20.5Z" class="ga_266"/>
<path d="M32.1,45.1H9.2m958.3,0h22.9M32.1,1331.3H9.2m958.3,0h22.9M45.1,32.1V9.2m0,1335.1v22.9M954.5,32.1V9.2m0,1335.1v22.9" class="ge_266"/>
<path d="M32.1,45.1H9.2m958.3,0h22.9M32.1,1331.3H9.2m958.3,0h22.9M45.1,32.1V9.2m0,1335.1v22.9M954.5,32.1V9.2m0,1335.1v22.9" class="gf_266"/>
<path d="M27.5,32.1H0m972.1,0h27.5M27.5,1344.3H0m972.1,0h27.5M32.1,27.5V0m0,1348.9v27.5M967.5,27.5V0m0,1348.9v27.5" class="ge_266"/>
<path d="M27.5,32.1H0m972.1,0h27.5M27.5,1344.3H0m972.1,0h27.5M32.1,27.5V0m0,1348.9v27.5M967.5,27.5V0m0,1348.9v27.5" class="gf_266"/>
</svg>