<?xml version="1.0" encoding="UTF-8" standalone="no"?>
<!DOCTYPE svg PUBLIC "-//W3C//DTD SVG 1.1//EN"
"http://www.w3.org/Graphics/SVG/1.1/DTD/svg11.dtd">
<svg viewBox="0 0 999 1376" version="1.1" xmlns="http://www.w3.org/2000/svg" xmlns:xlink="http://www.w3.org/1999/xlink">
<defs>
<clipPath id="c0_243"><path d="M32.1,1344.3V32.1H967.5V1344.3Z"/></clipPath>
<clipPath id="c1_243"><path d="M207.6,831.7l-6.5,-2.1L184.7,815.7V758.6h72v73.1Z"/></clipPath>
<clipPath id="c2_243"><path d="M200.1,137.2c.1,-1.3,.7,-2.5,1.6,-3.4c1,-1,2.3,-1.6,3.9,-1.6h19.2v5Z"/></clipPath>
<clipPath id="c3_243"><path d="M199.5,137.7v-6h25.8v6Z"/></clipPath>
<style type="text/css"><![CDATA[
.g0_243{
fill: #FEFCF4;
}
.g1_243{
fill: #FCE8B0;
}
.g2_243{
fill: #FFF;
}
.g3_243{
fill: none;
stroke: #6381B7;
stroke-width: 0.763;
}
.g4_243{
fill: none;
stroke: #231F20;
stroke-width: 0.305;
stroke-miterlimit: 10;
}
.g5_243{
fill: #6381B7;
}
.g6_243{
fill: none;
stroke: #6381B7;
stroke-width: 0.381;
stroke-dasharray: 2,1;
}
.g7_243{
fill: none;
stroke: #6381B7;
stroke-width: 0.381;
}
.g8_243{
fill: #25408F;
}
.g9_243{
fill: none;
stroke: #231F20;
stroke-width: 1.527;
}
.ga_243{
fill: #39B4D1;
stroke: #2D2A4A;
stroke-width: 1.038;
stroke-linecap: round;
stroke-linejoin: round;
}
.gb_243{
fill: #2D2A4A;
}
.gc_243{
fill: none;
stroke: #2D2A4A;
stroke-width: 1.038;
stroke-linecap: round;
stroke-linejoin: round;
}
.gd_243{
fill: #DEDAD3;
}
.ge_243{
fill: #29263F;
}
.gf_243{
fill: #E15F46;
stroke: #2D2A4A;
stroke-width: 1.038;
stroke-linecap: round;
stroke-linejoin: round;
}
.gg_243{
fill: #F7F8E9;
}
.gh_243{
fill: none;
stroke: #BFD62F;
stroke-width: 1.527;
stroke-linecap: round;
stroke-linejoin: round;
stroke-dasharray: 0,5;
}
.gi_243{
fill: none;
stroke: #BFD62F;
stroke-width: 1.527;
stroke-linecap: round;
stroke-linejoin: round;
}
.gj_243{
fill: #BFD62F;
}
.gk_243{
fill: #D1232A;
}
.gl_243{
fill: #233D4A;
}
.gm_243{
fill: #FFE293;
}
.gn_243{
fill: #F89C47;
}
.go_243{
fill: #DCE9F3;
}
.gp_243{
fill: none;
stroke: #FFF;
stroke-width: 1.909;
stroke-miterlimit: 10;
}
.gq_243{
fill: none;
stroke: #000;
stroke-width: 0.381;
stroke-miterlimit: 10;
}
]]></style>
</defs>
<path clip-path="url(#c0_243)" d="M-877.3,1344.3H45.1V32.1H-877.3V1344.3Z" class="g0_243"/>
<path d="M240.2,786.7c0,0,-13,0,-13,13v21.7c0,0,0,12.9,13,12.9H854.9c0,0,13,0,13,-12.9V799.7c0,0,0,-13,-13,-13Z" class="g1_243"/>
<image clip-path="url(#c1_243)" preserveAspectRatio="none" x="183" y="757" width="75" height="76" xlink:href="img/1.png"/>
<path d="M235,827c0,0,-26.8,11.3,-51.1,-12.8c0,0,15.2,25.3,49.3,24c0,0,24.8,.3,20.3,-10.1c0,0,1.2,-4.5,-18.5,-1.1Z" class="g1_243"/>
<path d="M166.5,846.9c0,0,-13,0,-13,13v291.3c0,0,0,13,13,13H854.8c0,0,13,0,13,-13V859.9c0,0,0,-13,-13,-13Z" class="g2_243"/>
<path d="M166.5,846.9c0,0,-13,0,-13,13v291.3c0,0,0,13,13,13H854.8c0,0,13,0,13,-13V859.9c0,0,0,-13,-13,-13H166.5Z" class="g3_243"/>
<path d="M239.1,981.9H458.3m-219.2,70.5H458.3m-98.6,46.1H505.8" class="g4_243"/>
<path d="M409.1,1181.8c0,0,-4.3,0,-4.3,4.3V1197c0,0,0,4.3,4.3,4.3h30.4c0,0,4.3,0,4.3,-4.3v-10.9c0,0,0,-4.3,-4.3,-4.3Z" class="g5_243"/>
<path d="M396,1174.3v34.9m1.3,.9H866.8m.9,-1.3v-34.9m-1.3,-.9H396.9" class="g6_243"/>
<path d="M396,1209.6v.5h.5m470.6,0h.6v-.5m0,-36.1v-.5h-.6m-470.6,0H396v.5" class="g7_243"/>
<path d="M153.3,109.5v39L165,158.7V136.5Z" class="g8_243"/>
<path d="M153.3,109.5v39H851.1c0,0,16.8,0,16.8,-16.8v-5.4c0,0,0,-16.8,-16.8,-16.8Z" class="g5_243"/>
<path d="M790.4,131c0,0,-.5,-10,8.6,-9.4c0,0,6.8,-.3,6.7,9.5m-15.3,-1.5v6.5c0,0,-3.4,.3,-3.9,-3c0,0,-.1,-3.8,3.9,-3.5Zm15.3,0v6.5c0,0,3.4,.3,4,-3c0,0,0,-3.8,-4,-3.5Z" class="g9_243"/>
<path d="M169,140.8h61v-32H169v32Z" class="ga_243"/>
<path d="M169,143.1h61v-2.3H169v2.3Z" class="ga_243"/>
<path d="M193.5,106.2H173.8v31.5h25.7V112.3c0,-3.4,-2.7,-6.1,-6,-6.1Z" class="g2_243"/>
<path d="M193.5,106.2v-.5H173.8c-.2,0,-.3,.1,-.4,.2c-.1,.1,-.2,.2,-.2,.3v31.5c0,.1,.1,.3,.2,.4c.1,.1,.2,.1,.4,.1h25.7c.2,0,.3,0,.4,-.1c.1,-.1,.1,-.3,.1,-.4V112.3c0,-3.7,-2.9,-6.6,-6.5,-6.6v1c1.5,0,2.9,.7,3.9,1.7c1,1,1.6,2.3,1.6,3.9v24.9H174.3V106.7h19.2Z" class="gb_243"/>
<path d="M173.8,131.7v6h25.7c0,-3.3,-2.7,-6,-6,-6Z" class="g2_243"/>
<path d="M173.8,131.7h-.6v6c0,.1,.1,.3,.2,.4c.1,.1,.2,.1,.4,.1h25.7c.2,0,.3,0,.4,-.1c.1,-.1,.1,-.3,.1,-.4c0,-3.6,-2.9,-6.6,-6.5,-6.6H173.8c-.2,0,-.3,.1,-.4,.2c-.1,.1,-.2,.2,-.2,.4h.6v.5h19.7c1.5,0,2.9,.6,3.9,1.6c1,1,1.6,2.4,1.6,3.9h.5v-.5H174.3v-5.5h-.5v.5Z" class="gb_243"/>
<path d="M177.3,110.9h17.2m-17.2,2.8h17.2m-17.2,2.9h17.2m-17.2,2.9h17.2m-17.2,2.8h17.2m-17.2,2.9h17.2M177.3,128h17.2" class="gc_243"/>
<path d="M193.5,132.2H174.3v5H199c-.1,-1.3,-.7,-2.5,-1.6,-3.4c-1,-1,-2.4,-1.6,-3.9,-1.6Z" class="gd_243"/>
<path d="M174.3,132.2h19.2c1.5,0,2.9,.6,3.9,1.6c.9,.9,1.5,2.1,1.6,3.4H174.3Zm19.2,-.5H173.8v6H199v-2.5c-.9,-2.1,-3.1,-3.5,-5.5,-3.5Z" class="ge_243"/>
<path d="M205.6,106.2h19.7v31.5H199.5V112.3c0,-3.4,2.7,-6.1,6.1,-6.1Z" class="g2_243"/>
<path d="M205.6,106.2v.5h19.2v30.5H200V112.3c0,-1.6,.7,-2.9,1.7,-3.9c1,-1,2.3,-1.7,3.9,-1.7v-1c-3.7,0,-6.6,2.9,-6.6,6.6v25.4c0,.1,.1,.3,.2,.4c0,.1,.2,.1,.3,.1h25.8c.1,0,.2,0,.3,-.1c.1,-.1,.2,-.3,.2,-.4V106.2c0,-.1,-.1,-.2,-.2,-.3c-.1,-.1,-.2,-.2,-.3,-.2H205.6Z" class="gb_243"/>
<path d="M225.3,131.7v6H199.5c0,-3.3,2.7,-6,6.1,-6Z" class="g2_243"/>
<path d="M225.3,131.7h-.5v5.5H199.5v.5h.5c0,-1.5,.7,-2.9,1.7,-3.9c1,-1,2.3,-1.6,3.9,-1.6h19.7v-.5h-.5h.5v-.6H205.6c-3.7,0,-6.6,3,-6.6,6.6c0,.1,.1,.3,.2,.4c0,.1,.2,.1,.3,.1h25.8c.1,0,.2,0,.3,-.1c.1,-.1,.2,-.3,.2,-.4v-6c0,-.2,-.1,-.3,-.2,-.4c-.1,-.1,-.2,-.2,-.3,-.2Z" class="gb_243"/>
<path d="M221.8,110.9H204.6m17.2,2.8H204.6m17.2,2.9H204.6m17.2,2.9H204.6m17.2,2.8H204.6m17.2,2.9H204.6m17.2,2.8H204.6" class="gc_243"/>
<path clip-path="url(#c2_243)" d="M200.1,137.2h24.7v-5H200.1v5Z" class="gd_243"/>
<path clip-path="url(#c3_243)" d="M200.1,137.2c.1,-1.3,.7,-2.5,1.6,-3.4c1,-1,2.3,-1.6,3.9,-1.6h19.2v5Zm25.2,-5.5H205.6c-3.4,0,-6.1,2.7,-6.1,6h25.8v-6h-.5h.5Z" class="ge_243"/>
<path d="M199.5,108.8v34.3" class="gc_243"/>
<path d="M217.2,145.5h3.3V134.7h-3.3v10.8Z" class="gf_243"/>
<path d="M154.1,729.3h713V483.7h-713V729.3Z" class="gg_243"/>
<path d="M154.1,488.2V727.1m4.6,2.2H864.9m2.2,-4.5V486m-4.5,-2.3H156.4" class="gh_243"/>
<path d="M154.1,729.3v0m713.1,0v0m0,-245.6v0m-713.1,0v0" class="gi_243"/>
<path d="M153.3,486.9V458.3c0,0,0,-8.7,8.7,-8.7H859.3c0,0,8.6,0,8.6,8.7v29.2Z" class="gj_243"/>
<path d="M175,510.4c0,0,4.8,5.5,6.1,12.3c0,0,6.6,-11.3,11.7,-13.9c0,0,-9.3,4.9,-11.2,8.1c0,0,-1.8,-4.3,-6.6,-6.5Z" class="gk_243"/>
<path d="M183.4,478.5l3,3l8.1,-8.1l-2.9,-3Z" class="g2_243"/>
<path d="M186.4,482.5v0c.3,0,.5,-.1,.7,-.3l8.1,-8.1c.2,-.2,.3,-.5,.3,-.7c0,-.3,-.1,-.6,-.3,-.7l-2.9,-3c-.4,-.4,-1,-.4,-1.4,0l-8.2,8.1c-.4,.4,-.4,1,0,1.4l3,3c.2,.2,.4,.3,.7,.3m6.7,-9.1l-6.7,6.7l-1.6,-1.6l6.8,-6.7Z" class="gl_243"/>
<path d="M190,451.6c-6.5,6.5,-6.5,17.1,0,23.6c6.5,6.6,17.1,6.6,23.7,0c6.5,-6.5,6.5,-17.1,0,-23.6c-6.6,-6.6,-17.2,-6.6,-23.7,0Z" class="gm_243"/>
<path d="M201.8,481.1c4.8,0,9.2,-1.8,12.6,-5.2c6.9,-6.9,6.9,-18.1,0,-25c-3.4,-3.4,-7.8,-5.2,-12.6,-5.2c-4.7,0,-9.2,1.8,-12.5,5.2c-6.9,6.9,-6.9,18.1,0,25c3.3,3.4,7.8,5.2,12.5,5.2m0,-33.5c4.2,0,8.2,1.7,11.2,4.7c6.1,6.1,6.1,16.1,0,22.2c-3,3,-7,4.6,-11.2,4.6c-4.2,0,-8.1,-1.6,-11.1,-4.6c-6.2,-6.1,-6.2,-16.1,0,-22.2c3,-3,6.9,-4.7,11.1,-4.7Z" class="gl_243"/>
<path d="M176,483.7l5.2,5.2l8.2,-8.1l-5.2,-5.3Z" class="gn_243"/>
<path d="M181.2,489.9c.3,0,.5,-.1,.7,-.3l8.2,-8.1c.2,-.2,.3,-.5,.3,-.7c0,-.3,-.1,-.6,-.3,-.7l-5.2,-5.3c-.4,-.4,-1,-.4,-1.4,0l-8.2,8.2c-.4,.4,-.4,1,0,1.4l5.2,5.2c.2,.2,.5,.3,.7,.3m6.8,-9.1l-6.8,6.7l-3.8,-3.8l6.8,-6.8Z" class="gl_243"/>
<path d="M189.8,463.5c0,6.6,5.3,11.9,11.9,11.9c6.6,0,12,-5.3,12,-11.9c0,-6.6,-5.4,-12,-12,-12c-6.6,0,-11.9,5.4,-11.9,12Z" class="g2_243"/>
<path d="M201.7,476.2c7,0,12.8,-5.7,12.8,-12.7c0,-7,-5.8,-12.7,-12.8,-12.7c-7,0,-12.7,5.7,-12.7,12.7c0,7,5.7,12.7,12.7,12.7m0,-23.9c6.2,0,11.2,5,11.2,11.2c0,6.1,-5,11.2,-11.2,11.2c-6.1,0,-11.1,-5.1,-11.1,-11.2c0,-6.2,5,-11.2,11.1,-11.2Z" class="gl_243"/>
<path d="M170.7,165.5c0,0,-17.4,0,-17.4,17.3V407.5c0,0,0,17.3,17.4,17.3H850.6c0,0,17.3,0,17.3,-17.3V182.8c0,0,0,-17.3,-17.3,-17.3Z" class="go_243"/>
<path d="M32.1,45.1H9.2m958.3,0h22.9M32.1,1331.3H9.2m958.3,0h22.9M45.1,32.1V9.2m0,1335.1v22.9M954.5,32.1V9.2m0,1335.1v22.9" class="gp_243"/>
<path d="M32.1,45.1H9.2m958.3,0h22.9M32.1,1331.3H9.2m958.3,0h22.9M45.1,32.1V9.2m0,1335.1v22.9M954.5,32.1V9.2m0,1335.1v22.9" class="gq_243"/>
<path d="M27.5,32.1H0m972.1,0h27.5M27.5,1344.3H0m972.1,0h27.5M32.1,27.5V0m0,1348.9v27.5M967.5,27.5V0m0,1348.9v27.5" class="gp_243"/>
<path d="M27.5,32.1H0m972.1,0h27.5M27.5,1344.3H0m972.1,0h27.5M32.1,27.5V0m0,1348.9v27.5M967.5,27.5V0m0,1348.9v27.5" class="gq_243"/>
</svg>