<?xml version="1.0" encoding="UTF-8" standalone="no"?>
<!DOCTYPE svg PUBLIC "-//W3C//DTD SVG 1.1//EN"
"http://www.w3.org/Graphics/SVG/1.1/DTD/svg11.dtd">
<svg viewBox="0 0 999 1376" version="1.1" xmlns="http://www.w3.org/2000/svg" xmlns:xlink="http://www.w3.org/1999/xlink">
<defs>
<clipPath id="c0_52"><path d="M810.8,823c-.1,0,-.3,0,-.4,0H175.6c-1.4,0,-2.7,-.5,-3.7,-1.4c-.9,-.8,-1.5,-1.9,-1.5,-3.2V285.7c0,-1.3,.6,-2.4,1.5,-3.2c1,-.9,2.3,-1.4,3.7,-1.4H818.5c1.4,0,2.7,.5,3.7,1.4c.9,.8,1.5,1.9,1.5,3.2v10.2c0,167,-5.6,330.5,-5.6,497.4v21.8c0,1.2,-.3,2.2,-1.2,3.2q-1.4,1.8,-2.2,2.8c-1.6,1.8,-1.6,1.9,-3.9,1.9Z"/></clipPath>
<clipPath id="c1_52"><path d="M169.8,813.2c-1.4,0,-2.7,-.6,-3.7,-1.4c-.9,-.8,-1.5,-2,-1.5,-3.2V280.4c0,-1.3,.6,-2.5,1.5,-3.3c1,-.8,2.3,-1.3,3.7,-1.3H810.3c1.5,0,2.8,.5,3.7,1.3c.9,.8,1.5,2,1.5,3.3V808.6c0,1.2,-.6,2.4,-1.5,3.2c-.9,.8,-2.2,1.4,-3.7,1.4Z"/></clipPath>
<clipPath id="c2_52"><path d="M757.9,306.3c-2.1,0,-4,-.8,-5.5,-2.2c-.4,-.4,-.8,-1,-1.1,-1.5c-.7,-1.2,-1.1,-2.5,-1.1,-3.9c0,-2.1,.9,-4,2.2,-5.4c1.5,-1.4,3.4,-2.2,5.5,-2.2c.5,0,1.1,0,1.6,.1c.4,.1,.8,.3,1.2,.4c.3,.1,.5,.3,.8,.4c.6,.4,1.2,.8,1.7,1.3c1.4,1.4,2.3,3.3,2.3,5.4c0,1.4,-.4,2.7,-1.1,3.9c-.3,.5,-.7,1.1,-1.2,1.5c-.5,.5,-1.1,1,-1.7,1.3c-.3,.2,-.5,.3,-.8,.4c-.4,.2,-.8,.3,-1.2,.4c-.5,.1,-1.1,.1,-1.6,.1Z"/></clipPath>
<clipPath id="c3_52"><path d="M789.4,306.3c-2,0,-4,-.7,-5.4,-2.2c-.5,-.5,-1,-1.1,-1.3,-1.7c-.4,-.8,-.7,-1.6,-.9,-2.5c-.3,-2.4,.5,-4.9,2.2,-6.6c1.4,-1.4,3.4,-2.2,5.4,-2.2c.4,0,.9,0,1.3,.1c.5,.1,1.1,.2,1.6,.4c.3,.2,.7,.4,1,.6c.6,.3,1.1,.7,1.5,1.1c1.7,1.7,2.5,4.2,2.1,6.6c-.1,.9,-.4,1.7,-.8,2.5c-.4,.6,-.8,1.2,-1.3,1.7c-.4,.4,-.9,.8,-1.5,1.1c-.3,.3,-.7,.4,-1,.6c-.5,.2,-1.1,.3,-1.6,.4c-.5,.1,-.9,.1,-1.3,.1Z"/></clipPath>
<clipPath id="c4_52"><path d="M726.3,306.3c-2,0,-4,-.8,-5.4,-2.2c-.6,-.6,-1.1,-1.3,-1.5,-2c-.5,-1.1,-.7,-2.2,-.7,-3.4c0,-2.1,.8,-4,2.2,-5.4c1.4,-1.4,3.4,-2.2,5.4,-2.2c.5,0,.9,0,1.3,.1c.6,.1,1.1,.2,1.7,.5c.4,.2,.9,.4,1.3,.7c.4,.3,.8,.6,1.1,.9c1.4,1.4,2.2,3.3,2.2,5.4c0,1.2,-.2,2.3,-.7,3.4c-.4,.7,-.9,1.4,-1.5,2c-.3,.3,-.7,.6,-1.1,.9c-.4,.3,-.9,.6,-1.3,.8c-.6,.2,-1.1,.3,-1.7,.4c-.4,.1,-.8,.1,-1.3,.1Z"/></clipPath>
<clipPath id="c5_52"><path d="M663.2,306.3c-2,0,-3.9,-.8,-5.4,-2.2c-1.4,-1.4,-2.2,-3.4,-2.2,-5.4c0,-2.1,.8,-4,2.2,-5.4c1.5,-1.4,3.4,-2.2,5.4,-2.2c2.1,0,4,.8,5.4,2.2c1.4,1.4,2.3,3.3,2.3,5.4c0,2,-.8,4,-2.3,5.4c-1.4,1.4,-3.3,2.2,-5.4,2.2Z"/></clipPath>
<clipPath id="c6_52"><path d="M694.8,306.3c-2,0,-4,-.7,-5.4,-2.2c-1.2,-1.1,-1.9,-2.6,-2.2,-4.2c-.4,-2.4,.4,-4.9,2.2,-6.6c1.4,-1.4,3.4,-2.2,5.4,-2.2c.4,0,.8,0,1.3,.1c1.5,.2,3,1,4.1,2.1c1.7,1.7,2.5,4.2,2.1,6.6c-.3,1.6,-1,3.1,-2.1,4.2c-1.1,1.1,-2.6,1.9,-4.1,2.1c-.5,.1,-.9,.1,-1.3,.1Z"/></clipPath>
<clipPath id="c7_52"><path d="M631.7,306.3c-2,0,-4,-.8,-5.4,-2.2c-1.5,-1.4,-2.3,-3.4,-2.3,-5.4c0,-2.1,.9,-4,2.3,-5.4c1.4,-1.4,3.4,-2.2,5.4,-2.2c2.1,0,4,.8,5.4,2.2c1.4,1.4,2.2,3.3,2.2,5.4c0,2,-.8,4,-2.2,5.4c-1.4,1.4,-3.3,2.2,-5.4,2.2Z"/></clipPath>
<clipPath id="c8_52"><path d="M568.6,306.3c-2,0,-4,-.8,-5.4,-2.2c-1.4,-1.4,-2.2,-3.4,-2.2,-5.4c0,-2.1,.8,-4,2.2,-5.4c1.4,-1.4,3.4,-2.2,5.4,-2.2c2.1,0,4,.8,5.4,2.2c1.4,1.4,2.2,3.3,2.2,5.4c0,2,-.8,4,-2.2,5.4c-1.4,1.4,-3.3,2.2,-5.4,2.2Z"/></clipPath>
<clipPath id="c9_52"><path d="M600.2,306.3c-2,0,-4,-.7,-5.5,-2.2c-1.1,-1.1,-1.8,-2.6,-2.1,-4.2c-.4,-2.4,.4,-4.9,2.1,-6.6c1.5,-1.4,3.5,-2.2,5.5,-2.2c.4,0,.8,0,1.2,.1c1.6,.2,3.1,1,4.1,2.1c1.8,1.7,2.6,4.2,2.2,6.6c-.3,1.6,-1,3.1,-2.2,4.2c-1,1.1,-2.5,1.9,-4.1,2.1c-.4,.1,-.8,.1,-1.2,.1Z"/></clipPath>
<clipPath id="ca_52"><path d="M505.5,306.3c-2,0,-3.9,-.7,-5.4,-2.2C499,303,498.2,301.5,498,299.9c-.4,-2.4,.4,-4.9,2.1,-6.6c1.5,-1.4,3.4,-2.2,5.4,-2.2c.5,0,.9,0,1.3,.1c1.6,.2,3,1,4.1,2.1c1.7,1.7,2.6,4.2,2.2,6.6c-.3,1.6,-1.1,3.1,-2.2,4.2c-1.1,1.1,-2.5,1.9,-4.1,2.1c-.4,.1,-.8,.1,-1.3,.1Z"/></clipPath>
<clipPath id="cb_52"><path d="M537.1,306.3c-2,0,-4,-.7,-5.4,-2.2c-1.1,-1.1,-1.9,-2.6,-2.2,-4.2c-.4,-2.4,.4,-4.9,2.2,-6.6c1.4,-1.4,3.4,-2.2,5.4,-2.2c.4,0,.8,0,1.3,.1c1.6,.2,3,1,4.1,2.1c1.7,1.7,2.5,4.2,2.1,6.6c-.3,1.6,-1,3.1,-2.1,4.2c-1.1,1.1,-2.5,1.9,-4.1,2.1c-.5,.1,-.9,.1,-1.3,.1Z"/></clipPath>
<clipPath id="cc_52"><path d="M474,306.3c-2,0,-4,-.8,-5.4,-2.2c-1.5,-1.4,-2.3,-3.4,-2.3,-5.4c0,-2.1,.9,-4,2.3,-5.4c1.4,-1.4,3.4,-2.2,5.4,-2.2c2.1,0,4,.8,5.4,2.2c1.4,1.4,2.2,3.3,2.2,5.4c0,2,-.8,4,-2.2,5.4c-1.4,1.4,-3.3,2.2,-5.4,2.2Z"/></clipPath>
<clipPath id="cd_52"><path d="M410.9,306.3c-2,0,-4,-.8,-5.4,-2.2c-.5,-.5,-.9,-1,-1.2,-1.6c-.7,-1.2,-1,-2.5,-1,-3.8c0,-2.1,.8,-4,2.2,-5.4c1.4,-1.4,3.4,-2.2,5.4,-2.2c2.1,0,4,.8,5.4,2.2c1.4,1.4,2.2,3.3,2.2,5.4c0,1.3,-.3,2.6,-1,3.8c-.3,.6,-.7,1.1,-1.2,1.6c-1.4,1.4,-3.3,2.2,-5.4,2.2Z"/></clipPath>
<clipPath id="ce_52"><path d="M442.5,306.3c-2,0,-4,-.7,-5.5,-2.2c-1.1,-1.1,-1.8,-2.6,-2.1,-4.2c-.4,-2.4,.4,-4.9,2.1,-6.6c1.5,-1.4,3.5,-2.2,5.5,-2.2c.4,0,.8,0,1.2,.1c1.6,.2,3.1,1,4.1,2.1c1.8,1.7,2.6,4.2,2.2,6.6c-.3,1.6,-1,3.1,-2.2,4.2c-1,1.1,-2.5,1.9,-4.1,2.1c-.4,.1,-.8,.1,-1.2,.1Z"/></clipPath>
<clipPath id="cf_52"><path d="M347.8,306.3c-2,0,-3.9,-.8,-5.4,-2.2c-.4,-.4,-.7,-.8,-1,-1.3c-.8,-1.2,-1.2,-2.6,-1.2,-4.1c0,-2.1,.8,-4,2.2,-5.4c1.5,-1.4,3.4,-2.2,5.4,-2.2c.6,0,1.1,0,1.6,.1c.6,.2,1.2,.3,1.7,.6c.8,.4,1.5,.9,2.1,1.5c1.4,1.4,2.3,3.3,2.3,5.4c0,1.5,-.5,2.9,-1.2,4.1c-.3,.5,-.7,.9,-1.1,1.3c-.6,.6,-1.3,1.2,-2.1,1.5c-.5,.3,-1.1,.5,-1.7,.6c-.5,.1,-1,.1,-1.6,.1Z"/></clipPath>
<clipPath id="cg_52"><path d="M379.4,306.3c-2,0,-4,-.7,-5.4,-2.2c-.5,-.5,-.9,-1,-1.3,-1.6c-.4,-.8,-.7,-1.6,-.9,-2.6c-.4,-2.4,.4,-4.9,2.2,-6.6c1.4,-1.4,3.4,-2.2,5.4,-2.2c.4,0,.8,0,1.3,.1c1.6,.2,3,1,4.1,2.1c1.7,1.7,2.5,4.2,2.1,6.6c-.1,1,-.5,1.8,-.9,2.6c-.3,.6,-.8,1.1,-1.2,1.6c-1.1,1.1,-2.5,1.9,-4.1,2.1c-.5,.1,-.9,.1,-1.3,.1Z"/></clipPath>
<clipPath id="ch_52"><path d="M284.8,306.3c-2.1,0,-4,-.8,-5.5,-2.2c-.5,-.5,-.9,-1.1,-1.3,-1.7c-.6,-1.2,-.9,-2.4,-.9,-3.7c0,-2.1,.9,-4,2.2,-5.4c1.5,-1.4,3.4,-2.2,5.5,-2.2c.8,0,1.6,.1,2.4,.4c1.1,.3,2.1,1,2.9,1.8c1.4,1.4,2.3,3.3,2.3,5.4c0,1.3,-.3,2.5,-.9,3.7c-.4,.6,-.8,1.2,-1.4,1.7c-.8,.8,-1.8,1.5,-2.9,1.8c-.8,.3,-1.6,.4,-2.4,.4Z"/></clipPath>
<clipPath id="ci_52"><path d="M316.3,306.3c-2,0,-4,-.7,-5.4,-2.2c-.6,-.5,-1,-1.2,-1.4,-1.8c-.4,-.8,-.6,-1.5,-.8,-2.4c-.3,-2.4,.5,-4.9,2.2,-6.6c1.4,-1.4,3.4,-2.2,5.4,-2.2c.4,0,.9,0,1.3,.1c.7,.1,1.4,.3,2,.6c.8,.4,1.5,.9,2.1,1.5c1.7,1.7,2.5,4.2,2.1,6.6c-.1,.9,-.4,1.6,-.7,2.4c-.4,.6,-.9,1.3,-1.4,1.8c-.6,.6,-1.3,1.1,-2.1,1.5c-.6,.3,-1.3,.5,-2,.6c-.4,.1,-.9,.1,-1.3,.1Z"/></clipPath>
<clipPath id="cj_52"><path d="M221.7,306.3c-2,0,-4,-.8,-5.4,-2.2c-.5,-.4,-.8,-.9,-1.2,-1.4c-.7,-1.2,-1.1,-2.6,-1.1,-4c0,-2.1,.9,-4,2.3,-5.4c1.4,-1.4,3.4,-2.2,5.4,-2.2c.9,0,1.7,.1,2.5,.4c1.1,.4,2.1,1,2.9,1.8c1.3,1.4,2.2,3.3,2.2,5.4c0,1.4,-.4,2.8,-1.1,4c-.3,.5,-.7,1,-1.1,1.4c-.8,.8,-1.8,1.4,-2.9,1.8c-.8,.3,-1.6,.4,-2.5,.4Z"/></clipPath>
<clipPath id="ck_52"><path d="M253.3,306.3c-.1,0,-.2,0,-.2,0c-2,0,-3.9,-.8,-5.3,-2.2c-.5,-.4,-.9,-1,-1.2,-1.5c-.5,-.8,-.8,-1.7,-.9,-2.7c-.4,-2.4,.4,-4.9,2.1,-6.6c1.4,-1.4,3.3,-2.2,5.3,-2.2h.1c.4,0,.9,0,1.3,.1c.5,.1,1,.2,1.4,.4c1,.3,1.9,.9,2.7,1.7c1.7,1.7,2.5,4.2,2.1,6.6c-.1,1,-.4,1.9,-.9,2.7c-.3,.5,-.7,1.1,-1.2,1.5c-.8,.8,-1.7,1.4,-2.7,1.8c-.4,.1,-.9,.3,-1.4,.3c-.4,.1,-.8,.1,-1.2,.1Z"/></clipPath>
<clipPath id="cl_52"><path d="M190.1,306.3c-2,0,-3.9,-.8,-5.4,-2.2c-.6,-.6,-1.1,-1.3,-1.4,-2c-.5,-1.1,-.8,-2.2,-.8,-3.4c0,-2.1,.8,-4,2.2,-5.4c1.5,-1.4,3.4,-2.2,5.4,-2.2c1,0,1.8,.1,2.6,.4c1.1,.4,2,1,2.8,1.8c1.4,1.4,2.3,3.3,2.3,5.4c0,1.2,-.3,2.3,-.8,3.4c-.4,.7,-.9,1.4,-1.5,2c-.8,.8,-1.7,1.4,-2.8,1.8c-.8,.3,-1.6,.4,-2.6,.4Z"/></clipPath>
<clipPath id="cm_52"><path d="M790.8,303.4c0,-15,-6.3,-33.4,-16.6,-47.9c-4.2,-5.7,-6.2,-6.2,-6.7,-6.2q-.2,0,-.2,0c-2.8,1,-1.9,15.9,-1.4,23c.1,1.3,.1,2.6,.2,3.8c-1,.1,-2.1,.1,-3.1,.2c-.3,-5.5,-.8,-11.1,-.8,-16.6c0,-7.3,.9,-12.2,4,-13.3c.4,-.2,.8,-.3,1.3,-.3c2.5,0,5.4,2.5,9.3,7.6c.3,.5,.6,.9,.9,1.4c.3,.4,.5,.8,.8,1.2c9.6,14.5,15.4,32.3,15.4,47.1Z"/></clipPath>
<clipPath id="cn_52"><path d="M759.3,303.4c0,-15,-6.4,-33.4,-16.6,-47.9c-4.3,-5.7,-6.2,-6.2,-6.8,-6.2c-.1,0,-.2,0,-.2,0c-2.8,1,-1.8,15.9,-1.4,23c.1,1.3,.2,2.6,.3,3.8c-1.1,.1,-2.1,.1,-3.1,.2c-.4,-5.5,-.8,-11.1,-.8,-16.6c0,-7.3,.9,-12.2,3.9,-13.3c.5,-.2,.9,-.3,1.3,-.3c2.5,0,5.5,2.5,9.3,7.6c.3,.4,.5,.8,.8,1.2c.3,.4,.6,.9,1,1.4c9.5,14.5,15.4,32.3,15.4,47.1Z"/></clipPath>
<clipPath id="co_52"><path d="M728.4,303.4c0,-2.5,-.2,-5.2,-.5,-7.9c-1.8,-13.2,-7.6,-27.9,-16.1,-40c-4.2,-5.7,-6.2,-6.2,-6.8,-6.2q-.1,0,-.2,0c-2.7,1,-1.8,15.9,-1.3,23c0,.2,0,.5,0,.7c.1,1.1,.1,2.1,.2,3.1c-1,.1,-2.1,.1,-3.1,.2c-.3,-5.5,-.8,-11.1,-.8,-16.6c0,-7.3,.9,-12.2,4,-13.3c.4,-.2,.8,-.3,1.3,-.3c.9,0,1.9,.4,3,1.1c2.9,1.9,5.2,5,7.2,7.9c.2,.4,.5,.8,.8,1.2c1.4,2.1,2.8,4.4,4,6.7c7.2,13.1,11.4,27.8,11.4,40.4Z"/></clipPath>
<clipPath id="cp_52"><path d="M696.9,303.4c0,-15,-6.4,-33.4,-16.6,-47.9c-4.3,-5.7,-6.2,-6.2,-6.8,-6.2c-.1,0,-.2,0,-.2,0c-2.8,1,-1.8,15.9,-1.4,23c.1,1.3,.2,2.6,.2,3.8c-1,.1,-2,.1,-3.1,.2c-.3,-5.5,-.7,-11.1,-.7,-16.6c0,-7.3,.9,-12.2,3.9,-13.3c.4,-.2,.9,-.3,1.3,-.3c2.5,0,5.4,2.5,9.3,7.6c.4,.5,.7,1,1,1.5c.3,.4,.5,.7,.7,1.1c9.6,14.5,15.5,32.3,15.5,47.1Z"/></clipPath>
<clipPath id="cq_52"><path d="M663.9,303.4c0,-15,-6.4,-33.4,-16.6,-47.9c-4.3,-5.7,-6.2,-6.2,-6.8,-6.2q-.1,0,-.2,0c-2.7,1,-1.8,15.9,-1.4,23c.1,1.3,.2,2.6,.3,3.8c-1.1,.1,-2.1,.1,-3.1,.2c-.3,-5.5,-.8,-11.1,-.8,-16.6c0,-7.3,.9,-12.2,4,-13.3c.4,-.2,.8,-.3,1.3,-.3c2.4,0,5.4,2.5,9.2,7.6c.4,.5,.7,.9,1,1.4c.3,.4,.5,.8,.8,1.2c9.5,14.5,15.4,32.3,15.4,47.1Z"/></clipPath>
<clipPath id="cr_52"><path d="M632.3,303.4c0,-15,-6.3,-33.4,-16.5,-47.9c-4.3,-5.7,-6.2,-6.2,-6.8,-6.2c-.1,0,-.2,0,-.2,0c-2.8,1,-1.8,15.9,-1.4,23c.1,1.3,.2,2.6,.2,3.8c-1,.1,-2,.1,-3.1,.2c-.3,-5.5,-.7,-11.1,-.7,-16.6c0,-7.3,.9,-12.2,3.9,-13.3c.4,-.2,.9,-.3,1.3,-.3c2.5,0,5.4,2.5,9.3,7.6c.3,.5,.6,.9,.9,1.4c.3,.4,.6,.8,.8,1.2c9.6,14.5,15.5,32.3,15.5,47.1Z"/></clipPath>
<clipPath id="cs_52"><path d="M600.7,303.4c0,-15,-6.4,-33.4,-16.6,-47.9c-4.3,-5.7,-6.2,-6.2,-6.8,-6.2c-.1,0,-.2,0,-.2,0c-2.8,1,-1.8,15.9,-1.4,23c.1,1.3,.2,2.6,.3,3.8c-1.1,.1,-2.1,.1,-3.2,.2c-.3,-5.5,-.7,-11.1,-.7,-16.6c0,-7.3,.9,-12.2,3.9,-13.3c.5,-.2,.9,-.3,1.3,-.3c2.5,0,5.5,2.5,9.3,7.6c.3,.4,.5,.7,.8,1.1c.3,.5,.6,1,1,1.5c9.5,14.5,15.4,32.3,15.4,47.1Z"/></clipPath>
<clipPath id="ct_52"><path d="M569.1,303.4c0,-15,-6.3,-33.4,-16.5,-47.9c-4.3,-5.7,-6.2,-6.2,-6.8,-6.2c-.1,0,-.2,0,-.2,0c-2.8,1,-1.9,15.9,-1.4,23c.1,1.3,.2,2.6,.2,3.8c-1,.1,-2.1,.1,-3.1,.2c-.3,-5.5,-.8,-11.1,-.8,-16.6c0,-7.3,.9,-12.2,4,-13.3c.4,-.2,.9,-.3,1.3,-.3c2.5,0,5.4,2.5,9.3,7.6c.3,.4,.6,.8,.8,1.3c.3,.4,.6,.8,.9,1.3c9.6,14.5,15.4,32.3,15.4,47.1Z"/></clipPath>
<clipPath id="cu_52"><path d="M538.1,303.4c0,-15,-6.3,-33.4,-16.6,-47.9c-4.2,-5.7,-6.1,-6.2,-6.7,-6.2c-.1,0,-.2,0,-.2,0c-2.8,1,-1.9,15.9,-1.4,23c.1,1.3,.1,2.6,.2,3.8l-3.1,.2c-.3,-5.5,-.8,-11.1,-.8,-16.6c0,-7.3,.9,-12.2,4,-13.3c.4,-.2,.8,-.3,1.3,-.3c2.5,0,5.4,2.5,9.3,7.6c.4,.6,.8,1.2,1.2,1.8c.2,.2,.3,.5,.5,.8c9.6,14.5,15.4,32.3,15.4,47.1Z"/></clipPath>
<clipPath id="cv_52"><path d="M506.6,303.4c0,-15,-6.4,-33.4,-16.6,-47.9c-4.3,-5.7,-6.2,-6.2,-6.8,-6.2q-.1,0,-.2,0c-2.7,1,-1.8,15.9,-1.4,23c.1,1.3,.2,2.6,.3,3.8c-1.1,.1,-2.1,.1,-3.1,.2c-.3,-5.5,-.8,-11.1,-.8,-16.6c0,-7.3,.9,-12.2,4,-13.3c.4,-.2,.8,-.3,1.3,-.3c2.4,0,5.4,2.5,9.2,7.6c.2,.3,.4,.6,.6,.8c.4,.6,.8,1.2,1.2,1.8c9.5,14.5,15.4,32.3,15.4,47.1Z"/></clipPath>
<clipPath id="cw_52"><path d="M474.7,303.4c0,-15,-6.4,-33.4,-16.6,-47.9c-4.3,-5.7,-6.2,-6.2,-6.8,-6.2q-.1,0,-.2,0c-2.7,1,-1.8,15.9,-1.4,23c.1,1.3,.2,2.6,.3,3.8l-3.1,.2c-.3,-5.5,-.8,-11.1,-.8,-16.6c0,-7.3,.9,-12.2,3.9,-13.3c.5,-.2,.9,-.3,1.4,-.3c2.4,0,5.4,2.5,9.2,7.6c.3,.4,.6,.8,.8,1.2c.4,.4,.7,.9,1,1.4c9.5,14.5,15.4,32.3,15.4,47.1Z"/></clipPath>
<clipPath id="cx_52"><path d="M443.1,303.4c0,-15,-6.3,-33.4,-16.5,-47.9c-4.3,-5.7,-6.2,-6.2,-6.8,-6.2c-.1,0,-.2,0,-.2,0c-2.8,1,-1.8,15.9,-1.4,23c.1,1.3,.2,2.6,.2,3.8c-1,.1,-2,.1,-3.1,.2c-.3,-5.5,-.7,-11.1,-.7,-16.6c0,-7.3,.9,-12.2,3.9,-13.3c.4,-.2,.9,-.3,1.3,-.3c2.5,0,5.4,2.5,9.3,7.6c.3,.5,.6,.9,.9,1.4c.3,.4,.6,.8,.8,1.2c9.6,14.5,15.4,32.3,15.4,47.1Z"/></clipPath>
<clipPath id="cy_52"><path d="M410.9,303.4c0,-15,-6.4,-33.4,-16.6,-47.9c-4.3,-5.7,-6.2,-6.2,-6.8,-6.2q-.1,0,-.2,0c-2.7,1,-1.8,15.9,-1.4,23c.1,1.3,.2,2.6,.3,3.8c-1.1,.1,-2.1,.1,-3.1,.2c-.3,-5.5,-.8,-11.1,-.8,-16.6c0,-7.3,.9,-12.2,4,-13.3c.4,-.2,.8,-.3,1.3,-.3c2.4,0,5.4,2.5,9.2,7.6c.3,.4,.6,.9,.9,1.3c.3,.4,.6,.8,.9,1.3c9.5,14.5,15.4,32.3,15.4,47.1Z"/></clipPath>
<clipPath id="cz_52"><path d="M379.3,303.4c0,-15,-6.3,-33.4,-16.5,-47.9c-4.3,-5.7,-6.2,-6.2,-6.8,-6.2c-.1,0,-.2,0,-.2,0c-2.8,1,-1.8,15.9,-1.4,23c.1,1.3,.2,2.6,.2,3.8c-1,.1,-2,.1,-3.1,.2c-.3,-5.5,-.7,-11.1,-.7,-16.6c0,-7.3,.9,-12.2,3.9,-13.3c.4,-.2,.9,-.3,1.3,-.3c2.5,0,5.4,2.5,9.3,7.6c.3,.5,.7,1,1,1.4c.2,.4,.5,.8,.7,1.2c9.6,14.5,15.5,32.3,15.5,47.1Z"/></clipPath>
<style type="text/css"><![CDATA[
.g0_52{
fill: none;
stroke: #6381B7;
stroke-width: 0.763;
}
.g1_52{
fill: #F1F2F1;
}
.g2_52{
fill: #863A43;
}
.g3_52{
fill: #FCFCFD;
}
.g4_52{
fill: #47433D;
}
.g5_52{
fill: none;
stroke: #58595B;
stroke-width: 0.343;
stroke-miterlimit: 10;
}
.g6_52{
fill: none;
stroke: #231F20;
stroke-width: 0.878;
stroke-miterlimit: 10;
}
.g7_52{
fill: #6381B7;
}
.g8_52{
fill: none;
stroke: #6381B7;
stroke-width: 0.381;
stroke-dasharray: 2,1;
}
.g9_52{
fill: none;
stroke: #6381B7;
stroke-width: 0.381;
}
.ga_52{
fill: #25408F;
}
.gb_52{
fill: #F37553;
}
.gc_52{
fill: #363637;
}
.gd_52{
fill: #EAD646;
}
.ge_52{
fill: #506CB4;
}
.gf_52{
fill: #5CC4BE;
}
.gg_52{
fill: none;
stroke: #FFF;
stroke-width: 1.909;
stroke-miterlimit: 10;
}
.gh_52{
fill: none;
stroke: #000;
stroke-width: 0.381;
stroke-miterlimit: 10;
}
]]></style>
</defs>
<path d="M145.4,167.9c0,0,-13,0,-13,13v917.6c0,0,0,13,13,13H833.2c0,0,13,0,13,-13V180.9c0,0,0,-13,-13,-13H145.4Z" class="g0_52"/>
<path d="M165,809.9c-2.8,0,-5.2,-2.1,-5.2,-4.6V277.1c0,-2.6,2.4,-4.6,5.2,-4.5l647.7,8.8c2.8,0,5.1,2.1,5.1,4.6l-7,519.3c0,2.5,-2.4,4.6,-5.3,4.6Z" class="g1_52"/>
<path d="M167.4,818.9c-2.8,0,-5.1,-2.1,-5.1,-4.6V281.6c0,-2.6,2.3,-4.6,5.1,-4.6H810.3c2.9,0,5.2,2,5.2,4.6V814.3c0,2.5,-2.3,4.6,-5.2,4.6Z" class="g2_52"/>
<image clip-path="url(#c0_52)" x="170" y="281" width="654" height="543" xlink:href="shade/1.png"/>
<path d="M169.8,813.2c-2.8,0,-5.2,-2.1,-5.2,-4.6V280.4c0,-2.6,2.4,-4.6,5.2,-4.6H810.3c2.9,0,5.2,2,5.2,4.6V808.6c0,2.5,-2.3,4.6,-5.2,4.6Z" class="g3_52"/>
<image clip-path="url(#c1_52)" x="164" y="275" width="652" height="539" xlink:href="shade/2.png"/>
<image clip-path="url(#c2_52)" x="750" y="291" width="16" height="16" xlink:href="shade/3.png"/>
<image clip-path="url(#c3_52)" x="781" y="291" width="17" height="16" xlink:href="shade/4.png"/>
<image clip-path="url(#c4_52)" x="718" y="291" width="16" height="16" xlink:href="shade/5.png"/>
<image clip-path="url(#c5_52)" x="655" y="291" width="16" height="16" xlink:href="shade/6.png"/>
<image clip-path="url(#c6_52)" x="686" y="291" width="17" height="16" xlink:href="shade/7.png"/>
<image clip-path="url(#c7_52)" x="624" y="291" width="16" height="16" xlink:href="shade/8.png"/>
<image clip-path="url(#c8_52)" x="560" y="291" width="17" height="16" xlink:href="shade/9.png"/>
<image clip-path="url(#c9_52)" x="592" y="291" width="17" height="16" xlink:href="shade/10.png"/>
<image clip-path="url(#ca_52)" x="497" y="291" width="17" height="16" xlink:href="shade/11.png"/>
<image clip-path="url(#cb_52)" x="529" y="291" width="16" height="16" xlink:href="shade/12.png"/>
<image clip-path="url(#cc_52)" x="466" y="291" width="16" height="16" xlink:href="shade/13.png"/>
<image clip-path="url(#cd_52)" x="403" y="291" width="16" height="16" xlink:href="shade/14.png"/>
<image clip-path="url(#ce_52)" x="434" y="291" width="17" height="16" xlink:href="shade/15.png"/>
<image clip-path="url(#cf_52)" x="340" y="291" width="16" height="16" xlink:href="shade/16.png"/>
<image clip-path="url(#cg_52)" x="371" y="291" width="17" height="16" xlink:href="shade/17.png"/>
<image clip-path="url(#ch_52)" x="277" y="291" width="16" height="16" xlink:href="shade/18.png"/>
<image clip-path="url(#ci_52)" x="308" y="291" width="17" height="16" xlink:href="shade/19.png"/>
<image clip-path="url(#cj_52)" x="214" y="291" width="16" height="16" xlink:href="shade/20.png"/>
<image clip-path="url(#ck_52)" x="245" y="291" width="17" height="16" xlink:href="shade/21.png"/>
<image clip-path="url(#cl_52)" x="182" y="291" width="16" height="16" xlink:href="shade/22.png"/>
<image clip-path="url(#cm_52)" x="762" y="246" width="32" height="58" xlink:href="shade/23.png"/>
<image clip-path="url(#cn_52)" x="730" y="246" width="33" height="58" xlink:href="shade/24.png"/>
<image clip-path="url(#co_52)" x="699" y="246" width="33" height="58" xlink:href="shade/25.png"/>
<image clip-path="url(#cp_52)" x="668" y="246" width="32" height="58" xlink:href="shade/26.png"/>
<image clip-path="url(#cq_52)" x="635" y="246" width="32" height="58" xlink:href="shade/27.png"/>
<image clip-path="url(#cr_52)" x="603" y="246" width="33" height="58" xlink:href="shade/28.png"/>
<image clip-path="url(#cs_52)" x="572" y="246" width="32" height="58" xlink:href="shade/29.png"/>
<image clip-path="url(#ct_52)" x="540" y="246" width="33" height="58" xlink:href="shade/30.png"/>
<image clip-path="url(#cu_52)" x="509" y="246" width="33" height="58" xlink:href="shade/31.png"/>
<image clip-path="url(#cv_52)" x="477" y="246" width="33" height="58" xlink:href="shade/32.png"/>
<image clip-path="url(#cw_52)" x="446" y="246" width="32" height="58" xlink:href="shade/33.png"/>
<image clip-path="url(#cx_52)" x="414" y="246" width="33" height="58" xlink:href="shade/34.png"/>
<image clip-path="url(#cy_52)" x="382" y="246" width="32" height="58" xlink:href="shade/35.png"/>
<image clip-path="url(#cz_52)" x="350" y="246" width="33" height="58" xlink:href="shade/36.png"/>
<path d="M319.8,259.7c0,-7.3,.9,-12.2,4,-13.3c2.7,-1,6,1.2,10.6,7.3c10.6,15,17.1,34.1,17.1,49.7h-3.1c0,-15,-6.3,-33.4,-16.6,-47.9c-5,-6.7,-6.8,-6.3,-6.9,-6.2c-2.8,1,-1.9,15.9,-1.4,23c.1,1.3,.1,2.6,.2,3.8l-3.1,.2c-.1,-1.2,-.2,-2.5,-.2,-3.8c-.3,-4.8,-.6,-9.1,-.6,-12.8Z" class="g4_52"/>
<path d="M288.3,259.7c0,-7.3,.9,-12.2,3.9,-13.3c2.8,-1,6.1,1.2,10.6,7.3c10.6,15,17.2,34.1,17.2,49.7h-3.1c0,-15,-6.4,-33.4,-16.6,-47.9c-5,-6.7,-6.8,-6.3,-7,-6.2c-2.7,1,-1.8,15.9,-1.4,23c.1,1.3,.2,2.6,.3,3.8l-3.1,.2c-.1,-1.2,-.2,-2.5,-.3,-3.8c-.3,-4.8,-.5,-9.1,-.5,-12.8Z" class="g4_52"/>
<path d="M256.2,259.7c0,-7.3,.9,-12.2,4,-13.3c2.7,-1,6,1.2,10.6,7.3c10.5,15,17.1,34.1,17.1,49.7h-3.1c0,-15,-6.4,-33.4,-16.6,-47.9c-5,-6.7,-6.8,-6.3,-6.9,-6.2c-2.8,1,-1.9,15.9,-1.4,23c.1,1.3,.1,2.6,.2,3.8l-3.1,.2c-.1,-1.2,-.2,-2.5,-.2,-3.8c-.3,-4.8,-.6,-9.1,-.6,-12.8Z" class="g4_52"/>
<path d="M225.3,271.4c0,-9.4,1.3,-24.1,7,-25.8c3.1,-.9,6.4,1.8,10.1,8.3c9,15.7,14,33.6,14,49.8h-3.1c0,-15.7,-4.8,-33.1,-13.6,-48.3c-3.1,-5.5,-5.4,-7.1,-6.5,-6.8c-3.1,.9,-5.4,14.3,-4.6,27.5l-3.2,.2c0,-1.3,-.1,-3,-.1,-4.9Z" class="g4_52"/>
<path d="M197.4,259.7c0,-8.9,1,-13.5,3.8,-14.3c2.5,-.7,5.1,1.9,8.7,8.5c6.8,12.6,15.1,32.2,15.1,50.2h-3.2c0,-17.4,-8,-36.4,-14.7,-48.7c-3.2,-6.1,-4.7,-6.8,-5.1,-6.9c-2.3,1.8,-1.3,19.6,-.9,26.3l.1,1.3l-3.1,.2L198,275c-.3,-6.1,-.5,-11.2,-.6,-15.3Z" class="g4_52"/>
<path d="M176,249.6c0,-3.8,.6,-4.7,1.9,-4.9c1.8,-.4,2.9,1,5.7,9.5c6.5,19.3,9.7,35.5,9.7,49.2h-3.1c0,-13.4,-3.1,-29.2,-9.5,-48.3c-.6,-1.8,-1.1,-3.2,-1.5,-4.2c.1,3.7,.6,9.3,1,13.8c.3,4,.7,8.1,.9,11.4l-3.1,.2c-.2,-3.3,-.6,-7.4,-.9,-11.3c-.7,-7.6,-1.1,-12.4,-1.1,-15.4Z" class="g4_52"/>
<path d="M489.4,714.4h35.2" class="g5_52"/>
<path d="M212.8,512.8H456.2" class="g6_52"/>
<path d="M625.8,1133.8c0,0,-4.4,0,-4.4,4.3v10.8c0,0,0,4.4,4.4,4.4h30.3c0,0,4.3,0,4.3,-4.4v-10.8c0,0,0,-4.3,-4.3,-4.3Z" class="g7_52"/>
<path d="M612.6,1124.9v37.6m1.3,1H845.1m1,-1.4v-37.5m-1.4,-1H613.5" class="g8_52"/>
<path d="M612.6,1162.9v.6h.6m232.3,0h.6v-.6m0,-38.7v-.6h-.6m-232.3,0h-.6v.6" class="g9_52"/>
<path d="M132.2,126.3v22.2l11.7,10.2V136.5Z" class="ga_52"/>
<path d="M132.2,109.5v39H829.9c0,0,16.9,0,16.9,-16.8v-5.4c0,0,0,-16.8,-16.9,-16.8Z" class="g7_52"/>
<path d="M166,111.6c.7,-.6,1.7,-.8,2.5,-.6l1.3,-1.3l-6.2,-6.1l-6.1,6.1l-1.3,-1.3c.2,-.8,0,-1.8,-.6,-2.4c-1,-1,-2.6,-1,-3.6,0c-1,1,-1,2.6,0,3.6c.6,.6,1.6,.9,2.4,.6l1.3,1.3l-6.1,6.1l6.1,6.2l-1.3,1.3c-.8,-.3,-1.8,-.1,-2.4,.6c-1,1,-1,2.6,0,3.6c1,1,2.6,1,3.6,0c.6,-.7,.9,-1.6,.6,-2.4l1.3,-1.3l6.1,6.1l6.2,-6.1l-1.3,-1.3c-.9,.2,-1.8,0,-2.5,-.7c-1,-1,-1,-2.6,0,-3.6c1,-1,2.6,-1,3.6,0c.7,.7,.9,1.6,.7,2.5l1.3,1.3l6.1,-6.2l-6.1,-6.1l-1.3,1.3c.2,.8,0,1.8,-.7,2.4c-1,1,-2.6,1,-3.6,0c-1,-.9,-1,-2.6,0,-3.6Z" class="gb_52"/>
<path d="M163.6,132.3l-6.1,-6.2l-.8,.9c.1,.9,-.2,1.9,-.8,2.6c-1.2,1.1,-3.1,1.1,-4.2,0c-1.2,-1.2,-1.2,-3,0,-4.2c.7,-.7,1.6,-1,2.6,-.8l.8,-.8L149,117.6l6.1,-6.1l-.8,-.8c-1,.1,-1.9,-.2,-2.6,-.8c-.6,-.6,-.9,-1.3,-.9,-2.1c0,-.8,.3,-1.5,.9,-2.1c1.1,-1.1,3,-1.1,4.1,0c.7,.7,1,1.7,.9,2.6l.8,.8l6.1,-6.1l6.7,6.7l-1.7,1.7h-.2c-.7,-.2,-1.5,0,-2.1,.5c-.8,.9,-.8,2.2,0,3.1c.9,.8,2.2,.8,3.1,0c.5,-.6,.7,-1.4,.5,-2.1v-.2l1.7,-1.7l6.7,6.6l-6.7,6.7l-1.8,-1.7l.1,-.2c.2,-.8,0,-1.5,-.6,-2.1c-.4,-.4,-.9,-.6,-1.5,-.6c-.5,0,-1.1,.2,-1.5,.6c-.8,.8,-.8,2.2,0,3c.5,.6,1.3,.8,2.1,.6l.2,-.1l1.7,1.8ZM157.5,125l6.1,6.1l5.6,-5.5l-.8,-.9c-1,.2,-2,-.1,-2.7,-.8c-.5,-.5,-.8,-1.3,-.8,-2.1c0,-.7,.3,-1.5,.8,-2c.6,-.6,1.3,-.9,2.1,-.9c.8,0,1.6,.3,2.1,.9c.7,.6,1,1.6,.8,2.6l.9,.8l5.5,-5.6l-5.5,-5.5l-.9,.8c.2,1,-.1,1.9,-.8,2.6c-1.1,1.2,-3,1.2,-4.1,0c-1.2,-1.1,-1.2,-3,0,-4.1c.6,-.7,1.6,-1,2.6,-.8l.8,-.9l-5.6,-5.6l-6.1,6.2l-1.7,-1.7v-.3c.2,-.7,0,-1.5,-.5,-2c-.9,-.9,-2.2,-.9,-3.1,0c-.4,.4,-.6,.9,-.6,1.5c0,.6,.2,1.1,.6,1.5c.6,.5,1.4,.8,2.1,.6l.2,-.1l1.8,1.7l-6.2,6.1l6.2,6.2l-1.8,1.7l-.2,-.1c-.7,-.2,-1.5,.1,-2,.6c-.9,.8,-.9,2.2,0,3c.8,.9,2.2,.9,3,0c.5,-.5,.7,-1.3,.5,-2v-.3Z" class="gc_52"/>
<path d="M196.6,122.1c.9,0,1.8,.5,2.2,1.3h1.8v-8.7h-8.7v-1.8c.8,-.4,1.3,-1.2,1.3,-2.2c0,-1.4,-1.1,-2.5,-2.5,-2.5c-1.5,0,-2.6,1.1,-2.6,2.5c0,1,.5,1.8,1.3,2.2v1.8h-8.7v8.7h-1.8c-.4,-.8,-1.2,-1.3,-2.2,-1.3c-1.4,0,-2.5,1.2,-2.5,2.6c0,1.4,1.1,2.5,2.5,2.5c1,0,1.8,-.5,2.2,-1.2h1.8v8.6h8.7v-1.8c-.8,-.4,-1.3,-1.2,-1.3,-2.2c0,-1.4,1.2,-2.5,2.6,-2.5c1.4,0,2.5,1.1,2.5,2.5c0,1,-.5,1.8,-1.3,2.2v1.8h8.7V126h-1.8c-.4,.7,-1.2,1.2,-2.2,1.2c-1.4,0,-2.5,-1.1,-2.5,-2.5c0,-1.4,1.1,-2.6,2.5,-2.6Z" class="gd_52"/>
<path d="M201,135h-9.5v-2.4l.2,-.1c.7,-.4,1.1,-1.1,1.1,-1.9c0,-1.2,-1,-2.1,-2.1,-2.1c-1.2,0,-2.2,.9,-2.2,2.1c0,.8,.4,1.5,1.1,1.9l.2,.1V135h-9.5v-8.6h-1.2c-.5,.7,-1.4,1.2,-2.4,1.2c-1.6,0,-2.9,-1.3,-2.9,-2.9c0,-1.6,1.3,-3,2.9,-3c1,0,1.9,.5,2.4,1.3h1.2v-8.7H189v-1.1c-.8,-.6,-1.3,-1.5,-1.3,-2.5c0,-1.6,1.3,-2.9,3,-2.9c1.6,0,2.9,1.3,2.9,2.9c0,1,-.5,1.9,-1.3,2.5v1.1H201v9.5h-2.4l-.1,-.2c-.4,-.6,-1.1,-1.1,-1.9,-1.1c-.6,0,-1.1,.3,-1.5,.7c-.4,.4,-.6,.9,-.6,1.5c0,1.2,.9,2.1,2.1,2.1c.8,0,1.5,-.4,1.9,-1l.1,-.2H201Zm-8.7,-.8h7.9v-7.8H199c-.5,.7,-1.4,1.2,-2.4,1.2c-1.6,0,-2.9,-1.3,-2.9,-2.9c0,-.8,.3,-1.5,.8,-2.1c.6,-.5,1.3,-.9,2.1,-.9c1,0,1.9,.5,2.4,1.3h1.2v-7.9h-8.7v-2.4l.2,-.1c.7,-.4,1.1,-1.1,1.1,-1.9c0,-1.2,-1,-2.1,-2.1,-2.1c-1.2,0,-2.2,.9,-2.2,2.1c0,.8,.4,1.5,1.1,1.9l.2,.1v2.4h-8.7v8.7h-2.4l-.1,-.2c-.4,-.6,-1.1,-1.1,-1.9,-1.1c-1.2,0,-2.1,1,-2.1,2.2c0,1.2,.9,2.1,2.1,2.1c.8,0,1.5,-.4,1.9,-1l.1,-.2h2.4v8.6H189V133c-.8,-.5,-1.3,-1.4,-1.3,-2.4c0,-1.6,1.3,-2.9,3,-2.9c1.6,0,2.9,1.3,2.9,2.9c0,1,-.5,1.9,-1.3,2.4Z" class="gc_52"/>
<path d="M176.7,142c1,0,1.8,.5,2.2,1.3h1.8v-8.7H172v-1.8c.8,-.4,1.3,-1.2,1.3,-2.2c0,-1.4,-1.1,-2.5,-2.5,-2.5c-1.4,0,-2.6,1.1,-2.6,2.5c0,1,.5,1.8,1.3,2.2v1.8h-8.7v8.7H159c-.4,-.8,-1.2,-1.3,-2.2,-1.3c-1.4,0,-2.5,1.2,-2.5,2.6c0,1.4,1.1,2.5,2.5,2.5c1,0,1.8,-.5,2.2,-1.2h1.8v8.6h8.7v-1.8c-.8,-.4,-1.3,-1.2,-1.3,-2.2c0,-1.4,1.2,-2.5,2.6,-2.5c1.4,0,2.5,1.1,2.5,2.5c0,1,-.5,1.8,-1.3,2.2v1.8h8.7v-8.7h-1.8c-.4,.8,-1.2,1.3,-2.2,1.3c-1.4,0,-2.5,-1.1,-2.5,-2.5c0,-1.4,1.1,-2.6,2.5,-2.6Z" class="ge_52"/>
<path d="M181.1,154.9h-9.5v-2.4l.2,-.1c.7,-.4,1.1,-1.1,1.1,-1.9c0,-1.2,-1,-2.1,-2.1,-2.1c-1.2,0,-2.2,.9,-2.2,2.1c0,.8,.4,1.5,1.1,1.9l.2,.1v2.4h-9.5v-8.6h-1.2c-.5,.7,-1.4,1.2,-2.4,1.2c-1.6,0,-2.9,-1.3,-2.9,-2.9c0,-1.6,1.3,-3,2.9,-3c1,0,1.9,.5,2.4,1.3h1.2v-8.7h8.7V133c-.8,-.5,-1.3,-1.4,-1.3,-2.4c0,-1.6,1.3,-2.9,3,-2.9c1.6,0,2.9,1.3,2.9,2.9c0,1,-.5,1.9,-1.3,2.4v1.2h8.7v9.5h-2.4l-.1,-.2c-.4,-.7,-1.1,-1.1,-1.9,-1.1c-1.2,0,-2.1,1,-2.1,2.2c0,1.1,.9,2.1,2.1,2.1c.8,0,1.5,-.4,1.9,-1.1l.1,-.2h2.4Zm-8.7,-.8h7.9v-7.9h-1.2c-.5,.8,-1.4,1.3,-2.4,1.3c-1.6,0,-2.9,-1.3,-2.9,-2.9c0,-1.6,1.3,-3,2.9,-3c1,0,1.9,.5,2.4,1.3h1.2V135h-8.7v-2.4l.2,-.1c.7,-.4,1.1,-1.1,1.1,-1.9c0,-1.2,-1,-2.1,-2.1,-2.1c-1.2,0,-2.2,.9,-2.2,2.1c0,.8,.4,1.5,1.1,1.9l.2,.1V135h-8.7v8.7h-2.4l-.1,-.2c-.4,-.7,-1.1,-1.1,-1.9,-1.1c-1.2,0,-2.1,1,-2.1,2.2c0,1.2,.9,2.1,2.1,2.1c.8,0,1.5,-.4,1.9,-1l.1,-.2h2.4v8.6h7.9v-1.2c-.8,-.5,-1.3,-1.4,-1.3,-2.4c0,-1.6,1.3,-2.9,3,-2.9c1.6,0,2.9,1.3,2.9,2.9c0,1,-.5,1.9,-1.3,2.4Z" class="gc_52"/>
<path d="M196.6,142c.9,0,1.8,.5,2.2,1.3h1.8v-8.7h-8.7v-1.8c.8,-.4,1.3,-1.2,1.3,-2.2c0,-1.4,-1.1,-2.5,-2.5,-2.5c-1.5,0,-2.6,1.1,-2.6,2.5c0,1,.5,1.8,1.3,2.2v1.8h-8.7v8.7h-1.8c-.4,-.8,-1.2,-1.3,-2.2,-1.3c-1.4,0,-2.5,1.2,-2.5,2.6c0,1.4,1.1,2.5,2.5,2.5c1,0,1.8,-.5,2.2,-1.2h1.8v8.6h8.7v-1.8c-.8,-.4,-1.3,-1.2,-1.3,-2.2c0,-1.4,1.2,-2.5,2.6,-2.5c1.4,0,2.5,1.1,2.5,2.5c0,1,-.5,1.8,-1.3,2.2v1.8h8.7v-8.7h-1.8c-.4,.8,-1.2,1.3,-2.2,1.3c-1.4,0,-2.5,-1.1,-2.5,-2.5c0,-1.4,1.1,-2.6,2.5,-2.6Z" class="gf_52"/>
<path d="M201,154.9h-9.5v-2.4l.2,-.1c.7,-.4,1.1,-1.1,1.1,-1.9c0,-1.2,-1,-2.1,-2.1,-2.1c-1.2,0,-2.2,.9,-2.2,2.1c0,.8,.4,1.5,1.1,1.9l.2,.1v2.4h-9.5v-8.6h-1.2c-.5,.7,-1.4,1.2,-2.4,1.2c-1.6,0,-2.9,-1.3,-2.9,-2.9c0,-1.6,1.3,-3,2.9,-3c1,0,1.9,.5,2.4,1.3h1.2v-8.7H189V133c-.8,-.5,-1.3,-1.4,-1.3,-2.4c0,-1.6,1.3,-2.9,3,-2.9c1.6,0,2.9,1.3,2.9,2.9c0,1,-.5,1.9,-1.3,2.4v1.2H201v9.5h-2.4l-.1,-.2c-.4,-.7,-1.1,-1.1,-1.9,-1.1c-.6,0,-1.1,.3,-1.5,.7c-.4,.4,-.6,.9,-.6,1.5c0,1.1,.9,2.1,2.1,2.1c.8,0,1.5,-.4,1.9,-1.1l.1,-.2H201Zm-8.7,-.8h7.9v-7.9H199c-.5,.8,-1.4,1.3,-2.4,1.3c-1.6,0,-2.9,-1.3,-2.9,-2.9c0,-.8,.3,-1.5,.8,-2.1c.6,-.6,1.3,-.9,2.1,-.9c1,0,1.9,.5,2.4,1.3h1.2V135h-8.7v-2.4l.2,-.1c.7,-.4,1.1,-1.1,1.1,-1.9c0,-1.2,-1,-2.1,-2.1,-2.1c-1.2,0,-2.2,.9,-2.2,2.1c0,.8,.4,1.5,1.1,1.9l.2,.1V135h-8.7v8.7h-2.4l-.1,-.2c-.4,-.7,-1.1,-1.1,-1.9,-1.1c-1.2,0,-2.1,1,-2.1,2.2c0,1.2,.9,2.1,2.1,2.1c.8,0,1.5,-.4,1.9,-1l.1,-.2h2.4v8.6H189v-1.2c-.8,-.5,-1.3,-1.4,-1.3,-2.4c0,-1.6,1.3,-2.9,3,-2.9c1.6,0,2.9,1.3,2.9,2.9c0,1,-.5,1.9,-1.3,2.4Z" class="gc_52"/>
<path d="M32.1,45.1H9.2m958.3,0h22.9M32.1,1331.3H9.2m958.3,0h22.9M45.1,32.1V9.2m0,1335.1v22.9M954.5,32.1V9.2m0,1335.1v22.9" class="gg_52"/>
<path d="M32.1,45.1H9.2m958.3,0h22.9M32.1,1331.3H9.2m958.3,0h22.9M45.1,32.1V9.2m0,1335.1v22.9M954.5,32.1V9.2m0,1335.1v22.9" class="gh_52"/>
<path d="M27.5,32.1H0m972.1,0h27.5M27.5,1344.3H0m972.1,0h27.5M32.1,27.5V0m0,1348.9v27.5M967.5,27.5V0m0,1348.9v27.5" class="gg_52"/>
<path d="M27.5,32.1H0m972.1,0h27.5M27.5,1344.3H0m972.1,0h27.5M32.1,27.5V0m0,1348.9v27.5M967.5,27.5V0m0,1348.9v27.5" class="gh_52"/>
</svg>