<?xml version="1.0" encoding="UTF-8" standalone="no"?>
<!DOCTYPE svg PUBLIC "-//W3C//DTD SVG 1.1//EN"
"http://www.w3.org/Graphics/SVG/1.1/DTD/svg11.dtd">
<svg viewBox="0 0 999 1376" version="1.1" xmlns="http://www.w3.org/2000/svg" xmlns:xlink="http://www.w3.org/1999/xlink">
<defs>
<clipPath id="c0_57"><path d="M32.1,1344.3V32.1H967.5V1344.3Z"/></clipPath>
<clipPath id="c1_57"><path d="M682.7,178.5V60.3H865.1V178.5Z"/></clipPath>
<clipPath id="c2_57"><path d="M215,708V599.1H831.1V708Z"/></clipPath>
<clipPath id="c3_57"><path d="M215,878.9V778.3H831.1V878.9Z"/></clipPath>
<clipPath id="c4_57"><path d="M215,1079.6V948.7H831.1v130.9Z"/></clipPath>
<style type="text/css"><![CDATA[
.g0_57{
fill: #FEFCF4;
}
.g1_57{
fill: #F16865;
}
.g2_57{
fill: #FFF;
}
.g3_57{
fill: none;
stroke: #6381B7;
stroke-width: 0.763;
}
.g4_57{
fill: #6381B7;
}
.g5_57{
fill: none;
stroke: #6381B7;
stroke-width: 0.381;
stroke-dasharray: 2,1;
}
.g6_57{
fill: none;
stroke: #6381B7;
stroke-width: 0.381;
}
.g7_57{
fill: #FEF9F9;
}
.g8_57{
fill: none;
stroke: #A164A9;
stroke-width: 1.527;
stroke-linecap: round;
stroke-linejoin: round;
stroke-dasharray: 0,5;
}
.g9_57{
fill: none;
stroke: #A164A9;
stroke-width: 1.527;
stroke-linecap: round;
stroke-linejoin: round;
}
.ga_57{
fill: #A164A9;
}
.gb_57{
fill: none;
stroke: #231F20;
stroke-width: 0.305;
stroke-miterlimit: 10;
}
.gc_57{
fill: none;
stroke: #FFF;
stroke-width: 1.909;
stroke-miterlimit: 10;
}
.gd_57{
fill: none;
stroke: #000;
stroke-width: 0.381;
stroke-miterlimit: 10;
}
]]></style>
</defs>
<path clip-path="url(#c0_57)" d="M-877.3,1344.3H45.1V32.1H-877.3V1344.3Z" class="g0_57"/>
<path d="M45.1,1344.3H967.5V32.1H45.1V1344.3Z" class="g0_57"/>
<path clip-path="url(#c0_57)" d="M867.9,166.7c0,0,30.3,0,30.3,-30.3v-4.3c0,0,0,-30.3,-30.3,-30.3H-735.4c0,0,-30.4,0,-30.4,30.3v4.3c0,0,0,30.3,30.4,30.3Z" class="g1_57"/>
<path d="M167.8,218.7c0,0,-13,0,-13,13v151c0,0,0,13,13,13H855.6c0,0,13,0,13,-13v-151c0,0,0,-13,-13,-13Z" class="g2_57"/>
<path d="M167.8,218.7c0,0,-13,0,-13,13v151c0,0,0,13,13,13H855.6c0,0,13,0,13,-13v-151c0,0,0,-13,-13,-13H167.8Z" class="g3_57"/>
<path d="M646.7,412.7c0,0,-4.3,0,-4.3,4.3v10.9c0,0,0,4.3,4.3,4.3h30.4c0,0,4.3,0,4.3,-4.3V417c0,0,0,-4.3,-4.3,-4.3Z" class="g4_57"/>
<path d="M633.6,405.2v34.9m1.3,.9H866.1m.9,-1.3V404.8m-1.3,-1H634.5" class="g5_57"/>
<path d="M633.6,440.5v.5h.5m232.4,0h.5v-.5m0,-36.1v-.6h-.5m-232.4,0h-.5v.6" class="g6_57"/>
<image clip-path="url(#c1_57)" preserveAspectRatio="none" x="683" y="60" width="182" height="118" xlink:href="img/1.png"/>
<path d="M154.1,1155.3h713V526.1h-713v629.2Z" class="g7_57"/>
<path d="M154.1,530.6V1153m4.6,2.3H864.9m2.2,-4.6V528.3m-4.5,-2.2H156.4" class="g8_57"/>
<path d="M154.1,1155.3v0m713.1,0v0m0,-629.2v0m-713.1,0v0" class="g9_57"/>
<path d="M153.3,540.4V502c0,0,0,-8.6,8.7,-8.6H859.3c0,0,8.6,0,8.6,8.6v39Z" class="ga_57"/>
<image clip-path="url(#c2_57)" preserveAspectRatio="none" x="215" y="599" width="615" height="110" xlink:href="img/2.png"/>
<path d="M218.3,702H824.6V602.4H218.3V702Z" class="g2_57"/>
<path d="M231.3,658.2h70.9" class="gb_57"/>
<image clip-path="url(#c3_57)" preserveAspectRatio="none" x="215" y="779" width="615" height="100" xlink:href="img/3.png"/>
<path d="M218.3,872.5H824.6v-91H218.3v91Z" class="g2_57"/>
<path d="M622.7,811.3H726.9" class="gb_57"/>
<image clip-path="url(#c4_57)" preserveAspectRatio="none" x="215" y="949" width="615" height="131" xlink:href="img/4.png"/>
<path d="M218.3,1073.2H824.6V952H218.3v121.2Z" class="g2_57"/>
<path d="M311.8,1007.7H434.7" class="gb_57"/>
<path d="M708,1177c0,0,-4.3,0,-4.3,4.3v10.9c0,0,0,4.3,4.3,4.3h30.4c0,0,4.3,0,4.3,-4.3v-10.9c0,0,0,-4.3,-4.3,-4.3Z" class="g4_57"/>
<path d="M694.9,1169.5v34.9m1.3,.9H867.8m1,-1.3v-34.9m-1.3,-1H695.8" class="g5_57"/>
<path d="M694.9,1204.8v.5h.5m172.8,0h.6v-.5m0,-36.1v-.6h-.6m-172.8,0h-.5v.6" class="g6_57"/>
<path d="M32.1,45.1H9.2m958.3,0h22.9M32.1,1331.3H9.2m958.3,0h22.9M45.1,32.1V9.2m0,1335.1v22.9M954.5,32.1V9.2m0,1335.1v22.9" class="gc_57"/>
<path d="M32.1,45.1H9.2m958.3,0h22.9M32.1,1331.3H9.2m958.3,0h22.9M45.1,32.1V9.2m0,1335.1v22.9M954.5,32.1V9.2m0,1335.1v22.9" class="gd_57"/>
<path d="M27.5,32.1H0m972.1,0h27.5M27.5,1344.3H0m972.1,0h27.5M32.1,27.5V0m0,1348.9v27.5M967.5,27.5V0m0,1348.9v27.5" class="gc_57"/>
<path d="M27.5,32.1H0m972.1,0h27.5M27.5,1344.3H0m972.1,0h27.5M32.1,27.5V0m0,1348.9v27.5M967.5,27.5V0m0,1348.9v27.5" class="gd_57"/>
</svg>