<?xml version="1.0" encoding="UTF-8" standalone="no"?>
<!DOCTYPE svg PUBLIC "-//W3C//DTD SVG 1.1//EN"
"http://www.w3.org/Graphics/SVG/1.1/DTD/svg11.dtd">
<svg viewBox="0 0 999 1376" version="1.1" xmlns="http://www.w3.org/2000/svg" xmlns:xlink="http://www.w3.org/1999/xlink">
<defs>
<clipPath id="c0_58"><path d="M32.1,1344.3V32.1H967.5V1344.3Z"/></clipPath>
<clipPath id="c1_58"><path d="M764.8,412.5V400.1h14.5v12.4Z"/></clipPath>
<clipPath id="c2_58"><path d="M665.7,742.1V544.6H901.6V742.1Z"/></clipPath>
<clipPath id="c3_58"><path d="M662.5,746.4V542.9H900.6V746.4Z"/></clipPath>
<clipPath id="c4_58"><path d="M662.1,746.1V542.6H900.3V746.1Z"/></clipPath>
<clipPath id="c5_58"><path d="M176.1,520.1L169.6,518L153.2,504.1V447h72v73.1Z"/></clipPath>
<clipPath id="c6_58"><path d="M176.8,1129l-6.5,-2.1l-16.4,-14v-57h72V1129Z"/></clipPath>
<clipPath id="c7_58"><path d="M786.6,561.1c-.3,-.1,3.5,-8.2,3.5,-8.2l.8,.5c0,0,-4,7.7,-4.3,7.7Z"/></clipPath>
<clipPath id="c8_58"><path d="M794.1,553.4c0,0,-6.9,-1.1,-7.6,-5.3c-.7,-3.6,1.5,-3.8,2.1,-3.8c0,0,.1,0,.1,0L797,531.6l-1.4,-3.1c0,0,-.6,-1.1,.1,-2.1c0,0,.1,-.1,.3,-.1c2.1,0,12.9,5.6,12.9,5.6l.1,.1c-.4,.5,-.7,1.2,-1.4,1.7c-.6,.4,-5.1,1.1,-5.1,1.1l-8.4,18.6Z"/></clipPath>
<clipPath id="c9_58"><path d="M793.7,553c.2,-.5,.2,-1.8,0,-2.3v-1.3c-1.6,-.6,-2.9,-1.3,-3.7,-2.6c-1.1,.6,-2.1,1.3,-3.1,1.9c1.5,2.2,3.8,3.6,6.8,4.3Zm0,-3.9c2.2,-4.5,4,-9.5,6.1,-14.1c-.9,-.3,-1.8,-1.3,-2.6,-1.3c-2.3,4.3,-4.6,8.6,-7,12.8c.7,1.3,2,2,3.5,2.6Zm-7.3,12.1c1,-2.9,2.4,-5.5,3.5,-8.3c-2,-1.6,-3.9,-3.1,-4.4,-6.2v-1.5c0,-2.7,1.9,-3.4,4.6,-3.4q.1,0,.2,0c1.9,-3.3,4.2,-6.3,6.1,-9.7c-.5,-.8,-1.1,-2.3,-.8,-3.6c.5,1.3,1.6,1.9,2.3,2.9c-.1,.6,-.2,1.1,-.3,1.8c.6,.6,1.3,1.1,2.4,1.3c.4,-.4,.5,-1.2,1.1,-1.5c.9,.4,1.8,.8,3.1,.8c.2,.1,.5,.1,.8,.1c.4,0,.7,0,.9,-.1c.1,0,.2,0,.3,0c.2,0,.4,0,.6,-.1c.2,-.1,.3,-.2,.5,-.2c.1,0,.2,.1,.3,.2c-1.3,.6,-2.2,1.7,-4.2,1.7c-.1,0,-.2,0,-.3,0c-.9,3.8,-1.9,7.4,-2.7,11.2c.6,1.1,1.6,1.7,1.3,3.1c-.5,2.8,-3.9,4.4,-7.2,4.4c-1.3,0,-2.5,-.2,-3.6,-.7c-1,2.1,-2.1,4.1,-3.3,6c0,-.4,.3,-.4,.3,-.7c.9,-1.8,1.9,-3.6,2.6,-5.7c-1,1.7,-1.8,3.7,-2.7,5.5c-.2,.5,-.5,.9,-.7,1.3c-.3,.4,-.3,1.1,-.7,1.4Z"/></clipPath>
<clipPath id="ca_58"><path d="M804.1,533.4c-4.8,0,-13.1,-7.3,-5.5,-8.8h1.2c.2,.1,.4,.1,.7,.1c.1,0,.2,0,.2,0c.3,0,.6,0,.9,0c3.1,.7,8.2,3.8,7.5,7.1c-.2,1.1,-1.5,1.6,-3.1,1.6h-1.8c0,0,-.1,0,-.1,0Z"/></clipPath>
<clipPath id="cb_58"><path d="M650.9,1025.2V773.3H897.3v251.9Z"/></clipPath>
<clipPath id="cc_58"><path d="M643.8,1028.2V769.7H901.2v258.5Z"/></clipPath>
<clipPath id="cd_58"><path d="M643.5,1027.9V769.4H900.9v258.5Z"/></clipPath>
<clipPath id="ce_58"><path d="M760.7,816c-.2,-.1,3.6,-8.3,3.6,-8.3l.8,.6c0,0,-4.1,7.7,-4.4,7.7Z"/></clipPath>
<clipPath id="cf_58"><path d="M768.2,808.2c0,0,-6.8,-1.1,-7.6,-5.2c-.6,-3.6,1.6,-3.8,2.1,-3.8q.1,0,.1,0l8.4,-12.8l-1.5,-3c0,0,-.6,-1.1,.1,-2.1c.1,-.1,.2,-.1,.4,-.1c2.1,0,12.9,5.5,12.9,5.5l.1,.2c-.4,.5,-.8,1.1,-1.4,1.6c-.7,.5,-5.1,1.2,-5.1,1.2l-8.5,18.5Z"/></clipPath>
<clipPath id="cg_58"><path d="M767.8,807.9c.2,-.5,.2,-1.8,0,-2.3v-1.4c-1.5,-.5,-2.9,-1.2,-3.6,-2.5c-1.1,.6,-2.2,1.3,-3.2,1.9c1.6,2.1,3.9,3.6,6.8,4.3Zm0,-3.9c2.2,-4.6,4,-9.5,6.2,-14.1c-.9,-.4,-1.9,-1.3,-2.7,-1.4c-2.3,4.4,-4.6,8.7,-7,12.8c.7,1.4,2.1,2.1,3.5,2.7Zm-7.3,12.1c1.1,-2.9,2.4,-5.5,3.5,-8.3c-1.9,-1.6,-3.9,-3.2,-4.4,-6.2v-1.5c0,-2.7,2,-3.4,4.6,-3.4c.1,0,.2,0,.2,0c2,-3.3,4.2,-6.3,6.2,-9.7c-.6,-.8,-1.2,-2.3,-.9,-3.6c.5,1.2,1.6,1.9,2.4,2.9c-.1,.6,-.3,1.1,-.4,1.7c.6,.7,1.3,1.2,2.4,1.4c.5,-.4,.5,-1.2,1.1,-1.5c1,.4,1.9,.8,3.2,.8c.1,.1,.4,.1,.8,.1c.3,0,.7,0,.8,-.1c.1,0,.2,0,.3,0c.2,0,.4,-.1,.6,-.1c.2,-.1,.4,-.2,.5,-.2c.2,0,.3,.1,.4,.1c-1.4,.7,-2.2,1.8,-4.2,1.8c-.1,0,-.2,0,-.4,0c-.8,3.7,-1.8,7.4,-2.6,11.2c.5,1,1.5,1.7,1.3,3.1c-.5,2.7,-3.9,4.4,-7.2,4.4c-1.3,0,-2.6,-.2,-3.6,-.7c-1.1,2.1,-2.1,4.1,-3.3,6c-.1,-.4,.3,-.4,.2,-.8c1,-1.8,2,-3.6,2.7,-5.6c-1.1,1.7,-1.9,3.7,-2.8,5.5c-.2,.4,-.4,.8,-.6,1.3c-.3,.4,-.3,1.1,-.8,1.4Z"/></clipPath>
<clipPath id="ch_58"><path d="M778.3,788.3c-4.8,0,-13.1,-7.3,-5.6,-8.8H774c.1,0,.4,0,.6,0h.1c0,0,.1,0,.1,0c.3,0,.6,0,.9,.1c3.1,.7,8.3,3.8,7.6,7c-.3,1.2,-1.6,1.6,-3.2,1.7h-1.7q-.1,0,-.1,0Z"/></clipPath>
<clipPath id="ci_58"><path d="M125.5,386.7V205.8H858.6V386.7Z"/></clipPath>
<style type="text/css"><![CDATA[
.g0_58{
fill: #FEFCF4;
}
.g1_58{
fill: #FFF;
}
.g2_58{
fill: none;
stroke: #6381B7;
stroke-width: 0.763;
}
.g3_58{
fill: #25408F;
}
.g4_58{
fill: #6381B7;
}
.g5_58{
fill: #A8AAAD;
}
.g6_58{
fill: none;
stroke: #949698;
stroke-width: 0.549;
}
.g7_58{
fill: none;
stroke: #BCBEC0;
stroke-width: 2.566;
}
.g8_58{
fill: #231F20;
}
.g9_58{
fill: #363637;
}
.ga_58{
fill: #5CC4BE;
}
.gb_58{
fill: #EAD646;
}
.gc_58{
fill: #F7C2D9;
}
.gd_58{
fill: #FDF4F3;
}
.ge_58{
fill: #EC008C;
}
.gf_58{
fill: none;
stroke: #818385;
stroke-width: 0.305;
stroke-dasharray: 4,4;
}
.gg_58{
fill: none;
stroke: #818385;
stroke-width: 0.305;
}
.gh_58{
fill: none;
stroke: #949698;
stroke-width: 0.305;
stroke-dasharray: 4,4;
}
.gi_58{
fill: none;
stroke: #949698;
stroke-width: 0.305;
}
.gj_58{
fill: #6D6F71;
}
.gk_58{
fill: #FCE8B0;
}
.gl_58{
fill: none;
stroke: #6381B7;
stroke-width: 0.381;
stroke-dasharray: 2,1;
}
.gm_58{
fill: none;
stroke: #6381B7;
stroke-width: 0.381;
}
.gn_58{
fill: none;
stroke: #818385;
stroke-width: 0.305;
stroke-dasharray: 3,3;
}
.go_58{
fill: #2E6E51;
}
.gp_58{
fill: none;
stroke: #FFF;
stroke-width: 0.152;
stroke-miterlimit: 1;
}
.gq_58{
fill: #BCBEC0;
}
.gr_58{
fill: #EE314A;
}
.gs_58{
fill: #CEEDFB;
}
.gt_58{
fill: #27639D;
}
.gu_58{
fill: none;
stroke: #C3E7F1;
stroke-width: 1.527;
}
.gv_58{
fill: none;
stroke: #FFF;
stroke-width: 1.909;
stroke-miterlimit: 10;
}
.gw_58{
fill: none;
stroke: #000;
stroke-width: 0.381;
stroke-miterlimit: 10;
}
]]></style>
</defs>
<path d="M32.1,1344.3H954.5V32.1H32.1V1344.3Z" class="g0_58"/>
<path clip-path="url(#c0_58)" d="M954.5,1344.3H1877V32.1H954.5V1344.3Z" class="g0_58"/>
<path d="M149.5,416.7c0,0,-18.3,0,-18.3,18.3v578.8c0,0,0,18.3,18.3,18.3H826.6c0,0,18.4,0,18.4,-18.3V416.7Z" class="g1_58"/>
<path d="M149.5,416.7c0,0,-18.3,0,-18.3,18.3v578.8c0,0,0,18.3,18.3,18.3H826.6c0,0,18.4,0,18.4,-18.3V416.7H149.5Z" class="g2_58"/>
<path d="M131.7,391.9v39l11.7,10.3V397Z" class="g3_58"/>
<path d="M131.7,391.9v39H829.5c0,0,16.8,0,16.8,-16.8v-5.4c0,0,0,-16.8,-16.8,-16.8Z" class="g4_58"/>
<path d="M781,425.6c8.2,0,14.8,-6.5,14.8,-14.6c0,-8,-6.6,-14.5,-14.8,-14.5c-8.3,0,-14.9,6.5,-14.9,14.5c0,8.1,6.6,14.6,14.9,14.6Z" class="g5_58"/>
<path d="M781,425.6c8.2,0,14.8,-6.5,14.8,-14.6c0,-8,-6.6,-14.5,-14.8,-14.5c-8.3,0,-14.9,6.5,-14.9,14.5c0,8.1,6.6,14.6,14.9,14.6Z" class="g6_58"/>
<path d="M781,416.4c3,0,5.4,-2.4,5.4,-5.4c0,-2.9,-2.4,-5.3,-5.4,-5.3c-3.1,0,-5.5,2.4,-5.5,5.3c0,3,2.4,5.4,5.5,5.4Z" class="g1_58"/>
<path d="M781,416.4c3,0,5.4,-2.4,5.4,-5.4c0,-2.9,-2.4,-5.3,-5.4,-5.3c-3.1,0,-5.5,2.4,-5.5,5.3c0,3,2.4,5.4,5.5,5.4Z" class="g7_58"/>
<g clip-path="url(#c1_58)" opacity="0.3">
<path d="M766.4,410.3v0c0,0,-.1,-4.9,3.6,-8.7l7.8,6.7c0,0,-1,1,-1.1,2.7Z" class="g1_58"/>
</g>
<path d="M785.6,410.9c0,0,-3.5,0,-3.5,3.5v8.7c0,0,0,3.5,3.5,3.5H829c0,0,3.5,0,3.5,-3.5v-8.7c0,0,0,-3.5,-3.5,-3.5Z" class="g8_58"/>
<path d="M169.5,402c0,-8.3,-6.7,-15,-15,-15c-8.4,0,-15.1,6.7,-15.1,15c0,8.3,6.8,15.1,15.1,15.1c.8,0,1.6,-.1,2.4,-.2l4.5,5.2v-6.7c4.8,-2.5,8.1,-7.6,8.1,-13.4Z" class="g1_58"/>
<path d="M161.8,423.3l-5.1,-5.9c-.7,.1,-1.5,.1,-2.2,.1c-8.6,0,-15.6,-6.9,-15.6,-15.5c0,-8.5,7,-15.5,15.6,-15.5c8.5,0,15.5,7,15.5,15.5c0,5.7,-3.1,10.9,-8.2,13.7Zm-4.7,-6.9l3.8,4.5v-5.8l.3,-.1c4.8,-2.5,7.9,-7.5,7.9,-13c0,-8,-6.6,-14.6,-14.6,-14.6c-8.1,0,-14.6,6.6,-14.6,14.6c0,8.1,6.5,14.6,14.6,14.6c.7,0,1.5,-.1,2.3,-.2Z" class="g9_58"/>
<path d="M147.4,401.6c.8,0,1.5,.6,1.5,1.4c0,.8,-.7,1.5,-1.5,1.5c-.7,0,-1.4,-.7,-1.4,-1.5c0,-.8,.7,-1.4,1.4,-1.4Z" class="ga_58"/>
<path d="M147.4,404.9c-1,0,-1.8,-.8,-1.8,-1.9c0,-1,.8,-1.9,1.8,-1.9c1.1,0,1.9,.9,1.9,1.9c0,1.1,-.8,1.9,-1.9,1.9m0,-2.9c-.5,0,-.9,.5,-.9,1c0,.6,.4,1,.9,1c.6,0,1,-.4,1,-1c0,-.5,-.4,-1,-1,-1Z" class="g9_58"/>
<path d="M154.5,401.6c.8,0,1.4,.6,1.4,1.4c0,.8,-.6,1.5,-1.4,1.5c-.8,0,-1.5,-.7,-1.5,-1.5c0,-.8,.7,-1.4,1.5,-1.4Z" class="ga_58"/>
<path d="M154.5,404.9c-1.1,0,-1.9,-.8,-1.9,-1.9c0,-1,.8,-1.9,1.9,-1.9c1,0,1.9,.9,1.9,1.9c0,1.1,-.9,1.9,-1.9,1.9m0,-2.9c-.6,0,-1,.5,-1,1c0,.6,.4,1,1,1c.5,0,.9,-.4,.9,-1c0,-.5,-.4,-1,-.9,-1Z" class="g9_58"/>
<path d="M161.5,401.6c.8,0,1.4,.6,1.4,1.4c0,.8,-.6,1.5,-1.4,1.5c-.8,0,-1.5,-.7,-1.5,-1.5c0,-.8,.7,-1.4,1.5,-1.4Z" class="ga_58"/>
<path d="M161.5,404.9c-1.1,0,-1.9,-.8,-1.9,-1.9c0,-1,.8,-1.9,1.9,-1.9c1,0,1.9,.9,1.9,1.9c0,1.1,-.9,1.9,-1.9,1.9m0,-2.9c-.6,0,-1,.5,-1,1c0,.6,.4,1,1,1c.5,0,1,-.4,1,-1c0,-.5,-.5,-1,-1,-1Z" class="g9_58"/>
<path d="M163.4,416.2c0,-9.7,7.9,-17.6,17.6,-17.6c9.7,0,17.6,7.9,17.6,17.6c0,9.8,-7.9,17.7,-17.6,17.7c-.9,0,-1.9,-.1,-2.8,-.3l-5.3,6.1v-7.8c-5.6,-2.9,-9.5,-8.8,-9.5,-15.7Z" class="gb_58"/>
<path d="M172.9,440.2c0,0,-.1,0,-.1,0c-.2,-.1,-.3,-.3,-.3,-.5v-7.5c-5.9,-3.2,-9.6,-9.3,-9.6,-16c0,-9.9,8.2,-18,18.1,-18c10,0,18.1,8.1,18.1,18c0,10,-8.1,18.1,-18.1,18.1c-.8,0,-1.7,0,-2.6,-.2l-5.1,5.9c-.1,.1,-.2,.2,-.4,.2M181,399.1c-9.4,0,-17.1,7.7,-17.1,17.1c0,6.5,3.5,12.3,9.2,15.3c.2,.1,.3,.2,.3,.4v6.6l4.4,-5.2c.1,-.1,.3,-.1,.5,-.1c.9,.1,1.8,.2,2.7,.2c9.5,0,17.2,-7.7,17.2,-17.2c0,-9.4,-7.7,-17.1,-17.2,-17.1Z" class="g9_58"/>
<path d="M189.2,415.8c.9,0,1.7,.7,1.7,1.6c0,.9,-.8,1.7,-1.7,1.7c-.9,0,-1.7,-.8,-1.7,-1.7c0,-.9,.8,-1.6,1.7,-1.6Z" class="g1_58"/>
<path d="M189.2,419.6c-1.2,0,-2.1,-1,-2.1,-2.2c0,-1.1,.9,-2.1,2.1,-2.1c1.2,0,2.1,1,2.1,2.1c0,1.2,-.9,2.2,-2.1,2.2m0,-3.4c-.7,0,-1.2,.6,-1.2,1.2c0,.7,.5,1.2,1.2,1.2c.7,0,1.2,-.5,1.2,-1.2c0,-.6,-.5,-1.2,-1.2,-1.2Z" class="g9_58"/>
<path d="M181,415.8c.9,0,1.7,.7,1.7,1.6c0,.9,-.8,1.7,-1.7,1.7c-.9,0,-1.7,-.8,-1.7,-1.7c0,-.9,.8,-1.6,1.7,-1.6Z" class="g1_58"/>
<path d="M181,419.6c-1.2,0,-2.1,-1,-2.1,-2.2c0,-1.1,.9,-2.1,2.1,-2.1c1.2,0,2.1,1,2.1,2.1c0,1.2,-.9,2.2,-2.1,2.2m0,-3.4c-.7,0,-1.2,.6,-1.2,1.2c0,.7,.5,1.2,1.2,1.2c.7,0,1.2,-.5,1.2,-1.2c0,-.6,-.5,-1.2,-1.2,-1.2Z" class="g9_58"/>
<path d="M172.8,415.8c.9,0,1.7,.7,1.7,1.6c0,.9,-.8,1.7,-1.7,1.7c-.9,0,-1.7,-.8,-1.7,-1.7c0,-.9,.8,-1.6,1.7,-1.6Z" class="g1_58"/>
<path d="M172.8,419.6c-1.2,0,-2.1,-1,-2.1,-2.2c0,-1.1,.9,-2.1,2.1,-2.1c1.2,0,2.1,1,2.1,2.1c0,1.2,-.9,2.2,-2.1,2.2m0,-3.4c-.7,0,-1.2,.6,-1.2,1.2c0,.7,.5,1.2,1.2,1.2c.7,0,1.2,-.5,1.2,-1.2c0,-.6,-.5,-1.2,-1.2,-1.2Z" class="g9_58"/>
<image clip-path="url(#c2_58)" preserveAspectRatio="none" x="665" y="545" width="236" height="197" xlink:href="img/1.png"/>
<path d="M670.4,553.2l5.2,182.4l219.8,-2.3l-1.3,-26.9l-4.8,-157Z" class="gc_58"/>
<image clip-path="url(#c3_58)" preserveAspectRatio="none" x="662" y="543" width="238" height="204" xlink:href="img/2.png"/>
<image clip-path="url(#c4_58)" preserveAspectRatio="none" x="662" y="543" width="238" height="203" xlink:href="img/3.png"/>
<path d="M675.3,547.3l-8.1,182.8l185.6,9.7L887.2,716L894,558.8Z" class="gd_58"/>
<path d="M852.8,740.2l34.4,-24.5L859,711.9Z" class="ge_58"/>
<path d="M466.9,751.8c7.6,-1.2,13.6,-4.7,15.6,-9.3m-.9,-8.1c-2.7,-4.1,-8.9,-7.2,-16.4,-7.9m-8.6,.2c-7.6,1.1,-13.6,4.7,-15.6,9.2m.8,8.1c2.8,4.2,9,7.2,16.5,8" class="gf_58"/>
<path d="M483,740.9c.1,-.5,.2,-1.1,.2,-1.7c0,-.6,-.1,-1.1,-.2,-1.7M463.5,726.3c-.6,0,-1.2,0,-1.8,0c-.5,0,-1.1,0,-1.7,0m-19.5,11.2c-.1,.6,-.2,1.1,-.2,1.7c0,.6,.1,1.2,.2,1.7M460,752.1c.6,0,1.2,0,1.7,0c.6,0,1.2,0,1.8,0" class="gg_58"/>
<path d="M460.2,723.4c5.2,-19.2,27.7,-94.4,62.4,-106.2m6.4,1.9c1.1,3,.4,7.8,-3.5,9.6m-3.9,-2.9c5.7,-14.7,56.9,-68.6,148.4,-61" class="gh_58"/>
<path d="M459.1,727.8c0,0,.1,-.5,.3,-1.5M524.1,616.8c.5,-.2,1,-.3,1.5,-.4c.5,-.1,1.1,-.1,1.5,.2M524,629.2c-.5,.2,-1.1,.2,-1.6,.3c-.7,0,-1.1,-.2,-1.2,-.7M671.5,565c.5,0,1,.1,1.5,.1" class="gi_58"/>
<path d="M666.3,569.7l.6,-8.8l11,5.3Z" class="gj_58"/>
<path d="M208.7,449.1c0,0,-13,0,-13,13v47.7c0,0,0,12.9,13,12.9h602c0,0,13,0,13,-12.9V462.1c0,0,0,-13,-13,-13Z" class="gk_58"/>
<image clip-path="url(#c5_58)" preserveAspectRatio="none" x="152" y="445" width="75" height="77" xlink:href="img/4.png"/>
<path d="M203.5,515.4c0,0,-26.8,11.3,-51.1,-12.8c0,0,15.2,25.4,49.3,24c0,0,24.8,.3,20.3,-10.1c0,0,1.2,-4.5,-18.5,-1.1Z" class="gk_58"/>
<path d="M145.1,1042.7c0,0,-13,0,-13,12.9v137.6c0,0,0,13,13,13H832.9c0,0,13,0,13,-13V1055.6c0,0,0,-12.9,-13,-12.9Z" class="g1_58"/>
<path d="M145.1,1042.7c0,0,-13,0,-13,12.9v137.6c0,0,0,13,13,13H832.9c0,0,13,0,13,-13V1055.6c0,0,0,-12.9,-13,-12.9H145.1Z" class="g2_58"/>
<path d="M455.1,1222.1c0,0,-4.3,0,-4.3,4.4v10.8c0,0,0,4.3,4.3,4.3h30.4c0,0,4.3,0,4.3,-4.3v-10.8c0,0,0,-4.4,-4.3,-4.4Z" class="g4_58"/>
<path d="M442,1214.7v34.8m1.3,1H845.1m1,-1.4v-34.8m-1.4,-1H442.9" class="gl_58"/>
<path d="M442,1249.9v.6h.5m403,0h.6v-.6m0,-36v-.6h-.6m-403,0H442v.6" class="gm_58"/>
<path d="M209.4,1084c0,0,-13,0,-13,13v21.6c0,0,0,13,13,13h602c0,0,13,0,13,-13V1097c0,0,0,-13,-13,-13Z" class="gk_58"/>
<image clip-path="url(#c6_58)" preserveAspectRatio="none" x="152" y="1054" width="75" height="77" xlink:href="img/5.png"/>
<path d="M204.2,1124.3c0,0,-26.8,11.3,-51.1,-12.8c0,0,15.2,25.3,49.3,24c0,0,24.8,.3,20.3,-10.1c0,0,1.2,-4.5,-18.5,-1.1Z" class="gk_58"/>
<image clip-path="url(#c7_58)" x="786" y="552" width="5" height="10" xlink:href="shade/1.png"/>
<image clip-path="url(#c8_58)" x="785" y="526" width="25" height="28" xlink:href="shade/2.png"/>
<image clip-path="url(#c9_58)" x="785" y="528" width="23" height="34" xlink:href="shade/3.png"/>
<image clip-path="url(#ca_58)" x="790" y="524" width="20" height="10" xlink:href="shade/4.png"/>
<image clip-path="url(#cb_58)" preserveAspectRatio="none" x="651" y="774" width="246" height="252" xlink:href="img/6.png"/>
<path d="M656.2,782.9l4.9,236.2l229.7,-3.7l-.2,-26.9L886.1,778.6Z" class="gc_58"/>
<image clip-path="url(#cc_58)" preserveAspectRatio="none" x="643" y="770" width="258" height="259" xlink:href="img/7.png"/>
<image clip-path="url(#cd_58)" preserveAspectRatio="none" x="643" y="770" width="258" height="258" xlink:href="img/8.png"/>
<path d="M648.2,789.8l17,231.7l198.4,-13l31.2,-28.1L879.6,774.5Z" class="gd_58"/>
<path d="M864,1009.2L895.2,980l-17.8,-8.2Z" class="ge_58"/>
<path d="M427.1,828.5c8.5,-1.1,15.1,-5.6,16.8,-11.2m-.5,-6.9c-2.4,-5.3,-9.3,-9.3,-17.7,-10.1m-7.1,.2c-8.4,1.1,-15.1,5.6,-16.8,11.2m.5,6.9c2.4,5.3,9.3,9.3,17.7,10.1" class="gn_58"/>
<path d="M444.2,815.9c.1,-.5,.1,-.9,.1,-1.4c0,-.5,0,-.9,-.1,-1.4M424.3,800.2c-.5,0,-1,0,-1.4,0c-.5,0,-1,0,-1.4,0m-20,12.9c0,.5,-.1,.9,-.1,1.4c0,.5,.1,.9,.1,1.4m20,12.8c.4,.1,.9,.1,1.4,.1c.4,0,.9,0,1.4,-.1" class="gg_58"/>
<path d="M428.3,830.5c0,0,90.2,42.4,243,42.3" class="gh_58"/>
<path d="M660,868l-1.1,8.7l11.8,-3.1Z" class="gj_58"/>
<image clip-path="url(#ce_58)" x="760" y="807" width="6" height="10" xlink:href="shade/5.png"/>
<image clip-path="url(#cf_58)" x="759" y="781" width="25" height="28" xlink:href="shade/6.png"/>
<image clip-path="url(#cg_58)" x="759" y="783" width="23" height="34" xlink:href="shade/7.png"/>
<image clip-path="url(#ch_58)" x="765" y="779" width="19" height="10" xlink:href="shade/8.png"/>
<path d="M32.1,179.3H967.5V32.1H32.1V179.3Z" class="go_58"/>
<path d="M260.2,135.2L259,134H247.2l1.2,1.2h8.2v.9c-2.6,.8,-5,2.1,-7.4,3.7l1.6,2.3c1.7,.1,3,.7,4,1.6c.3,.3,.6,.6,1,1c.3,.4,.5,.8,.7,1.2c.2,.3,.3,.5,.4,.7c.1,.1,.1,.2,.1,.4l.7,.8V135.2h2.5Zm-3.6,9.4c-1.1,-1.8,-2.7,-3.2,-4.9,-4.1c.9,-.6,1.7,-1.1,2.5,-1.5c.8,-.4,1.6,-.7,2.4,-1v6.6Zm7.8,-9.4L263.2,134h-1c-.4,-.4,-.6,-1,-.8,-1.9l-.4,-.3c0,.2,0,.5,0,.9c0,.3,.1,.7,.1,1.2c0,.5,.1,.9,.1,1.3c0,.3,0,.6,0,.9c-.2,-.8,-.6,-1.3,-1,-1.6c-.4,-.3,-.9,-.5,-1.7,-.5h-1.3l1.2,1.2c.3,0,.6,.1,1,.2c.3,.1,.6,.3,.8,.5c.3,.2,.5,.4,.6,.7c.2,.3,.2,.7,.2,1v8.9l1.2,1.2V135.2h2.2ZM278.9,134H262.6l1.2,1.2h1.8v8.2c0,.4,.2,.9,.6,1.5c.4,.5,.9,.8,1.4,.8c1.2,0,2.4,-.8,3.6,-2.5v1.1c0,.1,.1,.3,.2,.6c.1,.2,.3,.4,.5,.7c.4,.6,.8,.9,1.4,.9c.3,0,.6,0,1,-.2c.3,-.2,.7,-.4,1,-.7c.4,-.3,.8,-.6,1.1,-1.1c.4,-.4,.8,-.8,1.1,-1.3c.3,-.4,.5,-.9,.7,-1.4c.2,-.5,.2,-1,.2,-1.4c0,-.7,-.3,-1.3,-1,-1.7c-.2,-.1,-.5,-.2,-.8,-.3c-.3,-.1,-.7,-.2,-1.1,-.3c-.4,-.1,-.7,-.3,-.9,-.4c-.3,-.1,-.5,-.2,-.7,-.3c-.5,-.4,-.9,-.8,-1.1,-1.1c-.1,-.1,-.2,-.2,-.3,-.4c0,-.3,-.1,-.5,-.1,-.7h7.7L278.9,134Zm-2.3,6.5c.1,.1,.1,.2,.1,.3c0,.4,-.1,.7,-.3,1c-.1,.4,-.4,.7,-.7,1c-.5,.7,-1.1,1.2,-1.5,1.6c-.5,.4,-.9,.5,-1.3,.5c-.3,0,-.5,-.2,-.5,-.7v-7h.1c.2,.5,.5,.8,.8,1.2c.3,.3,.8,.7,1.4,1c.2,.2,.4,.3,.5,.3c.2,.1,.4,.2,.6,.2c.1,.1,.3,.2,.4,.2c.2,.1,.3,.1,.3,.2q.1,.1,.1,.2Zm-6.1,0c0,.1,0,.2,0,.3c0,.2,0,.4,-.1,.6c-.1,.2,-.2,.4,-.4,.6c-.6,.6,-1.1,1.2,-1.5,1.5c-.5,.4,-.9,.6,-1.2,.6c-.4,0,-.5,-.3,-.5,-.7v-6.2c.2,.5,.5,.8,.8,1.2c.3,.3,.8,.7,1.4,1c.1,.1,.2,.2,.3,.3c.1,0,.2,0,.3,.1c.4,.2,.6,.4,.8,.5c0,.1,.1,.1,.1,.2Zm-3.6,-4.6c-.1,-.2,-.1,-.5,-.1,-.7h4.4v3.5l-.8,-.3c-.4,-.2,-.8,-.4,-1.3,-.6c-.4,-.2,-.7,-.3,-.8,-.4c-.6,-.4,-1,-.8,-1.2,-1.1c-.1,-.1,-.2,-.2,-.2,-.4Zm18,-.7L283.7,134h-1.1c-.3,-.4,-.6,-1,-.7,-1.9l-.4,-.3c0,.2,0,.5,0,.9c0,.3,0,.7,.1,1.2c0,.5,0,.9,0,1.3c.1,.3,.1,.6,.1,.9c-.3,-.8,-.6,-1.3,-1,-1.6c-.4,-.3,-1,-.5,-1.7,-.5h-1.4l1.2,1.2c.4,0,.7,.1,1,.2c.4,.1,.6,.3,.9,.5c.2,.2,.4,.4,.6,.7c.1,.3,.2,.7,.2,1v8.9l1.1,1.2V135.2h2.3Zm11.1,0L294.8,134H283l1.2,1.2h8.2v.9c-2.5,.8,-5,2.1,-7.4,3.7l1.6,2.3c1.7,.1,3.1,.7,4.1,1.6c.3,.3,.6,.6,.9,1c.3,.4,.6,.8,.7,1c.2,.3,.4,.7,.6,1.3l.7,.8V135.2H296Zm-3.6,9.4c-1.1,-1.8,-2.7,-3.2,-4.8,-4.1c.8,-.6,1.7,-1.1,2.5,-1.5c.8,-.4,1.5,-.7,2.3,-1v6.6Zm-4.7,1.7c.2,.3,.5,.4,.9,.4c.3,0,.6,-.1,.8,-.4c.3,-.2,.4,-.5,.4,-.8c0,-.4,-.1,-.7,-.4,-.9c-.2,-.3,-.5,-.4,-.8,-.4c-.4,0,-.7,.1,-.9,.4c-.2,.2,-.4,.5,-.4,.9c0,.3,.2,.6,.4,.8ZM317.1,134H301.8l1.2,1.2h5.3c-.5,.3,-.9,.8,-1.3,1.5c-.4,.6,-.5,1.2,-.5,1.7c0,.8,.2,1.5,.8,2.1c.5,.7,1.2,1,2,1c.3,0,.7,-.1,1.2,-.3c.6,-.2,.9,-.3,1,-.3c.2,0,.4,.1,.5,.4c.1,.2,.2,.4,.2,.6c0,.6,-.4,1,-1.1,1.3c-.6,.3,-1.2,.5,-1.8,.5c-.7,0,-1.3,-.2,-1.9,-.6c-.5,-.4,-1,-1,-1.4,-1.7c-.6,-.9,-1,-2.1,-1.2,-3.5c0,-.5,0,-.9,0,-1.3l-.6,-.3c0,1.2,.1,2.3,.3,3.3c.1,1,.4,1.9,.7,2.7c.9,2.2,2.4,3.4,4.5,3.4c.9,0,1.7,-.4,2.3,-1c.7,-.7,1,-1.5,1,-2.4c0,-.3,0,-.6,-.1,-.9c-.1,-.4,-.3,-.7,-.5,-1.1c-.4,-.7,-.9,-1.2,-1.4,-1.4l-1.3,.7c-.3,.1,-.5,.2,-.8,.3c-.2,.1,-.4,.1,-.5,.1c-.6,0,-1,-.3,-1,-.9c0,-.4,.3,-1,.7,-1.7c.3,-.4,.5,-.7,.7,-.9c.2,-.2,.4,-.3,.6,-.3l.1,.1c.8,.9,1.6,1.6,2.4,1.9c.8,.3,1.8,.5,3.1,.5c-.5,1.2,-.8,2.5,-.8,3.6c0,.9,.1,1.8,.3,2.6c.1,.8,.4,1.6,.7,2.4l1.1,.3c-.6,-1.3,-.9,-2.5,-.9,-3.4c0,-1.2,.2,-2.3,.5,-3.3c.4,-.9,.9,-1.7,1.5,-2.3l-1.8,-1.9c-.3,.2,-.8,.3,-1.3,.4c-.5,.1,-1.1,.1,-1.7,.1c-.2,0,-.3,0,-.6,-.1c-.2,-.1,-.4,-.1,-.7,-.3c-.2,-.1,-.4,-.2,-.6,-.3c-.1,-.2,-.2,-.3,-.2,-.5c0,-.2,.1,-.4,.3,-.5c.3,-.2,.5,-.3,.7,-.3h6.8L317.1,134Zm5.8,1.2L321.7,134h-1.1c-.3,-.4,-.6,-1,-.7,-1.9l-.5,-.3c0,.2,0,.5,.1,.9c0,.3,0,.7,0,1.2c.1,.5,.1,.9,.1,1.3c0,.3,0,.6,0,.9c-.2,-.8,-.5,-1.3,-.9,-1.6c-.4,-.3,-1,-.5,-1.7,-.5h-1.4l1.2,1.2c.3,0,.7,.1,1,.2c.3,.1,.6,.3,.9,.5c.2,.2,.4,.4,.5,.7c.2,.3,.3,.7,.3,1v8.9l1.1,1.2V135.2h2.3ZM333,134H321l1.3,1.2c.4,.6,.8,1,1.1,1.2c.2,.2,.4,.3,.7,.4c.3,.2,.7,.3,1.1,.4c.8,.3,1.4,.5,1.7,.8c.4,.4,.6,1.1,.6,2.2c-.2,-.2,-.5,-.3,-.9,-.3c-.7,0,-1.3,.2,-1.7,.5c-.5,.4,-.8,1,-.8,1.6c0,.6,.2,1.1,.6,1.5c.4,.4,.9,.5,1.5,.5c.3,0,.6,0,1,-.2c.4,-.1,.7,-.5,1.1,-.9c1.6,.5,2.7,2,3.3,4.4l.5,.5V135.2h2.1L333,134Zm-2.1,9.8c-.2,-.4,-.5,-.8,-.9,-1.2c-.3,-.4,-.7,-.8,-1.2,-1.2c0,-.1,0,-.2,0,-.3v-.3c0,-1.1,-.4,-2.1,-1.1,-3.1c-.5,-.7,-1.3,-1.5,-2.6,-2.5h5.8v8.6Zm7.9,-8.6L337.7,134h-1.1c-.4,-.4,-.6,-1,-.8,-1.9l-.4,-.3c0,.2,0,.5,0,.9c0,.3,.1,.7,.1,1.2c0,.5,.1,.9,.1,1.3c0,.3,0,.6,0,.9c-.2,-.8,-.6,-1.3,-1,-1.6c-.4,-.3,-.9,-.5,-1.6,-.5h-1.4l1.2,1.2c.3,0,.7,.1,1,.2c.3,.1,.6,.3,.8,.5c.3,.2,.5,.4,.6,.7c.2,.3,.2,.7,.2,1v8.9l1.2,1.2V135.2h2.2ZM358,134h-1.2c0,-1.1,-.3,-1.9,-.9,-2.5c-.6,-.6,-1.5,-.9,-2.6,-.9c-.2,0,-.5,0,-.8,0c-.3,0,-.6,.1,-1,.1c-.5,0,-.8,.1,-1.1,.1c-.3,0,-.5,0,-.7,0c-.3,0,-.5,0,-.8,-.1c-.2,-.1,-.5,-.1,-.7,-.2c-.5,-.3,-.8,-.6,-.8,-1.1c0,-.3,.1,-.6,.4,-.8c0,-.1,-.1,-.1,-.2,-.1c-.1,-.1,-.2,-.1,-.2,-.2c-.5,.3,-.7,.7,-.7,1.4c0,.9,.5,1.6,1.3,2.1c.8,.4,1.6,.7,2.5,.7c.2,0,.4,-.1,.7,-.1c.3,0,.6,0,1,0c.4,-.1,.7,-.1,1,-.1c.3,0,.5,0,.7,0c.4,0,.8,0,1.2,.2c.4,.2,.7,.5,.7,.8c0,.5,-.3,.7,-.8,.7H344.8l1.2,1.2h5.1v4.5c0,.3,.1,.6,.2,.8c.1,.3,.2,.5,.4,.7c.2,.2,.4,.3,.6,.4c.3,.1,.5,.2,.8,.2c.2,0,.4,-.1,.7,-.2c.3,-.2,.6,-.4,.9,-.6c.3,-.2,.6,-.5,.8,-.8c.3,-.3,.5,-.5,.6,-.8c.5,.4,.7,1,.7,1.5c0,.9,-.4,1.7,-1.1,2.3c-.4,.3,-.8,.5,-1.2,.7c-.4,.2,-.9,.2,-1.4,.2c-1.5,0,-2.9,-.9,-3.9,-2.8c-.4,-.7,-.7,-1.5,-.9,-2.3c-.2,-.8,-.4,-1.7,-.4,-2.5L347,136c.8,6.8,2.9,10.2,6.4,10.2c1.3,0,2.3,-.5,3.3,-1.5c.7,-.9,1.1,-2.1,1,-3.5c0,-.7,-.2,-1.4,-.6,-2.2c-.5,-.9,-1,-1.4,-1.6,-1.4c-.1,0,-.4,.4,-.9,1.1c-.5,.6,-1,1,-1.5,1.2c-.3,0,-.5,-.1,-.6,-.3c-.1,-.3,-.2,-.5,-.2,-.7v-3.7h6.9L358,134Zm14.4,1.2L371.2,134c-.2,0,-.3,0,-.4,0c-.5,0,-.8,-.2,-1,-.6c0,-.2,-.1,-.6,-.1,-1.2l-.6,-.5c.1,1.1,.1,2.2,.2,3.2c0,1.1,.1,2.1,.1,3.2c-1.5,-2.6,-3.2,-3.9,-4.9,-3.9c-.5,0,-1,.1,-1.5,.3c-.5,.1,-1,.4,-1.5,.7c-.6,.4,-1,.8,-1.3,1.2c-.3,.4,-.5,.9,-.5,1.3c0,.2,.1,.5,.3,.7c.2,.2,.4,.3,.7,.3c.2,0,.5,-.1,.8,-.3c.2,-.1,.4,-.1,.5,-.2c.1,0,.3,0,.4,0c.5,0,.7,.4,.7,1.2c0,.5,-.4,1.1,-1.2,1.9l1.7,.6l4.2,-4.2c.1,.1,.3,.2,.4,.4c.2,.2,.4,.4,.5,.6c.2,.3,.3,.5,.4,.7c.1,.3,.1,.5,.1,.6l-.2,6.4l1.3,1.3V135.2h2.1Zm-8.6,4.2c.1,-.7,0,-1.2,-.3,-1.6c-.3,-.5,-.8,-.7,-1.4,-.7c.5,-1.1,1.5,-1.6,2.8,-1.6c.7,0,1.3,.3,1.9,.9l-3,3ZM382.5,134H370.4l1.2,1.2h4.3c.5,.4,.8,.7,.8,1c-.8,0,-1.4,.3,-2,.8c-.5,.5,-.8,1.1,-.8,1.8c0,.4,.1,.7,.4,.9c.3,.2,.6,.3,1,.3c.6,0,1.1,-.2,1.6,-.7c.5,-.5,.7,-1,.7,-1.6c.1,0,.2,-.1,.4,-.1c.1,0,.2,0,.4,0c.1,0,.3,.1,.5,.2c.2,.1,.4,.2,.5,.4c.2,.2,.3,.4,.4,.7c.1,.2,.1,.5,.1,.7c0,.8,-.4,1.5,-1.4,2c-.7,.3,-1.5,.5,-2.5,.4c-1.2,-.1,-2.3,-.4,-3.3,-1l1.4,3c.9,.2,1.7,.5,2.6,.9c.9,.3,1.7,.7,2.5,1.2c.9,.5,1.7,1,2.3,1.5c.7,.6,1.4,1.2,1.9,1.9l-.2,-1.3c-1.1,-1.1,-2.1,-2,-3,-2.8c-.9,-.8,-1.8,-1.4,-2.6,-1.9c1.2,-.3,2.1,-.7,2.6,-1.2c.8,-.6,1.2,-1.4,1.2,-2.4c0,-1,-.3,-1.8,-.9,-2.5c-.4,-.5,-1.3,-.9,-2.5,-1.3c-.1,-.2,-.2,-.3,-.3,-.5c-.1,-.1,-.2,-.2,-.3,-.4h6.3L382.5,134Zm5.2,1.2L386.5,134h-1.1c-.3,-.4,-.6,-1,-.7,-1.9l-.4,-.3c0,.2,0,.5,0,.9c0,.3,0,.7,0,1.2c.1,.5,.1,.9,.1,1.3c.1,.3,.1,.6,.1,.9c-.3,-.8,-.6,-1.3,-1,-1.6c-.4,-.3,-1,-.5,-1.7,-.5h-1.4l1.2,1.2c.4,0,.7,.1,1,.2c.3,.1,.6,.3,.9,.5c.2,.2,.4,.4,.6,.7c.1,.3,.2,.7,.2,1v8.9l1.1,1.2V135.2h2.3Zm11.1,0L397.6,134H385.8l1.2,1.2h8.2v.9c-2.5,.8,-5,2.1,-7.4,3.7l1.6,2.3c1.7,.1,3.1,.7,4.1,1.6c.3,.3,.6,.6,.9,1c.3,.4,.6,.8,.7,1c.2,.3,.4,.7,.6,1.3l.6,.8V135.2h2.5Zm-3.6,9.4c-1.1,-1.8,-2.7,-3.2,-4.8,-4.1c.8,-.6,1.7,-1.1,2.5,-1.5c.7,-.4,1.5,-.7,2.3,-1v6.6Zm-4.7,1.7c.2,.3,.5,.4,.9,.4c.3,0,.6,-.1,.8,-.4c.3,-.2,.4,-.5,.4,-.8c0,-.4,-.1,-.7,-.4,-.9c-.2,-.3,-.5,-.4,-.8,-.4c-.4,0,-.7,.1,-.9,.4c-.3,.2,-.4,.5,-.4,.9c0,.3,.1,.6,.4,.8Zm27.9,-14.4c-2.3,-2.4,-4.7,-3.6,-7.2,-3.6c-1,0,-2.1,.4,-3.1,1.2c-1.1,.9,-1.6,1.8,-1.6,2.7c0,.4,.1,.7,.4,1l.9,.8h-3.2l1.2,1.2h1.8v11.3l1.2,1.2V135.2h2.1L409.7,134h-1.3l-.5,-1.1c.1,-.9,.6,-1.6,1.6,-2.3c1,-.7,1.9,-1,2.8,-1c.6,0,1.2,.1,1.8,.2c.6,.2,1.1,.4,1.7,.7c.6,.4,1.1,.7,1.6,1c.4,.4,.9,.7,1.3,1l-.3,-.6Zm4,3.3L421.2,134H409.4l1.2,1.2h1.2v7.1l1.7,1.7c.5,-1.1,1.2,-2.1,2,-2.9c.9,-.9,1.9,-1.5,3,-1.9c-.3,1,-.4,2.1,-.4,3.1c0,.6,0,1.3,.1,2.2c.2,.8,.3,1.8,.6,3l.8,.4c-.3,-1.6,-.5,-2.8,-.5,-3.7c0,-.9,.2,-1.8,.5,-2.8c.3,-1,.7,-2,1.2,-3l-1.9,-1.5c-.5,.1,-.9,.3,-1.4,.6c-.5,.2,-1,.5,-1.5,.8c-.5,.4,-1,.7,-1.5,1.2c-.5,.4,-.9,.8,-1.4,1.3v-5.6h9.3Zm5.9,-1.2h-7.9l1.2,1.2h3.9c-1.7,2,-2.5,4,-2.5,6.1c0,1.5,.3,2.8,.9,3.9c.8,1.4,1.9,2.1,3.2,2.1c.3,0,.6,0,.9,-.1c.2,-.1,.5,-.2,.7,-.4c.2,-.2,.3,-.4,.4,-.7c.2,-.2,.2,-.5,.2,-.8c0,-.4,-.1,-.9,-.4,-1.2c-.3,-.3,-.6,-.5,-1,-.5c-.4,0,-.8,.2,-1.1,.4c-.3,.3,-.4,.6,-.4,1c0,.2,0,.4,.2,.7c.1,.2,.3,.4,.5,.6c-.7,.2,-1.4,-.2,-2.2,-1.3c-.4,-.7,-.7,-1.5,-.7,-2.3c0,-1,.1,-1.9,.3,-2.7c.3,-.7,.6,-1.4,1,-2.1c.4,-.7,1,-1.3,1.6,-1.7c.7,-.5,1.5,-.8,2.4,-1L428.3,134Zm13.6,1.2L440.7,134H427.4l1.3,1.2h9.8v3.3c-.5,-1.3,-1.2,-2,-2.2,-2c-.4,0,-.7,.2,-1,.5c-.4,.3,-.5,.6,-.5,1c-.8,-1,-1.7,-1.6,-2.8,-1.6c-.8,0,-1.4,.4,-1.9,1.2c-.5,.7,-.7,1.4,-.7,2.3c0,.5,.1,1,.2,1.4c.2,.4,.4,.8,.7,1.1c.4,.3,.7,.5,1.1,.7c.5,.1,.9,.2,1.5,.2c.6,-.1,1.1,-.2,1.4,-.5c.3,-.3,.5,-.7,.5,-1.2c0,-1.1,-.5,-1.7,-1.6,-1.7c-.4,0,-.7,.1,-1,.3c-.3,.3,-.4,.6,-.4,1c0,.2,.1,.6,.4,1c-1.2,-.2,-1.7,-.8,-1.7,-1.7c0,-.3,0,-.6,.1,-.9c.2,-.3,.3,-.5,.5,-.7c.2,-.2,.5,-.4,.8,-.5c.2,-.1,.5,-.2,.8,-.2c.7,0,1.3,.2,1.8,.6c.5,.4,.9,1,1,1.6l.5,-.2c-.1,-.3,-.1,-.5,-.1,-.7c0,-.9,.3,-1.3,1,-1.3c.4,0,.8,.2,1.1,.5c.3,.3,.4,.7,.4,1.1v6.9l1.3,1.1V135.2h2.2ZM455.1,134c-.5,0,-1,.2,-1.5,.4c-.4,.3,-.9,.5,-1.3,.8c-.7,.8,-1.3,1.8,-1.8,2.8c-.4,1,-.6,2.1,-.7,3.3c0,1.5,.4,2.8,1,3.9c.7,1.4,1.8,2.1,3.2,2.1c.3,0,.5,0,.8,-.1c.3,-.1,.5,-.2,.7,-.4c.2,-.2,.4,-.4,.5,-.7c.1,-.2,.2,-.5,.2,-.8c0,-.4,-.2,-.9,-.5,-1.2c-.3,-.3,-.6,-.5,-1,-.5c-.2,0,-.4,.1,-.5,.1c-.2,.1,-.4,.2,-.5,.3c-.2,.2,-.3,.3,-.3,.4c-.1,.2,-.2,.4,-.2,.6c0,.2,.1,.4,.2,.7c.1,.2,.3,.4,.6,.6c-.1,0,-.2,.1,-.3,.1h-.1c-.7,0,-1.3,-.5,-1.9,-1.4c-.4,-.7,-.6,-1.5,-.6,-2.3c0,-1,.1,-1.9,.3,-2.7c.2,-.7,.5,-1.4,.9,-2.1c.5,-.7,1,-1.3,1.7,-1.7c.6,-.5,1.4,-.8,2.3,-1L455.1,134Zm15.6,1.2L469.5,134H454.3l1.3,1.2h7.7v1c-2.6,.8,-4.9,2.1,-6.9,3.7l1.7,2.1c1.3,.1,2.5,.7,3.6,1.8c.5,.5,.9,1,1.3,1.6c.4,.7,.7,1.3,1,2q.1,.1,.2,.2c.1,0,.2,.1,.3,.1v-10c1.2,0,2.1,.3,2.7,1c.7,.7,1,1.4,1,2.2l-.1,.3c-.1,-.2,-.3,-.3,-.5,-.4c-.2,-.2,-.4,-.2,-.7,-.2c-.4,0,-.7,.1,-1,.4c-.2,.2,-.4,.5,-.4,.9c0,.2,.1,.4,.2,.6c.1,.2,.2,.3,.3,.5c.2,.1,.3,.2,.5,.3c.2,.1,.4,.1,.6,.1c.3,0,.6,-.1,.8,-.2c.2,-.1,.4,-.3,.6,-.5c.2,-.2,.3,-.4,.4,-.7c.1,-.3,.2,-.5,.2,-.8c0,-1.3,-.4,-2.4,-1.2,-3.4c-.9,-1.2,-2,-1.7,-3.4,-1.7v-.9h6.2Zm-7.4,9.1h-.1c-.9,-1.8,-2.4,-3.1,-4.4,-4c.8,-.5,1.6,-1,2.3,-1.4c.7,-.4,1.4,-.8,2.2,-1.1v6.5ZM481.1,134H469l1.3,1.2c.5,.6,.8,1,1.1,1.2c.2,.2,.5,.3,.8,.4c.3,.2,.7,.3,1.1,.4c.8,.3,1.3,.5,1.6,.8c.5,.4,.7,1.1,.7,2.2c-.2,-.2,-.6,-.3,-.9,-.3c-.8,0,-1.4,.2,-1.8,.5c-.5,.4,-.7,1,-.7,1.6c0,.6,.2,1.1,.6,1.5c.4,.4,.8,.5,1.4,.5c.3,0,.7,0,1,-.2c.4,-.1,.8,-.5,1.1,-.9c1.6,.5,2.7,2,3.4,4.4l.4,.5V135.2h2.2L481.1,134Zm-2.1,9.8c-.3,-.4,-.6,-.8,-.9,-1.2c-.4,-.4,-.8,-.8,-1.2,-1.2c0,-.1,0,-.2,0,-.3v-.3c0,-1.1,-.4,-2.1,-1.2,-3.1c-.4,-.7,-1.3,-1.5,-2.5,-2.5H479v8.6Zm14.6,-8.6L492.4,134H480.7l1.2,1.2h8.4v6.6c-1.3,-2.6,-2.8,-4,-4.5,-4c-.8,0,-1.5,.3,-2.1,.9c-.5,.5,-.8,1.2,-.8,2c0,1.5,.7,2.2,2.3,2.2c.5,0,.9,-.2,1.2,-.5c.3,-.4,.4,-.8,.4,-1.3c0,-.3,-.2,-.8,-.8,-1.5c.1,-.1,.2,-.1,.4,-.1c1.2,0,2.4,.8,3.3,2.5c.7,1.4,1,2.9,1,4.2l-.1,1.3l.9,.6V135.2h2.1Zm18,-1.2H499.5l1.2,1.2h4.2c.6,.4,.9,.7,.9,1c-.8,0,-1.4,.3,-2,.8c-.6,.5,-.9,1.1,-.9,1.8c0,.4,.2,.7,.5,.9c.3,.2,.6,.3,1,.3c.5,0,1.1,-.2,1.6,-.7c.4,-.5,.7,-1,.7,-1.6c.1,0,.2,-.1,.3,-.1c.2,0,.3,0,.5,0c.1,0,.3,.1,.5,.2c.2,.1,.4,.2,.5,.4c.2,.2,.3,.4,.4,.7c0,.2,.1,.5,.1,.7c0,.8,-.4,1.5,-1.4,2c-.7,.3,-1.6,.5,-2.5,.4c-1.2,-.1,-2.4,-.4,-3.3,-1l1.4,3c.9,.2,1.7,.5,2.6,.9c.9,.3,1.7,.7,2.5,1.2c.9,.5,1.6,1,2.3,1.5c.7,.6,1.3,1.2,1.9,1.9l-.3,-1.3c-1,-1.1,-2,-2,-3,-2.8c-.9,-.8,-1.7,-1.4,-2.6,-1.9c1.3,-.3,2.2,-.7,2.7,-1.2c.8,-.6,1.2,-1.4,1.2,-2.4c0,-1,-.3,-1.8,-1,-2.5c-.4,-.5,-1.2,-.9,-2.4,-1.3c-.1,-.2,-.2,-.3,-.3,-.5c-.1,-.1,-.2,-.2,-.4,-.4h6.4L511.6,134Zm11.4,1.2L521.8,134H510.7c.6,1,1.7,1.7,3.3,2.2c.7,.2,1.2,.4,1.7,.6c.4,.2,.6,.4,.8,.6c-.5,.4,-1.1,.8,-1.7,1.4c-.7,.5,-1.3,1.1,-1.9,1.7l1.6,2.1c1.4,.1,2.6,.5,3.5,1.2c.6,.5,1.2,1.2,1.8,2.3c.5,1,1,1.6,1.3,1.8V135.2H523Zm-3.1,9.5c-1.1,-1.7,-2.6,-2.9,-4.5,-3.6c.5,-.5,1,-1.1,1.5,-1.6c.4,-.5,.9,-.9,1.4,-1.4c-.6,-.7,-1.1,-1.3,-1.7,-1.8c-.5,-.5,-.9,-.9,-1.3,-1.1h4.6v9.5Zm-4.6,2c.2,.2,.5,.3,.8,.3c.4,0,.7,-.1,.9,-.3c.2,-.3,.4,-.6,.4,-.9c0,-.3,-.2,-.6,-.4,-.9c-.2,-.2,-.5,-.3,-.9,-.3c-.3,0,-.6,.1,-.8,.3c-.3,.3,-.4,.6,-.4,.9c0,.3,.1,.6,.4,.9Zm15.2,-12c-.5,-.6,-1.3,-.9,-2.4,-.9c-.5,0,-1.1,.1,-1.6,.3c-.6,.1,-1,.4,-1.4,.7c-.4,.3,-.8,.6,-1,1.1c-.2,.4,-.4,.8,-.4,1.3v.2q0,.1,.1,.2l.2,.3c.4,0,.6,-.1,.9,-.2c.2,0,.5,-.1,.7,-.2c-.1,-.1,-.1,-.2,-.1,-.3c0,-.1,0,-.2,0,-.3c0,-.3,0,-.5,.1,-.8c.1,-.3,.2,-.5,.4,-.7c.2,-.2,.4,-.3,.6,-.4c.2,-.1,.5,-.2,.7,-.2c.8,0,1.3,.3,1.7,.7c.4,.5,.6,1.2,.6,2.1c0,.3,-.1,.6,-.2,.9c-.2,.2,-.3,.5,-.5,.7c-.3,.3,-.5,.5,-.7,.8c-.3,.2,-.5,.5,-.7,.8c-.2,.2,-.4,.5,-.5,.8c-.1,.3,-.2,.7,-.2,1.1l.1,1.2l.3,.2c.1,0,.3,-.1,.3,-.2c0,0,.1,-.1,.2,-.2l.1,-1c0,-.5,.1,-.9,.3,-1.2c.2,-.4,.5,-.6,.7,-.9c.3,-.2,.6,-.4,.9,-.6c.2,-.2,.5,-.5,.8,-.7c.2,-.3,.4,-.6,.6,-.9c.1,-.3,.2,-.8,.2,-1.3c0,-1,-.2,-1.8,-.8,-2.4Zm-3,10.6c-.4,0,-.7,.2,-1,.5c-.3,.3,-.4,.7,-.4,1.2c0,.4,0,.7,.2,.9c.2,.2,.4,.3,.8,.3c.4,0,.8,-.2,1,-.5c.3,-.3,.4,-.7,.4,-1.2c0,-.8,-.3,-1.2,-1,-1.2Z" class="gp_58"/>
<g clip-path="url(#c0_58)">
<path d="M1877,177.2H32.1v-5.4H768.7c43.1,0,53,-37.9,115.3,-37.9h993Z" class="gq_58"/>
<path d="M1877,183.7H32.1v-9.8H768.7c43.1,0,53,-33.6,115.3,-33.6h993Z" class="gr_58"/>
</g>
<image clip-path="url(#ci_58)" preserveAspectRatio="none" x="125" y="206" width="734" height="181" xlink:href="img/9.png"/>
<path d="M144.6,231.3c0,0,-13,0,-13,13v117c0,0,0,13,13,13H833.1c0,0,13,0,13,-13v-130Z" class="gs_58"/>
<path d="M147.7,294.1l54.1,40.8l54.1,-40.8V230h8.7V211.9H155.8c-6.5,.4,-7.7,3.9,-8.2,8.4Z" class="gt_58"/>
<path d="M274,220.3c-.3,-4.7,-4.2,-8.4,-9,-8.4c-4.8,0,-8.7,3.7,-9,8.4h-.1V230h18.2v-9.7Z" class="g8_58"/>
<path d="M255.9,230.6H846.1" class="gu_58"/>
<path d="M32.1,45.1H9.2m958.3,0h22.9M32.1,1331.3H9.2m958.3,0h22.9M45.1,32.1V9.2m0,1335.1v22.9M954.5,32.1V9.2m0,1335.1v22.9" class="gv_58"/>
<path d="M32.1,45.1H9.2m958.3,0h22.9M32.1,1331.3H9.2m958.3,0h22.9M45.1,32.1V9.2m0,1335.1v22.9M954.5,32.1V9.2m0,1335.1v22.9" class="gw_58"/>
<path d="M27.5,32.1H0m972.1,0h27.5M27.5,1344.3H0m972.1,0h27.5M32.1,27.5V0m0,1348.9v27.5M967.5,27.5V0m0,1348.9v27.5" class="gv_58"/>
<path d="M27.5,32.1H0m972.1,0h27.5M27.5,1344.3H0m972.1,0h27.5M32.1,27.5V0m0,1348.9v27.5M967.5,27.5V0m0,1348.9v27.5" class="gw_58"/>
</svg>