<?xml version="1.0" encoding="UTF-8" standalone="no"?>
<!DOCTYPE svg PUBLIC "-//W3C//DTD SVG 1.1//EN"
"http://www.w3.org/Graphics/SVG/1.1/DTD/svg11.dtd">
<svg viewBox="0 0 999 1376" version="1.1" xmlns="http://www.w3.org/2000/svg" xmlns:xlink="http://www.w3.org/1999/xlink">
<defs>
<clipPath id="c0_25"><path d="M718.8,447.5v-187H935.5v187Z"/></clipPath>
<clipPath id="c1_25"><path d="M724,438.5V265.8H931.3V438.5Z"/></clipPath>
<clipPath id="c2_25"><path d="M723.6,438.2V265.5H931V438.2Z"/></clipPath>
<clipPath id="c3_25"><path d="M79,908.1V606.7H325.4V908.1Z"/></clipPath>
<clipPath id="c4_25"><path d="M87.2,903.3V612.4H319.3V903.3Z"/></clipPath>
<clipPath id="c5_25"><path d="M86.9,903V612.1H319V903Z"/></clipPath>
<clipPath id="c6_25"><path d="M198.2,238.6l-6.5,-2.1L175.3,222.6V165.5h72v73.1Z"/></clipPath>
<clipPath id="c7_25"><path d="M195.1,1061.9l-6.5,-2.1l-16.4,-14v-57h72v73.1Z"/></clipPath>
<clipPath id="c8_25"><path d="M786.5,132.5V120.1H801v12.4Z"/></clipPath>
<clipPath id="c9_25"><path d="M834.7,282.4c-.2,-.1,3.6,-8.2,3.6,-8.2l.7,.5c0,0,-4,7.7,-4.3,7.7Z"/></clipPath>
<clipPath id="ca_25"><path d="M842.2,274.7c0,0,-6.8,-1.2,-7.6,-5.3c-.6,-3.6,1.6,-3.8,2.1,-3.8q.1,0,.1,0l8.4,-12.7l-1.5,-3.1c0,0,-.6,-1.1,.1,-2.1c.1,-.1,.2,-.1,.4,-.1c2.1,0,12.9,5.6,12.9,5.6l.1,.1c-.4,.5,-.8,1.1,-1.4,1.6c-.7,.5,-5.1,1.2,-5.1,1.2l-8.5,18.6Z"/></clipPath>
<clipPath id="cb_25"><path d="M841.8,274.3c.2,-.5,.2,-1.8,0,-2.3v-1.3c-1.5,-.6,-2.9,-1.3,-3.6,-2.6c-1.1,.6,-2.2,1.3,-3.2,1.9c1.6,2.2,3.9,3.6,6.8,4.3Zm0,-3.9c2.2,-4.6,4,-9.5,6.2,-14.1c-.9,-.4,-1.9,-1.3,-2.7,-1.4c-2.3,4.4,-4.6,8.7,-7,12.9c.7,1.3,2.1,2,3.5,2.6Zm-7.3,12.1c1.1,-2.9,2.4,-5.5,3.5,-8.3c-1.9,-1.6,-3.9,-3.1,-4.4,-6.2v-1.5c0,-2.7,2,-3.4,4.6,-3.4q.1,0,.2,0c2,-3.3,4.2,-6.3,6.2,-9.7c-.6,-.8,-1.2,-2.3,-.9,-3.6c.5,1.2,1.6,1.9,2.4,2.9c-.1,.6,-.3,1.1,-.4,1.7c.6,.7,1.3,1.2,2.4,1.4c.5,-.4,.5,-1.2,1.1,-1.5c1,.4,1.9,.8,3.2,.8c.1,.1,.4,.1,.8,.1c.3,0,.7,0,.8,-.1c.1,0,.2,0,.3,0c.2,0,.4,-.1,.6,-.1c.2,-.1,.4,-.2,.6,-.2c.1,0,.2,.1,.3,.1c-1.4,.7,-2.2,1.8,-4.2,1.8c-.1,0,-.2,0,-.4,0c-.8,3.7,-1.8,7.4,-2.6,11.2c.5,1,1.5,1.7,1.3,3.1c-.5,2.8,-3.9,4.4,-7.2,4.4c-1.3,0,-2.6,-.2,-3.7,-.7c-.9,2.1,-2,4.1,-3.2,6c0,-.4,.3,-.4,.2,-.8c1,-1.8,2,-3.5,2.7,-5.6c-1.1,1.7,-1.9,3.7,-2.8,5.5c-.2,.4,-.4,.9,-.6,1.3c-.3,.4,-.3,1.1,-.8,1.4Z"/></clipPath>
<clipPath id="cc_25"><path d="M852.3,254.7c-4.8,0,-13.1,-7.3,-5.6,-8.8H848c.1,0,.3,0,.5,0q.1,0,.2,0c.3,0,.6,0,1,.1c3.1,.7,8.3,3.8,7.6,7.1c-.3,1.1,-1.6,1.5,-3.2,1.6h-1.7q-.1,0,-.1,0Z"/></clipPath>
<clipPath id="cd_25"><path d="M206,629.8q-.1,0,-.1,0c-.2,0,3.6,-8.2,3.6,-8.2l.8,.5c0,0,-4.1,7.7,-4.3,7.7Z"/></clipPath>
<clipPath id="ce_25"><path d="M213.5,622.1c0,0,-6.9,-1.1,-7.6,-5.2c-.7,-3.6,1.5,-3.8,2.1,-3.8c0,0,.1,0,.1,0l8.3,-12.8l-1.5,-3c0,0,-.6,-1.2,.2,-2.1c0,-.1,.1,-.1,.3,-.1c2.1,0,12.9,5.5,12.9,5.5l.1,.2c-.4,.5,-.7,1.1,-1.4,1.6c-.7,.5,-5.1,1.2,-5.1,1.2l-8.4,18.5Z"/></clipPath>
<clipPath id="cf_25"><path d="M213,621.8c.3,-.5,.3,-1.8,0,-2.3v-1.4c-1.5,-.5,-2.8,-1.2,-3.6,-2.5c-1.1,.6,-2.1,1.2,-3.1,1.9c1.5,2.1,3.8,3.5,6.7,4.3Zm0,-3.9c2.2,-4.6,4,-9.5,6.2,-14.1c-.9,-.4,-1.8,-1.3,-2.6,-1.4c-2.3,4.3,-4.6,8.6,-7.1,12.8c.8,1.4,2.1,2,3.5,2.7Zm-7.2,12c1,-2.9,2.4,-5.4,3.5,-8.3c-2,-1.5,-3.9,-3.1,-4.4,-6.1V614c-.1,-2.7,1.9,-3.4,4.5,-3.4c.1,0,.2,0,.3,0c1.9,-3.4,4.2,-6.4,6.1,-9.7c-.6,-.9,-1.2,-2.4,-.9,-3.6c.5,1.2,1.7,1.8,2.4,2.9c-.1,.5,-.3,1.1,-.4,1.7c.6,.7,1.4,1.2,2.4,1.4c.5,-.4,.5,-1.3,1.2,-1.5c.9,.3,1.8,.7,3.1,.7c.1,.1,.5,.2,.8,.2c.4,0,.7,-.1,.8,-.2c.1,.1,.2,.1,.3,.1c.3,0,.5,-.1,.7,-.2c.1,0,.3,-.1,.5,-.1c.1,0,.2,0,.3,.1c-1.3,.7,-2.2,1.8,-4.2,1.8c-.1,0,-.2,0,-.3,0c-.9,3.7,-1.9,7.3,-2.7,11.2c.6,1,1.5,1.6,1.3,3.1c-.5,2.7,-3.9,4.4,-7.2,4.4c-1.3,0,-2.5,-.3,-3.6,-.8c-1,2.1,-2.1,4.2,-3.3,6.1c0,-.4,.3,-.4,.3,-.8c.9,-1.8,1.9,-3.6,2.6,-5.6c-1,1.7,-1.8,3.7,-2.8,5.5c-.2,.4,-.4,.8,-.6,1.2c-.3,.5,-.3,1.2,-.7,1.4Z"/></clipPath>
<clipPath id="cg_25"><path d="M223.5,602.2c-4.8,0,-13.1,-7.4,-5.6,-8.8h1.3c.1,0,.3,0,.5,0q.1,0,.2,0c.3,0,.7,0,1.1,.1c3,.6,8.2,3.8,7.5,7c-.2,1.2,-1.5,1.6,-3.1,1.7h-1.8c0,0,-.1,0,-.1,0Z"/></clipPath>
<style type="text/css"><![CDATA[
.g0_25{
fill: #FEFCF4;
}
.g1_25{
fill: #FFF;
}
.g2_25{
fill: none;
stroke: #6381B7;
stroke-width: 0.763;
}
.g3_25{
fill: none;
stroke: #949698;
stroke-width: 0.305;
stroke-dasharray: 4,4;
}
.g4_25{
fill: none;
stroke: #949698;
stroke-width: 0.305;
}
.g5_25{
fill: #F7C2D9;
}
.g6_25{
fill: #FDF4F3;
}
.g7_25{
fill: #EC008C;
}
.g8_25{
fill: #6D6F71;
}
.g9_25{
fill: none;
stroke: #949698;
stroke-width: 0.305;
stroke-dasharray: 3,3;
}
.ga_25{
fill: #6381B7;
}
.gb_25{
fill: none;
stroke: #6381B7;
stroke-width: 0.381;
stroke-dasharray: 2,1;
}
.gc_25{
fill: none;
stroke: #6381B7;
stroke-width: 0.381;
}
.gd_25{
fill: #FCE8B0;
}
.ge_25{
fill: #25408F;
}
.gf_25{
fill: #A8AAAD;
}
.gg_25{
fill: none;
stroke: #949698;
stroke-width: 0.549;
}
.gh_25{
fill: none;
stroke: #BCBEC0;
stroke-width: 2.566;
}
.gi_25{
fill: #231F20;
}
.gj_25{
fill: #363637;
}
.gk_25{
fill: #5CC4BE;
}
.gl_25{
fill: #F0D73F;
}
.gm_25{
fill: none;
stroke: #FFF;
stroke-width: 1.909;
stroke-miterlimit: 10;
}
.gn_25{
fill: none;
stroke: #000;
stroke-width: 0.381;
stroke-miterlimit: 10;
}
]]></style>
</defs>
<path d="M45.1,1344.3H967.5V32.1H45.1V1344.3Z" class="g0_25"/>
<path d="M171.6,137.3c0,0,-18.3,0,-18.3,18.4V928.1c0,0,0,18.3,18.3,18.3H848.8c0,0,18.3,0,18.3,-18.3V137.3Z" class="g1_25"/>
<path d="M171.6,137.3c0,0,-18.3,0,-18.3,18.4V928.1c0,0,0,18.3,18.3,18.3H848.8c0,0,18.3,0,18.3,-18.3V137.3H171.6Z" class="g2_25"/>
<path d="M166.7,967c0,0,-13,0,-13,13v168.2c0,0,0,13,13,13H854.5c0,0,13,0,13,-13V980c0,0,0,-13,-13,-13Z" class="g1_25"/>
<path d="M166.7,967c0,0,-13,0,-13,13v168.2c0,0,0,13,13,13H854.5c0,0,13,0,13,-13V980c0,0,0,-13,-13,-13H166.7Z" class="g2_25"/>
<path d="M452.2,469.4c19.1,-1,34.3,-7.4,37.4,-15.7m-.7,-7.6c-4.3,-7.8,-19.6,-13.7,-38.2,-14.3m-7.9,.1c-19,.9,-34.2,7.4,-37.3,15.6m.7,7.6c4.3,7.8,19.6,13.7,38.2,14.3" class="g3_25"/>
<path d="M490,452.2c.1,-.5,.1,-1.1,.1,-1.6c0,-.5,0,-1,-.1,-1.6M449.1,431.8c-.5,-.1,-1,-.1,-1.6,-.1c-.5,0,-1,0,-1.5,.1M405.1,449c-.1,.6,-.1,1.1,-.1,1.6c0,.5,0,1.1,.1,1.6M446,469.5c.5,0,1,0,1.5,0c.6,0,1.1,0,1.6,0" class="g4_25"/>
<image clip-path="url(#c0_25)" preserveAspectRatio="none" x="718" y="261" width="217" height="187" xlink:href="img/1.png"/>
<path d="M735.5,265.3l-11.8,160l194.2,16l.9,-14.6L929.6,280.4Z" class="g5_25"/>
<image clip-path="url(#c1_25)" preserveAspectRatio="none" x="723" y="266" width="208" height="173" xlink:href="img/2.png"/>
<image clip-path="url(#c2_25)" preserveAspectRatio="none" x="723" y="266" width="207" height="172" xlink:href="img/3.png"/>
<path d="M729.9,270.8L728.6,429l157.7,2.8l37.3,-13.1L924.7,274Z" class="g6_25"/>
<path d="M887,431.8l36.3,-13l-18.3,-9Z" class="g7_25"/>
<path d="M667,439.9c19.4,-.9,35,-7.4,38.2,-15.6m-.7,-7.7c-4.4,-7.8,-20.1,-13.7,-39.1,-14.3m-8,.1c-19.4,.9,-35,7.4,-38.2,15.6m.7,7.7c4.4,7.8,20.1,13.7,39.1,14.3" class="g3_25"/>
<path d="M705.6,422.7c.1,-.5,.2,-1,.2,-1.5c0,-.6,-.1,-1.1,-.2,-1.6M663.8,402.3c-.5,0,-1.1,0,-1.6,0c-.5,0,-1.1,0,-1.6,0m-41.8,17.3c-.1,.5,-.2,1,-.2,1.6c0,.5,.1,1,.2,1.5M660.6,440c.5,0,1.1,0,1.6,0c.5,0,1.1,0,1.6,0" class="g4_25"/>
<path d="M441.5,430c21.7,-8.1,123,-43.8,216.4,-44.5m7.6,.2c15.8,1.6,20.4,11.5,21.7,16.7" class="g3_25"/>
<path d="M437.3,431.6c0,0,.5,-.2,1.4,-.5M659.4,385.5c.5,0,1,0,1.5,0c.5,0,1,0,1.5,0m25.2,18.4c.1,.9,.2,1.5,.2,1.5" class="g4_25"/>
<path d="M668.7,386.3c0,0,27.5,-38.5,57.2,-40.7" class="g3_25"/>
<path d="M718.8,341.1l.8,8.8l10.8,-5.5Z" class="g8_25"/>
<image clip-path="url(#c3_25)" preserveAspectRatio="none" x="79" y="607" width="246" height="302" xlink:href="img/4.png"/>
<path d="M104.1,611.4l-20,270.1l215.2,20.6L301.7,868L319.4,629.9Z" class="g5_25"/>
<image clip-path="url(#c4_25)" preserveAspectRatio="none" x="87" y="612" width="232" height="292" xlink:href="img/5.png"/>
<image clip-path="url(#c5_25)" preserveAspectRatio="none" x="86" y="612" width="233" height="292" xlink:href="img/6.png"/>
<path d="M94.7,617.3L92.1,892.6l178,4l40.7,-31.4l2.1,-243.4Z" class="g6_25"/>
<path d="M270.5,896.1l40.3,-29.9L291.9,855.5Z" class="g7_25"/>
<path d="M652.3,818.1c30.9,-.6,55.9,-7.3,60.4,-16m-.8,-6.9C705.6,787,680.8,780.8,650.8,780.4m-7.4,.1c-30.9,.6,-55.8,7.3,-60.4,15.9m.8,7c6.3,8.2,31.1,14.3,61.1,14.7" class="g9_25"/>
<path d="M713.3,800.8c.1,-.5,.2,-1,.2,-1.5c0,-.5,-.1,-1,-.2,-1.5m-64,-17.4c-.4,0,-.9,0,-1.4,0c-.5,0,-1,0,-1.5,0m-64,17.4c-.1,.5,-.2,1,-.2,1.5c0,.5,.1,1,.2,1.5m64,17.3c.5,.1,1,.1,1.5,.1c.5,0,1,0,1.4,-.1" class="g4_25"/>
<path d="M630.6,818.3c0,0,-188,43.3,-321.4,-13.9" class="g3_25"/>
<path d="M312.7,801l-3.2,8.2L300.6,801Z" class="g8_25"/>
<path d="M472,1179.3c0,0,-4.3,0,-4.3,4.3v10.8c0,0,0,4.4,4.3,4.4h30.3c0,0,4.4,0,4.4,-4.4v-10.8c0,0,0,-4.3,-4.4,-4.3Z" class="ga_25"/>
<path d="M458.8,1170.4V1208m1.4,.9H866.8m.9,-1.3V1170m-1.3,-.9H459.8" class="gb_25"/>
<path d="M458.8,1208.4v.5h.6m407.7,0h.6v-.5m0,-38.7v-.6h-.6m-407.7,0h-.6v.6" class="gc_25"/>
<path d="M230.9,194.5c0,0,-13,0,-13,13v21.6c0,0,0,13,13,13H832.8c0,0,13,0,13,-13V207.5c0,0,0,-13,-13,-13Z" class="gd_25"/>
<image clip-path="url(#c6_25)" preserveAspectRatio="none" x="174" y="164" width="75" height="76" xlink:href="img/7.png"/>
<path d="M225.7,233.9c0,0,-26.9,11.3,-51.1,-12.7c0,0,15.1,25.3,49.2,23.9c0,0,24.8,.4,20.3,-10.1c0,0,1.2,-4.5,-18.4,-1.1Z" class="gd_25"/>
<path d="M227.7,990.9c0,0,-13,0,-13,13v47.6c0,0,0,13,13,13H836.8c0,0,13,0,13,-13v-47.6c0,0,0,-13,-13,-13Z" class="gd_25"/>
<image clip-path="url(#c7_25)" preserveAspectRatio="none" x="171" y="987" width="75" height="76" xlink:href="img/8.png"/>
<path d="M222.5,1057.2c0,0,-26.8,11.3,-51.1,-12.8c0,0,15.2,25.3,49.3,24c0,0,24.8,.3,20.3,-10.1c0,0,1.2,-4.5,-18.5,-1.1Z" class="gd_25"/>
<path d="M153.3,111.9v39L165,161.2V117Z" class="ge_25"/>
<path d="M153.3,111.9v39H851.1c0,0,16.8,0,16.8,-16.8v-5.3c0,0,0,-16.9,-16.8,-16.9Z" class="ga_25"/>
<path d="M802.6,145.6c8.2,0,14.9,-6.5,14.9,-14.5c0,-8.1,-6.7,-14.5,-14.9,-14.5c-8.2,0,-14.9,6.4,-14.9,14.5c0,8,6.7,14.5,14.9,14.5Z" class="gf_25"/>
<path d="M802.6,145.6c8.2,0,14.9,-6.5,14.9,-14.5c0,-8.1,-6.7,-14.5,-14.9,-14.5c-8.2,0,-14.9,6.4,-14.9,14.5c0,8,6.7,14.5,14.9,14.5Z" class="gg_25"/>
<path d="M802.6,136.4c3,0,5.5,-2.4,5.5,-5.3c0,-3,-2.5,-5.4,-5.5,-5.4c-3,0,-5.5,2.4,-5.5,5.4c0,2.9,2.5,5.3,5.5,5.3Z" class="g1_25"/>
<path d="M802.6,136.4c3,0,5.5,-2.4,5.5,-5.3c0,-3,-2.5,-5.4,-5.5,-5.4c-3,0,-5.5,2.4,-5.5,5.4c0,2.9,2.5,5.3,5.5,5.3Z" class="gh_25"/>
<g clip-path="url(#c8_25)" opacity="0.3">
<path d="M788,130.3c0,0,0,-4.8,3.7,-8.7l7.7,6.8c0,0,-1,.9,-1,2.6Z" class="g1_25"/>
</g>
<path d="M807.2,131c0,0,-3.5,0,-3.5,3.4v8.7c0,0,0,3.5,3.5,3.5h43.5c0,0,3.5,0,3.5,-3.5v-8.7c0,0,0,-3.4,-3.5,-3.4Z" class="gi_25"/>
<path d="M191.2,122c0,-8.3,-6.8,-15,-15.1,-15c-8.3,0,-15,6.7,-15,15c0,8.3,6.7,15.1,15,15.1c.8,0,1.7,-.1,2.4,-.2l4.5,5.2v-6.7c4.9,-2.5,8.2,-7.6,8.2,-13.4Z" class="g1_25"/>
<path d="M183.5,143.3l-5.1,-5.9c-.8,.1,-1.5,.1,-2.3,.1c-8.5,0,-15.5,-6.9,-15.5,-15.5c0,-8.5,7,-15.5,15.5,-15.5c8.6,0,15.5,7,15.5,15.5c0,5.7,-3.1,11,-8.1,13.7Zm-4.8,-6.9l3.9,4.5v-5.8l.2,-.1c4.9,-2.5,7.9,-7.5,7.9,-13c0,-8,-6.5,-14.6,-14.6,-14.6c-8,0,-14.6,6.6,-14.6,14.6c0,8.1,6.6,14.6,14.6,14.6c.8,0,1.6,-.1,2.4,-.2Z" class="gj_25"/>
<path d="M169.1,121.6c.8,0,1.4,.6,1.4,1.4c0,.8,-.6,1.5,-1.4,1.5c-.8,0,-1.4,-.7,-1.4,-1.5c0,-.8,.6,-1.4,1.4,-1.4Z" class="gk_25"/>
<path d="M169.1,124.9c-1,0,-1.9,-.8,-1.9,-1.9c0,-1,.9,-1.9,1.9,-1.9c1,0,1.9,.9,1.9,1.9c0,1.1,-.9,1.9,-1.9,1.9m0,-2.9c-.5,0,-1,.5,-1,1c0,.6,.5,1,1,1c.5,0,1,-.4,1,-1c0,-.5,-.5,-1,-1,-1Z" class="gj_25"/>
<path d="M176.1,121.6c.8,0,1.5,.6,1.5,1.4c0,.8,-.7,1.5,-1.5,1.5c-.8,0,-1.4,-.7,-1.4,-1.5c0,-.8,.6,-1.4,1.4,-1.4Z" class="gk_25"/>
<path d="M176.1,124.9c-1,0,-1.9,-.8,-1.9,-1.9c0,-1,.9,-1.9,1.9,-1.9c1.1,0,1.9,.9,1.9,1.9c0,1.1,-.8,1.9,-1.9,1.9m0,-2.9c-.5,0,-1,.5,-1,1c0,.6,.5,1,1,1c.6,0,1,-.4,1,-1c0,-.5,-.4,-1,-1,-1Z" class="gj_25"/>
<path d="M183.1,121.6c.8,0,1.5,.6,1.5,1.4c0,.8,-.7,1.5,-1.5,1.5c-.8,0,-1.4,-.7,-1.4,-1.5c0,-.8,.6,-1.4,1.4,-1.4Z" class="gk_25"/>
<path d="M183.1,124.9c-1,0,-1.9,-.8,-1.9,-1.9c0,-1,.9,-1.9,1.9,-1.9c1.1,0,1.9,.9,1.9,1.9c0,1.1,-.8,1.9,-1.9,1.9m0,-2.9c-.5,0,-1,.5,-1,1c0,.6,.5,1,1,1c.6,0,1,-.4,1,-1c0,-.5,-.4,-1,-1,-1Z" class="gj_25"/>
<path d="M185.1,136.3c0,-9.8,7.8,-17.7,17.6,-17.7c9.7,0,17.6,7.9,17.6,17.7c0,9.7,-7.9,17.6,-17.6,17.6c-1,0,-1.9,-.1,-2.9,-.3l-5.2,6.1v-7.8c-5.7,-2.9,-9.5,-8.8,-9.5,-15.6Z" class="gl_25"/>
<path d="M194.6,160.2q-.1,0,-.2,0c-.2,-.1,-.3,-.3,-.3,-.5v-7.5c-5.9,-3.2,-9.5,-9.2,-9.5,-15.9c0,-10,8.1,-18.1,18.1,-18.1c9.9,0,18,8.1,18,18.1c0,9.9,-8.1,18,-18,18c-.9,0,-1.8,0,-2.7,-.2l-5.1,5.9c-.1,.1,-.2,.2,-.3,.2m8.1,-41.1c-9.5,0,-17.2,7.7,-17.2,17.2c0,6.4,3.6,12.2,9.3,15.2c.1,.1,.2,.2,.2,.4v6.6l4.5,-5.2c.1,-.1,.3,-.1,.4,-.1c1,.1,1.9,.2,2.8,.2c9.4,0,17.1,-7.7,17.1,-17.1c0,-9.5,-7.7,-17.2,-17.1,-17.2Z" class="gj_25"/>
<path d="M210.9,135.8c.9,0,1.6,.7,1.6,1.6c0,1,-.7,1.7,-1.6,1.7c-1,0,-1.7,-.7,-1.7,-1.7c0,-.9,.7,-1.6,1.7,-1.6Z" class="g1_25"/>
<path d="M210.9,139.6c-1.2,0,-2.2,-1,-2.2,-2.2c0,-1.1,1,-2.1,2.2,-2.1c1.1,0,2.1,1,2.1,2.1c0,1.2,-1,2.2,-2.1,2.2m0,-3.4c-.7,0,-1.3,.6,-1.3,1.2c0,.7,.6,1.3,1.3,1.3c.6,0,1.2,-.6,1.2,-1.3c0,-.6,-.6,-1.2,-1.2,-1.2Z" class="gj_25"/>
<path d="M202.7,135.8c.9,0,1.6,.7,1.6,1.6c0,1,-.7,1.7,-1.6,1.7c-1,0,-1.7,-.7,-1.7,-1.7c0,-.9,.7,-1.6,1.7,-1.6Z" class="g1_25"/>
<path d="M202.7,139.6c-1.2,0,-2.2,-1,-2.2,-2.2c0,-1.1,1,-2.1,2.2,-2.1c1.1,0,2.1,1,2.1,2.1c0,1.2,-1,2.2,-2.1,2.2m0,-3.4c-.7,0,-1.3,.6,-1.3,1.2c0,.7,.6,1.3,1.3,1.3c.6,0,1.2,-.6,1.2,-1.3c0,-.6,-.6,-1.2,-1.2,-1.2Z" class="gj_25"/>
<path d="M194.5,135.8c.9,0,1.6,.7,1.6,1.6c0,1,-.7,1.7,-1.6,1.7c-1,0,-1.7,-.7,-1.7,-1.7c0,-.9,.7,-1.6,1.7,-1.6Z" class="g1_25"/>
<path d="M194.5,139.6c-1.2,0,-2.2,-1,-2.2,-2.2c0,-1.1,1,-2.1,2.2,-2.1c1.1,0,2.1,1,2.1,2.1c0,1.2,-1,2.2,-2.1,2.2m0,-3.4c-.7,0,-1.2,.6,-1.2,1.2c0,.7,.5,1.3,1.2,1.3c.6,0,1.2,-.6,1.2,-1.3c0,-.6,-.6,-1.2,-1.2,-1.2Z" class="gj_25"/>
<image clip-path="url(#c9_25)" x="834" y="274" width="6" height="9" xlink:href="shade/1.png"/>
<image clip-path="url(#ca_25)" x="833" y="247" width="25" height="28" xlink:href="shade/2.png"/>
<image clip-path="url(#cb_25)" x="833" y="249" width="23" height="34" xlink:href="shade/3.png"/>
<image clip-path="url(#cc_25)" x="839" y="245" width="19" height="10" xlink:href="shade/4.png"/>
<image clip-path="url(#cd_25)" x="205" y="621" width="6" height="9" xlink:href="shade/5.png"/>
<image clip-path="url(#ce_25)" x="205" y="595" width="24" height="28" xlink:href="shade/6.png"/>
<image clip-path="url(#cf_25)" x="204" y="597" width="23" height="33" xlink:href="shade/7.png"/>
<image clip-path="url(#cg_25)" x="210" y="593" width="20" height="10" xlink:href="shade/8.png"/>
<path d="M32.1,45.1H9.2m958.3,0h22.9M32.1,1331.3H9.2m958.3,0h22.9M45.1,32.1V9.2m0,1335.1v22.9M954.5,32.1V9.2m0,1335.1v22.9" class="gm_25"/>
<path d="M32.1,45.1H9.2m958.3,0h22.9M32.1,1331.3H9.2m958.3,0h22.9M45.1,32.1V9.2m0,1335.1v22.9M954.5,32.1V9.2m0,1335.1v22.9" class="gn_25"/>
<path d="M27.5,32.1H0m972.1,0h27.5M27.5,1344.3H0m972.1,0h27.5M32.1,27.5V0m0,1348.9v27.5M967.5,27.5V0m0,1348.9v27.5" class="gm_25"/>
<path d="M27.5,32.1H0m972.1,0h27.5M27.5,1344.3H0m972.1,0h27.5M32.1,27.5V0m0,1348.9v27.5M967.5,27.5V0m0,1348.9v27.5" class="gn_25"/>
</svg>