<?xml version="1.0" encoding="UTF-8" standalone="no"?>
<!DOCTYPE svg PUBLIC "-//W3C//DTD SVG 1.1//EN"
"http://www.w3.org/Graphics/SVG/1.1/DTD/svg11.dtd">
<svg viewBox="0 0 999 1376" version="1.1" xmlns="http://www.w3.org/2000/svg" xmlns:xlink="http://www.w3.org/1999/xlink">
<defs>
<clipPath id="c0_10"><path d="M32.1,1344.3V32.1H967.5V1344.3Z"/></clipPath>
<style type="text/css"><![CDATA[
.g0_10{
fill: #F69E93;
}
.g1_10{
fill: #2E6E51;
}
.g2_10{
fill: #F7B736;
}
.g3_10{
fill: #D2D3D5;
}
.g4_10{
fill: #CBE094;
}
.g5_10{
fill: #E6F0CF;
}
.g6_10{
fill: #CBE196;
}
.g7_10{
fill: #C3E6E9;
}
.g8_10{
fill: #D9EFF1;
}
.g9_10{
fill: #C8CFE8;
}
.ga_10{
fill: #DADFF0;
}
.gb_10{
fill: none;
stroke: #FFF;
stroke-width: 1.451;
stroke-miterlimit: 10;
}
.gc_10{
fill: none;
stroke: #FFF;
stroke-width: 1.909;
stroke-miterlimit: 10;
}
.gd_10{
fill: none;
stroke: #000;
stroke-width: 0.381;
stroke-miterlimit: 10;
}
]]></style>
</defs>
<path clip-path="url(#c0_10)" d="M270.8,32.1V139H1760c0,0,26,0,26,-25.9V50.4c0,0,0,-18.3,-18.3,-18.3Z" class="g0_10"/>
<path d="M128.4,32.1c0,0,-8.6,0,-8.6,8.6v89.7c0,0,0,8.6,8.6,8.6H275.8c0,0,8.7,0,8.7,-8.6V40.7c0,0,0,-8.6,-8.7,-8.6Z" class="g1_10"/>
<path d="M125,129.1c10.1,0,18.2,-8.1,18.2,-18.2c0,-10,-8.1,-18.2,-18.2,-18.2c-10.1,0,-18.2,8.2,-18.2,18.2c0,10.1,8.1,18.2,18.2,18.2Z" class="g2_10"/>
<path d="M722.3,174.6H869.5v43.3H722.3V174.6Zm-68.5,0h68.5v43.3H653.8V174.6Zm-147.2,0H653.8v43.3H506.6V174.6Zm-147.3,0H506.6v43.3H359.3V174.6Zm-147.2,0H359.3v43.3H212.1V174.6Zm-34.6,0h34.6v43.3H177.5V174.6Zm-56.3,0h56.3v43.3H121.2V174.6Z" class="g3_10"/>
<path d="M121.2,401.1h56.3V217.9H121.2V401.1Z" class="g4_10"/>
<path d="M722.3,366.2H869.5v34.9H722.3V366.2Zm-68.5,0h68.5v34.9H653.8V366.2Zm-147.2,0H653.8v34.9H506.6V366.2Zm-147.3,0H506.6v34.9H359.3V366.2Zm-181.8,0h34.6v34.9H177.5V366.2Zm544.8,-35H869.5v35H722.3v-35Zm-68.5,0h68.5v35H653.8v-35Zm-147.2,0H653.8v35H506.6v-35Zm-147.3,0H506.6v35H359.3v-35Zm-181.8,0h34.6v35H177.5v-35Zm544.8,-35H869.5v35H722.3v-35Zm-68.5,0h68.5v35H653.8v-35Zm-147.2,0H653.8v35H506.6v-35Zm-147.3,0H506.6v35H359.3v-35Zm-181.8,0h34.6v35H177.5v-35ZM722.3,261.3H869.5v34.9H722.3V261.3Zm-68.5,0h68.5v34.9H653.8V261.3Zm-147.2,0H653.8v34.9H506.6V261.3Zm-147.3,0H506.6v34.9H359.3V261.3Zm-181.8,0h34.6v34.9H177.5V261.3ZM722.3,217.9H869.5v43.4H722.3V217.9Zm-68.5,0h68.5v43.4H653.8V217.9Zm-147.2,0H653.8v43.4H506.6V217.9Zm-147.3,0H506.6v43.4H359.3V217.9Zm-181.8,0h34.6v43.4H177.5V217.9Z" class="g5_10"/>
<path d="M212.1,366.2H359.3v34.9H212.1V366.2Zm0,-35H359.3v35H212.1v-35Zm0,-35H359.3v35H212.1v-35Zm0,-34.9H359.3v34.9H212.1V261.3Zm0,-43.4H359.3v43.4H212.1V217.9Z" class="g6_10"/>
<path d="M212.1,1032.3H359.3V1106H212.1v-73.7ZM121.2,401.1h56.3V1106H121.2V401.1Zm90.9,566.3H359.3v64.9H212.1V967.4Zm0,-74.5H359.3v74.5H212.1V892.9Zm0,-71.4H359.3v71.4H212.1V821.5Zm0,-74.1H359.3v74.1H212.1V747.4Zm0,-70.2H359.3v70.2H212.1V677.2Zm0,-68.2H359.3v68.2H212.1V609Zm0,-69.3H359.3V609H212.1V539.7Zm0,-77.9H359.3v77.9H212.1V461.8Zm0,-60.7H359.3v60.7H212.1V401.1Z" class="g7_10"/>
<path d="M722.3,1032.3H869.5V1106H722.3v-73.7Zm-68.5,0h68.5V1106H653.8v-73.7Zm-147.2,0H653.8V1106H506.6v-73.7Zm-147.3,0H506.6V1106H359.3v-73.7Zm-181.8,0h34.6V1106H177.5v-73.7ZM722.3,967.4H869.5v64.9H722.3V967.4Zm-68.5,0h68.5v64.9H653.8V967.4Zm-147.2,0H653.8v64.9H506.6V967.4Zm-147.3,0H506.6v64.9H359.3V967.4Zm-181.8,0h34.6v64.9H177.5V967.4ZM722.3,892.9H869.5v74.5H722.3V892.9Zm-68.5,0h68.5v74.5H653.8V892.9Zm-147.2,0H653.8v74.5H506.6V892.9Zm-147.3,0H506.6v74.5H359.3V892.9Zm-181.8,0h34.6v74.5H177.5V892.9ZM722.3,821.5H869.5v71.4H722.3V821.5Zm-68.5,0h68.5v71.4H653.8V821.5Zm-147.2,0H653.8v71.4H506.6V821.5Zm-147.3,0H506.6v71.4H359.3V821.5Zm-181.8,0h34.6v71.4H177.5V821.5ZM722.3,747.4H869.5v74.1H722.3V747.4Zm-68.5,0h68.5v74.1H653.8V747.4Zm-147.2,0H653.8v74.1H506.6V747.4Zm-147.3,0H506.6v74.1H359.3V747.4Zm-181.8,0h34.6v74.1H177.5V747.4ZM722.3,677.2H869.5v70.2H722.3V677.2Zm-68.5,0h68.5v70.2H653.8V677.2Zm-147.2,0H653.8v70.2H506.6V677.2Zm-147.3,0H506.6v70.2H359.3V677.2Zm-181.8,0h34.6v70.2H177.5V677.2ZM722.3,609H869.5v68.2H722.3V609Zm-68.5,0h68.5v68.2H653.8V609Zm-147.2,0H653.8v68.2H506.6V609Zm-147.3,0H506.6v68.2H359.3V609Zm-181.8,0h34.6v68.2H177.5V609ZM722.3,539.7H869.5V609H722.3V539.7Zm-68.5,0h68.5V609H653.8V539.7Zm-147.2,0H653.8V609H506.6V539.7Zm-147.3,0H506.6V609H359.3V539.7Zm-181.8,0h34.6V609H177.5V539.7ZM722.3,461.8H869.5v77.9H722.3V461.8Zm-68.5,0h68.5v77.9H653.8V461.8Zm-147.2,0H653.8v77.9H506.6V461.8Zm-147.3,0H506.6v77.9H359.3V461.8Zm-181.8,0h34.6v77.9H177.5V461.8ZM722.3,401.1H869.5v60.7H722.3V401.1Zm-68.5,0h68.5v60.7H653.8V401.1Zm-147.2,0H653.8v60.7H506.6V401.1Zm-147.3,0H506.6v60.7H359.3V401.1Zm-181.8,0h34.6v60.7H177.5V401.1Z" class="g8_10"/>
<path d="M212.1,1170.9H359.3v82.3H212.1v-82.3ZM121.2,1106h56.3v147.2H121.2V1106Zm90.9,0H359.3v64.9H212.1V1106Z" class="g9_10"/>
<path d="M722.3,1170.9H869.5v82.3H722.3v-82.3Zm-215.7,0H653.8v82.3H506.6v-82.3Zm-147.3,0H506.6v82.3H359.3v-82.3Zm-181.8,0h34.6v82.3H177.5v-82.3ZM722.3,1106H869.5v64.9H722.3V1106Zm-215.7,0H653.8v64.9H506.6V1106Zm-147.3,0H506.6v64.9H359.3V1106Zm-181.8,0h34.6v64.9H177.5V1106Z" class="ga_10"/>
<path d="M653.8,1170.9h68.5v82.3H653.8v-82.3Zm0,-64.9h68.5v64.9H653.8V1106Z" class="ga_10"/>
<path d="M120.4,174.6h57.1m-56.3,42.6V175.4m56.3,-.8h34.6m-34.6,42.6V175.4m34.6,-.8H359.3M212.1,217.2V175.4m147.2,-.8H506.6M359.3,217.2V175.4m147.3,-.8H653.8M506.6,217.2V175.4m147.2,-.8h68.5m-68.5,42.6V175.4m68.5,-.8H870.2M722.3,217.2V175.4m147.2,41.8V175.4M120.4,217.9h57.1m-56.3,43.4V218.7m56.3,-.8h34.6m-34.6,42.6V218.7m34.6,-.8H359.3M212.1,260.5V218.7m147.2,-.8H506.6M359.3,260.5V218.7m147.3,-.8H653.8M506.6,260.5V218.7m147.2,-.8h68.5m-68.5,42.6V218.7m68.5,-.8H870.2M722.3,260.5V218.7m147.2,41.8V218.7M121.2,296.2V261.3m55.5,0h35.4m-34.6,34.2V262m34.6,-.7H359.3M212.1,295.5V262m147.2,-.7H506.6M359.3,295.5V262m147.3,-.7H653.8M506.6,295.5V262m147.2,-.7h68.5m-68.5,34.2V262m68.5,-.7H870.2M722.3,295.5V262m147.2,33.5V262M121.2,331.2v-35m55.5,0h35.4m-34.6,34.3V297m34.6,-.8H359.3M212.1,330.5V297m147.2,-.8H506.6M359.3,330.5V297m147.3,-.8H653.8M506.6,330.5V297m147.2,-.8h68.5m-68.5,34.3V297m68.5,-.8H870.2M722.3,330.5V297m147.2,33.5V297M121.2,366.2v-35m55.5,0h35.4m-34.6,34.2V331.9m34.6,-.7H359.3M212.1,365.4V331.9m147.2,-.7H506.6M359.3,365.4V331.9m147.3,-.7H653.8M506.6,365.4V331.9m147.2,-.7h68.5m-68.5,34.2V331.9m68.5,-.7H870.2M722.3,365.4V331.9m147.2,33.5V331.9M121.2,400.4V366.2m55.5,0h35.4m-34.6,34.2V366.9m34.6,-.7H359.3M212.1,400.4V366.9m147.2,-.7H506.6M359.3,400.4V366.9m147.3,-.7H653.8M506.6,400.4V366.9m147.2,-.7h68.5m-68.5,34.2V366.9m68.5,-.7H870.2M722.3,400.4V366.9m147.2,33.5V366.9M120.4,401.1h57.1m-56.3,60.7V401.9m56.3,-.8h34.6M177.5,461V401.9m34.6,-.8H359.3M212.1,461V401.9m147.2,-.8H506.6M359.3,461V401.9m147.3,-.8H653.8M506.6,461V401.9m147.2,-.8h68.5M653.8,461V401.9m68.5,-.8H870.2M722.3,461V401.9M869.5,461V401.9M121.2,539.7V461.8m55.5,0h35.4M177.5,539V462.5m34.6,-.7H359.3M212.1,539V462.5m147.2,-.7H506.6M359.3,539V462.5m147.3,-.7H653.8M506.6,539V462.5m147.2,-.7h68.5M653.8,539V462.5m68.5,-.7H870.2M722.3,539V462.5M869.5,539V462.5M121.2,609V539.7m55.5,0h35.4m-34.6,68.6V540.4m34.6,-.7H359.3M212.1,608.3V540.4m147.2,-.7H506.6M359.3,608.3V540.4m147.3,-.7H653.8M506.6,608.3V540.4m147.2,-.7h68.5m-68.5,68.6V540.4m68.5,-.7H870.2M722.3,608.3V540.4m147.2,67.9V540.4M121.2,677.2V609m55.5,0h35.4m-34.6,67.5V609.7m34.6,-.7H359.3M212.1,676.5V609.7M359.3,609H506.6M359.3,676.5V609.7M506.6,609H653.8M506.6,676.5V609.7M653.8,609h68.5m-68.5,67.5V609.7m68.5,-.7H870.2M722.3,676.5V609.7m147.2,66.8V609.7M121.2,747.4V677.2m55.5,0h35.4m-34.6,69.5V677.9m34.6,-.7H359.3M212.1,746.7V677.9m147.2,-.7H506.6M359.3,746.7V677.9m147.3,-.7H653.8M506.6,746.7V677.9m147.2,-.7h68.5m-68.5,69.5V677.9m68.5,-.7H870.2M722.3,746.7V677.9m147.2,68.8V677.9M121.2,821.5V747.4m55.5,0h35.4m-34.6,73.4V748.1m34.6,-.7H359.3M212.1,820.8V748.1m147.2,-.7H506.6M359.3,820.8V748.1m147.3,-.7H653.8M506.6,820.8V748.1m147.2,-.7h68.5m-68.5,73.4V748.1m68.5,-.7H870.2M722.3,820.8V748.1m147.2,72.7V748.1M121.2,892.9V821.5m55.5,0h35.4m-34.6,70.7V822.3m34.6,-.8H359.3M212.1,892.2V822.3m147.2,-.8H506.6M359.3,892.2V822.3m147.3,-.8H653.8M506.6,892.2V822.3m147.2,-.8h68.5m-68.5,70.7V822.3m68.5,-.8H870.2M722.3,892.2V822.3m147.2,69.9V822.3M121.2,967.4V892.9m55.5,0h35.4m-34.6,73.8V893.6m34.6,-.7H359.3M212.1,966.7V893.6m147.2,-.7H506.6M359.3,966.7V893.6m147.3,-.7H653.8M506.6,966.7V893.6m147.2,-.7h68.5m-68.5,73.8V893.6m68.5,-.7H870.2M722.3,966.7V893.6m147.2,73.1V893.6M121.2,1032.3V967.4m55.5,0h35.4m-34.6,64.2V968.1m34.6,-.7H359.3m-147.2,64.2V968.1m147.2,-.7H506.6m-147.3,64.2V968.1m147.3,-.7H653.8m-147.2,64.2V968.1m147.2,-.7h68.5m-68.5,64.2V968.1m68.5,-.7H870.2m-147.9,64.2V968.1m147.2,63.5V968.1M121.2,1105.2v-72.9m55.5,0h35.4m-34.6,72.9v-72.1m34.6,-.8H359.3m-147.2,72.9v-72.1m147.2,-.8H506.6m-147.3,72.9v-72.1m147.3,-.8H653.8m-147.2,72.9v-72.1m147.2,-.8h68.5m-68.5,72.9v-72.1m68.5,-.8H870.2m-147.9,72.9v-72.1m147.2,72.1v-72.1M120.4,1106h57.1m-56.3,64.9v-64.2m56.3,-.7h34.6m-34.6,64.2v-63.5m34.6,-.7H359.3m-147.2,64.2v-63.5m147.2,-.7H506.6m-147.3,64.2v-63.5m147.3,-.7H653.8m-147.2,64.2v-63.5m147.2,-.7h68.5m-68.5,64.2v-63.5m68.5,-.7H870.2m-147.9,64.2v-63.5m147.2,63.5v-63.5M121.2,1252.5v-81.6m55.5,0h35.4m-34.6,81.6v-80.9m34.6,-.7H359.3m-147.2,81.6v-80.9m147.2,-.7H506.6m-147.3,81.6v-80.9m147.3,-.7H653.8m-147.2,81.6v-80.9m147.2,-.7h68.5m-68.5,81.6v-80.9m68.5,-.7H870.2m-147.9,81.6v-80.9m147.2,80.9v-80.9m-749.1,81.6h57.1m0,0h34.6m0,0H359.3m0,0H506.6m0,0H653.8m0,0h68.5m0,0H870.2" class="gb_10"/>
<path d="M32.1,45.1H9.2m958.3,0h22.9M32.1,1331.3H9.2m958.3,0h22.9M45.1,32.1V9.2m0,1335.1v22.9M954.5,32.1V9.2m0,1335.1v22.9" class="gc_10"/>
<path d="M32.1,45.1H9.2m958.3,0h22.9M32.1,1331.3H9.2m958.3,0h22.9M45.1,32.1V9.2m0,1335.1v22.9M954.5,32.1V9.2m0,1335.1v22.9" class="gd_10"/>
<path d="M27.5,32.1H0m972.1,0h27.5M27.5,1344.3H0m972.1,0h27.5M32.1,27.5V0m0,1348.9v27.5M967.5,27.5V0m0,1348.9v27.5" class="gc_10"/>
<path d="M27.5,32.1H0m972.1,0h27.5M27.5,1344.3H0m972.1,0h27.5M32.1,27.5V0m0,1348.9v27.5M967.5,27.5V0m0,1348.9v27.5" class="gd_10"/>
</svg>