<?xml version="1.0" encoding="UTF-8" standalone="no"?>
<!DOCTYPE svg PUBLIC "-//W3C//DTD SVG 1.1//EN"
"http://www.w3.org/Graphics/SVG/1.1/DTD/svg11.dtd">
<svg viewBox="0 0 999 1376" version="1.1" xmlns="http://www.w3.org/2000/svg" xmlns:xlink="http://www.w3.org/1999/xlink">
<defs>
<clipPath id="c0_176"><path d="M32.1,1344.3V32.1H967.5V1344.3Z"/></clipPath>
<clipPath id="c1_176"><path d="M206.3,550.6V458.9h95.4v91.7Z"/></clipPath>
<clipPath id="c2_176"><path d="M213.3,455.2V370.6h82.8v84.6Z"/></clipPath>
<clipPath id="c3_176"><path d="M252.7,1070.3V1056h15.8v14.3Z"/></clipPath>
<clipPath id="c4_176"><path d="M513,1072.5v-14.8h15.6v14.8Z"/></clipPath>
<clipPath id="c5_176"><path d="M252.7,1096.9v-14.8h15.8v14.8Z"/></clipPath>
<clipPath id="c6_176"><path d="M511.2,1096.9v-14.8h15.7v14.8Z"/></clipPath>
<clipPath id="c7_176"><path d="M176.6,291.4l-6.5,-2.1L153.7,275.4V218.3h72v73.1Z"/></clipPath>
<clipPath id="c8_176"><path d="M176.6,652.6l-6.5,-2.1L153.7,636.6V579.5h72v73.1Z"/></clipPath>
<style type="text/css"><![CDATA[
.g0_176{
fill: #FEFCF4;
}
.g1_176{
fill: #F16865;
}
.g2_176{
fill: #FAC3B8;
}
.g3_176{
fill: #EE314A;
}
.g4_176{
fill: #26292E;
}
.g5_176{
fill: #C5CACC;
}
.g6_176{
fill: #FFF;
}
.g7_176{
fill: #F1EBEB;
}
.g8_176{
fill: #F7943B;
}
.g9_176{
fill: #ACB5B9;
}
.ga_176{
fill: #CFD3D5;
}
.gb_176{
fill: none;
stroke: #6381B7;
stroke-width: 0.763;
}
.gc_176{
fill: #E3E7F2;
}
.gd_176{
fill: none;
stroke: #231F20;
stroke-width: 0.458;
stroke-miterlimit: 10;
}
.ge_176{
fill: #DCDDDE;
}
.gf_176{
fill: #231F20;
}
.gg_176{
fill: #6381B7;
}
.gh_176{
fill: none;
stroke: #6381B7;
stroke-width: 0.381;
stroke-dasharray: 2,1;
}
.gi_176{
fill: none;
stroke: #6381B7;
stroke-width: 0.381;
}
.gj_176{
fill: #FCE8B0;
}
.gk_176{
fill: none;
stroke: #FFF;
stroke-width: 1.909;
stroke-miterlimit: 10;
}
.gl_176{
fill: none;
stroke: #000;
stroke-width: 0.381;
stroke-miterlimit: 10;
}
]]></style>
</defs>
<path d="M32.1,1344.3H954.5V32.1H32.1V1344.3Z" class="g0_176"/>
<g clip-path="url(#c0_176)">
<path d="M954.5,1344.3H1877V32.1H954.5V1344.3Z" class="g0_176"/>
<path d="M1777.4,166.7c0,0,30.3,0,30.3,-30.3v-4.3c0,0,0,-30.3,-30.3,-30.3H173.9c0,0,-30.3,0,-30.3,30.3v4.3c0,0,0,30.3,30.3,30.3Z" class="g1_176"/>
</g>
<path d="M186.5,132.1c0,27.1,-22,49,-49.1,49c-27,0,-49,-21.9,-49,-49c0,-27.1,22,-49.1,49,-49.1c27.1,0,49.1,22,49.1,49.1Z" class="g2_176"/>
<path d="M178.1,104.6c15.2,22.5,9.2,53,-13.2,68.1c-22.5,15.2,-53,9.3,-68.1,-13.2Z" class="g3_176"/>
<path d="M96.8,159.5h81.3V104.7H96.8v54.8Z" class="g4_176"/>
<path d="M137.7,156.8h16.8V136.6H137.7v20.2Z" class="g5_176"/>
<path d="M143.1,156.8h33.7V102.6H143.1v54.2Z" class="g5_176"/>
<path d="M141.6,103v50c.5,-.3,1,-.4,1.5,-.4h33.7v-50H143.1c-.5,0,-1,.2,-1.5,.4Z" class="g6_176"/>
<path d="M137.7,109v47.8c0,0,2.5,-3.1,3.9,-3.8V103c-2.2,1.1,-3.9,4.3,-3.9,6Z" class="g7_176"/>
<path d="M143.5,112.3h29.1v-1.4H143.5v1.4Z" class="g5_176"/>
<path d="M143.5,115.5h29.1v-1.4H143.5v1.4Z" class="g5_176"/>
<path d="M143.5,118.8h29.1v-1.5H143.5v1.5Z" class="g5_176"/>
<path d="M143.5,122h29.1v-1.5H143.5V122Z" class="g5_176"/>
<path d="M143.5,125.2h29.1v-1.5H143.5v1.5Z" class="g5_176"/>
<path d="M143.5,128.4h29.1v-1.5H143.5v1.5Z" class="g5_176"/>
<path d="M143.5,131.6h29.1v-1.5H143.5v1.5Z" class="g5_176"/>
<path d="M143.5,134.8h29.1v-1.5H143.5v1.5Z" class="g5_176"/>
<path d="M143.5,138h29.1v-1.4H143.5V138Z" class="g5_176"/>
<path d="M143.5,141.2h29.1v-1.4H143.5v1.4Z" class="g5_176"/>
<path d="M143.5,144.4h29.1V143H143.5v1.4Z" class="g5_176"/>
<path d="M143.5,147.6h29.1v-1.4H143.5v1.4Z" class="g5_176"/>
<path d="M159.7,150.9l1,-.9l1,.9v-49h-2Z" class="g8_176"/>
<path d="M120.9,156.8h16.8V136.6H120.9v20.2Z" class="g9_176"/>
<path d="M98.6,156.8h33.6V102.6H98.6v54.2Z" class="g9_176"/>
<path d="M98.6,102.6v50h33.6c.6,0,1.1,.1,1.6,.4V103c-.5,-.2,-1,-.4,-1.6,-.4Z" class="g6_176"/>
<path d="M133.8,103v50c1.4,.7,3.9,3.8,3.9,3.8V109c0,-1.7,-1.7,-4.9,-3.9,-6Z" class="ga_176"/>
<path d="M109.7,112.3h14.5v-1.4H109.7v1.4Z" class="g5_176"/>
<path d="M102.8,118.8h29.1v-1.5H102.8v1.5Z" class="g5_176"/>
<path d="M102.8,122h29.1v-1.5H102.8V122Z" class="g5_176"/>
<path d="M102.8,125.2h29.1v-1.5H102.8v1.5Z" class="g5_176"/>
<path d="M102.8,128.4h29.1v-1.5H102.8v1.5Z" class="g5_176"/>
<path d="M102.8,131.6h29.1v-1.5H102.8v1.5Z" class="g5_176"/>
<path d="M102.8,134.8h29.1v-1.5H102.8v1.5Z" class="g5_176"/>
<path d="M102.8,138h29.1v-1.4H102.8V138Z" class="g5_176"/>
<path d="M102.8,141.2h29.1v-1.4H102.8v1.4Z" class="g5_176"/>
<path d="M102.8,144.4h29.1V143H102.8v1.4Z" class="g5_176"/>
<path d="M102.8,147.6h29.1v-1.4H102.8v1.4Z" class="g5_176"/>
<path d="M145.1,304c0,0,-13,0,-13,13V549.2c0,0,0,13,13,13h688c0,0,13,0,13,-13V317c0,0,0,-13,-13,-13Z" class="g6_176"/>
<path d="M145.1,304c0,0,-13,0,-13,13V549.2c0,0,0,13,13,13h688c0,0,13,0,13,-13V317c0,0,0,-13,-13,-13h-688Z" class="gb_176"/>
<image clip-path="url(#c1_176)" preserveAspectRatio="none" x="207" y="456" width="94" height="94" xlink:href="img/1.jpg"/>
<image clip-path="url(#c2_176)" preserveAspectRatio="none" x="205" y="359" width="97" height="97" xlink:href="img/2.jpg"/>
<path d="M145.1,671.7c0,0,-13,0,-13,13v497.2c0,0,0,13,13,13H832.9c0,0,13,0,13,-13V684.7c0,0,0,-13,-13,-13Z" class="g6_176"/>
<path d="M145.1,671.7c0,0,-13,0,-13,13v497.2c0,0,0,13,13,13H832.9c0,0,13,0,13,-13V684.7c0,0,0,-13,-13,-13H145.1Z" class="gb_176"/>
<path d="M198.8,809.5H805.1V731.6H198.8v77.9Z" class="gc_176"/>
<path d="M412.1,782.8h84.2" class="gd_176"/>
<path d="M198.8,925.2H805.1V864.6H198.8v60.6Z" class="gc_176"/>
<path d="M318.9,888.5H403" class="gd_176"/>
<path d="M177.2,1105.6H783.5V1019H177.2v86.6Z" class="gc_176"/>
<path clip-path="url(#c3_176)" d="M165.2,1081.7H759.7v-58.9H165.2v58.9Z" class="ge_176"/>
<path d="M259.1,1068.1c.2,-.1,1.1,-1.4,1.9,-2.6c1.1,-1.5,2.3,-3.2,3.1,-4c1.3,-1.5,1.4,-2.1,1.3,-2.3l-.1,-.1c-.2,-.2,-.6,-.3,-1.2,-.3c-.2,.1,-.4,.1,-.5,.1h-.2c-.4,.2,-2.9,3.6,-4.4,5.7l-.1,.2v-.1l-1.8,-2.5l-.1,-.1c-.1,-.1,-.3,-.2,-.4,-.2l-.2,.1c-.3,.3,-.6,.9,-.7,.9c0,0,-.1,.2,-.1,.4l.2,.3l.1,.1c.2,.1,.3,.3,.5,.5c.5,.5,1.1,1.4,1.8,2.6c.1,.2,.2,.4,.3,.5c.1,.3,.2,.6,.4,.7l.1,.1h.1Z" class="gf_176"/>
<path clip-path="url(#c4_176)" d="M425.5,1083.5H1020v-58.9H425.5v58.9Z" class="ge_176"/>
<path d="M519.5,1069.8c.1,-.1,1,-1.3,1.9,-2.5c1.1,-1.6,2.3,-3.3,3,-4.1c1.3,-1.4,1.4,-2,1.3,-2.3v-.1c-.2,-.2,-.6,-.3,-1.2,-.2c-.2,0,-.4,0,-.6,0h-.2c-.3,.2,-2.8,3.6,-4.3,5.8l-.1,.1h-.1l-1.8,-2.5l-.1,-.1c-.1,-.2,-.2,-.3,-.4,-.3l-.1,.1c-.4,.3,-.7,.9,-.7,.9v.1c0,0,-.1,.1,-.1,.4l.1,.2l.2,.1c.1,.2,.3,.3,.5,.5c.5,.6,1,1.4,1.8,2.7c.1,.1,.1,.3,.2,.5c.1,.2,.3,.5,.4,.7l.2,.1l.1,-.1Z" class="gf_176"/>
<path clip-path="url(#c5_176)" d="M165.2,1107.9H759.7V1049H165.2v58.9Z" class="ge_176"/>
<path d="M259.1,1094.2c.2,-.1,1.1,-1.3,1.9,-2.5c1.1,-1.5,2.3,-3.3,3.1,-4.1c1.3,-1.4,1.4,-2,1.3,-2.3l-.1,-.1c-.2,-.2,-.6,-.3,-1.2,-.2c-.2,0,-.4,0,-.5,0l-.2,.1c-.4,.1,-2.9,3.5,-4.4,5.7l-.1,.1l-1.8,-2.5l-.1,-.1c-.1,-.1,-.3,-.3,-.4,-.3l-.2,.1c-.3,.4,-.6,.9,-.7,1c0,0,-.1,.2,-.1,.4l.2,.2l.1,.2c.2,.1,.3,.2,.5,.5c.5,.5,1.1,1.3,1.8,2.6c.1,.1,.2,.3,.3,.5c.1,.2,.2,.5,.4,.7l.1,.1l.1,-.1Z" class="gf_176"/>
<path clip-path="url(#c6_176)" d="M423.7,1107.9h594.5V1049H423.7v58.9Z" class="ge_176"/>
<path d="M517.6,1094.2c.2,-.1,1.1,-1.3,2,-2.5c1,-1.5,2.3,-3.3,3,-4.1c1.3,-1.4,1.4,-2,1.3,-2.3v-.1c-.2,-.2,-.6,-.3,-1.2,-.2c-.2,0,-.5,0,-.6,0l-.2,.1c-.3,.1,-2.9,3.5,-4.4,5.7l-.1,.1l-1.8,-2.5l-.1,-.1c-.1,-.1,-.2,-.3,-.4,-.3l-.1,.1c-.4,.4,-.7,.9,-.7,1c0,0,-.2,.2,-.1,.4l.1,.2l.1,.2c.2,.1,.4,.2,.6,.5c.5,.5,1,1.3,1.8,2.6c0,.1,.1,.3,.2,.5c.1,.2,.3,.5,.4,.7l.1,.1l.1,-.1Z" class="gf_176"/>
<path d="M608.4,1212.7c0,0,-4.3,0,-4.3,4.3v10.8c0,0,0,4.3,4.3,4.3h30.4c0,0,4.3,0,4.3,-4.3V1217c0,0,0,-4.3,-4.3,-4.3Z" class="gg_176"/>
<path d="M595.3,1205.2V1240m1.3,1H845.1m1,-1.4v-34.8m-1.4,-1H596.2" class="gh_176"/>
<path d="M595.3,1240.4v.6h.5m249.7,0h.6v-.6m0,-36v-.6h-.6m-249.7,0h-.5v.6" class="gi_176"/>
<path d="M209.2,220.5c0,0,-13,0,-13,13v47.6c0,0,0,13,13,13H830.8c0,0,13,0,13,-13V233.5c0,0,0,-13,-13,-13Z" class="gj_176"/>
<image clip-path="url(#c7_176)" preserveAspectRatio="none" x="152" y="217" width="75" height="76" xlink:href="img/3.png"/>
<path d="M204,286.7c0,0,-26.8,11.3,-51.1,-12.7c0,0,15.2,25.3,49.3,23.9c0,0,24.8,.4,20.3,-10.1c0,0,1.2,-4.4,-18.5,-1.1Z" class="gj_176"/>
<path d="M209.2,581.7c0,0,-13,0,-13,12.9v47.7c0,0,0,13,13,13H830.8c0,0,13,0,13,-13V594.6c0,0,0,-12.9,-13,-12.9Z" class="gj_176"/>
<image clip-path="url(#c8_176)" preserveAspectRatio="none" x="152" y="578" width="75" height="76" xlink:href="img/4.png"/>
<path d="M204,647.9c0,0,-26.8,11.3,-51.1,-12.7c0,0,15.2,25.3,49.3,23.9c0,0,24.8,.4,20.3,-10.1c0,0,1.2,-4.5,-18.5,-1.1Z" class="gj_176"/>
<path d="M32.1,45.1H9.2m958.3,0h22.9M32.1,1331.3H9.2m958.3,0h22.9M45.1,32.1V9.2m0,1335.1v22.9M954.5,32.1V9.2m0,1335.1v22.9" class="gk_176"/>
<path d="M32.1,45.1H9.2m958.3,0h22.9M32.1,1331.3H9.2m958.3,0h22.9M45.1,32.1V9.2m0,1335.1v22.9M954.5,32.1V9.2m0,1335.1v22.9" class="gl_176"/>
<path d="M27.5,32.1H0m972.1,0h27.5M27.5,1344.3H0m972.1,0h27.5M32.1,27.5V0m0,1348.9v27.5M967.5,27.5V0m0,1348.9v27.5" class="gk_176"/>
<path d="M27.5,32.1H0m972.1,0h27.5M27.5,1344.3H0m972.1,0h27.5M32.1,27.5V0m0,1348.9v27.5M967.5,27.5V0m0,1348.9v27.5" class="gl_176"/>
</svg>