<?xml version="1.0" encoding="UTF-8" standalone="no"?>
<!DOCTYPE svg PUBLIC "-//W3C//DTD SVG 1.1//EN"
"http://www.w3.org/Graphics/SVG/1.1/DTD/svg11.dtd">
<svg viewBox="0 0 999 1376" version="1.1" xmlns="http://www.w3.org/2000/svg" xmlns:xlink="http://www.w3.org/1999/xlink">
<defs>
<clipPath id="c0_238"><path d="M32.1,1344.3V32.1H967.5V1344.3Z"/></clipPath>
<clipPath id="c1_238"><path d="M179.2,523.6l-6.5,-2.1l-16.4,-14V450.4h72v73.2Z"/></clipPath>
<clipPath id="c2_238"><path d="M177,1132l-6.5,-2.1L154.1,1116v-57.1h72V1132Z"/></clipPath>
<clipPath id="c3_238"><path d="M764.8,413.2V400.8h14.5v12.4Z"/></clipPath>
<clipPath id="c4_238"><path d="M68.8,907V677.1H259.7V907Z"/></clipPath>
<clipPath id="c5_238"><path d="M68.1,909.1V677.5H259.5V909.1Z"/></clipPath>
<clipPath id="c6_238"><path d="M67.8,908.8V677.2H259.2V908.8Z"/></clipPath>
<clipPath id="c7_238"><path d="M158.3,691.6c-.2,0,3.6,-8.2,3.6,-8.2l.7,.5c0,0,-4,7.7,-4.3,7.7Z"/></clipPath>
<clipPath id="c8_238"><path d="M165.8,683.9c0,0,-6.8,-1.1,-7.6,-5.2c-.6,-3.6,1.6,-3.8,2.1,-3.8q.1,0,.1,0l8.4,-12.8l-1.5,-3c0,0,-.6,-1.2,.1,-2.1c.1,-.1,.2,-.1,.4,-.1c2,0,12.9,5.5,12.9,5.5l.1,.2c-.4,.5,-.8,1.1,-1.4,1.6c-.7,.5,-5.1,1.2,-5.1,1.2l-8.5,18.5Z"/></clipPath>
<clipPath id="c9_238"><path d="M165.4,683.6c.2,-.5,.2,-1.8,0,-2.3v-1.4c-1.5,-.5,-2.9,-1.2,-3.6,-2.5c-1.1,.6,-2.2,1.2,-3.2,1.9c1.6,2.1,3.8,3.5,6.8,4.3Zm0,-3.9c2.2,-4.6,4,-9.5,6.2,-14.1c-.9,-.4,-1.9,-1.3,-2.7,-1.4c-2.3,4.3,-4.6,8.6,-7,12.8c.7,1.4,2.1,2,3.5,2.7Zm-7.3,12c1.1,-2.9,2.4,-5.4,3.5,-8.3c-1.9,-1.5,-3.9,-3.1,-4.4,-6.1v-1.5c0,-2.7,2,-3.4,4.6,-3.4c.1,0,.2,0,.2,0c2,-3.4,4.2,-6.4,6.2,-9.7c-.6,-.9,-1.2,-2.4,-.9,-3.6c.5,1.2,1.6,1.9,2.4,2.9c-.1,.5,-.3,1.1,-.4,1.7c.6,.7,1.3,1.2,2.4,1.4c.5,-.4,.5,-1.3,1.1,-1.5c1,.3,1.9,.7,3.2,.7c.1,.1,.4,.2,.8,.2c.3,0,.7,-.1,.8,-.2c.1,.1,.2,.1,.3,.1c.2,0,.4,-.1,.6,-.2c.2,0,.4,-.1,.5,-.1c.2,0,.3,0,.4,.1c-1.4,.7,-2.2,1.8,-4.2,1.8c-.1,0,-.2,0,-.4,0c-.8,3.7,-1.8,7.3,-2.6,11.2c.5,1,1.5,1.6,1.3,3.1c-.5,2.7,-3.9,4.4,-7.2,4.4c-1.3,0,-2.6,-.2,-3.7,-.8c-1,2.1,-2,4.2,-3.2,6.1c-.1,-.4,.3,-.4,.2,-.8c1,-1.8,2,-3.6,2.7,-5.6c-1.1,1.7,-1.9,3.7,-2.8,5.5c-.2,.4,-.4,.8,-.6,1.2c-.3,.5,-.3,1.2,-.8,1.4Z"/></clipPath>
<clipPath id="ca_238"><path d="M175.9,664c-4.8,0,-13.1,-7.3,-5.6,-8.8h1.3c.1,0,.3,0,.5,0c0,0,.1,0,.2,0c0,0,.1,0,.1,0c.3,0,.6,0,.9,.1c3.1,.6,8.3,3.8,7.6,7c-.3,1.2,-1.6,1.6,-3.2,1.7H176q-.1,0,-.1,0Z"/></clipPath>
<clipPath id="cb_238"><path d="M717.1,961.7V696.6H909.6V961.7Z"/></clipPath>
<clipPath id="cc_238"><path d="M712.4,965V694.4h203V965Z"/></clipPath>
<clipPath id="cd_238"><path d="M712.1,964.7V694.1h203V964.7Z"/></clipPath>
<clipPath id="ce_238"><path d="M821.5,707.3c-.3,0,3.5,-8.2,3.5,-8.2l.8,.5c0,0,-4,7.7,-4.3,7.7Z"/></clipPath>
<clipPath id="cf_238"><path d="M829,699.6c0,0,-6.9,-1.1,-7.6,-5.2c-.6,-3.6,1.5,-3.8,2.1,-3.8q.1,0,.1,0l8.3,-12.8l-1.4,-3c0,0,-.6,-1.2,.1,-2.1c0,-.1,.2,-.1,.3,-.1c2.1,0,13,5.5,13,5.5v.2c-.3,.5,-.7,1.1,-1.4,1.6c-.6,.5,-5.1,1.2,-5.1,1.2L829,699.6Z"/></clipPath>
<clipPath id="cg_238"><path d="M828.6,699.3c.2,-.5,.2,-1.8,0,-2.3v-1.4c-1.6,-.5,-2.9,-1.2,-3.7,-2.5c-1.1,.6,-2.1,1.2,-3.1,1.9c1.5,2.1,3.8,3.5,6.8,4.3Zm0,-3.9c2.2,-4.6,4,-9.5,6.1,-14.1c-.8,-.4,-1.8,-1.3,-2.6,-1.4c-2.3,4.3,-4.6,8.6,-7,12.8c.7,1.4,2.1,2,3.5,2.7Zm-7.3,12c1,-2.9,2.4,-5.4,3.5,-8.3c-2,-1.5,-3.9,-3.1,-4.4,-6.1v-1.5c0,-2.7,1.9,-3.4,4.6,-3.4c0,0,.1,0,.2,0c1.9,-3.4,4.2,-6.4,6.1,-9.7c-.5,-.9,-1.1,-2.4,-.8,-3.6c.5,1.2,1.6,1.9,2.3,2.8c-.1,.6,-.2,1.2,-.3,1.8c.6,.7,1.3,1.2,2.4,1.4c.4,-.4,.5,-1.3,1.1,-1.5c.9,.3,1.8,.7,3.1,.7c.2,.1,.5,.2,.8,.2c.4,0,.7,-.1,.9,-.2c.1,.1,.2,.1,.3,.1c.2,0,.4,-.1,.6,-.2c.2,0,.3,-.1,.5,-.1c.1,0,.2,0,.3,.1c-1.3,.7,-2.2,1.8,-4.1,1.8c-.2,0,-.3,0,-.4,0c-.9,3.7,-1.9,7.3,-2.6,11.2c.5,1,1.5,1.6,1.2,3.1c-.4,2.7,-3.8,4.4,-7.2,4.4c-1.3,0,-2.5,-.2,-3.6,-.8c-1,2.1,-2.1,4.2,-3.3,6.1c0,-.4,.3,-.4,.3,-.8c.9,-1.8,1.9,-3.6,2.6,-5.6c-1,1.7,-1.8,3.7,-2.7,5.5c-.2,.4,-.5,.8,-.7,1.3c-.3,.4,-.3,1.1,-.7,1.3Z"/></clipPath>
<clipPath id="ch_238"><path d="M839,679.7c-4.8,0,-13.1,-7.3,-5.5,-8.8h1.2c.2,0,.4,0,.6,0q.1,0,.1,0q.1,0,.2,0c.3,0,.6,0,.9,.1c3.1,.6,8.2,3.8,7.5,7c-.2,1.2,-1.5,1.6,-3.1,1.7h-1.8c0,0,-.1,0,-.1,0Z"/></clipPath>
<clipPath id="ci_238"><path d="M125.5,386.7V205.8H858.6V386.7Z"/></clipPath>
<style type="text/css"><![CDATA[
.g0_238{
fill: #FEFCF4;
}
.g1_238{
fill: #FFF;
}
.g2_238{
fill: none;
stroke: #6381B7;
stroke-width: 0.763;
}
.g3_238{
fill: #6381B7;
}
.g4_238{
fill: none;
stroke: #6381B7;
stroke-width: 0.381;
stroke-dasharray: 2,1;
}
.g5_238{
fill: none;
stroke: #6381B7;
stroke-width: 0.381;
}
.g6_238{
fill: #FCE8B0;
}
.g7_238{
fill: #25408F;
}
.g8_238{
fill: #A8AAAD;
}
.g9_238{
fill: none;
stroke: #949698;
stroke-width: 0.549;
}
.ga_238{
fill: none;
stroke: #BCBEC0;
stroke-width: 2.566;
}
.gb_238{
fill: #231F20;
}
.gc_238{
fill: #363637;
}
.gd_238{
fill: #5CC4BE;
}
.ge_238{
fill: #EAD646;
}
.gf_238{
fill: #F7C2D9;
}
.gg_238{
fill: none;
stroke: #818385;
stroke-width: 0.305;
stroke-dasharray: 4,4;
}
.gh_238{
fill: none;
stroke: #818385;
stroke-width: 0.305;
}
.gi_238{
fill: #FDF4F3;
}
.gj_238{
fill: #EC008C;
}
.gk_238{
fill: none;
stroke: #949698;
stroke-width: 0.305;
stroke-dasharray: 4,4;
}
.gl_238{
fill: none;
stroke: #949698;
stroke-width: 0.305;
stroke-dasharray: 3,3;
}
.gm_238{
fill: none;
stroke: #949698;
stroke-width: 0.305;
}
.gn_238{
fill: #6D6F71;
}
.go_238{
fill: #2E6E51;
}
.gp_238{
fill: none;
stroke: #FFF;
stroke-width: 0.152;
stroke-miterlimit: 1;
}
.gq_238{
fill: #BCBEC0;
}
.gr_238{
fill: #EE314A;
}
.gs_238{
fill: #CEEDFB;
}
.gt_238{
fill: #27639D;
}
.gu_238{
fill: none;
stroke: #C3E7F1;
stroke-width: 1.527;
}
.gv_238{
fill: none;
stroke: #FFF;
stroke-width: 1.909;
stroke-miterlimit: 10;
}
.gw_238{
fill: none;
stroke: #000;
stroke-width: 0.381;
stroke-miterlimit: 10;
}
]]></style>
</defs>
<path d="M32.1,1344.3H954.5V32.1H32.1V1344.3Z" class="g0_238"/>
<path clip-path="url(#c0_238)" d="M954.5,1344.3H1877V32.1H954.5V1344.3Z" class="g0_238"/>
<path d="M150.4,418.7c0,0,-18.3,0,-18.3,18.4v579.7c0,0,0,18.3,18.3,18.3H827.5c0,0,18.4,0,18.4,-18.3V418.7Z" class="g1_238"/>
<path d="M150.4,418.7c0,0,-18.3,0,-18.3,18.4v579.7c0,0,0,18.3,18.3,18.3H827.5c0,0,18.4,0,18.4,-18.3V418.7H150.4Z" class="g2_238"/>
<path d="M145.1,1051.5c0,0,-13,0,-13,13v127.6c0,0,0,13,13,13H832.9c0,0,13,0,13,-13V1064.5c0,0,0,-13,-13,-13Z" class="g1_238"/>
<path d="M145.1,1051.5c0,0,-13,0,-13,13v127.6c0,0,0,13,13,13H832.9c0,0,13,0,13,-13V1064.5c0,0,0,-13,-13,-13H145.1Z" class="g2_238"/>
<path d="M354.4,1220.5c0,0,-4.3,0,-4.3,4.3v10.8c0,0,0,4.4,4.3,4.4h30.3c0,0,4.4,0,4.4,-4.4v-10.8c0,0,0,-4.3,-4.4,-4.3Z" class="g3_238"/>
<path d="M341.3,1213v34.8m1.3,1H845.1m1,-1.3v-34.9m-1.4,-1H342.2" class="g4_238"/>
<path d="M341.3,1248.2v.6h.5m503.7,0h.6v-.6m0,-36v-.6h-.6m-503.7,0h-.5v.6" class="g5_238"/>
<path d="M211.8,439.6c0,0,-13,0,-13,13v60.6c0,0,0,13,13,13h602c0,0,13,0,13,-13V452.6c0,0,0,-13,-13,-13Z" class="g6_238"/>
<image clip-path="url(#c1_238)" preserveAspectRatio="none" x="155" y="449" width="75" height="76" xlink:href="img/1.png"/>
<path d="M206.6,518.9c0,0,-26.8,11.3,-51.1,-12.8c0,0,15.2,25.3,49.3,24c0,0,24.7,.3,20.2,-10.2c0,0,1.3,-4.4,-18.4,-1Z" class="g6_238"/>
<path d="M209.6,1087c0,0,-12.9,0,-12.9,13v21.7c0,0,0,13,12.9,13h602c0,0,13,0,13,-13V1100c0,0,0,-13,-13,-13Z" class="g6_238"/>
<image clip-path="url(#c2_238)" preserveAspectRatio="none" x="153" y="1057" width="75" height="77" xlink:href="img/2.png"/>
<path d="M204.4,1127.3c0,0,-26.8,11.3,-51.1,-12.7c0,0,15.2,25.3,49.3,23.9c0,0,24.8,.4,20.3,-10.1c0,0,1.2,-4.5,-18.5,-1.1Z" class="g6_238"/>
<path d="M131.7,392.6v39l11.7,10.3V397.7Z" class="g7_238"/>
<path d="M131.7,392.6v39H829.5c0,0,16.8,0,16.8,-16.8v-5.4c0,0,0,-16.8,-16.8,-16.8Z" class="g3_238"/>
<path d="M781,426.3c8.2,0,14.8,-6.5,14.8,-14.6c0,-8,-6.6,-14.5,-14.8,-14.5c-8.3,0,-14.9,6.5,-14.9,14.5c0,8.1,6.6,14.6,14.9,14.6Z" class="g8_238"/>
<path d="M781,426.3c8.2,0,14.8,-6.5,14.8,-14.6c0,-8,-6.6,-14.5,-14.8,-14.5c-8.3,0,-14.9,6.5,-14.9,14.5c0,8.1,6.6,14.6,14.9,14.6Z" class="g9_238"/>
<path d="M781,417.1c3,0,5.4,-2.4,5.4,-5.4c0,-2.9,-2.4,-5.3,-5.4,-5.3c-3.1,0,-5.5,2.4,-5.5,5.3c0,3,2.4,5.4,5.5,5.4Z" class="g1_238"/>
<path d="M781,417.1c3,0,5.4,-2.4,5.4,-5.4c0,-2.9,-2.4,-5.3,-5.4,-5.3c-3.1,0,-5.5,2.4,-5.5,5.3c0,3,2.4,5.4,5.5,5.4Z" class="ga_238"/>
<g clip-path="url(#c3_238)" opacity="0.3">
<path d="M766.4,411c0,0,-.1,-4.9,3.6,-8.7l7.8,6.8c0,0,-1,.9,-1.1,2.6Z" class="g1_238"/>
</g>
<path d="M785.6,411.6c0,0,-3.5,0,-3.5,3.5v8.7c0,0,0,3.5,3.5,3.5H829c0,0,3.5,0,3.5,-3.5v-8.7c0,0,0,-3.5,-3.5,-3.5Z" class="gb_238"/>
<path d="M169.5,402.7c0,-8.3,-6.7,-15,-15,-15c-8.4,0,-15.1,6.7,-15.1,15c0,8.3,6.8,15.1,15.1,15.1c.8,0,1.6,-.1,2.4,-.2l4.5,5.2v-6.7c4.8,-2.5,8.1,-7.6,8.1,-13.4Z" class="g1_238"/>
<path d="M161.8,424l-5.1,-5.9c-.7,.1,-1.5,.1,-2.2,.1c-8.6,0,-15.6,-6.9,-15.6,-15.5c0,-8.5,7,-15.5,15.6,-15.5c8.5,0,15.5,7,15.5,15.5c0,5.7,-3.1,11,-8.2,13.7Zm-4.7,-6.9l3.8,4.5v-5.8l.3,-.1c4.8,-2.5,7.9,-7.5,7.9,-13c0,-8,-6.6,-14.6,-14.6,-14.6c-8.1,0,-14.6,6.6,-14.6,14.6c0,8.1,6.5,14.6,14.6,14.6c.7,0,1.5,-.1,2.3,-.2Z" class="gc_238"/>
<path d="M147.4,402.3c.8,0,1.5,.6,1.5,1.4c0,.8,-.7,1.5,-1.5,1.5c-.7,0,-1.4,-.7,-1.4,-1.5c0,-.8,.7,-1.4,1.4,-1.4Z" class="gd_238"/>
<path d="M147.4,405.6c-1,0,-1.8,-.8,-1.8,-1.9c0,-1,.8,-1.9,1.8,-1.9c1.1,0,1.9,.9,1.9,1.9c0,1.1,-.8,1.9,-1.9,1.9m0,-2.9c-.5,0,-.9,.5,-.9,1c0,.6,.4,1,.9,1c.6,0,1,-.4,1,-1c0,-.5,-.4,-1,-1,-1Z" class="gc_238"/>
<path d="M154.5,402.3c.8,0,1.4,.6,1.4,1.4c0,.8,-.6,1.5,-1.4,1.5c-.8,0,-1.5,-.7,-1.5,-1.5c0,-.8,.7,-1.4,1.5,-1.4Z" class="gd_238"/>
<path d="M154.5,405.6c-1.1,0,-1.9,-.8,-1.9,-1.9c0,-1,.8,-1.9,1.9,-1.9c1,0,1.9,.9,1.9,1.9c0,1.1,-.9,1.9,-1.9,1.9m0,-2.9c-.6,0,-1,.5,-1,1c0,.6,.4,1,1,1c.5,0,.9,-.4,.9,-1c0,-.5,-.4,-1,-.9,-1Z" class="gc_238"/>
<path d="M161.5,402.3c.8,0,1.4,.6,1.4,1.4c0,.8,-.6,1.5,-1.4,1.5c-.8,0,-1.5,-.7,-1.5,-1.5c0,-.8,.7,-1.4,1.5,-1.4Z" class="gd_238"/>
<path d="M161.5,405.6c-1.1,0,-1.9,-.8,-1.9,-1.9c0,-1,.8,-1.9,1.9,-1.9c1,0,1.9,.9,1.9,1.9c0,1.1,-.9,1.9,-1.9,1.9m0,-2.9c-.6,0,-1,.5,-1,1c0,.6,.4,1,1,1c.5,0,1,-.4,1,-1c0,-.5,-.5,-1,-1,-1Z" class="gc_238"/>
<path d="M163.4,417c0,-9.8,7.9,-17.7,17.6,-17.7c9.7,0,17.6,7.9,17.6,17.7c0,9.7,-7.9,17.6,-17.6,17.6c-.9,0,-1.9,-.1,-2.8,-.3l-5.3,6.1v-7.8c-5.6,-2.9,-9.5,-8.8,-9.5,-15.6Z" class="ge_238"/>
<path d="M172.9,440.9c0,0,-.1,0,-.1,0c-.2,-.1,-.3,-.3,-.3,-.5v-7.5c-5.9,-3.2,-9.6,-9.3,-9.6,-15.9c0,-10,8.2,-18.1,18.1,-18.1c10,0,18.1,8.1,18.1,18.1c0,9.9,-8.1,18,-18.1,18c-.8,0,-1.7,0,-2.6,-.2l-5.1,5.9c-.1,.1,-.2,.2,-.4,.2M181,399.8c-9.4,0,-17.1,7.7,-17.1,17.2c0,6.4,3.5,12.2,9.2,15.2c.2,.1,.3,.2,.3,.4v6.6l4.4,-5.2c.1,-.1,.3,-.1,.5,-.1c.9,.1,1.8,.2,2.7,.2c9.5,0,17.2,-7.7,17.2,-17.1c0,-9.5,-7.7,-17.2,-17.2,-17.2Z" class="gc_238"/>
<path d="M189.2,416.5c.9,0,1.7,.7,1.7,1.6c0,1,-.8,1.7,-1.7,1.7c-.9,0,-1.7,-.7,-1.7,-1.7c0,-.9,.8,-1.6,1.7,-1.6Z" class="g1_238"/>
<path d="M189.2,420.3c-1.2,0,-2.1,-1,-2.1,-2.2c0,-1.1,.9,-2.1,2.1,-2.1c1.2,0,2.1,1,2.1,2.1c0,1.2,-.9,2.2,-2.1,2.2m0,-3.4c-.7,0,-1.2,.6,-1.2,1.2c0,.7,.5,1.2,1.2,1.2c.7,0,1.2,-.5,1.2,-1.2c0,-.6,-.5,-1.2,-1.2,-1.2Z" class="gc_238"/>
<path d="M181,416.5c.9,0,1.7,.7,1.7,1.6c0,1,-.8,1.7,-1.7,1.7c-.9,0,-1.7,-.7,-1.7,-1.7c0,-.9,.8,-1.6,1.7,-1.6Z" class="g1_238"/>
<path d="M181,420.3c-1.2,0,-2.1,-1,-2.1,-2.2c0,-1.1,.9,-2.1,2.1,-2.1c1.2,0,2.1,1,2.1,2.1c0,1.2,-.9,2.2,-2.1,2.2m0,-3.4c-.7,0,-1.2,.6,-1.2,1.2c0,.7,.5,1.2,1.2,1.2c.7,0,1.2,-.5,1.2,-1.2c0,-.6,-.5,-1.2,-1.2,-1.2Z" class="gc_238"/>
<path d="M172.8,416.5c.9,0,1.7,.7,1.7,1.6c0,1,-.8,1.7,-1.7,1.7c-.9,0,-1.7,-.7,-1.7,-1.7c0,-.9,.8,-1.6,1.7,-1.6Z" class="g1_238"/>
<path d="M172.8,420.3c-1.2,0,-2.1,-1,-2.1,-2.2c0,-1.1,.9,-2.1,2.1,-2.1c1.2,0,2.1,1,2.1,2.1c0,1.2,-.9,2.2,-2.1,2.2m0,-3.4c-.7,0,-1.2,.6,-1.2,1.2c0,.7,.5,1.2,1.2,1.2c.7,0,1.2,-.5,1.2,-1.2c0,-.6,-.5,-1.2,-1.2,-1.2Z" class="gc_238"/>
<image clip-path="url(#c4_238)" preserveAspectRatio="none" x="69" y="677" width="190" height="230" xlink:href="img/3.png"/>
<path d="M79.8,682.2l-5.7,215L248.9,901l4.5,-214.6Z" class="gf_238"/>
<path d="M410.1,999.9c22.7,-.7,41,-6.4,45,-13.8m-.9,-7.2C448.8,972,430.6,966.8,408.5,966.4m-7.8,0c-22.7,.7,-41.1,6.4,-45,13.8m.8,7.2c5.5,6.9,23.7,12.1,45.8,12.5" class="gg_238"/>
<path d="M455.7,984.7c.1,-.5,.2,-1,.2,-1.5c0,-.6,-.1,-1.1,-.2,-1.6M407,966.4c-.6,0,-1.1,0,-1.6,0c-.5,0,-1.1,0,-1.6,0m-48.7,15.2c-.2,.5,-.2,1,-.2,1.6c0,.5,0,1,.2,1.5m48.7,15.2c.5,0,1.1,0,1.6,0c.5,0,1,0,1.6,0" class="gh_238"/>
<image clip-path="url(#c5_238)" preserveAspectRatio="none" x="68" y="678" width="191" height="232" xlink:href="img/4.png"/>
<image clip-path="url(#c6_238)" preserveAspectRatio="none" x="67" y="677" width="192" height="232" xlink:href="img/5.png"/>
<path d="M72.5,688.4l7.8,214.2l140.4,-5.3l32.2,-25.9L246,681.9Z" class="gi_238"/>
<path d="M221.8,897.7l32,-26.3L236.7,862Z" class="gj_238"/>
<path d="M372.2,969.2C356.7,971,304.8,974.8,267,949.3m-5.5,-5.7c0,-1.5,2.1,-2.1,4.1,-1.4" class="gk_238"/>
<path d="M268.2,948.1c-2,1.6,-7.2,1.7,-16,-1.1m-6.9,-2.7C230.2,937.1,212.5,920,201.8,898.7" class="gl_238"/>
<path d="M376.8,968.5c0,0,-.5,.1,-1.5,.3M265.7,948.4c-.4,-.3,-.8,-.6,-1.2,-.9c-.5,-.4,-1,-.7,-1.4,-1.1m4,-3.5c.4,.4,.8,.8,1.2,1.2c.3,.5,.5,.9,.7,1.4m-18.2,1c-.5,-.2,-.9,-.3,-1.4,-.5c-.5,-.2,-.9,-.4,-1.4,-.5M201.2,897.4c-.2,-.4,-.5,-.9,-.7,-1.3" class="gm_238"/>
<path d="M196.9,900.5l7,-5.2l-10.3,-6.4Z" class="gn_238"/>
<image clip-path="url(#c7_238)" x="158" y="683" width="5" height="9" xlink:href="shade/1.png"/>
<image clip-path="url(#c8_238)" x="157" y="656" width="24" height="28" xlink:href="shade/2.png"/>
<image clip-path="url(#c9_238)" x="157" y="659" width="23" height="33" xlink:href="shade/3.png"/>
<image clip-path="url(#ca_238)" x="162" y="655" width="20" height="10" xlink:href="shade/4.png"/>
<image clip-path="url(#cb_238)" preserveAspectRatio="none" x="717" y="697" width="192" height="265" xlink:href="img/6.png"/>
<path d="M722.7,703.8l-.3,251.6L903,953.7l-.4,-251.8Z" class="gf_238"/>
<image clip-path="url(#cc_238)" preserveAspectRatio="none" x="712" y="695" width="203" height="270" xlink:href="img/7.png"/>
<image clip-path="url(#cd_238)" preserveAspectRatio="none" x="712" y="694" width="202" height="271" xlink:href="img/8.png"/>
<path d="M729.5,698.8L717.2,950.9l146.6,7.8l34.6,-23.2L909.1,708.7Z" class="gi_238"/>
<path d="M862.8,959.1l35.9,-23.2l-15.6,-8.2Z" class="gj_238"/>
<path d="M549.1,959.9C554.9,939.6,582.8,855,640.7,854.7m7,.7c4.4,1.4,3,4.8,1.1,7.5" class="gl_238"/>
<path d="M642.4,865c-5,-2.2,-9.7,-9.1,6.5,-17.4m7.3,-3.2c19.3,-7.9,30,-5.7,60.3,-3.2" class="gk_238"/>
<path d="M547.9,964.2c0,0,.1,-.5,.4,-1.4m94,-108.1c.4,0,1,.1,1.5,.1c.4,0,.9,0,1.3,.1M648,864c-.3,.4,-.6,.8,-.9,1.1c-.3,.3,-.8,.5,-1.5,.6m4.8,-18.8c.5,-.2,1,-.5,1.5,-.7c.5,-.2,1,-.4,1.4,-.6m64.8,-4.3c.5,.1,1,.1,1.5,.2" class="gm_238"/>
<path d="M716.8,837.3l-.8,8.8l11.7,-3.4Z" class="gn_238"/>
<path d="M562.6,997.7c28.7,-.5,52,-6,56.9,-13.2m-1,-6.9c-6.6,-6.7,-29.6,-11.7,-57.4,-12.1m-7.6,0c-28.7,.6,-52,6.1,-56.9,13.3m1,6.9c6.6,6.7,29.6,11.7,57.4,12.1" class="gg_238"/>
<path d="M620.2,983.1c.2,-.5,.3,-1,.3,-1.5c0,-.5,-.1,-1,-.3,-1.5M559.6,965.5c-.5,0,-1,0,-1.6,0c-.5,0,-1,0,-1.5,0m-60.6,14.6c-.2,.5,-.3,1,-.3,1.5c0,.5,.1,1,.3,1.5m60.6,14.7c.5,0,1,0,1.5,0c.6,0,1.1,0,1.6,0" class="gh_238"/>
<image clip-path="url(#ce_238)" x="821" y="699" width="5" height="9" xlink:href="shade/5.png"/>
<image clip-path="url(#cf_238)" x="820" y="672" width="24" height="28" xlink:href="shade/6.png"/>
<image clip-path="url(#cg_238)" x="820" y="674" width="23" height="34" xlink:href="shade/7.png"/>
<image clip-path="url(#ch_238)" x="825" y="670" width="20" height="10" xlink:href="shade/8.png"/>
<path d="M32.1,179.3H967.5V32.1H32.1V179.3Z" class="go_238"/>
<path d="M260.9,131.9c-2.3,-2.4,-4.7,-3.6,-7.3,-3.6c-.9,0,-2,.4,-3,1.2c-1.1,.9,-1.6,1.8,-1.6,2.7c0,.4,.1,.7,.4,1l.9,.8h-3.2l1.2,1.2h1.8v11.3l1.2,1.2V135.2h2.1L252.2,134h-1.3l-.5,-1.1c.1,-.9,.6,-1.6,1.6,-2.3c1,-.7,1.9,-1,2.8,-1c.6,0,1.2,.1,1.8,.2c.6,.2,1.1,.4,1.7,.7c.6,.4,1.1,.7,1.6,1c.4,.4,.9,.7,1.3,1l-.3,-.6Zm3.7,3.3L263.4,134H251.7l1.2,1.2h8.4v6.6c-1.3,-2.6,-2.8,-4,-4.5,-4c-.8,0,-1.5,.3,-2.1,.9c-.5,.5,-.8,1.2,-.8,2c0,1.5,.7,2.2,2.3,2.2c.5,0,.9,-.2,1.2,-.5c.3,-.4,.4,-.8,.4,-1.3c0,-.3,-.2,-.8,-.8,-1.5c.1,-.1,.2,-.1,.4,-.1c1.3,0,2.4,.8,3.3,2.5c.7,1.4,1,2.9,1,4.2l-.1,1.3l.9,.6V135.2h2.1Zm11.3,0L274.7,134H262.9l1.2,1.2h8.2v.9c-2.5,.8,-5,2.1,-7.4,3.7l1.6,2.3c1.7,.1,3.1,.7,4.1,1.6c.3,.3,.6,.6,.9,1c.3,.4,.6,.8,.7,1c.2,.3,.4,.7,.6,1.3l.7,.8V135.2h2.4Zm-3.6,9.4c-1.1,-1.8,-2.7,-3.2,-4.8,-4.1c.8,-.6,1.7,-1.1,2.5,-1.5c.7,-.4,1.5,-.7,2.3,-1v6.6Zm-4.7,1.7c.2,.3,.5,.4,.9,.4c.3,0,.6,-.1,.8,-.4c.3,-.2,.4,-.5,.4,-.8c0,-.4,-.1,-.7,-.4,-.9c-.2,-.3,-.5,-.4,-.8,-.4c-.4,0,-.7,.1,-.9,.4c-.3,.2,-.4,.5,-.4,.9c0,.3,.1,.6,.4,.8Zm12.7,-11.1L279.1,134H278c-.3,-.4,-.6,-1,-.7,-1.9l-.4,-.3c0,.2,0,.5,0,.9c0,.3,0,.7,.1,1.2c0,.5,0,.9,0,1.3c.1,.3,.1,.6,.1,.9c-.3,-.8,-.6,-1.3,-1,-1.6c-.4,-.3,-1,-.5,-1.7,-.5H273l1.2,1.2c.4,0,.7,.1,1,.2c.4,.1,.6,.3,.9,.5c.2,.2,.4,.4,.6,.7c.1,.3,.2,.7,.2,1v8.9l1.1,1.2V135.2h2.3Zm13,0L292.1,134c-.2,0,-.3,0,-.4,0c-.5,0,-.8,-.2,-.9,-.6c-.1,-.2,-.2,-.6,-.2,-1.2l-.6,-.5c.1,1.1,.1,2.2,.2,3.2c0,1.1,.1,2.1,.1,3.2c-1.5,-2.6,-3.2,-3.9,-4.9,-3.9c-.5,0,-1,.1,-1.5,.3c-.5,.1,-1,.4,-1.5,.7c-.6,.4,-1,.8,-1.3,1.2c-.3,.4,-.5,.9,-.5,1.3c0,.2,.1,.5,.3,.7c.2,.2,.4,.3,.7,.3c.2,0,.5,-.1,.8,-.3c.2,-.1,.4,-.1,.5,-.2c.2,0,.3,0,.4,0c.5,0,.7,.4,.7,1.2c0,.5,-.4,1.1,-1.2,1.9l1.7,.6l4.2,-4.2c.1,.1,.3,.2,.4,.4c.2,.2,.4,.4,.5,.6c.2,.3,.3,.5,.4,.7c.1,.3,.1,.5,.1,.6l-.2,6.4l1.3,1.3V135.2h2.1Zm-8.6,4.2c.1,-.7,0,-1.2,-.3,-1.6c-.3,-.5,-.8,-.7,-1.4,-.7c.5,-1.1,1.5,-1.6,2.8,-1.6c.7,0,1.3,.3,1.9,.9l-3,3Zm20.1,-4.2L303.6,134H291.8l1.2,1.2h1.2v7.1l1.7,1.7c.5,-1.1,1.2,-2.1,2.1,-2.9c.8,-.9,1.8,-1.5,2.9,-1.9c-.3,1,-.4,2.1,-.4,3.1c0,.6,0,1.3,.1,2.2c.2,.8,.3,1.8,.6,3l.8,.4c-.3,-1.6,-.4,-2.8,-.4,-3.7c0,-.9,.1,-1.8,.4,-2.8c.3,-1,.7,-2,1.2,-3l-1.9,-1.5c-.4,.1,-.9,.3,-1.4,.6c-.5,.2,-1,.5,-1.5,.8c-.5,.4,-1,.7,-1.5,1.2c-.5,.4,-.9,.8,-1.4,1.3v-5.6h9.3ZM325.9,134H310.6l1.2,1.2h5.3c-.5,.3,-.9,.8,-1.3,1.5c-.4,.6,-.6,1.2,-.6,1.7c0,.8,.3,1.5,.9,2.1c.5,.7,1.1,1,1.9,1c.4,0,.8,-.1,1.3,-.3c.6,-.2,.9,-.3,1,-.3c.2,0,.4,.1,.5,.4c.1,.2,.2,.4,.2,.6c0,.6,-.4,1,-1.2,1.3c-.5,.3,-1.1,.5,-1.8,.5c-.6,0,-1.2,-.2,-1.8,-.6c-.5,-.4,-1,-1,-1.4,-1.7c-.6,-.9,-1,-2.1,-1.2,-3.5c0,-.5,0,-.9,0,-1.3l-.6,-.3c0,1.2,.1,2.3,.3,3.3c.1,1,.4,1.9,.7,2.7c.9,2.2,2.4,3.4,4.5,3.4c.9,0,1.7,-.4,2.3,-1c.7,-.7,1,-1.5,1,-2.4c0,-.3,0,-.6,-.1,-.9c-.2,-.4,-.3,-.7,-.5,-1.1c-.4,-.7,-.9,-1.2,-1.4,-1.4l-1.3,.7c-.3,.1,-.5,.2,-.8,.3c-.2,.1,-.4,.1,-.5,.1c-.7,0,-1,-.3,-1,-.9c0,-.4,.3,-1,.7,-1.7c.3,-.4,.5,-.7,.7,-.9c.2,-.2,.4,-.3,.6,-.3l.1,.1c.8,.9,1.6,1.6,2.4,1.9c.8,.3,1.8,.5,3.1,.5c-.6,1.2,-.8,2.5,-.8,3.6c0,.9,.1,1.8,.3,2.6c.1,.8,.4,1.6,.6,2.4l1.2,.3c-.6,-1.3,-.9,-2.5,-.9,-3.4c0,-1.2,.2,-2.3,.5,-3.3c.4,-.9,.9,-1.7,1.5,-2.3l-1.8,-1.9c-.3,.2,-.8,.3,-1.3,.4c-.5,.1,-1.1,.1,-1.7,.1c-.2,0,-.3,0,-.6,-.1c-.2,-.1,-.5,-.1,-.7,-.3c-.2,-.1,-.4,-.2,-.6,-.3c-.1,-.2,-.2,-.3,-.2,-.5c0,-.2,.1,-.4,.3,-.5c.2,-.2,.4,-.3,.6,-.3h6.9L325.9,134Zm1.4,17.3c-.1,-.2,-.2,-.4,-.3,-.5c-.1,-.2,-.3,-.4,-.5,-.7c-.3,-.3,-.6,-.7,-1,-1c-.3,-.3,-.6,-.6,-.9,-.9c0,-.3,0,-.7,0,-1.2c0,-.5,-.1,-.9,-.3,-1.2l-1,-.7c.1,.6,.2,1,.2,1.5c0,.4,0,.7,-.1,.9c-.7,-.4,-1.3,-.6,-1.8,-.6c-.3,0,-.5,.1,-.8,.2c-.3,0,-.5,.2,-.7,.3c-.2,.2,-.4,.4,-.5,.7c-.1,.2,-.2,.5,-.2,.7c0,.6,.3,1,.7,1.4c.5,.3,1,.5,1.6,.5c1,-.1,1.9,-.6,2.5,-1.5c.2,.2,.5,.4,.8,.6c.2,.2,.5,.4,.8,.7c.3,.3,.5,.6,.8,.9c.3,.2,.5,.5,.7,.8v-.9Zm-4.8,-3.1c.2,.1,.3,.2,.5,.4c-.1,.2,-.4,.4,-.7,.6c-.4,.2,-.7,.3,-1.1,.2c-.4,0,-.6,-.3,-.6,-.6c.1,-.5,.5,-.7,1.3,-.8c.2,.1,.4,.1,.6,.2ZM339.7,134H325.4l1.3,1.2H341L339.7,134Zm-.5,5.6c-.3,-.6,-.6,-1.2,-1,-1.7c-.4,-.5,-.9,-.9,-1.5,-1.1c-.5,-.3,-1.1,-.5,-1.8,-.5c-.8,0,-1.4,.3,-2,.7c-.6,.5,-.9,1.1,-.9,1.9c0,.6,.2,1.2,.6,1.6c.3,.5,.8,.7,1.5,.7c1.2,0,1.9,-.6,1.9,-1.7c0,-.5,-.2,-1,-.5,-1.4c.4,-.1,.7,-.2,.9,-.2c.6,0,1.1,.3,1.5,.9c.4,.6,.6,1.1,.6,1.8c0,.8,-.4,1.6,-1.1,2.3c-.8,.6,-1.6,1,-2.4,1c-1.8,0,-3.3,-.9,-4.5,-2.8c-.3,-.3,-.6,-1,-1,-1.8c-.5,-.9,-.9,-1.9,-1.4,-3.1l-.7,-.2c1.8,6.5,4.3,9.8,7.5,9.8c1.2,0,2.2,-.5,3.2,-1.3c.4,-.4,.8,-.8,1,-1.4c.3,-.5,.4,-1,.4,-1.6c0,-.7,-.1,-1.3,-.3,-1.9Zm6.3,-4.4L344.4,134h-1.1c-.4,-.4,-.6,-1,-.8,-1.9l-.4,-.3c0,.2,0,.5,0,.9c0,.3,.1,.7,.1,1.2c0,.5,.1,.9,.1,1.3c0,.3,0,.6,0,.9c-.2,-.8,-.6,-1.3,-1,-1.6c-.4,-.3,-.9,-.5,-1.7,-.5h-1.3l1.2,1.2c.3,0,.7,.1,1,.2c.3,.1,.6,.3,.8,.5c.3,.2,.5,.4,.6,.7c.2,.3,.2,.7,.2,1v8.9l1.2,1.2V135.2h2.2Zm19,0L363.2,134H351.6l1.1,1.2h8.5v6.6h-.1c-1.3,-2.6,-2.7,-4,-4.4,-4c-.8,0,-1.5,.3,-2.1,.9c-.6,.5,-.9,1.2,-.9,2c0,1.5,.8,2.2,2.3,2.2c.5,0,.9,-.2,1.2,-.5c.3,-.4,.5,-.8,.5,-1.3c0,-.3,-.3,-.8,-.8,-1.5c.1,-.1,.2,-.1,.3,-.1c1.3,0,2.4,.8,3.4,2.5c.6,1.4,.9,2.9,.9,4.2l-.1,1.3l1,.6V135.2h2.1Zm4.6,0L367.9,134h-1.1c-.3,-.4,-.6,-1,-.7,-1.9l-.5,-.3c0,.2,0,.5,.1,.9c0,.3,0,.7,0,1.2c.1,.5,.1,.9,.1,1.3c0,.3,0,.6,0,.9c-.2,-.8,-.5,-1.3,-.9,-1.6c-.4,-.3,-1,-.5,-1.7,-.5h-1.4l1.2,1.2c.3,0,.7,.1,1,.2c.3,.1,.6,.3,.9,.5c.2,.2,.4,.4,.5,.7c.2,.3,.3,.7,.3,1v8.9l1.1,1.2V135.2h2.3Zm20.7,0L388.6,134c-.1,0,-.3,0,-.4,0c-.4,0,-.7,-.2,-.9,-.6c-.1,-.2,-.1,-.6,-.2,-1.2l-.5,-.5c0,1.1,.1,2.2,.1,3.2c.1,1.1,.1,2.1,.2,3.2h-.1c-1.5,-2.6,-3.1,-3.9,-4.9,-3.9c-.4,0,-.9,.1,-1.4,.3c-.5,.1,-1,.4,-1.6,.7c-.5,.4,-.9,.8,-1.3,1.2c-.3,.4,-.4,.9,-.4,1.3c0,.2,.1,.5,.3,.7c.2,.2,.4,.3,.6,.3c.2,0,.5,-.1,.9,-.3c.2,-.1,.3,-.1,.5,-.2c.1,0,.2,0,.3,0c.5,0,.8,.4,.8,1.2c0,.5,-.4,1.1,-1.3,1.9l1.7,.6l4.2,-4.2c.2,.1,.3,.2,.5,.4c.2,.2,.3,.4,.5,.6c.1,.3,.2,.5,.3,.7c.1,.3,.2,.5,.2,.6l-.2,6.4l1.3,1.3V135.2h2Zm-8.5,4.2c0,-.7,-.1,-1.2,-.4,-1.6c-.3,-.5,-.7,-.7,-1.4,-.7c.6,-1.1,1.5,-1.6,2.8,-1.6c.7,0,1.4,.3,1.9,.9l-2.9,3Zm19.8,-4.2L399.9,134H388.1l1.1,1.2h8.2v.9c-2.5,.8,-4.9,2.1,-7.3,3.7l1.6,2.3h-.1c1.7,.1,3.1,.7,4.1,1.6c.3,.3,.6,.6,.9,1c.4,.4,.6,.8,.8,1c.1,.3,.3,.7,.5,1.3l.7,.8V135.2h2.5Zm-3.7,9.4c-1,-1.8,-2.6,-3.2,-4.8,-4.1c.9,-.6,1.7,-1.1,2.5,-1.5c.8,-.4,1.6,-.7,2.3,-1v6.6Zm-4.7,1.7c.3,.3,.6,.4,.9,.4c.4,0,.6,-.1,.9,-.4c.2,-.2,.4,-.5,.4,-.8c0,-.4,-.2,-.7,-.4,-.9c-.3,-.3,-.5,-.4,-.9,-.4c-.3,0,-.6,.1,-.9,.4c-.2,.2,-.3,.5,-.3,.9c0,.3,.1,.6,.3,.8ZM407,134h-8l1.2,1.2h4c-1.7,2,-2.5,4,-2.5,6.1c0,1.5,.3,2.8,.9,3.9c.7,1.4,1.8,2.1,3.2,2.1c.3,0,.6,0,.8,-.1c.3,-.1,.5,-.2,.7,-.4c.2,-.2,.4,-.4,.5,-.7c.1,-.2,.2,-.5,.2,-.8c0,-.4,-.2,-.9,-.5,-1.2c-.2,-.3,-.6,-.5,-1,-.5c-.4,0,-.7,.2,-1,.4c-.3,.3,-.5,.6,-.5,1c0,.2,.1,.4,.2,.7c.1,.2,.3,.4,.6,.6c-.7,.2,-1.5,-.2,-2.2,-1.3c-.5,-.7,-.7,-1.5,-.7,-2.3c0,-1,.1,-1.9,.3,-2.7c.2,-.7,.5,-1.4,.9,-2.1c.5,-.7,1,-1.3,1.7,-1.7c.7,-.5,1.4,-.8,2.3,-1L407,134Zm13.6,1.2L419.3,134H406.1l1.2,1.2h9.8v3.3c-.4,-1.3,-1.2,-2,-2.2,-2c-.3,0,-.6,.2,-1,.5c-.3,.3,-.5,.6,-.5,1c-.8,-1,-1.7,-1.6,-2.7,-1.6c-.8,0,-1.5,.4,-2,1.2c-.4,.7,-.7,1.4,-.7,2.3c0,.5,.1,1,.3,1.4c.2,.4,.4,.8,.7,1.1c.3,.3,.7,.5,1.1,.7c.4,.1,.9,.2,1.4,.2c.6,-.1,1.1,-.2,1.4,-.5c.4,-.3,.5,-.7,.6,-1.2c0,-1.1,-.6,-1.7,-1.7,-1.7c-.3,0,-.6,.1,-.9,.3c-.3,.3,-.4,.6,-.4,1c0,.2,.1,.6,.4,1c-1.2,-.2,-1.8,-.8,-1.8,-1.7c0,-.3,.1,-.6,.2,-.9c.1,-.3,.3,-.5,.5,-.7c.2,-.2,.4,-.4,.7,-.5c.3,-.1,.6,-.2,.9,-.2c.6,0,1.2,.2,1.8,.6c.5,.4,.8,1,.9,1.6l.5,-.2c-.1,-.3,-.1,-.5,-.1,-.7c0,-.9,.4,-1.3,1,-1.3c.5,0,.8,.2,1.1,.5c.3,.3,.5,.7,.5,1.1v6.9l1.2,1.1V135.2h2.3Zm21,-1.2H426.4l1.2,1.2h11.8v8.2L437.8,142c.2,-.6,.3,-1.3,.3,-1.9c0,-.8,-.2,-1.6,-.6,-2.2c-.3,-.5,-.6,-.9,-1,-1.2c-.5,-.3,-.9,-.6,-1.4,-.7c-.3,-.1,-.6,-.2,-.9,-.2c-.7,0,-1.3,.2,-2,.7c-.3,.2,-.5,.5,-.7,.8c-.1,.3,-.2,.6,-.2,.9c0,.4,0,.7,.2,.9c.3,.5,.7,.7,1.2,.8c.6,.1,1.1,0,1.5,-.3c.2,-.2,.4,-.4,.6,-.6c.1,-.3,.2,-.5,.2,-.8c0,-.3,-.1,-.6,-.4,-1c.3,-.1,.5,-.1,.7,0c.2,0,.5,.1,.8,.3c.1,.2,.3,.4,.5,.7c.2,.3,.3,.6,.4,.9c.1,.3,.1,.5,.1,.7c0,.6,-.2,1.1,-.5,1.7c-.4,.8,-1.4,1.3,-2.8,1.3c-.5,0,-1.1,-.2,-1.6,-.5c-.6,-.3,-1.1,-.8,-1.5,-1.4c-.5,-.5,-.9,-1.2,-1.2,-2c-.4,-.8,-.7,-1.7,-.9,-2.7l-.7,-.3c.1,1,.3,2,.6,2.9c.2,.9,.5,1.7,.9,2.3c.3,.5,.7,1,1,1.5c.4,.4,.8,.8,1.2,1.1c.4,.3,.8,.6,1.2,.7c.5,.2,.9,.3,1.3,.3c.7,0,1.3,-.2,1.9,-.4c.5,-.3,1,-.7,1.3,-1.2c1.4,.9,2.4,2.4,2.9,4.5v-.1l.4,.3V135.2h2.2L441.6,134Zm5.5,1.2L446,134h-1.1c-.4,-.4,-.6,-1,-.7,-1.9l-.5,-.3c0,.2,0,.5,0,.9c.1,.3,.1,.7,.1,1.2c.1,.5,.1,.9,.1,1.3c0,.3,0,.6,0,.9c-.2,-.8,-.5,-1.3,-.9,-1.6c-.4,-.3,-1,-.5,-1.7,-.5h-1.4l1.2,1.2c.3,0,.7,.1,1,.2c.3,.1,.6,.3,.8,.5c.3,.2,.5,.4,.6,.7c.2,.3,.2,.7,.2,1v8.9l1.2,1.2V135.2h2.2ZM457.5,134H445.7l1.2,1.2h1.3c-.3,.5,-.4,.9,-.4,1.4c0,.3,0,.6,.2,.8c.1,.3,.3,.6,.5,.8c.6,.4,1.1,.6,1.7,.6c.4,0,.7,0,1,-.1c-1.2,1,-2,1.8,-2.5,2.4l1.6,1.7c1.3,-.1,2.4,.2,3.4,1c1,.7,1.8,1.9,2.4,3.4l.6,.5V135.2h2L457.5,134Zm-2,10.5c-.9,-1.5,-2.3,-2.6,-4.2,-3.3c.5,-.6,1,-1.2,1.5,-1.7c.5,-.5,1,-.9,1.5,-1.1l-1.2,-1.3c-.5,.6,-1.2,1,-2,1c-.3,0,-.7,-.2,-.9,-.4c-.3,-.2,-.4,-.6,-.4,-.9c0,-.2,0,-.4,.1,-.6c0,-.2,.1,-.3,.3,-.5c.1,-.1,.2,-.3,.4,-.4c.2,-.1,.3,-.1,.5,-.1h4.4v9.3Zm7.8,-9.3L462.1,134H461c-.3,-.4,-.6,-1,-.7,-1.9l-.4,-.3c0,.2,0,.5,0,.9c0,.3,0,.7,.1,1.2c0,.5,0,.9,0,1.3c.1,.3,.1,.6,.1,.9c-.3,-.8,-.6,-1.3,-1,-1.6c-.4,-.3,-1,-.5,-1.7,-.5H456l1.2,1.2c.4,0,.7,.1,1,.2c.4,.1,.6,.3,.9,.5c.2,.2,.4,.4,.6,.7c.1,.3,.2,.7,.2,1v8.9l1.1,1.2V135.2h2.3ZM475.8,134H461.5l1.3,1.2H477L475.8,134Zm-.6,5.6c-.2,-.6,-.5,-1.2,-.9,-1.7c-.5,-.5,-1,-.9,-1.5,-1.1c-.6,-.3,-1.2,-.5,-1.8,-.5c-.8,0,-1.4,.3,-2,.7c-.6,.5,-.9,1.1,-.9,1.9c0,.6,.2,1.2,.5,1.6c.4,.5,.9,.7,1.5,.7c1.3,0,1.9,-.6,1.9,-1.7c0,-.5,-.1,-1,-.4,-1.4c.3,-.1,.6,-.2,.8,-.2c.6,0,1.1,.3,1.6,.9c.4,.6,.5,1.1,.5,1.8c0,.8,-.3,1.6,-1,2.3c-.8,.6,-1.6,1,-2.5,1c-1.7,0,-3.2,-.9,-4.4,-2.8c-.3,-.3,-.6,-1,-1.1,-1.8c-.4,-.9,-.8,-1.9,-1.3,-3.1l-.7,-.2c1.8,6.5,4.3,9.8,7.5,9.8c1.2,0,2.2,-.5,3.2,-1.3c.4,-.4,.7,-.8,1,-1.4c.2,-.5,.4,-1,.4,-1.6c0,-.7,-.2,-1.3,-.4,-1.9ZM490.4,134c-.5,0,-1,.2,-1.5,.4c-.5,.3,-.9,.5,-1.3,.8c-.8,.8,-1.4,1.8,-1.8,2.8c-.4,1,-.6,2.1,-.7,3.3c0,1.5,.3,2.8,1,3.9c.7,1.4,1.8,2.1,3.1,2.1c.3,0,.6,0,.9,-.1c.2,-.1,.5,-.2,.7,-.4c.2,-.2,.3,-.4,.4,-.7c.2,-.2,.2,-.5,.2,-.8c0,-.4,-.1,-.9,-.4,-1.2c-.3,-.3,-.6,-.5,-1,-.5c-.2,0,-.4,.1,-.6,.1c-.2,.1,-.3,.2,-.4,.3c-.2,.2,-.3,.3,-.4,.4c-.1,.2,-.1,.4,-.1,.6c0,.2,.1,.4,.2,.7c.1,.2,.3,.4,.5,.6c0,0,-.1,.1,-.2,.1h-.1c-.7,0,-1.4,-.5,-1.9,-1.4c-.4,-.7,-.7,-1.5,-.7,-2.3c0,-1,.1,-1.9,.4,-2.7c.2,-.7,.5,-1.4,.9,-2.1c.5,-.7,1,-1.3,1.7,-1.7c.6,-.5,1.4,-.8,2.3,-1L490.4,134Zm14.2,1.2L503.4,134c-.2,0,-.3,0,-.4,0c-.5,0,-.8,-.2,-.9,-.6c-.1,-.2,-.2,-.6,-.2,-1.2l-.6,-.5c.1,1.1,.1,2.2,.2,3.2c0,1.1,.1,2.1,.1,3.2c-1.5,-2.6,-3.2,-3.9,-4.9,-3.9c-.5,0,-1,.1,-1.5,.3c-.5,.1,-1,.4,-1.5,.7c-.6,.4,-1,.8,-1.3,1.2c-.3,.4,-.5,.9,-.5,1.3c0,.2,.1,.5,.3,.7c.2,.2,.4,.3,.7,.3c.2,0,.5,-.1,.8,-.3c.2,-.1,.4,-.1,.5,-.2c.2,0,.3,0,.4,0c.5,0,.7,.4,.7,1.2c0,.5,-.4,1.1,-1.2,1.9l1.7,.6l4.2,-4.2c.1,.1,.3,.2,.4,.4c.2,.2,.4,.4,.5,.6c.2,.3,.3,.5,.4,.7c.1,.3,.1,.5,.1,.6l-.2,6.4l1.3,1.3V135.2h2.1Zm-8.6,4.2c.1,-.7,0,-1.2,-.3,-1.6c-.3,-.5,-.8,-.7,-1.4,-.7c.5,-1.1,1.5,-1.6,2.8,-1.6c.7,0,1.3,.3,1.9,.9l-3,3ZM510.6,134h-7.9l1.2,1.2h4c-1.7,2,-2.6,4,-2.6,6.1c0,1.5,.3,2.8,1,3.9c.7,1.4,1.8,2.1,3.2,2.1c.3,0,.5,0,.8,-.1c.3,-.1,.5,-.2,.7,-.4c.2,-.2,.3,-.4,.5,-.7c.1,-.2,.1,-.5,.1,-.8c0,-.4,-.1,-.9,-.4,-1.2c-.3,-.3,-.6,-.5,-1,-.5c-.4,0,-.7,.2,-1,.4c-.3,.3,-.5,.6,-.5,1c0,.2,.1,.4,.2,.7c.1,.2,.3,.4,.6,.6c-.8,.2,-1.5,-.2,-2.3,-1.3c-.4,-.7,-.6,-1.5,-.7,-2.3c0,-1,.1,-1.9,.4,-2.7c.2,-.7,.5,-1.4,.9,-2.1c.5,-.7,1,-1.3,1.7,-1.7c.6,-.5,1.4,-.8,2.3,-1L510.6,134Zm13.5,0H509.9l1.2,1.2h14.3L524.1,134Zm-.5,5.6c-.2,-.6,-.5,-1.2,-1,-1.7c-.4,-.5,-.9,-.9,-1.4,-1.1c-.6,-.3,-1.2,-.5,-1.9,-.5c-.7,0,-1.4,.3,-1.9,.7c-.6,.5,-1,1.1,-1,1.9c0,.6,.2,1.2,.6,1.6c.4,.5,.9,.7,1.5,.7c1.3,0,1.9,-.6,1.9,-1.7c0,-.5,-.2,-1,-.5,-1.4c.4,-.1,.7,-.2,.9,-.2c.6,0,1.1,.3,1.6,.9c.3,.6,.5,1.1,.5,1.8c0,.8,-.3,1.6,-1,2.3c-.8,.6,-1.7,1,-2.5,1c-1.7,0,-3.2,-.9,-4.5,-2.8c-.2,-.3,-.6,-1,-1,-1.8c-.4,-.9,-.9,-1.9,-1.4,-3.1l-.7,-.2c1.8,6.5,4.3,9.8,7.5,9.8c1.2,0,2.3,-.5,3.2,-1.3c.4,-.4,.8,-.8,1,-1.4c.3,-.5,.4,-1,.4,-1.6c0,-.7,-.1,-1.3,-.3,-1.9Zm22.7,-4.4L545.1,134c-.2,0,-.3,0,-.4,0c-.4,0,-.7,-.2,-.9,-.6c-.1,-.2,-.1,-.6,-.2,-1.2l-.5,-.5c0,1.1,0,2.2,.1,3.2c.1,1.1,.1,2.1,.2,3.2h-.1c-1.5,-2.6,-3.1,-3.9,-4.9,-3.9c-.4,0,-.9,.1,-1.4,.3c-.6,.1,-1.1,.4,-1.6,.7c-.5,.4,-1,.8,-1.3,1.2c-.3,.4,-.4,.9,-.4,1.3c0,.2,.1,.5,.3,.7c.1,.2,.4,.3,.6,.3c.2,0,.5,-.1,.9,-.3c.2,-.1,.3,-.1,.5,-.2c.1,0,.2,0,.3,0c.5,0,.7,.4,.7,1.2c0,.5,-.4,1.1,-1.2,1.9l1.7,.6l4.2,-4.2c.2,.1,.3,.2,.5,.4c.1,.2,.3,.4,.4,.6c.2,.3,.3,.5,.4,.7c.1,.3,.1,.5,.1,.6l-.1,6.4l1.3,1.3V135.2h2Zm-8.6,4.2c.1,-.7,0,-1.2,-.3,-1.6c-.3,-.5,-.7,-.7,-1.4,-.7c.6,-1.1,1.5,-1.6,2.8,-1.6c.7,0,1.3,.3,1.9,.9l-3,3Zm13.1,-4.2L549.7,134h-1.1c-.4,-.4,-.6,-1,-.8,-1.9l-.4,-.3c0,.2,0,.5,0,.9c.1,.3,.1,.7,.1,1.2c0,.5,.1,.9,.1,1.3c0,.3,0,.6,0,.9c-.2,-.8,-.6,-1.3,-1,-1.6c-.4,-.3,-.9,-.5,-1.6,-.5h-1.4l1.2,1.2c.3,0,.7,.1,1,.2c.3,.1,.6,.3,.8,.5c.3,.2,.5,.4,.6,.7c.2,.3,.2,.7,.2,1v8.9l1.2,1.2V135.2h2.2Zm6,-1.2h-7.9l1.1,1.2h4c-1.7,2,-2.5,4,-2.5,6.1c0,1.5,.3,2.8,.9,3.9c.8,1.4,1.8,2.1,3.2,2.1c.3,0,.6,0,.9,-.1c.2,-.1,.4,-.2,.6,-.4c.2,-.2,.4,-.4,.5,-.7c.1,-.2,.2,-.5,.2,-.8c0,-.4,-.2,-.9,-.4,-1.2c-.3,-.3,-.7,-.5,-1.1,-.5c-.3,0,-.7,.2,-1,.4c-.3,.3,-.4,.6,-.4,1c0,.2,0,.4,.1,.7c.2,.2,.4,.4,.6,.6c-.7,.2,-1.4,-.2,-2.2,-1.3c-.5,-.7,-.7,-1.5,-.7,-2.3c0,-1,.1,-1.9,.3,-2.7c.2,-.7,.5,-1.4,1,-2.1c.4,-.7,1,-1.3,1.6,-1.7c.7,-.5,1.5,-.8,2.4,-1L556.8,134Zm12.1,1.2L567.7,134H555.9l1.2,1.2h8.2v.9c-2.5,.8,-4.9,2.1,-7.3,3.7l1.5,2.3c1.7,.1,3.1,.7,4.1,1.6c.3,.3,.6,.6,.9,1c.4,.4,.6,.8,.7,1c.2,.3,.4,.7,.6,1.3l.7,.8V135.2h2.4Zm-3.6,9.4c-1.1,-1.8,-2.7,-3.2,-4.8,-4.1c.9,-.6,1.7,-1.1,2.5,-1.5c.8,-.4,1.5,-.7,2.3,-1v6.6Zm-4.7,1.7c.3,.3,.5,.4,.9,.4c.3,0,.6,-.1,.9,-.4c.2,-.2,.3,-.5,.3,-.8c0,-.4,-.1,-.7,-.3,-.9c-.3,-.3,-.6,-.4,-.9,-.4c-.4,0,-.6,.1,-.9,.4c-.2,.2,-.4,.5,-.4,.9c0,.3,.2,.6,.4,.8ZM580,135.2L578.8,134H567.1l1.2,1.2h8.4v6.6c-1.3,-2.6,-2.8,-4,-4.5,-4c-.7,0,-1.4,.3,-2,.9c-.6,.5,-.9,1.2,-.9,2c0,1.5,.8,2.2,2.3,2.2c.5,0,.9,-.2,1.2,-.5c.3,-.4,.5,-.8,.5,-1.3c0,-.3,-.3,-.8,-.8,-1.5c0,-.1,.1,-.1,.3,-.1c1.3,0,2.4,.8,3.3,2.5c.7,1.4,1,2.9,1,4.2l-.1,1.3l.9,.6V135.2H580Z" class="gp_238"/>
<g clip-path="url(#c0_238)">
<path d="M1877,177.2H32.1v-5.4H768.7c43.1,0,53,-37.9,115.3,-37.9h993Z" class="gq_238"/>
<path d="M1877,183.7H32.1v-9.8H768.7c43.1,0,53,-33.6,115.3,-33.6h993Z" class="gr_238"/>
</g>
<image clip-path="url(#ci_238)" preserveAspectRatio="none" x="125" y="206" width="734" height="181" xlink:href="img/9.png"/>
<path d="M144.6,231.3c0,0,-13,0,-13,13v117c0,0,0,13,13,13H833.1c0,0,13,0,13,-13v-130Z" class="gs_238"/>
<path d="M147.7,294.1l54.1,40.8l54.1,-40.8V230h8.7V211.9H155.8c-6.5,.4,-7.7,3.9,-8.2,8.4Z" class="gt_238"/>
<path d="M274,220.3c-.3,-4.7,-4.2,-8.4,-9,-8.4c-4.8,0,-8.7,3.7,-9,8.4h-.1V230h18.2v-9.7Z" class="gb_238"/>
<path d="M255.9,230.6H846.1" class="gu_238"/>
<path d="M32.1,45.1H9.2m958.3,0h22.9M32.1,1331.3H9.2m958.3,0h22.9M45.1,32.1V9.2m0,1335.1v22.9M954.5,32.1V9.2m0,1335.1v22.9" class="gv_238"/>
<path d="M32.1,45.1H9.2m958.3,0h22.9M32.1,1331.3H9.2m958.3,0h22.9M45.1,32.1V9.2m0,1335.1v22.9M954.5,32.1V9.2m0,1335.1v22.9" class="gw_238"/>
<path d="M27.5,32.1H0m972.1,0h27.5M27.5,1344.3H0m972.1,0h27.5M32.1,27.5V0m0,1348.9v27.5M967.5,27.5V0m0,1348.9v27.5" class="gv_238"/>
<path d="M27.5,32.1H0m972.1,0h27.5M27.5,1344.3H0m972.1,0h27.5M32.1,27.5V0m0,1348.9v27.5M967.5,27.5V0m0,1348.9v27.5" class="gw_238"/>
</svg>