<?xml version="1.0" encoding="UTF-8" standalone="no"?>
<!DOCTYPE svg PUBLIC "-//W3C//DTD SVG 1.1//EN"
"http://www.w3.org/Graphics/SVG/1.1/DTD/svg11.dtd">
<svg viewBox="0 0 999 1376" version="1.1" xmlns="http://www.w3.org/2000/svg" xmlns:xlink="http://www.w3.org/1999/xlink">
<defs>
<clipPath id="c0_134"><path d="M569.3,365.8V266.6h99.2v99.2Z"/></clipPath>
<clipPath id="c1_134"><path d="M569.3,521.7V422.5h99.2v99.2Z"/></clipPath>
<clipPath id="c2_134"><path d="M225.3,1078.5V991.4h86.4v87.1Z"/></clipPath>
<clipPath id="c3_134"><path d="M436.9,1076.2V991.4h87.9v84.8Z"/></clipPath>
<clipPath id="c4_134"><path d="M638.9,1072V984.9h87.2V1072Z"/></clipPath>
<clipPath id="c5_134"><path d="M177.5,239.9L171,237.8L154.6,223.9V166.8h72v73.1Z"/></clipPath>
<clipPath id="c6_134"><path d="M177.9,922l-6.5,-2.2L155,905.9V848.8h72V922Z"/></clipPath>
<style type="text/css"><![CDATA[
.g0_134{
fill: #FEFCF4;
}
.g1_134{
fill: #FFF;
}
.g2_134{
fill: none;
stroke: #6381B7;
stroke-width: 0.763;
}
.g3_134{
fill: none;
stroke: #949698;
stroke-width: 0.381;
}
.g4_134{
fill: none;
stroke: #231F20;
stroke-width: 1.527;
}
.g5_134{
fill: #93BEDA;
}
.g6_134{
fill: #EFE9CC;
}
.g7_134{
fill: #8B9FCA;
}
.g8_134{
fill: none;
stroke: #6381B7;
stroke-width: 0.381;
stroke-dasharray: 2,1;
}
.g9_134{
fill: none;
stroke: #6381B7;
stroke-width: 0.381;
}
.ga_134{
fill: #FCE8B0;
}
.gb_134{
fill: #25408F;
}
.gc_134{
fill: #6381B7;
}
.gd_134{
fill: #00BAF1;
}
.ge_134{
fill: #332D2C;
}
.gf_134{
fill: #D9DFF0;
}
.gg_134{
fill: #F27C85;
}
.gh_134{
fill: #7DD3F6;
}
.gi_134{
fill: none;
stroke: #FFF;
stroke-width: 1.909;
stroke-miterlimit: 10;
}
.gj_134{
fill: none;
stroke: #000;
stroke-width: 0.381;
stroke-miterlimit: 10;
}
]]></style>
</defs>
<path d="M32.1,1344.3H954.5V32.1H32.1V1344.3Z" class="g0_134"/>
<path d="M150.9,134c0,0,-18.3,0,-18.3,18.4V820c0,0,0,18.3,18.3,18.3H828c0,0,18.4,0,18.4,-18.3V134Z" class="g1_134"/>
<path d="M150.9,134c0,0,-18.3,0,-18.3,18.4V820c0,0,0,18.3,18.3,18.3H828c0,0,18.4,0,18.4,-18.3V134H150.9Z" class="g2_134"/>
<path d="M187.4,365.8H295.3V266.6H187.4v99.2Z" class="g1_134"/>
<image preserveAspectRatio="none" x="192" y="267" width="99" height="99" xlink:href="img/1.jpg"/>
<path d="M187.4,365.8H295.3V266.6H187.4v99.2Z" class="g3_134"/>
<path d="M313.3,365.8H421.2V266.6H313.3v99.2Z" class="g1_134"/>
<image preserveAspectRatio="none" x="318" y="267" width="99" height="99" xlink:href="img/2.jpg"/>
<path d="M313.3,365.8H421.2V266.6H313.3v99.2Z" class="g3_134"/>
<path d="M439.1,365.8H547V266.6H439.1v99.2Z" class="g1_134"/>
<image preserveAspectRatio="none" x="443" y="267" width="100" height="99" xlink:href="img/3.jpg"/>
<path d="M439.1,365.8H547V266.6H439.1v99.2Z" class="g3_134"/>
<path d="M565,365.8H672.9V266.6H565v99.2Z" class="g1_134"/>
<image clip-path="url(#c0_134)" preserveAspectRatio="none" x="569" y="267" width="100" height="99" xlink:href="img/4.jpg"/>
<path d="M565,365.8H672.9V266.6H565v99.2Z" class="g3_134"/>
<path d="M690.8,365.8H798.7V266.6H690.8v99.2Z" class="g1_134"/>
<image preserveAspectRatio="none" x="695" y="267" width="99" height="99" xlink:href="img/5.jpg"/>
<path d="M690.8,365.8H798.7V266.6H690.8v99.2Z" class="g3_134"/>
<path d="M187.4,521.7H295.3V422.5H187.4v99.2Z" class="g1_134"/>
<image preserveAspectRatio="none" x="192" y="422" width="99" height="100" xlink:href="img/6.jpg"/>
<path d="M187.4,521.7H295.3V422.5H187.4v99.2Z" class="g3_134"/>
<path d="M313.3,521.7H421.2V422.5H313.3v99.2Z" class="g1_134"/>
<image preserveAspectRatio="none" x="318" y="422" width="99" height="100" xlink:href="img/7.jpg"/>
<path d="M313.3,521.7H421.2V422.5H313.3v99.2Z" class="g3_134"/>
<path d="M439.1,521.7H547V422.5H439.1v99.2Z" class="g1_134"/>
<image preserveAspectRatio="none" x="443" y="422" width="100" height="100" xlink:href="img/8.jpg"/>
<path d="M439.1,521.7H547V422.5H439.1v99.2Z" class="g3_134"/>
<path d="M565,521.7H672.9V422.5H565v99.2Z" class="g1_134"/>
<image clip-path="url(#c1_134)" preserveAspectRatio="none" x="569" y="422" width="100" height="100" xlink:href="img/9.jpg"/>
<path d="M565,521.7H672.9V422.5H565v99.2Z" class="g3_134"/>
<path d="M690.8,521.7H798.7V422.5H690.8v99.2Z" class="g1_134"/>
<image preserveAspectRatio="none" x="695" y="422" width="99" height="100" xlink:href="img/10.jpg"/>
<path d="M690.8,521.7H798.7V422.5H690.8v99.2Z" class="g3_134"/>
<path d="M190.5,593.7c-.3,0,-.6,.1,-.8,.3c-.2,.3,-.3,.5,-.3,.8c0,.3,.1,.6,.3,.8c.2,.2,.5,.3,.8,.3c.3,0,.5,-.1,.7,-.3c.3,-.2,.4,-.5,.4,-.8c0,-.3,-.1,-.5,-.4,-.8c-.2,-.2,-.4,-.3,-.7,-.3Zm0,48.6c-.3,0,-.6,.2,-.8,.4c-.2,.2,-.3,.5,-.3,.8c0,.3,.1,.5,.3,.8c.2,.2,.5,.3,.8,.3c.3,0,.5,-.1,.7,-.3c.3,-.3,.4,-.5,.4,-.8c0,-.3,-.1,-.6,-.4,-.8c-.2,-.2,-.4,-.4,-.7,-.4Zm0,48.7c-.3,0,-.6,.1,-.8,.3c-.2,.2,-.3,.5,-.3,.8c0,.3,.1,.6,.3,.8c.2,.2,.5,.3,.8,.3c.3,0,.5,-.1,.7,-.3c.3,-.2,.4,-.5,.4,-.8c0,-.3,-.1,-.6,-.4,-.8c-.2,-.2,-.4,-.3,-.7,-.3Zm0,48.6c-.3,0,-.6,.1,-.8,.3c-.2,.3,-.3,.5,-.3,.8c0,.4,.1,.6,.3,.8c.2,.2,.5,.4,.8,.4c.3,0,.5,-.2,.7,-.4c.3,-.2,.4,-.4,.4,-.8c0,-.3,-.1,-.5,-.4,-.8c-.2,-.2,-.4,-.3,-.7,-.3Zm0,48.7c-.3,0,-.6,.1,-.8,.3c-.2,.2,-.3,.5,-.3,.8c0,.3,.1,.6,.3,.8c.2,.2,.5,.3,.8,.3c.3,0,.5,-.1,.7,-.3c.3,-.2,.4,-.5,.4,-.8c0,-.3,-.1,-.6,-.4,-.8c-.2,-.2,-.4,-.3,-.7,-.3Z" class="g4_134"/>
<path d="M145.1,937c0,0,-13,0,-13,13v233.6c0,0,0,12.9,13,12.9H832.9c0,0,13,0,13,-12.9V950c0,0,0,-13,-13,-13Z" class="g1_134"/>
<path d="M145.1,937c0,0,-13,0,-13,13v233.6c0,0,0,12.9,13,12.9H832.9c0,0,13,0,13,-12.9V950c0,0,0,-13,-13,-13H145.1Z" class="g2_134"/>
<path d="M268.7,1093.7c2,0,3.6,-1.6,3.6,-3.6c0,-2,-1.6,-3.6,-3.6,-3.6c-2,0,-3.6,1.6,-3.6,3.6c0,2,1.6,3.6,3.6,3.6Z" class="g5_134"/>
<path d="M268.7,1133.2c2,0,3.6,-1.6,3.6,-3.6c0,-2,-1.6,-3.6,-3.6,-3.6c-2,0,-3.6,1.6,-3.6,3.6c0,2,1.6,3.6,3.6,3.6Z" class="g5_134"/>
<image clip-path="url(#c2_134)" preserveAspectRatio="none" x="224" y="991" width="87" height="87" xlink:href="img/11.jpg"/>
<path d="M226.2,1145.9c0,0,-8.6,0,-8.6,8.7v15.2c0,0,0,8.6,8.6,8.6h99.6c0,0,8.7,0,8.7,-8.6v-15.2c0,0,0,-8.7,-8.7,-8.7Z" class="g6_134"/>
<path d="M477.7,1093.7c2,0,3.7,-1.6,3.7,-3.6c0,-2,-1.7,-3.6,-3.7,-3.6c-1.9,0,-3.6,1.6,-3.6,3.6c0,2,1.7,3.6,3.6,3.6Z" class="g5_134"/>
<path d="M477.7,1133.2c2,0,3.7,-1.6,3.7,-3.6c0,-2,-1.7,-3.6,-3.7,-3.6c-1.9,0,-3.6,1.6,-3.6,3.6c0,2,1.7,3.6,3.6,3.6Z" class="g5_134"/>
<image clip-path="url(#c3_134)" preserveAspectRatio="none" x="437" y="989" width="88" height="88" xlink:href="img/12.jpg"/>
<path d="M428.7,1145.9c0,0,-8.7,0,-8.7,8.7v15.2c0,0,0,8.6,8.7,8.6h99.6c0,0,8.7,0,8.7,-8.6v-15.2c0,0,0,-8.7,-8.7,-8.7Z" class="g6_134"/>
<path d="M678.2,1093.7c1.9,0,3.6,-1.6,3.6,-3.6c0,-2,-1.7,-3.6,-3.6,-3.6c-2,0,-3.7,1.6,-3.7,3.6c0,2,1.7,3.6,3.7,3.6Z" class="g5_134"/>
<path d="M678.2,1133.2c1.9,0,3.6,-1.6,3.6,-3.6c0,-2,-1.7,-3.6,-3.6,-3.6c-2,0,-3.7,1.6,-3.7,3.6c0,2,1.7,3.6,3.7,3.6Z" class="g5_134"/>
<image clip-path="url(#c4_134)" preserveAspectRatio="none" x="639" y="985" width="87" height="87" xlink:href="img/13.jpg"/>
<path d="M631.2,1145.9c0,0,-8.7,0,-8.7,8.7v15.2c0,0,0,8.6,8.7,8.6h99.6c0,0,8.6,0,8.6,-8.6v-15.2c0,0,0,-8.7,-8.6,-8.7Z" class="g6_134"/>
<path d="M681.1,1216.2c0,0,-4.3,0,-4.3,4.3v10.8c0,0,0,4.3,4.3,4.3h30.3c0,0,4.4,0,4.4,-4.3v-10.8c0,0,0,-4.3,-4.4,-4.3Z" class="g7_134"/>
<path d="M668,1208.7v34.8m1.3,1H842.5m1,-1.4v-34.8m-1.4,-1H668.9" class="g8_134"/>
<path d="M668,1243.9v.6h.5m174.4,0h.6v-.6m0,-36v-.6h-.6m-174.4,0H668v.6" class="g9_134"/>
<path d="M210.1,194.9c0,0,-13,0,-13,13v21.7c0,0,0,13,13,13h602c0,0,13,0,13,-13V207.9c0,0,0,-13,-13,-13Z" class="ga_134"/>
<image clip-path="url(#c5_134)" preserveAspectRatio="none" x="153" y="165" width="75" height="77" xlink:href="img/14.png"/>
<path d="M204.9,235.2c0,0,-26.8,11.3,-51.1,-12.8c0,0,15.2,25.3,49.3,24c0,0,24.8,.3,20.3,-10.1c0,0,1.2,-4.5,-18.5,-1.1Z" class="ga_134"/>
<path d="M210.5,877c0,0,-13,0,-13,13v21.6c0,0,0,13,13,13H833c0,0,13,0,13,-13V890c0,0,0,-13,-13,-13Z" class="ga_134"/>
<image clip-path="url(#c6_134)" preserveAspectRatio="none" x="153" y="847" width="75" height="77" xlink:href="img/15.png"/>
<path d="M205.3,917.3c0,0,-26.8,11.3,-51.1,-12.8c0,0,15.2,25.3,49.3,24c0,0,24.7,.3,20.2,-10.2c0,0,1.3,-4.4,-18.4,-1Z" class="ga_134"/>
<path d="M131.7,126.7v22.2l11.7,10.3V137Z" class="gb_134"/>
<path d="M131.7,109.9v39H829.4c0,0,16.9,0,16.9,-16.8v-5.4c0,0,0,-16.8,-16.9,-16.8Z" class="gc_134"/>
<path d="M189.6,121.3l-6.4,-6.5L162,136l6.4,6.5Z" class="gd_134"/>
<path d="M168.4,143c.2,0,.3,0,.4,-.1L190,121.7c.1,-.1,.2,-.3,.2,-.4c0,-.1,-.1,-.3,-.2,-.4l-6.5,-6.4c-.2,-.2,-.5,-.2,-.7,0l-21.2,21.2c-.1,.1,-.2,.2,-.2,.3c0,.2,.1,.3,.2,.4l6.5,6.5c.1,.1,.2,.1,.3,.1m20.5,-21.7l-20.5,20.5L162.7,136l20.5,-20.4Z" class="ge_134"/>
<path d="M189.6,121.3l-6.4,-6.5l2.1,-2.1l6.5,6.5Z" class="gf_134"/>
<path d="M189.6,121.8c.2,0,.3,0,.4,-.1l2.1,-2.1c.1,-.1,.2,-.3,.2,-.4c0,-.2,-.1,-.3,-.2,-.4l-6.4,-6.5c-.2,-.2,-.6,-.2,-.8,0l-2.1,2.2c-.1,0,-.2,.2,-.2,.3c0,.2,.1,.3,.2,.4l6.5,6.5c.1,.1,.2,.1,.3,.1m1.4,-2.6l-1.4,1.4l-5.7,-5.8l1.4,-1.4Z" class="ge_134"/>
<path d="M195.4,115.6l-6.5,-6.5l-3.6,3.6l6.5,6.5Z" class="gg_134"/>
<path d="M191.8,119.7c.1,0,.2,0,.3,-.1l3.7,-3.7c.2,-.2,.2,-.5,0,-.7l-6.5,-6.5c-.2,-.2,-.6,-.2,-.8,0l-3.6,3.6c-.2,.2,-.2,.6,0,.8l6.5,6.5c.1,.1,.2,.1,.4,.1m2.8,-4.1l-2.8,2.8L186,112.7l2.9,-2.9Z" class="ge_134"/>
<path d="M157.3,147.2L162,136l6.4,6.5Z" class="g1_134"/>
<path d="M157.3,147.7c.1,0,.2,0,.2,-.1L168.6,143c.2,-.1,.3,-.2,.4,-.4c0,-.2,-.1,-.3,-.2,-.5l-6.5,-6.4c-.1,-.2,-.3,-.2,-.5,-.2c-.1,.1,-.3,.2,-.3,.3l-4.7,11.1c0,.2,0,.5,.1,.6c.1,.1,.3,.2,.4,.2m10.2,-5.4l-9.2,3.9l3.8,-9.2Z" class="ge_134"/>
<path d="M157.3,147.2l2.3,-5.4l3.1,3.1Z" class="ge_134"/>
<path d="M157.3,147.7c.1,0,.2,0,.2,-.1l5.4,-2.2c.1,-.1,.3,-.2,.3,-.4c0,-.2,0,-.3,-.1,-.5l-3.2,-3.1c-.1,-.1,-.3,-.2,-.4,-.1c-.2,0,-.4,.1,-.4,.3l-2.3,5.3c0,.2,0,.5,.1,.6c.1,.1,.3,.2,.4,.2m4.5,-3l-3.5,1.5l1.4,-3.5Z" class="ge_134"/>
<path d="M187.9,119.5l-3,-2.9l-21.2,21.2l3,3Z" class="gh_134"/>
<path d="M166.7,141.3c.1,0,.2,-.1,.3,-.2l21.3,-21.2c.1,-.1,.1,-.2,.1,-.4c0,-.1,0,-.2,-.1,-.3l-3,-3c-.2,-.2,-.5,-.2,-.8,0l-21.2,21.2c-.1,.1,-.1,.3,-.1,.4c0,.1,0,.3,.1,.4l3,2.9c.1,.1,.2,.2,.4,.2m20.4,-21.8L166.7,140l-2.2,-2.2l20.4,-20.5Z" class="ge_134"/>
<path d="M32.1,45.1H9.2m958.3,0h22.9M32.1,1331.3H9.2m958.3,0h22.9M45.1,32.1V9.2m0,1335.1v22.9M954.5,32.1V9.2m0,1335.1v22.9" class="gi_134"/>
<path d="M32.1,45.1H9.2m958.3,0h22.9M32.1,1331.3H9.2m958.3,0h22.9M45.1,32.1V9.2m0,1335.1v22.9M954.5,32.1V9.2m0,1335.1v22.9" class="gj_134"/>
<path d="M27.5,32.1H0m972.1,0h27.5M27.5,1344.3H0m972.1,0h27.5M32.1,27.5V0m0,1348.9v27.5M967.5,27.5V0m0,1348.9v27.5" class="gi_134"/>
<path d="M27.5,32.1H0m972.1,0h27.5M27.5,1344.3H0m972.1,0h27.5M32.1,27.5V0m0,1348.9v27.5M967.5,27.5V0m0,1348.9v27.5" class="gj_134"/>
</svg>