<?xml version="1.0" encoding="UTF-8" standalone="no"?>
<!DOCTYPE svg PUBLIC "-//W3C//DTD SVG 1.1//EN"
"http://www.w3.org/Graphics/SVG/1.1/DTD/svg11.dtd">
<svg viewBox="0 0 999 1376" version="1.1" xmlns="http://www.w3.org/2000/svg" xmlns:xlink="http://www.w3.org/1999/xlink">
<defs>
<clipPath id="c0_85"><path d="M199.9,259l-6.5,-2.2L177,242.9V185.8h72V259Z"/></clipPath>
<clipPath id="c1_85"><path d="M199.2,1026.1l-6.5,-2.1l-16.4,-14V952.9h72v73.2Z"/></clipPath>
<clipPath id="c2_85"><path d="M786.5,132.5V120.1H801v12.4Z"/></clipPath>
<clipPath id="c3_85"><path d="M73.2,700.2V397.7H276.7V700.2Z"/></clipPath>
<clipPath id="c4_85"><path d="M75.2,700.6V397.5H280.4V700.6Z"/></clipPath>
<clipPath id="c5_85"><path d="M74.9,700.3V397.2H280.1V700.3Z"/></clipPath>
<clipPath id="c6_85"><path d="M172.5,418.5c-.3,-.1,3.6,-8.2,3.6,-8.2l.7,.5c0,0,-4,7.7,-4.3,7.7Z"/></clipPath>
<clipPath id="c7_85"><path d="M180,410.8c0,0,-6.8,-1.1,-7.6,-5.3c-.6,-3.6,1.6,-3.8,2.1,-3.8q.1,0,.1,0L182.9,389l-1.4,-3.1c0,0,-.6,-1.1,.1,-2.1c.1,0,.2,-.1,.3,-.1c2.1,0,13,5.6,13,5.6v.1c-.3,.5,-.7,1.2,-1.4,1.7c-.6,.5,-5,1.1,-5,1.1L180,410.8Z"/></clipPath>
<clipPath id="c8_85"><path d="M179.6,410.4c.2,-.5,.2,-1.8,0,-2.3v-1.3c-1.5,-.6,-2.9,-1.3,-3.6,-2.6c-1.1,.6,-2.2,1.3,-3.2,1.9c1.6,2.2,3.8,3.6,6.8,4.3Zm0,-3.9c2.2,-4.5,4,-9.5,6.2,-14.1c-.9,-.4,-1.9,-1.3,-2.7,-1.3c-2.3,4.3,-4.6,8.6,-7,12.8c.7,1.3,2.1,2,3.5,2.6Zm-7.3,12.1c1.1,-2.9,2.4,-5.5,3.5,-8.3c-1.9,-1.6,-3.9,-3.1,-4.4,-6.2v-1.5c0,-2.7,2,-3.4,4.6,-3.4q.1,0,.2,0c2,-3.3,4.2,-6.3,6.2,-9.7c-.6,-.8,-1.2,-2.3,-.9,-3.6c.5,1.3,1.6,1.9,2.4,2.9c-.1,.6,-.3,1.1,-.4,1.8c.6,.6,1.3,1.1,2.4,1.3c.4,-.4,.5,-1.2,1.1,-1.5c1,.4,1.9,.8,3.2,.8c.1,.1,.4,.1,.8,.1c.3,0,.7,0,.8,-.1c.1,0,.2,0,.3,0c.2,0,.4,0,.6,-.1c.2,-.1,.4,-.2,.5,-.2c.1,0,.2,.1,.3,.2c-1.3,.6,-2.1,1.7,-4.1,1.7c-.1,0,-.3,0,-.4,0c-.8,3.8,-1.8,7.4,-2.6,11.2c.5,1.1,1.5,1.7,1.2,3.1c-.4,2.8,-3.8,4.4,-7.2,4.4c-1.2,0,-2.5,-.2,-3.6,-.7c-1,2.1,-2,4.1,-3.2,6c-.1,-.4,.3,-.4,.2,-.7c1,-1.8,2,-3.6,2.7,-5.7c-1.1,1.7,-1.9,3.7,-2.8,5.5c-.2,.5,-.4,.9,-.6,1.3c-.3,.4,-.3,1.1,-.8,1.4Z"/></clipPath>
<clipPath id="c9_85"><path d="M190,390.8c-4.8,0,-13,-7.3,-5.5,-8.8h1.3c.2,.1,.4,.1,.7,.1c0,0,.1,0,.2,0c.2,0,.5,0,.8,0c3.1,.7,8.2,3.8,7.6,7.1c-.3,1.1,-1.6,1.6,-3.2,1.6h-1.7q-.1,0,-.2,0Z"/></clipPath>
<clipPath id="ca_85"><path d="M707.8,704V382.3H927.3V704Z"/></clipPath>
<clipPath id="cb_85"><path d="M696.5,705.7V377.9H934.1V705.7Z"/></clipPath>
<clipPath id="cc_85"><path d="M696.2,705.3V377.5H933.8V705.3Z"/></clipPath>
<clipPath id="cd_85"><path d="M822.2,396.8c-.2,0,3.6,-8.2,3.6,-8.2l.7,.5c0,0,-4,7.7,-4.3,7.7Z"/></clipPath>
<clipPath id="ce_85"><path d="M829.7,389.1c0,0,-6.8,-1.1,-7.6,-5.2c-.6,-3.6,1.6,-3.9,2.1,-3.9c.1,0,.1,.1,.1,.1l8.4,-12.8l-1.5,-3.1c0,0,-.6,-1.1,.1,-2c.1,-.1,.2,-.1,.3,-.1c2.1,0,13,5.5,13,5.5l.1,.2c-.4,.5,-.8,1.1,-1.4,1.6c-.7,.5,-5.1,1.2,-5.1,1.2l-8.5,18.5Z"/></clipPath>
<clipPath id="cf_85"><path d="M829.3,388.8c.2,-.5,.2,-1.8,0,-2.3v-1.4c-1.5,-.5,-2.9,-1.2,-3.6,-2.5c-1.1,.6,-2.2,1.2,-3.2,1.9c1.6,2.1,3.8,3.5,6.8,4.3Zm0,-3.9c2.2,-4.6,4,-9.6,6.2,-14.1c-.9,-.4,-1.9,-1.3,-2.7,-1.4c-2.3,4.3,-4.6,8.6,-7,12.8c.7,1.3,2.1,2,3.5,2.7Zm-7.3,12c1.1,-2.9,2.4,-5.5,3.5,-8.3c-1.9,-1.5,-3.9,-3.1,-4.4,-6.1V381c0,-2.7,2,-3.4,4.6,-3.4c.1,0,.2,0,.2,0c2,-3.4,4.2,-6.4,6.2,-9.7c-.6,-.9,-1.2,-2.4,-.9,-3.7c.5,1.3,1.6,1.9,2.4,2.9c-.1,.6,-.3,1.2,-.4,1.8c.6,.7,1.3,1.2,2.4,1.4c.4,-.4,.5,-1.3,1.1,-1.5c1,.3,1.9,.7,3.2,.7c.1,.1,.4,.2,.8,.2c.3,0,.7,-.1,.8,-.2c.1,.1,.2,.1,.3,.1c.2,0,.4,-.1,.6,-.2c.2,0,.4,-.1,.5,-.1c.1,0,.3,0,.4,.1c-1.4,.7,-2.2,1.8,-4.2,1.8c-.1,0,-.2,0,-.4,0c-.8,3.7,-1.8,7.3,-2.6,11.1c.5,1.1,1.5,1.7,1.3,3.2c-.5,2.7,-3.9,4.4,-7.2,4.4c-1.3,0,-2.6,-.3,-3.7,-.8c-1,2.1,-2,4.2,-3.2,6.1c-.1,-.4,.3,-.4,.2,-.8c1,-1.8,2,-3.6,2.7,-5.6c-1.1,1.7,-1.9,3.7,-2.8,5.5c-.2,.4,-.4,.8,-.6,1.2c-.3,.5,-.3,1.2,-.8,1.4Z"/></clipPath>
<clipPath id="cg_85"><path d="M839.7,369.1c-4.8,0,-13,-7.3,-5.5,-8.7h1.3c.1,0,.3,0,.5,0c0,0,.1,0,.2,0c0,0,.1,0,.1,0c.3,0,.6,0,.9,.1c3.1,.6,8.2,3.8,7.6,7c-.3,1.2,-1.6,1.6,-3.2,1.6h-1.7q-.1,0,-.2,0Z"/></clipPath>
<style type="text/css"><![CDATA[
.g0_85{
fill: #FEFCF4;
}
.g1_85{
fill: #FFF;
}
.g2_85{
fill: none;
stroke: #6381B7;
stroke-width: 0.763;
}
.g3_85{
fill: #6381B7;
}
.g4_85{
fill: none;
stroke: #6381B7;
stroke-width: 0.381;
stroke-dasharray: 2,1;
}
.g5_85{
fill: none;
stroke: #6381B7;
stroke-width: 0.381;
}
.g6_85{
fill: #FCE8B0;
}
.g7_85{
fill: #25408F;
}
.g8_85{
fill: #A8AAAD;
}
.g9_85{
fill: none;
stroke: #949698;
stroke-width: 0.549;
}
.ga_85{
fill: none;
stroke: #BCBEC0;
stroke-width: 2.566;
}
.gb_85{
fill: #231F20;
}
.gc_85{
fill: #363637;
}
.gd_85{
fill: #5CC4BE;
}
.ge_85{
fill: #F0D73F;
}
.gf_85{
fill: none;
stroke: #949698;
stroke-width: 0.305;
stroke-dasharray: 3,3;
}
.gg_85{
fill: none;
stroke: #949698;
stroke-width: 0.305;
}
.gh_85{
fill: #F7C2D9;
}
.gi_85{
fill: #FDF4F3;
}
.gj_85{
fill: #EC008C;
}
.gk_85{
fill: none;
stroke: #949698;
stroke-width: 0.305;
stroke-dasharray: 4,4;
}
.gl_85{
fill: #6D6F71;
}
.gm_85{
fill: none;
stroke: #FFF;
stroke-width: 1.909;
stroke-miterlimit: 10;
}
.gn_85{
fill: none;
stroke: #000;
stroke-width: 0.381;
stroke-miterlimit: 10;
}
]]></style>
</defs>
<path d="M45.1,1344.3H967.5V32.1H45.1V1344.3Z" class="g0_85"/>
<path d="M172.1,133c0,0,-18.4,0,-18.4,18.3V857.9c0,0,0,18.3,18.4,18.3H849.2c0,0,18.3,0,18.3,-18.3V133Z" class="g1_85"/>
<path d="M172.1,133c0,0,-18.4,0,-18.4,18.3V857.9c0,0,0,18.3,18.4,18.3H849.2c0,0,18.3,0,18.3,-18.3V133H172.1Z" class="g2_85"/>
<path d="M166.7,915.9c0,0,-13,0,-13,13v176.8c0,0,0,13,13,13H854.5c0,0,13,0,13,-13V928.9c0,0,0,-13,-13,-13Z" class="g1_85"/>
<path d="M166.7,915.9c0,0,-13,0,-13,13v176.8c0,0,0,13,13,13H854.5c0,0,13,0,13,-13V928.9c0,0,0,-13,-13,-13H166.7Z" class="g2_85"/>
<path d="M365.2,1136c0,0,-4.3,0,-4.3,4.3v10.8c0,0,0,4.3,4.3,4.3h30.3c0,0,4.4,0,4.4,-4.3v-10.8c0,0,0,-4.3,-4.4,-4.3Z" class="g3_85"/>
<path d="M352,1127.1v37.6m1.4,.9H866.8m.9,-1.3v-37.6m-1.3,-.9H353" class="g4_85"/>
<path d="M352,1165.1v.5h.6m514.5,0h.6v-.5m0,-38.8v-.5h-.6m-514.5,0H352v.5" class="g5_85"/>
<path d="M232.5,188c0,0,-12.9,0,-12.9,13v47.6c0,0,0,13,12.9,13h602c0,0,13,0,13,-13V201c0,0,0,-13,-13,-13Z" class="g6_85"/>
<image clip-path="url(#c0_85)" preserveAspectRatio="none" x="175" y="184" width="75" height="77" xlink:href="img/1.png"/>
<path d="M227.3,254.2c0,0,-26.8,11.4,-51.1,-12.7c0,0,15.2,25.3,49.3,24c0,0,24.8,.3,20.3,-10.2c0,0,1.2,-4.4,-18.5,-1.1Z" class="g6_85"/>
<path d="M231.8,955.1c0,0,-13,0,-13,13v47.6c0,0,0,13,13,13h602c0,0,13,0,13,-13V968.1c0,0,0,-13,-13,-13Z" class="g6_85"/>
<image clip-path="url(#c1_85)" preserveAspectRatio="none" x="175" y="951" width="75" height="77" xlink:href="img/2.png"/>
<path d="M226.6,1021.4c0,0,-26.8,11.3,-51.1,-12.8c0,0,15.2,25.3,49.3,24c0,0,24.7,.3,20.2,-10.1c0,0,1.3,-4.5,-18.4,-1.1Z" class="g6_85"/>
<path d="M153.3,111.9v39L165,161.2V117Z" class="g7_85"/>
<path d="M153.3,111.9v39H851.1c0,0,16.8,0,16.8,-16.8v-5.3c0,0,0,-16.9,-16.8,-16.9Z" class="g3_85"/>
<path d="M802.6,145.6c8.2,0,14.9,-6.5,14.9,-14.5c0,-8.1,-6.7,-14.5,-14.9,-14.5c-8.2,0,-14.9,6.4,-14.9,14.5c0,8,6.7,14.5,14.9,14.5Z" class="g8_85"/>
<path d="M802.6,145.6c8.2,0,14.9,-6.5,14.9,-14.5c0,-8.1,-6.7,-14.5,-14.9,-14.5c-8.2,0,-14.9,6.4,-14.9,14.5c0,8,6.7,14.5,14.9,14.5Z" class="g9_85"/>
<path d="M802.6,136.4c3,0,5.5,-2.4,5.5,-5.3c0,-3,-2.5,-5.4,-5.5,-5.4c-3,0,-5.5,2.4,-5.5,5.4c0,2.9,2.5,5.3,5.5,5.3Z" class="g1_85"/>
<path d="M802.6,136.4c3,0,5.5,-2.4,5.5,-5.3c0,-3,-2.5,-5.4,-5.5,-5.4c-3,0,-5.5,2.4,-5.5,5.4c0,2.9,2.5,5.3,5.5,5.3Z" class="ga_85"/>
<g clip-path="url(#c2_85)" opacity="0.3">
<path d="M788,130.3c0,0,0,-4.8,3.7,-8.7l7.7,6.8c0,0,-1,.9,-1,2.6Z" class="g1_85"/>
</g>
<path d="M807.2,131c0,0,-3.5,0,-3.5,3.4v8.7c0,0,0,3.5,3.5,3.5h43.5c0,0,3.5,0,3.5,-3.5v-8.7c0,0,0,-3.4,-3.5,-3.4Z" class="gb_85"/>
<path d="M191.2,122c0,-8.3,-6.8,-15,-15.1,-15c-8.3,0,-15,6.7,-15,15c0,8.3,6.7,15.1,15,15.1c.8,0,1.7,-.1,2.4,-.2l4.5,5.2v-6.7c4.9,-2.5,8.2,-7.6,8.2,-13.4Z" class="g1_85"/>
<path d="M183.5,143.3l-5.1,-5.9c-.8,.1,-1.5,.1,-2.3,.1c-8.5,0,-15.5,-6.9,-15.5,-15.5c0,-8.5,7,-15.5,15.5,-15.5c8.6,0,15.5,7,15.5,15.5c0,5.7,-3.1,11,-8.1,13.7Zm-4.8,-6.9l3.9,4.5v-5.8l.2,-.1c4.9,-2.5,7.9,-7.5,7.9,-13c0,-8,-6.5,-14.6,-14.6,-14.6c-8,0,-14.6,6.6,-14.6,14.6c0,8.1,6.6,14.6,14.6,14.6c.8,0,1.6,-.1,2.4,-.2Z" class="gc_85"/>
<path d="M169.1,121.6c.8,0,1.4,.6,1.4,1.4c0,.8,-.6,1.5,-1.4,1.5c-.8,0,-1.4,-.7,-1.4,-1.5c0,-.8,.6,-1.4,1.4,-1.4Z" class="gd_85"/>
<path d="M169.1,124.9c-1,0,-1.9,-.8,-1.9,-1.9c0,-1,.9,-1.9,1.9,-1.9c1,0,1.9,.9,1.9,1.9c0,1.1,-.9,1.9,-1.9,1.9m0,-2.9c-.5,0,-1,.5,-1,1c0,.6,.5,1,1,1c.5,0,1,-.4,1,-1c0,-.5,-.5,-1,-1,-1Z" class="gc_85"/>
<path d="M176.1,121.6c.8,0,1.5,.6,1.5,1.4c0,.8,-.7,1.5,-1.5,1.5c-.8,0,-1.4,-.7,-1.4,-1.5c0,-.8,.6,-1.4,1.4,-1.4Z" class="gd_85"/>
<path d="M176.1,124.9c-1,0,-1.9,-.8,-1.9,-1.9c0,-1,.9,-1.9,1.9,-1.9c1.1,0,1.9,.9,1.9,1.9c0,1.1,-.8,1.9,-1.9,1.9m0,-2.9c-.5,0,-1,.5,-1,1c0,.6,.5,1,1,1c.6,0,1,-.4,1,-1c0,-.5,-.4,-1,-1,-1Z" class="gc_85"/>
<path d="M183.1,121.6c.8,0,1.5,.6,1.5,1.4c0,.8,-.7,1.5,-1.5,1.5c-.8,0,-1.4,-.7,-1.4,-1.5c0,-.8,.6,-1.4,1.4,-1.4Z" class="gd_85"/>
<path d="M183.1,124.9c-1,0,-1.9,-.8,-1.9,-1.9c0,-1,.9,-1.9,1.9,-1.9c1.1,0,1.9,.9,1.9,1.9c0,1.1,-.8,1.9,-1.9,1.9m0,-2.9c-.5,0,-1,.5,-1,1c0,.6,.5,1,1,1c.6,0,1,-.4,1,-1c0,-.5,-.4,-1,-1,-1Z" class="gc_85"/>
<path d="M185.1,136.3c0,-9.8,7.8,-17.7,17.6,-17.7c9.7,0,17.6,7.9,17.6,17.7c0,9.7,-7.9,17.6,-17.6,17.6c-1,0,-1.9,-.1,-2.9,-.3l-5.2,6.1v-7.8c-5.7,-2.9,-9.5,-8.8,-9.5,-15.6Z" class="ge_85"/>
<path d="M194.6,160.2q-.1,0,-.2,0c-.2,-.1,-.3,-.3,-.3,-.5v-7.5c-5.9,-3.2,-9.5,-9.2,-9.5,-15.9c0,-10,8.1,-18.1,18.1,-18.1c9.9,0,18,8.1,18,18.1c0,9.9,-8.1,18,-18,18c-.9,0,-1.8,0,-2.7,-.2l-5.1,5.9c-.1,.1,-.2,.2,-.3,.2m8.1,-41.1c-9.5,0,-17.2,7.7,-17.2,17.2c0,6.4,3.6,12.2,9.3,15.2c.1,.1,.2,.2,.2,.4v6.6l4.5,-5.2c.1,-.1,.3,-.1,.4,-.1c1,.1,1.9,.2,2.8,.2c9.4,0,17.1,-7.7,17.1,-17.1c0,-9.5,-7.7,-17.2,-17.1,-17.2Z" class="gc_85"/>
<path d="M210.9,135.8c.9,0,1.6,.7,1.6,1.6c0,1,-.7,1.7,-1.6,1.7c-1,0,-1.7,-.7,-1.7,-1.7c0,-.9,.7,-1.6,1.7,-1.6Z" class="g1_85"/>
<path d="M210.9,139.6c-1.2,0,-2.2,-1,-2.2,-2.2c0,-1.1,1,-2.1,2.2,-2.1c1.1,0,2.1,1,2.1,2.1c0,1.2,-1,2.2,-2.1,2.2m0,-3.4c-.7,0,-1.3,.6,-1.3,1.2c0,.7,.6,1.3,1.3,1.3c.6,0,1.2,-.6,1.2,-1.3c0,-.6,-.6,-1.2,-1.2,-1.2Z" class="gc_85"/>
<path d="M202.7,135.8c.9,0,1.6,.7,1.6,1.6c0,1,-.7,1.7,-1.6,1.7c-1,0,-1.7,-.7,-1.7,-1.7c0,-.9,.7,-1.6,1.7,-1.6Z" class="g1_85"/>
<path d="M202.7,139.6c-1.2,0,-2.2,-1,-2.2,-2.2c0,-1.1,1,-2.1,2.2,-2.1c1.1,0,2.1,1,2.1,2.1c0,1.2,-1,2.2,-2.1,2.2m0,-3.4c-.7,0,-1.3,.6,-1.3,1.2c0,.7,.6,1.3,1.3,1.3c.6,0,1.2,-.6,1.2,-1.3c0,-.6,-.6,-1.2,-1.2,-1.2Z" class="gc_85"/>
<path d="M194.5,135.8c.9,0,1.6,.7,1.6,1.6c0,1,-.7,1.7,-1.6,1.7c-1,0,-1.7,-.7,-1.7,-1.7c0,-.9,.7,-1.6,1.7,-1.6Z" class="g1_85"/>
<path d="M194.5,139.6c-1.2,0,-2.2,-1,-2.2,-2.2c0,-1.1,1,-2.1,2.2,-2.1c1.1,0,2.1,1,2.1,2.1c0,1.2,-1,2.2,-2.1,2.2m0,-3.4c-.7,0,-1.2,.6,-1.2,1.2c0,.7,.5,1.3,1.2,1.3c.6,0,1.2,-.6,1.2,-1.3c0,-.6,-.6,-1.2,-1.2,-1.2Z" class="gc_85"/>
<path d="M456.6,493.3c14.7,-1.1,26.3,-7.5,28.6,-15.7m-.5,-7.3c-3.3,-7.8,-15.1,-13.7,-29.5,-14.4m-7.5,0c-14.6,1.2,-26.3,7.6,-28.5,15.8m.4,7.3c3.3,7.8,15.1,13.7,29.6,14.4" class="gf_85"/>
<path d="M485.5,476.1c0,-.5,.1,-1,.1,-1.5c0,-.5,-.1,-1,-.1,-1.4M453.7,455.8c-.5,0,-1,0,-1.5,0c-.5,0,-1,0,-1.5,0m-31.8,17.4c-.1,.4,-.1,.9,-.1,1.4c0,.5,0,1,.1,1.5m31.8,17.4c.5,0,1,0,1.5,0c.5,0,1,0,1.5,0" class="gg_85"/>
<image clip-path="url(#c3_85)" preserveAspectRatio="none" x="73" y="398" width="204" height="302" xlink:href="img/3.png"/>
<path d="M85.8,402.7L78.4,691.5l187.9,2.4l4.2,-285.7Z" class="gh_85"/>
<image clip-path="url(#c4_85)" preserveAspectRatio="none" x="75" y="398" width="205" height="303" xlink:href="img/4.png"/>
<image clip-path="url(#c5_85)" preserveAspectRatio="none" x="75" y="398" width="205" height="302" xlink:href="img/5.png"/>
<path d="M79.9,409.1l8,285L241.3,688l32.3,-24.1l-7.2,-262Z" class="gi_85"/>
<path d="M242,688.9L274.8,663l-17.5,-8.9Z" class="gj_85"/>
<path d="M429.9,455.4C415.7,441.5,355.7,386.4,279,373m-7.5,.8c-2.3,2.8,-.7,8.5,4.3,7.9m5.5,-4.5c-.6,-6.3,-17.5,-16.2,-34.5,-19.4m-7.5,-.9c-21.4,-1.6,-99.9,-2.2,-132.1,53.4" class="gk_85"/>
<path d="M433.1,458.7c0,0,-.4,-.4,-1,-1.1M277.5,372.7c-.5,-.1,-1,-.1,-1.5,-.2c-.6,-.1,-1.1,-.1,-1.6,-.1m3,9c.5,-.2,1,-.4,1.5,-.7c.5,-.2,.9,-.5,1.3,-.8M245.4,357.6c-.5,-.1,-1,-.2,-1.5,-.3c-.4,0,-.9,-.1,-1.5,-.2m-136,54.6c-.2,.4,-.5,.9,-.7,1.3" class="gg_85"/>
<path d="M112.9,409.6l-7.3,-5.1l-2.7,11.9Z" class="gl_85"/>
<image clip-path="url(#c6_85)" x="172" y="410" width="5" height="9" xlink:href="shade/1.png"/>
<image clip-path="url(#c7_85)" x="171" y="383" width="24" height="28" xlink:href="shade/2.png"/>
<image clip-path="url(#c8_85)" x="171" y="385" width="23" height="34" xlink:href="shade/3.png"/>
<image clip-path="url(#c9_85)" x="176" y="382" width="20" height="9" xlink:href="shade/4.png"/>
<path d="M507.2,549.2c19.6,-1,35.4,-7.4,38.6,-15.7m-1,-8.2c-.9,-1.4,-2.1,-2.7,-3.7,-3.9M534,517.3c-7.3,-3.3,-17.3,-5.4,-28.5,-5.7m-7.9,0c-19.6,1,-35.4,7.4,-38.6,15.7m.7,7.7c4.5,7.8,20.3,13.6,39.5,14.2" class="gk_85"/>
<path d="M546.3,532c.1,-.5,.1,-1.1,.1,-1.6c0,-.6,0,-1.2,-.2,-1.8m-6.5,-8.2c-.5,-.4,-1,-.7,-1.6,-1c-.4,-.3,-.8,-.5,-1.3,-.8m-32.9,-7c-.5,-.1,-1,-.1,-1.5,-.1c-.5,0,-1.1,0,-1.6,.1m-42.3,17.2c-.1,.5,-.1,1.1,-.1,1.6c0,.5,0,1.1,.1,1.6m42.3,17.3c.5,0,1.1,0,1.6,0c.5,0,1.1,0,1.6,0" class="gg_85"/>
<image clip-path="url(#ca_85)" preserveAspectRatio="none" x="707" y="383" width="220" height="321" xlink:href="img/6.png"/>
<path d="M712.9,387.1l.7,308.8l207.1,1.7L920,388.4Z" class="gh_85"/>
<image clip-path="url(#cb_85)" preserveAspectRatio="none" x="696" y="378" width="237" height="328" xlink:href="img/7.png"/>
<image clip-path="url(#cc_85)" preserveAspectRatio="none" x="696" y="378" width="237" height="328" xlink:href="img/8.png"/>
<path d="M719.6,382.5L701,687.4L880.5,699l30.1,-24.4L927.8,395.8Z" class="gi_85"/>
<path d="M880.9,699L911,674.4l-14.9,-9.5Z" class="gj_85"/>
<path d="M543.5,524.1c0,0,68.1,-48,172.4,-25.6" class="gk_85"/>
<path d="M714.7,494.2l-1.4,8.7l11.9,-2.7Z" class="gl_85"/>
<image clip-path="url(#cd_85)" x="821" y="388" width="6" height="9" xlink:href="shade/5.png"/>
<image clip-path="url(#ce_85)" x="821" y="362" width="24" height="28" xlink:href="shade/6.png"/>
<image clip-path="url(#cf_85)" x="821" y="364" width="23" height="33" xlink:href="shade/7.png"/>
<image clip-path="url(#cg_85)" x="826" y="360" width="20" height="10" xlink:href="shade/8.png"/>
<path d="M32.1,45.1H9.2m958.3,0h22.9M32.1,1331.3H9.2m958.3,0h22.9M45.1,32.1V9.2m0,1335.1v22.9M954.5,32.1V9.2m0,1335.1v22.9" class="gm_85"/>
<path d="M32.1,45.1H9.2m958.3,0h22.9M32.1,1331.3H9.2m958.3,0h22.9M45.1,32.1V9.2m0,1335.1v22.9M954.5,32.1V9.2m0,1335.1v22.9" class="gn_85"/>
<path d="M27.5,32.1H0m972.1,0h27.5M27.5,1344.3H0m972.1,0h27.5M32.1,27.5V0m0,1348.9v27.5M967.5,27.5V0m0,1348.9v27.5" class="gm_85"/>
<path d="M27.5,32.1H0m972.1,0h27.5M27.5,1344.3H0m972.1,0h27.5M32.1,27.5V0m0,1348.9v27.5M967.5,27.5V0m0,1348.9v27.5" class="gn_85"/>
</svg>