<?xml version="1.0" encoding="UTF-8" standalone="no"?>
<!DOCTYPE svg PUBLIC "-//W3C//DTD SVG 1.1//EN"
"http://www.w3.org/Graphics/SVG/1.1/DTD/svg11.dtd">
<svg viewBox="0 0 999 1376" version="1.1" xmlns="http://www.w3.org/2000/svg" xmlns:xlink="http://www.w3.org/1999/xlink">
<defs>
<clipPath id="c0_101"><path d="M154.8,1244.7V131.7H869.3v1113Z"/></clipPath>
<clipPath id="c1_101"><path d="M616.7,710.4V502.6H839.8V710.4Z"/></clipPath>
<clipPath id="c2_101"><path d="M618.8,709.5v-207H831.9v207Z"/></clipPath>
<clipPath id="c3_101"><path d="M751.7,709.5v-207h88.6v207Z"/></clipPath>
<clipPath id="c4_101"><path d="M616.7,460.8V257.3H839.8V460.8Z"/></clipPath>
<clipPath id="c5_101"><path d="M618.8,460.5V257.3H840.3V460.5Z"/></clipPath>
<clipPath id="c6_101"><path d="M616.7,1209.7V1001.8H839.8v207.9Z"/></clipPath>
<clipPath id="c7_101"><path d="M618.8,1208.3v-207H840.3v207Z"/></clipPath>
<clipPath id="c8_101"><path d="M616.7,960V752.2H839.8V960Z"/></clipPath>
<clipPath id="c9_101"><path d="M618.8,959.3v-207H840.3v207Z"/></clipPath>
<style type="text/css"><![CDATA[
.g0_101{
fill: #FFF;
}
.g1_101{
fill: none;
stroke: #231F20;
stroke-width: 0.756;
stroke-miterlimit: 3;
}
.g2_101{
fill: #C3E7EF;
}
.g3_101{
fill: #25408F;
}
.g4_101{
fill: #6381B7;
}
.g5_101{
fill: #FFDE2C;
}
.g6_101{
fill: none;
stroke: #231F20;
stroke-width: 1.451;
stroke-miterlimit: 10;
}
.g7_101{
fill: #D2D3D5;
}
.g8_101{
fill: #A8AAAD;
}
.g9_101{
fill: none;
stroke: #231F20;
stroke-width: 0.828;
stroke-miterlimit: 10;
}
.ga_101{
fill: #6CCFF6;
}
.gb_101{
fill: none;
stroke: #231F20;
stroke-width: 0.828;
stroke-linecap: round;
stroke-linejoin: round;
}
.gc_101{
fill: none;
stroke: #231F20;
stroke-width: 1.451;
stroke-linecap: round;
stroke-linejoin: round;
}
.gd_101{
fill: none;
stroke: #FFF;
stroke-width: 1.909;
stroke-miterlimit: 10;
}
.ge_101{
fill: none;
stroke: #000;
stroke-width: 0.381;
stroke-miterlimit: 10;
}
]]></style>
</defs>
<path d="M154.8,1244.7H869.3V131.7H154.8v1113Z" class="g0_101"/>
<image clip-path="url(#c0_101)" preserveAspectRatio="none" x="152" y="130" width="719" height="1117" xlink:href="img/1.jpg"/>
<path d="M433.2,180.4c-.3,.6,-.8,1.1,-1.3,1.6c-.5,.4,-1.1,.7,-1.9,1c-.7,.2,-1.4,.3,-2.2,.3c-.8,0,-1.5,-.1,-2.2,-.3c-.7,-.2,-1.4,-.6,-1.9,-1c-.5,-.4,-1,-1,-1.3,-1.6c-.3,-.6,-.4,-1.2,-.4,-2c0,-.7,.1,-1.4,.4,-2c.3,-.6,.7,-1.1,1.3,-1.5c.5,-.5,1.1,-.8,1.8,-1c.7,-.3,1.5,-.4,2.3,-.4c.8,0,1.6,.1,2.3,.4c.7,.2,1.4,.5,1.9,1c.5,.4,.9,.9,1.2,1.5c.3,.6,.5,1.3,.5,2c0,.7,-.2,1.4,-.5,2ZM444.7,178h-4.3v7.9h-2.3V168.4h2.3v7.7h4.3V178Zm-17,14.9c-.9,0,-1.5,-.2,-1.9,-.6c-.4,-.4,-.5,-.9,-.5,-1.6v-5.2h2.2v4.8c0,.2,.1,.4,.2,.6c.1,.1,.3,.2,.7,.2h7.1c1,0,2,-.1,2.8,-.2c.9,-.1,1.8,-.4,2.7,-.7l.5,1.8c-1.1,.3,-2.1,.5,-3,.6c-.9,.2,-1.9,.3,-3,.3h-7.8Zm2.6,-16.8c-.7,-.6,-1.5,-.8,-2.5,-.8c-1,0,-1.8,.2,-2.5,.8c-.7,.5,-1.1,1.3,-1.1,2.3c0,1,.4,1.8,1.1,2.4c.7,.5,1.5,.8,2.5,.8c1,0,1.8,-.3,2.5,-.8c.8,-.6,1.1,-1.4,1.1,-2.4c0,-1,-.3,-1.8,-1.1,-2.3Zm4.8,-3.5H420.6v-1.7H426c.3,-.4,.4,-.8,.5,-1.1c.1,-.3,.1,-.6,.1,-1c0,-.1,0,-.2,0,-.4c0,-.1,-.1,-.2,-.1,-.3c0,-.1,0,-.2,-.1,-.3c0,0,0,-.1,0,-.2l2.1,-.7c.1,.3,.2,.6,.2,.9c.1,.2,.1,.6,.1,.9c0,.4,-.1,.8,-.2,1.1c-.1,.4,-.2,.7,-.4,1.1h6.9v1.7Zm31.9,7.2H456.9V184h4.9c.8,0,1.4,.2,1.7,.6c.3,.4,.4,1,.4,1.7l-.3,6.8h-2v-6.5c0,-.3,0,-.5,-.1,-.6c-.2,-.1,-.3,-.2,-.6,-.2H448.1V184h6.5v-4.2h-8.9V178h15.1c.3,-1.1,.5,-2.3,.6,-3.6c.2,-1.2,.2,-2.4,.2,-3.5c0,-.3,-.1,-.4,-.2,-.6c-.1,-.1,-.3,-.1,-.6,-.1H448.5v-1.8h13c.8,0,1.4,.1,1.7,.4c.4,.4,.6,.9,.6,1.6c0,1.1,0,2.3,-.2,3.7c-.2,1.4,-.4,2.6,-.6,3.9h4v1.8Zm15.8,-2c-.3,.8,-.8,1.5,-1.3,2c-.6,.5,-1.3,.9,-2.1,1.2c-.8,.3,-1.7,.5,-2.7,.5c-.9,0,-1.8,-.2,-2.6,-.5c-.8,-.3,-1.5,-.7,-2.1,-1.2c-.6,-.5,-1,-1.2,-1.4,-2c-.3,-.8,-.4,-1.6,-.4,-2.6c0,-.9,.1,-1.7,.4,-2.5c.4,-.8,.8,-1.4,1.4,-2c.6,-.5,1.3,-1,2.1,-1.3c.8,-.3,1.7,-.4,2.6,-.4c1,0,1.9,.1,2.7,.4c.8,.3,1.5,.8,2.1,1.3c.5,.6,1,1.2,1.3,2c.3,.8,.5,1.6,.5,2.5c0,1,-.2,1.8,-.5,2.6Zm6.5,13.5H487v-5.6c-1.2,.7,-2.4,1.1,-3.6,1.4c-1.3,.3,-2.8,.5,-4.4,.5h-9.9v-1.8h9.8c1.4,0,2.8,-.2,4.1,-.5c1.3,-.3,2.7,-.9,4,-1.7V168.7h2.3v22.6ZM479.8,172c-.8,-.8,-1.8,-1.2,-3.1,-1.2c-1.2,0,-2.2,.4,-3.1,1.2c-.8,.8,-1.2,1.9,-1.2,3.2c0,1.5,.4,2.6,1.2,3.3c.9,.8,1.9,1.1,3.1,1.1c1.3,0,2.3,-.3,3.1,-1.1c.8,-.7,1.2,-1.8,1.2,-3.3c0,-1.3,-.4,-2.4,-1.2,-3.2Zm22.4,-3H515c.5,0,.9,.2,1,.7c.2,.4,.2,.8,0,1.2c-.4,.7,-.8,1.3,-1.3,2c-.6,.6,-1.2,1.2,-1.8,1.8c.6,.1,1.1,.3,1.5,.5c.3,.2,.7,.4,1,.6c.5,.5,1.1,1,1.7,1.5c.5,.5,1.1,1,1.7,1.5l-1.3,1.5c-.7,-.6,-1.3,-1.1,-1.8,-1.6c-.5,-.4,-1,-.8,-1.5,-1.2c-.3,-.2,-.7,-.5,-1.2,-.8c-.5,-.3,-1.1,-.5,-1.9,-.6c-1.3,.8,-2.7,1.6,-4.2,2.3c-1.5,.7,-3.1,1.2,-4.6,1.7l-.6,-1.9c2.7,-.8,5,-1.8,6.9,-2.9c1.8,-1.1,3.5,-2.6,4.9,-4.4H502.2V169Zm6.7,23.1v-7.6h-9.5v-1.8h21.3v1.8h-9.5v7.6h-2.3Zm30.7,-.8V178.9h-5.8V177h5.8v-8.3h2.3v22.6h-2.3ZM522.9,185c2.8,-1.8,4.9,-3.8,6.5,-6c1.6,-2.2,2.5,-4.4,2.8,-6.6c0,-.4,0,-.6,-.2,-.7c-.1,-.1,-.3,-.1,-.5,-.1h-8.8v-1.9h9.7c.8,0,1.4,.2,1.7,.7c.3,.5,.4,1.1,.3,1.8c-.3,2.6,-1.3,5.1,-2.9,7.6c-1.7,2.5,-4.1,4.9,-7.3,7.1L522.9,185Zm49.1,5.5c-.3,.6,-.8,1.2,-1.3,1.7c-.6,.5,-1.3,.9,-2.1,1.2c-.8,.2,-1.6,.4,-2.4,.4c-.9,0,-1.7,-.2,-2.5,-.4c-.8,-.3,-1.5,-.7,-2,-1.2c-.6,-.5,-1.1,-1.1,-1.4,-1.7c-.4,-.7,-.5,-1.5,-.5,-2.3c0,-.9,.1,-1.6,.5,-2.3c.3,-.7,.8,-1.3,1.4,-1.8c.5,-.5,1.2,-.9,2,-1.2c.8,-.3,1.6,-.4,2.5,-.4c.6,0,1.2,.1,1.8,.2c.6,.2,1.1,.4,1.6,.6c.5,-.6,.9,-1.1,1.1,-1.8c.1,-.6,.2,-1.3,.2,-2v-.4h-3.8v-1.7h3.8v-2.7h-3.8v-1.8h3.8v-4.5h2.2v11.2c0,1,-.1,1.8,-.4,2.6c-.3,.8,-.8,1.5,-1.6,2.2c.4,.5,.8,1.1,1.1,1.7c.2,.6,.4,1.3,.4,2.1c0,.8,-.2,1.6,-.6,2.3Zm-4.9,-18.2h-2.9c.5,.5,.8,1,1.1,1.6c.2,.6,.4,1.2,.4,1.9c0,1.4,-.6,2.6,-1.6,3.6c-1.1,.9,-2.4,1.4,-4.2,1.4c-1.8,0,-3.2,-.5,-4.2,-1.4c-1.1,-1,-1.6,-2.2,-1.6,-3.6c0,-.7,.2,-1.3,.4,-1.9c.2,-.6,.6,-1.1,1.1,-1.6h-2.9v-1.7h5.7c.2,-.3,.3,-.7,.3,-1c.1,-.4,.1,-.7,.1,-1c0,-.2,-.1,-.5,-.1,-.7c-.1,-.2,-.2,-.4,-.3,-.6l2.2,-.7c0,.2,0,.3,.1,.4c0,.2,.1,.3,.1,.5c0,.2,.1,.3,.1,.5c0,.2,.1,.3,.1,.5c0,.4,-.1,.7,-.2,1.1c-.1,.3,-.2,.7,-.4,1h6.7v1.7Zm2.1,13c-.8,-.7,-1.8,-1,-3,-1c-1.2,0,-2.2,.3,-3,1c-.8,.8,-1.2,1.7,-1.2,2.9c0,1.1,.4,2.1,1.2,2.8c.8,.6,1.8,1,3,1c1.2,0,2.2,-.4,3,-1c.7,-.7,1.1,-1.7,1.1,-2.8c0,-1.2,-.4,-2.1,-1.1,-2.9Zm-6.5,-11.8c-.6,-.7,-1.5,-1,-2.8,-1c-1.3,0,-2.2,.3,-2.8,1c-.5,.7,-.8,1.4,-.8,2.3c0,.8,.3,1.6,.8,2.3c.6,.6,1.5,.9,2.8,.9c1.3,0,2.2,-.3,2.8,-.9c.5,-.7,.8,-1.5,.8,-2.3c0,-.9,-.3,-1.6,-.8,-2.3Zm26.8,17.2v-6.6c-.5,.3,-1.1,.5,-1.8,.7c-.6,.2,-1.2,.4,-1.9,.5c-.7,.2,-1.3,.3,-1.9,.3c-.6,.1,-1.2,.1,-1.7,.1h-2.4c-.8,0,-1.5,-.1,-2.1,-.5c-.5,-.4,-.8,-1.1,-.8,-2V169.7H587v1.9h-7.8v5.2h7.5v1.9h-7.5V183c0,.4,.1,.6,.2,.7c.2,.1,.4,.2,.7,.2h2c1.2,0,2.5,-.1,3.8,-.4c1.3,-.3,2.5,-.7,3.6,-1.4V168.7h2.3V177h4v-8.3H598v22.6h-2.2V179h-4v11.7h-2.3Z" class="g1_101"/>
<path clip-path="url(#c1_101)" d="M601,234.4c0,0,-10.2,0,-10.2,10.2v958c0,0,0,10.2,10.2,10.2h671.7c0,0,10.2,0,10.2,-10.2v-958c0,0,0,-10.2,-10.2,-10.2H601Z" class="g2_101"/>
<image clip-path="url(#c2_101)" preserveAspectRatio="none" x="618" y="500" width="213" height="210" xlink:href="img/2.jpg"/>
<image clip-path="url(#c3_101)" preserveAspectRatio="none" x="751" y="500" width="134" height="210" xlink:href="img/3.jpg"/>
<path clip-path="url(#c4_101)" d="M601,223c0,0,-10.2,0,-10.2,10.2v958c0,0,0,10.1,10.2,10.1h671.7c0,0,10.2,0,10.2,-10.1v-958c0,0,0,-10.2,-10.2,-10.2H601Z" class="g2_101"/>
<image clip-path="url(#c5_101)" preserveAspectRatio="none" x="618" y="252" width="267" height="210" xlink:href="img/4.jpg"/>
<path clip-path="url(#c6_101)" d="M601,259.5c0,0,-10.2,0,-10.2,10.1v958c0,0,0,10.2,10.2,10.2h671.7c0,0,10.2,0,10.2,-10.2v-958c0,0,0,-10.1,-10.2,-10.1H601Z" class="g2_101"/>
<image clip-path="url(#c7_101)" preserveAspectRatio="none" x="618" y="999" width="267" height="210" xlink:href="img/5.jpg"/>
<path clip-path="url(#c8_101)" d="M601,248c0,0,-10.2,0,-10.2,10.2v958c0,0,0,10.1,10.2,10.1h671.7c0,0,10.2,0,10.2,-10.1v-958c0,0,0,-10.2,-10.2,-10.2H601Z" class="g2_101"/>
<image clip-path="url(#c9_101)" preserveAspectRatio="none" x="618" y="751" width="267" height="210" xlink:href="img/6.jpg"/>
<path d="M153.3,126.3v22.2L165,158.7V136.5Z" class="g3_101"/>
<path d="M153.3,109.5v39H851.1c0,0,16.8,0,16.8,-16.8v-5.4c0,0,0,-16.8,-16.8,-16.8Z" class="g4_101"/>
<path d="M207.2,115.7c0,-9.1,-7.9,-16.6,-17.7,-16.6c-9.8,0,-17.7,7.5,-17.7,16.6c0,2.7,.6,5.2,1.8,7.4c1.2,2.4,2.9,4.6,5,6.2c1.2,1,1.6,1.7,1.7,4.3v.6c0,3.3,2.7,5.9,5.9,5.9h6.6c3.2,0,5.8,-2.6,5.8,-5.9v-.6c.2,-2.6,.6,-3.3,1.8,-4.3c2.1,-1.6,3.8,-3.8,5,-6.2c1.2,-2.2,1.8,-4.7,1.8,-7.4Z" class="g5_101"/>
<path d="M207.2,115.7c0,-9.1,-7.9,-16.6,-17.7,-16.6c-9.8,0,-17.7,7.5,-17.7,16.6c0,2.7,.6,5.2,1.8,7.4c1.2,2.4,2.9,4.6,5,6.2c1.2,1,1.6,1.7,1.7,4.3v.6c0,3.3,2.7,5.9,5.9,5.9h6.6c3.2,0,5.8,-2.6,5.8,-5.9v-.6c.2,-2.6,.6,-3.3,1.8,-4.3c2.1,-1.6,3.8,-3.8,5,-6.2c1.2,-2.2,1.8,-4.7,1.8,-7.4Z" class="g6_101"/>
<path d="M194.6,147.4c0,2.8,-2.3,5.1,-5.1,5.1c-2.8,0,-5.1,-2.3,-5.1,-5.1c0,-2.8,2.3,-5.1,5.1,-5.1c2.8,0,5.1,2.3,5.1,5.1Z" class="g0_101"/>
<path d="M194.6,147.4c0,2.8,-2.3,5.1,-5.1,5.1c-2.8,0,-5.1,-2.3,-5.1,-5.1c0,-2.8,2.3,-5.1,5.1,-5.1c2.8,0,5.1,2.3,5.1,5.1Z" class="g6_101"/>
<path d="M182.1,140.2c0,1,.8,1.8,1.8,1.8h11.2c1,0,1.8,-.8,1.8,-1.8v-1.3H182.1Z" class="g0_101"/>
<path d="M182.1,140.2c0,1,.8,1.8,1.8,1.8h11.2c1,0,1.8,-.8,1.8,-1.8v-1.3H182.1v1.3Z" class="g6_101"/>
<path d="M196.9,143.2c0,.8,-.6,1.3,-1.3,1.3H183.4c-.8,0,-1.3,-.5,-1.3,-1.3c0,-.7,.5,-1.3,1.3,-1.3h12.2c.7,0,1.3,.6,1.3,1.3Z" class="g0_101"/>
<path d="M196.9,143.2c0,.8,-.6,1.3,-1.3,1.3H183.4c-.8,0,-1.3,-.5,-1.3,-1.3c0,-.7,.5,-1.3,1.3,-1.3h12.2c.7,0,1.3,.6,1.3,1.3Z" class="g6_101"/>
<path d="M196.9,145.8c0,.7,-.6,1.3,-1.3,1.3H183.4c-.8,0,-1.3,-.6,-1.3,-1.3c0,-.7,.5,-1.3,1.3,-1.3h12.2c.7,0,1.3,.6,1.3,1.3Z" class="g0_101"/>
<path d="M196.9,145.8c0,.7,-.6,1.3,-1.3,1.3H183.4c-.8,0,-1.3,-.6,-1.3,-1.3c0,-.7,.5,-1.3,1.3,-1.3h12.2c.7,0,1.3,.6,1.3,1.3Z" class="g6_101"/>
<path d="M215.5,128.7l8.3,10.4c.6,.7,1.8,.6,2.7,-.2c.9,-.7,1.2,-1.9,.7,-2.6l-8.9,-10.2Z" class="g7_101"/>
<path d="M215.5,128.7l8.3,10.4c.6,.7,1.8,.6,2.7,-.2c.9,-.7,1.2,-1.9,.7,-2.6l-8.9,-10.2l-2.8,2.6Z" class="g6_101"/>
<path d="M217.5,125.1c.5,.6,.3,1.8,-.7,2.6c-.9,.7,-2.1,.8,-2.6,.2c-.6,-.7,-.3,-1.9,.6,-2.6c.9,-.8,2.1,-.9,2.7,-.2Z" class="g8_101"/>
<path d="M217.5,125.1c.5,.6,.3,1.8,-.7,2.6c-.9,.7,-2.1,.8,-2.6,.2c-.6,-.7,-.3,-1.9,.6,-2.6c.9,-.8,2.1,-.9,2.7,-.2Z" class="g6_101"/>
<path d="M212.7,124.7l1.7,2c.3,.3,1,.3,1.5,-.1c.5,-.5,.7,-1.1,.4,-1.5l-1.7,-2Z" class="g0_101"/>
<path d="M212.7,124.7l1.7,2c.3,.3,1,.3,1.5,-.1c.5,-.5,.7,-1.1,.4,-1.5l-1.7,-2l-1.9,1.6Z" class="g9_101"/>
<path d="M214.8,122.9c.4,.5,.2,1.3,-.5,1.8c-.6,.5,-1.4,.6,-1.8,.1c-.4,-.4,-.2,-1.2,.5,-1.7c.6,-.6,1.4,-.6,1.8,-.2Z" class="g0_101"/>
<path d="M214.8,122.9c.4,.5,.2,1.3,-.5,1.8c-.6,.5,-1.4,.6,-1.8,.1c-.4,-.4,-.2,-1.2,.5,-1.7c.6,-.6,1.4,-.6,1.8,-.2Z" class="g9_101"/>
<path d="M216.4,105.4c4.8,5.7,4.1,14.2,-1.7,19c-5.7,4.8,-14.2,4,-19,-1.7c-4.8,-5.7,-4,-14.2,1.7,-19c5.7,-4.8,14.2,-4.1,19,1.7Z" class="g0_101"/>
<path d="M216.4,105.4c4.8,5.7,4.1,14.2,-1.7,19c-5.7,4.8,-14.2,4,-19,-1.7c-4.8,-5.7,-4,-14.2,1.7,-19c5.7,-4.8,14.2,-4.1,19,1.7Z" class="g6_101"/>
<path d="M214,107.4c3.5,4.2,3,10.5,-1.3,14.1c-4.2,3.5,-10.5,2.9,-14,-1.3c-3.5,-4.2,-3,-10.5,1.2,-14c4.2,-3.6,10.5,-3,14.1,1.2Z" class="ga_101"/>
<path d="M214,107.4c3.5,4.2,3,10.5,-1.3,14.1c-4.2,3.5,-10.5,2.9,-14,-1.3c-3.5,-4.2,-3,-10.5,1.2,-14c4.2,-3.6,10.5,-3,14.1,1.2Z" class="g6_101"/>
<path d="M213,110.6l-3.1,3m3.1,-.4l-3.1,3" class="gb_101"/>
<path d="M172.1,99l3.1,3.3m1.1,-5.9l1.2,3.9m-8.1,3l3.7,1.2" class="gc_101"/>
<path d="M185.8,106.1c1.2,1.2,.2,4.3,-2.2,6.7c-2.5,2.5,-5.5,3.5,-6.8,2.3c-1.2,-1.3,-.3,-4.3,2.2,-6.8c2.5,-2.5,5.5,-3.5,6.8,-2.2Z" class="g0_101"/>
<path d="M203.7,107.6c.6,.6,.1,1.9,-.9,3c-1.1,1,-2.4,1.5,-3,.9c-.5,-.5,-.1,-1.8,1,-2.9c1.1,-1.1,2.4,-1.5,2.9,-1Z" class="g0_101"/>
<path d="M32.1,45.1H9.2m958.3,0h22.9M32.1,1331.3H9.2m958.3,0h22.9M45.1,32.1V9.2m0,1335.1v22.9M954.5,32.1V9.2m0,1335.1v22.9" class="gd_101"/>
<path d="M32.1,45.1H9.2m958.3,0h22.9M32.1,1331.3H9.2m958.3,0h22.9M45.1,32.1V9.2m0,1335.1v22.9M954.5,32.1V9.2m0,1335.1v22.9" class="ge_101"/>
<path d="M27.5,32.1H0m972.1,0h27.5M27.5,1344.3H0m972.1,0h27.5M32.1,27.5V0m0,1348.9v27.5M967.5,27.5V0m0,1348.9v27.5" class="gd_101"/>
<path d="M27.5,32.1H0m972.1,0h27.5M27.5,1344.3H0m972.1,0h27.5M32.1,27.5V0m0,1348.9v27.5M967.5,27.5V0m0,1348.9v27.5" class="ge_101"/>
</svg>