<?xml version="1.0" encoding="UTF-8" standalone="no"?>
<!DOCTYPE svg PUBLIC "-//W3C//DTD SVG 1.1//EN"
"http://www.w3.org/Graphics/SVG/1.1/DTD/svg11.dtd">
<svg viewBox="0 0 999 1376" version="1.1" xmlns="http://www.w3.org/2000/svg" xmlns:xlink="http://www.w3.org/1999/xlink">
<defs>
<clipPath id="c0_178"><path d="M32.1,1344.3V32.1H967.5V1344.3Z"/></clipPath>
<clipPath id="c1_178"><path d="M719.6,874.2v-225H912.1v225Z"/></clipPath>
<clipPath id="c2_178"><path d="M713.7,875.8v-231H917.8v231Z"/></clipPath>
<clipPath id="c3_178"><path d="M713.4,875.5v-231H917.5v231Z"/></clipPath>
<clipPath id="c4_178"><path d="M65.9,877.8V611H278.8V877.8Z"/></clipPath>
<clipPath id="c5_178"><path d="M62.3,877.1V609.3H280.7V877.1Z"/></clipPath>
<clipPath id="c6_178"><path d="M62,876.8V609H280.4V876.8Z"/></clipPath>
<clipPath id="c7_178"><path d="M177,534l-6.5,-2.2L154.1,517.9V460.8h72V534Z"/></clipPath>
<clipPath id="c8_178"><path d="M177,1095.8l-6.5,-2.2l-16.4,-13.9v-57.1h72v73.2Z"/></clipPath>
<clipPath id="c9_178"><path d="M764.8,432.7V420.3h14.5v12.4Z"/></clipPath>
<clipPath id="ca_178"><path d="M160.1,630.3c-.2,-.1,3.6,-8.3,3.6,-8.3l.7,.6c0,0,-4,7.7,-4.3,7.7Z"/></clipPath>
<clipPath id="cb_178"><path d="M167.6,622.5c0,0,-6.8,-1.1,-7.6,-5.2c-.6,-3.6,1.6,-3.8,2.1,-3.8q.1,0,.1,0l8.4,-12.8l-1.5,-3c0,0,-.6,-1.2,.1,-2.1c.1,-.1,.2,-.1,.3,-.1c2.1,0,13,5.5,13,5.5l.1,.2c-.4,.5,-.8,1.1,-1.4,1.6c-.7,.5,-5.1,1.2,-5.1,1.2l-8.5,18.5Z"/></clipPath>
<clipPath id="cc_178"><path d="M167.2,622.2c.2,-.5,.2,-1.8,0,-2.3v-1.4c-1.5,-.5,-2.9,-1.2,-3.6,-2.5c-1.1,.6,-2.2,1.2,-3.2,1.9c1.6,2.1,3.8,3.6,6.8,4.3Zm0,-3.9c2.2,-4.6,4,-9.5,6.2,-14.1c-.9,-.4,-1.9,-1.3,-2.7,-1.4c-2.3,4.4,-4.6,8.7,-7,12.8c.7,1.4,2.1,2.1,3.5,2.7Zm-7.3,12c1.1,-2.8,2.4,-5.4,3.5,-8.2c-1.9,-1.6,-3.9,-3.2,-4.4,-6.2v-1.5c0,-2.7,2,-3.4,4.6,-3.4q.1,0,.2,0c2,-3.3,4.2,-6.3,6.2,-9.7c-.6,-.8,-1.2,-2.3,-.9,-3.6c.5,1.2,1.6,1.9,2.4,2.9c-.1,.6,-.3,1.1,-.4,1.7c.6,.7,1.3,1.2,2.4,1.4c.4,-.4,.5,-1.2,1.1,-1.5c1,.4,1.9,.7,3.2,.7c.1,.2,.4,.2,.8,.2c.3,0,.7,0,.8,-.2c.1,.1,.2,.1,.3,.1c.2,0,.4,-.1,.6,-.1c.2,-.1,.4,-.2,.5,-.2c.1,0,.3,.1,.4,.1c-1.4,.7,-2.2,1.8,-4.2,1.8c-.1,0,-.2,0,-.4,0c-.8,3.7,-1.8,7.3,-2.6,11.2c.5,1,1.5,1.7,1.2,3.1c-.4,2.7,-3.8,4.4,-7.1,4.4c-1.3,0,-2.6,-.2,-3.7,-.7c-1,2.1,-2,4.1,-3.2,6c-.1,-.4,.3,-.4,.2,-.8c1,-1.8,2,-3.6,2.7,-5.6c-1.1,1.7,-1.9,3.7,-2.8,5.5c-.2,.4,-.4,.8,-.6,1.3c-.3,.4,-.3,1.1,-.8,1.3Z"/></clipPath>
<clipPath id="cd_178"><path d="M177.7,602.6c-4.8,0,-13.1,-7.3,-5.6,-8.8h1.3c.1,0,.3,0,.5,0c0,0,.1,0,.2,0c.3,0,.6,0,1,.1c3.1,.6,8.3,3.8,7.6,7c-.3,1.2,-1.6,1.6,-3.2,1.7h-1.7q-.1,0,-.1,0Z"/></clipPath>
<clipPath id="ce_178"><path d="M818.2,660.3c-.3,-.1,3.5,-8.3,3.5,-8.3l.8,.5c0,0,-4,7.8,-4.3,7.8Z"/></clipPath>
<clipPath id="cf_178"><path d="M825.7,652.5c0,0,-6.9,-1.1,-7.6,-5.2c-.7,-3.6,1.5,-3.8,2.1,-3.8c0,0,.1,0,.1,0l8.3,-12.8l-1.5,-3c0,0,-.5,-1.2,.2,-2.1c0,-.1,.1,-.1,.3,-.1c2.1,0,12.9,5.5,12.9,5.5l.1,.2c-.4,.5,-.7,1.1,-1.4,1.6c-.6,.5,-5.1,1.2,-5.1,1.2l-8.4,18.5Z"/></clipPath>
<clipPath id="cg_178"><path d="M825.3,652.2c.2,-.5,.2,-1.8,0,-2.3v-1.4c-1.6,-.5,-2.9,-1.2,-3.7,-2.5c-1.1,.6,-2.1,1.2,-3.1,1.9c1.5,2.1,3.8,3.5,6.8,4.3Zm0,-3.9c2.2,-4.6,3.9,-9.5,6.1,-14.1c-.9,-.4,-1.8,-1.3,-2.6,-1.4c-2.3,4.3,-4.6,8.7,-7.1,12.8c.8,1.4,2.1,2,3.6,2.7Zm-7.3,12c1,-2.9,2.4,-5.4,3.5,-8.3c-2,-1.5,-3.9,-3.1,-4.4,-6.1v-1.5c-.1,-2.7,1.9,-3.4,4.6,-3.4c0,0,.1,0,.2,0c1.9,-3.3,4.2,-6.3,6.1,-9.7c-.5,-.8,-1.1,-2.3,-.9,-3.6c.6,1.2,1.7,1.9,2.4,2.9c-.1,.6,-.3,1.1,-.3,1.7c.5,.7,1.3,1.2,2.3,1.4c.5,-.4,.6,-1.2,1.2,-1.5c.9,.3,1.8,.7,3.1,.7c.1,.1,.5,.2,.8,.2c.4,0,.7,-.1,.9,-.2c.1,.1,.2,.1,.3,.1c.2,0,.4,-.1,.6,-.1c.2,-.1,.3,-.2,.5,-.2c.1,0,.2,0,.3,.1c-1.3,.7,-2.2,1.8,-4.2,1.8c-.1,0,-.2,0,-.3,0c-.9,3.7,-1.9,7.3,-2.6,11.2c.5,1,1.4,1.7,1.2,3.1c-.5,2.7,-3.9,4.4,-7.2,4.4c-1.3,0,-2.5,-.2,-3.6,-.8c-1,2.1,-2.1,4.2,-3.3,6.1c0,-.4,.3,-.4,.3,-.8c.9,-1.8,1.9,-3.6,2.6,-5.6c-1,1.7,-1.8,3.7,-2.7,5.5c-.3,.4,-.5,.8,-.7,1.3c-.3,.4,-.3,1.1,-.7,1.3Z"/></clipPath>
<clipPath id="ch_178"><path d="M835.7,632.6c-4.8,0,-13.1,-7.3,-5.5,-8.8h1.2c.2,0,.4,0,.6,0q.1,0,.1,0q.1,0,.2,0c.3,0,.6,0,.9,.1c3.1,.6,8.2,3.8,7.5,7c-.2,1.2,-1.5,1.6,-3.1,1.7h-1.8c0,0,-.1,0,-.1,0Z"/></clipPath>
<clipPath id="ci_178"><path d="M125.5,386.7V205.8H858.6V386.7Z"/></clipPath>
<style type="text/css"><![CDATA[
.g0_178{
fill: #FEFCF4;
}
.g1_178{
fill: #FFF;
}
.g2_178{
fill: none;
stroke: #6381B7;
stroke-width: 0.763;
}
.g3_178{
fill: #F7C2D9;
}
.g4_178{
fill: #FDF4F3;
}
.g5_178{
fill: #EC008C;
}
.g6_178{
fill: none;
stroke: #818385;
stroke-width: 0.305;
stroke-dasharray: 4,4;
}
.g7_178{
fill: none;
stroke: #818385;
stroke-width: 0.305;
}
.g8_178{
fill: none;
stroke: #949698;
stroke-width: 0.305;
stroke-dasharray: 3,3;
}
.g9_178{
fill: none;
stroke: #949698;
stroke-width: 0.305;
stroke-dasharray: 4,4;
}
.ga_178{
fill: none;
stroke: #949698;
stroke-width: 0.305;
}
.gb_178{
fill: #6D6F71;
}
.gc_178{
fill: none;
stroke: #818385;
stroke-width: 0.305;
stroke-dasharray: 3,3;
}
.gd_178{
fill: #FCE8B0;
}
.ge_178{
fill: #6381B7;
}
.gf_178{
fill: none;
stroke: #6381B7;
stroke-width: 0.381;
stroke-dasharray: 2,1;
}
.gg_178{
fill: none;
stroke: #6381B7;
stroke-width: 0.381;
}
.gh_178{
fill: #25408F;
}
.gi_178{
fill: #A8AAAD;
}
.gj_178{
fill: none;
stroke: #949698;
stroke-width: 0.549;
}
.gk_178{
fill: none;
stroke: #BCBEC0;
stroke-width: 2.566;
}
.gl_178{
fill: #231F20;
}
.gm_178{
fill: #363637;
}
.gn_178{
fill: #5CC4BE;
}
.go_178{
fill: #EAD646;
}
.gp_178{
fill: #2E6E51;
}
.gq_178{
fill: none;
stroke: #FFF;
stroke-width: 0.152;
stroke-miterlimit: 1;
}
.gr_178{
fill: #BCBEC0;
}
.gs_178{
fill: #EE314A;
}
.gt_178{
fill: #CEEDFB;
}
.gu_178{
fill: #27639D;
}
.gv_178{
fill: none;
stroke: #C3E7F1;
stroke-width: 1.527;
}
.gw_178{
fill: none;
stroke: #FFF;
stroke-width: 1.909;
stroke-miterlimit: 10;
}
.gx_178{
fill: none;
stroke: #000;
stroke-width: 0.381;
stroke-miterlimit: 10;
}
]]></style>
</defs>
<path d="M32.1,1344.3H954.5V32.1H32.1V1344.3Z" class="g0_178"/>
<path clip-path="url(#c0_178)" d="M954.5,1344.3H1877V32.1H954.5V1344.3Z" class="g0_178"/>
<path d="M150.3,438.3c0,0,-18.3,0,-18.3,18.3V974.8c0,0,0,18.3,18.3,18.3H827.4c0,0,18.4,0,18.4,-18.3V438.3Z" class="g1_178"/>
<path d="M150.3,438.3c0,0,-18.3,0,-18.3,18.3V974.8c0,0,0,18.3,18.3,18.3H827.4c0,0,18.4,0,18.4,-18.3V438.3H150.3Z" class="g2_178"/>
<image clip-path="url(#c1_178)" preserveAspectRatio="none" x="720" y="650" width="192" height="224" xlink:href="img/1.png"/>
<path d="M725.5,654.5l-.8,211L906,867.9l-.6,-212.3Z" class="g3_178"/>
<image clip-path="url(#c2_178)" preserveAspectRatio="none" x="713" y="645" width="204" height="231" xlink:href="img/2.png"/>
<image clip-path="url(#c3_178)" preserveAspectRatio="none" x="713" y="645" width="204" height="231" xlink:href="img/3.png"/>
<path d="M732.1,649.2L718.5,859.8L865,869.4L900,845L911.6,661.4Z" class="g4_178"/>
<path d="M865,869.4l35,-24.3l-28.1,-4.5Z" class="g5_178"/>
<path d="M552.1,815.7c16.4,-.7,29.7,-4.9,33.2,-10.5m-.9,-7c-4.7,-5.1,-17.9,-8.9,-33.9,-9.3m-7.7,0c-16.5,.7,-29.8,4.9,-33.3,10.5m1,7.1c4.7,5,17.9,8.8,33.8,9.2" class="g6_178"/>
<path d="M586,803.8c.2,-.5,.3,-1,.3,-1.5c0,-.5,-.1,-1,-.3,-1.5m-37,-12c-.5,0,-1,0,-1.6,0c-.5,0,-1,0,-1.5,0m-37,12c-.2,.5,-.3,1,-.3,1.5c0,.5,.1,1,.3,1.5m37,12c.5,0,1,0,1.5,0c.6,0,1.1,0,1.6,0" class="g7_178"/>
<path d="M574.6,788c12.8,-11.7,60.8,-52.8,109.3,-55.7" class="g8_178"/>
<path d="M691.9,732.5c2.5,.7,3,2,2.4,3.6" class="g9_178"/>
<path d="M688.6,739.7c-4.2,-.5,-8.4,-4.5,4.7,-14.8" class="g8_178"/>
<path d="M699.3,720.6c7.9,-5.6,16.6,-10.5,33,-12.6" class="g9_178"/>
<path d="M571.4,791.1c0,0,.3,-.3,1,-1m113,-57.9c.5,0,1,0,1.5,0c.6,-.1,1.2,-.1,1.7,0m4.9,5.3c-.2,.5,-.6,.9,-1,1.4c-.2,.2,-.7,.5,-1.2,.6m3.1,-15.4c.4,-.3,.8,-.6,1.1,-.8c.5,-.3,.9,-.6,1.3,-.9m37,-14.6c.6,0,1.1,-.1,1.6,-.1" class="ga_178"/>
<path d="M731.5,702.5l1,8.7l10.7,-5.7Z" class="gb_178"/>
<image clip-path="url(#c4_178)" preserveAspectRatio="none" x="66" y="612" width="212" height="266" xlink:href="img/4.png"/>
<path d="M71.2,617.5l1.3,254.1l199.7,-.3l-2.5,-255Z" class="g3_178"/>
<image clip-path="url(#c5_178)" preserveAspectRatio="none" x="62" y="609" width="218" height="269" xlink:href="img/5.png"/>
<image clip-path="url(#c6_178)" preserveAspectRatio="none" x="62" y="609" width="218" height="269" xlink:href="img/6.png"/>
<path d="M66.7,620.9l9.8,249.9l165.3,-6.1l32.3,-24.2L265.2,613.7Z" class="g4_178"/>
<path d="M241.3,865.7L275,840.3l-29.7,-1.1Z" class="g5_178"/>
<path d="M448.3,666.6C436.6,656.9,395.9,627.4,342.7,634.1" class="g9_178"/>
<path d="M335.6,635.8c-3.1,2,1.9,5.2,5.8,5m.7,-4.1c-6.4,-4.4,-25,-10.8,-36.8,-11.8m-7.4,-.2c-10.2,-.2,-13.2,-.7,-44.7,8.9" class="g8_178"/>
<path d="M451.7,669.6c0,0,-.4,-.4,-1.1,-1.1M341.2,634.3c-.5,.1,-1,.1,-1.5,.2c-.5,.1,-1,.2,-1.4,.3m4.5,5.8c.5,-.1,.9,-.4,1.3,-.7c.4,-.3,.4,-.8,.1,-1.3M303.8,624.8c-.5,0,-1,0,-1.4,0c-.5,0,-1,0,-1.5,0m-49.1,9.3c-.4,.1,-.9,.3,-1.4,.4" class="ga_178"/>
<path d="M480.6,695.9c12.1,-.9,21.7,-5.6,24.1,-11.6m-.7,-7.1c-3.3,-5.6,-13,-9.7,-24.9,-10.3m-7.3,0c-12.1,1,-21.7,5.7,-24.1,11.7m.7,7c3.3,5.6,13,9.8,24.8,10.4" class="gc_178"/>
<path d="M505.1,682.9c.1,-.5,.1,-1,.1,-1.5c0,-.5,0,-1,-.1,-1.4M477.7,666.8c-.5,0,-1,0,-1.5,0c-.5,0,-1,0,-1.5,0M447.3,680c-.1,.4,-.2,.9,-.2,1.4c0,.5,.1,1,.2,1.5m27.4,13.2c.5,0,1,0,1.5,0c.5,0,1,0,1.5,0" class="g7_178"/>
<path d="M255.3,638.1L251,630.4l-7.6,9.5Z" class="gb_178"/>
<path d="M209.6,489c0,0,-12.9,0,-12.9,13v21.6c0,0,0,13,12.9,13h602c0,0,13,0,13,-13V502c0,0,0,-13,-13,-13Z" class="gd_178"/>
<image clip-path="url(#c7_178)" preserveAspectRatio="none" x="153" y="459" width="75" height="77" xlink:href="img/7.png"/>
<path d="M204.4,529.2c0,0,-26.8,11.3,-51.1,-12.7c0,0,15.2,25.3,49.3,23.9c0,0,24.8,.4,20.3,-10.1c0,0,1.2,-4.4,-18.5,-1.1Z" class="gd_178"/>
<path d="M145.1,1012.3c0,0,-13,0,-13,13v142.1c0,0,0,13,13,13H832.9c0,0,13,0,13,-13V1025.3c0,0,0,-13,-13,-13Z" class="g1_178"/>
<path d="M145.1,1012.3c0,0,-13,0,-13,13v142.1c0,0,0,13,13,13H832.9c0,0,13,0,13,-13V1025.3c0,0,0,-13,-13,-13H145.1Z" class="g2_178"/>
<path d="M518.4,1195.3c0,0,-4.3,0,-4.3,4.3v10.9c0,0,0,4.3,4.3,4.3h30.3c0,0,4.3,0,4.3,-4.3v-10.9c0,0,0,-4.3,-4.3,-4.3Z" class="ge_178"/>
<path d="M505.2,1187.8v34.9m1.3,.9H845m1,-1.3v-34.9m-1.4,-1H506.2" class="gf_178"/>
<path d="M505.2,1223.1v.5h.6m339.6,0h.6v-.5m0,-36.1v-.6h-.6m-339.6,0h-.6v.6" class="gg_178"/>
<path d="M209.6,1050.8c0,0,-12.9,0,-12.9,13v21.6c0,0,0,13,12.9,13h602c0,0,13,0,13,-13v-21.6c0,0,0,-13,-13,-13Z" class="gd_178"/>
<image clip-path="url(#c8_178)" preserveAspectRatio="none" x="153" y="1021" width="75" height="76" xlink:href="img/8.png"/>
<path d="M204.4,1091c0,0,-26.8,11.3,-51.1,-12.7c0,0,15.2,25.3,49.3,23.9c0,0,24.8,.4,20.3,-10.1c0,0,1.2,-4.4,-18.5,-1.1Z" class="gd_178"/>
<path d="M131.7,412.1v39l11.7,10.3V417.2Z" class="gh_178"/>
<path d="M131.7,412.1v39H829.5c0,0,16.8,0,16.8,-16.8v-5.4c0,0,0,-16.8,-16.8,-16.8Z" class="ge_178"/>
<path d="M781,445.7c8.2,0,14.8,-6.5,14.8,-14.5c0,-8,-6.6,-14.5,-14.8,-14.5c-8.3,0,-14.9,6.5,-14.9,14.5c0,8,6.6,14.5,14.9,14.5Z" class="gi_178"/>
<path d="M781,445.7c8.2,0,14.8,-6.5,14.8,-14.5c0,-8,-6.6,-14.5,-14.8,-14.5c-8.3,0,-14.9,6.5,-14.9,14.5c0,8,6.6,14.5,14.9,14.5Z" class="gj_178"/>
<path d="M781,436.6c3,0,5.4,-2.4,5.4,-5.4c0,-2.9,-2.4,-5.3,-5.4,-5.3c-3.1,0,-5.5,2.4,-5.5,5.3c0,3,2.4,5.4,5.5,5.4Z" class="g1_178"/>
<path d="M781,436.6c3,0,5.4,-2.4,5.4,-5.4c0,-2.9,-2.4,-5.3,-5.4,-5.3c-3.1,0,-5.5,2.4,-5.5,5.3c0,3,2.4,5.4,5.5,5.4Z" class="gk_178"/>
<g clip-path="url(#c9_178)" opacity="0.3">
<path d="M766.4,430.5c0,0,-.1,-4.9,3.6,-8.7l7.8,6.7c0,0,-1,1,-1.1,2.7Z" class="g1_178"/>
</g>
<path d="M785.6,431.1c0,0,-3.5,0,-3.5,3.5v8.7c0,0,0,3.5,3.5,3.5H829c0,0,3.5,0,3.5,-3.5v-8.7c0,0,0,-3.5,-3.5,-3.5Z" class="gl_178"/>
<path d="M169.5,422.2c0,-8.3,-6.7,-15.1,-15,-15.1c-8.4,0,-15.1,6.8,-15.1,15.1c0,8.3,6.8,15.1,15.1,15.1c.8,0,1.6,-.1,2.4,-.2l4.5,5.2v-6.7c4.8,-2.5,8.1,-7.6,8.1,-13.4Z" class="g1_178"/>
<path d="M161.8,443.5l-5.1,-5.9c-.7,.1,-1.5,.1,-2.2,.1c-8.6,0,-15.6,-6.9,-15.6,-15.5c0,-8.5,7,-15.5,15.6,-15.5c8.5,0,15.5,7,15.5,15.5c0,5.7,-3.1,10.9,-8.2,13.6Zm-4.7,-6.9l3.8,4.4v-5.7l.3,-.1c4.8,-2.6,7.9,-7.5,7.9,-13c0,-8,-6.6,-14.6,-14.6,-14.6c-8.1,0,-14.6,6.6,-14.6,14.6c0,8,6.5,14.6,14.6,14.6c.7,0,1.5,-.1,2.3,-.2Z" class="gm_178"/>
<path d="M147.4,421.8c.8,0,1.5,.6,1.5,1.4c0,.8,-.7,1.4,-1.5,1.4c-.7,0,-1.4,-.6,-1.4,-1.4c0,-.8,.7,-1.4,1.4,-1.4Z" class="gn_178"/>
<path d="M147.4,425.1c-1,0,-1.8,-.8,-1.8,-1.9c0,-1,.8,-1.9,1.8,-1.9c1.1,0,1.9,.9,1.9,1.9c0,1.1,-.8,1.9,-1.9,1.9m0,-2.9c-.5,0,-.9,.5,-.9,1c0,.5,.4,1,.9,1c.6,0,1,-.5,1,-1c0,-.5,-.4,-1,-1,-1Z" class="gm_178"/>
<path d="M154.5,421.8c.8,0,1.4,.6,1.4,1.4c0,.8,-.6,1.4,-1.4,1.4c-.8,0,-1.5,-.6,-1.5,-1.4c0,-.8,.7,-1.4,1.5,-1.4Z" class="gn_178"/>
<path d="M154.5,425.1c-1.1,0,-1.9,-.8,-1.9,-1.9c0,-1,.8,-1.9,1.9,-1.9c1,0,1.9,.9,1.9,1.9c0,1.1,-.9,1.9,-1.9,1.9m0,-2.9c-.6,0,-1,.5,-1,1c0,.5,.4,1,1,1c.5,0,.9,-.5,.9,-1c0,-.5,-.4,-1,-.9,-1Z" class="gm_178"/>
<path d="M161.5,421.8c.8,0,1.4,.6,1.4,1.4c0,.8,-.6,1.4,-1.4,1.4c-.8,0,-1.5,-.6,-1.5,-1.4c0,-.8,.7,-1.4,1.5,-1.4Z" class="gn_178"/>
<path d="M161.5,425.1c-1.1,0,-1.9,-.8,-1.9,-1.9c0,-1,.8,-1.9,1.9,-1.9c1,0,1.9,.9,1.9,1.9c0,1.1,-.9,1.9,-1.9,1.9m0,-2.9c-.6,0,-1,.5,-1,1c0,.5,.4,1,1,1c.5,0,1,-.5,1,-1c0,-.5,-.5,-1,-1,-1Z" class="gm_178"/>
<path d="M163.4,436.4c0,-9.7,7.9,-17.6,17.6,-17.6c9.7,0,17.6,7.9,17.6,17.6c0,9.8,-7.9,17.7,-17.6,17.7c-.9,0,-1.9,-.1,-2.8,-.3l-5.3,6.1v-7.8c-5.6,-2.9,-9.5,-8.8,-9.5,-15.7Z" class="go_178"/>
<path d="M172.9,460.4c0,0,-.1,0,-.1,0c-.2,-.1,-.3,-.3,-.3,-.5v-7.5c-5.9,-3.2,-9.6,-9.3,-9.6,-16c0,-9.9,8.2,-18,18.1,-18c10,0,18.1,8.1,18.1,18c0,10,-8.1,18.1,-18.1,18.1c-.8,0,-1.7,-.1,-2.6,-.2l-5.1,5.9c-.1,.1,-.2,.2,-.4,.2M181,419.3c-9.4,0,-17.1,7.7,-17.1,17.1c0,6.5,3.5,12.3,9.2,15.3c.2,.1,.3,.2,.3,.4v6.6l4.4,-5.2c.1,-.1,.3,-.2,.5,-.1c.9,.1,1.8,.2,2.7,.2c9.5,0,17.2,-7.7,17.2,-17.2c0,-9.4,-7.7,-17.1,-17.2,-17.1Z" class="gm_178"/>
<path d="M189.2,435.9c.9,0,1.7,.8,1.7,1.7c0,.9,-.8,1.7,-1.7,1.7c-.9,0,-1.7,-.8,-1.7,-1.7c0,-.9,.8,-1.7,1.7,-1.7Z" class="g1_178"/>
<path d="M189.2,439.7c-1.2,0,-2.1,-.9,-2.1,-2.1c0,-1.2,.9,-2.1,2.1,-2.1c1.2,0,2.1,.9,2.1,2.1c0,1.2,-.9,2.1,-2.1,2.1m0,-3.3c-.7,0,-1.2,.5,-1.2,1.2c0,.7,.5,1.2,1.2,1.2c.7,0,1.2,-.5,1.2,-1.2c0,-.7,-.5,-1.2,-1.2,-1.2Z" class="gm_178"/>
<path d="M181,435.9c.9,0,1.7,.8,1.7,1.7c0,.9,-.8,1.7,-1.7,1.7c-.9,0,-1.7,-.8,-1.7,-1.7c0,-.9,.8,-1.7,1.7,-1.7Z" class="g1_178"/>
<path d="M181,439.7c-1.2,0,-2.1,-.9,-2.1,-2.1c0,-1.2,.9,-2.1,2.1,-2.1c1.2,0,2.1,.9,2.1,2.1c0,1.2,-.9,2.1,-2.1,2.1m0,-3.3c-.7,0,-1.2,.5,-1.2,1.2c0,.7,.5,1.2,1.2,1.2c.7,0,1.2,-.5,1.2,-1.2c0,-.7,-.5,-1.2,-1.2,-1.2Z" class="gm_178"/>
<path d="M172.8,435.9c.9,0,1.7,.8,1.7,1.7c0,.9,-.8,1.7,-1.7,1.7c-.9,0,-1.7,-.8,-1.7,-1.7c0,-.9,.8,-1.7,1.7,-1.7Z" class="g1_178"/>
<path d="M172.8,439.7c-1.2,0,-2.1,-.9,-2.1,-2.1c0,-1.2,.9,-2.1,2.1,-2.1c1.2,0,2.1,.9,2.1,2.1c0,1.2,-.9,2.1,-2.1,2.1m0,-3.3c-.7,0,-1.2,.5,-1.2,1.2c0,.7,.5,1.2,1.2,1.2c.7,0,1.2,-.5,1.2,-1.2c0,-.7,-.5,-1.2,-1.2,-1.2Z" class="gm_178"/>
<path d="M32.1,179.3H967.5V32.1H32.1V179.3Z" class="gp_178"/>
<path d="M254.5,134c-.5,0,-1,.2,-1.5,.4c-.5,.3,-.9,.5,-1.3,.8c-.8,.8,-1.4,1.8,-1.8,2.8c-.4,1,-.7,2.1,-.7,3.3c0,1.5,.3,2.8,.9,3.9c.8,1.4,1.8,2.1,3.2,2.1c.3,0,.6,0,.9,-.1c.2,-.1,.5,-.2,.7,-.4c.2,-.2,.3,-.4,.4,-.7c.1,-.2,.2,-.5,.2,-.8c0,-.4,-.1,-.9,-.4,-1.2c-.3,-.3,-.7,-.5,-1,-.5c-.2,0,-.4,.1,-.6,.1c-.2,.1,-.3,.2,-.5,.3c-.1,.2,-.2,.3,-.3,.4c-.1,.2,-.1,.4,-.1,.6c0,.2,0,.4,.2,.7c.1,.2,.3,.4,.5,.6c0,0,-.1,.1,-.2,.1H253c-.8,0,-1.4,-.5,-1.9,-1.4c-.5,-.7,-.7,-1.5,-.7,-2.3c0,-1,.1,-1.9,.3,-2.7c.2,-.7,.6,-1.4,1,-2.1c.4,-.7,1,-1.3,1.6,-1.7c.7,-.5,1.5,-.8,2.4,-1L254.5,134Zm14.1,1.2L267.4,134c-.1,0,-.2,0,-.3,0c-.5,0,-.8,-.2,-1,-.6c0,-.2,-.1,-.6,-.2,-1.2l-.5,-.5c.1,1.1,.1,2.2,.2,3.2c0,1.1,.1,2.1,.1,3.2c-1.5,-2.6,-3.2,-3.9,-4.9,-3.9c-.5,0,-1,.1,-1.5,.3c-.5,.1,-1,.4,-1.5,.7c-.6,.4,-1,.8,-1.3,1.2c-.3,.4,-.5,.9,-.5,1.3c0,.2,.1,.5,.3,.7c.2,.2,.4,.3,.7,.3c.2,0,.5,-.1,.8,-.3c.2,-.1,.4,-.1,.5,-.2c.1,0,.3,0,.4,0c.5,0,.7,.4,.7,1.2c0,.5,-.4,1.1,-1.2,1.9l1.7,.6l4.2,-4.2c.1,.1,.3,.2,.4,.4c.2,.2,.3,.4,.5,.6c.2,.3,.3,.5,.4,.7c.1,.3,.1,.5,.1,.6l-.2,6.4l1.3,1.3V135.2h2Zm-8.5,4.2c.1,-.7,0,-1.2,-.3,-1.6c-.3,-.5,-.8,-.7,-1.4,-.7c.5,-1.1,1.4,-1.6,2.8,-1.6c.7,0,1.3,.3,1.9,.9l-3,3ZM278.8,134h-1c0,-1.1,-.3,-2,-1.1,-2.5c-.7,-.6,-1.9,-.9,-3.4,-.9c-.8,.1,-1.5,.1,-2,.2c-.6,0,-.9,0,-1.1,0c-.4,0,-.8,-.1,-1.2,-.3c-.4,-.3,-.6,-.6,-.6,-1c0,-.4,.2,-.8,.5,-1c0,0,-.1,0,-.2,0c0,0,-.1,0,-.1,0c-.2,-.1,-.4,.1,-.6,.5c-.2,.3,-.3,.6,-.3,.8c0,.8,.5,1.5,1.3,2c.8,.4,1.6,.7,2.5,.7c.2,0,.5,-.1,.8,-.1c.3,0,.6,0,1,0c.4,-.1,.7,-.1,1,-.1c.3,0,.6,0,.8,0c.2,0,.4,0,.6,0c.1,0,.3,.1,.5,.1c.5,.2,.7,.4,.7,.7c0,.3,-.2,.5,-.6,.7c-.2,.1,-.4,.1,-.6,.1c-.1,.1,-.3,.1,-.5,.1h-8.1l1.2,1.2h3.8c.6,.4,.9,.7,.9,1c-.8,0,-1.4,.3,-2,.8c-.6,.5,-.8,1.1,-.8,1.8c0,.4,.1,.7,.4,.9c.3,.2,.6,.3,1,.3c.5,0,1.1,-.2,1.6,-.7c.5,-.5,.7,-1,.7,-1.6c.1,0,.2,0,.3,-.1c.1,0,.2,0,.3,0c.3,0,.5,.1,.7,.2c.2,.1,.4,.2,.5,.4c.2,.2,.3,.4,.4,.7c0,.2,.1,.5,.1,.7c0,.8,-.4,1.5,-1.4,2c-.7,.3,-1.6,.5,-2.5,.4c-1.2,-.1,-2.3,-.4,-3.3,-1l1.4,3c.9,.2,1.7,.5,2.6,.9c.9,.3,1.7,.7,2.5,1.2c.9,.5,1.7,1,2.3,1.5c.7,.6,1.3,1.2,1.9,1.9l-.3,-1.3c-1,-1.1,-2,-2,-2.9,-2.8c-1,-.8,-1.8,-1.4,-2.6,-1.9c1.2,-.3,2,-.7,2.6,-1.2c.8,-.6,1.2,-1.5,1.2,-2.4c0,-1,-.3,-1.8,-1,-2.5c-.4,-.5,-1.2,-.9,-2.4,-1.3c-.1,-.2,-.2,-.3,-.3,-.5c-.1,-.1,-.3,-.2,-.4,-.4H280L278.8,134Zm7.4,0h-7.9l1.2,1.2h4c-1.7,2,-2.6,4,-2.6,6.1c0,1.5,.3,2.8,1,3.9c.7,1.4,1.8,2.1,3.2,2.1c.3,0,.5,0,.8,-.1c.3,-.1,.5,-.2,.7,-.4c.2,-.2,.3,-.4,.5,-.7c.1,-.2,.1,-.5,.1,-.8c0,-.4,-.1,-.9,-.4,-1.2c-.3,-.3,-.6,-.5,-1,-.5c-.4,0,-.7,.2,-1,.4c-.4,.3,-.5,.6,-.5,1c0,.2,.1,.4,.2,.7c.1,.2,.3,.4,.6,.6c-.8,.2,-1.5,-.2,-2.3,-1.3c-.4,-.7,-.7,-1.5,-.7,-2.3c0,-1,.1,-1.9,.4,-2.7c.2,-.7,.5,-1.4,.9,-2.1c.5,-.7,1,-1.3,1.7,-1.7c.6,-.5,1.4,-.8,2.3,-1L286.2,134Zm16,1.2L301,134h-1.7c0,-1.1,-.2,-2,-.6,-2.6c-.5,-.6,-1.3,-.9,-2.4,-.9c-.4,0,-1,.1,-1.9,.1c-.5,.1,-.8,.1,-1.2,.1c-.3,0,-.5,0,-.6,0c-.6,0,-1,-.1,-1.4,-.3c-.4,-.2,-.6,-.6,-.6,-1.1c0,-.1,0,-.2,.1,-.3c.1,-.1,.1,-.2,.2,-.3l-.1,-.4c-.5,0,-.8,.5,-.8,1.4c0,.9,.4,1.6,1.3,2c.7,.5,1.5,.7,2.4,.7c.2,0,.4,0,.6,0c.3,-.1,.6,-.1,.9,-.1q.1,0,.1,0q.1,0,.1,0c.3,-.1,.6,-.1,.8,-.1c.2,0,.4,0,.5,0c1,0,1.5,.3,1.5,1c0,.2,0,.3,0,.4c0,.2,0,.3,0,.4H285.6l1.2,1.2h6.3v4H293c-.1,-.3,-.2,-.5,-.4,-.8c-.1,-.2,-.3,-.5,-.6,-.7c-.6,-.4,-1.1,-.7,-1.7,-.7c-.4,0,-.7,.1,-1,.2c-.3,.2,-.5,.3,-.7,.5c-.2,.3,-.4,.5,-.5,.8c-.1,.3,-.2,.6,-.2,1c0,.9,.5,1.4,1.6,1.4c.4,0,.7,-.1,1.1,-.4c.3,-.2,.4,-.5,.4,-.9c0,-.4,-.1,-.7,-.4,-.9c.1,0,.3,-.1,.5,-.1c.9,0,1.5,.7,1.7,2l.3,1.2v1.4c0,1.7,.9,2.6,2.7,2.7c1.1,0,2.2,-.6,3.3,-1.8c1,-1.2,1.5,-2.3,1.5,-3.5c0,-.8,-.2,-1.4,-.6,-2c-.4,-.7,-1,-1,-1.7,-1c-.4,0,-.8,.2,-1.1,.5c-.3,.3,-.4,.7,-.4,1.1c0,.4,.1,.8,.5,1c.3,.3,.7,.4,1.1,.4h.4c-.1,.4,-.2,.8,-.4,1.2c-.2,.4,-.4,.8,-.8,1.3c-.8,.8,-1.5,1.3,-2.2,1.3c-.7,0,-1.1,-.3,-1.2,-.8v-8.4h8Zm11.3,0L312.3,134H300.6l1.1,1.2h8.2v.9c-2.5,.8,-4.9,2.1,-7.3,3.7l1.5,2.3c1.7,.1,3.1,.7,4.1,1.6c.3,.3,.6,.6,.9,1c.4,.4,.6,.8,.7,1c.2,.3,.4,.7,.6,1.3l.7,.8V135.2h2.4Zm-3.6,9.4c-1,-1.8,-2.7,-3.2,-4.8,-4.1c.9,-.6,1.7,-1.1,2.5,-1.5c.8,-.4,1.5,-.7,2.3,-1v6.6Zm-4.7,1.7c.3,.3,.5,.4,.9,.4c.3,0,.6,-.1,.9,-.4c.2,-.2,.3,-.5,.3,-.8c0,-.4,-.1,-.7,-.3,-.9c-.3,-.3,-.6,-.4,-.9,-.4c-.4,0,-.6,.1,-.9,.4c-.2,.2,-.4,.5,-.4,.9c0,.3,.2,.6,.4,.8Zm30.5,-11.1L334.4,134H319.3l1.2,1.2h7.8v1c-2.6,.8,-4.9,2.1,-7,3.7L323,142c1.4,.1,2.6,.7,3.7,1.8c.4,.5,.9,1,1.3,1.6c.4,.7,.7,1.3,1,2c0,.1,.1,.1,.1,.2c.1,0,.2,.1,.3,.1v-10c1.2,0,2.1,.3,2.8,1c.6,.7,1,1.4,1,2.2l-.1,.3c-.2,-.2,-.4,-.3,-.6,-.4c-.2,-.2,-.4,-.2,-.6,-.2c-.4,0,-.8,.1,-1,.4c-.3,.2,-.4,.5,-.4,.9c0,.2,0,.4,.1,.6c.1,.2,.2,.3,.4,.5c.1,.1,.3,.2,.5,.3c.2,.1,.4,.1,.6,.1c.2,0,.5,-.1,.7,-.2c.3,-.1,.5,-.3,.7,-.5c.1,-.2,.3,-.4,.4,-.7c.1,-.3,.1,-.5,.1,-.8c0,-1.3,-.4,-2.4,-1.2,-3.4c-.9,-1.2,-2,-1.7,-3.4,-1.7v-.9h6.3Zm-7.5,9.1c-1,-1.8,-2.5,-3.1,-4.5,-4c.8,-.5,1.6,-1,2.3,-1.4c.8,-.4,1.5,-.8,2.2,-1.1v6.5Zm12.1,-9.1L339.1,134H338c-.3,-.4,-.6,-1,-.7,-1.9l-.4,-.3c0,.2,0,.5,0,.9c0,.3,0,.7,.1,1.2c0,.5,0,.9,0,1.3c.1,.3,.1,.6,.1,.9c-.3,-.8,-.6,-1.3,-1,-1.6c-.4,-.3,-1,-.5,-1.7,-.5H333l1.2,1.2c.4,0,.7,.1,1,.2c.4,.1,.6,.3,.9,.5c.2,.2,.4,.4,.6,.7c.1,.3,.2,.7,.2,1v8.9l1.1,1.2V135.2h2.3ZM353.7,134H338.3l1.2,1.2h5.3c-.4,.3,-.9,.8,-1.3,1.5c-.3,.6,-.5,1.2,-.5,1.7c0,.8,.3,1.5,.8,2.1c.5,.7,1.2,1,2,1c.3,0,.8,-.1,1.3,-.3c.5,-.2,.8,-.3,.9,-.3c.3,0,.4,.1,.6,.4c.1,.2,.1,.4,.1,.6c0,.6,-.3,1,-1.1,1.3c-.6,.3,-1.2,.5,-1.8,.5c-.7,0,-1.3,-.2,-1.8,-.6c-.6,-.4,-1.1,-1,-1.5,-1.7c-.6,-.9,-1,-2.1,-1.1,-3.5c-.1,-.5,-.1,-.9,0,-1.3l-.6,-.3c0,1.2,0,2.3,.2,3.3c.2,1,.4,1.9,.7,2.7c1,2.2,2.4,3.4,4.5,3.4c.9,0,1.7,-.4,2.4,-1c.6,-.7,1,-1.5,1,-2.4c0,-.3,-.1,-.6,-.2,-.9c-.1,-.4,-.3,-.7,-.5,-1.1c-.4,-.7,-.8,-1.2,-1.3,-1.4l-1.4,.7c-.2,.1,-.5,.2,-.7,.3c-.3,.1,-.4,.1,-.6,.1c-.6,0,-.9,-.3,-.9,-.9c0,-.4,.2,-1,.7,-1.7c.2,-.4,.4,-.7,.6,-.9c.3,-.2,.5,-.3,.7,-.3l.1,.1c.7,.9,1.5,1.6,2.3,1.9c.8,.3,1.8,.5,3.1,.5c-.5,1.2,-.8,2.5,-.8,3.6c0,.9,.1,1.8,.3,2.6c.2,.8,.4,1.6,.7,2.4l1.2,.3c-.6,-1.3,-1,-2.5,-1,-3.4c0,-1.2,.2,-2.3,.6,-3.3c.3,-.9,.8,-1.7,1.5,-2.3l-1.9,-1.9c-.3,.2,-.7,.3,-1.2,.4c-.6,.1,-1.1,.1,-1.8,.1c-.1,0,-.3,0,-.5,-.1c-.3,-.1,-.5,-.1,-.7,-.3c-.3,-.1,-.5,-.2,-.6,-.3c-.2,-.2,-.3,-.3,-.3,-.5c.1,-.2,.2,-.4,.4,-.5c.2,-.2,.4,-.3,.6,-.3h6.8L353.7,134Zm23.4,1.2L375.9,134H360.8l1.2,1.2h7.8v1c-2.6,.8,-4.9,2.1,-7,3.7l1.7,2.1c1.3,.1,2.6,.7,3.6,1.8c.5,.5,.9,1,1.3,1.6c.4,.7,.8,1.3,1,2q.1,.1,.2,.2c.1,0,.2,.1,.3,.1v-10c1.2,0,2.1,.3,2.8,1c.6,.7,.9,1.4,.9,2.2l-.1,.3c-.1,-.2,-.3,-.3,-.5,-.4c-.2,-.2,-.4,-.2,-.6,-.2c-.4,0,-.8,.1,-1,.4c-.3,.2,-.5,.5,-.5,.9c0,.2,.1,.4,.2,.6c.1,.2,.2,.3,.3,.5c.2,.1,.4,.2,.6,.3c.1,.1,.3,.1,.5,.1c.3,0,.6,-.1,.8,-.2c.3,-.1,.5,-.3,.6,-.5c.2,-.2,.3,-.4,.4,-.7c.1,-.3,.2,-.5,.2,-.8c0,-1.3,-.4,-2.4,-1.2,-3.4c-.9,-1.2,-2,-1.7,-3.4,-1.7v-.9h6.2Zm-7.4,9.1c-1,-1.8,-2.5,-3.1,-4.5,-4c.8,-.5,1.6,-1,2.3,-1.4c.7,-.4,1.5,-.8,2.2,-1.1v6.5ZM383.3,134h-8l1.2,1.2h4c-1.7,2,-2.5,4,-2.5,6.1c0,1.5,.3,2.8,.9,3.9c.8,1.4,1.8,2.1,3.2,2.1c.3,0,.6,0,.8,-.1c.3,-.1,.5,-.2,.7,-.4c.2,-.2,.4,-.4,.5,-.7c.1,-.2,.2,-.5,.2,-.8c0,-.4,-.2,-.9,-.4,-1.2c-.3,-.3,-.7,-.5,-1.1,-.5c-.3,0,-.7,.2,-1,.4c-.3,.3,-.4,.6,-.4,1c0,.2,0,.4,.1,.7c.2,.2,.4,.4,.6,.6c-.7,.2,-1.5,-.2,-2.2,-1.3c-.5,-.7,-.7,-1.5,-.7,-2.3c0,-1,.1,-1.9,.3,-2.7c.2,-.7,.5,-1.4,1,-2.1c.4,-.7,1,-1.3,1.6,-1.7c.7,-.5,1.5,-.8,2.4,-1L383.3,134Zm12.1,1.2L394.2,134H382.4l1.2,1.2h8.2v.9c-2.5,.8,-4.9,2.1,-7.3,3.7l1.5,2.3c1.7,.1,3.1,.7,4.1,1.6c.3,.3,.6,.6,.9,1c.4,.4,.6,.8,.7,1c.2,.3,.4,.7,.6,1.3l.7,.8V135.2h2.4Zm-3.6,9.4c-1.1,-1.8,-2.7,-3.2,-4.8,-4.1c.8,-.6,1.7,-1.1,2.5,-1.5c.8,-.4,1.5,-.7,2.3,-1v6.6Zm-4.7,1.7c.3,.3,.5,.4,.9,.4c.3,0,.6,-.1,.9,-.4c.2,-.2,.3,-.5,.3,-.8c0,-.4,-.1,-.7,-.3,-.9c-.3,-.3,-.6,-.4,-.9,-.4c-.4,0,-.6,.1,-.9,.4c-.2,.2,-.4,.5,-.4,.9c0,.3,.2,.6,.4,.8Zm20.2,-14.4c-2.4,-2.4,-4.8,-3.6,-7.3,-3.6c-1,0,-2,.4,-3.1,1.2c-1.1,.9,-1.6,1.8,-1.6,2.7c0,.4,.2,.7,.5,1l.8,.8h-3.2l1.2,1.2h1.8v11.3l1.2,1.2V135.2h2.1L398.5,134h-1.3l-.5,-1.1c.1,-.9,.6,-1.6,1.7,-2.3c.9,-.7,1.8,-1,2.7,-1c.7,0,1.2,.1,1.8,.2c.6,.2,1.2,.4,1.7,.7c.6,.4,1.1,.7,1.6,1c.5,.4,.9,.7,1.3,1l-.2,-.6Zm3.9,16.8c-.4,-.5,-.9,-1,-1.3,-1.4c-.4,-.4,-.8,-.8,-1.1,-1c-.3,-.2,-.7,-.5,-1.2,-.8c-.5,-.3,-1.1,-.6,-1.8,-1c.6,-.3,1.1,-.6,1.5,-.8c.4,-.3,.8,-.5,1,-.8c.9,-.7,1.4,-1.5,1.4,-2.5c0,-.9,-.3,-1.7,-.8,-2.4c-.6,-.7,-1.4,-1.1,-2.4,-1.1c-.3,0,-.6,0,-.8,.1c-.3,0,-.6,.1,-.8,.1c-1.4,0,-2.4,-.7,-2.9,-1.9h8.7L409.5,134H398.1l1.2,1.2h1.6v5.2c0,.2,0,.5,.1,.6c.1,.2,.3,.4,.4,.5c.2,.2,.4,.3,.6,.4c.3,.1,.5,.1,.7,.1c.4,0,.7,-.1,1.2,-.3c.4,-.2,.8,-.4,1.2,-.7c1,-.8,1.5,-1.7,1.3,-2.6c1.3,-.2,2,.2,2.1,1.2c0,1.2,-.7,2.2,-2.1,2.9c-.5,.2,-1.1,.4,-1.7,.6c-.5,.1,-1.2,.2,-1.9,.2c-.2,0,-.5,-.1,-.8,-.1c-.3,-.1,-.6,-.1,-.9,-.2l1.2,2.2c1.7,.2,3.4,.6,4.9,1.3c1.5,.8,2.9,1.8,4.2,3.1l-.2,-.9Zm-6.6,-9.5c-.1,.3,-.3,.6,-.6,.8c-.2,.3,-.5,.5,-.7,.7c-.3,.1,-.6,.2,-.8,.2c-.3,0,-.5,-.2,-.5,-.7v-3.6c.7,.9,1.7,1.5,2.8,1.8c0,.3,0,.5,-.2,.8Z" class="gq_178"/>
<g clip-path="url(#c0_178)">
<path d="M1877,177.2H32.1v-5.4H768.7c43.1,0,53,-37.9,115.3,-37.9h993Z" class="gr_178"/>
<path d="M1877,183.7H32.1v-9.8H768.7c43.1,0,53,-33.6,115.3,-33.6h993Z" class="gs_178"/>
</g>
<image clip-path="url(#ca_178)" x="159" y="622" width="6" height="9" xlink:href="shade/1.png"/>
<image clip-path="url(#cb_178)" x="159" y="595" width="24" height="28" xlink:href="shade/2.png"/>
<image clip-path="url(#cc_178)" x="158" y="597" width="24" height="34" xlink:href="shade/3.png"/>
<image clip-path="url(#cd_178)" x="164" y="593" width="20" height="10" xlink:href="shade/4.png"/>
<image clip-path="url(#ce_178)" x="817" y="652" width="6" height="9" xlink:href="shade/5.png"/>
<image clip-path="url(#cf_178)" x="817" y="625" width="24" height="28" xlink:href="shade/6.png"/>
<image clip-path="url(#cg_178)" x="817" y="627" width="23" height="34" xlink:href="shade/7.png"/>
<image clip-path="url(#ch_178)" x="822" y="623" width="20" height="10" xlink:href="shade/8.png"/>
<image clip-path="url(#ci_178)" preserveAspectRatio="none" x="125" y="206" width="734" height="181" xlink:href="img/9.png"/>
<path d="M144.6,231.3c0,0,-13,0,-13,13v117c0,0,0,13,13,13H833.1c0,0,13,0,13,-13v-130Z" class="gt_178"/>
<path d="M147.7,294.1l54.1,40.8l54.1,-40.8V230h8.7V211.9H155.8c-6.5,.4,-7.7,3.9,-8.2,8.4Z" class="gu_178"/>
<path d="M274,220.3c-.3,-4.7,-4.2,-8.4,-9,-8.4c-4.8,0,-8.7,3.7,-9,8.4h-.1V230h18.2v-9.7Z" class="gl_178"/>
<path d="M255.9,230.6H846.1" class="gv_178"/>
<path d="M32.1,45.1H9.2m958.3,0h22.9M32.1,1331.3H9.2m958.3,0h22.9M45.1,32.1V9.2m0,1335.1v22.9M954.5,32.1V9.2m0,1335.1v22.9" class="gw_178"/>
<path d="M32.1,45.1H9.2m958.3,0h22.9M32.1,1331.3H9.2m958.3,0h22.9M45.1,32.1V9.2m0,1335.1v22.9M954.5,32.1V9.2m0,1335.1v22.9" class="gx_178"/>
<path d="M27.5,32.1H0m972.1,0h27.5M27.5,1344.3H0m972.1,0h27.5M32.1,27.5V0m0,1348.9v27.5M967.5,27.5V0m0,1348.9v27.5" class="gw_178"/>
<path d="M27.5,32.1H0m972.1,0h27.5M27.5,1344.3H0m972.1,0h27.5M32.1,27.5V0m0,1348.9v27.5M967.5,27.5V0m0,1348.9v27.5" class="gx_178"/>
</svg>