<?xml version="1.0" encoding="UTF-8" standalone="no"?>
<!DOCTYPE svg PUBLIC "-//W3C//DTD SVG 1.1//EN"
"http://www.w3.org/Graphics/SVG/1.1/DTD/svg11.dtd">
<svg viewBox="0 0 999 1376" version="1.1" xmlns="http://www.w3.org/2000/svg" xmlns:xlink="http://www.w3.org/1999/xlink">
<defs>
<clipPath id="c0_26"><path d="M188.2,331.1V240.5h99.2v90.6Z"/></clipPath>
<clipPath id="c1_26"><path d="M526.2,331.1V240.5h99.2v90.6Z"/></clipPath>
<clipPath id="c2_26"><path d="M362.6,331.1V240.5h99.2v90.6Z"/></clipPath>
<clipPath id="c3_26"><path d="M692,331.1V240.5h99.2v90.6Z"/></clipPath>
<clipPath id="c4_26"><path d="M188.2,472V381.5h99.2V472Z"/></clipPath>
<clipPath id="c5_26"><path d="M362.6,470.9V380.4h99.2v90.5Z"/></clipPath>
<clipPath id="c6_26"><path d="M515.6,466.5V380.4H636.1v86.1Z"/></clipPath>
<clipPath id="c7_26"><path d="M692,470.9V380.4h99.2v90.5Z"/></clipPath>
<clipPath id="c8_26"><path d="M188.2,609.1V518.5h99.2v90.6Z"/></clipPath>
<clipPath id="c9_26"><path d="M362.6,609.1V518.5h99.2v90.6Z"/></clipPath>
<clipPath id="ca_26"><path d="M515.6,604.6V518.5H636.1v86.1Z"/></clipPath>
<clipPath id="cb_26"><path d="M188.2,960.7V879.8h82.1v80.9Z"/></clipPath>
<clipPath id="cc_26"><path d="M662,960.7V879.2h99.6v81.5Z"/></clipPath>
<clipPath id="cd_26"><path d="M500.1,960.7V879.2h99.6v81.5Z"/></clipPath>
<clipPath id="ce_26"><path d="M339.1,960.7V879.2h99.6v81.5Z"/></clipPath>
<clipPath id="cf_26"><path d="M662,1081.9v-81.5h99.6v81.5Z"/></clipPath>
<clipPath id="cg_26"><path d="M500.1,1081.9v-81.5h99.3v81.5Z"/></clipPath>
<clipPath id="ch_26"><path d="M339.1,1081.9v-81.5h99.6v81.5Z"/></clipPath>
<clipPath id="ci_26"><path d="M178.1,1079.2v-78.8H277v78.8Z"/></clipPath>
<clipPath id="cj_26"><path d="M176.6,229.2l-6.5,-2.1L153.7,213.2V156.1h72v73.1Z"/></clipPath>
<clipPath id="ck_26"><path d="M179,821.5l-6.5,-2.1L156.2,805.5V748.4h71.9v73.1Z"/></clipPath>
<style type="text/css"><![CDATA[
.g0_26{
fill: #FEFCF4;
}
.g1_26{
fill: #FFF;
}
.g2_26{
fill: none;
stroke: #6381B7;
stroke-width: 0.763;
}
.g3_26{
fill: none;
stroke: #949698;
stroke-width: 0.381;
}
.g4_26{
fill: none;
stroke: #231F20;
stroke-width: 1.527;
}
.g5_26{
fill: none;
stroke: #949698;
stroke-width: 0.453;
}
.g6_26{
fill: none;
stroke: #231F20;
stroke-width: 0.611;
}
.g7_26{
fill: #48484A;
}
.g8_26{
fill: #F0E8F3;
}
.g9_26{
fill: #766FA6;
}
.ga_26{
fill: #6381B7;
}
.gb_26{
fill: none;
stroke: #6381B7;
stroke-width: 0.381;
stroke-dasharray: 2,1;
}
.gc_26{
fill: none;
stroke: #6381B7;
stroke-width: 0.381;
}
.gd_26{
fill: #FCE8B0;
}
.ge_26{
fill: #25408F;
}
.gf_26{
fill: #00BAF1;
}
.gg_26{
fill: #332D2C;
}
.gh_26{
fill: #D9DFF0;
}
.gi_26{
fill: #F27C85;
}
.gj_26{
fill: #7DD3F6;
}
.gk_26{
fill: none;
stroke: #FFF;
stroke-width: 1.909;
stroke-miterlimit: 10;
}
.gl_26{
fill: none;
stroke: #000;
stroke-width: 0.381;
stroke-miterlimit: 10;
}
]]></style>
</defs>
<path d="M32.1,1344.3H954.5V32.1H32.1V1344.3Z" class="g0_26"/>
<path d="M150.4,134c0,0,-18.3,0,-18.3,18.4V724c0,0,0,18.4,18.3,18.4H827.5c0,0,18.4,0,18.4,-18.4V134Z" class="g1_26"/>
<path d="M150.4,134c0,0,-18.3,0,-18.3,18.4V724c0,0,0,18.4,18.3,18.4H827.5c0,0,18.4,0,18.4,-18.4V134H150.4Z" class="g2_26"/>
<path d="M177.5,331.1H298V240.5H177.5v90.6Z" class="g1_26"/>
<image clip-path="url(#c0_26)" preserveAspectRatio="none" x="188" y="239" width="99" height="92" xlink:href="img/1.jpg"/>
<path d="M177.5,331.1H298V240.5H177.5v90.6Z" class="g3_26"/>
<path d="M515.6,331.1H636.1V240.5H515.6v90.6Z" class="g1_26"/>
<image clip-path="url(#c1_26)" preserveAspectRatio="none" x="526" y="239" width="99" height="92" xlink:href="img/2.jpg"/>
<path d="M515.6,331.1H636.1V240.5H515.6v90.6Z" class="g3_26"/>
<path d="M352,331.1H472.5V240.5H352v90.6Z" class="g1_26"/>
<image clip-path="url(#c2_26)" preserveAspectRatio="none" x="363" y="239" width="99" height="92" xlink:href="img/3.jpg"/>
<path d="M352,331.1H472.5V240.5H352v90.6Z" class="g3_26"/>
<path d="M681.3,331.1H801.8V240.5H681.3v90.6Z" class="g1_26"/>
<image clip-path="url(#c3_26)" preserveAspectRatio="none" x="692" y="239" width="99" height="92" xlink:href="img/4.jpg"/>
<path d="M681.3,331.1H801.8V240.5H681.3v90.6Z" class="g3_26"/>
<path d="M177.5,472H298V381.5H177.5V472Z" class="g1_26"/>
<image clip-path="url(#c4_26)" preserveAspectRatio="none" x="188" y="380" width="99" height="92" xlink:href="img/5.jpg"/>
<path d="M177.5,472H298V381.5H177.5V472Z" class="g3_26"/>
<path d="M352,470.9H472.5V380.4H352v90.5Z" class="g1_26"/>
<image clip-path="url(#c5_26)" preserveAspectRatio="none" x="363" y="379" width="99" height="92" xlink:href="img/6.jpg"/>
<path d="M352,470.9H472.5V380.4H352v90.5Z" class="g3_26"/>
<path d="M515.6,470.9H636.1V380.4H515.6v90.5Z" class="g1_26"/>
<image clip-path="url(#c6_26)" preserveAspectRatio="none" x="516" y="379" width="120" height="88" xlink:href="img/7.jpg"/>
<path d="M515.6,470.9H636.1V380.4H515.6v90.5Z" class="g3_26"/>
<path d="M681.3,470.9H801.8V380.4H681.3v90.5Z" class="g1_26"/>
<image clip-path="url(#c7_26)" preserveAspectRatio="none" x="692" y="379" width="99" height="92" xlink:href="img/8.jpg"/>
<path d="M681.3,470.9H801.8V380.4H681.3v90.5Z" class="g3_26"/>
<path d="M177.5,609.1H298V518.5H177.5v90.6Z" class="g1_26"/>
<image clip-path="url(#c8_26)" preserveAspectRatio="none" x="188" y="517" width="99" height="92" xlink:href="img/9.jpg"/>
<path d="M177.5,609.1H298V518.5H177.5v90.6Z" class="g3_26"/>
<path d="M352,609.1H472.5V518.5H352v90.6Z" class="g1_26"/>
<image clip-path="url(#c9_26)" preserveAspectRatio="none" x="363" y="517" width="99" height="92" xlink:href="img/10.jpg"/>
<path d="M352,609.1H472.5V518.5H352v90.6Z" class="g3_26"/>
<path d="M515.6,609.1H636.1V518.5H515.6v90.6Z" class="g1_26"/>
<image clip-path="url(#ca_26)" preserveAspectRatio="none" x="516" y="517" width="120" height="88" xlink:href="img/11.jpg"/>
<path d="M515.6,609.1H636.1V518.5H515.6v90.6Z" class="g3_26"/>
<path d="M185.6,671.6c-.3,0,-.6,.1,-.9,.3c-.2,.3,-.3,.6,-.3,.9c0,.3,.1,.6,.3,.9c.3,.2,.6,.3,.9,.3c.3,0,.6,-.1,.9,-.3c.2,-.3,.3,-.6,.3,-.9c0,-.3,-.1,-.6,-.3,-.9c-.3,-.2,-.6,-.3,-.9,-.3Zm0,28.8c-.3,0,-.6,.1,-.9,.3c-.2,.3,-.3,.5,-.3,.9c0,.3,.1,.6,.3,.9c.3,.2,.6,.3,.9,.3c.3,0,.6,-.1,.9,-.3c.2,-.3,.3,-.6,.3,-.9c0,-.4,-.1,-.6,-.3,-.9c-.3,-.2,-.6,-.3,-.9,-.3Z" class="g4_26"/>
<path d="M145.1,831.9c0,0,-13,0,-13,13v337c0,0,0,13,13,13H832.9c0,0,13,0,13,-13v-337c0,0,0,-13,-13,-13Z" class="g1_26"/>
<path d="M145.1,831.9c0,0,-13,0,-13,13v337c0,0,0,13,13,13H832.9c0,0,13,0,13,-13v-337c0,0,0,-13,-13,-13H145.1Z" class="g2_26"/>
<image clip-path="url(#cb_26)" preserveAspectRatio="none" x="188" y="880" width="82" height="81" xlink:href="img/12.jpg"/>
<path d="M178.1,990.8h99.5V960.4H178.1v30.4Z" class="g1_26"/>
<path d="M178.1,990.8h99.5V960.4H178.1v30.4Z" class="g5_26"/>
<image clip-path="url(#cc_26)" preserveAspectRatio="none" x="661" y="879" width="101" height="83" xlink:href="img/13.jpg"/>
<path d="M662,990.8h99.6V960.4H662v30.4Z" class="g1_26"/>
<path d="M662,990.8h99.6V960.4H662v30.4Z" class="g5_26"/>
<image clip-path="url(#cd_26)" preserveAspectRatio="none" x="499" y="878" width="101" height="83" xlink:href="img/14.jpg"/>
<path d="M500.1,990.8h99.6V960.4H500.1v30.4Z" class="g1_26"/>
<path d="M500.1,990.8h99.6V960.4H500.1v30.4Z" class="g5_26"/>
<image clip-path="url(#ce_26)" preserveAspectRatio="none" x="339" y="878" width="100" height="83" xlink:href="img/15.jpg"/>
<path d="M339.1,990.8h99.5V960.4H339.1v30.4Z" class="g1_26"/>
<path d="M339.1,990.8h99.5V960.4H339.1v30.4Z" class="g5_26"/>
<path d="M177.5,991.7H280.8V959.8H177.5v31.9Z" class="g1_26"/>
<path d="M177.5,991.7H280.8V959.8H177.5v31.9Z" class="g6_26"/>
<path d="M337.7,991.7H441V959.8H337.7v31.9Z" class="g1_26"/>
<path d="M337.7,991.7H441V959.8H337.7v31.9Z" class="g6_26"/>
<path d="M497.9,991.7H601.3V959.8H497.9v31.9Z" class="g1_26"/>
<path d="M497.9,991.7H601.3V959.8H497.9v31.9Z" class="g6_26"/>
<path d="M660.3,991.7H763.7V959.8H660.3v31.9Z" class="g1_26"/>
<path d="M660.3,991.7H763.7V959.8H660.3v31.9Z" class="g6_26"/>
<image clip-path="url(#cf_26)" preserveAspectRatio="none" x="661" y="999" width="101" height="84" xlink:href="img/16.jpg"/>
<path d="M662,1111.4h99.6v-30.5H662v30.5Z" class="g1_26"/>
<path d="M662,1111.4h99.6v-30.5H662v30.5Z" class="g5_26"/>
<image clip-path="url(#cg_26)" preserveAspectRatio="none" x="499" y="999" width="100" height="84" xlink:href="img/17.jpg"/>
<path d="M500.1,1111.4h99.6v-30.5H500.1v30.5Z" class="g1_26"/>
<path d="M500.1,1111.4h99.6v-30.5H500.1v30.5Z" class="g5_26"/>
<image clip-path="url(#ch_26)" preserveAspectRatio="none" x="339" y="999" width="100" height="84" xlink:href="img/18.jpg"/>
<path d="M339.1,1111.4h99.5v-30.5H339.1v30.5Z" class="g1_26"/>
<path d="M339.1,1111.4h99.5v-30.5H339.1v30.5Z" class="g5_26"/>
<image clip-path="url(#ci_26)" preserveAspectRatio="none" x="178" y="999" width="99" height="80" xlink:href="img/19.jpg"/>
<path d="M178.1,1111.4h99.5v-30.5H178.1v30.5Z" class="g1_26"/>
<path d="M178.1,1111.4h99.5v-30.5H178.1v30.5Z" class="g5_26"/>
<path d="M177.5,1111.4H280.8v-32H177.5v32Z" class="g1_26"/>
<path d="M177.5,1111.4H280.8v-32H177.5v32Z" class="g6_26"/>
<path d="M337.7,1111.4H441v-32H337.7v32Z" class="g1_26"/>
<path d="M337.7,1111.4H441v-32H337.7v32Z" class="g6_26"/>
<path d="M497.9,1111.4H601.3v-32H497.9v32Z" class="g1_26"/>
<path d="M497.9,1111.4H601.3v-32H497.9v32Z" class="g6_26"/>
<path d="M660.3,1111.4H763.7v-32H660.3v32Z" class="g1_26"/>
<path d="M660.3,1111.4H763.7v-32H660.3v32Z" class="g6_26"/>
<path d="M166.3,1132.3c0,0,-4.3,0,-4.3,4.3v14.7c0,0,0,4.4,4.1,5.8l52.5,18.5c0,0,4,1.5,4,-2.9v-36.1c0,0,0,-4.3,-4.3,-4.3Z" class="g7_26"/>
<path d="M187.5,1119.3c0,0,-13,0,-13,13v34.6c0,0,0,13,13,13H792.8c0,0,13,0,13,-13v-34.6c0,0,0,-13,-13,-13Z" class="g8_26"/>
<path d="M166.3,1130.1c0,0,-4.3,0,-4.3,4.3v17.3c0,0,0,4.4,4.3,4.4h37.3c0,0,4.4,0,4.4,-4.4v-17.3c0,0,0,-4.3,-4.4,-4.3Z" class="g9_26"/>
<path d="M443.9,1209.8c0,0,-4.3,0,-4.3,4.3v10.8c0,0,0,4.4,4.3,4.4h30.3c0,0,4.3,0,4.3,-4.4v-10.8c0,0,0,-4.3,-4.3,-4.3Z" class="ga_26"/>
<path d="M430.7,1200.7v58m1.3,.9H845.1m1,-1.3v-58m-1.4,-.9h-413" class="gb_26"/>
<path d="M430.7,1259.1v.5h.6m414.2,0h.6v-.5m0,-59.1v-.6h-.6m-414.2,0h-.6v.6" class="gc_26"/>
<path d="M209.2,184.2c0,0,-13,0,-13,13v21.7c0,0,0,13,13,13h602c0,0,13,0,13,-13V197.2c0,0,0,-13,-13,-13Z" class="gd_26"/>
<image clip-path="url(#cj_26)" preserveAspectRatio="none" x="152" y="154" width="75" height="77" xlink:href="img/20.png"/>
<path d="M204,224.5c0,0,-26.8,11.3,-51.1,-12.8c0,0,15.2,25.4,49.3,24c0,0,24.8,.4,20.3,-10.1c0,0,1.2,-4.5,-18.5,-1.1Z" class="gd_26"/>
<path d="M211.7,776.5c0,0,-13,0,-13,13v21.7c0,0,0,13,13,13H833.3c0,0,13,0,13,-13V789.5c0,0,0,-13,-13,-13Z" class="gd_26"/>
<image clip-path="url(#ck_26)" preserveAspectRatio="none" x="155" y="747" width="75" height="76" xlink:href="img/21.png"/>
<path d="M206.5,816.8c0,0,-26.9,11.3,-51.1,-12.7c0,0,15.1,25.3,49.3,23.9c0,0,24.7,.4,20.2,-10.1c0,0,1.2,-4.5,-18.4,-1.1Z" class="gd_26"/>
<path d="M131.7,126.7v22.2l11.7,10.3V137Z" class="ge_26"/>
<path d="M131.7,109.9v39H829.4c0,0,16.9,0,16.9,-16.8v-5.4c0,0,0,-16.8,-16.9,-16.8Z" class="ga_26"/>
<path d="M189.6,121.3l-6.4,-6.5L162,136l6.4,6.5Z" class="gf_26"/>
<path d="M168.4,143c.2,0,.3,0,.4,-.1L190,121.7c.1,-.1,.2,-.3,.2,-.4c0,-.1,-.1,-.3,-.2,-.4l-6.5,-6.4c-.2,-.2,-.5,-.2,-.7,0l-21.2,21.2c-.1,.1,-.2,.2,-.2,.3c0,.2,.1,.3,.2,.4l6.5,6.5c.1,.1,.2,.1,.3,.1m20.5,-21.7l-20.5,20.5L162.7,136l20.5,-20.4Z" class="gg_26"/>
<path d="M189.6,121.3l-6.4,-6.5l2.1,-2.1l6.5,6.5Z" class="gh_26"/>
<path d="M189.6,121.8c.2,0,.3,0,.4,-.1l2.1,-2.1c.1,-.1,.2,-.3,.2,-.4c0,-.2,-.1,-.3,-.2,-.4l-6.4,-6.5c-.2,-.2,-.6,-.2,-.8,0l-2.1,2.2c-.1,0,-.2,.2,-.2,.3c0,.2,.1,.3,.2,.4l6.5,6.5c.1,.1,.2,.1,.3,.1m1.4,-2.6l-1.4,1.4l-5.7,-5.8l1.4,-1.4Z" class="gg_26"/>
<path d="M195.4,115.6l-6.5,-6.5l-3.6,3.6l6.5,6.5Z" class="gi_26"/>
<path d="M191.8,119.7c.1,0,.2,0,.3,-.1l3.7,-3.7c.2,-.2,.2,-.5,0,-.7l-6.5,-6.5c-.2,-.2,-.6,-.2,-.8,0l-3.6,3.6c-.2,.2,-.2,.6,0,.8l6.5,6.5c.1,.1,.2,.1,.4,.1m2.8,-4.1l-2.8,2.8L186,112.7l2.9,-2.9Z" class="gg_26"/>
<path d="M157.3,147.2L162,136l6.4,6.5Z" class="g1_26"/>
<path d="M157.3,147.7c.1,0,.2,0,.2,-.1L168.6,143c.2,-.1,.3,-.2,.4,-.4c0,-.2,-.1,-.3,-.2,-.5l-6.5,-6.4c-.1,-.2,-.3,-.2,-.5,-.2c-.1,.1,-.3,.2,-.3,.3l-4.7,11.1c0,.2,0,.5,.1,.6c.1,.1,.3,.2,.4,.2m10.2,-5.4l-9.2,3.9l3.8,-9.2Z" class="gg_26"/>
<path d="M157.3,147.2l2.3,-5.4l3.1,3.1Z" class="gg_26"/>
<path d="M157.3,147.7c.1,0,.2,0,.2,-.1l5.4,-2.2c.1,-.1,.3,-.2,.3,-.4c0,-.2,0,-.3,-.1,-.5l-3.2,-3.1c-.1,-.1,-.3,-.2,-.4,-.1c-.2,0,-.4,.1,-.4,.3l-2.3,5.3c0,.2,0,.5,.1,.6c.1,.1,.3,.2,.4,.2m4.5,-3l-3.5,1.5l1.4,-3.5Z" class="gg_26"/>
<path d="M187.9,119.5l-3,-2.9l-21.2,21.2l3,3Z" class="gj_26"/>
<path d="M166.7,141.3c.1,0,.2,-.1,.3,-.2l21.3,-21.2c.1,-.1,.1,-.2,.1,-.4c0,-.1,0,-.2,-.1,-.3l-3,-3c-.2,-.2,-.5,-.2,-.8,0l-21.2,21.2c-.1,.1,-.1,.3,-.1,.4c0,.1,0,.3,.1,.4l3,2.9c.1,.1,.2,.2,.4,.2m20.4,-21.8L166.7,140l-2.2,-2.2l20.4,-20.5Z" class="gg_26"/>
<path d="M32.1,45.1H9.2m958.3,0h22.9M32.1,1331.3H9.2m958.3,0h22.9M45.1,32.1V9.2m0,1335.1v22.9M954.5,32.1V9.2m0,1335.1v22.9" class="gk_26"/>
<path d="M32.1,45.1H9.2m958.3,0h22.9M32.1,1331.3H9.2m958.3,0h22.9M45.1,32.1V9.2m0,1335.1v22.9M954.5,32.1V9.2m0,1335.1v22.9" class="gl_26"/>
<path d="M27.5,32.1H0m972.1,0h27.5M27.5,1344.3H0m972.1,0h27.5M32.1,27.5V0m0,1348.9v27.5M967.5,27.5V0m0,1348.9v27.5" class="gk_26"/>
<path d="M27.5,32.1H0m972.1,0h27.5M27.5,1344.3H0m972.1,0h27.5M32.1,27.5V0m0,1348.9v27.5M967.5,27.5V0m0,1348.9v27.5" class="gl_26"/>
</svg>