<?xml version="1.0" encoding="UTF-8" standalone="no"?>
<!DOCTYPE svg PUBLIC "-//W3C//DTD SVG 1.1//EN"
"http://www.w3.org/Graphics/SVG/1.1/DTD/svg11.dtd">
<svg viewBox="0 0 999 1376" version="1.1" xmlns="http://www.w3.org/2000/svg" xmlns:xlink="http://www.w3.org/1999/xlink">
<defs>
<clipPath id="c0_209"><path d="M153.3,1243.8V130.8H867.9v1113Z"/></clipPath>
<clipPath id="c1_209"><path d="M217.7,413.3V271H429.4V413.3Z"/></clipPath>
<clipPath id="c2_209"><path d="M217.7,670.2V527.9H429.4V670.2Z"/></clipPath>
<clipPath id="c3_209"><path d="M565,414.6V272.3H776.7V414.6Z"/></clipPath>
<clipPath id="c4_209"><path d="M565,671.5V529.2H776.7V671.5Z"/></clipPath>
<clipPath id="c5_209"><path d="M217.7,1171V1028.7H429.4V1171Z"/></clipPath>
<clipPath id="c6_209"><path d="M217.7,955.2V812.8H429.4V955.2Z"/></clipPath>
<clipPath id="c7_209"><path d="M565,956.5V814.1H776.7V956.5Z"/></clipPath>
<clipPath id="c8_209"><path d="M565,1172.3V1030H776.7v142.3Z"/></clipPath>
<style type="text/css"><![CDATA[
.g0_209{
fill: #FFF;
}
.g1_209{
fill: none;
stroke: #231F20;
stroke-width: 0.756;
stroke-miterlimit: 3;
}
.g2_209{
fill: none;
stroke: #949698;
stroke-width: 0.572;
}
.g3_209{
fill: #25408F;
}
.g4_209{
fill: #6381B7;
}
.g5_209{
fill: #FFDE2C;
}
.g6_209{
fill: none;
stroke: #231F20;
stroke-width: 1.451;
stroke-miterlimit: 10;
}
.g7_209{
fill: #D2D3D5;
}
.g8_209{
fill: #A8AAAD;
}
.g9_209{
fill: none;
stroke: #231F20;
stroke-width: 0.828;
stroke-miterlimit: 10;
}
.ga_209{
fill: #6CCFF6;
}
.gb_209{
fill: none;
stroke: #231F20;
stroke-width: 0.828;
stroke-linecap: round;
stroke-linejoin: round;
}
.gc_209{
fill: none;
stroke: #231F20;
stroke-width: 1.451;
stroke-linecap: round;
stroke-linejoin: round;
}
.gd_209{
fill: none;
stroke: #FFF;
stroke-width: 1.909;
stroke-miterlimit: 10;
}
.ge_209{
fill: none;
stroke: #000;
stroke-width: 0.381;
stroke-miterlimit: 10;
}
]]></style>
</defs>
<path d="M153.3,1243.8H867.9V130.8H153.3v1113Z" class="g0_209"/>
<image clip-path="url(#c0_209)" preserveAspectRatio="none" x="151" y="129" width="719" height="1117" xlink:href="img/1.jpg"/>
<path d="M389.7,180.4h-9.8v3.4h4.8c.9,0,1.4,.1,1.7,.5c.3,.4,.5,.8,.4,1.4l-.3,6h-1.9v-5.5c0,-.2,-.1,-.4,-.2,-.5c-.1,-.1,-.3,-.1,-.6,-.1h-13v-1.8h6.8v-3.4h-9.3v-1.8h21.4v1.8ZM376.9,168.2c.2,-.3,.3,-.6,.3,-.9c0,-.3,.1,-.5,.1,-.8c-.1,-.2,-.1,-.3,-.1,-.5c-.1,-.2,-.1,-.4,-.2,-.6l2.2,-.5c.1,.3,.2,.6,.2,.8c0,.3,0,.5,0,.7c0,.4,0,.7,-.1,1c-.1,.3,-.2,.5,-.3,.8h5.6c.3,0,.5,.1,.7,.2c.2,.1,.3,.3,.4,.5c.1,.1,.1,.3,0,.5c0,.2,-.1,.4,-.1,.5c-.4,.6,-.8,1.1,-1.3,1.6c-.6,.5,-1.1,.9,-1.7,1.3c.3,.1,.5,.1,.7,.2c.3,.1,.5,.2,.7,.3c.5,.2,1,.5,1.6,.9c.7,.3,1.3,.7,1.9,1.1l-1,1.7c-.6,-.4,-1.1,-.7,-1.8,-1.1c-.6,-.4,-1.2,-.7,-1.8,-1.1c-.3,-.1,-.7,-.2,-1.1,-.4c-.4,-.1,-.9,-.2,-1.5,-.3c-1.5,.7,-3.1,1.3,-4.8,1.7c-1.7,.5,-3.3,.8,-4.7,1l-.4,-1.9c1.7,-.3,3.1,-.6,4.4,-.9c1.2,-.3,2.3,-.7,3.3,-1.1c1,-.4,1.9,-.8,2.7,-1.3c.8,-.4,1.5,-1,2.2,-1.6H371.8v-1.8h5.1ZM398.6,167c.2,.5,.3,1.1,.4,1.8c.1,.6,.1,1.3,.1,1.9c0,.5,0,.9,0,1.4c-.1,.4,-.2,.8,-.3,1.2c1.1,.2,1.9,.4,2.5,.8c.5,.3,1,.7,1.4,1.2c.5,.6,1,1.3,1.6,2.2c.6,.8,1.1,1.5,1.5,2.1l-1.6,1.3c-.6,-.8,-1.1,-1.6,-1.6,-2.4c-.6,-.7,-1,-1.4,-1.5,-1.9c-.3,-.4,-.7,-.7,-1.1,-1c-.4,-.2,-1,-.5,-1.8,-.6c-.1,.3,-.3,.7,-.5,1c-.1,.3,-.3,.6,-.5,.8c-.6,.9,-1.3,1.6,-2,2.3c-.8,.7,-1.7,1.4,-2.6,2.1l-1.3,-1.7c.9,-.7,1.7,-1.3,2.4,-1.9c.7,-.6,1.3,-1.3,1.7,-1.9c.5,-.7,.8,-1.5,1.1,-2.3c.2,-.8,.4,-1.7,.4,-2.6c0,-.5,-.1,-1,-.2,-1.5c-.1,-.6,-.2,-1.1,-.4,-1.5l2.3,-.8Zm16.3,9.1h-4.2v7.8h-2.3V167h2.3v7.2h4.2v1.9Zm-17,15.3c-.8,0,-1.4,-.2,-1.8,-.5c-.4,-.4,-.6,-.9,-.6,-1.6v-6.7h2.3v6.2c0,.3,0,.5,.1,.6c.1,.2,.4,.2,.7,.2h7.1c1.1,0,2,0,2.9,-.2c.8,-.1,1.7,-.3,2.6,-.6l.5,1.7c-1,.3,-2,.6,-2.9,.7c-1,.2,-2,.2,-3,.2h-7.9Zm38.7,-11.1h-2.3v-6.4h-5.1c-.3,1.5,-1,2.7,-2.1,3.5c-1.1,.8,-2.5,1.2,-4.1,1.2c-.9,0,-1.7,-.1,-2.4,-.3c-.8,-.3,-1.5,-.6,-2,-1.1c-.6,-.5,-1.1,-1.1,-1.4,-1.9c-.3,-.7,-.5,-1.5,-.5,-2.5c0,-.9,.2,-1.7,.5,-2.4c.3,-.7,.7,-1.4,1.3,-1.9c.6,-.5,1.2,-.9,2,-1.2c.8,-.2,1.6,-.4,2.5,-.4c1.7,0,3.1,.5,4.2,1.4c1.2,1,1.8,2.2,2,3.8h5.1V167h2.3v13.3Zm0,1.4V191c0,.2,-.1,.4,-.2,.5c-.1,.1,-.3,.2,-.5,.2h-12c-.9,0,-1.6,-.2,-2,-.5c-.5,-.3,-.7,-.9,-.7,-1.9v-7.6h2.2v3.2h11v-3.2h2.2ZM426,170c-.7,-.8,-1.7,-1.3,-3,-1.3c-1.3,0,-2.3,.5,-3,1.3c-.7,.8,-1.1,1.7,-1.1,2.8c0,1.1,.4,2.1,1.1,2.8c.7,.8,1.7,1.2,3,1.2c1.3,0,2.3,-.4,3,-1.2c.7,-.7,1,-1.7,1,-2.8c0,-1.1,-.3,-2,-1,-2.8Zm8.4,19.9v-3.2h-11v2.5c0,.3,.1,.5,.2,.6c.1,.1,.3,.1,.5,.1h10.3Zm10.2,-5.5v-7.8h2.3v7.8h2.6c1.4,0,2.6,-.1,3.9,-.3c1.2,-.2,2.4,-.7,3.6,-1.4V167.3h2.2v9.1h4.4v1.8h-4.4v11.6H457v-5.1c-1.1,.5,-2.2,.9,-3.4,1.2c-1.1,.2,-2.5,.4,-4,.4H439.5v-1.9h5.1Zm5.7,-3.3c.3,-1.3,.5,-2.9,.7,-4.6c.2,-1.7,.2,-3.5,.2,-5.3c0,-.4,0,-.7,-.2,-.8c-.2,-.2,-.4,-.3,-.7,-.3h-9.8v-1.8H451c.9,0,1.5,.2,1.9,.7c.4,.5,.6,1.2,.6,2c0,1.7,-.1,3.4,-.3,5.3c-.2,1.8,-.5,3.5,-.8,5.1l-2.1,-.3Zm42.1,8.7h-2.3V177h-4.9c-.2,.9,-.4,1.7,-.7,2.4c-.4,.7,-.8,1.4,-1.3,1.9c-.6,.6,-1.3,1,-2.1,1.3c-.7,.3,-1.6,.5,-2.5,.5c-1.1,0,-2,-.2,-2.9,-.6c-.8,-.4,-1.5,-.9,-2.1,-1.5c-.6,-.7,-1,-1.5,-1.3,-2.3c-.3,-.9,-.4,-1.9,-.4,-2.9c0,-1,.1,-2,.4,-2.8c.3,-.9,.8,-1.7,1.3,-2.4c.6,-.6,1.3,-1.1,2.1,-1.5c.9,-.4,1.8,-.6,2.9,-.6c.9,0,1.8,.2,2.7,.5c.8,.4,1.4,.8,2,1.4c.6,.6,1,1.3,1.3,2.1c.4,.8,.6,1.7,.6,2.6h4.9v-7.8h2.3v22.5Zm-9.7,-16c-.2,-.7,-.4,-1.3,-.8,-1.8c-.4,-.5,-.9,-.8,-1.4,-1.1c-.6,-.3,-1.2,-.5,-1.9,-.5c-.8,0,-1.4,.2,-2,.5c-.5,.3,-1,.6,-1.4,1.1c-.3,.5,-.6,1.1,-.8,1.8c-.2,.6,-.3,1.3,-.3,2c0,.7,.1,1.4,.3,2.1c.2,.6,.5,1.2,.8,1.7c.4,.5,.9,.8,1.4,1.1c.6,.3,1.2,.4,2,.4c.7,0,1.3,-.1,1.9,-.4c.5,-.3,1,-.6,1.4,-1.1c.4,-.5,.6,-1.1,.8,-1.7c.2,-.7,.3,-1.4,.3,-2.1c0,-.7,-.1,-1.4,-.3,-2Zm32.3,6.5h-2.3v-6.4h-5.2c-.2,1.5,-.9,2.7,-2,3.5c-1.2,.8,-2.5,1.2,-4.1,1.2c-.9,0,-1.7,-.1,-2.5,-.3c-.7,-.3,-1.4,-.6,-2,-1.1c-.5,-.5,-1,-1.1,-1.3,-1.9c-.4,-.7,-.5,-1.5,-.5,-2.5c0,-.9,.1,-1.7,.5,-2.4c.3,-.7,.7,-1.4,1.3,-1.9c.5,-.5,1.2,-.9,2,-1.2c.7,-.2,1.6,-.4,2.5,-.4c1.6,0,3.1,.5,4.2,1.4c1.2,1,1.8,2.2,2,3.8h5.1V167H515v13.3Zm0,1.4V191c0,.2,-.1,.4,-.2,.5c-.1,.1,-.3,.2,-.5,.2h-12c-.9,0,-1.6,-.2,-2.1,-.5c-.4,-.3,-.6,-.9,-.6,-1.9v-7.6h2.2v3.2h10.9v-3.2H515ZM504.4,170c-.8,-.8,-1.8,-1.3,-3,-1.3c-1.3,0,-2.3,.5,-3.1,1.3c-.7,.8,-1,1.7,-1,2.8c0,1.1,.3,2.1,1,2.8c.8,.8,1.8,1.2,3.1,1.2c1.2,0,2.2,-.4,3,-1.2c.7,-.7,1,-1.7,1,-2.8c0,-1.1,-.3,-2,-1,-2.8Zm8.3,19.9v-3.2H501.8v2.5c0,.3,.1,.5,.2,.6c.1,.1,.2,.1,.5,.1h10.2ZM537.6,179c-.4,.6,-.8,1.1,-1.3,1.5c-.6,.5,-1.2,.8,-1.9,1c-.7,.3,-1.5,.4,-2.2,.4c-.8,0,-1.6,-.1,-2.3,-.4c-.7,-.2,-1.3,-.5,-1.8,-.9c-.6,-.5,-1,-1,-1.3,-1.6c-.3,-.6,-.5,-1.3,-.5,-2c0,-.8,.2,-1.4,.5,-2c.3,-.6,.7,-1.1,1.2,-1.6c.6,-.4,1.2,-.7,1.9,-1c.7,-.2,1.5,-.3,2.3,-.3c.8,0,1.6,.1,2.3,.3c.7,.3,1.3,.6,1.9,1c.5,.5,.9,1,1.2,1.6c.3,.6,.4,1.2,.4,2c0,.7,-.1,1.4,-.4,2Zm7.8,5.7h-2.2v-4.3h-4.1v-1.7h4.1V175h-4.1v-1.8h4.1V167h2.2v17.7Zm-12.9,6.7c-.8,0,-1.4,-.2,-1.8,-.5c-.4,-.4,-.6,-.9,-.6,-1.6v-5.2h2.3v4.7c0,.3,0,.5,.1,.6c.1,.2,.4,.2,.7,.2h7.1c1.1,0,2,0,2.9,-.2c.8,-.1,1.7,-.3,2.6,-.6l.5,1.7c-1,.3,-2,.6,-2.9,.7c-1,.2,-2,.2,-3,.2h-7.9Zm2.2,-16.7c-.7,-.6,-1.5,-.9,-2.5,-.9c-1,0,-1.9,.3,-2.5,.9c-.7,.5,-1.1,1.3,-1.1,2.3c0,1,.4,1.8,1.1,2.3c.6,.6,1.5,.8,2.5,.8c1,0,1.8,-.2,2.5,-.8c.7,-.5,1.1,-1.3,1.1,-2.3c0,-1,-.4,-1.8,-1.1,-2.3Zm4.7,-3.5H524.9v-1.8h5.5c.3,-.4,.4,-.7,.5,-1c.1,-.3,.1,-.7,.1,-1c0,-.2,0,-.3,0,-.4c-.1,-.1,-.1,-.2,-.1,-.3c0,-.1,0,-.2,-.1,-.3c0,-.1,-.1,-.2,-.1,-.3l2.2,-.6c.1,.3,.2,.5,.2,.8c0,.3,.1,.6,.1,1c-.1,.4,-.1,.7,-.2,1.1c-.1,.3,-.3,.7,-.4,1h6.8v1.8Zm28,-4.2v6.1h4.3v1.7h-4.3v3c0,1,-.1,1.9,-.4,2.7c-.3,.8,-.9,1.5,-1.7,2.2c.5,.5,.9,1.1,1.1,1.8c.3,.6,.5,1.3,.5,2.1c0,.8,-.2,1.6,-.6,2.3c-.3,.7,-.8,1.3,-1.4,1.8c-.5,.5,-1.2,.9,-2,1.2c-.8,.3,-1.6,.4,-2.4,.4c-.9,0,-1.7,-.1,-2.5,-.4c-.8,-.3,-1.5,-.7,-2.1,-1.2c-.5,-.5,-1,-1.1,-1.3,-1.8c-.4,-.7,-.5,-1.5,-.5,-2.3c0,-.9,.1,-1.6,.5,-2.4c.3,-.7,.8,-1.3,1.3,-1.8c.6,-.5,1.3,-.9,2.1,-1.2c.8,-.3,1.6,-.4,2.5,-.4c.6,0,1.2,0,1.8,.2c.5,.2,1.1,.4,1.6,.6c.5,-.6,.8,-1.2,1,-1.8c.2,-.7,.3,-1.4,.3,-2.1V167h2.2Zm-18.2,.4h8.6c.4,0,.7,.1,1,.2c.2,.2,.4,.4,.5,.6c.1,.2,.1,.4,.1,.6c0,.3,0,.5,0,.7c-.2,.8,-.4,1.5,-.8,2.2c-.3,.7,-.7,1.4,-1.1,2c.5,.2,.9,.4,1.3,.6c.3,.2,.6,.5,.9,.8c.4,.5,.9,1,1.3,1.5c.4,.6,.9,1.1,1.2,1.6l-1.4,1.3c-.3,-.3,-.5,-.5,-.7,-.8c-.2,-.2,-.4,-.5,-.6,-.7c-.2,-.3,-.4,-.5,-.6,-.8c-.2,-.2,-.4,-.5,-.7,-.7c-.2,-.3,-.5,-.6,-.8,-.8c-.3,-.2,-.7,-.4,-1.1,-.5c-.9,.9,-1.9,1.9,-3.1,2.7c-1.2,.8,-2.5,1.6,-3.8,2.2l-1,-1.8c2.3,-1,4.1,-2.2,5.5,-3.6c1.3,-1.4,2.4,-3,3.1,-4.7c.1,-.3,.1,-.5,0,-.6c-.1,-.2,-.3,-.2,-.6,-.2h-7.2v-1.8Zm14.3,16.3c-.8,-.8,-1.8,-1.2,-3,-1.2c-1.2,0,-2.2,.4,-3,1.2c-.8,.7,-1.2,1.7,-1.2,2.9c0,1.1,.4,2.1,1.2,2.8c.8,.8,1.8,1.1,3,1.1c1.2,0,2.2,-.3,3,-1.1c.7,-.7,1.1,-1.7,1.1,-2.8c0,-1.2,-.4,-2.2,-1.1,-2.9Zm23.7,-7.3c-.3,.8,-.8,1.4,-1.4,1.9c-.6,.6,-1.3,1,-2.1,1.3c-.8,.3,-1.6,.4,-2.6,.4c-1,0,-1.8,-.1,-2.7,-.4c-.8,-.3,-1.5,-.7,-2,-1.3c-.6,-.5,-1.1,-1.1,-1.4,-1.9c-.3,-.8,-.5,-1.7,-.5,-2.6c0,-.9,.2,-1.8,.5,-2.5c.3,-.8,.8,-1.5,1.4,-2c.6,-.6,1.3,-1,2.1,-1.3c.8,-.3,1.6,-.4,2.6,-.4c1,0,1.8,.1,2.6,.4c.8,.3,1.5,.7,2.1,1.3c.6,.5,1.1,1.2,1.4,2c.3,.7,.5,1.6,.5,2.5c0,.9,-.2,1.8,-.5,2.6Zm6.4,13.4h-2.2v-5.5c-1.2,.6,-2.4,1.1,-3.7,1.4c-1.2,.3,-2.7,.5,-4.4,.5h-9.8v-1.9h9.8c1.4,0,2.8,-.1,4.1,-.4c1.3,-.3,2.6,-.9,4,-1.8V167.3h2.2v22.5Zm-9.4,-19.2c-.8,-.8,-1.8,-1.2,-3.1,-1.2c-1.2,0,-2.3,.4,-3.1,1.2c-.8,.8,-1.2,1.8,-1.2,3.2c0,1.5,.4,2.6,1.2,3.3c.8,.7,1.9,1.1,3.1,1.1c1.3,0,2.3,-.4,3.1,-1.1c.8,-.7,1.2,-1.8,1.2,-3.3c0,-1.4,-.4,-2.4,-1.2,-3.2ZM623.8,167v11.7c0,1,-.2,1.7,-.5,2.3c-.4,.5,-.8,1,-1.1,1.3c.5,.1,.8,.3,1.1,.7c.2,.3,.3,.8,.3,1.3l-.3,7.4h-2v-6.9c0,-.2,-.1,-.4,-.2,-.6c-.1,-.1,-.2,-.2,-.5,-.2H607.9v-1.8h12.4c.3,-.4,.6,-.9,.9,-1.5c.2,-.6,.4,-1.2,.4,-1.8V167h2.2Zm-18.8,.4h8.5c.4,0,.8,.1,1,.2c.2,.2,.4,.4,.5,.6c.1,.2,.1,.4,.2,.6c0,.3,-.1,.5,-.1,.7c-.2,.8,-.4,1.5,-.8,2.2c-.4,.8,-.9,1.5,-1.5,2.2c.7,.1,1.2,.3,1.6,.6c.4,.3,.7,.6,1.1,.9c.4,.4,.8,.9,1.2,1.5c.5,.5,.9,1,1.3,1.5l-1.5,1.4c-.2,-.3,-.4,-.6,-.7,-.8c-.2,-.3,-.4,-.5,-.5,-.8c-.3,-.2,-.5,-.5,-.7,-.7c-.2,-.2,-.4,-.5,-.6,-.8c-.3,-.3,-.7,-.6,-1,-.8c-.4,-.3,-.8,-.5,-1.4,-.6c-.9,.9,-1.9,1.7,-3,2.4c-1.1,.8,-2.2,1.5,-3.5,2l-1,-1.8c2.3,-1,4.2,-2.2,5.5,-3.6c1.4,-1.3,2.4,-2.7,3.1,-4.3c.1,-.3,.1,-.5,0,-.6c-.1,-.2,-.3,-.2,-.6,-.2H605v-1.8Zm42.3,12.9h-2.2v-6.4h-5.2c-.3,1.5,-.9,2.7,-2.1,3.5c-1.1,.8,-2.5,1.2,-4.1,1.2c-.8,0,-1.6,-.1,-2.4,-.3c-.7,-.3,-1.4,-.6,-2,-1.1c-.6,-.5,-1,-1.1,-1.4,-1.9c-.3,-.7,-.5,-1.5,-.5,-2.5c0,-.9,.2,-1.7,.5,-2.4c.3,-.7,.8,-1.4,1.3,-1.9c.6,-.5,1.3,-.9,2,-1.2c.8,-.2,1.6,-.4,2.5,-.4c1.7,0,3.1,.5,4.3,1.4c1.1,1,1.8,2.2,2,3.8h5.1V167h2.2v13.3Zm0,1.4V191c0,.2,0,.4,-.1,.5c-.1,.1,-.3,.2,-.6,.2h-12c-.9,0,-1.6,-.2,-2,-.5c-.4,-.3,-.7,-.9,-.7,-1.9v-7.6h2.3v3.2h10.9v-3.2h2.2ZM636.7,170c-.7,-.8,-1.7,-1.3,-3,-1.3c-1.3,0,-2.3,.5,-3,1.3c-.7,.8,-1,1.7,-1,2.8c0,1.1,.3,2.1,1,2.8c.7,.8,1.7,1.2,3,1.2c1.3,0,2.3,-.4,3,-1.2c.7,-.7,1.1,-1.7,1.1,-2.8c0,-1.1,-.4,-2,-1.1,-2.8Zm8.4,19.9v-3.2H634.2v2.5c0,.3,0,.5,.1,.6c.1,.1,.3,.1,.6,.1h10.2Z" class="g1_209"/>
<path d="M217.7,413.3H429.4V271H217.7V413.3Z" class="g0_209"/>
<image clip-path="url(#c1_209)" preserveAspectRatio="none" x="216" y="270" width="215" height="144" xlink:href="img/2.jpg"/>
<path d="M217.7,413.3H429.4V271H217.7V413.3Z" class="g2_209"/>
<path d="M217.7,670.2H429.4V527.9H217.7V670.2Z" class="g0_209"/>
<image clip-path="url(#c2_209)" preserveAspectRatio="none" x="216" y="527" width="215" height="144" xlink:href="img/3.jpg"/>
<path d="M217.7,670.2H429.4V527.9H217.7V670.2Z" class="g2_209"/>
<path d="M565,414.6H776.7V272.3H565V414.6Z" class="g0_209"/>
<image clip-path="url(#c3_209)" preserveAspectRatio="none" x="563" y="271" width="215" height="145" xlink:href="img/4.jpg"/>
<path d="M565,414.6H776.7V272.3H565V414.6Z" class="g2_209"/>
<path d="M565,671.5H776.7V529.2H565V671.5Z" class="g0_209"/>
<image clip-path="url(#c4_209)" preserveAspectRatio="none" x="564" y="529" width="214" height="143" xlink:href="img/5.jpg"/>
<path d="M565,671.5H776.7V529.2H565V671.5Z" class="g2_209"/>
<path d="M217.7,1171H429.4V1028.7H217.7V1171Z" class="g0_209"/>
<image clip-path="url(#c5_209)" preserveAspectRatio="none" x="216" y="1028" width="215" height="144" xlink:href="img/6.jpg"/>
<path d="M217.7,1171H429.4V1028.7H217.7V1171Z" class="g2_209"/>
<path d="M217.7,955.2H429.4V812.8H217.7V955.2Z" class="g0_209"/>
<image clip-path="url(#c6_209)" preserveAspectRatio="none" x="216" y="812" width="215" height="144" xlink:href="img/7.jpg"/>
<path d="M217.7,955.2H429.4V812.8H217.7V955.2Z" class="g2_209"/>
<path d="M565,956.5H776.7V814.1H565V956.5Z" class="g0_209"/>
<image clip-path="url(#c7_209)" preserveAspectRatio="none" x="564" y="813" width="214" height="144" xlink:href="img/8.jpg"/>
<path d="M565,956.5H776.7V814.1H565V956.5Z" class="g2_209"/>
<path d="M565,1172.3H776.7V1030H565v142.3Z" class="g0_209"/>
<image clip-path="url(#c8_209)" preserveAspectRatio="none" x="564" y="1029" width="214" height="144" xlink:href="img/9.jpg"/>
<path d="M565,1172.3H776.7V1030H565v142.3Z" class="g2_209"/>
<path d="M153.3,126.3v22.2L165,158.7V136.5Z" class="g3_209"/>
<path d="M153.3,109.5v39H851.1c0,0,16.8,0,16.8,-16.8v-5.4c0,0,0,-16.8,-16.8,-16.8Z" class="g4_209"/>
<path d="M207.2,115.7c0,-9.1,-7.9,-16.6,-17.7,-16.6c-9.8,0,-17.7,7.5,-17.7,16.6c0,2.7,.6,5.2,1.8,7.4c1.2,2.4,2.9,4.6,5,6.2c1.2,1,1.6,1.7,1.7,4.3v.6c0,3.3,2.7,5.9,5.9,5.9h6.6c3.2,0,5.8,-2.6,5.8,-5.9v-.6c.2,-2.6,.6,-3.3,1.8,-4.3c2.1,-1.6,3.8,-3.8,5,-6.2c1.2,-2.2,1.8,-4.7,1.8,-7.4Z" class="g5_209"/>
<path d="M207.2,115.7c0,-9.1,-7.9,-16.6,-17.7,-16.6c-9.8,0,-17.7,7.5,-17.7,16.6c0,2.7,.6,5.2,1.8,7.4c1.2,2.4,2.9,4.6,5,6.2c1.2,1,1.6,1.7,1.7,4.3v.6c0,3.3,2.7,5.9,5.9,5.9h6.6c3.2,0,5.8,-2.6,5.8,-5.9v-.6c.2,-2.6,.6,-3.3,1.8,-4.3c2.1,-1.6,3.8,-3.8,5,-6.2c1.2,-2.2,1.8,-4.7,1.8,-7.4Z" class="g6_209"/>
<path d="M194.6,147.4c0,2.8,-2.3,5.1,-5.1,5.1c-2.8,0,-5.1,-2.3,-5.1,-5.1c0,-2.8,2.3,-5.1,5.1,-5.1c2.8,0,5.1,2.3,5.1,5.1Z" class="g0_209"/>
<path d="M194.6,147.4c0,2.8,-2.3,5.1,-5.1,5.1c-2.8,0,-5.1,-2.3,-5.1,-5.1c0,-2.8,2.3,-5.1,5.1,-5.1c2.8,0,5.1,2.3,5.1,5.1Z" class="g6_209"/>
<path d="M182.1,140.2c0,1,.8,1.8,1.8,1.8h11.2c1,0,1.8,-.8,1.8,-1.8v-1.3H182.1Z" class="g0_209"/>
<path d="M182.1,140.2c0,1,.8,1.8,1.8,1.8h11.2c1,0,1.8,-.8,1.8,-1.8v-1.3H182.1v1.3Z" class="g6_209"/>
<path d="M196.9,143.2c0,.8,-.6,1.3,-1.3,1.3H183.4c-.8,0,-1.3,-.5,-1.3,-1.3c0,-.7,.5,-1.3,1.3,-1.3h12.2c.7,0,1.3,.6,1.3,1.3Z" class="g0_209"/>
<path d="M196.9,143.2c0,.8,-.6,1.3,-1.3,1.3H183.4c-.8,0,-1.3,-.5,-1.3,-1.3c0,-.7,.5,-1.3,1.3,-1.3h12.2c.7,0,1.3,.6,1.3,1.3Z" class="g6_209"/>
<path d="M196.9,145.8c0,.7,-.6,1.3,-1.3,1.3H183.4c-.8,0,-1.3,-.6,-1.3,-1.3c0,-.7,.5,-1.3,1.3,-1.3h12.2c.7,0,1.3,.6,1.3,1.3Z" class="g0_209"/>
<path d="M196.9,145.8c0,.7,-.6,1.3,-1.3,1.3H183.4c-.8,0,-1.3,-.6,-1.3,-1.3c0,-.7,.5,-1.3,1.3,-1.3h12.2c.7,0,1.3,.6,1.3,1.3Z" class="g6_209"/>
<path d="M215.5,128.7l8.3,10.4c.6,.7,1.8,.6,2.7,-.2c.9,-.7,1.2,-1.9,.7,-2.6l-8.9,-10.2Z" class="g7_209"/>
<path d="M215.5,128.7l8.3,10.4c.6,.7,1.8,.6,2.7,-.2c.9,-.7,1.2,-1.9,.7,-2.6l-8.9,-10.2l-2.8,2.6Z" class="g6_209"/>
<path d="M217.5,125.1c.5,.6,.3,1.8,-.7,2.6c-.9,.7,-2.1,.8,-2.6,.2c-.6,-.7,-.3,-1.9,.6,-2.6c.9,-.8,2.1,-.9,2.7,-.2Z" class="g8_209"/>
<path d="M217.5,125.1c.5,.6,.3,1.8,-.7,2.6c-.9,.7,-2.1,.8,-2.6,.2c-.6,-.7,-.3,-1.9,.6,-2.6c.9,-.8,2.1,-.9,2.7,-.2Z" class="g6_209"/>
<path d="M212.7,124.7l1.7,2c.3,.3,1,.3,1.5,-.1c.5,-.5,.7,-1.1,.4,-1.5l-1.7,-2Z" class="g0_209"/>
<path d="M212.7,124.7l1.7,2c.3,.3,1,.3,1.5,-.1c.5,-.5,.7,-1.1,.4,-1.5l-1.7,-2l-1.9,1.6Z" class="g9_209"/>
<path d="M214.8,122.9c.4,.5,.2,1.3,-.5,1.8c-.6,.5,-1.4,.6,-1.8,.1c-.4,-.4,-.2,-1.2,.5,-1.7c.6,-.6,1.4,-.6,1.8,-.2Z" class="g0_209"/>
<path d="M214.8,122.9c.4,.5,.2,1.3,-.5,1.8c-.6,.5,-1.4,.6,-1.8,.1c-.4,-.4,-.2,-1.2,.5,-1.7c.6,-.6,1.4,-.6,1.8,-.2Z" class="g9_209"/>
<path d="M216.4,105.4c4.8,5.7,4.1,14.2,-1.7,19c-5.7,4.8,-14.2,4,-19,-1.7c-4.8,-5.7,-4,-14.2,1.7,-19c5.7,-4.8,14.2,-4.1,19,1.7Z" class="g0_209"/>
<path d="M216.4,105.4c4.8,5.7,4.1,14.2,-1.7,19c-5.7,4.8,-14.2,4,-19,-1.7c-4.8,-5.7,-4,-14.2,1.7,-19c5.7,-4.8,14.2,-4.1,19,1.7Z" class="g6_209"/>
<path d="M214,107.4c3.5,4.2,3,10.5,-1.3,14.1c-4.2,3.5,-10.5,2.9,-14,-1.3c-3.5,-4.2,-3,-10.5,1.2,-14c4.2,-3.6,10.5,-3,14.1,1.2Z" class="ga_209"/>
<path d="M214,107.4c3.5,4.2,3,10.5,-1.3,14.1c-4.2,3.5,-10.5,2.9,-14,-1.3c-3.5,-4.2,-3,-10.5,1.2,-14c4.2,-3.6,10.5,-3,14.1,1.2Z" class="g6_209"/>
<path d="M213,110.6l-3.1,3m3.1,-.4l-3.1,3" class="gb_209"/>
<path d="M172.1,99l3.1,3.3m1.1,-5.9l1.2,3.9m-8.1,3l3.7,1.2" class="gc_209"/>
<path d="M185.8,106.1c1.2,1.2,.2,4.3,-2.2,6.7c-2.5,2.5,-5.5,3.5,-6.8,2.3c-1.2,-1.3,-.3,-4.3,2.2,-6.8c2.5,-2.5,5.5,-3.5,6.8,-2.2Z" class="g0_209"/>
<path d="M203.7,107.6c.6,.6,.1,1.9,-.9,3c-1.1,1,-2.4,1.5,-3,.9c-.5,-.5,-.1,-1.8,1,-2.9c1.1,-1.1,2.4,-1.5,2.9,-1Z" class="g0_209"/>
<path d="M32.1,45.1H9.2m958.3,0h22.9M32.1,1331.3H9.2m958.3,0h22.9M45.1,32.1V9.2m0,1335.1v22.9M954.5,32.1V9.2m0,1335.1v22.9" class="gd_209"/>
<path d="M32.1,45.1H9.2m958.3,0h22.9M32.1,1331.3H9.2m958.3,0h22.9M45.1,32.1V9.2m0,1335.1v22.9M954.5,32.1V9.2m0,1335.1v22.9" class="ge_209"/>
<path d="M27.5,32.1H0m972.1,0h27.5M27.5,1344.3H0m972.1,0h27.5M32.1,27.5V0m0,1348.9v27.5M967.5,27.5V0m0,1348.9v27.5" class="gd_209"/>
<path d="M27.5,32.1H0m972.1,0h27.5M27.5,1344.3H0m972.1,0h27.5M32.1,27.5V0m0,1348.9v27.5M967.5,27.5V0m0,1348.9v27.5" class="ge_209"/>
</svg>