<?xml version="1.0" encoding="UTF-8" standalone="no"?>
<!DOCTYPE svg PUBLIC "-//W3C//DTD SVG 1.1//EN"
"http://www.w3.org/Graphics/SVG/1.1/DTD/svg11.dtd">
<svg viewBox="0 0 999 1376" version="1.1" xmlns="http://www.w3.org/2000/svg" xmlns:xlink="http://www.w3.org/1999/xlink">
<defs>
<clipPath id="c0_265"><path d="M198.7,1083l-6.5,-2.2l-16.4,-13.9v-57.1h72V1083Z"/></clipPath>
<clipPath id="c1_265"><path d="M198.7,246.7l-6.5,-2.1l-16.4,-14V173.5h72v73.2Z"/></clipPath>
<clipPath id="c2_265"><path d="M754.5,455V365.4H920.6V455Z"/></clipPath>
<clipPath id="c3_265"><path d="M757.2,449.4V371.8H919.4v77.6Z"/></clipPath>
<clipPath id="c4_265"><path d="M756.9,449.1V371.5H919.1v77.6Z"/></clipPath>
<clipPath id="c5_265"><path d="M840.4,388.4c-.3,-.1,3.6,-8.2,3.6,-8.2l.7,.5c0,0,-4,7.7,-4.3,7.7Z"/></clipPath>
<clipPath id="c6_265"><path d="M847.9,380.7c0,0,-6.8,-1.1,-7.6,-5.3c-.6,-3.6,1.5,-3.8,2.1,-3.8q.1,0,.1,0l8.3,-12.7l-1.4,-3.1c0,0,-.6,-1.1,.1,-2.1c.1,0,.2,-.1,.3,-.1c2.1,0,13,5.6,13,5.6v.1c-.3,.5,-.7,1.2,-1.4,1.7c-.6,.4,-5,1.1,-5,1.1l-8.5,18.6Z"/></clipPath>
<clipPath id="c7_265"><path d="M847.5,380.3c.2,-.5,.2,-1.8,0,-2.3v-1.3c-1.5,-.6,-2.9,-1.3,-3.6,-2.6c-1.1,.6,-2.2,1.3,-3.2,1.9c1.6,2.2,3.8,3.6,6.8,4.3Zm0,-3.9c2.2,-4.5,4,-9.5,6.2,-14.1C852.8,362,851.8,361,851,361c-2.3,4.3,-4.6,8.6,-7,12.8c.7,1.3,2.1,2,3.5,2.6Zm-7.3,12.1c1,-2.9,2.4,-5.5,3.5,-8.3c-2,-1.6,-3.9,-3.1,-4.4,-6.2v-1.5c0,-2.7,2,-3.4,4.6,-3.4q.1,0,.2,0c1.9,-3.3,4.2,-6.3,6.2,-9.6c-.6,-.9,-1.2,-2.4,-.9,-3.7c.5,1.3,1.6,1.9,2.4,2.9c-.1,.6,-.3,1.1,-.4,1.8c.6,.6,1.3,1.1,2.4,1.3c.4,-.4,.5,-1.2,1.1,-1.5c1,.4,1.9,.8,3.2,.8c.1,.1,.4,.1,.8,.1c.3,0,.7,0,.8,-.1c.1,0,.2,0,.3,0c.2,0,.4,0,.6,-.1c.2,-.1,.4,-.1,.5,-.1c.1,0,.2,0,.3,.1c-1.3,.6,-2.1,1.7,-4.1,1.7c-.1,0,-.3,0,-.4,0c-.8,3.8,-1.8,7.4,-2.6,11.2c.5,1.1,1.5,1.7,1.2,3.1c-.4,2.8,-3.8,4.4,-7.2,4.4c-1.2,0,-2.5,-.2,-3.6,-.7c-1,2.1,-2,4.1,-3.2,6c-.1,-.4,.3,-.4,.2,-.7c1,-1.8,2,-3.6,2.7,-5.7c-1.1,1.7,-1.9,3.7,-2.8,5.5c-.2,.5,-.4,.9,-.6,1.3c-.3,.4,-.3,1.1,-.8,1.4Z"/></clipPath>
<clipPath id="c8_265"><path d="M857.9,360.7c-4.8,0,-13,-7.3,-5.5,-8.8h1.3c.2,.1,.4,.1,.6,.1q.1,0,.2,0c.3,0,.6,0,.9,0c3.1,.7,8.2,3.8,7.6,7.1c-.3,1.1,-1.6,1.6,-3.2,1.6h-1.7q-.1,0,-.2,0Z"/></clipPath>
<clipPath id="c9_265"><path d="M786.5,132.5V120.1H801v12.4Z"/></clipPath>
<clipPath id="ca_265"><path d="M737,774.2V685.7H903.1v88.5Z"/></clipPath>
<clipPath id="cb_265"><path d="M736.3,779.4V683.2H903.5v96.2Z"/></clipPath>
<clipPath id="cc_265"><path d="M736,779.1V682.9H903.2v96.2Z"/></clipPath>
<clipPath id="cd_265"><path d="M815.2,701.5c-.3,-.1,3.5,-8.3,3.5,-8.3l.8,.6c0,0,-4,7.7,-4.3,7.7Z"/></clipPath>
<clipPath id="ce_265"><path d="M822.7,693.7c0,0,-6.9,-1.1,-7.6,-5.2c-.6,-3.6,1.5,-3.8,2.1,-3.8q.1,0,.1,0l8.3,-12.8l-1.4,-3c0,0,-.6,-1.1,.1,-2.1c.1,-.1,.2,-.1,.3,-.1c2.1,0,13,5.5,13,5.5v.2c-.3,.5,-.7,1.1,-1.4,1.6c-.6,.5,-5.1,1.2,-5.1,1.2l-8.4,18.5Z"/></clipPath>
<clipPath id="cf_265"><path d="M822.3,693.4c.2,-.5,.2,-1.8,0,-2.3v-1.4c-1.5,-.5,-2.9,-1.2,-3.7,-2.5c-1.1,.6,-2.1,1.2,-3.1,1.9c1.5,2.1,3.8,3.6,6.8,4.3Zm0,-3.9c2.2,-4.6,4,-9.5,6.1,-14.1c-.8,-.4,-1.8,-1.3,-2.6,-1.4c-2.3,4.4,-4.6,8.7,-7,12.8c.7,1.4,2.1,2.1,3.5,2.7ZM815,701.6c1,-2.9,2.4,-5.5,3.5,-8.3c-2,-1.6,-3.9,-3.2,-4.4,-6.2v-1.5c0,-2.7,1.9,-3.4,4.6,-3.4q.1,0,.2,0c1.9,-3.3,4.2,-6.3,6.1,-9.7c-.5,-.8,-1.1,-2.3,-.8,-3.6c.5,1.2,1.6,1.9,2.4,2.9c-.2,.6,-.3,1.1,-.4,1.7c.6,.7,1.3,1.2,2.4,1.4c.4,-.4,.5,-1.2,1.1,-1.5c.9,.4,1.8,.8,3.1,.8c.2,.1,.5,.1,.9,.1c.3,0,.6,0,.8,-.1c.1,0,.2,0,.3,0c.2,0,.4,-.1,.6,-.1c.2,-.1,.4,-.2,.5,-.2c.1,0,.2,.1,.3,.1c-1.3,.7,-2.2,1.8,-4.1,1.8c-.2,0,-.3,0,-.4,0c-.9,3.7,-1.8,7.4,-2.6,11.2c.5,1,1.5,1.7,1.2,3.1c-.4,2.7,-3.8,4.4,-7.2,4.4c-1.2,0,-2.5,-.2,-3.6,-.7c-1,2.1,-2.1,4.1,-3.3,6c0,-.4,.3,-.4,.3,-.8c1,-1.8,1.9,-3.6,2.6,-5.6c-1,1.7,-1.8,3.7,-2.7,5.5c-.2,.4,-.4,.8,-.7,1.3c-.2,.4,-.2,1.1,-.7,1.4Z"/></clipPath>
<clipPath id="cg_265"><path d="M832.7,673.8c-4.8,0,-13.1,-7.3,-5.5,-8.8h1.2c.2,0,.4,0,.6,0c0,0,.1,0,.1,0c.1,0,.2,0,.2,0c.3,0,.6,0,.9,.1c3.1,.7,8.2,3.8,7.5,7c-.2,1.2,-1.5,1.6,-3.1,1.7h-1.9Z"/></clipPath>
<style type="text/css"><![CDATA[
.g0_265{
fill: #FEFCF4;
}
.g1_265{
fill: #FFF;
}
.g2_265{
fill: none;
stroke: #6381B7;
stroke-width: 0.763;
}
.g3_265{
fill: #6381B7;
}
.g4_265{
fill: none;
stroke: #6381B7;
stroke-width: 0.381;
stroke-dasharray: 2,1;
}
.g5_265{
fill: none;
stroke: #6381B7;
stroke-width: 0.381;
}
.g6_265{
fill: #FCE8B0;
}
.g7_265{
fill: #F7C2D9;
}
.g8_265{
fill: #FDF4F3;
}
.g9_265{
fill: #EC008C;
}
.ga_265{
fill: none;
stroke: #949698;
stroke-width: 0.305;
stroke-dasharray: 4,4;
}
.gb_265{
fill: none;
stroke: #949698;
stroke-width: 0.305;
}
.gc_265{
fill: none;
stroke: #949698;
stroke-width: 0.305;
stroke-dasharray: 3,3;
}
.gd_265{
fill: #6D6F71;
}
.ge_265{
fill: #25408F;
}
.gf_265{
fill: #A8AAAD;
}
.gg_265{
fill: none;
stroke: #949698;
stroke-width: 0.549;
}
.gh_265{
fill: none;
stroke: #BCBEC0;
stroke-width: 2.566;
}
.gi_265{
fill: #231F20;
}
.gj_265{
fill: #363637;
}
.gk_265{
fill: #5CC4BE;
}
.gl_265{
fill: #F0D73F;
}
.gm_265{
fill: none;
stroke: #FFF;
stroke-width: 1.909;
stroke-miterlimit: 10;
}
.gn_265{
fill: none;
stroke: #000;
stroke-width: 0.381;
stroke-miterlimit: 10;
}
]]></style>
</defs>
<path d="M45.1,1344.3H967.5V32.1H45.1V1344.3Z" class="g0_265"/>
<path d="M172.1,130.6c0,0,-18.4,0,-18.4,18.3V957.5c0,0,0,18.3,18.4,18.3H849.2c0,0,18.3,0,18.3,-18.3V130.6Z" class="g1_265"/>
<path d="M172.1,130.6c0,0,-18.4,0,-18.4,18.3V957.5c0,0,0,18.3,18.4,18.3H849.2c0,0,18.3,0,18.3,-18.3V130.6H172.1Z" class="g2_265"/>
<path d="M166.7,990.6c0,0,-13,0,-13,13V1162c0,0,0,13,13,13H854.5c0,0,13,0,13,-13V1003.6c0,0,0,-13,-13,-13Z" class="g1_265"/>
<path d="M166.7,990.6c0,0,-13,0,-13,13V1162c0,0,0,13,13,13H854.5c0,0,13,0,13,-13V1003.6c0,0,0,-13,-13,-13H166.7Z" class="g2_265"/>
<path d="M447.1,1203.2c0,0,-4.3,0,-4.3,4.3v10.8c0,0,0,4.3,4.3,4.3h30.3c0,0,4.4,0,4.4,-4.3v-10.8c0,0,0,-4.3,-4.4,-4.3Z" class="g3_265"/>
<path d="M433.9,1195.7v34.8m1.4,1H866.8m.9,-1.4v-34.8m-1.3,-1H434.9" class="g4_265"/>
<path d="M433.9,1230.9v.6h.6m432.6,0h.6v-.6m0,-36v-.6h-.6m-432.6,0h-.6v.6" class="g5_265"/>
<path d="M231.3,1012c0,0,-13,0,-13,13v47.6c0,0,0,13,13,13h602c0,0,13,0,13,-13V1025c0,0,0,-13,-13,-13Z" class="g6_265"/>
<image clip-path="url(#c0_265)" preserveAspectRatio="none" x="174" y="1008" width="75" height="77" xlink:href="img/1.png"/>
<path d="M226.1,1078.2c0,0,-26.9,11.3,-51.1,-12.7c0,0,15.2,25.3,49.3,23.9c0,0,24.7,.4,20.2,-10.1c0,0,1.3,-4.4,-18.4,-1.1Z" class="g6_265"/>
<path d="M231.3,175.7c0,0,-13,0,-13,13v47.6c0,0,0,13,13,13h602c0,0,13,0,13,-13V188.7c0,0,0,-13,-13,-13Z" class="g6_265"/>
<image clip-path="url(#c1_265)" preserveAspectRatio="none" x="174" y="172" width="75" height="76" xlink:href="img/2.png"/>
<path d="M226.1,242c0,0,-26.9,11.3,-51.1,-12.8c0,0,15.2,25.3,49.3,24c0,0,24.7,.3,20.2,-10.2c0,0,1.3,-4.4,-18.4,-1Z" class="g6_265"/>
<image clip-path="url(#c2_265)" preserveAspectRatio="none" x="754" y="366" width="166" height="89" xlink:href="img/3.png"/>
<path d="M759.2,389.5l7.9,59.7L914.8,429l-8.4,-58.8Z" class="g7_265"/>
<image clip-path="url(#c3_265)" preserveAspectRatio="none" x="757" y="372" width="162" height="78" xlink:href="img/4.png"/>
<image clip-path="url(#c4_265)" preserveAspectRatio="none" x="756" y="372" width="163" height="78" xlink:href="img/5.png"/>
<path d="M761.6,386.6l4,56.3L893.2,434l19.7,-20.4l-2.6,-37.3Z" class="g8_265"/>
<path d="M893.7,434.1l19.5,-20.3l-11,-1.7Z" class="g9_265"/>
<path d="M713.1,525.9c-19.1,-.8,-34.5,-6.6,-37.8,-14m.7,-7.4c4.6,-6.9,20,-12.2,38.7,-12.7m7.7,0c19.2,.9,34.6,6.6,37.9,14.1m-.8,7.3c-4.6,7,-20,12.2,-38.6,12.8" class="ga_265"/>
<path d="M674.8,510.4c-.1,-.5,-.2,-1,-.2,-1.5c0,-.5,.1,-1,.2,-1.6m41.4,-15.5c.5,0,1.1,0,1.6,0c.5,0,1,0,1.5,0m41.5,15.5c.1,.6,.1,1.1,.1,1.6c0,.5,0,1,-.1,1.5M719.3,526c-.5,0,-1,0,-1.5,0c-.5,0,-1.1,0,-1.6,0" class="gb_265"/>
<path d="M692.8,488.3c-.6,-9.7,-.6,-32.6,10.6,-43.3m6.2,-2.1c2.6,.3,5.3,1.7,3.2,6.8M704,447.2c-.1,-4,1.7,-10.6,10.9,-18.6" class="gc_265"/>
<path d="M721,424c5.6,-3.6,17.3,-10.1,32.8,-13.2" class="ga_265"/>
<path d="M693.1,492.7c0,0,0,-.5,-.1,-1.5M704.5,444c.3,-.3,.7,-.6,1.1,-.9c0,0,.6,-.1,1.3,-.2m5.3,8c-.2,.4,-.4,.8,-.6,1.2c0,0,-.7,.6,-1.7,.9m-3.6,-.2c-.5,-.3,-.9,-.7,-1.4,-1.3c0,0,-.3,-.4,-.5,-1.4M716,427.6c.4,-.3,.8,-.6,1.2,-.9c0,0,.4,-.3,1.2,-.9m36.9,-15.3c.5,-.1,1,-.2,1.6,-.3" class="gb_265"/>
<path d="M756.8,413.6l-1,-8.8l11.8,3.2Z" class="gd_265"/>
<image clip-path="url(#c5_265)" x="840" y="380" width="5" height="9" xlink:href="shade/1.png"/>
<image clip-path="url(#c6_265)" x="839" y="353" width="24" height="28" xlink:href="shade/2.png"/>
<image clip-path="url(#c7_265)" x="839" y="355" width="23" height="34" xlink:href="shade/3.png"/>
<image clip-path="url(#c8_265)" x="844" y="351" width="20" height="10" xlink:href="shade/4.png"/>
<path d="M153.3,111.9v39L165,161.2V117Z" class="ge_265"/>
<path d="M153.3,111.9v39H851.1c0,0,16.8,0,16.8,-16.8v-5.3c0,0,0,-16.9,-16.8,-16.9Z" class="g3_265"/>
<path d="M802.6,145.6c8.2,0,14.9,-6.5,14.9,-14.5c0,-8.1,-6.7,-14.5,-14.9,-14.5c-8.2,0,-14.9,6.4,-14.9,14.5c0,8,6.7,14.5,14.9,14.5Z" class="gf_265"/>
<path d="M802.6,145.6c8.2,0,14.9,-6.5,14.9,-14.5c0,-8.1,-6.7,-14.5,-14.9,-14.5c-8.2,0,-14.9,6.4,-14.9,14.5c0,8,6.7,14.5,14.9,14.5Z" class="gg_265"/>
<path d="M802.6,136.4c3,0,5.5,-2.4,5.5,-5.3c0,-3,-2.5,-5.4,-5.5,-5.4c-3,0,-5.5,2.4,-5.5,5.4c0,2.9,2.5,5.3,5.5,5.3Z" class="g1_265"/>
<path d="M802.6,136.4c3,0,5.5,-2.4,5.5,-5.3c0,-3,-2.5,-5.4,-5.5,-5.4c-3,0,-5.5,2.4,-5.5,5.4c0,2.9,2.5,5.3,5.5,5.3Z" class="gh_265"/>
<g clip-path="url(#c9_265)" opacity="0.3">
<path d="M788,130.3c0,0,0,-4.8,3.7,-8.7l7.7,6.8c0,0,-1,.9,-1,2.6Z" class="g1_265"/>
</g>
<path d="M807.2,131c0,0,-3.5,0,-3.5,3.4v8.7c0,0,0,3.5,3.5,3.5h43.5c0,0,3.5,0,3.5,-3.5v-8.7c0,0,0,-3.4,-3.5,-3.4Z" class="gi_265"/>
<path d="M191.2,122c0,-8.3,-6.8,-15,-15.1,-15c-8.3,0,-15,6.7,-15,15c0,8.3,6.7,15.1,15,15.1c.8,0,1.7,-.1,2.4,-.2l4.5,5.2v-6.7c4.9,-2.5,8.2,-7.6,8.2,-13.4Z" class="g1_265"/>
<path d="M183.5,143.3l-5.1,-5.9c-.8,.1,-1.5,.1,-2.3,.1c-8.5,0,-15.5,-6.9,-15.5,-15.5c0,-8.5,7,-15.5,15.5,-15.5c8.6,0,15.5,7,15.5,15.5c0,5.7,-3.1,11,-8.1,13.7Zm-4.8,-6.9l3.9,4.5v-5.8l.2,-.1c4.9,-2.5,7.9,-7.5,7.9,-13c0,-8,-6.5,-14.6,-14.6,-14.6c-8,0,-14.6,6.6,-14.6,14.6c0,8.1,6.6,14.6,14.6,14.6c.8,0,1.6,-.1,2.4,-.2Z" class="gj_265"/>
<path d="M169.1,121.6c.8,0,1.4,.6,1.4,1.4c0,.8,-.6,1.5,-1.4,1.5c-.8,0,-1.4,-.7,-1.4,-1.5c0,-.8,.6,-1.4,1.4,-1.4Z" class="gk_265"/>
<path d="M169.1,124.9c-1,0,-1.9,-.8,-1.9,-1.9c0,-1,.9,-1.9,1.9,-1.9c1,0,1.9,.9,1.9,1.9c0,1.1,-.9,1.9,-1.9,1.9m0,-2.9c-.5,0,-1,.5,-1,1c0,.6,.5,1,1,1c.5,0,1,-.4,1,-1c0,-.5,-.5,-1,-1,-1Z" class="gj_265"/>
<path d="M176.1,121.6c.8,0,1.5,.6,1.5,1.4c0,.8,-.7,1.5,-1.5,1.5c-.8,0,-1.4,-.7,-1.4,-1.5c0,-.8,.6,-1.4,1.4,-1.4Z" class="gk_265"/>
<path d="M176.1,124.9c-1,0,-1.9,-.8,-1.9,-1.9c0,-1,.9,-1.9,1.9,-1.9c1.1,0,1.9,.9,1.9,1.9c0,1.1,-.8,1.9,-1.9,1.9m0,-2.9c-.5,0,-1,.5,-1,1c0,.6,.5,1,1,1c.6,0,1,-.4,1,-1c0,-.5,-.4,-1,-1,-1Z" class="gj_265"/>
<path d="M183.1,121.6c.8,0,1.5,.6,1.5,1.4c0,.8,-.7,1.5,-1.5,1.5c-.8,0,-1.4,-.7,-1.4,-1.5c0,-.8,.6,-1.4,1.4,-1.4Z" class="gk_265"/>
<path d="M183.1,124.9c-1,0,-1.9,-.8,-1.9,-1.9c0,-1,.9,-1.9,1.9,-1.9c1.1,0,1.9,.9,1.9,1.9c0,1.1,-.8,1.9,-1.9,1.9m0,-2.9c-.5,0,-1,.5,-1,1c0,.6,.5,1,1,1c.6,0,1,-.4,1,-1c0,-.5,-.4,-1,-1,-1Z" class="gj_265"/>
<path d="M185.1,136.3c0,-9.8,7.8,-17.7,17.6,-17.7c9.7,0,17.6,7.9,17.6,17.7c0,9.7,-7.9,17.6,-17.6,17.6c-1,0,-1.9,-.1,-2.9,-.3l-5.2,6.1v-7.8c-5.7,-2.9,-9.5,-8.8,-9.5,-15.6Z" class="gl_265"/>
<path d="M194.6,160.2q-.1,0,-.2,0c-.2,-.1,-.3,-.3,-.3,-.5v-7.5c-5.9,-3.2,-9.5,-9.2,-9.5,-15.9c0,-10,8.1,-18.1,18.1,-18.1c9.9,0,18,8.1,18,18.1c0,9.9,-8.1,18,-18,18c-.9,0,-1.8,0,-2.7,-.2l-5.1,5.9c-.1,.1,-.2,.2,-.3,.2m8.1,-41.1c-9.5,0,-17.2,7.7,-17.2,17.2c0,6.4,3.6,12.2,9.3,15.2c.1,.1,.2,.2,.2,.4v6.6l4.5,-5.2c.1,-.1,.3,-.1,.4,-.1c1,.1,1.9,.2,2.8,.2c9.4,0,17.1,-7.7,17.1,-17.1c0,-9.5,-7.7,-17.2,-17.1,-17.2Z" class="gj_265"/>
<path d="M210.9,135.8c.9,0,1.6,.7,1.6,1.6c0,1,-.7,1.7,-1.6,1.7c-1,0,-1.7,-.7,-1.7,-1.7c0,-.9,.7,-1.6,1.7,-1.6Z" class="g1_265"/>
<path d="M210.9,139.6c-1.2,0,-2.2,-1,-2.2,-2.2c0,-1.1,1,-2.1,2.2,-2.1c1.1,0,2.1,1,2.1,2.1c0,1.2,-1,2.2,-2.1,2.2m0,-3.4c-.7,0,-1.3,.6,-1.3,1.2c0,.7,.6,1.3,1.3,1.3c.6,0,1.2,-.6,1.2,-1.3c0,-.6,-.6,-1.2,-1.2,-1.2Z" class="gj_265"/>
<path d="M202.7,135.8c.9,0,1.6,.7,1.6,1.6c0,1,-.7,1.7,-1.6,1.7c-1,0,-1.7,-.7,-1.7,-1.7c0,-.9,.7,-1.6,1.7,-1.6Z" class="g1_265"/>
<path d="M202.7,139.6c-1.2,0,-2.2,-1,-2.2,-2.2c0,-1.1,1,-2.1,2.2,-2.1c1.1,0,2.1,1,2.1,2.1c0,1.2,-1,2.2,-2.1,2.2m0,-3.4c-.7,0,-1.3,.6,-1.3,1.2c0,.7,.6,1.3,1.3,1.3c.6,0,1.2,-.6,1.2,-1.3c0,-.6,-.6,-1.2,-1.2,-1.2Z" class="gj_265"/>
<path d="M194.5,135.8c.9,0,1.6,.7,1.6,1.6c0,1,-.7,1.7,-1.6,1.7c-1,0,-1.7,-.7,-1.7,-1.7c0,-.9,.7,-1.6,1.7,-1.6Z" class="g1_265"/>
<path d="M194.5,139.6c-1.2,0,-2.2,-1,-2.2,-2.2c0,-1.1,1,-2.1,2.2,-2.1c1.1,0,2.1,1,2.1,2.1c0,1.2,-1,2.2,-2.1,2.2m0,-3.4c-.7,0,-1.2,.6,-1.2,1.2c0,.7,.5,1.3,1.2,1.3c.6,0,1.2,-.6,1.2,-1.3c0,-.6,-.6,-1.2,-1.2,-1.2Z" class="gj_265"/>
<path d="M680,845.7c37.5,-.3,67.5,-6.7,73.2,-14.9m-1,-6.7c-7.7,-7.8,-37.6,-13.6,-73.7,-13.9m-7.4,0c-37.2,.5,-67.5,6.8,-73.2,15m1,6.7c7.6,7.7,37.5,13.5,73.7,13.8" class="gc_265"/>
<path d="M753.8,829.4c.2,-.4,.3,-.9,.3,-1.4c0,-.5,-.1,-1,-.3,-1.5M677,810.2c-.5,0,-1,0,-1.5,0c-.5,0,-1,0,-1.5,0m-76.8,16.3c-.2,.5,-.2,1,-.2,1.5c0,.5,0,1,.2,1.4M674,845.8c.5,0,1,0,1.5,0c.5,0,1,0,1.5,0" class="gb_265"/>
<image clip-path="url(#ca_265)" preserveAspectRatio="none" x="736" y="686" width="167" height="88" xlink:href="img/6.png"/>
<path d="M742.3,693.1l1.1,75l153.5,-2L895,691Z" class="g7_265"/>
<image clip-path="url(#cb_265)" preserveAspectRatio="none" x="736" y="684" width="167" height="96" xlink:href="img/7.png"/>
<image clip-path="url(#cc_265)" preserveAspectRatio="none" x="736" y="684" width="167" height="96" xlink:href="img/8.png"/>
<path d="M740.7,699l5.8,74.2l129.1,-9.8l21.2,-20.5L893,687.6Z" class="g8_265"/>
<path d="M875,763.4L896.9,743l-13.8,-4.6Z" class="g9_265"/>
<image clip-path="url(#cd_265)" x="814" y="693" width="6" height="9" xlink:href="shade/5.png"/>
<image clip-path="url(#ce_265)" x="814" y="666" width="24" height="28" xlink:href="shade/6.png"/>
<image clip-path="url(#cf_265)" x="814" y="668" width="23" height="34" xlink:href="shade/7.png"/>
<image clip-path="url(#cg_265)" x="819" y="664" width="20" height="10" xlink:href="shade/8.png"/>
<path d="M643.6,810.1c0,0,7.3,-72.3,102.6,-82.3" class="ga_265"/>
<path d="M740.3,724.9l1.5,8.6l10.4,-6.4Z" class="gd_265"/>
<path d="M32.1,45.1H9.2m958.3,0h22.9M32.1,1331.3H9.2m958.3,0h22.9M45.1,32.1V9.2m0,1335.1v22.9M954.5,32.1V9.2m0,1335.1v22.9" class="gm_265"/>
<path d="M32.1,45.1H9.2m958.3,0h22.9M32.1,1331.3H9.2m958.3,0h22.9M45.1,32.1V9.2m0,1335.1v22.9M954.5,32.1V9.2m0,1335.1v22.9" class="gn_265"/>
<path d="M27.5,32.1H0m972.1,0h27.5M27.5,1344.3H0m972.1,0h27.5M32.1,27.5V0m0,1348.9v27.5M967.5,27.5V0m0,1348.9v27.5" class="gm_265"/>
<path d="M27.5,32.1H0m972.1,0h27.5M27.5,1344.3H0m972.1,0h27.5M32.1,27.5V0m0,1348.9v27.5M967.5,27.5V0m0,1348.9v27.5" class="gn_265"/>
</svg>