<?xml version="1.0" encoding="UTF-8" standalone="no"?>
<!DOCTYPE svg PUBLIC "-//W3C//DTD SVG 1.1//EN"
"http://www.w3.org/Graphics/SVG/1.1/DTD/svg11.dtd">
<svg viewBox="0 0 999 1376" version="1.1" xmlns="http://www.w3.org/2000/svg" xmlns:xlink="http://www.w3.org/1999/xlink">
<defs>
<clipPath id="c0_182"><path d="M715.9,1009.2v-61h55.6v61Z"/></clipPath>
<clipPath id="c1_182"><path d="M577.5,1019.6v-71h74.9v71Z"/></clipPath>
<clipPath id="c2_182"><path d="M456,1016.6V952.4h62.7v64.2Z"/></clipPath>
<clipPath id="c3_182"><path d="M317.8,1018.9V947.1h68.7v71.8Z"/></clipPath>
<clipPath id="c4_182"><path d="M188.6,1016.7V942.1h74.5v74.6Z"/></clipPath>
<clipPath id="c5_182"><path d="M175,233l-6.5,-2.1l-16.4,-14V159.8h72V233Z"/></clipPath>
<clipPath id="c6_182"><path d="M177.9,875l-6.5,-2.1L155,859V801.9h72V875Z"/></clipPath>
<style type="text/css"><![CDATA[
.g0_182{
fill: #FEFCF4;
}
.g1_182{
fill: #FFF;
}
.g2_182{
fill: none;
stroke: #6381B7;
stroke-width: 0.763;
}
.g3_182{
fill: none;
stroke: #949698;
stroke-width: 0.381;
}
.g4_182{
fill: #93BEDA;
}
.g5_182{
fill: #EFE9CC;
}
.g6_182{
fill: #6381B7;
}
.g7_182{
fill: none;
stroke: #6381B7;
stroke-width: 0.381;
stroke-dasharray: 2,1;
}
.g8_182{
fill: none;
stroke: #6381B7;
stroke-width: 0.381;
}
.g9_182{
fill: #FCE8B0;
}
.ga_182{
fill: #25408F;
}
.gb_182{
fill: #00BAF1;
}
.gc_182{
fill: #332D2C;
}
.gd_182{
fill: #D9DFF0;
}
.ge_182{
fill: #F27C85;
}
.gf_182{
fill: #7DD3F6;
}
.gg_182{
fill: none;
stroke: #FFF;
stroke-width: 1.909;
stroke-miterlimit: 10;
}
.gh_182{
fill: none;
stroke: #000;
stroke-width: 0.381;
stroke-miterlimit: 10;
}
]]></style>
</defs>
<path d="M32.1,1344.3H954.5V32.1H32.1V1344.3Z" class="g0_182"/>
<path d="M150.9,135c0,0,-18.3,0,-18.3,18.3v569c0,0,0,18.3,18.3,18.3H828c0,0,18.4,0,18.4,-18.3V135Z" class="g1_182"/>
<path d="M150.9,135c0,0,-18.3,0,-18.3,18.3v569c0,0,0,18.3,18.3,18.3H828c0,0,18.4,0,18.4,-18.3V135H150.9Z" class="g2_182"/>
<path d="M188.2,358.1H308.7V258.9H188.2v99.2Z" class="g1_182"/>
<image preserveAspectRatio="none" x="199" y="259" width="99" height="99" xlink:href="img/1.jpg"/>
<path d="M188.2,358.1H308.7V258.9H188.2v99.2Z" class="g3_182"/>
<path d="M515.4,358.1H635.9V258.9H515.4v99.2Z" class="g1_182"/>
<image preserveAspectRatio="none" x="526" y="259" width="99" height="99" xlink:href="img/2.jpg"/>
<path d="M515.4,358.1H635.9V258.9H515.4v99.2Z" class="g3_182"/>
<path d="M351.8,358.1H472.3V258.9H351.8v99.2Z" class="g1_182"/>
<image preserveAspectRatio="none" x="362" y="259" width="100" height="99" xlink:href="img/3.jpg"/>
<path d="M351.8,358.1H472.3V258.9H351.8v99.2Z" class="g3_182"/>
<path d="M679,358.1H799.5V258.9H679v99.2Z" class="g1_182"/>
<image preserveAspectRatio="none" x="690" y="259" width="99" height="99" xlink:href="img/4.jpg"/>
<path d="M679,358.1H799.5V258.9H679v99.2Z" class="g3_182"/>
<path d="M188.2,519.6H335V420.3H188.2v99.3Z" class="g1_182"/>
<image preserveAspectRatio="none" x="212" y="420" width="99" height="100" xlink:href="img/5.jpg"/>
<path d="M188.2,519.6H335V420.3H188.2v99.3Z" class="g3_182"/>
<path d="M420.4,519.6H567.3V420.3H420.4v99.3Z" class="g1_182"/>
<image preserveAspectRatio="none" x="444" y="420" width="99" height="100" xlink:href="img/6.jpg"/>
<path d="M420.4,519.6H567.3V420.3H420.4v99.3Z" class="g3_182"/>
<path d="M652.6,519.6H799.5V420.3H652.6v99.3Z" class="g1_182"/>
<image preserveAspectRatio="none" x="676" y="420" width="100" height="100" xlink:href="img/7.jpg"/>
<path d="M652.6,519.6H799.5V420.3H652.6v99.3Z" class="g3_182"/>
<path d="M188.2,681H308.7V581.8H188.2V681Z" class="g1_182"/>
<image preserveAspectRatio="none" x="199" y="582" width="99" height="99" xlink:href="img/8.jpg"/>
<path d="M188.2,681H308.7V581.8H188.2V681Z" class="g3_182"/>
<path d="M351.8,681H472.3V581.8H351.8V681Z" class="g1_182"/>
<image preserveAspectRatio="none" x="362" y="582" width="100" height="99" xlink:href="img/9.jpg"/>
<path d="M351.8,681H472.3V581.8H351.8V681Z" class="g3_182"/>
<path d="M515.4,681H635.9V581.8H515.4V681Z" class="g1_182"/>
<image preserveAspectRatio="none" x="526" y="582" width="99" height="99" xlink:href="img/10.jpg"/>
<path d="M515.4,681H635.9V581.8H515.4V681Z" class="g3_182"/>
<path d="M679,681H799.5V581.8H679V681Z" class="g1_182"/>
<image preserveAspectRatio="none" x="690" y="582" width="99" height="99" xlink:href="img/11.jpg"/>
<path d="M679,681H799.5V581.8H679V681Z" class="g3_182"/>
<path d="M144.6,890.1c0,0,-13,0,-13,13v276.8c0,0,0,13,13,13H833.1c0,0,13,0,13,-13V903.1c0,0,0,-13,-13,-13Z" class="g1_182"/>
<path d="M144.6,890.1c0,0,-13,0,-13,13v276.8c0,0,0,13,13,13H833.1c0,0,13,0,13,-13V903.1c0,0,0,-13,-13,-13H144.6Z" class="g2_182"/>
<image clip-path="url(#c0_182)" preserveAspectRatio="none" x="716" y="948" width="56" height="61" xlink:href="img/12.jpg"/>
<image clip-path="url(#c1_182)" preserveAspectRatio="none" x="578" y="949" width="74" height="74" xlink:href="img/13.jpg"/>
<image clip-path="url(#c2_182)" preserveAspectRatio="none" x="449" y="947" width="69" height="69" xlink:href="img/14.jpg"/>
<image clip-path="url(#c3_182)" preserveAspectRatio="none" x="311" y="948" width="75" height="74" xlink:href="img/15.jpg"/>
<image clip-path="url(#c4_182)" preserveAspectRatio="none" x="189" y="942" width="74" height="75" xlink:href="img/16.jpg"/>
<path d="M617.7,1131.1c2,0,3.6,-1.7,3.6,-3.7c0,-2,-1.6,-3.6,-3.6,-3.6c-2,0,-3.6,1.6,-3.6,3.6c0,2,1.6,3.7,3.6,3.7Z" class="g4_182"/>
<path d="M487,1131.1c1.9,0,3.6,-1.7,3.6,-3.7c0,-2,-1.7,-3.6,-3.6,-3.6c-2,0,-3.7,1.6,-3.7,3.6c0,2,1.7,3.7,3.7,3.7Z" class="g4_182"/>
<path d="M356.2,1131.1c2,0,3.6,-1.7,3.6,-3.7c0,-2,-1.6,-3.6,-3.6,-3.6c-2,0,-3.6,1.6,-3.6,3.6c0,2,1.6,3.7,3.6,3.7Z" class="g4_182"/>
<path d="M746.3,1131.1c1.9,0,3.6,-1.7,3.6,-3.7c0,-2,-1.7,-3.6,-3.6,-3.6c-2,0,-3.7,1.6,-3.7,3.6c0,2,1.7,3.7,3.7,3.7Z" class="g4_182"/>
<path d="M225.5,1131.1c2,0,3.6,-1.7,3.6,-3.7c0,-2,-1.6,-3.6,-3.6,-3.6c-2,0,-3.6,1.6,-3.6,3.6c0,2,1.6,3.7,3.6,3.7Z" class="g4_182"/>
<path d="M183.8,1142.1c0,0,-8.7,0,-8.7,8.6v15.2c0,0,0,8.7,8.7,8.7h82.3c0,0,8.6,0,8.6,-8.7v-15.2c0,0,0,-8.6,-8.6,-8.6Z" class="g5_182"/>
<path d="M314.1,1142.1c0,0,-8.7,0,-8.7,8.6v15.2c0,0,0,8.7,8.7,8.7h82.3c0,0,8.6,0,8.6,-8.7v-15.2c0,0,0,-8.6,-8.6,-8.6Z" class="g5_182"/>
<path d="M444.4,1142.1c0,0,-8.7,0,-8.7,8.6v15.2c0,0,0,8.7,8.7,8.7h82.3c0,0,8.6,0,8.6,-8.7v-15.2c0,0,0,-8.6,-8.6,-8.6Z" class="g5_182"/>
<path d="M574.7,1142.1c0,0,-8.7,0,-8.7,8.6v15.2c0,0,0,8.7,8.7,8.7h82.2c0,0,8.7,0,8.7,-8.7v-15.2c0,0,0,-8.6,-8.7,-8.6Z" class="g5_182"/>
<path d="M704.9,1142.1c0,0,-8.6,0,-8.6,8.6v15.2c0,0,0,8.7,8.6,8.7h82.3c0,0,8.7,0,8.7,-8.7v-15.2c0,0,0,-8.6,-8.7,-8.6Z" class="g5_182"/>
<path d="M617.7,1033.7c2,0,3.6,-1.6,3.6,-3.6c0,-2,-1.6,-3.6,-3.6,-3.6c-2,0,-3.6,1.6,-3.6,3.6c0,2,1.6,3.6,3.6,3.6Z" class="g4_182"/>
<path d="M487,1033.7c1.9,0,3.6,-1.6,3.6,-3.6c0,-2,-1.7,-3.6,-3.6,-3.6c-2,0,-3.7,1.6,-3.7,3.6c0,2,1.7,3.6,3.7,3.6Z" class="g4_182"/>
<path d="M356.2,1033.7c2,0,3.6,-1.6,3.6,-3.6c0,-2,-1.6,-3.6,-3.6,-3.6c-2,0,-3.6,1.6,-3.6,3.6c0,2,1.6,3.6,3.6,3.6Z" class="g4_182"/>
<path d="M746.3,1033.7c1.9,0,3.6,-1.6,3.6,-3.6c0,-2,-1.7,-3.6,-3.6,-3.6c-2,0,-3.7,1.6,-3.7,3.6c0,2,1.7,3.6,3.7,3.6Z" class="g4_182"/>
<path d="M225.5,1033.7c2,0,3.6,-1.6,3.6,-3.6c0,-2,-1.6,-3.6,-3.6,-3.6c-2,0,-3.6,1.6,-3.6,3.6c0,2,1.6,3.6,3.6,3.6Z" class="g4_182"/>
<path d="M600.9,1211.8c0,0,-4.3,0,-4.3,4.4V1227c0,0,0,4.3,4.3,4.3h30.3c0,0,4.3,0,4.3,-4.3v-10.8c0,0,0,-4.4,-4.3,-4.4Z" class="g6_182"/>
<path d="M587.7,1204.3v34.9m1.4,1h256m1,-1.4v-34.9m-1.4,-.9h-256" class="g7_182"/>
<path d="M587.7,1239.6v.6h.6m257.2,0h.6v-.6m0,-36v-.6h-.6m-257.2,0h-.6v.6" class="g8_182"/>
<path d="M207.6,188c0,0,-13,0,-13,13v21.6c0,0,0,13,13,13h602c0,0,13,0,13,-13V201c0,0,0,-13,-13,-13Z" class="g9_182"/>
<image clip-path="url(#c5_182)" preserveAspectRatio="none" x="151" y="158" width="74" height="77" xlink:href="img/17.png"/>
<path d="M202.4,228.3c0,0,-26.8,11.3,-51.1,-12.8c0,0,15.2,25.3,49.3,24c0,0,24.8,.3,20.3,-10.2c0,0,1.2,-4.4,-18.5,-1Z" class="g9_182"/>
<path d="M210.5,830c0,0,-13,0,-13,13v21.7c0,0,0,13,13,13H834.1c0,0,13,0,13,-13V843c0,0,0,-13,-13,-13Z" class="g9_182"/>
<image clip-path="url(#c6_182)" preserveAspectRatio="none" x="153" y="800" width="75" height="77" xlink:href="img/18.png"/>
<path d="M205.3,870.3c0,0,-26.8,11.3,-51.1,-12.7c0,0,15.2,25.3,49.3,23.9c0,0,24.7,.4,20.2,-10.1c0,0,1.3,-4.4,-18.4,-1.1Z" class="g9_182"/>
<path d="M131.7,126.7v22.2l11.7,10.3V137Z" class="ga_182"/>
<path d="M131.7,109.9v39H829.4c0,0,16.9,0,16.9,-16.8v-5.4c0,0,0,-16.8,-16.9,-16.8Z" class="g6_182"/>
<path d="M189.6,121.3l-6.4,-6.5L162,136l6.4,6.5Z" class="gb_182"/>
<path d="M168.4,143c.2,0,.3,0,.4,-.1L190,121.7c.1,-.1,.2,-.3,.2,-.4c0,-.1,-.1,-.3,-.2,-.4l-6.5,-6.4c-.2,-.2,-.5,-.2,-.7,0l-21.2,21.2c-.1,.1,-.2,.2,-.2,.3c0,.2,.1,.3,.2,.4l6.5,6.5c.1,.1,.2,.1,.3,.1m20.5,-21.7l-20.5,20.5L162.7,136l20.5,-20.4Z" class="gc_182"/>
<path d="M189.6,121.3l-6.4,-6.5l2.1,-2.1l6.5,6.5Z" class="gd_182"/>
<path d="M189.6,121.8c.2,0,.3,0,.4,-.1l2.1,-2.1c.1,-.1,.2,-.3,.2,-.4c0,-.2,-.1,-.3,-.2,-.4l-6.4,-6.5c-.2,-.2,-.6,-.2,-.8,0l-2.1,2.2c-.1,0,-.2,.2,-.2,.3c0,.2,.1,.3,.2,.4l6.5,6.5c.1,.1,.2,.1,.3,.1m1.4,-2.6l-1.4,1.4l-5.7,-5.8l1.4,-1.4Z" class="gc_182"/>
<path d="M195.4,115.6l-6.5,-6.5l-3.6,3.6l6.5,6.5Z" class="ge_182"/>
<path d="M191.8,119.7c.1,0,.2,0,.3,-.1l3.7,-3.7c.2,-.2,.2,-.5,0,-.7l-6.5,-6.5c-.2,-.2,-.6,-.2,-.8,0l-3.6,3.6c-.2,.2,-.2,.6,0,.8l6.5,6.5c.1,.1,.2,.1,.4,.1m2.8,-4.1l-2.8,2.8L186,112.7l2.9,-2.9Z" class="gc_182"/>
<path d="M157.3,147.2L162,136l6.4,6.5Z" class="g1_182"/>
<path d="M157.3,147.7c.1,0,.2,0,.2,-.1L168.6,143c.2,-.1,.3,-.2,.4,-.4c0,-.2,-.1,-.3,-.2,-.5l-6.5,-6.4c-.1,-.2,-.3,-.2,-.5,-.2c-.1,.1,-.3,.2,-.3,.3l-4.7,11.1c0,.2,0,.5,.1,.6c.1,.1,.3,.2,.4,.2m10.2,-5.4l-9.2,3.9l3.8,-9.2Z" class="gc_182"/>
<path d="M157.3,147.2l2.3,-5.4l3.1,3.1Z" class="gc_182"/>
<path d="M157.3,147.7c.1,0,.2,0,.2,-.1l5.4,-2.2c.1,-.1,.3,-.2,.3,-.4c0,-.2,0,-.3,-.1,-.5l-3.2,-3.1c-.1,-.1,-.3,-.2,-.4,-.1c-.2,0,-.4,.1,-.4,.3l-2.3,5.3c0,.2,0,.5,.1,.6c.1,.1,.3,.2,.4,.2m4.5,-3l-3.5,1.5l1.4,-3.5Z" class="gc_182"/>
<path d="M187.9,119.5l-3,-2.9l-21.2,21.2l3,3Z" class="gf_182"/>
<path d="M166.7,141.3c.1,0,.2,-.1,.3,-.2l21.3,-21.2c.1,-.1,.1,-.2,.1,-.4c0,-.1,0,-.2,-.1,-.3l-3,-3c-.2,-.2,-.5,-.2,-.8,0l-21.2,21.2c-.1,.1,-.1,.3,-.1,.4c0,.1,0,.3,.1,.4l3,2.9c.1,.1,.2,.2,.4,.2m20.4,-21.8L166.7,140l-2.2,-2.2l20.4,-20.5Z" class="gc_182"/>
<path d="M32.1,45.1H9.2m958.3,0h22.9M32.1,1331.3H9.2m958.3,0h22.9M45.1,32.1V9.2m0,1335.1v22.9M954.5,32.1V9.2m0,1335.1v22.9" class="gg_182"/>
<path d="M32.1,45.1H9.2m958.3,0h22.9M32.1,1331.3H9.2m958.3,0h22.9M45.1,32.1V9.2m0,1335.1v22.9M954.5,32.1V9.2m0,1335.1v22.9" class="gh_182"/>
<path d="M27.5,32.1H0m972.1,0h27.5M27.5,1344.3H0m972.1,0h27.5M32.1,27.5V0m0,1348.9v27.5M967.5,27.5V0m0,1348.9v27.5" class="gg_182"/>
<path d="M27.5,32.1H0m972.1,0h27.5M27.5,1344.3H0m972.1,0h27.5M32.1,27.5V0m0,1348.9v27.5M967.5,27.5V0m0,1348.9v27.5" class="gh_182"/>
</svg>