<?xml version="1.0" encoding="UTF-8" standalone="no"?>
<!DOCTYPE svg PUBLIC "-//W3C//DTD SVG 1.1//EN"
"http://www.w3.org/Graphics/SVG/1.1/DTD/svg11.dtd">
<svg viewBox="0 0 999 1376" version="1.1" xmlns="http://www.w3.org/2000/svg" xmlns:xlink="http://www.w3.org/1999/xlink">
<defs>
<clipPath id="c0_274"><path d="M32.1,1344.3V32.1H967.5V1344.3Z"/></clipPath>
<clipPath id="c1_274"><path d="M177,525.3l-6.5,-2.1L154.1,509.3V452.2h72v73.1Z"/></clipPath>
<clipPath id="c2_274"><path d="M177,1125.9l-6.5,-2.1l-16.4,-13.9v-57.1h72v73.1Z"/></clipPath>
<clipPath id="c3_274"><path d="M58.3,822.6V735.1H196.9v87.5Z"/></clipPath>
<clipPath id="c4_274"><path d="M57.6,826.8V732.2H196.2v94.6Z"/></clipPath>
<clipPath id="c5_274"><path d="M57.2,826.5V731.9H195.8v94.6Z"/></clipPath>
<clipPath id="c6_274"><path d="M109.1,753.9c-.3,-.1,3.5,-8.2,3.5,-8.2l.8,.5c0,0,-4,7.7,-4.3,7.7Z"/></clipPath>
<clipPath id="c7_274"><path d="M116.6,746.2c0,0,-6.9,-1.1,-7.6,-5.2c-.7,-3.7,1.5,-3.9,2.1,-3.9q.1,0,.1,0l8.3,-12.7l-1.4,-3.1c0,0,-.6,-1.1,.1,-2.1c0,0,.2,-.1,.3,-.1c2.1,0,12.9,5.6,12.9,5.6l.1,.1c-.3,.5,-.7,1.2,-1.4,1.7c-.6,.5,-5.1,1.1,-5.1,1.1l-8.4,18.6Z"/></clipPath>
<clipPath id="c8_274"><path d="M116.2,745.8c.2,-.4,.2,-1.8,0,-2.2v-1.4c-1.6,-.5,-2.9,-1.3,-3.7,-2.5c-1.1,.5,-2.1,1.2,-3.1,1.8c1.5,2.2,3.8,3.6,6.8,4.3Zm0,-3.9c2.2,-4.5,4,-9.5,6.1,-14.1c-.9,-.3,-1.8,-1.3,-2.6,-1.3c-2.3,4.3,-4.6,8.6,-7.1,12.8c.8,1.3,2.2,2,3.6,2.6ZM108.9,754c1,-2.9,2.4,-5.5,3.5,-8.3c-2,-1.5,-3.9,-3.1,-4.4,-6.2V738c0,-2.7,1.9,-3.4,4.6,-3.4q.1,0,.2,0c1.9,-3.3,4.2,-6.3,6.1,-9.6c-.5,-.9,-1.1,-2.4,-.8,-3.7c.5,1.3,1.6,1.9,2.3,2.9c-.1,.6,-.2,1.1,-.3,1.8c.6,.6,1.3,1.1,2.4,1.3c.4,-.4,.5,-1.2,1.1,-1.5c.9,.4,1.8,.8,3.1,.8c.2,.1,.5,.1,.8,.1c.4,0,.7,0,.9,-.1c.1,0,.2,0,.3,0c.2,0,.4,0,.6,-.1c.2,-.1,.3,-.1,.5,-.1c.1,0,.2,0,.3,.1c-1.3,.6,-2.2,1.7,-4.2,1.7c-.1,0,-.2,0,-.3,0c-.9,3.8,-1.9,7.4,-2.6,11.2c.5,1.1,1.5,1.7,1.2,3.2c-.4,2.7,-3.8,4.3,-7.2,4.3c-1.3,0,-2.5,-.2,-3.6,-.7c-1,2.1,-2.1,4.1,-3.3,6c0,-.3,.3,-.4,.3,-.7c.9,-1.8,1.9,-3.6,2.6,-5.7c-1,1.7,-1.8,3.7,-2.7,5.5c-.2,.5,-.5,.9,-.7,1.3c-.3,.4,-.3,1.1,-.7,1.4Z"/></clipPath>
<clipPath id="c9_274"><path d="M126.6,726.2c-4.8,0,-13.1,-7.3,-5.5,-8.8h1.2c.2,.1,.4,.1,.7,.1q.1,0,.2,0c.3,0,.6,0,.9,0c3.1,.7,8.2,3.8,7.5,7.1c-.2,1.1,-1.5,1.6,-3.1,1.6h-1.9Z"/></clipPath>
<clipPath id="ca_274"><path d="M764.8,416V403.5h14.5V416Z"/></clipPath>
<clipPath id="cb_274"><path d="M704.1,973.3V895.8H809.2v77.5Z"/></clipPath>
<clipPath id="cc_274"><path d="M702.8,976.1V894.7H808.4v81.4Z"/></clipPath>
<clipPath id="cd_274"><path d="M702.5,975.8V894.4H808.1v81.4Z"/></clipPath>
<clipPath id="ce_274"><path d="M746.9,914.6c-.3,0,3.5,-8.2,3.5,-8.2l.8,.5c0,0,-4,7.7,-4.3,7.7Z"/></clipPath>
<clipPath id="cf_274"><path d="M754.4,906.9c0,0,-6.9,-1.1,-7.6,-5.2c-.7,-3.6,1.5,-3.8,2.1,-3.8c0,0,.1,0,.1,0l8.3,-12.8l-1.5,-3c0,0,-.6,-1.2,.2,-2.1c0,-.1,.1,-.1,.3,-.1c2.1,0,12.9,5.5,12.9,5.5l.1,.2c-.4,.5,-.7,1.1,-1.4,1.6c-.7,.5,-5.1,1.2,-5.1,1.2l-8.4,18.5Z"/></clipPath>
<clipPath id="cg_274"><path d="M754,906.6c.2,-.5,.2,-1.8,0,-2.3v-1.4c-1.6,-.5,-2.9,-1.2,-3.7,-2.5c-1.1,.6,-2.1,1.2,-3.1,1.9c1.5,2.1,3.8,3.5,6.8,4.3Zm0,-3.9c2.1,-4.6,3.9,-9.5,6.1,-14.1c-.9,-.4,-1.8,-1.3,-2.6,-1.4c-2.3,4.3,-4.6,8.6,-7.1,12.8c.8,1.4,2.1,2,3.6,2.7Zm-7.3,12c1,-2.9,2.4,-5.4,3.5,-8.3c-2,-1.5,-3.9,-3.1,-4.4,-6.1v-1.5c-.1,-2.7,1.9,-3.4,4.6,-3.4c0,0,.1,0,.2,0c1.9,-3.4,4.2,-6.4,6.1,-9.7c-.6,-.9,-1.1,-2.4,-.9,-3.6c.6,1.2,1.7,1.9,2.4,2.9c-.1,.5,-.3,1.1,-.3,1.7c.5,.7,1.3,1.2,2.3,1.4c.5,-.4,.6,-1.3,1.2,-1.5c.9,.3,1.8,.7,3.1,.7c.1,.1,.5,.2,.8,.2c.4,0,.7,-.1,.8,-.2c.2,.1,.3,.1,.4,.1c.2,0,.4,-.1,.6,-.2c.2,0,.3,-.1,.5,-.1c.1,0,.2,0,.3,.1c-1.3,.7,-2.2,1.8,-4.2,1.8c-.1,0,-.2,0,-.3,0c-.9,3.7,-1.9,7.3,-2.7,11.2c.6,1,1.5,1.6,1.3,3.1c-.5,2.7,-3.9,4.4,-7.2,4.4c-1.3,0,-2.5,-.3,-3.6,-.8c-1,2.1,-2.1,4.2,-3.3,6.1c0,-.4,.3,-.4,.3,-.8c.9,-1.8,1.9,-3.6,2.6,-5.6c-1,1.7,-1.8,3.7,-2.7,5.5c-.3,.4,-.5,.8,-.7,1.2c-.3,.5,-.3,1.2,-.7,1.4Z"/></clipPath>
<clipPath id="ch_274"><path d="M764.4,887c-4.8,0,-13.1,-7.3,-5.5,-8.8h1.2c.2,0,.3,0,.5,0q.1,0,.2,0c0,0,.1,0,.1,0c.3,0,.6,0,1,.1c3.1,.6,8.2,3.8,7.5,7c-.2,1.2,-1.5,1.6,-3.1,1.7h-1.8c0,0,-.1,0,-.1,0Z"/></clipPath>
<clipPath id="ci_274"><path d="M125.5,386.7V205.8H858.6V386.7Z"/></clipPath>
<style type="text/css"><![CDATA[
.g0_274{
fill: #FEFCF4;
}
.g1_274{
fill: #FFF;
}
.g2_274{
fill: none;
stroke: #6381B7;
stroke-width: 0.763;
}
.g3_274{
fill: #6381B7;
}
.g4_274{
fill: none;
stroke: #6381B7;
stroke-width: 0.381;
stroke-dasharray: 2,1;
}
.g5_274{
fill: none;
stroke: #6381B7;
stroke-width: 0.381;
}
.g6_274{
fill: #FCE8B0;
}
.g7_274{
fill: none;
stroke: #818385;
stroke-width: 0.305;
stroke-dasharray: 4,4;
}
.g8_274{
fill: none;
stroke: #818385;
stroke-width: 0.305;
stroke-dasharray: 3,3;
}
.g9_274{
fill: none;
stroke: #818385;
stroke-width: 0.305;
}
.ga_274{
fill: #F7C2D9;
}
.gb_274{
fill: #FDF4F3;
}
.gc_274{
fill: #EC008C;
}
.gd_274{
fill: none;
stroke: #949698;
stroke-width: 0.305;
stroke-dasharray: 4,4;
}
.ge_274{
fill: none;
stroke: #949698;
stroke-width: 0.305;
stroke-dasharray: 3,3;
}
.gf_274{
fill: none;
stroke: #949698;
stroke-width: 0.305;
}
.gg_274{
fill: #6D6F71;
}
.gh_274{
fill: #2E6E51;
}
.gi_274{
fill: none;
stroke: #FFF;
stroke-width: 0.152;
stroke-miterlimit: 1;
}
.gj_274{
fill: #BCBEC0;
}
.gk_274{
fill: #EE314A;
}
.gl_274{
fill: #25408F;
}
.gm_274{
fill: #A8AAAD;
}
.gn_274{
fill: none;
stroke: #949698;
stroke-width: 0.549;
}
.go_274{
fill: none;
stroke: #BCBEC0;
stroke-width: 2.566;
}
.gp_274{
fill: #231F20;
}
.gq_274{
fill: #363637;
}
.gr_274{
fill: #5CC4BE;
}
.gs_274{
fill: #EAD646;
}
.gt_274{
fill: #CEEDFB;
}
.gu_274{
fill: #27639D;
}
.gv_274{
fill: none;
stroke: #C3E7F1;
stroke-width: 1.527;
}
.gw_274{
fill: none;
stroke: #FFF;
stroke-width: 1.909;
stroke-miterlimit: 10;
}
.gx_274{
fill: none;
stroke: #000;
stroke-width: 0.381;
stroke-miterlimit: 10;
}
]]></style>
</defs>
<path d="M32.1,1343.2H954.5V32.1H32.1V1343.2Z" class="g0_274"/>
<path clip-path="url(#c0_274)" d="M954.5,1344.3H1877V32.1H954.5V1344.3Z" class="g0_274"/>
<path d="M150.4,414c0,0,-18.3,0,-18.3,18.3v581.5c0,0,0,18.3,18.3,18.3H827.5c0,0,18.4,0,18.4,-18.3V414Z" class="g1_274"/>
<path d="M150.4,414c0,0,-18.3,0,-18.3,18.3v581.5c0,0,0,18.3,18.3,18.3H827.5c0,0,18.4,0,18.4,-18.3V414H150.4Z" class="g2_274"/>
<path d="M145.1,1042.6c0,0,-13,0,-13,13v137.6c0,0,0,13,13,13H832.9c0,0,13,0,13,-13V1055.6c0,0,0,-13,-13,-13Z" class="g1_274"/>
<path d="M145.1,1042.6c0,0,-13,0,-13,13v137.6c0,0,0,13,13,13H832.9c0,0,13,0,13,-13V1055.6c0,0,0,-13,-13,-13H145.1Z" class="g2_274"/>
<path d="M462.3,1222.1c0,0,-4.3,0,-4.3,4.4v10.8c0,0,0,4.3,4.3,4.3h30.3c0,0,4.3,0,4.3,-4.3v-10.8c0,0,0,-4.4,-4.3,-4.4Z" class="g3_274"/>
<path d="M449.1,1214.7v34.8m1.3,1H845.1m1,-1.4v-34.8m-1.4,-1H450.1" class="g4_274"/>
<path d="M449.1,1249.9v.6h.6m395.8,0h.6v-.6m0,-36v-.6h-.6m-395.8,0h-.6v.6" class="g5_274"/>
<path d="M209.6,454.3c0,0,-12.9,0,-12.9,13V515c0,0,0,13,12.9,13h602c0,0,13,0,13,-13V467.3c0,0,0,-13,-13,-13Z" class="g6_274"/>
<image clip-path="url(#c1_274)" preserveAspectRatio="none" x="153" y="451" width="75" height="76" xlink:href="img/1.png"/>
<path d="M204.4,520.6c0,0,-26.8,11.3,-51.1,-12.8c0,0,15.2,25.4,49.3,24c0,0,24.8,.3,20.3,-10.1c0,0,1.2,-4.5,-18.5,-1.1Z" class="g6_274"/>
<path d="M209.6,1080.9c0,0,-12.9,0,-12.9,13v21.7c0,0,0,12.9,12.9,12.9h602c0,0,13,0,13,-12.9v-21.7c0,0,0,-13,-13,-13Z" class="g6_274"/>
<image clip-path="url(#c2_274)" preserveAspectRatio="none" x="153" y="1051" width="75" height="76" xlink:href="img/2.png"/>
<path d="M204.4,1121.2c0,0,-26.8,11.3,-51.1,-12.8c0,0,15.2,25.3,49.3,24c0,0,24.8,.3,20.3,-10.1c0,0,1.2,-4.5,-18.5,-1.1Z" class="g6_274"/>
<path d="M370.7,851.9c20,-.8,36.2,-6.5,39.8,-13.9" class="g7_274"/>
<path d="M410.3,830.6c-3,-7.2,-14.7,-12.5,-41.5,-12.9" class="g8_274"/>
<path d="M361,817.8c-20,.8,-36.1,6.6,-39.7,14m.8,7.6c5,6.9,21.1,12.1,40.6,12.6" class="g7_274"/>
<path d="M411,836.5c.1,-.6,.2,-1.1,.2,-1.6c0,-.5,0,-1,-.1,-1.5M367.3,817.7c-.4,0,-.9,0,-1.4,0c-.6,0,-1.1,0,-1.6,0m-43.5,15.6c-.2,.5,-.2,1,-.2,1.6c0,.5,0,1,.2,1.6M364.3,852c.5,0,1,0,1.6,0c.5,0,1.1,0,1.6,0" class="g9_274"/>
<image clip-path="url(#c3_274)" preserveAspectRatio="none" x="58" y="735" width="138" height="88" xlink:href="img/3.png"/>
<path d="M63.2,749.4l4,67.1L190.8,807l-5.2,-67.1Z" class="ga_274"/>
<image clip-path="url(#c4_274)" preserveAspectRatio="none" x="57" y="732" width="139" height="95" xlink:href="img/4.png"/>
<image clip-path="url(#c5_274)" preserveAspectRatio="none" x="57" y="732" width="139" height="95" xlink:href="img/5.png"/>
<path d="M62,753.9l10.1,66.7l98.5,-14.2l19.2,-21.8l-7.5,-47.9Z" class="gb_274"/>
<path d="M170.6,806.4l19.2,-21.7l-13.1,-3.4Z" class="gc_274"/>
<path d="M326.4,820.2c-11,-9.5,-44.5,-37.3,-62.2,-39.6" class="gd_274"/>
<path d="M258.6,783.2c-.3,1,-.1,2.1,1.1,3.5m5.6,2.1c1.4,0,2.8,-.3,3.5,-1.2" class="ge_274"/>
<path d="M267.5,780.8c-3.1,-4.6,-11.9,-11.9,-37.6,-17.2" class="gd_274"/>
<path d="M222.4,762.3c-7.7,-1.2,-24.4,-3.4,-40.2,-2.7" class="ge_274"/>
<path d="M329.9,823.3c0,0,-.4,-.3,-1.1,-1M262.6,780.5c-.5,0,-1,0,-1.5,0c0,0,-.5,.3,-1.1,.7m.6,6.3c.2,.3,.6,.5,.9,.8c0,0,.5,.1,1.3,.3m6.4,-2.2c0,-.4,0,-.8,-.1,-1.3c0,0,0,-.6,-.3,-1.6M228.4,763.3c-.5,-.1,-1,-.2,-1.5,-.3c0,0,-.6,-.1,-1.5,-.3m-44.7,-3c-.5,0,-1,0,-1.5,0" class="gf_274"/>
<path d="M183.4,763.1l-2.6,-7.7l-8.5,7.2Z" class="gg_274"/>
<image clip-path="url(#c6_274)" x="108" y="745" width="6" height="9" xlink:href="shade/1.png"/>
<image clip-path="url(#c7_274)" x="108" y="719" width="24" height="28" xlink:href="shade/2.png"/>
<image clip-path="url(#c8_274)" x="107" y="721" width="24" height="33" xlink:href="shade/3.png"/>
<image clip-path="url(#c9_274)" x="113" y="717" width="20" height="10" xlink:href="shade/4.png"/>
<path d="M32.1,179.3H967.5V32.1H32.1V179.3Z" class="gh_274"/>
<path d="M249.2,141.7c0,-.5,.1,-.9,.2,-1l-.5,-.5c-.1,.5,-.2,.9,-.3,1.2c-.1,.4,-.1,.7,-.1,.9c0,.6,.1,1,.4,1.5c.2,.4,.5,.8,.9,1.2c.4,.3,.9,.5,1.4,.7c.5,.2,1.1,.3,1.8,.3c.4,0,.9,0,1.4,0c.5,0,.9,0,1.4,.1c.5,0,1,.1,1.5,.3c.4,.1,.8,.3,1.2,.6l1.2,1.2v-13h2L260.5,134c-.7,-.1,-1.1,-.6,-1.2,-1.5l-.8,-.6l.3,5.3h-.1c-.2,-.5,-.6,-1.2,-1.2,-2c-.7,-.8,-1.3,-1.2,-1.8,-1.2c-1.2,0,-2.2,.8,-3,2.4c-.1,-.7,-.4,-1.2,-1,-1.7c-.6,-.5,-1.1,-.7,-1.8,-.7h-2.5l1.2,1.2c.1,0,.2,0,.3,0h.3c1.4,0,2.3,.5,2.7,1.5c-.3,.1,-.5,.2,-.8,.4c-.2,.2,-.5,.4,-.7,.7c-.1,.2,-.3,.5,-.4,.8c-.1,.2,-.2,.5,-.2,.8c0,.4,.2,.8,.5,1.2c.2,.3,.6,.5,1,.5c1,0,1.6,-.5,2,-1.5c.1,.5,.4,.9,.7,1.1c.4,.3,.7,.4,1.1,.4c.2,0,.4,-.1,.6,-.2c.2,-.1,.4,-.2,.5,-.4c.2,-.2,.3,-.4,.4,-.6c.1,-.2,.1,-.5,.1,-.7c0,-.6,-.6,-1.3,-1.9,-2.2c0,-.3,.2,-.6,.5,-.7c.3,-.2,.6,-.3,.9,-.3c.5,0,1,.3,1.5,1c.6,.8,.8,1.4,.8,1.9v7.2c-.1,-.2,-.3,-.4,-.5,-.6c-.2,-.2,-.4,-.3,-.6,-.5c-.2,-.1,-.4,-.2,-.6,-.3c-.2,-.1,-.3,-.2,-.4,-.3c-.2,0,-.5,-.1,-.9,-.2c-.3,-.1,-.6,-.1,-1,-.2c-.3,0,-.6,-.1,-.9,-.1c-.4,0,-.6,0,-.8,0h-.1c-2.3,0,-3.5,-.8,-3.5,-2.2ZM272.1,134h-12l1.2,1.2c.5,.6,.9,1,1.2,1.2c.2,.2,.4,.3,.7,.4c.3,.2,.7,.3,1.1,.4c.8,.3,1.4,.5,1.7,.8c.4,.4,.6,1.1,.6,2.2c-.2,-.2,-.5,-.3,-.9,-.3c-.7,0,-1.3,.2,-1.7,.5c-.5,.4,-.8,1,-.8,1.6c0,.6,.2,1.1,.6,1.5c.4,.4,.9,.5,1.4,.5c.3,0,.7,0,1.1,-.2c.3,-.1,.7,-.5,1.1,-.9c1.5,.5,2.6,2,3.3,4.4l.5,.5V135.2h2.1L272.1,134Zm-2.1,9.8c-.3,-.4,-.6,-.8,-.9,-1.2c-.4,-.4,-.8,-.8,-1.2,-1.2c0,-.1,0,-.2,0,-.3v-.3c0,-1.1,-.4,-2.1,-1.1,-3.1c-.5,-.7,-1.3,-1.5,-2.6,-2.5H270v8.6Zm23.9,-8.6L292.7,134c-.7,-.1,-1.1,-.6,-1.2,-1.5l-.7,-.6l.2,5.3h-.1c-.1,-.5,-.5,-1.2,-1.2,-2C289,134.4,288.4,134,288,134c-1.3,0,-2.3,.8,-3,2.4c-.2,-.7,-.5,-1.2,-1.1,-1.7c-.5,-.5,-1.1,-.7,-1.7,-.7h-2.6l1.2,1.2c.1,0,.6,0,1.4,0c.7,0,1.4,.5,2,1.5c-.3,.1,-.6,.2,-.8,.4c-.3,.2,-.5,.4,-.7,.7c-.2,.2,-.4,.5,-.5,.8c-.1,.2,-.1,.5,-.1,.8c0,.4,.1,.8,.4,1.2c.3,.3,.6,.5,1,.5c1,0,1.6,-.5,2,-1.5c.2,.5,.4,.8,.8,1.1c.3,.2,.7,.4,1.1,.4c.5,-.1,.9,-.3,1.1,-.7c.3,-.3,.5,-.7,.5,-1.2c0,-.6,-.7,-1.3,-1.9,-2.2c0,-.3,.1,-.6,.4,-.7c.3,-.2,.6,-.3,.9,-.3c.5,0,1,.3,1.6,1c.5,.8,.8,1.4,.8,1.9l-.1,7.7l1.2,1.2V135.2h2ZM306.6,134H292.4l1.2,1.2h14.3L306.6,134Zm-.5,5.6c-.2,-.6,-.6,-1.2,-1,-1.7c-.4,-.5,-.9,-.9,-1.5,-1.1c-.5,-.3,-1.1,-.5,-1.8,-.5c-.8,0,-1.4,.3,-2,.7c-.6,.5,-.9,1.1,-.9,1.9c0,.6,.2,1.2,.6,1.6c.4,.5,.9,.7,1.5,.7c1.2,0,1.9,-.6,1.9,-1.7c0,-.5,-.2,-1,-.5,-1.4c.4,-.1,.7,-.2,.9,-.2c.6,0,1.1,.3,1.5,.9c.4,.6,.6,1.1,.6,1.8c0,.8,-.4,1.6,-1,2.3c-.9,.6,-1.7,1,-2.5,1c-1.8,0,-3.3,-.9,-4.5,-2.8c-.3,-.3,-.6,-1,-1,-1.8c-.4,-.9,-.9,-1.9,-1.4,-3.1l-.7,-.2c1.8,6.5,4.3,9.8,7.5,9.8c1.2,0,2.3,-.5,3.2,-1.3c.4,-.4,.8,-.8,1,-1.4c.3,-.5,.4,-1,.4,-1.6c0,-.7,-.1,-1.3,-.3,-1.9Zm3.8,-11.7h-1l-7,5h2.8l5.2,-5Zm11.4,6.1c-.6,0,-1.1,.2,-1.6,.4c-.4,.3,-.9,.5,-1.2,.8c-.8,.8,-1.4,1.8,-1.8,2.8c-.5,1,-.7,2.1,-.7,3.3c0,1.5,.3,2.8,.9,3.9c.7,1.4,1.8,2.1,3.2,2.1c.3,0,.6,0,.8,-.1c.3,-.1,.5,-.2,.7,-.4c.2,-.2,.4,-.4,.5,-.7c.1,-.2,.2,-.5,.2,-.8c0,-.4,-.2,-.9,-.5,-1.2c-.3,-.3,-.6,-.5,-1,-.5c-.2,0,-.4,.1,-.5,.1c-.2,.1,-.4,.2,-.5,.3c-.1,.2,-.3,.3,-.3,.4c-.1,.2,-.2,.4,-.2,.6c0,.2,.1,.4,.2,.7c.1,.2,.3,.4,.6,.6c-.1,0,-.1,.1,-.3,.1c-.8,0,-1.4,-.5,-2,-1.4c-.4,-.7,-.6,-1.5,-.6,-2.3c0,-1,.1,-1.9,.3,-2.7c.2,-.7,.5,-1.4,.9,-2.1c.5,-.7,1,-1.3,1.7,-1.7c.7,-.5,1.4,-.8,2.3,-1L321.3,134Zm11.3,0h-12l1.2,1.2c.5,.6,.8,1,1.1,1.2c.2,.2,.5,.3,.8,.4c.3,.2,.7,.3,1.1,.4c.8,.3,1.4,.5,1.7,.8c.4,.4,.6,1.1,.6,2.2c-.2,-.2,-.5,-.3,-.9,-.3c-.8,0,-1.3,.2,-1.8,.5c-.5,.4,-.7,1,-.7,1.6c0,.6,.2,1.1,.6,1.5c.4,.4,.9,.5,1.4,.5c.3,0,.7,0,1.1,-.2c.3,-.1,.7,-.5,1,-.9c1.6,.5,2.7,2,3.4,4.4l.5,.5V135.2h2.1L332.6,134Zm-2.1,9.8c-.3,-.4,-.6,-.8,-.9,-1.2c-.4,-.4,-.8,-.8,-1.2,-1.2c0,-.1,0,-.2,0,-.3v-.3c0,-1.1,-.4,-2.1,-1.1,-3.1c-.5,-.7,-1.4,-1.5,-2.6,-2.5h5.8v8.6Zm7.9,-8.6L337.2,134h-1c-.4,-.4,-.6,-1,-.8,-1.9l-.4,-.3c0,.2,0,.5,0,.9c0,.3,0,.7,.1,1.2c0,.5,0,.9,.1,1.3c0,.3,0,.6,0,.9c-.3,-.8,-.6,-1.3,-1,-1.6c-.4,-.3,-.9,-.5,-1.7,-.5h-1.3l1.2,1.2c.3,0,.6,.1,1,.2c.3,.1,.6,.3,.8,.5c.3,.2,.5,.4,.6,.7c.1,.3,.2,.7,.2,1v8.9l1.2,1.2V135.2h2.2Zm10.3,0L347.5,134h-.6c0,-1.1,-.2,-2,-.7,-2.6c-.5,-.6,-1.3,-.9,-2.4,-.9c-.3,0,-.8,.1,-1.5,.1c-.3,.1,-.6,.1,-.8,.1c-.3,0,-.5,0,-.7,0c-.5,0,-.9,-.1,-1.3,-.3c-.4,-.2,-.6,-.6,-.6,-1.1c0,-.2,.1,-.4,.3,-.6c0,-.1,0,-.2,0,-.2c0,-.1,0,-.2,0,-.2c-.6,0,-.9,.5,-.9,1.4c0,.9,.4,1.6,1.2,2c.8,.5,1.7,.7,2.6,.7c.1,0,.2,0,.4,0c.2,-.1,.4,-.1,.6,-.1c.5,-.1,.9,-.1,1.1,-.1c1.1,0,1.6,.3,1.5,1c0,.2,0,.3,0,.4c0,.2,0,.3,0,.4h-9.1l1.1,1.2h2v8c.1,.9,.4,1.6,.8,2c.5,.5,1.1,.7,1.9,.7c1.1,0,2.2,-.6,3.2,-1.8c1,-1.2,1.5,-2.3,1.5,-3.5c0,-.4,-.1,-.7,-.1,-1.1c-.1,-.3,-.3,-.6,-.4,-.9c-.5,-.7,-1,-1,-1.7,-1c-.5,0,-.8,.2,-1.1,.5c-.3,.3,-.4,.7,-.4,1.1c0,.4,.1,.8,.5,1c.3,.3,.6,.4,1,.4h.4c-.1,.8,-.5,1.6,-1.1,2.5c-.8,.8,-1.5,1.3,-2.2,1.3c-.5,0,-.9,-.3,-1.2,-.8v-8.4h7.9Zm4.7,0L352.2,134h-1.1c-.3,-.4,-.6,-1,-.7,-1.9l-.4,-.3c0,.2,0,.5,0,.9c0,.3,0,.7,0,1.2c.1,.5,.1,.9,.1,1.3c0,.3,.1,.6,.1,.9c-.3,-.8,-.6,-1.3,-1,-1.6c-.4,-.3,-1,-.5,-1.7,-.5h-1.4l1.2,1.2c.4,0,.7,.1,1,.2c.3,.1,.6,.3,.9,.5c.2,.2,.4,.4,.6,.7c.1,.3,.2,.7,.2,1v8.9l1.1,1.2V135.2h2.3ZM363.6,134H351.5l1.3,1.2c.4,.6,.8,1,1.1,1.2c.2,.2,.4,.3,.8,.4c.3,.2,.6,.3,1.1,.4c.8,.3,1.3,.5,1.6,.8c.4,.4,.7,1.1,.7,2.2c-.3,-.2,-.6,-.3,-1,-.3c-.7,0,-1.3,.2,-1.7,.5c-.5,.4,-.8,1,-.8,1.6c0,.6,.2,1.1,.6,1.5c.4,.4,.9,.5,1.5,.5c.3,0,.6,0,1,-.2c.4,-.1,.7,-.5,1.1,-.9c1.6,.5,2.7,2,3.3,4.4l.5,.5V135.2h2.2L363.6,134Zm-2.2,9.8c-.2,-.4,-.5,-.8,-.9,-1.2c-.3,-.4,-.7,-.8,-1.2,-1.2c0,-.1,0,-.2,0,-.3v-.3c0,-1.1,-.3,-2.1,-1.1,-3.1c-.5,-.7,-1.3,-1.5,-2.6,-2.5h5.9v8.6h-.1Zm4,7.4c-.1,-.2,-.2,-.4,-.4,-.5c-.1,-.2,-.2,-.4,-.5,-.7c-.3,-.3,-.6,-.7,-.9,-1c-.3,-.3,-.7,-.6,-1,-.9c.1,-.4,.1,-.8,0,-1.2c0,-.5,-.1,-.9,-.2,-1.2l-1,-.7c.1,.6,.1,1,.1,1.5c.1,.4,0,.7,-.1,.9c-.7,-.4,-1.3,-.6,-1.7,-.6c-.3,0,-.6,.1,-.9,.1c-.2,.1,-.4,.3,-.6,.4c-.2,.2,-.4,.4,-.5,.6c-.2,.3,-.2,.5,-.2,.8c0,.6,.2,1,.7,1.4c.4,.3,1,.5,1.6,.5c1,-.1,1.8,-.6,2.4,-1.5c.3,.2,.5,.4,.8,.6c.3,.2,.6,.4,.9,.7c.2,.3,.5,.5,.8,.8c.2,.3,.4,.6,.7,.9v-.9Zm-4.9,-3.1c.2,.1,.4,.2,.5,.4c-.1,.2,-.3,.4,-.6,.6c-.4,.2,-.8,.3,-1.1,.2c-.4,0,-.6,-.3,-.6,-.6c0,-.5,.4,-.7,1.2,-.8c.3,.1,.5,.1,.6,.2Zm16.3,-16.2c-2.3,-2.4,-4.7,-3.6,-7.3,-3.6c-1,0,-2,.4,-3,1.2c-1.1,.9,-1.7,1.8,-1.7,2.7c0,.4,.2,.7,.5,1l.9,.8H363l1.1,1.2H366v11.3l1.2,1.2V135.2h2.1L368.1,134h-1.4l-.4,-1.1c0,-.9,.6,-1.6,1.6,-2.3c1,-.7,1.9,-1,2.8,-1c.6,0,1.2,.1,1.8,.2c.5,.2,1.1,.4,1.6,.7c.6,.4,1.2,.7,1.7,1c.4,.4,.9,.7,1.2,1l-.2,-.6Zm2.9,3.3L378.5,134h-.7c0,-1.1,-.2,-2,-.6,-2.6c-.6,-.6,-1.4,-.9,-2.4,-.9c-.4,0,-.9,.1,-1.5,.1c-.3,.1,-.6,.1,-.9,.1c-.2,0,-.4,0,-.6,0c-.5,0,-.9,-.1,-1.3,-.3c-.4,-.2,-.6,-.6,-.6,-1.1c0,-.2,0,-.4,.2,-.6c0,-.1,0,-.2,0,-.2c0,-.1,0,-.2,0,-.2c-.6,0,-.9,.5,-.9,1.4c0,.9,.4,1.6,1.3,2c.8,.5,1.6,.7,2.5,.7c.1,0,.3,0,.5,0c.1,-.1,.3,-.1,.6,-.1c.5,-.1,.9,-.1,1.1,-.1c1,0,1.5,.3,1.5,1c0,.2,0,.3,0,.4c0,.2,0,.3,0,.4h-9.1l1.1,1.2h1.9v8c.1,.9,.4,1.6,.9,2c.5,.5,1.1,.7,1.8,.7c1.2,0,2.3,-.6,3.3,-1.8c.9,-1.2,1.4,-2.3,1.4,-3.5c0,-.4,0,-.7,-.1,-1.1c-.1,-.3,-.2,-.6,-.4,-.9c-.4,-.7,-1,-1,-1.7,-1c-.4,0,-.8,.2,-1.1,.5c-.2,.3,-.4,.7,-.4,1.1c0,.4,.2,.8,.5,1c.3,.3,.7,.4,1.1,.4h.4c-.1,.8,-.5,1.6,-1.2,2.5c-.7,.8,-1.5,1.3,-2.2,1.3c-.5,0,-.9,-.3,-1.1,-.8v-8.4h7.9Zm20.9,0L399.3,134H386l1.2,1.2h13.4Zm-1.7,2.9c-.3,-.5,-.6,-.9,-.9,-1.1c-.3,-.3,-.6,-.5,-.9,-.5c-.2,.3,-.3,.6,-.5,.9c-.2,.3,-.4,.6,-.7,.8c-.6,.7,-1.1,1,-1.7,.9c.4,-.4,.5,-.9,.5,-1.2c0,-.4,-.1,-.8,-.4,-1.1c-.3,-.2,-.7,-.4,-1.1,-.4c-1.3,0,-2,.7,-2,1.9c0,.8,.3,1.4,.9,1.9c.5,.4,1.2,.6,1.9,.6c1.5,0,2.8,-.6,3.9,-1.9c.4,0,.5,.6,.5,1.7c0,.9,-.3,1.7,-.9,2.3c-.7,.7,-1.4,1,-2.3,1c-.9,0,-1.7,-.2,-2.5,-.7c-.8,-.4,-1.5,-1,-2.1,-1.7c-.4,-.6,-.8,-1.4,-1.3,-2.2c-.4,-.8,-.7,-1.7,-1,-2.7l-.7,-.2c.4,1.4,.9,2.7,1.3,3.7c.4,1,.7,1.8,1.1,2.3c1.3,2.3,3,3.5,4.9,3.5c1.5,0,2.6,-.6,3.5,-1.6c.4,-.5,.7,-1.1,.9,-1.7c.2,-.6,.3,-1.3,.3,-2c0,-.7,-.2,-1.5,-.7,-2.5Zm6.4,-2.9L404.1,134H403c-.3,-.4,-.6,-1,-.7,-1.9l-.5,-.3c0,.2,.1,.5,.1,.9c0,.3,0,.7,0,1.2c.1,.5,.1,.9,.1,1.3c0,.3,0,.6,0,.9c-.2,-.8,-.5,-1.3,-.9,-1.6c-.4,-.3,-1,-.5,-1.7,-.5H398l1.2,1.2c.4,0,.7,.1,1,.2c.3,.1,.6,.3,.9,.5c.2,.2,.4,.4,.6,.7c.1,.3,.2,.7,.2,1v8.9l1.1,1.2V135.2h2.3Zm12.5,0L416.6,134H403.4l1.2,1.2h9.8v3.3c-.5,-1.3,-1.2,-2,-2.2,-2c-.3,0,-.7,.2,-1,.5c-.3,.3,-.5,.6,-.5,1c-.8,-1,-1.7,-1.6,-2.7,-1.6c-.8,0,-1.5,.4,-2,1.2c-.5,.7,-.7,1.4,-.7,2.3c0,.5,.1,1,.3,1.4c.1,.4,.4,.8,.7,1.1c.3,.3,.7,.5,1.1,.7c.4,.1,.9,.2,1.4,.2c.6,-.1,1.1,-.2,1.4,-.5c.4,-.3,.5,-.7,.5,-1.2c0,-1.1,-.5,-1.7,-1.6,-1.7c-.3,0,-.7,.1,-.9,.3c-.3,.3,-.5,.6,-.5,1c0,.2,.2,.6,.4,1c-1.1,-.2,-1.7,-.8,-1.7,-1.7c0,-.3,.1,-.6,.2,-.9c.1,-.3,.3,-.5,.5,-.7c.2,-.2,.4,-.4,.7,-.5c.3,-.1,.5,-.2,.8,-.2c.7,0,1.3,.2,1.8,.6c.6,.4,.9,1,1,1.6l.5,-.2c-.1,-.3,-.1,-.5,-.1,-.7c0,-.9,.3,-1.3,1,-1.3c.4,0,.8,.2,1.1,.5c.3,.3,.5,.7,.5,1.1v6.9l1.2,1.1V135.2h2.2Z" class="gi_274"/>
<g clip-path="url(#c0_274)">
<path d="M1877,177.2H32.1v-5.4H768.7c43.1,0,53,-37.9,115.3,-37.9h993Z" class="gj_274"/>
<path d="M1877,183.7H32.1v-9.8H768.7c43.1,0,53,-33.6,115.3,-33.6h993Z" class="gk_274"/>
</g>
<path d="M131.7,395.4v39l11.7,10.2V400.4Z" class="gl_274"/>
<path d="M131.7,395.4v39H829.5c0,0,16.8,0,16.8,-16.8v-5.4c0,0,0,-16.8,-16.8,-16.8Z" class="g3_274"/>
<path d="M781,429c8.2,0,14.8,-6.5,14.8,-14.5c0,-8,-6.6,-14.5,-14.8,-14.5c-8.3,0,-14.9,6.5,-14.9,14.5c0,8,6.6,14.5,14.9,14.5Z" class="gm_274"/>
<path d="M781,429c8.2,0,14.8,-6.5,14.8,-14.5c0,-8,-6.6,-14.5,-14.8,-14.5c-8.3,0,-14.9,6.5,-14.9,14.5c0,8,6.6,14.5,14.9,14.5Z" class="gn_274"/>
<path d="M781,419.8c3,0,5.4,-2.4,5.4,-5.3c0,-3,-2.4,-5.4,-5.4,-5.4c-3.1,0,-5.5,2.4,-5.5,5.4c0,2.9,2.4,5.3,5.5,5.3Z" class="g1_274"/>
<path d="M781,419.8c3,0,5.4,-2.4,5.4,-5.3c0,-3,-2.4,-5.4,-5.4,-5.4c-3.1,0,-5.5,2.4,-5.5,5.4c0,2.9,2.4,5.3,5.5,5.3Z" class="go_274"/>
<g clip-path="url(#ca_274)" opacity="0.3">
<path d="M766.4,413.7c0,0,-.1,-4.8,3.6,-8.6l7.8,6.7c0,0,-1,.9,-1.1,2.6Z" class="g1_274"/>
</g>
<path d="M785.6,414.4c0,0,-3.5,0,-3.5,3.5v8.7c0,0,0,3.4,3.5,3.4H829c0,0,3.5,0,3.5,-3.4v-8.7c0,0,0,-3.5,-3.5,-3.5Z" class="gp_274"/>
<path d="M169.5,405.5c0,-8.4,-6.7,-15.1,-15,-15.1c-8.4,0,-15.1,6.7,-15.1,15.1c0,8.3,6.8,15,15.1,15c.8,0,1.6,-.1,2.4,-.2l4.5,5.2v-6.7c4.8,-2.5,8.1,-7.5,8.1,-13.3Z" class="g1_274"/>
<path d="M161.8,426.8l-5.1,-6c-.7,.1,-1.5,.2,-2.2,.2c-8.6,0,-15.6,-7,-15.6,-15.5c0,-8.6,7,-15.6,15.6,-15.6c8.5,0,15.5,7,15.5,15.6c0,5.7,-3.1,10.9,-8.2,13.6Zm-4.7,-7l3.8,4.5v-5.8l.3,-.1c4.8,-2.5,7.9,-7.5,7.9,-12.9c0,-8.1,-6.6,-14.6,-14.6,-14.6c-8.1,0,-14.6,6.5,-14.6,14.6c0,8,6.5,14.6,14.6,14.6c.7,0,1.5,-.1,2.3,-.2Z" class="gq_274"/>
<path d="M147.4,405c.8,0,1.5,.7,1.5,1.5c0,.8,-.7,1.4,-1.5,1.4c-.7,0,-1.4,-.6,-1.4,-1.4c0,-.8,.7,-1.5,1.4,-1.5Z" class="gr_274"/>
<path d="M147.4,408.4c-1,0,-1.8,-.9,-1.8,-1.9c0,-1.1,.8,-1.9,1.8,-1.9c1.1,0,1.9,.8,1.9,1.9c0,1,-.8,1.9,-1.9,1.9m0,-2.9c-.5,0,-.9,.4,-.9,1c0,.5,.4,.9,.9,.9c.6,0,1,-.4,1,-.9c0,-.6,-.4,-1,-1,-1Z" class="gq_274"/>
<path d="M154.5,405c.8,0,1.4,.7,1.4,1.5c0,.8,-.6,1.4,-1.4,1.4c-.8,0,-1.5,-.6,-1.5,-1.4c0,-.8,.7,-1.5,1.5,-1.5Z" class="gr_274"/>
<path d="M154.5,408.4c-1.1,0,-1.9,-.9,-1.9,-1.9c0,-1.1,.8,-1.9,1.9,-1.9c1,0,1.9,.8,1.9,1.9c0,1,-.9,1.9,-1.9,1.9m0,-2.9c-.6,0,-1,.4,-1,1c0,.5,.4,.9,1,.9c.5,0,.9,-.4,.9,-.9c0,-.6,-.4,-1,-.9,-1Z" class="gq_274"/>
<path d="M161.5,405c.8,0,1.4,.7,1.4,1.5c0,.8,-.6,1.4,-1.4,1.4c-.8,0,-1.5,-.6,-1.5,-1.4c0,-.8,.7,-1.5,1.5,-1.5Z" class="gr_274"/>
<path d="M161.5,408.4c-1.1,0,-1.9,-.9,-1.9,-1.9c0,-1.1,.8,-1.9,1.9,-1.9c1,0,1.9,.8,1.9,1.9c0,1,-.9,1.9,-1.9,1.9m0,-2.9c-.6,0,-1,.4,-1,1c0,.5,.4,.9,1,.9c.5,0,1,-.4,1,-.9c0,-.6,-.5,-1,-1,-1Z" class="gq_274"/>
<path d="M163.4,419.7c0,-9.7,7.9,-17.6,17.6,-17.6c9.7,0,17.6,7.9,17.6,17.6c0,9.7,-7.9,17.6,-17.6,17.6c-.9,0,-1.9,-.1,-2.8,-.2l-5.3,6.1v-7.9c-5.6,-2.9,-9.5,-8.8,-9.5,-15.6Z" class="gs_274"/>
<path d="M172.9,443.6c0,0,-.1,0,-.1,0c-.2,-.1,-.3,-.2,-.3,-.4v-7.6c-5.9,-3.1,-9.6,-9.2,-9.6,-15.9c0,-10,8.2,-18.1,18.1,-18.1c10,0,18.1,8.1,18.1,18.1c0,10,-8.1,18.1,-18.1,18.1c-.8,0,-1.7,-.1,-2.6,-.2l-5.1,5.9c-.1,.1,-.2,.1,-.4,.1M181,402.5c-9.4,0,-17.1,7.7,-17.1,17.2c0,6.4,3.5,12.3,9.2,15.2c.2,.1,.3,.3,.3,.4V442l4.4,-5.2c.1,-.1,.3,-.2,.5,-.2c.9,.2,1.8,.2,2.7,.2c9.5,0,17.2,-7.7,17.2,-17.1c0,-9.5,-7.7,-17.2,-17.2,-17.2Z" class="gq_274"/>
<path d="M189.2,419.2c.9,0,1.7,.8,1.7,1.7c0,.9,-.8,1.6,-1.7,1.6c-.9,0,-1.7,-.7,-1.7,-1.6c0,-.9,.8,-1.7,1.7,-1.7Z" class="g1_274"/>
<path d="M189.2,423c-1.2,0,-2.1,-1,-2.1,-2.1c0,-1.2,.9,-2.2,2.1,-2.2c1.2,0,2.1,1,2.1,2.2c0,1.1,-.9,2.1,-2.1,2.1m0,-3.3c-.7,0,-1.2,.5,-1.2,1.2c0,.6,.5,1.2,1.2,1.2c.7,0,1.2,-.6,1.2,-1.2c0,-.7,-.5,-1.2,-1.2,-1.2Z" class="gq_274"/>
<path d="M181,419.2c.9,0,1.7,.8,1.7,1.7c0,.9,-.8,1.6,-1.7,1.6c-.9,0,-1.7,-.7,-1.7,-1.6c0,-.9,.8,-1.7,1.7,-1.7Z" class="g1_274"/>
<path d="M181,423c-1.2,0,-2.1,-1,-2.1,-2.1c0,-1.2,.9,-2.2,2.1,-2.2c1.2,0,2.1,1,2.1,2.2c0,1.1,-.9,2.1,-2.1,2.1m0,-3.3c-.7,0,-1.2,.5,-1.2,1.2c0,.6,.5,1.2,1.2,1.2c.7,0,1.2,-.6,1.2,-1.2c0,-.7,-.5,-1.2,-1.2,-1.2Z" class="gq_274"/>
<path d="M172.8,419.2c.9,0,1.7,.8,1.7,1.7c0,.9,-.8,1.6,-1.7,1.6c-.9,0,-1.7,-.7,-1.7,-1.6c0,-.9,.8,-1.7,1.7,-1.7Z" class="g1_274"/>
<path d="M172.8,423c-1.2,0,-2.1,-1,-2.1,-2.1c0,-1.2,.9,-2.2,2.1,-2.2c1.2,0,2.1,1,2.1,2.2c0,1.1,-.9,2.1,-2.1,2.1m0,-3.3c-.7,0,-1.2,.5,-1.2,1.2c0,.6,.5,1.2,1.2,1.2c.7,0,1.2,-.6,1.2,-1.2c0,-.7,-.5,-1.2,-1.2,-1.2Z" class="gq_274"/>
<image clip-path="url(#cb_274)" preserveAspectRatio="none" x="704" y="896" width="105" height="78" xlink:href="img/6.png"/>
<path d="M709.1,909.2l2.9,58.1l91.2,-8.6l-4,-58.2Z" class="ga_274"/>
<image clip-path="url(#cc_274)" preserveAspectRatio="none" x="703" y="895" width="105" height="82" xlink:href="img/7.png"/>
<image clip-path="url(#cd_274)" preserveAspectRatio="none" x="702" y="895" width="105" height="81" xlink:href="img/8.png"/>
<path d="M707.2,911.9l8.8,57.8L783.1,960l19.1,-21.7l-6.1,-39.1Z" class="gb_274"/>
<path d="M783.1,960l19.2,-21.7L789.2,935Z" class="gc_274"/>
<image clip-path="url(#ce_274)" x="746" y="906" width="6" height="9" xlink:href="shade/5.png"/>
<image clip-path="url(#cf_274)" x="746" y="879" width="24" height="28" xlink:href="shade/6.png"/>
<image clip-path="url(#cg_274)" x="745" y="882" width="23" height="33" xlink:href="shade/7.png"/>
<image clip-path="url(#ch_274)" x="751" y="878" width="20" height="10" xlink:href="shade/8.png"/>
<path d="M568.7,977.4c8.4,1.1,15.1,5.3,16.7,10.7m-.5,6.8c-2.4,5.1,-9.2,8.9,-17.6,9.6m-6.9,-.2c-8.4,-1,-15,-5.3,-16.7,-10.7m.5,-6.8c2.4,-5,9.2,-8.9,17.6,-9.6" class="g8_274"/>
<path d="M585.8,989.5c0,.4,.1,.9,.1,1.4c0,.4,-.1,.9,-.1,1.4M566,1004.6c-.5,0,-1,0,-1.4,0c-.5,0,-1,0,-1.4,0M543.4,992.3c-.1,-.5,-.1,-1,-.1,-1.4c0,-.5,0,-1,.1,-1.4m19.8,-12.3c.4,-.1,.9,-.1,1.4,-.1c.4,0,.9,0,1.4,.1" class="g9_274"/>
<path d="M563.9,976.6c0,0,33.3,-34.6,143.3,-51.1" class="gd_274"/>
<path d="M704.9,929.9l-1.1,-8.7l11.8,2.9Z" class="gg_274"/>
<image clip-path="url(#ci_274)" preserveAspectRatio="none" x="125" y="206" width="734" height="181" xlink:href="img/9.png"/>
<path d="M144.6,231.3c0,0,-13,0,-13,13v117c0,0,0,13,13,13H833.1c0,0,13,0,13,-13v-130Z" class="gt_274"/>
<path d="M147.7,294.1l54.1,40.8l54.1,-40.8V230h8.7V211.9H155.8c-6.5,.4,-7.7,3.9,-8.2,8.4Z" class="gu_274"/>
<path d="M274,220.3c-.3,-4.7,-4.2,-8.4,-9,-8.4c-4.8,0,-8.7,3.7,-9,8.4h-.1V230h18.2v-9.7Z" class="gp_274"/>
<path d="M255.9,230.6H846.1" class="gv_274"/>
<path d="M32.1,45.1H9.2m958.3,0h22.9M32.1,1331.3H9.2m958.3,0h22.9M45.1,32.1V9.2m0,1335.1v22.9M954.5,32.1V9.2m0,1335.1v22.9" class="gw_274"/>
<path d="M32.1,45.1H9.2m958.3,0h22.9M32.1,1331.3H9.2m958.3,0h22.9M45.1,32.1V9.2m0,1335.1v22.9M954.5,32.1V9.2m0,1335.1v22.9" class="gx_274"/>
<path d="M27.5,32.1H0m972.1,0h27.5M27.5,1344.3H0m972.1,0h27.5M32.1,27.5V0m0,1348.9v27.5M967.5,27.5V0m0,1348.9v27.5" class="gw_274"/>
<path d="M27.5,32.1H0m972.1,0h27.5M27.5,1344.3H0m972.1,0h27.5M32.1,27.5V0m0,1348.9v27.5M967.5,27.5V0m0,1348.9v27.5" class="gx_274"/>
</svg>