<?xml version="1.0" encoding="UTF-8" standalone="no"?>
<!DOCTYPE svg PUBLIC "-//W3C//DTD SVG 1.1//EN"
"http://www.w3.org/Graphics/SVG/1.1/DTD/svg11.dtd">
<svg viewBox="0 0 999 1376" version="1.1" xmlns="http://www.w3.org/2000/svg" xmlns:xlink="http://www.w3.org/1999/xlink">
<defs>
<clipPath id="c0_278"><path d="M174.4,861.8l-6.5,-2.1L151.5,845.8V788.7h72v73.1Z"/></clipPath>
<clipPath id="c1_278"><path d="M525.1,531.1V431.9h99.2v99.2Z"/></clipPath>
<clipPath id="c2_278"><path d="M197.3,702.1V602.9h99.2v99.2Z"/></clipPath>
<clipPath id="c3_278"><path d="M358.7,702.1V598.6H462.3V702.1Z"/></clipPath>
<clipPath id="c4_278"><path d="M525.1,702.1V602.9h99.2v99.2Z"/></clipPath>
<clipPath id="c5_278"><path d="M688.1,702.1V602.9h99.2v99.2Z"/></clipPath>
<clipPath id="c6_278"><path d="M590.3,298V275.3h32.9V298Z"/></clipPath>
<clipPath id="c7_278"><path d="M177,237.3l-6.5,-2.1L154.1,221.3V164.2h72v73.1Z"/></clipPath>
<style type="text/css"><![CDATA[
.g0_278{
fill: #FEFCF4;
}
.g1_278{
fill: #FCE8B0;
}
.g2_278{
fill: #FFF;
}
.g3_278{
fill: none;
stroke: #6381B7;
stroke-width: 0.763;
}
.g4_278{
fill: none;
stroke: #949698;
stroke-width: 0.381;
}
.g5_278{
fill: #F0E8F3;
}
.g6_278{
fill: none;
stroke: #231F20;
stroke-width: 0.458;
stroke-miterlimit: 10;
}
.g7_278{
fill: #25408F;
}
.g8_278{
fill: #6381B7;
}
.g9_278{
fill: #00BAF1;
}
.ga_278{
fill: #332D2C;
}
.gb_278{
fill: #D9DFF0;
}
.gc_278{
fill: #F27C85;
}
.gd_278{
fill: #7DD3F6;
}
.ge_278{
fill: none;
stroke: #FFF;
stroke-width: 1.909;
stroke-miterlimit: 10;
}
.gf_278{
fill: none;
stroke: #000;
stroke-width: 0.381;
stroke-miterlimit: 10;
}
]]></style>
</defs>
<path d="M32.1,1343.2H954.5V32.1H32.1V1343.2Z" class="g0_278"/>
<path d="M207,816.8c0,0,-12.9,0,-12.9,13v21.6c0,0,0,13,12.9,13H830.7c0,0,13,0,13,-13V829.8c0,0,0,-13,-13,-13Z" class="g1_278"/>
<image clip-path="url(#c0_278)" preserveAspectRatio="none" x="150" y="787" width="75" height="76" xlink:href="img/1.png"/>
<path d="M201.8,857.1c0,0,-26.8,11.3,-51.1,-12.8c0,0,15.2,25.3,49.3,24c0,0,24.8,.3,20.3,-10.1c0,0,1.2,-4.5,-18.5,-1.1Z" class="g1_278"/>
<path d="M150.9,135c0,0,-18.3,0,-18.3,18.3V752.5c0,0,0,18.3,18.3,18.3H828c0,0,18.4,0,18.4,-18.3V135Z" class="g2_278"/>
<path d="M150.9,135c0,0,-18.3,0,-18.3,18.3V752.5c0,0,0,18.3,18.3,18.3H828c0,0,18.4,0,18.4,-18.3V135H150.9Z" class="g3_278"/>
<path d="M186.7,357.8H307.1V258.6H186.7v99.2Z" class="g2_278"/>
<image preserveAspectRatio="none" x="197" y="259" width="100" height="99" xlink:href="img/2.jpg"/>
<path d="M186.7,357.8H307.1V258.6H186.7v99.2Z" class="g4_278"/>
<path d="M350.3,357.8H470.8V258.6H350.3v99.2Z" class="g2_278"/>
<image preserveAspectRatio="none" x="361" y="259" width="99" height="99" xlink:href="img/3.jpg"/>
<path d="M350.3,357.8H470.8V258.6H350.3v99.2Z" class="g4_278"/>
<path d="M513.9,357.8H634.4V258.6H513.9v99.2Z" class="g2_278"/>
<image preserveAspectRatio="none" x="524" y="259" width="100" height="99" xlink:href="img/4.jpg"/>
<path d="M513.9,357.8H634.4V258.6H513.9v99.2Z" class="g4_278"/>
<path d="M677.5,357.8H798V258.6H677.5v99.2Z" class="g2_278"/>
<image preserveAspectRatio="none" x="688" y="259" width="99" height="99" xlink:href="img/5.jpg"/>
<path d="M677.5,357.8H798V258.6H677.5v99.2Z" class="g4_278"/>
<path d="M186.7,531.1H307.1V431.9H186.7v99.2Z" class="g2_278"/>
<image preserveAspectRatio="none" x="197" y="432" width="100" height="99" xlink:href="img/6.jpg"/>
<path d="M186.7,531.1H307.1V431.9H186.7v99.2Z" class="g4_278"/>
<path d="M350.3,531.1H470.8V427.5H350.3V531.1Z" class="g2_278"/>
<image preserveAspectRatio="none" x="359" y="428" width="103" height="103" xlink:href="img/7.jpg"/>
<path d="M350.3,531.1H470.8V427.5H350.3V531.1Z" class="g4_278"/>
<path d="M513.9,531.1H635.5V431.9H513.9v99.2Z" class="g2_278"/>
<image clip-path="url(#c1_278)" preserveAspectRatio="none" x="525" y="432" width="99" height="99" xlink:href="img/8.jpg"/>
<path d="M513.9,531.1H635.5V431.9H513.9v99.2Z" class="g4_278"/>
<path d="M677.5,531.1H798V431.9H677.5v99.2Z" class="g2_278"/>
<image preserveAspectRatio="none" x="688" y="432" width="99" height="99" xlink:href="img/9.jpg"/>
<path d="M677.5,531.1H798V431.9H677.5v99.2Z" class="g4_278"/>
<path d="M186.7,702.1H307.1V602.9H186.7v99.2Z" class="g2_278"/>
<image clip-path="url(#c2_278)" preserveAspectRatio="none" x="197" y="603" width="100" height="99" xlink:href="img/10.jpg"/>
<path d="M186.7,702.1H307.1V602.9H186.7v99.2Z" class="g4_278"/>
<path d="M350.3,702.1H470.8V598.6H350.3V702.1Z" class="g2_278"/>
<image clip-path="url(#c3_278)" preserveAspectRatio="none" x="359" y="599" width="103" height="103" xlink:href="img/11.jpg"/>
<path d="M350.3,702.1H470.8V598.6H350.3V702.1Z" class="g4_278"/>
<path d="M513.9,702.1H635.5V602.9H513.9v99.2Z" class="g2_278"/>
<image clip-path="url(#c4_278)" preserveAspectRatio="none" x="525" y="603" width="99" height="99" xlink:href="img/12.jpg"/>
<path d="M513.9,702.1H635.5V602.9H513.9v99.2Z" class="g4_278"/>
<path d="M677.5,702.1H798V602.9H677.5v99.2Z" class="g2_278"/>
<image clip-path="url(#c5_278)" preserveAspectRatio="none" x="688" y="603" width="99" height="99" xlink:href="img/13.jpg"/>
<path d="M677.5,702.1H798V602.9H677.5v99.2Z" class="g4_278"/>
<image clip-path="url(#c6_278)" preserveAspectRatio="none" x="590" y="275" width="33" height="23" xlink:href="img/14.png"/>
<path d="M145.1,880c0,0,-13,0,-13,13v328.4c0,0,0,13,13,13H832.9c0,0,13,0,13,-13V893c0,0,0,-13,-13,-13Z" class="g2_278"/>
<path d="M145.1,880c0,0,-13,0,-13,13v328.4c0,0,0,13,13,13H832.9c0,0,13,0,13,-13V893c0,0,0,-13,-13,-13H145.1Z" class="g3_278"/>
<path d="M235.6,959.9c0,0,-13,0,-13,13v56.3c0,0,0,13,13,13h563c0,0,13,0,13,-13V972.9c0,0,0,-13,-13,-13Z" class="g5_278"/>
<path d="M382.5,1013.2H494.3" class="g6_278"/>
<path d="M235.6,1096.9c0,0,-13,0,-13,13v56.3c0,0,0,13,13,13h563c0,0,13,0,13,-13v-56.3c0,0,0,-13,-13,-13Z" class="g5_278"/>
<path d="M253.2,1122.9H364.9" class="g6_278"/>
<path d="M209.6,192.3c0,0,-12.9,0,-12.9,13V227c0,0,0,12.9,12.9,12.9h602c0,0,13,0,13,-12.9V205.3c0,0,0,-13,-13,-13Z" class="g1_278"/>
<image clip-path="url(#c7_278)" preserveAspectRatio="none" x="153" y="163" width="75" height="76" xlink:href="img/15.png"/>
<path d="M204.4,232.6c0,0,-26.8,11.3,-51.1,-12.8c0,0,15.2,25.4,49.3,24c0,0,24.8,.3,20.3,-10.1c0,0,1.2,-4.5,-18.5,-1.1Z" class="g1_278"/>
<path d="M131.7,126.7v22.2l11.7,10.3V137Z" class="g7_278"/>
<path d="M131.7,109.9v39H829.4c0,0,16.9,0,16.9,-16.8v-5.4c0,0,0,-16.8,-16.9,-16.8Z" class="g8_278"/>
<path d="M189.6,121.3l-6.4,-6.5L162,136l6.4,6.5Z" class="g9_278"/>
<path d="M168.4,143c.2,0,.3,0,.4,-.1L190,121.7c.1,-.1,.2,-.3,.2,-.4c0,-.1,-.1,-.3,-.2,-.4l-6.5,-6.4c-.2,-.2,-.5,-.2,-.7,0l-21.2,21.2c-.1,.1,-.2,.2,-.2,.3c0,.2,.1,.3,.2,.4l6.5,6.5c.1,.1,.2,.1,.3,.1m20.5,-21.7l-20.5,20.5L162.7,136l20.5,-20.4Z" class="ga_278"/>
<path d="M189.6,121.3l-6.4,-6.5l2.1,-2.1l6.5,6.5Z" class="gb_278"/>
<path d="M189.6,121.8c.2,0,.3,0,.4,-.1l2.1,-2.1c.1,-.1,.2,-.3,.2,-.4c0,-.2,-.1,-.3,-.2,-.4l-6.4,-6.5c-.2,-.2,-.6,-.2,-.8,0l-2.1,2.2c-.1,0,-.2,.2,-.2,.3c0,.2,.1,.3,.2,.4l6.5,6.5c.1,.1,.2,.1,.3,.1m1.4,-2.6l-1.4,1.4l-5.7,-5.8l1.4,-1.4Z" class="ga_278"/>
<path d="M195.4,115.6l-6.5,-6.5l-3.6,3.6l6.5,6.5Z" class="gc_278"/>
<path d="M191.8,119.7c.1,0,.2,0,.3,-.1l3.7,-3.7c.2,-.2,.2,-.5,0,-.7l-6.5,-6.5c-.2,-.2,-.6,-.2,-.8,0l-3.6,3.6c-.2,.2,-.2,.6,0,.8l6.5,6.5c.1,.1,.2,.1,.4,.1m2.8,-4.1l-2.8,2.8L186,112.7l2.9,-2.9Z" class="ga_278"/>
<path d="M157.3,147.2L162,136l6.4,6.5Z" class="g2_278"/>
<path d="M157.3,147.7c.1,0,.2,0,.2,-.1L168.6,143c.2,-.1,.3,-.2,.4,-.4c0,-.2,-.1,-.3,-.2,-.5l-6.5,-6.4c-.1,-.2,-.3,-.2,-.5,-.2c-.1,.1,-.3,.2,-.3,.3l-4.7,11.1c0,.2,0,.5,.1,.6c.1,.1,.3,.2,.4,.2m10.2,-5.4l-9.2,3.9l3.8,-9.2Z" class="ga_278"/>
<path d="M157.3,147.2l2.3,-5.4l3.1,3.1Z" class="ga_278"/>
<path d="M157.3,147.7c.1,0,.2,0,.2,-.1l5.4,-2.2c.1,-.1,.3,-.2,.3,-.4c0,-.2,0,-.3,-.1,-.5l-3.2,-3.1c-.1,-.1,-.3,-.2,-.4,-.1c-.2,0,-.4,.1,-.4,.3l-2.3,5.3c0,.2,0,.5,.1,.6c.1,.1,.3,.2,.4,.2m4.5,-3l-3.5,1.5l1.4,-3.5Z" class="ga_278"/>
<path d="M187.9,119.5l-3,-2.9l-21.2,21.2l3,3Z" class="gd_278"/>
<path d="M166.7,141.3c.1,0,.2,-.1,.3,-.2l21.3,-21.2c.1,-.1,.1,-.2,.1,-.4c0,-.1,0,-.2,-.1,-.3l-3,-3c-.2,-.2,-.5,-.2,-.8,0l-21.2,21.2c-.1,.1,-.1,.3,-.1,.4c0,.1,0,.3,.1,.4l3,2.9c.1,.1,.2,.2,.4,.2m20.4,-21.8L166.7,140l-2.2,-2.2l20.4,-20.5Z" class="ga_278"/>
<path d="M32.1,45.1H9.2m958.3,0h22.9M32.1,1331.3H9.2m958.3,0h22.9M45.1,32.1V9.2m0,1335.1v22.9M954.5,32.1V9.2m0,1335.1v22.9" class="ge_278"/>
<path d="M32.1,45.1H9.2m958.3,0h22.9M32.1,1331.3H9.2m958.3,0h22.9M45.1,32.1V9.2m0,1335.1v22.9M954.5,32.1V9.2m0,1335.1v22.9" class="gf_278"/>
<path d="M27.5,32.1H0m972.1,0h27.5M27.5,1344.3H0m972.1,0h27.5M32.1,27.5V0m0,1348.9v27.5M967.5,27.5V0m0,1348.9v27.5" class="ge_278"/>
<path d="M27.5,32.1H0m972.1,0h27.5M27.5,1344.3H0m972.1,0h27.5M32.1,27.5V0m0,1348.9v27.5M967.5,27.5V0m0,1348.9v27.5" class="gf_278"/>
</svg>