<?xml version="1.0" encoding="UTF-8" standalone="no"?>
<!DOCTYPE svg PUBLIC "-//W3C//DTD SVG 1.1//EN"
"http://www.w3.org/Graphics/SVG/1.1/DTD/svg11.dtd">
<svg viewBox="0 0 999 1376" version="1.1" xmlns="http://www.w3.org/2000/svg" xmlns:xlink="http://www.w3.org/1999/xlink">
<defs>
<clipPath id="c0_256"><path d="M171.8,321.8V272.3H806.5v49.5h-7.1V286.5c0,-.1,0,-12.5,-11.5,-12.5H184.8c0,0,-11.6,0,-11.6,12.5v35.3Z"/></clipPath>
<clipPath id="c1_256"><path d="M171.8,766.7V321.2h1.4V746.5c0,.1,0,12.4,11.6,12.4h35.8v7.8Z"/></clipPath>
<clipPath id="c2_256"><path d="M757.6,766.7v-7.8h30.3c0,0,11.5,0,11.5,-12.4V321.2h7.1V766.7Z"/></clipPath>
<clipPath id="c3_256"><path d="M220.1,766.7v-7.8h538v7.8Z"/></clipPath>
<clipPath id="c4_256"><path d="M781.3,738.5V298.8H198.2V738.5ZM184.6,758.9q-.1,0,-.1,0h-.2c0,0,-.1,0,-.1,0q-.1,0,-.1,0h-.3c0,0,-.1,0,-.1,0q-.1,0,-.1,0c0,0,-.1,0,-.1,0q-.1,0,-.1,0h-.1c0,0,-.1,0,-.1,0q-.1,0,-.1,0c0,0,-.1,-.1,-.1,-.1q-.1,0,-.1,0h-.1c0,0,-.1,0,-.1,0q-.1,0,-.1,0h-.1c0,0,-.1,0,-.1,0c0,-.1,-.1,-.1,-.1,-.1q-.1,0,-.1,0h-.1c0,0,-.1,0,-.1,0c0,0,-.1,0,-.1,0q-.1,-.1,-.1,-.1q-.1,0,-.1,0h-.1c0,0,-.1,0,-.1,0c0,0,-.1,0,-.1,-.1q-.1,0,-.1,0q-.1,0,-.1,0q-.1,0,-.1,0c0,0,0,-.1,0,-.1q-.1,0,-.1,0h-.2c0,0,0,-.1,-.1,-.1h-.2c0,0,0,-.1,-.1,-.1h-.2v-.1h-.1q-.1,0,-.1,0q-.1,-.1,-.1,-.1q-.1,0,-.1,0c0,0,-.1,0,-.1,0q0,-.1,0,-.1c0,0,-.1,0,-.1,0h-.1c0,0,0,-.1,0,-.1q-.1,0,-.1,0q-.1,0,-.1,0q0,-.1,0,-.1c0,0,-.1,0,-.1,0h-.1c0,0,0,-.1,0,-.1q-.1,0,-.1,0c0,0,-.1,0,-.1,-.1h-.1v-.1q-.1,0,-.1,0c0,0,-.1,0,-.1,0v-.1q-.1,0,-.1,0c0,0,-.1,0,-.1,-.1q-.1,0,-.1,0c0,0,0,-.1,0,-.1c0,0,-.1,0,-.1,0q-.1,-.1,-.1,-.1q-.1,0,-.1,-.1c0,0,-.1,0,-.1,0c0,0,0,-.1,0,-.1q-.1,0,-.1,0q-.1,-.1,-.1,-.1h-.1c0,0,0,-.1,0,-.1c0,0,-.1,0,-.1,0v-.1c0,0,-.1,0,-.1,0c0,0,0,-.1,0,-.1q-.1,0,-.1,0v-.1q-.1,0,-.1,0v-.1q-.1,0,-.1,0c0,0,-.1,-.1,-.1,-.1c0,0,-.1,-.1,-.1,-.1c0,0,-.1,-.1,-.1,-.1v-.1q-.1,0,-.1,0l-.1,-.1c0,-.1,-.1,-.1,-.1,-.1v-.1q-.1,0,-.1,0q0,-.1,0,-.1c0,0,-.1,0,-.1,0v-.1h-.1q0,-.1,0,-.1c0,0,-.1,0,-.1,-.1Q176,755,176,755v-.1q-.1,0,-.1,0q0,-.1,0,-.1c-.1,0,-.1,-.1,-.1,-.1c0,0,0,-.1,0,-.1q-.1,0,-.1,0c0,0,0,-.1,0,-.1q-.1,0,-.1,-.1c0,-.1,-.1,-.1,-.1,-.1v-.1c0,0,-.1,0,-.1,0q0,-.1,0,-.1c0,0,0,-.1,-.1,-.1v-.1c0,0,-.1,-.1,-.1,-.1v-.1c0,0,-.1,0,-.1,0c-1.9,-3.4,-1.9,-7.2,-1.9,-7.2v-460C173.2,274,184.8,274,184.8,274H788q.1,0,.1,0h.4q.1,0,.1,0h.1c0,0,.1,0,.1,0h.1v.1h.1q.1,0,.1,0h.1q.1,0,.1,0h.1c0,0,.1,0,.1,0q.1,0,.1,0q.1,0,.1,0c0,0,.1,0,.1,0l.1,.1h.1c0,0,.1,0,.1,0q.1,0,.1,0q.1,0,.1,0h.1l.1,.1h.2c0,0,.1,0,.1,0c0,0,.1,0,.1,0v.1q.1,0,.1,0q.1,0,.1,0q.1,0,.1,0q.1,0,.2,.1h.1c0,0,.1,0,.2,0v.1h.2c4.4,1.5,6.3,5.4,7,8.3v.1q0,.1,.1,.1v.1q0,.1,0,.1v.1q0,.1,0,.1q.1,0,.1,0q0,.1,0,.1c0,0,0,.1,0,.1c0,0,0,.1,0,.1v.1q0,.1,0,.1h.1c0,0,0,.1,0,.1q0,.1,0,.1c.2,1.4,.2,2.3,.2,2.3v460c0,12.4,-11.5,12.4,-11.5,12.4Z"/></clipPath>
<clipPath id="c5_256"><path d="M198.2,445.5V298.8H377.8V445.5Z"/></clipPath>
<clipPath id="c6_256"><path d="M377.5,445.5V298.8H557.2V445.5Z"/></clipPath>
<clipPath id="c7_256"><path d="M556.9,445.5V298.8H736.7V445.5Z"/></clipPath>
<clipPath id="c8_256"><path d="M736.4,738.5V298.8h44.9V738.5Z"/></clipPath>
<clipPath id="c9_256"><path d="M198.2,592.2v-147H377.8v147Z"/></clipPath>
<clipPath id="ca_256"><path d="M377.5,592.2v-147H557.2v147Z"/></clipPath>
<clipPath id="cb_256"><path d="M556.9,592.2v-147H736.7v147Z"/></clipPath>
<clipPath id="cc_256"><path d="M198.2,738.5V591.8H377.8V738.5Z"/></clipPath>
<clipPath id="cd_256"><path d="M377.5,738.5V591.8H557.2V738.5Z"/></clipPath>
<clipPath id="ce_256"><path d="M556.9,738.5V591.8H736.7V738.5Z"/></clipPath>
<clipPath id="cf_256"><path d="M327.3,528.7V364.3H639.5V528.7Z"/></clipPath>
<clipPath id="cg_256"><path d="M171.8,822.4V688.2h1.4V803.7c0,.1,0,11.6,11.6,11.6h35.8v7.1Z"/></clipPath>
<clipPath id="ch_256"><path d="M757.6,822.4v-7.1h30.3c0,0,11.5,0,11.5,-11.6V688.2h7.1V822.4Z"/></clipPath>
<clipPath id="ci_256"><path d="M220.1,822.4v-7.1h538v7.1Z"/></clipPath>
<clipPath id="cj_256"><path d="M159.8,830.6V688.2H843.4V830.6Z"/></clipPath>
<clipPath id="ck_256"><path d="M184.8,815.3c-.1,0,-.2,0,-.3,0c0,0,-.1,0,-.1,-.1q-.1,0,-.1,0H184q-.1,0,-.1,0h-.1q-.1,0,-.1,0c0,0,-.1,0,-.1,0q-.1,0,-.1,0q-.1,0,-.1,0c0,0,-.1,0,-.1,0h-.2c0,0,-.1,0,-.1,0q-.1,-.1,-.1,-.1h-.1c0,0,-.1,0,-.1,0h-.2c0,0,-.1,0,-.1,0q-.1,0,-.1,0q-.1,-.1,-.1,-.1h-.1q-.1,0,-.1,0h-.2c0,0,-.1,0,-.1,-.1c0,0,-.1,0,-.1,0c0,0,-.1,0,-.1,0q-.1,0,-.1,0q-.1,0,-.1,-.1q-.1,0,-.1,0q-.1,0,-.1,0q-.1,0,-.1,0h-.1q0,-.1,0,-.1h-.2c0,0,-.1,0,-.1,0c0,0,0,-.1,0,-.1h-.1c0,0,-.1,0,-.1,0h-.1c0,0,0,-.1,0,-.1q-.1,0,-.1,0q-.1,0,-.1,0c-.1,0,-.1,-.1,-.1,-.1c-3.4,-1.3,-5.1,-4,-5.9,-6.3c-.1,0,-.1,-.1,-.1,-.1c0,0,0,-.1,0,-.1v-.1c0,0,-.1,0,-.1,0c0,0,0,-.1,0,-.1c0,0,0,-.1,0,-.1c0,0,0,-.1,0,-.1c0,0,-.1,0,-.1,0v-.2q0,-.1,0,-.1h-.1q0,-.1,0,-.1c0,0,0,-.1,0,-.1c0,0,0,-.1,0,-.1v-.1h-.1v-.1c0,0,0,-.1,0,-.1v-.2c0,0,-.1,0,-.1,-.1q0,-.1,0,-.1c-.3,-1.5,-.3,-2.5,-.3,-2.5V688.2h25V796.3H781.3V688.2h18.1V803.7c0,11.6,-11.5,11.6,-11.5,11.6Z"/></clipPath>
<clipPath id="cl_256"><path d="M736.4,796.3V688.2h44.9V796.3Z"/></clipPath>
<clipPath id="cm_256"><path d="M198.2,796.3V688.2H377.8V796.3Z"/></clipPath>
<clipPath id="cn_256"><path d="M377.5,796.3V688.2H557.2V796.3Z"/></clipPath>
<clipPath id="co_256"><path d="M556.9,796.3V688.2H736.7V796.3Z"/></clipPath>
<style type="text/css"><![CDATA[
.g0_256{
fill: none;
stroke: #6381B7;
stroke-width: 0.763;
}
.g1_256{
fill: #E7D6B2;
}
.g2_256{
fill: #FFF;
}
.g3_256{
fill: #6381B7;
}
.g4_256{
fill: none;
stroke: #6381B7;
stroke-width: 0.381;
stroke-dasharray: 2,1;
}
.g5_256{
fill: none;
stroke: #6381B7;
stroke-width: 0.381;
}
.g6_256{
fill: #25408F;
}
.g7_256{
fill: #F37553;
}
.g8_256{
fill: #363637;
}
.g9_256{
fill: #EAD646;
}
.ga_256{
fill: #506CB4;
}
.gb_256{
fill: #5CC4BE;
}
.gc_256{
fill: none;
stroke: #FFF;
stroke-width: 1.909;
stroke-miterlimit: 10;
}
.gd_256{
fill: none;
stroke: #000;
stroke-width: 0.381;
stroke-miterlimit: 10;
}
]]></style>
</defs>
<path d="M145.1,167c0,0,-13,0,-13,13v915.3c0,0,0,13,13,13H832.9c0,0,13,0,13,-13V180c0,0,0,-13,-13,-13H145.1Z" class="g0_256"/>
<image clip-path="url(#c0_256)" preserveAspectRatio="none" x="171" y="272" width="636" height="50" xlink:href="img/1.jpg"/>
<image clip-path="url(#c1_256)" preserveAspectRatio="none" x="171" y="321" width="50" height="446" xlink:href="img/2.jpg"/>
<image clip-path="url(#c2_256)" preserveAspectRatio="none" x="757" y="321" width="50" height="446" xlink:href="img/3.jpg"/>
<image clip-path="url(#c3_256)" preserveAspectRatio="none" x="220" y="758" width="538" height="9" xlink:href="img/4.jpg"/>
<path d="M184.8,274c0,0,-11.6,0,-11.6,12.5v460c0,0,0,12.4,11.6,12.4H787.9c0,0,11.5,0,11.5,-12.4v-460c0,0,0,-12.5,-11.5,-12.5H184.8Z" class="g1_256"/>
<image clip-path="url(#c4_256)" preserveAspectRatio="none" x="173" y="274" width="627" height="485" xlink:href="img/5.jpg"/>
<image clip-path="url(#c5_256)" preserveAspectRatio="none" x="198" y="298" width="180" height="148" xlink:href="img/6.jpg"/>
<image clip-path="url(#c6_256)" preserveAspectRatio="none" x="377" y="298" width="181" height="148" xlink:href="img/7.jpg"/>
<image clip-path="url(#c7_256)" preserveAspectRatio="none" x="557" y="298" width="180" height="148" xlink:href="img/8.jpg"/>
<image clip-path="url(#c8_256)" preserveAspectRatio="none" x="736" y="298" width="46" height="441" xlink:href="img/9.jpg"/>
<image clip-path="url(#c9_256)" preserveAspectRatio="none" x="198" y="445" width="180" height="147" xlink:href="img/10.jpg"/>
<image clip-path="url(#ca_256)" preserveAspectRatio="none" x="377" y="445" width="181" height="147" xlink:href="img/11.jpg"/>
<image clip-path="url(#cb_256)" preserveAspectRatio="none" x="557" y="445" width="180" height="147" xlink:href="img/12.jpg"/>
<image clip-path="url(#cc_256)" preserveAspectRatio="none" x="198" y="592" width="180" height="147" xlink:href="img/13.jpg"/>
<image clip-path="url(#cd_256)" preserveAspectRatio="none" x="377" y="592" width="181" height="147" xlink:href="img/14.jpg"/>
<image clip-path="url(#ce_256)" preserveAspectRatio="none" x="557" y="592" width="180" height="147" xlink:href="img/15.jpg"/>
<path d="M199.7,730.9H774V300.5H199.7V730.9Z" class="g2_256"/>
<path d="M224.8,528.7H749.9V364.3H224.8V528.7Z" class="g2_256"/>
<image clip-path="url(#cf_256)" preserveAspectRatio="none" x="327" y="363" width="312" height="167" xlink:href="img/16.jpg"/>
<image clip-path="url(#cg_256)" preserveAspectRatio="none" x="171" y="410" width="50" height="413" xlink:href="img/17.jpg"/>
<image clip-path="url(#ch_256)" preserveAspectRatio="none" x="757" y="410" width="50" height="413" xlink:href="img/18.jpg"/>
<image clip-path="url(#ci_256)" preserveAspectRatio="none" x="220" y="815" width="538" height="8" xlink:href="img/19.jpg"/>
<path clip-path="url(#cj_256)" d="M184.8,365.8c0,0,-11.6,0,-11.6,11.6V803.7c0,0,0,11.6,11.6,11.6H787.9c0,0,11.5,0,11.5,-11.6V377.4c0,0,0,-11.6,-11.5,-11.6H184.8Z" class="g1_256"/>
<image clip-path="url(#ck_256)" preserveAspectRatio="none" x="173" y="366" width="627" height="449" xlink:href="img/20.jpg"/>
<image clip-path="url(#cl_256)" preserveAspectRatio="none" x="736" y="388" width="46" height="409" xlink:href="img/21.jpg"/>
<image clip-path="url(#cm_256)" preserveAspectRatio="none" x="198" y="660" width="180" height="137" xlink:href="img/22.jpg"/>
<image clip-path="url(#cn_256)" preserveAspectRatio="none" x="377" y="660" width="181" height="137" xlink:href="img/23.jpg"/>
<image clip-path="url(#co_256)" preserveAspectRatio="none" x="557" y="660" width="180" height="137" xlink:href="img/24.jpg"/>
<path clip-path="url(#cj_256)" d="M199.7,789.2H774V390.4H199.7V789.2Z" class="g2_256"/>
<path d="M298.4,346.1H662.2V311.4H298.4v34.7Z" class="g2_256"/>
<path d="M225.2,778.7H744.9V543.1H225.2V778.7Z" class="g2_256"/>
<path d="M634.4,1125.2c0,0,-4.3,0,-4.3,4.3v10.9c0,0,0,4.3,4.3,4.3h30.4c0,0,4.3,0,4.3,-4.3v-10.9c0,0,0,-4.3,-4.3,-4.3Z" class="g3_256"/>
<path d="M621.3,1117.7v34.9m1.3,.9H845.1m1,-1.3v-34.9m-1.4,-.9H622.2" class="g4_256"/>
<path d="M621.3,1153v.5h.5m223.7,0h.6v-.5m0,-36.1v-.5h-.6m-223.7,0h-.5v.5" class="g5_256"/>
<path d="M132.2,126.3v22.2l11.7,10.2V136.5Z" class="g6_256"/>
<path d="M132.2,109.5v39H829.9c0,0,16.9,0,16.9,-16.8v-5.4c0,0,0,-16.8,-16.9,-16.8Z" class="g3_256"/>
<path d="M166,111.6c.7,-.6,1.7,-.8,2.5,-.6l1.3,-1.3l-6.2,-6.1l-6.1,6.1l-1.3,-1.3c.2,-.8,0,-1.8,-.6,-2.4c-1,-1,-2.6,-1,-3.6,0c-1,1,-1,2.6,0,3.6c.6,.6,1.6,.9,2.4,.6l1.3,1.3l-6.1,6.1l6.1,6.2l-1.3,1.3c-.8,-.3,-1.8,-.1,-2.4,.6c-1,1,-1,2.6,0,3.6c1,1,2.6,1,3.6,0c.6,-.7,.9,-1.6,.6,-2.4l1.3,-1.3l6.1,6.1l6.2,-6.1l-1.3,-1.3c-.9,.2,-1.8,0,-2.5,-.7c-1,-1,-1,-2.6,0,-3.6c1,-1,2.6,-1,3.6,0c.7,.7,.9,1.6,.7,2.5l1.3,1.3l6.1,-6.2l-6.1,-6.1l-1.3,1.3c.2,.8,0,1.8,-.7,2.4c-1,1,-2.6,1,-3.6,0c-1,-.9,-1,-2.6,0,-3.6Z" class="g7_256"/>
<path d="M163.6,132.3l-6.1,-6.2l-.8,.9c.1,.9,-.2,1.9,-.8,2.6c-1.2,1.1,-3.1,1.1,-4.2,0c-1.2,-1.2,-1.2,-3,0,-4.2c.7,-.7,1.6,-1,2.6,-.8l.8,-.8L149,117.6l6.1,-6.1l-.8,-.8c-1,.1,-1.9,-.2,-2.6,-.8c-.6,-.6,-.9,-1.3,-.9,-2.1c0,-.8,.3,-1.5,.9,-2.1c1.1,-1.1,3,-1.1,4.1,0c.7,.7,1,1.7,.9,2.6l.8,.8l6.1,-6.1l6.7,6.7l-1.7,1.7h-.2c-.7,-.2,-1.5,0,-2.1,.5c-.8,.9,-.8,2.2,0,3.1c.9,.8,2.2,.8,3.1,0c.5,-.6,.7,-1.4,.5,-2.1v-.2l1.7,-1.7l6.7,6.6l-6.7,6.7l-1.8,-1.7l.1,-.2c.2,-.8,0,-1.5,-.6,-2.1c-.4,-.4,-.9,-.6,-1.5,-.6c-.5,0,-1.1,.2,-1.5,.6c-.8,.8,-.8,2.2,0,3c.5,.6,1.3,.8,2.1,.6l.2,-.1l1.7,1.8ZM157.5,125l6.1,6.1l5.6,-5.5l-.8,-.9c-1,.2,-2,-.1,-2.7,-.8c-.5,-.5,-.8,-1.3,-.8,-2.1c0,-.7,.3,-1.5,.8,-2c.6,-.6,1.3,-.9,2.1,-.9c.8,0,1.6,.3,2.1,.9c.7,.6,1,1.6,.8,2.6l.9,.8l5.5,-5.6l-5.5,-5.5l-.9,.8c.2,1,-.1,1.9,-.8,2.6c-1.1,1.2,-3,1.2,-4.1,0c-1.2,-1.1,-1.2,-3,0,-4.1c.6,-.7,1.6,-1,2.6,-.8l.8,-.9l-5.6,-5.6l-6.1,6.2l-1.7,-1.7v-.3c.2,-.7,0,-1.5,-.5,-2c-.9,-.9,-2.2,-.9,-3.1,0c-.4,.4,-.6,.9,-.6,1.5c0,.6,.2,1.1,.6,1.5c.6,.5,1.4,.8,2.1,.6l.2,-.1l1.8,1.7l-6.2,6.1l6.2,6.2l-1.8,1.7l-.2,-.1c-.7,-.2,-1.5,.1,-2,.6c-.9,.8,-.9,2.2,0,3c.8,.9,2.2,.9,3,0c.5,-.5,.7,-1.3,.5,-2v-.3Z" class="g8_256"/>
<path d="M196.6,122.1c.9,0,1.8,.5,2.2,1.3h1.8v-8.7h-8.7v-1.8c.8,-.4,1.3,-1.2,1.3,-2.2c0,-1.4,-1.1,-2.5,-2.5,-2.5c-1.5,0,-2.6,1.1,-2.6,2.5c0,1,.5,1.8,1.3,2.2v1.8h-8.7v8.7h-1.8c-.4,-.8,-1.2,-1.3,-2.2,-1.3c-1.4,0,-2.5,1.2,-2.5,2.6c0,1.4,1.1,2.5,2.5,2.5c1,0,1.8,-.5,2.2,-1.2h1.8v8.6h8.7v-1.8c-.8,-.4,-1.3,-1.2,-1.3,-2.2c0,-1.4,1.2,-2.5,2.6,-2.5c1.4,0,2.5,1.1,2.5,2.5c0,1,-.5,1.8,-1.3,2.2v1.8h8.7V126h-1.8c-.4,.7,-1.2,1.2,-2.2,1.2c-1.4,0,-2.5,-1.1,-2.5,-2.5c0,-1.4,1.1,-2.6,2.5,-2.6Z" class="g9_256"/>
<path d="M201,135h-9.5v-2.4l.2,-.1c.7,-.4,1.1,-1.1,1.1,-1.9c0,-1.2,-1,-2.1,-2.1,-2.1c-1.2,0,-2.2,.9,-2.2,2.1c0,.8,.4,1.5,1.1,1.9l.2,.1V135h-9.5v-8.6h-1.2c-.5,.7,-1.4,1.2,-2.4,1.2c-1.6,0,-2.9,-1.3,-2.9,-2.9c0,-1.6,1.3,-3,2.9,-3c1,0,1.9,.5,2.4,1.3h1.2v-8.7H189v-1.1c-.8,-.6,-1.3,-1.5,-1.3,-2.5c0,-1.6,1.3,-2.9,3,-2.9c1.6,0,2.9,1.3,2.9,2.9c0,1,-.5,1.9,-1.3,2.5v1.1H201v9.5h-2.4l-.1,-.2c-.4,-.6,-1.1,-1.1,-1.9,-1.1c-.6,0,-1.1,.3,-1.5,.7c-.4,.4,-.6,.9,-.6,1.5c0,1.2,.9,2.1,2.1,2.1c.8,0,1.5,-.4,1.9,-1l.1,-.2H201Zm-8.7,-.8h7.9v-7.8H199c-.5,.7,-1.4,1.2,-2.4,1.2c-1.6,0,-2.9,-1.3,-2.9,-2.9c0,-.8,.3,-1.5,.8,-2.1c.6,-.5,1.3,-.9,2.1,-.9c1,0,1.9,.5,2.4,1.3h1.2v-7.9h-8.7v-2.4l.2,-.1c.7,-.4,1.1,-1.1,1.1,-1.9c0,-1.2,-1,-2.1,-2.1,-2.1c-1.2,0,-2.2,.9,-2.2,2.1c0,.8,.4,1.5,1.1,1.9l.2,.1v2.4h-8.7v8.7h-2.4l-.1,-.2c-.4,-.6,-1.1,-1.1,-1.9,-1.1c-1.2,0,-2.1,1,-2.1,2.2c0,1.2,.9,2.1,2.1,2.1c.8,0,1.5,-.4,1.9,-1l.1,-.2h2.4v8.6H189V133c-.8,-.5,-1.3,-1.4,-1.3,-2.4c0,-1.6,1.3,-2.9,3,-2.9c1.6,0,2.9,1.3,2.9,2.9c0,1,-.5,1.9,-1.3,2.4Z" class="g8_256"/>
<path d="M176.7,142c1,0,1.8,.5,2.2,1.3h1.8v-8.7H172v-1.8c.8,-.4,1.3,-1.2,1.3,-2.2c0,-1.4,-1.1,-2.5,-2.5,-2.5c-1.4,0,-2.6,1.1,-2.6,2.5c0,1,.5,1.8,1.3,2.2v1.8h-8.7v8.7H159c-.4,-.8,-1.2,-1.3,-2.2,-1.3c-1.4,0,-2.5,1.2,-2.5,2.6c0,1.4,1.1,2.5,2.5,2.5c1,0,1.8,-.5,2.2,-1.2h1.8v8.6h8.7v-1.8c-.8,-.4,-1.3,-1.2,-1.3,-2.2c0,-1.4,1.2,-2.5,2.6,-2.5c1.4,0,2.5,1.1,2.5,2.5c0,1,-.5,1.8,-1.3,2.2v1.8h8.7v-8.7h-1.8c-.4,.8,-1.2,1.3,-2.2,1.3c-1.4,0,-2.5,-1.1,-2.5,-2.5c0,-1.4,1.1,-2.6,2.5,-2.6Z" class="ga_256"/>
<path d="M181.1,154.9h-9.5v-2.4l.2,-.1c.7,-.4,1.1,-1.1,1.1,-1.9c0,-1.2,-1,-2.1,-2.1,-2.1c-1.2,0,-2.2,.9,-2.2,2.1c0,.8,.4,1.5,1.1,1.9l.2,.1v2.4h-9.5v-8.6h-1.2c-.5,.7,-1.4,1.2,-2.4,1.2c-1.6,0,-2.9,-1.3,-2.9,-2.9c0,-1.6,1.3,-3,2.9,-3c1,0,1.9,.5,2.4,1.3h1.2v-8.7h8.7V133c-.8,-.5,-1.3,-1.4,-1.3,-2.4c0,-1.6,1.3,-2.9,3,-2.9c1.6,0,2.9,1.3,2.9,2.9c0,1,-.5,1.9,-1.3,2.4v1.2h8.7v9.5h-2.4l-.1,-.2c-.4,-.7,-1.1,-1.1,-1.9,-1.1c-1.2,0,-2.1,1,-2.1,2.2c0,1.1,.9,2.1,2.1,2.1c.8,0,1.5,-.4,1.9,-1.1l.1,-.2h2.4Zm-8.7,-.8h7.9v-7.9h-1.2c-.5,.8,-1.4,1.3,-2.4,1.3c-1.6,0,-2.9,-1.3,-2.9,-2.9c0,-1.6,1.3,-3,2.9,-3c1,0,1.9,.5,2.4,1.3h1.2V135h-8.7v-2.4l.2,-.1c.7,-.4,1.1,-1.1,1.1,-1.9c0,-1.2,-1,-2.1,-2.1,-2.1c-1.2,0,-2.2,.9,-2.2,2.1c0,.8,.4,1.5,1.1,1.9l.2,.1V135h-8.7v8.7h-2.4l-.1,-.2c-.4,-.7,-1.1,-1.1,-1.9,-1.1c-1.2,0,-2.1,1,-2.1,2.2c0,1.2,.9,2.1,2.1,2.1c.8,0,1.5,-.4,1.9,-1l.1,-.2h2.4v8.6h7.9v-1.2c-.8,-.5,-1.3,-1.4,-1.3,-2.4c0,-1.6,1.3,-2.9,3,-2.9c1.6,0,2.9,1.3,2.9,2.9c0,1,-.5,1.9,-1.3,2.4Z" class="g8_256"/>
<path d="M196.6,142c.9,0,1.8,.5,2.2,1.3h1.8v-8.7h-8.7v-1.8c.8,-.4,1.3,-1.2,1.3,-2.2c0,-1.4,-1.1,-2.5,-2.5,-2.5c-1.5,0,-2.6,1.1,-2.6,2.5c0,1,.5,1.8,1.3,2.2v1.8h-8.7v8.7h-1.8c-.4,-.8,-1.2,-1.3,-2.2,-1.3c-1.4,0,-2.5,1.2,-2.5,2.6c0,1.4,1.1,2.5,2.5,2.5c1,0,1.8,-.5,2.2,-1.2h1.8v8.6h8.7v-1.8c-.8,-.4,-1.3,-1.2,-1.3,-2.2c0,-1.4,1.2,-2.5,2.6,-2.5c1.4,0,2.5,1.1,2.5,2.5c0,1,-.5,1.8,-1.3,2.2v1.8h8.7v-8.7h-1.8c-.4,.8,-1.2,1.3,-2.2,1.3c-1.4,0,-2.5,-1.1,-2.5,-2.5c0,-1.4,1.1,-2.6,2.5,-2.6Z" class="gb_256"/>
<path d="M201,154.9h-9.5v-2.4l.2,-.1c.7,-.4,1.1,-1.1,1.1,-1.9c0,-1.2,-1,-2.1,-2.1,-2.1c-1.2,0,-2.2,.9,-2.2,2.1c0,.8,.4,1.5,1.1,1.9l.2,.1v2.4h-9.5v-8.6h-1.2c-.5,.7,-1.4,1.2,-2.4,1.2c-1.6,0,-2.9,-1.3,-2.9,-2.9c0,-1.6,1.3,-3,2.9,-3c1,0,1.9,.5,2.4,1.3h1.2v-8.7H189V133c-.8,-.5,-1.3,-1.4,-1.3,-2.4c0,-1.6,1.3,-2.9,3,-2.9c1.6,0,2.9,1.3,2.9,2.9c0,1,-.5,1.9,-1.3,2.4v1.2H201v9.5h-2.4l-.1,-.2c-.4,-.7,-1.1,-1.1,-1.9,-1.1c-.6,0,-1.1,.3,-1.5,.7c-.4,.4,-.6,.9,-.6,1.5c0,1.1,.9,2.1,2.1,2.1c.8,0,1.5,-.4,1.9,-1.1l.1,-.2H201Zm-8.7,-.8h7.9v-7.9H199c-.5,.8,-1.4,1.3,-2.4,1.3c-1.6,0,-2.9,-1.3,-2.9,-2.9c0,-.8,.3,-1.5,.8,-2.1c.6,-.6,1.3,-.9,2.1,-.9c1,0,1.9,.5,2.4,1.3h1.2V135h-8.7v-2.4l.2,-.1c.7,-.4,1.1,-1.1,1.1,-1.9c0,-1.2,-1,-2.1,-2.1,-2.1c-1.2,0,-2.2,.9,-2.2,2.1c0,.8,.4,1.5,1.1,1.9l.2,.1V135h-8.7v8.7h-2.4l-.1,-.2c-.4,-.7,-1.1,-1.1,-1.9,-1.1c-1.2,0,-2.1,1,-2.1,2.2c0,1.2,.9,2.1,2.1,2.1c.8,0,1.5,-.4,1.9,-1l.1,-.2h2.4v8.6H189v-1.2c-.8,-.5,-1.3,-1.4,-1.3,-2.4c0,-1.6,1.3,-2.9,3,-2.9c1.6,0,2.9,1.3,2.9,2.9c0,1,-.5,1.9,-1.3,2.4Z" class="g8_256"/>
<path d="M32.1,45.1H9.2m958.3,0h22.9M32.1,1331.3H9.2m958.3,0h22.9M45.1,32.1V9.2m0,1335.1v22.9M954.5,32.1V9.2m0,1335.1v22.9" class="gc_256"/>
<path d="M32.1,45.1H9.2m958.3,0h22.9M32.1,1331.3H9.2m958.3,0h22.9M45.1,32.1V9.2m0,1335.1v22.9M954.5,32.1V9.2m0,1335.1v22.9" class="gd_256"/>
<path d="M27.5,32.1H0m972.1,0h27.5M27.5,1344.3H0m972.1,0h27.5M32.1,27.5V0m0,1348.9v27.5M967.5,27.5V0m0,1348.9v27.5" class="gc_256"/>
<path d="M27.5,32.1H0m972.1,0h27.5M27.5,1344.3H0m972.1,0h27.5M32.1,27.5V0m0,1348.9v27.5M967.5,27.5V0m0,1348.9v27.5" class="gd_256"/>
</svg>