<?xml version="1.0" encoding="UTF-8" standalone="no"?>
<!DOCTYPE svg PUBLIC "-//W3C//DTD SVG 1.1//EN"
"http://www.w3.org/Graphics/SVG/1.1/DTD/svg11.dtd">
<svg viewBox="0 0 999 1376" version="1.1" xmlns="http://www.w3.org/2000/svg" xmlns:xlink="http://www.w3.org/1999/xlink">
<defs>
<clipPath id="c0_16"><path d="M133,266.5v-44h44v44Z"/></clipPath>
<clipPath id="c1_16"><path d="M130,555.9v-44h44v44Z"/></clipPath>
<clipPath id="c2_16"><path d="M32.1,1344.3V32.1H967.5V1344.3Z"/></clipPath>
<style type="text/css"><![CDATA[
.g0_16{
fill: #FFFEF5;
}
.g1_16{
fill: #94D6DA;
}
.g2_16{
fill: #F5CE66;
}
.g3_16{
fill: #00B5D6;
}
.g4_16{
fill: #FFF;
}
.g5_16{
fill: #0085B2;
}
.g6_16{
fill: #E9EC9A;
}
.g7_16{
fill: none;
stroke: #888A8D;
stroke-width: 0.33;
}
.g8_16{
fill: none;
stroke: #888A8D;
stroke-width: 0.412;
}
.g9_16{
fill: none;
stroke: #58595B;
stroke-width: 0.152;
stroke-miterlimit: 1;
}
.ga_16{
fill: none;
stroke: #231F20;
stroke-width: 1.527;
}
.gb_16{
fill: none;
stroke: #FFF;
stroke-width: 1.909;
stroke-miterlimit: 10;
}
.gc_16{
fill: none;
stroke: #000;
stroke-width: 0.381;
stroke-miterlimit: 10;
}
]]></style>
</defs>
<path d="M32.1,1344.3H967.5V175H32.1V1344.3Z" class="g0_16"/>
<path d="M954.5,188h13V32.1h-13V188Z" class="g1_16"/>
<path d="M32.1,188H954.5V32.1H32.1V188Z" class="g1_16"/>
<path d="M160.2,235.3c0,0,-8.7,0,-8.7,8.6v17.8c0,0,0,8.7,8.7,8.7h236c0,0,8.6,0,8.6,-8.7V243.9c0,0,0,-8.6,-8.6,-8.6Z" class="g2_16"/>
<image clip-path="url(#c0_16)" preserveAspectRatio="none" x="133" y="223" width="43" height="44" xlink:href="img/1.png"/>
<path d="M152.1,224.3c9.6,0,17.4,7.7,17.4,17.3c0,9.6,-7.8,17.4,-17.4,17.4c-9.6,0,-17.4,-7.8,-17.4,-17.4c0,-9.6,7.8,-17.3,17.4,-17.3Z" class="g3_16"/>
<path d="M165.1,241.6c0,-7.1,-5.8,-12.9,-13,-12.9c-7.1,0,-12.9,5.8,-12.9,12.9c0,7.2,5.8,13,12.9,13c2.7,0,5.3,-.9,7.4,-2.3l4.8,1.3L163,248.7c1.3,-2,2.1,-4.5,2.1,-7.1Z" class="g4_16"/>
<path d="M315.6,366.9c0,0,-10.7,0,-10.7,10.7v4.8c0,0,0,10.7,10.7,10.7H510.8c0,0,10.7,0,10.7,-10.7v-4.8c0,0,0,-10.7,-10.7,-10.7Z" class="g5_16"/>
<path d="M536.5,366.9c0,0,-10.7,0,-10.7,10.7v4.8c0,0,0,10.7,10.7,10.7H857.2c0,0,10.7,0,10.7,-10.7v-4.8c0,0,0,-10.7,-10.7,-10.7Z" class="g5_16"/>
<path d="M308.8,400.7c0,0,-3.7,0,-3.7,3.8v29.9c0,0,0,3.8,3.7,3.8H517.5c0,0,3.8,0,3.8,-3.8V404.5c0,0,0,-3.8,-3.8,-3.8Z" class="g6_16"/>
<path d="M529.7,400.7c0,0,-3.8,0,-3.8,3.8v29.9c0,0,0,3.8,3.8,3.8H864c0,0,3.7,0,3.7,-3.8V404.5c0,0,0,-3.8,-3.7,-3.8Z" class="g4_16"/>
<path d="M529.7,400.7c0,0,-3.8,0,-3.8,3.8v29.9c0,0,0,3.8,3.8,3.8H864c0,0,3.7,0,3.7,-3.8V404.5c0,0,0,-3.8,-3.7,-3.8H529.7Z" class="g7_16"/>
<path d="M194.1,400.7c0,0,-3.7,0,-3.7,3.8v30.4c0,0,0,3.8,3.7,3.8H294.5c0,0,3.7,0,3.7,-3.8V404.5c0,0,0,-3.8,-3.7,-3.8Z" class="g4_16"/>
<path d="M194.1,400.7c0,0,-3.7,0,-3.7,3.8v30.4c0,0,0,3.8,3.7,3.8H294.5c0,0,3.7,0,3.7,-3.8V404.5c0,0,0,-3.8,-3.7,-3.8H194.1Z" class="g8_16"/>
<path d="M308.8,442.1c0,0,-3.7,0,-3.7,3.7v29.9c0,0,0,3.8,3.7,3.8H517.5c0,0,3.8,0,3.8,-3.8V445.8c0,0,0,-3.7,-3.8,-3.7Z" class="g6_16"/>
<path d="M529.5,442.1c0,0,-3.6,0,-3.6,3.7v29.9c0,0,0,3.8,3.6,3.8H864.2c0,0,3.5,0,3.5,-3.8V445.8c0,0,0,-3.7,-3.5,-3.7Z" class="g4_16"/>
<path d="M529.5,442.1c0,0,-3.6,0,-3.6,3.7v29.9c0,0,0,3.8,3.6,3.8H864.2c0,0,3.5,0,3.5,-3.8V445.8c0,0,0,-3.7,-3.5,-3.7H529.5Z" class="g7_16"/>
<path d="M194.1,442.1c0,0,-3.7,0,-3.7,3.7v29c0,0,0,3.8,3.7,3.8H294.5c0,0,3.7,0,3.7,-3.8v-29c0,0,0,-3.7,-3.7,-3.7Z" class="g4_16"/>
<path d="M194.1,442.1c0,0,-3.7,0,-3.7,3.7v29c0,0,0,3.8,3.7,3.8H294.5c0,0,3.7,0,3.7,-3.8v-29c0,0,0,-3.7,-3.7,-3.7H194.1Z" class="g8_16"/>
<path d="M157.1,524.7c0,0,-8.7,0,-8.7,8.7v17.7c0,0,0,8.7,8.7,8.7h236c0,0,8.7,0,8.7,-8.7V533.4c0,0,0,-8.7,-8.7,-8.7Z" class="g2_16"/>
<image clip-path="url(#c1_16)" preserveAspectRatio="none" x="130" y="512" width="43" height="44" xlink:href="img/2.png"/>
<path d="M149.1,513.7c9.5,0,17.3,7.7,17.3,17.3c0,9.6,-7.8,17.4,-17.3,17.4c-9.6,0,-17.4,-7.8,-17.4,-17.4c0,-9.6,7.8,-17.3,17.4,-17.3Z" class="g3_16"/>
<path d="M162,531c0,-7.1,-5.8,-12.9,-12.9,-12.9c-7.2,0,-13,5.8,-13,12.9c0,7.2,5.8,13,13,13c2.7,0,5.2,-.8,7.3,-2.3l4.8,1.3l-1.3,-4.9c1.3,-2,2.1,-4.5,2.1,-7.1Z" class="g4_16"/>
<path d="M330.1,785.8c0,0,-3.7,0,-3.7,3.7v29.9c0,0,0,3.8,3.7,3.8H538.8c0,0,3.8,0,3.8,-3.8V789.5c0,0,0,-3.7,-3.8,-3.7Z" class="g6_16"/>
<path d="M215.4,785.8c0,0,-3.8,0,-3.8,3.7v30.4c0,0,0,3.8,3.8,3.8H315.8c0,0,3.7,0,3.7,-3.8V789.5c0,0,0,-3.7,-3.7,-3.7Z" class="g4_16"/>
<path d="M215.4,785.8c0,0,-3.8,0,-3.8,3.7v30.4c0,0,0,3.8,3.8,3.8H315.8c0,0,3.7,0,3.7,-3.8V789.5c0,0,0,-3.7,-3.7,-3.7H215.4Z" class="g8_16"/>
<path d="M330.1,827.1c0,0,-3.7,0,-3.7,3.7v30c0,0,0,3.7,3.7,3.7H538.8c0,0,3.8,0,3.8,-3.7v-30c0,0,0,-3.7,-3.8,-3.7Z" class="g6_16"/>
<path d="M215.4,827.1c0,0,-3.8,0,-3.8,3.7v29c0,0,0,3.8,3.8,3.8H315.8c0,0,3.7,0,3.7,-3.8v-29c0,0,0,-3.7,-3.7,-3.7Z" class="g4_16"/>
<path d="M215.4,827.1c0,0,-3.8,0,-3.8,3.7v29c0,0,0,3.8,3.8,3.8H315.8c0,0,3.7,0,3.7,-3.8v-29c0,0,0,-3.7,-3.7,-3.7H215.4Z" class="g8_16"/>
<path d="M330.1,982.4c0,0,-3.7,0,-3.7,3.7v30c0,0,0,3.7,3.7,3.7H538.8c0,0,3.8,0,3.8,-3.7v-30c0,0,0,-3.7,-3.8,-3.7Z" class="g6_16"/>
<path d="M215.4,982.4c0,0,-3.8,0,-3.8,3.7v29c0,0,0,3.8,3.8,3.8H315.8c0,0,3.7,0,3.7,-3.8v-29c0,0,0,-3.7,-3.7,-3.7Z" class="g4_16"/>
<path d="M215.4,982.4c0,0,-3.8,0,-3.8,3.7v29c0,0,0,3.8,3.8,3.8H315.8c0,0,3.7,0,3.7,-3.8v-29c0,0,0,-3.7,-3.7,-3.7H215.4Z" class="g8_16"/>
<path d="M150.4,145l-1.1,-1.1H137.9L139,145h7.9v.9c-2.4,.9,-4.8,2.1,-7.1,3.8l1.5,2.2c1.7,.2,3,.7,4,1.7c.3,.3,.6,.6,.9,1c.3,.4,.5,.8,.7,1.1c.2,.4,.3,.6,.4,.7c0,.2,.1,.3,.1,.4l.7,.8V145h2.3Zm-3.5,9.5c-1,-1.9,-2.6,-3.2,-4.6,-4.1c.8,-.6,1.6,-1.1,2.4,-1.5c.7,-.4,1.5,-.7,2.2,-1v6.6Zm7.7,-9.5l-1.2,-1.1h-1c-.4,-.4,-.6,-1,-.7,-1.9l-.4,-.4c0,.3,0,.6,0,.9c0,.4,0,.8,0,1.3c.1,.4,.1,.9,.1,1.2c0,.4,0,.7,0,.9c-.2,-.7,-.5,-1.2,-.9,-1.6c-.4,-.3,-.9,-.4,-1.6,-.4h-1.4l1.2,1.1c.3,0,.7,.1,1,.2c.3,.1,.6,.3,.8,.5c.2,.2,.4,.5,.6,.8c.1,.3,.2,.6,.2,1v8.9l1.1,1.2V145h2.2Zm4.8,0c-.4,-.6,-1.1,-.9,-1.8,-.9c-.7,0,-1.3,.3,-1.8,.9c-.3,.3,-.5,.6,-.6,.9c-.1,.3,-.2,.7,-.2,1c0,.8,.3,1.5,.8,2c.5,.6,1.2,.8,1.9,.8c.7,0,1.3,-.2,1.8,-.8c.5,-.5,.7,-1.2,.7,-1.9c0,-.8,-.2,-1.4,-.8,-2Zm-1,2.9c-.4,.5,-.9,.7,-1.5,.7c-.5,0,-.7,-.3,-.7,-.9c0,-.3,.1,-.6,.2,-.9c.1,-.3,.2,-.5,.4,-.7c.4,-.5,.9,-.8,1.5,-.8c.5,0,.8,.4,.8,1.1c0,.5,-.2,1.1,-.7,1.5Zm2.7,8.8c-.7,-1,-1.6,-2.1,-2.8,-3.4c-1.1,-1.2,-2.1,-2.2,-3,-2.9v2.7c.4,.2,.9,.5,1.4,.9c.5,.3,1,.7,1.5,1.1c.5,.4,1,.8,1.5,1.2c.5,.5,1,.9,1.4,1.4v-1ZM174,145l-1.2,-1.1H160l1.2,1.1h9.5v3.3c-.5,-1.3,-1.2,-1.9,-2.2,-1.9c-.3,0,-.6,.1,-.9,.4c-.4,.4,-.5,.7,-.5,1.1c-.8,-1.1,-1.7,-1.6,-2.7,-1.6c-.8,0,-1.4,.4,-1.9,1.1c-.4,.7,-.7,1.5,-.7,2.3c0,.5,.1,1,.3,1.4c.1,.5,.4,.8,.7,1.1c.3,.3,.6,.5,1,.7c.5,.2,.9,.3,1.4,.3c.6,-.1,1.1,-.3,1.4,-.6c.3,-.3,.5,-.7,.5,-1.1c0,-1.1,-.5,-1.7,-1.6,-1.8c-.3,0,-.6,.1,-.9,.4c-.3,.3,-.4,.6,-.4,.9c0,.3,.1,.6,.4,1c-1.1,-.1,-1.7,-.7,-1.7,-1.7c0,-.3,0,-.6,.2,-.9c.1,-.2,.2,-.5,.4,-.7c.2,-.2,.5,-.3,.7,-.5c.3,-.1,.6,-.1,.9,-.1c.6,0,1.2,.2,1.7,.6c.5,.4,.8,.9,.9,1.6l.5,-.2c0,-.3,-.1,-.6,-.1,-.8c0,-.8,.4,-1.2,1,-1.2c.4,0,.8,.1,1.1,.5c.3,.3,.4,.7,.4,1.1v6.8l1.2,1.2V145H174Zm4.3,0l-1.2,-1.1h-1c-.3,-.4,-.6,-1,-.7,-1.9l-.4,-.4c0,.3,0,.6,0,.9c0,.4,0,.8,.1,1.3c0,.4,0,.9,0,1.2c0,.4,.1,.7,.1,.9c-.3,-.7,-.6,-1.2,-1,-1.6c-.4,-.3,-.9,-.4,-1.6,-.4h-1.3l1.1,1.1c.3,0,.7,.1,1,.2c.3,.1,.6,.3,.8,.5c.3,.2,.4,.5,.6,.8c.1,.3,.2,.6,.2,1v8.9l1.1,1.2V145h2.2Zm20,0l-1.2,-1.1H184.2l1.2,1.1h12.9Zm-1.6,3c-.3,-.5,-.6,-.9,-.9,-1.2c-.3,-.3,-.5,-.4,-.8,-.4c-.2,.3,-.4,.6,-.5,.8c-.2,.3,-.4,.6,-.7,.9c-.5,.6,-1.1,.9,-1.6,.9c.3,-.5,.5,-.9,.5,-1.3c0,-.4,-.2,-.7,-.5,-1c-.3,-.3,-.6,-.4,-1,-.4c-1.3,0,-1.9,.6,-1.9,1.9c0,.7,.3,1.4,.8,1.8c.5,.5,1.2,.7,1.9,.7c1.4,0,2.7,-.7,3.7,-2c.4,0,.6,.6,.6,1.8c0,.9,-.3,1.7,-1,2.3c-.6,.6,-1.3,.9,-2.2,.9c-.8,0,-1.6,-.2,-2.4,-.6c-.7,-.4,-1.4,-1,-2,-1.8c-.4,-.6,-.8,-1.3,-1.3,-2.1c-.4,-.9,-.7,-1.8,-1,-2.7l-.7,-.2c.5,1.4,.9,2.6,1.3,3.6c.4,1.1,.7,1.8,1,2.4c1.4,2.3,3,3.4,4.9,3.4c1.3,0,2.5,-.5,3.3,-1.6c.4,-.5,.7,-1,.9,-1.6c.2,-.6,.3,-1.3,.3,-2c0,-.8,-.2,-1.6,-.7,-2.5Zm6.2,-3l-1.2,-1.1h-1c-.3,-.4,-.6,-1,-.7,-1.9l-.4,-.4c0,.3,0,.6,0,.9c0,.4,0,.8,.1,1.3c0,.4,0,.9,0,1.2c.1,.4,.1,.7,.1,.9c-.3,-.7,-.6,-1.2,-1,-1.6c-.4,-.3,-.9,-.4,-1.6,-.4h-1.3L197,145c.4,0,.7,.1,1,.2c.3,.1,.6,.3,.8,.5c.3,.2,.4,.5,.6,.8c.1,.3,.2,.6,.2,1v8.9l1.1,1.2V145h2.2Zm10.4,0l-1.2,-1.1H201.4c.5,.6,.9,1.1,1.3,1.4c.4,.4,.7,.6,.9,.7c.3,.1,.5,.2,.8,.3c.3,.1,.5,.1,.7,.1c.7,.2,1.3,.5,1.8,.9l-3.4,3c.2,.3,.5,.7,.8,1c.2,.4,.5,.8,.8,1.1c.6,0,1.2,.1,1.7,.3c.6,.1,1,.3,1.3,.5c.3,.2,.5,.5,.9,.9c.3,.4,.6,1,1.1,1.6c.2,.3,.4,.6,.6,.9c.2,.3,.5,.6,.8,.9V145h1.8Zm-3,4.1c-1.3,-1.3,-2.9,-2.7,-4.8,-4.1h4.8v4.1Zm0,5.4c-1.2,-1.8,-2.7,-3,-4.3,-3.7c.5,-.5,.9,-1,1.3,-1.4c.4,-.4,.7,-.6,1,-.8c.3,.2,.6,.4,.9,.7c.3,.3,.7,.6,1.1,1v4.2Zm7.6,-9.5l-1.2,-1.1h-1c-.4,-.4,-.6,-1,-.7,-1.9l-.4,-.4c0,.3,0,.6,0,.9c0,.4,0,.8,0,1.3c.1,.4,.1,.9,.1,1.2c0,.4,0,.7,0,.9c-.2,-.7,-.5,-1.2,-.9,-1.6c-.4,-.3,-.9,-.4,-1.6,-.4h-1.4L212,145c.3,0,.7,.1,1,.2c.3,.1,.6,.3,.8,.5c.2,.2,.4,.5,.6,.8c.1,.3,.2,.6,.2,1v8.9l1.1,1.2V145h2.2Zm17.9,5.1c.6,-.7,.9,-1.7,.9,-3.1c0,-.4,0,-.8,-.2,-1.1c-.1,-.3,-.4,-.6,-.6,-.8c-.3,-.2,-.6,-.4,-1,-.5c-.3,-.2,-.7,-.2,-1.1,-.2c-1.1,0,-2.2,.3,-3.2,1c-.6,.4,-1,.8,-1.3,1.3c-.3,.4,-.4,.9,-.4,1.5c0,1.2,.5,1.8,1.6,1.8c.8,0,1.2,-.5,1.2,-1.4c0,-.4,-.2,-.8,-.7,-1.1c.3,-.6,.8,-1.1,1.5,-1.4c.3,-.2,.6,-.3,.9,-.4c.4,-.1,.7,-.1,1,-.1c1,0,1.5,.5,1.5,1.4c0,.8,-.3,1.3,-.8,1.6c-.4,-.2,-.7,-.3,-1,-.3c-.4,0,-.8,.1,-1,.5c-.3,.3,-.4,.6,-.4,1.1c0,.4,.1,.7,.4,1c.3,.3,.6,.4,1,.4c.5,0,.8,-.2,1.1,-.5c.5,.4,.8,.8,.8,1.2c0,.4,-.1,.7,-.2,1c-.2,.2,-.4,.5,-.6,.7c-.3,.2,-.6,.3,-.9,.4c-.3,.1,-.6,.2,-1,.2c-.8,0,-1.6,-.3,-2.4,-.8c-.7,-.5,-1.4,-1.3,-2.1,-2.3c-.3,-.5,-.6,-1.2,-1.1,-2.1c-.4,-.9,-.8,-2,-1.1,-3.2l-.9,-.4c1.9,7.1,4.4,10.7,7.7,10.7c1,0,1.9,-.3,2.5,-1c.7,-.6,1,-1.4,1,-2.5c0,-.8,-.4,-1.6,-1.1,-2.6Zm15.4,-6.2c-.5,0,-1,.1,-1.5,.4c-.4,.2,-.9,.5,-1.2,.8c-.8,.8,-1.4,1.7,-1.8,2.7c-.4,1,-.6,2.1,-.7,3.3c0,1.5,.4,2.9,1,4c.7,1.4,1.7,2.1,3.1,2.1c.2,0,.5,-.1,.8,-.2c.2,-.1,.4,-.2,.6,-.4c.2,-.2,.4,-.4,.5,-.6c.1,-.2,.2,-.5,.2,-.8c0,-.5,-.2,-.9,-.4,-1.2c-.3,-.3,-.7,-.5,-1,-.5c-.2,0,-.4,0,-.6,.1c-.1,.1,-.3,.2,-.4,.3c-.2,.1,-.3,.2,-.4,.4c0,.2,-.1,.3,-.1,.5c0,.3,.1,.5,.2,.7c.1,.3,.3,.5,.6,.6c-.1,.1,-.2,.1,-.3,.1h-.1c-.7,0,-1.3,-.4,-1.8,-1.4c-.5,-.7,-.7,-1.4,-.7,-2.3c0,-.9,.1,-1.8,.3,-2.6c.2,-.8,.6,-1.5,1,-2.1c.4,-.7,.9,-1.3,1.6,-1.7c.6,-.5,1.4,-.8,2.2,-1.1l-1.1,-1.1Zm15.1,1.1l-1.2,-1.1H250.4l1.2,1.1h7.5v1.1c-2.5,.8,-4.7,2,-6.7,3.6l1.6,2.1c1.3,.2,2.5,.8,3.6,1.9c.4,.5,.8,1,1.2,1.6c.4,.6,.7,1.3,1,2c0,0,.1,.1,.2,.1q.1,.1,.2,.1v-10c1.2,0,2.1,.4,2.7,1.1c.7,.6,1,1.4,1,2.2l-.1,.3c-.2,-.2,-.4,-.4,-.5,-.5c-.2,-.1,-.4,-.2,-.7,-.2c-.4,0,-.7,.2,-1,.4c-.2,.3,-.3,.6,-.3,1c0,.2,0,.4,.1,.6c.1,.2,.2,.3,.3,.4c.2,.2,.3,.3,.5,.3c.2,.1,.4,.2,.6,.2c.3,0,.5,-.1,.8,-.2c.2,-.1,.4,-.3,.6,-.5c.1,-.2,.3,-.5,.4,-.7c0,-.3,.1,-.6,.1,-.9c0,-1.2,-.4,-2.3,-1.2,-3.4c-.8,-1.1,-1.9,-1.7,-3.3,-1.7V145h6.1Zm-7.2,9.2H259c-.9,-1.8,-2.3,-3.2,-4.3,-4c.8,-.6,1.6,-1.1,2.3,-1.5c.7,-.4,1.4,-.7,2.1,-1v6.5ZM270.8,145l-1.2,-1.1h-1c-.3,-.4,-.6,-1,-.7,-1.9l-.4,-.4c0,.3,0,.6,0,.9c0,.4,0,.8,0,1.3c.1,.4,.1,.9,.1,1.2c0,.4,0,.7,0,.9c-.2,-.7,-.5,-1.2,-.9,-1.6c-.4,-.3,-.9,-.4,-1.6,-.4h-1.4l1.2,1.1c.3,0,.7,.1,1,.2c.3,.1,.6,.3,.8,.5c.2,.2,.4,.5,.6,.8c.1,.3,.2,.6,.2,1v8.9l1.1,1.2V145h2.2Zm11.5,-3.2c-2.3,-2.4,-4.6,-3.6,-7.1,-3.6c-.9,0,-1.9,.4,-2.9,1.2c-1.1,.8,-1.6,1.7,-1.6,2.7c0,.3,.1,.6,.5,1l.8,.8h-3.1L270,145h1.8v11.4l1.2,1.2V145h2l-1.2,-1.1h-1.3l-.4,-1.2c0,-.8,.6,-1.6,1.6,-2.3c.9,-.6,1.8,-.9,2.7,-.9c.6,0,1.1,.1,1.7,.2c.5,.1,1.1,.4,1.6,.7c.6,.3,1.1,.6,1.6,1c.4,.3,.8,.6,1.2,1l-.2,-.6Zm3.6,3.2l-1.2,-1.1H273.3l1.1,1.1h8v.9c-2.5,.9,-4.9,2.1,-7.2,3.8l1.6,2.2h-.1c1.7,.2,3,.7,4,1.7c.3,.3,.6,.6,.9,1c.3,.4,.5,.7,.7,1c.1,.3,.3,.7,.5,1.3v-.1l.7,.8V145h2.4Zm-3.5,9.5c-1.1,-1.9,-2.6,-3.2,-4.7,-4.1c.8,-.6,1.6,-1.1,2.4,-1.5c.7,-.4,1.5,-.7,2.3,-1v6.6Zm-4.6,1.7c.2,.2,.5,.4,.8,.4c.4,0,.7,-.2,.9,-.4c.2,-.3,.3,-.6,.3,-.9c0,-.3,-.1,-.6,-.3,-.9c-.2,-.2,-.5,-.3,-.9,-.3c-.3,0,-.6,.1,-.8,.3c-.2,.3,-.4,.6,-.4,.9c0,.3,.2,.6,.4,.9ZM296.2,145L295,143.9H284.2c.6,.9,1.7,1.6,3.2,2.1c.7,.3,1.2,.5,1.6,.7c.4,.2,.7,.4,.8,.5c-.5,.4,-1,.9,-1.6,1.4c-.6,.6,-1.2,1.2,-1.9,1.8l1.6,2.1c1.4,0,2.6,.4,3.4,1.1c.6,.5,1.1,1.3,1.7,2.3c.6,1,1,1.6,1.3,1.9V145h1.9Zm-3,9.6h-.1c-1,-1.8,-2.4,-3,-4.3,-3.7c.4,-.5,.9,-1,1.4,-1.5c.5,-.5,.9,-1,1.4,-1.4c-.6,-.8,-1.1,-1.4,-1.6,-1.9c-.5,-.5,-.9,-.8,-1.3,-1.1h4.5v9.6Zm-4.5,1.9c.2,.3,.5,.4,.8,.4c.3,0,.6,-.1,.8,-.4c.3,-.2,.4,-.5,.4,-.8c0,-.4,-.1,-.7,-.4,-.9c-.2,-.3,-.5,-.4,-.8,-.4c-.3,0,-.6,.1,-.8,.4c-.3,.2,-.4,.5,-.4,.9c0,.3,.1,.6,.4,.8ZM300.8,145l-1.2,-1.1h-1c-.3,-.4,-.6,-1,-.7,-1.9l-.4,-.4c0,.3,0,.6,0,.9c0,.4,0,.8,0,1.3c.1,.4,.1,.9,.1,1.2c0,.4,0,.7,0,.9c-.2,-.7,-.5,-1.2,-.9,-1.6c-.4,-.3,-.9,-.4,-1.6,-.4h-1.4l1.2,1.1c.3,0,.7,.1,1,.2c.3,.1,.6,.3,.8,.5c.2,.2,.4,.5,.6,.8c.1,.3,.2,.6,.2,1v8.9l1.1,1.2V145h2.2Zm10.8,0l-1.2,-1.1H299.1l1.1,1.1h8.2v6.7h-.1c-1.2,-2.7,-2.6,-4,-4.3,-4c-.7,0,-1.4,.3,-2,.8c-.6,.5,-.8,1.2,-.8,2c0,1.5,.7,2.3,2.2,2.3c.5,0,.9,-.2,1.2,-.6c.3,-.3,.4,-.7,.4,-1.3c0,-.3,-.2,-.8,-.8,-1.5c.1,0,.2,-.1,.4,-.1c1.2,0,2.3,.9,3.2,2.5c.6,1.5,.9,2.9,.9,4.3l-.1,1.2l1,.6V145h2Zm20.2,0l-1.2,-1.1h-13l1.2,1.1h13Zm-1.6,3c-.3,-.5,-.6,-.9,-.9,-1.2c-.3,-.3,-.6,-.4,-.8,-.4c-.2,.3,-.4,.6,-.6,.8c-.1,.3,-.4,.6,-.6,.9c-.6,.6,-1.1,.9,-1.7,.9c.4,-.5,.6,-.9,.6,-1.3c0,-.4,-.2,-.7,-.5,-1c-.3,-.3,-.6,-.4,-1,-.4c-1.3,0,-2,.6,-2,1.9c0,.7,.3,1.4,.9,1.8c.5,.5,1.1,.7,1.8,.7c1.5,0,2.7,-.7,3.8,-2c.4,0,.5,.6,.5,1.8c0,.9,-.3,1.7,-.9,2.3c-.6,.6,-1.4,.9,-2.2,.9c-.9,0,-1.7,-.2,-2.4,-.6c-.8,-.4,-1.4,-1,-2.1,-1.8c-.4,-.6,-.8,-1.3,-1.2,-2.1c-.4,-.9,-.7,-1.8,-1,-2.7l-.7,-.2c.4,1.4,.9,2.6,1.2,3.6c.4,1.1,.8,1.8,1.1,2.4c1.3,2.3,2.9,3.4,4.8,3.4c1.4,0,2.5,-.5,3.4,-1.6c.4,-.5,.7,-1,.9,-1.6c.2,-.6,.3,-1.3,.3,-2c0,-.8,-.3,-1.6,-.7,-2.5Zm6.2,-3l-1.2,-1.1h-1c-.4,-.4,-.6,-1,-.7,-1.9l-.5,-.4c0,.3,0,.6,.1,.9c0,.4,0,.8,0,1.3c.1,.4,.1,.9,.1,1.2c0,.4,0,.7,0,.9c-.2,-.7,-.5,-1.2,-.9,-1.6c-.4,-.3,-.9,-.4,-1.6,-.4h-1.4l1.2,1.1c.3,0,.6,.1,.9,.2c.4,.1,.6,.3,.9,.5c.2,.2,.4,.5,.5,.8c.2,.3,.3,.6,.3,1v8.9l1.1,1.2V145h2.2Zm10.3,0l-1.2,-1.1H334.8c.5,.6,1,1.1,1.4,1.4c.3,.4,.6,.6,.9,.7c.2,.1,.5,.2,.8,.3c.2,.1,.4,.1,.6,.1c.8,.2,1.4,.5,1.8,.9l-3.4,3c.3,.3,.5,.7,.8,1c.3,.4,.6,.8,.8,1.1c.7,0,1.3,.1,1.8,.3c.5,.1,1,.3,1.3,.5c.2,.2,.5,.5,.8,.9c.3,.4,.7,1,1.1,1.6c.2,.3,.4,.6,.7,.9c.2,.3,.4,.6,.7,.9V145h1.8Zm-2.9,4.1c-1.3,-1.3,-2.9,-2.7,-4.8,-4.1h4.8v4.1Zm0,5.4c-1.3,-1.8,-2.7,-3,-4.4,-3.7c.5,-.5,1,-1,1.4,-1.4c.4,-.4,.7,-.6,1,-.8c.3,.2,.6,.4,.9,.7c.3,.3,.7,.6,1.1,1v4.2Zm7.5,-9.5l-1.1,-1.1h-1c-.4,-.4,-.6,-1,-.8,-1.9l-.4,-.4c0,.3,0,.6,0,.9c.1,.4,.1,.8,.1,1.3c0,.4,.1,.9,.1,1.2c0,.4,0,.7,0,.9c-.2,-.7,-.5,-1.2,-.9,-1.6c-.4,-.3,-1,-.4,-1.7,-.4h-1.3l1.2,1.1c.3,0,.6,.1,.9,.2c.3,.1,.6,.3,.9,.5c.2,.2,.4,.5,.5,.8c.2,.3,.2,.6,.2,1v8.9l1.2,1.2V145h2.1Zm10.8,0L361,143.9H349.5l1.2,1.1h7.9v.9c-2.4,.9,-4.8,2.1,-7.1,3.8l1.5,2.2c1.6,.2,3,.7,4,1.7c.2,.3,.5,.6,.9,1c.3,.4,.5,.7,.6,1c.2,.3,.4,.7,.6,1.3v-.1l.6,.8V145h2.4Zm-3.5,9.5c-1,-1.9,-2.6,-3.2,-4.7,-4.1c.9,-.6,1.7,-1.1,2.4,-1.5c.8,-.4,1.6,-.7,2.3,-1v6.6Zm-4.5,1.7c.2,.2,.5,.4,.8,.4c.3,0,.6,-.2,.9,-.4c.2,-.3,.3,-.6,.3,-.9c0,-.3,-.1,-.6,-.3,-.9c-.3,-.2,-.6,-.3,-.9,-.3c-.3,0,-.6,.1,-.8,.3c-.3,.3,-.4,.6,-.4,.9c0,.3,.1,.6,.4,.9Zm27.7,-12.3H367.9l1.2,1.1H383l-1.2,-1.1Zm-.6,5.5c-.2,-.6,-.5,-1.1,-.9,-1.6c-.4,-.5,-.9,-.9,-1.5,-1.2c-.5,-.3,-1.1,-.4,-1.7,-.4c-.8,0,-1.4,.2,-1.9,.7c-.6,.5,-.9,1.1,-.9,1.8c0,.7,.2,1.2,.5,1.7c.4,.4,.9,.7,1.5,.7c1.2,0,1.8,-.6,1.8,-1.8c0,-.5,-.1,-.9,-.5,-1.4c.4,-.1,.7,-.1,.9,-.1c.6,0,1.1,.3,1.5,.9c.4,.5,.5,1.1,.5,1.8c0,.8,-.3,1.6,-.9,2.2c-.8,.7,-1.6,1,-2.5,1c-1.6,0,-3.1,-.9,-4.3,-2.7c-.3,-.4,-.6,-1,-1,-1.9c-.4,-.8,-.9,-1.8,-1.3,-3l-.7,-.3c1.7,6.6,4.2,9.8,7.3,9.8c1.1,0,2.2,-.4,3.1,-1.2c.4,-.4,.7,-.9,1,-1.4c.2,-.5,.3,-1.1,.3,-1.6c0,-.7,-.1,-1.4,-.3,-2Zm.5,11.3c-.1,-.2,-.2,-.3,-.3,-.5c-.1,-.2,-.3,-.4,-.5,-.7c-.3,-.3,-.6,-.6,-.9,-1c-.4,-.3,-.7,-.6,-1,-.9c0,-.3,0,-.7,0,-1.2c0,-.4,-.1,-.8,-.2,-1.2l-1,-.6c.1,.5,.1,1,.2,1.4c0,.4,-.1,.8,-.1,1c-.7,-.4,-1.3,-.7,-1.8,-.7c-.2,0,-.5,.1,-.8,.2c-.2,.1,-.4,.2,-.6,.4c-.2,.1,-.4,.4,-.5,.6c-.1,.2,-.2,.5,-.2,.8c0,.5,.3,1,.7,1.3c.5,.3,1,.5,1.6,.5c.9,-.1,1.7,-.5,2.3,-1.4c.3,.1,.5,.3,.8,.5c.3,.2,.5,.5,.8,.7c.3,.3,.5,.6,.8,.9c.2,.3,.5,.6,.7,.8v-.9Zm-4.7,-3c.2,0,.3,.1,.5,.3c-.2,.2,-.4,.5,-.7,.7c-.3,.1,-.7,.2,-1,.2c-.4,-.1,-.6,-.3,-.6,-.7c0,-.5,.4,-.7,1.2,-.7c.2,0,.4,.1,.6,.2ZM395.3,145l-1.2,-1.1H381.3l1.2,1.1H392v3.3c-.5,-1.3,-1.2,-1.9,-2.2,-1.9c-.3,0,-.6,.1,-.9,.4c-.4,.4,-.5,.7,-.5,1.1c-.8,-1.1,-1.7,-1.6,-2.7,-1.6c-.8,0,-1.4,.4,-1.9,1.1c-.4,.7,-.7,1.5,-.7,2.3c0,.5,.1,1,.3,1.4c.2,.5,.4,.8,.7,1.1c.3,.3,.6,.5,1.1,.7c.4,.2,.8,.3,1.3,.3c.6,-.1,1.1,-.3,1.4,-.6c.3,-.3,.5,-.7,.5,-1.1c0,-1.1,-.5,-1.7,-1.6,-1.8c-.3,0,-.6,.1,-.9,.4c-.3,.3,-.4,.6,-.4,.9c0,.3,.1,.6,.4,1c-1.1,-.1,-1.7,-.7,-1.7,-1.7c0,-.3,.1,-.6,.2,-.9c.1,-.2,.3,-.5,.5,-.7c.2,-.2,.4,-.3,.6,-.5c.3,-.1,.6,-.1,.9,-.1c.6,0,1.2,.2,1.7,.6c.5,.4,.8,.9,1,1.6l.4,-.2c0,-.3,-.1,-.6,-.1,-.8c0,-.8,.4,-1.2,1,-1.2c.4,0,.8,.1,1.1,.5c.3,.3,.4,.7,.4,1.1v6.8l1.2,1.2V145h2.2Zm10.8,0l-1.2,-1.1H393.6l1.1,1.1h8.2v6.7c-1.3,-2.7,-2.7,-4,-4.3,-4c-.8,0,-1.5,.3,-2.1,.8c-.5,.5,-.8,1.2,-.8,2c0,1.5,.7,2.3,2.2,2.3c.5,0,.9,-.2,1.2,-.6c.3,-.3,.4,-.7,.4,-1.3c0,-.3,-.2,-.8,-.7,-1.5c0,0,.1,-.1,.3,-.1c1.2,0,2.3,.9,3.2,2.5c.7,1.5,1,2.9,.9,4.3v1.2l.9,.6V145h2Zm4.5,0l-1.2,-1.1h-1c-.4,-.4,-.6,-1,-.7,-1.9l-.5,-.4c0,.3,.1,.6,.1,.9c0,.4,0,.8,0,1.3c.1,.4,.1,.9,.1,1.2c0,.4,0,.7,0,.9c-.2,-.7,-.5,-1.2,-.9,-1.6c-.4,-.3,-.9,-.4,-1.6,-.4h-1.4l1.2,1.1c.3,0,.7,.1,1,.2c.3,.1,.5,.3,.8,.5c.2,.2,.4,.5,.6,.8c.1,.3,.2,.6,.2,1v8.9l1.1,1.2V145h2.2Zm10.3,-1.1c-.2,0,-.3,0,-.4,0c-.7,0,-1,-.4,-1,-1.3c0,-.1,0,-.2,0,-.4l-.6,-.6c0,.4,0,.9,0,1.5c0,.5,0,1.2,.1,1.9l.2,3.4c-.6,-1.5,-1.1,-2.6,-1.6,-3.2C417,144.4,416,144,414.8,144c-.5,0,-1,.1,-1.5,.2c-.4,.1,-.8,.3,-1.2,.6c-.9,.7,-1.4,1.5,-1.4,2.5c0,.4,.2,.7,.4,1.1c.3,.4,.6,.6,.9,.6c.2,0,.3,-.1,.5,-.2c.2,-.1,.5,-.2,.8,-.3c.5,-.4,.9,-.6,1.1,-.6c.4,0,.7,.2,.7,.6c0,.1,-.1,.3,-.3,.6c-.2,.3,-.5,.6,-.8,1c-.3,.3,-.5,.6,-.8,.8c-.2,.3,-.4,.5,-.6,.6l1.3,1.6c.8,-.9,1.4,-1.6,1.8,-2.3c.4,-.7,.6,-1.3,.6,-1.7c0,-.4,0,-.7,-.2,-.9c-.1,-.3,-.3,-.5,-.5,-.7c-.2,-.2,-.4,-.3,-.7,-.4c-.3,-.1,-.6,-.2,-1,-.2c-.4,0,-.9,.2,-1.5,.4c.5,-1.2,1.5,-1.9,2.8,-1.9c.9,0,1.7,.5,2.5,1.5c.3,.5,.5,1,.7,1.5c.2,.5,.3,.9,.3,1.4c0,.5,0,1,0,1.6c-.1,1.1,-.1,2.7,-.1,4.8l1.3,1.7V145H422l-1.1,-1.1Zm13.3,0H420.3l1.2,1.1h13.9l-1.2,-1.1Zm-.6,5.5c-.2,-.6,-.5,-1.1,-.9,-1.6c-.4,-.5,-.9,-.9,-1.4,-1.2c-.6,-.3,-1.2,-.4,-1.8,-.4c-.8,0,-1.4,.2,-1.9,.7c-.6,.5,-.9,1.1,-.9,1.8c0,.7,.2,1.2,.5,1.7c.4,.4,.9,.7,1.5,.7c1.2,0,1.8,-.6,1.8,-1.8c0,-.5,-.1,-.9,-.5,-1.4c.4,-.1,.7,-.1,.9,-.1c.6,0,1.1,.3,1.5,.9c.4,.5,.6,1.1,.6,1.8c0,.8,-.4,1.6,-1,2.2c-.8,.7,-1.6,1,-2.4,1c-1.7,0,-3.2,-.9,-4.4,-2.7c-.2,-.4,-.6,-1,-1,-1.9c-.4,-.8,-.8,-1.8,-1.3,-3l-.7,-.3c1.7,6.6,4.2,9.8,7.3,9.8c1.1,0,2.2,-.4,3.1,-1.2c.4,-.4,.7,-.9,1,-1.4c.2,-.5,.3,-1.1,.3,-1.6c0,-.7,-.1,-1.4,-.3,-2ZM449.7,145l-1.1,-1.1h-1c0,-.8,-.1,-1.4,-.3,-1.9c-.2,-.5,-.5,-.9,-.9,-1.1c-.3,-.2,-1.1,-.3,-2.4,-.5c-.9,0,-1.4,-.4,-1.4,-1.1l.3,-.5l-.4,-.4c-.3,.4,-.4,.8,-.4,1.2c0,.4,.1,.8,.3,1.2c.1,.3,.4,.6,.8,.7c.3,.2,.7,.3,1.1,.4c.3,.1,.7,.2,1,.3c.4,.1,.7,.2,.9,.4c.2,.2,.3,.5,.3,.7c0,.1,-.1,.3,-.1,.4c-.1,.2,-.2,.3,-.3,.5c-.1,.1,-.2,.3,-.3,.5c-.2,.1,-.3,.3,-.4,.4c-.8,.9,-1.4,1.9,-1.8,3c-.4,1,-.6,2,-.6,3c0,1.6,.3,2.9,.9,4c.4,.7,.9,1.2,1.3,1.6c.5,.3,1.1,.5,1.8,.5c.3,0,.5,-.1,.8,-.2c.3,-.1,.5,-.2,.7,-.4c.2,-.2,.3,-.4,.4,-.6c.1,-.2,.2,-.5,.2,-.8c0,-.5,-.1,-.9,-.4,-1.2c-.3,-.3,-.6,-.5,-1,-.5c-.2,0,-.4,0,-.5,.1c-.2,.1,-.4,.2,-.5,.3c-.2,.1,-.3,.2,-.3,.4c-.1,.2,-.2,.3,-.2,.5c0,.5,.3,1,.8,1.3q-.1,.1,-.3,.1h-.1c-.6,0,-1.2,-.5,-1.8,-1.4c-.4,-.7,-.7,-1.4,-.7,-2.3c0,-1.9,.5,-3.5,1.3,-4.7c.4,-.7,1,-1.3,1.6,-1.7c.7,-.5,1.4,-.8,2.3,-1.1h.4Zm10.3,0l-1.1,-1.1H447.5l1.1,1.1h7.9v.9c-2.4,.9,-4.8,2.1,-7.1,3.8l1.5,2.2c1.7,.2,3,.7,4,1.7c.3,.3,.6,.6,.9,1c.3,.4,.5,.8,.7,1.1c.2,.4,.3,.6,.4,.7c0,.2,.1,.3,.1,.4l.7,.8V145H460Zm-3.5,9.5c-1,-1.9,-2.6,-3.2,-4.6,-4.1c.8,-.6,1.6,-1.1,2.4,-1.5c.7,-.4,1.5,-.7,2.2,-1v6.6Zm14.9,-12.7c-2.2,-2.4,-4.6,-3.6,-7.1,-3.6c-.9,0,-1.9,.4,-2.9,1.2c-1.1,.8,-1.6,1.7,-1.6,2.7c0,.3,.2,.6,.5,1l.8,.8H458l1.1,1.1h1.8v11.4l1.2,1.2V145h2l-1.2,-1.1h-1.3l-.4,-1.2c0,-.8,.6,-1.6,1.6,-2.3c.9,-.6,1.8,-.9,2.7,-.9c.6,0,1.1,.1,1.7,.2c.6,.1,1.1,.4,1.6,.7c.6,.3,1.1,.6,1.6,1c.4,.3,.9,.6,1.2,1l-.2,-.6Zm5.1,3.2l-1.2,-1.1c-.7,-.1,-1.1,-.6,-1.2,-1.5l-.7,-.7l.2,5.3h-.1c-.1,-.5,-.5,-1.1,-1.1,-1.9c-.7,-.9,-1.3,-1.3,-1.7,-1.3c-1.3,0,-2.2,.8,-3,2.5c-.1,-.7,-.4,-1.3,-.9,-1.7c-.6,-.5,-1.2,-.7,-1.8,-.7h-2.5l1.2,1.1c.1,0,.6,0,1.3,0c.8,0,1.4,.6,2,1.6c-.3,.1,-.6,.2,-.8,.4c-.3,.2,-.5,.4,-.7,.6c-.1,.3,-.3,.5,-.4,.8c-.1,.3,-.2,.6,-.2,.9c0,.4,.2,.8,.5,1.1c.2,.4,.6,.6,1,.6c.9,0,1.5,-.5,1.9,-1.5c.1,.4,.4,.8,.7,1.1c.3,.2,.7,.3,1.1,.3c.5,-.1,.9,-.3,1.1,-.6c.3,-.3,.4,-.7,.4,-1.3c0,-.5,-.6,-1.3,-1.8,-2.2c0,-.3,.1,-.5,.4,-.7c.3,-.2,.6,-.3,.9,-.3c.5,0,1,.4,1.5,1.1c.5,.7,.8,1.3,.8,1.8l-.1,7.7l1.2,1.2V145h2Zm10.3,0l-1.1,-1.1h-.8c0,-.9,-.3,-1.7,-.9,-2.3c-.6,-.7,-1.4,-1,-2.2,-1c-.1,0,-.3,0,-.5,.1c-.2,0,-.4,0,-.7,0c-.3,.1,-.5,.1,-.7,.1c-.2,0,-.4,0,-.5,0c-1.3,0,-1.9,-.5,-1.9,-1.6c0,-.3,.1,-.5,.3,-.8l-.6,-.2c-.1,.2,-.2,.4,-.3,.6c-.1,.3,-.1,.6,-.1,1c0,.8,.4,1.4,1.1,1.9c.6,.5,1.3,.7,2.1,.7c.1,0,.3,0,.4,0c.2,0,.5,-.1,.7,-.1c.3,-.1,.5,-.1,.7,-.2c.2,0,.4,0,.5,0c.2,0,.3,0,.5,.1c.2,0,.4,.1,.6,.2c.2,.2,.3,.3,.4,.4c.1,.2,.2,.3,.2,.5c0,.2,-.2,.4,-.5,.6h-8.4l1.2,1.1h3v.1c-.4,.2,-.8,.6,-1.1,1.2c-.2,.2,-.3,.5,-.3,.8c-.1,.3,-.1,.6,-.1,.9c0,1.3,.8,2,2.5,2.2l-1.6,1.6c-.5,.7,-.8,1.3,-.8,2c0,1.5,.9,2.2,2.6,2.2c1.2,0,2.2,-.3,3.3,-.9c1.3,-.7,1.9,-1.6,1.9,-2.6c0,-.4,-.1,-.7,-.4,-1.1c-.3,-.3,-.7,-.4,-1.1,-.4c-.3,0,-.6,.1,-.9,.4c-.3,.3,-.4,.5,-.4,.9c0,.2,.3,.6,.7,1.1c-1,1,-2.2,1.6,-3.7,1.6c-.5,0,-.8,-.3,-.8,-.7c0,-.3,.1,-.6,.4,-1c.3,-.4,.6,-.8,1.1,-1.2c.5,-.4,.9,-.8,1.4,-1.2c.5,-.4,1,-.8,1.4,-1.2c.4,-.5,.8,-1,1.1,-1.5c.3,-.5,.5,-.9,.5,-1.3c0,-.5,-.3,-1.1,-.7,-1.9h2.5Zm-4.1,3l-2,-2.2c.1,-.2,.2,-.3,.4,-.3c.1,-.1,.2,-.2,.3,-.3c.2,0,.3,-.1,.4,-.1c.2,0,.3,0,.4,0c1,0,1.4,.4,1.4,1.3c0,.8,-.3,1.3,-.9,1.6Zm-.6,.6c-.1,.1,-.2,.2,-.3,.3c-.1,.1,-.2,.2,-.3,.3c-.2,.1,-.4,.2,-.6,.2c-.1,.1,-.3,.1,-.4,.1c-.9,-.1,-1.4,-.6,-1.4,-1.5c0,-.6,.3,-1.2,.9,-1.7l2.1,2.3Z" class="g9_16"/>
<path d="M133.2,179.3c0,0,-1.5,0,-1.5,1.6v5.6c0,0,0,1.5,1.5,1.5H866.4c0,0,1.5,0,1.5,-1.5v-5.6c0,0,0,-1.6,-1.5,-1.6Z" class="g5_16"/>
<path clip-path="url(#c2_16)" d="M488.3,179.3c0,0,-1.5,0,-1.5,1.6v5.6c0,0,0,1.5,1.5,1.5H1775.8c0,0,1.6,0,1.6,-1.5v-5.6c0,0,0,-1.6,-1.6,-1.6Z" class="g6_16"/>
<path d="M419.4,250.1c0,0,-.5,-10,8.6,-9.4c0,0,6.8,-.3,6.7,9.5m-15.4,-1.5v6.5c0,0,-3.3,.3,-3.9,-3c0,0,-.1,-3.8,3.9,-3.5Zm15.4,0v6.5c0,0,3.4,.3,3.9,-3c0,0,.1,-3.8,-3.9,-3.5Z" class="ga_16"/>
<path d="M32.1,45.1H9.2m958.3,0h22.9M32.1,1331.3H9.2m958.3,0h22.9M45.1,32.1V9.2m0,1335.1v22.9M954.5,32.1V9.2m0,1335.1v22.9" class="gb_16"/>
<path d="M32.1,45.1H9.2m958.3,0h22.9M32.1,1331.3H9.2m958.3,0h22.9M45.1,32.1V9.2m0,1335.1v22.9M954.5,32.1V9.2m0,1335.1v22.9" class="gc_16"/>
<path d="M27.5,32.1H0m972.1,0h27.5M27.5,1344.3H0m972.1,0h27.5M32.1,27.5V0m0,1348.9v27.5M967.5,27.5V0m0,1348.9v27.5" class="gb_16"/>
<path d="M27.5,32.1H0m972.1,0h27.5M27.5,1344.3H0m972.1,0h27.5M32.1,27.5V0m0,1348.9v27.5M967.5,27.5V0m0,1348.9v27.5" class="gc_16"/>
</svg>