<?xml version="1.0" encoding="UTF-8" standalone="no"?>
<!DOCTYPE svg PUBLIC "-//W3C//DTD SVG 1.1//EN"
"http://www.w3.org/Graphics/SVG/1.1/DTD/svg11.dtd">
<svg viewBox="0 0 999 1376" version="1.1" xmlns="http://www.w3.org/2000/svg" xmlns:xlink="http://www.w3.org/1999/xlink">
<defs>
<clipPath id="c0_336"><path d="M32.1,1344.3V32.1H967.5V1344.3Z"/></clipPath>
<clipPath id="c1_336"><path d="M174.4,198.3l-6.5,-2.1L151.5,182.3V125.2h72v73.1Z"/></clipPath>
<clipPath id="c2_336"><path d="M650.1,1045.6V967.7h85.5v77.9Z"/></clipPath>
<clipPath id="c3_336"><path d="M512.6,1035.3c-6.5,0,-6.5,-6.5,-6.5,-6.5V983.4c0,-6.5,6.5,-6.5,6.5,-6.5H584c6.5,0,6.5,6.5,6.5,6.5v45.4c0,6.5,-6.5,6.5,-6.5,6.5Z"/></clipPath>
<clipPath id="c4_336"><path d="M357.5,1042.6V973H440v69.6Z"/></clipPath>
<clipPath id="c5_336"><path d="M215.5,1045.6V964.9h77.4v80.7Z"/></clipPath>
<style type="text/css"><![CDATA[
.g0_336{
fill: #FEFCF4;
}
.g1_336{
fill: #FCE8B0;
}
.g2_336{
fill: #FFF;
}
.g3_336{
fill: none;
stroke: #6381B7;
stroke-width: 0.763;
}
.g4_336{
fill: #F0E8F3;
}
.g5_336{
fill: none;
stroke: #231F20;
stroke-width: 0.381;
stroke-miterlimit: 10;
}
.g6_336{
fill: #93BEDA;
}
.g7_336{
fill: #6381B7;
}
.g8_336{
fill: none;
stroke: #6381B7;
stroke-width: 0.381;
stroke-dasharray: 2,1;
}
.g9_336{
fill: none;
stroke: #6381B7;
stroke-width: 0.381;
}
.ga_336{
fill: none;
stroke: #FFF;
stroke-width: 1.909;
stroke-miterlimit: 10;
}
.gb_336{
fill: none;
stroke: #000;
stroke-width: 0.381;
stroke-miterlimit: 10;
}
]]></style>
</defs>
<path clip-path="url(#c0_336)" d="M954.5,1344.3H1877V32.1H954.5V1344.3Z" class="g0_336"/>
<path d="M207,153.3c0,0,-12.9,0,-12.9,13V188c0,0,0,13,12.9,13H830.7c0,0,13,0,13,-13V166.3c0,0,0,-13,-13,-13Z" class="g1_336"/>
<image clip-path="url(#c1_336)" preserveAspectRatio="none" x="150" y="124" width="75" height="76" xlink:href="img/1.png"/>
<path d="M201.8,193.6c0,0,-26.8,11.3,-51.1,-12.7c0,0,15.2,25.3,49.3,23.9c0,0,24.8,.4,20.3,-10.1c0,0,1.2,-4.5,-18.5,-1.1Z" class="g1_336"/>
<path d="M145.1,220.6c0,0,-13,0,-13,13v943.1c0,0,0,13,13,13H832.9c0,0,13,0,13,-13V233.6c0,0,0,-13,-13,-13Z" class="g2_336"/>
<path d="M145.1,220.6c0,0,-13,0,-13,13v943.1c0,0,0,13,13,13H832.9c0,0,13,0,13,-13V233.6c0,0,0,-13,-13,-13H145.1Z" class="g3_336"/>
<image clip-path="url(#c2_336)" preserveAspectRatio="none" x="648" y="965" width="88" height="81" xlink:href="img/2.jpg"/>
<image clip-path="url(#c3_336)" preserveAspectRatio="none" x="505" y="976" width="86" height="60" xlink:href="img/3.jpg"/>
<image clip-path="url(#c4_336)" preserveAspectRatio="none" x="355" y="972" width="86" height="71" xlink:href="img/4.jpg"/>
<image clip-path="url(#c5_336)" preserveAspectRatio="none" x="216" y="965" width="78" height="81" xlink:href="img/5.jpg"/>
<path d="M218.3,459.5c0,0,-13,0,-13,13v60.6c0,0,0,13,13,13h563c0,0,13,0,13,-13V472.5c0,0,0,-13,-13,-13Z" class="g4_336"/>
<path d="M451.4,514.2h90.2" class="g5_336"/>
<path d="M218.3,738c0,0,-13,0,-13,13v60.6c0,0,0,13,13,13h563c0,0,13,0,13,-13V751c0,0,0,-13,-13,-13Z" class="g4_336"/>
<path d="M412.6,792.6h90.3" class="g5_336"/>
<path d="M218.3,610c0,0,-13,0,-13,12.9v39c0,0,0,13,13,13h563c0,0,13,0,13,-13v-39c0,0,0,-12.9,-13,-12.9Z" class="g4_336"/>
<path d="M287.6,638.7h55.9" class="g5_336"/>
<path d="M218.3,291.9c0,0,-13,0,-13,13v78c0,0,0,13,13,13h563c0,0,13,0,13,-13v-78c0,0,0,-13,-13,-13Z" class="g4_336"/>
<path d="M287.6,365.9h90.3" class="g5_336"/>
<path d="M693.5,1121.1c2,0,3.6,-1.7,3.6,-3.7c0,-1.9,-1.6,-3.6,-3.6,-3.6c-2,0,-3.6,1.7,-3.6,3.6c0,2,1.6,3.7,3.6,3.7Z" class="g6_336"/>
<path d="M546.9,1121.1c2,0,3.6,-1.7,3.6,-3.7c0,-1.9,-1.6,-3.6,-3.6,-3.6c-2,0,-3.6,1.7,-3.6,3.6c0,2,1.6,3.7,3.6,3.7Z" class="g6_336"/>
<path d="M400.2,1121.1c2,0,3.7,-1.7,3.7,-3.7c0,-1.9,-1.7,-3.6,-3.7,-3.6c-1.9,0,-3.6,1.7,-3.6,3.6c0,2,1.7,3.7,3.6,3.7Z" class="g6_336"/>
<path d="M253.6,1121.1c2,0,3.6,-1.7,3.6,-3.7c0,-1.9,-1.6,-3.6,-3.6,-3.6c-2,0,-3.6,1.7,-3.6,3.6c0,2,1.6,3.7,3.6,3.7Z" class="g6_336"/>
<path d="M216.3,1132.1c0,0,-13,0,-13,13v6.5c0,0,0,13,13,13h73.6c0,0,13,0,13,-13v-6.5c0,0,0,-13,-13,-13Z" class="g4_336"/>
<path d="M362.4,1132.1c0,0,-12.9,0,-12.9,13v6.5c0,0,0,13,12.9,13h73.7c0,0,13,0,13,-13v-6.5c0,0,0,-13,-13,-13Z" class="g4_336"/>
<path d="M508.6,1132.1c0,0,-13,0,-13,13v6.5c0,0,0,13,13,13h73.6c0,0,13,0,13,-13v-6.5c0,0,0,-13,-13,-13Z" class="g4_336"/>
<path d="M654.8,1132.1c0,0,-13,0,-13,13v6.5c0,0,0,13,13,13h73.6c0,0,13,0,13,-13v-6.5c0,0,0,-13,-13,-13Z" class="g4_336"/>
<path d="M693.5,1058.3c2,0,3.6,-1.6,3.6,-3.6c0,-2,-1.6,-3.6,-3.6,-3.6c-2,0,-3.6,1.6,-3.6,3.6c0,2,1.6,3.6,3.6,3.6Z" class="g6_336"/>
<path d="M546.9,1058.3c2,0,3.6,-1.6,3.6,-3.6c0,-2,-1.6,-3.6,-3.6,-3.6c-2,0,-3.6,1.6,-3.6,3.6c0,2,1.6,3.6,3.6,3.6Z" class="g6_336"/>
<path d="M400.2,1058.3c2,0,3.7,-1.6,3.7,-3.6c0,-2,-1.7,-3.6,-3.7,-3.6c-1.9,0,-3.6,1.6,-3.6,3.6c0,2,1.7,3.6,3.6,3.6Z" class="g6_336"/>
<path d="M253.6,1058.3c2,0,3.6,-1.6,3.6,-3.6c0,-2,-1.6,-3.6,-3.6,-3.6c-2,0,-3.6,1.6,-3.6,3.6c0,2,1.6,3.6,3.6,3.6Z" class="g6_336"/>
<path d="M448.2,1206.1c0,0,-4.3,0,-4.3,4.3v10.8c0,0,0,4.4,4.3,4.4h30.3c0,0,4.4,0,4.4,-4.4v-10.8c0,0,0,-4.3,-4.4,-4.3Z" class="g7_336"/>
<path d="M435,1198.6v34.8m1.4,1H845.1m1,-1.3v-34.9m-1.4,-1H436" class="g8_336"/>
<path d="M435,1233.8v.6h.6m409.9,0h.6v-.6m0,-36v-.6h-.6m-409.9,0H435v.6" class="g9_336"/>
<path d="M32.1,45.1H9.2m958.3,0h22.9M32.1,1331.3H9.2m958.3,0h22.9M45.1,32.1V9.2m0,1335.1v22.9M954.5,32.1V9.2m0,1335.1v22.9" class="ga_336"/>
<path d="M32.1,45.1H9.2m958.3,0h22.9M32.1,1331.3H9.2m958.3,0h22.9M45.1,32.1V9.2m0,1335.1v22.9M954.5,32.1V9.2m0,1335.1v22.9" class="gb_336"/>
<path d="M27.5,32.1H0m972.1,0h27.5M27.5,1344.3H0m972.1,0h27.5M32.1,27.5V0m0,1348.9v27.5M967.5,27.5V0m0,1348.9v27.5" class="ga_336"/>
<path d="M27.5,32.1H0m972.1,0h27.5M27.5,1344.3H0m972.1,0h27.5M32.1,27.5V0m0,1348.9v27.5M967.5,27.5V0m0,1348.9v27.5" class="gb_336"/>
</svg>