<?xml version="1.0" encoding="UTF-8" standalone="no"?>
<!DOCTYPE svg PUBLIC "-//W3C//DTD SVG 1.1//EN"
"http://www.w3.org/Graphics/SVG/1.1/DTD/svg11.dtd">
<svg viewBox="0 0 999 1376" version="1.1" xmlns="http://www.w3.org/2000/svg" xmlns:xlink="http://www.w3.org/1999/xlink">
<defs>
<clipPath id="c0_351"><path d="M32.1,1344.3V32.1H967.5V1344.3Z"/></clipPath>
<clipPath id="c1_351"><path d="M198.7,198.8l-6.5,-2.1L175.8,182.8V125.7h72v73.1Z"/></clipPath>
<clipPath id="c2_351"><path d="M242.5,322.1c-2.2,0,-3.6,-.8,-4.5,-1.8V259.1h72c1.1,1.7,1.1,3.8,1.1,3.8v52.9c0,6.3,-6.2,6.3,-6.2,6.3Z"/></clipPath>
<clipPath id="c3_351"><path d="M234.9,470.6V405.2h74.5v65.4Z"/></clipPath>
<clipPath id="c4_351"><path d="M234.9,396.2V330.9h74.5v65.3Z"/></clipPath>
<clipPath id="c5_351"><path d="M234.7,544.9V479.4h74.5v65.5Z"/></clipPath>
<style type="text/css"><![CDATA[
.g0_351{
fill: #FEFCF4;
}
.g1_351{
fill: #FCE8B0;
}
.g2_351{
fill: #FFF;
}
.g3_351{
fill: none;
stroke: #6381B7;
stroke-width: 0.763;
}
.g4_351{
fill: #F0E8F3;
}
.g5_351{
fill: none;
stroke: #231F20;
stroke-width: 0.381;
stroke-miterlimit: 10;
}
.g6_351{
fill: #93BEDA;
}
.g7_351{
fill: #EFE9CC;
}
.g8_351{
fill: #6381B7;
}
.g9_351{
fill: none;
stroke: #6381B7;
stroke-width: 0.381;
stroke-dasharray: 2,1;
}
.ga_351{
fill: none;
stroke: #6381B7;
stroke-width: 0.381;
}
.gb_351{
fill: none;
stroke: #FFF;
stroke-width: 1.909;
stroke-miterlimit: 10;
}
.gc_351{
fill: none;
stroke: #000;
stroke-width: 0.381;
stroke-miterlimit: 10;
}
]]></style>
</defs>
<path clip-path="url(#c0_351)" d="M-877.3,1343.2H45.1V32.1H-877.3V1343.2Z" class="g0_351"/>
<path d="M231.3,153.8c0,0,-13,0,-13,13v21.7c0,0,0,13,13,13H854.9c0,0,13,0,13,-13V166.8c0,0,0,-13,-13,-13Z" class="g1_351"/>
<image clip-path="url(#c1_351)" preserveAspectRatio="none" x="174" y="124" width="75" height="76" xlink:href="img/1.png"/>
<path d="M226.1,194.1c0,0,-26.9,11.3,-51.1,-12.8c0,0,15.2,25.4,49.3,24c0,0,24.7,.4,20.2,-10.1c0,0,1.3,-4.5,-18.4,-1.1Z" class="g1_351"/>
<path d="M166.7,213.1c0,0,-13,0,-13,13v958c0,0,0,13,13,13H854.5c0,0,13,0,13,-13v-958c0,0,0,-13,-13,-13Z" class="g2_351"/>
<path d="M166.7,213.1c0,0,-13,0,-13,13v958c0,0,0,13,13,13H854.5c0,0,13,0,13,-13v-958c0,0,0,-13,-13,-13H166.7Z" class="g3_351"/>
<image clip-path="url(#c2_351)" preserveAspectRatio="none" x="238" y="255" width="74" height="68" xlink:href="img/2.jpg"/>
<image clip-path="url(#c3_351)" preserveAspectRatio="none" x="235" y="404" width="74" height="68" xlink:href="img/3.jpg"/>
<image clip-path="url(#c4_351)" preserveAspectRatio="none" x="235" y="330" width="74" height="66" xlink:href="img/4.jpg"/>
<image clip-path="url(#c5_351)" preserveAspectRatio="none" x="235" y="478" width="74" height="68" xlink:href="img/5.jpg"/>
<path d="M229.1,630.1c0,0,-13,0,-13,13V721c0,0,0,13,13,13h563c0,0,13,0,13,-13V643.1c0,0,0,-13,-13,-13Z" class="g4_351"/>
<path d="M462.2,704.1h90.3" class="g5_351"/>
<path d="M229.1,792.6c0,0,-13,0,-13,13v39c0,0,0,13,13,13h563c0,0,13,0,13,-13v-39c0,0,0,-13,-13,-13Z" class="g4_351"/>
<path d="M285.5,847.1h90.3" class="g5_351"/>
<path d="M229.1,915.8c0,0,-13,0,-13,12.9v60.7c0,0,0,13,13,13h563c0,0,13,0,13,-13V928.7c0,0,0,-12.9,-13,-12.9Z" class="g4_351"/>
<path d="M277,970.4h90.3" class="g5_351"/>
<path d="M229.1,1061.5c0,0,-13,0,-13,13v60.6c0,0,0,13,13,13h563c0,0,13,0,13,-13v-60.6c0,0,0,-13,-13,-13Z" class="g4_351"/>
<path d="M285.5,1090.4h90.3" class="g5_351"/>
<path d="M323,297.4c2,0,3.6,-1.6,3.6,-3.6c0,-2,-1.6,-3.6,-3.6,-3.6c-2,0,-3.6,1.6,-3.6,3.6c0,2,1.6,3.6,3.6,3.6Z" class="g6_351"/>
<path d="M323,367.2c2,0,3.6,-1.7,3.6,-3.7c0,-1.9,-1.6,-3.6,-3.6,-3.6c-2,0,-3.6,1.7,-3.6,3.6c0,2,1.6,3.7,3.6,3.7Z" class="g6_351"/>
<path d="M323,436.9c2,0,3.6,-1.6,3.6,-3.6c0,-2,-1.6,-3.6,-3.6,-3.6c-2,0,-3.6,1.6,-3.6,3.6c0,2,1.6,3.6,3.6,3.6Z" class="g6_351"/>
<path d="M323,508.8c2,0,3.6,-1.6,3.6,-3.6c0,-2,-1.6,-3.6,-3.6,-3.6c-2,0,-3.6,1.6,-3.6,3.6c0,2,1.6,3.6,3.6,3.6Z" class="g6_351"/>
<path d="M539.8,297.4c2,0,3.6,-1.6,3.6,-3.6c0,-2,-1.6,-3.6,-3.6,-3.6c-2,0,-3.6,1.6,-3.6,3.6c0,2,1.6,3.6,3.6,3.6Z" class="g6_351"/>
<path d="M539.8,367.2c2,0,3.6,-1.7,3.6,-3.7c0,-1.9,-1.6,-3.6,-3.6,-3.6c-2,0,-3.6,1.7,-3.6,3.6c0,2,1.6,3.7,3.6,3.7Z" class="g6_351"/>
<path d="M539.8,436.9c2,0,3.6,-1.6,3.6,-3.6c0,-2,-1.6,-3.6,-3.6,-3.6c-2,0,-3.6,1.6,-3.6,3.6c0,2,1.6,3.6,3.6,3.6Z" class="g6_351"/>
<path d="M539.8,508.8c2,0,3.6,-1.6,3.6,-3.6c0,-2,-1.6,-3.6,-3.6,-3.6c-2,0,-3.6,1.6,-3.6,3.6c0,2,1.6,3.6,3.6,3.6Z" class="g6_351"/>
<path d="M578.8,277.7c0,0,-8.7,0,-8.7,8.6v15.2c0,0,0,8.6,8.7,8.6H702.2c0,0,8.6,0,8.6,-8.6V286.3c0,0,0,-8.6,-8.6,-8.6Z" class="g7_351"/>
<path d="M578.8,348.2c0,0,-8.7,0,-8.7,8.7v15.2c0,0,0,8.6,8.7,8.6H702.2c0,0,8.6,0,8.6,-8.6V356.9c0,0,0,-8.7,-8.6,-8.7Z" class="g7_351"/>
<path d="M578.8,418.8c0,0,-8.7,0,-8.7,8.7v15.2c0,0,0,8.6,8.7,8.6H702.2c0,0,8.6,0,8.6,-8.6V427.5c0,0,0,-8.7,-8.6,-8.7Z" class="g7_351"/>
<path d="M578.8,491.6c0,0,-8.7,0,-8.7,8.7v15.1c0,0,0,8.7,8.7,8.7H702.2c0,0,8.6,0,8.6,-8.7V500.3c0,0,0,-8.7,-8.6,-8.7Z" class="g7_351"/>
<path d="M474.2,1216.2c0,0,-4.3,0,-4.3,4.3v10.8c0,0,0,4.3,4.3,4.3h30.3c0,0,4.3,0,4.3,-4.3v-10.8c0,0,0,-4.3,-4.3,-4.3Z" class="g8_351"/>
<path d="M461,1208.7v34.8m1.3,1H866.8m.9,-1.4v-34.8m-1.3,-1H462" class="g9_351"/>
<path d="M461,1243.9v.6h.6m405.6,0h.5v-.6m0,-36v-.6h-.5m-405.6,0H461v.6" class="ga_351"/>
<path d="M32.1,45.1H9.2m958.3,0h22.9M32.1,1331.3H9.2m958.3,0h22.9M45.1,32.1V9.2m0,1335.1v22.9M954.5,32.1V9.2m0,1335.1v22.9" class="gb_351"/>
<path d="M32.1,45.1H9.2m958.3,0h22.9M32.1,1331.3H9.2m958.3,0h22.9M45.1,32.1V9.2m0,1335.1v22.9M954.5,32.1V9.2m0,1335.1v22.9" class="gc_351"/>
<path d="M27.5,32.1H0m972.1,0h27.5M27.5,1344.3H0m972.1,0h27.5M32.1,27.5V0m0,1348.9v27.5M967.5,27.5V0m0,1348.9v27.5" class="gb_351"/>
<path d="M27.5,32.1H0m972.1,0h27.5M27.5,1344.3H0m972.1,0h27.5M32.1,27.5V0m0,1348.9v27.5M967.5,27.5V0m0,1348.9v27.5" class="gc_351"/>
</svg>