<?xml version="1.0" encoding="UTF-8" standalone="no"?>
<!DOCTYPE svg PUBLIC "-//W3C//DTD SVG 1.1//EN"
"http://www.w3.org/Graphics/SVG/1.1/DTD/svg11.dtd">
<svg viewBox="0 0 999 1376" version="1.1" xmlns="http://www.w3.org/2000/svg" xmlns:xlink="http://www.w3.org/1999/xlink">
<defs>
<clipPath id="c0_166"><path d="M32.1,1344.3V32.1H967.5V1344.3Z"/></clipPath>
<clipPath id="c1_166"><path d="M703.3,886.5V669.3H905.7V886.5Z"/></clipPath>
<clipPath id="c2_166"><path d="M709.3,876V676.4H900.2V876Z"/></clipPath>
<clipPath id="c3_166"><path d="M709,875.7V676.1H899.9V875.7Z"/></clipPath>
<clipPath id="c4_166"><path d="M67.5,844.2V590.1h242V844.2Z"/></clipPath>
<clipPath id="c5_166"><path d="M75.3,839.1v-242H300.8v242Z"/></clipPath>
<clipPath id="c6_166"><path d="M75,838.8v-242H300.5v242Z"/></clipPath>
<clipPath id="c7_166"><path d="M176.6,526.6l-6.5,-2.1L153.7,510.6V453.5h72v73.1Z"/></clipPath>
<clipPath id="c8_166"><path d="M176.6,1096.3l-6.5,-2.2l-16.4,-13.9v-57.1h72v73.2Z"/></clipPath>
<clipPath id="c9_166"><path d="M764.8,417.6V405.1h14.5v12.5Z"/></clipPath>
<clipPath id="ca_166"><path d="M166.1,616.8c-.3,0,3.6,-8.2,3.6,-8.2l.7,.5c0,0,-4,7.7,-4.3,7.7Z"/></clipPath>
<clipPath id="cb_166"><path d="M173.6,609.1c0,0,-6.8,-1.1,-7.6,-5.2c-.6,-3.6,1.5,-3.9,2.1,-3.9c.1,0,.1,.1,.1,.1l8.4,-12.8l-1.5,-3.1c0,0,-.6,-1.1,.1,-2c.1,-.1,.2,-.1,.3,-.1c2.1,0,13,5.5,13,5.5l.1,.2c-.4,.5,-.8,1.1,-1.4,1.6c-.7,.5,-5.1,1.2,-5.1,1.2l-8.5,18.5Z"/></clipPath>
<clipPath id="cc_166"><path d="M173.2,608.8c.2,-.5,.2,-1.8,0,-2.3v-1.4c-1.5,-.5,-2.9,-1.2,-3.6,-2.5c-1.1,.6,-2.2,1.2,-3.2,1.9c1.6,2.1,3.8,3.5,6.8,4.3Zm0,-3.9c2.2,-4.6,4,-9.6,6.2,-14.1c-.9,-.4,-1.9,-1.3,-2.7,-1.4c-2.3,4.3,-4.6,8.6,-7,12.8c.7,1.3,2.1,2,3.5,2.7Zm-7.3,12c1.1,-2.9,2.4,-5.5,3.5,-8.3c-1.9,-1.5,-3.9,-3.1,-4.4,-6.1V601c0,-2.7,2,-3.4,4.6,-3.4c.1,0,.2,0,.2,0c2,-3.4,4.2,-6.4,6.2,-9.7c-.6,-.9,-1.2,-2.4,-.9,-3.7c.5,1.3,1.6,1.9,2.4,2.9c-.1,.6,-.3,1.2,-.4,1.8c.6,.7,1.3,1.2,2.4,1.4c.4,-.4,.5,-1.3,1.1,-1.5c1,.3,1.9,.7,3.2,.7c.1,.1,.4,.2,.8,.2c.3,0,.7,-.1,.8,-.2c.1,.1,.2,.1,.3,.1c.2,0,.4,-.1,.6,-.2c.2,0,.4,-.1,.5,-.1c.1,0,.3,0,.4,.1c-1.4,.7,-2.2,1.8,-4.2,1.8c-.1,0,-.2,0,-.4,0c-.8,3.7,-1.8,7.3,-2.6,11.1c.5,1.1,1.5,1.7,1.2,3.2c-.4,2.7,-3.8,4.4,-7.2,4.4c-1.2,0,-2.5,-.3,-3.6,-.8c-1,2.1,-2,4.2,-3.2,6.1c-.1,-.4,.3,-.4,.2,-.8c1,-1.8,2,-3.6,2.7,-5.6c-1.1,1.7,-1.9,3.7,-2.8,5.5c-.2,.4,-.4,.8,-.6,1.2c-.3,.5,-.3,1.2,-.8,1.4Z"/></clipPath>
<clipPath id="cd_166"><path d="M183.6,589.1c-4.8,0,-13,-7.3,-5.5,-8.7h1.3c.1,0,.3,0,.5,0c0,0,.1,0,.2,0c0,0,.1,0,.1,0c.3,0,.6,0,.9,.1c3.1,.6,8.2,3.8,7.6,7c-.3,1.2,-1.6,1.6,-3.2,1.6h-1.7q-.1,0,-.2,0Z"/></clipPath>
<clipPath id="ce_166"><path d="M809.9,710.8c-.3,-.1,3.5,-8.2,3.5,-8.2l.8,.5c0,0,-4,7.7,-4.3,7.7Z"/></clipPath>
<clipPath id="cf_166"><path d="M817.4,703.1c0,0,-6.9,-1.1,-7.6,-5.2c-.6,-3.6,1.5,-3.9,2.1,-3.9q.1,0,.1,0l8.3,-12.7l-1.4,-3.1c0,0,-.6,-1.1,.1,-2.1c.1,0,.2,-.1,.3,-.1c2.1,0,13,5.6,13,5.6v.1c-.3,.6,-.7,1.2,-1.4,1.7c-.6,.5,-5,1.1,-5,1.1l-8.5,18.6Z"/></clipPath>
<clipPath id="cg_166"><path d="M817,702.7c.2,-.4,.2,-1.8,0,-2.2v-1.4c-1.5,-.5,-2.9,-1.2,-3.7,-2.5c-1.1,.6,-2.1,1.2,-3.1,1.9c1.6,2.1,3.8,3.5,6.8,4.2Zm0,-3.9c2.2,-4.5,4,-9.5,6.1,-14c-.8,-.4,-1.8,-1.4,-2.6,-1.4c-2.3,4.3,-4.6,8.6,-7,12.8c.7,1.3,2.1,2,3.5,2.6Zm-7.3,12.1c1,-2.9,2.4,-5.5,3.5,-8.3c-2,-1.5,-3.9,-3.1,-4.4,-6.2v-1.5c0,-2.7,1.9,-3.4,4.6,-3.4q.1,0,.2,0c1.9,-3.3,4.2,-6.3,6.1,-9.6c-.5,-.9,-1.1,-2.4,-.8,-3.7c.5,1.3,1.6,1.9,2.3,2.9c-.1,.6,-.2,1.2,-.3,1.8c.6,.6,1.3,1.2,2.4,1.4c.4,-.5,.5,-1.3,1.1,-1.6c.9,.4,1.8,.8,3.1,.8c.2,.1,.5,.2,.9,.2c.3,0,.6,-.1,.8,-.2c.1,0,.2,0,.3,0c.2,0,.4,0,.6,-.1c.2,-.1,.4,-.1,.5,-.1c.1,0,.2,0,.3,.1c-1.3,.6,-2.2,1.7,-4.1,1.7c-.2,0,-.3,0,-.4,0c-.9,3.8,-1.9,7.4,-2.6,11.2c.5,1.1,1.5,1.7,1.2,3.2c-.4,2.7,-3.8,4.4,-7.2,4.4c-1.2,0,-2.5,-.3,-3.6,-.8c-1,2.1,-2,4.1,-3.2,6c-.1,-.3,.2,-.3,.2,-.7c1,-1.8,1.9,-3.6,2.6,-5.7c-1,1.7,-1.8,3.7,-2.7,5.6c-.2,.4,-.4,.8,-.7,1.2c-.2,.4,-.2,1.1,-.7,1.4Z"/></clipPath>
<clipPath id="ch_166"><path d="M827.4,683.1c-4.8,0,-13.1,-7.3,-5.5,-8.8h1.2c.2,.1,.4,.1,.6,.1c0,0,.1,0,.1,0q.1,0,.2,0c.2,0,.6,0,.9,.1c3.1,.6,8.2,3.8,7.5,7c-.2,1.1,-1.5,1.6,-3.1,1.6h-1.9Z"/></clipPath>
<clipPath id="ci_166"><path d="M125.5,386.7V205.8H858.6V386.7Z"/></clipPath>
<style type="text/css"><![CDATA[
.g0_166{
fill: #FEFCF4;
}
.g1_166{
fill: #FFF;
}
.g2_166{
fill: none;
stroke: #6381B7;
stroke-width: 0.763;
}
.g3_166{
fill: #F7C2D9;
}
.g4_166{
fill: #FDF4F3;
}
.g5_166{
fill: #EC008C;
}
.g6_166{
fill: none;
stroke: #949698;
stroke-width: 0.305;
stroke-dasharray: 4,4;
}
.g7_166{
fill: none;
stroke: #949698;
stroke-width: 0.305;
stroke-dasharray: 3,3;
}
.g8_166{
fill: none;
stroke: #949698;
stroke-width: 0.305;
}
.g9_166{
fill: #6D6F71;
}
.ga_166{
fill: none;
stroke: #818385;
stroke-width: 0.305;
stroke-dasharray: 3,3;
}
.gb_166{
fill: none;
stroke: #818385;
stroke-width: 0.305;
}
.gc_166{
fill: none;
stroke: #818385;
stroke-width: 0.305;
stroke-dasharray: 4,4;
}
.gd_166{
fill: #6381B7;
}
.ge_166{
fill: none;
stroke: #6381B7;
stroke-width: 0.381;
stroke-dasharray: 2,1;
}
.gf_166{
fill: none;
stroke: #6381B7;
stroke-width: 0.381;
}
.gg_166{
fill: #FCE8B0;
}
.gh_166{
fill: #25408F;
}
.gi_166{
fill: #A8AAAD;
}
.gj_166{
fill: none;
stroke: #949698;
stroke-width: 0.549;
}
.gk_166{
fill: none;
stroke: #BCBEC0;
stroke-width: 2.566;
}
.gl_166{
fill: #231F20;
}
.gm_166{
fill: #363637;
}
.gn_166{
fill: #5CC4BE;
}
.go_166{
fill: #EAD646;
}
.gp_166{
fill: #2E6E51;
}
.gq_166{
fill: none;
stroke: #FFF;
stroke-width: 0.152;
stroke-miterlimit: 1;
}
.gr_166{
fill: #BCBEC0;
}
.gs_166{
fill: #EE314A;
}
.gt_166{
fill: #CEEDFB;
}
.gu_166{
fill: #27639D;
}
.gv_166{
fill: none;
stroke: #C3E7F1;
stroke-width: 1.527;
}
.gw_166{
fill: none;
stroke: #FFF;
stroke-width: 1.909;
stroke-miterlimit: 10;
}
.gx_166{
fill: none;
stroke: #000;
stroke-width: 0.381;
stroke-miterlimit: 10;
}
]]></style>
</defs>
<path d="M32.1,1344.3H954.5V32.1H32.1V1344.3Z" class="g0_166"/>
<path clip-path="url(#c0_166)" d="M954.5,1344.3H1877V32.1H954.5V1344.3Z" class="g0_166"/>
<path d="M151,423.1c0,0,-18.3,0,-18.3,18.4V976.1c0,0,0,18.3,18.3,18.3H828.2c0,0,18.3,0,18.3,-18.3v-553Z" class="g1_166"/>
<path d="M151,423.1c0,0,-18.3,0,-18.3,18.4V976.1c0,0,0,18.3,18.3,18.3H828.2c0,0,18.3,0,18.3,-18.3v-553H151Z" class="g2_166"/>
<image clip-path="url(#c1_166)" preserveAspectRatio="none" x="703" y="670" width="202" height="217" xlink:href="img/1.png"/>
<path d="M733.2,674L707.9,856l168.2,24.4L899.7,697.5Z" class="g3_166"/>
<image clip-path="url(#c2_166)" preserveAspectRatio="none" x="709" y="677" width="191" height="199" xlink:href="img/2.png"/>
<image clip-path="url(#c3_166)" preserveAspectRatio="none" x="709" y="677" width="191" height="199" xlink:href="img/3.png"/>
<path d="M726.2,681.1L714,860l135.6,9.5l33.6,-19L894,692.9Z" class="g4_166"/>
<path d="M849.8,869.4l34.6,-19.2l-28.2,-3.9Z" class="g5_166"/>
<path d="M580.1,839.7c11.9,1,44.5,2.6,63.3,-9" class="g6_166"/>
<path d="M648.6,825.8c.3,-1.4,-.7,-2.4,-2.2,-3.3" class="g7_166"/>
<path d="M639.3,823.2c-4.1,3.4,-6.7,9.9,7.6,7.8m7.8,-1.7c22.4,-6,58.6,-24.1,72.6,-31.3" class="g6_166"/>
<path d="M575.6,839.2c0,0,.5,.1,1.5,.2m67.5,-9.5c.5,-.3,.9,-.6,1.3,-.8c.4,-.4,.8,-.7,1.1,-1m-1.9,-6.2c-.4,-.2,-.8,-.4,-1.3,-.5c-.4,-.2,-1,-.1,-1.6,.1m6.4,9.2c.5,-.1,1,-.2,1.6,-.3c.5,-.1,1,-.3,1.5,-.4m76.9,-32.7c.5,-.3,1,-.5,1.4,-.7" class="g8_166"/>
<path d="M722,795.8l5.2,7.1l6.4,-10.3Z" class="g9_166"/>
<path d="M563.5,865.3c8.8,-1.2,15.7,-5.9,17.5,-11.8m-.5,-7.2C578,840.7,570.8,836.5,562,835.7m-7.4,.1c-8.8,1.2,-15.7,5.9,-17.4,11.9m.5,7.2c2.5,5.6,9.6,9.8,18.4,10.6" class="ga_166"/>
<path d="M581.3,852.1c.1,-.5,.1,-1,.1,-1.5c0,-.5,0,-1,-.1,-1.5M560.6,835.6c-.5,0,-1,0,-1.5,0c-.5,0,-1,0,-1.5,0m-20.7,13.5c-.1,.5,-.1,1,-.1,1.5c0,.5,0,1,.1,1.5m20.7,13.5c.5,0,1,0,1.5,0c.5,0,1,0,1.5,0" class="gb_166"/>
<image clip-path="url(#c4_166)" preserveAspectRatio="none" x="67" y="590" width="242" height="255" xlink:href="img/4.png"/>
<path d="M72.3,623.7l31,214.8l200,-28.2l-32,-215.2Z" class="g3_166"/>
<image clip-path="url(#c5_166)" preserveAspectRatio="none" x="75" y="597" width="225" height="242" xlink:href="img/5.png"/>
<image clip-path="url(#c6_166)" preserveAspectRatio="none" x="75" y="597" width="225" height="242" xlink:href="img/6.png"/>
<path d="M79.7,616.2L95.6,832.6L263.1,820.3L294.3,791L280.2,601.6Z" class="g4_166"/>
<path d="M263.1,820.3l31.2,-29.2l-16.2,-2.4Z" class="g5_166"/>
<path d="M705.1,541.1c-7.4,-.6,-15.3,-1,-23.5,-1.1m-7.9,0c-32.9,.5,-59.8,5.6,-65.8,12.2m1.1,6.7c7.9,6.2,34.4,10.8,66.3,11.1m8.1,0c8.8,-.1,17.1,-.6,24.8,-1.3" class="gc_166"/>
<path d="M709.8,541.5c-.6,0,-1.1,-.1,-1.6,-.1M680,540c-.5,0,-1,0,-1.6,0c-.5,0,-1,0,-1.5,0M607,553.5c-.3,.5,-.4,1,-.4,1.5c0,.5,.1,1,.4,1.5M676.9,570c.5,0,1,0,1.5,0c.6,0,1.1,0,1.7,0m29.7,-1.5c.6,0,1.1,-.1,1.6,-.2" class="gb_166"/>
<path d="M318.3,567.7c26.5,.5,48.2,5,53.4,11m-1.1,6.8c-6.9,5.5,-28.3,9.6,-53.9,9.9" class="gc_166"/>
<path d="M313.6,567.6c.5,0,1,0,1.6,0M372.6,580c.3,.5,.4,1,.4,1.5c0,.6,-.1,1.1,-.4,1.6m-57.4,12.4c-.6,0,-1.1,0,-1.6,0" class="gb_166"/>
<path d="M311.8,589.4c-9.7,-3.7,-35.1,-11.6,-62.5,-3.7m-4.3,4.2c.8,1,2.3,1.8,4,1.8" class="g7_166"/>
<path d="M253.5,587.4c-1.5,-1.3,-5.7,-2.2,-10.7,-2m-7.6,1.1c-10.5,2.6,-26.7,10.6,-40.1,23.2" class="g6_166"/>
<path d="M315.9,591.2c0,0,-.5,-.3,-1.4,-.6m-66.6,-4.4c-.5,.1,-1,.3,-1.4,.4c-.6,.2,-1,.5,-1.4,.7m5.4,4.2c.4,-.1,.9,-.3,1.3,-.5c.6,-.3,1,-.6,1.4,-.9m-12,-4.6c-.5,0,-1,.1,-1.6,.1c-.4,.1,-.9,.1,-1.5,.2m-44.1,25c-.3,.3,-.7,.7,-1,1" class="g8_166"/>
<path d="M199.4,611.4l-6.7,-5.7l-3.9,11.5Z" class="g9_166"/>
<path d="M145.1,1006.9c0,0,-13,0,-13,13v165.8c0,0,0,13,13,13H832.9c0,0,13,0,13,-13V1019.9c0,0,0,-13,-13,-13Z" class="g1_166"/>
<path d="M145.1,1006.9c0,0,-13,0,-13,13v165.8c0,0,0,13,13,13H832.9c0,0,13,0,13,-13V1019.9c0,0,0,-13,-13,-13H145.1Z" class="g2_166"/>
<path d="M422.9,1217.3c0,0,-4.4,0,-4.4,4.3v10.8c0,0,0,4.4,4.4,4.4h30.3c0,0,4.3,0,4.3,-4.4v-10.8c0,0,0,-4.3,-4.3,-4.3Z" class="gd_166"/>
<path d="M409.7,1208.4V1246m1.3,.9H845.7m1,-1.3V1208m-1.3,-.9H410.6" class="ge_166"/>
<path d="M409.7,1246.4v.5h.5m435.9,0h.6v-.5m0,-38.7v-.6h-.6m-435.9,0h-.5v.6" class="gf_166"/>
<path d="M209.2,455.7c0,0,-13,0,-13,13v47.6c0,0,0,13,13,13h602c0,0,13,0,13,-13V468.7c0,0,0,-13,-13,-13Z" class="gg_166"/>
<image clip-path="url(#c7_166)" preserveAspectRatio="none" x="152" y="452" width="75" height="76" xlink:href="img/7.png"/>
<path d="M204,521.9c0,0,-26.8,11.3,-51.1,-12.7c0,0,15.2,25.3,49.3,23.9c0,0,24.8,.4,20.3,-10.1c0,0,1.2,-4.4,-18.5,-1.1Z" class="gg_166"/>
<path d="M209.2,1051.3c0,0,-13,0,-13,13v21.6c0,0,0,13,13,13h602c0,0,13,0,13,-13v-21.6c0,0,0,-13,-13,-13Z" class="gg_166"/>
<image clip-path="url(#c8_166)" preserveAspectRatio="none" x="152" y="1022" width="75" height="76" xlink:href="img/8.png"/>
<path d="M204,1091.5c0,0,-26.8,11.4,-51.1,-12.7c0,0,15.2,25.3,49.3,24c0,0,24.8,.3,20.3,-10.2c0,0,1.2,-4.4,-18.5,-1.1Z" class="gg_166"/>
<path d="M131.7,397v38.9l11.7,10.3V402Z" class="gh_166"/>
<path d="M131.7,397v38.9H829.5c0,0,16.8,0,16.8,-16.8v-5.3c0,0,0,-16.8,-16.8,-16.8Z" class="gd_166"/>
<path d="M781,430.6c8.2,0,14.8,-6.5,14.8,-14.5c0,-8,-6.6,-14.5,-14.8,-14.5c-8.3,0,-14.9,6.5,-14.9,14.5c0,8,6.6,14.5,14.9,14.5Z" class="gi_166"/>
<path d="M781,430.6c8.2,0,14.8,-6.5,14.8,-14.5c0,-8,-6.6,-14.5,-14.8,-14.5c-8.3,0,-14.9,6.5,-14.9,14.5c0,8,6.6,14.5,14.9,14.5Z" class="gj_166"/>
<path d="M781,421.4c3,0,5.4,-2.4,5.4,-5.3c0,-3,-2.4,-5.4,-5.4,-5.4c-3.1,0,-5.5,2.4,-5.5,5.4c0,2.9,2.4,5.3,5.5,5.3Z" class="g1_166"/>
<path d="M781,421.4c3,0,5.4,-2.4,5.4,-5.3c0,-3,-2.4,-5.4,-5.4,-5.4c-3.1,0,-5.5,2.4,-5.5,5.4c0,2.9,2.4,5.3,5.5,5.3Z" class="gk_166"/>
<g clip-path="url(#c9_166)" opacity="0.3">
<path d="M766.4,415.3c0,0,-.1,-4.8,3.6,-8.6l7.8,6.7c0,0,-1,.9,-1.1,2.6Z" class="g1_166"/>
</g>
<path d="M785.6,416c0,0,-3.5,0,-3.5,3.4v8.7c0,0,0,3.5,3.5,3.5H829c0,0,3.5,0,3.5,-3.5v-8.7c0,0,0,-3.4,-3.5,-3.4Z" class="gl_166"/>
<path d="M169.5,407c0,-8.3,-6.7,-15,-15,-15c-8.4,0,-15.1,6.7,-15.1,15c0,8.4,6.8,15.1,15.1,15.1c.8,0,1.6,-.1,2.4,-.2l4.5,5.2v-6.7c4.8,-2.5,8.1,-7.5,8.1,-13.4Z" class="g1_166"/>
<path d="M161.8,428.4l-5.1,-6c-.7,.1,-1.5,.2,-2.2,.2c-8.6,0,-15.6,-7,-15.6,-15.6c0,-8.5,7,-15.5,15.6,-15.5c8.5,0,15.5,7,15.5,15.5c0,5.8,-3.1,11,-8.2,13.7Zm-4.7,-7l3.8,4.5v-5.8l.3,-.1c4.8,-2.5,7.9,-7.5,7.9,-13c0,-8,-6.6,-14.5,-14.6,-14.5c-8.1,0,-14.6,6.5,-14.6,14.5c0,8.1,6.5,14.6,14.6,14.6c.7,0,1.5,0,2.3,-.2Z" class="gm_166"/>
<path d="M147.4,406.6c.8,0,1.5,.7,1.5,1.5c0,.7,-.7,1.4,-1.5,1.4c-.7,0,-1.4,-.7,-1.4,-1.4c0,-.8,.7,-1.5,1.4,-1.5Z" class="gn_166"/>
<path d="M147.4,409.9c-1,0,-1.8,-.8,-1.8,-1.8c0,-1.1,.8,-2,1.8,-2c1.1,0,1.9,.9,1.9,2c0,1,-.8,1.8,-1.9,1.8m0,-2.8c-.5,0,-.9,.4,-.9,1c0,.5,.4,.9,.9,.9c.6,0,1,-.4,1,-.9c0,-.6,-.4,-1,-1,-1Z" class="gm_166"/>
<path d="M154.5,406.6c.8,0,1.4,.7,1.4,1.5c0,.7,-.6,1.4,-1.4,1.4c-.8,0,-1.5,-.7,-1.5,-1.4c0,-.8,.7,-1.5,1.5,-1.5Z" class="gn_166"/>
<path d="M154.5,409.9c-1.1,0,-1.9,-.8,-1.9,-1.8c0,-1.1,.8,-2,1.9,-2c1,0,1.9,.9,1.9,2c0,1,-.9,1.8,-1.9,1.8m0,-2.8c-.6,0,-1,.4,-1,1c0,.5,.4,.9,1,.9c.5,0,.9,-.4,.9,-.9c0,-.6,-.4,-1,-.9,-1Z" class="gm_166"/>
<path d="M161.5,406.6c.8,0,1.4,.7,1.4,1.5c0,.7,-.6,1.4,-1.4,1.4c-.8,0,-1.5,-.7,-1.5,-1.4c0,-.8,.7,-1.5,1.5,-1.5Z" class="gn_166"/>
<path d="M161.5,409.9c-1.1,0,-1.9,-.8,-1.9,-1.8c0,-1.1,.8,-2,1.9,-2c1,0,1.9,.9,1.9,2c0,1,-.9,1.8,-1.9,1.8m0,-2.8c-.6,0,-1,.4,-1,1c0,.5,.4,.9,1,.9c.5,0,1,-.4,1,-.9c0,-.6,-.5,-1,-1,-1Z" class="gm_166"/>
<path d="M163.4,421.3c0,-9.7,7.9,-17.6,17.6,-17.6c9.7,0,17.6,7.9,17.6,17.6c0,9.7,-7.9,17.6,-17.6,17.6c-.9,0,-1.9,-.1,-2.8,-.2l-5.3,6.1v-7.9c-5.6,-2.9,-9.5,-8.8,-9.5,-15.6Z" class="go_166"/>
<path d="M172.9,445.2c0,0,-.1,0,-.1,0c-.2,-.1,-.3,-.2,-.3,-.4v-7.6c-5.9,-3.1,-9.6,-9.2,-9.6,-15.9c0,-10,8.2,-18.1,18.1,-18.1c10,0,18.1,8.1,18.1,18.1c0,9.9,-8.1,18.1,-18.1,18.1c-.8,0,-1.7,-.1,-2.6,-.2l-5.1,5.9c-.1,.1,-.2,.1,-.4,.1M181,404.1c-9.4,0,-17.1,7.7,-17.1,17.2c0,6.4,3.5,12.3,9.2,15.2c.2,.1,.3,.3,.3,.4v6.6l4.4,-5.1c.1,-.1,.3,-.2,.5,-.2c.9,.2,1.8,.2,2.7,.2c9.5,0,17.2,-7.7,17.2,-17.1c0,-9.5,-7.7,-17.2,-17.2,-17.2Z" class="gm_166"/>
<path d="M189.2,420.8c.9,0,1.7,.7,1.7,1.7c0,.9,-.8,1.6,-1.7,1.6c-.9,0,-1.7,-.7,-1.7,-1.6c0,-1,.8,-1.7,1.7,-1.7Z" class="g1_166"/>
<path d="M189.2,424.6c-1.2,0,-2.1,-1,-2.1,-2.1c0,-1.2,.9,-2.2,2.1,-2.2c1.2,0,2.1,1,2.1,2.2c0,1.1,-.9,2.1,-2.1,2.1m0,-3.3c-.7,0,-1.2,.5,-1.2,1.2c0,.6,.5,1.2,1.2,1.2c.7,0,1.2,-.6,1.2,-1.2c0,-.7,-.5,-1.2,-1.2,-1.2Z" class="gm_166"/>
<path d="M181,420.8c.9,0,1.7,.7,1.7,1.7c0,.9,-.8,1.6,-1.7,1.6c-.9,0,-1.7,-.7,-1.7,-1.6c0,-1,.8,-1.7,1.7,-1.7Z" class="g1_166"/>
<path d="M181,424.6c-1.2,0,-2.1,-1,-2.1,-2.1c0,-1.2,.9,-2.2,2.1,-2.2c1.2,0,2.1,1,2.1,2.2c0,1.1,-.9,2.1,-2.1,2.1m0,-3.3c-.7,0,-1.2,.5,-1.2,1.2c0,.6,.5,1.2,1.2,1.2c.7,0,1.2,-.6,1.2,-1.2c0,-.7,-.5,-1.2,-1.2,-1.2Z" class="gm_166"/>
<path d="M172.8,420.8c.9,0,1.7,.7,1.7,1.7c0,.9,-.8,1.6,-1.7,1.6c-.9,0,-1.7,-.7,-1.7,-1.6c0,-1,.8,-1.7,1.7,-1.7Z" class="g1_166"/>
<path d="M172.8,424.6c-1.2,0,-2.1,-1,-2.1,-2.1c0,-1.2,.9,-2.2,2.1,-2.2c1.2,0,2.1,1,2.1,2.2c0,1.1,-.9,2.1,-2.1,2.1m0,-3.3c-.7,0,-1.2,.5,-1.2,1.2c0,.6,.5,1.2,1.2,1.2c.7,0,1.2,-.6,1.2,-1.2c0,-.7,-.5,-1.2,-1.2,-1.2Z" class="gm_166"/>
<path d="M32.1,179.3H967.5V32.1H32.1V179.3Z" class="gp_166"/>
<path d="M260.2,135.2L259,134H247.2l1.2,1.2h8.2v.9c-2.6,.8,-5,2.1,-7.4,3.7l1.6,2.3c1.7,.1,3,.7,4,1.6c.3,.3,.6,.6,1,1c.3,.4,.5,.8,.7,1c.1,.3,.3,.7,.5,1.3l.7,.8V135.2h2.5Zm-3.6,9.4c-1.1,-1.8,-2.7,-3.2,-4.9,-4.1c.9,-.6,1.7,-1.1,2.5,-1.5c.8,-.4,1.6,-.7,2.4,-1v6.6Zm-4.8,1.7c.3,.3,.6,.4,.9,.4c.4,0,.7,-.1,.9,-.4c.2,-.2,.4,-.5,.4,-.8c0,-.4,-.2,-.7,-.4,-.9c-.2,-.3,-.5,-.4,-.9,-.4c-.3,0,-.6,.1,-.9,.4c-.2,.2,-.3,.5,-.3,.9c0,.3,.1,.6,.3,.8Zm20.8,-11.1L271.5,134H258.4l1.2,1.2h5.1v4.1c0,1.7,.5,2.6,1.6,2.6c.4,-.1,.7,-.2,1.1,-.3c.3,-.2,.7,-.3,1,-.6c.3,-.2,.5,-.4,.8,-.7c.2,-.3,.4,-.6,.5,-.9c.5,.5,.7,1,.7,1.6c0,.5,-.2,1.1,-.5,1.5c-.3,.5,-.8,.9,-1.4,1.2c-.5,.3,-1.1,.4,-1.7,.4c-1.8,0,-3.1,-.9,-4.1,-2.7c-.3,-.7,-.6,-1.5,-.8,-2.3c-.3,-.9,-.4,-1.8,-.5,-2.7l-.8,-.4c.6,6.8,2.7,10.3,6.3,10.3c1.4,0,2.5,-.5,3.2,-1.4c.8,-.9,1.2,-2,1.2,-3.4c0,-.4,-.1,-.8,-.2,-1.2c-.1,-.4,-.2,-.8,-.4,-1.1c-.2,-.4,-.4,-.7,-.7,-1c-.2,-.3,-.6,-.6,-.9,-.8c-.3,.2,-.5,.5,-.7,.8c-.3,.4,-.5,.7,-.7,1c-.3,.3,-.5,.5,-.8,.7c-.3,.1,-.7,.2,-1.1,.1v-4.8h6.8Zm9.5,-1.2l-.9,2.7c-.1,-.3,-.3,-.6,-.5,-.9c-.2,-.3,-.5,-.6,-.7,-.8c-.3,-.2,-.6,-.4,-1,-.5c-.3,-.1,-.6,-.1,-1,-.1c-.6,0,-1.3,.3,-1.9,.8c-.6,.6,-.9,1.3,-.9,1.9c0,.7,.3,1.1,.9,1.1c.2,0,.4,-.1,.5,-.1c.2,-.1,.4,-.1,.6,-.2c.2,-.1,.4,-.1,.6,-.2c.2,0,.3,-.1,.4,-.1c.3,0,.4,.1,.4,.3c-.1,.4,-.5,.8,-1,1.3c-.1,.1,-.3,.2,-.5,.4c-.2,.2,-.5,.3,-.8,.5l1.5,1.3c1.4,-1.2,2.1,-2.2,2.1,-3.1c0,-.4,-.2,-.8,-.7,-1.2c-.4,-.3,-.8,-.4,-1.3,-.4c-.3,0,-.6,.1,-1,.2c.4,-.7,1,-1,1.9,-1c.7,0,1.2,.3,1.6,.8c.4,.5,.7,1.2,.8,2.1l1.3,-1.9c.3,.1,.6,.6,.9,1.2c.3,.7,.4,1.2,.4,1.6c0,.3,-.2,.5,-.6,.8c0,0,-.1,0,-.1,-.1c-.1,0,-.2,-.1,-.4,-.2c-.2,0,-.5,0,-.7,0c-.5,0,-.8,.1,-1.1,.4c-.2,.3,-.3,.6,-.3,1c.1,.4,.2,.7,.5,1.1c.3,.3,.7,.4,1.1,.4c.3,0,.7,-.1,1,-.3c0,0,0,.1,0,.2v.2c0,.2,0,.4,-.2,.6c-.1,.2,-.2,.4,-.4,.5c-.3,.1,-.5,.2,-.7,.2c-.3,.1,-.6,.1,-.8,.1c-2,0,-3.7,-1,-5,-3c-.4,-.8,-.8,-1.6,-1.2,-2.6c-.4,-1,-.7,-2.1,-.9,-3.2l-.9,-.5c.2,1.3,.5,2.6,.8,3.8c.4,1.2,.9,2.3,1.4,3.3c.7,1.3,1.6,2.3,2.5,3c1,.8,2,1.1,3.1,1.1c1,0,1.7,-.2,2.3,-.7c.6,-.5,.8,-1.2,.8,-2.1c0,-.6,-.2,-1.2,-.6,-1.8c.9,-.6,1.4,-1.2,1.4,-1.7c0,-.9,-.9,-3,-2.7,-6.2Zm9.9,0h-7.9l1.2,1.2h3.9c-1.7,2,-2.5,4,-2.5,6.1c0,1.5,.3,2.8,.9,3.9c.8,1.4,1.8,2.1,3.2,2.1c.3,0,.6,0,.9,-.1c.2,-.1,.5,-.2,.7,-.4c.2,-.2,.3,-.4,.4,-.7c.1,-.2,.2,-.5,.2,-.8c0,-.4,-.1,-.9,-.4,-1.2c-.3,-.3,-.7,-.5,-1.1,-.5c-.3,0,-.7,.2,-1,.4c-.3,.3,-.4,.6,-.4,1c0,.2,0,.4,.2,.7c.1,.2,.3,.4,.5,.6c-.7,.2,-1.4,-.2,-2.2,-1.3c-.4,-.7,-.7,-1.5,-.7,-2.3c0,-1,.1,-1.9,.3,-2.7c.2,-.7,.6,-1.4,1,-2.1c.4,-.7,1,-1.3,1.6,-1.7c.7,-.5,1.5,-.8,2.4,-1L292,134Zm13.6,1.2L304.4,134H291.1l1.3,1.2h9.8v3.3c-.5,-1.3,-1.3,-2,-2.2,-2c-.4,0,-.7,.2,-1,.5c-.4,.3,-.5,.6,-.5,1c-.8,-1,-1.8,-1.6,-2.8,-1.6c-.8,0,-1.4,.4,-2,1.2c-.4,.7,-.6,1.4,-.6,2.3c0,.5,0,1,.2,1.4c.2,.4,.4,.8,.7,1.1c.3,.3,.7,.5,1.1,.7c.5,.1,.9,.2,1.5,.2c.6,-.1,1.1,-.2,1.4,-.5c.3,-.3,.5,-.7,.5,-1.2c0,-1.1,-.6,-1.7,-1.6,-1.7c-.4,0,-.7,.1,-1,.3c-.3,.3,-.4,.6,-.4,1c0,.2,.1,.6,.4,1c-1.2,-.2,-1.7,-.8,-1.7,-1.7c0,-.3,0,-.6,.1,-.9c.2,-.3,.3,-.5,.5,-.7c.2,-.2,.5,-.4,.7,-.5c.3,-.1,.6,-.2,.9,-.2c.7,0,1.3,.2,1.8,.6c.5,.4,.8,1,1,1.6l.5,-.2c-.1,-.3,-.2,-.5,-.2,-.7c0,-.9,.4,-1.3,1.1,-1.3c.4,0,.8,.2,1.1,.5c.3,.3,.4,.7,.4,1.1v6.9l1.3,1.1V135.2h2.2Zm4.4,0L308.9,134h-1.1c-.4,-.4,-.6,-1,-.8,-1.9l-.4,-.3c0,.2,0,.5,0,.9c0,.3,.1,.7,.1,1.2c0,.5,.1,.9,.1,1.3c0,.3,0,.6,0,.9c-.2,-.8,-.6,-1.3,-1,-1.6c-.4,-.3,-.9,-.5,-1.7,-.5h-1.3l1.2,1.2c.3,0,.6,.1,1,.2c.3,.1,.6,.3,.8,.5c.3,.2,.5,.4,.6,.7c.2,.3,.2,.7,.2,1v8.9l1.2,1.2V135.2H310Zm20.3,0L329.1,134H316.2c.4,.4,.7,.7,.9,.9c.3,.2,.4,.4,.6,.5c.3,.2,.6,.4,.9,.6c.3,.1,.6,.2,.8,.3c.5,.1,1,.2,1.3,.3c.3,.1,.6,.2,.8,.4c.2,.2,.4,.4,.5,.7c.2,.4,.3,.8,.3,1.4c-.4,.5,-.7,.9,-1,1.3c-.2,.3,-.4,.5,-.6,.7c-.2,.2,-.3,.3,-.4,.4c-.1,0,-.2,0,-.3,0c-.1,0,-.3,0,-.4,-.1c-.2,-.1,-.3,-.3,-.4,-.4c-.1,-.2,-.2,-.4,-.2,-.6c-.1,-.2,-.1,-.3,-.2,-.5l-.8,.8c.2,.2,.3,.5,.5,.8c.2,.3,.4,.6,.6,.9c.2,.3,.5,.5,.8,.7c.3,.1,.6,.2,1,.2c.1,0,.2,0,.4,-.1c.1,0,.3,-.1,.5,-.3c.2,-.2,.5,-.5,.8,-.9c.3,-.4,.6,-.9,1,-1.6c.5,-.6,.9,-1,1.3,-1.1c.4,0,.8,.1,1.1,.4c.3,.4,.5,.9,.7,1.6c.2,.7,.3,1.6,.3,2.5v.4c0,.1,0,.3,0,.5c0,.1,0,.4,0,.7c0,.3,-.1,.6,-.1,1.1c.2,.2,.4,.4,.6,.6c.2,.3,.4,.5,.6,.7V135.2h2.2Zm-3.4,4.1c-.3,-.4,-.6,-.8,-.9,-1.1c-.3,-.4,-.6,-.6,-.9,-.7c-.3,-.1,-.7,-.1,-1,.1c-.3,.1,-.7,.4,-1.1,.8c0,-.6,-.1,-1.1,-.4,-1.6c-.2,-.5,-.7,-1,-1.3,-1.6h5.6v4.1Zm15.4,-7.4c-2.3,-2.4,-4.7,-3.6,-7.3,-3.6c-.9,0,-2,.4,-3,1.2c-1.1,.9,-1.6,1.8,-1.6,2.7c0,.4,.1,.7,.4,1l.9,.8h-3.2l1.2,1.2h1.8v11.3l1.2,1.2V135.2h2.1L333.6,134h-1.3l-.5,-1.1c.1,-.9,.6,-1.6,1.6,-2.3c1,-.7,1.9,-1,2.8,-1c.6,0,1.2,.1,1.8,.2c.6,.2,1.1,.4,1.7,.7c.6,.4,1.1,.7,1.6,1c.4,.4,.9,.7,1.3,1l-.3,-.6Zm3.7,3.3L344.8,134H333l1.2,1.2h8.2v.9c-2.5,.8,-5,2.1,-7.4,3.7l1.6,2.3c1.7,.1,3,.7,4.1,1.6c.3,.3,.6,.6,.9,1c.3,.4,.6,.8,.7,1c.2,.3,.3,.7,.6,1.3l.6,.8V135.2H346Zm-3.6,9.4c-1.1,-1.8,-2.7,-3.2,-4.8,-4.1c.8,-.6,1.7,-1.1,2.4,-1.5c.8,-.4,1.6,-.7,2.4,-1v6.6Zm-4.7,1.7c.2,.3,.5,.4,.9,.4c.3,0,.6,-.1,.8,-.4c.3,-.2,.4,-.5,.4,-.8c0,-.4,-.1,-.7,-.4,-.9c-.2,-.3,-.5,-.4,-.8,-.4c-.4,0,-.7,.1,-.9,.4c-.3,.2,-.4,.5,-.4,.9c0,.3,.1,.6,.4,.8ZM351.9,134H344l1.2,1.2h3.9c-1.7,2,-2.5,4,-2.5,6.1c0,1.5,.3,2.8,.9,3.9c.8,1.4,1.9,2.1,3.3,2.1c.2,0,.5,0,.8,-.1c.2,-.1,.5,-.2,.7,-.4c.2,-.2,.3,-.4,.4,-.7c.2,-.2,.2,-.5,.2,-.8c0,-.4,-.1,-.9,-.4,-1.2c-.3,-.3,-.6,-.5,-1,-.5c-.4,0,-.8,.2,-1.1,.4c-.3,.3,-.4,.6,-.4,1c0,.2,0,.4,.2,.7c.1,.2,.3,.4,.6,.6c-.8,.2,-1.5,-.2,-2.3,-1.3c-.4,-.7,-.7,-1.5,-.7,-2.3c0,-1,.1,-1.9,.3,-2.7c.3,-.7,.6,-1.4,1,-2.1c.4,-.7,1,-1.3,1.7,-1.7c.6,-.5,1.4,-.8,2.3,-1L351.9,134Zm11.7,1.2L362.4,134H351.3c.6,1,1.7,1.7,3.3,2.2c.7,.2,1.2,.4,1.6,.6c.5,.2,.7,.4,.9,.6c-.5,.4,-1.1,.8,-1.7,1.4c-.7,.5,-1.3,1.1,-1.9,1.7l1.6,2.1c1.4,.1,2.6,.5,3.5,1.2c.6,.5,1.2,1.2,1.8,2.3c.5,1,.9,1.6,1.3,1.8V135.2h1.9Zm-3.1,9.5c-1.1,-1.7,-2.6,-2.9,-4.5,-3.6c.5,-.5,1,-1.1,1.4,-1.6c.5,-.5,1,-.9,1.5,-1.4c-.6,-.7,-1.2,-1.3,-1.7,-1.8c-.5,-.5,-.9,-.9,-1.3,-1.1h4.6v9.5Zm-4.6,2c.2,.2,.5,.3,.8,.3c.4,0,.7,-.1,.9,-.3c.2,-.3,.4,-.6,.4,-.9c0,-.3,-.2,-.6,-.4,-.9c-.2,-.2,-.5,-.3,-.9,-.3c-.3,0,-.6,.1,-.8,.3c-.3,.3,-.4,.6,-.4,.9c0,.3,.1,.6,.4,.9Zm26.9,-11.5L381.6,134H369.8l1.2,1.2h8.2v.9c-2.5,.8,-4.9,2.1,-7.3,3.7l1.5,2.3c1.7,.1,3.1,.7,4.1,1.6c.3,.3,.6,.6,.9,1c.4,.4,.6,.8,.7,1c.2,.3,.4,.7,.6,1.3l.7,.8V135.2h2.4Zm-3.6,9.4c-1.1,-1.8,-2.7,-3.2,-4.8,-4.1c.9,-.6,1.7,-1.1,2.5,-1.5c.8,-.4,1.5,-.7,2.3,-1v6.6Zm-4.7,1.7c.3,.3,.5,.4,.9,.4c.3,0,.6,-.1,.9,-.4c.2,-.2,.3,-.5,.3,-.8c0,-.4,-.1,-.7,-.3,-.9c-.3,-.3,-.6,-.4,-.9,-.4c-.4,0,-.6,.1,-.9,.4c-.2,.2,-.4,.5,-.4,.9c0,.3,.2,.6,.4,.8Zm12.7,-11.1L386,134h-1c-.4,-.4,-.6,-1,-.8,-1.9l-.4,-.3c0,.2,0,.5,0,.9c0,.3,.1,.7,.1,1.2c0,.5,.1,.9,.1,1.3c0,.3,0,.6,0,.9c-.3,-.8,-.6,-1.3,-1,-1.6c-.4,-.3,-.9,-.5,-1.7,-.5H380l1.2,1.2c.3,0,.6,.1,1,.2c.3,.1,.6,.3,.8,.5c.3,.2,.5,.4,.6,.7c.1,.3,.2,.7,.2,1v8.9l1.2,1.2V135.2h2.2Zm6,-1.2h-8l1.2,1.2h4c-1.7,2,-2.5,4,-2.5,6.1c0,1.5,.3,2.8,.9,3.9c.7,1.4,1.8,2.1,3.2,2.1c.3,0,.6,0,.8,-.1c.3,-.1,.5,-.2,.7,-.4c.2,-.2,.4,-.4,.5,-.7c.1,-.2,.2,-.5,.2,-.8c0,-.4,-.2,-.9,-.5,-1.2c-.2,-.3,-.6,-.5,-1,-.5c-.4,0,-.7,.2,-1,.4c-.3,.3,-.5,.6,-.5,1c0,.2,.1,.4,.2,.7c.1,.2,.3,.4,.6,.6c-.7,.2,-1.5,-.2,-2.2,-1.3c-.5,-.7,-.7,-1.5,-.7,-2.3c0,-1,.1,-1.9,.3,-2.7c.2,-.7,.5,-1.4,.9,-2.1c.5,-.7,1.1,-1.3,1.7,-1.7c.7,-.5,1.4,-.8,2.3,-1L393.2,134Zm11.4,0c-.5,-.1,-.8,-.2,-1,-.6c0,-.1,-.1,-.2,-.1,-.5c0,-.2,0,-.5,0,-.7l-.7,-.4v12.3c-.8,-1.4,-2.1,-2.5,-3.8,-3.4c.7,-.2,1.3,-.6,1.9,-1.2c.6,-.6,.8,-1.3,.8,-2c0,-.7,-.2,-1.3,-.8,-1.9c-.1,-.1,-.3,-.2,-.6,-.5c-.2,-.3,-.6,-.6,-1.1,-1c-.2,.3,-.5,.5,-.7,.8c-.3,.2,-.4,.3,-.4,.4c-.3,.2,-.5,.3,-.8,.5c-.2,.1,-.5,.2,-.7,.2c-.1,-.7,-.4,-1.1,-1.2,-1.1c-.3,0,-.6,.2,-.9,.4c-.2,.3,-.4,.6,-.4,.9c0,.5,.2,.9,.6,1.2c.3,.3,.8,.5,1.2,.5c1.4,0,2.7,-.7,4,-2c.4,.4,.6,.8,.6,1.3c0,.4,-.2,.7,-.5,1c-.3,.2,-.7,.5,-1.3,.8c-.4,.2,-.9,.3,-1.3,.4c-.5,.1,-.9,.2,-1.3,.2c-.2,0,-.3,0,-.5,-.1c-.2,0,-.3,0,-.5,0l2.1,2.5c1.1,.1,2.2,.4,3.1,1c.5,.3,1,.6,1.4,1c.4,.4,.7,.9,1,1.3c.1,.1,.1,.3,.2,.5c.1,.2,.2,.5,.3,.8c.1,.2,.2,.3,.3,.5c.2,.2,.3,.4,.5,.5V135.2h1.8L404.6,134Zm12.5,1.2L415.9,134H404.2l1.2,1.2h8.4v6.6c-1.3,-2.6,-2.8,-4,-4.5,-4c-.8,0,-1.5,.3,-2.1,.9c-.5,.5,-.8,1.2,-.8,2c0,1.5,.7,2.2,2.3,2.2c.5,0,.9,-.2,1.2,-.5c.3,-.4,.4,-.8,.4,-1.3c0,-.3,-.2,-.8,-.8,-1.5c.1,-.1,.2,-.1,.4,-.1c1.3,0,2.4,.8,3.3,2.5c.7,1.4,1,2.9,1,4.2l-.1,1.3l.9,.6V135.2h2.1Z" class="gq_166"/>
<g clip-path="url(#c0_166)">
<path d="M1877,177.2H32.1v-5.4H768.7c43.1,0,53,-37.9,115.3,-37.9h993Z" class="gr_166"/>
<path d="M1877,183.7H32.1v-9.8H768.7c43.1,0,53,-33.6,115.3,-33.6h993Z" class="gs_166"/>
</g>
<image clip-path="url(#ca_166)" x="165" y="608" width="6" height="9" xlink:href="shade/1.png"/>
<image clip-path="url(#cb_166)" x="165" y="582" width="24" height="28" xlink:href="shade/2.png"/>
<image clip-path="url(#cc_166)" x="164" y="584" width="24" height="33" xlink:href="shade/3.png"/>
<image clip-path="url(#cd_166)" x="170" y="580" width="20" height="10" xlink:href="shade/4.png"/>
<image clip-path="url(#ce_166)" x="809" y="702" width="6" height="9" xlink:href="shade/5.png"/>
<image clip-path="url(#cf_166)" x="809" y="676" width="24" height="28" xlink:href="shade/6.png"/>
<image clip-path="url(#cg_166)" x="808" y="678" width="23" height="33" xlink:href="shade/7.png"/>
<image clip-path="url(#ch_166)" x="814" y="674" width="20" height="10" xlink:href="shade/8.png"/>
<image clip-path="url(#ci_166)" preserveAspectRatio="none" x="125" y="206" width="734" height="181" xlink:href="img/9.png"/>
<path d="M144.6,231.3c0,0,-13,0,-13,13v117c0,0,0,13,13,13H833.1c0,0,13,0,13,-13v-130Z" class="gt_166"/>
<path d="M147.7,294.1l54.1,40.8l54.1,-40.8V230h8.7V211.9H155.8c-6.5,.4,-7.7,3.9,-8.2,8.4Z" class="gu_166"/>
<path d="M274,220.3c-.3,-4.7,-4.2,-8.4,-9,-8.4c-4.8,0,-8.7,3.7,-9,8.4h-.1V230h18.2v-9.7Z" class="gl_166"/>
<path d="M255.9,230.6H846.1" class="gv_166"/>
<path d="M32.1,45.1H9.2m958.3,0h22.9M32.1,1331.3H9.2m958.3,0h22.9M45.1,32.1V9.2m0,1335.1v22.9M954.5,32.1V9.2m0,1335.1v22.9" class="gw_166"/>
<path d="M32.1,45.1H9.2m958.3,0h22.9M32.1,1331.3H9.2m958.3,0h22.9M45.1,32.1V9.2m0,1335.1v22.9M954.5,32.1V9.2m0,1335.1v22.9" class="gx_166"/>
<path d="M27.5,32.1H0m972.1,0h27.5M27.5,1344.3H0m972.1,0h27.5M32.1,27.5V0m0,1348.9v27.5M967.5,27.5V0m0,1348.9v27.5" class="gw_166"/>
<path d="M27.5,32.1H0m972.1,0h27.5M27.5,1344.3H0m972.1,0h27.5M32.1,27.5V0m0,1348.9v27.5M967.5,27.5V0m0,1348.9v27.5" class="gx_166"/>
</svg>