<?xml version="1.0" encoding="UTF-8" standalone="no"?>
<!DOCTYPE svg PUBLIC "-//W3C//DTD SVG 1.1//EN"
"http://www.w3.org/Graphics/SVG/1.1/DTD/svg11.dtd">
<svg viewBox="0 0 999 1376" version="1.1" xmlns="http://www.w3.org/2000/svg" xmlns:xlink="http://www.w3.org/1999/xlink">
<defs>
<clipPath id="c0_239"><path d="M32.1,1344.3V32.1H967.5V1344.3Z"/></clipPath>
<clipPath id="c1_239"><path d="M199.3,961.7l-6.5,-2.1l-16.3,-14v-57h71.9v73.1Z"/></clipPath>
<clipPath id="c2_239"><path d="M396.9,427.1V337.8h89.3v89.3Z"/></clipPath>
<clipPath id="c3_239"><path d="M240.1,546.5V479H348.6v67.5Z"/></clipPath>
<clipPath id="c4_239"><path d="M534.6,551V479.9H643.1V551Z"/></clipPath>
<clipPath id="c5_239"><path d="M387.4,547.5V477.6H495.8v69.9Z"/></clipPath>
<clipPath id="c6_239"><path d="M240.1,684.1V613.5H348.6v70.6Z"/></clipPath>
<clipPath id="c7_239"><path d="M681.9,684V613.5H790.3V684Z"/></clipPath>
<clipPath id="c8_239"><path d="M240.1,812.6V742.9H348.6v69.7Z"/></clipPath>
<clipPath id="c9_239"><path d="M681.9,813V742.6H790.3V813Z"/></clipPath>
<clipPath id="ca_239"><path d="M739.7,1091.7v-60.6h53.8v60.6Z"/></clipPath>
<clipPath id="cb_239"><path d="M604.2,1083.3v-45.7h68.4v45.7Z"/></clipPath>
<clipPath id="cc_239"><path d="M495.6,1082.2v-17.4l31.7,-12.9l-.3,-.9h12.8v31.2Z"/></clipPath>
<clipPath id="cd_239"><path d="M488.5,1067.6l-12,-29.7l18.9,-7.7h.6l8.4,20.8h-8.8v13.8l-7.1,2.8Z"/></clipPath>
<clipPath id="ce_239"><path d="M504.3,1051L496,1030.2h22.6L527,1051Z"/></clipPath>
<clipPath id="cf_239"><path d="M495.6,1064.8V1051H527l.3,.9l-31.7,12.9Z"/></clipPath>
<clipPath id="cg_239"><path d="M345.2,1055.7v-24.6H376v24.6Z"/></clipPath>
<clipPath id="ch_239"><path d="M375.9,1055.7v-24.6h34.3v24.6Z"/></clipPath>
<clipPath id="ci_239"><path d="M345.2,1077.9v-22.2H376v22.2Z"/></clipPath>
<clipPath id="cj_239"><path d="M375.9,1077.9v-22.2h34.3v22.2Z"/></clipPath>
<clipPath id="ck_239"><path d="M226.1,1090.7v-67.2h59.6v67.2Z"/></clipPath>
<clipPath id="cl_239"><path d="M592.9,446.7V350.3H660v96.4Z"/></clipPath>
<clipPath id="cm_239"><path d="M200.2,324.2l-6.5,-2.1l-16.4,-14V251h72v73.2Z"/></clipPath>
<clipPath id="cn_239"><path d="M658.6,177V59h200V177Z"/></clipPath>
<style type="text/css"><![CDATA[
.g0_239{
fill: #FEFCF4;
}
.g1_239{
fill: #FCE8B0;
}
.g2_239{
fill: #FFF;
}
.g3_239{
fill: none;
stroke: #6381B7;
stroke-width: 0.763;
}
.g4_239{
fill: none;
stroke: #949698;
stroke-width: 0.343;
}
.g5_239{
fill: none;
stroke: #949698;
stroke-width: 0.305;
}
.g6_239{
fill: #93BEDA;
}
.g7_239{
fill: #EFE9CC;
}
.g8_239{
fill: #6381B7;
}
.g9_239{
fill: none;
stroke: #6381B7;
stroke-width: 0.381;
stroke-dasharray: 2,1;
}
.ga_239{
fill: none;
stroke: #6381B7;
stroke-width: 0.381;
}
.gb_239{
fill: #F6BE37;
}
.gc_239{
fill: #F5AC38;
}
.gd_239{
fill: #181C27;
}
.ge_239{
fill: #2D3448;
}
.gf_239{
fill: #1D212F;
}
.gg_239{
fill: #BED0EA;
}
.gh_239{
fill: #316098;
}
.gi_239{
fill: #233354;
}
.gj_239{
fill: #264067;
}
.gk_239{
fill: #28578B;
}
.gl_239{
fill: #25408F;
}
.gm_239{
fill: #00BAF1;
}
.gn_239{
fill: #332D2C;
}
.go_239{
fill: #D9DFF0;
}
.gp_239{
fill: #F27C85;
}
.gq_239{
fill: #7DD3F6;
}
.gr_239{
fill: #2E6E51;
}
.gs_239{
fill: #BCBEC0;
}
.gt_239{
fill: #EE314A;
}
.gu_239{
fill: none;
stroke: #FFF;
stroke-width: 1.909;
stroke-miterlimit: 10;
}
.gv_239{
fill: none;
stroke: #000;
stroke-width: 0.381;
stroke-miterlimit: 10;
}
]]></style>
</defs>
<path clip-path="url(#c0_239)" d="M-877.3,1344.3H45.1V32.1H-877.3V1344.3Z" class="g0_239"/>
<path d="M45.1,1344.3H967.5V32.1H45.1V1344.3Z" class="g0_239"/>
<path d="M232,916.7c0,0,-13,0,-13,13v21.6c0,0,0,13,13,13H855.6c0,0,13,0,13,-13V929.7c0,0,0,-13,-13,-13Z" class="g1_239"/>
<image clip-path="url(#c1_239)" preserveAspectRatio="none" x="175" y="887" width="75" height="76" xlink:href="img/1.png"/>
<path d="M226.8,957c0,0,-26.9,11.3,-51.1,-12.8c0,0,15.1,25.3,49.3,24c0,0,24.7,.3,20.2,-10.1c0,0,1.2,-4.5,-18.4,-1.1Z" class="g1_239"/>
<path d="M172.1,223.8c0,0,-18.4,0,-18.4,18.3V863c0,0,0,18.3,18.4,18.3H849.2c0,0,18.3,0,18.3,-18.3V223.8Z" class="g2_239"/>
<path d="M172.1,223.8c0,0,-18.4,0,-18.4,18.3V863c0,0,0,18.3,18.4,18.3H849.2c0,0,18.3,0,18.3,-18.3V223.8H172.1Z" class="g3_239"/>
<path d="M240.1,427.1H348.6V337.8H240.1v89.3Z" class="g2_239"/>
<image preserveAspectRatio="none" x="250" y="338" width="89" height="89" xlink:href="img/2.jpg"/>
<path d="M240.1,427.1H348.6V337.8H240.1v89.3Z" class="g4_239"/>
<path d="M387.4,427.1H495.8V337.8H387.4v89.3Z" class="g2_239"/>
<image clip-path="url(#c2_239)" preserveAspectRatio="none" x="397" y="338" width="89" height="89" xlink:href="img/3.jpg"/>
<path d="M387.4,427.1H495.8V337.8H387.4v89.3Z" class="g4_239"/>
<path d="M240.1,551.8H348.6V479H240.1v72.8Z" class="g2_239"/>
<image clip-path="url(#c3_239)" preserveAspectRatio="none" x="240" y="477" width="109" height="70" xlink:href="img/4.jpg"/>
<path d="M240.1,551.8H348.6V479H240.1v72.8Z" class="g4_239"/>
<path d="M534.6,556.2H643.1V474.7H534.6v81.5Z" class="g2_239"/>
<image clip-path="url(#c4_239)" preserveAspectRatio="none" x="535" y="480" width="108" height="71" xlink:href="img/5.jpg"/>
<path d="M534.6,556.2H643.1V474.7H534.6v81.5Z" class="g4_239"/>
<path d="M387.4,553.2H495.8V477.6H387.4v75.6Z" class="g2_239"/>
<image clip-path="url(#c5_239)" preserveAspectRatio="none" x="387" y="477" width="109" height="70" xlink:href="img/6.jpg"/>
<path d="M387.4,553.2H495.8V477.6H387.4v75.6Z" class="g4_239"/>
<path d="M681.9,556.2H790.3V474.7H681.9v81.5Z" class="g2_239"/>
<image preserveAspectRatio="none" x="682" y="480" width="108" height="71" xlink:href="img/7.jpg"/>
<path d="M681.9,556.2H790.3V474.7H681.9v81.5Z" class="g4_239"/>
<path d="M240.1,689.5H348.6V608H240.1v81.5Z" class="g2_239"/>
<image clip-path="url(#c6_239)" preserveAspectRatio="none" x="240" y="613" width="109" height="71" xlink:href="img/8.jpg"/>
<path d="M240.1,689.5H348.6V608H240.1v81.5Z" class="g4_239"/>
<path d="M534.6,689.5H643.1V608H534.6v81.5Z" class="g2_239"/>
<image preserveAspectRatio="none" x="535" y="613" width="108" height="71" xlink:href="img/9.jpg"/>
<path d="M534.6,689.5H643.1V608H534.6v81.5Z" class="g4_239"/>
<path d="M387.4,689.5H495.8V608H387.4v81.5Z" class="g2_239"/>
<image preserveAspectRatio="none" x="387" y="613" width="109" height="71" xlink:href="img/10.jpg"/>
<path d="M387.4,689.5H495.8V608H387.4v81.5Z" class="g4_239"/>
<path d="M681.9,689.5H790.3V608H681.9v81.5Z" class="g2_239"/>
<image clip-path="url(#c7_239)" preserveAspectRatio="none" x="682" y="614" width="108" height="70" xlink:href="img/11.jpg"/>
<path d="M681.9,689.5H790.3V608H681.9v81.5Z" class="g4_239"/>
<path d="M240.1,818.5H348.6V737H240.1v81.5Z" class="g2_239"/>
<image clip-path="url(#c8_239)" preserveAspectRatio="none" x="240" y="743" width="109" height="70" xlink:href="img/12.jpg"/>
<path d="M240.1,818.5H348.6V737H240.1v81.5Z" class="g4_239"/>
<path d="M534.6,818.5H643.1V737H534.6v81.5Z" class="g2_239"/>
<image preserveAspectRatio="none" x="535" y="743" width="108" height="70" xlink:href="img/13.jpg"/>
<path d="M534.6,818.5H643.1V737H534.6v81.5Z" class="g4_239"/>
<path d="M387.4,818.5H495.8V737H387.4v81.5Z" class="g2_239"/>
<image preserveAspectRatio="none" x="387" y="743" width="109" height="70" xlink:href="img/14.jpg"/>
<path d="M387.4,818.5H495.8V737H387.4v81.5Z" class="g4_239"/>
<path d="M681.9,818.5H790.3V737H681.9v81.5Z" class="g2_239"/>
<image clip-path="url(#c9_239)" preserveAspectRatio="none" x="682" y="743" width="108" height="70" xlink:href="img/15.jpg"/>
<path d="M681.9,818.5H790.3V737H681.9v81.5Z" class="g4_239"/>
<path d="M162.1,977.1c0,0,-8.6,0,-8.6,7.3v207.3c0,0,0,7.4,8.6,7.4h697c0,0,8.7,0,8.7,-7.4V984.4c0,0,0,-7.3,-8.7,-7.3Z" class="g2_239"/>
<path d="M162.1,977.1c0,0,-8.6,0,-8.6,7.3v207.3c0,0,0,7.4,8.6,7.4h697c0,0,8.7,0,8.7,-7.4V984.4c0,0,0,-7.3,-8.7,-7.3h-697Z" class="g5_239"/>
<image clip-path="url(#ca_239)" preserveAspectRatio="none" x="736" y="1025" width="58" height="68" xlink:href="img/16.jpg"/>
<image clip-path="url(#cb_239)" preserveAspectRatio="none" x="604" y="1038" width="69" height="45" xlink:href="img/17.jpg"/>
<image clip-path="url(#cc_239)" preserveAspectRatio="none" x="496" y="1051" width="44" height="32" xlink:href="img/18.jpg"/>
<image clip-path="url(#cd_239)" preserveAspectRatio="none" x="476" y="1030" width="32" height="38" xlink:href="img/19.png"/>
<image clip-path="url(#ce_239)" preserveAspectRatio="none" x="496" y="1022" width="32" height="38" xlink:href="img/20.png"/>
<image clip-path="url(#cf_239)" preserveAspectRatio="none" x="496" y="1051" width="32" height="14" xlink:href="img/21.jpg"/>
<image clip-path="url(#cg_239)" preserveAspectRatio="none" x="342" y="1024" width="34" height="32" xlink:href="img/22.jpg"/>
<image clip-path="url(#ch_239)" preserveAspectRatio="none" x="376" y="1024" width="34" height="32" xlink:href="img/23.jpg"/>
<image clip-path="url(#ci_239)" preserveAspectRatio="none" x="342" y="1056" width="34" height="31" xlink:href="img/24.jpg"/>
<image clip-path="url(#cj_239)" preserveAspectRatio="none" x="376" y="1056" width="34" height="31" xlink:href="img/25.jpg"/>
<image clip-path="url(#ck_239)" preserveAspectRatio="none" x="218" y="1023" width="67" height="67" xlink:href="img/26.jpg"/>
<path d="M641.5,1144.9c2,0,3.6,-1.6,3.6,-3.6c0,-2,-1.6,-3.6,-3.6,-3.6c-2,0,-3.6,1.6,-3.6,3.6c0,2,1.6,3.6,3.6,3.6Z" class="g6_239"/>
<path d="M510.8,1144.9c2,0,3.6,-1.6,3.6,-3.6c0,-2,-1.6,-3.6,-3.6,-3.6c-2,0,-3.6,1.6,-3.6,3.6c0,2,1.6,3.6,3.6,3.6Z" class="g6_239"/>
<path d="M380,1144.9c2,0,3.6,-1.6,3.6,-3.6c0,-2,-1.6,-3.6,-3.6,-3.6c-2,0,-3.6,1.6,-3.6,3.6c0,2,1.6,3.6,3.6,3.6Z" class="g6_239"/>
<path d="M772.2,1144.9c2,0,3.6,-1.6,3.6,-3.6c0,-2,-1.6,-3.6,-3.6,-3.6c-2,0,-3.6,1.6,-3.6,3.6c0,2,1.6,3.6,3.6,3.6Z" class="g6_239"/>
<path d="M249.3,1144.9c2,0,3.6,-1.6,3.6,-3.6c0,-2,-1.6,-3.6,-3.6,-3.6c-2,0,-3.6,1.6,-3.6,3.6c0,2,1.6,3.6,3.6,3.6Z" class="g6_239"/>
<path d="M207.6,1155.9c0,0,-8.6,0,-8.6,8.7v15.1c0,0,0,8.7,8.6,8.7h82.3c0,0,8.7,0,8.7,-8.7v-15.1c0,0,0,-8.7,-8.7,-8.7Z" class="g7_239"/>
<path d="M337.9,1155.9c0,0,-8.7,0,-8.7,8.7v15.1c0,0,0,8.7,8.7,8.7h82.3c0,0,8.6,0,8.6,-8.7v-15.1c0,0,0,-8.7,-8.6,-8.7Z" class="g7_239"/>
<path d="M468.2,1155.9c0,0,-8.7,0,-8.7,8.7v15.1c0,0,0,8.7,8.7,8.7h82.3c0,0,8.6,0,8.6,-8.7v-15.1c0,0,0,-8.7,-8.6,-8.7Z" class="g7_239"/>
<path d="M598.5,1155.9c0,0,-8.7,0,-8.7,8.7v15.1c0,0,0,8.7,8.7,8.7h82.3c0,0,8.6,0,8.6,-8.7v-15.1c0,0,0,-8.7,-8.6,-8.7Z" class="g7_239"/>
<path d="M728.8,1155.9c0,0,-8.7,0,-8.7,8.7v15.1c0,0,0,8.7,8.7,8.7H811c0,0,8.7,0,8.7,-8.7v-15.1c0,0,0,-8.7,-8.7,-8.7Z" class="g7_239"/>
<path d="M641.5,1099.5c2,0,3.6,-1.7,3.6,-3.6c0,-2,-1.6,-3.7,-3.6,-3.7c-2,0,-3.6,1.7,-3.6,3.7c0,1.9,1.6,3.6,3.6,3.6Z" class="g6_239"/>
<path d="M510.8,1099.5c2,0,3.6,-1.7,3.6,-3.6c0,-2,-1.6,-3.7,-3.6,-3.7c-2,0,-3.6,1.7,-3.6,3.7c0,1.9,1.6,3.6,3.6,3.6Z" class="g6_239"/>
<path d="M380,1099.5c2,0,3.6,-1.7,3.6,-3.6c0,-2,-1.6,-3.7,-3.6,-3.7c-2,0,-3.6,1.7,-3.6,3.7c0,1.9,1.6,3.6,3.6,3.6Z" class="g6_239"/>
<path d="M772.2,1099.5c2,0,3.6,-1.7,3.6,-3.6c0,-2,-1.6,-3.7,-3.6,-3.7c-2,0,-3.6,1.7,-3.6,3.7c0,1.9,1.6,3.6,3.6,3.6Z" class="g6_239"/>
<path d="M249.3,1099.5c2,0,3.6,-1.7,3.6,-3.6c0,-2,-1.6,-3.7,-3.6,-3.7c-2,0,-3.6,1.7,-3.6,3.7c0,1.9,1.6,3.6,3.6,3.6Z" class="g6_239"/>
<path d="M625.5,1216.6c0,0,-4.3,0,-4.3,4.3v10.8c0,0,0,4.3,4.3,4.3h30.3c0,0,4.4,0,4.4,-4.3v-10.8c0,0,0,-4.3,-4.4,-4.3Z" class="g8_239"/>
<path d="M612.4,1209.1v34.8m1.3,1H866.1m1,-1.4v-34.8m-1.4,-1H613.3" class="g9_239"/>
<path d="M612.4,1244.3v.6h.5m253.6,0h.6v-.6m0,-36v-.6h-.6m-253.6,0h-.5v.6" class="ga_239"/>
<path d="M592.9,446.7H660V350.3H592.9v96.4Z" class="g2_239"/>
<g clip-path="url(#cl_239)">
<path d="M612.1,357.6v7c0,.6,.1,1.2,.2,1.8l-4,1.5l-1.2,.6l-10.2,27.2l5.4,2l4.8,-10.9v3.7l-.4,37.6h8.9l3.5,-22.2h.2V350.3c-4,0,-7.2,3.3,-7.2,7.3Z" class="gb_239"/>
<path d="M636.3,397.7l5.3,-2L631.5,368.5l-5.3,-2c.2,-.6,.3,-1.3,.3,-1.9v-7c0,-4,-3.2,-7.3,-7.2,-7.3v55.6h.1l3.6,22.2h8.9l-.4,-37.5v-3.8Z" class="gc_239"/>
</g>
<path d="M636.6,405.6c.4,.1,1,-.1,1.1,-.5c0,0,.6,-3.1,.6,-3.1c.2,.4,2.7,6.6,2.7,6.6c.1,.3,.4,.4,.7,.2c.4,-.1,.5,-.4,.4,-.7L640.2,403h.1l2.3,5.5c.1,.3,.4,.4,.7,.3c.4,-.2,.5,-.5,.4,-.7l-2.1,-5.6v-.1l2,4.8c.1,.2,.5,.3,.8,.2c.3,-.1,.5,-.4,.4,-.7L643,401.9l1.5,3.4c.1,.3,.5,.4,.7,.3c.3,-.1,.5,-.4,.3,-.7l-1.3,-3.5c-.1,-.4,-.7,-1.9,-.8,-2.1c-.3,-.7,-1.7,-3.5,-1.7,-3.5l-.1,-.1L636,397l.8,2l-.8,5.6c-.1,.4,.1,.8,.6,1Z" class="gd_239"/>
<path d="M602.5,404.6l-.8,-5.6l.9,-2l-5.7,-1.3v.1c0,0,-1.4,2.8,-1.7,3.5c-.1,.2,-.7,1.7,-.8,2.1l-1.4,3.5c-.1,.3,0,.6,.3,.7c.3,.1,.6,0,.7,-.3l1.5,-3.4h.1l-1.8,4.8c-.1,.3,0,.6,.4,.7c.3,.1,.6,0,.7,-.2l2,-4.8l.1,.1l-2.2,5.6c-.1,.2,.1,.5,.4,.7c.3,.1,.7,0,.8,-.3l2.3,-5.5h.1l-2,5.1c-.1,.3,.1,.6,.4,.7c.3,.2,.7,.1,.8,-.2c0,0,2.5,-6.2,2.6,-6.6c0,0,.7,3.1,.7,3.1c.1,.4,.6,.6,1.1,.5c.4,-.2,.6,-.6,.5,-1Z" class="gd_239"/>
<path d="M614,358.7v2.8c0,3,2.4,5.3,5.3,5.3V353.4c-2.9,0,-5.3,2.3,-5.3,5.3Z" class="ge_239"/>
<path d="M619.3,353.4v13.4c2.9,0,5.3,-2.3,5.3,-5.3v-2.8c0,-3,-2.4,-5.3,-5.3,-5.3Z" class="gf_239"/>
<path d="M614.6,358.8v2.6c0,2.6,2.1,4.7,4.7,4.7v-12c-2.6,0,-4.7,2.1,-4.7,4.7Z" class="g2_239"/>
<path d="M619.3,354.1v12c2.6,0,4.7,-2.1,4.7,-4.7v-2.6c0,-2.6,-2.1,-4.7,-4.7,-4.7Z" class="gg_239"/>
<path d="M615.6,428.1h-8.9v9l-3.2,3.2c-1.4,1.4,-1.4,3.6,0,5l.1,.1c1.3,1.3,3.6,1.3,4.9,0l5.2,-5.2c.6,-.6,1,-1.4,1,-2.1h.1Z" class="gd_239"/>
<path d="M635.1,440.3l-3.2,-3.2v-9H623l.8,10c.1,.7,.4,1.5,1,2.1l5.2,5.2c1.4,1.3,3.6,1.3,5,0l.1,-.1c1.4,-1.4,1.4,-3.6,0,-5Z" class="gd_239"/>
<path d="M621.2,374.9h6.2V374h-6.2v.9Z" class="g2_239"/>
<path d="M683.9,446.7h63.8V350.3H683.9v96.4Z" class="g2_239"/>
<path d="M716.1,358.1h10.6v-3.3H716.1v3.3Z" class="gh_239"/>
<path d="M726.7,354.8c0,.6,-2.4,1,-5.3,1c-2.9,0,-5.3,-.4,-5.3,-1c0,-.5,2.4,-1,5.3,-1c2.9,0,5.3,.5,5.3,1Z" class="gh_239"/>
<path d="M726.4,354.8c0,.5,-2.2,.8,-5,.8c-2.7,0,-5,-.3,-5,-.8c0,-.5,2.3,-.8,5,-.8c2.8,0,5,.3,5,.8Z" class="gi_239"/>
<path d="M704.8,384.4l-5.4,-2.1l2.9,-7.1l5.3,2.1Z" class="gj_239"/>
<path d="M704.8,384.4l-1.1,-.4l2.8,-7.1l1.1,.4Z" class="gb_239"/>
<path d="M716.1,358.1l-7,2.6l-1.3,.7h-.1l-12.5,31.5l7.7,3.1l4.9,-12.1v59h11.7l1.8,-45.3h.1V358.1Z" class="gh_239"/>
<path d="M747.7,392.9L735.1,361.4l-8.4,-3.3h-5.3v39.5h.2l1.8,45.3h11.7v-59l4.8,12.1Z" class="gk_239"/>
<path d="M707.8,427.3v3.8H720l.2,-3.8Z" class="gg_239"/>
<path d="M707.8,434.2v2.9h11.9l.2,-2.9Z" class="gg_239"/>
<path d="M723,434.2l.1,2.9h12v-2.9Z" class="gg_239"/>
<path d="M722.7,427.3l.2,3.8h12.2v-3.8Z" class="gg_239"/>
<path d="M727.7,413h7.4V398.9h-7.4V413Z" class="gj_239"/>
<path d="M727.7,402.5h7.4v-3.6h-7.4v3.6Z" class="gi_239"/>
<path d="M732.3,401c0,-.3,-.3,-.7,-.7,-.7c-.4,0,-.7,.4,-.7,.7c0,.4,.3,.7,.7,.7c.4,0,.7,-.3,.7,-.7Z" class="gb_239"/>
<path d="M707.8,413h7.4V398.9h-7.4V413Z" class="gj_239"/>
<path d="M707.8,402.5h7.4v-3.6h-7.4v3.6Z" class="gi_239"/>
<path d="M710.6,401c0,-.3,.3,-.7,.7,-.7c.3,0,.7,.4,.7,.7c0,.4,-.4,.7,-.7,.7c-.4,0,-.7,-.3,-.7,-.7Z" class="gb_239"/>
<path d="M721,396.1h.8V355.9H721v40.2Z" class="gi_239"/>
<path d="M709.9,373h9v-1.2h-9V373Z" class="gb_239"/>
<path d="M709.9,375.3h9v-1.2h-9v1.2Z" class="gb_239"/>
<path d="M723.8,377.9h8.7v-1.2h-8.7v1.2Z" class="gb_239"/>
<path d="M723.6,389h2.9v-5.3h-2.9V389Z" class="gj_239"/>
<path d="M723.6,385h2.9v-1.3h-2.9V385Z" class="gi_239"/>
<path d="M725.3,384.5c0,-.1,-.1,-.2,-.3,-.2c-.1,0,-.2,.1,-.2,.2c0,.2,.1,.3,.2,.3c.2,0,.3,-.1,.3,-.3Z" class="gb_239"/>
<path d="M726.7,389h2.9v-5.3h-2.9V389Z" class="gj_239"/>
<path d="M726.7,385h2.9v-1.3h-2.9V385Z" class="gi_239"/>
<path d="M728.4,384.5c0,-.1,-.1,-.2,-.2,-.2c-.2,0,-.3,.1,-.3,.2c0,.2,.1,.3,.3,.3c.1,0,.2,-.1,.2,-.3Z" class="gb_239"/>
<path d="M729.9,389h2.8v-5.3h-2.8V389Z" class="gj_239"/>
<path d="M729.9,385h2.8v-1.3h-2.8V385Z" class="gi_239"/>
<path d="M731.5,384.5c0,-.1,-.1,-.2,-.2,-.2c-.2,0,-.3,.1,-.3,.2c0,.2,.1,.3,.3,.3c.1,0,.2,-.1,.2,-.3Z" class="gb_239"/>
<path d="M709.9,371h2.8v-5.3h-2.8V371Z" class="gj_239"/>
<path d="M709.9,367.1h2.8v-1.4h-2.8v1.4Z" class="gi_239"/>
<path d="M711.5,366.6c0,-.2,-.1,-.3,-.2,-.3c-.2,0,-.3,.1,-.3,.3c0,.1,.1,.2,.3,.2c.1,0,.2,-.1,.2,-.2Z" class="gb_239"/>
<path d="M713,371h2.8v-5.3H713V371Z" class="gj_239"/>
<path d="M713,367.1h2.8v-1.4H713v1.4Z" class="gi_239"/>
<path d="M714.6,366.6c0,-.2,-.1,-.3,-.2,-.3c-.2,0,-.3,.1,-.3,.3c0,.1,.1,.2,.3,.2c.1,0,.2,-.1,.2,-.2Z" class="gb_239"/>
<path d="M716.1,371h2.8v-5.3h-2.8V371Z" class="gj_239"/>
<path d="M716.1,367.1h2.8v-1.4h-2.8v1.4Z" class="gi_239"/>
<path d="M717.8,366.6c0,-.2,-.2,-.3,-.3,-.3c-.2,0,-.3,.1,-.3,.3c0,.1,.1,.2,.3,.2c.1,0,.3,-.1,.3,-.2Z" class="gb_239"/>
<path d="M723.7,375.3h2.8v-3.4h-2.8v3.4Z" class="gj_239"/>
<path d="M723.7,373.3h2.8v-1.4h-2.8v1.4Z" class="gi_239"/>
<path d="M725.4,372.8c0,-.1,-.2,-.3,-.3,-.3c-.2,0,-.3,.2,-.3,.3c0,.2,.1,.3,.3,.3c.1,0,.3,-.1,.3,-.3Z" class="gb_239"/>
<path d="M726.8,375.3h2.8v-3.4h-2.8v3.4Z" class="gj_239"/>
<path d="M726.8,373.3h2.8v-1.4h-2.8v1.4Z" class="gi_239"/>
<path d="M728.5,372.8c0,-.1,-.1,-.3,-.3,-.3c-.1,0,-.3,.2,-.3,.3c0,.2,.2,.3,.3,.3c.2,0,.3,-.1,.3,-.3Z" class="gb_239"/>
<path d="M729.9,375.3h2.8v-3.4h-2.8v3.4Z" class="gj_239"/>
<path d="M729.9,373.3h2.8v-1.4h-2.8v1.4Z" class="gi_239"/>
<path d="M731.6,372.8c0,-.1,-.1,-.3,-.3,-.3c-.1,0,-.2,.2,-.2,.3c0,.2,.1,.3,.2,.3c.2,0,.3,-.1,.3,-.3Z" class="gb_239"/>
<path d="M723.6,371.2h9.2v-5.7h-9.2v5.7Z" class="gj_239"/>
<path d="M732.8,367.1l-4.6,1.1l-4.6,-1.1v-1.6h9.2Z" class="gi_239"/>
<path d="M728.8,367.3c0,-.3,-.3,-.6,-.6,-.6c-.3,0,-.6,.3,-.6,.6c0,.3,.3,.6,.6,.6c.3,0,.6,-.3,.6,-.6Z" class="gb_239"/>
<path d="M709.8,389H719v-5.8h-9.2V389Z" class="gj_239"/>
<path d="M719,384.8l-4.6,1.1l-4.6,-1.1v-1.6H719Z" class="gi_239"/>
<path d="M715,385.1c0,-.4,-.3,-.6,-.6,-.6c-.3,0,-.6,.2,-.6,.6c0,.3,.3,.5,.6,.5c.3,0,.6,-.2,.6,-.5Z" class="gb_239"/>
<path d="M721,356.3l-.2,-.4l.3,-.4h.7l.3,.4l-.3,.4Z" class="gb_239"/>
<path d="M721.4,357c0,0,-.1,0,-.1,-.1c0,-.1,.1,-.1,.1,-.1c.1,0,.2,0,.2,.1c0,.1,-.1,.1,-.2,.1m-.2,-.6c0,.4,.1,.8,.2,.8c.2,0,.3,-.4,.3,-.8Z" class="gb_239"/>
<path d="M721.3,356.4h.3v-.2h-.3v.2Z" class="gb_239"/>
<path d="M232.8,279.2c0,0,-13,0,-13,13v21.6c0,0,0,13,13,13h602c0,0,13,0,13,-13V292.2c0,0,0,-13,-13,-13Z" class="g1_239"/>
<image clip-path="url(#cm_239)" preserveAspectRatio="none" x="176" y="249" width="75" height="77" xlink:href="img/27.png"/>
<path d="M227.6,319.5c0,0,-26.8,11.3,-51.1,-12.8c0,0,15.2,25.3,49.3,24c0,0,24.7,.3,20.2,-10.1c0,0,1.3,-4.5,-18.4,-1.1Z" class="g1_239"/>
<path d="M153.3,213.7v22.2L165,246.2V224Z" class="gl_239"/>
<path d="M153.3,196.9v39H851.1c0,0,16.8,0,16.8,-16.8v-5.4c0,0,0,-16.8,-16.8,-16.8Z" class="g8_239"/>
<path d="M211.3,208.3l-6.5,-6.5L183.6,223l6.5,6.5Z" class="gm_239"/>
<path d="M190.1,230.1c.1,0,.3,-.1,.4,-.2l21.2,-21.2c.1,-.1,.1,-.2,.1,-.4c0,-.1,0,-.3,-.1,-.3l-6.5,-6.5c-.2,-.2,-.6,-.2,-.8,0l-21.2,21.2c-.1,.1,-.1,.2,-.1,.3c0,.2,0,.3,.1,.4l6.5,6.5c.1,.1,.3,.2,.4,.2m20.5,-21.8l-20.5,20.5L184.3,223l20.5,-20.4Z" class="gn_239"/>
<path d="M211.3,208.3l-6.5,-6.5l2.1,-2.1l6.5,6.5Z" class="go_239"/>
<path d="M211.3,208.8c.1,0,.3,0,.4,-.1l2.1,-2.1c.1,-.1,.2,-.3,.2,-.4c0,-.2,-.1,-.3,-.2,-.4l-6.5,-6.5c-.2,-.2,-.5,-.2,-.7,0l-2.2,2.2c-.1,.1,-.1,.2,-.1,.3c0,.2,0,.3,.1,.4l6.5,6.5c.1,.1,.3,.1,.4,.1m1.4,-2.6l-1.4,1.4l-5.7,-5.8l1.3,-1.4Z" class="gn_239"/>
<path d="M217,202.6l-6.4,-6.5l-3.7,3.6l6.5,6.5Z" class="gp_239"/>
<path d="M213.4,206.7c.2,0,.3,0,.4,-.1l3.6,-3.7c.2,-.2,.2,-.5,0,-.7l-6.5,-6.5c-.2,-.2,-.5,-.2,-.7,0l-3.6,3.6c-.2,.2,-.2,.6,0,.8l6.5,6.5c.1,.1,.2,.1,.3,.1m2.9,-4.1l-2.9,2.8l-5.7,-5.7l2.9,-2.9Z" class="gn_239"/>
<path d="M179,234.2L183.6,223l6.5,6.5Z" class="g2_239"/>
<path d="M179,234.7c0,0,.1,0,.2,-.1L190.3,230c.2,0,.3,-.2,.3,-.4c0,-.1,0,-.3,-.1,-.4L184,222.7c-.1,-.2,-.3,-.2,-.5,-.2c-.2,.1,-.3,.2,-.4,.3L178.5,234c-.1,.2,0,.4,.1,.5c.1,.1,.2,.2,.4,.2m10.2,-5.4l-9.3,3.9l3.9,-9.2Z" class="gn_239"/>
<path d="M179,234.2l2.2,-5.4l3.1,3.1Z" class="gn_239"/>
<path d="M179,234.7c0,0,.1,0,.2,-.1l5.3,-2.2c.2,-.1,.3,-.2,.4,-.4c0,-.1,-.1,-.3,-.2,-.4l-3.1,-3.2c-.1,-.1,-.3,-.2,-.5,-.1c-.2,0,-.3,.1,-.4,.3l-2.2,5.4c-.1,.2,0,.4,.1,.5c.1,.1,.2,.2,.4,.2m4.4,-3l-3.5,1.5l1.5,-3.5Z" class="gn_239"/>
<path d="M209.5,206.6l-2.9,-3l-21.2,21.2l2.9,3Z" class="gq_239"/>
<path d="M188.3,228.3c.2,0,.3,-.1,.4,-.2l21.2,-21.2c.1,-.1,.2,-.2,.2,-.3c0,-.2,-.1,-.3,-.2,-.4l-3,-3c-.2,-.2,-.5,-.2,-.7,0L185,224.4c-.1,.1,-.2,.3,-.2,.4c0,.1,.1,.3,.2,.4l3,2.9c.1,.1,.2,.2,.3,.2m20.5,-21.7L188.3,227l-2.2,-2.2l20.5,-20.5Z" class="gn_239"/>
<path d="M32.1,179.3H967.5V32.1H32.1V179.3Z" class="gr_239"/>
<g clip-path="url(#c0_239)">
<path d="M967.5,177.2H-877.3v-5.4h736.6c43.1,0,53.1,-37.9,115.3,-37.9H967.5Z" class="gs_239"/>
<path d="M967.5,183.7H-877.3v-9.8h736.6c43.1,0,53.1,-33.6,115.3,-33.6H967.5Z" class="gt_239"/>
</g>
<image clip-path="url(#cn_239)" preserveAspectRatio="none" x="659" y="59" width="200" height="118" xlink:href="img/28.png"/>
<path d="M32.1,45.1H9.2m958.3,0h22.9M32.1,1331.3H9.2m958.3,0h22.9M45.1,32.1V9.2m0,1335.1v22.9M954.5,32.1V9.2m0,1335.1v22.9" class="gu_239"/>
<path d="M32.1,45.1H9.2m958.3,0h22.9M32.1,1331.3H9.2m958.3,0h22.9M45.1,32.1V9.2m0,1335.1v22.9M954.5,32.1V9.2m0,1335.1v22.9" class="gv_239"/>
<path d="M27.5,32.1H0m972.1,0h27.5M27.5,1344.3H0m972.1,0h27.5M32.1,27.5V0m0,1348.9v27.5M967.5,27.5V0m0,1348.9v27.5" class="gu_239"/>
<path d="M27.5,32.1H0m972.1,0h27.5M27.5,1344.3H0m972.1,0h27.5M32.1,27.5V0m0,1348.9v27.5M967.5,27.5V0m0,1348.9v27.5" class="gv_239"/>
</svg>