<?xml version="1.0" encoding="UTF-8" standalone="no"?>
<!DOCTYPE svg PUBLIC "-//W3C//DTD SVG 1.1//EN"
"http://www.w3.org/Graphics/SVG/1.1/DTD/svg11.dtd">
<svg viewBox="0 0 999 1376" version="1.1" xmlns="http://www.w3.org/2000/svg" xmlns:xlink="http://www.w3.org/1999/xlink">
<defs>
<clipPath id="c0_168"><path d="M32.1,1344.3V32.1H967.5V1344.3Z"/></clipPath>
<clipPath id="c1_168"><path d="M176.6,539l-6.5,-2.1L153.7,523V465.9h72V539Z"/></clipPath>
<clipPath id="c2_168"><path d="M176.6,1038.9l-6.5,-2.1l-16.4,-13.9V965.8h72v73.1Z"/></clipPath>
<clipPath id="c3_168"><path d="M178.4,137.2c.1,-1.3,.7,-2.5,1.6,-3.4c1,-1,2.4,-1.6,3.9,-1.6h19.2v5Z"/></clipPath>
<clipPath id="c4_168"><path d="M177.9,137.7v-6h25.7v6Z"/></clipPath>
<style type="text/css"><![CDATA[
.g0_168{
fill: #FEFCF4;
}
.g1_168{
fill: #FFF;
}
.g2_168{
fill: none;
stroke: #6381B7;
stroke-width: 0.763;
}
.g3_168{
fill: #F0E8F3;
}
.g4_168{
fill: none;
stroke: #231F20;
stroke-width: 0.305;
stroke-miterlimit: 10;
}
.g5_168{
fill: #DCE9F3;
}
.g6_168{
fill: #9BD1EA;
}
.g7_168{
fill: none;
stroke: #58595B;
stroke-width: 0.381;
stroke-miterlimit: 10;
}
.g8_168{
fill: none;
stroke: #231F20;
stroke-width: 0.42;
stroke-miterlimit: 10;
}
.g9_168{
fill: none;
stroke: #FFF;
stroke-width: 0.152;
}
.ga_168{
fill: #6381B7;
}
.gb_168{
fill: none;
stroke: #6381B7;
stroke-width: 0.381;
stroke-dasharray: 2,1;
}
.gc_168{
fill: none;
stroke: #6381B7;
stroke-width: 0.381;
}
.gd_168{
fill: #FCE8B0;
}
.ge_168{
fill: #25408F;
}
.gf_168{
fill: none;
stroke: #231F20;
stroke-width: 1.527;
}
.gg_168{
fill: #39B4D1;
stroke: #2D2A4A;
stroke-width: 1.038;
stroke-linecap: round;
stroke-linejoin: round;
}
.gh_168{
fill: #2D2A4A;
}
.gi_168{
fill: none;
stroke: #2D2A4A;
stroke-width: 1.038;
stroke-linecap: round;
stroke-linejoin: round;
}
.gj_168{
fill: #DEDAD3;
}
.gk_168{
fill: #29263F;
}
.gl_168{
fill: #E15F46;
stroke: #2D2A4A;
stroke-width: 1.038;
stroke-linecap: round;
stroke-linejoin: round;
}
.gm_168{
fill: none;
stroke: #FFF;
stroke-width: 1.909;
stroke-miterlimit: 10;
}
.gn_168{
fill: none;
stroke: #000;
stroke-width: 0.381;
stroke-miterlimit: 10;
}
]]></style>
</defs>
<path clip-path="url(#c0_168)" d="M954.5,1344.3H1877V32.1H954.5V1344.3Z" class="g0_168"/>
<path d="M145.1,565.3c0,0,-13,0,-13,13V870.9c0,0,0,13,13,13h688c0,0,13,0,13,-13V578.3c0,0,0,-13,-13,-13Z" class="g1_168"/>
<path d="M145.1,565.3c0,0,-13,0,-13,13V870.9c0,0,0,13,13,13h688c0,0,13,0,13,-13V578.3c0,0,0,-13,-13,-13h-688Z" class="g2_168"/>
<path d="M199.9,625.4c0,0,-4.3,0,-4.3,4.3v60.7c0,0,0,4.3,4.3,4.3H754.2c0,0,4.4,0,4.4,-4.3V629.7c0,0,0,-4.3,-4.4,-4.3Z" class="g3_168"/>
<path d="M226.4,679.9H513" class="g4_168"/>
<path d="M199.9,754.1c0,0,-4.3,0,-4.3,4.3V819c0,0,0,4.4,4.3,4.4H754.2c0,0,4.4,0,4.4,-4.4V758.4c0,0,0,-4.3,-4.4,-4.3Z" class="g3_168"/>
<path d="M226.4,808.6H513" class="g4_168"/>
<path d="M149,167.6c0,0,-17.3,0,-17.3,17.4V405.8c0,0,0,17.3,17.3,17.3H828.9c0,0,17.4,0,17.4,-17.3V185c0,0,0,-17.4,-17.4,-17.4Z" class="g5_168"/>
<path d="M192.3,216.6H374.2v26H192.3v-26Zm181.9,0H612.4v26H374.2v-26Zm238.2,0H794.3v26H612.4v-26Z" class="g6_168"/>
<path d="M192.3,242.6H374.2v57.3H192.3V242.6Zm181.9,0H612.4v57.3H374.2V242.6Zm238.2,0H794.3v57.3H612.4V242.6Z" class="g1_168"/>
<path d="M192.3,216.6H374.2m0,0H612.4M374.2,242.4V216.8m238.2,-.2H794.3M612.4,242.4V216.8M192.3,242.6H374.2m0,0H612.4M374.2,299.7V242.8m238.2,-.2H794.3M612.4,299.7V242.8m-420.1,57H374.2m0,0H612.4m0,0H794.3" class="g7_168"/>
<path d="M145.1,948.1c0,0,-13,0,-13,12.9v228.4c0,0,0,13,13,13H832.9c0,0,13,0,13,-13V961c0,0,0,-12.9,-13,-12.9Z" class="g0_168"/>
<path d="M145.1,948.1c0,0,-13,0,-13,12.9v228.4c0,0,0,13,13,13H832.9c0,0,13,0,13,-13V961c0,0,0,-12.9,-13,-12.9H145.1Z" class="g2_168"/>
<path d="M279.5,1125.5h89.8m-70.8,28.9h89.8m-61.4,28.8h89.8" class="g8_168"/>
<path d="M279.2,1088.9H712.3v-31.4H279.2v31.4Z" class="g3_168"/>
<path d="M170.5,1110.4c-.4,.4,-.8,.7,-1.2,1.1c-.5,.3,-.9,.6,-1.4,.8v1.1c.5,-.2,.9,-.5,1.4,-.7c.4,-.3,.8,-.7,1.2,-1.1v11.1h1.1v-12c0,-.2,-.1,-.2,-.1,-.3c0,0,-.1,0,-.2,0h-.8Zm6.3,12.5h1.4v-1.5h-1.4v1.5ZM187,1111.3c-.6,.9,-.9,2.3,-.9,4.2c0,1.9,.3,3.3,.9,4.2c.7,1,1.5,1.4,2.5,1.4c.7,0,1.3,-.2,1.8,-.6c.6,-.5,1,-1.2,1.3,-2.1h3.6v6h1v-14.9h-1v3h-3.7c-.2,-.9,-.6,-1.5,-1.2,-2c-.5,-.4,-1.1,-.6,-1.8,-.6c-1,0,-1.8,.4,-2.5,1.4Zm9.2,2.1v4.1h-3.4c0,-.3,.1,-.6,.1,-.9c0,-.4,0,-.7,0,-1.1c0,-.4,0,-.7,0,-1.1c-.1,-.3,-.1,-.7,-.1,-1h3.4Zm-4.9,-1.3c.4,.8,.6,2,.6,3.4c0,1.4,-.2,2.6,-.6,3.4c-.5,.9,-1.1,1.3,-1.8,1.3c-.8,0,-1.3,-.4,-1.8,-1.3c-.4,-.8,-.6,-2,-.6,-3.4c0,-1.4,.2,-2.6,.6,-3.4c.5,-.9,1,-1.3,1.8,-1.3c.7,0,1.3,.4,1.8,1.3Zm9.6,-1.7v.9H206c-.2,2,-.8,3.8,-1.8,5.4c-1,1.5,-2.4,2.8,-4.2,3.7l.9,.8c1.9,-1.3,3.4,-2.8,4.5,-4.6c1,-1.8,1.6,-3.7,1.7,-5.9c0,-.1,0,-.2,0,-.2c-.1,-.1,-.2,-.1,-.3,-.1h-5.9Zm9.5,14h1.1v-14.9h-1.1v14.9Zm4.6,-13.1c-.6,1,-.8,2.4,-.8,4.2c0,1.9,.2,3.4,.8,4.3c.6,.9,1.3,1.4,2.2,1.4c.9,0,1.6,-.5,2.1,-1.3c.6,-.9,.9,-2.1,1,-3.9h1.8v7.7h1.1v-14h-1.1v5.3h-1.8c-.1,-1.7,-.4,-2.9,-1,-3.8c-.5,-.8,-1.2,-1.2,-2.1,-1.2c-.9,0,-1.6,.4,-2.2,1.3Zm3.7,.8c.4,.9,.6,2,.6,3.4c0,1.5,-.2,2.6,-.6,3.5c-.4,.8,-.9,1.2,-1.5,1.2c-.6,0,-1.1,-.4,-1.5,-1.2c-.3,-.9,-.5,-2,-.5,-3.5c0,-1.4,.2,-2.5,.5,-3.4c.4,-.8,.9,-1.2,1.5,-1.2c.6,0,1.1,.4,1.5,1.2Zm6.2,12.3h1v-14.9h-1v14.9Zm11.4,-13.2c0,1.4,-.4,2.5,-1.1,3.5c-.8,.9,-1.8,1.6,-3,2.2l.9,.7c.9,-.4,1.7,-1,2.3,-1.6c.7,-.6,1.1,-1.4,1.4,-2.3c.4,.9,1,1.6,1.6,2.1c.7,.5,1.5,1,2.2,1.4l.7,-.9c-.5,-.2,-1,-.4,-1.5,-.7c-.5,-.3,-.9,-.7,-1.3,-1.1c-.4,-.5,-.6,-.9,-.9,-1.5c-.2,-.5,-.3,-1.1,-.3,-1.7v-1.4h-1v1.3Zm6.6,7.4h1V1114h2.2v-.9h-2.2v-3.6h-1v9.1Zm-6.9,1c-.9,.6,-1.3,1.3,-1.3,2.1c0,.9,.4,1.6,1.3,2.1c.8,.6,2,.9,3.5,.9c1.5,0,2.7,-.3,3.6,-.9c.8,-.5,1.2,-1.2,1.2,-2.1c0,-.8,-.4,-1.5,-1.2,-2.1c-.9,-.5,-2.1,-.8,-3.6,-.8c-1.5,0,-2.7,.3,-3.5,.8Zm6.2,.6c.7,.3,1,.9,1,1.5c0,.4,-.1,.7,-.3,.9c-.1,.3,-.4,.5,-.7,.7c-.4,.1,-.8,.3,-1.2,.4c-.5,.1,-1,.1,-1.5,.1c-.5,0,-1,0,-1.5,-.1c-.4,-.1,-.8,-.3,-1.1,-.4c-.4,-.2,-.6,-.4,-.8,-.7c-.2,-.2,-.3,-.5,-.3,-.9c0,-.3,.1,-.6,.3,-.9c.2,-.2,.4,-.4,.8,-.6c.3,-.2,.7,-.3,1.1,-.4c.5,-.1,1,-.1,1.5,-.1c1.1,0,2,.2,2.7,.5Zm5.4,-8.9h3.2v1.2c0,1.8,-.3,3.3,-1.1,4.7c-.7,1.4,-1.8,2.5,-3.2,3.4l1,.7c.4,-.3,.9,-.7,1.3,-1.1c.4,-.4,.7,-.9,1.1,-1.3c.3,-.5,.6,-1,.9,-1.5c.2,-.5,.4,-1,.5,-1.5c.4,1.1,.9,2,1.6,2.9c.8,.8,1.5,1.5,2.4,2.1l.8,-.8c-1.4,-.8,-2.5,-1.9,-3.2,-3.1c-.7,-1.2,-1,-2.6,-1,-4.2v-1.5h3.3v-.9h-7.6v.9Zm9.5,13.1h1.1v-8.1h2.2v-1h-2.2v-5.8h-1.1v14.9Zm5.8,-14.6v.9h8.4v1.4h-8.1c-.1,0,-.2,0,-.3,.1c0,0,0,.1,0,.2v2.4q0,.2,0,.3c.1,0,.2,.1,.3,.1h9.5v-.9h-8.8v-1.4H272c.1,0,.2,0,.3,-.1c0,0,0,-.1,0,-.2v-2.4c0,-.1,0,-.2,0,-.3c-.1,0,-.2,-.1,-.3,-.1h-9.1Zm-1.9,7.5h13.3v-.8H261v.8Zm11.4,4.5c0,0,.1,-.1,.1,-.2V1119c0,-.1,-.1,-.1,-.1,-.2c0,0,-.1,-.1,-.2,-.1h-9.3v.9h8.5v1.4h-8.2c-.1,0,-.2,.1,-.3,.1c0,.1,0,.2,0,.3v2.5c0,.1,0,.2,0,.3c.1,0,.2,0,.3,0h9.6v-.8h-8.9v-1.5h8.3c.1,0,.2,0,.2,-.1Zm103.3,-11.2c0,.1,-.1,.2,-.1,.3v5.4c0,.1,.1,.2,.1,.3c0,0,.1,0,.2,0h2.3v3.6h-3.3v.9h2.3c.4,0,.9,0,1.3,0c.5,0,1,0,1.5,-.1c.5,0,1,-.1,1.4,-.1c.5,-.1,.8,-.2,1.2,-.2v-.9c-.6,.1,-1.2,.2,-1.7,.2c-.6,.1,-1.1,.1,-1.7,.2v-3.6h2.7v-.8h-5.3v-4.4h5v-.9h-5.7c-.1,0,-.2,.1,-.2,.1Zm7.3,13.1h1v-7.1h2v7.8h1v-14.9h-1v6.1h-2v-5.9h-1v14Zm10.3,-13.6c-.6,.2,-1.1,.4,-1.6,.8c-.4,.3,-.8,.7,-1,1.2c-.2,.5,-.4,1.1,-.4,1.7c0,.6,.2,1.2,.4,1.7c.2,.5,.6,.9,1,1.3c.5,.3,1,.6,1.6,.7c.6,.2,1.3,.3,2.1,.3c.7,0,1.4,-.1,2,-.3c.7,-.1,1.2,-.4,1.6,-.7c.5,-.4,.8,-.8,1.1,-1.3c.2,-.5,.3,-1.1,.3,-1.7c0,-.6,-.1,-1.2,-.3,-1.7c-.3,-.5,-.6,-.9,-1.1,-1.2c-.4,-.4,-.9,-.6,-1.6,-.8c-.6,-.2,-1.3,-.3,-2,-.3c-.8,0,-1.5,.1,-2.1,.3Zm3.7,.8c.5,.1,.9,.3,1.2,.6c.4,.3,.7,.6,.8,1c.2,.4,.3,.8,.3,1.3c0,.5,-.1,1,-.3,1.3c-.1,.4,-.4,.7,-.8,1c-.3,.3,-.7,.5,-1.2,.7c-.5,.1,-1,.2,-1.6,.2c-.6,0,-1.1,-.1,-1.6,-.2c-.5,-.2,-.9,-.4,-1.3,-.7c-.3,-.3,-.6,-.6,-.8,-1c-.2,-.3,-.3,-.8,-.3,-1.3c0,-.5,.1,-.9,.3,-1.3c.2,-.4,.5,-.7,.8,-1c.4,-.3,.8,-.5,1.3,-.6c.5,-.2,1,-.2,1.6,-.2c.6,0,1.1,0,1.6,.2Zm-5,10.5h-3.3v1H402v-1h-3.2v-3.2h-1.1v3.2H393v-3.2h-1v3.2Zm12.1,1.5h1.4v-1.5h-1.4v1.5Zm-237.2,28.6c0,0,.1,.1,.2,.1h7v-1h-6.2c.5,-.5,1.1,-1.1,1.8,-1.8c.6,-.7,1.3,-1.4,1.9,-2.1c.6,-.8,1.1,-1.5,1.6,-2.3c.4,-.8,.6,-1.6,.6,-2.3c0,-1.1,-.3,-1.9,-1,-2.4c-.6,-.5,-1.4,-.8,-2.4,-.8c-.5,0,-1,.1,-1.4,.2c-.4,.2,-.8,.4,-1.1,.7c-.3,.3,-.6,.7,-.7,1.1c-.2,.4,-.3,.9,-.3,1.4H168c0,-.3,0,-.6,.2,-1c.1,-.3,.2,-.5,.4,-.8c.3,-.2,.5,-.4,.8,-.5c.3,-.1,.6,-.2,.9,-.2c.7,0,1.3,.2,1.7,.6c.5,.4,.8,1,.8,1.8c0,.3,-.1,.6,-.2,.9c-.2,.4,-.3,.7,-.6,1.1c-.2,.4,-.4,.8,-.7,1.2c-.3,.4,-.6,.8,-.9,1.2c-.4,.4,-.7,.8,-1,1.2c-.4,.4,-.7,.7,-1,1c-.3,.4,-.6,.7,-.9,1c-.3,.2,-.5,.5,-.7,.6v.8c0,.2,0,.3,.1,.3Zm9.9,.3h1.4v-1.5h-1.4v1.5Zm9.9,-9.8h7.9v-1h-7.9v1Zm1.9,-2.5h4.1v-.9h-4.1v.9Zm-.5,7.4c.5,.4,1.2,.6,2.1,.7v1.9H186v.9h1.6c.6,0,1.3,0,2,0c.7,0,1.5,0,2.2,-.1c.7,0,1.5,0,2.2,-.1c.7,0,1.4,-.1,2.1,-.2v-.9c-.7,.1,-1.5,.2,-2.4,.2c-.8,.1,-1.6,.1,-2.5,.2v-1.9c.9,-.1,1.6,-.3,2.1,-.7c.5,-.5,.7,-1,.7,-1.7c0,-.7,-.3,-1.2,-.8,-1.7c-.6,-.4,-1.4,-.7,-2.5,-.7c-1.1,0,-1.9,.3,-2.5,.7c-.6,.5,-.8,1,-.8,1.7c0,.7,.2,1.2,.7,1.7Zm4.3,-.6c-.4,.3,-1,.4,-1.7,.4c-.8,0,-1.3,-.1,-1.7,-.4c-.4,-.2,-.6,-.6,-.6,-1c0,-.5,.2,-.9,.6,-1.1c.4,-.3,.9,-.5,1.7,-.5c.7,0,1.3,.2,1.7,.5c.4,.2,.6,.6,.6,1.1c0,.4,-.2,.8,-.6,1Zm4.1,6.9h1.1v-14.9h-1.1v14.9Zm6.6,-14.1c-.5,.2,-.9,.5,-1.2,.8c-.3,.3,-.6,.7,-.7,1.2c-.2,.4,-.3,.9,-.3,1.4c0,.5,.1,1,.3,1.4c.1,.5,.4,.8,.7,1.2c.3,.3,.7,.6,1.2,.7c.4,.2,.9,.3,1.5,.3c.5,0,1,-.1,1.5,-.2c.4,-.2,.8,-.5,1.2,-.8c.3,-.3,.5,-.7,.7,-1.1c.2,-.5,.3,-1,.3,-1.5c0,-.5,-.1,-1,-.3,-1.5c-.2,-.4,-.4,-.8,-.7,-1.1c-.4,-.3,-.7,-.6,-1.2,-.8c-.4,-.2,-.9,-.3,-1.5,-.3c-.6,0,-1.1,.1,-1.5,.3Zm3.5,1.5c.4,.5,.6,1.1,.6,1.9c0,.7,-.2,1.4,-.6,1.9c-.5,.5,-1.2,.8,-2,.8c-.9,0,-1.5,-.3,-1.9,-.8c-.5,-.5,-.7,-1.2,-.7,-1.9c0,-.8,.2,-1.4,.7,-1.9c.4,-.6,1,-.8,1.9,-.8c.8,0,1.5,.2,2,.8Zm-6.6,9.1h1.7c1.6,0,3.1,0,4.6,-.1c1.4,-.1,2.7,-.2,3.8,-.4v-.9c-.4,0,-.9,.1,-1.4,.2c-.6,0,-1.1,.1,-1.7,.1c-.5,0,-1,.1,-1.5,.1c-.4,0,-.8,0,-1.1,0l-4.4,.1v.9Zm10.6,3.5h1v-14.9h-1v14.9Zm8.6,-13.1h3.2v1.2c0,1.8,-.4,3.4,-1.1,4.7c-.8,1.4,-1.8,2.5,-3.2,3.4l1,.8c.4,-.4,.8,-.8,1.2,-1.2c.4,-.4,.8,-.8,1.1,-1.3c.4,-.5,.7,-1,.9,-1.5c.3,-.5,.5,-1,.6,-1.5c.4,1.1,.9,2.1,1.6,2.9c.7,.8,1.5,1.5,2.3,2.1l.9,-.8c-1.4,-.8,-2.5,-1.8,-3.2,-3c-.7,-1.3,-1,-2.7,-1,-4.2v-1.6h3.3v-.9h-7.6v.9Zm9.5,13.2h1.1v-8.2H232v-1h-2.2v-5.8h-1.1v15Zm15,-9.7c.1,-.1,.1,-.2,.1,-.3v-3.9c0,-.1,0,-.2,-.1,-.2c0,-.1,-.1,-.1,-.2,-.1h-9.1v.9h8.4v2.8h-8.1c-.1,0,-.2,0,-.2,.1c-.1,0,-.1,.1,-.1,.2v3.8q0,.2,.1,.3c0,.1,.1,.1,.2,.1h1.9v3h-4v.9h13.3v-.9h-3.8v-3h2.3v-.9h-9v-2.7h8.1c.1,0,.2,-.1,.2,-.1Zm-2.6,6.7h-3.5v-3h3.5v3Zm7.6,-11.6v.8h8.4v1.4H249q-.2,0,-.3,.1c0,0,0,.1,0,.2v2.5c0,.1,0,.2,0,.2q.1,.1,.3,.1h9.5v-.9h-8.8v-1.4h8.1c.1,0,.2,0,.3,0c0,-.1,0,-.2,0,-.3V1139c0,-.1,0,-.2,0,-.3c-.1,0,-.2,0,-.3,0h-9.1Zm-1.9,7.4h13.3v-.8H246.8v.8Zm11.4,4.5c0,0,.1,-.1,.1,-.2v-2.5c0,-.1,-.1,-.2,-.1,-.3q-.1,0,-.3,0h-9.2v.8h8.5v1.5H249q-.2,0,-.3,.1c0,0,0,.1,0,.2v2.5q0,.2,0,.3q.1,0,.3,0h9.6v-.8h-8.9v-1.5h8.2q.2,0,.3,-.1Zm14.3,-2.2H268v-8.2h4.5v8.2Zm1,-8.8c0,-.2,0,-.3,-.1,-.3c0,0,-.1,-.1,-.2,-.1h-5.9c-.1,0,-.2,.1,-.2,.1c-.1,0,-.1,.1,-.1,.3v9.4c0,.1,0,.2,.1,.2c0,.1,.1,.1,.2,.1h5.9c.1,0,.2,0,.2,-.1c.1,0,.1,-.1,.1,-.2v-9.4Zm3.1,13.6h1v-14.9h-1v14.9Zm5.4,-3.7h.9c.3,0,.7,0,1.2,0c.4,0,.9,0,1.3,0c.5,0,.9,-.1,1.4,-.1c.5,0,1,-.1,1.4,-.1c.4,-.1,.8,-.2,1.2,-.2c.3,-.1,.6,-.1,.9,-.2v-.9c-.3,0,-.5,.1,-.9,.1c-.4,.1,-.8,.2,-1.3,.2c-.5,.1,-1,.1,-1.5,.2c-.5,0,-1,0,-1.5,0l-2.8,.1v-3.9h5.1c.1,0,.2,0,.3,-.1c0,0,0,-.1,0,-.2v-5c0,-.1,0,-.2,0,-.2c-.1,-.1,-.2,-.1,-.3,-.1h-6.1v.9h5.5v3.8h-5.2c-.1,0,-.2,0,-.2,.1c-.1,0,-.1,.1,-.1,.2v5.1c0,.1,0,.2,.1,.3c0,0,.1,0,.2,0h.4Zm8.9,3.7h1v-14.9h-1v14.9Zm108.7,-10.8v1.8h-6.1v.9h13.2v-.9h-6.1v-1.8h4.6v-.9h-8.9v-3.3h-1v3.9c0,.1,0,.2,0,.2c.1,.1,.2,.1,.3,.1h4Zm-4.9,6.5h10.9v-.8H394.7v.8Zm2.5,-1.9H403v-.9h-5.8v.9Zm1,3c-.6,.1,-1.1,.2,-1.5,.3c-.4,.2,-.8,.4,-1,.6c-.2,.2,-.4,.5,-.4,.8c0,.3,.2,.6,.4,.8c.2,.2,.6,.4,1,.5c.4,.2,.9,.3,1.5,.4c.6,0,1.2,.1,1.9,.1c.7,0,1.3,-.1,1.9,-.1c.6,-.1,1.1,-.2,1.5,-.4c.4,-.1,.7,-.3,1,-.5c.2,-.2,.3,-.5,.3,-.8c0,-.3,-.1,-.6,-.3,-.8c-.3,-.2,-.6,-.4,-1,-.6c-.5,-.1,-1,-.2,-1.5,-.3c-.6,-.1,-1.2,-.1,-1.9,-.1c-.7,0,-1.3,0,-1.9,.1Zm3.3,.8c.4,0,.8,.1,1.1,.1c.3,.1,.6,.2,.8,.3c.2,.1,.3,.3,.3,.5c0,.2,-.1,.3,-.3,.5c-.2,.1,-.5,.2,-.8,.3c-.3,0,-.7,.1,-1.1,.1c-.5,0,-.9,.1,-1.4,.1c-.5,0,-1,-.1,-1.4,-.1c-.4,0,-.8,-.1,-1.1,-.1c-.3,-.1,-.6,-.2,-.8,-.3c-.2,-.2,-.3,-.3,-.3,-.5c0,-.2,.1,-.4,.3,-.5c.2,-.1,.5,-.2,.8,-.3c.3,0,.7,-.1,1.1,-.1c.5,-.1,.9,-.1,1.4,-.1c.5,0,.9,0,1.4,.1Zm10.8,-11.9c-.7,.2,-1.2,.5,-1.6,.8c-.5,.4,-.8,.8,-1.1,1.3c-.2,.5,-.3,1.1,-.3,1.7c0,.6,.1,1.2,.3,1.7c.3,.5,.6,.9,1.1,1.2c.4,.4,.9,.7,1.6,.8c.6,.2,1.3,.3,2,.3c.8,0,1.5,-.1,2.1,-.3c.6,-.1,1.1,-.4,1.6,-.8c.4,-.3,.7,-.7,1,-1.2c.2,-.5,.4,-1.1,.4,-1.7c0,-.6,-.2,-1.2,-.4,-1.7c-.3,-.5,-.6,-.9,-1,-1.3c-.5,-.3,-1,-.6,-1.6,-.8c-.6,-.2,-1.3,-.3,-2.1,-.3c-.7,0,-1.4,.1,-2,.3Zm3.6,.8c.5,.2,.9,.4,1.3,.7c.3,.2,.6,.6,.8,1c.2,.4,.3,.8,.3,1.3c0,.5,-.1,.9,-.3,1.3c-.2,.4,-.5,.7,-.8,1c-.4,.3,-.8,.5,-1.3,.6c-.5,.2,-1,.3,-1.6,.3c-.6,0,-1.1,-.1,-1.6,-.3c-.5,-.1,-.9,-.3,-1.2,-.6c-.4,-.3,-.6,-.6,-.8,-1c-.2,-.4,-.3,-.8,-.3,-1.3c0,-.5,.1,-.9,.3,-1.3c.2,-.4,.4,-.8,.8,-1c.3,-.3,.7,-.5,1.2,-.7c.5,-.1,1,-.2,1.6,-.2c.6,0,1.1,.1,1.6,.2Zm-8.3,11.3H421v-.9H407.6v.9Zm17.6,-9.9c0,1.9,-.3,3.6,-.8,4.9c-.6,1.4,-1.6,2.5,-2.9,3.5l1,.6c.8,-.6,1.5,-1.4,2.1,-2.3c.5,-.8,.9,-1.7,1.1,-2.7c.2,.9,.6,1.7,1.1,2.4c.5,.8,1.1,1.4,1.9,2l.8,-.8c-1.1,-.6,-1.9,-1.5,-2.4,-2.7c-.5,-1.2,-.8,-2.7,-.8,-4.5V1139h-1.1v2.1Zm8.1,12.1h1v-14.9h-1v14.9ZM430.5,1143h-2.7v1h2.7v8.5h1v-13.9h-1v4.4Zm10.2,-4.1c-.6,.2,-1.2,.5,-1.6,.8c-.4,.4,-.8,.8,-1,1.3c-.3,.5,-.4,1,-.4,1.6c0,.7,.1,1.2,.4,1.7c.2,.5,.6,1,1,1.3c.4,.3,1,.6,1.6,.8c.6,.2,1.3,.2,2.1,.2c.7,0,1.4,0,2,-.2c.6,-.2,1.2,-.5,1.6,-.8c.4,-.3,.8,-.8,1,-1.3c.3,-.5,.4,-1,.4,-1.7c0,-.6,-.1,-1.1,-.4,-1.6c-.2,-.5,-.6,-.9,-1,-1.3c-.4,-.3,-1,-.6,-1.6,-.8c-.6,-.2,-1.3,-.3,-2,-.3c-.8,0,-1.5,.1,-2.1,.3Zm3.6,.8c.5,.2,.9,.4,1.3,.6c.3,.3,.6,.7,.8,1c.2,.4,.3,.9,.3,1.3c0,.5,-.1,1,-.3,1.4c-.2,.4,-.5,.7,-.8,.9c-.4,.3,-.8,.5,-1.3,.7c-.4,.1,-1,.2,-1.5,.2c-.6,0,-1.2,-.1,-1.7,-.2c-.4,-.2,-.9,-.4,-1.2,-.7c-.3,-.2,-.6,-.5,-.8,-.9c-.2,-.4,-.3,-.9,-.3,-1.4c0,-.4,.1,-.9,.3,-1.3c.2,-.3,.5,-.7,.8,-1c.3,-.2,.8,-.4,1.2,-.6c.5,-.1,1.1,-.2,1.7,-.2c.5,0,1.1,.1,1.5,.2Zm-4.9,10.6h-3.3v.9h13.3v-.9h-3.3V1147h-1v3.3h-4.7V1147h-1v3.3Zm12.1,1.5h1.4v-1.5h-1.4v1.5Zm-282,22.6c0,0,.1,0,.2,0h.6c.3,.1,.7,.1,1,.2c.4,.1,.7,.3,.9,.5c.3,.2,.5,.5,.7,.8c.2,.3,.2,.7,.2,1.1c0,.8,-.2,1.5,-.7,2c-.5,.5,-1.2,.7,-2,.7c-.9,0,-1.5,-.2,-2,-.6c-.5,-.5,-.7,-1.1,-.8,-1.9h-1.1c.1,1.1,.4,1.9,1.1,2.6c.6,.6,1.5,.9,2.7,.9c.5,0,1,-.1,1.5,-.2c.4,-.2,.9,-.4,1.2,-.7c.4,-.3,.7,-.7,.9,-1.1c.2,-.4,.3,-1,.3,-1.6c0,-.8,-.2,-1.5,-.7,-2.1c-.4,-.6,-1.2,-.9,-2.1,-1.1c.9,-.2,1.6,-.5,2,-1.1c.3,-.5,.5,-1.1,.5,-1.8c0,-.5,0,-1,-.2,-1.4c-.2,-.4,-.5,-.8,-.8,-1.1c-.3,-.2,-.7,-.4,-1.2,-.6c-.4,-.1,-.8,-.2,-1.3,-.2c-1.1,0,-2,.3,-2.7,.9c-.6,.6,-1,1.4,-1,2.4h1.1c0,-.8,.3,-1.3,.8,-1.7c.4,-.4,1,-.6,1.7,-.6c.7,0,1.4,.2,1.8,.6c.5,.4,.8,1,.8,1.7c0,.8,-.3,1.4,-.8,1.8c-.6,.4,-1.2,.6,-1.9,.6h-.5c-.1,0,-.2,0,-.2,.1c0,0,0,.1,0,.2v.5c0,.1,0,.2,0,.2Zm7.3,6.2h1.4v-1.5h-1.4v1.5ZM187,1168c0,0,0,.1,0,.2v6.6c0,.1,0,.2,0,.2q.1,.1,.3,.1h2.8v2.9h-4.3v.9H189c.6,0,1.3,0,2,0c.7,0,1.4,-.1,2.1,-.1c.6,0,1.2,-.1,1.7,-.1c.5,-.1,.9,-.1,1.1,-.2v-.9c-.3,.1,-.6,.1,-1.1,.2c-.4,0,-.9,.1,-1.4,.1c-.4,0,-.9,.1,-1.3,.1c-.4,0,-.7,0,-1,0v-2.9h3.2v-.9h-6.4v-2.3h6.2v-.8h-6.2v-2.3h6.2v-.9h-6.8q-.2,0,-.3,.1Zm9.4,14.1h1v-15h-1v15Zm4.7,-14.5v.9h9c-.1,.4,-.1,.8,-.1,1.3c-.1,.5,-.2,1,-.2,1.5c-.1,.5,-.2,1,-.3,1.5c0,.5,-.1,.9,-.2,1.3h-9.9v.9h13.3v-.9h-2.3c.1,-.9,.3,-1.9,.4,-3c.1,-1.1,.2,-2.1,.3,-3.2q0,-.1,-.1,-.2c0,-.1,-.1,-.1,-.2,-.1h-9.7Zm10.3,14.1v-.9h-9.2v-4.2h-.9v4.8c0,.1,0,.2,0,.3c.1,0,.2,0,.3,0h9.8Zm8.1,-12.9h3.1v.7c0,1.2,-.4,2.4,-1,3.4c-.6,1.1,-1.7,1.9,-3.1,2.5l.9,.8c.9,-.5,1.6,-1.1,2.2,-1.7c.6,-.7,1.1,-1.5,1.5,-2.5c.4,.8,.9,1.6,1.5,2.1c.6,.6,1.3,1.1,2.2,1.6l.8,-.8c-.6,-.3,-1.1,-.5,-1.6,-.9c-.5,-.4,-.9,-.8,-1.3,-1.2c-.3,-.5,-.6,-1,-.8,-1.6c-.2,-.5,-.3,-1.1,-.3,-1.7v-.7h3v-.9h-7.1v.9Zm10,1.9h-3.2v.9h3.2v6.6h1.1v-11.1h-1.1v3.6Zm1.5,11v-.9h-8.6v-3.9h-1.1v4.5c0,.1,.1,.2,.1,.3q.1,0,.3,0H231Zm2.7,-13.6v.9h2.7c-.1,1.8,-.4,3.5,-1.1,5c-.6,1.6,-1.5,3,-2.6,4.2l1,.5c1.2,-1.4,2.1,-2.9,2.7,-4.7c.7,-1.7,1,-3.6,1.1,-5.6c0,-.1,0,-.2,-.1,-.3c0,0,-.1,0,-.2,0h-3.5Zm4.2,0v.9h2.7c-.1,1.9,-.4,3.7,-1,5.4c-.6,1.7,-1.4,3.2,-2.6,4.6l1,.5c1.2,-1.7,2.1,-3.4,2.7,-5.3c.6,-1.9,.9,-3.8,.9,-5.8c0,-.1,0,-.2,0,-.3c-.1,0,-.2,0,-.3,0h-3.4Zm5.5,14h1v-7.8h2v-1h-2v-6.2h-1v15Zm4.5,-13.1h3.2v1.1c0,1.8,-.3,3.4,-1.1,4.7c-.7,1.4,-1.8,2.5,-3.1,3.4l.9,.8c.9,-.7,1.7,-1.5,2.4,-2.4c.7,-1,1.2,-2,1.5,-3.1c.3,1.1,.9,2,1.6,2.9c.6,.8,1.4,1.6,2.3,2.2l.8,-.8c-1.5,-1,-2.5,-2,-3.2,-3.2c-.7,-1.2,-1,-2.6,-1,-4.1V1169h3.3v-1h-7.6v1Zm10.2,13.1h1.1v-15h-1.1v15Zm8.8,-13.3h3v.3c0,.7,-.1,1.4,-.3,1.9c-.2,.6,-.5,1.1,-.8,1.6c-.4,.5,-.8,.9,-1.3,1.2c-.5,.4,-1.1,.7,-1.7,1l.9,.7c.9,-.5,1.7,-1,2.4,-1.7c.6,-.6,1.1,-1.4,1.3,-2.3c.4,.8,.9,1.5,1.6,2c.6,.6,1.4,1.1,2.2,1.5l.8,-.8c-.6,-.2,-1.1,-.5,-1.6,-.8c-.5,-.3,-.9,-.7,-1.3,-1.1c-.3,-.4,-.6,-.9,-.8,-1.4c-.2,-.6,-.3,-1.1,-.3,-1.8v-.3h3v-.9h-7.1v.9Zm9.5,7.3h1v-4.3h2.1v-.9h-2.1v-3.8h-1v9Zm-8.2,.8v.9h8.2v4.4h1v-5c0,-.1,0,-.2,0,-.2c-.1,-.1,-.2,-.1,-.3,-.1h-8.9Zm14.6,-9.3c-.5,.2,-.9,.4,-1.2,.8c-.3,.3,-.5,.7,-.7,1.1c-.2,.5,-.3,.9,-.3,1.4c0,.5,.1,1,.3,1.4c.2,.5,.4,.8,.7,1.2c.3,.3,.7,.6,1.2,.8c.4,.1,.9,.2,1.5,.2c1,0,1.8,-.2,2.4,-.8c.7,-.6,1.1,-1.3,1.2,-2.2H291v3.5h1v-7.9h-1v3.5h-3.1c0,-.5,-.2,-.9,-.3,-1.3c-.2,-.4,-.5,-.8,-.8,-1.1c-.3,-.2,-.7,-.5,-1.1,-.6c-.4,-.2,-.9,-.3,-1.4,-.3c-.6,0,-1.1,.1,-1.5,.3Zm3.4,1.4c.5,.5,.7,1.2,.7,1.9c0,.8,-.2,1.4,-.7,1.9c-.5,.6,-1.1,.8,-1.9,.8c-.9,0,-1.5,-.2,-2,-.8c-.4,-.5,-.6,-1.1,-.6,-1.9c0,-.7,.2,-1.4,.6,-1.9c.5,-.5,1.1,-.8,2,-.8c.8,0,1.4,.3,1.9,.8Zm4.8,12h-7.2v-2.3H291v2.3Zm-8.2,.8q.1,.1,.3,.1h8.6c.1,0,.2,0,.2,-.1c.1,0,.1,-.1,.1,-.2v-5.8h-1v2h-7.2v-2h-1v5.8c0,.1,0,.2,0,.2Zm12.5,-13h3.1v.3c0,1.4,-.4,2.5,-1.2,3.5c-.7,.9,-1.7,1.6,-2.9,2.2l.9,.7c1,-.6,1.8,-1.1,2.4,-1.8c.6,-.6,1,-1.3,1.3,-2.1c.3,.7,.8,1.4,1.5,1.9c.7,.6,1.4,1.1,2.3,1.5l.7,-.8c-.6,-.2,-1.1,-.4,-1.6,-.8c-.4,-.3,-.9,-.6,-1.2,-1.1c-.4,-.4,-.7,-.9,-.9,-1.4c-.2,-.5,-.3,-1.1,-.3,-1.7v-.4h3v-.9h-7.1v.9Zm9.5,7.4h1.1v-4.6H308v-1h-2.1v-3.5h-1.1v9.1Zm-6.9,1.2c-.8,.5,-1.3,1.2,-1.3,2c0,.9,.5,1.6,1.3,2.1c.8,.6,2,.8,3.5,.8c1.6,0,2.7,-.2,3.6,-.8c.8,-.5,1.2,-1.2,1.2,-2.1c0,-.8,-.4,-1.5,-1.2,-2c-.9,-.6,-2,-.9,-3.6,-.9c-1.5,0,-2.7,.3,-3.5,.9Zm6.2,.5c.7,.4,1,.9,1,1.5c0,.7,-.3,1.2,-1,1.5c-.7,.4,-1.6,.6,-2.7,.6c-.5,0,-1,-.1,-1.4,-.2c-.5,-.1,-.9,-.2,-1.2,-.3c-.3,-.2,-.6,-.4,-.8,-.7c-.2,-.2,-.3,-.5,-.3,-.9c0,-.3,.1,-.6,.3,-.8c.2,-.3,.4,-.5,.8,-.7c.3,-.1,.7,-.3,1.2,-.4c.4,0,.9,-.1,1.4,-.1c1.1,0,2,.2,2.7,.5Zm8.9,-10.7c-.6,.2,-1.2,.3,-1.6,.6c-.4,.2,-.8,.5,-1,.8c-.3,.3,-.4,.7,-.4,1.1c0,.8,.5,1.5,1.4,1.9c.9,.5,2.1,.7,3.6,.7c.8,0,1.4,0,2,-.1c.7,-.2,1.2,-.3,1.6,-.6c.5,-.2,.8,-.5,1,-.8c.3,-.3,.4,-.7,.4,-1.1c0,-.4,-.1,-.8,-.4,-1.1c-.2,-.3,-.5,-.6,-1,-.8c-.4,-.3,-.9,-.4,-1.6,-.6c-.6,-.1,-1.2,-.2,-2,-.2c-.7,0,-1.4,.1,-2,.2Zm3.6,.8c.5,.1,.9,.2,1.2,.4c.4,.1,.7,.3,.9,.6c.2,.2,.3,.4,.3,.7c0,.2,-.1,.5,-.3,.7c-.2,.2,-.5,.4,-.9,.6c-.3,.2,-.7,.3,-1.2,.4c-.5,.1,-1,.1,-1.6,.1c-.6,0,-1.1,0,-1.6,-.1c-.5,-.1,-.9,-.2,-1.2,-.4c-.4,-.2,-.7,-.4,-.8,-.6c-.2,-.2,-.3,-.5,-.3,-.7c0,-.3,.1,-.5,.3,-.7c.1,-.3,.4,-.5,.8,-.6c.3,-.2,.7,-.3,1.2,-.4c.5,-.1,1,-.1,1.6,-.1c.6,0,1.1,0,1.6,.1Zm-8.2,6.4h13.3v-.9H308.4v.9Zm1.9,4.1c0,0,-.1,.1,-.1,.2v2.9c0,.1,.1,.2,.1,.2q.1,.1,.3,.1h9.6v-.9h-8.9v-1.8h8.2c.1,0,.2,0,.3,0c0,-.1,0,-.2,0,-.3v-2.7c0,-.1,0,-.2,0,-.3c-.1,0,-.2,-.1,-.3,-.1h-9.3v.9h8.6v1.7h-8.2q-.2,0,-.3,.1ZM428,1171.2v1.9h-6.1v.8h13.3v-.8H429v-1.9h4.7v-.9h-9v-3.2h-1v3.8c0,.1,0,.2,.1,.2c0,.1,.1,.1,.2,.1h4Zm-4.9,6.6H434v-.9H423.1v.9Zm2.5,-2h5.8v-.8h-5.8v.8Zm1,3c-.5,.1,-1,.2,-1.5,.4c-.4,.1,-.7,.3,-1,.5c-.2,.2,-.3,.5,-.3,.8c0,.3,.1,.6,.3,.8c.3,.2,.6,.4,1,.6c.4,.1,.9,.2,1.5,.3c.6,0,1.2,.1,1.9,.1c.7,0,1.4,-.1,1.9,-.1c.6,-.1,1.1,-.2,1.5,-.3c.4,-.2,.8,-.4,1,-.6c.2,-.2,.4,-.5,.4,-.8c0,-.3,-.2,-.6,-.4,-.8c-.2,-.2,-.6,-.4,-1,-.5c-.4,-.2,-.9,-.3,-1.5,-.4c-.6,0,-1.2,-.1,-1.9,-.1c-.7,0,-1.3,.1,-1.9,.1Zm3.3,.8c.4,0,.8,.1,1.1,.2c.3,0,.6,.1,.8,.3c.2,.1,.3,.2,.3,.4c0,.2,-.1,.4,-.3,.5c-.2,.1,-.4,.2,-.8,.3c-.3,.1,-.7,.1,-1.1,.1c-.4,.1,-.9,.1,-1.4,.1c-.5,0,-.9,0,-1.4,-.1c-.4,0,-.8,0,-1.1,-.1c-.3,-.1,-.6,-.2,-.8,-.3c-.1,-.1,-.2,-.3,-.2,-.5c0,-.2,.1,-.3,.3,-.4c.1,-.2,.4,-.3,.7,-.3c.4,-.1,.7,-.2,1.2,-.2c.4,0,.8,-.1,1.3,-.1c.5,0,1,.1,1.4,.1Zm10.8,-11.8c-.6,.2,-1.2,.4,-1.6,.8c-.4,.3,-.8,.7,-1,1.2c-.3,.5,-.4,1.1,-.4,1.7c0,.6,.1,1.2,.4,1.7c.2,.5,.6,.9,1,1.3c.4,.3,1,.6,1.6,.8c.6,.1,1.3,.2,2.1,.2c.7,0,1.4,-.1,2,-.2c.6,-.2,1.2,-.5,1.6,-.8c.4,-.4,.8,-.8,1,-1.3c.3,-.5,.4,-1.1,.4,-1.7c0,-.6,-.1,-1.2,-.4,-1.7c-.2,-.5,-.6,-.9,-1,-1.2c-.4,-.4,-1,-.6,-1.6,-.8c-.6,-.2,-1.3,-.3,-2,-.3c-.8,0,-1.5,.1,-2.1,.3Zm3.6,.8c.5,.1,.9,.3,1.3,.6c.3,.3,.6,.6,.8,1c.2,.4,.3,.8,.3,1.3c0,.5,-.1,.9,-.3,1.3c-.2,.4,-.5,.8,-.8,1c-.4,.3,-.8,.5,-1.3,.7c-.4,.1,-1,.2,-1.5,.2c-.6,0,-1.2,-.1,-1.7,-.2c-.4,-.2,-.9,-.4,-1.2,-.7c-.3,-.2,-.6,-.6,-.8,-1c-.2,-.4,-.3,-.8,-.3,-1.3c0,-.5,.1,-.9,.3,-1.3c.2,-.4,.5,-.7,.8,-1c.3,-.3,.8,-.5,1.2,-.6c.5,-.2,1.1,-.3,1.7,-.3c.5,0,1.1,.1,1.5,.3Zm-8.2,11.3h13.3v-.9H436.1v.9Zm17.6,-10c0,1.9,-.3,3.6,-.9,4.9c-.6,1.4,-1.6,2.5,-2.9,3.5l1,.7c.9,-.7,1.5,-1.5,2.1,-2.3c.5,-.9,.9,-1.8,1.1,-2.8c.3,.9,.6,1.7,1.1,2.5c.5,.7,1.1,1.4,1.9,1.9l.8,-.7c-1,-.7,-1.8,-1.6,-2.4,-2.8c-.5,-1.1,-.8,-2.7,-.8,-4.5v-2.4h-1v2Zm8,12.2h1v-15h-1v15Zm-2.8,-10.2h-2.6v1h2.6v8.5h1v-14h-1v4.5Zm10.2,-4.1c-.6,.1,-1.1,.4,-1.6,.7c-.4,.4,-.8,.8,-1,1.3c-.2,.5,-.4,1.1,-.4,1.7c0,.6,.2,1.2,.4,1.7c.2,.5,.6,.9,1,1.2c.5,.4,1,.6,1.6,.8c.6,.2,1.3,.3,2.1,.3c.7,0,1.4,-.1,2,-.3c.7,-.2,1.2,-.4,1.6,-.8c.5,-.3,.8,-.7,1.1,-1.2c.2,-.5,.3,-1.1,.3,-1.7c0,-.6,-.1,-1.2,-.3,-1.7c-.3,-.5,-.6,-.9,-1.1,-1.3c-.4,-.3,-.9,-.6,-1.6,-.7c-.6,-.2,-1.3,-.3,-2,-.3c-.8,0,-1.5,.1,-2.1,.3Zm3.7,.7c.5,.2,.9,.4,1.2,.7c.4,.3,.7,.6,.8,1c.2,.4,.3,.8,.3,1.3c0,.5,-.1,.9,-.3,1.3c-.1,.4,-.4,.7,-.8,1c-.3,.3,-.7,.5,-1.2,.6c-.5,.1,-1,.2,-1.6,.2c-.6,0,-1.1,-.1,-1.6,-.2c-.5,-.1,-.9,-.3,-1.3,-.6c-.3,-.3,-.6,-.6,-.8,-1c-.2,-.4,-.3,-.8,-.3,-1.3c0,-.5,.1,-.9,.3,-1.3c.2,-.4,.5,-.7,.8,-1c.4,-.3,.8,-.5,1.3,-.7c.5,-.1,1,-.2,1.6,-.2c.6,0,1.1,.1,1.6,.2Zm-5,10.6h-3.3v.9h13.3v-.9h-3.2v-3.2h-1.1v3.2h-4.7v-3.2h-1v3.2Zm12.1,1.5h1.4v-1.5h-1.4v1.5Z" class="g9_168"/>
<path d="M725.4,899.8c0,0,-4.4,0,-4.4,4.3V915c0,0,0,4.3,4.4,4.3h30.3c0,0,4.3,0,4.3,-4.3V904.1c0,0,0,-4.3,-4.3,-4.3Z" class="ga_168"/>
<path d="M712.2,892.3v34.9m1.3,.9H845.1m1,-1.3V891.9m-1.4,-.9H713.2" class="gb_168"/>
<path d="M712.2,927.6v.5h.6m132.7,0h.6v-.5m0,-36.1V891h-.6m-132.7,0h-.6v.5" class="gc_168"/>
<path d="M591.3,1217.1c0,0,-4.3,0,-4.3,4.3v10.8c0,0,0,4.4,4.3,4.4h30.3c0,0,4.4,0,4.4,-4.4v-10.8c0,0,0,-4.3,-4.4,-4.3Z" class="ga_168"/>
<path d="M578.1,1209.6v34.8m1.4,1H845.1m1,-1.4v-34.8m-1.4,-1H579.1" class="gb_168"/>
<path d="M578.1,1244.8v.6h.6m266.8,0h.6v-.6m0,-36v-.6h-.6m-266.8,0h-.6v.6" class="gc_168"/>
<path d="M209.2,494c0,0,-13,0,-13,13v21.7c0,0,0,13,13,13H830.8c0,0,13,0,13,-13V507c0,0,0,-13,-13,-13Z" class="gd_168"/>
<image clip-path="url(#c1_168)" preserveAspectRatio="none" x="152" y="464" width="75" height="77" xlink:href="img/1.png"/>
<path d="M204,534.3c0,0,-26.8,11.3,-51.1,-12.8c0,0,15.2,25.4,49.3,24c0,0,24.8,.3,20.3,-10.1c0,0,1.2,-4.5,-18.5,-1.1Z" class="gd_168"/>
<path d="M209.2,993.9c0,0,-13,0,-13,13v21.7c0,0,0,13,13,13h602c0,0,13,0,13,-13v-21.7c0,0,0,-13,-13,-13Z" class="gd_168"/>
<image clip-path="url(#c2_168)" preserveAspectRatio="none" x="152" y="964" width="75" height="77" xlink:href="img/2.png"/>
<path d="M204,1034.2c0,0,-26.8,11.3,-51.1,-12.8c0,0,15.2,25.4,49.3,24c0,0,24.8,.4,20.3,-10.1c0,0,1.2,-4.5,-18.5,-1.1Z" class="gd_168"/>
<path d="M131.7,109.5v39l11.7,10.2V136.5Z" class="ge_168"/>
<path d="M131.7,109.5v39H829.5c0,0,16.8,0,16.8,-16.8v-5.4c0,0,0,-16.8,-16.8,-16.8Z" class="ga_168"/>
<path d="M768.8,131c0,0,-.5,-10,8.6,-9.4c0,0,6.7,-.3,6.6,9.5m-15.3,-1.5v6.5c0,0,-3.3,.3,-3.9,-3c0,0,-.1,-3.8,3.9,-3.5Zm15.4,0v6.5c0,0,3.3,.3,3.9,-3c0,0,.1,-3.8,-3.9,-3.5Z" class="gf_168"/>
<path d="M147.4,140.8h61v-32h-61v32Z" class="gg_168"/>
<path d="M147.4,143.1h61v-2.3h-61v2.3Z" class="gg_168"/>
<path d="M171.8,106.2H152.1v31.5h25.8V112.3c0,-3.4,-2.7,-6.1,-6.1,-6.1Z" class="g1_168"/>
<path d="M171.8,106.2v-.5H152.1c-.1,0,-.3,.1,-.4,.2c-.1,.1,-.1,.2,-.1,.3v31.5c0,.1,0,.3,.1,.4c.1,.1,.3,.1,.4,.1h25.8c.1,0,.2,0,.3,-.1c.1,-.1,.2,-.3,.2,-.4V112.3c0,-3.7,-2.9,-6.6,-6.6,-6.6v1c1.6,0,2.9,.7,3.9,1.7c1,1,1.6,2.3,1.6,3.9v24.9H152.6V106.7h19.2Z" class="gh_168"/>
<path d="M152.1,131.7v6h25.8c0,-3.3,-2.7,-6,-6.1,-6Z" class="g1_168"/>
<path d="M152.1,131.7h-.5v6c0,.1,0,.3,.1,.4c.1,.1,.3,.1,.4,.1h25.8c.1,0,.2,0,.3,-.1c.1,-.1,.2,-.3,.2,-.4c0,-3.6,-3,-6.6,-6.6,-6.6H152.1c-.1,0,-.3,.1,-.4,.2c-.1,.1,-.1,.2,-.1,.4h.5v.5h19.7c1.6,0,2.9,.6,3.9,1.6c1,1,1.6,2.4,1.6,3.9h.6v-.5H152.6v-5.5h-.5v.5Z" class="gh_168"/>
<path d="M155.6,110.9h17.2m-17.2,2.8h17.2m-17.2,2.9h17.2m-17.2,2.9h17.2m-17.2,2.8h17.2m-17.2,2.9h17.2M155.6,128h17.2" class="gi_168"/>
<path d="M171.8,132.2H152.6v5h24.7c-.1,-1.3,-.7,-2.5,-1.6,-3.4c-1,-1,-2.3,-1.6,-3.9,-1.6Z" class="gj_168"/>
<path d="M152.6,132.2h19.2c1.6,0,2.9,.6,3.9,1.6c.9,.9,1.5,2.1,1.6,3.4H152.6Zm19.2,-.5H152.1v6h25.2v-2.5c-.9,-2.1,-3,-3.5,-5.5,-3.5Z" class="gk_168"/>
<path d="M183.9,106.2h19.7v31.5H177.9V112.3c0,-3.4,2.7,-6.1,6,-6.1Z" class="g1_168"/>
<path d="M183.9,106.2v.5h19.2v30.5H178.4V112.3c0,-1.6,.6,-2.9,1.6,-3.9c1,-1,2.4,-1.7,3.9,-1.7v-1c-3.6,0,-6.6,2.9,-6.6,6.6v25.4c0,.1,.1,.3,.2,.4c.1,.1,.2,.1,.4,.1h25.7c.2,0,.3,0,.4,-.1c.1,-.1,.1,-.3,.1,-.4V106.2c0,-.1,0,-.2,-.1,-.3c-.1,-.1,-.2,-.2,-.4,-.2H183.9Z" class="gh_168"/>
<path d="M203.6,131.7v6H177.9c0,-3.3,2.7,-6,6,-6Z" class="g1_168"/>
<path d="M203.6,131.7h-.5v5.5H177.9v.5h.5c0,-1.5,.6,-2.9,1.6,-3.9c1,-1,2.4,-1.6,3.9,-1.6h19.7v-.5h-.5h.5v-.6H183.9c-3.6,0,-6.6,3,-6.6,6.6c0,.1,.1,.3,.2,.4c.1,.1,.2,.1,.4,.1h25.7c.2,0,.3,0,.4,-.1c.1,-.1,.1,-.3,.1,-.4v-6c0,-.2,0,-.3,-.1,-.4c-.1,-.1,-.2,-.2,-.4,-.2Z" class="gh_168"/>
<path d="M200.1,110.9H182.9m17.2,2.8H182.9m17.2,2.9H182.9m17.2,2.9H182.9m17.2,2.8H182.9m17.2,2.9H182.9m17.2,2.8H182.9" class="gi_168"/>
<path clip-path="url(#c3_168)" d="M178.4,137.2h24.7v-5H178.4v5Z" class="gj_168"/>
<path clip-path="url(#c4_168)" d="M178.4,137.2c.1,-1.3,.7,-2.5,1.6,-3.4c1,-1,2.4,-1.6,3.9,-1.6h19.2v5Zm25.2,-5.5H183.9c-3.3,0,-6,2.7,-6,6h25.7v-6h-.5h.5Z" class="gk_168"/>
<path d="M177.9,108.8v34.3" class="gi_168"/>
<path d="M195.5,145.5h3.3V134.7h-3.3v10.8Z" class="gl_168"/>
<path d="M32.1,45.1H9.2m958.3,0h22.9M32.1,1331.3H9.2m958.3,0h22.9M45.1,32.1V9.2m0,1335.1v22.9M954.5,32.1V9.2m0,1335.1v22.9" class="gm_168"/>
<path d="M32.1,45.1H9.2m958.3,0h22.9M32.1,1331.3H9.2m958.3,0h22.9M45.1,32.1V9.2m0,1335.1v22.9M954.5,32.1V9.2m0,1335.1v22.9" class="gn_168"/>
<path d="M27.5,32.1H0m972.1,0h27.5M27.5,1344.3H0m972.1,0h27.5M32.1,27.5V0m0,1348.9v27.5M967.5,27.5V0m0,1348.9v27.5" class="gm_168"/>
<path d="M27.5,32.1H0m972.1,0h27.5M27.5,1344.3H0m972.1,0h27.5M32.1,27.5V0m0,1348.9v27.5M967.5,27.5V0m0,1348.9v27.5" class="gn_168"/>
</svg>