<?xml version="1.0" encoding="UTF-8" standalone="no"?>
<!DOCTYPE svg PUBLIC "-//W3C//DTD SVG 1.1//EN"
"http://www.w3.org/Graphics/SVG/1.1/DTD/svg11.dtd">
<svg viewBox="0 0 999 1376" version="1.1" xmlns="http://www.w3.org/2000/svg" xmlns:xlink="http://www.w3.org/1999/xlink">
<defs>
<clipPath id="c0_155"><path d="M32.1,1344.3V32.1H967.5V1344.3Z"/></clipPath>
<clipPath id="c1_155"><path d="M225.7,439.6V344.3h95.2v95.3Z"/></clipPath>
<clipPath id="c2_155"><path d="M225.7,595.5V500.2h95.2v95.3Z"/></clipPath>
<clipPath id="c3_155"><path d="M225.7,760V664.8h95.2V760Z"/></clipPath>
<clipPath id="c4_155"><path d="M346.5,439.6V344.3h95.3v95.3Z"/></clipPath>
<clipPath id="c5_155"><path d="M346.5,595.5V500.2h95.3v95.3Z"/></clipPath>
<clipPath id="c6_155"><path d="M467.3,439.6V344.3h95.3v95.3Z"/></clipPath>
<clipPath id="c7_155"><path d="M467.3,595.5V500.2h95.3v95.3Z"/></clipPath>
<clipPath id="c8_155"><path d="M588.1,439.6V344.3h95.3v95.3Z"/></clipPath>
<clipPath id="c9_155"><path d="M588.1,595.5V500.2h95.3v95.3Z"/></clipPath>
<clipPath id="ca_155"><path d="M709,439.6V344.3h95.2v95.3Z"/></clipPath>
<clipPath id="cb_155"><path d="M709,595.5V500.2h95.2v95.3Z"/></clipPath>
<clipPath id="cc_155"><path d="M737.7,1044.5V970h74.5v74.5Z"/></clipPath>
<clipPath id="cd_155"><path d="M606.7,1044.6V970.4h75.8v74.2Z"/></clipPath>
<clipPath id="ce_155"><path d="M475.7,1047.6V973h74.5v74.6Z"/></clipPath>
<clipPath id="cf_155"><path d="M346.9,1046.9V972.4h74.5v74.5Z"/></clipPath>
<clipPath id="cg_155"><path d="M217.4,1046.8V972.3h74.5v74.5Z"/></clipPath>
<clipPath id="ch_155"><path d="M199.2,326.7l-6.5,-2.1L176.3,310.7V253.6h72v73.1Z"/></clipPath>
<clipPath id="ci_155"><path d="M198.6,902.1L192.1,900L175.7,886V828.9h72v73.2Z"/></clipPath>
<clipPath id="cj_155"><path d="M658.6,177V59h200V177Z"/></clipPath>
<style type="text/css"><![CDATA[
.g0_155{
fill: #FEFCF4;
}
.g1_155{
fill: #FFF;
}
.g2_155{
fill: none;
stroke: #6381B7;
stroke-width: 0.763;
}
.g3_155{
fill: none;
stroke: #949698;
stroke-width: 0.366;
}
.g4_155{
fill: none;
stroke: #231F20;
stroke-width: 1.527;
}
.g5_155{
fill: none;
stroke: #949698;
stroke-width: 0.612;
}
.g6_155{
fill: #93BEDA;
}
.g7_155{
fill: #EFE9CC;
}
.g8_155{
fill: #6381B7;
}
.g9_155{
fill: none;
stroke: #6381B7;
stroke-width: 0.381;
stroke-dasharray: 2,1;
}
.ga_155{
fill: none;
stroke: #6381B7;
stroke-width: 0.381;
}
.gb_155{
fill: #FCE8B0;
}
.gc_155{
fill: #25408F;
}
.gd_155{
fill: #00BAF1;
}
.ge_155{
fill: #332D2C;
}
.gf_155{
fill: #D9DFF0;
}
.gg_155{
fill: #F27C85;
}
.gh_155{
fill: #7DD3F6;
}
.gi_155{
fill: #2E6E51;
}
.gj_155{
fill: #BCBEC0;
}
.gk_155{
fill: #EE314A;
}
.gl_155{
fill: none;
stroke: #FFF;
stroke-width: 1.909;
stroke-miterlimit: 10;
}
.gm_155{
fill: none;
stroke: #000;
stroke-width: 0.381;
stroke-miterlimit: 10;
}
]]></style>
</defs>
<path clip-path="url(#c0_155)" d="M-877.3,1344.3H45.1V32.1H-877.3V1344.3Z" class="g0_155"/>
<path d="M45.1,1344.3H967.5V32.1H45.1V1344.3Z" class="g0_155"/>
<path d="M172.1,224.6c0,0,-18.4,0,-18.4,18.4V798.8c0,0,0,18.4,18.4,18.4H849.2c0,0,18.3,0,18.3,-18.4V224.6Z" class="g1_155"/>
<path d="M172.1,224.6c0,0,-18.4,0,-18.4,18.4V798.8c0,0,0,18.4,18.4,18.4H849.2c0,0,18.3,0,18.3,-18.4V224.6H172.1Z" class="g2_155"/>
<path d="M221.5,439.6H325.1V344.3H221.5v95.3Z" class="g1_155"/>
<image clip-path="url(#c1_155)" preserveAspectRatio="none" x="226" y="344" width="95" height="96" xlink:href="img/1.jpg"/>
<path d="M221.5,439.6H325.1V344.3H221.5v95.3Z" class="g3_155"/>
<path d="M221.5,595.5H325.1V500.2H221.5v95.3Z" class="g1_155"/>
<image clip-path="url(#c2_155)" preserveAspectRatio="none" x="226" y="500" width="95" height="95" xlink:href="img/2.jpg"/>
<path d="M221.5,595.5H325.1V500.2H221.5v95.3Z" class="g3_155"/>
<path d="M221.5,760H325.1V664.8H221.5V760Z" class="g1_155"/>
<image clip-path="url(#c3_155)" preserveAspectRatio="none" x="226" y="665" width="95" height="95" xlink:href="img/3.jpg"/>
<path d="M221.5,760H325.1V664.8H221.5V760Z" class="g3_155"/>
<path d="M342.4,439.6H445.9V344.3H342.4v95.3Z" class="g1_155"/>
<image clip-path="url(#c4_155)" preserveAspectRatio="none" x="347" y="344" width="95" height="96" xlink:href="img/4.jpg"/>
<path d="M342.4,439.6H445.9V344.3H342.4v95.3Z" class="g3_155"/>
<path d="M342.4,595.5H445.9V500.2H342.4v95.3Z" class="g1_155"/>
<image clip-path="url(#c5_155)" preserveAspectRatio="none" x="347" y="500" width="95" height="95" xlink:href="img/5.jpg"/>
<path d="M342.4,595.5H445.9V500.2H342.4v95.3Z" class="g3_155"/>
<path d="M463.2,439.6H566.7V344.3H463.2v95.3Z" class="g1_155"/>
<image clip-path="url(#c6_155)" preserveAspectRatio="none" x="467" y="344" width="96" height="96" xlink:href="img/6.jpg"/>
<path d="M463.2,439.6H566.7V344.3H463.2v95.3Z" class="g3_155"/>
<path d="M463.2,595.5H566.7V500.2H463.2v95.3Z" class="g1_155"/>
<image clip-path="url(#c7_155)" preserveAspectRatio="none" x="467" y="500" width="96" height="95" xlink:href="img/7.jpg"/>
<path d="M463.2,595.5H566.7V500.2H463.2v95.3Z" class="g3_155"/>
<path d="M584,439.6H687.6V344.3H584v95.3Z" class="g1_155"/>
<image clip-path="url(#c8_155)" preserveAspectRatio="none" x="588" y="344" width="95" height="96" xlink:href="img/8.jpg"/>
<path d="M584,439.6H687.6V344.3H584v95.3Z" class="g3_155"/>
<path d="M584,595.5H687.6V500.2H584v95.3Z" class="g1_155"/>
<image clip-path="url(#c9_155)" preserveAspectRatio="none" x="588" y="500" width="95" height="95" xlink:href="img/9.jpg"/>
<path d="M584,595.5H687.6V500.2H584v95.3Z" class="g3_155"/>
<path d="M704.8,439.6H808.4V344.3H704.8v95.3Z" class="g1_155"/>
<image clip-path="url(#ca_155)" preserveAspectRatio="none" x="709" y="344" width="95" height="96" xlink:href="img/10.jpg"/>
<path d="M704.8,439.6H808.4V344.3H704.8v95.3Z" class="g3_155"/>
<path d="M704.8,595.5H808.4V500.2H704.8v95.3Z" class="g1_155"/>
<image clip-path="url(#cb_155)" preserveAspectRatio="none" x="709" y="500" width="95" height="95" xlink:href="img/11.jpg"/>
<path d="M704.8,595.5H808.4V500.2H704.8v95.3Z" class="g3_155"/>
<path d="M363.3,688.4c-.3,0,-.5,.1,-.7,.3c-.2,.2,-.2,.4,-.2,.7c0,.3,0,.5,.2,.7c.2,.2,.4,.3,.7,.3c.2,0,.5,-.1,.6,-.3c.2,-.2,.3,-.4,.3,-.7c0,-.3,-.1,-.5,-.3,-.7c-.1,-.2,-.4,-.3,-.6,-.3Zm0,48.4c-.3,0,-.5,.1,-.7,.3c-.2,.2,-.2,.4,-.2,.7c0,.3,0,.5,.2,.7c.2,.1,.4,.2,.7,.2c.2,0,.5,-.1,.6,-.2c.2,-.2,.3,-.4,.3,-.7c0,-.3,-.1,-.5,-.3,-.7c-.1,-.2,-.4,-.3,-.6,-.3Z" class="g4_155"/>
<path d="M166.7,912.1c0,0,-13,0,-13,13v261c0,0,0,13,13,13H854.5c0,0,13,0,13,-13v-261c0,0,0,-13,-13,-13Z" class="g1_155"/>
<path d="M166.7,912.1c0,0,-13,0,-13,13v261c0,0,0,13,13,13H854.5c0,0,13,0,13,-13v-261c0,0,0,-13,-13,-13H166.7Z" class="g2_155"/>
<image clip-path="url(#cc_155)" preserveAspectRatio="none" x="738" y="970" width="74" height="75" xlink:href="img/12.jpg"/>
<image clip-path="url(#cd_155)" preserveAspectRatio="none" x="606" y="970" width="77" height="75" xlink:href="img/13.jpg"/>
<path d="M606.7,1044.6h75.8V970.4H606.7v74.2Z" class="g5_155"/>
<image clip-path="url(#ce_155)" preserveAspectRatio="none" x="476" y="973" width="74" height="75" xlink:href="img/14.jpg"/>
<image clip-path="url(#cf_155)" preserveAspectRatio="none" x="347" y="972" width="74" height="75" xlink:href="img/15.jpg"/>
<image clip-path="url(#cg_155)" preserveAspectRatio="none" x="217" y="972" width="75" height="75" xlink:href="img/16.jpg"/>
<path d="M645.8,1141.9c2,0,3.6,-1.6,3.6,-3.6c0,-2,-1.6,-3.6,-3.6,-3.6c-2,0,-3.6,1.6,-3.6,3.6c0,2,1.6,3.6,3.6,3.6Z" class="g6_155"/>
<path d="M515.1,1141.9c2,0,3.6,-1.6,3.6,-3.6c0,-2,-1.6,-3.6,-3.6,-3.6c-2,0,-3.6,1.6,-3.6,3.6c0,2,1.6,3.6,3.6,3.6Z" class="g6_155"/>
<path d="M384.4,1141.9c2,0,3.6,-1.6,3.6,-3.6c0,-2,-1.6,-3.6,-3.6,-3.6c-2,0,-3.6,1.6,-3.6,3.6c0,2,1.6,3.6,3.6,3.6Z" class="g6_155"/>
<path d="M776.6,1141.9c2,0,3.6,-1.6,3.6,-3.6c0,-2,-1.6,-3.6,-3.6,-3.6c-2,0,-3.6,1.6,-3.6,3.6c0,2,1.6,3.6,3.6,3.6Z" class="g6_155"/>
<path d="M253.6,1141.9c2,0,3.6,-1.6,3.6,-3.6c0,-2,-1.6,-3.6,-3.6,-3.6c-2,0,-3.6,1.6,-3.6,3.6c0,2,1.6,3.6,3.6,3.6Z" class="g6_155"/>
<path d="M212,1152.9c0,0,-8.7,0,-8.7,8.7v15.1c0,0,0,8.7,8.7,8.7h82.2c0,0,8.7,0,8.7,-8.7v-15.1c0,0,0,-8.7,-8.7,-8.7Z" class="g7_155"/>
<path d="M342.2,1152.9c0,0,-8.6,0,-8.6,8.7v15.1c0,0,0,8.7,8.6,8.7h82.3c0,0,8.7,0,8.7,-8.7v-15.1c0,0,0,-8.7,-8.7,-8.7Z" class="g7_155"/>
<path d="M472.5,1152.9c0,0,-8.6,0,-8.6,8.7v15.1c0,0,0,8.7,8.6,8.7h82.3c0,0,8.7,0,8.7,-8.7v-15.1c0,0,0,-8.7,-8.7,-8.7Z" class="g7_155"/>
<path d="M602.8,1152.9c0,0,-8.7,0,-8.7,8.7v15.1c0,0,0,8.7,8.7,8.7h82.3c0,0,8.6,0,8.6,-8.7v-15.1c0,0,0,-8.7,-8.6,-8.7Z" class="g7_155"/>
<path d="M733.1,1152.9c0,0,-8.7,0,-8.7,8.7v15.1c0,0,0,8.7,8.7,8.7h82.3c0,0,8.6,0,8.6,-8.7v-15.1c0,0,0,-8.7,-8.6,-8.7Z" class="g7_155"/>
<path d="M645.8,1064c2,0,3.6,-1.6,3.6,-3.6c0,-2,-1.6,-3.6,-3.6,-3.6c-2,0,-3.6,1.6,-3.6,3.6c0,2,1.6,3.6,3.6,3.6Z" class="g6_155"/>
<path d="M515.1,1064c2,0,3.6,-1.6,3.6,-3.6c0,-2,-1.6,-3.6,-3.6,-3.6c-2,0,-3.6,1.6,-3.6,3.6c0,2,1.6,3.6,3.6,3.6Z" class="g6_155"/>
<path d="M384.4,1064c2,0,3.6,-1.6,3.6,-3.6c0,-2,-1.6,-3.6,-3.6,-3.6c-2,0,-3.6,1.6,-3.6,3.6c0,2,1.6,3.6,3.6,3.6Z" class="g6_155"/>
<path d="M776.6,1064c2,0,3.6,-1.6,3.6,-3.6c0,-2,-1.6,-3.6,-3.6,-3.6c-2,0,-3.6,1.6,-3.6,3.6c0,2,1.6,3.6,3.6,3.6Z" class="g6_155"/>
<path d="M253.6,1066.1c2,0,3.6,-1.6,3.6,-3.6c0,-2,-1.6,-3.6,-3.6,-3.6c-2,0,-3.6,1.6,-3.6,3.6c0,2,1.6,3.6,3.6,3.6Z" class="g6_155"/>
<path d="M626.2,1216.2c0,0,-4.4,0,-4.4,4.3v10.8c0,0,0,4.3,4.4,4.3h30.3c0,0,4.3,0,4.3,-4.3v-10.8c0,0,0,-4.3,-4.3,-4.3Z" class="g8_155"/>
<path d="M613,1208.7v34.8m1.3,1H866.8m.9,-1.4v-34.8m-1.3,-1H613.9" class="g9_155"/>
<path d="M613,1243.9v.6h.6m253.5,0h.6v-.6m0,-36v-.6h-.6m-253.5,0H613v.6" class="ga_155"/>
<path d="M231.8,281.8c0,0,-13,0,-13,12.9v21.7c0,0,0,13,13,13h602c0,0,13,0,13,-13V294.7c0,0,0,-12.9,-13,-12.9Z" class="gb_155"/>
<image clip-path="url(#ch_155)" preserveAspectRatio="none" x="175" y="252" width="75" height="76" xlink:href="img/17.png"/>
<path d="M226.6,322c0,0,-26.9,11.3,-51.1,-12.7c0,0,15.1,25.3,49.3,23.9c0,0,24.7,.4,20.2,-10.1c0,0,1.2,-4.4,-18.4,-1.1Z" class="gb_155"/>
<path d="M231.2,857.1c0,0,-12.9,0,-12.9,13v21.6c0,0,0,13,12.9,13H854.9c0,0,13,0,13,-13V870.1c0,0,0,-13,-13,-13Z" class="gb_155"/>
<image clip-path="url(#ci_155)" preserveAspectRatio="none" x="174" y="827" width="75" height="77" xlink:href="img/18.png"/>
<path d="M226,897.4c0,0,-26.8,11.3,-51.1,-12.8c0,0,15.2,25.3,49.3,24c0,0,24.8,.3,20.3,-10.2c0,0,1.2,-4.4,-18.5,-1Z" class="gb_155"/>
<path d="M153.3,213.7v22.2L165,246.2V224Z" class="gc_155"/>
<path d="M153.3,196.9v39H851.1c0,0,16.8,0,16.8,-16.8v-5.4c0,0,0,-16.8,-16.8,-16.8Z" class="g8_155"/>
<path d="M211.3,208.3l-6.5,-6.5L183.6,223l6.5,6.5Z" class="gd_155"/>
<path d="M190.1,230.1c.1,0,.3,-.1,.4,-.2l21.2,-21.2c.1,-.1,.1,-.2,.1,-.4c0,-.1,0,-.3,-.1,-.3l-6.5,-6.5c-.2,-.2,-.6,-.2,-.8,0l-21.2,21.2c-.1,.1,-.1,.2,-.1,.3c0,.2,0,.3,.1,.4l6.5,6.5c.1,.1,.3,.2,.4,.2m20.5,-21.8l-20.5,20.5L184.3,223l20.5,-20.4Z" class="ge_155"/>
<path d="M211.3,208.3l-6.5,-6.5l2.1,-2.1l6.5,6.5Z" class="gf_155"/>
<path d="M211.3,208.8c.1,0,.3,0,.4,-.1l2.1,-2.1c.1,-.1,.2,-.3,.2,-.4c0,-.2,-.1,-.3,-.2,-.4l-6.5,-6.5c-.2,-.2,-.5,-.2,-.7,0l-2.2,2.2c-.1,.1,-.1,.2,-.1,.3c0,.2,0,.3,.1,.4l6.5,6.5c.1,.1,.3,.1,.4,.1m1.4,-2.6l-1.4,1.4l-5.7,-5.8l1.3,-1.4Z" class="ge_155"/>
<path d="M217,202.6l-6.4,-6.5l-3.7,3.6l6.5,6.5Z" class="gg_155"/>
<path d="M213.4,206.7c.2,0,.3,0,.4,-.1l3.6,-3.7c.2,-.2,.2,-.5,0,-.7l-6.5,-6.5c-.2,-.2,-.5,-.2,-.7,0l-3.6,3.6c-.2,.2,-.2,.6,0,.8l6.5,6.5c.1,.1,.2,.1,.3,.1m2.9,-4.1l-2.9,2.8l-5.7,-5.7l2.9,-2.9Z" class="ge_155"/>
<path d="M179,234.2L183.6,223l6.5,6.5Z" class="g1_155"/>
<path d="M179,234.7c0,0,.1,0,.2,-.1L190.3,230c.2,0,.3,-.2,.3,-.4c0,-.1,0,-.3,-.1,-.4L184,222.7c-.1,-.2,-.3,-.2,-.5,-.2c-.2,.1,-.3,.2,-.4,.3L178.5,234c-.1,.2,0,.4,.1,.5c.1,.1,.2,.2,.4,.2m10.2,-5.4l-9.3,3.9l3.9,-9.2Z" class="ge_155"/>
<path d="M179,234.2l2.2,-5.4l3.1,3.1Z" class="ge_155"/>
<path d="M179,234.7c0,0,.1,0,.2,-.1l5.3,-2.2c.2,-.1,.3,-.2,.4,-.4c0,-.1,-.1,-.3,-.2,-.4l-3.1,-3.2c-.1,-.1,-.3,-.2,-.5,-.1c-.2,0,-.3,.1,-.4,.3l-2.2,5.4c-.1,.2,0,.4,.1,.5c.1,.1,.2,.2,.4,.2m4.4,-3l-3.5,1.5l1.5,-3.5Z" class="ge_155"/>
<path d="M209.5,206.6l-2.9,-3l-21.2,21.2l2.9,3Z" class="gh_155"/>
<path d="M188.3,228.3c.2,0,.3,-.1,.4,-.2l21.2,-21.2c.1,-.1,.2,-.2,.2,-.3c0,-.2,-.1,-.3,-.2,-.4l-3,-3c-.2,-.2,-.5,-.2,-.7,0L185,224.4c-.1,.1,-.2,.3,-.2,.4c0,.1,.1,.3,.2,.4l3,2.9c.1,.1,.2,.2,.3,.2m20.5,-21.7L188.3,227l-2.2,-2.2l20.5,-20.5Z" class="ge_155"/>
<path d="M32.1,179.3H967.5V32.1H32.1V179.3Z" class="gi_155"/>
<g clip-path="url(#c0_155)">
<path d="M967.5,177.2H-877.3v-5.4h736.6c43.1,0,53.1,-37.9,115.3,-37.9H967.5Z" class="gj_155"/>
<path d="M967.5,183.7H-877.3v-9.8h736.6c43.1,0,53.1,-33.6,115.3,-33.6H967.5Z" class="gk_155"/>
</g>
<image clip-path="url(#cj_155)" preserveAspectRatio="none" x="659" y="59" width="200" height="118" xlink:href="img/19.png"/>
<path d="M32.1,45.1H9.2m958.3,0h22.9M32.1,1331.3H9.2m958.3,0h22.9M45.1,32.1V9.2m0,1335.1v22.9M954.5,32.1V9.2m0,1335.1v22.9" class="gl_155"/>
<path d="M32.1,45.1H9.2m958.3,0h22.9M32.1,1331.3H9.2m958.3,0h22.9M45.1,32.1V9.2m0,1335.1v22.9M954.5,32.1V9.2m0,1335.1v22.9" class="gm_155"/>
<path d="M27.5,32.1H0m972.1,0h27.5M27.5,1344.3H0m972.1,0h27.5M32.1,27.5V0m0,1348.9v27.5M967.5,27.5V0m0,1348.9v27.5" class="gl_155"/>
<path d="M27.5,32.1H0m972.1,0h27.5M27.5,1344.3H0m972.1,0h27.5M32.1,27.5V0m0,1348.9v27.5M967.5,27.5V0m0,1348.9v27.5" class="gm_155"/>
</svg>