<?xml version="1.0" encoding="UTF-8" standalone="no"?>
<!DOCTYPE svg PUBLIC "-//W3C//DTD SVG 1.1//EN"
"http://www.w3.org/Graphics/SVG/1.1/DTD/svg11.dtd">
<svg viewBox="0 0 999 1376" version="1.1" xmlns="http://www.w3.org/2000/svg" xmlns:xlink="http://www.w3.org/1999/xlink">
<defs>
<clipPath id="c0_207"><path d="M32.1,1344.3V32.1H967.5V1344.3Z"/></clipPath>
<clipPath id="c1_207"><path d="M198.9,681.6l-6.5,-2.1L176,665.6V608.5h72v73.1Z"/></clipPath>
<clipPath id="c2_207"><path d="M241.4,886.7V826.4h86.3v60.3Z"/></clipPath>
<clipPath id="c3_207"><path d="M234.5,810.3V751.5H334.6v58.8Z"/></clipPath>
<clipPath id="c4_207"><path d="M200.4,1033.8l-6.5,-2.1l-16.4,-13.9V960.7h72v73.1Z"/></clipPath>
<clipPath id="c5_207"><path d="M200.1,137.2c.1,-1.3,.7,-2.5,1.6,-3.4c1,-1,2.3,-1.6,3.9,-1.6h19.2v5Z"/></clipPath>
<clipPath id="c6_207"><path d="M199.5,137.7v-6h25.8v6Z"/></clipPath>
<style type="text/css"><![CDATA[
.g0_207{
fill: #FEFCF4;
}
.g1_207{
fill: #FCE8B0;
}
.g2_207{
fill: #DCE9F3;
}
.g3_207{
fill: #6381B7;
}
.g4_207{
fill: none;
stroke: #6381B7;
stroke-width: 0.381;
stroke-dasharray: 2,1;
}
.g5_207{
fill: none;
stroke: #6381B7;
stroke-width: 0.381;
}
.g6_207{
fill: #FFF;
}
.g7_207{
fill: none;
stroke: #6381B7;
stroke-width: 0.763;
}
.g8_207{
fill: none;
stroke: #231F20;
stroke-width: 0.305;
stroke-miterlimit: 10;
}
.g9_207{
fill: none;
stroke: #231F20;
stroke-width: 0.458;
stroke-miterlimit: 10;
}
.ga_207{
fill: none;
stroke: #FFF;
stroke-width: 0.152;
}
.gb_207{
fill: #25408F;
}
.gc_207{
fill: none;
stroke: #231F20;
stroke-width: 1.527;
}
.gd_207{
fill: #39B4D1;
stroke: #2D2A4A;
stroke-width: 1.038;
stroke-linecap: round;
stroke-linejoin: round;
}
.ge_207{
fill: #2D2A4A;
}
.gf_207{
fill: none;
stroke: #2D2A4A;
stroke-width: 1.038;
stroke-linecap: round;
stroke-linejoin: round;
}
.gg_207{
fill: #DEDAD3;
}
.gh_207{
fill: #29263F;
}
.gi_207{
fill: #E15F46;
stroke: #2D2A4A;
stroke-width: 1.038;
stroke-linecap: round;
stroke-linejoin: round;
}
.gj_207{
fill: #F7F8E9;
}
.gk_207{
fill: none;
stroke: #BFD62F;
stroke-width: 1.527;
stroke-linecap: round;
stroke-linejoin: round;
stroke-dasharray: 0,5;
}
.gl_207{
fill: none;
stroke: #BFD62F;
stroke-width: 1.527;
stroke-linecap: round;
stroke-linejoin: round;
}
.gm_207{
fill: #BFD62F;
}
.gn_207{
fill: #D1232A;
}
.go_207{
fill: #233D4A;
}
.gp_207{
fill: #FFE293;
}
.gq_207{
fill: #F89C47;
}
.gr_207{
fill: none;
stroke: #FFF;
stroke-width: 1.909;
stroke-miterlimit: 10;
}
.gs_207{
fill: none;
stroke: #000;
stroke-width: 0.381;
stroke-miterlimit: 10;
}
]]></style>
</defs>
<path clip-path="url(#c0_207)" d="M-877.3,1344.3H45.1V32.1H-877.3V1344.3Z" class="g0_207"/>
<path d="M231.5,610.7c0,0,-13,0,-13,13v47.6c0,0,0,13,13,13H855.1c0,0,13,0,13,-13V623.7c0,0,0,-13,-13,-13Z" class="g1_207"/>
<image clip-path="url(#c1_207)" preserveAspectRatio="none" x="174" y="607" width="75" height="76" xlink:href="img/1.png"/>
<path d="M226.3,676.9c0,0,-26.8,11.3,-51.1,-12.7c0,0,15.2,25.3,49.3,23.9c0,0,24.8,.4,20.3,-10.1c0,0,1.2,-4.4,-18.5,-1.1Z" class="g1_207"/>
<path d="M170.4,166.3c0,0,-17.3,0,-17.3,17.4V342.4c0,0,0,17.3,17.3,17.3H850.3c0,0,17.3,0,17.3,-17.3V183.7c0,0,0,-17.4,-17.3,-17.4Z" class="g2_207"/>
<path d="M601.5,1214.8c0,0,-4.3,0,-4.3,4.4V1230c0,0,0,4.3,4.3,4.3h30.3c0,0,4.4,0,4.4,-4.3v-10.8c0,0,0,-4.4,-4.4,-4.4Z" class="g3_207"/>
<path d="M588.3,1206v37.5m1.4,1H866.8m.9,-1.3v-37.6m-1.3,-1H589.3" class="g4_207"/>
<path d="M588.3,1243.9v.6h.6m278.2,0h.6v-.6m0,-38.7v-.6h-.6m-278.2,0h-.6v.6" class="g5_207"/>
<path d="M166.7,693.3c0,0,-13,0,-13,13V883.1c0,0,0,13,13,13H854.8c0,0,13,0,13,-13V706.3c0,0,0,-13,-13,-13Z" class="g6_207"/>
<path d="M166.7,693.3c0,0,-13,0,-13,13V883.1c0,0,0,13,13,13H854.8c0,0,13,0,13,-13V706.3c0,0,0,-13,-13,-13H166.7Z" class="g7_207"/>
<image clip-path="url(#c2_207)" preserveAspectRatio="none" x="242" y="827" width="89" height="59" xlink:href="img/2.jpg"/>
<image clip-path="url(#c3_207)" preserveAspectRatio="none" x="235" y="748" width="105" height="62" xlink:href="img/3.jpg"/>
<path d="M503.9,776H693M516.8,857.8H693" class="g8_207"/>
<path d="M494.3,912.5c0,0,-4.3,0,-4.3,4.3v10.8c0,0,0,4.3,4.3,4.3h30.4c0,0,4.3,0,4.3,-4.3V916.8c0,0,0,-4.3,-4.3,-4.3Z" class="g3_207"/>
<path d="M481.2,903.6v37.6m1.3,.9H867m.9,-1.3V903.2m-1.3,-.9H482.1" class="g4_207"/>
<path d="M481.2,941.6v.5h.5m385.7,0h.5v-.5m0,-38.7v-.6h-.5m-385.7,0h-.5v.6" class="g5_207"/>
<path d="M166.9,951.9c0,0,-12.9,0,-12.9,13v222.6c0,0,0,13,12.9,13H854.8c0,0,13,0,13,-13V964.9c0,0,0,-13,-13,-13Z" class="g0_207"/>
<path d="M166.9,951.9c0,0,-12.9,0,-12.9,13v222.6c0,0,0,13,12.9,13H854.8c0,0,13,0,13,-13V964.9c0,0,0,-13,-13,-13H166.9Z" class="g7_207"/>
<path d="M241.4,1086.9H406.9m175.7,74.9H748.1" class="g9_207"/>
<path d="M227.1,1047.3c-.3,.4,-.7,.8,-1.2,1.1c-.4,.4,-.9,.6,-1.3,.8v1.1c.4,-.2,.9,-.4,1.3,-.7c.4,-.3,.9,-.7,1.3,-1.1v11.2h1v-12.1c0,-.1,0,-.2,-.1,-.2c0,-.1,-.1,-.1,-.2,-.1h-.8Zm6.3,12.6h1.4v-1.5h-1.4v1.5Zm11,-12.6h4.3v-.9h-4.3v.9Zm-2,2.3h8.3v-.9h-8.3v.9Zm1.6,5.4c.6,.4,1.4,.6,2.6,.6c1.1,0,1.9,-.2,2.5,-.6c.7,-.5,1,-1.1,1,-1.9c0,-.8,-.3,-1.4,-1,-1.8c-.6,-.5,-1.4,-.7,-2.5,-.7c-1.2,0,-2,.2,-2.6,.7c-.6,.4,-.9,1,-.9,1.8c0,.8,.3,1.4,.9,1.9Zm4.4,-.7c-.5,.3,-1.1,.5,-1.8,.5c-.8,0,-1.4,-.2,-1.8,-.5c-.5,-.3,-.7,-.7,-.7,-1.2c0,-.5,.2,-1,.7,-1.2c.4,-.3,1,-.5,1.8,-.5c.7,0,1.3,.2,1.8,.5c.4,.2,.6,.7,.6,1.2c0,.5,-.2,.9,-.6,1.2Zm4.1,3.2h1.1v-5.6h2.1v-.9h-2.1v-4.6h-1.1v11.1Zm1.6,3.5v-.9h-8.4v-3.4h-1.1v4c0,.1,.1,.2,.1,.2c0,.1,.1,.1,.2,.1h9.2Zm3.6,-14.1v.9h9c0,.3,0,.7,-.1,1.1c0,.4,-.1,.8,-.1,1.2c-.1,.4,-.1,.8,-.2,1.2c0,.4,-.1,.8,-.2,1.1h-10v.9H262v3h-4.3v.9h8.8v4.2h1v-4.8c0,-.1,0,-.2,0,-.2c-.1,-.1,-.2,-.1,-.3,-.1H263v-3h6.4v-.9h-2.3c.1,-.4,.2,-.8,.2,-1.3c.1,-.5,.2,-.9,.2,-1.4c.1,-.5,.1,-.9,.1,-1.3c.1,-.5,.1,-.9,.2,-1.2c0,-.1,-.1,-.2,-.1,-.2q-.1,-.1,-.3,-.1h-9.7Zm14,1.4c-.6,.9,-.9,2.3,-.9,4.2c0,1.9,.3,3.3,.9,4.2c.5,.9,1.3,1.4,2.2,1.4c.8,0,1.5,-.4,2.1,-1.3c.6,-.8,.9,-2.1,.9,-3.9h1.9v7.7h1v-13.9h-1v5.3h-1.9c0,-1.7,-.3,-3,-.9,-3.9c-.6,-.8,-1.3,-1.2,-2.1,-1.2c-.9,0,-1.7,.4,-2.2,1.4Zm3.6,.8c.4,.8,.6,1.9,.6,3.4c0,1.4,-.2,2.6,-.6,3.4c-.4,.8,-.8,1.3,-1.4,1.3c-.6,0,-1.1,-.5,-1.5,-1.3c-.4,-.8,-.6,-2,-.6,-3.4c0,-1.5,.2,-2.6,.6,-3.4c.4,-.9,.9,-1.3,1.5,-1.3c.6,0,1,.4,1.4,1.3Zm6.2,12.2h1v-14.9h-1v14.9Zm10.4,-13.6h4.4v-1h-4.4v1Zm-1.6,2.8h3.3v.6c0,1.4,-.3,2.6,-1.1,3.7c-.7,1.1,-1.7,2.1,-3,2.8l1,.8c.9,-.7,1.6,-1.4,2.2,-2.2c.7,-.8,1.1,-1.7,1.5,-2.6c.3,.9,.8,1.7,1.4,2.4c.6,.8,1.3,1.5,2.2,2.1l.7,-.8c-.5,-.3,-1,-.7,-1.5,-1.1c-.5,-.4,-.9,-.9,-1.2,-1.4c-.4,-.6,-.6,-1.1,-.8,-1.7c-.2,-.7,-.3,-1.3,-.3,-2v-.6H298v-.9h-7.7v.9Zm10.3,2.1h-3.2v.9h3.2v7.8h1v-14.9h-1v6.2Zm7.4,-6.1c-.6,.2,-1.1,.4,-1.5,.6c-.5,.3,-.8,.6,-1.1,.9c-.2,.4,-.3,.8,-.3,1.2c0,.4,.1,.8,.3,1.2c.3,.4,.6,.7,1.1,.9c.4,.3,.9,.5,1.5,.6c.6,.1,1.3,.2,2.1,.2c.7,0,1.4,-.1,2,-.2c.6,-.1,1.1,-.3,1.6,-.6c.4,-.2,.8,-.5,1,-.9c.2,-.4,.4,-.8,.4,-1.2c0,-.4,-.2,-.8,-.4,-1.2c-.2,-.3,-.6,-.6,-1,-.9c-.5,-.2,-1,-.4,-1.6,-.6c-.6,-.1,-1.3,-.2,-2,-.2c-.8,0,-1.5,.1,-2.1,.2Zm3.6,.8c.5,.1,.9,.2,1.3,.4c.3,.2,.6,.4,.8,.7c.2,.2,.3,.5,.3,.8c0,.3,-.1,.5,-.3,.8c-.2,.3,-.5,.5,-.8,.7c-.4,.2,-.8,.3,-1.3,.4c-.4,.1,-1,.2,-1.5,.2c-.6,0,-1.1,-.1,-1.6,-.2c-.5,-.1,-.9,-.2,-1.3,-.4c-.3,-.2,-.6,-.4,-.8,-.7c-.2,-.3,-.3,-.5,-.3,-.8c0,-.3,.1,-.6,.3,-.8c.2,-.3,.5,-.5,.8,-.7c.4,-.2,.8,-.3,1.3,-.4c.5,-.1,1,-.2,1.6,-.2c.5,0,1.1,.1,1.5,.2Zm-8.1,7.1h13.2v-.9H303.5v.9Zm10.4,5.9h-7.6V1057h7.6v3.3Zm.9,.8c.1,0,.1,-.1,.1,-.3v-4.4c0,-.1,0,-.2,-.1,-.2c0,-.1,-.1,-.1,-.2,-.1h-9c-.1,0,-.2,0,-.2,.1c-.1,0,-.1,.1,-.1,.2v4.4c0,.2,0,.3,.1,.3c0,0,.1,.1,.2,.1h9c.1,0,.2,-.1,.2,-.1Zm9.6,-9.8c.5,.6,1.3,.9,2.3,1v1.7h-4.2v.8h4.9c1,0,2,0,2.9,-.1c.9,-.1,1.6,-.2,2.2,-.3v-.9c-.3,.1,-.7,.1,-1.1,.2c-.5,0,-.9,.1,-1.4,.1c-.4,0,-.9,.1,-1.3,.1c-.4,0,-.8,0,-1.1,0v-1.6c1,-.1,1.7,-.4,2.3,-1c.5,-.5,.8,-1.2,.8,-2c0,-.8,-.3,-1.5,-1,-2c-.6,-.6,-1.5,-.9,-2.6,-.9c-1.1,0,-1.9,.3,-2.6,.9c-.6,.5,-.9,1.2,-.9,2c0,.8,.2,1.5,.8,2Zm4.7,-3.3c.4,.4,.6,.9,.6,1.4c0,.5,-.2,.9,-.6,1.4c-.4,.4,-1.1,.6,-2,.6c-.8,0,-1.5,-.2,-1.9,-.6c-.4,-.5,-.6,-.9,-.6,-1.4c0,-.5,.2,-1,.6,-1.4c.4,-.4,1.1,-.6,1.9,-.6c.9,0,1.6,.2,2,.6Zm3.8,7.7h1v-4.5H336v-.9h-2.1v-3.9h-1v9.3Zm-6.4,1c0,.5,-.1,.9,-.2,1.3c-.2,.4,-.4,.8,-.7,1.1c-.3,.4,-.6,.7,-1,.9c-.3,.3,-.7,.5,-1.1,.7l.8,.7c.6,-.4,1.1,-.8,1.6,-1.3c.4,-.4,.8,-1,1.1,-1.6c.3,.6,.6,1.1,1,1.5c.4,.5,.9,.9,1.5,1.3c.5,-.3,1,-.8,1.4,-1.2c.5,-.5,.8,-1,1.1,-1.6c.3,.6,.6,1.2,1.1,1.6c.4,.5,1,.9,1.6,1.3l.8,-.7c-.4,-.2,-.8,-.4,-1.1,-.6c-.4,-.3,-.7,-.6,-1,-1c-.3,-.3,-.5,-.7,-.7,-1.1c-.1,-.4,-.2,-.8,-.2,-1.3v-.4h-1v.6c0,.3,-.1,.6,-.2,.9c-.1,.3,-.3,.7,-.5,.9c-.2,.3,-.4,.6,-.6,.9c-.2,.2,-.5,.4,-.7,.5c-.5,-.4,-1,-.8,-1.4,-1.4c-.4,-.6,-.6,-1.2,-.6,-1.9v-.5h-1v.4Zm14.7,-10.2c-.6,.1,-1.2,.3,-1.6,.5c-.4,.3,-.8,.5,-1,.9c-.2,.3,-.4,.6,-.4,1.1c0,.8,.5,1.4,1.4,1.9c.9,.5,2.1,.7,3.6,.7c.8,0,1.4,-.1,2.1,-.2c.6,-.1,1.1,-.3,1.5,-.5c.5,-.2,.8,-.5,1.1,-.8c.2,-.4,.3,-.7,.3,-1.1c0,-.5,-.1,-.8,-.3,-1.1c-.3,-.4,-.6,-.6,-1.1,-.9c-.4,-.2,-.9,-.4,-1.5,-.5c-.7,-.1,-1.3,-.2,-2.1,-.2c-.7,0,-1.4,.1,-2,.2Zm3.6,.8c.5,.1,.9,.2,1.3,.4c.3,.1,.6,.3,.8,.5c.2,.2,.3,.5,.3,.8c0,.2,-.1,.5,-.3,.7c-.2,.2,-.5,.4,-.8,.6c-.4,.1,-.8,.3,-1.3,.4c-.5,.1,-1,.1,-1.6,.1c-.5,0,-1.1,0,-1.6,-.1c-.4,-.1,-.9,-.3,-1.2,-.4c-.4,-.2,-.6,-.4,-.8,-.6c-.2,-.2,-.3,-.5,-.3,-.7c0,-.3,.1,-.6,.3,-.8c.2,-.2,.4,-.4,.8,-.5c.3,-.2,.8,-.3,1.2,-.4c.5,-.1,1.1,-.2,1.6,-.2c.6,0,1.1,.1,1.6,.2Zm-8.2,6.4h13.3v-.9H336.6v.9Zm1.9,4c0,.1,0,.2,0,.3v2.8q0,.2,0,.3c.1,0,.1,.1,.3,.1h9.6v-.9h-8.9v-1.8h8.2q.2,0,.3,-.1c0,0,.1,-.1,.1,-.2v-2.8c0,-.1,-.1,-.2,-.1,-.2q-.1,-.1,-.3,-.1h-9.2v.9H347v1.7h-8.2q-.2,0,-.3,0Zm18.2,-10.2c0,.1,-.1,.2,-.1,.3v9.3c0,.1,.1,.2,.1,.2c0,.1,.1,.1,.2,.1h.8c.2,0,.4,0,.6,0c.2,0,.3,-.1,.5,-.1c.2,0,.4,0,.6,0c.1,0,.3,-.1,.3,-.1v-.9c-.1,0,-.3,.1,-.6,.1c-.3,0,-.5,.1,-.7,.1h-.8v-8.2h2v-.8h-2.7c-.1,0,-.2,0,-.2,0Zm3.5,0c-.1,.1,-.1,.2,-.1,.3v9.3c0,.1,0,.2,.1,.2c0,.1,.1,.1,.2,.1h.7c.2,0,.4,0,.7,0c.2,-.1,.5,-.1,.7,-.1c.3,0,.5,-.1,.7,-.1c.2,0,.3,0,.4,-.1v-.8c-.1,0,-.4,0,-.7,.1c-.4,0,-.7,0,-.9,0l-.9,.1v-8.2h2.1v-.8h-2.8c-.1,0,-.2,0,-.2,0Zm3.9,13.1h1.1V1053h1.7v8.3H368v-14.9h-1.1v5.6h-1.7v-5.3h-1.1v13.9Zm17.4,-9v-.9h-8.9v-4.2h-1v4.8c0,.1,0,.2,.1,.2c0,.1,.1,.1,.2,.1h9.6Zm-11.7,3.2H383v-.9H369.8v.9Zm12,6.2v-.9h-9.2v-3.8h-1v4.4c0,.1,0,.2,.1,.2c0,.1,.1,.1,.2,.1h9.9Zm9.4,-13.7h4.3v-.9h-4.3v.9Zm-1.9,2.3h8.3v-.9h-8.3v.9Zm1.5,5.4c.6,.4,1.5,.6,2.6,.6c1.1,0,2,-.2,2.6,-.6c.6,-.5,.9,-1.1,.9,-1.9c0,-.8,-.3,-1.4,-.9,-1.8c-.6,-.5,-1.5,-.7,-2.6,-.7c-1.1,0,-2,.2,-2.6,.7c-.6,.4,-.9,1,-.9,1.8c0,.8,.3,1.4,.9,1.9Zm4.4,-.7c-.4,.3,-1,.5,-1.8,.5c-.7,0,-1.3,-.2,-1.8,-.5c-.4,-.3,-.6,-.7,-.6,-1.2c0,-.5,.2,-1,.6,-1.2c.5,-.3,1.1,-.5,1.8,-.5c.8,0,1.4,.2,1.8,.5c.4,.2,.7,.7,.7,1.2c0,.5,-.3,.9,-.7,1.2Zm4.2,3.2h1v-5.6h2.1v-.9h-2.1v-4.6h-1v11.1Zm1.5,3.5v-.9h-8.4v-3.4h-1v4c0,.1,0,.2,0,.2c.1,.1,.2,.1,.3,.1h9.1Zm3.6,-14.1v.9h9.1c0,.3,-.1,.7,-.1,1.1c-.1,.4,-.1,.8,-.2,1.2c0,.4,-.1,.8,-.1,1.2c-.1,.4,-.2,.8,-.2,1.1H402.9v.9h5.9v3h-4.2v.9h8.7v4.2h1.1v-4.8c0,-.1,-.1,-.2,-.1,-.2q-.1,-.1,-.2,-.1h-4.2v-3h6.3v-.9H414c0,-.4,.1,-.8,.2,-1.3c0,-.5,.1,-.9,.2,-1.4c0,-.5,0,-.9,.1,-1.3c0,-.5,.1,-.9,.1,-1.2c0,-.1,0,-.2,-.1,-.2c0,-.1,-.1,-.1,-.2,-.1h-9.8Zm14.5,1.3c-.7,.9,-1,2.3,-1,4.2c0,1.9,.3,3.3,1,4.3c.6,.9,1.4,1.4,2.4,1.4c1,0,1.8,-.5,2.4,-1.4c.7,-.8,1,-2.2,1,-4h3.3v8.6h1v-14.9h-1v5.4h-3.3c-.1,-1.7,-.4,-2.9,-1,-3.8c-.6,-.8,-1.4,-1.2,-2.4,-1.2c-1,0,-1.8,.5,-2.4,1.4Zm4.2,.8c.4,.8,.6,2,.6,3.4c0,1.5,-.2,2.6,-.6,3.5c-.4,.8,-1,1.2,-1.8,1.2c-.7,0,-1.3,-.4,-1.7,-1.2c-.5,-.9,-.7,-2,-.7,-3.5c0,-1.4,.2,-2.6,.7,-3.4c.4,-.9,1,-1.3,1.7,-1.3c.8,0,1.4,.4,1.8,1.3Zm10,-2.2v.8h8.4v1.4h-8.1c-.1,0,-.2,0,-.2,.1c-.1,0,-.1,.1,-.1,.2v2.5c0,.1,0,.2,.1,.2c0,.1,.1,.1,.2,.1H443v-.8h-8.8v-1.5h8.2q.1,0,.2,0c0,-.1,.1,-.2,.1,-.3v-2.4c0,-.1,-.1,-.2,-.1,-.3q-.1,0,-.2,0h-9.2Zm-1.8,7.4h13.2v-.8H431.4v.8Zm11.3,4.5c.1,0,.1,-.1,.1,-.2V1056c0,-.1,0,-.2,-.1,-.3c0,0,-.1,0,-.2,0h-9.3v.8h8.5v1.5h-8.2c-.1,0,-.2,0,-.2,0c-.1,.1,-.1,.2,-.1,.3v2.5q0,.2,.1,.3c0,0,.1,0,.2,0h9.6v-.8h-8.9v-1.5h8.3c.1,0,.2,0,.2,-.1Zm8.7,-10.7h3.1v.2c0,1.3,-.4,2.3,-1.1,3.1c-.8,.9,-1.8,1.5,-3,2l.9,.7c1,-.5,1.8,-1,2.4,-1.6c.6,-.6,1,-1.2,1.3,-2c.4,.8,.9,1.4,1.6,1.9c.7,.5,1.5,.9,2.2,1.2l.7,-.8c-1.2,-.3,-2.2,-.9,-2.9,-1.7c-.7,-.7,-1.1,-1.7,-1.1,-2.8v-.2h3v-.9h-7.1v.9Zm9.6,6.2h1v-3.7h2.1v-1H462v-3.1h-1v7.8Zm-8,.8v.9h7.9v1.7h-7.6c-.1,0,-.2,0,-.2,.1c-.1,0,-.1,.1,-.1,.2v2.9q0,.2,.1,.3c0,0,.1,0,.2,0h9.1v-.8H454v-1.8h7.7c.1,0,.2,0,.2,-.1c.1,0,.1,-.1,.1,-.2v-2.9c0,-.1,0,-.2,-.1,-.2c0,-.1,-.1,-.1,-.2,-.1H453Zm26.7,-4H472v-3.2h7.7v3.2Zm1,-3.8c0,-.1,0,-.2,-.1,-.3c0,0,-.1,0,-.2,0h-9q-.2,0,-.3,0c0,.1,0,.2,0,.3v4.4c0,.1,0,.2,0,.3q.1,0,.3,0h4v2.3h-6.2v.9h13.3v-.9h-6.1v-2.3h4c.1,0,.2,0,.2,0c.1,-.1,.1,-.2,.1,-.3v-4.4Zm-5.4,9.3c0,.5,-.2,1,-.5,1.5c-.2,.4,-.6,.8,-1.1,1.1c-.5,.4,-1.1,.7,-1.7,.9c-.7,.2,-1.4,.4,-2.1,.5l.8,.9c1.1,-.3,2.2,-.7,3.1,-1.2c.9,-.5,1.6,-1.2,2.1,-2.1c.2,.4,.5,.8,.8,1.2c.4,.3,.8,.7,1.2,.9c.5,.3,1,.5,1.5,.7c.6,.2,1.1,.4,1.7,.5l.7,-.9c-.7,-.1,-1.4,-.3,-2,-.5c-.7,-.2,-1.2,-.5,-1.7,-.9c-.5,-.3,-.9,-.7,-1.2,-1.1c-.3,-.5,-.4,-.9,-.4,-1.5v-.3h-1.2v.3Zm10.4,-9h3.4v-.9h-3.4v.9Zm-1.7,2.1h6.8v-.9H484v.9Zm1.2,1.4c-.5,.5,-.8,1,-.8,1.7c0,.8,.3,1.4,.8,1.8c.5,.4,1.3,.6,2.2,.6c.9,0,1.7,-.2,2.2,-.6c.5,-.4,.8,-1,.8,-1.8c0,-.7,-.3,-1.2,-.8,-1.7c-.5,-.4,-1.3,-.6,-2.2,-.6c-.9,0,-1.7,.2,-2.2,.6Zm3.7,.6c.3,.3,.5,.7,.5,1.1c0,.5,-.2,.9,-.5,1.1c-.4,.3,-.9,.5,-1.5,.5c-.7,0,-1.1,-.2,-1.5,-.5c-.3,-.2,-.5,-.6,-.5,-1.1c0,-.4,.2,-.8,.5,-1.1c.4,-.3,.8,-.4,1.5,-.4c.6,0,1.1,.1,1.5,.4Zm3,3.8h1v-3.8h2v3.8h1v-9h-1v4.2h-2v-3.9h-1v8.7Zm-3.9,.9c0,.5,-.1,.9,-.3,1.3c-.2,.4,-.4,.8,-.7,1.2c-.3,.4,-.6,.8,-1,1.1c-.4,.3,-.7,.6,-1.1,.8l.8,.7c.6,-.4,1.2,-.9,1.6,-1.4c.5,-.5,.9,-1.1,1.2,-1.7c.2,.6,.6,1.1,1,1.6c.4,.5,.9,1,1.5,1.4c.5,-.4,1,-.8,1.5,-1.3c.4,-.5,.7,-1.1,1,-1.6c.3,.6,.7,1.1,1.2,1.6c.4,.6,1,1,1.6,1.4l.9,-.7c-.4,-.2,-.8,-.4,-1.2,-.7c-.4,-.4,-.7,-.7,-1,-1.1c-.3,-.4,-.6,-.8,-.7,-1.2c-.2,-.5,-.3,-.9,-.3,-1.3v-.3h-1v.2c0,.7,-.2,1.4,-.6,2.1c-.4,.7,-.9,1.2,-1.4,1.7c-.6,-.5,-1.1,-1.1,-1.4,-1.7c-.4,-.6,-.6,-1.3,-.6,-2v-.3h-1v.2Zm11.5,-8.1c-.7,.9,-1,2.3,-1,4.2c0,1.9,.3,3.3,1,4.3c.6,.9,1.4,1.4,2.5,1.4c.9,0,1.7,-.5,2.4,-1.4c.6,-.8,.9,-2.2,1,-4h3.2v8.6h1.1v-14.9h-1.1v5.4h-3.3c0,-1.7,-.4,-2.9,-1,-3.8c-.6,-.8,-1.4,-1.2,-2.3,-1.2c-1.1,0,-1.9,.5,-2.5,1.4Zm4.2,.8c.4,.8,.6,2,.7,3.4c0,1.5,-.3,2.6,-.7,3.5c-.4,.8,-1,1.2,-1.7,1.2c-.8,0,-1.4,-.4,-1.8,-1.2c-.5,-.9,-.7,-2,-.7,-3.5c0,-1.4,.2,-2.6,.7,-3.4c.4,-.9,1,-1.3,1.8,-1.3c.7,0,1.3,.4,1.7,1.3Zm12.8,-2c-.7,.2,-1.2,.5,-1.6,.8c-.5,.4,-.8,.8,-1,1.3c-.3,.5,-.4,1,-.4,1.6c0,.7,.1,1.2,.4,1.7c.2,.5,.5,1,1,1.3c.4,.3,.9,.6,1.6,.8c.6,.2,1.3,.2,2,.2c.8,0,1.5,0,2.1,-.2c.6,-.2,1.1,-.5,1.6,-.8c.4,-.3,.8,-.8,1,-1.3c.2,-.5,.4,-1,.4,-1.7c0,-.6,-.2,-1.1,-.4,-1.6c-.2,-.5,-.6,-.9,-1,-1.3c-.5,-.3,-1,-.6,-1.6,-.8c-.6,-.2,-1.3,-.3,-2.1,-.3c-.7,0,-1.4,.1,-2,.3Zm3.6,.8c.5,.2,.9,.4,1.3,.6c.3,.3,.6,.7,.8,1c.2,.4,.3,.9,.3,1.3c0,.5,-.1,1,-.3,1.4c-.2,.4,-.5,.7,-.8,.9c-.4,.3,-.8,.5,-1.3,.7c-.5,.1,-1,.2,-1.6,.2c-.6,0,-1.1,-.1,-1.6,-.2c-.5,-.2,-.9,-.4,-1.2,-.7c-.4,-.2,-.6,-.5,-.8,-.9c-.2,-.4,-.3,-.9,-.3,-1.4c0,-.4,.1,-.9,.3,-1.3c.2,-.3,.4,-.7,.8,-1c.3,-.2,.7,-.4,1.2,-.6c.5,-.1,1,-.2,1.6,-.2c.6,0,1.1,.1,1.6,.2Zm-4.9,10.6h-3.3v.9h13.3v-.9h-3.3v-3.3h-1v3.3h-4.7v-3.3h-1v3.3Zm12,1.5h1.4v-1.5h-1.4v1.5Zm11,-12.2h4.2v-1h-4.2v1Zm-2,2.4h8.3v-1h-8.3v1Zm5.9,3c.5,.5,.7,1.1,.7,1.8c0,.8,-.2,1.4,-.7,1.9c-.4,.6,-1,.8,-1.7,.8c-.8,0,-1.4,-.2,-1.8,-.8c-.5,-.5,-.7,-1.1,-.7,-1.9c0,-.7,.2,-1.3,.7,-1.8c.4,-.6,1,-.8,1.8,-.8c.7,0,1.3,.2,1.7,.8Zm-5,3.3c.2,.4,.4,.8,.7,1.1c.3,.3,.7,.6,1.1,.8c.4,.1,.9,.2,1.5,.2c.5,0,1,-.1,1.4,-.2c.4,-.2,.8,-.5,1.1,-.8c.3,-.3,.5,-.7,.7,-1.1c.2,-.5,.3,-.9,.3,-1.5c0,-.5,-.1,-.9,-.3,-1.4c-.2,-.4,-.4,-.8,-.7,-1.1c-.3,-.3,-.7,-.6,-1.1,-.7c-.4,-.2,-.9,-.3,-1.4,-.3c-.6,0,-1.1,.1,-1.5,.3c-.4,.1,-.8,.4,-1.1,.7c-.3,.3,-.5,.7,-.7,1.1c-.2,.5,-.2,.9,-.2,1.4c0,.6,0,1.1,.2,1.5Zm9.1,5h1.1v-7.9h2.2v-.9h-2.2v-6.2h-1.1v15Zm4.9,-13.2h3.2v1.2c0,1.8,-.4,3.4,-1.1,4.7c-.8,1.4,-1.9,2.5,-3.2,3.4l1,.8c.8,-.7,1.6,-1.5,2.3,-2.5c.7,-.9,1.2,-1.9,1.5,-3c.4,1,.9,2,1.6,2.9c.7,.8,1.4,1.5,2.3,2.1l.8,-.8c-1.5,-.9,-2.5,-2,-3.2,-3.2c-.6,-1.2,-1,-2.5,-1,-4v-1.6h3.3v-.9h-7.5v.9Zm10.1,13.1h1.1v-14.9h-1.1v14.9Zm9.4,-8.1h-4.5V1048h4.5v5.2Zm.9,-5.7q0,-.2,0,-.3q-.1,0,-.2,0h-5.9c-.1,0,-.2,0,-.2,0q-.1,.1,-.1,.3v6.3c0,.1,0,.2,.1,.2c0,.1,.1,.1,.2,.1h5.9q.1,0,.2,-.1c0,0,0,-.1,0,-.2v-6.3Zm3.1,10h1.1v-6.4h2v-.9h-2v-3.8h-1.1v11.1Zm1.6,3.5v-.9h-8.5v-4h-1v4.6c0,.1,0,.2,.1,.2c0,.1,.1,.1,.2,.1h9.2Zm8,-12.8h3.2v1.2c0,1.8,-.3,3.4,-1.1,4.7c-.7,1.4,-1.8,2.5,-3.2,3.4l1,.8c.9,-.7,1.7,-1.5,2.4,-2.5c.7,-.9,1.2,-1.9,1.5,-3c.3,1,.8,2,1.5,2.9c.7,.8,1.5,1.5,2.4,2.1l.8,-.8c-1.5,-.9,-2.6,-2,-3.2,-3.2c-.7,-1.2,-1,-2.5,-1,-4v-1.6h3.3v-.9h-7.6v.9Zm10.2,13.1h1v-14.9h-1v14.9Zm4.5,-14.4v.9h9c0,.3,0,.7,-.1,1.1c0,.4,-.1,.8,-.1,1.2c-.1,.5,-.1,.9,-.2,1.3c-.1,.5,-.2,.8,-.2,1.2h-10v.9h13.3v-.9h-2.3c.1,-.4,.1,-.9,.2,-1.4c.1,-.4,.1,-.9,.2,-1.4c.1,-.5,.1,-1,.2,-1.4c0,-.5,0,-.9,.1,-1.2c0,-.1,-.1,-.2,-.1,-.2c0,-.1,-.1,-.1,-.2,-.1h-9.8Zm8.8,13.4h-7.6v-3.7h7.6v3.7Zm1,.8c0,0,0,-.1,0,-.3V1056c0,-.1,0,-.2,0,-.3c-.1,0,-.2,0,-.3,0h-8.9q-.2,0,-.3,0c0,.1,-.1,.2,-.1,.3v4.8c0,.2,.1,.3,.1,.3c.1,0,.1,.1,.3,.1h8.9c.1,0,.2,-.1,.3,-.1Zm7.4,-14.6c-.6,.2,-1.1,.4,-1.6,.7c-.4,.3,-.8,.6,-1,1c-.2,.4,-.4,.8,-.4,1.3c0,.5,.2,.9,.4,1.3c.2,.4,.6,.7,1,1c.5,.3,1,.5,1.6,.6c.6,.2,1.3,.2,2,.2c.8,0,1.4,0,2.1,-.2c.6,-.1,1.1,-.3,1.5,-.6c.5,-.3,.8,-.6,1.1,-1c.2,-.4,.3,-.8,.3,-1.3c0,-.5,-.1,-.9,-.3,-1.3c-.3,-.4,-.6,-.7,-1.1,-1c-.4,-.3,-.9,-.5,-1.5,-.7c-.7,-.1,-1.3,-.2,-2.1,-.2c-.7,0,-1.4,.1,-2,.2Zm3.6,.8c.5,.2,.9,.3,1.3,.6c.3,.2,.6,.4,.8,.7c.2,.3,.3,.6,.3,.9c0,.3,-.1,.6,-.3,.9c-.2,.3,-.5,.5,-.8,.7c-.4,.3,-.8,.4,-1.3,.5c-.5,.1,-1,.2,-1.6,.2c-.5,0,-1.1,-.1,-1.6,-.2c-.4,-.1,-.9,-.2,-1.2,-.5c-.4,-.2,-.6,-.4,-.8,-.7c-.2,-.3,-.3,-.6,-.3,-.9c0,-.3,.1,-.6,.3,-.9c.2,-.3,.4,-.5,.8,-.7c.3,-.3,.8,-.4,1.2,-.6c.5,-.1,1.1,-.1,1.6,-.1c.6,0,1.1,0,1.6,.1Zm-8.2,7.9h13.3v-.9H611.5v.9Zm12,5.8v-.9h-9.2v-3.6h-.9v4.2c0,.1,0,.2,0,.2q.1,.1,.3,.1h9.8Zm4.7,-13.7h4.3v-.9h-4.3v.9Zm-1.9,2.3h8.3v-.9h-8.3v.9Zm1.5,5.4c.6,.4,1.5,.6,2.6,.6c1.1,0,2,-.2,2.6,-.6c.6,-.5,.9,-1.1,.9,-1.9c0,-.8,-.3,-1.4,-.9,-1.8c-.6,-.5,-1.5,-.7,-2.6,-.7c-1.1,0,-2,.2,-2.6,.7c-.6,.4,-.9,1,-.9,1.8c0,.8,.3,1.4,.9,1.9Zm4.4,-.7c-.4,.3,-1,.5,-1.8,.5c-.7,0,-1.3,-.2,-1.8,-.5c-.4,-.3,-.6,-.7,-.6,-1.2c0,-.5,.2,-1,.6,-1.2c.5,-.3,1.1,-.5,1.8,-.5c.8,0,1.4,.2,1.8,.5c.5,.2,.7,.7,.7,1.2c0,.5,-.2,.9,-.7,1.2Zm4.2,3.2h1v-5.6h2.1v-.9h-2.1v-4.6h-1v11.1Zm1.5,3.5v-.9h-8.4v-3.4h-1v4c0,.1,0,.2,.1,.2c0,.1,.1,.1,.2,.1h9.1Zm3.7,-14.1v.9h9c0,.3,-.1,.7,-.1,1.1c0,.4,-.1,.8,-.2,1.2c0,.4,-.1,.8,-.1,1.2c-.1,.4,-.1,.8,-.2,1.1H639.9v.9h5.9v3h-4.2v.9h8.7v4.2h1.1v-4.8c0,-.1,0,-.2,-.1,-.2c0,-.1,-.1,-.1,-.2,-.1h-4.2v-3h6.3v-.9H651c.1,-.4,.1,-.8,.2,-1.3c.1,-.5,.1,-.9,.2,-1.4c0,-.5,.1,-.9,.1,-1.3c0,-.5,.1,-.9,.1,-1.2c0,-.1,0,-.2,-.1,-.2c0,-.1,-.1,-.1,-.2,-.1h-9.7Zm21.1,2.5c0,1.7,-.3,3.3,-1.1,4.7c-.7,1.4,-1.8,2.5,-3.2,3.4l1,.8c1,-.8,1.8,-1.7,2.5,-2.6c.6,-.9,1.1,-1.9,1.4,-2.9c.3,1,.8,2,1.5,2.8c.6,.9,1.4,1.6,2.4,2.2l.8,-.8c-1.4,-.9,-2.5,-1.9,-3.2,-3.1c-.7,-1.2,-1,-2.5,-1,-4.1V1047h-1.1v2.4Zm6.6,12h1v-8.2h2.3v-1h-2.3v-5.8h-1v15Zm4.8,-11.2c0,.1,0,.2,0,.3v3.5q0,.1,0,.2c.1,.1,.2,.1,.3,.1h1.2c.3,0,.7,0,1.1,0c.4,0,.8,-.1,1.2,-.1c.4,0,.9,0,1.3,-.1c.5,0,1,0,1.5,-.1c.4,-.1,.9,-.1,1.3,-.2c.4,0,.7,-.1,1,-.2v-.9c-.3,.1,-.7,.2,-1.1,.2c-.5,.1,-1,.2,-1.5,.2c-.5,.1,-1,.1,-1.4,.2c-.5,0,-.9,0,-1.3,0h-2.6V1051h5.1q.2,0,.3,0c0,-.1,.1,-.2,.1,-.3v-3.4c0,-.1,-.1,-.1,-.1,-.2q-.1,-.1,-.3,-.1h-6.1v.9h5.5v2.3h-5.2c-.1,0,-.2,0,-.3,0Zm9.5,4.8h1v-4.3h2.1v-1h-2.1v-3.3h-1v8.6Zm.1,5.3h-7.1v-3.5h7.1v3.5Zm.9,.8c0,0,.1,-.1,.1,-.3v-4.6c0,-.1,-.1,-.2,-.1,-.2q-.1,-.1,-.3,-.1h-8.4c-.1,0,-.2,0,-.3,.1c0,0,0,.1,0,.2v4.6c0,.2,0,.3,0,.3c.1,0,.2,.1,.3,.1h8.4c.2,0,.2,-.1,.3,-.1Zm3.6,-13.8v.9h6.3c0,.6,0,1.1,-.1,1.7c0,.6,-.1,1.2,-.1,1.8c-.1,.6,-.2,1.2,-.3,1.7c0,.6,-.1,1.1,-.2,1.5h1c.1,-.6,.2,-1.2,.3,-1.8c.1,-.7,.2,-1.4,.2,-2c.1,-.7,.1,-1.3,.2,-1.9c0,-.6,0,-1.1,0,-1.5c0,-.1,0,-.2,0,-.3c-.1,0,-.2,-.1,-.3,-.1h-7Zm2.3,9.8h-3v.9h2.6c.6,0,1.2,0,1.9,0c.7,0,1.4,-.1,2,-.1c.7,-.1,1.3,-.1,1.9,-.2c.5,0,1,-.1,1.4,-.1v-1c-.3,.1,-.7,.2,-1.3,.2c-.5,.1,-1,.1,-1.6,.1c-.5,.1,-1.1,.1,-1.6,.1c-.5,.1,-1,.1,-1.3,.1v-5.3h-1v5.3Zm7.2,4.3h1.1v-7.8h2.1v-1h-2.1v-6.2h-1.1v15Zm9.4,-13.2h3.2v1.2c0,1.8,-.4,3.4,-1.1,4.7c-.8,1.4,-1.9,2.5,-3.2,3.4l1,.8c.4,-.4,.8,-.8,1.2,-1.2c.4,-.4,.8,-.8,1.1,-1.3c.4,-.5,.7,-1,.9,-1.5c.3,-.5,.5,-1,.6,-1.5c.4,1.1,.9,2.1,1.6,2.9c.7,.8,1.5,1.5,2.3,2.1l.9,-.8c-1.5,-.8,-2.5,-1.8,-3.2,-3c-.7,-1.3,-1.1,-2.7,-1.1,-4.2v-1.6h3.3v-.9h-7.5v.9Zm9.5,13.2h1.1v-8.2h2.2v-1h-2.2v-5.8h-1.1v15Zm5.6,-13.5h4.4c0,.6,-.2,1.1,-.5,1.6c-.3,.5,-.7,.9,-1.2,1.3c-.5,.4,-1,.7,-1.7,1c-.7,.3,-1.4,.5,-2.1,.7l.8,.8c1.3,-.4,2.3,-.9,3.2,-1.4c.9,-.6,1.5,-1.4,2,-2.3c.4,.8,1,1.6,1.9,2.2c.8,.6,1.9,1.1,3.3,1.5l.8,-.9c-.7,-.1,-1.4,-.3,-2,-.6c-.7,-.3,-1.3,-.6,-1.8,-1c-.5,-.4,-.9,-.8,-1.2,-1.3c-.3,-.5,-.5,-1,-.5,-1.6h4.5v-.9h-9.9v.9Zm-1.7,8h6.2v5.4h1v-5.4h6v-.9H720.5v.9Zm20.3,-7.6c-.6,.9,-.9,2.3,-.9,4.2c0,1.9,.3,3.3,.9,4.2c.5,.9,1.3,1.4,2.2,1.4c.9,0,1.6,-.5,2.2,-1.4c.6,-.9,.9,-2.3,.9,-4.2c0,-1.9,-.3,-3.3,-.9,-4.2c-.6,-1,-1.3,-1.4,-2.2,-1.4c-.9,0,-1.7,.4,-2.2,1.4Zm3.6,.8c.4,.8,.6,1.9,.6,3.4c0,1.4,-.2,2.6,-.5,3.4c-.4,.8,-.9,1.3,-1.5,1.3c-.6,0,-1.1,-.5,-1.5,-1.3c-.4,-.8,-.6,-2,-.6,-3.4c0,-1.5,.2,-2.6,.6,-3.4c.4,-.9,.9,-1.3,1.5,-1.3c.6,0,1.1,.4,1.4,1.3Zm6.2,5.1h-2.1v-3.8h2.1v3.8Zm-3.1,6.4h1v-5.4h2.1v6.1h1.1v-14.9h-1.1v3h-2.1v-2.7h-1v13.9Zm7.6,-13.3v.9h5.1c-.2,2.1,-.8,3.9,-1.8,5.4c-1,1.5,-2.4,2.8,-4.2,3.8l.9,.7c1.9,-1.3,3.4,-2.8,4.4,-4.6c1.1,-1.7,1.7,-3.7,1.8,-5.9q0,-.1,0,-.2c-.1,-.1,-.2,-.1,-.3,-.1h-5.9Zm9.5,14h1v-14.9h-1v14.9Zm3.8,-11.2h6.9v-.9h-6.9v.9Zm1.5,-2.3h3.8v-.9h-3.8v.9Zm-.3,4.7c-.5,.6,-.8,1.4,-.8,2.4c0,.9,.3,1.7,.8,2.4c.6,.6,1.3,.9,2.3,.9c.9,0,1.6,-.3,2.2,-1c.5,-.6,.8,-1.4,.8,-2.3c0,-1,-.3,-1.8,-.8,-2.4c-.6,-.7,-1.3,-1,-2.2,-1c-1,0,-1.7,.3,-2.3,1Zm3.8,.6c.3,.5,.5,1.1,.5,1.8c0,.7,-.2,1.3,-.6,1.7c-.3,.5,-.8,.7,-1.4,.7c-.7,0,-1.2,-.2,-1.5,-.7c-.4,-.4,-.6,-1,-.6,-1.7c0,-.7,.2,-1.3,.6,-1.8c.3,-.5,.8,-.7,1.5,-.7c.6,0,1.1,.2,1.5,.7Zm2.9,7.5h1v-7.1h2.1v7.8h1v-14.9h-1v6.1h-2.1v-5.8h-1v13.9Zm9.8,-11.2c0,1,-.1,1.9,-.3,2.7c-.3,.8,-.6,1.5,-1,2.2c-.3,.7,-.8,1.3,-1.3,1.8c-.5,.5,-1.1,1,-1.7,1.4l1,.8c.4,-.4,.8,-.8,1.2,-1.2c.5,-.4,.8,-.9,1.2,-1.4c.3,-.4,.6,-.9,.8,-1.4c.3,-.5,.5,-1,.6,-1.5c.4,1.1,.9,2.1,1.6,2.9c.7,.8,1.5,1.5,2.3,2.1l.9,-.8c-1.4,-.8,-2.4,-1.8,-3.2,-3c-.7,-1.1,-1.1,-2.6,-1.1,-4.2V1047h-1v2.4Zm6.9,1.7h-3.4v.9H793v9.3h1.1v-14.9H793v4.7Zm-384.5,33.2h1.4v-1.5h-1.4v1.5Zm-185,74.6c.1,0,.1,.1,.3,.1h6.9v-1h-6.2c.5,-.5,1.1,-1.1,1.8,-1.8c.7,-.7,1.3,-1.4,1.9,-2.1c.6,-.8,1.2,-1.5,1.6,-2.3c.4,-.8,.7,-1.6,.7,-2.3c0,-1,-.4,-1.9,-1,-2.4c-.7,-.5,-1.5,-.8,-2.5,-.8c-.5,0,-1,.1,-1.4,.2c-.4,.2,-.8,.4,-1.1,.7c-.3,.3,-.5,.7,-.7,1.1c-.2,.5,-.2,.9,-.2,1.4h1c0,-.3,.1,-.6,.2,-.9c.1,-.4,.3,-.6,.5,-.8c.2,-.3,.4,-.5,.7,-.6c.3,-.1,.6,-.2,1,-.2c.6,0,1.2,.2,1.7,.6c.5,.4,.7,1,.7,1.8c0,.3,-.1,.6,-.2,.9c-.1,.4,-.3,.8,-.5,1.1c-.2,.4,-.5,.8,-.8,1.2c-.3,.4,-.6,.8,-.9,1.2c-.3,.4,-.7,.8,-1,1.2c-.3,.4,-.7,.7,-1,1.1c-.3,.3,-.6,.6,-.8,.9c-.3,.2,-.5,.5,-.7,.7v.8c0,.1,0,.2,0,.2Zm9.9,.3h1.4v-1.5h-1.4v1.5Zm13,-13.1c-.6,.2,-1.1,.4,-1.6,.7c-.4,.3,-.8,.6,-1,1c-.3,.4,-.4,.9,-.4,1.4c0,.6,.1,1,.4,1.4c.2,.5,.6,.8,1,1.1c.5,.3,1,.5,1.6,.7c.6,.1,1.3,.2,2.1,.2c.8,0,1.4,-.1,2.1,-.2c.6,-.2,1.1,-.4,1.6,-.7c.4,-.3,.8,-.6,1,-1.1c.2,-.4,.4,-.8,.4,-1.4c0,-.5,-.2,-1,-.4,-1.4c-.2,-.4,-.6,-.7,-1,-1c-.5,-.3,-1,-.5,-1.6,-.7c-.7,-.2,-1.3,-.2,-2.1,-.2c-.8,0,-1.5,0,-2.1,.2Zm3.7,.8c.5,.1,.9,.3,1.3,.5c.3,.2,.6,.5,.8,.8c.2,.3,.3,.7,.3,1.1c0,.3,-.1,.7,-.3,1c-.2,.3,-.5,.6,-.8,.8c-.4,.2,-.8,.4,-1.3,.5c-.5,.1,-1,.2,-1.6,.2c-.6,0,-1.1,-.1,-1.6,-.2c-.5,-.1,-.9,-.3,-1.3,-.5c-.3,-.2,-.6,-.5,-.8,-.8c-.2,-.3,-.3,-.7,-.3,-1c0,-.4,.1,-.8,.3,-1.1c.2,-.3,.5,-.6,.8,-.8c.4,-.2,.8,-.4,1.3,-.5c.5,-.1,1,-.2,1.6,-.2c.6,0,1.1,.1,1.6,.2Zm-8.2,8.3H248v5.4h1.1v-5.4h6v-.9H241.9v.9Zm16.2,1.7h.9c.3,0,.7,0,1.2,0c.4,0,.9,0,1.3,0c.5,0,.9,0,1.4,-.1c.5,0,1,-.1,1.4,-.1c.4,-.1,.8,-.2,1.2,-.2c.4,-.1,.7,-.1,.9,-.2v-.9c-.2,0,-.5,.1,-.9,.1c-.4,.1,-.8,.2,-1.3,.2c-.5,.1,-1,.1,-1.5,.2c-.5,0,-1,.1,-1.5,.1h-2.7v-3.9h5.1q.1,0,.2,-.1c0,0,.1,-.1,.1,-.2v-5c0,-.1,-.1,-.2,-.1,-.2q-.1,-.1,-.2,-.1h-6.2v.9h5.5v3.8h-5.2c-.1,0,-.2,0,-.2,.1c0,.1,-.1,.1,-.1,.2v5.1c0,.1,.1,.2,.1,.3c0,0,.1,0,.2,0h.4Zm8.9,3.7h1.1v-14.9H267v14.9Zm9.5,-11.2h7.9v-.9h-7.9v.9Zm1.9,-2.5h4.1v-.9h-4.1v.9Zm-.5,7.4c.5,.4,1.2,.6,2.1,.7v1.9h-4.2v.9h1.6c.6,0,1.3,0,2,0c.7,0,1.5,0,2.2,-.1c.7,0,1.5,0,2.2,-.1c.7,0,1.4,-.1,2.1,-.2v-.9c-.7,.1,-1.5,.2,-2.4,.2c-.8,.1,-1.6,.1,-2.5,.2V1155c.9,-.1,1.6,-.3,2.1,-.7c.5,-.5,.7,-1,.7,-1.7c0,-.7,-.3,-1.2,-.8,-1.7c-.6,-.4,-1.4,-.6,-2.5,-.6c-1.1,0,-1.9,.2,-2.5,.6c-.6,.5,-.8,1,-.8,1.7c0,.7,.2,1.2,.7,1.7Zm4.3,-.6c-.4,.3,-1,.4,-1.7,.4c-.8,0,-1.3,-.1,-1.7,-.4c-.4,-.2,-.6,-.6,-.6,-1c0,-.5,.2,-.9,.6,-1.1c.4,-.3,.9,-.5,1.7,-.5c.7,0,1.3,.2,1.7,.5c.4,.2,.6,.6,.6,1.1c0,.4,-.2,.8,-.6,1Zm4.1,6.9h1.1v-14.9h-1.1v14.9Zm6.8,-11.9c0,1.7,-.4,3.3,-1.1,4.7c-.7,1.4,-1.8,2.5,-3.2,3.4l1,.8c1,-.8,1.8,-1.7,2.4,-2.6c.6,-.9,1.1,-1.9,1.4,-2.9c.4,1,.9,2,1.5,2.8c.7,.9,1.5,1.6,2.4,2.2l.9,-.8c-1.5,-.9,-2.6,-1.9,-3.2,-3.1c-.7,-1.2,-1,-2.5,-1,-4.1v-2.7h-1.1v2.3Zm6.5,12h1.1v-8.2H303v-1h-2.3v-5.8h-1.1v15Zm5,-14.1v.9h5.1c-.2,2.1,-.8,3.8,-1.8,5.4c-1,1.5,-2.4,2.7,-4.3,3.7l.9,.7c2,-1.2,3.5,-2.7,4.5,-4.4c1.1,-1.7,1.7,-3.7,1.8,-5.9c0,-.1,0,-.2,0,-.3c-.1,0,-.2,-.1,-.3,-.1h-5.9Zm9.1,14.1h1.1v-7.8H317v-1h-2.2v-6.2h-1.1v15Zm10.5,-13.2c-.6,.9,-1,2.3,-1,4.2c0,1.9,.4,3.3,1,4.3c.7,.9,1.5,1.4,2.5,1.4c1,0,1.9,-.5,2.5,-1.4c.7,-1,1,-2.4,1,-4.3c0,-1.9,-.3,-3.3,-1,-4.2c-.6,-.9,-1.5,-1.4,-2.5,-1.4c-1,0,-1.8,.5,-2.5,1.4Zm4.3,.8c.4,.9,.7,2,.7,3.4c0,1.5,-.2,2.6,-.7,3.5c-.4,.8,-1,1.3,-1.8,1.3c-.7,0,-1.3,-.5,-1.8,-1.3c-.4,-.9,-.6,-2,-.6,-3.5c0,-1.4,.2,-2.5,.6,-3.4c.5,-.9,1.1,-1.3,1.8,-1.3c.8,0,1.4,.4,1.8,1.3Zm4.8,12.3h1.1v-14.9h-1.1v14.9Zm7.2,-11.9c0,1.7,-.4,3.3,-1.1,4.7c-.8,1.4,-1.8,2.5,-3.2,3.4l.9,.8c1,-.8,1.9,-1.7,2.5,-2.6c.6,-.9,1.1,-1.9,1.4,-2.9c.3,1,.8,2,1.5,2.8c.7,.9,1.5,1.6,2.4,2.2l.8,-.8c-1.4,-.9,-2.5,-1.9,-3.2,-3.1c-.6,-1.2,-1,-2.5,-1,-4.1v-2.7h-1v2.3Zm6.5,12h1.1v-8.2h2.2v-1h-2.2v-5.8H347v15Zm5.7,-14.6v.8h8.4v1.4H353c-.1,0,-.2,0,-.3,.1c0,0,0,.1,0,.2v2.5c0,.1,0,.2,0,.2c.1,.1,.2,.1,.3,.1h9.5v-.8h-8.8v-1.5h8.1c.1,0,.2,0,.3,0c0,-.1,0,-.2,0,-.3v-2.4c0,-.1,0,-.2,0,-.2c-.1,-.1,-.2,-.1,-.3,-.1h-9.1Zm-1.9,7.4h13.3v-.8H350.8v.8Zm11.4,4.6c0,-.1,.1,-.2,.1,-.3v-2.5c0,-.1,-.1,-.2,-.1,-.3q-.1,0,-.2,0h-9.3v.8h8.5v1.5H353c-.1,0,-.2,0,-.3,.1c0,0,0,.1,0,.2v2.5q0,.2,0,.3c.1,0,.2,.1,.3,.1h9.6v-.9h-8.9v-1.5H362q.1,0,.2,0Zm9.8,-11.3h3.4v-.8H372v.8Zm-1.6,2.1h6.7v-.9h-6.7v.9Zm1.1,1.4c-.5,.5,-.8,1,-.8,1.8c0,.7,.3,1.3,.8,1.7c.5,.4,1.3,.6,2.2,.6c.9,0,1.7,-.2,2.2,-.6c.5,-.4,.8,-1,.8,-1.7c0,-.8,-.3,-1.3,-.8,-1.8c-.5,-.4,-1.3,-.6,-2.2,-.6c-.9,0,-1.6,.2,-2.2,.6Zm3.7,.6c.3,.3,.5,.7,.5,1.2c0,.4,-.2,.8,-.5,1.1c-.4,.3,-.9,.4,-1.5,.4c-.6,0,-1.1,-.1,-1.5,-.4c-.3,-.3,-.5,-.7,-.5,-1.1c0,-.5,.2,-.9,.5,-1.2c.4,-.2,.9,-.4,1.5,-.4c.7,0,1.1,.2,1.5,.4Zm3,3.8h1v-3.8h2v3.8h1.1v-9h-1.1v4.2h-2V1146h-1v8.7Zm-3.9,.9c0,.5,-.1,.9,-.3,1.3c-.2,.5,-.4,.9,-.7,1.2c-.3,.4,-.6,.8,-1,1.1c-.3,.3,-.7,.6,-1.1,.8l.8,.7c.6,-.4,1.2,-.9,1.6,-1.4c.5,-.5,.9,-1.1,1.2,-1.7c.2,.6,.6,1.1,1,1.6c.4,.5,.9,1,1.5,1.4c.5,-.4,1,-.8,1.5,-1.3c.4,-.5,.7,-1.1,1,-1.6c.3,.6,.7,1.1,1.2,1.6c.4,.6,1,1,1.6,1.4l.9,-.7c-.4,-.2,-.8,-.4,-1.2,-.7c-.4,-.4,-.7,-.7,-1,-1.1c-.3,-.4,-.6,-.8,-.7,-1.2c-.2,-.5,-.3,-.9,-.3,-1.3v-.3h-1v.2c0,.7,-.2,1.4,-.6,2.1c-.4,.7,-.9,1.2,-1.4,1.7c-.6,-.5,-1,-1,-1.4,-1.7c-.4,-.6,-.6,-1.3,-.6,-2v-.3h-1v.2Zm11.5,-8.1c-.6,.9,-1,2.3,-1,4.2c0,1.9,.4,3.3,1,4.3c.6,.9,1.5,1.4,2.5,1.4c.9,0,1.8,-.5,2.4,-1.3c.6,-.9,.9,-2.3,1,-4.1h3.2v8.6H396v-14.9h-1.1v5.4h-3.2c-.1,-1.7,-.5,-2.9,-1.1,-3.8c-.6,-.8,-1.4,-1.2,-2.3,-1.2c-1,0,-1.9,.5,-2.5,1.4Zm4.2,.8c.4,.9,.7,2,.7,3.4c0,1.5,-.2,2.6,-.7,3.5c-.4,.8,-1,1.3,-1.7,1.3c-.8,0,-1.4,-.5,-1.8,-1.3c-.4,-.9,-.7,-2,-.7,-3.5c0,-1.4,.3,-2.5,.7,-3.4c.4,-.9,1,-1.3,1.8,-1.3c.7,0,1.3,.4,1.7,1.3Zm12.8,-2c-.6,.2,-1.2,.5,-1.6,.8c-.4,.4,-.8,.8,-1,1.3c-.3,.5,-.4,1,-.4,1.7c0,.6,.1,1.1,.4,1.6c.2,.5,.6,1,1,1.3c.4,.3,1,.6,1.6,.8c.6,.2,1.3,.3,2,.3c.8,0,1.5,-.1,2.1,-.3c.6,-.2,1.2,-.5,1.6,-.8c.4,-.3,.8,-.8,1,-1.3c.3,-.5,.4,-1,.4,-1.6c0,-.7,-.1,-1.2,-.4,-1.7c-.2,-.5,-.6,-.9,-1,-1.3c-.4,-.3,-1,-.6,-1.6,-.8c-.6,-.2,-1.3,-.2,-2.1,-.2c-.7,0,-1.4,0,-2,.2Zm3.6,.8c.5,.2,.9,.4,1.3,.7c.3,.2,.6,.6,.8,1c.2,.3,.3,.8,.3,1.3c0,.4,-.1,.9,-.3,1.3c-.2,.4,-.5,.7,-.8,1c-.4,.2,-.8,.4,-1.3,.6c-.4,.1,-1,.2,-1.6,.2c-.5,0,-1.1,-.1,-1.6,-.2c-.4,-.2,-.9,-.4,-1.2,-.6c-.3,-.3,-.6,-.6,-.8,-1c-.2,-.4,-.3,-.9,-.3,-1.3c0,-.5,.1,-1,.3,-1.3c.2,-.4,.5,-.8,.8,-1c.3,-.3,.8,-.5,1.2,-.7c.5,-.1,1.1,-.2,1.6,-.2c.6,0,1.2,.1,1.6,.2Zm-4.9,10.6h-3.3v.9h13.3v-.9h-3.3v-3.3h-1v3.3h-4.7v-3.3h-1v3.3Zm12.1,1.5H415v-1.5h-1.4v1.5Zm10,-12.2v.9h9c0,.6,0,1.2,-.1,2.1c-.1,.8,-.2,1.6,-.4,2.5c-.1,.9,-.3,1.7,-.5,2.6c-.2,.9,-.4,1.7,-.5,2.4H422v.9h13.3v-.9h-3.2c.2,-.7,.4,-1.5,.5,-2.4c.2,-.8,.4,-1.7,.5,-2.5c.1,-.9,.3,-1.8,.4,-2.7c0,-.9,.1,-1.8,.2,-2.6c0,-.1,-.1,-.2,-.1,-.2q-.1,-.1,-.3,-.1h-9.7Zm13.9,4.4c0,.1,-.1,.1,-.1,.2v5c0,.1,.1,.2,.1,.2c0,.1,.1,.1,.2,.1h2.7c.3,0,.6,0,1,-.1c.3,0,.6,0,.9,0c.3,-.1,.6,-.1,.9,-.1c.2,-.1,.5,-.1,.6,-.1v-.9c-.1,0,-.3,0,-.6,.1c-.3,0,-.5,0,-.8,0c-.3,.1,-.6,.1,-.9,.1c-.3,0,-.6,.1,-.8,.1h-2.3v-3.8h3.8c.1,0,.2,0,.3,-.1c0,0,0,-.1,0,-.2v-5c0,-.1,0,-.2,0,-.2c-.1,-.1,-.2,-.1,-.3,-.1h-4.8v.9h4.2v3.8h-3.9c-.1,0,-.2,0,-.2,.1Zm6.9,8.5h1v-7.7h2v8.4h1v-14.9h-1v5.5h-2V1146h-1v13.9Zm10.1,-11.2c0,1,-.1,1.9,-.3,2.7c-.3,.8,-.6,1.5,-1,2.2c-.3,.7,-.8,1.3,-1.3,1.8c-.5,.6,-1.1,1,-1.7,1.4l1,.8c.4,-.4,.8,-.8,1.2,-1.2c.5,-.4,.8,-.9,1.2,-1.4c.3,-.4,.6,-.9,.8,-1.4c.3,-.5,.5,-1,.6,-1.5c.4,1.1,.9,2.1,1.6,2.9c.7,.8,1.5,1.5,2.3,2.1l.9,-.8c-1.4,-.8,-2.4,-1.8,-3.2,-2.9c-.7,-1.2,-1.1,-2.7,-1.1,-4.3v-2.7h-1v2.3Zm6.9,1.7H458v.9h3.4v9.3h1.1v-14.9h-1.1v4.7Zm9.1,-2.9h3.2v1.2c0,1.8,-.3,3.4,-1.1,4.7c-.7,1.4,-1.8,2.5,-3.1,3.4l.9,.8c.9,-.7,1.7,-1.5,2.4,-2.5c.7,-.9,1.2,-1.9,1.5,-3c.3,1,.9,2,1.5,2.9c.7,.8,1.5,1.6,2.4,2.1l.8,-.8c-1.5,-.9,-2.6,-1.9,-3.2,-3.2c-.7,-1.2,-1,-2.5,-1,-4v-1.6h3.3v-.9h-7.6v.9Zm10.2,3h-3.3v.9h3.3v9.2h1v-14.9h-1v4.8Zm4.8,-3.8q-.1,.1,-.1,.2v6.5c0,.1,0,.2,.1,.2c0,.1,.1,.1,.2,.1h4v4h-6.1v.9h13.3v-.9h-6.1v-4h4.6v-.9h-9v-5.3h8.8v-.9h-9.5c-.1,0,-.2,0,-.2,.1Zm18.5,2.7h7.9v-.9H504v.9Zm1.9,-2.5H510v-.9h-4.1v.9Zm-.5,7.4c.5,.4,1.2,.6,2.1,.7v1.9h-4.2v.9h1.6c.7,0,1.3,0,2.1,0c.7,0,1.4,0,2.1,-.1c.8,0,1.5,0,2.2,-.1c.7,0,1.4,-.1,2.1,-.2v-.9c-.7,.1,-1.5,.2,-2.3,.2c-.9,.1,-1.7,.1,-2.6,.2V1155c1,-.1,1.6,-.3,2.1,-.7c.5,-.5,.7,-1,.7,-1.7c0,-.7,-.2,-1.2,-.8,-1.7c-.6,-.4,-1.4,-.6,-2.5,-.6c-1.1,0,-1.9,.2,-2.5,.6c-.5,.5,-.8,1,-.8,1.7c0,.7,.2,1.2,.7,1.7Zm4.3,-.6c-.4,.3,-.9,.4,-1.7,.4c-.7,0,-1.3,-.1,-1.7,-.4c-.4,-.2,-.6,-.6,-.6,-1c0,-.5,.2,-.9,.6,-1.1c.4,-.3,1,-.5,1.7,-.5c.8,0,1.3,.2,1.7,.5c.4,.2,.7,.6,.7,1.1c0,.4,-.3,.8,-.7,1Zm4.2,6.9h1v-14.9h-1v14.9Zm6.7,-11.9c0,1.7,-.3,3.3,-1.1,4.7c-.7,1.4,-1.8,2.5,-3.2,3.4l1,.8c1,-.8,1.8,-1.7,2.4,-2.6c.7,-.9,1.2,-1.9,1.4,-2.9c.4,1,.9,2,1.6,2.8c.6,.9,1.4,1.6,2.4,2.2l.8,-.8c-1.5,-.9,-2.5,-1.9,-3.2,-3.1c-.7,-1.2,-1,-2.5,-1,-4.1v-2.7h-1.1v2.3Zm6.6,12h1v-8.2h2.3v-1h-2.3v-5.8h-1v15Zm10.1,-14.5v.9h9c0,.4,0,.8,-.1,1.3c0,.5,-.1,1,-.2,1.5c0,.5,-.1,1,-.2,1.5c-.1,.5,-.1,.9,-.2,1.3h-9.9v.9H549v-.9h-2.3c.1,-.9,.3,-1.9,.4,-3c.1,-1.1,.2,-2.2,.3,-3.2c0,-.1,-.1,-.2,-.1,-.2q-.1,-.1,-.2,-.1h-9.8Zm10.4,14.1v-.9h-9.2v-4.2h-.9v4.8c0,.1,0,.2,0,.3q.1,0,.3,0h9.8Zm4.9,-13.3H557v-.9h-4.4v.9Zm-1.6,2.8h3.3v.7c0,1.3,-.3,2.5,-1.1,3.6c-.7,1.1,-1.7,2.1,-3,2.8l1,.8c.9,-.7,1.6,-1.4,2.2,-2.2c.7,-.8,1.1,-1.7,1.5,-2.6c.3,.9,.8,1.7,1.4,2.5c.6,.7,1.3,1.4,2.2,2l.7,-.8c-.5,-.3,-1,-.7,-1.5,-1.1c-.5,-.4,-.9,-.9,-1.2,-1.4c-.4,-.6,-.6,-1.1,-.8,-1.7c-.2,-.6,-.3,-1.3,-.3,-1.9v-.7h3.3v-.9H551v.9Zm10.2,2.1h-3.1v.9h3.1v7.8h1.1v-14.9h-1.1v6.2Zm14.1,-.9c0,-.1,.1,-.1,.1,-.3v-3.9c0,-.1,-.1,-.2,-.1,-.2q-.1,-.1,-.2,-.1h-9.2v.9h8.4v2.8h-8c-.1,0,-.2,0,-.3,.1c0,0,0,.1,0,.2v3.9c0,.1,0,.2,0,.2c.1,.1,.2,.1,.3,.1h4v3h-6.2v.9h13.3v-.9h-6.1v-3h4.6v-.9H567v-2.7h8.1c.1,0,.1,-.1,.2,-.1Zm174.4,8.2h1.4v-1.5h-1.4v1.5Z" class="ga_207"/>
<path d="M233,988.8c0,0,-13,0,-13,13v21.6c0,0,0,13,13,13H835c0,0,13,0,13,-13v-21.6c0,0,0,-13,-13,-13Z" class="g1_207"/>
<image clip-path="url(#c4_207)" preserveAspectRatio="none" x="176" y="959" width="75" height="76" xlink:href="img/4.png"/>
<path d="M227.8,1029.1c0,0,-26.8,11.3,-51.1,-12.8c0,0,15.2,25.3,49.3,24c0,0,24.8,.3,20.3,-10.1c0,0,1.2,-4.5,-18.5,-1.1Z" class="g1_207"/>
<path d="M153.3,109.5v39L165,158.7V136.5Z" class="gb_207"/>
<path d="M153.3,109.5v39H851.1c0,0,16.8,0,16.8,-16.8v-5.4c0,0,0,-16.8,-16.8,-16.8Z" class="g3_207"/>
<path d="M790.4,131c0,0,-.5,-10,8.6,-9.4c0,0,6.8,-.3,6.7,9.5m-15.3,-1.5v6.5c0,0,-3.4,.3,-3.9,-3c0,0,-.1,-3.8,3.9,-3.5Zm15.3,0v6.5c0,0,3.4,.3,4,-3c0,0,0,-3.8,-4,-3.5Z" class="gc_207"/>
<path d="M169,140.8h61v-32H169v32Z" class="gd_207"/>
<path d="M169,143.1h61v-2.3H169v2.3Z" class="gd_207"/>
<path d="M193.5,106.2H173.8v31.5h25.7V112.3c0,-3.4,-2.7,-6.1,-6,-6.1Z" class="g6_207"/>
<path d="M193.5,106.2v-.5H173.8c-.2,0,-.3,.1,-.4,.2c-.1,.1,-.2,.2,-.2,.3v31.5c0,.1,.1,.3,.2,.4c.1,.1,.2,.1,.4,.1h25.7c.2,0,.3,0,.4,-.1c.1,-.1,.1,-.3,.1,-.4V112.3c0,-3.7,-2.9,-6.6,-6.5,-6.6v1c1.5,0,2.9,.7,3.9,1.7c1,1,1.6,2.3,1.6,3.9v24.9H174.3V106.7h19.2Z" class="ge_207"/>
<path d="M173.8,131.7v6h25.7c0,-3.3,-2.7,-6,-6,-6Z" class="g6_207"/>
<path d="M173.8,131.7h-.6v6c0,.1,.1,.3,.2,.4c.1,.1,.2,.1,.4,.1h25.7c.2,0,.3,0,.4,-.1c.1,-.1,.1,-.3,.1,-.4c0,-3.6,-2.9,-6.6,-6.5,-6.6H173.8c-.2,0,-.3,.1,-.4,.2c-.1,.1,-.2,.2,-.2,.4h.6v.5h19.7c1.5,0,2.9,.6,3.9,1.6c1,1,1.6,2.4,1.6,3.9h.5v-.5H174.3v-5.5h-.5v.5Z" class="ge_207"/>
<path d="M177.3,110.9h17.2m-17.2,2.8h17.2m-17.2,2.9h17.2m-17.2,2.9h17.2m-17.2,2.8h17.2m-17.2,2.9h17.2M177.3,128h17.2" class="gf_207"/>
<path d="M193.5,132.2H174.3v5H199c-.1,-1.3,-.7,-2.5,-1.6,-3.4c-1,-1,-2.4,-1.6,-3.9,-1.6Z" class="gg_207"/>
<path d="M174.3,132.2h19.2c1.5,0,2.9,.6,3.9,1.6c.9,.9,1.5,2.1,1.6,3.4H174.3Zm19.2,-.5H173.8v6H199v-2.5c-.9,-2.1,-3.1,-3.5,-5.5,-3.5Z" class="gh_207"/>
<path d="M205.6,106.2h19.7v31.5H199.5V112.3c0,-3.4,2.7,-6.1,6.1,-6.1Z" class="g6_207"/>
<path d="M205.6,106.2v.5h19.2v30.5H200V112.3c0,-1.6,.7,-2.9,1.7,-3.9c1,-1,2.3,-1.7,3.9,-1.7v-1c-3.7,0,-6.6,2.9,-6.6,6.6v25.4c0,.1,.1,.3,.2,.4c0,.1,.2,.1,.3,.1h25.8c.1,0,.2,0,.3,-.1c.1,-.1,.2,-.3,.2,-.4V106.2c0,-.1,-.1,-.2,-.2,-.3c-.1,-.1,-.2,-.2,-.3,-.2H205.6Z" class="ge_207"/>
<path d="M225.3,131.7v6H199.5c0,-3.3,2.7,-6,6.1,-6Z" class="g6_207"/>
<path d="M225.3,131.7h-.5v5.5H199.5v.5h.5c0,-1.5,.7,-2.9,1.7,-3.9c1,-1,2.3,-1.6,3.9,-1.6h19.7v-.5h-.5h.5v-.6H205.6c-3.7,0,-6.6,3,-6.6,6.6c0,.1,.1,.3,.2,.4c0,.1,.2,.1,.3,.1h25.8c.1,0,.2,0,.3,-.1c.1,-.1,.2,-.3,.2,-.4v-6c0,-.2,-.1,-.3,-.2,-.4c-.1,-.1,-.2,-.2,-.3,-.2Z" class="ge_207"/>
<path d="M221.8,110.9H204.6m17.2,2.8H204.6m17.2,2.9H204.6m17.2,2.9H204.6m17.2,2.8H204.6m17.2,2.9H204.6m17.2,2.8H204.6" class="gf_207"/>
<path clip-path="url(#c5_207)" d="M200.1,137.2h24.7v-5H200.1v5Z" class="gg_207"/>
<path clip-path="url(#c6_207)" d="M200.1,137.2c.1,-1.3,.7,-2.5,1.6,-3.4c1,-1,2.3,-1.6,3.9,-1.6h19.2v5Zm25.2,-5.5H205.6c-3.4,0,-6.1,2.7,-6.1,6h25.8v-6h-.5h.5Z" class="gh_207"/>
<path d="M199.5,108.8v34.3" class="gf_207"/>
<path d="M217.2,145.5h3.3V134.7h-3.3v10.8Z" class="gi_207"/>
<path d="M153.8,594.8H866.9V401.4H153.8V594.8Z" class="gj_207"/>
<path d="M153.8,406V592.5m4.6,2.3H864.6m2.3,-4.6V403.7m-4.6,-2.3H156.1" class="gk_207"/>
<path d="M153.8,594.8v0m713.1,0v0m0,-193.4v0m-713.1,0v0" class="gl_207"/>
<path d="M153.1,404.7V376c0,0,0,-8.6,8.6,-8.6H859c0,0,8.6,0,8.6,8.6v29.2Z" class="gm_207"/>
<path d="M174.7,428.1c0,0,4.8,5.5,6.1,12.3c0,0,6.6,-11.3,11.7,-13.9c0,0,-9.3,4.9,-11.2,8.1c0,0,-1.8,-4.2,-6.6,-6.5Z" class="gn_207"/>
<path d="M183.1,396.3l3,2.9l8.1,-8.1l-2.9,-3Z" class="g6_207"/>
<path d="M186.1,400.2v0c.3,0,.5,-.1,.7,-.3l8.1,-8.1c.2,-.2,.3,-.5,.3,-.7c0,-.3,-.1,-.5,-.3,-.7l-2.9,-3c-.4,-.4,-1,-.4,-1.4,0l-8.2,8.2c-.3,.3,-.3,1,0,1.4l3,2.9c.2,.2,.4,.3,.7,.3m6.7,-9.1l-6.7,6.7l-1.6,-1.5l6.8,-6.8Z" class="go_207"/>
<path d="M189.7,369.3c-6.5,6.5,-6.5,17.1,0,23.7c6.5,6.5,17.1,6.5,23.7,0c6.5,-6.6,6.5,-17.2,0,-23.7c-6.6,-6.6,-17.2,-6.6,-23.7,0Z" class="gp_207"/>
<path d="M201.5,398.8c4.8,0,9.2,-1.8,12.6,-5.1c6.9,-7,6.9,-18.2,0,-25.1c-3.4,-3.4,-7.8,-5.2,-12.6,-5.2c-4.7,0,-9.1,1.8,-12.5,5.2c-6.9,6.9,-6.9,18.1,0,25.1c3.4,3.3,7.8,5.1,12.5,5.1m0,-33.4c4.2,0,8.2,1.6,11.2,4.6c6.1,6.1,6.1,16.1,0,22.3c-3,2.9,-7,4.6,-11.2,4.6c-4.2,0,-8.1,-1.7,-11.1,-4.6c-6.1,-6.2,-6.1,-16.2,0,-22.3c3,-3,6.9,-4.6,11.1,-4.6Z" class="go_207"/>
<path d="M175.7,401.4l5.2,5.3l8.2,-8.2l-5.2,-5.3Z" class="gq_207"/>
<path d="M180.9,407.7c.3,0,.5,-.1,.7,-.3l8.2,-8.2c.2,-.2,.3,-.5,.3,-.7c0,-.3,-.1,-.5,-.3,-.7l-5.2,-5.2c-.4,-.4,-1,-.4,-1.4,0l-8.2,8.1c-.4,.4,-.4,1,0,1.4l5.2,5.3c.2,.2,.5,.3,.7,.3m6.8,-9.2l-6.8,6.8l-3.8,-3.9l6.8,-6.8Z" class="go_207"/>
<path d="M189.5,381.2c0,6.6,5.3,12,11.9,12c6.6,0,12,-5.4,12,-12c0,-6.6,-5.4,-11.9,-12,-11.9c-6.6,0,-11.9,5.3,-11.9,11.9Z" class="g6_207"/>
<path d="M201.4,394c7,0,12.8,-5.8,12.8,-12.8c0,-7,-5.8,-12.7,-12.8,-12.7c-7,0,-12.7,5.7,-12.7,12.7c0,7,5.7,12.8,12.7,12.8m0,-23.9c6.2,0,11.2,5,11.2,11.1c0,6.2,-5,11.2,-11.2,11.2c-6.1,0,-11.1,-5,-11.1,-11.2c0,-6.1,5,-11.1,11.1,-11.1Z" class="go_207"/>
<path d="M32.1,45.1H9.2m958.3,0h22.9M32.1,1331.3H9.2m958.3,0h22.9M45.1,32.1V9.2m0,1335.1v22.9M954.5,32.1V9.2m0,1335.1v22.9" class="gr_207"/>
<path d="M32.1,45.1H9.2m958.3,0h22.9M32.1,1331.3H9.2m958.3,0h22.9M45.1,32.1V9.2m0,1335.1v22.9M954.5,32.1V9.2m0,1335.1v22.9" class="gs_207"/>
<path d="M27.5,32.1H0m972.1,0h27.5M27.5,1344.3H0m972.1,0h27.5M32.1,27.5V0m0,1348.9v27.5M967.5,27.5V0m0,1348.9v27.5" class="gr_207"/>
<path d="M27.5,32.1H0m972.1,0h27.5M27.5,1344.3H0m972.1,0h27.5M32.1,27.5V0m0,1348.9v27.5M967.5,27.5V0m0,1348.9v27.5" class="gs_207"/>
</svg>