<?xml version="1.0" encoding="UTF-8" standalone="no"?>
<!DOCTYPE svg PUBLIC "-//W3C//DTD SVG 1.1//EN"
"http://www.w3.org/Graphics/SVG/1.1/DTD/svg11.dtd">
<svg viewBox="0 0 999 1376" version="1.1" xmlns="http://www.w3.org/2000/svg" xmlns:xlink="http://www.w3.org/1999/xlink">
<defs>
<clipPath id="c0_365"><path d="M45.1,363.4V32.1H486.2V363.4Z"/></clipPath>
<clipPath id="c1_365"><path d="M485.5,363.4V32.1H929.3V363.4Z"/></clipPath>
<clipPath id="c2_365"><path d="M928.6,1344.3V32.1h38.9V1344.3Z"/></clipPath>
<clipPath id="c3_365"><path d="M45.1,698V362.7H486.2V698Z"/></clipPath>
<clipPath id="c4_365"><path d="M485.5,698V362.7H929.3V698Z"/></clipPath>
<clipPath id="c5_365"><path d="M45.1,1033V697.3H486.2V1033Z"/></clipPath>
<clipPath id="c6_365"><path d="M485.5,1033V697.3H929.3V1033Z"/></clipPath>
<clipPath id="c7_365"><path d="M45.1,1344.3v-312H486.2v312Z"/></clipPath>
<clipPath id="c8_365"><path d="M906,1297.3v-11H881.6v11Zm-28.3,.3V1286H781.5v11.6Zm-392.2,46.7v-312H929.3v312Z"/></clipPath>
<clipPath id="c9_365"><path d="M781.5,1297.6V1286h96.2v11.6Z"/></clipPath>
<clipPath id="ca_365"><path d="M881.6,1297.3v-11H906v11Z"/></clipPath>
<style type="text/css"><![CDATA[
.g0_365{
fill: #FEFCF4;
}
.g1_365{
fill: none;
stroke: #FFF;
stroke-width: 1.909;
stroke-miterlimit: 10;
}
.g2_365{
fill: none;
stroke: #000;
stroke-width: 0.381;
stroke-miterlimit: 10;
}
]]></style>
</defs>
<path d="M45.1,1344.3H967.5V32.1H45.1V1344.3Z" class="g0_365"/>
<image clip-path="url(#c0_365)" preserveAspectRatio="none" x="42" y="28" width="444" height="335" xlink:href="img/1.jpg"/>
<image clip-path="url(#c1_365)" preserveAspectRatio="none" x="485" y="28" width="444" height="335" xlink:href="img/2.jpg"/>
<image clip-path="url(#c2_365)" preserveAspectRatio="none" x="929" y="28" width="56" height="1340" xlink:href="img/3.jpg"/>
<image clip-path="url(#c3_365)" preserveAspectRatio="none" x="42" y="363" width="444" height="335" xlink:href="img/4.jpg"/>
<image clip-path="url(#c4_365)" preserveAspectRatio="none" x="485" y="363" width="444" height="335" xlink:href="img/5.jpg"/>
<image clip-path="url(#c5_365)" preserveAspectRatio="none" x="42" y="697" width="444" height="336" xlink:href="img/6.jpg"/>
<image clip-path="url(#c6_365)" preserveAspectRatio="none" x="485" y="697" width="444" height="336" xlink:href="img/7.jpg"/>
<image clip-path="url(#c7_365)" preserveAspectRatio="none" x="42" y="1032" width="444" height="336" xlink:href="img/8.jpg"/>
<image clip-path="url(#c8_365)" preserveAspectRatio="none" x="485" y="1032" width="444" height="336" xlink:href="img/9.jpg"/>
<image clip-path="url(#c9_365)" preserveAspectRatio="none" x="781" y="1286" width="97" height="12" xlink:href="img/10.jpg"/>
<image clip-path="url(#ca_365)" preserveAspectRatio="none" x="881" y="1286" width="25" height="12" xlink:href="img/11.jpg"/>
<path d="M32.1,45.1H9.2m958.3,0h22.9M32.1,1331.3H9.2m958.3,0h22.9M45.1,32.1V9.2m0,1335.1v22.9M954.5,32.1V9.2m0,1335.1v22.9" class="g1_365"/>
<path d="M32.1,45.1H9.2m958.3,0h22.9M32.1,1331.3H9.2m958.3,0h22.9M45.1,32.1V9.2m0,1335.1v22.9M954.5,32.1V9.2m0,1335.1v22.9" class="g2_365"/>
<path d="M27.5,32.1H0m972.1,0h27.5M27.5,1344.3H0m972.1,0h27.5M32.1,27.5V0m0,1348.9v27.5M967.5,27.5V0m0,1348.9v27.5" class="g1_365"/>
<path d="M27.5,32.1H0m972.1,0h27.5M27.5,1344.3H0m972.1,0h27.5M32.1,27.5V0m0,1348.9v27.5M967.5,27.5V0m0,1348.9v27.5" class="g2_365"/>
</svg>