<?xml version="1.0" encoding="UTF-8" standalone="no"?>
<!DOCTYPE svg PUBLIC "-//W3C//DTD SVG 1.1//EN"
"http://www.w3.org/Graphics/SVG/1.1/DTD/svg11.dtd">
<svg viewBox="0 0 999 1376" version="1.1" xmlns="http://www.w3.org/2000/svg" xmlns:xlink="http://www.w3.org/1999/xlink">
<defs>
<clipPath id="c0_372"><path d="M32.1,1344.3V32.1H967.5V1344.3Z"/></clipPath>
<clipPath id="c1_372"><path d="M230.9,1027.7V378h508v649.7Z"/></clipPath>
<style type="text/css"><![CDATA[
.g0_372{
fill: #FEFCF4;
}
.g1_372{
fill: #FFF;
}
.g2_372{
fill: none;
stroke: #6381B7;
stroke-width: 0.763;
}
.g3_372{
fill: #BC93AB;
}
.g4_372{
fill: none;
stroke: #D1B8D8;
stroke-width: 1.222;
}
.g5_372{
fill: #FFF;
stroke: #D1B8D8;
stroke-width: 1.222;
}
.g6_372{
fill: none;
stroke: #FFF;
stroke-width: 1.909;
stroke-miterlimit: 10;
}
.g7_372{
fill: none;
stroke: #000;
stroke-width: 0.381;
stroke-miterlimit: 10;
}
]]></style>
</defs>
<path d="M32.1,1343.2H954.5V32.1H32.1V1343.2Z" class="g0_372"/>
<path clip-path="url(#c0_372)" d="M954.5,1344.3H1877V32.1H954.5V1344.3Z" class="g0_372"/>
<path d="M145.1,131.7c0,0,-13,0,-13,13V1227.4c0,0,0,13,13,13H832.9c0,0,13,0,13,-13V144.7c0,0,0,-13,-13,-13Z" class="g1_372"/>
<path d="M145.1,131.7c0,0,-13,0,-13,13V1227.4c0,0,0,13,13,13H832.9c0,0,13,0,13,-13V144.7c0,0,0,-13,-13,-13H145.1Z" class="g2_372"/>
<path d="M169.9,162c0,0,-6.5,0,-6.5,6.5v17.3c0,0,0,6.5,6.5,6.5H451.4c0,0,6.5,0,6.5,-6.5V168.5c0,0,0,-6.5,-6.5,-6.5Z" class="g3_372"/>
<image clip-path="url(#c1_372)" preserveAspectRatio="none" x="231" y="378" width="508" height="652" xlink:href="img/1.jpg"/>
<path d="M317.3,309c0,0,-10.4,0,-10.4,10.4v70c0,0,0,10.4,10.4,10.4H462.8c0,0,10.4,0,10.4,-10.4v-70c0,0,0,-10.4,-10.4,-10.4Z" class="g1_372"/>
<path d="M317.3,309c0,0,-10.4,0,-10.4,10.4v70c0,0,0,10.4,10.4,10.4H462.8c0,0,10.4,0,10.4,-10.4v-70c0,0,0,-10.4,-10.4,-10.4H317.3Z" class="g4_372"/>
<path d="M430.9,397c0,0,4.5,17,22.9,17.7c0,0,-7.6,-8.7,-6.6,-17.7" class="g5_372"/>
<path d="M313.6,388.3H469.5V320.5H313.6v67.8Z" class="g1_372"/>
<path d="M582.3,227.8c0,0,-10.4,0,-10.4,10.4V376.4c0,0,0,10.4,10.4,10.4H750.8c0,0,10.4,0,10.4,-10.4V238.2c0,0,0,-10.4,-10.4,-10.4Z" class="g1_372"/>
<path d="M582.3,227.8c0,0,-10.4,0,-10.4,10.4V376.4c0,0,0,10.4,10.4,10.4H750.8c0,0,10.4,0,10.4,-10.4V238.2c0,0,0,-10.4,-10.4,-10.4H582.3Z" class="g4_372"/>
<path d="M613.5,384c0,0,-4.5,17,-22.9,17.7c0,0,7.7,-8.7,6.6,-17.7" class="g5_372"/>
<path d="M652.5,726.4c0,0,-10.4,0,-10.4,10.4v81.9c0,0,0,10.4,10.4,10.4H804.1c0,0,10.4,0,10.4,-10.4V736.8c0,0,0,-10.4,-10.4,-10.4Z" class="g1_372"/>
<path d="M652.5,726.4c0,0,-10.4,0,-10.4,10.4v81.9c0,0,0,10.4,10.4,10.4H804.1c0,0,10.4,0,10.4,-10.4V736.8c0,0,0,-10.4,-10.4,-10.4H652.5Z" class="g4_372"/>
<path d="M683.8,826.3c0,0,-4.5,17,-22.9,17.7c0,0,7.6,-8.7,6.6,-17.7" class="g5_372"/>
<path d="M653.3,816.9H809.2V735.8H653.3v81.1Z" class="g1_372"/>
<path d="M638.2,1015.8c0,0,-10.4,0,-10.4,10.4v64.6c0,0,0,10.4,10.4,10.4H798c0,0,10.4,0,10.4,-10.4v-64.6c0,0,0,-10.4,-10.4,-10.4Z" class="g1_372"/>
<path d="M638.2,1015.8c0,0,-10.4,0,-10.4,10.4v64.6c0,0,0,10.4,10.4,10.4H798c0,0,10.4,0,10.4,-10.4v-64.6c0,0,0,-10.4,-10.4,-10.4H638.2Z" class="g4_372"/>
<path d="M669.4,1020.7c0,0,-4.5,-17,-22.9,-17.6c0,0,7.7,8.6,6.6,17.6" class="g5_372"/>
<path d="M638.4,1092.1H797.8v-63.5H638.4v63.5Z" class="g1_372"/>
<path d="M417.7,1015.8c0,0,-10.4,0,-10.4,10.4v64.6c0,0,0,10.4,10.4,10.4H581.5c0,0,10.4,0,10.4,-10.4v-64.6c0,0,0,-10.4,-10.4,-10.4Z" class="g1_372"/>
<path d="M417.7,1015.8c0,0,-10.4,0,-10.4,10.4v64.6c0,0,0,10.4,10.4,10.4H581.5c0,0,10.4,0,10.4,-10.4v-64.6c0,0,0,-10.4,-10.4,-10.4H417.7Z" class="g4_372"/>
<path d="M448.9,1020.7c0,0,-4.5,-17,-22.8,-17.6c0,0,7.6,8.6,6.5,17.6" class="g5_372"/>
<path d="M416.3,1092.2H585.2v-63.5H416.3v63.5Z" class="g1_372"/>
<path d="M197.6,1015.8c0,0,-10.4,0,-10.4,10.4v71.5c0,0,0,10.4,10.4,10.4H370.1c0,0,10.4,0,10.4,-10.4v-71.5c0,0,0,-10.4,-10.4,-10.4Z" class="g1_372"/>
<path d="M197.6,1015.8c0,0,-10.4,0,-10.4,10.4v71.5c0,0,0,10.4,10.4,10.4H370.1c0,0,10.4,0,10.4,-10.4v-71.5c0,0,0,-10.4,-10.4,-10.4H197.6Z" class="g4_372"/>
<path d="M309.9,1020.7c0,0,4.5,-17,22.9,-17.6c0,0,-7.7,8.6,-6.6,17.6" class="g5_372"/>
<path d="M197.6,1094.2H372.5v-63.5H197.6v63.5Z" class="g1_372"/>
<path d="M184.3,446.3c0,0,-10.4,0,-10.4,10.4v64.6c0,0,0,10.4,10.4,10.4H312c0,0,10.4,0,10.4,-10.4V456.7c0,0,0,-10.4,-10.4,-10.4Z" class="g1_372"/>
<path d="M184.3,446.3c0,0,-10.4,0,-10.4,10.4v64.6c0,0,0,10.4,10.4,10.4H312c0,0,10.4,0,10.4,-10.4V456.7c0,0,0,-10.4,-10.4,-10.4H184.3Z" class="g4_372"/>
<path d="M280.1,528.9c0,0,4.5,17,22.9,17.7c0,0,-7.6,-8.7,-6.6,-17.7" class="g5_372"/>
<path d="M188,524.9H309.2V455.6H188v69.3Z" class="g1_372"/>
<path d="M168.6,675.6c0,0,-10.4,0,-10.4,10.4v64.6c0,0,0,10.4,10.4,10.4h160c0,0,10.4,0,10.4,-10.4V686c0,0,0,-10.4,-10.4,-10.4Z" class="g1_372"/>
<path d="M168.6,675.6c0,0,-10.4,0,-10.4,10.4v64.6c0,0,0,10.4,10.4,10.4h160c0,0,10.4,0,10.4,-10.4V686c0,0,0,-10.4,-10.4,-10.4h-160Z" class="g4_372"/>
<path d="M292.3,758.2c0,0,4.5,17,22.9,17.7c0,0,-7.6,-8.7,-6.6,-17.7" class="g5_372"/>
<path d="M166.5,755.7H331V686.5H166.5v69.2Z" class="g1_372"/>
<path d="M32.1,45.1H9.2m958.3,0h22.9M32.1,1331.3H9.2m958.3,0h22.9M45.1,32.1V9.2m0,1335.1v22.9M954.5,32.1V9.2m0,1335.1v22.9" class="g6_372"/>
<path d="M32.1,45.1H9.2m958.3,0h22.9M32.1,1331.3H9.2m958.3,0h22.9M45.1,32.1V9.2m0,1335.1v22.9M954.5,32.1V9.2m0,1335.1v22.9" class="g7_372"/>
<path d="M27.5,32.1H0m972.1,0h27.5M27.5,1344.3H0m972.1,0h27.5M32.1,27.5V0m0,1348.9v27.5M967.5,27.5V0m0,1348.9v27.5" class="g6_372"/>
<path d="M27.5,32.1H0m972.1,0h27.5M27.5,1344.3H0m972.1,0h27.5M32.1,27.5V0m0,1348.9v27.5M967.5,27.5V0m0,1348.9v27.5" class="g7_372"/>
</svg>