<?xml version="1.0" encoding="UTF-8" standalone="no"?>
<!DOCTYPE svg PUBLIC "-//W3C//DTD SVG 1.1//EN"
"http://www.w3.org/Graphics/SVG/1.1/DTD/svg11.dtd">
<svg viewBox="0 0 999 1376" version="1.1" xmlns="http://www.w3.org/2000/svg" xmlns:xlink="http://www.w3.org/1999/xlink">
<defs>
<clipPath id="c0_62"><path d="M198.1,346.7V247.5h99.2v99.2Z"/></clipPath>
<clipPath id="c1_62"><path d="M198.1,498.9V399.7h99.2v99.2Z"/></clipPath>
<clipPath id="c2_62"><path d="M514.6,498.9V404.1H635.1v94.8Z"/></clipPath>
<clipPath id="c3_62"><path d="M198.1,648.9V549.7h99.2v99.2Z"/></clipPath>
<clipPath id="c4_62"><path d="M514.6,648.9V554.1H635.1v94.8Z"/></clipPath>
<clipPath id="c5_62"><path d="M210,945.4V885.5h66.1v59.9Z"/></clipPath>
<clipPath id="c6_62"><path d="M206.4,1016.4V956.6h73v59.8Z"/></clipPath>
<clipPath id="c7_62"><path d="M209.6,1087.5v-59.9h68v59.9Z"/></clipPath>
<clipPath id="c8_62"><path d="M205.7,1158.5v-59.8h71.7v59.8Z"/></clipPath>
<clipPath id="c9_62"><path d="M205.7,1229.6v-59.8h71.7v59.8Z"/></clipPath>
<clipPath id="ca_62"><path d="M694.7,712V576.2H809.1V712Z"/></clipPath>
<clipPath id="cb_62"><path d="M178,230.8l-6.5,-2.1L155.1,214.8V157.7h72v73.1Z"/></clipPath>
<clipPath id="cc_62"><path d="M177,813.8l-6.5,-2.1L154.1,797.8V740.7h72v73.1Z"/></clipPath>
<style type="text/css"><![CDATA[
.g0_62{
fill: #FEFCF4;
}
.g1_62{
fill: #FFF;
}
.g2_62{
fill: none;
stroke: #6381B7;
stroke-width: 0.763;
}
.g3_62{
fill: none;
stroke: #949698;
stroke-width: 0.381;
}
.g4_62{
fill: none;
stroke: #231F20;
stroke-width: 0.305;
stroke-miterlimit: 10;
}
.g5_62{
fill: #6381B7;
}
.g6_62{
fill: none;
stroke: #6381B7;
stroke-width: 0.381;
stroke-dasharray: 2,1;
}
.g7_62{
fill: none;
stroke: #6381B7;
stroke-width: 0.381;
}
.g8_62{
fill: #48484A;
}
.g9_62{
fill: #F0E8F3;
}
.ga_62{
fill: #766FA6;
}
.gb_62{
fill: #FCE8B0;
}
.gc_62{
fill: #25408F;
}
.gd_62{
fill: #00BAF1;
}
.ge_62{
fill: #332D2C;
}
.gf_62{
fill: #D9DFF0;
}
.gg_62{
fill: #F27C85;
}
.gh_62{
fill: #7DD3F6;
}
.gi_62{
fill: none;
stroke: #FFF;
stroke-width: 1.909;
stroke-miterlimit: 10;
}
.gj_62{
fill: none;
stroke: #000;
stroke-width: 0.381;
stroke-miterlimit: 10;
}
]]></style>
</defs>
<path d="M32.1,1344.3H954.5V32.1H32.1V1344.3Z" class="g0_62"/>
<path d="M150.4,133.7c0,0,-18.3,0,-18.3,18.3V716.5c0,0,0,18.4,18.3,18.4H827.5c0,0,18.4,0,18.4,-18.4V133.7Z" class="g1_62"/>
<path d="M150.4,133.7c0,0,-18.3,0,-18.3,18.3V716.5c0,0,0,18.4,18.3,18.4H827.5c0,0,18.4,0,18.4,-18.4V133.7H150.4Z" class="g2_62"/>
<path d="M187.4,346.7H307.9V247.5H187.4v99.2Z" class="g1_62"/>
<image clip-path="url(#c0_62)" preserveAspectRatio="none" x="198" y="248" width="99" height="99" xlink:href="img/1.jpg"/>
<path d="M187.4,346.7H307.9V247.5H187.4v99.2Z" class="g3_62"/>
<path d="M514.6,346.7H635.1V247.5H514.6v99.2Z" class="g1_62"/>
<image preserveAspectRatio="none" x="525" y="248" width="99" height="99" xlink:href="img/2.jpg"/>
<path d="M514.6,346.7H635.1V247.5H514.6v99.2Z" class="g3_62"/>
<path d="M351,346.7H471.5V247.5H351v99.2Z" class="g1_62"/>
<image preserveAspectRatio="none" x="362" y="248" width="99" height="99" xlink:href="img/3.jpg"/>
<path d="M351,346.7H471.5V247.5H351v99.2Z" class="g3_62"/>
<path d="M187.4,498.9H307.9V399.7H187.4v99.2Z" class="g1_62"/>
<image clip-path="url(#c1_62)" preserveAspectRatio="none" x="198" y="400" width="99" height="99" xlink:href="img/4.jpg"/>
<path d="M187.4,498.9H307.9V399.7H187.4v99.2Z" class="g3_62"/>
<path d="M351,498.9H471.5V399.7H351v99.2Z" class="g1_62"/>
<image preserveAspectRatio="none" x="362" y="400" width="99" height="99" xlink:href="img/5.jpg"/>
<path d="M351,498.9H471.5V399.7H351v99.2Z" class="g3_62"/>
<path d="M514.6,498.9H635.1V399.7H514.6v99.2Z" class="g1_62"/>
<image clip-path="url(#c2_62)" preserveAspectRatio="none" x="515" y="404" width="120" height="96" xlink:href="img/6.jpg"/>
<path d="M514.6,498.9H635.1V399.7H514.6v99.2Z" class="g3_62"/>
<path d="M678.2,498.9H798.7V399.7H678.2v99.2Z" class="g1_62"/>
<image preserveAspectRatio="none" x="689" y="400" width="99" height="99" xlink:href="img/7.jpg"/>
<path d="M678.2,498.9H798.7V399.7H678.2v99.2Z" class="g3_62"/>
<path d="M187.4,648.9H307.9V549.7H187.4v99.2Z" class="g1_62"/>
<image clip-path="url(#c3_62)" preserveAspectRatio="none" x="198" y="550" width="99" height="99" xlink:href="img/8.jpg"/>
<path d="M187.4,648.9H307.9V549.7H187.4v99.2Z" class="g3_62"/>
<path d="M351,648.9H471.5V549.7H351v99.2Z" class="g1_62"/>
<image preserveAspectRatio="none" x="362" y="550" width="99" height="99" xlink:href="img/9.jpg"/>
<path d="M351,648.9H471.5V549.7H351v99.2Z" class="g3_62"/>
<path d="M514.6,648.9H635.1V549.7H514.6v99.2Z" class="g1_62"/>
<image clip-path="url(#c4_62)" preserveAspectRatio="none" x="515" y="554" width="120" height="96" xlink:href="img/10.jpg"/>
<path d="M514.6,648.9H635.1V549.7H514.6v99.2Z" class="g3_62"/>
<path d="M145.1,822.8c0,0,-13,0,-13,13v394.3c0,0,0,13,13,13H832.9c0,0,13,0,13,-13V835.8c0,0,0,-13,-13,-13Z" class="g1_62"/>
<path d="M145.1,822.8c0,0,-13,0,-13,13v394.3c0,0,0,13,13,13H832.9c0,0,13,0,13,-13V835.8c0,0,0,-13,-13,-13H145.1Z" class="g2_62"/>
<image clip-path="url(#c5_62)" preserveAspectRatio="none" x="210" y="884" width="66" height="62" xlink:href="img/11.jpg"/>
<image clip-path="url(#c6_62)" preserveAspectRatio="none" x="206" y="957" width="73" height="60" xlink:href="img/12.jpg"/>
<image clip-path="url(#c7_62)" preserveAspectRatio="none" x="210" y="1027" width="68" height="61" xlink:href="img/13.jpg"/>
<image clip-path="url(#c8_62)" preserveAspectRatio="none" x="206" y="1099" width="72" height="60" xlink:href="img/14.jpg"/>
<image clip-path="url(#c9_62)" preserveAspectRatio="none" x="205" y="1170" width="73" height="61" xlink:href="img/15.jpg"/>
<path d="M414,922.8h86m13.1,71.8H599m-240.9,71.8H444m-4.1,71.8h85.9m-185,71.8h86" class="g4_62"/>
<path d="M666.9,1159.6c0,0,-4.3,0,-4.3,4.4v10.8c0,0,0,4.3,4.3,4.3h30.3c0,0,4.4,0,4.4,-4.3V1164c0,0,0,-4.4,-4.4,-4.4Z" class="g5_62"/>
<path d="M653.7,1152.1v76.3m1.4,.9h177m1,-1.3v-76.3m-1.4,-.9h-177" class="g6_62"/>
<path d="M653.7,1228.8v.5h.6m178.2,0h.6v-.5m0,-77.5v-.5h-.6m-178.2,0h-.6v.5" class="g7_62"/>
<path d="M721.2,913.4c0,0,-4.3,0,-4.3,4.3v14.8c0,0,0,4.3,4.1,5.7l52.4,18.6c0,0,4.1,1.4,4.1,-2.9V917.7c0,0,0,-4.3,-4.3,-4.3Z" class="g8_62"/>
<path d="M742.4,900.4c0,0,-13,0,-13,13v147.2c0,0,0,13,13,13h67c0,0,13,0,13,-13V913.4c0,0,0,-13,-13,-13Z" class="g9_62"/>
<path d="M721.2,911.2c0,0,-4.3,0,-4.3,4.3v17.4c0,0,0,4.3,4.3,4.3h37.3c0,0,4.3,0,4.3,-4.3V915.5c0,0,0,-4.3,-4.3,-4.3Z" class="ga_62"/>
<image clip-path="url(#ca_62)" preserveAspectRatio="none" x="693" y="575" width="118" height="139" xlink:href="img/16.png"/>
<path d="M210.6,185.8c0,0,-13,0,-13,13v21.7c0,0,0,13,13,13h602c0,0,13,0,13,-13V198.8c0,0,0,-13,-13,-13Z" class="gb_62"/>
<image clip-path="url(#cb_62)" preserveAspectRatio="none" x="154" y="156" width="75" height="76" xlink:href="img/17.png"/>
<path d="M205.4,226.1c0,0,-26.8,11.3,-51.1,-12.8c0,0,15.2,25.4,49.3,24c0,0,24.8,.3,20.3,-10.1c0,0,1.2,-4.5,-18.5,-1.1Z" class="gb_62"/>
<path d="M209.6,768.8c0,0,-12.9,0,-12.9,13v21.7c0,0,0,13,12.9,13H833.3c0,0,13,0,13,-13V781.8c0,0,0,-13,-13,-13Z" class="gb_62"/>
<image clip-path="url(#cc_62)" preserveAspectRatio="none" x="153" y="739" width="75" height="76" xlink:href="img/18.png"/>
<path d="M204.4,809.1c0,0,-26.8,11.3,-51.1,-12.7c0,0,15.2,25.3,49.3,23.9c0,0,24.8,.4,20.3,-10.1c0,0,1.2,-4.4,-18.5,-1.1Z" class="gb_62"/>
<path d="M131.7,126.7v22.2l11.7,10.3V137Z" class="gc_62"/>
<path d="M131.7,109.9v39H829.4c0,0,16.9,0,16.9,-16.8v-5.4c0,0,0,-16.8,-16.9,-16.8Z" class="g5_62"/>
<path d="M189.6,121.3l-6.4,-6.5L162,136l6.4,6.5Z" class="gd_62"/>
<path d="M168.4,143c.2,0,.3,0,.4,-.1L190,121.7c.1,-.1,.2,-.3,.2,-.4c0,-.1,-.1,-.3,-.2,-.4l-6.5,-6.4c-.2,-.2,-.5,-.2,-.7,0l-21.2,21.2c-.1,.1,-.2,.2,-.2,.3c0,.2,.1,.3,.2,.4l6.5,6.5c.1,.1,.2,.1,.3,.1m20.5,-21.7l-20.5,20.5L162.7,136l20.5,-20.4Z" class="ge_62"/>
<path d="M189.6,121.3l-6.4,-6.5l2.1,-2.1l6.5,6.5Z" class="gf_62"/>
<path d="M189.6,121.8c.2,0,.3,0,.4,-.1l2.1,-2.1c.1,-.1,.2,-.3,.2,-.4c0,-.2,-.1,-.3,-.2,-.4l-6.4,-6.5c-.2,-.2,-.6,-.2,-.8,0l-2.1,2.2c-.1,0,-.2,.2,-.2,.3c0,.2,.1,.3,.2,.4l6.5,6.5c.1,.1,.2,.1,.3,.1m1.4,-2.6l-1.4,1.4l-5.7,-5.8l1.4,-1.4Z" class="ge_62"/>
<path d="M195.4,115.6l-6.5,-6.5l-3.6,3.6l6.5,6.5Z" class="gg_62"/>
<path d="M191.8,119.7c.1,0,.2,0,.3,-.1l3.7,-3.7c.2,-.2,.2,-.5,0,-.7l-6.5,-6.5c-.2,-.2,-.6,-.2,-.8,0l-3.6,3.6c-.2,.2,-.2,.6,0,.8l6.5,6.5c.1,.1,.2,.1,.4,.1m2.8,-4.1l-2.8,2.8L186,112.7l2.9,-2.9Z" class="ge_62"/>
<path d="M157.3,147.2L162,136l6.4,6.5Z" class="g1_62"/>
<path d="M157.3,147.7c.1,0,.2,0,.2,-.1L168.6,143c.2,-.1,.3,-.2,.4,-.4c0,-.2,-.1,-.3,-.2,-.5l-6.5,-6.4c-.1,-.2,-.3,-.2,-.5,-.2c-.1,.1,-.3,.2,-.3,.3l-4.7,11.1c0,.2,0,.5,.1,.6c.1,.1,.3,.2,.4,.2m10.2,-5.4l-9.2,3.9l3.8,-9.2Z" class="ge_62"/>
<path d="M157.3,147.2l2.3,-5.4l3.1,3.1Z" class="ge_62"/>
<path d="M157.3,147.7c.1,0,.2,0,.2,-.1l5.4,-2.2c.1,-.1,.3,-.2,.3,-.4c0,-.2,0,-.3,-.1,-.5l-3.2,-3.1c-.1,-.1,-.3,-.2,-.4,-.1c-.2,0,-.4,.1,-.4,.3l-2.3,5.3c0,.2,0,.5,.1,.6c.1,.1,.3,.2,.4,.2m4.5,-3l-3.5,1.5l1.4,-3.5Z" class="ge_62"/>
<path d="M187.9,119.5l-3,-2.9l-21.2,21.2l3,3Z" class="gh_62"/>
<path d="M166.7,141.3c.1,0,.2,-.1,.3,-.2l21.3,-21.2c.1,-.1,.1,-.2,.1,-.4c0,-.1,0,-.2,-.1,-.3l-3,-3c-.2,-.2,-.5,-.2,-.8,0l-21.2,21.2c-.1,.1,-.1,.3,-.1,.4c0,.1,0,.3,.1,.4l3,2.9c.1,.1,.2,.2,.4,.2m20.4,-21.8L166.7,140l-2.2,-2.2l20.4,-20.5Z" class="ge_62"/>
<path d="M32.1,45.1H9.2m958.3,0h22.9M32.1,1331.3H9.2m958.3,0h22.9M45.1,32.1V9.2m0,1335.1v22.9M954.5,32.1V9.2m0,1335.1v22.9" class="gi_62"/>
<path d="M32.1,45.1H9.2m958.3,0h22.9M32.1,1331.3H9.2m958.3,0h22.9M45.1,32.1V9.2m0,1335.1v22.9M954.5,32.1V9.2m0,1335.1v22.9" class="gj_62"/>
<path d="M27.5,32.1H0m972.1,0h27.5M27.5,1344.3H0m972.1,0h27.5M32.1,27.5V0m0,1348.9v27.5M967.5,27.5V0m0,1348.9v27.5" class="gi_62"/>
<path d="M27.5,32.1H0m972.1,0h27.5M27.5,1344.3H0m972.1,0h27.5M32.1,27.5V0m0,1348.9v27.5M967.5,27.5V0m0,1348.9v27.5" class="gj_62"/>
</svg>