<?xml version="1.0" encoding="UTF-8" standalone="no"?>
<!DOCTYPE svg PUBLIC "-//W3C//DTD SVG 1.1//EN"
"http://www.w3.org/Graphics/SVG/1.1/DTD/svg11.dtd">
<svg viewBox="0 0 999 1376" version="1.1" xmlns="http://www.w3.org/2000/svg" xmlns:xlink="http://www.w3.org/1999/xlink">
<defs>
<clipPath id="c0_13"><path d="M32.1,1344.3V32.1H967.5V1344.3Z"/></clipPath>
<clipPath id="c1_13"><path d="M746.7,139V62.3H865.1V139Z"/></clipPath>
<style type="text/css"><![CDATA[
.g0_13{
fill: #F69E93;
}
.g1_13{
fill: #D2D3D5;
}
.g2_13{
fill: #B4E2F8;
}
.g3_13{
fill: #CFECFA;
}
.g4_13{
fill: #F9D996;
}
.g5_13{
fill: #FAE6BA;
}
.g6_13{
fill: none;
stroke: #FFF;
stroke-width: 1.451;
stroke-miterlimit: 10;
}
.g7_13{
fill: none;
stroke: #FFF;
stroke-width: 1.909;
stroke-miterlimit: 10;
}
.g8_13{
fill: none;
stroke: #000;
stroke-width: 0.381;
stroke-miterlimit: 10;
}
]]></style>
</defs>
<path clip-path="url(#c0_13)" d="M-638.5,32.1V139H850.6c0,0,26,0,26,-25.9V50.4c0,0,0,-18.3,-18.4,-18.3Z" class="g0_13"/>
<path d="M732.9,957.6H880.1v33.7H732.9V957.6Zm-78,0h78v33.7h-78V957.6Zm-147.2,0H654.9v33.7H507.7V957.6Zm-147.3,0H507.7v33.7H360.4V957.6Zm-147.2,0H360.4v33.7H213.2V957.6Zm-34.7,0h34.7v33.7H178.5V957.6Zm-56.3,0h56.3v33.7H122.2V957.6ZM732.9,175.7H880.1v33.8H732.9V175.7Zm-78,0h78v33.8h-78V175.7Zm-147.2,0H654.9v33.8H507.7V175.7Zm-147.3,0H507.7v33.8H360.4V175.7Zm-147.2,0H360.4v33.8H213.2V175.7Zm-34.7,0h34.7v33.8H178.5V175.7Zm-56.3,0h56.3v33.8H122.2V175.7Z" class="g1_13"/>
<path d="M213.2,874.4H360.4v83.2H213.2V874.4Zm-91,-664.9h56.3V957.6H122.2V209.5Zm91,566.2H360.4v98.7H213.2V775.7Zm0,-121.3H360.4V775.7H213.2V654.4Zm0,-86.1H360.4v86.1H213.2V568.3Zm0,-90.9H360.4v90.9H213.2V477.4Zm0,-77.3H360.4v77.3H213.2V400.1Zm0,-104H360.4v104H213.2v-104Zm0,-86.6H360.4v86.6H213.2V209.5Z" class="g2_13"/>
<path d="M732.9,874.4H880.1v83.2H732.9V874.4Zm-225.2,0H654.9v83.2H507.7V874.4Zm-147.3,0H507.7v83.2H360.4V874.4Zm-181.9,0h34.7v83.2H178.5V874.4ZM732.9,775.7H880.1v98.7H732.9V775.7Zm-225.2,0H654.9v98.7H507.7V775.7Zm-147.3,0H507.7v98.7H360.4V775.7Zm-181.9,0h34.7v98.7H178.5V775.7ZM732.9,654.4H880.1V775.7H732.9V654.4Zm-225.2,0H654.9V775.7H507.7V654.4Zm-147.3,0H507.7V775.7H360.4V654.4Zm-181.9,0h34.7V775.7H178.5V654.4ZM732.9,568.3H880.1v86.1H732.9V568.3Zm-225.2,0H654.9v86.1H507.7V568.3Zm-147.3,0H507.7v86.1H360.4V568.3Zm-181.9,0h34.7v86.1H178.5V568.3ZM732.9,477.4H880.1v90.9H732.9V477.4Zm-225.2,0H654.9v90.9H507.7V477.4Zm-147.3,0H507.7v90.9H360.4V477.4Zm-181.9,0h34.7v90.9H178.5V477.4ZM732.9,400.1H880.1v77.3H732.9V400.1Zm-225.2,0H654.9v77.3H507.7V400.1Zm-147.3,0H507.7v77.3H360.4V400.1Zm-181.9,0h34.7v77.3H178.5V400.1Zm554.4,-104H880.1v104H732.9v-104Zm-225.2,0H654.9v104H507.7v-104Zm-147.3,0H507.7v104H360.4v-104Zm-181.9,0h34.7v104H178.5v-104ZM732.9,209.5H880.1v86.6H732.9V209.5Zm-225.2,0H654.9v86.6H507.7V209.5Zm-147.3,0H507.7v86.6H360.4V209.5Zm-181.9,0h34.7v86.6H178.5V209.5Z" class="g3_13"/>
<path d="M654.9,874.4h78v83.2h-78V874.4Zm0,-98.7h78v98.7h-78V775.7Zm0,-121.3h78V775.7h-78V654.4Zm0,-86.1h78v86.1h-78V568.3Zm0,-90.9h78v90.9h-78V477.4Zm0,-77.3h78v77.3h-78V400.1Zm0,-104h78v104h-78v-104Zm0,-86.6h78v86.6h-78V209.5Z" class="g3_13"/>
<path d="M213.2,1129.9H360.4v125.6H213.2V1129.9Zm-91,-138.6h56.3v264.2H122.2V991.3Zm91,0H360.4v138.6H213.2V991.3Z" class="g4_13"/>
<path d="M732.9,1129.9H880.1v125.6H732.9V1129.9Zm-78,0h78v125.6h-78V1129.9Zm-147.2,0H654.9v125.6H507.7V1129.9Zm-147.3,0H507.7v125.6H360.4V1129.9Zm-181.9,0h34.7v125.6H178.5V1129.9ZM732.9,991.3H880.1v138.6H732.9V991.3Zm-78,0h78v138.6h-78V991.3Zm-147.2,0H654.9v138.6H507.7V991.3Zm-147.3,0H507.7v138.6H360.4V991.3Zm-181.9,0h34.7v138.6H178.5V991.3Z" class="g5_13"/>
<path d="M121.5,175.7h57m-56.3,33.1V176.4m56.3,-.7h34.7m-34.7,33.1V176.4m34.7,-.7H360.4M213.2,208.8V176.4m147.2,-.7H507.7M360.4,208.8V176.4m147.3,-.7H654.9M507.7,208.8V176.4m147.2,-.7h78m-78,33.1V176.4m78,-.7H880.8M732.9,208.8V176.4m147.2,32.4V176.4M121.5,209.5h57m-56.3,86.6V210.2m56.3,-.7h34.7m-34.7,85.9V210.2m34.7,-.7H360.4M213.2,295.4V210.2m147.2,-.7H507.7M360.4,295.4V210.2m147.3,-.7H654.9M507.7,295.4V210.2m147.2,-.7h78m-78,85.9V210.2m78,-.7H880.8M732.9,295.4V210.2m147.2,85.2V210.2M122.2,400.1v-104m55.6,0h35.4M178.5,399.3V296.8m34.7,-.7H360.4M213.2,399.3V296.8m147.2,-.7H507.7M360.4,399.3V296.8m147.3,-.7H654.9M507.7,399.3V296.8m147.2,-.7h78m-78,103.2V296.8m78,-.7H880.8M732.9,399.3V296.8M880.1,399.3V296.8M122.2,477.4V400.1m55.6,0h35.4m-34.7,76.5V400.8m34.7,-.7H360.4M213.2,476.6V400.8m147.2,-.7H507.7M360.4,476.6V400.8m147.3,-.7H654.9M507.7,476.6V400.8m147.2,-.7h78m-78,76.5V400.8m78,-.7H880.8M732.9,476.6V400.8m147.2,75.8V400.8M122.2,568.3V477.4m55.6,0h35.4m-34.7,90.2V478.1m34.7,-.7H360.4M213.2,567.6V478.1m147.2,-.7H507.7M360.4,567.6V478.1m147.3,-.7H654.9M507.7,567.6V478.1m147.2,-.7h78m-78,90.2V478.1m78,-.7H880.8M732.9,567.6V478.1m147.2,89.5V478.1M122.2,654.4V568.3m55.6,0h35.4m-34.7,85.4V569m34.7,-.7H360.4M213.2,653.7V569m147.2,-.7H507.7M360.4,653.7V569m147.3,-.7H654.9M507.7,653.7V569m147.2,-.7h78m-78,85.4V569m78,-.7H880.8M732.9,653.7V569m147.2,84.7V569M122.2,775.7V654.4m55.6,0h35.4M178.5,774.9V655.1m34.7,-.7H360.4M213.2,774.9V655.1m147.2,-.7H507.7M360.4,774.9V655.1m147.3,-.7H654.9M507.7,774.9V655.1m147.2,-.7h78m-78,120.5V655.1m78,-.7H880.8M732.9,774.9V655.1M880.1,774.9V655.1M122.2,874.4V775.7m55.6,0h35.4m-34.7,98V776.4m34.7,-.7H360.4m-147.2,98V776.4m147.2,-.7H507.7m-147.3,98V776.4m147.3,-.7H654.9m-147.2,98V776.4m147.2,-.7h78m-78,98V776.4m78,-.7H880.8m-147.9,98V776.4m147.2,97.3V776.4M122.2,956.8V874.4m55.6,0h35.4m-34.7,82.4V875.1m34.7,-.7H360.4M213.2,956.8V875.1m147.2,-.7H507.7M360.4,956.8V875.1m147.3,-.7H654.9M507.7,956.8V875.1m147.2,-.7h78m-78,82.4V875.1m78,-.7H880.8M732.9,956.8V875.1m147.2,81.7V875.1M121.5,957.6h57m-56.3,33V958.3m56.3,-.7h34.7m-34.7,33V958.3m34.7,-.7H360.4m-147.2,33V958.3m147.2,-.7H507.7m-147.3,33V958.3m147.3,-.7H654.9m-147.2,33V958.3m147.2,-.7h78m-78,33V958.3m78,-.7H880.8m-147.9,33V958.3m147.2,32.3V958.3m-758.6,33h57m-56.3,138.6V992.1m56.3,-.8h34.7m-34.7,137.9V992.1m34.7,-.8H360.4M213.2,1129.2V992.1m147.2,-.8H507.7M360.4,1129.2V992.1m147.3,-.8H654.9M507.7,1129.2V992.1m147.2,-.8h78m-78,137.9V992.1m78,-.8H880.8M732.9,1129.2V992.1m147.2,137.1V992.1M122.2,1254.8V1129.9m55.6,0h35.4m-34.7,124.9V1130.6m34.7,-.7H360.4M213.2,1254.8V1130.6m147.2,-.7H507.7M360.4,1254.8V1130.6m147.3,-.7H654.9M507.7,1254.8V1130.6m147.2,-.7h78m-78,124.9V1130.6m78,-.7H880.8M732.9,1254.8V1130.6m147.2,124.2V1130.6M121.5,1255.5h57m0,0h34.7m0,0H360.4m0,0H507.7m0,0H654.9m0,0h78m0,0H880.8" class="g6_13"/>
<image clip-path="url(#c1_13)" preserveAspectRatio="none" x="747" y="62" width="118" height="77" xlink:href="img/1.png"/>
<path d="M32.1,45.1H9.2m958.3,0h22.9M32.1,1331.3H9.2m958.3,0h22.9M45.1,32.1V9.2m0,1335.1v22.9M954.5,32.1V9.2m0,1335.1v22.9" class="g7_13"/>
<path d="M32.1,45.1H9.2m958.3,0h22.9M32.1,1331.3H9.2m958.3,0h22.9M45.1,32.1V9.2m0,1335.1v22.9M954.5,32.1V9.2m0,1335.1v22.9" class="g8_13"/>
<path d="M27.5,32.1H0m972.1,0h27.5M27.5,1344.3H0m972.1,0h27.5M32.1,27.5V0m0,1348.9v27.5M967.5,27.5V0m0,1348.9v27.5" class="g7_13"/>
<path d="M27.5,32.1H0m972.1,0h27.5M27.5,1344.3H0m972.1,0h27.5M32.1,27.5V0m0,1348.9v27.5M967.5,27.5V0m0,1348.9v27.5" class="g8_13"/>
</svg>