<?xml version="1.0" encoding="UTF-8" standalone="no"?>
<!DOCTYPE svg PUBLIC "-//W3C//DTD SVG 1.1//EN"
"http://www.w3.org/Graphics/SVG/1.1/DTD/svg11.dtd">
<svg viewBox="0 0 999 1376" version="1.1" xmlns="http://www.w3.org/2000/svg" xmlns:xlink="http://www.w3.org/1999/xlink">
<defs>
<clipPath id="c0_251"><path d="M32.1,1344.3V32.1H967.5V1344.3Z"/></clipPath>
<clipPath id="c1_251"><path d="M199.5,868.3L193,866.2l-16.4,-14v-57h72v73.1Z"/></clipPath>
<clipPath id="c2_251"><path d="M383.2,582.7V488.4h94.2v94.3Z"/></clipPath>
<clipPath id="c3_251"><path d="M535.7,582.7V488.4h94.2v94.3Z"/></clipPath>
<clipPath id="c4_251"><path d="M687.8,582.7V488.4h94.9v94.3Z"/></clipPath>
<clipPath id="c5_251"><path d="M679.6,427.5V333.3h94.9v94.2Z"/></clipPath>
<clipPath id="c6_251"><path d="M679.6,736.4V642.2h94.9v94.2Z"/></clipPath>
<clipPath id="c7_251"><path d="M201.2,321.8l-6.5,-2.2L178.3,305.7V248.6h72v73.2Z"/></clipPath>
<clipPath id="c8_251"><path d="M658.6,177V59h200V177Z"/></clipPath>
<style type="text/css"><![CDATA[
.g0_251{
fill: #FEFCF4;
}
.g1_251{
fill: #FCE8B0;
}
.g2_251{
fill: #FFF;
}
.g3_251{
fill: none;
stroke: #6381B7;
stroke-width: 0.763;
}
.g4_251{
fill: none;
stroke: #949698;
stroke-width: 0.363;
}
.g5_251{
fill: #48484A;
}
.g6_251{
fill: #F0E8F3;
}
.g7_251{
fill: #766FA6;
}
.g8_251{
fill: none;
stroke: #231F20;
stroke-width: 0.305;
stroke-miterlimit: 10;
}
.g9_251{
fill: #6381B7;
}
.ga_251{
fill: none;
stroke: #6381B7;
stroke-width: 0.381;
stroke-dasharray: 2,1;
}
.gb_251{
fill: none;
stroke: #6381B7;
stroke-width: 0.381;
}
.gc_251{
fill: #25408F;
}
.gd_251{
fill: #00BAF1;
}
.ge_251{
fill: #332D2C;
}
.gf_251{
fill: #D9DFF0;
}
.gg_251{
fill: #F27C85;
}
.gh_251{
fill: #7DD3F6;
}
.gi_251{
fill: #2E6E51;
}
.gj_251{
fill: #BCBEC0;
}
.gk_251{
fill: #EE314A;
}
.gl_251{
fill: none;
stroke: #FFF;
stroke-width: 1.909;
stroke-miterlimit: 10;
}
.gm_251{
fill: none;
stroke: #000;
stroke-width: 0.381;
stroke-miterlimit: 10;
}
]]></style>
</defs>
<path clip-path="url(#c0_251)" d="M-877.3,1344.3H45.1V32.1H-877.3V1344.3Z" class="g0_251"/>
<path d="M45.1,1344.3H967.5V32.1H45.1V1344.3Z" class="g0_251"/>
<path d="M232.1,823.3c0,0,-13,0,-13,13v21.6c0,0,0,13,13,13H855.7c0,0,13,0,13,-13V836.3c0,0,0,-13,-13,-13Z" class="g1_251"/>
<image clip-path="url(#c1_251)" preserveAspectRatio="none" x="175" y="794" width="75" height="76" xlink:href="img/1.png"/>
<path d="M226.9,863.6c0,0,-26.8,11.3,-51.1,-12.8c0,0,15.2,25.3,49.3,24c0,0,24.8,.3,20.3,-10.1c0,0,1.2,-4.5,-18.5,-1.1Z" class="g1_251"/>
<path d="M172.9,224.6c0,0,-18.4,0,-18.4,18.4V769.9c0,0,0,18.4,18.4,18.4H850c0,0,18.4,0,18.4,-18.4V224.6Z" class="g2_251"/>
<path d="M172.9,224.6c0,0,-18.4,0,-18.4,18.4V769.9c0,0,0,18.4,18.4,18.4H850c0,0,18.4,0,18.4,-18.4V224.6H172.9Z" class="g3_251"/>
<path d="M216.3,582.9H339.4V488.6H216.3v94.3Z" class="g2_251"/>
<image preserveAspectRatio="none" x="231" y="489" width="94" height="94" xlink:href="img/2.jpg"/>
<path d="M216.3,582.9H339.4V488.6H216.3v94.3Z" class="g4_251"/>
<path d="M368.8,582.7h123V488.4h-123v94.3Z" class="g2_251"/>
<image clip-path="url(#c2_251)" preserveAspectRatio="none" x="383" y="488" width="94" height="95" xlink:href="img/3.jpg"/>
<path d="M368.8,582.7h123V488.4h-123v94.3Z" class="g4_251"/>
<path d="M521.3,582.7h123V488.4h-123v94.3Z" class="g2_251"/>
<image clip-path="url(#c3_251)" preserveAspectRatio="none" x="536" y="488" width="94" height="95" xlink:href="img/4.jpg"/>
<path d="M521.3,582.7h123V488.4h-123v94.3Z" class="g4_251"/>
<path d="M673.7,582.7H796.8V488.4H673.7v94.3Z" class="g2_251"/>
<image clip-path="url(#c4_251)" preserveAspectRatio="none" x="688" y="488" width="95" height="95" xlink:href="img/5.jpg"/>
<path d="M673.7,582.7H796.8V488.4H673.7v94.3Z" class="g4_251"/>
<path d="M216.3,427.7H355.8V333.4H216.3v94.3Z" class="g2_251"/>
<image preserveAspectRatio="none" x="239" y="333" width="94" height="95" xlink:href="img/6.jpg"/>
<path d="M216.3,427.7H355.8V333.4H216.3v94.3Z" class="g4_251"/>
<path d="M436.8,427.5H576.3V333.3H436.8v94.2Z" class="g2_251"/>
<image preserveAspectRatio="none" x="459" y="333" width="95" height="95" xlink:href="img/7.jpg"/>
<path d="M436.8,427.5H576.3V333.3H436.8v94.2Z" class="g4_251"/>
<path d="M657.3,427.5H796.8V333.3H657.3v94.2Z" class="g2_251"/>
<image clip-path="url(#c5_251)" preserveAspectRatio="none" x="680" y="333" width="94" height="95" xlink:href="img/8.jpg"/>
<path d="M657.3,427.5H796.8V333.3H657.3v94.2Z" class="g4_251"/>
<path d="M216.3,736.6H355.8V642.3H216.3v94.3Z" class="g2_251"/>
<image preserveAspectRatio="none" x="239" y="642" width="94" height="95" xlink:href="img/9.jpg"/>
<path d="M216.3,736.6H355.8V642.3H216.3v94.3Z" class="g4_251"/>
<path d="M436.8,736.4H576.3V642.2H436.8v94.2Z" class="g2_251"/>
<image preserveAspectRatio="none" x="459" y="642" width="95" height="94" xlink:href="img/10.jpg"/>
<path d="M436.8,736.4H576.3V642.2H436.8v94.2Z" class="g4_251"/>
<path d="M657.3,736.4H796.8V642.2H657.3v94.2Z" class="g2_251"/>
<image clip-path="url(#c6_251)" preserveAspectRatio="none" x="680" y="642" width="94" height="94" xlink:href="img/11.jpg"/>
<path d="M657.3,736.4H796.8V642.2H657.3v94.2Z" class="g4_251"/>
<path d="M166.5,882.2c0,0,-13,0,-13,12.9v289c0,0,0,13,13,13h688c0,0,13,0,13,-13v-289c0,0,0,-12.9,-13,-12.9Z" class="g2_251"/>
<path d="M166.5,882.2c0,0,-13,0,-13,12.9v289c0,0,0,13,13,13h688c0,0,13,0,13,-13v-289c0,0,0,-12.9,-13,-12.9h-688Z" class="g3_251"/>
<path d="M194.4,937H825V919.7H194.4V937Z" class="g2_251"/>
<path d="M202.1,1142c0,0,-4.3,0,-4.3,4.4v14.3c0,0,0,4.4,4.1,5.8l52.4,18.2c0,0,4.1,1.5,4.1,-2.9v-35.4c0,0,0,-4.4,-4.3,-4.4Z" class="g5_251"/>
<path d="M223.3,1129.2c0,0,-13,0,-13,13V1172c0,0,0,13,13,13H820.9c0,0,13,0,13,-13v-29.8c0,0,0,-13,-13,-13Z" class="g6_251"/>
<path d="M202.1,1139.9c0,0,-4.3,0,-4.3,4.3v16.9c0,0,0,4.4,4.3,4.4h37.3c0,0,4.4,0,4.4,-4.4v-16.9c0,0,0,-4.3,-4.4,-4.3Z" class="g7_251"/>
<path d="M495.9,961.8H650.6m-141.8,44.1H663.6m-228,44H590.3M439.9,1094H594.6" class="g8_251"/>
<path d="M515.7,1217c0,0,-4.3,0,-4.3,4.3v10.8c0,0,0,4.4,4.3,4.4H546c0,0,4.4,0,4.4,-4.4v-10.8c0,0,0,-4.3,-4.4,-4.3Z" class="g9_251"/>
<path d="M502.5,1208.1v37.6m1.4,1H867.6m.9,-1.4v-37.5m-1.3,-1H503.5" class="ga_251"/>
<path d="M502.5,1246.1v.6h.6m364.9,0h.5v-.6m0,-38.7v-.6H868m-364.9,0h-.6v.6" class="gb_251"/>
<path d="M233.8,276.8c0,0,-13,0,-13,13v21.6c0,0,0,13,13,13h602c0,0,12.9,0,12.9,-13V289.8c0,0,0,-13,-12.9,-13Z" class="g1_251"/>
<image clip-path="url(#c7_251)" preserveAspectRatio="none" x="177" y="247" width="75" height="76" xlink:href="img/12.png"/>
<path d="M228.6,317c0,0,-26.9,11.3,-51.1,-12.7c0,0,15.1,25.3,49.3,23.9c0,0,24.7,.4,20.2,-10.1c0,0,1.2,-4.4,-18.4,-1.1Z" class="g1_251"/>
<path d="M153.3,213.7v22.2L165,246.2V224Z" class="gc_251"/>
<path d="M153.3,196.9v39H851.1c0,0,16.8,0,16.8,-16.8v-5.4c0,0,0,-16.8,-16.8,-16.8Z" class="g9_251"/>
<path d="M211.3,208.3l-6.5,-6.5L183.6,223l6.5,6.5Z" class="gd_251"/>
<path d="M190.1,230.1c.1,0,.3,-.1,.4,-.2l21.2,-21.2c.1,-.1,.1,-.2,.1,-.4c0,-.1,0,-.3,-.1,-.3l-6.5,-6.5c-.2,-.2,-.6,-.2,-.8,0l-21.2,21.2c-.1,.1,-.1,.2,-.1,.3c0,.2,0,.3,.1,.4l6.5,6.5c.1,.1,.3,.2,.4,.2m20.5,-21.8l-20.5,20.5L184.3,223l20.5,-20.4Z" class="ge_251"/>
<path d="M211.3,208.3l-6.5,-6.5l2.1,-2.1l6.5,6.5Z" class="gf_251"/>
<path d="M211.3,208.8c.1,0,.3,0,.4,-.1l2.1,-2.1c.1,-.1,.2,-.3,.2,-.4c0,-.2,-.1,-.3,-.2,-.4l-6.5,-6.5c-.2,-.2,-.5,-.2,-.7,0l-2.2,2.2c-.1,.1,-.1,.2,-.1,.3c0,.2,0,.3,.1,.4l6.5,6.5c.1,.1,.3,.1,.4,.1m1.4,-2.6l-1.4,1.4l-5.7,-5.8l1.3,-1.4Z" class="ge_251"/>
<path d="M217,202.6l-6.4,-6.5l-3.7,3.6l6.5,6.5Z" class="gg_251"/>
<path d="M213.4,206.7c.2,0,.3,0,.4,-.1l3.6,-3.7c.2,-.2,.2,-.5,0,-.7l-6.5,-6.5c-.2,-.2,-.5,-.2,-.7,0l-3.6,3.6c-.2,.2,-.2,.6,0,.8l6.5,6.5c.1,.1,.2,.1,.3,.1m2.9,-4.1l-2.9,2.8l-5.7,-5.7l2.9,-2.9Z" class="ge_251"/>
<path d="M179,234.2L183.6,223l6.5,6.5Z" class="g2_251"/>
<path d="M179,234.7c0,0,.1,0,.2,-.1L190.3,230c.2,0,.3,-.2,.3,-.4c0,-.1,0,-.3,-.1,-.4L184,222.7c-.1,-.2,-.3,-.2,-.5,-.2c-.2,.1,-.3,.2,-.4,.3L178.5,234c-.1,.2,0,.4,.1,.5c.1,.1,.2,.2,.4,.2m10.2,-5.4l-9.3,3.9l3.9,-9.2Z" class="ge_251"/>
<path d="M179,234.2l2.2,-5.4l3.1,3.1Z" class="ge_251"/>
<path d="M179,234.7c0,0,.1,0,.2,-.1l5.3,-2.2c.2,-.1,.3,-.2,.4,-.4c0,-.1,-.1,-.3,-.2,-.4l-3.1,-3.2c-.1,-.1,-.3,-.2,-.5,-.1c-.2,0,-.3,.1,-.4,.3l-2.2,5.4c-.1,.2,0,.4,.1,.5c.1,.1,.2,.2,.4,.2m4.4,-3l-3.5,1.5l1.5,-3.5Z" class="ge_251"/>
<path d="M209.5,206.6l-2.9,-3l-21.2,21.2l2.9,3Z" class="gh_251"/>
<path d="M188.3,228.3c.2,0,.3,-.1,.4,-.2l21.2,-21.2c.1,-.1,.2,-.2,.2,-.3c0,-.2,-.1,-.3,-.2,-.4l-3,-3c-.2,-.2,-.5,-.2,-.7,0L185,224.4c-.1,.1,-.2,.3,-.2,.4c0,.1,.1,.3,.2,.4l3,2.9c.1,.1,.2,.2,.3,.2m20.5,-21.7L188.3,227l-2.2,-2.2l20.5,-20.5Z" class="ge_251"/>
<path d="M32.1,179.3H967.5V32.1H32.1V179.3Z" class="gi_251"/>
<g clip-path="url(#c0_251)">
<path d="M967.5,177.2H-877.3v-5.4h736.6c43.1,0,53.1,-37.9,115.3,-37.9H967.5Z" class="gj_251"/>
<path d="M967.5,183.7H-877.3v-9.8h736.6c43.1,0,53.1,-33.6,115.3,-33.6H967.5Z" class="gk_251"/>
</g>
<image clip-path="url(#c8_251)" preserveAspectRatio="none" x="659" y="59" width="200" height="118" xlink:href="img/13.png"/>
<path d="M32.1,45.1H9.2m958.3,0h22.9M32.1,1331.3H9.2m958.3,0h22.9M45.1,32.1V9.2m0,1335.1v22.9M954.5,32.1V9.2m0,1335.1v22.9" class="gl_251"/>
<path d="M32.1,45.1H9.2m958.3,0h22.9M32.1,1331.3H9.2m958.3,0h22.9M45.1,32.1V9.2m0,1335.1v22.9M954.5,32.1V9.2m0,1335.1v22.9" class="gm_251"/>
<path d="M27.5,32.1H0m972.1,0h27.5M27.5,1344.3H0m972.1,0h27.5M32.1,27.5V0m0,1348.9v27.5M967.5,27.5V0m0,1348.9v27.5" class="gl_251"/>
<path d="M27.5,32.1H0m972.1,0h27.5M27.5,1344.3H0m972.1,0h27.5M32.1,27.5V0m0,1348.9v27.5M967.5,27.5V0m0,1348.9v27.5" class="gm_251"/>
</svg>