<?xml version="1.0" encoding="UTF-8" standalone="no"?>
<!DOCTYPE svg PUBLIC "-//W3C//DTD SVG 1.1//EN"
"http://www.w3.org/Graphics/SVG/1.1/DTD/svg11.dtd">
<svg viewBox="0 0 999 1376" version="1.1" xmlns="http://www.w3.org/2000/svg" xmlns:xlink="http://www.w3.org/1999/xlink">
<defs>
<clipPath id="c0_364"><path d="M32.1,1344.3V32.1H967.5V1344.3Z"/></clipPath>
<clipPath id="c1_364"><path d="M131.7,1244.7V133H846.3V1244.7Z"/></clipPath>
<clipPath id="c2_364"><path d="M651.3,478.8V306.4H812.5c8.6,0,8.6,8.6,8.6,8.6V470.2c0,8.6,-8.6,8.6,-8.6,8.6Z"/></clipPath>
<clipPath id="c3_364"><path d="M647,764.3c-8.6,0,-8.6,-8.6,-8.6,-8.6V600.5c0,-8.7,8.6,-8.7,8.6,-8.7H812.5c8.6,0,8.6,8.7,8.6,8.7V755.7c0,8.6,-8.6,8.6,-8.6,8.6Z"/></clipPath>
<clipPath id="c4_364"><path d="M647,1032.5c-3.2,0,-5.2,-1.2,-6.5,-2.7V862.7C643.1,860,647,860,647,860H812.5c8.6,0,8.6,8.7,8.6,8.7v155.1c0,8.7,-8.6,8.7,-8.6,8.7Z"/></clipPath>
<clipPath id="c5_364"><path d="M954.5,363.4V32.1h13V363.4Z"/></clipPath>
<clipPath id="c6_364"><path d="M954.5,698V362.7h13V698Z"/></clipPath>
<clipPath id="c7_364"><path d="M954.5,1033V697.3h13V1033Z"/></clipPath>
<clipPath id="c8_364"><path d="M954.5,1344.3v-312h13v312Z"/></clipPath>
<style type="text/css"><![CDATA[
.g0_364{
fill: #FEFCF4;
}
.g1_364{
fill: #FFF;
}
.g2_364{
fill: none;
stroke: #231F20;
stroke-width: 0.756;
stroke-miterlimit: 3;
}
.g3_364{
fill: #25408F;
}
.g4_364{
fill: #6381B7;
}
.g5_364{
fill: #FFDE2C;
}
.g6_364{
fill: none;
stroke: #231F20;
stroke-width: 1.451;
stroke-miterlimit: 10;
}
.g7_364{
fill: #D2D3D5;
}
.g8_364{
fill: #A8AAAD;
}
.g9_364{
fill: none;
stroke: #231F20;
stroke-width: 0.828;
stroke-miterlimit: 10;
}
.ga_364{
fill: #6CCFF6;
}
.gb_364{
fill: none;
stroke: #231F20;
stroke-width: 0.828;
stroke-linecap: round;
stroke-linejoin: round;
}
.gc_364{
fill: none;
stroke: #231F20;
stroke-width: 1.451;
stroke-linecap: round;
stroke-linejoin: round;
}
.gd_364{
fill: none;
stroke: #FFF;
stroke-width: 1.909;
stroke-miterlimit: 10;
}
.ge_364{
fill: none;
stroke: #000;
stroke-width: 0.381;
stroke-miterlimit: 10;
}
]]></style>
</defs>
<path clip-path="url(#c0_364)" d="M954.5,1344.3H1877V32.1H954.5V1344.3Z" class="g0_364"/>
<path d="M131.7,1244.7H846.3V133H131.7V1244.7Z" class="g1_364"/>
<image clip-path="url(#c1_364)" preserveAspectRatio="none" x="129" y="131" width="719" height="1116" xlink:href="img/1.jpg"/>
<path d="M471.4,167.5v11.8c0,.9,-.2,1.6,-.6,2.2c-.3,.5,-.7,1,-1.1,1.3c.6,.1,.9,.4,1.1,.7c.2,.3,.3,.8,.3,1.4l-.2,7.3h-2v-6.8c0,-.3,-.1,-.5,-.2,-.6c-.1,-.2,-.3,-.2,-.6,-.2H455.4v-1.8h12.4c.4,-.4,.7,-1,1,-1.5c.2,-.6,.3,-1.2,.3,-1.9V167.5h2.3Zm-18.9,.4h8.6c.4,0,.7,.1,1,.3c.2,.1,.4,.3,.5,.5c.1,.2,.1,.4,.1,.7c0,.2,0,.4,0,.6c-.2,.8,-.5,1.5,-.9,2.3c-.4,.7,-.8,1.4,-1.4,2.1c.7,.2,1.2,.4,1.6,.6c.4,.3,.7,.6,1,.9c.4,.5,.9,1,1.3,1.5c.4,.6,.9,1.1,1.3,1.5l-1.5,1.4c-.3,-.3,-.5,-.5,-.7,-.8c-.2,-.2,-.4,-.5,-.6,-.7c-.2,-.3,-.4,-.5,-.6,-.8c-.2,-.2,-.4,-.5,-.7,-.7c-.3,-.4,-.6,-.7,-1,-.9c-.3,-.3,-.8,-.4,-1.3,-.6c-.9,.9,-1.9,1.7,-3,2.5c-1.1,.7,-2.3,1.4,-3.5,2l-1,-1.8c2.3,-1.1,4.1,-2.3,5.5,-3.6c1.3,-1.4,2.4,-2.8,3.1,-4.4c.1,-.3,.1,-.5,0,-.6c-.1,-.1,-.3,-.2,-.6,-.2h-7.2v-1.8Zm42.4,12.9h-2.3v-6.4h-5.1c-.3,1.5,-1,2.7,-2.1,3.5c-1.1,.9,-2.5,1.3,-4.1,1.3c-.9,0,-1.7,-.1,-2.4,-.4c-.8,-.2,-1.4,-.6,-2,-1.1c-.6,-.5,-1.1,-1.1,-1.4,-1.8c-.3,-.7,-.5,-1.6,-.5,-2.6c0,-.9,.2,-1.7,.5,-2.4c.3,-.7,.8,-1.3,1.3,-1.9c.6,-.5,1.2,-.8,2,-1.1c.8,-.3,1.6,-.4,2.5,-.4c1.7,0,3.1,.4,4.2,1.4c1.2,.9,1.8,2.1,2,3.7h5.1v-5.1h2.3v13.3Zm0,1.4v9.3c0,.2,-.1,.4,-.2,.6c-.1,.1,-.2,.1,-.5,.1h-12c-.9,0,-1.6,-.1,-2,-.4c-.5,-.4,-.7,-1,-.7,-1.9v-7.7h2.2v3.2h11v-3.2h2.2ZM484.3,170.5c-.7,-.8,-1.7,-1.2,-3,-1.2c-1.3,0,-2.3,.4,-3,1.2c-.7,.8,-1.1,1.8,-1.1,2.8c0,1.1,.4,2.1,1.1,2.9c.7,.8,1.7,1.1,3,1.1c1.3,0,2.3,-.3,3,-1.1c.7,-.8,1,-1.8,1,-2.9c0,-1,-.3,-2,-1,-2.8Zm8.4,20v-3.3h-11v2.6c0,.2,.1,.4,.2,.5c.1,.1,.3,.2,.5,.2h10.3ZM517.6,181c-.3,.8,-.9,1.6,-1.7,2.3c.4,.5,.8,1.1,1.1,1.7c.3,.6,.4,1.3,.4,2.1c0,.9,-.2,1.6,-.5,2.3c-.4,.7,-.8,1.3,-1.4,1.9c-.6,.5,-1.3,.9,-2.1,1.1c-.7,.3,-1.5,.4,-2.4,.4c-.9,0,-1.7,-.1,-2.5,-.4c-.8,-.2,-1.4,-.6,-2,-1.1c-.6,-.6,-1.1,-1.2,-1.4,-1.9c-.3,-.7,-.5,-1.4,-.5,-2.3c0,-.8,.2,-1.6,.5,-2.3c.3,-.7,.8,-1.3,1.4,-1.8c.6,-.6,1.2,-1,2,-1.3c.8,-.3,1.6,-.4,2.5,-.4c.6,0,1.2,.1,1.8,.2c.6,.2,1.1,.4,1.6,.7c.6,-.6,1,-1.2,1.2,-1.9c.2,-.6,.3,-1.3,.3,-2V177h-5.4v.9c-.8,.5,-1.7,.9,-2.9,1.2c-1.1,.3,-2.1,.5,-3.1,.5h-3c-.9,0,-1.5,-.2,-1.9,-.5c-.5,-.4,-.7,-1,-.7,-1.8v-9.4h2.2v3.9h7.2v-3.9h2.2v2.5h5.4v-2.9h2.2v10.9c0,.9,-.1,1.8,-.5,2.6Zm-3.6,3.2c-.8,-.7,-1.8,-1.1,-3,-1.1c-1.2,0,-2.2,.4,-3,1.1c-.8,.8,-1.2,1.7,-1.2,2.9c0,1.2,.4,2.1,1.2,2.9c.8,.7,1.8,1.1,3,1.1c1.2,0,2.2,-.4,3,-1.1c.8,-.8,1.2,-1.7,1.2,-2.9c0,-1.2,-.4,-2.1,-1.2,-2.9Zm-12.9,-7.1c0,.2,.1,.4,.2,.5c.2,.2,.3,.2,.6,.2h2.6c.6,0,1.3,-.1,1.9,-.2c.7,-.2,1.3,-.4,1.9,-.7v-3.3h-7.2v3.5Zm9.4,-1.8h5.4v-3.2h-5.4v3.2Z" class="g2_364"/>
<path d="M647,306.4c0,0,-8.6,0,-8.6,8.6V470.2c0,0,0,8.6,8.6,8.6H812.5c0,0,8.6,0,8.6,-8.6V315c0,0,0,-8.6,-8.6,-8.6Z" class="g1_364"/>
<image clip-path="url(#c2_364)" preserveAspectRatio="none" x="651" y="306" width="172" height="173" xlink:href="img/2.jpg"/>
<path d="M647,591.8c0,0,-8.6,0,-8.6,8.7V755.7c0,0,0,8.6,8.6,8.6H812.5c0,0,8.6,0,8.6,-8.6V600.5c0,0,0,-8.7,-8.6,-8.7Z" class="g1_364"/>
<image clip-path="url(#c3_364)" preserveAspectRatio="none" x="637" y="590" width="186" height="176" xlink:href="img/3.jpg"/>
<path d="M647,860c0,0,-8.6,0,-8.6,8.7v155.1c0,0,0,8.7,8.6,8.7H812.5c0,0,8.6,0,8.6,-8.7V868.7c0,0,0,-8.7,-8.6,-8.7Z" class="g1_364"/>
<image clip-path="url(#c4_364)" preserveAspectRatio="none" x="641" y="858" width="182" height="176" xlink:href="img/4.jpg"/>
<image clip-path="url(#c5_364)" preserveAspectRatio="none" x="952" y="28" width="444" height="335" xlink:href="img/5.jpg"/>
<image clip-path="url(#c6_364)" preserveAspectRatio="none" x="952" y="363" width="444" height="335" xlink:href="img/6.jpg"/>
<image clip-path="url(#c7_364)" preserveAspectRatio="none" x="952" y="697" width="444" height="336" xlink:href="img/7.jpg"/>
<image clip-path="url(#c8_364)" preserveAspectRatio="none" x="952" y="1032" width="444" height="336" xlink:href="img/8.jpg"/>
<path d="M131.7,126.3v22.2l11.7,10.2V136.5Z" class="g3_364"/>
<path d="M131.7,109.5v39H829.4c0,0,16.9,0,16.9,-16.8v-5.4c0,0,0,-16.8,-16.9,-16.8Z" class="g4_364"/>
<path d="M185.6,115.7c0,-9.1,-8,-16.6,-17.8,-16.6c-9.8,0,-17.7,7.5,-17.7,16.6c0,2.7,.7,5.2,1.8,7.4c1.2,2.4,2.9,4.6,5,6.2c1.2,1,1.7,1.7,1.8,4.3v.6c0,3.3,2.6,5.9,5.8,5.9h6.6c3.3,0,5.9,-2.6,5.9,-5.9v-.6c.1,-2.6,.6,-3.3,1.7,-4.3c2.1,-1.6,3.9,-3.8,5,-6.2c1.2,-2.2,1.9,-4.7,1.9,-7.4Z" class="g5_364"/>
<path d="M185.6,115.7c0,-9.1,-8,-16.6,-17.8,-16.6c-9.8,0,-17.7,7.5,-17.7,16.6c0,2.7,.7,5.2,1.8,7.4c1.2,2.4,2.9,4.6,5,6.2c1.2,1,1.7,1.7,1.8,4.3v.6c0,3.3,2.6,5.9,5.8,5.9h6.6c3.3,0,5.9,-2.6,5.9,-5.9v-.6c.1,-2.6,.6,-3.3,1.7,-4.3c2.1,-1.6,3.9,-3.8,5,-6.2c1.2,-2.2,1.9,-4.7,1.9,-7.4Z" class="g6_364"/>
<path d="M173,147.4c0,2.8,-2.3,5.1,-5.2,5.1c-2.8,0,-5.1,-2.3,-5.1,-5.1c0,-2.8,2.3,-5.1,5.1,-5.1c2.9,0,5.2,2.3,5.2,5.1Z" class="g1_364"/>
<path d="M173,147.4c0,2.8,-2.3,5.1,-5.2,5.1c-2.8,0,-5.1,-2.3,-5.1,-5.1c0,-2.8,2.3,-5.1,5.1,-5.1c2.9,0,5.2,2.3,5.2,5.1Z" class="g6_364"/>
<path d="M160.4,140.2c0,1,.8,1.8,1.8,1.8h11.3c1,0,1.8,-.8,1.8,-1.8v-1.3H160.4Z" class="g1_364"/>
<path d="M160.4,140.2c0,1,.8,1.8,1.8,1.8h11.3c1,0,1.8,-.8,1.8,-1.8v-1.3H160.4v1.3Z" class="g6_364"/>
<path d="M175.3,143.2c0,.8,-.6,1.3,-1.3,1.3H161.7c-.7,0,-1.3,-.5,-1.3,-1.3c0,-.7,.6,-1.3,1.3,-1.3H174c.7,0,1.3,.6,1.3,1.3Z" class="g1_364"/>
<path d="M175.3,143.2c0,.8,-.6,1.3,-1.3,1.3H161.7c-.7,0,-1.3,-.5,-1.3,-1.3c0,-.7,.6,-1.3,1.3,-1.3H174c.7,0,1.3,.6,1.3,1.3Z" class="g6_364"/>
<path d="M175.3,145.8c0,.7,-.6,1.3,-1.3,1.3H161.7c-.7,0,-1.3,-.6,-1.3,-1.3c0,-.7,.6,-1.3,1.3,-1.3H174c.7,0,1.3,.6,1.3,1.3Z" class="g1_364"/>
<path d="M175.3,145.8c0,.7,-.6,1.3,-1.3,1.3H161.7c-.7,0,-1.3,-.6,-1.3,-1.3c0,-.7,.6,-1.3,1.3,-1.3H174c.7,0,1.3,.6,1.3,1.3Z" class="g6_364"/>
<path d="M193.8,128.7l8.4,10.4c.5,.7,1.7,.6,2.7,-.2c.9,-.7,1.2,-1.9,.6,-2.6l-8.9,-10.2Z" class="g7_364"/>
<path d="M193.8,128.7l8.4,10.4c.5,.7,1.7,.6,2.7,-.2c.9,-.7,1.2,-1.9,.6,-2.6l-8.9,-10.2l-2.8,2.6Z" class="g6_364"/>
<path d="M195.8,125.1c.6,.6,.3,1.8,-.6,2.6c-.9,.7,-2.1,.8,-2.7,.2c-.6,-.7,-.3,-1.9,.7,-2.6c.9,-.8,2.1,-.9,2.6,-.2Z" class="g8_364"/>
<path d="M195.8,125.1c.6,.6,.3,1.8,-.6,2.6c-.9,.7,-2.1,.8,-2.7,.2c-.6,-.7,-.3,-1.9,.7,-2.6c.9,-.8,2.1,-.9,2.6,-.2Z" class="g6_364"/>
<path d="M191,124.7l1.7,2c.3,.3,1,.3,1.6,-.1c.5,-.5,.6,-1.1,.3,-1.5l-1.7,-2Z" class="g1_364"/>
<path d="M191,124.7l1.7,2c.3,.3,1,.3,1.6,-.1c.5,-.5,.6,-1.1,.3,-1.5l-1.7,-2l-1.9,1.6Z" class="g9_364"/>
<path d="M193.1,122.9c.4,.5,.2,1.3,-.4,1.8c-.6,.5,-1.5,.6,-1.8,.1c-.4,-.4,-.2,-1.2,.4,-1.7c.6,-.6,1.4,-.6,1.8,-.2Z" class="g1_364"/>
<path d="M193.1,122.9c.4,.5,.2,1.3,-.4,1.8c-.6,.5,-1.5,.6,-1.8,.1c-.4,-.4,-.2,-1.2,.4,-1.7c.6,-.6,1.4,-.6,1.8,-.2Z" class="g9_364"/>
<path d="M194.8,105.4c4.8,5.7,4,14.2,-1.7,19c-5.7,4.8,-14.2,4,-19,-1.7c-4.8,-5.7,-4.1,-14.2,1.6,-19c5.7,-4.8,14.3,-4.1,19.1,1.7Z" class="g1_364"/>
<path d="M194.8,105.4c4.8,5.7,4,14.2,-1.7,19c-5.7,4.8,-14.2,4,-19,-1.7c-4.8,-5.7,-4.1,-14.2,1.6,-19c5.7,-4.8,14.3,-4.1,19.1,1.7Z" class="g6_364"/>
<path d="M192.3,107.4c3.5,4.2,3,10.5,-1.2,14.1c-4.2,3.5,-10.5,2.9,-14.1,-1.3c-3.5,-4.2,-2.9,-10.5,1.3,-14c4.2,-3.6,10.5,-3,14,1.2Z" class="ga_364"/>
<path d="M192.3,107.4c3.5,4.2,3,10.5,-1.2,14.1c-4.2,3.5,-10.5,2.9,-14.1,-1.3c-3.5,-4.2,-2.9,-10.5,1.3,-14c4.2,-3.6,10.5,-3,14,1.2Z" class="g6_364"/>
<path d="M191.3,110.6l-3,3m3,-.4l-3,3" class="gb_364"/>
<path d="M150.4,99l3.1,3.3m1.1,-5.9l1.2,3.9m-8,3l3.6,1.2" class="gc_364"/>
<path d="M164.1,106.1c1.3,1.2,.3,4.3,-2.2,6.7c-2.5,2.5,-5.5,3.5,-6.8,2.3c-1.2,-1.3,-.2,-4.3,2.3,-6.8c2.5,-2.5,5.5,-3.5,6.7,-2.2Z" class="g1_364"/>
<path d="M182.1,107.6c.5,.6,.1,1.9,-1,3c-1.1,1,-2.4,1.5,-2.9,.9c-.6,-.5,-.1,-1.8,.9,-2.9c1.1,-1.1,2.4,-1.5,3,-1Z" class="g1_364"/>
<path d="M32.1,45.1H9.2m958.3,0h22.9M32.1,1331.3H9.2m958.3,0h22.9M45.1,32.1V9.2m0,1335.1v22.9M954.5,32.1V9.2m0,1335.1v22.9" class="gd_364"/>
<path d="M32.1,45.1H9.2m958.3,0h22.9M32.1,1331.3H9.2m958.3,0h22.9M45.1,32.1V9.2m0,1335.1v22.9M954.5,32.1V9.2m0,1335.1v22.9" class="ge_364"/>
<path d="M27.5,32.1H0m972.1,0h27.5M27.5,1344.3H0m972.1,0h27.5M32.1,27.5V0m0,1348.9v27.5M967.5,27.5V0m0,1348.9v27.5" class="gd_364"/>
<path d="M27.5,32.1H0m972.1,0h27.5M27.5,1344.3H0m972.1,0h27.5M32.1,27.5V0m0,1348.9v27.5M967.5,27.5V0m0,1348.9v27.5" class="ge_364"/>
</svg>