<?xml version="1.0" encoding="UTF-8" standalone="no"?>
<!DOCTYPE svg PUBLIC "-//W3C//DTD SVG 1.1//EN"
"http://www.w3.org/Graphics/SVG/1.1/DTD/svg11.dtd">
<svg viewBox="0 0 999 1376" version="1.1" xmlns="http://www.w3.org/2000/svg" xmlns:xlink="http://www.w3.org/1999/xlink">
<defs>
<clipPath id="c0_111"><path d="M32.1,1344.3V32.1H967.5V1344.3Z"/></clipPath>
<clipPath id="c1_111"><path d="M260.7,865.2V771.6h97.1v93.6Z"/></clipPath>
<clipPath id="c2_111"><path d="M237.4,978.9V910.1h86.7v68.8Zm0,-79.6V897h86.7v2.3Z"/></clipPath>
<clipPath id="c3_111"><path d="M237.4,910.1V899.3h86.7v10.8Z"/></clipPath>
<clipPath id="c4_111"><path d="M235.4,1092.4v-81.9h86.7v81.9Z"/></clipPath>
<clipPath id="c5_111"><path d="M553.4,977.7V932l4.4,-3.6L564,895.8h74.8v81.9Z"/></clipPath>
<clipPath id="c6_111"><path d="M549.4,1092.4v-51l4.1,-6.9l10.2,-24h72.1v81.9Z"/></clipPath>
<clipPath id="c7_111"><path d="M198.7,668.9l-6.5,-2.1L175.8,652.9V595.8h72v73.1Z"/></clipPath>
<clipPath id="c8_111"><path d="M200.1,137.2c.1,-1.3,.7,-2.5,1.6,-3.4c1,-1,2.3,-1.6,3.9,-1.6h19.2v5Z"/></clipPath>
<clipPath id="c9_111"><path d="M199.5,137.7v-6h25.8v6Z"/></clipPath>
<style type="text/css"><![CDATA[
.g0_111{
fill: #FEFCF4;
}
.g1_111{
fill: #FFF;
}
.g2_111{
fill: none;
stroke: #6381B7;
stroke-width: 0.763;
}
.g3_111{
fill: #48484A;
}
.g4_111{
fill: #F0E8F3;
}
.g5_111{
fill: #766FA6;
}
.g6_111{
fill: none;
stroke: #231F20;
stroke-width: 0.305;
stroke-miterlimit: 10;
}
.g7_111{
fill: #DEF1F3;
}
.g8_111{
fill: #8FD5E3;
}
.g9_111{
fill: none;
stroke: #58595B;
stroke-width: 0.381;
stroke-miterlimit: 10;
}
.ga_111{
fill: #6381B7;
}
.gb_111{
fill: none;
stroke: #6381B7;
stroke-width: 0.381;
stroke-dasharray: 2,1;
}
.gc_111{
fill: none;
stroke: #6381B7;
stroke-width: 0.381;
}
.gd_111{
fill: #FCE8B0;
}
.ge_111{
fill: #25408F;
}
.gf_111{
fill: none;
stroke: #231F20;
stroke-width: 1.527;
}
.gg_111{
fill: #39B4D1;
stroke: #2D2A4A;
stroke-width: 1.038;
stroke-linecap: round;
stroke-linejoin: round;
}
.gh_111{
fill: #2D2A4A;
}
.gi_111{
fill: none;
stroke: #2D2A4A;
stroke-width: 1.038;
stroke-linecap: round;
stroke-linejoin: round;
}
.gj_111{
fill: #DEDAD3;
}
.gk_111{
fill: #29263F;
}
.gl_111{
fill: #E15F46;
stroke: #2D2A4A;
stroke-width: 1.038;
stroke-linecap: round;
stroke-linejoin: round;
}
.gm_111{
fill: none;
stroke: #FFF;
stroke-width: 1.909;
stroke-miterlimit: 10;
}
.gn_111{
fill: none;
stroke: #000;
stroke-width: 0.381;
stroke-miterlimit: 10;
}
]]></style>
</defs>
<path clip-path="url(#c0_111)" d="M-877.3,1344.3H45.1V32.1H-877.3V1344.3Z" class="g0_111"/>
<path d="M166.5,686.7c0,0,-13,0,-13,13v410c0,0,0,13,13,13H854.3c0,0,13,0,13,-13v-410c0,0,0,-13,-13,-13Z" class="g1_111"/>
<path d="M166.5,686.7c0,0,-13,0,-13,13v410c0,0,0,13,13,13H854.3c0,0,13,0,13,-13v-410c0,0,0,-13,-13,-13H166.5Z" class="g2_111"/>
<path d="M201,771.6c0,0,-4.3,0,-4.3,4.3v14.4c0,0,0,4.4,4,5.8l52.5,18.2c0,0,4.1,1.4,4.1,-2.9V775.9c0,0,0,-4.3,-4.4,-4.3Z" class="g3_111"/>
<path d="M222.1,758.8c0,0,-13,0,-13,13v93.8c0,0,0,13,13,13H819.8c0,0,13,0,13,-13V771.8c0,0,0,-13,-13,-13Z" class="g4_111"/>
<path d="M201,769.5c0,0,-4.3,0,-4.3,4.3v16.9c0,0,0,4.4,4.3,4.4h34.6c0,0,4.4,0,4.4,-4.4V773.8c0,0,0,-4.3,-4.4,-4.3Z" class="g5_111"/>
<path d="M189.3,743.6H842.8V726.3H189.3v17.3Z" class="g1_111"/>
<path d="M366,832.5H642.7" class="g6_111"/>
<image clip-path="url(#c1_111)" preserveAspectRatio="none" x="259" y="770" width="100" height="97" xlink:href="img/1.jpg"/>
<image clip-path="url(#c2_111)" preserveAspectRatio="none" x="237" y="897" width="87" height="82" xlink:href="img/2.jpg"/>
<image clip-path="url(#c3_111)" preserveAspectRatio="none" x="237" y="899" width="87" height="11" xlink:href="img/3.jpg"/>
<image clip-path="url(#c4_111)" preserveAspectRatio="none" x="235" y="1010" width="87" height="82" xlink:href="img/4.jpg"/>
<path d="M340.4,954.3h129m-129,30.6h129m-129,82.9h129m-129,30.6h129" class="g6_111"/>
<image clip-path="url(#c5_111)" preserveAspectRatio="none" x="553" y="896" width="87" height="82" xlink:href="img/5.jpg"/>
<image clip-path="url(#c6_111)" preserveAspectRatio="none" x="549" y="1010" width="87" height="82" xlink:href="img/6.jpg"/>
<path d="M661.8,954.3H790.7M661.8,984.9H790.7m-128.9,82.9H790.7m-128.9,30.6H790.7" class="g6_111"/>
<path d="M170.7,168.5c0,0,-17.4,0,-17.4,17.3V523.6c0,0,0,17.3,17.4,17.3H850.6c0,0,17.3,0,17.3,-17.3V185.8c0,0,0,-17.3,-17.3,-17.3Z" class="g7_111"/>
<path d="M207.5,254.9H359.1v24.4H207.5V254.9Zm151.6,0H510.6v24.4H359.1V254.9Zm151.5,0H813.8v24.4H510.6V254.9Z" class="g8_111"/>
<path d="M207.5,279.3H359.1v56.3H207.5V279.3Zm151.6,0H510.6v56.3H359.1V279.3Zm151.5,0H662.2v56.3H510.6V279.3Zm151.6,0H813.8v56.3H662.2V279.3ZM207.5,335.6H359.1v56.3H207.5V335.6Zm151.6,0H510.6v56.3H359.1V335.6Zm151.5,0H813.8v56.3H510.6V335.6Z" class="g1_111"/>
<path d="M207.5,254.9H359.1m0,0H510.6M359.1,279.1v-24m151.5,-.2H662.2M510.6,279.1v-24m151.6,-.2H813.8M207.5,279.3H359.1m0,0H510.6M359.1,335.4V279.5m151.5,-.2H662.2M510.6,335.4V279.5m151.6,-.2H813.8M662.2,335.4V279.5M207.5,335.6H359.1m0,0H510.6M359.1,391.7V335.8m151.5,-.2H662.2M510.6,391.7V335.8m151.6,-.2H813.8M207.5,391.9H359.1m0,0H510.6m0,0H662.2m0,0H813.8" class="g9_111"/>
<path d="M309.6,1139.1c0,0,-4.3,0,-4.3,4.3v10.8c0,0,0,4.4,4.3,4.4h30.3c0,0,4.4,0,4.4,-4.4v-10.8c0,0,0,-4.3,-4.4,-4.3Z" class="ga_111"/>
<path d="M296.4,1131.6v54.9m1.4,.9h569m.9,-1.3v-54.9m-1.3,-1h-569" class="gb_111"/>
<path d="M296.4,1186.8v.6h.6m570.1,0h.6v-.6m0,-56v-.6h-.6m-570.1,0h-.6v.6" class="gc_111"/>
<path d="M231.3,623.9c0,0,-13,0,-13,13v21.7c0,0,0,13,13,13H854.9c0,0,13,0,13,-13V636.9c0,0,0,-13,-13,-13Z" class="gd_111"/>
<image clip-path="url(#c7_111)" preserveAspectRatio="none" x="174" y="594" width="75" height="77" xlink:href="img/7.png"/>
<path d="M226.1,664.2c0,0,-26.9,11.3,-51.1,-12.7c0,0,15.2,25.3,49.3,23.9c0,0,24.7,.4,20.2,-10.1c0,0,1.3,-4.5,-18.4,-1.1Z" class="gd_111"/>
<path d="M153.3,109.5v39L165,158.7V136.5Z" class="ge_111"/>
<path d="M153.3,109.5v39H851.1c0,0,16.8,0,16.8,-16.8v-5.4c0,0,0,-16.8,-16.8,-16.8Z" class="ga_111"/>
<path d="M790.4,131c0,0,-.5,-10,8.6,-9.4c0,0,6.8,-.3,6.7,9.5m-15.3,-1.5v6.5c0,0,-3.4,.3,-3.9,-3c0,0,-.1,-3.8,3.9,-3.5Zm15.3,0v6.5c0,0,3.4,.3,4,-3c0,0,0,-3.8,-4,-3.5Z" class="gf_111"/>
<path d="M169,140.8h61v-32H169v32Z" class="gg_111"/>
<path d="M169,143.1h61v-2.3H169v2.3Z" class="gg_111"/>
<path d="M193.5,106.2H173.8v31.5h25.7V112.3c0,-3.4,-2.7,-6.1,-6,-6.1Z" class="g1_111"/>
<path d="M193.5,106.2v-.5H173.8c-.2,0,-.3,.1,-.4,.2c-.1,.1,-.2,.2,-.2,.3v31.5c0,.1,.1,.3,.2,.4c.1,.1,.2,.1,.4,.1h25.7c.2,0,.3,0,.4,-.1c.1,-.1,.1,-.3,.1,-.4V112.3c0,-3.7,-2.9,-6.6,-6.5,-6.6v1c1.5,0,2.9,.7,3.9,1.7c1,1,1.6,2.3,1.6,3.9v24.9H174.3V106.7h19.2Z" class="gh_111"/>
<path d="M173.8,131.7v6h25.7c0,-3.3,-2.7,-6,-6,-6Z" class="g1_111"/>
<path d="M173.8,131.7h-.6v6c0,.1,.1,.3,.2,.4c.1,.1,.2,.1,.4,.1h25.7c.2,0,.3,0,.4,-.1c.1,-.1,.1,-.3,.1,-.4c0,-3.6,-2.9,-6.6,-6.5,-6.6H173.8c-.2,0,-.3,.1,-.4,.2c-.1,.1,-.2,.2,-.2,.4h.6v.5h19.7c1.5,0,2.9,.6,3.9,1.6c1,1,1.6,2.4,1.6,3.9h.5v-.5H174.3v-5.5h-.5v.5Z" class="gh_111"/>
<path d="M177.3,110.9h17.2m-17.2,2.8h17.2m-17.2,2.9h17.2m-17.2,2.9h17.2m-17.2,2.8h17.2m-17.2,2.9h17.2M177.3,128h17.2" class="gi_111"/>
<path d="M193.5,132.2H174.3v5H199c-.1,-1.3,-.7,-2.5,-1.6,-3.4c-1,-1,-2.4,-1.6,-3.9,-1.6Z" class="gj_111"/>
<path d="M174.3,132.2h19.2c1.5,0,2.9,.6,3.9,1.6c.9,.9,1.5,2.1,1.6,3.4H174.3Zm19.2,-.5H173.8v6H199v-2.5c-.9,-2.1,-3.1,-3.5,-5.5,-3.5Z" class="gk_111"/>
<path d="M205.6,106.2h19.7v31.5H199.5V112.3c0,-3.4,2.7,-6.1,6.1,-6.1Z" class="g1_111"/>
<path d="M205.6,106.2v.5h19.2v30.5H200V112.3c0,-1.6,.7,-2.9,1.7,-3.9c1,-1,2.3,-1.7,3.9,-1.7v-1c-3.7,0,-6.6,2.9,-6.6,6.6v25.4c0,.1,.1,.3,.2,.4c0,.1,.2,.1,.3,.1h25.8c.1,0,.2,0,.3,-.1c.1,-.1,.2,-.3,.2,-.4V106.2c0,-.1,-.1,-.2,-.2,-.3c-.1,-.1,-.2,-.2,-.3,-.2H205.6Z" class="gh_111"/>
<path d="M225.3,131.7v6H199.5c0,-3.3,2.7,-6,6.1,-6Z" class="g1_111"/>
<path d="M225.3,131.7h-.5v5.5H199.5v.5h.5c0,-1.5,.7,-2.9,1.7,-3.9c1,-1,2.3,-1.6,3.9,-1.6h19.7v-.5h-.5h.5v-.6H205.6c-3.7,0,-6.6,3,-6.6,6.6c0,.1,.1,.3,.2,.4c0,.1,.2,.1,.3,.1h25.8c.1,0,.2,0,.3,-.1c.1,-.1,.2,-.3,.2,-.4v-6c0,-.2,-.1,-.3,-.2,-.4c-.1,-.1,-.2,-.2,-.3,-.2Z" class="gh_111"/>
<path d="M221.8,110.9H204.6m17.2,2.8H204.6m17.2,2.9H204.6m17.2,2.9H204.6m17.2,2.8H204.6m17.2,2.9H204.6m17.2,2.8H204.6" class="gi_111"/>
<path clip-path="url(#c8_111)" d="M200.1,137.2h24.7v-5H200.1v5Z" class="gj_111"/>
<path clip-path="url(#c9_111)" d="M200.1,137.2c.1,-1.3,.7,-2.5,1.6,-3.4c1,-1,2.3,-1.6,3.9,-1.6h19.2v5Zm25.2,-5.5H205.6c-3.4,0,-6.1,2.7,-6.1,6h25.8v-6h-.5h.5Z" class="gk_111"/>
<path d="M199.5,108.8v34.3" class="gi_111"/>
<path d="M217.2,145.5h3.3V134.7h-3.3v10.8Z" class="gl_111"/>
<path d="M32.1,45.1H9.2m958.3,0h22.9M32.1,1331.3H9.2m958.3,0h22.9M45.1,32.1V9.2m0,1335.1v22.9M954.5,32.1V9.2m0,1335.1v22.9" class="gm_111"/>
<path d="M32.1,45.1H9.2m958.3,0h22.9M32.1,1331.3H9.2m958.3,0h22.9M45.1,32.1V9.2m0,1335.1v22.9M954.5,32.1V9.2m0,1335.1v22.9" class="gn_111"/>
<path d="M27.5,32.1H0m972.1,0h27.5M27.5,1344.3H0m972.1,0h27.5M32.1,27.5V0m0,1348.9v27.5M967.5,27.5V0m0,1348.9v27.5" class="gm_111"/>
<path d="M27.5,32.1H0m972.1,0h27.5M27.5,1344.3H0m972.1,0h27.5M32.1,27.5V0m0,1348.9v27.5M967.5,27.5V0m0,1348.9v27.5" class="gn_111"/>
</svg>