<?xml version="1.0" encoding="UTF-8" standalone="no"?>
<!DOCTYPE svg PUBLIC "-//W3C//DTD SVG 1.1//EN"
"http://www.w3.org/Graphics/SVG/1.1/DTD/svg11.dtd">
<svg viewBox="0 0 999 1376" version="1.1" xmlns="http://www.w3.org/2000/svg" xmlns:xlink="http://www.w3.org/1999/xlink">
<defs>
<clipPath id="c0_45"><path d="M32.1,1344.3V32.1H967.5V1344.3Z"/></clipPath>
<clipPath id="c1_45"><path d="M693.5,308.4V279.3h39.8v29.1Z"/></clipPath>
<clipPath id="c2_45"><path d="M733.3,308.4V279.3h39.9v29.1Z"/></clipPath>
<clipPath id="c3_45"><path d="M693.5,337.4V308.3h39.8v29.1Z"/></clipPath>
<clipPath id="c4_45"><path d="M733.3,337.4V308.3h39.9v29.1Z"/></clipPath>
<clipPath id="c5_45"><path d="M543.1,336V281h77.2v55Z"/></clipPath>
<clipPath id="c6_45"><path d="M390.7,339.1v-58H451v58Z"/></clipPath>
<clipPath id="c7_45"><path d="M240.9,341V276h67.5v65Z"/></clipPath>
<clipPath id="c8_45"><path d="M240.6,345.9v-.8h77.9v.8Z"/></clipPath>
<clipPath id="c9_45"><path d="M700.2,193.8V68.1H847.6V193.8Z"/></clipPath>
<clipPath id="ca_45"><path d="M215,887.5V730.7H854.2V887.5Z"/></clipPath>
<clipPath id="cb_45"><path d="M215,1109.9V953.1H854.2v156.8Z"/></clipPath>
<style type="text/css"><![CDATA[
.g0_45{
fill: #FEFCF4;
}
.g1_45{
fill: #F16865;
}
.g2_45{
fill: #FFF;
}
.g3_45{
fill: none;
stroke: #6381B7;
stroke-width: 0.763;
}
.g4_45{
fill: none;
stroke: #231F20;
stroke-width: 0.458;
stroke-miterlimit: 10;
}
.g5_45{
fill: #6381B7;
}
.g6_45{
fill: none;
stroke: #6381B7;
stroke-width: 0.381;
stroke-dasharray: 2,1;
}
.g7_45{
fill: none;
stroke: #6381B7;
stroke-width: 0.381;
}
.g8_45{
fill: #FEF9F9;
}
.g9_45{
fill: none;
stroke: #A164A9;
stroke-width: 1.527;
stroke-linecap: round;
stroke-linejoin: round;
stroke-dasharray: 0,5;
}
.ga_45{
fill: none;
stroke: #A164A9;
stroke-width: 1.527;
stroke-linecap: round;
stroke-linejoin: round;
}
.gb_45{
fill: #A164A9;
}
.gc_45{
fill: none;
stroke: #FFF;
stroke-width: 1.909;
stroke-miterlimit: 10;
}
.gd_45{
fill: none;
stroke: #000;
stroke-width: 0.381;
stroke-miterlimit: 10;
}
]]></style>
</defs>
<path clip-path="url(#c0_45)" d="M-877.3,1344.3H45.1V32.1H-877.3V1344.3Z" class="g0_45"/>
<path d="M45.1,1344.3H967.5V32.1H45.1V1344.3Z" class="g0_45"/>
<path clip-path="url(#c0_45)" d="M867.9,166.7c0,0,30.3,0,30.3,-30.3v-4.3c0,0,0,-30.3,-30.3,-30.3H-735.4c0,0,-30.4,0,-30.4,30.3v4.3c0,0,0,30.3,30.4,30.3Z" class="g1_45"/>
<path d="M166.7,218.7c0,0,-13,0,-13,13V515c0,0,0,13,13,13H854.5c0,0,13,0,13,-13V231.7c0,0,0,-13,-13,-13Z" class="g2_45"/>
<path d="M166.7,218.7c0,0,-13,0,-13,13V515c0,0,0,13,13,13H854.5c0,0,13,0,13,-13V231.7c0,0,0,-13,-13,-13H166.7Z" class="g3_45"/>
<path d="M330,257.3h25.9" class="g4_45"/>
<image clip-path="url(#c1_45)" preserveAspectRatio="none" x="693" y="279" width="41" height="29" xlink:href="img/1.jpg"/>
<image clip-path="url(#c2_45)" preserveAspectRatio="none" x="733" y="279" width="40" height="29" xlink:href="img/2.jpg"/>
<image clip-path="url(#c3_45)" preserveAspectRatio="none" x="693" y="308" width="41" height="29" xlink:href="img/3.jpg"/>
<image clip-path="url(#c4_45)" preserveAspectRatio="none" x="733" y="308" width="40" height="29" xlink:href="img/4.jpg"/>
<image clip-path="url(#c5_45)" preserveAspectRatio="none" x="539" y="281" width="82" height="55" xlink:href="img/5.jpg"/>
<image clip-path="url(#c6_45)" preserveAspectRatio="none" x="389" y="280" width="64" height="60" xlink:href="img/6.jpg"/>
<image clip-path="url(#c7_45)" preserveAspectRatio="none" x="240" y="275" width="70" height="67" xlink:href="img/7.jpg"/>
<image clip-path="url(#c8_45)" preserveAspectRatio="none" x="237" y="346" width="82" height="54" xlink:href="img/8.jpg"/>
<image clip-path="url(#c9_45)" preserveAspectRatio="none" x="700" y="68" width="148" height="126" xlink:href="img/9.png"/>
<path d="M747,1173.6c0,0,-4.3,0,-4.3,4.4v10.8c0,0,0,4.3,4.3,4.3h30.3c0,0,4.4,0,4.4,-4.3V1178c0,0,0,-4.4,-4.4,-4.4Z" class="g5_45"/>
<path d="M733.8,1164.8v37.5m1.4,1H866.8m.9,-1.3v-37.6m-1.3,-.9H734.8" class="g6_45"/>
<path d="M733.8,1202.7v.6h.6m132.7,0h.6v-.6m0,-38.7v-.5h-.6m-132.7,0h-.6v.5" class="g7_45"/>
<path d="M154.1,1154.1h713V636h-713v518.1Z" class="g8_45"/>
<path d="M154.1,640.5v511.3m4.6,2.3H864.9m2.2,-4.6V638.3M862.6,636H156.4" class="g9_45"/>
<path d="M154.1,1154.1v0m713.1,0v0m0,-518.1v0m-713.1,0v0" class="ga_45"/>
<path d="M153.3,650.3V611.9c0,0,0,-8.6,8.7,-8.6H859.3c0,0,8.6,0,8.6,8.6v39Z" class="gb_45"/>
<image clip-path="url(#ca_45)" preserveAspectRatio="none" x="215" y="731" width="639" height="156" xlink:href="img/10.png"/>
<path d="M218.3,881.2H848.1V734H218.3V881.2Z" class="g2_45"/>
<image clip-path="url(#cb_45)" preserveAspectRatio="none" x="215" y="953" width="639" height="158" xlink:href="img/11.png"/>
<path d="M218.3,1103.6H848.1V956.4H218.3v147.2Z" class="g2_45"/>
<path d="M629.9,544.9c0,0,-4.4,0,-4.4,4.4v10.8c0,0,0,4.3,4.4,4.3h30.3c0,0,4.3,0,4.3,-4.3V549.3c0,0,0,-4.4,-4.3,-4.4Z" class="g5_45"/>
<path d="M616.7,536.1v37.6m1.3,.9H866.5m1,-1.3V535.7m-1.3,-.9H617.6" class="g6_45"/>
<path d="M616.7,574v.6h.6m249.6,0h.6V574m0,-38.7v-.5h-.6m-249.6,0h-.6v.5" class="g7_45"/>
<path d="M32.1,45.1H9.2m958.3,0h22.9M32.1,1331.3H9.2m958.3,0h22.9M45.1,32.1V9.2m0,1335.1v22.9M954.5,32.1V9.2m0,1335.1v22.9" class="gc_45"/>
<path d="M32.1,45.1H9.2m958.3,0h22.9M32.1,1331.3H9.2m958.3,0h22.9M45.1,32.1V9.2m0,1335.1v22.9M954.5,32.1V9.2m0,1335.1v22.9" class="gd_45"/>
<path d="M27.5,32.1H0m972.1,0h27.5M27.5,1344.3H0m972.1,0h27.5M32.1,27.5V0m0,1348.9v27.5M967.5,27.5V0m0,1348.9v27.5" class="gc_45"/>
<path d="M27.5,32.1H0m972.1,0h27.5M27.5,1344.3H0m972.1,0h27.5M32.1,27.5V0m0,1348.9v27.5M967.5,27.5V0m0,1348.9v27.5" class="gd_45"/>
</svg>