<?xml version="1.0" encoding="UTF-8" standalone="no"?>
<!DOCTYPE svg PUBLIC "-//W3C//DTD SVG 1.1//EN"
"http://www.w3.org/Graphics/SVG/1.1/DTD/svg11.dtd">
<svg viewBox="0 0 999 1376" version="1.1" xmlns="http://www.w3.org/2000/svg" xmlns:xlink="http://www.w3.org/1999/xlink">
<defs>
<clipPath id="c0_302"><path d="M203.8,353.7V267.4H290v86.3Z"/></clipPath>
<clipPath id="c1_302"><path d="M353,353.7V267.4H468v86.3Z"/></clipPath>
<clipPath id="c2_302"><path d="M531,353.7V267.4h86.2v86.3Z"/></clipPath>
<clipPath id="c3_302"><path d="M694.6,353.7V267.4h86.2v86.3Z"/></clipPath>
<clipPath id="c4_302"><path d="M203.8,697.5V611.3H290v86.2Z"/></clipPath>
<clipPath id="c5_302"><path d="M367.4,697.5V611.3h86.2v86.2Z"/></clipPath>
<clipPath id="c6_302"><path d="M519,697.5V611.3H631.1v86.2Z"/></clipPath>
<clipPath id="c7_302"><path d="M689.6,697.5V611.3h96.2v86.2Z"/></clipPath>
<clipPath id="c8_302"><path d="M176.4,238.2L170,236.1L153.6,222.2V165.1h71.9v73.1Z"/></clipPath>
<style type="text/css"><![CDATA[
.g0_302{
fill: #FEFCF4;
}
.g1_302{
fill: #FFF;
}
.g2_302{
fill: none;
stroke: #6381B7;
stroke-width: 0.763;
}
.g3_302{
fill: none;
stroke: #949698;
stroke-width: 0.381;
}
.g4_302{
fill: #FCE8B0;
}
.g5_302{
fill: none;
stroke: #00ABE5;
stroke-width: 2.291;
}
.g6_302{
fill: #3D3B39;
}
.g7_302{
fill: #E5E9B7;
}
.g8_302{
fill: #61C7CB;
}
.g9_302{
fill: none;
stroke: #00ABE5;
stroke-width: 1.527;
stroke-linecap: round;
stroke-linejoin: round;
stroke-dasharray: 0,5;
}
.ga_302{
fill: none;
stroke: #00ABE5;
stroke-width: 1.527;
stroke-linecap: round;
stroke-linejoin: round;
}
.gb_302{
fill: #25408F;
}
.gc_302{
fill: #6381B7;
}
.gd_302{
fill: #00BAF1;
}
.ge_302{
fill: #332D2C;
}
.gf_302{
fill: #D9DFF0;
}
.gg_302{
fill: #F27C85;
}
.gh_302{
fill: #7DD3F6;
}
.gi_302{
fill: none;
stroke: #FFF;
stroke-width: 1.909;
stroke-miterlimit: 10;
}
.gj_302{
fill: none;
stroke: #000;
stroke-width: 0.381;
stroke-miterlimit: 10;
}
]]></style>
</defs>
<path d="M32.1,1343.2H954.5V32.1H32.1V1343.2Z" class="g0_302"/>
<path d="M150.3,135c0,0,-18.4,0,-18.4,18.3V768.6c0,0,0,18.4,18.4,18.4H827.4c0,0,18.3,0,18.3,-18.4V135Z" class="g1_302"/>
<path d="M150.3,135c0,0,-18.4,0,-18.4,18.3V768.6c0,0,0,18.4,18.4,18.4H827.4c0,0,18.3,0,18.3,-18.4V135H150.3Z" class="g2_302"/>
<path d="M186.7,353.7H307.1V267.4H186.7v86.3Z" class="g1_302"/>
<image clip-path="url(#c0_302)" preserveAspectRatio="none" x="204" y="267" width="86" height="87" xlink:href="img/1.jpg"/>
<path d="M186.7,353.7H307.1V267.4H186.7v86.3Z" class="g3_302"/>
<path d="M350.3,353.7H470.8V267.4H350.3v86.3Z" class="g1_302"/>
<image clip-path="url(#c1_302)" preserveAspectRatio="none" x="353" y="267" width="115" height="87" xlink:href="img/2.jpg"/>
<path d="M350.3,353.7H470.8V267.4H350.3v86.3Z" class="g3_302"/>
<path d="M513.9,353.7H634.4V267.4H513.9v86.3Z" class="g1_302"/>
<image clip-path="url(#c2_302)" preserveAspectRatio="none" x="531" y="267" width="86" height="87" xlink:href="img/3.jpg"/>
<path d="M513.9,353.7H634.4V267.4H513.9v86.3Z" class="g3_302"/>
<path d="M677.5,353.7H798V267.4H677.5v86.3Z" class="g1_302"/>
<image clip-path="url(#c3_302)" preserveAspectRatio="none" x="695" y="267" width="86" height="87" xlink:href="img/4.jpg"/>
<path d="M677.5,353.7H798V267.4H677.5v86.3Z" class="g3_302"/>
<path d="M186.7,525.6H307.1V439.4H186.7v86.2Z" class="g1_302"/>
<image preserveAspectRatio="none" x="204" y="439" width="86" height="87" xlink:href="img/5.jpg"/>
<path d="M186.7,525.6H307.1V439.4H186.7v86.2Z" class="g3_302"/>
<path d="M350.3,525.6H470.8V439.4H350.3v86.2Z" class="g1_302"/>
<image preserveAspectRatio="none" x="367" y="439" width="87" height="87" xlink:href="img/6.jpg"/>
<path d="M350.3,525.6H470.8V439.4H350.3v86.2Z" class="g3_302"/>
<path d="M513.9,525.6H636.2V439.4H513.9v86.2Z" class="g1_302"/>
<image preserveAspectRatio="none" x="532" y="439" width="86" height="87" xlink:href="img/7.jpg"/>
<path d="M513.9,525.6H636.2V439.4H513.9v86.2Z" class="g3_302"/>
<path d="M677.5,525.6H798V439.4H677.5v86.2Z" class="g1_302"/>
<image preserveAspectRatio="none" x="695" y="439" width="86" height="87" xlink:href="img/8.jpg"/>
<path d="M677.5,525.6H798V439.4H677.5v86.2Z" class="g3_302"/>
<path d="M186.7,697.5H307.1V611.3H186.7v86.2Z" class="g1_302"/>
<image clip-path="url(#c4_302)" preserveAspectRatio="none" x="204" y="611" width="86" height="87" xlink:href="img/9.jpg"/>
<path d="M186.7,697.5H307.1V611.3H186.7v86.2Z" class="g3_302"/>
<path d="M350.3,697.5H470.8V611.3H350.3v86.2Z" class="g1_302"/>
<image clip-path="url(#c5_302)" preserveAspectRatio="none" x="367" y="611" width="87" height="87" xlink:href="img/10.jpg"/>
<path d="M350.3,697.5H470.8V611.3H350.3v86.2Z" class="g3_302"/>
<path d="M513.9,697.5H636.2V611.3H513.9v86.2Z" class="g1_302"/>
<image clip-path="url(#c6_302)" preserveAspectRatio="none" x="519" y="611" width="112" height="87" xlink:href="img/11.jpg"/>
<path d="M513.9,697.5H636.2V611.3H513.9v86.2Z" class="g3_302"/>
<path d="M677.5,697.5H798V611.3H677.5v86.2Z" class="g1_302"/>
<image clip-path="url(#c7_302)" preserveAspectRatio="none" x="690" y="611" width="96" height="87" xlink:href="img/12.jpg"/>
<path d="M677.5,697.5H798V611.3H677.5v86.2Z" class="g3_302"/>
<path d="M209.1,193.3c0,0,-13,0,-13,12.9v21.7c0,0,0,13,13,13H811c0,0,13,0,13,-13V206.2c0,0,0,-12.9,-13,-12.9Z" class="g4_302"/>
<image clip-path="url(#c8_302)" preserveAspectRatio="none" x="152" y="164" width="75" height="76" xlink:href="img/13.png"/>
<path d="M203.9,233.5c0,0,-26.9,11.3,-51.1,-12.7c0,0,15.1,25.3,49.3,23.9c0,0,24.7,.4,20.2,-10.1c0,0,1.2,-4.4,-18.4,-1.1Z" class="g4_302"/>
<path d="M132.8,959.8V931.1c0,0,0,-4.3,4.4,-4.3H840.8c0,0,4.3,0,4.3,4.3v29.2" class="g5_302"/>
<path d="M178.4,927.3c2.7,0,4.8,-2.1,4.8,-4.8c0,-2.6,-2.1,-4.8,-4.8,-4.8c-2.6,0,-4.8,2.2,-4.8,4.8c0,2.7,2.2,4.8,4.8,4.8Z" class="g1_302"/>
<path d="M178.4,929.2c3.7,0,6.7,-3,6.7,-6.7c0,-3.7,-3,-6.7,-6.7,-6.7c-3.7,0,-6.7,3,-6.7,6.7c0,3.7,3,6.7,6.7,6.7m0,-11.5c2.7,0,4.8,2.2,4.8,4.8c0,2.7,-2.1,4.8,-4.8,4.8c-2.6,0,-4.8,-2.1,-4.8,-4.8c0,-2.6,2.2,-4.8,4.8,-4.8Z" class="g6_302"/>
<path d="M183.8,931.1H173c-.2,0,-.3,0,-.5,0c2.8,1.1,5,3.4,5.9,6.2c1.3,-.5,2.8,-.8,4.3,-.8c2.8,0,5.4,1,7.4,2.7v-1.8c0,-3.4,-2.8,-6.3,-6.3,-6.3Z" class="g1_302"/>
<path d="M162.3,928.1c3.4,0,6.2,-2.7,6.2,-6.1c0,-3.4,-2.8,-6.1,-6.2,-6.1c-3.3,0,-6.1,2.7,-6.1,6.1c0,3.4,2.8,6.1,6.1,6.1Z" class="g7_302"/>
<path d="M162.3,930c4.5,0,8.1,-3.6,8.1,-8c0,-4.4,-3.6,-8,-8.1,-8c-4.4,0,-8,3.6,-8,8c0,4.4,3.6,8,8,8m0,-14.1c3.4,0,6.2,2.7,6.2,6.1c0,3.4,-2.8,6.1,-6.2,6.1c-3.3,0,-6.1,-2.7,-6.1,-6.1c0,-3.4,2.8,-6.1,6.1,-6.1Z" class="g6_302"/>
<path d="M176.7,938.2c-1,-3.4,-4,-5.8,-7.7,-5.8H155.7c-4.5,0,-8,3.6,-8,8v4.3h23.7c.9,-2.8,2.8,-5.1,5.3,-6.5Z" class="g7_302"/>
<path d="M182.7,938.4c-5.5,0,-10,4.5,-10,10c0,5.5,4.5,10,10,10c5.5,0,10,-4.5,10,-10c0,-5.5,-4.5,-10,-10,-10m6.6,11.7c0,.2,-.2,.5,-.4,.5h-4.1v4c0,.3,-.2,.5,-.4,.5H181c-.3,0,-.5,-.2,-.5,-.5v-4h-4c-.3,0,-.5,-.3,-.5,-.5v-3.4c0,-.2,.2,-.5,.5,-.5h4v-4c0,-.3,.2,-.5,.5,-.5h3.4c.2,0,.4,.2,.4,.5v4h4.1c.2,0,.4,.3,.4,.5Z" class="g8_302"/>
<path d="M192,941.1v-3.7c0,-4.5,-3.6,-8.2,-8.2,-8.2H173c-1.6,0,-3.1,.5,-4.4,1.3H155.7c-5.5,0,-9.9,4.4,-9.9,9.9v5.2c0,.6,.4,1,.9,1H171c-.1,.6,-.2,1.2,-.2,1.8c0,6.5,5.3,11.9,11.9,11.9c6.5,0,11.8,-5.4,11.8,-11.9c0,-2.7,-.9,-5.3,-2.5,-7.3m-9.3,17.3c-5.5,0,-10,-4.5,-10,-10c0,-5.5,4.5,-10,10,-10c5.5,0,10,4.5,10,10c0,5.5,-4.5,10,-10,10m-35,-18c0,-4.4,3.5,-8,8,-8H169c3.7,0,6.7,2.4,7.7,5.8c-2.5,1.4,-4.4,3.7,-5.3,6.5H147.7Zm42.4,-1.2c-2,-1.7,-4.6,-2.7,-7.4,-2.7c-1.5,0,-3,.3,-4.3,.8c-.9,-2.8,-3.1,-5.1,-5.9,-6.2c.2,0,.3,0,.5,0h10.8c3.5,0,6.3,2.9,6.3,6.3Z" class="g6_302"/>
<path d="M183.9,946.7v-4h-2.4v4c0,.3,-.2,.5,-.5,.5h-4v2.4h4c.3,0,.5,.2,.5,.5v4h2.4v-4c0,-.3,.2,-.5,.5,-.5h4v-2.4h-4c-.3,0,-.5,-.2,-.5,-.5Z" class="g1_302"/>
<path d="M188.9,946.2h-4.1v-4c0,-.3,-.2,-.5,-.4,-.5H181c-.3,0,-.5,.2,-.5,.5v4h-4c-.3,0,-.5,.3,-.5,.5v3.4c0,.2,.2,.5,.5,.5h4v4c0,.3,.2,.5,.5,.5h3.4c.2,0,.4,-.2,.4,-.5v-4h4.1c.2,0,.4,-.3,.4,-.5v-3.4c0,-.2,-.2,-.5,-.4,-.5m-.5,3.4h-4c-.3,0,-.5,.2,-.5,.5v4h-2.4v-4c0,-.3,-.2,-.5,-.5,-.5h-4v-2.4h4c.3,0,.5,-.2,.5,-.5v-4h2.4v4c0,.3,.2,.5,.5,.5h4Z" class="g6_302"/>
<path d="M132.5,969.9v271.7m4.5,2.3H843.2m2.3,-4.5V967.6m-4.6,-2.2H134.7" class="g9_302"/>
<path d="M132.5,1243.9v0m713,0v0m0,-278.5v0m-713,0v0" class="ga_302"/>
<path d="M131.7,126.7v22.2l11.7,10.3V137Z" class="gb_302"/>
<path d="M131.7,109.9v39H829.4c0,0,16.9,0,16.9,-16.8v-5.4c0,0,0,-16.8,-16.9,-16.8Z" class="gc_302"/>
<path d="M189.6,121.3l-6.4,-6.5L162,136l6.4,6.5Z" class="gd_302"/>
<path d="M168.4,143c.2,0,.3,0,.4,-.1L190,121.7c.1,-.1,.2,-.3,.2,-.4c0,-.1,-.1,-.3,-.2,-.4l-6.5,-6.4c-.2,-.2,-.5,-.2,-.7,0l-21.2,21.2c-.1,.1,-.2,.2,-.2,.3c0,.2,.1,.3,.2,.4l6.5,6.5c.1,.1,.2,.1,.3,.1m20.5,-21.7l-20.5,20.5L162.7,136l20.5,-20.4Z" class="ge_302"/>
<path d="M189.6,121.3l-6.4,-6.5l2.1,-2.1l6.5,6.5Z" class="gf_302"/>
<path d="M189.6,121.8c.2,0,.3,0,.4,-.1l2.1,-2.1c.1,-.1,.2,-.3,.2,-.4c0,-.2,-.1,-.3,-.2,-.4l-6.4,-6.5c-.2,-.2,-.6,-.2,-.8,0l-2.1,2.2c-.1,0,-.2,.2,-.2,.3c0,.2,.1,.3,.2,.4l6.5,6.5c.1,.1,.2,.1,.3,.1m1.4,-2.6l-1.4,1.4l-5.7,-5.8l1.4,-1.4Z" class="ge_302"/>
<path d="M195.4,115.6l-6.5,-6.5l-3.6,3.6l6.5,6.5Z" class="gg_302"/>
<path d="M191.8,119.7c.1,0,.2,0,.3,-.1l3.7,-3.7c.2,-.2,.2,-.5,0,-.7l-6.5,-6.5c-.2,-.2,-.6,-.2,-.8,0l-3.6,3.6c-.2,.2,-.2,.6,0,.8l6.5,6.5c.1,.1,.2,.1,.4,.1m2.8,-4.1l-2.8,2.8L186,112.7l2.9,-2.9Z" class="ge_302"/>
<path d="M157.3,147.2L162,136l6.4,6.5Z" class="g1_302"/>
<path d="M157.3,147.7c.1,0,.2,0,.2,-.1L168.6,143c.2,-.1,.3,-.2,.4,-.4c0,-.2,-.1,-.3,-.2,-.5l-6.5,-6.4c-.1,-.2,-.3,-.2,-.5,-.2c-.1,.1,-.3,.2,-.3,.3l-4.7,11.1c0,.2,0,.5,.1,.6c.1,.1,.3,.2,.4,.2m10.2,-5.4l-9.2,3.9l3.8,-9.2Z" class="ge_302"/>
<path d="M157.3,147.2l2.3,-5.4l3.1,3.1Z" class="ge_302"/>
<path d="M157.3,147.7c.1,0,.2,0,.2,-.1l5.4,-2.2c.1,-.1,.3,-.2,.3,-.4c0,-.2,0,-.3,-.1,-.5l-3.2,-3.1c-.1,-.1,-.3,-.2,-.4,-.1c-.2,0,-.4,.1,-.4,.3l-2.3,5.3c0,.2,0,.5,.1,.6c.1,.1,.3,.2,.4,.2m4.5,-3l-3.5,1.5l1.4,-3.5Z" class="ge_302"/>
<path d="M187.9,119.5l-3,-2.9l-21.2,21.2l3,3Z" class="gh_302"/>
<path d="M166.7,141.3c.1,0,.2,-.1,.3,-.2l21.3,-21.2c.1,-.1,.1,-.2,.1,-.4c0,-.1,0,-.2,-.1,-.3l-3,-3c-.2,-.2,-.5,-.2,-.8,0l-21.2,21.2c-.1,.1,-.1,.3,-.1,.4c0,.1,0,.3,.1,.4l3,2.9c.1,.1,.2,.2,.4,.2m20.4,-21.8L166.7,140l-2.2,-2.2l20.4,-20.5Z" class="ge_302"/>
<path d="M32.1,45.1H9.2m958.3,0h22.9M32.1,1331.3H9.2m958.3,0h22.9M45.1,32.1V9.2m0,1335.1v22.9M954.5,32.1V9.2m0,1335.1v22.9" class="gi_302"/>
<path d="M32.1,45.1H9.2m958.3,0h22.9M32.1,1331.3H9.2m958.3,0h22.9M45.1,32.1V9.2m0,1335.1v22.9M954.5,32.1V9.2m0,1335.1v22.9" class="gj_302"/>
<path d="M27.5,32.1H0m972.1,0h27.5M27.5,1344.3H0m972.1,0h27.5M32.1,27.5V0m0,1348.9v27.5M967.5,27.5V0m0,1348.9v27.5" class="gi_302"/>
<path d="M27.5,32.1H0m972.1,0h27.5M27.5,1344.3H0m972.1,0h27.5M32.1,27.5V0m0,1348.9v27.5M967.5,27.5V0m0,1348.9v27.5" class="gj_302"/>
</svg>