<?xml version="1.0" encoding="UTF-8" standalone="no"?>
<!DOCTYPE svg PUBLIC "-//W3C//DTD SVG 1.1//EN"
"http://www.w3.org/Graphics/SVG/1.1/DTD/svg11.dtd">
<svg viewBox="0 0 999 1376" version="1.1" xmlns="http://www.w3.org/2000/svg" xmlns:xlink="http://www.w3.org/1999/xlink">
<defs>
<clipPath id="c0_348"><path d="M32.1,1344.3V32.1H967.5V1344.3Z"/></clipPath>
<clipPath id="c1_348"><path d="M177,199.4l-6.5,-2.1L154.1,183.4V126.3h72v73.1Z"/></clipPath>
<clipPath id="c2_348"><path d="M217.7,334.4V268.7h77.9v65.7Z"/></clipPath>
<clipPath id="c3_348"><path d="M217.7,489.5V413.9h85.6v75.6Z"/></clipPath>
<clipPath id="c4_348"><path d="M219.9,414.7V340.1h74.6v74.6Z"/></clipPath>
<clipPath id="c5_348"><path d="M219.9,563.2V488.7h75.8v74.5Z"/></clipPath>
<style type="text/css"><![CDATA[
.g0_348{
fill: #FEFCF4;
}
.g1_348{
fill: #FCE8B0;
}
.g2_348{
fill: #FFF;
}
.g3_348{
fill: none;
stroke: #6381B7;
stroke-width: 0.763;
}
.g4_348{
fill: #F0E8F3;
}
.g5_348{
fill: none;
stroke: #231F20;
stroke-width: 0.381;
stroke-miterlimit: 10;
}
.g6_348{
fill: #93BEDA;
}
.g7_348{
fill: #EFE9CC;
}
.g8_348{
fill: #6381B7;
}
.g9_348{
fill: none;
stroke: #6381B7;
stroke-width: 0.381;
stroke-dasharray: 2,1;
}
.ga_348{
fill: none;
stroke: #6381B7;
stroke-width: 0.381;
}
.gb_348{
fill: none;
stroke: #FFF;
stroke-width: 1.909;
stroke-miterlimit: 10;
}
.gc_348{
fill: none;
stroke: #000;
stroke-width: 0.381;
stroke-miterlimit: 10;
}
]]></style>
</defs>
<path clip-path="url(#c0_348)" d="M954.5,1344.3H1877V32.1H954.5V1344.3Z" class="g0_348"/>
<path d="M209.6,154.5c0,0,-12.9,0,-12.9,12.9v21.7c0,0,0,13,12.9,13H833.3c0,0,13,0,13,-13V167.4c0,0,0,-12.9,-13,-12.9Z" class="g1_348"/>
<image clip-path="url(#c1_348)" preserveAspectRatio="none" x="153" y="125" width="75" height="76" xlink:href="img/1.png"/>
<path d="M204.4,194.7c0,0,-26.8,11.3,-51.1,-12.7c0,0,15.2,25.3,49.3,23.9c0,0,24.8,.4,20.3,-10.1c0,0,1.2,-4.4,-18.5,-1.1Z" class="g1_348"/>
<path d="M145.1,213.3c0,0,-13,0,-13,13v951c0,0,0,13,13,13H832.9c0,0,13,0,13,-13v-951c0,0,0,-13,-13,-13Z" class="g2_348"/>
<path d="M145.1,213.3c0,0,-13,0,-13,13v951c0,0,0,13,13,13H832.9c0,0,13,0,13,-13v-951c0,0,0,-13,-13,-13H145.1Z" class="g3_348"/>
<image clip-path="url(#c2_348)" preserveAspectRatio="none" x="216" y="269" width="80" height="66" xlink:href="img/2.jpg"/>
<image clip-path="url(#c3_348)" preserveAspectRatio="none" x="214" y="413" width="89" height="77" xlink:href="img/3.jpg"/>
<image clip-path="url(#c4_348)" preserveAspectRatio="none" x="219" y="339" width="76" height="77" xlink:href="img/4.jpg"/>
<image clip-path="url(#c5_348)" preserveAspectRatio="none" x="219" y="487" width="78" height="77" xlink:href="img/5.jpg"/>
<path d="M218.3,647.4c0,0,-13,0,-13,13V721c0,0,0,13,13,13h563c0,0,13,0,13,-13V660.4c0,0,0,-13,-13,-13Z" class="g4_348"/>
<path d="M300.5,676.3h90.2" class="g5_348"/>
<path d="M218.3,782.8c0,0,-13,0,-13,13v60.7c0,0,0,12.9,13,12.9h563c0,0,13,0,13,-12.9V795.8c0,0,0,-13,-13,-13Z" class="g4_348"/>
<path d="M240.2,811.7h90.3" class="g5_348"/>
<path d="M218.3,1053.3c0,0,-13,0,-13,13v60.6c0,0,0,13,13,13h563c0,0,13,0,13,-13v-60.6c0,0,0,-13,-13,-13Z" class="g4_348"/>
<path d="M395.2,1107.9h90.3" class="g5_348"/>
<path d="M218.3,917.9c0,0,-13,0,-13,13v60.6c0,0,0,13,13,13h563c0,0,13,0,13,-13V930.9c0,0,0,-13,-13,-13Z" class="g4_348"/>
<path d="M300.5,946.8h90.2" class="g5_348"/>
<path d="M312.1,298.7c2,0,3.6,-1.6,3.6,-3.6c0,-2,-1.6,-3.6,-3.6,-3.6c-2,0,-3.6,1.6,-3.6,3.6c0,2,1.6,3.6,3.6,3.6Z" class="g6_348"/>
<path d="M312.1,372.8c2,0,3.6,-1.7,3.6,-3.6c0,-2,-1.6,-3.7,-3.6,-3.7c-2,0,-3.6,1.7,-3.6,3.7c0,1.9,1.6,3.6,3.6,3.6Z" class="g6_348"/>
<path d="M312.1,446.8c2,0,3.6,-1.6,3.6,-3.6c0,-2,-1.6,-3.6,-3.6,-3.6c-2,0,-3.6,1.6,-3.6,3.6c0,2,1.6,3.6,3.6,3.6Z" class="g6_348"/>
<path d="M312.1,520.9c2,0,3.6,-1.6,3.6,-3.6c0,-2,-1.6,-3.6,-3.6,-3.6c-2,0,-3.6,1.6,-3.6,3.6c0,2,1.6,3.6,3.6,3.6Z" class="g6_348"/>
<path d="M525.4,298.7c2,0,3.6,-1.6,3.6,-3.6c0,-2,-1.6,-3.6,-3.6,-3.6c-2,0,-3.6,1.6,-3.6,3.6c0,2,1.6,3.6,3.6,3.6Z" class="g6_348"/>
<path d="M525.4,372.8c2,0,3.6,-1.7,3.6,-3.6c0,-2,-1.6,-3.7,-3.6,-3.7c-2,0,-3.6,1.7,-3.6,3.7c0,1.9,1.6,3.6,3.6,3.6Z" class="g6_348"/>
<path d="M525.4,446.8c2,0,3.6,-1.6,3.6,-3.6c0,-2,-1.6,-3.6,-3.6,-3.6c-2,0,-3.6,1.6,-3.6,3.6c0,2,1.6,3.6,3.6,3.6Z" class="g6_348"/>
<path d="M525.4,520.9c2,0,3.6,-1.6,3.6,-3.6c0,-2,-1.6,-3.6,-3.6,-3.6c-2,0,-3.6,1.6,-3.6,3.6c0,2,1.6,3.6,3.6,3.6Z" class="g6_348"/>
<path d="M564.4,278.9c0,0,-8.7,0,-8.7,8.7v15.2c0,0,0,8.6,8.7,8.6H677c0,0,8.7,0,8.7,-8.6V287.6c0,0,0,-8.7,-8.7,-8.7Z" class="g7_348"/>
<path d="M564.4,353.9c0,0,-8.7,0,-8.7,8.6v15.2c0,0,0,8.6,8.7,8.6H677c0,0,8.7,0,8.7,-8.6V362.5c0,0,0,-8.6,-8.7,-8.6Z" class="g7_348"/>
<path d="M564.4,428.8c0,0,-8.7,0,-8.7,8.6v15.2c0,0,0,8.7,8.7,8.7H677c0,0,8.7,0,8.7,-8.7V437.4c0,0,0,-8.6,-8.7,-8.6Z" class="g7_348"/>
<path d="M564.4,503.7c0,0,-8.7,0,-8.7,8.7v15.1c0,0,0,8.7,8.7,8.7H677c0,0,8.7,0,8.7,-8.7V512.4c0,0,0,-8.7,-8.7,-8.7Z" class="g7_348"/>
<path d="M461.2,1208.4c0,0,-4.3,0,-4.3,4.3v10.9c0,0,0,4.3,4.3,4.3h30.3c0,0,4.4,0,4.4,-4.3v-10.9c0,0,0,-4.3,-4.4,-4.3Z" class="g8_348"/>
<path d="M448,1200.9v34.9m1.4,1H845.1m1,-1.4v-34.9m-1.4,-.9H449" class="g9_348"/>
<path d="M448,1236.2v.6h.6m396.9,0h.6v-.6m0,-36.1v-.5h-.6m-396.9,0H448v.5" class="ga_348"/>
<path d="M32.1,45.1H9.2m958.3,0h22.9M32.1,1331.3H9.2m958.3,0h22.9M45.1,32.1V9.2m0,1335.1v22.9M954.5,32.1V9.2m0,1335.1v22.9" class="gb_348"/>
<path d="M32.1,45.1H9.2m958.3,0h22.9M32.1,1331.3H9.2m958.3,0h22.9M45.1,32.1V9.2m0,1335.1v22.9M954.5,32.1V9.2m0,1335.1v22.9" class="gc_348"/>
<path d="M27.5,32.1H0m972.1,0h27.5M27.5,1344.3H0m972.1,0h27.5M32.1,27.5V0m0,1348.9v27.5M967.5,27.5V0m0,1348.9v27.5" class="gb_348"/>
<path d="M27.5,32.1H0m972.1,0h27.5M27.5,1344.3H0m972.1,0h27.5M32.1,27.5V0m0,1348.9v27.5M967.5,27.5V0m0,1348.9v27.5" class="gc_348"/>
</svg>