<?xml version="1.0" encoding="UTF-8" standalone="no"?>
<!DOCTYPE svg PUBLIC "-//W3C//DTD SVG 1.1//EN"
"http://www.w3.org/Graphics/SVG/1.1/DTD/svg11.dtd">
<svg viewBox="0 0 999 1376" version="1.1" xmlns="http://www.w3.org/2000/svg" xmlns:xlink="http://www.w3.org/1999/xlink">
<defs>
<clipPath id="c0_61"><path d="M87.1,490.9V329.2H284.6V490.9Z"/></clipPath>
<clipPath id="c1_61"><path d="M87,488.1V331.3H283.9V488.1Z"/></clipPath>
<clipPath id="c2_61"><path d="M86.7,487.8V331H283.6V487.8Z"/></clipPath>
<clipPath id="c3_61"><path d="M197.8,259.5l-6.5,-2.1L174.9,243.5V186.4h71.9v73.1Z"/></clipPath>
<clipPath id="c4_61"><path d="M199.2,1028l-6.5,-2.1L176.3,1012V954.9h72V1028Z"/></clipPath>
<clipPath id="c5_61"><path d="M786.5,132.5V120.1H801v12.4Z"/></clipPath>
<clipPath id="c6_61"><path d="M178.7,348.4c-.2,-.1,3.6,-8.2,3.6,-8.2l.8,.5c0,0,-4.1,7.7,-4.4,7.7Z"/></clipPath>
<clipPath id="c7_61"><path d="M186.2,340.7c0,0,-6.8,-1.1,-7.5,-5.2c-.7,-3.6,1.5,-3.9,2,-3.9c.1,0,.2,0,.2,0l8.3,-12.7l-1.5,-3.1c0,0,-.6,-1.1,.2,-2c0,-.1,.1,-.1,.3,-.1c2.1,0,12.9,5.5,12.9,5.5l.1,.2c-.4,.5,-.8,1.1,-1.4,1.6c-.7,.5,-5.1,1.2,-5.1,1.2l-8.5,18.5Z"/></clipPath>
<clipPath id="c8_61"><path d="M185.8,340.3c.2,-.4,.2,-1.7,0,-2.2v-1.4c-1.5,-.5,-2.8,-1.2,-3.6,-2.5c-1.1,.6,-2.1,1.2,-3.1,1.9c1.5,2.1,3.8,3.5,6.7,4.2Zm0,-3.8c2.2,-4.6,4,-9.6,6.2,-14.1c-.9,-.4,-1.8,-1.3,-2.6,-1.4c-2.3,4.3,-4.6,8.6,-7.1,12.8c.7,1.3,2.1,2,3.5,2.7Zm-7.3,12c1.1,-2.9,2.5,-5.5,3.6,-8.3c-2,-1.5,-4,-3.1,-4.4,-6.1v-1.5c-.1,-2.7,1.9,-3.4,4.5,-3.4c.1,0,.2,0,.3,0c1.9,-3.4,4.2,-6.4,6.1,-9.7c-.6,-.9,-1.2,-2.4,-.9,-3.7c.5,1.3,1.7,1.9,2.4,2.9c-.1,.6,-.3,1.2,-.4,1.8c.6,.7,1.4,1.2,2.4,1.4c.5,-.4,.5,-1.3,1.2,-1.5c.9,.3,1.8,.7,3.1,.7c.1,.1,.5,.2,.8,.2c.4,0,.7,-.1,.8,-.2c.1,.1,.2,.1,.3,.1c.3,0,.5,-.1,.7,-.2c.1,0,.3,-.1,.5,-.1c.1,0,.2,0,.3,.1c-1.3,.7,-2.2,1.8,-4.2,1.8c-.1,0,-.2,0,-.3,0c-.9,3.7,-1.9,7.3,-2.7,11.1c.6,1.1,1.5,1.7,1.3,3.2c-.5,2.7,-3.9,4.4,-7.2,4.4c-1.3,0,-2.5,-.3,-3.6,-.8c-1,2.1,-2.1,4.2,-3.3,6.1c0,-.4,.3,-.4,.3,-.8c.9,-1.8,1.9,-3.6,2.6,-5.7c-1.1,1.8,-1.8,3.8,-2.8,5.6c-.2,.4,-.4,.8,-.6,1.2c-.3,.5,-.3,1.2,-.8,1.4Z"/></clipPath>
<clipPath id="c9_61"><path d="M196.3,320.7c-4.8,0,-13.1,-7.3,-5.6,-8.8H192c.1,.1,.3,.1,.5,.1c0,0,.1,0,.2,0c.3,0,.7,0,1.1,.1c3,.6,8.2,3.8,7.5,7c-.2,1.2,-1.6,1.6,-3.1,1.6h-1.8c0,0,-.1,0,-.1,0Z"/></clipPath>
<clipPath id="ca_61"><path d="M700.9,498.6V261H932.5V498.6Z"/></clipPath>
<clipPath id="cb_61"><path d="M703.1,492.7V264.4H927.5V492.7Z"/></clipPath>
<clipPath id="cc_61"><path d="M702.8,492.4V264.1H926.6V492.4Z"/></clipPath>
<clipPath id="cd_61"><path d="M813.5,278.2c-.2,-.1,3.6,-8.2,3.6,-8.2l.8,.5c0,0,-4.1,7.7,-4.4,7.7Z"/></clipPath>
<clipPath id="ce_61"><path d="M821.1,270.4c0,0,-6.9,-1.1,-7.6,-5.2c-.7,-3.6,1.5,-3.8,2.1,-3.8c0,0,.1,0,.1,0L824,248.7l-1.5,-3.1c0,0,-.6,-1.1,.2,-2.1c0,-.1,.1,-.1,.3,-.1c2.1,0,12.9,5.5,12.9,5.5l.1,.2c-.4,.5,-.7,1.1,-1.4,1.6c-.7,.5,-5.1,1.2,-5.1,1.2l-8.4,18.5Z"/></clipPath>
<clipPath id="cf_61"><path d="M820.6,270.1c.3,-.5,.3,-1.8,0,-2.3v-1.4c-1.5,-.5,-2.8,-1.2,-3.6,-2.5c-1.1,.6,-2.1,1.3,-3.1,1.9c1.5,2.1,3.8,3.6,6.7,4.3Zm0,-3.9c2.2,-4.6,4,-9.5,6.2,-14.1c-.9,-.4,-1.8,-1.3,-2.6,-1.4c-2.3,4.4,-4.6,8.7,-7.1,12.9c.8,1.3,2.1,2,3.5,2.6Zm-7.2,12.1c1,-2.9,2.4,-5.5,3.5,-8.3c-2,-1.6,-3.9,-3.1,-4.4,-6.2v-1.5c-.1,-2.7,1.9,-3.4,4.6,-3.4c0,0,.1,0,.2,0c1.9,-3.3,4.2,-6.3,6.1,-9.7c-.6,-.8,-1.1,-2.3,-.9,-3.6c.5,1.2,1.7,1.9,2.4,2.9c-.1,.6,-.3,1.1,-.4,1.7c.6,.7,1.4,1.2,2.4,1.4c.5,-.4,.5,-1.2,1.2,-1.5c.9,.4,1.8,.8,3.1,.8c.1,.1,.5,.1,.8,.1c.4,0,.7,0,.8,-.1c.1,0,.2,0,.3,0c.3,0,.5,-.1,.7,-.1c.1,-.1,.3,-.2,.5,-.2c.1,0,.2,.1,.3,.1c-1.3,.7,-2.2,1.8,-4.2,1.8c-.1,0,-.2,0,-.3,0c-.9,3.7,-1.9,7.4,-2.7,11.2c.6,1,1.5,1.7,1.3,3.1c-.5,2.8,-3.9,4.4,-7.2,4.4c-1.3,0,-2.5,-.2,-3.6,-.7c-1,2.1,-2.1,4.1,-3.3,6c0,-.4,.3,-.4,.3,-.8c.9,-1.8,1.9,-3.5,2.6,-5.6c-1,1.7,-1.8,3.7,-2.8,5.5c-.2,.4,-.4,.9,-.6,1.3c-.3,.4,-.3,1.1,-.7,1.4Z"/></clipPath>
<clipPath id="cg_61"><path d="M831.1,250.5c-4.8,0,-13.1,-7.3,-5.6,-8.8h1.3c.2,0,.4,0,.7,0c0,0,.1,0,.1,0c.3,0,.6,0,1,.1c3,.7,8.2,3.8,7.5,7c-.2,1.2,-1.6,1.6,-3.1,1.7h-1.8c0,0,-.1,0,-.1,0Z"/></clipPath>
<style type="text/css"><![CDATA[
.g0_61{
fill: #FEFCF4;
}
.g1_61{
fill: #FFF;
}
.g2_61{
fill: none;
stroke: #6381B7;
stroke-width: 0.763;
}
.g3_61{
fill: none;
stroke: #949698;
stroke-width: 0.305;
stroke-dasharray: 3,3;
}
.g4_61{
fill: none;
stroke: #949698;
stroke-width: 0.305;
}
.g5_61{
fill: #F7C2D9;
}
.g6_61{
fill: #FDF4F3;
}
.g7_61{
fill: #EC008C;
}
.g8_61{
fill: none;
stroke: #949698;
stroke-width: 0.305;
stroke-dasharray: 4,4;
}
.g9_61{
fill: #818385;
}
.ga_61{
fill: #6381B7;
}
.gb_61{
fill: none;
stroke: #6381B7;
stroke-width: 0.381;
stroke-dasharray: 2,1;
}
.gc_61{
fill: none;
stroke: #6381B7;
stroke-width: 0.381;
}
.gd_61{
fill: #FCE8B0;
}
.ge_61{
fill: #25408F;
}
.gf_61{
fill: #A8AAAD;
}
.gg_61{
fill: none;
stroke: #949698;
stroke-width: 0.549;
}
.gh_61{
fill: none;
stroke: #BCBEC0;
stroke-width: 2.566;
}
.gi_61{
fill: #231F20;
}
.gj_61{
fill: #363637;
}
.gk_61{
fill: #5CC4BE;
}
.gl_61{
fill: #F0D73F;
}
.gm_61{
fill: #6D6F71;
}
.gn_61{
fill: none;
stroke: #FFF;
stroke-width: 1.909;
stroke-miterlimit: 10;
}
.go_61{
fill: none;
stroke: #000;
stroke-width: 0.381;
stroke-miterlimit: 10;
}
]]></style>
</defs>
<path d="M45.1,1344.3H967.5V32.1H45.1V1344.3Z" class="g0_61"/>
<path d="M172.1,138.8c0,0,-18.4,0,-18.4,18.3V855.3c0,0,0,18.3,18.4,18.3H849.2c0,0,18.3,0,18.3,-18.3V138.8Z" class="g1_61"/>
<path d="M172.1,138.8c0,0,-18.4,0,-18.4,18.3V855.3c0,0,0,18.3,18.4,18.3H849.2c0,0,18.3,0,18.3,-18.3V138.8H172.1Z" class="g2_61"/>
<path d="M545.1,319.7c6.7,-1.8,11.8,-7.9,12.8,-15.5m-.3,-7c-1.5,-7.4,-7,-13.2,-13.9,-14.4m-7,.3C530.1,285,525,291,524,298.6m.2,7c1.5,7.4,7,13.2,13.9,14.4" class="g3_61"/>
<path d="M558,302.8c.1,-.4,.1,-.9,.1,-1.4c0,-.5,0,-.9,-.1,-1.4M542.3,282.6c-.4,0,-.9,0,-1.4,0c-.5,0,-.9,0,-1.4,0M523.8,300c0,.5,0,.9,0,1.4c0,.5,0,1,0,1.4m15.7,17.4c.5,.1,.9,.1,1.4,.1c.5,0,1,0,1.4,-.1" class="g4_61"/>
<image clip-path="url(#c0_61)" preserveAspectRatio="none" x="87" y="330" width="197" height="161" xlink:href="img/1.png"/>
<path d="M97,333.9L91.8,478.2l181.8,6.4l4.6,-144.4Z" class="g5_61"/>
<image clip-path="url(#c1_61)" preserveAspectRatio="none" x="86" y="331" width="197" height="158" xlink:href="img/2.png"/>
<image clip-path="url(#c2_61)" preserveAspectRatio="none" x="86" y="331" width="197" height="157" xlink:href="img/3.png"/>
<path d="M91.4,341l5.3,140.4l150.8,-4.1l29.7,-24.6L273,336Z" class="g6_61"/>
<path d="M247.5,477.4l29.7,-24.6l-21.9,-1.3Z" class="g7_61"/>
<path d="M524.8,285.1c-28.9,-1.9,-186.3,-12,-263.6,-9.3m-8.2,1c-2.4,1,-1.9,2.7,-.5,4m7.2,-.2c1.9,-3,.5,-8.7,-10.9,-10.1" class="g8_61"/>
<path d="M241.1,270.2c-34.9,1.1,-87.3,31.2,-110.3,63.9" class="g3_61"/>
<path d="M529.5,285.4c0,0,-.6,0,-1.6,-.1M259.7,275.8c-.5,.1,-1,.1,-1.6,.1c-.6,0,-1.2,.1,-1.7,.1m-2.5,5.8c.5,.3,1.1,.5,1.6,.6c.6,.1,1.1,.1,1.6,0m-9.9,-12c-.5,-.1,-1.1,-.1,-1.6,-.1c-.5,-.1,-1,-.1,-1.5,-.1M129.9,335.4c-.3,.4,-.5,.8,-.8,1.2" class="g4_61"/>
<path d="M135.6,334.6l-7.2,-5l-2.8,11.8Z" class="g9_61"/>
<path d="M166.7,941.7c0,0,-13,0,-13,13v148.9c0,0,0,13,13,13H854.5c0,0,13,0,13,-13V954.7c0,0,0,-13,-13,-13Z" class="g1_61"/>
<path d="M166.7,941.7c0,0,-13,0,-13,13v148.9c0,0,0,13,13,13H854.5c0,0,13,0,13,-13V954.7c0,0,0,-13,-13,-13H166.7Z" class="g2_61"/>
<path d="M404.9,1133.4c0,0,-4.3,0,-4.3,4.4v10.8c0,0,0,4.3,4.3,4.3h30.3c0,0,4.4,0,4.4,-4.3v-10.8c0,0,0,-4.4,-4.4,-4.4Z" class="ga_61"/>
<path d="M391.7,1124.6v37.6m1.4,.9H867.5m.9,-1.3v-37.6m-1.3,-.9H392.7" class="gb_61"/>
<path d="M391.7,1162.5v.6h.6m475.6,0h.5v-.6m0,-38.7v-.5h-.5m-475.6,0h-.6v.5" class="gc_61"/>
<path d="M230.4,188.6c0,0,-13,0,-13,13v47.6c0,0,0,13,13,13H832.3c0,0,13,0,13,-13V201.6c0,0,0,-13,-13,-13Z" class="gd_61"/>
<image clip-path="url(#c3_61)" preserveAspectRatio="none" x="173" y="185" width="75" height="76" xlink:href="img/4.png"/>
<path d="M225.2,254.8c0,0,-26.9,11.3,-51.1,-12.7c0,0,15.1,25.3,49.3,23.9c0,0,24.7,.4,20.2,-10.1c0,0,1.2,-4.4,-18.4,-1.1Z" class="gd_61"/>
<path d="M231.8,957.1c0,0,-13,0,-13,12.9v47.7c0,0,0,13,13,13h602c0,0,13,0,13,-13V970c0,0,0,-12.9,-13,-12.9Z" class="gd_61"/>
<image clip-path="url(#c4_61)" preserveAspectRatio="none" x="175" y="953" width="75" height="77" xlink:href="img/5.png"/>
<path d="M226.6,1023.3c0,0,-26.8,11.3,-51.1,-12.7c0,0,15.2,25.3,49.3,23.9c0,0,24.7,.4,20.2,-10.1c0,0,1.3,-4.5,-18.4,-1.1Z" class="gd_61"/>
<path d="M153.3,111.9v39L165,161.2V117Z" class="ge_61"/>
<path d="M153.3,111.9v39H851.1c0,0,16.8,0,16.8,-16.8v-5.3c0,0,0,-16.9,-16.8,-16.9Z" class="ga_61"/>
<path d="M802.6,145.6c8.2,0,14.9,-6.5,14.9,-14.5c0,-8.1,-6.7,-14.5,-14.9,-14.5c-8.2,0,-14.9,6.4,-14.9,14.5c0,8,6.7,14.5,14.9,14.5Z" class="gf_61"/>
<path d="M802.6,145.6c8.2,0,14.9,-6.5,14.9,-14.5c0,-8.1,-6.7,-14.5,-14.9,-14.5c-8.2,0,-14.9,6.4,-14.9,14.5c0,8,6.7,14.5,14.9,14.5Z" class="gg_61"/>
<path d="M802.6,136.4c3,0,5.5,-2.4,5.5,-5.3c0,-3,-2.5,-5.4,-5.5,-5.4c-3,0,-5.5,2.4,-5.5,5.4c0,2.9,2.5,5.3,5.5,5.3Z" class="g1_61"/>
<path d="M802.6,136.4c3,0,5.5,-2.4,5.5,-5.3c0,-3,-2.5,-5.4,-5.5,-5.4c-3,0,-5.5,2.4,-5.5,5.4c0,2.9,2.5,5.3,5.5,5.3Z" class="gh_61"/>
<g clip-path="url(#c5_61)" opacity="0.3">
<path d="M788,130.3c0,0,0,-4.8,3.7,-8.7l7.7,6.8c0,0,-1,.9,-1,2.6Z" class="g1_61"/>
</g>
<path d="M807.2,131c0,0,-3.5,0,-3.5,3.4v8.7c0,0,0,3.5,3.5,3.5h43.5c0,0,3.5,0,3.5,-3.5v-8.7c0,0,0,-3.4,-3.5,-3.4Z" class="gi_61"/>
<path d="M191.2,122c0,-8.3,-6.8,-15,-15.1,-15c-8.3,0,-15,6.7,-15,15c0,8.3,6.7,15.1,15,15.1c.8,0,1.7,-.1,2.4,-.2l4.5,5.2v-6.7c4.9,-2.5,8.2,-7.6,8.2,-13.4Z" class="g1_61"/>
<path d="M183.5,143.3l-5.1,-5.9c-.8,.1,-1.5,.1,-2.3,.1c-8.5,0,-15.5,-6.9,-15.5,-15.5c0,-8.5,7,-15.5,15.5,-15.5c8.6,0,15.5,7,15.5,15.5c0,5.7,-3.1,11,-8.1,13.7Zm-4.8,-6.9l3.9,4.5v-5.8l.2,-.1c4.9,-2.5,7.9,-7.5,7.9,-13c0,-8,-6.5,-14.6,-14.6,-14.6c-8,0,-14.6,6.6,-14.6,14.6c0,8.1,6.6,14.6,14.6,14.6c.8,0,1.6,-.1,2.4,-.2Z" class="gj_61"/>
<path d="M169.1,121.6c.8,0,1.4,.6,1.4,1.4c0,.8,-.6,1.5,-1.4,1.5c-.8,0,-1.4,-.7,-1.4,-1.5c0,-.8,.6,-1.4,1.4,-1.4Z" class="gk_61"/>
<path d="M169.1,124.9c-1,0,-1.9,-.8,-1.9,-1.9c0,-1,.9,-1.9,1.9,-1.9c1,0,1.9,.9,1.9,1.9c0,1.1,-.9,1.9,-1.9,1.9m0,-2.9c-.5,0,-1,.5,-1,1c0,.6,.5,1,1,1c.5,0,1,-.4,1,-1c0,-.5,-.5,-1,-1,-1Z" class="gj_61"/>
<path d="M176.1,121.6c.8,0,1.5,.6,1.5,1.4c0,.8,-.7,1.5,-1.5,1.5c-.8,0,-1.4,-.7,-1.4,-1.5c0,-.8,.6,-1.4,1.4,-1.4Z" class="gk_61"/>
<path d="M176.1,124.9c-1,0,-1.9,-.8,-1.9,-1.9c0,-1,.9,-1.9,1.9,-1.9c1.1,0,1.9,.9,1.9,1.9c0,1.1,-.8,1.9,-1.9,1.9m0,-2.9c-.5,0,-1,.5,-1,1c0,.6,.5,1,1,1c.6,0,1,-.4,1,-1c0,-.5,-.4,-1,-1,-1Z" class="gj_61"/>
<path d="M183.1,121.6c.8,0,1.5,.6,1.5,1.4c0,.8,-.7,1.5,-1.5,1.5c-.8,0,-1.4,-.7,-1.4,-1.5c0,-.8,.6,-1.4,1.4,-1.4Z" class="gk_61"/>
<path d="M183.1,124.9c-1,0,-1.9,-.8,-1.9,-1.9c0,-1,.9,-1.9,1.9,-1.9c1.1,0,1.9,.9,1.9,1.9c0,1.1,-.8,1.9,-1.9,1.9m0,-2.9c-.5,0,-1,.5,-1,1c0,.6,.5,1,1,1c.6,0,1,-.4,1,-1c0,-.5,-.4,-1,-1,-1Z" class="gj_61"/>
<path d="M185.1,136.3c0,-9.8,7.8,-17.7,17.6,-17.7c9.7,0,17.6,7.9,17.6,17.7c0,9.7,-7.9,17.6,-17.6,17.6c-1,0,-1.9,-.1,-2.9,-.3l-5.2,6.1v-7.8c-5.7,-2.9,-9.5,-8.8,-9.5,-15.6Z" class="gl_61"/>
<path d="M194.6,160.2q-.1,0,-.2,0c-.2,-.1,-.3,-.3,-.3,-.5v-7.5c-5.9,-3.2,-9.5,-9.2,-9.5,-15.9c0,-10,8.1,-18.1,18.1,-18.1c9.9,0,18,8.1,18,18.1c0,9.9,-8.1,18,-18,18c-.9,0,-1.8,0,-2.7,-.2l-5.1,5.9c-.1,.1,-.2,.2,-.3,.2m8.1,-41.1c-9.5,0,-17.2,7.7,-17.2,17.2c0,6.4,3.6,12.2,9.3,15.2c.1,.1,.2,.2,.2,.4v6.6l4.5,-5.2c.1,-.1,.3,-.1,.4,-.1c1,.1,1.9,.2,2.8,.2c9.4,0,17.1,-7.7,17.1,-17.1c0,-9.5,-7.7,-17.2,-17.1,-17.2Z" class="gj_61"/>
<path d="M210.9,135.8c.9,0,1.6,.7,1.6,1.6c0,1,-.7,1.7,-1.6,1.7c-1,0,-1.7,-.7,-1.7,-1.7c0,-.9,.7,-1.6,1.7,-1.6Z" class="g1_61"/>
<path d="M210.9,139.6c-1.2,0,-2.2,-1,-2.2,-2.2c0,-1.1,1,-2.1,2.2,-2.1c1.1,0,2.1,1,2.1,2.1c0,1.2,-1,2.2,-2.1,2.2m0,-3.4c-.7,0,-1.3,.6,-1.3,1.2c0,.7,.6,1.3,1.3,1.3c.6,0,1.2,-.6,1.2,-1.3c0,-.6,-.6,-1.2,-1.2,-1.2Z" class="gj_61"/>
<path d="M202.7,135.8c.9,0,1.6,.7,1.6,1.6c0,1,-.7,1.7,-1.6,1.7c-1,0,-1.7,-.7,-1.7,-1.7c0,-.9,.7,-1.6,1.7,-1.6Z" class="g1_61"/>
<path d="M202.7,139.6c-1.2,0,-2.2,-1,-2.2,-2.2c0,-1.1,1,-2.1,2.2,-2.1c1.1,0,2.1,1,2.1,2.1c0,1.2,-1,2.2,-2.1,2.2m0,-3.4c-.7,0,-1.3,.6,-1.3,1.2c0,.7,.6,1.3,1.3,1.3c.6,0,1.2,-.6,1.2,-1.3c0,-.6,-.6,-1.2,-1.2,-1.2Z" class="gj_61"/>
<path d="M194.5,135.8c.9,0,1.6,.7,1.6,1.6c0,1,-.7,1.7,-1.6,1.7c-1,0,-1.7,-.7,-1.7,-1.7c0,-.9,.7,-1.6,1.7,-1.6Z" class="g1_61"/>
<path d="M194.5,139.6c-1.2,0,-2.2,-1,-2.2,-2.2c0,-1.1,1,-2.1,2.2,-2.1c1.1,0,2.1,1,2.1,2.1c0,1.2,-1,2.2,-2.1,2.2m0,-3.4c-.7,0,-1.2,.6,-1.2,1.2c0,.7,.5,1.3,1.2,1.3c.6,0,1.2,-.6,1.2,-1.3c0,-.6,-.6,-1.2,-1.2,-1.2Z" class="gj_61"/>
<image clip-path="url(#c6_61)" x="178" y="340" width="6" height="9" xlink:href="shade/1.png"/>
<image clip-path="url(#c7_61)" x="177" y="313" width="25" height="28" xlink:href="shade/2.png"/>
<image clip-path="url(#c8_61)" x="177" y="315" width="23" height="34" xlink:href="shade/3.png"/>
<image clip-path="url(#c9_61)" x="183" y="311" width="19" height="10" xlink:href="shade/4.png"/>
<image clip-path="url(#ca_61)" preserveAspectRatio="none" x="700" y="261" width="232" height="238" xlink:href="img/6.png"/>
<path d="M706,276.8l10.1,215.8L926.4,481.7l-11,-215.6Z" class="g5_61"/>
<image clip-path="url(#cb_61)" preserveAspectRatio="none" x="703" y="265" width="224" height="228" xlink:href="img/7.png"/>
<image clip-path="url(#cc_61)" preserveAspectRatio="none" x="702" y="264" width="225" height="229" xlink:href="img/8.png"/>
<path d="M707.8,272.7l3.6,213.6l174.1,-2.6L920.4,461l-3,-191.8Z" class="g6_61"/>
<path d="M886.9,483.8l34.9,-23.6L903,447Z" class="g7_61"/>
<image clip-path="url(#cd_61)" x="813" y="269" width="5" height="10" xlink:href="shade/5.png"/>
<image clip-path="url(#ce_61)" x="812" y="243" width="24" height="28" xlink:href="shade/6.png"/>
<image clip-path="url(#cf_61)" x="812" y="245" width="23" height="34" xlink:href="shade/7.png"/>
<image clip-path="url(#cg_61)" x="817" y="241" width="20" height="10" xlink:href="shade/8.png"/>
<path d="M636,318.2c25.1,-.7,45.3,-7.3,49.2,-15.8" class="g8_61"/>
<path d="M684.8,295.7c-1.3,-2.2,-3.6,-4.2,-6.8,-6.1" class="g3_61"/>
<path d="M671.2,286.5c-9.3,-3.4,-22.2,-5.6,-36.5,-5.9m-7.8,0c-25.1,.8,-45.3,7.4,-49.2,15.9m.7,7.2c5.4,8.1,25.6,14.1,50,14.6" class="g8_61"/>
<path d="M685.7,301c.1,-.5,.2,-1,.2,-1.6c0,-.4,-.1,-.8,-.2,-1.3M676.8,289c-.4,-.2,-.8,-.4,-1.2,-.6c-.5,-.2,-.9,-.4,-1.4,-.6m-41.1,-7.2c-.6,0,-1.1,0,-1.6,0c-.6,0,-1.1,0,-1.6,0m-52.7,17.3c-.1,.5,-.2,1,-.2,1.5c0,.6,.1,1.1,.2,1.6m52.7,17.3c.5,0,1,0,1.6,0c.5,0,1,0,1.5,0" class="g4_61"/>
<path d="M633.6,280.7c0,0,40.3,-15.6,77.8,4.5" class="g3_61"/>
<path d="M711.1,280.7l-3,8.3l12.2,-.4Z" class="gm_61"/>
<path d="M32.1,45.1H9.2m958.3,0h22.9M32.1,1331.3H9.2m958.3,0h22.9M45.1,32.1V9.2m0,1335.1v22.9M954.5,32.1V9.2m0,1335.1v22.9" class="gn_61"/>
<path d="M32.1,45.1H9.2m958.3,0h22.9M32.1,1331.3H9.2m958.3,0h22.9M45.1,32.1V9.2m0,1335.1v22.9M954.5,32.1V9.2m0,1335.1v22.9" class="go_61"/>
<path d="M27.5,32.1H0m972.1,0h27.5M27.5,1344.3H0m972.1,0h27.5M32.1,27.5V0m0,1348.9v27.5M967.5,27.5V0m0,1348.9v27.5" class="gn_61"/>
<path d="M27.5,32.1H0m972.1,0h27.5M27.5,1344.3H0m972.1,0h27.5M32.1,27.5V0m0,1348.9v27.5M967.5,27.5V0m0,1348.9v27.5" class="go_61"/>
</svg>