<?xml version="1.0" encoding="UTF-8" standalone="no"?>
<!DOCTYPE svg PUBLIC "-//W3C//DTD SVG 1.1//EN"
"http://www.w3.org/Graphics/SVG/1.1/DTD/svg11.dtd">
<svg viewBox="0 0 999 1376" version="1.1" xmlns="http://www.w3.org/2000/svg" xmlns:xlink="http://www.w3.org/1999/xlink">
<defs>
<clipPath id="c0_130"><path d="M32.1,1344.3V32.1H967.5V1344.3Z"/></clipPath>
<clipPath id="c1_130"><path d="M66.4,1067.8V806h214v261.8Z"/></clipPath>
<clipPath id="c2_130"><path d="M60.2,1071.8V802.3H284.6v269.5Z"/></clipPath>
<clipPath id="c3_130"><path d="M59.9,1071.5V802H284.3v269.5Z"/></clipPath>
<clipPath id="c4_130"><path d="M177,528.7l-6.5,-2.1L154.1,512.7V455.6h72v73.1Z"/></clipPath>
<clipPath id="c5_130"><path d="M62.4,791.8v-242H287.9v242Z"/></clipPath>
<clipPath id="c6_130"><path d="M67.5,787.1v-237H285.3v237Z"/></clipPath>
<clipPath id="c7_130"><path d="M177.5,1149.4l-6.5,-2.1l-16.4,-13.9v-57.1h72v73.1Z"/></clipPath>
<clipPath id="c8_130"><path d="M764.8,421.9V409.5h14.5v12.4Z"/></clipPath>
<clipPath id="c9_130"><path d="M163.1,563.9c-.3,-.1,3.5,-8.2,3.5,-8.2l.8,.5c0,0,-4,7.7,-4.3,7.7Z"/></clipPath>
<clipPath id="ca_130"><path d="M170.6,556.2c0,0,-6.9,-1.2,-7.6,-5.3c-.7,-3.6,1.5,-3.8,2.1,-3.8q.1,0,.1,0l8.3,-12.7l-1.4,-3.1c0,0,-.6,-1.1,.1,-2.1c0,-.1,.2,-.1,.3,-.1c2.1,0,12.9,5.6,12.9,5.6l.1,.1c-.3,.5,-.7,1.1,-1.4,1.6c-.6,.5,-5.1,1.2,-5.1,1.2l-8.4,18.6Z"/></clipPath>
<clipPath id="cb_130"><path d="M170.2,555.8c.2,-.5,.2,-1.8,0,-2.3v-1.3c-1.6,-.6,-2.9,-1.3,-3.7,-2.6c-1.1,.6,-2.1,1.3,-3.1,1.9c1.5,2.2,3.8,3.6,6.8,4.3Zm0,-3.9c2.2,-4.6,4,-9.5,6.1,-14.1c-.9,-.4,-1.8,-1.3,-2.6,-1.4c-2.3,4.4,-4.6,8.7,-7,12.9c.7,1.3,2,2,3.5,2.6ZM162.9,564c1,-2.9,2.4,-5.5,3.5,-8.3c-2,-1.6,-3.9,-3.1,-4.4,-6.2V548c0,-2.7,1.9,-3.4,4.6,-3.4q.1,0,.2,0c1.9,-3.3,4.2,-6.3,6.1,-9.7c-.5,-.8,-1.1,-2.3,-.8,-3.6c.5,1.2,1.6,1.9,2.3,2.9c-.1,.6,-.2,1.1,-.3,1.7c.6,.7,1.3,1.2,2.4,1.4c.4,-.4,.5,-1.2,1.1,-1.5c.9,.4,1.8,.8,3.1,.8c.2,.1,.5,.1,.8,.1c.4,0,.7,0,.9,-.1c.1,0,.2,0,.3,0c.2,0,.4,-.1,.6,-.1c.2,-.1,.3,-.2,.5,-.2c.1,0,.2,.1,.3,.1c-1.3,.7,-2.2,1.8,-4.1,1.8c-.2,0,-.3,0,-.4,0c-.9,3.7,-1.9,7.4,-2.6,11.2c.5,1,1.5,1.7,1.2,3.1c-.4,2.8,-3.8,4.4,-7.2,4.4c-1.3,0,-2.5,-.2,-3.6,-.7c-1,2.1,-2.1,4.1,-3.3,6c0,-.4,.3,-.4,.3,-.7c.9,-1.9,1.9,-3.6,2.6,-5.7c-1,1.7,-1.8,3.7,-2.7,5.5c-.2,.4,-.5,.9,-.7,1.3c-.3,.4,-.3,1.1,-.7,1.4Z"/></clipPath>
<clipPath id="cc_130"><path d="M180.6,536.2c-4.8,0,-13.1,-7.3,-5.5,-8.8h1.2c.2,0,.5,0,.7,0c.1,0,.2,0,.2,0c.3,0,.6,.1,.9,.1c3.1,.7,8.2,3.8,7.5,7.1c-.2,1.1,-1.5,1.5,-3.1,1.6h-1.9Z"/></clipPath>
<clipPath id="cd_130"><path d="M168.3,809.1c-.3,-.1,3.5,-8.2,3.5,-8.2l.8,.5c0,0,-4,7.7,-4.3,7.7Z"/></clipPath>
<clipPath id="ce_130"><path d="M175.8,801.4c0,0,-6.9,-1.1,-7.6,-5.2c-.7,-3.6,1.5,-3.9,2.1,-3.9q.1,0,.1,0l8.3,-12.7l-1.4,-3.1c0,0,-.6,-1.1,.1,-2.1c0,0,.2,-.1,.3,-.1c2.1,0,12.9,5.6,12.9,5.6l.1,.1c-.3,.6,-.7,1.2,-1.4,1.7c-.6,.5,-5.1,1.1,-5.1,1.1l-8.4,18.6Z"/></clipPath>
<clipPath id="cf_130"><path d="M175.4,801c.2,-.4,.2,-1.8,0,-2.2v-1.4c-1.6,-.5,-2.9,-1.2,-3.7,-2.5c-1.1,.6,-2.1,1.2,-3.1,1.9c1.5,2.1,3.8,3.5,6.8,4.2Zm0,-3.9c2.2,-4.5,4,-9.5,6.1,-14c-.9,-.4,-1.8,-1.4,-2.6,-1.4c-2.3,4.3,-4.6,8.6,-7,12.8c.7,1.3,2,2,3.5,2.6Zm-7.3,12.1c1,-2.9,2.4,-5.5,3.5,-8.3c-2,-1.5,-3.9,-3.1,-4.4,-6.1v-1.6c0,-2.7,1.9,-3.3,4.6,-3.3q.1,0,.2,0c1.9,-3.4,4.2,-6.4,6.1,-9.7c-.5,-.9,-1.1,-2.4,-.8,-3.7c.5,1.3,1.6,1.9,2.3,2.9c-.1,.6,-.2,1.2,-.3,1.8c.6,.6,1.3,1.2,2.4,1.4c.4,-.5,.5,-1.3,1.1,-1.5c.9,.3,1.8,.7,3.1,.7c.2,.1,.5,.2,.8,.2c.4,0,.7,-.1,.9,-.2c.1,0,.2,.1,.3,.1c.2,0,.4,-.1,.6,-.2c.2,-.1,.3,-.1,.5,-.1c.1,0,.2,0,.3,.1c-1.3,.6,-2.2,1.8,-4.2,1.8c-.1,0,-.2,-.1,-.3,-.1c-.9,3.8,-1.9,7.4,-2.6,11.2c.5,1.1,1.5,1.7,1.2,3.2c-.4,2.7,-3.8,4.4,-7.2,4.4c-1.2,0,-2.5,-.3,-3.6,-.8c-1,2.1,-2.1,4.1,-3.3,6c0,-.3,.3,-.3,.3,-.7c.9,-1.8,1.9,-3.6,2.6,-5.7c-1,1.7,-1.8,3.7,-2.7,5.6c-.2,.4,-.5,.8,-.7,1.2c-.3,.4,-.3,1.2,-.7,1.4Z"/></clipPath>
<clipPath id="cg_130"><path d="M185.8,781.4c-4.8,0,-13.1,-7.3,-5.5,-8.8h1.2c.2,.1,.4,.1,.6,.1q.1,0,.1,0q.1,0,.2,0c.3,0,.6,0,.9,.1c3.1,.6,8.2,3.8,7.5,7c-.2,1.1,-1.5,1.6,-3.1,1.6h-1.9Z"/></clipPath>
<clipPath id="ch_130"><path d="M125.5,386.7V205.8H858.6V386.7Z"/></clipPath>
<style type="text/css"><![CDATA[
.g0_130{
fill: #FEFCF4;
}
.g1_130{
fill: #FFF;
}
.g2_130{
fill: none;
stroke: #6381B7;
stroke-width: 0.763;
}
.g3_130{
fill: #F7C2D9;
}
.g4_130{
fill: #FDF4F3;
}
.g5_130{
fill: #EC008C;
}
.g6_130{
fill: none;
stroke: #818385;
stroke-width: 0.305;
stroke-dasharray: 3,3;
}
.g7_130{
fill: none;
stroke: #818385;
stroke-width: 0.305;
}
.g8_130{
fill: none;
stroke: #949698;
stroke-width: 0.305;
stroke-dasharray: 4,4;
}
.g9_130{
fill: #6D6F71;
}
.ga_130{
fill: #6381B7;
}
.gb_130{
fill: none;
stroke: #6381B7;
stroke-width: 0.381;
stroke-dasharray: 2,1;
}
.gc_130{
fill: none;
stroke: #6381B7;
stroke-width: 0.381;
}
.gd_130{
fill: #FCE8B0;
}
.ge_130{
fill: none;
stroke: #949698;
stroke-width: 0.305;
}
.gf_130{
fill: #25408F;
}
.gg_130{
fill: #A8AAAD;
}
.gh_130{
fill: none;
stroke: #949698;
stroke-width: 0.549;
}
.gi_130{
fill: none;
stroke: #BCBEC0;
stroke-width: 2.566;
}
.gj_130{
fill: #231F20;
}
.gk_130{
fill: #363637;
}
.gl_130{
fill: #5CC4BE;
}
.gm_130{
fill: #EAD646;
}
.gn_130{
fill: #2E6E51;
}
.go_130{
fill: none;
stroke: #FFF;
stroke-width: 0.152;
stroke-miterlimit: 1;
}
.gp_130{
fill: #BCBEC0;
}
.gq_130{
fill: #EE314A;
}
.gr_130{
fill: #CEEDFB;
}
.gs_130{
fill: #27639D;
}
.gt_130{
fill: none;
stroke: #C3E7F1;
stroke-width: 1.527;
}
.gu_130{
fill: none;
stroke: #FFF;
stroke-width: 1.909;
stroke-miterlimit: 10;
}
.gv_130{
fill: none;
stroke: #000;
stroke-width: 0.381;
stroke-miterlimit: 10;
}
]]></style>
</defs>
<path d="M32.1,1344.3H954.5V32.1H32.1V1344.3Z" class="g0_130"/>
<path clip-path="url(#c0_130)" d="M954.5,1344.3H1877V32.1H954.5V1344.3Z" class="g0_130"/>
<path d="M150.4,427.5c0,0,-18.3,0,-18.3,18.3v587.8c0,0,0,18.3,18.3,18.3H827.5c0,0,18.4,0,18.4,-18.3V427.5Z" class="g1_130"/>
<path d="M150.4,427.5c0,0,-18.3,0,-18.3,18.3v587.8c0,0,0,18.3,18.3,18.3H827.5c0,0,18.4,0,18.4,-18.3V427.5H150.4Z" class="g2_130"/>
<image clip-path="url(#c1_130)" preserveAspectRatio="none" x="66" y="807" width="214" height="262" xlink:href="img/1.png"/>
<path d="M71.6,814.5l1.7,247l200.6,-3.6L272.6,811.3Z" class="g3_130"/>
<image clip-path="url(#c2_130)" preserveAspectRatio="none" x="60" y="803" width="224" height="269" xlink:href="img/2.png"/>
<image clip-path="url(#c3_130)" preserveAspectRatio="none" x="60" y="803" width="224" height="269" xlink:href="img/3.png"/>
<path d="M65,821.3l14.5,244L247,1053l31.4,-21.2L265.5,806.7Z" class="g4_130"/>
<path d="M247.3,1053.9l31.4,-21.8l-10.6,-10.5Z" class="g5_130"/>
<path d="M392.6,764.5c18.1,-.8,32.7,-6.2,35.9,-13.2m-.7,-6.9c-4.4,-6.5,-19,-11.5,-36.7,-11.9m-7.4,0c-18.1,.8,-32.7,6.2,-35.9,13.2m.7,6.9c4.4,6.6,19,11.5,36.7,11.9" class="g6_130"/>
<path d="M429,750c.1,-.5,.1,-1,.1,-1.5c0,-.5,0,-1,-.1,-1.5M389.6,732.4c-.5,0,-1,0,-1.4,0c-.5,0,-1,0,-1.5,0M347.3,747c-.1,.5,-.1,1,-.1,1.5c0,.5,0,1,.1,1.5m39.4,14.6c.5,0,1,0,1.5,0c.4,0,.9,0,1.4,0" class="g7_130"/>
<path d="M347,754.1c0,0,-53.6,-4.2,-90.8,69.4" class="g8_130"/>
<path d="M260.2,824.6l-7.6,-4.5l-1.8,12Z" class="g9_130"/>
<path d="M145.1,1065.2c0,0,-13,0,-13,13v111.1c0,0,0,13,13,13H832.9c0,0,13,0,13,-13V1078.2c0,0,0,-13,-13,-13Z" class="g1_130"/>
<path d="M145.1,1065.2c0,0,-13,0,-13,13v111.1c0,0,0,13,13,13H832.9c0,0,13,0,13,-13V1078.2c0,0,0,-13,-13,-13H145.1Z" class="g2_130"/>
<path d="M573.8,1216.2c0,0,-4.3,0,-4.3,4.3v10.8c0,0,0,4.3,4.3,4.3h30.3c0,0,4.3,0,4.3,-4.3v-10.8c0,0,0,-4.3,-4.3,-4.3Z" class="ga_130"/>
<path d="M560.6,1208.7v34.8m1.4,1H845.1m1,-1.4v-34.8m-1.4,-1H561.6" class="gb_130"/>
<path d="M560.6,1243.9v.6h.6m284.3,0h.6v-.6m0,-36v-.6h-.6m-284.3,0h-.6v.6" class="gc_130"/>
<path d="M209.6,457.8c0,0,-12.9,0,-12.9,13v47.6c0,0,0,13,12.9,13h602c0,0,13,0,13,-13V470.8c0,0,0,-13,-13,-13Z" class="gd_130"/>
<image clip-path="url(#c4_130)" preserveAspectRatio="none" x="153" y="454" width="75" height="76" xlink:href="img/4.png"/>
<path d="M204.4,524c0,0,-26.8,11.3,-51.1,-12.7c0,0,15.2,25.3,49.3,23.9c0,0,24.8,.4,20.3,-10.1c0,0,1.2,-4.4,-18.5,-1.1Z" class="gd_130"/>
<image clip-path="url(#c5_130)" preserveAspectRatio="none" x="62" y="550" width="225" height="242" xlink:href="img/5.png"/>
<path d="M67.5,568.3l12,217.5L281.6,771.6L268.1,554.5Z" class="g3_130"/>
<g clip-path="url(#c6_130)">
<image preserveAspectRatio="none" x="67" y="551" width="218" height="236" xlink:href="img/6.png"/>
<image preserveAspectRatio="none" x="67" y="551" width="218" height="236" xlink:href="img/7.png"/>
</g>
<path d="M72.4,560.7L79,780.9l167.9,-5l32.4,-26.7l-6,-194.4Z" class="g4_130"/>
<path d="M246.5,776.1L279,750.2L267.7,741Z" class="g5_130"/>
<path d="M361.7,600.4C354.4,584.1,322.9,525.8,246,531.3m-7.4,1.8c-3,2.7,.7,7.7,4.6,7.3m4.9,-5.5c.1,-4.3,-6,-9,-20.1,-9.6m-7.9,.2c-23.9,1.8,-75.5,16.2,-110,36" class="g8_130"/>
<path d="M363.4,604.7c0,0,-.2,-.5,-.6,-1.5M244.5,531.4c-.5,.1,-1,.1,-1.5,.2c-.6,0,-1.1,.1,-1.6,.2m3.3,8.2c.4,-.2,.9,-.5,1.3,-.9c.4,-.4,.8,-.8,1.1,-1.2M226.4,525.3c-.6,0,-1.1,0,-1.6,0c-.5,0,-1,0,-1.6,0m-114.4,37c-.5,.3,-.9,.5,-1.4,.8" class="ge_130"/>
<path d="M384.8,635.3c14.5,-.9,26.1,-6.3,28.6,-13.2m-.6,-6.9c-3.5,-6.5,-15.2,-11.3,-29.4,-11.9m-7.2,0c-14.4,.9,-26,6.3,-28.5,13.2m.6,6.9c3.5,6.5,15.2,11.4,29.4,11.9" class="g6_130"/>
<path d="M413.8,620.7c.1,-.4,.1,-.9,.1,-1.4c0,-.5,0,-.9,-.1,-1.4M382,603.2c-.5,0,-1,0,-1.5,0c-.4,0,-.9,0,-1.4,0m-31.8,14.7c-.1,.5,-.1,.9,-.1,1.4c0,.5,0,1,.1,1.4m31.8,14.7c.5,0,1,0,1.4,0c.5,0,1,0,1.5,0" class="g7_130"/>
<path d="M118.7,562l-4.4,-7.6l-7.6,9.5Z" class="g9_130"/>
<path d="M210.2,1104.4c0,0,-13,0,-13,13v21.7c0,0,0,12.9,13,12.9H812.1c0,0,13,0,13,-12.9v-21.7c0,0,0,-13,-13,-13Z" class="gd_130"/>
<image clip-path="url(#c7_130)" preserveAspectRatio="none" x="153" y="1075" width="75" height="76" xlink:href="img/8.png"/>
<path d="M205,1144.7c0,0,-26.9,11.3,-51.1,-12.8c0,0,15.1,25.3,49.2,24c0,0,24.8,.3,20.3,-10.1c0,0,1.2,-4.5,-18.4,-1.1Z" class="gd_130"/>
<path d="M131.7,401.3v39l11.7,10.3V406.4Z" class="gf_130"/>
<path d="M131.7,401.3v39H829.5c0,0,16.8,0,16.8,-16.8v-5.4c0,0,0,-16.8,-16.8,-16.8Z" class="ga_130"/>
<path d="M781,434.9c8.2,0,14.8,-6.5,14.8,-14.5c0,-8,-6.6,-14.5,-14.8,-14.5c-8.3,0,-14.9,6.5,-14.9,14.5c0,8,6.6,14.5,14.9,14.5Z" class="gg_130"/>
<path d="M781,434.9c8.2,0,14.8,-6.5,14.8,-14.5c0,-8,-6.6,-14.5,-14.8,-14.5c-8.3,0,-14.9,6.5,-14.9,14.5c0,8,6.6,14.5,14.9,14.5Z" class="gh_130"/>
<path d="M781,425.8c3,0,5.4,-2.4,5.4,-5.4c0,-2.9,-2.4,-5.3,-5.4,-5.3c-3.1,0,-5.5,2.4,-5.5,5.3c0,3,2.4,5.4,5.5,5.4Z" class="g1_130"/>
<path d="M781,425.8c3,0,5.4,-2.4,5.4,-5.4c0,-2.9,-2.4,-5.3,-5.4,-5.3c-3.1,0,-5.5,2.4,-5.5,5.3c0,3,2.4,5.4,5.5,5.4Z" class="gi_130"/>
<g clip-path="url(#c8_130)" opacity="0.3">
<path d="M766.4,419.6c0,0,-.1,-4.8,3.6,-8.6l7.8,6.7c0,0,-1,.9,-1.1,2.7Z" class="g1_130"/>
</g>
<path d="M785.6,420.3c0,0,-3.5,0,-3.5,3.5v8.7c0,0,0,3.4,3.5,3.4H829c0,0,3.5,0,3.5,-3.4v-8.7c0,0,0,-3.5,-3.5,-3.5Z" class="gj_130"/>
<path d="M169.5,411.4c0,-8.3,-6.7,-15.1,-15,-15.1c-8.4,0,-15.1,6.8,-15.1,15.1c0,8.3,6.8,15,15.1,15c.8,0,1.6,0,2.4,-.2l4.5,5.3v-6.8c4.8,-2.5,8.1,-7.5,8.1,-13.3Z" class="g1_130"/>
<path d="M161.8,432.7l-5.1,-6c-.7,.1,-1.5,.2,-2.2,.2c-8.6,0,-15.6,-7,-15.6,-15.5c0,-8.6,7,-15.5,15.6,-15.5c8.5,0,15.5,6.9,15.5,15.5c0,5.7,-3.1,10.9,-8.2,13.6Zm-4.7,-7l3.8,4.5v-5.7l.3,-.2c4.8,-2.5,7.9,-7.4,7.9,-12.9c0,-8.1,-6.6,-14.6,-14.6,-14.6c-8.1,0,-14.6,6.5,-14.6,14.6c0,8,6.5,14.6,14.6,14.6c.7,0,1.5,-.1,2.3,-.2Z" class="gk_130"/>
<path d="M147.4,410.9c.8,0,1.5,.7,1.5,1.5c0,.8,-.7,1.4,-1.5,1.4c-.7,0,-1.4,-.6,-1.4,-1.4c0,-.8,.7,-1.5,1.4,-1.5Z" class="gl_130"/>
<path d="M147.4,414.3c-1,0,-1.8,-.9,-1.8,-1.9c0,-1.1,.8,-1.9,1.8,-1.9c1.1,0,1.9,.8,1.9,1.9c0,1,-.8,1.9,-1.9,1.9m0,-2.9c-.5,0,-.9,.4,-.9,1c0,.5,.4,1,.9,1c.6,0,1,-.5,1,-1c0,-.6,-.4,-1,-1,-1Z" class="gk_130"/>
<path d="M154.5,410.9c.8,0,1.4,.7,1.4,1.5c0,.8,-.6,1.4,-1.4,1.4c-.8,0,-1.5,-.6,-1.5,-1.4c0,-.8,.7,-1.5,1.5,-1.5Z" class="gl_130"/>
<path d="M154.5,414.3c-1.1,0,-1.9,-.9,-1.9,-1.9c0,-1.1,.8,-1.9,1.9,-1.9c1,0,1.9,.8,1.9,1.9c0,1,-.9,1.9,-1.9,1.9m0,-2.9c-.6,0,-1,.4,-1,1c0,.5,.4,1,1,1c.5,0,.9,-.5,.9,-1c0,-.6,-.4,-1,-.9,-1Z" class="gk_130"/>
<path d="M161.5,410.9c.8,0,1.4,.7,1.4,1.5c0,.8,-.6,1.4,-1.4,1.4c-.8,0,-1.5,-.6,-1.5,-1.4c0,-.8,.7,-1.5,1.5,-1.5Z" class="gl_130"/>
<path d="M161.5,414.3c-1.1,0,-1.9,-.9,-1.9,-1.9c0,-1.1,.8,-1.9,1.9,-1.9c1,0,1.9,.8,1.9,1.9c0,1,-.9,1.9,-1.9,1.9m0,-2.9c-.6,0,-1,.4,-1,1c0,.5,.4,1,1,1c.5,0,1,-.5,1,-1c0,-.6,-.5,-1,-1,-1Z" class="gk_130"/>
<path d="M163.4,425.6c0,-9.7,7.9,-17.6,17.6,-17.6c9.7,0,17.6,7.9,17.6,17.6c0,9.7,-7.9,17.6,-17.6,17.6c-.9,0,-1.9,-.1,-2.8,-.2l-5.3,6.1v-7.8c-5.6,-3,-9.5,-8.9,-9.5,-15.7Z" class="gm_130"/>
<path d="M172.9,449.6c0,0,-.1,0,-.1,-.1c-.2,0,-.3,-.2,-.3,-.4v-7.6c-5.9,-3.1,-9.6,-9.2,-9.6,-15.9c0,-10,8.2,-18.1,18.1,-18.1c10,0,18.1,8.1,18.1,18.1c0,10,-8.1,18.1,-18.1,18.1c-.8,0,-1.7,-.1,-2.6,-.2l-5.1,5.9c-.1,.1,-.2,.2,-.4,.2M181,408.5c-9.4,0,-17.1,7.6,-17.1,17.1c0,6.5,3.5,12.3,9.2,15.3c.2,0,.3,.2,.3,.4v6.6l4.4,-5.2c.1,-.1,.3,-.2,.5,-.2c.9,.2,1.8,.3,2.7,.3c9.5,0,17.2,-7.7,17.2,-17.2c0,-9.5,-7.7,-17.1,-17.2,-17.1Z" class="gk_130"/>
<path d="M189.2,425.1c.9,0,1.7,.8,1.7,1.7c0,.9,-.8,1.7,-1.7,1.7c-.9,0,-1.7,-.8,-1.7,-1.7c0,-.9,.8,-1.7,1.7,-1.7Z" class="g1_130"/>
<path d="M189.2,428.9c-1.2,0,-2.1,-.9,-2.1,-2.1c0,-1.2,.9,-2.1,2.1,-2.1c1.2,0,2.1,.9,2.1,2.1c0,1.2,-.9,2.1,-2.1,2.1m0,-3.3c-.7,0,-1.2,.5,-1.2,1.2c0,.7,.5,1.2,1.2,1.2c.7,0,1.2,-.5,1.2,-1.2c0,-.7,-.5,-1.2,-1.2,-1.2Z" class="gk_130"/>
<path d="M181,425.1c.9,0,1.7,.8,1.7,1.7c0,.9,-.8,1.7,-1.7,1.7c-.9,0,-1.7,-.8,-1.7,-1.7c0,-.9,.8,-1.7,1.7,-1.7Z" class="g1_130"/>
<path d="M181,428.9c-1.2,0,-2.1,-.9,-2.1,-2.1c0,-1.2,.9,-2.1,2.1,-2.1c1.2,0,2.1,.9,2.1,2.1c0,1.2,-.9,2.1,-2.1,2.1m0,-3.3c-.7,0,-1.2,.5,-1.2,1.2c0,.7,.5,1.2,1.2,1.2c.7,0,1.2,-.5,1.2,-1.2c0,-.7,-.5,-1.2,-1.2,-1.2Z" class="gk_130"/>
<path d="M172.8,425.1c.9,0,1.7,.8,1.7,1.7c0,.9,-.8,1.7,-1.7,1.7c-.9,0,-1.7,-.8,-1.7,-1.7c0,-.9,.8,-1.7,1.7,-1.7Z" class="g1_130"/>
<path d="M172.8,428.9c-1.2,0,-2.1,-.9,-2.1,-2.1c0,-1.2,.9,-2.1,2.1,-2.1c1.2,0,2.1,.9,2.1,2.1c0,1.2,-.9,2.1,-2.1,2.1m0,-3.3c-.7,0,-1.2,.5,-1.2,1.2c0,.7,.5,1.2,1.2,1.2c.7,0,1.2,-.5,1.2,-1.2c0,-.7,-.5,-1.2,-1.2,-1.2Z" class="gk_130"/>
<image clip-path="url(#c9_130)" x="162" y="555" width="6" height="9" xlink:href="shade/1.png"/>
<image clip-path="url(#ca_130)" x="162" y="529" width="24" height="28" xlink:href="shade/2.png"/>
<image clip-path="url(#cb_130)" x="161" y="531" width="24" height="33" xlink:href="shade/3.png"/>
<image clip-path="url(#cc_130)" x="167" y="527" width="20" height="10" xlink:href="shade/4.png"/>
<image clip-path="url(#cd_130)" x="168" y="800" width="5" height="10" xlink:href="shade/5.png"/>
<image clip-path="url(#ce_130)" x="167" y="774" width="24" height="28" xlink:href="shade/6.png"/>
<image clip-path="url(#cf_130)" x="167" y="776" width="23" height="34" xlink:href="shade/7.png"/>
<image clip-path="url(#cg_130)" x="172" y="772" width="20" height="10" xlink:href="shade/8.png"/>
<path d="M32.1,179.3H967.5V32.1H32.1V179.3Z" class="gn_130"/>
<path d="M262.3,134H247.1l1.2,1.2h11.8v8.2L258.5,142c.2,-.6,.3,-1.3,.3,-1.9c0,-.8,-.2,-1.6,-.6,-2.2c-.3,-.5,-.6,-.9,-1,-1.2c-.5,-.3,-.9,-.6,-1.4,-.7c-.3,-.1,-.6,-.2,-.9,-.2c-.7,0,-1.3,.2,-2,.7c-.3,.2,-.5,.5,-.7,.8c-.1,.3,-.2,.6,-.2,.9c0,.4,0,.7,.2,.9c.3,.5,.7,.7,1.2,.8c.6,.1,1.1,0,1.5,-.3c.2,-.2,.4,-.4,.6,-.6c.1,-.3,.2,-.5,.2,-.8c0,-.3,-.1,-.6,-.4,-1c.3,-.1,.5,-.1,.7,0c.2,0,.5,.1,.8,.3c.1,.2,.3,.4,.5,.7c.2,.3,.3,.6,.4,.9c.1,.3,.1,.5,.1,.7c0,.6,-.2,1.1,-.5,1.7c-.4,.8,-1.4,1.3,-2.8,1.3c-.5,0,-1.1,-.2,-1.6,-.5c-.6,-.3,-1.1,-.8,-1.5,-1.4c-.5,-.5,-.9,-1.2,-1.2,-2c-.4,-.8,-.7,-1.7,-.9,-2.7l-.7,-.3c.1,1,.3,2,.6,2.9c.2,.9,.5,1.7,.9,2.3c.3,.5,.7,1,1,1.5c.4,.4,.8,.8,1.2,1.1c.4,.3,.8,.6,1.2,.7c.5,.2,.9,.3,1.3,.3c.7,0,1.3,-.2,1.9,-.4c.5,-.3,1,-.7,1.3,-1.2c1.4,.9,2.4,2.4,2.9,4.5v-.1l.4,.3V135.2h2.2L262.3,134Zm13.4,1.2l-.6,-.5l-.7,-.7H261.9l1.2,1.2c2.9,0,4.3,0,4.4,0l.1,.1c0,0,0,.1,0,.3c0,.1,0,.3,0,.5c0,.1,-.1,.3,-.1,.5c-.1,.2,-.1,.4,-.2,.5c-.1,.2,-.2,.5,-.4,.8c-.2,.3,-.6,.5,-1,.5c-.3,0,-.5,0,-.6,-.2c-.2,-.1,-.4,-.3,-.5,-.5l-.5,.8c.1,.2,.3,.3,.4,.5c.2,.2,.3,.4,.5,.5c.2,.2,.4,.3,.7,.4c.2,.2,.4,.2,.6,.2c.6,0,1.1,-.4,1.6,-1.2c.5,-.7,.8,-1.4,.9,-2c.1,.7,.4,1.4,1,2c.3,.3,.6,.5,.9,.7c.3,.1,.6,.2,.8,.3c.3,0,.5,0,.7,0c.2,0,.4,0,.5,-.1c.2,0,.3,-.1,.5,-.2c.4,-.3,.6,-.6,.8,-1c.1,-.4,.2,-.9,.2,-1.3c0,-.2,0,-.4,0,-.6c0,-.2,-.1,-.4,-.1,-.6c-.1,-.2,-.1,-.4,-.2,-.6c-.1,-.1,-.2,-.2,-.2,-.3h1.8Zm-5.6,2.3c-.1,-.2,-.2,-.3,-.3,-.5c0,-.2,-.1,-.4,-.2,-.6c0,-.2,-.1,-.4,-.1,-.7c0,-.2,0,-.3,0,-.5h3.1c.3,.1,.5,.3,.6,.5c0,.1,.1,.3,.1,.5c0,.2,.1,.3,.1,.5c0,.1,0,.3,0,.4c0,.7,-.5,1.1,-1.6,1.1c-.7,0,-1.2,-.2,-1.7,-.7Zm2.9,2.1c-.2,-.1,-.3,-.1,-.5,-.1c-.1,0,-.3,.1,-.4,.1l-.1,.1c-.8,.4,-1.5,.9,-2.3,1.4c-.7,.6,-1.6,1.1,-2.4,1.7l1.1,1.5c.5,0,.9,.1,1.3,.1c.4,.1,.7,.3,1,.5c.3,.2,.6,.6,1.1,1.3c.4,.6,.8,1,1.2,1.2v-7.8Zm-1.1,5.6c-.8,-1.1,-1.8,-1.7,-2.8,-1.9c1,-.8,2,-1.4,2.8,-1.9v3.8Zm16,-13.3c-2.3,-2.4,-4.7,-3.6,-7.3,-3.6c-1,0,-2,.4,-3,1.2c-1.1,.9,-1.7,1.8,-1.7,2.7c0,.4,.2,.7,.5,1l.8,.8h-3.1l1.1,1.2H277v11.3l1.3,1.2V135.2h2.1L279.1,134h-1.3l-.4,-1.1c0,-.9,.6,-1.6,1.6,-2.3c1,-.7,1.9,-1,2.8,-1c.6,0,1.2,.1,1.8,.2c.5,.2,1.1,.4,1.6,.7c.6,.4,1.2,.7,1.6,1c.5,.4,.9,.7,1.3,1l-.2,-.6Zm5.3,3.3L292,134H278.8l1.2,1.2h4.6c-.1,1.7,-.6,2.5,-1.5,2.6c-.2,-.2,-.4,-.3,-.6,-.4c-.2,-.2,-.4,-.3,-.5,-.4c-.1,.1,-.1,.3,-.2,.4c0,.2,-.1,.3,-.2,.5c.4,.5,.8,.9,1.2,1.1c.3,.3,.6,.4,.9,.4c.3,0,.5,-.1,.8,-.3c.2,-.2,.4,-.5,.7,-.8c.1,-.3,.3,-.6,.4,-.9c.1,-.4,.2,-.7,.3,-1h.1c0,1.2,.8,2.2,2.3,2.8c-1.6,.4,-2.4,1.2,-2.4,2.4c0,.5,.2,1,.6,1.4c.3,.4,.8,.6,1.3,.6c.5,0,.9,-.2,1.3,-.5c.3,-.3,.5,-.7,.5,-1.2c0,-.5,-.2,-1,-.5,-1.4h.3c.5,0,.9,.2,1.2,.6c.4,.3,.5,.8,.5,1.3c0,.8,-.3,1.4,-1,1.9c-.7,.5,-1.4,.7,-2.3,.7c-1.7,0,-3.3,-1,-4.7,-3.1c-.6,-.9,-1.6,-2.7,-2.8,-5.6v.1c-.1,-.1,-.2,-.1,-.3,-.2c-.1,-.1,-.2,-.1,-.2,-.2c.2,1.2,.5,2.4,.9,3.6c.4,1.2,1,2.3,1.5,3.3c.8,1.3,1.7,2.3,2.6,3c.9,.7,1.9,1,2.9,1c.6,0,1.2,-.1,1.8,-.3c.5,-.2,1,-.4,1.4,-.8c.4,-.3,.7,-.8,.9,-1.3c.2,-.5,.3,-1.1,.4,-1.7c-.1,-1.7,-.9,-2.9,-2.4,-3.4c.6,-.2,1,-.5,1.3,-1c.3,-.6,.4,-1.1,.4,-1.7c0,-.6,-.2,-1.1,-.6,-1.5h2.3Zm-4.3,2.5c-.7,0,-1.2,-.3,-1.7,-.7c-.4,-.5,-.7,-1.1,-.7,-1.7h3.2c.2,0,.5,.1,.6,.4c.1,.3,.2,.5,.2,.8c0,.8,-.6,1.2,-1.6,1.2ZM306.8,134c-.6,0,-1.1,.2,-1.5,.4c-.5,.3,-.9,.5,-1.3,.8c-.8,.8,-1.4,1.8,-1.8,2.8c-.5,1,-.7,2.1,-.7,3.3c0,1.5,.3,2.8,.9,3.9c.8,1.4,1.8,2.1,3.2,2.1c.3,0,.6,0,.8,-.1c.3,-.1,.5,-.2,.7,-.4c.2,-.2,.4,-.4,.5,-.7c.1,-.2,.2,-.5,.2,-.8c0,-.4,-.2,-.9,-.4,-1.2c-.3,-.3,-.7,-.5,-1.1,-.5c-.2,0,-.3,.1,-.5,.1c-.2,.1,-.4,.2,-.5,.3c-.1,.2,-.2,.3,-.3,.4c-.1,.2,-.2,.4,-.2,.6c0,.2,.1,.4,.2,.7c.2,.2,.3,.4,.6,.6c0,0,-.1,.1,-.2,.1h-.1c-.8,0,-1.4,-.5,-1.9,-1.4c-.5,-.7,-.7,-1.5,-.7,-2.3c0,-1,.1,-1.9,.3,-2.7c.2,-.7,.5,-1.4,.9,-2.1c.5,-.7,1.1,-1.3,1.7,-1.7c.7,-.5,1.5,-.8,2.4,-1L306.8,134Zm14.1,1.2L319.7,134c-.1,0,-.3,0,-.4,0c-.4,0,-.7,-.2,-.9,-.6c0,-.2,-.1,-.6,-.2,-1.2l-.5,-.5c0,1.1,.1,2.2,.1,3.2c.1,1.1,.1,2.1,.2,3.2h-.1c-1.5,-2.6,-3.1,-3.9,-4.9,-3.9c-.4,0,-.9,.1,-1.4,.3c-.5,.1,-1,.4,-1.6,.7c-.5,.4,-.9,.8,-1.2,1.2c-.4,.4,-.5,.9,-.5,1.3c0,.2,.1,.5,.3,.7c.2,.2,.4,.3,.6,.3c.2,0,.5,-.1,.9,-.3c.2,-.1,.4,-.1,.5,-.2c.1,0,.2,0,.3,0c.5,0,.8,.4,.8,1.2c0,.5,-.4,1.1,-1.3,1.9l1.7,.6l4.3,-4.2c.1,.1,.2,.2,.4,.4c.2,.2,.3,.4,.5,.6c.1,.3,.3,.5,.3,.7c.1,.3,.2,.5,.2,.6l-.2,6.4l1.3,1.3V135.2h2Zm-8.5,4.2c.1,-.7,-.1,-1.2,-.4,-1.6c-.2,-.5,-.7,-.7,-1.4,-.7c.6,-1.1,1.5,-1.6,2.8,-1.6c.7,0,1.4,.3,1.9,.9l-2.9,3ZM327,134h-7.9l1.1,1.2h4c-1.7,2,-2.5,4,-2.5,6.1c0,1.5,.3,2.8,.9,3.9c.8,1.4,1.8,2.1,3.2,2.1c.3,0,.6,0,.9,-.1c.2,-.1,.5,-.2,.7,-.4c.2,-.2,.3,-.4,.4,-.7c.1,-.2,.2,-.5,.2,-.8c0,-.4,-.1,-.9,-.4,-1.2c-.3,-.3,-.7,-.5,-1.1,-.5c-.3,0,-.7,.2,-1,.4c-.3,.3,-.4,.6,-.4,1c0,.2,0,.4,.1,.7c.2,.2,.4,.4,.6,.6c-.7,.2,-1.4,-.2,-2.2,-1.3c-.5,-.7,-.7,-1.5,-.7,-2.3c0,-1,.1,-1.9,.3,-2.7c.2,-.7,.5,-1.4,1,-2.1c.4,-.7,1,-1.3,1.6,-1.7c.7,-.5,1.5,-.8,2.4,-1L327,134Zm11.7,1.2L337.5,134H326.4c.6,1,1.7,1.7,3.3,2.2c.7,.2,1.2,.4,1.6,.6c.4,.2,.7,.4,.9,.6c-.6,.4,-1.1,.8,-1.8,1.4c-.6,.5,-1.2,1.1,-1.9,1.7l1.7,2.1c1.4,.1,2.6,.5,3.5,1.2c.6,.5,1.1,1.2,1.7,2.3c.6,1,1,1.6,1.4,1.8V135.2h1.9Zm-3.1,9.5h-.1c-1,-1.7,-2.5,-2.9,-4.4,-3.6c.5,-.5,.9,-1.1,1.4,-1.6c.5,-.5,1,-.9,1.5,-1.4c-.6,-.7,-1.2,-1.3,-1.7,-1.8c-.5,-.5,-.9,-.9,-1.3,-1.1h4.6v9.5Zm-4.7,2c.3,.2,.6,.3,.9,.3c.3,0,.6,-.1,.9,-.3c.2,-.3,.3,-.6,.3,-.9c0,-.3,-.1,-.6,-.3,-.9c-.3,-.2,-.6,-.3,-.9,-.3c-.3,0,-.6,.1,-.9,.3c-.2,.3,-.3,.6,-.3,.9c0,.3,.1,.6,.3,.9ZM357.3,134h-.9c-.1,-.1,-.2,-.2,-.3,-.3c-.1,-.2,-.1,-.3,-.2,-.4l-.1,-.8l-.6,-.7v13.1c-.2,-.4,-.4,-.7,-.7,-1c-.3,-.4,-.7,-.7,-1.1,-1c-.2,-.2,-.5,-.4,-.9,-.7c-.4,-.2,-.9,-.5,-1.5,-.8c2,-1.2,3,-2.6,3,-4.1c0,-.9,-.3,-1.6,-.9,-2.3c-.6,-.7,-1.4,-1,-2.3,-1c-.9,0,-1.8,.3,-2.7,.8c-.9,.7,-1.4,1.5,-1.4,2.4c0,.5,.1,.9,.4,1.2c.3,.3,.7,.5,1.2,.5c.2,0,.3,0,.5,-.1c.2,-.1,.4,-.2,.5,-.3c.2,-.1,.3,-.2,.4,-.4c0,-.1,.1,-.3,.1,-.5c0,-.3,-.2,-.7,-.7,-1.2c.2,-.2,.5,-.5,1,-.8c.5,-.2,.9,-.4,1.2,-.4c.4,0,.8,.2,1.1,.5c.3,.3,.4,.6,.4,1.1c0,.4,-.1,.8,-.4,1.2c-.3,.4,-.8,.8,-1.4,1.2c-.6,.3,-1.1,.6,-1.6,.7c-.5,.2,-1,.3,-1.2,.3c-.3,0,-.6,0,-1,0l2,2.5c.7,0,1.5,.1,2.3,.4c.7,.2,1.4,.6,2,1.1c.2,.2,.6,.6,1.1,1.2c.4,.6,1,1.4,1.8,2.4V135.2h2.1L357.3,134Zm5.8,1.2L361.9,134h-1.1c-.3,-.4,-.6,-1,-.7,-1.9l-.5,-.3c0,.2,.1,.5,.1,.9c0,.3,0,.7,0,1.2c.1,.5,.1,.9,.1,1.3c0,.3,0,.6,0,.9c-.2,-.8,-.5,-1.3,-.9,-1.6c-.4,-.3,-1,-.5,-1.7,-.5h-1.4l1.2,1.2c.4,0,.7,.1,1,.2c.3,.1,.6,.3,.9,.5c.2,.2,.4,.4,.6,.7c.1,.3,.2,.7,.2,1v8.9l1.1,1.2V135.2h2.3Zm14.4,0L376.2,134H361.1l1.2,1.2h7.8v1c-2.6,.8,-4.9,2.1,-7,3.7l1.7,2.1c1.4,.1,2.6,.7,3.7,1.8c.4,.5,.9,1,1.3,1.6c.3,.7,.7,1.3,1,2c0,.1,.1,.1,.1,.2c.1,0,.2,.1,.3,.1v-10c1.2,0,2.1,.3,2.8,1c.6,.7,1,1.4,1,2.2l-.1,.3c-.2,-.2,-.4,-.3,-.6,-.4c-.2,-.2,-.4,-.2,-.6,-.2c-.4,0,-.8,.1,-1,.4c-.3,.2,-.4,.5,-.4,.9c0,.2,0,.4,.1,.6c.1,.2,.2,.3,.4,.5c.1,.1,.3,.2,.5,.3c.2,.1,.3,.1,.5,.1c.3,0,.6,-.1,.8,-.2c.3,-.1,.5,-.3,.7,-.5c.1,-.2,.3,-.4,.4,-.7c.1,-.3,.1,-.5,.1,-.8c0,-1.3,-.4,-2.4,-1.2,-3.4c-.9,-1.2,-2,-1.7,-3.4,-1.7v-.9h6.3Zm-7.5,9.1c-1,-1.8,-2.5,-3.1,-4.5,-4c.8,-.5,1.6,-1,2.3,-1.4c.8,-.4,1.5,-.8,2.2,-1.1v6.5ZM383.6,134h-7.9l1.2,1.2h3.9c-1.7,2,-2.5,4,-2.5,6.1c0,1.5,.3,2.8,.9,3.9c.8,1.4,1.8,2.1,3.2,2.1c.3,0,.6,0,.9,-.1c.2,-.1,.5,-.2,.7,-.4c.2,-.2,.3,-.4,.4,-.7c.2,-.2,.2,-.5,.2,-.8c0,-.4,-.1,-.9,-.4,-1.2c-.3,-.3,-.6,-.5,-1,-.5c-.4,0,-.8,.2,-1.1,.4c-.3,.3,-.4,.6,-.4,1c0,.2,0,.4,.2,.7c.1,.2,.3,.4,.5,.6c-.7,.2,-1.4,-.2,-2.2,-1.3c-.4,-.7,-.7,-1.5,-.7,-2.3c0,-1,.1,-1.9,.3,-2.7c.3,-.7,.6,-1.4,1,-2.1c.4,-.7,1,-1.3,1.6,-1.7c.7,-.5,1.5,-.8,2.4,-1L383.6,134Zm13.6,1.2L396,134H382.7l1.3,1.2h9.8v3.3c-.5,-1.3,-1.2,-2,-2.2,-2c-.4,0,-.7,.2,-1,.5c-.4,.3,-.5,.6,-.5,1c-.8,-1,-1.7,-1.6,-2.8,-1.6c-.8,0,-1.4,.4,-1.9,1.2c-.5,.7,-.7,1.4,-.7,2.3c0,.5,.1,1,.2,1.4c.2,.4,.4,.8,.7,1.1c.4,.3,.7,.5,1.1,.7c.5,.1,.9,.2,1.5,.2c.6,-.1,1.1,-.2,1.4,-.5c.3,-.3,.5,-.7,.5,-1.2c0,-1.1,-.5,-1.7,-1.6,-1.7c-.4,0,-.7,.1,-1,.3c-.3,.3,-.4,.6,-.4,1c0,.2,.1,.6,.4,1c-1.2,-.2,-1.7,-.8,-1.7,-1.7c0,-.3,0,-.6,.1,-.9c.2,-.3,.3,-.5,.5,-.7c.2,-.2,.5,-.4,.8,-.5c.2,-.1,.5,-.2,.8,-.2c.7,0,1.3,.2,1.8,.6c.5,.4,.9,1,1,1.6l.5,-.2c-.1,-.3,-.1,-.5,-.1,-.7c0,-.9,.3,-1.3,1,-1.3c.4,0,.8,.2,1.1,.5c.3,.3,.4,.7,.4,1.1v6.9l1.3,1.1V135.2h2.2ZM410.4,134c-.5,0,-1,.2,-1.5,.4c-.4,.3,-.9,.5,-1.3,.8c-.7,.8,-1.3,1.8,-1.8,2.8c-.4,1,-.6,2.1,-.7,3.3c0,1.5,.4,2.8,1,3.9c.7,1.4,1.8,2.1,3.2,2.1c.3,0,.6,0,.8,-.1c.3,-.1,.5,-.2,.7,-.4c.2,-.2,.4,-.4,.5,-.7c.1,-.2,.1,-.5,.1,-.8c0,-.4,-.1,-.9,-.4,-1.2c-.3,-.3,-.6,-.5,-1,-.5c-.2,0,-.4,.1,-.5,.1c-.2,.1,-.4,.2,-.5,.3c-.2,.2,-.3,.3,-.4,.4c0,.2,-.1,.4,-.1,.6c0,.2,.1,.4,.2,.7c.1,.2,.3,.4,.6,.6c-.1,0,-.2,.1,-.3,.1h-.1c-.7,0,-1.3,-.5,-1.9,-1.4c-.4,-.7,-.6,-1.5,-.6,-2.3c0,-1,.1,-1.9,.3,-2.7c.2,-.7,.5,-1.4,.9,-2.1c.5,-.7,1,-1.3,1.7,-1.7c.6,-.5,1.4,-.8,2.3,-1L410.4,134Zm13.7,1.2L422.9,134H410c.4,.4,.7,.7,.9,.9c.3,.2,.5,.4,.6,.5c.3,.2,.6,.4,.9,.6c.3,.1,.6,.2,.8,.3c.5,.1,1,.2,1.3,.3c.3,.1,.6,.2,.8,.4c.3,.2,.4,.4,.5,.7c.2,.4,.3,.8,.3,1.4c-.4,.5,-.7,.9,-1,1.3c-.2,.3,-.4,.5,-.6,.7c-.2,.2,-.3,.3,-.4,.4c-.1,0,-.2,0,-.3,0c-.1,0,-.3,0,-.4,-.1c-.2,-.1,-.3,-.3,-.4,-.4c-.1,-.2,-.1,-.4,-.2,-.6c-.1,-.2,-.1,-.3,-.2,-.5l-.8,.8c.2,.2,.3,.5,.5,.8c.2,.3,.4,.6,.6,.9c.2,.3,.5,.5,.8,.7c.3,.1,.6,.2,1,.2c.1,0,.2,0,.4,-.1c.1,0,.3,-.1,.5,-.3c.3,-.2,.5,-.5,.8,-.9c.3,-.4,.6,-.9,1,-1.6c.5,-.6,.9,-1,1.3,-1.1c.4,0,.8,.1,1.1,.4c.3,.4,.6,.9,.7,1.6c.2,.7,.3,1.6,.3,2.5v.4c0,.1,0,.3,0,.5c0,.1,0,.4,0,.7c0,.3,-.1,.6,-.1,1.1c.2,.2,.4,.4,.6,.6c.2,.3,.4,.5,.6,.7V135.2h2.2Zm-3.4,4.1c-.3,-.4,-.6,-.8,-.9,-1.1c-.3,-.4,-.6,-.6,-.9,-.7c-.3,-.1,-.6,-.1,-1,.1c-.3,.1,-.7,.4,-1.1,.8c0,-.6,-.1,-1.1,-.4,-1.6c-.2,-.5,-.7,-1,-1.3,-1.6h5.6v4.1Zm13.9,-4.1L433.4,134h-.7c0,-1.1,-.2,-2,-.6,-2.6c-.6,-.6,-1.4,-.9,-2.4,-.9c-.4,0,-.9,.1,-1.5,.1c-.3,.1,-.6,.1,-.9,.1c-.2,0,-.4,0,-.6,0c-.5,0,-.9,-.1,-1.3,-.3c-.4,-.2,-.6,-.6,-.6,-1.1c0,-.2,.1,-.4,.3,-.6c0,-.1,-.1,-.2,-.1,-.2c0,-.1,0,-.2,0,-.2c-.6,0,-.9,.5,-.9,1.4c0,.9,.5,1.6,1.3,2c.8,.5,1.6,.7,2.5,.7c.1,0,.3,0,.5,0c.1,-.1,.3,-.1,.6,-.1c.5,-.1,.9,-.1,1.1,-.1c1,0,1.5,.3,1.5,1c0,.2,0,.3,0,.4c0,.2,0,.3,0,.4h-9.1l1.1,1.2h1.9v8c.1,.9,.4,1.6,.9,2c.5,.5,1.1,.7,1.8,.7c1.2,0,2.3,-.6,3.3,-1.8c1,-1.2,1.4,-2.3,1.4,-3.5c0,-.4,0,-.7,-.1,-1.1c-.1,-.3,-.2,-.6,-.4,-.9c-.4,-.7,-1,-1,-1.7,-1c-.4,0,-.8,.2,-1.1,.5c-.2,.3,-.4,.7,-.4,1.1c0,.4,.2,.8,.5,1c.3,.3,.7,.4,1.1,.4h.4c-.1,.8,-.5,1.6,-1.2,2.5c-.7,.8,-1.5,1.3,-2.2,1.3c-.5,0,-.9,-.3,-1.1,-.8v-8.4h7.9Zm4.6,0L438.1,134H437c-.4,-.4,-.6,-1,-.8,-1.9l-.4,-.3c0,.2,0,.5,0,.9c0,.3,.1,.7,.1,1.2c0,.5,.1,.9,.1,1.3c0,.3,0,.6,0,.9c-.2,-.8,-.6,-1.3,-1,-1.6c-.4,-.3,-.9,-.5,-1.6,-.5H432l1.2,1.2c.3,0,.7,.1,1,.2c.3,.1,.6,.3,.8,.5c.3,.2,.5,.4,.6,.7c.2,.3,.2,.7,.2,1v8.9l1.2,1.2V135.2h2.2ZM452.5,134c-.6,0,-1.1,.2,-1.5,.4c-.5,.3,-.9,.5,-1.3,.8c-.8,.8,-1.4,1.8,-1.8,2.8c-.5,1,-.7,2.1,-.7,3.3c0,1.5,.3,2.8,.9,3.9c.8,1.4,1.8,2.1,3.2,2.1c.3,0,.6,0,.8,-.1c.3,-.1,.5,-.2,.7,-.4c.2,-.2,.4,-.4,.5,-.7c.1,-.2,.2,-.5,.2,-.8c0,-.4,-.2,-.9,-.4,-1.2c-.3,-.3,-.7,-.5,-1.1,-.5c-.2,0,-.3,.1,-.5,.1c-.2,.1,-.4,.2,-.5,.3c-.1,.2,-.2,.3,-.3,.4c-.1,.2,-.2,.4,-.2,.6c0,.2,.1,.4,.2,.7c.1,.2,.3,.4,.6,.6c0,0,-.1,.1,-.2,.1H451c-.8,0,-1.4,-.5,-1.9,-1.4c-.5,-.7,-.7,-1.5,-.7,-2.3c0,-1,.1,-1.9,.3,-2.7c.2,-.7,.5,-1.4,1,-2.1c.4,-.7,1,-1.3,1.6,-1.7c.7,-.5,1.5,-.8,2.3,-1L452.5,134Zm11.8,1.2L463.1,134H452c.4,.4,.8,.7,1.1,.9c.3,.3,.5,.5,.7,.7c.3,.2,.6,.4,1,.5c.4,.2,.7,.4,1.1,.5c.9,.4,1.5,.7,1.9,1c-.7,.4,-1.3,.9,-1.9,1.4c-.7,.5,-1.3,1.1,-1.8,1.6l1.6,2c1.7,.1,3,.5,3.9,1.2c.5,.4,.9,.9,1.2,1.5c.4,.6,.6,1.1,.8,1.6l.8,.9V135.2h1.9Zm-3.1,9.4c-1.1,-1.7,-2.6,-2.9,-4.6,-3.6c.6,-.5,1.1,-1.1,1.6,-1.6c.5,-.5,.9,-.9,1.4,-1.3c-1.3,-1.5,-2.4,-2.5,-3.2,-2.9h4.8v9.4Zm8.4,-9.4L468.4,134h-1.1c.1,-.2,.1,-.3,.1,-.5c0,-.1,0,-.3,0,-.4c0,-1.9,-1.2,-2.8,-3.7,-2.8c-.1,0,-.3,0,-.6,0c-.2,0,-.5,.1,-.8,.1c-.3,.1,-.6,.1,-.9,.1c-.2,0,-.4,0,-.6,0c-1.8,0,-2.7,-.5,-2.7,-1.5c0,-.4,.2,-.7,.5,-.9l-.5,-.4c-.2,.3,-.4,.6,-.5,.9c-.1,.3,-.2,.5,-.2,.7c0,1,.5,1.8,1.7,2.3c.8,.3,1.8,.5,3,.5c.3,0,.6,0,.9,-.1c.4,0,.7,0,1,0c1.5,0,2.3,.4,2.3,1.2c0,.2,-.1,.5,-.3,.8h-3.2l1.2,1.2h2v11.5l1.3,1.3V135.2h2.3Zm11.2,0L479.6,134H467.9l1.2,1.2h8.4v6.6c-1.3,-2.6,-2.8,-4,-4.5,-4c-.8,0,-1.5,.3,-2.1,.9c-.6,.5,-.8,1.2,-.8,2c0,1.5,.7,2.2,2.3,2.2c.5,0,.9,-.2,1.2,-.5c.3,-.4,.4,-.8,.4,-1.3c0,-.3,-.3,-.8,-.8,-1.5c.1,-.1,.2,-.1,.4,-.1c1.2,0,2.3,.8,3.3,2.5c.6,1.4,1,2.9,.9,4.2v1.3l.9,.6V135.2h2.1Zm18,-1.2H486.7l1.2,1.2h4.2c.6,.4,.8,.7,.8,1c-.7,0,-1.3,.3,-1.9,.8c-.6,.5,-.9,1.1,-.9,1.8c0,.4,.2,.7,.5,.9c.3,.2,.6,.3,1,.3c.5,0,1.1,-.2,1.6,-.7c.4,-.5,.7,-1,.7,-1.6c.1,0,.2,-.1,.3,-.1c.2,0,.3,0,.5,0c.1,0,.3,.1,.5,.2c.2,.1,.4,.2,.5,.4c.2,.2,.3,.4,.4,.7c0,.2,.1,.5,.1,.7c0,.8,-.5,1.5,-1.4,2c-.8,.3,-1.6,.5,-2.5,.4c-1.3,-.1,-2.4,-.4,-3.4,-1l1.5,3c.8,.2,1.7,.5,2.6,.9c.9,.3,1.7,.7,2.5,1.2c.9,.5,1.6,1,2.3,1.5c.7,.6,1.3,1.2,1.9,1.9l-.3,-1.3c-1,-1.1,-2,-2,-3,-2.8c-.9,-.8,-1.7,-1.4,-2.6,-1.9c1.3,-.3,2.1,-.7,2.7,-1.2c.8,-.6,1.2,-1.4,1.2,-2.4c0,-1,-.3,-1.8,-1,-2.5c-.4,-.5,-1.2,-.9,-2.4,-1.3c-.1,-.2,-.2,-.3,-.3,-.5c-.1,-.1,-.3,-.2,-.4,-.4H500L498.8,134Zm11.4,1.2L509,134H497.9c.6,1,1.7,1.7,3.3,2.2c.7,.2,1.2,.4,1.6,.6c.5,.2,.7,.4,.9,.6c-.6,.4,-1.1,.8,-1.7,1.4c-.7,.5,-1.3,1.1,-1.9,1.7l1.6,2.1c1.4,.1,2.6,.5,3.5,1.2c.6,.5,1.2,1.2,1.8,2.3c.5,1,.9,1.6,1.3,1.8V135.2h1.9Zm-3.1,9.5c-1.1,-1.7,-2.6,-2.9,-4.5,-3.6c.5,-.5,1,-1.1,1.4,-1.6c.5,-.5,1,-.9,1.5,-1.4c-.6,-.7,-1.2,-1.3,-1.7,-1.8c-.5,-.5,-.9,-.9,-1.3,-1.1h4.6v9.5Zm-4.6,2c.2,.2,.5,.3,.8,.3c.4,0,.6,-.1,.9,-.3c.2,-.3,.4,-.6,.4,-.9c0,-.3,-.2,-.6,-.4,-.9c-.3,-.2,-.5,-.3,-.9,-.3c-.3,0,-.6,.1,-.8,.3c-.3,.3,-.4,.6,-.4,.9c0,.3,.1,.6,.4,.9Zm19.1,-11.5L520.4,134H508.7l1.1,1.2H518v.9c-2.5,.8,-4.9,2.1,-7.3,3.7l1.6,2.3h-.1c1.7,.1,3.1,.7,4.1,1.6c.3,.3,.6,.6,.9,1c.4,.4,.6,.8,.8,1c.1,.3,.3,.7,.5,1.3l.7,.8V135.2h2.4Zm-3.6,9.4c-1,-1.8,-2.7,-3.2,-4.8,-4.1c.9,-.6,1.7,-1.1,2.5,-1.5c.8,-.4,1.6,-.7,2.3,-1v6.6Zm-4.7,1.7c.3,.3,.6,.4,.9,.4c.3,0,.6,-.1,.9,-.4c.2,-.2,.3,-.5,.3,-.8c0,-.4,-.1,-.7,-.3,-.9c-.3,-.3,-.6,-.4,-.9,-.4c-.3,0,-.6,.1,-.9,.4c-.2,.2,-.3,.5,-.3,.9c0,.3,.1,.6,.3,.8ZM526,135.2L524.9,134h-1.1c-.4,-.4,-.6,-1,-.8,-1.9l-.4,-.3c0,.2,0,.5,0,.9c0,.3,.1,.7,.1,1.2c0,.5,.1,.9,.1,1.3c0,.3,0,.6,0,.9c-.2,-.8,-.6,-1.3,-1,-1.6c-.4,-.3,-.9,-.5,-1.7,-.5h-1.3l1.2,1.2c.3,0,.6,.1,1,.2c.3,.1,.6,.3,.8,.5c.3,.2,.5,.4,.6,.7c.2,.3,.2,.7,.2,1v8.9l1.2,1.2V135.2H526Zm11.9,-3.3c-2.3,-2.4,-4.7,-3.6,-7.3,-3.6c-1,0,-2,.4,-3,1.2c-1.1,.9,-1.7,1.8,-1.7,2.7c0,.4,.2,.7,.5,1l.8,.8h-3.1l1.1,1.2h1.9v11.3l1.2,1.2V135.2h2.1L529.2,134h-1.4l-.4,-1.1c0,-.9,.6,-1.6,1.6,-2.3c1,-.7,1.9,-1,2.8,-1c.6,0,1.2,.1,1.8,.2c.5,.2,1.1,.4,1.6,.7c.6,.4,1.2,.7,1.6,1c.5,.4,1,.7,1.3,1l-.2,-.6Zm3.7,3.3L540.4,134H528.7l1.2,1.2h8.4v6.6c-1.3,-2.6,-2.8,-4,-4.5,-4c-.8,0,-1.5,.3,-2.1,.9c-.6,.5,-.8,1.2,-.8,2c0,1.5,.7,2.2,2.3,2.2c.5,0,.9,-.2,1.2,-.5c.3,-.4,.4,-.8,.4,-1.3c0,-.3,-.2,-.8,-.8,-1.5c.1,-.1,.2,-.1,.4,-.1c1.2,0,2.4,.8,3.3,2.5c.6,1.4,1,2.9,.9,4.2v1.3l.9,.6V135.2h2.1Z" class="go_130"/>
<g clip-path="url(#c0_130)">
<path d="M1877,177.2H32.1v-5.4H768.7c43.1,0,53,-37.9,115.3,-37.9h993Z" class="gp_130"/>
<path d="M1877,183.7H32.1v-9.8H768.7c43.1,0,53,-33.6,115.3,-33.6h993Z" class="gq_130"/>
</g>
<image clip-path="url(#ch_130)" preserveAspectRatio="none" x="125" y="206" width="734" height="181" xlink:href="img/9.png"/>
<path d="M144.6,231.3c0,0,-13,0,-13,13v117c0,0,0,13,13,13H833.1c0,0,13,0,13,-13v-130Z" class="gr_130"/>
<path d="M147.7,294.1l54.1,40.8l54.1,-40.8V230h8.7V211.9H155.8c-6.5,.4,-7.7,3.9,-8.2,8.4Z" class="gs_130"/>
<path d="M274,220.3c-.3,-4.7,-4.2,-8.4,-9,-8.4c-4.8,0,-8.7,3.7,-9,8.4h-.1V230h18.2v-9.7Z" class="gj_130"/>
<path d="M255.9,230.6H846.1" class="gt_130"/>
<path d="M32.1,45.1H9.2m958.3,0h22.9M32.1,1331.3H9.2m958.3,0h22.9M45.1,32.1V9.2m0,1335.1v22.9M954.5,32.1V9.2m0,1335.1v22.9" class="gu_130"/>
<path d="M32.1,45.1H9.2m958.3,0h22.9M32.1,1331.3H9.2m958.3,0h22.9M45.1,32.1V9.2m0,1335.1v22.9M954.5,32.1V9.2m0,1335.1v22.9" class="gv_130"/>
<path d="M27.5,32.1H0m972.1,0h27.5M27.5,1344.3H0m972.1,0h27.5M32.1,27.5V0m0,1348.9v27.5M967.5,27.5V0m0,1348.9v27.5" class="gu_130"/>
<path d="M27.5,32.1H0m972.1,0h27.5M27.5,1344.3H0m972.1,0h27.5M32.1,27.5V0m0,1348.9v27.5M967.5,27.5V0m0,1348.9v27.5" class="gv_130"/>
</svg>