<?xml version="1.0" encoding="UTF-8" standalone="no"?>
<!DOCTYPE svg PUBLIC "-//W3C//DTD SVG 1.1//EN"
"http://www.w3.org/Graphics/SVG/1.1/DTD/svg11.dtd">
<svg viewBox="0 0 999 1376" version="1.1" xmlns="http://www.w3.org/2000/svg" xmlns:xlink="http://www.w3.org/1999/xlink">
<defs>
<clipPath id="c0_129"><path d="M32.1,1344.3V32.1H967.5V1344.3Z"/></clipPath>
<clipPath id="c1_129"><path d="M682.7,178.5V60.3H865.1V178.5Z"/></clipPath>
<clipPath id="c2_129"><path d="M215,450.7V350H854.2V450.7Z"/></clipPath>
<clipPath id="c3_129"><path d="M215,638.1V511.6H854.2V638.1Z"/></clipPath>
<clipPath id="c4_129"><path d="M215,830.2V703.7H854.2V830.2Z"/></clipPath>
<style type="text/css"><![CDATA[
.g0_129{
fill: #FEFCF4;
}
.g1_129{
fill: #F16865;
}
.g2_129{
fill: #6381B7;
}
.g3_129{
fill: none;
stroke: #6381B7;
stroke-width: 0.381;
stroke-dasharray: 2,1;
}
.g4_129{
fill: none;
stroke: #6381B7;
stroke-width: 0.381;
}
.g5_129{
fill: #FEF9F9;
}
.g6_129{
fill: none;
stroke: #A164A9;
stroke-width: 1.527;
stroke-linecap: round;
stroke-linejoin: round;
stroke-dasharray: 0,5;
}
.g7_129{
fill: none;
stroke: #A164A9;
stroke-width: 1.527;
stroke-linecap: round;
stroke-linejoin: round;
}
.g8_129{
fill: #A164A9;
}
.g9_129{
fill: #FFF;
}
.ga_129{
fill: none;
stroke: #231F20;
stroke-width: 0.305;
stroke-miterlimit: 10;
}
.gb_129{
fill: none;
stroke: #8CC63E;
stroke-width: 1.527;
stroke-linecap: round;
stroke-linejoin: round;
stroke-dasharray: 0,5;
}
.gc_129{
fill: none;
stroke: #8CC63E;
stroke-width: 1.527;
stroke-linecap: round;
stroke-linejoin: round;
}
.gd_129{
fill: #8CC63E;
}
.ge_129{
fill: #6CCFF6;
}
.gf_129{
fill: none;
stroke: #231F20;
stroke-width: 1.375;
stroke-miterlimit: 10;
}
.gg_129{
fill: #485E75;
}
.gh_129{
fill: #EAD646;
}
.gi_129{
fill: none;
stroke: #231F20;
stroke-width: 1.527;
}
.gj_129{
fill: none;
stroke: #FFF;
stroke-width: 1.909;
stroke-miterlimit: 10;
}
.gk_129{
fill: none;
stroke: #000;
stroke-width: 0.381;
stroke-miterlimit: 10;
}
]]></style>
</defs>
<path clip-path="url(#c0_129)" d="M-877.3,1344.3H45.1V32.1H-877.3V1344.3Z" class="g0_129"/>
<path d="M45.1,1344.3H967.5V32.1H45.1V1344.3Z" class="g0_129"/>
<path clip-path="url(#c0_129)" d="M867.9,166.7c0,0,30.3,0,30.3,-30.3v-4.3c0,0,0,-30.3,-30.3,-30.3H-735.4c0,0,-30.4,0,-30.4,30.3v4.3c0,0,0,30.3,30.4,30.3Z" class="g1_129"/>
<path d="M705.5,894.8c0,0,-4.4,0,-4.4,4.3v10.8c0,0,0,4.3,4.4,4.3h30.3c0,0,4.3,0,4.3,-4.3V899.1c0,0,0,-4.3,-4.3,-4.3Z" class="g2_129"/>
<path d="M692.3,887.3v34.8m1.3,1H866.8m.9,-1.4V886.9m-1.3,-1H693.2" class="g3_129"/>
<path d="M692.3,922.5v.6h.5m174.4,0h.5v-.6m0,-36v-.6h-.5m-174.4,0h-.5v.6" class="g4_129"/>
<image clip-path="url(#c1_129)" preserveAspectRatio="none" x="683" y="60" width="182" height="118" xlink:href="img/1.png"/>
<path d="M154.1,877.4h713V251h-713V877.4Z" class="g5_129"/>
<path d="M154.1,255.5V875.1m4.6,2.3H864.9m2.2,-4.6V253.3M862.6,251H156.4" class="g6_129"/>
<path d="M154.1,877.4v0m713.1,0v0m0,-626.4v0m-713.1,0v0" class="g7_129"/>
<path d="M153.3,265.3V227c0,0,0,-8.7,8.7,-8.7H859.3c0,0,8.6,0,8.6,8.7v38.9Z" class="g8_129"/>
<image clip-path="url(#c2_129)" preserveAspectRatio="none" x="215" y="350" width="639" height="101" xlink:href="img/2.png"/>
<path d="M218.3,444.3H848.1v-91H218.3v91Z" class="g9_129"/>
<path d="M397.8,383.1h69.1" class="ga_129"/>
<image clip-path="url(#c3_129)" preserveAspectRatio="none" x="215" y="512" width="639" height="126" xlink:href="img/3.png"/>
<path d="M218.3,631.8H848.1v-117H218.3v117Z" class="g9_129"/>
<path d="M344.9,544.6H467.4" class="ga_129"/>
<image clip-path="url(#c4_129)" preserveAspectRatio="none" x="215" y="704" width="639" height="127" xlink:href="img/4.png"/>
<path d="M218.3,823.9H848.1v-117H218.3v117Z" class="g9_129"/>
<path d="M231.3,762.7h92.4" class="ga_129"/>
<path d="M154.1,1243.9h713V1038.5h-713v205.4Z" class="g9_129"/>
<path d="M154.1,1043v198.6m4.6,2.3H864.9m2.2,-4.5V1040.7m-4.5,-2.2H156.4" class="gb_129"/>
<path d="M154.1,1243.9v0m713.1,0v0m0,-205.4v0m-713.1,0v0" class="gc_129"/>
<path d="M153.3,1043.1v-28.6c0,0,0,-8.7,8.7,-8.7H859.3c0,0,8.6,0,8.6,8.7v29.1Z" class="gd_129"/>
<path d="M187.2,1019.6v-6.4c0,-4.8,-3.9,-8.7,-8.7,-8.7c-4.8,0,-8.6,3.9,-8.6,8.7v6.4Z" class="ge_129"/>
<path d="M187.2,1019.6v-6.4c0,-4.8,-3.9,-8.7,-8.7,-8.7c-4.8,0,-8.6,3.9,-8.6,8.7v6.4h17.3Z" class="gf_129"/>
<path d="M169.9,1021.3v5.4c0,4.8,3.8,8.7,8.6,8.7c4.8,0,8.7,-3.9,8.7,-8.7v-5.4Z" class="ge_129"/>
<path d="M169.9,1021.3v5.4c0,4.8,3.8,8.7,8.6,8.7c4.8,0,8.7,-3.9,8.7,-8.7v-5.4H169.9Z" class="gf_129"/>
<path d="M178.4,1040.2c-7.1,0,-13,-5.9,-13,-13.2h2.4c0,6,4.8,10.8,10.6,10.8c5.8,0,10.6,-4.8,10.6,-10.8h2.4c0,7.3,-5.8,13.2,-13,13.2Z" class="gg_129"/>
<path d="M178.4,1040.2c-7.1,0,-13,-5.9,-13,-13.2h2.4c0,6,4.8,10.8,10.6,10.8c5.8,0,10.6,-4.8,10.6,-10.8h2.4c0,7.3,-5.8,13.2,-13,13.2Z" class="gf_129"/>
<path d="M177.5,1047.4h2.4v-8.1h-2.4v8.1Z" class="gg_129"/>
<path d="M177.5,1047.4h2.4v-8.1h-2.4v8.1Z" class="gf_129"/>
<path d="M178.6,1043.8c-3.6,0,-6.6,2.2,-6.7,4.8h13.4c-.1,-2.6,-3.1,-4.8,-6.7,-4.8Z" class="gg_129"/>
<path d="M178.6,1043.8c-3.6,0,-6.6,2.2,-6.7,4.8h13.4c-.1,-2.6,-3.1,-4.8,-6.7,-4.8Z" class="gf_129"/>
<path d="M201.3,999.3c-6.5,0,-11.9,5.3,-11.9,11.9c0,2.7,.9,5.2,2.4,7.2l-1.5,5.3l5.5,-1.9c1.7,.9,3.5,1.4,5.5,1.4c6.6,0,12,-5.4,12,-12c0,-6.6,-5.4,-11.9,-12,-11.9Z" class="gh_129"/>
<path d="M201.3,999.3c-6.5,0,-11.9,5.3,-11.9,11.9c0,2.7,.9,5.2,2.4,7.2l-1.5,5.3l5.5,-1.9c1.7,.9,3.5,1.4,5.5,1.4c6.6,0,12,-5.4,12,-12c0,-6.6,-5.4,-11.9,-12,-11.9Z" class="gf_129"/>
<path d="M196.9,1011c0,.8,-.7,1.4,-1.4,1.4c-.8,0,-1.4,-.6,-1.4,-1.4c0,-.7,.6,-1.4,1.4,-1.4c.7,0,1.4,.7,1.4,1.4Z" class="g9_129"/>
<path d="M196.9,1011c0,.8,-.7,1.4,-1.4,1.4c-.8,0,-1.4,-.6,-1.4,-1.4c0,-.7,.6,-1.4,1.4,-1.4c.7,0,1.4,.7,1.4,1.4Z" class="gf_129"/>
<path d="M203,1011.1c0,.7,-.6,1.4,-1.4,1.4c-.8,0,-1.4,-.7,-1.4,-1.4c0,-.8,.6,-1.4,1.4,-1.4c.8,0,1.4,.6,1.4,1.4Z" class="g9_129"/>
<path d="M203,1011.1c0,.7,-.6,1.4,-1.4,1.4c-.8,0,-1.4,-.7,-1.4,-1.4c0,-.8,.6,-1.4,1.4,-1.4c.8,0,1.4,.6,1.4,1.4Z" class="gf_129"/>
<path d="M209.1,1011.1c0,.7,-.6,1.4,-1.4,1.4c-.8,0,-1.4,-.7,-1.4,-1.4c0,-.8,.6,-1.4,1.4,-1.4c.8,0,1.4,.6,1.4,1.4Z" class="g9_129"/>
<path d="M209.1,1011.1c0,.7,-.6,1.4,-1.4,1.4c-.8,0,-1.4,-.7,-1.4,-1.4c0,-.8,.6,-1.4,1.4,-1.4c.8,0,1.4,.6,1.4,1.4Z" class="gf_129"/>
<path d="M785.7,1025.5c0,0,-.5,-9.9,8.6,-9.3c0,0,6.8,-.4,6.7,9.5m-15.3,-1.6v6.5c0,0,-3.4,.4,-4,-3c0,0,0,-3.7,4,-3.5Zm15.3,0v6.5c0,0,3.4,.4,3.9,-3c0,0,.1,-3.7,-3.9,-3.5Z" class="gi_129"/>
<path d="M32.1,45.1H9.2m958.3,0h22.9M32.1,1331.3H9.2m958.3,0h22.9M45.1,32.1V9.2m0,1335.1v22.9M954.5,32.1V9.2m0,1335.1v22.9" class="gj_129"/>
<path d="M32.1,45.1H9.2m958.3,0h22.9M32.1,1331.3H9.2m958.3,0h22.9M45.1,32.1V9.2m0,1335.1v22.9M954.5,32.1V9.2m0,1335.1v22.9" class="gk_129"/>
<path d="M27.5,32.1H0m972.1,0h27.5M27.5,1344.3H0m972.1,0h27.5M32.1,27.5V0m0,1348.9v27.5M967.5,27.5V0m0,1348.9v27.5" class="gj_129"/>
<path d="M27.5,32.1H0m972.1,0h27.5M27.5,1344.3H0m972.1,0h27.5M32.1,27.5V0m0,1348.9v27.5M967.5,27.5V0m0,1348.9v27.5" class="gk_129"/>
</svg>