<?xml version="1.0" encoding="UTF-8" standalone="no"?>
<!DOCTYPE svg PUBLIC "-//W3C//DTD SVG 1.1//EN"
"http://www.w3.org/Graphics/SVG/1.1/DTD/svg11.dtd">
<svg viewBox="0 0 999 1376" version="1.1" xmlns="http://www.w3.org/2000/svg" xmlns:xlink="http://www.w3.org/1999/xlink">
<defs>
<clipPath id="c0_145"><path d="M85.1,533.1V374.2H286.9V533.1Z"/></clipPath>
<clipPath id="c1_145"><path d="M83.6,536.5v-165H287.1v165Z"/></clipPath>
<clipPath id="c2_145"><path d="M83.3,536.2v-165H286.8v165Z"/></clipPath>
<clipPath id="c3_145"><path d="M199.2,242.1L192.7,240L176.3,226.1V169h72v73.1Z"/></clipPath>
<clipPath id="c4_145"><path d="M198.6,1058.5l-6.5,-2.1l-16.4,-13.9V985.4h72v73.1Z"/></clipPath>
<clipPath id="c5_145"><path d="M786.5,132.5V120.1H801v12.4Z"/></clipPath>
<clipPath id="c6_145"><path d="M178.7,389.9c-.3,-.1,3.5,-8.2,3.5,-8.2l.8,.5c0,0,-4,7.7,-4.3,7.7Z"/></clipPath>
<clipPath id="c7_145"><path d="M186.2,382.2c0,0,-6.9,-1.1,-7.6,-5.2c-.7,-3.7,1.5,-3.9,2.1,-3.9c0,0,.1,0,.1,0l8.3,-12.7l-1.5,-3.1c0,0,-.5,-1.1,.2,-2.1c0,0,.1,-.1,.3,-.1c2.1,0,12.9,5.6,12.9,5.6l.1,.1c-.4,.5,-.7,1.2,-1.4,1.7c-.6,.5,-5.1,1.1,-5.1,1.1l-8.4,18.6Z"/></clipPath>
<clipPath id="c8_145"><path d="M185.8,381.8c.2,-.4,.2,-1.8,0,-2.2v-1.4c-1.6,-.5,-2.9,-1.3,-3.7,-2.5c-1.1,.6,-2.1,1.2,-3.1,1.8c1.5,2.2,3.8,3.6,6.8,4.3Zm0,-3.9c2.2,-4.5,3.9,-9.5,6.1,-14c-.9,-.4,-1.8,-1.4,-2.6,-1.4c-2.3,4.3,-4.6,8.6,-7.1,12.8c.8,1.3,2.1,2,3.6,2.6ZM178.5,390c1,-2.9,2.4,-5.5,3.5,-8.3c-2,-1.5,-3.9,-3.1,-4.4,-6.2V374c0,-2.7,1.9,-3.4,4.6,-3.4q.1,0,.2,0c1.9,-3.3,4.2,-6.3,6.1,-9.6c-.5,-.9,-1.1,-2.4,-.9,-3.7c.6,1.3,1.7,1.9,2.4,2.9c-.1,.6,-.2,1.1,-.3,1.8c.6,.6,1.3,1.1,2.3,1.3c.5,-.4,.6,-1.2,1.2,-1.5c.9,.4,1.8,.8,3.1,.8c.1,.1,.5,.2,.8,.2c.4,0,.7,-.1,.9,-.2c.1,0,.2,0,.3,0c.2,0,.4,0,.6,-.1c.2,-.1,.3,-.1,.5,-.1c.1,0,.2,0,.3,.1c-1.3,.6,-2.2,1.7,-4.1,1.7c-.2,0,-.3,0,-.4,0c-.9,3.8,-1.9,7.4,-2.6,11.2c.5,1.1,1.5,1.7,1.2,3.2c-.5,2.7,-3.9,4.3,-7.2,4.3c-1.3,0,-2.5,-.2,-3.6,-.7c-1,2.1,-2.1,4.1,-3.3,6c0,-.3,.3,-.4,.3,-.7c.9,-1.8,1.9,-3.6,2.6,-5.7c-1,1.7,-1.8,3.7,-2.7,5.6c-.2,.4,-.5,.8,-.7,1.2c-.3,.4,-.3,1.1,-.7,1.4Z"/></clipPath>
<clipPath id="c9_145"><path d="M196.2,362.2c-4.8,0,-13.1,-7.3,-5.5,-8.8h1.2c.2,.1,.4,.1,.5,.1c.1,0,.2,0,.2,0q.1,0,.2,0c.2,0,.5,0,.9,0c3.1,.7,8.2,3.8,7.5,7.1c-.2,1.1,-1.5,1.6,-3.1,1.6h-1.8c0,0,-.1,0,-.1,0Z"/></clipPath>
<clipPath id="ca_145"><path d="M723.7,630V418.2h220V630Z"/></clipPath>
<clipPath id="cb_145"><path d="M729.6,618.9V424.8H939.2V618.9Z"/></clipPath>
<clipPath id="cc_145"><path d="M729.3,618.6V424.5H938.9V618.6Z"/></clipPath>
<clipPath id="cd_145"><path d="M836.9,435.1c-.2,0,3.6,-8.2,3.6,-8.2l.8,.5c0,0,-4.1,7.7,-4.4,7.7Z"/></clipPath>
<clipPath id="ce_145"><path d="M844.4,427.4c0,0,-6.8,-1.1,-7.5,-5.2c-.7,-3.6,1.5,-3.8,2,-3.8c.1,0,.2,0,.2,0l8.3,-12.8l-1.5,-3c0,0,-.6,-1.2,.2,-2.1c0,-.1,.1,-.1,.3,-.1c2.1,0,12.9,5.5,12.9,5.5l.1,.2c-.4,.5,-.8,1.1,-1.4,1.6c-.7,.5,-5.1,1.2,-5.1,1.2l-8.5,18.5Z"/></clipPath>
<clipPath id="cf_145"><path d="M844,427.1c.2,-.5,.2,-1.8,0,-2.3v-1.4c-1.5,-.5,-2.8,-1.2,-3.6,-2.5c-1.1,.6,-2.1,1.2,-3.2,1.9c1.6,2.1,3.9,3.5,6.8,4.3Zm0,-3.9c2.2,-4.6,4,-9.5,6.2,-14.1c-.9,-.4,-1.9,-1.3,-2.6,-1.4c-2.3,4.3,-4.6,8.6,-7.1,12.8c.7,1.3,2.1,2,3.5,2.7Zm-7.3,12c1.1,-2.9,2.4,-5.5,3.6,-8.3c-2,-1.5,-4,-3.1,-4.4,-6.1v-1.5c-.1,-2.7,1.9,-3.4,4.5,-3.4c.1,0,.2,0,.2,0c2,-3.4,4.3,-6.4,6.2,-9.7c-.6,-.9,-1.2,-2.4,-.9,-3.6c.5,1.2,1.6,1.8,2.4,2.8c-.1,.6,-.3,1.2,-.4,1.8c.6,.7,1.4,1.2,2.4,1.4c.5,-.4,.5,-1.3,1.1,-1.5c1,.3,1.9,.7,3.2,.7c.1,.1,.5,.2,.8,.2c.4,0,.7,-.1,.8,-.2c.1,.1,.2,.1,.3,.1c.3,0,.5,-.1,.6,-.2c.2,0,.4,-.1,.6,-.1c.1,0,.2,0,.3,.1c-1.3,.7,-2.2,1.8,-4.2,1.8c-.1,0,-.2,0,-.3,0c-.9,3.7,-1.9,7.3,-2.7,11.1c.6,1.1,1.5,1.7,1.3,3.2c-.5,2.7,-3.9,4.4,-7.2,4.4c-1.3,0,-2.5,-.3,-3.6,-.8c-1,2.1,-2.1,4.2,-3.3,6.1c0,-.4,.3,-.4,.3,-.8c.9,-1.8,1.9,-3.6,2.6,-5.6c-1.1,1.7,-1.8,3.7,-2.8,5.5c-.2,.4,-.4,.8,-.6,1.2c-.3,.5,-.3,1.2,-.8,1.4Z"/></clipPath>
<clipPath id="cg_145"><path d="M854.5,407.4c-4.8,0,-13.1,-7.3,-5.6,-8.7h1.3c.2,0,.4,0,.7,0c.3,0,.7,0,1.1,.1c3,.6,8.2,3.8,7.5,7c-.3,1.2,-1.6,1.6,-3.1,1.6h-1.8q-.1,0,-.1,0Z"/></clipPath>
<style type="text/css"><![CDATA[
.g0_145{
fill: #FEFCF4;
}
.g1_145{
fill: #FFF;
}
.g2_145{
fill: none;
stroke: #6381B7;
stroke-width: 0.763;
}
.g3_145{
fill: #6381B7;
}
.g4_145{
fill: none;
stroke: #6381B7;
stroke-width: 0.381;
stroke-dasharray: 2,1;
}
.g5_145{
fill: none;
stroke: #6381B7;
stroke-width: 0.381;
}
.g6_145{
fill: #F7C2D9;
}
.g7_145{
fill: #FDF4F3;
}
.g8_145{
fill: #EC008C;
}
.g9_145{
fill: none;
stroke: #949698;
stroke-width: 0.305;
stroke-dasharray: 4,4;
}
.ga_145{
fill: none;
stroke: #949698;
stroke-width: 0.305;
}
.gb_145{
fill: none;
stroke: #949698;
stroke-width: 0.305;
stroke-dasharray: 3,3;
}
.gc_145{
fill: #818385;
}
.gd_145{
fill: #FCE8B0;
}
.ge_145{
fill: #25408F;
}
.gf_145{
fill: #A8AAAD;
}
.gg_145{
fill: none;
stroke: #949698;
stroke-width: 0.549;
}
.gh_145{
fill: none;
stroke: #BCBEC0;
stroke-width: 2.566;
}
.gi_145{
fill: #231F20;
}
.gj_145{
fill: #363637;
}
.gk_145{
fill: #5CC4BE;
}
.gl_145{
fill: #EAD646;
}
.gm_145{
fill: #6D6F71;
}
.gn_145{
fill: none;
stroke: #FFF;
stroke-width: 1.909;
stroke-miterlimit: 10;
}
.go_145{
fill: none;
stroke: #000;
stroke-width: 0.381;
stroke-miterlimit: 10;
}
]]></style>
</defs>
<path d="M45.1,1344.3H967.5V32.1H45.1V1344.3Z" class="g0_145"/>
<path d="M171.6,127.7c0,0,-18.3,0,-18.3,18.4V901.2c0,0,0,18.3,18.3,18.3H848.7c0,0,18.4,0,18.4,-18.3V127.7Z" class="g1_145"/>
<path d="M171.6,127.7c0,0,-18.3,0,-18.3,18.4V901.2c0,0,0,18.3,18.3,18.3H848.7c0,0,18.4,0,18.4,-18.3V127.7H171.6Z" class="g2_145"/>
<path d="M567.6,1152.2c0,0,-4.3,0,-4.3,4.3v10.8c0,0,0,4.4,4.3,4.4h30.3c0,0,4.4,0,4.4,-4.4v-10.8c0,0,0,-4.3,-4.4,-4.3Z" class="g3_145"/>
<path d="M554.4,1144.7v34.8m1.4,1h311m.9,-1.3v-34.9m-1.3,-1h-311" class="g4_145"/>
<path d="M554.4,1179.9v.6h.6m312.1,0h.6v-.6m0,-36v-.6h-.6m-312.1,0h-.6v.6" class="g5_145"/>
<path d="M166.3,972.2c0,0,-13,0,-13,13v137.6c0,0,0,13,13,13H854.1c0,0,13,0,13,-13V985.2c0,0,0,-13,-13,-13Z" class="g1_145"/>
<path d="M166.3,972.2c0,0,-13,0,-13,13v137.6c0,0,0,13,13,13H854.1c0,0,13,0,13,-13V985.2c0,0,0,-13,-13,-13H166.3Z" class="g2_145"/>
<image clip-path="url(#c0_145)" preserveAspectRatio="none" x="85" y="375" width="201" height="159" xlink:href="img/1.png"/>
<path d="M91.1,379.4l-.7,145l190.3,2.5l-.3,-144.8Z" class="g6_145"/>
<image clip-path="url(#c1_145)" preserveAspectRatio="none" x="83" y="372" width="203" height="165" xlink:href="img/2.png"/>
<image clip-path="url(#c2_145)" preserveAspectRatio="none" x="83" y="372" width="203" height="165" xlink:href="img/3.png"/>
<path d="M88.5,386.4l4.8,143.9l155.4,-8.9l31.8,-28.6L276.9,375.9Z" class="g7_145"/>
<path d="M248.7,521.4l31.8,-28.5l-19.7,-.8Z" class="g8_145"/>
<path d="M431.3,399.7c9,-1.4,16,-6.7,17.7,-13.3m-.5,-7.7c-2.4,-6.3,-9.7,-11.1,-18.8,-12m-7.8,.2c-9,1.4,-16,6.6,-17.7,13.3m.5,7.7c2.4,6.3,9.8,11.1,18.8,12" class="g9_145"/>
<path d="M449.3,384.8c.1,-.5,.1,-1,.1,-1.5c0,-.5,0,-1.1,-.1,-1.6M428.2,366.6c-.5,-.1,-1.1,-.1,-1.6,-.1c-.5,0,-1,0,-1.5,.1m-21.2,15.1c-.1,.5,-.1,1.1,-.1,1.6c0,.5,0,1,.1,1.5M425.1,400c.5,0,1,0,1.5,0c.5,0,1.1,0,1.6,0" class="ga_145"/>
<path d="M410.8,366.7C392.3,358.6,314.9,327.3,247.6,341.6" class="g9_145"/>
<path d="M240.6,343.5c-6,2.3,-2.3,4.6,1.2,5.4" class="gb_145"/>
<path d="M247.6,345.8c.8,-3.2,-1.5,-7.8,-12.4,-8.9m-7.7,-.2c-18.1,1.2,-60.7,11.9,-81.9,44" class="g9_145"/>
<path d="M414.9,368.6c0,0,-.5,-.2,-1.3,-.7m-167.5,-26c-.5,.1,-1,.3,-1.5,.4c-.4,.1,-.9,.2,-1.3,.3m-.1,6.5c.5,0,1,0,1.4,0c.5,-.1,1,-.3,1.4,-.7M233.6,336.7c-.5,0,-1,0,-1.5,-.1c-.5,0,-1,0,-1.5,0M144.8,382c-.3,.4,-.5,.9,-.8,1.3" class="ga_145"/>
<path d="M149,382.4l-7.2,-5L139,389.2Z" class="gc_145"/>
<path d="M231.8,171.1c0,0,-13,0,-13,13v47.7c0,0,0,13,13,13h602c0,0,13,0,13,-13V184.1c0,0,0,-13,-13,-13Z" class="gd_145"/>
<image clip-path="url(#c3_145)" preserveAspectRatio="none" x="175" y="167" width="75" height="77" xlink:href="img/4.png"/>
<path d="M226.6,237.4c0,0,-26.9,11.3,-51.1,-12.8c0,0,15.1,25.4,49.3,24c0,0,24.7,.4,20.2,-10.1c0,0,1.2,-4.5,-18.4,-1.1Z" class="gd_145"/>
<path d="M231.2,1013.5c0,0,-12.9,0,-12.9,13v21.7c0,0,0,13,12.9,13H833.3c0,0,13,0,13,-13v-21.7c0,0,0,-13,-13,-13Z" class="gd_145"/>
<image clip-path="url(#c4_145)" preserveAspectRatio="none" x="174" y="984" width="75" height="76" xlink:href="img/5.png"/>
<path d="M226,1053.8c0,0,-26.8,11.3,-51.1,-12.8c0,0,15.2,25.4,49.3,24c0,0,24.8,.4,20.3,-10.1c0,0,1.2,-4.5,-18.5,-1.1Z" class="gd_145"/>
<path d="M153.3,111.9v39L165,161.2V117Z" class="ge_145"/>
<path d="M153.3,111.9v39H851.1c0,0,16.8,0,16.8,-16.8v-5.3c0,0,0,-16.9,-16.8,-16.9Z" class="g3_145"/>
<path d="M802.6,145.6c8.2,0,14.9,-6.5,14.9,-14.5c0,-8.1,-6.7,-14.5,-14.9,-14.5c-8.2,0,-14.9,6.4,-14.9,14.5c0,8,6.7,14.5,14.9,14.5Z" class="gf_145"/>
<path d="M802.6,145.6c8.2,0,14.9,-6.5,14.9,-14.5c0,-8.1,-6.7,-14.5,-14.9,-14.5c-8.2,0,-14.9,6.4,-14.9,14.5c0,8,6.7,14.5,14.9,14.5Z" class="gg_145"/>
<path d="M802.6,136.4c3,0,5.5,-2.4,5.5,-5.3c0,-3,-2.5,-5.4,-5.5,-5.4c-3,0,-5.5,2.4,-5.5,5.4c0,2.9,2.5,5.3,5.5,5.3Z" class="g1_145"/>
<path d="M802.6,136.4c3,0,5.5,-2.4,5.5,-5.3c0,-3,-2.5,-5.4,-5.5,-5.4c-3,0,-5.5,2.4,-5.5,5.4c0,2.9,2.5,5.3,5.5,5.3Z" class="gh_145"/>
<g clip-path="url(#c5_145)" opacity="0.3">
<path d="M788,130.3c0,0,0,-4.8,3.7,-8.7l7.7,6.8c0,0,-1,.9,-1,2.6Z" class="g1_145"/>
</g>
<path d="M807.2,131c0,0,-3.5,0,-3.5,3.4v8.7c0,0,0,3.5,3.5,3.5h43.5c0,0,3.5,0,3.5,-3.5v-8.7c0,0,0,-3.4,-3.5,-3.4Z" class="gi_145"/>
<path d="M191.2,122c0,-8.3,-6.8,-15,-15.1,-15c-8.3,0,-15,6.7,-15,15c0,8.3,6.7,15.1,15,15.1c.8,0,1.7,-.1,2.4,-.2l4.5,5.2v-6.7c4.9,-2.5,8.2,-7.6,8.2,-13.4Z" class="g1_145"/>
<path d="M183.5,143.3l-5.1,-5.9c-.8,.1,-1.5,.1,-2.3,.1c-8.5,0,-15.5,-6.9,-15.5,-15.5c0,-8.5,7,-15.5,15.5,-15.5c8.6,0,15.5,7,15.5,15.5c0,5.7,-3.1,11,-8.1,13.7Zm-4.8,-6.9l3.9,4.5v-5.8l.2,-.1c4.9,-2.5,7.9,-7.5,7.9,-13c0,-8,-6.5,-14.6,-14.6,-14.6c-8,0,-14.6,6.6,-14.6,14.6c0,8.1,6.6,14.6,14.6,14.6c.8,0,1.6,-.1,2.4,-.2Z" class="gj_145"/>
<path d="M169.1,121.6c.8,0,1.4,.6,1.4,1.4c0,.8,-.6,1.5,-1.4,1.5c-.8,0,-1.4,-.7,-1.4,-1.5c0,-.8,.6,-1.4,1.4,-1.4Z" class="gk_145"/>
<path d="M169.1,124.9c-1,0,-1.9,-.8,-1.9,-1.9c0,-1,.9,-1.9,1.9,-1.9c1,0,1.9,.9,1.9,1.9c0,1.1,-.9,1.9,-1.9,1.9m0,-2.9c-.5,0,-1,.5,-1,1c0,.6,.5,1,1,1c.5,0,1,-.4,1,-1c0,-.5,-.5,-1,-1,-1Z" class="gj_145"/>
<path d="M176.1,121.6c.8,0,1.5,.6,1.5,1.4c0,.8,-.7,1.5,-1.5,1.5c-.8,0,-1.4,-.7,-1.4,-1.5c0,-.8,.6,-1.4,1.4,-1.4Z" class="gk_145"/>
<path d="M176.1,124.9c-1,0,-1.9,-.8,-1.9,-1.9c0,-1,.9,-1.9,1.9,-1.9c1.1,0,1.9,.9,1.9,1.9c0,1.1,-.8,1.9,-1.9,1.9m0,-2.9c-.5,0,-1,.5,-1,1c0,.6,.5,1,1,1c.6,0,1,-.4,1,-1c0,-.5,-.4,-1,-1,-1Z" class="gj_145"/>
<path d="M183.1,121.6c.8,0,1.5,.6,1.5,1.4c0,.8,-.7,1.5,-1.5,1.5c-.8,0,-1.4,-.7,-1.4,-1.5c0,-.8,.6,-1.4,1.4,-1.4Z" class="gk_145"/>
<path d="M183.1,124.9c-1,0,-1.9,-.8,-1.9,-1.9c0,-1,.9,-1.9,1.9,-1.9c1.1,0,1.9,.9,1.9,1.9c0,1.1,-.8,1.9,-1.9,1.9m0,-2.9c-.5,0,-1,.5,-1,1c0,.6,.5,1,1,1c.6,0,1,-.4,1,-1c0,-.5,-.4,-1,-1,-1Z" class="gj_145"/>
<path d="M185.1,136.3c0,-9.8,7.8,-17.7,17.6,-17.7c9.7,0,17.6,7.9,17.6,17.7c0,9.7,-7.9,17.6,-17.6,17.6c-1,0,-1.9,-.1,-2.9,-.3l-5.2,6.1v-7.8c-5.7,-2.9,-9.5,-8.8,-9.5,-15.6Z" class="gl_145"/>
<path d="M194.6,160.2q-.1,0,-.2,0c-.2,-.1,-.3,-.3,-.3,-.5v-7.5c-5.9,-3.2,-9.5,-9.2,-9.5,-15.9c0,-10,8.1,-18.1,18.1,-18.1c9.9,0,18,8.1,18,18.1c0,9.9,-8.1,18,-18,18c-.9,0,-1.8,0,-2.7,-.2l-5.1,5.9c-.1,.1,-.2,.2,-.3,.2m8.1,-41.1c-9.5,0,-17.2,7.7,-17.2,17.2c0,6.4,3.6,12.2,9.3,15.2c.1,.1,.2,.2,.2,.4v6.6l4.5,-5.2c.1,-.1,.3,-.1,.4,-.1c1,.1,1.9,.2,2.8,.2c9.4,0,17.1,-7.7,17.1,-17.1c0,-9.5,-7.7,-17.2,-17.1,-17.2Z" class="gj_145"/>
<path d="M210.9,135.8c.9,0,1.6,.7,1.6,1.6c0,1,-.7,1.7,-1.6,1.7c-1,0,-1.7,-.7,-1.7,-1.7c0,-.9,.7,-1.6,1.7,-1.6Z" class="g1_145"/>
<path d="M210.9,139.6c-1.2,0,-2.2,-1,-2.2,-2.2c0,-1.1,1,-2.1,2.2,-2.1c1.1,0,2.1,1,2.1,2.1c0,1.2,-1,2.2,-2.1,2.2m0,-3.4c-.7,0,-1.3,.6,-1.3,1.2c0,.7,.6,1.3,1.3,1.3c.6,0,1.2,-.6,1.2,-1.3c0,-.6,-.6,-1.2,-1.2,-1.2Z" class="gj_145"/>
<path d="M202.7,135.8c.9,0,1.6,.7,1.6,1.6c0,1,-.7,1.7,-1.6,1.7c-1,0,-1.7,-.7,-1.7,-1.7c0,-.9,.7,-1.6,1.7,-1.6Z" class="g1_145"/>
<path d="M202.7,139.6c-1.2,0,-2.2,-1,-2.2,-2.2c0,-1.1,1,-2.1,2.2,-2.1c1.1,0,2.1,1,2.1,2.1c0,1.2,-1,2.2,-2.1,2.2m0,-3.4c-.7,0,-1.3,.6,-1.3,1.2c0,.7,.6,1.3,1.3,1.3c.6,0,1.2,-.6,1.2,-1.3c0,-.6,-.6,-1.2,-1.2,-1.2Z" class="gj_145"/>
<path d="M194.5,135.8c.9,0,1.6,.7,1.6,1.6c0,1,-.7,1.7,-1.6,1.7c-1,0,-1.7,-.7,-1.7,-1.7c0,-.9,.7,-1.6,1.7,-1.6Z" class="g1_145"/>
<path d="M194.5,139.6c-1.2,0,-2.2,-1,-2.2,-2.2c0,-1.1,1,-2.1,2.2,-2.1c1.1,0,2.1,1,2.1,2.1c0,1.2,-1,2.2,-2.1,2.2m0,-3.4c-.7,0,-1.2,.6,-1.2,1.2c0,.7,.5,1.3,1.2,1.3c.6,0,1.2,-.6,1.2,-1.3c0,-.6,-.6,-1.2,-1.2,-1.2Z" class="gj_145"/>
<image clip-path="url(#c6_145)" x="178" y="381" width="5" height="9" xlink:href="shade/1.png"/>
<image clip-path="url(#c7_145)" x="177" y="355" width="25" height="28" xlink:href="shade/2.png"/>
<image clip-path="url(#c8_145)" x="177" y="357" width="23" height="33" xlink:href="shade/3.png"/>
<image clip-path="url(#c9_145)" x="183" y="353" width="19" height="10" xlink:href="shade/4.png"/>
<image clip-path="url(#ca_145)" preserveAspectRatio="none" x="723" y="418" width="220" height="212" xlink:href="img/6.png"/>
<path d="M740,422.9L728.7,609.6l198.4,14.5L937.5,437.7Z" class="g6_145"/>
<image clip-path="url(#cb_145)" preserveAspectRatio="none" x="730" y="425" width="209" height="194" xlink:href="img/7.png"/>
<image clip-path="url(#cc_145)" preserveAspectRatio="none" x="729" y="425" width="210" height="194" xlink:href="img/8.png"/>
<path d="M735.3,429.5l-.7,181.4l164.3,1.2l33.4,-23.4l.4,-157.5Z" class="g7_145"/>
<path d="M898.7,612.4l33.4,-23.3l-21.7,-3.9Z" class="g8_145"/>
<image clip-path="url(#cd_145)" x="836" y="426" width="6" height="10" xlink:href="shade/5.png"/>
<image clip-path="url(#ce_145)" x="836" y="400" width="24" height="28" xlink:href="shade/6.png"/>
<image clip-path="url(#cf_145)" x="835" y="402" width="23" height="34" xlink:href="shade/7.png"/>
<image clip-path="url(#cg_145)" x="841" y="398" width="20" height="10" xlink:href="shade/8.png"/>
<path d="M688.2,502.3c0,0,9.7,-52.4,48.5,-56.3" class="g9_145"/>
<path d="M727.9,441.5l.8,8.7l10.8,-5.4Z" class="gm_145"/>
<path d="M691.8,533.3c9,-1.4,16,-6.6,17.7,-13.3m-.5,-7.7c-2.4,-6.3,-9.8,-11.1,-18.8,-12m-7.8,.2c-9,1.4,-16,6.7,-17.7,13.3m.5,7.7c2.4,6.3,9.7,11.1,18.8,12" class="g9_145"/>
<path d="M709.8,518.5c.1,-.5,.1,-1.1,.1,-1.6c0,-.5,0,-1,-.1,-1.5M688.6,500.2c-.5,0,-1,0,-1.5,0c-.5,0,-1.1,0,-1.6,0m-21.1,15.2c-.1,.5,-.1,1,-.1,1.5c0,.5,0,1.1,.1,1.6m21.1,15.1c.5,0,1.1,.1,1.6,.1c.5,0,1,-.1,1.5,-.1" class="ga_145"/>
<path d="M32.1,45.1H9.2m958.3,0h22.9M32.1,1331.3H9.2m958.3,0h22.9M45.1,32.1V9.2m0,1335.1v22.9M954.5,32.1V9.2m0,1335.1v22.9" class="gn_145"/>
<path d="M32.1,45.1H9.2m958.3,0h22.9M32.1,1331.3H9.2m958.3,0h22.9M45.1,32.1V9.2m0,1335.1v22.9M954.5,32.1V9.2m0,1335.1v22.9" class="go_145"/>
<path d="M27.5,32.1H0m972.1,0h27.5M27.5,1344.3H0m972.1,0h27.5M32.1,27.5V0m0,1348.9v27.5M967.5,27.5V0m0,1348.9v27.5" class="gn_145"/>
<path d="M27.5,32.1H0m972.1,0h27.5M27.5,1344.3H0m972.1,0h27.5M32.1,27.5V0m0,1348.9v27.5M967.5,27.5V0m0,1348.9v27.5" class="go_145"/>
</svg>