<?xml version="1.0" encoding="UTF-8" standalone="no"?>
<!DOCTYPE svg PUBLIC "-//W3C//DTD SVG 1.1//EN"
"http://www.w3.org/Graphics/SVG/1.1/DTD/svg11.dtd">
<svg viewBox="0 0 999 1376" version="1.1" xmlns="http://www.w3.org/2000/svg" xmlns:xlink="http://www.w3.org/1999/xlink">
<defs>
<clipPath id="c0_142"><path d="M32.1,1344.3V32.1H967.5V1344.3Z"/></clipPath>
<clipPath id="c1_142"><path d="M176.6,528.8l-6.5,-2.1L153.7,512.8V455.7h72v73.1Z"/></clipPath>
<clipPath id="c2_142"><path d="M176.6,1116.6l-6.5,-2.1l-16.4,-13.9v-57.1h72v73.1Z"/></clipPath>
<clipPath id="c3_142"><path d="M764.8,419.7V407.3h14.5v12.4Z"/></clipPath>
<clipPath id="c4_142"><path d="M78.2,823.9V572h176V823.9Z"/></clipPath>
<clipPath id="c5_142"><path d="M74.7,828V570.1H260V828Z"/></clipPath>
<clipPath id="c6_142"><path d="M74.4,827.7V569.8H259.7V827.7Z"/></clipPath>
<clipPath id="c7_142"><path d="M157.9,584.4c-.3,-.1,3.5,-8.3,3.5,-8.3l.8,.5c0,0,-4,7.8,-4.3,7.8Z"/></clipPath>
<clipPath id="c8_142"><path d="M165.4,576.6c0,0,-6.9,-1.1,-7.6,-5.2c-.6,-3.6,1.5,-3.8,2.1,-3.8q.1,0,.1,0l8.3,-12.8l-1.4,-3c0,0,-.6,-1.2,.1,-2.1c.1,-.1,.2,-.1,.3,-.1c2.1,0,13,5.5,13,5.5v.2c-.3,.5,-.7,1.1,-1.4,1.6c-.6,.5,-5,1.2,-5,1.2l-8.5,18.5Z"/></clipPath>
<clipPath id="c9_142"><path d="M165,576.3c.2,-.5,.2,-1.8,0,-2.3v-1.4c-1.6,-.5,-2.9,-1.2,-3.7,-2.5c-1.1,.6,-2.1,1.2,-3.1,1.9c1.5,2.1,3.8,3.5,6.8,4.3Zm0,-3.9c2.2,-4.6,4,-9.5,6.1,-14.1c-.8,-.4,-1.8,-1.3,-2.6,-1.4c-2.3,4.3,-4.6,8.6,-7,12.8c.7,1.4,2.1,2,3.5,2.7Zm-7.3,12c1,-2.9,2.4,-5.4,3.5,-8.3c-2,-1.5,-3.9,-3.1,-4.4,-6.1v-1.5c0,-2.7,1.9,-3.4,4.6,-3.4c0,0,.1,0,.2,0c1.9,-3.3,4.2,-6.3,6.1,-9.7c-.5,-.9,-1.1,-2.3,-.8,-3.6c.5,1.2,1.6,1.9,2.3,2.9c-.1,.6,-.2,1.1,-.3,1.7c.6,.7,1.3,1.2,2.4,1.4c.4,-.4,.5,-1.2,1.1,-1.5c.9,.3,1.8,.7,3.1,.7c.2,.2,.5,.2,.8,.2c.4,0,.7,0,.9,-.2c.1,.1,.2,.1,.3,.1c.2,0,.4,-.1,.6,-.2c.2,0,.3,-.1,.5,-.1c.1,0,.2,0,.3,.1c-1.3,.7,-2.2,1.8,-4.1,1.8c-.2,0,-.3,0,-.4,0c-.9,3.7,-1.9,7.3,-2.6,11.2c.5,1,1.5,1.6,1.2,3.1c-.4,2.7,-3.8,4.4,-7.2,4.4c-1.2,0,-2.5,-.2,-3.6,-.8c-1,2.1,-2.1,4.2,-3.3,6.1c0,-.4,.3,-.4,.3,-.8c1,-1.8,1.9,-3.6,2.6,-5.6c-1,1.7,-1.8,3.7,-2.7,5.5c-.2,.4,-.4,.8,-.7,1.3c-.3,.4,-.3,1.1,-.7,1.3Z"/></clipPath>
<clipPath id="ca_142"><path d="M175.4,556.7c-4.8,0,-13.1,-7.3,-5.5,-8.8h1.2c.2,0,.5,0,.7,0q.1,0,.2,0c.3,0,.6,0,.9,.1c3.1,.6,8.2,3.8,7.5,7c-.2,1.2,-1.5,1.6,-3.1,1.7h-1.9Z"/></clipPath>
<clipPath id="cb_142"><path d="M717.1,888V585h209V888Z"/></clipPath>
<clipPath id="cc_142"><path d="M716.7,890.9V585.6H926.2V890.9Z"/></clipPath>
<clipPath id="cd_142"><path d="M716.4,890.6V585.3H925.9V890.6Z"/></clipPath>
<clipPath id="ce_142"><path d="M824.8,599.5c-.3,-.1,3.6,-8.2,3.6,-8.2l.7,.5c0,0,-4,7.7,-4.3,7.7Z"/></clipPath>
<clipPath id="cf_142"><path d="M832.3,591.8c0,0,-6.8,-1.1,-7.6,-5.2c-.6,-3.6,1.6,-3.9,2.1,-3.9q.1,0,.1,0L835.3,570l-1.5,-3.1c0,0,-.6,-1.1,.1,-2.1c.1,0,.2,-.1,.4,-.1c2.1,0,12.9,5.6,12.9,5.6l.1,.1c-.4,.6,-.8,1.2,-1.4,1.7c-.7,.5,-5.1,1.1,-5.1,1.1l-8.5,18.6Z"/></clipPath>
<clipPath id="cg_142"><path d="M831.9,591.4c.2,-.4,.2,-1.8,0,-2.2v-1.4c-1.5,-.5,-2.9,-1.3,-3.6,-2.5c-1.1,.6,-2.2,1.2,-3.2,1.9c1.6,2.1,3.8,3.5,6.8,4.2Zm0,-3.9c2.2,-4.5,4,-9.5,6.2,-14c-.9,-.4,-1.9,-1.4,-2.7,-1.4c-2.3,4.3,-4.6,8.6,-7,12.8c.7,1.3,2.1,2,3.5,2.6Zm-7.3,12.1c1.1,-2.9,2.4,-5.5,3.5,-8.3c-1.9,-1.5,-3.9,-3.1,-4.4,-6.2v-1.5c0,-2.7,1.9,-3.4,4.6,-3.4q.1,0,.2,0c2,-3.3,4.2,-6.3,6.2,-9.6c-.6,-.9,-1.2,-2.4,-.9,-3.7c.5,1.3,1.6,1.9,2.4,2.9c-.1,.6,-.3,1.2,-.4,1.8c.6,.6,1.3,1.2,2.4,1.4c.5,-.5,.5,-1.3,1.1,-1.6c1,.4,1.9,.8,3.2,.8c.1,.1,.4,.2,.8,.2c.3,0,.7,-.1,.8,-.2c.1,0,.2,0,.3,0c.2,0,.4,0,.6,-.1c.2,-.1,.4,-.1,.5,-.1c.1,0,.3,0,.4,.1c-1.4,.6,-2.2,1.7,-4.2,1.7c-.1,0,-.2,0,-.4,0c-.8,3.8,-1.8,7.4,-2.6,11.2c.5,1.1,1.5,1.7,1.2,3.2c-.4,2.7,-3.8,4.4,-7.1,4.4c-1.3,0,-2.6,-.3,-3.7,-.8c-1,2.1,-2,4.1,-3.2,6c-.1,-.3,.3,-.4,.2,-.7c1,-1.8,2,-3.6,2.7,-5.7c-1.1,1.7,-1.9,3.7,-2.8,5.6c-.2,.4,-.4,.8,-.6,1.2c-.3,.4,-.3,1.1,-.8,1.4Z"/></clipPath>
<clipPath id="ch_142"><path d="M842.4,571.8c-4.8,0,-13.1,-7.3,-5.6,-8.8h1.3c.1,.1,.3,.1,.5,.1c0,0,.1,0,.2,0c.3,0,.6,0,1,.1c3.1,.6,8.3,3.7,7.6,7c-.3,1.1,-1.6,1.6,-3.2,1.6h-1.7q-.1,0,-.1,0Z"/></clipPath>
<clipPath id="ci_142"><path d="M125.5,386.7V205.8H858.6V386.7Z"/></clipPath>
<style type="text/css"><![CDATA[
.g0_142{
fill: #FEFCF4;
}
.g1_142{
fill: #FFF;
}
.g2_142{
fill: none;
stroke: #6381B7;
stroke-width: 0.763;
}
.g3_142{
fill: none;
stroke: #818385;
stroke-width: 0.305;
stroke-dasharray: 3,3;
}
.g4_142{
fill: none;
stroke: #818385;
stroke-width: 0.305;
}
.g5_142{
fill: #6381B7;
}
.g6_142{
fill: none;
stroke: #6381B7;
stroke-width: 0.381;
stroke-dasharray: 2,1;
}
.g7_142{
fill: none;
stroke: #6381B7;
stroke-width: 0.381;
}
.g8_142{
fill: #FCE8B0;
}
.g9_142{
fill: #25408F;
}
.ga_142{
fill: #A8AAAD;
}
.gb_142{
fill: none;
stroke: #949698;
stroke-width: 0.549;
}
.gc_142{
fill: none;
stroke: #BCBEC0;
stroke-width: 2.566;
}
.gd_142{
fill: #231F20;
}
.ge_142{
fill: #363637;
}
.gf_142{
fill: #5CC4BE;
}
.gg_142{
fill: #EAD646;
}
.gh_142{
fill: #F7C2D9;
}
.gi_142{
fill: #FDF4F3;
}
.gj_142{
fill: #EC008C;
}
.gk_142{
fill: none;
stroke: #949698;
stroke-width: 0.305;
stroke-dasharray: 4,4;
}
.gl_142{
fill: none;
stroke: #949698;
stroke-width: 0.305;
stroke-dasharray: 3,3;
}
.gm_142{
fill: none;
stroke: #949698;
stroke-width: 0.305;
}
.gn_142{
fill: #6D6F71;
}
.go_142{
fill: #2E6E51;
}
.gp_142{
fill: none;
stroke: #FFF;
stroke-width: 0.152;
stroke-miterlimit: 1;
}
.gq_142{
fill: #BCBEC0;
}
.gr_142{
fill: #EE314A;
}
.gs_142{
fill: #CEEDFB;
}
.gt_142{
fill: #27639D;
}
.gu_142{
fill: none;
stroke: #C3E7F1;
stroke-width: 1.527;
}
.gv_142{
fill: none;
stroke: #FFF;
stroke-width: 1.909;
stroke-miterlimit: 10;
}
.gw_142{
fill: none;
stroke: #000;
stroke-width: 0.381;
stroke-miterlimit: 10;
}
]]></style>
</defs>
<path d="M32.1,1344.3H954.5V32.1H32.1V1344.3Z" class="g0_142"/>
<path clip-path="url(#c0_142)" d="M954.5,1344.3H1877V32.1H954.5V1344.3Z" class="g0_142"/>
<path d="M150.4,425.3c0,0,-18.3,0,-18.3,18.3V989.9c0,0,0,18.4,18.3,18.4H827.5c0,0,18.4,0,18.4,-18.4V425.3Z" class="g1_142"/>
<path d="M150.4,425.3c0,0,-18.3,0,-18.3,18.3V989.9c0,0,0,18.4,18.3,18.4H827.5c0,0,18.4,0,18.4,-18.4V425.3H150.4Z" class="g2_142"/>
<path d="M393.4,572.2c12.2,-1,22,-6,24.3,-12.3m-.6,-7.3c-3.3,-5.9,-13.2,-10.3,-25.2,-11m-7.5,.1c-12.2,1,-21.9,6,-24.2,12.3m.6,7.2c3.3,6,13.1,10.4,25.1,11.1" class="g3_142"/>
<path d="M418.1,558.4c.1,-.5,.1,-.9,.1,-1.5c0,-.5,0,-1,-.1,-1.4m-27.7,-14c-.5,0,-1,0,-1.5,0c-.5,0,-1,0,-1.5,0m-27.6,14c-.1,.4,-.2,.9,-.2,1.4c0,.6,.1,1,.2,1.5m27.6,13.9c.5,.1,1,.1,1.5,.1c.5,0,1,0,1.5,-.1" class="g4_142"/>
<path d="M145.1,1030.3c0,0,-13,0,-13,13v140.2c0,0,0,13,13,13H832.9c0,0,13,0,13,-13V1043.3c0,0,0,-13,-13,-13Z" class="g1_142"/>
<path d="M145.1,1030.3c0,0,-13,0,-13,13v140.2c0,0,0,13,13,13H832.9c0,0,13,0,13,-13V1043.3c0,0,0,-13,-13,-13H145.1Z" class="g2_142"/>
<path d="M534.3,1213.6c0,0,-4.3,0,-4.3,4.3v10.9c0,0,0,4.3,4.3,4.3h30.3c0,0,4.3,0,4.3,-4.3v-10.9c0,0,0,-4.3,-4.3,-4.3Z" class="g5_142"/>
<path d="M521.1,1206.1V1241m1.4,.9H844.9m1,-1.3v-34.9m-1.4,-.9H522.1" class="g6_142"/>
<path d="M521.1,1241.4v.5h.6m323.6,0h.6v-.5m0,-36.1v-.5h-.6m-323.6,0h-.6v.5" class="g7_142"/>
<path d="M209.2,483.8c0,0,-13,0,-13,13v21.7c0,0,0,13,13,13h602c0,0,13,0,13,-13V496.8c0,0,0,-13,-13,-13Z" class="g8_142"/>
<image clip-path="url(#c1_142)" preserveAspectRatio="none" x="152" y="454" width="75" height="76" xlink:href="img/1.png"/>
<path d="M204,524.1c0,0,-26.8,11.3,-51.1,-12.8c0,0,15.2,25.4,49.3,24c0,0,24.8,.4,20.3,-10.1c0,0,1.2,-4.5,-18.5,-1.1Z" class="g8_142"/>
<path d="M209.2,1071.6c0,0,-13,0,-13,13v21.7c0,0,0,12.9,13,12.9h602c0,0,13,0,13,-12.9v-21.7c0,0,0,-13,-13,-13Z" class="g8_142"/>
<image clip-path="url(#c2_142)" preserveAspectRatio="none" x="152" y="1042" width="75" height="76" xlink:href="img/2.png"/>
<path d="M204,1111.9c0,0,-26.8,11.3,-51.1,-12.8c0,0,15.2,25.3,49.3,24c0,0,24.8,.3,20.3,-10.1c0,0,1.2,-4.5,-18.5,-1.1Z" class="g8_142"/>
<path d="M131.7,399.1v39l11.7,10.3V404.2Z" class="g9_142"/>
<path d="M131.7,399.1v39H829.5c0,0,16.8,0,16.8,-16.8v-5.4c0,0,0,-16.8,-16.8,-16.8Z" class="g5_142"/>
<path d="M781,432.8c8.2,0,14.8,-6.5,14.8,-14.6c0,-8,-6.6,-14.5,-14.8,-14.5c-8.3,0,-14.9,6.5,-14.9,14.5c0,8.1,6.6,14.6,14.9,14.6Z" class="ga_142"/>
<path d="M781,432.8c8.2,0,14.8,-6.5,14.8,-14.6c0,-8,-6.6,-14.5,-14.8,-14.5c-8.3,0,-14.9,6.5,-14.9,14.5c0,8.1,6.6,14.6,14.9,14.6Z" class="gb_142"/>
<path d="M781,423.6c3,0,5.4,-2.4,5.4,-5.4c0,-2.9,-2.4,-5.3,-5.4,-5.3c-3.1,0,-5.5,2.4,-5.5,5.3c0,3,2.4,5.4,5.5,5.4Z" class="g1_142"/>
<path d="M781,423.6c3,0,5.4,-2.4,5.4,-5.4c0,-2.9,-2.4,-5.3,-5.4,-5.3c-3.1,0,-5.5,2.4,-5.5,5.3c0,3,2.4,5.4,5.5,5.4Z" class="gc_142"/>
<g clip-path="url(#c3_142)" opacity="0.3">
<path d="M766.4,417.5c0,0,-.1,-4.9,3.6,-8.7l7.8,6.7c0,0,-1,1,-1.1,2.7Z" class="g1_142"/>
</g>
<path d="M785.6,418.1c0,0,-3.5,0,-3.5,3.5v8.7c0,0,0,3.5,3.5,3.5H829c0,0,3.5,0,3.5,-3.5v-8.7c0,0,0,-3.5,-3.5,-3.5Z" class="gd_142"/>
<path d="M169.5,409.2c0,-8.3,-6.7,-15,-15,-15c-8.4,0,-15.1,6.7,-15.1,15c0,8.3,6.8,15.1,15.1,15.1c.8,0,1.6,-.1,2.4,-.2l4.5,5.2v-6.7c4.8,-2.5,8.1,-7.6,8.1,-13.4Z" class="g1_142"/>
<path d="M161.8,430.5l-5.1,-5.9c-.7,.1,-1.5,.1,-2.2,.1c-8.6,0,-15.6,-6.9,-15.6,-15.5c0,-8.5,7,-15.5,15.6,-15.5c8.5,0,15.5,7,15.5,15.5c0,5.7,-3.1,10.9,-8.2,13.7Zm-4.7,-6.9l3.8,4.5v-5.8l.3,-.1c4.8,-2.5,7.9,-7.5,7.9,-13c0,-8,-6.6,-14.6,-14.6,-14.6c-8.1,0,-14.6,6.6,-14.6,14.6c0,8.1,6.5,14.6,14.6,14.6c.7,0,1.5,-.1,2.3,-.2Z" class="ge_142"/>
<path d="M147.4,408.8c.8,0,1.5,.6,1.5,1.4c0,.8,-.7,1.4,-1.5,1.4c-.7,0,-1.4,-.6,-1.4,-1.4c0,-.8,.7,-1.4,1.4,-1.4Z" class="gf_142"/>
<path d="M147.4,412.1c-1,0,-1.8,-.8,-1.8,-1.9c0,-1,.8,-1.9,1.8,-1.9c1.1,0,1.9,.9,1.9,1.9c0,1.1,-.8,1.9,-1.9,1.9m0,-2.9c-.5,0,-.9,.5,-.9,1c0,.6,.4,1,.9,1c.6,0,1,-.4,1,-1c0,-.5,-.4,-1,-1,-1Z" class="ge_142"/>
<path d="M154.5,408.8c.8,0,1.4,.6,1.4,1.4c0,.8,-.6,1.4,-1.4,1.4c-.8,0,-1.5,-.6,-1.5,-1.4c0,-.8,.7,-1.4,1.5,-1.4Z" class="gf_142"/>
<path d="M154.5,412.1c-1.1,0,-1.9,-.8,-1.9,-1.9c0,-1,.8,-1.9,1.9,-1.9c1,0,1.9,.9,1.9,1.9c0,1.1,-.9,1.9,-1.9,1.9m0,-2.9c-.6,0,-1,.5,-1,1c0,.6,.4,1,1,1c.5,0,.9,-.4,.9,-1c0,-.5,-.4,-1,-.9,-1Z" class="ge_142"/>
<path d="M161.5,408.8c.8,0,1.4,.6,1.4,1.4c0,.8,-.6,1.4,-1.4,1.4c-.8,0,-1.5,-.6,-1.5,-1.4c0,-.8,.7,-1.4,1.5,-1.4Z" class="gf_142"/>
<path d="M161.5,412.1c-1.1,0,-1.9,-.8,-1.9,-1.9c0,-1,.8,-1.9,1.9,-1.9c1,0,1.9,.9,1.9,1.9c0,1.1,-.9,1.9,-1.9,1.9m0,-2.9c-.6,0,-1,.5,-1,1c0,.6,.4,1,1,1c.5,0,1,-.4,1,-1c0,-.5,-.5,-1,-1,-1Z" class="ge_142"/>
<path d="M163.4,423.4c0,-9.7,7.9,-17.6,17.6,-17.6c9.7,0,17.6,7.9,17.6,17.6c0,9.8,-7.9,17.7,-17.6,17.7c-.9,0,-1.9,-.1,-2.8,-.3l-5.3,6.1v-7.8c-5.6,-2.9,-9.5,-8.8,-9.5,-15.7Z" class="gg_142"/>
<path d="M172.9,447.4c0,0,-.1,0,-.1,0c-.2,-.1,-.3,-.3,-.3,-.5v-7.5c-5.9,-3.2,-9.6,-9.2,-9.6,-16c0,-9.9,8.2,-18,18.1,-18c10,0,18.1,8.1,18.1,18c0,10,-8.1,18.1,-18.1,18.1c-.8,0,-1.7,0,-2.6,-.2l-5.1,5.9c-.1,.1,-.2,.2,-.4,.2M181,406.3c-9.4,0,-17.1,7.7,-17.1,17.1c0,6.5,3.5,12.3,9.2,15.3c.2,.1,.3,.2,.3,.4v6.6l4.4,-5.2c.1,-.1,.3,-.1,.5,-.1c.9,.1,1.8,.2,2.7,.2c9.5,0,17.2,-7.7,17.2,-17.2c0,-9.4,-7.7,-17.1,-17.2,-17.1Z" class="ge_142"/>
<path d="M189.2,423c.9,0,1.7,.7,1.7,1.6c0,1,-.8,1.7,-1.7,1.7c-.9,0,-1.7,-.7,-1.7,-1.7c0,-.9,.8,-1.6,1.7,-1.6Z" class="g1_142"/>
<path d="M189.2,426.8c-1.2,0,-2.1,-1,-2.1,-2.2c0,-1.1,.9,-2.1,2.1,-2.1c1.2,0,2.1,1,2.1,2.1c0,1.2,-.9,2.2,-2.1,2.2m0,-3.4c-.7,0,-1.2,.6,-1.2,1.2c0,.7,.5,1.2,1.2,1.2c.7,0,1.2,-.5,1.2,-1.2c0,-.6,-.5,-1.2,-1.2,-1.2Z" class="ge_142"/>
<path d="M181,423c.9,0,1.7,.7,1.7,1.6c0,1,-.8,1.7,-1.7,1.7c-.9,0,-1.7,-.7,-1.7,-1.7c0,-.9,.8,-1.6,1.7,-1.6Z" class="g1_142"/>
<path d="M181,426.8c-1.2,0,-2.1,-1,-2.1,-2.2c0,-1.1,.9,-2.1,2.1,-2.1c1.2,0,2.1,1,2.1,2.1c0,1.2,-.9,2.2,-2.1,2.2m0,-3.4c-.7,0,-1.2,.6,-1.2,1.2c0,.7,.5,1.2,1.2,1.2c.7,0,1.2,-.5,1.2,-1.2c0,-.6,-.5,-1.2,-1.2,-1.2Z" class="ge_142"/>
<path d="M172.8,423c.9,0,1.7,.7,1.7,1.6c0,1,-.8,1.7,-1.7,1.7c-.9,0,-1.7,-.7,-1.7,-1.7c0,-.9,.8,-1.6,1.7,-1.6Z" class="g1_142"/>
<path d="M172.8,426.8c-1.2,0,-2.1,-1,-2.1,-2.2c0,-1.1,.9,-2.1,2.1,-2.1c1.2,0,2.1,1,2.1,2.1c0,1.2,-.9,2.2,-2.1,2.2m0,-3.4c-.7,0,-1.2,.6,-1.2,1.2c0,.7,.5,1.2,1.2,1.2c.7,0,1.2,-.5,1.2,-1.2c0,-.6,-.5,-1.2,-1.2,-1.2Z" class="ge_142"/>
<image clip-path="url(#c4_142)" preserveAspectRatio="none" x="78" y="572" width="176" height="252" xlink:href="img/3.png"/>
<path d="M83.7,579l-.2,238.8l164,-2.6l.6,-238Z" class="gh_142"/>
<image clip-path="url(#c5_142)" preserveAspectRatio="none" x="74" y="570" width="186" height="259" xlink:href="img/4.png"/>
<image clip-path="url(#c6_142)" preserveAspectRatio="none" x="74" y="570" width="186" height="258" xlink:href="img/5.png"/>
<path d="M79.3,584L91.1,821.9L222,813.2l31.7,-27.8L243.5,574.5Z" class="gi_142"/>
<path d="M221.9,813.6l32.4,-28.4l-15.2,-3.8Z" class="gj_142"/>
<image clip-path="url(#c7_142)" x="157" y="576" width="6" height="9" xlink:href="shade/1.png"/>
<image clip-path="url(#c8_142)" x="157" y="549" width="24" height="28" xlink:href="shade/2.png"/>
<image clip-path="url(#c9_142)" x="156" y="551" width="23" height="34" xlink:href="shade/3.png"/>
<image clip-path="url(#ca_142)" x="162" y="547" width="20" height="10" xlink:href="shade/4.png"/>
<path d="M375.1,541.4c-17.3,-3.3,-81.4,-13.7,-131.7,2.1m-7.1,3.5c-2.7,3.3,1,7.4,5.4,7.1" class="gk_142"/>
<path d="M248,550.4c2.9,-4.2,-6.4,-7.3,-22.9,-7.6" class="gl_142"/>
<path d="M217.8,542.9c-22.2,1.7,-60.5,14.6,-94.3,34.4" class="gk_142"/>
<path d="M379.6,542.3c0,0,-.5,-.1,-1.5,-.3m-136.2,2c-.5,.2,-.9,.3,-1.4,.5c-.6,.2,-1.1,.4,-1.5,.6m4.3,8.7c.5,-.1,1,-.4,1.5,-.6c.4,-.3,.8,-.6,1.2,-.8m-22.3,-9.6c-.5,0,-.9,0,-1.4,0c-.5,0,-1,0,-1.5,0m-98.6,35.3c-.4,.2,-.8,.5,-1.3,.7" class="gm_142"/>
<path d="M126.6,580l-5.9,-6.6l-5.5,10.8Z" class="gn_142"/>
<image clip-path="url(#cb_142)" preserveAspectRatio="none" x="717" y="585" width="209" height="303" xlink:href="img/6.png"/>
<path d="M728.3,590l-5.9,289.4L915.7,882l4.4,-286.4Z" class="gh_142"/>
<image clip-path="url(#cc_142)" preserveAspectRatio="none" x="717" y="586" width="209" height="305" xlink:href="img/7.png"/>
<image clip-path="url(#cd_142)" preserveAspectRatio="none" x="716" y="586" width="210" height="305" xlink:href="img/8.png"/>
<path d="M721.1,595.5l8.1,288.9l157.9,-5.3l32.7,-25.2L913.5,590.1Z" class="gi_142"/>
<path d="M886.2,880.2l34,-25.8L905.6,848Z" class="gj_142"/>
<path d="M420.8,713.9c18,-.7,32.5,-6.2,35.6,-13.1m-.7,-7c-4.3,-6.5,-18.8,-11.4,-36.3,-11.9m-7.3,0c-18.1,.8,-32.5,6.2,-35.7,13.2m.7,6.9c4.4,6.6,18.9,11.5,36.4,12" class="g3_142"/>
<path d="M456.9,699.4c.1,-.5,.2,-1,.2,-1.5c0,-.5,-.1,-.9,-.2,-1.4m-39,-14.6c-.5,-.1,-1,-.1,-1.5,-.1c-.5,0,-.9,0,-1.4,.1m-39,14.6c-.1,.5,-.2,.9,-.2,1.4c0,.5,.1,1,.2,1.5M415,714c.5,0,.9,0,1.4,0c.5,0,1,0,1.5,0" class="g4_142"/>
<path d="M435.1,683c21.7,1.9,115.4,9,162.6,-4.5m8,-3.2c2.3,-1.6,2.2,-3.3,1.1,-4.7" class="gk_142"/>
<path d="M600,669.2c-5.1,2.8,-10.4,10,7.1,7.3" class="gl_142"/>
<path d="M614.3,675.3c24.4,-3.9,62.2,-5.7,100.9,-32.2" class="gk_142"/>
<path d="M430.5,682.6c0,0,.5,0,1.5,.1m167.1,-4.6c.5,-.2,1,-.3,1.5,-.5c.6,-.2,1.2,-.4,1.7,-.6m3.2,-7.6c-.5,-.4,-1,-.7,-1.6,-1c-.3,-.2,-.8,-.2,-1.3,-.2m5.8,8.1c.5,-.1,.9,-.2,1.4,-.2c.5,-.1,1,-.2,1.5,-.3M716.4,642.3c.4,-.3,.8,-.6,1.2,-.9" class="gm_142"/>
<path d="M714.2,639.4l5.7,6.7l5.7,-10.7Z" class="gn_142"/>
<image clip-path="url(#ce_142)" x="824" y="591" width="6" height="9" xlink:href="shade/5.png"/>
<image clip-path="url(#cf_142)" x="823" y="564" width="25" height="28" xlink:href="shade/6.png"/>
<image clip-path="url(#cg_142)" x="823" y="566" width="23" height="34" xlink:href="shade/7.png"/>
<image clip-path="url(#ch_142)" x="829" y="563" width="20" height="9" xlink:href="shade/8.png"/>
<path d="M32.1,179.3H967.5V32.1H32.1V179.3Z" class="go_142"/>
<path d="M255.5,147.1c-.7,-.1,-1.3,-.1,-1.7,0c-.5,0,-1,-.1,-1.4,-.2c-1.3,-.3,-1.9,-1,-1.9,-2.3c0,-.4,.1,-.7,.2,-.8l-.5,-.5c-.1,.5,-.2,.9,-.3,1.2c0,.4,-.1,.7,-.1,.9c0,.7,.2,1.3,.5,1.8c.4,.5,.8,.9,1.4,1.1c.4,.2,.9,.3,1.4,.3c.6,.1,1.2,.1,1.9,.1h2.1c.7,.1,1.2,.4,1.6,.9c.4,.4,.6,.7,.8,.9c.2,.2,.3,.3,.3,.4v-9.1l-1,1v6.1c-.8,-1.1,-1.8,-1.7,-3.3,-1.8Zm6.1,-11.9L260.4,134h-13l1.2,1.2h5v4.1c0,1.7,.6,2.6,1.7,2.6c.3,-.1,.7,-.2,1,-.3c.4,-.2,.7,-.3,1,-.6c.3,-.2,.6,-.4,.8,-.7c.2,-.3,.4,-.6,.5,-.9c.5,.5,.7,1,.7,1.6c0,.5,-.2,1.1,-.5,1.5c-.3,.5,-.8,.9,-1.3,1.2c-.6,.3,-1.2,.4,-1.8,.4c-1.7,0,-3.1,-.9,-4,-2.7c-.4,-.7,-.7,-1.5,-.9,-2.3c-.2,-.9,-.4,-1.8,-.5,-2.7l-.8,-.4c.7,6.8,2.8,10.3,6.3,10.3c1.4,0,2.5,-.5,3.3,-1.4c.7,-.9,1.1,-2,1.1,-3.4c0,-.4,-.1,-.8,-.2,-1.2c-.1,-.4,-.2,-.8,-.4,-1.1c-.2,-.4,-.4,-.7,-.7,-1c-.2,-.3,-.5,-.6,-.9,-.8c-.2,.2,-.5,.5,-.7,.8c-.2,.4,-.5,.7,-.7,1c-.2,.3,-.5,.5,-.8,.7c-.3,.1,-.6,.2,-1,.1v-4.8h6.8Zm4.7,0L265.2,134h-1.1c-.4,-.4,-.6,-1,-.7,-1.9l-.5,-.3c0,.2,0,.5,0,.9c.1,.3,.1,.7,.1,1.2c.1,.5,.1,.9,.1,1.3c0,.3,0,.6,0,.9c-.2,-.8,-.5,-1.3,-.9,-1.6c-.4,-.3,-1,-.5,-1.7,-.5h-1.4l1.2,1.2c.3,0,.7,.1,1,.2c.3,.1,.6,.3,.8,.5c.3,.2,.5,.4,.6,.7c.2,.3,.2,.7,.2,1v8.9l1.2,1.2V135.2h2.2ZM276.4,134h-1c0,-1.1,-.3,-2,-1.1,-2.5c-.8,-.6,-1.9,-.9,-3.4,-.9c-.9,.1,-1.5,.1,-2.1,.2c-.5,0,-.8,0,-1,0c-.4,0,-.8,-.1,-1.2,-.3c-.4,-.3,-.6,-.6,-.6,-1c0,-.4,.2,-.8,.5,-1q-.1,0,-.2,0c0,0,-.1,0,-.1,0c-.2,-.1,-.4,.1,-.6,.5c-.2,.3,-.3,.6,-.3,.8c0,.8,.5,1.5,1.3,2c.8,.4,1.6,.7,2.5,.7c.2,0,.5,-.1,.7,-.1c.3,0,.7,0,1.1,0c.4,-.1,.7,-.1,1,-.1c.3,0,.6,0,.8,0c.2,0,.4,0,.5,0c.2,0,.4,.1,.5,.1c.6,.2,.8,.4,.8,.7c0,.3,-.2,.5,-.7,.7c-.1,.1,-.3,.1,-.5,.1c-.2,.1,-.3,.1,-.5,.1h-8.1l1.2,1.2h3.8c.6,.4,.8,.7,.8,1c-.7,0,-1.4,.3,-1.9,.8c-.6,.5,-.9,1.1,-.9,1.8c0,.4,.2,.7,.5,.9c.3,.2,.6,.3,1,.3c.5,0,1.1,-.2,1.6,-.7c.4,-.5,.7,-1,.7,-1.6c.1,0,.2,0,.3,-.1c.1,0,.2,0,.3,0c.3,0,.5,.1,.7,.2c.2,.1,.4,.2,.5,.4c.2,.2,.3,.4,.4,.7c0,.2,.1,.5,.1,.7c0,.8,-.5,1.5,-1.4,2c-.8,.3,-1.6,.5,-2.5,.4c-1.2,-.1,-2.3,-.4,-3.4,-1l1.5,3c.8,.2,1.7,.5,2.6,.9c.9,.3,1.7,.7,2.5,1.2c.9,.5,1.6,1,2.3,1.5c.7,.6,1.3,1.2,1.9,1.9l-.3,-1.3c-1,-1.1,-2,-2,-3,-2.8c-.9,-.8,-1.7,-1.4,-2.6,-1.9c1.2,-.3,2.1,-.7,2.7,-1.2c.8,-.6,1.2,-1.5,1.2,-2.4c0,-1,-.3,-1.8,-1,-2.5c-.4,-.5,-1.2,-.9,-2.4,-1.3c-.1,-.2,-.2,-.3,-.4,-.5c-.1,-.1,-.2,-.2,-.3,-.4h6.4L276.4,134Zm14.4,1.2L289.5,134H276.1l1.3,1.2h13.4Zm-1.7,2.9c-.3,-.5,-.6,-.9,-.9,-1.1c-.3,-.3,-.6,-.5,-.9,-.5c-.2,.3,-.4,.6,-.6,.9c-.1,.3,-.3,.6,-.6,.8c-.6,.7,-1.2,1,-1.7,.9c.3,-.4,.5,-.9,.5,-1.2c0,-.4,-.1,-.8,-.4,-1.1c-.4,-.2,-.7,-.4,-1.1,-.4c-1.3,0,-2,.7,-2,1.9c0,.8,.3,1.4,.9,1.9c.5,.4,1.1,.6,1.9,.6c1.5,0,2.8,-.6,3.9,-1.9c.3,0,.5,.6,.5,1.7c0,.9,-.3,1.7,-1,2.3c-.6,.7,-1.4,1,-2.3,1c-.8,0,-1.6,-.2,-2.4,-.7c-.8,-.4,-1.5,-1,-2.1,-1.7c-.4,-.6,-.9,-1.4,-1.3,-2.2c-.4,-.8,-.8,-1.7,-1,-2.7l-.8,-.2c.5,1.4,.9,2.7,1.3,3.7c.4,1,.8,1.8,1.1,2.3c1.4,2.3,3,3.5,5,3.5c1.4,0,2.6,-.6,3.4,-1.6c.5,-.5,.8,-1.1,1,-1.7c.2,-.6,.3,-1.3,.3,-2c0,-.7,-.3,-1.5,-.7,-2.5Zm6.3,-2.9L294.3,134h-1.1c-.4,-.4,-.6,-1,-.8,-1.9l-.4,-.3c0,.2,0,.5,0,.9c.1,.3,.1,.7,.1,1.2c0,.5,.1,.9,.1,1.3c0,.3,0,.6,0,.9c-.2,-.8,-.6,-1.3,-1,-1.6c-.4,-.3,-.9,-.5,-1.6,-.5h-1.4l1.2,1.2c.3,0,.7,.1,1,.2c.3,.1,.6,.3,.8,.5c.3,.2,.5,.4,.6,.7c.2,.3,.2,.7,.2,1v8.9l1.2,1.2V135.2h2.2Zm11.2,0L305.4,134H293.6l1.2,1.2h8.1v.9c-2.5,.8,-4.9,2.1,-7.3,3.7l1.6,2.3h-.1c1.7,.1,3.1,.7,4.1,1.6c.3,.3,.6,.6,1,1c.3,.4,.5,.8,.7,1c.1,.3,.3,.7,.5,1.3l.7,.8V135.2h2.5Zm-3.7,9.4c-1,-1.8,-2.6,-3.2,-4.8,-4.1c.9,-.6,1.7,-1.1,2.5,-1.5c.8,-.4,1.6,-.7,2.3,-1v6.6Zm-4.7,1.7c.3,.3,.6,.4,.9,.4c.4,0,.7,-.1,.9,-.4c.2,-.2,.4,-.5,.4,-.8c0,-.4,-.2,-.7,-.4,-.9c-.2,-.3,-.5,-.4,-.9,-.4c-.3,0,-.6,.1,-.9,.4c-.2,.2,-.3,.5,-.3,.9c0,.3,.1,.6,.3,.8Zm28,-14.4c-2.3,-2.4,-4.8,-3.6,-7.3,-3.6c-1,0,-2,.4,-3.1,1.2c-1,.9,-1.6,1.8,-1.6,2.7c0,.4,.2,.7,.5,1l.8,.8h-3.2l1.2,1.2h1.8v11.3l1.2,1.2V135.2h2.1L317.4,134h-1.3l-.4,-1.1c0,-.9,.6,-1.6,1.6,-2.3c.9,-.7,1.9,-1,2.8,-1c.6,0,1.2,.1,1.7,.2c.6,.2,1.2,.4,1.7,.7c.6,.4,1.2,.7,1.6,1c.5,.4,.9,.7,1.3,1l-.2,-.6Zm3.9,3.3L328.9,134H317.1l1.2,1.2h1.3v7.1l1.6,1.7c.5,-1.1,1.2,-2.1,2.1,-2.9c.9,-.9,1.8,-1.5,2.9,-1.9c-.3,1,-.4,2.1,-.4,3.1c0,.6,.1,1.3,.2,2.2c.1,.8,.3,1.8,.5,3l.9,.4c-.3,-1.6,-.5,-2.8,-.5,-3.7c0,-.9,.1,-1.8,.4,-2.8c.3,-1,.7,-2,1.3,-3l-2,-1.5c-.4,.1,-.8,.3,-1.3,.6c-.5,.2,-1,.5,-1.5,.8c-.5,.4,-1,.7,-1.5,1.2c-.5,.4,-1,.8,-1.4,1.3v-5.6h9.2Zm6,-1.2h-8l1.2,1.2h4c-1.7,2,-2.6,4,-2.6,6.1c0,1.5,.4,2.8,1,3.9c.7,1.4,1.8,2.1,3.2,2.1c.3,0,.6,0,.8,-.1c.3,-.1,.5,-.2,.7,-.4c.2,-.2,.4,-.4,.5,-.7c.1,-.2,.2,-.5,.2,-.8c0,-.4,-.2,-.9,-.5,-1.2c-.3,-.3,-.6,-.5,-1,-.5c-.4,0,-.7,.2,-1,.4c-.3,.3,-.5,.6,-.5,1c0,.2,.1,.4,.2,.7c.1,.2,.3,.4,.6,.6c-.7,.2,-1.5,-.2,-2.2,-1.3c-.5,-.7,-.7,-1.5,-.7,-2.3c0,-1,.1,-1.9,.3,-2.7c.2,-.7,.5,-1.4,.9,-2.1c.5,-.7,1,-1.3,1.7,-1.7c.7,-.5,1.4,-.8,2.3,-1L336.1,134Zm11.7,1.2L346.5,134H335.4c.6,1,1.7,1.7,3.3,2.2c.7,.2,1.3,.4,1.7,.6c.4,.2,.7,.4,.8,.6c-.5,.4,-1.1,.8,-1.7,1.4c-.6,.5,-1.2,1.1,-1.9,1.7l1.6,2.1c1.5,.1,2.7,.5,3.6,1.2c.5,.5,1.1,1.2,1.7,2.3c.6,1,1,1.6,1.3,1.8V135.2h2Zm-3.1,9.5h-.1c-1,-1.7,-2.5,-2.9,-4.5,-3.6c.5,-.5,1,-1.1,1.5,-1.6c.5,-.5,1,-.9,1.4,-1.4c-.6,-.7,-1.1,-1.3,-1.6,-1.8c-.5,-.5,-1,-.9,-1.3,-1.1h4.6v9.5Zm-4.7,2c.3,.2,.5,.3,.9,.3c.3,0,.6,-.1,.8,-.3c.3,-.3,.4,-.6,.4,-.9c0,-.3,-.1,-.6,-.4,-.9c-.2,-.2,-.5,-.3,-.8,-.3c-.4,0,-.6,.1,-.9,.3c-.2,.3,-.4,.6,-.4,.9c0,.3,.2,.6,.4,.9Zm30.3,-11.5L369,134H353.9l1.2,1.2h7.8v1c-2.6,.8,-4.9,2.1,-7,3.7l1.7,2.1c1.4,.1,2.6,.7,3.7,1.8c.4,.5,.9,1,1.2,1.6c.4,.7,.8,1.3,1.1,2q0,.1,.1,.2c.1,0,.2,.1,.3,.1v-10c1.2,0,2.1,.3,2.8,1c.6,.7,1,1.4,1,2.2l-.2,.3c-.1,-.2,-.3,-.3,-.5,-.4c-.2,-.2,-.4,-.2,-.6,-.2c-.4,0,-.8,.1,-1,.4c-.3,.2,-.4,.5,-.4,.9c0,.2,0,.4,.1,.6c.1,.2,.2,.3,.4,.5c.1,.1,.3,.2,.5,.3c.1,.1,.3,.1,.5,.1c.3,0,.6,-.1,.8,-.2c.3,-.1,.5,-.3,.7,-.5c.1,-.2,.3,-.4,.4,-.7c.1,-.3,.1,-.5,.1,-.8c0,-1.3,-.4,-2.4,-1.2,-3.4c-.9,-1.2,-2,-1.7,-3.4,-1.7v-.9h6.3Zm-7.5,9.1c-1,-1.8,-2.5,-3.1,-4.5,-4c.8,-.5,1.6,-1,2.3,-1.4c.8,-.4,1.5,-.8,2.2,-1.1v6.5ZM376.4,134h-7.9l1.2,1.2h3.9c-1.7,2,-2.5,4,-2.5,6.1c0,1.5,.3,2.8,.9,3.9c.8,1.4,1.8,2.1,3.2,2.1c.3,0,.6,0,.9,-.1c.2,-.1,.5,-.2,.7,-.4c.2,-.2,.3,-.4,.4,-.7c.1,-.2,.2,-.5,.2,-.8c0,-.4,-.1,-.9,-.4,-1.2c-.3,-.3,-.7,-.5,-1.1,-.5c-.3,0,-.7,.2,-1,.4c-.3,.3,-.4,.6,-.4,1c0,.2,0,.4,.2,.7c.1,.2,.3,.4,.5,.6c-.7,.2,-1.4,-.2,-2.2,-1.3c-.4,-.7,-.7,-1.5,-.7,-2.3c0,-1,.1,-1.9,.3,-2.7c.2,-.7,.6,-1.4,1,-2.1c.4,-.7,1,-1.3,1.6,-1.7c.7,-.5,1.5,-.8,2.4,-1L376.4,134Zm12.1,1.2L387.3,134H375.6l1.1,1.2h8.2v.9c-2.5,.8,-4.9,2.1,-7.3,3.7l1.6,2.3h-.1c1.7,.1,3.1,.7,4.1,1.6c.3,.3,.6,.6,.9,1c.4,.4,.6,.8,.8,1c.1,.3,.3,.7,.5,1.3l.7,.8V135.2h2.4Zm-3.6,9.4c-1,-1.8,-2.7,-3.2,-4.8,-4.1c.9,-.6,1.7,-1.1,2.5,-1.5c.8,-.4,1.6,-.7,2.3,-1v6.6Zm-4.7,1.7c.3,.3,.6,.4,.9,.4c.3,0,.6,-.1,.9,-.4c.2,-.2,.3,-.5,.3,-.8c0,-.4,-.1,-.7,-.3,-.9c-.3,-.3,-.6,-.4,-.9,-.4c-.3,0,-.6,.1,-.9,.4c-.2,.2,-.3,.5,-.3,.9c0,.3,.1,.6,.3,.8ZM401.7,134c-.5,0,-1,.2,-1.5,.4c-.4,.3,-.9,.5,-1.3,.8c-.7,.8,-1.3,1.8,-1.8,2.8c-.4,1,-.6,2.1,-.7,3.3c0,1.5,.3,2.8,1,3.9c.7,1.4,1.8,2.1,3.2,2.1c.3,0,.5,0,.8,-.1c.3,-.1,.5,-.2,.7,-.4c.2,-.2,.4,-.4,.5,-.7c.1,-.2,.1,-.5,.1,-.8c0,-.4,-.1,-.9,-.4,-1.2c-.3,-.3,-.6,-.5,-1,-.5c-.2,0,-.4,.1,-.6,.1c-.1,.1,-.3,.2,-.4,.3c-.2,.2,-.3,.3,-.4,.4c0,.2,-.1,.4,-.1,.6c0,.2,.1,.4,.2,.7c.1,.2,.3,.4,.6,.6c-.1,0,-.2,.1,-.3,.1h-.1c-.7,0,-1.4,-.5,-1.9,-1.4c-.4,-.7,-.6,-1.5,-.6,-2.3c0,-1,.1,-1.9,.3,-2.7c.2,-.7,.5,-1.4,.9,-2.1c.5,-.7,1,-1.3,1.7,-1.7c.6,-.5,1.4,-.8,2.3,-1L401.7,134Zm12.6,1.2L413.1,134H401.3l1.2,1.2h1.3v7.1l1.6,1.7c.5,-1.1,1.2,-2.1,2.1,-2.9c.9,-.9,1.8,-1.5,2.9,-1.9c-.3,1,-.4,2.1,-.4,3.1c0,.6,.1,1.3,.2,2.2c.1,.8,.3,1.8,.5,3l.9,.4c-.4,-1.6,-.5,-2.8,-.5,-3.7c0,-.9,.1,-1.8,.4,-2.8c.3,-1,.7,-2,1.3,-3l-2,-1.5c-.4,.1,-.9,.3,-1.3,.6c-.5,.2,-1,.5,-1.5,.8c-.5,.4,-1.1,.7,-1.5,1.2c-.5,.4,-1,.8,-1.4,1.3v-5.6h9.2ZM424.7,134c-.5,-.1,-.8,-.2,-1,-.6c0,-.1,-.1,-.2,-.1,-.5c0,-.2,0,-.5,0,-.7l-.7,-.4v12.3c-.8,-1.4,-2.1,-2.5,-3.8,-3.4c.7,-.2,1.4,-.6,1.9,-1.2c.6,-.6,.8,-1.3,.8,-2c0,-.7,-.2,-1.3,-.8,-1.9c-.1,-.1,-.3,-.2,-.5,-.5c-.3,-.3,-.7,-.6,-1.2,-1c-.2,.3,-.5,.5,-.7,.8c-.3,.2,-.4,.3,-.4,.4c-.3,.2,-.5,.3,-.8,.5c-.2,.1,-.5,.2,-.7,.2c-.1,-.7,-.4,-1.1,-1.2,-1.1c-.3,0,-.6,.2,-.9,.4c-.2,.3,-.3,.6,-.3,.9c0,.5,.1,.9,.5,1.2c.3,.3,.8,.5,1.2,.5c1.4,0,2.7,-.7,4,-2c.4,.4,.6,.8,.6,1.3c0,.4,-.1,.7,-.5,1c-.3,.2,-.7,.5,-1.2,.8c-.5,.2,-1,.3,-1.4,.4c-.5,.1,-.9,.2,-1.3,.2c-.2,0,-.3,0,-.5,-.1c-.1,0,-.3,0,-.5,0l2.1,2.5c1.1,.1,2.2,.4,3.1,1c.5,.3,1,.6,1.4,1c.4,.4,.7,.9,1,1.3c.1,.1,.1,.3,.2,.5c.1,.2,.2,.5,.3,.8c.1,.2,.2,.3,.3,.5c.2,.2,.3,.4,.5,.5V135.2h1.8L424.7,134Zm2.1,16.6c-.1,-.1,-.2,-.3,-.3,-.5c-.1,-.1,-.3,-.4,-.5,-.6c-.3,-.4,-.6,-.7,-1,-1c-.3,-.4,-.6,-.7,-.9,-1c0,-.3,0,-.7,0,-1.1c0,-.5,-.1,-.9,-.3,-1.2l-1,-.7c.1,.5,.2,1,.2,1.4c0,.5,0,.8,-.1,1c-.7,-.4,-1.3,-.6,-1.8,-.6c-.3,0,-.5,0,-.8,.1c-.3,.1,-.5,.2,-.7,.4c-.2,.2,-.4,.4,-.5,.6c-.1,.2,-.2,.5,-.2,.8c0,.5,.3,1,.7,1.3c.5,.4,1,.5,1.6,.5c1,0,1.9,-.5,2.5,-1.4c.2,.1,.5,.3,.8,.5c.2,.3,.5,.5,.8,.8c.3,.2,.5,.5,.8,.8c.3,.3,.5,.6,.7,.9v-1Zm-4.8,-3c.2,.1,.3,.2,.5,.3c-.1,.3,-.4,.5,-.7,.7c-.4,.2,-.7,.2,-1.1,.2c-.4,-.1,-.6,-.3,-.6,-.7c.1,-.4,.5,-.7,1.3,-.7c.2,0,.4,.1,.6,.2Zm15.2,-12.4L436,134H424.3l1.2,1.2h8.4v6.6c-1.3,-2.6,-2.8,-4,-4.5,-4c-.7,0,-1.4,.3,-2.1,.9c-.5,.5,-.8,1.2,-.8,2c0,1.5,.8,2.2,2.3,2.2c.5,0,.9,-.2,1.2,-.5c.3,-.4,.4,-.8,.4,-1.3c0,-.3,-.2,-.8,-.7,-1.5c0,-.1,.1,-.1,.3,-.1c1.3,0,2.4,.8,3.3,2.5c.7,1.4,1,2.9,1,4.2l-.1,1.3l.9,.6V135.2h2.1Z" class="gp_142"/>
<g clip-path="url(#c0_142)">
<path d="M1877,177.2H32.1v-5.4H768.7c43.1,0,53,-37.9,115.3,-37.9h993Z" class="gq_142"/>
<path d="M1877,183.7H32.1v-9.8H768.7c43.1,0,53,-33.6,115.3,-33.6h993Z" class="gr_142"/>
</g>
<image clip-path="url(#ci_142)" preserveAspectRatio="none" x="125" y="206" width="734" height="181" xlink:href="img/9.png"/>
<path d="M144.6,231.3c0,0,-13,0,-13,13v117c0,0,0,13,13,13H833.1c0,0,13,0,13,-13v-130Z" class="gs_142"/>
<path d="M147.7,294.1l54.1,40.8l54.1,-40.8V230h8.7V211.9H155.8c-6.5,.4,-7.7,3.9,-8.2,8.4Z" class="gt_142"/>
<path d="M274,220.3c-.3,-4.7,-4.2,-8.4,-9,-8.4c-4.8,0,-8.7,3.7,-9,8.4h-.1V230h18.2v-9.7Z" class="gd_142"/>
<path d="M255.9,230.6H846.1" class="gu_142"/>
<path d="M32.1,45.1H9.2m958.3,0h22.9M32.1,1331.3H9.2m958.3,0h22.9M45.1,32.1V9.2m0,1335.1v22.9M954.5,32.1V9.2m0,1335.1v22.9" class="gv_142"/>
<path d="M32.1,45.1H9.2m958.3,0h22.9M32.1,1331.3H9.2m958.3,0h22.9M45.1,32.1V9.2m0,1335.1v22.9M954.5,32.1V9.2m0,1335.1v22.9" class="gw_142"/>
<path d="M27.5,32.1H0m972.1,0h27.5M27.5,1344.3H0m972.1,0h27.5M32.1,27.5V0m0,1348.9v27.5M967.5,27.5V0m0,1348.9v27.5" class="gv_142"/>
<path d="M27.5,32.1H0m972.1,0h27.5M27.5,1344.3H0m972.1,0h27.5M32.1,27.5V0m0,1348.9v27.5M967.5,27.5V0m0,1348.9v27.5" class="gw_142"/>
</svg>