<?xml version="1.0" encoding="UTF-8" standalone="no"?>
<!DOCTYPE svg PUBLIC "-//W3C//DTD SVG 1.1//EN"
"http://www.w3.org/Graphics/SVG/1.1/DTD/svg11.dtd">
<svg viewBox="0 0 999 1376" version="1.1" xmlns="http://www.w3.org/2000/svg" xmlns:xlink="http://www.w3.org/1999/xlink">
<defs>
<clipPath id="c0_338"><path d="M170.9,398.6V290.8H303.4V398.6Z"/></clipPath>
<clipPath id="c1_338"><path d="M341.6,398.6V289.5H474.2V398.6Z"/></clipPath>
<clipPath id="c2_338"><path d="M512.4,398.6V289.5H645V398.6Z"/></clipPath>
<clipPath id="c3_338"><path d="M683.2,398.6V289.5H815.7V398.6Z"/></clipPath>
<clipPath id="c4_338"><path d="M170.9,594.1V484.9H303.4V594.1Z"/></clipPath>
<clipPath id="c5_338"><path d="M343.8,594.1V484.9H474.2V594.1Z"/></clipPath>
<clipPath id="c6_338"><path d="M524.1,588.2V484.9H644.7V588.2Z"/></clipPath>
<clipPath id="c7_338"><path d="M694.9,594.1V484.9H804V594.1Z"/></clipPath>
<clipPath id="c8_338"><path d="M184,831.1V680.5H343.7V831.1Z"/></clipPath>
<clipPath id="c9_338"><path d="M416.4,831.1V682.9H568.3V831.1Z"/></clipPath>
<clipPath id="ca_338"><path d="M647.3,831.1V680.7h152V831.1Z"/></clipPath>
<clipPath id="cb_338"><path d="M178.9,251.2L172.4,249L156,235.1V178h71.9v73.2Z"/></clipPath>
<style type="text/css"><![CDATA[
.g0_338{
fill: #FEFCF4;
}
.g1_338{
fill: #FFF;
}
.g2_338{
fill: none;
stroke: #6381B7;
stroke-width: 0.763;
}
.g3_338{
fill: none;
stroke: #949698;
stroke-width: 0.42;
}
.g4_338{
fill: none;
stroke: #949698;
stroke-width: 0.579;
}
.g5_338{
fill: #FCE8B0;
}
.g6_338{
fill: none;
stroke: #00ABE5;
stroke-width: 2.291;
}
.g7_338{
fill: #3D3B39;
}
.g8_338{
fill: #E5E9B7;
}
.g9_338{
fill: #61C7CB;
}
.ga_338{
fill: none;
stroke: #00ABE5;
stroke-width: 1.527;
stroke-linecap: round;
stroke-linejoin: round;
stroke-dasharray: 0,5;
}
.gb_338{
fill: none;
stroke: #00ABE5;
stroke-width: 1.527;
stroke-linecap: round;
stroke-linejoin: round;
}
.gc_338{
fill: #25408F;
}
.gd_338{
fill: #6381B7;
}
.ge_338{
fill: #00BAF1;
}
.gf_338{
fill: #332D2C;
}
.gg_338{
fill: #D9DFF0;
}
.gh_338{
fill: #F27C85;
}
.gi_338{
fill: #7DD3F6;
}
.gj_338{
fill: none;
stroke: #FFF;
stroke-width: 1.909;
stroke-miterlimit: 10;
}
.gk_338{
fill: none;
stroke: #000;
stroke-width: 0.381;
stroke-miterlimit: 10;
}
]]></style>
</defs>
<path d="M32.1,1343.2H954.5V32.1H32.1V1343.2Z" class="g0_338"/>
<path d="M150.9,135c0,0,-18.3,0,-18.3,18.3V914.2c0,0,0,18.3,18.3,18.3H828c0,0,18.4,0,18.4,-18.3V135Z" class="g1_338"/>
<path d="M150.9,135c0,0,-18.3,0,-18.3,18.3V914.2c0,0,0,18.3,18.3,18.3H828c0,0,18.4,0,18.4,-18.3V135H150.9Z" class="g2_338"/>
<path d="M170.9,398.6H303.4V289.5H170.9V398.6Z" class="g1_338"/>
<image clip-path="url(#c0_338)" preserveAspectRatio="none" x="171" y="291" width="132" height="109" xlink:href="img/1.jpg"/>
<path d="M170.9,398.6H303.4V289.5H170.9V398.6Z" class="g3_338"/>
<path d="M341.6,398.6H474.2V289.5H341.6V398.6Z" class="g1_338"/>
<image clip-path="url(#c1_338)" preserveAspectRatio="none" x="342" y="288" width="132" height="112" xlink:href="img/2.jpg"/>
<path d="M341.6,398.6H474.2V289.5H341.6V398.6Z" class="g3_338"/>
<path d="M512.4,398.6H645V289.5H512.4V398.6Z" class="g1_338"/>
<image clip-path="url(#c2_338)" preserveAspectRatio="none" x="512" y="288" width="133" height="112" xlink:href="img/3.jpg"/>
<path d="M512.4,398.6H645V289.5H512.4V398.6Z" class="g3_338"/>
<path d="M683.2,398.6H815.7V289.5H683.2V398.6Z" class="g1_338"/>
<image clip-path="url(#c3_338)" preserveAspectRatio="none" x="683" y="288" width="133" height="112" xlink:href="img/4.jpg"/>
<path d="M683.2,398.6H815.7V289.5H683.2V398.6Z" class="g3_338"/>
<path d="M170.9,594.1H303.4V484.9H170.9V594.1Z" class="g1_338"/>
<image clip-path="url(#c4_338)" preserveAspectRatio="none" x="171" y="483" width="132" height="113" xlink:href="img/5.jpg"/>
<path d="M170.9,594.1H303.4V484.9H170.9V594.1Z" class="g3_338"/>
<path d="M341.6,594.1H474.2V484.9H341.6V594.1Z" class="g1_338"/>
<image clip-path="url(#c5_338)" preserveAspectRatio="none" x="344" y="484" width="132" height="112" xlink:href="img/6.jpg"/>
<path d="M341.6,594.1H474.2V484.9H341.6V594.1Z" class="g3_338"/>
<path d="M511.4,594.1H646V484.9H511.4V594.1Z" class="g1_338"/>
<image clip-path="url(#c6_338)" preserveAspectRatio="none" x="524" y="483" width="121" height="105" xlink:href="img/7.jpg"/>
<path d="M511.4,594.1H646V484.9H511.4V594.1Z" class="g3_338"/>
<path d="M683.2,594.1H815.7V484.9H683.2V594.1Z" class="g1_338"/>
<image clip-path="url(#c7_338)" preserveAspectRatio="none" x="695" y="485" width="109" height="109" xlink:href="img/8.jpg"/>
<path d="M683.2,594.1H815.7V484.9H683.2V594.1Z" class="g3_338"/>
<path d="M171,831.1H353.8V680.5H171V831.1Z" class="g1_338"/>
<image clip-path="url(#c8_338)" preserveAspectRatio="none" x="184" y="679" width="160" height="154" xlink:href="img/9.jpg"/>
<path d="M171,831.1H353.8V680.5H171V831.1Z" class="g4_338"/>
<path d="M401.2,831.1H584.1V680.5H401.2V831.1Z" class="g1_338"/>
<image clip-path="url(#c9_338)" preserveAspectRatio="none" x="416" y="683" width="152" height="150" xlink:href="img/10.jpg"/>
<path d="M401.2,831.1H584.1V680.5H401.2V831.1Z" class="g4_338"/>
<path d="M630,831.1H815.7V680.5H630V831.1Z" class="g1_338"/>
<image clip-path="url(#ca_338)" preserveAspectRatio="none" x="647" y="681" width="152" height="152" xlink:href="img/11.jpg"/>
<path d="M630,831.1H815.7V680.5H630V831.1Z" class="g4_338"/>
<path d="M211.5,180.2c0,0,-13,0,-13,13v47.6c0,0,0,13,13,13h602c0,0,13,0,13,-13V193.2c0,0,0,-13,-13,-13Z" class="g5_338"/>
<image clip-path="url(#cb_338)" preserveAspectRatio="none" x="154" y="176" width="75" height="77" xlink:href="img/12.png"/>
<path d="M206.3,246.5c0,0,-26.9,11.3,-51.1,-12.8c0,0,15.1,25.3,49.3,24c0,0,24.7,.3,20.2,-10.2c0,0,1.2,-4.4,-18.4,-1Z" class="g5_338"/>
<path d="M132.8,1098.3v-28.7c0,0,0,-4.4,4.4,-4.4H840.8c0,0,4.3,0,4.3,4.4v29.1" class="g6_338"/>
<path d="M178.4,1065.8c2.7,0,4.8,-2.2,4.8,-4.8c0,-2.7,-2.1,-4.8,-4.8,-4.8c-2.6,0,-4.8,2.1,-4.8,4.8c0,2.6,2.2,4.8,4.8,4.8Z" class="g1_338"/>
<path d="M178.4,1067.7c3.7,0,6.7,-3,6.7,-6.7c0,-3.7,-3,-6.7,-6.7,-6.7c-3.7,0,-6.7,3,-6.7,6.7c0,3.7,3,6.7,6.7,6.7m0,-11.5c2.7,0,4.8,2.1,4.8,4.8c0,2.6,-2.1,4.8,-4.8,4.8c-2.6,0,-4.8,-2.2,-4.8,-4.8c0,-2.7,2.2,-4.8,4.8,-4.8Z" class="g7_338"/>
<path d="M183.8,1069.6H173c-.2,0,-.3,0,-.5,0c2.8,1.1,5,3.3,5.9,6.2c1.3,-.5,2.8,-.8,4.3,-.8c2.8,0,5.4,1,7.4,2.7v-1.8c0,-3.5,-2.8,-6.3,-6.3,-6.3Z" class="g1_338"/>
<path d="M162.3,1066.6c3.4,0,6.2,-2.7,6.2,-6.1c0,-3.4,-2.8,-6.2,-6.2,-6.2c-3.3,0,-6.1,2.8,-6.1,6.2c0,3.4,2.8,6.1,6.1,6.1Z" class="g8_338"/>
<path d="M162.3,1068.5c4.5,0,8.1,-3.6,8.1,-8c0,-4.4,-3.6,-8,-8.1,-8c-4.4,0,-8,3.6,-8,8c0,4.4,3.6,8,8,8m0,-14.2c3.4,0,6.2,2.8,6.2,6.2c0,3.4,-2.8,6.1,-6.2,6.1c-3.3,0,-6.1,-2.7,-6.1,-6.1c0,-3.4,2.8,-6.2,6.1,-6.2Z" class="g7_338"/>
<path d="M176.7,1076.6c-1,-3.3,-4,-5.7,-7.7,-5.7H155.7c-4.5,0,-8,3.5,-8,8v4.3h23.7c.9,-2.8,2.8,-5.1,5.3,-6.6Z" class="g8_338"/>
<path d="M182.7,1076.9c-5.5,0,-10,4.5,-10,10c0,5.5,4.5,9.9,10,9.9c5.5,0,10,-4.4,10,-9.9c0,-5.5,-4.5,-10,-10,-10m6.6,11.7c0,.2,-.2,.4,-.4,.4h-4.1v4.1c0,.2,-.2,.4,-.4,.4H181c-.3,0,-.5,-.2,-.5,-.4V1089h-4c-.3,0,-.5,-.2,-.5,-.4v-3.4c0,-.3,.2,-.5,.5,-.5h4v-4c0,-.3,.2,-.5,.5,-.5h3.4c.2,0,.4,.2,.4,.5v4h4.1c.2,0,.4,.2,.4,.5Z" class="g9_338"/>
<path d="M192,1079.6v-3.7c0,-4.5,-3.6,-8.2,-8.2,-8.2H173c-1.6,0,-3.1,.5,-4.4,1.3H155.7c-5.5,0,-9.9,4.4,-9.9,9.9v5.2c0,.5,.4,1,.9,1H171c-.1,.6,-.2,1.2,-.2,1.8c0,6.5,5.3,11.8,11.9,11.8c6.5,0,11.8,-5.3,11.8,-11.8c0,-2.8,-.9,-5.3,-2.5,-7.3m-9.3,17.2c-5.5,0,-10,-4.4,-10,-9.9c0,-5.5,4.5,-10,10,-10c5.5,0,10,4.5,10,10c0,5.5,-4.5,9.9,-10,9.9m-35,-17.9c0,-4.5,3.5,-8,8,-8H169c3.7,0,6.7,2.4,7.7,5.7c-2.5,1.5,-4.4,3.8,-5.3,6.6H147.7Zm42.4,-1.2c-2,-1.7,-4.6,-2.7,-7.4,-2.7c-1.5,0,-3,.3,-4.3,.8c-.9,-2.9,-3.1,-5.1,-5.9,-6.2c.2,0,.3,0,.5,0h10.8c3.5,0,6.3,2.8,6.3,6.3Z" class="g7_338"/>
<path d="M183.9,1085.2v-4.1h-2.4v4.1c0,.3,-.2,.5,-.5,.5h-4v2.4h4c.3,0,.5,.2,.5,.5v4h2.4v-4c0,-.3,.2,-.5,.5,-.5h4v-2.4h-4c-.3,0,-.5,-.2,-.5,-.5Z" class="g1_338"/>
<path d="M188.9,1084.7h-4.1v-4c0,-.3,-.2,-.5,-.4,-.5H181c-.3,0,-.5,.2,-.5,.5v4h-4c-.3,0,-.5,.2,-.5,.5v3.4c0,.2,.2,.4,.5,.4h4v4.1c0,.2,.2,.4,.5,.4h3.4c.2,0,.4,-.2,.4,-.4V1089h4.1c.2,0,.4,-.2,.4,-.4v-3.4c0,-.3,-.2,-.5,-.4,-.5m-.5,3.4h-4c-.3,0,-.5,.2,-.5,.5v4h-2.4v-4c0,-.3,-.2,-.5,-.5,-.5h-4v-2.4h4c.3,0,.5,-.3,.5,-.5v-4.1h2.4v4.1c0,.2,.2,.5,.5,.5h4Z" class="g7_338"/>
<path d="M132.5,1108.4v133.3m4.5,2.2H843.2m2.3,-4.5V1106.1m-4.6,-2.3H134.7" class="ga_338"/>
<path d="M132.5,1243.9v0m713,0v0m0,-140.1v0m-713,0v0" class="gb_338"/>
<path d="M131.7,126.7v22.2l11.7,10.3V137Z" class="gc_338"/>
<path d="M131.7,109.9v39H829.4c0,0,16.9,0,16.9,-16.8v-5.4c0,0,0,-16.8,-16.9,-16.8Z" class="gd_338"/>
<path d="M189.6,121.3l-6.4,-6.5L162,136l6.4,6.5Z" class="ge_338"/>
<path d="M168.4,143c.2,0,.3,0,.4,-.1L190,121.7c.1,-.1,.2,-.3,.2,-.4c0,-.1,-.1,-.3,-.2,-.4l-6.5,-6.4c-.2,-.2,-.5,-.2,-.7,0l-21.2,21.2c-.1,.1,-.2,.2,-.2,.3c0,.2,.1,.3,.2,.4l6.5,6.5c.1,.1,.2,.1,.3,.1m20.5,-21.7l-20.5,20.5L162.7,136l20.5,-20.4Z" class="gf_338"/>
<path d="M189.6,121.3l-6.4,-6.5l2.1,-2.1l6.5,6.5Z" class="gg_338"/>
<path d="M189.6,121.8c.2,0,.3,0,.4,-.1l2.1,-2.1c.1,-.1,.2,-.3,.2,-.4c0,-.2,-.1,-.3,-.2,-.4l-6.4,-6.5c-.2,-.2,-.6,-.2,-.8,0l-2.1,2.2c-.1,0,-.2,.2,-.2,.3c0,.2,.1,.3,.2,.4l6.5,6.5c.1,.1,.2,.1,.3,.1m1.4,-2.6l-1.4,1.4l-5.7,-5.8l1.4,-1.4Z" class="gf_338"/>
<path d="M195.4,115.6l-6.5,-6.5l-3.6,3.6l6.5,6.5Z" class="gh_338"/>
<path d="M191.8,119.7c.1,0,.2,0,.3,-.1l3.7,-3.7c.2,-.2,.2,-.5,0,-.7l-6.5,-6.5c-.2,-.2,-.6,-.2,-.8,0l-3.6,3.6c-.2,.2,-.2,.6,0,.8l6.5,6.5c.1,.1,.2,.1,.4,.1m2.8,-4.1l-2.8,2.8L186,112.7l2.9,-2.9Z" class="gf_338"/>
<path d="M157.3,147.2L162,136l6.4,6.5Z" class="g1_338"/>
<path d="M157.3,147.7c.1,0,.2,0,.2,-.1L168.6,143c.2,-.1,.3,-.2,.4,-.4c0,-.2,-.1,-.3,-.2,-.5l-6.5,-6.4c-.1,-.2,-.3,-.2,-.5,-.2c-.1,.1,-.3,.2,-.3,.3l-4.7,11.1c0,.2,0,.5,.1,.6c.1,.1,.3,.2,.4,.2m10.2,-5.4l-9.2,3.9l3.8,-9.2Z" class="gf_338"/>
<path d="M157.3,147.2l2.3,-5.4l3.1,3.1Z" class="gf_338"/>
<path d="M157.3,147.7c.1,0,.2,0,.2,-.1l5.4,-2.2c.1,-.1,.3,-.2,.3,-.4c0,-.2,0,-.3,-.1,-.5l-3.2,-3.1c-.1,-.1,-.3,-.2,-.4,-.1c-.2,0,-.4,.1,-.4,.3l-2.3,5.3c0,.2,0,.5,.1,.6c.1,.1,.3,.2,.4,.2m4.5,-3l-3.5,1.5l1.4,-3.5Z" class="gf_338"/>
<path d="M187.9,119.5l-3,-2.9l-21.2,21.2l3,3Z" class="gi_338"/>
<path d="M166.7,141.3c.1,0,.2,-.1,.3,-.2l21.3,-21.2c.1,-.1,.1,-.2,.1,-.4c0,-.1,0,-.2,-.1,-.3l-3,-3c-.2,-.2,-.5,-.2,-.8,0l-21.2,21.2c-.1,.1,-.1,.3,-.1,.4c0,.1,0,.3,.1,.4l3,2.9c.1,.1,.2,.2,.4,.2m20.4,-21.8L166.7,140l-2.2,-2.2l20.4,-20.5Z" class="gf_338"/>
<path d="M32.1,45.1H9.2m958.3,0h22.9M32.1,1331.3H9.2m958.3,0h22.9M45.1,32.1V9.2m0,1335.1v22.9M954.5,32.1V9.2m0,1335.1v22.9" class="gj_338"/>
<path d="M32.1,45.1H9.2m958.3,0h22.9M32.1,1331.3H9.2m958.3,0h22.9M45.1,32.1V9.2m0,1335.1v22.9M954.5,32.1V9.2m0,1335.1v22.9" class="gk_338"/>
<path d="M27.5,32.1H0m972.1,0h27.5M27.5,1344.3H0m972.1,0h27.5M32.1,27.5V0m0,1348.9v27.5M967.5,27.5V0m0,1348.9v27.5" class="gj_338"/>
<path d="M27.5,32.1H0m972.1,0h27.5M27.5,1344.3H0m972.1,0h27.5M32.1,27.5V0m0,1348.9v27.5M967.5,27.5V0m0,1348.9v27.5" class="gk_338"/>
</svg>