<?xml version="1.0" encoding="UTF-8" standalone="no"?>
<!DOCTYPE svg PUBLIC "-//W3C//DTD SVG 1.1//EN"
"http://www.w3.org/Graphics/SVG/1.1/DTD/svg11.dtd">
<svg viewBox="0 0 999 1376" version="1.1" xmlns="http://www.w3.org/2000/svg" xmlns:xlink="http://www.w3.org/1999/xlink">
<defs>
<clipPath id="c0_356"><path d="M32.1,1344.3V32.1H967.5V1344.3Z"/></clipPath>
<clipPath id="c1_356"><path d="M177,755.4l-6.5,-2.2L154.1,739.3V682.2h72v73.2Z"/></clipPath>
<clipPath id="c2_356"><path d="M176.4,291.4l-6.5,-2.1L153.5,275.4V218.3h72v73.1Z"/></clipPath>
<clipPath id="c3_356"><path d="M646.3,425V323.6h117V425Z"/></clipPath>
<style type="text/css"><![CDATA[
.g0_356{
fill: #FEFCF4;
}
.g1_356{
fill: #F16865;
}
.g2_356{
fill: #FAC3B8;
}
.g3_356{
fill: #EE314A;
}
.g4_356{
fill: #26292E;
}
.g5_356{
fill: #C5CACC;
}
.g6_356{
fill: #FFF;
}
.g7_356{
fill: #F1EBEB;
}
.g8_356{
fill: #F7943B;
}
.g9_356{
fill: #ACB5B9;
}
.ga_356{
fill: #CFD3D5;
}
.gb_356{
fill: #FCE8B0;
}
.gc_356{
fill: none;
stroke: #6381B7;
stroke-width: 0.763;
}
.gd_356{
fill: none;
stroke: #231F20;
stroke-width: 0.305;
stroke-miterlimit: 10;
}
.ge_356{
fill: #E3E7F2;
}
.gf_356{
fill: none;
stroke: #231F20;
stroke-width: 0.381;
stroke-miterlimit: 10;
}
.gg_356{
fill: #6381B7;
}
.gh_356{
fill: none;
stroke: #6381B7;
stroke-width: 0.381;
stroke-dasharray: 2,1;
}
.gi_356{
fill: none;
stroke: #6381B7;
stroke-width: 0.381;
}
.gj_356{
fill: none;
stroke: #FFF;
stroke-width: 1.909;
stroke-miterlimit: 10;
}
.gk_356{
fill: none;
stroke: #000;
stroke-width: 0.381;
stroke-miterlimit: 10;
}
]]></style>
</defs>
<path d="M32.1,1343.2H954.5V32.1H32.1V1343.2Z" class="g0_356"/>
<g clip-path="url(#c0_356)">
<path d="M954.5,1344.3H1877V32.1H954.5V1344.3Z" class="g0_356"/>
<path d="M1777.4,166.7c0,0,30.3,0,30.3,-30.3v-4.3c0,0,0,-30.3,-30.3,-30.3H173.9c0,0,-30.3,0,-30.3,30.3v4.3c0,0,0,30.3,30.3,30.3Z" class="g1_356"/>
</g>
<path d="M186.5,132.1c0,27.1,-22,49,-49.1,49c-27,0,-49,-21.9,-49,-49c0,-27.1,22,-49.1,49,-49.1c27.1,0,49.1,22,49.1,49.1Z" class="g2_356"/>
<path d="M178.1,104.6c15.2,22.5,9.2,53,-13.2,68.1c-22.5,15.2,-53,9.3,-68.1,-13.2Z" class="g3_356"/>
<path d="M96.8,159.5h81.3V104.7H96.8v54.8Z" class="g4_356"/>
<path d="M137.7,156.8h16.8V136.6H137.7v20.2Z" class="g5_356"/>
<path d="M143.1,156.8h33.7V102.6H143.1v54.2Z" class="g5_356"/>
<path d="M141.6,103v50c.5,-.3,1,-.4,1.5,-.4h33.7v-50H143.1c-.5,0,-1,.2,-1.5,.4Z" class="g6_356"/>
<path d="M137.7,109v47.8c0,0,2.5,-3.1,3.9,-3.8V103c-2.2,1.1,-3.9,4.3,-3.9,6Z" class="g7_356"/>
<path d="M143.5,112.3h29.1v-1.4H143.5v1.4Z" class="g5_356"/>
<path d="M143.5,115.5h29.1v-1.4H143.5v1.4Z" class="g5_356"/>
<path d="M143.5,118.8h29.1v-1.5H143.5v1.5Z" class="g5_356"/>
<path d="M143.5,122h29.1v-1.5H143.5V122Z" class="g5_356"/>
<path d="M143.5,125.2h29.1v-1.5H143.5v1.5Z" class="g5_356"/>
<path d="M143.5,128.4h29.1v-1.5H143.5v1.5Z" class="g5_356"/>
<path d="M143.5,131.6h29.1v-1.5H143.5v1.5Z" class="g5_356"/>
<path d="M143.5,134.8h29.1v-1.5H143.5v1.5Z" class="g5_356"/>
<path d="M143.5,138h29.1v-1.4H143.5V138Z" class="g5_356"/>
<path d="M143.5,141.2h29.1v-1.4H143.5v1.4Z" class="g5_356"/>
<path d="M143.5,144.4h29.1V143H143.5v1.4Z" class="g5_356"/>
<path d="M143.5,147.6h29.1v-1.4H143.5v1.4Z" class="g5_356"/>
<path d="M159.7,150.9l1,-.9l1,.9v-49h-2Z" class="g8_356"/>
<path d="M120.9,156.8h16.8V136.6H120.9v20.2Z" class="g9_356"/>
<path d="M98.6,156.8h33.6V102.6H98.6v54.2Z" class="g9_356"/>
<path d="M98.6,102.6v50h33.6c.6,0,1.1,.1,1.6,.4V103c-.5,-.2,-1,-.4,-1.6,-.4Z" class="g6_356"/>
<path d="M133.8,103v50c1.4,.7,3.9,3.8,3.9,3.8V109c0,-1.7,-1.7,-4.9,-3.9,-6Z" class="ga_356"/>
<path d="M109.7,112.3h14.5v-1.4H109.7v1.4Z" class="g5_356"/>
<path d="M102.8,118.8h29.1v-1.5H102.8v1.5Z" class="g5_356"/>
<path d="M102.8,122h29.1v-1.5H102.8V122Z" class="g5_356"/>
<path d="M102.8,125.2h29.1v-1.5H102.8v1.5Z" class="g5_356"/>
<path d="M102.8,128.4h29.1v-1.5H102.8v1.5Z" class="g5_356"/>
<path d="M102.8,131.6h29.1v-1.5H102.8v1.5Z" class="g5_356"/>
<path d="M102.8,134.8h29.1v-1.5H102.8v1.5Z" class="g5_356"/>
<path d="M102.8,138h29.1v-1.4H102.8V138Z" class="g5_356"/>
<path d="M102.8,141.2h29.1v-1.4H102.8v1.4Z" class="g5_356"/>
<path d="M102.8,144.4h29.1V143H102.8v1.4Z" class="g5_356"/>
<path d="M102.8,147.6h29.1v-1.4H102.8v1.4Z" class="g5_356"/>
<path d="M209.6,710.4c0,0,-12.9,0,-12.9,13V745c0,0,0,13,12.9,13H833.3c0,0,13,0,13,-13V723.4c0,0,0,-13,-13,-13Z" class="gb_356"/>
<image clip-path="url(#c1_356)" preserveAspectRatio="none" x="153" y="681" width="75" height="76" xlink:href="img/1.png"/>
<path d="M204.4,750.6c0,0,-26.8,11.4,-51.1,-12.7c0,0,15.2,25.3,49.3,24c0,0,24.8,.3,20.3,-10.2c0,0,1.2,-4.4,-18.5,-1.1Z" class="gb_356"/>
<path d="M209,220.5c0,0,-13,0,-13,13v47.6c0,0,0,13,13,13H833.3c0,0,13,0,13,-13V233.5c0,0,0,-13,-13,-13Z" class="gb_356"/>
<image clip-path="url(#c2_356)" preserveAspectRatio="none" x="152" y="217" width="75" height="76" xlink:href="img/2.png"/>
<path d="M203.8,286.7c0,0,-26.8,11.3,-51.1,-12.7c0,0,15.2,25.3,49.3,23.9c0,0,24.7,.4,20.2,-10.1c0,0,1.3,-4.4,-18.4,-1.1Z" class="gb_356"/>
<path d="M145.1,768.2c0,0,-13,0,-13,13v405.6c0,0,0,13,13,13H832.9c0,0,13,0,13,-13V781.2c0,0,0,-13,-13,-13Z" class="g6_356"/>
<path d="M145.1,768.2c0,0,-13,0,-13,13v405.6c0,0,0,13,13,13H832.9c0,0,13,0,13,-13V781.2c0,0,0,-13,-13,-13H145.1Z" class="gc_356"/>
<path d="M295.5,949.5h25.8m-25.8,190.4h25.8" class="gd_356"/>
<path d="M192.3,922H798.6V818.1H192.3V922Z" class="ge_356"/>
<path d="M192.3,1112.4H798.6v-104H192.3v104Z" class="ge_356"/>
<path d="M145.1,307c0,0,-13,0,-13,13V656.2c0,0,0,13,13,13H832.9c0,0,13,0,13,-13V320c0,0,0,-13,-13,-13Z" class="g6_356"/>
<path d="M145.1,307c0,0,-13,0,-13,13V656.2c0,0,0,13,13,13H832.9c0,0,13,0,13,-13V320c0,0,0,-13,-13,-13H145.1Z" class="gc_356"/>
<image clip-path="url(#c3_356)" preserveAspectRatio="none" x="646" y="322" width="117" height="103" xlink:href="img/3.jpg"/>
<path d="M192.3,531H798.6V470.3H192.3V531Z" class="ge_356"/>
<path d="M383,497h70.9" class="gf_356"/>
<path d="M192.3,629.3H798.6V568.7H192.3v60.6Z" class="ge_356"/>
<path d="M276.5,595.3h70.8" class="gf_356"/>
<path d="M612.8,1216.2c0,0,-4.4,0,-4.4,4.3v10.8c0,0,0,4.3,4.4,4.3h30.3c0,0,4.3,0,4.3,-4.3v-10.8c0,0,0,-4.3,-4.3,-4.3Z" class="gg_356"/>
<path d="M599.6,1208.7v34.8m1.3,1H845.1m1,-1.4v-34.8m-1.4,-1H600.6" class="gh_356"/>
<path d="M599.6,1243.9v.6h.6m245.3,0h.6v-.6m0,-36v-.6h-.6m-245.3,0h-.6v.6" class="gi_356"/>
<path d="M32.1,45.1H9.2m958.3,0h22.9M32.1,1331.3H9.2m958.3,0h22.9M45.1,32.1V9.2m0,1335.1v22.9M954.5,32.1V9.2m0,1335.1v22.9" class="gj_356"/>
<path d="M32.1,45.1H9.2m958.3,0h22.9M32.1,1331.3H9.2m958.3,0h22.9M45.1,32.1V9.2m0,1335.1v22.9M954.5,32.1V9.2m0,1335.1v22.9" class="gk_356"/>
<path d="M27.5,32.1H0m972.1,0h27.5M27.5,1344.3H0m972.1,0h27.5M32.1,27.5V0m0,1348.9v27.5M967.5,27.5V0m0,1348.9v27.5" class="gj_356"/>
<path d="M27.5,32.1H0m972.1,0h27.5M27.5,1344.3H0m972.1,0h27.5M32.1,27.5V0m0,1348.9v27.5M967.5,27.5V0m0,1348.9v27.5" class="gk_356"/>
</svg>