<?xml version="1.0" encoding="UTF-8" standalone="no"?>
<!DOCTYPE svg PUBLIC "-//W3C//DTD SVG 1.1//EN"
"http://www.w3.org/Graphics/SVG/1.1/DTD/svg11.dtd">
<svg viewBox="0 0 999 1376" version="1.1" xmlns="http://www.w3.org/2000/svg" xmlns:xlink="http://www.w3.org/1999/xlink">
<defs>
<clipPath id="c0_149"><path d="M154,1246V133H868.6V1246Z"/></clipPath>
<clipPath id="c1_149"><path d="M205.5,870.7v-113H365.4v113Z"/></clipPath>
<clipPath id="c2_149"><path d="M430.7,383.8v-113H590.6v113Z"/></clipPath>
<clipPath id="c3_149"><path d="M430.7,628.2V513.1H590.5V628.2Z"/></clipPath>
<clipPath id="c4_149"><path d="M430.7,1115V1000.5H590.5V1115Z"/></clipPath>
<style type="text/css"><![CDATA[
.g0_149{
fill: #FFF;
}
.g1_149{
fill: none;
stroke: #231F20;
stroke-width: 0.756;
stroke-miterlimit: 3;
}
.g2_149{
fill: none;
stroke: #949698;
stroke-width: 0.572;
}
.g3_149{
fill: #25408F;
}
.g4_149{
fill: #6381B7;
}
.g5_149{
fill: #FFDE2C;
}
.g6_149{
fill: none;
stroke: #231F20;
stroke-width: 1.451;
stroke-miterlimit: 10;
}
.g7_149{
fill: #D2D3D5;
}
.g8_149{
fill: #A8AAAD;
}
.g9_149{
fill: none;
stroke: #231F20;
stroke-width: 0.828;
stroke-miterlimit: 10;
}
.ga_149{
fill: #6CCFF6;
}
.gb_149{
fill: none;
stroke: #231F20;
stroke-width: 0.828;
stroke-linecap: round;
stroke-linejoin: round;
}
.gc_149{
fill: none;
stroke: #231F20;
stroke-width: 1.451;
stroke-linecap: round;
stroke-linejoin: round;
}
.gd_149{
fill: none;
stroke: #FFF;
stroke-width: 1.909;
stroke-miterlimit: 10;
}
.ge_149{
fill: none;
stroke: #000;
stroke-width: 0.381;
stroke-miterlimit: 10;
}
]]></style>
</defs>
<path d="M154,1246H868.6V133H154V1246Z" class="g0_149"/>
<image clip-path="url(#c0_149)" preserveAspectRatio="none" x="152" y="131" width="718" height="1117" xlink:href="img/1.jpg"/>
<path d="M425.1,171.9h2.2v6h4.3v1.8h-4.3v3.9c0,1,-.1,1.7,-.5,2.3c-.4,.5,-.7,1,-1.1,1.3c.5,.1,.9,.3,1.1,.7c.2,.3,.3,.8,.3,1.3l-.3,7.4h-2v-6.9c0,-.2,0,-.4,-.1,-.5c-.1,-.2,-.3,-.3,-.6,-.3H411.4v-1.8h12.4c.4,-.4,.7,-.9,.9,-1.5c.3,-.6,.4,-1.2,.4,-1.8V171.9Zm-15.9,.4h8.5c.4,0,.8,.1,1,.2c.2,.2,.4,.4,.5,.6c.1,.2,.1,.4,.1,.7c.1,.2,0,.4,0,.6c-.2,.8,-.5,1.5,-.8,2.2c-.4,.8,-.9,1.5,-1.5,2.2c.7,.1,1.2,.3,1.6,.6c.4,.3,.7,.6,1,.9c.5,.4,.9,.9,1.3,1.5c.5,.5,.9,1,1.3,1.5l-1.5,1.4c-.2,-.3,-.5,-.6,-.7,-.8c-.2,-.3,-.4,-.5,-.6,-.8c-.2,-.2,-.4,-.5,-.6,-.7c-.2,-.2,-.4,-.5,-.6,-.8c-.3,-.3,-.7,-.6,-1,-.8c-.4,-.3,-.9,-.5,-1.4,-.6c-.9,.9,-1.9,1.7,-3,2.5c-1.1,.7,-2.3,1.4,-3.5,1.9l-1,-1.8c2.3,-1,4.2,-2.2,5.5,-3.5c1.4,-1.4,2.4,-2.8,3.1,-4.4c.1,-.3,.1,-.5,0,-.6c-.1,-.2,-.3,-.2,-.6,-.2h-7.1v-1.8Zm44.1,12.9H451v-6.4h-5.2c-.2,1.5,-.9,2.7,-2,3.5c-1.2,.8,-2.5,1.2,-4.2,1.2c-.8,0,-1.6,-.1,-2.4,-.3c-.7,-.3,-1.4,-.6,-2,-1.1c-.5,-.5,-1,-1.1,-1.3,-1.8c-.4,-.8,-.5,-1.6,-.5,-2.6c0,-.9,.1,-1.7,.5,-2.4c.3,-.7,.7,-1.4,1.3,-1.9c.5,-.5,1.2,-.9,2,-1.1c.7,-.3,1.6,-.5,2.4,-.5c1.7,0,3.1,.5,4.3,1.4c1.1,1,1.8,2.2,2,3.8H451v-5.1h2.3v13.3Zm0,1.4v9.3c0,.2,-.1,.4,-.2,.5c-.1,.1,-.3,.2,-.5,.2h-12c-1,0,-1.6,-.1,-2.1,-.5c-.4,-.3,-.6,-.9,-.6,-1.9v-7.6h2.2v3.2H451v-3.2h2.3ZM442.6,174.9c-.7,-.8,-1.7,-1.2,-3,-1.2c-1.2,0,-2.3,.4,-3,1.2c-.7,.8,-1,1.7,-1,2.8c0,1.1,.3,2.1,1,2.8c.7,.8,1.8,1.2,3,1.2c1.3,0,2.3,-.4,3,-1.2c.8,-.7,1.1,-1.7,1.1,-2.8c0,-1.1,-.3,-2,-1.1,-2.8Zm8.4,19.9v-3.2H440.1v2.5c0,.3,.1,.5,.2,.6c.1,.1,.2,.1,.5,.1H451Zm20,-.6V181.7h-3.4c-.2,1.9,-.8,3.4,-1.7,4.6c-1,1.1,-2.3,1.7,-3.9,1.7c-1.8,0,-3.2,-.7,-4.2,-2c-1,-1.4,-1.5,-3.1,-1.5,-5.3c0,-2.1,.5,-3.9,1.5,-5.3c1,-1.3,2.4,-2,4.2,-2c1.6,0,2.9,.6,3.9,1.8c1,1.1,1.5,2.7,1.7,4.6H471v-7.6h2.2v22H471Zm-5.7,-15.5c-.1,-.7,-.3,-1.2,-.6,-1.7c-.3,-.5,-.7,-.9,-1.1,-1.3c-.5,-.3,-1,-.4,-1.6,-.4c-.7,0,-1.2,.1,-1.7,.4c-.4,.4,-.8,.8,-1.1,1.3c-.3,.5,-.5,1,-.6,1.7c-.1,.6,-.1,1.3,-.1,2c0,.7,0,1.4,.1,2c.1,.7,.3,1.2,.6,1.7c.3,.5,.7,1,1.1,1.3c.5,.3,1,.4,1.7,.4c.6,0,1.1,-.1,1.6,-.4c.4,-.3,.8,-.8,1.1,-1.3c.3,-.5,.5,-1,.6,-1.7c.1,-.6,.2,-1.3,.2,-2c0,-.7,-.1,-1.4,-.2,-2Zm10.9,-6.5h2.2v22.6h-2.2V172.2ZM494.9,196.6c-.7,0,-1.1,-.1,-1.4,-.4c-.2,-.3,-.4,-.7,-.4,-1.2v-4.8h13v-2.8h-13v-1.8h11.2c.6,-.5,1.1,-1.1,1.3,-1.8c.3,-.7,.5,-1.4,.5,-2.1c-.8,.4,-1.7,.7,-2.7,.9c-1,.2,-2.1,.3,-3.2,.3H488.4v-1.7h3.4c-.3,-.5,-.5,-1,-.6,-1.5c-.1,-.5,-.2,-1.1,-.2,-1.8v-2.4h2.2v2.6c0,.5,.1,1,.1,1.5c.1,.5,.3,1,.5,1.6h3.6c.2,-.6,.3,-1.1,.4,-1.7c.1,-.6,.2,-1.2,.2,-1.7v-2.3h2.2v2.3c0,.6,-.1,1.2,-.2,1.8c-.1,.5,-.3,1,-.5,1.6h.8c1.1,0,2.1,-.1,3.1,-.4c1,-.2,1.9,-.5,2.7,-1.1v-7.8h2.3v9.2c0,.4,0,.8,-.1,1.2c-.1,.4,-.2,.9,-.4,1.3c-.2,.4,-.4,.8,-.7,1.2c-.3,.3,-.6,.6,-1,.8h.6c.7,0,1.1,.2,1.3,.5c.2,.3,.3,.7,.3,1.2l-.4,3.9c0,.3,-.1,.5,-.3,.6c-.1,.1,-.4,.2,-.7,.2H495.4v2.8h7.7c.8,0,1.7,0,2.6,-.1c1,-.1,1.9,-.3,2.9,-.6l.5,1.6c-.8,.3,-1.7,.5,-2.7,.7c-1.1,.1,-2.1,.2,-3.1,.2h-8.4Zm-6.2,-24.3h13.8v1.8H488.7v-1.8ZM516.6,189.9v-6.1c-.8,-.6,-1.4,-1.3,-1.8,-2.2c-.5,-.8,-.7,-1.8,-.7,-2.9c0,-1.1,.2,-2,.6,-2.9c.4,-.8,1,-1.5,1.7,-2.1c.7,-.5,1.5,-.9,2.4,-1.2c.9,-.3,1.9,-.5,3,-.5c1,0,2,.2,2.9,.5c.9,.3,1.7,.7,2.4,1.2c.7,.6,1.3,1.3,1.7,2.1c.4,.9,.6,1.8,.6,2.9c0,1.2,-.2,2.2,-.7,3c-.5,.9,-1.1,1.6,-1.9,2.2v6h5.8v1.9H511.3v-1.9h5.3Zm9,-14.7c-1,-.9,-2.3,-1.3,-3.8,-1.3c-1.7,0,-3,.4,-3.9,1.3c-1,.9,-1.4,2,-1.4,3.5c0,1.4,.4,2.6,1.4,3.5c1,.8,2.3,1.3,3.9,1.3c1.5,0,2.8,-.5,3.8,-1.3c1,-.9,1.5,-2.1,1.5,-3.5c0,-1.5,-.5,-2.6,-1.5,-3.5Zm-5.4,10c-.5,-.1,-1,-.2,-1.4,-.3v5h5.8v-5c-.5,.2,-.9,.3,-1.4,.3c-.5,.1,-1,.1,-1.4,.1c-.6,0,-1.1,0,-1.6,-.1Zm26.5,-1.3c-.3,.6,-.8,1.1,-1.3,1.5c-.5,.5,-1.1,.8,-1.9,1c-.7,.3,-1.4,.4,-2.2,.4c-.8,0,-1.5,-.1,-2.3,-.3c-.7,-.3,-1.3,-.6,-1.8,-1c-.5,-.5,-1,-1,-1.3,-1.6c-.3,-.6,-.4,-1.3,-.4,-2c0,-.8,.1,-1.4,.4,-2c.3,-.6,.7,-1.1,1.2,-1.6c.6,-.4,1.2,-.7,1.9,-1c.7,-.2,1.5,-.3,2.3,-.3c.8,0,1.6,.1,2.3,.3c.7,.3,1.4,.6,1.9,1c.5,.5,.9,1,1.2,1.6c.3,.6,.5,1.2,.5,2c0,.7,-.2,1.4,-.5,2Zm11.5,-2.5h-4.3v8h-2.3V171.9h2.3v7.6h4.3v1.9Zm-17,14.9c-.9,0,-1.5,-.2,-1.9,-.5c-.4,-.4,-.6,-.9,-.6,-1.6v-5.3H541v4.8c0,.3,.1,.5,.2,.6c.1,.2,.3,.2,.7,.2H549c1,0,2,0,2.8,-.2c.9,-.1,1.7,-.3,2.7,-.6l.5,1.7c-1.1,.4,-2.1,.6,-3,.7c-.9,.2,-1.9,.2,-3,.2h-7.8Zm2.6,-16.7c-.7,-.6,-1.5,-.9,-2.5,-.9c-1,0,-1.8,.3,-2.5,.9c-.7,.5,-1.1,1.3,-1.1,2.3c0,1,.4,1.8,1.1,2.3c.7,.6,1.5,.8,2.5,.8c1,0,1.8,-.2,2.5,-.8c.7,-.5,1.1,-1.3,1.1,-2.3c0,-1,-.4,-1.8,-1.1,-2.3Zm4.8,-3.5H534.1v-1.8h5.4c.3,-.4,.4,-.7,.5,-1c.1,-.3,.1,-.7,.1,-1c0,-.1,0,-.3,0,-.4c0,-.1,-.1,-.2,-.1,-.3c0,-.1,0,-.2,-.1,-.3c0,-.1,0,-.2,-.1,-.3l2.2,-.6c.1,.3,.2,.5,.2,.8c.1,.3,.1,.6,.1,1c0,.4,-.1,.7,-.2,1.1c-.1,.3,-.2,.7,-.4,1h6.9v1.8Zm22.5,5.7c0,.3,0,.6,.2,.7c.1,.2,.3,.2,.6,.2h5.7c1.1,0,2.2,0,3.4,-.1c1.1,-.2,2.2,-.4,3.3,-.7l.4,1.7c-1.1,.4,-2.3,.6,-3.5,.7c-1.1,.2,-2.3,.3,-3.5,.3v5.3h9.8v1.9H566.1v-1.9h9.4v-5.3h-3.7c-1,0,-1.7,-.2,-2.2,-.6c-.5,-.5,-.8,-1.1,-.8,-1.9v-9.2h15.3v1.9h-13v7ZM598,195.6v-9.1h-8.9v-1.8h21.3v1.8H600.3v9.1H598ZM603.6,183c.3,-1.4,.6,-2.7,.8,-4c.2,-1.2,.3,-2.5,.3,-4c0,-.2,-.1,-.4,-.2,-.5c0,-.1,-.2,-.2,-.5,-.2H591.5v-1.8h13.3c.8,0,1.4,.2,1.7,.6c.3,.4,.4,.9,.4,1.5c0,1.6,-.2,3,-.4,4.4c-.2,1.4,-.5,2.8,-.8,4.3l-2.1,-.3Z" class="g1_149"/>
<path d="M194.8,401.7H376.1V252.9H194.8V401.7Z" class="g0_149"/>
<image preserveAspectRatio="none" x="205" y="271" width="160" height="113" xlink:href="img/2.jpg"/>
<path d="M194.8,401.7H376.1V252.9H194.8V401.7Z" class="g2_149"/>
<path d="M194.8,645H376.1V496.2H194.8V645Z" class="g0_149"/>
<image preserveAspectRatio="none" x="206" y="514" width="159" height="113" xlink:href="img/3.jpg"/>
<path d="M194.8,645H376.1V496.2H194.8V645Z" class="g2_149"/>
<path d="M194.8,888.6H376.1V739.8H194.8V888.6Z" class="g0_149"/>
<image clip-path="url(#c1_149)" preserveAspectRatio="none" x="205" y="758" width="160" height="113" xlink:href="img/4.jpg"/>
<path d="M194.8,888.6H376.1V739.8H194.8V888.6Z" class="g2_149"/>
<path d="M194.8,1132.2H376.1V983.4H194.8v148.8Z" class="g0_149"/>
<image preserveAspectRatio="none" x="206" y="1001" width="159" height="113" xlink:href="img/5.jpg"/>
<path d="M194.8,1132.2H376.1V983.4H194.8v148.8Z" class="g2_149"/>
<path d="M420,401.7H601.3V252.9H420V401.7Z" class="g0_149"/>
<image clip-path="url(#c2_149)" preserveAspectRatio="none" x="431" y="271" width="160" height="113" xlink:href="img/6.jpg"/>
<path d="M420,401.7H601.3V252.9H420V401.7Z" class="g2_149"/>
<path d="M420,645H601.3V496.2H420V645Z" class="g0_149"/>
<image clip-path="url(#c3_149)" preserveAspectRatio="none" x="431" y="513" width="160" height="115" xlink:href="img/7.jpg"/>
<path d="M420,645H601.3V496.2H420V645Z" class="g2_149"/>
<path d="M420,888.6H601.3V739.8H420V888.6Z" class="g0_149"/>
<image preserveAspectRatio="none" x="431" y="757" width="160" height="114" xlink:href="img/8.jpg"/>
<path d="M420,888.6H601.3V739.8H420V888.6Z" class="g2_149"/>
<path d="M420,1132.2H601.3V983.4H420v148.8Z" class="g0_149"/>
<image clip-path="url(#c4_149)" preserveAspectRatio="none" x="431" y="1001" width="160" height="114" xlink:href="img/9.jpg"/>
<path d="M420,1132.2H601.3V983.4H420v148.8Z" class="g2_149"/>
<path d="M645.2,401.7H826.5V252.9H645.2V401.7Z" class="g0_149"/>
<image preserveAspectRatio="none" x="656" y="271" width="160" height="113" xlink:href="img/10.jpg"/>
<path d="M645.2,401.7H826.5V252.9H645.2V401.7Z" class="g2_149"/>
<path d="M645.2,645H826.5V496.2H645.2V645Z" class="g0_149"/>
<image preserveAspectRatio="none" x="656" y="514" width="160" height="114" xlink:href="img/11.jpg"/>
<path d="M645.2,645H826.5V496.2H645.2V645Z" class="g2_149"/>
<path d="M645.2,888.6H826.5V739.8H645.2V888.6Z" class="g0_149"/>
<image preserveAspectRatio="none" x="656" y="757" width="160" height="115" xlink:href="img/12.jpg"/>
<path d="M645.2,888.6H826.5V739.8H645.2V888.6Z" class="g2_149"/>
<path d="M645.2,1132.2H826.5V983.4H645.2v148.8Z" class="g0_149"/>
<image preserveAspectRatio="none" x="656" y="1001" width="160" height="114" xlink:href="img/13.jpg"/>
<path d="M645.2,1132.2H826.5V983.4H645.2v148.8Z" class="g2_149"/>
<path d="M153.3,126.3v22.2L165,158.7V136.5Z" class="g3_149"/>
<path d="M153.3,109.5v39H851.1c0,0,16.8,0,16.8,-16.8v-5.4c0,0,0,-16.8,-16.8,-16.8Z" class="g4_149"/>
<path d="M207.2,115.7c0,-9.1,-7.9,-16.6,-17.7,-16.6c-9.8,0,-17.7,7.5,-17.7,16.6c0,2.7,.6,5.2,1.8,7.4c1.2,2.4,2.9,4.6,5,6.2c1.2,1,1.6,1.7,1.7,4.3v.6c0,3.3,2.7,5.9,5.9,5.9h6.6c3.2,0,5.8,-2.6,5.8,-5.9v-.6c.2,-2.6,.6,-3.3,1.8,-4.3c2.1,-1.6,3.8,-3.8,5,-6.2c1.2,-2.2,1.8,-4.7,1.8,-7.4Z" class="g5_149"/>
<path d="M207.2,115.7c0,-9.1,-7.9,-16.6,-17.7,-16.6c-9.8,0,-17.7,7.5,-17.7,16.6c0,2.7,.6,5.2,1.8,7.4c1.2,2.4,2.9,4.6,5,6.2c1.2,1,1.6,1.7,1.7,4.3v.6c0,3.3,2.7,5.9,5.9,5.9h6.6c3.2,0,5.8,-2.6,5.8,-5.9v-.6c.2,-2.6,.6,-3.3,1.8,-4.3c2.1,-1.6,3.8,-3.8,5,-6.2c1.2,-2.2,1.8,-4.7,1.8,-7.4Z" class="g6_149"/>
<path d="M194.6,147.4c0,2.8,-2.3,5.1,-5.1,5.1c-2.8,0,-5.1,-2.3,-5.1,-5.1c0,-2.8,2.3,-5.1,5.1,-5.1c2.8,0,5.1,2.3,5.1,5.1Z" class="g0_149"/>
<path d="M194.6,147.4c0,2.8,-2.3,5.1,-5.1,5.1c-2.8,0,-5.1,-2.3,-5.1,-5.1c0,-2.8,2.3,-5.1,5.1,-5.1c2.8,0,5.1,2.3,5.1,5.1Z" class="g6_149"/>
<path d="M182.1,140.2c0,1,.8,1.8,1.8,1.8h11.2c1,0,1.8,-.8,1.8,-1.8v-1.3H182.1Z" class="g0_149"/>
<path d="M182.1,140.2c0,1,.8,1.8,1.8,1.8h11.2c1,0,1.8,-.8,1.8,-1.8v-1.3H182.1v1.3Z" class="g6_149"/>
<path d="M196.9,143.2c0,.8,-.6,1.3,-1.3,1.3H183.4c-.8,0,-1.3,-.5,-1.3,-1.3c0,-.7,.5,-1.3,1.3,-1.3h12.2c.7,0,1.3,.6,1.3,1.3Z" class="g0_149"/>
<path d="M196.9,143.2c0,.8,-.6,1.3,-1.3,1.3H183.4c-.8,0,-1.3,-.5,-1.3,-1.3c0,-.7,.5,-1.3,1.3,-1.3h12.2c.7,0,1.3,.6,1.3,1.3Z" class="g6_149"/>
<path d="M196.9,145.8c0,.7,-.6,1.3,-1.3,1.3H183.4c-.8,0,-1.3,-.6,-1.3,-1.3c0,-.7,.5,-1.3,1.3,-1.3h12.2c.7,0,1.3,.6,1.3,1.3Z" class="g0_149"/>
<path d="M196.9,145.8c0,.7,-.6,1.3,-1.3,1.3H183.4c-.8,0,-1.3,-.6,-1.3,-1.3c0,-.7,.5,-1.3,1.3,-1.3h12.2c.7,0,1.3,.6,1.3,1.3Z" class="g6_149"/>
<path d="M215.5,128.7l8.3,10.4c.6,.7,1.8,.6,2.7,-.2c.9,-.7,1.2,-1.9,.7,-2.6l-8.9,-10.2Z" class="g7_149"/>
<path d="M215.5,128.7l8.3,10.4c.6,.7,1.8,.6,2.7,-.2c.9,-.7,1.2,-1.9,.7,-2.6l-8.9,-10.2l-2.8,2.6Z" class="g6_149"/>
<path d="M217.5,125.1c.5,.6,.3,1.8,-.7,2.6c-.9,.7,-2.1,.8,-2.6,.2c-.6,-.7,-.3,-1.9,.6,-2.6c.9,-.8,2.1,-.9,2.7,-.2Z" class="g8_149"/>
<path d="M217.5,125.1c.5,.6,.3,1.8,-.7,2.6c-.9,.7,-2.1,.8,-2.6,.2c-.6,-.7,-.3,-1.9,.6,-2.6c.9,-.8,2.1,-.9,2.7,-.2Z" class="g6_149"/>
<path d="M212.7,124.7l1.7,2c.3,.3,1,.3,1.5,-.1c.5,-.5,.7,-1.1,.4,-1.5l-1.7,-2Z" class="g0_149"/>
<path d="M212.7,124.7l1.7,2c.3,.3,1,.3,1.5,-.1c.5,-.5,.7,-1.1,.4,-1.5l-1.7,-2l-1.9,1.6Z" class="g9_149"/>
<path d="M214.8,122.9c.4,.5,.2,1.3,-.5,1.8c-.6,.5,-1.4,.6,-1.8,.1c-.4,-.4,-.2,-1.2,.5,-1.7c.6,-.6,1.4,-.6,1.8,-.2Z" class="g0_149"/>
<path d="M214.8,122.9c.4,.5,.2,1.3,-.5,1.8c-.6,.5,-1.4,.6,-1.8,.1c-.4,-.4,-.2,-1.2,.5,-1.7c.6,-.6,1.4,-.6,1.8,-.2Z" class="g9_149"/>
<path d="M216.4,105.4c4.8,5.7,4.1,14.2,-1.7,19c-5.7,4.8,-14.2,4,-19,-1.7c-4.8,-5.7,-4,-14.2,1.7,-19c5.7,-4.8,14.2,-4.1,19,1.7Z" class="g0_149"/>
<path d="M216.4,105.4c4.8,5.7,4.1,14.2,-1.7,19c-5.7,4.8,-14.2,4,-19,-1.7c-4.8,-5.7,-4,-14.2,1.7,-19c5.7,-4.8,14.2,-4.1,19,1.7Z" class="g6_149"/>
<path d="M214,107.4c3.5,4.2,3,10.5,-1.3,14.1c-4.2,3.5,-10.5,2.9,-14,-1.3c-3.5,-4.2,-3,-10.5,1.2,-14c4.2,-3.6,10.5,-3,14.1,1.2Z" class="ga_149"/>
<path d="M214,107.4c3.5,4.2,3,10.5,-1.3,14.1c-4.2,3.5,-10.5,2.9,-14,-1.3c-3.5,-4.2,-3,-10.5,1.2,-14c4.2,-3.6,10.5,-3,14.1,1.2Z" class="g6_149"/>
<path d="M213,110.6l-3.1,3m3.1,-.4l-3.1,3" class="gb_149"/>
<path d="M172.1,99l3.1,3.3m1.1,-5.9l1.2,3.9m-8.1,3l3.7,1.2" class="gc_149"/>
<path d="M185.8,106.1c1.2,1.2,.2,4.3,-2.2,6.7c-2.5,2.5,-5.5,3.5,-6.8,2.3c-1.2,-1.3,-.3,-4.3,2.2,-6.8c2.5,-2.5,5.5,-3.5,6.8,-2.2Z" class="g0_149"/>
<path d="M203.7,107.6c.6,.6,.1,1.9,-.9,3c-1.1,1,-2.4,1.5,-3,.9c-.5,-.5,-.1,-1.8,1,-2.9c1.1,-1.1,2.4,-1.5,2.9,-1Z" class="g0_149"/>
<path d="M32.1,45.1H9.2m958.3,0h22.9M32.1,1331.3H9.2m958.3,0h22.9M45.1,32.1V9.2m0,1335.1v22.9M954.5,32.1V9.2m0,1335.1v22.9" class="gd_149"/>
<path d="M32.1,45.1H9.2m958.3,0h22.9M32.1,1331.3H9.2m958.3,0h22.9M45.1,32.1V9.2m0,1335.1v22.9M954.5,32.1V9.2m0,1335.1v22.9" class="ge_149"/>
<path d="M27.5,32.1H0m972.1,0h27.5M27.5,1344.3H0m972.1,0h27.5M32.1,27.5V0m0,1348.9v27.5M967.5,27.5V0m0,1348.9v27.5" class="gd_149"/>
<path d="M27.5,32.1H0m972.1,0h27.5M27.5,1344.3H0m972.1,0h27.5M32.1,27.5V0m0,1348.9v27.5M967.5,27.5V0m0,1348.9v27.5" class="ge_149"/>
</svg>