<?xml version="1.0" encoding="UTF-8" standalone="no"?>
<!DOCTYPE svg PUBLIC "-//W3C//DTD SVG 1.1//EN"
"http://www.w3.org/Graphics/SVG/1.1/DTD/svg11.dtd">
<svg viewBox="0 0 999 1376" version="1.1" xmlns="http://www.w3.org/2000/svg" xmlns:xlink="http://www.w3.org/1999/xlink">
<defs>
<clipPath id="c0_334"><path d="M32.1,1344.3V32.1H967.5V1344.3Z"/></clipPath>
<clipPath id="c1_334"><path d="M81.5,718.4V622.7H230v95.7Z"/></clipPath>
<clipPath id="c2_334"><path d="M85.9,714.5V628.1H228.4v86.4Z"/></clipPath>
<clipPath id="c3_334"><path d="M85.6,714.2V627.8H228.1v86.4Z"/></clipPath>
<clipPath id="c4_334"><path d="M762.3,815.4v-93h143v93Z"/></clipPath>
<clipPath id="c5_334"><path d="M761.6,811.4V730H902.4v81.4Z"/></clipPath>
<clipPath id="c6_334"><path d="M761.3,811.1V729.7H902.1v81.4Z"/></clipPath>
<clipPath id="c7_334"><path d="M68.1,926V830.3H216.6V926Z"/></clipPath>
<clipPath id="c8_334"><path d="M72.5,922.1V835.7H215v86.4Z"/></clipPath>
<clipPath id="c9_334"><path d="M72.2,921.8V835.4H214.7v86.4Z"/></clipPath>
<clipPath id="ca_334"><path d="M177,531.8l-6.5,-2.1L154.1,515.8V458.7h72v73.1Z"/></clipPath>
<clipPath id="cb_334"><path d="M176.9,1104.3l-6.5,-2.1L154,1088.3v-57.1h72v73.1Z"/></clipPath>
<clipPath id="cc_334"><path d="M148.4,646.7q-.1,0,-.1,0c-.2,-.1,3.6,-8.2,3.6,-8.2l.8,.5c0,0,-4.1,7.7,-4.3,7.7Z"/></clipPath>
<clipPath id="cd_334"><path d="M155.9,639c0,0,-6.9,-1.1,-7.6,-5.2c-.7,-3.6,1.5,-3.9,2.1,-3.9c0,0,.1,0,.1,0l8.3,-12.7l-1.5,-3.1c0,0,-.6,-1.1,.2,-2.1c0,0,.1,-.1,.3,-.1c2.1,0,12.9,5.6,12.9,5.6l.1,.1c-.4,.6,-.7,1.2,-1.4,1.7c-.7,.5,-5.1,1.1,-5.1,1.1L155.9,639Z"/></clipPath>
<clipPath id="ce_334"><path d="M155.4,638.6c.3,-.4,.3,-1.8,0,-2.2V635c-1.5,-.5,-2.8,-1.2,-3.6,-2.5c-1.1,.6,-2.1,1.2,-3.1,1.9c1.5,2.1,3.8,3.5,6.7,4.2Zm0,-3.9c2.2,-4.5,4,-9.5,6.2,-14c-.9,-.4,-1.8,-1.4,-2.6,-1.4c-2.3,4.3,-4.6,8.6,-7.1,12.8c.8,1.3,2.1,2,3.5,2.6Zm-7.2,12.1c1,-2.9,2.4,-5.5,3.5,-8.3c-2,-1.5,-3.9,-3.1,-4.4,-6.1v-1.6c-.1,-2.7,1.9,-3.4,4.5,-3.4c.1,0,.2,0,.3,.1c1.9,-3.4,4.2,-6.4,6.1,-9.7c-.6,-.9,-1.1,-2.4,-.9,-3.7c.5,1.3,1.7,1.9,2.4,2.9c-.1,.6,-.3,1.2,-.4,1.8c.6,.6,1.4,1.2,2.4,1.4c.5,-.5,.5,-1.3,1.2,-1.5c.9,.3,1.8,.7,3.1,.7c.1,.1,.5,.2,.8,.2c.4,0,.7,-.1,.8,-.2c.1,0,.3,.1,.3,.1c.3,0,.5,-.1,.7,-.2c.1,-.1,.3,-.1,.5,-.1c.1,0,.2,0,.3,.1c-1.3,.6,-2.2,1.8,-4.2,1.8c-.1,0,-.2,-.1,-.3,-.1c-.9,3.8,-1.9,7.4,-2.7,11.2c.6,1.1,1.5,1.7,1.3,3.2c-.5,2.7,-3.9,4.4,-7.2,4.4c-1.3,0,-2.5,-.3,-3.6,-.8c-1,2.1,-2.1,4.1,-3.3,6c0,-.3,.3,-.3,.3,-.7c.9,-1.8,1.9,-3.6,2.6,-5.7c-1,1.7,-1.8,3.7,-2.8,5.6c-.2,.4,-.4,.8,-.6,1.2c-.3,.4,-.3,1.2,-.7,1.4Z"/></clipPath>
<clipPath id="cf_334"><path d="M165.9,619c-4.8,0,-13.1,-7.3,-5.6,-8.8h1.3c.2,.1,.4,.1,.7,.1c0,0,.1,0,.1,0c.3,0,.6,0,1,.1c3,.6,8.2,3.8,7.5,7c-.2,1.1,-1.5,1.6,-3.1,1.6H166c0,0,-.1,0,-.1,0Z"/></clipPath>
<clipPath id="cg_334"><path d="M136.2,853.3c-.2,-.1,3.6,-8.2,3.6,-8.2l.8,.5c0,0,-4.1,7.7,-4.4,7.7Z"/></clipPath>
<clipPath id="ch_334"><path d="M143.7,845.6c0,0,-6.8,-1.1,-7.6,-5.3c-.6,-3.6,1.6,-3.8,2.1,-3.8c.1,0,.2,0,.2,0l8.3,-12.7l-1.5,-3.1c0,0,-.6,-1.1,.1,-2.1c.1,0,.2,-.1,.4,-.1c2.1,0,12.9,5.6,12.9,5.6l.1,.1c-.4,.5,-.8,1.2,-1.4,1.7c-.7,.5,-5.1,1.1,-5.1,1.1l-8.5,18.6Z"/></clipPath>
<clipPath id="ci_334"><path d="M143.3,845.2c.2,-.5,.2,-1.8,0,-2.3v-1.3c-1.5,-.6,-2.8,-1.3,-3.6,-2.5c-1.1,.5,-2.1,1.2,-3.2,1.8c1.6,2.2,3.9,3.6,6.8,4.3Zm0,-3.9c2.2,-4.5,4,-9.5,6.2,-14.1c-.9,-.4,-1.9,-1.3,-2.7,-1.3c-2.3,4.3,-4.6,8.6,-7,12.8c.7,1.3,2.1,2,3.5,2.6ZM136,853.4c1.1,-2.9,2.4,-5.5,3.6,-8.3c-2,-1.6,-4,-3.1,-4.4,-6.2v-1.5c-.1,-2.7,1.9,-3.4,4.5,-3.4c.1,0,.2,0,.2,0c2,-3.3,4.3,-6.3,6.2,-9.7c-.6,-.8,-1.2,-2.3,-.9,-3.6c.5,1.3,1.6,1.9,2.4,2.9c-.1,.6,-.3,1.1,-.4,1.8c.6,.6,1.3,1.1,2.4,1.3c.5,-.4,.5,-1.2,1.1,-1.5c1,.4,1.9,.8,3.2,.8c.1,.1,.5,.1,.8,.1c.3,0,.7,0,.8,-.1c.1,0,.2,0,.3,0c.2,0,.4,0,.6,-.1c.2,-.1,.4,-.1,.6,-.1c.1,0,.2,0,.3,.1c-1.3,.6,-2.2,1.7,-4.2,1.7c-.1,0,-.2,0,-.4,0c-.8,3.8,-1.8,7.4,-2.6,11.2c.6,1.1,1.5,1.7,1.3,3.1c-.5,2.8,-3.9,4.4,-7.2,4.4c-1.3,0,-2.6,-.2,-3.6,-.7c-1,2.1,-2.1,4.1,-3.3,6c0,-.4,.3,-.4,.2,-.7c1,-1.8,2,-3.6,2.7,-5.7c-1.1,1.7,-1.8,3.7,-2.8,5.5c-.2,.5,-.4,.9,-.6,1.3c-.3,.4,-.3,1.1,-.8,1.4Z"/></clipPath>
<clipPath id="cj_334"><path d="M153.8,825.6c-4.8,0,-13.1,-7.3,-5.6,-8.8h1.3c.1,0,.3,.1,.5,.1q.1,0,.2,0c0,0,.1,0,.2,0c.2,0,.5,0,.8,0c3.1,.7,8.3,3.8,7.6,7.1c-.3,1.1,-1.6,1.6,-3.2,1.6h-1.7q-.1,0,-.1,0Z"/></clipPath>
<clipPath id="ck_334"><path d="M823.9,748.9c-.2,-.1,3.6,-8.2,3.6,-8.2l.8,.5c0,0,-4.1,7.7,-4.4,7.7Z"/></clipPath>
<clipPath id="cl_334"><path d="M831.4,741.2c0,0,-6.8,-1.1,-7.5,-5.2c-.7,-3.6,1.5,-3.9,2,-3.9c.1,0,.2,0,.2,0l8.3,-12.7l-1.5,-3.1c0,0,-.6,-1.1,.2,-2c0,-.1,.1,-.1,.3,-.1c2.1,0,12.9,5.5,12.9,5.5l.1,.1c-.4,.6,-.8,1.2,-1.4,1.7c-.7,.5,-5.1,1.1,-5.1,1.1l-8.5,18.6Z"/></clipPath>
<clipPath id="cm_334"><path d="M831,740.8c.2,-.4,.2,-1.8,0,-2.2v-1.4c-1.5,-.5,-2.8,-1.2,-3.6,-2.5c-1.1,.6,-2.1,1.2,-3.1,1.9c1.5,2.1,3.8,3.5,6.7,4.2Zm0,-3.9c2.2,-4.5,4,-9.5,6.2,-14c-.9,-.4,-1.8,-1.4,-2.6,-1.4c-2.3,4.3,-4.6,8.6,-7.1,12.8c.7,1.3,2.1,2,3.5,2.6ZM823.7,749c1.1,-2.9,2.4,-5.5,3.6,-8.3c-2,-1.5,-4,-3.1,-4.4,-6.1V733c-.1,-2.7,1.9,-3.3,4.6,-3.3c0,0,.1,0,.1,0c2,-3.4,4.3,-6.4,6.2,-9.7c-.6,-.9,-1.2,-2.4,-.9,-3.7c.5,1.3,1.6,1.9,2.4,2.9c-.1,.6,-.3,1.2,-.4,1.8c.6,.6,1.4,1.2,2.4,1.4c.5,-.5,.5,-1.3,1.2,-1.5c.9,.3,1.8,.7,3.1,.7c.1,.1,.5,.2,.8,.2c.4,0,.7,-.1,.8,-.2c.1,0,.2,.1,.3,.1c.3,0,.5,-.1,.7,-.2c.1,0,.3,-.1,.5,-.1c.1,0,.2,0,.3,.1c-1.3,.6,-2.2,1.8,-4.2,1.8c-.1,0,-.2,0,-.3,-.1c-.9,3.8,-1.9,7.4,-2.7,11.2c.6,1.1,1.5,1.7,1.3,3.2c-.5,2.7,-3.9,4.4,-7.2,4.4c-1.3,0,-2.5,-.3,-3.6,-.8c-1,2.1,-2.1,4.1,-3.3,6c0,-.3,.3,-.3,.3,-.7c.9,-1.8,1.9,-3.6,2.6,-5.7c-1.1,1.8,-1.8,3.7,-2.8,5.6c-.2,.4,-.4,.8,-.6,1.2c-.3,.4,-.3,1.2,-.8,1.4Z"/></clipPath>
<clipPath id="cn_334"><path d="M841.5,721.2c-4.8,0,-13.1,-7.3,-5.6,-8.8h1.3c.2,.1,.4,.1,.6,.1c0,0,.1,0,.1,0q.1,0,.2,0c.2,0,.5,0,.9,.1c3,.6,8.2,3.8,7.5,7c-.2,1.1,-1.6,1.6,-3.1,1.6h-1.8c0,0,-.1,0,-.1,0Z"/></clipPath>
<clipPath id="co_334"><path d="M764.8,419.2V406.7h14.5v12.5Z"/></clipPath>
<clipPath id="cp_334"><path d="M125.5,386.7V205.8H858.6V386.7Z"/></clipPath>
<style type="text/css"><![CDATA[
.g0_334{
fill: #FEFCF4;
}
.g1_334{
fill: #FFF;
}
.g2_334{
fill: none;
stroke: #6381B7;
stroke-width: 0.763;
}
.g3_334{
fill: none;
stroke: #818385;
stroke-width: 0.305;
stroke-dasharray: 4,4;
}
.g4_334{
fill: none;
stroke: #818385;
stroke-width: 0.305;
}
.g5_334{
fill: #F7C2D9;
}
.g6_334{
fill: #FDF4F3;
}
.g7_334{
fill: #EC008C;
}
.g8_334{
fill: none;
stroke: #949698;
stroke-width: 0.305;
stroke-dasharray: 4,4;
}
.g9_334{
fill: none;
stroke: #949698;
stroke-width: 0.305;
}
.ga_334{
fill: #6D6F71;
}
.gb_334{
fill: #6381B7;
}
.gc_334{
fill: none;
stroke: #6381B7;
stroke-width: 0.381;
stroke-dasharray: 2,1;
}
.gd_334{
fill: none;
stroke: #6381B7;
stroke-width: 0.381;
}
.ge_334{
fill: #FCE8B0;
}
.gf_334{
fill: #2E6E51;
}
.gg_334{
fill: none;
stroke: #FFF;
stroke-width: 0.152;
stroke-miterlimit: 1;
}
.gh_334{
fill: #BCBEC0;
}
.gi_334{
fill: #EE314A;
}
.gj_334{
fill: #25408F;
}
.gk_334{
fill: #A8AAAD;
}
.gl_334{
fill: none;
stroke: #949698;
stroke-width: 0.549;
}
.gm_334{
fill: none;
stroke: #BCBEC0;
stroke-width: 2.566;
}
.gn_334{
fill: #231F20;
}
.go_334{
fill: #363637;
}
.gp_334{
fill: #5CC4BE;
}
.gq_334{
fill: #EAD646;
}
.gr_334{
fill: #CEEDFB;
}
.gs_334{
fill: #27639D;
}
.gt_334{
fill: none;
stroke: #C3E7F1;
stroke-width: 1.527;
}
.gu_334{
fill: none;
stroke: #FFF;
stroke-width: 1.909;
stroke-miterlimit: 10;
}
.gv_334{
fill: none;
stroke: #000;
stroke-width: 0.381;
stroke-miterlimit: 10;
}
]]></style>
</defs>
<path d="M32.1,1343.2H954.5V32.1H32.1V1343.2Z" class="g0_334"/>
<path clip-path="url(#c0_334)" d="M954.5,1344.3H1877V32.1H954.5V1344.3Z" class="g0_334"/>
<path d="M150.3,424.6c0,0,-18.3,0,-18.3,18.3v547c0,0,0,18.4,18.3,18.4H827.4c0,0,18.4,0,18.4,-18.4V424.6Z" class="g1_334"/>
<path d="M150.3,424.6c0,0,-18.3,0,-18.3,18.3v547c0,0,0,18.4,18.3,18.4H827.4c0,0,18.4,0,18.4,-18.4V424.6H150.3Z" class="g2_334"/>
<path d="M439.2,636c32.9,-.5,59.7,-6.4,65.2,-14.1m-1.1,-7C495.9,607.7,469.5,602.3,437.6,602m-7.9,0c-32.8,.5,-59.6,6.4,-65.1,14.1m1,7c7.4,7.2,33.8,12.6,65.7,12.9" class="g3_334"/>
<path d="M505.1,620.6c.2,-.5,.3,-1.1,.3,-1.6c0,-.5,-.1,-1,-.3,-1.5M436.1,602c-.6,0,-1.1,0,-1.6,0c-.5,0,-1.1,0,-1.6,0m-69.1,15.5c-.2,.5,-.3,1,-.3,1.5c0,.5,.1,1.1,.3,1.6m69.1,15.5c.5,0,1.1,0,1.6,0c.5,0,1,0,1.6,0" class="g4_334"/>
<image clip-path="url(#c1_334)" preserveAspectRatio="none" x="81" y="623" width="149" height="96" xlink:href="img/1.png"/>
<path d="M86.2,645.5l9.7,66.8L224.2,693.8L213.9,627.6Z" class="g5_334"/>
<image clip-path="url(#c2_334)" preserveAspectRatio="none" x="86" y="629" width="142" height="86" xlink:href="img/2.png"/>
<image clip-path="url(#c3_334)" preserveAspectRatio="none" x="86" y="629" width="142" height="86" xlink:href="img/3.png"/>
<path d="M90.6,641l3.9,67.1l105.3,-6.5l22.3,-20.5l-2.6,-48.3Z" class="g6_334"/>
<path d="M200.3,701.5l21.8,-20.4l-20,-.3Z" class="g7_334"/>
<path d="M383.1,605.4C361.6,603.2,269.7,594.5,232.6,602m-7.9,2c-15.6,4.5,-4.8,5.9,1,4.7m-.8,-3.7c-14,-4.2,-62.9,-7,-95.3,39.5" class="g8_334"/>
<path d="M387.6,605.9c0,0,-.5,-.1,-1.5,-.2m-155,-3.4c-.5,.1,-1,.2,-1.5,.4c-.5,.1,-1.1,.2,-1.6,.4m-.6,5.1c.6,-.3,1.1,-.6,1.3,-1c.1,-.3,-.2,-.7,-.9,-1.1m-99.1,39.7c-.3,.4,-.5,.8,-.8,1.2" class="g9_334"/>
<path d="M134.7,642l-8.1,-3.5l-.3,12.1Z" class="ga_334"/>
<path d="M660.4,820.7c12.8,-1,23,-6.1,25.4,-12.5m-.6,-7.5c-3.5,-6,-13.8,-10.5,-26.4,-11.2m-7.8,.1c-12.8,1,-22.9,6,-25.4,12.5m.7,7.5c3.4,6,13.7,10.5,26.3,11.2" class="g3_334"/>
<path d="M686.3,806.7c.1,-.5,.1,-1,.1,-1.6c0,-.5,0,-1,-.1,-1.5m-29,-14.2c-.6,0,-1.1,0,-1.6,0c-.5,0,-1,0,-1.6,0m-29,14.2c0,.5,-.1,1,-.1,1.5c0,.6,.1,1.1,.1,1.6m29,14.1c.6,0,1.1,0,1.6,0c.5,0,1,0,1.6,0" class="g4_334"/>
<image clip-path="url(#c4_334)" preserveAspectRatio="none" x="762" y="722" width="143" height="94" xlink:href="img/4.png"/>
<path d="M767.3,746l9,63.5L899.4,789.8l-9.1,-62.6Z" class="g5_334"/>
<image clip-path="url(#c5_334)" preserveAspectRatio="none" x="762" y="730" width="140" height="82" xlink:href="img/5.png"/>
<image clip-path="url(#c6_334)" preserveAspectRatio="none" x="761" y="730" width="140" height="82" xlink:href="img/6.png"/>
<path d="M766.1,744.5l5.1,60.5L874,796.6l21.8,-20.4l-3.7,-41.7Z" class="g6_334"/>
<path d="M874,796.6l21.9,-20.3l-20,-.3Z" class="g7_334"/>
<path d="M681.8,808c0,0,48.6,-36.3,91.3,-42.8" class="g8_334"/>
<path d="M766.3,770.4l-2.1,-7.8l11.1,1.3Z" class="ga_334"/>
<image clip-path="url(#c7_334)" preserveAspectRatio="none" x="68" y="831" width="148" height="95" xlink:href="img/7.png"/>
<path d="M72.8,853.1l9.6,66.8L210.8,901.4L200.5,835.2Z" class="g5_334"/>
<image clip-path="url(#c8_334)" preserveAspectRatio="none" x="72" y="836" width="143" height="87" xlink:href="img/8.png"/>
<image clip-path="url(#c9_334)" preserveAspectRatio="none" x="72" y="836" width="143" height="86" xlink:href="img/9.png"/>
<path d="M77.2,848.6l3.9,67.1l105.3,-6.5l22.2,-20.5L206,840.4Z" class="g6_334"/>
<path d="M186.8,909.1l21.8,-20.4l-19.9,-.3Z" class="g7_334"/>
<path d="M512.3,821.3c39,-.4,70.9,-6.4,77.2,-14.2m-1.1,-6.8C580,792.9,548.6,787.4,510.8,787.1m-7.8,0c-39,.5,-70.9,6.5,-77.2,14.3m1.1,6.8c8.4,7.3,39.8,12.8,77.6,13.1" class="g3_334"/>
<path d="M590.3,805.7c.2,-.5,.3,-1,.3,-1.5c0,-.5,-.1,-1,-.3,-1.5M509.2,787.1c-.5,0,-1,0,-1.6,0c-.5,0,-1,0,-1.5,0M425,802.7c-.2,.5,-.3,1,-.3,1.5c0,.5,.1,1,.3,1.5m81.1,15.6c.5,0,1,0,1.5,0c.6,0,1.1,0,1.6,0" class="g4_334"/>
<path d="M448.2,812.4c-21.5,-2.3,-115,-12.2,-166.9,-12.2m-7.9,.7c-5.4,1.8,-4.4,6.7,-1.1,8.7m6.5,-2.4c.9,-4.4,-2.3,-11.8,-11,-12.5m-8,.5c-18,2.2,-55.5,9.2,-77.2,51.8" class="g8_334"/>
<path d="M452.7,812.9c0,0,-.5,-.1,-1.5,-.2M279.7,800.2c-.5,0,-1,0,-1.5,0c-.5,0,-1.1,0,-1.6,.1m-2.8,10c.6,.1,1.1,.2,1.7,.2c.6,0,1.1,-.2,1.6,-.5m-11,-15.4c-.5,0,-1.1,.1,-1.7,.1c-.5,.1,-1,.1,-1.5,.2m-81,53.5c-.3,.5,-.5,.9,-.7,1.4" class="g9_334"/>
<path d="M179.2,845.1l7.5,4.7L177,857Z" class="ga_334"/>
<path d="M302.1,1216.2c0,0,-4.3,0,-4.3,4.3v10.8c0,0,0,4.3,4.3,4.3h30.4c0,0,4.3,0,4.3,-4.3v-10.8c0,0,0,-4.3,-4.3,-4.3Z" class="gb_334"/>
<path d="M289,1208.7v34.8m1.3,1H844.8m1,-1.4v-34.8m-1.3,-1H289.9" class="gc_334"/>
<path d="M289,1243.9v.6h.5m555.7,0h.6v-.6m0,-36v-.6h-.6m-555.7,0H289v.6" class="gd_334"/>
<path d="M145.2,1016c0,0,-13,0,-13,13v160.3c0,0,0,13,13,13H833c0,0,13,0,13,-13V1029c0,0,0,-13,-13,-13Z" class="g1_334"/>
<path d="M145.2,1016c0,0,-13,0,-13,13v160.3c0,0,0,13,13,13H833c0,0,13,0,13,-13V1029c0,0,0,-13,-13,-13H145.2Z" class="g2_334"/>
<path d="M209.6,460.8c0,0,-12.9,0,-12.9,13v47.7c0,0,0,12.9,12.9,12.9h602c0,0,13,0,13,-12.9V473.8c0,0,0,-13,-13,-13Z" class="ge_334"/>
<image clip-path="url(#ca_334)" preserveAspectRatio="none" x="153" y="457" width="75" height="76" xlink:href="img/10.png"/>
<path d="M204.4,527.1c0,0,-26.8,11.3,-51.1,-12.8c0,0,15.2,25.3,49.3,24c0,0,24.8,.3,20.3,-10.1c0,0,1.2,-4.5,-18.5,-1.1Z" class="ge_334"/>
<path d="M209.5,1059.3c0,0,-13,0,-13,13V1094c0,0,0,13,13,13h602c0,0,13,0,13,-13v-21.7c0,0,0,-13,-13,-13Z" class="ge_334"/>
<image clip-path="url(#cb_334)" preserveAspectRatio="none" x="152" y="1030" width="75" height="76" xlink:href="img/11.png"/>
<path d="M204.3,1099.6c0,0,-26.8,11.3,-51.1,-12.8c0,0,15.2,25.4,49.3,24c0,0,24.8,.4,20.2,-10.1c0,0,1.3,-4.5,-18.4,-1.1Z" class="ge_334"/>
<image clip-path="url(#cc_334)" x="148" y="638" width="5" height="9" xlink:href="shade/1.png"/>
<image clip-path="url(#cd_334)" x="147" y="611" width="24" height="28" xlink:href="shade/2.png"/>
<image clip-path="url(#ce_334)" x="147" y="614" width="23" height="33" xlink:href="shade/3.png"/>
<image clip-path="url(#cf_334)" x="152" y="610" width="20" height="10" xlink:href="shade/4.png"/>
<image clip-path="url(#cg_334)" x="135" y="845" width="6" height="9" xlink:href="shade/5.png"/>
<image clip-path="url(#ch_334)" x="135" y="818" width="24" height="28" xlink:href="shade/6.png"/>
<image clip-path="url(#ci_334)" x="135" y="820" width="23" height="34" xlink:href="shade/7.png"/>
<image clip-path="url(#cj_334)" x="140" y="816" width="20" height="10" xlink:href="shade/8.png"/>
<image clip-path="url(#ck_334)" x="823" y="740" width="6" height="9" xlink:href="shade/9.png"/>
<image clip-path="url(#cl_334)" x="823" y="714" width="24" height="28" xlink:href="shade/10.png"/>
<image clip-path="url(#cm_334)" x="822" y="716" width="23" height="33" xlink:href="shade/11.png"/>
<image clip-path="url(#cn_334)" x="828" y="712" width="20" height="10" xlink:href="shade/12.png"/>
<path d="M32.1,179.3H967.5V32.1H32.1V179.3Z" class="gf_334"/>
<path d="M254.5,134c-.5,0,-1,.2,-1.5,.4c-.5,.3,-.9,.5,-1.3,.8c-.8,.8,-1.4,1.8,-1.8,2.8c-.4,1,-.7,2.1,-.7,3.3c0,1.5,.3,2.8,.9,3.9c.8,1.4,1.8,2.1,3.2,2.1c.3,0,.6,0,.9,-.1c.2,-.1,.5,-.2,.7,-.4c.2,-.2,.3,-.4,.4,-.7c.1,-.2,.2,-.5,.2,-.8c0,-.4,-.1,-.9,-.4,-1.2c-.3,-.3,-.7,-.5,-1,-.5c-.2,0,-.4,.1,-.6,.1c-.2,.1,-.3,.2,-.5,.3c-.1,.2,-.2,.3,-.3,.4c-.1,.2,-.1,.4,-.1,.6c0,.2,0,.4,.2,.7c.1,.2,.3,.4,.5,.6c0,0,-.1,.1,-.2,.1H253c-.8,0,-1.4,-.5,-1.9,-1.4c-.5,-.7,-.7,-1.5,-.7,-2.3c0,-1,.1,-1.9,.3,-2.7c.2,-.7,.6,-1.4,1,-2.1c.4,-.7,1,-1.3,1.6,-1.7c.7,-.5,1.5,-.8,2.4,-1L254.5,134Zm15.6,1.2L268.8,134H253.7l1.2,1.2h7.8v1c-2.6,.8,-4.9,2.1,-7,3.7l1.7,2.1c1.4,.1,2.6,.7,3.7,1.8c.4,.5,.9,1,1.3,1.6c.4,.7,.7,1.3,1,2c0,.1,.1,.1,.1,.2c.1,0,.2,.1,.3,.1v-10c1.2,0,2.1,.3,2.8,1c.6,.7,1,1.4,1,2.2l-.1,.3c-.2,-.2,-.4,-.3,-.6,-.4c-.2,-.2,-.4,-.2,-.6,-.2c-.4,0,-.8,.1,-1,.4c-.3,.2,-.4,.5,-.4,.9c0,.2,0,.4,.1,.6c.1,.2,.2,.3,.4,.5c.1,.1,.3,.2,.5,.3c.2,.1,.4,.1,.6,.1c.2,0,.5,-.1,.7,-.2c.3,-.1,.5,-.3,.7,-.5c.1,-.2,.3,-.4,.4,-.7c.1,-.3,.1,-.5,.1,-.8c0,-1.3,-.4,-2.4,-1.2,-3.4c-.9,-1.2,-2,-1.7,-3.4,-1.7v-.9h6.3Zm-7.5,9.1c-1,-1.8,-2.5,-3.1,-4.5,-4c.8,-.5,1.6,-1,2.3,-1.4c.8,-.4,1.5,-.8,2.2,-1.1v6.5Zm12.1,-9.1L273.5,134h-1.1c-.3,-.4,-.6,-1,-.7,-1.9l-.4,-.3c0,.2,0,.5,0,.9c0,.3,0,.7,.1,1.2c0,.5,0,.9,0,1.3c.1,.3,.1,.6,.1,.9c-.3,-.8,-.6,-1.3,-1,-1.6c-.4,-.3,-1,-.5,-1.7,-.5h-1.4l1.2,1.2c.4,0,.7,.1,1,.2c.4,.1,.6,.3,.9,.5c.2,.2,.4,.4,.6,.7c.1,.3,.2,.7,.2,1v8.9l1.1,1.2V135.2h2.3Zm20.9,0L294.3,134c0,0,-.1,0,-.2,0c0,0,-.1,0,-.1,0c-.5,0,-.8,-.2,-.9,-.6c-.1,-.1,-.1,-.2,-.1,-.4c-.1,-.2,-.1,-.5,-.2,-.8c0,-.1,-.1,-.1,-.2,-.2c-.1,-.1,-.2,-.2,-.3,-.3c.1,1.1,.1,2.2,.2,3.2c0,1.1,.1,2.1,.1,3.2c-1.5,-2.6,-3.2,-3.9,-4.9,-3.9c-.5,0,-.9,.1,-1.5,.3c-.5,.1,-1,.4,-1.5,.7c-.2,.1,-.3,.3,-.5,.4c-.1,.1,-.3,.2,-.4,.3c-.1,-.2,-.2,-.4,-.4,-.7c-.1,-.1,-.2,-.2,-.3,-.4c-.1,-.1,-.2,-.3,-.4,-.4c-.1,-.1,-.3,-.2,-.4,-.3c-.2,-.1,-.3,-.1,-.4,-.1h-8.8l1.2,1.2c.3,0,.5,0,.8,0c.2,0,.5,0,.7,.1c.2,0,.3,0,.5,0c.1,0,.2,.1,.3,.1c.1,.1,.3,.8,.4,1.9c0,.1,-.3,.2,-.6,.4c-.4,.1,-.6,.2,-.7,.3c-.3,.3,-.4,.6,-.4,1.1c0,.3,.1,.6,.4,.9c.2,.3,.5,.4,.9,.4c.4,0,.8,-.1,1.2,-.4c.3,-.2,.4,-.6,.4,-1v-.3c.7,.8,1.2,1.2,1.5,1.4c.7,.5,1.3,.7,1.9,.7c.7,0,1.3,-.4,1.8,-1.2v.1c.2,-.3,.3,-.7,.4,-1c.3,0,.6,-.1,.9,-.3c.4,-.1,.7,-.2,.9,-.2c.5,0,.7,.4,.7,1.2c0,.5,-.4,1.1,-1.2,1.9l1.7,.6l4.2,-4.2c.1,.1,.3,.2,.5,.4c.1,.2,.3,.4,.4,.6c.3,.5,.5,1,.5,1.3l-.1,6.4l1.2,1.3V135.2h2.1Zm-13,3.3c-.3,.3,-.7,.5,-1.3,.5c-.7,0,-1.4,-.2,-1.9,-.6c-.2,-.1,-.3,-.3,-.5,-.6c-.2,-.2,-.3,-.5,-.5,-.9l-.8,-1.7h4.3c.6,0,.9,.7,.9,2c0,.6,-.1,1.1,-.2,1.3Zm4.4,.9c.1,-.7,0,-1.2,-.3,-1.6c-.3,-.5,-.8,-.7,-1.4,-.7c.5,-1.1,1.5,-1.6,2.8,-1.6c.7,0,1.3,.3,1.9,.9l-3,3Zm13.2,-4.2L299,134h-1c-.4,-.4,-.6,-1,-.8,-1.9l-.4,-.3c0,.2,0,.5,0,.9c0,.3,0,.7,.1,1.2c0,.5,0,.9,.1,1.3c0,.3,0,.6,0,.9c-.3,-.8,-.6,-1.3,-1,-1.6c-.4,-.3,-.9,-.5,-1.7,-.5H293l1.2,1.2c.3,0,.6,.1,1,.2c.3,.1,.6,.3,.8,.5c.3,.2,.5,.4,.6,.7c.1,.3,.2,.7,.2,1v8.9l1.2,1.2V135.2h2.2Zm11.9,-3.3c-2.3,-2.4,-4.8,-3.6,-7.3,-3.6c-1,0,-2,.4,-3.1,1.2c-1,.9,-1.6,1.8,-1.6,2.7c0,.4,.2,.7,.5,1l.8,.8h-3.2l1.2,1.2h1.8v11.3l1.3,1.2V135.2h2.1L303.3,134H302l-.4,-1.1c0,-.9,.6,-1.6,1.6,-2.3c.9,-.7,1.9,-1,2.8,-1c.6,0,1.2,.1,1.7,.2c.6,.2,1.2,.4,1.7,.7c.6,.4,1.2,.7,1.6,1c.5,.4,.9,.7,1.3,1l-.2,-.6Zm3.7,3.3L314.5,134H302.9l1.2,1.2h8.4v6.6h-.1c-1.2,-2.6,-2.7,-4,-4.4,-4c-.8,0,-1.5,.3,-2.1,.9c-.6,.5,-.9,1.2,-.9,2c0,1.5,.8,2.2,2.4,2.2c.5,0,.8,-.2,1.1,-.5c.4,-.4,.5,-.8,.5,-1.3c0,-.3,-.3,-.8,-.8,-1.5c.1,-.1,.2,-.1,.3,-.1c1.3,0,2.4,.8,3.4,2.5c.6,1.4,.9,2.9,.9,4.2l-.1,1.3l1,.6V135.2h2.1Zm20.9,0L335.5,134c-.1,0,-.3,0,-.4,0c-.4,0,-.7,-.2,-.9,-.6c-.1,-.2,-.1,-.6,-.2,-1.2l-.5,-.5c0,1.1,.1,2.2,.1,3.2c.1,1.1,.1,2.1,.2,3.2h-.1c-1.5,-2.6,-3.1,-3.9,-4.9,-3.9c-.4,0,-.9,.1,-1.4,.3c-.5,.1,-1.1,.4,-1.6,.7c-.5,.4,-1,.8,-1.3,1.2c-.3,.4,-.4,.9,-.4,1.3c0,.2,.1,.5,.3,.7c.2,.2,.4,.3,.6,.3c.2,0,.5,-.1,.9,-.3c.2,-.1,.3,-.1,.5,-.2c.1,0,.2,0,.3,0c.5,0,.8,.4,.8,1.2c0,.5,-.5,1.1,-1.3,1.9l1.7,.6l4.2,-4.2c.2,.1,.3,.2,.5,.4c.1,.2,.3,.4,.5,.6c.1,.3,.2,.5,.3,.7c.1,.3,.2,.5,.2,.6l-.2,6.4l1.3,1.3V135.2h2Zm-8.5,4.2c0,-.7,-.1,-1.2,-.4,-1.6c-.3,-.5,-.7,-.7,-1.4,-.7c.6,-1.1,1.5,-1.6,2.8,-1.6c.7,0,1.4,.3,1.9,.9l-2.9,3Zm20.5,-7.5c-2.3,-2.4,-4.7,-3.6,-7.3,-3.6c-1,0,-2,.4,-3,1.2c-1.1,.9,-1.7,1.8,-1.7,2.7c0,.4,.2,.7,.5,1l.8,.8h-3.1l1.1,1.2h1.9v11.3l1.2,1.2V135.2h2.1L339.9,134h-1.3l-.4,-1.1c0,-.9,.6,-1.6,1.6,-2.3c1,-.7,1.9,-1,2.8,-1c.6,0,1.2,.1,1.8,.2c.5,.2,1.1,.4,1.6,.7c.6,.4,1.2,.7,1.6,1c.5,.4,.9,.7,1.3,1l-.2,-.6Zm3.7,3.3L351.2,134H339.4l1.2,1.2h8.2v.9c-2.5,.8,-5,2.1,-7.4,3.7l1.6,2.3c1.7,.1,3,.7,4,1.6c.3,.3,.6,.6,1,1c.3,.4,.5,.8,.7,1c.1,.3,.3,.7,.6,1.3l.6,.8V135.2h2.5Zm-3.6,9.4c-1.1,-1.8,-2.7,-3.2,-4.9,-4.1c.9,-.6,1.7,-1.1,2.5,-1.5c.8,-.4,1.6,-.7,2.4,-1v6.6Zm-4.7,1.7c.2,.3,.5,.4,.8,.4c.4,0,.7,-.1,.9,-.4c.3,-.2,.4,-.5,.4,-.8c0,-.4,-.1,-.7,-.4,-.9c-.2,-.3,-.5,-.4,-.9,-.4c-.3,0,-.6,.1,-.8,.4c-.3,.2,-.4,.5,-.4,.9c0,.3,.1,.6,.4,.8Zm19.4,-11.1L362.3,134H350.5l1.1,1.2h8.2v.9c-2.5,.8,-4.9,2.1,-7.3,3.7l1.5,2.3c1.7,.1,3.1,.7,4.1,1.6c.3,.3,.6,.6,.9,1c.4,.4,.6,.8,.8,1.2c.2,.3,.3,.5,.4,.7c0,.1,.1,.2,.1,.4l.7,.8V135.2h2.5Zm-3.7,9.4c-1,-1.8,-2.6,-3.2,-4.8,-4.1c.9,-.6,1.7,-1.1,2.5,-1.5c.8,-.4,1.6,-.7,2.3,-1v6.6Zm16,-10.6H361.5l1.3,1.2H377L375.8,134Zm-.6,5.6c-.2,-.6,-.5,-1.2,-.9,-1.7c-.5,-.5,-1,-.9,-1.5,-1.1c-.6,-.3,-1.2,-.5,-1.8,-.5c-.8,0,-1.5,.3,-2,.7c-.6,.5,-.9,1.1,-.9,1.9c0,.6,.2,1.2,.5,1.6c.4,.5,.9,.7,1.5,.7c1.3,0,1.9,-.6,1.9,-1.7c0,-.5,-.1,-1,-.5,-1.4c.4,-.1,.7,-.2,.9,-.2c.6,0,1.1,.3,1.6,.9c.3,.6,.5,1.1,.5,1.8c0,.8,-.3,1.6,-1,2.3c-.8,.6,-1.6,1,-2.5,1c-1.7,0,-3.2,-.9,-4.4,-2.8c-.3,-.3,-.7,-1,-1.1,-1.8c-.4,-.9,-.9,-1.9,-1.4,-3.1l-.6,-.2c1.7,6.5,4.3,9.8,7.5,9.8c1.1,0,2.2,-.5,3.1,-1.3c.5,-.4,.8,-.8,1.1,-1.4c.2,-.5,.3,-1,.3,-1.6c0,-.7,-.1,-1.3,-.3,-1.9Zm3.9,-11.7H378l-7,5h2.9l5.2,-5Zm9.2,7.3L387.1,134H375.4l1.2,1.2H385v6.6c-1.3,-2.6,-2.8,-4,-4.5,-4c-.8,0,-1.5,.3,-2.1,.9c-.5,.5,-.8,1.2,-.8,2c0,1.5,.7,2.2,2.3,2.2c.5,0,.9,-.2,1.2,-.5c.3,-.4,.4,-.8,.4,-1.3c0,-.3,-.2,-.8,-.8,-1.5c.1,-.1,.2,-.1,.4,-.1c1.2,0,2.4,.8,3.3,2.5c.7,1.4,1,2.9,1,4.2l-.1,1.3l.9,.6V135.2h2.1Zm22.4,0L409.4,134H394.3l1.2,1.2h7.8v1c-2.6,.8,-4.9,2.1,-7,3.7L398,142c1.4,.1,2.6,.7,3.7,1.8c.4,.5,.9,1,1.2,1.6c.4,.7,.8,1.3,1.1,2q0,.1,.1,.2c.1,0,.2,.1,.3,.1v-10c1.2,0,2.1,.3,2.8,1c.6,.7,1,1.4,1,2.2l-.2,.3c-.1,-.2,-.3,-.3,-.5,-.4c-.2,-.2,-.4,-.2,-.6,-.2c-.4,0,-.8,.1,-1,.4c-.3,.2,-.4,.5,-.4,.9c0,.2,0,.4,.1,.6c.1,.2,.2,.3,.4,.5c.1,.1,.3,.2,.5,.3c.2,.1,.3,.1,.5,.1c.3,0,.6,-.1,.8,-.2c.3,-.1,.5,-.3,.7,-.5c.1,-.2,.3,-.4,.4,-.7c.1,-.3,.1,-.5,.1,-.8c0,-1.3,-.4,-2.4,-1.2,-3.4c-.9,-1.2,-2,-1.7,-3.4,-1.7v-.9h6.3Zm-7.5,9.1c-1,-1.8,-2.5,-3.1,-4.5,-4c.8,-.5,1.6,-1,2.3,-1.4c.8,-.4,1.5,-.8,2.2,-1.1v6.5ZM422,135.2L420.8,134H409l1.2,1.2h8.2v.9c-2.6,.8,-5,2.1,-7.4,3.7l1.6,2.3c1.7,.1,3,.7,4,1.6c.3,.3,.6,.6,1,1c.3,.4,.5,.8,.7,1c.1,.3,.3,.7,.6,1.3l.6,.8V135.2H422Zm-3.6,9.4c-1.1,-1.8,-2.7,-3.2,-4.9,-4.1c.9,-.6,1.7,-1.1,2.5,-1.5c.8,-.4,1.6,-.7,2.4,-1v6.6Zm-4.7,1.7c.2,.3,.5,.4,.8,.4c.4,0,.7,-.1,.9,-.4c.2,-.2,.4,-.5,.4,-.8c0,-.4,-.2,-.7,-.4,-.9c-.2,-.3,-.5,-.4,-.9,-.4c-.3,0,-.6,.1,-.8,.4c-.3,.2,-.4,.5,-.4,.9c0,.3,.1,.6,.4,.8ZM427.9,134h-8l1.2,1.2h4c-1.7,2,-2.5,4,-2.5,6.1c0,1.5,.3,2.8,.9,3.9c.8,1.4,1.8,2.1,3.2,2.1c.3,0,.6,0,.8,-.1c.3,-.1,.5,-.2,.7,-.4c.2,-.2,.4,-.4,.5,-.7c.1,-.2,.2,-.5,.2,-.8c0,-.4,-.2,-.9,-.4,-1.2c-.3,-.3,-.7,-.5,-1.1,-.5c-.3,0,-.7,.2,-1,.4c-.3,.3,-.4,.6,-.4,1c0,.2,0,.4,.1,.7c.2,.2,.4,.4,.6,.6c-.7,.2,-1.5,-.2,-2.2,-1.3c-.5,-.7,-.7,-1.5,-.7,-2.3c0,-1,.1,-1.9,.3,-2.7c.2,-.7,.5,-1.4,1,-2.1c.4,-.7,1,-1.3,1.6,-1.7c.7,-.5,1.5,-.8,2.4,-1L427.9,134Zm13.5,0H427.1l1.3,1.2h14.3L441.4,134Zm-.6,5.6c-.2,-.6,-.5,-1.2,-.9,-1.7c-.4,-.5,-.9,-.9,-1.5,-1.1c-.6,-.3,-1.2,-.5,-1.8,-.5c-.8,0,-1.4,.3,-2,.7c-.6,.5,-.9,1.1,-.9,1.9c0,.6,.2,1.2,.6,1.6c.3,.5,.8,.7,1.4,.7c1.3,0,2,-.6,2,-1.7c0,-.5,-.2,-1,-.5,-1.4c.3,-.1,.6,-.2,.8,-.2c.6,0,1.2,.3,1.6,.9c.4,.6,.6,1.1,.6,1.8c0,.8,-.4,1.6,-1.1,2.3c-.8,.6,-1.6,1,-2.5,1c-1.7,0,-3.2,-.9,-4.4,-2.8c-.3,-.3,-.6,-1,-1.1,-1.8c-.4,-.9,-.8,-1.9,-1.3,-3.1l-.7,-.2c1.8,6.5,4.3,9.8,7.5,9.8c1.2,0,2.2,-.5,3.2,-1.3c.4,-.4,.7,-.8,1,-1.4c.2,-.5,.4,-1,.4,-1.6c0,-.7,-.1,-1.3,-.4,-1.9ZM459.2,134H448.9l1.2,1.2h1.8v9.1c0,.4,.2,.9,.7,1.5c.4,.5,.9,.7,1.3,.7c1.2,0,2.4,-.7,3.5,-2.2c1.1,-1.4,1.7,-2.7,1.7,-3.9c.1,-1,-.9,-1.8,-3,-2.5c-2.1,-.6,-3.1,-1.5,-3.1,-2.7h7.4L459.2,134Zm-1.9,6.8c0,.7,-.5,1.5,-1.4,2.6c-.8,1,-1.6,1.5,-2.3,1.5c-.3,0,-.5,-.2,-.5,-.7v-7c.8,1.5,2.2,2.5,4.1,3.1c0,0,.1,.2,.1,.5Zm7.7,-5.6L463.8,134h-1c-.4,-.4,-.6,-1,-.8,-1.9l-.4,-.3c0,.2,0,.5,0,.9c0,.3,0,.7,.1,1.2c0,.5,0,.9,.1,1.3c0,.3,0,.6,0,.9c-.3,-.8,-.6,-1.3,-1,-1.6c-.4,-.3,-.9,-.5,-1.7,-.5h-1.3l1.2,1.2c.3,0,.6,.1,.9,.2c.4,.1,.7,.3,.9,.5c.3,.2,.4,.4,.6,.7c.1,.3,.2,.7,.2,1v8.9l1.2,1.2V135.2H465ZM475,134h-1c.1,-1.1,-.3,-2,-1,-2.5c-.8,-.6,-1.9,-.9,-3.4,-.9c-.9,.1,-1.6,.1,-2.1,.2c-.5,0,-.9,0,-1,0c-.5,0,-.9,-.1,-1.2,-.3c-.4,-.3,-.7,-.6,-.7,-1c0,-.4,.2,-.8,.6,-1c-.1,0,-.2,0,-.2,0q-.1,0,-.2,0c-.1,-.1,-.3,.1,-.5,.5c-.2,.3,-.3,.6,-.3,.8c0,.8,.4,1.5,1.3,2c.7,.4,1.6,.7,2.5,.7c.2,0,.4,-.1,.7,-.1c.3,0,.6,0,1,0c.4,-.1,.8,-.1,1.1,-.1c.3,0,.5,0,.7,0c.2,0,.4,0,.6,0c.2,0,.4,.1,.5,.1c.5,.2,.8,.4,.8,.7c0,.3,-.3,.5,-.7,.7c-.2,.1,-.3,.1,-.5,.1c-.2,.1,-.4,.1,-.5,.1h-8.2l1.2,1.2h3.9c.5,.4,.8,.7,.8,1c-.8,0,-1.4,.3,-1.9,.8c-.6,.5,-.9,1.1,-.9,1.8c0,.4,.1,.7,.4,.9c.3,.2,.7,.3,1,.3c.6,0,1.1,-.2,1.6,-.7c.5,-.5,.7,-1,.7,-1.6c.2,0,.3,0,.3,-.1c.1,0,.2,0,.4,0c.2,0,.4,.1,.6,.2c.2,.1,.4,.2,.6,.4c.1,.2,.2,.4,.3,.7c.1,.2,.1,.5,.1,.7c.1,.8,-.4,1.5,-1.4,2c-.7,.3,-1.5,.5,-2.4,.4c-1.3,-.1,-2.4,-.4,-3.4,-1l1.4,3c.9,.2,1.8,.5,2.6,.9c.9,.3,1.8,.7,2.6,1.2c.8,.5,1.6,1,2.3,1.5c.7,.6,1.3,1.2,1.9,1.9l-.3,-1.3c-1.1,-1.1,-2.1,-2,-3,-2.8c-.9,-.8,-1.8,-1.4,-2.6,-1.9c1.2,-.3,2.1,-.7,2.7,-1.2c.8,-.6,1.1,-1.5,1.1,-2.4c0,-1,-.3,-1.8,-.9,-2.5c-.4,-.5,-1.2,-.9,-2.5,-1.3c-.1,-.2,-.2,-.3,-.3,-.5c-.1,-.1,-.2,-.2,-.3,-.4h6.3L475,134Z" class="gg_334"/>
<g clip-path="url(#c0_334)">
<path d="M1877,177.2H32.1v-5.4H768.7c43.1,0,53,-37.9,115.3,-37.9h993Z" class="gh_334"/>
<path d="M1877,183.7H32.1v-9.8H768.7c43.1,0,53,-33.6,115.3,-33.6h993Z" class="gi_334"/>
</g>
<path d="M131.7,398.6v38.9l11.7,10.3V403.6Z" class="gj_334"/>
<path d="M131.7,398.6v38.9H829.5c0,0,16.8,0,16.8,-16.8v-5.3c0,0,0,-16.8,-16.8,-16.8Z" class="gb_334"/>
<path d="M781,432.2c8.2,0,14.8,-6.5,14.8,-14.5c0,-8,-6.6,-14.5,-14.8,-14.5c-8.3,0,-14.9,6.5,-14.9,14.5c0,8,6.6,14.5,14.9,14.5Z" class="gk_334"/>
<path d="M781,432.2c8.2,0,14.8,-6.5,14.8,-14.5c0,-8,-6.6,-14.5,-14.8,-14.5c-8.3,0,-14.9,6.5,-14.9,14.5c0,8,6.6,14.5,14.9,14.5Z" class="gl_334"/>
<path d="M781,423c3,0,5.4,-2.4,5.4,-5.3c0,-3,-2.4,-5.4,-5.4,-5.4c-3.1,0,-5.5,2.4,-5.5,5.4c0,2.9,2.4,5.3,5.5,5.3Z" class="g1_334"/>
<path d="M781,423c3,0,5.4,-2.4,5.4,-5.3c0,-3,-2.4,-5.4,-5.4,-5.4c-3.1,0,-5.5,2.4,-5.5,5.4c0,2.9,2.4,5.3,5.5,5.3Z" class="gm_334"/>
<g clip-path="url(#co_334)" opacity="0.3">
<path d="M766.4,416.9c0,0,-.1,-4.8,3.6,-8.6l7.8,6.7c0,0,-1,.9,-1.1,2.6Z" class="g1_334"/>
</g>
<path d="M785.6,417.6c0,0,-3.5,0,-3.5,3.4v8.8c0,0,0,3.4,3.5,3.4H829c0,0,3.5,0,3.5,-3.4V421c0,0,0,-3.4,-3.5,-3.4Z" class="gn_334"/>
<path d="M169.5,408.6c0,-8.3,-6.7,-15,-15,-15c-8.4,0,-15.1,6.7,-15.1,15c0,8.4,6.8,15.1,15.1,15.1c.8,0,1.6,-.1,2.4,-.2l4.5,5.2V422c4.8,-2.5,8.1,-7.5,8.1,-13.4Z" class="g1_334"/>
<path d="M161.8,430l-5.1,-6c-.7,.1,-1.5,.2,-2.2,.2c-8.6,0,-15.6,-7,-15.6,-15.6c0,-8.5,7,-15.5,15.6,-15.5c8.5,0,15.5,7,15.5,15.5c0,5.8,-3.1,11,-8.2,13.7Zm-4.7,-7l3.8,4.5v-5.8l.3,-.1c4.8,-2.5,7.9,-7.5,7.9,-13c0,-8,-6.6,-14.6,-14.6,-14.6c-8.1,0,-14.6,6.6,-14.6,14.6c0,8.1,6.5,14.6,14.6,14.6c.7,0,1.5,0,2.3,-.2Z" class="go_334"/>
<path d="M147.4,408.2c.8,0,1.5,.7,1.5,1.4c0,.8,-.7,1.5,-1.5,1.5c-.7,0,-1.4,-.7,-1.4,-1.5c0,-.7,.7,-1.4,1.4,-1.4Z" class="gp_334"/>
<path d="M147.4,411.5c-1,0,-1.8,-.8,-1.8,-1.9c0,-1,.8,-1.8,1.8,-1.8c1.1,0,1.9,.8,1.9,1.8c0,1.1,-.8,1.9,-1.9,1.9m0,-2.8c-.5,0,-.9,.4,-.9,.9c0,.6,.4,1,.9,1c.6,0,1,-.4,1,-1c0,-.5,-.4,-.9,-1,-.9Z" class="go_334"/>
<path d="M154.5,408.2c.8,0,1.4,.7,1.4,1.4c0,.8,-.6,1.5,-1.4,1.5c-.8,0,-1.5,-.7,-1.5,-1.5c0,-.7,.7,-1.4,1.5,-1.4Z" class="gp_334"/>
<path d="M154.5,411.5c-1.1,0,-1.9,-.8,-1.9,-1.9c0,-1,.8,-1.8,1.9,-1.8c1,0,1.9,.8,1.9,1.8c0,1.1,-.9,1.9,-1.9,1.9m0,-2.8c-.6,0,-1,.4,-1,.9c0,.6,.4,1,1,1c.5,0,.9,-.4,.9,-1c0,-.5,-.4,-.9,-.9,-.9Z" class="go_334"/>
<path d="M161.5,408.2c.8,0,1.4,.7,1.4,1.4c0,.8,-.6,1.5,-1.4,1.5c-.8,0,-1.5,-.7,-1.5,-1.5c0,-.7,.7,-1.4,1.5,-1.4Z" class="gp_334"/>
<path d="M161.5,411.5c-1.1,0,-1.9,-.8,-1.9,-1.9c0,-1,.8,-1.8,1.9,-1.8c1,0,1.9,.8,1.9,1.8c0,1.1,-.9,1.9,-1.9,1.9m0,-2.8c-.6,0,-1,.4,-1,.9c0,.6,.4,1,1,1c.5,0,1,-.4,1,-1c0,-.5,-.5,-.9,-1,-.9Z" class="go_334"/>
<path d="M163.4,422.9c0,-9.7,7.9,-17.6,17.6,-17.6c9.7,0,17.6,7.9,17.6,17.6c0,9.7,-7.9,17.6,-17.6,17.6c-.9,0,-1.9,-.1,-2.8,-.2l-5.3,6.1v-7.9c-5.6,-2.9,-9.5,-8.8,-9.5,-15.6Z" class="gq_334"/>
<path d="M172.9,446.8c0,0,-.1,0,-.1,0c-.2,-.1,-.3,-.2,-.3,-.4v-7.6c-5.9,-3.1,-9.6,-9.2,-9.6,-15.9c0,-10,8.2,-18.1,18.1,-18.1c10,0,18.1,8.1,18.1,18.1c0,9.9,-8.1,18.1,-18.1,18.1c-.8,0,-1.7,-.1,-2.6,-.2l-5.1,5.9c-.1,.1,-.2,.1,-.4,.1M181,405.7c-9.4,0,-17.1,7.7,-17.1,17.2c0,6.4,3.5,12.3,9.2,15.2c.2,.1,.3,.3,.3,.4v6.6l4.4,-5.1c.1,-.1,.3,-.2,.5,-.2c.9,.2,1.8,.2,2.7,.2c9.5,0,17.2,-7.7,17.2,-17.1c0,-9.5,-7.7,-17.2,-17.2,-17.2Z" class="go_334"/>
<path d="M189.2,422.4c.9,0,1.7,.7,1.7,1.7c0,.9,-.8,1.6,-1.7,1.6c-.9,0,-1.7,-.7,-1.7,-1.6c0,-1,.8,-1.7,1.7,-1.7Z" class="g1_334"/>
<path d="M189.2,426.2c-1.2,0,-2.1,-1,-2.1,-2.1c0,-1.2,.9,-2.2,2.1,-2.2c1.2,0,2.1,1,2.1,2.2c0,1.1,-.9,2.1,-2.1,2.1m0,-3.4c-.7,0,-1.2,.6,-1.2,1.3c0,.6,.5,1.2,1.2,1.2c.7,0,1.2,-.6,1.2,-1.2c0,-.7,-.5,-1.3,-1.2,-1.3Z" class="go_334"/>
<path d="M181,422.4c.9,0,1.7,.7,1.7,1.7c0,.9,-.8,1.6,-1.7,1.6c-.9,0,-1.7,-.7,-1.7,-1.6c0,-1,.8,-1.7,1.7,-1.7Z" class="g1_334"/>
<path d="M181,426.2c-1.2,0,-2.1,-1,-2.1,-2.1c0,-1.2,.9,-2.2,2.1,-2.2c1.2,0,2.1,1,2.1,2.2c0,1.1,-.9,2.1,-2.1,2.1m0,-3.4c-.7,0,-1.2,.6,-1.2,1.3c0,.6,.5,1.2,1.2,1.2c.7,0,1.2,-.6,1.2,-1.2c0,-.7,-.5,-1.3,-1.2,-1.3Z" class="go_334"/>
<path d="M172.8,422.4c.9,0,1.7,.7,1.7,1.7c0,.9,-.8,1.6,-1.7,1.6c-.9,0,-1.7,-.7,-1.7,-1.6c0,-1,.8,-1.7,1.7,-1.7Z" class="g1_334"/>
<path d="M172.8,426.2c-1.2,0,-2.1,-1,-2.1,-2.1c0,-1.2,.9,-2.2,2.1,-2.2c1.2,0,2.1,1,2.1,2.2c0,1.1,-.9,2.1,-2.1,2.1m0,-3.4c-.7,0,-1.2,.6,-1.2,1.3c0,.6,.5,1.2,1.2,1.2c.7,0,1.2,-.6,1.2,-1.2c0,-.7,-.5,-1.3,-1.2,-1.3Z" class="go_334"/>
<image clip-path="url(#cp_334)" preserveAspectRatio="none" x="125" y="206" width="734" height="181" xlink:href="img/12.png"/>
<path d="M144.6,231.3c0,0,-13,0,-13,13v117c0,0,0,13,13,13H833.1c0,0,13,0,13,-13v-130Z" class="gr_334"/>
<path d="M147.7,294.1l54.1,40.8l54.1,-40.8V230h8.7V211.9H155.8c-6.5,.4,-7.7,3.9,-8.2,8.4Z" class="gs_334"/>
<path d="M274,220.3c-.3,-4.7,-4.2,-8.4,-9,-8.4c-4.8,0,-8.7,3.7,-9,8.4h-.1V230h18.2v-9.7Z" class="gn_334"/>
<path d="M255.9,230.6H846.1" class="gt_334"/>
<path d="M32.1,45.1H9.2m958.3,0h22.9M32.1,1331.3H9.2m958.3,0h22.9M45.1,32.1V9.2m0,1335.1v22.9M954.5,32.1V9.2m0,1335.1v22.9" class="gu_334"/>
<path d="M32.1,45.1H9.2m958.3,0h22.9M32.1,1331.3H9.2m958.3,0h22.9M45.1,32.1V9.2m0,1335.1v22.9M954.5,32.1V9.2m0,1335.1v22.9" class="gv_334"/>
<path d="M27.5,32.1H0m972.1,0h27.5M27.5,1344.3H0m972.1,0h27.5M32.1,27.5V0m0,1348.9v27.5M967.5,27.5V0m0,1348.9v27.5" class="gu_334"/>
<path d="M27.5,32.1H0m972.1,0h27.5M27.5,1344.3H0m972.1,0h27.5M32.1,27.5V0m0,1348.9v27.5M967.5,27.5V0m0,1348.9v27.5" class="gv_334"/>
</svg>