<?xml version="1.0" encoding="UTF-8" standalone="no"?>
<!DOCTYPE svg PUBLIC "-//W3C//DTD SVG 1.1//EN"
"http://www.w3.org/Graphics/SVG/1.1/DTD/svg11.dtd">
<svg viewBox="0 0 999 1376" version="1.1" xmlns="http://www.w3.org/2000/svg" xmlns:xlink="http://www.w3.org/1999/xlink">
<defs>
<clipPath id="c0_217"><path d="M101.1,632.8V328.7H289.8V632.8Z"/></clipPath>
<clipPath id="c1_217"><path d="M94.8,634.3V326.8H295.6V634.3Z"/></clipPath>
<clipPath id="c2_217"><path d="M94.5,634V326.5H295.3V634Z"/></clipPath>
<clipPath id="c3_217"><path d="M724.2,799.7V528H929.4V799.7Z"/></clipPath>
<clipPath id="c4_217"><path d="M717.7,802.7V526.6H933.3V802.7Z"/></clipPath>
<clipPath id="c5_217"><path d="M717.4,802.4V526.3H933V802.4Z"/></clipPath>
<clipPath id="c6_217"><path d="M198.7,239.5l-6.5,-2.1l-16.4,-14V166.3h72v73.2Z"/></clipPath>
<clipPath id="c7_217"><path d="M198.7,1026.1l-6.5,-2.1l-16.4,-13.9V953h72v73.1Z"/></clipPath>
<clipPath id="c8_217"><path d="M786.5,132.5V120.1H801v12.4Z"/></clipPath>
<clipPath id="c9_217"><path d="M182.7,343.1c-.3,0,3.5,-8.2,3.5,-8.2l.8,.5c0,0,-4,7.7,-4.3,7.7Z"/></clipPath>
<clipPath id="ca_217"><path d="M190.2,335.4c0,0,-6.9,-1.1,-7.6,-5.2c-.6,-3.6,1.5,-3.9,2.1,-3.9c.1,0,.1,.1,.1,.1l8.3,-12.8l-1.4,-3.1c0,0,-.6,-1.1,.1,-2c.1,-.1,.2,-.1,.3,-.1c2.1,0,13,5.5,13,5.5v.2c-.3,.5,-.7,1.1,-1.4,1.6c-.6,.5,-5,1.2,-5,1.2l-8.5,18.5Z"/></clipPath>
<clipPath id="cb_217"><path d="M189.8,335.1c.2,-.5,.2,-1.8,0,-2.3v-1.4c-1.5,-.5,-2.9,-1.2,-3.7,-2.5c-1,.6,-2.1,1.2,-3.1,1.9c1.6,2.1,3.8,3.5,6.8,4.3Zm0,-3.9c2.2,-4.6,4,-9.5,6.1,-14.1c-.8,-.4,-1.8,-1.3,-2.6,-1.4c-2.3,4.3,-4.6,8.6,-7,12.8c.7,1.3,2.1,2,3.5,2.7Zm-7.3,12c1,-2.9,2.4,-5.5,3.5,-8.3c-2,-1.5,-3.9,-3.1,-4.4,-6.1v-1.5c0,-2.7,1.9,-3.4,4.6,-3.4q.1,0,.2,0c1.9,-3.4,4.2,-6.4,6.2,-9.7c-.6,-.9,-1.2,-2.4,-.9,-3.7c.5,1.3,1.6,1.9,2.4,2.9c-.2,.6,-.3,1.2,-.4,1.8c.6,.7,1.3,1.2,2.4,1.4c.4,-.4,.5,-1.3,1.1,-1.5c.9,.3,1.8,.7,3.1,.7c.2,.1,.5,.2,.9,.2c.3,0,.7,-.1,.8,-.2c.1,.1,.2,.1,.3,.1c.2,0,.4,-.1,.6,-.2c.2,0,.4,-.1,.5,-.1c.1,0,.2,0,.3,.1c-1.3,.7,-2.2,1.8,-4.1,1.8c-.1,0,-.3,0,-.4,0c-.8,3.7,-1.8,7.3,-2.6,11.1c.5,1.1,1.5,1.7,1.2,3.2c-.4,2.7,-3.8,4.4,-7.2,4.4c-1.2,0,-2.5,-.3,-3.6,-.8c-1,2.1,-2,4.2,-3.2,6.1c-.1,-.4,.2,-.4,.2,-.8c1,-1.8,2,-3.6,2.7,-5.6c-1.1,1.7,-1.9,3.7,-2.8,5.5c-.2,.4,-.4,.8,-.6,1.2c-.3,.4,-.3,1.2,-.8,1.4Z"/></clipPath>
<clipPath id="cc_217"><path d="M200.2,315.4c-4.8,0,-13.1,-7.3,-5.5,-8.7h1.2c.2,0,.4,0,.6,0c0,0,.1,0,.1,0c.4,0,.7,0,1.1,.1c3.1,.6,8.2,3.8,7.6,7c-.3,1.2,-1.6,1.6,-3.2,1.6h-1.9Z"/></clipPath>
<clipPath id="cd_217"><path d="M832.2,547.1c-.3,-.1,3.5,-8.2,3.5,-8.2l.8,.5c0,0,-4,7.7,-4.3,7.7Z"/></clipPath>
<clipPath id="ce_217"><path d="M839.7,539.4c0,0,-6.9,-1.1,-7.6,-5.2c-.7,-3.7,1.5,-3.9,2.1,-3.9q.1,0,.1,0l8.3,-12.7l-1.5,-3.1c0,0,-.5,-1.1,.2,-2.1c0,0,.2,-.1,.3,-.1c2.1,0,12.9,5.6,12.9,5.6l.1,.1c-.4,.5,-.7,1.2,-1.4,1.7c-.6,.5,-5.1,1.1,-5.1,1.1l-8.4,18.6Z"/></clipPath>
<clipPath id="cf_217"><path d="M839.3,539c.2,-.4,.2,-1.8,0,-2.2v-1.4c-1.6,-.5,-2.9,-1.2,-3.7,-2.5c-1.1,.6,-2.1,1.2,-3.1,1.9c1.5,2.1,3.8,3.5,6.8,4.2Zm0,-3.9c2.2,-4.5,3.9,-9.5,6.1,-14c-.9,-.4,-1.8,-1.4,-2.6,-1.4c-2.3,4.3,-4.6,8.6,-7.1,12.8c.8,1.3,2.1,2,3.6,2.6ZM832,547.2c1,-2.9,2.4,-5.5,3.5,-8.3c-2,-1.5,-3.9,-3.1,-4.4,-6.2v-1.5c0,-2.7,1.9,-3.4,4.6,-3.4q.1,0,.2,0c1.9,-3.3,4.2,-6.3,6.1,-9.6c-.5,-.9,-1.1,-2.4,-.9,-3.7c.6,1.3,1.7,1.9,2.4,2.9c-.1,.6,-.2,1.2,-.3,1.8c.6,.6,1.3,1.2,2.3,1.4c.5,-.5,.6,-1.3,1.2,-1.6c.9,.4,1.8,.8,3.1,.8c.2,.1,.5,.2,.8,.2c.4,0,.7,-.1,.9,-.2c.1,0,.2,0,.3,0c.2,0,.4,0,.6,-.1c.2,-.1,.3,-.1,.5,-.1c.1,0,.2,0,.3,.1c-1.3,.6,-2.2,1.7,-4.2,1.7c-.1,0,-.2,0,-.3,0c-.9,3.8,-1.9,7.4,-2.6,11.2c.5,1.1,1.5,1.7,1.2,3.2c-.4,2.7,-3.8,4.3,-7.2,4.3c-1.3,0,-2.5,-.2,-3.6,-.7c-1,2.1,-2.1,4.1,-3.3,6c0,-.3,.3,-.4,.3,-.7c.9,-1.8,1.9,-3.6,2.6,-5.7c-1,1.7,-1.8,3.7,-2.7,5.6c-.2,.4,-.5,.8,-.7,1.2c-.3,.4,-.3,1.1,-.7,1.4Z"/></clipPath>
<clipPath id="cg_217"><path d="M849.7,519.4c-4.8,0,-13.1,-7.3,-5.5,-8.8h1.2c.2,.1,.3,.1,.5,.1q.1,0,.2,0c.3,0,.7,0,1.1,0c3.1,.7,8.2,3.9,7.5,7.1c-.2,1.1,-1.5,1.6,-3.1,1.6h-1.9Z"/></clipPath>
<style type="text/css"><![CDATA[
.g0_217{
fill: #FEFCF4;
}
.g1_217{
fill: #FFF;
}
.g2_217{
fill: none;
stroke: #6381B7;
stroke-width: 0.763;
}
.g3_217{
fill: #F7C2D9;
}
.g4_217{
fill: #FDF4F3;
}
.g5_217{
fill: #EC008C;
}
.g6_217{
fill: none;
stroke: #949698;
stroke-width: 0.305;
stroke-dasharray: 4,4;
}
.g7_217{
fill: none;
stroke: #949698;
stroke-width: 0.305;
stroke-dasharray: 3,3;
}
.g8_217{
fill: none;
stroke: #949698;
stroke-width: 0.305;
}
.g9_217{
fill: #818385;
}
.ga_217{
fill: #6D6F71;
}
.gb_217{
fill: #6381B7;
}
.gc_217{
fill: none;
stroke: #6381B7;
stroke-width: 0.381;
stroke-dasharray: 2,1;
}
.gd_217{
fill: none;
stroke: #6381B7;
stroke-width: 0.381;
}
.ge_217{
fill: #FCE8B0;
}
.gf_217{
fill: #25408F;
}
.gg_217{
fill: #A8AAAD;
}
.gh_217{
fill: none;
stroke: #949698;
stroke-width: 0.549;
}
.gi_217{
fill: none;
stroke: #BCBEC0;
stroke-width: 2.566;
}
.gj_217{
fill: #231F20;
}
.gk_217{
fill: #363637;
}
.gl_217{
fill: #5CC4BE;
}
.gm_217{
fill: #F0D73F;
}
.gn_217{
fill: none;
stroke: #FFF;
stroke-width: 1.909;
stroke-miterlimit: 10;
}
.go_217{
fill: none;
stroke: #000;
stroke-width: 0.381;
stroke-miterlimit: 10;
}
]]></style>
</defs>
<path d="M45.1,1344.3H967.5V32.1H45.1V1344.3Z" class="g0_217"/>
<path d="M166.7,135.3c0,0,-13,0,-13,12.9V866.1c0,0,0,13,13,13H854.5c0,0,13,0,13,-13V148.2c0,0,0,-12.9,-13,-12.9Z" class="g1_217"/>
<path d="M166.7,135.3c0,0,-13,0,-13,12.9V866.1c0,0,0,13,13,13H854.5c0,0,13,0,13,-13V148.2c0,0,0,-12.9,-13,-12.9H166.7Z" class="g2_217"/>
<image clip-path="url(#c0_217)" preserveAspectRatio="none" x="101" y="329" width="189" height="304" xlink:href="img/1.png"/>
<path d="M106.2,333.7l1.7,292.6l175.6,.2l-.7,-292.2Z" class="g3_217"/>
<image clip-path="url(#c1_217)" preserveAspectRatio="none" x="95" y="328" width="200" height="307" xlink:href="img/2.png"/>
<image clip-path="url(#c2_217)" preserveAspectRatio="none" x="94" y="327" width="201" height="308" xlink:href="img/3.png"/>
<path d="M99.3,338.5l14.3,289l143.4,-6l32.2,-25.9L275.8,331.4Z" class="g4_217"/>
<path d="M257.3,621.9l32,-26.9L261,593.7Z" class="g5_217"/>
<path d="M360.2,384.2c-12,-17.6,-64.8,-89.9,-125.5,-83.8" class="g6_217"/>
<path d="M227.5,301.6c-6,1.9,-2.2,4.7,1.4,5.7" class="g7_217"/>
<path d="M234.7,304.3c.7,-3.2,-1.6,-7.8,-12.5,-8.9m-7.7,-.1c-19.1,1.6,-67.7,14.8,-89.2,47.1" class="g6_217"/>
<path d="M362.7,388.1c0,0,-.3,-.5,-.8,-1.3M233.2,300.6c-.5,0,-1,.1,-1.5,.2c-.5,0,-1,.1,-1.4,.2m0,6.5c.5,.1,1,.1,1.4,.1c.5,-.1,1,-.3,1.4,-.7M220.7,295.2c-.5,0,-1,0,-1.6,-.1c-.4,0,-1,0,-1.5,0m-93.1,48.6c-.3,.4,-.6,.8,-.9,1.3" class="g8_217"/>
<path d="M133.2,338.7l-7.2,-5l-2.8,11.8Z" class="g9_217"/>
<path d="M367,417c8.1,-1.3,14.5,-6.2,16,-12.5m-.3,-6.5c-.4,-1.2,-.9,-2.4,-1.7,-3.5" class="g7_217"/>
<path d="M375.9,389.7c-2.9,-1.8,-6.3,-3,-10.1,-3.5" class="g6_217"/>
<path d="M358.4,386.4c-8.1,1.3,-14.5,6.2,-16,12.5m.4,7c2.2,5.9,8.8,10.5,17,11.3" class="g7_217"/>
<path d="M383.2,403.1c.1,-.4,.1,-.9,.1,-1.4c0,-.4,0,-.8,0,-1.3m-3,-6.9c-.3,-.3,-.6,-.6,-.9,-.9c-.3,-.4,-.7,-.8,-1.1,-1.1m-14.1,-5.4c-.5,0,-1,0,-1.5,0c-.5,0,-1,0,-1.4,0m-19.2,14.2c0,.4,0,.9,0,1.4c0,.5,0,1,0,1.4m19.2,14.2c.4,0,.9,.1,1.4,.1c.5,0,1,-.1,1.4,-.1" class="g8_217"/>
<image clip-path="url(#c3_217)" preserveAspectRatio="none" x="724" y="528" width="205" height="272" xlink:href="img/4.png"/>
<path d="M731.8,533.3l-2.3,259.3l190.8,.9L923,536.3Z" class="g3_217"/>
<image clip-path="url(#c4_217)" preserveAspectRatio="none" x="717" y="527" width="216" height="276" xlink:href="img/5.png"/>
<image clip-path="url(#c5_217)" preserveAspectRatio="none" x="717" y="527" width="216" height="276" xlink:href="img/6.png"/>
<path d="M735,531L722.4,788.4L880.8,796l34.3,-19.6L926.7,541.6Z" class="g4_217"/>
<path d="M881,796.9l34.4,-20.7l-14.6,-9Z" class="g5_217"/>
<path d="M649.4,645.5c0,0,28.1,-61.8,84,-64.2M674.8,682.6c20.7,-.9,37.3,-7.5,40.4,-15.9" class="g7_217"/>
<path d="M714,658.7c-.9,-1.4,-2.2,-2.7,-3.8,-3.9M703,650.7c-7.6,-3.3,-17.9,-5.4,-29.4,-5.7" class="g6_217"/>
<path d="M666,645c-20.7,.8,-37.3,7.5,-40.4,15.9m.6,7.1c4.4,8,21,14.1,41.3,14.6" class="g7_217"/>
<path d="M715.6,665.2c.1,-.4,.1,-.9,.1,-1.4c0,-.6,0,-1.2,-.2,-1.8m-6.7,-8.3c-.5,-.3,-1.1,-.6,-1.6,-.9c-.4,-.3,-.9,-.5,-1.4,-.8M672,644.9c-.5,0,-1.1,0,-1.6,0c-.5,0,-1,0,-1.4,0m-43.8,17.4c-.1,.5,-.1,1,-.1,1.5c0,.5,0,1,.1,1.4M669,682.6c.4,.1,.9,.1,1.4,.1c.5,0,1,0,1.5,-.1" class="g8_217"/>
<path d="M727.6,576.8l.8,8.8l10.8,-5.5Z" class="ga_217"/>
<path d="M564.1,1129.9c0,0,-4.3,0,-4.3,4.3V1145c0,0,0,4.4,4.3,4.4h30.4c0,0,4.3,0,4.3,-4.4v-10.8c0,0,0,-4.3,-4.3,-4.3Z" class="gb_217"/>
<path d="M551,1122.4v34.8m1.3,1H866.8m.9,-1.4V1122m-1.3,-1H551.9" class="gc_217"/>
<path d="M551,1157.6v.6h.5m315.7,0h.5v-.6m0,-36v-.6h-.5m-315.7,0H551v.6" class="gd_217"/>
<path d="M166.4,943.6c0,0,-13,0,-13,13v146.5c0,0,0,13,13,13H854.2c0,0,13,0,13,-13V956.6c0,0,0,-13,-13,-13Z" class="g1_217"/>
<path d="M166.4,943.6c0,0,-13,0,-13,13v146.5c0,0,0,13,13,13H854.2c0,0,13,0,13,-13V956.6c0,0,0,-13,-13,-13H166.4Z" class="g2_217"/>
<path d="M231.3,168.5c0,0,-13,0,-13,13v47.6c0,0,0,13,13,13h602c0,0,13,0,13,-13V181.5c0,0,0,-13,-13,-13Z" class="ge_217"/>
<image clip-path="url(#c6_217)" preserveAspectRatio="none" x="174" y="165" width="75" height="76" xlink:href="img/7.png"/>
<path d="M226.1,234.8c0,0,-26.9,11.3,-51.1,-12.8c0,0,15.2,25.3,49.3,24c0,0,24.7,.3,20.2,-10.2c0,0,1.3,-4.4,-18.4,-1Z" class="ge_217"/>
<path d="M231.3,955.2c0,0,-13,0,-13,13v47.6c0,0,0,13,13,13h602c0,0,13,0,13,-13V968.2c0,0,0,-13,-13,-13Z" class="ge_217"/>
<image clip-path="url(#c7_217)" preserveAspectRatio="none" x="174" y="951" width="75" height="77" xlink:href="img/8.png"/>
<path d="M226.1,1021.4c0,0,-26.9,11.3,-51.1,-12.7c0,0,15.2,25.3,49.3,23.9c0,0,24.7,.4,20.2,-10.1c0,0,1.3,-4.4,-18.4,-1.1Z" class="ge_217"/>
<path d="M153.3,111.9v39L165,161.2V117Z" class="gf_217"/>
<path d="M153.3,111.9v39H851.1c0,0,16.8,0,16.8,-16.8v-5.3c0,0,0,-16.9,-16.8,-16.9Z" class="gb_217"/>
<path d="M802.6,145.6c8.2,0,14.9,-6.5,14.9,-14.5c0,-8.1,-6.7,-14.5,-14.9,-14.5c-8.2,0,-14.9,6.4,-14.9,14.5c0,8,6.7,14.5,14.9,14.5Z" class="gg_217"/>
<path d="M802.6,145.6c8.2,0,14.9,-6.5,14.9,-14.5c0,-8.1,-6.7,-14.5,-14.9,-14.5c-8.2,0,-14.9,6.4,-14.9,14.5c0,8,6.7,14.5,14.9,14.5Z" class="gh_217"/>
<path d="M802.6,136.4c3,0,5.5,-2.4,5.5,-5.3c0,-3,-2.5,-5.4,-5.5,-5.4c-3,0,-5.5,2.4,-5.5,5.4c0,2.9,2.5,5.3,5.5,5.3Z" class="g1_217"/>
<path d="M802.6,136.4c3,0,5.5,-2.4,5.5,-5.3c0,-3,-2.5,-5.4,-5.5,-5.4c-3,0,-5.5,2.4,-5.5,5.4c0,2.9,2.5,5.3,5.5,5.3Z" class="gi_217"/>
<g clip-path="url(#c8_217)" opacity="0.3">
<path d="M788,130.3c0,0,0,-4.8,3.7,-8.7l7.7,6.8c0,0,-1,.9,-1,2.6Z" class="g1_217"/>
</g>
<path d="M807.2,131c0,0,-3.5,0,-3.5,3.4v8.7c0,0,0,3.5,3.5,3.5h43.5c0,0,3.5,0,3.5,-3.5v-8.7c0,0,0,-3.4,-3.5,-3.4Z" class="gj_217"/>
<path d="M191.2,122c0,-8.3,-6.8,-15,-15.1,-15c-8.3,0,-15,6.7,-15,15c0,8.3,6.7,15.1,15,15.1c.8,0,1.7,-.1,2.4,-.2l4.5,5.2v-6.7c4.9,-2.5,8.2,-7.6,8.2,-13.4Z" class="g1_217"/>
<path d="M183.5,143.3l-5.1,-5.9c-.8,.1,-1.5,.1,-2.3,.1c-8.5,0,-15.5,-6.9,-15.5,-15.5c0,-8.5,7,-15.5,15.5,-15.5c8.6,0,15.5,7,15.5,15.5c0,5.7,-3.1,11,-8.1,13.7Zm-4.8,-6.9l3.9,4.5v-5.8l.2,-.1c4.9,-2.5,7.9,-7.5,7.9,-13c0,-8,-6.5,-14.6,-14.6,-14.6c-8,0,-14.6,6.6,-14.6,14.6c0,8.1,6.6,14.6,14.6,14.6c.8,0,1.6,-.1,2.4,-.2Z" class="gk_217"/>
<path d="M169.1,121.6c.8,0,1.4,.6,1.4,1.4c0,.8,-.6,1.5,-1.4,1.5c-.8,0,-1.4,-.7,-1.4,-1.5c0,-.8,.6,-1.4,1.4,-1.4Z" class="gl_217"/>
<path d="M169.1,124.9c-1,0,-1.9,-.8,-1.9,-1.9c0,-1,.9,-1.9,1.9,-1.9c1,0,1.9,.9,1.9,1.9c0,1.1,-.9,1.9,-1.9,1.9m0,-2.9c-.5,0,-1,.5,-1,1c0,.6,.5,1,1,1c.5,0,1,-.4,1,-1c0,-.5,-.5,-1,-1,-1Z" class="gk_217"/>
<path d="M176.1,121.6c.8,0,1.5,.6,1.5,1.4c0,.8,-.7,1.5,-1.5,1.5c-.8,0,-1.4,-.7,-1.4,-1.5c0,-.8,.6,-1.4,1.4,-1.4Z" class="gl_217"/>
<path d="M176.1,124.9c-1,0,-1.9,-.8,-1.9,-1.9c0,-1,.9,-1.9,1.9,-1.9c1.1,0,1.9,.9,1.9,1.9c0,1.1,-.8,1.9,-1.9,1.9m0,-2.9c-.5,0,-1,.5,-1,1c0,.6,.5,1,1,1c.6,0,1,-.4,1,-1c0,-.5,-.4,-1,-1,-1Z" class="gk_217"/>
<path d="M183.1,121.6c.8,0,1.5,.6,1.5,1.4c0,.8,-.7,1.5,-1.5,1.5c-.8,0,-1.4,-.7,-1.4,-1.5c0,-.8,.6,-1.4,1.4,-1.4Z" class="gl_217"/>
<path d="M183.1,124.9c-1,0,-1.9,-.8,-1.9,-1.9c0,-1,.9,-1.9,1.9,-1.9c1.1,0,1.9,.9,1.9,1.9c0,1.1,-.8,1.9,-1.9,1.9m0,-2.9c-.5,0,-1,.5,-1,1c0,.6,.5,1,1,1c.6,0,1,-.4,1,-1c0,-.5,-.4,-1,-1,-1Z" class="gk_217"/>
<path d="M185.1,136.3c0,-9.8,7.8,-17.7,17.6,-17.7c9.7,0,17.6,7.9,17.6,17.7c0,9.7,-7.9,17.6,-17.6,17.6c-1,0,-1.9,-.1,-2.9,-.3l-5.2,6.1v-7.8c-5.7,-2.9,-9.5,-8.8,-9.5,-15.6Z" class="gm_217"/>
<path d="M194.6,160.2q-.1,0,-.2,0c-.2,-.1,-.3,-.3,-.3,-.5v-7.5c-5.9,-3.2,-9.5,-9.2,-9.5,-15.9c0,-10,8.1,-18.1,18.1,-18.1c9.9,0,18,8.1,18,18.1c0,9.9,-8.1,18,-18,18c-.9,0,-1.8,0,-2.7,-.2l-5.1,5.9c-.1,.1,-.2,.2,-.3,.2m8.1,-41.1c-9.5,0,-17.2,7.7,-17.2,17.2c0,6.4,3.6,12.2,9.3,15.2c.1,.1,.2,.2,.2,.4v6.6l4.5,-5.2c.1,-.1,.3,-.1,.4,-.1c1,.1,1.9,.2,2.8,.2c9.4,0,17.1,-7.7,17.1,-17.1c0,-9.5,-7.7,-17.2,-17.1,-17.2Z" class="gk_217"/>
<path d="M210.9,135.8c.9,0,1.6,.7,1.6,1.6c0,1,-.7,1.7,-1.6,1.7c-1,0,-1.7,-.7,-1.7,-1.7c0,-.9,.7,-1.6,1.7,-1.6Z" class="g1_217"/>
<path d="M210.9,139.6c-1.2,0,-2.2,-1,-2.2,-2.2c0,-1.1,1,-2.1,2.2,-2.1c1.1,0,2.1,1,2.1,2.1c0,1.2,-1,2.2,-2.1,2.2m0,-3.4c-.7,0,-1.3,.6,-1.3,1.2c0,.7,.6,1.3,1.3,1.3c.6,0,1.2,-.6,1.2,-1.3c0,-.6,-.6,-1.2,-1.2,-1.2Z" class="gk_217"/>
<path d="M202.7,135.8c.9,0,1.6,.7,1.6,1.6c0,1,-.7,1.7,-1.6,1.7c-1,0,-1.7,-.7,-1.7,-1.7c0,-.9,.7,-1.6,1.7,-1.6Z" class="g1_217"/>
<path d="M202.7,139.6c-1.2,0,-2.2,-1,-2.2,-2.2c0,-1.1,1,-2.1,2.2,-2.1c1.1,0,2.1,1,2.1,2.1c0,1.2,-1,2.2,-2.1,2.2m0,-3.4c-.7,0,-1.3,.6,-1.3,1.2c0,.7,.6,1.3,1.3,1.3c.6,0,1.2,-.6,1.2,-1.3c0,-.6,-.6,-1.2,-1.2,-1.2Z" class="gk_217"/>
<path d="M194.5,135.8c.9,0,1.6,.7,1.6,1.6c0,1,-.7,1.7,-1.6,1.7c-1,0,-1.7,-.7,-1.7,-1.7c0,-.9,.7,-1.6,1.7,-1.6Z" class="g1_217"/>
<path d="M194.5,139.6c-1.2,0,-2.2,-1,-2.2,-2.2c0,-1.1,1,-2.1,2.2,-2.1c1.1,0,2.1,1,2.1,2.1c0,1.2,-1,2.2,-2.1,2.2m0,-3.4c-.7,0,-1.2,.6,-1.2,1.2c0,.7,.5,1.3,1.2,1.3c.6,0,1.2,-.6,1.2,-1.3c0,-.6,-.6,-1.2,-1.2,-1.2Z" class="gk_217"/>
<image clip-path="url(#c9_217)" x="182" y="334" width="6" height="10" xlink:href="shade/1.png"/>
<image clip-path="url(#ca_217)" x="181" y="308" width="25" height="28" xlink:href="shade/2.png"/>
<image clip-path="url(#cb_217)" x="181" y="310" width="23" height="34" xlink:href="shade/3.png"/>
<image clip-path="url(#cc_217)" x="187" y="306" width="19" height="10" xlink:href="shade/4.png"/>
<image clip-path="url(#cd_217)" x="831" y="538" width="6" height="10" xlink:href="shade/5.png"/>
<image clip-path="url(#ce_217)" x="831" y="512" width="24" height="28" xlink:href="shade/6.png"/>
<image clip-path="url(#cf_217)" x="831" y="514" width="23" height="34" xlink:href="shade/7.png"/>
<image clip-path="url(#cg_217)" x="836" y="510" width="20" height="10" xlink:href="shade/8.png"/>
<path d="M32.1,45.1H9.2m958.3,0h22.9M32.1,1331.3H9.2m958.3,0h22.9M45.1,32.1V9.2m0,1335.1v22.9M954.5,32.1V9.2m0,1335.1v22.9" class="gn_217"/>
<path d="M32.1,45.1H9.2m958.3,0h22.9M32.1,1331.3H9.2m958.3,0h22.9M45.1,32.1V9.2m0,1335.1v22.9M954.5,32.1V9.2m0,1335.1v22.9" class="go_217"/>
<path d="M27.5,32.1H0m972.1,0h27.5M27.5,1344.3H0m972.1,0h27.5M32.1,27.5V0m0,1348.9v27.5M967.5,27.5V0m0,1348.9v27.5" class="gn_217"/>
<path d="M27.5,32.1H0m972.1,0h27.5M27.5,1344.3H0m972.1,0h27.5M32.1,27.5V0m0,1348.9v27.5M967.5,27.5V0m0,1348.9v27.5" class="go_217"/>
</svg>