<?xml version="1.0" encoding="UTF-8" standalone="no"?>
<!DOCTYPE svg PUBLIC "-//W3C//DTD SVG 1.1//EN"
"http://www.w3.org/Graphics/SVG/1.1/DTD/svg11.dtd">
<svg viewBox="0 0 999 1376" version="1.1" xmlns="http://www.w3.org/2000/svg" xmlns:xlink="http://www.w3.org/1999/xlink">
<defs>
<clipPath id="c0_184"><path d="M172.3,295.9V247H823.2v48.9H816V260.5c0,-.1,-.1,-11.9,-11.9,-11.9H185.7c0,0,-11.9,0,-11.9,11.9v35.4Z"/></clipPath>
<clipPath id="c1_184"><path d="M172.3,784.8V295.4h1.5V765.5c0,.1,.1,11.9,11.9,11.9h36.7v7.4Z"/></clipPath>
<clipPath id="c2_184"><path d="M773.1,784.8v-7.4h31c0,0,11.9,0,11.9,-11.9V295.4h7.2V784.8Z"/></clipPath>
<clipPath id="c3_184"><path d="M221.9,784.8v-7.4H773.6v7.4Z"/></clipPath>
<clipPath id="c4_184"><path d="M793.2,756.5V276.3H203.6V756.5ZM185.5,777.4c0,0,-.1,0,-.1,0h-.2c0,0,-.1,0,-.1,0h-.3c0,0,-.1,0,-.1,0q-.1,0,-.1,0h-.2l-.1,-.1c0,0,-.1,0,-.1,0q-.1,0,-.1,0q-.1,0,-.2,0h-.1c0,0,-.1,0,-.1,0q-.1,0,-.1,0c-9.8,-1.3,-9.8,-11.8,-9.8,-11.8v-505c0,-11.9,11.9,-11.9,11.9,-11.9H804.8c0,0,.1,0,.1,0h.1c0,0,.1,0,.1,.1q.1,0,.1,0h.3c0,0,.1,0,.1,0h.1c0,0,.1,0,.1,0q.1,0,.1,0h.3v.1c0,0,.1,0,.1,0q.1,0,.1,0q.1,0,.2,0h.1c0,0,.1,0,.1,0c0,0,.1,.1,.1,.1c0,0,.1,0,.1,0q.1,0,.1,0q.1,0,.1,0c0,0,.1,0,.1,0c0,0,0,.1,.1,.1h.1c0,0,.1,0,.1,0c0,0,.1,0,.1,0c0,0,.1,.1,.1,.1c0,0,.1,0,.1,0q.1,0,.1,0q.1,0,.1,.1q.1,0,.1,0c6.5,1.9,7.5,8.4,7.7,10.6q0,.1,0,.1q0,.1,0,.1q.1,0,.1,0q0,.1,0,.1c0,0,0,.1,0,.1q0,.1,0,.2V765.5c0,11.9,-11.9,11.9,-11.9,11.9Z"/></clipPath>
<clipPath id="c5_184"><path d="M203.6,468.6V276.3H360.9V468.6Z"/></clipPath>
<clipPath id="c6_184"><path d="M360.6,468.6V276.3H518.2V468.6Z"/></clipPath>
<clipPath id="c7_184"><path d="M517.9,468.6V276.3H675.5V468.6Z"/></clipPath>
<clipPath id="c8_184"><path d="M675.2,516.7V276.3h118V516.7Z"/></clipPath>
<clipPath id="c9_184"><path d="M203.6,660.7V468.2H360.9V660.7Z"/></clipPath>
<clipPath id="ca_184"><path d="M360.6,660.7V468.2H518.2V660.7Z"/></clipPath>
<clipPath id="cb_184"><path d="M517.9,660.7V468.2H675.5V660.7Z"/></clipPath>
<clipPath id="cc_184"><path d="M675.2,756.5V516.3h118V756.5Z"/></clipPath>
<clipPath id="cd_184"><path d="M203.6,756.5V660.3H518.2v96.2Z"/></clipPath>
<clipPath id="ce_184"><path d="M517.9,756.5V660.3H675.5v96.2Z"/></clipPath>
<clipPath id="cf_184"><path d="M239.8,503.7V360.2H393.2V503.7Z"/></clipPath>
<clipPath id="cg_184"><path d="M420.6,503.7V360.2H583.7V503.7Z"/></clipPath>
<clipPath id="ch_184"><path d="M602.9,503.7V360.2H766.5V503.7Z"/></clipPath>
<style type="text/css"><![CDATA[
.g0_184{
fill: none;
stroke: #6381B7;
stroke-width: 0.763;
}
.g1_184{
fill: #E7D6B2;
}
.g2_184{
fill: #FFF;
}
.g3_184{
fill: #6381B7;
}
.g4_184{
fill: none;
stroke: #6381B7;
stroke-width: 0.381;
stroke-dasharray: 2,1;
}
.g5_184{
fill: none;
stroke: #6381B7;
stroke-width: 0.381;
}
.g6_184{
fill: #25408F;
}
.g7_184{
fill: #F37553;
}
.g8_184{
fill: #363637;
}
.g9_184{
fill: #EAD646;
}
.ga_184{
fill: #506CB4;
}
.gb_184{
fill: #5CC4BE;
}
.gc_184{
fill: none;
stroke: #FFF;
stroke-width: 1.909;
stroke-miterlimit: 10;
}
.gd_184{
fill: none;
stroke: #000;
stroke-width: 0.381;
stroke-miterlimit: 10;
}
]]></style>
</defs>
<path d="M145.1,167c0,0,-13,0,-13,13v876.6c0,0,0,13,13,13H832.9c0,0,13,0,13,-13V180c0,0,0,-13,-13,-13H145.1Z" class="g0_184"/>
<image clip-path="url(#c0_184)" preserveAspectRatio="none" x="172" y="246" width="652" height="50" xlink:href="img/1.jpg"/>
<image clip-path="url(#c1_184)" preserveAspectRatio="none" x="172" y="295" width="51" height="490" xlink:href="img/2.jpg"/>
<image clip-path="url(#c2_184)" preserveAspectRatio="none" x="773" y="295" width="51" height="490" xlink:href="img/3.jpg"/>
<image clip-path="url(#c3_184)" preserveAspectRatio="none" x="222" y="777" width="552" height="8" xlink:href="img/4.jpg"/>
<path d="M185.7,248.6c0,0,-11.9,0,-11.9,11.9v505c0,0,0,11.9,11.9,11.9H804.1c0,0,11.9,0,11.9,-11.9v-505c0,0,0,-11.9,-11.9,-11.9H185.7Z" class="g1_184"/>
<image clip-path="url(#c4_184)" preserveAspectRatio="none" x="174" y="249" width="642" height="529" xlink:href="img/5.jpg"/>
<image clip-path="url(#c5_184)" preserveAspectRatio="none" x="203" y="276" width="158" height="193" xlink:href="img/6.jpg"/>
<image clip-path="url(#c6_184)" preserveAspectRatio="none" x="361" y="276" width="157" height="193" xlink:href="img/7.jpg"/>
<image clip-path="url(#c7_184)" preserveAspectRatio="none" x="518" y="276" width="158" height="193" xlink:href="img/8.jpg"/>
<image clip-path="url(#c8_184)" preserveAspectRatio="none" x="675" y="276" width="119" height="241" xlink:href="img/9.jpg"/>
<image clip-path="url(#c9_184)" preserveAspectRatio="none" x="203" y="468" width="158" height="193" xlink:href="img/10.jpg"/>
<image clip-path="url(#ca_184)" preserveAspectRatio="none" x="361" y="468" width="157" height="193" xlink:href="img/11.jpg"/>
<image clip-path="url(#cb_184)" preserveAspectRatio="none" x="518" y="468" width="158" height="193" xlink:href="img/12.jpg"/>
<image clip-path="url(#cc_184)" preserveAspectRatio="none" x="675" y="516" width="119" height="241" xlink:href="img/13.jpg"/>
<image clip-path="url(#cd_184)" preserveAspectRatio="none" x="203" y="660" width="316" height="97" xlink:href="img/14.jpg"/>
<image clip-path="url(#ce_184)" preserveAspectRatio="none" x="518" y="660" width="158" height="97" xlink:href="img/15.jpg"/>
<path d="M205.1,749.3H785.9V277.9H205.1V749.3Z" class="g2_184"/>
<path d="M234.4,503.7H404.8V360.3H234.4V503.7Z" class="g2_184"/>
<image clip-path="url(#cf_184)" preserveAspectRatio="none" x="240" y="358" width="153" height="146" xlink:href="img/16.jpg"/>
<path d="M417.4,503.7H587.8V360.3H417.4V503.7Z" class="g2_184"/>
<image clip-path="url(#cg_184)" preserveAspectRatio="none" x="421" y="359" width="163" height="146" xlink:href="img/17.jpg"/>
<path d="M600.5,503.7H770.8V360.3H600.5V503.7Z" class="g2_184"/>
<image clip-path="url(#ch_184)" preserveAspectRatio="none" x="603" y="359" width="164" height="146" xlink:href="img/18.jpg"/>
<path d="M231.3,741.9H778.7V512.8H231.3V741.9Z" class="g2_184"/>
<path d="M331.6,335.7h330V301h-330v34.7Z" class="g2_184"/>
<path d="M673.4,1093.5c0,0,-4.3,0,-4.3,4.3v10.8c0,0,0,4.4,4.3,4.4h30.3c0,0,4.4,0,4.4,-4.4v-10.8c0,0,0,-4.3,-4.4,-4.3Z" class="g3_184"/>
<path d="M660.2,1086v34.9m1.4,.9H845.1m1,-1.3v-34.9m-1.4,-1H661.2" class="g4_184"/>
<path d="M660.2,1121.2v.6h.6m184.7,0h.6v-.6m0,-36v-.6h-.6m-184.7,0h-.6v.6" class="g5_184"/>
<path d="M132.2,126.3v22.2l11.7,10.2V136.5Z" class="g6_184"/>
<path d="M132.2,109.5v39H829.9c0,0,16.9,0,16.9,-16.8v-5.4c0,0,0,-16.8,-16.9,-16.8Z" class="g3_184"/>
<path d="M166,111.6c.7,-.6,1.7,-.8,2.5,-.6l1.3,-1.3l-6.2,-6.1l-6.1,6.1l-1.3,-1.3c.2,-.8,0,-1.8,-.6,-2.4c-1,-1,-2.6,-1,-3.6,0c-1,1,-1,2.6,0,3.6c.6,.6,1.6,.9,2.4,.6l1.3,1.3l-6.1,6.1l6.1,6.2l-1.3,1.3c-.8,-.3,-1.8,-.1,-2.4,.6c-1,1,-1,2.6,0,3.6c1,1,2.6,1,3.6,0c.6,-.7,.9,-1.6,.6,-2.4l1.3,-1.3l6.1,6.1l6.2,-6.1l-1.3,-1.3c-.9,.2,-1.8,0,-2.5,-.7c-1,-1,-1,-2.6,0,-3.6c1,-1,2.6,-1,3.6,0c.7,.7,.9,1.6,.7,2.5l1.3,1.3l6.1,-6.2l-6.1,-6.1l-1.3,1.3c.2,.8,0,1.8,-.7,2.4c-1,1,-2.6,1,-3.6,0c-1,-.9,-1,-2.6,0,-3.6Z" class="g7_184"/>
<path d="M163.6,132.3l-6.1,-6.2l-.8,.9c.1,.9,-.2,1.9,-.8,2.6c-1.2,1.1,-3.1,1.1,-4.2,0c-1.2,-1.2,-1.2,-3,0,-4.2c.7,-.7,1.6,-1,2.6,-.8l.8,-.8L149,117.6l6.1,-6.1l-.8,-.8c-1,.1,-1.9,-.2,-2.6,-.8c-.6,-.6,-.9,-1.3,-.9,-2.1c0,-.8,.3,-1.5,.9,-2.1c1.1,-1.1,3,-1.1,4.1,0c.7,.7,1,1.7,.9,2.6l.8,.8l6.1,-6.1l6.7,6.7l-1.7,1.7h-.2c-.7,-.2,-1.5,0,-2.1,.5c-.8,.9,-.8,2.2,0,3.1c.9,.8,2.2,.8,3.1,0c.5,-.6,.7,-1.4,.5,-2.1v-.2l1.7,-1.7l6.7,6.6l-6.7,6.7l-1.8,-1.7l.1,-.2c.2,-.8,0,-1.5,-.6,-2.1c-.4,-.4,-.9,-.6,-1.5,-.6c-.5,0,-1.1,.2,-1.5,.6c-.8,.8,-.8,2.2,0,3c.5,.6,1.3,.8,2.1,.6l.2,-.1l1.7,1.8ZM157.5,125l6.1,6.1l5.6,-5.5l-.8,-.9c-1,.2,-2,-.1,-2.7,-.8c-.5,-.5,-.8,-1.3,-.8,-2.1c0,-.7,.3,-1.5,.8,-2c.6,-.6,1.3,-.9,2.1,-.9c.8,0,1.6,.3,2.1,.9c.7,.6,1,1.6,.8,2.6l.9,.8l5.5,-5.6l-5.5,-5.5l-.9,.8c.2,1,-.1,1.9,-.8,2.6c-1.1,1.2,-3,1.2,-4.1,0c-1.2,-1.1,-1.2,-3,0,-4.1c.6,-.7,1.6,-1,2.6,-.8l.8,-.9l-5.6,-5.6l-6.1,6.2l-1.7,-1.7v-.3c.2,-.7,0,-1.5,-.5,-2c-.9,-.9,-2.2,-.9,-3.1,0c-.4,.4,-.6,.9,-.6,1.5c0,.6,.2,1.1,.6,1.5c.6,.5,1.4,.8,2.1,.6l.2,-.1l1.8,1.7l-6.2,6.1l6.2,6.2l-1.8,1.7l-.2,-.1c-.7,-.2,-1.5,.1,-2,.6c-.9,.8,-.9,2.2,0,3c.8,.9,2.2,.9,3,0c.5,-.5,.7,-1.3,.5,-2v-.3Z" class="g8_184"/>
<path d="M196.6,122.1c.9,0,1.8,.5,2.2,1.3h1.8v-8.7h-8.7v-1.8c.8,-.4,1.3,-1.2,1.3,-2.2c0,-1.4,-1.1,-2.5,-2.5,-2.5c-1.5,0,-2.6,1.1,-2.6,2.5c0,1,.5,1.8,1.3,2.2v1.8h-8.7v8.7h-1.8c-.4,-.8,-1.2,-1.3,-2.2,-1.3c-1.4,0,-2.5,1.2,-2.5,2.6c0,1.4,1.1,2.5,2.5,2.5c1,0,1.8,-.5,2.2,-1.2h1.8v8.6h8.7v-1.8c-.8,-.4,-1.3,-1.2,-1.3,-2.2c0,-1.4,1.2,-2.5,2.6,-2.5c1.4,0,2.5,1.1,2.5,2.5c0,1,-.5,1.8,-1.3,2.2v1.8h8.7V126h-1.8c-.4,.7,-1.2,1.2,-2.2,1.2c-1.4,0,-2.5,-1.1,-2.5,-2.5c0,-1.4,1.1,-2.6,2.5,-2.6Z" class="g9_184"/>
<path d="M201,135h-9.5v-2.4l.2,-.1c.7,-.4,1.1,-1.1,1.1,-1.9c0,-1.2,-1,-2.1,-2.1,-2.1c-1.2,0,-2.2,.9,-2.2,2.1c0,.8,.4,1.5,1.1,1.9l.2,.1V135h-9.5v-8.6h-1.2c-.5,.7,-1.4,1.2,-2.4,1.2c-1.6,0,-2.9,-1.3,-2.9,-2.9c0,-1.6,1.3,-3,2.9,-3c1,0,1.9,.5,2.4,1.3h1.2v-8.7H189v-1.1c-.8,-.6,-1.3,-1.5,-1.3,-2.5c0,-1.6,1.3,-2.9,3,-2.9c1.6,0,2.9,1.3,2.9,2.9c0,1,-.5,1.9,-1.3,2.5v1.1H201v9.5h-2.4l-.1,-.2c-.4,-.6,-1.1,-1.1,-1.9,-1.1c-.6,0,-1.1,.3,-1.5,.7c-.4,.4,-.6,.9,-.6,1.5c0,1.2,.9,2.1,2.1,2.1c.8,0,1.5,-.4,1.9,-1l.1,-.2H201Zm-8.7,-.8h7.9v-7.8H199c-.5,.7,-1.4,1.2,-2.4,1.2c-1.6,0,-2.9,-1.3,-2.9,-2.9c0,-.8,.3,-1.5,.8,-2.1c.6,-.5,1.3,-.9,2.1,-.9c1,0,1.9,.5,2.4,1.3h1.2v-7.9h-8.7v-2.4l.2,-.1c.7,-.4,1.1,-1.1,1.1,-1.9c0,-1.2,-1,-2.1,-2.1,-2.1c-1.2,0,-2.2,.9,-2.2,2.1c0,.8,.4,1.5,1.1,1.9l.2,.1v2.4h-8.7v8.7h-2.4l-.1,-.2c-.4,-.6,-1.1,-1.1,-1.9,-1.1c-1.2,0,-2.1,1,-2.1,2.2c0,1.2,.9,2.1,2.1,2.1c.8,0,1.5,-.4,1.9,-1l.1,-.2h2.4v8.6H189V133c-.8,-.5,-1.3,-1.4,-1.3,-2.4c0,-1.6,1.3,-2.9,3,-2.9c1.6,0,2.9,1.3,2.9,2.9c0,1,-.5,1.9,-1.3,2.4Z" class="g8_184"/>
<path d="M176.7,142c1,0,1.8,.5,2.2,1.3h1.8v-8.7H172v-1.8c.8,-.4,1.3,-1.2,1.3,-2.2c0,-1.4,-1.1,-2.5,-2.5,-2.5c-1.4,0,-2.6,1.1,-2.6,2.5c0,1,.5,1.8,1.3,2.2v1.8h-8.7v8.7H159c-.4,-.8,-1.2,-1.3,-2.2,-1.3c-1.4,0,-2.5,1.2,-2.5,2.6c0,1.4,1.1,2.5,2.5,2.5c1,0,1.8,-.5,2.2,-1.2h1.8v8.6h8.7v-1.8c-.8,-.4,-1.3,-1.2,-1.3,-2.2c0,-1.4,1.2,-2.5,2.6,-2.5c1.4,0,2.5,1.1,2.5,2.5c0,1,-.5,1.8,-1.3,2.2v1.8h8.7v-8.7h-1.8c-.4,.8,-1.2,1.3,-2.2,1.3c-1.4,0,-2.5,-1.1,-2.5,-2.5c0,-1.4,1.1,-2.6,2.5,-2.6Z" class="ga_184"/>
<path d="M181.1,154.9h-9.5v-2.4l.2,-.1c.7,-.4,1.1,-1.1,1.1,-1.9c0,-1.2,-1,-2.1,-2.1,-2.1c-1.2,0,-2.2,.9,-2.2,2.1c0,.8,.4,1.5,1.1,1.9l.2,.1v2.4h-9.5v-8.6h-1.2c-.5,.7,-1.4,1.2,-2.4,1.2c-1.6,0,-2.9,-1.3,-2.9,-2.9c0,-1.6,1.3,-3,2.9,-3c1,0,1.9,.5,2.4,1.3h1.2v-8.7h8.7V133c-.8,-.5,-1.3,-1.4,-1.3,-2.4c0,-1.6,1.3,-2.9,3,-2.9c1.6,0,2.9,1.3,2.9,2.9c0,1,-.5,1.9,-1.3,2.4v1.2h8.7v9.5h-2.4l-.1,-.2c-.4,-.7,-1.1,-1.1,-1.9,-1.1c-1.2,0,-2.1,1,-2.1,2.2c0,1.1,.9,2.1,2.1,2.1c.8,0,1.5,-.4,1.9,-1.1l.1,-.2h2.4Zm-8.7,-.8h7.9v-7.9h-1.2c-.5,.8,-1.4,1.3,-2.4,1.3c-1.6,0,-2.9,-1.3,-2.9,-2.9c0,-1.6,1.3,-3,2.9,-3c1,0,1.9,.5,2.4,1.3h1.2V135h-8.7v-2.4l.2,-.1c.7,-.4,1.1,-1.1,1.1,-1.9c0,-1.2,-1,-2.1,-2.1,-2.1c-1.2,0,-2.2,.9,-2.2,2.1c0,.8,.4,1.5,1.1,1.9l.2,.1V135h-8.7v8.7h-2.4l-.1,-.2c-.4,-.7,-1.1,-1.1,-1.9,-1.1c-1.2,0,-2.1,1,-2.1,2.2c0,1.2,.9,2.1,2.1,2.1c.8,0,1.5,-.4,1.9,-1l.1,-.2h2.4v8.6h7.9v-1.2c-.8,-.5,-1.3,-1.4,-1.3,-2.4c0,-1.6,1.3,-2.9,3,-2.9c1.6,0,2.9,1.3,2.9,2.9c0,1,-.5,1.9,-1.3,2.4Z" class="g8_184"/>
<path d="M196.6,142c.9,0,1.8,.5,2.2,1.3h1.8v-8.7h-8.7v-1.8c.8,-.4,1.3,-1.2,1.3,-2.2c0,-1.4,-1.1,-2.5,-2.5,-2.5c-1.5,0,-2.6,1.1,-2.6,2.5c0,1,.5,1.8,1.3,2.2v1.8h-8.7v8.7h-1.8c-.4,-.8,-1.2,-1.3,-2.2,-1.3c-1.4,0,-2.5,1.2,-2.5,2.6c0,1.4,1.1,2.5,2.5,2.5c1,0,1.8,-.5,2.2,-1.2h1.8v8.6h8.7v-1.8c-.8,-.4,-1.3,-1.2,-1.3,-2.2c0,-1.4,1.2,-2.5,2.6,-2.5c1.4,0,2.5,1.1,2.5,2.5c0,1,-.5,1.8,-1.3,2.2v1.8h8.7v-8.7h-1.8c-.4,.8,-1.2,1.3,-2.2,1.3c-1.4,0,-2.5,-1.1,-2.5,-2.5c0,-1.4,1.1,-2.6,2.5,-2.6Z" class="gb_184"/>
<path d="M201,154.9h-9.5v-2.4l.2,-.1c.7,-.4,1.1,-1.1,1.1,-1.9c0,-1.2,-1,-2.1,-2.1,-2.1c-1.2,0,-2.2,.9,-2.2,2.1c0,.8,.4,1.5,1.1,1.9l.2,.1v2.4h-9.5v-8.6h-1.2c-.5,.7,-1.4,1.2,-2.4,1.2c-1.6,0,-2.9,-1.3,-2.9,-2.9c0,-1.6,1.3,-3,2.9,-3c1,0,1.9,.5,2.4,1.3h1.2v-8.7H189V133c-.8,-.5,-1.3,-1.4,-1.3,-2.4c0,-1.6,1.3,-2.9,3,-2.9c1.6,0,2.9,1.3,2.9,2.9c0,1,-.5,1.9,-1.3,2.4v1.2H201v9.5h-2.4l-.1,-.2c-.4,-.7,-1.1,-1.1,-1.9,-1.1c-.6,0,-1.1,.3,-1.5,.7c-.4,.4,-.6,.9,-.6,1.5c0,1.1,.9,2.1,2.1,2.1c.8,0,1.5,-.4,1.9,-1.1l.1,-.2H201Zm-8.7,-.8h7.9v-7.9H199c-.5,.8,-1.4,1.3,-2.4,1.3c-1.6,0,-2.9,-1.3,-2.9,-2.9c0,-.8,.3,-1.5,.8,-2.1c.6,-.6,1.3,-.9,2.1,-.9c1,0,1.9,.5,2.4,1.3h1.2V135h-8.7v-2.4l.2,-.1c.7,-.4,1.1,-1.1,1.1,-1.9c0,-1.2,-1,-2.1,-2.1,-2.1c-1.2,0,-2.2,.9,-2.2,2.1c0,.8,.4,1.5,1.1,1.9l.2,.1V135h-8.7v8.7h-2.4l-.1,-.2c-.4,-.7,-1.1,-1.1,-1.9,-1.1c-1.2,0,-2.1,1,-2.1,2.2c0,1.2,.9,2.1,2.1,2.1c.8,0,1.5,-.4,1.9,-1l.1,-.2h2.4v8.6H189v-1.2c-.8,-.5,-1.3,-1.4,-1.3,-2.4c0,-1.6,1.3,-2.9,3,-2.9c1.6,0,2.9,1.3,2.9,2.9c0,1,-.5,1.9,-1.3,2.4Z" class="g8_184"/>
<path d="M32.1,45.1H9.2m958.3,0h22.9M32.1,1331.3H9.2m958.3,0h22.9M45.1,32.1V9.2m0,1335.1v22.9M954.5,32.1V9.2m0,1335.1v22.9" class="gc_184"/>
<path d="M32.1,45.1H9.2m958.3,0h22.9M32.1,1331.3H9.2m958.3,0h22.9M45.1,32.1V9.2m0,1335.1v22.9M954.5,32.1V9.2m0,1335.1v22.9" class="gd_184"/>
<path d="M27.5,32.1H0m972.1,0h27.5M27.5,1344.3H0m972.1,0h27.5M32.1,27.5V0m0,1348.9v27.5M967.5,27.5V0m0,1348.9v27.5" class="gc_184"/>
<path d="M27.5,32.1H0m972.1,0h27.5M27.5,1344.3H0m972.1,0h27.5M32.1,27.5V0m0,1348.9v27.5M967.5,27.5V0m0,1348.9v27.5" class="gd_184"/>
</svg>