<?xml version="1.0" encoding="UTF-8" standalone="no"?>
<!DOCTYPE svg PUBLIC "-//W3C//DTD SVG 1.1//EN"
"http://www.w3.org/Graphics/SVG/1.1/DTD/svg11.dtd">
<svg viewBox="0 0 999 1376" version="1.1" xmlns="http://www.w3.org/2000/svg" xmlns:xlink="http://www.w3.org/1999/xlink">
<defs>
<clipPath id="c0_171"><path d="M32.1,1344.3V32.1H967.5V1344.3Z"/></clipPath>
<clipPath id="c1_171"><path d="M220.8,708V626.2h87.8V708Z"/></clipPath>
<clipPath id="c2_171"><path d="M222.9,827.3V740.8h86.4v86.5Z"/></clipPath>
<clipPath id="c3_171"><path d="M223.1,928V845.5H325.4V928Z"/></clipPath>
<clipPath id="c4_171"><path d="M199.4,530.3l-6.5,-2.1L176.6,514.3V457.2h71.9v73.1Z"/></clipPath>
<clipPath id="c5_171"><path d="M198.6,1098.9l-6.5,-2.2l-16.4,-13.9v-57.1h72v73.2Z"/></clipPath>
<clipPath id="c6_171"><path d="M200.1,137.2c.1,-1.3,.7,-2.5,1.6,-3.4c1,-1,2.3,-1.6,3.9,-1.6h19.2v5Z"/></clipPath>
<clipPath id="c7_171"><path d="M199.5,137.7v-6h25.8v6Z"/></clipPath>
<style type="text/css"><![CDATA[
.g0_171{
fill: #FEFCF4;
}
.g1_171{
fill: #DCE9F3;
}
.g2_171{
fill: #9BD1EA;
}
.g3_171{
fill: #FFF;
}
.g4_171{
fill: none;
stroke: #58595B;
stroke-width: 0.381;
stroke-miterlimit: 10;
}
.g5_171{
fill: none;
stroke: #6381B7;
stroke-width: 0.763;
}
.g6_171{
fill: none;
stroke: #231F20;
stroke-width: 0.305;
stroke-miterlimit: 10;
}
.g7_171{
fill: #6381B7;
}
.g8_171{
fill: none;
stroke: #6381B7;
stroke-width: 0.381;
stroke-dasharray: 2,1;
}
.g9_171{
fill: none;
stroke: #6381B7;
stroke-width: 0.381;
}
.ga_171{
fill: #FCE8B0;
}
.gb_171{
fill: none;
stroke: #231F20;
stroke-width: 0.381;
stroke-miterlimit: 10;
}
.gc_171{
fill: #25408F;
}
.gd_171{
fill: none;
stroke: #231F20;
stroke-width: 1.527;
}
.ge_171{
fill: #39B4D1;
stroke: #2D2A4A;
stroke-width: 1.038;
stroke-linecap: round;
stroke-linejoin: round;
}
.gf_171{
fill: #2D2A4A;
}
.gg_171{
fill: none;
stroke: #2D2A4A;
stroke-width: 1.038;
stroke-linecap: round;
stroke-linejoin: round;
}
.gh_171{
fill: #DEDAD3;
}
.gi_171{
fill: #29263F;
}
.gj_171{
fill: #E15F46;
stroke: #2D2A4A;
stroke-width: 1.038;
stroke-linecap: round;
stroke-linejoin: round;
}
.gk_171{
fill: none;
stroke: #FFF;
stroke-width: 1.909;
stroke-miterlimit: 10;
}
.gl_171{
fill: none;
stroke: #000;
stroke-width: 0.381;
stroke-miterlimit: 10;
}
]]></style>
</defs>
<path clip-path="url(#c0_171)" d="M-877.3,1344.3H45.1V32.1H-877.3V1344.3Z" class="g0_171"/>
<path d="M170.7,168.2c0,0,-17.4,0,-17.4,17.3V406c0,0,0,17.3,17.4,17.3H850.6c0,0,17.3,0,17.3,-17.3V185.5c0,0,0,-17.3,-17.3,-17.3Z" class="g1_171"/>
<path d="M179.3,243.4H330.9v24.9H179.3V243.4Zm151.6,0H504.1v24.9H330.9V243.4Zm188.2,0H843.9v24.9H519.1V243.4Z" class="g2_171"/>
<path d="M179.3,268.3H330.9v57.3H179.3V268.3Zm151.6,0H504.1v57.3H330.9V268.3Zm188.2,0H696.7V297H519.1V268.3Zm177.6,0H843.9V297H696.7V268.3ZM519.1,297H696.7v28.6H519.1V297Zm177.6,0H843.9v28.6H696.7V297Z" class="g3_171"/>
<path d="M179.3,243.4H330.9m0,0H504.1M330.9,268.1V243.6M179.3,268.3H330.9m0,0H504.1M330.9,297V268.5m0,56.9V297M179.3,325.6H330.9m0,0H504.1m15,-82.2H696.7m0,0H843.9M519.1,268.3H696.7m0,0H843.9M696.7,296.8V268.5M519.1,297H696.7m0,0H843.9M696.7,325.4V297.2M519.1,325.6H696.7m0,0H843.9" class="g4_171"/>
<path d="M171.8,547.9c0,0,-18.3,0,-18.3,18.4v361c0,0,0,18.3,18.3,18.3H849.2c0,0,18.3,0,18.3,-18.3v-361c0,0,0,-18.4,-18.3,-18.4Z" class="g3_171"/>
<path d="M171.8,547.9c0,0,-18.3,0,-18.3,18.4v361c0,0,0,18.3,18.3,18.3H849.2c0,0,18.3,0,18.3,-18.3v-361c0,0,0,-18.4,-18.3,-18.4H171.8Z" class="g5_171"/>
<image clip-path="url(#c1_171)" preserveAspectRatio="none" x="221" y="621" width="87" height="87" xlink:href="img/1.jpg"/>
<image clip-path="url(#c2_171)" preserveAspectRatio="none" x="223" y="741" width="86" height="86" xlink:href="img/2.jpg"/>
<image clip-path="url(#c3_171)" preserveAspectRatio="none" x="223" y="845" width="102" height="88" xlink:href="img/3.jpg"/>
<path d="M207.4,602.2H864.2V583.9H207.4v18.3Z" class="g3_171"/>
<path d="M468.8,655.4H602M486,767.5H602.1M460.2,882H602" class="g6_171"/>
<path d="M586.8,959.6c0,0,-4.3,0,-4.3,4.3v10.9c0,0,0,4.3,4.3,4.3h30.3c0,0,4.3,0,4.3,-4.3V963.9c0,0,0,-4.3,-4.3,-4.3Z" class="g7_171"/>
<path d="M573.6,952.1V987m1.3,.9H866.8m.9,-1.3V951.7m-1.3,-.9H574.6" class="g8_171"/>
<path d="M573.6,987.4v.5h.6m292.9,0h.6v-.5m0,-36.1v-.5h-.6m-292.9,0h-.6v.5" class="g9_171"/>
<path d="M232.1,459.4c0,0,-13,0,-13,13V520c0,0,0,13,13,13H855.4c0,0,13,0,13,-13V472.4c0,0,0,-13,-13,-13Z" class="ga_171"/>
<image clip-path="url(#c4_171)" preserveAspectRatio="none" x="175" y="456" width="75" height="76" xlink:href="img/4.png"/>
<path d="M226.9,525.6c0,0,-26.9,11.3,-51.1,-12.7c0,0,15.1,25.3,49.2,23.9c0,0,24.8,.4,20.3,-10.1c0,0,1.2,-4.4,-18.4,-1.1Z" class="ga_171"/>
<path d="M166.7,1002.5c0,0,-13,0,-13,13v173.4c0,0,0,13,13,13H854.9c0,0,13,0,13,-13V1015.5c0,0,0,-13,-13,-13Z" class="g0_171"/>
<path d="M305.5,1143.5h70.9m309.8,0h70.9" class="gb_171"/>
<path d="M166.7,1002.5c0,0,-13,0,-13,13v173.4c0,0,0,13,13,13H854.9c0,0,13,0,13,-13V1015.5c0,0,0,-13,-13,-13H166.7Z" class="g5_171"/>
<path d="M686.4,1216.2c0,0,-4.3,0,-4.3,4.3v10.8c0,0,0,4.3,4.3,4.3h30.3c0,0,4.3,0,4.3,-4.3v-10.8c0,0,0,-4.3,-4.3,-4.3Z" class="g7_171"/>
<path d="M673.2,1208.7v34.8m1.4,1H866.8m.9,-1.4v-34.8m-1.3,-1H674.2" class="g8_171"/>
<path d="M673.2,1243.9v.6h.6m193.3,0h.6v-.6m0,-36v-.6h-.6m-193.3,0h-.6v.6" class="g9_171"/>
<path d="M231.2,1053.9c0,0,-12.9,0,-12.9,13v21.6c0,0,0,13,12.9,13H833.3c0,0,13,0,13,-13v-21.6c0,0,0,-13,-13,-13Z" class="ga_171"/>
<image clip-path="url(#c5_171)" preserveAspectRatio="none" x="174" y="1024" width="75" height="76" xlink:href="img/5.png"/>
<path d="M226,1094.2c0,0,-26.8,11.3,-51.1,-12.8c0,0,15.2,25.3,49.3,24c0,0,24.8,.3,20.3,-10.2c0,0,1.2,-4.4,-18.5,-1Z" class="ga_171"/>
<path d="M153.3,109.5v39L165,158.7V136.5Z" class="gc_171"/>
<path d="M153.3,109.5v39H851.1c0,0,16.8,0,16.8,-16.8v-5.4c0,0,0,-16.8,-16.8,-16.8Z" class="g7_171"/>
<path d="M790.4,131c0,0,-.5,-10,8.6,-9.4c0,0,6.8,-.3,6.7,9.5m-15.3,-1.5v6.5c0,0,-3.4,.3,-3.9,-3c0,0,-.1,-3.8,3.9,-3.5Zm15.3,0v6.5c0,0,3.4,.3,4,-3c0,0,0,-3.8,-4,-3.5Z" class="gd_171"/>
<path d="M169,140.8h61v-32H169v32Z" class="ge_171"/>
<path d="M169,143.1h61v-2.3H169v2.3Z" class="ge_171"/>
<path d="M193.5,106.2H173.8v31.5h25.7V112.3c0,-3.4,-2.7,-6.1,-6,-6.1Z" class="g3_171"/>
<path d="M193.5,106.2v-.5H173.8c-.2,0,-.3,.1,-.4,.2c-.1,.1,-.2,.2,-.2,.3v31.5c0,.1,.1,.3,.2,.4c.1,.1,.2,.1,.4,.1h25.7c.2,0,.3,0,.4,-.1c.1,-.1,.1,-.3,.1,-.4V112.3c0,-3.7,-2.9,-6.6,-6.5,-6.6v1c1.5,0,2.9,.7,3.9,1.7c1,1,1.6,2.3,1.6,3.9v24.9H174.3V106.7h19.2Z" class="gf_171"/>
<path d="M173.8,131.7v6h25.7c0,-3.3,-2.7,-6,-6,-6Z" class="g3_171"/>
<path d="M173.8,131.7h-.6v6c0,.1,.1,.3,.2,.4c.1,.1,.2,.1,.4,.1h25.7c.2,0,.3,0,.4,-.1c.1,-.1,.1,-.3,.1,-.4c0,-3.6,-2.9,-6.6,-6.5,-6.6H173.8c-.2,0,-.3,.1,-.4,.2c-.1,.1,-.2,.2,-.2,.4h.6v.5h19.7c1.5,0,2.9,.6,3.9,1.6c1,1,1.6,2.4,1.6,3.9h.5v-.5H174.3v-5.5h-.5v.5Z" class="gf_171"/>
<path d="M177.3,110.9h17.2m-17.2,2.8h17.2m-17.2,2.9h17.2m-17.2,2.9h17.2m-17.2,2.8h17.2m-17.2,2.9h17.2M177.3,128h17.2" class="gg_171"/>
<path d="M193.5,132.2H174.3v5H199c-.1,-1.3,-.7,-2.5,-1.6,-3.4c-1,-1,-2.4,-1.6,-3.9,-1.6Z" class="gh_171"/>
<path d="M174.3,132.2h19.2c1.5,0,2.9,.6,3.9,1.6c.9,.9,1.5,2.1,1.6,3.4H174.3Zm19.2,-.5H173.8v6H199v-2.5c-.9,-2.1,-3.1,-3.5,-5.5,-3.5Z" class="gi_171"/>
<path d="M205.6,106.2h19.7v31.5H199.5V112.3c0,-3.4,2.7,-6.1,6.1,-6.1Z" class="g3_171"/>
<path d="M205.6,106.2v.5h19.2v30.5H200V112.3c0,-1.6,.7,-2.9,1.7,-3.9c1,-1,2.3,-1.7,3.9,-1.7v-1c-3.7,0,-6.6,2.9,-6.6,6.6v25.4c0,.1,.1,.3,.2,.4c0,.1,.2,.1,.3,.1h25.8c.1,0,.2,0,.3,-.1c.1,-.1,.2,-.3,.2,-.4V106.2c0,-.1,-.1,-.2,-.2,-.3c-.1,-.1,-.2,-.2,-.3,-.2H205.6Z" class="gf_171"/>
<path d="M225.3,131.7v6H199.5c0,-3.3,2.7,-6,6.1,-6Z" class="g3_171"/>
<path d="M225.3,131.7h-.5v5.5H199.5v.5h.5c0,-1.5,.7,-2.9,1.7,-3.9c1,-1,2.3,-1.6,3.9,-1.6h19.7v-.5h-.5h.5v-.6H205.6c-3.7,0,-6.6,3,-6.6,6.6c0,.1,.1,.3,.2,.4c0,.1,.2,.1,.3,.1h25.8c.1,0,.2,0,.3,-.1c.1,-.1,.2,-.3,.2,-.4v-6c0,-.2,-.1,-.3,-.2,-.4c-.1,-.1,-.2,-.2,-.3,-.2Z" class="gf_171"/>
<path d="M221.8,110.9H204.6m17.2,2.8H204.6m17.2,2.9H204.6m17.2,2.9H204.6m17.2,2.8H204.6m17.2,2.9H204.6m17.2,2.8H204.6" class="gg_171"/>
<path clip-path="url(#c6_171)" d="M200.1,137.2h24.7v-5H200.1v5Z" class="gh_171"/>
<path clip-path="url(#c7_171)" d="M200.1,137.2c.1,-1.3,.7,-2.5,1.6,-3.4c1,-1,2.3,-1.6,3.9,-1.6h19.2v5Zm25.2,-5.5H205.6c-3.4,0,-6.1,2.7,-6.1,6h25.8v-6h-.5h.5Z" class="gi_171"/>
<path d="M199.5,108.8v34.3" class="gg_171"/>
<path d="M217.2,145.5h3.3V134.7h-3.3v10.8Z" class="gj_171"/>
<path d="M32.1,45.1H9.2m958.3,0h22.9M32.1,1331.3H9.2m958.3,0h22.9M45.1,32.1V9.2m0,1335.1v22.9M954.5,32.1V9.2m0,1335.1v22.9" class="gk_171"/>
<path d="M32.1,45.1H9.2m958.3,0h22.9M32.1,1331.3H9.2m958.3,0h22.9M45.1,32.1V9.2m0,1335.1v22.9M954.5,32.1V9.2m0,1335.1v22.9" class="gl_171"/>
<path d="M27.5,32.1H0m972.1,0h27.5M27.5,1344.3H0m972.1,0h27.5M32.1,27.5V0m0,1348.9v27.5M967.5,27.5V0m0,1348.9v27.5" class="gk_171"/>
<path d="M27.5,32.1H0m972.1,0h27.5M27.5,1344.3H0m972.1,0h27.5M32.1,27.5V0m0,1348.9v27.5M967.5,27.5V0m0,1348.9v27.5" class="gl_171"/>
</svg>