<?xml version="1.0" encoding="UTF-8" standalone="no"?>
<!DOCTYPE svg PUBLIC "-//W3C//DTD SVG 1.1//EN"
"http://www.w3.org/Graphics/SVG/1.1/DTD/svg11.dtd">
<svg viewBox="0 0 999 1376" version="1.1" xmlns="http://www.w3.org/2000/svg" xmlns:xlink="http://www.w3.org/1999/xlink">
<defs>
<clipPath id="c0_361"><path d="M32.1,1344.3V32.1H967.5V1344.3Z"/></clipPath>
<clipPath id="c1_361"><path d="M548.5,439.3V270.9H740.9V439.3Z"/></clipPath>
<clipPath id="c2_361"><path d="M254.2,756.2V587.8h191V756.2Z"/></clipPath>
<clipPath id="c3_361"><path d="M550.7,756.2V594.4H745.6V756.2Z"/></clipPath>
<clipPath id="c4_361"><path d="M245.9,1088.9V920.5H450.8v168.4Z"/></clipPath>
<clipPath id="c5_361"><path d="M560.3,1088.9V920.5H751.2v168.4Z"/></clipPath>
<style type="text/css"><![CDATA[
.g0_361{
fill: #FEFCF4;
}
.g1_361{
fill: #FFF;
}
.g2_361{
fill: none;
stroke: #6381B7;
stroke-width: 0.763;
}
.g3_361{
fill: #BC93AB;
}
.g4_361{
fill: none;
stroke: #FFF;
stroke-width: 1.909;
stroke-miterlimit: 10;
}
.g5_361{
fill: none;
stroke: #000;
stroke-width: 0.381;
stroke-miterlimit: 10;
}
]]></style>
</defs>
<path clip-path="url(#c0_361)" d="M-877.3,1343.2H45.1V32.1H-877.3V1343.2Z" class="g0_361"/>
<path d="M45.1,1344.3H967.5V32.1H45.1V1344.3Z" class="g0_361"/>
<path d="M166.7,131.7c0,0,-13,0,-13,13v1087c0,0,0,13,13,13H854.5c0,0,13,0,13,-13V144.7c0,0,0,-13,-13,-13Z" class="g1_361"/>
<path d="M166.7,131.7c0,0,-13,0,-13,13v1087c0,0,0,13,13,13H854.5c0,0,13,0,13,-13V144.7c0,0,0,-13,-13,-13H166.7Z" class="g2_361"/>
<path d="M231.7,439.3H450.8V270.9H231.7V439.3Z" class="g1_361"/>
<image preserveAspectRatio="none" x="254" y="271" width="169" height="168" xlink:href="img/1.jpg"/>
<path d="M537.8,439.3h219V270.9h-219V439.3Z" class="g1_361"/>
<image clip-path="url(#c1_361)" preserveAspectRatio="none" x="549" y="271" width="192" height="170" xlink:href="img/2.jpg"/>
<path d="M231.7,756.2H450.8V587.8H231.7V756.2Z" class="g1_361"/>
<image clip-path="url(#c2_361)" preserveAspectRatio="none" x="254" y="586" width="191" height="172" xlink:href="img/3.jpg"/>
<path d="M537.8,756.2h219V587.8h-219V756.2Z" class="g1_361"/>
<image clip-path="url(#c3_361)" preserveAspectRatio="none" x="551" y="594" width="195" height="164" xlink:href="img/4.jpg"/>
<path d="M231.7,1088.9H450.8V920.5H231.7v168.4Z" class="g1_361"/>
<image clip-path="url(#c4_361)" preserveAspectRatio="none" x="246" y="919" width="207" height="172" xlink:href="img/5.jpg"/>
<path d="M537.8,1088.9h219V920.5h-219v168.4Z" class="g1_361"/>
<image clip-path="url(#c5_361)" preserveAspectRatio="none" x="560" y="919" width="191" height="172" xlink:href="img/6.jpg"/>
<path d="M190.2,157.7c0,0,-6.5,0,-6.5,6.5v17.3c0,0,0,6.5,6.5,6.5H480.3c0,0,6.5,0,6.5,-6.5V164.2c0,0,0,-6.5,-6.5,-6.5Z" class="g3_361"/>
<path d="M32.1,45.1H9.2m958.3,0h22.9M32.1,1331.3H9.2m958.3,0h22.9M45.1,32.1V9.2m0,1335.1v22.9M954.5,32.1V9.2m0,1335.1v22.9" class="g4_361"/>
<path d="M32.1,45.1H9.2m958.3,0h22.9M32.1,1331.3H9.2m958.3,0h22.9M45.1,32.1V9.2m0,1335.1v22.9M954.5,32.1V9.2m0,1335.1v22.9" class="g5_361"/>
<path d="M27.5,32.1H0m972.1,0h27.5M27.5,1344.3H0m972.1,0h27.5M32.1,27.5V0m0,1348.9v27.5M967.5,27.5V0m0,1348.9v27.5" class="g4_361"/>
<path d="M27.5,32.1H0m972.1,0h27.5M27.5,1344.3H0m972.1,0h27.5M32.1,27.5V0m0,1348.9v27.5M967.5,27.5V0m0,1348.9v27.5" class="g5_361"/>
</svg>