<?xml version="1.0" encoding="UTF-8" standalone="no"?>
<!DOCTYPE svg PUBLIC "-//W3C//DTD SVG 1.1//EN"
"http://www.w3.org/Graphics/SVG/1.1/DTD/svg11.dtd">
<svg viewBox="0 0 999 1376" version="1.1" xmlns="http://www.w3.org/2000/svg" xmlns:xlink="http://www.w3.org/1999/xlink">
<defs>
<clipPath id="c0_163"><path d="M32.1,1344.3V32.1H967.5V1344.3Z"/></clipPath>
<clipPath id="c1_163"><path d="M146.8,649V211.7H878.3V649Z"/></clipPath>
<clipPath id="c2_163"><path d="M146.2,1200.6v-242H877.7v242Z"/></clipPath>
<style type="text/css"><![CDATA[
.g0_163{
fill: #FEFCF4;
}
.g1_163{
fill: #59816A;
}
.g2_163{
fill: #FFF;
}
.g3_163{
fill: none;
stroke: #FFF;
stroke-width: 2.381;
}
.g4_163{
fill: none;
stroke: #231F20;
stroke-width: 1.527;
}
.g5_163{
fill: none;
stroke: #6381B7;
stroke-width: 0.763;
}
.g6_163{
fill: #6381B7;
}
.g7_163{
fill: none;
stroke: #6381B7;
stroke-width: 0.381;
stroke-dasharray: 2,1;
}
.g8_163{
fill: none;
stroke: #6381B7;
stroke-width: 0.381;
}
.g9_163{
fill: #FEF8F8;
}
.ga_163{
fill: none;
stroke: #A164A9;
stroke-width: 1.527;
stroke-linecap: round;
stroke-linejoin: round;
stroke-dasharray: 0,5;
}
.gb_163{
fill: none;
stroke: #A164A9;
stroke-width: 1.527;
stroke-linecap: round;
stroke-linejoin: round;
}
.gc_163{
fill: #A164A9;
}
.gd_163{
fill: none;
stroke: #FFF79A;
stroke-width: 1.527;
}
.ge_163{
fill: none;
stroke: #FFF;
stroke-width: 1.909;
stroke-miterlimit: 10;
}
.gf_163{
fill: none;
stroke: #000;
stroke-width: 0.381;
stroke-miterlimit: 10;
}
]]></style>
</defs>
<path clip-path="url(#c0_163)" d="M-877.3,1344.3H45.1V32.1H-877.3V1344.3Z" class="g0_163"/>
<path d="M45.1,1344.3H967.5V32.1H45.1V1344.3Z" class="g0_163"/>
<path clip-path="url(#c0_163)" d="M867.9,163c0,0,30.3,0,30.3,-30.3v-4.4c0,0,0,-30.3,-30.3,-30.3H-746.6c0,0,-30.3,0,-30.3,30.3v4.4c0,0,0,30.3,30.3,30.3Z" class="g1_163"/>
<image clip-path="url(#c1_163)" preserveAspectRatio="none" x="147" y="212" width="731" height="437" xlink:href="img/1.png"/>
<path d="M170.7,218.3c0,0,-17.4,0,-17.4,17.3V621.5c0,0,0,17.3,17.4,17.3H850.6c0,0,17.3,0,17.3,-17.3V235.6c0,0,0,-17.3,-17.3,-17.3Z" class="g2_163"/>
<path d="M303.3,238.1c-1.6,-1.8,-3.3,-2.6,-5.1,-2.6c-.6,0,-1.3,.3,-2.1,.8c-.7,.7,-1.1,1.3,-1.1,2c0,.2,.1,.5,.3,.7l.6,.6h-2.2l.8,.8h1.3v8.1l.8,.8v-8.9h1.5l-.9,-.8h-.9l-.3,-.9c0,-.6,.4,-1.1,1.1,-1.6c.7,-.4,1.3,-.7,1.9,-.7c.5,0,.9,.1,1.3,.2c.4,.1,.8,.3,1.1,.5c.5,.2,.8,.5,1.2,.7c.3,.2,.6,.5,.8,.7l-.1,-.4Zm3.5,2.3l-.8,-.8h-9.2l.9,.8h6.8v2.4c-.4,-1,-.9,-1.5,-1.6,-1.5c-.2,0,-.4,.2,-.7,.4c-.2,.2,-.3,.5,-.3,.7c-.6,-.7,-1.2,-1.1,-1.9,-1.1c-.6,0,-1,.3,-1.4,.8c-.3,.5,-.4,1.1,-.4,1.7c0,.3,0,.6,.1,1c.1,.3,.3,.5,.5,.7c.2,.2,.5,.4,.8,.5c.3,.1,.6,.2,1,.2c.4,0,.7,-.2,1,-.4c.2,-.2,.3,-.5,.3,-.8c0,-.8,-.4,-1.2,-1.1,-1.3c-.3,0,-.5,.1,-.7,.3c-.2,.2,-.3,.4,-.3,.7c0,.2,.1,.4,.3,.7c-.8,-.1,-1.2,-.5,-1.2,-1.2c0,-.2,0,-.5,.1,-.7c.1,-.2,.2,-.3,.4,-.5c.1,-.1,.3,-.2,.5,-.3c.2,-.1,.4,-.1,.6,-.1c.4,0,.9,.1,1.2,.4c.4,.3,.6,.7,.7,1.1l.3,-.1c0,-.2,-.1,-.4,-.1,-.5c0,-.6,.3,-.9,.8,-.9c.2,0,.5,.1,.7,.3c.2,.3,.3,.5,.3,.8v4.9l.9,.8v-9h1.5Zm4.2,-.8h-5.5l.8,.8H309c-1.1,1.4,-1.7,2.9,-1.7,4.4c0,1,.2,2,.6,2.8c.5,1,1.3,1.5,2.3,1.5c.2,0,.3,-.1,.5,-.1c.2,-.1,.4,-.2,.5,-.3c.1,-.1,.3,-.3,.3,-.5c.1,-.1,.2,-.3,.2,-.5c0,-.4,-.1,-.7,-.3,-.9c-.2,-.2,-.5,-.4,-.8,-.4c-.2,0,-.4,.1,-.7,.3c-.2,.2,-.3,.4,-.3,.7c0,.2,.1,.3,.1,.5c.1,.2,.3,.3,.5,.4c-.6,.2,-1.1,-.1,-1.6,-.9c-.3,-.5,-.5,-1,-.5,-1.6c0,-.7,.1,-1.4,.2,-1.9c.2,-.6,.4,-1.1,.7,-1.6c.3,-.4,.7,-.8,1.2,-1.2c.4,-.3,.9,-.5,1.6,-.7l-.8,-.8Zm9.3,.8l-.8,-.8h-8.9c.2,.2,.4,.4,.6,.6c.2,.2,.3,.3,.4,.3c.2,.2,.4,.3,.6,.5c.2,.1,.4,.1,.6,.2c.3,.1,.6,.1,.9,.2c.2,.1,.4,.2,.5,.3c.2,.1,.3,.3,.4,.5c.1,.3,.1,.6,.2,1c-.3,.4,-.5,.7,-.7,.9c-.2,.2,-.3,.4,-.4,.5q-.2,.2,-.3,.3q-.1,0,-.2,0c-.1,0,-.2,0,-.3,-.1c-.1,-.1,-.2,-.2,-.3,-.3c0,-.1,-.1,-.2,-.1,-.3c-.1,-.2,-.1,-.3,-.1,-.4l-.6,.5c.1,.2,.2,.4,.3,.6c.2,.3,.3,.5,.5,.6c.1,.2,.3,.4,.5,.5c.2,.1,.4,.2,.7,.2c.1,0,.2,0,.3,0c.1,-.1,.2,-.2,.4,-.3c.1,-.2,.3,-.4,.5,-.6c.2,-.3,.4,-.7,.7,-1.2c.3,-.4,.6,-.7,.9,-.7c.3,-.1,.5,0,.7,.2c.2,.3,.4,.7,.5,1.2c.2,.5,.2,1.1,.2,1.8v.2c0,.1,0,.2,0,.4c0,.1,0,.3,0,.5c0,.2,0,.5,0,.8c.1,.1,.2,.3,.4,.4c.1,.2,.2,.4,.4,.5v-9h1.5Zm-2.3,2.9c-.3,-.3,-.5,-.5,-.7,-.8c-.2,-.2,-.4,-.4,-.6,-.4c-.2,-.1,-.4,-.1,-.7,0c-.2,.1,-.5,.3,-.7,.6c0,-.4,-.1,-.8,-.3,-1.2c-.2,-.3,-.5,-.7,-.9,-1.1H318v2.9Zm10.6,-5.2c-1.6,-1.8,-3.2,-2.6,-5,-2.6c-.7,0,-1.4,.3,-2.1,.8c-.8,.7,-1.1,1.3,-1.1,2c0,.2,.1,.5,.3,.7l.6,.6h-2.2l.8,.8h1.2v8.1l.9,.8v-8.9h1.4l-.8,-.8h-.9l-.3,-.9c0,-.6,.4,-1.1,1.1,-1.6c.7,-.4,1.3,-.7,1.9,-.7c.4,0,.8,.1,1.2,.2c.4,.1,.8,.3,1.2,.5c.4,.2,.8,.5,1.1,.7c.3,.2,.6,.5,.9,.7l-.2,-.4Zm2.6,2.3l-.8,-.8h-8.1l.8,.8h5.8v4.7c-.9,-1.9,-1.9,-2.8,-3.1,-2.8c-.5,0,-1,.2,-1.4,.6c-.4,.4,-.6,.8,-.6,1.4c0,1.1,.5,1.6,1.6,1.6c.3,0,.6,-.1,.8,-.4c.2,-.2,.3,-.5,.3,-.9c0,-.2,-.2,-.6,-.5,-1.1c0,0,.1,0,.2,0c.9,0,1.7,.6,2.3,1.8c.5,1,.7,2,.7,3l-.1,.9l.7,.4v-9.2h1.4Zm3.6,0c-.3,-.5,-.8,-.7,-1.3,-.7c-.5,0,-.9,.2,-1.3,.7c-.2,.2,-.3,.4,-.4,.6c-.1,.2,-.2,.5,-.2,.7c0,.6,.2,1.1,.6,1.5c.4,.4,.8,.6,1.4,.6c.5,0,.9,-.2,1.2,-.6c.4,-.4,.6,-.9,.6,-1.4c0,-.6,-.2,-1,-.6,-1.4Zm-.7,2.1c-.3,.3,-.7,.4,-1.1,.4c-.3,0,-.5,-.2,-.5,-.6c0,-.2,0,-.4,.1,-.6c.1,-.2,.2,-.4,.3,-.6c.3,-.3,.7,-.5,1.1,-.5c.4,0,.6,.3,.6,.7c0,.5,-.2,.8,-.5,1.2Zm1.9,6.2c-.5,-.7,-1.2,-1.5,-2,-2.4c-.8,-.9,-1.5,-1.6,-2.2,-2.1v1.9c.3,.2,.7,.4,1,.7c.4,.2,.7,.5,1.1,.8c.4,.3,.7,.6,1.1,.9c.3,.3,.7,.6,1,.9v-.7Zm14.1,-10.6c-1.6,-1.8,-3.3,-2.6,-5,-2.6c-.7,0,-1.4,.3,-2.1,.8c-.8,.7,-1.2,1.3,-1.2,2c0,.2,.1,.5,.4,.7l.5,.6h-2.2l.8,.8h1.3v8.1l.8,.8v-8.9h1.5l-.9,-.8h-.9l-.3,-.9c.1,-.6,.4,-1.1,1.2,-1.6c.6,-.4,1.2,-.7,1.9,-.7c.4,0,.8,.1,1.2,.2c.4,.1,.8,.3,1.2,.5c.4,.2,.8,.5,1.1,.7c.3,.2,.6,.5,.9,.7l-.2,-.4Zm2.9,6.7c0,-.6,-.1,-1.1,-.2,-1.4c-.2,-.3,-.4,-.5,-.7,-.6c.3,-.3,.4,-.8,.4,-1.3c0,-.5,-.1,-.9,-.4,-1.1h4.6l-.9,-.8H343.7l.8,.8h3.2c0,.4,-.1,.8,-.3,1.2c-.3,.5,-.6,.8,-.9,.8l-.8,-.6l-.4,.6l.7,.8c.2,.1,.3,.2,.5,.3c.1,0,.3,.1,.4,.1c.4,0,.8,-.3,1.1,-.9c.2,-.3,.3,-.5,.4,-.7c.1,-.3,.2,-.5,.3,-.7c0,.3,.1,.5,.3,.8c.2,.3,.4,.6,.8,.9c0,0,.1,.1,.1,.1q.1,0,.1,.1c.1,0,.2,0,.2,0c-.1,.1,-.3,.2,-.4,.4c-.1,.1,-.2,.2,-.3,.4c-.1,.1,-.2,.3,-.3,.4c0,.2,-.1,.3,-.1,.5c-.1,.2,-.1,.4,-.1,.6c0,.2,0,.3,.1,.5c.1,.1,.2,.3,.3,.4c.1,.1,.3,.2,.4,.3c.2,.1,.4,.1,.5,.1c.3,0,.5,-.1,.7,-.3c.2,-.2,.3,-.4,.3,-.7c0,-.2,-.1,-.4,-.2,-.5c-.2,-.1,-.4,-.2,-.6,-.2h-.1c0,0,-.1,0,-.2,0c.3,-1,.7,-1.5,1.4,-1.5c.4,0,.5,.1,.5,.4v4.2c-.2,-.2,-.5,-.3,-.7,-.4c-.3,-.2,-.6,-.2,-1,-.2h-1.2c-.8,0,-1.3,-.2,-1.6,-.5c-.3,-.3,-.5,-.7,-.5,-1.2c0,-.1,0,-.2,0,-.3c0,-.1,0,-.2,0,-.2c0,-.1,.1,-.2,.1,-.3c0,-.1,0,-.2,.1,-.3l-.4,-.4c-.1,.4,-.2,.7,-.3,1c0,.3,0,.5,0,.8c0,.3,0,.6,.1,.9c.1,.4,.2,.6,.4,.9c.2,.3,.5,.5,.7,.6c.3,.2,.6,.2,.9,.2c.2,0,.3,0,.5,0c.3,0,.5,0,.8,-.1c.3,0,.5,0,.7,0c.3,-.1,.4,-.1,.6,-.1c.4,0,.7,.2,.9,.4c.1,.2,.3,.5,.5,1l.3,.2v-4c.2,-1.1,.7,-1.6,1.4,-1.6c.2,0,.5,.2,.7,.6q-.1,0,-.2,0c0,0,-.1,0,-.1,0c-.7,0,-1,.3,-1.1,.8c0,.3,.1,.5,.3,.6c.2,.2,.4,.3,.6,.3c.9,-.1,1.3,-.6,1.3,-1.6c0,-.2,0,-.4,-.1,-.6c-.1,-.1,-.2,-.3,-.3,-.4c-.1,-.2,-.2,-.3,-.4,-.4c-.1,0,-.3,-.1,-.5,-.1c-.7,0,-1.2,.3,-1.6,1Zm-3.9,-4.4h2.1l.3,.1c.2,.3,.3,.5,.3,.9c0,.5,-.4,.8,-1.2,.8c-.4,0,-.8,-.2,-1.1,-.6c-.3,-.3,-.4,-.7,-.4,-1.2Zm18.7,-.8h-1.3c.1,-.8,-.1,-1.5,-.7,-1.9c-.4,-.4,-1.1,-.6,-1.9,-.6c-.2,0,-.7,0,-1.3,.1c-.2,0,-.5,0,-.7,0c-.2,0,-.4,0,-.5,0c-.4,0,-.7,0,-.9,-.2c-.3,-.2,-.5,-.4,-.5,-.7c0,-.1,0,-.2,.1,-.3c0,-.1,.1,-.2,.1,-.2v-.3c-.2,0,-.4,.1,-.5,.3c-.1,.2,-.1,.5,-.1,.7c0,.6,.3,1.1,.9,1.4c.5,.3,1.1,.5,1.7,.5c.1,0,.3,0,.5,0c.2,0,.5,0,.7,-.1c.3,0,.5,0,.7,0c.2,0,.4,0,.5,0c.2,0,.3,0,.5,0c.1,.1,.3,.1,.4,.2c.2,.1,.4,.3,.4,.6c0,.1,-.1,.3,-.1,.5h-3.7v2.7c-.1,-.3,-.3,-.5,-.5,-.7c-.1,-.3,-.3,-.5,-.5,-.7c-.6,-.6,-1.2,-.9,-1.8,-.9c-.3,0,-.6,.1,-.9,.2c-.3,.1,-.6,.2,-.9,.4c-.7,.4,-1,.9,-1,1.4c0,.2,0,.3,.1,.5c.2,.1,.3,.2,.4,.2c.2,0,.4,-.1,.7,-.2c.2,-.1,.4,-.2,.6,-.2c.3,0,.5,.2,.5,.6c0,.2,-.2,.4,-.5,.7l-.6,.6l1.2,.4c.4,-.4,.8,-.8,1.2,-1.2c.5,-.5,.9,-.9,1.3,-1.3c.1,.3,.3,.5,.4,.7c.1,.1,.2,.3,.3,.4v2.2c0,2.1,.6,3.1,1.6,3c.4,0,.7,-.1,1.1,-.4c.4,-.3,.8,-.7,1.1,-1.1c.4,-.5,.6,-.9,.8,-1.4c.2,-.5,.3,-.9,.3,-1.3c0,-.4,-.2,-.8,-.4,-1.2c-.3,-.3,-.6,-.5,-1,-.5c-.4,0,-.7,.1,-.9,.3c-.2,.3,-.3,.5,-.3,.9c0,.3,.1,.5,.3,.7c.3,.1,.5,.2,.8,.3l.3,-.1c-.1,.5,-.4,1.1,-.9,1.7c-.6,.7,-1.1,1,-1.5,1c-.3,0,-.5,-.2,-.5,-.6v-6.3h5.7l-.8,-.8Zm-8.6,3.2c0,-.1,0,-.3,-.1,-.4c0,-.2,-.1,-.3,-.2,-.4c-.1,-.1,-.2,-.2,-.4,-.3c-.1,-.1,-.3,-.1,-.5,-.1c.3,-.5,.8,-.7,1.6,-.7q.1,0,.2,0c.1,0,.3,.1,.4,.1c.2,.1,.4,.2,.5,.3l-1.5,1.5Z" class="g3_163"/>
<path d="M197,246c0,0,-.5,-9.9,8.7,-9.3c0,0,6.7,-.4,6.7,9.5M197,244.7v6.5c0,0,-3.4,.3,-3.9,-3c0,0,-.1,-3.8,3.9,-3.5Zm15.4,0v6.5c0,0,3.4,.3,3.9,-3c0,0,.1,-3.8,-3.9,-3.5Z" class="g4_163"/>
<path d="M185.8,261.3H835.4" class="g5_163"/>
<path d="M625.8,656.1c0,0,-4.4,0,-4.4,4.3v10.8c0,0,0,4.4,4.4,4.4h30.3c0,0,4.3,0,4.3,-4.4V660.4c0,0,0,-4.3,-4.3,-4.3Z" class="g6_163"/>
<path d="M612.6,648.6v34.8m1.3,1H866.8m.9,-1.3V648.2m-1.3,-1H613.5" class="g7_163"/>
<path d="M612.6,683.8v.6h.6m254,0h.5v-.6m0,-36v-.6h-.5m-254,0h-.6v.6" class="g8_163"/>
<image clip-path="url(#c2_163)" preserveAspectRatio="none" x="146" y="959" width="731" height="242" xlink:href="img/2.png"/>
<path d="M170,965.2c0,0,-17.3,0,-17.3,17.3v190.7c0,0,0,17.3,17.3,17.3H850c0,0,17.3,0,17.3,-17.3V982.5c0,0,0,-17.3,-17.3,-17.3Z" class="g2_163"/>
<path d="M368.4,987.3l-.8,-.9h-8.2l.8,.9h5.6v.6c-1.7,.6,-3.4,1.5,-5.1,2.7l1.1,1.6c1.2,.1,2.2,.5,2.9,1.2c.2,.2,.4,.4,.6,.7c.2,.3,.4,.5,.5,.8c.1,.2,.2,.4,.3,.5c0,.1,.1,.2,.1,.3l.4,.5v-8.9h1.8Zm-2.6,6.7c-.7,-1.3,-1.8,-2.3,-3.3,-2.9c.6,-.4,1.2,-.8,1.7,-1.1c.6,-.3,1.1,-.5,1.6,-.7V994Zm10.7,-9.1c-1.6,-1.7,-3.3,-2.6,-5.1,-2.6c-.7,0,-1.4,.3,-2.1,.9c-.8,.6,-1.1,1.3,-1.1,2c0,.2,.1,.4,.3,.6l.6,.6h-2.2l.8,.9h1.2v8l.9,.9v-8.9h1.4l-.8,-.9h-.9l-.3,-.8c0,-.6,.4,-1.1,1.1,-1.6c.7,-.5,1.3,-.7,1.9,-.7c.4,0,.9,0,1.3,.1c.4,.1,.7,.3,1.1,.5c.4,.3,.8,.5,1.1,.7c.4,.3,.7,.5,.9,.8l-.1,-.5Zm2.5,2.4l-.9,-.9h-1.5v1.2c-1.4,.9,-2.2,1.3,-2.3,1.3c-.4,0,-.7,-.1,-.9,-.3c-.2,-.1,-.4,-.4,-.4,-.6c0,-.2,.1,-.4,.2,-.5c.1,.1,.2,.2,.3,.2c.1,0,.2,.1,.3,.1c.2,0,.4,-.1,.5,-.2c.2,-.2,.2,-.4,.2,-.6c0,-.5,-.4,-.7,-1,-.7c-.4,0,-.8,.1,-1,.4c-.3,.3,-.4,.6,-.4,1c0,.2,0,.5,.1,.7c.1,.2,.2,.3,.4,.5c.3,.2,.8,.4,1.3,.4l-2.2,1.6l1,1.4c.4,.1,.9,.2,1.2,.3c.4,.1,.7,.3,1,.5c.5,.3,.9,.8,1.4,1.5c.1,.2,.2,.4,.3,.6c.1,.2,.3,.4,.4,.6l.4,.7v-9.2H379Zm-2.4,6.7c-.7,-1.2,-1.8,-2.1,-3.1,-2.8c.5,-.5,1.1,-.9,1.6,-1.2c.5,-.4,1,-.6,1.5,-.8V994Zm3.7,-12h-.7l-4.9,3.7h2l3.6,-3.7Zm7.3,4.4h-9.8l.8,.9h9.9l-.9,-.9Zm-.3,4c-.2,-.4,-.4,-.8,-.7,-1.2c-.3,-.3,-.6,-.6,-1,-.8c-.4,-.2,-.8,-.3,-1.3,-.3c-.5,0,-1,.1,-1.4,.5c-.4,.3,-.6,.8,-.6,1.3c0,.5,.1,.9,.4,1.2c.3,.3,.6,.5,1,.5c.9,0,1.4,-.4,1.4,-1.3c0,-.3,-.2,-.7,-.4,-1c.3,0,.5,-.1,.6,-.1c.4,0,.8,.2,1.1,.7c.3,.3,.4,.8,.4,1.2c0,.6,-.3,1.2,-.7,1.6c-.6,.5,-1.2,.8,-1.7,.8c-1.2,0,-2.3,-.7,-3.1,-2c-.2,-.3,-.5,-.7,-.8,-1.3c-.3,-.6,-.6,-1.3,-.9,-2.2l-.5,-.2c1.3,4.7,3,7,5.2,7c.8,0,1.6,-.3,2.2,-.9c.3,-.3,.6,-.6,.7,-1c.2,-.3,.3,-.7,.3,-1.1c0,-.5,-.1,-1,-.2,-1.4Zm15.9,-4H392.7l.8,.9h8.2v5.8l-1.1,-1c.1,-.4,.2,-.9,.2,-1.3c0,-.6,-.2,-1.1,-.4,-1.6c-.2,-.4,-.5,-.7,-.8,-.9c-.3,-.2,-.6,-.4,-.9,-.5c-.2,-.1,-.4,-.1,-.7,-.1c-.4,0,-.9,.2,-1.3,.5c-.2,.2,-.4,.3,-.5,.6c-.1,.2,-.2,.4,-.2,.6c0,.3,.1,.5,.2,.7c.2,.3,.5,.5,.8,.5c.4,.1,.8,0,1,-.2c.2,-.1,.4,-.3,.5,-.4c.1,-.2,.1,-.4,.1,-.6c0,-.2,-.1,-.4,-.3,-.7c.2,0,.4,-.1,.5,0c.2,0,.4,.1,.6,.2c.1,.1,.2,.3,.3,.5c.2,.2,.3,.4,.3,.7c.1,.2,.1,.3,.1,.4c0,.5,-.1,.9,-.4,1.3c-.3,.6,-.9,.9,-1.9,.9c-.4,0,-.8,-.1,-1.2,-.4c-.3,-.2,-.7,-.5,-1,-.9c-.3,-.4,-.6,-.9,-.8,-1.5c-.3,-.6,-.4,-1.2,-.6,-1.9l-.5,-.2c.1,.7,.2,1.4,.4,2c.1,.7,.4,1.2,.6,1.7c.3,.4,.5,.7,.8,1c.2,.3,.5,.6,.8,.8c.2,.3,.5,.4,.8,.6c.3,.1,.6,.1,.9,.1c.5,0,.9,-.1,1.3,-.3c.4,-.2,.7,-.4,.9,-.8c1,.6,1.6,1.7,2,3.2l.3,.2v-9H404l-.8,-.9Zm8.7,.9l-.9,-.9h-8.1l.8,.9h5.9V992h-.1c-.8,-1.9,-1.9,-2.8,-3,-2.8c-.6,0,-1.1,.2,-1.5,.5c-.4,.4,-.6,.9,-.6,1.5c0,1,.6,1.6,1.6,1.6c.4,0,.6,-.1,.9,-.4c.2,-.2,.3,-.6,.3,-.9c0,-.2,-.2,-.6,-.6,-1.1c.1,0,.1,-.1,.3,-.1c.8,0,1.6,.6,2.3,1.8c.4,1.1,.6,2.1,.6,3v.9l.6,.5v-9.2h1.5Zm.3,12c-.1,-.1,-.1,-.3,-.2,-.4c-.1,-.1,-.2,-.3,-.4,-.5c-.2,-.2,-.4,-.4,-.6,-.7c-.2,-.2,-.5,-.4,-.7,-.6c0,-.3,0,-.5,0,-.9c0,-.3,0,-.6,-.2,-.8l-.7,-.5c.1,.4,.2,.7,.2,1c0,.3,0,.6,-.1,.7c-.5,-.3,-.9,-.4,-1.2,-.4c-.2,0,-.4,0,-.6,.1c-.2,0,-.3,.1,-.5,.3c-.1,.1,-.2,.2,-.3,.4c-.1,.2,-.1,.3,-.1,.5c0,.4,.1,.8,.4,1c.4,.2,.7,.4,1.2,.4c.7,-.1,1.2,-.4,1.7,-1.1c.1,.1,.3,.3,.5,.4c.2,.2,.4,.4,.6,.5c.2,.2,.3,.4,.5,.6c.2,.3,.4,.5,.5,.7v-.7Zm-3.3,-2.2c.1,.1,.2,.2,.3,.3c-.1,.1,-.2,.3,-.5,.4c-.2,.2,-.5,.2,-.7,.2c-.3,-.1,-.4,-.2,-.4,-.5c0,-.3,.3,-.5,.9,-.5c.1,0,.3,.1,.4,.1Zm11.9,-9.8l-.9,-.9c-.5,0,-.7,-.4,-.8,-1l-.5,-.5l.1,3.8c-.1,-.4,-.4,-.8,-.9,-1.4c-.5,-.6,-.9,-.9,-1.2,-.9c-.9,0,-1.6,.6,-2.1,1.7c-.1,-.4,-.3,-.9,-.7,-1.2c-.4,-.3,-.8,-.5,-1.2,-.5h-1.8l.8,.9c.1,0,.5,0,1,0c.5,0,1,.3,1.4,1c-.2,.1,-.4,.2,-.6,.4c-.2,.1,-.3,.2,-.4,.4c-.2,.2,-.3,.4,-.4,.6c0,.2,-.1,.4,-.1,.6c0,.3,.1,.6,.3,.8c.2,.3,.5,.4,.8,.4c.6,0,1.1,-.4,1.3,-1.1c.1,.4,.3,.6,.5,.8c.3,.2,.5,.3,.8,.3c.3,-.1,.6,-.3,.8,-.5c.2,-.2,.3,-.5,.3,-.9c0,-.4,-.4,-.9,-1.3,-1.6c0,-.2,.1,-.3,.3,-.5c.2,-.1,.4,-.2,.6,-.2c.4,0,.7,.3,1.1,.8c.4,.5,.6,1,.6,1.3l-.1,5.5l.9,.9v-9h1.4Zm3.3,0l-.8,-.9h-.8c-.8,-3,-2.6,-4.5,-5.3,-4.5c-.3,0,-.6,0,-1,.1c-.3,.1,-.6,.2,-.9,.3c-.4,.2,-.7,.4,-.9,.6c-.2,.2,-.3,.5,-.3,.7c0,.3,.1,.6,.3,.8c.2,.3,.5,.4,.9,.6c.1,0,.4,0,.7,.1c.4,0,.9,.1,1.6,.2c.8,.1,1.2,.3,1.2,.6c0,.2,-.1,.4,-.3,.6h.8c.1,-.3,.1,-.5,.1,-.5c0,-.4,-.1,-.8,-.4,-1c-.2,-.3,-.5,-.5,-.9,-.6c-.4,-.1,-1.2,-.2,-2.3,-.3c-.9,0,-1.3,-.2,-1.3,-.4c0,-.4,.3,-.6,1,-.7c.2,-.1,.5,-.1,.7,-.2c.2,0,.5,0,.7,0c2.7,0,4.3,1.2,4.7,3.6h-2.1l.9,.9h1.2v8l.9,.9v-8.9h1.6Zm8.6,0l-.9,-.9h-9.1l.8,.9h6.8v2.3c-.3,-.9,-.8,-1.4,-1.5,-1.4c-.3,0,-.5,.1,-.7,.3c-.2,.3,-.4,.5,-.4,.8c-.5,-.8,-1.2,-1.2,-1.9,-1.2c-.5,0,-1,.3,-1.3,.9c-.3,.5,-.5,1,-.5,1.6c0,.4,.1,.7,.2,1c.1,.3,.3,.6,.5,.8c.2,.2,.4,.4,.7,.5c.3,.1,.7,.2,1,.2c.4,-.1,.8,-.2,1,-.4c.2,-.2,.4,-.5,.4,-.8c0,-.8,-.4,-1.3,-1.2,-1.3c-.2,0,-.4,.1,-.6,.3c-.2,.2,-.3,.4,-.3,.6c0,.2,.1,.5,.3,.7c-.8,-.1,-1.2,-.5,-1.2,-1.2c0,-.2,0,-.4,.1,-.6c.1,-.2,.2,-.4,.3,-.5c.2,-.2,.3,-.3,.5,-.4c.2,0,.4,-.1,.6,-.1c.5,0,.9,.2,1.3,.5c.3,.3,.5,.6,.6,1.1l.4,-.1c-.1,-.3,-.1,-.4,-.1,-.6c0,-.6,.2,-.9,.7,-.9c.3,0,.6,.1,.8,.4c.2,.2,.3,.5,.3,.8v4.9l.8,.8v-9h1.6Zm4.1,-.9h-5.5l.8,.9h2.8c-1.2,1.4,-1.8,2.8,-1.8,4.3c0,1.1,.2,2,.7,2.8c.5,1,1.2,1.5,2.2,1.5c.2,0,.4,0,.6,-.1c.2,0,.3,-.1,.5,-.3c.1,-.1,.2,-.2,.3,-.4c.1,-.2,.1,-.4,.1,-.6c0,-.3,-.1,-.6,-.3,-.9c-.2,-.2,-.4,-.3,-.7,-.3c-.3,0,-.5,.1,-.7,.3c-.2,.2,-.3,.4,-.3,.6c0,.2,0,.4,.1,.5c.1,.2,.2,.4,.4,.5c-.5,.1,-1,-.2,-1.6,-.9c-.3,-.5,-.4,-1.1,-.4,-1.7c0,-.7,0,-1.3,.2,-1.9c.1,-.5,.4,-1,.6,-1.5c.4,-.5,.7,-.9,1.2,-1.2c.5,-.3,1,-.6,1.6,-.7l-.8,-.9Zm8.4,.9l-.8,-.9h-8.1l.8,.9H443V992h-.1c-.9,-1.9,-1.9,-2.8,-3.1,-2.8c-.5,0,-1,.2,-1.4,.5c-.4,.4,-.6,.9,-.6,1.5c0,1,.5,1.6,1.6,1.6c.3,0,.6,-.1,.8,-.4c.2,-.2,.3,-.6,.3,-.9c0,-.2,-.1,-.6,-.5,-1.1c0,0,.1,-.1,.2,-.1c.9,0,1.7,.6,2.3,1.8c.5,1.1,.7,2.1,.7,3l-.1,.9l.7,.5v-9.2h1.4Zm7.9,0l-.9,-.9h-8.1l.8,.9h5.7v.6c-1.8,.6,-3.5,1.5,-5.1,2.7l1.1,1.6h-.1c1.2,.1,2.2,.5,2.9,1.2c.2,.2,.4,.4,.6,.7c.2,.3,.4,.5,.5,.7c.1,.2,.2,.5,.4,.9l.5,.5v-8.9h1.7Zm-2.5,6.7c-.8,-1.3,-1.9,-2.3,-3.4,-2.9c.6,-.4,1.2,-.8,1.7,-1.1c.6,-.3,1.1,-.5,1.7,-.7V994Zm-3.3,1.2c.2,.2,.4,.3,.6,.3c.2,0,.4,-.1,.6,-.3c.2,-.2,.3,-.4,.3,-.6c0,-.3,-.1,-.5,-.3,-.6c-.2,-.2,-.4,-.3,-.6,-.3c-.2,0,-.4,.1,-.6,.3c-.2,.1,-.3,.3,-.3,.6c0,.2,.1,.4,.3,.6Zm19.3,-10.3c-1.6,-1.7,-3.2,-2.6,-5,-2.6c-.7,0,-1.4,.3,-2.1,.9c-.8,.6,-1.1,1.3,-1.1,2c0,.2,.1,.4,.3,.6l.6,.6h-2.2l.8,.9h1.2v8l.9,.9v-8.9h1.4l-.8,-.9h-.9l-.3,-.8c0,-.6,.4,-1.1,1.1,-1.6c.7,-.5,1.3,-.7,1.9,-.7c.4,0,.8,0,1.2,.1c.4,.1,.8,.3,1.2,.5c.4,.3,.8,.5,1.1,.7c.3,.3,.6,.5,.9,.8l-.2,-.5Zm3.6,2.4l-.8,-.9h-9.2l.8,.9h6.8v2.3c-.3,-.9,-.8,-1.4,-1.5,-1.4c-.2,0,-.5,.1,-.7,.3c-.2,.3,-.3,.5,-.3,.8c-.6,-.8,-1.2,-1.2,-1.9,-1.2c-.6,0,-1.1,.3,-1.4,.9c-.3,.5,-.5,1,-.5,1.6c0,.4,.1,.7,.2,1c.1,.3,.3,.6,.5,.8c.2,.2,.5,.4,.8,.5c.3,.1,.6,.2,.9,.2c.5,-.1,.8,-.2,1,-.4c.3,-.2,.4,-.5,.4,-.8c0,-.8,-.4,-1.3,-1.2,-1.3c-.2,0,-.4,.1,-.6,.3c-.2,.2,-.3,.4,-.3,.6c0,.2,.1,.5,.3,.7c-.8,-.1,-1.2,-.5,-1.2,-1.2c0,-.2,0,-.4,.1,-.6c.1,-.2,.2,-.4,.3,-.5c.2,-.2,.4,-.3,.5,-.4c.2,0,.4,-.1,.6,-.1c.5,0,.9,.2,1.3,.5c.3,.3,.6,.6,.6,1.1l.4,-.1c-.1,-.3,-.1,-.4,-.1,-.6c0,-.6,.2,-.9,.7,-.9c.3,0,.6,.1,.8,.4c.2,.2,.3,.5,.3,.8v4.9l.9,.8v-9h1.5Zm4.1,-.9h-5.5l.9,.9h2.7c-1.2,1.4,-1.8,2.8,-1.8,4.3c0,1.1,.3,2,.7,2.8c.5,1,1.3,1.5,2.2,1.5c.2,0,.4,0,.6,-.1c.2,0,.3,-.1,.5,-.3c.1,-.1,.2,-.2,.3,-.4c.1,-.2,.1,-.4,.1,-.6c0,-.3,-.1,-.6,-.3,-.9c-.2,-.2,-.4,-.3,-.7,-.3c-.2,0,-.5,.1,-.7,.3c-.2,.2,-.3,.4,-.3,.6c0,.2,0,.4,.1,.5c.1,.2,.2,.4,.4,.5c-.5,.1,-1,-.2,-1.5,-.9c-.3,-.5,-.5,-1.1,-.5,-1.7c0,-.7,.1,-1.3,.2,-1.9c.2,-.5,.4,-1,.7,-1.5c.3,-.5,.7,-.9,1.1,-1.2c.5,-.3,1,-.6,1.6,-.7l-.8,-.9Zm9.4,.9l-.8,-.9h-9c.3,.3,.5,.5,.7,.6c.1,.2,.3,.3,.3,.4c.2,.2,.5,.3,.7,.4c.2,.1,.4,.2,.6,.2c.3,.1,.6,.2,.8,.3c.3,0,.5,.1,.6,.3c.2,.1,.3,.3,.4,.5c0,.2,.1,.5,.2,.9c-.3,.4,-.5,.7,-.7,1c-.2,.2,-.4,.4,-.5,.5c-.1,.1,-.2,.2,-.2,.2c-.1,.1,-.2,.1,-.2,.1c-.1,0,-.2,0,-.3,-.1c-.1,-.1,-.2,-.2,-.3,-.3c-.1,-.1,-.1,-.3,-.2,-.4c0,-.1,0,-.2,-.1,-.3l-.5,.5c.1,.2,.2,.4,.3,.6c.1,.2,.3,.4,.4,.6c.2,.2,.4,.4,.6,.5c.2,.1,.4,.2,.7,.2c0,0,.1,0,.2,-.1c.1,0,.3,-.1,.4,-.3c.2,-.1,.3,-.3,.5,-.6c.2,-.3,.5,-.6,.8,-1.1c.3,-.5,.6,-.7,.9,-.8c.2,0,.5,.1,.7,.3c.2,.2,.4,.6,.5,1.1c.1,.5,.2,1.1,.2,1.8v.3c0,.1,0,.2,0,.3c0,.2,0,.3,0,.5c0,.3,0,.5,-.1,.8c.2,.2,.3,.3,.4,.5c.2,.2,.3,.3,.4,.5v-9h1.6Zm-2.4,2.9c-.2,-.3,-.4,-.6,-.6,-.8c-.2,-.2,-.4,-.4,-.6,-.5c-.2,-.1,-.5,0,-.7,.1c-.2,0,-.5,.3,-.8,.6c0,-.5,-.1,-.9,-.2,-1.2c-.2,-.4,-.5,-.7,-1,-1.1h3.9v2.9ZM492,984.9c-1.6,-1.7,-3.3,-2.6,-5,-2.6c-.7,0,-1.4,.3,-2.1,.9c-.8,.6,-1.2,1.3,-1.2,2c0,.2,.1,.4,.4,.6l.5,.6h-2.2l.8,.9h1.3v8l.8,.9v-8.9h1.5l-.8,-.9h-.9l-.4,-.8c.1,-.6,.4,-1.1,1.2,-1.6c.6,-.5,1.3,-.7,1.9,-.7c.4,0,.8,0,1.2,.1c.4,.1,.8,.3,1.2,.5c.4,.3,.8,.5,1.1,.7c.3,.3,.6,.5,.9,.8l-.2,-.5Zm2.6,2.4l-.9,-.9h-8.1l.9,.9h5.8V992c-.9,-1.9,-1.9,-2.8,-3.1,-2.8c-.6,0,-1,.2,-1.5,.5c-.4,.4,-.6,.9,-.6,1.5c0,1,.6,1.6,1.6,1.6c.4,0,.7,-.1,.9,-.4c.2,-.2,.3,-.6,.3,-.9c0,-.2,-.2,-.6,-.6,-1.1c.1,0,.2,-.1,.3,-.1c.9,0,1.6,.6,2.3,1.8c.4,1.1,.6,2.1,.6,3v.9l.6,.5v-9.2h1.5Zm3.6,-.1c-.4,-.4,-.8,-.6,-1.3,-.6c-.5,0,-1,.2,-1.3,.6c-.2,.2,-.4,.4,-.5,.7c-.1,.2,-.1,.4,-.1,.7c0,.6,.2,1,.6,1.4c.4,.4,.8,.6,1.4,.6c.5,0,.9,-.2,1.2,-.6c.4,-.4,.5,-.8,.5,-1.4c0,-.5,-.2,-1,-.5,-1.4Zm-.7,2.1c-.4,.3,-.7,.5,-1.1,.5c-.4,0,-.5,-.2,-.5,-.7c0,-.2,0,-.4,.1,-.6c.1,-.2,.2,-.4,.3,-.5c.3,-.4,.7,-.5,1,-.5c.4,0,.6,.2,.6,.7c0,.4,-.1,.8,-.4,1.1Zm1.9,6.3c-.5,-.7,-1.2,-1.5,-2,-2.4c-.8,-.9,-1.5,-1.6,-2.2,-2.1V993c.3,.2,.6,.4,1,.6c.4,.3,.7,.6,1.1,.8c.3,.3,.7,.6,1.1,.9c.3,.3,.6,.7,1,1v-.7Zm14.1,-10.7c-1.6,-1.7,-3.3,-2.6,-5.1,-2.6c-.6,0,-1.4,.3,-2.1,.9c-.7,.6,-1.1,1.3,-1.1,2c0,.2,.1,.4,.3,.6l.6,.6h-2.2l.8,.9H506v8l.8,.9v-8.9h1.5l-.9,-.9h-.9l-.3,-.8c0,-.6,.4,-1.1,1.1,-1.6c.7,-.5,1.3,-.7,1.9,-.7c.5,0,.9,0,1.3,.1c.4,.1,.8,.3,1.1,.5c.5,.3,.8,.5,1.2,.7c.3,.3,.6,.5,.8,.8l-.1,-.5Zm2.9,6.7c0,-.6,-.1,-1,-.3,-1.3c-.1,-.3,-.3,-.5,-.6,-.6c.2,-.4,.3,-.8,.3,-1.4c0,-.5,-.1,-.8,-.3,-1H520l-.8,-.9H507.1l.8,.9h3.2c0,.4,-.1,.8,-.4,1.2c-.2,.5,-.5,.7,-.9,.7l-.7,-.5l-.4,.6l.7,.7c.1,.1,.3,.2,.4,.3c.2,.1,.3,.1,.5,.1c.4,0,.7,-.3,1.1,-.9c.2,-.2,.3,-.4,.4,-.7c.1,-.2,.2,-.4,.2,-.7c0,.3,.1,.6,.3,.9c.2,.3,.5,.6,.9,.9h.1c0,.1,.1,.1,.1,.1c.1,0,.1,.1,.2,.1c-.2,.1,-.3,.2,-.4,.3c-.1,.1,-.2,.3,-.3,.4c-.1,.2,-.2,.3,-.3,.5c-.1,.1,-.1,.3,-.2,.5c0,.2,0,.4,0,.5c0,.2,0,.4,.1,.5c.1,.2,.1,.3,.3,.5c.1,.1,.2,.2,.4,.3c.2,0,.3,0,.5,0c.2,0,.5,0,.7,-.2c.2,-.2,.3,-.5,.3,-.7c0,-.2,-.1,-.4,-.3,-.5c-.1,-.2,-.3,-.3,-.5,-.3h-.1q-.1,0,-.2,.1c.3,-1,.7,-1.5,1.4,-1.5c.3,0,.5,.1,.5,.4v4.2c-.2,-.2,-.5,-.3,-.8,-.5c-.3,-.1,-.6,-.2,-.9,-.2h-1.3c-.7,0,-1.2,-.1,-1.6,-.4c-.3,-.3,-.4,-.7,-.4,-1.3c0,0,0,-.1,0,-.2c0,-.1,0,-.2,0,-.3c0,-.1,0,-.2,.1,-.2c0,-.1,0,-.2,0,-.3l-.4,-.5c-.1,.4,-.2,.7,-.2,1c-.1,.3,-.1,.6,-.1,.8c0,.4,.1,.7,.2,1c.1,.3,.2,.6,.4,.9c.2,.2,.4,.4,.7,.6c.3,.1,.6,.2,.9,.2c.1,0,.3,0,.5,0c.2,0,.5,-.1,.8,-.1c.2,-.1,.5,-.1,.7,-.1c.2,0,.4,0,.5,0c.5,0,.8,.1,1,.4c.1,.1,.3,.5,.4,1l.3,.2V993c.3,-1,.7,-1.6,1.4,-1.6c.3,0,.6,.3,.8,.7q-.1,0,-.2,0q-.1,0,-.2,0c-.6,0,-.9,.2,-1,.8c0,.2,.1,.4,.3,.6c.1,.1,.3,.2,.6,.2c.8,-.1,1.3,-.6,1.3,-1.5c0,-.2,-.1,-.4,-.1,-.6c-.1,-.2,-.2,-.3,-.3,-.5c-.1,-.1,-.2,-.2,-.4,-.3c-.1,-.1,-.3,-.1,-.5,-.1c-.7,0,-1.2,.3,-1.6,.9Zm-4,-4.3h2.2l.3,.1c.2,.2,.3,.5,.3,.8c0,.6,-.4,.8,-1.2,.8c-.4,0,-.8,-.1,-1.1,-.5c-.3,-.4,-.5,-.8,-.5,-1.2Zm18.7,-.9h-1.2c.1,-.8,-.2,-1.4,-.7,-1.8c-.5,-.5,-1.1,-.7,-1.9,-.7c-.3,0,-.7,0,-1.3,.1c-.3,0,-.5,0,-.7,.1c-.2,0,-.4,0,-.6,0c-.3,0,-.6,-.1,-.8,-.2c-.4,-.2,-.5,-.5,-.5,-.7q0,-.2,0,-.3c.1,-.1,.1,-.2,.2,-.3v-.3c-.2,0,-.4,.1,-.5,.4c-.1,.2,-.1,.4,-.1,.7c0,.5,.3,1,.9,1.4h-.1c.6,.3,1.1,.5,1.8,.5c.1,0,.3,0,.5,-.1c.2,0,.4,0,.7,0c.3,0,.5,0,.7,-.1c.2,0,.3,0,.5,0c.1,0,.3,0,.4,.1c.2,0,.3,.1,.5,.1c.2,.2,.3,.4,.3,.7c0,.1,0,.2,-.1,.4h-3.6v2.7c-.2,-.2,-.3,-.5,-.5,-.7c-.2,-.2,-.4,-.4,-.6,-.6c-.6,-.6,-1.2,-.9,-1.7,-.9c-.3,0,-.6,0,-.9,.1c-.3,.1,-.6,.3,-.9,.4c-.7,.4,-1.1,.9,-1.1,1.5c0,.1,.1,.3,.2,.4c.1,.2,.3,.3,.4,.3c.1,0,.4,-.1,.6,-.2c.3,-.1,.5,-.2,.6,-.2c.4,0,.5,.2,.5,.5c0,.2,-.1,.4,-.4,.7l-.6,.7l1.2,.3c.4,-.3,.8,-.7,1.2,-1.2c.4,-.4,.8,-.8,1.2,-1.2c.2,.2,.4,.4,.5,.6c.1,.2,.2,.4,.3,.5v2.1c0,2.1,.5,3.2,1.6,3.1c.3,0,.7,-.2,1.1,-.5c.4,-.2,.8,-.6,1.1,-1.1c.3,-.4,.6,-.9,.8,-1.3c.1,-.5,.2,-.9,.2,-1.3c0,-.5,-.1,-.9,-.3,-1.2c-.3,-.4,-.6,-.5,-1.1,-.5c-.3,0,-.6,.1,-.8,.3c-.2,.2,-.3,.5,-.3,.8c0,.3,.1,.5,.3,.7c.2,.2,.5,.3,.7,.3h.3c0,.5,-.3,1,-.9,1.7c-.5,.7,-1,1,-1.4,1c-.3,0,-.5,-.2,-.5,-.6v-6.3H532l-.9,-.9Zm-8.6,3.3c.1,-.2,.1,-.3,0,-.5c0,-.1,-.1,-.3,-.2,-.4c-.1,-.1,-.3,-.2,-.4,-.2c-.2,-.1,-.3,-.1,-.5,-.1c.2,-.5,.8,-.8,1.5,-.8c.1,0,.2,0,.3,.1c.1,0,.2,0,.4,.1c.2,0,.3,.1,.4,.3l-1.5,1.5Z" class="g3_163"/>
<path d="M196.3,992.9c0,0,-.5,-9.9,8.7,-9.3c0,0,6.7,-.4,6.7,9.5m-15.4,-1.6v6.6c0,0,-3.4,.3,-3.9,-3c0,0,-.1,-3.8,3.9,-3.6Zm15.4,0v6.6c0,0,3.3,.3,3.9,-3c0,0,.1,-3.8,-3.9,-3.6Z" class="g4_163"/>
<path d="M185.1,1008.1H834.7" class="g5_163"/>
<path d="M787.1,1206.8c0,0,-4.3,0,-4.3,4.3V1222c0,0,0,4.3,4.3,4.3h30.3c0,0,4.4,0,4.4,-4.3v-10.9c0,0,0,-4.3,-4.4,-4.3Z" class="g6_163"/>
<path d="M773.9,1197.8v37.9m1.4,1h91.5m.9,-1.3v-38m-1.3,-1H774.9" class="g7_163"/>
<path d="M773.9,1236.1v.6h.6m92.6,0h.6v-.6m0,-39.1v-.6h-.6m-92.6,0h-.6v.6" class="g8_163"/>
<image preserveAspectRatio="none" x="700" y="71" width="148" height="122" xlink:href="img/3.png"/>
<path d="M154.1,952.5h713V790.1h-713V952.5Z" class="g9_163"/>
<path d="M154.1,794.8V950.1m4.6,2.4H864.9m2.2,-4.7V792.5m-4.5,-2.4H156.4" class="ga_163"/>
<path d="M154.1,952.5v0m713.1,0v0m0,-162.4v0m-713.1,0v0" class="gb_163"/>
<path d="M153.3,804.5V766.1c0,0,0,-8.6,8.7,-8.6H859.3c0,0,8.6,0,8.6,8.6v39Z" class="gc_163"/>
<path d="M794,782.5c0,0,-.5,-9.9,8.6,-9.3c0,0,6.8,-.4,6.7,9.5m-15.4,-1.6v6.6c0,0,-3.3,.3,-3.9,-3c0,0,-.1,-3.8,3.9,-3.6Zm15.4,0v6.6c0,0,3.4,.3,4,-3c0,0,0,-3.8,-4,-3.6Z" class="gd_163"/>
<path d="M32.1,45.1H9.2m958.3,0h22.9M32.1,1331.3H9.2m958.3,0h22.9M45.1,32.1V9.2m0,1335.1v22.9M954.5,32.1V9.2m0,1335.1v22.9" class="ge_163"/>
<path d="M32.1,45.1H9.2m958.3,0h22.9M32.1,1331.3H9.2m958.3,0h22.9M45.1,32.1V9.2m0,1335.1v22.9M954.5,32.1V9.2m0,1335.1v22.9" class="gf_163"/>
<path d="M27.5,32.1H0m972.1,0h27.5M27.5,1344.3H0m972.1,0h27.5M32.1,27.5V0m0,1348.9v27.5M967.5,27.5V0m0,1348.9v27.5" class="ge_163"/>
<path d="M27.5,32.1H0m972.1,0h27.5M27.5,1344.3H0m972.1,0h27.5M32.1,27.5V0m0,1348.9v27.5M967.5,27.5V0m0,1348.9v27.5" class="gf_163"/>
</svg>