<?xml version="1.0" encoding="UTF-8" standalone="no"?>
<!DOCTYPE svg PUBLIC "-//W3C//DTD SVG 1.1//EN"
"http://www.w3.org/Graphics/SVG/1.1/DTD/svg11.dtd">
<svg viewBox="0 0 999 1376" version="1.1" xmlns="http://www.w3.org/2000/svg" xmlns:xlink="http://www.w3.org/1999/xlink">
<defs>
<clipPath id="c0_257"><path d="M152.6,1245.1V132.1H867.2v1113Z"/></clipPath>
<clipPath id="c1_257"><path d="M188,377.1c-8.7,0,-8.7,-8.7,-8.7,-8.7V240c0,-5.1,3,-7.2,5.5,-8.1H291.2c5.1,2,5.1,8.1,5.1,8.1V368.4c0,8.7,-8.7,8.7,-8.7,8.7Z"/></clipPath>
<clipPath id="c2_257"><path d="M187.1,721.2c-7.8,0,-7.8,-7.6,-7.8,-7.6V583.1c0,-7.7,7.8,-7.7,7.8,-7.7H288.5c7.8,0,7.8,7.7,7.8,7.7V713.6c0,7.6,-7.8,7.6,-7.8,7.6Z"/></clipPath>
<clipPath id="c3_257"><path d="M188,1065.4c-8.7,0,-8.7,-8.7,-8.7,-8.7V928.3c0,-1.5,.3,-2.7,.7,-3.8H295.5c.8,2,.8,3.8,.8,3.8v128.4c0,8.7,-8.7,8.7,-8.7,8.7Z"/></clipPath>
<clipPath id="c4_257"><path d="M188,549.2c-8.7,0,-8.7,-8.7,-8.7,-8.7V412c0,-8.6,8.7,-8.6,8.7,-8.6h99.6c8.7,0,8.7,8.6,8.7,8.6V540.5c0,8.7,-8.7,8.7,-8.7,8.7Z"/></clipPath>
<clipPath id="c5_257"><path d="M188,893.3c-8.7,0,-8.7,-8.6,-8.7,-8.6V756.2c0,-8.7,8.7,-8.7,8.7,-8.7h99.6c8.7,0,8.7,8.7,8.7,8.7V884.7c0,8.6,-8.7,8.6,-8.7,8.6Z"/></clipPath>
<clipPath id="c6_257"><path d="M188,1237.5c-8.7,0,-8.7,-8.7,-8.7,-8.7V1100.3c0,-8.6,8.7,-8.6,8.7,-8.6h99.6c8.7,0,8.7,8.6,8.7,8.6v128.5c0,8.7,-8.7,8.7,-8.7,8.7Z"/></clipPath>
<style type="text/css"><![CDATA[
.g0_257{
fill: #FFF;
}
.g1_257{
fill: none;
stroke: #231F20;
stroke-width: 0.756;
stroke-miterlimit: 3;
}
.g2_257{
fill: #25408F;
}
.g3_257{
fill: #6381B7;
}
.g4_257{
fill: #FFDE2C;
}
.g5_257{
fill: none;
stroke: #231F20;
stroke-width: 1.451;
stroke-miterlimit: 10;
}
.g6_257{
fill: #D2D3D5;
}
.g7_257{
fill: #A8AAAD;
}
.g8_257{
fill: none;
stroke: #231F20;
stroke-width: 0.828;
stroke-miterlimit: 10;
}
.g9_257{
fill: #6CCFF6;
}
.ga_257{
fill: none;
stroke: #231F20;
stroke-width: 0.828;
stroke-linecap: round;
stroke-linejoin: round;
}
.gb_257{
fill: none;
stroke: #231F20;
stroke-width: 1.451;
stroke-linecap: round;
stroke-linejoin: round;
}
.gc_257{
fill: none;
stroke: #FFF;
stroke-width: 1.909;
stroke-miterlimit: 10;
}
.gd_257{
fill: none;
stroke: #000;
stroke-width: 0.381;
stroke-miterlimit: 10;
}
]]></style>
</defs>
<path d="M152.6,1245.1H867.2V132.1H152.6v1113Z" class="g0_257"/>
<image clip-path="url(#c0_257)" preserveAspectRatio="none" x="150" y="130" width="719" height="1117" xlink:href="img/1.jpg"/>
<path d="M395.1,169.6h9.3c.8,0,1.4,.2,1.6,.6c.3,.5,.3,1.1,.3,1.8c-.2,1.3,-.7,2.6,-1.3,3.7c-.7,1.2,-1.5,2.2,-2.4,3.2c-1,.9,-2,1.8,-3.2,2.5c-1.1,.7,-2.3,1.3,-3.5,1.9l-.9,-1.9c1.1,-.4,2.2,-1,3.2,-1.7c1.1,-.6,2,-1.4,2.8,-2.1c.8,-.8,1.5,-1.7,2,-2.6c.6,-.9,.9,-1.9,1,-2.9c.1,-.2,0,-.4,-.1,-.6c-.1,-.1,-.2,-.1,-.5,-.1h-8.3v-1.8Zm11.2,6h5.5v-6.7h2.3v16.9h-2.3v-8.4h-5.5v-1.8Zm-5.1,17.7c-.9,0,-1.5,-.2,-1.9,-.6c-.3,-.3,-.5,-.9,-.5,-1.6v-6.3H401v5.9c0,.3,.1,.5,.2,.6c.1,.1,.3,.2,.7,.2H409c1,0,2,-.1,2.8,-.2c.9,-.1,1.8,-.3,2.7,-.7l.5,1.8c-1.1,.3,-2.1,.5,-3,.7c-.9,.1,-1.9,.2,-3,.2h-7.8Zm35.4,-24.4v6h4.3v1.8h-4.3v3c0,1,-.1,1.8,-.4,2.6c-.4,.8,-1,1.6,-1.8,2.3c.4,.5,.8,1.1,1.1,1.7c.3,.7,.4,1.4,.4,2.1c0,.9,-.2,1.7,-.5,2.4c-.4,.7,-.8,1.3,-1.4,1.8c-.6,.5,-1.3,.9,-2,1.2c-.8,.2,-1.6,.4,-2.5,.4c-.8,0,-1.7,-.2,-2.5,-.4c-.7,-.3,-1.4,-.7,-2,-1.2c-.6,-.5,-1,-1.1,-1.4,-1.8c-.3,-.7,-.5,-1.5,-.5,-2.4c0,-.8,.2,-1.6,.5,-2.3c.4,-.7,.8,-1.3,1.4,-1.8c.6,-.5,1.3,-.9,2,-1.2c.8,-.3,1.7,-.5,2.5,-.5c.6,0,1.3,.1,1.8,.3c.6,.1,1.2,.3,1.7,.6c.6,-.6,.9,-1.2,1.1,-1.8c.2,-.7,.3,-1.4,.3,-2.1V168.9h2.2Zm-4.1,16.7c-.8,-.8,-1.7,-1.2,-3,-1.2c-1.2,0,-2.2,.4,-3,1.2c-.8,.7,-1.1,1.7,-1.1,2.8c0,1.2,.3,2.2,1.1,2.9c.8,.7,1.8,1.1,3,1.1c1.3,0,2.2,-.4,3,-1.1c.8,-.7,1.2,-1.7,1.2,-2.9c0,-1.1,-.4,-2.1,-1.2,-2.8ZM418.6,169.3h9.3c.8,0,1.4,.2,1.6,.6c.3,.5,.4,1.1,.3,1.8c-.3,1.4,-.7,2.7,-1.4,3.9c-.7,1.1,-1.5,2.1,-2.4,3.1c-.9,.9,-1.9,1.7,-3.1,2.4c-1.1,.7,-2.2,1.4,-3.4,1.9l-.9,-1.8c1.1,-.5,2.2,-1.1,3.2,-1.7c1,-.6,1.9,-1.3,2.7,-2.1c.8,-.7,1.4,-1.6,2,-2.5c.5,-.9,.9,-1.9,1.1,-3.1c0,-.2,0,-.4,-.1,-.5c-.2,-.2,-.3,-.2,-.6,-.2h-8.3v-1.8Zm40.6,5.7c-.3,.7,-.8,1.2,-1.3,1.6c-.6,.4,-1.3,.7,-2.1,1c-.8,.2,-1.7,.3,-2.6,.3c-.9,0,-1.8,-.1,-2.6,-.3c-.8,-.2,-1.5,-.6,-2.1,-1c-.6,-.4,-1,-.9,-1.4,-1.6c-.3,-.6,-.5,-1.3,-.5,-2c0,-.8,.2,-1.5,.5,-2.1c.4,-.6,.8,-1.1,1.4,-1.6c.6,-.4,1.3,-.7,2.1,-.9c.8,-.3,1.7,-.4,2.6,-.4c1.9,0,3.5,.4,4.7,1.3c1.2,.9,1.9,2.1,1.9,3.7c0,.7,-.2,1.4,-.6,2Zm-3,-4.4c-.8,-.5,-1.8,-.8,-3,-.8c-1.2,0,-2.2,.3,-3,.8c-.9,.6,-1.3,1.4,-1.3,2.4c0,1,.4,1.8,1.3,2.3c.8,.6,1.8,.9,3,.9c1.2,0,2.2,-.3,3,-.9c.8,-.5,1.2,-1.3,1.2,-2.3c0,-1,-.4,-1.8,-1.2,-2.4Zm-8.7,23c-.7,0,-1.1,-.2,-1.4,-.5c-.2,-.2,-.3,-.6,-.3,-1.1v-4.3h13.3v-2.2H445.8v-1.8h14c.7,0,1.1,.2,1.4,.4c.2,.3,.3,.8,.2,1.3l-.3,3.3c-.1,.3,-.2,.5,-.3,.6c-.2,.1,-.5,.2,-.8,.2H448v2.3h7.8c.8,0,1.8,0,2.8,-.1c1,-.1,2,-.3,3,-.7l.5,1.7c-1,.4,-2,.6,-3,.7c-1,.1,-2.1,.2,-3.1,.2h-8.5Zm16.6,-12.2H442.8v-1.8h21.3v1.8Zm22.9,-5c-.3,.7,-.8,1.3,-1.3,1.7c-.6,.5,-1.2,.9,-2,1.1c-.8,.3,-1.6,.4,-2.4,.4c-.9,0,-1.7,-.1,-2.5,-.4c-.7,-.2,-1.4,-.6,-1.9,-1.1c-.6,-.4,-1,-1,-1.3,-1.7c-.4,-.7,-.5,-1.5,-.5,-2.3c0,-.9,.1,-1.7,.5,-2.4c.3,-.7,.7,-1.2,1.3,-1.7c.5,-.5,1.2,-.8,1.9,-1.1c.8,-.2,1.6,-.3,2.5,-.3c.8,0,1.6,.1,2.4,.3c.8,.3,1.4,.6,2,1.1c.5,.5,1,1,1.3,1.7c.3,.7,.5,1.5,.5,2.4c0,.8,-.2,1.6,-.5,2.3Zm-6.5,15v-7h-7.2v-1.9h11.1c1.3,0,2.6,-.1,3.8,-.3c1.1,-.3,2.2,-.6,3.2,-1.1V169.2h2.2v22.5h-2.2v-8.6c-1.1,.4,-2.2,.7,-3.4,.9c-1.2,.2,-2.4,.4,-3.7,.4h-1.5v7h-2.3Zm3.7,-19.9c-.7,-.8,-1.7,-1.1,-2.9,-1.1c-1.3,0,-2.2,.3,-2.9,1.1c-.7,.7,-1.1,1.6,-1.1,2.6c0,1.2,.4,2.1,1.1,2.7c.7,.6,1.6,1,2.9,1c1.2,0,2.2,-.4,2.9,-1.1c.7,-.7,1,-1.6,1,-2.6c0,-1,-.3,-1.9,-1,-2.6Zm24.8,9.3c-.4,.6,-.8,1.2,-1.3,1.6c-.5,.4,-1.2,.8,-1.9,1c-.7,.2,-1.4,.4,-2.2,.4c-.8,0,-1.6,-.1,-2.3,-.4c-.7,-.2,-1.3,-.5,-1.8,-1c-.6,-.4,-1,-.9,-1.3,-1.5c-.3,-.6,-.5,-1.3,-.5,-2.1c0,-.7,.2,-1.3,.5,-1.9c.3,-.6,.7,-1.2,1.2,-1.6c.6,-.4,1.2,-.8,1.9,-1c.7,-.3,1.5,-.4,2.3,-.4c.8,0,1.6,.1,2.3,.4c.7,.2,1.3,.6,1.9,1c.5,.4,.9,1,1.2,1.6c.3,.6,.4,1.2,.4,1.9c0,.8,-.1,1.4,-.4,2Zm11.4,-2.4h-4.2v8h-2.3V168.9h2.3v7.6h4.2v1.9Zm-17,14.9c-.8,0,-1.4,-.2,-1.8,-.6c-.4,-.3,-.6,-.9,-.6,-1.6v-5.2h2.3v4.8c0,.3,0,.5,.2,.6c.1,.1,.3,.2,.6,.2h7.1c1.1,0,2,-.1,2.9,-.2c.8,-.1,1.7,-.3,2.7,-.7l.5,1.8c-1.1,.3,-2.1,.5,-3,.7c-1,.1,-2,.2,-3,.2h-7.9Zm2.7,-16.8c-.7,-.5,-1.5,-.8,-2.5,-.8c-1,0,-1.8,.3,-2.5,.8c-.7,.6,-1.1,1.3,-1.1,2.3c0,1.1,.4,1.9,1.1,2.4c.7,.5,1.5,.8,2.5,.8c1,0,1.8,-.3,2.5,-.8c.7,-.5,1.1,-1.3,1.1,-2.4c0,-1,-.4,-1.7,-1.1,-2.3Zm4.7,-3.4H496.4v-1.8h5.4c.3,-.4,.4,-.7,.5,-1.1c.1,-.3,.1,-.6,.1,-.9c0,-.2,0,-.3,0,-.4c-.1,-.1,-.1,-.2,-.1,-.3c0,-.1,0,-.2,-.1,-.3c0,-.1,-.1,-.2,-.1,-.3l2.2,-.7c.1,.3,.2,.6,.2,.9c0,.3,.1,.6,.1,.9c-.1,.4,-.1,.8,-.2,1.2c-.1,.3,-.3,.7,-.4,1h6.8v1.8Zm28.9,-.7c0,.4,0,.8,-.1,1.2c-.1,.4,-.1,.8,-.2,1.1c.8,.2,1.6,.3,2.2,.6c.6,.3,1.2,.6,1.7,1c.4,.3,.8,.7,1.2,1c.4,.4,.8,.8,1.3,1.2c.4,.4,.9,.8,1.4,1.2c.4,.5,.9,.9,1.4,1.3l-1.4,1.6c-.9,-.8,-1.8,-1.6,-2.8,-2.5c-.9,-.9,-1.7,-1.6,-2.4,-2.1c-.4,-.3,-.8,-.6,-1.3,-.8c-.5,-.3,-1.2,-.5,-2,-.6c-.3,.5,-.6,1,-1,1.5c-.4,.5,-.9,.9,-1.4,1.3c-.8,.7,-1.6,1.3,-2.6,1.8c-1,.5,-2.1,1,-3.3,1.4l-.7,-2c1,-.3,2,-.7,2.9,-1.2c.9,-.5,1.7,-1,2.3,-1.6c.9,-.7,1.5,-1.5,1.9,-2.4c.4,-.9,.6,-1.9,.6,-3.1v-.9c0,-.2,0,-.5,-.1,-.8c0,-.3,-.1,-.6,-.2,-.9l2.3,-.7c.1,.3,.2,.7,.2,1.1c.1,.4,.1,.7,.1,1.1v1.2Zm10,16H528.4v-1.8h21.3v1.8ZM556.4,175.3h12.8v1.9H556.4v2.6c0,.3,.1,.6,.2,.8c.1,.1,.4,.2,.8,.2h4.9c1.2,0,2.4,0,3.7,-.1c1.3,-.1,2.6,-.3,3.8,-.6l.4,1.7c-1.1,.3,-2.4,.5,-3.8,.6c-1.4,.2,-2.8,.2,-4.3,.2h-5c-1.1,0,-1.9,-.2,-2.3,-.7c-.4,-.4,-.6,-1.1,-.6,-2.1v-9.9h15.3v1.8H556.4v3.6Zm16.3,13.1H551.3v-1.8h21.4v1.8ZM586.6,185.4c-1,.4,-2.1,.6,-3.2,.8c-1.2,.1,-2.3,.2,-3.4,.2h-2.5c-.9,0,-1.5,-.2,-1.9,-.6c-.4,-.4,-.6,-1,-.6,-1.8v-6.7h6.8V172H575v-1.8h9v8.3c-.7,.2,-1.3,.4,-1.9,.4c-.6,.1,-1.2,.2,-1.9,.2h-3v4.8c0,.2,0,.4,.1,.5c.2,.1,.4,.2,.6,.2h2.4c1,0,2,-.1,3,-.2c1,-.2,1.9,-.4,2.8,-.7l.5,1.7Zm2.1,5.7V178.8h-3.8v-1.9h3.8v-7.7h2.2v21.9h-2.2Zm5,-21.9h2.2v22.5h-2.2V169.2ZM619.3,168.9v11c0,.8,-.1,1.7,-.3,2.5c-.3,.9,-.8,1.7,-1.6,2.4c.4,.5,.8,1.1,1.1,1.7c.2,.6,.4,1.3,.4,2.1c0,.8,-.2,1.6,-.5,2.3c-.4,.6,-.9,1.2,-1.4,1.7c-.6,.5,-1.3,.9,-2.1,1.2c-.7,.3,-1.6,.4,-2.4,.4c-.9,0,-1.7,-.1,-2.5,-.4c-.8,-.3,-1.5,-.7,-2,-1.2c-.6,-.5,-1.1,-1.1,-1.4,-1.7c-.4,-.7,-.5,-1.5,-.5,-2.3c0,-.9,.1,-1.6,.5,-2.4c.3,-.7,.8,-1.3,1.4,-1.7c.5,-.5,1.2,-.9,2,-1.2c.8,-.3,1.6,-.4,2.5,-.4c.6,0,1.2,0,1.8,.2c.6,.2,1.1,.4,1.6,.6c.3,-.3,.5,-.6,.7,-.9c.1,-.4,.2,-.7,.3,-1c.1,-.4,.1,-.7,.1,-1c0,-.3,0,-.7,0,-1V168.9h2.3Zm-18.8,1.5h3.8c.2,-.3,.4,-.6,.5,-.9c0,-.3,.1,-.6,.1,-.9c0,-.3,-.1,-.6,-.1,-.8c-.1,-.2,-.1,-.4,-.2,-.6l2.1,-.6c.2,.3,.2,.6,.3,.9c0,.3,0,.6,0,.9c0,.4,0,.7,-.2,1.1c-.1,.3,-.2,.6,-.4,.9h3.1c.7,0,1.2,.2,1.4,.6c.3,.4,.3,.9,.2,1.4c-.1,.8,-.4,1.5,-.7,2.1c-.4,.7,-.7,1.3,-1.2,1.9c.6,.1,1,.3,1.3,.6c.4,.2,.7,.5,1,.7c.4,.5,.7,.9,1.1,1.3c.4,.5,.8,1,1.3,1.5l-1.5,1.3c-.3,-.3,-.5,-.6,-.7,-.8c-.2,-.2,-.4,-.5,-.5,-.7c-.2,-.1,-.4,-.3,-.5,-.5c-.2,-.2,-.4,-.4,-.5,-.6c-.2,-.2,-.3,-.3,-.4,-.4c-.1,-.1,-.3,-.3,-.4,-.4c-.2,-.1,-.4,-.2,-.6,-.3c-.2,-.1,-.4,-.2,-.7,-.3c-.9,1,-2,1.8,-3.2,2.6c-1.3,.8,-2.6,1.6,-4.1,2.2l-.9,-2c2.4,-.9,4.3,-2.1,5.8,-3.4c1.5,-1.3,2.6,-2.7,3.1,-4.3c.1,-.3,.1,-.5,0,-.6c-.1,0,-.2,-.1,-.5,-.1h-7.8v-1.8Zm15,15.3c-.8,-.7,-1.8,-1.1,-3,-1.1c-1.2,0,-2.2,.4,-3,1.1c-.8,.8,-1.2,1.7,-1.2,2.9c0,1.1,.4,2.1,1.2,2.8c.8,.7,1.8,1,3,1c1.2,0,2.2,-.3,3,-1c.8,-.7,1.1,-1.7,1.1,-2.8c0,-1.2,-.3,-2.1,-1.1,-2.9Z" class="g1_257"/>
<path d="M188,231.3c0,0,-8.7,0,-8.7,8.7V368.4c0,0,0,8.7,8.7,8.7h99.6c0,0,8.7,0,8.7,-8.7V240c0,0,0,-8.7,-8.7,-8.7Z" class="g0_257"/>
<image clip-path="url(#c1_257)" preserveAspectRatio="none" x="177" y="232" width="121" height="147" xlink:href="img/2.jpg"/>
<path d="M187.1,575.4c0,0,-7.8,0,-7.8,7.7V713.6c0,0,0,7.6,7.8,7.6H288.5c0,0,7.8,0,7.8,-7.6V583.1c0,0,0,-7.7,-7.8,-7.7Z" class="g0_257"/>
<image clip-path="url(#c2_257)" preserveAspectRatio="none" x="178" y="574" width="120" height="149" xlink:href="img/3.jpg"/>
<path d="M188,919.6c0,0,-8.7,0,-8.7,8.7v128.4c0,0,0,8.7,8.7,8.7h99.6c0,0,8.7,0,8.7,-8.7V928.3c0,0,0,-8.7,-8.7,-8.7Z" class="g0_257"/>
<image clip-path="url(#c3_257)" preserveAspectRatio="none" x="177" y="925" width="121" height="142" xlink:href="img/4.jpg"/>
<path d="M188,403.4c0,0,-8.7,0,-8.7,8.6V540.5c0,0,0,8.7,8.7,8.7h99.6c0,0,8.7,0,8.7,-8.7V412c0,0,0,-8.6,-8.7,-8.6Z" class="g0_257"/>
<image clip-path="url(#c4_257)" preserveAspectRatio="none" x="177" y="402" width="121" height="149" xlink:href="img/5.jpg"/>
<path d="M188,747.5c0,0,-8.7,0,-8.7,8.7V884.7c0,0,0,8.6,8.7,8.6h99.6c0,0,8.7,0,8.7,-8.6V756.2c0,0,0,-8.7,-8.7,-8.7Z" class="g0_257"/>
<image clip-path="url(#c5_257)" preserveAspectRatio="none" x="177" y="746" width="121" height="149" xlink:href="img/6.jpg"/>
<path d="M188,1091.7c0,0,-8.7,0,-8.7,8.6v128.5c0,0,0,8.7,8.7,8.7h99.6c0,0,8.7,0,8.7,-8.7V1100.3c0,0,0,-8.6,-8.7,-8.6Z" class="g0_257"/>
<image clip-path="url(#c6_257)" preserveAspectRatio="none" x="177" y="1090" width="121" height="149" xlink:href="img/7.jpg"/>
<path d="M153.3,126.3v22.2L165,158.7V136.5Z" class="g2_257"/>
<path d="M153.3,109.5v39H851.1c0,0,16.8,0,16.8,-16.8v-5.4c0,0,0,-16.8,-16.8,-16.8Z" class="g3_257"/>
<path d="M207.2,115.7c0,-9.1,-7.9,-16.6,-17.7,-16.6c-9.8,0,-17.7,7.5,-17.7,16.6c0,2.7,.6,5.2,1.8,7.4c1.2,2.4,2.9,4.6,5,6.2c1.2,1,1.6,1.7,1.7,4.3v.6c0,3.3,2.7,5.9,5.9,5.9h6.6c3.2,0,5.8,-2.6,5.8,-5.9v-.6c.2,-2.6,.6,-3.3,1.8,-4.3c2.1,-1.6,3.8,-3.8,5,-6.2c1.2,-2.2,1.8,-4.7,1.8,-7.4Z" class="g4_257"/>
<path d="M207.2,115.7c0,-9.1,-7.9,-16.6,-17.7,-16.6c-9.8,0,-17.7,7.5,-17.7,16.6c0,2.7,.6,5.2,1.8,7.4c1.2,2.4,2.9,4.6,5,6.2c1.2,1,1.6,1.7,1.7,4.3v.6c0,3.3,2.7,5.9,5.9,5.9h6.6c3.2,0,5.8,-2.6,5.8,-5.9v-.6c.2,-2.6,.6,-3.3,1.8,-4.3c2.1,-1.6,3.8,-3.8,5,-6.2c1.2,-2.2,1.8,-4.7,1.8,-7.4Z" class="g5_257"/>
<path d="M194.6,147.4c0,2.8,-2.3,5.1,-5.1,5.1c-2.8,0,-5.1,-2.3,-5.1,-5.1c0,-2.8,2.3,-5.1,5.1,-5.1c2.8,0,5.1,2.3,5.1,5.1Z" class="g0_257"/>
<path d="M194.6,147.4c0,2.8,-2.3,5.1,-5.1,5.1c-2.8,0,-5.1,-2.3,-5.1,-5.1c0,-2.8,2.3,-5.1,5.1,-5.1c2.8,0,5.1,2.3,5.1,5.1Z" class="g5_257"/>
<path d="M182.1,140.2c0,1,.8,1.8,1.8,1.8h11.2c1,0,1.8,-.8,1.8,-1.8v-1.3H182.1Z" class="g0_257"/>
<path d="M182.1,140.2c0,1,.8,1.8,1.8,1.8h11.2c1,0,1.8,-.8,1.8,-1.8v-1.3H182.1v1.3Z" class="g5_257"/>
<path d="M196.9,143.2c0,.8,-.6,1.3,-1.3,1.3H183.4c-.8,0,-1.3,-.5,-1.3,-1.3c0,-.7,.5,-1.3,1.3,-1.3h12.2c.7,0,1.3,.6,1.3,1.3Z" class="g0_257"/>
<path d="M196.9,143.2c0,.8,-.6,1.3,-1.3,1.3H183.4c-.8,0,-1.3,-.5,-1.3,-1.3c0,-.7,.5,-1.3,1.3,-1.3h12.2c.7,0,1.3,.6,1.3,1.3Z" class="g5_257"/>
<path d="M196.9,145.8c0,.7,-.6,1.3,-1.3,1.3H183.4c-.8,0,-1.3,-.6,-1.3,-1.3c0,-.7,.5,-1.3,1.3,-1.3h12.2c.7,0,1.3,.6,1.3,1.3Z" class="g0_257"/>
<path d="M196.9,145.8c0,.7,-.6,1.3,-1.3,1.3H183.4c-.8,0,-1.3,-.6,-1.3,-1.3c0,-.7,.5,-1.3,1.3,-1.3h12.2c.7,0,1.3,.6,1.3,1.3Z" class="g5_257"/>
<path d="M215.5,128.7l8.3,10.4c.6,.7,1.8,.6,2.7,-.2c.9,-.7,1.2,-1.9,.7,-2.6l-8.9,-10.2Z" class="g6_257"/>
<path d="M215.5,128.7l8.3,10.4c.6,.7,1.8,.6,2.7,-.2c.9,-.7,1.2,-1.9,.7,-2.6l-8.9,-10.2l-2.8,2.6Z" class="g5_257"/>
<path d="M217.5,125.1c.5,.6,.3,1.8,-.7,2.6c-.9,.7,-2.1,.8,-2.6,.2c-.6,-.7,-.3,-1.9,.6,-2.6c.9,-.8,2.1,-.9,2.7,-.2Z" class="g7_257"/>
<path d="M217.5,125.1c.5,.6,.3,1.8,-.7,2.6c-.9,.7,-2.1,.8,-2.6,.2c-.6,-.7,-.3,-1.9,.6,-2.6c.9,-.8,2.1,-.9,2.7,-.2Z" class="g5_257"/>
<path d="M212.7,124.7l1.7,2c.3,.3,1,.3,1.5,-.1c.5,-.5,.7,-1.1,.4,-1.5l-1.7,-2Z" class="g0_257"/>
<path d="M212.7,124.7l1.7,2c.3,.3,1,.3,1.5,-.1c.5,-.5,.7,-1.1,.4,-1.5l-1.7,-2l-1.9,1.6Z" class="g8_257"/>
<path d="M214.8,122.9c.4,.5,.2,1.3,-.5,1.8c-.6,.5,-1.4,.6,-1.8,.1c-.4,-.4,-.2,-1.2,.5,-1.7c.6,-.6,1.4,-.6,1.8,-.2Z" class="g0_257"/>
<path d="M214.8,122.9c.4,.5,.2,1.3,-.5,1.8c-.6,.5,-1.4,.6,-1.8,.1c-.4,-.4,-.2,-1.2,.5,-1.7c.6,-.6,1.4,-.6,1.8,-.2Z" class="g8_257"/>
<path d="M216.4,105.4c4.8,5.7,4.1,14.2,-1.7,19c-5.7,4.8,-14.2,4,-19,-1.7c-4.8,-5.7,-4,-14.2,1.7,-19c5.7,-4.8,14.2,-4.1,19,1.7Z" class="g0_257"/>
<path d="M216.4,105.4c4.8,5.7,4.1,14.2,-1.7,19c-5.7,4.8,-14.2,4,-19,-1.7c-4.8,-5.7,-4,-14.2,1.7,-19c5.7,-4.8,14.2,-4.1,19,1.7Z" class="g5_257"/>
<path d="M214,107.4c3.5,4.2,3,10.5,-1.3,14.1c-4.2,3.5,-10.5,2.9,-14,-1.3c-3.5,-4.2,-3,-10.5,1.2,-14c4.2,-3.6,10.5,-3,14.1,1.2Z" class="g9_257"/>
<path d="M214,107.4c3.5,4.2,3,10.5,-1.3,14.1c-4.2,3.5,-10.5,2.9,-14,-1.3c-3.5,-4.2,-3,-10.5,1.2,-14c4.2,-3.6,10.5,-3,14.1,1.2Z" class="g5_257"/>
<path d="M213,110.6l-3.1,3m3.1,-.4l-3.1,3" class="ga_257"/>
<path d="M172.1,99l3.1,3.3m1.1,-5.9l1.2,3.9m-8.1,3l3.7,1.2" class="gb_257"/>
<path d="M185.8,106.1c1.2,1.2,.2,4.3,-2.2,6.7c-2.5,2.5,-5.5,3.5,-6.8,2.3c-1.2,-1.3,-.3,-4.3,2.2,-6.8c2.5,-2.5,5.5,-3.5,6.8,-2.2Z" class="g0_257"/>
<path d="M203.7,107.6c.6,.6,.1,1.9,-.9,3c-1.1,1,-2.4,1.5,-3,.9c-.5,-.5,-.1,-1.8,1,-2.9c1.1,-1.1,2.4,-1.5,2.9,-1Z" class="g0_257"/>
<path d="M32.1,45.1H9.2m958.3,0h22.9M32.1,1331.3H9.2m958.3,0h22.9M45.1,32.1V9.2m0,1335.1v22.9M954.5,32.1V9.2m0,1335.1v22.9" class="gc_257"/>
<path d="M32.1,45.1H9.2m958.3,0h22.9M32.1,1331.3H9.2m958.3,0h22.9M45.1,32.1V9.2m0,1335.1v22.9M954.5,32.1V9.2m0,1335.1v22.9" class="gd_257"/>
<path d="M27.5,32.1H0m972.1,0h27.5M27.5,1344.3H0m972.1,0h27.5M32.1,27.5V0m0,1348.9v27.5M967.5,27.5V0m0,1348.9v27.5" class="gc_257"/>
<path d="M27.5,32.1H0m972.1,0h27.5M27.5,1344.3H0m972.1,0h27.5M32.1,27.5V0m0,1348.9v27.5M967.5,27.5V0m0,1348.9v27.5" class="gd_257"/>
</svg>