<?xml version="1.0" encoding="UTF-8" standalone="no"?>
<!DOCTYPE svg PUBLIC "-//W3C//DTD SVG 1.1//EN"
"http://www.w3.org/Graphics/SVG/1.1/DTD/svg11.dtd">
<svg viewBox="0 0 999 1376" version="1.1" xmlns="http://www.w3.org/2000/svg" xmlns:xlink="http://www.w3.org/1999/xlink">
<defs>
<clipPath id="c0_250"><path d="M32.1,1344.3V32.1H967.5V1344.3Z"/></clipPath>
<clipPath id="c1_250"><path d="M177.8,514.5l-6.5,-2.1l-16.4,-14V441.3h72v73.2Z"/></clipPath>
<clipPath id="c2_250"><path d="M177.8,1095.9l-6.5,-2.1l-16.4,-14v-57.1h72v73.2Z"/></clipPath>
<clipPath id="c3_250"><path d="M764.8,405V392.6h14.5V405Z"/></clipPath>
<clipPath id="c4_250"><path d="M713.4,933.4V712.9H909.2V933.4Z"/></clipPath>
<clipPath id="c5_250"><path d="M707.7,934.8V709.9H913.9V934.8Z"/></clipPath>
<clipPath id="c6_250"><path d="M707.4,933.4V709.6H913.6V933.4Z"/></clipPath>
<clipPath id="c7_250"><path d="M815.3,724.7c-.3,-.1,3.5,-8.3,3.5,-8.3l.8,.6c0,0,-4,7.7,-4.3,7.7Z"/></clipPath>
<clipPath id="c8_250"><path d="M822.8,716.9c0,0,-6.9,-1.1,-7.6,-5.2c-.6,-3.6,1.5,-3.8,2.1,-3.8q.1,0,.1,0l8.3,-12.7l-1.4,-3.1c0,0,-.6,-1.1,.1,-2.1c.1,-.1,.2,-.1,.3,-.1c2.1,0,13,5.5,13,5.5v.2c-.3,.5,-.7,1.1,-1.4,1.6c-.6,.5,-5.1,1.2,-5.1,1.2l-8.4,18.5Z"/></clipPath>
<clipPath id="c9_250"><path d="M822.4,716.6c.2,-.5,.2,-1.8,0,-2.3v-1.4c-1.5,-.5,-2.9,-1.2,-3.7,-2.5c-1.1,.6,-2.1,1.3,-3.1,1.9c1.5,2.1,3.8,3.6,6.8,4.3Zm0,-3.9c2.2,-4.6,4,-9.5,6.1,-14.1c-.8,-.4,-1.8,-1.3,-2.6,-1.4c-2.3,4.4,-4.6,8.7,-7,12.9c.7,1.3,2.1,2,3.5,2.6Zm-7.3,12.1c1,-2.9,2.4,-5.5,3.5,-8.3c-2,-1.6,-3.9,-3.2,-4.4,-6.2v-1.5c0,-2.7,1.9,-3.4,4.6,-3.4c0,0,.1,0,.2,0c1.9,-3.3,4.2,-6.3,6.1,-9.7c-.5,-.8,-1.1,-2.3,-.8,-3.6c.5,1.2,1.6,1.9,2.4,2.9c-.2,.6,-.3,1.1,-.4,1.7c.6,.7,1.3,1.2,2.4,1.4c.4,-.4,.5,-1.2,1.1,-1.5c.9,.4,1.8,.8,3.1,.8c.2,.1,.5,.1,.9,.1c.3,0,.6,0,.8,-.1c.1,0,.2,0,.3,0c.2,0,.4,-.1,.6,-.1c.2,-.1,.3,-.2,.5,-.2c.1,0,.2,.1,.3,.1c-1.3,.7,-2.2,1.8,-4.1,1.8c-.2,0,-.3,0,-.4,0c-.9,3.7,-1.9,7.4,-2.6,11.2c.5,1,1.5,1.7,1.2,3.1c-.4,2.7,-3.8,4.4,-7.2,4.4c-1.2,0,-2.5,-.2,-3.6,-.7c-1,2.1,-2.1,4.1,-3.3,6c0,-.4,.3,-.4,.3,-.8c1,-1.8,1.9,-3.5,2.6,-5.6c-1,1.7,-1.8,3.7,-2.7,5.5c-.2,.4,-.4,.9,-.7,1.3c-.2,.4,-.2,1.1,-.7,1.4Z"/></clipPath>
<clipPath id="ca_250"><path d="M832.8,697c-4.8,0,-13.1,-7.3,-5.5,-8.8h1.2c.2,0,.4,0,.6,0c0,0,.1,0,.1,0q.1,0,.1,0c.3,0,.6,0,1,.1c3.1,.7,8.2,3.8,7.5,7c-.2,1.2,-1.5,1.6,-3.1,1.7h-1.9Z"/></clipPath>
<clipPath id="cb_250"><path d="M125.5,386.7V205.8H858.6V386.7Z"/></clipPath>
<style type="text/css"><![CDATA[
.g0_250{
fill: #FEFCF4;
}
.g1_250{
fill: #FFF;
}
.g2_250{
fill: none;
stroke: #6381B7;
stroke-width: 0.763;
}
.g3_250{
fill: #6381B7;
}
.g4_250{
fill: none;
stroke: #6381B7;
stroke-width: 0.381;
stroke-dasharray: 2,1;
}
.g5_250{
fill: none;
stroke: #6381B7;
stroke-width: 0.381;
}
.g6_250{
fill: #FCE8B0;
}
.g7_250{
fill: #25408F;
}
.g8_250{
fill: #A8AAAD;
}
.g9_250{
fill: none;
stroke: #949698;
stroke-width: 0.549;
}
.ga_250{
fill: none;
stroke: #BCBEC0;
stroke-width: 2.566;
}
.gb_250{
fill: #231F20;
}
.gc_250{
fill: #363637;
}
.gd_250{
fill: #5CC4BE;
}
.ge_250{
fill: #EAD646;
}
.gf_250{
fill: #F7C2D9;
}
.gg_250{
fill: #FDF4F3;
}
.gh_250{
fill: #EC008C;
}
.gi_250{
fill: none;
stroke: #818385;
stroke-width: 0.305;
stroke-dasharray: 3,3;
}
.gj_250{
fill: none;
stroke: #818385;
stroke-width: 0.305;
}
.gk_250{
fill: none;
stroke: #949698;
stroke-width: 0.305;
stroke-dasharray: 4,4;
}
.gl_250{
fill: #6D6F71;
}
.gm_250{
fill: #2E6E51;
}
.gn_250{
fill: none;
stroke: #FFF;
stroke-width: 0.152;
stroke-miterlimit: 1;
}
.go_250{
fill: #BCBEC0;
}
.gp_250{
fill: #EE314A;
}
.gq_250{
fill: #CEEDFB;
}
.gr_250{
fill: #27639D;
}
.gs_250{
fill: none;
stroke: #C3E7F1;
stroke-width: 1.527;
}
.gt_250{
fill: none;
stroke: #FFF;
stroke-width: 1.909;
stroke-miterlimit: 10;
}
.gu_250{
fill: none;
stroke: #000;
stroke-width: 0.381;
stroke-miterlimit: 10;
}
]]></style>
</defs>
<path d="M32.1,1344.3H954.5V32.1H32.1V1344.3Z" class="g0_250"/>
<path clip-path="url(#c0_250)" d="M954.5,1344.3H1877V32.1H954.5V1344.3Z" class="g0_250"/>
<path d="M150.4,410.6c0,0,-18.3,0,-18.3,18.3V984.7c0,0,0,18.4,18.3,18.4H827.5c0,0,18.4,0,18.4,-18.4V410.6Z" class="g1_250"/>
<path d="M150.4,410.6c0,0,-18.3,0,-18.3,18.3V984.7c0,0,0,18.4,18.3,18.4H827.5c0,0,18.4,0,18.4,-18.4V410.6H150.4Z" class="g2_250"/>
<path d="M145.8,1011.6c0,0,-13,0,-13,13v159.5c0,0,0,13,13,13H833.6c0,0,13,0,13,-13V1024.6c0,0,0,-13,-13,-13Z" class="g1_250"/>
<path d="M145.8,1011.6c0,0,-13,0,-13,13v159.5c0,0,0,13,13,13H833.6c0,0,13,0,13,-13V1024.6c0,0,0,-13,-13,-13H145.8Z" class="g2_250"/>
<path d="M414.5,1216.2c0,0,-4.3,0,-4.3,4.3v10.8c0,0,0,4.3,4.3,4.3h30.3c0,0,4.4,0,4.4,-4.3v-10.8c0,0,0,-4.3,-4.4,-4.3Z" class="g3_250"/>
<path d="M401.3,1208.7v34.8m1.4,1H845.2m.9,-1.4v-34.8m-1.3,-1H402.3" class="g4_250"/>
<path d="M401.3,1243.9v.6h.6m443.7,0h.5v-.6m0,-36v-.6h-.5m-443.7,0h-.6v.6" class="g5_250"/>
<path d="M210.4,443.5c0,0,-13,0,-13,13v47.6c0,0,0,13,13,13h602c0,0,13,0,13,-13V456.5c0,0,0,-13,-13,-13Z" class="g6_250"/>
<image clip-path="url(#c1_250)" preserveAspectRatio="none" x="153" y="440" width="75" height="76" xlink:href="img/1.png"/>
<path d="M205.2,509.8c0,0,-26.8,11.3,-51.1,-12.8c0,0,15.2,25.3,49.3,24c0,0,24.7,.3,20.2,-10.2c0,0,1.3,-4.4,-18.4,-1Z" class="g6_250"/>
<path d="M210.4,1050.9c0,0,-13,0,-13,13v21.6c0,0,0,13,13,13h602c0,0,13,0,13,-13v-21.6c0,0,0,-13,-13,-13Z" class="g6_250"/>
<image clip-path="url(#c2_250)" preserveAspectRatio="none" x="153" y="1021" width="75" height="76" xlink:href="img/2.png"/>
<path d="M205.2,1091.2c0,0,-26.8,11.3,-51.1,-12.8c0,0,15.2,25.3,49.3,24c0,0,24.7,.3,20.2,-10.2c0,0,1.3,-4.4,-18.4,-1Z" class="g6_250"/>
<path d="M131.7,384.4v39l11.7,10.3V389.5Z" class="g7_250"/>
<path d="M131.7,384.4v39H829.5c0,0,16.8,0,16.8,-16.8v-5.4c0,0,0,-16.8,-16.8,-16.8Z" class="g3_250"/>
<path d="M781,418c8.2,0,14.8,-6.5,14.8,-14.5c0,-8,-6.6,-14.5,-14.8,-14.5c-8.3,0,-14.9,6.5,-14.9,14.5c0,8,6.6,14.5,14.9,14.5Z" class="g8_250"/>
<path d="M781,418c8.2,0,14.8,-6.5,14.8,-14.5c0,-8,-6.6,-14.5,-14.8,-14.5c-8.3,0,-14.9,6.5,-14.9,14.5c0,8,6.6,14.5,14.9,14.5Z" class="g9_250"/>
<path d="M781,408.9c3,0,5.4,-2.4,5.4,-5.4c0,-2.9,-2.4,-5.3,-5.4,-5.3c-3.1,0,-5.5,2.4,-5.5,5.3c0,3,2.4,5.4,5.5,5.4Z" class="g1_250"/>
<path d="M781,408.9c3,0,5.4,-2.4,5.4,-5.4c0,-2.9,-2.4,-5.3,-5.4,-5.3c-3.1,0,-5.5,2.4,-5.5,5.3c0,3,2.4,5.4,5.5,5.4Z" class="ga_250"/>
<g clip-path="url(#c3_250)" opacity="0.3">
<path d="M766.4,402.8c0,0,-.1,-4.9,3.6,-8.7l7.8,6.7c0,0,-1,1,-1.1,2.7Z" class="g1_250"/>
</g>
<path d="M785.6,403.4c0,0,-3.5,0,-3.5,3.5v8.7c0,0,0,3.5,3.5,3.5H829c0,0,3.5,0,3.5,-3.5v-8.7c0,0,0,-3.5,-3.5,-3.5Z" class="gb_250"/>
<path d="M169.5,394.5c0,-8.3,-6.7,-15.1,-15,-15.1c-8.4,0,-15.1,6.8,-15.1,15.1c0,8.3,6.8,15,15.1,15c.8,0,1.6,0,2.4,-.2l4.5,5.3v-6.7c4.8,-2.5,8.1,-7.6,8.1,-13.4Z" class="g1_250"/>
<path d="M161.8,415.8l-5.1,-6c-.7,.1,-1.5,.2,-2.2,.2c-8.6,0,-15.6,-7,-15.6,-15.5c0,-8.6,7,-15.5,15.6,-15.5c8.5,0,15.5,6.9,15.5,15.5c0,5.7,-3.1,10.9,-8.2,13.6Zm-4.7,-7l3.8,4.5v-5.7l.3,-.2c4.8,-2.5,7.9,-7.4,7.9,-12.9c0,-8.1,-6.6,-14.6,-14.6,-14.6c-8.1,0,-14.6,6.5,-14.6,14.6c0,8,6.5,14.6,14.6,14.6c.7,0,1.5,-.1,2.3,-.2Z" class="gc_250"/>
<path d="M147.4,394c.8,0,1.5,.7,1.5,1.5c0,.8,-.7,1.4,-1.5,1.4c-.7,0,-1.4,-.6,-1.4,-1.4c0,-.8,.7,-1.5,1.4,-1.5Z" class="gd_250"/>
<path d="M147.4,397.4c-1,0,-1.8,-.9,-1.8,-1.9c0,-1.1,.8,-1.9,1.8,-1.9c1.1,0,1.9,.8,1.9,1.9c0,1,-.8,1.9,-1.9,1.9m0,-2.9c-.5,0,-.9,.5,-.9,1c0,.5,.4,1,.9,1c.6,0,1,-.5,1,-1c0,-.5,-.4,-1,-1,-1Z" class="gc_250"/>
<path d="M154.5,394c.8,0,1.4,.7,1.4,1.5c0,.8,-.6,1.4,-1.4,1.4c-.8,0,-1.5,-.6,-1.5,-1.4c0,-.8,.7,-1.5,1.5,-1.5Z" class="gd_250"/>
<path d="M154.5,397.4c-1.1,0,-1.9,-.9,-1.9,-1.9c0,-1.1,.8,-1.9,1.9,-1.9c1,0,1.9,.8,1.9,1.9c0,1,-.9,1.9,-1.9,1.9m0,-2.9c-.6,0,-1,.5,-1,1c0,.5,.4,1,1,1c.5,0,.9,-.5,.9,-1c0,-.5,-.4,-1,-.9,-1Z" class="gc_250"/>
<path d="M161.5,394c.8,0,1.4,.7,1.4,1.5c0,.8,-.6,1.4,-1.4,1.4c-.8,0,-1.5,-.6,-1.5,-1.4c0,-.8,.7,-1.5,1.5,-1.5Z" class="gd_250"/>
<path d="M161.5,397.4c-1.1,0,-1.9,-.9,-1.9,-1.9c0,-1.1,.8,-1.9,1.9,-1.9c1,0,1.9,.8,1.9,1.9c0,1,-.9,1.9,-1.9,1.9m0,-2.9c-.6,0,-1,.5,-1,1c0,.5,.4,1,1,1c.5,0,1,-.5,1,-1c0,-.5,-.5,-1,-1,-1Z" class="gc_250"/>
<path d="M163.4,408.7c0,-9.7,7.9,-17.6,17.6,-17.6c9.7,0,17.6,7.9,17.6,17.6c0,9.7,-7.9,17.6,-17.6,17.6c-.9,0,-1.9,0,-2.8,-.2l-5.3,6.1v-7.8c-5.6,-3,-9.5,-8.9,-9.5,-15.7Z" class="ge_250"/>
<path d="M172.9,432.7c0,0,-.1,0,-.1,-.1c-.2,0,-.3,-.2,-.3,-.4v-7.5c-5.9,-3.2,-9.6,-9.3,-9.6,-16c0,-9.9,8.2,-18.1,18.1,-18.1c10,0,18.1,8.2,18.1,18.1c0,10,-8.1,18.1,-18.1,18.1c-.8,0,-1.7,-.1,-2.6,-.2l-5.1,5.9c-.1,.1,-.2,.2,-.4,.2M181,391.6c-9.4,0,-17.1,7.7,-17.1,17.1c0,6.5,3.5,12.3,9.2,15.3c.2,0,.3,.2,.3,.4V431l4.4,-5.2c.1,-.1,.3,-.2,.5,-.1c.9,.1,1.8,.2,2.7,.2c9.5,0,17.2,-7.7,17.2,-17.2c0,-9.4,-7.7,-17.1,-17.2,-17.1Z" class="gc_250"/>
<path d="M189.2,408.2c.9,0,1.7,.8,1.7,1.7c0,.9,-.8,1.7,-1.7,1.7c-.9,0,-1.7,-.8,-1.7,-1.7c0,-.9,.8,-1.7,1.7,-1.7Z" class="g1_250"/>
<path d="M189.2,412c-1.2,0,-2.1,-.9,-2.1,-2.1c0,-1.2,.9,-2.1,2.1,-2.1c1.2,0,2.1,.9,2.1,2.1c0,1.2,-.9,2.1,-2.1,2.1m0,-3.3c-.7,0,-1.2,.5,-1.2,1.2c0,.7,.5,1.2,1.2,1.2c.7,0,1.2,-.5,1.2,-1.2c0,-.7,-.5,-1.2,-1.2,-1.2Z" class="gc_250"/>
<path d="M181,408.2c.9,0,1.7,.8,1.7,1.7c0,.9,-.8,1.7,-1.7,1.7c-.9,0,-1.7,-.8,-1.7,-1.7c0,-.9,.8,-1.7,1.7,-1.7Z" class="g1_250"/>
<path d="M181,412c-1.2,0,-2.1,-.9,-2.1,-2.1c0,-1.2,.9,-2.1,2.1,-2.1c1.2,0,2.1,.9,2.1,2.1c0,1.2,-.9,2.1,-2.1,2.1m0,-3.3c-.7,0,-1.2,.5,-1.2,1.2c0,.7,.5,1.2,1.2,1.2c.7,0,1.2,-.5,1.2,-1.2c0,-.7,-.5,-1.2,-1.2,-1.2Z" class="gc_250"/>
<path d="M172.8,408.2c.9,0,1.7,.8,1.7,1.7c0,.9,-.8,1.7,-1.7,1.7c-.9,0,-1.7,-.8,-1.7,-1.7c0,-.9,.8,-1.7,1.7,-1.7Z" class="g1_250"/>
<path d="M172.8,412c-1.2,0,-2.1,-.9,-2.1,-2.1c0,-1.2,.9,-2.1,2.1,-2.1c1.2,0,2.1,.9,2.1,2.1c0,1.2,-.9,2.1,-2.1,2.1m0,-3.3c-.7,0,-1.2,.5,-1.2,1.2c0,.7,.5,1.2,1.2,1.2c.7,0,1.2,-.5,1.2,-1.2c0,-.7,-.5,-1.2,-1.2,-1.2Z" class="gc_250"/>
<image clip-path="url(#c4_250)" preserveAspectRatio="none" x="713" y="713" width="196" height="221" xlink:href="img/3.png"/>
<path d="M719.1,718.1l-.5,207.5l182.6,1.5L903,719.3Z" class="gf_250"/>
<image clip-path="url(#c5_250)" preserveAspectRatio="none" x="707" y="710" width="207" height="225" xlink:href="img/4.png"/>
<image clip-path="url(#c6_250)" preserveAspectRatio="none" x="707" y="710" width="207" height="224" xlink:href="img/5.png"/>
<path d="M724.1,714.7l-12,203.7l150.6,9L897,903.8L907.6,725.4Z" class="gg_250"/>
<path d="M863,929l34.5,-25.1l-15.2,-9.5Z" class="gh_250"/>
<path d="M563.7,878.5c14.8,-1,26.7,-6.7,29.1,-14.1m-.5,-7.1c-3.6,-7,-15.5,-12.2,-30.1,-12.8m-7.3,0c-14.9,1,-26.7,6.8,-29.2,14.1m.6,7.2c3.5,6.9,15.5,12.2,30,12.8" class="gi_250"/>
<path d="M593.2,863c.1,-.5,.1,-1,.1,-1.5c0,-.5,0,-1,-.1,-1.4M560.8,844.4c-.5,0,-1,0,-1.5,0c-.5,0,-1,0,-1.5,0m-32.5,15.7c0,.4,-.1,.9,-.1,1.4c0,.5,.1,1,.1,1.5m32.5,15.6c.5,0,1,.1,1.5,.1c.5,0,1,-.1,1.5,-.1" class="gj_250"/>
<path d="M562.6,844.9c0,0,34.6,-83,154.4,-84.6" class="gk_250"/>
<path d="M709.4,755.7l-.9,8.8l11.7,-3.4Z" class="gl_250"/>
<image clip-path="url(#c7_250)" x="815" y="716" width="5" height="9" xlink:href="shade/1.png"/>
<image clip-path="url(#c8_250)" x="814" y="689" width="24" height="28" xlink:href="shade/2.png"/>
<image clip-path="url(#c9_250)" x="814" y="692" width="23" height="33" xlink:href="shade/3.png"/>
<image clip-path="url(#ca_250)" x="819" y="688" width="20" height="10" xlink:href="shade/4.png"/>
<path d="M32.1,179.3H967.5V32.1H32.1V179.3Z" class="gm_250"/>
<path d="M262.3,134H247.1l1.2,1.2h11.8v8.2L258.5,142c.2,-.6,.3,-1.3,.3,-1.9c0,-.8,-.2,-1.6,-.6,-2.2c-.3,-.5,-.6,-.9,-1,-1.2c-.5,-.3,-.9,-.6,-1.4,-.7c-.3,-.1,-.6,-.2,-.9,-.2c-.7,0,-1.3,.2,-2,.7c-.3,.2,-.5,.5,-.7,.8c-.1,.3,-.2,.6,-.2,.9c0,.4,0,.7,.2,.9c.3,.5,.7,.7,1.2,.8c.6,.1,1.1,0,1.5,-.3c.2,-.2,.4,-.4,.6,-.6c.1,-.3,.2,-.5,.2,-.8c0,-.3,-.1,-.6,-.4,-1c.3,-.1,.5,-.1,.7,0c.2,0,.5,.1,.8,.3c.1,.2,.3,.4,.5,.7c.2,.3,.3,.6,.4,.9c.1,.3,.1,.5,.1,.7c0,.6,-.2,1.1,-.5,1.7c-.4,.8,-1.4,1.3,-2.8,1.3c-.5,0,-1.1,-.2,-1.6,-.5c-.6,-.3,-1.1,-.8,-1.5,-1.4c-.5,-.5,-.9,-1.2,-1.2,-2c-.4,-.8,-.7,-1.7,-.9,-2.7l-.7,-.3c.1,1,.3,2,.6,2.9c.2,.9,.5,1.7,.9,2.3c.3,.5,.7,1,1,1.5c.4,.4,.8,.8,1.2,1.1c.4,.3,.8,.6,1.2,.7c.5,.2,.9,.3,1.3,.3c.7,0,1.3,-.2,1.9,-.4c.5,-.3,1,-.7,1.3,-1.2c1.4,.9,2.4,2.4,2.9,4.5v-.1l.4,.3V135.2h2.2L262.3,134Zm5.5,1.2L266.7,134h-1.1c-.4,-.4,-.6,-1,-.7,-1.9l-.5,-.3c0,.2,0,.5,0,.9c.1,.3,.1,.7,.1,1.2c.1,.5,.1,.9,.1,1.3c0,.3,0,.6,0,.9c-.2,-.8,-.5,-1.3,-.9,-1.6c-.4,-.3,-1,-.5,-1.7,-.5h-1.4l1.2,1.2c.3,0,.7,.1,1,.2c.3,.1,.6,.3,.8,.5c.3,.2,.5,.4,.6,.7c.2,.3,.2,.7,.2,1v8.9l1.2,1.2V135.2h2.2Zm13.2,0L279.8,134c-.1,0,-.2,0,-.4,0c-.4,0,-.7,-.2,-.9,-.6c0,-.2,-.1,-.6,-.2,-1.2l-.5,-.5c0,1.1,.1,2.2,.1,3.2c.1,1.1,.1,2.1,.2,3.2H278c-1.5,-2.6,-3.1,-3.9,-4.8,-3.9c-.5,0,-1,.1,-1.5,.3c-.5,.1,-1,.4,-1.5,.7c-.6,.4,-1,.8,-1.3,1.2c-.3,.4,-.5,.9,-.5,1.3c0,.2,.1,.5,.3,.7c.2,.2,.4,.3,.6,.3c.3,0,.5,-.1,.9,-.3c.2,-.1,.4,-.1,.5,-.2c.1,0,.2,0,.4,0c.4,0,.7,.4,.7,1.2c0,.5,-.4,1.1,-1.3,1.9l1.8,.6l4.2,-4.2c.1,.1,.3,.2,.4,.4c.2,.2,.3,.4,.5,.6c.1,.3,.3,.5,.4,.7c0,.3,.1,.5,.1,.6l-.2,6.4l1.3,1.3V135.2h2Zm-8.5,4.2c.1,-.7,-.1,-1.2,-.3,-1.6c-.3,-.5,-.8,-.7,-1.4,-.7c.5,-1.1,1.4,-1.6,2.8,-1.6c.7,0,1.3,.3,1.8,.9l-2.9,3Zm19.8,-4.2L291.1,134H279.4l1.2,1.2H289v6.6c-1.3,-2.6,-2.8,-4,-4.5,-4c-.8,0,-1.5,.3,-2.1,.9c-.6,.5,-.8,1.2,-.8,2c0,1.5,.7,2.2,2.3,2.2c.5,0,.9,-.2,1.2,-.5c.3,-.4,.4,-.8,.4,-1.3c0,-.3,-.3,-.8,-.8,-1.5c.1,-.1,.2,-.1,.4,-.1c1.2,0,2.3,.8,3.3,2.5c.6,1.4,1,2.9,.9,4.2v1.3l.9,.6V135.2h2.1Zm4.6,0L295.7,134h-1.1c-.3,-.4,-.6,-1,-.7,-1.9l-.4,-.3c0,.2,0,.5,0,.9c0,.3,0,.7,.1,1.2c0,.5,0,.9,0,1.3c.1,.3,.1,.6,.1,.9c-.3,-.8,-.6,-1.3,-1,-1.6c-.4,-.3,-1,-.5,-1.7,-.5h-1.4l1.2,1.2c.4,0,.7,.1,1,.2c.4,.1,.6,.3,.9,.5c.2,.2,.4,.4,.6,.7c.1,.3,.2,.7,.2,1v8.9l1.1,1.2V135.2h2.3Zm11.1,0L306.8,134H295l1.2,1.2h8.2v.9c-2.5,.8,-5,2.1,-7.4,3.7l1.6,2.3c1.7,.1,3.1,.7,4.1,1.6c.3,.3,.6,.6,.9,1c.3,.4,.6,.8,.7,1c.2,.3,.4,.7,.6,1.3l.7,.8V135.2H308Zm-3.6,9.4c-1.1,-1.8,-2.7,-3.2,-4.8,-4.1c.8,-.6,1.7,-1.1,2.5,-1.5c.7,-.4,1.5,-.7,2.3,-1v6.6Zm-4.7,1.7c.2,.3,.5,.4,.9,.4c.3,0,.6,-.1,.8,-.4c.3,-.2,.4,-.5,.4,-.8c0,-.4,-.1,-.7,-.4,-.9c-.2,-.3,-.5,-.4,-.8,-.4c-.4,0,-.7,.1,-.9,.4c-.2,.2,-.4,.5,-.4,.9c0,.3,.2,.6,.4,.8Zm29,-11.1L327.5,134c-.1,0,-.2,0,-.4,0c-.4,0,-.7,-.2,-.9,-.6c0,-.2,-.1,-.6,-.2,-1.2l-.5,-.5c0,1.1,.1,2.2,.1,3.2c.1,1.1,.1,2.1,.2,3.2h-.1c-1.5,-2.6,-3.1,-3.9,-4.9,-3.9c-.4,0,-.9,.1,-1.4,.3c-.5,.1,-1,.4,-1.5,.7c-.6,.4,-1,.8,-1.3,1.2c-.3,.4,-.5,.9,-.5,1.3c0,.2,.1,.5,.3,.7c.2,.2,.4,.3,.6,.3c.3,0,.5,-.1,.9,-.3c.2,-.1,.4,-.1,.5,-.2c.1,0,.2,0,.4,0c.4,0,.7,.4,.7,1.2c0,.5,-.4,1.1,-1.3,1.9l1.8,.6l4.2,-4.2c.1,.1,.3,.2,.4,.4c.2,.2,.3,.4,.5,.6c.1,.3,.3,.5,.3,.7c.1,.3,.2,.5,.2,.6l-.2,6.4l1.3,1.3V135.2h2Zm-8.5,4.2c.1,-.7,-.1,-1.2,-.3,-1.6c-.3,-.5,-.8,-.7,-1.4,-.7c.5,-1.1,1.4,-1.6,2.8,-1.6c.7,0,1.3,.3,1.8,.9l-2.9,3Zm20.5,-7.5c-2.3,-2.4,-4.7,-3.6,-7.3,-3.6c-.9,0,-2,.4,-3,1.2c-1.1,.9,-1.6,1.8,-1.6,2.7c0,.4,.1,.7,.4,1l.9,.8h-3.2l1.2,1.2h1.8v11.3l1.2,1.2V135.2h2.1L332,134h-1.3l-.5,-1.1c.1,-.9,.6,-1.6,1.6,-2.3c1,-.7,1.9,-1,2.8,-1c.6,0,1.2,.1,1.8,.2c.6,.2,1.1,.4,1.7,.7c.6,.4,1.1,.7,1.6,1c.4,.4,.9,.7,1.3,1l-.3,-.6Zm3.7,3.3L343.2,134H331.4l1.2,1.2h8.2v.9c-2.5,.8,-5,2.1,-7.4,3.7l1.6,2.3c1.7,.1,3,.7,4.1,1.6c.3,.3,.6,.6,.9,1c.3,.4,.6,.8,.7,1c.2,.3,.3,.7,.6,1.3l.6,.8V135.2h2.5Zm-3.6,9.4c-1.1,-1.8,-2.7,-3.2,-4.9,-4.1c.9,-.6,1.7,-1.1,2.5,-1.5c.8,-.4,1.6,-.7,2.4,-1v6.6Zm-4.7,1.7c.2,.3,.5,.4,.9,.4c.3,0,.6,-.1,.8,-.4c.3,-.2,.4,-.5,.4,-.8c0,-.4,-.1,-.7,-.4,-.9c-.2,-.3,-.5,-.4,-.8,-.4c-.4,0,-.7,.1,-.9,.4c-.3,.2,-.4,.5,-.4,.9c0,.3,.1,.6,.4,.8Zm8.4,-4.6c0,-.5,.1,-.9,.2,-1l-.5,-.5c-.1,.5,-.2,.9,-.3,1.2c0,.4,-.1,.7,-.1,.9c0,.6,.1,1,.4,1.5c.2,.4,.5,.8,.9,1.2c.4,.3,.9,.5,1.4,.7c.6,.2,1.1,.3,1.8,.3c.4,0,.9,0,1.4,0c.5,0,1,0,1.4,.1c.5,0,1,.1,1.5,.3c.4,.1,.8,.3,1.2,.6l1.2,1.2v-13h2L355.8,134c-.7,-.1,-1.1,-.6,-1.2,-1.5l-.7,-.6l.2,5.3H354c-.2,-.5,-.6,-1.2,-1.2,-2c-.7,-.8,-1.3,-1.2,-1.8,-1.2c-1.2,0,-2.2,.8,-3,2.4c-.1,-.7,-.4,-1.2,-1,-1.7c-.5,-.5,-1.1,-.7,-1.8,-.7h-2.5l1.2,1.2c.1,0,.2,0,.3,0h.3c1.4,0,2.3,.5,2.7,1.5c-.2,.1,-.5,.2,-.8,.4c-.2,.2,-.5,.4,-.6,.7c-.2,.2,-.4,.5,-.5,.8c-.1,.2,-.2,.5,-.2,.8c0,.4,.2,.8,.5,1.2c.2,.3,.6,.5,1,.5c1,0,1.6,-.5,2,-1.5c.1,.5,.4,.9,.7,1.1c.4,.3,.7,.4,1.1,.4c.2,0,.4,-.1,.6,-.2c.2,-.1,.4,-.2,.6,-.4c.1,-.2,.2,-.4,.3,-.6c.1,-.2,.1,-.5,.1,-.7c0,-.6,-.6,-1.3,-1.8,-2.2c0,-.3,.1,-.6,.4,-.7c.3,-.2,.6,-.3,.9,-.3c.5,0,1,.3,1.5,1c.6,.8,.9,1.4,.9,1.9l-.1,7.2c-.1,-.2,-.3,-.4,-.5,-.6c-.2,-.2,-.4,-.3,-.6,-.5c-.2,-.1,-.4,-.2,-.6,-.3c-.1,-.1,-.3,-.2,-.4,-.3c-.2,0,-.5,-.1,-.8,-.2c-.4,-.1,-.7,-.1,-1,-.2c-.4,0,-.7,-.1,-1,-.1c-.3,0,-.6,0,-.8,0c-2.4,0,-3.6,-.8,-3.6,-2.2ZM363.2,134h-7.9l1.2,1.2h3.9c-1.7,2,-2.5,4,-2.5,6.1c0,1.5,.3,2.8,.9,3.9c.8,1.4,1.8,2.1,3.2,2.1c.3,0,.6,0,.9,-.1c.2,-.1,.5,-.2,.7,-.4c.2,-.2,.3,-.4,.4,-.7c.1,-.2,.2,-.5,.2,-.8c0,-.4,-.1,-.9,-.4,-1.2c-.3,-.3,-.7,-.5,-1.1,-.5c-.3,0,-.7,.2,-1,.4c-.3,.3,-.4,.6,-.4,1c0,.2,0,.4,.2,.7c.1,.2,.3,.4,.5,.6c-.7,.2,-1.4,-.2,-2.2,-1.3c-.4,-.7,-.7,-1.5,-.7,-2.3c0,-1,.1,-1.9,.3,-2.7c.2,-.7,.6,-1.4,1,-2.1c.4,-.7,1,-1.3,1.6,-1.7c.7,-.5,1.5,-.8,2.4,-1L363.2,134Zm11.2,0h-12l1.2,1.2c.5,.6,.8,1,1.1,1.2c.2,.2,.5,.3,.8,.4c.3,.2,.7,.3,1.1,.4c.8,.3,1.4,.5,1.6,.8c.5,.4,.7,1.1,.7,2.2c-.2,-.2,-.5,-.3,-.9,-.3c-.8,0,-1.3,.2,-1.8,.5c-.5,.4,-.7,1,-.7,1.6c0,.6,.2,1.1,.6,1.5c.4,.4,.8,.5,1.4,.5c.3,0,.7,0,1,-.2c.4,-.1,.8,-.5,1.1,-.9c1.6,.5,2.7,2,3.4,4.4l.4,.5V135.2h2.2L374.4,134Zm-2.1,9.8c-.3,-.4,-.6,-.8,-.9,-1.2c-.4,-.4,-.8,-.8,-1.2,-1.2c0,-.1,0,-.2,0,-.3v-.3c0,-1.1,-.4,-2.1,-1.1,-3.1c-.5,-.7,-1.4,-1.5,-2.6,-2.5h5.8v8.6Zm14.6,-8.6L385.7,134H373.9l1.2,1.2h8.2v.9c-2.5,.8,-5,2.1,-7.4,3.7l1.6,2.3c1.7,.1,3,.7,4.1,1.6c.3,.3,.6,.6,.9,1c.3,.4,.6,.8,.7,1c.2,.3,.3,.7,.6,1.3l.6,.8V135.2h2.5Zm-3.6,9.4c-1.1,-1.8,-2.7,-3.2,-4.9,-4.1c.9,-.6,1.7,-1.1,2.5,-1.5c.8,-.4,1.6,-.7,2.4,-1v6.6Zm-4.7,1.7c.2,.3,.5,.4,.9,.4c.3,0,.6,-.1,.8,-.4c.3,-.2,.4,-.5,.4,-.8c0,-.4,-.1,-.7,-.4,-.9c-.2,-.3,-.5,-.4,-.8,-.4c-.4,0,-.7,.1,-.9,.4c-.3,.2,-.4,.5,-.4,.9c0,.3,.1,.6,.4,.8Zm27.2,-11.1L404.6,134H392.8l1.2,1.2h8.1v.9c-2.5,.8,-4.9,2.1,-7.3,3.7l1.6,2.3c1.6,.1,3,.7,4,1.6c.3,.3,.6,.6,1,1c.3,.4,.5,.8,.7,1.2c.2,.3,.3,.5,.4,.7c0,.1,.1,.2,.1,.4l.7,.8V135.2h2.5Zm-3.7,9.4c-1,-1.8,-2.6,-3.2,-4.8,-4.1c.9,-.6,1.7,-1.1,2.5,-1.5c.8,-.4,1.6,-.7,2.3,-1v6.6ZM411.5,134h-7.9l1.2,1.2h4c-1.7,2,-2.6,4,-2.6,6.1c0,1.5,.3,2.8,1,3.9c.7,1.4,1.8,2.1,3.2,2.1c.3,0,.5,0,.8,-.1c.3,-.1,.5,-.2,.7,-.4c.2,-.2,.4,-.4,.5,-.7c.1,-.2,.1,-.5,.1,-.8c0,-.4,-.1,-.9,-.4,-1.2c-.3,-.3,-.6,-.5,-1,-.5c-.4,0,-.7,.2,-1,.4c-.3,.3,-.5,.6,-.5,1c0,.2,.1,.4,.2,.7c.1,.2,.3,.4,.6,.6c-.7,.2,-1.5,-.2,-2.3,-1.3c-.4,-.7,-.6,-1.5,-.6,-2.3c0,-1,.1,-1.9,.3,-2.7c.2,-.7,.5,-1.4,.9,-2.1c.5,-.7,1,-1.3,1.7,-1.7c.6,-.5,1.4,-.8,2.3,-1L411.5,134Zm12.4,1.2L422.7,134H410.9l1.3,1.2h1.2v7.1L415,144c.6,-1.1,1.3,-2.1,2.1,-2.9c.9,-.9,1.9,-1.5,2.9,-1.9c-.2,1,-.4,2.1,-.4,3.1c0,.6,.1,1.3,.2,2.2c.1,.8,.3,1.8,.6,3l.8,.4c-.3,-1.6,-.5,-2.8,-.5,-3.7c0,-.9,.2,-1.8,.5,-2.8c.2,-1,.7,-2,1.2,-3l-2,-1.5c-.4,.1,-.8,.3,-1.3,.6c-.5,.2,-1,.5,-1.5,.8c-.5,.4,-1,.7,-1.5,1.2c-.5,.4,-1,.8,-1.4,1.3v-5.6h9.2Zm5.2,0L427.9,134h-1.1c0,-.2,.1,-.3,.1,-.5c0,-.1,0,-.3,0,-.4c0,-1.9,-1.2,-2.8,-3.7,-2.8c-.1,0,-.3,0,-.6,0c-.2,0,-.5,.1,-.8,.1c-.3,.1,-.6,.1,-.9,.1c-.2,0,-.4,0,-.6,0c-1.8,0,-2.7,-.5,-2.7,-1.5c0,-.4,.2,-.7,.5,-.9l-.5,-.4c-.3,.3,-.4,.6,-.5,.9c-.2,.3,-.2,.5,-.2,.7c0,1,.5,1.8,1.7,2.3c.8,.3,1.8,.5,3,.5c.3,0,.6,0,.9,-.1c.3,0,.7,0,1,0c1.5,0,2.3,.4,2.3,1.2c-.1,.2,-.2,.5,-.3,.8h-3.2l1.1,1.2h2.1v11.5l1.2,1.3V135.2h2.4Zm12.6,0L440.5,134H427.3l1.2,1.2h9.8v3.3c-.5,-1.3,-1.2,-2,-2.2,-2c-.4,0,-.7,.2,-1,.5c-.3,.3,-.5,.6,-.5,1c-.8,-1,-1.7,-1.6,-2.8,-1.6c-.8,0,-1.4,.4,-1.9,1.2c-.5,.7,-.7,1.4,-.7,2.3c0,.5,.1,1,.2,1.4c.2,.4,.4,.8,.8,1.1c.3,.3,.6,.5,1.1,.7c.4,.1,.9,.2,1.4,.2c.6,-.1,1.1,-.2,1.4,-.5c.3,-.3,.5,-.7,.5,-1.2c0,-1.1,-.5,-1.7,-1.6,-1.7c-.4,0,-.7,.1,-1,.3c-.2,.3,-.4,.6,-.4,1c0,.2,.1,.6,.4,1c-1.2,-.2,-1.7,-.8,-1.7,-1.7c0,-.3,0,-.6,.2,-.9c.1,-.3,.2,-.5,.4,-.7c.3,-.2,.5,-.4,.8,-.5c.2,-.1,.5,-.2,.8,-.2c.7,0,1.3,.2,1.8,.6c.5,.4,.9,1,1,1.6l.5,-.2c-.1,-.3,-.1,-.5,-.1,-.7c0,-.9,.3,-1.3,1,-1.3c.4,0,.8,.2,1.1,.5c.3,.3,.5,.7,.5,1.1v6.9l1.2,1.1V135.2h2.2Zm6,-1.2h-8l1.2,1.2h4c-1.7,2,-2.5,4,-2.5,6.1c0,1.5,.3,2.8,.9,3.9c.7,1.4,1.8,2.1,3.2,2.1c.3,0,.6,0,.8,-.1c.3,-.1,.5,-.2,.7,-.4c.2,-.2,.4,-.4,.5,-.7c.1,-.2,.2,-.5,.2,-.8c0,-.4,-.2,-.9,-.5,-1.2c-.2,-.3,-.6,-.5,-1,-.5c-.4,0,-.7,.2,-1,.4c-.3,.3,-.5,.6,-.5,1c0,.2,.1,.4,.2,.7c.1,.2,.3,.4,.6,.6c-.7,.2,-1.5,-.2,-2.2,-1.3c-.5,-.7,-.7,-1.5,-.7,-2.3c0,-1,.1,-1.9,.3,-2.7c.2,-.7,.5,-1.4,.9,-2.1c.5,-.7,1.1,-1.3,1.7,-1.7c.7,-.5,1.4,-.8,2.3,-1L447.7,134Zm13.5,0H446.9l1.3,1.2h14.2L461.2,134Zm-.6,5.6c-.2,-.6,-.5,-1.2,-.9,-1.7c-.5,-.5,-1,-.9,-1.5,-1.1c-.6,-.3,-1.2,-.5,-1.8,-.5c-.8,0,-1.5,.3,-2,.7c-.6,.5,-.9,1.1,-.9,1.9c0,.6,.2,1.2,.5,1.6c.4,.5,.9,.7,1.5,.7c1.3,0,1.9,-.6,1.9,-1.7c0,-.5,-.1,-1,-.5,-1.4c.4,-.1,.7,-.2,.9,-.2c.6,0,1.1,.3,1.6,.9c.4,.6,.5,1.1,.5,1.8c0,.8,-.3,1.6,-1,2.3c-.8,.6,-1.6,1,-2.5,1c-1.7,0,-3.2,-.9,-4.4,-2.8c-.3,-.3,-.7,-1,-1.1,-1.8c-.4,-.9,-.9,-1.9,-1.4,-3.1l-.6,-.2c1.8,6.5,4.3,9.8,7.5,9.8c1.2,0,2.2,-.5,3.2,-1.3c.4,-.4,.7,-.8,1,-1.4c.2,-.5,.3,-1,.3,-1.6c0,-.7,-.1,-1.3,-.3,-1.9ZM480.4,134H468.3l1.2,1.2h4.2c.6,.4,.8,.7,.8,1c-.7,0,-1.3,.3,-1.9,.8c-.6,.5,-.9,1.1,-.9,1.8c0,.4,.2,.7,.5,.9c.3,.2,.6,.3,1,.3c.5,0,1.1,-.2,1.6,-.7c.4,-.5,.7,-1,.7,-1.6c.1,0,.2,-.1,.3,-.1c.2,0,.3,0,.5,0c.1,0,.3,.1,.5,.2c.2,.1,.4,.2,.5,.4c.2,.2,.3,.4,.4,.7c0,.2,.1,.5,.1,.7c0,.8,-.5,1.5,-1.4,2c-.7,.3,-1.6,.5,-2.5,.4c-1.2,-.1,-2.4,-.4,-3.4,-1l1.5,3c.9,.2,1.7,.5,2.6,.9c.9,.3,1.7,.7,2.5,1.2c.9,.5,1.6,1,2.3,1.5c.7,.6,1.3,1.2,1.9,1.9l-.3,-1.3c-1,-1.1,-2,-2,-3,-2.8c-.9,-.8,-1.7,-1.4,-2.6,-1.9c1.3,-.3,2.1,-.7,2.7,-1.2c.8,-.6,1.2,-1.4,1.2,-2.4c0,-1,-.3,-1.8,-1,-2.5c-.4,-.5,-1.2,-.9,-2.4,-1.3c-.1,-.2,-.2,-.3,-.3,-.5c-.1,-.1,-.3,-.2,-.4,-.4h6.4L480.4,134Zm6.7,0h-8l1.2,1.2h4c-1.7,2,-2.5,4,-2.5,6.1c0,1.5,.3,2.8,.9,3.9c.8,1.4,1.8,2.1,3.2,2.1c.3,0,.6,0,.8,-.1c.3,-.1,.5,-.2,.7,-.4c.2,-.2,.4,-.4,.5,-.7c.1,-.2,.2,-.5,.2,-.8c0,-.4,-.2,-.9,-.4,-1.2c-.3,-.3,-.7,-.5,-1.1,-.5c-.3,0,-.7,.2,-1,.4c-.3,.3,-.4,.6,-.4,1c0,.2,0,.4,.1,.7c.2,.2,.4,.4,.6,.6c-.7,.2,-1.5,-.2,-2.2,-1.3c-.5,-.7,-.7,-1.5,-.7,-2.3c0,-1,.1,-1.9,.3,-2.7c.2,-.7,.5,-1.4,1,-2.1c.4,-.7,1,-1.3,1.6,-1.7c.7,-.5,1.5,-.8,2.4,-1L487.1,134Zm11.7,1.2L497.6,134H486.5c.6,1,1.7,1.7,3.3,2.2c.7,.2,1.2,.4,1.6,.6c.4,.2,.7,.4,.9,.6c-.6,.4,-1.1,.8,-1.8,1.4c-.6,.5,-1.2,1.1,-1.9,1.7l1.6,2.1c1.5,.1,2.7,.5,3.6,1.2c.6,.5,1.1,1.2,1.7,2.3c.6,1,1,1.6,1.4,1.8V135.2h1.9Zm-3.1,9.5h-.1c-1,-1.7,-2.5,-2.9,-4.5,-3.6c.5,-.5,1,-1.1,1.5,-1.6c.5,-.5,1,-.9,1.5,-1.4c-.6,-.7,-1.2,-1.3,-1.7,-1.8c-.5,-.5,-.9,-.9,-1.3,-1.1h4.6v9.5Zm-4.7,2c.3,.2,.6,.3,.9,.3c.3,0,.6,-.1,.9,-.3c.2,-.3,.3,-.6,.3,-.9c0,-.3,-.1,-.6,-.3,-.9c-.3,-.2,-.6,-.3,-.9,-.3c-.3,0,-.6,.1,-.9,.3c-.2,.3,-.3,.6,-.3,.9c0,.3,.1,.6,.3,.9ZM505,134h-7.9l1.2,1.2h4c-1.7,2,-2.6,4,-2.6,6.1c0,1.5,.4,2.8,1,3.9c.7,1.4,1.8,2.1,3.2,2.1c.3,0,.6,0,.8,-.1c.3,-.1,.5,-.2,.7,-.4c.2,-.2,.4,-.4,.5,-.7c.1,-.2,.2,-.5,.2,-.8c0,-.4,-.2,-.9,-.5,-1.2c-.3,-.3,-.6,-.5,-1,-.5c-.4,0,-.7,.2,-1,.4c-.3,.3,-.5,.6,-.5,1c0,.2,.1,.4,.2,.7c.1,.2,.3,.4,.6,.6c-.7,.2,-1.5,-.2,-2.3,-1.3c-.4,-.7,-.6,-1.5,-.6,-2.3c0,-1,.1,-1.9,.3,-2.7c.2,-.7,.5,-1.4,.9,-2.1c.5,-.7,1,-1.3,1.7,-1.7c.6,-.5,1.4,-.8,2.3,-1L505,134Zm12.5,14.7c-.5,-.5,-.9,-1,-1.3,-1.4c-.5,-.4,-.8,-.8,-1.2,-1c-.2,-.2,-.6,-.5,-1.1,-.8c-.5,-.3,-1.1,-.6,-1.8,-1c.6,-.3,1.1,-.6,1.5,-.8c.4,-.3,.7,-.5,1,-.8c.9,-.7,1.3,-1.5,1.3,-2.5c0,-.9,-.2,-1.7,-.7,-2.4c-.6,-.7,-1.4,-1.1,-2.5,-1.1c-.2,0,-.5,0,-.8,.1c-.2,0,-.5,.1,-.8,.1c-1.3,0,-2.3,-.7,-2.9,-1.9H517L515.8,134H504.3l1.2,1.2h1.6v5.2c0,.2,.1,.5,.2,.6c.1,.2,.2,.4,.4,.5c.2,.2,.4,.3,.6,.4c.2,.1,.4,.1,.7,.1c.3,0,.7,-.1,1.1,-.3c.4,-.2,.9,-.4,1.3,-.7c1,-.8,1.4,-1.7,1.3,-2.6c1.3,-.2,1.9,.2,2,1.2c0,1.2,-.7,2.2,-2,2.9c-.5,.2,-1.1,.4,-1.7,.6c-.6,.1,-1.2,.2,-1.9,.2c-.3,0,-.6,-.1,-.8,-.1c-.3,-.1,-.6,-.1,-1,-.2l1.2,2.2c1.8,.2,3.4,.6,5,1.3c1.5,.8,2.9,1.8,4.1,3.1l-.1,-.9Zm-6.6,-9.5c-.2,.3,-.3,.6,-.6,.8c-.2,.3,-.5,.5,-.8,.7c-.3,.1,-.5,.2,-.8,.2c-.3,0,-.4,-.2,-.4,-.7v-3.6c.7,.9,1.6,1.5,2.8,1.8c0,.3,-.1,.5,-.2,.8Z" class="gn_250"/>
<g clip-path="url(#c0_250)">
<path d="M1877,177.2H32.1v-5.4H768.7c43.1,0,53,-37.9,115.3,-37.9h993Z" class="go_250"/>
<path d="M1877,183.7H32.1v-9.8H768.7c43.1,0,53,-33.6,115.3,-33.6h993Z" class="gp_250"/>
</g>
<image clip-path="url(#cb_250)" preserveAspectRatio="none" x="125" y="206" width="734" height="181" xlink:href="img/6.png"/>
<path d="M144.6,231.3c0,0,-13,0,-13,13v117c0,0,0,13,13,13H833.1c0,0,13,0,13,-13v-130Z" class="gq_250"/>
<path d="M147.7,294.1l54.1,40.8l54.1,-40.8V230h8.7V211.9H155.8c-6.5,.4,-7.7,3.9,-8.2,8.4Z" class="gr_250"/>
<path d="M274,220.3c-.3,-4.7,-4.2,-8.4,-9,-8.4c-4.8,0,-8.7,3.7,-9,8.4h-.1V230h18.2v-9.7Z" class="gb_250"/>
<path d="M255.9,230.6H846.1" class="gs_250"/>
<path d="M32.1,45.1H9.2m958.3,0h22.9M32.1,1331.3H9.2m958.3,0h22.9M45.1,32.1V9.2m0,1335.1v22.9M954.5,32.1V9.2m0,1335.1v22.9" class="gt_250"/>
<path d="M32.1,45.1H9.2m958.3,0h22.9M32.1,1331.3H9.2m958.3,0h22.9M45.1,32.1V9.2m0,1335.1v22.9M954.5,32.1V9.2m0,1335.1v22.9" class="gu_250"/>
<path d="M27.5,32.1H0m972.1,0h27.5M27.5,1344.3H0m972.1,0h27.5M32.1,27.5V0m0,1348.9v27.5M967.5,27.5V0m0,1348.9v27.5" class="gt_250"/>
<path d="M27.5,32.1H0m972.1,0h27.5M27.5,1344.3H0m972.1,0h27.5M32.1,27.5V0m0,1348.9v27.5M967.5,27.5V0m0,1348.9v27.5" class="gu_250"/>
</svg>