<?xml version="1.0" encoding="UTF-8" standalone="no"?>
<!DOCTYPE svg PUBLIC "-//W3C//DTD SVG 1.1//EN"
"http://www.w3.org/Graphics/SVG/1.1/DTD/svg11.dtd">
<svg viewBox="0 0 999 1376" version="1.1" xmlns="http://www.w3.org/2000/svg" xmlns:xlink="http://www.w3.org/1999/xlink">
<defs>
<clipPath id="c0_281"><path d="M153.3,1246V133H867.9V1246Z"/></clipPath>
<style type="text/css"><![CDATA[
.g0_281{
fill: #FFF;
}
.g1_281{
fill: none;
stroke: #231F20;
stroke-width: 0.756;
stroke-miterlimit: 3;
}
.g2_281{
fill: #25408F;
}
.g3_281{
fill: #6381B7;
}
.g4_281{
fill: #FFDE2C;
}
.g5_281{
fill: none;
stroke: #231F20;
stroke-width: 1.451;
stroke-miterlimit: 10;
}
.g6_281{
fill: #D2D3D5;
}
.g7_281{
fill: #A8AAAD;
}
.g8_281{
fill: none;
stroke: #231F20;
stroke-width: 0.828;
stroke-miterlimit: 10;
}
.g9_281{
fill: #6CCFF6;
}
.ga_281{
fill: none;
stroke: #231F20;
stroke-width: 0.828;
stroke-linecap: round;
stroke-linejoin: round;
}
.gb_281{
fill: none;
stroke: #231F20;
stroke-width: 1.451;
stroke-linecap: round;
stroke-linejoin: round;
}
.gc_281{
fill: none;
stroke: #FFF;
stroke-width: 1.909;
stroke-miterlimit: 10;
}
.gd_281{
fill: none;
stroke: #000;
stroke-width: 0.381;
stroke-miterlimit: 10;
}
]]></style>
</defs>
<path d="M153.3,1246H867.9V133H153.3V1246Z" class="g0_281"/>
<image clip-path="url(#c0_281)" preserveAspectRatio="none" x="151" y="131" width="719" height="1117" xlink:href="img/1.jpg"/>
<path d="M432.5,189.9v-4.8h-3.6v-1.8h3.8c-.3,-.5,-.5,-1.1,-.7,-1.7c-.1,-.5,-.1,-1.1,-.1,-1.7v-3.8h2.2V180c0,.6,0,1.2,.1,1.8c.1,.5,.3,1,.6,1.5h5.1c.2,-.5,.4,-1.1,.5,-1.6c.1,-.6,.2,-1.2,.2,-1.8v-3.8h2.1v3.7c0,.6,0,1.2,-.1,1.7c-.1,.6,-.3,1.2,-.7,1.8h3.9v1.8h-3.7v4.8h6v1.9H426.8v-1.9h5.7Zm-3.4,-17h16.4v1.9H429.1v-1.9Zm5.6,17H440v-4.8h-5.3v4.8Zm31.2,-17.8c.3,0,.6,.1,.7,.3c.2,.1,.4,.3,.4,.5c.1,.2,.1,.4,0,.6c0,.2,-.1,.4,-.2,.5c-.5,.7,-1.1,1.3,-1.7,1.8c-.6,.6,-1.2,1.2,-1.9,1.6c.5,.1,1,.2,1.4,.4c.4,.1,.7,.3,1.1,.5c.4,.2,.9,.5,1.5,.9c.6,.4,1.2,.8,1.8,1.2l-1.1,1.7c-.5,-.4,-1.1,-.8,-1.7,-1.2c-.7,-.4,-1.3,-.8,-1.8,-1.1c-.4,-.2,-.8,-.4,-1.3,-.6c-.5,-.2,-1.2,-.3,-2,-.4c-1.3,.8,-2.8,1.4,-4.3,2c-1.5,.5,-3.1,1,-4.7,1.3l-.5,-1.9c1.5,-.4,2.8,-.7,3.9,-1.1c1.2,-.4,2.3,-.8,3.2,-1.3c1,-.5,1.9,-1,2.8,-1.7c.9,-.6,1.8,-1.3,2.7,-2.2h-11v-1.8h12.7Zm-6.3,18.8v-5.1h-9.8V184h21.3v1.8h-9.2v5.1h-2.3Zm-4.4,5.4c-.8,0,-1.4,-.2,-1.8,-.5c-.4,-.4,-.6,-.9,-.6,-1.6v-5.5h2.3v5c0,.3,0,.5,.1,.6c.1,.2,.3,.2,.7,.2H463c1.1,0,2,0,2.9,-.2c.8,-.1,1.7,-.3,2.6,-.6l.5,1.7c-1,.4,-2,.6,-2.9,.7c-1,.1,-2,.2,-3,.2h-7.9Zm38.8,-12H472.7v-1.8h15.1c.1,-.6,.2,-1.2,.3,-1.9c.1,-.6,.2,-1.3,.3,-2c.1,-.7,.1,-1.4,.1,-2.1c.1,-.6,.1,-1.3,.1,-1.8c0,-.3,-.1,-.5,-.2,-.6c-.1,-.1,-.3,-.2,-.5,-.2H475.5v-1.8h13c.8,0,1.4,.2,1.7,.5c.4,.3,.6,.8,.6,1.5c0,.6,0,1.2,0,1.9c-.1,.8,-.1,1.5,-.2,2.2c-.1,.7,-.2,1.5,-.3,2.2c-.2,.8,-.3,1.5,-.4,2.1H494v1.8Zm-16.2,12c-.9,0,-1.5,-.2,-1.8,-.5c-.4,-.4,-.6,-.9,-.6,-1.6v-6.4h2.2v5.9c0,.3,.1,.5,.2,.6c.1,.2,.3,.2,.7,.2h7.1c1.1,0,2,0,2.9,-.2c.8,-.1,1.7,-.3,2.6,-.6l.5,1.7c-1,.4,-2,.6,-3,.7c-.9,.2,-1.9,.2,-2.9,.2h-7.9Zm22.9,-13.4c0,.3,0,.6,.2,.7c.1,.2,.3,.2,.6,.2H507c1.1,0,2.2,0,3.4,-.1c1.1,-.1,2.4,-.3,3.7,-.6l.3,1.7c-.7,.2,-1.3,.3,-1.9,.4c-.6,.2,-1.1,.2,-1.7,.3c-.5,.1,-1.1,.1,-1.7,.1c-.6,.1,-1.2,.1,-1.8,.1v4.2h9.6v1.9H495.6v-1.9H505v-4.2h-3.7c-.9,0,-1.6,-.2,-2.1,-.6c-.5,-.4,-.8,-1.1,-.8,-1.9v-4.9h12.8v-3.5H498.4v-1.9h15.1v6.6c-.7,.2,-1.3,.4,-1.9,.5c-.6,.1,-1.2,.2,-1.9,.2h-9v2.7Zm18.5,5.2c1.1,-.7,2.1,-1.5,3,-2.4c.9,-.9,1.7,-1.9,2.4,-2.9c.7,-1,1.3,-2.1,1.8,-3.3c.4,-1.1,.7,-2.4,.8,-3.7c0,-.3,-.1,-.5,-.1,-.6c-.1,-.1,-.3,-.2,-.6,-.2h-7.1v-1.8h7.8c.9,0,1.4,.2,1.8,.6c.3,.4,.4,1,.4,1.6c0,.4,-.1,.7,-.1,1c0,.3,-.1,.6,-.1,.9h3.5v-5.1h2.2v22h-2.2v-8h-4.8v-1.9h4.8v-5.2h-3.9c-.7,2.4,-1.8,4.4,-3.3,6.1c-1.5,1.8,-3.1,3.3,-5,4.7l-1.3,-1.8Zm19.1,-15.9h2.2v22.6h-2.2V172.2ZM556.3,180.2c-.3,.7,-.7,1.4,-1.3,1.9c-.5,.5,-1.2,.9,-2,1.2c-.7,.2,-1.6,.4,-2.4,.4c-.9,0,-1.7,-.2,-2.5,-.4c-.7,-.3,-1.4,-.6,-2,-1.1c-.5,-.5,-1,-1.1,-1.3,-1.9c-.4,-.7,-.5,-1.6,-.5,-2.6c0,-.8,.1,-1.7,.5,-2.4c.3,-.7,.7,-1.3,1.3,-1.9c.5,-.5,1.2,-.8,2,-1.1c.7,-.3,1.6,-.5,2.5,-.5c.8,0,1.7,.2,2.4,.5c.8,.3,1.5,.6,2,1.2c.6,.5,1,1.1,1.3,1.8c.4,.7,.5,1.6,.5,2.4c0,1,-.1,1.8,-.5,2.5Zm6.9,-8.3v3.2h4.3v1.8h-4.3v3.8h4.3v1.8h-4.3v1.1c0,1,-.2,1.7,-.5,2.3c-.4,.5,-.8,1,-1.1,1.3c.5,.1,.8,.3,1,.7c.2,.3,.3,.8,.3,1.3l-.2,7.4h-2v-6.9c0,-.2,-.1,-.4,-.2,-.5c-.1,-.2,-.3,-.3,-.5,-.3H547.3v-1.8h12.4c.3,-.4,.6,-.9,.9,-1.5c.2,-.6,.3,-1.2,.3,-1.8V171.9h2.3Zm-9.6,3c-.8,-.8,-1.8,-1.2,-3,-1.2c-1.3,0,-2.3,.4,-3.1,1.2c-.7,.8,-1,1.8,-1,2.8c0,1.2,.3,2.1,1,2.9c.8,.8,1.8,1.2,3.1,1.2c1.2,0,2.2,-.4,3,-1.2c.7,-.8,1,-1.7,1,-2.9c0,-1,-.3,-2,-1,-2.8Zm27.4,4.4h5.6v-7.1h2.3v22.6h-2.3V181.2H581v-1.9Zm-4.8,-6.6c.2,.7,.4,1.4,.6,2.2c.1,.8,.2,1.6,.2,2.4c0,.7,-.1,1.4,-.2,2c-.1,.7,-.2,1.3,-.4,1.9c.7,.2,1.2,.4,1.7,.7c.5,.3,.9,.6,1.2,1c.5,.8,1.1,1.6,1.7,2.7c.7,1,1.4,2,2.1,3.1l-1.8,1.3c-.3,-.5,-.6,-1,-1,-1.6c-.3,-.5,-.7,-1.1,-1,-1.6c-.3,-.5,-.6,-1,-.9,-1.5c-.4,-.4,-.6,-.8,-.9,-1.1c-.2,-.2,-.4,-.4,-.7,-.7c-.3,-.2,-.6,-.3,-1.1,-.5c-.7,1.3,-1.5,2.5,-2.5,3.6c-1,1.2,-2.2,2.3,-3.7,3.4l-1.3,-1.8c2.3,-1.6,4,-3.3,5,-5.2c1,-1.8,1.5,-3.7,1.5,-5.6c0,-.6,-.1,-1.3,-.2,-2c-.1,-.7,-.3,-1.3,-.6,-1.9l2.3,-.8Z" class="g1_281"/>
<path d="M153.3,126.3v22.2L165,158.7V136.5Z" class="g2_281"/>
<path d="M153.3,109.5v39H851.1c0,0,16.8,0,16.8,-16.8v-5.4c0,0,0,-16.8,-16.8,-16.8Z" class="g3_281"/>
<path d="M207.2,115.7c0,-9.1,-7.9,-16.6,-17.7,-16.6c-9.8,0,-17.7,7.5,-17.7,16.6c0,2.7,.6,5.2,1.8,7.4c1.2,2.4,2.9,4.6,5,6.2c1.2,1,1.6,1.7,1.7,4.3v.6c0,3.3,2.7,5.9,5.9,5.9h6.6c3.2,0,5.8,-2.6,5.8,-5.9v-.6c.2,-2.6,.6,-3.3,1.8,-4.3c2.1,-1.6,3.8,-3.8,5,-6.2c1.2,-2.2,1.8,-4.7,1.8,-7.4Z" class="g4_281"/>
<path d="M207.2,115.7c0,-9.1,-7.9,-16.6,-17.7,-16.6c-9.8,0,-17.7,7.5,-17.7,16.6c0,2.7,.6,5.2,1.8,7.4c1.2,2.4,2.9,4.6,5,6.2c1.2,1,1.6,1.7,1.7,4.3v.6c0,3.3,2.7,5.9,5.9,5.9h6.6c3.2,0,5.8,-2.6,5.8,-5.9v-.6c.2,-2.6,.6,-3.3,1.8,-4.3c2.1,-1.6,3.8,-3.8,5,-6.2c1.2,-2.2,1.8,-4.7,1.8,-7.4Z" class="g5_281"/>
<path d="M194.6,147.4c0,2.8,-2.3,5.1,-5.1,5.1c-2.8,0,-5.1,-2.3,-5.1,-5.1c0,-2.8,2.3,-5.1,5.1,-5.1c2.8,0,5.1,2.3,5.1,5.1Z" class="g0_281"/>
<path d="M194.6,147.4c0,2.8,-2.3,5.1,-5.1,5.1c-2.8,0,-5.1,-2.3,-5.1,-5.1c0,-2.8,2.3,-5.1,5.1,-5.1c2.8,0,5.1,2.3,5.1,5.1Z" class="g5_281"/>
<path d="M182.1,140.2c0,1,.8,1.8,1.8,1.8h11.2c1,0,1.8,-.8,1.8,-1.8v-1.3H182.1Z" class="g0_281"/>
<path d="M182.1,140.2c0,1,.8,1.8,1.8,1.8h11.2c1,0,1.8,-.8,1.8,-1.8v-1.3H182.1v1.3Z" class="g5_281"/>
<path d="M196.9,143.2c0,.8,-.6,1.3,-1.3,1.3H183.4c-.8,0,-1.3,-.5,-1.3,-1.3c0,-.7,.5,-1.3,1.3,-1.3h12.2c.7,0,1.3,.6,1.3,1.3Z" class="g0_281"/>
<path d="M196.9,143.2c0,.8,-.6,1.3,-1.3,1.3H183.4c-.8,0,-1.3,-.5,-1.3,-1.3c0,-.7,.5,-1.3,1.3,-1.3h12.2c.7,0,1.3,.6,1.3,1.3Z" class="g5_281"/>
<path d="M196.9,145.8c0,.7,-.6,1.3,-1.3,1.3H183.4c-.8,0,-1.3,-.6,-1.3,-1.3c0,-.7,.5,-1.3,1.3,-1.3h12.2c.7,0,1.3,.6,1.3,1.3Z" class="g0_281"/>
<path d="M196.9,145.8c0,.7,-.6,1.3,-1.3,1.3H183.4c-.8,0,-1.3,-.6,-1.3,-1.3c0,-.7,.5,-1.3,1.3,-1.3h12.2c.7,0,1.3,.6,1.3,1.3Z" class="g5_281"/>
<path d="M215.5,128.7l8.3,10.4c.6,.7,1.8,.6,2.7,-.2c.9,-.7,1.2,-1.9,.7,-2.6l-8.9,-10.2Z" class="g6_281"/>
<path d="M215.5,128.7l8.3,10.4c.6,.7,1.8,.6,2.7,-.2c.9,-.7,1.2,-1.9,.7,-2.6l-8.9,-10.2l-2.8,2.6Z" class="g5_281"/>
<path d="M217.5,125.1c.5,.6,.3,1.8,-.7,2.6c-.9,.7,-2.1,.8,-2.6,.2c-.6,-.7,-.3,-1.9,.6,-2.6c.9,-.8,2.1,-.9,2.7,-.2Z" class="g7_281"/>
<path d="M217.5,125.1c.5,.6,.3,1.8,-.7,2.6c-.9,.7,-2.1,.8,-2.6,.2c-.6,-.7,-.3,-1.9,.6,-2.6c.9,-.8,2.1,-.9,2.7,-.2Z" class="g5_281"/>
<path d="M212.7,124.7l1.7,2c.3,.3,1,.3,1.5,-.1c.5,-.5,.7,-1.1,.4,-1.5l-1.7,-2Z" class="g0_281"/>
<path d="M212.7,124.7l1.7,2c.3,.3,1,.3,1.5,-.1c.5,-.5,.7,-1.1,.4,-1.5l-1.7,-2l-1.9,1.6Z" class="g8_281"/>
<path d="M214.8,122.9c.4,.5,.2,1.3,-.5,1.8c-.6,.5,-1.4,.6,-1.8,.1c-.4,-.4,-.2,-1.2,.5,-1.7c.6,-.6,1.4,-.6,1.8,-.2Z" class="g0_281"/>
<path d="M214.8,122.9c.4,.5,.2,1.3,-.5,1.8c-.6,.5,-1.4,.6,-1.8,.1c-.4,-.4,-.2,-1.2,.5,-1.7c.6,-.6,1.4,-.6,1.8,-.2Z" class="g8_281"/>
<path d="M216.4,105.4c4.8,5.7,4.1,14.2,-1.7,19c-5.7,4.8,-14.2,4,-19,-1.7c-4.8,-5.7,-4,-14.2,1.7,-19c5.7,-4.8,14.2,-4.1,19,1.7Z" class="g0_281"/>
<path d="M216.4,105.4c4.8,5.7,4.1,14.2,-1.7,19c-5.7,4.8,-14.2,4,-19,-1.7c-4.8,-5.7,-4,-14.2,1.7,-19c5.7,-4.8,14.2,-4.1,19,1.7Z" class="g5_281"/>
<path d="M214,107.4c3.5,4.2,3,10.5,-1.3,14.1c-4.2,3.5,-10.5,2.9,-14,-1.3c-3.5,-4.2,-3,-10.5,1.2,-14c4.2,-3.6,10.5,-3,14.1,1.2Z" class="g9_281"/>
<path d="M214,107.4c3.5,4.2,3,10.5,-1.3,14.1c-4.2,3.5,-10.5,2.9,-14,-1.3c-3.5,-4.2,-3,-10.5,1.2,-14c4.2,-3.6,10.5,-3,14.1,1.2Z" class="g5_281"/>
<path d="M213,110.6l-3.1,3m3.1,-.4l-3.1,3" class="ga_281"/>
<path d="M172.1,99l3.1,3.3m1.1,-5.9l1.2,3.9m-8.1,3l3.7,1.2" class="gb_281"/>
<path d="M185.8,106.1c1.2,1.2,.2,4.3,-2.2,6.7c-2.5,2.5,-5.5,3.5,-6.8,2.3c-1.2,-1.3,-.3,-4.3,2.2,-6.8c2.5,-2.5,5.5,-3.5,6.8,-2.2Z" class="g0_281"/>
<path d="M203.7,107.6c.6,.6,.1,1.9,-.9,3c-1.1,1,-2.4,1.5,-3,.9c-.5,-.5,-.1,-1.8,1,-2.9c1.1,-1.1,2.4,-1.5,2.9,-1Z" class="g0_281"/>
<path d="M32.1,45.1H9.2m958.3,0h22.9M32.1,1331.3H9.2m958.3,0h22.9M45.1,32.1V9.2m0,1335.1v22.9M954.5,32.1V9.2m0,1335.1v22.9" class="gc_281"/>
<path d="M32.1,45.1H9.2m958.3,0h22.9M32.1,1331.3H9.2m958.3,0h22.9M45.1,32.1V9.2m0,1335.1v22.9M954.5,32.1V9.2m0,1335.1v22.9" class="gd_281"/>
<path d="M27.5,32.1H0m972.1,0h27.5M27.5,1344.3H0m972.1,0h27.5M32.1,27.5V0m0,1348.9v27.5M967.5,27.5V0m0,1348.9v27.5" class="gc_281"/>
<path d="M27.5,32.1H0m972.1,0h27.5M27.5,1344.3H0m972.1,0h27.5M32.1,27.5V0m0,1348.9v27.5M967.5,27.5V0m0,1348.9v27.5" class="gd_281"/>
</svg>