<?xml version="1.0" encoding="UTF-8" standalone="no"?>
<!DOCTYPE svg PUBLIC "-//W3C//DTD SVG 1.1//EN"
"http://www.w3.org/Graphics/SVG/1.1/DTD/svg11.dtd">
<svg viewBox="0 0 999 1376" version="1.1" xmlns="http://www.w3.org/2000/svg" xmlns:xlink="http://www.w3.org/1999/xlink">
<defs>
<clipPath id="c0_147"><path d="M32.1,1344.3V32.1H967.5V1344.3Z"/></clipPath>
<clipPath id="c1_147"><path d="M239.1,621.6v-87h96.2v87Z"/></clipPath>
<clipPath id="c2_147"><path d="M242.2,747.7V662.9H343v84.8Z"/></clipPath>
<clipPath id="c3_147"><path d="M198.2,450l-6.5,-2.1L175.4,434V376.9h71.9V450Z"/></clipPath>
<clipPath id="c4_147"><path d="M199.2,938.3l-6.5,-2.1L176.3,922.3V865.2h72v73.1Z"/></clipPath>
<clipPath id="c5_147"><path d="M200.1,137.2c.1,-1.3,.7,-2.5,1.6,-3.4c1,-1,2.3,-1.6,3.9,-1.6h19.2v5Z"/></clipPath>
<clipPath id="c6_147"><path d="M199.5,137.7v-6h25.8v6Z"/></clipPath>
<style type="text/css"><![CDATA[
.g0_147{
fill: #FEFCF4;
}
.g1_147{
fill: #DCE9F3;
}
.g2_147{
fill: #FFF;
}
.g3_147{
fill: none;
stroke: #6381B7;
stroke-width: 0.763;
}
.g4_147{
fill: none;
stroke: #231F20;
stroke-width: 0.305;
stroke-miterlimit: 10;
}
.g5_147{
fill: #6381B7;
}
.g6_147{
fill: none;
stroke: #6381B7;
stroke-width: 0.381;
stroke-dasharray: 2,1;
}
.g7_147{
fill: none;
stroke: #6381B7;
stroke-width: 0.381;
}
.g8_147{
fill: #FCE8B0;
}
.g9_147{
fill: none;
stroke: #FFF;
stroke-width: 0.152;
}
.ga_147{
fill: #25408F;
}
.gb_147{
fill: none;
stroke: #231F20;
stroke-width: 1.527;
}
.gc_147{
fill: #39B4D1;
stroke: #2D2A4A;
stroke-width: 1.038;
stroke-linecap: round;
stroke-linejoin: round;
}
.gd_147{
fill: #2D2A4A;
}
.ge_147{
fill: none;
stroke: #2D2A4A;
stroke-width: 1.038;
stroke-linecap: round;
stroke-linejoin: round;
}
.gf_147{
fill: #DEDAD3;
}
.gg_147{
fill: #29263F;
}
.gh_147{
fill: #E15F46;
stroke: #2D2A4A;
stroke-width: 1.038;
stroke-linecap: round;
stroke-linejoin: round;
}
.gi_147{
fill: #F0F5FA;
}
.gj_147{
fill: none;
stroke: #7CA7D8;
stroke-width: 1.527;
stroke-linecap: round;
stroke-linejoin: round;
stroke-dasharray: 0,5;
}
.gk_147{
fill: none;
stroke: #7CA7D8;
stroke-width: 1.527;
stroke-linecap: round;
stroke-linejoin: round;
}
.gl_147{
fill: #7CA7D8;
}
.gm_147{
fill: #BFD62F;
}
.gn_147{
fill: #3D3B39;
}
.go_147{
fill: #F5CA58;
}
.gp_147{
fill: none;
stroke: #FFF;
stroke-width: 1.909;
stroke-miterlimit: 10;
}
.gq_147{
fill: none;
stroke: #000;
stroke-width: 0.381;
stroke-miterlimit: 10;
}
]]></style>
</defs>
<path clip-path="url(#c0_147)" d="M-877.3,1344.3H45.1V32.1H-877.3V1344.3Z" class="g0_147"/>
<path d="M170.7,168.5c0,0,-17.3,0,-17.3,17.3V334.2c0,0,0,17.3,17.3,17.3h680c0,0,17.3,0,17.3,-17.3V185.8c0,0,0,-17.3,-17.3,-17.3Z" class="g1_147"/>
<path d="M166.7,467.2c0,0,-13,0,-13,13V773.9c0,0,0,13,13,13H854.5c0,0,13,0,13,-13V480.2c0,0,0,-13,-13,-13Z" class="g2_147"/>
<path d="M166.7,467.2c0,0,-13,0,-13,13V773.9c0,0,0,13,13,13H854.5c0,0,13,0,13,-13V480.2c0,0,0,-13,-13,-13H166.7Z" class="g3_147"/>
<image clip-path="url(#c1_147)" preserveAspectRatio="none" x="240" y="526" width="96" height="97" xlink:href="img/1.jpg"/>
<image clip-path="url(#c2_147)" preserveAspectRatio="none" x="243" y="663" width="99" height="88" xlink:href="img/2.jpg"/>
<path d="M198.8,524.3H855.5V506H198.8v18.3Z" class="g2_147"/>
<path d="M218.3,647.6H359.5v-20H218.3v20Z" class="g2_147"/>
<path d="M411.7,598.3H587.9M390,723.6H566.2" class="g4_147"/>
<path d="M430.9,802.2c0,0,-4.3,0,-4.3,4.4v10.8c0,0,0,4.3,4.3,4.3h30.3c0,0,4.3,0,4.3,-4.3V806.6c0,0,0,-4.4,-4.3,-4.4Z" class="g5_147"/>
<path d="M417.7,794.8v34.8m1.3,1H866.8m.9,-1.4V794.4m-1.3,-1H418.7" class="g6_147"/>
<path d="M417.7,830v.6h.6m448.9,0h.5V830m0,-36v-.6h-.5m-448.9,0h-.6v.6" class="g7_147"/>
<path d="M230.9,405c0,0,-13,0,-13,13v21.7c0,0,0,13,13,13H854.2c0,0,13,0,13,-13V418c0,0,0,-13,-13,-13Z" class="g8_147"/>
<image clip-path="url(#c3_147)" preserveAspectRatio="none" x="174" y="375" width="75" height="77" xlink:href="img/3.png"/>
<path d="M225.7,445.3c0,0,-26.9,11.3,-51.1,-12.8c0,0,15.1,25.4,49.3,24c0,0,24.7,.4,20.2,-10.1c0,0,1.2,-4.5,-18.4,-1.1Z" class="g8_147"/>
<path d="M166.7,843.5c0,0,-13,0,-13,13v166.7c0,0,0,13,13,13H854.5c0,0,13,0,13,-13V856.5c0,0,0,-13,-13,-13Z" class="g0_147"/>
<path d="M166.7,843.5c0,0,-13,0,-13,13v166.7c0,0,0,13,13,13H854.5c0,0,13,0,13,-13V856.5c0,0,0,-13,-13,-13H166.7Z" class="g3_147"/>
<path d="M365.4,977.7H541.6m-162,39.2H560.1" class="g4_147"/>
<path d="M256.3,962.8c-.3,.4,-.7,.8,-1.2,1.1c-.4,.4,-.9,.7,-1.3,.9v1.1c.4,-.2,.9,-.5,1.3,-.8c.4,-.3,.9,-.7,1.3,-1.1v11.2h1V963.1c0,-.1,0,-.2,0,-.2c-.1,-.1,-.2,-.1,-.3,-.1h-.8Zm6.3,12.6H264v-1.5h-1.4v1.5Zm11.3,-13c-.5,.2,-.9,.4,-1.2,.8c-.3,.3,-.6,.7,-.7,1.1c-.2,.4,-.3,.9,-.3,1.4c0,.5,.1,1,.3,1.4c.1,.5,.4,.8,.7,1.2c.3,.3,.7,.6,1.2,.7c.4,.2,.9,.3,1.5,.3c.7,0,1.3,-.1,1.8,-.4c.5,-.3,1,-.7,1.3,-1.2h3.6v2.1h1v-7.9h-1v1.8h-3.6c-.3,-.5,-.8,-.9,-1.3,-1.2c-.5,-.3,-1.1,-.4,-1.8,-.4c-.6,0,-1.1,.1,-1.5,.3Zm8.2,2.2v2.3h-3.2c0,-.2,.1,-.4,.1,-.6c0,-.2,.1,-.4,.1,-.6c0,-.2,-.1,-.4,-.1,-.6c0,-.2,-.1,-.3,-.1,-.5h3.2Zm-4.8,-.8c.5,.5,.7,1.2,.7,1.9c0,.8,-.2,1.4,-.7,1.9c-.4,.6,-1.1,.8,-1.9,.8c-.9,0,-1.5,-.2,-2,-.8c-.4,-.5,-.6,-1.1,-.6,-1.9c0,-.7,.2,-1.4,.6,-1.9c.5,-.5,1.1,-.8,2,-.8c.8,0,1.5,.3,1.9,.8Zm4.8,12h-7.2v-2.4h7.2v2.4Zm-8.2,.8c.1,.1,.2,.1,.3,.1h8.6c.1,0,.2,0,.2,-.1c.1,0,.1,-.1,.1,-.2v-5.8h-1v2h-7.2v-2h-1v5.8c0,.1,0,.2,0,.2Zm15.4,-11.7c0,1,-.1,1.9,-.3,2.7c-.2,.8,-.5,1.6,-.9,2.2c-.4,.7,-.9,1.3,-1.4,1.8c-.5,.6,-1.1,1,-1.7,1.4l1,.8c.4,-.4,.9,-.7,1.3,-1.2c.4,-.4,.8,-.9,1.1,-1.3c.3,-.5,.6,-1,.9,-1.5c.2,-.5,.4,-1,.5,-1.5c.4,1.1,.9,2.1,1.6,2.9c.7,.8,1.5,1.6,2.3,2.2l.9,-.8c-1.4,-.8,-2.4,-1.8,-3.1,-3c-.8,-1.2,-1.1,-2.7,-1.1,-4.3v-2.7h-1.1v2.3Zm7,1.7h-3.5v.9h3.5v9.4h1v-15h-1v4.7Zm4.6,-2.8c-.6,.9,-.9,2.3,-.9,4.2c0,1.9,.3,3.3,.9,4.2c.5,.9,1.3,1.4,2.2,1.4c.8,0,1.5,-.4,2.1,-1.3c.6,-.8,.9,-2.1,.9,-3.8H308v7.6h1V962.2h-1v5.3h-1.9c0,-1.7,-.3,-3,-.9,-3.8c-.6,-.9,-1.3,-1.3,-2.1,-1.3c-.9,0,-1.7,.5,-2.2,1.4Zm3.6,.8c.4,.8,.6,2,.6,3.4c0,1.4,-.2,2.6,-.6,3.4c-.3,.9,-.8,1.3,-1.4,1.3c-.6,0,-1.1,-.4,-1.5,-1.3c-.4,-.8,-.6,-2,-.6,-3.4c0,-1.4,.2,-2.6,.6,-3.4c.4,-.9,.9,-1.3,1.5,-1.3c.6,0,1,.4,1.4,1.3Zm6.2,12.3h1v-15h-1v15ZM323,962.3c-.6,.2,-1.2,.4,-1.6,.7c-.5,.3,-.8,.6,-1,1c-.3,.5,-.4,.9,-.4,1.4c0,.6,.1,1,.4,1.5c.2,.4,.5,.7,1,1c.4,.3,1,.5,1.6,.7c.6,.1,1.3,.2,2.1,.2c.7,0,1.4,-.1,2,-.2c.7,-.2,1.2,-.4,1.6,-.7c.5,-.3,.8,-.6,1.1,-1c.2,-.5,.3,-.9,.3,-1.5c0,-.5,-.1,-.9,-.3,-1.4c-.3,-.4,-.6,-.7,-1.1,-1c-.4,-.3,-.9,-.5,-1.6,-.7c-.6,-.1,-1.3,-.2,-2,-.2c-.8,0,-1.5,.1,-2.1,.2Zm3.7,.8c.5,.1,.9,.3,1.2,.5c.4,.3,.7,.5,.9,.8c.2,.3,.3,.7,.3,1.1c0,.4,-.1,.7,-.3,1c-.2,.3,-.5,.6,-.9,.8c-.3,.2,-.7,.4,-1.2,.5c-.5,.1,-1,.2,-1.6,.2c-.6,0,-1.1,-.1,-1.6,-.2c-.5,-.1,-.9,-.3,-1.3,-.5c-.4,-.2,-.6,-.5,-.8,-.8c-.2,-.3,-.3,-.6,-.3,-1c0,-.4,.1,-.8,.3,-1.1c.2,-.3,.4,-.5,.8,-.8c.4,-.2,.8,-.4,1.3,-.5c.5,-.1,1,-.2,1.6,-.2c.6,0,1.1,.1,1.6,.2Zm-8.3,8.3h6.2v5.5h1v-5.5h6.1v-.9H318.4v.9Zm23.3,-7.7l-.1,5H337l-.1,-5h4.8Zm-7.5,0h1.7v5h-2.1v.9h10.9v-.9h-2.1l.1,-5h1.7v-.9H334.2v.9Zm1.9,10.2h-3.5v.9H346v-.9h-3.4v-3.8h-1v3.8h-4.5v-3.8h-1v3.8Zm12.6,-11.6v.8h8.4v1.4H349c-.1,0,-.2,0,-.2,.1q-.1,.1,-.1,.2v2.5c0,.1,0,.2,.1,.2c0,.1,.1,.1,.2,.1h9.5v-.8h-8.8v-1.4h8.2c.1,0,.2,-.1,.2,-.1c.1,-.1,.1,-.2,.1,-.3v-2.4c0,-.1,0,-.2,-.1,-.2c0,-.1,-.1,-.1,-.2,-.1h-9.2Zm-1.8,7.5h13.2v-.9H346.9v.9Zm11.3,4.5c.1,-.1,.1,-.2,.1,-.3v-2.5c0,-.1,0,-.2,-.1,-.3c0,0,-.1,0,-.2,0h-9.3v.8h8.6v1.5H349c-.1,0,-.2,0,-.2,.1c-.1,0,-.1,.1,-.1,.2v2.5c0,.2,0,.3,.1,.3c0,0,.1,.1,.2,.1h9.6v-.9h-8.8v-1.5H358c.1,0,.2,0,.2,0Zm-105.5,40q.1,.1,.3,.1h6.9v-1h-6.2c.5,-.5,1.1,-1.1,1.8,-1.7c.7,-.7,1.3,-1.4,1.9,-2.2c.7,-.7,1.2,-1.5,1.6,-2.3c.4,-.8,.7,-1.5,.7,-2.2c0,-1.1,-.4,-1.9,-1,-2.5c-.7,-.5,-1.5,-.8,-2.5,-.8c-.5,0,-1,.1,-1.4,.3c-.4,.1,-.8,.4,-1.1,.7c-.3,.3,-.5,.6,-.7,1.1c-.1,.4,-.2,.8,-.2,1.4h1c0,-.4,.1,-.7,.2,-1c.1,-.3,.3,-.6,.5,-.8c.2,-.3,.4,-.4,.7,-.6c.3,-.1,.6,-.2,1,-.2c.6,0,1.2,.2,1.7,.7c.5,.4,.7,1,.7,1.7c0,.3,-.1,.6,-.2,1c-.1,.3,-.3,.7,-.5,1.1c-.2,.3,-.5,.7,-.8,1.1c-.3,.4,-.6,.8,-.9,1.2c-.3,.4,-.6,.8,-1,1.2c-.3,.4,-.6,.7,-1,1.1c-.3,.3,-.6,.6,-.8,.9c-.3,.3,-.5,.5,-.7,.7v.8c0,.1,0,.2,0,.2Zm9.9,.3H264v-1.5h-1.4v1.5Zm20,-4.5v-.9h-8.7v-2.7h8.6v-.9h-8.6v-2.8h8.6v-.9h-9.3c-.1,0,-.2,0,-.2,.1c-.1,0,-.1,.1,-.1,.2v7.6c0,.1,0,.2,.1,.3c0,0,.1,0,.2,0h9.4Zm-11.6,3.8h13.4v-.9H271v.9Zm21.6,-7.9c0,-.1,.1,-.2,.1,-.3v-3.6c0,-.1,-.1,-.2,-.1,-.3q-.1,0,-.3,0h-5.9v.8h5.3v2.6h-5c-.1,0,-.2,0,-.2,.1c-.1,0,-.1,.1,-.1,.2v3.7c0,.1,0,.2,.1,.2c0,.1,.1,.1,.2,.1h1.1c.3,0,.6,0,1,0c.3,0,.7,0,1.2,0c.3,0,.8,-.1,1.2,-.1c.5,0,1,-.1,1.5,-.2c.5,0,.9,-.1,1.3,-.1c.4,-.1,.8,-.2,1,-.2v-.9c-.3,0,-.6,.1,-1.1,.2c-.5,0,-.9,.1,-1.4,.2c-.5,0,-1,.1,-1.5,.1c-.5,0,-.9,0,-1.2,0l-2.4,.1V1006h4.9q.2,0,.3,0Zm3.6,-1.4h-2.8v.9h2.8v4.8h1v-9.2h-1v3.5Zm-8.4,6.5v.9h8.4v4.2h1v-4.8q0,-.1,-.1,-.2c0,-.1,-.1,-.1,-.2,-.1h-9.1Zm16.3,-9.3c-.6,.2,-1.2,.4,-1.6,.8c-.4,.3,-.8,.7,-1,1.2c-.3,.5,-.4,1.1,-.4,1.7c0,.6,.1,1.2,.4,1.7c.2,.5,.6,.9,1,1.3c.4,.3,1,.6,1.6,.8c.6,.2,1.3,.3,2.1,.3c.7,0,1.4,-.1,2,-.3c.6,-.2,1.2,-.5,1.6,-.8c.4,-.4,.8,-.8,1,-1.3c.3,-.5,.4,-1.1,.4,-1.7c0,-.6,-.1,-1.2,-.4,-1.7c-.2,-.5,-.6,-.9,-1,-1.2c-.4,-.4,-1,-.6,-1.6,-.8c-.6,-.2,-1.3,-.3,-2,-.3c-.8,0,-1.5,.1,-2.1,.3Zm3.6,.8c.5,.1,.9,.3,1.3,.6c.3,.3,.6,.6,.8,1c.2,.4,.3,.8,.3,1.3c0,.5,-.1,.9,-.3,1.3c-.2,.4,-.5,.8,-.8,1c-.4,.3,-.8,.5,-1.3,.7c-.4,.1,-1,.2,-1.5,.2c-.6,0,-1.2,-.1,-1.6,-.2c-.5,-.2,-1,-.4,-1.3,-.7c-.3,-.2,-.6,-.6,-.8,-1c-.2,-.4,-.3,-.8,-.3,-1.3c0,-.5,.1,-.9,.3,-1.3c.2,-.4,.5,-.7,.8,-1c.3,-.3,.8,-.5,1.3,-.6c.4,-.2,1,-.3,1.6,-.3c.5,0,1.1,.1,1.5,.3Zm-8.2,11.3h13.3v-.9H299.5v.9Zm25.4,-7.5c0,0,0,-.1,0,-.2v-4q0,-.1,0,-.2c-.1,-.1,-.2,-.1,-.3,-.1h-9.1v.9h8.4v2.8h-8q-.2,0,-.3,.1c0,0,-.1,.1,-.1,.2v3.9c0,.1,.1,.2,.1,.2q.1,.1,.3,.1h3.9v3h-6.1v1H327v-1h-6.2v-3h4.7v-.9h-8.9v-2.7h8c.1,0,.2,0,.3,-.1Zm18.2,-1.3h-7.6v-2.6h7.6v2.6Zm1,-3.2c0,-.1,0,-.2,-.1,-.2c0,-.1,-.1,-.1,-.2,-.1h-9c-.1,0,-.2,0,-.3,.1c0,0,0,.1,0,.2v3.7c0,.2,0,.3,0,.3c.1,0,.2,.1,.3,.1h9c.1,0,.2,-.1,.2,-.1c.1,0,.1,-.1,.1,-.3v-3.7Zm-11.4,6.5h6.1v1.6h-4.3v.9H343v1.6h-8.2c-.1,0,-.2,0,-.2,.1c-.1,0,-.1,.1,-.1,.2v2.8c0,.1,0,.2,.1,.2c0,.1,.1,.1,.2,.1h9.6v-.9h-8.9v-1.7h8.3c.1,0,.2,0,.2,0c.1,-.1,.1,-.2,.1,-.3v-2.7c0,-.1,0,-.2,-.1,-.2c0,-.1,-.1,-.1,-.2,-.1h-4v-1.6h6.1v-.9H332.7v.9Zm15.4,-6.5v.9h5.4c-.3,1.5,-.9,2.8,-2,4c-1.1,1.1,-2.6,2,-4.5,2.8l.9,.8c2,-.9,3.6,-2,4.7,-3.4c1.1,-1.4,1.8,-3,2,-4.8c0,-.1,0,-.2,-.1,-.2c0,-.1,-.1,-.1,-.2,-.1h-6.2Zm9.8,3.8h-3.1v.9h3.1v5.6h1v-11.1h-1v4.6Zm1.5,10.1v-1h-8.7v-3.9h-1v4.5q0,.2,0,.3c.1,0,.2,.1,.3,.1h9.4Zm6.3,-14.6c-.7,.2,-1.2,.3,-1.6,.6c-.5,.2,-.8,.5,-1,.8c-.3,.3,-.4,.7,-.4,1.1c0,.8,.5,1.5,1.4,1.9c.9,.5,2.1,.7,3.6,.7c.7,0,1.4,0,2,-.1c.7,-.2,1.2,-.3,1.6,-.6c.4,-.2,.8,-.5,1,-.8c.3,-.3,.4,-.7,.4,-1.1c0,-.4,-.1,-.8,-.4,-1.1c-.2,-.3,-.6,-.6,-1,-.8c-.4,-.3,-.9,-.4,-1.6,-.6c-.6,-.1,-1.3,-.2,-2,-.2c-.7,0,-1.4,.1,-2,.2Zm3.6,.8c.5,.1,.9,.2,1.2,.4c.4,.1,.7,.3,.9,.6c.2,.2,.3,.4,.3,.7c0,.3,-.1,.5,-.3,.7c-.2,.2,-.5,.4,-.9,.6c-.3,.2,-.7,.3,-1.2,.4c-.5,.1,-1,.2,-1.6,.2c-.6,0,-1.1,-.1,-1.6,-.2c-.5,-.1,-.9,-.2,-1.2,-.4c-.4,-.2,-.7,-.4,-.9,-.6c-.1,-.2,-.2,-.4,-.2,-.7c0,-.3,.1,-.5,.2,-.7c.2,-.3,.5,-.5,.9,-.6c.3,-.2,.7,-.3,1.2,-.4c.5,-.1,1,-.1,1.6,-.1c.6,0,1.1,0,1.6,.1Zm-8.2,6.4h13.3v-.8H361.1v.8Zm1.9,4.1c0,0,-.1,.1,-.1,.2v2.9c0,.1,.1,.2,.1,.2c0,.1,.1,.1,.2,.1h9.7v-.9H364v-1.8h8.2c.1,0,.2,0,.3,0q0,-.1,0,-.3v-2.7c0,-.1,0,-.2,0,-.3c-.1,0,-.2,0,-.3,0h-9.3v.8h8.6v1.7h-8.3c-.1,0,-.2,0,-.2,.1Z" class="g9_147"/>
<path d="M595.5,1049c0,0,-4.4,0,-4.4,4.4v10.8c0,0,0,4.3,4.4,4.3h30.3c0,0,4.3,0,4.3,-4.3v-10.8c0,0,0,-4.4,-4.3,-4.4Z" class="g5_147"/>
<path d="M582.3,1041.6v34.8m1.3,1H866.8m.9,-1.4v-34.8m-1.3,-1H583.2" class="g6_147"/>
<path d="M582.3,1076.8v.6h.6m284.2,0h.6v-.6m0,-36v-.6h-.6m-284.2,0h-.6v.6" class="g7_147"/>
<path d="M231.8,893.3c0,0,-13,0,-13,13V928c0,0,0,12.9,13,12.9h602c0,0,13,0,13,-12.9V906.3c0,0,0,-13,-13,-13Z" class="g8_147"/>
<image clip-path="url(#c4_147)" preserveAspectRatio="none" x="175" y="864" width="75" height="76" xlink:href="img/4.png"/>
<path d="M226.6,933.6c0,0,-26.9,11.3,-51.1,-12.8c0,0,15.1,25.3,49.3,24c0,0,24.7,.3,20.2,-10.1c0,0,1.2,-4.5,-18.4,-1.1Z" class="g8_147"/>
<path d="M153.3,109.5v39L165,158.7V136.5Z" class="ga_147"/>
<path d="M153.3,109.5v39H851.1c0,0,16.8,0,16.8,-16.8v-5.4c0,0,0,-16.8,-16.8,-16.8Z" class="g5_147"/>
<path d="M790.4,131c0,0,-.5,-10,8.6,-9.4c0,0,6.8,-.3,6.7,9.5m-15.3,-1.5v6.5c0,0,-3.4,.3,-3.9,-3c0,0,-.1,-3.8,3.9,-3.5Zm15.3,0v6.5c0,0,3.4,.3,4,-3c0,0,0,-3.8,-4,-3.5Z" class="gb_147"/>
<path d="M169,140.8h61v-32H169v32Z" class="gc_147"/>
<path d="M169,143.1h61v-2.3H169v2.3Z" class="gc_147"/>
<path d="M193.5,106.2H173.8v31.5h25.7V112.3c0,-3.4,-2.7,-6.1,-6,-6.1Z" class="g2_147"/>
<path d="M193.5,106.2v-.5H173.8c-.2,0,-.3,.1,-.4,.2c-.1,.1,-.2,.2,-.2,.3v31.5c0,.1,.1,.3,.2,.4c.1,.1,.2,.1,.4,.1h25.7c.2,0,.3,0,.4,-.1c.1,-.1,.1,-.3,.1,-.4V112.3c0,-3.7,-2.9,-6.6,-6.5,-6.6v1c1.5,0,2.9,.7,3.9,1.7c1,1,1.6,2.3,1.6,3.9v24.9H174.3V106.7h19.2Z" class="gd_147"/>
<path d="M173.8,131.7v6h25.7c0,-3.3,-2.7,-6,-6,-6Z" class="g2_147"/>
<path d="M173.8,131.7h-.6v6c0,.1,.1,.3,.2,.4c.1,.1,.2,.1,.4,.1h25.7c.2,0,.3,0,.4,-.1c.1,-.1,.1,-.3,.1,-.4c0,-3.6,-2.9,-6.6,-6.5,-6.6H173.8c-.2,0,-.3,.1,-.4,.2c-.1,.1,-.2,.2,-.2,.4h.6v.5h19.7c1.5,0,2.9,.6,3.9,1.6c1,1,1.6,2.4,1.6,3.9h.5v-.5H174.3v-5.5h-.5v.5Z" class="gd_147"/>
<path d="M177.3,110.9h17.2m-17.2,2.8h17.2m-17.2,2.9h17.2m-17.2,2.9h17.2m-17.2,2.8h17.2m-17.2,2.9h17.2M177.3,128h17.2" class="ge_147"/>
<path d="M193.5,132.2H174.3v5H199c-.1,-1.3,-.7,-2.5,-1.6,-3.4c-1,-1,-2.4,-1.6,-3.9,-1.6Z" class="gf_147"/>
<path d="M174.3,132.2h19.2c1.5,0,2.9,.6,3.9,1.6c.9,.9,1.5,2.1,1.6,3.4H174.3Zm19.2,-.5H173.8v6H199v-2.5c-.9,-2.1,-3.1,-3.5,-5.5,-3.5Z" class="gg_147"/>
<path d="M205.6,106.2h19.7v31.5H199.5V112.3c0,-3.4,2.7,-6.1,6.1,-6.1Z" class="g2_147"/>
<path d="M205.6,106.2v.5h19.2v30.5H200V112.3c0,-1.6,.7,-2.9,1.7,-3.9c1,-1,2.3,-1.7,3.9,-1.7v-1c-3.7,0,-6.6,2.9,-6.6,6.6v25.4c0,.1,.1,.3,.2,.4c0,.1,.2,.1,.3,.1h25.8c.1,0,.2,0,.3,-.1c.1,-.1,.2,-.3,.2,-.4V106.2c0,-.1,-.1,-.2,-.2,-.3c-.1,-.1,-.2,-.2,-.3,-.2H205.6Z" class="gd_147"/>
<path d="M225.3,131.7v6H199.5c0,-3.3,2.7,-6,6.1,-6Z" class="g2_147"/>
<path d="M225.3,131.7h-.5v5.5H199.5v.5h.5c0,-1.5,.7,-2.9,1.7,-3.9c1,-1,2.3,-1.6,3.9,-1.6h19.7v-.5h-.5h.5v-.6H205.6c-3.7,0,-6.6,3,-6.6,6.6c0,.1,.1,.3,.2,.4c0,.1,.2,.1,.3,.1h25.8c.1,0,.2,0,.3,-.1c.1,-.1,.2,-.3,.2,-.4v-6c0,-.2,-.1,-.3,-.2,-.4c-.1,-.1,-.2,-.2,-.3,-.2Z" class="gd_147"/>
<path d="M221.8,110.9H204.6m17.2,2.8H204.6m17.2,2.9H204.6m17.2,2.9H204.6m17.2,2.8H204.6m17.2,2.9H204.6m17.2,2.8H204.6" class="ge_147"/>
<path clip-path="url(#c5_147)" d="M200.1,137.2h24.7v-5H200.1v5Z" class="gf_147"/>
<path clip-path="url(#c6_147)" d="M200.1,137.2c.1,-1.3,.7,-2.5,1.6,-3.4c1,-1,2.3,-1.6,3.9,-1.6h19.2v5Zm25.2,-5.5H205.6c-3.4,0,-6.1,2.7,-6.1,6h25.8v-6h-.5h.5Z" class="gg_147"/>
<path d="M199.5,108.8v34.3" class="ge_147"/>
<path d="M217.2,145.5h3.3V134.7h-3.3v10.8Z" class="gh_147"/>
<path d="M154.1,1243.9h713V1121h-713v122.9Z" class="gi_147"/>
<path d="M154.1,1125.6v116m4.6,2.3H864.9m2.2,-4.5V1123.3m-4.5,-2.3H156.4" class="gj_147"/>
<path d="M154.1,1243.9v0m713.1,0v0m0,-122.9v0m-713.1,0v0" class="gk_147"/>
<path d="M153.3,1124.3v-28.7c0,0,0,-8.6,8.7,-8.6H859.3c0,0,8.6,0,8.6,8.6v29.2Z" class="gl_147"/>
<path d="M195.5,1091.1c3.4,0,6.1,-2.8,6.1,-6.1c0,-3.4,-2.7,-6.1,-6.1,-6.1c-3.4,0,-6.1,2.7,-6.1,6.1c0,3.3,2.7,6.1,6.1,6.1Z" class="gm_147"/>
<path d="M195.5,1093c4.4,0,8,-3.6,8,-8c0,-4.5,-3.6,-8.1,-8,-8.1c-4.4,0,-8,3.6,-8,8.1c0,4.4,3.6,8,8,8m0,-14.1c3.4,0,6.1,2.7,6.1,6.1c0,3.3,-2.7,6.1,-6.1,6.1c-3.4,0,-6.1,-2.8,-6.1,-6.1c0,-3.4,2.7,-6.1,6.1,-6.1Z" class="gn_147"/>
<path d="M180.9,1107.1h29.2v-3.8c0,-4.4,-3.5,-8,-7.9,-8H188.8c-4.3,0,-7.9,3.6,-7.9,8Z" class="gm_147"/>
<path d="M172.6,1112.4h45.8V1109H172.6v3.4Z" class="g2_147"/>
<path d="M219.4,1107.1h-2.7v-11.6c0,-.2,-.1,-.5,-.3,-.6l-2.6,-2.6c.3,-.6,.5,-1.2,.5,-1.8c0,-2,-1.6,-3.6,-3.6,-3.6c-2,0,-3.6,1.6,-3.6,3.6c0,2,1.6,3.6,3.6,3.6c.7,0,1.3,-.2,1.8,-.5l2.3,2.3v11.2H212v-3.8c0,-5.5,-4.4,-9.9,-9.8,-9.9H188.8c-5.4,0,-9.8,4.4,-9.8,9.9v3.8h-7.4c-.5,0,-.9,.4,-.9,.9v5.4c0,.5,.4,.9,.9,.9h2.7v11.3c0,.6,.4,1,.9,1h40.6c.5,0,.9,-.4,.9,-1v-11.3h2.7c.5,0,.9,-.4,.9,-.9V1108c0,-.5,-.4,-.9,-.9,-.9m-8.7,-14.9c-.9,0,-1.7,-.8,-1.7,-1.7c0,-.9,.8,-1.7,1.7,-1.7c.9,0,1.7,.8,1.7,1.7c0,.9,-.8,1.7,-1.7,1.7m7.7,20.2H172.6V1109h45.8Zm-3.6,12.3H176.2v-10.4h38.6v10.4Zm-26,-29.4h13.4c4.4,0,7.9,3.6,7.9,8v3.8H180.9v-3.8c0,-4.4,3.6,-8,7.9,-8Z" class="gn_147"/>
<path d="M176.2,1124.7h38.6v-10.4H176.2v10.4Zm2.8,-7.6c0,-.2,.2,-.4,.5,-.4h32c.3,0,.5,.2,.5,.4v4.8c0,.2,-.2,.4,-.5,.4h-32c-.3,0,-.5,-.2,-.5,-.4Z" class="g2_147"/>
<path d="M180,1121.4h31v-3.8H180v3.8Z" class="go_147"/>
<path d="M179.5,1122.3h32c.3,0,.5,-.2,.5,-.4v-4.8c0,-.2,-.2,-.4,-.5,-.4h-32c-.3,0,-.5,.2,-.5,.4v4.8c0,.2,.2,.4,.5,.4m.5,-4.7h31v3.8H180Z" class="gn_147"/>
<path d="M212.4,1090.5c0,-.9,-.8,-1.7,-1.7,-1.7c-.9,0,-1.7,.8,-1.7,1.7c0,.9,.8,1.7,1.7,1.7c.9,0,1.7,-.8,1.7,-1.7Z" class="g2_147"/>
<path d="M32.1,45.1H9.2m958.3,0h22.9M32.1,1331.3H9.2m958.3,0h22.9M45.1,32.1V9.2m0,1335.1v22.9M954.5,32.1V9.2m0,1335.1v22.9" class="gp_147"/>
<path d="M32.1,45.1H9.2m958.3,0h22.9M32.1,1331.3H9.2m958.3,0h22.9M45.1,32.1V9.2m0,1335.1v22.9M954.5,32.1V9.2m0,1335.1v22.9" class="gq_147"/>
<path d="M27.5,32.1H0m972.1,0h27.5M27.5,1344.3H0m972.1,0h27.5M32.1,27.5V0m0,1348.9v27.5M967.5,27.5V0m0,1348.9v27.5" class="gp_147"/>
<path d="M27.5,32.1H0m972.1,0h27.5M27.5,1344.3H0m972.1,0h27.5M32.1,27.5V0m0,1348.9v27.5M967.5,27.5V0m0,1348.9v27.5" class="gq_147"/>
</svg>