<?xml version="1.0" encoding="UTF-8" standalone="no"?>
<!DOCTYPE svg PUBLIC "-//W3C//DTD SVG 1.1//EN"
"http://www.w3.org/Graphics/SVG/1.1/DTD/svg11.dtd">
<svg viewBox="0 0 999 1376" version="1.1" xmlns="http://www.w3.org/2000/svg" xmlns:xlink="http://www.w3.org/1999/xlink">
<defs>
<clipPath id="c0_366"><path d="M32.1,1344.3V32.1H967.5V1344.3Z"/></clipPath>
<clipPath id="c1_366"><path d="M237.5,1163.3V693.8H745.4v469.5Z"/></clipPath>
<clipPath id="c2_366"><path d="M177,599.7l-6.5,-2.1L154.1,583.7V526.6h72v73.1Z"/></clipPath>
<clipPath id="c3_366"><path d="M125.5,386.7V205.8H858.6V386.7Z"/></clipPath>
<style type="text/css"><![CDATA[
.g0_366{
fill: #FEFCF4;
}
.g1_366{
fill: #FFF;
}
.g2_366{
fill: none;
stroke: #6381B7;
stroke-width: 0.763;
}
.g3_366{
fill: none;
stroke: #D1B8D8;
stroke-width: 1.222;
}
.g4_366{
fill: #FFF;
stroke: #D1B8D8;
stroke-width: 1.222;
}
.g5_366{
fill: #BF99C7;
}
.g6_366{
fill: #FCE8B0;
}
.g7_366{
fill: #2E6E51;
}
.g8_366{
fill: none;
stroke: #FFF;
stroke-width: 0.152;
stroke-miterlimit: 1;
}
.g9_366{
fill: #BCBEC0;
}
.ga_366{
fill: #EE314A;
}
.gb_366{
fill: #25408F;
}
.gc_366{
fill: #6381B7;
}
.gd_366{
fill: #00BAF1;
}
.ge_366{
fill: #332D2C;
}
.gf_366{
fill: #D9DFF0;
}
.gg_366{
fill: #F27C85;
}
.gh_366{
fill: #7DD3F6;
}
.gi_366{
fill: #CEEDFB;
}
.gj_366{
fill: #27639D;
}
.gk_366{
fill: #231F20;
}
.gl_366{
fill: none;
stroke: #C3E7F1;
stroke-width: 1.527;
}
.gm_366{
fill: none;
stroke: #FFF;
stroke-width: 1.909;
stroke-miterlimit: 10;
}
.gn_366{
fill: none;
stroke: #000;
stroke-width: 0.381;
stroke-miterlimit: 10;
}
]]></style>
</defs>
<path d="M32.1,1343.2H954.5V32.1H32.1V1343.2Z" class="g0_366"/>
<path clip-path="url(#c0_366)" d="M954.5,1344.3H1877V32.1H954.5V1344.3Z" class="g0_366"/>
<path d="M150.4,440.1c0,0,-18.3,0,-18.3,18.3V1226c0,0,0,18.3,18.3,18.3H827.5c0,0,18.4,0,18.4,-18.3V440.1Z" class="g1_366"/>
<path d="M150.4,440.1c0,0,-18.3,0,-18.3,18.3V1226c0,0,0,18.3,18.3,18.3H827.5c0,0,18.4,0,18.4,-18.3V440.1H150.4Z" class="g2_366"/>
<image clip-path="url(#c1_366)" preserveAspectRatio="none" x="237" y="694" width="508" height="470" xlink:href="img/1.jpg"/>
<path d="M241.6,682.3c0,0,-10.4,0,-10.4,10.4v64.6c0,0,0,10.4,10.4,10.4H387.1c0,0,10.4,0,10.4,-10.4V692.7c0,0,0,-10.4,-10.4,-10.4Z" class="g1_366"/>
<path d="M241.6,682.3c0,0,-10.4,0,-10.4,10.4v64.6c0,0,0,10.4,10.4,10.4H387.1c0,0,10.4,0,10.4,-10.4V692.7c0,0,0,-10.4,-10.4,-10.4H241.6Z" class="g3_366"/>
<path d="M355.2,765c0,0,4.5,16.9,22.9,17.6c0,0,-7.6,-8.6,-6.6,-17.6" class="g4_366"/>
<path d="M238,758H393.9V692H238v66Z" class="g1_366"/>
<path d="M468.2,673.7c0,0,-10.4,0,-10.4,10.4v64.6c0,0,0,10.4,10.4,10.4H613.7c0,0,10.4,0,10.4,-10.4V684.1c0,0,0,-10.4,-10.4,-10.4Z" class="g1_366"/>
<path d="M468.2,673.7c0,0,-10.4,0,-10.4,10.4v64.6c0,0,0,10.4,10.4,10.4H613.7c0,0,10.4,0,10.4,-10.4V684.1c0,0,0,-10.4,-10.4,-10.4H468.2Z" class="g3_366"/>
<path d="M499.4,756.3c0,0,-4.5,17,-22.8,17.7c0,0,7.6,-8.7,6.5,-17.7" class="g4_366"/>
<path d="M464.6,748.1H620.5V684.6H464.6v63.5Z" class="g1_366"/>
<path d="M665.6,693.3c0,0,-10.4,0,-10.4,10.3v64.7c0,0,0,10.3,10.4,10.3H811.1c0,0,10.4,0,10.4,-10.3V703.6c0,0,0,-10.3,-10.4,-10.3Z" class="g1_366"/>
<path d="M665.6,693.3c0,0,-10.4,0,-10.4,10.3v64.7c0,0,0,10.3,10.4,10.3H811.1c0,0,10.4,0,10.4,-10.3V703.6c0,0,0,-10.3,-10.4,-10.3H665.6Z" class="g3_366"/>
<path d="M696.8,775.9c0,0,-4.5,17,-22.8,17.6c0,0,7.6,-8.6,6.5,-17.6" class="g4_366"/>
<path d="M662,767.4H817.9v-65H662v65Z" class="g1_366"/>
<path d="M665.6,823.2c0,0,-10.4,0,-10.4,10.4v64.6c0,0,0,10.4,10.4,10.4H811.1c0,0,10.4,0,10.4,-10.4V833.6c0,0,0,-10.4,-10.4,-10.4Z" class="g1_366"/>
<path d="M665.6,823.2c0,0,-10.4,0,-10.4,10.4v64.6c0,0,0,10.4,10.4,10.4H811.1c0,0,10.4,0,10.4,-10.4V833.6c0,0,0,-10.4,-10.4,-10.4H665.6Z" class="g3_366"/>
<path d="M696.8,905.8c0,0,-4.5,17,-22.8,17.7c0,0,7.6,-8.7,6.5,-17.7" class="g4_366"/>
<path d="M665.6,965.1c0,0,-10.4,0,-10.4,10.4V1055c0,0,0,10.3,10.4,10.3H811.1c0,0,10.4,0,10.4,-10.3V975.5c0,0,0,-10.4,-10.4,-10.4Z" class="g1_366"/>
<path d="M665.6,965.1c0,0,-10.4,0,-10.4,10.4V1055c0,0,0,10.3,10.4,10.3H811.1c0,0,10.4,0,10.4,-10.3V975.5c0,0,0,-10.4,-10.4,-10.4H665.6Z" class="g3_366"/>
<path d="M696.8,1062.6c0,0,-4.5,17,-22.8,17.6c0,0,7.6,-8.6,6.5,-17.6" class="g4_366"/>
<path d="M502.4,1105.6c0,0,-10.3,0,-10.3,13.9V1196c0,0,0,13.9,10.3,13.9H682.8c0,0,10.4,0,10.4,-13.9v-76.5c0,0,0,-13.9,-10.4,-13.9Z" class="g1_366"/>
<path d="M502.4,1105.6c0,0,-10.3,0,-10.3,13.9V1196c0,0,0,13.9,10.3,13.9H682.8c0,0,10.4,0,10.4,-13.9v-76.5c0,0,0,-13.9,-10.4,-13.9H502.4Z" class="g3_366"/>
<path d="M533.7,1110.6c0,0,-4.5,-17,-22.9,-17.7c0,0,7.6,8.7,6.6,17.7" class="g4_366"/>
<path d="M501.1,1198.3H691.6v-78.8H501.1v78.8Z" class="g1_366"/>
<path d="M233.6,1105.6c0,0,-10.4,0,-10.4,10.4v64.6c0,0,0,10.4,10.4,10.4H379.2c0,0,10.3,0,10.3,-10.4V1116c0,0,0,-10.4,-10.3,-10.4Z" class="g1_366"/>
<path d="M233.6,1105.6c0,0,-10.4,0,-10.4,10.4v64.6c0,0,0,10.4,10.4,10.4H379.2c0,0,10.3,0,10.3,-10.4V1116c0,0,0,-10.4,-10.3,-10.4H233.6Z" class="g3_366"/>
<path d="M335.9,1110.6c0,0,4.5,-17,22.8,-17.7c0,0,-7.6,8.7,-6.5,17.7" class="g4_366"/>
<path d="M230.1,1181.2H386v-63.5H230.1v63.5Z" class="g1_366"/>
<path d="M166.9,778.9c0,0,-10.3,0,-10.3,10.4v76.4c0,0,0,10.4,10.3,10.4H333.8c0,0,10.3,0,10.3,-10.4V789.3c0,0,0,-10.4,-10.3,-10.4Z" class="g1_366"/>
<path d="M166.9,778.9c0,0,-10.3,0,-10.3,10.4v76.4c0,0,0,10.4,10.3,10.4H333.8c0,0,10.3,0,10.3,-10.4V789.3c0,0,0,-10.4,-10.3,-10.4H166.9Z" class="g3_366"/>
<path d="M293.2,873.4c0,0,4.5,16.9,22.8,17.6c0,0,-7.6,-8.6,-6.5,-17.6" class="g4_366"/>
<path d="M164.2,866.9h171V788.1h-171v78.8Z" class="g1_366"/>
<path d="M175.2,905.4c0,0,-10.4,0,-10.4,10.4v90.5c0,0,0,10.4,10.4,10.4H335.1c0,0,10.4,0,10.4,-10.4V915.8c0,0,0,-10.4,-10.4,-10.4Z" class="g1_366"/>
<path d="M175.2,905.4c0,0,-10.4,0,-10.4,10.4v90.5c0,0,0,10.4,10.4,10.4H335.1c0,0,10.4,0,10.4,-10.4V915.8c0,0,0,-10.4,-10.4,-10.4H175.2Z" class="g3_366"/>
<path d="M303.2,1014c0,0,4.5,16.9,22.9,17.6c0,0,-7.7,-8.6,-6.6,-17.6" class="g4_366"/>
<path d="M173,1010.2H337.6v-94H173v94Z" class="g1_366"/>
<path d="M180.7,618.9c0,0,-12.2,0,-12.2,12.2V637c0,0,0,12.2,12.2,12.2H459.5c0,0,12.2,0,12.2,-12.2v-5.9c0,0,0,-12.2,-12.2,-12.2Z" class="g5_366"/>
<path d="M209.6,472.4c0,0,-12.9,0,-12.9,13v104c0,0,0,13,12.9,13h602c0,0,13,0,13,-13v-104c0,0,0,-13,-13,-13Z" class="g6_366"/>
<image clip-path="url(#c2_366)" preserveAspectRatio="none" x="153" y="525" width="75" height="76" xlink:href="img/2.png"/>
<path d="M204.4,595c0,0,-26.8,11.3,-51.1,-12.8c0,0,15.2,25.4,49.3,24c0,0,24.8,.3,20.3,-10.1c0,0,1.2,-4.5,-18.5,-1.1Z" class="g6_366"/>
<path d="M32.1,179.3H967.5V32.1H32.1V179.3Z" class="g7_366"/>
<path d="M260.9,131.9c-2.3,-2.4,-4.7,-3.6,-7.3,-3.6c-.9,0,-2,.4,-3,1.2c-1.1,.9,-1.6,1.8,-1.6,2.7c0,.4,.1,.7,.4,1l.9,.8h-3.2l1.2,1.2h1.8v11.3l1.2,1.2V135.2h2.1L252.2,134h-1.3l-.5,-1.1c.1,-.9,.6,-1.6,1.6,-2.3c1,-.7,1.9,-1,2.8,-1c.6,0,1.2,.1,1.8,.2c.6,.2,1.1,.4,1.7,.7c.6,.4,1.1,.7,1.6,1c.4,.4,.9,.7,1.3,1l-.3,-.6Zm5.2,3.3L264.9,134c-.7,-.1,-1.1,-.6,-1.2,-1.5l-.7,-.6l.2,5.3h-.1c-.1,-.5,-.5,-1.2,-1.2,-2c-.7,-.8,-1.3,-1.2,-1.7,-1.2c-1.3,0,-2.3,.8,-3,2.4c-.2,-.7,-.5,-1.2,-1.1,-1.7c-.5,-.5,-1.1,-.7,-1.7,-.7h-2.6l1.2,1.2c.1,0,.6,0,1.4,0c.7,0,1.4,.5,2,1.5c-.3,.1,-.6,.2,-.9,.4c-.2,.2,-.4,.4,-.6,.7c-.2,.2,-.4,.5,-.5,.8c-.1,.2,-.1,.5,-.1,.8c0,.4,.1,.8,.4,1.2c.3,.3,.6,.5,1,.5c1,0,1.6,-.5,2,-1.5c.2,.5,.4,.8,.7,1.1c.4,.2,.7,.4,1.1,.4c.6,-.1,1,-.3,1.2,-.7c.3,-.3,.5,-.7,.5,-1.2c0,-.6,-.7,-1.3,-1.9,-2.2c0,-.3,.1,-.6,.4,-.7c.3,-.2,.6,-.3,.9,-.3c.5,0,1,.3,1.6,1c.5,.8,.8,1.4,.8,1.9l-.1,7.7l1.2,1.2V135.2h2ZM277.7,134H264.6l1.2,1.2h9.9v2c-.3,-.5,-.5,-.8,-.7,-1c-.2,-.2,-.6,-.3,-1,-.3c-.3,0,-.6,.2,-1,.5c-.4,.4,-.5,.7,-.5,1c-.9,-1,-1.8,-1.6,-2.8,-1.6c-.8,0,-1.4,.4,-2,1.2c-.4,.7,-.6,1.5,-.6,2.3c0,.6,.1,1.2,.3,1.7c.4,.6,.8,1,1.3,1.3c-.3,.2,-.6,.5,-1,1c-.2,.3,-.3,.6,-.4,.8c-.1,.2,-.2,.4,-.2,.5c0,.2,.1,.4,.3,.6c.2,.3,.4,.4,.6,.4c.2,0,.5,-.1,.9,-.3c.4,-.1,.6,-.2,.9,-.2c.5,0,.7,.4,.7,1.2c0,.3,-.1,.6,-.4,.9c-.2,.3,-.4,.6,-.7,.8l-.2,.2l1.8,.6l4.2,-4.2c.1,.1,.3,.3,.4,.5c.2,.3,.3,.7,.4,1.2c.2,.5,.2,1.1,.3,1.7c0,.6,0,1.1,.1,1.6c0,0,.1,.1,.2,.1c.2,.1,.3,.2,.3,.2V135.2h2L277.7,134Zm-2,9.9c-.1,-.3,-.2,-.7,-.4,-1c-.2,-.3,-.5,-.6,-.9,-.9c-.4,-.3,-.7,-.5,-1.1,-.7c-.4,-.1,-.7,-.2,-1.1,-.3c.1,-.5,0,-.9,-.3,-1.2c-.2,-.4,-.6,-.5,-1,-.5c-.4,0,-.7,.1,-1,.4c-.3,.2,-.4,.5,-.4,.9c0,.1,0,.3,.1,.4c0,.2,.1,.4,.3,.6c-1.2,-.2,-1.7,-.8,-1.7,-1.7c0,-.7,.2,-1.2,.6,-1.7c.5,-.4,1,-.6,1.6,-.6c1.4,0,2.4,.7,2.8,2.2c0,0,.1,0,.2,-.1c.1,0,.2,0,.2,-.1c0,-.2,0,-.5,0,-.7c0,-.9,.3,-1.3,1,-1.3c.4,0,.7,.2,.9,.5c.2,.3,.3,.7,.3,1v1c0,.4,0,.9,0,1.4c-.1,.5,-.1,1,-.1,1.4v1Zm-4.5,2.4c0,-.1,0,-.2,0,-.3v-.1c0,-.3,0,-.5,-.1,-.7c-.1,-.3,-.2,-.5,-.3,-.6c-.2,-.2,-.3,-.3,-.5,-.4c-.2,-.1,-.5,-.2,-.7,-.2h-.2c.6,-1.1,1.5,-1.6,2.9,-1.6c.7,0,1.3,.3,1.9,.9l-3,3Zm27.7,-14.4c-2.3,-2.4,-4.8,-3.6,-7.3,-3.6c-1,0,-2,.4,-3.1,1.2c-1,.9,-1.6,1.8,-1.6,2.7c0,.4,.2,.7,.5,1l.8,.8H285l1.2,1.2H288v11.3l1.3,1.2V135.2h2.1L290.1,134h-1.3l-.4,-1.1c0,-.9,.6,-1.6,1.6,-2.3c.9,-.7,1.9,-1,2.8,-1c.6,0,1.2,.1,1.8,.2c.5,.2,1.1,.4,1.6,.7c.6,.4,1.2,.7,1.6,1c.5,.4,.9,.7,1.3,1l-.2,-.6Zm3.7,3.3L301.3,134H289.7l1.2,1.2h8.4v6.6h-.1c-1.2,-2.6,-2.7,-4,-4.4,-4c-.8,0,-1.5,.3,-2.1,.9c-.6,.5,-.9,1.2,-.9,2c0,1.5,.8,2.2,2.4,2.2c.5,0,.9,-.2,1.2,-.5c.3,-.4,.4,-.8,.4,-1.3c0,-.3,-.3,-.8,-.8,-1.5c.1,-.1,.2,-.1,.4,-.1c1.2,0,2.3,.8,3.3,2.5c.6,1.4,.9,2.9,.9,4.2l-.1,1.3l1,.6V135.2h2.1Zm11.3,0L312.7,134H300.9l1.2,1.2h8.2v.9c-2.5,.8,-5,2.1,-7.4,3.7l1.6,2.3c1.7,.1,3,.7,4,1.6c.3,.3,.6,.6,1,1c.3,.4,.5,.8,.7,1c.1,.3,.3,.7,.6,1.3l.6,.8V135.2h2.5Zm-3.6,9.4c-1.1,-1.8,-2.7,-3.2,-4.9,-4.1c.9,-.6,1.7,-1.1,2.5,-1.5c.8,-.4,1.6,-.7,2.4,-1v6.6Zm-4.7,1.7c.2,.3,.5,.4,.8,.4c.4,0,.7,-.1,.9,-.4c.3,-.2,.4,-.5,.4,-.8c0,-.4,-.1,-.7,-.4,-.9c-.2,-.3,-.5,-.4,-.9,-.4c-.3,0,-.6,.1,-.8,.4c-.3,.2,-.4,.5,-.4,.9c0,.3,.1,.6,.4,.8Zm12.7,-11.1L317.1,134H316c-.3,-.4,-.6,-1,-.7,-1.9l-.5,-.3c0,.2,0,.5,.1,.9c0,.3,0,.7,0,1.2c.1,.5,.1,.9,.1,1.3c0,.3,0,.6,0,.9c-.2,-.8,-.5,-1.3,-.9,-1.6c-.4,-.3,-1,-.5,-1.7,-.5H311l1.2,1.2c.3,0,.7,.1,1,.2c.3,.1,.6,.3,.9,.5c.2,.2,.4,.4,.5,.7c.2,.3,.3,.7,.3,1v8.9l1.1,1.2V135.2h2.3Zm12.9,0L330,134c-.1,0,-.2,0,-.4,0c-.4,0,-.7,-.2,-.9,-.6c0,-.2,-.1,-.6,-.2,-1.2l-.5,-.5c0,1.1,.1,2.2,.1,3.2c.1,1.1,.1,2.1,.2,3.2h-.1c-1.5,-2.6,-3.1,-3.9,-4.9,-3.9c-.4,0,-.9,.1,-1.4,.3c-.5,.1,-1,.4,-1.5,.7c-.6,.4,-1,.8,-1.3,1.2c-.3,.4,-.5,.9,-.5,1.3c0,.2,.1,.5,.3,.7c.2,.2,.4,.3,.6,.3c.3,0,.5,-.1,.9,-.3c.2,-.1,.4,-.1,.5,-.2c.1,0,.2,0,.4,0c.4,0,.7,.4,.7,1.2c0,.5,-.4,1.1,-1.3,1.9l1.8,.6l4.2,-4.2c.1,.1,.3,.2,.4,.4c.2,.2,.3,.4,.5,.6c.1,.3,.3,.5,.3,.7c.1,.3,.2,.5,.2,.6l-.2,6.4l1.3,1.3V135.2h2Zm-8.5,4.2c.1,-.7,-.1,-1.2,-.3,-1.6c-.3,-.5,-.8,-.7,-1.4,-.7c.5,-1.1,1.4,-1.6,2.8,-1.6c.7,0,1.3,.3,1.8,.9l-2.9,3Zm21.1,-4.2L342.5,134H329.7l1.2,1.2h12.9Zm-1.3,7.4c-.1,-.4,-.4,-.7,-.7,-1.1c.6,-.7,.9,-1.6,.9,-2.9c0,-.8,-.3,-1.5,-1,-2c-.6,-.6,-1.3,-.8,-2.1,-.8c-.5,0,-1.1,0,-1.6,.2c-.6,.2,-1.1,.4,-1.6,.7c-.5,.4,-1,.8,-1.3,1.3c-.3,.4,-.4,.9,-.5,1.4c.1,1.2,.6,1.8,1.7,1.8c.8,0,1.2,-.4,1.2,-1c0,-.6,-.2,-1.1,-.7,-1.5c.8,-1.1,2,-1.7,3.5,-1.7c.4,0,.8,.1,1,.4c.3,.2,.5,.5,.5,1c0,.7,-.3,1.1,-.9,1.4c-.4,-.2,-.7,-.2,-1,-.2c-.4,0,-.7,.1,-1,.4c-.2,.3,-.4,.7,-.4,1.1c0,.4,.2,.7,.5,1c.2,.3,.6,.4,1,.4c.4,0,.8,-.2,1.1,-.5c.5,.4,.7,.8,.7,1.2c0,.7,-.3,1.2,-.8,1.7c-.6,.4,-1.2,.5,-1.9,.5c-1.6,0,-3.1,-1,-4.4,-2.9c-.3,-.5,-.6,-1.1,-1,-1.9c-.5,-.9,-.9,-2,-1.5,-3.3v.1l-.8,-.5c2,6.9,4.5,10.3,7.7,10.3c2.4,0,3.7,-1.1,3.7,-3.4c0,-.4,-.1,-.8,-.3,-1.2Zm6,-7.4L347.4,134h-1.1c-.4,-.4,-.6,-1,-.7,-1.9l-.5,-.3c0,.2,0,.5,0,.9c.1,.3,.1,.7,.1,1.2c.1,.5,.1,.9,.1,1.3c0,.3,0,.6,0,.9c-.2,-.8,-.5,-1.3,-.9,-1.6c-.4,-.3,-1,-.5,-1.7,-.5h-1.4l1.2,1.2c.3,0,.7,.1,1,.2c.3,.1,.6,.3,.8,.5c.3,.2,.5,.4,.6,.7c.2,.3,.2,.7,.2,1v8.9l1.2,1.2V135.2h2.2Zm18.9,13c-1.1,-1,-2.1,-1.8,-3,-2.5c-.9,-.7,-1.7,-1.3,-2.4,-1.7c2.3,-.7,3.4,-2,3.4,-4c0,-1.1,-.5,-2,-1.4,-2.9c-.6,-.6,-1.6,-1.2,-2.9,-1.9c0,-.8,-.5,-1.3,-1.3,-1.3c-.4,0,-.7,.2,-.9,.5c-.3,.2,-.4,.6,-.4,.9c0,.5,.5,1.1,1.5,1.6c.5,.2,1,.5,1.4,.7c.5,.3,1,.5,1.4,.8c1.1,.7,1.6,1.4,1.6,2.2c0,.5,-.3,.9,-.9,1.2c-.6,.3,-1.1,.5,-1.7,.5c-.4,0,-.8,-.1,-1.3,-.2c-.5,-.1,-1,-.3,-1.6,-.6c-1.1,-.4,-1.9,-.9,-2.2,-1.4l1.2,3.9c.8,.2,1.7,.5,2.6,.8c1,.4,1.8,.8,2.7,1.4c.8,.5,1.6,1,2.4,1.6c.7,.6,1.4,1.2,2,1.9l-.2,-1.5Z" class="g8_366"/>
<g clip-path="url(#c0_366)">
<path d="M1877,177.2H32.1v-5.4H768.7c43.1,0,53,-37.9,115.3,-37.9h993Z" class="g9_366"/>
<path d="M1877,183.7H32.1v-9.8H768.7c43.1,0,53,-33.6,115.3,-33.6h993Z" class="ga_366"/>
</g>
<path d="M131.7,433.5v22.2l11.7,10.2V443.7Z" class="gb_366"/>
<path d="M131.7,416.7v39H829.4c0,0,16.9,0,16.9,-16.8v-5.4c0,0,0,-16.8,-16.9,-16.8Z" class="gc_366"/>
<path d="M189.6,428.1l-6.4,-6.5L162,442.8l6.4,6.5Z" class="gd_366"/>
<path d="M168.4,449.8c.2,0,.3,0,.4,-.1L190,428.5c.1,-.1,.2,-.3,.2,-.4c0,-.1,-.1,-.3,-.2,-.4l-6.5,-6.4c-.2,-.3,-.5,-.3,-.7,0l-21.2,21.2c-.1,.1,-.2,.2,-.2,.3c0,.2,.1,.3,.2,.4l6.5,6.5c.1,.1,.2,.1,.3,.1m20.5,-21.7l-20.5,20.5l-5.7,-5.8l20.5,-20.4Z" class="ge_366"/>
<path d="M189.6,428.1l-6.4,-6.5l2.1,-2.1l6.5,6.5Z" class="gf_366"/>
<path d="M189.6,428.6c.2,0,.3,0,.4,-.1l2.1,-2.2c.1,-.1,.2,-.2,.2,-.3c0,-.2,-.1,-.3,-.2,-.4l-6.4,-6.5c-.2,-.2,-.6,-.2,-.8,0l-2.1,2.2c-.1,.1,-.2,.2,-.2,.3c0,.2,.1,.3,.2,.4l6.5,6.5c.1,.1,.2,.1,.3,.1M191,426l-1.4,1.4l-5.7,-5.8l1.4,-1.4Z" class="ge_366"/>
<path d="M195.4,422.4l-6.5,-6.5l-3.6,3.6l6.5,6.5Z" class="gg_366"/>
<path d="M191.8,426.5c.1,0,.2,-.1,.3,-.2l3.7,-3.6c.2,-.2,.2,-.5,0,-.7l-6.5,-6.5c-.2,-.2,-.6,-.2,-.8,0l-3.6,3.6c-.2,.2,-.2,.6,0,.8l6.5,6.4c.1,.1,.2,.2,.4,.2m2.8,-4.1l-2.8,2.8L186,419.5l2.9,-2.9Z" class="ge_366"/>
<path d="M157.3,453.9L162,442.8l6.4,6.5Z" class="g1_366"/>
<path d="M157.3,454.5c.1,0,.2,0,.2,-.1l11.1,-4.6c.2,-.1,.3,-.2,.4,-.4c0,-.2,-.1,-.3,-.2,-.5l-6.5,-6.4c-.1,-.2,-.3,-.2,-.5,-.2c-.1,0,-.3,.2,-.3,.3l-4.7,11.1c0,.2,0,.5,.1,.6c.1,.1,.3,.2,.4,.2m10.2,-5.4l-9.2,3.9l3.8,-9.2Z" class="ge_366"/>
<path d="M157.3,453.9l2.3,-5.3l3.1,3.1Z" class="ge_366"/>
<path d="M157.3,454.5c.1,0,.2,0,.2,-.1l5.4,-2.2c.1,-.1,.3,-.2,.3,-.4c0,-.2,0,-.3,-.1,-.5l-3.2,-3.1c-.1,-.1,-.3,-.2,-.4,-.1c-.2,0,-.4,.1,-.4,.3l-2.3,5.3c0,.2,0,.5,.1,.6c.1,.1,.3,.2,.4,.2m4.5,-3l-3.5,1.5l1.4,-3.5Z" class="ge_366"/>
<path d="M187.9,426.3l-3,-2.9l-21.2,21.2l3,3Z" class="gh_366"/>
<path d="M166.7,448.1c.1,0,.2,-.1,.3,-.2l21.3,-21.2c.1,-.1,.1,-.2,.1,-.4c0,-.1,0,-.2,-.1,-.3l-3,-3c-.2,-.2,-.5,-.2,-.8,0l-21.2,21.2c-.1,.1,-.1,.3,-.1,.4c0,.1,0,.3,.1,.4l3,2.9c.1,.1,.2,.2,.4,.2m20.4,-21.8l-20.4,20.5l-2.2,-2.2l20.4,-20.5Z" class="ge_366"/>
<image clip-path="url(#c3_366)" preserveAspectRatio="none" x="125" y="206" width="734" height="181" xlink:href="img/3.png"/>
<path d="M144.6,231.3c0,0,-13,0,-13,13v117c0,0,0,13,13,13H833.1c0,0,13,0,13,-13v-130Z" class="gi_366"/>
<path d="M147.7,294.1l54.1,40.8l54.1,-40.8V230h8.7V211.9H155.8c-6.5,.4,-7.7,3.9,-8.2,8.4Z" class="gj_366"/>
<path d="M274,220.3c-.3,-4.7,-4.2,-8.4,-9,-8.4c-4.8,0,-8.7,3.7,-9,8.4h-.1V230h18.2v-9.7Z" class="gk_366"/>
<path d="M255.9,230.6H846.1" class="gl_366"/>
<path d="M32.1,45.1H9.2m958.3,0h22.9M32.1,1331.3H9.2m958.3,0h22.9M45.1,32.1V9.2m0,1335.1v22.9M954.5,32.1V9.2m0,1335.1v22.9" class="gm_366"/>
<path d="M32.1,45.1H9.2m958.3,0h22.9M32.1,1331.3H9.2m958.3,0h22.9M45.1,32.1V9.2m0,1335.1v22.9M954.5,32.1V9.2m0,1335.1v22.9" class="gn_366"/>
<path d="M27.5,32.1H0m972.1,0h27.5M27.5,1344.3H0m972.1,0h27.5M32.1,27.5V0m0,1348.9v27.5M967.5,27.5V0m0,1348.9v27.5" class="gm_366"/>
<path d="M27.5,32.1H0m972.1,0h27.5M27.5,1344.3H0m972.1,0h27.5M32.1,27.5V0m0,1348.9v27.5M967.5,27.5V0m0,1348.9v27.5" class="gn_366"/>
</svg>