<?xml version="1.0" encoding="UTF-8" standalone="no"?>
<!DOCTYPE svg PUBLIC "-//W3C//DTD SVG 1.1//EN"
"http://www.w3.org/Graphics/SVG/1.1/DTD/svg11.dtd">
<svg viewBox="0 0 999 1376" version="1.1" xmlns="http://www.w3.org/2000/svg" xmlns:xlink="http://www.w3.org/1999/xlink">
<defs>
<clipPath id="c0_272"><path d="M32.1,1344.3V32.1H967.5V1344.3Z"/></clipPath>
<clipPath id="c1_272"><path d="M186,691.8l-6.5,-2.1l-16.4,-14V618.6H235v73.2Z"/></clipPath>
<clipPath id="c2_272"><path d="M186,290.6l-6.5,-2.2L163.1,274.5V217.4H235v73.2Z"/></clipPath>
<clipPath id="c3_272"><path d="M214,603.7V361.2H346.1V603.7Z"/></clipPath>
<style type="text/css"><![CDATA[
.g0_272{
fill: #FEFCF4;
}
.g1_272{
fill: #F16865;
}
.g2_272{
fill: #FAC3B8;
}
.g3_272{
fill: #EE314A;
}
.g4_272{
fill: #26292E;
}
.g5_272{
fill: #C5CACC;
}
.g6_272{
fill: #FFF;
}
.g7_272{
fill: #F1EBEB;
}
.g8_272{
fill: #F7943B;
}
.g9_272{
fill: #ACB5B9;
}
.ga_272{
fill: #CFD3D5;
}
.gb_272{
fill: #FCE8B0;
}
.gc_272{
fill: none;
stroke: #6381B7;
stroke-width: 0.763;
}
.gd_272{
fill: #E3E7F2;
}
.ge_272{
fill: none;
stroke: #231F20;
stroke-width: 0.458;
stroke-miterlimit: 10;
}
.gf_272{
fill: none;
stroke: #EE1D23;
stroke-width: 0.763;
}
.gg_272{
fill: #6381B7;
}
.gh_272{
fill: none;
stroke: #6381B7;
stroke-width: 0.381;
stroke-dasharray: 2,1;
}
.gi_272{
fill: none;
stroke: #6381B7;
stroke-width: 0.381;
}
.gj_272{
fill: none;
stroke: #FFF;
stroke-width: 1.909;
stroke-miterlimit: 10;
}
.gk_272{
fill: none;
stroke: #000;
stroke-width: 0.381;
stroke-miterlimit: 10;
}
]]></style>
</defs>
<path d="M32.1,1344.3H954.5V32.1H32.1V1344.3Z" class="g0_272"/>
<g clip-path="url(#c0_272)">
<path d="M954.5,1344.3H1877V32.1H954.5V1344.3Z" class="g0_272"/>
<path d="M1777.4,166.7c0,0,30.3,0,30.3,-30.3v-4.3c0,0,0,-30.3,-30.3,-30.3H173.9c0,0,-30.3,0,-30.3,30.3v4.3c0,0,0,30.3,30.3,30.3Z" class="g1_272"/>
</g>
<path d="M186.5,132.1c0,27.1,-22,49,-49.1,49c-27,0,-49,-21.9,-49,-49c0,-27.1,22,-49.1,49,-49.1c27.1,0,49.1,22,49.1,49.1Z" class="g2_272"/>
<path d="M178.1,104.6c15.2,22.5,9.2,53,-13.2,68.1c-22.5,15.2,-53,9.3,-68.1,-13.2Z" class="g3_272"/>
<path d="M96.8,159.5h81.3V104.7H96.8v54.8Z" class="g4_272"/>
<path d="M137.7,156.8h16.8V136.6H137.7v20.2Z" class="g5_272"/>
<path d="M143.1,156.8h33.7V102.6H143.1v54.2Z" class="g5_272"/>
<path d="M141.6,103v50c.5,-.3,1,-.4,1.5,-.4h33.7v-50H143.1c-.5,0,-1,.2,-1.5,.4Z" class="g6_272"/>
<path d="M137.7,109v47.8c0,0,2.5,-3.1,3.9,-3.8V103c-2.2,1.1,-3.9,4.3,-3.9,6Z" class="g7_272"/>
<path d="M143.5,112.3h29.1v-1.4H143.5v1.4Z" class="g5_272"/>
<path d="M143.5,115.5h29.1v-1.4H143.5v1.4Z" class="g5_272"/>
<path d="M143.5,118.8h29.1v-1.5H143.5v1.5Z" class="g5_272"/>
<path d="M143.5,122h29.1v-1.5H143.5V122Z" class="g5_272"/>
<path d="M143.5,125.2h29.1v-1.5H143.5v1.5Z" class="g5_272"/>
<path d="M143.5,128.4h29.1v-1.5H143.5v1.5Z" class="g5_272"/>
<path d="M143.5,131.6h29.1v-1.5H143.5v1.5Z" class="g5_272"/>
<path d="M143.5,134.8h29.1v-1.5H143.5v1.5Z" class="g5_272"/>
<path d="M143.5,138h29.1v-1.4H143.5V138Z" class="g5_272"/>
<path d="M143.5,141.2h29.1v-1.4H143.5v1.4Z" class="g5_272"/>
<path d="M143.5,144.4h29.1V143H143.5v1.4Z" class="g5_272"/>
<path d="M143.5,147.6h29.1v-1.4H143.5v1.4Z" class="g5_272"/>
<path d="M159.7,150.9l1,-.9l1,.9v-49h-2Z" class="g8_272"/>
<path d="M120.9,156.8h16.8V136.6H120.9v20.2Z" class="g9_272"/>
<path d="M98.6,156.8h33.6V102.6H98.6v54.2Z" class="g9_272"/>
<path d="M98.6,102.6v50h33.6c.6,0,1.1,.1,1.6,.4V103c-.5,-.2,-1,-.4,-1.6,-.4Z" class="g6_272"/>
<path d="M133.8,103v50c1.4,.7,3.9,3.8,3.9,3.8V109c0,-1.7,-1.7,-4.9,-3.9,-6Z" class="ga_272"/>
<path d="M109.7,112.3h14.5v-1.4H109.7v1.4Z" class="g5_272"/>
<path d="M102.8,118.8h29.1v-1.5H102.8v1.5Z" class="g5_272"/>
<path d="M102.8,122h29.1v-1.5H102.8V122Z" class="g5_272"/>
<path d="M102.8,125.2h29.1v-1.5H102.8v1.5Z" class="g5_272"/>
<path d="M102.8,128.4h29.1v-1.5H102.8v1.5Z" class="g5_272"/>
<path d="M102.8,131.6h29.1v-1.5H102.8v1.5Z" class="g5_272"/>
<path d="M102.8,134.8h29.1v-1.5H102.8v1.5Z" class="g5_272"/>
<path d="M102.8,138h29.1v-1.4H102.8V138Z" class="g5_272"/>
<path d="M102.8,141.2h29.1v-1.4H102.8v1.4Z" class="g5_272"/>
<path d="M102.8,144.4h29.1V143H102.8v1.4Z" class="g5_272"/>
<path d="M102.8,147.6h29.1v-1.4H102.8v1.4Z" class="g5_272"/>
<path d="M218.6,620.8c0,0,-13,0,-13,13v47.6c0,0,0,13,13,13H833.3c0,0,13,0,13,-13V633.8c0,0,0,-13,-13,-13Z" class="gb_272"/>
<image clip-path="url(#c1_272)" preserveAspectRatio="none" x="161" y="617" width="75" height="76" xlink:href="img/1.png"/>
<path d="M213.4,687.1c0,0,-26.9,11.3,-51.1,-12.8c0,0,15.1,25.3,49.3,24c0,0,24.7,.3,20.2,-10.2c0,0,1.2,-4.4,-18.4,-1Z" class="gb_272"/>
<path d="M218.6,219.6c0,0,-13,0,-13,13v47.6c0,0,0,13,13,13H833.3c0,0,13,0,13,-13V232.6c0,0,0,-13,-13,-13Z" class="gb_272"/>
<image clip-path="url(#c2_272)" preserveAspectRatio="none" x="161" y="216" width="75" height="76" xlink:href="img/2.png"/>
<path d="M213.4,285.9c0,0,-26.9,11.2,-51.1,-12.8c0,0,15.1,25.3,49.3,24c0,0,24.7,.3,20.2,-10.2c0,0,1.2,-4.4,-18.4,-1Z" class="gb_272"/>
<path d="M145.1,304c0,0,-13,0,-13,13V593.8c0,0,0,13,13,13H832.9c0,0,13,0,13,-13V317c0,0,0,-13,-13,-13Z" class="g6_272"/>
<path d="M145.1,304c0,0,-13,0,-13,13V593.8c0,0,0,13,13,13H832.9c0,0,13,0,13,-13V317c0,0,0,-13,-13,-13H145.1Z" class="gc_272"/>
<path d="M145.1,707.4c0,0,-13,0,-13,13v468.9c0,0,0,13,13,13H832.9c0,0,13,0,13,-13V720.4c0,0,0,-13,-13,-13Z" class="g6_272"/>
<path d="M145.1,707.4c0,0,-13,0,-13,13v468.9c0,0,0,13,13,13H832.9c0,0,13,0,13,-13V720.4c0,0,0,-13,-13,-13H145.1Z" class="gc_272"/>
<path d="M198.8,843.8h615v-65h-615v65Z" class="gd_272"/>
<path d="M354.3,834.1h90.2" class="ge_272"/>
<path d="M198.8,963.8h615V903.2h-615v60.6Z" class="gd_272"/>
<path d="M332.3,952.9h90.3" class="ge_272"/>
<path d="M177.2,1124.1H813.8v-69.3H177.2v69.3Z" class="gd_272"/>
<path d="M189.9,1113.7H213v-23H189.9v23Zm25.7,0h23.1v-23H215.6v23Zm25.7,0h23v-23h-23v23Zm25.7,0h23v-23H267v23Zm25.7,0h23v-23h-23v23Zm25.6,0h23.1v-23H318.3v23Zm25.7,0h23.1v-23H344v23Zm25.7,0h23.1v-23H369.7v23Zm25.7,0h23.1v-23H395.4v23Zm25.7,0h23v-23h-23v23Zm25.7,0h23v-23h-23v23Zm25.7,0h23v-23h-23v23Zm25.6,0h23.1v-23H498.1v23Zm25.7,0h23.1v-23H523.8v23Zm25.7,0h23.1v-23H549.5v23Zm25.7,0h23.1v-23H575.2v23Z" class="gf_272"/>
<image clip-path="url(#c3_272)" preserveAspectRatio="none" x="212" y="360" width="136" height="245" xlink:href="img/3.png"/>
<path d="M608.4,1217.9c0,0,-4.3,0,-4.3,4.3V1233c0,0,0,4.4,4.3,4.4h30.4c0,0,4.3,0,4.3,-4.4v-10.8c0,0,0,-4.3,-4.3,-4.3Z" class="gg_272"/>
<path d="M595.3,1210.4v34.8m1.3,1H845.1m1,-1.3V1210m-1.4,-1H596.2" class="gh_272"/>
<path d="M595.3,1245.6v.6h.5m249.7,0h.6v-.6m0,-36v-.6h-.6m-249.7,0h-.5v.6" class="gi_272"/>
<path d="M32.1,45.1H9.2m958.3,0h22.9M32.1,1331.3H9.2m958.3,0h22.9M45.1,32.1V9.2m0,1335.1v22.9M954.5,32.1V9.2m0,1335.1v22.9" class="gj_272"/>
<path d="M32.1,45.1H9.2m958.3,0h22.9M32.1,1331.3H9.2m958.3,0h22.9M45.1,32.1V9.2m0,1335.1v22.9M954.5,32.1V9.2m0,1335.1v22.9" class="gk_272"/>
<path d="M27.5,32.1H0m972.1,0h27.5M27.5,1344.3H0m972.1,0h27.5M32.1,27.5V0m0,1348.9v27.5M967.5,27.5V0m0,1348.9v27.5" class="gj_272"/>
<path d="M27.5,32.1H0m972.1,0h27.5M27.5,1344.3H0m972.1,0h27.5M32.1,27.5V0m0,1348.9v27.5M967.5,27.5V0m0,1348.9v27.5" class="gk_272"/>
</svg>