<?xml version="1.0" encoding="UTF-8" standalone="no"?>
<!DOCTYPE svg PUBLIC "-//W3C//DTD SVG 1.1//EN"
"http://www.w3.org/Graphics/SVG/1.1/DTD/svg11.dtd">
<svg viewBox="0 0 999 1376" version="1.1" xmlns="http://www.w3.org/2000/svg" xmlns:xlink="http://www.w3.org/1999/xlink">
<defs>
<clipPath id="c0_191"><path d="M32.1,1344.3V32.1H967.5V1344.3Z"/></clipPath>
<clipPath id="c1_191"><path d="M198.7,971.6l-6.5,-2.1L175.8,955.6V898.5h72v73.1Z"/></clipPath>
<clipPath id="c2_191"><path d="M230.8,420.7v-86H325v86Z"/></clipPath>
<clipPath id="c3_191"><path d="M697,420.7v-86h94.3v86Z"/></clipPath>
<clipPath id="c4_191"><path d="M578.5,420.7v-86h94.3v86Z"/></clipPath>
<clipPath id="c5_191"><path d="M460,420.7v-86h94.2v86Z"/></clipPath>
<clipPath id="c6_191"><path d="M341.4,420.7v-86h94.3v86Z"/></clipPath>
<clipPath id="c7_191"><path d="M226.8,684.1V611h94.3v73.1Z"/></clipPath>
<clipPath id="c8_191"><path d="M582.4,685.1v-75h94.3v75Z"/></clipPath>
<clipPath id="c9_191"><path d="M230.8,820V745H325v75Z"/></clipPath>
<clipPath id="ca_191"><path d="M697,820.4V744.6h94.3v75.8Z"/></clipPath>
<clipPath id="cb_191"><path d="M728.5,1089.7v-74.6H812v74.6Z"/></clipPath>
<clipPath id="cc_191"><path d="M595.9,1085.7v-62.5l8.6,-7.5h64.4l11.3,13v38.9l-20.8,18.1Z"/></clipPath>
<clipPath id="cd_191"><path d="M464.3,1086.1v-48.7l14.8,-18h59.1l14.4,12.2v54.5Z"/></clipPath>
<clipPath id="ce_191"><path d="M342.8,1087l-7.6,-13.1v-41.4L353.4,1022h65.7l10.3,17.8v25.9l-29.9,17.2l-7,4.1Z"/></clipPath>
<clipPath id="cf_191"><path d="M212.2,1078.3l-7.8,-33.7v-6.9l8.8,-2.1l21.4,-4.9H286l2.8,12.1l7,30.2l-23,5.3Z"/></clipPath>
<clipPath id="cg_191"><path d="M198.7,319.3l-6.5,-2.1L175.8,303.3V246.2h72v73.1Z"/></clipPath>
<clipPath id="ch_191"><path d="M658.6,177V59h200V177Z"/></clipPath>
<style type="text/css"><![CDATA[
.g0_191{
fill: #FEFCF4;
}
.g1_191{
fill: #FCE8B0;
}
.g2_191{
fill: #FFF;
}
.g3_191{
fill: none;
stroke: #6381B7;
stroke-width: 0.763;
}
.g4_191{
fill: none;
stroke: #949698;
stroke-width: 0.363;
}
.g5_191{
fill: #93BEDA;
}
.g6_191{
fill: #EFE9CC;
}
.g7_191{
fill: #6381B7;
}
.g8_191{
fill: none;
stroke: #6381B7;
stroke-width: 0.381;
stroke-dasharray: 2,1;
}
.g9_191{
fill: none;
stroke: #6381B7;
stroke-width: 0.381;
}
.ga_191{
fill: #25408F;
}
.gb_191{
fill: #00BAF1;
}
.gc_191{
fill: #332D2C;
}
.gd_191{
fill: #D9DFF0;
}
.ge_191{
fill: #F27C85;
}
.gf_191{
fill: #7DD3F6;
}
.gg_191{
fill: #2E6E51;
}
.gh_191{
fill: #BCBEC0;
}
.gi_191{
fill: #EE314A;
}
.gj_191{
fill: none;
stroke: #FFF;
stroke-width: 1.909;
stroke-miterlimit: 10;
}
.gk_191{
fill: none;
stroke: #000;
stroke-width: 0.381;
stroke-miterlimit: 10;
}
]]></style>
</defs>
<path clip-path="url(#c0_191)" d="M-877.3,1344.3H45.1V32.1H-877.3V1344.3Z" class="g0_191"/>
<path d="M45.1,1344.3H967.5V32.1H45.1V1344.3Z" class="g0_191"/>
<path d="M231.3,926.6c0,0,-13,0,-13,13v21.7c0,0,0,13,13,13H854.9c0,0,13,0,13,-13V939.6c0,0,0,-13,-13,-13Z" class="g1_191"/>
<image clip-path="url(#c1_191)" preserveAspectRatio="none" x="174" y="897" width="75" height="76" xlink:href="img/1.png"/>
<path d="M226.1,966.9c0,0,-26.9,11.3,-51.1,-12.8c0,0,15.2,25.3,49.3,24c0,0,24.7,.3,20.2,-10.1c0,0,1.3,-4.5,-18.4,-1.1Z" class="g1_191"/>
<path d="M173.1,224.6c0,0,-18.4,0,-18.4,18.4V871.3c0,0,0,18.3,18.4,18.3H850.2c0,0,18.3,0,18.3,-18.3V224.6Z" class="g2_191"/>
<path d="M173.1,224.6c0,0,-18.4,0,-18.4,18.4V871.3c0,0,0,18.3,18.4,18.3H850.2c0,0,18.3,0,18.3,-18.3V224.6H173.1Z" class="g3_191"/>
<path d="M220.7,420.7H327.3v-86H220.7v86Z" class="g2_191"/>
<image clip-path="url(#c2_191)" preserveAspectRatio="none" x="231" y="333" width="94" height="88" xlink:href="img/2.jpg"/>
<path d="M220.7,420.7H327.3v-86H220.7v86Z" class="g4_191"/>
<path d="M694.8,420.7H801.4v-86H694.8v86Z" class="g2_191"/>
<image clip-path="url(#c3_191)" preserveAspectRatio="none" x="697" y="333" width="94" height="88" xlink:href="img/3.jpg"/>
<path d="M694.8,420.7H801.4v-86H694.8v86Z" class="g4_191"/>
<path d="M576.3,420.7H682.9v-86H576.3v86Z" class="g2_191"/>
<image clip-path="url(#c4_191)" preserveAspectRatio="none" x="578" y="333" width="95" height="88" xlink:href="img/4.jpg"/>
<path d="M576.3,420.7H682.9v-86H576.3v86Z" class="g4_191"/>
<path d="M457.7,420.7H564.3v-86H457.7v86Z" class="g2_191"/>
<image clip-path="url(#c5_191)" preserveAspectRatio="none" x="460" y="333" width="94" height="88" xlink:href="img/5.jpg"/>
<path d="M457.7,420.7H564.3v-86H457.7v86Z" class="g4_191"/>
<path d="M339.2,420.7H445.8v-86H339.2v86Z" class="g2_191"/>
<image clip-path="url(#c6_191)" preserveAspectRatio="none" x="341" y="333" width="95" height="88" xlink:href="img/6.jpg"/>
<path d="M339.2,420.7H445.8v-86H339.2v86Z" class="g4_191"/>
<path d="M220.7,555.7H327.3V469.6H220.7v86.1Z" class="g2_191"/>
<image preserveAspectRatio="none" x="227" y="475" width="94" height="75" xlink:href="img/7.jpg"/>
<path d="M220.7,555.7H327.3V469.6H220.7v86.1Z" class="g4_191"/>
<path d="M694.8,555.7H801.4V469.6H694.8v86.1Z" class="g2_191"/>
<image preserveAspectRatio="none" x="701" y="474" width="94" height="77" xlink:href="img/8.jpg"/>
<path d="M694.8,555.7H801.4V469.6H694.8v86.1Z" class="g4_191"/>
<path d="M576.3,555.7H682.9V469.6H576.3v86.1Z" class="g2_191"/>
<image preserveAspectRatio="none" x="582" y="475" width="95" height="76" xlink:href="img/9.jpg"/>
<path d="M576.3,555.7H682.9V469.6H576.3v86.1Z" class="g4_191"/>
<path d="M457.7,555.7H564.3V469.6H457.7v86.1Z" class="g2_191"/>
<image preserveAspectRatio="none" x="464" y="475" width="94" height="76" xlink:href="img/10.jpg"/>
<path d="M457.7,555.7H564.3V469.6H457.7v86.1Z" class="g4_191"/>
<path d="M339.2,555.7H445.8V469.6H339.2v86.1Z" class="g2_191"/>
<image preserveAspectRatio="none" x="345" y="474" width="95" height="77" xlink:href="img/11.jpg"/>
<path d="M339.2,555.7H445.8V469.6H339.2v86.1Z" class="g4_191"/>
<path d="M220.7,690.6H327.3V604.5H220.7v86.1Z" class="g2_191"/>
<image clip-path="url(#c7_191)" preserveAspectRatio="none" x="227" y="611" width="94" height="73" xlink:href="img/12.jpg"/>
<path d="M220.7,690.6H327.3V604.5H220.7v86.1Z" class="g4_191"/>
<path d="M694.8,690.6H801.4V604.5H694.8v86.1Z" class="g2_191"/>
<image preserveAspectRatio="none" x="701" y="610" width="94" height="75" xlink:href="img/13.jpg"/>
<path d="M694.8,690.6H801.4V604.5H694.8v86.1Z" class="g4_191"/>
<path d="M576.3,690.6H682.9V604.5H576.3v86.1Z" class="g2_191"/>
<image clip-path="url(#c8_191)" preserveAspectRatio="none" x="582" y="610" width="95" height="75" xlink:href="img/14.jpg"/>
<path d="M576.3,690.6H682.9V604.5H576.3v86.1Z" class="g4_191"/>
<path d="M457.7,690.6H564.3V604.5H457.7v86.1Z" class="g2_191"/>
<image preserveAspectRatio="none" x="464" y="609" width="94" height="77" xlink:href="img/15.jpg"/>
<path d="M457.7,690.6H564.3V604.5H457.7v86.1Z" class="g4_191"/>
<path d="M339.2,690.6H445.8V604.5H339.2v86.1Z" class="g2_191"/>
<image preserveAspectRatio="none" x="345" y="608" width="95" height="79" xlink:href="img/16.jpg"/>
<path d="M339.2,690.6H445.8V604.5H339.2v86.1Z" class="g4_191"/>
<path d="M220.7,825.5H335.1v-86H220.7v86Z" class="g2_191"/>
<image clip-path="url(#c9_191)" preserveAspectRatio="none" x="231" y="745" width="94" height="75" xlink:href="img/17.jpg"/>
<path d="M220.7,825.5H335.1v-86H220.7v86Z" class="g4_191"/>
<path d="M376.1,825.5H490.5v-86H376.1v86Z" class="g2_191"/>
<image preserveAspectRatio="none" x="386" y="744" width="94" height="77" xlink:href="img/18.jpg"/>
<path d="M376.1,825.5H490.5v-86H376.1v86Z" class="g4_191"/>
<path d="M531.5,825.5H646v-86H531.5v86Z" class="g2_191"/>
<image preserveAspectRatio="none" x="542" y="745" width="94" height="75" xlink:href="img/19.jpg"/>
<path d="M531.5,825.5H646v-86H531.5v86Z" class="g4_191"/>
<path d="M686.9,825.5H801.4v-86H686.9v86Z" class="g2_191"/>
<image clip-path="url(#ca_191)" preserveAspectRatio="none" x="697" y="745" width="94" height="75" xlink:href="img/20.jpg"/>
<path d="M686.9,825.5H801.4v-86H686.9v86Z" class="g4_191"/>
<path d="M166.7,983.9c0,0,-13,0,-13,13v191.8c0,0,0,13,13,13H854.8c0,0,13,0,13,-13V996.9c0,0,0,-13,-13,-13Z" class="g2_191"/>
<path d="M166.7,983.9c0,0,-13,0,-13,13v191.8c0,0,0,13,13,13H854.8c0,0,13,0,13,-13V996.9c0,0,0,-13,-13,-13H166.7Z" class="g3_191"/>
<image clip-path="url(#cb_191)" preserveAspectRatio="none" x="726" y="1015" width="91" height="75" xlink:href="img/21.jpg"/>
<image clip-path="url(#cc_191)" preserveAspectRatio="none" x="560" y="984" width="140" height="138" xlink:href="img/22.png"/>
<image clip-path="url(#cd_191)" preserveAspectRatio="none" x="435" y="990" width="145" height="146" xlink:href="img/23.png"/>
<image clip-path="url(#ce_191)" preserveAspectRatio="none" x="317" y="994" width="124" height="115" xlink:href="img/24.png"/>
<image clip-path="url(#cf_191)" preserveAspectRatio="none" x="203" y="1019" width="93" height="73" xlink:href="img/25.png"/>
<path d="M641.5,1147c2,0,3.6,-1.6,3.6,-3.6c0,-2,-1.6,-3.6,-3.6,-3.6c-2,0,-3.6,1.6,-3.6,3.6c0,2,1.6,3.6,3.6,3.6Z" class="g5_191"/>
<path d="M510.8,1147c2,0,3.6,-1.6,3.6,-3.6c0,-2,-1.6,-3.6,-3.6,-3.6c-2,0,-3.6,1.6,-3.6,3.6c0,2,1.6,3.6,3.6,3.6Z" class="g5_191"/>
<path d="M380,1147c2,0,3.6,-1.6,3.6,-3.6c0,-2,-1.6,-3.6,-3.6,-3.6c-2,0,-3.6,1.6,-3.6,3.6c0,2,1.6,3.6,3.6,3.6Z" class="g5_191"/>
<path d="M772.2,1147c2,0,3.6,-1.6,3.6,-3.6c0,-2,-1.6,-3.6,-3.6,-3.6c-2,0,-3.6,1.6,-3.6,3.6c0,2,1.6,3.6,3.6,3.6Z" class="g5_191"/>
<path d="M249.3,1147c2,0,3.6,-1.6,3.6,-3.6c0,-2,-1.6,-3.6,-3.6,-3.6c-2,0,-3.6,1.6,-3.6,3.6c0,2,1.6,3.6,3.6,3.6Z" class="g5_191"/>
<path d="M207.6,1158.1c0,0,-8.6,0,-8.6,8.6v15.2c0,0,0,8.6,8.6,8.6h82.3c0,0,8.7,0,8.7,-8.6v-15.2c0,0,0,-8.6,-8.7,-8.6Z" class="g6_191"/>
<path d="M337.9,1158.1c0,0,-8.7,0,-8.7,8.6v15.2c0,0,0,8.6,8.7,8.6h82.3c0,0,8.6,0,8.6,-8.6v-15.2c0,0,0,-8.6,-8.6,-8.6Z" class="g6_191"/>
<path d="M468.2,1158.1c0,0,-8.7,0,-8.7,8.6v15.2c0,0,0,8.6,8.7,8.6h82.3c0,0,8.6,0,8.6,-8.6v-15.2c0,0,0,-8.6,-8.6,-8.6Z" class="g6_191"/>
<path d="M598.5,1158.1c0,0,-8.7,0,-8.7,8.6v15.2c0,0,0,8.6,8.7,8.6h82.3c0,0,8.6,0,8.6,-8.6v-15.2c0,0,0,-8.6,-8.6,-8.6Z" class="g6_191"/>
<path d="M728.8,1158.1c0,0,-8.7,0,-8.7,8.6v15.2c0,0,0,8.6,8.7,8.6H811c0,0,8.7,0,8.7,-8.6v-15.2c0,0,0,-8.6,-8.7,-8.6Z" class="g6_191"/>
<path d="M641.5,1097.3c2,0,3.6,-1.6,3.6,-3.6c0,-2,-1.6,-3.6,-3.6,-3.6c-2,0,-3.6,1.6,-3.6,3.6c0,2,1.6,3.6,3.6,3.6Z" class="g5_191"/>
<path d="M510.8,1097.3c2,0,3.6,-1.6,3.6,-3.6c0,-2,-1.6,-3.6,-3.6,-3.6c-2,0,-3.6,1.6,-3.6,3.6c0,2,1.6,3.6,3.6,3.6Z" class="g5_191"/>
<path d="M380,1097.3c2,0,3.6,-1.6,3.6,-3.6c0,-2,-1.6,-3.6,-3.6,-3.6c-2,0,-3.6,1.6,-3.6,3.6c0,2,1.6,3.6,3.6,3.6Z" class="g5_191"/>
<path d="M772.2,1097.3c2,0,3.6,-1.6,3.6,-3.6c0,-2,-1.6,-3.6,-3.6,-3.6c-2,0,-3.6,1.6,-3.6,3.6c0,2,1.6,3.6,3.6,3.6Z" class="g5_191"/>
<path d="M249.3,1097.3c2,0,3.6,-1.6,3.6,-3.6c0,-2,-1.6,-3.6,-3.6,-3.6c-2,0,-3.6,1.6,-3.6,3.6c0,2,1.6,3.6,3.6,3.6Z" class="g5_191"/>
<path d="M626.2,1216.2c0,0,-4.4,0,-4.4,4.3v10.8c0,0,0,4.3,4.4,4.3h30.3c0,0,4.3,0,4.3,-4.3v-10.8c0,0,0,-4.3,-4.3,-4.3Z" class="g7_191"/>
<path d="M613,1208.7v34.8m1.3,1H866.8m.9,-1.4v-34.8m-1.3,-1H613.9" class="g8_191"/>
<path d="M613,1243.9v.6h.6m253.5,0h.6v-.6m0,-36v-.6h-.6m-253.5,0H613v.6" class="g9_191"/>
<path d="M231.3,274.3c0,0,-13,0,-13,13V309c0,0,0,13,13,13h602c0,0,13,0,13,-13V287.3c0,0,0,-13,-13,-13Z" class="g1_191"/>
<image clip-path="url(#cg_191)" preserveAspectRatio="none" x="174" y="245" width="75" height="76" xlink:href="img/26.png"/>
<path d="M226.1,314.6c0,0,-26.9,11.3,-51.1,-12.8c0,0,15.2,25.3,49.3,24c0,0,24.7,.3,20.2,-10.1c0,0,1.3,-4.5,-18.4,-1.1Z" class="g1_191"/>
<path d="M153.3,214.8V237L165,247.2V225.1Z" class="ga_191"/>
<path d="M153.3,198v39H851.1c0,0,16.8,0,16.8,-16.8v-5.4c0,0,0,-16.8,-16.8,-16.8Z" class="g7_191"/>
<path d="M211.3,209.4l-6.5,-6.5l-21.2,21.2l6.5,6.5Z" class="gb_191"/>
<path d="M190.1,231.1c.1,0,.3,0,.4,-.1l21.2,-21.2c.1,-.1,.1,-.3,.1,-.4c0,-.1,0,-.3,-.1,-.4l-6.5,-6.5c-.2,-.2,-.6,-.2,-.8,0l-21.2,21.3c-.1,.1,-.1,.2,-.1,.3c0,.2,0,.3,.1,.4l6.5,6.5c.1,.1,.3,.1,.4,.1m20.5,-21.7l-20.5,20.5l-5.8,-5.8l20.5,-20.4Z" class="gc_191"/>
<path d="M211.3,209.4l-6.5,-6.5l2.1,-2.1l6.5,6.5Z" class="gd_191"/>
<path d="M211.3,209.9c.1,0,.3,0,.4,-.1l2.1,-2.2c.1,-.1,.2,-.2,.2,-.3c0,-.2,-.1,-.3,-.2,-.4l-6.5,-6.5c-.2,-.2,-.5,-.2,-.7,0l-2.2,2.1c-.1,.1,-.1,.3,-.1,.4c0,.2,0,.3,.1,.4l6.5,6.5c.1,.1,.3,.1,.4,.1m1.4,-2.6l-1.4,1.4l-5.7,-5.8l1.3,-1.4Z" class="gc_191"/>
<path d="M217,203.7l-6.4,-6.5l-3.7,3.6l6.5,6.5Z" class="ge_191"/>
<path d="M213.4,207.8c.2,0,.3,-.1,.4,-.2l3.6,-3.6c.2,-.2,.2,-.5,0,-.7l-6.5,-6.5c-.2,-.2,-.5,-.2,-.7,0l-3.6,3.6c-.2,.2,-.2,.6,0,.8l6.5,6.4c.1,.1,.2,.2,.3,.2m2.9,-4.1l-2.9,2.8l-5.7,-5.7l2.9,-2.9Z" class="gc_191"/>
<path d="M179,235.2l4.6,-11.1l6.5,6.5Z" class="g2_191"/>
<path d="M179,235.8c0,0,.1,0,.2,-.1l11.1,-4.6c.2,-.1,.3,-.2,.3,-.4c0,-.2,0,-.3,-.1,-.5L184,223.8c-.1,-.2,-.3,-.2,-.5,-.2c-.2,0,-.3,.2,-.4,.3L178.5,235c-.1,.2,0,.5,.1,.6c.1,.1,.2,.2,.4,.2m10.2,-5.4l-9.3,3.9l3.9,-9.2Z" class="gc_191"/>
<path d="M179,235.2l2.2,-5.3l3.1,3.1Z" class="gc_191"/>
<path d="M179,235.8c0,0,.1,0,.2,-.1l5.3,-2.2c.2,-.1,.3,-.2,.4,-.4c0,-.2,-.1,-.3,-.2,-.5l-3.1,-3.1c-.1,-.1,-.3,-.2,-.5,-.1c-.2,0,-.3,.1,-.4,.3l-2.2,5.3c-.1,.2,0,.5,.1,.6c.1,.1,.2,.2,.4,.2m4.4,-3l-3.5,1.5l1.5,-3.5Z" class="gc_191"/>
<path d="M209.5,207.6l-2.9,-2.9l-21.2,21.2l2.9,3Z" class="gf_191"/>
<path d="M188.3,229.4c.2,0,.3,-.1,.4,-.2L209.9,208c.1,-.1,.2,-.2,.2,-.4c0,-.1,-.1,-.2,-.2,-.3l-3,-3c-.2,-.2,-.5,-.2,-.7,0L185,225.5c-.1,.1,-.2,.2,-.2,.4c0,.1,.1,.3,.2,.4l3,2.9c.1,.1,.2,.2,.3,.2m20.5,-21.8l-20.5,20.5l-2.2,-2.2l20.5,-20.5Z" class="gc_191"/>
<path d="M32.1,179.3H967.5V32.1H32.1V179.3Z" class="gg_191"/>
<g clip-path="url(#c0_191)">
<path d="M967.5,177.2H-877.3v-5.4h736.6c43.1,0,53.1,-37.9,115.3,-37.9H967.5Z" class="gh_191"/>
<path d="M967.5,183.7H-877.3v-9.8h736.6c43.1,0,53.1,-33.6,115.3,-33.6H967.5Z" class="gi_191"/>
</g>
<image clip-path="url(#ch_191)" preserveAspectRatio="none" x="659" y="59" width="200" height="118" xlink:href="img/27.png"/>
<path d="M32.1,45.1H9.2m958.3,0h22.9M32.1,1331.3H9.2m958.3,0h22.9M45.1,32.1V9.2m0,1335.1v22.9M954.5,32.1V9.2m0,1335.1v22.9" class="gj_191"/>
<path d="M32.1,45.1H9.2m958.3,0h22.9M32.1,1331.3H9.2m958.3,0h22.9M45.1,32.1V9.2m0,1335.1v22.9M954.5,32.1V9.2m0,1335.1v22.9" class="gk_191"/>
<path d="M27.5,32.1H0m972.1,0h27.5M27.5,1344.3H0m972.1,0h27.5M32.1,27.5V0m0,1348.9v27.5M967.5,27.5V0m0,1348.9v27.5" class="gj_191"/>
<path d="M27.5,32.1H0m972.1,0h27.5M27.5,1344.3H0m972.1,0h27.5M32.1,27.5V0m0,1348.9v27.5M967.5,27.5V0m0,1348.9v27.5" class="gk_191"/>
</svg>