<?xml version="1.0" encoding="UTF-8" standalone="no"?>
<!DOCTYPE svg PUBLIC "-//W3C//DTD SVG 1.1//EN"
"http://www.w3.org/Graphics/SVG/1.1/DTD/svg11.dtd">
<svg viewBox="0 0 999 1376" version="1.1" xmlns="http://www.w3.org/2000/svg" xmlns:xlink="http://www.w3.org/1999/xlink">
<defs>
<clipPath id="c0_213"><path d="M32.1,1344.3V32.1H967.5V1344.3Z"/></clipPath>
<clipPath id="c1_213"><path d="M215,406V327.3H854.2V406Z"/></clipPath>
<clipPath id="c2_213"><path d="M215,605.2V481.4H854.2V605.2Z"/></clipPath>
<clipPath id="c3_213"><path d="M191.6,847.7v-131H850.5v131Z"/></clipPath>
<style type="text/css"><![CDATA[
.g0_213{
fill: #FEFCF4;
}
.g1_213{
fill: #F16865;
}
.g2_213{
fill: #6381B7;
}
.g3_213{
fill: none;
stroke: #6381B7;
stroke-width: 0.381;
stroke-dasharray: 2,1;
}
.g4_213{
fill: none;
stroke: #6381B7;
stroke-width: 0.381;
}
.g5_213{
fill: #FEF8F8;
}
.g6_213{
fill: none;
stroke: #A164A9;
stroke-width: 1.527;
stroke-linecap: round;
stroke-linejoin: round;
stroke-dasharray: 0,5;
}
.g7_213{
fill: none;
stroke: #A164A9;
stroke-width: 1.527;
stroke-linecap: round;
stroke-linejoin: round;
}
.g8_213{
fill: #A164A9;
}
.g9_213{
fill: #FFF;
}
.ga_213{
fill: none;
stroke: #231F20;
stroke-width: 0.305;
stroke-miterlimit: 10;
}
.gb_213{
fill: none;
stroke: #8CC63E;
stroke-width: 1.527;
stroke-linecap: round;
stroke-linejoin: round;
stroke-dasharray: 0,5;
}
.gc_213{
fill: none;
stroke: #8CC63E;
stroke-width: 1.527;
stroke-linecap: round;
stroke-linejoin: round;
}
.gd_213{
fill: #8CC63E;
}
.ge_213{
fill: #6CCFF6;
}
.gf_213{
fill: none;
stroke: #231F20;
stroke-width: 1.375;
stroke-miterlimit: 10;
}
.gg_213{
fill: #485E75;
}
.gh_213{
fill: #EAD646;
}
.gi_213{
fill: none;
stroke: #231F20;
stroke-width: 1.527;
}
.gj_213{
fill: none;
stroke: #FFF;
stroke-width: 1.909;
stroke-miterlimit: 10;
}
.gk_213{
fill: none;
stroke: #000;
stroke-width: 0.381;
stroke-miterlimit: 10;
}
]]></style>
</defs>
<path clip-path="url(#c0_213)" d="M-877.3,1344.3H45.1V32.1H-877.3V1344.3Z" class="g0_213"/>
<path d="M45.1,1344.3H967.5V32.1H45.1V1344.3Z" class="g0_213"/>
<path clip-path="url(#c0_213)" d="M867.9,166.7c0,0,30.3,0,30.3,-30.3v-4.3c0,0,0,-30.3,-30.3,-30.3H-735.4c0,0,-30.4,0,-30.4,30.3v4.3c0,0,0,30.3,30.4,30.3Z" class="g1_213"/>
<path d="M706.3,929.8c0,0,-4.3,0,-4.3,4.3v10.8c0,0,0,4.4,4.3,4.4h30.3c0,0,4.4,0,4.4,-4.4V934.1c0,0,0,-4.3,-4.4,-4.3Z" class="g2_213"/>
<path d="M693.1,922.3v34.8m1.4,1H866.8m.9,-1.3V921.9m-1.3,-1H694.1" class="g3_213"/>
<path d="M693.1,957.5v.6h.6m173.4,0h.6v-.6m0,-36v-.6h-.6m-173.4,0h-.6v.6" class="g4_213"/>
<image preserveAspectRatio="none" x="714" y="55" width="120" height="139" xlink:href="img/1.png"/>
<path d="M154.1,912.1h713v-661h-713v661Z" class="g5_213"/>
<path d="M154.1,255.6V909.8m4.6,2.3H864.9m2.2,-4.6V253.3m-4.5,-2.2H156.4" class="g6_213"/>
<path d="M154.1,912.1v0m713.1,0v0m0,-661v0m-713.1,0v0" class="g7_213"/>
<path d="M153.3,265.4V227c0,0,0,-8.7,8.7,-8.7H859.3c0,0,8.6,0,8.6,8.7v39.1Z" class="g8_213"/>
<image clip-path="url(#c1_213)" preserveAspectRatio="none" x="215" y="328" width="639" height="78" xlink:href="img/2.png"/>
<path d="M218.3,399.8H848.1V330.6H218.3v69.2Z" class="g9_213"/>
<path d="M263.5,360.4h66" class="ga_213"/>
<image clip-path="url(#c2_213)" preserveAspectRatio="none" x="215" y="482" width="639" height="124" xlink:href="img/3.png"/>
<path d="M218.3,599H848.1V484.7H218.3V599Z" class="g9_213"/>
<path d="M432.2,514.5H582.6" class="ga_213"/>
<image clip-path="url(#c3_213)" preserveAspectRatio="none" x="191" y="717" width="659" height="131" xlink:href="img/4.png"/>
<path d="M194.9,841.3H844.5V720H194.9V841.3Z" class="g9_213"/>
<path d="M154.1,1243.9h713v-193h-713v193Z" class="g9_213"/>
<path d="M154.1,1055.5v186.1m4.6,2.3H864.9m2.2,-4.6V1053.2m-4.5,-2.3H156.4" class="gb_213"/>
<path d="M154.1,1243.9v0m713.1,0v0m0,-193v0m-713.1,0v0" class="gc_213"/>
<path d="M153.3,1055.5v-28.6c0,0,0,-8.7,8.7,-8.7H859.3c0,0,8.6,0,8.6,8.7V1056Z" class="gd_213"/>
<path d="M187.2,1032v-6.4c0,-4.8,-3.9,-8.7,-8.7,-8.7c-4.8,0,-8.6,3.9,-8.6,8.7v6.4Z" class="ge_213"/>
<path d="M187.2,1032v-6.4c0,-4.8,-3.9,-8.7,-8.7,-8.7c-4.8,0,-8.6,3.9,-8.6,8.7v6.4h17.3Z" class="gf_213"/>
<path d="M169.9,1033.8v5.3c0,4.8,3.8,8.7,8.6,8.7c4.8,0,8.7,-3.9,8.7,-8.7v-5.3Z" class="ge_213"/>
<path d="M169.9,1033.8v5.3c0,4.8,3.8,8.7,8.6,8.7c4.8,0,8.7,-3.9,8.7,-8.7v-5.3H169.9Z" class="gf_213"/>
<path d="M178.4,1052.7c-7.1,0,-13,-6,-13,-13.3h2.4c0,6,4.8,10.9,10.6,10.9c5.8,0,10.6,-4.9,10.6,-10.9h2.4c0,7.3,-5.8,13.3,-13,13.3Z" class="gg_213"/>
<path d="M178.4,1052.7c-7.1,0,-13,-6,-13,-13.3h2.4c0,6,4.8,10.9,10.6,10.9c5.8,0,10.6,-4.9,10.6,-10.9h2.4c0,7.3,-5.8,13.3,-13,13.3Z" class="gf_213"/>
<path d="M177.5,1059.8h2.4v-8h-2.4v8Z" class="gg_213"/>
<path d="M177.5,1059.8h2.4v-8h-2.4v8Z" class="gf_213"/>
<path d="M178.6,1056.2c-3.6,0,-6.6,2.2,-6.7,4.9h13.4c-.1,-2.7,-3.1,-4.9,-6.7,-4.9Z" class="gg_213"/>
<path d="M178.6,1056.2c-3.6,0,-6.6,2.2,-6.7,4.9h13.4c-.1,-2.7,-3.1,-4.9,-6.7,-4.9Z" class="gf_213"/>
<path d="M201.3,1011.7c-6.5,0,-11.9,5.4,-11.9,12c0,2.7,.9,5.1,2.4,7.1l-1.5,5.4l5.5,-2c1.7,.9,3.5,1.4,5.5,1.4c6.6,0,12,-5.4,12,-11.9c0,-6.6,-5.4,-12,-12,-12Z" class="gh_213"/>
<path d="M201.3,1011.7c-6.5,0,-11.9,5.4,-11.9,12c0,2.7,.9,5.1,2.4,7.1l-1.5,5.4l5.5,-2c1.7,.9,3.5,1.4,5.5,1.4c6.6,0,12,-5.4,12,-11.9c0,-6.6,-5.4,-12,-12,-12Z" class="gf_213"/>
<path d="M196.9,1023.5c0,.7,-.7,1.4,-1.4,1.4c-.8,0,-1.4,-.7,-1.4,-1.4c0,-.8,.6,-1.4,1.4,-1.4c.7,0,1.4,.6,1.4,1.4Z" class="g9_213"/>
<path d="M196.9,1023.5c0,.7,-.7,1.4,-1.4,1.4c-.8,0,-1.4,-.7,-1.4,-1.4c0,-.8,.6,-1.4,1.4,-1.4c.7,0,1.4,.6,1.4,1.4Z" class="gf_213"/>
<path d="M203,1023.5c0,.8,-.6,1.4,-1.4,1.4c-.8,0,-1.4,-.6,-1.4,-1.4c0,-.8,.6,-1.4,1.4,-1.4c.8,0,1.4,.6,1.4,1.4Z" class="g9_213"/>
<path d="M203,1023.5c0,.8,-.6,1.4,-1.4,1.4c-.8,0,-1.4,-.6,-1.4,-1.4c0,-.8,.6,-1.4,1.4,-1.4c.8,0,1.4,.6,1.4,1.4Z" class="gf_213"/>
<path d="M209.1,1023.5c0,.8,-.6,1.4,-1.4,1.4c-.8,0,-1.4,-.6,-1.4,-1.4c0,-.8,.6,-1.4,1.4,-1.4c.8,0,1.4,.6,1.4,1.4Z" class="g9_213"/>
<path d="M209.1,1023.5c0,.8,-.6,1.4,-1.4,1.4c-.8,0,-1.4,-.6,-1.4,-1.4c0,-.8,.6,-1.4,1.4,-1.4c.8,0,1.4,.6,1.4,1.4Z" class="gf_213"/>
<path d="M785.7,1037.9c0,0,-.5,-9.9,8.6,-9.3c0,0,6.8,-.4,6.7,9.5m-15.3,-1.6v6.6c0,0,-3.4,.3,-4,-3c0,0,0,-3.8,4,-3.6Zm15.3,0v6.6c0,0,3.4,.3,3.9,-3c0,0,.1,-3.8,-3.9,-3.6Z" class="gi_213"/>
<path d="M32.1,45.1H9.2m958.3,0h22.9M32.1,1331.3H9.2m958.3,0h22.9M45.1,32.1V9.2m0,1335.1v22.9M954.5,32.1V9.2m0,1335.1v22.9" class="gj_213"/>
<path d="M32.1,45.1H9.2m958.3,0h22.9M32.1,1331.3H9.2m958.3,0h22.9M45.1,32.1V9.2m0,1335.1v22.9M954.5,32.1V9.2m0,1335.1v22.9" class="gk_213"/>
<path d="M27.5,32.1H0m972.1,0h27.5M27.5,1344.3H0m972.1,0h27.5M32.1,27.5V0m0,1348.9v27.5M967.5,27.5V0m0,1348.9v27.5" class="gj_213"/>
<path d="M27.5,32.1H0m972.1,0h27.5M27.5,1344.3H0m972.1,0h27.5M32.1,27.5V0m0,1348.9v27.5M967.5,27.5V0m0,1348.9v27.5" class="gk_213"/>
</svg>