<?xml version="1.0" encoding="UTF-8" standalone="no"?>
<!DOCTYPE svg PUBLIC "-//W3C//DTD SVG 1.1//EN"
"http://www.w3.org/Graphics/SVG/1.1/DTD/svg11.dtd">
<svg viewBox="0 0 999 1376" version="1.1" xmlns="http://www.w3.org/2000/svg" xmlns:xlink="http://www.w3.org/1999/xlink">
<defs>
<clipPath id="c0_276"><path d="M32.1,1344.3V32.1H967.5V1344.3Z"/></clipPath>
<style type="text/css"><![CDATA[
.g0_276{
fill: #FEFCF4;
}
.g1_276{
fill: #FFF;
}
.g2_276{
fill: none;
stroke: #6381B7;
stroke-width: 0.763;
}
.g3_276{
fill: #F0E8F3;
}
.g4_276{
fill: none;
stroke: #231F20;
stroke-width: 0.458;
stroke-miterlimit: 10;
}
.g5_276{
fill: #6381B7;
}
.g6_276{
fill: none;
stroke: #6381B7;
stroke-width: 0.381;
stroke-dasharray: 2,1;
}
.g7_276{
fill: none;
stroke: #6381B7;
stroke-width: 0.381;
}
.g8_276{
fill: none;
stroke: #FFF;
stroke-width: 1.909;
stroke-miterlimit: 10;
}
.g9_276{
fill: none;
stroke: #000;
stroke-width: 0.381;
stroke-miterlimit: 10;
}
]]></style>
</defs>
<path clip-path="url(#c0_276)" d="M954.5,1344.3H1877V32.1H954.5V1344.3Z" class="g0_276"/>
<path d="M145.1,153.7c0,0,-13,0,-13,13V981c0,0,0,13,13,13H832.9c0,0,13,0,13,-13V166.7c0,0,0,-13,-13,-13Z" class="g1_276"/>
<path d="M145.1,153.7c0,0,-13,0,-13,13V981c0,0,0,13,13,13H832.9c0,0,13,0,13,-13V166.7c0,0,0,-13,-13,-13H145.1Z" class="g2_276"/>
<path d="M189.9,224.8H753.4V208.6H189.9v16.2Z" class="g1_276"/>
<path d="M237.8,253c0,0,-13,0,-13,12.9v104c0,0,0,13,13,13h537c0,0,13,0,13,-13v-104c0,0,0,-12.9,-13,-12.9Z" class="g3_276"/>
<path d="M320,341.5h94.6" class="g4_276"/>
<path d="M237.8,624.1c0,0,-13,0,-13,13V741c0,0,0,13,13,13h537c0,0,13,0,13,-13V637.1c0,0,0,-13,-13,-13Z" class="g3_276"/>
<path d="M350.2,711.8h94.5" class="g4_276"/>
<path d="M237.8,438.9c0,0,-13,0,-13,13V555.8c0,0,0,13,13,13h537c0,0,13,0,13,-13V451.9c0,0,0,-13,-13,-13Z" class="g3_276"/>
<path d="M380.3,527.4h94.5" class="g4_276"/>
<path d="M237.8,810.7c0,0,-13,0,-13,13v104c0,0,0,13,13,13h537c0,0,13,0,13,-13v-104c0,0,0,-13,-13,-13Z" class="g3_276"/>
<path d="M522.7,899.3h94.5" class="g4_276"/>
<path d="M549,1022.3c0,0,-4.3,0,-4.3,4.4v10.8c0,0,0,4.3,4.3,4.3h30.3c0,0,4.3,0,4.3,-4.3v-10.8c0,0,0,-4.4,-4.3,-4.4Z" class="g5_276"/>
<path d="M535.8,1014.8v204.6m1.4,1H845.1m1,-1.4V1014.4m-1.4,-.9H536.8" class="g6_276"/>
<path d="M535.8,1219.8v.6h.6m309.1,0h.6v-.6m0,-205.7v-.6h-.6m-309.1,0h-.6v.6" class="g7_276"/>
<path d="M32.1,45.1H9.2m958.3,0h22.9M32.1,1331.3H9.2m958.3,0h22.9M45.1,32.1V9.2m0,1335.1v22.9M954.5,32.1V9.2m0,1335.1v22.9" class="g8_276"/>
<path d="M32.1,45.1H9.2m958.3,0h22.9M32.1,1331.3H9.2m958.3,0h22.9M45.1,32.1V9.2m0,1335.1v22.9M954.5,32.1V9.2m0,1335.1v22.9" class="g9_276"/>
<path d="M27.5,32.1H0m972.1,0h27.5M27.5,1344.3H0m972.1,0h27.5M32.1,27.5V0m0,1348.9v27.5M967.5,27.5V0m0,1348.9v27.5" class="g8_276"/>
<path d="M27.5,32.1H0m972.1,0h27.5M27.5,1344.3H0m972.1,0h27.5M32.1,27.5V0m0,1348.9v27.5M967.5,27.5V0m0,1348.9v27.5" class="g9_276"/>
</svg>