<?xml version="1.0" encoding="UTF-8" standalone="no"?>
<!DOCTYPE svg PUBLIC "-//W3C//DTD SVG 1.1//EN"
"http://www.w3.org/Graphics/SVG/1.1/DTD/svg11.dtd">
<svg viewBox="0 0 999 1376" version="1.1" xmlns="http://www.w3.org/2000/svg" xmlns:xlink="http://www.w3.org/1999/xlink">
<defs>
<clipPath id="c0_146"><path d="M667,522.8V423.6H787.9v99.2Z"/></clipPath>
<clipPath id="c1_146"><path d="M348.7,681.7V584.3H469.6v97.4Z"/></clipPath>
<clipPath id="c2_146"><path d="M728.9,1057.8V983.3h58.4v74.5Z"/></clipPath>
<clipPath id="c3_146"><path d="M592.5,1052.5V991h64.3v61.5Z"/></clipPath>
<clipPath id="c4_146"><path d="M464.7,1052.5V989.2h64.9v63.3Z"/></clipPath>
<clipPath id="c5_146"><path d="M334.7,1062.4V981.2h58v81.2Z"/></clipPath>
<clipPath id="c6_146"><path d="M202.3,1059.8V987.1h64.8v72.7Z"/></clipPath>
<clipPath id="c7_146"><path d="M176.6,236.1L170.1,234L153.7,220.1V163h72v73.1Z"/></clipPath>
<clipPath id="c8_146"><path d="M176.6,920.9l-6.5,-2.1L153.7,904.9V847.8h72v73.1Z"/></clipPath>
<style type="text/css"><![CDATA[
.g0_146{
fill: #FEFCF4;
}
.g1_146{
fill: #FFF;
}
.g2_146{
fill: none;
stroke: #6381B7;
stroke-width: 0.763;
}
.g3_146{
fill: none;
stroke: #949698;
stroke-width: 0.381;
}
.g4_146{
fill: none;
stroke: #231F20;
stroke-width: 1.527;
}
.g5_146{
fill: #93BEDA;
}
.g6_146{
fill: #EFE9CC;
}
.g7_146{
fill: #6381B7;
}
.g8_146{
fill: none;
stroke: #6381B7;
stroke-width: 0.381;
stroke-dasharray: 2,1;
}
.g9_146{
fill: none;
stroke: #6381B7;
stroke-width: 0.381;
}
.ga_146{
fill: #FCE8B0;
}
.gb_146{
fill: #25408F;
}
.gc_146{
fill: #00BAF1;
}
.gd_146{
fill: #332D2C;
}
.ge_146{
fill: #D9DFF0;
}
.gf_146{
fill: #F27C85;
}
.gg_146{
fill: #7DD3F6;
}
.gh_146{
fill: none;
stroke: #FFF;
stroke-width: 1.909;
stroke-miterlimit: 10;
}
.gi_146{
fill: none;
stroke: #000;
stroke-width: 0.381;
stroke-miterlimit: 10;
}
]]></style>
</defs>
<path d="M32.1,1344.3H954.5V32.1H32.1V1344.3Z" class="g0_146"/>
<path d="M150.9,134.7c0,0,-18.3,0,-18.3,18.3V811.2c0,0,0,18.3,18.3,18.3H828c0,0,18.4,0,18.4,-18.3V134.7Z" class="g1_146"/>
<path d="M150.9,134.7c0,0,-18.3,0,-18.3,18.3V811.2c0,0,0,18.3,18.3,18.3H828c0,0,18.4,0,18.4,-18.3V134.7H150.9Z" class="g2_146"/>
<path d="M185.3,363.1H323.5V263.8H185.3v99.3Z" class="g1_146"/>
<image preserveAspectRatio="none" x="199" y="264" width="111" height="99" xlink:href="img/1.jpg"/>
<path d="M185.3,363.1H323.5V263.8H185.3v99.3Z" class="g3_146"/>
<path d="M421.8,363.1H560V263.8H421.8v99.3Z" class="g1_146"/>
<image preserveAspectRatio="none" x="430" y="264" width="122" height="99" xlink:href="img/2.jpg"/>
<path d="M421.8,363.1H560V263.8H421.8v99.3Z" class="g3_146"/>
<path d="M658.4,363.1H796.6V263.8H658.4v99.3Z" class="g1_146"/>
<image preserveAspectRatio="none" x="669" y="264" width="117" height="99" xlink:href="img/3.jpg"/>
<path d="M658.4,363.1H796.6V263.8H658.4v99.3Z" class="g3_146"/>
<path d="M185.3,522.8H323.5V423.6H185.3v99.2Z" class="g1_146"/>
<image preserveAspectRatio="none" x="194" y="424" width="121" height="99" xlink:href="img/4.jpg"/>
<path d="M185.3,522.8H323.5V423.6H185.3v99.2Z" class="g3_146"/>
<path d="M421.8,522.8H560V423.6H421.8v99.2Z" class="g1_146"/>
<image preserveAspectRatio="none" x="431" y="424" width="120" height="99" xlink:href="img/5.jpg"/>
<path d="M421.8,522.8H560V423.6H421.8v99.2Z" class="g3_146"/>
<path d="M658.4,522.8H796.6V423.6H658.4v99.2Z" class="g1_146"/>
<image clip-path="url(#c0_146)" preserveAspectRatio="none" x="667" y="424" width="121" height="99" xlink:href="img/6.jpg"/>
<path d="M658.4,522.8H796.6V423.6H658.4v99.2Z" class="g3_146"/>
<path d="M185.3,682.6H306.1V583.4H185.3v99.2Z" class="g1_146"/>
<image preserveAspectRatio="none" x="187" y="583" width="118" height="100" xlink:href="img/7.jpg"/>
<path d="M185.3,682.6H306.1V583.4H185.3v99.2Z" class="g3_146"/>
<path d="M348.7,682.6H469.6V583.4H348.7v99.2Z" class="g1_146"/>
<image clip-path="url(#c1_146)" preserveAspectRatio="none" x="349" y="584" width="121" height="98" xlink:href="img/8.jpg"/>
<path d="M348.7,682.6H469.6V583.4H348.7v99.2Z" class="g3_146"/>
<path d="M512.2,682.6H633.1V583.4H512.2v99.2Z" class="g1_146"/>
<image preserveAspectRatio="none" x="512" y="584" width="121" height="98" xlink:href="img/9.jpg"/>
<path d="M512.2,682.6H633.1V583.4H512.2v99.2Z" class="g3_146"/>
<path d="M675.7,682.6H796.6V583.4H675.7v99.2Z" class="g1_146"/>
<image preserveAspectRatio="none" x="676" y="586" width="121" height="94" xlink:href="img/10.jpg"/>
<path d="M675.7,682.6H796.6V583.4H675.7v99.2Z" class="g3_146"/>
<path d="M189,756.6c-.4,0,-.7,.1,-.9,.4c-.2,.2,-.3,.5,-.3,.8c0,.4,.1,.7,.3,.9c.2,.2,.5,.4,.9,.4c.3,0,.6,-.2,.8,-.4c.3,-.2,.4,-.5,.4,-.9c0,-.3,-.1,-.6,-.4,-.8c-.2,-.3,-.5,-.4,-.8,-.4Zm0,50.2c-.4,0,-.7,.1,-.9,.3c-.2,.3,-.3,.6,-.3,.9c0,.3,.1,.6,.3,.9c.2,.2,.5,.3,.9,.3c.3,0,.6,-.1,.8,-.3c.3,-.3,.4,-.6,.4,-.9c0,-.3,-.1,-.6,-.4,-.9c-.2,-.2,-.5,-.3,-.8,-.3Z" class="g4_146"/>
<path d="M145.1,935.9c0,0,-13,0,-13,13v228.4c0,0,0,13,13,13H832.9c0,0,13,0,13,-13V948.9c0,0,0,-13,-13,-13Z" class="g1_146"/>
<path d="M145.1,935.9c0,0,-13,0,-13,13v228.4c0,0,0,13,13,13H832.9c0,0,13,0,13,-13V948.9c0,0,0,-13,-13,-13H145.1Z" class="g2_146"/>
<image clip-path="url(#c2_146)" preserveAspectRatio="none" x="726" y="983" width="62" height="75" xlink:href="img/11.jpg"/>
<image clip-path="url(#c3_146)" preserveAspectRatio="none" x="587" y="983" width="70" height="75" xlink:href="img/12.jpg"/>
<image clip-path="url(#c4_146)" preserveAspectRatio="none" x="465" y="984" width="65" height="73" xlink:href="img/13.jpg"/>
<image clip-path="url(#c5_146)" preserveAspectRatio="none" x="335" y="981" width="58" height="84" xlink:href="img/14.jpg"/>
<image clip-path="url(#c6_146)" preserveAspectRatio="none" x="202" y="982" width="65" height="79" xlink:href="img/15.jpg"/>
<path d="M626.3,1125.4c2,0,3.7,-1.6,3.7,-3.6c0,-2,-1.7,-3.6,-3.7,-3.6c-1.9,0,-3.6,1.6,-3.6,3.6c0,2,1.7,3.6,3.6,3.6Z" class="g5_146"/>
<path d="M495.6,1125.4c2,0,3.6,-1.6,3.6,-3.6c0,-2,-1.6,-3.6,-3.6,-3.6c-2,0,-3.6,1.6,-3.6,3.6c0,2,1.6,3.6,3.6,3.6Z" class="g5_146"/>
<path d="M364.9,1125.4c2,0,3.6,-1.6,3.6,-3.6c0,-2,-1.6,-3.6,-3.6,-3.6c-2,0,-3.6,1.6,-3.6,3.6c0,2,1.6,3.6,3.6,3.6Z" class="g5_146"/>
<path d="M757.1,1125.4c2,0,3.6,-1.6,3.6,-3.6c0,-2,-1.6,-3.6,-3.6,-3.6c-2,0,-3.6,1.6,-3.6,3.6c0,2,1.6,3.6,3.6,3.6Z" class="g5_146"/>
<path d="M234.1,1125.4c2,0,3.7,-1.6,3.7,-3.6c0,-2,-1.7,-3.6,-3.7,-3.6c-1.9,0,-3.6,1.6,-3.6,3.6c0,2,1.7,3.6,3.6,3.6Z" class="g5_146"/>
<path d="M192.5,1136.4c0,0,-8.7,0,-8.7,8.7v15.2c0,0,0,8.6,8.7,8.6h86.6c0,0,8.6,0,8.6,-8.6v-15.2c0,0,0,-8.7,-8.6,-8.7Z" class="g6_146"/>
<path d="M322.7,1136.4c0,0,-8.6,0,-8.6,8.7v15.2c0,0,0,8.6,8.6,8.6h86.7c0,0,8.6,0,8.6,-8.6v-15.2c0,0,0,-8.7,-8.6,-8.7Z" class="g6_146"/>
<path d="M453,1136.4c0,0,-8.6,0,-8.6,8.7v15.2c0,0,0,8.6,8.6,8.6h86.6c0,0,8.7,0,8.7,-8.6v-15.2c0,0,0,-8.7,-8.7,-8.7Z" class="g6_146"/>
<path d="M583.3,1136.4c0,0,-8.6,0,-8.6,8.7v15.2c0,0,0,8.6,8.6,8.6h86.6c0,0,8.7,0,8.7,-8.6v-15.2c0,0,0,-8.7,-8.7,-8.7Z" class="g6_146"/>
<path d="M713.6,1136.4c0,0,-8.7,0,-8.7,8.7v15.2c0,0,0,8.6,8.7,8.6h86.6c0,0,8.7,0,8.7,-8.6v-15.2c0,0,0,-8.7,-8.7,-8.7Z" class="g6_146"/>
<path d="M626.3,1073.5c2,0,3.7,-1.6,3.7,-3.6c0,-2,-1.7,-3.6,-3.7,-3.6c-1.9,0,-3.6,1.6,-3.6,3.6c0,2,1.7,3.6,3.6,3.6Z" class="g5_146"/>
<path d="M495.6,1073.5c2,0,3.6,-1.6,3.6,-3.6c0,-2,-1.6,-3.6,-3.6,-3.6c-2,0,-3.6,1.6,-3.6,3.6c0,2,1.6,3.6,3.6,3.6Z" class="g5_146"/>
<path d="M364.9,1073.5c2,0,3.6,-1.6,3.6,-3.6c0,-2,-1.6,-3.6,-3.6,-3.6c-2,0,-3.6,1.6,-3.6,3.6c0,2,1.6,3.6,3.6,3.6Z" class="g5_146"/>
<path d="M757.1,1073.5c2,0,3.6,-1.6,3.6,-3.6c0,-2,-1.6,-3.6,-3.6,-3.6c-2,0,-3.6,1.6,-3.6,3.6c0,2,1.6,3.6,3.6,3.6Z" class="g5_146"/>
<path d="M234.1,1073.5c2,0,3.7,-1.6,3.7,-3.6c0,-2,-1.7,-3.6,-3.7,-3.6c-1.9,0,-3.6,1.6,-3.6,3.6c0,2,1.7,3.6,3.6,3.6Z" class="g5_146"/>
<path d="M599.8,1207.8c0,0,-4.3,0,-4.3,4.3v10.8c0,0,0,4.3,4.3,4.3h30.3c0,0,4.3,0,4.3,-4.3v-10.8c0,0,0,-4.3,-4.3,-4.3Z" class="g7_146"/>
<path d="M586.6,1200.3v34.8m1.3,1H845.1m1,-1.4v-34.8m-1.4,-1H587.6" class="g8_146"/>
<path d="M586.6,1235.5v.6h.6m258.3,0h.6v-.6m0,-36v-.6h-.6m-258.3,0h-.6v.6" class="g9_146"/>
<path d="M209.2,191.1c0,0,-13,0,-13,13v21.7c0,0,0,13,13,13h602c0,0,13,0,13,-13V204.1c0,0,0,-13,-13,-13Z" class="ga_146"/>
<image clip-path="url(#c7_146)" preserveAspectRatio="none" x="152" y="161" width="75" height="77" xlink:href="img/16.png"/>
<path d="M204,231.4c0,0,-26.8,11.3,-51.1,-12.7c0,0,15.2,25.3,49.3,23.9c0,0,24.8,.4,20.3,-10.1c0,0,1.2,-4.4,-18.5,-1.1Z" class="ga_146"/>
<path d="M209.2,875.9c0,0,-13,0,-13,13v21.7c0,0,0,13,13,13H830.8c0,0,13,0,13,-13V888.9c0,0,0,-13,-13,-13Z" class="ga_146"/>
<image clip-path="url(#c8_146)" preserveAspectRatio="none" x="152" y="846" width="75" height="77" xlink:href="img/17.png"/>
<path d="M204,916.2c0,0,-26.8,11.3,-51.1,-12.8c0,0,15.2,25.4,49.3,24c0,0,24.8,.4,20.3,-10.1c0,0,1.2,-4.5,-18.5,-1.1Z" class="ga_146"/>
<path d="M131.7,126.7v22.2l11.7,10.3V137Z" class="gb_146"/>
<path d="M131.7,109.9v39H829.4c0,0,16.9,0,16.9,-16.8v-5.4c0,0,0,-16.8,-16.9,-16.8Z" class="g7_146"/>
<path d="M189.6,121.3l-6.4,-6.5L162,136l6.4,6.5Z" class="gc_146"/>
<path d="M168.4,143c.2,0,.3,0,.4,-.1L190,121.7c.1,-.1,.2,-.3,.2,-.4c0,-.1,-.1,-.3,-.2,-.4l-6.5,-6.4c-.2,-.2,-.5,-.2,-.7,0l-21.2,21.2c-.1,.1,-.2,.2,-.2,.3c0,.2,.1,.3,.2,.4l6.5,6.5c.1,.1,.2,.1,.3,.1m20.5,-21.7l-20.5,20.5L162.7,136l20.5,-20.4Z" class="gd_146"/>
<path d="M189.6,121.3l-6.4,-6.5l2.1,-2.1l6.5,6.5Z" class="ge_146"/>
<path d="M189.6,121.8c.2,0,.3,0,.4,-.1l2.1,-2.1c.1,-.1,.2,-.3,.2,-.4c0,-.2,-.1,-.3,-.2,-.4l-6.4,-6.5c-.2,-.2,-.6,-.2,-.8,0l-2.1,2.2c-.1,0,-.2,.2,-.2,.3c0,.2,.1,.3,.2,.4l6.5,6.5c.1,.1,.2,.1,.3,.1m1.4,-2.6l-1.4,1.4l-5.7,-5.8l1.4,-1.4Z" class="gd_146"/>
<path d="M195.4,115.6l-6.5,-6.5l-3.6,3.6l6.5,6.5Z" class="gf_146"/>
<path d="M191.8,119.7c.1,0,.2,0,.3,-.1l3.7,-3.7c.2,-.2,.2,-.5,0,-.7l-6.5,-6.5c-.2,-.2,-.6,-.2,-.8,0l-3.6,3.6c-.2,.2,-.2,.6,0,.8l6.5,6.5c.1,.1,.2,.1,.4,.1m2.8,-4.1l-2.8,2.8L186,112.7l2.9,-2.9Z" class="gd_146"/>
<path d="M157.3,147.2L162,136l6.4,6.5Z" class="g1_146"/>
<path d="M157.3,147.7c.1,0,.2,0,.2,-.1L168.6,143c.2,-.1,.3,-.2,.4,-.4c0,-.2,-.1,-.3,-.2,-.5l-6.5,-6.4c-.1,-.2,-.3,-.2,-.5,-.2c-.1,.1,-.3,.2,-.3,.3l-4.7,11.1c0,.2,0,.5,.1,.6c.1,.1,.3,.2,.4,.2m10.2,-5.4l-9.2,3.9l3.8,-9.2Z" class="gd_146"/>
<path d="M157.3,147.2l2.3,-5.4l3.1,3.1Z" class="gd_146"/>
<path d="M157.3,147.7c.1,0,.2,0,.2,-.1l5.4,-2.2c.1,-.1,.3,-.2,.3,-.4c0,-.2,0,-.3,-.1,-.5l-3.2,-3.1c-.1,-.1,-.3,-.2,-.4,-.1c-.2,0,-.4,.1,-.4,.3l-2.3,5.3c0,.2,0,.5,.1,.6c.1,.1,.3,.2,.4,.2m4.5,-3l-3.5,1.5l1.4,-3.5Z" class="gd_146"/>
<path d="M187.9,119.5l-3,-2.9l-21.2,21.2l3,3Z" class="gg_146"/>
<path d="M166.7,141.3c.1,0,.2,-.1,.3,-.2l21.3,-21.2c.1,-.1,.1,-.2,.1,-.4c0,-.1,0,-.2,-.1,-.3l-3,-3c-.2,-.2,-.5,-.2,-.8,0l-21.2,21.2c-.1,.1,-.1,.3,-.1,.4c0,.1,0,.3,.1,.4l3,2.9c.1,.1,.2,.2,.4,.2m20.4,-21.8L166.7,140l-2.2,-2.2l20.4,-20.5Z" class="gd_146"/>
<path d="M32.1,45.1H9.2m958.3,0h22.9M32.1,1331.3H9.2m958.3,0h22.9M45.1,32.1V9.2m0,1335.1v22.9M954.5,32.1V9.2m0,1335.1v22.9" class="gh_146"/>
<path d="M32.1,45.1H9.2m958.3,0h22.9M32.1,1331.3H9.2m958.3,0h22.9M45.1,32.1V9.2m0,1335.1v22.9M954.5,32.1V9.2m0,1335.1v22.9" class="gi_146"/>
<path d="M27.5,32.1H0m972.1,0h27.5M27.5,1344.3H0m972.1,0h27.5M32.1,27.5V0m0,1348.9v27.5M967.5,27.5V0m0,1348.9v27.5" class="gh_146"/>
<path d="M27.5,32.1H0m972.1,0h27.5M27.5,1344.3H0m972.1,0h27.5M32.1,27.5V0m0,1348.9v27.5M967.5,27.5V0m0,1348.9v27.5" class="gi_146"/>
</svg>