<?xml version="1.0" encoding="UTF-8" standalone="no"?>
<!DOCTYPE svg PUBLIC "-//W3C//DTD SVG 1.1//EN"
"http://www.w3.org/Graphics/SVG/1.1/DTD/svg11.dtd">
<svg viewBox="0 0 999 1376" version="1.1" xmlns="http://www.w3.org/2000/svg" xmlns:xlink="http://www.w3.org/1999/xlink">
<defs>
<clipPath id="c0_201"><path d="M32.1,1344.3V32.1H967.5V1344.3Z"/></clipPath>
<clipPath id="c1_201"><path d="M682.7,178.5V60.3H865.1V178.5Z"/></clipPath>
<clipPath id="c2_201"><path d="M215.3,827.9V699.8H854.4V827.9Z"/></clipPath>
<clipPath id="c3_201"><path d="M215.3,997.2V866.3H854.4V997.2Z"/></clipPath>
<clipPath id="c4_201"><path d="M215.3,1144.4V1035.5H854.4v108.9Z"/></clipPath>
<style type="text/css"><![CDATA[
.g0_201{
fill: #FEFCF4;
}
.g1_201{
fill: #F16865;
}
.g2_201{
fill: #FFF;
}
.g3_201{
fill: none;
stroke: #6381B7;
stroke-width: 0.763;
}
.g4_201{
fill: #E3E7F2;
}
.g5_201{
fill: #6381B7;
}
.g6_201{
fill: none;
stroke: #6381B7;
stroke-width: 0.381;
stroke-dasharray: 2,1;
}
.g7_201{
fill: none;
stroke: #6381B7;
stroke-width: 0.381;
}
.g8_201{
fill: #FEF8F8;
}
.g9_201{
fill: none;
stroke: #A164A9;
stroke-width: 1.527;
stroke-linecap: round;
stroke-linejoin: round;
stroke-dasharray: 0,5;
}
.ga_201{
fill: none;
stroke: #A164A9;
stroke-width: 1.527;
stroke-linecap: round;
stroke-linejoin: round;
}
.gb_201{
fill: #A164A9;
}
.gc_201{
fill: none;
stroke: #231F20;
stroke-width: 0.305;
stroke-miterlimit: 10;
}
.gd_201{
fill: none;
stroke: #FFF;
stroke-width: 1.909;
stroke-miterlimit: 10;
}
.ge_201{
fill: none;
stroke: #000;
stroke-width: 0.381;
stroke-miterlimit: 10;
}
]]></style>
</defs>
<path clip-path="url(#c0_201)" d="M-877.3,1344.3H45.1V32.1H-877.3V1344.3Z" class="g0_201"/>
<path d="M45.1,1344.3H967.5V32.1H45.1V1344.3Z" class="g0_201"/>
<path clip-path="url(#c0_201)" d="M867.9,166.7c0,0,30.3,0,30.3,-30.3v-4.3c0,0,0,-30.3,-30.3,-30.3H-735.4c0,0,-30.4,0,-30.4,30.3v4.3c0,0,0,30.3,30.4,30.3Z" class="g1_201"/>
<path d="M166.9,218.7c0,0,-13,0,-13,13V534.1c0,0,0,13,13,13H854.8c0,0,13,0,13,-13V231.7c0,0,0,-13,-13,-13Z" class="g2_201"/>
<path d="M166.9,218.7c0,0,-13,0,-13,13V534.1c0,0,0,13,13,13H854.8c0,0,13,0,13,-13V231.7c0,0,0,-13,-13,-13H166.9Z" class="g3_201"/>
<path d="M190.5,431.7h628V262.8h-628V431.7Z" class="g4_201"/>
<path d="M630.1,562.4c0,0,-4.3,0,-4.3,4.3v10.9c0,0,0,4.3,4.3,4.3h30.3c0,0,4.3,0,4.3,-4.3V566.7c0,0,0,-4.3,-4.3,-4.3Z" class="g5_201"/>
<path d="M616.9,554.9v34.9m1.4,1H866.8m.9,-1.4V554.5m-1.3,-.9H617.9" class="g6_201"/>
<path d="M616.9,590.2v.6h.6m249.6,0h.6v-.6m0,-36.1v-.5h-.6m-249.6,0h-.6v.5" class="g7_201"/>
<path d="M704.6,1207.5c0,0,-4.3,0,-4.3,4.3v10.8c0,0,0,4.4,4.3,4.4h30.3c0,0,4.3,0,4.3,-4.4v-10.8c0,0,0,-4.3,-4.3,-4.3Z" class="g5_201"/>
<path d="M691.4,1200v34.8m1.3,1H866.8m.9,-1.3v-34.9m-1.3,-1h-174" class="g6_201"/>
<path d="M691.4,1235.2v.6h.6m175.1,0h.6v-.6m0,-36v-.6h-.6m-175.1,0h-.6v.6" class="g7_201"/>
<image clip-path="url(#c1_201)" preserveAspectRatio="none" x="683" y="60" width="182" height="118" xlink:href="img/1.png"/>
<path d="M154.3,1193.7H867.4V632.3H154.3v561.4Z" class="g8_201"/>
<path d="M154.3,636.8v554.7m4.6,2.2H865.1m2.3,-4.5V634.6m-4.6,-2.3H156.6" class="g9_201"/>
<path d="M154.3,1193.7v0m713.1,0v0m0,-561.4v0m-713.1,0v0" class="ga_201"/>
<path d="M153.6,646.6V608.3c0,0,0,-8.7,8.6,-8.7H859.5c0,0,8.6,0,8.6,8.7v38.9Z" class="gb_201"/>
<image clip-path="url(#c2_201)" preserveAspectRatio="none" x="215" y="700" width="639" height="129" xlink:href="img/2.png"/>
<path d="M218.5,821.6H848.3V703H218.5V821.6Z" class="g2_201"/>
<path d="M231.5,758.8H300" class="gc_201"/>
<image clip-path="url(#c3_201)" preserveAspectRatio="none" x="215" y="867" width="639" height="130" xlink:href="img/3.png"/>
<path d="M218.5,990.8H848.3V869.6H218.5V990.8Z" class="g2_201"/>
<path d="M418.8,899.4h69.9" class="gc_201"/>
<image clip-path="url(#c4_201)" preserveAspectRatio="none" x="215" y="1036" width="639" height="109" xlink:href="img/4.png"/>
<path d="M218.5,1138.4H848.3v-99.6H218.5v99.6Z" class="g2_201"/>
<path d="M296.7,1068.6H364" class="gc_201"/>
<path d="M32.1,45.1H9.2m958.3,0h22.9M32.1,1331.3H9.2m958.3,0h22.9M45.1,32.1V9.2m0,1335.1v22.9M954.5,32.1V9.2m0,1335.1v22.9" class="gd_201"/>
<path d="M32.1,45.1H9.2m958.3,0h22.9M32.1,1331.3H9.2m958.3,0h22.9M45.1,32.1V9.2m0,1335.1v22.9M954.5,32.1V9.2m0,1335.1v22.9" class="ge_201"/>
<path d="M27.5,32.1H0m972.1,0h27.5M27.5,1344.3H0m972.1,0h27.5M32.1,27.5V0m0,1348.9v27.5M967.5,27.5V0m0,1348.9v27.5" class="gd_201"/>
<path d="M27.5,32.1H0m972.1,0h27.5M27.5,1344.3H0m972.1,0h27.5M32.1,27.5V0m0,1348.9v27.5M967.5,27.5V0m0,1348.9v27.5" class="ge_201"/>
</svg>