<?xml version="1.0" encoding="UTF-8" standalone="no"?>
<!DOCTYPE svg PUBLIC "-//W3C//DTD SVG 1.1//EN"
"http://www.w3.org/Graphics/SVG/1.1/DTD/svg11.dtd">
<svg viewBox="0 0 999 1376" version="1.1" xmlns="http://www.w3.org/2000/svg" xmlns:xlink="http://www.w3.org/1999/xlink">
<defs>
<clipPath id="c0_82"><path d="M32.1,1344.3V32.1H967.5V1344.3Z"/></clipPath>
<clipPath id="c1_82"><path d="M58.7,952.5v-242h225v242Z"/></clipPath>
<clipPath id="c2_82"><path d="M54.4,952.9V707.6H287.6V952.9Z"/></clipPath>
<clipPath id="c3_82"><path d="M54.1,952.6V707.3H287.3V952.6Z"/></clipPath>
<clipPath id="c4_82"><path d="M711.1,994V715.1H938.8V994Z"/></clipPath>
<clipPath id="c5_82"><path d="M706.9,996.6V712.8H940.1V996.6Z"/></clipPath>
<clipPath id="c6_82"><path d="M706.6,996.3V712.5H939.8V996.3Z"/></clipPath>
<clipPath id="c7_82"><path d="M177,543.9l-6.5,-2.1L154.1,527.9V470.8h72v73.1Z"/></clipPath>
<clipPath id="c8_82"><path d="M177.5,1126.8l-6.5,-2.1l-16.4,-13.9v-57.1h72v73.1Z"/></clipPath>
<clipPath id="c9_82"><path d="M764.8,434.9V422.5h14.5v12.4Z"/></clipPath>
<clipPath id="ca_82"><path d="M165.2,727.5c-.2,-.1,3.6,-8.2,3.6,-8.2l.8,.5c0,0,-4.1,7.7,-4.4,7.7Z"/></clipPath>
<clipPath id="cb_82"><path d="M172.7,719.8c0,0,-6.8,-1.1,-7.5,-5.2c-.7,-3.6,1.5,-3.9,2,-3.9c.1,0,.2,0,.2,0L175.7,698l-1.5,-3.1c0,0,-.6,-1.1,.2,-2.1c0,0,.1,-.1,.3,-.1c2.1,0,12.9,5.6,12.9,5.6l.1,.1c-.4,.5,-.8,1.2,-1.4,1.7c-.7,.5,-5.1,1.1,-5.1,1.1l-8.5,18.6Z"/></clipPath>
<clipPath id="cc_82"><path d="M172.3,719.4c.2,-.4,.2,-1.8,0,-2.2v-1.4c-1.5,-.5,-2.8,-1.3,-3.6,-2.5c-1.1,.6,-2.1,1.2,-3.1,1.9c1.5,2.1,3.8,3.5,6.7,4.2Zm0,-3.9c2.2,-4.5,4,-9.5,6.2,-14c-.9,-.4,-1.9,-1.4,-2.6,-1.4c-2.3,4.3,-4.6,8.6,-7.1,12.8c.7,1.3,2.1,2,3.5,2.6ZM165,727.6c1.1,-2.9,2.4,-5.5,3.6,-8.3c-2,-1.5,-4,-3.1,-4.4,-6.2v-1.5c-.1,-2.7,1.9,-3.4,4.6,-3.4c0,0,.1,0,.1,0c2,-3.3,4.3,-6.3,6.2,-9.6c-.6,-.9,-1.2,-2.4,-.9,-3.7c.5,1.3,1.6,1.9,2.4,2.9c-.1,.6,-.3,1.2,-.4,1.8c.6,.6,1.4,1.2,2.4,1.4c.5,-.5,.5,-1.3,1.2,-1.6c.9,.4,1.8,.8,3.1,.8c.1,.1,.5,.2,.8,.2c.4,0,.7,-.1,.8,-.2c.1,0,.2,0,.3,0c.3,0,.5,0,.7,-.1c.1,-.1,.3,-.1,.5,-.1c.1,0,.2,0,.3,.1c-1.3,.6,-2.2,1.7,-4.2,1.7c-.1,0,-.2,0,-.3,0c-.9,3.8,-1.9,7.4,-2.7,11.2c.6,1.1,1.5,1.7,1.3,3.2c-.5,2.7,-3.9,4.4,-7.2,4.4c-1.3,0,-2.5,-.3,-3.6,-.8c-1,2.1,-2.1,4.1,-3.3,6c0,-.3,.3,-.4,.3,-.7c.9,-1.8,1.9,-3.6,2.6,-5.7c-1.1,1.7,-1.8,3.7,-2.8,5.6c-.2,.4,-.4,.8,-.6,1.2c-.3,.4,-.3,1.1,-.8,1.4Z"/></clipPath>
<clipPath id="cd_82"><path d="M182.8,699.8c-4.8,0,-13.1,-7.3,-5.6,-8.8h1.3c.1,.1,.3,.1,.5,.1q.1,0,.2,0c0,0,.1,0,.2,0c.2,0,.5,0,.9,.1c3,.6,8.2,3.8,7.5,7c-.2,1.1,-1.6,1.6,-3.1,1.6h-1.8c0,0,-.1,0,-.1,0Z"/></clipPath>
<clipPath id="ce_82"><path d="M823.9,748.5c-.3,-.1,3.5,-8.3,3.5,-8.3l.8,.6c0,0,-4,7.7,-4.3,7.7Z"/></clipPath>
<clipPath id="cf_82"><path d="M831.4,740.7c0,0,-6.9,-1.1,-7.6,-5.2c-.6,-3.6,1.5,-3.8,2.1,-3.8q.1,0,.1,0L834.3,719l-1.4,-3.1c0,0,-.6,-1.1,.1,-2.1c.1,-.1,.2,-.1,.3,-.1c2.1,0,13,5.5,13,5.5v.2c-.3,.5,-.7,1.1,-1.4,1.6c-.6,.5,-5,1.2,-5,1.2l-8.5,18.5Z"/></clipPath>
<clipPath id="cg_82"><path d="M831,740.4c.2,-.5,.2,-1.8,0,-2.3v-1.4c-1.5,-.5,-2.9,-1.2,-3.7,-2.5c-1,.6,-2.1,1.3,-3.1,1.9c1.6,2.1,3.8,3.6,6.8,4.3Zm0,-3.9c2.2,-4.6,4,-9.5,6.1,-14.1c-.8,-.4,-1.8,-1.3,-2.6,-1.4c-2.3,4.4,-4.6,8.7,-7,12.9c.7,1.3,2.1,2,3.5,2.6Zm-7.3,12.1c1,-2.9,2.4,-5.5,3.5,-8.3c-2,-1.6,-3.9,-3.2,-4.4,-6.2v-1.5c0,-2.7,1.9,-3.4,4.6,-3.4q.1,0,.2,0c1.9,-3.3,4.2,-6.3,6.2,-9.7c-.6,-.8,-1.2,-2.3,-.9,-3.6c.5,1.2,1.6,1.9,2.4,2.9c-.1,.6,-.3,1.1,-.4,1.7c.6,.7,1.3,1.2,2.4,1.4c.4,-.4,.5,-1.2,1.1,-1.5c.9,.4,1.8,.8,3.1,.8c.2,.1,.5,.1,.9,.1c.3,0,.7,0,.8,-.1c.1,0,.2,0,.3,0c.2,0,.4,-.1,.6,-.1c.2,-.1,.4,-.2,.5,-.2c.1,0,.2,.1,.3,.1c-1.3,.7,-2.1,1.8,-4.1,1.8c-.1,0,-.3,0,-.4,0c-.8,3.7,-1.8,7.4,-2.6,11.2c.5,1,1.5,1.7,1.2,3.1c-.4,2.7,-3.8,4.4,-7.2,4.4c-1.2,0,-2.5,-.2,-3.6,-.7c-1,2.1,-2,4.1,-3.2,6c-.1,-.4,.2,-.4,.2,-.8c1,-1.8,2,-3.5,2.6,-5.6c-1,1.7,-1.8,3.7,-2.7,5.5c-.2,.4,-.4,.9,-.6,1.3c-.3,.4,-.3,1.1,-.8,1.4Z"/></clipPath>
<clipPath id="ch_82"><path d="M841.4,720.8c-4.8,0,-13.1,-7.3,-5.5,-8.8h1.2c.2,0,.4,0,.7,0q.1,0,.1,0c.3,0,.6,0,1,.1c3.1,.7,8.2,3.8,7.5,7c-.2,1.2,-1.5,1.6,-3.1,1.7h-1.9Z"/></clipPath>
<clipPath id="ci_82"><path d="M125.5,386.7V205.8H858.6V386.7Z"/></clipPath>
<style type="text/css"><![CDATA[
.g0_82{
fill: #FEFCF4;
}
.g1_82{
fill: #FFF;
}
.g2_82{
fill: none;
stroke: #6381B7;
stroke-width: 0.763;
}
.g3_82{
fill: #F7C2D9;
}
.g4_82{
fill: #FDF4F3;
}
.g5_82{
fill: #EC008C;
}
.g6_82{
fill: none;
stroke: #949698;
stroke-width: 0.305;
stroke-dasharray: 4,4;
}
.g7_82{
fill: none;
stroke: #949698;
stroke-width: 0.305;
stroke-dasharray: 3,3;
}
.g8_82{
fill: none;
stroke: #949698;
stroke-width: 0.305;
}
.g9_82{
fill: none;
stroke: #818385;
stroke-width: 0.305;
stroke-dasharray: 4,4;
}
.ga_82{
fill: none;
stroke: #818385;
stroke-width: 0.305;
}
.gb_82{
fill: #6D6F71;
}
.gc_82{
fill: #6381B7;
}
.gd_82{
fill: none;
stroke: #6381B7;
stroke-width: 0.381;
stroke-dasharray: 2,1;
}
.ge_82{
fill: none;
stroke: #6381B7;
stroke-width: 0.381;
}
.gf_82{
fill: #FCE8B0;
}
.gg_82{
fill: #25408F;
}
.gh_82{
fill: #A8AAAD;
}
.gi_82{
fill: none;
stroke: #949698;
stroke-width: 0.549;
}
.gj_82{
fill: none;
stroke: #BCBEC0;
stroke-width: 2.566;
}
.gk_82{
fill: #231F20;
}
.gl_82{
fill: #363637;
}
.gm_82{
fill: #5CC4BE;
}
.gn_82{
fill: #EAD646;
}
.go_82{
fill: #2E6E51;
}
.gp_82{
fill: none;
stroke: #FFF;
stroke-width: 0.152;
stroke-miterlimit: 1;
}
.gq_82{
fill: #BCBEC0;
}
.gr_82{
fill: #EE314A;
}
.gs_82{
fill: #CEEDFB;
}
.gt_82{
fill: #27639D;
}
.gu_82{
fill: none;
stroke: #C3E7F1;
stroke-width: 1.527;
}
.gv_82{
fill: none;
stroke: #FFF;
stroke-width: 1.909;
stroke-miterlimit: 10;
}
.gw_82{
fill: none;
stroke: #000;
stroke-width: 0.381;
stroke-miterlimit: 10;
}
]]></style>
</defs>
<path d="M32.1,1344.3H954.5V32.1H32.1V1344.3Z" class="g0_82"/>
<path clip-path="url(#c0_82)" d="M954.5,1344.3H1877V32.1H954.5V1344.3Z" class="g0_82"/>
<path d="M150.4,440.5c0,0,-18.3,0,-18.3,18.3v553.7c0,0,0,18.3,18.3,18.3H827.5c0,0,18.4,0,18.4,-18.3v-572Z" class="g1_82"/>
<path d="M150.4,440.5c0,0,-18.3,0,-18.3,18.3v553.7c0,0,0,18.3,18.3,18.3H827.5c0,0,18.4,0,18.4,-18.3v-572H150.4Z" class="g2_82"/>
<image clip-path="url(#c1_82)" preserveAspectRatio="none" x="58" y="711" width="225" height="242" xlink:href="img/1.png"/>
<path d="M67.4,715.8L64,944l211.4,2.5l2.3,-227.8Z" class="g3_82"/>
<image clip-path="url(#c2_82)" preserveAspectRatio="none" x="54" y="708" width="233" height="245" xlink:href="img/2.png"/>
<image clip-path="url(#c3_82)" preserveAspectRatio="none" x="53" y="708" width="234" height="245" xlink:href="img/3.png"/>
<path d="M59.2,722.5L70,946.7l179.1,-8.9L281,910.6L271.4,712Z" class="g4_82"/>
<path d="M248.7,938.4l32.4,-28l-22.3,-2.9Z" class="g5_82"/>
<path d="M446.5,741.3C431.6,728.7,370.9,681.9,293.6,685.8" class="g6_82"/>
<path d="M286.7,687.3c-4.4,3.4,-.5,12.2,3.9,10.9m4.3,-5.4c1.8,-6.4,-3.4,-14.5,-18.8,-16.3" class="g7_82"/>
<path d="M268.5,676c-25.9,-.5,-96.5,4.7,-158.3,41.8" class="g6_82"/>
<path d="M450,744.4c0,0,-.4,-.4,-1.2,-1M292,685.9c-.5,.1,-1,.1,-1.5,.1c-.5,.1,-.9,.1,-1.3,.2m2.6,11.4c.4,-.2,.7,-.5,1,-.9c.4,-.4,.7,-.8,.9,-1.2m-19,-19.2c-.5,0,-1,-.1,-1.5,-.1c-.5,0,-1,-.1,-1.6,-.1M108.9,718.6c-.4,.2,-.9,.5,-1.3,.8" class="g8_82"/>
<path d="M428.6,781.6c28.7,-.6,51.8,-7.3,56.2,-15.8m-.8,-7.2C477.9,750.5,454.9,744.4,427.1,744m-7.7,.1c-28.6,.6,-51.8,7.2,-56.2,15.8m.8,7.2c6.1,8.1,29.1,14.1,56.9,14.6" class="g9_82"/>
<path d="M485.4,764.4c.1,-.5,.2,-1,.2,-1.6c0,-.5,-.1,-1,-.2,-1.5M425.6,744c-.6,0,-1.1,0,-1.6,0c-.5,0,-1,0,-1.5,0m-59.8,17.3c-.2,.5,-.2,1,-.2,1.5c0,.6,0,1.1,.2,1.6m59.8,17.3c.5,0,1,0,1.5,0c.5,0,1,0,1.6,0" class="ga_82"/>
<path d="M110.6,722.9l-4.7,-7.5l-7.2,9.8Z" class="gb_82"/>
<image clip-path="url(#c4_82)" preserveAspectRatio="none" x="710" y="716" width="228" height="278" xlink:href="img/4.png"/>
<path d="M716.3,722.3L720,987.9l212.8,-2.2L928.1,720.4Z" class="g3_82"/>
<image clip-path="url(#c5_82)" preserveAspectRatio="none" x="707" y="713" width="233" height="284" xlink:href="img/5.png"/>
<image clip-path="url(#c6_82)" preserveAspectRatio="none" x="706" y="713" width="234" height="284" xlink:href="img/6.png"/>
<path d="M724,717.2L711.3,980.1L888.4,990l34.3,-22.7l11,-238.5Z" class="g4_82"/>
<path d="M889.4,989.9L923.1,967l-27.6,-3.6Z" class="g5_82"/>
<path d="M492.3,921.2c23.1,-.7,41.7,-6.5,45.7,-14m-.8,-7.4c-5.5,-7,-24.1,-12.3,-46.5,-12.7m-7.9,0c-23.1,.7,-41.7,6.5,-45.7,14m.9,7.4c5.5,7,24,12.3,46.4,12.8" class="g9_82"/>
<path d="M538.6,905.7c.2,-.5,.2,-1,.2,-1.5c0,-.6,0,-1.1,-.2,-1.6M489.2,887c-.6,0,-1.1,0,-1.6,0c-.6,0,-1.1,0,-1.6,0m-49.5,15.6c-.1,.5,-.2,1,-.2,1.6c0,.5,.1,1,.2,1.5M486,921.3c.5,0,1,0,1.6,0c.5,0,1,0,1.6,0" class="ga_82"/>
<path d="M531,895c0,0,75.7,-123.7,189.2,-129.8" class="g6_82"/>
<path d="M715.2,760.9l-.1,8.9l11.4,-4.4Z" class="gb_82"/>
<path d="M457.4,1227.8c0,0,-4.3,0,-4.3,4.3V1243c0,0,0,4.3,4.3,4.3h30.3c0,0,4.4,0,4.4,-4.3v-10.9c0,0,0,-4.3,-4.4,-4.3Z" class="gc_82"/>
<path d="M444.2,1219v37.5m1.4,1H845.1m1,-1.3v-37.6m-1.4,-1H445.2" class="gd_82"/>
<path d="M444.2,1256.9v.6h.6m400.7,0h.6v-.6m0,-38.7v-.6h-.6m-400.7,0h-.6v.6" class="ge_82"/>
<path d="M145.1,1037.8c0,0,-13,0,-13,13v148.7c0,0,0,13,13,13H832.9c0,0,13,0,13,-13V1050.8c0,0,0,-13,-13,-13Z" class="g1_82"/>
<path d="M145.1,1037.8c0,0,-13,0,-13,13v148.7c0,0,0,13,13,13H832.9c0,0,13,0,13,-13V1050.8c0,0,0,-13,-13,-13H145.1Z" class="g2_82"/>
<path d="M209.6,473c0,0,-12.9,0,-12.9,12.9v47.7c0,0,0,13,12.9,13h602c0,0,13,0,13,-13V485.9c0,0,0,-12.9,-13,-12.9Z" class="gf_82"/>
<image clip-path="url(#c7_82)" preserveAspectRatio="none" x="153" y="469" width="75" height="77" xlink:href="img/7.png"/>
<path d="M204.4,539.2c0,0,-26.8,11.3,-51.1,-12.8c0,0,15.2,25.4,49.3,24c0,0,24.8,.4,20.3,-10.1c0,0,1.2,-4.5,-18.5,-1.1Z" class="gf_82"/>
<path d="M210.2,1081.8c0,0,-13,0,-13,13v21.7c0,0,0,13,13,13H812.1c0,0,13,0,13,-13v-21.7c0,0,0,-13,-13,-13Z" class="gf_82"/>
<image clip-path="url(#c8_82)" preserveAspectRatio="none" x="153" y="1052" width="75" height="76" xlink:href="img/8.png"/>
<path d="M205,1122.1c0,0,-26.9,11.3,-51.1,-12.8c0,0,15.1,25.4,49.2,24c0,0,24.8,.4,20.3,-10.1c0,0,1.2,-4.5,-18.4,-1.1Z" class="gf_82"/>
<path d="M131.7,414.3v39l11.7,10.3V419.3Z" class="gg_82"/>
<path d="M131.7,414.3v39H829.5c0,0,16.8,0,16.8,-16.8v-5.4c0,0,0,-16.8,-16.8,-16.8Z" class="gc_82"/>
<path d="M781,447.9c8.2,0,14.8,-6.5,14.8,-14.5c0,-8,-6.6,-14.5,-14.8,-14.5c-8.3,0,-14.9,6.5,-14.9,14.5c0,8,6.6,14.5,14.9,14.5Z" class="gh_82"/>
<path d="M781,447.9c8.2,0,14.8,-6.5,14.8,-14.5c0,-8,-6.6,-14.5,-14.8,-14.5c-8.3,0,-14.9,6.5,-14.9,14.5c0,8,6.6,14.5,14.9,14.5Z" class="gi_82"/>
<path d="M781,438.8c3,0,5.4,-2.4,5.4,-5.4c0,-3,-2.4,-5.4,-5.4,-5.4c-3.1,0,-5.5,2.4,-5.5,5.4c0,3,2.4,5.4,5.5,5.4Z" class="g1_82"/>
<path d="M781,438.8c3,0,5.4,-2.4,5.4,-5.4c0,-3,-2.4,-5.4,-5.4,-5.4c-3.1,0,-5.5,2.4,-5.5,5.4c0,3,2.4,5.4,5.5,5.4Z" class="gj_82"/>
<g clip-path="url(#c9_82)" opacity="0.3">
<path d="M766.4,432.6c0,0,-.1,-4.8,3.6,-8.6l7.8,6.7c0,0,-1,.9,-1.1,2.7Z" class="g1_82"/>
</g>
<path d="M785.6,433.3c0,0,-3.5,0,-3.5,3.5v8.7c0,0,0,3.4,3.5,3.4H829c0,0,3.5,0,3.5,-3.4v-8.7c0,0,0,-3.5,-3.5,-3.5Z" class="gk_82"/>
<path d="M169.5,424.4c0,-8.4,-6.7,-15.1,-15,-15.1c-8.4,0,-15.1,6.7,-15.1,15.1c0,8.3,6.8,15,15.1,15c.8,0,1.6,0,2.4,-.2l4.5,5.3v-6.8c4.8,-2.5,8.1,-7.5,8.1,-13.3Z" class="g1_82"/>
<path d="M161.8,445.7l-5.1,-6c-.7,.1,-1.5,.2,-2.2,.2c-8.6,0,-15.6,-7,-15.6,-15.5c0,-8.6,7,-15.5,15.6,-15.5c8.5,0,15.5,6.9,15.5,15.5c0,5.7,-3.1,10.9,-8.2,13.6Zm-4.7,-7l3.8,4.5v-5.7l.3,-.2c4.8,-2.5,7.9,-7.5,7.9,-12.9c0,-8.1,-6.6,-14.6,-14.6,-14.6c-8.1,0,-14.6,6.5,-14.6,14.6c0,8,6.5,14.6,14.6,14.6c.7,0,1.5,-.1,2.3,-.2Z" class="gl_82"/>
<path d="M147.4,423.9c.8,0,1.5,.7,1.5,1.5c0,.8,-.7,1.4,-1.5,1.4c-.7,0,-1.4,-.6,-1.4,-1.4c0,-.8,.7,-1.5,1.4,-1.5Z" class="gm_82"/>
<path d="M147.4,427.3c-1,0,-1.8,-.9,-1.8,-1.9c0,-1.1,.8,-1.9,1.8,-1.9c1.1,0,1.9,.8,1.9,1.9c0,1,-.8,1.9,-1.9,1.9m0,-2.9c-.5,0,-.9,.4,-.9,1c0,.5,.4,1,.9,1c.6,0,1,-.5,1,-1c0,-.6,-.4,-1,-1,-1Z" class="gl_82"/>
<path d="M154.5,423.9c.8,0,1.4,.7,1.4,1.5c0,.8,-.6,1.4,-1.4,1.4c-.8,0,-1.5,-.6,-1.5,-1.4c0,-.8,.7,-1.5,1.5,-1.5Z" class="gm_82"/>
<path d="M154.5,427.3c-1.1,0,-1.9,-.9,-1.9,-1.9c0,-1.1,.8,-1.9,1.9,-1.9c1,0,1.9,.8,1.9,1.9c0,1,-.9,1.9,-1.9,1.9m0,-2.9c-.6,0,-1,.4,-1,1c0,.5,.4,1,1,1c.5,0,.9,-.5,.9,-1c0,-.6,-.4,-1,-.9,-1Z" class="gl_82"/>
<path d="M161.5,423.9c.8,0,1.4,.7,1.4,1.5c0,.8,-.6,1.4,-1.4,1.4c-.8,0,-1.5,-.6,-1.5,-1.4c0,-.8,.7,-1.5,1.5,-1.5Z" class="gm_82"/>
<path d="M161.5,427.3c-1.1,0,-1.9,-.9,-1.9,-1.9c0,-1.1,.8,-1.9,1.9,-1.9c1,0,1.9,.8,1.9,1.9c0,1,-.9,1.9,-1.9,1.9m0,-2.9c-.6,0,-1,.4,-1,1c0,.5,.4,1,1,1c.5,0,1,-.5,1,-1c0,-.6,-.5,-1,-1,-1Z" class="gl_82"/>
<path d="M163.4,438.6c0,-9.7,7.9,-17.6,17.6,-17.6c9.7,0,17.6,7.9,17.6,17.6c0,9.7,-7.9,17.6,-17.6,17.6c-.9,0,-1.9,-.1,-2.8,-.2l-5.3,6.1v-7.8c-5.6,-3,-9.5,-8.9,-9.5,-15.7Z" class="gn_82"/>
<path d="M172.9,462.6c0,0,-.1,-.1,-.1,-.1c-.2,0,-.3,-.2,-.3,-.4v-7.6c-5.9,-3.1,-9.6,-9.2,-9.6,-15.9c0,-10,8.2,-18.1,18.1,-18.1c10,0,18.1,8.1,18.1,18.1c0,10,-8.1,18.1,-18.1,18.1c-.8,0,-1.7,-.1,-2.6,-.2l-5.1,5.9c-.1,.1,-.2,.2,-.4,.2M181,421.4c-9.4,0,-17.1,7.7,-17.1,17.2c0,6.5,3.5,12.3,9.2,15.2c.2,.1,.3,.3,.3,.5v6.6l4.4,-5.2c.1,-.1,.3,-.2,.5,-.2c.9,.2,1.8,.3,2.7,.3c9.5,0,17.2,-7.7,17.2,-17.2c0,-9.5,-7.7,-17.2,-17.2,-17.2Z" class="gl_82"/>
<path d="M189.2,438.1c.9,0,1.7,.8,1.7,1.7c0,.9,-.8,1.7,-1.7,1.7c-.9,0,-1.7,-.8,-1.7,-1.7c0,-.9,.8,-1.7,1.7,-1.7Z" class="g1_82"/>
<path d="M189.2,441.9c-1.2,0,-2.1,-.9,-2.1,-2.1c0,-1.2,.9,-2.1,2.1,-2.1c1.2,0,2.1,.9,2.1,2.1c0,1.2,-.9,2.1,-2.1,2.1m0,-3.3c-.7,0,-1.2,.5,-1.2,1.2c0,.7,.5,1.2,1.2,1.2c.7,0,1.2,-.5,1.2,-1.2c0,-.7,-.5,-1.2,-1.2,-1.2Z" class="gl_82"/>
<path d="M181,438.1c.9,0,1.7,.8,1.7,1.7c0,.9,-.8,1.7,-1.7,1.7c-.9,0,-1.7,-.8,-1.7,-1.7c0,-.9,.8,-1.7,1.7,-1.7Z" class="g1_82"/>
<path d="M181,441.9c-1.2,0,-2.1,-.9,-2.1,-2.1c0,-1.2,.9,-2.1,2.1,-2.1c1.2,0,2.1,.9,2.1,2.1c0,1.2,-.9,2.1,-2.1,2.1m0,-3.3c-.7,0,-1.2,.5,-1.2,1.2c0,.7,.5,1.2,1.2,1.2c.7,0,1.2,-.5,1.2,-1.2c0,-.7,-.5,-1.2,-1.2,-1.2Z" class="gl_82"/>
<path d="M172.8,438.1c.9,0,1.7,.8,1.7,1.7c0,.9,-.8,1.7,-1.7,1.7c-.9,0,-1.7,-.8,-1.7,-1.7c0,-.9,.8,-1.7,1.7,-1.7Z" class="g1_82"/>
<path d="M172.8,441.9c-1.2,0,-2.1,-.9,-2.1,-2.1c0,-1.2,.9,-2.1,2.1,-2.1c1.2,0,2.1,.9,2.1,2.1c0,1.2,-.9,2.1,-2.1,2.1m0,-3.3c-.7,0,-1.2,.5,-1.2,1.2c0,.7,.5,1.2,1.2,1.2c.7,0,1.2,-.5,1.2,-1.2c0,-.7,-.5,-1.2,-1.2,-1.2Z" class="gl_82"/>
<image clip-path="url(#ca_82)" x="164" y="719" width="6" height="9" xlink:href="shade/1.png"/>
<image clip-path="url(#cb_82)" x="164" y="692" width="24" height="28" xlink:href="shade/2.png"/>
<image clip-path="url(#cc_82)" x="164" y="694" width="23" height="34" xlink:href="shade/3.png"/>
<image clip-path="url(#cd_82)" x="169" y="691" width="20" height="9" xlink:href="shade/4.png"/>
<image clip-path="url(#ce_82)" x="823" y="740" width="6" height="9" xlink:href="shade/5.png"/>
<image clip-path="url(#cf_82)" x="823" y="713" width="24" height="28" xlink:href="shade/6.png"/>
<image clip-path="url(#cg_82)" x="822" y="715" width="23" height="34" xlink:href="shade/7.png"/>
<image clip-path="url(#ch_82)" x="828" y="711" width="20" height="10" xlink:href="shade/8.png"/>
<path d="M32.1,179.3H967.5V32.1H32.1V179.3Z" class="go_82"/>
<path d="M261.9,135.2L260.7,134H247.3l1.3,1.2h13.3Zm-1.6,2.9c-.3,-.5,-.6,-.9,-.9,-1.1c-.3,-.3,-.6,-.5,-.9,-.5c-.2,.3,-.4,.6,-.6,.9c-.1,.3,-.4,.6,-.6,.8c-.6,.7,-1.2,1,-1.7,.9c.3,-.4,.5,-.9,.5,-1.2c0,-.4,-.1,-.8,-.5,-1.1c-.3,-.2,-.6,-.4,-1,-.4c-1.3,0,-2,.7,-2,1.9c0,.8,.3,1.4,.9,1.9c.5,.4,1.1,.6,1.9,.6c1.5,0,2.8,-.6,3.8,-1.9c.4,0,.6,.6,.6,1.7c0,.9,-.3,1.7,-1,2.3c-.6,.7,-1.4,1,-2.3,1c-.8,0,-1.7,-.2,-2.4,-.7c-.8,-.4,-1.5,-1,-2.1,-1.7c-.5,-.6,-.9,-1.4,-1.3,-2.2c-.4,-.8,-.8,-1.7,-1.1,-2.7l-.7,-.2c.5,1.4,.9,2.7,1.3,3.7c.4,1,.8,1.8,1.1,2.3c1.4,2.3,3,3.5,5,3.5c1.4,0,2.6,-.6,3.4,-1.6c.5,-.5,.8,-1.1,1,-1.7c.2,-.6,.3,-1.3,.3,-2c0,-.7,-.3,-1.5,-.7,-2.5Zm6.3,-2.9L265.5,134h-1.1c-.4,-.4,-.6,-1,-.8,-1.9l-.4,-.3c0,.2,0,.5,0,.9c0,.3,.1,.7,.1,1.2c0,.5,.1,.9,.1,1.3c0,.3,0,.6,0,.9c-.2,-.8,-.6,-1.3,-1,-1.6c-.4,-.3,-.9,-.5,-1.7,-.5h-1.3l1.2,1.2c.3,0,.7,.1,1,.2c.3,.1,.6,.3,.8,.5c.3,.2,.5,.4,.6,.7c.2,.3,.2,.7,.2,1v8.9l1.2,1.2V135.2h2.2Zm12.6,0L278,134H264.7l1.3,1.2h9.8v3.3c-.5,-1.3,-1.2,-2,-2.2,-2c-.4,0,-.7,.2,-1,.5c-.4,.3,-.5,.6,-.5,1c-.8,-1,-1.8,-1.6,-2.8,-1.6c-.8,0,-1.4,.4,-1.9,1.2c-.5,.7,-.7,1.4,-.7,2.3c0,.5,.1,1,.2,1.4c.2,.4,.4,.8,.7,1.1c.4,.3,.7,.5,1.1,.7c.5,.1,.9,.2,1.5,.2c.6,-.1,1.1,-.2,1.4,-.5c.3,-.3,.5,-.7,.5,-1.2c0,-1.1,-.5,-1.7,-1.6,-1.7c-.4,0,-.7,.1,-1,.3c-.3,.3,-.4,.6,-.4,1c0,.2,.1,.6,.4,1c-1.2,-.2,-1.7,-.8,-1.7,-1.7c0,-.3,0,-.6,.1,-.9c.2,-.3,.3,-.5,.5,-.7c.2,-.2,.5,-.4,.8,-.5c.2,-.1,.5,-.2,.8,-.2c.7,0,1.3,.2,1.8,.6c.5,.4,.9,1,1,1.6l.5,-.2c-.1,-.3,-.2,-.5,-.2,-.7c0,-.9,.4,-1.3,1.1,-1.3c.4,0,.8,.2,1.1,.5c.3,.3,.4,.7,.4,1.1v6.9l1.3,1.1V135.2h2.2Zm20.4,0L298.3,134H285.1l1.2,1.2h9.8v3.3c-.4,-1.3,-1.2,-2,-2.2,-2c-.3,0,-.6,.2,-1,.5c-.3,.3,-.5,.6,-.5,1c-.8,-1,-1.7,-1.6,-2.7,-1.6c-.8,0,-1.5,.4,-2,1.2c-.4,.7,-.7,1.4,-.7,2.3c0,.5,.1,1,.3,1.4c.2,.4,.4,.8,.7,1.1c.3,.3,.7,.5,1.1,.7c.4,.1,.9,.2,1.4,.2c.6,-.1,1.1,-.2,1.5,-.5c.3,-.3,.5,-.7,.5,-1.2c0,-1.1,-.6,-1.7,-1.7,-1.7c-.3,0,-.6,.1,-.9,.3c-.3,.3,-.4,.6,-.4,1c0,.2,.1,.6,.4,1c-1.2,-.2,-1.8,-.8,-1.8,-1.7c0,-.3,.1,-.6,.2,-.9c.1,-.3,.3,-.5,.5,-.7c.2,-.2,.4,-.4,.7,-.5c.3,-.1,.6,-.2,.9,-.2c.7,0,1.3,.2,1.8,.6c.5,.4,.8,1,.9,1.6l.5,-.2c-.1,-.3,-.1,-.5,-.1,-.7c0,-.9,.4,-1.3,1,-1.3c.5,0,.8,.2,1.1,.5c.4,.3,.5,.7,.5,1.1v6.9l1.2,1.1V135.2h2.3Zm4.4,0L302.8,134h-1.1c-.3,-.4,-.6,-1,-.7,-1.9l-.4,-.3c0,.2,0,.5,0,.9c0,.3,0,.7,.1,1.2c0,.5,0,.9,0,1.3c.1,.3,.1,.6,.1,.9c-.3,-.8,-.6,-1.3,-1,-1.6c-.4,-.3,-1,-.5,-1.7,-.5h-1.4l1.2,1.2c.4,0,.7,.1,1,.2c.4,.1,.6,.3,.9,.5c.2,.2,.4,.4,.6,.7c.1,.3,.2,.7,.2,1v8.9l1.1,1.2V135.2H304ZM314.6,134c-.1,0,-.3,0,-.3,0c-.8,0,-1.1,-.4,-1.1,-1.3c0,-.1,0,-.2,0,-.3l-.7,-.7c0,.5,.1,1,.1,1.5c0,.6,0,1.2,.1,1.9l.1,3.5c-.5,-1.6,-1,-2.6,-1.5,-3.2c-.7,-.8,-1.7,-1.3,-3,-1.3c-.5,0,-1,.1,-1.5,.2c-.4,.2,-.9,.4,-1.3,.7c-.9,.6,-1.3,1.4,-1.3,2.4c0,.4,.1,.8,.4,1.1c.3,.4,.6,.6,.9,.6c.1,0,.3,0,.5,-.1c.2,-.1,.5,-.2,.8,-.4c.6,-.3,1,-.5,1.1,-.5c.5,0,.7,.2,.7,.6c0,.1,-.1,.3,-.3,.6c-.1,.2,-.4,.5,-.8,.9c-.2,.3,-.5,.6,-.8,.9c-.2,.2,-.4,.4,-.6,.6l1.4,1.5c.7,-.8,1.3,-1.6,1.8,-2.3c.4,-.7,.6,-1.2,.6,-1.7c0,-.3,0,-.6,-.2,-.9c-.1,-.3,-.3,-.5,-.5,-.7c-.2,-.1,-.5,-.3,-.8,-.4c-.3,-.1,-.6,-.1,-.9,-.1c-.5,0,-1,.1,-1.6,.4c.5,-1.3,1.5,-1.9,2.9,-1.9c.9,0,1.7,.5,2.5,1.5c.3,.5,.6,.9,.8,1.4c.2,.5,.3,1,.3,1.5c0,.4,0,.9,-.1,1.6c0,1,0,2.6,0,4.8l1.3,1.6V135.2h2.2L314.6,134Zm7.2,0h-8l1.2,1.2h4c-1.7,2,-2.5,4,-2.5,6.1c0,1.5,.3,2.8,.9,3.9c.7,1.4,1.8,2.1,3.2,2.1c.3,0,.6,0,.8,-.1c.3,-.1,.5,-.2,.7,-.4c.2,-.2,.4,-.4,.5,-.7c.1,-.2,.2,-.5,.2,-.8c0,-.4,-.2,-.9,-.5,-1.2c-.2,-.3,-.6,-.5,-1,-.5c-.4,0,-.7,.2,-1,.4c-.3,.3,-.5,.6,-.5,1c0,.2,.1,.4,.2,.7c.1,.2,.3,.4,.6,.6c-.7,.2,-1.5,-.2,-2.2,-1.3c-.5,-.7,-.7,-1.5,-.7,-2.3c0,-1,.1,-1.9,.3,-2.7c.2,-.7,.5,-1.4,.9,-2.1c.5,-.7,1.1,-1.3,1.7,-1.7c.7,-.5,1.4,-.8,2.3,-1L321.8,134Zm12.4,14.7c-.5,-.5,-.9,-1,-1.3,-1.4c-.4,-.4,-.8,-.8,-1.1,-1c-.3,-.2,-.7,-.5,-1.2,-.8c-.5,-.3,-1.1,-.6,-1.8,-1c.6,-.3,1.1,-.6,1.5,-.8c.4,-.3,.8,-.5,1,-.8c.9,-.7,1.3,-1.5,1.3,-2.5c0,-.9,-.2,-1.7,-.7,-2.4c-.6,-.7,-1.4,-1.1,-2.5,-1.1c-.2,0,-.5,0,-.8,.1c-.2,0,-.5,.1,-.8,.1c-1.3,0,-2.3,-.7,-2.8,-1.9h8.7L332.5,134H321.1l1.1,1.2h1.6v5.2c0,.2,.1,.5,.2,.6c.1,.2,.3,.4,.4,.5c.2,.2,.4,.3,.6,.4c.2,.1,.5,.1,.7,.1c.3,0,.7,-.1,1.1,-.3c.5,-.2,.9,-.4,1.3,-.7c1,-.8,1.5,-1.7,1.3,-2.6c1.3,-.2,2,.2,2,1.2c0,1.2,-.6,2.2,-2,2.9c-.5,.2,-1.1,.4,-1.7,.6c-.6,.1,-1.2,.2,-1.9,.2c-.3,0,-.5,-.1,-.8,-.1c-.3,-.1,-.6,-.1,-.9,-.2l1.1,2.2c1.8,.2,3.5,.6,5,1.3c1.5,.8,2.9,1.8,4.2,3.1l-.2,-.9Zm-6.6,-9.5c-.1,.3,-.3,.6,-.6,.8c-.2,.3,-.5,.5,-.8,.7c-.2,.1,-.5,.2,-.8,.2c-.2,0,-.4,-.2,-.4,-.7v-3.6c.7,.9,1.6,1.5,2.8,1.8c0,.3,0,.5,-.2,.8ZM347.3,134c-.5,0,-1,.2,-1.5,.4c-.5,.3,-.9,.5,-1.3,.8c-.8,.8,-1.4,1.8,-1.8,2.8c-.4,1,-.7,2.1,-.7,3.3c0,1.5,.3,2.8,.9,3.9c.8,1.4,1.8,2.1,3.2,2.1c.3,0,.6,0,.9,-.1c.2,-.1,.4,-.2,.6,-.4c.2,-.2,.4,-.4,.5,-.7c.1,-.2,.2,-.5,.2,-.8c0,-.4,-.2,-.9,-.4,-1.2c-.3,-.3,-.7,-.5,-1.1,-.5c-.1,0,-.3,.1,-.5,.1c-.2,.1,-.3,.2,-.5,.3c-.1,.2,-.2,.3,-.3,.4c-.1,.2,-.1,.4,-.1,.6c0,.2,0,.4,.1,.7c.2,.2,.4,.4,.6,.6c0,0,-.1,.1,-.2,.1h-.1c-.8,0,-1.4,-.5,-1.9,-1.4c-.5,-.7,-.7,-1.5,-.7,-2.3c0,-1,.1,-1.9,.3,-2.7c.2,-.7,.5,-1.4,1,-2.1c.4,-.7,1,-1.3,1.6,-1.7c.7,-.5,1.5,-.8,2.4,-1L347.3,134Zm11.8,1.2L357.9,134H346.8c.4,.4,.8,.7,1.1,.9c.3,.3,.5,.5,.7,.7c.3,.2,.7,.4,1,.5c.4,.2,.8,.4,1.2,.5c.8,.4,1.4,.7,1.8,1c-.7,.4,-1.3,.9,-1.9,1.4c-.7,.5,-1.3,1.1,-1.8,1.6l1.7,2c1.6,.1,2.9,.5,3.8,1.2c.5,.4,.9,.9,1.3,1.5c.3,.6,.5,1.1,.7,1.6l.8,.9V135.2h1.9Zm-3.1,9.4c-1.1,-1.7,-2.6,-2.9,-4.6,-3.6c.6,-.5,1.1,-1.1,1.6,-1.6c.5,-.5,1,-.9,1.4,-1.3c-1.3,-1.5,-2.3,-2.5,-3.2,-2.9H356v9.4ZM380.3,134H365.1l1.2,1.2h11.8v8.2L376.5,142c.2,-.6,.3,-1.3,.3,-1.9c0,-.8,-.2,-1.6,-.6,-2.2c-.3,-.5,-.6,-.9,-1,-1.2c-.5,-.3,-.9,-.6,-1.4,-.7c-.3,-.1,-.6,-.2,-.9,-.2c-.7,0,-1.3,.2,-2,.7c-.3,.2,-.5,.5,-.7,.8c-.1,.3,-.2,.6,-.2,.9c0,.4,.1,.7,.2,.9c.3,.5,.7,.7,1.2,.8c.6,.1,1.1,0,1.5,-.3c.2,-.2,.4,-.4,.6,-.6c.1,-.3,.2,-.5,.2,-.8c0,-.3,-.1,-.6,-.4,-1c.3,-.1,.5,-.1,.7,0c.2,0,.5,.1,.8,.3c.1,.2,.3,.4,.5,.7c.2,.3,.3,.6,.4,.9c.1,.3,.1,.5,.1,.7c0,.6,-.2,1.1,-.5,1.7c-.4,.8,-1.4,1.3,-2.8,1.3c-.5,0,-1.1,-.2,-1.6,-.5c-.6,-.3,-1.1,-.8,-1.5,-1.4c-.5,-.5,-.9,-1.2,-1.2,-2c-.4,-.8,-.7,-1.7,-.9,-2.7l-.7,-.3c.1,1,.3,2,.6,2.9c.2,.9,.5,1.7,.9,2.3c.3,.5,.7,1,1,1.5c.4,.4,.8,.8,1.2,1.1c.4,.3,.8,.6,1.2,.7c.5,.2,.9,.3,1.3,.3c.7,0,1.3,-.2,1.9,-.4c.5,-.3,1,-.7,1.3,-1.2c1.4,.9,2.4,2.4,2.9,4.5v-.1l.4,.3V135.2h2.2L380.3,134Zm5.5,1.2L384.7,134h-1.1c-.4,-.4,-.6,-1,-.7,-1.9l-.5,-.3c0,.2,0,.5,0,.9c.1,.3,.1,.7,.1,1.2c.1,.5,.1,.9,.1,1.3c0,.3,0,.6,0,.9c-.2,-.8,-.5,-1.3,-.9,-1.6c-.4,-.3,-1,-.5,-1.7,-.5h-1.4l1.2,1.2c.3,0,.7,.1,1,.2c.3,.1,.6,.3,.8,.5c.3,.2,.5,.4,.6,.7c.2,.3,.2,.7,.2,1v8.9l1.2,1.2V135.2h2.2Zm13.2,0L397.8,134c-.1,0,-.2,0,-.4,0c-.4,0,-.7,-.2,-.9,-.6c0,-.2,-.1,-.6,-.2,-1.2l-.5,-.5c0,1.1,.1,2.2,.1,3.2c.1,1.1,.1,2.1,.2,3.2H396c-1.5,-2.6,-3.1,-3.9,-4.8,-3.9c-.5,0,-1,.1,-1.5,.3c-.5,.1,-1,.4,-1.5,.7c-.6,.4,-1,.8,-1.3,1.2c-.3,.4,-.5,.9,-.5,1.3c0,.2,.1,.5,.3,.7c.2,.2,.4,.3,.6,.3c.3,0,.5,-.1,.9,-.3c.2,-.1,.4,-.1,.5,-.2c.1,0,.2,0,.4,0c.4,0,.7,.4,.7,1.2c0,.5,-.4,1.1,-1.3,1.9l1.8,.6l4.2,-4.2c.1,.1,.3,.2,.4,.4c.2,.2,.3,.4,.5,.6c.1,.3,.3,.5,.4,.7c0,.3,.1,.5,.1,.6l-.2,6.4l1.3,1.3V135.2h2Zm-8.5,4.2c.1,-.7,-.1,-1.2,-.3,-1.6c-.3,-.5,-.8,-.7,-1.4,-.7c.5,-1.1,1.4,-1.6,2.8,-1.6c.7,0,1.3,.3,1.8,.9l-2.9,3Zm19.8,-4.2L409.1,134H397.4l1.2,1.2H407v6.6c-1.3,-2.6,-2.8,-4,-4.5,-4c-.8,0,-1.5,.3,-2.1,.9c-.6,.5,-.8,1.2,-.8,2c0,1.5,.7,2.2,2.3,2.2c.5,0,.9,-.2,1.2,-.5c.3,-.4,.4,-.8,.4,-1.3c0,-.3,-.2,-.8,-.8,-1.5c.1,-.1,.2,-.1,.4,-.1c1.2,0,2.3,.8,3.3,2.5c.6,1.4,1,2.9,.9,4.2v1.3l.9,.6V135.2h2.1Zm4.6,0L413.7,134h-1.1c-.3,-.4,-.6,-1,-.7,-1.9l-.4,-.3c0,.2,0,.5,0,.9c0,.3,0,.7,.1,1.2c0,.5,0,.9,0,1.3c.1,.3,.1,.6,.1,.9c-.3,-.8,-.6,-1.3,-1,-1.6c-.4,-.3,-1,-.5,-1.7,-.5h-1.4l1.2,1.2c.4,0,.7,.1,1,.2c.4,.1,.6,.3,.9,.5c.2,.2,.4,.4,.6,.7c.1,.3,.2,.7,.2,1v8.9l1.1,1.2V135.2h2.3Zm5.9,-1.2h-7.9l1.2,1.2h4c-1.7,2,-2.6,4,-2.6,6.1c0,1.5,.3,2.8,1,3.9c.7,1.4,1.8,2.1,3.2,2.1c.3,0,.5,0,.8,-.1c.3,-.1,.5,-.2,.7,-.4c.2,-.2,.4,-.4,.5,-.7c.1,-.2,.1,-.5,.1,-.8c0,-.4,-.1,-.9,-.4,-1.2c-.3,-.3,-.6,-.5,-1,-.5c-.4,0,-.7,.2,-1,.4c-.3,.3,-.5,.6,-.5,1c0,.2,.1,.4,.2,.7c.1,.2,.3,.4,.6,.6c-.7,.2,-1.5,-.2,-2.3,-1.3c-.4,-.7,-.6,-1.5,-.6,-2.3c0,-1,.1,-1.9,.3,-2.7c.2,-.7,.5,-1.4,.9,-2.1c.5,-.7,1,-1.3,1.7,-1.7c.6,-.5,1.4,-.8,2.3,-1L420.8,134Zm15.5,1.2L435,134H419.9l1.2,1.2h7.8v1c-2.6,.8,-4.9,2.1,-7,3.7l1.7,2.1c1.4,.1,2.6,.7,3.7,1.8c.4,.5,.9,1,1.3,1.6c.3,.7,.7,1.3,1,2c0,.1,.1,.1,.1,.2c.1,0,.2,.1,.3,.1v-10c1.2,0,2.1,.3,2.8,1c.6,.7,1,1.4,1,2.2l-.1,.3c-.2,-.2,-.4,-.3,-.6,-.4c-.2,-.2,-.4,-.2,-.6,-.2c-.4,0,-.8,.1,-1,.4c-.3,.2,-.4,.5,-.4,.9c0,.2,0,.4,.1,.6c.1,.2,.2,.3,.4,.5c.1,.1,.3,.2,.5,.3c.2,.1,.3,.1,.5,.1c.3,0,.6,-.1,.8,-.2c.3,-.1,.5,-.3,.7,-.5c.1,-.2,.3,-.4,.4,-.7c.1,-.3,.1,-.5,.1,-.8c0,-1.3,-.4,-2.4,-1.2,-3.4c-.9,-1.2,-2,-1.7,-3.4,-1.7v-.9h6.3Zm-7.5,9.1c-1,-1.8,-2.5,-3.1,-4.5,-4c.8,-.5,1.6,-1,2.3,-1.4c.8,-.4,1.5,-.8,2.2,-1.1v6.5Zm27.3,-12.4c-2.3,-2.4,-4.7,-3.6,-7.3,-3.6c-.9,0,-2,.4,-3,1.2c-1.1,.9,-1.6,1.8,-1.6,2.7c0,.4,.1,.7,.4,1l.9,.8h-3.2l1.1,1.2h1.9v11.3l1.2,1.2V135.2h2.1L447.4,134h-1.3l-.5,-1.1c0,-.9,.6,-1.6,1.6,-2.3c1,-.7,1.9,-1,2.8,-1c.6,0,1.2,.1,1.8,.2c.6,.2,1.1,.4,1.7,.7c.6,.4,1.1,.7,1.6,1c.4,.4,.9,.7,1.2,1l-.2,-.6Zm6.7,3.3L461.6,134H446.9c.8,.9,1.5,1.5,2.2,1.8c.1,.1,.3,.2,.7,.3c.3,.1,.7,.2,1.2,.4c.4,.1,.7,.2,1,.4c.3,.2,.6,.4,.9,.6c-.7,.6,-1.4,1.2,-2,1.7c-.6,.5,-1.1,1,-1.5,1.4l1.4,2.1c.8,0,1.5,.1,2.2,.3c.6,.2,1.2,.5,1.7,.9c1.2,1.3,1.9,2.3,2,3l.7,.8v-9.8h.5c2,0,3,.7,3,2l-.1,.3c-.3,-.3,-.7,-.5,-1.2,-.5c-.4,0,-.7,.1,-.9,.3c-.3,.3,-.4,.6,-.4,.9c0,.4,.1,.7,.4,1c.3,.3,.6,.4,1,.4c1.4,0,2.1,-.7,2.1,-2.1c0,-1.3,-.5,-2.4,-1.4,-3.1c-.9,-.7,-1.8,-1,-2.9,-1q-.1,0,-.2,0c-.2,0,-.3,0,-.4,0c-.1,0,-.3,.1,-.4,.1c-.1,0,-.2,0,-.2,0v8.4c-1.1,-1.7,-2.5,-2.9,-4.4,-3.5l3,-2.5c-.4,-.6,-.9,-1.2,-1.5,-1.8c-.5,-.6,-1.1,-1.1,-1.8,-1.6h11.2Zm10.5,0L472.1,134h-.7c0,-1.1,-.2,-2,-.6,-2.6c-.5,-.6,-1.3,-.9,-2.4,-.9c-.4,0,-.8,.1,-1.5,.1c-.3,.1,-.6,.1,-.9,.1c-.2,0,-.4,0,-.6,0c-.5,0,-.9,-.1,-1.3,-.3c-.4,-.2,-.6,-.6,-.6,-1.1c0,-.2,.1,-.4,.3,-.6c0,-.1,0,-.2,-.1,-.2c0,-.1,0,-.2,0,-.2c-.6,0,-.9,.5,-.9,1.4c0,.9,.5,1.6,1.3,2c.8,.5,1.6,.7,2.5,.7c.2,0,.3,0,.5,0c.2,-.1,.4,-.1,.6,-.1c.5,-.1,.9,-.1,1.1,-.1c1,0,1.5,.3,1.5,1c0,.2,0,.3,0,.4c0,.2,0,.3,0,.4h-9.1l1.1,1.2h1.9v8c.2,.9,.5,1.6,.9,2c.5,.5,1.1,.7,1.8,.7c1.2,0,2.3,-.6,3.3,-1.8c1,-1.2,1.5,-2.3,1.5,-3.5c0,-.4,-.1,-.7,-.2,-1.1c-.1,-.3,-.2,-.6,-.4,-.9c-.4,-.7,-1,-1,-1.6,-1c-.5,0,-.9,.2,-1.1,.5c-.3,.3,-.5,.7,-.5,1.1c0,.4,.2,.8,.5,1c.3,.3,.7,.4,1.1,.4h.4c-.1,.8,-.5,1.6,-1.2,2.5c-.7,.8,-1.5,1.3,-2.2,1.3c-.5,0,-.9,-.3,-1.1,-.8v-8.4h7.9Zm14.3,0L486.4,134H471.7c.8,.9,1.6,1.5,2.2,1.8c.2,.1,.4,.2,.7,.3c.4,.1,.8,.2,1.3,.4c.3,.1,.7,.2,1,.4c.3,.2,.6,.4,.9,.6c-.8,.6,-1.4,1.2,-2,1.7c-.6,.5,-1.1,1,-1.5,1.4l1.4,2.1c.7,0,1.5,.1,2.1,.3c.7,.2,1.2,.5,1.7,.9c1.3,1.3,1.9,2.3,2.1,3l.7,.8v-9.8h.5c2,0,3,.7,3,2l-.2,.3c-.3,-.3,-.7,-.5,-1.2,-.5c-.3,0,-.6,.1,-.9,.3c-.2,.3,-.4,.6,-.4,.9c0,.4,.2,.7,.5,1c.2,.3,.6,.4,.9,.4c1.4,0,2.1,-.7,2.1,-2.1c0,-1.3,-.4,-2.4,-1.4,-3.1c-.8,-.7,-1.8,-1,-2.9,-1c0,0,-.1,0,-.2,0c-.1,0,-.2,0,-.3,0c-.2,0,-.3,.1,-.4,.1c-.1,0,-.2,0,-.3,0v8.4c-1,-1.7,-2.5,-2.9,-4.4,-3.5l3.1,-2.5c-.4,-.6,-.9,-1.2,-1.5,-1.8c-.6,-.6,-1.2,-1.1,-1.9,-1.6h11.2Zm4.7,0L491.1,134H490c-.3,-.4,-.6,-1,-.7,-1.9l-.5,-.3c0,.2,0,.5,.1,.9c0,.3,0,.7,0,1.2c.1,.5,.1,.9,.1,1.3c0,.3,0,.6,0,.9c-.2,-.8,-.5,-1.3,-.9,-1.6c-.4,-.3,-1,-.5,-1.7,-.5H485l1.2,1.2c.3,0,.7,.1,1,.2c.3,.1,.6,.3,.9,.5c.2,.2,.4,.4,.5,.7c.2,.3,.3,.7,.3,1v8.9l1.1,1.2V135.2h2.3Zm10.3,0L501.4,134h-.7c0,-1.1,-.2,-2,-.6,-2.6c-.6,-.6,-1.4,-.9,-2.4,-.9c-.4,0,-.9,.1,-1.5,.1c-.3,.1,-.6,.1,-.9,.1c-.2,0,-.4,0,-.6,0c-.5,0,-.9,-.1,-1.3,-.3c-.4,-.2,-.7,-.6,-.7,-1.1c0,-.2,.1,-.4,.3,-.6c0,-.1,0,-.2,0,-.2c0,-.1,0,-.2,0,-.2c-.6,0,-.9,.5,-.9,1.4c0,.9,.4,1.6,1.3,2c.8,.5,1.6,.7,2.5,.7c.1,0,.3,0,.5,0c.1,-.1,.3,-.1,.6,-.1c.5,-.1,.9,-.1,1.1,-.1c1,0,1.5,.3,1.5,1c0,.2,0,.3,0,.4c0,.2,0,.3,0,.4h-9.1l1.1,1.2h1.9v8c.1,.9,.4,1.6,.9,2c.5,.5,1.1,.7,1.8,.7c1.2,0,2.3,-.6,3.3,-1.8c.9,-1.2,1.4,-2.3,1.4,-3.5c0,-.4,0,-.7,-.1,-1.1c-.1,-.3,-.2,-.6,-.4,-.9c-.4,-.7,-1,-1,-1.7,-1c-.4,0,-.8,.2,-1.1,.5c-.2,.3,-.4,.7,-.4,1.1c0,.4,.2,.8,.5,1c.3,.3,.7,.4,1.1,.4h.4c-.1,.8,-.5,1.6,-1.2,2.5c-.7,.8,-1.5,1.3,-2.2,1.3c-.5,0,-.9,-.3,-1.1,-.8v-8.4h7.9ZM516,134c-.5,0,-1,.2,-1.5,.4c-.4,.3,-.9,.5,-1.3,.8c-.7,.8,-1.3,1.8,-1.8,2.8c-.4,1,-.6,2.1,-.7,3.3c0,1.5,.3,2.8,1,3.9c.7,1.4,1.8,2.1,3.2,2.1c.3,0,.5,0,.8,-.1c.3,-.1,.5,-.2,.7,-.4c.2,-.2,.4,-.4,.5,-.7c.1,-.2,.1,-.5,.1,-.8c0,-.4,-.1,-.9,-.4,-1.2c-.3,-.3,-.6,-.5,-1,-.5c-.2,0,-.4,.1,-.6,.1c-.1,.1,-.3,.2,-.4,.3c-.2,.2,-.3,.3,-.4,.4c0,.2,-.1,.4,-.1,.6c0,.2,.1,.4,.2,.7c.1,.2,.3,.4,.6,.6c-.1,0,-.2,.1,-.3,.1h-.1c-.7,0,-1.4,-.5,-1.9,-1.4c-.4,-.7,-.6,-1.5,-.6,-2.3c0,-1,.1,-1.9,.3,-2.7c.2,-.7,.5,-1.4,.9,-2.1c.5,-.7,1,-1.3,1.7,-1.7c.6,-.5,1.4,-.8,2.3,-1L516,134Zm12.6,1.2L527.4,134H515.6l1.2,1.2h1.3v7.1l1.6,1.7c.5,-1.1,1.2,-2.1,2.1,-2.9c.9,-.9,1.8,-1.5,2.9,-1.9c-.3,1,-.4,2.1,-.4,3.1c0,.6,.1,1.3,.2,2.2c.1,.8,.3,1.8,.5,3l.9,.4c-.4,-1.6,-.5,-2.8,-.5,-3.7c0,-.9,.1,-1.8,.4,-2.8c.3,-1,.7,-2,1.3,-3l-2,-1.5c-.4,.1,-.9,.3,-1.3,.6c-.5,.2,-1,.5,-1.5,.8c-.5,.4,-1.1,.7,-1.5,1.2c-.5,.4,-1,.8,-1.4,1.3v-5.6h9.2ZM539,134c-.5,-.1,-.8,-.2,-1,-.6c0,-.1,0,-.2,-.1,-.5c0,-.2,0,-.5,0,-.7l-.7,-.4v12.3c-.8,-1.4,-2.1,-2.5,-3.8,-3.4c.7,-.2,1.4,-.6,1.9,-1.2c.6,-.6,.8,-1.3,.8,-2c0,-.7,-.2,-1.3,-.8,-1.9c-.1,-.1,-.3,-.2,-.5,-.5c-.3,-.3,-.7,-.6,-1.2,-1c-.2,.3,-.5,.5,-.7,.8c-.3,.2,-.4,.3,-.4,.4c-.3,.2,-.5,.3,-.8,.5c-.2,.1,-.5,.2,-.7,.2c-.1,-.7,-.4,-1.1,-1.2,-1.1c-.3,0,-.6,.2,-.9,.4c-.2,.3,-.3,.6,-.3,.9c0,.5,.1,.9,.5,1.2c.3,.3,.8,.5,1.2,.5c1.4,0,2.7,-.7,4,-2c.4,.4,.6,.8,.6,1.3c0,.4,-.1,.7,-.5,1c-.3,.2,-.7,.5,-1.3,.8c-.4,.2,-.9,.3,-1.3,.4c-.5,.1,-.9,.2,-1.3,.2c-.2,0,-.3,0,-.5,-.1c-.1,0,-.3,0,-.5,0l2.1,2.5c1.1,.1,2.2,.4,3.1,1c.5,.3,1,.6,1.4,1c.4,.4,.7,.9,1,1.3c.1,.1,.1,.3,.2,.5c.1,.2,.2,.5,.3,.8c.1,.2,.2,.3,.3,.5c.2,.2,.3,.4,.5,.5V135.2h1.8L539,134Zm5.8,1.2L543.6,134h-1c-.4,-.4,-.6,-1,-.8,-1.9l-.4,-.3c0,.2,0,.5,0,.9c0,.3,0,.7,.1,1.2c0,.5,0,.9,.1,1.3c0,.3,0,.6,0,.9c-.3,-.8,-.6,-1.3,-1,-1.6c-.4,-.3,-.9,-.5,-1.7,-.5h-1.3l1.2,1.2c.3,0,.6,.1,1,.2c.3,.1,.6,.3,.8,.5c.3,.2,.5,.4,.6,.7c.1,.3,.2,.7,.2,1v8.9l1.2,1.2V135.2h2.2Zm6,-1.2h-8l1.2,1.2h4c-1.7,2,-2.6,4,-2.6,6.1c0,1.5,.4,2.8,1,3.9c.7,1.4,1.8,2.1,3.2,2.1c.3,0,.6,0,.8,-.1c.3,-.1,.5,-.2,.7,-.4c.2,-.2,.4,-.4,.5,-.7c.1,-.2,.2,-.5,.2,-.8c0,-.4,-.2,-.9,-.5,-1.2c-.3,-.3,-.6,-.5,-1,-.5c-.4,0,-.7,.2,-1,.4c-.3,.3,-.5,.6,-.5,1c0,.2,.1,.4,.2,.7c.1,.2,.3,.4,.6,.6c-.7,.2,-1.5,-.2,-2.2,-1.3c-.5,-.7,-.7,-1.5,-.7,-2.3c0,-1,.1,-1.9,.3,-2.7c.2,-.7,.5,-1.4,.9,-2.1c.5,-.7,1,-1.3,1.7,-1.7c.7,-.5,1.4,-.8,2.3,-1L550.8,134Zm18.6,14.7c-.5,-.5,-.9,-1,-1.4,-1.4c-.4,-.4,-.7,-.8,-1.1,-1c-.5,-.5,-1.5,-1,-2.9,-1.8c1.1,-.6,2,-1.1,2.5,-1.6c.9,-.7,1.3,-1.5,1.3,-2.5c.1,-.9,-.2,-1.7,-.7,-2.4c-.6,-.7,-1.4,-1.1,-2.5,-1.1c-.1,0,-.2,0,-.4,0c-.1,0,-.3,.1,-.4,.1c-.1,0,-.3,0,-.4,.1c-.2,0,-.3,0,-.4,0c-1.3,0,-2.3,-.7,-2.9,-1.9h8.7L567.7,134H550.2l1.2,1.2h1.7v8.2c0,.4,.2,.8,.6,1.4c.5,.6,.9,.9,1.4,.9c.7,0,1.5,-.3,2.3,-1c.9,-.7,1.6,-1.7,2.4,-3c.2,.1,.3,.2,.5,.2c.2,.1,.4,.1,.6,.1c.3,0,.7,-.1,1.1,-.3c.4,-.2,.8,-.4,1.2,-.7c.9,-.8,1.4,-1.5,1.5,-2.2l-.1,-.4l.3,-.1c1.1,0,1.7,.4,1.7,1.3c0,.6,-.2,1.2,-.5,1.6c-.4,.5,-.9,.9,-1.6,1.3c-.5,.2,-1,.4,-1.6,.6c-.6,.1,-1.3,.2,-1.9,.2c-.3,0,-.6,-.1,-.9,-.1c-.2,-.1,-.6,-.1,-.9,-.2l1.2,2.2c1.8,.2,3.4,.6,5,1.3c1.5,.8,2.9,1.8,4.1,3.1l-.1,-.9Zm-11.3,-8.2c0,.1,0,.2,0,.3c0,.2,0,.4,-.1,.6c-.1,.2,-.2,.4,-.4,.6c-.6,.6,-1.1,1.2,-1.6,1.5c-.4,.4,-.8,.6,-1.2,.6c-.3,0,-.5,-.3,-.5,-.7v-6.2h.1c.2,.5,.5,.8,.8,1.2c.3,.3,.8,.7,1.4,1c.1,.1,.2,.2,.3,.3c.1,0,.2,0,.2,.1c.4,.2,.7,.4,.9,.5c0,.1,.1,.1,.1,.2Zm.9,-1.7c0,0,-.1,0,-.1,0q-.1,-.1,-.1,-.1l-.8,-.3c-.4,-.2,-.9,-.4,-1.3,-.6c-.4,-.2,-.7,-.3,-.9,-.4c-.2,-.2,-.5,-.4,-.7,-.6c-.2,-.2,-.3,-.3,-.5,-.5c0,-.1,-.1,-.2,-.2,-.4c0,-.3,-.1,-.5,-.1,-.7H559v3.6Zm4,-.4c0,.3,-.1,.5,-.2,.8c-.2,.3,-.4,.6,-.6,.8c-.2,.3,-.5,.5,-.8,.7c-.2,.1,-.5,.2,-.8,.2c-.3,0,-.4,-.2,-.4,-.7v-3.6c.7,.9,1.6,1.5,2.8,1.8Z" class="gp_82"/>
<g clip-path="url(#c0_82)">
<path d="M1877,177.2H32.1v-5.4H768.7c43.1,0,53,-37.9,115.3,-37.9h993Z" class="gq_82"/>
<path d="M1877,183.7H32.1v-9.8H768.7c43.1,0,53,-33.6,115.3,-33.6h993Z" class="gr_82"/>
</g>
<image clip-path="url(#ci_82)" preserveAspectRatio="none" x="125" y="206" width="734" height="181" xlink:href="img/9.png"/>
<path d="M144.6,231.3c0,0,-13,0,-13,13v117c0,0,0,13,13,13H833.1c0,0,13,0,13,-13v-130Z" class="gs_82"/>
<path d="M147.7,294.1l54.1,40.8l54.1,-40.8V230h8.7V211.9H155.8c-6.5,.4,-7.7,3.9,-8.2,8.4Z" class="gt_82"/>
<path d="M274,220.3c-.3,-4.7,-4.2,-8.4,-9,-8.4c-4.8,0,-8.7,3.7,-9,8.4h-.1V230h18.2v-9.7Z" class="gk_82"/>
<path d="M255.9,230.6H846.1" class="gu_82"/>
<path d="M32.1,45.1H9.2m958.3,0h22.9M32.1,1331.3H9.2m958.3,0h22.9M45.1,32.1V9.2m0,1335.1v22.9M954.5,32.1V9.2m0,1335.1v22.9" class="gv_82"/>
<path d="M32.1,45.1H9.2m958.3,0h22.9M32.1,1331.3H9.2m958.3,0h22.9M45.1,32.1V9.2m0,1335.1v22.9M954.5,32.1V9.2m0,1335.1v22.9" class="gw_82"/>
<path d="M27.5,32.1H0m972.1,0h27.5M27.5,1344.3H0m972.1,0h27.5M32.1,27.5V0m0,1348.9v27.5M967.5,27.5V0m0,1348.9v27.5" class="gv_82"/>
<path d="M27.5,32.1H0m972.1,0h27.5M27.5,1344.3H0m972.1,0h27.5M32.1,27.5V0m0,1348.9v27.5M967.5,27.5V0m0,1348.9v27.5" class="gw_82"/>
</svg>