<?xml version="1.0" encoding="UTF-8" standalone="no"?>
<!DOCTYPE svg PUBLIC "-//W3C//DTD SVG 1.1//EN"
"http://www.w3.org/Graphics/SVG/1.1/DTD/svg11.dtd">
<svg viewBox="0 0 999 1376" version="1.1" xmlns="http://www.w3.org/2000/svg" xmlns:xlink="http://www.w3.org/1999/xlink">
<defs>
<clipPath id="c0_133"><path d="M118.1,572.7V390.1H335.4V572.7Z"/></clipPath>
<clipPath id="c1_133"><path d="M198.7,254l-6.5,-2.1L175.8,238V180.9h72V254Z"/></clipPath>
<clipPath id="c2_133"><path d="M199.2,1048.4l-6.5,-2.1l-16.4,-13.9V975.3h72v73.1Z"/></clipPath>
<clipPath id="c3_133"><path d="M786.5,132.5V120.1H801v12.4Z"/></clipPath>
<clipPath id="c4_133"><path d="M734.3,673.5V501.9H933.4V673.5Z"/></clipPath>
<clipPath id="c5_133"><path d="M733.3,685V500.2H939.5V685Z"/></clipPath>
<clipPath id="c6_133"><path d="M733,684.7V499.9H939.2V684.7Z"/></clipPath>
<clipPath id="c7_133"><path d="M116.5,571.9V388.7H334.3V571.9Z"/></clipPath>
<clipPath id="c8_133"><path d="M116.2,571.6V388.4H334V571.6Z"/></clipPath>
<clipPath id="c9_133"><path d="M213,405.2c-.2,-.1,3.6,-8.2,3.6,-8.2l.8,.5c0,0,-4.1,7.7,-4.4,7.7Z"/></clipPath>
<clipPath id="ca_133"><path d="M220.5,397.5c0,0,-6.8,-1.1,-7.5,-5.2c-.7,-3.6,1.5,-3.9,2,-3.9c.1,0,.2,0,.2,0l8.3,-12.7L222,372.6c0,0,-.6,-1.1,.2,-2c0,-.1,.1,-.1,.3,-.1c2.1,0,12.9,5.5,12.9,5.5l.1,.2c-.4,.5,-.8,1.1,-1.4,1.6c-.7,.5,-5.1,1.2,-5.1,1.2l-8.5,18.5Z"/></clipPath>
<clipPath id="cb_133"><path d="M220.1,397.2c.2,-.5,.2,-1.9,0,-2.3v-1.4c-1.5,-.5,-2.8,-1.2,-3.6,-2.5c-1.1,.6,-2.1,1.2,-3.1,1.9c1.5,2.1,3.8,3.5,6.7,4.3Zm0,-4c2.2,-4.5,4,-9.5,6.2,-14c-.9,-.4,-1.9,-1.3,-2.6,-1.4c-2.3,4.3,-4.6,8.6,-7.1,12.8c.7,1.3,2.1,2,3.5,2.6Zm-7.2,12.1c1,-2.9,2.3,-5.5,3.5,-8.3c-2,-1.5,-4,-3.1,-4.4,-6.1v-1.5c-.1,-2.7,1.9,-3.4,4.5,-3.4c.1,0,.2,0,.2,0c2,-3.4,4.3,-6.4,6.2,-9.7c-.6,-.9,-1.2,-2.4,-.9,-3.7c.5,1.3,1.6,1.9,2.4,2.9c-.1,.6,-.3,1.2,-.4,1.8c.6,.7,1.4,1.2,2.4,1.4c.5,-.4,.5,-1.3,1.2,-1.5c.9,.3,1.8,.7,3.1,.7c.1,.1,.5,.2,.8,.2c.4,0,.7,-.1,.8,-.2c.1,0,.2,.1,.3,.1c.3,0,.5,-.1,.7,-.2c.1,0,.3,-.1,.5,-.1c.1,0,.2,0,.3,.1c-1.3,.6,-2.2,1.8,-4.2,1.8c-.1,0,-.2,0,-.3,0c-.9,3.7,-1.9,7.3,-2.7,11.1c.6,1.1,1.5,1.7,1.3,3.2c-.5,2.7,-3.9,4.4,-7.2,4.4c-1.3,0,-2.5,-.3,-3.6,-.8c-1,2.1,-2.1,4.2,-3.3,6.1c0,-.4,.3,-.4,.3,-.8c.9,-1.8,1.9,-3.6,2.6,-5.6c-1.1,1.7,-1.8,3.6,-2.8,5.5c-.2,.4,-.4,.8,-.6,1.2c-.3,.4,-.3,1.2,-.7,1.4Z"/></clipPath>
<clipPath id="cc_133"><path d="M230.6,377.5c-4.8,0,-13.1,-7.3,-5.6,-8.8h1.3c.2,.1,.4,.1,.7,.1q.1,0,.2,0c.3,0,.6,0,.9,.1c3,.6,8.2,3.8,7.5,7c-.2,1.2,-1.6,1.6,-3.1,1.6h-1.8c0,0,-.1,0,-.1,0Z"/></clipPath>
<style type="text/css"><![CDATA[
.g0_133{
fill: #FEFCF4;
}
.g1_133{
fill: #FFF;
}
.g2_133{
fill: none;
stroke: #6381B7;
stroke-width: 0.763;
}
.g3_133{
fill: #F7C2D9;
}
.g4_133{
fill: #6381B7;
}
.g5_133{
fill: none;
stroke: #6381B7;
stroke-width: 0.381;
stroke-dasharray: 2,1;
}
.g6_133{
fill: none;
stroke: #6381B7;
stroke-width: 0.381;
}
.g7_133{
fill: #FCE8B0;
}
.g8_133{
fill: #25408F;
}
.g9_133{
fill: #A8AAAD;
}
.ga_133{
fill: none;
stroke: #949698;
stroke-width: 0.549;
}
.gb_133{
fill: none;
stroke: #BCBEC0;
stroke-width: 2.566;
}
.gc_133{
fill: #231F20;
}
.gd_133{
fill: #363637;
}
.ge_133{
fill: #5CC4BE;
}
.gf_133{
fill: #F0D73F;
}
.gg_133{
fill: #FDF4F3;
}
.gh_133{
fill: #EC008C;
}
.gi_133{
fill: none;
stroke: #949698;
stroke-width: 0.305;
stroke-dasharray: 3,3;
}
.gj_133{
fill: none;
stroke: #949698;
stroke-width: 0.305;
}
.gk_133{
fill: none;
stroke: #949698;
stroke-width: 0.305;
stroke-dasharray: 4,4;
}
.gl_133{
fill: #6D6F71;
}
.gm_133{
fill: #818385;
}
.gn_133{
fill: none;
stroke: #FFF;
stroke-width: 1.909;
stroke-miterlimit: 10;
}
.go_133{
fill: none;
stroke: #000;
stroke-width: 0.381;
stroke-miterlimit: 10;
}
]]></style>
</defs>
<path d="M45.1,1344.3H967.5V32.1H45.1V1344.3Z" class="g0_133"/>
<path d="M172.1,132.1c0,0,-18.4,0,-18.4,18.3V929.7c0,0,0,18.4,18.4,18.4H849.2c0,0,18.3,0,18.3,-18.4V132.1Z" class="g1_133"/>
<path d="M172.1,132.1c0,0,-18.4,0,-18.4,18.3V929.7c0,0,0,18.4,18.4,18.4H849.2c0,0,18.3,0,18.3,-18.4V132.1H172.1Z" class="g2_133"/>
<image clip-path="url(#c0_133)" preserveAspectRatio="none" x="118" y="390" width="217" height="183" xlink:href="img/1.png"/>
<path d="M125.2,395.3l-2,167.9l204.1,2.9l1.5,-167.4Z" class="g3_133"/>
<path d="M175.4,1183.1c0,0,-4.4,0,-4.4,4.3v10.8c0,0,0,4.3,4.4,4.3h30.3c0,0,4.3,0,4.3,-4.3v-10.8c0,0,0,-4.3,-4.3,-4.3Z" class="g4_133"/>
<path d="M162.2,1174.2v37.6m1.3,.9H867.8m1,-1.3v-37.6m-1.3,-.9H163.1" class="g5_133"/>
<path d="M162.2,1212.2v.5h.6m705.4,0h.6v-.5m0,-38.8v-.5h-.6m-705.4,0h-.6v.5" class="g6_133"/>
<path d="M166.7,963.6c0,0,-13,0,-13,13v175c0,0,0,13,13,13H854.5c0,0,13,0,13,-13v-175c0,0,0,-13,-13,-13Z" class="g1_133"/>
<path d="M166.7,963.6c0,0,-13,0,-13,13v175c0,0,0,13,13,13H854.5c0,0,13,0,13,-13v-175c0,0,0,-13,-13,-13H166.7Z" class="g2_133"/>
<path d="M231.3,183c0,0,-13,0,-13,13v47.7c0,0,0,12.9,13,12.9h602c0,0,13,0,13,-12.9V196c0,0,0,-13,-13,-13Z" class="g7_133"/>
<image clip-path="url(#c1_133)" preserveAspectRatio="none" x="174" y="179" width="75" height="77" xlink:href="img/2.png"/>
<path d="M226.1,249.3c0,0,-26.9,11.3,-51.1,-12.8c0,0,15.2,25.3,49.3,24c0,0,24.7,.3,20.2,-10.1c0,0,1.3,-4.5,-18.4,-1.1Z" class="g7_133"/>
<path d="M231.8,1003.5c0,0,-13,0,-13,12.9v21.7c0,0,0,13,13,13h602c0,0,13,0,13,-13v-21.7c0,0,0,-12.9,-13,-12.9Z" class="g7_133"/>
<image clip-path="url(#c2_133)" preserveAspectRatio="none" x="175" y="974" width="75" height="76" xlink:href="img/3.png"/>
<path d="M226.6,1043.7c0,0,-26.8,11.3,-51.1,-12.7c0,0,15.2,25.3,49.3,23.9c0,0,24.7,.4,20.2,-10.1c0,0,1.3,-4.4,-18.4,-1.1Z" class="g7_133"/>
<path d="M153.3,111.9v39L165,161.2V117Z" class="g8_133"/>
<path d="M153.3,111.9v39H851.1c0,0,16.8,0,16.8,-16.8v-5.3c0,0,0,-16.9,-16.8,-16.9Z" class="g4_133"/>
<path d="M802.6,145.6c8.2,0,14.9,-6.5,14.9,-14.5c0,-8.1,-6.7,-14.5,-14.9,-14.5c-8.2,0,-14.9,6.4,-14.9,14.5c0,8,6.7,14.5,14.9,14.5Z" class="g9_133"/>
<path d="M802.6,145.6c8.2,0,14.9,-6.5,14.9,-14.5c0,-8.1,-6.7,-14.5,-14.9,-14.5c-8.2,0,-14.9,6.4,-14.9,14.5c0,8,6.7,14.5,14.9,14.5Z" class="ga_133"/>
<path d="M802.6,136.4c3,0,5.5,-2.4,5.5,-5.3c0,-3,-2.5,-5.4,-5.5,-5.4c-3,0,-5.5,2.4,-5.5,5.4c0,2.9,2.5,5.3,5.5,5.3Z" class="g1_133"/>
<path d="M802.6,136.4c3,0,5.5,-2.4,5.5,-5.3c0,-3,-2.5,-5.4,-5.5,-5.4c-3,0,-5.5,2.4,-5.5,5.4c0,2.9,2.5,5.3,5.5,5.3Z" class="gb_133"/>
<g clip-path="url(#c3_133)" opacity="0.3">
<path d="M788,130.3c0,0,0,-4.8,3.7,-8.7l7.7,6.8c0,0,-1,.9,-1,2.6Z" class="g1_133"/>
</g>
<path d="M807.2,131c0,0,-3.5,0,-3.5,3.4v8.7c0,0,0,3.5,3.5,3.5h43.5c0,0,3.5,0,3.5,-3.5v-8.7c0,0,0,-3.4,-3.5,-3.4Z" class="gc_133"/>
<path d="M191.2,122c0,-8.3,-6.8,-15,-15.1,-15c-8.3,0,-15,6.7,-15,15c0,8.3,6.7,15.1,15,15.1c.8,0,1.7,-.1,2.4,-.2l4.5,5.2v-6.7c4.9,-2.5,8.2,-7.6,8.2,-13.4Z" class="g1_133"/>
<path d="M183.5,143.3l-5.1,-5.9c-.8,.1,-1.5,.1,-2.3,.1c-8.5,0,-15.5,-6.9,-15.5,-15.5c0,-8.5,7,-15.5,15.5,-15.5c8.6,0,15.5,7,15.5,15.5c0,5.7,-3.1,11,-8.1,13.7Zm-4.8,-6.9l3.9,4.5v-5.8l.2,-.1c4.9,-2.5,7.9,-7.5,7.9,-13c0,-8,-6.5,-14.6,-14.6,-14.6c-8,0,-14.6,6.6,-14.6,14.6c0,8.1,6.6,14.6,14.6,14.6c.8,0,1.6,-.1,2.4,-.2Z" class="gd_133"/>
<path d="M169.1,121.6c.8,0,1.4,.6,1.4,1.4c0,.8,-.6,1.5,-1.4,1.5c-.8,0,-1.4,-.7,-1.4,-1.5c0,-.8,.6,-1.4,1.4,-1.4Z" class="ge_133"/>
<path d="M169.1,124.9c-1,0,-1.9,-.8,-1.9,-1.9c0,-1,.9,-1.9,1.9,-1.9c1,0,1.9,.9,1.9,1.9c0,1.1,-.9,1.9,-1.9,1.9m0,-2.9c-.5,0,-1,.5,-1,1c0,.6,.5,1,1,1c.5,0,1,-.4,1,-1c0,-.5,-.5,-1,-1,-1Z" class="gd_133"/>
<path d="M176.1,121.6c.8,0,1.5,.6,1.5,1.4c0,.8,-.7,1.5,-1.5,1.5c-.8,0,-1.4,-.7,-1.4,-1.5c0,-.8,.6,-1.4,1.4,-1.4Z" class="ge_133"/>
<path d="M176.1,124.9c-1,0,-1.9,-.8,-1.9,-1.9c0,-1,.9,-1.9,1.9,-1.9c1.1,0,1.9,.9,1.9,1.9c0,1.1,-.8,1.9,-1.9,1.9m0,-2.9c-.5,0,-1,.5,-1,1c0,.6,.5,1,1,1c.6,0,1,-.4,1,-1c0,-.5,-.4,-1,-1,-1Z" class="gd_133"/>
<path d="M183.1,121.6c.8,0,1.5,.6,1.5,1.4c0,.8,-.7,1.5,-1.5,1.5c-.8,0,-1.4,-.7,-1.4,-1.5c0,-.8,.6,-1.4,1.4,-1.4Z" class="ge_133"/>
<path d="M183.1,124.9c-1,0,-1.9,-.8,-1.9,-1.9c0,-1,.9,-1.9,1.9,-1.9c1.1,0,1.9,.9,1.9,1.9c0,1.1,-.8,1.9,-1.9,1.9m0,-2.9c-.5,0,-1,.5,-1,1c0,.6,.5,1,1,1c.6,0,1,-.4,1,-1c0,-.5,-.4,-1,-1,-1Z" class="gd_133"/>
<path d="M185.1,136.3c0,-9.8,7.8,-17.7,17.6,-17.7c9.7,0,17.6,7.9,17.6,17.7c0,9.7,-7.9,17.6,-17.6,17.6c-1,0,-1.9,-.1,-2.9,-.3l-5.2,6.1v-7.8c-5.7,-2.9,-9.5,-8.8,-9.5,-15.6Z" class="gf_133"/>
<path d="M194.6,160.2q-.1,0,-.2,0c-.2,-.1,-.3,-.3,-.3,-.5v-7.5c-5.9,-3.2,-9.5,-9.2,-9.5,-15.9c0,-10,8.1,-18.1,18.1,-18.1c9.9,0,18,8.1,18,18.1c0,9.9,-8.1,18,-18,18c-.9,0,-1.8,0,-2.7,-.2l-5.1,5.9c-.1,.1,-.2,.2,-.3,.2m8.1,-41.1c-9.5,0,-17.2,7.7,-17.2,17.2c0,6.4,3.6,12.2,9.3,15.2c.1,.1,.2,.2,.2,.4v6.6l4.5,-5.2c.1,-.1,.3,-.1,.4,-.1c1,.1,1.9,.2,2.8,.2c9.4,0,17.1,-7.7,17.1,-17.1c0,-9.5,-7.7,-17.2,-17.1,-17.2Z" class="gd_133"/>
<path d="M210.9,135.8c.9,0,1.6,.7,1.6,1.6c0,1,-.7,1.7,-1.6,1.7c-1,0,-1.7,-.7,-1.7,-1.7c0,-.9,.7,-1.6,1.7,-1.6Z" class="g1_133"/>
<path d="M210.9,139.6c-1.2,0,-2.2,-1,-2.2,-2.2c0,-1.1,1,-2.1,2.2,-2.1c1.1,0,2.1,1,2.1,2.1c0,1.2,-1,2.2,-2.1,2.2m0,-3.4c-.7,0,-1.3,.6,-1.3,1.2c0,.7,.6,1.3,1.3,1.3c.6,0,1.2,-.6,1.2,-1.3c0,-.6,-.6,-1.2,-1.2,-1.2Z" class="gd_133"/>
<path d="M202.7,135.8c.9,0,1.6,.7,1.6,1.6c0,1,-.7,1.7,-1.6,1.7c-1,0,-1.7,-.7,-1.7,-1.7c0,-.9,.7,-1.6,1.7,-1.6Z" class="g1_133"/>
<path d="M202.7,139.6c-1.2,0,-2.2,-1,-2.2,-2.2c0,-1.1,1,-2.1,2.2,-2.1c1.1,0,2.1,1,2.1,2.1c0,1.2,-1,2.2,-2.1,2.2m0,-3.4c-.7,0,-1.3,.6,-1.3,1.2c0,.7,.6,1.3,1.3,1.3c.6,0,1.2,-.6,1.2,-1.3c0,-.6,-.6,-1.2,-1.2,-1.2Z" class="gd_133"/>
<path d="M194.5,135.8c.9,0,1.6,.7,1.6,1.6c0,1,-.7,1.7,-1.6,1.7c-1,0,-1.7,-.7,-1.7,-1.7c0,-.9,.7,-1.6,1.7,-1.6Z" class="g1_133"/>
<path d="M194.5,139.6c-1.2,0,-2.2,-1,-2.2,-2.2c0,-1.1,1,-2.1,2.2,-2.1c1.1,0,2.1,1,2.1,2.1c0,1.2,-1,2.2,-2.1,2.2m0,-3.4c-.7,0,-1.2,.6,-1.2,1.2c0,.7,.5,1.3,1.2,1.3c.6,0,1.2,-.6,1.2,-1.3c0,-.6,-.6,-1.2,-1.2,-1.2Z" class="gd_133"/>
<image clip-path="url(#c4_133)" preserveAspectRatio="none" x="734" y="502" width="199" height="172" xlink:href="img/4.png"/>
<path d="M740.5,507.2l-.9,157.4l185,2.4l2.7,-158.4Z" class="g3_133"/>
<image clip-path="url(#c5_133)" preserveAspectRatio="none" x="733" y="501" width="206" height="184" xlink:href="img/5.png"/>
<image clip-path="url(#c6_133)" preserveAspectRatio="none" x="733" y="500" width="206" height="185" xlink:href="img/6.png"/>
<path d="M746.5,504.7L737.8,668l153.5,10.5L925.4,657L933,517.1Z" class="gg_133"/>
<path d="M891.5,679.1l34.1,-21.2l-28.2,-3.7Z" class="gh_133"/>
<path d="M462.5,393.7c14.4,-1.1,25.9,-7.6,28.1,-15.8m-.5,-7.2c-3.2,-7.8,-14.8,-13.8,-29,-14.5m-7.4,.1c-14.4,1.1,-25.8,7.6,-28.1,15.8m.5,7.2c3.2,7.8,14.8,13.8,29.1,14.5" class="gi_133"/>
<path d="M490.9,376.5c.1,-.5,.1,-1,.1,-1.5c0,-.5,0,-1,-.1,-1.5M459.6,356.2c-.5,0,-1,-.1,-1.5,-.1c-.5,0,-1,.1,-1.5,.1m-31.3,17.3c0,.5,-.1,1,-.1,1.5c0,.5,.1,1,.1,1.5m31.3,17.4c.5,0,1,0,1.5,0c.5,0,1,0,1.5,0" class="gj_133"/>
<path d="M479.7,627.7c44.9,-.4,81.6,-7.2,88.2,-16" class="gk_133"/>
<path d="M567.2,605.3c-2.3,-2.4,-6.9,-4.7,-13.3,-6.7M547,596.8c-16.7,-4,-41.3,-6.6,-69,-6.8" class="gi_133"/>
<path d="M470.4,590.1c-44.9,.4,-81.6,7.2,-88.2,16m1.1,6.8c8.9,8.3,45,14.6,88.7,14.8" class="gk_133"/>
<path d="M568.6,610.4c.2,-.5,.3,-1,.3,-1.5c0,-.5,0,-.9,-.2,-1.3m-16.1,-9.3c-.5,-.2,-.9,-.3,-1.3,-.4c-.5,-.2,-1,-.3,-1.5,-.4M476.5,590c-.5,0,-.9,0,-1.4,0c-.6,0,-1.1,0,-1.6,0m-92,17.4c-.2,.5,-.3,1,-.3,1.5c0,.5,.1,1,.3,1.5m92,17.4c.5,0,1,0,1.6,0c.5,0,1,0,1.5,0" class="gj_133"/>
<path d="M499.9,591.8c0,0,145.1,-56.1,246.8,-56.1" class="gk_133"/>
<path d="M738,532.1l.8,8.7l10.8,-5.4Z" class="gl_133"/>
<image clip-path="url(#c7_133)" preserveAspectRatio="none" x="116" y="389" width="218" height="183" xlink:href="img/7.png"/>
<image clip-path="url(#c8_133)" preserveAspectRatio="none" x="116" y="389" width="218" height="183" xlink:href="img/8.png"/>
<path d="M121,400.7l6.1,164.9l168.7,-6.4l32.3,-24.9L322.9,393.2Z" class="gg_133"/>
<path d="M295.5,559.5l32.9,-25.4L311,525.6Z" class="gh_133"/>
<path d="M430.7,360.3c-15.9,-3.9,-73.9,-16,-168.9,-11m-8.1,1.6c-1.3,1.3,0,3.1,1.8,4.3m5.6,-3.3c0,-2.9,-1.9,-6.4,-8.3,-7.6m-8.1,-.2c-15,2.1,-50.3,15.4,-66.2,46.9" class="gk_133"/>
<path d="M435.1,361.4c0,0,-.5,-.1,-1.5,-.4M260.3,349.4c-.5,0,-1,.1,-1.5,.1c-.7,0,-1.3,.1,-1.8,.2m0,6.3c.7,.3,1.3,.4,1.8,.3c.5,-.1,1,-.5,1.4,-1M251.1,344c-.6,-.1,-1.2,-.1,-1.8,-.1c-.5,-.1,-1,-.1,-1.5,0m-70,48.4c-.2,.5,-.4,1,-.6,1.4" class="gj_133"/>
<path d="M182.8,393.1l-7.2,-5l-2.8,11.8Z" class="gm_133"/>
<image clip-path="url(#c9_133)" x="212" y="397" width="6" height="9" xlink:href="shade/1.png"/>
<image clip-path="url(#ca_133)" x="212" y="370" width="24" height="28" xlink:href="shade/2.png"/>
<image clip-path="url(#cb_133)" x="211" y="372" width="24" height="34" xlink:href="shade/3.png"/>
<image clip-path="url(#cc_133)" x="217" y="368" width="20" height="10" xlink:href="shade/4.png"/>
<path d="M32.1,45.1H9.2m958.3,0h22.9M32.1,1331.3H9.2m958.3,0h22.9M45.1,32.1V9.2m0,1335.1v22.9M954.5,32.1V9.2m0,1335.1v22.9" class="gn_133"/>
<path d="M32.1,45.1H9.2m958.3,0h22.9M32.1,1331.3H9.2m958.3,0h22.9M45.1,32.1V9.2m0,1335.1v22.9M954.5,32.1V9.2m0,1335.1v22.9" class="go_133"/>
<path d="M27.5,32.1H0m972.1,0h27.5M27.5,1344.3H0m972.1,0h27.5M32.1,27.5V0m0,1348.9v27.5M967.5,27.5V0m0,1348.9v27.5" class="gn_133"/>
<path d="M27.5,32.1H0m972.1,0h27.5M27.5,1344.3H0m972.1,0h27.5M32.1,27.5V0m0,1348.9v27.5M967.5,27.5V0m0,1348.9v27.5" class="go_133"/>
</svg>