<?xml version="1.0" encoding="UTF-8" standalone="no"?>
<!DOCTYPE svg PUBLIC "-//W3C//DTD SVG 1.1//EN"
"http://www.w3.org/Graphics/SVG/1.1/DTD/svg11.dtd">
<svg viewBox="0 0 999 1376" version="1.1" xmlns="http://www.w3.org/2000/svg" xmlns:xlink="http://www.w3.org/1999/xlink">
<defs>
<clipPath id="c0_287"><path d="M32.1,1344.3V32.1H967.5V1344.3Z"/></clipPath>
<clipPath id="c1_287"><path d="M198.7,326.4l-6.5,-2.2L175.8,310.3V253.2h72v73.2Z"/></clipPath>
<clipPath id="c2_287"><path d="M658.6,177V59h200V177Z"/></clipPath>
<style type="text/css"><![CDATA[
.g0_287{
fill: #FEFCF4;
}
.g1_287{
fill: #FFF;
}
.g2_287{
fill: none;
stroke: #6381B7;
stroke-width: 0.763;
}
.g3_287{
fill: none;
stroke: #949698;
stroke-width: 0.381;
}
.g4_287{
fill: none;
stroke: #818385;
stroke-width: 0.458;
}
.g5_287{
fill: #FCE8B0;
}
.g6_287{
fill: #2E6E51;
}
.g7_287{
fill: #BCBEC0;
}
.g8_287{
fill: #EE314A;
}
.g9_287{
fill: #25408F;
}
.ga_287{
fill: #6381B7;
}
.gb_287{
fill: #00BAF1;
}
.gc_287{
fill: #332D2C;
}
.gd_287{
fill: #D9DFF0;
}
.ge_287{
fill: #F27C85;
}
.gf_287{
fill: #7DD3F6;
}
.gg_287{
fill: none;
stroke: #FFF;
stroke-width: 1.909;
stroke-miterlimit: 10;
}
.gh_287{
fill: none;
stroke: #000;
stroke-width: 0.381;
stroke-miterlimit: 10;
}
]]></style>
</defs>
<path clip-path="url(#c0_287)" d="M-877.3,1343.2H45.1V32.1H-877.3V1343.2Z" class="g0_287"/>
<path d="M45.1,1344.3H967.5V32.1H45.1V1344.3Z" class="g0_287"/>
<path d="M172.1,224.6c0,0,-18.4,0,-18.4,18.4v983c0,0,0,18.3,18.4,18.3H849.2c0,0,18.3,0,18.3,-18.3V224.6Z" class="g1_287"/>
<path d="M172.1,224.6c0,0,-18.4,0,-18.4,18.4v983c0,0,0,18.3,18.4,18.3H849.2c0,0,18.3,0,18.3,-18.3V224.6H172.1Z" class="g2_287"/>
<path d="M204.7,448.7H325.2V349.5H204.7v99.2Z" class="g1_287"/>
<image preserveAspectRatio="none" x="215" y="349" width="100" height="100" xlink:href="img/1.jpg"/>
<path d="M204.7,448.7H325.2V349.5H204.7v99.2Z" class="g3_287"/>
<path d="M531.9,448.7H652.4V349.5H531.9v99.2Z" class="g1_287"/>
<image preserveAspectRatio="none" x="543" y="349" width="99" height="100" xlink:href="img/2.jpg"/>
<path d="M531.9,448.7H652.4V349.5H531.9v99.2Z" class="g3_287"/>
<path d="M368.3,448.7H488.8V349.5H368.3v99.2Z" class="g1_287"/>
<image preserveAspectRatio="none" x="379" y="349" width="99" height="100" xlink:href="img/3.jpg"/>
<path d="M368.3,448.7H488.8V349.5H368.3v99.2Z" class="g3_287"/>
<path d="M695.6,448.7H816V349.5H695.6v99.2Z" class="g1_287"/>
<image preserveAspectRatio="none" x="706" y="349" width="99" height="100" xlink:href="img/4.jpg"/>
<path d="M695.6,448.7H816V349.5H695.6v99.2Z" class="g3_287"/>
<path d="M204.7,611.2H325.2V512H204.7v99.2Z" class="g1_287"/>
<image preserveAspectRatio="none" x="215" y="512" width="100" height="99" xlink:href="img/5.jpg"/>
<path d="M204.7,611.2H325.2V512H204.7v99.2Z" class="g3_287"/>
<path d="M531.9,611.2H652.4V512H531.9v99.2Z" class="g1_287"/>
<image preserveAspectRatio="none" x="543" y="512" width="99" height="99" xlink:href="img/6.jpg"/>
<path d="M531.9,611.2H652.4V512H531.9v99.2Z" class="g3_287"/>
<path d="M204.7,772.1H325.2V672.9H204.7v99.2Z" class="g1_287"/>
<image preserveAspectRatio="none" x="215" y="673" width="100" height="99" xlink:href="img/7.jpg"/>
<path d="M204.7,772.1H325.2V672.9H204.7v99.2Z" class="g3_287"/>
<path d="M368.3,772.1H488.8V672.9H368.3v99.2Z" class="g1_287"/>
<image preserveAspectRatio="none" x="379" y="673" width="99" height="99" xlink:href="img/8.jpg"/>
<path d="M368.3,772.1H488.8V672.9H368.3v99.2Z" class="g3_287"/>
<path d="M531.9,772.1H652.4V672.9H531.9v99.2Z" class="g1_287"/>
<image preserveAspectRatio="none" x="543" y="673" width="99" height="99" xlink:href="img/9.jpg"/>
<path d="M531.9,772.1H652.4V672.9H531.9v99.2Z" class="g3_287"/>
<path d="M695.6,772.1H816V672.9H695.6v99.2Z" class="g1_287"/>
<image preserveAspectRatio="none" x="706" y="673" width="99" height="99" xlink:href="img/10.jpg"/>
<path d="M695.6,772.1H816V672.9H695.6v99.2Z" class="g3_287"/>
<path d="M224,1170.2H769.4V878.1H224v292.1Z" class="g1_287"/>
<image preserveAspectRatio="none" x="224" y="878" width="545" height="292" xlink:href="img/11.jpg"/>
<path d="M224,1170.2H769.4V878.1H224v292.1Z" class="g3_287"/>
<path d="M238.9,937.6c0,0,-4.3,0,-4.3,4.4v26c0,0,0,4.3,4.3,4.3h77.5c0,0,4.3,0,4.3,-4.3V942c0,0,0,-4.4,-4.3,-4.4Z" class="g1_287"/>
<path d="M238.9,937.6c0,0,-4.3,0,-4.3,4.4v26c0,0,0,4.3,4.3,4.3h77.5c0,0,4.3,0,4.3,-4.3V942c0,0,0,-4.4,-4.3,-4.4H238.9Z" class="g4_287"/>
<path d="M238.9,982.9c0,0,-4.3,0,-4.3,4.3v26c0,0,0,4.4,4.3,4.4h77.5c0,0,4.3,0,4.3,-4.4v-26c0,0,0,-4.3,-4.3,-4.3Z" class="g1_287"/>
<path d="M238.9,982.9c0,0,-4.3,0,-4.3,4.3v26c0,0,0,4.4,4.3,4.4h77.5c0,0,4.3,0,4.3,-4.4v-26c0,0,0,-4.3,-4.3,-4.3H238.9Z" class="g4_287"/>
<path d="M680.6,982.9c0,0,-4.3,0,-4.3,4.3v26c0,0,0,4.4,4.3,4.4h110c0,0,4.3,0,4.3,-4.4v-26c0,0,0,-4.3,-4.3,-4.3Z" class="g1_287"/>
<path d="M680.6,982.9c0,0,-4.3,0,-4.3,4.3v26c0,0,0,4.4,4.3,4.4h110c0,0,4.3,0,4.3,-4.4v-26c0,0,0,-4.3,-4.3,-4.3h-110Z" class="g4_287"/>
<path d="M238.9,1023.6c0,0,-4.3,0,-4.3,4.3v26c0,0,0,4.3,4.3,4.3h77.5c0,0,4.3,0,4.3,-4.3v-26c0,0,0,-4.3,-4.3,-4.3Z" class="g1_287"/>
<path d="M238.9,1023.6c0,0,-4.3,0,-4.3,4.3v26c0,0,0,4.3,4.3,4.3h77.5c0,0,4.3,0,4.3,-4.3v-26c0,0,0,-4.3,-4.3,-4.3H238.9Z" class="g4_287"/>
<path d="M680.6,1023.6c0,0,-4.3,0,-4.3,4.3v26c0,0,0,4.3,4.3,4.3h77.5c0,0,4.3,0,4.3,-4.3v-26c0,0,0,-4.3,-4.3,-4.3Z" class="g1_287"/>
<path d="M680.6,1023.6c0,0,-4.3,0,-4.3,4.3v26c0,0,0,4.3,4.3,4.3h77.5c0,0,4.3,0,4.3,-4.3v-26c0,0,0,-4.3,-4.3,-4.3H680.6Z" class="g4_287"/>
<path d="M209.1,1066.9c0,0,-4.3,0,-4.3,4.3v26c0,0,0,4.3,4.3,4.3H316.4c0,0,4.3,0,4.3,-4.3v-26c0,0,0,-4.3,-4.3,-4.3Z" class="g1_287"/>
<path d="M209.1,1066.9c0,0,-4.3,0,-4.3,4.3v26c0,0,0,4.3,4.3,4.3H316.4c0,0,4.3,0,4.3,-4.3v-26c0,0,0,-4.3,-4.3,-4.3H209.1Z" class="g4_287"/>
<path d="M680.6,1066.9c0,0,-4.3,0,-4.3,4.3v26c0,0,0,4.3,4.3,4.3h77.5c0,0,4.3,0,4.3,-4.3v-26c0,0,0,-4.3,-4.3,-4.3Z" class="g1_287"/>
<path d="M680.6,1066.9c0,0,-4.3,0,-4.3,4.3v26c0,0,0,4.3,4.3,4.3h77.5c0,0,4.3,0,4.3,-4.3v-26c0,0,0,-4.3,-4.3,-4.3H680.6Z" class="g4_287"/>
<path d="M204.6,1111.7c0,0,-4.3,0,-4.3,4.4v25.5c0,0,0,4.3,4.3,4.3H316.4c0,0,4.3,0,4.3,-4.3v-25.5c0,0,0,-4.4,-4.3,-4.4Z" class="g1_287"/>
<path d="M204.6,1111.7c0,0,-4.3,0,-4.3,4.4v25.5c0,0,0,4.3,4.3,4.3H316.4c0,0,4.3,0,4.3,-4.3v-25.5c0,0,0,-4.4,-4.3,-4.4H204.6Z" class="g4_287"/>
<path d="M680.6,1112c0,0,-4.3,0,-4.3,4.3v29.8c0,0,0,4.4,4.3,4.4h110c0,0,4.3,0,4.3,-4.4v-29.8c0,0,0,-4.3,-4.3,-4.3Z" class="g1_287"/>
<path d="M680.6,1112c0,0,-4.3,0,-4.3,4.3v29.8c0,0,0,4.4,4.3,4.4h110c0,0,4.3,0,4.3,-4.4v-29.8c0,0,0,-4.3,-4.3,-4.3h-110Z" class="g4_287"/>
<path d="M368.3,611.2H488.8V512H368.3v99.2Z" class="g1_287"/>
<image preserveAspectRatio="none" x="379" y="512" width="99" height="99" xlink:href="img/12.jpg"/>
<path d="M368.3,611.2H488.8V512H368.3v99.2Z" class="g3_287"/>
<path d="M231.3,281.4c0,0,-13,0,-13,13V316c0,0,0,13,13,13h602c0,0,13,0,13,-13V294.4c0,0,0,-13,-13,-13Z" class="g5_287"/>
<image clip-path="url(#c1_287)" preserveAspectRatio="none" x="174" y="252" width="75" height="76" xlink:href="img/13.png"/>
<path d="M226.1,321.6c0,0,-26.9,11.3,-51.1,-12.7c0,0,15.2,25.3,49.3,23.9c0,0,24.7,.4,20.2,-10.1c0,0,1.3,-4.4,-18.4,-1.1Z" class="g5_287"/>
<path d="M32.1,179.3H967.5V32.1H32.1V179.3Z" class="g6_287"/>
<g clip-path="url(#c0_287)">
<path d="M967.5,177.2H-877.3v-5.4h736.6c43.1,0,53.1,-37.9,115.3,-37.9H967.5Z" class="g7_287"/>
<path d="M967.5,183.7H-877.3v-9.8h736.6c43.1,0,53.1,-33.6,115.3,-33.6H967.5Z" class="g8_287"/>
</g>
<image clip-path="url(#c2_287)" preserveAspectRatio="none" x="659" y="59" width="200" height="118" xlink:href="img/14.png"/>
<path d="M153.3,217.5v22.2L165,250V227.8Z" class="g9_287"/>
<path d="M153.3,200.7v39H851.1c0,0,16.8,0,16.8,-16.8v-5.4c0,0,0,-16.8,-16.8,-16.8Z" class="ga_287"/>
<path d="M211.3,212.1l-6.5,-6.4l-21.2,21.2l6.5,6.4Z" class="gb_287"/>
<path d="M190.1,233.9c.1,0,.3,-.1,.4,-.2l21.2,-21.2c.1,-.1,.1,-.2,.1,-.4c0,-.1,0,-.2,-.1,-.3l-6.5,-6.5c-.2,-.2,-.6,-.2,-.8,0l-21.2,21.2c-.1,.1,-.1,.2,-.1,.4c0,.1,0,.2,.1,.3l6.5,6.5c.1,.1,.3,.2,.4,.2m20.5,-21.8l-20.5,20.5l-5.8,-5.7l20.5,-20.5Z" class="gc_287"/>
<path d="M211.3,212.1l-6.5,-6.4l2.1,-2.2l6.5,6.5Z" class="gd_287"/>
<path d="M211.3,212.7c.1,0,.3,-.1,.4,-.2l2.1,-2.1c.1,-.1,.2,-.2,.2,-.4c0,-.1,-.1,-.3,-.2,-.4l-6.5,-6.4c-.2,-.3,-.5,-.3,-.7,0l-2.2,2.1c-.1,.1,-.1,.2,-.1,.4c0,.1,0,.2,.1,.3l6.5,6.5c.1,.1,.3,.2,.4,.2m1.4,-2.7l-1.4,1.4l-5.7,-5.7l1.3,-1.4Z" class="gc_287"/>
<path d="M217,206.4l-6.4,-6.5l-3.7,3.6l6.5,6.5Z" class="ge_287"/>
<path d="M213.4,210.5c.2,0,.3,0,.4,-.1l3.6,-3.6c.2,-.2,.2,-.6,0,-.8l-6.5,-6.5c-.2,-.2,-.5,-.2,-.7,0l-3.6,3.7c-.2,.2,-.2,.5,0,.7l6.5,6.5c.1,.1,.2,.1,.3,.1m2.9,-4.1l-2.9,2.9l-5.7,-5.8l2.9,-2.8Z" class="gc_287"/>
<path d="M179,238l4.6,-11.1l6.5,6.4Z" class="g1_287"/>
<path d="M179,238.5c0,0,.1,0,.2,0l11.1,-4.7c.2,0,.3,-.2,.3,-.4c0,-.1,0,-.3,-.1,-.4L184,226.5c-.1,-.1,-.3,-.2,-.5,-.1c-.2,0,-.3,.1,-.4,.3l-4.6,11.1c-.1,.2,0,.4,.1,.6c.1,.1,.2,.1,.4,.1m10.2,-5.3l-9.3,3.8l3.9,-9.2Z" class="gc_287"/>
<path d="M179,238l2.2,-5.4l3.1,3.1Z" class="gc_287"/>
<path d="M179,238.5c0,0,.1,0,.2,0l5.3,-2.3c.2,0,.3,-.2,.4,-.4c0,-.1,-.1,-.3,-.2,-.4l-3.1,-3.2c-.1,-.1,-.3,-.1,-.5,-.1c-.2,0,-.3,.2,-.4,.3l-2.2,5.4c-.1,.2,0,.4,.1,.6c.1,.1,.2,.1,.4,.1m4.4,-2.9l-3.5,1.4l1.5,-3.5Z" class="gc_287"/>
<path d="M209.5,210.4l-2.9,-3l-21.2,21.2l2.9,3Z" class="gf_287"/>
<path d="M188.3,232.1c.2,0,.3,0,.4,-.1l21.2,-21.2c.1,-.1,.2,-.3,.2,-.4c0,-.2,-.1,-.3,-.2,-.4l-3,-3c-.2,-.2,-.5,-.2,-.7,0L185,228.3c-.1,.1,-.2,.2,-.2,.3c0,.2,.1,.3,.2,.4l3,3c.1,.1,.2,.1,.3,.1m20.5,-21.7l-20.5,20.4l-2.2,-2.2l20.5,-20.4Z" class="gc_287"/>
<path d="M32.1,45.1H9.2m958.3,0h22.9M32.1,1331.3H9.2m958.3,0h22.9M45.1,32.1V9.2m0,1335.1v22.9M954.5,32.1V9.2m0,1335.1v22.9" class="gg_287"/>
<path d="M32.1,45.1H9.2m958.3,0h22.9M32.1,1331.3H9.2m958.3,0h22.9M45.1,32.1V9.2m0,1335.1v22.9M954.5,32.1V9.2m0,1335.1v22.9" class="gh_287"/>
<path d="M27.5,32.1H0m972.1,0h27.5M27.5,1344.3H0m972.1,0h27.5M32.1,27.5V0m0,1348.9v27.5M967.5,27.5V0m0,1348.9v27.5" class="gg_287"/>
<path d="M27.5,32.1H0m972.1,0h27.5M27.5,1344.3H0m972.1,0h27.5M32.1,27.5V0m0,1348.9v27.5M967.5,27.5V0m0,1348.9v27.5" class="gh_287"/>
</svg>