<?xml version="1.0" encoding="UTF-8" standalone="no"?>
<!DOCTYPE svg PUBLIC "-//W3C//DTD SVG 1.1//EN"
"http://www.w3.org/Graphics/SVG/1.1/DTD/svg11.dtd">
<svg viewBox="0 0 999 1376" version="1.1" xmlns="http://www.w3.org/2000/svg" xmlns:xlink="http://www.w3.org/1999/xlink">
<defs>
<clipPath id="c0_144"><path d="M32.1,1344.3V32.1H967.5V1344.3Z"/></clipPath>
<clipPath id="c1_144"><path d="M203.2,953.2V892.8h90.9v60.4Z"/></clipPath>
<clipPath id="c2_144"><path d="M201.1,859.1V781.3h97.6v77.8Z"/></clipPath>
<clipPath id="c3_144"><path d="M186,722.9l-6.5,-2.1l-16.4,-14v-57H235v73.1Z"/></clipPath>
<clipPath id="c4_144"><path d="M179,1081.6l-6.5,-2.1l-16.3,-14v-57.1h71.9v73.2Z"/></clipPath>
<clipPath id="c5_144"><path d="M178.4,137.2c.1,-1.3,.7,-2.5,1.6,-3.4c1,-1,2.4,-1.6,3.9,-1.6h19.2v5Z"/></clipPath>
<clipPath id="c6_144"><path d="M177.9,137.7v-6h25.7v6Z"/></clipPath>
<style type="text/css"><![CDATA[
.g0_144{
fill: #FEFCF4;
}
.g1_144{
fill: #FFF;
}
.g2_144{
fill: none;
stroke: #6381B7;
stroke-width: 0.763;
}
.g3_144{
fill: #F0E8F3;
}
.g4_144{
fill: none;
stroke: #231F20;
stroke-width: 0.305;
stroke-miterlimit: 10;
}
.g5_144{
fill: #6381B7;
}
.g6_144{
fill: none;
stroke: #6381B7;
stroke-width: 0.381;
stroke-dasharray: 2,1;
}
.g7_144{
fill: none;
stroke: #6381B7;
stroke-width: 0.381;
}
.g8_144{
fill: #DCE9F3;
}
.g9_144{
fill: #9BD1EA;
}
.ga_144{
fill: none;
stroke: #58595B;
stroke-width: 0.381;
stroke-miterlimit: 10;
}
.gb_144{
fill: #FCE8B0;
}
.gc_144{
fill: none;
stroke: #231F20;
stroke-width: 0.458;
stroke-miterlimit: 10;
}
.gd_144{
fill: none;
stroke: #FFF;
stroke-width: 0.152;
}
.ge_144{
fill: none;
stroke: #FFF;
stroke-width: 2.381;
}
.gf_144{
fill: #25408F;
}
.gg_144{
fill: none;
stroke: #231F20;
stroke-width: 1.527;
}
.gh_144{
fill: #39B4D1;
stroke: #2D2A4A;
stroke-width: 1.038;
stroke-linecap: round;
stroke-linejoin: round;
}
.gi_144{
fill: #2D2A4A;
}
.gj_144{
fill: none;
stroke: #2D2A4A;
stroke-width: 1.038;
stroke-linecap: round;
stroke-linejoin: round;
}
.gk_144{
fill: #DEDAD3;
}
.gl_144{
fill: #29263F;
}
.gm_144{
fill: #E15F46;
stroke: #2D2A4A;
stroke-width: 1.038;
stroke-linecap: round;
stroke-linejoin: round;
}
.gn_144{
fill: #F7F8E9;
}
.go_144{
fill: none;
stroke: #BFD62F;
stroke-width: 1.527;
stroke-linecap: round;
stroke-linejoin: round;
stroke-dasharray: 0,5;
}
.gp_144{
fill: none;
stroke: #BFD62F;
stroke-width: 1.527;
stroke-linecap: round;
stroke-linejoin: round;
}
.gq_144{
fill: #BFD62F;
}
.gr_144{
fill: #D1232A;
}
.gs_144{
fill: #233D4A;
}
.gt_144{
fill: #FFE293;
}
.gu_144{
fill: #F89C47;
}
.gv_144{
fill: none;
stroke: #FFF;
stroke-width: 1.909;
stroke-miterlimit: 10;
}
.gw_144{
fill: none;
stroke: #000;
stroke-width: 0.381;
stroke-miterlimit: 10;
}
]]></style>
</defs>
<path clip-path="url(#c0_144)" d="M954.5,1344.3H1877V32.1H954.5V1344.3Z" class="g0_144"/>
<path d="M144.2,734.9c0,0,-13,0,-13,13V989.7c0,0,0,12.9,13,12.9H832c0,0,13,0,13,-12.9V747.9c0,0,0,-13,-13,-13Z" class="g1_144"/>
<path d="M144.2,734.9c0,0,-13,0,-13,13V989.7c0,0,0,12.9,13,12.9H832c0,0,13,0,13,-12.9V747.9c0,0,0,-13,-13,-13H144.2Z" class="g2_144"/>
<path d="M336.3,781.5c0,0,-13,0,-13,13v34.7c0,0,0,12.9,13,12.9H808.4c0,0,13,0,13,-12.9V794.5c0,0,0,-13,-13,-13Z" class="g3_144"/>
<path d="M351.9,832.6h204" class="g4_144"/>
<path d="M336.3,888.5c0,0,-13,0,-13,13v34.7c0,0,0,13,13,13H808.4c0,0,13,0,13,-13V901.5c0,0,0,-13,-13,-13Z" class="g3_144"/>
<path d="M351.9,938.2H563.6" class="g4_144"/>
<image clip-path="url(#c1_144)" preserveAspectRatio="none" x="202" y="884" width="93" height="75" xlink:href="img/1.jpg"/>
<image clip-path="url(#c2_144)" preserveAspectRatio="none" x="201" y="781" width="98" height="78" xlink:href="img/2.jpg"/>
<path d="M713.6,968c0,0,-4.3,0,-4.3,4.4v10.8c0,0,0,4.3,4.3,4.3h30.3c0,0,4.3,0,4.3,-4.3V972.4c0,0,0,-4.4,-4.3,-4.4Z" class="g5_144"/>
<path d="M700.4,960.6v34.8m1.4,1H829m1,-1.4V960.2m-1.4,-1H701.4" class="g6_144"/>
<path d="M700.4,995.8v.6h.6m128.4,0h.6v-.6m0,-36v-.6h-.6m-128.4,0h-.6v.6" class="g7_144"/>
<path d="M149,167.6c0,0,-17.3,0,-17.3,17.4V381.9c0,0,0,17.3,17.3,17.3H828.9c0,0,17.4,0,17.4,-17.3V185c0,0,0,-17.4,-17.4,-17.4Z" class="g8_144"/>
<path d="M245.3,216.6H437.9v30.1H245.3V216.6Zm192.6,0h299v30.1h-299V216.6Z" class="g9_144"/>
<path d="M245.3,246.7H437.9V277H245.3V246.7Zm192.6,0h299V277h-299V246.7Z" class="g1_144"/>
<path d="M245.3,216.6H437.9m0,0h299m-299,29.9V216.8M245.3,246.7H437.9m0,0h299m-299,30.1V246.9M245.3,277H437.9m0,0h299" class="ga_144"/>
<path d="M218.6,677.9c0,0,-13,0,-13,13v21.6c0,0,0,13,13,13H833.3c0,0,13,0,13,-13V690.9c0,0,0,-13,-13,-13Z" class="gb_144"/>
<image clip-path="url(#c3_144)" preserveAspectRatio="none" x="161" y="648" width="75" height="76" xlink:href="img/3.png"/>
<path d="M213.4,718.2c0,0,-26.9,11.3,-51.1,-12.8c0,0,15.1,25.3,49.3,24c0,0,24.7,.3,20.2,-10.1c0,0,1.2,-4.5,-18.4,-1.1Z" class="gb_144"/>
<path d="M145.1,1091.8c0,0,-13,0,-13,12.9v130.9c0,0,0,13,13,13H832.9c0,0,13,0,13,-13V1104.7c0,0,0,-12.9,-13,-12.9Z" class="g1_144"/>
<path d="M145.1,1091.8c0,0,-13,0,-13,12.9v130.9c0,0,0,13,13,13H832.9c0,0,13,0,13,-13V1104.7c0,0,0,-12.9,-13,-12.9H145.1Z" class="g2_144"/>
<path d="M291.7,1228.3H420.6" class="gc_144"/>
<path d="M271.2,1188.6v.8h4.7c-.2,1.8,-.8,3.5,-1.7,4.8c-.9,1.4,-2.2,2.6,-3.9,3.5l.9,.6c1.8,-1.1,3.1,-2.5,4.1,-4c.9,-1.6,1.4,-3.4,1.6,-5.4c0,-.1,0,-.2,-.1,-.2c0,-.1,-.1,-.1,-.2,-.1h-5.4Zm8.3,12.7h1v-7h2v-.9h-2v-5.7h-1v13.6Zm6.3,-10.9h-1.3v1.4h1.3v-1.4Zm0,6.7h-1.3v1.4h1.3v-1.4Zm7.9,-7.7c-.6,.8,-.8,2.1,-.8,3.8c0,1.7,.2,3,.8,3.9c.6,.8,1.4,1.2,2.3,1.2c.9,0,1.7,-.4,2.3,-1.2c.6,-.9,.9,-2.2,.9,-3.9c0,-1.7,-.3,-3,-.9,-3.8c-.6,-.9,-1.4,-1.3,-2.3,-1.3c-.9,0,-1.7,.4,-2.3,1.3Zm3.9,.7c.4,.8,.6,1.8,.6,3.1c0,1.3,-.2,2.4,-.6,3.1c-.4,.8,-.9,1.2,-1.6,1.2c-.7,0,-1.2,-.4,-1.6,-1.2c-.4,-.7,-.6,-1.8,-.6,-3.1c0,-1.3,.2,-2.3,.6,-3.1c.4,-.8,.9,-1.2,1.6,-1.2c.7,0,1.2,.4,1.6,1.2Zm4.4,11.2h1v-13.6h-1v13.6Zm8.3,-3.6c0,0,.1,0,.2,0c0,0,.1,0,.3,0c.2,0,.5,0,.8,0c.3,0,.6,0,1,0c.4,0,.8,0,1.3,0c.3,0,.7,-.1,1.1,-.1c.4,-.1,.8,-.1,1.2,-.2c.4,0,.7,-.1,1,-.1c.4,-.1,.6,-.1,.8,-.2v-.9c-.2,.1,-.5,.1,-.8,.2c-.3,.1,-.7,.1,-1.1,.2c-.4,0,-.8,.1,-1.1,.1c-.4,.1,-.8,.1,-1.1,.1h-2.7v-8.4h-1v9c0,.1,.1,.2,.1,.3Zm8.3,3.6h1v-7.6h2v-.9h-2v-5.1h-1v13.6Zm13.1,-8.7h-6.9v-3.5h6.9v3.5Zm.9,-4c0,-.1,0,-.2,0,-.3q-.1,0,-.2,0h-8.2c-.1,0,-.2,0,-.3,0c0,.1,0,.2,0,.3v4.5c0,.1,0,.2,0,.2c.1,.1,.2,.1,.3,.1h8.2q.1,0,.2,-.1c0,0,0,-.1,0,-.2v-4.5Zm-10.4,7.7h5.6v5h1v-5h5.5v-.8H322.2v.8Zm14.6,-8.2v.7h7.7v1.3h-7.4c-.1,0,-.2,0,-.2,.1c-.1,0,-.1,.1,-.1,.2v2.2c0,.1,0,.2,.1,.2c0,.1,.1,.1,.2,.1h8.7v-.8h-8.1v-1.2h7.4c.1,0,.2,-.1,.3,-.1q0,-.1,0,-.2v-2.2c0,-.1,0,-.2,0,-.3c-.1,0,-.2,0,-.3,0h-8.3Zm-1.7,6.8h12.1v-.8H335.1v.8Zm10.4,4.1c0,-.1,0,-.2,0,-.3v-2.3q0,-.1,0,-.2c-.1,0,-.1,-.1,-.2,-.1h-8.5v.8h7.8v1.4h-7.5c-.1,0,-.2,0,-.2,0q-.1,.1,-.1,.2v2.4q0,.1,.1,.2c0,0,.1,0,.2,0h8.7v-.7h-8V1199h7.5q.1,0,.2,0Zm13.9,-8.1h-4.3V1189h4.3v1.9Zm.9,-2.4c0,-.1,0,-.2,-.1,-.2c0,-.1,-.1,-.1,-.2,-.1h-5.6c-.1,0,-.2,0,-.2,.1c-.1,0,-.1,.1,-.1,.2v2.9c0,.1,0,.2,.1,.2c0,.1,.1,.1,.2,.1H360c.1,0,.2,0,.2,-.1c.1,0,.1,-.1,.1,-.2v-2.9Zm2.2,5.7h-3.2v.7h3.2v.6h1v-7.8h-1v6.5Zm-9.7,-.6h3.3v1.9h1v-1.9c.4,0,.8,-.1,1.3,-.1c.5,0,.9,0,1.4,-.1c.5,0,.9,0,1.3,-.1c.4,0,.7,-.1,1,-.1v-.8c-.2,0,-.5,.1,-.9,.1c-.4,0,-.8,.1,-1.3,.1c-.5,.1,-1,.1,-1.5,.1c-.6,.1,-1.1,.1,-1.5,.1h-4.1v.8Zm2.2,2.6v.8h7.5v1.3h-7.2c-.1,0,-.2,0,-.2,0c-.1,.1,-.1,.2,-.1,.3v2.3q0,.1,.1,.2c0,0,.1,0,.2,0h8.4v-.8H356v-1.2h7.2c.1,0,.1,-.1,.2,-.1c0,-.1,.1,-.1,.1,-.2v-2.3c0,-.1,-.1,-.2,-.1,-.2q-.1,-.1,-.2,-.1H355Zm20.4,-3.7c.1,0,.1,-.1,.1,-.2v-3.6q0,-.1,-.1,-.2c0,0,-.1,-.1,-.2,-.1h-8.3v.8h7.7v2.6h-7.4c-.1,0,-.2,0,-.2,.1c0,0,-.1,.1,-.1,.2v3.5c0,.1,.1,.2,.1,.2c0,.1,.1,.1,.2,.1h3.6v2.8h-5.5v.8h12.1v-.8h-5.6v-2.8H376v-.8h-8.1v-2.5h7.3c.1,0,.2,0,.2,-.1Zm7.9,-3.1h2.9v1.1c0,1.6,-.4,3,-1.1,4.3c-.6,1.2,-1.6,2.2,-2.9,3l.9,.7c.4,-.3,.8,-.6,1.2,-1c.4,-.4,.7,-.8,1,-1.2c.3,-.5,.6,-.9,.8,-1.4c.2,-.4,.4,-.9,.5,-1.4c.4,1,.8,1.9,1.5,2.7c.6,.7,1.3,1.4,2.1,1.9l.8,-.7c-1.3,-.8,-2.3,-1.7,-2.9,-2.8c-.7,-1.1,-1,-2.4,-1,-3.8v-1.4h3v-.8h-6.8v.8Zm8.6,11.9h1v-7.4h2v-.9h-2v-5.3h-1v13.6Zm5.2,-13.2v.7h7.7v1.3h-7.4c-.1,0,-.2,0,-.2,.1c-.1,0,-.1,.1,-.1,.2v2.2c0,.1,0,.2,.1,.2c0,.1,.1,.1,.2,.1H406v-.8h-8v-1.2h7.4c.1,0,.2,-.1,.2,-.1q.1,-.1,.1,-.2v-2.2c0,-.1,0,-.2,-.1,-.3c0,0,-.1,0,-.2,0h-8.3Zm-1.7,6.8h12.1v-.8H395.4v.8Zm10.4,4.1c0,-.1,0,-.2,0,-.3v-2.3q0,-.1,0,-.2c-.1,0,-.1,-.1,-.2,-.1h-8.5v.8h7.8v1.4h-7.5c-.1,0,-.2,0,-.2,0q-.1,.1,-.1,.2v2.4q0,.1,.1,.2c0,0,.1,0,.2,0h8.7v-.7h-8V1199h7.5q.1,0,.2,0Zm3.5,-10.4v.8h2.5c-.1,1.7,-.4,3.2,-.9,4.6c-.6,1.4,-1.4,2.7,-2.5,3.8l1,.5c1.1,-1.3,1.9,-2.7,2.5,-4.3c.5,-1.6,.8,-3.3,.9,-5.1c0,-.1,0,-.2,-.1,-.2c0,-.1,-.1,-.1,-.2,-.1h-3.2Zm3.9,0v.8h2.4c0,1.8,-.3,3.4,-.9,5c-.5,1.5,-1.3,2.9,-2.3,4.1l.9,.4c1.1,-1.4,1.9,-3,2.4,-4.7c.6,-1.7,.9,-3.5,.9,-5.3c0,-.1,0,-.2,-.1,-.2c0,-.1,-.1,-.1,-.2,-.1h-3.1Zm5,12.7h.9v-7.1h1.8v-.8h-1.8v-5.7h-.9v13.6Zm7.2,-13c-.5,.2,-1,.4,-1.4,.7c-.4,.3,-.7,.7,-.9,1.2c-.2,.4,-.4,.9,-.4,1.5c0,.6,.2,1.1,.4,1.5c.2,.5,.5,.9,.9,1.2c.4,.3,.9,.5,1.4,.7c.6,.1,1.2,.2,1.9,.2c.7,0,1.3,-.1,1.9,-.2c.6,-.2,1,-.4,1.4,-.7c.4,-.3,.7,-.7,1,-1.2c.2,-.4,.3,-.9,.3,-1.5c0,-.6,-.1,-1.1,-.3,-1.5c-.3,-.5,-.6,-.9,-1,-1.2c-.4,-.3,-.8,-.5,-1.4,-.7c-.6,-.2,-1.2,-.3,-1.9,-.3c-.7,0,-1.3,.1,-1.9,.3Zm3.4,.7c.4,.2,.8,.3,1.1,.6c.3,.2,.6,.6,.8,.9c.1,.4,.2,.7,.2,1.2c0,.4,-.1,.8,-.2,1.2c-.2,.3,-.5,.6,-.8,.9c-.3,.2,-.7,.4,-1.1,.6c-.5,.1,-1,.1,-1.5,.1c-.5,0,-1,0,-1.4,-.1c-.5,-.2,-.9,-.4,-1.2,-.6c-.3,-.3,-.5,-.6,-.7,-.9c-.2,-.4,-.3,-.8,-.3,-1.2c0,-.5,.1,-.8,.3,-1.2c.2,-.3,.4,-.7,.7,-.9c.3,-.3,.7,-.4,1.2,-.6c.4,-.1,.9,-.2,1.4,-.2c.5,0,1,.1,1.5,.2Zm-4.5,9.6h-3v.8h12.1v-.8h-3v-2.9h-.9v2.9h-4.3v-2.9h-.9v2.9Zm12.1,1.5h1.2v-1.3h-1.2v1.3Zm-.6,-11.9c-.4,.2,-.8,.5,-1.1,.9l.4,.6c.3,-.3,.6,-.5,.9,-.7c.4,-.2,.8,-.3,1.2,-.3c.6,0,1.1,.2,1.4,.5c.4,.4,.5,.9,.5,1.5c0,.5,-.1,1,-.4,1.5c-.3,.4,-.6,.8,-1,1.1c-.4,.3,-.7,.7,-.9,1c-.2,.4,-.4,.9,-.4,1.4c0,.2,0,.5,.1,.7c0,.2,0,.4,0,.6h.9v-1c0,-.5,.1,-1,.3,-1.3c.2,-.3,.5,-.7,.8,-1c.4,-.3,.8,-.8,1.1,-1.3c.4,-.5,.6,-1.1,.6,-1.8c0,-.3,-.1,-.7,-.2,-1.1c-.2,-.3,-.4,-.6,-.6,-.9c-.2,-.2,-.5,-.4,-.9,-.6c-.3,-.1,-.7,-.2,-1.1,-.2c-.6,0,-1.1,.2,-1.6,.4Zm-164.6,35.4c0,.1,.1,.1,.2,.1c0,0,.1,0,.3,0c.2,0,.4,0,.7,0c.3,0,.7,0,1.1,0c.4,0,.8,0,1.2,-.1c.4,0,.8,0,1.2,0c.4,-.1,.8,-.1,1.2,-.2c.3,0,.7,-.1,1,-.1c.3,-.1,.6,-.2,.8,-.2v-.9c-.2,0,-.5,.1,-.8,.2c-.4,0,-.7,.1,-1.1,.1c-.4,.1,-.8,.1,-1.2,.2c-.3,0,-.7,.1,-1,.1h-2.7v-8.5h-1v9.1c0,.1,0,.2,.1,.2Zm8.3,3.7h1v-7.6h2v-.9h-2v-5.1h-1v13.6Zm6.3,-11h-1.3v1.4h1.3v-1.4Zm0,6.8h-1.3v1.4h1.3v-1.4ZM426,1215.4h3v1.1c0,1.6,-.4,3,-1.1,4.2c-.6,1.3,-1.6,2.3,-2.9,3.1l.9,.7c.4,-.3,.8,-.7,1.2,-1c.3,-.4,.7,-.8,1,-1.3c.3,-.4,.6,-.8,.8,-1.3c.2,-.4,.4,-.9,.5,-1.4c.4,1,.8,1.9,1.5,2.7c.6,.7,1.3,1.4,2.1,1.9l.8,-.7c-1.3,-.8,-2.3,-1.7,-2.9,-2.8c-.7,-1.1,-1,-2.4,-1,-3.8v-1.4h3v-.9H426v.9Zm8.7,11.9h1v-7.4h2v-.9h-2v-5.3h-1v13.6Zm14.3,-5.4v-.8h-8.2v-2.5h7.3c.1,0,.2,0,.3,-.1c0,0,0,-.1,0,-.2v-3.6c0,-.1,0,-.2,0,-.2c-.1,-.1,-.2,-.1,-.3,-.1h-8.3v.8h7.7v2.6h-7.3c-.1,0,-.2,0,-.3,.1c0,0,0,.1,0,.2v3.5q0,.1,0,.2c.1,0,.2,.1,.3,.1H449Zm-10.8,3.4h12.1v-.8H438.2v.8Zm16,-9.1c0,1.8,-.3,3.3,-.8,4.5c-.5,1.2,-1.4,2.3,-2.6,3.1l.9,.7c.8,-.6,1.4,-1.3,1.9,-2.1c.5,-.8,.8,-1.6,1,-2.5c.2,.8,.6,1.5,1,2.2c.5,.7,1,1.3,1.7,1.8l.8,-.7c-1,-.6,-1.7,-1.4,-2.2,-2.5c-.5,-1.1,-.7,-2.4,-.7,-4.1v-2.2h-1v1.8Zm7.3,11.1h.9v-13.6h-.9v13.6Zm-2.6,-9.3h-2.4v.9h2.4v7.7h1v-12.7h-1v4.1Zm9.3,-3.7c-.5,.1,-1,.4,-1.4,.7c-.4,.3,-.7,.7,-.9,1.1c-.3,.5,-.4,1,-.4,1.6c0,.5,.1,1,.4,1.5c.2,.4,.5,.8,.9,1.1c.4,.3,.9,.6,1.4,.7c.6,.2,1.2,.3,1.9,.3c.7,0,1.3,-.1,1.9,-.3c.5,-.1,1,-.4,1.4,-.7c.4,-.3,.7,-.7,1,-1.1c.2,-.5,.3,-1,.3,-1.5c0,-.6,-.1,-1.1,-.3,-1.6c-.3,-.4,-.6,-.8,-1,-1.1c-.4,-.3,-.9,-.6,-1.4,-.7c-.6,-.2,-1.2,-.3,-1.9,-.3c-.7,0,-1.3,.1,-1.9,.3Zm3.4,.7c.4,.1,.8,.3,1.1,.6c.3,.2,.6,.5,.8,.9c.1,.3,.2,.7,.2,1.2c0,.4,-.1,.8,-.2,1.2c-.2,.3,-.5,.6,-.8,.9c-.3,.2,-.7,.4,-1.1,.5c-.5,.2,-1,.2,-1.5,.2c-.5,0,-1,0,-1.4,-.2c-.5,-.1,-.9,-.3,-1.2,-.5c-.3,-.3,-.5,-.6,-.7,-.9c-.2,-.4,-.3,-.8,-.3,-1.2c0,-.5,.1,-.9,.3,-1.2c.2,-.4,.4,-.7,.7,-.9c.3,-.3,.7,-.5,1.2,-.6c.4,-.1,.9,-.2,1.4,-.2c.5,0,1,.1,1.5,.2Zm-4.5,9.6h-3v.8h12.1v-.8h-3v-3h-.9v3H468v-3h-.9v3ZM478,1226h1.3v-1.4H478v1.4Z" class="gd_144"/>
<path d="M495.6,1216.3l-.9,-.9H484.3l.8,.9h5.4v.7c-1.8,.6,-3.4,1.5,-4.8,2.6l1.2,1.5c.9,.1,1.7,.6,2.5,1.4c.3,.3,.6,.7,.9,1.1c.2,.4,.5,.9,.7,1.4q0,.1,.1,.1c0,.1,.1,.1,.2,.1v-7.1c.8,0,1.4,.2,1.9,.7c.4,.5,.7,1,.7,1.6l-.1,.2c-.1,-.2,-.2,-.3,-.4,-.3c-.1,-.1,-.2,-.2,-.4,-.2c-.3,0,-.5,.1,-.7,.3c-.2,.2,-.3,.4,-.3,.7c0,.1,0,.3,.1,.4c.1,.1,.2,.3,.3,.3c.1,.1,.2,.2,.3,.3c.1,0,.3,0,.4,0c.2,0,.4,0,.6,-.1c.1,-.1,.3,-.2,.4,-.3c.1,-.2,.2,-.4,.3,-.5c0,-.2,.1,-.4,.1,-.7c0,-.8,-.3,-1.6,-.9,-2.4c-.6,-.8,-1.4,-1.2,-2.3,-1.2v-.6h4.3Zm-5.2,6.5v0c-.7,-1.3,-1.7,-2.2,-3.1,-2.8c.6,-.5,1.1,-.8,1.6,-1.1c.5,-.3,1,-.5,1.5,-.7v4.6Zm13,-6.5l-.8,-.9h-8.1l.8,.9h5.6v.6c-1.7,.6,-3.4,1.5,-5.1,2.7l1.1,1.6c1.2,.1,2.1,.5,2.9,1.2c.2,.2,.4,.4,.6,.7c.2,.3,.4,.5,.5,.7c.1,.2,.2,.5,.4,.9l.4,.6v-9h1.7Zm-2.5,6.7c-.7,-1.3,-1.8,-2.3,-3.3,-2.9c.6,-.4,1.2,-.8,1.7,-1.1c.6,-.3,1.1,-.5,1.6,-.7v4.7Zm-3.2,1.2c.2,.2,.4,.3,.6,.3c.2,0,.4,-.1,.6,-.3c.2,-.1,.3,-.3,.3,-.6c0,-.2,-.1,-.5,-.3,-.6c-.2,-.2,-.4,-.3,-.6,-.3c-.2,0,-.4,.1,-.6,.3c-.2,.1,-.3,.4,-.3,.6c0,.3,.1,.5,.3,.6Zm8.8,-7.9l-.8,-.9h-.8c-.2,-.2,-.4,-.7,-.5,-1.3l-.3,-.2c0,.1,0,.3,0,.6c0,.2,.1,.5,.1,.9c0,.3,0,.6,0,.9c0,.2,0,.4,0,.6c-.1,-.5,-.3,-.9,-.6,-1.1c-.3,-.3,-.7,-.4,-1.2,-.4h-.9l.8,.9c.2,0,.5,0,.7,.1c.2,.1,.4,.2,.6,.4c.1,.1,.3,.3,.4,.5c.1,.2,.1,.5,.1,.7v6.4l.8,.8v-8.9h1.6Zm8.6,-.9h-9.8l.8,.9H516l-.9,-.9Zm-.3,4c-.2,-.4,-.4,-.8,-.7,-1.2c-.3,-.3,-.7,-.6,-1,-.8c-.4,-.2,-.8,-.3,-1.3,-.3c-.5,0,-1,.2,-1.4,.5c-.4,.3,-.6,.8,-.6,1.3c0,.5,.1,.9,.4,1.2c.2,.3,.6,.5,1,.5c.9,0,1.3,-.4,1.3,-1.2c0,-.4,-.1,-.8,-.3,-1.1c.3,0,.5,-.1,.6,-.1c.4,0,.8,.3,1.1,.7c.3,.4,.4,.8,.4,1.3c0,.6,-.3,1.1,-.7,1.6c-.6,.4,-1.2,.7,-1.7,.7c-1.3,0,-2.3,-.7,-3.1,-2c-.2,-.2,-.5,-.7,-.8,-1.3c-.3,-.6,-.6,-1.3,-.9,-2.2l-.5,-.2c1.2,4.7,3,7,5.2,7c.8,0,1.6,-.3,2.2,-.8c.3,-.3,.5,-.7,.7,-1c.2,-.4,.3,-.8,.3,-1.2c0,-.5,-.1,-.9,-.2,-1.4Zm14.9,-5.5c-1.6,-1.7,-3.3,-2.5,-5,-2.5c-.7,0,-1.4,.2,-2.1,.8c-.8,.6,-1.2,1.3,-1.2,2c0,.2,.1,.4,.4,.7l.5,.5h-2.2l.8,.9h1.3v8.1l.9,.8v-8.9h1.4l-.8,-.9h-.9l-.4,-.8c.1,-.6,.4,-1.1,1.2,-1.6c.6,-.5,1.3,-.7,1.9,-.7c.4,0,.8,.1,1.2,.2c.4,.1,.8,.2,1.2,.5c.4,.2,.8,.4,1.1,.7c.3,.2,.6,.4,.9,.7l-.2,-.5Zm2.7,2.4l-.8,-.9h-8.2l.9,.9h.9v5l1.1,1.2c.3,-.7,.8,-1.4,1.4,-2c.6,-.6,1.3,-1.1,2.1,-1.4c-.2,.8,-.3,1.5,-.3,2.3c0,.4,0,.9,.1,1.5c.1,.6,.2,1.3,.4,2.2l.6,.2c-.3,-1.1,-.4,-1.9,-.4,-2.6c0,-.6,.1,-1.3,.3,-2c.2,-.7,.5,-1.4,.9,-2.2l-1.4,-1c-.3,.1,-.6,.2,-.9,.4c-.3,.2,-.7,.4,-1,.6c-.4,.3,-.7,.5,-1.1,.8c-.3,.3,-.6,.6,-.9,1v-4h6.3Zm4.2,-.9h-5.5l.8,.9h2.8c-1.2,1.4,-1.8,2.9,-1.8,4.3c0,1.1,.2,2,.6,2.9c.6,1,1.3,1.5,2.3,1.5c.2,0,.4,-.1,.5,-.1c.2,-.1,.4,-.2,.5,-.3c.2,-.2,.3,-.3,.3,-.5c.1,-.2,.2,-.4,.2,-.6c0,-.3,-.1,-.6,-.3,-.8c-.2,-.3,-.5,-.4,-.7,-.4c-.3,0,-.5,.1,-.7,.3c-.3,.2,-.4,.4,-.4,.7c0,.1,.1,.3,.2,.5c0,.1,.2,.3,.4,.4c-.5,.1,-1.1,-.2,-1.6,-.9c-.3,-.5,-.5,-1.1,-.5,-1.7c0,-.7,.1,-1.3,.3,-1.8c.1,-.6,.3,-1.1,.6,-1.6c.3,-.5,.7,-.9,1.2,-1.2c.4,-.3,1,-.6,1.6,-.7l-.8,-.9Zm8.1,.9l-.9,-.9h-7.7c.5,.7,1.2,1.2,2.3,1.6c.5,.2,.9,.3,1.2,.5c.3,.1,.5,.2,.6,.3c-.4,.3,-.8,.7,-1.2,1c-.5,.4,-.9,.9,-1.4,1.3l1.2,1.5c1,0,1.8,.3,2.4,.8c.4,.4,.8,.9,1.2,1.7c.4,.7,.7,1.1,.9,1.3v-9.1h1.4Zm-2.2,6.8v0c-.7,-1.2,-1.8,-2.1,-3.1,-2.6c.3,-.4,.7,-.8,1,-1.1c.3,-.4,.7,-.7,1,-1c-.4,-.5,-.8,-1,-1.1,-1.3c-.4,-.4,-.7,-.7,-1,-.8h3.2v6.8Zm-3.2,1.4c.2,.1,.4,.2,.6,.2c.2,0,.4,-.1,.6,-.2c.2,-.2,.3,-.4,.3,-.6c0,-.3,-.1,-.5,-.3,-.7c-.2,-.1,-.4,-.2,-.6,-.2c-.2,0,-.4,.1,-.6,.2c-.2,.2,-.2,.4,-.2,.7c0,.2,0,.4,.2,.6Zm21,-8.2l-.9,-.9H548.9l.9,.9h5.4v.7c-1.8,.6,-3.5,1.5,-4.9,2.6l1.2,1.5c.9,.1,1.8,.6,2.5,1.4c.4,.3,.6,.7,.9,1.1c.3,.4,.5,.9,.7,1.4c0,.1,.1,.1,.1,.1c.1,.1,.2,.1,.2,.1v-7.1c.9,0,1.5,.2,1.9,.7c.5,.5,.7,1,.7,1.6v.2c-.2,-.2,-.3,-.3,-.4,-.3c-.1,-.1,-.3,-.2,-.5,-.2c-.2,0,-.5,.1,-.7,.3c-.1,.2,-.2,.4,-.2,.7c0,.1,0,.3,.1,.4c0,.1,.1,.3,.2,.3c.1,.1,.2,.2,.4,.3c.1,0,.2,0,.4,0c.2,0,.3,0,.5,-.1c.2,-.1,.3,-.2,.4,-.3c.2,-.2,.2,-.4,.3,-.5c.1,-.2,.1,-.4,.1,-.7c0,-.8,-.3,-1.6,-.8,-2.4c-.6,-.8,-1.4,-1.2,-2.4,-1.2v-.6h4.4Zm-5.2,6.5v0c-.7,-1.3,-1.7,-2.2,-3.1,-2.8c.6,-.5,1.1,-.8,1.6,-1.1c.5,-.3,1,-.5,1.5,-.7v4.6Zm8.4,-6.5l-.8,-.9h-.8c-.2,-.2,-.4,-.7,-.5,-1.3l-.3,-.2c0,.1,0,.3,0,.6c0,.2,0,.5,.1,.9c0,.3,0,.6,0,.9c0,.2,0,.4,0,.6c-.1,-.5,-.4,-.9,-.6,-1.1c-.3,-.3,-.7,-.4,-1.2,-.4h-1l.9,.9c.2,0,.4,0,.7,.1c.2,.1,.4,.2,.6,.4c.1,.1,.3,.3,.4,.5c.1,.2,.1,.5,.1,.7v6.4l.8,.8v-8.9h1.6Zm7.1,0l-.8,-.9h-.5c0,-.8,-.1,-1.4,-.4,-1.8c-.4,-.4,-.9,-.7,-1.7,-.7c-.2,0,-.6,.1,-1,.1c-.2,0,-.4,.1,-.6,.1c-.2,0,-.3,0,-.4,0c-.4,0,-.7,-.1,-1,-.2c-.2,-.2,-.4,-.4,-.4,-.8c0,-.2,.1,-.3,.2,-.5c0,0,0,-.1,0,-.1q0,-.1,0,-.2c-.4,.1,-.6,.4,-.6,1.1c0,.6,.3,1.1,.9,1.4c.5,.3,1.1,.5,1.7,.5c.1,0,.2,0,.3,0c.1,0,.3,-.1,.4,-.1c.4,0,.7,-.1,.8,-.1c.7,0,1.1,.3,1,.8c0,.1,0,.2,0,.3q0,.1,0,.2h-6.3l.8,.9h1.3v5.7c.1,.6,.3,1.1,.6,1.4c.4,.4,.8,.6,1.3,.6c.8,0,1.6,-.5,2.3,-1.4c.6,-.8,1,-1.6,1,-2.5c0,-.2,-.1,-.5,-.1,-.7c-.1,-.3,-.2,-.5,-.3,-.7c-.3,-.4,-.7,-.7,-1.1,-.7c-.4,0,-.6,.1,-.8,.3c-.2,.3,-.3,.5,-.3,.9c0,.2,.1,.5,.3,.7c.3,.2,.5,.3,.8,.3l.3,-.1c-.1,.6,-.4,1.2,-.8,1.8c-.6,.6,-1.1,.9,-1.6,.9c-.3,0,-.6,-.2,-.8,-.5v-6h5.5Zm5.2,8.1v-7.1l-.9,-.7v7l.9,.8Z" class="ge_144"/>
<image preserveAspectRatio="none" x="191" y="1176" width="65" height="65" xlink:href="img/4.jpg"/>
<path d="M291.7,1150.2H420.6" class="gc_144"/>
<path d="M271.2,1110.5v.8h4.7c-.2,1.8,-.8,3.5,-1.7,4.8c-.9,1.4,-2.2,2.6,-3.9,3.5l.9,.6c1.8,-1.1,3.1,-2.5,4.1,-4c.9,-1.6,1.4,-3.4,1.6,-5.4c0,-.1,0,-.2,-.1,-.2c0,-.1,-.1,-.1,-.2,-.1h-5.4Zm8.3,12.7h1v-7h2v-.9h-2v-5.7h-1v13.6Zm6.3,-10.9h-1.3v1.4h1.3v-1.4Zm0,6.7h-1.3v1.4h1.3V1119Zm15.8,-5.1h-7v-3h7v3Zm.9,-3.5c0,-.1,0,-.2,-.1,-.3c0,0,-.1,0,-.2,0H294c-.1,0,-.2,0,-.2,0c0,.1,-.1,.2,-.1,.3v4c0,.1,.1,.2,.1,.2c0,0,.1,.1,.2,.1h3.7v2h-5.6v.8h12v-.8h-5.5v-2h3.6c.1,0,.2,-.1,.2,-.1c.1,0,.1,-.1,.1,-.2v-4Zm-4.9,8.5c0,.4,-.2,.8,-.4,1.2c-.3,.4,-.6,.8,-1.1,1.1c-.4,.3,-.9,.6,-1.5,.8c-.6,.2,-1.2,.3,-1.9,.4l.7,.8c1,-.2,2,-.6,2.8,-1c.9,-.5,1.5,-1.1,1.9,-2c.2,.5,.5,.8,.8,1.1c.3,.4,.7,.7,1.1,.9c.4,.3,.9,.5,1.3,.6c.5,.2,1,.3,1.5,.4l.7,-.7c-.6,-.1,-1.2,-.3,-1.8,-.5c-.6,-.2,-1.1,-.5,-1.6,-.8c-.4,-.3,-.8,-.6,-1,-1c-.3,-.4,-.4,-.9,-.4,-1.3v-.3h-1.1v.3Zm11.6,-9.2c-.6,.1,-1.1,.3,-1.5,.5c-.4,.2,-.7,.5,-.9,.8c-.2,.3,-.3,.6,-.3,1c0,.7,.4,1.3,1.2,1.7c.9,.5,2,.7,3.3,.7c.7,0,1.3,-.1,1.9,-.2c.5,-.1,1,-.3,1.4,-.5c.4,-.2,.7,-.4,.9,-.7c.2,-.3,.4,-.7,.4,-1c0,-.4,-.2,-.7,-.4,-1c-.2,-.3,-.5,-.6,-.9,-.8c-.4,-.2,-.9,-.4,-1.4,-.5c-.6,-.1,-1.2,-.1,-1.9,-.1c-.7,0,-1.3,0,-1.8,.1Zm3.3,.7c.4,.1,.8,.2,1.1,.4c.3,.1,.5,.3,.7,.5c.2,.2,.3,.4,.3,.7c0,.2,-.1,.4,-.3,.6c-.2,.2,-.4,.4,-.7,.6c-.3,.1,-.7,.2,-1.1,.3c-.5,.1,-1,.1,-1.5,.1c-.5,0,-1,0,-1.4,-.1c-.5,-.1,-.8,-.2,-1.2,-.3c-.3,-.2,-.5,-.4,-.7,-.6c-.2,-.2,-.3,-.4,-.3,-.6c0,-.3,.1,-.5,.3,-.7c.2,-.2,.4,-.4,.7,-.5c.4,-.2,.7,-.3,1.2,-.4c.4,-.1,.9,-.1,1.4,-.1c.5,0,1,0,1.5,.1Zm-7.5,5.9h12.1v-.8H305v.8Zm1.7,3.6c0,.1,0,.2,0,.3v2.6q0,.1,0,.2c.1,0,.2,0,.3,0h8.7v-.7h-8.1v-1.7h7.5c.1,0,.2,0,.2,0q.1,-.1,.1,-.2v-2.6q0,-.1,-.1,-.2c0,0,-.1,0,-.2,0h-8.4v.7h7.7v1.6H307c-.1,0,-.2,0,-.3,0Zm21.4,-4H324v-2.5h4.1v2.5Zm-4.9,.8c0,0,.1,0,.2,0h5.3c.1,0,.2,0,.2,0c0,-.1,.1,-.1,.1,-.3v-6.2h-.9v2.4H324v-2.4h-.9v6.2q0,.2,.1,.3Zm8.6,1.1h.9v-4.1h1.9v-.9h-1.9v-3.2h-.9v8.2Zm-7.5,.7v.8h7.5v4h.9v-4.5c0,-.1,0,-.2,-.1,-.2c0,-.1,-.1,-.1,-.2,-.1h-8.1Zm12.2,-7.2c-.5,.8,-.8,2.1,-.8,3.8c0,1.7,.3,3,.8,3.9c.6,.8,1.4,1.2,2.3,1.2c.9,0,1.7,-.4,2.2,-1.2c.6,-.9,.9,-2.2,.9,-3.9c0,-1.7,-.3,-3,-.9,-3.8c-.5,-.9,-1.3,-1.3,-2.2,-1.3c-.9,0,-1.7,.4,-2.3,1.3Zm3.9,.7c.4,.8,.6,1.8,.6,3.1c0,1.3,-.2,2.4,-.6,3.1c-.4,.8,-.9,1.2,-1.6,1.2c-.7,0,-1.2,-.4,-1.6,-1.2c-.4,-.7,-.6,-1.8,-.6,-3.1c0,-1.3,.2,-2.3,.6,-3.1c.4,-.8,.9,-1.2,1.6,-1.2c.7,0,1.2,.4,1.6,1.2Zm4.1,11.2h.9v-7.8h2.1v-.9h-2.1v-4.9h-.9v13.6Zm4.9,-11.9c-.6,.8,-.9,2.1,-.9,3.8c0,1.7,.3,3,.9,3.9c.6,.8,1.3,1.2,2.2,1.2c1,0,1.7,-.4,2.3,-1.2c.6,-.9,.9,-2.2,.9,-3.9c0,-1.7,-.3,-3,-.9,-3.8c-.6,-.9,-1.3,-1.3,-2.3,-1.3c-.9,0,-1.6,.4,-2.2,1.3Zm3.8,.7c.4,.8,.6,1.8,.6,3.1c0,1.3,-.2,2.4,-.6,3.1c-.3,.8,-.9,1.2,-1.6,1.2c-.6,0,-1.2,-.4,-1.6,-1.2c-.4,-.7,-.6,-1.8,-.6,-3.1c0,-1.3,.2,-2.3,.6,-3.1c.4,-.8,1,-1.2,1.6,-1.2c.7,0,1.3,.4,1.6,1.2Zm4.1,11.2h1v-5.6h2v-.9h-2v-3.4h2v-.9h-2v-2.8h-1v13.6Zm10.3,-12.4h3.8v-.8h-3.8v.8Zm-1.9,2.2h7.5v-.9h-7.5v.9Zm5.4,2.7c.4,.5,.6,1,.6,1.7c0,.7,-.2,1.3,-.6,1.7c-.4,.5,-.9,.7,-1.6,.7c-.7,0,-1.2,-.2,-1.6,-.7c-.4,-.4,-.6,-1,-.6,-1.7c0,-.7,.2,-1.2,.6,-1.7c.4,-.5,.9,-.7,1.6,-.7c.7,0,1.2,.2,1.6,.7Zm-4.5,3c.1,.4,.3,.7,.6,1c.3,.3,.6,.6,1,.7c.4,.2,.8,.2,1.3,.2c.5,0,.9,0,1.3,-.2c.4,-.1,.7,-.4,1,-.7c.3,-.3,.5,-.6,.7,-1c.1,-.4,.2,-.8,.2,-1.3c0,-.5,-.1,-.9,-.2,-1.3c-.2,-.4,-.4,-.7,-.7,-1c-.3,-.3,-.6,-.5,-1,-.7c-.4,-.1,-.8,-.2,-1.3,-.2c-.5,0,-.9,.1,-1.3,.2c-.4,.2,-.7,.4,-1,.7c-.3,.3,-.5,.6,-.6,1c-.2,.4,-.3,.8,-.3,1.3c0,.5,.1,.9,.3,1.3Zm8.2,4.5h1v-7.1h2v-.8h-2v-5.7h-1v13.6Zm14.1,-8.8v-.9h-8.1v-3.8h-.9v4.4q0,.1,0,.2c.1,0,.1,.1,.3,.1h8.7Zm-10.7,2.9h12.1v-.9H378.2v.9Zm10.9,5.6v-.8h-8.3v-3.4h-.9v3.9c0,.1,0,.2,0,.3c.1,0,.2,0,.3,0h8.9Zm3.3,-12.2c-.1,0,-.1,.1,-.1,.2v8.5q0,.1,.1,.2c0,0,.1,.1,.2,.1c0,0,.1,0,.2,0c.1,0,.3,0,.5,0c.2,0,.4,0,.6,-.1c.3,0,.6,0,.9,0c.3,0,.6,0,.8,0c.3,-.1,.6,-.1,.9,-.1c.3,0,.5,-.1,.7,-.1c.3,0,.4,0,.6,-.1v-.8c-.2,0,-.4,0,-.6,.1c-.3,0,-.5,0,-.8,0c-.2,.1,-.5,.1,-.8,.1c-.2,0,-.4,0,-.6,0l-1.8,.1v-7.4h3.6v-.8h-4.2c-.1,0,-.2,0,-.2,.1Zm8.9,12.5h.9v-13.6h-.9v13.6Zm-2.7,-8.9h-2.9v.8h2.9v7.5h.9v-12.7h-.9v4.4Zm16.8,-1.5H411v-1.9h4.4v1.9Zm.9,-2.4c0,-.1,0,-.2,-.1,-.2c0,-.1,-.1,-.1,-.2,-.1h-5.6c-.1,0,-.2,0,-.2,.1c-.1,0,-.1,.1,-.1,.2v2.9c0,.1,0,.2,.1,.2c0,.1,.1,.1,.2,.1H416c.1,0,.2,0,.2,-.1c.1,0,.1,-.1,.1,-.2v-2.9Zm2.2,5.7h-3.2v.7h3.2v.6h1v-7.8h-1v6.5Zm-9.7,-.6h3.3v1.9h1v-1.9c.4,0,.8,-.1,1.3,-.1c.5,0,.9,0,1.4,-.1c.4,0,.9,0,1.3,-.1c.4,0,.7,-.1,1,-.1v-.8c-.2,0,-.5,.1,-.9,.1c-.4,.1,-.8,.1,-1.3,.1c-.5,.1,-1,.1,-1.5,.1c-.6,.1,-1.1,.1,-1.5,.1h-4.1v.8Zm2.2,2.6v.8h7.5v1.3h-7.2c-.1,0,-.2,0,-.2,0c-.1,.1,-.1,.2,-.1,.3v2.3q0,.1,.1,.2c0,0,.1,0,.2,0h8.4v-.7H412V1121h7.2c.1,0,.1,-.1,.2,-.1q0,-.1,0,-.2v-2.3c0,-.1,0,-.2,0,-.2q-.1,-.1,-.2,-.1H411Zm20.4,-3.7c.1,0,.1,-.1,.1,-.2v-3.6q0,-.1,-.1,-.2c0,0,-.1,0,-.2,0h-8.3v.7h7.6v2.6h-7.3c-.1,0,-.2,0,-.2,.1c0,0,-.1,.1,-.1,.2v3.5c0,.1,.1,.2,.1,.2c0,.1,.1,.1,.2,.1h3.6v2.8h-5.6v.8h12.2v-.8h-5.6v-2.8H432v-.8h-8.1v-2.5h7.3c.1,0,.2,0,.2,-.1Zm12.9,1.5h-4v-2.5h4v2.5Zm-4.9,.8q.1,0,.3,0h5.2q.2,0,.3,0q0,-.1,0,-.3v-6.2h-.9v2.4h-4v-2.4h-.9v6.2q0,.2,0,.3Zm8.6,1.1h1v-4.1h1.8v-.9H449v-3.2h-1v8.2Zm-7.5,.7v.8h7.6v4h.9v-4.5c0,-.1,0,-.2,-.1,-.2c0,-.1,-.1,-.1,-.2,-.1h-8.2Zm15.1,-8.3c-.6,.2,-1.1,.4,-1.5,.7c-.4,.4,-.7,.7,-.9,1.2c-.2,.5,-.3,1,-.3,1.5c0,.6,.1,1.1,.3,1.6c.2,.4,.5,.8,.9,1.1c.4,.3,.9,.6,1.5,.7c.5,.2,1.2,.3,1.9,.3c.6,0,1.3,-.1,1.8,-.3c.6,-.1,1.1,-.4,1.5,-.7c.4,-.3,.7,-.7,.9,-1.1c.2,-.5,.3,-1,.3,-1.6c0,-.5,-.1,-1,-.3,-1.5c-.2,-.5,-.5,-.8,-.9,-1.2c-.4,-.3,-.9,-.5,-1.5,-.7c-.5,-.2,-1.2,-.2,-1.8,-.2c-.7,0,-1.4,0,-1.9,.2Zm3.3,.7c.4,.2,.8,.4,1.1,.6c.4,.3,.6,.6,.8,.9c.2,.4,.3,.8,.3,1.2c0,.5,-.1,.9,-.3,1.2c-.2,.4,-.4,.7,-.8,.9c-.3,.3,-.7,.5,-1.1,.6c-.4,.1,-.9,.2,-1.4,.2c-.6,0,-1.1,-.1,-1.5,-.2c-.4,-.1,-.8,-.3,-1.1,-.6c-.3,-.2,-.6,-.5,-.8,-.9c-.1,-.3,-.2,-.7,-.2,-1.2c0,-.4,.1,-.8,.2,-1.2c.2,-.3,.5,-.6,.8,-.9c.3,-.2,.7,-.4,1.1,-.6c.4,-.1,.9,-.2,1.5,-.2c.5,0,1,.1,1.4,.2Zm-7.5,10.3h12.1v-.8H451.4v.8Zm19,-5.2h-4.1v-4.9h4.1v4.9Zm.9,-.8h3v4.5h1v-10.1h-1v2.1h-3v-1.1c0,-.1,0,-.2,-.1,-.2c0,-.1,-.1,-.1,-.2,-.1h-5.3c-.1,0,-.2,0,-.2,.1c0,0,-.1,.1,-.1,.2v5.9c0,.2,.1,.2,.1,.3c0,0,.1,0,.2,0H471c.1,0,.2,0,.2,0q.1,-.1,.1,-.3v-1.3Zm3,-.8h-3v-1.9h3v1.9Zm1.3,8.5v-.8h-7.8v-3.5h-.9v4c0,.1,0,.2,.1,.3c0,0,.1,0,.2,0h8.4Zm7,-12.2c0,0,0,.1,0,.2v5q0,.1,0,.2c.1,0,.2,.1,.3,.1h2v3.2h-3v.8H484c.4,0,.8,0,1.2,0c.5,0,.9,0,1.4,-.1c.4,0,.8,-.1,1.2,-.1c.4,-.1,.8,-.1,1.1,-.2v-.8c-.5,.1,-1,.2,-1.5,.2c-.5,.1,-1.1,.1,-1.6,.1v-3.1h2.4v-.8h-4.7v-4H488v-.8h-5.1c-.1,0,-.2,0,-.3,.1Zm6.7,11.9h.9v-6.5H492v7.1h.9v-13.6H492v5.6h-1.8v-5.3h-.9v12.7Zm9.3,-12.4c-.5,.2,-1,.4,-1.4,.7c-.4,.3,-.7,.7,-.9,1.2c-.2,.4,-.3,.9,-.3,1.5c0,.6,.1,1.1,.3,1.5c.2,.5,.5,.9,.9,1.2c.4,.3,.9,.5,1.4,.7c.6,.1,1.2,.2,1.9,.2c.7,0,1.3,-.1,1.9,-.2c.6,-.2,1,-.4,1.4,-.7c.4,-.3,.8,-.7,1,-1.2c.2,-.4,.3,-.9,.3,-1.5c0,-.6,-.1,-1.1,-.3,-1.5c-.2,-.5,-.6,-.9,-1,-1.2c-.4,-.3,-.8,-.5,-1.4,-.7c-.6,-.2,-1.2,-.2,-1.9,-.2c-.7,0,-1.3,0,-1.9,.2Zm3.4,.7c.4,.2,.8,.4,1.1,.6c.3,.3,.6,.6,.8,.9c.1,.4,.2,.7,.2,1.2c0,.4,-.1,.8,-.2,1.2c-.2,.3,-.5,.6,-.8,.9c-.3,.2,-.7,.4,-1.1,.6c-.5,.1,-.9,.1,-1.5,.1c-.5,0,-1,0,-1.4,-.1c-.5,-.2,-.8,-.4,-1.2,-.6c-.3,-.3,-.5,-.6,-.7,-.9c-.2,-.4,-.3,-.8,-.3,-1.2c0,-.5,.1,-.8,.3,-1.2c.2,-.3,.4,-.6,.7,-.9c.4,-.2,.7,-.4,1.2,-.6c.4,-.1,.9,-.2,1.4,-.2c.6,0,1,.1,1.5,.2Zm-4.5,9.6h-3v.8h12.1v-.8h-3v-2.9h-.9v2.9h-4.3v-2.9h-.9v2.9Zm12.1,1.5h1.2v-1.3h-1.2v1.3Zm-.6,-11.9c-.4,.3,-.8,.5,-1.1,.9l.4,.6c.3,-.3,.6,-.5,1,-.7c.3,-.2,.7,-.3,1.1,-.3c.6,0,1.1,.2,1.4,.6c.4,.3,.6,.8,.6,1.4c0,.5,-.2,1,-.5,1.5c-.3,.4,-.6,.8,-1,1.1c-.4,.3,-.7,.7,-.9,1c-.2,.4,-.4,.9,-.4,1.4c0,.2,0,.5,.1,.7c0,.2,0,.4,0,.6h.9v-1c0,-.5,.1,-1,.3,-1.3c.2,-.3,.5,-.7,.8,-1c.4,-.3,.8,-.8,1.2,-1.3c.3,-.5,.5,-1.1,.5,-1.8c0,-.3,-.1,-.7,-.2,-1.1c-.2,-.3,-.3,-.6,-.6,-.9c-.2,-.2,-.5,-.4,-.9,-.5c-.3,-.2,-.7,-.3,-1,-.3c-.7,0,-1.2,.2,-1.7,.4Zm-237.8,35.4c0,.1,.1,.1,.2,.1c0,0,.1,0,.3,0c.2,0,.4,0,.7,0c.3,0,.7,0,1.1,0c.4,0,.8,0,1.2,-.1c.4,0,.8,0,1.2,0c.4,-.1,.8,-.1,1.2,-.2c.3,0,.7,-.1,1,-.1c.3,-.1,.6,-.1,.8,-.2v-.9c-.2,0,-.5,.1,-.8,.2c-.4,0,-.7,.1,-1.1,.1c-.4,.1,-.8,.1,-1.2,.2c-.3,0,-.7,.1,-1,.1h-2.7v-8.5h-1v9.1c0,.1,0,.2,.1,.2Zm8.3,3.7h1v-7.6h2v-.9h-2v-5.1h-1v13.6Zm6.3,-11h-1.3v1.4h1.3v-1.4Zm0,6.8h-1.3v1.4h1.3V1145Zm145.3,-3.1h-4v-2.5h4v2.5Zm-4.9,.8q.1,0,.3,0h5.3q.1,0,.2,0c0,-.1,0,-.2,0,-.3v-6.3h-.9v2.5h-4v-2.5h-.9v6.3c0,.1,0,.2,0,.3Zm8.6,1h1v-4h1.9v-.9h-1.9v-3.2h-1v8.1Zm-7.4,.8v.8h7.5v4h.9v-4.5c0,-.1,0,-.2,-.1,-.2c0,-.1,-.1,-.1,-.2,-.1h-8.1Zm15,-8.3c-.6,.2,-1.1,.4,-1.4,.7c-.5,.3,-.8,.7,-1,1.2c-.2,.4,-.3,.9,-.3,1.5c0,.6,.1,1.1,.3,1.5c.2,.5,.5,.9,1,1.2c.3,.3,.8,.5,1.4,.7c.6,.2,1.2,.3,1.9,.3c.7,0,1.3,-.1,1.8,-.3c.6,-.2,1.1,-.4,1.5,-.7c.4,-.3,.7,-.7,.9,-1.2c.2,-.4,.4,-.9,.4,-1.5c0,-.6,-.2,-1.1,-.4,-1.5c-.2,-.5,-.5,-.9,-.9,-1.2c-.4,-.3,-.9,-.5,-1.5,-.7c-.5,-.2,-1.1,-.3,-1.8,-.3c-.7,0,-1.3,.1,-1.9,.3Zm3.3,.7c.5,.1,.8,.3,1.2,.6c.3,.2,.5,.5,.7,.9c.2,.4,.3,.8,.3,1.2c0,.4,-.1,.8,-.3,1.2c-.2,.4,-.4,.7,-.7,.9c-.4,.3,-.7,.4,-1.2,.6c-.4,.1,-.9,.2,-1.4,.2c-.6,0,-1,-.1,-1.5,-.2c-.4,-.2,-.8,-.3,-1.1,-.6c-.3,-.2,-.6,-.5,-.8,-.9c-.1,-.4,-.2,-.8,-.2,-1.2c0,-.4,.1,-.8,.2,-1.2c.2,-.4,.5,-.7,.8,-.9c.3,-.3,.7,-.5,1.1,-.6c.5,-.1,.9,-.2,1.5,-.2c.5,0,1,.1,1.4,.2Zm-7.5,10.3h12.1v-.8H438.2v.8Zm16,-9.1c0,1.8,-.3,3.3,-.8,4.5c-.5,1.2,-1.4,2.3,-2.6,3.1l.9,.7c.8,-.6,1.4,-1.3,1.9,-2.1c.5,-.8,.8,-1.6,1,-2.5c.2,.8,.6,1.5,1,2.2c.5,.7,1,1.3,1.7,1.8l.8,-.7c-1,-.6,-1.7,-1.4,-2.2,-2.5c-.5,-1.1,-.7,-2.4,-.7,-4.1v-2.2h-1v1.8Zm7.3,11.1h.9v-13.6h-.9v13.6Zm-2.6,-9.3h-2.4v.9h2.4v7.7h1v-12.7h-1v4.1Zm9.3,-3.7c-.5,.1,-1,.4,-1.4,.7c-.4,.3,-.7,.7,-.9,1.1c-.3,.5,-.4,1,-.4,1.6c0,.5,.1,1,.4,1.5c.2,.5,.5,.8,.9,1.1c.4,.4,.9,.6,1.4,.8c.6,.1,1.2,.2,1.9,.2c.7,0,1.3,-.1,1.9,-.2c.5,-.2,1,-.4,1.4,-.8c.4,-.3,.7,-.6,1,-1.1c.2,-.5,.3,-1,.3,-1.5c0,-.6,-.1,-1.1,-.3,-1.6c-.3,-.4,-.6,-.8,-1,-1.1c-.4,-.3,-.9,-.6,-1.4,-.7c-.6,-.2,-1.2,-.3,-1.9,-.3c-.7,0,-1.3,.1,-1.9,.3Zm3.4,.7c.4,.1,.8,.3,1.1,.6c.3,.2,.6,.5,.8,.9c.1,.3,.2,.7,.2,1.2c0,.4,-.1,.8,-.2,1.2c-.2,.3,-.5,.6,-.8,.9c-.3,.2,-.7,.4,-1.1,.5c-.5,.2,-1,.2,-1.5,.2c-.5,0,-1,0,-1.4,-.2c-.5,-.1,-.9,-.3,-1.2,-.5c-.3,-.3,-.5,-.6,-.7,-.9c-.2,-.4,-.3,-.8,-.3,-1.2c0,-.5,.1,-.9,.3,-1.2c.2,-.4,.4,-.7,.7,-.9c.3,-.3,.7,-.5,1.2,-.6c.4,-.1,.9,-.2,1.4,-.2c.5,0,1,.1,1.5,.2Zm-4.5,9.6h-3v.8h12.1v-.8h-3v-3h-.9v3H468v-3h-.9v3Zm10.9,1.4h1.3v-1.4H478v1.4Z" class="gd_144"/>
<image preserveAspectRatio="none" x="191" y="1102" width="65" height="65" xlink:href="img/5.jpg"/>
<path d="M671.2,1212.4c0,0,-4.3,0,-4.3,4.3v10.9c0,0,0,4.3,4.3,4.3h30.4c0,0,4.3,0,4.3,-4.3v-10.9c0,0,0,-4.3,-4.3,-4.3Z" class="g5_144"/>
<path d="M658.1,1204.9v34.9m1.3,.9H829.8m1,-1.3v-34.9m-1.4,-1H659" class="g6_144"/>
<path d="M658.1,1240.2v.5h.5m171.6,0h.6v-.5m0,-36.1v-.6h-.6m-171.6,0h-.5v.6" class="g7_144"/>
<path d="M211.7,1036.6c0,0,-13,0,-13,13v21.6c0,0,0,13,13,13H833.3c0,0,13,0,13,-13v-21.6c0,0,0,-13,-13,-13Z" class="gb_144"/>
<image clip-path="url(#c4_144)" preserveAspectRatio="none" x="155" y="1007" width="75" height="76" xlink:href="img/6.png"/>
<path d="M206.5,1076.9c0,0,-26.9,11.3,-51.1,-12.8c0,0,15.1,25.3,49.3,24c0,0,24.7,.3,20.2,-10.1c0,0,1.2,-4.5,-18.4,-1.1Z" class="gb_144"/>
<path d="M131.7,109.5v39l11.7,10.2V136.5Z" class="gf_144"/>
<path d="M131.7,109.5v39H829.5c0,0,16.8,0,16.8,-16.8v-5.4c0,0,0,-16.8,-16.8,-16.8Z" class="g5_144"/>
<path d="M768.8,131c0,0,-.5,-10,8.6,-9.4c0,0,6.7,-.3,6.6,9.5m-15.3,-1.5v6.5c0,0,-3.3,.3,-3.9,-3c0,0,-.1,-3.8,3.9,-3.5Zm15.4,0v6.5c0,0,3.3,.3,3.9,-3c0,0,.1,-3.8,-3.9,-3.5Z" class="gg_144"/>
<path d="M147.4,140.8h61v-32h-61v32Z" class="gh_144"/>
<path d="M147.4,143.1h61v-2.3h-61v2.3Z" class="gh_144"/>
<path d="M171.8,106.2H152.1v31.5h25.8V112.3c0,-3.4,-2.7,-6.1,-6.1,-6.1Z" class="g1_144"/>
<path d="M171.8,106.2v-.5H152.1c-.1,0,-.3,.1,-.4,.2c-.1,.1,-.1,.2,-.1,.3v31.5c0,.1,0,.3,.1,.4c.1,.1,.3,.1,.4,.1h25.8c.1,0,.2,0,.3,-.1c.1,-.1,.2,-.3,.2,-.4V112.3c0,-3.7,-2.9,-6.6,-6.6,-6.6v1c1.6,0,2.9,.7,3.9,1.7c1,1,1.6,2.3,1.6,3.9v24.9H152.6V106.7h19.2Z" class="gi_144"/>
<path d="M152.1,131.7v6h25.8c0,-3.3,-2.7,-6,-6.1,-6Z" class="g1_144"/>
<path d="M152.1,131.7h-.5v6c0,.1,0,.3,.1,.4c.1,.1,.3,.1,.4,.1h25.8c.1,0,.2,0,.3,-.1c.1,-.1,.2,-.3,.2,-.4c0,-3.6,-3,-6.6,-6.6,-6.6H152.1c-.1,0,-.3,.1,-.4,.2c-.1,.1,-.1,.2,-.1,.4h.5v.5h19.7c1.6,0,2.9,.6,3.9,1.6c1,1,1.6,2.4,1.6,3.9h.6v-.5H152.6v-5.5h-.5v.5Z" class="gi_144"/>
<path d="M155.6,110.9h17.2m-17.2,2.8h17.2m-17.2,2.9h17.2m-17.2,2.9h17.2m-17.2,2.8h17.2m-17.2,2.9h17.2M155.6,128h17.2" class="gj_144"/>
<path d="M171.8,132.2H152.6v5h24.7c-.1,-1.3,-.7,-2.5,-1.6,-3.4c-1,-1,-2.3,-1.6,-3.9,-1.6Z" class="gk_144"/>
<path d="M152.6,132.2h19.2c1.6,0,2.9,.6,3.9,1.6c.9,.9,1.5,2.1,1.6,3.4H152.6Zm19.2,-.5H152.1v6h25.2v-2.5c-.9,-2.1,-3,-3.5,-5.5,-3.5Z" class="gl_144"/>
<path d="M183.9,106.2h19.7v31.5H177.9V112.3c0,-3.4,2.7,-6.1,6,-6.1Z" class="g1_144"/>
<path d="M183.9,106.2v.5h19.2v30.5H178.4V112.3c0,-1.6,.6,-2.9,1.6,-3.9c1,-1,2.4,-1.7,3.9,-1.7v-1c-3.6,0,-6.6,2.9,-6.6,6.6v25.4c0,.1,.1,.3,.2,.4c.1,.1,.2,.1,.4,.1h25.7c.2,0,.3,0,.4,-.1c.1,-.1,.1,-.3,.1,-.4V106.2c0,-.1,0,-.2,-.1,-.3c-.1,-.1,-.2,-.2,-.4,-.2H183.9Z" class="gi_144"/>
<path d="M203.6,131.7v6H177.9c0,-3.3,2.7,-6,6,-6Z" class="g1_144"/>
<path d="M203.6,131.7h-.5v5.5H177.9v.5h.5c0,-1.5,.6,-2.9,1.6,-3.9c1,-1,2.4,-1.6,3.9,-1.6h19.7v-.5h-.5h.5v-.6H183.9c-3.6,0,-6.6,3,-6.6,6.6c0,.1,.1,.3,.2,.4c.1,.1,.2,.1,.4,.1h25.7c.2,0,.3,0,.4,-.1c.1,-.1,.1,-.3,.1,-.4v-6c0,-.2,0,-.3,-.1,-.4c-.1,-.1,-.2,-.2,-.4,-.2Z" class="gi_144"/>
<path d="M200.1,110.9H182.9m17.2,2.8H182.9m17.2,2.9H182.9m17.2,2.9H182.9m17.2,2.8H182.9m17.2,2.9H182.9m17.2,2.8H182.9" class="gj_144"/>
<path clip-path="url(#c5_144)" d="M178.4,137.2h24.7v-5H178.4v5Z" class="gk_144"/>
<path clip-path="url(#c6_144)" d="M178.4,137.2c.1,-1.3,.7,-2.5,1.6,-3.4c1,-1,2.4,-1.6,3.9,-1.6h19.2v5Zm25.2,-5.5H183.9c-3.3,0,-6,2.7,-6,6h25.7v-6h-.5h.5Z" class="gl_144"/>
<path d="M177.9,108.8v34.3" class="gj_144"/>
<path d="M195.5,145.5h3.3V134.7h-3.3v10.8Z" class="gm_144"/>
<path d="M132.5,625.5h713V450.1h-713V625.5Z" class="gn_144"/>
<path d="M132.5,454.7V623.2m4.5,2.3H843.2m2.3,-4.6V452.4m-4.6,-2.3H134.7" class="go_144"/>
<path d="M132.5,625.5v0m713,0v0m0,-175.4v0m-713,0v0" class="gp_144"/>
<path d="M131.7,453.3V424.7c0,0,0,-8.7,8.6,-8.7H837.6c0,0,8.7,0,8.7,8.7v29.2Z" class="gq_144"/>
<path d="M153.3,476.8c0,0,4.8,5.5,6.1,12.3c0,0,6.7,-11.4,11.7,-13.9c0,0,-9.3,4.9,-11.1,8.1c0,0,-1.9,-4.3,-6.7,-6.5Z" class="gr_144"/>
<path d="M161.8,444.9l2.9,3l8.2,-8.1l-3,-3Z" class="g1_144"/>
<path d="M164.7,448.9v0c.3,0,.6,-.1,.7,-.3l8.2,-8.1c.2,-.2,.3,-.5,.3,-.7c0,-.3,-.1,-.6,-.3,-.7l-3,-3c-.4,-.4,-1,-.4,-1.4,0l-8.1,8.1c-.4,.4,-.4,1,0,1.4l2.9,3c.2,.2,.5,.3,.7,.3m6.8,-9.1l-6.8,6.7l-1.5,-1.6l6.7,-6.7Z" class="gs_144"/>
<path d="M168.3,418c-6.5,6.5,-6.5,17.1,0,23.6c6.6,6.6,17.2,6.6,23.7,0c6.5,-6.5,6.5,-17.1,0,-23.6c-6.5,-6.6,-17.1,-6.6,-23.7,0Z" class="gt_144"/>
<path d="M180.2,447.5c4.7,0,9.2,-1.8,12.5,-5.2c6.9,-6.9,6.9,-18.1,0,-25c-3.3,-3.4,-7.8,-5.2,-12.5,-5.2c-4.8,0,-9.2,1.8,-12.6,5.2c-6.9,6.9,-6.9,18.1,0,25c3.4,3.4,7.8,5.2,12.6,5.2m0,-33.5c4.2,0,8.1,1.7,11.1,4.7c6.2,6.1,6.2,16.1,0,22.2c-3,3,-6.9,4.6,-11.1,4.6c-4.2,0,-8.2,-1.6,-11.2,-4.6c-6.1,-6.1,-6.1,-16.1,0,-22.2c3,-3,7,-4.7,11.2,-4.7Z" class="gs_144"/>
<path d="M154.3,450.1l5.3,5.2l8.1,-8.1l-5.2,-5.3Z" class="gu_144"/>
<path d="M159.6,456.3c.2,0,.5,-.1,.7,-.3l8.1,-8.2c.2,-.1,.3,-.4,.3,-.6c0,-.3,-.1,-.6,-.3,-.7l-5.2,-5.3c-.4,-.4,-1,-.4,-1.4,0l-8.2,8.2c-.4,.4,-.4,1,0,1.4l5.3,5.2c.2,.2,.4,.3,.7,.3m6.7,-9.1l-6.7,6.7l-3.9,-3.8l6.8,-6.8Z" class="gs_144"/>
<path d="M168.1,429.9c0,6.6,5.4,11.9,12,11.9c6.6,0,11.9,-5.3,11.9,-11.9c0,-6.6,-5.3,-12,-11.9,-12c-6.6,0,-12,5.4,-12,12Z" class="g1_144"/>
<path d="M180.1,442.6c7,0,12.7,-5.7,12.7,-12.7c0,-7,-5.7,-12.7,-12.7,-12.7c-7.1,0,-12.8,5.7,-12.8,12.7c0,7,5.7,12.7,12.8,12.7m0,-23.9c6.1,0,11.1,5,11.1,11.2c0,6.1,-5,11.2,-11.1,11.2c-6.2,0,-11.2,-5.1,-11.2,-11.2c0,-6.2,5,-11.2,11.2,-11.2Z" class="gs_144"/>
<path d="M32.1,45.1H9.2m958.3,0h22.9M32.1,1331.3H9.2m958.3,0h22.9M45.1,32.1V9.2m0,1335.1v22.9M954.5,32.1V9.2m0,1335.1v22.9" class="gv_144"/>
<path d="M32.1,45.1H9.2m958.3,0h22.9M32.1,1331.3H9.2m958.3,0h22.9M45.1,32.1V9.2m0,1335.1v22.9M954.5,32.1V9.2m0,1335.1v22.9" class="gw_144"/>
<path d="M27.5,32.1H0m972.1,0h27.5M27.5,1344.3H0m972.1,0h27.5M32.1,27.5V0m0,1348.9v27.5M967.5,27.5V0m0,1348.9v27.5" class="gv_144"/>
<path d="M27.5,32.1H0m972.1,0h27.5M27.5,1344.3H0m972.1,0h27.5M32.1,27.5V0m0,1348.9v27.5M967.5,27.5V0m0,1348.9v27.5" class="gw_144"/>
</svg>