<?xml version="1.0" encoding="UTF-8" standalone="no"?>
<!DOCTYPE svg PUBLIC "-//W3C//DTD SVG 1.1//EN"
"http://www.w3.org/Graphics/SVG/1.1/DTD/svg11.dtd">
<svg viewBox="0 0 999 1376" version="1.1" xmlns="http://www.w3.org/2000/svg" xmlns:xlink="http://www.w3.org/1999/xlink">
<defs>
<clipPath id="c0_135"><path d="M32.1,1344.3V32.1H967.5V1344.3Z"/></clipPath>
<clipPath id="c1_135"><path d="M214.4,955.9v-181h45.5l3.5,11.9l3,8.8l-4.4,92l3.5,5.1l.9,14.7v48.5Z"/></clipPath>
<clipPath id="c2_135"><path d="M214.4,848.6V795.3h51.9l.1,.3l-2.5,53Zm0,-66v-7.7h45.5l2.3,7.7Z"/></clipPath>
<clipPath id="c3_135"><path d="M214.4,795.3V782.6h47.8l1.2,4.2l2.9,8.5Z"/></clipPath>
<clipPath id="c4_135"><path d="M214.4,948.2V896.3h51.3l.7,11.1v40.8Zm0,-64.6V873.3h48.3l-.5,10.3Z"/></clipPath>
<clipPath id="c5_135"><path d="M214.4,896.3V883.6h47.8l-.2,4l.5,.6c.4,2.2,1.5,4.2,3.1,6.1l.1,2Z"/></clipPath>
<clipPath id="c6_135"><path d="M265.5,893.4c-.9,-1.2,-1.6,-2.5,-2.1,-3.8l2.1,3.1v.7Z"/></clipPath>
<clipPath id="c7_135"><path d="M265.6,894.3c-1.6,-1.9,-2.7,-3.9,-3.1,-6.1l.9,1.4c.5,1.3,1.2,2.6,2.1,3.8l.1,.9Z"/></clipPath>
<clipPath id="c8_135"><path d="M536.6,955.9v-181h45.5l3.5,11.9l3,8.8l-4.4,92l3.5,5.1l.9,14.7v48.5Z"/></clipPath>
<clipPath id="c9_135"><path d="M536.6,848.6V795.3h51.9l.1,.3l-2.5,53Zm0,-66v-7.7h45.5l2.3,7.7Z"/></clipPath>
<clipPath id="ca_135"><path d="M536.6,795.3V782.6h47.8l1.2,4.2l2.9,8.5Z"/></clipPath>
<clipPath id="cb_135"><path d="M536.6,948.2V896.3h51.3l.7,11.1v40.8Zm0,-64.6V873.3h48.3l-.5,10.3Z"/></clipPath>
<clipPath id="cc_135"><path d="M536.6,896.3V883.6h47.8l-.2,4l.5,.6c.4,2.2,1.5,4.2,3.1,6.1l.1,2Z"/></clipPath>
<clipPath id="cd_135"><path d="M587.8,893.4c-1,-1.2,-1.7,-2.5,-2.2,-3.8l2.1,3.1l.1,.7Z"/></clipPath>
<clipPath id="ce_135"><path d="M587.8,894.3c-1.6,-1.9,-2.7,-3.9,-3.1,-6.1l.9,1.4c.5,1.3,1.2,2.6,2.2,3.8v.9Z"/></clipPath>
<clipPath id="cf_135"><path d="M287.1,736.6V660.3h43.5l9.5,11.9l4.3,9.7v54.7Z"/></clipPath>
<clipPath id="cg_135"><path d="M207.9,555.6l-6.5,-2.1L185,539.6V482.5h71.9v73.1Z"/></clipPath>
<clipPath id="ch_135"><path d="M200.1,137.2c.1,-1.3,.7,-2.5,1.6,-3.4c1,-1,2.3,-1.6,3.9,-1.6h19.2v5Z"/></clipPath>
<clipPath id="ci_135"><path d="M199.5,137.7v-6h25.8v6Z"/></clipPath>
<style type="text/css"><![CDATA[
.g0_135{
fill: #FEFCF4;
}
.g1_135{
fill: #DEF1F3;
}
.g2_135{
fill: #015AAA;
}
.g3_135{
fill: #8B9FCA;
}
.g4_135{
fill: #6D6F71;
}
.g5_135{
fill: none;
stroke: #6381B7;
stroke-width: 0.381;
stroke-dasharray: 2,1;
}
.g6_135{
fill: none;
stroke: #6381B7;
stroke-width: 0.381;
}
.g7_135{
fill: #FFF;
}
.g8_135{
fill: none;
stroke: #6381B7;
stroke-width: 0.763;
}
.g9_135{
fill: #48484A;
}
.ga_135{
fill: #F0E8F3;
}
.gb_135{
fill: #766FA6;
}
.gc_135{
fill: none;
stroke: #231F20;
stroke-width: 0.305;
stroke-miterlimit: 10;
}
.gd_135{
fill: #949698;
}
.ge_135{
fill: none;
stroke: #818385;
stroke-width: 0.458;
}
.gf_135{
fill: #FFF;
stroke: #818385;
stroke-width: 0.458;
}
.gg_135{
fill: #FCE8B0;
}
.gh_135{
fill: #25408F;
}
.gi_135{
fill: #6381B7;
}
.gj_135{
fill: none;
stroke: #231F20;
stroke-width: 1.527;
}
.gk_135{
fill: #39B4D1;
stroke: #2D2A4A;
stroke-width: 1.038;
stroke-linecap: round;
stroke-linejoin: round;
}
.gl_135{
fill: #2D2A4A;
}
.gm_135{
fill: none;
stroke: #2D2A4A;
stroke-width: 1.038;
stroke-linecap: round;
stroke-linejoin: round;
}
.gn_135{
fill: #DEDAD3;
}
.go_135{
fill: #29263F;
}
.gp_135{
fill: #E15F46;
stroke: #2D2A4A;
stroke-width: 1.038;
stroke-linecap: round;
stroke-linejoin: round;
}
.gq_135{
fill: #F0F5FA;
}
.gr_135{
fill: none;
stroke: #7CA7D8;
stroke-width: 1.527;
stroke-linecap: round;
stroke-linejoin: round;
stroke-dasharray: 0,5;
}
.gs_135{
fill: none;
stroke: #7CA7D8;
stroke-width: 1.527;
stroke-linecap: round;
stroke-linejoin: round;
}
.gt_135{
fill: #7CA7D8;
}
.gu_135{
fill: #BFD62F;
}
.gv_135{
fill: #3D3B39;
}
.gw_135{
fill: #F5CA58;
}
.gx_135{
fill: none;
stroke: #FFF;
stroke-width: 1.909;
stroke-miterlimit: 10;
}
.gy_135{
fill: none;
stroke: #000;
stroke-width: 0.381;
stroke-miterlimit: 10;
}
]]></style>
</defs>
<path clip-path="url(#c0_135)" d="M-877.3,1344.3H45.1V32.1H-877.3V1344.3Z" class="g0_135"/>
<path d="M170.7,168.5c0,0,-17.4,0,-17.4,17.3V432.7c0,0,0,17.3,17.4,17.3H850.6c0,0,17.3,0,17.3,-17.3V185.8c0,0,0,-17.3,-17.3,-17.3Z" class="g1_135"/>
<path d="M319.7,427.8v-1.5h-2v-2.7h2v-1.5h-2v-2.7h-1.4v13.7h1.4v-5.3Zm-4.1,0c-1,.3,-2.2,.5,-3.5,.5h-1.4V420h-1.6v9.8H312c1.7,-.1,2.7,-.4,3.6,-.5Zm3.5,-2.1v7.4h1.3V419.4h-1.3v4.7Z" class="g2_135"/>
<path d="M498.3,994.8c0,0,-4.4,0,-4.4,4.3v10.8c0,0,0,4.4,4.4,4.4h30.3c0,0,4.3,0,4.3,-4.4V999.1c0,0,0,-4.3,-4.3,-4.3Z" class="g3_135"/>
<path d="M831,1028.9c-.8,.2,-2,.5,-3.1,.6H826v-7.6h-.8v8.4c0,0,1,0,2.6,0c1.4,-.1,2.5,-.4,3.2,-.5Zm3.3,-.8v-.8h-1.9v-2.9h1.9v-.8h-1.9v-2.3h-.9v12.2h.9v-5.4Zm-.7,-1.4v6.8h.9v-12.2h-.9v4.6Z" class="g4_135"/>
<path d="M485.1,987.3v54.9m1.3,.9H867m1,-1.3V986.9m-1.4,-1H486" class="g5_135"/>
<path d="M485.1,1042.5v.6h.6m381.7,0h.6v-.6m0,-56v-.6h-.6m-381.7,0h-.6v.6" class="g6_135"/>
<path d="M166.7,570c0,0,-13,0,-13,13V965c0,0,0,13,13,13H854.5c0,0,13,0,13,-13V583c0,0,0,-13,-13,-13Z" class="g7_135"/>
<path d="M166.7,570c0,0,-13,0,-13,13V965c0,0,0,13,13,13H854.5c0,0,13,0,13,-13V583c0,0,0,-13,-13,-13H166.7Z" class="g8_135"/>
<path d="M196.9,665.7c0,0,-4.3,0,-4.3,4.3v14.4c0,0,0,4.4,4.1,5.8l52.4,18.2c0,0,4.1,1.4,4.1,-2.9V670c0,0,0,-4.3,-4.3,-4.3Z" class="g9_135"/>
<path d="M218.1,652.9c0,0,-13,0,-13,13v63.4c0,0,0,13,13,13H815.7c0,0,13,0,13,-13V665.9c0,0,0,-13,-13,-13Z" class="ga_135"/>
<path d="M196.9,663.6c0,0,-4.3,0,-4.3,4.3v16.9c0,0,0,4.4,4.3,4.4h34.6c0,0,4.4,0,4.4,-4.4V667.9c0,0,0,-4.3,-4.4,-4.3Z" class="gb_135"/>
<path d="M328.4,846.9H435.8M328.4,947H435.8M649.7,846.9H757.2M649.7,947H757.2" class="gc_135"/>
<g clip-path="url(#c1_135)">
<path d="M349.3,788.2h.3c0,-2.9,-1.2,-5.6,-3.3,-8c-6.5,-7.3,-21.4,-12.3,-38.8,-12.3c-11.6,0,-22.1,2.2,-29.7,5.9c-3.8,1.8,-6.9,4,-9,6.4c-2.2,2.4,-3.4,5.1,-3.4,8c0,4.1,2.6,8,6.9,11.1c4.4,3.2,10.5,5.7,17.7,7.3l.1,-.3l-.2,-.2c-2.7,2,-6.5,4.4,-9.4,4.7v.6c0,0,1.9,.3,4.6,.3c3.9,0,9.6,-.6,14.3,-3.7l-.2,-.2v.2c2.7,.3,5.5,.4,8.3,.4c11.6,0,22.1,-2.2,29.7,-5.8c3.8,-1.9,6.9,-4,9.1,-6.5c2.1,-2.4,3.3,-5.1,3.3,-7.9h-.5c0,2.7,-1.2,5.2,-3.3,7.6c-6.2,7.1,-21,12.1,-38.3,12.1c-2.8,0,-5.6,-.1,-8.2,-.4h-.2c-4.6,3,-10.1,3.6,-14,3.6c-1.3,0,-2.5,0,-3.3,-.1c-.4,-.1,-.7,-.1,-.9,-.1c-.2,-.1,-.3,-.1,-.3,-.1l-.1,.3l.1,.3c3.1,-.4,6.9,-2.8,9.6,-4.9l.5,-.3l-.6,-.1C283,804.5,276.9,802,272.7,798.9c-4.3,-3.1,-6.7,-6.8,-6.7,-10.7c0,-2.7,1.1,-5.3,3.2,-7.6c6.2,-7.1,21,-12.1,38.3,-12.1c11.5,0,21.9,2.2,29.5,5.8c3.7,1.8,6.8,3.9,8.8,6.3c2.1,2.3,3.3,4.9,3.3,7.6h.2Z" class="gd_135"/>
<path d="M346.2,886.4h.3c0,-2.8,-1.2,-5.5,-3.4,-8c-6.4,-7.2,-21.3,-12.3,-38.7,-12.3c-11.6,0,-22.1,2.3,-29.7,5.9c-3.8,1.8,-6.9,4,-9,6.4c-2.2,2.5,-3.4,5.2,-3.4,8c0,4.2,2.6,8,6.9,11.1c4.4,3.2,10.5,5.7,17.7,7.3l.1,-.2l-.2,-.3c-2.7,2.1,-6.5,4.4,-9.4,4.7v.6c0,0,1.9,.3,4.6,.3c3.9,0,9.6,-.6,14.3,-3.7l-.2,-.2v.3c2.7,.2,5.5,.4,8.3,.4c11.6,0,22.1,-2.3,29.7,-5.9c3.8,-1.8,6.9,-4,9,-6.4c2.2,-2.5,3.4,-5.2,3.4,-8h-.6c0,2.7,-1.1,5.2,-3.2,7.6c-6.2,7.1,-21,12.1,-38.3,12.1c-2.8,0,-5.6,-.1,-8.2,-.4h-.1l-.1,.1c-4.6,2.9,-10.1,3.5,-14,3.5c-1.3,0,-2.5,0,-3.3,-.1c-.4,0,-.7,-.1,-.9,-.1c-.2,0,-.3,-.1,-.3,-.1l-.1,.3l.1,.3c3.1,-.4,6.9,-2.8,9.6,-4.8l.5,-.4l-.6,-.1c-7.1,-1.6,-13.2,-4.1,-17.5,-7.2c-4.2,-3.1,-6.6,-6.8,-6.6,-10.7c0,-2.7,1.1,-5.2,3.2,-7.6c6.2,-7.1,21,-12.1,38.3,-12.1c11.5,0,21.9,2.2,29.4,5.8c3.8,1.8,6.8,3.9,8.9,6.3c2.1,2.4,3.2,4.9,3.2,7.6h.3Z" class="gd_135"/>
</g>
<image clip-path="url(#c2_135)" preserveAspectRatio="none" x="211" y="773" width="58" height="76" xlink:href="img/1.jpg"/>
<image clip-path="url(#c3_135)" preserveAspectRatio="none" x="211" y="782" width="58" height="14" xlink:href="img/2.jpg"/>
<image clip-path="url(#c4_135)" preserveAspectRatio="none" x="211" y="873" width="58" height="75" xlink:href="img/3.jpg"/>
<image clip-path="url(#c5_135)" preserveAspectRatio="none" x="211" y="883" width="57" height="14" xlink:href="img/4.jpg"/>
<image clip-path="url(#c6_135)" preserveAspectRatio="none" x="263" y="883" width="6" height="13" xlink:href="img/5.jpg"/>
<image clip-path="url(#c7_135)" preserveAspectRatio="none" x="262" y="876" width="7" height="21" xlink:href="img/6.jpg"/>
<g clip-path="url(#c8_135)">
<path d="M671.5,788.2h.3c0,-2.9,-1.2,-5.6,-3.3,-8C662,772.9,647.1,767.9,629.7,767.9c-11.6,0,-22.1,2.2,-29.7,5.9c-3.8,1.8,-6.9,4,-9,6.4c-2.2,2.4,-3.4,5.1,-3.4,8c0,4.1,2.6,8,6.9,11.1c4.4,3.2,10.5,5.7,17.7,7.3l.1,-.3l-.2,-.2c-2.7,2,-6.5,4.4,-9.4,4.7v.6c0,0,1.9,.3,4.6,.3c3.9,0,9.6,-.6,14.3,-3.7l-.1,-.2l-.1,.2c2.7,.3,5.5,.4,8.3,.4c11.6,0,22.1,-2.2,29.7,-5.8c3.8,-1.9,6.9,-4,9.1,-6.5c2.1,-2.4,3.3,-5.1,3.3,-7.9h-.5c0,2.7,-1.2,5.2,-3.3,7.6c-6.2,7.1,-21,12.1,-38.3,12.1c-2.8,0,-5.6,-.1,-8.2,-.4h-.2c-4.6,3,-10.1,3.6,-14,3.6c-1.3,0,-2.5,0,-3.3,-.1c-.4,-.1,-.7,-.1,-.9,-.1c-.2,-.1,-.3,-.1,-.3,-.1l-.1,.3l.1,.3c3.1,-.4,6.9,-2.8,9.7,-4.9l.4,-.3l-.6,-.1c-7.1,-1.6,-13.2,-4.1,-17.4,-7.2c-4.3,-3.1,-6.7,-6.8,-6.7,-10.7c0,-2.7,1.1,-5.3,3.2,-7.6c6.2,-7.1,21.1,-12.1,38.3,-12.1c11.5,0,22,2.2,29.5,5.8c3.7,1.8,6.8,3.9,8.8,6.3c2.1,2.3,3.3,4.9,3.3,7.6h.2Z" class="gd_135"/>
<path d="M668.4,886.4h.3c0,-2.8,-1.2,-5.5,-3.4,-8C658.9,871.2,644,866.1,626.6,866.1c-11.6,0,-22.1,2.3,-29.7,5.9c-3.8,1.8,-6.9,4,-9,6.4c-2.2,2.5,-3.4,5.2,-3.4,8c0,4.2,2.6,8,6.9,11.1c4.4,3.2,10.5,5.7,17.7,7.3l.1,-.2l-.2,-.3c-2.7,2.1,-6.5,4.4,-9.4,4.7v.6c0,0,1.9,.3,4.6,.3c3.9,0,9.6,-.6,14.3,-3.7l-.2,-.2v.3c2.7,.2,5.5,.4,8.3,.4c11.6,0,22.1,-2.3,29.7,-5.9c3.8,-1.8,6.9,-4,9,-6.4c2.2,-2.5,3.4,-5.2,3.4,-8h-.6c0,2.7,-1.1,5.2,-3.2,7.6c-6.2,7.1,-21,12.1,-38.3,12.1c-2.8,0,-5.6,-.1,-8.2,-.4h-.1l-.1,.1c-4.6,2.9,-10.1,3.5,-14,3.5c-1.3,0,-2.5,0,-3.3,-.1c-.4,0,-.7,-.1,-.9,-.1c-.2,0,-.3,-.1,-.3,-.1l-.1,.3l.1,.3c3.1,-.4,6.9,-2.8,9.6,-4.8l.5,-.4l-.6,-.1c-7.1,-1.6,-13.2,-4.1,-17.5,-7.2c-4.2,-3.1,-6.6,-6.8,-6.6,-10.7c0,-2.7,1.1,-5.2,3.2,-7.6c6.2,-7.1,21,-12.1,38.3,-12.1c11.5,0,21.9,2.2,29.5,5.8c3.7,1.8,6.7,3.9,8.8,6.3c2.1,2.4,3.2,4.9,3.2,7.6h.3Z" class="gd_135"/>
</g>
<image clip-path="url(#c9_135)" preserveAspectRatio="none" x="534" y="773" width="57" height="76" xlink:href="img/7.jpg"/>
<image clip-path="url(#ca_135)" preserveAspectRatio="none" x="534" y="782" width="57" height="14" xlink:href="img/8.jpg"/>
<image clip-path="url(#cb_135)" preserveAspectRatio="none" x="534" y="873" width="57" height="75" xlink:href="img/9.jpg"/>
<image clip-path="url(#cc_135)" preserveAspectRatio="none" x="534" y="883" width="56" height="14" xlink:href="img/10.jpg"/>
<image clip-path="url(#cd_135)" preserveAspectRatio="none" x="585" y="883" width="6" height="13" xlink:href="img/11.jpg"/>
<image clip-path="url(#ce_135)" preserveAspectRatio="none" x="584" y="876" width="7" height="21" xlink:href="img/12.jpg"/>
<path d="M490.4,700.5H615.9" class="gc_135"/>
<image clip-path="url(#cf_135)" preserveAspectRatio="none" x="285" y="659" width="61" height="79" xlink:href="img/13.jpg"/>
<path d="M376.4,702.8c21.4,0,38.7,-9.6,38.7,-21.4C415.1,669.5,397.8,660,376.4,660c-21.4,0,-38.8,9.5,-38.8,21.4c0,11.8,17.4,21.4,38.8,21.4Z" class="g7_135"/>
<path d="M376.4,702.8c21.4,0,38.7,-9.6,38.7,-21.4C415.1,669.5,397.8,660,376.4,660c-21.4,0,-38.8,9.5,-38.8,21.4c0,11.8,17.4,21.4,38.8,21.4Z" class="ge_135"/>
<path d="M354.2,698.3c0,0,-.8,3,-8.5,5.4c0,0,8.2,2.2,23.6,-3" class="gf_135"/>
<path d="M302.8,805.4c24.9,0,45.2,-10.6,45.2,-23.6c0,-13,-20.3,-23.6,-45.2,-23.6c-25,0,-45.3,10.6,-45.3,23.6c0,13,20.3,23.6,45.3,23.6Z" class="g7_135"/>
<path d="M302.8,805.4c24.9,0,45.2,-10.6,45.2,-23.6c0,-13,-20.3,-23.6,-45.2,-23.6c-25,0,-45.3,10.6,-45.3,23.6c0,13,20.3,23.6,45.3,23.6Z" class="ge_135"/>
<path d="M280.6,800.8c0,0,-.8,3.1,-8.5,5.4c0,0,8.1,2.3,23.6,-2.9" class="gf_135"/>
<path d="M627.1,805.4c25,0,45.3,-10.6,45.3,-23.6c0,-13,-20.3,-23.6,-45.3,-23.6c-25,0,-45.2,10.6,-45.2,23.6c0,13,20.2,23.6,45.2,23.6Z" class="g7_135"/>
<path d="M627.1,805.4c25,0,45.3,-10.6,45.3,-23.6c0,-13,-20.3,-23.6,-45.3,-23.6c-25,0,-45.2,10.6,-45.2,23.6c0,13,20.2,23.6,45.2,23.6Z" class="ge_135"/>
<path d="M604.9,800.8c0,0,-.7,3.1,-8.4,5.4c0,0,8.1,2.3,23.6,-2.9" class="gf_135"/>
<path d="M627.1,911.5c25,0,45.3,-10.6,45.3,-23.6c0,-13,-20.3,-23.6,-45.3,-23.6c-25,0,-45.2,10.6,-45.2,23.6c0,13,20.2,23.6,45.2,23.6Z" class="g7_135"/>
<path d="M627.1,911.5c25,0,45.3,-10.6,45.3,-23.6c0,-13,-20.3,-23.6,-45.3,-23.6c-25,0,-45.2,10.6,-45.2,23.6c0,13,20.2,23.6,45.2,23.6Z" class="ge_135"/>
<path d="M604.9,906.9c0,0,-.7,3.1,-8.4,5.5c0,0,8.1,2.2,23.6,-3" class="gf_135"/>
<path d="M302.8,911.5c24.9,0,45.2,-10.6,45.2,-23.6c0,-13,-20.3,-23.6,-45.2,-23.6c-25,0,-45.3,10.6,-45.3,23.6c0,13,20.3,23.6,45.3,23.6Z" class="g7_135"/>
<path d="M302.8,911.5c24.9,0,45.2,-10.6,45.2,-23.6c0,-13,-20.3,-23.6,-45.2,-23.6c-25,0,-45.3,10.6,-45.3,23.6c0,13,20.3,23.6,45.3,23.6Z" class="ge_135"/>
<path d="M280.6,906.9c0,0,-.8,3.1,-8.5,5.5c0,0,8.1,2.2,23.6,-3" class="gf_135"/>
<path d="M195.8,644.4H832.4V610.8H195.8v33.6Z" class="g7_135"/>
<path d="M240.5,510.6c0,0,-13,0,-13,13v21.7c0,0,0,13,13,13H855.2c0,0,13,0,13,-13V523.6c0,0,0,-13,-13,-13Z" class="gg_135"/>
<image clip-path="url(#cg_135)" preserveAspectRatio="none" x="183" y="481" width="75" height="76" xlink:href="img/14.png"/>
<path d="M235.3,550.9c0,0,-26.9,11.3,-51.1,-12.8c0,0,15.1,25.4,49.3,24c0,0,24.7,.3,20.2,-10.1c0,0,1.2,-4.5,-18.4,-1.1Z" class="gg_135"/>
<path d="M153.3,109.5v39L165,158.7V136.5Z" class="gh_135"/>
<path d="M153.3,109.5v39H851.1c0,0,16.8,0,16.8,-16.8v-5.4c0,0,0,-16.8,-16.8,-16.8Z" class="gi_135"/>
<path d="M790.4,131c0,0,-.5,-10,8.6,-9.4c0,0,6.8,-.3,6.7,9.5m-15.3,-1.5v6.5c0,0,-3.4,.3,-3.9,-3c0,0,-.1,-3.8,3.9,-3.5Zm15.3,0v6.5c0,0,3.4,.3,4,-3c0,0,0,-3.8,-4,-3.5Z" class="gj_135"/>
<path d="M169,140.8h61v-32H169v32Z" class="gk_135"/>
<path d="M169,143.1h61v-2.3H169v2.3Z" class="gk_135"/>
<path d="M193.5,106.2H173.8v31.5h25.7V112.3c0,-3.4,-2.7,-6.1,-6,-6.1Z" class="g7_135"/>
<path d="M193.5,106.2v-.5H173.8c-.2,0,-.3,.1,-.4,.2c-.1,.1,-.2,.2,-.2,.3v31.5c0,.1,.1,.3,.2,.4c.1,.1,.2,.1,.4,.1h25.7c.2,0,.3,0,.4,-.1c.1,-.1,.1,-.3,.1,-.4V112.3c0,-3.7,-2.9,-6.6,-6.5,-6.6v1c1.5,0,2.9,.7,3.9,1.7c1,1,1.6,2.3,1.6,3.9v24.9H174.3V106.7h19.2Z" class="gl_135"/>
<path d="M173.8,131.7v6h25.7c0,-3.3,-2.7,-6,-6,-6Z" class="g7_135"/>
<path d="M173.8,131.7h-.6v6c0,.1,.1,.3,.2,.4c.1,.1,.2,.1,.4,.1h25.7c.2,0,.3,0,.4,-.1c.1,-.1,.1,-.3,.1,-.4c0,-3.6,-2.9,-6.6,-6.5,-6.6H173.8c-.2,0,-.3,.1,-.4,.2c-.1,.1,-.2,.2,-.2,.4h.6v.5h19.7c1.5,0,2.9,.6,3.9,1.6c1,1,1.6,2.4,1.6,3.9h.5v-.5H174.3v-5.5h-.5v.5Z" class="gl_135"/>
<path d="M177.3,110.9h17.2m-17.2,2.8h17.2m-17.2,2.9h17.2m-17.2,2.9h17.2m-17.2,2.8h17.2m-17.2,2.9h17.2M177.3,128h17.2" class="gm_135"/>
<path d="M193.5,132.2H174.3v5H199c-.1,-1.3,-.7,-2.5,-1.6,-3.4c-1,-1,-2.4,-1.6,-3.9,-1.6Z" class="gn_135"/>
<path d="M174.3,132.2h19.2c1.5,0,2.9,.6,3.9,1.6c.9,.9,1.5,2.1,1.6,3.4H174.3Zm19.2,-.5H173.8v6H199v-2.5c-.9,-2.1,-3.1,-3.5,-5.5,-3.5Z" class="go_135"/>
<path d="M205.6,106.2h19.7v31.5H199.5V112.3c0,-3.4,2.7,-6.1,6.1,-6.1Z" class="g7_135"/>
<path d="M205.6,106.2v.5h19.2v30.5H200V112.3c0,-1.6,.7,-2.9,1.7,-3.9c1,-1,2.3,-1.7,3.9,-1.7v-1c-3.7,0,-6.6,2.9,-6.6,6.6v25.4c0,.1,.1,.3,.2,.4c0,.1,.2,.1,.3,.1h25.8c.1,0,.2,0,.3,-.1c.1,-.1,.2,-.3,.2,-.4V106.2c0,-.1,-.1,-.2,-.2,-.3c-.1,-.1,-.2,-.2,-.3,-.2H205.6Z" class="gl_135"/>
<path d="M225.3,131.7v6H199.5c0,-3.3,2.7,-6,6.1,-6Z" class="g7_135"/>
<path d="M225.3,131.7h-.5v5.5H199.5v.5h.5c0,-1.5,.7,-2.9,1.7,-3.9c1,-1,2.3,-1.6,3.9,-1.6h19.7v-.5h-.5h.5v-.6H205.6c-3.7,0,-6.6,3,-6.6,6.6c0,.1,.1,.3,.2,.4c0,.1,.2,.1,.3,.1h25.8c.1,0,.2,0,.3,-.1c.1,-.1,.2,-.3,.2,-.4v-6c0,-.2,-.1,-.3,-.2,-.4c-.1,-.1,-.2,-.2,-.3,-.2Z" class="gl_135"/>
<path d="M221.8,110.9H204.6m17.2,2.8H204.6m17.2,2.9H204.6m17.2,2.9H204.6m17.2,2.8H204.6m17.2,2.9H204.6m17.2,2.8H204.6" class="gm_135"/>
<path clip-path="url(#ch_135)" d="M200.1,137.2h24.7v-5H200.1v5Z" class="gn_135"/>
<path clip-path="url(#ci_135)" d="M200.1,137.2c.1,-1.3,.7,-2.5,1.6,-3.4c1,-1,2.3,-1.6,3.9,-1.6h19.2v5Zm25.2,-5.5H205.6c-3.4,0,-6.1,2.7,-6.1,6h25.8v-6h-.5h.5Z" class="go_135"/>
<path d="M199.5,108.8v34.3" class="gm_135"/>
<path d="M217.2,145.5h3.3V134.7h-3.3v10.8Z" class="gp_135"/>
<path d="M154.4,1240.1h713V1117.2h-713v122.9Z" class="gq_135"/>
<path d="M154.4,1121.7v116.1m4.5,2.3H865.1m2.3,-4.6v-116m-4.6,-2.3H156.6" class="gr_135"/>
<path d="M154.4,1240.1v0m713,0v0m0,-122.9v0m-713,0v0" class="gs_135"/>
<path d="M153.6,1120.4v-28.6c0,0,0,-8.7,8.7,-8.7H859.5c0,0,8.7,0,8.7,8.7V1121Z" class="gt_135"/>
<path d="M195.7,1087.2c3.4,0,6.1,-2.7,6.1,-6.1c0,-3.3,-2.7,-6.1,-6.1,-6.1c-3.3,0,-6,2.8,-6,6.1c0,3.4,2.7,6.1,6,6.1Z" class="gu_135"/>
<path d="M195.7,1089.1c4.5,0,8.1,-3.6,8.1,-8c0,-4.4,-3.6,-8,-8.1,-8c-4.4,0,-8,3.6,-8,8c0,4.4,3.6,8,8,8m0,-14.1c3.4,0,6.1,2.8,6.1,6.1c0,3.4,-2.7,6.1,-6.1,6.1c-3.3,0,-6,-2.7,-6,-6.1c0,-3.3,2.7,-6.1,6,-6.1Z" class="gv_135"/>
<path d="M181.1,1103.2h29.3v-3.7c0,-4.4,-3.6,-8,-8,-8H189.1c-4.4,0,-8,3.6,-8,8Z" class="gu_135"/>
<path d="M172.8,1108.6h45.9v-3.4H172.8v3.4Z" class="g7_135"/>
<path d="M219.6,1103.2H217v-11.5c0,-.2,-.1,-.5,-.3,-.7l-2.6,-2.6c.3,-.5,.5,-1.1,.5,-1.7c0,-2,-1.7,-3.7,-3.6,-3.7c-2,0,-3.7,1.7,-3.7,3.7c0,1.9,1.7,3.6,3.7,3.6c.6,0,1.2,-.2,1.7,-.5l2.3,2.3v11.1h-2.7v-3.7c0,-5.5,-4.4,-9.9,-9.9,-9.9H189.1c-5.5,0,-9.9,4.4,-9.9,9.9v3.7h-7.3c-.6,0,-1,.5,-1,1v5.3c0,.6,.4,1,1,1h2.6v11.3c0,.5,.5,1,1,1H216c.5,0,1,-.5,1,-1v-11.3h2.6c.6,0,1,-.4,1,-1v-5.3c0,-.5,-.4,-1,-1,-1M211,1088.3c-1,0,-1.7,-.7,-1.7,-1.6c0,-1,.7,-1.7,1.7,-1.7c.9,0,1.6,.7,1.6,1.7c0,.9,-.7,1.6,-1.6,1.6m7.7,20.3H172.8v-3.4h45.9Zm-3.7,12.2H176.5v-10.3H215v10.3Zm-25.9,-29.3h13.3c4.4,0,8,3.6,8,8v3.7H181.1v-3.7c0,-4.4,3.6,-8,8,-8Z" class="gv_135"/>
<path d="M176.5,1120.8H215v-10.3H176.5v10.3Zm2.8,-7.5c0,-.3,.2,-.5,.4,-.5h32.1c.2,0,.4,.2,.4,.5v4.7c0,.3,-.2,.5,-.4,.5H179.7c-.2,0,-.4,-.2,-.4,-.5Z" class="g7_135"/>
<path d="M180.2,1117.5h31.1v-3.7H180.2v3.7Z" class="gw_135"/>
<path d="M179.7,1118.5h32.1c.2,0,.4,-.2,.4,-.5v-4.7c0,-.3,-.2,-.5,-.4,-.5H179.7c-.2,0,-.4,.2,-.4,.5v4.7c0,.3,.2,.5,.4,.5m.5,-4.7h31.1v3.7H180.2Z" class="gv_135"/>
<path d="M212.6,1086.7c0,-1,-.7,-1.7,-1.6,-1.7c-1,0,-1.7,.7,-1.7,1.7c0,.9,.7,1.6,1.7,1.6c.9,0,1.6,-.7,1.6,-1.6Z" class="g7_135"/>
<path d="M32.1,45.1H9.2m958.3,0h22.9M32.1,1331.3H9.2m958.3,0h22.9M45.1,32.1V9.2m0,1335.1v22.9M954.5,32.1V9.2m0,1335.1v22.9" class="gx_135"/>
<path d="M32.1,45.1H9.2m958.3,0h22.9M32.1,1331.3H9.2m958.3,0h22.9M45.1,32.1V9.2m0,1335.1v22.9M954.5,32.1V9.2m0,1335.1v22.9" class="gy_135"/>
<path d="M27.5,32.1H0m972.1,0h27.5M27.5,1344.3H0m972.1,0h27.5M32.1,27.5V0m0,1348.9v27.5M967.5,27.5V0m0,1348.9v27.5" class="gx_135"/>
<path d="M27.5,32.1H0m972.1,0h27.5M27.5,1344.3H0m972.1,0h27.5M32.1,27.5V0m0,1348.9v27.5M967.5,27.5V0m0,1348.9v27.5" class="gy_135"/>
</svg>