<?xml version="1.0" encoding="UTF-8" standalone="no"?>
<!DOCTYPE svg PUBLIC "-//W3C//DTD SVG 1.1//EN"
"http://www.w3.org/Graphics/SVG/1.1/DTD/svg11.dtd">
<svg viewBox="0 0 999 1376" version="1.1" xmlns="http://www.w3.org/2000/svg" xmlns:xlink="http://www.w3.org/1999/xlink">
<defs>
<clipPath id="c0_180"><path d="M32.1,1344.3V32.1H967.5V1344.3Z"/></clipPath>
<clipPath id="c1_180"><path d="M186,568.7l-6.5,-2.1L163.1,552.7V495.6H235v73.1Z"/></clipPath>
<clipPath id="c2_180"><path d="M193.3,886.7V790.5H357.5v96.2Z"/></clipPath>
<clipPath id="c3_180"><path d="M193.9,756.3v-97H358.5v97Z"/></clipPath>
<clipPath id="c4_180"><path d="M177,1069.2l-6.5,-2.1l-16.4,-13.9V996.1h72v73.1Z"/></clipPath>
<clipPath id="c5_180"><path d="M178.4,137.2c.1,-1.3,.7,-2.5,1.6,-3.4c1,-1,2.4,-1.6,3.9,-1.6h19.2v5Z"/></clipPath>
<clipPath id="c6_180"><path d="M177.9,137.7v-6h25.7v6Z"/></clipPath>
<style type="text/css"><![CDATA[
.g0_180{
fill: #FEFCF4;
}
.g1_180{
fill: #FCE8B0;
}
.g2_180{
fill: #FFF;
}
.g3_180{
fill: none;
stroke: #949698;
stroke-width: 0.305;
}
.g4_180{
fill: none;
stroke: #231F20;
stroke-width: 0.305;
stroke-miterlimit: 10;
}
.g5_180{
fill: #DCE9F3;
}
.g6_180{
fill: #9BD1EA;
}
.g7_180{
fill: none;
stroke: #231F20;
stroke-width: 0.381;
stroke-miterlimit: 10;
}
.g8_180{
fill: #6381B7;
}
.g9_180{
fill: none;
stroke: #6381B7;
stroke-width: 0.381;
stroke-dasharray: 2,1;
}
.ga_180{
fill: none;
stroke: #6381B7;
stroke-width: 0.381;
}
.gb_180{
fill: none;
stroke: #231F20;
stroke-width: 0.458;
stroke-miterlimit: 10;
}
.gc_180{
fill: none;
stroke: #6381B7;
stroke-width: 0.763;
}
.gd_180{
fill: #25408F;
}
.ge_180{
fill: none;
stroke: #231F20;
stroke-width: 1.527;
}
.gf_180{
fill: #39B4D1;
stroke: #2D2A4A;
stroke-width: 1.038;
stroke-linecap: round;
stroke-linejoin: round;
}
.gg_180{
fill: #2D2A4A;
}
.gh_180{
fill: none;
stroke: #2D2A4A;
stroke-width: 1.038;
stroke-linecap: round;
stroke-linejoin: round;
}
.gi_180{
fill: #DEDAD3;
}
.gj_180{
fill: #29263F;
}
.gk_180{
fill: #E15F46;
stroke: #2D2A4A;
stroke-width: 1.038;
stroke-linecap: round;
stroke-linejoin: round;
}
.gl_180{
fill: none;
stroke: #FFF;
stroke-width: 1.909;
stroke-miterlimit: 10;
}
.gm_180{
fill: none;
stroke: #000;
stroke-width: 0.381;
stroke-miterlimit: 10;
}
]]></style>
</defs>
<path clip-path="url(#c0_180)" d="M954.5,1344.3H1877V32.1H954.5V1344.3Z" class="g0_180"/>
<path d="M218.6,497.7c0,0,-13,0,-13,13v47.7c0,0,0,12.9,13,12.9H833.3c0,0,13,0,13,-12.9V510.7c0,0,0,-13,-13,-13Z" class="g1_180"/>
<image clip-path="url(#c1_180)" preserveAspectRatio="none" x="161" y="494" width="75" height="76" xlink:href="img/1.png"/>
<path d="M213.4,564c0,0,-26.9,11.3,-51.1,-12.8c0,0,15.1,25.3,49.3,24c0,0,24.7,.3,20.2,-10.1c0,0,1.2,-4.5,-18.4,-1.1Z" class="g1_180"/>
<path d="M140.5,582.6c0,0,-8.7,0,-8.7,8.9V892.8c0,0,0,8.9,8.7,8.9h697c0,0,8.6,0,8.6,-8.9V591.5c0,0,0,-8.9,-8.6,-8.9Z" class="g2_180"/>
<path d="M140.5,582.6c0,0,-8.7,0,-8.7,8.9V892.8c0,0,0,8.9,8.7,8.9h697c0,0,8.6,0,8.6,-8.9V591.5c0,0,0,-8.9,-8.6,-8.9h-697Z" class="g3_180"/>
<image clip-path="url(#c2_180)" preserveAspectRatio="none" x="190" y="785" width="170" height="102" xlink:href="img/2.jpg"/>
<image clip-path="url(#c3_180)" preserveAspectRatio="none" x="192" y="658" width="168" height="98" xlink:href="img/3.jpg"/>
<path d="M478.7,712.4H654.9M428.4,839.9H656.2" class="g4_180"/>
<path d="M149,167.6c0,0,-17.3,0,-17.3,17.4V446.2c0,0,0,17.4,17.3,17.4H828.9c0,0,17.4,0,17.4,-17.4V185c0,0,0,-17.4,-17.4,-17.4Z" class="g5_180"/>
<path d="M157.7,241H313.6v26H157.7V241Zm155.9,0H495.5v26H313.6V241Zm190.5,0H828.6v26H504.1V241Z" class="g6_180"/>
<path d="M157.7,267H313.6v73.6H157.7V267Zm155.9,0H495.5v73.6H313.6V267Zm190.5,0H666.3v44.3H504.1V267Zm162.2,0H828.6v44.3H666.3V267ZM504.1,311.3H666.3v29.3H504.1V311.3Zm162.2,0H828.6v29.3H666.3V311.3Z" class="g2_180"/>
<path d="M157.7,340.6H313.6m0,-29.3V267.2m0,73.2V311.3m0,29.3H495.5M666.3,311.1V267.2M504.1,311.3H666.3M504.1,340.6H666.3m0,-29.3H828.6M666.3,340.4V311.5m0,29.1H828.6M157.7,241H313.6M157.7,267H313.6m0,-26H495.5M313.6,266.8V241.2m0,25.8H495.5m8.6,-26H666.3m0,0H828.6M504.1,267H666.3m0,0H828.6" class="g7_180"/>
<path d="M560.8,917.7c0,0,-4.3,0,-4.3,4.3v10.9c0,0,0,4.3,4.3,4.3h30.3c0,0,4.4,0,4.4,-4.3V922c0,0,0,-4.3,-4.4,-4.3Z" class="g8_180"/>
<path d="M547.6,910.2v34.9m1.4,.9H845.1m1,-1.3V909.8m-1.4,-1H548.6" class="g9_180"/>
<path d="M547.6,945.4v.6h.6m297.3,0h.6v-.6m0,-36v-.6h-.6m-297.3,0h-.6v.6" class="ga_180"/>
<path d="M644,1211.8c0,0,-4.4,0,-4.4,4.4V1227c0,0,0,4.3,4.4,4.3h30.3c0,0,4.3,0,4.3,-4.3v-10.8c0,0,0,-4.4,-4.3,-4.4Z" class="g8_180"/>
<path d="M630.8,1204.3v34.9m1.3,1h213m1,-1.4v-34.9m-1.4,-.9h-213" class="g9_180"/>
<path d="M630.8,1239.6v.6h.5m214.2,0h.6v-.6m0,-36v-.6h-.6m-214.2,0h-.5v.6" class="ga_180"/>
<path d="M145.1,983.2c0,0,-13,0,-13,13v184.9c0,0,0,13,13,13H832.9c0,0,13,0,13,-13V996.2c0,0,0,-13,-13,-13Z" class="g2_180"/>
<path d="M515.9,1096.4H657.2m-204.8,53.5H593.7" class="gb_180"/>
<path d="M145.1,983.2c0,0,-13,0,-13,13v184.9c0,0,0,13,13,13H832.9c0,0,13,0,13,-13V996.2c0,0,0,-13,-13,-13H145.1Z" class="gc_180"/>
<path d="M209.6,1024.2c0,0,-12.9,0,-12.9,13v21.7c0,0,0,13,12.9,13h602c0,0,13,0,13,-13v-21.7c0,0,0,-13,-13,-13Z" class="g1_180"/>
<image clip-path="url(#c4_180)" preserveAspectRatio="none" x="153" y="995" width="75" height="76" xlink:href="img/4.png"/>
<path d="M204.4,1064.5c0,0,-26.8,11.3,-51.1,-12.7c0,0,15.2,25.3,49.3,23.9c0,0,24.8,.4,20.3,-10.1c0,0,1.2,-4.4,-18.5,-1.1Z" class="g1_180"/>
<path d="M131.7,109.5v39l11.7,10.2V136.5Z" class="gd_180"/>
<path d="M131.7,109.5v39H829.5c0,0,16.8,0,16.8,-16.8v-5.4c0,0,0,-16.8,-16.8,-16.8Z" class="g8_180"/>
<path d="M768.8,131c0,0,-.5,-10,8.6,-9.4c0,0,6.7,-.3,6.6,9.5m-15.3,-1.5v6.5c0,0,-3.3,.3,-3.9,-3c0,0,-.1,-3.8,3.9,-3.5Zm15.4,0v6.5c0,0,3.3,.3,3.9,-3c0,0,.1,-3.8,-3.9,-3.5Z" class="ge_180"/>
<path d="M147.4,140.8h61v-32h-61v32Z" class="gf_180"/>
<path d="M147.4,143.1h61v-2.3h-61v2.3Z" class="gf_180"/>
<path d="M171.8,106.2H152.1v31.5h25.8V112.3c0,-3.4,-2.7,-6.1,-6.1,-6.1Z" class="g2_180"/>
<path d="M171.8,106.2v-.5H152.1c-.1,0,-.3,.1,-.4,.2c-.1,.1,-.1,.2,-.1,.3v31.5c0,.1,0,.3,.1,.4c.1,.1,.3,.1,.4,.1h25.8c.1,0,.2,0,.3,-.1c.1,-.1,.2,-.3,.2,-.4V112.3c0,-3.7,-2.9,-6.6,-6.6,-6.6v1c1.6,0,2.9,.7,3.9,1.7c1,1,1.6,2.3,1.6,3.9v24.9H152.6V106.7h19.2Z" class="gg_180"/>
<path d="M152.1,131.7v6h25.8c0,-3.3,-2.7,-6,-6.1,-6Z" class="g2_180"/>
<path d="M152.1,131.7h-.5v6c0,.1,0,.3,.1,.4c.1,.1,.3,.1,.4,.1h25.8c.1,0,.2,0,.3,-.1c.1,-.1,.2,-.3,.2,-.4c0,-3.6,-3,-6.6,-6.6,-6.6H152.1c-.1,0,-.3,.1,-.4,.2c-.1,.1,-.1,.2,-.1,.4h.5v.5h19.7c1.6,0,2.9,.6,3.9,1.6c1,1,1.6,2.4,1.6,3.9h.6v-.5H152.6v-5.5h-.5v.5Z" class="gg_180"/>
<path d="M155.6,110.9h17.2m-17.2,2.8h17.2m-17.2,2.9h17.2m-17.2,2.9h17.2m-17.2,2.8h17.2m-17.2,2.9h17.2M155.6,128h17.2" class="gh_180"/>
<path d="M171.8,132.2H152.6v5h24.7c-.1,-1.3,-.7,-2.5,-1.6,-3.4c-1,-1,-2.3,-1.6,-3.9,-1.6Z" class="gi_180"/>
<path d="M152.6,132.2h19.2c1.6,0,2.9,.6,3.9,1.6c.9,.9,1.5,2.1,1.6,3.4H152.6Zm19.2,-.5H152.1v6h25.2v-2.5c-.9,-2.1,-3,-3.5,-5.5,-3.5Z" class="gj_180"/>
<path d="M183.9,106.2h19.7v31.5H177.9V112.3c0,-3.4,2.7,-6.1,6,-6.1Z" class="g2_180"/>
<path d="M183.9,106.2v.5h19.2v30.5H178.4V112.3c0,-1.6,.6,-2.9,1.6,-3.9c1,-1,2.4,-1.7,3.9,-1.7v-1c-3.6,0,-6.6,2.9,-6.6,6.6v25.4c0,.1,.1,.3,.2,.4c.1,.1,.2,.1,.4,.1h25.7c.2,0,.3,0,.4,-.1c.1,-.1,.1,-.3,.1,-.4V106.2c0,-.1,0,-.2,-.1,-.3c-.1,-.1,-.2,-.2,-.4,-.2H183.9Z" class="gg_180"/>
<path d="M203.6,131.7v6H177.9c0,-3.3,2.7,-6,6,-6Z" class="g2_180"/>
<path d="M203.6,131.7h-.5v5.5H177.9v.5h.5c0,-1.5,.6,-2.9,1.6,-3.9c1,-1,2.4,-1.6,3.9,-1.6h19.7v-.5h-.5h.5v-.6H183.9c-3.6,0,-6.6,3,-6.6,6.6c0,.1,.1,.3,.2,.4c.1,.1,.2,.1,.4,.1h25.7c.2,0,.3,0,.4,-.1c.1,-.1,.1,-.3,.1,-.4v-6c0,-.2,0,-.3,-.1,-.4c-.1,-.1,-.2,-.2,-.4,-.2Z" class="gg_180"/>
<path d="M200.1,110.9H182.9m17.2,2.8H182.9m17.2,2.9H182.9m17.2,2.9H182.9m17.2,2.8H182.9m17.2,2.9H182.9m17.2,2.8H182.9" class="gh_180"/>
<path clip-path="url(#c5_180)" d="M178.4,137.2h24.7v-5H178.4v5Z" class="gi_180"/>
<path clip-path="url(#c6_180)" d="M178.4,137.2c.1,-1.3,.7,-2.5,1.6,-3.4c1,-1,2.4,-1.6,3.9,-1.6h19.2v5Zm25.2,-5.5H183.9c-3.3,0,-6,2.7,-6,6h25.7v-6h-.5h.5Z" class="gj_180"/>
<path d="M177.9,108.8v34.3" class="gh_180"/>
<path d="M195.5,145.5h3.3V134.7h-3.3v10.8Z" class="gk_180"/>
<path d="M32.1,45.1H9.2m958.3,0h22.9M32.1,1331.3H9.2m958.3,0h22.9M45.1,32.1V9.2m0,1335.1v22.9M954.5,32.1V9.2m0,1335.1v22.9" class="gl_180"/>
<path d="M32.1,45.1H9.2m958.3,0h22.9M32.1,1331.3H9.2m958.3,0h22.9M45.1,32.1V9.2m0,1335.1v22.9M954.5,32.1V9.2m0,1335.1v22.9" class="gm_180"/>
<path d="M27.5,32.1H0m972.1,0h27.5M27.5,1344.3H0m972.1,0h27.5M32.1,27.5V0m0,1348.9v27.5M967.5,27.5V0m0,1348.9v27.5" class="gl_180"/>
<path d="M27.5,32.1H0m972.1,0h27.5M27.5,1344.3H0m972.1,0h27.5M32.1,27.5V0m0,1348.9v27.5M967.5,27.5V0m0,1348.9v27.5" class="gm_180"/>
</svg>