<?xml version="1.0" encoding="UTF-8" standalone="no"?>
<!DOCTYPE svg PUBLIC "-//W3C//DTD SVG 1.1//EN"
"http://www.w3.org/Graphics/SVG/1.1/DTD/svg11.dtd">
<svg viewBox="0 0 999 1376" version="1.1" xmlns="http://www.w3.org/2000/svg" xmlns:xlink="http://www.w3.org/1999/xlink">
<defs>
<clipPath id="c0_14"><path d="M735.7,139V62.3H854.2V139Z"/></clipPath>
<style type="text/css"><![CDATA[
.g0_14{
fill: #F69E93;
}
.g1_14{
fill: #2E6E51;
}
.g2_14{
fill: #F7B736;
}
.g3_14{
fill: #D2D3D5;
}
.g4_14{
fill: #F9D996;
}
.g5_14{
fill: #FAE6BA;
}
.g6_14{
fill: #EED0B7;
}
.g7_14{
fill: #F4E0CF;
}
.g8_14{
fill: none;
stroke: #FFF;
stroke-width: 1.451;
stroke-miterlimit: 10;
}
.g9_14{
fill: none;
stroke: #FFF;
stroke-width: 1.909;
stroke-miterlimit: 10;
}
.ga_14{
fill: none;
stroke: #000;
stroke-width: 0.381;
stroke-miterlimit: 10;
}
]]></style>
</defs>
<path d="M278.9,32.1V139H850.6c0,0,17.3,0,17.3,-17.3V50.4c0,0,0,-18.3,-18.3,-18.3Z" class="g0_14"/>
<path d="M140.3,32.1c0,0,-8.6,0,-8.6,8.6v89.7c0,0,0,8.6,8.6,8.6H286.9c0,0,8.6,0,8.6,-8.6V40.7c0,0,0,-8.6,-8.6,-8.6Z" class="g1_14"/>
<path d="M136.9,129.1c10.1,0,18.2,-8.1,18.2,-18.2c0,-10,-8.1,-18.2,-18.2,-18.2c-10,0,-18.2,8.2,-18.2,18.2c0,10.1,8.2,18.2,18.2,18.2Z" class="g2_14"/>
<path d="M732.9,175.7H880.1v33.8H732.9V175.7Zm-78,0h78v33.8h-78V175.7Zm-147.2,0H654.9v33.8H507.7V175.7Zm-147.3,0H507.7v33.8H360.4V175.7Zm-147.2,0H360.4v33.8H213.2V175.7Zm-34.7,0h34.7v33.8H178.5V175.7Zm-56.3,0h56.3v33.8H122.2V175.7Z" class="g3_14"/>
<path d="M213.2,756.9H360.4V918.6H213.2V756.9Zm-91,-547.4h56.3V918.6H122.2V209.5Zm91,395.9H360.4V756.9H213.2V605.4Zm0,-117H360.4v117H213.2v-117Zm0,-80.4H360.4v80.4H213.2V408Zm0,-95.3H360.4V408H213.2V312.7Zm0,-103.2H360.4V312.7H213.2V209.5Z" class="g4_14"/>
<path d="M732.9,756.9H880.1V918.6H732.9V756.9Zm-78,0h78V918.6h-78V756.9Zm-147.2,0H654.9V918.6H507.7V756.9Zm-147.3,0H507.7V918.6H360.4V756.9Zm-181.9,0h34.7V918.6H178.5V756.9ZM732.9,605.4H880.1V756.9H732.9V605.4Zm-78,0h78V756.9h-78V605.4Zm-147.2,0H654.9V756.9H507.7V605.4Zm-147.3,0H507.7V756.9H360.4V605.4Zm-181.9,0h34.7V756.9H178.5V605.4Zm554.4,-117H880.1v117H732.9v-117Zm-78,0h78v117h-78v-117Zm-147.2,0H654.9v117H507.7v-117Zm-147.3,0H507.7v117H360.4v-117Zm-181.9,0h34.7v117H178.5v-117ZM732.9,408H880.1v80.4H732.9V408Zm-78,0h78v80.4h-78V408Zm-147.2,0H654.9v80.4H507.7V408Zm-147.3,0H507.7v80.4H360.4V408Zm-181.9,0h34.7v80.4H178.5V408ZM732.9,312.7H880.1V408H732.9V312.7Zm-78,0h78V408h-78V312.7Zm-147.2,0H654.9V408H507.7V312.7Zm-147.3,0H507.7V408H360.4V312.7Zm-181.9,0h34.7V408H178.5V312.7ZM732.9,209.5H880.1V312.7H732.9V209.5Zm-78,0h78V312.7h-78V209.5Zm-147.2,0H654.9V312.7H507.7V209.5Zm-147.3,0H507.7V312.7H360.4V209.5Zm-181.9,0h34.7V312.7H178.5V209.5Z" class="g5_14"/>
<path d="M213.2,1070.2H360.4v99.6H213.2v-99.6Zm-91,-151.6h56.3v251.2H122.2V918.6Zm91,0H360.4v151.6H213.2V918.6Z" class="g6_14"/>
<path d="M732.9,1070.2H880.1v99.6H732.9v-99.6Zm-78,0h78v99.6h-78v-99.6Zm-147.2,0H654.9v99.6H507.7v-99.6Zm-147.3,0H507.7v99.6H360.4v-99.6Zm-181.9,0h34.7v99.6H178.5v-99.6ZM732.9,918.6H880.1v151.6H732.9V918.6Zm-78,0h78v151.6h-78V918.6Zm-147.2,0H654.9v151.6H507.7V918.6Zm-147.3,0H507.7v151.6H360.4V918.6Zm-181.9,0h34.7v151.6H178.5V918.6Z" class="g7_14"/>
<path d="M121.5,175.7h57m-56.3,33.1V176.4m56.3,-.7h34.7m-34.7,33.1V176.4m34.7,-.7H360.4M213.2,208.8V176.4m147.2,-.7H507.7M360.4,208.8V176.4m147.3,-.7H654.9M507.7,208.8V176.4m147.2,-.7h78m-78,33.1V176.4m78,-.7H880.8M732.9,208.8V176.4m147.2,32.4V176.4M121.5,209.5h57M122.2,312.7V210.2m56.3,-.7h34.7M178.5,312V210.2m34.7,-.7H360.4M213.2,312V210.2m147.2,-.7H507.7M360.4,312V210.2m147.3,-.7H654.9M507.7,312V210.2m147.2,-.7h78M654.9,312V210.2m78,-.7H880.8M732.9,312V210.2M880.1,312V210.2M122.2,408V312.7m55.6,0h35.4m-34.7,94.6V313.4m34.7,-.7H360.4M213.2,407.3V313.4m147.2,-.7H507.7M360.4,407.3V313.4m147.3,-.7H654.9M507.7,407.3V313.4m147.2,-.7h78m-78,94.6V313.4m78,-.7H880.8M732.9,407.3V313.4m147.2,93.9V313.4m-757.9,175V408m55.6,0h35.4m-34.7,79.7v-79m34.7,-.7H360.4M213.2,487.7v-79M360.4,408H507.7M360.4,487.7v-79M507.7,408H654.9M507.7,487.7v-79M654.9,408h78m-78,79.7v-79m78,-.7H880.8M732.9,487.7v-79m147.2,79v-79M122.2,605.4v-117m55.6,0h35.4M178.5,604.6V489.2m34.7,-.8H360.4M213.2,604.6V489.2m147.2,-.8H507.7M360.4,604.6V489.2m147.3,-.8H654.9M507.7,604.6V489.2m147.2,-.8h78m-78,116.2V489.2m78,-.8H880.8M732.9,604.6V489.2M880.1,604.6V489.2M122.2,756.9V605.4m55.6,0h35.4M178.5,756.2V606.1m34.7,-.7H360.4M213.2,756.2V606.1m147.2,-.7H507.7M360.4,756.2V606.1m147.3,-.7H654.9M507.7,756.2V606.1m147.2,-.7h78m-78,150.8V606.1m78,-.7H880.8M732.9,756.2V606.1M880.1,756.2V606.1M122.2,917.9v-161m55.6,0h35.4m-34.7,161V757.7m34.7,-.8H360.4m-147.2,161V757.7m147.2,-.8H507.7m-147.3,161V757.7m147.3,-.8H654.9m-147.2,161V757.7m147.2,-.8h78m-78,161V757.7m78,-.8H880.8m-147.9,161V757.7M880.1,917.9V757.7M121.5,918.6h57m-56.3,151.6V919.3m56.3,-.7h34.7m-34.7,150.9V919.3m34.7,-.7H360.4M213.2,1069.5V919.3m147.2,-.7H507.7M360.4,1069.5V919.3m147.3,-.7H654.9M507.7,1069.5V919.3m147.2,-.7h78m-78,150.9V919.3m78,-.7H880.8M732.9,1069.5V919.3m147.2,150.2V919.3M122.2,1169.1v-98.9m55.6,0h35.4m-34.7,98.9v-98.2m34.7,-.7H360.4m-147.2,98.9v-98.2m147.2,-.7H507.7m-147.3,98.9v-98.2m147.3,-.7H654.9m-147.2,98.9v-98.2m147.2,-.7h78m-78,98.9v-98.2m78,-.7H880.8m-147.9,98.9v-98.2m147.2,98.2v-98.2m-758.6,98.9h57m0,0h34.7m0,0H360.4m0,0H507.7m0,0H654.9m0,0h78m0,0H880.8" class="g8_14"/>
<image clip-path="url(#c0_14)" preserveAspectRatio="none" x="736" y="62" width="118" height="77" xlink:href="img/1.png"/>
<path d="M32.1,45.1H9.2m958.3,0h22.9M32.1,1331.3H9.2m958.3,0h22.9M45.1,32.1V9.2m0,1335.1v22.9M954.5,32.1V9.2m0,1335.1v22.9" class="g9_14"/>
<path d="M32.1,45.1H9.2m958.3,0h22.9M32.1,1331.3H9.2m958.3,0h22.9M45.1,32.1V9.2m0,1335.1v22.9M954.5,32.1V9.2m0,1335.1v22.9" class="ga_14"/>
<path d="M27.5,32.1H0m972.1,0h27.5M27.5,1344.3H0m972.1,0h27.5M32.1,27.5V0m0,1348.9v27.5M967.5,27.5V0m0,1348.9v27.5" class="g9_14"/>
<path d="M27.5,32.1H0m972.1,0h27.5M27.5,1344.3H0m972.1,0h27.5M32.1,27.5V0m0,1348.9v27.5M967.5,27.5V0m0,1348.9v27.5" class="ga_14"/>
</svg>