<?xml version="1.0" encoding="UTF-8" standalone="no"?>
<!DOCTYPE svg PUBLIC "-//W3C//DTD SVG 1.1//EN"
"http://www.w3.org/Graphics/SVG/1.1/DTD/svg11.dtd">
<svg viewBox="0 0 999 1376" version="1.1" xmlns="http://www.w3.org/2000/svg" xmlns:xlink="http://www.w3.org/1999/xlink">
<defs>
<clipPath id="c0_174"><path d="M32.1,1344.3V32.1H967.5V1344.3Z"/></clipPath>
<clipPath id="c1_174"><path d="M760.9,340.6V328.2h14.4v12.4Z"/></clipPath>
<clipPath id="c2_174"><path d="M211.6,479.4V390.1h89.3v89.3Z"/></clipPath>
<clipPath id="c3_174"><path d="M211.6,601.5V512.3h89.3v89.2Z"/></clipPath>
<clipPath id="c4_174"><path d="M386.8,479.4V407.6H476v71.8Zm0,-86.4v-2.9H476V393Z"/></clipPath>
<clipPath id="c5_174"><path d="M386.8,407.6V393H476v14.6Z"/></clipPath>
<clipPath id="c6_174"><path d="M386.8,601.5V512.3H476v89.2Z"/></clipPath>
<clipPath id="c7_174"><path d="M552.1,479.4V390.1h89.2v89.3Z"/></clipPath>
<clipPath id="c8_174"><path d="M552.1,601.5V512.3H642v89.2Z"/></clipPath>
<clipPath id="c9_174"><path d="M725.5,468.2V400.8h76.2v67.4Z"/></clipPath>
<clipPath id="ca_174"><path d="M717.4,601.5V512.3h89.2v89.2Z"/></clipPath>
<clipPath id="cb_174"><path d="M176.6,291.4l-6.5,-2.1L153.7,275.4V218.3h72v73.1Z"/></clipPath>
<clipPath id="cc_174"><path d="M176.6,745l-6.5,-2.1L153.7,729V671.9h72V745Z"/></clipPath>
<style type="text/css"><![CDATA[
.g0_174{
fill: #FEFCF4;
}
.g1_174{
fill: #59816A;
}
.g2_174{
fill: #2E6E51;
}
.g3_174{
fill: #92A696;
}
.g4_174{
fill: #F9F6DB;
}
.g5_174{
fill: #DE524C;
}
.g6_174{
fill: #030303;
}
.g7_174{
fill: #FFF;
}
.g8_174{
fill: none;
stroke: #6381B7;
stroke-width: 0.763;
}
.g9_174{
fill: #A8AAAD;
}
.ga_174{
fill: none;
stroke: #949698;
stroke-width: 0.549;
}
.gb_174{
fill: none;
stroke: #BCBEC0;
stroke-width: 2.566;
}
.gc_174{
fill: #231F20;
}
.gd_174{
fill: none;
stroke: #231F20;
stroke-width: 0.458;
stroke-miterlimit: 10;
}
.ge_174{
fill: #FCE8B0;
}
.gf_174{
fill: none;
stroke: #FFF;
stroke-width: 1.909;
stroke-miterlimit: 10;
}
.gg_174{
fill: none;
stroke: #000;
stroke-width: 0.381;
stroke-miterlimit: 10;
}
]]></style>
</defs>
<path d="M32.1,1344.3H954.5V32.1H32.1V1344.3Z" class="g0_174"/>
<g clip-path="url(#c0_174)">
<path d="M954.5,1344.3H1877V32.1H954.5V1344.3Z" class="g0_174"/>
<path d="M1777.4,163c0,0,30.3,0,30.3,-30.3v-4.4c0,0,0,-30.3,-30.3,-30.3H162.8c0,0,-30.3,0,-30.3,30.3v4.4c0,0,0,30.3,30.3,30.3Z" class="g1_174"/>
</g>
<path d="M183.7,130.5c0,26.3,-21.4,47.6,-47.7,47.6c-26.3,0,-47.6,-21.3,-47.6,-47.6c0,-26.3,21.3,-47.7,47.6,-47.7c26.3,0,47.7,21.4,47.7,47.7Z" class="g2_174"/>
<path d="M158.3,88.4c0,0,26.2,12.3,25.3,44.1c0,0,.4,18,-14.5,32.2c0,0,-12.5,13.6,-33.8,13.4L119.8,142.5L146.3,109Z" class="g3_174"/>
<path d="M138.2,95.4l-35.3,40.3c-2.2,9.2,5.7,10.6,5.7,10.6L162,135.2Z" class="g4_174"/>
<path d="M163.8,131.9c1,1.6,.6,3.7,-1,4.7c-1.6,1,-3.7,.4,-4.7,-1.2L135.8,98.9c-1,-1.6,-.5,-3.7,1.1,-4.7c1.6,-1,3.7,-.4,4.7,1.2Z" class="g5_174"/>
<path d="M112,121.2l-8.5,5.9c-7.2,4.1,-9.8,13,-5.8,19.8c4,6.9,11.5,9.1,18.7,4.9l17.1,25.4c.8,1.9,5,.3,7,-.6c1.9,-1,4.4,-3.3,3.5,-5.2L127.5,145.3l.7,-.8c.7,-.3,-15,-24,-16.2,-23.3Z" class="g6_174"/>
<path d="M168.7,102.2c.4,.5,0,1.4,-.7,1.9l-9.2,6.7c-.7,.5,-1.6,.6,-2,0c-.3,-.5,0,-1.3,.7,-1.8l9.2,-6.7c.8,-.6,1.7,-.6,2,-.1Z" class="g7_174"/>
<path d="M158.4,88.4c.5,.4,.6,1.3,.1,2.1l-5.9,9.8c-.5,.8,-1.3,1.2,-1.9,.9c-.5,-.4,-.5,-1.2,0,-2.1l5.9,-9.8c.5,-.8,1.3,-1.2,1.8,-.9Z" class="g7_174"/>
<path d="M176.2,121.9c.1,-.6,-.6,-1.2,-1.5,-1.3l-11.2,-1.4c-.9,-.1,-1.7,.4,-1.8,1c-.1,.6,.6,1.2,1.5,1.3l11.2,1.3c.9,.2,1.7,-.3,1.8,-.9Z" class="g7_174"/>
<path d="M145.1,311.2c0,0,-13,0,-13,13V605.4c0,0,0,13,13,13h688c0,0,13,0,13,-13V324.2c0,0,0,-13,-13,-13Z" class="g7_174"/>
<path d="M145.1,311.2c0,0,-13,0,-13,13V605.4c0,0,0,13,13,13h688c0,0,13,0,13,-13V324.2c0,0,0,-13,-13,-13h-688Z" class="g8_174"/>
<path d="M196.2,365.5h563V349.3h-563v16.2Z" class="g7_174"/>
<path d="M145.3,762.2c0,0,-13,0,-13,13v430.6c0,0,0,12.9,13,12.9H833.1c0,0,13,0,13,-12.9V775.2c0,0,0,-13,-13,-13Z" class="g7_174"/>
<path d="M145.3,762.2c0,0,-13,0,-13,13v430.6c0,0,0,12.9,13,12.9H833.1c0,0,13,0,13,-12.9V775.2c0,0,0,-13,-13,-13H145.3Z" class="g8_174"/>
<path d="M777,353.6c8.2,0,14.9,-6.5,14.9,-14.5c0,-7.9,-6.7,-14.4,-14.9,-14.4c-8.3,0,-14.9,6.5,-14.9,14.4c0,8,6.6,14.5,14.9,14.5Z" class="g9_174"/>
<path d="M777,353.6c8.2,0,14.9,-6.5,14.9,-14.5c0,-7.9,-6.7,-14.4,-14.9,-14.4c-8.3,0,-14.9,6.5,-14.9,14.4c0,8,6.6,14.5,14.9,14.5Z" class="ga_174"/>
<path d="M777,344.5c3,0,5.5,-2.4,5.5,-5.4c0,-2.9,-2.5,-5.3,-5.5,-5.3c-3.1,0,-5.5,2.4,-5.5,5.3c0,3,2.4,5.4,5.5,5.4Z" class="g7_174"/>
<path d="M777,344.5c3,0,5.5,-2.4,5.5,-5.4c0,-2.9,-2.5,-5.3,-5.5,-5.3c-3.1,0,-5.5,2.4,-5.5,5.3c0,3,2.4,5.4,5.5,5.4Z" class="gb_174"/>
<g clip-path="url(#c1_174)" opacity="0.3">
<path d="M762.4,338.4v0c0,0,-.1,-4.8,3.6,-8.6l7.8,6.7c0,0,-1,.9,-1,2.6Z" class="g7_174"/>
</g>
<path d="M781.6,339c0,0,-3.5,0,-3.5,3.5v8.7c0,0,0,3.4,3.5,3.4h43.5c0,0,3.4,0,3.4,-3.4v-8.7c0,0,0,-3.5,-3.4,-3.5Z" class="gc_174"/>
<image clip-path="url(#c2_174)" preserveAspectRatio="none" x="212" y="390" width="89" height="89" xlink:href="img/1.jpg"/>
<image clip-path="url(#c3_174)" preserveAspectRatio="none" x="212" y="512" width="89" height="90" xlink:href="img/2.jpg"/>
<image clip-path="url(#c4_174)" preserveAspectRatio="none" x="386" y="390" width="90" height="90" xlink:href="img/3.jpg"/>
<image clip-path="url(#c5_174)" preserveAspectRatio="none" x="386" y="393" width="90" height="15" xlink:href="img/4.jpg"/>
<image clip-path="url(#c6_174)" preserveAspectRatio="none" x="387" y="512" width="89" height="90" xlink:href="img/5.jpg"/>
<image clip-path="url(#c7_174)" preserveAspectRatio="none" x="552" y="390" width="89" height="89" xlink:href="img/6.jpg"/>
<image clip-path="url(#c8_174)" preserveAspectRatio="none" x="551" y="512" width="91" height="90" xlink:href="img/7.jpg"/>
<image clip-path="url(#c9_174)" preserveAspectRatio="none" x="725" y="401" width="77" height="67" xlink:href="img/8.jpg"/>
<image clip-path="url(#ca_174)" preserveAspectRatio="none" x="717" y="512" width="90" height="90" xlink:href="img/9.jpg"/>
<path d="M308.5,1074.2h25.8" class="gd_174"/>
<path d="M209.2,220.5c0,0,-13,0,-13,13v47.6c0,0,0,13,13,13H830.8c0,0,13,0,13,-13V233.5c0,0,0,-13,-13,-13Z" class="ge_174"/>
<image clip-path="url(#cb_174)" preserveAspectRatio="none" x="152" y="217" width="75" height="76" xlink:href="img/10.png"/>
<path d="M204,286.7c0,0,-26.8,11.3,-51.1,-12.7c0,0,15.2,25.3,49.3,23.9c0,0,24.8,.4,20.3,-10.1c0,0,1.2,-4.4,-18.5,-1.1Z" class="ge_174"/>
<path d="M209.2,674.1c0,0,-13,0,-13,13v47.6c0,0,0,13,13,13H830.8c0,0,13,0,13,-13V687.1c0,0,0,-13,-13,-13Z" class="ge_174"/>
<image clip-path="url(#cc_174)" preserveAspectRatio="none" x="152" y="670" width="75" height="77" xlink:href="img/11.png"/>
<path d="M204,740.3c0,0,-26.8,11.3,-51.1,-12.7c0,0,15.2,25.3,49.3,23.9c0,0,24.8,.4,20.3,-10.1c0,0,1.2,-4.4,-18.5,-1.1Z" class="ge_174"/>
<path d="M32.1,45.1H9.2m958.3,0h22.9M32.1,1331.3H9.2m958.3,0h22.9M45.1,32.1V9.2m0,1335.1v22.9M954.5,32.1V9.2m0,1335.1v22.9" class="gf_174"/>
<path d="M32.1,45.1H9.2m958.3,0h22.9M32.1,1331.3H9.2m958.3,0h22.9M45.1,32.1V9.2m0,1335.1v22.9M954.5,32.1V9.2m0,1335.1v22.9" class="gg_174"/>
<path d="M27.5,32.1H0m972.1,0h27.5M27.5,1344.3H0m972.1,0h27.5M32.1,27.5V0m0,1348.9v27.5M967.5,27.5V0m0,1348.9v27.5" class="gf_174"/>
<path d="M27.5,32.1H0m972.1,0h27.5M27.5,1344.3H0m972.1,0h27.5M32.1,27.5V0m0,1348.9v27.5M967.5,27.5V0m0,1348.9v27.5" class="gg_174"/>
</svg>