<?xml version="1.0" encoding="UTF-8" standalone="no"?>
<!DOCTYPE svg PUBLIC "-//W3C//DTD SVG 1.1//EN"
"http://www.w3.org/Graphics/SVG/1.1/DTD/svg11.dtd">
<svg viewBox="0 0 999 1376" version="1.1" xmlns="http://www.w3.org/2000/svg" xmlns:xlink="http://www.w3.org/1999/xlink">
<defs>
<clipPath id="c0_230"><path d="M708.6,626.9v-.8h1.8v.8Z"/></clipPath>
<clipPath id="c1_230"><path d="M692.4,667V651.8h11.4V667Z"/></clipPath>
<clipPath id="c2_230"><path d="M785.3,623.6v-.9h1.8v.9Z"/></clipPath>
<clipPath id="c3_230"><path d="M787.6,673.8v-3.3h20v3.3Z"/></clipPath>
<clipPath id="c4_230"><path d="M761.6,701.5V686.8h6.9v14.7Z"/></clipPath>
<clipPath id="c5_230"><path d="M772.7,702.1V689.5h2.5v12.6Z"/></clipPath>
<clipPath id="c6_230"><path d="M766.3,691.5v-1.2h8.3v1.2Z"/></clipPath>
<clipPath id="c7_230"><path d="M766.4,694.3v-1.8h8.2v1.8Z"/></clipPath>
<clipPath id="c8_230"><path d="M768.8,697.8v-3.7h5.1v3.7Z"/></clipPath>
<clipPath id="c9_230"><path d="M766.6,700.6v-4.8h6.7v4.8Z"/></clipPath>
<clipPath id="ca_230"><path d="M764.4,703.8V699h7.9v4.8Z"/></clipPath>
<clipPath id="cb_230"><path d="M761.8,703.9v-1.4h5.4v1.4Z"/></clipPath>
<clipPath id="cc_230"><path d="M767.1,705.7v-1.9h3.3v1.9Z"/></clipPath>
<clipPath id="cd_230"><path d="M668.7,727.6V681.7h63v45.9Z"/></clipPath>
<clipPath id="ce_230"><path d="M692.8,727.6V681.7h63v45.9Z"/></clipPath>
<clipPath id="cf_230"><path d="M705.6,625.7c-1.5,0,-2.9,-1,-3.2,-2.5c-.4,-1.7,.7,-3.4,2.5,-3.8c.2,-.1,.4,-.1,.7,-.1c1.5,0,2.8,1,3.1,2.5c.4,1.8,-.7,3.5,-2.5,3.9c-.2,0,-.4,0,-.6,0Z"/></clipPath>
<clipPath id="cg_230"><path d="M724.8,727.6V681.7h51.6v45.9Z"/></clipPath>
<clipPath id="ch_230"><path d="M699.4,657.6V646.9h9.4v10.7Z"/></clipPath>
<clipPath id="ci_230"><path d="M790.7,622.9c-.3,0,-.7,-.1,-1,-.2c-1.8,-.6,-2.8,-2.5,-2.2,-4.3c.5,-1.5,1.8,-2.4,3.2,-2.4c.4,0,.8,.1,1.1,.2c1.8,.6,2.8,2.5,2.2,4.3c-.5,1.5,-1.8,2.4,-3.3,2.4Z"/></clipPath>
<clipPath id="cj_230"><path d="M668.7,727.6V598.3H825.1V727.6Z"/></clipPath>
<clipPath id="ck_230"><path d="M760.9,727.6V681.2h64.2v46.4Z"/></clipPath>
<clipPath id="cl_230"><path d="M739.2,727.6V681.2h56.1v46.4Z"/></clipPath>
<clipPath id="cm_230"><path d="M177,850.2l-6.5,-2.1L154.1,834.2V777.1h72v73.1Z"/></clipPath>
<clipPath id="cn_230"><path d="M607.8,998.4V923.9h74.5v74.5Z"/></clipPath>
<clipPath id="co_230"><path d="M472.8,996.7V924.9h75.7v71.8Z"/></clipPath>
<clipPath id="cp_230"><path d="M338.8,998.5V923.9h74.6v74.6Z"/></clipPath>
<clipPath id="cq_230"><path d="M205.9,992.6V926.8h74.5v65.8Z"/></clipPath>
<clipPath id="cr_230"><path d="M685.9,355.7V256.5h99.9v99.2Z"/></clipPath>
<clipPath id="cs_230"><path d="M742.2,992.2V917.6h74.6v74.6Z"/></clipPath>
<clipPath id="ct_230"><path d="M668.4,727.8V598H825.8V727.8Z"/></clipPath>
<clipPath id="cu_230"><path d="M176.4,234.3l-6.5,-2.1L153.6,218.3V161.2h71.9v73.1Z"/></clipPath>
<style type="text/css"><![CDATA[
.g0_230{
fill: #FEFCF4;
}
.g1_230{
fill: #FCE8B0;
}
.g2_230{
fill: #FFF;
}
.g3_230{
fill: none;
stroke: #6381B7;
stroke-width: 0.763;
}
.g4_230{
fill: none;
stroke: #949698;
stroke-width: 0.381;
}
.g5_230{
fill: #93BEDA;
}
.g6_230{
fill: #F0E8F3;
}
.g7_230{
fill: #6381B7;
}
.g8_230{
fill: none;
stroke: #6381B7;
stroke-width: 0.381;
stroke-dasharray: 2,1;
}
.g9_230{
fill: none;
stroke: #6381B7;
stroke-width: 0.381;
}
.ga_230{
fill: #6D6659;
}
.gb_230{
fill: #271608;
}
.gc_230{
fill: #D7D7E7;
}
.gd_230{
fill: #F9B093;
}
.ge_230{
fill: #44271B;
}
.gf_230{
fill: #32271A;
}
.gg_230{
fill: #46362C;
}
.gh_230{
fill: #C98B7B;
}
.gi_230{
fill: #484A3B;
}
.gj_230{
fill: #FCD1BA;
}
.gk_230{
fill: #8D7887;
}
.gl_230{
fill: #2B2C2C;
}
.gm_230{
fill: #A3A5CB;
}
.gn_230{
fill: #369F8F;
}
.go_230{
fill: #225A64;
}
.gp_230{
fill: #807265;
}
.gq_230{
fill: #665B38;
}
.gr_230{
fill: #F6F2EF;
}
.gs_230{
fill: #C7762D;
}
.gt_230{
fill: #AEB8B2;
}
.gu_230{
fill: #7B8180;
}
.gv_230{
fill: #212111;
}
.gw_230{
fill: #669BB8;
}
.gx_230{
fill: #E2D2CA;
}
.gy_230{
fill: #8EBDD5;
}
.gz_230{
fill: #826A4F;
}
.g10_230{
fill: #988378;
}
.g11_230{
fill: #B6D4E5;
}
.g12_230{
fill: #A8CCDE;
}
.g13_230{
fill: #25408F;
}
.g14_230{
fill: #00BAF1;
}
.g15_230{
fill: #332D2C;
}
.g16_230{
fill: #D9DFF0;
}
.g17_230{
fill: #F27C85;
}
.g18_230{
fill: #7DD3F6;
}
.g19_230{
fill: none;
stroke: #FFF;
stroke-width: 1.909;
stroke-miterlimit: 10;
}
.g1a_230{
fill: none;
stroke: #000;
stroke-width: 0.381;
stroke-miterlimit: 10;
}
]]></style>
</defs>
<path d="M32.1,1344.3H954.5V32.1H32.1V1344.3Z" class="g0_230"/>
<path d="M209.6,805.2c0,0,-12.9,0,-12.9,13v21.7c0,0,0,13,12.9,13H833.3c0,0,13,0,13,-13V818.2c0,0,0,-13,-13,-13Z" class="g1_230"/>
<image clip-path="url(#cm_230)" preserveAspectRatio="none" x="153" y="775" width="75" height="77" xlink:href="img/1.png"/>
<path d="M204.4,845.5c0,0,-26.8,11.3,-51.1,-12.8c0,0,15.2,25.4,49.3,24c0,0,24.8,.3,20.3,-10.1c0,0,1.2,-4.5,-18.5,-1.1Z" class="g1_230"/>
<path d="M150.4,127.7c0,0,-18.3,0,-18.3,18.4V734.4c0,0,0,18.4,18.3,18.4H827.5c0,0,18.4,0,18.4,-18.4V127.7Z" class="g2_230"/>
<path d="M150.4,127.7c0,0,-18.3,0,-18.3,18.4V734.4c0,0,0,18.4,18.3,18.4H827.5c0,0,18.4,0,18.4,-18.4V127.7H150.4Z" class="g3_230"/>
<path d="M145.1,862.9c0,0,-13,0,-13,13V1183c0,0,0,13,13,13H832.9c0,0,13,0,13,-13V875.9c0,0,0,-13,-13,-13Z" class="g2_230"/>
<path d="M145.1,862.9c0,0,-13,0,-13,13V1183c0,0,0,13,13,13H832.9c0,0,13,0,13,-13V875.9c0,0,0,-13,-13,-13H145.1Z" class="g3_230"/>
<image clip-path="url(#cn_230)" preserveAspectRatio="none" x="608" y="924" width="74" height="74" xlink:href="img/2.jpg"/>
<image clip-path="url(#co_230)" preserveAspectRatio="none" x="473" y="926" width="75" height="74" xlink:href="img/3.jpg"/>
<image clip-path="url(#cp_230)" preserveAspectRatio="none" x="339" y="924" width="74" height="75" xlink:href="img/4.jpg"/>
<image clip-path="url(#cq_230)" preserveAspectRatio="none" x="206" y="924" width="75" height="75" xlink:href="img/5.jpg"/>
<path d="M189.6,355.9H319.1V256.7H189.6v99.2Z" class="g2_230"/>
<image preserveAspectRatio="none" x="205" y="257" width="99" height="99" xlink:href="img/6.png"/>
<path d="M189.6,355.9H319.1V256.7H189.6v99.2Z" class="g4_230"/>
<path d="M350.1,355.7H479.6V256.5H350.1v99.2Z" class="g2_230"/>
<image preserveAspectRatio="none" x="365" y="256" width="99" height="100" xlink:href="img/7.jpg"/>
<path d="M350.1,355.7H479.6V256.5H350.1v99.2Z" class="g4_230"/>
<path d="M510.6,355.7H640.1V256.5H510.6v99.2Z" class="g2_230"/>
<image preserveAspectRatio="none" x="526" y="256" width="99" height="100" xlink:href="img/8.jpg"/>
<path d="M510.6,355.7H640.1V256.5H510.6v99.2Z" class="g4_230"/>
<path d="M671.1,355.7H800.6V256.5H671.1v99.2Z" class="g2_230"/>
<image clip-path="url(#cr_230)" preserveAspectRatio="none" x="686" y="256" width="100" height="100" xlink:href="img/9.jpg"/>
<path d="M671.1,355.7H800.6V256.5H671.1v99.2Z" class="g4_230"/>
<path d="M189.6,524.3H319.1V425.1H189.6v99.2Z" class="g2_230"/>
<image preserveAspectRatio="none" x="205" y="425" width="99" height="99" xlink:href="img/10.jpg"/>
<path d="M189.6,524.3H319.1V425.1H189.6v99.2Z" class="g4_230"/>
<path d="M350.1,524.1H479.6V424.9H350.1v99.2Z" class="g2_230"/>
<image preserveAspectRatio="none" x="365" y="425" width="99" height="99" xlink:href="img/11.jpg"/>
<path d="M350.1,524.1H479.6V424.9H350.1v99.2Z" class="g4_230"/>
<path d="M510.6,524.1H640.1V424.9H510.6v99.2Z" class="g2_230"/>
<image preserveAspectRatio="none" x="526" y="425" width="99" height="99" xlink:href="img/12.jpg"/>
<path d="M510.6,524.1H640.1V424.9H510.6v99.2Z" class="g4_230"/>
<path d="M189.6,692.5H319.1V593.3H189.6v99.2Z" class="g2_230"/>
<image preserveAspectRatio="none" x="205" y="593" width="99" height="100" xlink:href="img/13.jpg"/>
<path d="M189.6,692.5H319.1V593.3H189.6v99.2Z" class="g4_230"/>
<path d="M350.1,692.3H479.6V593.1H350.1v99.2Z" class="g2_230"/>
<image preserveAspectRatio="none" x="365" y="593" width="99" height="99" xlink:href="img/14.jpg"/>
<path d="M350.1,692.3H479.6V593.1H350.1v99.2Z" class="g4_230"/>
<path d="M510.6,692.3H640.1V593.1H510.6v99.2Z" class="g2_230"/>
<image preserveAspectRatio="none" x="526" y="593" width="99" height="99" xlink:href="img/15.jpg"/>
<path d="M510.6,692.3H640.1V593.1H510.6v99.2Z" class="g4_230"/>
<image clip-path="url(#cs_230)" preserveAspectRatio="none" x="742" y="918" width="75" height="74" xlink:href="img/16.jpg"/>
<path d="M637.2,1134.4c2,0,3.6,-1.6,3.6,-3.6c0,-2,-1.6,-3.6,-3.6,-3.6c-2,0,-3.6,1.6,-3.6,3.6c0,2,1.6,3.6,3.6,3.6Z" class="g5_230"/>
<path d="M506.4,1134.4c2,0,3.6,-1.6,3.6,-3.6c0,-2,-1.6,-3.6,-3.6,-3.6c-2,0,-3.6,1.6,-3.6,3.6c0,2,1.6,3.6,3.6,3.6Z" class="g5_230"/>
<path d="M375.7,1134.4c2,0,3.6,-1.6,3.6,-3.6c0,-2,-1.6,-3.6,-3.6,-3.6c-2,0,-3.6,1.6,-3.6,3.6c0,2,1.6,3.6,3.6,3.6Z" class="g5_230"/>
<path d="M767.9,1134.4c2,0,3.6,-1.6,3.6,-3.6c0,-2,-1.6,-3.6,-3.6,-3.6c-2,0,-3.6,1.6,-3.6,3.6c0,2,1.6,3.6,3.6,3.6Z" class="g5_230"/>
<path d="M245,1134.4c2,0,3.6,-1.6,3.6,-3.6c0,-2,-1.6,-3.6,-3.6,-3.6c-2,0,-3.6,1.6,-3.6,3.6c0,2,1.6,3.6,3.6,3.6Z" class="g5_230"/>
<path d="M207.6,1145.5c0,0,-13,0,-13,13v6.4c0,0,0,13,13,13h82.3c0,0,13,0,13,-13v-6.4c0,0,0,-13,-13,-13Z" class="g6_230"/>
<path d="M337.9,1145.5c0,0,-13,0,-13,13v6.4c0,0,0,13,13,13h82.3c0,0,13,0,13,-13v-6.4c0,0,0,-13,-13,-13Z" class="g6_230"/>
<path d="M468.2,1145.5c0,0,-13,0,-13,13v6.4c0,0,0,13,13,13h82.3c0,0,13,0,13,-13v-6.4c0,0,0,-13,-13,-13Z" class="g6_230"/>
<path d="M594.1,1145.5c0,0,-8.6,0,-8.6,8.6v15.2c0,0,0,8.6,8.6,8.6h91c0,0,8.6,0,8.6,-8.6v-15.2c0,0,0,-8.6,-8.6,-8.6Z" class="g6_230"/>
<path d="M724.4,1145.5c0,0,-8.6,0,-8.6,8.6v15.2c0,0,0,8.6,8.6,8.6h91c0,0,8.6,0,8.6,-8.6v-15.2c0,0,0,-8.6,-8.6,-8.6Z" class="g6_230"/>
<path d="M637.2,1016.3c2,0,3.6,-1.6,3.6,-3.6c0,-2,-1.6,-3.6,-3.6,-3.6c-2,0,-3.6,1.6,-3.6,3.6c0,2,1.6,3.6,3.6,3.6Z" class="g5_230"/>
<path d="M506.4,1016.3c2,0,3.6,-1.6,3.6,-3.6c0,-2,-1.6,-3.6,-3.6,-3.6c-2,0,-3.6,1.6,-3.6,3.6c0,2,1.6,3.6,3.6,3.6Z" class="g5_230"/>
<path d="M375.7,1016.3c2,0,3.6,-1.6,3.6,-3.6c0,-2,-1.6,-3.6,-3.6,-3.6c-2,0,-3.6,1.6,-3.6,3.6c0,2,1.6,3.6,3.6,3.6Z" class="g5_230"/>
<path d="M767.9,1016.3c2,0,3.6,-1.6,3.6,-3.6c0,-2,-1.6,-3.6,-3.6,-3.6c-2,0,-3.6,1.6,-3.6,3.6c0,2,1.6,3.6,3.6,3.6Z" class="g5_230"/>
<path d="M245,1016.3c2,0,3.6,-1.6,3.6,-3.6c0,-2,-1.6,-3.6,-3.6,-3.6c-2,0,-3.6,1.6,-3.6,3.6c0,2,1.6,3.6,3.6,3.6Z" class="g5_230"/>
<path d="M603.2,1216.2c0,0,-4.4,0,-4.4,4.3v10.8c0,0,0,4.3,4.4,4.3h30.3c0,0,4.3,0,4.3,-4.3v-10.8c0,0,0,-4.3,-4.3,-4.3Z" class="g7_230"/>
<path d="M590,1208.7v34.8m1.3,1H843.8m.9,-1.4v-34.8m-1.3,-1H591" class="g8_230"/>
<path d="M590,1243.9v.6h.6m253.6,0h.5v-.6m0,-36v-.6h-.5m-253.6,0H590v.6" class="g9_230"/>
<path d="M668.7,727.6H825.1V598.3H668.7V727.6Z" class="g2_230"/>
<g clip-path="url(#ct_230)">
<image clip-path="url(#cd_230)" preserveAspectRatio="none" x="669" y="682" width="63" height="46" xlink:href="img/17.png"/>
<image clip-path="url(#ce_230)" preserveAspectRatio="none" x="693" y="682" width="63" height="46" xlink:href="img/18.png"/>
<path d="M716.4,685.4c0,.5,-.5,1,-1.1,1H686.8c-.6,0,-1.1,-.5,-1.1,-1v-2.1c0,-.6,.5,-1.1,1.1,-1.1h28.5c.6,0,1.1,.5,1.1,1.1Z" class="ga_230"/>
<path d="M675,646.4c0,.2,0,.5,0,.9c0,1.1,.7,2.6,1,3.7c1.1,4.2,2.3,8.4,3.5,12.6c1.7,6.3,3.4,14.2,5.2,20.5c.1,.4,7.8,.1,8.3,.1c8.2,0,16.3,-.1,24.4,.1c-.1,-2.8,1.9,-4.7,-1.8,-5.8c-2,-.6,-4.1,-.5,-6.1,-.5c-3.2,-.1,-6.4,-.1,-9.5,-.1c-4.1,0,-8.1,-.1,-12.2,-.1c-2,-7.1,-3.8,-13.8,-4.5,-21.2c-.3,-2.9,-1,-7,-2.7,-9.3c-1,-1.4,-5,-4.1,-5.6,-.9Z" class="gb_230"/>
<path d="M702.5,697.3c0,.7,-.6,1.2,-1.2,1.2h-1.2c-.6,0,-1.2,-.5,-1.2,-1.2V686.1c0,-.7,.6,-1.2,1.2,-1.2h1.2c.6,0,1.2,.5,1.2,1.2Z" class="ga_230"/>
<path d="M691.9,701.8c-.2,.1,-.5,-.1,-.6,-.4l-.3,-.6c-.1,-.3,0,-.7,.2,-.8l8.4,-3.2c.3,-.1,.6,.1,.7,.5l.2,.6c.1,.3,0,.6,-.2,.7Z" class="ga_230"/>
<path d="M709.6,701.8c.2,.1,.5,-.1,.7,-.4l.2,-.6c.1,-.3,0,-.7,-.2,-.8l-8.4,-3.2c-.2,-.1,-.5,.1,-.7,.5l-.2,.6c-.1,.3,0,.6,.2,.7Z" class="ga_230"/>
<path d="M693.6,702.4c0,1.1,-.8,1.9,-1.8,1.9c-1,0,-1.9,-.8,-1.9,-1.9c0,-1,.9,-1.8,1.9,-1.8c1,0,1.8,.8,1.8,1.8Z" class="ga_230"/>
<path d="M711.8,702.4c0,1.1,-.8,1.9,-1.8,1.9c-1,0,-1.9,-.8,-1.9,-1.9c0,-1,.9,-1.8,1.9,-1.8c1,0,1.8,.8,1.8,1.8Z" class="ga_230"/>
<path d="M707.3,668.1c.6,-5.7,1.3,-41.6,-11.4,-34.6c-3.1,1.7,-4.6,5.9,-5.3,9.2c-1,4.7,-1.1,9.7,-1.6,14.4c-.3,3.9,-.7,7.7,-1.1,11.6c0,1.9,.1,3.7,.8,5.2c.5,1.1,17.9,.2,17.8,.4c.7,-1.5,.6,-4.5,.8,-6.2Z" class="gc_230"/>
<path d="M696.6,603.6c-6.5,1.4,-11.6,9.4,-8.7,17.2c1,2.4,2.6,4.1,4.8,5.6c.7,.5,1.5,.8,2.2,1.2c2,1.3,3.7,2.6,5.9,3.5c2,.7,4.5,.9,6.5,.1c1.2,-.5,2,-1.4,2.3,-2.7c.1,-.6,-.1,-1.3,.2,-1.9c.3,-.4,1.1,-.6,.9,-1.2c-.2,0,-.3,-.2,-.5,-.3c.4,-.2,1,-.2,1.1,-.7c.1,-.4,-.4,-1.2,-.4,-1.6c.4,-.3,1.5,-.5,1.5,-1.2c0,-.4,-.6,-1.1,-.8,-1.5c-.8,-1.3,-.2,-2.3,0,-3.7c.5,-3.5,-1.7,-7.2,-4.2,-9.5c-2.7,-2.5,-6.4,-4,-10,-3.5c-.3,.1,-.5,.1,-.8,.2Z" class="gd_230"/>
<path d="M702.6,634.5c0,0,-6.9,.7,-7.7,-.3c-.4,-.6,0,-.7,.1,-1.4c.1,-.4,.9,-6,.6,-5.9c1.8,-.7,4.9,-.1,6.9,-.2c0,0,.1,7.8,.1,7.8Z" class="gd_230"/>
<path d="M708.4,612.3c-.1,.4,-.3,.8,-.6,1.2c1.6,-.7,3.3,-1.4,3.7,-3.3c.7,-2.9,-2,-5.8,-4.1,-7.5c-2,-1.7,-5.4,-1.8,-7.9,-1.7c-5.8,.3,-13.1,2.6,-14.3,9.1c-.7,3.5,-.2,7.2,1.5,10.4c1.4,2.8,3.8,4.4,6,6.5c.8,.7,1.2,1.4,1.8,2.2c.1,-.3,.1,-.7,.2,-1c.7,.4,1.4,1.2,1.3,-.4c.9,.4,1.4,.8,2.4,.7c0,-.4,-.1,-5.1,.3,-5.2c-2.4,.2,-4.1,-4.6,-1.7,-5.4c1.2,-.3,3.3,4.1,2.8,4.5c.4,-.3,1,-.4,1.4,-.5c-.3,-1.3,-.2,-2.6,-.3,-3.9c-.3,-4.9,5,-3.6,7.5,-5.7c.1,0,.1,-.1,0,0Z" class="ge_230"/>
<path d="M707.1,614.3c-.4,0,-2,.8,-2,1.4c.1,.8,1.8,-.4,2.2,-.4c.7,-.2,2.5,.8,3.1,.1c-.6,-.6,-2.5,-1.2,-3.3,-1.1Z" class="gf_230"/>
<image clip-path="url(#cf_230)" x="702" y="619" width="8" height="8" xlink:href="shade/1.png"/>
<path d="M709.7,619.3c.1,.5,-.2,1,-.7,1.1c-.5,.1,-.9,-.3,-1,-.9c-.1,-.5,.2,-1,.7,-1.1c.4,-.1,.9,.3,1,.9Z" class="gg_230"/>
<path d="M709.4,619.4c0,.1,0,.3,-.2,.3c-.1,0,-.2,-.1,-.2,-.3c0,-.1,0,-.3,.1,-.3c.2,0,.3,.1,.3,.3Z" class="g2_230"/>
<path d="M710.4,625c-1.2,.2,-1.9,.1,-2.9,-.7c.3,1.3,2.2,1.4,3.3,1.2c-.2,-.2,-.4,-.4,-.5,-.5Z" class="gi_230"/>
<g clip-path="url(#c0_230)" style="mix-blend-mode: multiply;">
<path clip-path="url(#c0_230)" d="M710.2,626.2c-.6,.2,-1,.1,-1.6,0c.4,.3,.8,.5,1.2,.7c.1,-.3,.3,-.6,.6,-.8Z" class="gh_230"/>
</g>
<path d="M711.5,622.5c-.7,-.2,-1.4,-.1,-2,.1c.3,.3,1.2,.1,1.5,.5c-.1,-.1,-.1,-.3,-.1,-.4c.3,-.1,.5,-.2,.8,-.3Z" class="gh_230"/>
<path d="M711.7,620.7c.3,.4,1,.9,.2,1.3c-.6,.2,-.5,-.8,-.2,-1.1Z" class="gj_230"/>
<path d="M696.6,628.7c.7,.3,1.5,1.5,2.2,2c1.2,.8,2.4,1.9,3.8,2.1c0,-.3,0,-1.2,0,-1.5c-.1,-.1,-5.4,-2.4,-6,-2.6Z" class="gh_230"/>
<path d="M688.5,673.4c0,0,-.8,7.9,7.9,7.9l12.8,.4l.5,-7.9Z" class="gk_230"/>
<path d="M695.3,631l-.8,2.9l8.2,3.5l.5,-3.7Z" class="gc_230"/>
<path d="M706.3,672.5l19,3.6l2.6,25.2l-4.5,.5l-4.2,-18.4l-25.1,-2.1Z" class="gk_230"/>
<path d="M723.9,701.6c0,0,-.4,1.8,-.3,2.7h7.1c0,0,.7,-2,-2.4,-2.5l-.4,-.5Z" class="gl_230"/>
<path d="M694.8,633.8l7.9,3.6L703,635l.4,.6l-.4,3.1l-8.9,-3.9Z" class="gm_230"/>
<path d="M702.7,637.4l1.6,2l.8,-.4c0,0,-.3,-3,-2,-4.5Z" class="gn_230"/>
<path d="M704.2,639.1c0,0,2.1,19.8,.7,27.8l2.1,5.8l2.5,-5.4c0,0,.2,-19.3,-4.4,-28.3Z" class="gn_230"/>
<path d="M704.2,639.3l.9,-.3l.2,.4l-1,.5Z" class="go_230"/>
<path d="M688.5,673.4c0,0,15.2,.1,17.8,-.9l-2.2,2.4c0,0,-12,2.8,-15.6,-1.5Z" class="gk_230"/>
<path d="M729.1,629.3h30.7V599.2H729.1v30.1Z" class="ge_230"/>
<path d="M746.6,601.2c0,0,-1.3,12.3,.2,16.4l.6,10.3h7.9c0,0,1,-5,0,-12.3c0,0,-.2,-7.6,1.3,-14.4Z" class="gp_230"/>
<path d="M751.8,601.2c-.1,2.7,-.7,6.6,.6,9c.3,.6,1.3,1.7,.8,2.5c-.8,1.3,-1.9,-.5,-2.6,-.6c-1.1,-.2,-1.1,2,-2.2,.1c-1.1,-1.8,.5,-1.1,.8,-2.3c.5,-2.6,.3,-5.7,.3,-8.6Z" class="gq_230"/>
<path d="M752.2,625c.3,.5,1.1,1,.7,1.8c-.3,.4,-1,.5,-1.4,.4c-.3,-.1,-.7,-.6,-1,-.5c-.2,.1,-.4,.6,-.7,.7c-.7,.3,-1.8,-.8,-1.2,-1.6c.2,-.4,.7,-.3,.9,-.7c.4,-.4,.3,-1.3,.3,-1.9c0,-1.3,.2,-2.9,-.2,-4.1c-.5,-1.5,-2.5,-2.3,-1.9,-4.3c.3,-.6,1,-1,1.6,-.9c.7,.2,.8,1,1.5,.9c.6,-.2,1,-.9,1.7,-.9c.7,-.1,1.5,0,1.7,.8c.4,1.4,-1.1,2.2,-1.7,3c-.7,1,-.7,2.5,-.7,3.7c0,1.1,-.2,2.6,.4,3.6Z" class="gq_230"/>
<path d="M742.6,601.2c0,0,1.3,12.3,-.2,16.4l-.6,10.3h-7.9c0,0,-1,-5,0,-12.3c0,0,.2,-7.6,-1.3,-14.4Z" class="gp_230"/>
<path d="M737.4,601.2c.1,2.7,.7,6.6,-.6,9c-.3,.6,-1.3,1.7,-.8,2.5c.8,1.3,1.9,-.5,2.6,-.6c1.1,-.2,1.1,2,2.2,.1c1.1,-1.8,-.5,-1.1,-.8,-2.3c-.5,-2.6,-.3,-5.7,-.3,-8.6Z" class="gq_230"/>
<path d="M737,625c-.3,.5,-1.1,1,-.7,1.8c.3,.4,1,.5,1.4,.4c.3,-.1,.7,-.6,1,-.5c.2,.1,.4,.6,.7,.7c.7,.3,1.8,-.8,1.2,-1.6c-.2,-.4,-.6,-.3,-.9,-.7c-.4,-.4,-.3,-1.3,-.3,-1.9c0,-1.3,-.2,-2.9,.2,-4.1c.5,-1.5,2.6,-2.3,1.9,-4.3c-.3,-.6,-1,-1,-1.6,-.9c-.6,.2,-.8,1,-1.5,.9c-.6,-.2,-1,-.9,-1.7,-.9c-.7,-.1,-1.5,0,-1.7,.8c-.4,1.4,1.1,2.2,1.7,3c.7,1,.7,2.5,.7,3.7c0,1.1,.2,2.6,-.4,3.6Z" class="gq_230"/>
<path d="M708.6,651.1l1.6,16.9l4.8,5.9l-7.2,8.9l-13.7,-1.5c0,0,-5.8,1.1,-6.2,-8.6c0,0,.3,-33.8,5.5,-37c0,0,8.9,4.1,15.2,15.4Z" class="gr_230"/>
<path d="M693.2,634.8c0,0,8.4,4.1,15.4,16.3l-4.3,-1.5l-1.6,-5.5l-5.5,-2l-4.6,-6.2Z" class="g2_230"/>
<image clip-path="url(#cg_230)" preserveAspectRatio="none" x="725" y="682" width="51" height="46" xlink:href="img/19.png"/>
<path d="M718.3,704.6H715l-1.1,-35.2h4.4Z" class="ga_230"/>
<path d="M754.1,704.6h-3.3V669.4h4.5Z" class="ga_230"/>
<path d="M754.5,673.9c0,.6,-.5,1.1,-1.1,1.1H716.1c-.6,0,-1.1,-.5,-1.1,-1.1v-4.1c0,-.7,.5,-1.2,1.1,-1.2h37.3c.6,0,1.1,.5,1.1,1.2Z" class="ga_230"/>
<path d="M703.8,670.5h62.7v-5H703.8v5Z" class="gs_230"/>
<path d="M702.9,657.6h4.9V652h-4.9v5.6Z" class="g2_230"/>
<path d="M733.4,661.1c0,.4,-.2,.7,-.5,.7c-.3,0,-.5,-.3,-.5,-.7v-5.5c0,-.4,.2,-.7,.5,-.7c.3,0,.5,.3,.5,.7Z" class="gt_230"/>
<path d="M735,661.2c0,.3,-.2,.6,-.4,.6c-.3,0,-.5,-.3,-.5,-.6v-4.6c0,-.3,.2,-.6,.5,-.6c.2,0,.4,.3,.4,.6Z" class="gt_230"/>
<path d="M731.6,665.3h4.7v-6.8h-4.7v6.8Z" class="gu_230"/>
<path d="M761.3,657.7c0,1.6,-1.5,3,-3.2,3h-17c-1.8,0,-3.2,-1.4,-3.2,-3v-21c0,-1.7,1.4,-3,3.2,-3h17c1.7,0,3.2,1.3,3.2,3Z" class="gv_230"/>
<path d="M757.6,656.7c0,1.4,-1.2,2.6,-2.6,2.6H741.5c-1.4,0,-2.6,-1.2,-2.6,-2.6v-19c0,-1.4,1.2,-2.6,2.6,-2.6H755c1.4,0,2.6,1.2,2.6,2.6Z" class="gw_230"/>
<path d="M751.3,664.5h-3.2l.6,-4.1h2Z" class="gv_230"/>
<path d="M745.2,665.3h9.1v-1.4h-9.1v1.4Z" class="gv_230"/>
<path d="M695.3,642.4l12.5,15.2L717,645.9l5.1,3.1l-11,16.4h-5.8l-1.5,.1l-10,-14.3c0,0,-5.3,-7.8,1.5,-8.8Z" class="gr_230"/>
<g clip-path="url(#c1_230)" style="mix-blend-mode: multiply;">
<path clip-path="url(#c1_230)" d="M692.4,651.8l11.4,13.7V667Z" class="gx_230"/>
</g>
<g clip-path="url(#ch_230)" style="mix-blend-mode: multiply;">
<path d="M707.8,657.6l-8.4,-10.7l9.4,9.7Z" class="gx_230"/>
</g>
<path d="M717.4,646.2c0,-2.3,-.5,-4.8,-.3,-7c1.5,-.9,1.6,2.7,1.7,3.6c.7,-1.5,1.2,-3.3,1.7,-4.8c0,0,.7,.2,.8,.3c-.1,1.2,-.5,2.4,-.6,3.6c.1,-.7,1.7,-5.4,2.5,-3.3c.3,.5,-.3,2.5,-.6,3c.5,-1,1.1,-1.9,1.8,-2.7c.2,0,.6,.2,.7,.3c.4,.2,-1.1,3.5,-1.3,3.8c.4,-.6,1.3,-1.6,1.8,-2.2c.1,0,.6,.3,.7,.4c-1.3,2.3,-2.8,6.3,-5.8,6.7Z" class="gd_230"/>
<path d="M793.5,631.5c0,-.1,7.1,1.6,7.9,.5c.4,-.5,.4,-.2,0,-2.3c-.1,-.5,-1,-6.3,-.6,-6.2c-1.9,-.7,-5.2,-.1,-7.2,-.1c0,0,-.1,8.1,-.1,8.1Z" class="gd_230"/>
<path d="M789.6,671.1l-19.9,3.8L767,701.3l4.1,.1l4.4,-19.6l23.9,-2.7Z" class="gd_230"/>
<path d="M808.1,672.2c0,0,-15.8,0,-18.5,-1.1l2.3,2.6c0,0,12.6,3,16.2,-1.5Z" class="gk_230"/>
<path d="M780.9,681.8l19,-1.4c10.7,-1,7.6,-10.2,7.6,-10.2c-6,0,-17.9,0,-17.9,0l-20,3.4l-.6,1.8l-1.4,6.1l9.6,3.9l.9,-3Z" class="gy_230"/>
<path d="M802.3,600.3c5.9,2,7.8,9.1,7,14.6c-1.1,7.5,-7.5,12.3,-14.5,14.1c-2.1,.6,-4.8,.5,-6.8,-.5c-1.2,-.7,-2,-1.8,-2.1,-3.2c-.1,-.6,.1,-1.4,-.1,-2c-.2,-.5,-1,-.7,-.8,-1.4c.2,0,.4,-.1,.5,-.2c-.4,-.3,-1,-.4,-1,-.9c-.1,-.4,.5,-1.3,.6,-1.7c-.5,-.3,-1.6,-.7,-1.5,-1.4c.1,-.4,.8,-1.1,1.1,-1.5c.9,-1.3,.3,-2.4,.3,-3.9c-.1,-3.8,2.6,-7.5,5.6,-9.7c3,-2.3,7.1,-3.4,10.9,-2.5c.3,.1,.6,.1,.8,.2Z" class="gd_230"/>
<image clip-path="url(#ci_230)" x="786" y="616" width="9" height="8" xlink:href="shade/2.png"/>
<path d="M786.7,615.5c-.1,.6,.2,1.2,.6,1.3c.5,.1,1,-.2,1.2,-.8c.2,-.6,-.1,-1.2,-.6,-1.3c-.5,-.1,-1,.3,-1.2,.8Z" class="gg_230"/>
<path d="M787,615.7c0,.1,0,.3,.2,.3c.1,.1,.2,0,.3,-.2c0,-.2,0,-.4,-.2,-.4c-.1,0,-.2,.1,-.3,.3Z" class="g2_230"/>
<path d="M785.3,621.5c1.3,.4,2.1,.3,3.2,-.4c-.4,1.4,-2.5,1.3,-3.6,.9c.2,-.1,.4,-.3,.6,-.4Z" class="gi_230"/>
<g clip-path="url(#c2_230)" style="mix-blend-mode: multiply;">
<path clip-path="url(#c2_230)" d="M785.5,622.9c.6,.2,1,.2,1.6,.1c-.4,.2,-.8,.4,-1.3,.6c-.1,-.3,-.3,-.6,-.5,-.9Z" class="gh_230"/>
</g>
<path d="M784.5,618.8c.7,-.2,1.4,0,2.1,.3c-.4,.3,-1.4,0,-1.6,.3c0,-.1,0,-.2,.1,-.3c-.3,-.1,-.5,-.3,-.8,-.4Z" class="gh_230"/>
<path d="M784.4,616.9c-.3,.4,-1.1,.8,-.3,1.3c.6,.3,.6,-.8,.3,-1.2Z" class="gj_230"/>
<path d="M786.4,613.4c0,0,1.6,-2.3,3.2,.4c0,0,-1.5,-1.5,-3.2,-.4Z" class="gz_230"/>
<path d="M793.1,628.7c0,0,3.1,-1.8,4.9,-3.7c0,0,-3.1,4.3,-4.6,5.3Z" class="gh_230"/>
<path clip-path="url(#cj_230)" d="M803.1,625.7c-.9,.4,-1.9,.6,-2.4,-.3c-.4,-.8,.3,-1.5,.3,-2.3c-1.4,.4,-2.6,-.7,-1.7,-2.1c2,.6,3.7,-2.7,3,-4.3c-1.7,-3.9,-3.6,2,-5.1,1.6c0,-1.1,-.7,-1.5,-1.7,-1.4c.4,-1.4,-4.5,-3.5,-6,-3.1c-1.5,.5,-3.9,2,-3.8,-1.2c-1.1,.3,-2.9,.4,-3.7,-.7c-.8,-1.2,.3,-1.2,.3,-2.2c.1,-.7,-.4,-1.5,-.2,-2.2c.2,-.6,1,-.4,1.2,-.8c.4,-.7,.5,-1,.8,-1.7c.5,-1.3,-.1,-1.8,1.6,-2.4c1.4,-.6,2,-.1,3.3,-1.2c1,-.9,1.5,-2.1,3,-2.2c.8,-.1,1.4,.5,2.2,.5c1.1,-.1,1.9,-.9,3,-1.1c1.5,-.3,2,.6,3.3,.9c1.3,.3,2.5,-.4,3.7,-.1c2.4,.7,2,3.3,2.9,5c.6,1.1,2.1,1.2,3.1,1.8c2.5,1.7,.9,2.2,.2,4.4c-.7,2,1.6,2.4,1.4,4.4c-.2,2.1,-2.7,1.8,-2.6,4c.1,1.7,1.8,2.3,-.9,3.5c-.7,.3,-1.4,0,-2,.3c-1.3,.6,-.7,.9,-1.6,1.8c-.3,.3,-1,.8,-1.6,1.1Z" class="g10_230"/>
<image clip-path="url(#ck_230)" preserveAspectRatio="none" x="761" y="681" width="64" height="47" xlink:href="img/20.png"/>
<image clip-path="url(#cl_230)" preserveAspectRatio="none" x="739" y="681" width="56" height="47" xlink:href="img/21.png"/>
<path d="M795.4,696.9c0,.7,-.5,1.2,-1.2,1.2H793c-.7,0,-1.3,-.5,-1.3,-1.2V685.2c0,-.7,.6,-1.3,1.3,-1.3h1.2c.7,0,1.2,.6,1.2,1.3Z" class="ga_230"/>
<path d="M784.4,701.6c-.2,.1,-.5,-.1,-.7,-.5l-.2,-.6c-.1,-.3,0,-.7,.2,-.8l8.8,-3.3c.2,-.1,.5,.1,.7,.4l.2,.7c.1,.3,0,.7,-.2,.8Z" class="ga_230"/>
<path d="M802.9,701.6c.2,.1,.6,-.1,.7,-.5l.2,-.6c.2,-.3,.1,-.7,-.2,-.8l-8.7,-3.3c-.3,-.1,-.6,.1,-.7,.4l-.3,.7c-.1,.3,0,.7,.2,.8Z" class="ga_230"/>
<path d="M786.2,702.2c0,1.1,-.9,2,-1.9,2c-1.1,0,-2,-.9,-2,-2c0,-1,.9,-1.9,2,-1.9c1,0,1.9,.9,1.9,1.9Z" class="ga_230"/>
<path d="M805.2,702.2c0,1.1,-.8,2,-1.9,2c-1.1,0,-1.9,-.9,-1.9,-2c0,-1,.8,-1.9,1.9,-1.9c1.1,0,1.9,.9,1.9,1.9Z" class="ga_230"/>
<path d="M808.6,682.6c0,1.4,-1.2,2.6,-2.6,2.6H781.2c-1.4,0,-2.6,-1.2,-2.6,-2.6c0,-1.5,1.2,-2.6,2.6,-2.6H806c1.4,0,2.6,1.1,2.6,2.6Z" class="gb_230"/>
<path d="M791.6,635.6l10.1,-4.2c5.1,4.8,3.5,24.6,3.5,24.6l2.3,14.2l-19,.3c-.6,-29.8,1.6,-31.8,1.6,-31.8Z" class="gy_230"/>
<path d="M790,638.7l11.7,-7.3l1.5,1.2l-3.3,3l-4,.4l-1.4,2.5Z" class="g11_230"/>
<path d="M793.5,631.5c0,0,-2.9,4.8,-3.5,7.2l11.7,-7.3Z" class="gd_230"/>
<path d="M767.2,682.5c-.2,-.4,-.4,-.8,-.3,-1.3c.3,-3.9,6.4,-.1,8.1,.8c2.5,1.3,4,1.7,2.4,4.6c-.7,1.2,-9.4,-3.1,-10.2,-4.1Z" class="g12_230"/>
<path d="M768.1,687.4c-1.4,.1,-1.8,1.5,-1.7,4.3c0,2.1,0,4.3,-.2,6.4c-1.2,-.3,-2.7,.8,-3.5,1.6c-1,1.3,-1.4,2.6,-.4,4c1.7,2.3,6.4,2.4,8.6,.9c2.6,-1.8,2.4,-6.1,3.3,-8.8c.7,-2,1.9,-3.6,.5,-5.4c-.8,-1.1,-2.6,-1.8,-3.7,-2.3c-1.3,-.5,-2.2,-.7,-2.9,-.7Z" class="g2_230"/>
<g clip-path="url(#c3_230)" style="mix-blend-mode: multiply;">
<path clip-path="url(#c3_230)" d="M788.5,670.5c0,0,9.1,5.5,19.1,1v.6c0,0,-9.6,4.7,-20,-1.6Z" class="gy_230"/>
</g>
<path d="M779.1,669.7c-1.1,.5,-3.1,.3,-4.1,1c-.9,.6,-1.3,2.3,-1.6,3.2c.7,.3,1.2,-.1,1.6,-.9c-.3,.6,-.5,1.2,-.6,1.8c.2,.3,.5,.5,.9,.6c.4,-.6,.7,-1,1.1,-1.6c-.2,.5,-.2,1.1,-.4,1.6c.2,0,.6,.2,.8,.2c1.6,-1.5,3,-2,5.3,-2.7c-.9,-.9,-2.3,-1.7,-3,-2.8Z" class="gd_230"/>
<path d="M796.1,641.5L791.4,657l-12.9,12.6l3.3,3.2l15.4,-12l5.9,-15.9Z" class="gy_230"/>
<path d="M778.5,669.6l3.3,3.2L794,663.2l8.8,-18.8L794.6,664l-12.4,9.8Z" class="gw_230"/>
<path d="M788.5,660.1L795.2,643l-6.8,14.7Z" class="gw_230"/>
<g clip-path="url(#c4_230)" style="mix-blend-mode: multiply;">
<path clip-path="url(#c4_230)" d="M761.7,701.5c.4,-1.8,3,-2.5,4.5,-3c.2,.4,.4,.1,.4,.1l-.2,-9.7c0,0,.7,-1.6,2,-1.6l.1,-.5c0,0,-3.1,-.2,-2.7,2.9v8.1c0,0,-3.1,0,-4.2,3.1Z" class="gx_230"/>
</g>
<g clip-path="url(#c5_230)" style="mix-blend-mode: multiply;">
<path clip-path="url(#c5_230)" d="M772.7,702.1c0,0,3.3,-11.7,1.2,-12.6c0,0,3.5,.2,-1.2,12.6Z" class="gx_230"/>
</g>
<g clip-path="url(#c6_230)" opacity="0.54" style="mix-blend-mode: multiply;">
<path clip-path="url(#c6_230)" d="M766.3,690.3c0,0,5,1.8,8.3,.3c0,0,-2.8,1.9,-8.2,.2Z" class="gx_230"/>
</g>
<g clip-path="url(#c7_230)" opacity="0.54" style="mix-blend-mode: multiply;">
<path clip-path="url(#c7_230)" d="M766.4,693.1c0,0,5.3,1.9,8.2,-.6c0,0,-2.3,3.3,-8.2,1Z" class="gx_230"/>
</g>
<g clip-path="url(#c8_230)" opacity="0.54" style="mix-blend-mode: multiply;">
<path clip-path="url(#c8_230)" d="M769.2,694.2c0,0,2.7,3.5,4.7,3.1l-.1,.5c0,0,-1.6,.5,-5,-3.7Z" class="gx_230"/>
</g>
<g clip-path="url(#c9_230)" opacity="0.54" style="mix-blend-mode: multiply;">
<path clip-path="url(#c9_230)" d="M766.6,695.8c0,0,2.7,5.4,6.7,4.1l-.1,.7c0,0,-4.6,.9,-6.6,-4.8Z" class="gx_230"/>
</g>
<g clip-path="url(#ca_230)" opacity="0.54" style="mix-blend-mode: multiply;">
<path clip-path="url(#ca_230)" d="M764.6,699c0,0,3.1,6,7.7,3.9l-.1,.5c0,0,-4.2,2.5,-7.8,-4.3Z" class="gx_230"/>
</g>
<g clip-path="url(#cb_230)" opacity="0.54" style="mix-blend-mode: multiply;">
<path clip-path="url(#cb_230)" d="M761.9,703.1c0,0,3.1,2,5.3,-.3c0,0,-2.4,1.9,-5.4,-.3Z" class="gx_230"/>
</g>
<g clip-path="url(#cc_230)" opacity="0.54" style="mix-blend-mode: multiply;">
<path clip-path="url(#cc_230)" d="M769.9,703.8c0,0,-1.2,1.6,-2.8,1.9c0,0,1.9,0,3.3,-1.8Z" class="gx_230"/>
</g>
</g>
<path d="M209.1,163.3c0,0,-13,0,-13,13V224c0,0,0,13,13,13H811c0,0,13,0,13,-13V176.3c0,0,0,-13,-13,-13Z" class="g1_230"/>
<image clip-path="url(#cu_230)" preserveAspectRatio="none" x="152" y="160" width="75" height="76" xlink:href="img/22.png"/>
<path d="M203.9,229.6c0,0,-26.9,11.3,-51.1,-12.8c0,0,15.1,25.4,49.2,24c0,0,24.8,.4,20.3,-10.1c0,0,1.2,-4.5,-18.4,-1.1Z" class="g1_230"/>
<path d="M131.7,126.7v22.2l11.7,10.3V137Z" class="g13_230"/>
<path d="M131.7,109.9v39H829.4c0,0,16.9,0,16.9,-16.8v-5.4c0,0,0,-16.8,-16.9,-16.8Z" class="g7_230"/>
<path d="M189.6,121.3l-6.4,-6.5L162,136l6.4,6.5Z" class="g14_230"/>
<path d="M168.4,143c.2,0,.3,0,.4,-.1L190,121.7c.1,-.1,.2,-.3,.2,-.4c0,-.1,-.1,-.3,-.2,-.4l-6.5,-6.4c-.2,-.2,-.5,-.2,-.7,0l-21.2,21.2c-.1,.1,-.2,.2,-.2,.3c0,.2,.1,.3,.2,.4l6.5,6.5c.1,.1,.2,.1,.3,.1m20.5,-21.7l-20.5,20.5L162.7,136l20.5,-20.4Z" class="g15_230"/>
<path d="M189.6,121.3l-6.4,-6.5l2.1,-2.1l6.5,6.5Z" class="g16_230"/>
<path d="M189.6,121.8c.2,0,.3,0,.4,-.1l2.1,-2.1c.1,-.1,.2,-.3,.2,-.4c0,-.2,-.1,-.3,-.2,-.4l-6.4,-6.5c-.2,-.2,-.6,-.2,-.8,0l-2.1,2.2c-.1,0,-.2,.2,-.2,.3c0,.2,.1,.3,.2,.4l6.5,6.5c.1,.1,.2,.1,.3,.1m1.4,-2.6l-1.4,1.4l-5.7,-5.8l1.4,-1.4Z" class="g15_230"/>
<path d="M195.4,115.6l-6.5,-6.5l-3.6,3.6l6.5,6.5Z" class="g17_230"/>
<path d="M191.8,119.7c.1,0,.2,0,.3,-.1l3.7,-3.7c.2,-.2,.2,-.5,0,-.7l-6.5,-6.5c-.2,-.2,-.6,-.2,-.8,0l-3.6,3.6c-.2,.2,-.2,.6,0,.8l6.5,6.5c.1,.1,.2,.1,.4,.1m2.8,-4.1l-2.8,2.8L186,112.7l2.9,-2.9Z" class="g15_230"/>
<path d="M157.3,147.2L162,136l6.4,6.5Z" class="g2_230"/>
<path d="M157.3,147.7c.1,0,.2,0,.2,-.1L168.6,143c.2,-.1,.3,-.2,.4,-.4c0,-.2,-.1,-.3,-.2,-.5l-6.5,-6.4c-.1,-.2,-.3,-.2,-.5,-.2c-.1,.1,-.3,.2,-.3,.3l-4.7,11.1c0,.2,0,.5,.1,.6c.1,.1,.3,.2,.4,.2m10.2,-5.4l-9.2,3.9l3.8,-9.2Z" class="g15_230"/>
<path d="M157.3,147.2l2.3,-5.4l3.1,3.1Z" class="g15_230"/>
<path d="M157.3,147.7c.1,0,.2,0,.2,-.1l5.4,-2.2c.1,-.1,.3,-.2,.3,-.4c0,-.2,0,-.3,-.1,-.5l-3.2,-3.1c-.1,-.1,-.3,-.2,-.4,-.1c-.2,0,-.4,.1,-.4,.3l-2.3,5.3c0,.2,0,.5,.1,.6c.1,.1,.3,.2,.4,.2m4.5,-3l-3.5,1.5l1.4,-3.5Z" class="g15_230"/>
<path d="M187.9,119.5l-3,-2.9l-21.2,21.2l3,3Z" class="g18_230"/>
<path d="M166.7,141.3c.1,0,.2,-.1,.3,-.2l21.3,-21.2c.1,-.1,.1,-.2,.1,-.4c0,-.1,0,-.2,-.1,-.3l-3,-3c-.2,-.2,-.5,-.2,-.8,0l-21.2,21.2c-.1,.1,-.1,.3,-.1,.4c0,.1,0,.3,.1,.4l3,2.9c.1,.1,.2,.2,.4,.2m20.4,-21.8L166.7,140l-2.2,-2.2l20.4,-20.5Z" class="g15_230"/>
<path d="M32.1,45.1H9.2m958.3,0h22.9M32.1,1331.3H9.2m958.3,0h22.9M45.1,32.1V9.2m0,1335.1v22.9M954.5,32.1V9.2m0,1335.1v22.9" class="g19_230"/>
<path d="M32.1,45.1H9.2m958.3,0h22.9M32.1,1331.3H9.2m958.3,0h22.9M45.1,32.1V9.2m0,1335.1v22.9M954.5,32.1V9.2m0,1335.1v22.9" class="g1a_230"/>
<path d="M27.5,32.1H0m972.1,0h27.5M27.5,1344.3H0m972.1,0h27.5M32.1,27.5V0m0,1348.9v27.5M967.5,27.5V0m0,1348.9v27.5" class="g19_230"/>
<path d="M27.5,32.1H0m972.1,0h27.5M27.5,1344.3H0m972.1,0h27.5M32.1,27.5V0m0,1348.9v27.5M967.5,27.5V0m0,1348.9v27.5" class="g1a_230"/>
</svg>