<?xml version="1.0" encoding="UTF-8" standalone="no"?>
<!DOCTYPE svg PUBLIC "-//W3C//DTD SVG 1.1//EN"
"http://www.w3.org/Graphics/SVG/1.1/DTD/svg11.dtd">
<svg viewBox="0 0 999 1376" version="1.1" xmlns="http://www.w3.org/2000/svg" xmlns:xlink="http://www.w3.org/1999/xlink">
<defs>
<clipPath id="c0_50"><path d="M198.1,365.2V266h99.2v99.2Z"/></clipPath>
<clipPath id="c1_50"><path d="M525.3,365.2V266h99.2v99.2Z"/></clipPath>
<clipPath id="c2_50"><path d="M361.7,365.2V266h99.2v99.2Z"/></clipPath>
<clipPath id="c3_50"><path d="M688.9,365.2V266h99.2v99.2Z"/></clipPath>
<clipPath id="c4_50"><path d="M198.1,527.7V428.5h99.2v99.2Z"/></clipPath>
<clipPath id="c5_50"><path d="M361.7,527.7V428.5h99.2v99.2Z"/></clipPath>
<clipPath id="c6_50"><path d="M525.3,527.7V428.5h99.2v99.2Z"/></clipPath>
<clipPath id="c7_50"><path d="M688.9,527.7V428.5h99.2v99.2Z"/></clipPath>
<clipPath id="c8_50"><path d="M653.9,895.9V793.5H755.5V895.9Z"/></clipPath>
<clipPath id="c9_50"><path d="M653.9,1044.8V942.5H773.8v102.3Z"/></clipPath>
<clipPath id="ca_50"><path d="M654.6,1076.3V788.6H775v287.7Z"/></clipPath>
<clipPath id="cb_50"><path d="M503.4,895.4V793.6H605.2V895.4Z"/></clipPath>
<clipPath id="cc_50"><path d="M495,1044.8V942.5H614.9v102.3Z"/></clipPath>
<clipPath id="cd_50"><path d="M495,1077.4V788.6H615.4v288.8Z"/></clipPath>
<clipPath id="ce_50"><path d="M342.8,895.4V793.6H446.6V895.4Z"/></clipPath>
<clipPath id="cf_50"><path d="M340,1044.8V943H453.2v101.8Z"/></clipPath>
<clipPath id="cg_50"><path d="M191.4,895.4V793.6H293.2V895.4Z"/></clipPath>
<clipPath id="ch_50"><path d="M183.6,1044.8V943H285.4v101.8Z"/></clipPath>
<clipPath id="ci_50"><path d="M177,239.5l-6.5,-2.1l-16.4,-14V166.3h72v73.2Z"/></clipPath>
<clipPath id="cj_50"><path d="M177,693.7l-6.5,-2.1L154.1,677.7V620.6h72v73.1Z"/></clipPath>
<style type="text/css"><![CDATA[
.g0_50{
fill: #FEFCF4;
}
.g1_50{
fill: #FFF;
}
.g2_50{
fill: none;
stroke: #6381B7;
stroke-width: 0.763;
}
.g3_50{
fill: #48484A;
}
.g4_50{
fill: #F0E8F3;
}
.g5_50{
fill: #766FA6;
}
.g6_50{
fill: none;
stroke: #949698;
stroke-width: 0.381;
}
.g7_50{
fill: none;
stroke: #949698;
stroke-width: 0.549;
}
.g8_50{
fill: none;
stroke: #231F20;
stroke-width: 0.611;
}
.g9_50{
fill: #6381B7;
}
.ga_50{
fill: none;
stroke: #6381B7;
stroke-width: 0.381;
stroke-dasharray: 2,1;
}
.gb_50{
fill: none;
stroke: #6381B7;
stroke-width: 0.381;
}
.gc_50{
fill: #FCE8B0;
}
.gd_50{
fill: #25408F;
}
.ge_50{
fill: #00BAF1;
}
.gf_50{
fill: #332D2C;
}
.gg_50{
fill: #D9DFF0;
}
.gh_50{
fill: #F27C85;
}
.gi_50{
fill: #7DD3F6;
}
.gj_50{
fill: none;
stroke: #FFF;
stroke-width: 1.909;
stroke-miterlimit: 10;
}
.gk_50{
fill: none;
stroke: #000;
stroke-width: 0.381;
stroke-miterlimit: 10;
}
]]></style>
</defs>
<path d="M32.1,1344.3H954.5V32.1H32.1V1344.3Z" class="g0_50"/>
<path d="M145.1,711.6c0,0,-13,0,-13,13V1166c0,0,0,13,13,13H832.9c0,0,13,0,13,-13V724.6c0,0,0,-13,-13,-13Z" class="g1_50"/>
<path d="M145.1,711.6c0,0,-13,0,-13,13V1166c0,0,0,13,13,13H832.9c0,0,13,0,13,-13V724.6c0,0,0,-13,-13,-13H145.1Z" class="g2_50"/>
<path d="M170.7,1105.9c0,0,-4.4,0,-4.4,4.3v14.4c0,0,0,4.4,4.1,5.8l52.5,18.2c0,0,4.1,1.4,4.1,-2.9v-35.5c0,0,0,-4.3,-4.4,-4.3Z" class="g3_50"/>
<path d="M191.8,1093.1c0,0,-13,0,-13,13v41.1c0,0,0,13,13,13H789.4c0,0,13,0,13,-13v-41.1c0,0,0,-13,-13,-13Z" class="g4_50"/>
<path d="M170.7,1103.8c0,0,-4.4,0,-4.4,4.3V1125c0,0,0,4.4,4.4,4.4H208c0,0,4.3,0,4.3,-4.4v-16.9c0,0,0,-4.3,-4.3,-4.3Z" class="g5_50"/>
<path d="M150.4,133.7c0,0,-18.3,0,-18.3,18.3V582.3c0,0,0,18.3,18.3,18.3H827.5c0,0,18.4,0,18.4,-18.3V133.7Z" class="g1_50"/>
<path d="M150.4,133.7c0,0,-18.3,0,-18.3,18.3V582.3c0,0,0,18.3,18.3,18.3H827.5c0,0,18.4,0,18.4,-18.3V133.7H150.4Z" class="g2_50"/>
<path d="M187.4,365.2H307.9V266H187.4v99.2Z" class="g1_50"/>
<image clip-path="url(#c0_50)" preserveAspectRatio="none" x="198" y="266" width="99" height="99" xlink:href="img/1.jpg"/>
<path d="M187.4,365.2H307.9V266H187.4v99.2Z" class="g6_50"/>
<path d="M514.6,365.2H635.1V266H514.6v99.2Z" class="g1_50"/>
<image clip-path="url(#c1_50)" preserveAspectRatio="none" x="525" y="266" width="99" height="99" xlink:href="img/2.jpg"/>
<path d="M514.6,365.2H635.1V266H514.6v99.2Z" class="g6_50"/>
<path d="M351,365.2H471.5V266H351v99.2Z" class="g1_50"/>
<image clip-path="url(#c2_50)" preserveAspectRatio="none" x="362" y="266" width="99" height="99" xlink:href="img/3.jpg"/>
<path d="M351,365.2H471.5V266H351v99.2Z" class="g6_50"/>
<path d="M678.2,365.2H798.7V266H678.2v99.2Z" class="g1_50"/>
<image clip-path="url(#c3_50)" preserveAspectRatio="none" x="689" y="266" width="99" height="99" xlink:href="img/4.jpg"/>
<path d="M678.2,365.2H798.7V266H678.2v99.2Z" class="g6_50"/>
<path d="M187.4,527.7H307.9V428.5H187.4v99.2Z" class="g1_50"/>
<image clip-path="url(#c4_50)" preserveAspectRatio="none" x="198" y="429" width="99" height="99" xlink:href="img/5.jpg"/>
<path d="M187.4,527.7H307.9V428.5H187.4v99.2Z" class="g6_50"/>
<path d="M351,527.7H471.5V428.5H351v99.2Z" class="g1_50"/>
<image clip-path="url(#c5_50)" preserveAspectRatio="none" x="362" y="429" width="99" height="99" xlink:href="img/6.jpg"/>
<path d="M351,527.7H471.5V428.5H351v99.2Z" class="g6_50"/>
<path d="M514.6,527.7H635.1V428.5H514.6v99.2Z" class="g1_50"/>
<image clip-path="url(#c6_50)" preserveAspectRatio="none" x="525" y="429" width="99" height="99" xlink:href="img/7.jpg"/>
<path d="M514.6,527.7H635.1V428.5H514.6v99.2Z" class="g6_50"/>
<path d="M678.2,527.7H798.7V428.5H678.2v99.2Z" class="g1_50"/>
<image clip-path="url(#c7_50)" preserveAspectRatio="none" x="689" y="429" width="99" height="99" xlink:href="img/8.jpg"/>
<path d="M678.2,527.7H798.7V428.5H678.2v99.2Z" class="g6_50"/>
<image clip-path="url(#c8_50)" preserveAspectRatio="none" x="653" y="794" width="102" height="101" xlink:href="img/9.jpg"/>
<image clip-path="url(#c9_50)" preserveAspectRatio="none" x="652" y="942" width="122" height="104" xlink:href="img/10.jpg"/>
<g clip-path="url(#ca_50)">
<path d="M653.1,1075H773.6v-30.7H653.1V1075Z" class="g1_50"/>
<path d="M653.1,1075H773.6v-30.7H653.1V1075Z" class="g7_50"/>
<path d="M653.1,926.1H773.6V895.4H653.1v30.7Z" class="g1_50"/>
<path d="M653.1,926.1H773.6V895.4H653.1v30.7Z" class="g7_50"/>
</g>
<image clip-path="url(#cb_50)" preserveAspectRatio="none" x="503" y="794" width="102" height="101" xlink:href="img/11.jpg"/>
<image clip-path="url(#cc_50)" preserveAspectRatio="none" x="494" y="942" width="121" height="104" xlink:href="img/12.jpg"/>
<g clip-path="url(#cd_50)">
<path d="M494,1075H614.5v-30.7H494V1075Z" class="g1_50"/>
<path d="M494,1075H614.5v-30.7H494V1075Z" class="g7_50"/>
<path d="M494,926.1H614.5V895.4H494v30.7Z" class="g1_50"/>
<path d="M494,926.1H614.5V895.4H494v30.7Z" class="g7_50"/>
</g>
<image clip-path="url(#ce_50)" preserveAspectRatio="none" x="343" y="794" width="104" height="102" xlink:href="img/13.jpg"/>
<image clip-path="url(#cf_50)" preserveAspectRatio="none" x="340" y="942" width="113" height="103" xlink:href="img/14.jpg"/>
<path d="M334.3,1075H454.8v-30.7H334.3V1075Z" class="g1_50"/>
<path d="M334.3,1075H454.8v-30.7H334.3V1075Z" class="g7_50"/>
<path d="M334.3,926.1H454.8V895.4H334.3v30.7Z" class="g1_50"/>
<path d="M334.3,926.1H454.8V895.4H334.3v30.7Z" class="g7_50"/>
<image clip-path="url(#cg_50)" preserveAspectRatio="none" x="191" y="794" width="102" height="101" xlink:href="img/15.jpg"/>
<image clip-path="url(#ch_50)" preserveAspectRatio="none" x="184" y="943" width="101" height="102" xlink:href="img/16.jpg"/>
<path d="M183.6,1075H304.1v-30.7H183.6V1075Z" class="g1_50"/>
<path d="M183.6,1075H304.1v-30.7H183.6V1075Z" class="g7_50"/>
<path d="M183.6,926.1H304.1V895.4H183.6v30.7Z" class="g1_50"/>
<path d="M183.6,926.1H304.1V895.4H183.6v30.7Z" class="g7_50"/>
<path d="M179.3,929.3H778V893H179.3v36.3Z" class="g1_50"/>
<path d="M179.3,1077.4H778v-36.3H179.3v36.3Z" class="g1_50"/>
<path d="M184.5,927.4H304.3V893.3H184.5v34.1Z" class="g1_50"/>
<path d="M184.5,927.4H304.3V893.3H184.5v34.1Z" class="g8_50"/>
<path d="M184.5,1075.5H304.3v-34.1H184.5v34.1Z" class="g1_50"/>
<path d="M184.5,1075.5H304.3v-34.1H184.5v34.1Z" class="g8_50"/>
<path d="M337,927.4H456.7V893.3H337v34.1Z" class="g1_50"/>
<path d="M337,927.4H456.7V893.3H337v34.1Z" class="g8_50"/>
<path d="M337,1075.5H456.7v-34.1H337v34.1Z" class="g1_50"/>
<path d="M337,1075.5H456.7v-34.1H337v34.1Z" class="g8_50"/>
<path d="M495.2,927.4H614.9V893.3H495.2v34.1Z" class="g1_50"/>
<path d="M495.2,927.4H614.9V893.3H495.2v34.1Z" class="g8_50"/>
<path d="M495.2,1075.5H614.9v-34.1H495.2v34.1Z" class="g1_50"/>
<path d="M495.2,1075.5H614.9v-34.1H495.2v34.1Z" class="g8_50"/>
<path d="M654.7,927.4H774.5V893.3H654.7v34.1Z" class="g1_50"/>
<path d="M654.7,927.4H774.5V893.3H654.7v34.1Z" class="g8_50"/>
<path d="M654.7,1075.5H774.5v-34.1H654.7v34.1Z" class="g1_50"/>
<path d="M654.7,1075.5H774.5v-34.1H654.7v34.1Z" class="g8_50"/>
<path d="M378.3,1196.4c0,0,-4.3,0,-4.3,4.3v10.8c0,0,0,4.3,4.3,4.3h30.4c0,0,4.3,0,4.3,-4.3v-10.8c0,0,0,-4.3,-4.3,-4.3Z" class="g9_50"/>
<path d="M365.2,1188.8v54.9m1.3,1h478m1,-1.4v-54.8m-1.3,-1H366.1" class="ga_50"/>
<path d="M365.2,1244.1v.6h.5m479.2,0h.6v-.6m0,-56v-.6h-.6m-479.2,0h-.5v.6" class="gb_50"/>
<path d="M209.6,194.5c0,0,-12.9,0,-12.9,13v21.6c0,0,0,13,12.9,13h602c0,0,13,0,13,-13V207.5c0,0,0,-13,-13,-13Z" class="gc_50"/>
<image clip-path="url(#ci_50)" preserveAspectRatio="none" x="153" y="165" width="75" height="76" xlink:href="img/17.png"/>
<path d="M204.4,234.8c0,0,-26.8,11.3,-51.1,-12.8c0,0,15.2,25.3,49.3,24c0,0,24.8,.3,20.3,-10.2c0,0,1.2,-4.4,-18.5,-1Z" class="gc_50"/>
<path d="M209.6,648.7c0,0,-12.9,0,-12.9,13v21.7c0,0,0,13,12.9,13H833.3c0,0,13,0,13,-13V661.7c0,0,0,-13,-13,-13Z" class="gc_50"/>
<image clip-path="url(#cj_50)" preserveAspectRatio="none" x="153" y="619" width="75" height="76" xlink:href="img/18.png"/>
<path d="M204.4,689c0,0,-26.8,11.3,-51.1,-12.8c0,0,15.2,25.4,49.3,24c0,0,24.8,.4,20.3,-10.1c0,0,1.2,-4.5,-18.5,-1.1Z" class="gc_50"/>
<path d="M131.7,126.7v22.2l11.7,10.3V137Z" class="gd_50"/>
<path d="M131.7,109.9v39H829.4c0,0,16.9,0,16.9,-16.8v-5.4c0,0,0,-16.8,-16.9,-16.8Z" class="g9_50"/>
<path d="M189.6,121.3l-6.4,-6.5L162,136l6.4,6.5Z" class="ge_50"/>
<path d="M168.4,143c.2,0,.3,0,.4,-.1L190,121.7c.1,-.1,.2,-.3,.2,-.4c0,-.1,-.1,-.3,-.2,-.4l-6.5,-6.4c-.2,-.2,-.5,-.2,-.7,0l-21.2,21.2c-.1,.1,-.2,.2,-.2,.3c0,.2,.1,.3,.2,.4l6.5,6.5c.1,.1,.2,.1,.3,.1m20.5,-21.7l-20.5,20.5L162.7,136l20.5,-20.4Z" class="gf_50"/>
<path d="M189.6,121.3l-6.4,-6.5l2.1,-2.1l6.5,6.5Z" class="gg_50"/>
<path d="M189.6,121.8c.2,0,.3,0,.4,-.1l2.1,-2.1c.1,-.1,.2,-.3,.2,-.4c0,-.2,-.1,-.3,-.2,-.4l-6.4,-6.5c-.2,-.2,-.6,-.2,-.8,0l-2.1,2.2c-.1,0,-.2,.2,-.2,.3c0,.2,.1,.3,.2,.4l6.5,6.5c.1,.1,.2,.1,.3,.1m1.4,-2.6l-1.4,1.4l-5.7,-5.8l1.4,-1.4Z" class="gf_50"/>
<path d="M195.4,115.6l-6.5,-6.5l-3.6,3.6l6.5,6.5Z" class="gh_50"/>
<path d="M191.8,119.7c.1,0,.2,0,.3,-.1l3.7,-3.7c.2,-.2,.2,-.5,0,-.7l-6.5,-6.5c-.2,-.2,-.6,-.2,-.8,0l-3.6,3.6c-.2,.2,-.2,.6,0,.8l6.5,6.5c.1,.1,.2,.1,.4,.1m2.8,-4.1l-2.8,2.8L186,112.7l2.9,-2.9Z" class="gf_50"/>
<path d="M157.3,147.2L162,136l6.4,6.5Z" class="g1_50"/>
<path d="M157.3,147.7c.1,0,.2,0,.2,-.1L168.6,143c.2,-.1,.3,-.2,.4,-.4c0,-.2,-.1,-.3,-.2,-.5l-6.5,-6.4c-.1,-.2,-.3,-.2,-.5,-.2c-.1,.1,-.3,.2,-.3,.3l-4.7,11.1c0,.2,0,.5,.1,.6c.1,.1,.3,.2,.4,.2m10.2,-5.4l-9.2,3.9l3.8,-9.2Z" class="gf_50"/>
<path d="M157.3,147.2l2.3,-5.4l3.1,3.1Z" class="gf_50"/>
<path d="M157.3,147.7c.1,0,.2,0,.2,-.1l5.4,-2.2c.1,-.1,.3,-.2,.3,-.4c0,-.2,0,-.3,-.1,-.5l-3.2,-3.1c-.1,-.1,-.3,-.2,-.4,-.1c-.2,0,-.4,.1,-.4,.3l-2.3,5.3c0,.2,0,.5,.1,.6c.1,.1,.3,.2,.4,.2m4.5,-3l-3.5,1.5l1.4,-3.5Z" class="gf_50"/>
<path d="M187.9,119.5l-3,-2.9l-21.2,21.2l3,3Z" class="gi_50"/>
<path d="M166.7,141.3c.1,0,.2,-.1,.3,-.2l21.3,-21.2c.1,-.1,.1,-.2,.1,-.4c0,-.1,0,-.2,-.1,-.3l-3,-3c-.2,-.2,-.5,-.2,-.8,0l-21.2,21.2c-.1,.1,-.1,.3,-.1,.4c0,.1,0,.3,.1,.4l3,2.9c.1,.1,.2,.2,.4,.2m20.4,-21.8L166.7,140l-2.2,-2.2l20.4,-20.5Z" class="gf_50"/>
<path d="M32.1,45.1H9.2m958.3,0h22.9M32.1,1331.3H9.2m958.3,0h22.9M45.1,32.1V9.2m0,1335.1v22.9M954.5,32.1V9.2m0,1335.1v22.9" class="gj_50"/>
<path d="M32.1,45.1H9.2m958.3,0h22.9M32.1,1331.3H9.2m958.3,0h22.9M45.1,32.1V9.2m0,1335.1v22.9M954.5,32.1V9.2m0,1335.1v22.9" class="gk_50"/>
<path d="M27.5,32.1H0m972.1,0h27.5M27.5,1344.3H0m972.1,0h27.5M32.1,27.5V0m0,1348.9v27.5M967.5,27.5V0m0,1348.9v27.5" class="gj_50"/>
<path d="M27.5,32.1H0m972.1,0h27.5M27.5,1344.3H0m972.1,0h27.5M32.1,27.5V0m0,1348.9v27.5M967.5,27.5V0m0,1348.9v27.5" class="gk_50"/>
</svg>