<?xml version="1.0" encoding="UTF-8" standalone="no"?>
<!DOCTYPE svg PUBLIC "-//W3C//DTD SVG 1.1//EN"
"http://www.w3.org/Graphics/SVG/1.1/DTD/svg11.dtd">
<svg viewBox="0 0 999 1376" version="1.1" xmlns="http://www.w3.org/2000/svg" xmlns:xlink="http://www.w3.org/1999/xlink">
<defs>
<clipPath id="c0_5"><path d="M32.1,1344.3V32.1H967.5V1344.3Z"/></clipPath>
<clipPath id="c1_5"><path d="M135.4,562.2V269.6H346V562.2Z"/></clipPath>
<clipPath id="c2_5"><path d="M146.5,555.6c-5.8,-.7,-5.9,-6.7,-5.9,-6.8V281.7c0,-5.5,4.4,-6.6,6.2,-6.8H333.2c5.8,.6,5.8,6.8,5.8,6.8V548.8c0,5.5,-4.4,6.6,-6.1,6.8Z"/></clipPath>
<clipPath id="c3_5"><path d="M164.5,536.5V293.7h156V536.5Z"/></clipPath>
<clipPath id="c4_5"><path d="M167.4,489.6V318.2H317V489.6Z"/></clipPath>
<clipPath id="c5_5"><path d="M146.5,555.6c-5.8,-.7,-5.9,-6.6,-5.9,-6.8V281.7c0,-5.5,4.4,-6.6,6.2,-6.8H333.2c5.8,.6,5.8,6.8,5.8,6.8V548.8c0,5.5,-4.4,6.6,-6.1,6.8Z"/></clipPath>
<clipPath id="c6_5"><path d="M646.7,995.3V702.7H857.3V995.3Z"/></clipPath>
<clipPath id="c7_5"><path d="M657.8,988.6c-5.8,-.6,-5.9,-6.5,-5.9,-6.8v-267c0,-5.5,4.4,-6.6,6.2,-6.8H844.5c5.8,.6,5.8,6.8,5.8,6.8v267c0,5.5,-4.4,6.6,-6.1,6.8Z"/></clipPath>
<clipPath id="c8_5"><path d="M657.8,988.6c-5.8,-.6,-5.9,-6.6,-5.9,-6.8v-267c0,-5.5,4.4,-6.6,6.2,-6.8H844.5c5.8,.6,5.8,6.8,5.8,6.8v267c0,5.5,-4.4,6.6,-6.1,6.8Z"/></clipPath>
<clipPath id="c9_5"><path d="M674.1,959.9V904H833.7v55.9Z"/></clipPath>
<clipPath id="ca_5"><path d="M794.8,740.2V713.6h32.3v26.6Z"/></clipPath>
<clipPath id="cb_5"><path d="M674.1,806.1V744.3H833.7v61.8Z"/></clipPath>
<clipPath id="cc_5"><path d="M688.8,856.1c-1.8,0,-1.8,-1.9,-1.8,-1.9V837.7c0,-1.2,.6,-1.6,1.2,-1.8h22.4c1.2,.4,1.2,1.8,1.2,1.8v16.5c0,1.9,-1.9,1.9,-1.9,1.9Z"/></clipPath>
<clipPath id="cd_5"><path d="M688.8,856.1c-1.8,0,-1.8,-1.9,-1.8,-1.9V837.7c0,-1.9,1.8,-1.9,1.8,-1.9h21.1c1.9,0,1.9,1.9,1.9,1.9v16.5c0,1.9,-1.9,1.9,-1.9,1.9Z"/></clipPath>
<style type="text/css"><![CDATA[
.g0_5{
fill: #E0EDE2;
}
.g1_5{
fill: #FFF;
}
.g2_5{
fill: #FCD6CD;
}
.g3_5{
fill: none;
stroke: #231F20;
stroke-width: 0.165;
stroke-miterlimit: 3;
}
.g4_5{
fill: #25408F;
}
.g5_5{
fill: #6381B7;
}
.g6_5{
fill: #FFDE2C;
}
.g7_5{
fill: none;
stroke: #231F20;
stroke-width: 0.316;
stroke-miterlimit: 10;
}
.g8_5{
fill: #D2D3D5;
}
.g9_5{
fill: #A8AAAD;
}
.ga_5{
fill: none;
stroke: #231F20;
stroke-width: 0.18;
stroke-miterlimit: 10;
}
.gb_5{
fill: #6CCFF6;
}
.gc_5{
fill: none;
stroke: #231F20;
stroke-width: 0.18;
stroke-linecap: round;
stroke-linejoin: round;
}
.gd_5{
fill: none;
stroke: #231F20;
stroke-width: 0.316;
stroke-linecap: round;
stroke-linejoin: round;
}
.ge_5{
fill: none;
stroke: #6D6F71;
stroke-width: 0.484;
}
.gf_5{
fill: #FEFCF4;
}
.gg_5{
fill: #59816A;
}
.gh_5{
fill: none;
stroke: #6381B7;
stroke-width: 0.152;
stroke-dasharray: 1,1;
}
.gi_5{
fill: none;
stroke: #6381B7;
stroke-width: 0.152;
}
.gj_5{
fill: none;
stroke: #FFF;
stroke-width: 0.519;
}
.gk_5{
fill: none;
stroke: #231F20;
stroke-width: 0.333;
}
.gl_5{
fill: none;
stroke: #6381B7;
stroke-width: 0.166;
}
.gm_5{
fill: #FEF8F8;
}
.gn_5{
fill: none;
stroke: #A164A9;
stroke-width: 0.333;
stroke-linecap: round;
stroke-linejoin: round;
stroke-dasharray: 0,1;
}
.go_5{
fill: #A164A9;
}
.gp_5{
fill: none;
stroke: #FFF79A;
stroke-width: 0.333;
}
.gq_5{
fill: none;
stroke: #949698;
stroke-width: 0.33;
}
.gr_5{
fill: none;
stroke: #FFF;
stroke-width: 1.909;
stroke-miterlimit: 10;
}
.gs_5{
fill: none;
stroke: #000;
stroke-width: 0.381;
stroke-miterlimit: 10;
}
]]></style>
</defs>
<path d="M32.1,1344.3H967.5V32.1H32.1V1344.3Z" class="g0_5"/>
<g clip-path="url(#c0_5)">
<path d="M-781,112.6c0,0,-18.3,0,-18.3,18.3V1232.8c0,0,0,18.4,18.3,18.4H875.6c0,0,18.3,0,18.3,-18.4V130.9c0,0,0,-18.3,-18.3,-18.3Z" class="g1_5"/>
<path d="M-624.4,105.7v33.4H880.1c0,0,13.8,0,13.8,-13.8v-5.8c0,0,0,-13.8,-13.8,-13.8Z" class="g2_5"/>
</g>
<image clip-path="url(#c1_5)" preserveAspectRatio="none" x="135" y="270" width="211" height="293" xlink:href="img/1.png"/>
<path d="M147.5,274.8c0,0,-6.9,0,-6.9,6.9V548.8c0,0,0,6.8,6.9,6.8H332.2c0,0,6.8,0,6.8,-6.8V281.7c0,0,0,-6.9,-6.8,-6.9Z" class="g1_5"/>
<path clip-path="url(#c2_5)" d="M164.5,536.5h156V293.7h-156V536.5Z" class="g1_5"/>
<image clip-path="url(#c3_5)" preserveAspectRatio="none" x="164" y="293" width="157" height="244" xlink:href="img/2.jpg"/>
<image clip-path="url(#c4_5)" preserveAspectRatio="none" x="167" y="318" width="150" height="172" xlink:href="img/3.png"/>
<path clip-path="url(#c5_5)" d="M228.4,306.2c-.1,.1,-.2,.2,-.3,.3c-.1,.1,-.3,.2,-.4,.2c-.2,.1,-.4,.1,-.5,.1c-.2,0,-.4,0,-.5,-.1c-.2,0,-.3,-.1,-.4,-.2c-.1,-.1,-.2,-.2,-.3,-.3c-.1,-.2,-.1,-.3,-.1,-.5c0,-.1,0,-.3,.1,-.4c.1,-.1,.2,-.2,.3,-.3c.1,-.1,.2,-.2,.4,-.3c.1,0,.3,0,.5,0c.2,0,.3,0,.5,0c.1,.1,.3,.2,.4,.3c.1,.1,.2,.2,.3,.3c0,.1,.1,.3,.1,.4c0,.2,-.1,.3,-.1,.5Zm2.5,-.6h-1v1.8h-.5v-3.8h.5v1.6h1v.4Zm-3.8,3.3c-.1,0,-.3,-.1,-.4,-.1c0,-.1,-.1,-.2,-.1,-.4v-1.1h.5v1q0,.1,.1,.1q0,.1,.1,.1h1.6c.2,0,.4,0,.6,0c.2,-.1,.4,-.1,.6,-.2l.1,.4c-.3,.1,-.5,.1,-.7,.1c-.2,.1,-.4,.1,-.6,.1h-1.8Zm.6,-3.7c-.1,-.1,-.3,-.2,-.5,-.2c-.2,0,-.4,.1,-.6,.2c-.1,.1,-.2,.3,-.2,.5c0,.3,.1,.4,.2,.5c.2,.2,.4,.2,.6,.2c.2,0,.4,0,.5,-.2c.2,-.1,.3,-.2,.3,-.5c0,-.2,-.1,-.4,-.3,-.5Zm1.1,-.7h-3.2v-.4h1.2c.1,-.1,.1,-.2,.1,-.2c0,-.1,0,-.2,0,-.3q0,-.1,0,-.1c0,0,0,-.1,0,-.1l.4,-.2q.1,.1,.1,.2q0,.1,0,.2c0,.1,0,.2,0,.3c-.1,0,-.1,.1,-.1,.2h1.5v.4Zm6.9,1.5h-2.2v1h1.1c.2,0,.3,0,.4,.1c0,.1,.1,.2,.1,.3l-.1,1.5h-.4v-1.4c0,0,-.1,-.1,-.1,-.1c0,0,0,-.1,-.1,-.1h-2.8V307H233v-1h-1.9v-.4h3.3c0,-.2,.1,-.5,.1,-.7c0,-.3,.1,-.6,.1,-.8c0,-.1,-.1,-.1,-.1,-.1c0,-.1,-.1,-.1,-.1,-.1h-2.7v-.4h2.8c.2,0,.3,.1,.4,.1c.1,.1,.1,.2,.1,.4c0,.2,0,.5,0,.8c0,.3,-.1,.6,-.1,.8h.8v.4Zm3.5,-.4c-.1,.2,-.2,.3,-.3,.4c-.1,.1,-.3,.2,-.5,.3c-.1,.1,-.3,.1,-.5,.1c-.3,0,-.4,0,-.6,-.1c-.2,-.1,-.4,-.2,-.5,-.3c-.1,-.1,-.2,-.2,-.3,-.4c0,-.2,-.1,-.4,-.1,-.6c0,-.2,.1,-.3,.1,-.5c.1,-.2,.2,-.3,.3,-.4c.2,-.2,.3,-.3,.5,-.3c.2,-.1,.3,-.1,.6,-.1c.2,0,.4,0,.5,.1c.2,0,.4,.1,.5,.3c.1,.1,.2,.2,.3,.4c.1,.2,.1,.3,.1,.5c0,.2,0,.4,-.1,.6Zm1.4,2.9h-.5v-1.2c-.3,.2,-.5,.3,-.8,.3c-.3,.1,-.6,.1,-1,.1h-2.1v-.4h2.1c.3,0,.6,0,.9,-.1c.3,0,.6,-.2,.9,-.3v-3.3h.5v4.9Zm-2.1,-4.2c-.1,-.1,-.4,-.2,-.6,-.2c-.3,0,-.5,.1,-.7,.2c-.2,.2,-.3,.4,-.3,.7c0,.4,.1,.6,.3,.8c.2,.1,.4,.2,.7,.2c.2,0,.5,-.1,.6,-.2c.2,-.2,.3,-.4,.3,-.8c0,-.3,-.1,-.5,-.3,-.7Zm5.5,1.9V305h.5v1.2h.4c.3,0,.6,0,.9,-.1c.3,0,.5,-.1,.8,-.3v-2.2h.5v1.6h.9v.4h-.9v1.8h-.5v-1.2c-.2,.1,-.5,.2,-.7,.3c-.3,0,-.6,.1,-1,.1h-2v-.4H244Zm.3,2.7c-.2,0,-.4,-.1,-.4,-.1c-.1,-.1,-.2,-.2,-.2,-.4v-1.3h.5v1.2q0,.1,.1,.1q0,.1,.1,.1H246c.2,0,.5,0,.6,0c.2,-.1,.4,-.1,.6,-.2l.1,.4c-.2,.1,-.4,.1,-.6,.1c-.2,.1,-.4,.1,-.7,.1h-1.7Zm.8,-3.2c.1,-.3,.1,-.5,.2,-.8c0,-.2,0,-.4,0,-.7c0,0,0,-.1,0,-.1c-.1,0,-.1,-.1,-.2,-.1h-2v-.3h2.2c.2,0,.3,0,.4,.1c0,.1,.1,.2,.1,.3c0,.1,0,.2,0,.4c0,.1,-.1,.3,-.1,.4c0,.2,0,.3,0,.5c-.1,.1,-.1,.2,-.1,.4l-.5,-.1Zm4.8,-.9v1.1h.5c.3,0,.6,0,.8,0c.3,-.1,.6,-.2,.8,-.4v-1.9h.5V305h1v.4h-1v.7c0,.2,0,.4,0,.5c-.1,.2,-.2,.4,-.4,.6c.1,.1,.2,.2,.2,.3c.1,.1,.1,.3,.1,.4c0,.2,-.1,.4,-.1,.5c-.1,.1,-.2,.3,-.3,.4c-.2,.1,-.3,.1,-.5,.2c-.1,.1,-.3,.1,-.5,.1c-.2,0,-.4,0,-.5,-.1c-.2,0,-.4,-.1,-.5,-.2c-.1,-.1,-.2,-.3,-.3,-.4c-.1,-.1,-.1,-.3,-.1,-.5c0,-.2,0,-.3,.1,-.5c.1,-.1,.2,-.2,.3,-.4c.1,0,.3,-.1,.5,-.2c.1,0,.3,-.1,.5,-.1c.1,0,.3,.1,.4,.1c.2,0,.3,.1,.4,.1c.1,0,.1,-.1,.1,-.2c.1,0,.1,-.1,.1,-.2q0,-.1,0,-.2c0,-.1,0,-.2,0,-.2V306c-.2,.1,-.4,.2,-.7,.2c-.2,.1,-.5,.1,-.9,.1h-2.1v-.4h1.1v-1.1h.5Zm1.7,2.5c-.1,-.1,-.3,-.2,-.6,-.2c-.3,0,-.5,.1,-.7,.2c-.1,.2,-.2,.4,-.2,.6c0,.3,.1,.5,.2,.6c.2,.1,.4,.2,.7,.2c.3,0,.5,-.1,.6,-.2c.2,-.1,.3,-.3,.3,-.6c0,-.2,-.1,-.4,-.3,-.6Zm-1,-1.8c.1,-.3,.1,-.5,.1,-.7c0,-.2,.1,-.4,.1,-.6c0,-.1,-.1,-.2,-.1,-.2c0,0,-.1,0,-.1,0h-2v-.4h2.1c.2,0,.3,0,.4,.1c.1,.1,.1,.2,.1,.3c0,.3,0,.5,0,.8c-.1,.3,-.1,.5,-.2,.8l-.4,-.1Zm3.1,1.5c.3,-.2,.5,-.3,.8,-.6c.2,-.2,.4,-.4,.6,-.6c.2,-.3,.3,-.5,.5,-.7c.1,-.3,.2,-.5,.2,-.7q0,-.1,0,-.1q-.1,-.1,-.1,-.1h-1.8v-.4h2c.2,0,.3,.1,.3,.2c.1,.1,.1,.2,.1,.4c0,.2,-.1,.4,-.2,.7c-.1,.2,-.2,.4,-.4,.6c.1,.1,.3,.1,.3,.2c.1,0,.2,.1,.3,.2c.1,.1,.2,.3,.4,.5c.1,.2,.2,.4,.3,.5l-.3,.3c-.2,-.2,-.3,-.4,-.4,-.6c-.2,-.2,-.3,-.3,-.4,-.4c0,-.1,-.1,-.1,-.2,-.2c0,0,-.1,-.1,-.2,-.1c-.2,.2,-.5,.5,-.7,.7c-.3,.2,-.5,.4,-.8,.6l-.3,-.4Zm3.9,-3.4h.5v4.9h-.5v-4.9Z" class="g3_5"/>
<path clip-path="url(#c2_5)" d="M164.2,292.6v4.9l2.6,2.2v-4.8Z" class="g4_5"/>
<g clip-path="url(#c5_5)">
<path d="M164.2,289v8.5H316.5c0,0,3.6,0,3.6,-3.7v-1.2c0,0,0,-3.6,-3.6,-3.6Z" class="g5_5"/>
<path d="M176,290.3c0,-2,-1.8,-3.6,-3.9,-3.6c-2.1,0,-3.9,1.6,-3.9,3.6c0,.6,.2,1.1,.4,1.6c.3,.6,.7,1,1.1,1.4c.3,.2,.4,.4,.4,.9v.1c0,.8,.6,1.3,1.3,1.3h1.4c.7,0,1.3,-.5,1.3,-1.3v-.1c0,-.5,.1,-.7,.4,-.9c.4,-.4,.8,-.8,1.1,-1.4c.2,-.5,.4,-1,.4,-1.6Z" class="g6_5"/>
<path d="M176,290.3c0,-2,-1.8,-3.6,-3.9,-3.6c-2.1,0,-3.9,1.6,-3.9,3.6c0,.6,.2,1.1,.4,1.6c.3,.6,.7,1,1.1,1.4c.3,.2,.4,.4,.4,.9v.1c0,.8,.6,1.3,1.3,1.3h1.4c.7,0,1.3,-.5,1.3,-1.3v-.1c0,-.5,.1,-.7,.4,-.9c.4,-.4,.8,-.8,1.1,-1.4c.2,-.5,.4,-1,.4,-1.6Z" class="g7_5"/>
<path d="M173.2,297.2c0,.6,-.5,1.1,-1.1,1.1c-.6,0,-1.1,-.5,-1.1,-1.1c0,-.6,.5,-1.1,1.1,-1.1c.6,0,1.1,.5,1.1,1.1Z" class="g1_5"/>
<path d="M173.2,297.2c0,.6,-.5,1.1,-1.1,1.1c-.6,0,-1.1,-.5,-1.1,-1.1c0,-.6,.5,-1.1,1.1,-1.1c.6,0,1.1,.5,1.1,1.1Z" class="g7_5"/>
<path d="M170.5,295.7c0,.2,.2,.3,.4,.3h2.4c.2,0,.4,-.1,.4,-.3v-.3h-3.2Z" class="g1_5"/>
<path d="M170.5,295.7c0,.2,.2,.3,.4,.3h2.4c.2,0,.4,-.1,.4,-.3v-.3h-3.2v.3Z" class="g7_5"/>
<path d="M173.7,296.3c0,.2,-.1,.3,-.3,.3h-2.6c-.2,0,-.3,-.1,-.3,-.3c0,-.1,.1,-.3,.3,-.3h2.6c.2,0,.3,.2,.3,.3Z" class="g1_5"/>
<path d="M173.7,296.3c0,.2,-.1,.3,-.3,.3h-2.6c-.2,0,-.3,-.1,-.3,-.3c0,-.1,.1,-.3,.3,-.3h2.6c.2,0,.3,.2,.3,.3Z" class="g7_5"/>
<path d="M173.7,296.9c0,.1,-.1,.3,-.3,.3h-2.6c-.2,0,-.3,-.2,-.3,-.3c0,-.2,.1,-.3,.3,-.3h2.6c.2,0,.3,.1,.3,.3Z" class="g1_5"/>
<path d="M173.7,296.9c0,.1,-.1,.3,-.3,.3h-2.6c-.2,0,-.3,-.2,-.3,-.3c0,-.2,.1,-.3,.3,-.3h2.6c.2,0,.3,.1,.3,.3Z" class="g7_5"/>
<path d="M177.8,293.1l1.8,2.3c.1,.2,.4,.1,.6,0c.2,-.2,.2,-.4,.1,-.6l-1.9,-2.2Z" class="g8_5"/>
<path d="M177.8,293.1l1.8,2.3c.1,.2,.4,.1,.6,0c.2,-.2,.2,-.4,.1,-.6l-1.9,-2.2l-.6,.5Z" class="g7_5"/>
<path d="M178.2,292.4c.1,.1,.1,.4,-.1,.5c-.2,.2,-.5,.2,-.6,.1c-.1,-.2,-.1,-.4,.1,-.6c.2,-.2,.5,-.2,.6,0Z" class="g9_5"/>
<path d="M178.2,292.4c.1,.1,.1,.4,-.1,.5c-.2,.2,-.5,.2,-.6,.1c-.1,-.2,-.1,-.4,.1,-.6c.2,-.2,.5,-.2,.6,0Z" class="g7_5"/>
<path d="M177.2,292.3l.3,.4c.1,.1,.3,.1,.4,0c.1,-.1,.1,-.3,.1,-.3l-.4,-.5Z" class="g1_5"/>
<path d="M177.2,292.3l.3,.4c.1,.1,.3,.1,.4,0c.1,-.1,.1,-.3,.1,-.3l-.4,-.5l-.4,.4Z" class="ga_5"/>
<path d="M177.6,291.9c.1,.1,.1,.3,-.1,.4c-.1,.1,-.3,.1,-.4,0c-.1,-.1,0,-.3,.1,-.4c.2,-.1,.3,-.1,.4,0Z" class="g1_5"/>
<path d="M177.6,291.9c.1,.1,.1,.3,-.1,.4c-.1,.1,-.3,.1,-.4,0c-.1,-.1,0,-.3,.1,-.4c.2,-.1,.3,-.1,.4,0Z" class="ga_5"/>
<path d="M178,288.1c1,1.2,.9,3.1,-.4,4.1c-1.2,1,-3.1,.9,-4.1,-.4c-1.1,-1.2,-.9,-3.1,.3,-4.1c1.3,-1.1,3.1,-.9,4.2,.4Z" class="g1_5"/>
<path d="M178,288.1c1,1.2,.9,3.1,-.4,4.1c-1.2,1,-3.1,.9,-4.1,-.4c-1.1,-1.2,-.9,-3.1,.3,-4.1c1.3,-1.1,3.1,-.9,4.2,.4Z" class="g7_5"/>
<path d="M177.4,288.5c.8,.9,.7,2.3,-.2,3.1c-.9,.7,-2.3,.6,-3.1,-.3c-.8,-.9,-.6,-2.3,.3,-3.1c.9,-.7,2.3,-.6,3,.3Z" class="gb_5"/>
<path d="M177.4,288.5c.8,.9,.7,2.3,-.2,3.1c-.9,.7,-2.3,.6,-3.1,-.3c-.8,-.9,-.6,-2.3,.3,-3.1c.9,-.7,2.3,-.6,3,.3Z" class="g7_5"/>
</g>
<g clip-path="url(#c2_5)">
<path d="M177.2,289.2l-.6,.7m.6,-.1l-.6,.6" class="gc_5"/>
<path d="M168.3,286.7l.7,.7m.2,-1.3l.3,.8m-1.8,.7l.8,.3" class="gd_5"/>
</g>
<g clip-path="url(#c5_5)">
<path d="M171.3,288.2c.3,.3,.1,.9,-.5,1.5c-.5,.5,-1.2,.7,-1.5,.5c-.2,-.3,0,-1,.5,-1.5c.6,-.5,1.2,-.8,1.5,-.5Z" class="g1_5"/>
<path d="M175.2,288.5c.1,.2,0,.5,-.2,.7c-.2,.2,-.5,.3,-.6,.2c-.2,-.1,-.1,-.4,.2,-.6c.2,-.3,.5,-.4,.6,-.3Z" class="g1_5"/>
</g>
<path d="M147.5,274.8c0,0,-6.9,0,-6.9,6.9V548.8c0,0,0,6.8,6.9,6.8H332.2c0,0,6.8,0,6.8,-6.8V281.7c0,0,0,-6.9,-6.8,-6.9H147.5Z" class="ge_5"/>
<image clip-path="url(#c6_5)" preserveAspectRatio="none" x="646" y="703" width="211" height="293" xlink:href="img/4.png"/>
<path d="M658.8,707.9c0,0,-6.9,0,-6.9,6.9v267c0,0,0,6.9,6.9,6.9H843.5c0,0,6.8,0,6.8,-6.9v-267c0,0,0,-6.9,-6.8,-6.9Z" class="g1_5"/>
<g clip-path="url(#c7_5)">
<path d="M450.6,991.5H651.9V705.1H450.6V991.5Z" class="gf_5"/>
<path d="M651.9,991.5H853.2V705.1H651.9V991.5Z" class="gf_5"/>
<path d="M831.4,733.7c0,0,6.7,0,6.7,-6.6v-1c0,0,0,-6.6,-6.7,-6.6H479.1c0,0,-6.6,0,-6.6,6.6v1c0,0,0,6.6,6.6,6.6Z" class="gg_5"/>
<path d="M805.4,961.3c0,0,-1,0,-1,1v2.3c0,0,0,1,1,1H812c0,0,.9,0,.9,-1v-2.3c0,0,0,-1,-.9,-1Z" class="g5_5"/>
</g>
<g clip-path="url(#c8_5)">
<path d="M802.5,959.4v8.2m.3,.2h28.4m.2,-.3v-8.2m-.3,-.2H802.7" class="gh_5"/>
<path d="M802.5,967.7v.1h.1m28.7,0h.1v-.1m0,-8.5v-.1h-.1m-28.7,0h-.1v.1" class="gi_5"/>
</g>
<image clip-path="url(#c9_5)" preserveAspectRatio="none" x="674" y="904" width="159" height="56" xlink:href="img/5.png"/>
<g clip-path="url(#c7_5)">
<path d="M679.3,905.4c0,0,-3.8,0,-3.8,3.8v44.6c0,0,0,3.8,3.8,3.8H827.7c0,0,3.8,0,3.8,-3.8V909.2c0,0,0,-3.8,-3.8,-3.8Z" class="g1_5"/>
<path d="M722.9,910h-2.3l.2,.2h1.8v1.3l-.3,-.2c.1,-.1,.1,-.2,.1,-.3c0,-.1,0,-.3,-.1,-.4c0,0,-.1,-.1,-.2,-.2c0,0,-.1,0,-.2,-.1c0,0,-.1,0,-.1,0c-.1,0,-.2,0,-.3,.1c0,.1,-.1,.1,-.1,.1q0,.1,0,.2c0,0,0,.1,0,.1c0,.1,.1,.1,.2,.1c.1,.1,.1,0,.2,0c0,0,.1,-.1,.1,-.1c0,0,0,-.1,0,-.1q0,-.1,0,-.2h.1l.1,.1l.1,.1c0,0,0,.1,0,.1q0,.1,0,.1c0,.1,0,.2,0,.3c-.1,.1,-.2,.2,-.5,.2c0,0,-.1,0,-.2,-.1c-.1,0,-.2,-.1,-.2,-.2c-.1,-.1,-.2,-.2,-.2,-.3c-.1,-.1,-.1,-.3,-.1,-.4l-.2,-.1c.1,.2,.1,.3,.1,.5c.1,.1,.1,.2,.2,.3c0,.1,.1,.2,.1,.3c.1,0,.1,.1,.2,.1q.1,.1,.2,.2q.1,0,.2,0c.1,0,.2,0,.3,-.1c0,0,.1,-.1,.2,-.2c.2,.2,.3,.4,.4,.7l.1,.1v-2h.3l-.2,-.2Zm2,-.3c-.3,-.4,-.7,-.6,-1.1,-.6c-.1,0,-.3,.1,-.4,.2c-.2,.2,-.3,.3,-.3,.5c0,0,0,.1,.1,.1l.1,.1h-.5l.2,.2h.3V912l.2,.2v-2h.3l-.2,-.2h-.2l-.1,-.1c0,-.2,.1,-.3,.3,-.4c.1,-.1,.3,-.2,.4,-.2c.1,0,.2,.1,.3,.1q.1,0,.2,.1c.1,0,.2,.1,.3,.1c0,.1,.1,.1,.2,.2l-.1,-.1Zm.8,.3h-2.2l.2,.2h2.2l-.2,-.2Zm-.1,.9c0,-.1,-.1,-.2,-.1,-.3c-.1,0,-.2,-.1,-.3,-.1q-.1,-.1,-.2,-.1c-.2,0,-.3,0,-.3,.1c-.1,.1,-.2,.2,-.2,.3c0,.1,0,.2,.1,.2c.1,.1,.1,.2,.2,.2c.2,0,.3,-.1,.3,-.3c0,-.1,0,-.2,-.1,-.2c.1,0,.1,-.1,.2,-.1c.1,0,.1,.1,.2,.2c.1,.1,.1,.2,.1,.3c0,.1,-.1,.2,-.2,.3c-.1,.1,-.2,.2,-.3,.2c-.3,0,-.5,-.2,-.7,-.5c-.1,0,-.1,-.1,-.2,-.2c0,-.2,-.1,-.3,-.2,-.5l-.1,-.1c.3,1.1,.7,1.6,1.2,1.6c.1,0,.3,-.1,.4,-.2c.1,-.1,.2,-.2,.2,-.2c0,-.1,0,-.2,0,-.3c0,-.1,0,-.2,0,-.3Zm2.1,-1.2c-.4,-.4,-.7,-.6,-1.1,-.6c-.2,0,-.3,.1,-.5,.2c-.1,.2,-.2,.3,-.2,.5c0,0,0,.1,.1,.1l.1,.1h-.5l.2,.2h.2V912l.2,.2v-2h.3l-.1,-.2h-.2l-.1,-.1c0,-.2,.1,-.3,.2,-.4c.2,-.1,.3,-.2,.5,-.2c.1,0,.1,.1,.2,.1c.1,0,.2,0,.3,.1c.1,0,.2,.1,.2,.1c.1,.1,.2,.1,.2,.2v-.1Zm.5,.5l-.1,-.2h-1.8l.2,.2h1.2v.1c-.4,.2,-.8,.4,-1.1,.6l.2,.4c.3,0,.5,.1,.6,.2q.1,.1,.2,.2c0,.1,.1,.1,.1,.2c0,0,0,.1,.1,.2V912l.1,.2v-2h.3Zm-.5,1.5c-.2,-.3,-.4,-.5,-.7,-.7c.1,0,.2,-.1,.3,-.2c.2,0,.3,-.1,.4,-.1v1Zm-.7,.2c0,.1,.1,.1,.1,.1q.1,0,.1,-.1q.1,0,.1,-.1c0,0,0,-.1,-.1,-.1q0,-.1,-.1,-.1c0,0,-.1,0,-.1,.1c-.1,0,-.1,.1,-.1,.1q0,.1,.1,.1Zm3.6,-1.9h-2.7l.2,.2h2.6l-.1,-.2Zm-.2,.7c0,-.1,-.1,-.1,-.2,-.1c-.1,0,-.2,.1,-.4,.2c0,-.2,0,-.3,-.1,-.4c0,-.1,-.1,-.1,-.3,-.1c-.1,0,-.3,0,-.4,.2c-.2,.1,-.2,.2,-.2,.3c0,.1,0,.2,0,.2q.1,.1,.2,.1c.1,0,.2,-.1,.2,-.2c0,-.1,-.1,-.1,-.1,-.2c0,0,.1,-.1,.1,-.1c.1,-.1,.2,-.1,.3,-.1c0,0,.1,0,.1,.1c.1,0,.1,.1,.1,.1q0,.1,-.1,.2c0,0,-.1,-.1,-.1,-.1c-.1,0,-.1,.1,-.2,.1c0,0,0,.1,0,.2c0,0,0,.1,0,.1q.1,.1,.2,.1c.1,0,.1,-.1,.2,-.1q0,.1,0,.2c0,.1,0,.2,0,.2c-.1,.1,-.2,.1,-.3,.1c-.2,0,-.4,-.1,-.5,-.2c-.1,-.1,-.1,-.2,-.2,-.2c0,-.1,-.1,-.2,-.1,-.3l-.2,-.6h-.1c.2,1,.6,1.6,1.1,1.6q.1,0,.2,-.1c0,0,.1,0,.1,-.1c.1,-.1,.2,-.2,.2,-.3c0,-.1,-.1,-.2,-.1,-.3V911c0,0,.1,-.1,.1,-.1c.1,-.1,.2,-.1,.2,-.1c.1,0,.2,0,.2,.1c.1,0,.1,.1,.1,.1c0,.1,-.1,.2,-.1,.2c0,-.1,-.1,-.2,-.2,-.2c0,0,0,.1,-.1,.1c0,0,0,.1,0,.1c0,0,0,.1,0,.1c0,0,0,.1,0,.1q.1,0,.1,0c0,0,.1,0,.1,0c.1,0,.2,0,.2,-.1c.1,-.1,.1,-.2,.1,-.3c0,-.1,0,-.2,-.1,-.3Zm3.5,-.7h-2.3l.2,.2h1.8v1.3l-.2,-.2c0,-.1,0,-.2,0,-.3c0,-.1,0,-.3,-.1,-.4c0,0,-.1,-.1,-.2,-.2c0,0,-.1,0,-.2,-.1c0,0,-.1,0,-.1,0c-.1,0,-.2,0,-.3,.1c0,.1,-.1,.1,-.1,.1q0,.1,0,.2c0,0,0,.1,0,.1c0,.1,.1,.1,.2,.1c.1,.1,.1,0,.2,0c0,0,.1,-.1,.1,-.1c0,0,0,-.1,0,-.1q0,-.1,0,-.2h.1l.1,.1l.1,.1c0,0,0,.1,0,.1q0,.1,0,.1c0,.1,0,.2,0,.3c-.1,.1,-.2,.2,-.5,.2c0,0,-.1,0,-.2,-.1c-.1,0,-.2,-.1,-.2,-.2c-.1,-.1,-.2,-.2,-.2,-.3c-.1,-.1,-.1,-.3,-.1,-.4l-.1,-.1c0,.2,0,.3,0,.5c.1,.1,.1,.2,.2,.3c0,.1,.1,.2,.1,.3c.1,0,.1,.1,.2,.1q.1,.1,.2,.2q.1,0,.2,0c.1,0,.2,0,.3,-.1c.1,0,.1,-.1,.2,-.2c.2,.2,.3,.4,.4,.7l.1,.1v-2h.3l-.2,-.2Zm1.9,.2l-.2,-.2h-1.7l.1,.2h1.3v1c-.2,-.4,-.4,-.6,-.7,-.6c-.1,0,-.2,.1,-.3,.2c-.1,0,-.1,.1,-.1,.3c0,.2,.1,.3,.3,.3c.1,0,.2,0,.2,-.1c.1,0,.1,-.1,.1,-.2c0,0,-.1,-.1,-.1,-.2c.2,0,.4,.1,.5,.4c.1,.2,.2,.4,.2,.6v.2l.1,.1v-2h.3Zm.1,2.6h-.1q0,-.1,0,-.1q-.1,-.1,-.2,-.2c0,-.1,-.1,-.1,-.1,-.1c0,-.1,0,-.2,0,-.2c0,-.1,0,-.2,-.1,-.2l-.1,-.1q0,.1,0,.2q0,.1,0,.2c-.1,-.1,-.2,-.1,-.3,-.1c0,0,-.1,0,-.1,0c0,0,-.1,0,-.1,0c0,.1,-.1,.1,-.1,.1q0,.1,0,.2c0,0,0,.1,.1,.2c.1,0,.2,0,.2,0c.2,0,.3,0,.4,-.2c.1,0,.1,.1,.1,.1c.1,0,.1,.1,.2,.1q0,.1,.1,.1c0,.1,.1,.1,.1,.2v-.2Zm-.7,-.4q0,.1,-.1,.1c0,0,-.1,.1,-.1,.1q-.1,-.1,-.1,-.2c0,0,0,-.1,.2,-.1c0,0,0,.1,.1,.1Zm2.6,-2.2l-.2,-.2c-.1,0,-.2,-.1,-.2,-.2l-.1,-.1v.8c0,-.1,-.1,-.2,-.2,-.3c-.1,-.1,-.2,-.2,-.2,-.2c-.2,0,-.4,.2,-.5,.4c0,-.1,-.1,-.2,-.2,-.3c0,0,-.1,-.1,-.2,-.1h-.4l.2,.2c0,0,.1,0,.2,0c.1,0,.2,.1,.3,.3q-.1,0,-.1,0c-.1,0,-.1,.1,-.1,.1q-.1,.1,-.1,.1q0,.1,0,.2c0,0,0,.1,0,.2q.1,0,.2,0c.1,0,.2,0,.3,-.2q0,.1,.1,.2c0,0,.1,0,.2,0c0,0,.1,0,.1,-.1c.1,0,.1,-.1,.1,-.2c0,-.1,-.1,-.2,-.3,-.3q0,-.1,.1,-.1c0,-.1,.1,-.1,.1,-.1c.1,0,.2,.1,.3,.2c0,.1,.1,.2,.1,.3V912l.1,.2v-2h.4Zm.7,0l-.2,-.2h-.2c-.2,-.6,-.5,-1,-1.1,-1c-.1,0,-.2,.1,-.2,.1c-.1,0,-.2,0,-.2,0c-.1,.1,-.2,.1,-.2,.2c-.1,0,-.1,.1,-.1,.1q0,.1,.1,.2c0,0,.1,.1,.2,.1h.1c.1,0,.2,.1,.4,.1c.1,0,.2,0,.2,.1q0,.1,0,.1h.1c0,0,.1,-.1,.1,-.1c0,-.1,-.1,-.1,-.1,-.2c-.1,0,-.1,-.1,-.2,-.1c-.1,0,-.3,-.1,-.5,-.1c-.2,0,-.3,0,-.3,-.1c0,0,.1,-.1,.2,-.1q.1,0,.2,-.1c0,0,.1,0,.1,0c.6,0,1,.3,1,.8h-.4l.2,.2h.2V912l.2,.2v-2h.4Zm1.9,0l-.2,-.2h-2l.2,.2h1.4v.5c0,-.2,-.1,-.3,-.3,-.3c0,0,-.1,0,-.1,.1c-.1,0,-.1,.1,-.1,.2c-.1,-.2,-.3,-.3,-.4,-.3c-.2,0,-.3,.1,-.3,.2c-.1,.1,-.1,.2,-.1,.3c0,.1,0,.2,0,.3c0,0,.1,.1,.1,.1q.1,.1,.2,.1c0,.1,.1,.1,.2,.1c.1,0,.2,-.1,.2,-.1c.1,0,.1,-.1,.1,-.2c0,-.2,-.1,-.2,-.3,-.3c0,0,-.1,.1,-.1,.1c0,0,-.1,.1,-.1,.1c0,.1,.1,.1,.1,.2c-.2,0,-.3,-.1,-.3,-.3c0,0,0,-.1,.1,-.1c0,0,0,-.1,0,-.1c.1,0,.1,-.1,.1,-.1q.1,0,.2,0c.1,0,.2,0,.2,.1c.1,0,.2,.1,.2,.2h.1q-.1,-.1,-.1,-.1c0,-.1,.1,-.2,.2,-.2q.1,0,.2,.1c0,0,0,.1,0,.1V912l.2,.2v-2h.4Zm1.6,0l-.1,-.2h-1.8l.2,.2h1.2v1c-.2,-.4,-.4,-.6,-.6,-.6c-.2,0,-.3,.1,-.4,.2c0,0,-.1,.1,-.1,.3c0,.2,.1,.3,.4,.3c0,0,.1,0,.1,-.1c.1,0,.1,-.1,.1,-.2c0,0,0,-.1,-.1,-.2c.2,0,.4,.1,.6,.4c0,.2,.1,.4,.1,.6v.2l.1,.1v-2h.3Zm3,-.5c-.3,-.4,-.7,-.6,-1.1,-.6c-.1,0,-.3,.1,-.4,.2c-.2,.2,-.3,.3,-.3,.5c0,0,.1,.1,.1,.1l.1,.1h-.5l.2,.2h.3V912l.2,.2v-2h.3l-.2,-.2h-.2l-.1,-.1c.1,-.2,.1,-.3,.3,-.4c.1,-.1,.3,-.2,.4,-.2c.1,0,.2,.1,.3,.1c.1,0,.2,0,.2,.1c.1,0,.2,.1,.3,.1q.1,.1,.2,.2l-.1,-.1Zm.8,.5l-.2,-.2h-2l.2,.2h1.5v.5c-.1,-.2,-.2,-.3,-.3,-.3q-.1,0,-.2,.1c0,0,-.1,.1,-.1,.2c-.1,-.2,-.2,-.3,-.4,-.3c-.1,0,-.2,.1,-.3,.2c0,.1,-.1,.2,-.1,.3c0,.1,0,.2,.1,.3c0,0,0,.1,.1,.1c0,.1,.1,.1,.1,.1c.1,.1,.2,.1,.2,.1c.1,0,.2,-.1,.3,-.1c0,0,0,-.1,0,-.2q0,-.2,-.2,-.3c-.1,0,-.1,.1,-.1,.1c-.1,0,-.1,.1,-.1,.1q0,.1,0,.2c-.1,0,-.2,-.1,-.2,-.3c0,0,0,-.1,0,-.1c0,0,.1,-.1,.1,-.1c0,0,.1,-.1,.1,-.1c0,0,.1,0,.1,0c.1,0,.2,0,.3,.1c.1,0,.1,.1,.1,.2h.1q0,-.1,0,-.1c0,-.1,.1,-.2,.2,-.2c0,0,.1,0,.1,.1c.1,0,.1,.1,.1,.1V912l.2,.2v-2h.3Zm.9,-.2h-1.2l.2,.2h.6c-.3,.3,-.4,.6,-.4,1c0,.2,.1,.4,.2,.6c.1,.2,.2,.3,.4,.3q.1,0,.2,0c0,0,0,-.1,.1,-.1v-.1c.1,0,.1,-.1,.1,-.1c0,-.1,-.1,-.1,-.1,-.2c0,0,-.1,-.1,-.2,-.1c0,0,-.1,.1,-.1,.1c-.1,0,-.1,.1,-.1,.1q0,.1,.1,.1q0,.1,0,.1c-.1,.1,-.2,0,-.3,-.2c-.1,-.1,-.1,-.2,-.1,-.3c0,-.2,0,-.3,0,-.4c.1,-.2,.1,-.3,.2,-.4c.1,-.1,.1,-.2,.2,-.2c.1,-.1,.3,-.2,.4,-.2l-.2,-.2Zm2.1,.2l-.2,-.2h-2q.1,.1,.2,.2q.1,.1,.2,.1c0,.1,.1,.1,.1,.1c.1,0,.2,0,.2,0c.1,0,.1,.1,.1,.1c.1,0,.1,.1,.1,.1q0,.1,.1,.2c-.1,.1,-.2,.2,-.2,.2c0,.1,-.1,.1,-.1,.1q0,.1,-.1,.1h-.1c0,0,0,-.1,0,-.1L747,911l-.1,.1c0,0,0,.1,.1,.1c0,0,0,.1,.1,.1q0,.1,.1,.1c0,.1,.1,.1,.1,.1c0,0,.1,0,.1,0c0,0,0,-.1,.1,-.1c0,0,0,-.1,.1,-.1c0,-.1,.1,-.2,.1,-.3c.1,-.1,.2,-.1,.2,-.1c.1,-.1,.2,0,.2,0c.1,.1,.1,.2,.1,.3c0,.1,.1,.2,.1,.4c0,0,0,.1,0,.1c0,0,0,.1,0,.1c0,0,-.1,.1,-.1,.2q.1,0,.1,.1q.1,0,.1,.1v-2h.4Zm-.6,.7c0,-.1,-.1,-.2,-.1,-.2c0,-.1,-.1,-.1,-.1,-.1q-.1,0,-.2,0c0,0,-.1,0,-.1,.1c0,-.1,-.1,-.2,-.1,-.2c0,-.1,-.1,-.2,-.2,-.3h.8v.7Zm2.4,-1.2c-.4,-.4,-.7,-.6,-1.1,-.6c-.2,0,-.3,.1,-.5,.2c-.1,.2,-.2,.3,-.2,.5c0,0,0,.1,0,.1l.2,.1h-.5l.2,.2h.2V912l.2,.2v-2h.3l-.1,-.2h-.2l-.1,-.1c0,-.2,.1,-.3,.2,-.4c.2,-.1,.3,-.2,.4,-.2c.1,0,.2,.1,.3,.1c.1,0,.2,0,.3,.1c.1,0,.1,.1,.2,.1c.1,.1,.2,.1,.2,.2v-.1Zm.5,.5l-.2,-.2h-1.7l.2,.2h1.2v1c-.2,-.4,-.4,-.6,-.6,-.6c-.2,0,-.3,.1,-.4,.2c0,0,-.1,.1,-.1,.3c0,.2,.1,.3,.4,.3c0,0,.1,0,.1,-.1c.1,0,.1,-.1,.1,-.2c0,0,0,-.1,-.1,-.2c.2,0,.4,.1,.5,.4c.1,.2,.2,.4,.2,.6v.2l.1,.1v-2h.3Zm.8,0c-.1,-.1,-.2,-.1,-.3,-.1c-.1,0,-.2,0,-.3,.1c0,0,0,.1,0,.1c-.1,.1,-.1,.2,-.1,.2c0,.1,.1,.2,.2,.3c0,.1,.1,.1,.3,.1c.1,0,.2,0,.2,-.1c.1,-.1,.1,-.2,.1,-.3c0,-.1,0,-.2,-.1,-.3Zm-.1,.5c-.1,0,-.2,.1,-.3,.1c0,0,-.1,-.1,-.1,-.2c0,0,0,-.1,0,-.1q.1,-.1,.1,-.1c.1,-.1,.2,-.1,.2,-.1c.1,0,.2,0,.2,.1c0,.1,-.1,.2,-.1,.3Zm.4,1.3c-.1,-.1,-.3,-.3,-.5,-.5c-.1,-.2,-.3,-.3,-.4,-.5v.5c0,0,.1,.1,.2,.1q.1,.1,.2,.2c.1,0,.2,.1,.3,.2c0,0,.1,.1,.2,.2V912Zm3.1,-2.3c-.4,-.4,-.8,-.6,-1.1,-.6c-.2,0,-.3,.1,-.5,.2c-.2,.2,-.2,.3,-.2,.5c0,0,0,.1,0,.1l.1,.1h-.4l.1,.2h.3V912l.2,.2v-2h.3l-.2,-.2h-.2v-.1c0,-.2,.1,-.3,.2,-.4c.2,-.1,.3,-.2,.4,-.2c.1,0,.2,.1,.3,.1c.1,0,.2,0,.3,.1c0,0,.1,.1,.2,.1q.1,.1,.2,.2v-.1Zm.6,1.5c0,-.2,0,-.3,-.1,-.3q0,-.1,-.1,-.2c.1,0,.1,-.1,.1,-.2c0,-.2,-.1,-.2,-.1,-.3h1l-.2,-.2h-2.6l.1,.2h.7c0,.1,0,.2,0,.3c-.1,.1,-.2,.1,-.2,.1l-.2,-.1l-.1,.2l.2,.1c0,0,0,.1,.1,.1h.1c0,0,.1,-.1,.2,-.2c0,0,.1,-.1,.1,-.1q0,-.1,0,-.2c0,.1,.1,.1,.1,.2c0,.1,.1,.1,.2,.2q.1,0,.1,0c0,0,-.1,.1,-.1,.1c0,0,-.1,.1,-.1,.1c0,0,0,.1,0,.1c0,0,-.1,.1,-.1,.1c0,0,0,.1,0,.1q0,.1,0,.1q.1,.1,.1,.1c0,.1,.1,.1,.1,.1c0,0,.1,0,.1,0q.1,0,.2,-.1v-.1c0,0,0,-.1,0,-.1c-.1,0,-.1,-.1,-.1,-.1q-.1,0,-.1,0c0,-.2,.1,-.3,.3,-.3q.1,0,.1,.1v.9c0,0,-.1,-.1,-.2,-.1c0,0,-.1,0,-.2,0h-.2c-.2,0,-.3,-.1,-.4,-.1c-.1,-.1,-.1,-.2,-.1,-.3v-.2l-.1,-.1q0,.1,0,.2q0,.1,0,.2c0,0,0,.1,0,.2c0,.1,.1,.1,.1,.2c.1,0,.1,.1,.2,.1c0,0,.1,.1,.2,.1l.1,-.1c0,0,.1,0,.1,0q.1,0,.2,0c0,0,.1,0,.1,0c.1,0,.2,0,.2,.1c0,0,.1,.1,.1,.2l.1,.1v-.9c0,-.3,.1,-.4,.3,-.4c0,0,.1,.1,.1,.2q-.2,0,-.3,.1c0,.1,.1,.1,.1,.2c0,0,.1,0,.1,0c.2,0,.3,-.1,.3,-.3q0,-.1,0,-.1q0,-.1,-.1,-.1q0,-.1,0,-.1q-.1,0,-.2,0c-.1,0,-.2,0,-.3,.2Zm-.9,-1h.6c0,.1,0,.2,0,.2c0,.1,-.1,.2,-.2,.2c-.1,0,-.2,0,-.3,-.1c0,-.1,-.1,-.2,-.1,-.3Zm3.3,-.2c0,0,-.1,0,-.1,0q-.1,0,-.1,-.1c0,0,0,-.1,0,-.1l-.1,-.1v.8c0,-.1,-.1,-.2,-.2,-.3c-.1,-.1,-.2,-.2,-.4,-.2c0,0,-.1,0,-.1,.1c-.1,0,-.2,0,-.2,.1c-.1,0,-.1,.1,-.2,.1q0,.1,0,.2q0,.1,.1,.1h.1c0,0,.1,0,.1,0h.1c0,0,0,.1,0,.1c0,.1,-.1,.2,-.2,.2l.2,.1l.6,-.5c0,.1,.1,.1,.1,.2c0,0,0,.1,0,.2c0,0,-.1,0,-.1,0c-.1,0,-.2,0,-.2,0c-.1,.1,-.1,.2,-.1,.3q0,.1,0,.2q.1,0,.2,0c.1,0,.2,0,.2,-.2c0,0,0,-.1,-.1,-.2h.1c.1,0,.2,.1,.2,.1c0,.1,.1,.1,.1,.2c0,.1,-.1,.2,-.2,.3c-.1,.1,-.2,.1,-.3,.1c-.5,0,-.8,-.4,-1,-1.2l-.1,-.1c0,.2,0,.4,.1,.5c.1,.2,.1,.4,.2,.6c.2,.3,.5,.5,.8,.5c.1,0,.2,0,.3,-.1c0,0,.1,0,.1,-.1c.2,-.1,.2,-.2,.2,-.4c0,-.2,-.1,-.3,-.2,-.5v-.7h.3l-.2,-.2Zm-.9,.6c0,-.1,-.1,-.2,-.2,-.2c0,-.1,.1,-.2,.3,-.2c.1,0,.1,.1,.2,.2l-.3,.2Z" class="gj_5"/>
<path d="M685.1,911.4c0,0,-.2,-2.1,1.8,-2c0,0,1.5,-.1,1.5,2.1m-3.3,-.4v1.5c0,0,-.8,0,-.9,-.7c0,0,0,-.8,.9,-.8Zm3.3,0v1.5c0,0,.7,0,.9,-.7c0,0,0,-.8,-.9,-.8Z" class="gk_5"/>
</g>
<path clip-path="url(#c8_5)" d="M682.6,914.8H824.4" class="gl_5"/>
<image clip-path="url(#ca_5)" preserveAspectRatio="none" x="795" y="714" width="32" height="26" xlink:href="img/6.png"/>
<path clip-path="url(#c7_5)" d="M781,806.8c0,0,-1,0,-1,.9v2.4c0,0,0,.9,1,.9h6.6c0,0,.9,0,.9,-.9v-2.4c0,0,0,-.9,-.9,-.9Z" class="g5_5"/>
<g clip-path="url(#c8_5)">
<path d="M778.1,804.8V813m.3,.2h53.1m.2,-.3v-8.2m-.3,-.2H778.3" class="gh_5"/>
<path d="M778.1,813.1v.1h.1m53.4,0h.1v-.1m0,-8.4v-.2h-.1m-53.4,0h-.1v.2" class="gi_5"/>
</g>
<image clip-path="url(#cb_5)" preserveAspectRatio="none" x="674" y="745" width="159" height="62" xlink:href="img/7.png"/>
<g clip-path="url(#c7_5)">
<path d="M679.3,745.8c0,0,-3.8,0,-3.8,3.7v50.6c0,0,0,3.8,3.8,3.8H827.7c0,0,3.7,0,3.7,-3.8V749.5c0,0,0,-3.7,-3.7,-3.7Z" class="g1_5"/>
<path d="M708.2,750.1c-.3,-.4,-.7,-.6,-1.1,-.6c-.1,0,-.3,.1,-.4,.2c-.2,.1,-.3,.3,-.3,.4c0,.1,.1,.1,.1,.2l.1,.1h-.5l.2,.2h.3v1.8l.2,.1v-1.9h.3l-.2,-.2h-.2l-.1,-.2c.1,-.1,.1,-.2,.3,-.3c.1,-.1,.3,-.2,.4,-.2c.1,0,.2,0,.3,.1c.1,0,.2,0,.2,.1c.1,0,.2,.1,.3,.1c0,.1,.1,.1,.2,.2l-.1,-.1Zm.7,1.4c0,-.1,-.1,-.2,-.1,-.2c0,-.1,-.1,-.2,-.1,-.2c0,-.1,.1,-.2,.1,-.3c0,-.1,-.1,-.2,-.1,-.2h1l-.2,-.2h-2.7l.2,.2h.7c0,.1,0,.2,-.1,.3c0,.1,-.1,.1,-.2,.1l-.1,-.1l-.1,.1l.1,.2q.1,0,.1,.1q.1,0,.1,0c.1,0,.2,-.1,.3,-.2q0,-.1,.1,-.2c0,0,0,-.1,0,-.1c0,0,0,.1,.1,.2c0,0,.1,.1,.2,.2h.1q-.1,0,-.1,.1q-.1,0,-.1,.1l-.1,.1v.1c0,0,0,.1,0,.1c0,0,0,.1,0,.1c0,0,.1,.1,.1,.1l.1,.1h.1c0,0,.1,0,.1,-.1c.1,0,.1,-.1,.1,-.1q0,-.1,-.1,-.1q0,-.1,-.1,-.1c0,-.2,.1,-.3,.3,-.3c0,0,.1,0,.1,.1v.9c-.1,0,-.1,-.1,-.2,-.1q-.1,0,-.2,0H708c-.1,0,-.2,-.1,-.3,-.1c-.1,-.1,-.1,-.2,-.1,-.3c0,0,0,-.1,0,-.1c0,0,0,-.1,0,-.1l-.1,-.1c0,0,0,.1,0,.2c0,0,0,.1,0,.1c0,.1,0,.2,0,.3c0,0,0,.1,.1,.1c0,.1,.1,.2,.1,.2c.1,0,.2,0,.2,0q.1,0,.1,0q.1,0,.2,0q.1,0,.2,0c0,0,.1,0,.1,0c.1,0,.2,0,.2,.1c0,0,.1,.1,.1,.2h.1v-.8c0,-.3,.1,-.4,.3,-.4c0,0,.1,.1,.1,.1c-.2,0,-.3,.1,-.3,.2q0,.1,.1,.1c0,.1,.1,.1,.1,.1c.2,0,.3,-.1,.3,-.3q0,-.1,0,-.2c0,0,-.1,0,-.1,-.1h-.1q0,-.1,-.1,-.1c-.1,0,-.2,.1,-.3,.2Zm-.9,-.9h.5q.1,.1,.1,.2c0,.1,-.1,.2,-.2,.2c-.1,0,-.2,-.1,-.3,-.1c-.1,-.1,-.1,-.2,-.1,-.3Zm4.1,-.2h-.3c0,-.2,0,-.3,-.1,-.4c-.1,-.1,-.3,-.1,-.4,-.1c-.1,0,-.2,0,-.3,0q-.1,0,-.2,0c0,0,-.1,0,-.1,0q-.1,0,-.2,0q-.1,-.1,-.1,-.2v-.2l-.1,.1c0,0,0,.1,0,.1c0,.2,.1,.3,.2,.4c.1,0,.2,.1,.4,.1h.1c0,0,.1,-.1,.1,-.1c.1,0,.2,0,.2,0c0,0,.1,0,.1,0c0,0,.1,0,.1,0c0,0,.1,.1,.1,.1c0,0,.1,0,.1,.1c0,0,0,.1,0,.1h-.8v.6q-.1,-.1,-.1,-.2c-.1,0,-.1,-.1,-.2,-.1c-.1,-.1,-.2,-.2,-.4,-.2c0,0,-.1,0,-.1,0c-.1,.1,-.2,.1,-.2,.1c-.2,.1,-.3,.2,-.3,.3q0,.1,.1,.1q0,.1,.1,.1h.1c0,-.1,.1,-.1,.1,-.1c.1,0,.1,.1,.1,.1q0,.1,-.1,.2l-.1,.1l.3,.1c0,-.1,.1,-.2,.2,-.3c.1,-.1,.2,-.1,.3,-.2c0,0,.1,.1,.1,.1c0,0,0,.1,.1,.1v.5c0,.4,.1,.7,.3,.6c.1,0,.2,0,.3,-.1c0,0,.1,-.1,.2,-.2c.1,-.1,.1,-.2,.2,-.3c0,-.1,0,-.2,0,-.3c0,-.1,0,-.2,-.1,-.2c0,-.1,-.1,-.1,-.2,-.1q-.1,0,-.2,0q0,.1,0,.2q0,.1,0,.2q.1,0,.2,0h.1c-.1,.1,-.1,.2,-.2,.4c-.2,.1,-.3,.2,-.4,.2c0,0,-.1,0,-.1,-.1v-1.4h1.3l-.2,-.2Zm-1.9,.7c0,0,0,-.1,0,-.1v-.1q-.1,0,-.1,0q-.1,0,-.1,0c0,-.2,.1,-.2,.3,-.2h.1c.1,0,.1,.1,.1,.1l-.3,.3Zm4.1,-.7c-.1,0,-.2,0,-.2,.1c-.1,0,-.2,0,-.2,.1c-.1,.1,-.2,.3,-.3,.4c-.1,.2,-.1,.4,-.1,.5c0,.3,.1,.5,.1,.7c.2,.2,.3,.3,.5,.3q.1,0,.2,0q0,-.1,.1,-.1c0,0,0,-.1,0,-.1c0,0,.1,-.1,.1,-.1c0,-.1,-.1,-.2,-.1,-.2q-.1,-.1,-.2,-.1q-.1,0,-.1,.1c0,0,-.1,0,-.1,0q0,.1,0,.1q0,.1,0,.1q.1,.1,.1,.1c-.1,0,-.2,0,-.3,-.2c-.1,-.1,-.1,-.2,-.1,-.3c0,-.2,0,-.3,0,-.5c.1,-.1,.1,-.2,.2,-.3c0,-.1,.1,-.2,.2,-.3c.1,0,.2,-.1,.4,-.1l-.2,-.2Zm2.1,.2l-.2,-.2c-.1,0,-.2,-.1,-.2,-.2l-.1,-.1v.8c0,-.1,0,-.2,-.1,-.3c-.2,-.1,-.2,-.2,-.3,-.2c-.2,0,-.4,.1,-.5,.4c0,-.1,0,-.2,-.1,-.3c-.1,-.1,-.2,-.1,-.3,-.1h-.4l.2,.2c0,0,.1,0,.2,0c.1,0,.2,.1,.3,.2c0,0,-.1,.1,-.1,.1c0,0,-.1,.1,-.1,.1c0,0,-.1,.1,-.1,.1q0,.1,0,.1c0,.1,0,.2,.1,.2c0,.1,.1,.1,.1,.1c.2,0,.3,-.1,.3,-.2c0,.1,.1,.1,.1,.2q.1,0,.2,0q.1,0,.2,-.1c0,0,0,-.1,0,-.2c0,-.1,-.1,-.2,-.2,-.3q0,-.1,0,-.1q.1,-.1,.2,-.1c0,0,.1,.1,.2,.2c.1,.1,.1,.2,.1,.3v1.2l.2,.2v-2h.3Zm.7,0l-.2,-.2h-.1q-.1,-.1,-.2,-.3v.1q0,.1,0,.2q0,.1,0,.2c0,0,0,.1,0,.1c0,-.1,-.1,-.2,-.1,-.2c-.1,-.1,-.2,-.1,-.3,-.1H716l.2,.2c0,0,.1,0,.1,0c.1,0,.1,.1,.2,.1c0,0,0,.1,0,.1q.1,.1,.1,.2v1.4l.2,.1v-1.9h.3Zm1.7,0l-.2,-.2h-1.8l.2,.2h1.3v1c-.2,-.4,-.4,-.6,-.7,-.6c-.1,0,-.2,0,-.3,.1c-.1,.1,-.1,.2,-.1,.3c0,.3,.1,.4,.3,.4q.1,0,.2,-.1c0,0,.1,-.1,.1,-.2c0,0,-.1,-.1,-.2,-.2c0,0,.1,0,.1,0c.2,0,.3,.1,.5,.3c.1,.3,.1,.5,.1,.7v.2l.2,.1v-2h.3Zm.7,0l-.2,-.2h-.2c0,-.1,-.1,-.1,-.1,-.3v.1q0,.1,0,.2q0,.1,0,.2c0,0,0,.1,0,.1c-.1,-.1,-.1,-.2,-.2,-.2c0,-.1,-.1,-.1,-.2,-.1h-.2l.2,.2c0,0,.1,0,.1,0c.1,0,.1,.1,.1,.1c.1,0,.1,.1,.1,.1c0,.1,.1,.1,.1,.2v1.4l.1,.1v-1.9h.4Z" class="gj_5"/>
<path d="M685.1,751.8c0,0,-.2,-2.1,1.8,-2c0,0,1.5,-.1,1.5,2.1m-3.3,-.4v1.4c0,0,-.8,.1,-.9,-.6c0,0,0,-.8,.9,-.8Zm3.3,0v1.4c0,0,.7,.1,.9,-.6c0,0,0,-.8,-.9,-.8Z" class="gk_5"/>
</g>
<g clip-path="url(#c8_5)">
<path d="M682.6,755.1H824.4" class="gl_5"/>
<path d="M675.7,895.3H831.3V822H675.7v73.3Z" class="gm_5"/>
<path d="M675.7,823v71.8m1,.5H830.8m.5,-1V822.5m-1,-.5H676.2" class="gn_5"/>
</g>
<g clip-path="url(#c7_5)">
<path d="M675.5,825.2v-8.4c0,0,0,-1.9,1.9,-1.9H829.6c0,0,1.8,0,1.8,1.9v8.5Z" class="go_5"/>
<path d="M815.3,820.4c0,0,-.1,-2.2,1.9,-2.1c0,0,1.5,-.1,1.5,2.1m-3.4,-.3v1.4c0,0,-.7,.1,-.9,-.7c0,0,0,-.8,.9,-.7Zm3.4,0v1.4c0,0,.7,.1,.8,-.7c0,0,0,-.8,-.8,-.7Z" class="gp_5"/>
<path d="M688.8,835.8c0,0,-1.8,0,-1.8,1.9v16.5c0,0,0,1.9,1.8,1.9h21.1c0,0,1.9,0,1.9,-1.9V837.7c0,0,0,-1.9,-1.9,-1.9Z" class="g1_5"/>
</g>
<image clip-path="url(#cc_5)" preserveAspectRatio="none" x="685" y="835" width="29" height="22" xlink:href="img/8.jpg"/>
<path clip-path="url(#cd_5)" d="M685.6,857.1h27.7V835.9H685.6v21.2Z" class="gq_5"/>
<path d="M658.8,707.9c0,0,-6.9,0,-6.9,6.9v267c0,0,0,6.9,6.9,6.9H843.5c0,0,6.8,0,6.8,-6.9v-267c0,0,0,-6.9,-6.8,-6.9H658.8Z" class="ge_5"/>
<image preserveAspectRatio="none" x="747" y="60" width="118" height="101" xlink:href="img/9.png"/>
<path d="M32.1,45.1H9.2m958.3,0h22.9M32.1,1331.3H9.2m958.3,0h22.9M45.1,32.1V9.2m0,1335.1v22.9M954.5,32.1V9.2m0,1335.1v22.9" class="gr_5"/>
<path d="M32.1,45.1H9.2m958.3,0h22.9M32.1,1331.3H9.2m958.3,0h22.9M45.1,32.1V9.2m0,1335.1v22.9M954.5,32.1V9.2m0,1335.1v22.9" class="gs_5"/>
<path d="M27.5,32.1H0m972.1,0h27.5M27.5,1344.3H0m972.1,0h27.5M32.1,27.5V0m0,1348.9v27.5M967.5,27.5V0m0,1348.9v27.5" class="gr_5"/>
<path d="M27.5,32.1H0m972.1,0h27.5M27.5,1344.3H0m972.1,0h27.5M32.1,27.5V0m0,1348.9v27.5M967.5,27.5V0m0,1348.9v27.5" class="gs_5"/>
</svg>