<?xml version="1.0" encoding="UTF-8" standalone="no"?>
<!DOCTYPE svg PUBLIC "-//W3C//DTD SVG 1.1//EN"
"http://www.w3.org/Graphics/SVG/1.1/DTD/svg11.dtd">
<svg viewBox="0 0 999 1376" version="1.1" xmlns="http://www.w3.org/2000/svg" xmlns:xlink="http://www.w3.org/1999/xlink">
<defs>
<clipPath id="c0_186"><path d="M32.1,1344.3V32.1H967.5V1344.3Z"/></clipPath>
<clipPath id="c1_186"><path d="M176.7,659.6l-6.5,-2.2L153.8,643.5V586.4h72v73.2Z"/></clipPath>
<clipPath id="c2_186"><path d="M186.2,290.4l-6.5,-2.2L163.3,274.3V217.2h72v73.2Z"/></clipPath>
<clipPath id="c3_186"><path d="M754.4,342.1V329.7h14.4v12.4Z"/></clipPath>
<clipPath id="c4_186"><path d="M222.3,838.6V750.7h90.1v87.9Z"/></clipPath>
<clipPath id="c5_186"><path d="M222.5,960.7V871.5h89.3v89.2Z"/></clipPath>
<clipPath id="c6_186"><path d="M397.2,838.6V750.7h90.2v87.9Z"/></clipPath>
<clipPath id="c7_186"><path d="M397.7,960.7V871.5h89.2v89.2Z"/></clipPath>
<clipPath id="c8_186"><path d="M563,838.6V755.3l.1,-3.9h89.1v87.2Z"/></clipPath>
<clipPath id="c9_186"><path d="M563,960.7V871.5h89.2v89.2Z"/></clipPath>
<clipPath id="ca_186"><path d="M728.7,838.6l3.5,-87.2h85.3v87.2Z"/></clipPath>
<clipPath id="cb_186"><path d="M728.3,960.7V871.5h89.2v89.2Z"/></clipPath>
<style type="text/css"><![CDATA[
.g0_186{
fill: #FEFCF4;
}
.g1_186{
fill: #59816A;
}
.g2_186{
fill: #2E6E51;
}
.g3_186{
fill: #92A696;
}
.g4_186{
fill: #F9F6DB;
}
.g5_186{
fill: #DE524C;
}
.g6_186{
fill: #030303;
}
.g7_186{
fill: #FFF;
}
.g8_186{
fill: #FCE8B0;
}
.g9_186{
fill: none;
stroke: #6381B7;
stroke-width: 0.763;
}
.ga_186{
fill: #A8AAAD;
}
.gb_186{
fill: none;
stroke: #949698;
stroke-width: 0.549;
}
.gc_186{
fill: none;
stroke: #BCBEC0;
stroke-width: 2.566;
}
.gd_186{
fill: #231F20;
}
.ge_186{
fill: none;
stroke: #231F20;
stroke-width: 0.305;
stroke-miterlimit: 10;
}
.gf_186{
fill: none;
stroke: #FFF;
stroke-width: 1.909;
stroke-miterlimit: 10;
}
.gg_186{
fill: none;
stroke: #000;
stroke-width: 0.381;
stroke-miterlimit: 10;
}
]]></style>
</defs>
<path d="M32.1,1344.3H954.5V32.1H32.1V1344.3Z" class="g0_186"/>
<g clip-path="url(#c0_186)">
<path d="M954.5,1344.3H1877V32.1H954.5V1344.3Z" class="g0_186"/>
<path d="M1777.4,163c0,0,30.3,0,30.3,-30.3v-4.4c0,0,0,-30.3,-30.3,-30.3H162.8c0,0,-30.3,0,-30.3,30.3v4.4c0,0,0,30.3,30.3,30.3Z" class="g1_186"/>
</g>
<path d="M183.7,130.5c0,26.3,-21.4,47.6,-47.7,47.6c-26.3,0,-47.6,-21.3,-47.6,-47.6c0,-26.3,21.3,-47.7,47.6,-47.7c26.3,0,47.7,21.4,47.7,47.7Z" class="g2_186"/>
<path d="M158.3,88.4c0,0,26.2,12.3,25.3,44.1c0,0,.4,18,-14.5,32.2c0,0,-12.5,13.6,-33.8,13.4L119.8,142.5L146.3,109Z" class="g3_186"/>
<path d="M138.2,95.4l-35.3,40.3c-2.2,9.2,5.7,10.6,5.7,10.6L162,135.2Z" class="g4_186"/>
<path d="M163.8,131.9c1,1.6,.6,3.7,-1,4.7c-1.6,1,-3.7,.4,-4.7,-1.2L135.8,98.9c-1,-1.6,-.5,-3.7,1.1,-4.7c1.6,-1,3.7,-.4,4.7,1.2Z" class="g5_186"/>
<path d="M112,121.2l-8.5,5.9c-7.2,4.1,-9.8,13,-5.8,19.8c4,6.9,11.5,9.1,18.7,4.9l17.1,25.4c.8,1.9,5,.3,7,-.6c1.9,-1,4.4,-3.3,3.5,-5.2L127.5,145.3l.7,-.8c.7,-.3,-15,-24,-16.2,-23.3Z" class="g6_186"/>
<path d="M168.7,102.2c.4,.5,0,1.4,-.7,1.9l-9.2,6.7c-.7,.5,-1.6,.6,-2,0c-.3,-.5,0,-1.3,.7,-1.8l9.2,-6.7c.8,-.6,1.7,-.6,2,-.1Z" class="g7_186"/>
<path d="M158.4,88.4c.5,.4,.6,1.3,.1,2.1l-5.9,9.8c-.5,.8,-1.3,1.2,-1.9,.9c-.5,-.4,-.5,-1.2,0,-2.1l5.9,-9.8c.5,-.8,1.3,-1.2,1.8,-.9Z" class="g7_186"/>
<path d="M176.2,121.9c.1,-.6,-.6,-1.2,-1.5,-1.3l-11.2,-1.4c-.9,-.1,-1.7,.4,-1.8,1c-.1,.6,.6,1.2,1.5,1.3l11.2,1.3c.9,.2,1.7,-.3,1.8,-.9Z" class="g7_186"/>
<path d="M209.3,566.9c0,0,-13,0,-13,13v69.3c0,0,0,13,13,13H833.6c0,0,13,0,13,-13V579.9c0,0,0,-13,-13,-13Z" class="g8_186"/>
<image clip-path="url(#c1_186)" preserveAspectRatio="none" x="152" y="585" width="75" height="76" xlink:href="img/1.png"/>
<path d="M204.1,654.8c0,0,-26.8,11.3,-51.1,-12.7c0,0,15.2,25.3,49.3,23.9c0,0,24.8,.4,20.3,-10.1c0,0,1.2,-4.4,-18.5,-1.1Z" class="g8_186"/>
<path d="M218.8,219.4c0,0,-13,0,-13,13V280c0,0,0,13,13,13H833.5c0,0,13,0,13,-13V232.4c0,0,0,-13,-13,-13Z" class="g8_186"/>
<image clip-path="url(#c2_186)" preserveAspectRatio="none" x="162" y="216" width="75" height="76" xlink:href="img/2.png"/>
<path d="M213.6,285.6c0,0,-26.8,11.3,-51.1,-12.7c0,0,15.2,25.3,49.3,24c0,0,24.7,.3,20.2,-10.2c0,0,1.3,-4.4,-18.4,-1.1Z" class="g8_186"/>
<path d="M145.1,312.7c0,0,-13,0,-13,13V530.6c0,0,0,13,13,13H832.9c0,0,13,0,13,-13V325.7c0,0,0,-13,-13,-13Z" class="g7_186"/>
<path d="M145.1,312.7c0,0,-13,0,-13,13V530.6c0,0,0,13,13,13H832.9c0,0,13,0,13,-13V325.7c0,0,0,-13,-13,-13H145.1Z" class="g9_186"/>
<path d="M770.5,355.1c8.2,0,14.9,-6.5,14.9,-14.5c0,-8,-6.7,-14.5,-14.9,-14.5c-8.2,0,-14.9,6.5,-14.9,14.5c0,8,6.7,14.5,14.9,14.5Z" class="ga_186"/>
<path d="M770.5,355.1c8.2,0,14.9,-6.5,14.9,-14.5c0,-8,-6.7,-14.5,-14.9,-14.5c-8.2,0,-14.9,6.5,-14.9,14.5c0,8,6.7,14.5,14.9,14.5Z" class="gb_186"/>
<path d="M770.5,345.9c3,0,5.5,-2.4,5.5,-5.3c0,-2.9,-2.5,-5.3,-5.5,-5.3c-3.1,0,-5.5,2.4,-5.5,5.3c0,2.9,2.4,5.3,5.5,5.3Z" class="g7_186"/>
<path d="M770.5,345.9c3,0,5.5,-2.4,5.5,-5.3c0,-2.9,-2.5,-5.3,-5.5,-5.3c-3.1,0,-5.5,2.4,-5.5,5.3c0,2.9,2.4,5.3,5.5,5.3Z" class="gc_186"/>
<g clip-path="url(#c3_186)" opacity="0.3">
<path d="M755.9,339.8v0c0,0,-.1,-4.8,3.6,-8.6l7.8,6.7c0,0,-1,.9,-1,2.6Z" class="g7_186"/>
</g>
<path d="M775.1,340.5c0,0,-3.5,0,-3.5,3.5v8.6c0,0,0,3.5,3.5,3.5h43.5c0,0,3.4,0,3.4,-3.5V344c0,0,0,-3.5,-3.4,-3.5Z" class="gd_186"/>
<path d="M145.1,679c0,0,-13,0,-13,12.9v531.5c0,0,0,13,13,13h688c0,0,13,0,13,-13V691.9c0,0,0,-12.9,-13,-12.9Z" class="g7_186"/>
<path d="M145.1,679c0,0,-13,0,-13,12.9v531.5c0,0,0,13,13,13h688c0,0,13,0,13,-13V691.9c0,0,0,-12.9,-13,-12.9h-688Z" class="g9_186"/>
<image clip-path="url(#c4_186)" preserveAspectRatio="none" x="222" y="751" width="90" height="89" xlink:href="img/3.jpg"/>
<image clip-path="url(#c5_186)" preserveAspectRatio="none" x="222" y="871" width="90" height="90" xlink:href="img/4.jpg"/>
<image clip-path="url(#c6_186)" preserveAspectRatio="none" x="398" y="749" width="89" height="90" xlink:href="img/5.jpg"/>
<image clip-path="url(#c7_186)" preserveAspectRatio="none" x="398" y="871" width="89" height="90" xlink:href="img/6.jpg"/>
<image clip-path="url(#c8_186)" preserveAspectRatio="none" x="563" y="749" width="89" height="90" xlink:href="img/7.jpg"/>
<image clip-path="url(#c9_186)" preserveAspectRatio="none" x="563" y="871" width="89" height="90" xlink:href="img/8.jpg"/>
<image clip-path="url(#ca_186)" preserveAspectRatio="none" x="728" y="749" width="90" height="90" xlink:href="img/9.jpg"/>
<image clip-path="url(#cb_186)" preserveAspectRatio="none" x="728" y="871" width="90" height="90" xlink:href="img/10.jpg"/>
<path d="M389.2,1057.9h25.9" class="ge_186"/>
<path d="M32.1,45.1H9.2m958.3,0h22.9M32.1,1331.3H9.2m958.3,0h22.9M45.1,32.1V9.2m0,1335.1v22.9M954.5,32.1V9.2m0,1335.1v22.9" class="gf_186"/>
<path d="M32.1,45.1H9.2m958.3,0h22.9M32.1,1331.3H9.2m958.3,0h22.9M45.1,32.1V9.2m0,1335.1v22.9M954.5,32.1V9.2m0,1335.1v22.9" class="gg_186"/>
<path d="M27.5,32.1H0m972.1,0h27.5M27.5,1344.3H0m972.1,0h27.5M32.1,27.5V0m0,1348.9v27.5M967.5,27.5V0m0,1348.9v27.5" class="gf_186"/>
<path d="M27.5,32.1H0m972.1,0h27.5M27.5,1344.3H0m972.1,0h27.5M32.1,27.5V0m0,1348.9v27.5M967.5,27.5V0m0,1348.9v27.5" class="gg_186"/>
</svg>