<?xml version="1.0" encoding="UTF-8" standalone="no"?>
<!DOCTYPE svg PUBLIC "-//W3C//DTD SVG 1.1//EN"
"http://www.w3.org/Graphics/SVG/1.1/DTD/svg11.dtd">
<svg viewBox="0 0 999 1376" version="1.1" xmlns="http://www.w3.org/2000/svg" xmlns:xlink="http://www.w3.org/1999/xlink">
<defs>
<clipPath id="c0_2"><path d="M32.1,1344.3V32.1H967.5V1344.3Z"/></clipPath>
<style type="text/css"><![CDATA[
.g0_2{
fill: #E0EDE2;
}
.g1_2{
fill: #FFF;
}
.g2_2{
fill: #2E6E51;
}
.g3_2{
fill: #FCD6CD;
}
.g4_2{
fill: none;
stroke: #FFF;
stroke-width: 1.909;
stroke-miterlimit: 10;
}
.g5_2{
fill: none;
stroke: #000;
stroke-width: 0.381;
stroke-miterlimit: 10;
}
]]></style>
</defs>
<path d="M32.1,1344.3H967.5V32.1H32.1V1344.3Z" class="g0_2"/>
<path clip-path="url(#c0_2)" d="M128.4,112.6c0,0,-18.4,0,-18.4,18.3V1233.6c0,0,0,18.3,18.4,18.3H1785c0,0,18.3,0,18.3,-18.3V130.9c0,0,0,-18.3,-18.3,-18.3Z" class="g1_2"/>
<path d="M118.7,105.7c0,0,-8.7,0,-8.7,8.7v16c0,0,0,8.7,8.7,8.7H286.9c0,0,8.6,0,8.6,-8.7v-16c0,0,0,-8.7,-8.6,-8.7Z" class="g2_2"/>
<path clip-path="url(#c0_2)" d="M285,105.7v33.4H1789.6c0,0,13.7,0,13.7,-13.8v-5.8c0,0,0,-13.8,-13.7,-13.8Z" class="g3_2"/>
<path d="M32.1,45.1H9.2m958.3,0h22.9M32.1,1331.3H9.2m958.3,0h22.9M45.1,32.1V9.2m0,1335.1v22.9M954.5,32.1V9.2m0,1335.1v22.9" class="g4_2"/>
<path d="M32.1,45.1H9.2m958.3,0h22.9M32.1,1331.3H9.2m958.3,0h22.9M45.1,32.1V9.2m0,1335.1v22.9M954.5,32.1V9.2m0,1335.1v22.9" class="g5_2"/>
<path d="M27.5,32.1H0m972.1,0h27.5M27.5,1344.3H0m972.1,0h27.5M32.1,27.5V0m0,1348.9v27.5M967.5,27.5V0m0,1348.9v27.5" class="g4_2"/>
<path d="M27.5,32.1H0m972.1,0h27.5M27.5,1344.3H0m972.1,0h27.5M32.1,27.5V0m0,1348.9v27.5M967.5,27.5V0m0,1348.9v27.5" class="g5_2"/>
</svg>