<?xml version="1.0" encoding="UTF-8" standalone="no"?>
<!DOCTYPE svg PUBLIC "-//W3C//DTD SVG 1.1//EN"
"http://www.w3.org/Graphics/SVG/1.1/DTD/svg11.dtd">
<svg viewBox="0 0 999 1376" version="1.1" xmlns="http://www.w3.org/2000/svg" xmlns:xlink="http://www.w3.org/1999/xlink">
<defs>
<clipPath id="c0_369"><path d="M32.1,1344.3V32.1H967.5V1344.3Z"/></clipPath>
<clipPath id="c1_369"><path d="M230.9,1027.7V378h508v649.7Z"/></clipPath>
<style type="text/css"><![CDATA[
.g0_369{
fill: #FEFCF4;
}
.g1_369{
fill: #FFF;
}
.g2_369{
fill: none;
stroke: #6381B7;
stroke-width: 0.763;
}
.g3_369{
fill: #BC93AB;
}
.g4_369{
fill: none;
stroke: #D1B8D8;
stroke-width: 1.222;
}
.g5_369{
fill: #FFF;
stroke: #D1B8D8;
stroke-width: 1.222;
}
.g6_369{
fill: none;
stroke: #FFF;
stroke-width: 1.909;
stroke-miterlimit: 10;
}
.g7_369{
fill: none;
stroke: #000;
stroke-width: 0.381;
stroke-miterlimit: 10;
}
]]></style>
</defs>
<path clip-path="url(#c0_369)" d="M-877.3,1343.2H45.1V32.1H-877.3V1343.2Z" class="g0_369"/>
<path d="M45.1,1344.3H967.5V32.1H45.1V1344.3Z" class="g0_369"/>
<path d="M166.3,131.7c0,0,-13,0,-13,13V1227.4c0,0,0,13,13,13H854.9c0,0,13,0,13,-13V144.7c0,0,0,-13,-13,-13Z" class="g1_369"/>
<path d="M166.3,131.7c0,0,-13,0,-13,13V1227.4c0,0,0,13,13,13H854.9c0,0,13,0,13,-13V144.7c0,0,0,-13,-13,-13H166.3Z" class="g2_369"/>
<path d="M190.2,162c0,0,-6.5,0,-6.5,6.5v17.3c0,0,0,6.5,6.5,6.5H372.1c0,0,6.5,0,6.5,-6.5V168.5c0,0,0,-6.5,-6.5,-6.5Z" class="g3_369"/>
<image clip-path="url(#c1_369)" preserveAspectRatio="none" x="231" y="378" width="508" height="652" xlink:href="img/1.jpg"/>
<path d="M349.8,317.7c0,0,-10.4,0,-10.4,10.4v61.3c0,0,0,10.4,10.4,10.4H504.4c0,0,10.4,0,10.4,-10.4V328.1c0,0,0,-10.4,-10.4,-10.4Z" class="g1_369"/>
<path d="M349.8,317.7c0,0,-10.4,0,-10.4,10.4v61.3c0,0,0,10.4,10.4,10.4H504.4c0,0,10.4,0,10.4,-10.4V328.1c0,0,0,-10.4,-10.4,-10.4H349.8Z" class="g4_369"/>
<path d="M463.4,397c0,0,4.5,17,22.9,17.7c0,0,-7.6,-8.7,-6.6,-17.7" class="g5_369"/>
<path d="M348.2,390.5H504.1V327H348.2v63.5Z" class="g1_369"/>
<path d="M563.8,264c0,0,-10.4,0,-10.4,10.3V404.6c0,0,0,10.4,10.4,10.4H763.4c0,0,10.4,0,10.4,-10.4V274.3c0,0,0,-10.3,-10.4,-10.3Z" class="g1_369"/>
<path d="M563.8,264c0,0,-10.4,0,-10.4,10.3V404.6c0,0,0,10.4,10.4,10.4H763.4c0,0,10.4,0,10.4,-10.4V274.3c0,0,0,-10.3,-10.4,-10.3H563.8Z" class="g4_369"/>
<path d="M595,412.2c0,0,-4.5,17,-22.9,17.7c0,0,7.6,-8.7,6.6,-17.7" class="g5_369"/>
<path d="M564.8,402.9H768.3V276H564.8V402.9Z" class="g1_369"/>
<path d="M659,464c0,0,-10.4,0,-10.4,10.4v65.4c0,0,0,10.3,10.4,10.3H826.6c0,0,10.4,0,10.4,-10.3V474.4c0,0,0,-10.4,-10.4,-10.4Z" class="g1_369"/>
<path d="M659,464c0,0,-10.4,0,-10.4,10.4v65.4c0,0,0,10.3,10.4,10.3H826.6c0,0,10.4,0,10.4,-10.3V474.4c0,0,0,-10.4,-10.4,-10.4H659Z" class="g4_369"/>
<path d="M690.3,547.4c0,0,-4.5,17,-22.9,17.6c0,0,7.6,-8.6,6.6,-17.6" class="g5_369"/>
<path d="M659,744.7c0,0,-10.4,0,-10.4,10.4v34.3c0,0,0,10.4,10.4,10.4H833.5c0,0,10.4,0,10.4,-10.4V755.1c0,0,0,-10.4,-10.4,-10.4Z" class="g1_369"/>
<path d="M659,744.7c0,0,-10.4,0,-10.4,10.4v34.3c0,0,0,10.4,10.4,10.4H833.5c0,0,10.4,0,10.4,-10.4V755.1c0,0,0,-10.4,-10.4,-10.4H659Z" class="g4_369"/>
<path d="M690.3,797c0,0,-4.5,17,-22.9,17.7c0,0,7.6,-8.7,6.6,-17.7" class="g5_369"/>
<path d="M657.4,788.4H837.6V757.8H657.4v30.6Z" class="g1_369"/>
<path d="M536.8,1002.8c0,0,-10.4,0,-10.4,10.4v154.2c0,0,0,10.4,10.4,10.4H711.3c0,0,10.4,0,10.4,-10.4V1013.2c0,0,0,-10.4,-10.4,-10.4Z" class="g1_369"/>
<path d="M536.8,1002.8c0,0,-10.4,0,-10.4,10.4v154.2c0,0,0,10.4,10.4,10.4H711.3c0,0,10.4,0,10.4,-10.4V1013.2c0,0,0,-10.4,-10.4,-10.4H536.8Z" class="g4_369"/>
<path d="M568,1007.7c0,0,-4.5,-16.9,-22.8,-17.6c0,0,7.6,8.6,6.5,17.6" class="g5_369"/>
<path d="M273.5,1002.8c0,0,-10.4,0,-10.4,10.4v134.7c0,0,0,10.4,10.4,10.4H426.8c0,0,10.4,0,10.4,-10.4V1013.2c0,0,0,-10.4,-10.4,-10.4Z" class="g1_369"/>
<path d="M273.5,1002.8c0,0,-10.4,0,-10.4,10.4v134.7c0,0,0,10.4,10.4,10.4H426.8c0,0,10.4,0,10.4,-10.4V1013.2c0,0,0,-10.4,-10.4,-10.4H273.5Z" class="g4_369"/>
<path d="M383.5,1007.7c0,0,4.5,-16.9,22.9,-17.6c0,0,-7.6,8.6,-6.6,17.6" class="g5_369"/>
<path d="M275,1145.2H428.7V1015.9H275v129.3Z" class="g1_369"/>
<path d="M157.4,374.8c0,0,-10.4,0,-10.4,10.4v63.7c0,0,0,10.4,10.4,10.4H314.1c0,0,10.4,0,10.4,-10.4V385.2c0,0,0,-10.4,-10.4,-10.4Z" class="g1_369"/>
<path d="M157.4,374.8c0,0,-10.4,0,-10.4,10.4v63.7c0,0,0,10.4,10.4,10.4H314.1c0,0,10.4,0,10.4,-10.4V385.2c0,0,0,-10.4,-10.4,-10.4H157.4Z" class="g4_369"/>
<path d="M282.3,456.5c0,0,4.5,17,22.8,17.7c0,0,-7.6,-8.7,-6.5,-17.7" class="g5_369"/>
<path d="M157.8,448.5H317.9V385H157.8v63.5Z" class="g1_369"/>
<path d="M173,727.4c0,0,-10.4,0,-10.4,10.4v64.6c0,0,0,10.4,10.4,10.4H328.5c0,0,10.4,0,10.4,-10.4V737.8c0,0,0,-10.4,-10.4,-10.4Z" class="g1_369"/>
<path d="M173,727.4c0,0,-10.4,0,-10.4,10.4v64.6c0,0,0,10.4,10.4,10.4H328.5c0,0,10.4,0,10.4,-10.4V737.8c0,0,0,-10.4,-10.4,-10.4H173Z" class="g4_369"/>
<path d="M296.6,810c0,0,4.5,17,22.9,17.7c0,0,-7.6,-8.7,-6.6,-17.7" class="g5_369"/>
<path d="M170.8,803.1H335.4V739.6H170.8v63.5Z" class="g1_369"/>
<path d="M32.1,45.1H9.2m958.3,0h22.9M32.1,1331.3H9.2m958.3,0h22.9M45.1,32.1V9.2m0,1335.1v22.9M954.5,32.1V9.2m0,1335.1v22.9" class="g6_369"/>
<path d="M32.1,45.1H9.2m958.3,0h22.9M32.1,1331.3H9.2m958.3,0h22.9M45.1,32.1V9.2m0,1335.1v22.9M954.5,32.1V9.2m0,1335.1v22.9" class="g7_369"/>
<path d="M27.5,32.1H0m972.1,0h27.5M27.5,1344.3H0m972.1,0h27.5M32.1,27.5V0m0,1348.9v27.5M967.5,27.5V0m0,1348.9v27.5" class="g6_369"/>
<path d="M27.5,32.1H0m972.1,0h27.5M27.5,1344.3H0m972.1,0h27.5M32.1,27.5V0m0,1348.9v27.5M967.5,27.5V0m0,1348.9v27.5" class="g7_369"/>
</svg>