<?xml version="1.0" encoding="UTF-8" standalone="no"?>
<!DOCTYPE svg PUBLIC "-//W3C//DTD SVG 1.1//EN"
"http://www.w3.org/Graphics/SVG/1.1/DTD/svg11.dtd">
<svg viewBox="0 0 999 1376" version="1.1" xmlns="http://www.w3.org/2000/svg" xmlns:xlink="http://www.w3.org/1999/xlink">
<defs>
<clipPath id="c0_306"><path d="M32.1,1344.3V32.1H967.5V1344.3Z"/></clipPath>
<clipPath id="c1_306"><path d="M176.7,310.9l-6.5,-2.1L153.8,294.9V237.8h72v73.1Z"/></clipPath>
<clipPath id="c2_306"><path d="M186,850.5l-6.5,-2.1l-16.4,-14V777.3H235v73.2Z"/></clipPath>
<clipPath id="c3_306"><path d="M760.9,356V343.6h14.4V356Z"/></clipPath>
<style type="text/css"><![CDATA[
.g0_306{
fill: #FEFCF4;
}
.g1_306{
fill: #59816A;
}
.g2_306{
fill: #2E6E51;
}
.g3_306{
fill: #92A696;
}
.g4_306{
fill: #F9F6DB;
}
.g5_306{
fill: #DE524C;
}
.g6_306{
fill: #030303;
}
.g7_306{
fill: #FFF;
}
.g8_306{
fill: #FCE8B0;
}
.g9_306{
fill: none;
stroke: #6381B7;
stroke-width: 0.763;
}
.ga_306{
fill: #A8AAAD;
}
.gb_306{
fill: none;
stroke: #949698;
stroke-width: 0.549;
}
.gc_306{
fill: none;
stroke: #BCBEC0;
stroke-width: 2.566;
}
.gd_306{
fill: #231F20;
}
.ge_306{
fill: none;
stroke: #FFF;
stroke-width: 1.909;
stroke-miterlimit: 10;
}
.gf_306{
fill: none;
stroke: #000;
stroke-width: 0.381;
stroke-miterlimit: 10;
}
]]></style>
</defs>
<path d="M32.1,1343.2H954.5V32.1H32.1V1343.2Z" class="g0_306"/>
<g clip-path="url(#c0_306)">
<path d="M954.5,1344.3H1877V32.1H954.5V1344.3Z" class="g0_306"/>
<path d="M1777.4,163c0,0,30.3,0,30.3,-30.3v-4.4c0,0,0,-30.3,-30.3,-30.3H162.8c0,0,-30.3,0,-30.3,30.3v4.4c0,0,0,30.3,30.3,30.3Z" class="g1_306"/>
</g>
<path d="M183.7,130.5c0,26.3,-21.4,47.6,-47.7,47.6c-26.3,0,-47.6,-21.3,-47.6,-47.6c0,-26.3,21.3,-47.7,47.6,-47.7c26.3,0,47.7,21.4,47.7,47.7Z" class="g2_306"/>
<path d="M158.3,88.4c0,0,26.2,12.3,25.3,44.1c0,0,.4,18,-14.5,32.2c0,0,-12.5,13.6,-33.8,13.4L119.8,142.5L146.3,109Z" class="g3_306"/>
<path d="M138.2,95.4l-35.3,40.3c-2.2,9.2,5.7,10.6,5.7,10.6L162,135.2Z" class="g4_306"/>
<path d="M163.8,131.9c1,1.6,.6,3.7,-1,4.7c-1.6,1,-3.7,.4,-4.7,-1.2L135.8,98.9c-1,-1.6,-.5,-3.7,1.1,-4.7c1.6,-1,3.7,-.4,4.7,1.2Z" class="g5_306"/>
<path d="M112,121.2l-8.5,5.9c-7.2,4.1,-9.8,13,-5.8,19.8c4,6.9,11.5,9.1,18.7,4.9l17.1,25.4c.8,1.9,5,.3,7,-.6c1.9,-1,4.4,-3.3,3.5,-5.2L127.5,145.3l.7,-.8c.7,-.3,-15,-24,-16.2,-23.3Z" class="g6_306"/>
<path d="M168.7,102.2c.4,.5,0,1.4,-.7,1.9l-9.2,6.7c-.7,.5,-1.6,.6,-2,0c-.3,-.5,0,-1.3,.7,-1.8l9.2,-6.7c.8,-.6,1.7,-.6,2,-.1Z" class="g7_306"/>
<path d="M158.4,88.4c.5,.4,.6,1.3,.1,2.1l-5.9,9.8c-.5,.8,-1.3,1.2,-1.9,.9c-.5,-.4,-.5,-1.2,0,-2.1l5.9,-9.8c.5,-.8,1.3,-1.2,1.8,-.9Z" class="g7_306"/>
<path d="M176.2,121.9c.1,-.6,-.6,-1.2,-1.5,-1.3l-11.2,-1.4c-.9,-.1,-1.7,.4,-1.8,1c-.1,.6,.6,1.2,1.5,1.3l11.2,1.3c.9,.2,1.7,-.3,1.8,-.9Z" class="g7_306"/>
<path d="M209.3,218.3c0,0,-13,0,-13,13v69.3c0,0,0,13,13,13H833.6c0,0,13,0,13,-13V231.3c0,0,0,-13,-13,-13Z" class="g8_306"/>
<image clip-path="url(#c1_306)" preserveAspectRatio="none" x="152" y="236" width="75" height="77" xlink:href="img/1.png"/>
<path d="M204.1,306.2c0,0,-26.8,11.3,-51.1,-12.7c0,0,15.2,25.3,49.3,23.9c0,0,24.8,.4,20.3,-10.1c0,0,1.2,-4.5,-18.5,-1.1Z" class="g8_306"/>
<path d="M218.6,779.5c0,0,-13,0,-13,13v47.6c0,0,0,13,13,13H833.3c0,0,13,0,13,-13V792.5c0,0,0,-13,-13,-13Z" class="g8_306"/>
<image clip-path="url(#c2_306)" preserveAspectRatio="none" x="161" y="776" width="75" height="76" xlink:href="img/2.png"/>
<path d="M213.4,845.8c0,0,-26.9,11.3,-51.1,-12.8c0,0,15.1,25.3,49.3,24c0,0,24.7,.3,20.2,-10.2c0,0,1.2,-4.4,-18.4,-1Z" class="g8_306"/>
<path d="M145.1,326.6c0,0,-13,0,-13,12.9V703c0,0,0,13,13,13H832.9c0,0,13,0,13,-13V339.5c0,0,0,-12.9,-13,-12.9Z" class="g7_306"/>
<path d="M145.1,326.6c0,0,-13,0,-13,12.9V703c0,0,0,13,13,13H832.9c0,0,13,0,13,-13V339.5c0,0,0,-12.9,-13,-12.9H145.1Z" class="g9_306"/>
<path d="M201.7,409.1H725V372.4H201.7v36.7Z" class="g7_306"/>
<path d="M180,607.1H577V585.7H180v21.4Z" class="g7_306"/>
<path d="M777,369c8.2,0,14.9,-6.5,14.9,-14.5c0,-8,-6.7,-14.5,-14.9,-14.5c-8.3,0,-14.9,6.5,-14.9,14.5c0,8,6.6,14.5,14.9,14.5Z" class="ga_306"/>
<path d="M777,369c8.2,0,14.9,-6.5,14.9,-14.5c0,-8,-6.7,-14.5,-14.9,-14.5c-8.3,0,-14.9,6.5,-14.9,14.5c0,8,6.6,14.5,14.9,14.5Z" class="gb_306"/>
<path d="M777,359.8c3,0,5.5,-2.4,5.5,-5.3c0,-3,-2.5,-5.3,-5.5,-5.3c-3.1,0,-5.5,2.3,-5.5,5.3c0,2.9,2.4,5.3,5.5,5.3Z" class="g7_306"/>
<path d="M777,359.8c3,0,5.5,-2.4,5.5,-5.3c0,-3,-2.5,-5.3,-5.5,-5.3c-3.1,0,-5.5,2.3,-5.5,5.3c0,2.9,2.4,5.3,5.5,5.3Z" class="gc_306"/>
<g clip-path="url(#c3_306)" opacity="0.3">
<path d="M762.4,353.7v0c0,0,-.1,-4.8,3.6,-8.6l7.8,6.7c0,0,-1,.9,-1,2.6Z" class="g7_306"/>
</g>
<path d="M781.6,354.4c0,0,-3.5,0,-3.5,3.5v8.6c0,0,0,3.5,3.5,3.5h43.5c0,0,3.4,0,3.4,-3.5v-8.6c0,0,0,-3.5,-3.4,-3.5Z" class="gd_306"/>
<path d="M145.1,874.2c0,0,-13,0,-13,13V1164c0,0,0,13,13,13H832.9c0,0,13,0,13,-13V887.2c0,0,0,-13,-13,-13Z" class="g7_306"/>
<path d="M145.1,874.2c0,0,-13,0,-13,13V1164c0,0,0,13,13,13H832.9c0,0,13,0,13,-13V887.2c0,0,0,-13,-13,-13H145.1Z" class="g9_306"/>
<path d="M203.1,941.4H676.5V920.1H203.1v21.3Z" class="g7_306"/>
<path d="M32.1,45.1H9.2m958.3,0h22.9M32.1,1331.3H9.2m958.3,0h22.9M45.1,32.1V9.2m0,1335.1v22.9M954.5,32.1V9.2m0,1335.1v22.9" class="ge_306"/>
<path d="M32.1,45.1H9.2m958.3,0h22.9M32.1,1331.3H9.2m958.3,0h22.9M45.1,32.1V9.2m0,1335.1v22.9M954.5,32.1V9.2m0,1335.1v22.9" class="gf_306"/>
<path d="M27.5,32.1H0m972.1,0h27.5M27.5,1344.3H0m972.1,0h27.5M32.1,27.5V0m0,1348.9v27.5M967.5,27.5V0m0,1348.9v27.5" class="ge_306"/>
<path d="M27.5,32.1H0m972.1,0h27.5M27.5,1344.3H0m972.1,0h27.5M32.1,27.5V0m0,1348.9v27.5M967.5,27.5V0m0,1348.9v27.5" class="gf_306"/>
</svg>