<?xml version="1.0" encoding="UTF-8" standalone="no"?>
<!DOCTYPE svg PUBLIC "-//W3C//DTD SVG 1.1//EN"
"http://www.w3.org/Graphics/SVG/1.1/DTD/svg11.dtd">
<svg viewBox="0 0 999 1376" version="1.1" xmlns="http://www.w3.org/2000/svg" xmlns:xlink="http://www.w3.org/1999/xlink">
<defs>
<clipPath id="c0_360"><path d="M32.1,1344.3V32.1H967.5V1344.3Z"/></clipPath>
<clipPath id="c1_360"><path d="M242.4,414.9V260.2H406V414.9Z"/></clipPath>
<clipPath id="c2_360"><path d="M478.1,414.9V260.2H647V414.9Z"/></clipPath>
<clipPath id="c3_360"><path d="M220.5,672.6V517.8H404.1V672.6Z"/></clipPath>
<clipPath id="c4_360"><path d="M485,671.3V517.8H656.4V671.3Z"/></clipPath>
<clipPath id="c5_360"><path d="M223,920.9V766.1H420.9V920.9Z"/></clipPath>
<clipPath id="c6_360"><path d="M481.5,920.9V766.1H657.7V920.9Z"/></clipPath>
<clipPath id="c7_360"><path d="M238.5,1166.3V1011.5H405.2v154.8Z"/></clipPath>
<clipPath id="c8_360"><path d="M482.8,1166.3V1011.5H665v154.8Z"/></clipPath>
<style type="text/css"><![CDATA[
.g0_360{
fill: #FEFCF4;
}
.g1_360{
fill: #FFF;
}
.g2_360{
fill: none;
stroke: #6381B7;
stroke-width: 0.763;
}
.g3_360{
fill: #BC93AB;
}
.g4_360{
fill: none;
stroke: #FFF;
stroke-width: 1.909;
stroke-miterlimit: 10;
}
.g5_360{
fill: none;
stroke: #000;
stroke-width: 0.381;
stroke-miterlimit: 10;
}
]]></style>
</defs>
<path d="M32.1,1343.2H954.5V32.1H32.1V1343.2Z" class="g0_360"/>
<path clip-path="url(#c0_360)" d="M954.5,1344.3H1877V32.1H954.5V1344.3Z" class="g0_360"/>
<path d="M145.1,131.7c0,0,-13,0,-13,13v1087c0,0,0,13,13,13H832.9c0,0,13,0,13,-13V144.7c0,0,0,-13,-13,-13Z" class="g1_360"/>
<path d="M145.1,131.7c0,0,-13,0,-13,13v1087c0,0,0,13,13,13H832.9c0,0,13,0,13,-13V144.7c0,0,0,-13,-13,-13H145.1Z" class="g2_360"/>
<path d="M218.8,414.9H420.9V260.2H218.8V414.9Z" class="g1_360"/>
<image clip-path="url(#c1_360)" preserveAspectRatio="none" x="242" y="258" width="164" height="157" xlink:href="img/1.jpg"/>
<path d="M468.5,414.9H670.6V260.2H468.5V414.9Z" class="g1_360"/>
<image clip-path="url(#c2_360)" preserveAspectRatio="none" x="478" y="259" width="169" height="156" xlink:href="img/2.jpg"/>
<path d="M218.8,672.6H420.9V517.8H218.8V672.6Z" class="g1_360"/>
<image clip-path="url(#c3_360)" preserveAspectRatio="none" x="220" y="516" width="184" height="158" xlink:href="img/3.jpg"/>
<path d="M468.5,672.6H670.6V517.8H468.5V672.6Z" class="g1_360"/>
<image clip-path="url(#c4_360)" preserveAspectRatio="none" x="485" y="516" width="171" height="155" xlink:href="img/4.jpg"/>
<path d="M218.8,920.9H420.9V766.1H218.8V920.9Z" class="g1_360"/>
<image clip-path="url(#c5_360)" preserveAspectRatio="none" x="223" y="764" width="200" height="159" xlink:href="img/5.jpg"/>
<path d="M468.5,920.9H670.6V766.1H468.5V920.9Z" class="g1_360"/>
<image clip-path="url(#c6_360)" preserveAspectRatio="none" x="481" y="764" width="177" height="159" xlink:href="img/6.jpg"/>
<path d="M218.8,1166.3H420.9V1011.5H218.8v154.8Z" class="g1_360"/>
<image clip-path="url(#c7_360)" preserveAspectRatio="none" x="239" y="1010" width="166" height="158" xlink:href="img/7.jpg"/>
<path d="M468.5,1166.3H670.6V1011.5H468.5v154.8Z" class="g1_360"/>
<image clip-path="url(#c8_360)" preserveAspectRatio="none" x="483" y="1010" width="182" height="158" xlink:href="img/8.jpg"/>
<path d="M180.4,161.9c0,0,-6.5,0,-6.5,6.5v17.3c0,0,0,6.5,6.5,6.5H513.9c0,0,6.5,0,6.5,-6.5V168.4c0,0,0,-6.5,-6.5,-6.5Z" class="g3_360"/>
<path d="M32.1,45.1H9.2m958.3,0h22.9M32.1,1331.3H9.2m958.3,0h22.9M45.1,32.1V9.2m0,1335.1v22.9M954.5,32.1V9.2m0,1335.1v22.9" class="g4_360"/>
<path d="M32.1,45.1H9.2m958.3,0h22.9M32.1,1331.3H9.2m958.3,0h22.9M45.1,32.1V9.2m0,1335.1v22.9M954.5,32.1V9.2m0,1335.1v22.9" class="g5_360"/>
<path d="M27.5,32.1H0m972.1,0h27.5M27.5,1344.3H0m972.1,0h27.5M32.1,27.5V0m0,1348.9v27.5M967.5,27.5V0m0,1348.9v27.5" class="g4_360"/>
<path d="M27.5,32.1H0m972.1,0h27.5M27.5,1344.3H0m972.1,0h27.5M32.1,27.5V0m0,1348.9v27.5M967.5,27.5V0m0,1348.9v27.5" class="g5_360"/>
</svg>